<?xml version="1.0" encoding="UTF-8"?><svg id="Ebene_1" xmlns="http://www.w3.org/2000/svg" viewBox="0 0 988 525"><text transform="translate(346.31 207.54)" style="fill:#0333ff; font-family:Arial-BoldMT, Arial; font-size:20px; font-weight:700;"><tspan x="0" y="0">Align</tspan></text><text transform="translate(696.3 352.31)" style="fill:#0333ff; font-family:Arial-BoldMT, Arial; font-size:20px; font-weight:700;"><tspan x="0" y="0">Enable</tspan></text><g><g><text transform="translate(456.26 134.79)" style="fill:#1d1d1b; font-family:Arial-BoldMT, Arial; font-size:20px; font-weight:700;"><tspan x="0" y="0">Geschäftsstrategie</tspan></text><rect x="396.3" y="97.63" width="300" height="60" rx="1" ry="1" style="fill:none; stroke:#1d1d1b;"/></g><g><text transform="translate(454.59 279.66)" style="font-family:Arial-BoldMT, Arial; font-size:20px; font-weight:700;"><tspan x="0" y="0">Geschäftsprozesse</tspan></text><rect x="396.3" y="242.5" width="300" height="60" rx="1" ry="1" style="fill:none; stroke:#000; stroke-miterlimit:10;"/></g><g><text transform="translate(451.27 424.53)" style="fill:#1d1d1b; font-family:Arial-BoldMT, Arial; font-size:20px; font-weight:700;"><tspan x="0" y="0">Informationssystem</tspan></text><rect x="396.3" y="387.37" width="300" height="60" rx="1" ry="1" style="fill:none; stroke:#1d1d1b;"/></g></g><g><g><line x1="665.97" y1="417.37" x2="665.97" y2="171.98" style="fill:none; stroke:#0333ff; stroke-miterlimit:10; stroke-width:2px;"/><polygon points="675.95 174.9 665.97 157.63 656 174.9 675.95 174.9" style="fill:#0333ff;"/></g><g><line x1="426.62" y1="129.81" x2="426.62" y2="373.02" style="fill:none; stroke:#0333ff; stroke-miterlimit:10; stroke-width:2px;"/><polygon points="416.65 370.1 426.62 387.37 436.6 370.1 416.65 370.1" style="fill:#0333ff;"/></g></g><text transform="translate(54.45 132.32)" style="font-family:ArialMT, Arial; font-size:16px;"><tspan x="0" y="0">Strategie — was?</tspan></text><text transform="translate(54.45 272.5)" style="font-family:ArialMT, Arial; font-size:16px;"><tspan x="0" y="0">Organisation — wie?</tspan></text><text transform="translate(54.45 417.37)" style="font-family:ArialMT, Arial; font-size:16px;"><tspan x="0" y="0" style="letter-spacing:-.11em;">T</tspan><tspan x="8" y="0">echnologie — womit?</tspan></text><g><line x1="54.46" y1="203.92" x2="56.46" y2="203.92" style="fill:none; stroke:#1d1d1b;"/><line x1="64.39" y1="203.92" x2="203.17" y2="203.92" style="fill:none; stroke:#1d1d1b; stroke-dasharray:0 0 3.97 7.93;"/><line x1="207.14" y1="203.92" x2="209.14" y2="203.92" style="fill:none; stroke:#1d1d1b;"/></g><g><line x1="54.46" y1="341.26" x2="56.46" y2="341.26" style="fill:none; stroke:#1d1d1b;"/><line x1="64.39" y1="341.26" x2="203.17" y2="341.26" style="fill:none; stroke:#1d1d1b; stroke-dasharray:0 0 3.97 7.93;"/><line x1="207.14" y1="341.26" x2="209.14" y2="341.26" style="fill:none; stroke:#1d1d1b;"/></g></svg>