<?xml version="1.0" encoding="UTF-8"?><svg id="Ebene_1" xmlns="http://www.w3.org/2000/svg" viewBox="0 0 988 525"><polygon points="522.83 182.71 401.57 392.74 644.09 392.74 522.83 182.71" style="fill:#fff;"/><g><path d="M279.27,437.02v-10.02h2.02v4.45l4.09-4.45h2.72l-3.77,3.9,3.98,6.12h-2.62l-2.75-4.7-1.64,1.67v3.03h-2.02Z"/><path d="M288.91,433.28c0-.64,.16-1.25,.47-1.85,.31-.6,.76-1.05,1.34-1.37,.58-.31,1.22-.47,1.93-.47,1.1,0,2,.36,2.7,1.07,.7,.71,1.05,1.61,1.05,2.7s-.35,2.01-1.06,2.73c-.71,.72-1.6,1.08-2.68,1.08-.67,0-1.3-.15-1.9-.45-.6-.3-1.06-.74-1.38-1.32s-.47-1.29-.47-2.12Zm1.97,.1c0,.72,.17,1.27,.51,1.65s.76,.57,1.26,.57,.92-.19,1.26-.57c.34-.38,.51-.94,.51-1.67s-.17-1.26-.51-1.64c-.34-.38-.76-.57-1.26-.57s-.92,.19-1.26,.57-.51,.93-.51,1.65Z"/><path d="M297.24,434.95l1.93-.29c.08,.37,.25,.66,.5,.85,.25,.19,.6,.29,1.05,.29,.5,0,.87-.09,1.12-.27,.17-.13,.25-.3,.25-.51,0-.15-.05-.27-.14-.36-.1-.09-.31-.17-.64-.25-1.55-.34-2.53-.65-2.95-.94-.57-.39-.86-.94-.86-1.63,0-.63,.25-1.16,.75-1.59,.5-.43,1.27-.64,2.31-.64s1.73,.16,2.21,.49c.48,.32,.82,.8,1,1.44l-1.81,.33c-.08-.28-.22-.5-.44-.65-.22-.15-.53-.23-.93-.23-.51,0-.87,.07-1.09,.21-.15,.1-.22,.23-.22,.39,0,.14,.06,.25,.19,.35,.17,.13,.77,.31,1.79,.54,1.02,.23,1.74,.52,2.14,.85,.4,.34,.6,.82,.6,1.43,0,.67-.28,1.24-.83,1.72s-1.38,.72-2.47,.72c-.99,0-1.77-.2-2.35-.6-.58-.4-.95-.95-1.13-1.63Z"/><path d="M309.05,429.76v1.53h-1.31v2.93c0,.59,.01,.94,.04,1.04,.03,.1,.08,.18,.17,.24,.09,.06,.2,.1,.32,.1,.18,0,.44-.06,.77-.18l.16,1.49c-.45,.19-.95,.29-1.52,.29-.35,0-.66-.06-.94-.17s-.48-.27-.61-.45c-.13-.18-.22-.43-.27-.75-.04-.22-.06-.67-.06-1.35v-3.17h-.88v-1.53h.88v-1.44l1.93-1.12v2.56h1.31Z"/><path d="M314.6,434.71l1.91,.32c-.25,.7-.63,1.24-1.17,1.6-.53,.37-1.19,.55-1.99,.55-1.26,0-2.2-.41-2.8-1.24-.48-.66-.72-1.49-.72-2.5,0-1.2,.31-2.15,.94-2.83,.63-.68,1.42-1.02,2.39-1.02,1.08,0,1.93,.36,2.56,1.07,.62,.71,.92,1.81,.9,3.28h-4.81c.01,.57,.17,1.01,.46,1.33,.3,.32,.67,.47,1.11,.47,.3,0,.55-.08,.76-.25s.36-.43,.46-.79Zm.11-1.94c-.01-.56-.16-.98-.43-1.27-.27-.29-.61-.43-1-.43-.42,0-.77,.15-1.04,.46-.27,.31-.41,.72-.4,1.24h2.87Z"/><path d="M324.8,437.02h-1.92v-3.71c0-.78-.04-1.29-.12-1.52-.08-.23-.21-.41-.4-.54-.18-.13-.41-.19-.67-.19-.33,0-.63,.09-.9,.27-.26,.18-.45,.42-.54,.72-.1,.3-.15,.86-.15,1.67v3.29h-1.92v-7.26h1.78v1.07c.63-.82,1.43-1.23,2.39-1.23,.42,0,.81,.08,1.16,.23,.35,.15,.62,.35,.8,.58,.18,.24,.3,.51,.38,.81,.07,.3,.11,.73,.11,1.29v4.51Z"/></g><g><path d="M715.34,438.53v-1.83l5.26-6.5h-4.67v-1.7h7.33v1.57l-5.49,6.76h5.7v1.69h-8.14Z"/><path d="M728.96,436.22l1.91,.32c-.25,.7-.63,1.24-1.17,1.6-.53,.37-1.19,.55-1.99,.55-1.26,0-2.2-.41-2.8-1.24-.48-.66-.72-1.5-.72-2.5,0-1.2,.31-2.15,.94-2.83,.63-.68,1.42-1.02,2.39-1.02,1.08,0,1.93,.36,2.56,1.07,.62,.71,.92,1.8,.9,3.28h-4.81c.01,.57,.17,1.01,.46,1.33,.3,.32,.67,.47,1.11,.47,.3,0,.55-.08,.76-.25s.36-.43,.46-.79Zm.11-1.94c-.01-.56-.16-.98-.43-1.27-.27-.29-.61-.43-1-.43-.42,0-.77,.15-1.04,.46s-.41,.72-.4,1.24h2.87Z"/><path d="M732.56,430.28v-1.78h1.92v1.78h-1.92Zm0,8.24v-7.26h1.92v7.26h-1.92Z"/><path d="M739.79,431.27v1.53h-1.31v2.93c0,.59,.01,.94,.04,1.04,.03,.1,.08,.18,.17,.24,.09,.06,.2,.1,.32,.1,.18,0,.44-.06,.77-.18l.16,1.49c-.45,.19-.95,.29-1.52,.29-.35,0-.66-.06-.94-.17-.28-.12-.48-.27-.61-.45-.13-.19-.22-.43-.27-.75-.04-.22-.06-.67-.06-1.35v-3.17h-.88v-1.53h.88v-1.44l1.93-1.12v2.56h1.31Z"/></g><g><path d="M505.81,91.94c.5,.36,1.04,.64,1.62,.85l-.75,1.43c-.31-.09-.6-.22-.9-.38-.06-.03-.51-.33-1.35-.89-.66,.29-1.38,.43-2.18,.43-1.54,0-2.75-.45-3.62-1.36-.87-.91-1.31-2.18-1.31-3.82s.44-2.91,1.31-3.82,2.06-1.36,3.56-1.36,2.66,.46,3.53,1.36,1.31,2.18,1.31,3.82c0,.87-.12,1.63-.36,2.28-.18,.5-.47,.99-.88,1.46Zm-1.63-1.14c.26-.3,.45-.67,.58-1.11,.13-.43,.19-.93,.19-1.49,0-1.16-.25-2.02-.77-2.59-.51-.57-1.18-.86-2-.86s-1.49,.29-2.01,.86c-.51,.57-.77,1.44-.77,2.59s.26,2.05,.77,2.63c.51,.58,1.16,.87,1.94,.87,.29,0,.57-.05,.83-.14-.41-.27-.83-.48-1.25-.63l.57-1.16c.67,.23,1.3,.57,1.91,1.03Z"/><path d="M513.41,93.21v-1.09c-.26,.39-.61,.69-1.04,.92-.43,.22-.88,.33-1.36,.33s-.92-.11-1.31-.32c-.39-.21-.67-.51-.84-.9-.17-.39-.26-.92-.26-1.61v-4.59h1.92v3.34c0,1.02,.04,1.65,.11,1.88,.07,.23,.2,.41,.39,.55,.19,.13,.42,.2,.71,.2,.33,0,.62-.09,.88-.27,.26-.18,.44-.4,.53-.67s.14-.92,.14-1.96v-3.06h1.92v7.26h-1.78Z"/><path d="M518.64,88.17l-1.74-.31c.2-.7,.53-1.22,1.01-1.56,.48-.34,1.19-.51,2.13-.51,.86,0,1.5,.1,1.91,.3,.42,.2,.71,.46,.88,.77,.17,.31,.26,.88,.26,1.72l-.02,2.24c0,.64,.03,1.11,.09,1.41,.06,.3,.18,.63,.35,.97h-1.9c-.05-.13-.11-.32-.18-.57-.03-.11-.05-.19-.07-.23-.33,.32-.68,.56-1.05,.72-.37,.16-.77,.24-1.2,.24-.75,0-1.34-.2-1.77-.61-.43-.41-.65-.92-.65-1.54,0-.41,.1-.78,.29-1.1s.47-.57,.82-.74c.35-.17,.86-.32,1.53-.45,.9-.17,1.52-.33,1.87-.47v-.19c0-.37-.09-.63-.27-.79s-.53-.24-1.03-.24c-.34,0-.61,.07-.8,.2-.19,.13-.35,.37-.46,.71Zm2.57,1.56c-.25,.08-.64,.18-1.17,.29-.53,.11-.88,.23-1.05,.33-.25,.18-.38,.4-.38,.68s.1,.5,.3,.7c.2,.2,.46,.29,.77,.29,.35,0,.68-.11,.99-.34,.23-.17,.38-.38,.46-.64,.05-.16,.08-.48,.08-.94v-.38Z"/><path d="M525,93.21v-10.02h1.92v10.02h-1.92Z"/><path d="M528.9,84.97v-1.78h1.92v1.78h-1.92Zm0,8.24v-7.26h1.92v7.26h-1.92Z"/><path d="M536.14,85.95v1.53h-1.31v2.93c0,.59,.01,.94,.04,1.04,.03,.1,.08,.18,.17,.24,.09,.06,.2,.1,.32,.1,.18,0,.44-.06,.77-.18l.16,1.49c-.45,.19-.95,.29-1.52,.29-.35,0-.66-.06-.94-.17s-.48-.27-.61-.45c-.13-.18-.22-.43-.27-.75-.04-.22-.06-.67-.06-1.35v-3.17h-.88v-1.53h.88v-1.44l1.93-1.12v2.56h1.31Z"/><path d="M538.92,88.17l-1.74-.31c.2-.7,.53-1.22,1.01-1.56,.48-.34,1.19-.51,2.13-.51,.86,0,1.5,.1,1.91,.3,.42,.2,.71,.46,.88,.77,.17,.31,.26,.88,.26,1.72l-.02,2.24c0,.64,.03,1.11,.09,1.41,.06,.3,.18,.63,.35,.97h-1.9c-.05-.13-.11-.32-.18-.57-.03-.11-.05-.19-.07-.23-.33,.32-.68,.56-1.05,.72-.37,.16-.77,.24-1.2,.24-.75,0-1.34-.2-1.77-.61-.43-.41-.65-.92-.65-1.54,0-.41,.1-.78,.29-1.1s.47-.57,.82-.74c.35-.17,.86-.32,1.53-.45,.9-.17,1.52-.33,1.87-.47v-.19c0-.37-.09-.63-.27-.79s-.53-.24-1.03-.24c-.34,0-.61,.07-.8,.2-.19,.13-.35,.37-.46,.71Zm-.83-3.5v-1.65h1.65v1.65h-1.65Zm3.4,5.06c-.25,.08-.64,.18-1.17,.29-.53,.11-.88,.23-1.05,.33-.25,.18-.38,.4-.38,.68s.1,.5,.3,.7c.2,.2,.46,.29,.77,.29,.35,0,.68-.11,.99-.34,.23-.17,.38-.38,.46-.64,.05-.16,.08-.48,.08-.94v-.38Zm-.46-5.06v-1.65h1.65v1.65h-1.65Z"/><path d="M548.61,85.95v1.53h-1.31v2.93c0,.59,.01,.94,.04,1.04,.03,.1,.08,.18,.17,.24,.09,.06,.2,.1,.32,.1,.18,0,.44-.06,.77-.18l.16,1.49c-.45,.19-.95,.29-1.52,.29-.35,0-.66-.06-.94-.17s-.48-.27-.61-.45c-.13-.18-.22-.43-.27-.75-.04-.22-.06-.67-.06-1.35v-3.17h-.88v-1.53h.88v-1.44l1.93-1.12v2.56h1.31Z"/></g><polygon points="522.83 182.71 401.57 392.74 644.09 392.74 522.83 182.71" style="fill:none; stroke:#0333ff; stroke-miterlimit:8; stroke-width:2px;"/><g><line x1="522.83" y1="310.29" x2="348.19" y2="429.03" style="fill:none; stroke:#000; stroke-miterlimit:8;"/><polygon points="347 425.33 343.74 432.06 351.2 431.51 347 425.33"/></g><g><line x1="522.83" y1="310.29" x2="697.46" y2="429.03" style="fill:none; stroke:#000; stroke-miterlimit:8;"/><polygon points="694.46 431.51 701.91 432.06 698.66 425.33 694.46 431.51"/></g><g><line x1="522.83" y1="310.29" x2="522.83" y2="110.54" style="fill:none; stroke:#000; stroke-miterlimit:8;"/><polygon points="526.57 111.63 522.83 105.15 519.09 111.63 526.57 111.63"/></g><g><path d="M509.19,370.85v-2.09l6.02-7.43h-5.34v-1.94h8.38v1.8l-6.27,7.73h6.52v1.93h-9.3Z" style="fill:#0333ff;"/><path d="M519.95,361.43v-2.03h2.2v2.03h-2.2Zm0,9.42v-8.3h2.2v8.3h-2.2Z" style="fill:#0333ff;"/><path d="M529.22,368.21l2.19,.37c-.28,.8-.73,1.41-1.33,1.83s-1.37,.63-2.28,.63c-1.44,0-2.51-.47-3.2-1.41-.55-.75-.82-1.71-.82-2.86,0-1.38,.36-2.45,1.08-3.23s1.63-1.17,2.73-1.17c1.23,0,2.21,.41,2.92,1.22s1.05,2.06,1.02,3.75h-5.5c.02,.65,.19,1.16,.53,1.52s.76,.54,1.27,.54c.34,0,.63-.09,.87-.28s.41-.49,.53-.91Zm.12-2.22c-.02-.64-.18-1.12-.49-1.45s-.69-.5-1.14-.5c-.48,0-.88,.17-1.19,.52s-.47,.82-.46,1.42h3.28Z" style="fill:#0333ff;"/><path d="M533.33,370.85v-11.45h2.2v11.45h-2.2Z" style="fill:#0333ff;"/></g><g><path d="M663.03,153.1h-1.14v-10.02h1.23v3.58c.52-.65,1.18-.98,1.99-.98,.45,0,.87,.09,1.27,.27,.4,.18,.73,.43,.98,.76,.26,.33,.46,.72,.6,1.18,.15,.46,.22,.95,.22,1.48,0,1.24-.31,2.21-.92,2.88-.62,.68-1.35,1.02-2.21,1.02s-1.53-.36-2.02-1.07v.91Zm-.01-3.68c0,.87,.12,1.5,.36,1.89,.39,.63,.91,.95,1.57,.95,.54,0,1-.23,1.39-.7,.39-.47,.59-1.16,.59-2.09s-.19-1.65-.56-2.1c-.38-.45-.83-.68-1.36-.68s-1,.23-1.39,.7c-.39,.47-.59,1.14-.59,2.03Z" style="fill:#0333ff;"/><path d="M669.2,150.93l1.22-.19c.07,.49,.26,.86,.57,1.12,.31,.26,.75,.39,1.31,.39s.98-.12,1.26-.35c.27-.23,.41-.5,.41-.81,0-.28-.12-.5-.36-.66-.17-.11-.59-.25-1.26-.42-.9-.23-1.53-.42-1.88-.59-.35-.17-.61-.4-.79-.69-.18-.29-.27-.62-.27-.97,0-.32,.07-.62,.22-.9,.15-.28,.35-.5,.61-.69,.19-.14,.45-.26,.78-.36,.33-.1,.68-.15,1.06-.15,.57,0,1.07,.08,1.5,.25,.43,.16,.75,.39,.95,.67s.35,.66,.42,1.12l-1.2,.16c-.05-.37-.21-.67-.48-.88-.26-.21-.63-.31-1.11-.31-.57,0-.97,.09-1.21,.28-.24,.19-.36,.41-.36,.66,0,.16,.05,.3,.15,.43,.1,.13,.26,.24,.47,.33,.12,.04,.49,.15,1.09,.31,.87,.23,1.48,.42,1.82,.57,.34,.15,.61,.36,.81,.65,.2,.28,.29,.63,.29,1.05s-.12,.8-.36,1.16c-.24,.36-.58,.64-1.04,.84s-.96,.3-1.53,.3c-.94,0-1.66-.2-2.16-.59-.49-.39-.81-.97-.95-1.74Z" style="fill:#0333ff;"/><path d="M676.71,155.88v-10.04h1.12v.94c.26-.37,.56-.65,.9-.83s.74-.28,1.21-.28c.62,0,1.17,.16,1.64,.48,.47,.32,.83,.77,1.07,1.35s.36,1.22,.36,1.91c0,.74-.13,1.41-.4,2.01-.27,.59-.65,1.05-1.16,1.37-.51,.32-1.04,.48-1.6,.48-.41,0-.78-.09-1.1-.26-.33-.17-.59-.39-.8-.66v3.53h-1.23Zm1.11-6.37c0,.93,.19,1.62,.57,2.07,.38,.45,.84,.67,1.37,.67s1.02-.23,1.4-.69c.39-.46,.58-1.18,.58-2.15s-.19-1.62-.57-2.08c-.38-.46-.83-.69-1.36-.69s-.99,.25-1.39,.73c-.4,.49-.61,1.2-.61,2.14Z" style="fill:#0333ff;"/><path d="M685.85,153.1l-2.22-7.26h1.27l1.16,4.19,.43,1.56c.02-.08,.14-.58,.38-1.5l1.16-4.25h1.26l1.09,4.21,.36,1.39,.42-1.4,1.24-4.2h1.2l-2.27,7.26h-1.28l-1.16-4.35-.28-1.24-1.47,5.58h-1.29Z" style="fill:#0333ff;"/><path d="M694.98,153.1v-1.4h1.4v1.4h-1.4Z" style="fill:#0333ff;"/><path d="M701.5,153.1l3.85-10.02h1.43l4.1,10.02h-1.51l-1.17-3.04h-4.19l-1.1,3.04h-1.41Zm2.89-4.12h3.4l-1.05-2.78c-.32-.84-.56-1.54-.71-2.08-.13,.64-.31,1.28-.54,1.91l-1.1,2.94Z" style="fill:#0333ff;"/><path d="M716.55,153.1v-1.07c-.57,.82-1.33,1.23-2.3,1.23-.43,0-.83-.08-1.2-.25-.37-.16-.65-.37-.83-.62-.18-.25-.31-.55-.38-.91-.05-.24-.08-.62-.08-1.15v-4.5h1.23v4.03c0,.64,.03,1.08,.08,1.3,.08,.32,.24,.58,.49,.76s.56,.28,.93,.28,.72-.09,1.04-.28c.32-.19,.55-.45,.69-.77,.13-.33,.2-.8,.2-1.42v-3.89h1.23v7.26h-1.1Z" style="fill:#0333ff;"/><path d="M719.1,150.93l1.22-.19c.07,.49,.26,.86,.57,1.12,.31,.26,.75,.39,1.31,.39s.98-.12,1.26-.35c.27-.23,.41-.5,.41-.81,0-.28-.12-.5-.36-.66-.17-.11-.59-.25-1.26-.42-.9-.23-1.53-.42-1.88-.59-.35-.17-.61-.4-.79-.69-.18-.29-.27-.62-.27-.97,0-.32,.07-.62,.22-.9,.15-.28,.35-.5,.61-.69,.19-.14,.45-.26,.78-.36,.33-.1,.68-.15,1.06-.15,.57,0,1.07,.08,1.5,.25,.43,.16,.75,.39,.95,.67s.35,.66,.42,1.12l-1.2,.16c-.05-.37-.21-.67-.48-.88-.26-.21-.63-.31-1.11-.31-.57,0-.97,.09-1.21,.28-.24,.19-.36,.41-.36,.66,0,.16,.05,.3,.15,.43,.1,.13,.26,.24,.47,.33,.12,.04,.49,.15,1.09,.31,.87,.23,1.48,.42,1.82,.57,.34,.15,.61,.36,.81,.65,.2,.28,.29,.63,.29,1.05s-.12,.8-.36,1.16c-.24,.36-.58,.64-1.04,.84s-.96,.3-1.53,.3c-.94,0-1.66-.2-2.16-.59-.49-.39-.81-.97-.95-1.74Z" style="fill:#0333ff;"/><path d="M726.12,150.93l1.22-.19c.07,.49,.26,.86,.57,1.12,.31,.26,.75,.39,1.31,.39s.98-.12,1.26-.35c.27-.23,.41-.5,.41-.81,0-.28-.12-.5-.36-.66-.17-.11-.59-.25-1.26-.42-.9-.23-1.53-.42-1.88-.59-.35-.17-.61-.4-.79-.69-.18-.29-.27-.62-.27-.97,0-.32,.07-.62,.22-.9,.15-.28,.35-.5,.61-.69,.19-.14,.45-.26,.78-.36,.33-.1,.68-.15,1.06-.15,.57,0,1.07,.08,1.5,.25,.43,.16,.75,.39,.95,.67s.35,.66,.42,1.12l-1.2,.16c-.05-.37-.21-.67-.48-.88-.26-.21-.63-.31-1.11-.31-.57,0-.97,.09-1.21,.28-.24,.19-.36,.41-.36,.66,0,.16,.05,.3,.15,.43,.1,.13,.26,.24,.47,.33,.12,.04,.49,.15,1.09,.31,.87,.23,1.48,.42,1.82,.57,.34,.15,.61,.36,.81,.65,.2,.28,.29,.63,.29,1.05s-.12,.8-.36,1.16c-.24,.36-.58,.64-1.04,.84s-.96,.3-1.53,.3c-.94,0-1.66-.2-2.16-.59-.49-.39-.81-.97-.95-1.74Z" style="fill:#0333ff;"/><path d="M738.36,150.44l1.21,.16c-.13,.83-.47,1.49-1.01,1.96-.54,.47-1.21,.71-2.01,.71-.99,0-1.79-.33-2.4-.97-.6-.65-.91-1.58-.91-2.79,0-.78,.13-1.47,.39-2.06s.66-1.03,1.19-1.32c.53-.29,1.11-.44,1.73-.44,.79,0,1.43,.2,1.93,.6,.5,.4,.82,.96,.96,1.7l-1.2,.18c-.11-.49-.32-.85-.6-1.1-.29-.25-.64-.37-1.05-.37-.62,0-1.12,.22-1.51,.67s-.58,1.15-.58,2.11,.19,1.68,.56,2.13c.37,.44,.86,.66,1.46,.66,.48,0,.89-.15,1.21-.44,.32-.3,.53-.75,.62-1.37Z" style="fill:#0333ff;"/><path d="M740.64,153.1v-10.02h1.23v3.6c.57-.67,1.3-1,2.17-1,.54,0,1,.11,1.4,.32s.68,.5,.85,.88c.17,.37,.26,.92,.26,1.63v4.6h-1.23v-4.6c0-.62-.13-1.06-.4-1.34-.27-.28-.64-.42-1.13-.42-.36,0-.71,.09-1.03,.28-.32,.19-.55,.45-.69,.77-.14,.32-.21,.77-.21,1.34v3.97h-1.23Z" style="fill:#0333ff;"/><path d="M753.19,153.1v-1.07c-.57,.82-1.33,1.23-2.3,1.23-.43,0-.83-.08-1.2-.25-.37-.16-.65-.37-.83-.62-.18-.25-.31-.55-.38-.91-.05-.24-.08-.62-.08-1.15v-4.5h1.23v4.03c0,.64,.03,1.08,.08,1.3,.08,.32,.24,.58,.49,.76s.56,.28,.93,.28,.72-.09,1.04-.28c.32-.19,.55-.45,.69-.77,.13-.33,.2-.8,.2-1.42v-3.89h1.23v7.26h-1.1Z" style="fill:#0333ff;"/><path d="M755.74,150.93l1.22-.19c.07,.49,.26,.86,.57,1.12,.31,.26,.75,.39,1.31,.39s.98-.12,1.26-.35c.27-.23,.41-.5,.41-.81,0-.28-.12-.5-.36-.66-.17-.11-.59-.25-1.26-.42-.9-.23-1.53-.42-1.88-.59-.35-.17-.61-.4-.79-.69-.18-.29-.27-.62-.27-.97,0-.32,.07-.62,.22-.9,.15-.28,.35-.5,.61-.69,.19-.14,.45-.26,.78-.36,.33-.1,.68-.15,1.06-.15,.57,0,1.07,.08,1.5,.25,.43,.16,.75,.39,.95,.67s.35,.66,.42,1.12l-1.2,.16c-.05-.37-.21-.67-.48-.88-.26-.21-.63-.31-1.11-.31-.57,0-.97,.09-1.21,.28-.24,.19-.36,.41-.36,.66,0,.16,.05,.3,.15,.43,.1,.13,.26,.24,.47,.33,.12,.04,.49,.15,1.09,.31,.87,.23,1.48,.42,1.82,.57,.34,.15,.61,.36,.81,.65,.2,.28,.29,.63,.29,1.05s-.12,.8-.36,1.16c-.24,.36-.58,.64-1.04,.84s-.96,.3-1.53,.3c-.94,0-1.66-.2-2.16-.59-.49-.39-.81-.97-.95-1.74Z" style="fill:#0333ff;"/><path d="M762.76,150.93l1.22-.19c.07,.49,.26,.86,.57,1.12,.31,.26,.75,.39,1.31,.39s.98-.12,1.26-.35c.27-.23,.41-.5,.41-.81,0-.28-.12-.5-.36-.66-.17-.11-.59-.25-1.26-.42-.9-.23-1.53-.42-1.88-.59-.35-.17-.61-.4-.79-.69-.18-.29-.27-.62-.27-.97,0-.32,.07-.62,.22-.9,.15-.28,.35-.5,.61-.69,.19-.14,.45-.26,.78-.36,.33-.1,.68-.15,1.06-.15,.57,0,1.07,.08,1.5,.25,.43,.16,.75,.39,.95,.67s.35,.66,.42,1.12l-1.2,.16c-.05-.37-.21-.67-.48-.88-.26-.21-.63-.31-1.11-.31-.57,0-.97,.09-1.21,.28-.24,.19-.36,.41-.36,.66,0,.16,.05,.3,.15,.43,.1,.13,.26,.24,.47,.33,.12,.04,.49,.15,1.09,.31,.87,.23,1.48,.42,1.82,.57,.34,.15,.61,.36,.81,.65,.2,.28,.29,.63,.29,1.05s-.12,.8-.36,1.16c-.24,.36-.58,.64-1.04,.84s-.96,.3-1.53,.3c-.94,0-1.66-.2-2.16-.59-.49-.39-.81-.97-.95-1.74Z" style="fill:#0333ff;"/><path d="M769.79,150.09v-1.24h3.78v1.24h-3.78Z" style="fill:#0333ff;"/><path d="M663.03,169.9h-1.14v-10.02h1.23v3.58c.52-.65,1.18-.98,1.99-.98,.45,0,.87,.09,1.27,.27,.4,.18,.73,.43,.98,.76,.26,.33,.46,.72,.6,1.18,.15,.46,.22,.95,.22,1.48,0,1.24-.31,2.21-.92,2.88-.62,.68-1.35,1.02-2.21,1.02s-1.53-.36-2.02-1.07v.91Zm-.01-3.68c0,.87,.12,1.5,.36,1.89,.39,.63,.91,.95,1.57,.95,.54,0,1-.23,1.39-.7,.39-.47,.59-1.16,.59-2.09s-.19-1.65-.56-2.1c-.38-.45-.83-.68-1.36-.68s-1,.23-1.39,.7c-.39,.47-.59,1.14-.59,2.03Z" style="fill:#0333ff;"/><path d="M669.05,169.9v-1l4.62-5.3c-.52,.03-.99,.04-1.39,.04h-2.96v-1h5.93v.81l-3.93,4.61-.76,.84c.55-.04,1.07-.06,1.55-.06h3.36v1.06h-6.43Z" style="fill:#0333ff;"/><path d="M678.05,169.9l-2.22-7.26h1.27l1.16,4.19,.43,1.56c.02-.08,.14-.58,.38-1.5l1.16-4.25h1.26l1.09,4.21,.36,1.39,.42-1.4,1.24-4.2h1.2l-2.27,7.26h-1.28l-1.16-4.35-.28-1.24-1.47,5.58h-1.29Z" style="fill:#0333ff;"/><path d="M687.18,169.9v-1.4h1.4v1.4h-1.4Z" style="fill:#0333ff;"/><path d="M694.87,169.9v-10.02h6.76v1.18h-5.43v3.1h4.7v1.18h-4.7v4.55h-1.33Z" style="fill:#0333ff;"/><path d="M708.18,167.56l1.27,.16c-.2,.74-.57,1.32-1.11,1.73s-1.24,.62-2.08,.62c-1.06,0-1.9-.33-2.53-.98-.62-.65-.93-1.57-.93-2.75s.31-2.17,.94-2.84c.63-.67,1.44-1.01,2.45-1.01s1.76,.33,2.38,.99c.62,.66,.92,1.59,.92,2.79,0,.07,0,.18,0,.33h-5.41c.05,.8,.27,1.41,.68,1.83s.91,.64,1.52,.64c.45,0,.84-.12,1.16-.36,.32-.24,.57-.62,.76-1.13Zm-4.04-1.99h4.05c-.05-.61-.21-1.07-.46-1.37-.39-.47-.9-.71-1.52-.71-.57,0-1.04,.19-1.42,.57-.39,.38-.6,.88-.64,1.52Z" style="fill:#0333ff;"/><path d="M711.01,169.9v-10.02h1.23v3.6c.57-.67,1.3-1,2.17-1,.54,0,1,.11,1.4,.32s.68,.5,.85,.88c.17,.37,.26,.92,.26,1.63v4.6h-1.23v-4.6c0-.62-.13-1.06-.4-1.34-.27-.28-.64-.42-1.13-.42-.36,0-.71,.09-1.03,.28-.32,.19-.55,.45-.69,.77-.14,.32-.21,.77-.21,1.34v3.97h-1.23Z" style="fill:#0333ff;"/><path d="M718.78,169.9v-10.02h1.23v10.02h-1.23Z" style="fill:#0333ff;"/><path d="M726.9,167.56l1.27,.16c-.2,.74-.57,1.32-1.11,1.73s-1.24,.62-2.08,.62c-1.06,0-1.9-.33-2.53-.98-.62-.65-.93-1.57-.93-2.75s.31-2.17,.94-2.84c.63-.67,1.44-1.01,2.45-1.01s1.76,.33,2.38,.99c.62,.66,.92,1.59,.92,2.79,0,.07,0,.18,0,.33h-5.41c.05,.8,.27,1.41,.68,1.83s.91,.64,1.52,.64c.45,0,.84-.12,1.16-.36,.32-.24,.57-.62,.76-1.13Zm-4.04-1.99h4.05c-.05-.61-.21-1.07-.46-1.37-.39-.47-.9-.71-1.52-.71-.57,0-1.04,.19-1.42,.57-.39,.38-.6,.88-.64,1.52Z" style="fill:#0333ff;"/><path d="M729.72,169.9v-7.26h1.11v1.1c.28-.52,.54-.85,.78-1.02,.24-.16,.5-.25,.79-.25,.42,0,.84,.13,1.26,.4l-.42,1.14c-.3-.18-.6-.27-.9-.27-.27,0-.51,.08-.72,.24-.21,.16-.37,.39-.46,.67-.14,.44-.21,.92-.21,1.44v3.8h-1.23Z" style="fill:#0333ff;"/><path d="M734.4,169.9v-7.26h1.11v1.1c.28-.52,.54-.85,.78-1.02,.24-.16,.5-.25,.79-.25,.42,0,.84,.13,1.26,.4l-.42,1.14c-.3-.18-.6-.27-.9-.27-.27,0-.51,.08-.72,.24-.21,.16-.37,.39-.46,.67-.14,.44-.21,.92-.21,1.44v3.8h-1.23Z" style="fill:#0333ff;"/><path d="M743.82,169c-.46,.39-.89,.66-1.32,.82-.42,.16-.87,.24-1.36,.24-.8,0-1.41-.2-1.84-.58s-.64-.89-.64-1.49c0-.36,.08-.68,.24-.97,.16-.29,.37-.53,.64-.71,.26-.18,.56-.31,.88-.4,.24-.06,.61-.13,1.09-.18,.99-.12,1.72-.26,2.19-.42,0-.17,0-.28,0-.32,0-.5-.12-.85-.35-1.06-.31-.28-.78-.42-1.4-.42-.58,0-1.01,.1-1.28,.3-.28,.2-.48,.56-.61,1.08l-1.2-.16c.11-.52,.29-.93,.54-1.25,.25-.32,.61-.56,1.09-.73s1.02-.26,1.65-.26,1.12,.07,1.51,.22c.39,.15,.67,.33,.85,.55,.18,.22,.31,.5,.38,.84,.04,.21,.06,.59,.06,1.13v1.64c0,1.14,.03,1.87,.08,2.17,.05,.3,.16,.59,.31,.87h-1.29c-.13-.26-.21-.55-.25-.9Zm-.1-2.75c-.45,.18-1.12,.34-2.01,.46-.51,.07-.86,.15-1.07,.25-.21,.09-.37,.22-.49,.4-.11,.18-.17,.37-.17,.58,0,.33,.12,.6,.37,.82,.25,.22,.61,.33,1.09,.33s.9-.1,1.26-.31c.37-.21,.64-.49,.81-.85,.13-.28,.2-.69,.2-1.23v-.45Z" style="fill:#0333ff;"/><path d="M749.57,168.8l.18,1.09c-.35,.07-.66,.11-.93,.11-.45,0-.79-.07-1.04-.21-.25-.14-.42-.33-.52-.56-.1-.23-.15-.71-.15-1.45v-4.18h-.9v-.96h.9v-1.8l1.22-.74v2.54h1.24v.96h-1.24v4.25c0,.35,.02,.58,.07,.68,.04,.1,.11,.18,.21,.24,.1,.06,.24,.09,.42,.09,.14,0,.32-.02,.54-.05Z" style="fill:#0333ff;"/><path d="M755.76,167.56l1.27,.16c-.2,.74-.57,1.32-1.11,1.73s-1.24,.62-2.08,.62c-1.06,0-1.9-.33-2.53-.98-.62-.65-.93-1.57-.93-2.75s.31-2.17,.94-2.84c.63-.67,1.44-1.01,2.45-1.01s1.76,.33,2.38,.99c.62,.66,.92,1.59,.92,2.79,0,.07,0,.18,0,.33h-5.41c.05,.8,.27,1.41,.68,1.83s.91,.64,1.52,.64c.45,0,.84-.12,1.16-.36,.32-.24,.57-.62,.76-1.13Zm-4.04-1.99h4.05c-.05-.61-.21-1.07-.46-1.37-.39-.47-.9-.71-1.52-.71-.57,0-1.04,.19-1.42,.57-.39,.38-.6,.88-.64,1.52Z" style="fill:#0333ff;"/></g><g><path d="M130.83,371.18h-1.14v-10.02h1.23v3.58c.52-.65,1.18-.98,1.99-.98,.45,0,.87,.09,1.27,.27,.4,.18,.73,.43,.98,.76,.26,.33,.46,.72,.6,1.18s.22,.95,.22,1.48c0,1.24-.31,2.21-.92,2.88s-1.35,1.02-2.21,1.02-1.53-.36-2.02-1.07v.91Zm-.01-3.68c0,.87,.12,1.5,.36,1.89,.39,.63,.91,.95,1.57,.95,.54,0,1-.23,1.39-.7,.39-.47,.59-1.16,.59-2.09s-.19-1.65-.56-2.1c-.38-.45-.83-.68-1.36-.68s-1,.23-1.39,.7c-.39,.47-.59,1.14-.59,2.03Z" style="fill:#0333ff;"/><path d="M137.01,369.01l1.22-.19c.07,.49,.26,.86,.57,1.12,.31,.26,.75,.39,1.31,.39s.98-.12,1.26-.35c.27-.23,.41-.5,.41-.81,0-.28-.12-.5-.36-.66-.17-.11-.59-.25-1.26-.42-.9-.23-1.53-.42-1.88-.59-.35-.17-.61-.4-.79-.69-.18-.29-.27-.62-.27-.97,0-.32,.07-.62,.22-.9,.15-.28,.35-.51,.61-.69,.19-.14,.45-.26,.78-.36,.33-.1,.68-.15,1.06-.15,.57,0,1.07,.08,1.5,.25,.43,.16,.75,.39,.95,.67,.21,.28,.35,.66,.42,1.12l-1.2,.16c-.05-.37-.21-.67-.48-.88-.26-.21-.63-.31-1.11-.31-.57,0-.97,.09-1.21,.28s-.36,.41-.36,.66c0,.16,.05,.3,.15,.43,.1,.13,.26,.24,.47,.33,.12,.04,.49,.15,1.09,.31,.87,.23,1.48,.42,1.82,.57,.34,.15,.61,.36,.81,.65s.29,.63,.29,1.05-.12,.8-.36,1.16c-.24,.36-.58,.64-1.04,.84-.45,.2-.96,.3-1.53,.3-.94,0-1.66-.2-2.16-.59-.49-.39-.81-.97-.95-1.74Z" style="fill:#0333ff;"/><path d="M144.51,373.96v-10.04h1.12v.94c.26-.37,.56-.65,.9-.83,.33-.19,.74-.28,1.21-.28,.62,0,1.17,.16,1.64,.48s.83,.77,1.07,1.35c.24,.58,.36,1.22,.36,1.91,0,.74-.13,1.41-.4,2.01-.27,.59-.65,1.05-1.16,1.37-.51,.32-1.04,.47-1.6,.47-.41,0-.78-.09-1.1-.26-.33-.17-.59-.39-.8-.66v3.53h-1.23Zm1.11-6.37c0,.93,.19,1.62,.57,2.07s.84,.67,1.37,.67,1.02-.23,1.4-.69c.39-.46,.58-1.18,.58-2.15s-.19-1.62-.57-2.08c-.38-.46-.83-.69-1.36-.69s-.99,.25-1.39,.74c-.4,.49-.61,1.2-.61,2.14Z" style="fill:#0333ff;"/><path d="M153.65,371.18l-2.22-7.26h1.27l1.16,4.19,.43,1.56c.02-.08,.14-.58,.38-1.5l1.16-4.25h1.26l1.09,4.21,.36,1.39,.42-1.4,1.24-4.2h1.2l-2.27,7.26h-1.28l-1.16-4.35-.28-1.24-1.47,5.58h-1.29Z" style="fill:#0333ff;"/><path d="M162.79,371.18v-1.4h1.4v1.4h-1.4Z" style="fill:#0333ff;"/><path d="M170.35,371.18v-10.02h1.33v4.97l4.98-4.97h1.8l-4.2,4.06,4.39,5.96h-1.75l-3.57-5.07-1.64,1.6v3.47h-1.33Z" style="fill:#0333ff;"/><path d="M184.33,370.28c-.46,.39-.89,.66-1.32,.82-.42,.16-.87,.24-1.36,.24-.8,0-1.41-.2-1.84-.58-.43-.39-.64-.89-.64-1.49,0-.36,.08-.68,.24-.97,.16-.29,.37-.53,.64-.71,.26-.18,.56-.31,.88-.4,.24-.06,.61-.13,1.09-.18,.99-.12,1.72-.26,2.19-.42,0-.17,0-.28,0-.32,0-.5-.12-.85-.35-1.06-.31-.28-.78-.42-1.4-.42-.58,0-1.01,.1-1.28,.3-.28,.2-.48,.56-.61,1.08l-1.2-.16c.11-.51,.29-.93,.54-1.25,.25-.32,.61-.56,1.09-.73,.47-.17,1.02-.26,1.65-.26s1.12,.07,1.51,.22,.67,.33,.85,.55c.18,.22,.31,.5,.38,.84,.04,.21,.06,.59,.06,1.13v1.64c0,1.14,.03,1.87,.08,2.17,.05,.3,.16,.59,.31,.87h-1.29c-.13-.26-.21-.55-.25-.9Zm-.1-2.75c-.45,.18-1.12,.34-2.01,.46-.51,.07-.86,.16-1.07,.25s-.37,.22-.49,.4c-.11,.18-.17,.37-.17,.58,0,.33,.12,.6,.37,.82,.25,.22,.61,.33,1.09,.33s.9-.1,1.26-.31c.37-.21,.64-.49,.81-.85,.13-.28,.2-.69,.2-1.23v-.45Z" style="fill:#0333ff;"/><path d="M187.4,373.96v-10.04h1.12v.94c.26-.37,.56-.65,.9-.83,.33-.19,.74-.28,1.21-.28,.62,0,1.17,.16,1.64,.48s.83,.77,1.07,1.35c.24,.58,.36,1.22,.36,1.91,0,.74-.13,1.41-.4,2.01-.27,.59-.65,1.05-1.16,1.37-.51,.32-1.04,.47-1.6,.47-.41,0-.78-.09-1.1-.26-.33-.17-.59-.39-.8-.66v3.53h-1.23Zm1.11-6.37c0,.93,.19,1.62,.57,2.07s.84,.67,1.37,.67,1.02-.23,1.4-.69c.39-.46,.58-1.18,.58-2.15s-.19-1.62-.57-2.08c-.38-.46-.83-.69-1.36-.69s-.99,.25-1.39,.74c-.4,.49-.61,1.2-.61,2.14Z" style="fill:#0333ff;"/><path d="M199.93,370.28c-.46,.39-.89,.66-1.32,.82-.42,.16-.87,.24-1.36,.24-.8,0-1.41-.2-1.84-.58-.43-.39-.64-.89-.64-1.49,0-.36,.08-.68,.24-.97,.16-.29,.37-.53,.64-.71,.26-.18,.56-.31,.88-.4,.24-.06,.61-.13,1.09-.18,.99-.12,1.72-.26,2.19-.42,0-.17,0-.28,0-.32,0-.5-.12-.85-.35-1.06-.31-.28-.78-.42-1.4-.42-.58,0-1.01,.1-1.28,.3-.28,.2-.48,.56-.61,1.08l-1.2-.16c.11-.51,.29-.93,.54-1.25,.25-.32,.61-.56,1.09-.73,.47-.17,1.02-.26,1.65-.26s1.12,.07,1.51,.22,.67,.33,.85,.55c.18,.22,.31,.5,.38,.84,.04,.21,.06,.59,.06,1.13v1.64c0,1.14,.03,1.87,.08,2.17,.05,.3,.16,.59,.31,.87h-1.29c-.13-.26-.21-.55-.25-.9Zm-.1-2.75c-.45,.18-1.12,.34-2.01,.46-.51,.07-.86,.16-1.07,.25s-.37,.22-.49,.4c-.11,.18-.17,.37-.17,.58,0,.33,.12,.6,.37,.82,.25,.22,.61,.33,1.09,.33s.9-.1,1.26-.31c.37-.21,.64-.49,.81-.85,.13-.28,.2-.69,.2-1.23v-.45Z" style="fill:#0333ff;"/><path d="M202.35,371.18v-1l4.62-5.3c-.52,.03-.99,.04-1.39,.04h-2.96v-1h5.93v.81l-3.93,4.61-.76,.84c.55-.04,1.07-.06,1.55-.06h3.36v1.06h-6.43Z" style="fill:#0333ff;"/><path d="M210.02,362.57v-1.42h1.23v1.42h-1.23Zm0,8.61v-7.26h1.23v7.26h-1.23Z" style="fill:#0333ff;"/><path d="M215.82,370.07l.18,1.09c-.35,.07-.66,.11-.93,.11-.45,0-.79-.07-1.04-.21s-.42-.33-.52-.56c-.1-.23-.15-.71-.15-1.45v-4.18h-.9v-.96h.9v-1.8l1.22-.74v2.54h1.24v.96h-1.24v4.25c0,.35,.02,.58,.07,.68,.04,.1,.11,.18,.21,.24,.1,.06,.24,.09,.42,.09,.14,0,.32-.02,.54-.05Z" style="fill:#0333ff;"/><path d="M221.78,370.28c-.46,.39-.89,.66-1.32,.82-.42,.16-.87,.24-1.36,.24-.8,0-1.41-.2-1.84-.58-.43-.39-.64-.89-.64-1.49,0-.36,.08-.68,.24-.97,.16-.29,.37-.53,.64-.71,.26-.18,.56-.31,.88-.4,.24-.06,.61-.13,1.09-.18,.99-.12,1.72-.26,2.19-.42,0-.17,0-.28,0-.32,0-.5-.12-.85-.35-1.06-.31-.28-.78-.42-1.4-.42-.58,0-1.01,.1-1.28,.3-.28,.2-.48,.56-.61,1.08l-1.2-.16c.11-.51,.29-.93,.54-1.25,.25-.32,.61-.56,1.09-.73,.47-.17,1.02-.26,1.65-.26s1.12,.07,1.51,.22,.67,.33,.85,.55c.18,.22,.31,.5,.38,.84,.04,.21,.06,.59,.06,1.13v1.64c0,1.14,.03,1.87,.08,2.17,.05,.3,.16,.59,.31,.87h-1.29c-.13-.26-.21-.55-.25-.9Zm-.1-2.75c-.45,.18-1.12,.34-2.01,.46-.51,.07-.86,.16-1.07,.25s-.37,.22-.49,.4c-.11,.18-.17,.37-.17,.58,0,.33,.12,.6,.37,.82,.25,.22,.61,.33,1.09,.33s.9-.1,1.26-.31c.37-.21,.64-.49,.81-.85,.13-.28,.2-.69,.2-1.23v-.45Zm-3.62-5.04v-1.4h1.29v1.4h-1.29Zm2.55,0v-1.4h1.29v1.4h-1.29Z" style="fill:#0333ff;"/><path d="M227.53,370.07l.18,1.09c-.35,.07-.66,.11-.93,.11-.45,0-.79-.07-1.04-.21s-.42-.33-.52-.56c-.1-.23-.15-.71-.15-1.45v-4.18h-.9v-.96h.9v-1.8l1.22-.74v2.54h1.24v.96h-1.24v4.25c0,.35,.02,.58,.07,.68,.04,.1,.11,.18,.21,.24,.1,.06,.24,.09,.42,.09,.14,0,.32-.02,.54-.05Z" style="fill:#0333ff;"/><path d="M228.25,369.01l1.22-.19c.07,.49,.26,.86,.57,1.12,.31,.26,.75,.39,1.31,.39s.98-.12,1.26-.35c.27-.23,.41-.5,.41-.81,0-.28-.12-.5-.36-.66-.17-.11-.59-.25-1.26-.42-.9-.23-1.53-.42-1.88-.59-.35-.17-.61-.4-.79-.69-.18-.29-.27-.62-.27-.97,0-.32,.07-.62,.22-.9,.15-.28,.35-.51,.61-.69,.19-.14,.45-.26,.78-.36,.33-.1,.68-.15,1.06-.15,.57,0,1.07,.08,1.5,.25,.43,.16,.75,.39,.95,.67,.21,.28,.35,.66,.42,1.12l-1.2,.16c-.05-.37-.21-.67-.48-.88-.26-.21-.63-.31-1.11-.31-.57,0-.97,.09-1.21,.28s-.36,.41-.36,.66c0,.16,.05,.3,.15,.43,.1,.13,.26,.24,.47,.33,.12,.04,.49,.15,1.09,.31,.87,.23,1.48,.42,1.82,.57,.34,.15,.61,.36,.81,.65s.29,.63,.29,1.05-.12,.8-.36,1.16c-.24,.36-.58,.64-1.04,.84-.45,.2-.96,.3-1.53,.3-.94,0-1.66-.2-2.16-.59-.49-.39-.81-.97-.95-1.74Z" style="fill:#0333ff;"/><path d="M240.49,370.28c-.46,.39-.89,.66-1.32,.82-.42,.16-.87,.24-1.36,.24-.8,0-1.41-.2-1.84-.58-.43-.39-.64-.89-.64-1.49,0-.36,.08-.68,.24-.97,.16-.29,.37-.53,.64-.71,.26-.18,.56-.31,.88-.4,.24-.06,.61-.13,1.09-.18,.99-.12,1.72-.26,2.19-.42,0-.17,0-.28,0-.32,0-.5-.12-.85-.35-1.06-.31-.28-.78-.42-1.4-.42-.58,0-1.01,.1-1.28,.3-.28,.2-.48,.56-.61,1.08l-1.2-.16c.11-.51,.29-.93,.54-1.25,.25-.32,.61-.56,1.09-.73,.47-.17,1.02-.26,1.65-.26s1.12,.07,1.51,.22,.67,.33,.85,.55c.18,.22,.31,.5,.38,.84,.04,.21,.06,.59,.06,1.13v1.64c0,1.14,.03,1.87,.08,2.17,.05,.3,.16,.59,.31,.87h-1.29c-.13-.26-.21-.55-.25-.9Zm-.1-2.75c-.45,.18-1.12,.34-2.01,.46-.51,.07-.86,.16-1.07,.25s-.37,.22-.49,.4c-.11,.18-.17,.37-.17,.58,0,.33,.12,.6,.37,.82,.25,.22,.61,.33,1.09,.33s.9-.1,1.26-.31c.37-.21,.64-.49,.81-.85,.13-.28,.2-.69,.2-1.23v-.45Z" style="fill:#0333ff;"/><path d="M248.31,371.18v-1.07c-.57,.82-1.33,1.23-2.3,1.23-.43,0-.83-.08-1.2-.25-.37-.16-.65-.37-.83-.62-.18-.25-.31-.55-.38-.91-.05-.24-.08-.62-.08-1.15v-4.5h1.23v4.03c0,.64,.03,1.08,.08,1.3,.08,.32,.24,.58,.49,.76,.25,.18,.56,.28,.93,.28s.72-.09,1.04-.28c.32-.19,.55-.45,.69-.77,.13-.33,.2-.8,.2-1.42v-3.89h1.23v7.26h-1.1Z" style="fill:#0333ff;"/><path d="M250.86,369.01l1.22-.19c.07,.49,.26,.86,.57,1.12,.31,.26,.75,.39,1.31,.39s.98-.12,1.26-.35c.27-.23,.41-.5,.41-.81,0-.28-.12-.5-.36-.66-.17-.11-.59-.25-1.26-.42-.9-.23-1.53-.42-1.88-.59-.35-.17-.61-.4-.79-.69-.18-.29-.27-.62-.27-.97,0-.32,.07-.62,.22-.9,.15-.28,.35-.51,.61-.69,.19-.14,.45-.26,.78-.36,.33-.1,.68-.15,1.06-.15,.57,0,1.07,.08,1.5,.25,.43,.16,.75,.39,.95,.67,.21,.28,.35,.66,.42,1.12l-1.2,.16c-.05-.37-.21-.67-.48-.88-.26-.21-.63-.31-1.11-.31-.57,0-.97,.09-1.21,.28s-.36,.41-.36,.66c0,.16,.05,.3,.15,.43,.1,.13,.26,.24,.47,.33,.12,.04,.49,.15,1.09,.31,.87,.23,1.48,.42,1.82,.57,.34,.15,.61,.36,.81,.65s.29,.63,.29,1.05-.12,.8-.36,1.16c-.24,.36-.58,.64-1.04,.84-.45,.2-.96,.3-1.53,.3-.94,0-1.66-.2-2.16-.59-.49-.39-.81-.97-.95-1.74Z" style="fill:#0333ff;"/><path d="M258.34,371.18v-10.02h1.23v10.02h-1.23Z" style="fill:#0333ff;"/><path d="M266.23,370.28c-.46,.39-.89,.66-1.32,.82-.42,.16-.87,.24-1.36,.24-.8,0-1.41-.2-1.84-.58-.43-.39-.64-.89-.64-1.49,0-.36,.08-.68,.24-.97,.16-.29,.37-.53,.64-.71,.26-.18,.56-.31,.88-.4,.24-.06,.61-.13,1.09-.18,.99-.12,1.72-.26,2.19-.42,0-.17,0-.28,0-.32,0-.5-.12-.85-.35-1.06-.31-.28-.78-.42-1.4-.42-.58,0-1.01,.1-1.28,.3-.28,.2-.48,.56-.61,1.08l-1.2-.16c.11-.51,.29-.93,.54-1.25,.25-.32,.61-.56,1.09-.73,.47-.17,1.02-.26,1.65-.26s1.12,.07,1.51,.22,.67,.33,.85,.55c.18,.22,.31,.5,.38,.84,.04,.21,.06,.59,.06,1.13v1.64c0,1.14,.03,1.87,.08,2.17,.05,.3,.16,.59,.31,.87h-1.29c-.13-.26-.21-.55-.25-.9Zm-.1-2.75c-.45,.18-1.12,.34-2.01,.46-.51,.07-.86,.16-1.07,.25s-.37,.22-.49,.4c-.11,.18-.17,.37-.17,.58,0,.33,.12,.6,.37,.82,.25,.22,.61,.33,1.09,.33s.9-.1,1.26-.31c.37-.21,.64-.49,.81-.85,.13-.28,.2-.69,.2-1.23v-.45Z" style="fill:#0333ff;"/><path d="M268.8,369.01l1.22-.19c.07,.49,.26,.86,.57,1.12,.31,.26,.75,.39,1.31,.39s.98-.12,1.26-.35c.27-.23,.41-.5,.41-.81,0-.28-.12-.5-.36-.66-.17-.11-.59-.25-1.26-.42-.9-.23-1.53-.42-1.88-.59-.35-.17-.61-.4-.79-.69-.18-.29-.27-.62-.27-.97,0-.32,.07-.62,.22-.9,.15-.28,.35-.51,.61-.69,.19-.14,.45-.26,.78-.36,.33-.1,.68-.15,1.06-.15,.57,0,1.07,.08,1.5,.25,.43,.16,.75,.39,.95,.67,.21,.28,.35,.66,.42,1.12l-1.2,.16c-.05-.37-.21-.67-.48-.88-.26-.21-.63-.31-1.11-.31-.57,0-.97,.09-1.21,.28s-.36,.41-.36,.66c0,.16,.05,.3,.15,.43,.1,.13,.26,.24,.47,.33,.12,.04,.49,.15,1.09,.31,.87,.23,1.48,.42,1.82,.57,.34,.15,.61,.36,.81,.65s.29,.63,.29,1.05-.12,.8-.36,1.16c-.24,.36-.58,.64-1.04,.84-.45,.2-.96,.3-1.53,.3-.94,0-1.66-.2-2.16-.59-.49-.39-.81-.97-.95-1.74Z" style="fill:#0333ff;"/><path d="M278.99,370.07l.18,1.09c-.35,.07-.66,.11-.93,.11-.45,0-.79-.07-1.04-.21s-.42-.33-.52-.56c-.1-.23-.15-.71-.15-1.45v-4.18h-.9v-.96h.9v-1.8l1.22-.74v2.54h1.24v.96h-1.24v4.25c0,.35,.02,.58,.07,.68,.04,.1,.11,.18,.21,.24,.1,.06,.24,.09,.42,.09,.14,0,.32-.02,.54-.05Z" style="fill:#0333ff;"/><path d="M284.97,371.18v-1.07c-.57,.82-1.33,1.23-2.3,1.23-.43,0-.83-.08-1.2-.25-.37-.16-.65-.37-.83-.62-.18-.25-.31-.55-.38-.91-.05-.24-.08-.62-.08-1.15v-4.5h1.23v4.03c0,.64,.03,1.08,.08,1.3,.08,.32,.24,.58,.49,.76,.25,.18,.56,.28,.93,.28s.72-.09,1.04-.28c.32-.19,.55-.45,.69-.77,.13-.33,.2-.8,.2-1.42v-3.89h1.23v7.26h-1.1Z" style="fill:#0333ff;"/><path d="M288.01,371.18v-7.26h1.11v1.03c.53-.8,1.3-1.2,2.31-1.2,.44,0,.84,.08,1.21,.24,.37,.16,.64,.36,.82,.62s.31,.56,.38,.91c.05,.23,.07,.63,.07,1.2v4.46h-1.23v-4.42c0-.5-.05-.88-.14-1.12-.1-.25-.27-.45-.51-.59-.24-.15-.53-.22-.86-.22-.52,0-.98,.17-1.36,.5-.38,.33-.57,.96-.57,1.89v3.96h-1.23Z" style="fill:#0333ff;"/><path d="M295.59,371.78l1.2,.18c.05,.37,.19,.64,.42,.81,.31,.23,.72,.34,1.25,.34,.57,0,1.01-.11,1.32-.34s.52-.55,.63-.96c.06-.25,.09-.78,.09-1.58-.54,.63-1.21,.95-2.01,.95-1,0-1.77-.36-2.32-1.08s-.82-1.58-.82-2.59c0-.69,.12-1.33,.38-1.92,.25-.59,.61-1.04,1.09-1.36,.48-.32,1.04-.48,1.68-.48,.86,0,1.56,.35,2.12,1.04v-.88h1.13v6.28c0,1.13-.12,1.93-.35,2.4-.23,.47-.59,.84-1.09,1.12-.5,.27-1.11,.41-1.84,.41-.87,0-1.57-.19-2.1-.58-.53-.39-.79-.98-.77-1.76Zm1.02-4.36c0,.95,.19,1.65,.57,2.08s.85,.66,1.42,.66,1.04-.22,1.42-.65c.38-.43,.57-1.12,.57-2.05s-.2-1.56-.59-2.01c-.39-.45-.87-.68-1.42-.68s-1.01,.22-1.39,.67c-.38,.44-.57,1.1-.57,1.98Z" style="fill:#0333ff;"/></g><g><path d="M658.31,124.12c-.37-.33-.75-.66-1.13-.98" style="fill:none; stroke:#0333ff; stroke-miterlimit:8; stroke-width:.5px;"/><path d="M654.86,121.17c-24.53-20.35-54.98-32.68-88.06-33.39" style="fill:none; stroke:#0333ff; stroke-dasharray:0 0 3.05 3.05; stroke-miterlimit:8; stroke-width:.5px;"/><path d="M565.27,87.76c-.5,0-1,0-1.5,0" style="fill:none; stroke:#0333ff; stroke-miterlimit:8; stroke-width:.5px;"/><polygon points="659.39 121.8 660.97 126.52 656.09 125.53 659.39 121.8" style="fill:#0333ff;"/></g><g><path d="M260.92,425.19c-13.57-5.59-23.48-19.35-24.75-35.79" style="fill:none; stroke:#0333ff; stroke-dasharray:0 0 3 3; stroke-miterlimit:8; stroke-width:.5px;"/><polygon points="238.73 390 236.03 385.81 233.75 390.25 238.73 390" style="fill:#0333ff;"/></g><g><path d="M741.98,371.18h-1.14v-10.02h1.23v3.58c.52-.65,1.18-.98,1.99-.98,.45,0,.87,.09,1.27,.27,.4,.18,.73,.43,.98,.76,.26,.33,.46,.72,.6,1.18s.22,.95,.22,1.48c0,1.24-.31,2.21-.92,2.88s-1.35,1.02-2.21,1.02-1.53-.36-2.02-1.07v.91Zm-.01-3.68c0,.87,.12,1.5,.36,1.89,.39,.63,.91,.95,1.57,.95,.54,0,1-.23,1.39-.7,.39-.47,.59-1.16,.59-2.09s-.19-1.65-.56-2.1c-.38-.45-.83-.68-1.36-.68s-1,.23-1.39,.7c-.39,.47-.59,1.14-.59,2.03Z" style="fill:#0333ff;"/><path d="M748.15,369.01l1.22-.19c.07,.49,.26,.86,.57,1.12,.31,.26,.75,.39,1.31,.39s.98-.12,1.26-.35c.27-.23,.41-.5,.41-.81,0-.28-.12-.5-.36-.66-.17-.11-.59-.25-1.26-.42-.9-.23-1.53-.42-1.88-.59-.35-.17-.61-.4-.79-.69-.18-.29-.27-.62-.27-.97,0-.32,.07-.62,.22-.9,.15-.28,.35-.51,.61-.69,.19-.14,.45-.26,.78-.36,.33-.1,.68-.15,1.06-.15,.57,0,1.07,.08,1.5,.25,.43,.16,.75,.39,.95,.67,.21,.28,.35,.66,.42,1.12l-1.2,.16c-.05-.37-.21-.67-.48-.88-.26-.21-.63-.31-1.11-.31-.57,0-.97,.09-1.21,.28s-.36,.41-.36,.66c0,.16,.05,.3,.15,.43,.1,.13,.26,.24,.47,.33,.12,.04,.49,.15,1.09,.31,.87,.23,1.48,.42,1.82,.57,.34,.15,.61,.36,.81,.65s.29,.63,.29,1.05-.12,.8-.36,1.16c-.24,.36-.58,.64-1.04,.84-.45,.2-.96,.3-1.53,.3-.94,0-1.66-.2-2.16-.59-.49-.39-.81-.97-.95-1.74Z" style="fill:#0333ff;"/><path d="M755.66,373.96v-10.04h1.12v.94c.26-.37,.56-.65,.9-.83,.33-.19,.74-.28,1.21-.28,.62,0,1.17,.16,1.64,.48s.83,.77,1.07,1.35c.24,.58,.36,1.22,.36,1.91,0,.74-.13,1.41-.4,2.01-.27,.59-.65,1.05-1.16,1.37-.51,.32-1.04,.47-1.6,.47-.41,0-.78-.09-1.1-.26-.33-.17-.59-.39-.8-.66v3.53h-1.23Zm1.11-6.37c0,.93,.19,1.62,.57,2.07s.84,.67,1.37,.67,1.02-.23,1.4-.69c.39-.46,.58-1.18,.58-2.15s-.19-1.62-.57-2.08c-.38-.46-.83-.69-1.36-.69s-.99,.25-1.39,.74c-.4,.49-.61,1.2-.61,2.14Z" style="fill:#0333ff;"/><path d="M764.79,371.18l-2.22-7.26h1.27l1.16,4.19,.43,1.56c.02-.08,.14-.58,.38-1.5l1.16-4.25h1.26l1.09,4.21,.36,1.39,.42-1.4,1.24-4.2h1.2l-2.27,7.26h-1.28l-1.16-4.35-.28-1.24-1.47,5.58h-1.29Z" style="fill:#0333ff;"/><path d="M773.93,371.18v-1.4h1.4v1.4h-1.4Z" style="fill:#0333ff;"/><path d="M781.54,371.18v-10.02h3.45c.78,0,1.37,.05,1.78,.14,.57,.13,1.06,.37,1.47,.72,.53,.45,.92,1.02,1.19,1.71,.26,.69,.39,1.49,.39,2.38,0,.76-.09,1.44-.27,2.02s-.41,1.07-.68,1.46c-.28,.38-.58,.69-.91,.91-.33,.22-.73,.39-1.2,.5-.47,.11-1,.17-1.61,.17h-3.62Zm1.33-1.18h2.14c.66,0,1.18-.06,1.56-.18,.38-.12,.67-.3,.9-.52,.31-.31,.56-.74,.73-1.27,.18-.53,.26-1.18,.26-1.93,0-1.05-.17-1.85-.52-2.42-.34-.56-.76-.94-1.25-1.13-.36-.14-.93-.21-1.72-.21h-2.11v7.66Z" style="fill:#0333ff;"/><path d="M796.27,371.18v-1.07c-.57,.82-1.33,1.23-2.3,1.23-.43,0-.83-.08-1.2-.25-.37-.16-.65-.37-.83-.62-.18-.25-.31-.55-.38-.91-.05-.24-.08-.62-.08-1.15v-4.5h1.23v4.03c0,.64,.03,1.08,.08,1.3,.08,.32,.24,.58,.49,.76,.25,.18,.56,.28,.93,.28s.72-.09,1.04-.28c.32-.19,.55-.45,.69-.77,.13-.33,.2-.8,.2-1.42v-3.89h1.23v7.26h-1.1Z" style="fill:#0333ff;"/><path d="M799.3,371.18v-7.26h1.11v1.1c.28-.51,.54-.85,.78-1.02,.24-.16,.5-.25,.79-.25,.42,0,.84,.13,1.26,.4l-.42,1.14c-.3-.18-.6-.27-.9-.27-.27,0-.51,.08-.72,.24-.21,.16-.37,.39-.46,.67-.14,.44-.21,.92-.21,1.44v3.8h-1.23Z" style="fill:#0333ff;"/><path d="M808.72,368.52l1.21,.16c-.13,.83-.47,1.49-1.01,1.96-.54,.47-1.21,.71-2.01,.71-.99,0-1.79-.32-2.4-.97-.6-.65-.91-1.58-.91-2.79,0-.78,.13-1.47,.39-2.06s.66-1.03,1.19-1.32c.53-.29,1.11-.44,1.73-.44,.79,0,1.43,.2,1.93,.6,.5,.4,.82,.96,.96,1.7l-1.2,.18c-.11-.49-.32-.85-.6-1.1-.29-.25-.64-.37-1.05-.37-.62,0-1.12,.22-1.51,.67-.39,.45-.58,1.15-.58,2.11s.19,1.68,.56,2.13,.86,.66,1.46,.66c.48,0,.89-.15,1.21-.44s.53-.75,.62-1.37Z" style="fill:#0333ff;"/><path d="M811,371.18v-10.02h1.23v3.6c.57-.67,1.3-1,2.17-1,.54,0,1,.11,1.4,.32,.4,.21,.68,.5,.85,.88,.17,.37,.26,.92,.26,1.63v4.6h-1.23v-4.6c0-.62-.13-1.06-.4-1.34-.27-.28-.64-.42-1.13-.42-.36,0-.71,.09-1.03,.28-.32,.19-.55,.45-.69,.77s-.21,.77-.21,1.34v3.97h-1.23Z" style="fill:#0333ff;"/><path d="M823.54,370.28c-.46,.39-.89,.66-1.32,.82-.42,.16-.87,.24-1.36,.24-.8,0-1.41-.2-1.84-.58-.43-.39-.64-.89-.64-1.49,0-.36,.08-.68,.24-.97,.16-.29,.37-.53,.64-.71,.26-.18,.56-.31,.88-.4,.24-.06,.61-.13,1.09-.18,.99-.12,1.72-.26,2.19-.42,0-.17,0-.28,0-.32,0-.5-.12-.85-.35-1.06-.31-.28-.78-.42-1.4-.42-.58,0-1.01,.1-1.28,.3-.28,.2-.48,.56-.61,1.08l-1.2-.16c.11-.51,.29-.93,.54-1.25,.25-.32,.61-.56,1.09-.73,.47-.17,1.02-.26,1.65-.26s1.12,.07,1.51,.22,.67,.33,.85,.55c.18,.22,.31,.5,.38,.84,.04,.21,.06,.59,.06,1.13v1.64c0,1.14,.03,1.87,.08,2.17,.05,.3,.16,.59,.31,.87h-1.29c-.13-.26-.21-.55-.25-.9Zm-.1-2.75c-.45,.18-1.12,.34-2.01,.46-.51,.07-.86,.16-1.07,.25s-.37,.22-.49,.4c-.11,.18-.17,.37-.17,.58,0,.33,.12,.6,.37,.82,.25,.22,.61,.33,1.09,.33s.9-.1,1.26-.31c.37-.21,.64-.49,.81-.85,.13-.28,.2-.69,.2-1.23v-.45Z" style="fill:#0333ff;"/><path d="M831.36,371.18v-1.07c-.57,.82-1.33,1.23-2.3,1.23-.43,0-.83-.08-1.2-.25-.37-.16-.65-.37-.83-.62-.18-.25-.31-.55-.38-.91-.05-.24-.08-.62-.08-1.15v-4.5h1.23v4.03c0,.64,.03,1.08,.08,1.3,.08,.32,.24,.58,.49,.76,.25,.18,.56,.28,.93,.28s.72-.09,1.04-.28c.32-.19,.55-.45,.69-.77,.13-.33,.2-.8,.2-1.42v-3.89h1.23v7.26h-1.1Z" style="fill:#0333ff;"/><path d="M834.7,371.18v-6.3h-1.09v-.96h1.09v-.77c0-.49,.04-.85,.13-1.09,.12-.32,.33-.58,.63-.78,.3-.2,.72-.3,1.25-.3,.35,0,.73,.04,1.15,.12l-.18,1.07c-.25-.04-.5-.07-.72-.07-.37,0-.64,.08-.79,.24s-.23,.46-.23,.9v.67h1.42v.96h-1.42v6.3h-1.22Z" style="fill:#0333ff;"/><path d="M837.66,371.18v-1l4.62-5.3c-.52,.03-.99,.04-1.39,.04h-2.96v-1h5.93v.81l-3.93,4.61-.76,.84c.55-.04,1.07-.06,1.55-.06h3.36v1.06h-6.43Z" style="fill:#0333ff;"/><path d="M850.29,368.84l1.27,.16c-.2,.74-.57,1.32-1.11,1.73s-1.24,.62-2.08,.62c-1.06,0-1.9-.33-2.53-.98-.62-.65-.93-1.57-.93-2.75s.31-2.17,.94-2.84,1.44-1.01,2.45-1.01,1.76,.33,2.38,.99,.92,1.59,.92,2.79c0,.07,0,.18,0,.33h-5.41c.05,.8,.27,1.41,.68,1.83s.91,.64,1.52,.64c.45,0,.84-.12,1.16-.36s.57-.62,.76-1.13Zm-4.04-1.99h4.05c-.05-.61-.21-1.07-.46-1.37-.39-.47-.9-.71-1.52-.71-.57,0-1.04,.19-1.42,.57-.39,.38-.6,.88-.64,1.52Z" style="fill:#0333ff;"/><path d="M853.13,362.57v-1.42h1.23v1.42h-1.23Zm0,8.61v-7.26h1.23v7.26h-1.23Z" style="fill:#0333ff;"/><path d="M858.93,370.07l.18,1.09c-.35,.07-.66,.11-.93,.11-.45,0-.79-.07-1.04-.21s-.42-.33-.52-.56c-.1-.23-.15-.71-.15-1.45v-4.18h-.9v-.96h.9v-1.8l1.22-.74v2.54h1.24v.96h-1.24v4.25c0,.35,.02,.58,.07,.68,.04,.1,.11,.18,.21,.24,.1,.06,.24,.09,.42,.09,.14,0,.32-.02,.54-.05Z" style="fill:#0333ff;"/></g><g><path d="M763.65,425.19c13.57-5.59,23.48-19.35,24.75-35.79" style="fill:none; stroke:#0333ff; stroke-dasharray:0 0 3 3; stroke-miterlimit:8; stroke-width:.5px;"/><polygon points="790.82 390.25 788.54 385.81 785.84 390 790.82 390.25" style="fill:#0333ff;"/></g></svg>