<?xml version="1.0" encoding="UTF-8"?>
<svg id="Ebene_1" data-name="Ebene 1" xmlns="http://www.w3.org/2000/svg" viewBox="0 0 988 525">
  <defs>
    <style>
      .cls-1 {
        letter-spacing: 0em;
      }

      .cls-2 {
        letter-spacing: 0em;
      }

      .cls-3 {
        letter-spacing: 0em;
      }

      .cls-4, .cls-5 {
        font-size: 16px;
      }

      .cls-4, .cls-6 {
        font-family: Arial-BoldMT, Arial;
        font-weight: 700;
      }

      .cls-5 {
        font-family: ArialMT, Arial;
      }

      .cls-6 {
        font-size: 18px;
      }

      .cls-6, .cls-7 {
        letter-spacing: 0em;
      }

      .cls-6, .cls-8, .cls-9 {
        fill: #0333ff;
      }

      .cls-10 {
        letter-spacing: 0em;
      }

      .cls-11 {
        letter-spacing: 0em;
      }

      .cls-12 {
        stroke: #0333ff;
        stroke-miterlimit: 10;
      }

      .cls-12, .cls-13 {
        fill: none;
      }

      .cls-14 {
        letter-spacing: 0em;
      }

      .cls-8, .cls-15 {
        fill-rule: evenodd;
      }

      .cls-8, .cls-15, .cls-16, .cls-9 {
        stroke-width: 0px;
      }

      .cls-15 {
        fill: #fff;
      }

      .cls-13 {
        stroke: #000;
        stroke-miterlimit: 8;
        stroke-width: 2px;
      }

      .cls-17 {
        letter-spacing: 0em;
      }

      .cls-18 {
        letter-spacing: 0em;
      }
    </style>
  </defs>
  <polygon class="cls-15" points="770.18 492.83 770.18 25.65 533.36 25.65 770.18 492.83"/>
  <g>
    <path class="cls-16" d="m812.5,105.76v-11.45h7.73v1.35h-6.21v3.55h5.38v1.35h-5.38v5.2h-1.52Z"/>
    <path class="cls-16" d="m827.45,105.76v-1.22c-.64.94-1.52,1.41-2.63,1.41-.49,0-.95-.09-1.37-.28-.42-.19-.74-.42-.95-.71-.21-.28-.35-.63-.43-1.04-.06-.28-.09-.71-.09-1.31v-5.14h1.41v4.6c0,.73.03,1.23.09,1.48.09.37.28.66.56.87.29.21.64.32,1.06.32s.82-.11,1.19-.32c.37-.22.63-.51.79-.88.15-.37.23-.91.23-1.62v-4.45h1.41v8.3h-1.26Z"/>
    <path class="cls-16" d="m830.91,105.76v-8.3h1.27v1.18c.61-.91,1.49-1.37,2.64-1.37.5,0,.96.09,1.38.27.42.18.73.42.94.71.21.29.36.64.44,1.04.05.26.08.72.08,1.37v5.1h-1.41v-5.05c0-.57-.05-1-.16-1.29-.11-.28-.3-.51-.58-.68-.28-.17-.61-.25-.98-.25-.6,0-1.12.19-1.55.57-.43.38-.65,1.1-.65,2.16v4.53h-1.41Z"/>
    <path class="cls-16" d="m839.82,105.76v-11.45h1.41v6.53l3.33-3.38h1.82l-3.17,3.08,3.49,5.22h-1.73l-2.74-4.24-.99.95v3.29h-1.41Z"/>
    <path class="cls-16" d="m850.88,104.5l.2,1.24c-.39.08-.75.12-1.06.12-.51,0-.91-.08-1.19-.24s-.48-.37-.59-.64c-.11-.26-.17-.82-.17-1.66v-4.77h-1.03v-1.09h1.03v-2.05l1.4-.84v2.9h1.41v1.09h-1.41v4.85c0,.4.03.66.07.77.05.11.13.21.24.27.11.07.27.1.48.1.16,0,.36-.02.62-.05Z"/>
    <path class="cls-16" d="m852.26,95.92v-1.62h1.41v1.62h-1.41Zm0,9.84v-8.3h1.41v8.3h-1.41Z"/>
    <path class="cls-16" d="m855.29,101.61c0-1.54.43-2.67,1.28-3.41.71-.61,1.58-.92,2.61-.92,1.14,0,2.07.37,2.8,1.12.72.75,1.09,1.78,1.09,3.1,0,1.07-.16,1.91-.48,2.52-.32.61-.79,1.09-1.4,1.43-.61.34-1.28.51-2,.51-1.16,0-2.1-.37-2.82-1.12-.71-.74-1.07-1.82-1.07-3.22Zm1.45,0c0,1.06.23,1.86.7,2.39.46.53,1.05.79,1.75.79s1.28-.27,1.74-.8c.46-.53.7-1.34.7-2.43,0-1.03-.23-1.8-.7-2.33-.46-.53-1.04-.79-1.74-.79s-1.29.26-1.75.79c-.46.53-.7,1.32-.7,2.38Z"/>
    <path class="cls-16" d="m864.71,105.76v-8.3h1.27v1.18c.61-.91,1.49-1.37,2.64-1.37.5,0,.96.09,1.38.27.42.18.73.42.94.71.21.29.36.64.44,1.04.05.26.08.72.08,1.37v5.1h-1.41v-5.05c0-.57-.05-1-.16-1.29-.11-.28-.3-.51-.58-.68-.28-.17-.61-.25-.98-.25-.6,0-1.12.19-1.55.57-.43.38-.65,1.1-.65,2.16v4.53h-1.41Z"/>
    <path class="cls-16" d="m873.04,103.28l1.39-.22c.08.56.3.98.65,1.28.36.3.86.45,1.5.45s1.12-.13,1.44-.39c.31-.26.47-.57.47-.93,0-.32-.14-.57-.41-.75-.19-.12-.67-.28-1.44-.48-1.03-.26-1.75-.49-2.14-.68-.4-.19-.7-.45-.91-.79-.21-.34-.31-.71-.31-1.11,0-.37.09-.71.25-1.03.17-.31.4-.58.69-.79.22-.16.52-.3.89-.41.38-.11.78-.17,1.21-.17.65,0,1.22.09,1.71.28s.86.44,1.09.76.4.75.48,1.29l-1.38.19c-.06-.43-.24-.76-.54-1-.3-.24-.72-.36-1.27-.36-.64,0-1.11.11-1.38.32-.28.21-.41.46-.41.75,0,.18.06.35.17.49.12.15.29.28.54.38.14.05.55.17,1.24.36,1,.27,1.69.48,2.08.65.39.17.7.42.93.74.22.32.34.72.34,1.2s-.14.91-.41,1.32-.67.73-1.18.96-1.1.34-1.75.34c-1.08,0-1.9-.22-2.46-.67-.56-.45-.93-1.11-1.08-1.99Z"/>
    <path class="cls-16" d="m883.14,105.76l-2.54-8.3h1.45l1.32,4.79.49,1.78c.02-.09.16-.66.43-1.71l1.32-4.86h1.45l1.24,4.81.41,1.59.48-1.6,1.42-4.8h1.37l-2.59,8.3h-1.46l-1.32-4.97-.32-1.41-1.68,6.38h-1.47Z"/>
    <path class="cls-16" d="m898.84,103.09l1.45.18c-.23.85-.65,1.51-1.27,1.98-.62.47-1.41.7-2.38.7-1.21,0-2.18-.37-2.89-1.12-.71-.75-1.07-1.8-1.07-3.14s.36-2.48,1.08-3.25c.72-.77,1.65-1.16,2.8-1.16s2.02.38,2.72,1.13c.7.76,1.05,1.82,1.05,3.19,0,.08,0,.21,0,.38h-6.19c.05.91.31,1.61.77,2.09.46.48,1.04.73,1.73.73.52,0,.96-.14,1.32-.41.37-.27.65-.7.87-1.3Zm-4.62-2.27h4.63c-.06-.7-.24-1.22-.53-1.57-.45-.54-1.03-.81-1.74-.81-.64,0-1.19.22-1.63.65-.44.43-.68,1.01-.73,1.73Z"/>
    <path class="cls-16" d="m902.07,95.92v-1.62h1.41v1.62h-1.41Zm0,9.84v-8.3h1.41v8.3h-1.41Z"/>
    <path class="cls-16" d="m905.05,103.28l1.39-.22c.08.56.3.98.65,1.28.36.3.86.45,1.5.45s1.12-.13,1.44-.39c.31-.26.47-.57.47-.93,0-.32-.14-.57-.41-.75-.19-.12-.67-.28-1.44-.48-1.03-.26-1.75-.49-2.14-.68-.4-.19-.7-.45-.91-.79-.21-.34-.31-.71-.31-1.11,0-.37.09-.71.25-1.03.17-.31.4-.58.69-.79.22-.16.52-.3.89-.41.38-.11.78-.17,1.21-.17.65,0,1.22.09,1.71.28s.86.44,1.09.76.4.75.48,1.29l-1.38.19c-.06-.43-.24-.76-.54-1-.3-.24-.72-.36-1.27-.36-.64,0-1.11.11-1.38.32-.28.21-.41.46-.41.75,0,.18.06.35.17.49.12.15.29.28.54.38.14.05.55.17,1.24.36,1,.27,1.69.48,2.08.65.39.17.7.42.93.74.22.32.34.72.34,1.2s-.14.91-.41,1.32-.67.73-1.18.96-1.1.34-1.75.34c-1.08,0-1.9-.22-2.46-.67-.56-.45-.93-1.11-1.08-1.99Z"/>
    <path class="cls-16" d="m919.29,103.09l1.45.18c-.23.85-.65,1.51-1.27,1.98-.62.47-1.41.7-2.38.7-1.21,0-2.18-.37-2.89-1.12-.71-.75-1.07-1.8-1.07-3.14s.36-2.48,1.08-3.25c.72-.77,1.65-1.16,2.8-1.16s2.02.38,2.72,1.13c.7.76,1.05,1.82,1.05,3.19,0,.08,0,.21,0,.38h-6.19c.05.91.31,1.61.77,2.09.46.48,1.04.73,1.73.73.52,0,.96-.14,1.32-.41.37-.27.65-.7.87-1.3Zm-4.62-2.27h4.63c-.06-.7-.24-1.22-.53-1.57-.45-.54-1.03-.81-1.74-.81-.64,0-1.19.22-1.63.65-.44.43-.68,1.01-.73,1.73Z"/>
    <path class="cls-16" d="m812.42,124.96v-11.45h3.95c.89,0,1.57.05,2.04.16.66.15,1.22.42,1.68.82.61.51,1.06,1.16,1.36,1.96.3.79.45,1.7.45,2.72,0,.87-.1,1.64-.3,2.31s-.46,1.23-.78,1.67c-.32.44-.66.79-1.04,1.04-.38.25-.83.44-1.37.57-.53.13-1.15.2-1.84.2h-4.13Zm1.52-1.35h2.45c.76,0,1.35-.07,1.78-.21s.77-.34,1.03-.59c.36-.36.64-.84.84-1.45.2-.61.3-1.34.3-2.21,0-1.2-.2-2.12-.59-2.76-.39-.64-.87-1.07-1.43-1.29-.41-.16-1.06-.23-1.96-.23h-2.41v8.75Z"/>
    <path class="cls-16" d="m829.47,122.29l1.45.18c-.23.85-.65,1.51-1.27,1.98-.62.47-1.41.7-2.38.7-1.21,0-2.18-.37-2.89-1.12-.71-.75-1.07-1.8-1.07-3.14s.36-2.48,1.08-3.25c.72-.77,1.65-1.16,2.8-1.16s2.02.38,2.72,1.13c.7.76,1.05,1.82,1.05,3.19,0,.08,0,.21,0,.38h-6.19c.05.91.31,1.61.77,2.09.46.48,1.04.73,1.73.73.52,0,.96-.14,1.32-.41.37-.27.65-.7.87-1.3Zm-4.62-2.27h4.63c-.06-.7-.24-1.22-.53-1.57-.45-.54-1.03-.81-1.74-.81-.64,0-1.19.22-1.63.65-.44.43-.68,1.01-.73,1.73Z"/>
    <path class="cls-16" d="m835,124.96l-3.16-8.3h1.48l1.78,4.97c.19.54.37,1.09.53,1.67.12-.44.3-.96.52-1.58l1.84-5.06h1.45l-3.14,8.3h-1.31Z"/>
    <path class="cls-16" d="m840.7,115.12v-1.62h1.41v1.62h-1.41Zm0,9.84v-8.3h1.41v8.3h-1.41Z"/>
    <path class="cls-16" d="m843.69,122.48l1.39-.22c.08.56.3.98.65,1.28.36.3.86.45,1.5.45s1.12-.13,1.44-.39c.31-.26.47-.57.47-.93,0-.32-.14-.57-.41-.75-.19-.12-.67-.28-1.44-.48-1.03-.26-1.75-.49-2.14-.68-.4-.19-.7-.45-.91-.79-.21-.34-.31-.71-.31-1.11,0-.37.09-.71.25-1.03.17-.31.4-.58.69-.79.22-.16.52-.3.89-.41.38-.11.78-.17,1.21-.17.65,0,1.22.09,1.71.28s.86.44,1.09.76.4.75.48,1.29l-1.38.19c-.06-.43-.24-.76-.54-1-.3-.24-.72-.36-1.27-.36-.64,0-1.11.11-1.38.32-.28.21-.41.46-.41.75,0,.18.06.35.17.49.12.15.29.28.54.38.14.05.55.17,1.24.36,1,.27,1.69.48,2.08.65.39.17.7.42.93.74.22.32.34.72.34,1.2s-.14.91-.41,1.32-.67.73-1.18.96-1.1.34-1.75.34c-1.08,0-1.9-.22-2.46-.67-.56-.45-.93-1.11-1.08-1.99Z"/>
    <path class="cls-16" d="m857.93,122.29l1.45.18c-.23.85-.65,1.51-1.27,1.98-.62.47-1.41.7-2.38.7-1.21,0-2.18-.37-2.89-1.12-.71-.75-1.07-1.8-1.07-3.14s.36-2.48,1.08-3.25c.72-.77,1.65-1.16,2.8-1.16s2.02.38,2.72,1.13c.7.76,1.05,1.82,1.05,3.19,0,.08,0,.21,0,.38h-6.19c.05.91.31,1.61.77,2.09.46.48,1.04.73,1.73.73.52,0,.96-.14,1.32-.41.37-.27.65-.7.87-1.3Zm-4.62-2.27h4.63c-.06-.7-.24-1.22-.53-1.57-.45-.54-1.03-.81-1.74-.81-.64,0-1.19.22-1.63.65-.44.43-.68,1.01-.73,1.73Z"/>
    <path class="cls-16" d="m861.15,124.96v-8.3h1.27v1.18c.61-.91,1.49-1.37,2.64-1.37.5,0,.96.09,1.38.27.42.18.73.42.94.71.21.29.36.64.44,1.04.05.26.08.72.08,1.37v5.1h-1.41v-5.05c0-.57-.05-1-.16-1.29-.11-.28-.3-.51-.58-.68-.28-.17-.61-.25-.98-.25-.6,0-1.12.19-1.55.57-.43.38-.65,1.1-.65,2.16v4.53h-1.41Z"/>
    <path class="cls-16" d="m870.04,124.96v-8.3h1.26v1.16c.26-.41.61-.73,1.04-.98.43-.25.93-.37,1.48-.37.62,0,1.12.13,1.51.38.39.26.67.61.83,1.07.66-.97,1.51-1.45,2.56-1.45.82,0,1.46.23,1.9.68.44.46.66,1.16.66,2.11v5.7h-1.4v-5.23c0-.56-.04-.97-.14-1.21-.09-.25-.26-.45-.5-.6-.24-.15-.52-.23-.84-.23-.58,0-1.07.19-1.45.58-.38.39-.58,1.01-.58,1.86v4.82h-1.41v-5.39c0-.62-.11-1.09-.34-1.41-.23-.31-.6-.47-1.12-.47-.39,0-.76.1-1.1.31-.34.21-.58.51-.73.91-.15.4-.23.98-.23,1.73v4.3h-1.41Z"/>
    <path class="cls-16" d="m888.79,123.94c-.52.44-1.02.76-1.5.94-.48.18-1,.27-1.55.27-.91,0-1.61-.22-2.1-.67-.49-.45-.73-1.01-.73-1.71,0-.41.09-.78.28-1.11.19-.34.43-.61.73-.81.3-.2.64-.36,1.01-.46.28-.07.69-.14,1.25-.21,1.14-.14,1.97-.3,2.51-.48,0-.19,0-.31,0-.37,0-.57-.13-.98-.4-1.21-.36-.32-.89-.48-1.6-.48-.66,0-1.15.12-1.46.35-.31.23-.55.64-.7,1.23l-1.38-.19c.12-.59.33-1.06.62-1.43.29-.36.7-.64,1.24-.84.54-.2,1.17-.29,1.88-.29s1.29.08,1.73.25c.44.17.77.38.98.63.21.25.36.57.44.96.05.24.07.67.07,1.3v1.88c0,1.31.03,2.13.09,2.48.06.35.18.68.36,1h-1.47c-.14-.29-.24-.63-.28-1.02Zm-.12-3.14c-.51.21-1.28.39-2.3.53-.58.08-.99.18-1.23.28-.24.1-.42.26-.55.46-.13.2-.2.42-.2.67,0,.38.14.69.43.94.29.25.7.38,1.25.38s1.02-.12,1.45-.36c.42-.24.73-.56.93-.97.15-.32.23-.79.23-1.41v-.52Z"/>
    <path class="cls-16" d="m892.26,124.96v-8.3h1.27v1.26c.32-.59.62-.98.89-1.16s.57-.28.9-.28c.47,0,.96.15,1.45.45l-.48,1.3c-.34-.2-.69-.3-1.03-.3-.31,0-.58.09-.83.28-.24.19-.42.44-.52.77-.16.5-.23,1.05-.23,1.64v4.34h-1.41Z"/>
    <path class="cls-16" d="m897.61,124.96v-11.45h1.41v6.53l3.33-3.38h1.82l-3.17,3.08,3.49,5.22h-1.73l-2.74-4.24-.99.95v3.29h-1.41Z"/>
    <path class="cls-16" d="m908.67,123.7l.2,1.24c-.39.08-.75.12-1.06.12-.51,0-.91-.08-1.19-.24s-.48-.37-.59-.64c-.11-.26-.17-.82-.17-1.66v-4.77h-1.03v-1.09h1.03v-2.05l1.4-.84v2.9h1.41v1.09h-1.41v4.85c0,.4.03.66.07.77.05.11.13.21.24.27.11.07.27.1.48.1.16,0,.36-.02.62-.05Z"/>
  </g>
  <text class="cls-5" transform="translate(811.19 222.96)"><tspan x="0" y="0">Devisenkurs</tspan><tspan x="0" y="19.2">0,87 € = 1 US $</tspan></text>
  <text class="cls-5" transform="translate(811.19 358.55)"><tspan x="0" y="0">0,87</tspan></text>
  <text class="cls-5" transform="translate(811.19 475.74)"><tspan x="0" y="0" xml:space="preserve">1   2   3   ...   ,</tspan></text>
  <polygon class="cls-13" points="473.96 142.85 533.36 25.65 533.36 25.65 592.77 142.85 473.96 142.85"/>
  <polygon class="cls-13" points="414.95 259.24 474.16 142.85 592.57 142.85 651.77 259.24 414.95 259.24"/>
  <text class="cls-4" transform="translate(479.97 241.33)"><tspan class="cls-3" x="0" y="0">I</tspan><tspan x="4.51" y="0">n</tspan><tspan class="cls-17" x="14.28" y="0">f</tspan><tspan class="cls-18" x="19.64" y="0">o</tspan><tspan class="cls-17" x="29.43" y="0">rm</tspan><tspan class="cls-7" x="49.95" y="0">a</tspan><tspan class="cls-10" x="58.83" y="0">t</tspan><tspan x="64.1" y="0">i</tspan><tspan class="cls-18" x="68.54" y="0">o</tspan><tspan x="78.33" y="0">n</tspan><tspan class="cls-2" x="88.1" y="0">e</tspan><tspan x="97.02" y="0">n</tspan></text>
  <polygon class="cls-13" points="355.95 376.44 415.09 259.24 651.64 259.24 710.78 376.44 355.95 376.44"/>
  <text class="cls-4" transform="translate(510.39 357.72)"><tspan x="0" y="0">D</tspan><tspan class="cls-7" x="11.55" y="0">a</tspan><tspan class="cls-10" x="20.44" y="0">t</tspan><tspan class="cls-2" x="25.7" y="0">e</tspan><tspan x="34.62" y="0">n</tspan></text>
  <polygon class="cls-13" points="296.54 492.83 355.75 376.44 710.98 376.44 770.18 492.83 296.54 492.83"/>
  <text class="cls-4" transform="translate(503.12 474.91)"><tspan class="cls-11" x="0" y="0">Z</tspan><tspan class="cls-18" x="9.74" y="0">e</tspan><tspan x="18.66" y="0">i</tspan><tspan class="cls-17" x="23.1" y="0">c</tspan><tspan x="32.03" y="0">h</tspan><tspan class="cls-18" x="41.8" y="0">e</tspan><tspan x="50.72" y="0">n</tspan></text>
  <text class="cls-4" transform="translate(505.31 124.13)"><tspan class="cls-14" x="0" y="0">W</tspan><tspan class="cls-7" x="15.15" y="0">i</tspan><tspan class="cls-1" x="19.58" y="0">ss</tspan><tspan x="37.44" y="0">en</tspan></text>
  <g>
    <path class="cls-8" d="m304.85,270.45c0-18.75,37.82-34.9,90.34-38.57v8.33s22-13.69,22-13.69l-22-12.16v8.33c-52.53,3.67-90.34,19.82-90.34,38.57v9.19Z"/>
    <path class="cls-8" d="m417.2,300.59c-56.97,0-104.92-14.93-111.58-34.73-7.25,21.57,36.83,41.12,98.45,43.66,4.36.18,8.74.27,13.13.27v-9.19Z"/>
  </g>
  <g>
    <path class="cls-8" d="m256.25,389.37c0-18.75,37.82-34.9,90.34-38.57v8.33s22-13.69,22-13.69l-22-12.16v8.33c-52.53,3.67-90.34,19.82-90.34,38.57v9.19Z"/>
    <path class="cls-8" d="m368.6,419.51c-56.97,0-104.92-14.93-111.58-34.73-7.25,21.57,36.83,41.12,98.45,43.66,4.36.18,8.74.27,13.13.27v-9.19Z"/>
  </g>
  <g>
    <path class="cls-8" d="m367.89,151.54c0-18.75,37.82-34.9,90.34-38.57v8.33s22-13.69,22-13.69l-22-12.16v8.33c-52.53,3.67-90.34,19.82-90.34,38.57v9.19Z"/>
    <path class="cls-8" d="m480.24,181.68c-56.97,0-104.92-14.93-111.58-34.73-7.25,21.57,36.83,41.12,98.45,43.66,4.36.18,8.74.27,13.13.27v-9.19Z"/>
  </g>
  <g>
    <text class="cls-6" transform="translate(250.04 124.52)"><tspan x="0" y="0">Vernetzung</tspan></text>
    <g>
      <path class="cls-16" d="m166.29,153.62v-8.59h1.14v8.59h-1.14Z"/>
      <path class="cls-16" d="m169.34,153.62v-6.22h.95v.88c.46-.68,1.12-1.03,1.98-1.03.38,0,.72.07,1.03.2s.55.31.71.53.27.48.33.78c.04.2.06.54.06,1.03v3.83h-1.05v-3.79c0-.43-.04-.75-.12-.96s-.23-.38-.44-.51-.45-.19-.74-.19c-.45,0-.84.14-1.16.43s-.49.83-.49,1.62v3.4h-1.05Z"/>
      <path class="cls-16" d="m176.27,153.62v-5.4h-.93v-.82h.93v-.66c0-.42.04-.73.11-.93.1-.27.28-.5.54-.67s.61-.25,1.08-.25c.3,0,.62.04.98.11l-.16.92c-.22-.04-.43-.06-.62-.06-.32,0-.55.07-.68.21s-.2.39-.2.77v.57h1.21v.82h-1.21v5.4h-1.05Z"/>
      <path class="cls-16" d="m178.98,150.51c0-1.15.32-2.01.96-2.56.54-.46,1.19-.69,1.96-.69.86,0,1.55.28,2.1.84s.81,1.33.81,2.32c0,.8-.12,1.43-.36,1.89s-.59.82-1.05,1.07-.96.38-1.5.38c-.87,0-1.58-.28-2.11-.84s-.81-1.36-.81-2.41Zm1.08,0c0,.8.17,1.39.52,1.79s.79.59,1.31.59.96-.2,1.31-.6.52-1.01.52-1.82c0-.77-.17-1.35-.52-1.75s-.78-.59-1.3-.59-.96.2-1.31.59-.52.99-.52,1.79Z"/>
      <path class="cls-16" d="m186.05,153.62v-6.22h.95v.94c.24-.44.47-.73.67-.87s.43-.21.68-.21c.36,0,.72.11,1.08.34l-.36.98c-.26-.15-.52-.23-.77-.23-.23,0-.44.07-.62.21s-.31.33-.39.58c-.12.38-.18.79-.18,1.23v3.26h-1.05Z"/>
      <path class="cls-16" d="m190.08,153.62v-6.22h.94v.87c.2-.3.46-.55.78-.74s.69-.28,1.11-.28c.46,0,.84.1,1.13.29s.5.46.62.8c.49-.73,1.13-1.09,1.92-1.09.62,0,1.09.17,1.42.51s.5.87.5,1.58v4.27h-1.05v-3.92c0-.42-.03-.73-.1-.91s-.19-.33-.37-.45-.39-.17-.63-.17c-.44,0-.8.15-1.09.44s-.43.76-.43,1.4v3.62h-1.05v-4.04c0-.47-.09-.82-.26-1.05s-.45-.35-.84-.35c-.3,0-.57.08-.82.23s-.43.38-.55.69-.17.73-.17,1.3v3.23h-1.05Z"/>
      <path class="cls-16" d="m204.16,152.85c-.39.33-.77.57-1.13.7s-.75.21-1.16.21c-.68,0-1.21-.17-1.58-.5s-.55-.76-.55-1.28c0-.3.07-.58.21-.83s.32-.45.54-.61.48-.27.76-.35c.21-.05.52-.11.94-.16.85-.1,1.48-.22,1.88-.36,0-.14,0-.24,0-.28,0-.43-.1-.73-.3-.91-.27-.24-.67-.36-1.2-.36-.5,0-.86.09-1.1.26s-.41.48-.52.92l-1.03-.14c.09-.44.25-.8.46-1.07s.53-.48.93-.63.88-.22,1.41-.22.96.06,1.29.19.58.28.73.47.27.43.33.72c.04.18.05.5.05.97v1.41c0,.98.02,1.6.07,1.86s.13.51.27.75h-1.1c-.11-.22-.18-.47-.21-.77Zm-.09-2.36c-.38.16-.96.29-1.72.4-.43.06-.74.13-.92.21s-.32.19-.42.34-.15.32-.15.5c0,.28.11.52.32.7s.52.28.93.28.77-.09,1.08-.27.55-.42.7-.73c.11-.24.17-.59.17-1.05v-.39Z"/>
      <path class="cls-16" d="m209.07,152.68l.15.93c-.3.06-.56.09-.8.09-.38,0-.68-.06-.89-.18s-.36-.28-.45-.48-.13-.61-.13-1.25v-3.58h-.77v-.82h.77v-1.54l1.05-.63v2.17h1.06v.82h-1.06v3.64c0,.3.02.49.06.58s.1.15.18.21.2.08.36.08c.12,0,.27-.01.46-.04Z"/>
      <path class="cls-16" d="m210.06,146.24v-1.21h1.05v1.21h-1.05Zm0,7.38v-6.22h1.05v6.22h-1.05Z"/>
      <path class="cls-16" d="m212.32,150.51c0-1.15.32-2.01.96-2.56.54-.46,1.19-.69,1.96-.69.86,0,1.55.28,2.1.84s.81,1.33.81,2.32c0,.8-.12,1.43-.36,1.89s-.59.82-1.05,1.07-.96.38-1.5.38c-.87,0-1.58-.28-2.11-.84s-.81-1.36-.81-2.41Zm1.08,0c0,.8.17,1.39.52,1.79s.79.59,1.31.59.96-.2,1.31-.6.52-1.01.52-1.82c0-.77-.17-1.35-.52-1.75s-.78-.59-1.3-.59-.96.2-1.31.59-.52.99-.52,1.79Z"/>
      <path class="cls-16" d="m219.4,153.62v-6.22h.95v.88c.46-.68,1.12-1.03,1.98-1.03.38,0,.72.07,1.03.2s.55.31.71.53.27.48.33.78c.04.2.06.54.06,1.03v3.83h-1.05v-3.79c0-.43-.04-.75-.12-.96s-.23-.38-.44-.51-.45-.19-.74-.19c-.45,0-.84.14-1.16.43s-.49.83-.49,1.62v3.4h-1.05Z"/>
      <path class="cls-16" d="m230.34,151.62l1.09.13c-.17.64-.49,1.13-.96,1.48s-1.06.53-1.78.53c-.91,0-1.63-.28-2.17-.84s-.8-1.35-.8-2.36.27-1.86.81-2.44,1.24-.87,2.1-.87,1.51.28,2.04.85.79,1.36.79,2.39c0,.06,0,.16,0,.28h-4.64c.04.68.23,1.21.58,1.57s.78.54,1.3.54c.39,0,.72-.1.99-.3s.49-.53.65-.97Zm-3.46-1.71h3.47c-.05-.52-.18-.92-.4-1.18-.34-.41-.77-.61-1.31-.61-.48,0-.89.16-1.22.49s-.51.76-.55,1.3Z"/>
      <path class="cls-16" d="m232.76,153.62v-6.22h.95v.88c.46-.68,1.12-1.03,1.98-1.03.38,0,.72.07,1.03.2s.55.31.71.53.27.48.33.78c.04.2.06.54.06,1.03v3.83h-1.05v-3.79c0-.43-.04-.75-.12-.96s-.23-.38-.44-.51-.45-.19-.74-.19c-.45,0-.84.14-1.16.43s-.49.83-.49,1.62v3.4h-1.05Z"/>
      <path class="cls-16" d="m243.89,153.62l-1.9-6.22h1.09l.99,3.59.37,1.34c.02-.07.12-.49.32-1.28l.99-3.64h1.08l.93,3.61.31,1.19.36-1.2,1.07-3.6h1.03l-1.95,6.22h-1.1l-.99-3.73-.24-1.06-1.26,4.79h-1.1Z"/>
      <path class="cls-16" d="m255.64,151.62l1.09.13c-.17.64-.49,1.13-.96,1.48s-1.06.53-1.78.53c-.91,0-1.63-.28-2.17-.84s-.8-1.35-.8-2.36.27-1.86.81-2.44,1.24-.87,2.1-.87,1.51.28,2.04.85.79,1.36.79,2.39c0,.06,0,.16,0,.28h-4.64c.04.68.23,1.21.58,1.57s.78.54,1.3.54c.39,0,.72-.1.99-.3s.49-.53.65-.97Zm-3.46-1.71h3.47c-.05-.52-.18-.92-.4-1.18-.34-.41-.77-.61-1.31-.61-.48,0-.89.16-1.22.49s-.51.76-.55,1.3Z"/>
      <path class="cls-16" d="m258.05,153.62v-6.22h.95v.94c.24-.44.47-.73.67-.87s.43-.21.68-.21c.36,0,.72.11,1.08.34l-.36.98c-.26-.15-.52-.23-.77-.23-.23,0-.44.07-.62.21s-.31.33-.39.58c-.12.38-.18.79-.18,1.23v3.26h-1.05Z"/>
      <path class="cls-16" d="m266.12,153.62v-.79c-.39.62-.97.93-1.74.93-.5,0-.95-.14-1.37-.41s-.74-.66-.97-1.15-.34-1.05-.34-1.69.1-1.18.31-1.69.52-.89.93-1.16.88-.4,1.39-.4c.38,0,.71.08,1,.24s.53.36.71.62v-3.08h1.05v8.59h-.98Zm-3.33-3.11c0,.8.17,1.39.5,1.79s.73.59,1.19.59.85-.19,1.17-.57.48-.95.48-1.73c0-.85-.16-1.48-.49-1.88s-.73-.6-1.21-.6-.86.19-1.17.57-.47.99-.47,1.81Z"/>
      <path class="cls-16" d="m273,151.62l1.09.13c-.17.64-.49,1.13-.96,1.48s-1.06.53-1.78.53c-.91,0-1.63-.28-2.17-.84s-.8-1.35-.8-2.36.27-1.86.81-2.44,1.24-.87,2.1-.87,1.51.28,2.04.85.79,1.36.79,2.39c0,.06,0,.16,0,.28h-4.64c.04.68.23,1.21.58,1.57s.78.54,1.3.54c.39,0,.72-.1.99-.3s.49-.53.65-.97Zm-3.46-1.71h3.47c-.05-.52-.18-.92-.4-1.18-.34-.41-.77-.61-1.31-.61-.48,0-.89.16-1.22.49s-.51.76-.55,1.3Z"/>
      <path class="cls-16" d="m275.43,153.62v-6.22h.95v.88c.46-.68,1.12-1.03,1.98-1.03.38,0,.72.07,1.03.2s.55.31.71.53.27.48.33.78c.04.2.06.54.06,1.03v3.83h-1.05v-3.79c0-.43-.04-.75-.12-.96s-.23-.38-.44-.51-.45-.19-.74-.19c-.45,0-.84.14-1.16.43s-.49.83-.49,1.62v3.4h-1.05Z"/>
      <path class="cls-16" d="m285.41,153.62v-6.22h.94v.87c.2-.3.46-.55.78-.74s.69-.28,1.11-.28c.46,0,.84.1,1.13.29s.5.46.62.8c.49-.73,1.13-1.09,1.92-1.09.62,0,1.09.17,1.42.51s.5.87.5,1.58v4.27h-1.05v-3.92c0-.42-.03-.73-.1-.91s-.19-.33-.37-.45-.39-.17-.63-.17c-.44,0-.8.15-1.09.44s-.43.76-.43,1.4v3.62h-1.05v-4.04c0-.47-.09-.82-.26-1.05s-.45-.35-.84-.35c-.3,0-.57.08-.82.23s-.43.38-.55.69-.17.73-.17,1.3v3.23h-1.05Z"/>
      <path class="cls-16" d="m295.44,146.24v-1.21h1.05v1.21h-1.05Zm0,7.38v-6.22h1.05v6.22h-1.05Z"/>
      <path class="cls-16" d="m300.4,152.68l.15.93c-.3.06-.56.09-.8.09-.38,0-.68-.06-.89-.18s-.36-.28-.45-.48-.13-.61-.13-1.25v-3.58h-.77v-.82h.77v-1.54l1.05-.63v2.17h1.06v.82h-1.06v3.64c0,.3.02.49.06.58s.1.15.18.21.2.08.36.08c.12,0,.27-.01.46-.04Z"/>
      <path class="cls-16" d="m308.73,152.85c-.39.33-.77.57-1.13.7s-.75.21-1.16.21c-.68,0-1.21-.17-1.58-.5s-.55-.76-.55-1.28c0-.3.07-.58.21-.83s.32-.45.54-.61.48-.27.76-.35c.21-.05.52-.11.94-.16.85-.1,1.48-.22,1.88-.36,0-.14,0-.24,0-.28,0-.43-.1-.73-.3-.91-.27-.24-.67-.36-1.2-.36-.5,0-.86.09-1.1.26s-.41.48-.52.92l-1.03-.14c.09-.44.25-.8.46-1.07s.53-.48.93-.63.88-.22,1.41-.22.96.06,1.29.19.58.28.73.47.27.43.33.72c.04.18.05.5.05.97v1.41c0,.98.02,1.6.07,1.86s.13.51.27.75h-1.1c-.11-.22-.18-.47-.21-.77Zm-.09-2.36c-.38.16-.96.29-1.72.4-.43.06-.74.13-.92.21s-.32.19-.42.34-.15.32-.15.5c0,.28.11.52.32.7s.52.28.93.28.77-.09,1.08-.27.55-.42.7-.73c.11-.24.17-.59.17-1.05v-.39Z"/>
      <path class="cls-16" d="m311.32,153.62v-6.22h.95v.88c.46-.68,1.12-1.03,1.98-1.03.38,0,.72.07,1.03.2s.55.31.71.53.27.48.33.78c.04.2.06.54.06,1.03v3.83h-1.05v-3.79c0-.43-.04-.75-.12-.96s-.23-.38-.44-.51-.45-.19-.74-.19c-.45,0-.84.14-1.16.43s-.49.83-.49,1.62v3.4h-1.05Z"/>
      <path class="cls-16" d="m322.03,153.62v-.79c-.39.62-.97.93-1.74.93-.5,0-.95-.14-1.37-.41s-.74-.66-.97-1.15-.34-1.05-.34-1.69.1-1.18.31-1.69.52-.89.93-1.16.88-.4,1.39-.4c.38,0,.71.08,1,.24s.53.36.71.62v-3.08h1.05v8.59h-.98Zm-3.33-3.11c0,.8.17,1.39.5,1.79s.73.59,1.19.59.85-.19,1.17-.57.48-.95.48-1.73c0-.85-.16-1.48-.49-1.88s-.73-.6-1.21-.6-.86.19-1.17.57-.47.99-.47,1.81Z"/>
      <path class="cls-16" d="m328.9,151.62l1.09.13c-.17.64-.49,1.13-.96,1.48s-1.06.53-1.78.53c-.91,0-1.63-.28-2.17-.84s-.8-1.35-.8-2.36.27-1.86.81-2.44,1.24-.87,2.1-.87,1.51.28,2.04.85.79,1.36.79,2.39c0,.06,0,.16,0,.28h-4.64c.04.68.23,1.21.58,1.57s.78.54,1.3.54c.39,0,.72-.1.99-.3s.49-.53.65-.97Zm-3.46-1.71h3.47c-.05-.52-.18-.92-.4-1.18-.34-.41-.77-.61-1.31-.61-.48,0-.89.16-1.22.49s-.51.76-.55,1.3Z"/>
      <path class="cls-16" d="m331.31,153.62v-6.22h.95v.94c.24-.44.47-.73.67-.87s.43-.21.68-.21c.36,0,.72.11,1.08.34l-.36.98c-.26-.15-.52-.23-.77-.23-.23,0-.44.07-.62.21s-.31.33-.39.58c-.12.38-.18.79-.18,1.23v3.26h-1.05Z"/>
      <path class="cls-16" d="m339.59,151.62l1.09.13c-.17.64-.49,1.13-.96,1.48s-1.06.53-1.78.53c-.91,0-1.63-.28-2.17-.84s-.8-1.35-.8-2.36.27-1.86.81-2.44,1.24-.87,2.1-.87,1.51.28,2.04.85.79,1.36.79,2.39c0,.06,0,.16,0,.28h-4.64c.04.68.23,1.21.58,1.57s.78.54,1.3.54c.39,0,.72-.1.99-.3s.49-.53.65-.97Zm-3.46-1.71h3.47c-.05-.52-.18-.92-.4-1.18-.34-.41-.77-.61-1.31-.61-.48,0-.89.16-1.22.49s-.51.76-.55,1.3Z"/>
      <path class="cls-16" d="m342,153.62v-6.22h.95v.88c.46-.68,1.12-1.03,1.98-1.03.38,0,.72.07,1.03.2s.55.31.71.53.27.48.33.78c.04.2.06.54.06,1.03v3.83h-1.05v-3.79c0-.43-.04-.75-.12-.96s-.23-.38-.44-.51-.45-.19-.74-.19c-.45,0-.84.14-1.16.43s-.49.83-.49,1.62v3.4h-1.05Z"/>
      <path class="cls-16" d="m130.1,171.62v-8.59h1.14v8.59h-1.14Z"/>
      <path class="cls-16" d="m133.14,171.62v-6.22h.95v.88c.46-.68,1.12-1.03,1.98-1.03.38,0,.72.07,1.03.2s.55.31.71.53.27.48.33.78c.04.2.06.54.06,1.03v3.83h-1.05v-3.79c0-.43-.04-.75-.12-.96s-.23-.38-.44-.51-.45-.19-.74-.19c-.45,0-.84.14-1.16.43s-.49.83-.49,1.62v3.4h-1.05Z"/>
      <path class="cls-16" d="m140.07,171.62v-5.4h-.93v-.82h.93v-.66c0-.42.04-.73.11-.93.1-.27.28-.5.54-.67s.61-.25,1.08-.25c.3,0,.62.04.98.11l-.16.92c-.22-.04-.43-.06-.62-.06-.32,0-.55.07-.68.21s-.2.39-.2.77v.57h1.21v.82h-1.21v5.4h-1.05Z"/>
      <path class="cls-16" d="m142.78,168.51c0-1.15.32-2.01.96-2.56.54-.46,1.19-.69,1.96-.69.86,0,1.55.28,2.1.84s.81,1.33.81,2.32c0,.8-.12,1.43-.36,1.89s-.59.82-1.05,1.07-.96.38-1.5.38c-.87,0-1.58-.28-2.11-.84s-.81-1.36-.81-2.41Zm1.08,0c0,.8.17,1.39.52,1.79s.79.59,1.31.59.96-.2,1.31-.6.52-1.01.52-1.82c0-.77-.17-1.35-.52-1.75s-.78-.59-1.3-.59-.96.2-1.31.59-.52.99-.52,1.79Z"/>
      <path class="cls-16" d="m149.84,171.62v-6.22h.95v.94c.24-.44.47-.73.67-.87s.43-.21.68-.21c.36,0,.72.11,1.08.34l-.36.98c-.26-.15-.52-.23-.77-.23-.23,0-.44.07-.62.21s-.31.33-.39.58c-.12.38-.18.79-.18,1.23v3.26h-1.05Z"/>
      <path class="cls-16" d="m153.86,171.62v-6.22h.94v.87c.2-.3.46-.55.78-.74s.69-.28,1.11-.28c.46,0,.84.1,1.13.29s.5.46.62.8c.49-.73,1.13-1.09,1.92-1.09.62,0,1.09.17,1.42.51s.5.87.5,1.58v4.27h-1.05v-3.92c0-.42-.03-.73-.1-.91s-.19-.33-.37-.45-.39-.17-.63-.17c-.44,0-.8.15-1.09.44s-.43.76-.43,1.4v3.62h-1.05v-4.04c0-.47-.09-.82-.26-1.05s-.45-.35-.84-.35c-.3,0-.57.08-.82.23s-.43.38-.55.69-.17.73-.17,1.3v3.23h-1.05Z"/>
      <path class="cls-16" d="m167.92,170.85c-.39.33-.77.57-1.13.7s-.75.21-1.16.21c-.68,0-1.21-.17-1.58-.5s-.55-.76-.55-1.28c0-.3.07-.58.21-.83s.32-.45.54-.61.48-.27.76-.35c.21-.05.52-.11.94-.16.85-.1,1.48-.22,1.88-.36,0-.14,0-.24,0-.28,0-.43-.1-.73-.3-.91-.27-.24-.67-.36-1.2-.36-.5,0-.86.09-1.1.26s-.41.48-.52.92l-1.03-.14c.09-.44.25-.8.46-1.07s.53-.48.93-.63.88-.22,1.41-.22.96.06,1.29.19.58.28.73.47.27.43.33.72c.04.18.05.5.05.97v1.41c0,.98.02,1.6.07,1.86s.13.51.27.75h-1.1c-.11-.22-.18-.47-.21-.77Zm-.09-2.36c-.38.16-.96.29-1.72.4-.43.06-.74.13-.92.21s-.32.19-.42.34-.15.32-.15.5c0,.28.11.52.32.7s.52.28.93.28.77-.09,1.08-.27.55-.42.7-.73c.11-.24.17-.59.17-1.05v-.39Z"/>
      <path class="cls-16" d="m172.82,170.68l.15.93c-.3.06-.56.09-.8.09-.38,0-.68-.06-.89-.18s-.36-.28-.45-.48-.13-.61-.13-1.25v-3.58h-.77v-.82h.77v-1.54l1.05-.63v2.17h1.06v.82h-1.06v3.64c0,.3.02.49.06.58s.1.15.18.21.2.08.36.08c.12,0,.27-.01.46-.04Z"/>
      <path class="cls-16" d="m173.81,164.24v-1.21h1.05v1.21h-1.05Zm0,7.38v-6.22h1.05v6.22h-1.05Z"/>
      <path class="cls-16" d="m176.06,168.51c0-1.15.32-2.01.96-2.56.54-.46,1.19-.69,1.96-.69.86,0,1.55.28,2.1.84s.81,1.33.81,2.32c0,.8-.12,1.43-.36,1.89s-.59.82-1.05,1.07-.96.38-1.5.38c-.87,0-1.58-.28-2.11-.84s-.81-1.36-.81-2.41Zm1.08,0c0,.8.17,1.39.52,1.79s.79.59,1.31.59.96-.2,1.31-.6.52-1.01.52-1.82c0-.77-.17-1.35-.52-1.75s-.78-.59-1.3-.59-.96.2-1.31.59-.52.99-.52,1.79Z"/>
      <path class="cls-16" d="m183.13,171.62v-6.22h.95v.88c.46-.68,1.12-1.03,1.98-1.03.38,0,.72.07,1.03.2s.55.31.71.53.27.48.33.78c.04.2.06.54.06,1.03v3.83h-1.05v-3.79c0-.43-.04-.75-.12-.96s-.23-.38-.44-.51-.45-.19-.74-.19c-.45,0-.84.14-1.16.43s-.49.83-.49,1.62v3.4h-1.05Z"/>
      <path class="cls-16" d="m194.06,169.62l1.09.13c-.17.64-.49,1.13-.96,1.48s-1.06.53-1.78.53c-.91,0-1.63-.28-2.17-.84s-.8-1.35-.8-2.36.27-1.86.81-2.44,1.24-.87,2.1-.87,1.51.28,2.04.85.79,1.36.79,2.39c0,.06,0,.16,0,.28h-4.64c.04.68.23,1.21.58,1.57s.78.54,1.3.54c.39,0,.72-.1.99-.3s.49-.53.65-.97Zm-3.46-1.71h3.47c-.05-.52-.18-.92-.4-1.18-.34-.41-.77-.61-1.31-.61-.48,0-.89.16-1.22.49s-.51.76-.55,1.3Z"/>
      <path class="cls-16" d="m196.48,171.62v-6.22h.95v.88c.46-.68,1.12-1.03,1.98-1.03.38,0,.72.07,1.03.2s.55.31.71.53.27.48.33.78c.04.2.06.54.06,1.03v3.83h-1.05v-3.79c0-.43-.04-.75-.12-.96s-.23-.38-.44-.51-.45-.19-.74-.19c-.45,0-.84.14-1.16.43s-.49.83-.49,1.62v3.4h-1.05Z"/>
      <path class="cls-16" d="m210.54,171.62v-.91c-.48.7-1.14,1.05-1.97,1.05-.37,0-.71-.07-1.03-.21s-.55-.32-.71-.53-.26-.47-.33-.78c-.04-.21-.06-.54-.06-.98v-3.86h1.05v3.45c0,.55.02.92.06,1.11.07.28.21.5.42.65s.48.24.8.24.61-.08.89-.24.47-.38.59-.66.17-.68.17-1.22v-3.33h1.05v6.22h-.94Z"/>
      <path class="cls-16" d="m213.16,171.62v-6.22h.95v.88c.46-.68,1.12-1.03,1.98-1.03.38,0,.72.07,1.03.2s.55.31.71.53.27.48.33.78c.04.2.06.54.06,1.03v3.83h-1.05v-3.79c0-.43-.04-.75-.12-.96s-.23-.38-.44-.51-.45-.19-.74-.19c-.45,0-.84.14-1.16.43s-.49.83-.49,1.62v3.4h-1.05Z"/>
      <path class="cls-16" d="m223.87,171.62v-.79c-.39.62-.97.93-1.74.93-.5,0-.95-.14-1.37-.41s-.74-.66-.97-1.15-.34-1.05-.34-1.69.1-1.18.31-1.69.52-.89.93-1.16.88-.4,1.39-.4c.38,0,.71.08,1,.24s.53.36.71.62v-3.08h1.05v8.59h-.98Zm-3.33-3.11c0,.8.17,1.39.5,1.79s.73.59,1.19.59.85-.19,1.17-.57.48-.95.48-1.73c0-.85-.16-1.48-.49-1.88s-.73-.6-1.21-.6-.86.19-1.17.57-.47.99-.47,1.81Z"/>
      <path class="cls-16" d="m229.97,171.62v-8.59h6.21v1.01h-5.07v2.63h4.75v1.01h-4.75v2.92h5.27v1.01h-6.41Z"/>
      <path class="cls-16" d="m237.76,171.62v-6.22h.95v.94c.24-.44.47-.73.67-.87s.43-.21.68-.21c.36,0,.72.11,1.08.34l-.36.98c-.26-.15-.52-.23-.77-.23-.23,0-.44.07-.62.21s-.31.33-.39.58c-.12.38-.18.79-.18,1.23v3.26h-1.05Z"/>
      <path class="cls-16" d="m242.04,171.62v-5.4h-.93v-.82h.93v-.66c0-.42.04-.73.11-.93.1-.27.28-.5.54-.67s.61-.25,1.08-.25c.3,0,.62.04.98.11l-.16.92c-.22-.04-.43-.06-.62-.06-.32,0-.55.07-.68.21s-.2.39-.2.77v.57h1.21v.82h-1.21v5.4h-1.05Z"/>
      <path class="cls-16" d="m249.21,170.85c-.39.33-.77.57-1.13.7s-.75.21-1.16.21c-.68,0-1.21-.17-1.58-.5s-.55-.76-.55-1.28c0-.3.07-.58.21-.83s.32-.45.54-.61.48-.27.76-.35c.21-.05.52-.11.94-.16.85-.1,1.48-.22,1.88-.36,0-.14,0-.24,0-.28,0-.43-.1-.73-.3-.91-.27-.24-.67-.36-1.2-.36-.5,0-.86.09-1.1.26s-.41.48-.52.92l-1.03-.14c.09-.44.25-.8.46-1.07s.53-.48.93-.63.88-.22,1.41-.22.96.06,1.29.19.58.28.73.47.27.43.33.72c.04.18.05.5.05.97v1.41c0,.98.02,1.6.07,1.86s.13.51.27.75h-1.1c-.11-.22-.18-.47-.21-.77Zm-.09-2.36c-.38.16-.96.29-1.72.4-.43.06-.74.13-.92.21s-.32.19-.42.34-.15.32-.15.5c0,.28.11.52.32.7s.52.28.93.28.77-.09,1.08-.27.55-.42.7-.73c.11-.24.17-.59.17-1.05v-.39Z"/>
      <path class="cls-16" d="m251.8,171.62v-8.59h1.05v3.08c.49-.57,1.11-.86,1.86-.86.46,0,.86.09,1.2.27s.58.43.73.75.22.79.22,1.39v3.94h-1.05v-3.94c0-.53-.11-.91-.34-1.15s-.55-.36-.97-.36c-.31,0-.61.08-.88.24s-.47.38-.59.66-.18.66-.18,1.15v3.4h-1.05Z"/>
      <path class="cls-16" d="m258.46,171.62v-6.22h.95v.94c.24-.44.47-.73.67-.87s.43-.21.68-.21c.36,0,.72.11,1.08.34l-.36.98c-.26-.15-.52-.23-.77-.23-.23,0-.44.07-.62.21s-.31.33-.39.58c-.12.38-.18.79-.18,1.23v3.26h-1.05Z"/>
      <path class="cls-16" d="m266.57,171.62v-.91c-.48.7-1.14,1.05-1.97,1.05-.37,0-.71-.07-1.03-.21s-.55-.32-.71-.53-.26-.47-.33-.78c-.04-.21-.06-.54-.06-.98v-3.86h1.05v3.45c0,.55.02.92.06,1.11.07.28.21.5.42.65s.48.24.8.24.61-.08.89-.24.47-.38.59-.66.17-.68.17-1.22v-3.33h1.05v6.22h-.94Z"/>
      <path class="cls-16" d="m269.19,171.62v-6.22h.95v.88c.46-.68,1.12-1.03,1.98-1.03.38,0,.72.07,1.03.2s.55.31.71.53.27.48.33.78c.04.2.06.54.06,1.03v3.83h-1.05v-3.79c0-.43-.04-.75-.12-.96s-.23-.38-.44-.51-.45-.19-.74-.19c-.45,0-.84.14-1.16.43s-.49.83-.49,1.62v3.4h-1.05Z"/>
      <path class="cls-16" d="m275.67,172.14l1.03.15c.04.32.16.55.36.69.26.2.62.29,1.07.29.49,0,.87-.1,1.13-.29s.45-.47.54-.82c.05-.21.08-.67.08-1.35-.46.54-1.04.81-1.72.81-.86,0-1.52-.31-1.99-.93s-.7-1.36-.7-2.22c0-.59.11-1.14.32-1.64s.53-.89.93-1.16.89-.41,1.44-.41c.73,0,1.34.3,1.82.89v-.75h.97v5.38c0,.97-.1,1.66-.3,2.06s-.51.72-.94.96-.95.35-1.58.35c-.74,0-1.34-.17-1.8-.5s-.68-.84-.66-1.51Zm.87-3.74c0,.82.16,1.41.49,1.79s.73.56,1.22.56.89-.19,1.22-.56.49-.96.49-1.75-.17-1.34-.51-1.72-.75-.58-1.22-.58-.87.19-1.2.57-.49.95-.49,1.7Z"/>
      <path class="cls-16" d="m286.8,169.62l1.09.13c-.17.64-.49,1.13-.96,1.48s-1.06.53-1.78.53c-.91,0-1.63-.28-2.17-.84s-.8-1.35-.8-2.36.27-1.86.81-2.44,1.24-.87,2.1-.87,1.51.28,2.04.85.79,1.36.79,2.39c0,.06,0,.16,0,.28h-4.64c.04.68.23,1.21.58,1.57s.78.54,1.3.54c.39,0,.72-.1.99-.3s.49-.53.65-.97Zm-3.46-1.71h3.47c-.05-.52-.18-.92-.4-1.18-.34-.41-.77-.61-1.31-.61-.48,0-.89.16-1.22.49s-.51.76-.55,1.3Z"/>
      <path class="cls-16" d="m289.21,171.62v-6.22h.95v.88c.46-.68,1.12-1.03,1.98-1.03.38,0,.72.07,1.03.2s.55.31.71.53.27.48.33.78c.04.2.06.54.06,1.03v3.83h-1.05v-3.79c0-.43-.04-.75-.12-.96s-.23-.38-.44-.51-.45-.19-.74-.19c-.45,0-.84.14-1.16.43s-.49.83-.49,1.62v3.4h-1.05Z"/>
      <path class="cls-16" d="m300.92,171.62l-2.37-6.22h1.11l1.34,3.73c.14.4.28.82.4,1.25.09-.33.22-.72.39-1.18l1.38-3.8h1.08l-2.36,6.22h-.98Z"/>
      <path class="cls-16" d="m309.47,169.62l1.09.13c-.17.64-.49,1.13-.96,1.48s-1.06.53-1.78.53c-.91,0-1.63-.28-2.17-.84s-.8-1.35-.8-2.36.27-1.86.81-2.44,1.24-.87,2.1-.87,1.51.28,2.04.85.79,1.36.79,2.39c0,.06,0,.16,0,.28h-4.64c.04.68.23,1.21.58,1.57s.78.54,1.3.54c.39,0,.72-.1.99-.3s.49-.53.65-.97Zm-3.46-1.71h3.47c-.05-.52-.18-.92-.4-1.18-.34-.41-.77-.61-1.31-.61-.48,0-.89.16-1.22.49s-.51.76-.55,1.3Z"/>
      <path class="cls-16" d="m311.88,171.62v-6.22h.95v.94c.24-.44.47-.73.67-.87s.43-.21.68-.21c.36,0,.72.11,1.08.34l-.36.98c-.26-.15-.52-.23-.77-.23-.23,0-.44.07-.62.21s-.31.33-.39.58c-.12.38-.18.79-.18,1.23v3.26h-1.05Z"/>
      <path class="cls-16" d="m315.91,171.62v-8.59h1.05v4.9l2.5-2.53h1.37l-2.38,2.31,2.62,3.91h-1.3l-2.06-3.18-.74.71v2.47h-1.05Z"/>
      <path class="cls-16" d="m321.95,171.62v-6.22h.95v.88c.46-.68,1.12-1.03,1.98-1.03.38,0,.72.07,1.03.2s.55.31.71.53.27.48.33.78c.04.2.06.54.06,1.03v3.83h-1.05v-3.79c0-.43-.04-.75-.12-.96s-.23-.38-.44-.51-.45-.19-.74-.19c-.45,0-.84.14-1.16.43s-.49.83-.49,1.62v3.4h-1.05Z"/>
      <path class="cls-16" d="m332.7,171.62v-.91c-.48.7-1.14,1.05-1.97,1.05-.37,0-.71-.07-1.03-.21s-.55-.32-.71-.53-.26-.47-.33-.78c-.04-.21-.06-.54-.06-.98v-3.86h1.05v3.45c0,.55.02.92.06,1.11.07.28.21.5.42.65s.48.24.8.24.61-.08.89-.24.47-.38.59-.66.17-.68.17-1.22v-3.33h1.05v6.22h-.94Zm-3.22-7.44v-1.2h1.1v1.2h-1.1Zm2.19,0v-1.2h1.1v1.2h-1.1Z"/>
      <path class="cls-16" d="m335.32,174.01v-8.61h.96v.81c.23-.32.48-.55.77-.71s.63-.24,1.04-.24c.53,0,1,.14,1.41.41s.71.66.92,1.16.31,1.04.31,1.64c0,.64-.11,1.21-.34,1.72s-.56.9-1,1.17-.89.41-1.37.41c-.35,0-.67-.07-.95-.22s-.51-.34-.69-.56v3.03h-1.05Zm.96-5.46c0,.8.16,1.39.49,1.78s.72.57,1.18.57.87-.2,1.2-.59.5-1.01.5-1.84-.16-1.39-.49-1.78-.72-.59-1.17-.59-.85.21-1.19.63-.52,1.03-.52,1.83Z"/>
      <path class="cls-16" d="m342.24,171.62v-5.4h-.93v-.82h.93v-.66c0-.42.04-.73.11-.93.1-.27.28-.5.54-.67s.61-.25,1.08-.25c.3,0,.62.04.98.11l-.16.92c-.22-.04-.43-.06-.62-.06-.32,0-.55.07-.68.21s-.2.39-.2.77v.57h1.21v.82h-1.21v5.4h-1.05Z"/>
      <path class="cls-16" d="m347.64,170.68l.15.93c-.3.06-.56.09-.8.09-.38,0-.68-.06-.89-.18s-.36-.28-.45-.48-.13-.61-.13-1.25v-3.58h-.77v-.82h.77v-1.54l1.05-.63v2.17h1.06v.82h-1.06v3.64c0,.3.02.49.06.58s.1.15.18.21.2.08.36.08c.12,0,.27-.01.46-.04Z"/>
    </g>
  </g>
  <g>
    <text class="cls-6" transform="translate(204.92 234.44)"><tspan x="0" y="0">Semantik</tspan></text>
    <g>
      <path class="cls-16" d="m35.71,263.54v-8.59h2.96c.67,0,1.18.04,1.53.12.49.11.91.32,1.26.62.45.38.79.87,1.02,1.47s.34,1.28.34,2.04c0,.65-.08,1.23-.23,1.73s-.35.92-.59,1.25-.5.59-.78.78-.62.33-1.03.43-.86.15-1.38.15h-3.1Zm1.14-1.01h1.83c.57,0,1.01-.05,1.33-.16s.58-.25.77-.45c.27-.27.48-.63.63-1.09s.23-1.01.23-1.66c0-.9-.15-1.59-.44-2.07s-.65-.81-1.08-.97c-.3-.12-.79-.18-1.47-.18h-1.8v6.56Z"/>
      <path class="cls-16" d="m48.31,262.77c-.39.33-.77.57-1.13.7s-.75.21-1.16.21c-.68,0-1.21-.17-1.58-.5s-.55-.76-.55-1.28c0-.3.07-.58.21-.83s.32-.45.54-.61.48-.27.76-.35c.21-.05.52-.11.94-.16.85-.1,1.48-.22,1.88-.36,0-.14,0-.24,0-.28,0-.43-.1-.73-.3-.91-.27-.24-.67-.36-1.2-.36-.5,0-.86.09-1.1.26s-.41.48-.52.92l-1.03-.14c.09-.44.25-.8.46-1.07s.53-.48.93-.63.88-.22,1.41-.22.96.06,1.29.19.58.28.73.47.27.43.33.72c.04.18.05.5.05.97v1.41c0,.98.02,1.6.07,1.86s.13.51.27.75h-1.1c-.11-.22-.18-.47-.21-.77Zm-.09-2.36c-.38.16-.96.29-1.72.4-.43.06-.74.13-.92.21s-.32.19-.42.34-.15.32-.15.5c0,.28.11.52.32.7s.52.28.93.28.77-.09,1.08-.27.55-.42.7-.73c.11-.24.17-.59.17-1.05v-.39Z"/>
      <path class="cls-16" d="m53.24,262.59l.15.93c-.3.06-.56.09-.8.09-.38,0-.68-.06-.89-.18s-.36-.28-.45-.48-.13-.61-.13-1.25v-3.58h-.77v-.82h.77v-1.54l1.05-.63v2.17h1.06v.82h-1.06v3.64c0,.3.02.49.06.58s.1.15.18.21.2.08.36.08c.12,0,.27-.01.46-.04Z"/>
      <path class="cls-16" d="m58.54,261.53l1.09.13c-.17.64-.49,1.13-.96,1.48s-1.06.53-1.78.53c-.91,0-1.63-.28-2.17-.84s-.8-1.35-.8-2.36.27-1.86.81-2.44,1.24-.87,2.1-.87,1.51.28,2.04.85.79,1.36.79,2.39c0,.06,0,.16,0,.28h-4.64c.04.68.23,1.21.58,1.57s.78.54,1.3.54c.39,0,.72-.1.99-.3s.49-.53.65-.97Zm-3.46-1.71h3.47c-.05-.52-.18-.92-.4-1.18-.34-.41-.77-.61-1.31-.61-.48,0-.89.16-1.22.49s-.51.76-.55,1.3Z"/>
      <path class="cls-16" d="m60.97,263.54v-6.22h.95v.88c.46-.68,1.12-1.03,1.98-1.03.38,0,.72.07,1.03.2s.55.31.71.53.27.48.33.78c.04.2.06.54.06,1.03v3.83h-1.05v-3.79c0-.43-.04-.75-.12-.96s-.23-.38-.44-.51-.45-.19-.74-.19c-.45,0-.84.14-1.16.43s-.49.83-.49,1.62v3.4h-1.05Z"/>
      <path class="cls-16" d="m71.01,263.54v-8.59h1.05v4.9l2.5-2.53h1.37l-2.38,2.31,2.62,3.91h-1.3l-2.06-3.18-.74.71v2.47h-1.05Z"/>
      <path class="cls-16" d="m76.62,260.42c0-1.15.32-2.01.96-2.56.54-.46,1.19-.69,1.96-.69.86,0,1.55.28,2.1.84s.81,1.33.81,2.32c0,.8-.12,1.43-.36,1.89s-.59.82-1.05,1.07-.96.38-1.5.38c-.87,0-1.58-.28-2.11-.84s-.81-1.36-.81-2.41Zm1.08,0c0,.8.17,1.39.52,1.79s.79.59,1.31.59.96-.2,1.31-.6.52-1.01.52-1.82c0-.77-.17-1.35-.52-1.75s-.78-.59-1.3-.59-.96.2-1.31.59-.52.99-.52,1.79Zm.19-4.33v-1.2h1.1v1.2h-1.1Zm2.19,0v-1.2h1.1v1.2h-1.1Z"/>
      <path class="cls-16" d="m83.7,263.54v-6.22h.95v.88c.46-.68,1.12-1.03,1.98-1.03.38,0,.72.07,1.03.2s.55.31.71.53.27.48.33.78c.04.2.06.54.06,1.03v3.83h-1.05v-3.79c0-.43-.04-.75-.12-.96s-.23-.38-.44-.51-.45-.19-.74-.19c-.45,0-.84.14-1.16.43s-.49.83-.49,1.62v3.4h-1.05Z"/>
      <path class="cls-16" d="m90.39,263.54v-6.22h.95v.88c.46-.68,1.12-1.03,1.98-1.03.38,0,.72.07,1.03.2s.55.31.71.53.27.48.33.78c.04.2.06.54.06,1.03v3.83h-1.05v-3.79c0-.43-.04-.75-.12-.96s-.23-.38-.44-.51-.45-.19-.74-.19c-.45,0-.84.14-1.16.43s-.49.83-.49,1.62v3.4h-1.05Z"/>
      <path class="cls-16" d="m101.33,261.53l1.09.13c-.17.64-.49,1.13-.96,1.48s-1.06.53-1.78.53c-.91,0-1.63-.28-2.17-.84s-.8-1.35-.8-2.36.27-1.86.81-2.44,1.24-.87,2.1-.87,1.51.28,2.04.85.79,1.36.79,2.39c0,.06,0,.16,0,.28h-4.64c.04.68.23,1.21.58,1.57s.78.54,1.3.54c.39,0,.72-.1.99-.3s.49-.53.65-.97Zm-3.46-1.71h3.47c-.05-.52-.18-.92-.4-1.18-.34-.41-.77-.61-1.31-.61-.48,0-.89.16-1.22.49s-.51.76-.55,1.3Z"/>
      <path class="cls-16" d="m103.76,263.54v-6.22h.95v.88c.46-.68,1.12-1.03,1.98-1.03.38,0,.72.07,1.03.2s.55.31.71.53.27.48.33.78c.04.2.06.54.06,1.03v3.83h-1.05v-3.79c0-.43-.04-.75-.12-.96s-.23-.38-.44-.51-.45-.19-.74-.19c-.45,0-.84.14-1.16.43s-.49.83-.49,1.62v3.4h-1.05Z"/>
      <path class="cls-16" d="m113.79,256.16v-1.21h1.05v1.21h-1.05Zm0,7.38v-6.22h1.05v6.22h-1.05Z"/>
      <path class="cls-16" d="m116.47,263.54v-6.22h.95v.88c.46-.68,1.12-1.03,1.98-1.03.38,0,.72.07,1.03.2s.55.31.71.53.27.48.33.78c.04.2.06.54.06,1.03v3.83h-1.05v-3.79c0-.43-.04-.75-.12-.96s-.23-.38-.44-.51-.45-.19-.74-.19c-.45,0-.84.14-1.16.43s-.49.83-.49,1.62v3.4h-1.05Z"/>
      <path class="cls-16" d="m125.46,262.59l.15.93c-.3.06-.56.09-.8.09-.38,0-.68-.06-.89-.18s-.36-.28-.45-.48-.13-.61-.13-1.25v-3.58h-.77v-.82h.77v-1.54l1.05-.63v2.17h1.06v.82h-1.06v3.64c0,.3.02.49.06.58s.1.15.18.21.2.08.36.08c.12,0,.27-.01.46-.04Z"/>
      <path class="cls-16" d="m130.76,261.53l1.09.13c-.17.64-.49,1.13-.96,1.48s-1.06.53-1.78.53c-.91,0-1.63-.28-2.17-.84s-.8-1.35-.8-2.36.27-1.86.81-2.44,1.24-.87,2.1-.87,1.51.28,2.04.85.79,1.36.79,2.39c0,.06,0,.16,0,.28h-4.64c.04.68.23,1.21.58,1.57s.78.54,1.3.54c.39,0,.72-.1.99-.3s.49-.53.65-.97Zm-3.46-1.71h3.47c-.05-.52-.18-.92-.4-1.18-.34-.41-.77-.61-1.31-.61-.48,0-.89.16-1.22.49s-.51.76-.55,1.3Z"/>
      <path class="cls-16" d="m133.17,263.54v-6.22h.95v.94c.24-.44.47-.73.67-.87s.43-.21.68-.21c.36,0,.72.11,1.08.34l-.36.98c-.26-.15-.52-.23-.77-.23-.23,0-.44.07-.62.21s-.31.33-.39.58c-.12.38-.18.79-.18,1.23v3.26h-1.05Z"/>
      <path class="cls-16" d="m137.19,265.92v-8.61h.96v.81c.23-.32.48-.55.77-.71s.63-.24,1.04-.24c.53,0,1,.14,1.41.41s.71.66.92,1.16.31,1.04.31,1.64c0,.64-.11,1.21-.34,1.72s-.56.9-1,1.17-.89.41-1.37.41c-.35,0-.67-.07-.95-.22s-.51-.34-.69-.56v3.03h-1.05Zm.96-5.46c0,.8.16,1.39.49,1.78s.72.57,1.18.57.87-.2,1.2-.59.5-1.01.5-1.84-.16-1.39-.49-1.78-.72-.59-1.17-.59-.85.21-1.19.63-.52,1.03-.52,1.83Z"/>
      <path class="cls-16" d="m143.87,263.54v-6.22h.95v.94c.24-.44.47-.73.67-.87s.43-.21.68-.21c.36,0,.72.11,1.08.34l-.36.98c-.26-.15-.52-.23-.77-.23-.23,0-.44.07-.62.21s-.31.33-.39.58c-.12.38-.18.79-.18,1.23v3.26h-1.05Z"/>
      <path class="cls-16" d="m152.15,261.53l1.09.13c-.17.64-.49,1.13-.96,1.48s-1.06.53-1.78.53c-.91,0-1.63-.28-2.17-.84s-.8-1.35-.8-2.36.27-1.86.81-2.44,1.24-.87,2.1-.87,1.51.28,2.04.85.79,1.36.79,2.39c0,.06,0,.16,0,.28h-4.64c.04.68.23,1.21.58,1.57s.78.54,1.3.54c.39,0,.72-.1.99-.3s.49-.53.65-.97Zm-3.46-1.71h3.47c-.05-.52-.18-.92-.4-1.18-.34-.41-.77-.61-1.31-.61-.48,0-.89.16-1.22.49s-.51.76-.55,1.3Z"/>
      <path class="cls-16" d="m156.88,262.59l.15.93c-.3.06-.56.09-.8.09-.38,0-.68-.06-.89-.18s-.36-.28-.45-.48-.13-.61-.13-1.25v-3.58h-.77v-.82h.77v-1.54l1.05-.63v2.17h1.06v.82h-1.06v3.64c0,.3.02.49.06.58s.1.15.18.21.2.08.36.08c.12,0,.27-.01.46-.04Z"/>
      <path class="cls-16" d="m157.92,256.16v-1.21h1.05v1.21h-1.05Zm0,7.38v-6.22h1.05v6.22h-1.05Z"/>
      <path class="cls-16" d="m164.86,261.53l1.09.13c-.17.64-.49,1.13-.96,1.48s-1.06.53-1.78.53c-.91,0-1.63-.28-2.17-.84s-.8-1.35-.8-2.36.27-1.86.81-2.44,1.24-.87,2.1-.87,1.51.28,2.04.85.79,1.36.79,2.39c0,.06,0,.16,0,.28h-4.64c.04.68.23,1.21.58,1.57s.78.54,1.3.54c.39,0,.72-.1.99-.3s.49-.53.65-.97Zm-3.46-1.71h3.47c-.05-.52-.18-.92-.4-1.18-.34-.41-.77-.61-1.31-.61-.48,0-.89.16-1.22.49s-.51.76-.55,1.3Z"/>
      <path class="cls-16" d="m167.27,263.54v-6.22h.95v.94c.24-.44.47-.73.67-.87s.43-.21.68-.21c.36,0,.72.11,1.08.34l-.36.98c-.26-.15-.52-.23-.77-.23-.23,0-.44.07-.62.21s-.31.33-.39.58c-.12.38-.18.79-.18,1.23v3.26h-1.05Z"/>
      <path class="cls-16" d="m173.59,262.59l.15.93c-.3.06-.56.09-.8.09-.38,0-.68-.06-.89-.18s-.36-.28-.45-.48-.13-.61-.13-1.25v-3.58h-.77v-.82h.77v-1.54l1.05-.63v2.17h1.06v.82h-1.06v3.64c0,.3.02.49.06.58s.1.15.18.21.2.08.36.08c.12,0,.27-.01.46-.04Z"/>
      <path class="cls-16" d="m182.06,263.54v-.91c-.48.7-1.14,1.05-1.97,1.05-.37,0-.71-.07-1.03-.21s-.55-.32-.71-.53-.26-.47-.33-.78c-.04-.21-.06-.54-.06-.98v-3.86h1.05v3.45c0,.55.02.92.06,1.11.07.28.21.5.42.65s.48.24.8.24.61-.08.89-.24.47-.38.59-.66.17-.68.17-1.22v-3.33h1.05v6.22h-.94Z"/>
      <path class="cls-16" d="m184.67,263.54v-6.22h.95v.88c.46-.68,1.12-1.03,1.98-1.03.38,0,.72.07,1.03.2s.55.31.71.53.27.48.33.78c.04.2.06.54.06,1.03v3.83h-1.05v-3.79c0-.43-.04-.75-.12-.96s-.23-.38-.44-.51-.45-.19-.74-.19c-.45,0-.84.14-1.16.43s-.49.83-.49,1.62v3.4h-1.05Z"/>
      <path class="cls-16" d="m195.39,263.54v-.79c-.39.62-.97.93-1.74.93-.5,0-.95-.14-1.37-.41s-.74-.66-.97-1.15-.34-1.05-.34-1.69.1-1.18.31-1.69.52-.89.93-1.16.88-.4,1.39-.4c.38,0,.71.08,1,.24s.53.36.71.62v-3.08h1.05v8.59h-.98Zm-3.33-3.11c0,.8.17,1.39.5,1.79s.73.59,1.19.59.85-.19,1.17-.57.48-.95.48-1.73c0-.85-.16-1.48-.49-1.88s-.73-.6-1.21-.6-.86.19-1.17.57-.47.99-.47,1.81Z"/>
      <path class="cls-16" d="m205.65,261.53l1.09.13c-.17.64-.49,1.13-.96,1.48s-1.06.53-1.78.53c-.91,0-1.63-.28-2.17-.84s-.8-1.35-.8-2.36.27-1.86.81-2.44,1.24-.87,2.1-.87,1.51.28,2.04.85.79,1.36.79,2.39c0,.06,0,.16,0,.28h-4.64c.04.68.23,1.21.58,1.57s.78.54,1.3.54c.39,0,.72-.1.99-.3s.49-.53.65-.97Zm-3.46-1.71h3.47c-.05-.52-.18-.92-.4-1.18-.34-.41-.77-.61-1.31-.61-.48,0-.89.16-1.22.49s-.51.76-.55,1.3Z"/>
      <path class="cls-16" d="m208.08,256.16v-1.21h1.05v1.21h-1.05Zm0,7.38v-6.22h1.05v6.22h-1.05Z"/>
      <path class="cls-16" d="m210.75,263.54v-6.22h.95v.88c.46-.68,1.12-1.03,1.98-1.03.38,0,.72.07,1.03.2s.55.31.71.53.27.48.33.78c.04.2.06.54.06,1.03v3.83h-1.05v-3.79c0-.43-.04-.75-.12-.96s-.23-.38-.44-.51-.45-.19-.74-.19c-.45,0-.84.14-1.16.43s-.49.83-.49,1.62v3.4h-1.05Z"/>
      <path class="cls-16" d="m221.7,261.53l1.09.13c-.17.64-.49,1.13-.96,1.48s-1.06.53-1.78.53c-.91,0-1.63-.28-2.17-.84s-.8-1.35-.8-2.36.27-1.86.81-2.44,1.24-.87,2.1-.87,1.51.28,2.04.85.79,1.36.79,2.39c0,.06,0,.16,0,.28h-4.64c.04.68.23,1.21.58,1.57s.78.54,1.3.54c.39,0,.72-.1.99-.3s.49-.53.65-.97Zm-3.46-1.71h3.47c-.05-.52-.18-.92-.4-1.18-.34-.41-.77-.61-1.31-.61-.48,0-.89.16-1.22.49s-.51.76-.55,1.3Z"/>
      <path class="cls-16" d="m227.55,263.54v-8.59h3.22c.66,0,1.18.09,1.58.26s.71.44.93.8.34.74.34,1.13c0,.37-.1.71-.3,1.04s-.5.59-.9.79c.52.15.92.41,1.2.78s.42.8.42,1.3c0,.4-.08.78-.25,1.12s-.38.61-.63.8-.56.33-.94.42-.84.14-1.39.14h-3.28Zm1.14-4.98h1.86c.5,0,.87-.03,1.08-.1.29-.09.51-.23.65-.43s.22-.45.22-.75c0-.29-.07-.54-.21-.75s-.33-.37-.59-.45-.69-.12-1.31-.12h-1.72v2.6Zm0,3.97h2.14c.37,0,.62-.01.77-.04.26-.05.48-.12.66-.23s.32-.27.43-.48.17-.45.17-.72c0-.32-.08-.6-.25-.83s-.39-.4-.68-.5-.71-.14-1.26-.14h-1.99v2.95Z"/>
      <path class="cls-16" d="m239.74,261.53l1.09.13c-.17.64-.49,1.13-.96,1.48s-1.06.53-1.78.53c-.91,0-1.63-.28-2.17-.84s-.8-1.35-.8-2.36.27-1.86.81-2.44,1.24-.87,2.1-.87,1.51.28,2.04.85.79,1.36.79,2.39c0,.06,0,.16,0,.28h-4.64c.04.68.23,1.21.58,1.57s.78.54,1.3.54c.39,0,.72-.1.99-.3s.49-.53.65-.97Zm-3.46-1.71h3.47c-.05-.52-.18-.92-.4-1.18-.34-.41-.77-.61-1.31-.61-.48,0-.89.16-1.22.49s-.51.76-.55,1.3Z"/>
      <path class="cls-16" d="m246.21,263.54v-.79c-.39.62-.97.93-1.74.93-.5,0-.95-.14-1.37-.41s-.74-.66-.97-1.15-.34-1.05-.34-1.69.1-1.18.31-1.69.52-.89.93-1.16.88-.4,1.39-.4c.38,0,.71.08,1,.24s.53.36.71.62v-3.08h1.05v8.59h-.98Zm-3.33-3.11c0,.8.17,1.39.5,1.79s.73.59,1.19.59.85-.19,1.17-.57.48-.95.48-1.73c0-.85-.16-1.48-.49-1.88s-.73-.6-1.21-.6-.86.19-1.17.57-.47.99-.47,1.81Z"/>
      <path class="cls-16" d="m253.11,261.53l1.09.13c-.17.64-.49,1.13-.96,1.48s-1.06.53-1.78.53c-.91,0-1.63-.28-2.17-.84s-.8-1.35-.8-2.36.27-1.86.81-2.44,1.24-.87,2.1-.87,1.51.28,2.04.85.79,1.36.79,2.39c0,.06,0,.16,0,.28h-4.64c.04.68.23,1.21.58,1.57s.78.54,1.3.54c.39,0,.72-.1.99-.3s.49-.53.65-.97Zm-3.46-1.71h3.47c-.05-.52-.18-.92-.4-1.18-.34-.41-.77-.61-1.31-.61-.48,0-.89.16-1.22.49s-.51.76-.55,1.3Z"/>
      <path class="cls-16" d="m259.62,263.54v-.91c-.48.7-1.14,1.05-1.97,1.05-.37,0-.71-.07-1.03-.21s-.55-.32-.71-.53-.26-.47-.33-.78c-.04-.21-.06-.54-.06-.98v-3.86h1.05v3.45c0,.55.02.92.06,1.11.07.28.21.5.42.65s.48.24.8.24.61-.08.89-.24.47-.38.59-.66.17-.68.17-1.22v-3.33h1.05v6.22h-.94Z"/>
      <path class="cls-16" d="m264.53,262.59l.15.93c-.3.06-.56.09-.8.09-.38,0-.68-.06-.89-.18s-.36-.28-.45-.48-.13-.61-.13-1.25v-3.58h-.77v-.82h.77v-1.54l1.05-.63v2.17h1.06v.82h-1.06v3.64c0,.3.02.49.06.58s.1.15.18.21.2.08.36.08c.12,0,.27-.01.46-.04Z"/>
      <path class="cls-16" d="m269.65,263.54v-.91c-.48.7-1.14,1.05-1.97,1.05-.37,0-.71-.07-1.03-.21s-.55-.32-.71-.53-.26-.47-.33-.78c-.04-.21-.06-.54-.06-.98v-3.86h1.05v3.45c0,.55.02.92.06,1.11.07.28.21.5.42.65s.48.24.8.24.61-.08.89-.24.47-.38.59-.66.17-.68.17-1.22v-3.33h1.05v6.22h-.94Z"/>
      <path class="cls-16" d="m272.26,263.54v-6.22h.95v.88c.46-.68,1.12-1.03,1.98-1.03.38,0,.72.07,1.03.2s.55.31.71.53.27.48.33.78c.04.2.06.54.06,1.03v3.83h-1.05v-3.79c0-.43-.04-.75-.12-.96s-.23-.38-.44-.51-.45-.19-.74-.19c-.45,0-.84.14-1.16.43s-.49.83-.49,1.62v3.4h-1.05Z"/>
      <path class="cls-16" d="m278.75,264.05l1.03.15c.04.32.16.55.36.69.26.2.62.29,1.07.29.49,0,.87-.1,1.13-.29s.45-.47.54-.82c.05-.21.08-.67.08-1.35-.46.54-1.04.81-1.72.81-.86,0-1.52-.31-1.99-.93s-.7-1.36-.7-2.22c0-.59.11-1.14.32-1.64s.53-.89.93-1.16.89-.41,1.44-.41c.73,0,1.34.3,1.82.89v-.75h.97v5.38c0,.97-.1,1.66-.3,2.06s-.51.72-.94.96-.95.35-1.58.35c-.74,0-1.34-.17-1.8-.5s-.68-.84-.66-1.51Zm.87-3.74c0,.82.16,1.41.49,1.79s.73.56,1.22.56.89-.19,1.22-.56.49-.96.49-1.75-.17-1.34-.51-1.72-.75-.58-1.22-.58-.87.19-1.2.57-.49.95-.49,1.7Z"/>
      <path class="cls-16" d="m43.42,281.54v-8.59h1.05v4.9l2.5-2.53h1.37l-2.38,2.31,2.62,3.91h-1.3l-2.06-3.18-.74.71v2.47h-1.05Z"/>
      <path class="cls-16" d="m53.48,280.77c-.39.33-.77.57-1.13.7s-.75.21-1.16.21c-.68,0-1.21-.17-1.58-.5s-.55-.76-.55-1.28c0-.3.07-.58.21-.83s.32-.45.54-.61.48-.27.76-.35c.21-.05.52-.11.94-.16.85-.1,1.48-.22,1.88-.36,0-.14,0-.24,0-.28,0-.43-.1-.73-.3-.91-.27-.24-.67-.36-1.2-.36-.5,0-.86.09-1.1.26s-.41.48-.52.92l-1.03-.14c.09-.44.25-.8.46-1.07s.53-.48.93-.63.88-.22,1.41-.22.96.06,1.29.19.58.28.73.47.27.43.33.72c.04.18.05.5.05.97v1.41c0,.98.02,1.6.07,1.86s.13.51.27.75h-1.1c-.11-.22-.18-.47-.21-.77Zm-.09-2.36c-.38.16-.96.29-1.72.4-.43.06-.74.13-.92.21s-.32.19-.42.34-.15.32-.15.5c0,.28.11.52.32.7s.52.28.93.28.77-.09,1.08-.27.55-.42.7-.73c.11-.24.17-.59.17-1.05v-.39Z"/>
      <path class="cls-16" d="m56.11,281.54v-6.22h.95v.88c.46-.68,1.12-1.03,1.98-1.03.38,0,.72.07,1.03.2s.55.31.71.53.27.48.33.78c.04.2.06.54.06,1.03v3.83h-1.05v-3.79c0-.43-.04-.75-.12-.96s-.23-.38-.44-.51-.45-.19-.74-.19c-.45,0-.84.14-1.16.43s-.49.83-.49,1.62v3.4h-1.05Z"/>
      <path class="cls-16" d="m62.79,281.54v-6.22h.95v.88c.46-.68,1.12-1.03,1.98-1.03.38,0,.72.07,1.03.2s.55.31.71.53.27.48.33.78c.04.2.06.54.06,1.03v3.83h-1.05v-3.79c0-.43-.04-.75-.12-.96s-.23-.38-.44-.51-.45-.19-.74-.19c-.45,0-.84.14-1.16.43s-.49.83-.49,1.62v3.4h-1.05Z"/>
      <path class="cls-16" d="m72.27,281.54v-.86l3.96-4.55c-.45.02-.85.04-1.19.04h-2.54v-.86h5.09v.7l-3.37,3.95-.65.72c.47-.04.92-.05,1.33-.05h2.88v.91h-5.51Z"/>
      <path class="cls-16" d="m82.92,281.54v-.91c-.48.7-1.14,1.05-1.97,1.05-.37,0-.71-.07-1.03-.21s-.55-.32-.71-.53-.26-.47-.33-.78c-.04-.21-.06-.54-.06-.98v-3.86h1.05v3.45c0,.55.02.92.06,1.11.07.28.21.5.42.65s.48.24.8.24.61-.08.89-.24.47-.38.59-.66.17-.68.17-1.22v-3.33h1.05v6.22h-.94Z"/>
      <path class="cls-16" d="m85.33,282.05l1.03.15c.04.32.16.55.36.69.26.2.62.29,1.07.29.49,0,.87-.1,1.13-.29s.45-.47.54-.82c.05-.21.08-.67.08-1.35-.46.54-1.04.81-1.72.81-.86,0-1.52-.31-1.99-.93s-.7-1.36-.7-2.22c0-.59.11-1.14.32-1.64s.53-.89.93-1.16.89-.41,1.44-.41c.73,0,1.34.3,1.82.89v-.75h.97v5.38c0,.97-.1,1.66-.3,2.06s-.51.72-.94.96-.95.35-1.58.35c-.74,0-1.34-.17-1.8-.5s-.68-.84-.66-1.51Zm.87-3.74c0,.82.16,1.41.49,1.79s.73.56,1.22.56.89-.19,1.22-.56.49-.96.49-1.75-.17-1.34-.51-1.72-.75-.58-1.22-.58-.87.19-1.2.57-.49.95-.49,1.7Z"/>
      <path class="cls-16" d="m96.47,279.53l1.09.13c-.17.64-.49,1.13-.96,1.48s-1.06.53-1.78.53c-.91,0-1.63-.28-2.17-.84s-.8-1.35-.8-2.36.27-1.86.81-2.44,1.24-.87,2.1-.87,1.51.28,2.04.85.79,1.36.79,2.39c0,.06,0,.16,0,.28h-4.64c.04.68.23,1.21.58,1.57s.78.54,1.3.54c.39,0,.72-.1.99-.3s.49-.53.65-.97Zm-3.46-1.71h3.47c-.05-.52-.18-.92-.4-1.18-.34-.41-.77-.61-1.31-.61-.48,0-.89.16-1.22.49s-.51.76-.55,1.3Z"/>
      <path class="cls-16" d="m100.04,281.54l-1.9-6.22h1.09l.99,3.59.37,1.34c.02-.07.12-.49.32-1.28l.99-3.64h1.08l.93,3.61.31,1.19.36-1.2,1.07-3.6h1.03l-1.95,6.22h-1.1l-.99-3.73-.24-1.06-1.26,4.79h-1.1Z"/>
      <path class="cls-16" d="m107.58,274.16v-1.21h1.05v1.21h-1.05Zm0,7.38v-6.22h1.05v6.22h-1.05Z"/>
      <path class="cls-16" d="m114.51,279.53l1.09.13c-.17.64-.49,1.13-.96,1.48s-1.06.53-1.78.53c-.91,0-1.63-.28-2.17-.84s-.8-1.35-.8-2.36.27-1.86.81-2.44,1.24-.87,2.1-.87,1.51.28,2.04.85.79,1.36.79,2.39c0,.06,0,.16,0,.28h-4.64c.04.68.23,1.21.58,1.57s.78.54,1.3.54c.39,0,.72-.1.99-.3s.49-.53.65-.97Zm-3.46-1.71h3.47c-.05-.52-.18-.92-.4-1.18-.34-.41-.77-.61-1.31-.61-.48,0-.89.16-1.22.49s-.51.76-.55,1.3Z"/>
      <path class="cls-16" d="m116.51,279.68l1.04-.16c.06.42.22.74.49.96s.64.33,1.12.33.84-.1,1.08-.3.35-.43.35-.69c0-.24-.1-.43-.31-.56-.14-.09-.5-.21-1.08-.36-.77-.2-1.31-.36-1.61-.51s-.53-.34-.68-.59-.23-.53-.23-.83c0-.28.06-.53.19-.77s.3-.43.52-.59c.16-.12.39-.22.67-.31s.59-.13.91-.13c.49,0,.92.07,1.29.21s.64.33.82.57.3.56.36.96l-1.03.14c-.05-.32-.18-.57-.41-.75s-.54-.27-.95-.27c-.48,0-.83.08-1.04.24s-.31.35-.31.56c0,.14.04.26.13.37.09.11.22.21.4.28.11.04.42.13.93.27.75.2,1.27.36,1.56.49s.53.31.69.55.25.54.25.9-.1.68-.31.99-.5.55-.89.72-.82.25-1.31.25c-.81,0-1.42-.17-1.85-.5s-.69-.83-.81-1.49Z"/>
      <path class="cls-16" d="m127.21,279.53l1.09.13c-.17.64-.49,1.13-.96,1.48s-1.06.53-1.78.53c-.91,0-1.63-.28-2.17-.84s-.8-1.35-.8-2.36.27-1.86.81-2.44,1.24-.87,2.1-.87,1.51.28,2.04.85.79,1.36.79,2.39c0,.06,0,.16,0,.28h-4.64c.04.68.23,1.21.58,1.57s.78.54,1.3.54c.39,0,.72-.1.99-.3s.49-.53.65-.97Zm-3.46-1.71h3.47c-.05-.52-.18-.92-.4-1.18-.34-.41-.77-.61-1.31-.61-.48,0-.89.16-1.22.49s-.51.76-.55,1.3Z"/>
      <path class="cls-16" d="m129.63,281.54v-6.22h.95v.88c.46-.68,1.12-1.03,1.98-1.03.38,0,.72.07,1.03.2s.55.31.71.53.27.48.33.78c.04.2.06.54.06,1.03v3.83h-1.05v-3.79c0-.43-.04-.75-.12-.96s-.23-.38-.44-.51-.45-.19-.74-.19c-.45,0-.84.14-1.16.43s-.49.83-.49,1.62v3.4h-1.05Z"/>
      <path class="cls-16" d="m140.81,281.54l-1.9-6.22h1.09l.99,3.59.37,1.34c.02-.07.12-.49.32-1.28l.99-3.64h1.08l.93,3.61.31,1.19.36-1.2,1.07-3.6h1.03l-1.95,6.22h-1.1l-.99-3.73-.24-1.06-1.26,4.79h-1.1Z"/>
      <path class="cls-16" d="m152.6,279.53l1.09.13c-.17.64-.49,1.13-.96,1.48s-1.06.53-1.78.53c-.91,0-1.63-.28-2.17-.84s-.8-1.35-.8-2.36.27-1.86.81-2.44,1.24-.87,2.1-.87,1.51.28,2.04.85.79,1.36.79,2.39c0,.06,0,.16,0,.28h-4.64c.04.68.23,1.21.58,1.57s.78.54,1.3.54c.39,0,.72-.1.99-.3s.49-.53.65-.97Zm-3.46-1.71h3.47c-.05-.52-.18-.92-.4-1.18-.34-.41-.77-.61-1.31-.61-.48,0-.89.16-1.22.49s-.51.76-.55,1.3Z"/>
      <path class="cls-16" d="m155.02,281.54v-6.22h.95v.94c.24-.44.47-.73.67-.87s.43-.21.68-.21c.36,0,.72.11,1.08.34l-.36.98c-.26-.15-.52-.23-.77-.23-.23,0-.44.07-.62.21s-.31.33-.39.58c-.12.38-.18.79-.18,1.23v3.26h-1.05Z"/>
      <path class="cls-16" d="m163.07,281.54v-.79c-.39.62-.97.93-1.74.93-.5,0-.95-.14-1.37-.41s-.74-.66-.97-1.15-.34-1.05-.34-1.69.1-1.18.31-1.69.52-.89.93-1.16.88-.4,1.39-.4c.38,0,.71.08,1,.24s.53.36.71.62v-3.08h1.05v8.59h-.98Zm-3.33-3.11c0,.8.17,1.39.5,1.79s.73.59,1.19.59.85-.19,1.17-.57.48-.95.48-1.73c0-.85-.16-1.48-.49-1.88s-.73-.6-1.21-.6-.86.19-1.17.57-.47.99-.47,1.81Z"/>
      <path class="cls-16" d="m169.98,279.53l1.09.13c-.17.64-.49,1.13-.96,1.48s-1.06.53-1.78.53c-.91,0-1.63-.28-2.17-.84s-.8-1.35-.8-2.36.27-1.86.81-2.44,1.24-.87,2.1-.87,1.51.28,2.04.85.79,1.36.79,2.39c0,.06,0,.16,0,.28h-4.64c.04.68.23,1.21.58,1.57s.78.54,1.3.54c.39,0,.72-.1.99-.3s.49-.53.65-.97Zm-3.46-1.71h3.47c-.05-.52-.18-.92-.4-1.18-.34-.41-.77-.61-1.31-.61-.48,0-.89.16-1.22.49s-.51.76-.55,1.3Z"/>
      <path class="cls-16" d="m172.41,281.54v-6.22h.95v.88c.46-.68,1.12-1.03,1.98-1.03.38,0,.72.07,1.03.2s.55.31.71.53.27.48.33.78c.04.2.06.54.06,1.03v3.83h-1.05v-3.79c0-.43-.04-.75-.12-.96s-.23-.38-.44-.51-.45-.19-.74-.19c-.45,0-.84.14-1.16.43s-.49.83-.49,1.62v3.4h-1.05Z"/>
      <path class="cls-16" d="m184.46,284.06c-.58-.73-1.07-1.59-1.48-2.58s-.6-2-.6-3.06c0-.93.15-1.82.45-2.67.35-.99.89-1.97,1.63-2.95h.76c-.47.81-.79,1.39-.94,1.74-.24.54-.43,1.1-.56,1.69-.17.73-.25,1.46-.25,2.2,0,1.88.58,3.76,1.75,5.63h-.76Z"/>
      <path class="cls-16" d="m186.78,281.54v-8.59h1.14v8.59h-1.14Z"/>
      <path class="cls-16" d="m189.79,281.54v-6.22h.95v.88c.46-.68,1.12-1.03,1.98-1.03.38,0,.72.07,1.03.2s.55.31.71.53.27.48.33.78c.04.2.06.54.06,1.03v3.83h-1.05v-3.79c0-.43-.04-.75-.12-.96s-.23-.38-.44-.51-.45-.19-.74-.19c-.45,0-.84.14-1.16.43s-.49.83-.49,1.62v3.4h-1.05Z"/>
      <path class="cls-16" d="m196.73,281.54v-5.4h-.93v-.82h.93v-.66c0-.42.04-.73.11-.93.1-.27.28-.5.54-.67s.61-.25,1.08-.25c.3,0,.62.04.98.11l-.16.92c-.22-.04-.43-.06-.62-.06-.32,0-.55.07-.68.21s-.2.39-.2.77v.57h1.21v.82h-1.21v5.4h-1.05Z"/>
      <path class="cls-16" d="m199.43,278.42c0-1.15.32-2.01.96-2.56.54-.46,1.19-.69,1.96-.69.86,0,1.55.28,2.1.84s.81,1.33.81,2.32c0,.8-.12,1.43-.36,1.89s-.59.82-1.05,1.07-.96.38-1.5.38c-.87,0-1.58-.28-2.11-.84s-.81-1.36-.81-2.41Zm1.08,0c0,.8.17,1.39.52,1.79s.79.59,1.31.59.96-.2,1.31-.6.52-1.01.52-1.82c0-.77-.17-1.35-.52-1.75s-.78-.59-1.3-.59-.96.2-1.31.59-.52.99-.52,1.79Z"/>
      <path class="cls-16" d="m206.5,281.54v-6.22h.95v.94c.24-.44.47-.73.67-.87s.43-.21.68-.21c.36,0,.72.11,1.08.34l-.36.98c-.26-.15-.52-.23-.77-.23-.23,0-.44.07-.62.21s-.31.33-.39.58c-.12.38-.18.79-.18,1.23v3.26h-1.05Z"/>
      <path class="cls-16" d="m210.52,281.54v-6.22h.94v.87c.2-.3.46-.55.78-.74s.69-.28,1.11-.28c.46,0,.84.1,1.13.29s.5.46.62.8c.49-.73,1.13-1.09,1.92-1.09.62,0,1.09.17,1.42.51s.5.87.5,1.58v4.27h-1.05v-3.92c0-.42-.03-.73-.1-.91s-.19-.33-.37-.45-.39-.17-.63-.17c-.44,0-.8.15-1.09.44s-.43.76-.43,1.4v3.62h-1.05v-4.04c0-.47-.09-.82-.26-1.05s-.45-.35-.84-.35c-.3,0-.57.08-.82.23s-.43.38-.55.69-.17.73-.17,1.3v3.23h-1.05Z"/>
      <path class="cls-16" d="m224.59,280.77c-.39.33-.77.57-1.13.7s-.75.21-1.16.21c-.68,0-1.21-.17-1.58-.5s-.55-.76-.55-1.28c0-.3.07-.58.21-.83s.32-.45.54-.61.48-.27.76-.35c.21-.05.52-.11.94-.16.85-.1,1.48-.22,1.88-.36,0-.14,0-.24,0-.28,0-.43-.1-.73-.3-.91-.27-.24-.67-.36-1.2-.36-.5,0-.86.09-1.1.26s-.41.48-.52.92l-1.03-.14c.09-.44.25-.8.46-1.07s.53-.48.93-.63.88-.22,1.41-.22.96.06,1.29.19.58.28.73.47.27.43.33.72c.04.18.05.5.05.97v1.41c0,.98.02,1.6.07,1.86s.13.51.27.75h-1.1c-.11-.22-.18-.47-.21-.77Zm-.09-2.36c-.38.16-.96.29-1.72.4-.43.06-.74.13-.92.21s-.32.19-.42.34-.15.32-.15.5c0,.28.11.52.32.7s.52.28.93.28.77-.09,1.08-.27.55-.42.7-.73c.11-.24.17-.59.17-1.05v-.39Z"/>
      <path class="cls-16" d="m229.52,280.59l.15.93c-.3.06-.56.09-.8.09-.38,0-.68-.06-.89-.18s-.36-.28-.45-.48-.13-.61-.13-1.25v-3.58h-.77v-.82h.77v-1.54l1.05-.63v2.17h1.06v.82h-1.06v3.64c0,.3.02.49.06.58s.1.15.18.21.2.08.36.08c.12,0,.27-.01.46-.04Z"/>
      <path class="cls-16" d="m230.57,274.16v-1.21h1.05v1.21h-1.05Zm0,7.38v-6.22h1.05v6.22h-1.05Z"/>
      <path class="cls-16" d="m232.85,278.42c0-1.15.32-2.01.96-2.56.54-.46,1.19-.69,1.96-.69.86,0,1.55.28,2.1.84s.81,1.33.81,2.32c0,.8-.12,1.43-.36,1.89s-.59.82-1.05,1.07-.96.38-1.5.38c-.87,0-1.58-.28-2.11-.84s-.81-1.36-.81-2.41Zm1.08,0c0,.8.17,1.39.52,1.79s.79.59,1.31.59.96-.2,1.31-.6.52-1.01.52-1.82c0-.77-.17-1.35-.52-1.75s-.78-.59-1.3-.59-.96.2-1.31.59-.52.99-.52,1.79Z"/>
      <path class="cls-16" d="m239.92,281.54v-6.22h.95v.88c.46-.68,1.12-1.03,1.98-1.03.38,0,.72.07,1.03.2s.55.31.71.53.27.48.33.78c.04.2.06.54.06,1.03v3.83h-1.05v-3.79c0-.43-.04-.75-.12-.96s-.23-.38-.44-.51-.45-.19-.74-.19c-.45,0-.84.14-1.16.43s-.49.83-.49,1.62v3.4h-1.05Z"/>
      <path class="cls-16" d="m250.87,279.53l1.09.13c-.17.64-.49,1.13-.96,1.48s-1.06.53-1.78.53c-.91,0-1.63-.28-2.17-.84s-.8-1.35-.8-2.36.27-1.86.81-2.44,1.24-.87,2.1-.87,1.51.28,2.04.85.79,1.36.79,2.39c0,.06,0,.16,0,.28h-4.64c.04.68.23,1.21.58,1.57s.78.54,1.3.54c.39,0,.72-.1.99-.3s.49-.53.65-.97Zm-3.46-1.71h3.47c-.05-.52-.18-.92-.4-1.18-.34-.41-.77-.61-1.31-.61-.48,0-.89.16-1.22.49s-.51.76-.55,1.3Z"/>
      <path class="cls-16" d="m253.3,281.54v-6.22h.95v.88c.46-.68,1.12-1.03,1.98-1.03.38,0,.72.07,1.03.2s.55.31.71.53.27.48.33.78c.04.2.06.54.06,1.03v3.83h-1.05v-3.79c0-.43-.04-.75-.12-.96s-.23-.38-.44-.51-.45-.19-.74-.19c-.45,0-.84.14-1.16.43s-.49.83-.49,1.62v3.4h-1.05Z"/>
      <path class="cls-16" d="m263.15,279.68l1.04-.16c.06.42.22.74.49.96s.64.33,1.12.33.84-.1,1.08-.3.35-.43.35-.69c0-.24-.1-.43-.31-.56-.14-.09-.5-.21-1.08-.36-.77-.2-1.31-.36-1.61-.51s-.53-.34-.68-.59-.23-.53-.23-.83c0-.28.06-.53.19-.77s.3-.43.52-.59c.16-.12.39-.22.67-.31s.59-.13.91-.13c.49,0,.92.07,1.29.21s.64.33.82.57.3.56.36.96l-1.03.14c-.05-.32-.18-.57-.41-.75s-.54-.27-.95-.27c-.48,0-.83.08-1.04.24s-.31.35-.31.56c0,.14.04.26.13.37.09.11.22.21.4.28.11.04.42.13.93.27.75.2,1.27.36,1.56.49s.53.31.69.55.25.54.25.9-.1.68-.31.99-.5.55-.89.72-.82.25-1.31.25c-.81,0-1.42-.17-1.85-.5s-.69-.83-.81-1.49Z"/>
      <path class="cls-16" d="m269.59,274.16v-1.21h1.05v1.21h-1.05Zm0,7.38v-6.22h1.05v6.22h-1.05Z"/>
      <path class="cls-16" d="m272.26,281.54v-6.22h.95v.88c.46-.68,1.12-1.03,1.98-1.03.38,0,.72.07,1.03.2s.55.31.71.53.27.48.33.78c.04.2.06.54.06,1.03v3.83h-1.05v-3.79c0-.43-.04-.75-.12-.96s-.23-.38-.44-.51-.45-.19-.74-.19c-.45,0-.84.14-1.16.43s-.49.83-.49,1.62v3.4h-1.05Z"/>
      <path class="cls-16" d="m282.98,281.54v-.79c-.39.62-.97.93-1.74.93-.5,0-.95-.14-1.37-.41s-.74-.66-.97-1.15-.34-1.05-.34-1.69.1-1.18.31-1.69.52-.89.93-1.16.88-.4,1.39-.4c.38,0,.71.08,1,.24s.53.36.71.62v-3.08h1.05v8.59h-.98Zm-3.33-3.11c0,.8.17,1.39.5,1.79s.73.59,1.19.59.85-.19,1.17-.57.48-.95.48-1.73c0-.85-.16-1.48-.49-1.88s-.73-.6-1.21-.6-.86.19-1.17.57-.47.99-.47,1.81Z"/>
      <path class="cls-16" d="m178.67,292.16v-1.21h1.05v1.21h-1.05Zm0,7.38v-6.22h1.05v6.22h-1.05Z"/>
      <path class="cls-16" d="m181.34,299.54v-6.22h.95v.88c.46-.68,1.12-1.03,1.98-1.03.38,0,.72.07,1.03.2s.55.31.71.53.27.48.33.78c.04.2.06.54.06,1.03v3.83h-1.05v-3.79c0-.43-.04-.75-.12-.96s-.23-.38-.44-.51-.45-.19-.74-.19c-.45,0-.84.14-1.16.43s-.49.83-.49,1.62v3.4h-1.05Z"/>
      <path class="cls-16" d="m190.33,298.59l.15.93c-.3.06-.56.09-.8.09-.38,0-.68-.06-.89-.18s-.36-.28-.45-.48-.13-.61-.13-1.25v-3.58h-.77v-.82h.77v-1.54l1.05-.63v2.17h1.06v.82h-1.06v3.64c0,.3.02.49.06.58s.1.15.18.21.2.08.36.08c.12,0,.27-.01.46-.04Z"/>
      <path class="cls-16" d="m195.63,297.53l1.09.13c-.17.64-.49,1.13-.96,1.48s-1.06.53-1.78.53c-.91,0-1.63-.28-2.17-.84s-.8-1.35-.8-2.36.27-1.86.81-2.44,1.24-.87,2.1-.87,1.51.28,2.04.85.79,1.36.79,2.39c0,.06,0,.16,0,.28h-4.64c.04.68.23,1.21.58,1.57s.78.54,1.3.54c.39,0,.72-.1.99-.3s.49-.53.65-.97Zm-3.46-1.71h3.47c-.05-.52-.18-.92-.4-1.18-.34-.41-.77-.61-1.31-.61-.48,0-.89.16-1.22.49s-.51.76-.55,1.3Z"/>
      <path class="cls-16" d="m198.04,299.54v-6.22h.95v.94c.24-.44.47-.73.67-.87s.43-.21.68-.21c.36,0,.72.11,1.08.34l-.36.98c-.26-.15-.52-.23-.77-.23-.23,0-.44.07-.62.21s-.31.33-.39.58c-.12.38-.18.79-.18,1.23v3.26h-1.05Z"/>
      <path class="cls-16" d="m202.06,301.92v-8.61h.96v.81c.23-.32.48-.55.77-.71s.63-.24,1.04-.24c.53,0,1,.14,1.41.41s.71.66.92,1.16.31,1.04.31,1.64c0,.64-.11,1.21-.34,1.72s-.56.9-1,1.17-.89.41-1.37.41c-.35,0-.67-.07-.95-.22s-.51-.34-.69-.56v3.03h-1.05Zm.96-5.46c0,.8.16,1.39.49,1.78s.72.57,1.18.57.87-.2,1.2-.59.5-1.01.5-1.84-.16-1.39-.49-1.78-.72-.59-1.17-.59-.85.21-1.19.63-.52,1.03-.52,1.83Z"/>
      <path class="cls-16" d="m208.74,299.54v-6.22h.95v.94c.24-.44.47-.73.67-.87s.43-.21.68-.21c.36,0,.72.11,1.08.34l-.36.98c-.26-.15-.52-.23-.77-.23-.23,0-.44.07-.62.21s-.31.33-.39.58c-.12.38-.18.79-.18,1.23v3.26h-1.05Z"/>
      <path class="cls-16" d="m217.02,297.53l1.09.13c-.17.64-.49,1.13-.96,1.48s-1.06.53-1.78.53c-.91,0-1.63-.28-2.17-.84s-.8-1.35-.8-2.36.27-1.86.81-2.44,1.24-.87,2.1-.87,1.51.28,2.04.85.79,1.36.79,2.39c0,.06,0,.16,0,.28h-4.64c.04.68.23,1.21.58,1.57s.78.54,1.3.54c.39,0,.72-.1.99-.3s.49-.53.65-.97Zm-3.46-1.71h3.47c-.05-.52-.18-.92-.4-1.18-.34-.41-.77-.61-1.31-.61-.48,0-.89.16-1.22.49s-.51.76-.55,1.3Z"/>
      <path class="cls-16" d="m221.75,298.59l.15.93c-.3.06-.56.09-.8.09-.38,0-.68-.06-.89-.18s-.36-.28-.45-.48-.13-.61-.13-1.25v-3.58h-.77v-.82h.77v-1.54l1.05-.63v2.17h1.06v.82h-1.06v3.64c0,.3.02.49.06.58s.1.15.18.21.2.08.36.08c.12,0,.27-.01.46-.04Z"/>
      <path class="cls-16" d="m222.8,292.16v-1.21h1.05v1.21h-1.05Zm0,7.38v-6.22h1.05v6.22h-1.05Z"/>
      <path class="cls-16" d="m229.73,297.53l1.09.13c-.17.64-.49,1.13-.96,1.48s-1.06.53-1.78.53c-.91,0-1.63-.28-2.17-.84s-.8-1.35-.8-2.36.27-1.86.81-2.44,1.24-.87,2.1-.87,1.51.28,2.04.85.79,1.36.79,2.39c0,.06,0,.16,0,.28h-4.64c.04.68.23,1.21.58,1.57s.78.54,1.3.54c.39,0,.72-.1.99-.3s.49-.53.65-.97Zm-3.46-1.71h3.47c-.05-.52-.18-.92-.4-1.18-.34-.41-.77-.61-1.31-.61-.48,0-.89.16-1.22.49s-.51.76-.55,1.3Z"/>
      <path class="cls-16" d="m232.14,299.54v-6.22h.95v.94c.24-.44.47-.73.67-.87s.43-.21.68-.21c.36,0,.72.11,1.08.34l-.36.98c-.26-.15-.52-.23-.77-.23-.23,0-.44.07-.62.21s-.31.33-.39.58c-.12.38-.18.79-.18,1.23v3.26h-1.05Z"/>
      <path class="cls-16" d="m238.46,298.59l.15.93c-.3.06-.56.09-.8.09-.38,0-.68-.06-.89-.18s-.36-.28-.45-.48-.13-.61-.13-1.25v-3.58h-.77v-.82h.77v-1.54l1.05-.63v2.17h1.06v.82h-1.06v3.64c0,.3.02.49.06.58s.1.15.18.21.2.08.36.08c.12,0,.27-.01.46-.04Z"/>
      <path class="cls-16" d="m243.77,297.53l1.09.13c-.17.64-.49,1.13-.96,1.48s-1.06.53-1.78.53c-.91,0-1.63-.28-2.17-.84s-.8-1.35-.8-2.36.27-1.86.81-2.44,1.24-.87,2.1-.87,1.51.28,2.04.85.79,1.36.79,2.39c0,.06,0,.16,0,.28h-4.64c.04.68.23,1.21.58,1.57s.78.54,1.3.54c.39,0,.72-.1.99-.3s.49-.53.65-.97Zm-3.46-1.71h3.47c-.05-.52-.18-.92-.4-1.18-.34-.41-.77-.61-1.31-.61-.48,0-.89.16-1.22.49s-.51.76-.55,1.3Z"/>
      <path class="cls-16" d="m249.67,299.54v-8.59h2.96c.67,0,1.18.04,1.53.12.49.11.91.32,1.26.62.45.38.79.87,1.02,1.47s.34,1.28.34,2.04c0,.65-.08,1.23-.23,1.73s-.35.92-.59,1.25-.5.59-.78.78-.62.33-1.03.43-.86.15-1.38.15h-3.1Zm1.14-1.01h1.83c.57,0,1.01-.05,1.33-.16s.58-.25.77-.45c.27-.27.48-.63.63-1.09s.23-1.01.23-1.66c0-.9-.15-1.59-.44-2.07s-.65-.81-1.08-.97c-.3-.12-.79-.18-1.47-.18h-1.8v6.56Z"/>
      <path class="cls-16" d="m262.28,298.77c-.39.33-.77.57-1.13.7s-.75.21-1.16.21c-.68,0-1.21-.17-1.58-.5s-.55-.76-.55-1.28c0-.3.07-.58.21-.83s.32-.45.54-.61.48-.27.76-.35c.21-.05.52-.11.94-.16.85-.1,1.48-.22,1.88-.36,0-.14,0-.24,0-.28,0-.43-.1-.73-.3-.91-.27-.24-.67-.36-1.2-.36-.5,0-.86.09-1.1.26s-.41.48-.52.92l-1.03-.14c.09-.44.25-.8.46-1.07s.53-.48.93-.63.88-.22,1.41-.22.96.06,1.29.19.58.28.73.47.27.43.33.72c.04.18.05.5.05.97v1.41c0,.98.02,1.6.07,1.86s.13.51.27.75h-1.1c-.11-.22-.18-.47-.21-.77Zm-.09-2.36c-.38.16-.96.29-1.72.4-.43.06-.74.13-.92.21s-.32.19-.42.34-.15.32-.15.5c0,.28.11.52.32.7s.52.28.93.28.77-.09,1.08-.27.55-.42.7-.73c.11-.24.17-.59.17-1.05v-.39Z"/>
      <path class="cls-16" d="m267.21,298.59l.15.93c-.3.06-.56.09-.8.09-.38,0-.68-.06-.89-.18s-.36-.28-.45-.48-.13-.61-.13-1.25v-3.58h-.77v-.82h.77v-1.54l1.05-.63v2.17h1.06v.82h-1.06v3.64c0,.3.02.49.06.58s.1.15.18.21.2.08.36.08c.12,0,.27-.01.46-.04Z"/>
      <path class="cls-16" d="m272.51,297.53l1.09.13c-.17.64-.49,1.13-.96,1.48s-1.06.53-1.78.53c-.91,0-1.63-.28-2.17-.84s-.8-1.35-.8-2.36.27-1.86.81-2.44,1.24-.87,2.1-.87,1.51.28,2.04.85.79,1.36.79,2.39c0,.06,0,.16,0,.28h-4.64c.04.68.23,1.21.58,1.57s.78.54,1.3.54c.39,0,.72-.1.99-.3s.49-.53.65-.97Zm-3.46-1.71h3.47c-.05-.52-.18-.92-.4-1.18-.34-.41-.77-.61-1.31-.61-.48,0-.89.16-1.22.49s-.51.76-.55,1.3Z"/>
      <path class="cls-16" d="m274.94,299.54v-6.22h.95v.88c.46-.68,1.12-1.03,1.98-1.03.38,0,.72.07,1.03.2s.55.31.71.53.27.48.33.78c.04.2.06.54.06,1.03v3.83h-1.05v-3.79c0-.43-.04-.75-.12-.96s-.23-.38-.44-.51-.45-.19-.74-.19c-.45,0-.84.14-1.16.43s-.49.83-.49,1.62v3.4h-1.05Z"/>
      <path class="cls-16" d="m282.31,302.06h-.76c1.17-1.88,1.75-3.75,1.75-5.63,0-.73-.08-1.46-.25-2.19-.13-.59-.32-1.15-.56-1.69-.15-.35-.47-.94-.94-1.76h.76c.73.98,1.28,1.96,1.63,2.95.3.85.45,1.74.45,2.67,0,1.05-.2,2.07-.61,3.06s-.9,1.84-1.47,2.58Z"/>
    </g>
  </g>
  <g>
    <text class="cls-6" transform="translate(177.29 362.35)"><tspan x="0" y="0">Syntax</tspan></text>
    <g>
      <path class="cls-16" d="m23.97,391.45v-8.59h6.21v1.01h-5.07v2.63h4.75v1.01h-4.75v2.92h5.27v1.01h-6.41Z"/>
      <path class="cls-16" d="m31.83,384.07v-1.21h1.05v1.21h-1.05Zm0,7.38v-6.22h1.05v6.22h-1.05Z"/>
      <path class="cls-16" d="m34.5,391.45v-6.22h.95v.88c.46-.68,1.12-1.03,1.98-1.03.38,0,.72.07,1.03.2s.55.31.71.53.27.48.33.78c.04.2.06.54.06,1.03v3.83h-1.05v-3.79c0-.43-.04-.75-.12-.96s-.23-.38-.44-.51-.45-.19-.74-.19c-.45,0-.84.14-1.16.43s-.49.83-.49,1.62v3.4h-1.05Z"/>
      <path class="cls-16" d="m40.63,391.45v-.86l3.96-4.55c-.45.02-.85.04-1.19.04h-2.54v-.86h5.09v.7l-3.37,3.95-.65.72c.47-.04.92-.05,1.33-.05h2.88v.91h-5.51Z"/>
      <path class="cls-16" d="m51.46,389.45l1.09.13c-.17.64-.49,1.13-.96,1.48s-1.06.53-1.78.53c-.91,0-1.63-.28-2.17-.84s-.8-1.35-.8-2.36.27-1.86.81-2.44,1.24-.87,2.1-.87,1.51.28,2.04.85.79,1.36.79,2.39c0,.06,0,.16,0,.28h-4.64c.04.68.23,1.21.58,1.57s.78.54,1.3.54c.39,0,.72-.1.99-.3s.49-.53.65-.97Zm-3.46-1.71h3.47c-.05-.52-.18-.92-.4-1.18-.34-.41-.77-.61-1.31-.61-.48,0-.89.16-1.22.49s-.51.76-.55,1.3Z"/>
      <path class="cls-16" d="m53.86,391.45v-8.59h1.05v8.59h-1.05Z"/>
      <path class="cls-16" d="m56.56,391.45v-6.22h.95v.88c.46-.68,1.12-1.03,1.98-1.03.38,0,.72.07,1.03.2s.55.31.71.53.27.48.33.78c.04.2.06.54.06,1.03v3.83h-1.05v-3.79c0-.43-.04-.75-.12-.96s-.23-.38-.44-.51-.45-.19-.74-.19c-.45,0-.84.14-1.16.43s-.49.83-.49,1.62v3.4h-1.05Z"/>
      <path class="cls-16" d="m67.51,389.45l1.09.13c-.17.64-.49,1.13-.96,1.48s-1.06.53-1.78.53c-.91,0-1.63-.28-2.17-.84s-.8-1.35-.8-2.36.27-1.86.81-2.44,1.24-.87,2.1-.87,1.51.28,2.04.85.79,1.36.79,2.39c0,.06,0,.16,0,.28h-4.64c.04.68.23,1.21.58,1.57s.78.54,1.3.54c.39,0,.72-.1.99-.3s.49-.53.65-.97Zm-3.46-1.71h3.47c-.05-.52-.18-.92-.4-1.18-.34-.41-.77-.61-1.31-.61-.48,0-.89.16-1.22.49s-.51.76-.55,1.3Z"/>
      <path class="cls-16" d="m72.73,391.45v-1.05l4.4-5.5c.31-.39.61-.73.89-1.02h-4.79v-1.01h6.15v1.01l-4.82,5.96-.52.6h5.48v1.01h-6.79Z"/>
      <path class="cls-16" d="m84.88,389.45l1.09.13c-.17.64-.49,1.13-.96,1.48s-1.06.53-1.78.53c-.91,0-1.63-.28-2.17-.84s-.8-1.35-.8-2.36.27-1.86.81-2.44,1.24-.87,2.1-.87,1.51.28,2.04.85.79,1.36.79,2.39c0,.06,0,.16,0,.28h-4.64c.04.68.23,1.21.58,1.57s.78.54,1.3.54c.39,0,.72-.1.99-.3s.49-.53.65-.97Zm-3.46-1.71h3.47c-.05-.52-.18-.92-.4-1.18-.34-.41-.77-.61-1.31-.61-.48,0-.89.16-1.22.49s-.51.76-.55,1.3Z"/>
      <path class="cls-16" d="m87.31,384.07v-1.21h1.05v1.21h-1.05Zm0,7.38v-6.22h1.05v6.22h-1.05Z"/>
      <path class="cls-16" d="m94.05,389.17l1.04.13c-.11.71-.4,1.27-.87,1.68s-1.04.61-1.72.61c-.85,0-1.54-.28-2.05-.83s-.78-1.35-.78-2.39c0-.67.11-1.26.33-1.76s.56-.88,1.02-1.13.95-.38,1.49-.38c.68,0,1.23.17,1.66.51s.71.83.83,1.46l-1.03.16c-.1-.42-.27-.73-.52-.94s-.55-.32-.9-.32c-.53,0-.96.19-1.29.57s-.5.98-.5,1.81.16,1.44.48,1.82.74.57,1.25.57c.41,0,.76-.13,1.04-.38s.45-.64.53-1.17Z"/>
      <path class="cls-16" d="m96,391.45v-8.59h1.05v3.08c.49-.57,1.11-.86,1.86-.86.46,0,.86.09,1.2.27s.58.43.73.75.22.79.22,1.39v3.94h-1.05v-3.94c0-.53-.11-.91-.34-1.15s-.55-.36-.97-.36c-.31,0-.61.08-.88.24s-.47.38-.59.66-.18.66-.18,1.15v3.4h-1.05Z"/>
      <path class="cls-16" d="m106.94,389.45l1.09.13c-.17.64-.49,1.13-.96,1.48s-1.06.53-1.78.53c-.91,0-1.63-.28-2.17-.84s-.8-1.35-.8-2.36.27-1.86.81-2.44,1.24-.87,2.1-.87,1.51.28,2.04.85.79,1.36.79,2.39c0,.06,0,.16,0,.28h-4.64c.04.68.23,1.21.58,1.57s.78.54,1.3.54c.39,0,.72-.1.99-.3s.49-.53.65-.97Zm-3.46-1.71h3.47c-.05-.52-.18-.92-.4-1.18-.34-.41-.77-.61-1.31-.61-.48,0-.89.16-1.22.49s-.51.76-.55,1.3Z"/>
      <path class="cls-16" d="m109.37,391.45v-6.22h.95v.88c.46-.68,1.12-1.03,1.98-1.03.38,0,.72.07,1.03.2s.55.31.71.53.27.48.33.78c.04.2.06.54.06,1.03v3.83h-1.05v-3.79c0-.43-.04-.75-.12-.96s-.23-.38-.44-.51-.45-.19-.74-.19c-.45,0-.84.14-1.16.43s-.49.83-.49,1.62v3.4h-1.05Z"/>
      <path class="cls-16" d="m120.55,391.45l-1.9-6.22h1.09l.99,3.59.37,1.34c.02-.07.12-.49.32-1.28l.99-3.64h1.08l.93,3.61.31,1.19.36-1.2,1.07-3.6h1.03l-1.95,6.22h-1.1l-.99-3.73-.24-1.06-1.26,4.79h-1.1Z"/>
      <path class="cls-16" d="m132.34,389.45l1.09.13c-.17.64-.49,1.13-.96,1.48s-1.06.53-1.78.53c-.91,0-1.63-.28-2.17-.84s-.8-1.35-.8-2.36.27-1.86.81-2.44,1.24-.87,2.1-.87,1.51.28,2.04.85.79,1.36.79,2.39c0,.06,0,.16,0,.28h-4.64c.04.68.23,1.21.58,1.57s.78.54,1.3.54c.39,0,.72-.1.99-.3s.49-.53.65-.97Zm-3.46-1.71h3.47c-.05-.52-.18-.92-.4-1.18-.34-.41-.77-.61-1.31-.61-.48,0-.89.16-1.22.49s-.51.76-.55,1.3Z"/>
      <path class="cls-16" d="m134.75,391.45v-6.22h.95v.94c.24-.44.47-.73.67-.87s.43-.21.68-.21c.36,0,.72.11,1.08.34l-.36.98c-.26-.15-.52-.23-.77-.23-.23,0-.44.07-.62.21s-.31.33-.39.58c-.12.38-.18.79-.18,1.23v3.26h-1.05Z"/>
      <path class="cls-16" d="m142.81,391.45v-.79c-.39.62-.97.93-1.74.93-.5,0-.95-.14-1.37-.41s-.74-.66-.97-1.15-.34-1.05-.34-1.69.1-1.18.31-1.69.52-.89.93-1.16.88-.4,1.39-.4c.38,0,.71.08,1,.24s.53.36.71.62v-3.08h1.05v8.59h-.98Zm-3.33-3.11c0,.8.17,1.39.5,1.79s.73.59,1.19.59.85-.19,1.17-.57.48-.95.48-1.73c0-.85-.16-1.48-.49-1.88s-.73-.6-1.21-.6-.86.19-1.17.57-.47.99-.47,1.81Z"/>
      <path class="cls-16" d="m149.72,389.45l1.09.13c-.17.64-.49,1.13-.96,1.48s-1.06.53-1.78.53c-.91,0-1.63-.28-2.17-.84s-.8-1.35-.8-2.36.27-1.86.81-2.44,1.24-.87,2.1-.87,1.51.28,2.04.85.79,1.36.79,2.39c0,.06,0,.16,0,.28h-4.64c.04.68.23,1.21.58,1.57s.78.54,1.3.54c.39,0,.72-.1.99-.3s.49-.53.65-.97Zm-3.46-1.71h3.47c-.05-.52-.18-.92-.4-1.18-.34-.41-.77-.61-1.31-.61-.48,0-.89.16-1.22.49s-.51.76-.55,1.3Z"/>
      <path class="cls-16" d="m152.15,391.45v-6.22h.95v.88c.46-.68,1.12-1.03,1.98-1.03.38,0,.72.07,1.03.2s.55.31.71.53.27.48.33.78c.04.2.06.54.06,1.03v3.83h-1.05v-3.79c0-.43-.04-.75-.12-.96s-.23-.38-.44-.51-.45-.19-.74-.19c-.45,0-.84.14-1.16.43s-.49.83-.49,1.62v3.4h-1.05Z"/>
      <path class="cls-16" d="m162.18,391.45v-6.22h.94v.87c.2-.3.46-.55.78-.74s.69-.28,1.11-.28c.46,0,.84.1,1.13.29s.5.46.62.8c.49-.73,1.13-1.09,1.92-1.09.62,0,1.09.17,1.42.51s.5.87.5,1.58v4.27h-1.05v-3.92c0-.42-.03-.73-.1-.91s-.19-.33-.37-.45-.39-.17-.63-.17c-.44,0-.8.15-1.09.44s-.43.76-.43,1.4v3.62h-1.05v-4.04c0-.47-.09-.82-.26-1.05s-.45-.35-.84-.35c-.3,0-.57.08-.82.23s-.43.38-.55.69-.17.73-.17,1.3v3.23h-1.05Z"/>
      <path class="cls-16" d="m172.19,384.07v-1.21h1.05v1.21h-1.05Zm0,7.38v-6.22h1.05v6.22h-1.05Z"/>
      <path class="cls-16" d="m177.17,390.51l.15.93c-.3.06-.56.09-.8.09-.38,0-.68-.06-.89-.18s-.36-.28-.45-.48-.13-.61-.13-1.25v-3.58h-.77v-.82h.77v-1.54l1.05-.63v2.17h1.06v.82h-1.06v3.64c0,.3.02.49.06.58s.1.15.18.21.2.08.36.08c.12,0,.27-.01.46-.04Z"/>
      <path class="cls-16" d="m180.51,390.51l.15.93c-.3.06-.56.09-.8.09-.38,0-.68-.06-.89-.18s-.36-.28-.45-.48-.13-.61-.13-1.25v-3.58h-.77v-.82h.77v-1.54l1.05-.63v2.17h1.06v.82h-1.06v3.64c0,.3.02.49.06.58s.1.15.18.21.2.08.36.08c.12,0,.27-.01.46-.04Z"/>
      <path class="cls-16" d="m185.82,389.45l1.09.13c-.17.64-.49,1.13-.96,1.48s-1.06.53-1.78.53c-.91,0-1.63-.28-2.17-.84s-.8-1.35-.8-2.36.27-1.86.81-2.44,1.24-.87,2.1-.87,1.51.28,2.04.85.79,1.36.79,2.39c0,.06,0,.16,0,.28h-4.64c.04.68.23,1.21.58,1.57s.78.54,1.3.54c.39,0,.72-.1.99-.3s.49-.53.65-.97Zm-3.46-1.71h3.47c-.05-.52-.18-.92-.4-1.18-.34-.41-.77-.61-1.31-.61-.48,0-.89.16-1.22.49s-.51.76-.55,1.3Z"/>
      <path class="cls-16" d="m188.22,391.45v-8.59h1.05v8.59h-1.05Z"/>
      <path class="cls-16" d="m190.5,389.59l1.04-.16c.06.42.22.74.49.96s.64.33,1.12.33.84-.1,1.08-.3.35-.43.35-.69c0-.24-.1-.43-.31-.56-.14-.09-.5-.21-1.08-.36-.77-.2-1.31-.36-1.61-.51s-.53-.34-.68-.59-.23-.53-.23-.83c0-.28.06-.53.19-.77s.3-.43.52-.59c.16-.12.39-.22.67-.31s.59-.13.91-.13c.49,0,.92.07,1.29.21s.64.33.82.57.3.56.36.96l-1.03.14c-.05-.32-.18-.57-.41-.75s-.54-.27-.95-.27c-.48,0-.83.08-1.04.24s-.31.35-.31.56c0,.14.04.26.13.37.09.11.22.21.4.28.11.04.42.13.93.27.75.2,1.27.36,1.56.49s.53.31.69.55.25.54.25.9-.1.68-.31.99-.5.55-.89.72-.82.25-1.31.25c-.81,0-1.42-.17-1.85-.5s-.69-.83-.81-1.49Z"/>
      <path class="cls-16" d="m200.03,388.69l1.07-.09c.05.43.17.78.35,1.06s.47.5.86.67.83.25,1.32.25c.43,0,.82-.06,1.15-.19s.58-.31.74-.53.24-.47.24-.74-.08-.5-.23-.71-.41-.37-.77-.51c-.23-.09-.74-.23-1.53-.42s-1.34-.37-1.66-.54c-.41-.21-.72-.48-.92-.8s-.3-.67-.3-1.07c0-.43.12-.84.37-1.22s.61-.66,1.08-.86,1-.29,1.58-.29c.64,0,1.2.1,1.68.31s.86.51,1.12.91.4.85.42,1.35l-1.09.08c-.06-.54-.26-.95-.59-1.23s-.84-.42-1.5-.42-1.19.13-1.5.38-.47.56-.47.91c0,.31.11.56.33.76.22.2.79.4,1.71.61s1.56.39,1.9.55c.5.23.87.52,1.11.88s.36.76.36,1.22-.13.89-.39,1.29-.64.72-1.13.94-1.04.34-1.66.34c-.78,0-1.43-.11-1.95-.34s-.94-.57-1.24-1.02-.46-.97-.47-1.54Z"/>
      <path class="cls-16" d="m208.25,393.85l-.12-.99c.23.06.43.09.6.09.23,0,.42-.04.56-.12s.26-.19.35-.33c.07-.11.17-.37.32-.79.02-.06.05-.14.09-.26l-2.36-6.23h1.14l1.29,3.6c.17.46.32.94.45,1.44.12-.48.27-.96.43-1.42l1.33-3.63h1.05l-2.37,6.33c-.25.68-.45,1.15-.59,1.41-.19.35-.4.6-.64.76s-.53.24-.87.24c-.2,0-.43-.04-.68-.13Z"/>
      <path class="cls-16" d="m214.31,391.45v-6.22h.95v.88c.46-.68,1.12-1.03,1.98-1.03.38,0,.72.07,1.03.2s.55.31.71.53.27.48.33.78c.04.2.06.54.06,1.03v3.83h-1.05v-3.79c0-.43-.04-.75-.12-.96s-.23-.38-.44-.51-.45-.19-.74-.19c-.45,0-.84.14-1.16.43s-.49.83-.49,1.62v3.4h-1.05Z"/>
      <path class="cls-16" d="m223.29,390.51l.15.93c-.3.06-.56.09-.8.09-.38,0-.68-.06-.89-.18s-.36-.28-.45-.48-.13-.61-.13-1.25v-3.58h-.77v-.82h.77v-1.54l1.05-.63v2.17h1.06v.82h-1.06v3.64c0,.3.02.49.06.58s.1.15.18.21.2.08.36.08c.12,0,.27-.01.46-.04Z"/>
      <path class="cls-16" d="m228.4,390.68c-.39.33-.77.57-1.13.7s-.75.21-1.16.21c-.68,0-1.21-.17-1.58-.5s-.55-.76-.55-1.28c0-.3.07-.58.21-.83s.32-.45.54-.61.48-.27.76-.35c.21-.05.52-.11.94-.16.85-.1,1.48-.22,1.88-.36,0-.14,0-.24,0-.28,0-.43-.1-.73-.3-.91-.27-.24-.67-.36-1.2-.36-.5,0-.86.09-1.1.26s-.41.48-.52.92l-1.03-.14c.09-.44.25-.8.46-1.07s.53-.48.93-.63.88-.22,1.41-.22.96.06,1.29.19.58.28.73.47.27.43.33.72c.04.18.05.5.05.97v1.41c0,.98.02,1.6.07,1.86s.13.51.27.75h-1.1c-.11-.22-.18-.47-.21-.77Zm-.09-2.36c-.38.16-.96.29-1.72.4-.43.06-.74.13-.92.21s-.32.19-.42.34-.15.32-.15.5c0,.28.11.52.32.7s.52.28.93.28.77-.09,1.08-.27.55-.42.7-.73c.11-.24.17-.59.17-1.05v-.39Z"/>
      <path class="cls-16" d="m230.32,391.45l2.27-3.23-2.1-2.99h1.32l.96,1.46c.18.28.32.51.43.7.17-.26.33-.49.47-.69l1.05-1.47h1.26l-2.15,2.93,2.31,3.29h-1.29l-1.28-1.93-.34-.52-1.63,2.46h-1.28Z"/>
      <path class="cls-16" d="m104.79,409.45v-.86l3.96-4.55c-.45.02-.85.04-1.19.04h-2.54v-.86h5.09v.7l-3.37,3.95-.65.72c.47-.04.92-.05,1.33-.05h2.88v.91h-5.51Z"/>
      <path class="cls-16" d="m115.44,409.45v-.91c-.48.7-1.14,1.05-1.97,1.05-.37,0-.71-.07-1.03-.21s-.55-.32-.71-.53-.26-.47-.33-.78c-.04-.21-.06-.54-.06-.98v-3.86h1.05v3.45c0,.55.02.92.06,1.11.07.28.21.5.42.65s.48.24.8.24.61-.08.89-.24.47-.38.59-.66.17-.68.17-1.22v-3.33h1.05v6.22h-.94Z"/>
      <path class="cls-16" d="m125.66,407.45l1.09.13c-.17.64-.49,1.13-.96,1.48s-1.06.53-1.78.53c-.91,0-1.63-.28-2.17-.84s-.8-1.35-.8-2.36.27-1.86.81-2.44,1.24-.87,2.1-.87,1.51.28,2.04.85.79,1.36.79,2.39c0,.06,0,.16,0,.28h-4.64c.04.68.23,1.21.58,1.57s.78.54,1.3.54c.39,0,.72-.1.99-.3s.49-.53.65-.97Zm-3.46-1.71h3.47c-.05-.52-.18-.92-.4-1.18-.34-.41-.77-.61-1.31-.61-.48,0-.89.16-1.22.49s-.51.76-.55,1.3Z"/>
      <path class="cls-16" d="m128.09,402.07v-1.21h1.05v1.21h-1.05Zm0,7.38v-6.22h1.05v6.22h-1.05Z"/>
      <path class="cls-16" d="m130.76,409.45v-6.22h.95v.88c.46-.68,1.12-1.03,1.98-1.03.38,0,.72.07,1.03.2s.55.31.71.53.27.48.33.78c.04.2.06.54.06,1.03v3.83h-1.05v-3.79c0-.43-.04-.75-.12-.96s-.23-.38-.44-.51-.45-.19-.74-.19c-.45,0-.84.14-1.16.43s-.49.83-.49,1.62v3.4h-1.05Z"/>
      <path class="cls-16" d="m141.71,407.45l1.09.13c-.17.64-.49,1.13-.96,1.48s-1.06.53-1.78.53c-.91,0-1.63-.28-2.17-.84s-.8-1.35-.8-2.36.27-1.86.81-2.44,1.24-.87,2.1-.87,1.51.28,2.04.85.79,1.36.79,2.39c0,.06,0,.16,0,.28h-4.64c.04.68.23,1.21.58,1.57s.78.54,1.3.54c.39,0,.72-.1.99-.3s.49-.53.65-.97Zm-3.46-1.71h3.47c-.05-.52-.18-.92-.4-1.18-.34-.41-.77-.61-1.31-.61-.48,0-.89.16-1.22.49s-.51.76-.55,1.3Z"/>
      <path class="cls-16" d="m144.13,409.45v-6.22h.94v.87c.2-.3.46-.55.78-.74s.69-.28,1.11-.28c.46,0,.84.1,1.13.29s.5.46.62.8c.49-.73,1.13-1.09,1.92-1.09.62,0,1.09.17,1.42.51s.5.87.5,1.58v4.27h-1.05v-3.92c0-.42-.03-.73-.1-.91s-.19-.33-.37-.45-.39-.17-.63-.17c-.44,0-.8.15-1.09.44s-.43.76-.43,1.4v3.62h-1.05v-4.04c0-.47-.09-.82-.26-1.05s-.45-.35-.84-.35c-.3,0-.57.08-.82.23s-.43.38-.55.69-.17.73-.17,1.3v3.23h-1.05Z"/>
      <path class="cls-16" d="m163.75,406.44l1.14.29c-.24.93-.67,1.65-1.29,2.14s-1.38.74-2.27.74-1.68-.19-2.26-.57-1.02-.92-1.32-1.64-.45-1.48-.45-2.3c0-.89.17-1.67.51-2.34s.83-1.17,1.46-1.52,1.33-.52,2.08-.52c.86,0,1.58.22,2.17.66s.99,1.05,1.22,1.85l-1.12.26c-.2-.62-.49-1.08-.87-1.37s-.86-.43-1.43-.43c-.66,0-1.21.16-1.66.47s-.75.74-.93,1.27-.27,1.08-.27,1.65c0,.73.11,1.37.32,1.91s.54.95.99,1.22.94.4,1.46.4c.64,0,1.18-.18,1.62-.55s.74-.91.9-1.63Z"/>
      <path class="cls-16" d="m165.77,406.34c0-1.15.32-2.01.96-2.56.54-.46,1.19-.69,1.96-.69.86,0,1.55.28,2.1.84s.81,1.33.81,2.32c0,.8-.12,1.43-.36,1.89s-.59.82-1.05,1.07-.96.38-1.5.38c-.87,0-1.58-.28-2.11-.84s-.81-1.36-.81-2.41Zm1.08,0c0,.8.17,1.39.52,1.79s.79.59,1.31.59.96-.2,1.31-.6.52-1.01.52-1.82c0-.77-.17-1.35-.52-1.75s-.78-.59-1.3-.59-.96.2-1.31.59-.52.99-.52,1.79Z"/>
      <path class="cls-16" d="m176.89,409.45v-.79c-.39.62-.97.93-1.74.93-.5,0-.95-.14-1.37-.41s-.74-.66-.97-1.15-.34-1.05-.34-1.69.1-1.18.31-1.69.52-.89.93-1.16.88-.4,1.39-.4c.38,0,.71.08,1,.24s.53.36.71.62v-3.08h1.05v8.59h-.98Zm-3.33-3.11c0,.8.17,1.39.5,1.79s.73.59,1.19.59.85-.19,1.17-.57.48-.95.48-1.73c0-.85-.16-1.48-.49-1.88s-.73-.6-1.21-.6-.86.19-1.17.57-.47.99-.47,1.81Z"/>
      <path class="cls-16" d="m183.79,407.45l1.09.13c-.17.64-.49,1.13-.96,1.48s-1.06.53-1.78.53c-.91,0-1.63-.28-2.17-.84s-.8-1.35-.8-2.36.27-1.86.81-2.44,1.24-.87,2.1-.87,1.51.28,2.04.85.79,1.36.79,2.39c0,.06,0,.16,0,.28h-4.64c.04.68.23,1.21.58,1.57s.78.54,1.3.54c.39,0,.72-.1.99-.3s.49-.53.65-.97Zm-3.46-1.71h3.47c-.05-.52-.18-.92-.4-1.18-.34-.41-.77-.61-1.31-.61-.48,0-.89.16-1.22.49s-.51.76-.55,1.3Z"/>
      <path class="cls-16" d="m189.37,409.97l1.03.15c.04.32.16.55.36.69.26.2.62.29,1.07.29.49,0,.87-.1,1.13-.29s.45-.47.54-.82c.05-.21.08-.67.08-1.35-.46.54-1.04.81-1.72.81-.86,0-1.52-.31-1.99-.93s-.7-1.36-.7-2.22c0-.59.11-1.14.32-1.64s.53-.89.93-1.16.89-.41,1.44-.41c.73,0,1.34.3,1.82.89v-.75h.97v5.38c0,.97-.1,1.66-.3,2.06s-.51.72-.94.96-.95.35-1.58.35c-.74,0-1.34-.17-1.8-.5s-.68-.84-.66-1.51Zm.87-3.74c0,.82.16,1.41.49,1.79s.73.56,1.22.56.89-.19,1.22-.56.49-.96.49-1.75-.17-1.34-.51-1.72-.75-.58-1.22-.58-.87.19-1.2.57-.49.95-.49,1.7Z"/>
      <path class="cls-16" d="m200.51,407.45l1.09.13c-.17.64-.49,1.13-.96,1.48s-1.06.53-1.78.53c-.91,0-1.63-.28-2.17-.84s-.8-1.35-.8-2.36.27-1.86.81-2.44,1.24-.87,2.1-.87,1.51.28,2.04.85.79,1.36.79,2.39c0,.06,0,.16,0,.28h-4.64c.04.68.23,1.21.58,1.57s.78.54,1.3.54c.39,0,.72-.1.99-.3s.49-.53.65-.97Zm-3.46-1.71h3.47c-.05-.52-.18-.92-.4-1.18-.34-.41-.77-.61-1.31-.61-.48,0-.89.16-1.22.49s-.51.76-.55,1.3Z"/>
      <path class="cls-16" d="m202.55,406.34c0-1.15.32-2.01.96-2.56.54-.46,1.19-.69,1.96-.69.86,0,1.55.28,2.1.84s.81,1.33.81,2.32c0,.8-.12,1.43-.36,1.89s-.59.82-1.05,1.07-.96.38-1.5.38c-.87,0-1.58-.28-2.11-.84s-.81-1.36-.81-2.41Zm1.08,0c0,.8.17,1.39.52,1.79s.79.59,1.31.59.96-.2,1.31-.6.52-1.01.52-1.82c0-.77-.17-1.35-.52-1.75s-.78-.59-1.3-.59-.96.2-1.31.59-.52.99-.52,1.79Z"/>
      <path class="cls-16" d="m209.61,409.45v-6.22h.95v.94c.24-.44.47-.73.67-.87s.43-.21.68-.21c.36,0,.72.11,1.08.34l-.36.98c-.26-.15-.52-.23-.77-.23-.23,0-.44.07-.62.21s-.31.33-.39.58c-.12.38-.18.79-.18,1.23v3.26h-1.05Z"/>
      <path class="cls-16" d="m217.67,409.45v-.79c-.39.62-.97.93-1.74.93-.5,0-.95-.14-1.37-.41s-.74-.66-.97-1.15-.34-1.05-.34-1.69.1-1.18.31-1.69.52-.89.93-1.16.88-.4,1.39-.4c.38,0,.71.08,1,.24s.53.36.71.62v-3.08h1.05v8.59h-.98Zm-3.33-3.11c0,.8.17,1.39.5,1.79s.73.59,1.19.59.85-.19,1.17-.57.48-.95.48-1.73c0-.85-.16-1.48-.49-1.88s-.73-.6-1.21-.6-.86.19-1.17.57-.47.99-.47,1.81Z"/>
      <path class="cls-16" d="m220.32,409.45v-6.22h.95v.88c.46-.68,1.12-1.03,1.98-1.03.38,0,.72.07,1.03.2s.55.31.71.53.27.48.33.78c.04.2.06.54.06,1.03v3.83h-1.05v-3.79c0-.43-.04-.75-.12-.96s-.23-.38-.44-.51-.45-.19-.74-.19c-.45,0-.84.14-1.16.43s-.49.83-.49,1.62v3.4h-1.05Z"/>
      <path class="cls-16" d="m231.26,407.45l1.09.13c-.17.64-.49,1.13-.96,1.48s-1.06.53-1.78.53c-.91,0-1.63-.28-2.17-.84s-.8-1.35-.8-2.36.27-1.86.81-2.44,1.24-.87,2.1-.87,1.51.28,2.04.85.79,1.36.79,2.39c0,.06,0,.16,0,.28h-4.64c.04.68.23,1.21.58,1.57s.78.54,1.3.54c.39,0,.72-.1.99-.3s.49-.53.65-.97Zm-3.46-1.71h3.47c-.05-.52-.18-.92-.4-1.18-.34-.41-.77-.61-1.31-.61-.48,0-.89.16-1.22.49s-.51.76-.55,1.3Z"/>
      <path class="cls-16" d="m235.99,408.51l.15.93c-.3.06-.56.09-.8.09-.38,0-.68-.06-.89-.18s-.36-.28-.45-.48-.13-.61-.13-1.25v-3.58h-.77v-.82h.77v-1.54l1.05-.63v2.17h1.06v.82h-1.06v3.64c0,.3.02.49.06.58s.1.15.18.21.2.08.36.08c.12,0,.27-.01.46-.04Z"/>
    </g>
  </g>
  <g>
    <text class="cls-6" transform="translate(753.35 357.78) rotate(-90)"><tspan x="0" y="0">Wert</tspan></text>
    <g>
      <line class="cls-12" x1="748.02" y1="300.1" x2="748.02" y2="64.14"/>
      <polygon class="cls-9" points="753 65.59 748.02 56.96 743.03 65.59 753 65.59"/>
    </g>
  </g>
  <text class="cls-4" transform="translate(811.19 60.33)"><tspan x="0" y="0">Beispiel</tspan></text>
</svg>