<svg id="Ebene_1" data-name="Ebene 1" xmlns="http://www.w3.org/2000/svg" viewBox="0 0 988 525"><defs><style>.cls-1{font-size:20px;font-family:Arial-BoldMT, Arial;font-weight:700;}.cls-1,.cls-5,.cls-7{fill:#010101;}.cls-2,.cls-3,.cls-6,.cls-8{fill:#fff;}.cls-2,.cls-8{stroke:#1d1d1b;stroke-miterlimit:10;}.cls-2,.cls-4,.cls-8{stroke-width:2px;}.cls-4,.cls-9{fill:none;stroke:#000;stroke-linejoin:round;}.cls-6,.cls-8{fill-rule:evenodd;}.cls-7{font-size:16px;font-family:ArialMT, Arial;}</style></defs><text class="cls-1" transform="translate(329.52 488.26)">Organisatorischer Kontext/Umwelt</text><rect class="cls-2" x="166.22" y="124.52" width="635.42" height="315.15"/><text class="cls-1" transform="translate(179.49 157.17)">System</text><circle class="cls-3" cx="398.9" cy="202.87" r="40.95" transform="translate(-47.08 240.01) rotate(-31.72)"/><circle class="cls-4" cx="398.9" cy="202.87" r="40.95" transform="matrix(0.07, -1, 1, 0.07, 168.26, 586.38)"/><path class="cls-5" d="M382.72,194.62l1.43-.12a3.31,3.31,0,0,0,.47,1.41,2.63,2.63,0,0,0,1.16.89,4.68,4.68,0,0,0,3.29.08,2.07,2.07,0,0,0,1-.71,1.61,1.61,0,0,0,.33-1,1.54,1.54,0,0,0-.31-.94,2.33,2.33,0,0,0-1-.67,19.68,19.68,0,0,0-2-.56,9.69,9.69,0,0,1-2.21-.72,3.09,3.09,0,0,1-1.23-1.06,2.61,2.61,0,0,1-.4-1.43,2.88,2.88,0,0,1,.49-1.62,3.15,3.15,0,0,1,1.44-1.15,5.46,5.46,0,0,1,2.1-.39,5.83,5.83,0,0,1,2.25.41,3.27,3.27,0,0,1,1.49,1.21,3.49,3.49,0,0,1,.57,1.81l-1.46.11a2.38,2.38,0,0,0-.79-1.65,3.16,3.16,0,0,0-2-.55,3.25,3.25,0,0,0-2,.5,1.53,1.53,0,0,0-.63,1.22,1.28,1.28,0,0,0,.45,1,5.93,5.93,0,0,0,2.28.82,15.3,15.3,0,0,1,2.54.73,3.48,3.48,0,0,1,1.47,1.17,2.82,2.82,0,0,1,.48,1.63,3.1,3.1,0,0,1-.52,1.72,3.44,3.44,0,0,1-1.51,1.26,5.21,5.21,0,0,1-2.2.45A6.46,6.46,0,0,1,385,198a3.62,3.62,0,0,1-1.65-1.36A3.82,3.82,0,0,1,382.72,194.62Z"/><path class="cls-5" d="M393.21,194.15a4.26,4.26,0,0,1,1.28-3.41,3.87,3.87,0,0,1,2.61-.92,3.69,3.69,0,0,1,2.79,1.12A4.25,4.25,0,0,1,401,194a5.54,5.54,0,0,1-.48,2.52,3.42,3.42,0,0,1-1.4,1.42,4,4,0,0,1-2,.51,3.73,3.73,0,0,1-2.82-1.12A4.47,4.47,0,0,1,393.21,194.15Zm1.44,0a3.5,3.5,0,0,0,.7,2.39,2.32,2.32,0,0,0,3.49,0,3.63,3.63,0,0,0,.7-2.43,3.43,3.43,0,0,0-.7-2.33,2.31,2.31,0,0,0-3.49,0A3.49,3.49,0,0,0,394.65,194.15Z"/><path class="cls-5" d="M403,198.3v-7.2h-1.24V190H403v-.89a3.84,3.84,0,0,1,.15-1.24,1.89,1.89,0,0,1,.72-.89,2.63,2.63,0,0,1,1.43-.34,7.14,7.14,0,0,1,1.31.14l-.21,1.23a4.83,4.83,0,0,0-.82-.08,1.21,1.21,0,0,0-.91.28,1.45,1.45,0,0,0-.27,1V190H406v1.09h-1.62v7.2Z"/><path class="cls-5" d="M410.14,197l.21,1.25a5.46,5.46,0,0,1-1.06.12,2.41,2.41,0,0,1-1.19-.24,1.37,1.37,0,0,1-.6-.64,5.14,5.14,0,0,1-.17-1.66V191.1h-1V190h1V188l1.4-.84V190h1.41v1.09h-1.41V196a2.44,2.44,0,0,0,.07.77.57.57,0,0,0,.25.28.9.9,0,0,0,.48.1A4.11,4.11,0,0,0,410.14,197Z"/><path class="cls-5" d="M411,194.87v-1.42h4.32v1.42Z"/><path class="cls-5" d="M384.14,217.5l-2.53-8.29h1.45l1.32,4.79.49,1.78c0-.09.17-.66.43-1.71l1.32-4.86h1.45l1.24,4.81.41,1.58.48-1.6,1.42-4.79H393l-2.6,8.29h-1.46l-1.32-5-.32-1.41-1.68,6.38Z"/><path class="cls-5" d="M399.58,216.48a5.49,5.49,0,0,1-1.5.94,4.39,4.39,0,0,1-1.55.27,3,3,0,0,1-2.1-.67,2.19,2.19,0,0,1-.74-1.7,2.24,2.24,0,0,1,.28-1.12,2.37,2.37,0,0,1,.73-.81,3.59,3.59,0,0,1,1-.46,10.84,10.84,0,0,1,1.25-.21,13,13,0,0,0,2.5-.48c0-.2,0-.32,0-.37a1.53,1.53,0,0,0-.4-1.21,2.34,2.34,0,0,0-1.6-.48,2.47,2.47,0,0,0-1.46.35,2.08,2.08,0,0,0-.7,1.23l-1.38-.19a3.38,3.38,0,0,1,.62-1.42,2.78,2.78,0,0,1,1.24-.84,5.69,5.69,0,0,1,1.89-.29,4.89,4.89,0,0,1,1.72.25,2.38,2.38,0,0,1,1,.63,2.26,2.26,0,0,1,.44.95,8.93,8.93,0,0,1,.07,1.3V214a20,20,0,0,0,.09,2.48,3.25,3.25,0,0,0,.35,1h-1.47A3.05,3.05,0,0,1,399.58,216.48Zm-.12-3.14a10.4,10.4,0,0,1-2.29.53,5.39,5.39,0,0,0-1.23.28,1.25,1.25,0,0,0-.55.46,1.2,1.2,0,0,0-.2.67,1.17,1.17,0,0,0,.43.93,1.82,1.82,0,0,0,1.24.38,2.86,2.86,0,0,0,1.45-.36,2.18,2.18,0,0,0,.93-1,3.46,3.46,0,0,0,.22-1.41Z"/><path class="cls-5" d="M403.05,217.5v-8.29h1.27v1.25a3.53,3.53,0,0,1,.89-1.16,1.55,1.55,0,0,1,.9-.28,2.76,2.76,0,0,1,1.45.45l-.49,1.31a1.93,1.93,0,0,0-1-.31,1.34,1.34,0,0,0-.83.28,1.53,1.53,0,0,0-.52.77,5.7,5.7,0,0,0-.23,1.64v4.34Z"/><path class="cls-5" d="M414.07,214.83l1.46.18a3.57,3.57,0,0,1-1.28,2,4.32,4.32,0,0,1-5.26-.42,4.4,4.4,0,0,1-1.06-3.15,4.65,4.65,0,0,1,1.07-3.25,3.66,3.66,0,0,1,2.8-1.15,3.56,3.56,0,0,1,2.72,1.13,4.53,4.53,0,0,1,1.05,3.19v.37h-6.19a3.21,3.21,0,0,0,.77,2.1,2.32,2.32,0,0,0,1.74.72,2.18,2.18,0,0,0,1.32-.4A2.72,2.72,0,0,0,414.07,214.83Zm-4.61-2.27h4.63a2.8,2.8,0,0,0-.53-1.57,2.17,2.17,0,0,0-1.74-.82,2.24,2.24,0,0,0-1.63.65A2.55,2.55,0,0,0,409.46,212.56Z"/><polygon class="cls-6" points="498.74 371.73 544.04 296.87 589.33 371.73 498.74 371.73"/><polygon class="cls-4" points="498.74 371.73 544.04 296.87 589.33 371.73 498.74 371.73"/><text class="cls-7" transform="translate(532.92 357.86)">DB</text><circle class="cls-3" cx="398.9" cy="328.51" r="40.95" transform="translate(0.89 658.08) rotate(-79.1)"/><circle class="cls-4" cx="398.9" cy="328.51" r="40.95" transform="matrix(0.07, -1, 1, 0.07, 42.94, 703.11)"/><text class="cls-7" transform="translate(372.22 333.39)">Service</text><rect class="cls-3" x="558.94" y="164.07" width="90.01" height="77.59"/><rect class="cls-4" x="558.94" y="164.07" width="90.01" height="77.59"/><path class="cls-5" d="M585.23,197.54V186.08h1.51v4.71h6v-4.71h1.52v11.46h-1.52v-5.4h-6v5.4Z"/><path class="cls-5" d="M602,196.51a5.16,5.16,0,0,1-1.51.94,4.39,4.39,0,0,1-1.55.27,3,3,0,0,1-2.1-.67,2.18,2.18,0,0,1-.73-1.7,2.24,2.24,0,0,1,1-1.92,3.46,3.46,0,0,1,1-.47,11.68,11.68,0,0,1,1.25-.21,12.35,12.35,0,0,0,2.51-.48c0-.19,0-.32,0-.37a1.55,1.55,0,0,0-.4-1.21,2.34,2.34,0,0,0-1.6-.48,2.53,2.53,0,0,0-1.47.35,2.19,2.19,0,0,0-.7,1.23l-1.37-.18a3.3,3.3,0,0,1,.62-1.43,2.73,2.73,0,0,1,1.24-.84,5.67,5.67,0,0,1,1.88-.29,4.91,4.91,0,0,1,1.73.25,2.27,2.27,0,0,1,1,.63,2.13,2.13,0,0,1,.44,1,7.53,7.53,0,0,1,.07,1.29v1.88a19.87,19.87,0,0,0,.09,2.48,3.08,3.08,0,0,0,.36,1h-1.47A3,3,0,0,1,602,196.51Zm-.12-3.14a10,10,0,0,1-2.3.53,6,6,0,0,0-1.22.28,1.28,1.28,0,0,0-.56.46,1.19,1.19,0,0,0-.19.67,1.22,1.22,0,0,0,.42.94,1.85,1.85,0,0,0,1.25.37,3,3,0,0,0,1.44-.35,2.14,2.14,0,0,0,.93-1,3.19,3.19,0,0,0,.23-1.4Z"/><path class="cls-5" d="M605.44,197.54v-8.3h1.26v1.26a3.49,3.49,0,0,1,.9-1.17,1.52,1.52,0,0,1,.9-.28,2.72,2.72,0,0,1,1.44.45l-.48,1.31a2,2,0,0,0-1-.31,1.38,1.38,0,0,0-.83.28,1.52,1.52,0,0,0-.52.77,5.37,5.37,0,0,0-.24,1.64v4.35Z"/><path class="cls-5" d="M616.16,197.54v-1a2.58,2.58,0,0,1-2.32,1.23,3.26,3.26,0,0,1-1.82-.54,3.59,3.59,0,0,1-1.29-1.53,5.21,5.21,0,0,1-.46-2.26,5.85,5.85,0,0,1,.42-2.25,3.26,3.26,0,0,1,1.24-1.55,3.31,3.31,0,0,1,1.85-.54,2.78,2.78,0,0,1,2.29,1.14v-4.11h1.4v11.46Zm-4.44-4.15a3.61,3.61,0,0,0,.67,2.39,2.06,2.06,0,0,0,1.59.79,2,2,0,0,0,1.56-.76,3.47,3.47,0,0,0,.65-2.3,3.89,3.89,0,0,0-.66-2.5,2,2,0,0,0-1.62-.8,2,2,0,0,0-1.56.77A3.78,3.78,0,0,0,611.72,193.39Z"/><path class="cls-5" d="M619.13,194.1v-1.42h4.32v1.42Z"/><path class="cls-5" d="M586.53,216.74l-2.54-8.3h1.45l1.32,4.79.5,1.78c0-.09.16-.66.43-1.71l1.32-4.86h1.44l1.24,4.81.42,1.59.47-1.6,1.43-4.8h1.36l-2.59,8.3h-1.46l-1.32-5-.32-1.42L588,216.74Z"/><path class="cls-5" d="M602,215.71a5.16,5.16,0,0,1-1.51.94,4.39,4.39,0,0,1-1.55.27,3,3,0,0,1-2.1-.67,2.18,2.18,0,0,1-.73-1.7,2.24,2.24,0,0,1,1-1.92,3.2,3.2,0,0,1,1-.46,9.26,9.26,0,0,1,1.25-.22,12.35,12.35,0,0,0,2.51-.48c0-.19,0-.32,0-.37a1.55,1.55,0,0,0-.4-1.21,2.34,2.34,0,0,0-1.6-.47,2.53,2.53,0,0,0-1.47.34,2.19,2.19,0,0,0-.7,1.23l-1.37-.18a3.3,3.3,0,0,1,.62-1.43,2.73,2.73,0,0,1,1.24-.84,5.67,5.67,0,0,1,1.88-.29,4.91,4.91,0,0,1,1.73.25,2.27,2.27,0,0,1,1,.63,2.13,2.13,0,0,1,.44,1,7.53,7.53,0,0,1,.07,1.29v1.88a19.87,19.87,0,0,0,.09,2.48,3.08,3.08,0,0,0,.36,1h-1.47A3,3,0,0,1,602,215.71Zm-.12-3.14a10,10,0,0,1-2.3.53,6,6,0,0,0-1.22.28,1.28,1.28,0,0,0-.56.46,1.19,1.19,0,0,0-.19.67,1.22,1.22,0,0,0,.42.94,1.85,1.85,0,0,0,1.25.37,3,3,0,0,0,1.44-.35,2.14,2.14,0,0,0,.93-1,3.19,3.19,0,0,0,.23-1.4Z"/><path class="cls-5" d="M605.44,216.74v-8.3h1.26v1.26a3.49,3.49,0,0,1,.9-1.17,1.52,1.52,0,0,1,.9-.28,2.72,2.72,0,0,1,1.44.45l-.48,1.31a2,2,0,0,0-1-.31,1.38,1.38,0,0,0-.83.28,1.52,1.52,0,0,0-.52.77,5.37,5.37,0,0,0-.24,1.64v4.35Z"/><path class="cls-5" d="M616.46,214.06l1.45.18a3.55,3.55,0,0,1-1.27,2,3.82,3.82,0,0,1-2.38.7,3.77,3.77,0,0,1-2.88-1.12,4.38,4.38,0,0,1-1.07-3.14,4.57,4.57,0,0,1,1.08-3.25,3.66,3.66,0,0,1,2.8-1.16,3.58,3.58,0,0,1,2.72,1.13,4.53,4.53,0,0,1,1.05,3.19c0,.08,0,.21,0,.38h-6.19a3.18,3.18,0,0,0,.78,2.09,2.31,2.31,0,0,0,1.73.73,2.14,2.14,0,0,0,1.32-.41A2.62,2.62,0,0,0,616.46,214.06Zm-4.62-2.27h4.64a2.8,2.8,0,0,0-.54-1.57,2.13,2.13,0,0,0-1.74-.81,2.22,2.22,0,0,0-1.63.65A2.57,2.57,0,0,0,611.84,211.79Z"/><path d="M549.81,207.43l9.13-4.56-9.13-4.57ZM449,198.3l-9.12,4.57,9.12,4.56ZM447.45,204H551.34v-2.28H447.45Z"/><path d="M604.78,251.84,604,241.66l-7.64,6.77Zm-38.92,72.29.82,10.17,7.65-6.77Zm4.72,3.54,31.59-78.52-2.12-.85-31.59,78.51Z"/><path d="M430.64,241.64l-2.79-9.82,9.53,3.67Zm88,82.84,2.78,9.82-9.53-3.67Zm-3.19,5-83.28-91.24,1.68-1.54,83.28,91.24Z"/><path d="M403.46,252.94l-4.56-9.13-4.57,9.13Zm-9.13,25.49,4.57,9.13,4.56-9.13ZM400,280V251.42h-2.28V280Z"/><polygon class="cls-8" points="190.94 330.39 190.94 307.74 78.2 307.74 78.2 256.45 190.94 256.45 190.94 233.81 229.17 282.1 190.94 330.39"/><polygon class="cls-8" points="871.57 330.39 871.57 307.74 758.83 307.74 758.83 256.45 871.57 256.45 871.57 233.81 909.79 282.1 871.57 330.39"/><text class="cls-1" transform="translate(100.88 288.91)">Input</text><polyline class="cls-9" points="498.87 40.63 213.38 40.63 213.38 124.53"/><path class="cls-3" d="M708.42,363.65c0-4.78.06-9.37,0-14a6.76,6.76,0,0,0-2.92-5.59,62.69,62.69,0,0,0-7.75-4.56,61.74,61.74,0,0,0-6.57-2.42c2.19-.2,4.6-.35,7-.68,1.51-.21,2-1.27,1.12-2.24-2.91-3.18-3.2-6.77-2.22-10.79,1-4.21,2.07-8.48,1.54-12.89s-3.22-6.76-7.64-6.73a2.21,2.21,0,0,1-1.4-.47,15.7,15.7,0,0,0-13.85-4.21c-7.49,1.18-11.34,4.56-11.84,11.43a128.47,128.47,0,0,0,0,12.87c.12,4.25,1.1,8.54-1.37,12.53-.63,1,.07,1.87,1.19,1.81,4.48-.24,9-.44,12.26-4.25.35-.4,1-.89,1.45-.81,3.88.73,8.4-.48,11.26,3.52a.77.77,0,0,0,.13.12,11,11,0,0,0-1,.73c-4.67,4.07-8.81,4-13.33.31a3.4,3.4,0,0,0-2.51-.36,42.94,42.94,0,0,0-14.77,6.56,7.57,7.57,0,0,0-3.6,6.17c-.1,3.2-.08,6.41-.11,9.62,0,1.42,0,2.85,0,4.28h2.41v-2.05c0-3.51,0-7,0-10.53a6.14,6.14,0,0,1,2.62-5.47,39.24,39.24,0,0,1,13.11-6,3.48,3.48,0,0,1,2.48.44c4.84,3.29,9.21,3.25,14.06-.17a2.71,2.71,0,0,1,1.94-.43,36.74,36.74,0,0,1,13.52,6.15,5.14,5.14,0,0,1,2.43,4c.07,3.93.11,7.86.16,11.8,0,.7,0,1.41,0,2.2Z"/><path d="M708.42,363.65h-2.3c0-.79,0-1.5,0-2.2,0-3.94-.09-7.87-.16-11.8a5.14,5.14,0,0,0-2.43-4A36.74,36.74,0,0,0,690,339.46a2.71,2.71,0,0,0-1.94.43c-4.85,3.42-9.22,3.46-14.06.17a3.48,3.48,0,0,0-2.48-.44,39.24,39.24,0,0,0-13.11,6,6.14,6.14,0,0,0-2.62,5.47c0,3.51,0,7,0,10.53v2.05H653.4c0-1.43,0-2.86,0-4.28,0-3.21,0-6.42.11-9.62a7.57,7.57,0,0,1,3.6-6.17A42.94,42.94,0,0,1,671.88,337a3.4,3.4,0,0,1,2.51.36c4.52,3.66,8.66,3.76,13.33-.31a11,11,0,0,1,1-.73.77.77,0,0,1-.13-.12c-2.86-4-7.38-2.79-11.26-3.52-.43-.08-1.1.41-1.45.81-3.27,3.81-7.78,4-12.26,4.25-1.12.06-1.82-.8-1.19-1.81,2.47-4,1.49-8.28,1.37-12.53a128.47,128.47,0,0,1,0-12.87c.5-6.87,4.35-10.25,11.84-11.43a15.7,15.7,0,0,1,13.85,4.21,2.21,2.21,0,0,0,1.4.47c4.42,0,7.11,2.27,7.64,6.73s-.51,8.68-1.54,12.89c-1,4-.69,7.61,2.22,10.79.89,1,.39,2-1.12,2.24-2.37.33-4.78.48-7,.68a61.74,61.74,0,0,1,6.57,2.42,62.69,62.69,0,0,1,7.75,4.56,6.76,6.76,0,0,1,2.92,5.59C708.48,354.28,708.42,358.87,708.42,363.65ZM674.23,331.5a6,6,0,0,0-.55-.45A13.84,13.84,0,0,1,667,319.11c-.07-2.46,1.23-3.78,3.64-4.14,1.2-.17,2.4-.32,3.58-.54,4.77-.92,8.69-3.43,12.38-6.44,1.74-1.43,2.9-1,3.65,1.11.32.9.47,2.06,1.12,2.61a10.56,10.56,0,0,1,3.77,8.41,43.21,43.21,0,0,0,1.15-7.31c.24-4.83-1.58-6.55-6.33-6.4a2.23,2.23,0,0,1-1.53-.7c-3.64-4-8.24-5.11-13.34-4.09-3.83.77-7.41,2.31-8.4,6.66a38.21,38.21,0,0,0-.7,7c-.27,6.55,1.45,13.09-.17,19.62A8.87,8.87,0,0,0,674.23,331.5Zm13.27-21.19a26.87,26.87,0,0,1-16.51,7c-1.22.08-1.53.81-1.53,2a11.57,11.57,0,0,0,9.35,11.12c5.18,1.06,10.88-1.83,12.73-6.69,1.13-3,1.78-6.07-.51-8.92C689.88,313.4,688.78,312,687.5,310.31Zm6.69,13.94c-1.62,3.24-3.76,5.88-7,7.37,1.77,2.89,4.62,3.6,9,2.46A12.92,12.92,0,0,1,694.19,324.25Z"/><path class="cls-3" d="M674.23,331.5a8.87,8.87,0,0,1-8.39,3.41c1.62-6.53-.1-13.07.17-19.62a38.21,38.21,0,0,1,.7-7c1-4.35,4.57-5.89,8.4-6.66,5.1-1,9.7.07,13.34,4.09a2.23,2.23,0,0,0,1.53.7c4.75-.15,6.57,1.57,6.33,6.4a43.21,43.21,0,0,1-1.15,7.31,10.56,10.56,0,0,0-3.77-8.41c-.65-.55-.8-1.71-1.12-2.61-.75-2.1-1.91-2.54-3.65-1.11-3.69,3-7.61,5.52-12.38,6.44-1.18.22-2.38.37-3.58.54-2.41.36-3.71,1.68-3.64,4.14a13.84,13.84,0,0,0,6.66,11.94A6,6,0,0,1,674.23,331.5Z"/><path class="cls-3" d="M687.5,310.31c1.28,1.64,2.38,3.09,3.53,4.51,2.29,2.85,1.64,5.95.51,8.92-1.85,4.86-7.55,7.75-12.73,6.69a11.57,11.57,0,0,1-9.35-11.12c0-1.16.31-1.89,1.53-2A26.87,26.87,0,0,0,687.5,310.31Z"/><path class="cls-3" d="M694.19,324.25a12.92,12.92,0,0,0,1.92,9.83c-4.33,1.14-7.18.43-9-2.46C690.43,330.13,692.57,327.49,694.19,324.25Z"/><path class="cls-3" d="M327.46,243.92H244.92V161.75h82.54ZM271,188.68a16.21,16.21,0,0,0,4,8.83,14,14,0,0,0,22.39-3.18c2-3.89,2.48-8.19,2.54-12.44s-2.33-7.35-5.67-8.36a37.56,37.56,0,0,1-4.84-1.82c-7.17-3.28-18.36,0-20,9.64-.25,1.43-.42,2.86-.71,4.27C268.27,188,268.5,188.39,271,188.68Zm42.6,43.64c0-4.49,0-8.89,0-13.3a8.11,8.11,0,0,0-3.49-6.79,41.51,41.51,0,0,0-15.37-6.88,2.59,2.59,0,0,0-2.58.57c-4.49,3.63-7.89,3.55-12.52,0a3.62,3.62,0,0,0-2.67-.45,38.3,38.3,0,0,0-15.47,7.14,7.82,7.82,0,0,0-2.9,4.77c-.39,4.92-.14,9.89-.14,14.86h2.44c0-4.25,0-8.36,0-12.47a6.1,6.1,0,0,1,2.29-5.26,37.55,37.55,0,0,1,13.38-6.21,3.48,3.48,0,0,1,2.44.45c4.8,3.28,9.43,3.26,14.06-.11a2.4,2.4,0,0,1,1.73-.53,41.71,41.71,0,0,1,12.1,5,8,8,0,0,1,4.22,7.93c-.18,3.73,0,7.47,0,11.25Z"/><path d="M271,188.68c-2.54-.29-2.77-.66-2.27-3.06.29-1.41.46-2.84.71-4.27,1.66-9.63,12.85-12.92,20-9.64a37.56,37.56,0,0,0,4.84,1.82c3.34,1,5.73,4,5.67,8.36s-.55,8.55-2.54,12.44a14,14,0,0,1-22.39,3.18A16.21,16.21,0,0,1,271,188.68Zm2.9-.17c0,4.78,4.07,9.72,9.61,10.55,4.76.71,10.11-2,12-6.56.56-1.37,1.34-3.19.86-4.31a29.64,29.64,0,0,0-4.2-6.23c-.65-.83-1.5-.72-2.48.07-3.11,2.47-6.22,5-10.31,5.75C277.61,188.08,275.81,188.26,273.94,188.51Zm-2.4-2.79c5.42.27,10.4-.63,14.62-4.25a25.16,25.16,0,0,1,3.28-2.56,2.56,2.56,0,0,1,2.2-.21,50.08,50.08,0,0,1,4.52,3.74,13.08,13.08,0,0,1,1.13,1.35c0-1.4.09-2.43,0-3.44a5.72,5.72,0,0,0-4-4.43,14.77,14.77,0,0,1-4-1.42c-6.18-3.64-16.55-.13-17.22,7.76C272,183.39,271.72,184.51,271.54,185.72Z"/><path d="M313.64,232.32H311.1c0-3.78-.14-7.52,0-11.25a8,8,0,0,0-4.22-7.93,41.71,41.71,0,0,0-12.1-5,2.4,2.4,0,0,0-1.73.53c-4.63,3.37-9.26,3.39-14.06.11a3.48,3.48,0,0,0-2.44-.45,37.55,37.55,0,0,0-13.38,6.21,6.1,6.1,0,0,0-2.29,5.26c0,4.11,0,8.22,0,12.47h-2.44c0-5-.25-9.94.14-14.86a7.82,7.82,0,0,1,2.9-4.77A38.3,38.3,0,0,1,277,205.49a3.62,3.62,0,0,1,2.67.45c4.63,3.53,8,3.61,12.52,0a2.59,2.59,0,0,1,2.58-.57,41.51,41.51,0,0,1,15.37,6.88,8.11,8.11,0,0,1,3.49,6.79C313.68,223.43,313.64,227.83,313.64,232.32Z"/><path class="cls-3" d="M273.94,188.51c1.87-.25,3.67-.43,5.44-.73,4.09-.71,7.2-3.28,10.31-5.75,1-.79,1.83-.9,2.48-.07a29.64,29.64,0,0,1,4.2,6.23c.48,1.12-.3,2.94-.86,4.31-1.85,4.52-7.2,7.27-12,6.56C278,198.23,273.92,193.29,273.94,188.51Z"/><path class="cls-3" d="M271.54,185.72c.18-1.21.42-2.33.52-3.46.67-7.89,11-11.4,17.22-7.76a14.77,14.77,0,0,0,4,1.42,5.72,5.72,0,0,1,4,4.43c.11,1,0,2,0,3.44a13.08,13.08,0,0,0-1.13-1.35,50.08,50.08,0,0,0-4.52-3.74,2.56,2.56,0,0,0-2.2.21,25.16,25.16,0,0,0-3.28,2.56C281.94,185.09,277,186,271.54,185.72Z"/><path d="M348.83,207.44l9.12-4.57-9.13-4.56Zm-12.54-9.12-9.13,4.58,9.14,4.55ZM334.77,204h15.57v-2.29l-15.57,0Z"/><path d="M685.7,284.19l-4.56,9.13-4.57-9.13Zm-27.62-76.76L649,202.87l9.13-4.57Zm-1.52-5.7h25.72v84H680V202.87l1.14,1.14H656.56Z"/><rect class="cls-3" x="473.21" y="176.77" width="52.37" height="52.19"/><rect class="cls-4" x="473.21" y="176.77" width="52.37" height="52.19"/><path class="cls-5" d="M481.5,200.46V189h1.55l6,9v-9h1.45v11.45H489l-6-9v9Z"/><path class="cls-5" d="M498.57,197.79,500,198a3.55,3.55,0,0,1-1.27,2,4.32,4.32,0,0,1-5.26-.42,4.4,4.4,0,0,1-1.07-3.15,4.6,4.6,0,0,1,1.08-3.25,3.65,3.65,0,0,1,2.8-1.15,3.58,3.58,0,0,1,2.72,1.13,4.53,4.53,0,0,1,1.05,3.19c0,.08,0,.21,0,.37h-6.18a3.15,3.15,0,0,0,.77,2.1,2.3,2.3,0,0,0,1.73.72,2.13,2.13,0,0,0,1.32-.4A2.66,2.66,0,0,0,498.57,197.79ZM494,195.52h4.64a2.8,2.8,0,0,0-.54-1.57,2.14,2.14,0,0,0-1.74-.82,2.26,2.26,0,0,0-1.63.65A2.6,2.6,0,0,0,494,195.52Z"/><path class="cls-5" d="M504.86,199.21l.2,1.24a5.37,5.37,0,0,1-1.06.12,2.43,2.43,0,0,1-1.19-.24,1.3,1.3,0,0,1-.59-.64,4.86,4.86,0,0,1-.17-1.66v-4.77h-1v-1.09h1v-2.06l1.4-.84v2.9h1.41v1.09h-1.41v4.85a2.44,2.44,0,0,0,.07.77.6.6,0,0,0,.24.28.9.9,0,0,0,.48.1A5.81,5.81,0,0,0,504.86,199.21Z"/><path class="cls-5" d="M505.49,200.46v-1.14l5.28-6.06c-.6,0-1.12.05-1.58.05H505.8v-1.14h6.79v.93l-4.5,5.26-.86,1c.63,0,1.22-.07,1.77-.07h3.84v1.21Z"/><path class="cls-5" d="M513.69,197v-1.42H518V197Z"/><path class="cls-5" d="M485.09,219.66l-2.54-8.29H484l1.32,4.79.5,1.78c0-.09.16-.66.43-1.71l1.32-4.86H489l1.24,4.81.42,1.58.47-1.6,1.43-4.79h1.36l-2.59,8.29h-1.46l-1.32-5-.32-1.41-1.68,6.38Z"/><path class="cls-5" d="M500.79,217l1.46.18a3.57,3.57,0,0,1-1.28,2,4.32,4.32,0,0,1-5.26-.42,4.4,4.4,0,0,1-1.07-3.15,4.6,4.6,0,0,1,1.08-3.25,3.65,3.65,0,0,1,2.8-1.15,3.56,3.56,0,0,1,2.72,1.13,4.53,4.53,0,0,1,1.05,3.19v.37H496.1a3.21,3.21,0,0,0,.77,2.1,2.31,2.31,0,0,0,1.74.72,2.18,2.18,0,0,0,1.32-.4A2.72,2.72,0,0,0,500.79,217Zm-4.61-2.27h4.63a2.8,2.8,0,0,0-.53-1.57,2.17,2.17,0,0,0-1.74-.82,2.24,2.24,0,0,0-1.63.65A2.55,2.55,0,0,0,496.18,214.72Z"/><path class="cls-5" d="M504,219.66v-8.29h1.26v1.25a3.4,3.4,0,0,1,.9-1.16,1.52,1.52,0,0,1,.9-.28,2.75,2.75,0,0,1,1.44.45l-.48,1.31a2,2,0,0,0-1-.31,1.32,1.32,0,0,0-.83.28,1.47,1.47,0,0,0-.52.77,5.37,5.37,0,0,0-.24,1.64v4.34Z"/><path class="cls-5" d="M509.35,219.66V208.21h1.4v6.53l3.33-3.37h1.82l-3.17,3.07,3.49,5.22h-1.73l-2.74-4.24-1,1v3.29Z"/><text class="cls-7" transform="translate(255.03 270)">Aufgabe</text><text class="cls-7" transform="translate(653.52 391.87)">Aufgabe</text><text class="cls-1" transform="translate(511.64 46.37)">Grenze (Abgrenzung zur Umwelt)</text><text class="cls-1" transform="translate(796.86 288.91)">Output</text></svg>