<?xml version="1.0" encoding="UTF-8"?>
<svg id="Ebene_1" data-name="Ebene 1" xmlns="http://www.w3.org/2000/svg" viewBox="0 0 988 525">
  <defs>
    <style>
      .cls-1 {
        stroke: #b1b1b1;
      }

      .cls-1, .cls-2, .cls-3 {
        fill: none;
        stroke-miterlimit: 10;
      }

      .cls-4 {
        fill: #b1b1b1;
        font-family: Arial-BoldMT, Arial;
        font-size: 10px;
        font-weight: 700;
      }

      .cls-2, .cls-3 {
        stroke: #000;
      }

      .cls-3 {
        stroke-dasharray: 3.76 3.76;
      }
    </style>
  </defs>
  <g>
    <g>
      <rect class="cls-2" x="129" y="122.66" width="340" height="60"/>
      <g>
        <text class="cls-4" transform="translate(300.95 156.07)"><tspan x="0" y="0">HTTP</tspan></text>
        <rect class="cls-1" x="289" y="140.16" width="50" height="25"/>
      </g>
      <g>
        <text class="cls-4" transform="translate(360.66 156.07)"><tspan x="0" y="0">POP3</tspan></text>
        <rect class="cls-1" x="349" y="140.16" width="50" height="25"/>
      </g>
      <g>
        <text class="cls-4" transform="translate(429.83 156.07)"><tspan x="0" y="0">...</tspan></text>
        <rect class="cls-1" x="409" y="140.16" width="50" height="25"/>
      </g>
    </g>
    <g>
      <rect class="cls-2" x="129" y="392.66" width="340" height="60"/>
      <g>
        <text class="cls-4" transform="translate(293.72 426.07)"><tspan x="0" y="0">Ethernet</tspan></text>
        <rect class="cls-1" x="289" y="410.16" width="50" height="25"/>
      </g>
      <g>
        <text class="cls-4" transform="translate(364 426.07)"><tspan x="0" y="0">PPP</tspan></text>
        <rect class="cls-1" x="349" y="410.16" width="50" height="25"/>
      </g>
      <g>
        <text class="cls-4" transform="translate(429.83 426.07)"><tspan x="0" y="0">...</tspan></text>
        <rect class="cls-1" x="409" y="410.16" width="50" height="25"/>
      </g>
    </g>
    <g>
      <rect class="cls-2" x="129" y="212.66" width="340" height="60"/>
      <g>
        <text class="cls-4" transform="translate(364 246.07)"><tspan x="0" y="0">TCP</tspan></text>
        <rect class="cls-1" x="349" y="230.16" width="50" height="25"/>
      </g>
      <g>
        <text class="cls-4" transform="translate(423.44 246.07)"><tspan x="0" y="0">UDP</tspan></text>
        <rect class="cls-1" x="409" y="230.16" width="50" height="25"/>
      </g>
    </g>
    <g>
      <rect class="cls-2" x="129" y="302.66" width="340" height="60"/>
      <g>
        <text class="cls-4" transform="translate(429.28 336.07)"><tspan x="0" y="0">IP</tspan></text>
        <rect class="cls-1" x="409" y="320.16" width="50" height="25"/>
      </g>
    </g>
    <g>
      <g>
        <line class="cls-2" x1="199" y1="200.49" x2="199" y2="182.66"/>
        <polygon points="203.99 199.03 199 207.66 194.01 199.03 203.99 199.03"/>
      </g>
      <g>
        <line class="cls-2" x1="399" y1="194.84" x2="399" y2="212.66"/>
        <polygon points="394.01 196.3 399 187.66 403.99 196.3 394.01 196.3"/>
      </g>
    </g>
    <g>
      <g>
        <line class="cls-2" x1="199" y1="290.49" x2="199" y2="272.66"/>
        <polygon points="203.99 289.03 199 297.66 194.01 289.03 203.99 289.03"/>
      </g>
      <g>
        <line class="cls-2" x1="399" y1="284.84" x2="399" y2="302.66"/>
        <polygon points="394.01 286.3 399 277.66 403.99 286.3 394.01 286.3"/>
      </g>
    </g>
    <g>
      <g>
        <line class="cls-2" x1="199" y1="380.49" x2="199" y2="362.66"/>
        <polygon points="203.99 379.03 199 387.66 194.01 379.03 203.99 379.03"/>
      </g>
      <g>
        <line class="cls-2" x1="399" y1="374.84" x2="399" y2="392.66"/>
        <polygon points="394.01 376.3 399 367.66 403.99 376.3 394.01 376.3"/>
      </g>
    </g>
  </g>
  <g>
    <g>
      <line class="cls-2" x1="481.18" y1="412.66" x2="519" y2="412.66"/>
      <polygon points="482.63 417.65 474 412.66 482.63 407.68 482.63 417.65"/>
    </g>
    <g>
      <line class="cls-2" x1="506.82" y1="432.66" x2="469" y2="432.66"/>
      <polygon points="505.37 427.68 514 432.66 505.37 437.65 505.37 427.68"/>
    </g>
  </g>
  <g>
    <g>
      <line class="cls-2" x1="871.18" y1="412.66" x2="873.18" y2="412.66"/>
      <line class="cls-3" x1="876.93" y1="412.66" x2="905.12" y2="412.66"/>
      <line class="cls-2" x1="907" y1="412.66" x2="909" y2="412.66"/>
      <polygon points="872.63 417.65 864 412.66 872.63 407.68 872.63 417.65"/>
    </g>
    <g>
      <line class="cls-2" x1="896.82" y1="432.66" x2="894.82" y2="432.66"/>
      <line class="cls-3" x1="891.07" y1="432.66" x2="862.88" y2="432.66"/>
      <line class="cls-2" x1="861" y1="432.66" x2="859" y2="432.66"/>
      <polygon points="895.37 427.68 904 432.66 895.37 437.65 895.37 427.68"/>
    </g>
  </g>
  <g>
    <g>
      <line class="cls-2" x1="91.18" y1="412.66" x2="93.18" y2="412.66"/>
      <line class="cls-3" x1="96.93" y1="412.66" x2="125.12" y2="412.66"/>
      <line class="cls-2" x1="127" y1="412.66" x2="129" y2="412.66"/>
      <polygon points="92.63 417.65 84 412.66 92.63 407.68 92.63 417.65"/>
    </g>
    <g>
      <line class="cls-2" x1="116.82" y1="432.66" x2="114.82" y2="432.66"/>
      <line class="cls-3" x1="111.07" y1="432.66" x2="82.88" y2="432.66"/>
      <line class="cls-2" x1="81" y1="432.66" x2="79" y2="432.66"/>
      <polygon points="115.37 427.68 124 432.66 115.37 437.65 115.37 427.68"/>
    </g>
  </g>
  <g>
    <g>
      <rect class="cls-2" x="519" y="122.66" width="340" height="60"/>
      <g>
        <text class="cls-4" transform="translate(690.95 156.07)"><tspan x="0" y="0">HTTP</tspan></text>
        <rect class="cls-1" x="679" y="140.16" width="50" height="25"/>
      </g>
      <g>
        <text class="cls-4" transform="translate(750.66 156.07)"><tspan x="0" y="0">POP3</tspan></text>
        <rect class="cls-1" x="739" y="140.16" width="50" height="25"/>
      </g>
      <g>
        <text class="cls-4" transform="translate(819.83 156.07)"><tspan x="0" y="0">...</tspan></text>
        <rect class="cls-1" x="799" y="140.16" width="50" height="25"/>
      </g>
    </g>
    <g>
      <rect class="cls-2" x="519" y="392.66" width="340" height="60"/>
      <g>
        <text class="cls-4" transform="translate(683.72 426.07)"><tspan x="0" y="0">Ethernet</tspan></text>
        <rect class="cls-1" x="679" y="410.16" width="50" height="25"/>
      </g>
      <g>
        <text class="cls-4" transform="translate(754 426.07)"><tspan x="0" y="0">PPP</tspan></text>
        <rect class="cls-1" x="739" y="410.16" width="50" height="25"/>
      </g>
      <g>
        <text class="cls-4" transform="translate(819.83 426.07)"><tspan x="0" y="0">...</tspan></text>
        <rect class="cls-1" x="799" y="410.16" width="50" height="25"/>
      </g>
    </g>
    <g>
      <rect class="cls-2" x="519" y="212.66" width="340" height="60"/>
      <g>
        <text class="cls-4" transform="translate(754 246.07)"><tspan x="0" y="0">TCP</tspan></text>
        <rect class="cls-1" x="739" y="230.16" width="50" height="25"/>
      </g>
      <g>
        <text class="cls-4" transform="translate(813.44 246.07)"><tspan x="0" y="0">UDP</tspan></text>
        <rect class="cls-1" x="799" y="230.16" width="50" height="25"/>
      </g>
    </g>
    <g>
      <rect class="cls-2" x="519" y="302.66" width="340" height="60"/>
      <g>
        <text class="cls-4" transform="translate(819.28 336.07)"><tspan x="0" y="0">IP</tspan></text>
        <rect class="cls-1" x="799" y="320.16" width="50" height="25"/>
      </g>
    </g>
    <g>
      <g>
        <line class="cls-2" x1="589" y1="200.49" x2="589" y2="182.66"/>
        <polygon points="593.99 199.03 589 207.66 584.01 199.03 593.99 199.03"/>
      </g>
      <g>
        <line class="cls-2" x1="789" y1="194.84" x2="789" y2="212.66"/>
        <polygon points="784.01 196.3 789 187.66 793.99 196.3 784.01 196.3"/>
      </g>
    </g>
    <g>
      <g>
        <line class="cls-2" x1="589" y1="290.49" x2="589" y2="272.66"/>
        <polygon points="593.99 289.03 589 297.66 584.01 289.03 593.99 289.03"/>
      </g>
      <g>
        <line class="cls-2" x1="789" y1="284.84" x2="789" y2="302.66"/>
        <polygon points="784.01 286.3 789 277.66 793.99 286.3 784.01 286.3"/>
      </g>
    </g>
    <g>
      <g>
        <line class="cls-2" x1="589" y1="380.49" x2="589" y2="362.66"/>
        <polygon points="593.99 379.03 589 387.66 584.01 379.03 593.99 379.03"/>
      </g>
      <g>
        <line class="cls-2" x1="789" y1="374.84" x2="789" y2="392.66"/>
        <polygon points="784.01 376.3 789 367.66 793.99 376.3 784.01 376.3"/>
      </g>
    </g>
  </g>
</svg>