<?xml version="1.0" encoding="UTF-8"?><svg id="Ebene_1" xmlns="http://www.w3.org/2000/svg" viewBox="0 0 988 525"><ellipse cx="342.67" cy="63.5" rx="47.33" ry="22.33" style="fill:none; stroke:#000; stroke-miterlimit:8;"/><g><path d="M305.48,68.17v-9.82h3.7c.65,0,1.15,.03,1.49,.09,.48,.08,.89,.23,1.21,.46,.33,.23,.59,.54,.79,.95,.2,.41,.3,.85,.3,1.34,0,.83-.27,1.54-.8,2.12s-1.49,.87-2.88,.87h-2.52v3.99h-1.3Zm1.3-5.15h2.54c.84,0,1.43-.16,1.79-.47,.35-.31,.53-.75,.53-1.32,0-.41-.1-.76-.31-1.05-.21-.29-.48-.49-.82-.58-.22-.06-.62-.09-1.21-.09h-2.51v3.51Z"/><path d="M319.03,65.88l1.25,.15c-.2,.73-.56,1.29-1.09,1.69s-1.21,.6-2.04,.6c-1.04,0-1.87-.32-2.47-.96s-.91-1.54-.91-2.7,.31-2.12,.92-2.79c.62-.66,1.42-.99,2.4-.99s1.73,.32,2.33,.97,.9,1.56,.9,2.73c0,.07,0,.18,0,.32h-5.3c.04,.78,.27,1.38,.66,1.79,.4,.42,.89,.62,1.49,.62,.44,0,.82-.12,1.13-.35,.31-.23,.56-.6,.74-1.11Zm-3.96-1.95h3.97c-.05-.6-.21-1.05-.46-1.35-.38-.46-.88-.7-1.49-.7-.55,0-1.02,.19-1.4,.56-.38,.37-.59,.87-.63,1.49Z"/><path d="M321.78,68.17v-7.11h1.08v1.08c.28-.5,.53-.84,.77-1s.49-.24,.77-.24c.41,0,.82,.13,1.24,.39l-.42,1.12c-.29-.17-.59-.26-.88-.26-.26,0-.5,.08-.71,.24-.21,.16-.36,.38-.45,.66-.13,.43-.2,.9-.2,1.41v3.72h-1.21Z"/><path d="M325.86,66.04l1.19-.19c.07,.48,.25,.84,.56,1.1s.73,.38,1.28,.38,.96-.11,1.23-.34,.4-.49,.4-.79c0-.27-.12-.49-.35-.64-.17-.11-.58-.24-1.23-.41-.88-.22-1.5-.42-1.84-.58-.34-.16-.6-.39-.78-.68-.18-.29-.26-.61-.26-.95,0-.32,.07-.61,.22-.88,.14-.27,.34-.49,.59-.67,.19-.14,.44-.26,.77-.35,.32-.1,.67-.14,1.04-.14,.56,0,1.05,.08,1.47,.24s.73,.38,.93,.65c.2,.27,.34,.64,.42,1.1l-1.18,.16c-.05-.37-.21-.65-.47-.86-.26-.21-.62-.31-1.09-.31-.55,0-.95,.09-1.19,.27-.24,.18-.35,.4-.35,.64,0,.16,.05,.3,.15,.42,.1,.13,.25,.24,.46,.32,.12,.04,.48,.15,1.06,.31,.85,.23,1.45,.41,1.79,.56,.34,.15,.6,.36,.79,.63,.19,.28,.29,.62,.29,1.03s-.12,.78-.35,1.14-.57,.63-1.01,.82c-.44,.19-.94,.29-1.5,.29-.92,0-1.63-.19-2.11-.58-.48-.38-.79-.95-.93-1.71Z"/><path d="M332.78,64.61c0-1.32,.37-2.29,1.1-2.93,.61-.53,1.36-.79,2.24-.79,.98,0,1.78,.32,2.4,.96s.93,1.53,.93,2.66c0,.92-.14,1.64-.41,2.16-.27,.52-.67,.93-1.2,1.22-.52,.29-1.1,.44-1.72,.44-1,0-1.8-.32-2.41-.96-.61-.64-.92-1.56-.92-2.76Zm1.24,0c0,.91,.2,1.59,.6,2.05,.4,.45,.9,.68,1.5,.68s1.1-.23,1.49-.68c.4-.46,.6-1.15,.6-2.08,0-.88-.2-1.55-.6-2s-.9-.68-1.49-.68-1.1,.23-1.5,.68c-.4,.45-.6,1.13-.6,2.04Z"/><path d="M340.77,68.17v-7.11h1.08v1.01c.52-.78,1.28-1.17,2.26-1.17,.43,0,.82,.08,1.18,.23,.36,.15,.63,.36,.81,.61s.3,.55,.38,.89c.04,.22,.07,.61,.07,1.17v4.37h-1.21v-4.33c0-.49-.05-.86-.14-1.1-.09-.24-.26-.44-.5-.58-.24-.15-.52-.22-.84-.22-.51,0-.96,.16-1.33,.49-.37,.33-.56,.94-.56,1.85v3.88h-1.21Z"/><path d="M353,67.29c-.45,.38-.88,.65-1.29,.8s-.86,.23-1.33,.23c-.78,0-1.38-.19-1.8-.57-.42-.38-.63-.87-.63-1.46,0-.35,.08-.67,.24-.95,.16-.29,.37-.52,.62-.69,.26-.17,.54-.31,.87-.4,.24-.06,.59-.12,1.07-.18,.97-.12,1.69-.25,2.15-.42,0-.17,0-.27,0-.31,0-.49-.11-.84-.34-1.04-.31-.27-.77-.41-1.37-.41-.57,0-.99,.1-1.25,.3-.27,.2-.47,.55-.6,1.05l-1.18-.16c.11-.5,.28-.91,.53-1.22,.25-.31,.6-.55,1.06-.72,.46-.17,1-.25,1.61-.25s1.1,.07,1.48,.21c.38,.14,.66,.32,.84,.54,.18,.22,.3,.49,.38,.82,.04,.21,.06,.58,.06,1.11v1.61c0,1.12,.03,1.83,.08,2.13,.05,.3,.15,.58,.3,.85h-1.26c-.12-.25-.21-.54-.24-.88Zm-.1-2.69c-.44,.18-1.09,.33-1.97,.46-.5,.07-.85,.15-1.05,.24-.21,.09-.36,.22-.48,.39-.11,.17-.17,.36-.17,.57,0,.32,.12,.59,.37,.8s.6,.32,1.07,.32,.88-.1,1.24-.3c.36-.2,.63-.48,.8-.83,.13-.27,.19-.67,.19-1.21v-.44Z"/><path d="M355.89,68.17v-9.82h1.21v9.82h-1.21Z"/><path d="M358.5,65.22v-1.21h3.7v1.21h-3.7Z"/><path d="M363.67,68.17v-9.82h1.33l5.16,7.71v-7.71h1.25v9.82h-1.33l-5.16-7.71v7.71h-1.25Z"/><path d="M373.42,68.17v-7.11h1.08v1.08c.28-.5,.53-.84,.77-1s.49-.24,.77-.24c.41,0,.82,.13,1.24,.39l-.42,1.12c-.29-.17-.59-.26-.88-.26-.26,0-.5,.08-.71,.24-.21,.16-.36,.38-.45,.66-.13,.43-.2,.9-.2,1.41v3.72h-1.21Z"/><path d="M378.34,68.17v-1.37h1.37v1.37h-1.37Z"/><path d="M304.43,70.12v-1h8.83v1h-8.83Z"/><path d="M313.26,70.12v-1h7.63v1h-7.63Z"/><path d="M320.88,70.12v-1h4.55v1h-4.55Z"/><path d="M325.44,70.12v-1h6.88v1h-6.88Z"/><path d="M332.32,70.12v-1h7.54v1h-7.54Z"/><path d="M339.87,70.12v-1h7.59v1h-7.59Z"/><path d="M347.45,70.12v-1h7.56v1h-7.56Z"/><path d="M355.01,70.12v-1h25.89v1h-25.89Z"/></g><g><path d="M804.09,378.19l3.77-9.82h1.4l4.02,9.82h-1.48l-1.15-2.97h-4.1l-1.08,2.97h-1.38Zm2.83-4.03h3.33l-1.02-2.72c-.31-.83-.54-1.5-.7-2.04-.12,.63-.3,1.25-.53,1.88l-1.08,2.88Z"/><path d="M818.51,378.19v-1.04c-.55,.8-1.31,1.21-2.26,1.21-.42,0-.81-.08-1.17-.24-.36-.16-.63-.36-.81-.61-.18-.24-.3-.54-.37-.89-.05-.24-.07-.61-.07-1.12v-4.41h1.21v3.94c0,.63,.02,1.05,.07,1.27,.08,.32,.24,.57,.48,.75,.25,.18,.55,.27,.91,.27s.7-.09,1.02-.28c.32-.19,.54-.44,.67-.76,.13-.32,.2-.78,.2-1.39v-3.81h1.21v7.11h-1.08Z"/><path d="M821.45,378.19v-6.17h-1.07v-.94h1.07v-.76c0-.48,.04-.83,.13-1.06,.12-.31,.32-.57,.61-.76,.29-.19,.7-.29,1.23-.29,.34,0,.71,.04,1.12,.12l-.18,1.05c-.25-.04-.49-.07-.71-.07-.37,0-.62,.08-.78,.23-.15,.16-.23,.45-.23,.88v.66h1.39v.94h-1.39v6.17h-1.2Z"/><path d="M827.28,377.11l.17,1.06c-.34,.07-.64,.11-.91,.11-.44,0-.78-.07-1.02-.21s-.41-.32-.51-.55c-.1-.23-.15-.7-.15-1.42v-4.09h-.88v-.94h.88v-1.76l1.2-.72v2.48h1.21v.94h-1.21v4.16c0,.34,.02,.56,.06,.66,.04,.1,.11,.18,.21,.23s.23,.09,.41,.09c.13,0,.31-.02,.53-.05Z"/><path d="M828.13,378.19v-7.11h1.08v1.08c.28-.5,.53-.84,.77-1s.49-.24,.77-.24c.41,0,.82,.13,1.24,.39l-.42,1.12c-.29-.17-.59-.26-.88-.26-.26,0-.5,.08-.71,.24-.21,.16-.36,.38-.45,.66-.13,.43-.2,.9-.2,1.41v3.72h-1.21Z"/><path d="M837.04,377.31c-.45,.38-.88,.65-1.29,.8s-.86,.23-1.33,.23c-.78,0-1.38-.19-1.8-.57-.42-.38-.63-.87-.63-1.46,0-.35,.08-.67,.24-.95,.16-.29,.37-.52,.62-.69,.26-.17,.54-.31,.87-.4,.24-.06,.59-.12,1.07-.18,.97-.12,1.69-.25,2.15-.42,0-.17,0-.27,0-.31,0-.49-.11-.84-.34-1.04-.31-.27-.77-.41-1.37-.41-.57,0-.99,.1-1.25,.3-.27,.2-.47,.55-.6,1.05l-1.18-.16c.11-.5,.28-.91,.53-1.22,.25-.31,.6-.55,1.06-.72,.46-.17,1-.25,1.61-.25s1.1,.07,1.48,.21c.38,.14,.66,.32,.84,.54,.18,.22,.3,.49,.38,.82,.04,.21,.06,.58,.06,1.11v1.61c0,1.12,.03,1.83,.08,2.13,.05,.3,.15,.58,.3,.85h-1.26c-.12-.25-.21-.54-.24-.88Zm-.1-2.69c-.44,.18-1.09,.33-1.97,.46-.5,.07-.85,.15-1.05,.24-.21,.09-.36,.22-.48,.39-.11,.17-.17,.36-.17,.57,0,.32,.12,.59,.37,.8s.6,.32,1.07,.32,.88-.1,1.24-.3c.36-.2,.63-.48,.8-.83,.13-.27,.19-.67,.19-1.21v-.44Z"/><path d="M839.49,378.77l1.17,.17c.05,.36,.19,.62,.41,.79,.3,.22,.71,.33,1.23,.33,.56,0,.99-.11,1.29-.33,.3-.22,.51-.54,.62-.94,.06-.25,.09-.76,.09-1.55-.53,.62-1.18,.93-1.97,.93-.98,0-1.73-.35-2.27-1.06-.54-.71-.8-1.55-.8-2.54,0-.68,.12-1.3,.37-1.88,.25-.57,.6-1.02,1.07-1.33,.47-.31,1.01-.47,1.64-.47,.84,0,1.53,.34,2.08,1.02v-.86h1.11v6.15c0,1.11-.11,1.89-.34,2.35-.23,.46-.58,.83-1.07,1.09-.49,.27-1.09,.4-1.8,.4-.85,0-1.53-.19-2.06-.57-.52-.38-.77-.96-.76-1.72Zm1-4.27c0,.93,.19,1.61,.56,2.04,.37,.43,.83,.64,1.39,.64s1.02-.21,1.39-.64,.56-1.09,.56-2.01-.19-1.53-.58-1.97c-.39-.44-.85-.66-1.4-.66s-.99,.22-1.37,.65c-.38,.44-.56,1.08-.56,1.94Z"/><path d="M846.54,376.06l1.19-.19c.07,.48,.25,.84,.56,1.1s.73,.38,1.28,.38,.96-.11,1.23-.34,.4-.49,.4-.79c0-.27-.12-.49-.35-.64-.17-.11-.58-.24-1.23-.41-.88-.22-1.5-.42-1.84-.58-.34-.16-.6-.39-.78-.68-.18-.29-.26-.61-.26-.95,0-.32,.07-.61,.22-.88,.14-.27,.34-.49,.59-.67,.19-.14,.44-.26,.77-.35,.32-.1,.67-.14,1.04-.14,.56,0,1.05,.08,1.47,.24s.73,.38,.93,.65c.2,.27,.34,.64,.42,1.1l-1.18,.16c-.05-.37-.21-.65-.47-.86-.26-.21-.62-.31-1.09-.31-.55,0-.95,.09-1.19,.27-.24,.18-.35,.4-.35,.64,0,.16,.05,.3,.15,.42,.1,.13,.25,.24,.46,.32,.12,.04,.48,.15,1.06,.31,.85,.23,1.45,.41,1.79,.56,.34,.15,.6,.36,.79,.63,.19,.28,.29,.62,.29,1.03s-.12,.78-.35,1.14-.57,.63-1.01,.82c-.44,.19-.94,.29-1.5,.29-.92,0-1.63-.19-2.11-.58-.48-.38-.79-.95-.93-1.71Z"/><path d="M853.09,375.24v-1.21h3.7v1.21h-3.7Z"/><path d="M857.96,378.19v-9.82h1.33l5.16,7.71v-7.71h1.25v9.82h-1.33l-5.16-7.71v7.71h-1.25Z"/><path d="M867.39,378.19v-7.11h1.08v1.08c.28-.5,.53-.84,.77-1s.49-.24,.77-.24c.41,0,.82,.13,1.24,.39l-.42,1.12c-.29-.17-.59-.26-.88-.26-.26,0-.5,.08-.71,.24-.21,.16-.36,.38-.45,.66-.13,.43-.2,.9-.2,1.41v3.72h-1.21Z"/><path d="M872,378.19v-1.37h1.37v1.37h-1.37Z"/><path d="M804.11,380.14v-1h66.64v1h-66.64Z"/><path d="M870.75,380.14v-1h3.81v1h-3.81Z"/></g><g><path d="M712.96,68.17v-9.82h3.7c.65,0,1.15,.03,1.49,.09,.48,.08,.89,.23,1.21,.46,.33,.23,.59,.54,.79,.95,.2,.41,.3,.85,.3,1.34,0,.83-.27,1.54-.8,2.12s-1.49,.87-2.88,.87h-2.52v3.99h-1.3Zm1.3-5.15h2.54c.84,0,1.43-.16,1.79-.47,.35-.31,.53-.75,.53-1.32,0-.41-.1-.76-.31-1.05-.21-.29-.48-.49-.82-.58-.22-.06-.62-.09-1.21-.09h-2.51v3.51Z"/><path d="M721.94,68.17v-7.11h1.08v1.08c.28-.5,.53-.84,.77-1s.49-.24,.77-.24c.41,0,.82,.13,1.24,.39l-.42,1.12c-.29-.17-.59-.26-.88-.26-.26,0-.5,.08-.71,.24-.21,.16-.36,.38-.45,.66-.13,.43-.2,.9-.2,1.41v3.72h-1.21Z"/><path d="M726.07,64.61c0-1.32,.37-2.29,1.1-2.93,.61-.53,1.36-.79,2.24-.79,.98,0,1.78,.32,2.4,.96s.93,1.53,.93,2.66c0,.92-.14,1.64-.41,2.16-.27,.52-.67,.93-1.2,1.22-.52,.29-1.1,.44-1.72,.44-1,0-1.8-.32-2.41-.96-.61-.64-.92-1.56-.92-2.76Zm1.24,0c0,.91,.2,1.59,.6,2.05,.4,.45,.9,.68,1.5,.68s1.1-.23,1.49-.68c.4-.46,.6-1.15,.6-2.08,0-.88-.2-1.55-.6-2s-.9-.68-1.49-.68-1.1,.23-1.5,.68c-.4,.45-.6,1.13-.6,2.04Z"/><path d="M732.61,70.93l.23-1.02c.24,.06,.43,.09,.57,.09,.25,0,.43-.08,.55-.24,.12-.16,.18-.57,.18-1.22v-7.47h1.21v7.5c0,.88-.11,1.48-.34,1.83-.29,.45-.77,.67-1.45,.67-.33,0-.64-.04-.94-.13Zm1.53-11.18v-1.4h1.21v1.4h-1.21Z"/><path d="M742.06,65.88l1.25,.15c-.2,.73-.56,1.29-1.09,1.69s-1.21,.6-2.04,.6c-1.04,0-1.87-.32-2.47-.96s-.91-1.54-.91-2.7,.31-2.12,.92-2.79c.62-.66,1.42-.99,2.4-.99s1.73,.32,2.33,.97,.9,1.56,.9,2.73c0,.07,0,.18,0,.32h-5.3c.04,.78,.27,1.38,.66,1.79,.4,.42,.89,.62,1.49,.62,.44,0,.82-.12,1.13-.35,.31-.23,.56-.6,.74-1.11Zm-3.96-1.95h3.97c-.05-.6-.21-1.05-.46-1.35-.38-.46-.88-.7-1.49-.7-.55,0-1.02,.19-1.4,.56-.38,.37-.59,.87-.63,1.49Z"/><path d="M744.83,68.17v-9.82h1.21v5.6l2.85-2.89h1.56l-2.72,2.64,2.99,4.47h-1.49l-2.35-3.64-.85,.82v2.82h-1.21Z"/><path d="M754.31,67.09l.17,1.06c-.34,.07-.64,.11-.91,.11-.44,0-.78-.07-1.02-.21s-.41-.32-.51-.55c-.1-.23-.15-.7-.15-1.42v-4.09h-.88v-.94h.88v-1.76l1.2-.72v2.48h1.21v.94h-1.21v4.16c0,.34,.02,.56,.06,.66,.04,.1,.11,.18,.21,.23s.23,.09,.41,.09c.13,0,.31-.02,.53-.05Z"/><path d="M755.02,65.22v-1.21h3.7v1.21h-3.7Z"/><path d="M760.2,68.17v-9.82h1.33l5.16,7.71v-7.71h1.25v9.82h-1.33l-5.16-7.71v7.71h-1.25Z"/><path d="M769.95,68.17v-7.11h1.08v1.08c.28-.5,.53-.84,.77-1s.49-.24,.77-.24c.41,0,.82,.13,1.24,.39l-.42,1.12c-.29-.17-.59-.26-.88-.26-.26,0-.5,.08-.71,.24-.21,.16-.36,.38-.45,.66-.13,.43-.2,.9-.2,1.41v3.72h-1.21Z"/><path d="M774.87,68.17v-1.37h1.37v1.37h-1.37Z"/><path d="M711.9,70.12v-1h65.53v1h-65.53Z"/></g><rect x="224.67" y="116.5" width="132.67" height="68" style="fill:#fff; stroke:#000; stroke-miterlimit:8; stroke-width:2px;"/><g><path d="M251.29,156.17v-11.45h3.46l2.08,7.81,2.05-7.81h3.47v11.45h-2.15v-9.02l-2.27,9.02h-2.23l-2.27-9.02v9.02h-2.15Z"/><path d="M264.6,146.74v-2.03h2.2v2.03h-2.2Zm0,9.42v-8.3h2.2v8.3h-2.2Z"/><path d="M272.84,147.87v1.75h-1.5v3.34c0,.68,.01,1.07,.04,1.18,.03,.11,.09,.2,.2,.28,.1,.07,.23,.11,.37,.11,.2,0,.5-.07,.88-.21l.19,1.7c-.51,.22-1.09,.33-1.73,.33-.4,0-.75-.07-1.07-.2s-.55-.3-.7-.52-.25-.5-.31-.86c-.05-.25-.07-.77-.07-1.55v-3.62h-1.01v-1.75h1.01v-1.65l2.2-1.28v2.93h1.5Z"/><path d="M275.95,150.4l-1.99-.36c.22-.8,.61-1.4,1.16-1.78,.55-.39,1.36-.58,2.44-.58,.98,0,1.71,.12,2.19,.35,.48,.23,.82,.53,1.01,.88,.2,.36,.29,1.01,.29,1.96l-.02,2.56c0,.73,.04,1.27,.11,1.61,.07,.35,.2,.72,.39,1.11h-2.17c-.06-.15-.13-.36-.21-.65-.04-.13-.06-.22-.08-.26-.38,.36-.78,.64-1.2,.82s-.88,.27-1.37,.27c-.85,0-1.53-.23-2.02-.7-.49-.46-.74-1.05-.74-1.76,0-.47,.11-.89,.34-1.25s.54-.65,.94-.84,.99-.37,1.75-.51c1.03-.19,1.74-.37,2.13-.54v-.22c0-.42-.1-.72-.31-.9s-.6-.27-1.18-.27c-.39,0-.7,.08-.91,.23-.22,.15-.4,.42-.53,.81Zm2.94,1.78c-.28,.09-.73,.21-1.34,.34-.61,.13-1.01,.26-1.2,.38-.29,.2-.43,.46-.43,.77s.11,.57,.34,.8c.23,.22,.52,.34,.88,.34,.4,0,.77-.13,1.13-.39,.27-.2,.44-.44,.52-.73,.06-.19,.09-.54,.09-1.07v-.44Z"/><path d="M285.31,156.17h-2.2v-8.3h2.04v1.18c.35-.56,.66-.92,.94-1.1,.28-.18,.59-.27,.95-.27,.5,0,.98,.14,1.45,.41l-.68,1.91c-.37-.24-.71-.36-1.03-.36s-.57,.08-.78,.25c-.21,.17-.38,.48-.5,.92-.12,.44-.18,1.37-.18,2.78v2.56Z"/><path d="M289.34,156.17v-11.45h2.2v4.12c.68-.77,1.48-1.16,2.41-1.16,1.01,0,1.85,.37,2.51,1.1,.66,.73,.99,1.78,.99,3.15s-.34,2.51-1.01,3.27-1.49,1.15-2.46,1.15c-.47,0-.94-.12-1.4-.36s-.86-.59-1.19-1.05v1.22h-2.04Zm2.18-4.33c0,.86,.14,1.5,.41,1.91,.38,.58,.89,.88,1.52,.88,.48,0,.9-.21,1.24-.62s.51-1.07,.51-1.96c0-.95-.17-1.63-.52-2.05-.34-.42-.78-.63-1.32-.63s-.96,.2-1.31,.61c-.35,.41-.52,1.03-.52,1.86Z"/><path d="M304.05,153.53l2.19,.37c-.28,.8-.73,1.41-1.33,1.83-.61,.42-1.37,.63-2.28,.63-1.44,0-2.51-.47-3.2-1.41-.55-.75-.82-1.71-.82-2.86,0-1.38,.36-2.45,1.08-3.23,.72-.78,1.63-1.17,2.73-1.17,1.23,0,2.21,.41,2.92,1.22,.71,.82,1.05,2.06,1.02,3.75h-5.5c.02,.65,.19,1.16,.53,1.52,.34,.36,.76,.54,1.27,.54,.34,0,.63-.09,.87-.28s.41-.49,.53-.91Zm.12-2.22c-.02-.64-.18-1.12-.49-1.45-.31-.33-.69-.5-1.14-.5-.48,0-.88,.17-1.19,.52-.31,.35-.47,.82-.46,1.42h3.28Z"/><path d="M308.14,146.74v-2.03h2.2v2.03h-2.2Zm0,9.42v-8.3h2.2v8.3h-2.2Z"/><path d="M316.37,147.87v1.75h-1.5v3.34c0,.68,.01,1.07,.04,1.18,.03,.11,.09,.2,.2,.28,.1,.07,.23,.11,.37,.11,.2,0,.5-.07,.88-.21l.19,1.7c-.51,.22-1.09,.33-1.73,.33-.4,0-.75-.07-1.07-.2s-.55-.3-.7-.52-.25-.5-.31-.86c-.05-.25-.07-.77-.07-1.55v-3.62h-1.01v-1.75h1.01v-1.65l2.2-1.28v2.93h1.5Z"/><path d="M322.65,153.53l2.19,.37c-.28,.8-.73,1.41-1.33,1.83-.61,.42-1.37,.63-2.28,.63-1.44,0-2.51-.47-3.2-1.41-.55-.75-.82-1.71-.82-2.86,0-1.38,.36-2.45,1.08-3.23,.72-.78,1.63-1.17,2.73-1.17,1.23,0,2.21,.41,2.92,1.22,.71,.82,1.05,2.06,1.02,3.75h-5.5c.02,.65,.19,1.16,.53,1.52,.34,.36,.76,.54,1.27,.54,.34,0,.63-.09,.87-.28s.41-.49,.53-.91Zm.12-2.22c-.02-.64-.18-1.12-.49-1.45-.31-.33-.69-.5-1.14-.5-.48,0-.88,.17-1.19,.52-.31,.35-.47,.82-.46,1.42h3.28Z"/><path d="M328.87,156.17h-2.2v-8.3h2.04v1.18c.35-.56,.66-.92,.94-1.1,.28-.18,.59-.27,.95-.27,.5,0,.98,.14,1.45,.41l-.68,1.91c-.37-.24-.71-.36-1.03-.36s-.57,.08-.78,.25c-.21,.17-.38,.48-.5,.92-.12,.44-.18,1.37-.18,2.78v2.56Z"/></g><polygon points="233.33 262.5 291 237.17 348.67 262.5 291 287.83 233.33 262.5" style="fill:none; stroke:#000; stroke-miterlimit:8;"/><g><path d="M273.52,263.88l1.25,.15c-.2,.73-.56,1.29-1.09,1.69s-1.21,.6-2.04,.6c-1.04,0-1.87-.32-2.47-.96s-.91-1.54-.91-2.7,.31-2.12,.92-2.79c.62-.66,1.42-.99,2.4-.99s1.73,.32,2.33,.97,.9,1.56,.9,2.73c0,.07,0,.18,0,.32h-5.3c.04,.78,.27,1.38,.66,1.79,.4,.42,.89,.62,1.49,.62,.44,0,.82-.12,1.13-.35,.31-.23,.56-.6,.74-1.11Zm-3.96-1.95h3.97c-.05-.6-.21-1.05-.46-1.35-.38-.46-.88-.7-1.49-.7-.55,0-1.02,.19-1.4,.56-.38,.37-.59,.87-.63,1.49Z"/><path d="M276.22,266.17v-7.11h1.08v1.08c.28-.5,.53-.84,.77-1s.49-.24,.77-.24c.41,0,.82,.13,1.24,.39l-.42,1.12c-.29-.17-.59-.26-.88-.26-.26,0-.5,.08-.71,.24-.21,.16-.36,.38-.45,.66-.13,.43-.2,.9-.2,1.41v3.72h-1.21Z"/><path d="M282.01,266.17h-1.12v-9.82h1.21v3.5c.51-.64,1.16-.96,1.95-.96,.44,0,.85,.09,1.24,.26s.71,.42,.96,.74c.25,.32,.45,.7,.59,1.16,.14,.45,.21,.93,.21,1.45,0,1.22-.3,2.16-.9,2.83-.6,.67-1.33,1-2.17,1s-1.5-.35-1.98-1.05v.89Zm-.01-3.61c0,.85,.12,1.47,.35,1.85,.38,.62,.89,.93,1.54,.93,.53,0,.98-.23,1.37-.69s.58-1.14,.58-2.05-.18-1.61-.55-2.06-.81-.66-1.34-.66-.98,.23-1.37,.69-.58,1.12-.58,1.99Z"/><path d="M288.5,266.17v-7.11h1.08v1.08c.28-.5,.53-.84,.77-1s.49-.24,.77-.24c.41,0,.82,.13,1.24,.39l-.42,1.12c-.29-.17-.59-.26-.88-.26-.26,0-.5,.08-.71,.24-.21,.16-.36,.38-.45,.66-.13,.43-.2,.9-.2,1.41v3.72h-1.21Z"/><path d="M293.18,257.74v-1.39h1.21v1.39h-1.21Zm0,8.43v-7.11h1.21v7.11h-1.21Z"/><path d="M296.15,266.17v-7.11h1.08v1.01c.52-.78,1.28-1.17,2.26-1.17,.43,0,.82,.08,1.18,.23,.36,.15,.63,.36,.81,.61s.3,.55,.38,.89c.04,.22,.07,.61,.07,1.17v4.37h-1.21v-4.33c0-.49-.05-.86-.14-1.1-.09-.24-.26-.44-.5-.58-.24-.15-.52-.22-.84-.22-.51,0-.96,.16-1.33,.49-.37,.33-.56,.94-.56,1.85v3.88h-1.21Z"/><path d="M303.5,266.76l1.17,.17c.05,.36,.19,.62,.41,.79,.3,.22,.71,.33,1.23,.33,.56,0,.99-.11,1.29-.33,.3-.22,.51-.54,.62-.94,.06-.25,.09-.76,.09-1.55-.53,.62-1.18,.93-1.97,.93-.98,0-1.73-.35-2.27-1.06-.54-.71-.8-1.55-.8-2.54,0-.68,.12-1.3,.37-1.88,.25-.57,.6-1.02,1.07-1.33,.47-.31,1.01-.47,1.64-.47,.84,0,1.53,.34,2.08,1.02v-.86h1.11v6.15c0,1.11-.11,1.89-.34,2.35-.23,.46-.58,.83-1.07,1.09-.49,.27-1.09,.4-1.8,.4-.85,0-1.53-.19-2.06-.57-.52-.38-.77-.96-.76-1.72Zm1-4.27c0,.93,.19,1.61,.56,2.04,.37,.43,.83,.64,1.39,.64s1.02-.21,1.39-.64,.56-1.09,.56-2.01-.19-1.53-.58-1.97c-.39-.44-.85-.66-1.4-.66s-.99,.22-1.37,.65c-.38,.44-.56,1.08-.56,1.94Z"/><path d="M313.98,265.09l.17,1.06c-.34,.07-.64,.11-.91,.11-.44,0-.78-.07-1.02-.21s-.41-.32-.51-.55c-.1-.23-.15-.7-.15-1.42v-4.09h-.88v-.94h.88v-1.76l1.2-.72v2.48h1.21v.94h-1.21v4.16c0,.34,.02,.56,.06,.66,.04,.1,.11,.18,.21,.23s.23,.09,.41,.09c.13,0,.31-.02,.53-.05Z"/></g><line x1="291.33" y1="184.5" x2="291.33" y2="237.48" style="fill:none; stroke:#000; stroke-miterlimit:8;"/><path d="M303.3,205.5h-1.21v-7.68c-.29,.28-.67,.55-1.14,.83-.47,.28-.89,.48-1.27,.62v-1.17c.67-.32,1.26-.7,1.77-1.15,.5-.45,.86-.89,1.07-1.31h.78v9.86Z"/><ellipse cx="232.67" cy="63.5" rx="47.33" ry="22.33" style="fill:none; stroke:#000; stroke-miterlimit:8;"/><g><path d="M215.41,68.17v-9.82h1.33l5.16,7.71v-7.71h1.25v9.82h-1.33l-5.16-7.71v7.71h-1.25Z"/><path d="M229.84,67.29c-.45,.38-.88,.65-1.29,.8s-.86,.23-1.33,.23c-.78,0-1.38-.19-1.8-.57-.42-.38-.63-.87-.63-1.46,0-.35,.08-.67,.24-.95,.16-.29,.37-.52,.62-.69,.26-.17,.54-.31,.87-.4,.24-.06,.59-.12,1.07-.18,.97-.12,1.69-.25,2.15-.42,0-.17,0-.27,0-.31,0-.49-.11-.84-.34-1.04-.31-.27-.77-.41-1.37-.41-.57,0-.99,.1-1.25,.3-.27,.2-.47,.55-.6,1.05l-1.18-.16c.11-.5,.28-.91,.53-1.22,.25-.31,.6-.55,1.06-.72,.46-.17,1-.25,1.61-.25s1.1,.07,1.48,.21c.38,.14,.66,.32,.84,.54,.18,.22,.3,.49,.38,.82,.04,.21,.06,.58,.06,1.11v1.61c0,1.12,.03,1.83,.08,2.13,.05,.3,.15,.58,.3,.85h-1.26c-.12-.25-.21-.54-.24-.88Zm-.1-2.69c-.44,.18-1.09,.33-1.97,.46-.5,.07-.85,.15-1.05,.24-.21,.09-.36,.22-.48,.39-.11,.17-.17,.36-.17,.57,0,.32,.12,.59,.37,.8s.6,.32,1.07,.32,.88-.1,1.24-.3c.36-.2,.63-.48,.8-.83,.13-.27,.19-.67,.19-1.21v-.44Z"/><path d="M232.76,68.17v-7.11h1.08v1c.22-.35,.52-.63,.89-.84,.37-.21,.79-.32,1.27-.32,.53,0,.96,.11,1.3,.33,.34,.22,.57,.52,.71,.92,.56-.83,1.29-1.25,2.2-1.25,.71,0,1.25,.2,1.63,.59,.38,.39,.57,.99,.57,1.8v4.88h-1.2v-4.48c0-.48-.04-.83-.12-1.04-.08-.21-.22-.38-.43-.51-.21-.13-.45-.19-.72-.19-.5,0-.92,.17-1.25,.5-.33,.33-.5,.87-.5,1.6v4.13h-1.21v-4.62c0-.54-.1-.94-.29-1.21-.2-.27-.52-.4-.96-.4-.34,0-.65,.09-.94,.27-.29,.18-.5,.44-.63,.78-.13,.34-.19,.84-.19,1.49v3.69h-1.21Z"/><path d="M249.12,65.88l1.25,.15c-.2,.73-.56,1.29-1.09,1.69s-1.21,.6-2.04,.6c-1.04,0-1.87-.32-2.47-.96s-.91-1.54-.91-2.7,.31-2.12,.92-2.79c.62-.66,1.42-.99,2.4-.99s1.73,.32,2.33,.97,.9,1.56,.9,2.73c0,.07,0,.18,0,.32h-5.3c.04,.78,.27,1.38,.66,1.79,.4,.42,.89,.62,1.49,.62,.44,0,.82-.12,1.13-.35,.31-.23,.56-.6,.74-1.11Zm-3.96-1.95h3.97c-.05-.6-.21-1.05-.46-1.35-.38-.46-.88-.7-1.49-.7-.55,0-1.02,.19-1.4,.56-.38,.37-.59,.87-.63,1.49Z"/></g><ellipse cx="148.67" cy="150.17" rx="47.33" ry="22.33" style="fill:none; stroke:#000; stroke-miterlimit:8;"/><g><path d="M111.23,151.01l1.23-.11c.06,.49,.19,.89,.41,1.21,.21,.31,.54,.57,.99,.76s.95,.29,1.51,.29c.5,0,.93-.07,1.31-.22,.38-.15,.66-.35,.85-.61,.19-.26,.28-.54,.28-.84s-.09-.58-.27-.81c-.18-.23-.47-.42-.88-.58-.26-.1-.85-.26-1.75-.48-.9-.22-1.53-.42-1.9-.61-.47-.25-.82-.55-1.05-.91-.23-.36-.34-.77-.34-1.22,0-.5,.14-.96,.42-1.39s.69-.76,1.23-.98c.54-.22,1.14-.33,1.8-.33,.73,0,1.37,.12,1.93,.35,.56,.23,.98,.58,1.28,1.03,.3,.46,.46,.97,.48,1.55l-1.25,.09c-.07-.62-.29-1.09-.68-1.41s-.96-.48-1.71-.48-1.36,.14-1.72,.43c-.36,.29-.54,.63-.54,1.04,0,.35,.13,.64,.38,.87,.25,.23,.9,.46,1.96,.7s1.78,.45,2.17,.63c.57,.26,.99,.6,1.27,1,.27,.4,.41,.87,.41,1.4s-.15,1.01-.45,1.48c-.3,.46-.73,.82-1.29,1.08-.56,.26-1.19,.39-1.89,.39-.89,0-1.63-.13-2.23-.39-.6-.26-1.07-.65-1.41-1.17s-.52-1.11-.54-1.76Z"/><path d="M123.38,153.09l.17,1.06c-.34,.07-.64,.11-.91,.11-.44,0-.78-.07-1.02-.21s-.41-.32-.51-.55c-.1-.23-.15-.7-.15-1.42v-4.09h-.88v-.94h.88v-1.76l1.2-.72v2.48h1.21v.94h-1.21v4.16c0,.34,.02,.56,.06,.66,.04,.1,.11,.18,.21,.23s.23,.09,.41,.09c.13,0,.31-.02,.53-.05Z"/><path d="M129.16,154.17v-1.04c-.55,.8-1.31,1.21-2.26,1.21-.42,0-.81-.08-1.17-.24-.36-.16-.63-.36-.81-.61-.18-.24-.3-.54-.37-.89-.05-.24-.07-.61-.07-1.12v-4.41h1.21v3.94c0,.63,.02,1.05,.07,1.27,.08,.32,.24,.57,.48,.75,.25,.18,.55,.27,.91,.27s.7-.09,1.02-.28c.32-.19,.54-.44,.67-.76,.13-.32,.2-.78,.2-1.39v-3.81h1.21v7.11h-1.08Z"/><path d="M132.1,154.17v-7.11h1.08v1.01c.52-.78,1.28-1.17,2.26-1.17,.43,0,.82,.08,1.18,.23,.36,.15,.63,.36,.81,.61s.3,.55,.38,.89c.04,.22,.07,.61,.07,1.17v4.37h-1.21v-4.33c0-.49-.05-.86-.14-1.1-.09-.24-.26-.44-.5-.58-.24-.15-.52-.22-.84-.22-.51,0-.96,.16-1.33,.49-.37,.33-.56,.94-.56,1.85v3.88h-1.21Z"/><path d="M144.29,154.17v-.9c-.45,.71-1.11,1.06-1.99,1.06-.57,0-1.09-.16-1.56-.47-.48-.31-.84-.75-1.11-1.31-.26-.56-.39-1.2-.39-1.93s.12-1.35,.35-1.93c.24-.58,.59-1.02,1.07-1.33,.47-.31,1-.46,1.59-.46,.43,0,.81,.09,1.14,.27,.33,.18,.61,.42,.82,.71v-3.52h1.2v9.82h-1.12Zm-3.81-3.55c0,.91,.19,1.59,.58,2.04,.38,.45,.84,.68,1.36,.68s.97-.22,1.34-.65,.55-1.09,.55-1.97c0-.97-.19-1.69-.56-2.14-.38-.46-.84-.68-1.39-.68s-.98,.22-1.34,.66-.54,1.13-.54,2.07Z"/><path d="M152.14,151.88l1.25,.15c-.2,.73-.56,1.29-1.09,1.69s-1.21,.6-2.04,.6c-1.04,0-1.87-.32-2.47-.96s-.91-1.54-.91-2.7,.31-2.12,.92-2.79c.62-.66,1.42-.99,2.4-.99s1.73,.32,2.33,.97,.9,1.56,.9,2.73c0,.07,0,.18,0,.32h-5.3c.04,.78,.27,1.38,.66,1.79,.4,.42,.89,.62,1.49,.62,.44,0,.82-.12,1.13-.35,.31-.23,.56-.6,.74-1.11Zm-3.96-1.95h3.97c-.05-.6-.21-1.05-.46-1.35-.38-.46-.88-.7-1.49-.7-.55,0-1.02,.19-1.4,.56-.38,.37-.59,.87-.63,1.49Z"/><path d="M154.85,154.17v-7.11h1.08v1.01c.52-.78,1.28-1.17,2.26-1.17,.43,0,.82,.08,1.18,.23,.36,.15,.63,.36,.81,.61s.3,.55,.38,.89c.04,.22,.07,.61,.07,1.17v4.37h-1.21v-4.33c0-.49-.05-.86-.14-1.1-.09-.24-.26-.44-.5-.58-.24-.15-.52-.22-.84-.22-.51,0-.96,.16-1.33,.49-.37,.33-.56,.94-.56,1.85v3.88h-1.21Z"/><path d="M161.99,152.04l1.19-.19c.07,.48,.25,.84,.56,1.1s.73,.38,1.28,.38,.96-.11,1.23-.34,.4-.49,.4-.79c0-.27-.12-.49-.35-.64-.17-.11-.58-.24-1.23-.41-.88-.22-1.5-.42-1.84-.58-.34-.16-.6-.39-.78-.68-.18-.29-.26-.61-.26-.95,0-.32,.07-.61,.22-.88,.14-.27,.34-.49,.59-.67,.19-.14,.44-.26,.77-.35,.32-.1,.67-.14,1.04-.14,.56,0,1.05,.08,1.47,.24s.73,.38,.93,.65c.2,.27,.34,.64,.42,1.1l-1.18,.16c-.05-.37-.21-.65-.47-.86-.26-.21-.62-.31-1.09-.31-.55,0-.95,.09-1.19,.27-.24,.18-.35,.4-.35,.64,0,.16,.05,.3,.15,.42,.1,.13,.25,.24,.46,.32,.12,.04,.48,.15,1.06,.31,.85,.23,1.45,.41,1.79,.56,.34,.15,.6,.36,.79,.63,.19,.28,.29,.62,.29,1.03s-.12,.78-.35,1.14-.57,.63-1.01,.82c-.44,.19-.94,.29-1.5,.29-.92,0-1.63-.19-2.11-.58-.48-.38-.79-.95-.93-1.71Z"/><path d="M173.97,153.29c-.45,.38-.88,.65-1.29,.8s-.86,.23-1.33,.23c-.78,0-1.38-.19-1.8-.57-.42-.38-.63-.87-.63-1.46,0-.35,.08-.67,.24-.95,.16-.29,.37-.52,.62-.69,.26-.17,.54-.31,.87-.4,.24-.06,.59-.12,1.07-.18,.97-.12,1.69-.25,2.15-.42,0-.17,0-.27,0-.31,0-.49-.11-.84-.34-1.04-.31-.27-.77-.41-1.37-.41-.57,0-.99,.1-1.25,.3-.27,.2-.47,.55-.6,1.05l-1.18-.16c.11-.5,.28-.91,.53-1.22,.25-.31,.6-.55,1.06-.72,.46-.17,1-.25,1.61-.25s1.1,.07,1.48,.21c.38,.14,.66,.32,.84,.54,.18,.22,.3,.49,.38,.82,.04,.21,.06,.58,.06,1.11v1.61c0,1.12,.03,1.83,.08,2.13,.05,.3,.15,.58,.3,.85h-1.26c-.12-.25-.21-.54-.24-.88Zm-.1-2.69c-.44,.18-1.09,.33-1.97,.46-.5,.07-.85,.15-1.05,.24-.21,.09-.36,.22-.48,.39-.11,.17-.17,.36-.17,.57,0,.32,.12,.59,.37,.8s.6,.32,1.07,.32,.88-.1,1.24-.3c.36-.2,.63-.48,.8-.83,.13-.27,.19-.67,.19-1.21v-.44Z"/><path d="M179.59,153.09l.17,1.06c-.34,.07-.64,.11-.91,.11-.44,0-.78-.07-1.02-.21s-.41-.32-.51-.55c-.1-.23-.15-.7-.15-1.42v-4.09h-.88v-.94h.88v-1.76l1.2-.72v2.48h1.21v.94h-1.21v4.16c0,.34,.02,.56,.06,.66,.04,.1,.11,.18,.21,.23s.23,.09,.41,.09c.13,0,.31-.02,.53-.05Z"/><path d="M180.13,154.17v-.98l4.53-5.2c-.51,.03-.97,.04-1.36,.04h-2.9v-.98h5.81v.8l-3.85,4.51-.74,.82c.54-.04,1.05-.06,1.52-.06h3.29v1.04h-6.29Z"/></g><line x1="196" y1="150.5" x2="224.89" y2="150.5" style="fill:none; stroke:#000; stroke-miterlimit:8;"/><line x1="342.78" y1="85.83" x2="291.33" y2="116.41" style="fill:none; stroke:#000; stroke-miterlimit:8;"/><line x1="232.67" y1="85.83" x2="291.28" y2="116.41" style="fill:none; stroke:#000; stroke-miterlimit:8;"/><rect x="224.67" y="340.5" width="132.67" height="68" style="fill:#fff; stroke:#000; stroke-miterlimit:8; stroke-width:2px;"/><g><path d="M258.94,381.12v-11.36h2.31v9.43h5.75v1.93h-8.06Z"/><path d="M273.44,378.48l2.19,.37c-.28,.8-.73,1.41-1.33,1.83-.61,.42-1.37,.63-2.28,.63-1.44,0-2.51-.47-3.2-1.41-.55-.75-.82-1.71-.82-2.86,0-1.38,.36-2.45,1.08-3.23,.72-.78,1.63-1.17,2.73-1.17,1.23,0,2.21,.41,2.92,1.22,.71,.82,1.05,2.06,1.02,3.75h-5.5c.02,.65,.19,1.16,.53,1.52,.34,.36,.76,.54,1.27,.54,.34,0,.63-.09,.87-.28s.41-.49,.53-.91Zm.12-2.22c-.02-.64-.18-1.12-.49-1.45-.31-.33-.69-.5-1.14-.5-.48,0-.88,.17-1.19,.52-.31,.35-.47,.82-.46,1.42h3.28Z"/><path d="M277.55,371.7v-2.03h2.2v2.03h-2.2Zm0,9.42v-8.3h2.2v8.3h-2.2Z"/><path d="M281.19,378.76l2.2-.34c.09,.43,.28,.75,.57,.97,.29,.22,.69,.33,1.2,.33,.57,0,1-.1,1.28-.31,.19-.15,.29-.34,.29-.59,0-.17-.05-.3-.16-.41-.11-.1-.35-.2-.73-.29-1.77-.39-2.89-.75-3.37-1.07-.66-.45-.98-1.07-.98-1.87,0-.72,.28-1.32,.85-1.81,.57-.49,1.45-.73,2.64-.73s1.98,.19,2.53,.55c.55,.37,.93,.92,1.14,1.64l-2.07,.38c-.09-.32-.26-.57-.5-.74s-.6-.26-1.06-.26c-.58,0-.99,.08-1.24,.24-.17,.11-.25,.26-.25,.45,0,.16,.07,.29,.22,.4,.2,.15,.88,.35,2.05,.62s1.99,.59,2.45,.98c.46,.39,.69,.94,.69,1.63,0,.76-.32,1.41-.95,1.96s-1.58,.82-2.82,.82c-1.13,0-2.02-.23-2.68-.69-.66-.46-1.09-1.08-1.29-1.87Z"/><path d="M294.66,372.83v1.75h-1.5v3.34c0,.68,.01,1.07,.04,1.18,.03,.11,.09,.2,.2,.28,.1,.07,.23,.11,.37,.11,.2,0,.5-.07,.88-.21l.19,1.7c-.51,.22-1.09,.33-1.73,.33-.4,0-.75-.07-1.07-.2s-.55-.3-.7-.52-.25-.5-.31-.86c-.05-.25-.07-.77-.07-1.55v-3.62h-1.01v-1.75h1.01v-1.65l2.2-1.28v2.93h1.5Z"/><path d="M301.6,381.12v-1.24c-.3,.44-.7,.79-1.19,1.05s-1.01,.38-1.56,.38-1.06-.12-1.5-.37-.76-.59-.96-1.03c-.2-.44-.3-1.05-.3-1.84v-5.25h2.2v3.81c0,1.17,.04,1.88,.12,2.14,.08,.26,.23,.47,.44,.62,.21,.15,.48,.23,.81,.23,.38,0,.71-.1,1.01-.31,.3-.21,.5-.46,.61-.77s.16-1.05,.16-2.24v-3.5h2.2v8.3h-2.04Z"/><path d="M313.51,381.12h-2.2v-4.23c0-.9-.05-1.48-.14-1.74-.09-.26-.25-.47-.46-.61-.21-.15-.46-.22-.76-.22-.38,0-.72,.1-1.02,.31-.3,.21-.51,.48-.62,.83s-.17,.98-.17,1.91v3.76h-2.2v-8.3h2.04v1.22c.72-.94,1.64-1.41,2.73-1.41,.48,0,.93,.09,1.33,.26,.4,.17,.7,.4,.91,.67,.21,.27,.35,.58,.43,.92s.12,.84,.12,1.48v5.16Z"/><path d="M315.55,381.67l2.51,.3c.04,.29,.14,.49,.29,.6,.21,.16,.54,.23,.98,.23,.57,0,1-.09,1.29-.26,.19-.11,.34-.3,.44-.55,.07-.18,.1-.52,.1-1.01v-1.21c-.66,.9-1.48,1.34-2.48,1.34-1.11,0-2-.47-2.65-1.41-.51-.74-.77-1.67-.77-2.78,0-1.39,.33-2.45,1-3.19s1.5-1.1,2.5-1.1,1.87,.45,2.54,1.35v-1.16h2.05v7.45c0,.98-.08,1.71-.24,2.2s-.39,.86-.68,1.14c-.29,.28-.68,.49-1.17,.65s-1.1,.23-1.85,.23c-1.41,0-2.4-.24-2.99-.72-.59-.48-.88-1.09-.88-1.83,0-.07,0-.16,0-.27Zm1.96-4.87c0,.88,.17,1.52,.51,1.93,.34,.41,.76,.61,1.26,.61,.54,0,.99-.21,1.36-.63,.37-.42,.55-1.04,.55-1.86s-.18-1.5-.53-1.91c-.35-.42-.8-.62-1.34-.62s-.96,.2-1.3,.61c-.34,.41-.51,1.03-.51,1.87Z"/></g><line x1="291.33" y1="340.81" x2="291.33" y2="287.83" style="fill:none; stroke:#000; stroke-miterlimit:8;"/><ellipse cx="342.67" cy="461.5" rx="47.33" ry="22.33" style="fill:none; stroke:#000; stroke-miterlimit:8;"/><g><path d="M317.85,462.22l1.23-.11c.06,.49,.19,.89,.41,1.21,.21,.31,.54,.57,.99,.76s.95,.29,1.51,.29c.5,0,.93-.07,1.31-.22,.38-.15,.66-.35,.85-.61,.19-.26,.28-.54,.28-.84s-.09-.58-.27-.81c-.18-.23-.47-.42-.88-.58-.26-.1-.85-.26-1.75-.48-.9-.22-1.53-.42-1.9-.61-.47-.25-.82-.55-1.05-.91-.23-.36-.34-.77-.34-1.22,0-.5,.14-.96,.42-1.39s.69-.76,1.23-.98c.54-.22,1.14-.33,1.8-.33,.73,0,1.37,.12,1.93,.35,.56,.23,.98,.58,1.28,1.03,.3,.46,.46,.97,.48,1.55l-1.25,.09c-.07-.62-.29-1.09-.68-1.41s-.96-.48-1.71-.48-1.36,.14-1.72,.43c-.36,.29-.54,.63-.54,1.04,0,.35,.13,.64,.38,.87,.25,.23,.9,.46,1.96,.7s1.78,.45,2.17,.63c.57,.26,.99,.6,1.27,1,.27,.4,.41,.87,.41,1.4s-.15,1.01-.45,1.48c-.3,.46-.73,.82-1.29,1.08-.56,.26-1.19,.39-1.89,.39-.89,0-1.63-.13-2.23-.39-.6-.26-1.07-.65-1.41-1.17s-.52-1.11-.54-1.76Z"/><path d="M329.98,464.29l.17,1.06c-.34,.07-.64,.11-.91,.11-.44,0-.78-.07-1.02-.21s-.41-.32-.51-.55c-.1-.23-.15-.7-.15-1.42v-4.09h-.88v-.94h.88v-1.76l1.2-.72v2.48h1.21v.94h-1.21v4.16c0,.34,.02,.56,.06,.66,.04,.1,.11,.18,.21,.23s.23,.09,.41,.09c.13,0,.31-.02,.53-.05Z"/><path d="M335.83,465.37v-1.04c-.55,.8-1.31,1.21-2.26,1.21-.42,0-.81-.08-1.17-.24-.36-.16-.63-.36-.81-.61-.18-.24-.3-.54-.37-.89-.05-.24-.07-.61-.07-1.12v-4.41h1.21v3.94c0,.63,.02,1.05,.07,1.27,.08,.32,.24,.57,.48,.75,.25,.18,.55,.27,.91,.27s.7-.09,1.02-.28c.32-.19,.54-.44,.67-.76,.13-.32,.2-.78,.2-1.39v-3.81h1.21v7.11h-1.08Z"/><path d="M338.78,465.37v-7.11h1.08v1.01c.52-.78,1.28-1.17,2.26-1.17,.43,0,.82,.08,1.18,.23,.36,.15,.63,.36,.81,.61s.3,.55,.38,.89c.04,.22,.07,.61,.07,1.17v4.37h-1.21v-4.33c0-.49-.05-.86-.14-1.1-.09-.24-.26-.44-.5-.58-.24-.15-.52-.22-.84-.22-.51,0-.96,.16-1.33,.49-.37,.33-.56,.94-.56,1.85v3.88h-1.21Z"/><path d="M350.98,465.37v-.9c-.45,.71-1.11,1.06-1.99,1.06-.57,0-1.09-.16-1.56-.47-.48-.31-.84-.75-1.11-1.31-.26-.56-.39-1.2-.39-1.93s.12-1.35,.35-1.93c.24-.58,.59-1.02,1.07-1.33,.47-.31,1-.46,1.59-.46,.43,0,.81,.09,1.14,.27,.33,.18,.61,.42,.82,.71v-3.52h1.2v9.82h-1.12Zm-3.81-3.55c0,.91,.19,1.59,.58,2.04,.38,.45,.84,.68,1.36,.68s.97-.22,1.34-.65,.55-1.09,.55-1.97c0-.97-.19-1.69-.56-2.14-.38-.46-.84-.68-1.39-.68s-.98,.22-1.34,.66-.54,1.13-.54,2.07Z"/><path d="M358.84,463.08l1.25,.15c-.2,.73-.56,1.29-1.09,1.69s-1.21,.6-2.04,.6c-1.04,0-1.87-.32-2.47-.96s-.91-1.54-.91-2.7,.31-2.12,.92-2.79c.62-.66,1.42-.99,2.4-.99s1.73,.32,2.33,.97,.9,1.56,.9,2.73c0,.07,0,.18,0,.32h-5.3c.04,.78,.27,1.38,.66,1.79,.4,.42,.89,.62,1.49,.62,.44,0,.82-.12,1.13-.35,.31-.23,.56-.6,.74-1.11Zm-3.96-1.95h3.97c-.05-.6-.21-1.05-.46-1.35-.38-.46-.88-.7-1.49-.7-.55,0-1.02,.19-1.4,.56-.38,.37-.59,.87-.63,1.49Z"/><path d="M361.6,465.37v-7.11h1.08v1.01c.52-.78,1.28-1.17,2.26-1.17,.43,0,.82,.08,1.18,.23,.36,.15,.63,.36,.81,.61s.3,.55,.38,.89c.04,.22,.07,.61,.07,1.17v4.37h-1.21v-4.33c0-.49-.05-.86-.14-1.1-.09-.24-.26-.44-.5-.58-.24-.15-.52-.22-.84-.22-.51,0-.96,.16-1.33,.49-.37,.33-.56,.94-.56,1.85v3.88h-1.21Z"/></g><ellipse cx="232.67" cy="461.5" rx="47.33" ry="22.33" style="fill:none; stroke:#000; stroke-miterlimit:8;"/><g><path d="M214.71,465.37v-9.82h1.96l2.32,6.95c.21,.65,.37,1.13,.47,1.45,.11-.36,.29-.88,.52-1.57l2.35-6.83h1.75v9.82h-1.25v-8.22l-2.85,8.22h-1.17l-2.84-8.36v8.36h-1.25Z"/><path d="M225.57,461.81c0-1.32,.37-2.29,1.1-2.93,.61-.53,1.36-.79,2.24-.79,.98,0,1.78,.32,2.4,.96s.93,1.53,.93,2.66c0,.92-.14,1.64-.41,2.16-.27,.52-.67,.93-1.2,1.22-.52,.29-1.1,.44-1.72,.44-1,0-1.8-.32-2.41-.96-.61-.64-.92-1.56-.92-2.76Zm1.24,0c0,.91,.2,1.59,.6,2.05,.4,.45,.9,.68,1.5,.68s1.1-.23,1.49-.68c.4-.46,.6-1.15,.6-2.08,0-.88-.2-1.55-.6-2s-.9-.68-1.49-.68-1.1,.23-1.5,.68c-.4,.45-.6,1.13-.6,2.04Z"/><path d="M233.58,465.37v-7.11h1.08v1.01c.52-.78,1.28-1.17,2.26-1.17,.43,0,.82,.08,1.18,.23,.36,.15,.63,.36,.81,.61s.3,.55,.38,.89c.04,.22,.07,.61,.07,1.17v4.37h-1.21v-4.33c0-.49-.05-.86-.14-1.1-.09-.24-.26-.44-.5-.58-.24-.15-.52-.22-.84-.22-.51,0-.96,.16-1.33,.49-.37,.33-.56,.94-.56,1.85v3.88h-1.21Z"/><path d="M245.82,464.49c-.45,.38-.88,.65-1.29,.8s-.86,.23-1.33,.23c-.78,0-1.38-.19-1.8-.57-.42-.38-.63-.87-.63-1.46,0-.35,.08-.67,.24-.95,.16-.29,.37-.52,.62-.69,.26-.17,.54-.31,.87-.4,.24-.06,.59-.12,1.07-.18,.97-.12,1.69-.25,2.15-.42,0-.17,0-.27,0-.31,0-.49-.11-.84-.34-1.04-.31-.27-.77-.41-1.37-.41-.57,0-.99,.1-1.25,.3-.27,.2-.47,.55-.6,1.05l-1.18-.16c.11-.5,.28-.91,.53-1.22,.25-.31,.6-.55,1.06-.72,.46-.17,1-.25,1.61-.25s1.1,.07,1.48,.21c.38,.14,.66,.32,.84,.54,.18,.22,.3,.49,.38,.82,.04,.21,.06,.58,.06,1.11v1.61c0,1.12,.03,1.83,.08,2.13,.05,.3,.15,.58,.3,.85h-1.26c-.12-.25-.21-.54-.24-.88Zm-.1-2.69c-.44,.18-1.09,.33-1.97,.46-.5,.07-.85,.15-1.05,.24-.21,.09-.36,.22-.48,.39-.11,.17-.17,.36-.17,.57,0,.32,.12,.59,.37,.8s.6,.32,1.07,.32,.88-.1,1.24-.3c.36-.2,.63-.48,.8-.83,.13-.27,.19-.67,.19-1.21v-.44Z"/><path d="M251.37,464.29l.17,1.06c-.34,.07-.64,.11-.91,.11-.44,0-.78-.07-1.02-.21s-.41-.32-.51-.55c-.1-.23-.15-.7-.15-1.42v-4.09h-.88v-.94h.88v-1.76l1.2-.72v2.48h1.21v.94h-1.21v4.16c0,.34,.02,.56,.06,.66,.04,.1,.11,.18,.21,.23s.23,.09,.41,.09c.13,0,.31-.02,.53-.05Z"/></g><line x1="342.78" y1="439.25" x2="291.33" y2="408.5" style="fill:none; stroke:#000; stroke-miterlimit:8;"/><line x1="232.67" y1="439.25" x2="291.28" y2="408.5" style="fill:none; stroke:#000; stroke-miterlimit:8;"/><path d="M297.84,330.83v-7.11h1.08v1.01c.52-.78,1.28-1.17,2.26-1.17,.43,0,.82,.08,1.18,.23,.36,.15,.63,.36,.81,.61s.3,.55,.38,.89c.04,.22,.07,.61,.07,1.17v4.37h-1.21v-4.33c0-.49-.05-.86-.14-1.1-.09-.24-.26-.44-.5-.58-.24-.15-.52-.22-.84-.22-.51,0-.96,.16-1.33,.49-.37,.33-.56,.94-.56,1.85v3.88h-1.21Z"/><ellipse cx="148.67" cy="396.83" rx="47.33" ry="22.33" style="fill:none; stroke:#000; stroke-miterlimit:8;"/><g><path d="M110.43,402.33v-9.82h3.68c.75,0,1.35,.1,1.8,.3s.81,.5,1.06,.92,.39,.84,.39,1.3c0,.42-.11,.81-.34,1.19s-.57,.67-1.03,.9c.59,.17,1.05,.47,1.37,.89s.48,.92,.48,1.49c0,.46-.1,.89-.29,1.28s-.43,.7-.72,.91-.64,.38-1.08,.49c-.43,.11-.96,.16-1.58,.16h-3.74Zm1.3-5.69h2.12c.58,0,.99-.04,1.24-.11,.33-.1,.58-.26,.75-.49,.17-.23,.25-.51,.25-.86,0-.33-.08-.61-.23-.86-.16-.25-.38-.42-.67-.51-.29-.09-.79-.14-1.49-.14h-1.96v2.97Zm0,4.53h2.44c.42,0,.71-.02,.88-.05,.3-.05,.55-.14,.75-.27s.37-.31,.5-.55c.13-.24,.19-.51,.19-.83,0-.37-.09-.68-.28-.95s-.45-.46-.78-.57c-.33-.11-.81-.16-1.44-.16h-2.27v3.38Z"/><path d="M124.27,400.04l1.25,.15c-.2,.73-.56,1.29-1.09,1.69s-1.21,.6-2.04,.6c-1.04,0-1.87-.32-2.47-.96s-.91-1.54-.91-2.7,.31-2.12,.92-2.79c.62-.66,1.42-.99,2.4-.99s1.73,.32,2.33,.97,.9,1.56,.9,2.73c0,.07,0,.18,0,.32h-5.3c.04,.78,.27,1.38,.66,1.79,.4,.42,.89,.62,1.49,.62,.44,0,.82-.12,1.13-.35,.31-.23,.56-.6,.74-1.11Zm-3.96-1.95h3.97c-.05-.6-.21-1.05-.46-1.35-.38-.46-.88-.7-1.49-.7-.55,0-1.02,.19-1.4,.56-.38,.37-.59,.87-.63,1.49Z"/><path d="M126.31,402.33v-.98l4.53-5.2c-.51,.03-.97,.04-1.36,.04h-2.9v-.98h5.81v.8l-3.85,4.51-.74,.82c.54-.04,1.05-.06,1.52-.06h3.29v1.04h-6.29Z"/><path d="M138.59,400.04l1.25,.15c-.2,.73-.56,1.29-1.09,1.69s-1.21,.6-2.04,.6c-1.04,0-1.87-.32-2.47-.96s-.91-1.54-.91-2.7,.31-2.12,.92-2.79c.62-.66,1.42-.99,2.4-.99s1.73,.32,2.33,.97,.9,1.56,.9,2.73c0,.07,0,.18,0,.32h-5.3c.04,.78,.27,1.38,.66,1.79,.4,.42,.89,.62,1.49,.62,.44,0,.82-.12,1.13-.35,.31-.23,.56-.6,.74-1.11Zm-3.96-1.95h3.97c-.05-.6-.21-1.05-.46-1.35-.38-.46-.88-.7-1.49-.7-.55,0-1.02,.19-1.4,.56-.38,.37-.59,.87-.63,1.49Z"/><path d="M141.27,393.9v-1.39h1.21v1.39h-1.21Zm0,8.43v-7.11h1.21v7.11h-1.21Z"/><path d="M148.87,399.72l1.18,.15c-.13,.82-.46,1.46-.99,1.92-.53,.46-1.19,.69-1.96,.69-.97,0-1.76-.32-2.35-.95s-.89-1.55-.89-2.74c0-.77,.13-1.44,.38-2.02,.25-.58,.64-1.01,1.16-1.3,.52-.29,1.09-.43,1.7-.43,.77,0,1.4,.2,1.9,.59s.81,.95,.94,1.66l-1.17,.18c-.11-.48-.31-.84-.59-1.08-.28-.24-.63-.36-1.03-.36-.61,0-1.1,.22-1.48,.65-.38,.44-.57,1.12-.57,2.07s.18,1.65,.55,2.08c.37,.43,.84,.65,1.43,.65,.47,0,.87-.15,1.19-.44,.32-.29,.52-.74,.6-1.34Z"/><path d="M151,402.33v-9.82h1.21v3.52c.56-.65,1.27-.98,2.13-.98,.53,0,.98,.1,1.37,.31,.39,.21,.67,.49,.83,.86,.17,.37,.25,.9,.25,1.59v4.51h-1.21v-4.51c0-.6-.13-1.04-.39-1.32-.26-.27-.63-.41-1.11-.41-.36,0-.69,.09-1.01,.28-.31,.19-.54,.44-.67,.75s-.2,.75-.2,1.31v3.89h-1.21Z"/><path d="M158.55,402.33v-7.11h1.08v1.01c.52-.78,1.28-1.17,2.26-1.17,.43,0,.82,.08,1.18,.23,.36,.15,.63,.36,.81,.61s.3,.55,.38,.89c.04,.22,.07,.61,.07,1.17v4.37h-1.21v-4.33c0-.49-.05-.86-.14-1.1-.09-.24-.26-.44-.5-.58-.24-.15-.52-.22-.84-.22-.51,0-.96,.16-1.33,.49-.37,.33-.56,.94-.56,1.85v3.88h-1.21Z"/><path d="M170.75,402.33v-1.04c-.55,.8-1.31,1.21-2.26,1.21-.42,0-.81-.08-1.17-.24-.36-.16-.63-.36-.81-.61-.18-.24-.3-.54-.37-.89-.05-.24-.07-.61-.07-1.12v-4.41h1.21v3.94c0,.63,.02,1.05,.07,1.27,.08,.32,.24,.57,.48,.75,.25,.18,.55,.27,.91,.27s.7-.09,1.02-.28c.32-.19,.54-.44,.67-.76,.13-.32,.2-.78,.2-1.39v-3.81h1.21v7.11h-1.08Z"/><path d="M173.64,402.33v-7.11h1.08v1.01c.52-.78,1.28-1.17,2.26-1.17,.43,0,.82,.08,1.18,.23,.36,.15,.63,.36,.81,.61s.3,.55,.38,.89c.04,.22,.07,.61,.07,1.17v4.37h-1.21v-4.33c0-.49-.05-.86-.14-1.1-.09-.24-.26-.44-.5-.58-.24-.15-.52-.22-.84-.22-.51,0-.96,.16-1.33,.49-.37,.33-.56,.94-.56,1.85v3.88h-1.21Z"/><path d="M180.96,402.92l1.17,.17c.05,.36,.19,.62,.41,.79,.3,.22,.71,.33,1.23,.33,.56,0,.99-.11,1.29-.33,.3-.22,.51-.54,.62-.94,.06-.25,.09-.76,.09-1.55-.53,.62-1.18,.93-1.97,.93-.98,0-1.73-.35-2.27-1.06-.54-.71-.8-1.55-.8-2.54,0-.68,.12-1.3,.37-1.88,.25-.57,.6-1.02,1.07-1.33,.47-.31,1.01-.47,1.64-.47,.84,0,1.53,.34,2.08,1.02v-.86h1.11v6.15c0,1.11-.11,1.89-.34,2.35-.23,.46-.58,.83-1.07,1.09-.49,.27-1.09,.4-1.8,.4-.85,0-1.53-.19-2.06-.57-.52-.38-.77-.96-.76-1.72Zm1-4.27c0,.93,.19,1.61,.56,2.04,.37,.43,.83,.64,1.39,.64s1.02-.21,1.39-.64,.56-1.09,.56-2.01-.19-1.53-.58-1.97c-.39-.44-.85-.66-1.4-.66s-.99,.22-1.37,.65c-.38,.44-.56,1.08-.56,1.94Z"/></g><g><path d="M598.1,68.17v-9.82h3.68c.75,0,1.35,.1,1.8,.3s.81,.5,1.06,.92,.39,.84,.39,1.3c0,.42-.11,.81-.34,1.19s-.57,.67-1.03,.9c.59,.17,1.05,.47,1.37,.89s.48,.92,.48,1.49c0,.46-.1,.89-.29,1.28s-.43,.7-.72,.91-.64,.38-1.08,.49c-.43,.11-.96,.16-1.58,.16h-3.74Zm1.3-5.69h2.12c.58,0,.99-.04,1.24-.11,.33-.1,.58-.26,.75-.49,.17-.23,.25-.51,.25-.86,0-.33-.08-.61-.23-.86-.16-.25-.38-.42-.67-.51-.29-.09-.79-.14-1.49-.14h-1.96v2.97Zm0,4.53h2.44c.42,0,.71-.02,.88-.05,.3-.05,.55-.14,.75-.27s.37-.31,.5-.55c.13-.24,.19-.51,.19-.83,0-.37-.09-.68-.28-.95s-.45-.46-.78-.57c-.33-.11-.81-.16-1.44-.16h-2.27v3.38Z"/><path d="M611.93,65.88l1.25,.15c-.2,.73-.56,1.29-1.09,1.69s-1.21,.6-2.04,.6c-1.04,0-1.87-.32-2.47-.96s-.91-1.54-.91-2.7,.31-2.12,.92-2.79c.62-.66,1.42-.99,2.4-.99s1.73,.32,2.33,.97,.9,1.56,.9,2.73c0,.07,0,.18,0,.32h-5.3c.04,.78,.27,1.38,.66,1.79,.4,.42,.89,.62,1.49,.62,.44,0,.82-.12,1.13-.35,.31-.23,.56-.6,.74-1.11Zm-3.96-1.95h3.97c-.05-.6-.21-1.05-.46-1.35-.38-.46-.88-.7-1.49-.7-.55,0-1.02,.19-1.4,.56-.38,.37-.59,.87-.63,1.49Z"/><path d="M613.97,68.17v-.98l4.53-5.2c-.51,.03-.97,.04-1.36,.04h-2.9v-.98h5.81v.8l-3.85,4.51-.74,.82c.54-.04,1.05-.06,1.52-.06h3.29v1.04h-6.29Z"/><path d="M626.25,65.88l1.25,.15c-.2,.73-.56,1.29-1.09,1.69s-1.21,.6-2.04,.6c-1.04,0-1.87-.32-2.47-.96s-.91-1.54-.91-2.7,.31-2.12,.92-2.79c.62-.66,1.42-.99,2.4-.99s1.73,.32,2.33,.97,.9,1.56,.9,2.73c0,.07,0,.18,0,.32h-5.3c.04,.78,.27,1.38,.66,1.79,.4,.42,.89,.62,1.49,.62,.44,0,.82-.12,1.13-.35,.31-.23,.56-.6,.74-1.11Zm-3.96-1.95h3.97c-.05-.6-.21-1.05-.46-1.35-.38-.46-.88-.7-1.49-.7-.55,0-1.02,.19-1.4,.56-.38,.37-.59,.87-.63,1.49Z"/><path d="M628.94,59.74v-1.39h1.21v1.39h-1.21Zm0,8.43v-7.11h1.21v7.11h-1.21Z"/><path d="M636.54,65.56l1.18,.15c-.13,.82-.46,1.46-.99,1.92-.53,.46-1.19,.69-1.96,.69-.97,0-1.76-.32-2.35-.95s-.89-1.55-.89-2.74c0-.77,.13-1.44,.38-2.02,.25-.58,.64-1.01,1.16-1.3,.52-.29,1.09-.43,1.7-.43,.77,0,1.4,.2,1.9,.59s.81,.95,.94,1.66l-1.17,.18c-.11-.48-.31-.84-.59-1.08-.28-.24-.63-.36-1.03-.36-.61,0-1.1,.22-1.48,.65-.38,.44-.57,1.12-.57,2.07s.18,1.65,.55,2.08c.37,.43,.84,.65,1.43,.65,.47,0,.87-.15,1.19-.44,.32-.29,.52-.74,.6-1.34Z"/><path d="M638.67,68.17v-9.82h1.21v3.52c.56-.65,1.27-.98,2.13-.98,.53,0,.98,.1,1.37,.31,.39,.21,.67,.49,.83,.86,.17,.37,.25,.9,.25,1.59v4.51h-1.21v-4.51c0-.6-.13-1.04-.39-1.32-.26-.27-.63-.41-1.11-.41-.36,0-.69,.09-1.01,.28-.31,.19-.54,.44-.67,.75s-.2,.75-.2,1.31v3.89h-1.21Z"/><path d="M646.21,68.17v-7.11h1.08v1.01c.52-.78,1.28-1.17,2.26-1.17,.43,0,.82,.08,1.18,.23,.36,.15,.63,.36,.81,.61s.3,.55,.38,.89c.04,.22,.07,.61,.07,1.17v4.37h-1.21v-4.33c0-.49-.05-.86-.14-1.1-.09-.24-.26-.44-.5-.58-.24-.15-.52-.22-.84-.22-.51,0-.96,.16-1.33,.49-.37,.33-.56,.94-.56,1.85v3.88h-1.21Z"/><path d="M658.42,68.17v-1.04c-.55,.8-1.31,1.21-2.26,1.21-.42,0-.81-.08-1.17-.24-.36-.16-.63-.36-.81-.61-.18-.24-.3-.54-.37-.89-.05-.24-.07-.61-.07-1.12v-4.41h1.21v3.94c0,.63,.02,1.05,.07,1.27,.08,.32,.24,.57,.48,.75,.25,.18,.55,.27,.91,.27s.7-.09,1.02-.28c.32-.19,.54-.44,.67-.76,.13-.32,.2-.78,.2-1.39v-3.81h1.21v7.11h-1.08Z"/><path d="M661.3,68.17v-7.11h1.08v1.01c.52-.78,1.28-1.17,2.26-1.17,.43,0,.82,.08,1.18,.23,.36,.15,.63,.36,.81,.61s.3,.55,.38,.89c.04,.22,.07,.61,.07,1.17v4.37h-1.21v-4.33c0-.49-.05-.86-.14-1.1-.09-.24-.26-.44-.5-.58-.24-.15-.52-.22-.84-.22-.51,0-.96,.16-1.33,.49-.37,.33-.56,.94-.56,1.85v3.88h-1.21Z"/><path d="M668.63,68.76l1.17,.17c.05,.36,.19,.62,.41,.79,.3,.22,.71,.33,1.23,.33,.56,0,.99-.11,1.29-.33,.3-.22,.51-.54,.62-.94,.06-.25,.09-.76,.09-1.55-.53,.62-1.18,.93-1.97,.93-.98,0-1.73-.35-2.27-1.06-.54-.71-.8-1.55-.8-2.54,0-.68,.12-1.3,.37-1.88,.25-.57,.6-1.02,1.07-1.33,.47-.31,1.01-.47,1.64-.47,.84,0,1.53,.34,2.08,1.02v-.86h1.11v6.15c0,1.11-.11,1.89-.34,2.35-.23,.46-.58,.83-1.07,1.09-.49,.27-1.09,.4-1.8,.4-.85,0-1.53-.19-2.06-.57-.52-.38-.77-.96-.76-1.72Zm1-4.27c0,.93,.19,1.61,.56,2.04,.37,.43,.83,.64,1.39,.64s1.02-.21,1.39-.64,.56-1.09,.56-2.01-.19-1.53-.58-1.97c-.39-.44-.85-.66-1.4-.66s-.99,.22-1.37,.65c-.38,.44-.56,1.08-.56,1.94Z"/></g><line x1="196" y1="396.73" x2="224.89" y2="374.5" style="fill:none; stroke:#000; stroke-miterlimit:8;"/><polygon points="430 374.83 488 349.83 546 374.83 488 399.83 430 374.83" style="fill:none; stroke:#000; stroke-miterlimit:8;"/><g><path d="M460.2,378.77l1.17,.17c.05,.36,.19,.62,.41,.79,.3,.22,.71,.33,1.23,.33,.56,0,.99-.11,1.29-.33,.3-.22,.51-.54,.62-.94,.06-.25,.09-.76,.09-1.55-.53,.62-1.18,.93-1.97,.93-.98,0-1.73-.35-2.27-1.06-.54-.71-.8-1.55-.8-2.54,0-.68,.12-1.3,.37-1.88,.25-.57,.6-1.02,1.07-1.33,.47-.31,1.01-.47,1.64-.47,.84,0,1.53,.34,2.08,1.02v-.86h1.11v6.15c0,1.11-.11,1.89-.34,2.35-.23,.46-.58,.83-1.07,1.09-.49,.27-1.09,.4-1.8,.4-.85,0-1.53-.19-2.06-.57-.52-.38-.77-.96-.76-1.72Zm1-4.27c0,.93,.19,1.61,.56,2.04,.37,.43,.83,.64,1.39,.64s1.02-.21,1.39-.64,.56-1.09,.56-2.01-.19-1.53-.58-1.97c-.39-.44-.85-.66-1.4-.66s-.99,.22-1.37,.65c-.38,.44-.56,1.08-.56,1.94Z"/><path d="M472.89,375.9l1.25,.15c-.2,.73-.56,1.29-1.09,1.69s-1.21,.6-2.04,.6c-1.04,0-1.87-.32-2.47-.96s-.91-1.54-.91-2.7,.31-2.12,.92-2.79c.62-.66,1.42-.99,2.4-.99s1.73,.32,2.33,.97,.9,1.56,.9,2.73c0,.07,0,.18,0,.32h-5.3c.04,.78,.27,1.38,.66,1.79,.4,.42,.89,.62,1.49,.62,.44,0,.82-.12,1.13-.35,.31-.23,.56-.6,.74-1.11Zm-3.96-1.95h3.97c-.05-.6-.21-1.05-.46-1.35-.38-.46-.88-.7-1.49-.7-.55,0-1.02,.19-1.4,.56-.38,.37-.59,.87-.63,1.49Z"/><path d="M475.62,378.19v-9.82h1.21v3.52c.56-.65,1.27-.98,2.13-.98,.53,0,.98,.1,1.37,.31,.39,.21,.67,.49,.83,.86,.17,.37,.25,.9,.25,1.59v4.51h-1.21v-4.51c0-.6-.13-1.04-.39-1.32-.26-.27-.63-.41-1.11-.41-.36,0-.69,.09-1.01,.28-.31,.19-.54,.44-.67,.75s-.2,.75-.2,1.31v3.89h-1.21Z"/><path d="M482.77,374.63c0-1.32,.37-2.29,1.1-2.93,.61-.53,1.36-.79,2.24-.79,.98,0,1.78,.32,2.4,.96s.93,1.53,.93,2.66c0,.92-.14,1.64-.41,2.16-.27,.52-.67,.93-1.2,1.22-.52,.29-1.1,.44-1.72,.44-1,0-1.8-.32-2.41-.96-.61-.64-.92-1.56-.92-2.76Zm1.24,0c0,.91,.2,1.59,.6,2.05,.4,.45,.9,.68,1.5,.68s1.1-.23,1.49-.68c.4-.46,.6-1.15,.6-2.08,0-.88-.2-1.55-.6-2s-.9-.68-1.49-.68-1.1,.23-1.5,.68c-.4,.45-.6,1.13-.6,2.04Zm.21-4.95v-1.37h1.26v1.37h-1.26Zm2.5,0v-1.37h1.26v1.37h-1.26Z"/><path d="M490.81,378.19v-7.11h1.08v1.08c.28-.5,.53-.84,.77-1s.49-.24,.77-.24c.41,0,.82,.13,1.24,.39l-.42,1.12c-.29-.17-.59-.26-.88-.26-.26,0-.5,.08-.71,.24-.21,.16-.36,.38-.45,.66-.13,.43-.2,.9-.2,1.41v3.72h-1.21Z"/><path d="M497.99,377.11l.17,1.06c-.34,.07-.64,.11-.91,.11-.44,0-.78-.07-1.02-.21s-.41-.32-.51-.55c-.1-.23-.15-.7-.15-1.42v-4.09h-.88v-.94h.88v-1.76l1.2-.72v2.48h1.21v.94h-1.21v4.16c0,.34,.02,.56,.06,.66,.04,.1,.11,.18,.21,.23s.23,.09,.41,.09c.13,0,.31-.02,.53-.05Z"/><path d="M502.29,378.19v-.98l4.53-5.2c-.51,.03-.97,.04-1.36,.04h-2.9v-.98h5.81v.8l-3.85,4.51-.74,.82c.54-.04,1.05-.06,1.52-.06h3.29v1.04h-6.29Z"/><path d="M514.42,378.19v-1.04c-.55,.8-1.31,1.21-2.26,1.21-.42,0-.81-.08-1.17-.24-.36-.16-.63-.36-.81-.61-.18-.24-.3-.54-.37-.89-.05-.24-.07-.61-.07-1.12v-4.41h1.21v3.94c0,.63,.02,1.05,.07,1.27,.08,.32,.24,.57,.48,.75,.25,.18,.55,.27,.91,.27s.7-.09,1.02-.28c.32-.19,.54-.44,.67-.76,.13-.32,.2-.78,.2-1.39v-3.81h1.21v7.11h-1.08Z"/></g><rect x="630.67" y="340.5" width="132" height="68" style="fill:#fff; stroke:#000; stroke-miterlimit:8; stroke-width:2px;"/><g><path d="M679.67,380.83h-2.52l-1-2.6h-4.58l-.95,2.6h-2.45l4.46-11.45h2.45l4.59,11.45Zm-4.26-4.53l-1.58-4.25-1.55,4.25h3.12Z"/><path d="M686.36,380.83v-1.24c-.3,.44-.7,.79-1.19,1.05s-1.01,.38-1.56,.38-1.06-.12-1.5-.37-.76-.59-.96-1.03c-.2-.44-.3-1.05-.3-1.84v-5.25h2.2v3.81c0,1.17,.04,1.88,.12,2.14,.08,.26,.23,.47,.44,.62,.21,.15,.48,.23,.81,.23,.38,0,.71-.1,1.01-.31,.3-.21,.5-.46,.61-.77s.16-1.05,.16-2.24v-3.5h2.2v8.3h-2.04Z"/><path d="M689.73,372.54h1.22v-.62c0-.7,.07-1.22,.22-1.56s.42-.62,.82-.84c.4-.22,.9-.32,1.51-.32s1.24,.09,1.84,.28l-.3,1.53c-.35-.08-.68-.12-1.01-.12s-.55,.07-.68,.22-.21,.43-.21,.86v.59h1.64v1.73h-1.64v6.57h-2.2v-6.57h-1.22v-1.73Z"/><path d="M699.83,372.54v1.75h-1.5v3.34c0,.68,.01,1.07,.04,1.18,.03,.11,.09,.2,.2,.28,.1,.07,.23,.11,.37,.11,.2,0,.5-.07,.88-.21l.19,1.7c-.51,.22-1.09,.33-1.73,.33-.4,0-.75-.07-1.07-.2s-.55-.3-.7-.52-.25-.5-.31-.86c-.05-.25-.07-.77-.07-1.55v-3.62h-1.01v-1.75h1.01v-1.65l2.2-1.28v2.93h1.5Z"/><path d="M703.48,380.83h-2.2v-8.3h2.04v1.18c.35-.56,.66-.92,.94-1.1,.28-.18,.59-.27,.95-.27,.5,0,.98,.14,1.45,.41l-.68,1.91c-.37-.24-.71-.36-1.03-.36s-.57,.08-.78,.25c-.21,.17-.38,.48-.5,.92-.12,.44-.18,1.37-.18,2.78v2.56Z"/><path d="M709.26,375.07l-1.99-.36c.22-.8,.61-1.4,1.16-1.78,.55-.39,1.36-.58,2.44-.58,.98,0,1.71,.12,2.19,.35,.48,.23,.82,.53,1.01,.88,.2,.36,.29,1.01,.29,1.96l-.02,2.56c0,.73,.04,1.27,.11,1.61,.07,.35,.2,.72,.39,1.11h-2.17c-.06-.15-.13-.36-.21-.65-.04-.13-.06-.22-.08-.26-.38,.36-.78,.64-1.2,.82s-.88,.27-1.37,.27c-.85,0-1.53-.23-2.02-.7-.49-.46-.74-1.05-.74-1.76,0-.47,.11-.89,.34-1.25s.54-.65,.94-.84,.99-.37,1.75-.51c1.03-.19,1.74-.37,2.13-.54v-.22c0-.42-.1-.72-.31-.9s-.6-.27-1.18-.27c-.39,0-.7,.08-.91,.23-.22,.15-.4,.42-.53,.81Zm2.94,1.78c-.28,.09-.73,.21-1.34,.34-.61,.13-1.01,.26-1.2,.38-.29,.2-.43,.46-.43,.77s.11,.57,.34,.8c.23,.22,.52,.34,.88,.34,.4,0,.77-.13,1.13-.39,.27-.2,.44-.44,.52-.73,.06-.19,.09-.54,.09-1.07v-.44Z"/><path d="M716.33,381.38l2.51,.3c.04,.29,.14,.49,.29,.6,.21,.16,.54,.23,.98,.23,.57,0,1-.09,1.29-.26,.19-.11,.34-.3,.44-.55,.07-.18,.1-.52,.1-1.01v-1.21c-.66,.9-1.48,1.34-2.48,1.34-1.11,0-2-.47-2.65-1.41-.51-.74-.77-1.67-.77-2.78,0-1.39,.33-2.45,1-3.19s1.5-1.1,2.5-1.1,1.87,.45,2.54,1.35v-1.16h2.05v7.45c0,.98-.08,1.71-.24,2.2s-.39,.86-.68,1.14c-.29,.28-.68,.49-1.17,.65s-1.1,.23-1.85,.23c-1.41,0-2.4-.24-2.99-.72-.59-.48-.88-1.09-.88-1.83,0-.07,0-.16,0-.27Zm1.96-4.87c0,.88,.17,1.52,.51,1.93,.34,.41,.76,.61,1.26,.61,.54,0,.99-.21,1.36-.63,.37-.42,.55-1.04,.55-1.86s-.18-1.5-.53-1.91c-.35-.42-.8-.62-1.34-.62s-.96,.2-1.3,.61c-.34,.41-.51,1.03-.51,1.87Z"/></g><line x1="357.33" y1="374.5" x2="430.21" y2="374.5" style="fill:none; stroke:#000; stroke-miterlimit:8;"/><line x1="546" y1="374.5" x2="630.72" y2="374.5" style="fill:none; stroke:#000; stroke-miterlimit:8;"/><polygon points="430 150.08 488 125.08 546 150.08 488 175.08 430 150.08" style="fill:none; stroke:#000; stroke-miterlimit:8;"/><g><path d="M474.63,154.17v-9.82h1.21v9.82h-1.21Z"/><path d="M482.48,151.88l1.25,.15c-.2,.73-.56,1.29-1.09,1.69s-1.21,.6-2.04,.6c-1.04,0-1.87-.32-2.47-.96s-.91-1.54-.91-2.7,.31-2.12,.92-2.79c.62-.66,1.42-.99,2.4-.99s1.73,.32,2.33,.97,.9,1.56,.9,2.73c0,.07,0,.18,0,.32h-5.3c.04,.78,.27,1.38,.66,1.79,.4,.42,.89,.62,1.49,.62,.44,0,.82-.12,1.13-.35,.31-.23,.56-.6,.74-1.11Zm-3.96-1.95h3.97c-.05-.6-.21-1.05-.46-1.35-.38-.46-.88-.7-1.49-.7-.55,0-1.02,.19-1.4,.56-.38,.37-.59,.87-.63,1.49Z"/><path d="M485.15,145.74v-1.39h1.21v1.39h-1.21Zm0,8.43v-7.11h1.21v7.11h-1.21Z"/><path d="M490.73,153.09l.17,1.06c-.34,.07-.64,.11-.91,.11-.44,0-.78-.07-1.02-.21s-.41-.32-.51-.55c-.1-.23-.15-.7-.15-1.42v-4.09h-.88v-.94h.88v-1.76l1.2-.72v2.48h1.21v.94h-1.21v4.16c0,.34,.02,.56,.06,.66,.04,.1,.11,.18,.21,.23s.23,.09,.41,.09c.13,0,.31-.02,.53-.05Z"/><path d="M496.68,151.88l1.25,.15c-.2,.73-.56,1.29-1.09,1.69s-1.21,.6-2.04,.6c-1.04,0-1.87-.32-2.47-.96s-.91-1.54-.91-2.7,.31-2.12,.92-2.79c.62-.66,1.42-.99,2.4-.99s1.73,.32,2.33,.97,.9,1.56,.9,2.73c0,.07,0,.18,0,.32h-5.3c.04,.78,.27,1.38,.66,1.79,.4,.42,.89,.62,1.49,.62,.44,0,.82-.12,1.13-.35,.31-.23,.56-.6,.74-1.11Zm-3.96-1.95h3.97c-.05-.6-.21-1.05-.46-1.35-.38-.46-.88-.7-1.49-.7-.55,0-1.02,.19-1.4,.56-.38,.37-.59,.87-.63,1.49Z"/><path d="M501.97,153.09l.17,1.06c-.34,.07-.64,.11-.91,.11-.44,0-.78-.07-1.02-.21s-.41-.32-.51-.55c-.1-.23-.15-.7-.15-1.42v-4.09h-.88v-.94h.88v-1.76l1.2-.72v2.48h1.21v.94h-1.21v4.16c0,.34,.02,.56,.06,.66,.04,.1,.11,.18,.21,.23s.23,.09,.41,.09c.13,0,.31-.02,.53-.05Z"/></g><line x1="357.33" y1="149.75" x2="430.21" y2="149.75" style="fill:none; stroke:#000; stroke-miterlimit:8;"/><line x1="546" y1="149.75" x2="630.72" y2="149.75" style="fill:none; stroke:#000; stroke-miterlimit:8;"/><rect x="630.67" y="116.5" width="132" height="68" style="fill:#fff; stroke:#000; stroke-miterlimit:8; stroke-width:2px;"/><g><path d="M670.71,156.17v-11.45h3.71c1.41,0,2.32,.06,2.75,.17,.66,.17,1.21,.55,1.65,1.12,.44,.58,.66,1.32,.66,2.23,0,.7-.13,1.29-.38,1.77-.25,.48-.58,.86-.97,1.13s-.79,.45-1.2,.54c-.55,.11-1.35,.16-2.4,.16h-1.51v4.32h-2.31Zm2.31-9.52v3.25h1.27c.91,0,1.52-.06,1.83-.18,.31-.12,.55-.31,.72-.56,.17-.25,.26-.55,.26-.89,0-.42-.12-.76-.37-1.03-.25-.27-.55-.44-.93-.51-.28-.05-.83-.08-1.66-.08h-1.12Z"/><path d="M683.47,156.17h-2.2v-8.3h2.04v1.18c.35-.56,.66-.92,.94-1.1,.28-.18,.59-.27,.95-.27,.5,0,.98,.14,1.45,.41l-.68,1.91c-.37-.24-.71-.36-1.03-.36s-.57,.08-.78,.25c-.21,.17-.38,.48-.5,.92-.12,.44-.18,1.37-.18,2.78v2.56Z"/><path d="M687.08,151.9c0-.73,.18-1.43,.54-2.12,.36-.68,.87-1.2,1.53-1.56s1.39-.54,2.21-.54c1.25,0,2.28,.41,3.09,1.22,.8,.82,1.2,1.85,1.2,3.09s-.41,2.3-1.21,3.12c-.81,.83-1.83,1.24-3.06,1.24-.76,0-1.49-.17-2.18-.52s-1.21-.85-1.57-1.51-.54-1.47-.54-2.43Zm2.25,.12c0,.82,.2,1.45,.59,1.89s.87,.66,1.45,.66,1.05-.22,1.44-.66,.58-1.07,.58-1.91-.19-1.44-.58-1.88-.87-.66-1.44-.66-1.05,.22-1.45,.66-.59,1.07-.59,1.89Z"/><path d="M699.51,147.87v8.04c0,1.06-.07,1.8-.21,2.24-.14,.43-.4,.77-.8,1.02-.39,.24-.89,.37-1.5,.37-.22,0-.45-.02-.71-.06s-.52-.1-.82-.18l.38-1.88c.1,.02,.2,.04,.29,.05,.09,.01,.18,.02,.25,.02,.22,0,.41-.05,.55-.14,.14-.1,.24-.21,.29-.35,.05-.14,.07-.54,.07-1.22v-7.91h2.2Zm-2.2-1.12v-2.03h2.2v2.03h-2.2Z"/><path d="M706.62,153.53l2.19,.37c-.28,.8-.73,1.41-1.33,1.83-.61,.42-1.37,.63-2.28,.63-1.44,0-2.51-.47-3.2-1.41-.55-.75-.82-1.71-.82-2.86,0-1.38,.36-2.45,1.08-3.23,.72-.78,1.63-1.17,2.73-1.17,1.23,0,2.21,.41,2.92,1.22,.71,.82,1.05,2.06,1.02,3.75h-5.5c.02,.65,.19,1.16,.53,1.52,.34,.36,.76,.54,1.27,.54,.34,0,.63-.09,.87-.28s.41-.49,.53-.91Zm.12-2.22c-.02-.64-.18-1.12-.49-1.45-.31-.33-.69-.5-1.14-.5-.48,0-.88,.17-1.19,.52-.31,.35-.47,.82-.46,1.42h3.28Z"/><path d="M710.63,156.17v-11.45h2.2v6.08l2.57-2.92h2.7l-2.84,3.03,3.04,5.27h-2.37l-2.09-3.73-1.02,1.07v2.66h-2.2Z"/><path d="M723.41,147.87v1.75h-1.5v3.34c0,.68,.01,1.07,.04,1.18,.03,.11,.09,.2,.2,.28,.1,.07,.23,.11,.37,.11,.2,0,.5-.07,.88-.21l.19,1.7c-.51,.22-1.09,.33-1.73,.33-.4,0-.75-.07-1.07-.2s-.55-.3-.7-.52-.25-.5-.31-.86c-.05-.25-.07-.77-.07-1.55v-3.62h-1.01v-1.75h1.01v-1.65l2.2-1.28v2.93h1.5Z"/></g><polygon points="638.67 262.5 696.67 237.17 754.67 262.5 696.67 287.83 638.67 262.5" style="fill:none; stroke:#000; stroke-miterlimit:8;"/><g><path d="M678.31,266.17v-1.04c-.55,.8-1.31,1.21-2.26,1.21-.42,0-.81-.08-1.17-.24-.36-.16-.63-.36-.81-.61-.18-.24-.3-.54-.37-.89-.05-.24-.07-.61-.07-1.12v-4.41h1.21v3.94c0,.63,.02,1.05,.07,1.27,.08,.32,.24,.57,.48,.75,.25,.18,.55,.27,.91,.27s.7-.09,1.02-.28c.32-.19,.54-.44,.67-.76,.13-.32,.2-.78,.2-1.39v-3.81h1.21v7.11h-1.08Z"/><path d="M681.25,266.17v-7.11h1.08v1c.22-.35,.52-.63,.89-.84,.37-.21,.79-.32,1.27-.32,.53,0,.96,.11,1.3,.33,.34,.22,.57,.52,.71,.92,.56-.83,1.29-1.25,2.2-1.25,.71,0,1.25,.2,1.63,.59,.38,.39,.57,.99,.57,1.8v4.88h-1.2v-4.48c0-.48-.04-.83-.12-1.04-.08-.21-.22-.38-.43-.51-.21-.13-.45-.19-.72-.19-.5,0-.92,.17-1.25,.5-.33,.33-.5,.87-.5,1.6v4.13h-1.21v-4.62c0-.54-.1-.94-.29-1.21-.2-.27-.52-.4-.96-.4-.34,0-.65,.09-.94,.27-.29,.18-.5,.44-.63,.78-.13,.34-.19,.84-.19,1.49v3.69h-1.21Z"/><path d="M692.93,266.17v-6.17h-1.07v-.94h1.07v-.76c0-.48,.04-.83,.13-1.06,.12-.31,.32-.57,.61-.76,.29-.19,.7-.29,1.23-.29,.34,0,.71,.04,1.12,.12l-.18,1.05c-.25-.04-.49-.07-.71-.07-.37,0-.62,.08-.78,.23-.15,.16-.23,.45-.23,.88v.66h1.39v.94h-1.39v6.17h-1.2Z"/><path d="M701.07,265.29c-.45,.38-.88,.65-1.29,.8s-.86,.23-1.33,.23c-.78,0-1.38-.19-1.8-.57-.42-.38-.63-.87-.63-1.46,0-.35,.08-.67,.24-.95,.16-.29,.37-.52,.62-.69,.26-.17,.54-.31,.87-.4,.24-.06,.59-.12,1.07-.18,.97-.12,1.69-.25,2.15-.42,0-.17,0-.27,0-.31,0-.49-.11-.84-.34-1.04-.31-.27-.77-.41-1.37-.41-.57,0-.99,.1-1.25,.3-.27,.2-.47,.55-.6,1.05l-1.18-.16c.11-.5,.28-.91,.53-1.22,.25-.31,.6-.55,1.06-.72,.46-.17,1-.25,1.61-.25s1.1,.07,1.48,.21c.38,.14,.66,.32,.84,.54,.18,.22,.3,.49,.38,.82,.04,.21,.06,.58,.06,1.11v1.61c0,1.12,.03,1.83,.08,2.13,.05,.3,.15,.58,.3,.85h-1.26c-.12-.25-.21-.54-.24-.88Zm-.1-2.69c-.44,.18-1.09,.33-1.97,.46-.5,.07-.85,.15-1.05,.24-.21,.09-.36,.22-.48,.39-.11,.17-.17,.36-.17,.57,0,.32,.12,.59,.37,.8s.6,.32,1.07,.32,.88-.1,1.24-.3c.36-.2,.63-.48,.8-.83,.13-.27,.19-.67,.19-1.21v-.44Z"/><path d="M703.54,264.04l1.19-.19c.07,.48,.25,.84,.56,1.1s.73,.38,1.28,.38,.96-.11,1.23-.34,.4-.49,.4-.79c0-.27-.12-.49-.35-.64-.17-.11-.58-.24-1.23-.41-.88-.22-1.5-.42-1.84-.58-.34-.16-.6-.39-.78-.68-.18-.29-.26-.61-.26-.95,0-.32,.07-.61,.22-.88,.14-.27,.34-.49,.59-.67,.19-.14,.44-.26,.77-.35,.32-.1,.67-.14,1.04-.14,.56,0,1.05,.08,1.47,.24s.73,.38,.93,.65c.2,.27,.34,.64,.42,1.1l-1.18,.16c-.05-.37-.21-.65-.47-.86-.26-.21-.62-.31-1.09-.31-.55,0-.95,.09-1.19,.27-.24,.18-.35,.4-.35,.64,0,.16,.05,.3,.15,.42,.1,.13,.25,.24,.46,.32,.12,.04,.48,.15,1.06,.31,.85,.23,1.45,.41,1.79,.56,.34,.15,.6,.36,.79,.63,.19,.28,.29,.62,.29,1.03s-.12,.78-.35,1.14-.57,.63-1.01,.82c-.44,.19-.94,.29-1.5,.29-.92,0-1.63-.19-2.11-.58-.48-.38-.79-.95-.93-1.71Z"/><path d="M710.37,264.04l1.19-.19c.07,.48,.25,.84,.56,1.1s.73,.38,1.28,.38,.96-.11,1.23-.34,.4-.49,.4-.79c0-.27-.12-.49-.35-.64-.17-.11-.58-.24-1.23-.41-.88-.22-1.5-.42-1.84-.58-.34-.16-.6-.39-.78-.68-.18-.29-.26-.61-.26-.95,0-.32,.07-.61,.22-.88,.14-.27,.34-.49,.59-.67,.19-.14,.44-.26,.77-.35,.32-.1,.67-.14,1.04-.14,.56,0,1.05,.08,1.47,.24s.73,.38,.93,.65c.2,.27,.34,.64,.42,1.1l-1.18,.16c-.05-.37-.21-.65-.47-.86-.26-.21-.62-.31-1.09-.31-.55,0-.95,.09-1.19,.27-.24,.18-.35,.4-.35,.64,0,.16,.05,.3,.15,.42,.1,.13,.25,.24,.46,.32,.12,.04,.48,.15,1.06,.31,.85,.23,1.45,.41,1.79,.56,.34,.15,.6,.36,.79,.63,.19,.28,.29,.62,.29,1.03s-.12,.78-.35,1.14-.57,.63-1.01,.82c-.44,.19-.94,.29-1.5,.29-.92,0-1.63-.19-2.11-.58-.48-.38-.79-.95-.93-1.71Z"/><path d="M720.32,265.09l.17,1.06c-.34,.07-.64,.11-.91,.11-.44,0-.78-.07-1.02-.21s-.41-.32-.51-.55c-.1-.23-.15-.7-.15-1.42v-4.09h-.88v-.94h.88v-1.76l1.2-.72v2.48h1.21v.94h-1.21v4.16c0,.34,.02,.56,.06,.66,.04,.1,.11,.18,.21,.23s.23,.09,.41,.09c.13,0,.31-.02,.53-.05Z"/></g><line x1="696.67" y1="184.5" x2="696.67" y2="237.48" style="fill:none; stroke:#000; stroke-miterlimit:8;"/><path d="M708.76,205.5h-1.21v-7.68c-.29,.28-.67,.55-1.14,.83-.47,.28-.89,.48-1.27,.62v-1.17c.67-.32,1.26-.7,1.77-1.15,.5-.45,.86-.89,1.07-1.31h.78v9.86Z"/><line x1="696.67" y1="340.81" x2="696.67" y2="287.83" style="fill:none; stroke:#000; stroke-miterlimit:8;"/><path d="M703.3,330.83v-7.11h1.08v1.01c.52-.78,1.28-1.17,2.26-1.17,.43,0,.82,.08,1.18,.23,.36,.15,.63,.36,.81,.61s.3,.55,.38,.89c.04,.22,.07,.61,.07,1.17v4.37h-1.21v-4.33c0-.49-.05-.86-.14-1.1-.09-.24-.26-.44-.5-.58-.24-.15-.52-.22-.84-.22-.51,0-.96,.16-1.33,.49-.37,.33-.56,.94-.56,1.85v3.88h-1.21Z"/><path d="M366.04,397.5v-7.11h1.08v1.01c.52-.78,1.28-1.17,2.26-1.17,.43,0,.82,.08,1.18,.23,.36,.15,.63,.36,.81,.61s.3,.55,.38,.89c.04,.22,.07,.61,.07,1.17v4.37h-1.21v-4.33c0-.49-.05-.86-.14-1.1-.09-.24-.26-.44-.5-.58-.24-.15-.52-.22-.84-.22-.51,0-.96,.16-1.33,.49-.37,.33-.56,.94-.56,1.85v3.88h-1.21Z"/><path d="M617.84,397.5h-1.21v-7.68c-.29,.28-.67,.55-1.14,.83-.47,.28-.89,.48-1.27,.62v-1.17c.67-.32,1.26-.7,1.77-1.15,.5-.45,.86-.89,1.07-1.31h.78v9.86Z"/><ellipse cx="746.33" cy="461.5" rx="47" ry="22.33" style="fill:none; stroke:#000; stroke-miterlimit:8;"/><g><path d="M707.48,466.17v-9.82h3.68c.75,0,1.35,.1,1.8,.3s.81,.5,1.06,.92,.39,.84,.39,1.3c0,.42-.11,.81-.34,1.19s-.57,.67-1.03,.9c.59,.17,1.05,.47,1.37,.89s.48,.92,.48,1.49c0,.46-.1,.89-.29,1.28s-.43,.7-.72,.91-.64,.38-1.08,.49c-.43,.11-.96,.16-1.58,.16h-3.74Zm1.3-5.69h2.12c.58,0,.99-.04,1.24-.11,.33-.1,.58-.26,.75-.49,.17-.23,.25-.51,.25-.86,0-.33-.08-.61-.23-.86-.16-.25-.38-.42-.67-.51-.29-.09-.79-.14-1.49-.14h-1.96v2.97Zm0,4.53h2.44c.42,0,.71-.02,.88-.05,.3-.05,.55-.14,.75-.27s.37-.31,.5-.55c.13-.24,.19-.51,.19-.83,0-.37-.09-.68-.28-.95s-.45-.46-.78-.57c-.33-.11-.81-.16-1.44-.16h-2.27v3.38Z"/><path d="M721.44,463.88l1.25,.15c-.2,.73-.56,1.29-1.09,1.69s-1.21,.6-2.04,.6c-1.04,0-1.87-.32-2.47-.96s-.91-1.54-.91-2.7,.31-2.12,.92-2.79c.62-.66,1.42-.99,2.4-.99s1.73,.32,2.33,.97,.9,1.56,.9,2.73c0,.07,0,.18,0,.32h-5.3c.04,.78,.27,1.38,.66,1.79,.4,.42,.89,.62,1.49,.62,.44,0,.82-.12,1.13-.35,.31-.23,.56-.6,.74-1.11Zm-3.96-1.95h3.97c-.05-.6-.21-1.05-.46-1.35-.38-.46-.88-.7-1.49-.7-.55,0-1.02,.19-1.4,.56-.38,.37-.59,.87-.63,1.49Z"/><path d="M723.6,466.17v-.98l4.53-5.2c-.51,.03-.97,.04-1.36,.04h-2.9v-.98h5.81v.8l-3.85,4.51-.74,.82c.54-.04,1.05-.06,1.52-.06h3.29v1.04h-6.29Z"/><path d="M736.01,463.88l1.25,.15c-.2,.73-.56,1.29-1.09,1.69s-1.21,.6-2.04,.6c-1.04,0-1.87-.32-2.47-.96s-.91-1.54-.91-2.7,.31-2.12,.92-2.79c.62-.66,1.42-.99,2.4-.99s1.73,.32,2.33,.97,.9,1.56,.9,2.73c0,.07,0,.18,0,.32h-5.3c.04,.78,.27,1.38,.66,1.79,.4,.42,.89,.62,1.49,.62,.44,0,.82-.12,1.13-.35,.31-.23,.56-.6,.74-1.11Zm-3.96-1.95h3.97c-.05-.6-.21-1.05-.46-1.35-.38-.46-.88-.7-1.49-.7-.55,0-1.02,.19-1.4,.56-.38,.37-.59,.87-.63,1.49Z"/><path d="M738.81,457.74v-1.39h1.21v1.39h-1.21Zm0,8.43v-7.11h1.21v7.11h-1.21Z"/><path d="M746.54,463.56l1.18,.15c-.13,.82-.46,1.46-.99,1.92-.53,.46-1.19,.69-1.96,.69-.97,0-1.76-.32-2.35-.95s-.89-1.55-.89-2.74c0-.77,.13-1.44,.38-2.02,.25-.58,.64-1.01,1.16-1.3,.52-.29,1.09-.43,1.7-.43,.77,0,1.4,.2,1.9,.59s.81,.95,.94,1.66l-1.17,.18c-.11-.48-.31-.84-.59-1.08-.28-.24-.63-.36-1.03-.36-.61,0-1.1,.22-1.48,.65-.38,.44-.57,1.12-.57,2.07s.18,1.65,.55,2.08c.37,.43,.84,.65,1.43,.65,.47,0,.87-.15,1.19-.44,.32-.29,.52-.74,.6-1.34Z"/><path d="M748.79,466.17v-9.82h1.21v3.52c.56-.65,1.27-.98,2.13-.98,.53,0,.98,.1,1.37,.31,.39,.21,.67,.49,.83,.86,.17,.37,.25,.9,.25,1.59v4.51h-1.21v-4.51c0-.6-.13-1.04-.39-1.32-.26-.27-.63-.41-1.11-.41-.36,0-.69,.09-1.01,.28-.31,.19-.54,.44-.67,.75s-.2,.75-.2,1.31v3.89h-1.21Z"/><path d="M756.46,466.17v-7.11h1.08v1.01c.52-.78,1.28-1.17,2.26-1.17,.43,0,.82,.08,1.18,.23,.36,.15,.63,.36,.81,.61s.3,.55,.38,.89c.04,.22,.07,.61,.07,1.17v4.37h-1.21v-4.33c0-.49-.05-.86-.14-1.1-.09-.24-.26-.44-.5-.58-.24-.15-.52-.22-.84-.22-.51,0-.96,.16-1.33,.49-.37,.33-.56,.94-.56,1.85v3.88h-1.21Z"/><path d="M768.79,466.17v-1.04c-.55,.8-1.31,1.21-2.26,1.21-.42,0-.81-.08-1.17-.24-.36-.16-.63-.36-.81-.61-.18-.24-.3-.54-.37-.89-.05-.24-.07-.61-.07-1.12v-4.41h1.21v3.94c0,.63,.02,1.05,.07,1.27,.08,.32,.24,.57,.48,.75,.25,.18,.55,.27,.91,.27s.7-.09,1.02-.28c.32-.19,.54-.44,.67-.76,.13-.32,.2-.78,.2-1.39v-3.81h1.21v7.11h-1.08Z"/><path d="M771.8,466.17v-7.11h1.08v1.01c.52-.78,1.28-1.17,2.26-1.17,.43,0,.82,.08,1.18,.23,.36,.15,.63,.36,.81,.61s.3,.55,.38,.89c.04,.22,.07,.61,.07,1.17v4.37h-1.21v-4.33c0-.49-.05-.86-.14-1.1-.09-.24-.26-.44-.5-.58-.24-.15-.52-.22-.84-.22-.51,0-.96,.16-1.33,.49-.37,.33-.56,.94-.56,1.85v3.88h-1.21Z"/><path d="M779.24,466.76l1.17,.17c.05,.36,.19,.62,.41,.79,.3,.22,.71,.33,1.23,.33,.56,0,.99-.11,1.29-.33,.3-.22,.51-.54,.62-.94,.06-.25,.09-.76,.09-1.55-.53,.62-1.18,.93-1.97,.93-.98,0-1.73-.35-2.27-1.06-.54-.71-.8-1.55-.8-2.54,0-.68,.12-1.3,.37-1.88,.25-.57,.6-1.02,1.07-1.33,.47-.31,1.01-.47,1.64-.47,.84,0,1.53,.34,2.08,1.02v-.86h1.11v6.15c0,1.11-.11,1.89-.34,2.35-.23,.46-.58,.83-1.07,1.09-.49,.27-1.09,.4-1.8,.4-.85,0-1.53-.19-2.06-.57-.52-.38-.77-.96-.76-1.72Zm1-4.27c0,.93,.19,1.61,.56,2.04,.37,.43,.83,.64,1.39,.64s1.02-.21,1.39-.64,.56-1.09,.56-2.01-.19-1.53-.58-1.97c-.39-.44-.85-.66-1.4-.66s-.99,.22-1.37,.65c-.38,.44-.56,1.08-.56,1.94Z"/></g><ellipse cx="636.33" cy="461.5" rx="47" ry="22.33" style="fill:none; stroke:#000; stroke-miterlimit:8;"/><g><path d="M596.57,463.01l1.23-.11c.06,.49,.19,.89,.41,1.21,.21,.31,.54,.57,.99,.76s.95,.29,1.51,.29c.5,0,.93-.07,1.31-.22,.38-.15,.66-.35,.85-.61,.19-.26,.28-.54,.28-.84s-.09-.58-.27-.81c-.18-.23-.47-.42-.88-.58-.26-.1-.85-.26-1.75-.48-.9-.22-1.53-.42-1.9-.61-.47-.25-.82-.55-1.05-.91-.23-.36-.34-.77-.34-1.22,0-.5,.14-.96,.42-1.39s.69-.76,1.23-.98c.54-.22,1.14-.33,1.8-.33,.73,0,1.37,.12,1.93,.35,.56,.23,.98,.58,1.28,1.03,.3,.46,.46,.97,.48,1.55l-1.25,.09c-.07-.62-.29-1.09-.68-1.41s-.96-.48-1.71-.48-1.36,.14-1.72,.43c-.36,.29-.54,.63-.54,1.04,0,.35,.13,.64,.38,.87,.25,.23,.9,.46,1.96,.7s1.78,.45,2.17,.63c.57,.26,.99,.6,1.27,1,.27,.4,.41,.87,.41,1.4s-.15,1.01-.45,1.48c-.3,.46-.73,.82-1.29,1.08-.56,.26-1.19,.39-1.89,.39-.89,0-1.63-.13-2.23-.39-.6-.26-1.07-.65-1.41-1.17s-.52-1.11-.54-1.76Z"/><path d="M605.61,462.61c0-1.32,.37-2.29,1.1-2.93,.61-.53,1.36-.79,2.24-.79,.98,0,1.78,.32,2.4,.96s.93,1.53,.93,2.66c0,.92-.14,1.64-.41,2.16-.27,.52-.67,.93-1.2,1.22-.52,.29-1.1,.44-1.72,.44-1,0-1.8-.32-2.41-.96-.61-.64-.92-1.56-.92-2.76Zm1.24,0c0,.91,.2,1.59,.6,2.05,.4,.45,.9,.68,1.5,.68s1.1-.23,1.49-.68c.4-.46,.6-1.15,.6-2.08,0-.88-.2-1.55-.6-2s-.9-.68-1.49-.68-1.1,.23-1.5,.68c-.4,.45-.6,1.13-.6,2.04Z"/><path d="M613.58,466.17v-9.82h1.21v9.82h-1.21Z"/><path d="M616.61,466.17v-9.82h1.21v9.82h-1.21Z"/><path d="M619.21,463.22v-1.21h3.7v1.21h-3.7Z"/><path d="M623.33,466.17l3.77-9.82h1.4l4.02,9.82h-1.48l-1.15-2.97h-4.1l-1.08,2.97h-1.38Zm2.83-4.03h3.33l-1.02-2.72c-.31-.83-.54-1.5-.7-2.04-.12,.63-.3,1.25-.53,1.88l-1.08,2.88Z"/><path d="M638.06,466.17v-1.04c-.55,.8-1.31,1.21-2.26,1.21-.42,0-.81-.08-1.17-.24-.36-.16-.63-.36-.81-.61-.18-.24-.3-.54-.37-.89-.05-.24-.07-.61-.07-1.12v-4.41h1.21v3.94c0,.63,.02,1.05,.07,1.27,.08,.32,.24,.57,.48,.75,.25,.18,.55,.27,.91,.27s.7-.09,1.02-.28c.32-.19,.54-.44,.67-.76,.13-.32,.2-.78,.2-1.39v-3.81h1.21v7.11h-1.08Z"/><path d="M641.31,466.17v-6.17h-1.07v-.94h1.07v-.76c0-.48,.04-.83,.13-1.06,.12-.31,.32-.57,.61-.76,.29-.19,.7-.29,1.23-.29,.34,0,.71,.04,1.12,.12l-.18,1.05c-.25-.04-.49-.07-.71-.07-.37,0-.62,.08-.78,.23-.15,.16-.23,.45-.23,.88v.66h1.39v.94h-1.39v6.17h-1.2Z"/><path d="M646.15,466.17l-2.18-7.11h1.25l1.13,4.1,.42,1.53c.02-.08,.14-.56,.37-1.47l1.13-4.17h1.24l1.06,4.12,.36,1.36,.41-1.37,1.22-4.11h1.17l-2.22,7.11h-1.25l-1.13-4.26-.27-1.21-1.44,5.47h-1.26Z"/><path d="M659.38,465.29c-.45,.38-.88,.65-1.29,.8s-.86,.23-1.33,.23c-.78,0-1.38-.19-1.8-.57-.42-.38-.63-.87-.63-1.46,0-.35,.08-.67,.24-.95,.16-.29,.37-.52,.62-.69,.26-.17,.54-.31,.87-.4,.24-.06,.59-.12,1.07-.18,.97-.12,1.69-.25,2.15-.42,0-.17,0-.27,0-.31,0-.49-.11-.84-.34-1.04-.31-.27-.77-.41-1.37-.41-.57,0-.99,.1-1.25,.3-.27,.2-.47,.55-.6,1.05l-1.18-.16c.11-.5,.28-.91,.53-1.22,.25-.31,.6-.55,1.06-.72,.46-.17,1-.25,1.61-.25s1.1,.07,1.48,.21c.38,.14,.66,.32,.84,.54,.18,.22,.3,.49,.38,.82,.04,.21,.06,.58,.06,1.11v1.61c0,1.12,.03,1.83,.08,2.13,.05,.3,.15,.58,.3,.85h-1.26c-.12-.25-.21-.54-.24-.88Zm-.1-2.69c-.44,.18-1.09,.33-1.97,.46-.5,.07-.85,.15-1.05,.24-.21,.09-.36,.22-.48,.39-.11,.17-.17,.36-.17,.57,0,.32,.12,.59,.37,.8s.6,.32,1.07,.32,.88-.1,1.24-.3c.36-.2,.63-.48,.8-.83,.13-.27,.19-.67,.19-1.21v-.44Z"/><path d="M662.37,466.17v-7.11h1.08v1.01c.52-.78,1.28-1.17,2.26-1.17,.43,0,.82,.08,1.18,.23,.36,.15,.63,.36,.81,.61s.3,.55,.38,.89c.04,.22,.07,.61,.07,1.17v4.37h-1.21v-4.33c0-.49-.05-.86-.14-1.1-.09-.24-.26-.44-.5-.58-.24-.15-.52-.22-.84-.22-.51,0-.96,.16-1.33,.49-.37,.33-.56,.94-.56,1.85v3.88h-1.21Z"/><path d="M674.61,466.17v-.9c-.45,.71-1.11,1.06-1.99,1.06-.57,0-1.09-.16-1.56-.47-.48-.31-.84-.75-1.11-1.31-.26-.56-.39-1.2-.39-1.93s.12-1.35,.35-1.93c.24-.58,.59-1.02,1.07-1.33,.47-.31,1-.46,1.59-.46,.43,0,.81,.09,1.14,.27,.33,.18,.61,.42,.82,.71v-3.52h1.2v9.82h-1.12Zm-3.81-3.55c0,.91,.19,1.59,.58,2.04,.38,.45,.84,.68,1.36,.68s.97-.22,1.34-.65,.55-1.09,.55-1.97c0-.97-.19-1.69-.56-2.14-.38-.46-.84-.68-1.39-.68s-.98,.22-1.34,.66-.54,1.13-.54,2.07Z"/></g><line x1="746.11" y1="439.25" x2="694.67" y2="408.5" style="fill:none; stroke:#000; stroke-miterlimit:8;"/><line x1="636" y1="439.25" x2="694.62" y2="408.5" style="fill:none; stroke:#000; stroke-miterlimit:8;"/><ellipse cx="839.33" cy="374.83" rx="47.33" ry="22.33" style="fill:none; stroke:#000; stroke-miterlimit:8;"/><line x1="791.88" y1="374.5" x2="762.67" y2="374.5" style="fill:none; stroke:#000; stroke-miterlimit:8;"/><ellipse cx="839.33" cy="118.17" rx="47.33" ry="22.33" style="fill:none; stroke:#000; stroke-miterlimit:8;"/><ellipse cx="839.33" cy="179.5" rx="47.33" ry="22.33" style="fill:none; stroke:#000; stroke-miterlimit:8;"/><g><path d="M803.13,181.35l1.23-.11c.06,.49,.19,.89,.41,1.21,.21,.31,.54,.57,.99,.76s.95,.29,1.51,.29c.5,0,.93-.07,1.31-.22,.38-.15,.66-.35,.85-.61,.19-.26,.28-.54,.28-.84s-.09-.58-.27-.81c-.18-.23-.47-.42-.88-.58-.26-.1-.85-.26-1.75-.48-.9-.22-1.53-.42-1.9-.61-.47-.25-.82-.55-1.05-.91-.23-.36-.34-.77-.34-1.22,0-.5,.14-.96,.42-1.39s.69-.76,1.23-.98c.54-.22,1.14-.33,1.8-.33,.73,0,1.37,.12,1.93,.35,.56,.23,.98,.58,1.28,1.03,.3,.46,.46,.97,.48,1.55l-1.25,.09c-.07-.62-.29-1.09-.68-1.41s-.96-.48-1.71-.48-1.36,.14-1.72,.43c-.36,.29-.54,.63-.54,1.04,0,.35,.13,.64,.38,.87,.25,.23,.9,.46,1.96,.7s1.78,.45,2.17,.63c.57,.26,.99,.6,1.27,1,.27,.4,.41,.87,.41,1.4s-.15,1.01-.45,1.48c-.3,.46-.73,.82-1.29,1.08-.56,.26-1.19,.39-1.89,.39-.89,0-1.63-.13-2.23-.39-.6-.26-1.07-.65-1.41-1.17s-.52-1.11-.54-1.76Z"/><path d="M815.17,183.42l.17,1.06c-.34,.07-.64,.11-.91,.11-.44,0-.78-.07-1.02-.21s-.41-.32-.51-.55c-.1-.23-.15-.7-.15-1.42v-4.09h-.88v-.94h.88v-1.76l1.2-.72v2.48h1.21v.94h-1.21v4.16c0,.34,.02,.56,.06,.66,.04,.1,.11,.18,.21,.23s.23,.09,.41,.09c.13,0,.31-.02,.53-.05Z"/><path d="M820.96,183.62c-.45,.38-.88,.65-1.29,.8s-.86,.23-1.33,.23c-.78,0-1.38-.19-1.8-.57-.42-.38-.63-.87-.63-1.46,0-.35,.08-.67,.24-.95,.16-.29,.37-.52,.62-.69,.26-.17,.54-.31,.87-.4,.24-.06,.59-.12,1.07-.18,.97-.12,1.69-.25,2.15-.42,0-.17,0-.27,0-.31,0-.49-.11-.84-.34-1.04-.31-.27-.77-.41-1.37-.41-.57,0-.99,.1-1.25,.3-.27,.2-.47,.55-.6,1.05l-1.18-.16c.11-.5,.28-.91,.53-1.22,.25-.31,.6-.55,1.06-.72,.46-.17,1-.25,1.61-.25s1.1,.07,1.48,.21c.38,.14,.66,.32,.84,.54,.18,.22,.3,.49,.38,.82,.04,.21,.06,.58,.06,1.11v1.61c0,1.12,.03,1.83,.08,2.13,.05,.3,.15,.58,.3,.85h-1.26c-.12-.25-.21-.54-.24-.88Zm-.1-2.69c-.44,.18-1.09,.33-1.97,.46-.5,.07-.85,.15-1.05,.24-.21,.09-.36,.22-.48,.39-.11,.17-.17,.36-.17,.57,0,.32,.12,.59,.37,.8s.6,.32,1.07,.32,.88-.1,1.24-.3c.36-.2,.63-.48,.8-.83,.13-.27,.19-.67,.19-1.21v-.44Z"/><path d="M823.9,184.5v-7.11h1.08v1.08c.28-.5,.53-.84,.77-1s.49-.24,.77-.24c.41,0,.82,.13,1.24,.39l-.42,1.12c-.29-.17-.59-.26-.88-.26-.26,0-.5,.08-.71,.24-.21,.16-.36,.38-.45,.66-.13,.43-.2,.9-.2,1.41v3.72h-1.21Z"/><path d="M831.09,183.42l.17,1.06c-.34,.07-.64,.11-.91,.11-.44,0-.78-.07-1.02-.21s-.41-.32-.51-.55c-.1-.23-.15-.7-.15-1.42v-4.09h-.88v-.94h.88v-1.76l1.2-.72v2.48h1.21v.94h-1.21v4.16c0,.34,.02,.56,.06,.66,.04,.1,.11,.18,.21,.23s.23,.09,.41,.09c.13,0,.31-.02,.53-.05Z"/><path d="M831.77,181.55v-1.21h3.7v1.21h-3.7Z"/><path d="M836.93,184.5v-9.82h3.38c.76,0,1.35,.05,1.75,.14,.56,.13,1.04,.36,1.44,.7,.52,.44,.91,1,1.16,1.68,.26,.68,.38,1.46,.38,2.33,0,.75-.09,1.41-.26,1.98-.17,.58-.4,1.05-.67,1.43-.27,.38-.57,.67-.89,.89-.32,.22-.71,.38-1.17,.49-.46,.11-.98,.17-1.58,.17h-3.54Zm1.3-1.16h2.1c.65,0,1.16-.06,1.52-.18s.66-.29,.88-.51c.31-.31,.55-.72,.72-1.24s.26-1.15,.26-1.89c0-1.03-.17-1.82-.51-2.37-.34-.55-.75-.92-1.23-1.11-.35-.13-.91-.2-1.68-.2h-2.06v7.5Z"/><path d="M851.3,183.62c-.45,.38-.88,.65-1.29,.8s-.86,.23-1.33,.23c-.78,0-1.38-.19-1.8-.57-.42-.38-.63-.87-.63-1.46,0-.35,.08-.67,.24-.95,.16-.29,.37-.52,.62-.69,.26-.17,.54-.31,.87-.4,.24-.06,.59-.12,1.07-.18,.97-.12,1.69-.25,2.15-.42,0-.17,0-.27,0-.31,0-.49-.11-.84-.34-1.04-.31-.27-.77-.41-1.37-.41-.57,0-.99,.1-1.25,.3-.27,.2-.47,.55-.6,1.05l-1.18-.16c.11-.5,.28-.91,.53-1.22,.25-.31,.6-.55,1.06-.72,.46-.17,1-.25,1.61-.25s1.1,.07,1.48,.21c.38,.14,.66,.32,.84,.54,.18,.22,.3,.49,.38,.82,.04,.21,.06,.58,.06,1.11v1.61c0,1.12,.03,1.83,.08,2.13,.05,.3,.15,.58,.3,.85h-1.26c-.12-.25-.21-.54-.24-.88Zm-.1-2.69c-.44,.18-1.09,.33-1.97,.46-.5,.07-.85,.15-1.05,.24-.21,.09-.36,.22-.48,.39-.11,.17-.17,.36-.17,.57,0,.32,.12,.59,.37,.8s.6,.32,1.07,.32,.88-.1,1.24-.3c.36-.2,.63-.48,.8-.83,.13-.27,.19-.67,.19-1.21v-.44Z"/><path d="M856.89,183.42l.17,1.06c-.34,.07-.64,.11-.91,.11-.44,0-.78-.07-1.02-.21s-.41-.32-.51-.55c-.1-.23-.15-.7-.15-1.42v-4.09h-.88v-.94h.88v-1.76l1.2-.72v2.48h1.21v.94h-1.21v4.16c0,.34,.02,.56,.06,.66,.04,.1,.11,.18,.21,.23s.23,.09,.41,.09c.13,0,.31-.02,.53-.05Z"/><path d="M862.7,184.5v-1.04c-.55,.8-1.31,1.21-2.26,1.21-.42,0-.81-.08-1.17-.24-.36-.16-.63-.36-.81-.61-.18-.24-.3-.54-.37-.89-.05-.24-.07-.61-.07-1.12v-4.41h1.21v3.94c0,.63,.02,1.05,.07,1.27,.08,.32,.24,.57,.48,.75,.25,.18,.55,.27,.91,.27s.7-.09,1.02-.28c.32-.19,.54-.44,.67-.76,.13-.32,.2-.78,.2-1.39v-3.81h1.21v7.11h-1.08Z"/><path d="M865.64,184.5v-7.11h1.08v1c.22-.35,.52-.63,.89-.84,.37-.21,.79-.32,1.27-.32,.53,0,.96,.11,1.3,.33,.34,.22,.57,.52,.71,.92,.56-.83,1.29-1.25,2.2-1.25,.71,0,1.25,.2,1.63,.59,.38,.39,.57,.99,.57,1.8v4.88h-1.2v-4.48c0-.48-.04-.83-.12-1.04-.08-.21-.22-.38-.43-.51-.21-.13-.45-.19-.72-.19-.5,0-.92,.17-1.25,.5-.33,.33-.5,.87-.5,1.6v4.13h-1.21v-4.62c0-.54-.1-.94-.29-1.21-.2-.27-.52-.4-.96-.4-.34,0-.65,.09-.94,.27-.29,.18-.5,.44-.63,.78-.13,.34-.19,.84-.19,1.49v3.69h-1.21Z"/></g><line x1="791.88" y1="179.53" x2="762.67" y2="150.5" style="fill:none; stroke:#000; stroke-miterlimit:8;"/><line x1="762.67" y1="150.08" x2="791.97" y2="117.83" style="fill:none; stroke:#000; stroke-miterlimit:8;"/><ellipse cx="745.67" cy="63.5" rx="47" ry="22.33" style="fill:none; stroke:#000; stroke-miterlimit:8;"/><ellipse cx="635.67" cy="63.5" rx="47" ry="22.33" style="fill:none; stroke:#000; stroke-miterlimit:8;"/><line x1="745.85" y1="85.83" x2="696.67" y2="116.41" style="fill:none; stroke:#000; stroke-miterlimit:8;"/><line x1="635.33" y1="85.83" x2="696.21" y2="116.41" style="fill:none; stroke:#000; stroke-miterlimit:8;"/><ellipse cx="148.67" cy="329.5" rx="47.33" ry="22.33" style="fill:none; stroke:#000; stroke-miterlimit:8;"/><line x1="196" y1="329.17" x2="224.89" y2="374.42" style="fill:none; stroke:#000; stroke-miterlimit:8;"/><g><path d="M110.79,333.76v-9.82h1.3v8.66h4.83v1.16h-6.13Z"/><path d="M122.87,331.47l1.25,.15c-.2,.73-.56,1.29-1.09,1.69s-1.21,.6-2.04,.6c-1.04,0-1.87-.32-2.47-.96s-.91-1.54-.91-2.7,.31-2.12,.92-2.79c.62-.66,1.42-.99,2.4-.99s1.73,.32,2.33,.97,.9,1.56,.9,2.73c0,.07,0,.18,0,.32h-5.3c.04,.78,.27,1.38,.66,1.79,.4,.42,.89,.62,1.49,.62,.44,0,.82-.12,1.13-.35,.31-.23,.56-.6,.74-1.11Zm-3.96-1.95h3.97c-.05-.6-.21-1.05-.46-1.35-.38-.46-.88-.7-1.49-.7-.55,0-1.02,.19-1.4,.56-.38,.37-.59,.87-.63,1.49Z"/><path d="M125.32,325.32v-1.39h1.21v1.39h-1.21Zm0,8.43v-7.11h1.21v7.11h-1.21Z"/><path d="M127.56,331.63l1.19-.19c.07,.48,.25,.84,.56,1.1s.73,.38,1.28,.38,.96-.11,1.23-.34,.4-.49,.4-.79c0-.27-.12-.49-.35-.64-.17-.11-.58-.24-1.23-.41-.88-.22-1.5-.42-1.84-.58-.34-.16-.6-.39-.78-.68-.18-.29-.26-.61-.26-.95,0-.32,.07-.61,.22-.88,.14-.27,.34-.49,.59-.67,.19-.14,.44-.26,.77-.35,.32-.1,.67-.14,1.04-.14,.56,0,1.05,.08,1.47,.24s.73,.38,.93,.65c.2,.27,.34,.64,.42,1.1l-1.18,.16c-.05-.37-.21-.65-.47-.86-.26-.21-.62-.31-1.09-.31-.55,0-.95,.09-1.19,.27-.24,.18-.35,.4-.35,.64,0,.16,.05,.3,.15,.42,.1,.13,.25,.24,.46,.32,.12,.04,.48,.15,1.06,.31,.85,.23,1.45,.41,1.79,.56,.34,.15,.6,.36,.79,.63,.19,.28,.29,.62,.29,1.03s-.12,.78-.35,1.14-.57,.63-1.01,.82c-.44,.19-.94,.29-1.5,.29-.92,0-1.63-.19-2.11-.58-.48-.38-.79-.95-.93-1.71Z"/><path d="M137.21,332.68l.17,1.06c-.34,.07-.64,.11-.91,.11-.44,0-.78-.07-1.02-.21s-.41-.32-.51-.55c-.1-.23-.15-.7-.15-1.42v-4.09h-.88v-.94h.88v-1.76l1.2-.72v2.48h1.21v.94h-1.21v4.16c0,.34,.02,.56,.06,.66,.04,.1,.11,.18,.21,.23s.23,.09,.41,.09c.13,0,.31-.02,.53-.05Z"/><path d="M142.74,333.76v-1.04c-.55,.8-1.31,1.21-2.26,1.21-.42,0-.81-.08-1.17-.24-.36-.16-.63-.36-.81-.61-.18-.24-.3-.54-.37-.89-.05-.24-.07-.61-.07-1.12v-4.41h1.21v3.94c0,.63,.02,1.05,.07,1.27,.08,.32,.24,.57,.48,.75,.25,.18,.55,.27,.91,.27s.7-.09,1.02-.28c.32-.19,.54-.44,.67-.76,.13-.32,.2-.78,.2-1.39v-3.81h1.21v7.11h-1.08Z"/><path d="M145.39,333.76v-7.11h1.08v1.01c.52-.78,1.28-1.17,2.26-1.17,.43,0,.82,.08,1.18,.23,.36,.15,.63,.36,.81,.61s.3,.55,.38,.89c.04,.22,.07,.61,.07,1.17v4.37h-1.21v-4.33c0-.49-.05-.86-.14-1.1-.09-.24-.26-.44-.5-.58-.24-.15-.52-.22-.84-.22-.51,0-.96,.16-1.33,.49-.37,.33-.56,.94-.56,1.85v3.88h-1.21Z"/><path d="M152.48,334.34l1.17,.17c.05,.36,.19,.62,.41,.79,.3,.22,.71,.33,1.23,.33,.56,0,.99-.11,1.29-.33,.3-.22,.51-.54,.62-.94,.06-.25,.09-.76,.09-1.55-.53,.62-1.18,.93-1.97,.93-.98,0-1.73-.35-2.27-1.06-.54-.71-.8-1.55-.8-2.54,0-.68,.12-1.3,.37-1.88,.25-.57,.6-1.02,1.07-1.33,.47-.31,1.01-.47,1.64-.47,.84,0,1.53,.34,2.08,1.02v-.86h1.11v6.15c0,1.11-.11,1.89-.34,2.35-.23,.46-.58,.83-1.07,1.09-.49,.27-1.09,.4-1.8,.4-.85,0-1.53-.19-2.06-.57-.52-.38-.77-.96-.76-1.72Zm1-4.27c0,.93,.19,1.61,.56,2.04,.37,.43,.83,.64,1.39,.64s1.02-.21,1.39-.64,.56-1.09,.56-2.01-.19-1.53-.58-1.97c-.39-.44-.85-.66-1.4-.66s-.99,.22-1.37,.65c-.38,.44-.56,1.08-.56,1.94Z"/><path d="M159.53,331.63l1.19-.19c.07,.48,.25,.84,.56,1.1s.73,.38,1.28,.38,.96-.11,1.23-.34,.4-.49,.4-.79c0-.27-.12-.49-.35-.64-.17-.11-.58-.24-1.23-.41-.88-.22-1.5-.42-1.84-.58-.34-.16-.6-.39-.78-.68-.18-.29-.26-.61-.26-.95,0-.32,.07-.61,.22-.88,.14-.27,.34-.49,.59-.67,.19-.14,.44-.26,.77-.35,.32-.1,.67-.14,1.04-.14,.56,0,1.05,.08,1.47,.24s.73,.38,.93,.65c.2,.27,.34,.64,.42,1.1l-1.18,.16c-.05-.37-.21-.65-.47-.86-.26-.21-.62-.31-1.09-.31-.55,0-.95,.09-1.19,.27-.24,.18-.35,.4-.35,.64,0,.16,.05,.3,.15,.42,.1,.13,.25,.24,.46,.32,.12,.04,.48,.15,1.06,.31,.85,.23,1.45,.41,1.79,.56,.34,.15,.6,.36,.79,.63,.19,.28,.29,.62,.29,1.03s-.12,.78-.35,1.14-.57,.63-1.01,.82c-.44,.19-.94,.29-1.5,.29-.92,0-1.63-.19-2.11-.58-.48-.38-.79-.95-.93-1.71Z"/><path d="M166.09,330.81v-1.21h3.7v1.21h-3.7Z"/><path d="M170.95,333.76v-9.82h1.33l5.16,7.71v-7.71h1.25v9.82h-1.33l-5.16-7.71v7.71h-1.25Z"/><path d="M180.38,333.76v-7.11h1.08v1.08c.28-.5,.53-.84,.77-1s.49-.24,.77-.24c.41,0,.82,.13,1.24,.39l-.42,1.12c-.29-.17-.59-.26-.88-.26-.26,0-.5,.08-.71,.24-.21,.16-.36,.38-.45,.66-.13,.43-.2,.9-.2,1.41v3.72h-1.21Z"/><path d="M184.99,333.76v-1.37h1.37v1.37h-1.37Z"/><path d="M109.78,335.71v-1h77.46v1H109.78Z"/></g><g><path d="M815.02,115.5l3.77-9.82h1.4l4.02,9.82h-1.48l-1.15-2.97h-4.1l-1.08,2.97h-1.38Zm2.83-4.03h3.33l-1.02-2.72c-.31-.83-.54-1.5-.7-2.04-.12,.63-.3,1.25-.53,1.88l-1.08,2.88Z"/><path d="M829.72,115.5v-1.04c-.55,.8-1.31,1.21-2.26,1.21-.42,0-.81-.08-1.17-.24-.36-.16-.63-.36-.81-.61-.18-.24-.3-.54-.37-.89-.05-.24-.07-.61-.07-1.12v-4.41h1.21v3.94c0,.63,.02,1.05,.07,1.27,.08,.32,.24,.57,.48,.75,.25,.18,.55,.27,.91,.27s.7-.09,1.02-.28c.32-.19,.54-.44,.67-.76,.13-.32,.2-.78,.2-1.39v-3.81h1.21v7.11h-1.08Z"/><path d="M832.95,115.5v-6.17h-1.07v-.94h1.07v-.76c0-.48,.04-.83,.13-1.06,.12-.31,.32-.57,.61-.76,.29-.19,.7-.29,1.23-.29,.34,0,.71,.04,1.12,.12l-.18,1.05c-.25-.04-.49-.07-.71-.07-.37,0-.62,.08-.78,.23-.15,.16-.23,.45-.23,.88v.66h1.39v.94h-1.39v6.17h-1.2Z"/><path d="M839.08,114.42l.17,1.06c-.34,.07-.64,.11-.91,.11-.44,0-.78-.07-1.02-.21s-.41-.32-.51-.55c-.1-.23-.15-.7-.15-1.42v-4.09h-.88v-.94h.88v-1.76l1.2-.72v2.48h1.21v.94h-1.21v4.16c0,.34,.02,.56,.06,.66,.04,.1,.11,.18,.21,.23s.23,.09,.41,.09c.13,0,.31-.02,.53-.05Z"/><path d="M840.21,115.5v-7.11h1.08v1.08c.28-.5,.53-.84,.77-1s.49-.24,.77-.24c.41,0,.82,.13,1.24,.39l-.42,1.12c-.29-.17-.59-.26-.88-.26-.26,0-.5,.08-.71,.24-.21,.16-.36,.38-.45,.66-.13,.43-.2,.9-.2,1.41v3.72h-1.21Z"/><path d="M849.41,114.62c-.45,.38-.88,.65-1.29,.8s-.86,.23-1.33,.23c-.78,0-1.38-.19-1.8-.57-.42-.38-.63-.87-.63-1.46,0-.35,.08-.67,.24-.95,.16-.29,.37-.52,.62-.69,.26-.17,.54-.31,.87-.4,.24-.06,.59-.12,1.07-.18,.97-.12,1.69-.25,2.15-.42,0-.17,0-.27,0-.31,0-.49-.11-.84-.34-1.04-.31-.27-.77-.41-1.37-.41-.57,0-.99,.1-1.25,.3-.27,.2-.47,.55-.6,1.05l-1.18-.16c.11-.5,.28-.91,.53-1.22,.25-.31,.6-.55,1.06-.72,.46-.17,1-.25,1.61-.25s1.1,.07,1.48,.21c.38,.14,.66,.32,.84,.54,.18,.22,.3,.49,.38,.82,.04,.21,.06,.58,.06,1.11v1.61c0,1.12,.03,1.83,.08,2.13,.05,.3,.15,.58,.3,.85h-1.26c-.12-.25-.21-.54-.24-.88Zm-.1-2.69c-.44,.18-1.09,.33-1.97,.46-.5,.07-.85,.15-1.05,.24-.21,.09-.36,.22-.48,.39-.11,.17-.17,.36-.17,.57,0,.32,.12,.59,.37,.8s.6,.32,1.07,.32,.88-.1,1.24-.3c.36-.2,.63-.48,.8-.83,.13-.27,.19-.67,.19-1.21v-.44Z"/><path d="M852.15,116.09l1.17,.17c.05,.36,.19,.62,.41,.79,.3,.22,.71,.33,1.23,.33,.56,0,.99-.11,1.29-.33,.3-.22,.51-.54,.62-.94,.06-.25,.09-.76,.09-1.55-.53,.62-1.18,.93-1.97,.93-.98,0-1.73-.35-2.27-1.06-.54-.71-.8-1.55-.8-2.54,0-.68,.12-1.3,.37-1.88,.25-.57,.6-1.02,1.07-1.33,.47-.31,1.01-.47,1.64-.47,.84,0,1.53,.34,2.08,1.02v-.86h1.11v6.15c0,1.11-.11,1.89-.34,2.35-.23,.46-.58,.83-1.07,1.09-.49,.27-1.09,.4-1.8,.4-.85,0-1.53-.19-2.06-.57-.52-.38-.77-.96-.76-1.72Zm1-4.27c0,.93,.19,1.61,.56,2.04,.37,.43,.83,.64,1.39,.64s1.02-.21,1.39-.64,.56-1.09,.56-2.01-.19-1.53-.58-1.97c-.39-.44-.85-.66-1.4-.66s-.99,.22-1.37,.65c-.38,.44-.56,1.08-.56,1.94Z"/><path d="M859.5,112.55v-1.21h3.7v1.21h-3.7Z"/><path d="M822.53,132.55l1.17,.17c.05,.36,.19,.62,.41,.79,.3,.22,.71,.33,1.23,.33,.56,0,.99-.11,1.29-.33,.3-.22,.51-.54,.62-.94,.06-.25,.09-.76,.09-1.55-.53,.62-1.18,.93-1.97,.93-.98,0-1.73-.35-2.27-1.06-.54-.71-.8-1.55-.8-2.54,0-.68,.12-1.3,.37-1.88,.25-.57,.6-1.02,1.07-1.33,.47-.31,1.01-.47,1.64-.47,.84,0,1.53,.34,2.08,1.02v-.86h1.11v6.15c0,1.11-.11,1.89-.34,2.35-.23,.46-.58,.83-1.07,1.09-.49,.27-1.09,.4-1.8,.4-.85,0-1.53-.19-2.06-.57-.52-.38-.77-.96-.76-1.72Zm1-4.27c0,.93,.19,1.61,.56,2.04,.37,.43,.83,.64,1.39,.64s1.02-.21,1.39-.64,.56-1.09,.56-2.01-.19-1.53-.58-1.97c-.39-.44-.85-.66-1.4-.66s-.99,.22-1.37,.65c-.38,.44-.56,1.08-.56,1.94Z"/><path d="M835.22,129.67l1.25,.15c-.2,.73-.56,1.29-1.09,1.69s-1.21,.6-2.04,.6c-1.04,0-1.87-.32-2.47-.96s-.91-1.54-.91-2.7,.31-2.12,.92-2.79c.62-.66,1.42-.99,2.4-.99s1.73,.32,2.33,.97,.9,1.56,.9,2.73c0,.07,0,.18,0,.32h-5.3c.04,.78,.27,1.38,.66,1.79,.4,.42,.89,.62,1.49,.62,.44,0,.82-.12,1.13-.35,.31-.23,.56-.6,.74-1.11Zm-3.96-1.95h3.97c-.05-.6-.21-1.05-.46-1.35-.38-.46-.88-.7-1.49-.7-.55,0-1.02,.19-1.4,.56-.38,.37-.59,.87-.63,1.49Z"/><path d="M839.07,131.96h-1.12v-9.82h1.21v3.5c.51-.64,1.16-.96,1.95-.96,.44,0,.85,.09,1.24,.26s.71,.42,.96,.74c.25,.32,.45,.7,.59,1.16,.14,.45,.21,.93,.21,1.45,0,1.22-.3,2.16-.9,2.83-.6,.67-1.33,1-2.17,1s-1.5-.35-1.98-1.05v.89Zm-.01-3.61c0,.85,.12,1.47,.35,1.85,.38,.62,.89,.93,1.54,.93,.53,0,.98-.23,1.37-.69s.58-1.14,.58-2.05-.18-1.61-.55-2.06-.81-.66-1.34-.66-.98,.23-1.37,.69-.58,1.12-.58,1.99Z"/><path d="M850.42,129.67l1.25,.15c-.2,.73-.56,1.29-1.09,1.69s-1.21,.6-2.04,.6c-1.04,0-1.87-.32-2.47-.96s-.91-1.54-.91-2.7,.31-2.12,.92-2.79c.62-.66,1.42-.99,2.4-.99s1.73,.32,2.33,.97,.9,1.56,.9,2.73c0,.07,0,.18,0,.32h-5.3c.04,.78,.27,1.38,.66,1.79,.4,.42,.89,.62,1.49,.62,.44,0,.82-.12,1.13-.35,.31-.23,.56-.6,.74-1.11Zm-3.96-1.95h3.97c-.05-.6-.21-1.05-.46-1.35-.38-.46-.88-.7-1.49-.7-.55,0-1.02,.19-1.4,.56-.38,.37-.59,.87-.63,1.49Z"/><path d="M853.14,131.96v-7.11h1.08v1.08c.28-.5,.53-.84,.77-1s.49-.24,.77-.24c.41,0,.82,.13,1.24,.39l-.42,1.12c-.29-.17-.59-.26-.88-.26-.26,0-.5,.08-.71,.24-.21,.16-.36,.38-.45,.66-.13,.43-.2,.9-.2,1.41v3.72h-1.21Z"/></g><path d="M370.24,140.5h-1.21v-7.68c-.29,.28-.67,.55-1.14,.83-.47,.28-.89,.48-1.27,.62v-1.17c.67-.32,1.26-.7,1.77-1.15,.5-.45,.86-.89,1.07-1.31h.78v9.86Z"/><path d="M617.84,140.5h-1.21v-7.68c-.29,.28-.67,.55-1.14,.83-.47,.28-.89,.48-1.27,.62v-1.17c.67-.32,1.26-.7,1.77-1.15,.5-.45,.86-.89,1.07-1.31h.78v9.86Z"/></svg>