<?xml version="1.0" encoding="UTF-8"?><svg id="Ebene_1" xmlns="http://www.w3.org/2000/svg" viewBox="0 0 988 525"><g><g><rect x="135" y="350.51" width="172.67" height="68" style="fill:#fff; stroke:#000; stroke-miterlimit:8; stroke-width:2px;"/><g><path d="M181.62,390.17v-11.45h3.46l2.08,7.81,2.05-7.81h3.47v11.45h-2.15v-9.02l-2.27,9.02h-2.23l-2.27-9.02v9.02h-2.15Z"/><path d="M194.93,380.75v-2.03h2.2v2.03h-2.2Zm0,9.42v-8.3h2.2v8.3h-2.2Z"/><path d="M203.17,381.88v1.75h-1.5v3.34c0,.68,.01,1.07,.04,1.18s.09,.2,.2,.28,.23,.11,.37,.11c.2,0,.5-.07,.88-.21l.19,1.7c-.51,.22-1.09,.33-1.73,.33-.4,0-.75-.07-1.07-.2s-.55-.3-.7-.52-.25-.5-.31-.86c-.05-.25-.07-.77-.07-1.55v-3.62h-1.01v-1.75h1.01v-1.65l2.2-1.28v2.93h1.5Z"/><path d="M206.29,384.41l-1.99-.36c.22-.8,.61-1.4,1.16-1.78s1.36-.58,2.44-.58c.98,0,1.71,.12,2.19,.35s.82,.53,1.01,.88,.29,1.01,.29,1.96l-.02,2.56c0,.73,.04,1.27,.11,1.61s.2,.72,.39,1.11h-2.17c-.06-.15-.13-.36-.21-.65-.04-.13-.06-.22-.08-.26-.38,.36-.78,.64-1.2,.82-.43,.18-.88,.27-1.37,.27-.85,0-1.53-.23-2.02-.7s-.74-1.05-.74-1.76c0-.47,.11-.89,.34-1.25s.54-.65,.94-.84,.99-.37,1.75-.51c1.03-.19,1.74-.37,2.13-.54v-.22c0-.42-.1-.72-.31-.9s-.6-.27-1.18-.27c-.39,0-.7,.08-.91,.23s-.4,.42-.53,.81Zm2.94,1.78c-.28,.09-.73,.21-1.34,.34s-1.01,.26-1.2,.38c-.29,.2-.43,.46-.43,.77s.11,.57,.34,.8,.52,.34,.88,.34c.4,0,.77-.13,1.13-.39,.27-.2,.44-.44,.52-.73,.06-.19,.09-.54,.09-1.07v-.44Z"/><path d="M215.64,390.17h-2.2v-8.3h2.04v1.18c.35-.56,.66-.92,.94-1.1s.59-.27,.95-.27c.5,0,.98,.14,1.45,.41l-.68,1.91c-.37-.24-.71-.36-1.03-.36s-.57,.08-.78,.25-.38,.48-.5,.92-.18,1.37-.18,2.78v2.56Z"/><path d="M219.68,390.17v-11.45h2.2v4.12c.68-.77,1.48-1.16,2.41-1.16,1.01,0,1.85,.37,2.51,1.1s.99,1.78,.99,3.15-.34,2.51-1.01,3.27-1.49,1.15-2.46,1.15c-.47,0-.94-.12-1.4-.36-.46-.24-.86-.59-1.19-1.05v1.22h-2.04Zm2.18-4.33c0,.86,.14,1.5,.41,1.91,.38,.58,.89,.88,1.52,.88,.48,0,.9-.21,1.24-.62s.51-1.07,.51-1.96c0-.95-.17-1.63-.52-2.05s-.78-.63-1.32-.63-.96,.2-1.31,.61-.52,1.03-.52,1.86Z"/><path d="M234.38,387.53l2.19,.37c-.28,.8-.73,1.41-1.33,1.83s-1.37,.63-2.28,.63c-1.44,0-2.51-.47-3.2-1.41-.55-.75-.82-1.71-.82-2.86,0-1.38,.36-2.45,1.08-3.23s1.63-1.17,2.73-1.17c1.23,0,2.21,.41,2.92,1.22s1.05,2.06,1.02,3.75h-5.5c.02,.65,.19,1.16,.53,1.52s.76,.54,1.27,.54c.34,0,.63-.09,.87-.28s.41-.49,.53-.91Zm.12-2.22c-.02-.64-.18-1.12-.49-1.45s-.69-.5-1.14-.5c-.48,0-.88,.17-1.19,.52s-.47,.82-.46,1.42h3.28Z"/><path d="M238.47,380.75v-2.03h2.2v2.03h-2.2Zm0,9.42v-8.3h2.2v8.3h-2.2Z"/><path d="M246.71,381.88v1.75h-1.5v3.34c0,.68,.01,1.07,.04,1.18s.09,.2,.2,.28,.23,.11,.37,.11c.2,0,.5-.07,.88-.21l.19,1.7c-.51,.22-1.09,.33-1.73,.33-.4,0-.75-.07-1.07-.2s-.55-.3-.7-.52-.25-.5-.31-.86c-.05-.25-.07-.77-.07-1.55v-3.62h-1.01v-1.75h1.01v-1.65l2.2-1.28v2.93h1.5Z"/><path d="M252.99,387.53l2.19,.37c-.28,.8-.73,1.41-1.33,1.83s-1.37,.63-2.28,.63c-1.44,0-2.51-.47-3.2-1.41-.55-.75-.82-1.71-.82-2.86,0-1.38,.36-2.45,1.08-3.23s1.63-1.17,2.73-1.17c1.23,0,2.21,.41,2.92,1.22s1.05,2.06,1.02,3.75h-5.5c.02,.65,.19,1.16,.53,1.52s.76,.54,1.27,.54c.34,0,.63-.09,.87-.28s.41-.49,.53-.91Zm.12-2.22c-.02-.64-.18-1.12-.49-1.45s-.69-.5-1.14-.5c-.48,0-.88,.17-1.19,.52s-.47,.82-.46,1.42h3.28Z"/><path d="M259.2,390.17h-2.2v-8.3h2.04v1.18c.35-.56,.66-.92,.94-1.1s.59-.27,.95-.27c.5,0,.98,.14,1.45,.41l-.68,1.91c-.37-.24-.71-.36-1.03-.36s-.57,.08-.78,.25-.38,.48-.5,.92-.18,1.37-.18,2.78v2.56Z"/></g><polygon points="430.33 384.09 488.33 359.09 546.33 384.09 488.33 409.09 430.33 384.09" style="fill:none; stroke:#000; stroke-miterlimit:8;"/><g><path d="M471.19,385.88l1.24,.15c-.2,.73-.56,1.29-1.09,1.69-.53,.4-1.21,.6-2.04,.6-1.04,0-1.87-.32-2.47-.96s-.91-1.54-.91-2.7,.31-2.12,.93-2.79c.62-.66,1.41-.99,2.4-.99s1.73,.32,2.33,.97c.6,.65,.9,1.56,.9,2.73,0,.07,0,.18,0,.32h-5.3c.04,.78,.27,1.38,.66,1.79,.4,.42,.89,.62,1.49,.62,.44,0,.82-.12,1.13-.35s.56-.6,.74-1.11Zm-3.96-1.95h3.97c-.05-.6-.21-1.05-.46-1.35-.38-.46-.88-.7-1.49-.7-.55,0-1.02,.18-1.4,.56-.38,.37-.59,.87-.63,1.49Z"/><path d="M473.84,388.17v-7.11h1.09v1.08c.28-.5,.53-.84,.77-1,.23-.16,.49-.24,.77-.24,.41,0,.82,.13,1.24,.39l-.42,1.12c-.29-.17-.59-.26-.88-.26-.26,0-.5,.08-.71,.24s-.36,.38-.45,.66c-.13,.43-.2,.9-.2,1.41v3.72h-1.21Z"/><path d="M479.44,388.17h-1.12v-9.82h1.21v3.5c.51-.64,1.16-.96,1.95-.96,.44,0,.85,.09,1.24,.26,.39,.18,.71,.42,.96,.74s.45,.7,.59,1.16,.21,.93,.21,1.45c0,1.22-.3,2.16-.9,2.83-.6,.67-1.33,1-2.17,1s-1.5-.35-1.98-1.05v.89Zm-.01-3.61c0,.85,.12,1.47,.35,1.85,.38,.62,.89,.93,1.54,.93,.53,0,.98-.23,1.37-.69,.38-.46,.58-1.14,.58-2.05s-.19-1.61-.55-2.06c-.37-.44-.81-.66-1.34-.66s-.98,.23-1.37,.69c-.38,.46-.58,1.12-.58,1.99Z"/><path d="M485.84,388.17v-7.11h1.09v1.08c.28-.5,.53-.84,.77-1,.23-.16,.49-.24,.77-.24,.41,0,.82,.13,1.24,.39l-.42,1.12c-.29-.17-.59-.26-.88-.26-.26,0-.5,.08-.71,.24s-.36,.38-.45,.66c-.13,.43-.2,.9-.2,1.41v3.72h-1.21Z"/><path d="M490.34,379.74v-1.39h1.21v1.39h-1.21Zm0,8.43v-7.11h1.21v7.11h-1.21Z"/><path d="M493.28,388.17v-7.11h1.09v1.01c.52-.78,1.28-1.17,2.26-1.17,.43,0,.82,.08,1.18,.23,.36,.15,.63,.36,.81,.61,.18,.25,.3,.55,.38,.89,.04,.22,.07,.61,.07,1.17v4.37h-1.21v-4.33c0-.49-.05-.86-.14-1.1s-.26-.44-.5-.58c-.24-.14-.52-.22-.84-.22-.51,0-.96,.16-1.33,.49-.37,.33-.56,.94-.56,1.86v3.88h-1.21Z"/><path d="M500.59,388.76l1.17,.17c.05,.36,.19,.62,.41,.79,.3,.22,.71,.33,1.23,.33,.56,0,.99-.11,1.29-.33,.3-.22,.51-.54,.62-.94,.06-.25,.09-.76,.09-1.55-.53,.62-1.18,.93-1.97,.93-.98,0-1.73-.35-2.27-1.06-.54-.71-.8-1.55-.8-2.54,0-.68,.12-1.3,.37-1.88s.6-1.02,1.07-1.33,1.01-.47,1.64-.47c.84,0,1.53,.34,2.08,1.02v-.86h1.11v6.15c0,1.11-.11,1.89-.34,2.35-.23,.46-.58,.83-1.07,1.09-.49,.27-1.09,.4-1.8,.4-.85,0-1.53-.19-2.06-.57-.52-.38-.77-.96-.76-1.72Zm1-4.27c0,.93,.19,1.61,.55,2.04,.37,.43,.84,.64,1.39,.64s1.02-.21,1.39-.64c.38-.43,.56-1.09,.56-2.01s-.19-1.53-.58-1.97c-.39-.44-.85-.66-1.4-.66s-.99,.22-1.37,.65-.56,1.08-.56,1.94Z"/><path d="M510.97,387.1l.17,1.06c-.34,.07-.64,.11-.91,.11-.44,0-.78-.07-1.02-.21-.24-.14-.41-.32-.51-.55-.1-.22-.15-.7-.15-1.42v-4.09h-.88v-.94h.88v-1.76l1.2-.72v2.48h1.21v.94h-1.21v4.16c0,.34,.02,.56,.06,.66,.04,.1,.11,.18,.21,.23,.1,.06,.23,.09,.41,.09,.13,0,.31-.02,.53-.05Z"/></g><line x1="307.67" y1="383.76" x2="430.54" y2="383.76" style="fill:none; stroke:#000; stroke-miterlimit:8;"/><line x1="546.33" y1="383.76" x2="681.05" y2="383.76" style="fill:none; stroke:#000; stroke-miterlimit:8;"/><rect x="681" y="350.51" width="172" height="68" style="fill:#fff; stroke:#000; stroke-miterlimit:8; stroke-width:2px;"/><g><path d="M734.89,390.17v-11.36h2.31v9.43h5.75v1.93h-8.06Z"/><path d="M749.39,387.53l2.19,.37c-.28,.8-.72,1.41-1.33,1.83-.61,.42-1.37,.63-2.28,.63-1.44,0-2.51-.47-3.2-1.41-.55-.75-.82-1.71-.82-2.86,0-1.38,.36-2.45,1.08-3.23s1.63-1.17,2.73-1.17c1.23,0,2.21,.41,2.92,1.22,.71,.82,1.05,2.06,1.02,3.75h-5.5c.02,.65,.19,1.16,.53,1.52,.34,.36,.76,.54,1.27,.54,.34,0,.63-.09,.87-.28s.41-.49,.53-.91Zm.12-2.22c-.02-.64-.18-1.12-.49-1.45s-.69-.5-1.14-.5c-.48,0-.88,.17-1.19,.52s-.46,.82-.46,1.42h3.28Z"/><path d="M753.49,380.75v-2.03h2.2v2.03h-2.2Zm0,9.42v-8.3h2.2v8.3h-2.2Z"/><path d="M757.16,387.81l2.2-.34c.09,.43,.29,.75,.57,.97,.29,.22,.69,.33,1.2,.33,.57,0,1-.1,1.28-.31,.19-.15,.29-.34,.29-.59,0-.17-.05-.3-.16-.41-.11-.1-.35-.2-.73-.29-1.77-.39-2.89-.75-3.37-1.07-.66-.45-.98-1.07-.98-1.87,0-.72,.29-1.32,.85-1.81,.57-.49,1.45-.73,2.64-.73s1.98,.18,2.53,.55c.55,.37,.93,.92,1.14,1.64l-2.07,.38c-.09-.32-.26-.57-.5-.74-.25-.17-.6-.26-1.06-.26-.58,0-.99,.08-1.24,.24-.17,.11-.25,.26-.25,.45,0,.16,.07,.29,.22,.4,.2,.15,.88,.35,2.05,.62,1.17,.27,1.99,.59,2.45,.98,.46,.39,.69,.93,.69,1.63,0,.76-.32,1.41-.95,1.96-.63,.55-1.57,.82-2.82,.82-1.13,0-2.02-.23-2.68-.69-.66-.46-1.09-1.08-1.29-1.87Z"/><path d="M770.64,381.88v1.75h-1.5v3.34c0,.68,.02,1.07,.04,1.18,.03,.11,.09,.2,.2,.28s.23,.11,.37,.11c.2,0,.5-.07,.88-.21l.19,1.7c-.51,.22-1.09,.33-1.73,.33-.39,0-.75-.07-1.07-.2-.32-.13-.55-.3-.7-.52s-.25-.5-.31-.86c-.05-.25-.07-.77-.07-1.55v-3.62h-1.01v-1.75h1.01v-1.65l2.2-1.28v2.93h1.5Z"/><path d="M777.62,390.17v-1.24c-.3,.44-.7,.79-1.19,1.05s-1.01,.38-1.56,.38-1.06-.12-1.5-.37c-.44-.25-.76-.59-.96-1.03-.2-.44-.3-1.05-.3-1.84v-5.25h2.2v3.81c0,1.17,.04,1.88,.12,2.14,.08,.26,.23,.47,.44,.62,.21,.15,.48,.23,.81,.23,.38,0,.71-.1,1.01-.31s.5-.46,.61-.77,.16-1.05,.16-2.24v-3.5h2.2v8.3h-2.04Z"/><path d="M789.48,390.17h-2.2v-4.23c0-.9-.05-1.48-.14-1.74s-.25-.47-.46-.61-.46-.22-.76-.22c-.38,0-.72,.1-1.02,.31-.3,.21-.51,.48-.62,.83-.11,.34-.17,.98-.17,1.91v3.76h-2.2v-8.3h2.04v1.22c.72-.94,1.64-1.41,2.73-1.41,.48,0,.93,.09,1.33,.26,.4,.17,.71,.4,.91,.67,.21,.27,.35,.58,.43,.92,.08,.34,.12,.84,.12,1.48v5.16Z"/><path d="M791.5,390.72l2.51,.3c.04,.29,.14,.49,.29,.6,.21,.16,.54,.23,.98,.23,.57,0,1-.09,1.29-.26,.19-.12,.34-.3,.44-.55,.07-.18,.1-.52,.1-1.01v-1.21c-.66,.9-1.48,1.34-2.48,1.34-1.11,0-2-.47-2.65-1.41-.51-.75-.77-1.67-.77-2.78,0-1.39,.34-2.45,1-3.19,.67-.73,1.5-1.1,2.5-1.1s1.87,.45,2.54,1.35v-1.16h2.05v7.45c0,.98-.08,1.71-.24,2.2-.16,.48-.39,.86-.68,1.14-.29,.28-.68,.49-1.17,.65-.49,.16-1.1,.23-1.85,.23-1.41,0-2.4-.24-2.99-.72-.59-.48-.88-1.09-.88-1.83,0-.07,0-.16,0-.27Zm1.96-4.87c0,.88,.17,1.52,.51,1.93,.34,.41,.76,.61,1.26,.61,.54,0,.99-.21,1.36-.63,.37-.42,.55-1.04,.55-1.86s-.18-1.5-.53-1.91c-.35-.42-.8-.62-1.34-.62s-.96,.2-1.3,.61c-.34,.41-.51,1.03-.51,1.87Z"/></g><g><path d="M319.03,369.67c0-1.16,.12-2.1,.36-2.8,.24-.71,.59-1.25,1.06-1.64s1.06-.58,1.78-.58c.53,0,.99,.11,1.39,.32,.4,.21,.72,.52,.98,.92,.26,.4,.46,.89,.61,1.46,.15,.57,.22,1.35,.22,2.32,0,1.15-.12,2.08-.36,2.79-.24,.71-.59,1.25-1.06,1.64-.47,.39-1.07,.58-1.79,.58-.95,0-1.69-.34-2.23-1.02-.65-.82-.97-2.15-.97-3.99Zm1.24,0c0,1.61,.19,2.68,.57,3.22,.38,.53,.84,.8,1.4,.8s1.02-.27,1.4-.8,.57-1.61,.57-3.21-.19-2.69-.57-3.22-.85-.8-1.41-.8-1,.23-1.33,.7c-.41,.6-.62,1.7-.62,3.32Z"/><path d="M327.31,374.51v-1.37h1.37v1.37c0,.5-.09,.91-.27,1.22-.18,.31-.46,.55-.85,.72l-.33-.52c.25-.11,.44-.28,.56-.49,.12-.22,.19-.53,.2-.93h-.68Z"/><path d="M330.81,374.51v-7.11h1.08v1.01c.52-.78,1.28-1.17,2.26-1.17,.43,0,.82,.08,1.18,.23s.63,.36,.81,.61c.18,.25,.3,.55,.38,.89,.04,.22,.07,.61,.07,1.17v4.37h-1.21v-4.33c0-.49-.05-.86-.14-1.1-.09-.24-.26-.44-.5-.58s-.52-.22-.84-.22c-.51,0-.96,.16-1.33,.49-.37,.33-.56,.94-.56,1.85v3.88h-1.21Z"/></g><g><path d="M656.73,374.51h-1.21v-7.68c-.29,.28-.67,.55-1.14,.83-.47,.28-.89,.48-1.27,.62v-1.17c.67-.32,1.26-.7,1.77-1.15,.51-.45,.86-.89,1.07-1.31h.78v9.86Z"/><path d="M660.47,374.51v-1.37h1.37v1.37c0,.5-.09,.91-.27,1.22-.18,.31-.46,.55-.85,.72l-.33-.52c.25-.11,.44-.28,.56-.49,.12-.22,.19-.53,.2-.93h-.68Z"/><path d="M668.17,374.51h-1.21v-7.68c-.29,.28-.67,.55-1.14,.83-.47,.28-.89,.48-1.27,.62v-1.17c.67-.32,1.26-.7,1.77-1.15,.51-.45,.86-.89,1.07-1.31h.78v9.86Z"/></g></g><g><path d="M136.11,320.05v-10.02h7.25v1.18h-5.92v3.07h5.54v1.18h-5.54v3.41h6.15v1.18h-7.48Z" style="fill:#1d1d1b;"/><path d="M145.27,311.45v-1.42h1.23v1.42h-1.23Zm0,8.61v-7.26h1.23v7.26h-1.23Z" style="fill:#1d1d1b;"/><path d="M148.37,320.05v-7.26h1.11v1.03c.53-.8,1.3-1.2,2.31-1.2,.44,0,.84,.08,1.21,.24s.64,.36,.82,.62c.18,.25,.31,.56,.38,.91,.04,.23,.07,.63,.07,1.2v4.46h-1.23v-4.42c0-.5-.05-.88-.14-1.12s-.27-.45-.51-.59c-.24-.15-.53-.22-.86-.22-.52,0-.98,.17-1.36,.5-.38,.33-.57,.96-.57,1.89v3.96h-1.23Z" style="fill:#1d1d1b;"/><path d="M160.16,320.05v-10.02h2l2.37,7.1c.22,.66,.38,1.16,.48,1.48,.12-.37,.29-.9,.53-1.61l2.4-6.97h1.78v10.02h-1.28v-8.39l-2.91,8.39h-1.2l-2.9-8.53v8.53h-1.28Z" style="fill:#1d1d1b;"/><path d="M171.72,311.45v-1.42h1.23v1.42h-1.23Zm0,8.61v-7.26h1.23v7.26h-1.23Z" style="fill:#1d1d1b;"/><path d="M177.51,318.95l.18,1.09c-.35,.07-.66,.11-.93,.11-.45,0-.79-.07-1.04-.21-.25-.14-.42-.33-.52-.56-.1-.23-.15-.71-.15-1.45v-4.18h-.9v-.96h.9v-1.8l1.22-.74v2.54h1.24v.96h-1.24v4.25c0,.35,.02,.58,.06,.68,.04,.1,.11,.18,.21,.24,.1,.06,.24,.09,.42,.09,.14,0,.32-.02,.54-.05Z" style="fill:#1d1d1b;"/><path d="M183.45,319.16c-.46,.39-.89,.66-1.32,.82-.42,.16-.87,.24-1.36,.24-.8,0-1.41-.19-1.84-.58-.43-.39-.64-.89-.64-1.49,0-.36,.08-.68,.24-.97s.37-.53,.64-.71c.26-.18,.56-.31,.88-.4,.24-.06,.61-.13,1.09-.19,.99-.12,1.72-.26,2.19-.42,0-.17,0-.28,0-.32,0-.5-.12-.86-.35-1.06-.31-.28-.78-.42-1.4-.42-.58,0-1.01,.1-1.28,.3-.28,.2-.48,.56-.61,1.08l-1.2-.16c.11-.52,.29-.93,.54-1.25,.25-.32,.61-.56,1.09-.73,.47-.17,1.02-.26,1.65-.26s1.12,.07,1.51,.22c.39,.15,.67,.33,.86,.55,.18,.22,.31,.5,.38,.84,.04,.21,.06,.59,.06,1.13v1.64c0,1.14,.03,1.87,.08,2.17,.05,.3,.15,.59,.31,.87h-1.29c-.13-.25-.21-.55-.25-.89Zm-.1-2.75c-.45,.18-1.12,.34-2.01,.46-.51,.07-.86,.15-1.07,.25-.21,.09-.37,.22-.49,.4-.11,.17-.17,.37-.17,.58,0,.33,.12,.6,.37,.82,.25,.22,.61,.33,1.09,.33s.89-.1,1.26-.31,.64-.49,.81-.85c.13-.28,.2-.69,.2-1.23v-.45Z" style="fill:#1d1d1b;"/><path d="M186.48,320.05v-7.26h1.11v1.1c.28-.52,.54-.86,.78-1.02,.24-.16,.5-.25,.79-.25,.41,0,.84,.13,1.26,.4l-.42,1.14c-.3-.18-.6-.27-.9-.27-.27,0-.51,.08-.72,.24-.21,.16-.37,.39-.46,.67-.14,.44-.21,.92-.21,1.44v3.8h-1.23Z" style="fill:#1d1d1b;"/><path d="M192.29,320.05h-1.14v-10.02h1.23v3.58c.52-.65,1.18-.98,1.99-.98,.45,0,.87,.09,1.27,.27s.73,.43,.98,.76,.46,.72,.61,1.18c.14,.46,.22,.95,.22,1.48,0,1.24-.31,2.21-.92,2.88-.62,.68-1.35,1.02-2.21,1.02s-1.53-.36-2.02-1.07v.91Zm-.01-3.68c0,.87,.12,1.5,.36,1.89,.39,.63,.91,.95,1.57,.95,.54,0,1-.23,1.39-.7,.39-.47,.59-1.16,.59-2.09s-.19-1.65-.56-2.1c-.38-.45-.83-.68-1.36-.68s-1,.23-1.39,.7c-.39,.47-.59,1.14-.59,2.03Z" style="fill:#1d1d1b;"/><path d="M203.91,317.71l1.27,.16c-.2,.74-.57,1.32-1.12,1.73-.54,.41-1.23,.62-2.08,.62-1.06,0-1.9-.33-2.53-.98-.62-.65-.93-1.57-.93-2.75s.31-2.17,.94-2.84c.63-.67,1.45-1.01,2.45-1.01s1.76,.33,2.38,.99c.62,.66,.92,1.59,.92,2.79,0,.07,0,.18,0,.33h-5.41c.05,.8,.27,1.41,.68,1.83,.4,.42,.91,.63,1.52,.63,.45,0,.84-.12,1.15-.36,.32-.24,.57-.62,.76-1.13Zm-4.04-1.99h4.05c-.05-.61-.21-1.07-.46-1.38-.39-.47-.9-.71-1.53-.71-.56,0-1.04,.19-1.42,.57-.39,.38-.6,.88-.64,1.52Z" style="fill:#1d1d1b;"/><path d="M206.74,311.45v-1.42h1.23v1.42h-1.23Zm0,8.61v-7.26h1.23v7.26h-1.23Z" style="fill:#1d1d1b;"/><path d="M212.53,318.95l.18,1.09c-.35,.07-.66,.11-.93,.11-.45,0-.79-.07-1.04-.21-.25-.14-.42-.33-.52-.56-.1-.23-.15-.71-.15-1.45v-4.18h-.9v-.96h.9v-1.8l1.22-.74v2.54h1.24v.96h-1.24v4.25c0,.35,.02,.58,.07,.68,.04,.1,.11,.18,.21,.24,.1,.06,.24,.09,.42,.09,.14,0,.32-.02,.54-.05Z" style="fill:#1d1d1b;"/><path d="M218.7,317.71l1.27,.16c-.2,.74-.57,1.32-1.11,1.73-.54,.41-1.24,.62-2.08,.62-1.06,0-1.9-.33-2.53-.98-.62-.65-.93-1.57-.93-2.75s.31-2.17,.94-2.84c.63-.67,1.44-1.01,2.45-1.01s1.76,.33,2.38,.99c.62,.66,.92,1.59,.92,2.79,0,.07,0,.18,0,.33h-5.41c.04,.8,.27,1.41,.68,1.83,.41,.42,.91,.63,1.52,.63,.45,0,.84-.12,1.16-.36,.32-.24,.57-.62,.76-1.13Zm-4.04-1.99h4.05c-.05-.61-.21-1.07-.46-1.38-.39-.47-.9-.71-1.52-.71-.57,0-1.04,.19-1.43,.57-.38,.38-.6,.88-.64,1.52Z" style="fill:#1d1d1b;"/><path d="M221.5,320.05v-7.26h1.11v1.1c.28-.52,.54-.86,.78-1.02,.24-.16,.5-.25,.79-.25,.42,0,.84,.13,1.27,.4l-.42,1.14c-.3-.18-.6-.27-.9-.27-.27,0-.51,.08-.72,.24-.21,.16-.37,.39-.46,.67-.14,.44-.21,.92-.21,1.44v3.8h-1.23Z" style="fill:#1d1d1b;"/><path d="M235.04,317.71l1.27,.16c-.2,.74-.57,1.32-1.11,1.73-.54,.41-1.24,.62-2.08,.62-1.06,0-1.9-.33-2.53-.98-.62-.65-.93-1.57-.93-2.75s.31-2.17,.94-2.84c.63-.67,1.44-1.01,2.45-1.01s1.76,.33,2.38,.99c.62,.66,.92,1.59,.92,2.79,0,.07,0,.18,0,.33h-5.41c.04,.8,.27,1.41,.68,1.83,.41,.42,.91,.63,1.52,.63,.45,0,.84-.12,1.16-.36,.32-.24,.57-.62,.76-1.13Zm-4.04-1.99h4.05c-.05-.61-.21-1.07-.46-1.38-.39-.47-.9-.71-1.52-.71-.57,0-1.04,.19-1.43,.57-.38,.38-.6,.88-.64,1.52Z" style="fill:#1d1d1b;"/><path d="M237.84,320.05v-7.26h1.11v1.1c.28-.52,.54-.86,.78-1.02,.24-.16,.5-.25,.79-.25,.42,0,.84,.13,1.27,.4l-.42,1.14c-.3-.18-.6-.27-.9-.27-.27,0-.51,.08-.72,.24-.21,.16-.37,.39-.46,.67-.14,.44-.21,.92-.21,1.44v3.8h-1.23Z" style="fill:#1d1d1b;"/><path d="M243.65,320.05h-1.14v-10.02h1.23v3.58c.52-.65,1.18-.98,1.99-.98,.45,0,.87,.09,1.27,.27,.4,.18,.73,.43,.98,.76,.26,.33,.46,.72,.6,1.18,.15,.46,.22,.95,.22,1.48,0,1.24-.31,2.21-.92,2.88-.62,.68-1.35,1.02-2.21,1.02s-1.53-.36-2.02-1.07v.91Zm-.01-3.68c0,.87,.12,1.5,.36,1.89,.39,.63,.91,.95,1.57,.95,.54,0,1-.23,1.39-.7,.39-.47,.59-1.16,.59-2.09s-.19-1.65-.56-2.1c-.38-.45-.83-.68-1.37-.68s-1,.23-1.39,.7c-.39,.47-.59,1.14-.59,2.03Z" style="fill:#1d1d1b;"/><path d="M250.29,320.05v-7.26h1.11v1.1c.28-.52,.54-.86,.78-1.02,.24-.16,.5-.25,.79-.25,.41,0,.84,.13,1.26,.4l-.42,1.14c-.3-.18-.6-.27-.9-.27-.27,0-.51,.08-.72,.24-.21,.16-.37,.39-.46,.67-.14,.44-.21,.92-.21,1.44v3.8h-1.23Z" style="fill:#1d1d1b;"/><path d="M254.97,311.45v-1.42h1.23v1.42h-1.23Zm0,8.61v-7.26h1.23v7.26h-1.23Z" style="fill:#1d1d1b;"/><path d="M258.07,320.05v-7.26h1.11v1.03c.53-.8,1.3-1.2,2.31-1.2,.44,0,.84,.08,1.21,.24s.64,.36,.82,.62c.18,.25,.31,.56,.38,.91,.04,.23,.07,.63,.07,1.2v4.46h-1.23v-4.42c0-.5-.05-.88-.14-1.12s-.27-.45-.51-.59c-.24-.15-.53-.22-.86-.22-.52,0-.98,.17-1.36,.5-.38,.33-.57,.96-.57,1.89v3.96h-1.23Z" style="fill:#1d1d1b;"/><path d="M265.63,320.65l1.2,.18c.05,.37,.19,.64,.42,.81,.31,.23,.72,.34,1.25,.34,.57,0,1.01-.11,1.32-.34,.31-.23,.52-.55,.63-.96,.06-.25,.09-.78,.09-1.58-.54,.63-1.21,.95-2.01,.95-1,0-1.77-.36-2.32-1.08-.55-.72-.82-1.58-.82-2.59,0-.69,.12-1.33,.38-1.92,.25-.59,.61-1.04,1.09-1.36,.48-.32,1.04-.48,1.68-.48,.86,0,1.56,.35,2.12,1.04v-.88h1.13v6.28c0,1.13-.12,1.93-.35,2.4-.23,.47-.59,.84-1.09,1.12-.5,.27-1.11,.41-1.84,.41-.87,0-1.56-.2-2.1-.58s-.79-.98-.77-1.76Zm1.02-4.36c0,.95,.19,1.65,.57,2.09,.38,.44,.85,.66,1.42,.66s1.04-.22,1.42-.65,.57-1.12,.57-2.05-.2-1.56-.59-2.01c-.39-.45-.87-.68-1.42-.68s-1.01,.22-1.39,.67-.57,1.1-.57,1.98Z" style="fill:#1d1d1b;"/><path d="M276.33,318.95l.18,1.09c-.35,.07-.66,.11-.93,.11-.45,0-.79-.07-1.04-.21-.25-.14-.42-.33-.52-.56-.1-.23-.15-.71-.15-1.45v-4.18h-.9v-.96h.9v-1.8l1.22-.74v2.54h1.24v.96h-1.24v4.25c0,.35,.02,.58,.07,.68,.04,.1,.11,.18,.21,.24,.1,.06,.24,.09,.42,.09,.14,0,.32-.02,.54-.05Z" style="fill:#1d1d1b;"/><path d="M281.08,315.11c0-1.19,.12-2.14,.37-2.86,.24-.72,.61-1.28,1.09-1.67,.48-.39,1.09-.59,1.81-.59,.54,0,1.01,.11,1.42,.33,.4,.22,.74,.53,1,.94,.27,.41,.47,.9,.62,1.49s.22,1.38,.22,2.37c0,1.18-.12,2.12-.36,2.85-.24,.72-.6,1.28-1.08,1.67s-1.09,.59-1.82,.59c-.96,0-1.72-.35-2.28-1.04-.66-.83-.99-2.19-.99-4.07Zm1.27,0c0,1.64,.19,2.74,.58,3.28,.38,.54,.86,.82,1.42,.82s1.04-.27,1.43-.82,.58-1.64,.58-3.28-.19-2.75-.58-3.29c-.38-.54-.87-.81-1.44-.81s-1.02,.24-1.35,.72c-.42,.61-.63,1.74-.63,3.38Z" style="fill:#1d1d1b;"/><path d="M294.24,320.05h-1.14v-10.02h1.23v3.58c.52-.65,1.18-.98,1.99-.98,.45,0,.87,.09,1.27,.27,.4,.18,.73,.43,.98,.76,.26,.33,.46,.72,.6,1.18,.15,.46,.22,.95,.22,1.48,0,1.24-.31,2.21-.92,2.88-.62,.68-1.35,1.02-2.21,1.02s-1.53-.36-2.02-1.07v.91Zm-.01-3.68c0,.87,.12,1.5,.36,1.89,.39,.63,.91,.95,1.57,.95,.54,0,1-.23,1.39-.7,.39-.47,.59-1.16,.59-2.09s-.19-1.65-.56-2.1c-.38-.45-.83-.68-1.37-.68s-1,.23-1.39,.7c-.39,.47-.59,1.14-.59,2.03Z" style="fill:#1d1d1b;"/><path d="M300.89,311.45v-1.42h1.23v1.42h-1.23Zm0,8.61v-7.26h1.23v7.26h-1.23Z" style="fill:#1d1d1b;"/><path d="M303.51,317.88l1.22-.19c.07,.49,.26,.86,.57,1.12,.31,.26,.75,.39,1.31,.39s.98-.12,1.26-.34,.41-.5,.41-.81c0-.28-.12-.5-.36-.66-.17-.11-.59-.25-1.26-.42-.9-.23-1.53-.42-1.88-.59-.35-.17-.61-.4-.79-.69-.18-.29-.27-.62-.27-.97,0-.32,.07-.62,.22-.9s.35-.5,.61-.69c.19-.14,.45-.26,.78-.36,.33-.1,.68-.15,1.06-.15,.57,0,1.07,.08,1.5,.25,.43,.16,.75,.39,.95,.67s.35,.66,.42,1.12l-1.2,.16c-.05-.37-.21-.67-.47-.88-.26-.21-.63-.31-1.11-.31-.56,0-.97,.09-1.21,.28-.24,.19-.36,.41-.36,.66,0,.16,.05,.3,.15,.43,.1,.13,.26,.24,.47,.33,.12,.05,.48,.15,1.09,.31,.87,.23,1.48,.42,1.82,.57s.61,.36,.81,.65c.2,.28,.29,.63,.29,1.05s-.12,.8-.36,1.16c-.24,.36-.59,.64-1.04,.84s-.96,.3-1.53,.3c-.94,0-1.66-.2-2.16-.59-.49-.39-.81-.97-.95-1.74Z" style="fill:#1d1d1b;"/><path d="M319.65,320.05v-1.07c-.57,.82-1.33,1.23-2.3,1.23-.43,0-.83-.08-1.2-.25s-.65-.37-.83-.62c-.18-.25-.3-.55-.38-.91-.05-.24-.07-.62-.07-1.15v-4.5h1.23v4.03c0,.64,.03,1.08,.07,1.3,.08,.32,.24,.58,.49,.76,.25,.18,.56,.28,.93,.28s.72-.1,1.04-.28c.32-.19,.55-.45,.69-.77s.2-.8,.2-1.42v-3.89h1.23v7.26h-1.1Z" style="fill:#1d1d1b;"/><path d="M322.67,320.05v-7.26h1.11v1.03c.53-.8,1.3-1.2,2.31-1.2,.44,0,.84,.08,1.21,.24s.64,.36,.82,.62c.18,.25,.31,.56,.38,.91,.04,.23,.07,.63,.07,1.2v4.46h-1.23v-4.42c0-.5-.05-.88-.14-1.12s-.27-.45-.51-.59c-.24-.15-.53-.22-.86-.22-.52,0-.98,.17-1.36,.5-.38,.33-.57,.96-.57,1.89v3.96h-1.23Z" style="fill:#1d1d1b;"/><path d="M335.43,317.71l1.27,.16c-.2,.74-.57,1.32-1.11,1.73-.54,.41-1.24,.62-2.08,.62-1.06,0-1.9-.33-2.53-.98-.62-.65-.93-1.57-.93-2.75s.31-2.17,.94-2.84c.63-.67,1.44-1.01,2.45-1.01s1.76,.33,2.38,.99c.62,.66,.92,1.59,.92,2.79,0,.07,0,.18,0,.33h-5.41c.04,.8,.27,1.41,.68,1.83,.41,.42,.91,.63,1.52,.63,.45,0,.84-.12,1.16-.36,.32-.24,.57-.62,.76-1.13Zm-4.04-1.99h4.05c-.05-.61-.21-1.07-.46-1.38-.39-.47-.9-.71-1.52-.71-.57,0-1.04,.19-1.43,.57-.38,.38-.6,.88-.64,1.52Z" style="fill:#1d1d1b;"/><path d="M338.25,320.05v-7.26h1.11v1.03c.53-.8,1.3-1.2,2.31-1.2,.44,0,.84,.08,1.21,.24s.64,.36,.82,.62c.18,.25,.31,.56,.38,.91,.04,.23,.07,.63,.07,1.2v4.46h-1.23v-4.42c0-.5-.05-.88-.14-1.12s-.27-.45-.51-.59c-.24-.15-.53-.22-.86-.22-.52,0-.98,.17-1.36,.5-.38,.33-.57,.96-.57,1.89v3.96h-1.23Z" style="fill:#1d1d1b;"/><path d="M350.74,320.05v-.92c-.46,.72-1.14,1.08-2.03,1.08-.58,0-1.11-.16-1.6-.48-.48-.32-.86-.76-1.13-1.34-.27-.57-.4-1.23-.4-1.97s.12-1.38,.36-1.97c.24-.59,.6-1.04,1.09-1.36,.48-.31,1.02-.47,1.62-.47,.44,0,.83,.09,1.17,.28s.62,.42,.83,.72v-3.6h1.22v10.02h-1.14Zm-3.89-3.62c0,.93,.2,1.62,.59,2.09,.39,.46,.85,.69,1.39,.69s.99-.22,1.37-.66c.38-.44,.56-1.11,.56-2.01,0-.99-.19-1.72-.57-2.19s-.86-.7-1.42-.7-1,.22-1.37,.67c-.37,.45-.55,1.15-.55,2.11Z" style="fill:#1d1d1b;"/><path d="M353.79,320.05v-10.02h1.23v10.02h-1.23Z" style="fill:#1d1d1b;"/><path d="M356.94,311.45v-1.42h1.23v1.42h-1.23Zm0,8.61v-7.26h1.23v7.26h-1.23Z" style="fill:#1d1d1b;"/><path d="M364.78,317.39l1.21,.16c-.13,.83-.47,1.49-1.01,1.96-.54,.47-1.21,.71-2.01,.71-.99,0-1.79-.32-2.39-.97-.61-.65-.91-1.58-.91-2.79,0-.78,.13-1.47,.39-2.06s.66-1.03,1.19-1.32c.53-.29,1.11-.44,1.73-.44,.79,0,1.43,.2,1.93,.6,.5,.4,.82,.96,.96,1.7l-1.2,.19c-.11-.49-.31-.86-.6-1.1-.29-.25-.64-.37-1.05-.37-.62,0-1.12,.22-1.51,.67-.39,.44-.58,1.15-.58,2.11s.19,1.68,.56,2.13c.38,.44,.86,.66,1.46,.66,.48,0,.89-.15,1.21-.44,.32-.3,.53-.75,.62-1.37Z" style="fill:#1d1d1b;"/><path d="M367.04,320.05v-10.02h1.23v3.6c.57-.67,1.3-1,2.17-1,.54,0,1.01,.11,1.4,.32s.68,.5,.85,.88c.17,.37,.26,.92,.26,1.63v4.6h-1.23v-4.6c0-.62-.13-1.06-.4-1.34-.27-.28-.64-.42-1.13-.42-.37,0-.71,.09-1.03,.28-.32,.19-.55,.45-.69,.77-.14,.32-.21,.77-.21,1.34v3.97h-1.23Z" style="fill:#1d1d1b;"/><path d="M380.73,320.05l-2.76-7.26h1.3l1.56,4.35c.17,.47,.32,.96,.46,1.46,.11-.38,.26-.84,.46-1.38l1.61-4.43h1.27l-2.75,7.26h-1.15Z" style="fill:#1d1d1b;"/><path d="M385.72,311.45v-1.42h1.23v1.42h-1.23Zm0,8.61v-7.26h1.23v7.26h-1.23Z" style="fill:#1d1d1b;"/><path d="M393.79,317.71l1.27,.16c-.2,.74-.57,1.32-1.11,1.73-.54,.41-1.24,.62-2.08,.62-1.06,0-1.9-.33-2.53-.98-.62-.65-.93-1.57-.93-2.75s.31-2.17,.94-2.84c.63-.67,1.44-1.01,2.45-1.01s1.76,.33,2.38,.99c.62,.66,.92,1.59,.92,2.79,0,.07,0,.18,0,.33h-5.41c.04,.8,.27,1.41,.68,1.83,.41,.42,.91,.63,1.52,.63,.45,0,.84-.12,1.16-.36,.32-.24,.57-.62,.76-1.13Zm-4.04-1.99h4.05c-.05-.61-.21-1.07-.46-1.38-.39-.47-.9-.71-1.52-.71-.57,0-1.04,.19-1.43,.57-.38,.38-.6,.88-.64,1.52Z" style="fill:#1d1d1b;"/><path d="M396.58,320.05v-10.02h1.23v10.02h-1.23Z" style="fill:#1d1d1b;"/><path d="M404.69,317.71l1.27,.16c-.2,.74-.57,1.32-1.11,1.73-.54,.41-1.24,.62-2.08,.62-1.06,0-1.9-.33-2.53-.98-.62-.65-.93-1.57-.93-2.75s.31-2.17,.94-2.84c.63-.67,1.44-1.01,2.45-1.01s1.76,.33,2.38,.99c.62,.66,.92,1.59,.92,2.79,0,.07,0,.18,0,.33h-5.41c.04,.8,.27,1.41,.68,1.83,.41,.42,.91,.63,1.52,.63,.45,0,.84-.12,1.16-.36,.32-.24,.57-.62,.76-1.13Zm-4.04-1.99h4.05c-.05-.61-.21-1.07-.46-1.38-.39-.47-.9-.71-1.52-.71-.57,0-1.04,.19-1.43,.57-.38,.38-.6,.88-.64,1.52Z" style="fill:#1d1d1b;"/><path d="M411.5,320.05v-10.02h1.33v8.84h4.94v1.18h-6.26Z" style="fill:#1d1d1b;"/><path d="M424.15,317.71l1.27,.16c-.2,.74-.57,1.32-1.12,1.73-.54,.41-1.23,.62-2.08,.62-1.06,0-1.9-.33-2.53-.98-.62-.65-.93-1.57-.93-2.75s.31-2.17,.94-2.84c.63-.67,1.45-1.01,2.45-1.01s1.76,.33,2.38,.99c.62,.66,.92,1.59,.92,2.79,0,.07,0,.18,0,.33h-5.41c.05,.8,.27,1.41,.68,1.83,.4,.42,.91,.63,1.52,.63,.45,0,.84-.12,1.15-.36,.32-.24,.57-.62,.76-1.13Zm-4.04-1.99h4.05c-.05-.61-.21-1.07-.46-1.38-.39-.47-.9-.71-1.53-.71-.56,0-1.04,.19-1.42,.57-.39,.38-.6,.88-.64,1.52Z" style="fill:#1d1d1b;"/><path d="M426.98,311.45v-1.42h1.23v1.42h-1.23Zm0,8.61v-7.26h1.23v7.26h-1.23Z" style="fill:#1d1d1b;"/><path d="M429.59,317.88l1.22-.19c.07,.49,.26,.86,.57,1.12,.31,.26,.75,.39,1.31,.39s.98-.12,1.26-.34,.41-.5,.41-.81c0-.28-.12-.5-.36-.66-.17-.11-.59-.25-1.26-.42-.9-.23-1.53-.42-1.88-.59-.35-.17-.61-.4-.79-.69-.18-.29-.27-.62-.27-.97,0-.32,.07-.62,.22-.9s.35-.5,.61-.69c.19-.14,.45-.26,.78-.36,.33-.1,.68-.15,1.06-.15,.57,0,1.07,.08,1.5,.25,.43,.16,.75,.39,.95,.67s.35,.66,.42,1.12l-1.2,.16c-.05-.37-.21-.67-.47-.88-.26-.21-.63-.31-1.11-.31-.56,0-.97,.09-1.21,.28-.24,.19-.36,.41-.36,.66,0,.16,.05,.3,.15,.43,.1,.13,.26,.24,.47,.33,.12,.05,.48,.15,1.09,.31,.87,.23,1.48,.42,1.82,.57s.61,.36,.81,.65c.2,.28,.29,.63,.29,1.05s-.12,.8-.36,1.16c-.24,.36-.59,.64-1.04,.84s-.96,.3-1.53,.3c-.94,0-1.66-.2-2.16-.59-.49-.39-.81-.97-.95-1.74Z" style="fill:#1d1d1b;"/><path d="M439.77,318.95l.18,1.09c-.35,.07-.66,.11-.93,.11-.45,0-.79-.07-1.04-.21-.25-.14-.42-.33-.52-.56-.1-.23-.15-.71-.15-1.45v-4.18h-.9v-.96h.9v-1.8l1.22-.74v2.54h1.24v.96h-1.24v4.25c0,.35,.02,.58,.07,.68,.04,.1,.11,.18,.21,.24,.1,.06,.24,.09,.42,.09,.14,0,.32-.02,.54-.05Z" style="fill:#1d1d1b;"/><path d="M445.73,320.05v-1.07c-.57,.82-1.33,1.23-2.3,1.23-.43,0-.83-.08-1.2-.25s-.65-.37-.83-.62c-.18-.25-.3-.55-.38-.91-.05-.24-.07-.62-.07-1.15v-4.5h1.23v4.03c0,.64,.03,1.08,.07,1.3,.08,.32,.24,.58,.49,.76,.25,.18,.56,.28,.93,.28s.72-.1,1.04-.28c.32-.19,.55-.45,.69-.77s.2-.8,.2-1.42v-3.89h1.23v7.26h-1.1Z" style="fill:#1d1d1b;"/><path d="M448.76,320.05v-7.26h1.11v1.03c.53-.8,1.3-1.2,2.31-1.2,.44,0,.84,.08,1.21,.24s.64,.36,.82,.62c.18,.25,.31,.56,.38,.91,.04,.23,.07,.63,.07,1.2v4.46h-1.23v-4.42c0-.5-.05-.88-.14-1.12s-.27-.45-.51-.59c-.24-.15-.53-.22-.86-.22-.52,0-.98,.17-1.36,.5-.38,.33-.57,.96-.57,1.89v3.96h-1.23Z" style="fill:#1d1d1b;"/><path d="M456.32,320.65l1.2,.18c.05,.37,.19,.64,.42,.81,.31,.23,.72,.34,1.25,.34,.57,0,1.01-.11,1.32-.34,.31-.23,.52-.55,.63-.96,.06-.25,.09-.78,.09-1.58-.54,.63-1.21,.95-2.01,.95-1,0-1.77-.36-2.32-1.08-.55-.72-.82-1.58-.82-2.59,0-.69,.12-1.33,.38-1.92,.25-.59,.61-1.04,1.09-1.36,.48-.32,1.04-.48,1.68-.48,.86,0,1.56,.35,2.12,1.04v-.88h1.13v6.28c0,1.13-.12,1.93-.35,2.4-.23,.47-.59,.84-1.09,1.12-.5,.27-1.11,.41-1.84,.41-.87,0-1.56-.2-2.1-.58s-.79-.98-.77-1.76Zm1.02-4.36c0,.95,.19,1.65,.57,2.09,.38,.44,.85,.66,1.42,.66s1.04-.22,1.42-.65,.57-1.12,.57-2.05-.2-1.56-.59-2.01c-.39-.45-.87-.68-1.42-.68s-1.01,.22-1.39,.67-.57,1.1-.57,1.98Z" style="fill:#1d1d1b;"/><path d="M469.3,317.71l1.27,.16c-.2,.74-.57,1.32-1.12,1.73-.54,.41-1.23,.62-2.08,.62-1.06,0-1.9-.33-2.53-.98-.62-.65-.93-1.57-.93-2.75s.31-2.17,.94-2.84c.63-.67,1.45-1.01,2.45-1.01s1.76,.33,2.38,.99c.62,.66,.92,1.59,.92,2.79,0,.07,0,.18,0,.33h-5.41c.05,.8,.27,1.41,.68,1.83,.4,.42,.91,.63,1.52,.63,.45,0,.84-.12,1.15-.36,.32-.24,.57-.62,.76-1.13Zm-4.04-1.99h4.05c-.05-.61-.21-1.07-.46-1.38-.39-.47-.9-.71-1.53-.71-.56,0-1.04,.19-1.42,.57-.39,.38-.6,.88-.64,1.52Z" style="fill:#1d1d1b;"/><path d="M472.12,320.05v-7.26h1.11v1.03c.53-.8,1.3-1.2,2.31-1.2,.44,0,.84,.08,1.21,.24,.37,.16,.64,.36,.82,.62,.18,.25,.31,.56,.38,.91,.05,.23,.07,.63,.07,1.2v4.46h-1.23v-4.42c0-.5-.05-.88-.14-1.12s-.27-.45-.51-.59-.53-.22-.86-.22c-.53,0-.98,.17-1.36,.5-.38,.33-.57,.96-.57,1.89v3.96h-1.23Z" style="fill:#1d1d1b;"/><path d="M480.25,320.05v-1.4h1.4v1.4h-1.4Z" style="fill:#1d1d1b;"/></g></g><g><circle cx="491.12" cy="409.09" r="9.94" style="fill:#2d509f;"/><path d="M493.17,410.11v1.15h-4.33c.05-.43,.19-.84,.42-1.23,.23-.39,.7-.9,1.39-1.54,.56-.52,.9-.87,1.02-1.05,.17-.25,.25-.51,.25-.76,0-.28-.07-.49-.22-.63s-.35-.22-.61-.22-.46,.08-.62,.23-.24,.41-.26,.77l-1.23-.12c.07-.68,.3-1.17,.69-1.46,.39-.29,.87-.44,1.45-.44,.63,0,1.13,.17,1.5,.51,.36,.34,.54,.77,.54,1.28,0,.29-.05,.57-.16,.83-.1,.26-.27,.54-.49,.82-.15,.19-.42,.46-.81,.82s-.64,.59-.74,.71c-.1,.12-.19,.23-.25,.34h2.45Z" style="fill:#fff;"/></g><g><circle cx="635.31" cy="369.03" r="9.94" style="fill:#2d509f;"/><path d="M633.15,369.48l1.2-.15c.04,.3,.14,.54,.31,.7,.17,.16,.37,.24,.61,.24,.26,0,.47-.1,.64-.29,.17-.19,.26-.45,.26-.78,0-.31-.08-.56-.25-.74s-.37-.27-.61-.27c-.16,0-.35,.03-.57,.09l.14-1.01c.33,0,.59-.06,.77-.22,.18-.15,.26-.36,.26-.61,0-.22-.07-.39-.19-.52-.13-.13-.3-.19-.51-.19s-.39,.07-.54,.22c-.15,.15-.24,.36-.27,.64l-1.14-.19c.08-.39,.2-.7,.36-.93,.16-.23,.38-.42,.67-.55,.29-.13,.61-.2,.96-.2,.61,0,1.09,.19,1.46,.58,.3,.32,.45,.67,.45,1.07,0,.57-.31,1.02-.93,1.35,.37,.08,.66,.26,.89,.53,.22,.28,.33,.61,.33,1,0,.57-.21,1.05-.62,1.45-.41,.4-.93,.6-1.54,.6s-1.07-.17-1.45-.5c-.38-.33-.61-.77-.67-1.32Z" style="fill:#fff;"/></g><g><circle cx="767" cy="418.51" r="9.94" style="fill:#2d509f;"/><path d="M768.04,420.67h-1.24v-4.65c-.45,.42-.98,.73-1.59,.94v-1.12c.32-.11,.67-.31,1.05-.6,.38-.29,.64-.64,.78-1.03h1v6.47Z" style="fill:#fff;"/></g><g><circle cx="211.4" cy="418.51" r="9.94" style="fill:#2d509f;"/><path d="M211.7,420.67v-1.3h-2.64v-1.08l2.79-4.09h1.04v4.09h.8v1.08h-.8v1.3h-1.2Zm0-2.38v-2.2l-1.48,2.2h1.48Z" style="fill:#fff;"/></g><g><path d="M468.16,458.62v-10.02h7.43v1.7h-5.41v2.22h5.03v1.69h-5.03v2.73h5.6v1.69h-7.62Z" style="fill:#2d509f;"/><path d="M477.49,450.38v-1.78h1.92v1.78h-1.92Zm0,8.24v-7.26h1.92v7.26h-1.92Z" style="fill:#2d509f;"/><path d="M487.98,458.62h-1.92v-3.71c0-.78-.04-1.29-.12-1.52-.08-.23-.21-.41-.4-.54-.18-.13-.41-.19-.67-.19-.33,0-.63,.09-.9,.27s-.45,.42-.54,.72c-.1,.3-.15,.86-.15,1.67v3.29h-1.92v-7.26h1.78v1.07c.63-.82,1.43-1.23,2.39-1.23,.42,0,.81,.08,1.16,.23,.35,.15,.62,.35,.8,.58,.18,.24,.3,.51,.38,.81,.07,.3,.11,.73,.11,1.29v4.51Z" style="fill:#2d509f;"/><path d="M494.13,456.31l1.91,.32c-.25,.7-.63,1.24-1.17,1.6-.53,.37-1.19,.55-1.99,.55-1.26,0-2.2-.41-2.8-1.24-.48-.66-.72-1.5-.72-2.5,0-1.2,.31-2.15,.94-2.83,.63-.68,1.42-1.02,2.39-1.02,1.08,0,1.93,.36,2.56,1.07,.62,.71,.92,1.81,.9,3.28h-4.81c.01,.57,.17,1.01,.46,1.33,.3,.32,.67,.47,1.11,.47,.3,0,.55-.08,.76-.25s.36-.43,.46-.79Zm.11-1.94c-.01-.56-.16-.98-.43-1.27-.27-.29-.61-.43-1-.43-.42,0-.77,.15-1.04,.46s-.41,.72-.4,1.24h2.87Z" style="fill:#2d509f;"/><path d="M501.67,458.62v-9.94h2.02v8.25h5.03v1.69h-7.05Z" style="fill:#2d509f;"/><path d="M514.36,456.31l1.91,.32c-.25,.7-.63,1.24-1.17,1.6-.53,.37-1.19,.55-1.99,.55-1.26,0-2.2-.41-2.8-1.24-.48-.66-.72-1.5-.72-2.5,0-1.2,.31-2.15,.94-2.83,.63-.68,1.42-1.02,2.39-1.02,1.08,0,1.93,.36,2.56,1.07,.62,.71,.92,1.81,.9,3.28h-4.81c.01,.57,.17,1.01,.46,1.33,.3,.32,.67,.47,1.11,.47,.3,0,.55-.08,.76-.25s.36-.43,.46-.79Zm.11-1.94c-.01-.56-.16-.98-.43-1.27-.27-.29-.61-.43-1-.43-.42,0-.77,.15-1.04,.46s-.41,.72-.4,1.24h2.87Z" style="fill:#2d509f;"/><path d="M517.94,450.38v-1.78h1.92v1.78h-1.92Zm0,8.24v-7.26h1.92v7.26h-1.92Z" style="fill:#2d509f;"/><path d="M521.16,456.55l1.93-.29c.08,.37,.25,.66,.5,.85,.25,.19,.6,.29,1.05,.29,.5,0,.87-.09,1.12-.27,.17-.13,.25-.3,.25-.51,0-.15-.05-.27-.14-.36-.1-.09-.31-.18-.64-.25-1.55-.34-2.53-.65-2.95-.94-.57-.39-.86-.94-.86-1.63,0-.63,.25-1.16,.75-1.59s1.27-.64,2.31-.64,1.73,.16,2.21,.49,.82,.8,1,1.44l-1.81,.33c-.08-.28-.22-.5-.44-.65-.22-.15-.53-.23-.93-.23-.51,0-.87,.07-1.09,.21-.15,.1-.22,.23-.22,.39,0,.14,.06,.25,.19,.35,.17,.13,.77,.31,1.79,.54,1.02,.23,1.74,.52,2.14,.85,.4,.34,.6,.82,.6,1.43,0,.67-.28,1.24-.83,1.72s-1.38,.72-2.47,.72c-.99,0-1.77-.2-2.35-.6-.58-.4-.95-.95-1.13-1.63Z" style="fill:#2d509f;"/><path d="M532.95,451.36v1.53h-1.31v2.93c0,.59,.01,.94,.04,1.04,.03,.1,.08,.18,.17,.24,.09,.06,.2,.1,.32,.1,.18,0,.44-.06,.77-.18l.16,1.49c-.45,.19-.95,.29-1.52,.29-.35,0-.66-.06-.94-.17-.28-.12-.48-.27-.61-.45-.13-.19-.22-.43-.27-.75-.04-.22-.06-.67-.06-1.35v-3.17h-.88v-1.53h.88v-1.44l1.93-1.12v2.56h1.31Z" style="fill:#2d509f;"/><path d="M539.06,458.62v-1.09c-.26,.39-.61,.69-1.04,.92-.43,.22-.88,.33-1.36,.33s-.92-.11-1.31-.32-.67-.51-.84-.9-.26-.92-.26-1.61v-4.59h1.92v3.34c0,1.02,.04,1.65,.11,1.88,.07,.23,.2,.41,.39,.55,.19,.13,.42,.2,.71,.2,.33,0,.62-.09,.88-.27,.26-.18,.44-.4,.53-.67,.1-.27,.14-.92,.14-1.96v-3.06h1.92v7.26h-1.78Z" style="fill:#2d509f;"/><path d="M549.44,458.62h-1.92v-3.71c0-.78-.04-1.29-.12-1.52-.08-.23-.21-.41-.4-.54-.18-.13-.41-.19-.67-.19-.33,0-.63,.09-.9,.27s-.45,.42-.54,.72c-.1,.3-.15,.86-.15,1.67v3.29h-1.92v-7.26h1.78v1.07c.63-.82,1.43-1.23,2.39-1.23,.42,0,.81,.08,1.16,.23,.35,.15,.62,.35,.8,.58,.18,.24,.3,.51,.38,.81,.07,.3,.11,.73,.11,1.29v4.51Z" style="fill:#2d509f;"/><path d="M551.21,459.1l2.19,.27c.04,.25,.12,.43,.25,.53,.18,.14,.47,.21,.86,.21,.5,0,.88-.08,1.13-.23,.17-.1,.3-.26,.38-.49,.06-.16,.09-.45,.09-.88v-1.06c-.57,.78-1.3,1.18-2.17,1.18-.98,0-1.75-.41-2.32-1.24-.45-.65-.67-1.46-.67-2.43,0-1.22,.29-2.15,.88-2.79,.58-.64,1.31-.96,2.18-.96s1.64,.39,2.22,1.18v-1.02h1.8v6.51c0,.86-.07,1.5-.21,1.92s-.34,.76-.59,1-.6,.43-1.02,.57c-.43,.14-.97,.21-1.62,.21-1.23,0-2.1-.21-2.62-.63-.51-.42-.77-.96-.77-1.6,0-.06,0-.14,0-.23Zm1.72-4.26c0,.77,.15,1.33,.45,1.69,.3,.36,.67,.54,1.1,.54,.47,0,.87-.18,1.19-.55,.32-.37,.49-.91,.49-1.63s-.16-1.31-.46-1.67-.7-.55-1.18-.55-.84,.18-1.14,.54c-.3,.36-.45,.9-.45,1.64Z" style="fill:#2d509f;"/><path d="M565.18,458.62l-2.3-7.26h1.87l1.36,4.76,1.25-4.76h1.85l1.21,4.76,1.39-4.76h1.89l-2.33,7.26h-1.85l-1.25-4.67-1.23,4.67h-1.87Z" style="fill:#2d509f;"/><path d="M574.72,450.38v-1.78h1.92v1.78h-1.92Zm0,8.24v-7.26h1.92v7.26h-1.92Z" style="fill:#2d509f;"/><path d="M580.44,458.62h-1.92v-7.26h1.78v1.03c.31-.49,.58-.81,.82-.96,.24-.16,.52-.23,.83-.23,.44,0,.86,.12,1.26,.36l-.59,1.67c-.32-.21-.62-.31-.9-.31s-.5,.07-.68,.22c-.19,.15-.33,.42-.44,.8-.11,.39-.16,1.2-.16,2.43v2.24Z" style="fill:#2d509f;"/><path d="M590.71,458.62h-1.78v-1.07c-.3,.42-.65,.72-1.05,.93-.4,.2-.81,.3-1.22,.3-.83,0-1.55-.34-2.14-1.01-.6-.67-.89-1.61-.89-2.81s.29-2.17,.87-2.81c.58-.64,1.31-.96,2.19-.96,.81,0,1.51,.34,2.11,1.01v-3.61h1.92v10.02Zm-5.13-3.79c0,.77,.11,1.33,.32,1.68,.31,.5,.74,.75,1.3,.75,.44,0,.82-.19,1.13-.56,.31-.38,.46-.94,.46-1.68,0-.83-.15-1.43-.45-1.8-.3-.37-.69-.55-1.16-.55s-.84,.18-1.14,.54c-.31,.36-.46,.9-.46,1.62Z" style="fill:#2d509f;"/><path d="M598.49,458.62l-2.93-7.26h2.02l1.37,3.71,.4,1.24c.1-.31,.17-.52,.2-.62,.06-.21,.13-.41,.21-.62l1.38-3.71h1.98l-2.88,7.26h-1.73Z" style="fill:#2d509f;"/><path d="M603.84,454.89c0-.64,.16-1.26,.47-1.85s.76-1.05,1.34-1.37c.58-.31,1.22-.47,1.93-.47,1.1,0,2,.36,2.7,1.07,.7,.71,1.05,1.61,1.05,2.7s-.35,2.01-1.06,2.73c-.71,.72-1.6,1.08-2.68,1.08-.67,0-1.3-.15-1.9-.45-.6-.3-1.06-.74-1.38-1.32-.31-.58-.47-1.29-.47-2.12Zm1.97,.1c0,.72,.17,1.27,.51,1.65s.76,.57,1.26,.57,.92-.19,1.26-.57c.34-.38,.51-.94,.51-1.67s-.17-1.26-.51-1.64c-.34-.38-.76-.57-1.26-.57s-.92,.19-1.26,.57-.51,.93-.51,1.65Z" style="fill:#2d509f;"/><path d="M619.44,458.62h-1.92v-3.71c0-.78-.04-1.29-.12-1.52-.08-.23-.21-.41-.4-.54-.18-.13-.41-.19-.67-.19-.33,0-.63,.09-.9,.27s-.45,.42-.54,.72c-.1,.3-.15,.86-.15,1.67v3.29h-1.92v-7.26h1.78v1.07c.63-.82,1.43-1.23,2.39-1.23,.42,0,.81,.08,1.16,.23,.35,.15,.62,.35,.8,.58,.18,.24,.3,.51,.38,.81,.07,.3,.11,.73,.11,1.29v4.51Z" style="fill:#2d509f;"/><path d="M625.1,459.1l2.19,.27c.04,.25,.12,.43,.25,.53,.18,.14,.47,.21,.86,.21,.5,0,.88-.08,1.13-.23,.17-.1,.3-.26,.38-.49,.06-.16,.09-.45,.09-.88v-1.06c-.57,.78-1.3,1.18-2.17,1.18-.98,0-1.75-.41-2.32-1.24-.45-.65-.67-1.46-.67-2.43,0-1.22,.29-2.15,.88-2.79,.58-.64,1.31-.96,2.18-.96s1.64,.39,2.22,1.18v-1.02h1.8v6.51c0,.86-.07,1.5-.21,1.92s-.34,.76-.59,1-.6,.43-1.02,.57c-.43,.14-.97,.21-1.62,.21-1.23,0-2.1-.21-2.62-.63-.51-.42-.77-.96-.77-1.6,0-.06,0-.14,0-.23Zm1.72-4.26c0,.77,.15,1.33,.45,1.69,.3,.36,.67,.54,1.1,.54,.47,0,.87-.18,1.19-.55,.32-.37,.49-.91,.49-1.63s-.16-1.31-.46-1.67-.7-.55-1.18-.55-.84,.18-1.14,.54c-.3,.36-.45,.9-.45,1.64Z" style="fill:#2d509f;"/><path d="M638.03,456.31l1.91,.32c-.25,.7-.63,1.24-1.17,1.6-.53,.37-1.19,.55-1.99,.55-1.26,0-2.2-.41-2.8-1.24-.48-.66-.72-1.5-.72-2.5,0-1.2,.31-2.15,.94-2.83,.63-.68,1.42-1.02,2.39-1.02,1.08,0,1.93,.36,2.56,1.07,.62,.71,.92,1.81,.9,3.28h-4.81c.01,.57,.17,1.01,.46,1.33,.3,.32,.67,.47,1.11,.47,.3,0,.55-.08,.76-.25s.36-.43,.46-.79Zm.11-1.94c-.01-.56-.16-.98-.43-1.27-.27-.29-.61-.43-1-.43-.42,0-.77,.15-1.04,.46s-.41,.72-.4,1.24h2.87Z" style="fill:#2d509f;"/><path d="M648.22,458.62h-1.92v-3.71c0-.78-.04-1.29-.12-1.52-.08-.23-.21-.41-.4-.54-.18-.13-.41-.19-.67-.19-.33,0-.63,.09-.9,.27s-.45,.42-.54,.72c-.1,.3-.15,.86-.15,1.67v3.29h-1.92v-7.26h1.78v1.07c.63-.82,1.43-1.23,2.39-1.23,.42,0,.81,.08,1.16,.23,.35,.15,.62,.35,.8,.58,.18,.24,.3,.51,.38,.81,.07,.3,.11,.73,.11,1.29v4.51Z" style="fill:#2d509f;"/><path d="M651.6,453.58l-1.74-.31c.2-.7,.53-1.22,1.01-1.56s1.19-.51,2.13-.51c.86,0,1.5,.1,1.91,.3,.42,.2,.71,.46,.88,.77,.17,.31,.26,.89,.26,1.72l-.02,2.24c0,.64,.03,1.11,.09,1.41,.06,.3,.18,.63,.35,.97h-1.9c-.05-.13-.11-.32-.18-.57-.03-.11-.05-.19-.07-.23-.33,.32-.68,.56-1.05,.72s-.77,.24-1.2,.24c-.75,0-1.34-.2-1.77-.61-.43-.41-.65-.92-.65-1.54,0-.41,.1-.78,.29-1.1,.2-.32,.47-.57,.82-.74,.35-.17,.86-.32,1.53-.45,.9-.17,1.52-.33,1.87-.47v-.19c0-.37-.09-.63-.27-.79-.18-.16-.53-.24-1.03-.24-.34,0-.61,.07-.8,.2-.19,.13-.35,.37-.46,.71Zm2.57,1.56c-.25,.08-.64,.18-1.17,.29s-.88,.23-1.05,.33c-.25,.18-.38,.4-.38,.68s.1,.5,.3,.7,.46,.29,.77,.29c.35,0,.68-.11,.99-.34,.23-.17,.38-.38,.46-.64,.05-.16,.08-.48,.08-.94v-.38Z" style="fill:#2d509f;"/><path d="M662.73,458.62v-1.09c-.26,.39-.61,.69-1.04,.92-.43,.22-.88,.33-1.36,.33s-.92-.11-1.31-.32-.67-.51-.84-.9-.26-.92-.26-1.61v-4.59h1.92v3.34c0,1.02,.04,1.65,.11,1.88,.07,.23,.2,.41,.39,.55,.19,.13,.42,.2,.71,.2,.33,0,.62-.09,.88-.27,.26-.18,.44-.4,.53-.67,.1-.27,.14-.92,.14-1.96v-3.06h1.92v7.26h-1.78Z" style="fill:#2d509f;"/><path d="M674.6,456.31l1.91,.32c-.25,.7-.63,1.24-1.17,1.6-.53,.37-1.19,.55-1.99,.55-1.26,0-2.2-.41-2.8-1.24-.48-.66-.72-1.5-.72-2.5,0-1.2,.31-2.15,.94-2.83,.63-.68,1.42-1.02,2.39-1.02,1.08,0,1.93,.36,2.56,1.07,.62,.71,.92,1.81,.9,3.28h-4.81c.01,.57,.17,1.01,.46,1.33,.3,.32,.67,.47,1.11,.47,.3,0,.55-.08,.76-.25s.36-.43,.46-.79Zm.11-1.94c-.01-.56-.16-.98-.43-1.27-.27-.29-.61-.43-1-.43-.42,0-.77,.15-1.04,.46s-.41,.72-.4,1.24h2.87Z" style="fill:#2d509f;"/><path d="M678.18,450.38v-1.78h1.92v1.78h-1.92Zm0,8.24v-7.26h1.92v7.26h-1.92Z" style="fill:#2d509f;"/><path d="M688.67,458.62h-1.92v-3.71c0-.78-.04-1.29-.12-1.52-.08-.23-.21-.41-.4-.54-.18-.13-.41-.19-.67-.19-.33,0-.63,.09-.9,.27s-.45,.42-.54,.72c-.1,.3-.15,.86-.15,1.67v3.29h-1.92v-7.26h1.78v1.07c.63-.82,1.43-1.23,2.39-1.23,.42,0,.81,.08,1.16,.23,.35,.15,.62,.35,.8,.58,.18,.24,.3,.51,.38,.81,.07,.3,.11,.73,.11,1.29v4.51Z" style="fill:#2d509f;"/><path d="M694.82,456.31l1.91,.32c-.25,.7-.63,1.24-1.17,1.6-.53,.37-1.19,.55-1.99,.55-1.26,0-2.2-.41-2.8-1.24-.48-.66-.72-1.5-.72-2.5,0-1.2,.31-2.15,.94-2.83,.63-.68,1.42-1.02,2.39-1.02,1.08,0,1.93,.36,2.56,1.07,.62,.71,.92,1.81,.9,3.28h-4.81c.01,.57,.17,1.01,.46,1.33,.3,.32,.67,.47,1.11,.47,.3,0,.55-.08,.76-.25s.36-.43,.46-.79Zm.11-1.94c-.01-.56-.16-.98-.43-1.27-.27-.29-.61-.43-1-.43-.42,0-.77,.15-1.04,.46s-.41,.72-.4,1.24h2.87Z" style="fill:#2d509f;"/><path d="M698.26,451.36h1.77v.99c.63-.77,1.39-1.16,2.26-1.16,.46,0,.87,.1,1.21,.29s.62,.48,.84,.87c.32-.39,.66-.68,1.03-.87s.76-.29,1.18-.29c.53,0,.98,.11,1.35,.32,.37,.22,.64,.54,.83,.95,.13,.31,.2,.81,.2,1.5v4.64h-1.92v-4.15c0-.72-.07-1.18-.2-1.39-.18-.27-.45-.41-.82-.41-.27,0-.52,.08-.76,.25s-.41,.4-.51,.72c-.1,.32-.16,.82-.16,1.5v3.49h-1.92v-3.98c0-.71-.03-1.16-.1-1.37s-.17-.36-.32-.46c-.14-.1-.34-.15-.58-.15-.3,0-.56,.08-.8,.24s-.41,.39-.51,.69c-.1,.3-.15,.8-.15,1.5v3.53h-1.92v-7.26Z" style="fill:#2d509f;"/><path d="M714.73,458.62v-10.02h3.03l1.82,6.84,1.8-6.84h3.04v10.02h-1.88v-7.89l-1.99,7.89h-1.95l-1.98-7.89v7.89h-1.88Z" style="fill:#2d509f;"/><path d="M726.41,450.38v-1.78h1.92v1.78h-1.92Zm0,8.24v-7.26h1.92v7.26h-1.92Z" style="fill:#2d509f;"/><path d="M733.62,451.36v1.53h-1.31v2.93c0,.59,.01,.94,.04,1.04,.03,.1,.08,.18,.17,.24,.09,.06,.2,.1,.32,.1,.18,0,.44-.06,.77-.18l.16,1.49c-.45,.19-.95,.29-1.52,.29-.35,0-.66-.06-.94-.17-.28-.12-.48-.27-.61-.45-.13-.19-.22-.43-.27-.75-.04-.22-.06-.67-.06-1.35v-3.17h-.88v-1.53h.88v-1.44l1.93-1.12v2.56h1.31Z" style="fill:#2d509f;"/><path d="M736.39,453.58l-1.74-.31c.2-.7,.53-1.22,1.01-1.56s1.19-.51,2.13-.51c.86,0,1.5,.1,1.91,.3,.42,.2,.71,.46,.88,.77,.17,.31,.26,.89,.26,1.72l-.02,2.24c0,.64,.03,1.11,.09,1.41,.06,.3,.18,.63,.35,.97h-1.9c-.05-.13-.11-.32-.18-.57-.03-.11-.05-.19-.07-.23-.33,.32-.68,.56-1.05,.72s-.77,.24-1.2,.24c-.75,0-1.34-.2-1.77-.61-.43-.41-.65-.92-.65-1.54,0-.41,.1-.78,.29-1.1,.2-.32,.47-.57,.82-.74,.35-.17,.86-.32,1.53-.45,.9-.17,1.52-.33,1.87-.47v-.19c0-.37-.09-.63-.27-.79-.18-.16-.53-.24-1.03-.24-.34,0-.61,.07-.8,.2-.19,.13-.35,.37-.46,.71Zm2.57,1.56c-.25,.08-.64,.18-1.17,.29s-.88,.23-1.05,.33c-.25,.18-.38,.4-.38,.68s.1,.5,.3,.7,.46,.29,.77,.29c.35,0,.68-.11,.99-.34,.23-.17,.38-.38,.46-.64,.05-.16,.08-.48,.08-.94v-.38Z" style="fill:#2d509f;"/><path d="M744.58,458.62h-1.92v-7.26h1.78v1.03c.31-.49,.58-.81,.82-.96,.24-.16,.52-.23,.83-.23,.44,0,.86,.12,1.26,.36l-.59,1.67c-.32-.21-.62-.31-.9-.31s-.5,.07-.68,.22c-.19,.15-.33,.42-.44,.8-.11,.39-.16,1.2-.16,2.43v2.24Z" style="fill:#2d509f;"/><path d="M748.11,458.62v-10.02h1.92v3.61c.59-.67,1.29-1.01,2.11-1.01,.88,0,1.62,.32,2.19,.96,.58,.64,.87,1.56,.87,2.76s-.29,2.19-.88,2.86c-.59,.67-1.31,1-2.15,1-.42,0-.82-.1-1.23-.31-.4-.21-.75-.51-1.04-.92v1.07h-1.78Zm1.91-3.79c0,.75,.12,1.31,.36,1.67,.33,.51,.77,.77,1.33,.77,.42,0,.79-.18,1.08-.54,.3-.36,.45-.93,.45-1.71,0-.83-.15-1.43-.45-1.79-.3-.37-.69-.55-1.16-.55s-.84,.18-1.15,.54c-.31,.36-.46,.9-.46,1.63Z" style="fill:#2d509f;"/><path d="M760.95,456.31l1.91,.32c-.25,.7-.63,1.24-1.17,1.6-.53,.37-1.19,.55-1.99,.55-1.26,0-2.2-.41-2.8-1.24-.48-.66-.72-1.5-.72-2.5,0-1.2,.31-2.15,.94-2.83,.63-.68,1.42-1.02,2.39-1.02,1.08,0,1.93,.36,2.56,1.07,.62,.71,.92,1.81,.9,3.28h-4.81c.01,.57,.17,1.01,.46,1.33,.3,.32,.67,.47,1.11,.47,.3,0,.55-.08,.76-.25s.36-.43,.46-.79Zm.11-1.94c-.01-.56-.16-.98-.43-1.27-.27-.29-.61-.43-1-.43-.42,0-.77,.15-1.04,.46s-.41,.72-.4,1.24h2.87Z" style="fill:#2d509f;"/><path d="M764.53,450.38v-1.78h1.92v1.78h-1.92Zm0,8.24v-7.26h1.92v7.26h-1.92Z" style="fill:#2d509f;"/><path d="M771.75,451.36v1.53h-1.31v2.93c0,.59,.01,.94,.04,1.04,.03,.1,.08,.18,.17,.24,.09,.06,.2,.1,.32,.1,.18,0,.44-.06,.77-.18l.16,1.49c-.45,.19-.95,.29-1.52,.29-.35,0-.66-.06-.94-.17-.28-.12-.48-.27-.61-.45-.13-.19-.22-.43-.27-.75-.04-.22-.06-.67-.06-1.35v-3.17h-.88v-1.53h.88v-1.44l1.93-1.12v2.56h1.31Z" style="fill:#2d509f;"/><path d="M777.29,456.31l1.91,.32c-.25,.7-.63,1.24-1.17,1.6-.53,.37-1.19,.55-1.99,.55-1.26,0-2.2-.41-2.8-1.24-.48-.66-.72-1.5-.72-2.5,0-1.2,.31-2.15,.94-2.83,.63-.68,1.42-1.02,2.39-1.02,1.08,0,1.93,.36,2.56,1.07,.62,.71,.92,1.81,.9,3.28h-4.81c.01,.57,.17,1.01,.46,1.33,.3,.32,.67,.47,1.11,.47,.3,0,.55-.08,.76-.25s.36-.43,.46-.79Zm.11-1.94c-.01-.56-.16-.98-.43-1.27-.27-.29-.61-.43-1-.43-.42,0-.77,.15-1.04,.46s-.41,.72-.4,1.24h2.87Z" style="fill:#2d509f;"/><path d="M782.71,458.62h-1.92v-7.26h1.78v1.03c.31-.49,.58-.81,.82-.96,.24-.16,.52-.23,.83-.23,.44,0,.86,.12,1.26,.36l-.59,1.67c-.32-.21-.62-.31-.9-.31s-.5,.07-.68,.22c-.19,.15-.33,.42-.44,.8-.11,.39-.16,1.2-.16,2.43v2.24Z" style="fill:#2d509f;"/><path d="M794.41,456.31l1.91,.32c-.25,.7-.63,1.24-1.17,1.6-.53,.37-1.19,.55-1.99,.55-1.26,0-2.2-.41-2.8-1.24-.48-.66-.72-1.5-.72-2.5,0-1.2,.31-2.15,.94-2.83,.63-.68,1.42-1.02,2.39-1.02,1.08,0,1.93,.36,2.56,1.07,.62,.71,.92,1.81,.9,3.28h-4.81c.01,.57,.17,1.01,.46,1.33,.3,.32,.67,.47,1.11,.47,.3,0,.55-.08,.76-.25s.36-.43,.46-.79Zm.11-1.94c-.01-.56-.16-.98-.43-1.27-.27-.29-.61-.43-1-.43-.42,0-.77,.15-1.04,.46s-.41,.72-.4,1.24h2.87Z" style="fill:#2d509f;"/><path d="M799.83,458.62h-1.92v-7.26h1.78v1.03c.31-.49,.58-.81,.82-.96,.24-.16,.52-.23,.83-.23,.44,0,.86,.12,1.26,.36l-.59,1.67c-.32-.21-.62-.31-.9-.31s-.5,.07-.68,.22c-.19,.15-.33,.42-.44,.8-.11,.39-.16,1.2-.16,2.43v2.24Z" style="fill:#2d509f;"/><path d="M803.36,458.62v-10.02h1.92v3.61c.59-.67,1.29-1.01,2.11-1.01,.88,0,1.62,.32,2.19,.96,.58,.64,.87,1.56,.87,2.76s-.29,2.19-.88,2.86c-.59,.67-1.31,1-2.15,1-.42,0-.82-.1-1.23-.31-.4-.21-.75-.51-1.04-.92v1.07h-1.78Zm1.91-3.79c0,.75,.12,1.31,.36,1.67,.33,.51,.77,.77,1.33,.77,.42,0,.79-.18,1.08-.54,.3-.36,.45-.93,.45-1.71,0-.83-.15-1.43-.45-1.79-.3-.37-.69-.55-1.16-.55s-.84,.18-1.15,.54c-.31,.36-.46,.9-.46,1.63Z" style="fill:#2d509f;"/><path d="M813.83,458.62h-1.92v-7.26h1.78v1.03c.31-.49,.58-.81,.82-.96,.24-.16,.52-.23,.83-.23,.44,0,.86,.12,1.26,.36l-.59,1.67c-.32-.21-.62-.31-.9-.31s-.5,.07-.68,.22c-.19,.15-.33,.42-.44,.8-.11,.39-.16,1.2-.16,2.43v2.24Z" style="fill:#2d509f;"/><path d="M818.88,453.58l-1.74-.31c.2-.7,.53-1.22,1.01-1.56s1.19-.51,2.13-.51c.86,0,1.5,.1,1.91,.3,.42,.2,.71,.46,.88,.77,.17,.31,.26,.89,.26,1.72l-.02,2.24c0,.64,.03,1.11,.09,1.41,.06,.3,.18,.63,.35,.97h-1.9c-.05-.13-.11-.32-.18-.57-.03-.11-.05-.19-.07-.23-.33,.32-.68,.56-1.05,.72s-.77,.24-1.2,.24c-.75,0-1.34-.2-1.77-.61-.43-.41-.65-.92-.65-1.54,0-.41,.1-.78,.29-1.1,.2-.32,.47-.57,.82-.74,.35-.17,.86-.32,1.53-.45,.9-.17,1.52-.33,1.87-.47v-.19c0-.37-.09-.63-.27-.79-.18-.16-.53-.24-1.03-.24-.34,0-.61,.07-.8,.2-.19,.13-.35,.37-.46,.71Zm2.57,1.56c-.25,.08-.64,.18-1.17,.29s-.88,.23-1.05,.33c-.25,.18-.38,.4-.38,.68s.1,.5,.3,.7,.46,.29,.77,.29c.35,0,.68-.11,.99-.34,.23-.17,.38-.38,.46-.64,.05-.16,.08-.48,.08-.94v-.38Z" style="fill:#2d509f;"/><path d="M831.56,453.51l-1.89,.34c-.06-.38-.21-.66-.43-.85-.23-.19-.52-.29-.88-.29-.48,0-.86,.17-1.14,.5-.29,.33-.43,.88-.43,1.66,0,.86,.14,1.47,.43,1.83,.29,.36,.68,.53,1.17,.53,.36,0,.66-.1,.9-.31,.23-.21,.4-.56,.49-1.07l1.89,.32c-.2,.87-.57,1.52-1.13,1.96s-1.3,.66-2.24,.66c-1.06,0-1.91-.33-2.54-1-.63-.67-.95-1.6-.95-2.78s.32-2.13,.95-2.8c.63-.67,1.49-1,2.57-1,.88,0,1.59,.19,2.11,.57,.52,.38,.9,.96,1.12,1.74Z" style="fill:#2d509f;"/><path d="M834.93,448.6v3.68c.62-.72,1.36-1.09,2.22-1.09,.44,0,.84,.08,1.2,.25s.62,.37,.8,.63c.18,.25,.3,.54,.37,.85,.07,.31,.1,.79,.1,1.44v4.26h-1.92v-3.83c0-.76-.04-1.24-.11-1.45s-.2-.37-.39-.49c-.18-.12-.42-.18-.69-.18-.32,0-.6,.08-.85,.23s-.43,.39-.55,.7c-.12,.31-.17,.77-.17,1.38v3.64h-1.92v-10.02h1.92Z" style="fill:#2d509f;"/><path d="M844.89,451.36v1.53h-1.31v2.93c0,.59,.01,.94,.04,1.04,.03,.1,.08,.18,.17,.24,.09,.06,.2,.1,.32,.1,.18,0,.44-.06,.77-.18l.16,1.49c-.45,.19-.95,.29-1.52,.29-.35,0-.66-.06-.94-.17-.28-.12-.48-.27-.61-.45-.13-.19-.22-.43-.27-.75-.04-.22-.06-.67-.06-1.35v-3.17h-.88v-1.53h.88v-1.44l1.93-1.12v2.56h1.31Z" style="fill:#2d509f;"/><path d="M846.23,458.62v-1.92h1.92v1.92h-1.92Z" style="fill:#2d509f;"/></g><g><g><rect x="135" y="114.75" width="172.67" height="68" style="fill:#fff; stroke:#000; stroke-miterlimit:8; stroke-width:2px;"/><g><path d="M181.73,154.41v-11.45h3.46l2.08,7.81,2.05-7.81h3.47v11.45h-2.15v-9.02l-2.27,9.02h-2.23l-2.27-9.02v9.02h-2.15Z"/><path d="M195.04,144.99v-2.03h2.2v2.03h-2.2Zm0,9.42v-8.3h2.2v8.3h-2.2Z"/><path d="M203.26,146.12v1.75h-1.5v3.34c0,.68,.01,1.07,.04,1.18,.03,.11,.09,.21,.2,.28,.1,.07,.23,.11,.37,.11,.2,0,.5-.07,.88-.21l.19,1.7c-.51,.22-1.09,.33-1.73,.33-.4,0-.75-.07-1.07-.2s-.55-.3-.7-.52-.25-.5-.31-.86c-.05-.25-.07-.77-.07-1.55v-3.62h-1.01v-1.75h1.01v-1.65l2.2-1.28v2.93h1.5Z"/><path d="M206.39,148.65l-1.99-.36c.22-.8,.61-1.4,1.16-1.78,.55-.38,1.36-.58,2.44-.58,.98,0,1.71,.12,2.19,.35,.48,.23,.82,.53,1.01,.88,.2,.36,.29,1.01,.29,1.96l-.02,2.56c0,.73,.04,1.27,.11,1.61,.07,.35,.2,.72,.39,1.11h-2.17c-.06-.15-.13-.36-.21-.65-.04-.13-.06-.22-.08-.26-.38,.37-.78,.64-1.2,.82-.43,.18-.88,.27-1.37,.27-.85,0-1.53-.23-2.02-.7-.49-.46-.74-1.05-.74-1.76,0-.47,.11-.89,.34-1.25s.54-.65,.94-.84,.99-.37,1.75-.51c1.03-.19,1.74-.37,2.13-.54v-.22c0-.42-.1-.72-.31-.9s-.6-.27-1.18-.27c-.39,0-.7,.08-.91,.23-.22,.15-.4,.42-.53,.81Zm2.94,1.78c-.28,.09-.73,.21-1.34,.34-.61,.13-1.01,.26-1.2,.38-.29,.2-.43,.46-.43,.77s.11,.57,.34,.8c.23,.22,.52,.34,.88,.34,.4,0,.77-.13,1.13-.39,.27-.2,.44-.44,.52-.73,.06-.19,.09-.54,.09-1.07v-.44Z"/><path d="M215.72,154.41h-2.2v-8.3h2.04v1.18c.35-.56,.66-.92,.94-1.1,.28-.18,.59-.27,.95-.27,.5,0,.98,.14,1.45,.41l-.68,1.91c-.37-.24-.71-.36-1.03-.36s-.57,.08-.78,.25c-.21,.17-.38,.48-.5,.92-.12,.44-.18,1.37-.18,2.78v2.56Z"/><path d="M219.72,154.41v-11.45h2.2v4.12c.68-.77,1.48-1.16,2.41-1.16,1.01,0,1.85,.37,2.51,1.1,.66,.73,.99,1.78,.99,3.15s-.34,2.51-1.01,3.27-1.49,1.15-2.46,1.15c-.47,0-.94-.12-1.4-.36-.46-.24-.86-.59-1.19-1.05v1.22h-2.04Zm2.18-4.33c0,.86,.14,1.5,.41,1.91,.38,.58,.89,.88,1.52,.88,.48,0,.9-.21,1.24-.62s.51-1.07,.51-1.96c0-.95-.17-1.63-.52-2.05-.34-.42-.78-.63-1.32-.63s-.96,.21-1.31,.61c-.35,.41-.52,1.03-.52,1.86Z"/><path d="M234.36,151.77l2.19,.37c-.28,.8-.73,1.41-1.33,1.83-.61,.42-1.37,.63-2.28,.63-1.44,0-2.51-.47-3.2-1.41-.55-.75-.82-1.71-.82-2.86,0-1.38,.36-2.45,1.08-3.23,.72-.78,1.63-1.17,2.73-1.17,1.23,0,2.21,.41,2.92,1.22,.71,.82,1.05,2.06,1.02,3.75h-5.5c.02,.65,.19,1.16,.53,1.52,.34,.36,.76,.54,1.27,.54,.34,0,.63-.09,.87-.28s.41-.49,.53-.91Zm.12-2.22c-.02-.63-.18-1.12-.49-1.45-.31-.33-.69-.5-1.14-.5-.48,0-.88,.17-1.19,.52-.31,.35-.47,.82-.46,1.42h3.28Z"/><path d="M238.42,144.99v-2.03h2.2v2.03h-2.2Zm0,9.42v-8.3h2.2v8.3h-2.2Z"/><path d="M246.64,146.12v1.75h-1.5v3.34c0,.68,.01,1.07,.04,1.18,.03,.11,.09,.21,.2,.28,.1,.07,.23,.11,.37,.11,.2,0,.5-.07,.88-.21l.19,1.7c-.51,.22-1.09,.33-1.73,.33-.4,0-.75-.07-1.07-.2s-.55-.3-.7-.52-.25-.5-.31-.86c-.05-.25-.07-.77-.07-1.55v-3.62h-1.01v-1.75h1.01v-1.65l2.2-1.28v2.93h1.5Z"/><path d="M252.93,151.77l2.19,.37c-.28,.8-.73,1.41-1.33,1.83-.61,.42-1.37,.63-2.28,.63-1.44,0-2.51-.47-3.2-1.41-.55-.75-.82-1.71-.82-2.86,0-1.38,.36-2.45,1.08-3.23,.72-.78,1.63-1.17,2.73-1.17,1.23,0,2.21,.41,2.92,1.22,.71,.82,1.05,2.06,1.02,3.75h-5.5c.02,.65,.19,1.16,.53,1.52,.34,.36,.76,.54,1.27,.54,.34,0,.63-.09,.87-.28s.41-.49,.53-.91Zm.12-2.22c-.02-.63-.18-1.12-.49-1.45-.31-.33-.69-.5-1.14-.5-.48,0-.88,.17-1.19,.52-.31,.35-.47,.82-.46,1.42h3.28Z"/><path d="M259.09,154.41h-2.2v-8.3h2.04v1.18c.35-.56,.66-.92,.94-1.1,.28-.18,.59-.27,.95-.27,.5,0,.98,.14,1.45,.41l-.68,1.91c-.37-.24-.71-.36-1.03-.36s-.57,.08-.78,.25c-.21,.17-.38,.48-.5,.92-.12,.44-.18,1.37-.18,2.78v2.56Z"/></g><polygon points="430.33 148.33 488.33 123.33 546.33 148.33 488.33 173.33 430.33 148.33" style="fill:none; stroke:#000; stroke-miterlimit:8;"/><g><path d="M474.97,152.41v-9.82h1.21v9.82h-1.21Z"/><path d="M482.81,150.12l1.24,.15c-.2,.73-.56,1.29-1.09,1.69-.53,.4-1.21,.6-2.04,.6-1.04,0-1.87-.32-2.47-.96s-.91-1.54-.91-2.7,.31-2.12,.93-2.79c.62-.66,1.41-.99,2.4-.99s1.73,.32,2.33,.97c.6,.65,.9,1.56,.9,2.73,0,.07,0,.18,0,.32h-5.3c.04,.78,.27,1.38,.66,1.79,.4,.42,.89,.62,1.49,.62,.44,0,.82-.12,1.13-.35,.31-.23,.56-.6,.74-1.11Zm-3.96-1.95h3.97c-.05-.6-.21-1.05-.46-1.35-.38-.46-.88-.7-1.49-.7-.55,0-1.02,.19-1.4,.56-.38,.37-.59,.87-.63,1.49Z"/><path d="M485.48,143.98v-1.39h1.21v1.39h-1.21Zm0,8.43v-7.11h1.21v7.11h-1.21Z"/><path d="M491.06,151.33l.17,1.07c-.34,.07-.64,.11-.91,.11-.44,0-.78-.07-1.02-.21-.24-.14-.41-.32-.51-.55s-.15-.7-.15-1.42v-4.09h-.88v-.94h.88v-1.76l1.2-.72v2.48h1.21v.94h-1.21v4.16c0,.34,.02,.57,.06,.66,.04,.1,.11,.18,.21,.23,.1,.06,.23,.09,.41,.09,.13,0,.31-.02,.53-.05Z"/><path d="M497.01,150.12l1.25,.15c-.2,.73-.56,1.29-1.09,1.69-.53,.4-1.21,.6-2.04,.6-1.04,0-1.87-.32-2.47-.96s-.91-1.54-.91-2.7,.31-2.12,.92-2.79c.62-.66,1.42-.99,2.4-.99s1.73,.32,2.33,.97c.6,.65,.9,1.56,.9,2.73,0,.07,0,.18,0,.32h-5.3c.04,.78,.27,1.38,.66,1.79s.89,.62,1.49,.62c.44,0,.82-.12,1.13-.35,.31-.23,.56-.6,.74-1.11Zm-3.96-1.95h3.97c-.05-.6-.21-1.05-.46-1.35-.38-.46-.88-.7-1.49-.7-.55,0-1.02,.19-1.4,.56-.38,.37-.59,.87-.62,1.49Z"/><path d="M502.3,151.33l.17,1.07c-.34,.07-.64,.11-.91,.11-.44,0-.78-.07-1.02-.21-.24-.14-.41-.32-.51-.55s-.15-.7-.15-1.42v-4.09h-.88v-.94h.88v-1.76l1.2-.72v2.48h1.21v.94h-1.21v4.16c0,.34,.02,.57,.06,.66,.04,.1,.11,.18,.21,.23,.1,.06,.23,.09,.41,.09,.13,0,.31-.02,.53-.05Z"/></g><line x1="307.67" y1="148" x2="430.54" y2="148" style="fill:none; stroke:#000; stroke-miterlimit:8;"/><line x1="546.33" y1="148" x2="681.05" y2="148" style="fill:none; stroke:#000; stroke-miterlimit:8;"/><rect x="681" y="114.75" width="172" height="68" style="fill:#fff; stroke:#000; stroke-miterlimit:8; stroke-width:2px;"/><g><path d="M741.04,154.41v-11.45h3.71c1.41,0,2.32,.06,2.75,.17,.66,.17,1.21,.55,1.65,1.12,.44,.58,.66,1.32,.66,2.23,0,.7-.13,1.29-.38,1.77-.25,.48-.58,.86-.97,1.13-.39,.27-.79,.46-1.2,.54-.55,.11-1.35,.16-2.4,.16h-1.51v4.32h-2.31Zm2.31-9.52v3.25h1.27c.91,0,1.52-.06,1.83-.18,.31-.12,.55-.31,.72-.56,.18-.25,.26-.55,.26-.89,0-.42-.12-.76-.37-1.03-.24-.27-.55-.44-.93-.51-.28-.05-.83-.08-1.66-.08h-1.12Z"/><path d="M753.8,154.41h-2.2v-8.3h2.04v1.18c.35-.56,.66-.92,.94-1.1,.28-.18,.6-.27,.95-.27,.5,0,.98,.14,1.45,.41l-.68,1.91c-.37-.24-.71-.36-1.03-.36s-.57,.08-.78,.25c-.21,.17-.38,.48-.5,.92-.12,.44-.18,1.37-.18,2.78v2.56Z"/><path d="M757.42,150.15c0-.73,.18-1.43,.54-2.12,.36-.68,.87-1.2,1.53-1.56,.66-.36,1.39-.54,2.21-.54,1.26,0,2.29,.41,3.09,1.22,.8,.82,1.2,1.85,1.2,3.09s-.4,2.3-1.21,3.12c-.81,.83-1.83,1.24-3.06,1.24-.76,0-1.48-.17-2.18-.52-.69-.34-1.21-.85-1.57-1.51s-.54-1.47-.54-2.43Zm2.25,.12c0,.82,.2,1.45,.59,1.89s.87,.66,1.45,.66,1.05-.22,1.44-.66c.39-.44,.58-1.07,.58-1.91s-.19-1.44-.58-1.88c-.39-.44-.87-.66-1.44-.66s-1.05,.22-1.45,.66-.59,1.07-.59,1.89Z"/><path d="M769.85,146.12v8.04c0,1.06-.07,1.8-.21,2.24-.14,.43-.4,.77-.8,1.02-.39,.25-.89,.37-1.5,.37-.22,0-.45-.02-.71-.06-.25-.04-.52-.1-.82-.18l.38-1.88c.11,.02,.2,.04,.29,.05,.09,.01,.18,.02,.25,.02,.22,0,.41-.05,.55-.14,.14-.1,.24-.21,.29-.35s.07-.54,.07-1.22v-7.91h2.2Zm-2.2-1.12v-2.03h2.2v2.03h-2.2Z"/><path d="M776.95,151.77l2.19,.37c-.28,.8-.72,1.41-1.33,1.83-.61,.42-1.37,.63-2.28,.63-1.44,0-2.51-.47-3.2-1.41-.55-.75-.82-1.71-.82-2.86,0-1.38,.36-2.45,1.08-3.23,.72-.78,1.63-1.17,2.73-1.17,1.23,0,2.21,.41,2.92,1.22,.71,.82,1.05,2.06,1.02,3.75h-5.5c.02,.65,.19,1.16,.53,1.52,.34,.36,.76,.54,1.27,.54,.34,0,.63-.09,.87-.28s.41-.49,.53-.91Zm.12-2.22c-.02-.63-.18-1.12-.49-1.45-.31-.33-.69-.5-1.14-.5-.48,0-.88,.17-1.19,.52-.31,.35-.46,.82-.46,1.42h3.28Z"/><path d="M780.96,154.41v-11.45h2.2v6.08l2.57-2.92h2.7l-2.84,3.03,3.04,5.27h-2.37l-2.09-3.73-1.02,1.07v2.66h-2.2Z"/><path d="M793.75,146.12v1.75h-1.5v3.34c0,.68,.02,1.07,.04,1.18,.03,.11,.09,.21,.2,.28,.1,.07,.23,.11,.37,.11,.2,0,.5-.07,.88-.21l.19,1.7c-.51,.22-1.09,.33-1.73,.33-.39,0-.75-.07-1.07-.2-.32-.13-.55-.3-.7-.52s-.25-.5-.31-.86c-.05-.25-.07-.77-.07-1.55v-3.62h-1.01v-1.75h1.01v-1.65l2.2-1.28v2.93h1.5Z"/></g><g><path d="M319.03,133.91c0-1.16,.12-2.09,.36-2.8,.24-.71,.59-1.25,1.06-1.64s1.06-.58,1.78-.58c.53,0,.99,.11,1.39,.32,.4,.21,.72,.52,.98,.92,.26,.4,.46,.89,.61,1.46,.15,.57,.22,1.35,.22,2.32,0,1.15-.12,2.08-.36,2.79-.24,.71-.59,1.25-1.06,1.64s-1.07,.58-1.79,.58c-.95,0-1.69-.34-2.23-1.02-.65-.82-.97-2.15-.97-3.99Zm1.24,0c0,1.61,.19,2.68,.57,3.22s.84,.8,1.4,.8,1.02-.27,1.4-.8c.38-.54,.57-1.61,.57-3.21s-.19-2.69-.57-3.22-.85-.8-1.41-.8-1,.23-1.33,.7c-.41,.6-.62,1.7-.62,3.31Z"/><path d="M327.31,138.75v-1.37h1.37v1.37c0,.5-.09,.91-.27,1.22-.18,.31-.46,.55-.85,.72l-.33-.52c.25-.11,.44-.28,.56-.49,.12-.22,.19-.53,.2-.93h-.68Z"/><path d="M330.81,138.75v-7.11h1.08v1.01c.52-.78,1.28-1.17,2.26-1.17,.43,0,.82,.08,1.18,.23,.36,.15,.63,.36,.81,.61,.18,.25,.3,.55,.38,.89,.04,.22,.07,.61,.07,1.17v4.37h-1.21v-4.33c0-.49-.05-.86-.14-1.1s-.26-.44-.5-.58c-.24-.14-.52-.22-.84-.22-.51,0-.96,.16-1.33,.49-.37,.33-.56,.94-.56,1.86v3.88h-1.21Z"/></g><g><path d="M656.73,138.75h-1.21v-7.68c-.29,.28-.67,.55-1.14,.83-.47,.28-.89,.48-1.27,.62v-1.17c.67-.32,1.26-.7,1.77-1.15,.51-.45,.86-.89,1.07-1.31h.78v9.86Z"/><path d="M660.47,138.75v-1.37h1.37v1.37c0,.5-.09,.91-.27,1.22-.18,.31-.46,.55-.85,.72l-.33-.52c.25-.11,.44-.28,.56-.49,.12-.22,.19-.53,.2-.93h-.68Z"/><path d="M668.17,138.75h-1.21v-7.68c-.29,.28-.67,.55-1.14,.83-.47,.28-.89,.48-1.27,.62v-1.17c.67-.32,1.26-.7,1.77-1.15,.51-.45,.86-.89,1.07-1.31h.78v9.86Z"/></g></g><g><path d="M522.61,221.93v-10.02h7.25v1.18h-5.92v3.07h5.54v1.18h-5.54v3.41h6.15v1.18h-7.48Z" style="fill:#1d1d1b;"/><path d="M531.77,213.32v-1.42h1.23v1.42h-1.23Zm0,8.61v-7.26h1.23v7.26h-1.23Z" style="fill:#1d1d1b;"/><path d="M534.87,221.93v-7.26h1.11v1.03c.53-.8,1.3-1.2,2.31-1.2,.44,0,.84,.08,1.21,.24,.37,.16,.64,.36,.82,.62,.18,.26,.31,.56,.38,.91,.05,.23,.07,.63,.07,1.2v4.46h-1.23v-4.42c0-.5-.05-.88-.14-1.12-.1-.25-.27-.45-.51-.59-.24-.15-.53-.22-.86-.22-.52,0-.98,.17-1.36,.5-.38,.33-.57,.96-.57,1.89v3.96h-1.23Z" style="fill:#1d1d1b;"/><path d="M546.7,221.93v-10.02h3.78c.67,0,1.17,.03,1.52,.1,.49,.08,.9,.24,1.24,.47,.33,.23,.6,.55,.8,.97,.2,.42,.3,.87,.3,1.37,0,.85-.27,1.57-.81,2.16-.54,.59-1.52,.88-2.94,.88h-2.57v4.07h-1.33Zm1.33-5.26h2.59c.86,0,1.46-.16,1.83-.48,.36-.32,.54-.77,.54-1.35,0-.42-.11-.78-.32-1.08-.21-.3-.49-.5-.84-.59-.22-.06-.64-.09-1.24-.09h-2.56v3.58Z" style="fill:#1d1d1b;"/><path d="M555.87,221.93v-7.26h1.11v1.1c.28-.51,.54-.85,.78-1.02,.24-.16,.5-.25,.79-.25,.42,0,.84,.13,1.26,.4l-.42,1.14c-.3-.18-.6-.27-.9-.27-.27,0-.51,.08-.72,.24-.21,.16-.37,.39-.46,.67-.14,.44-.21,.92-.21,1.44v3.8h-1.23Z" style="fill:#1d1d1b;"/><path d="M560.09,218.3c0-1.34,.37-2.34,1.12-2.99,.62-.54,1.39-.81,2.28-.81,1,0,1.81,.33,2.45,.98,.63,.65,.95,1.56,.95,2.71,0,.93-.14,1.67-.42,2.21-.28,.54-.69,.95-1.22,1.25-.54,.3-1.12,.44-1.75,.44-1.02,0-1.84-.33-2.46-.98-.63-.65-.94-1.59-.94-2.82Zm1.26,0c0,.93,.2,1.63,.61,2.09,.41,.46,.92,.69,1.53,.69s1.12-.23,1.52-.7,.61-1.17,.61-2.13c0-.9-.2-1.58-.61-2.04-.41-.46-.92-.69-1.52-.69s-1.13,.23-1.53,.69c-.41,.46-.61,1.16-.61,2.08Z" style="fill:#1d1d1b;"/><path d="M566.77,224.74l.23-1.05c.25,.06,.44,.1,.58,.1,.25,0,.44-.08,.56-.25,.12-.17,.18-.58,.18-1.25v-7.63h1.23v7.66c0,.89-.12,1.52-.35,1.87-.3,.46-.79,.68-1.48,.68-.33,0-.65-.04-.96-.13Zm1.56-11.41v-1.43h1.23v1.43h-1.23Z" style="fill:#1d1d1b;"/><path d="M576.41,219.59l1.27,.16c-.2,.74-.57,1.32-1.11,1.73s-1.24,.62-2.08,.62c-1.06,0-1.9-.33-2.53-.98-.62-.65-.93-1.57-.93-2.75s.31-2.17,.94-2.84c.63-.67,1.44-1.01,2.45-1.01s1.76,.33,2.38,.99c.62,.66,.92,1.59,.92,2.79,0,.07,0,.18,0,.33h-5.41c.05,.8,.27,1.41,.68,1.83s.91,.64,1.52,.64c.45,0,.84-.12,1.16-.36,.32-.24,.57-.62,.76-1.13Zm-4.04-1.99h4.05c-.05-.61-.21-1.07-.46-1.37-.39-.47-.9-.71-1.52-.71-.57,0-1.04,.19-1.42,.57-.39,.38-.6,.88-.64,1.52Z" style="fill:#1d1d1b;"/><path d="M579.23,221.93v-10.02h1.23v5.71l2.91-2.95h1.59l-2.78,2.69,3.06,4.57h-1.52l-2.4-3.71-.87,.83v2.88h-1.23Z" style="fill:#1d1d1b;"/><path d="M588.91,220.83l.18,1.09c-.35,.07-.66,.11-.93,.11-.45,0-.79-.07-1.04-.21-.25-.14-.42-.33-.52-.56-.1-.23-.15-.71-.15-1.45v-4.18h-.9v-.96h.9v-1.8l1.22-.74v2.54h1.24v.96h-1.24v4.25c0,.35,.02,.58,.07,.68,.04,.1,.11,.18,.21,.24,.1,.06,.24,.09,.42,.09,.14,0,.32-.02,.54-.05Z" style="fill:#1d1d1b;"/><path d="M595.35,221.93l-2.22-7.26h1.27l1.16,4.19,.43,1.56c.02-.08,.14-.58,.38-1.5l1.16-4.25h1.26l1.09,4.21,.36,1.39,.42-1.4,1.24-4.2h1.2l-2.27,7.26h-1.28l-1.16-4.35-.28-1.24-1.47,5.58h-1.29Z" style="fill:#1d1d1b;"/><path d="M604.12,213.32v-1.42h1.23v1.42h-1.23Zm0,8.61v-7.26h1.23v7.26h-1.23Z" style="fill:#1d1d1b;"/><path d="M607.21,221.93v-7.26h1.11v1.1c.28-.51,.54-.85,.78-1.02,.24-.16,.5-.25,.79-.25,.42,0,.84,.13,1.26,.4l-.42,1.14c-.3-.18-.6-.27-.9-.27-.27,0-.51,.08-.72,.24-.21,.16-.37,.39-.46,.67-.14,.44-.21,.92-.21,1.44v3.8h-1.23Z" style="fill:#1d1d1b;"/><path d="M616.6,221.93v-.92c-.46,.72-1.14,1.08-2.03,1.08-.58,0-1.11-.16-1.6-.48-.48-.32-.86-.76-1.13-1.34-.27-.57-.4-1.23-.4-1.97s.12-1.38,.36-1.97c.24-.59,.6-1.04,1.09-1.36s1.02-.47,1.62-.47c.44,0,.83,.09,1.17,.28s.62,.42,.83,.72v-3.6h1.22v10.02h-1.14Zm-3.89-3.62c0,.93,.2,1.62,.59,2.08,.39,.46,.85,.69,1.39,.69s.99-.22,1.37-.66c.38-.44,.56-1.11,.56-2.01,0-.99-.19-1.72-.57-2.19s-.85-.7-1.42-.7-1,.22-1.37,.67c-.37,.45-.55,1.15-.55,2.11Z" style="fill:#1d1d1b;"/><path d="M625.58,221.93l-2.76-7.26h1.3l1.56,4.35c.17,.47,.32,.96,.46,1.46,.11-.38,.26-.84,.46-1.38l1.61-4.43h1.26l-2.75,7.26h-1.15Z" style="fill:#1d1d1b;"/><path d="M630.11,218.3c0-1.34,.37-2.34,1.12-2.99,.62-.54,1.39-.81,2.28-.81,1,0,1.81,.33,2.45,.98,.63,.65,.95,1.56,.95,2.71,0,.93-.14,1.67-.42,2.21-.28,.54-.69,.95-1.22,1.25-.54,.3-1.12,.44-1.75,.44-1.02,0-1.84-.33-2.46-.98-.63-.65-.94-1.59-.94-2.82Zm1.26,0c0,.93,.2,1.63,.61,2.09,.41,.46,.92,.69,1.53,.69s1.12-.23,1.52-.7,.61-1.17,.61-2.13c0-.9-.2-1.58-.61-2.04-.41-.46-.92-.69-1.52-.69s-1.13,.23-1.53,.69c-.41,.46-.61,1.16-.61,2.08Z" style="fill:#1d1d1b;"/><path d="M638.35,221.93v-7.26h1.11v1.03c.53-.8,1.3-1.2,2.31-1.2,.44,0,.84,.08,1.21,.24,.37,.16,.64,.36,.82,.62,.18,.26,.31,.56,.38,.91,.05,.23,.07,.63,.07,1.2v4.46h-1.23v-4.42c0-.5-.05-.88-.14-1.12-.1-.25-.27-.45-.51-.59-.24-.15-.53-.22-.86-.22-.52,0-.98,.17-1.36,.5-.38,.33-.57,.96-.57,1.89v3.96h-1.23Z" style="fill:#1d1d1b;"/><path d="M649.8,222.53l1.2,.18c.05,.37,.19,.64,.42,.81,.31,.23,.72,.34,1.25,.34,.57,0,1.01-.11,1.32-.34,.31-.23,.52-.55,.63-.96,.06-.25,.09-.78,.09-1.58-.54,.63-1.21,.95-2.01,.95-1,0-1.77-.36-2.32-1.08-.55-.72-.82-1.58-.82-2.59,0-.69,.12-1.33,.38-1.92,.25-.59,.61-1.04,1.09-1.36,.48-.32,1.04-.48,1.68-.48,.86,0,1.56,.35,2.12,1.04v-.88h1.13v6.28c0,1.13-.12,1.93-.35,2.4-.23,.47-.59,.84-1.09,1.12-.5,.27-1.11,.41-1.84,.41-.87,0-1.57-.19-2.1-.58s-.79-.98-.77-1.76Zm1.02-4.36c0,.95,.19,1.65,.57,2.08s.85,.66,1.42,.66,1.04-.22,1.42-.65c.38-.44,.57-1.12,.57-2.05s-.2-1.56-.59-2.01c-.39-.45-.87-.68-1.42-.68s-1.01,.22-1.39,.67-.57,1.1-.57,1.98Z" style="fill:#1d1d1b;"/><path d="M662.78,219.59l1.27,.16c-.2,.74-.57,1.32-1.11,1.73s-1.24,.62-2.08,.62c-1.06,0-1.9-.33-2.53-.98-.62-.65-.93-1.57-.93-2.75s.31-2.17,.94-2.84c.63-.67,1.44-1.01,2.45-1.01s1.76,.33,2.38,.99c.62,.66,.92,1.59,.92,2.79,0,.07,0,.18,0,.33h-5.41c.05,.8,.27,1.41,.68,1.83s.91,.64,1.52,.64c.45,0,.84-.12,1.16-.36,.32-.24,.57-.62,.76-1.13Zm-4.04-1.99h4.05c-.05-.61-.21-1.07-.46-1.37-.39-.47-.9-.71-1.52-.71-.57,0-1.04,.19-1.42,.57-.39,.38-.6,.88-.64,1.52Z" style="fill:#1d1d1b;"/><path d="M665.6,221.93v-7.26h1.11v1.03c.53-.8,1.3-1.2,2.31-1.2,.44,0,.84,.08,1.21,.24,.37,.16,.64,.36,.82,.62,.18,.26,.31,.56,.38,.91,.05,.23,.07,.63,.07,1.2v4.46h-1.23v-4.42c0-.5-.05-.88-.14-1.12-.1-.25-.27-.45-.51-.59-.24-.15-.53-.22-.86-.22-.52,0-.98,.17-1.36,.5-.38,.33-.57,.96-.57,1.89v3.96h-1.23Z" style="fill:#1d1d1b;"/><path d="M678.12,221.03c-.46,.39-.89,.66-1.32,.82-.42,.16-.87,.24-1.36,.24-.8,0-1.41-.19-1.84-.58s-.64-.89-.64-1.49c0-.36,.08-.68,.24-.97,.16-.29,.37-.53,.64-.71,.26-.18,.56-.31,.88-.4,.24-.06,.61-.12,1.09-.18,.99-.12,1.72-.26,2.19-.42,0-.17,0-.28,0-.32,0-.5-.12-.85-.35-1.06-.31-.28-.78-.42-1.4-.42-.58,0-1.01,.1-1.28,.3-.28,.2-.48,.56-.61,1.08l-1.2-.16c.11-.51,.29-.93,.54-1.25,.25-.32,.61-.56,1.09-.73s1.02-.26,1.65-.26,1.12,.07,1.51,.22c.39,.15,.67,.33,.85,.55,.18,.22,.31,.5,.38,.84,.04,.21,.06,.59,.06,1.13v1.64c0,1.14,.03,1.87,.08,2.17,.05,.3,.16,.59,.31,.87h-1.29c-.13-.25-.21-.55-.25-.9Zm-.1-2.75c-.45,.18-1.12,.34-2.01,.46-.51,.07-.86,.16-1.07,.25-.21,.09-.37,.22-.49,.4-.11,.17-.17,.37-.17,.58,0,.33,.12,.6,.37,.82,.25,.22,.61,.33,1.09,.33s.9-.1,1.26-.31c.37-.21,.64-.49,.81-.85,.13-.28,.2-.69,.2-1.23v-.45Z" style="fill:#1d1d1b;"/><path d="M685.93,221.93v-1.07c-.57,.82-1.33,1.23-2.3,1.23-.43,0-.83-.08-1.2-.25-.37-.16-.65-.37-.83-.62-.18-.25-.31-.55-.38-.91-.05-.24-.08-.62-.08-1.15v-4.5h1.23v4.03c0,.64,.03,1.08,.08,1.3,.08,.32,.24,.58,.49,.76s.56,.28,.93,.28,.72-.09,1.04-.28c.32-.19,.55-.45,.69-.77,.13-.33,.2-.8,.2-1.42v-3.89h1.23v7.26h-1.1Z" style="fill:#1d1d1b;"/><path d="M697.82,219.59l1.27,.16c-.2,.74-.57,1.32-1.11,1.73s-1.24,.62-2.08,.62c-1.06,0-1.9-.33-2.53-.98-.62-.65-.93-1.57-.93-2.75s.31-2.17,.94-2.84c.63-.67,1.44-1.01,2.45-1.01s1.76,.33,2.38,.99c.62,.66,.92,1.59,.92,2.79,0,.07,0,.18,0,.33h-5.41c.05,.8,.27,1.41,.68,1.83s.91,.64,1.52,.64c.45,0,.84-.12,1.16-.36,.32-.24,.57-.62,.76-1.13Zm-4.04-1.99h4.05c-.05-.61-.21-1.07-.46-1.37-.39-.47-.9-.71-1.52-.71-.57,0-1.04,.19-1.42,.57-.39,.38-.6,.88-.64,1.52Z" style="fill:#1d1d1b;"/><path d="M700.64,213.32v-1.42h1.23v1.42h-1.23Zm0,8.61v-7.26h1.23v7.26h-1.23Z" style="fill:#1d1d1b;"/><path d="M703.74,221.93v-7.26h1.11v1.03c.53-.8,1.3-1.2,2.31-1.2,.44,0,.84,.08,1.21,.24,.37,.16,.64,.36,.82,.62,.18,.26,.31,.56,.38,.91,.05,.23,.07,.63,.07,1.2v4.46h-1.23v-4.42c0-.5-.05-.88-.14-1.12-.1-.25-.27-.45-.51-.59-.24-.15-.53-.22-.86-.22-.52,0-.98,.17-1.36,.5-.38,.33-.57,.96-.57,1.89v3.96h-1.23Z" style="fill:#1d1d1b;"/><path d="M716.5,219.59l1.27,.16c-.2,.74-.57,1.32-1.11,1.73s-1.24,.62-2.08,.62c-1.06,0-1.9-.33-2.53-.98-.62-.65-.93-1.57-.93-2.75s.31-2.17,.94-2.84c.63-.67,1.44-1.01,2.45-1.01s1.76,.33,2.38,.99c.62,.66,.92,1.59,.92,2.79,0,.07,0,.18,0,.33h-5.41c.05,.8,.27,1.41,.68,1.83s.91,.64,1.52,.64c.45,0,.84-.12,1.16-.36,.32-.24,.57-.62,.76-1.13Zm-4.04-1.99h4.05c-.05-.61-.21-1.07-.46-1.37-.39-.47-.9-.71-1.52-.71-.57,0-1.04,.19-1.42,.57-.39,.38-.6,.88-.64,1.52Z" style="fill:#1d1d1b;"/><path d="M719.32,221.93v-7.26h1.1v1.02c.23-.36,.53-.64,.91-.86,.38-.22,.81-.33,1.29-.33,.54,0,.98,.11,1.32,.33,.34,.22,.59,.54,.73,.94,.57-.85,1.32-1.27,2.24-1.27,.72,0,1.27,.2,1.66,.6,.39,.4,.58,1.01,.58,1.84v4.98h-1.22v-4.57c0-.49-.04-.85-.12-1.06-.08-.22-.22-.39-.43-.52-.21-.13-.46-.2-.74-.2-.51,0-.93,.17-1.27,.51-.34,.34-.51,.88-.51,1.63v4.22h-1.23v-4.72c0-.55-.1-.96-.3-1.23s-.53-.41-.98-.41c-.35,0-.67,.09-.96,.27-.29,.18-.51,.45-.64,.8-.13,.35-.2,.86-.2,1.52v3.77h-1.23Z" style="fill:#1d1d1b;"/><path d="M734.98,221.93v-10.02h2l2.37,7.1c.22,.66,.38,1.16,.48,1.48,.11-.36,.29-.9,.53-1.61l2.4-6.97h1.78v10.02h-1.28v-8.39l-2.91,8.39h-1.2l-2.9-8.53v8.53h-1.28Z" style="fill:#1d1d1b;"/><path d="M746.54,213.32v-1.42h1.23v1.42h-1.23Zm0,8.61v-7.26h1.23v7.26h-1.23Z" style="fill:#1d1d1b;"/><path d="M752.33,220.83l.18,1.09c-.35,.07-.66,.11-.93,.11-.45,0-.79-.07-1.04-.21-.25-.14-.42-.33-.52-.56-.1-.23-.15-.71-.15-1.45v-4.18h-.9v-.96h.9v-1.8l1.22-.74v2.54h1.24v.96h-1.24v4.25c0,.35,.02,.58,.07,.68,.04,.1,.11,.18,.21,.24,.1,.06,.24,.09,.42,.09,.14,0,.32-.02,.54-.05Z" style="fill:#1d1d1b;"/><path d="M758.27,221.03c-.46,.39-.89,.66-1.32,.82-.42,.16-.87,.24-1.36,.24-.8,0-1.41-.19-1.84-.58s-.64-.89-.64-1.49c0-.36,.08-.68,.24-.97,.16-.29,.37-.53,.64-.71,.26-.18,.56-.31,.88-.4,.24-.06,.61-.12,1.09-.18,.99-.12,1.72-.26,2.19-.42,0-.17,0-.28,0-.32,0-.5-.12-.85-.35-1.06-.31-.28-.78-.42-1.4-.42-.58,0-1.01,.1-1.28,.3-.28,.2-.48,.56-.61,1.08l-1.2-.16c.11-.51,.29-.93,.54-1.25,.25-.32,.61-.56,1.09-.73s1.02-.26,1.65-.26,1.12,.07,1.51,.22c.39,.15,.67,.33,.85,.55,.18,.22,.31,.5,.38,.84,.04,.21,.06,.59,.06,1.13v1.64c0,1.14,.03,1.87,.08,2.17,.05,.3,.16,.59,.31,.87h-1.29c-.13-.25-.21-.55-.25-.9Zm-.1-2.75c-.45,.18-1.12,.34-2.01,.46-.51,.07-.86,.16-1.07,.25-.21,.09-.37,.22-.49,.4-.11,.17-.17,.37-.17,.58,0,.33,.12,.6,.37,.82,.25,.22,.61,.33,1.09,.33s.9-.1,1.26-.31c.37-.21,.64-.49,.81-.85,.13-.28,.2-.69,.2-1.23v-.45Z" style="fill:#1d1d1b;"/><path d="M761.3,221.93v-7.26h1.11v1.1c.28-.51,.54-.85,.78-1.02,.24-.16,.5-.25,.79-.25,.42,0,.84,.13,1.26,.4l-.42,1.14c-.3-.18-.6-.27-.9-.27-.27,0-.51,.08-.72,.24-.21,.16-.37,.39-.46,.67-.14,.44-.21,.92-.21,1.44v3.8h-1.23Z" style="fill:#1d1d1b;"/><path d="M767.11,221.93h-1.14v-10.02h1.23v3.58c.52-.65,1.18-.98,1.99-.98,.45,0,.87,.09,1.27,.27,.4,.18,.73,.43,.98,.76,.26,.33,.46,.72,.6,1.18,.15,.46,.22,.95,.22,1.48,0,1.24-.31,2.21-.92,2.88-.62,.68-1.35,1.02-2.21,1.02s-1.53-.36-2.02-1.07v.91Zm-.01-3.68c0,.87,.12,1.5,.36,1.89,.39,.63,.91,.95,1.57,.95,.54,0,1-.23,1.39-.7,.39-.47,.59-1.16,.59-2.09s-.19-1.65-.56-2.1c-.38-.45-.83-.68-1.36-.68s-1,.23-1.39,.7c-.39,.47-.59,1.14-.59,2.03Z" style="fill:#1d1d1b;"/><path d="M778.73,219.59l1.27,.16c-.2,.74-.57,1.32-1.11,1.73s-1.24,.62-2.08,.62c-1.06,0-1.9-.33-2.53-.98-.62-.65-.93-1.57-.93-2.75s.31-2.17,.94-2.84c.63-.67,1.44-1.01,2.45-1.01s1.76,.33,2.38,.99c.62,.66,.92,1.59,.92,2.79,0,.07,0,.18,0,.33h-5.41c.05,.8,.27,1.41,.68,1.83s.91,.64,1.52,.64c.45,0,.84-.12,1.16-.36,.32-.24,.57-.62,.76-1.13Zm-4.04-1.99h4.05c-.05-.61-.21-1.07-.46-1.37-.39-.47-.9-.71-1.52-.71-.57,0-1.04,.19-1.42,.57-.39,.38-.6,.88-.64,1.52Z" style="fill:#1d1d1b;"/><path d="M781.56,213.32v-1.42h1.23v1.42h-1.23Zm0,8.61v-7.26h1.23v7.26h-1.23Z" style="fill:#1d1d1b;"/><path d="M787.35,220.83l.18,1.09c-.35,.07-.66,.11-.93,.11-.45,0-.79-.07-1.04-.21-.25-.14-.42-.33-.52-.56-.1-.23-.15-.71-.15-1.45v-4.18h-.9v-.96h.9v-1.8l1.22-.74v2.54h1.24v.96h-1.24v4.25c0,.35,.02,.58,.07,.68,.04,.1,.11,.18,.21,.24,.1,.06,.24,.09,.42,.09,.14,0,.32-.02,.54-.05Z" style="fill:#1d1d1b;"/><path d="M793.52,219.59l1.27,.16c-.2,.74-.57,1.32-1.11,1.73s-1.24,.62-2.08,.62c-1.06,0-1.9-.33-2.53-.98-.62-.65-.93-1.57-.93-2.75s.31-2.17,.94-2.84c.63-.67,1.44-1.01,2.45-1.01s1.76,.33,2.38,.99c.62,.66,.92,1.59,.92,2.79,0,.07,0,.18,0,.33h-5.41c.05,.8,.27,1.41,.68,1.83s.91,.64,1.52,.64c.45,0,.84-.12,1.16-.36,.32-.24,.57-.62,.76-1.13Zm-4.04-1.99h4.05c-.05-.61-.21-1.07-.46-1.37-.39-.47-.9-.71-1.52-.71-.57,0-1.04,.19-1.42,.57-.39,.38-.6,.88-.64,1.52Z" style="fill:#1d1d1b;"/><path d="M796.32,221.93v-7.26h1.11v1.1c.28-.51,.54-.85,.78-1.02,.24-.16,.5-.25,.79-.25,.42,0,.84,.13,1.26,.4l-.42,1.14c-.3-.18-.6-.27-.9-.27-.27,0-.51,.08-.72,.24-.21,.16-.37,.39-.46,.67-.14,.44-.21,.92-.21,1.44v3.8h-1.23Z" style="fill:#1d1d1b;"/><path d="M804.66,222.53l1.2,.18c.05,.37,.19,.64,.42,.81,.31,.23,.72,.34,1.25,.34,.57,0,1.01-.11,1.32-.34,.31-.23,.52-.55,.63-.96,.06-.25,.09-.78,.09-1.58-.54,.63-1.21,.95-2.01,.95-1,0-1.77-.36-2.32-1.08-.55-.72-.82-1.58-.82-2.59,0-.69,.12-1.33,.38-1.92,.25-.59,.61-1.04,1.09-1.36,.48-.32,1.04-.48,1.68-.48,.86,0,1.56,.35,2.12,1.04v-.88h1.13v6.28c0,1.13-.12,1.93-.35,2.4-.23,.47-.59,.84-1.09,1.12-.5,.27-1.11,.41-1.84,.41-.87,0-1.57-.19-2.1-.58s-.79-.98-.77-1.76Zm1.02-4.36c0,.95,.19,1.65,.57,2.08s.85,.66,1.42,.66,1.04-.22,1.42-.65c.38-.44,.57-1.12,.57-2.05s-.2-1.56-.59-2.01c-.39-.45-.87-.68-1.42-.68s-1.01,.22-1.39,.67-.57,1.1-.57,1.98Z" style="fill:#1d1d1b;"/><path d="M817.64,219.59l1.27,.16c-.2,.74-.57,1.32-1.11,1.73s-1.24,.62-2.08,.62c-1.06,0-1.9-.33-2.53-.98-.62-.65-.93-1.57-.93-2.75s.31-2.17,.94-2.84c.63-.67,1.44-1.01,2.45-1.01s1.76,.33,2.38,.99c.62,.66,.92,1.59,.92,2.79,0,.07,0,.18,0,.33h-5.41c.05,.8,.27,1.41,.68,1.83s.91,.64,1.52,.64c.45,0,.84-.12,1.16-.36,.32-.24,.57-.62,.76-1.13Zm-4.04-1.99h4.05c-.05-.61-.21-1.07-.46-1.37-.39-.47-.9-.71-1.52-.71-.57,0-1.04,.19-1.42,.57-.39,.38-.6,.88-.64,1.52Z" style="fill:#1d1d1b;"/><path d="M820.43,221.93v-10.02h1.23v10.02h-1.23Z" style="fill:#1d1d1b;"/><path d="M828.54,219.59l1.27,.16c-.2,.74-.57,1.32-1.11,1.73s-1.24,.62-2.08,.62c-1.06,0-1.9-.33-2.53-.98-.62-.65-.93-1.57-.93-2.75s.31-2.17,.94-2.84c.63-.67,1.44-1.01,2.45-1.01s1.76,.33,2.38,.99c.62,.66,.92,1.59,.92,2.79,0,.07,0,.18,0,.33h-5.41c.05,.8,.27,1.41,.68,1.83s.91,.64,1.52,.64c.45,0,.84-.12,1.16-.36,.32-.24,.57-.62,.76-1.13Zm-4.04-1.99h4.05c-.05-.61-.21-1.07-.46-1.37-.39-.47-.9-.71-1.52-.71-.57,0-1.04,.19-1.42,.57-.39,.38-.6,.88-.64,1.52Z" style="fill:#1d1d1b;"/><path d="M831.36,213.32v-1.42h1.23v1.42h-1.23Zm0,8.61v-7.26h1.23v7.26h-1.23Z" style="fill:#1d1d1b;"/><path d="M837.15,220.83l.18,1.09c-.35,.07-.66,.11-.93,.11-.45,0-.79-.07-1.04-.21-.25-.14-.42-.33-.52-.56-.1-.23-.15-.71-.15-1.45v-4.18h-.9v-.96h.9v-1.8l1.22-.74v2.54h1.24v.96h-1.24v4.25c0,.35,.02,.58,.07,.68,.04,.1,.11,.18,.21,.24,.1,.06,.24,.09,.42,.09,.14,0,.32-.02,.54-.05Z" style="fill:#1d1d1b;"/><path d="M843.33,219.59l1.27,.16c-.2,.74-.57,1.32-1.11,1.73s-1.24,.62-2.08,.62c-1.06,0-1.9-.33-2.53-.98-.62-.65-.93-1.57-.93-2.75s.31-2.17,.94-2.84c.63-.67,1.44-1.01,2.45-1.01s1.76,.33,2.38,.99c.62,.66,.92,1.59,.92,2.79,0,.07,0,.18,0,.33h-5.41c.05,.8,.27,1.41,.68,1.83s.91,.64,1.52,.64c.45,0,.84-.12,1.16-.36,.32-.24,.57-.62,.76-1.13Zm-4.04-1.99h4.05c-.05-.61-.21-1.07-.46-1.37-.39-.47-.9-.71-1.52-.71-.57,0-1.04,.19-1.42,.57-.39,.38-.6,.88-.64,1.52Z" style="fill:#1d1d1b;"/><path d="M848.83,220.83l.18,1.09c-.35,.07-.66,.11-.93,.11-.45,0-.79-.07-1.04-.21-.25-.14-.42-.33-.52-.56-.1-.23-.15-.71-.15-1.45v-4.18h-.9v-.96h.9v-1.8l1.22-.74v2.54h1.24v.96h-1.24v4.25c0,.35,.02,.58,.07,.68,.04,.1,.11,.18,.21,.24,.1,.06,.24,.09,.42,.09,.14,0,.32-.02,.54-.05Z" style="fill:#1d1d1b;"/><path d="M850.38,221.93v-1.4h1.4v1.4h-1.4Z" style="fill:#1d1d1b;"/></g><g><path d="M136.02,83.04v-10.02h7.43v1.7h-5.41v2.22h5.03v1.69h-5.03v2.73h5.6v1.69h-7.62Z" style="fill:#2d509f;"/><path d="M145.34,74.79v-1.78h1.92v1.78h-1.92Zm0,8.24v-7.26h1.92v7.26h-1.92Z" style="fill:#2d509f;"/><path d="M155.84,83.04h-1.92v-3.71c0-.78-.04-1.29-.12-1.52-.08-.23-.21-.41-.4-.54-.18-.13-.41-.19-.67-.19-.33,0-.63,.09-.9,.27s-.45,.42-.54,.72c-.1,.3-.15,.86-.15,1.67v3.29h-1.92v-7.26h1.78v1.07c.63-.82,1.43-1.23,2.39-1.23,.42,0,.81,.08,1.16,.23,.35,.15,.62,.35,.8,.58,.18,.24,.3,.51,.38,.81,.07,.3,.11,.73,.11,1.29v4.51Z" style="fill:#2d509f;"/><path d="M161.66,83.04v-10.02h3.03l1.82,6.84,1.8-6.84h3.04v10.02h-1.88v-7.89l-1.99,7.89h-1.95l-1.98-7.89v7.89h-1.88Z" style="fill:#2d509f;"/><path d="M173.34,74.79v-1.78h1.92v1.78h-1.92Zm0,8.24v-7.26h1.92v7.26h-1.92Z" style="fill:#2d509f;"/><path d="M180.55,75.78v1.53h-1.31v2.93c0,.59,.01,.94,.04,1.04,.03,.1,.08,.18,.17,.24,.09,.06,.2,.1,.32,.1,.18,0,.44-.06,.77-.18l.16,1.49c-.45,.19-.95,.29-1.52,.29-.35,0-.66-.06-.94-.17-.28-.12-.48-.27-.61-.45-.13-.19-.22-.43-.27-.75-.04-.22-.06-.67-.06-1.35v-3.17h-.88v-1.53h.88v-1.44l1.93-1.12v2.56h1.31Z" style="fill:#2d509f;"/><path d="M183.32,77.99l-1.74-.31c.2-.7,.53-1.22,1.01-1.56s1.19-.51,2.13-.51c.86,0,1.5,.1,1.91,.3,.42,.2,.71,.46,.88,.77,.17,.31,.26,.89,.26,1.72l-.02,2.24c0,.64,.03,1.11,.09,1.41,.06,.3,.18,.63,.35,.97h-1.9c-.05-.13-.11-.32-.18-.57-.03-.11-.05-.19-.07-.23-.33,.32-.68,.56-1.05,.72s-.77,.24-1.2,.24c-.75,0-1.34-.2-1.77-.61-.43-.41-.65-.92-.65-1.54,0-.41,.1-.78,.29-1.1,.2-.32,.47-.57,.82-.74,.35-.17,.86-.32,1.53-.45,.9-.17,1.52-.33,1.87-.47v-.19c0-.37-.09-.63-.27-.79-.18-.16-.53-.24-1.03-.24-.34,0-.61,.07-.8,.2-.19,.13-.35,.37-.46,.71Zm2.57,1.56c-.25,.08-.64,.18-1.17,.29s-.88,.23-1.05,.33c-.25,.18-.38,.4-.38,.68s.1,.5,.3,.7,.46,.29,.77,.29c.35,0,.68-.11,.99-.34,.23-.17,.38-.38,.46-.64,.05-.16,.08-.48,.08-.94v-.38Z" style="fill:#2d509f;"/><path d="M191.51,83.04h-1.92v-7.26h1.78v1.03c.31-.49,.58-.81,.82-.96,.24-.16,.52-.23,.83-.23,.44,0,.86,.12,1.26,.36l-.59,1.67c-.32-.21-.62-.31-.9-.31s-.5,.07-.68,.22c-.19,.15-.33,.42-.44,.8-.11,.39-.16,1.2-.16,2.43v2.24Z" style="fill:#2d509f;"/><path d="M195.04,83.04v-10.02h1.92v3.61c.59-.67,1.29-1.01,2.11-1.01,.88,0,1.62,.32,2.19,.96,.58,.64,.87,1.56,.87,2.76s-.29,2.19-.88,2.86c-.59,.67-1.31,1-2.15,1-.42,0-.82-.1-1.23-.31-.4-.21-.75-.51-1.04-.92v1.07h-1.78Zm1.91-3.79c0,.75,.12,1.31,.36,1.67,.33,.51,.77,.77,1.33,.77,.42,0,.79-.18,1.08-.54,.3-.36,.45-.93,.45-1.71,0-.83-.15-1.43-.45-1.79-.3-.37-.69-.55-1.16-.55s-.84,.18-1.15,.54c-.31,.36-.46,.9-.46,1.63Z" style="fill:#2d509f;"/><path d="M207.88,80.73l1.91,.32c-.25,.7-.63,1.24-1.17,1.6-.53,.37-1.19,.55-1.99,.55-1.26,0-2.2-.41-2.8-1.24-.48-.66-.72-1.5-.72-2.5,0-1.2,.31-2.15,.94-2.83,.63-.68,1.42-1.02,2.39-1.02,1.08,0,1.93,.36,2.56,1.07,.62,.71,.92,1.81,.9,3.28h-4.81c.01,.57,.17,1.01,.46,1.33,.3,.32,.67,.47,1.11,.47,.3,0,.55-.08,.76-.25s.36-.43,.46-.79Zm.11-1.94c-.01-.56-.16-.98-.43-1.27-.27-.29-.61-.43-1-.43-.42,0-.77,.15-1.04,.46s-.41,.72-.4,1.24h2.87Z" style="fill:#2d509f;"/><path d="M211.46,74.79v-1.78h1.92v1.78h-1.92Zm0,8.24v-7.26h1.92v7.26h-1.92Z" style="fill:#2d509f;"/><path d="M218.68,75.78v1.53h-1.31v2.93c0,.59,.01,.94,.04,1.04,.03,.1,.08,.18,.17,.24,.09,.06,.2,.1,.32,.1,.18,0,.44-.06,.77-.18l.16,1.49c-.45,.19-.95,.29-1.52,.29-.35,0-.66-.06-.94-.17-.28-.12-.48-.27-.61-.45-.13-.19-.22-.43-.27-.75-.04-.22-.06-.67-.06-1.35v-3.17h-.88v-1.53h.88v-1.44l1.93-1.12v2.56h1.31Z" style="fill:#2d509f;"/><path d="M224.22,80.73l1.91,.32c-.25,.7-.63,1.24-1.17,1.6-.53,.37-1.19,.55-1.99,.55-1.26,0-2.2-.41-2.8-1.24-.48-.66-.72-1.5-.72-2.5,0-1.2,.31-2.15,.94-2.83,.63-.68,1.42-1.02,2.39-1.02,1.08,0,1.93,.36,2.56,1.07,.62,.71,.92,1.81,.9,3.28h-4.81c.01,.57,.17,1.01,.46,1.33,.3,.32,.67,.47,1.11,.47,.3,0,.55-.08,.76-.25s.36-.43,.46-.79Zm.11-1.94c-.01-.56-.16-.98-.43-1.27-.27-.29-.61-.43-1-.43-.42,0-.77,.15-1.04,.46s-.41,.72-.4,1.24h2.87Z" style="fill:#2d509f;"/><path d="M229.64,83.04h-1.92v-7.26h1.78v1.03c.31-.49,.58-.81,.82-.96,.24-.16,.52-.23,.83-.23,.44,0,.86,.12,1.26,.36l-.59,1.67c-.32-.21-.62-.31-.9-.31s-.5,.07-.68,.22c-.19,.15-.33,.42-.44,.8-.11,.39-.16,1.2-.16,2.43v2.24Z" style="fill:#2d509f;"/><path d="M237.14,83.04v-10.02h1.92v10.02h-1.92Z" style="fill:#2d509f;"/><path d="M245.23,80.73l1.91,.32c-.25,.7-.63,1.24-1.17,1.6-.53,.37-1.19,.55-1.99,.55-1.26,0-2.2-.41-2.8-1.24-.48-.66-.72-1.5-.72-2.5,0-1.2,.31-2.15,.94-2.83,.63-.68,1.42-1.02,2.39-1.02,1.08,0,1.93,.36,2.56,1.07,.62,.71,.92,1.81,.9,3.28h-4.81c.01,.57,.17,1.01,.46,1.33,.3,.32,.67,.47,1.11,.47,.3,0,.55-.08,.76-.25s.36-.43,.46-.79Zm.11-1.94c-.01-.56-.16-.98-.43-1.27-.27-.29-.61-.43-1-.43-.42,0-.77,.15-1.04,.46s-.41,.72-.4,1.24h2.87Z" style="fill:#2d509f;"/><path d="M248.81,74.79v-1.78h1.92v1.78h-1.92Zm0,8.24v-7.26h1.92v7.26h-1.92Z" style="fill:#2d509f;"/><path d="M256.03,75.78v1.53h-1.31v2.93c0,.59,.01,.94,.04,1.04,.03,.1,.08,.18,.17,.24,.09,.06,.2,.1,.32,.1,.18,0,.44-.06,.77-.18l.16,1.49c-.45,.19-.95,.29-1.52,.29-.35,0-.66-.06-.94-.17-.28-.12-.48-.27-.61-.45-.13-.19-.22-.43-.27-.75-.04-.22-.06-.67-.06-1.35v-3.17h-.88v-1.53h.88v-1.44l1.93-1.12v2.56h1.31Z" style="fill:#2d509f;"/><path d="M261.57,80.73l1.91,.32c-.25,.7-.63,1.24-1.17,1.6-.53,.37-1.19,.55-1.99,.55-1.26,0-2.2-.41-2.8-1.24-.48-.66-.72-1.5-.72-2.5,0-1.2,.31-2.15,.94-2.83,.63-.68,1.42-1.02,2.39-1.02,1.08,0,1.93,.36,2.56,1.07,.62,.71,.92,1.81,.9,3.28h-4.81c.01,.57,.17,1.01,.46,1.33,.3,.32,.67,.47,1.11,.47,.3,0,.55-.08,.76-.25s.36-.43,.46-.79Zm.11-1.94c-.01-.56-.16-.98-.43-1.27-.27-.29-.61-.43-1-.43-.42,0-.77,.15-1.04,.46s-.41,.72-.4,1.24h2.87Z" style="fill:#2d509f;"/><path d="M268.48,75.78v1.53h-1.31v2.93c0,.59,.01,.94,.04,1.04,.03,.1,.08,.18,.17,.24,.09,.06,.2,.1,.32,.1,.18,0,.44-.06,.77-.18l.16,1.49c-.45,.19-.95,.29-1.52,.29-.35,0-.66-.06-.94-.17-.28-.12-.48-.27-.61-.45-.13-.19-.22-.43-.27-.75-.04-.22-.06-.67-.06-1.35v-3.17h-.88v-1.53h.88v-1.44l1.93-1.12v2.56h1.31Z" style="fill:#2d509f;"/><path d="M277.91,80.73l1.91,.32c-.25,.7-.63,1.24-1.17,1.6-.53,.37-1.19,.55-1.99,.55-1.26,0-2.2-.41-2.8-1.24-.48-.66-.72-1.5-.72-2.5,0-1.2,.31-2.15,.94-2.83,.63-.68,1.42-1.02,2.39-1.02,1.08,0,1.93,.36,2.56,1.07,.62,.71,.92,1.81,.9,3.28h-4.81c.01,.57,.17,1.01,.46,1.33,.3,.32,.67,.47,1.11,.47,.3,0,.55-.08,.76-.25s.36-.43,.46-.79Zm.11-1.94c-.01-.56-.16-.98-.43-1.27-.27-.29-.61-.43-1-.43-.42,0-.77,.15-1.04,.46s-.41,.72-.4,1.24h2.87Z" style="fill:#2d509f;"/><path d="M288.09,83.04h-1.92v-3.71c0-.78-.04-1.29-.12-1.52-.08-.23-.21-.41-.4-.54-.18-.13-.41-.19-.67-.19-.33,0-.63,.09-.9,.27s-.45,.42-.54,.72c-.1,.3-.15,.86-.15,1.67v3.29h-1.92v-7.26h1.78v1.07c.63-.82,1.43-1.23,2.39-1.23,.42,0,.81,.08,1.16,.23,.35,.15,.62,.35,.8,.58,.18,.24,.3,.51,.38,.81,.07,.3,.11,.73,.11,1.29v4.51Z" style="fill:#2d509f;"/><path d="M293.37,75.78v1.53h-1.31v2.93c0,.59,.01,.94,.04,1.04,.03,.1,.08,.18,.17,.24,.09,.06,.2,.1,.32,.1,.18,0,.44-.06,.77-.18l.16,1.49c-.45,.19-.95,.29-1.52,.29-.35,0-.66-.06-.94-.17-.28-.12-.48-.27-.61-.45-.13-.19-.22-.43-.27-.75-.04-.22-.06-.67-.06-1.35v-3.17h-.88v-1.53h.88v-1.44l1.93-1.12v2.56h1.31Z" style="fill:#2d509f;"/><path d="M296.05,83.04l-2.3-7.26h1.87l1.36,4.76,1.25-4.76h1.85l1.21,4.76,1.39-4.76h1.89l-2.33,7.26h-1.85l-1.25-4.67-1.23,4.67h-1.87Z" style="fill:#2d509f;"/><path d="M309.79,80.73l1.91,.32c-.25,.7-.63,1.24-1.17,1.6-.53,.37-1.19,.55-1.99,.55-1.26,0-2.2-.41-2.8-1.24-.48-.66-.72-1.5-.72-2.5,0-1.2,.31-2.15,.94-2.83,.63-.68,1.42-1.02,2.39-1.02,1.08,0,1.93,.36,2.56,1.07,.62,.71,.92,1.81,.9,3.28h-4.81c.01,.57,.17,1.01,.46,1.33,.3,.32,.67,.47,1.11,.47,.3,0,.55-.08,.76-.25s.36-.43,.46-.79Zm.11-1.94c-.01-.56-.16-.98-.43-1.27-.27-.29-.61-.43-1-.43-.42,0-.77,.15-1.04,.46s-.41,.72-.4,1.24h2.87Z" style="fill:#2d509f;"/><path d="M320.04,83.04h-1.78v-1.07c-.3,.42-.65,.72-1.05,.93-.4,.2-.81,.3-1.22,.3-.83,0-1.55-.34-2.14-1.01-.6-.67-.89-1.61-.89-2.81s.29-2.17,.87-2.81c.58-.64,1.31-.96,2.19-.96,.81,0,1.51,.34,2.11,1.01v-3.61h1.92v10.02Zm-5.13-3.79c0,.77,.11,1.33,.32,1.68,.31,.5,.74,.75,1.3,.75,.44,0,.82-.19,1.13-.56,.31-.38,.46-.94,.46-1.68,0-.83-.15-1.43-.45-1.8-.3-.37-.69-.55-1.16-.55s-.84,.18-1.14,.54c-.31,.36-.46,.9-.46,1.62Z" style="fill:#2d509f;"/><path d="M326.13,80.73l1.91,.32c-.25,.7-.63,1.24-1.17,1.6-.53,.37-1.19,.55-1.99,.55-1.26,0-2.2-.41-2.8-1.24-.48-.66-.72-1.5-.72-2.5,0-1.2,.31-2.15,.94-2.83,.63-.68,1.42-1.02,2.39-1.02,1.08,0,1.93,.36,2.56,1.07,.62,.71,.92,1.81,.9,3.28h-4.81c.01,.57,.17,1.01,.46,1.33,.3,.32,.67,.47,1.11,.47,.3,0,.55-.08,.76-.25s.36-.43,.46-.79Zm.11-1.94c-.01-.56-.16-.98-.43-1.27-.27-.29-.61-.43-1-.43-.42,0-.77,.15-1.04,.46s-.41,.72-.4,1.24h2.87Z" style="fill:#2d509f;"/><path d="M331.55,83.04h-1.92v-7.26h1.78v1.03c.31-.49,.58-.81,.82-.96,.24-.16,.52-.23,.83-.23,.44,0,.86,.12,1.26,.36l-.59,1.67c-.32-.21-.62-.31-.9-.31s-.5,.07-.68,.22c-.19,.15-.33,.42-.44,.8-.11,.39-.16,1.2-.16,2.43v2.24Z" style="fill:#2d509f;"/><path d="M338.98,83.04v-10.02h1.92v5.32l2.25-2.56h2.37l-2.48,2.65,2.66,4.61h-2.07l-1.83-3.26-.9,.94v2.32h-1.92Z" style="fill:#2d509f;"/><path d="M351.04,80.73l1.91,.32c-.25,.7-.63,1.24-1.17,1.6-.53,.37-1.19,.55-1.99,.55-1.26,0-2.2-.41-2.8-1.24-.48-.66-.72-1.5-.72-2.5,0-1.2,.31-2.15,.94-2.83,.63-.68,1.42-1.02,2.39-1.02,1.08,0,1.93,.36,2.56,1.07,.62,.71,.92,1.81,.9,3.28h-4.81c.01,.57,.17,1.01,.46,1.33,.3,.32,.67,.47,1.11,.47,.3,0,.55-.08,.76-.25s.36-.43,.46-.79Zm.11-1.94c-.01-.56-.16-.98-.43-1.27-.27-.29-.61-.43-1-.43-.42,0-.77,.15-1.04,.46s-.41,.72-.4,1.24h2.87Z" style="fill:#2d509f;"/><path d="M354.62,74.79v-1.78h1.92v1.78h-1.92Zm0,8.24v-7.26h1.92v7.26h-1.92Z" style="fill:#2d509f;"/><path d="M365.12,83.04h-1.92v-3.71c0-.78-.04-1.29-.12-1.52-.08-.23-.21-.41-.4-.54-.18-.13-.41-.19-.67-.19-.33,0-.63,.09-.9,.27s-.45,.42-.54,.72c-.1,.3-.15,.86-.15,1.67v3.29h-1.92v-7.26h1.78v1.07c.63-.82,1.43-1.23,2.39-1.23,.42,0,.81,.08,1.16,.23,.35,.15,.62,.35,.8,.58,.18,.24,.3,.51,.38,.81,.07,.3,.11,.73,.11,1.29v4.51Z" style="fill:#2d509f;"/><path d="M371.27,80.73l1.91,.32c-.25,.7-.63,1.24-1.17,1.6-.53,.37-1.19,.55-1.99,.55-1.26,0-2.2-.41-2.8-1.24-.48-.66-.72-1.5-.72-2.5,0-1.2,.31-2.15,.94-2.83,.63-.68,1.42-1.02,2.39-1.02,1.08,0,1.93,.36,2.56,1.07,.62,.71,.92,1.81,.9,3.28h-4.81c.01,.57,.17,1.01,.46,1.33,.3,.32,.67,.47,1.11,.47,.3,0,.55-.08,.76-.25s.36-.43,.46-.79Zm.11-1.94c-.01-.56-.16-.98-.43-1.27-.27-.29-.61-.43-1-.43-.42,0-.77,.15-1.04,.46s-.41,.72-.4,1.24h2.87Z" style="fill:#2d509f;"/><path d="M374.18,80.96l1.93-.29c.08,.37,.25,.66,.5,.85,.25,.19,.6,.29,1.05,.29,.5,0,.87-.09,1.12-.27,.17-.13,.25-.3,.25-.51,0-.15-.05-.27-.14-.36-.1-.09-.31-.18-.64-.25-1.55-.34-2.53-.65-2.95-.94-.57-.39-.86-.94-.86-1.63,0-.63,.25-1.16,.75-1.59s1.27-.64,2.31-.64,1.73,.16,2.21,.49,.82,.8,1,1.44l-1.81,.33c-.08-.28-.22-.5-.44-.65-.22-.15-.53-.23-.93-.23-.51,0-.87,.07-1.09,.21-.15,.1-.22,.23-.22,.39,0,.14,.06,.25,.19,.35,.17,.13,.77,.31,1.79,.54,1.02,.23,1.74,.52,2.14,.85,.4,.34,.6,.82,.6,1.43,0,.67-.28,1.24-.83,1.72s-1.38,.72-2.47,.72c-.99,0-1.77-.2-2.35-.6-.58-.4-.95-.95-1.13-1.63Z" style="fill:#2d509f;"/><path d="M386.08,79.3c0-.64,.16-1.26,.47-1.85s.76-1.05,1.34-1.37c.58-.31,1.22-.47,1.93-.47,1.1,0,2,.36,2.7,1.07,.7,.71,1.05,1.61,1.05,2.7s-.35,2.01-1.06,2.73c-.71,.72-1.6,1.08-2.68,1.08-.67,0-1.3-.15-1.9-.45-.6-.3-1.06-.74-1.38-1.32-.31-.58-.47-1.29-.47-2.12Zm1.97,.1c0,.72,.17,1.27,.51,1.65s.76,.57,1.26,.57,.92-.19,1.26-.57c.34-.38,.51-.94,.51-1.67s-.17-1.26-.51-1.64c-.34-.38-.76-.57-1.26-.57s-.92,.19-1.26,.57-.51,.93-.51,1.65Z" style="fill:#2d509f;"/><path d="M401.74,83.04h-1.78v-1.07c-.3,.42-.65,.72-1.05,.93-.4,.2-.81,.3-1.22,.3-.83,0-1.55-.34-2.14-1.01-.6-.67-.89-1.61-.89-2.81s.29-2.17,.87-2.81c.58-.64,1.31-.96,2.19-.96,.81,0,1.51,.34,2.11,1.01v-3.61h1.92v10.02Zm-5.13-3.79c0,.77,.11,1.33,.32,1.68,.31,.5,.74,.75,1.3,.75,.44,0,.82-.19,1.13-.56,.31-.38,.46-.94,.46-1.68,0-.83-.15-1.43-.45-1.8-.3-.37-.69-.55-1.16-.55s-.84,.18-1.14,.54c-.31,.36-.46,.9-.46,1.62Z" style="fill:#2d509f;"/><path d="M407.84,80.73l1.91,.32c-.25,.7-.63,1.24-1.17,1.6-.53,.37-1.19,.55-1.99,.55-1.26,0-2.2-.41-2.8-1.24-.48-.66-.72-1.5-.72-2.5,0-1.2,.31-2.15,.94-2.83,.63-.68,1.42-1.02,2.39-1.02,1.08,0,1.93,.36,2.56,1.07,.62,.71,.92,1.81,.9,3.28h-4.81c.01,.57,.17,1.01,.46,1.33,.3,.32,.67,.47,1.11,.47,.3,0,.55-.08,.76-.25s.36-.43,.46-.79Zm.11-1.94c-.01-.56-.16-.98-.43-1.27-.27-.29-.61-.43-1-.43-.42,0-.77,.15-1.04,.46s-.41,.72-.4,1.24h2.87Z" style="fill:#2d509f;"/><path d="M413.26,83.04h-1.92v-7.26h1.78v1.03c.31-.49,.58-.81,.82-.96,.24-.16,.52-.23,.83-.23,.44,0,.86,.12,1.26,.36l-.59,1.67c-.32-.21-.62-.31-.9-.31s-.5,.07-.68,.22c-.19,.15-.33,.42-.44,.8-.11,.39-.16,1.2-.16,2.43v2.24Z" style="fill:#2d509f;"/><path d="M425.53,83.04v-1.09c-.26,.39-.61,.69-1.04,.92-.43,.22-.88,.33-1.36,.33s-.92-.11-1.31-.32-.67-.51-.84-.9-.26-.92-.26-1.61v-4.59h1.92v3.34c0,1.02,.04,1.65,.11,1.88,.07,.23,.2,.41,.39,.55,.19,.13,.42,.2,.71,.2,.33,0,.62-.09,.88-.27,.26-.18,.44-.4,.53-.67,.1-.27,.14-.92,.14-1.96v-3.06h1.92v7.26h-1.78Z" style="fill:#2d509f;"/><path d="M435.91,83.04h-1.92v-3.71c0-.78-.04-1.29-.12-1.52-.08-.23-.21-.41-.4-.54-.18-.13-.41-.19-.67-.19-.33,0-.63,.09-.9,.27s-.45,.42-.54,.72c-.1,.3-.15,.86-.15,1.67v3.29h-1.92v-7.26h1.78v1.07c.63-.82,1.43-1.23,2.39-1.23,.42,0,.81,.08,1.16,.23,.35,.15,.62,.35,.8,.58,.18,.24,.3,.51,.38,.81,.07,.3,.11,.73,.11,1.29v4.51Z" style="fill:#2d509f;"/><path d="M442.06,80.73l1.91,.32c-.25,.7-.63,1.24-1.17,1.6-.53,.37-1.19,.55-1.99,.55-1.26,0-2.2-.41-2.8-1.24-.48-.66-.72-1.5-.72-2.5,0-1.2,.31-2.15,.94-2.83,.63-.68,1.42-1.02,2.39-1.02,1.08,0,1.93,.36,2.56,1.07,.62,.71,.92,1.81,.9,3.28h-4.81c.01,.57,.17,1.01,.46,1.33,.3,.32,.67,.47,1.11,.47,.3,0,.55-.08,.76-.25s.36-.43,.46-.79Zm.11-1.94c-.01-.56-.16-.98-.43-1.27-.27-.29-.61-.43-1-.43-.42,0-.77,.15-1.04,.46s-.41,.72-.4,1.24h2.87Z" style="fill:#2d509f;"/><path d="M452.25,83.04h-1.92v-3.71c0-.78-.04-1.29-.12-1.52-.08-.23-.21-.41-.4-.54-.18-.13-.41-.19-.67-.19-.33,0-.63,.09-.9,.27s-.45,.42-.54,.72c-.1,.3-.15,.86-.15,1.67v3.29h-1.92v-7.26h1.78v1.07c.63-.82,1.43-1.23,2.39-1.23,.42,0,.81,.08,1.16,.23,.35,.15,.62,.35,.8,.58,.18,.24,.3,.51,.38,.81,.07,.3,.11,.73,.11,1.29v4.51Z" style="fill:#2d509f;"/><path d="M460.86,83.04h-1.78v-1.07c-.3,.42-.65,.72-1.05,.93-.4,.2-.81,.3-1.22,.3-.83,0-1.55-.34-2.14-1.01-.6-.67-.89-1.61-.89-2.81s.29-2.17,.87-2.81c.58-.64,1.31-.96,2.19-.96,.81,0,1.51,.34,2.11,1.01v-3.61h1.92v10.02Zm-5.13-3.79c0,.77,.11,1.33,.32,1.68,.31,.5,.74,.75,1.3,.75,.44,0,.82-.19,1.13-.56,.31-.38,.46-.94,.46-1.68,0-.83-.15-1.43-.45-1.8-.3-.37-.69-.55-1.16-.55s-.84,.18-1.14,.54c-.31,.36-.46,.9-.46,1.62Z" style="fill:#2d509f;"/><path d="M462.75,83.04v-10.02h1.92v10.02h-1.92Z" style="fill:#2d509f;"/><path d="M466.64,74.79v-1.78h1.92v1.78h-1.92Zm0,8.24v-7.26h1.92v7.26h-1.92Z" style="fill:#2d509f;"/><path d="M476.86,77.92l-1.89,.34c-.06-.38-.21-.66-.43-.85-.23-.19-.52-.29-.88-.29-.48,0-.86,.17-1.14,.5-.29,.33-.43,.88-.43,1.66,0,.86,.14,1.47,.43,1.83,.29,.36,.68,.53,1.17,.53,.36,0,.66-.1,.9-.31,.23-.21,.4-.56,.49-1.07l1.89,.32c-.2,.87-.57,1.52-1.13,1.96s-1.3,.66-2.24,.66c-1.06,0-1.91-.33-2.54-1-.63-.67-.95-1.6-.95-2.78s.32-2.13,.95-2.8c.63-.67,1.49-1,2.57-1,.88,0,1.59,.19,2.11,.57,.52,.38,.9,.96,1.12,1.74Z" style="fill:#2d509f;"/><path d="M480.23,73.01v3.68c.62-.72,1.36-1.09,2.22-1.09,.44,0,.84,.08,1.2,.25s.62,.37,.8,.63c.18,.25,.3,.54,.37,.85,.07,.31,.1,.79,.1,1.44v4.26h-1.92v-3.83c0-.76-.04-1.24-.11-1.45s-.2-.37-.39-.49c-.18-.12-.42-.18-.69-.18-.32,0-.6,.08-.85,.23s-.43,.39-.55,.7c-.12,.31-.17,.77-.17,1.38v3.64h-1.92v-10.02h1.92Z" style="fill:#2d509f;"/><path d="M492.75,83.04l-2.93-7.26h2.02l1.37,3.71,.4,1.24c.1-.31,.17-.52,.2-.62,.06-.21,.13-.41,.21-.62l1.38-3.71h1.98l-2.88,7.26h-1.73Z" style="fill:#2d509f;"/><path d="M498.54,74.79v-1.78h1.92v1.78h-1.92Zm0,8.24v-7.26h1.92v7.26h-1.92Z" style="fill:#2d509f;"/><path d="M506.64,80.73l1.91,.32c-.25,.7-.63,1.24-1.17,1.6-.53,.37-1.19,.55-1.99,.55-1.26,0-2.2-.41-2.8-1.24-.48-.66-.72-1.5-.72-2.5,0-1.2,.31-2.15,.94-2.83,.63-.68,1.42-1.02,2.39-1.02,1.08,0,1.93,.36,2.56,1.07,.62,.71,.92,1.81,.9,3.28h-4.81c.01,.57,.17,1.01,.46,1.33,.3,.32,.67,.47,1.11,.47,.3,0,.55-.08,.76-.25s.36-.43,.46-.79Zm.11-1.94c-.01-.56-.16-.98-.43-1.27-.27-.29-.61-.43-1-.43-.42,0-.77,.15-1.04,.46s-.41,.72-.4,1.24h2.87Z" style="fill:#2d509f;"/><path d="M510.22,83.04v-10.02h1.92v10.02h-1.92Z" style="fill:#2d509f;"/><path d="M518.31,80.73l1.91,.32c-.25,.7-.63,1.24-1.17,1.6-.53,.37-1.19,.55-1.99,.55-1.26,0-2.2-.41-2.8-1.24-.48-.66-.72-1.5-.72-2.5,0-1.2,.31-2.15,.94-2.83,.63-.68,1.42-1.02,2.39-1.02,1.08,0,1.93,.36,2.56,1.07,.62,.71,.92,1.81,.9,3.28h-4.81c.01,.57,.17,1.01,.46,1.33,.3,.32,.67,.47,1.11,.47,.3,0,.55-.08,.76-.25s.36-.43,.46-.79Zm.11-1.94c-.01-.56-.16-.98-.43-1.27-.27-.29-.61-.43-1-.43-.42,0-.77,.15-1.04,.46s-.41,.72-.4,1.24h2.87Z" style="fill:#2d509f;"/><path d="M525.8,83.04v-10.02h3.25c1.23,0,2.03,.05,2.41,.15,.57,.15,1.05,.48,1.44,.98,.39,.5,.58,1.15,.58,1.95,0,.62-.11,1.13-.33,1.55s-.51,.75-.85,.99c-.34,.24-.69,.4-1.05,.47-.48,.1-1.18,.14-2.1,.14h-1.32v3.78h-2.02Zm2.02-8.33v2.84h1.11c.8,0,1.33-.05,1.6-.16s.48-.27,.63-.49c.15-.22,.23-.48,.23-.78,0-.36-.11-.67-.32-.9s-.49-.38-.81-.44c-.24-.05-.73-.07-1.46-.07h-.98Z" style="fill:#2d509f;"/><path d="M536.96,83.04h-1.92v-7.26h1.78v1.03c.31-.49,.58-.81,.82-.96,.24-.16,.52-.23,.83-.23,.44,0,.86,.12,1.26,.36l-.59,1.67c-.32-.21-.62-.31-.9-.31s-.5,.07-.68,.22c-.19,.15-.33,.42-.44,.8-.11,.39-.16,1.2-.16,2.43v2.24Z" style="fill:#2d509f;"/><path d="M540.12,79.3c0-.64,.16-1.26,.47-1.85s.76-1.05,1.34-1.37c.58-.31,1.22-.47,1.93-.47,1.1,0,2,.36,2.7,1.07,.7,.71,1.05,1.61,1.05,2.7s-.35,2.01-1.06,2.73c-.71,.72-1.6,1.08-2.68,1.08-.67,0-1.3-.15-1.9-.45-.6-.3-1.06-.74-1.38-1.32-.31-.58-.47-1.29-.47-2.12Zm1.97,.1c0,.72,.17,1.27,.51,1.65s.76,.57,1.26,.57,.92-.19,1.26-.57c.34-.38,.51-.94,.51-1.67s-.17-1.26-.51-1.64c-.34-.38-.76-.57-1.26-.57s-.92,.19-1.26,.57-.51,.93-.51,1.65Z" style="fill:#2d509f;"/><path d="M551,75.78v7.03c0,.92-.06,1.58-.18,1.96-.12,.38-.35,.68-.7,.89-.34,.21-.78,.32-1.32,.32-.19,0-.4-.02-.62-.05-.22-.03-.46-.08-.71-.15l.33-1.64c.09,.02,.18,.03,.26,.04,.08,.01,.15,.02,.22,.02,.2,0,.36-.04,.48-.13,.13-.08,.21-.19,.25-.3s.06-.47,.06-1.07v-6.92h1.92Zm-1.92-.98v-1.78h1.92v1.78h-1.92Z" style="fill:#2d509f;"/><path d="M557.21,80.73l1.91,.32c-.25,.7-.63,1.24-1.17,1.6-.53,.37-1.19,.55-1.99,.55-1.26,0-2.2-.41-2.8-1.24-.48-.66-.72-1.5-.72-2.5,0-1.2,.31-2.15,.94-2.83,.63-.68,1.42-1.02,2.39-1.02,1.08,0,1.93,.36,2.56,1.07,.62,.71,.92,1.81,.9,3.28h-4.81c.01,.57,.17,1.01,.46,1.33,.3,.32,.67,.47,1.11,.47,.3,0,.55-.08,.76-.25s.36-.43,.46-.79Zm.11-1.94c-.01-.56-.16-.98-.43-1.27-.27-.29-.61-.43-1-.43-.42,0-.77,.15-1.04,.46s-.41,.72-.4,1.24h2.87Z" style="fill:#2d509f;"/><path d="M560.73,83.04v-10.02h1.92v5.32l2.25-2.56h2.37l-2.48,2.65,2.66,4.61h-2.07l-1.83-3.26-.9,.94v2.32h-1.92Z" style="fill:#2d509f;"/><path d="M571.91,75.78v1.53h-1.31v2.93c0,.59,.01,.94,.04,1.04,.03,.1,.08,.18,.17,.24,.09,.06,.2,.1,.32,.1,.18,0,.44-.06,.77-.18l.16,1.49c-.45,.19-.95,.29-1.52,.29-.35,0-.66-.06-.94-.17-.28-.12-.48-.27-.61-.45-.13-.19-.22-.43-.27-.75-.04-.22-.06-.67-.06-1.35v-3.17h-.88v-1.53h.88v-1.44l1.93-1.12v2.56h1.31Z" style="fill:#2d509f;"/><path d="M577.45,80.73l1.91,.32c-.25,.7-.63,1.24-1.17,1.6-.53,.37-1.19,.55-1.99,.55-1.26,0-2.2-.41-2.8-1.24-.48-.66-.72-1.5-.72-2.5,0-1.2,.31-2.15,.94-2.83,.63-.68,1.42-1.02,2.39-1.02,1.08,0,1.93,.36,2.56,1.07,.62,.71,.92,1.81,.9,3.28h-4.81c.01,.57,.17,1.01,.46,1.33,.3,.32,.67,.47,1.11,.47,.3,0,.55-.08,.76-.25s.36-.43,.46-.79Zm.11-1.94c-.01-.56-.16-.98-.43-1.27-.27-.29-.61-.43-1-.43-.42,0-.77,.15-1.04,.46s-.41,.72-.4,1.24h2.87Z" style="fill:#2d509f;"/><path d="M581.03,83.04v-1.92h1.92v1.92h-1.92Z" style="fill:#2d509f;"/></g><circle cx="359.17" cy="133.27" r="9.94" style="fill:#2d509f;"/><path d="M357,133.72l1.2-.15c.04,.3,.14,.54,.31,.7,.17,.16,.37,.24,.61,.24,.26,0,.47-.1,.64-.29,.17-.19,.26-.45,.26-.78,0-.31-.08-.56-.25-.74s-.37-.27-.61-.27c-.16,0-.35,.03-.57,.09l.14-1.01c.33,0,.59-.06,.77-.22s.26-.36,.26-.61c0-.22-.07-.39-.19-.52-.13-.13-.3-.19-.51-.19s-.39,.07-.54,.22c-.15,.15-.24,.36-.27,.64l-1.14-.19c.08-.39,.2-.7,.36-.94,.16-.23,.38-.42,.67-.55,.29-.13,.61-.2,.96-.2,.61,0,1.09,.19,1.46,.58,.3,.32,.45,.67,.45,1.07,0,.56-.31,1.02-.93,1.35,.37,.08,.66,.26,.89,.53,.22,.28,.33,.61,.33,1,0,.56-.21,1.05-.62,1.45s-.93,.6-1.54,.6-1.07-.17-1.45-.5c-.38-.33-.61-.77-.67-1.31Z" style="fill:#fff;"/><circle cx="767" cy="113.39" r="9.94" style="fill:#2d509f;"/><path d="M767.3,115.56v-1.3h-2.64v-1.08l2.79-4.09h1.04v4.09h.8v1.09h-.8v1.3h-1.2Zm0-2.38v-2.2l-1.48,2.2h1.48Z" style="fill:#fff;"/><circle cx="488.33" cy="123.33" r="9.94" style="fill:#2d509f;"/><path d="M490.38,124.35v1.15h-4.33c.05-.43,.19-.85,.42-1.23,.23-.39,.7-.9,1.39-1.54,.56-.52,.9-.87,1.02-1.05,.17-.26,.25-.51,.25-.76,0-.28-.07-.49-.22-.63-.15-.15-.35-.22-.61-.22s-.46,.08-.62,.23c-.15,.16-.24,.41-.26,.77l-1.23-.12c.07-.68,.3-1.17,.69-1.46,.39-.29,.87-.44,1.45-.44,.63,0,1.13,.17,1.5,.51,.36,.34,.54,.77,.54,1.28,0,.29-.05,.57-.16,.83-.1,.26-.27,.54-.49,.82-.15,.19-.42,.46-.81,.82s-.64,.59-.74,.71c-.1,.12-.19,.23-.25,.34h2.45Z" style="fill:#fff;"/></g></svg>