<?xml version="1.0" encoding="UTF-8"?>
<svg id="Ebene_1" data-name="Ebene 1" xmlns="http://www.w3.org/2000/svg" viewBox="0 0 1180 700">
  <defs>
    <style>
      .cls-1 {
        stroke-dasharray: 0 0 4 4;
      }

      .cls-1, .cls-2 {
        fill: none;
        stroke: #000;
        stroke-miterlimit: 10;
      }

      .cls-3 {
        font-size: 26px;
      }

      .cls-3, .cls-4 {
        font-family: Arial-BoldMT, Arial;
        font-weight: 700;
      }

      .cls-5 {
        letter-spacing: -.04em;
      }

      .cls-6 {
        font-family: ArialMT, Arial;
        font-size: 16px;
      }

      .cls-4 {
        fill: #fff;
        font-size: 12px;
      }

      .cls-7, .cls-8, .cls-9, .cls-10 {
        stroke-width: 0px;
      }

      .cls-8 {
        fill: #4d78ff;
      }

      .cls-9 {
        fill: #99b1ff;
      }

      .cls-10 {
        fill: #0333ff;
      }
    </style>
  </defs>
  <g>
    <path class="cls-7" d="M38.21,605.45c0-1.9.51-3.39,1.53-4.46s2.34-1.61,3.95-1.61c1.06,0,2.01.25,2.86.76s1.5,1.21,1.94,2.11.67,1.93.67,3.07-.23,2.2-.7,3.12-1.13,1.61-1.99,2.08-1.79.71-2.78.71c-1.08,0-2.04-.26-2.89-.78s-1.49-1.23-1.93-2.13-.66-1.85-.66-2.86ZM39.77,605.47c0,1.38.37,2.47,1.11,3.26s1.67,1.19,2.79,1.19,2.08-.4,2.82-1.2,1.11-1.94,1.11-3.41c0-.93-.16-1.75-.47-2.44s-.78-1.23-1.38-1.62-1.29-.57-2.04-.57c-1.07,0-2,.37-2.77,1.11s-1.16,1.97-1.16,3.69Z"/>
    <path class="cls-7" d="M51.27,611.03v-7.2h-1.24v-1.09h1.24v-.88c0-.56.05-.97.15-1.24.14-.36.37-.66.71-.89s.82-.34,1.43-.34c.4,0,.83.05,1.31.14l-.21,1.23c-.29-.05-.57-.08-.83-.08-.43,0-.73.09-.91.27s-.27.52-.27,1.02v.77h1.62v1.09h-1.62v7.2h-1.4Z"/>
    <path class="cls-7" d="M55.42,611.03v-7.2h-1.24v-1.09h1.24v-.88c0-.56.05-.97.15-1.24.14-.36.37-.66.71-.89s.82-.34,1.43-.34c.4,0,.83.05,1.31.14l-.21,1.23c-.29-.05-.57-.08-.83-.08-.43,0-.73.09-.91.27s-.27.52-.27,1.02v.77h1.62v1.09h-1.62v7.2h-1.4Z"/>
    <path class="cls-7" d="M59.54,601.19v-1.62h1.41v1.62h-1.41ZM59.54,611.03v-8.3h1.41v8.3h-1.41Z"/>
    <path class="cls-7" d="M68.5,607.99l1.38.18c-.15.95-.54,1.7-1.16,2.24s-1.39.81-2.29.81c-1.14,0-2.05-.37-2.74-1.11s-1.04-1.81-1.04-3.19c0-.9.15-1.68.45-2.35s.75-1.18,1.36-1.51,1.27-.5,1.98-.5c.9,0,1.64.23,2.21.68s.94,1.1,1.1,1.94l-1.37.21c-.13-.56-.36-.98-.69-1.26s-.73-.42-1.2-.42c-.71,0-1.28.25-1.73.76s-.66,1.31-.66,2.41.21,1.92.64,2.43.98.76,1.67.76c.55,0,1.01-.17,1.38-.51s.6-.86.7-1.56Z"/>
    <path class="cls-7" d="M76.77,608.35l1.45.18c-.23.85-.65,1.51-1.27,1.98s-1.41.7-2.38.7c-1.21,0-2.18-.37-2.89-1.12s-1.07-1.8-1.07-3.14.36-2.48,1.08-3.25,1.65-1.16,2.8-1.16,2.02.38,2.72,1.13,1.05,1.82,1.05,3.19c0,.08,0,.21,0,.38h-6.19c.05.91.31,1.61.77,2.09s1.04.73,1.73.73c.52,0,.96-.14,1.32-.41s.65-.7.87-1.3ZM72.15,606.08h4.63c-.06-.7-.24-1.22-.53-1.57-.45-.54-1.03-.81-1.74-.81-.65,0-1.19.22-1.63.65s-.68,1.01-.73,1.73Z"/>
    <path class="cls-7" d="M89.85,610c-.52.44-1.02.75-1.5.94s-1,.27-1.55.27c-.91,0-1.61-.22-2.1-.67s-.73-1.01-.73-1.71c0-.41.09-.78.28-1.11s.43-.61.73-.81.64-.36,1.01-.46c.28-.07.69-.14,1.25-.21,1.14-.14,1.97-.3,2.51-.48,0-.19,0-.32,0-.37,0-.57-.13-.98-.4-1.21-.36-.32-.89-.48-1.6-.48-.66,0-1.15.12-1.46.35s-.55.64-.7,1.23l-1.38-.19c.12-.59.33-1.06.62-1.43s.7-.64,1.24-.84,1.17-.29,1.88-.29,1.28.08,1.73.25.77.38.98.63.35.57.44.96c.05.24.07.67.07,1.3v1.88c0,1.31.03,2.13.09,2.48s.18.68.36,1h-1.47c-.15-.29-.24-.63-.28-1.02ZM89.73,606.86c-.51.21-1.28.39-2.3.53-.58.08-.99.18-1.23.28s-.42.26-.55.46-.2.42-.2.67c0,.38.14.69.43.94s.7.38,1.25.38,1.02-.12,1.45-.36.73-.56.93-.97c.15-.32.23-.79.23-1.41v-.52Z"/>
    <path class="cls-7" d="M93.33,611.03v-8.3h1.27v1.18c.61-.91,1.49-1.37,2.64-1.37.5,0,.96.09,1.38.27s.73.42.94.71.35.64.44,1.04c.05.26.08.72.08,1.37v5.1h-1.41v-5.05c0-.57-.05-1-.16-1.29s-.3-.51-.58-.68-.61-.25-.98-.25c-.6,0-1.12.19-1.55.57s-.65,1.1-.65,2.16v4.53h-1.41Z"/>
    <path class="cls-7" d="M107.61,611.03v-1.05c-.53.82-1.3,1.23-2.32,1.23-.66,0-1.27-.18-1.82-.55s-.98-.87-1.29-1.53-.46-1.41-.46-2.25.14-1.58.41-2.25.69-1.19,1.24-1.55,1.17-.54,1.85-.54c.5,0,.95.11,1.34.32s.71.49.95.82v-4.11h1.4v11.45h-1.3ZM103.17,606.89c0,1.06.22,1.86.67,2.38s.98.79,1.59.79,1.14-.25,1.57-.75.64-1.27.64-2.3c0-1.14-.22-1.97-.66-2.5s-.98-.8-1.62-.8-1.15.25-1.57.77-.63,1.32-.63,2.41Z"/>
    <path class="cls-7" d="M23.49,630.23l4.4-11.45h1.63l4.69,11.45h-1.73l-1.34-3.47h-4.79l-1.26,3.47h-1.61ZM26.79,625.52h3.88l-1.2-3.17c-.36-.96-.64-1.75-.81-2.38-.15.73-.35,1.46-.62,2.19l-1.26,3.36Z"/>
    <path class="cls-7" d="M40.62,630.23v-1.05c-.53.82-1.3,1.23-2.32,1.23-.66,0-1.27-.18-1.82-.55s-.98-.87-1.29-1.53-.46-1.41-.46-2.25.14-1.58.41-2.25.69-1.19,1.24-1.55,1.17-.54,1.85-.54c.5,0,.95.11,1.34.32s.71.49.95.82v-4.11h1.4v11.45h-1.3ZM36.18,626.09c0,1.06.22,1.86.67,2.38s.98.79,1.59.79,1.14-.25,1.57-.75.64-1.27.64-2.3c0-1.14-.22-1.97-.66-2.5s-.98-.8-1.62-.8-1.15.25-1.57.77-.63,1.32-.63,2.41Z"/>
    <path class="cls-7" d="M44.14,630.23v-8.3h1.26v1.16c.26-.41.61-.73,1.04-.98s.92-.37,1.48-.37c.61,0,1.12.13,1.51.38s.67.61.83,1.07c.66-.97,1.51-1.45,2.56-1.45.82,0,1.46.23,1.9.68s.66,1.16.66,2.11v5.7h-1.4v-5.23c0-.56-.05-.97-.14-1.21s-.26-.45-.5-.6-.52-.23-.84-.23c-.58,0-1.07.19-1.45.58s-.58,1.01-.58,1.86v4.82h-1.41v-5.39c0-.62-.11-1.09-.34-1.41s-.6-.47-1.12-.47c-.4,0-.76.1-1.1.31s-.58.51-.73.91-.23.98-.23,1.73v4.3h-1.41Z"/>
    <path class="cls-7" d="M57.47,620.39v-1.62h1.41v1.62h-1.41ZM57.47,630.23v-8.3h1.41v8.3h-1.41Z"/>
    <path class="cls-7" d="M61.02,630.23v-8.3h1.27v1.18c.61-.91,1.49-1.37,2.64-1.37.5,0,.96.09,1.38.27s.73.42.94.71.35.64.44,1.04c.05.26.08.72.08,1.37v5.1h-1.41v-5.05c0-.57-.05-1-.16-1.29s-.3-.51-.58-.68-.61-.25-.98-.25c-.6,0-1.12.19-1.55.57s-.65,1.1-.65,2.16v4.53h-1.41Z"/>
    <path class="cls-7" d="M69.93,620.39v-1.62h1.41v1.62h-1.41ZM69.93,630.23v-8.3h1.41v8.3h-1.41Z"/>
    <path class="cls-7" d="M72.91,627.75l1.39-.22c.08.56.3.98.65,1.28s.86.45,1.5.45,1.12-.13,1.44-.39.47-.57.47-.93c0-.32-.14-.57-.41-.75-.19-.12-.67-.28-1.44-.48-1.03-.26-1.75-.49-2.14-.68s-.7-.45-.91-.79-.31-.71-.31-1.11c0-.37.08-.71.25-1.03s.4-.58.69-.79c.22-.16.52-.3.89-.41s.78-.17,1.21-.17c.65,0,1.22.09,1.71.28s.86.44,1.09.76.4.75.48,1.29l-1.38.19c-.06-.43-.24-.76-.54-1s-.72-.36-1.27-.36c-.65,0-1.11.11-1.38.32s-.41.46-.41.75c0,.18.06.35.17.49.11.15.29.28.54.38.14.05.55.17,1.24.36,1,.27,1.69.48,2.08.65s.7.42.93.74.34.72.34,1.2-.14.91-.41,1.32-.67.73-1.18.96-1.1.34-1.75.34c-1.08,0-1.9-.22-2.46-.67s-.93-1.11-1.08-1.99Z"/>
    <path class="cls-7" d="M84.54,628.97l.2,1.24c-.4.08-.75.12-1.06.12-.51,0-.91-.08-1.19-.24s-.48-.37-.59-.64-.17-.82-.17-1.66v-4.77h-1.03v-1.09h1.03v-2.05l1.4-.84v2.9h1.41v1.09h-1.41v4.85c0,.4.02.66.07.77s.13.21.24.27.27.1.48.1c.16,0,.36-.02.62-.05Z"/>
    <path class="cls-7" d="M85.9,630.23v-8.3h1.27v1.26c.32-.59.62-.98.89-1.16s.57-.28.9-.28c.47,0,.96.15,1.45.45l-.48,1.3c-.34-.2-.69-.3-1.03-.3-.31,0-.58.09-.83.28s-.42.44-.52.77c-.16.5-.23,1.05-.23,1.64v4.34h-1.41Z"/>
    <path class="cls-7" d="M96.66,629.2c-.52.44-1.02.75-1.5.94s-1,.27-1.55.27c-.91,0-1.61-.22-2.1-.67s-.73-1.01-.73-1.71c0-.41.09-.78.28-1.11s.43-.61.73-.81.64-.36,1.01-.46c.28-.07.69-.14,1.25-.21,1.14-.14,1.97-.3,2.51-.48,0-.19,0-.32,0-.37,0-.57-.13-.98-.4-1.21-.36-.32-.89-.48-1.6-.48-.66,0-1.15.12-1.46.35s-.55.64-.7,1.23l-1.38-.19c.12-.59.33-1.06.62-1.43s.7-.64,1.24-.84,1.17-.29,1.88-.29,1.28.08,1.73.25.77.38.98.63.35.57.44.96c.05.24.07.67.07,1.3v1.88c0,1.31.03,2.13.09,2.48s.18.68.36,1h-1.47c-.15-.29-.24-.63-.28-1.02ZM96.54,626.06c-.51.21-1.28.39-2.3.53-.58.08-.99.18-1.23.28s-.42.26-.55.46-.2.42-.2.67c0,.38.14.69.43.94s.7.38,1.25.38,1.02-.12,1.45-.36.73-.56.93-.97c.15-.32.23-.79.23-1.41v-.52Z"/>
    <path class="cls-7" d="M103.22,628.97l.2,1.24c-.4.08-.75.12-1.06.12-.51,0-.91-.08-1.19-.24s-.48-.37-.59-.64-.17-.82-.17-1.66v-4.77h-1.03v-1.09h1.03v-2.05l1.4-.84v2.9h1.41v1.09h-1.41v4.85c0,.4.02.66.07.77s.13.21.24.27.27.1.48.1c.16,0,.36-.02.62-.05Z"/>
    <path class="cls-7" d="M104.6,620.39v-1.62h1.41v1.62h-1.41ZM104.6,630.23v-8.3h1.41v8.3h-1.41Z"/>
    <path class="cls-7" d="M110.45,630.23l-3.16-8.3h1.48l1.78,4.97c.19.54.37,1.09.53,1.67.12-.44.3-.96.52-1.58l1.84-5.06h1.45l-3.14,8.3h-1.31Z"/>
    <path class="cls-7" d="M121.83,627.55l1.45.18c-.23.85-.65,1.51-1.27,1.98s-1.41.7-2.38.7c-1.21,0-2.18-.37-2.89-1.12s-1.07-1.8-1.07-3.14.36-2.48,1.08-3.25,1.65-1.16,2.8-1.16,2.02.38,2.72,1.13,1.05,1.82,1.05,3.19c0,.08,0,.21,0,.38h-6.19c.05.91.31,1.61.77,2.09s1.04.73,1.73.73c.52,0,.96-.14,1.32-.41s.65-.7.87-1.3ZM117.21,625.28h4.63c-.06-.7-.24-1.22-.53-1.57-.45-.54-1.03-.81-1.74-.81-.65,0-1.19.22-1.63.65s-.68,1.01-.73,1.73Z"/>
    <path class="cls-7" d="M46.45,645.75l1.43-.12c.07.57.23,1.04.47,1.41s.63.66,1.15.89,1.11.34,1.76.34c.58,0,1.09-.09,1.53-.26s.77-.41.99-.71.32-.63.32-.98-.1-.67-.31-.94-.55-.49-1.03-.68c-.31-.12-.99-.31-2.04-.56s-1.79-.49-2.21-.71c-.55-.29-.95-.64-1.22-1.07s-.4-.9-.4-1.43c0-.58.16-1.12.49-1.62s.81-.88,1.44-1.14,1.33-.39,2.1-.39c.85,0,1.6.14,2.25.41s1.15.68,1.5,1.21.54,1.13.56,1.8l-1.45.11c-.08-.72-.34-1.27-.79-1.64s-1.12-.55-2-.55-1.58.17-2,.5-.63.74-.63,1.21c0,.41.15.75.45,1.02.29.27,1.05.54,2.29.82s2.08.52,2.54.73c.67.31,1.16.7,1.48,1.17s.48,1.01.48,1.63-.17,1.18-.52,1.72-.85.96-1.5,1.26-1.39.45-2.21.45c-1.04,0-1.91-.15-2.61-.45s-1.25-.76-1.65-1.36-.61-1.29-.63-2.06Z"/>
    <path class="cls-7" d="M62.9,649.43v-1.22c-.65.94-1.52,1.41-2.63,1.41-.49,0-.95-.09-1.37-.28s-.74-.42-.95-.71-.35-.63-.43-1.04c-.06-.28-.09-.71-.09-1.31v-5.14h1.41v4.6c0,.73.03,1.23.09,1.48.09.37.28.66.56.87s.64.32,1.06.32.82-.11,1.19-.32.63-.51.79-.88.23-.91.23-1.62v-4.45h1.41v8.3h-1.26Z"/>
    <path class="cls-7" d="M66.36,652.61v-11.48h1.28v1.08c.3-.42.64-.74,1.02-.95s.84-.32,1.38-.32c.71,0,1.33.18,1.88.55s.95.88,1.23,1.54.41,1.39.41,2.18c0,.85-.15,1.61-.46,2.29s-.75,1.2-1.33,1.56-1.19.54-1.83.54c-.47,0-.89-.1-1.26-.3s-.68-.45-.92-.75v4.04h-1.41ZM67.63,645.33c0,1.07.22,1.86.65,2.37s.96.77,1.57.77,1.16-.26,1.61-.79.67-1.35.67-2.46-.22-1.85-.65-2.38-.95-.79-1.56-.79-1.13.28-1.59.84-.69,1.37-.69,2.44Z"/>
    <path class="cls-7" d="M75.26,652.61v-11.48h1.28v1.08c.3-.42.64-.74,1.02-.95s.84-.32,1.38-.32c.71,0,1.33.18,1.88.55s.95.88,1.23,1.54.41,1.39.41,2.18c0,.85-.15,1.61-.46,2.29s-.75,1.2-1.33,1.56-1.19.54-1.83.54c-.47,0-.89-.1-1.26-.3s-.68-.45-.92-.75v4.04h-1.41ZM76.53,645.33c0,1.07.22,1.86.65,2.37s.96.77,1.57.77,1.16-.26,1.61-.79.67-1.35.67-2.46-.22-1.85-.65-2.38-.95-.79-1.56-.79-1.13.28-1.59.84-.69,1.37-.69,2.44Z"/>
    <path class="cls-7" d="M83.63,645.28c0-1.54.43-2.67,1.28-3.41.71-.61,1.58-.92,2.61-.92,1.14,0,2.07.37,2.8,1.12s1.09,1.78,1.09,3.1c0,1.07-.16,1.91-.48,2.52s-.79,1.09-1.4,1.43-1.28.51-2,.51c-1.16,0-2.1-.37-2.82-1.12s-1.07-1.82-1.07-3.22ZM85.08,645.28c0,1.06.23,1.86.7,2.39s1.05.79,1.75.79,1.28-.27,1.74-.8.7-1.34.7-2.43c0-1.03-.23-1.8-.7-2.33s-1.05-.79-1.74-.79-1.29.26-1.75.79-.7,1.32-.7,2.38Z"/>
    <path class="cls-7" d="M93.04,649.43v-8.3h1.27v1.26c.32-.59.62-.98.89-1.16s.57-.28.9-.28c.47,0,.96.15,1.45.45l-.48,1.3c-.34-.2-.69-.3-1.03-.3-.31,0-.58.09-.83.28s-.42.44-.52.77c-.16.5-.23,1.05-.23,1.64v4.34h-1.41Z"/>
    <path class="cls-7" d="M101.45,648.17l.2,1.24c-.4.08-.75.12-1.06.12-.51,0-.91-.08-1.19-.24s-.48-.37-.59-.64-.17-.82-.17-1.66v-4.77h-1.03v-1.09h1.03v-2.05l1.4-.84v2.9h1.41v1.09h-1.41v4.85c0,.4.02.66.07.77s.13.21.24.27.27.1.48.1c.16,0,.36-.02.62-.05Z"/>
  </g>
  <g>
    <rect class="cls-8" x="150.62" y="188.27" width="61.21" height="367.43"/>
    <rect class="cls-10" x="43.14" y="171.56" width="61.21" height="384.13"/>
    <rect class="cls-9" x="258.1" y="246.72" width="61.21" height="308.98"/>
    <rect class="cls-10" x="365.58" y="255.07" width="61.21" height="300.63"/>
    <rect class="cls-8" x="473.05" y="263.42" width="61.21" height="292.28"/>
    <rect class="cls-9" x="580.53" y="280.12" width="61.21" height="275.57"/>
    <rect class="cls-10" x="688.01" y="288.47" width="61.21" height="267.22"/>
    <rect class="cls-8" x="795.49" y="296.83" width="61.21" height="258.87"/>
    <rect class="cls-9" x="902.96" y="313.53" width="61.21" height="242.17"/>
  </g>
  <line class="cls-2" y1="555.7" x2="1180" y2="555.7"/>
  <text class="cls-6" transform="translate(161.66 611.03)"><tspan x="0" y="0">Legal</tspan></text>
  <text class="cls-6" transform="translate(246.02 611.03)"><tspan x="0" y="0">Architecture</tspan><tspan x="-.02" y="19.2">Engineering</tspan></text>
  <text class="cls-6" transform="translate(369.27 611.03)"><tspan x="0" y="0">Science</tspan></text>
  <text class="cls-6" transform="translate(475.2 611.03)"><tspan x="0" y="0">Finance</tspan></text>
  <text class="cls-6" transform="translate(564.44 611.03)"><tspan x="0" y="0">Management</tspan></text>
  <text class="cls-6" transform="translate(806.08 611.03)"><tspan x="0" y="0">Sales</tspan></text>
  <g>
    <path class="cls-7" d="M695.32,607.35l1.43-.12c.07.57.23,1.04.47,1.41s.63.66,1.15.89,1.11.34,1.76.34c.58,0,1.09-.09,1.53-.26s.77-.41.99-.71.32-.63.32-.98-.1-.67-.31-.94-.55-.49-1.03-.68c-.31-.12-.99-.31-2.04-.56s-1.79-.49-2.21-.71c-.55-.29-.95-.64-1.22-1.07s-.4-.9-.4-1.43c0-.58.16-1.12.49-1.62s.81-.88,1.44-1.14,1.33-.39,2.1-.39c.85,0,1.6.14,2.25.41s1.15.68,1.5,1.21.54,1.13.56,1.8l-1.45.11c-.08-.72-.34-1.27-.79-1.64s-1.12-.55-2-.55-1.58.17-2,.5-.63.74-.63,1.21c0,.41.15.75.45,1.02.29.27,1.05.54,2.29.82s2.08.52,2.54.73c.67.31,1.16.7,1.48,1.17s.48,1.01.48,1.63-.17,1.18-.52,1.72-.85.96-1.5,1.26-1.39.45-2.21.45c-1.04,0-1.91-.15-2.61-.45s-1.25-.76-1.65-1.36-.61-1.29-.63-2.06Z"/>
    <path class="cls-7" d="M705.81,606.88c0-1.54.43-2.67,1.28-3.41.71-.61,1.58-.92,2.61-.92,1.14,0,2.07.37,2.8,1.12s1.09,1.78,1.09,3.1c0,1.07-.16,1.91-.48,2.52s-.79,1.09-1.4,1.43-1.28.51-2,.51c-1.16,0-2.1-.37-2.82-1.12s-1.07-1.82-1.07-3.22ZM707.25,606.88c0,1.06.23,1.86.7,2.39s1.05.79,1.75.79,1.28-.27,1.74-.8.7-1.34.7-2.43c0-1.03-.23-1.8-.7-2.33s-1.05-.79-1.74-.79-1.29.26-1.75.79-.7,1.32-.7,2.38Z"/>
    <path class="cls-7" d="M720.64,607.99l1.38.18c-.15.95-.54,1.7-1.16,2.24s-1.39.81-2.29.81c-1.14,0-2.05-.37-2.74-1.11s-1.04-1.81-1.04-3.19c0-.9.15-1.68.45-2.35s.75-1.18,1.36-1.51,1.27-.5,1.98-.5c.9,0,1.64.23,2.21.68s.94,1.1,1.1,1.94l-1.37.21c-.13-.56-.36-.98-.69-1.26s-.73-.42-1.2-.42c-.71,0-1.28.25-1.73.76s-.66,1.31-.66,2.41.21,1.92.64,2.43.98.76,1.67.76c.55,0,1.01-.17,1.38-.51s.6-.86.7-1.56Z"/>
    <path class="cls-7" d="M723.24,601.19v-1.62h1.41v1.62h-1.41ZM723.24,611.03v-8.3h1.41v8.3h-1.41Z"/>
    <path class="cls-7" d="M732.2,610c-.52.44-1.02.75-1.5.94s-1,.27-1.55.27c-.91,0-1.61-.22-2.1-.67s-.73-1.01-.73-1.71c0-.41.09-.78.28-1.11s.43-.61.73-.81.64-.36,1.01-.46c.28-.07.69-.14,1.25-.21,1.14-.14,1.97-.3,2.51-.48,0-.19,0-.32,0-.37,0-.57-.13-.98-.4-1.21-.36-.32-.89-.48-1.6-.48-.66,0-1.15.12-1.46.35s-.55.64-.7,1.23l-1.38-.19c.12-.59.33-1.06.62-1.43s.7-.64,1.24-.84,1.17-.29,1.88-.29,1.28.08,1.73.25.77.38.98.63.35.57.44.96c.05.24.07.67.07,1.3v1.88c0,1.31.03,2.13.09,2.48s.18.68.36,1h-1.47c-.15-.29-.24-.63-.28-1.02ZM732.08,606.86c-.51.21-1.28.39-2.3.53-.58.08-.99.18-1.23.28s-.42.26-.55.46-.2.42-.2.67c0,.38.14.69.43.94s.7.38,1.25.38,1.02-.12,1.45-.36.73-.56.93-.97c.15-.32.23-.79.23-1.41v-.52Z"/>
    <path class="cls-7" d="M735.65,611.03v-11.45h1.41v11.45h-1.41Z"/>
    <path class="cls-7" d="M692.66,626.55l1.43-.12c.07.57.23,1.04.47,1.41s.63.66,1.15.89,1.11.34,1.76.34c.58,0,1.09-.09,1.53-.26s.77-.41.99-.71.32-.63.32-.98-.1-.67-.31-.94-.55-.49-1.03-.68c-.31-.12-.99-.31-2.04-.56s-1.79-.49-2.21-.71c-.55-.29-.95-.64-1.22-1.07s-.4-.9-.4-1.43c0-.58.16-1.12.49-1.62s.81-.88,1.44-1.14,1.33-.39,2.1-.39c.85,0,1.6.14,2.25.41s1.15.68,1.5,1.21.54,1.13.56,1.8l-1.45.11c-.08-.72-.34-1.27-.79-1.64s-1.12-.55-2-.55-1.58.17-2,.5-.63.74-.63,1.21c0,.41.15.75.45,1.02.29.27,1.05.54,2.29.82s2.08.52,2.54.73c.67.31,1.16.7,1.48,1.17s.48,1.01.48,1.63-.17,1.18-.52,1.72-.85.96-1.5,1.26-1.39.45-2.21.45c-1.04,0-1.91-.15-2.61-.45s-1.25-.76-1.65-1.36-.61-1.29-.63-2.06Z"/>
    <path class="cls-7" d="M709.35,627.56l1.45.18c-.23.85-.65,1.51-1.27,1.98s-1.41.7-2.38.7c-1.21,0-2.18-.37-2.89-1.12s-1.07-1.8-1.07-3.14.36-2.48,1.08-3.25,1.65-1.16,2.8-1.16,2.02.38,2.72,1.13,1.05,1.82,1.05,3.19c0,.08,0,.21,0,.38h-6.19c.05.91.31,1.61.77,2.09s1.04.73,1.73.73c.52,0,.96-.14,1.32-.41s.65-.7.87-1.3ZM704.73,625.28h4.63c-.06-.7-.24-1.22-.53-1.57-.45-.54-1.03-.81-1.74-.81-.65,0-1.19.22-1.63.65s-.68,1.01-.73,1.73Z"/>
    <path class="cls-7" d="M712.55,630.23v-8.3h1.27v1.26c.32-.59.62-.98.89-1.16s.57-.28.9-.28c.47,0,.96.15,1.45.45l-.48,1.3c-.34-.2-.69-.3-1.03-.3-.31,0-.58.09-.83.28s-.42.44-.52.77c-.16.5-.23,1.05-.23,1.64v4.34h-1.41Z"/>
    <path class="cls-7" d="M720.2,630.23l-3.16-8.3h1.48l1.78,4.97c.19.54.37,1.09.53,1.67.12-.44.3-.96.52-1.58l1.84-5.06h1.45l-3.14,8.3h-1.31Z"/>
    <path class="cls-7" d="M725.9,620.39v-1.62h1.41v1.62h-1.41ZM725.9,630.23v-8.3h1.41v8.3h-1.41Z"/>
    <path class="cls-7" d="M734.86,627.19l1.38.18c-.15.95-.54,1.7-1.16,2.24s-1.39.81-2.29.81c-1.14,0-2.05-.37-2.74-1.11s-1.04-1.81-1.04-3.19c0-.9.15-1.68.45-2.35s.75-1.18,1.36-1.51,1.27-.5,1.98-.5c.9,0,1.64.23,2.21.68s.94,1.1,1.1,1.94l-1.37.21c-.13-.56-.36-.98-.69-1.26s-.73-.42-1.2-.42c-.71,0-1.28.25-1.73.76s-.66,1.31-.66,2.41.21,1.92.64,2.43.98.76,1.67.76c.55,0,1.01-.17,1.38-.51s.6-.86.7-1.56Z"/>
    <path class="cls-7" d="M743.13,627.56l1.45.18c-.23.85-.65,1.51-1.27,1.98s-1.41.7-2.38.7c-1.21,0-2.18-.37-2.89-1.12s-1.07-1.8-1.07-3.14.36-2.48,1.08-3.25,1.65-1.16,2.8-1.16,2.02.38,2.72,1.13,1.05,1.82,1.05,3.19c0,.08,0,.21,0,.38h-6.19c.05.91.31,1.61.77,2.09s1.04.73,1.73.73c.52,0,.96-.14,1.32-.41s.65-.7.87-1.3ZM738.51,625.28h4.63c-.06-.7-.24-1.22-.53-1.57-.45-.54-1.03-.81-1.74-.81-.65,0-1.19.22-1.63.65s-.68,1.01-.73,1.73Z"/>
  </g>
  <g>
    <path class="cls-7" d="M907.85,607.01l1.52.38c-.32,1.25-.89,2.19-1.71,2.85s-1.83.98-3.03.98-2.24-.25-3.01-.75-1.36-1.23-1.77-2.18-.61-1.98-.61-3.07c0-1.19.23-2.23.68-3.12s1.1-1.56,1.95-2.02,1.77-.69,2.78-.69c1.15,0,2.11.29,2.89.88s1.33,1.4,1.63,2.46l-1.49.35c-.27-.83-.65-1.44-1.16-1.82s-1.14-.57-1.91-.57c-.88,0-1.62.21-2.21.63s-1.01.99-1.25,1.7-.36,1.44-.36,2.2c0,.97.14,1.82.43,2.55s.73,1.27,1.32,1.63,1.25.54,1.95.54c.85,0,1.57-.25,2.16-.73s.99-1.22,1.2-2.18Z"/>
    <path class="cls-7" d="M910.53,606.88c0-1.54.43-2.67,1.28-3.41.71-.61,1.58-.92,2.61-.92,1.14,0,2.07.37,2.8,1.12s1.09,1.78,1.09,3.1c0,1.07-.16,1.91-.48,2.52s-.79,1.09-1.4,1.43-1.28.51-2,.51c-1.16,0-2.1-.37-2.82-1.12s-1.07-1.82-1.07-3.22ZM911.98,606.88c0,1.06.23,1.86.7,2.39s1.05.79,1.75.79,1.28-.27,1.74-.8.7-1.34.7-2.43c0-1.03-.23-1.8-.7-2.33s-1.05-.79-1.74-.79-1.29.26-1.75.79-.7,1.32-.7,2.38Z"/>
    <path class="cls-7" d="M919.95,611.03v-8.3h1.26v1.16c.26-.41.61-.73,1.04-.98s.92-.37,1.48-.37c.61,0,1.12.13,1.51.38s.67.61.83,1.07c.66-.97,1.51-1.45,2.56-1.45.82,0,1.46.23,1.9.68s.66,1.16.66,2.11v5.7h-1.4v-5.23c0-.56-.05-.97-.14-1.21s-.26-.45-.5-.6-.52-.23-.84-.23c-.58,0-1.07.19-1.45.58s-.58,1.01-.58,1.86v4.82h-1.41v-5.39c0-.62-.11-1.09-.34-1.41s-.6-.47-1.12-.47c-.4,0-.76.1-1.1.31s-.58.51-.73.91-.23.98-.23,1.73v4.3h-1.41Z"/>
    <path class="cls-7" d="M933.28,614.21v-11.48h1.28v1.08c.3-.42.64-.74,1.02-.95s.84-.32,1.38-.32c.71,0,1.33.18,1.88.55s.95.88,1.23,1.54.41,1.39.41,2.18c0,.85-.15,1.61-.46,2.29s-.75,1.2-1.33,1.56-1.19.54-1.83.54c-.47,0-.89-.1-1.26-.3s-.68-.45-.92-.75v4.04h-1.41ZM934.56,606.92c0,1.07.22,1.86.65,2.37s.96.77,1.57.77,1.16-.26,1.61-.79.67-1.35.67-2.46-.22-1.85-.65-2.38-.95-.79-1.56-.79-1.13.28-1.59.84-.69,1.37-.69,2.44Z"/>
    <path class="cls-7" d="M947.62,611.03v-1.22c-.65.94-1.52,1.41-2.63,1.41-.49,0-.95-.09-1.37-.28s-.74-.42-.95-.71-.35-.63-.43-1.04c-.06-.28-.09-.71-.09-1.31v-5.14h1.41v4.6c0,.73.03,1.23.09,1.48.09.37.28.66.56.87s.64.32,1.06.32.82-.11,1.19-.32.63-.51.79-.88.23-.91.23-1.62v-4.45h1.41v8.3h-1.26Z"/>
    <path class="cls-7" d="M954.15,609.77l.2,1.24c-.4.08-.75.12-1.06.12-.51,0-.91-.08-1.19-.24s-.48-.37-.59-.64-.17-.82-.17-1.66v-4.77h-1.03v-1.09h1.03v-2.05l1.4-.84v2.9h1.41v1.09h-1.41v4.85c0,.4.02.66.07.77s.13.21.24.27.27.1.48.1c.16,0,.36-.02.62-.05Z"/>
    <path class="cls-7" d="M961.2,608.35l1.45.18c-.23.85-.65,1.51-1.27,1.98s-1.41.7-2.38.7c-1.21,0-2.18-.37-2.89-1.12s-1.07-1.8-1.07-3.14.36-2.48,1.08-3.25,1.65-1.16,2.8-1.16,2.02.38,2.72,1.13,1.05,1.82,1.05,3.19c0,.08,0,.21,0,.38h-6.19c.05.91.31,1.61.77,2.09s1.04.73,1.73.73c.52,0,.96-.14,1.32-.41s.65-.7.87-1.3ZM956.59,606.08h4.63c-.06-.7-.24-1.22-.53-1.57-.45-.54-1.03-.81-1.74-.81-.65,0-1.19.22-1.63.65s-.68,1.01-.73,1.73Z"/>
    <path class="cls-7" d="M964.41,611.03v-8.3h1.27v1.26c.32-.59.62-.98.89-1.16s.57-.28.9-.28c.47,0,.96.15,1.45.45l-.48,1.3c-.34-.2-.69-.3-1.03-.3-.31,0-.58.09-.83.28s-.42.44-.52.77c-.16.5-.23,1.05-.23,1.64v4.34h-1.41Z"/>
    <path class="cls-7" d="M905.83,626.55l1.43-.12c.07.57.23,1.04.47,1.41s.63.66,1.15.89,1.11.34,1.76.34c.58,0,1.09-.09,1.53-.26s.77-.41.99-.71.32-.63.32-.98-.1-.67-.31-.94-.55-.49-1.03-.68c-.31-.12-.99-.31-2.04-.56s-1.79-.49-2.21-.71c-.55-.29-.95-.64-1.22-1.07s-.4-.9-.4-1.43c0-.58.16-1.12.49-1.62s.81-.88,1.44-1.14,1.33-.39,2.1-.39c.85,0,1.6.14,2.25.41s1.15.68,1.5,1.21.54,1.13.56,1.8l-1.45.11c-.08-.72-.34-1.27-.79-1.64s-1.12-.55-2-.55-1.58.17-2,.5-.63.74-.63,1.21c0,.41.15.75.45,1.02.29.27,1.05.54,2.29.82s2.08.52,2.54.73c.67.31,1.16.7,1.48,1.17s.48,1.01.48,1.63-.17,1.18-.52,1.72-.85.96-1.5,1.26-1.39.45-2.21.45c-1.04,0-1.91-.15-2.61-.45s-1.25-.76-1.65-1.36-.61-1.29-.63-2.06Z"/>
    <path class="cls-7" d="M922.25,627.19l1.38.18c-.15.95-.54,1.7-1.16,2.24s-1.39.81-2.29.81c-1.14,0-2.05-.37-2.74-1.11s-1.04-1.81-1.04-3.19c0-.9.15-1.68.45-2.35s.75-1.18,1.36-1.51,1.27-.5,1.98-.5c.9,0,1.64.23,2.21.68s.94,1.1,1.1,1.94l-1.37.21c-.13-.56-.36-.98-.69-1.26s-.73-.42-1.2-.42c-.71,0-1.28.25-1.73.76s-.66,1.31-.66,2.41.21,1.92.64,2.43.98.76,1.67.76c.55,0,1.01-.17,1.38-.51s.6-.86.7-1.56Z"/>
    <path class="cls-7" d="M924.84,620.39v-1.62h1.41v1.62h-1.41ZM924.84,630.23v-8.3h1.41v8.3h-1.41Z"/>
    <path class="cls-7" d="M934.07,627.55l1.45.18c-.23.85-.65,1.51-1.27,1.98s-1.41.7-2.38.7c-1.21,0-2.18-.37-2.89-1.12s-1.07-1.8-1.07-3.14.36-2.48,1.08-3.25,1.65-1.16,2.8-1.16,2.02.38,2.72,1.13,1.05,1.82,1.05,3.19c0,.08,0,.21,0,.38h-6.19c.05.91.31,1.61.77,2.09s1.04.73,1.73.73c.52,0,.96-.14,1.32-.41s.65-.7.87-1.3ZM929.45,625.28h4.63c-.06-.7-.24-1.22-.53-1.57-.45-.54-1.03-.81-1.74-.81-.65,0-1.19.22-1.63.65s-.68,1.01-.73,1.73Z"/>
    <path class="cls-7" d="M937.29,630.23v-8.3h1.27v1.18c.61-.91,1.49-1.37,2.64-1.37.5,0,.96.09,1.38.27s.73.42.94.71.35.64.44,1.04c.05.26.08.72.08,1.37v5.1h-1.41v-5.05c0-.57-.05-1-.16-1.29s-.3-.51-.58-.68-.61-.25-.98-.25c-.6,0-1.12.19-1.55.57s-.65,1.1-.65,2.16v4.53h-1.41Z"/>
    <path class="cls-7" d="M951.6,627.19l1.38.18c-.15.95-.54,1.7-1.16,2.24s-1.39.81-2.29.81c-1.14,0-2.05-.37-2.74-1.11s-1.04-1.81-1.04-3.19c0-.9.15-1.68.45-2.35s.75-1.18,1.36-1.51,1.27-.5,1.98-.5c.9,0,1.64.23,2.21.68s.94,1.1,1.1,1.94l-1.37.21c-.13-.56-.36-.98-.69-1.26s-.73-.42-1.2-.42c-.71,0-1.28.25-1.73.76s-.66,1.31-.66,2.41.21,1.92.64,2.43.98.76,1.67.76c.55,0,1.01-.17,1.38-.51s.6-.86.7-1.56Z"/>
    <path class="cls-7" d="M959.87,627.55l1.45.18c-.23.85-.65,1.51-1.27,1.98s-1.41.7-2.38.7c-1.21,0-2.18-.37-2.89-1.12s-1.07-1.8-1.07-3.14.36-2.48,1.08-3.25,1.65-1.16,2.8-1.16,2.02.38,2.72,1.13,1.05,1.82,1.05,3.19c0,.08,0,.21,0,.38h-6.19c.05.91.31,1.61.77,2.09s1.04.73,1.73.73c.52,0,.96-.14,1.32-.41s.65-.7.87-1.3ZM955.25,625.28h4.63c-.06-.7-.24-1.22-.53-1.57-.45-.54-1.03-.81-1.74-.81-.65,0-1.19.22-1.63.65s-.68,1.01-.73,1.73Z"/>
  </g>
  <text class="cls-4" transform="translate(61.74 409.56)"><tspan x="0" y="0">46%</tspan></text>
  <text class="cls-4" transform="translate(169.22 409.56)"><tspan x="0" y="0">44%</tspan></text>
  <text class="cls-4" transform="translate(276.7 409.56)"><tspan x="0" y="0">37%</tspan></text>
  <text class="cls-4" transform="translate(384.18 409.56)"><tspan x="0" y="0">36%</tspan></text>
  <text class="cls-4" transform="translate(491.65 409.56)"><tspan x="0" y="0">35%</tspan></text>
  <text class="cls-4" transform="translate(599.13 409.56)"><tspan x="0" y="0">33%</tspan></text>
  <text class="cls-4" transform="translate(706.61 409.56)"><tspan x="0" y="0">32%</tspan></text>
  <text class="cls-4" transform="translate(814.08 409.56)"><tspan x="0" y="0">31%</tspan></text>
  <text class="cls-4" transform="translate(921.56 409.56)"><tspan x="0" y="0">29%</tspan></text>
  <text class="cls-3" transform="translate(0 106.88)"><tspan x="0" y="0">Share of Industry Employment Exposed to</tspan><tspan class="cls-5" x="524.42" y="0"> </tspan><tspan x="530.68" y="0">Automation by</tspan><tspan class="cls-5" x="712.66" y="0"> </tspan><tspan x="718.92" y="0">AI</tspan></text>
  <g>
    <line class="cls-2" x1="43.15" y1="280.12" x2="45.15" y2="280.12"/>
    <line class="cls-1" x1="49.15" y1="280.12" x2="960.18" y2="280.12"/>
    <line class="cls-2" x1="962.18" y1="280.12" x2="964.18" y2="280.12"/>
  </g>
  <g>
    <path class="cls-7" d="M995.97,281.3c0-1.17.17-2.15.52-2.94.26-.58.62-1.11,1.07-1.57.45-.46.94-.81,1.48-1.03.71-.3,1.54-.45,2.47-.45,1.69,0,3.04.52,4.05,1.57s1.52,2.5,1.52,4.37-.5,3.3-1.51,4.34c-1,1.04-2.35,1.57-4.03,1.57s-3.06-.52-4.06-1.56-1.51-2.47-1.51-4.29ZM998.35,281.23c0,1.3.3,2.28.9,2.95.6.67,1.36,1,2.28,1s1.68-.33,2.27-1,.89-1.66.89-2.99-.29-2.29-.86-2.94c-.58-.65-1.34-.97-2.29-.97s-1.72.33-2.3.98c-.58.65-.88,1.64-.88,2.96Z"/>
    <path class="cls-7" d="M1016.42,286.96h-2.2v-4.23c0-.9-.05-1.48-.14-1.74-.09-.26-.25-.47-.46-.61-.21-.15-.46-.22-.76-.22-.38,0-.72.1-1.02.31-.3.21-.51.48-.62.83s-.17.98-.17,1.91v3.76h-2.2v-8.3h2.04v1.22c.72-.94,1.64-1.41,2.73-1.41.48,0,.93.09,1.33.26.4.17.7.4.91.67.21.27.35.58.43.92s.12.84.12,1.48v5.16Z"/>
    <path class="cls-7" d="M1023.45,284.32l2.19.37c-.28.8-.73,1.41-1.33,1.83-.61.42-1.37.63-2.28.63-1.44,0-2.51-.47-3.2-1.41-.55-.75-.82-1.71-.82-2.86,0-1.38.36-2.45,1.08-3.23.72-.78,1.63-1.17,2.73-1.17,1.23,0,2.21.41,2.92,1.22.71.82,1.05,2.06,1.02,3.75h-5.5c.02.65.19,1.16.53,1.52.34.36.76.54,1.27.54.34,0,.63-.09.87-.28s.41-.49.53-.91ZM1023.57,282.1c-.02-.64-.18-1.12-.49-1.45-.31-.33-.69-.5-1.14-.5-.48,0-.88.17-1.19.52-.31.35-.47.82-.46,1.42h3.28Z"/>
    <path class="cls-7" d="M1027.29,283.9v-2.2h4.31v2.2h-4.31Z"/>
    <path class="cls-7" d="M1031.91,278.66h1.22v-.62c0-.7.07-1.22.22-1.56s.42-.62.82-.84c.4-.22.9-.32,1.51-.32s1.24.09,1.84.28l-.3,1.53c-.35-.08-.68-.12-1.01-.12s-.55.07-.68.22-.21.43-.21.86v.59h1.64v1.73h-1.64v6.57h-2.2v-6.57h-1.22v-1.73Z"/>
    <path class="cls-7" d="M1037.69,282.69c0-.73.18-1.43.54-2.12.36-.68.87-1.2,1.53-1.56s1.39-.54,2.21-.54c1.25,0,2.28.41,3.09,1.22.8.82,1.2,1.85,1.2,3.09s-.41,2.3-1.21,3.12c-.81.83-1.83,1.24-3.06,1.24-.76,0-1.49-.17-2.18-.52s-1.21-.85-1.57-1.51-.54-1.47-.54-2.43ZM1039.94,282.81c0,.82.2,1.45.59,1.89s.87.66,1.45.66,1.05-.22,1.44-.66.58-1.07.58-1.91-.19-1.44-.58-1.88-.87-.66-1.44-.66-1.05.22-1.45.66-.59,1.07-.59,1.89Z"/>
    <path class="cls-7" d="M1053.43,286.96v-1.24c-.3.44-.7.79-1.19,1.05s-1.01.38-1.56.38-1.06-.12-1.5-.37-.76-.59-.96-1.03c-.2-.44-.3-1.05-.3-1.84v-5.25h2.2v3.81c0,1.17.04,1.88.12,2.14.08.26.23.47.44.62.21.15.48.23.81.23.38,0,.71-.1,1.01-.31.3-.21.5-.46.61-.77s.16-1.05.16-2.24v-3.5h2.2v8.3h-2.04Z"/>
    <path class="cls-7" d="M1059.85,286.96h-2.2v-8.3h2.04v1.18c.35-.56.66-.92.94-1.1.28-.18.59-.27.95-.27.5,0,.98.14,1.45.41l-.68,1.91c-.37-.24-.71-.36-1.03-.36s-.57.08-.78.25c-.21.17-.38.48-.5.92-.12.44-.18,1.37-.18,2.78v2.56Z"/>
    <path class="cls-7" d="M1067.78,278.66v1.75h-1.5v3.34c0,.68.01,1.07.04,1.18.03.11.09.2.2.28.1.07.23.11.37.11.2,0,.5-.07.88-.21l.19,1.7c-.51.22-1.09.33-1.73.33-.4,0-.75-.07-1.07-.2s-.55-.3-.7-.52-.25-.5-.31-.86c-.05-.25-.07-.77-.07-1.55v-3.62h-1.01v-1.75h1.01v-1.65l2.2-1.28v2.93h1.5Z"/>
    <path class="cls-7" d="M1071.49,275.51v4.21c.71-.83,1.55-1.24,2.54-1.24.5,0,.96.09,1.37.28s.71.43.92.72c.21.29.35.61.42.97.08.35.11.9.11,1.65v4.87h-2.2v-4.38c0-.87-.04-1.42-.12-1.66s-.23-.42-.44-.56c-.21-.14-.48-.21-.79-.21-.36,0-.69.09-.98.27-.29.18-.5.44-.63.8-.13.36-.2.88-.2,1.58v4.16h-2.2v-11.45h2.2Z"/>
    <path class="cls-7" d="M1083.01,282.69c0-.73.18-1.43.54-2.12.36-.68.87-1.2,1.53-1.56s1.39-.54,2.21-.54c1.25,0,2.28.41,3.09,1.22.8.82,1.2,1.85,1.2,3.09s-.41,2.3-1.21,3.12c-.81.83-1.83,1.24-3.06,1.24-.76,0-1.49-.17-2.18-.52s-1.21-.85-1.57-1.51-.54-1.47-.54-2.43ZM1085.26,282.81c0,.82.2,1.45.59,1.89s.87.66,1.45.66,1.05-.22,1.44-.66.58-1.07.58-1.91-.19-1.44-.58-1.88-.87-.66-1.44-.66-1.05.22-1.45.66-.59,1.07-.59,1.89Z"/>
    <path class="cls-7" d="M1092.33,278.66h1.22v-.62c0-.7.07-1.22.22-1.56s.42-.62.82-.84c.4-.22.9-.32,1.51-.32s1.24.09,1.84.28l-.3,1.53c-.35-.08-.68-.12-1.01-.12s-.55.07-.68.22-.21.43-.21.86v.59h1.64v1.73h-1.64v6.57h-2.2v-6.57h-1.22v-1.73Z"/>
    <path class="cls-7" d="M1003.66,300.32l-2.16.39c-.07-.43-.24-.76-.5-.98s-.59-.33-1-.33c-.55,0-.98.19-1.31.57-.33.38-.49,1.01-.49,1.89,0,.98.17,1.68.5,2.09s.77.61,1.33.61c.42,0,.76-.12,1.02-.36.27-.24.45-.64.56-1.22l2.16.37c-.22.99-.65,1.74-1.29,2.24-.64.51-1.49.76-2.55.76-1.21,0-2.18-.38-2.9-1.15s-1.08-1.83-1.08-3.18.36-2.44,1.09-3.2c.72-.76,1.7-1.14,2.94-1.14,1.01,0,1.81.22,2.41.65.6.44,1.02,1.1,1.29,1.99Z"/>
    <path class="cls-7" d="M1010.78,306.16v-1.24c-.3.44-.7.79-1.19,1.05s-1.01.38-1.56.38-1.06-.12-1.5-.37-.76-.59-.96-1.03c-.2-.44-.3-1.05-.3-1.84v-5.25h2.2v3.81c0,1.17.04,1.88.12,2.14.08.26.23.47.44.62.21.15.48.23.81.23.38,0,.71-.1,1.01-.31.3-.21.5-.46.61-.77s.16-1.05.16-2.24v-3.5h2.2v8.3h-2.04Z"/>
    <path class="cls-7" d="M1017.2,306.16h-2.2v-8.3h2.04v1.18c.35-.56.66-.92.94-1.1.28-.18.59-.27.95-.27.5,0,.98.14,1.45.41l-.68,1.91c-.37-.24-.71-.36-1.03-.36s-.57.08-.78.25c-.21.17-.38.48-.5.92-.12.44-.18,1.37-.18,2.78v2.56Z"/>
    <path class="cls-7" d="M1023.42,306.16h-2.2v-8.3h2.04v1.18c.35-.56.66-.92.94-1.1.28-.18.59-.27.95-.27.5,0,.98.14,1.45.41l-.68,1.91c-.37-.24-.71-.36-1.03-.36s-.57.08-.78.25c-.21.17-.38.48-.5.92-.12.44-.18,1.37-.18,2.78v2.56Z"/>
    <path class="cls-7" d="M1032.35,303.52l2.19.37c-.28.8-.73,1.41-1.33,1.83-.61.42-1.37.63-2.28.63-1.44,0-2.51-.47-3.2-1.41-.55-.75-.82-1.71-.82-2.86,0-1.38.36-2.45,1.08-3.23.72-.78,1.63-1.17,2.73-1.17,1.23,0,2.21.41,2.92,1.22.71.82,1.05,2.06,1.02,3.75h-5.5c.02.65.19,1.16.53,1.52.34.36.76.54,1.27.54.34,0,.63-.09.87-.28s.41-.49.53-.91ZM1032.48,301.3c-.02-.64-.18-1.12-.49-1.45-.31-.33-.69-.5-1.14-.5-.48,0-.88.17-1.19.52-.31.35-.47.82-.46,1.42h3.28Z"/>
    <path class="cls-7" d="M1043.99,306.16h-2.2v-4.23c0-.9-.05-1.48-.14-1.74-.09-.26-.25-.47-.46-.61-.21-.15-.46-.22-.76-.22-.38,0-.72.1-1.02.31-.3.21-.51.48-.62.83s-.17.98-.17,1.91v3.76h-2.2v-8.3h2.04v1.22c.72-.94,1.64-1.41,2.73-1.41.48,0,.93.09,1.33.26.4.17.7.4.91.67.21.27.35.58.43.92s.12.84.12,1.48v5.16Z"/>
    <path class="cls-7" d="M1050.03,297.86v1.75h-1.5v3.34c0,.68.01,1.07.04,1.18.03.11.09.2.2.28.1.07.23.11.37.11.2,0,.5-.07.88-.21l.19,1.7c-.51.22-1.09.33-1.73.33-.4,0-.75-.07-1.07-.2s-.55-.3-.7-.52-.25-.5-.31-.86c-.05-.25-.07-.77-.07-1.55v-3.62h-1.01v-1.75h1.01v-1.65l2.2-1.28v2.93h1.5Z"/>
    <path class="cls-7" d="M1057.54,306.16l-2.62-8.3h2.13l1.55,5.44,1.43-5.44h2.12l1.38,5.44,1.59-5.44h2.16l-2.66,8.3h-2.11l-1.43-5.34-1.41,5.34h-2.13Z"/>
    <path class="cls-7" d="M1067.93,301.89c0-.73.18-1.43.54-2.12.36-.68.87-1.2,1.53-1.56s1.39-.54,2.21-.54c1.25,0,2.28.41,3.09,1.22.8.82,1.2,1.85,1.2,3.09s-.41,2.3-1.21,3.12c-.81.83-1.83,1.24-3.06,1.24-.76,0-1.49-.17-2.18-.52s-1.21-.85-1.57-1.51-.54-1.47-.54-2.43ZM1070.18,302.01c0,.82.2,1.45.59,1.89s.87.66,1.45.66,1.05-.22,1.44-.66.58-1.07.58-1.91-.19-1.44-.58-1.88-.87-.66-1.44-.66-1.05.22-1.45.66-.59,1.07-.59,1.89Z"/>
    <path class="cls-7" d="M1080.31,306.16h-2.2v-8.3h2.04v1.18c.35-.56.66-.92.94-1.1.28-.18.59-.27.95-.27.5,0,.98.14,1.45.41l-.68,1.91c-.37-.24-.71-.36-1.03-.36s-.57.08-.78.25c-.21.17-.38.48-.5.92-.12.44-.18,1.37-.18,2.78v2.56Z"/>
    <path class="cls-7" d="M1084.36,306.16v-11.45h2.2v6.08l2.57-2.92h2.7l-2.84,3.03,3.04,5.27h-2.37l-2.09-3.73-1.02,1.07v2.66h-2.2Z"/>
    <path class="cls-7" d="M1101.59,297.86v1.75h-1.5v3.34c0,.68.01,1.07.04,1.18.03.11.09.2.2.28.1.07.23.11.37.11.2,0,.5-.07.88-.21l.19,1.7c-.51.22-1.09.33-1.73.33-.4,0-.75-.07-1.07-.2s-.55-.3-.7-.52-.25-.5-.31-.86c-.05-.25-.07-.77-.07-1.55v-3.62h-1.01v-1.75h1.01v-1.65l2.2-1.28v2.93h1.5Z"/>
    <path class="cls-7" d="M1104.75,300.39l-1.99-.36c.22-.8.61-1.4,1.16-1.78.55-.39,1.36-.58,2.44-.58.98,0,1.71.12,2.19.35.48.23.82.53,1.01.88.2.36.29,1.01.29,1.96l-.02,2.56c0,.73.04,1.27.11,1.61.07.35.2.72.39,1.11h-2.17c-.06-.15-.13-.36-.21-.65-.04-.13-.06-.22-.08-.26-.38.36-.78.64-1.2.82s-.88.27-1.37.27c-.85,0-1.53-.23-2.02-.7-.49-.46-.74-1.05-.74-1.76,0-.47.11-.89.34-1.25s.54-.65.94-.84.99-.37,1.75-.51c1.03-.19,1.74-.37,2.13-.54v-.22c0-.42-.1-.72-.31-.9s-.6-.27-1.18-.27c-.39,0-.7.08-.91.23-.22.15-.4.42-.53.81ZM1107.69,302.18c-.28.09-.73.21-1.34.34-.61.13-1.01.26-1.2.38-.29.2-.43.46-.43.77s.11.57.34.8c.23.22.52.34.88.34.4,0,.77-.13,1.13-.39.27-.2.44-.44.52-.73.06-.19.09-.54.09-1.07v-.44Z"/>
    <path class="cls-7" d="M1111.24,303.79l2.2-.34c.09.43.28.75.57.97.29.22.69.33,1.2.33.57,0,1-.1,1.28-.31.19-.15.29-.34.29-.59,0-.17-.05-.3-.16-.41-.11-.1-.35-.2-.73-.29-1.77-.39-2.89-.75-3.37-1.07-.66-.45-.98-1.07-.98-1.87,0-.72.28-1.32.85-1.81.57-.49,1.45-.73,2.64-.73s1.98.19,2.53.55c.55.37.93.92,1.14,1.64l-2.07.38c-.09-.32-.26-.57-.5-.74s-.6-.26-1.06-.26c-.58,0-.99.08-1.24.24-.17.11-.25.26-.25.45,0,.16.07.29.22.4.2.15.88.35,2.05.62s1.99.59,2.45.98c.46.39.69.94.69,1.63,0,.76-.32,1.41-.95,1.96s-1.58.82-2.82.82c-1.13,0-2.02-.23-2.68-.69-.66-.46-1.09-1.08-1.29-1.87Z"/>
    <path class="cls-7" d="M1120.83,306.16v-11.45h2.2v6.08l2.57-2.92h2.7l-2.84,3.03,3.04,5.27h-2.37l-2.09-3.73-1.02,1.07v2.66h-2.2Z"/>
    <path class="cls-7" d="M1129.03,303.79l2.2-.34c.09.43.28.75.57.97.29.22.69.33,1.2.33.57,0,1-.1,1.28-.31.19-.15.29-.34.29-.59,0-.17-.05-.3-.16-.41-.11-.1-.35-.2-.73-.29-1.77-.39-2.89-.75-3.37-1.07-.66-.45-.98-1.07-.98-1.87,0-.72.28-1.32.85-1.81.57-.49,1.45-.73,2.64-.73s1.98.19,2.53.55c.55.37.93.92,1.14,1.64l-2.07.38c-.09-.32-.26-.57-.5-.74s-.6-.26-1.06-.26c-.58,0-.99.08-1.24.24-.17.11-.25.26-.25.45,0,.16.07.29.22.4.2.15.88.35,2.05.62s1.99.59,2.45.98c.46.39.69.94.69,1.63,0,.76-.32,1.41-.95,1.96s-1.58.82-2.82.82c-1.13,0-2.02-.23-2.68-.69-.66-.46-1.09-1.08-1.29-1.87Z"/>
    <path class="cls-7" d="M1003.66,319.52l-2.16.39c-.07-.43-.24-.76-.5-.98s-.59-.33-1-.33c-.55,0-.98.19-1.31.57-.33.38-.49,1.01-.49,1.89,0,.98.17,1.68.5,2.09s.77.61,1.33.61c.42,0,.76-.12,1.02-.36.27-.24.45-.64.56-1.22l2.16.37c-.22.99-.65,1.74-1.29,2.24-.64.51-1.49.76-2.55.76-1.21,0-2.18-.38-2.9-1.15s-1.08-1.83-1.08-3.18.36-2.44,1.09-3.2c.72-.76,1.7-1.14,2.94-1.14,1.01,0,1.81.22,2.41.65.6.44,1.02,1.1,1.29,1.99Z"/>
    <path class="cls-7" d="M1004.81,321.09c0-.73.18-1.43.54-2.12.36-.68.87-1.2,1.53-1.56s1.39-.54,2.21-.54c1.25,0,2.28.41,3.09,1.22.8.82,1.2,1.85,1.2,3.09s-.41,2.3-1.21,3.12c-.81.83-1.83,1.24-3.06,1.24-.76,0-1.49-.17-2.18-.52s-1.21-.85-1.57-1.51-.54-1.47-.54-2.43ZM1007.06,321.21c0,.82.2,1.45.59,1.89s.87.66,1.45.66,1.05-.22,1.44-.66.58-1.07.58-1.91-.19-1.44-.58-1.88-.87-.66-1.44-.66-1.05.22-1.45.66-.59,1.07-.59,1.89Z"/>
    <path class="cls-7" d="M1020.56,325.36v-1.24c-.3.44-.7.79-1.19,1.05s-1.01.38-1.56.38-1.06-.12-1.5-.37-.76-.59-.96-1.03c-.2-.44-.3-1.05-.3-1.84v-5.25h2.2v3.81c0,1.17.04,1.88.12,2.14.08.26.23.47.44.62.21.15.48.23.81.23.38,0,.71-.1,1.01-.31.3-.21.5-.46.61-.77s.16-1.05.16-2.24v-3.5h2.2v8.3h-2.04Z"/>
    <path class="cls-7" d="M1024.87,325.36v-11.45h2.2v11.45h-2.2Z"/>
    <path class="cls-7" d="M1036.92,325.36h-2.04v-1.22c-.34.47-.74.83-1.2,1.06s-.93.35-1.39.35c-.95,0-1.77-.38-2.45-1.15-.68-.77-1.02-1.84-1.02-3.21s.33-2.48.99-3.21c.66-.73,1.5-1.1,2.51-1.1.93,0,1.73.39,2.41,1.16v-4.12h2.2v11.45ZM1031.06,321.03c0,.89.12,1.53.37,1.92.35.57.85.86,1.48.86.5,0,.93-.21,1.29-.64s.53-1.07.53-1.93c0-.95-.17-1.64-.52-2.06-.34-.42-.78-.63-1.32-.63s-.96.21-1.31.62-.53,1.03-.53,1.86Z"/>
    <path class="cls-7" d="M1043.44,325.36v-11.45h2.2v4.12c.68-.77,1.48-1.16,2.41-1.16,1.01,0,1.85.37,2.51,1.1.66.73.99,1.78.99,3.15s-.34,2.51-1.01,3.27-1.49,1.15-2.46,1.15c-.47,0-.94-.12-1.4-.36s-.86-.59-1.19-1.05v1.22h-2.04ZM1045.62,321.03c0,.86.14,1.5.41,1.91.38.58.89.88,1.52.88.48,0,.9-.21,1.24-.62s.51-1.07.51-1.96c0-.95-.17-1.63-.52-2.05-.34-.42-.78-.63-1.32-.63s-.96.2-1.31.61c-.35.41-.52,1.03-.52,1.86Z"/>
    <path class="cls-7" d="M1058.11,322.72l2.19.37c-.28.8-.73,1.41-1.33,1.83-.61.42-1.37.63-2.28.63-1.44,0-2.51-.47-3.2-1.41-.55-.75-.82-1.71-.82-2.86,0-1.38.36-2.45,1.08-3.23.72-.78,1.63-1.17,2.73-1.17,1.23,0,2.21.41,2.92,1.22.71.82,1.05,2.06,1.02,3.75h-5.5c.02.65.19,1.16.53,1.52.34.36.76.54,1.27.54.34,0,.63-.09.87-.28s.41-.49.53-.91ZM1058.24,320.5c-.02-.64-.18-1.12-.49-1.45-.31-.33-.69-.5-1.14-.5-.48,0-.88.17-1.19.52-.31.35-.47.82-.46,1.42h3.28Z"/>
    <path class="cls-7" d="M1068.29,319.59l-1.99-.36c.22-.8.61-1.4,1.16-1.78.55-.39,1.36-.58,2.44-.58.98,0,1.71.12,2.19.35.48.23.82.53,1.01.88.2.36.29,1.01.29,1.96l-.02,2.56c0,.73.04,1.27.11,1.61.07.35.2.72.39,1.11h-2.17c-.06-.15-.13-.36-.21-.65-.04-.13-.06-.22-.08-.26-.38.36-.78.64-1.2.82s-.88.27-1.37.27c-.85,0-1.53-.23-2.02-.7-.49-.46-.74-1.05-.74-1.76,0-.47.11-.89.34-1.25s.54-.65.94-.84.99-.37,1.75-.51c1.03-.19,1.74-.37,2.13-.54v-.22c0-.42-.1-.72-.31-.9s-.6-.27-1.18-.27c-.39,0-.7.08-.91.23-.22.15-.4.42-.53.81ZM1071.23,321.38c-.28.09-.73.21-1.34.34-.61.13-1.01.26-1.2.38-.29.2-.43.46-.43.77s.11.57.34.8c.23.22.52.34.88.34.4,0,.77-.13,1.13-.39.27-.2.44-.44.52-.73.06-.19.09-.54.09-1.07v-.44Z"/>
    <path class="cls-7" d="M1081.01,325.36v-1.24c-.3.44-.7.79-1.19,1.05s-1.01.38-1.56.38-1.06-.12-1.5-.37-.76-.59-.96-1.03c-.2-.44-.3-1.05-.3-1.84v-5.25h2.2v3.81c0,1.17.04,1.88.12,2.14.08.26.23.47.44.62.21.15.48.23.81.23.38,0,.71-.1,1.01-.31.3-.21.5-.46.61-.77s.16-1.05.16-2.24v-3.5h2.2v8.3h-2.04Z"/>
    <path class="cls-7" d="M1089.13,317.06v1.75h-1.5v3.34c0,.68.01,1.07.04,1.18.03.11.09.2.2.28.1.07.23.11.37.11.2,0,.5-.07.88-.21l.19,1.7c-.51.22-1.09.33-1.73.33-.4,0-.75-.07-1.07-.2s-.55-.3-.7-.52-.25-.5-.31-.86c-.05-.25-.07-.77-.07-1.55v-3.62h-1.01v-1.75h1.01v-1.65l2.2-1.28v2.93h1.5Z"/>
    <path class="cls-7" d="M1090.14,321.09c0-.73.18-1.43.54-2.12.36-.68.87-1.2,1.53-1.56s1.39-.54,2.21-.54c1.25,0,2.28.41,3.09,1.22.8.82,1.2,1.85,1.2,3.09s-.41,2.3-1.21,3.12c-.81.83-1.83,1.24-3.06,1.24-.76,0-1.49-.17-2.18-.52s-1.21-.85-1.57-1.51-.54-1.47-.54-2.43ZM1092.39,321.21c0,.82.2,1.45.59,1.89s.87.66,1.45.66,1.05-.22,1.44-.66.58-1.07.58-1.91-.19-1.44-.58-1.88-.87-.66-1.44-.66-1.05.22-1.45.66-.59,1.07-.59,1.89Z"/>
    <path class="cls-7" d="M1100.26,317.06h2.02v1.13c.72-.88,1.59-1.32,2.59-1.32.53,0,.99.11,1.38.33s.71.55.96.99c.36-.44.76-.77,1.18-.99s.87-.33,1.35-.33c.61,0,1.12.12,1.55.37.42.25.74.61.95,1.09.15.35.23.93.23,1.72v5.3h-2.2v-4.74c0-.82-.08-1.35-.23-1.59-.2-.31-.52-.47-.94-.47-.31,0-.6.09-.87.28s-.47.46-.59.82c-.12.36-.18.93-.18,1.71v3.98h-2.2v-4.55c0-.81-.04-1.33-.12-1.56s-.2-.41-.36-.52c-.16-.11-.39-.17-.67-.17-.34,0-.64.09-.91.27-.27.18-.46.45-.58.79s-.18.91-.18,1.71v4.03h-2.2v-8.3Z"/>
    <path class="cls-7" d="M1116.29,319.59l-1.99-.36c.22-.8.61-1.4,1.16-1.78.55-.39,1.36-.58,2.44-.58.98,0,1.71.12,2.19.35.48.23.82.53,1.01.88.2.36.29,1.01.29,1.96l-.02,2.56c0,.73.04,1.27.11,1.61.07.35.2.72.39,1.11h-2.17c-.06-.15-.13-.36-.21-.65-.04-.13-.06-.22-.08-.26-.38.36-.78.64-1.2.82s-.88.27-1.37.27c-.85,0-1.53-.23-2.02-.7-.49-.46-.74-1.05-.74-1.76,0-.47.11-.89.34-1.25s.54-.65.94-.84.99-.37,1.75-.51c1.03-.19,1.74-.37,2.13-.54v-.22c0-.42-.1-.72-.31-.9s-.6-.27-1.18-.27c-.39,0-.7.08-.91.23-.22.15-.4.42-.53.81ZM1119.23,321.38c-.28.09-.73.21-1.34.34-.61.13-1.01.26-1.2.38-.29.2-.43.46-.43.77s.11.57.34.8c.23.22.52.34.88.34.4,0,.77-.13,1.13-.39.27-.2.44-.44.52-.73.06-.19.09-.54.09-1.07v-.44Z"/>
    <path class="cls-7" d="M1127.35,317.06v1.75h-1.5v3.34c0,.68.01,1.07.04,1.18.03.11.09.2.2.28.1.07.23.11.37.11.2,0,.5-.07.88-.21l.19,1.7c-.51.22-1.09.33-1.73.33-.4,0-.75-.07-1.07-.2s-.55-.3-.7-.52-.25-.5-.31-.86c-.05-.25-.07-.77-.07-1.55v-3.62h-1.01v-1.75h1.01v-1.65l2.2-1.28v2.93h1.5Z"/>
    <path class="cls-7" d="M1133.68,322.72l2.19.37c-.28.8-.73,1.41-1.33,1.83-.61.42-1.37.63-2.28.63-1.44,0-2.51-.47-3.2-1.41-.55-.75-.82-1.71-.82-2.86,0-1.38.36-2.45,1.08-3.23.72-.78,1.63-1.17,2.73-1.17,1.23,0,2.21.41,2.92,1.22.71.82,1.05,2.06,1.02,3.75h-5.5c.02.65.19,1.16.53,1.52.34.36.76.54,1.27.54.34,0,.63-.09.87-.28s.41-.49.53-.91ZM1133.81,320.5c-.02-.64-.18-1.12-.49-1.45-.31-.33-.69-.5-1.14-.5-.48,0-.88.17-1.19.52-.31.35-.47.82-.46,1.42h3.28Z"/>
    <path class="cls-7" d="M1145.38,325.36h-2.04v-1.22c-.34.47-.74.83-1.2,1.06s-.93.35-1.39.35c-.95,0-1.77-.38-2.45-1.15-.68-.77-1.02-1.84-1.02-3.21s.33-2.48.99-3.21c.66-.73,1.5-1.1,2.51-1.1.93,0,1.73.39,2.41,1.16v-4.12h2.2v11.45ZM1139.53,321.03c0,.89.12,1.53.37,1.92.35.57.85.86,1.48.86.5,0,.93-.21,1.29-.64s.53-1.07.53-1.93c0-.95-.17-1.64-.52-2.06-.34-.42-.78-.63-1.32-.63s-.96.21-1.31.62-.53,1.03-.53,1.86Z"/>
  </g>
</svg>