<?xml version="1.0" encoding="UTF-8"?>
<svg id="layer" xmlns="http://www.w3.org/2000/svg" viewBox="0 0 450 525">
  <defs>
    <style>
      .cls-1 {
        stroke: #0333ff;
      }

      .cls-1, .cls-2 {
        stroke-width: 2px;
      }

      .cls-1, .cls-2, .cls-3 {
        fill: none;
        stroke-miterlimit: 10;
      }

      .cls-2, .cls-3 {
        stroke: #000;
      }

      .cls-4, .cls-5 {
        stroke-width: 0px;
      }

      .cls-4, .cls-6 {
        fill: #0333ff;
      }

      .cls-5, .cls-7, .cls-8 {
        fill: #000;
      }

      .cls-7, .cls-6 {
        font-family: Arial-BoldMT, Arial;
        font-size: 16px;
        font-weight: 700;
        letter-spacing: 0em;
      }

      .cls-8 {
        font-family: ArialMT, Arial;
        font-size: 18px;
      }
    </style>
  </defs>
  <g>
    <line class="cls-3" x1="53.16" y1="69" x2="52.97" y2="432.43"/>
    <polygon class="cls-5" points="48.18 70.46 53.17 61.83 58.15 70.47 48.18 70.46"/>
  </g>
  <text class="cls-8" transform="translate(41.68 212.77) rotate(-90)"><tspan x="0" y="0">Enabling effects</tspan></text>
  <g>
    <line class="cls-3" x1="416.59" y1="432.42" x2="53.17" y2="432.23"/>
    <polygon class="cls-5" points="415.13 427.44 423.77 432.43 415.13 437.41 415.13 427.44"/>
  </g>
  <text class="cls-8" transform="translate(234.83 457.33)"><tspan x="0" y="0">Productivity increase</tspan></text>
  <g>
    <line class="cls-1" x1="156.64" y1="328.86" x2="315.02" y2="170.47"/>
    <polygon class="cls-4" points="317.52 175.03 320.1 165.4 310.47 167.98 317.52 175.03"/>
  </g>
  <g>
    <line class="cls-2" x1="163.17" y1="382.23" x2="287.16" y2="382.23"/>
    <polygon class="cls-5" points="285.7 387.22 294.34 382.23 285.7 377.24 285.7 387.22"/>
  </g>
  <g>
    <line class="cls-2" x1="104.9" y1="322.23" x2="104.9" y2="198.24"/>
    <polygon class="cls-5" points="109.89 199.7 104.9 191.06 99.92 199.7 109.89 199.7"/>
  </g>
  <text class="cls-7" transform="translate(125.09 322.23) rotate(-90)"><tspan x="0" y="0">Useless stuff</tspan></text>
  <text class="cls-6" transform="translate(212.13 260.18) rotate(-45)"><tspan x="0" y="0">Great stuff</tspan></text>
  <text class="cls-7" transform="translate(163.17 402.52)"><tspan x="0" y="0">Optimizations</tspan></text>
</svg>