<svg id="Ebene_1" data-name="Ebene 1" xmlns="http://www.w3.org/2000/svg" viewBox="0 0 988 525"><defs><style>.cls-1{fill:none;stroke:#1d1d1b;stroke-miterlimit:10;}.cls-2,.cls-7{font-size:26px;font-family:Courier;}.cls-16,.cls-17,.cls-18,.cls-2,.cls-7{fill:#1d1d1b;}.cls-2{letter-spacing:0.01em;}.cls-3{letter-spacing:0.02em;}.cls-4{letter-spacing:0.02em;}.cls-5{letter-spacing:0em;}.cls-6{letter-spacing:0.04em;}.cls-7{letter-spacing:0.02em;}.cls-8{letter-spacing:0em;}.cls-9{letter-spacing:0em;}.cls-10{letter-spacing:0.02em;}.cls-11{letter-spacing:0.01em;}.cls-12{letter-spacing:0.06em;}.cls-13{letter-spacing:0.05em;}.cls-14{letter-spacing:0.02em;}.cls-15{letter-spacing:0em;}.cls-16{font-size:67.52px;font-family:BasierSquare-Regular, Basier Square;}.cls-17{font-size:18px;font-family:ArialMT, Arial;}</style></defs><rect class="cls-1" x="62.5" y="62.5" width="590.58" height="400"/><rect class="cls-1" x="850.5" y="62.5" width="75" height="400"/><text class="cls-2" transform="translate(89.48 117.95)">A<tspan class="cls-3" x="15.9" y="0">g</tspan><tspan class="cls-4" x="31.97" y="0">e</tspan><tspan class="cls-5" x="48.13" y="0">n</tspan><tspan class="cls-6" x="63.7" y="0">t</tspan></text><text class="cls-7" transform="translate(895.26 350.9) rotate(-90)">E<tspan class="cls-8" x="16.03" y="0">n</tspan><tspan class="cls-9" x="31.75" y="0">v</tspan><tspan class="cls-10" x="47.37" y="0">i</tspan><tspan class="cls-11" x="63.55" y="0">r</tspan><tspan x="79.46" y="0">o</tspan><tspan class="cls-12" x="95.48" y="0">n</tspan><tspan class="cls-13" x="112.67" y="0">m</tspan><tspan class="cls-14" x="129.46" y="0">e</tspan><tspan class="cls-15" x="145.62" y="0">n</tspan><tspan class="cls-6" x="161.19" y="0">t</tspan></text><text class="cls-16" transform="translate(509.75 282.92)">?</text><text class="cls-17" transform="translate(495.06 117.95)">Sensors</text><text class="cls-17" transform="translate(490.06 417.95)">Actuators</text><rect class="cls-1" x="453.08" y="187.5" width="150" height="150"/><line class="cls-1" x1="528.08" y1="137.5" x2="528.08" y2="180.32"/><polygon class="cls-18" points="523.09 178.87 528.08 187.5 533.07 178.87 523.09 178.87"/><line class="cls-1" x1="603.08" y1="412.5" x2="870.9" y2="412.5"/><polygon class="cls-18" points="869.45 417.49 878.08 412.5 869.45 407.51 869.45 417.49"/><line class="cls-1" x1="878.08" y1="112.5" x2="610.26" y2="112.5"/><polygon class="cls-18" points="611.71 107.51 603.08 112.5 611.71 117.49 611.71 107.51"/><line class="cls-1" x1="528.08" y1="337.5" x2="528.08" y2="380.32"/><polygon class="cls-18" points="523.09 378.87 528.08 387.5 533.07 378.87 523.09 378.87"/><text class="cls-17" transform="translate(717.27 141.43)">percepts</text><text class="cls-17" transform="translate(685.26 442.22)">performs actions</text></svg>