<?xml version="1.0" encoding="UTF-8"?>
<svg id="maturity" xmlns="http://www.w3.org/2000/svg" viewBox="0 0 988 525">
  <defs>
    <style>
      .cls-1 {
        font-family: ArialMT, Arial;
      }

      .cls-2, .cls-3 {
        fill: #000;
        font-size: 12px;
      }

      .cls-4 {
        stroke: #1d1d1b;
      }

      .cls-4, .cls-5, .cls-6 {
        fill: none;
        stroke-miterlimit: 10;
      }

      .cls-4, .cls-6 {
        stroke-width: .5px;
      }

      .cls-5 {
        stroke: #000;
      }

      .cls-7, .cls-3 {
        font-family: Arial-BoldMT, Arial;
        font-weight: 700;
      }

      .cls-6 {
        stroke: #0333ff;
      }
    </style>
  </defs>
  <path class="cls-6" d="M862.94,359.96c-24.8.84-31.42-1.85-48.18,2.88-1.49.42-2.93.96-4.39,1.44-1.45,1.44-2.78,3.01-4.38,4.32-1.34,1.1-3.13,1.66-4.38,2.88-1.24,1.22-1.94,2.88-2.92,4.32-.34-.05-17.87-2.44-18.98-2.88-2.27-.89-3.86-2.93-5.84-4.32-2.34-1.64-7.59-5.11-10.22-5.76-3.82-.94-7.79-.96-11.69-1.44-1.46-.96-3.29-1.52-4.38-2.88-.96-1.19-.61-3.06-1.46-4.32-1.14-1.69-2.92-2.88-4.38-4.32-5.35,1.44-11.27,1.56-16.07,4.32-1.73,1-.35,4.12-1.45,5.76-2.8,4.14-11.37,3.86-14.61,4.32-9.73-.48-19.52-.34-29.2-1.44-3.06-.35-8.76-2.88-8.76-2.88-.49-2.4-.23-5.08-1.46-7.2-2.71-4.68-6.49-2.5-10.22-1.44-1.48.42-2.92.96-4.38,1.44-.97,1.44-1.68,3.1-2.92,4.32-7.01,6.91-19.82,3.83-27.75,4.32-57.51-2.03-24.93,1.28-48.18-2.88-11.31-2.03-5.42-.34-13.14-2.88.48-2.88-.64-6.57,1.45-8.64,1.25-1.22,4.07,1.18,4.38,2.88.79,4.27.52,9.07-1.45,12.96-.9,1.78-3.85,1.18-5.84,1.44-5.33.7-10.71.96-16.07,1.44-8.76-.86-13.79.36-20.44-4.32-1.68-1.19-2.92-2.88-4.38-4.32-5.04-12.41-1.24-2.11-4.38-12.96-.42-1.46-2.95-3.95-1.46-4.32,2.54-.62,4.87,1.92,7.31,2.88,1.45,2.4,2.81,4.87,4.38,7.2,1.34,1.99,3.29,3.61,4.38,5.76.9,1.78.97,3.84,1.46,5.76-.49,4.32.04,8.88-1.46,12.96-.6,1.63-2.78,2.17-4.38,2.88-2.82,1.24-8.76,2.88-8.76,2.88-3.3-.25-20.66.31-26.29-4.32-1.19-.97-1.04-2.86-1.46-4.32-.55-1.91-.97-3.84-1.46-5.76-.48-4.32-.73-8.67-1.45-12.96-2.23-13.16-7.77,8.07,0-24.48.47-1.98,2.75-3.07,4.38-4.32,2.77-2.12,8.76-5.76,8.76-5.76,3.9.48,7.95.22,11.69,1.44,3.01,1,9.8,8.23,11.67,10.08-1.15,22.71,6.59,24.87-5.83,31.67-2.86,1.56-5.74,3.12-8.77,4.32-1.86.73-3.89.96-5.84,1.44-1.45,1.44-2.7,3.13-4.38,4.32-4.01,2.82-6.77,2.36-10.22,5.76-2.2,2.17-3.64,5.03-5.83,7.2-1.73,1.69-3.86,2.93-5.84,4.32-3.13,2.2-6.62,4.43-10.22,5.76-1.88.7-3.9.96-5.84,1.44-4.87-.96-10.04-.95-14.6-2.88-7.88-3.32-4.44-5.15-7.31-10.08-2.5-4.31-5.3-6.67-8.76-10.08-3.67-10.86,1.28,2.52-4.38-8.64-.7-1.36-.97-2.88-1.46-4.32.49-8.16.29-16.39,1.46-24.48.3-2.12,1.86-3.89,2.92-5.76,1.38-2.45,2.64-4.99,4.38-7.2,16.53-20.95-1.7,5.4,8.77-10.08,7.29,1.44,19.36-2.59,21.9,4.32,12.63,34.49,7.58,40.33-8.76,51.83-2.59,1.82-7.27,4.88-10.22,5.76-2.83.84-5.84.96-8.76,1.44-16.07-.96-32.2-1.13-48.2-2.88-1.74-.19-2.81-2.11-4.38-2.88-1.37-.68-2.92-.96-4.38-1.44-4.03-15.92-5.6-16.43,0-37.43.4-1.46,2.9-1.02,4.38-1.44,1.93-.54,3.9-.96,5.84-1.44,4.87.96,9.77,1.78,14.6,2.88,1.5.34,3.18.49,4.38,1.44,1.38,1.08,1.96,2.88,2.93,4.32.48,2.4.92,4.81,1.45,7.2.44,1.93,1.46,3.78,1.46,5.76,0,3.02.17,16.95-2.92,23.04-.79,1.55-1.78,3-2.93,4.32-1.79,2.06-3.37,4.55-5.84,5.76-2.64,1.31-5.83.96-8.76,1.44-11.19-.96-22.65-.29-33.58-2.88-2.12-.5-2.06-3.79-2.93-5.76-1.68-3.88-2.06-7.29-2.92-11.52,2.72-14.76-1.38-15.07,10.22-20.16,1.84-.8,3.9-.96,5.84-1.44,2.44.48,6.81-.96,7.29,1.44,1.52,7.51-6.32,16.2-11.67,20.16-1.24.91-2.93.96-4.38,1.44-5.1-.5-25.71,2.02-33.59-5.76-1.24-1.22-1.94-2.88-2.92-4.32,1.46-6.24,1.97-12.78,4.38-18.72.65-1.61,2.68-3.3,4.38-2.88,3.02.74,4.87,3.84,7.31,5.76-.12,3.41,1.8,42.2-4.38,56.15-1.85,4.15-5.14,7.53-7.31,11.52-1.25,2.28-1.42,5.09-2.92,7.2-4.76,6.71-6.8,6.96-13.15,10.08-3.89-2.4-8.12-4.33-11.67-7.2-1.88-1.52-2.77-3.97-4.39-5.76-14.43-16.02-1.4.55-11.67-12.96-6.32-18.68,1-.07-7.31-14.4-.92-1.61-2.6-8.83-2.92-10.08.48-6.72-.3-13.65,1.45-20.16.41-1.46,2.94-.91,4.39-1.44,13.37-4.94,2.47-2.45,23.36-4.32,3.41.96,7.21,1.03,10.22,2.88,1.31.8,1.15,2.83,1.46,4.32.67,3.32.82,6.74,1.45,10.08.83,4.34,1.96,8.64,2.93,12.96-.04.48,2.81,23.12-4.38,28.8-1.21.95-2.93.96-4.39,1.44-5.35-.48-11.13.68-16.05-1.44-4.45-1.92-8.04-10.08-10.22-14.4-1.52-6.77-2.4-13.94-5.84-20.16-1.68-3.04-3.9-5.76-5.84-8.64-.49-1.92-.91-3.85-1.46-5.76-1.44-4.98-4.15-8.54,0-14.4,2.24-3.16,10.71-4.8,14.6-5.76,32.92,1.7,23.59-7.08,30.67,8.64.89,1.96,1.96,3.84,2.93,5.76-4.48,39.65,4.75,31.58-16.07,50.39-1.8,1.62-3.9,2.88-5.84,4.32-12.66-2.88-25.6-4.72-37.96-8.64-1.68-.53-1.8-2.99-2.93-4.32-1.32-1.56-3.06-2.76-4.38-4.32-2.98-3.53-4.34-7.1-5.84-11.52-.64-1.87-.97-3.84-1.45-5.76,5.84-30.79-3.37-19.35,8.76-24.48,2-.84,3.89-1.92,5.84-2.88,1.45,2.4,4.24,4.4,4.38,7.2,1.42,27.94,5.93,43.76-8.76,63.35-5.34,7.11-9.68,15.86-17.53,20.16-4.38,2.4-8.49,5.36-13.14,7.2-2.76,1.08-5.86.91-8.77,1.44-2.44.43-4.86.96-7.29,1.44-3.41-1.44-7.22-2.17-10.22-4.32-2.52-1.81-4.27-4.55-5.84-7.2-3.78-6.38-5.28-13.17-7.31-20.16.49-20.64.13-41.31,1.46-61.91.14-2.15,1.51-4.12,2.93-5.76,4-4.67,6.96-12.45,13.14-12.96l35.05-2.88c3.41-.96,6.73-3.5,10.22-2.88,6.31,1.13,6.47,8.83,7.31,12.96-.59,14.47,6.92,32.98-7.31,41.75-1.7,1.04-3.9.96-5.84,1.44-34.22-5.33-21.19.47-48.18-17.28-3.49-2.29-10.22-7.2-10.22-7.2-1.46-2.4-2.81-4.87-4.38-7.2-1.36-1.99-3.3-3.61-4.39-5.76-.89-1.78-.97-3.84-1.45-5.76.48-10.56-.24-21.24,1.45-31.67.34-2.02,2.71-3.12,4.39-4.32,9.55-6.85,9.9-6.49,18.98-10.08,7.79,1.44,20.31-2.89,23.36,4.32,11.54,27.31,3.86,43.88-11.67,60.47-2.12,2.26-5.1,3.59-7.31,5.76-4.8,4.74-12.07,15.31-18.98,18.72-2.65,1.31-5.86.91-8.77,1.44-22.45,4.02,9.77-1.37-16.05,2.88-6.81-2.4-15.33-2.16-20.44-7.2-13.09-12.91-15.14-25.16-18.98-40.31-1.7-18.39-3.11-16.21,2.92-35.99.94-3.08,2.15-6.3,4.38-8.64,8.85-9.27,18-16.08,29.2-21.6,5.14-2.53,12.62-6.3,18.98-7.2,4.85-.68,9.74-.96,14.61-1.44,7.55-1.66,15.51-6.26,21.9,1.44,2.64,3.18,2.93,7.68,4.38,11.52-1.91,17.94,4.6,24.37-7.29,30.24-2.35,1.15-4.87,1.92-7.31,2.88-20.43-1.3-52.44,1.18-71.56-12.96-1.94-1.44-4.12-2.63-5.83-4.32-2.06-2.04-4.7-7.82-5.84-10.08.48-6.72-.6-13.74,1.46-20.16,1.03-3.24,4.43-5.32,7.29-7.2,4.52-2.98,9.79-4.7,14.6-7.2,4.44-2.3,8.39-5.64,13.15-7.2,5.62-1.85,11.67-1.92,17.52-2.88,25.36-13.89-.16-2.24,30.67-8.64,3.62-.76,6.75-3.04,10.22-4.32,4.32-1.6,13.14-4.32,13.14-4.32,4.62,7.58,5.84,7.49,5.84,17.28,0,17.77.17,35.59-1.46,53.27-.34,3.64-2.71,6.81-4.38,10.08-2.23,4.42-4.2,9.07-7.29,12.96-6.32,7.93-13.02,8.58-21.91,12.96-3.5,1.73-6.66,4.14-10.22,5.76-7.19,3.28-11.12,3.22-18.98,4.32-18.98-.96-38.03-1.1-56.95-2.88-7.93-.74-3.31-6.3,0-8.64,1.63-1.15,3.86-1.12,5.84-1.44,3.88-.64,7.79-.96,11.69-1.44,9.25.48,18.63-.19,27.74,1.44,2.04.36,3.18,2.66,4.38,4.32,1.27,1.75,1.78,3.94,2.93,5.76,1.28,2.04,2.92,3.84,4.38,5.76.97,3.36,1.64,6.81,2.92,10.08,1.18,3,3.54,5.53,4.38,8.64,1.14,4.2.98,8.64,1.46,12.96-.48,12-.16,24.06-1.46,35.99-.18,1.72-1.16,4.4-2.92,4.32-9.92-.44-19.47-3.84-29.2-5.76-5.08-3.58-13.8-8.88-17.53-14.4-2.05-3.04-3.28-6.59-4.38-10.08-.96-3.04-3.42-15.43-4.38-20.16,5.72-27.06-3.31-32.38,14.6-37.43,4.32-1.21,8.76-1.92,13.15-2.88,13.63.96,27.68-.59,40.88,2.88,2.98.78,1.96,5.76,2.93,8.64,4.04,11.95,2.08,5.72,5.84,18.72,2.54,22.64,6.61,53.37,0,71.99-2.1,5.9-12.66-.96-18.99-1.44-2.42-2.88-4.73-5.88-7.29-8.64-2.8-3-6.13-5.5-8.76-8.64-4.21-5.04-7.4-10.86-11.69-15.84-24.15-28.02-2.63,2.59-24.82-27.36-5.58-7.52-16.07-23.04-16.07-23.04-.48-3.36-.94-6.72-1.46-10.08-.44-2.88-1.57-5.72-1.45-8.64.37-9.17.94-18.39,2.92-27.36.52-2.34,2.74-4,4.38-5.76,6.68-7.19,18.03-17.95,26.29-23.04,8.93-5.51,54.3-25.27,56.95-25.92,3.89-.96,7.89-1.56,11.67-2.88,4.52-1.57,8.6-4.26,13.15-5.76,2.81-.92,5.87-.8,8.76-1.44,1.5-.32,2.92-.96,4.38-1.44,4.38,1.92,9.89,2.29,13.15,5.76,6.6,7.01,6.6,23.77,8.76,31.67,1.88,6.89,4.87,13.44,7.29,20.16.97,6.72,1.52,13.51,2.93,20.16,1.03,4.91,4.57,9.39,4.38,14.4-.79,19.81-3.52,39.56-7.31,59.03-.66,3.4-3.58,6-5.83,8.64-3.12,3.62-10.22,10.08-10.22,10.08-14.61-.48-29.64,2.05-43.82-1.44-2.99-.73,1.3-6.06,2.93-8.64.92-1.46,2.95-1.87,4.38-2.88,8.01-5.65,3-3.62,11.67-5.76-1.94-.96-3.84-2.04-5.83-2.88-1.42-.6-2.92-1.01-4.38-1.44-3.4-1.01-6.81-1.92-10.22-2.88l-2.93-4.32"/>
  <text class="cls-2" transform="translate(323.77 260.81)"><tspan class="cls-7"><tspan x="0" y="0">Problem space</tspan></tspan><tspan class="cls-1"><tspan x="-47.36" y="14.4">uncertainty — patterns — insights</tspan></tspan></text>
  <text class="cls-2" transform="translate(578.93 260.81)"><tspan class="cls-7"><tspan x="0" y="0">Solution space</tspan></tspan><tspan class="cls-1"><tspan x="-28.68" y="14.4">clarity — direction — focus</tspan></tspan></text>
  <text class="cls-3" transform="translate(211.84 467.64)"><tspan x="0" y="0">Research</tspan></text>
  <text class="cls-3" transform="translate(470 467.64)"><tspan x="0" y="0">Concept</tspan></text>
  <text class="cls-3" transform="translate(704.81 467.64)"><tspan x="0" y="0">Implementation</tspan></text>
  <g>
    <line class="cls-4" x1="416.3" y1="256.01" x2="486.73" y2="256.01"/>
    <line class="cls-4" x1="486.59" y1="249.33" x2="486.59" y2="262.7"/>
  </g>
  <g>
    <line class="cls-4" x1="311.01" y1="256.01" x2="193.58" y2="256.01"/>
    <line class="cls-4" x1="193.58" y1="262.7" x2="193.58" y2="249.33"/>
  </g>
  <g>
    <g>
      <line class="cls-4" x1="677.58" y1="256.01" x2="805.01" y2="256.01"/>
      <line class="cls-4" x1="805.01" y1="249.33" x2="805.01" y2="262.7"/>
    </g>
    <g>
      <line class="cls-4" x1="565.29" y1="256.01" x2="505.8" y2="256.01"/>
      <line class="cls-4" x1="505.8" y1="262.7" x2="505.8" y2="249.33"/>
    </g>
  </g>
  <line class="cls-5" x1="238.86" y1="446.35" x2="238.86" y2="393.74"/>
  <line class="cls-5" x1="495.74" y1="446.35" x2="495.74" y2="393.74"/>
  <line class="cls-5" x1="749.14" y1="446.35" x2="749.14" y2="393.74"/>
</svg>