<?xml version="1.0" encoding="UTF-8"?><svg id="Ebene_1" xmlns="http://www.w3.org/2000/svg" viewBox="0 0 988 525"><path d="M298.07,196.92c39.1,0,70.79,31.69,70.79,70.79s-31.69,70.79-70.79,70.79-70.79-31.69-70.79-70.79,31.69-70.79,70.79-70.79" style="fill:#0333ff;"/><path d="M655.42,177.82c-18.59,18.59-48.73,18.59-67.33,0-18.59-18.59-18.59-48.73,0-67.33,18.59-18.59,48.73-18.59,67.33,0,18.59,18.59,18.59,48.73,0,67.33" style="fill:#fff; stroke:#0333ff; stroke-dasharray:0 0 6.73 7.73;"/><text transform="translate(591.46 133.85)" style="fill:#1d1d1b; font-family:ArialMT, Arial; font-size:12px;"><tspan x="0" y="0" style="letter-spacing:0em;">P</tspan><tspan x="7.93" y="0" style="letter-spacing:0em;">r</tspan><tspan x="11.88" y="0" style="letter-spacing:0em;">e</tspan><tspan x="18.63" y="0" style="letter-spacing:0em;">l</tspan><tspan x="21.33" y="0" style="letter-spacing:0em;">i</tspan><tspan x="24.05" y="0" style="letter-spacing:0em;">m</tspan><tspan x="34.1" y="0" style="letter-spacing:0em;">i</tspan><tspan x="36.84" y="0" style="letter-spacing:0em;">n</tspan><tspan x="43.56" y="0" style="letter-spacing:0em;">a</tspan><tspan x="50.29" y="0" style="letter-spacing:.03em;">r</tspan><tspan x="54.6" y="0">y</tspan><tspan x=".25" y="14.4" style="letter-spacing:-.01em;">F</tspan><tspan x="7.46" y="14.4" style="letter-spacing:0em;">r</tspan><tspan x="11.51" y="14.4" style="letter-spacing:.01em;">a</tspan><tspan x="18.34" y="14.4">mework</tspan><tspan x="-2" y="28.8" style="letter-spacing:.01em;">&amp; </tspan><tspan x="9.65" y="28.8" style="letter-spacing:0em;">P</tspan><tspan x="17.67" y="28.8" style="letter-spacing:0em;">r</tspan><tspan x="21.72" y="28.8" style="letter-spacing:.01em;">i</tspan><tspan x="24.56" y="28.8" style="letter-spacing:.01em;">n</tspan><tspan x="31.35" y="28.8" style="letter-spacing:0em;">c</tspan><tspan x="37.45" y="28.8" style="letter-spacing:.01em;">i</tspan><tspan x="40.28" y="28.8" style="letter-spacing:.01em;">p</tspan><tspan x="47.1" y="28.8" style="letter-spacing:.01em;">l</tspan><tspan x="49.89" y="28.8" style="letter-spacing:0em;">e</tspan><tspan x="56.6" y="28.8">s</tspan></text><path d="M330.26,126.12c-18.16,18.16-47.7,18.16-65.86,0-18.16-18.16-18.16-47.7,0-65.86,8.8-8.8,20.49-13.64,32.93-13.64s24.13,4.84,32.93,13.64c18.16,18.16,18.16,47.7,0,65.86" style="fill:#fff;"/><path d="M330.26,126.12c-18.16,18.16-47.7,18.16-65.86,0-18.16-18.16-18.16-47.7,0-65.86,8.8-8.8,20.49-13.64,32.93-13.64s24.13,4.84,32.93,13.64c18.16,18.16,18.16,47.7,0,65.86Z" style="fill:#fff; stroke:#0333ff; stroke-width:2px;"/><g><text transform="translate(290.11 75.84)" style="fill:#0333ff; font-family:Arial-BoldMT, Arial; font-size:20px; font-weight:700;"><tspan x="0" y="0">H</tspan></text><text transform="translate(264.72 91.78)" style="fill:#1d1d1b; font-family:ArialMT, Arial; font-size:12px;"><tspan x="0" y="0" style="letter-spacing:0em;">A</tspan><tspan x="8.1" y="0" style="letter-spacing:0em;">r</tspan><tspan x="12.14" y="0" style="letter-spacing:.01em;">ch</tspan><tspan x="25.08" y="0" style="letter-spacing:0em;">i</tspan><tspan x="27.81" y="0" style="letter-spacing:0em;">t</tspan><tspan x="31.19" y="0" style="letter-spacing:.01em;">e</tspan><tspan x="37.98" y="0" style="letter-spacing:.02em;">c</tspan><tspan x="44.21" y="0" style="letter-spacing:.01em;">t</tspan><tspan x="47.68" y="0" style="letter-spacing:.01em;">u</tspan><tspan x="54.52" y="0" style="letter-spacing:0em;">r</tspan><tspan x="58.56" y="0">e</tspan><tspan x="12.93" y="13">change</tspan><tspan x="-2.4" y="26">management</tspan></text></g><path d="M330.26,474.13c-18.16,18.16-47.7,18.16-65.86,0-18.16-18.16-18.16-47.7,0-65.86,8.8-8.8,20.49-13.64,32.93-13.64s24.13,4.84,32.93,13.64c18.16,18.16,18.16,47.7,0,65.86" style="fill:#fff;"/><path d="M330.26,474.13c-18.16,18.16-47.7,18.16-65.86,0-18.16-18.16-18.16-47.7,0-65.86,8.8-8.8,20.49-13.64,32.93-13.64s24.13,4.84,32.93,13.64c18.16,18.16,18.16,47.7,0,65.86Z" style="fill:#fff; stroke:#0333ff; stroke-width:2px;"/><g><text transform="translate(290.11 430.35)" style="fill:#0333ff; font-family:Arial-BoldMT, Arial; font-size:20px; font-weight:700;"><tspan x="0" y="0">D</tspan></text><text transform="translate(266.2 446.3)" style="fill:#1d1d1b; font-family:ArialMT, Arial; font-size:12px;"><tspan x="0" y="0" style="letter-spacing:-.07em;">T</tspan><tspan x="6.54" y="0" style="letter-spacing:.01em;">e</tspan><tspan x="13.33" y="0" style="letter-spacing:.01em;">c</tspan><tspan x="19.46" y="0" style="letter-spacing:.01em;">h</tspan><tspan x="26.32" y="0" style="letter-spacing:.01em;">n</tspan><tspan x="33.11" y="0" style="letter-spacing:.01em;">o</tspan><tspan x="39.93" y="0" style="letter-spacing:.01em;">l</tspan><tspan x="42.73" y="0" style="letter-spacing:0em;">o</tspan><tspan x="49.51" y="0" style="letter-spacing:0em;">g</tspan><tspan x="56.27" y="0">y</tspan><tspan x="-.82" y="13" style="letter-spacing:0em;">a</tspan><tspan x="5.95" y="13" style="letter-spacing:0em;">r</tspan><tspan x="9.99" y="13" style="letter-spacing:.01em;">ch</tspan><tspan x="22.93" y="13" style="letter-spacing:0em;">i</tspan><tspan x="25.66" y="13" style="letter-spacing:0em;">t</tspan><tspan x="29.04" y="13" style="letter-spacing:.01em;">e</tspan><tspan x="35.83" y="13" style="letter-spacing:.02em;">c</tspan><tspan x="42.06" y="13" style="letter-spacing:.01em;">t</tspan><tspan x="45.53" y="13" style="letter-spacing:.01em;">u</tspan><tspan x="52.37" y="13" style="letter-spacing:0em;">r</tspan><tspan x="56.41" y="13">e</tspan></text></g><path d="M504.27,234.27c18.16,18.16,18.16,47.7,0,65.86-18.16,18.16-47.7,18.16-65.86,0-8.8-8.8-13.64-20.49-13.64-32.93s4.84-24.13,13.64-32.93c18.16-18.16,47.7-18.16,65.86,0Z" style="fill:#fff; stroke:#0333ff; stroke-width:2px;"/><g><text transform="translate(464.11 256.35)" style="fill:#0333ff; font-family:Arial-BoldMT, Arial; font-size:20px; font-weight:700;"><tspan x="0" y="0">B</tspan></text><text transform="translate(446.58 272.3)" style="fill:#1d1d1b; font-family:ArialMT, Arial; font-size:12px;"><tspan x="0" y="0" style="letter-spacing:.01em;">B</tspan><tspan x="8.18" y="0" style="letter-spacing:0em;">u</tspan><tspan x="14.93" y="0" style="letter-spacing:0em;">s</tspan><tspan x="21.04" y="0" style="letter-spacing:.01em;">i</tspan><tspan x="23.87" y="0" style="letter-spacing:.01em;">n</tspan><tspan x="30.69" y="0" style="letter-spacing:0em;">e</tspan><tspan x="37.4" y="0" style="letter-spacing:0em;">s</tspan><tspan x="43.5" y="0">s</tspan><tspan x="-7.21" y="13" style="letter-spacing:0em;">a</tspan><tspan x="-.44" y="13" style="letter-spacing:0em;">r</tspan><tspan x="3.61" y="13" style="letter-spacing:.01em;">ch</tspan><tspan x="16.55" y="13" style="letter-spacing:0em;">i</tspan><tspan x="19.27" y="13" style="letter-spacing:0em;">t</tspan><tspan x="22.65" y="13" style="letter-spacing:.01em;">e</tspan><tspan x="29.45" y="13" style="letter-spacing:.02em;">c</tspan><tspan x="35.68" y="13" style="letter-spacing:.01em;">t</tspan><tspan x="39.14" y="13" style="letter-spacing:.01em;">u</tspan><tspan x="45.98" y="13" style="letter-spacing:0em;">r</tspan><tspan x="50.03" y="13">e</tspan></text></g><path d="M156.26,234.27c18.16,18.16,18.16,47.7,0,65.86-18.16,18.16-47.7,18.16-65.86,0-8.8-8.8-13.64-20.49-13.64-32.93s4.84-24.13,13.64-32.93c18.16-18.16,47.7-18.16,65.86,0" style="fill:#fff;"/><path d="M156.26,234.27c18.16,18.16,18.16,47.7,0,65.86-18.16,18.16-47.7,18.16-65.86,0-8.8-8.8-13.64-20.49-13.64-32.93s4.84-24.13,13.64-32.93c18.16-18.16,47.7-18.16,65.86,0Z" style="fill:#fff; stroke:#0333ff; stroke-width:2px;"/><g><text transform="translate(117.21 256.35)" style="fill:#0333ff; font-family:Arial-BoldMT, Arial; font-size:20px; font-weight:700;"><tspan x="0" y="0">F</tspan></text><text transform="translate(98.15 272.3)" style="fill:#1d1d1b; font-family:ArialMT, Arial; font-size:12px;"><tspan x="0" y="0" style="letter-spacing:.01em;">M</tspan><tspan x="10.12" y="0" style="letter-spacing:0em;">i</tspan><tspan x="12.89" y="0" style="letter-spacing:.01em;">g</tspan><tspan x="19.72" y="0" style="letter-spacing:0em;">r</tspan><tspan x="23.76" y="0" style="letter-spacing:0em;">a</tspan><tspan x="30.55" y="0" style="letter-spacing:.02em;">t</tspan><tspan x="34.07" y="0" style="letter-spacing:0em;">i</tspan><tspan x="36.85" y="0" style="letter-spacing:.01em;">o</tspan><tspan x="43.65" y="0">n</tspan><tspan x="2.01" y="13" style="letter-spacing:0em;">p</tspan><tspan x="8.71" y="13" style="letter-spacing:0em;">l</tspan><tspan x="11.5" y="13" style="letter-spacing:.01em;">a</tspan><tspan x="18.33" y="13" style="letter-spacing:.02em;">n</tspan><tspan x="25.18" y="13" style="letter-spacing:.01em;">n</tspan><tspan x="32" y="13" style="letter-spacing:.01em;">i</tspan><tspan x="34.83" y="13" style="letter-spacing:.01em;">n</tspan><tspan x="41.64" y="13">g</tspan></text></g><path d="M420.38,97.58c25.68,0,46.57,20.89,46.57,46.57s-20.89,46.57-46.57,46.57c-12.44,0-24.13-4.84-32.93-13.64-8.8-8.8-13.64-20.49-13.64-32.93,0-25.68,20.89-46.57,46.57-46.57" style="fill:#fff;"/><path d="M420.38,97.58c25.68,0,46.57,20.89,46.57,46.57s-20.89,46.57-46.57,46.57c-12.44,0-24.13-4.84-32.93-13.64-8.8-8.8-13.64-20.49-13.64-32.93,0-25.68,20.89-46.57,46.57-46.57Z" style="fill:#fff; stroke:#0333ff; stroke-width:2px;"/><g><text transform="translate(413.15 133.31)" style="fill:#0333ff; font-family:Arial-BoldMT, Arial; font-size:20px; font-weight:700;"><tspan x="0" y="0">A</tspan></text><text transform="translate(387.76 149.26)" style="fill:#1d1d1b; font-family:ArialMT, Arial; font-size:12px;"><tspan x="0" y="0" style="letter-spacing:0em;">A</tspan><tspan x="8.1" y="0" style="letter-spacing:0em;">r</tspan><tspan x="12.14" y="0" style="letter-spacing:.01em;">ch</tspan><tspan x="25.08" y="0" style="letter-spacing:0em;">i</tspan><tspan x="27.81" y="0" style="letter-spacing:0em;">t</tspan><tspan x="31.19" y="0" style="letter-spacing:.01em;">e</tspan><tspan x="37.98" y="0" style="letter-spacing:.02em;">c</tspan><tspan x="44.21" y="0" style="letter-spacing:.01em;">t</tspan><tspan x="47.68" y="0" style="letter-spacing:.01em;">u</tspan><tspan x="54.52" y="0" style="letter-spacing:0em;">r</tspan><tspan x="58.56" y="0">e</tspan><tspan x="16.99" y="13" style="letter-spacing:.01em;">v</tspan><tspan x="23.15" y="13" style="letter-spacing:0em;">i</tspan><tspan x="25.9" y="13" style="letter-spacing:0em;">s</tspan><tspan x="32.01" y="13" style="letter-spacing:0em;">i</tspan><tspan x="34.77" y="13" style="letter-spacing:.01em;">o</tspan><tspan x="41.58" y="13">n</tspan></text></g><path d="M220.86,144.15c0,25.68-20.89,46.57-46.57,46.57s-46.57-20.89-46.57-46.57c0-12.44,4.84-24.13,13.64-32.93,8.8-8.8,20.49-13.64,32.93-13.64,25.68,0,46.57,20.89,46.57,46.57" style="fill:#fff;"/><path d="M220.86,144.15c0,25.68-20.89,46.57-46.57,46.57s-46.57-20.89-46.57-46.57c0-12.44,4.84-24.13,13.64-32.93,8.8-8.8,20.49-13.64,32.93-13.64,25.68,0,46.57,20.89,46.57,46.57Z" style="fill:#fff; stroke:#0333ff; stroke-width:2px;"/><g><text transform="translate(166.51 133.31)" style="fill:#0333ff; font-family:Arial-BoldMT, Arial; font-size:20px; font-weight:700;"><tspan x="0" y="0">G</tspan></text><text transform="translate(132.47 149.26)" style="fill:#1d1d1b; font-family:ArialMT, Arial; font-size:12px;"><tspan x="0" y="0" style="letter-spacing:0em;">I</tspan><tspan x="3.44" y="0" style="letter-spacing:.01em;">m</tspan><tspan x="13.62" y="0" style="letter-spacing:.01em;">p</tspan><tspan x="20.44" y="0" style="letter-spacing:.01em;">l</tspan><tspan x="23.22" y="0" style="letter-spacing:.01em;">e</tspan><tspan x="30.05" y="0" style="letter-spacing:.01em;">m</tspan><tspan x="40.17" y="0" style="letter-spacing:.01em;">e</tspan><tspan x="47" y="0" style="letter-spacing:0em;">n</tspan><tspan x="53.68" y="0" style="letter-spacing:0em;">t</tspan><tspan x="57.1" y="0" style="letter-spacing:0em;">a</tspan><tspan x="63.88" y="0" style="letter-spacing:.02em;">t</tspan><tspan x="67.41" y="0" style="letter-spacing:0em;">i</tspan><tspan x="70.17" y="0" style="letter-spacing:.01em;">o</tspan><tspan x="76.98" y="0">n</tspan><tspan x="10.23" y="13" style="letter-spacing:.02em;">g</tspan><tspan x="17.12" y="13" style="letter-spacing:-.02em;">o</tspan><tspan x="23.58" y="13" style="letter-spacing:-.02em;">v</tspan><tspan x="29.35" y="13" style="letter-spacing:.01em;">e</tspan><tspan x="36.18" y="13" style="letter-spacing:0em;">r</tspan><tspan x="40.26" y="13" style="letter-spacing:.01em;">n</tspan><tspan x="47.08" y="13" style="letter-spacing:.01em;">a</tspan><tspan x="53.91" y="13" style="letter-spacing:.01em;">n</tspan><tspan x="60.71" y="13" style="letter-spacing:0em;">c</tspan><tspan x="66.74" y="13">e</tspan></text></g><path d="M466.95,390.24c0,25.68-20.89,46.57-46.57,46.57s-46.57-20.89-46.57-46.57c0-12.44,4.84-24.13,13.64-32.93,8.8-8.8,20.49-13.64,32.93-13.64,25.68,0,46.57,20.89,46.57,46.57" style="fill:#fff;"/><path d="M466.95,390.24c0,25.68-20.89,46.57-46.57,46.57s-46.57-20.89-46.57-46.57c0-12.44,4.84-24.13,13.64-32.93,8.8-8.8,20.49-13.64,32.93-13.64,25.68,0,46.57,20.89,46.57,46.57Z" style="fill:#fff; stroke:#0333ff; stroke-width:2px;"/><g><text transform="translate(413.15 372.9)" style="fill:#0333ff; font-family:Arial-BoldMT, Arial; font-size:20px; font-weight:700;"><tspan x="0" y="0">C</tspan></text><text transform="translate(389.84 388.84)" style="fill:#1d1d1b; font-family:ArialMT, Arial; font-size:12px;"><tspan x="0" y="0" style="letter-spacing:0em;">I</tspan><tspan x="3.44" y="0" style="letter-spacing:0em;">n</tspan><tspan x="10.14" y="0" style="letter-spacing:0em;">f</tspan><tspan x="13.49" y="0" style="letter-spacing:.01em;">o</tspan><tspan x="20.29" y="0" style="letter-spacing:0em;">r</tspan><tspan x="24.37" y="0" style="letter-spacing:.01em;">m</tspan><tspan x="34.52" y="0" style="letter-spacing:0em;">a</tspan><tspan x="41.31" y="0" style="letter-spacing:.02em;">t</tspan><tspan x="44.83" y="0" style="letter-spacing:0em;">i</tspan><tspan x="47.59" y="0" style="letter-spacing:.01em;">o</tspan><tspan x="54.4" y="0">n</tspan><tspan x="8.54" y="13">systems</tspan><tspan x="-4.42" y="26" style="letter-spacing:0em;">a</tspan><tspan x="2.35" y="26" style="letter-spacing:0em;">r</tspan><tspan x="6.4" y="26" style="letter-spacing:.01em;">ch</tspan><tspan x="19.33" y="26" style="letter-spacing:0em;">i</tspan><tspan x="22.06" y="26" style="letter-spacing:0em;">t</tspan><tspan x="25.44" y="26" style="letter-spacing:.01em;">e</tspan><tspan x="32.24" y="26" style="letter-spacing:.02em;">c</tspan><tspan x="38.46" y="26" style="letter-spacing:.01em;">t</tspan><tspan x="41.93" y="26" style="letter-spacing:.01em;">u</tspan><tspan x="48.77" y="26" style="letter-spacing:0em;">r</tspan><tspan x="52.82" y="26">es</tspan></text></g><path d="M174.29,343.67c25.68,0,46.57,20.89,46.57,46.57s-20.89,46.57-46.57,46.57c-12.44,0-24.13-4.84-32.93-13.64-8.8-8.8-13.64-20.49-13.64-32.93,0-25.68,20.89-46.57,46.57-46.57" style="fill:#fff;"/><path d="M174.29,343.67c25.68,0,46.57,20.89,46.57,46.57s-20.89,46.57-46.57,46.57c-12.44,0-24.13-4.84-32.93-13.64-8.8-8.8-13.64-20.49-13.64-32.93,0-25.68,20.89-46.57,46.57-46.57Z" style="fill:#fff; stroke:#0333ff; stroke-width:2px;"/><g><text transform="translate(167.62 379.4)" style="fill:#0333ff; font-family:Arial-BoldMT, Arial; font-size:20px; font-weight:700;"><tspan x="0" y="0">E</tspan></text><text transform="translate(137.75 395.34)" style="fill:#1d1d1b; font-family:ArialMT, Arial; font-size:12px;"><tspan x="0" y="0" style="letter-spacing:.01em;">O</tspan><tspan x="9.51" y="0" style="letter-spacing:.01em;">p</tspan><tspan x="16.32" y="0" style="letter-spacing:0em;">p</tspan><tspan x="23.1" y="0" style="letter-spacing:.01em;">o</tspan><tspan x="29.91" y="0" style="letter-spacing:.03em;">r</tspan><tspan x="34.23" y="0" style="letter-spacing:.01em;">t</tspan><tspan x="37.71" y="0" style="letter-spacing:.01em;">u</tspan><tspan x="44.55" y="0" style="letter-spacing:.01em;">n</tspan><tspan x="51.37" y="0" style="letter-spacing:0em;">i</tspan><tspan x="54.09" y="0" style="letter-spacing:.02em;">t</tspan><tspan x="57.62" y="0" style="letter-spacing:0em;">i</tspan><tspan x="60.38" y="0" style="letter-spacing:0em;">e</tspan><tspan x="67.09" y="0">s</tspan><tspan x=".52" y="13" style="letter-spacing:.01em;">a</tspan><tspan x="7.35" y="13" style="letter-spacing:.01em;">n</tspan><tspan x="14.17" y="13">d </tspan><tspan x="24.18" y="13" style="letter-spacing:0em;">s</tspan><tspan x="30.27" y="13" style="letter-spacing:.01em;">o</tspan><tspan x="37.1" y="13" style="letter-spacing:.01em;">l</tspan><tspan x="39.94" y="13" style="letter-spacing:0em;">u</tspan><tspan x="46.71" y="13" style="letter-spacing:.02em;">t</tspan><tspan x="50.23" y="13" style="letter-spacing:0em;">i</tspan><tspan x="52.99" y="13" style="letter-spacing:.01em;">o</tspan><tspan x="59.8" y="13" style="letter-spacing:0em;">n</tspan><tspan x="66.57" y="13">s</tspan></text></g><g><g><path d="M221.87,116.96c6.03-3.05,12.26-5.76,18.68-8.08" style="fill:none; stroke:#0333ff; stroke-miterlimit:10;"/><polygon points="240.76 112.79 245.64 107.13 238.3 105.73 240.76 112.79" style="fill:#0333ff;"/></g><g><path d="M137.43,215.47c2.34-7.22,5.16-14.22,8.42-20.97" style="fill:none; stroke:#0333ff; stroke-miterlimit:10;"/><polygon points="148.73 197.15 148.26 189.69 142.03 193.83 148.73 197.15" style="fill:#0333ff;"/></g><g><path d="M146.2,341.67c-3.19-6.53-5.97-13.3-8.3-20.28" style="fill:none; stroke:#0333ff; stroke-miterlimit:10;"/><polygon points="141.82 321.28 136.27 316.26 134.7 323.57 141.82 321.28" style="fill:#0333ff;"/></g><g><path d="M245.76,428.33c-7.26-2.36-14.3-5.2-21.09-8.49" style="fill:none; stroke:#0333ff; stroke-miterlimit:10;"/><polygon points="227.33 416.96 219.86 417.43 224 423.66 227.33 416.96" style="fill:#0333ff;"/></g><g><path d="M374.82,418.18c-6.23,3.19-12.69,6-19.34,8.4" style="fill:none; stroke:#0333ff; stroke-miterlimit:10;"/><polygon points="355.27 422.67 350.38 428.33 357.73 429.74 355.27 422.67" style="fill:#0333ff;"/></g><g><path d="M458.91,319.34c-2.17,6.77-4.76,13.36-7.73,19.73" style="fill:none; stroke:#0333ff; stroke-miterlimit:10;"/><polygon points="448.26 336.45 448.82 343.91 455 339.7 448.26 336.45" style="fill:#0333ff;"/></g><g><path d="M447.4,188.78c3.35,6.32,6.3,12.87,8.84,19.64" style="fill:none; stroke:#0333ff; stroke-miterlimit:10;"/><polygon points="452.33 208.66 458.05 213.48 459.37 206.12 452.33 208.66" style="fill:#0333ff;"/></g><g><path d="M350.38,107.09c7.08,2.3,13.96,5.06,20.59,8.24" style="fill:none; stroke:#0333ff; stroke-miterlimit:10;"/><polygon points="368.33 118.23 375.79 117.74 371.64 111.52 368.33 118.23" style="fill:#0333ff;"/></g><g><g><line x1="235.03" y1="330.74" x2="219.29" y2="346.48" style="fill:none; stroke:#0333ff; stroke-miterlimit:10;"/><polygon points="231.61 328.87 238.83 326.93 236.9 334.16 231.61 328.87" style="fill:#0333ff;"/><polygon points="217.42 343.06 215.48 350.28 222.71 348.35 217.42 343.06" style="fill:#0333ff;"/></g><g><line x1="375.1" y1="190.67" x2="360.86" y2="204.91" style="fill:none; stroke:#0333ff; stroke-miterlimit:10;"/><polygon points="371.68 188.8 378.9 186.86 376.97 194.09 371.68 188.8" style="fill:#0333ff;"/><polygon points="358.99 201.49 357.05 208.72 364.27 206.78 358.99 201.49" style="fill:#0333ff;"/></g></g><g><g><line x1="297.08" y1="356.44" x2="297.08" y2="378.7" style="fill:none; stroke:#0333ff; stroke-miterlimit:10;"/><polygon points="293.34 357.53 297.08 351.06 300.82 357.53 293.34 357.53" style="fill:#0333ff;"/><polygon points="293.34 377.61 297.08 384.08 300.82 377.61 293.34 377.61" style="fill:#0333ff;"/></g><g><line x1="297.08" y1="158.35" x2="297.08" y2="178.49" style="fill:none; stroke:#0333ff; stroke-miterlimit:10;"/><polygon points="293.34 159.45 297.08 152.97 300.82 159.45 293.34 159.45" style="fill:#0333ff;"/><polygon points="293.34 177.4 297.08 183.88 300.82 177.4 293.34 177.4" style="fill:#0333ff;"/></g></g><g><g><line x1="359.24" y1="330.69" x2="374.98" y2="346.43" style="fill:none; stroke:#0333ff; stroke-miterlimit:10;"/><polygon points="357.37 334.11 355.44 326.88 362.66 328.82 357.37 334.11" style="fill:#0333ff;"/><polygon points="371.56 348.3 378.79 350.24 376.85 343.01 371.56 348.3" style="fill:#0333ff;"/></g><g><line x1="219.17" y1="190.62" x2="233.41" y2="204.86" style="fill:none; stroke:#0333ff; stroke-miterlimit:10;"/><polygon points="217.3 194.04 215.37 186.81 222.59 188.75 217.3 194.04" style="fill:#0333ff;"/><polygon points="230 206.73 237.22 208.67 235.28 201.45 230 206.73" style="fill:#0333ff;"/></g></g><g><g><line x1="384.99" y1="268.53" x2="407.25" y2="268.53" style="fill:none; stroke:#0333ff; stroke-miterlimit:10;"/><polygon points="386.08 272.27 379.61 268.53 386.08 264.79 386.08 272.27" style="fill:#0333ff;"/><polygon points="406.16 272.27 412.63 268.53 406.16 264.79 406.16 272.27" style="fill:#0333ff;"/></g><g><line x1="186.9" y1="268.53" x2="207.04" y2="268.53" style="fill:none; stroke:#0333ff; stroke-miterlimit:10;"/><polygon points="188 272.27 181.52 268.53 188 264.79 188 272.27" style="fill:#0333ff;"/><polygon points="205.95 272.27 212.43 268.53 205.95 264.79 205.95 272.27" style="fill:#0333ff;"/></g></g></g><g><line x1="554.07" y1="144.15" x2="483.93" y2="144.15" style="fill:none; stroke:#0333ff; stroke-miterlimit:10;"/><polygon points="552.98 140.41 559.45 144.15 552.98 147.89 552.98 140.41" style="fill:#0333ff;"/><polygon points="485.02 140.41 478.55 144.15 485.02 147.89 485.02 140.41" style="fill:#0333ff;"/></g><text transform="translate(238.05 272.53)" style="fill:#fff; font-family:Arial-BoldMT, Arial; font-size:18px; font-weight:700;"><tspan x="0" y="0">Requirements</tspan></text><text transform="translate(588.67 372.9)" style="font-size:20px;"><tspan style="font-family:Arial-BoldMT, Arial; font-weight:700;"><tspan x="0" y="0">The core of TOGAF:</tspan></tspan><tspan style="font-family:ArialMT, Arial;"><tspan x="0" y="25">ADM—a method for developing EA and </tspan></tspan><tspan style="font-family:ArialMT, Arial;"><tspan x="0" y="50">establishing an EA framework</tspan></tspan></text><text transform="translate(699.33 144.15)" style="fill:#0333ff; font-family:Courier, Courier; font-size:18px;"><tspan x="0" y="0">Context</tspan></text><text transform="translate(484.5 476.65)" style="fill:#0333ff; font-family:Courier, Courier; font-size:18px;"><tspan x="0" y="0">Definition</tspan></text><text transform="translate(37 46.62)" style="fill:#0333ff; font-family:Courier, Courier; font-size:18px;"><tspan x="0" y="0">Governance</tspan></text><path d="M76.75,167.2C114.99,83.14,199.7,24.7,298.07,24.7" style="fill:none; stroke:#0333ff; stroke-dasharray:0 0 6.73 7.73;"/><path d="M541.08,267.71c0,134.21-108.8,243.01-243.01,243.01S55.05,401.93,55.05,267.71" style="fill:none; stroke:#0333ff; stroke-dasharray:0 0 6.73 7.73;"/></svg>