<?xml version="1.0" encoding="UTF-8"?>
<svg id="Ebene_1" data-name="Ebene 1" xmlns="http://www.w3.org/2000/svg" viewBox="0 0 988 525">
  <defs>
    <style>
      .cls-1, .cls-2 {
        font-size: 16px;
      }

      .cls-1, .cls-2, .cls-3, .cls-4 {
        font-weight: 700;
      }

      .cls-1, .cls-3 {
        font-family: Arial-BoldMT, Arial;
      }

      .cls-1, .cls-3, .cls-5 {
        fill: #221e20;
      }

      .cls-2, .cls-4 {
        font-family: CourierNewPS-BoldMT, 'Courier New';
      }

      .cls-3 {
        font-size: 18px;
      }

      .cls-4 {
        font-size: 15.89px;
      }

      .cls-6 {
        stroke: #1d1d1b;
        stroke-width: 2px;
      }

      .cls-6, .cls-7 {
        fill: none;
        stroke-miterlimit: 10;
      }

      .cls-7 {
        stroke: #0333ff;
      }

      .cls-5, .cls-8 {
        stroke-width: 0px;
      }

      .cls-8 {
        fill: #0333ff;
      }
    </style>
  </defs>
  <g>
    <g>
      <path class="cls-6" d="M198.77,134.46c0-12.1-9.82-21.93-21.93-21.93s-21.93,9.83-21.93,21.93,9.82,21.93,21.93,21.93,21.93-9.85,21.93-21.93Z"/>
      <text class="cls-1" transform="translate(172.39 138.69)"><tspan x="0" y="0">0</tspan></text>
    </g>
    <g>
      <path class="cls-6" d="M114.39,245.07c0-12.1-9.82-21.93-21.93-21.93s-21.93,9.83-21.93,21.93,9.82,21.93,21.93,21.93,21.93-9.85,21.93-21.93Z"/>
      <text class="cls-1" transform="translate(88.01 249.29)"><tspan x="0" y="0">1</tspan></text>
    </g>
    <g>
      <path class="cls-6" d="M283.16,245.07c0-12.1-9.82-21.93-21.93-21.93s-21.93,9.83-21.93,21.93,9.82,21.93,21.93,21.93,21.93-9.85,21.93-21.93Z"/>
      <text class="cls-1" transform="translate(256.78 249.29)"><tspan x="0" y="0">2</tspan></text>
    </g>
    <g>
      <path class="cls-6" d="M146.51,355.68c0-12.1-9.82-21.93-21.93-21.93s-21.93,9.83-21.93,21.93,9.82,21.93,21.93,21.93,21.93-9.85,21.93-21.93Z"/>
      <text class="cls-1" transform="translate(120.13 359.9)"><tspan x="0" y="0">4</tspan></text>
    </g>
    <g>
      <path class="cls-6" d="M82.27,355.68c0-12.1-9.82-21.93-21.93-21.93s-21.93,9.83-21.93,21.93,9.82,21.93,21.93,21.93,21.93-9.85,21.93-21.93Z"/>
      <text class="cls-1" transform="translate(55.89 359.9)"><tspan x="0" y="0">3</tspan></text>
    </g>
    <g>
      <path class="cls-6" d="M251.04,355.68c0-12.1-9.82-21.93-21.93-21.93s-21.93,9.83-21.93,21.93,9.82,21.93,21.93,21.93,21.93-9.85,21.93-21.93Z"/>
      <text class="cls-1" transform="translate(224.66 359.9)"><tspan x="0" y="0">5</tspan></text>
    </g>
    <g>
      <path class="cls-6" d="M315.28,355.68c0-12.1-9.82-21.93-21.93-21.93s-21.93,9.83-21.93,21.93,9.82,21.93,21.93,21.93,21.93-9.85,21.93-21.93Z"/>
      <text class="cls-1" transform="translate(288.9 359.9)"><tspan x="0" y="0">6</tspan></text>
    </g>
  </g>
  <line class="cls-6" x1="254.54" y1="267" x2="234.9" y2="334.62"/>
  <line class="cls-6" x1="189.82" y1="151.89" x2="247.61" y2="227.64"/>
  <line class="cls-6" x1="267.39" y1="267" x2="287.39" y2="334.62"/>
  <line class="cls-6" x1="99.15" y1="267" x2="118.79" y2="334.62"/>
  <line class="cls-6" x1="163.87" y1="151.89" x2="106.08" y2="227.64"/>
  <g>
    <line class="cls-7" x1="147.68" y1="140.09" x2="94.25" y2="210.14"/>
    <polygon class="cls-8" points="91.17 205.95 89.89 215.84 99.1 212 91.17 205.95"/>
  </g>
  <g>
    <line class="cls-7" x1="124.52" y1="244.48" x2="220.09" y2="244.45"/>
    <polygon class="cls-8" points="218.63 249.43 227.26 244.44 218.63 239.46 218.63 249.43"/>
  </g>
  <g>
    <line class="cls-7" x1="227.77" y1="254.05" x2="83.45" y2="326.62"/>
    <polygon class="cls-8" points="82.51 321.51 77.04 329.84 86.99 330.42 82.51 321.51"/>
  </g>
  <g>
    <line class="cls-7" x1="86.3" y1="355.63" x2="93.06" y2="355.71"/>
    <polygon class="cls-8" points="91.55 360.68 100.24 355.79 91.66 350.71 91.55 360.68"/>
  </g>
  <g>
    <line class="cls-7" x1="254.26" y1="355.63" x2="261.02" y2="355.71"/>
    <polygon class="cls-8" points="259.51 360.68 268.2 355.79 259.62 350.71 259.51 360.68"/>
  </g>
  <g>
    <line class="cls-7" x1="154.42" y1="355.63" x2="191.1" y2="355.76"/>
    <polygon class="cls-8" points="189.62 360.74 198.27 355.79 189.66 350.77 189.62 360.74"/>
  </g>
  <line class="cls-6" x1="86.3" y1="267" x2="66.3" y2="334.62"/>
  <g>
    <g>
      <path class="cls-6" d="M510.97,134.46c0-12.1-9.82-21.93-21.93-21.93s-21.93,9.83-21.93,21.93,9.82,21.93,21.93,21.93,21.93-9.85,21.93-21.93Z"/>
      <text class="cls-1" transform="translate(484.59 138.69)"><tspan x="0" y="0">0</tspan></text>
    </g>
    <g>
      <path class="cls-6" d="M426.59,245.07c0-12.1-9.82-21.93-21.93-21.93s-21.93,9.83-21.93,21.93,9.82,21.93,21.93,21.93,21.93-9.85,21.93-21.93Z"/>
      <text class="cls-1" transform="translate(400.21 249.29)"><tspan x="0" y="0">1</tspan></text>
    </g>
    <g>
      <path class="cls-6" d="M595.35,245.07c0-12.1-9.82-21.93-21.93-21.93s-21.93,9.83-21.93,21.93,9.82,21.93,21.93,21.93,21.93-9.85,21.93-21.93Z"/>
      <text class="cls-1" transform="translate(568.97 249.29)"><tspan x="0" y="0">2</tspan></text>
    </g>
    <g>
      <path class="cls-6" d="M458.71,355.68c0-12.1-9.82-21.93-21.93-21.93s-21.93,9.83-21.93,21.93,9.82,21.93,21.93,21.93,21.93-9.85,21.93-21.93Z"/>
      <text class="cls-1" transform="translate(432.33 359.9)"><tspan x="0" y="0">4</tspan></text>
    </g>
    <g>
      <path class="cls-6" d="M394.47,355.68c0-12.1-9.82-21.93-21.93-21.93s-21.93,9.83-21.93,21.93,9.82,21.93,21.93,21.93,21.93-9.85,21.93-21.93Z"/>
      <text class="cls-1" transform="translate(368.09 359.9)"><tspan x="0" y="0">3</tspan></text>
    </g>
    <g>
      <path class="cls-6" d="M563.23,355.68c0-12.1-9.82-21.93-21.93-21.93s-21.93,9.83-21.93,21.93,9.82,21.93,21.93,21.93,21.93-9.85,21.93-21.93Z"/>
      <text class="cls-1" transform="translate(536.85 359.9)"><tspan x="0" y="0">5</tspan></text>
    </g>
    <g>
      <path class="cls-6" d="M627.47,355.68c0-12.1-9.82-21.93-21.93-21.93s-21.93,9.83-21.93,21.93,9.82,21.93,21.93,21.93,21.93-9.85,21.93-21.93Z"/>
      <text class="cls-1" transform="translate(601.09 359.9)"><tspan x="0" y="0">6</tspan></text>
    </g>
  </g>
  <line class="cls-6" x1="566.73" y1="267" x2="547.09" y2="334.62"/>
  <line class="cls-6" x1="502.01" y1="151.89" x2="559.8" y2="227.64"/>
  <line class="cls-6" x1="579.59" y1="267" x2="599.58" y2="334.62"/>
  <line class="cls-6" x1="411.35" y1="267" x2="430.98" y2="334.62"/>
  <line class="cls-6" x1="476.06" y1="151.89" x2="418.27" y2="227.64"/>
  <g>
    <path class="cls-7" d="M436.78,327.85s0-151.78,52.26-151.78c23.97,0,42.7,36.5,49.5,51.8"/>
    <polygon class="cls-8" points="533.33 228.49 541.3 234.49 542.51 224.59 533.33 228.49"/>
  </g>
  <g>
    <line class="cls-7" x1="459.88" y1="140.09" x2="406.44" y2="210.14"/>
    <polygon class="cls-8" points="403.36 205.95 402.09 215.84 411.29 212 403.36 205.95"/>
  </g>
  <g>
    <line class="cls-7" x1="781.33" y1="140.09" x2="727.89" y2="210.14"/>
    <polygon class="cls-8" points="724.81 205.95 723.54 215.84 732.74 212 724.81 205.95"/>
  </g>
  <line class="cls-6" x1="398.49" y1="267" x2="378.5" y2="334.62"/>
  <g>
    <line class="cls-7" x1="378.5" y1="261.18" x2="360.53" y2="321.92"/>
    <polygon class="cls-8" points="356.17 319.1 358.5 328.8 365.73 321.93 356.17 319.1"/>
  </g>
  <g>
    <line class="cls-7" x1="551.3" y1="261.18" x2="533.34" y2="321.92"/>
    <polygon class="cls-8" points="528.97 319.1 531.3 328.8 538.53 321.93 528.97 319.1"/>
  </g>
  <g>
    <line class="cls-7" x1="747.7" y1="261.18" x2="765.66" y2="321.92"/>
    <polygon class="cls-8" points="760.47 321.93 767.7 328.8 770.03 319.1 760.47 321.93"/>
  </g>
  <g>
    <path class="cls-7" d="M557.96,328.8s5.27-42.71,15.99-42.71c7.94,0,12.31,23.44,14.05,35.59"/>
    <polygon class="cls-8" points="582.82 320.88 588.88 328.8 592.71 319.59 582.82 320.88"/>
  </g>
  <g>
    <path class="cls-7" d="M388.21,328.8s5.27-42.71,15.99-42.71c7.94,0,12.31,23.44,14.05,35.59"/>
    <polygon class="cls-8" points="413.08 320.88 419.14 328.8 422.97 319.59 413.08 320.88"/>
  </g>
  <g>
    <g>
      <path class="cls-6" d="M831.89,134.46c0-12.1-9.82-21.93-21.93-21.93s-21.93,9.83-21.93,21.93,9.82,21.93,21.93,21.93,21.93-9.85,21.93-21.93Z"/>
      <text class="cls-1" transform="translate(805.51 138.69)"><tspan x="0" y="0">0</tspan></text>
    </g>
    <g>
      <path class="cls-6" d="M747.51,245.07c0-12.1-9.82-21.93-21.93-21.93s-21.93,9.83-21.93,21.93,9.82,21.93,21.93,21.93,21.93-9.85,21.93-21.93Z"/>
      <text class="cls-1" transform="translate(721.13 249.29)"><tspan x="0" y="0">1</tspan></text>
    </g>
    <g>
      <path class="cls-6" d="M916.27,245.07c0-12.1-9.82-21.93-21.93-21.93s-21.93,9.83-21.93,21.93,9.82,21.93,21.93,21.93,21.93-9.85,21.93-21.93Z"/>
      <text class="cls-1" transform="translate(889.89 249.29)"><tspan x="0" y="0">2</tspan></text>
    </g>
    <g>
      <path class="cls-6" d="M779.63,355.68c0-12.1-9.82-21.93-21.93-21.93s-21.93,9.83-21.93,21.93,9.82,21.93,21.93,21.93,21.93-9.85,21.93-21.93Z"/>
      <text class="cls-1" transform="translate(753.25 359.9)"><tspan x="0" y="0">4</tspan></text>
    </g>
    <g>
      <path class="cls-6" d="M715.39,355.68c0-12.1-9.82-21.93-21.93-21.93s-21.93,9.83-21.93,21.93,9.82,21.93,21.93,21.93,21.93-9.85,21.93-21.93Z"/>
      <text class="cls-1" transform="translate(689.01 359.9)"><tspan x="0" y="0">3</tspan></text>
    </g>
    <g>
      <path class="cls-6" d="M884.15,355.68c0-12.1-9.82-21.93-21.93-21.93s-21.93,9.83-21.93,21.93,9.82,21.93,21.93,21.93,21.93-9.85,21.93-21.93Z"/>
      <text class="cls-1" transform="translate(857.77 359.9)"><tspan x="0" y="0">5</tspan></text>
    </g>
    <g>
      <path class="cls-6" d="M948.39,355.68c0-12.1-9.82-21.93-21.93-21.93s-21.93,9.83-21.93,21.93,9.82,21.93,21.93,21.93,21.93-9.85,21.93-21.93Z"/>
      <text class="cls-1" transform="translate(922.01 359.9)"><tspan x="0" y="0">6</tspan></text>
    </g>
  </g>
  <line class="cls-6" x1="887.65" y1="267" x2="868.02" y2="334.62"/>
  <line class="cls-6" x1="822.94" y1="151.89" x2="880.73" y2="227.64"/>
  <line class="cls-6" x1="900.51" y1="267" x2="920.5" y2="334.62"/>
  <line class="cls-6" x1="732.27" y1="267" x2="751.91" y2="334.62"/>
  <line class="cls-6" x1="796.99" y1="151.89" x2="739.2" y2="227.64"/>
  <line class="cls-6" x1="719.41" y1="267" x2="699.42" y2="334.62"/>
  <text class="cls-4" transform="translate(746.8 197.87) scale(1.21 1)"><tspan x="0" y="0">1</tspan></text>
  <text class="cls-2" transform="translate(834.4 197.96)"><tspan x="0" y="0">4</tspan></text>
  <text class="cls-4" transform="translate(689.11 309.44) scale(1.21 1)"><tspan x="0" y="0">8</tspan></text>
  <text class="cls-2" transform="translate(725.58 309.53)"><tspan x="0" y="0">2</tspan></text>
  <text class="cls-4" transform="translate(859.6 309.44) scale(1.21 1)"><tspan x="0" y="0">1</tspan></text>
  <text class="cls-2" transform="translate(896.07 309.53)"><tspan x="0" y="0">6</tspan></text>
  <text class="cls-3" transform="translate(91.32 62.67)"><tspan x="0" y="0">Breadth-first search</tspan></text>
  <text class="cls-3" transform="translate(412.02 62.67)"><tspan x="0" y="0">Depth-first search</tspan></text>
  <g>
    <path class="cls-5" d="M348.17,430.47v-1.82h1.58v1.82h-1.58ZM348.17,441.54v-9.33h1.58v9.33h-1.58Z"/>
    <path class="cls-5" d="M351.53,438.75l1.56-.25c.09.63.33,1.11.73,1.44s.96.5,1.68.5,1.27-.15,1.62-.44.53-.64.53-1.04c0-.36-.16-.64-.47-.84-.22-.14-.76-.32-1.62-.54-1.16-.29-1.96-.55-2.41-.76-.45-.21-.79-.51-1.02-.89s-.35-.8-.35-1.25c0-.42.09-.8.29-1.16.19-.35.45-.65.78-.88.25-.18.58-.34,1.01-.46s.88-.19,1.37-.19c.73,0,1.38.11,1.93.32.55.21.96.5,1.23.86s.45.84.54,1.45l-1.55.21c-.07-.48-.27-.86-.61-1.12-.34-.27-.81-.4-1.43-.4-.73,0-1.25.12-1.56.36s-.47.52-.47.84c0,.21.06.39.19.55.13.17.33.31.61.42.16.06.62.19,1.4.4,1.12.3,1.9.54,2.34.73.44.19.79.47,1.04.83s.38.81.38,1.35-.15,1.02-.46,1.49c-.31.47-.75.83-1.33,1.08s-1.24.38-1.97.38c-1.21,0-2.14-.25-2.77-.76-.64-.5-1.04-1.25-1.22-2.24Z"/>
    <path class="cls-5" d="M366.16,441.54v-9.33h1.42v1.33c.69-1.03,1.68-1.54,2.97-1.54.56,0,1.08.1,1.55.3.47.2.82.47,1.06.8s.4.72.49,1.17c.06.29.09.81.09,1.54v5.74h-1.58v-5.68c0-.64-.06-1.13-.18-1.45s-.34-.57-.66-.76-.68-.29-1.1-.29c-.67,0-1.26.21-1.75.64s-.73,1.24-.73,2.43v5.1h-1.58Z"/>
    <path class="cls-5" d="M382.56,438.53l1.63.2c-.26.96-.74,1.7-1.43,2.22s-1.59.79-2.67.79c-1.37,0-2.45-.42-3.25-1.26-.8-.84-1.2-2.02-1.2-3.54s.4-2.79,1.21-3.66,1.86-1.3,3.15-1.3,2.27.42,3.06,1.27,1.19,2.04,1.19,3.59c0,.09,0,.23,0,.42h-6.96c.06,1.03.35,1.81.87,2.36s1.17.82,1.95.82c.58,0,1.08-.15,1.49-.46s.74-.79.98-1.46ZM377.37,435.98h5.21c-.07-.79-.27-1.37-.6-1.77-.5-.61-1.16-.91-1.96-.91-.73,0-1.34.24-1.83.73s-.77,1.14-.82,1.95Z"/>
    <path class="cls-5" d="M386.19,430.47v-1.82h1.58v1.82h-1.58ZM386.19,441.54v-9.33h1.58v9.33h-1.58Z"/>
    <path class="cls-5" d="M393.64,440.12l.23,1.4c-.45.09-.84.14-1.2.14-.57,0-1.02-.09-1.34-.27s-.54-.42-.67-.72-.19-.92-.19-1.87v-5.37h-1.16v-1.23h1.16v-2.31l1.57-.95v3.26h1.59v1.23h-1.59v5.46c0,.45.03.74.08.87s.15.23.27.31c.12.08.31.11.54.11.18,0,.41-.02.69-.06Z"/>
    <path class="cls-5" d="M395.18,441.54v-12.88h1.58v4.62c.74-.86,1.67-1.28,2.79-1.28.69,0,1.29.14,1.8.41s.88.65,1.09,1.13c.22.48.33,1.18.33,2.09v5.92h-1.58v-5.92c0-.79-.17-1.37-.51-1.73-.34-.36-.83-.54-1.46-.54-.47,0-.91.12-1.32.36-.41.24-.71.57-.88.99s-.26.99-.26,1.72v5.11h-1.58Z"/>
    <path class="cls-5" d="M411.58,438.53l1.63.2c-.26.96-.74,1.7-1.43,2.22s-1.59.79-2.67.79c-1.37,0-2.45-.42-3.25-1.26-.8-.84-1.2-2.02-1.2-3.54s.4-2.79,1.21-3.66,1.86-1.3,3.15-1.3,2.27.42,3.06,1.27,1.19,2.04,1.19,3.59c0,.09,0,.23,0,.42h-6.96c.06,1.03.35,1.81.87,2.36s1.17.82,1.95.82c.58,0,1.08-.15,1.49-.46s.74-.79.98-1.46ZM406.39,435.98h5.21c-.07-.79-.27-1.37-.6-1.77-.5-.61-1.16-.91-1.96-.91-.73,0-1.34.24-1.83.73s-.77,1.14-.82,1.95Z"/>
    <path class="cls-5" d="M415.19,441.54v-9.33h1.42v1.42c.36-.66.7-1.1,1.01-1.31.31-.21.65-.32,1.01-.32.53,0,1.08.17,1.63.51l-.54,1.47c-.39-.23-.77-.34-1.16-.34-.35,0-.66.1-.93.31s-.47.5-.59.87c-.18.56-.26,1.18-.26,1.85v4.89h-1.58Z"/>
    <path class="cls-5" d="M432.29,438.12l1.56.2c-.17,1.07-.61,1.91-1.31,2.52s-1.56.91-2.58.91c-1.28,0-2.3-.42-3.08-1.25s-1.16-2.03-1.16-3.59c0-1.01.17-1.89.5-2.65s.84-1.32,1.52-1.7,1.43-.57,2.23-.57c1.01,0,1.84.26,2.49.77s1.06,1.24,1.24,2.18l-1.54.24c-.15-.63-.41-1.1-.78-1.42s-.82-.47-1.35-.47c-.8,0-1.44.29-1.94.86s-.75,1.48-.75,2.71.24,2.17.72,2.73,1.11.85,1.88.85c.62,0,1.14-.19,1.56-.57s.68-.97.79-1.76Z"/>
    <path class="cls-5" d="M434.61,436.87c0-1.73.48-3.01,1.44-3.84.8-.69,1.78-1.04,2.94-1.04,1.28,0,2.33.42,3.15,1.26s1.22,2,1.22,3.48c0,1.2-.18,2.15-.54,2.83-.36.69-.89,1.22-1.57,1.6s-1.44.57-2.25.57c-1.31,0-2.36-.42-3.17-1.26-.81-.84-1.21-2.04-1.21-3.62ZM436.24,436.87c0,1.2.26,2.09.78,2.69s1.18.89,1.97.89,1.44-.3,1.96-.9.78-1.51.78-2.73c0-1.15-.26-2.03-.79-2.62s-1.18-.89-1.96-.89-1.45.3-1.97.89-.78,1.49-.78,2.68Z"/>
    <path class="cls-5" d="M444.58,438.75l1.56-.25c.09.63.33,1.11.73,1.44s.96.5,1.68.5,1.27-.15,1.62-.44.53-.64.53-1.04c0-.36-.16-.64-.47-.84-.22-.14-.76-.32-1.62-.54-1.16-.29-1.96-.55-2.41-.76-.45-.21-.79-.51-1.02-.89s-.35-.8-.35-1.25c0-.42.09-.8.29-1.16.19-.35.45-.65.78-.88.25-.18.58-.34,1.01-.46s.88-.19,1.37-.19c.73,0,1.38.11,1.93.32.55.21.96.5,1.23.86s.45.84.54,1.45l-1.55.21c-.07-.48-.27-.86-.61-1.12-.34-.27-.81-.4-1.43-.4-.73,0-1.25.12-1.56.36s-.47.52-.47.84c0,.21.06.39.19.55.13.17.33.31.61.42.16.06.62.19,1.4.4,1.12.3,1.9.54,2.34.73.44.19.79.47,1.04.83s.38.81.38,1.35-.15,1.02-.46,1.49c-.31.47-.75.83-1.33,1.08s-1.24.38-1.97.38c-1.21,0-2.14-.25-2.77-.76-.64-.5-1.04-1.25-1.22-2.24Z"/>
    <path class="cls-5" d="M457.67,440.12l.23,1.4c-.45.09-.84.14-1.2.14-.57,0-1.02-.09-1.34-.27s-.54-.42-.67-.72-.19-.92-.19-1.87v-5.37h-1.16v-1.23h1.16v-2.31l1.57-.95v3.26h1.59v1.23h-1.59v5.46c0,.45.03.74.08.87s.15.23.27.31c.12.08.31.11.54.11.18,0,.41-.02.69-.06Z"/>
    <path class="cls-5" d="M458.6,437.67v-1.59h4.86v1.59h-4.86Z"/>
    <path class="cls-5" d="M464.62,436.87c0-1.73.48-3.01,1.44-3.84.8-.69,1.78-1.04,2.94-1.04,1.28,0,2.33.42,3.15,1.26s1.22,2,1.22,3.48c0,1.2-.18,2.15-.54,2.83-.36.69-.89,1.22-1.57,1.6s-1.44.57-2.25.57c-1.31,0-2.36-.42-3.17-1.26-.81-.84-1.21-2.04-1.21-3.62ZM466.24,436.87c0,1.2.26,2.09.78,2.69s1.18.89,1.97.89,1.44-.3,1.96-.9.78-1.51.78-2.73c0-1.15-.26-2.03-.79-2.62s-1.18-.89-1.96-.89-1.45.3-1.97.89-.78,1.49-.78,2.68Z"/>
    <path class="cls-5" d="M475.22,445.12v-12.91h1.44v1.21c.34-.47.72-.83,1.15-1.07s.95-.36,1.56-.36c.8,0,1.5.21,2.11.62s1.07.99,1.38,1.74.47,1.57.47,2.46c0,.96-.17,1.81-.51,2.58-.34.76-.84,1.35-1.49,1.76s-1.34.61-2.06.61c-.53,0-1-.11-1.42-.33s-.76-.5-1.03-.84v4.54h-1.58ZM476.65,436.93c0,1.2.24,2.09.73,2.66s1.08.86,1.77.86,1.3-.3,1.81-.89c.5-.59.75-1.52.75-2.76s-.25-2.08-.73-2.67c-.49-.59-1.07-.89-1.75-.89s-1.27.31-1.79.94c-.52.63-.78,1.55-.78,2.75Z"/>
    <path class="cls-5" d="M488.68,440.12l.23,1.4c-.45.09-.84.14-1.2.14-.57,0-1.02-.09-1.34-.27s-.54-.42-.67-.72-.19-.92-.19-1.87v-5.37h-1.16v-1.23h1.16v-2.31l1.57-.95v3.26h1.59v1.23h-1.59v5.46c0,.45.03.74.08.87s.15.23.27.31c.12.08.31.11.54.11.18,0,.41-.02.69-.06Z"/>
    <path class="cls-5" d="M490.24,430.47v-1.82h1.58v1.82h-1.58ZM490.24,441.54v-9.33h1.58v9.33h-1.58Z"/>
    <path class="cls-5" d="M494.23,441.54v-9.33h1.42v1.31c.29-.46.68-.82,1.17-1.1s1.04-.42,1.66-.42c.69,0,1.26.14,1.7.43.44.29.75.69.94,1.2.74-1.09,1.7-1.63,2.88-1.63.93,0,1.64.26,2.14.77s.75,1.3.75,2.37v6.41h-1.57v-5.88c0-.63-.05-1.09-.15-1.37-.1-.28-.29-.5-.56-.67s-.59-.25-.95-.25c-.66,0-1.2.22-1.63.65s-.65,1.14-.65,2.1v5.42h-1.58v-6.06c0-.7-.13-1.23-.39-1.58s-.68-.53-1.27-.53c-.45,0-.86.12-1.23.35-.38.23-.65.58-.82,1.03s-.25,1.1-.25,1.95v4.84h-1.58Z"/>
    <path class="cls-5" d="M515.31,440.39c-.59.5-1.15.85-1.69,1.05-.54.21-1.12.31-1.75.31-1.03,0-1.81-.25-2.36-.75s-.83-1.14-.83-1.92c0-.46.1-.87.31-1.25.21-.38.48-.68.82-.91s.72-.4,1.14-.52c.31-.08.78-.16,1.41-.24,1.28-.15,2.22-.33,2.82-.54,0-.22,0-.35,0-.41,0-.64-.15-1.1-.45-1.36-.4-.36-1-.54-1.8-.54-.74,0-1.29.13-1.65.39s-.62.72-.79,1.38l-1.55-.21c.14-.66.37-1.2.69-1.6s.79-.72,1.4-.94,1.32-.33,2.12-.33,1.44.09,1.94.28.86.42,1.1.71.4.64.49,1.08c.05.27.08.76.08,1.46v2.11c0,1.47.03,2.4.1,2.79s.2.76.4,1.12h-1.65c-.16-.33-.27-.71-.32-1.15ZM515.18,436.85c-.57.23-1.44.43-2.58.6-.65.09-1.11.2-1.38.32s-.48.29-.62.51-.22.48-.22.75c0,.42.16.77.48,1.05s.79.42,1.4.42,1.15-.13,1.63-.4.82-.63,1.05-1.09c.17-.36.25-.88.25-1.58v-.58Z"/>
    <path class="cls-5" d="M519.2,441.54v-12.88h1.58v12.88h-1.58Z"/>
    <path class="cls-5" d="M528.23,441.54v-9.33h1.42v1.33c.69-1.03,1.68-1.54,2.97-1.54.56,0,1.08.1,1.55.3.47.2.82.47,1.06.8s.4.72.49,1.17c.06.29.09.81.09,1.54v5.74h-1.58v-5.68c0-.64-.06-1.13-.18-1.45s-.34-.57-.66-.76-.68-.29-1.1-.29c-.67,0-1.26.21-1.75.64s-.73,1.24-.73,2.43v5.1h-1.58Z"/>
    <path class="cls-5" d="M537.66,436.87c0-1.73.48-3.01,1.44-3.84.8-.69,1.78-1.04,2.94-1.04,1.28,0,2.33.42,3.15,1.26s1.22,2,1.22,3.48c0,1.2-.18,2.15-.54,2.83-.36.69-.89,1.22-1.57,1.6s-1.44.57-2.25.57c-1.31,0-2.36-.42-3.17-1.26-.81-.84-1.21-2.04-1.21-3.62ZM539.28,436.87c0,1.2.26,2.09.78,2.69s1.18.89,1.97.89,1.44-.3,1.96-.9.78-1.51.78-2.73c0-1.15-.26-2.03-.79-2.62s-1.18-.89-1.96-.89-1.45.3-1.97.89-.78,1.49-.78,2.68Z"/>
    <path class="cls-5" d="M548.24,441.54v-9.33h1.42v1.42c.36-.66.7-1.1,1.01-1.31.31-.21.65-.32,1.01-.32.53,0,1.08.17,1.63.51l-.54,1.47c-.39-.23-.77-.34-1.16-.34-.35,0-.66.1-.93.31s-.47.5-.59.87c-.18.56-.26,1.18-.26,1.85v4.89h-1.58Z"/>
    <path class="cls-5" d="M565.34,438.12l1.56.2c-.17,1.07-.61,1.91-1.31,2.52s-1.56.91-2.58.91c-1.28,0-2.3-.42-3.08-1.25s-1.16-2.03-1.16-3.59c0-1.01.17-1.89.5-2.65s.84-1.32,1.52-1.7,1.43-.57,2.23-.57c1.01,0,1.84.26,2.49.77s1.06,1.24,1.24,2.18l-1.54.24c-.15-.63-.41-1.1-.78-1.42s-.82-.47-1.35-.47c-.8,0-1.44.29-1.94.86s-.75,1.48-.75,2.71.24,2.17.72,2.73,1.11.85,1.88.85c.62,0,1.14-.19,1.56-.57s.68-.97.79-1.76Z"/>
    <path class="cls-5" d="M567.66,436.87c0-1.73.48-3.01,1.44-3.84.8-.69,1.78-1.04,2.94-1.04,1.28,0,2.33.42,3.15,1.26s1.22,2,1.22,3.48c0,1.2-.18,2.15-.54,2.83-.36.69-.89,1.22-1.57,1.6s-1.44.57-2.25.57c-1.31,0-2.36-.42-3.17-1.26-.81-.84-1.21-2.04-1.21-3.62ZM569.29,436.87c0,1.2.26,2.09.78,2.69s1.18.89,1.97.89,1.44-.3,1.96-.9.78-1.51.78-2.73c0-1.15-.26-2.03-.79-2.62s-1.18-.89-1.96-.89-1.45.3-1.97.89-.78,1.49-.78,2.68Z"/>
    <path class="cls-5" d="M578.26,441.54v-9.33h1.42v1.31c.29-.46.68-.82,1.17-1.1s1.04-.42,1.66-.42c.69,0,1.26.14,1.7.43.44.29.75.69.94,1.2.74-1.09,1.7-1.63,2.88-1.63.93,0,1.64.26,2.14.77s.75,1.3.75,2.37v6.41h-1.57v-5.88c0-.63-.05-1.09-.15-1.37-.1-.28-.29-.5-.56-.67s-.59-.25-.95-.25c-.66,0-1.2.22-1.63.65s-.65,1.14-.65,2.1v5.42h-1.58v-6.06c0-.7-.13-1.23-.39-1.58s-.68-.53-1.27-.53c-.45,0-.86.12-1.23.35-.38.23-.65.58-.82,1.03s-.25,1.1-.25,1.95v4.84h-1.58Z"/>
    <path class="cls-5" d="M593.25,445.12v-12.91h1.44v1.21c.34-.47.72-.83,1.15-1.07s.95-.36,1.56-.36c.8,0,1.5.21,2.11.62s1.07.99,1.38,1.74.47,1.57.47,2.46c0,.96-.17,1.81-.51,2.58-.34.76-.84,1.35-1.49,1.76s-1.34.61-2.06.61c-.53,0-1-.11-1.42-.33s-.76-.5-1.03-.84v4.54h-1.58ZM594.69,436.93c0,1.2.24,2.09.73,2.66s1.08.86,1.77.86,1.3-.3,1.81-.89c.5-.59.75-1.52.75-2.76s-.25-2.08-.73-2.67c-.49-.59-1.07-.89-1.75-.89s-1.27.31-1.79.94c-.52.63-.78,1.55-.78,2.75Z"/>
    <path class="cls-5" d="M603.23,441.54v-12.88h1.58v12.88h-1.58Z"/>
    <path class="cls-5" d="M613.65,438.53l1.63.2c-.26.96-.74,1.7-1.43,2.22s-1.59.79-2.67.79c-1.37,0-2.45-.42-3.25-1.26-.8-.84-1.2-2.02-1.2-3.54s.4-2.79,1.21-3.66,1.86-1.3,3.15-1.3,2.27.42,3.06,1.27,1.19,2.04,1.19,3.59c0,.09,0,.23,0,.42h-6.96c.06,1.03.35,1.81.87,2.36s1.17.82,1.95.82c.58,0,1.08-.15,1.49-.46s.74-.79.98-1.46ZM608.46,435.98h5.21c-.07-.79-.27-1.37-.6-1.77-.5-.61-1.16-.91-1.96-.91-.73,0-1.34.24-1.83.73s-.77,1.14-.82,1.95Z"/>
    <path class="cls-5" d="M620.73,440.12l.23,1.4c-.45.09-.84.14-1.2.14-.57,0-1.02-.09-1.34-.27s-.54-.42-.67-.72-.19-.92-.19-1.87v-5.37h-1.16v-1.23h1.16v-2.31l1.57-.95v3.26h1.59v1.23h-1.59v5.46c0,.45.03.74.08.87s.15.23.27.31c.12.08.31.11.54.11.18,0,.41-.02.69-.06Z"/>
    <path class="cls-5" d="M628.67,438.53l1.63.2c-.26.96-.74,1.7-1.43,2.22s-1.59.79-2.67.79c-1.37,0-2.45-.42-3.25-1.26-.8-.84-1.2-2.02-1.2-3.54s.4-2.79,1.21-3.66,1.86-1.3,3.15-1.3,2.27.42,3.06,1.27,1.19,2.04,1.19,3.59c0,.09,0,.23,0,.42h-6.96c.06,1.03.35,1.81.87,2.36s1.17.82,1.95.82c.58,0,1.08-.15,1.49-.46s.74-.79.98-1.46ZM623.47,435.98h5.21c-.07-.79-.27-1.37-.6-1.77-.5-.61-1.16-.91-1.96-.91-.73,0-1.34.24-1.83.73s-.77,1.14-.82,1.95Z"/>
    <path class="cls-5" d="M365.19,466.93c-.87-1.1-1.61-2.39-2.21-3.87s-.91-3.01-.91-4.59c0-1.39.23-2.73.68-4.01.53-1.48,1.34-2.96,2.44-4.43h1.13c-.71,1.22-1.18,2.09-1.41,2.61-.36.81-.64,1.65-.84,2.53-.25,1.1-.38,2.2-.38,3.3,0,2.82.88,5.63,2.63,8.45h-1.13Z"/>
    <path class="cls-5" d="M368.14,463.14v-9.33h1.42v1.42c.36-.66.7-1.1,1.01-1.31.31-.21.65-.32,1.01-.32.53,0,1.08.17,1.63.51l-.54,1.47c-.39-.23-.77-.34-1.16-.34-.35,0-.66.1-.93.31s-.47.5-.59.87c-.18.56-.26,1.18-.26,1.85v4.89h-1.58Z"/>
    <path class="cls-5" d="M380.55,460.13l1.63.2c-.26.96-.74,1.7-1.43,2.22s-1.59.79-2.67.79c-1.37,0-2.45-.42-3.25-1.26-.8-.84-1.2-2.02-1.2-3.54s.4-2.79,1.21-3.66,1.86-1.3,3.15-1.3,2.27.42,3.06,1.27,1.19,2.04,1.19,3.59c0,.09,0,.23,0,.42h-6.96c.06,1.03.35,1.81.87,2.36s1.17.82,1.95.82c.58,0,1.08-.15,1.49-.46s.74-.79.98-1.46ZM375.35,457.58h5.21c-.07-.79-.27-1.37-.6-1.77-.5-.61-1.16-.91-1.96-.91-.73,0-1.34.24-1.83.73s-.77,1.14-.82,1.95Z"/>
    <path class="cls-5" d="M387.62,461.72l.23,1.4c-.45.09-.84.14-1.2.14-.57,0-1.02-.09-1.34-.27s-.54-.42-.67-.72-.19-.92-.19-1.87v-5.37h-1.16v-1.23h1.16v-2.31l1.57-.95v3.26h1.59v1.23h-1.59v5.46c0,.45.03.74.08.87s.15.23.27.31c.12.08.31.11.54.11.18,0,.41-.02.69-.06Z"/>
    <path class="cls-5" d="M395.29,463.14v-1.37c-.73,1.05-1.71,1.58-2.96,1.58-.55,0-1.07-.11-1.54-.32s-.83-.48-1.06-.8c-.23-.32-.39-.71-.49-1.17-.06-.31-.1-.8-.1-1.48v-5.78h1.58v5.18c0,.83.03,1.38.1,1.67.1.42.31.74.63.98s.72.36,1.2.36.92-.12,1.34-.36.71-.57.88-.99.26-1.03.26-1.82v-5h1.58v9.33h-1.42Z"/>
    <path class="cls-5" d="M399.16,463.14v-9.33h1.42v1.42c.36-.66.7-1.1,1.01-1.31.31-.21.65-.32,1.01-.32.53,0,1.08.17,1.63.51l-.54,1.47c-.39-.23-.77-.34-1.16-.34-.35,0-.66.1-.93.31s-.47.5-.59.87c-.18.56-.26,1.18-.26,1.85v4.89h-1.58Z"/>
    <path class="cls-5" d="M405.17,463.14v-9.33h1.42v1.33c.69-1.03,1.68-1.54,2.97-1.54.56,0,1.08.1,1.55.3.47.2.82.47,1.06.8s.4.72.49,1.17c.06.29.09.81.09,1.54v5.74h-1.58v-5.68c0-.64-.06-1.13-.18-1.45s-.34-.57-.66-.76-.68-.29-1.1-.29c-.67,0-1.26.21-1.75.64s-.73,1.24-.73,2.43v5.1h-1.58Z"/>
    <path class="cls-5" d="M414.55,460.35l1.56-.25c.09.63.33,1.11.73,1.44s.96.5,1.68.5,1.27-.15,1.62-.44.53-.64.53-1.04c0-.36-.16-.64-.47-.84-.22-.14-.76-.32-1.62-.54-1.16-.29-1.96-.55-2.41-.76-.45-.21-.79-.51-1.02-.89s-.35-.8-.35-1.25c0-.42.09-.8.29-1.16.19-.35.45-.65.78-.88.25-.18.58-.34,1.01-.46s.88-.19,1.37-.19c.73,0,1.38.11,1.93.32.55.21.96.5,1.23.86s.45.84.54,1.45l-1.55.21c-.07-.48-.27-.86-.61-1.12-.34-.27-.81-.4-1.43-.4-.73,0-1.25.12-1.56.36s-.47.52-.47.84c0,.21.06.39.19.55.13.17.33.31.61.42.16.06.62.19,1.4.4,1.12.3,1.9.54,2.34.73.44.19.79.47,1.04.83s.38.81.38,1.35-.15,1.02-.46,1.49c-.31.47-.75.83-1.33,1.08s-1.24.38-1.97.38c-1.21,0-2.14-.25-2.77-.76-.64-.5-1.04-1.25-1.22-2.24Z"/>
    <path class="cls-5" d="M432.64,461.72l.23,1.4c-.45.09-.84.14-1.2.14-.57,0-1.02-.09-1.34-.27s-.54-.42-.67-.72-.19-.92-.19-1.87v-5.37h-1.16v-1.23h1.16v-2.31l1.57-.95v3.26h1.59v1.23h-1.59v5.46c0,.45.03.74.08.87s.15.23.27.31c.12.08.31.11.54.11.18,0,.41-.02.69-.06Z"/>
    <path class="cls-5" d="M434.19,463.14v-12.88h1.58v4.62c.74-.86,1.67-1.28,2.79-1.28.69,0,1.29.14,1.8.41s.88.65,1.09,1.13c.22.48.33,1.18.33,2.09v5.92h-1.58v-5.92c0-.79-.17-1.37-.51-1.73-.34-.36-.83-.54-1.46-.54-.47,0-.91.12-1.32.36-.41.24-.71.57-.88.99s-.26.99-.26,1.72v5.11h-1.58Z"/>
    <path class="cls-5" d="M450.59,460.13l1.63.2c-.26.96-.74,1.7-1.43,2.22s-1.59.79-2.67.79c-1.37,0-2.45-.42-3.25-1.26-.8-.84-1.2-2.02-1.2-3.54s.4-2.79,1.21-3.66,1.86-1.3,3.15-1.3,2.27.42,3.06,1.27,1.19,2.04,1.19,3.59c0,.09,0,.23,0,.42h-6.96c.06,1.03.35,1.81.87,2.36s1.17.82,1.95.82c.58,0,1.08-.15,1.49-.46s.74-.79.98-1.46ZM445.39,457.58h5.21c-.07-.79-.27-1.37-.6-1.77-.5-.61-1.16-.91-1.96-.91-.73,0-1.34.24-1.83.73s-.77,1.14-.82,1.95Z"/>
    <path class="cls-5" d="M459.59,463.14v-8.1h-1.4v-1.23h1.4v-.99c0-.63.06-1.09.17-1.4.15-.41.42-.74.8-1s.92-.38,1.61-.38c.45,0,.94.05,1.48.16l-.24,1.38c-.33-.06-.64-.09-.93-.09-.48,0-.82.1-1.02.31s-.3.59-.3,1.15v.86h1.82v1.23h-1.82v8.1h-1.57Z"/>
    <path class="cls-5" d="M464.22,452.07v-1.82h1.58v1.82h-1.58ZM464.22,463.14v-9.33h1.58v9.33h-1.58Z"/>
    <path class="cls-5" d="M468.19,463.14v-9.33h1.42v1.42c.36-.66.7-1.1,1.01-1.31.31-.21.65-.32,1.01-.32.53,0,1.08.17,1.63.51l-.54,1.47c-.39-.23-.77-.34-1.16-.34-.35,0-.66.1-.93.31s-.47.5-.59.87c-.18.56-.26,1.18-.26,1.85v4.89h-1.58Z"/>
    <path class="cls-5" d="M473.57,460.35l1.56-.25c.09.63.33,1.11.73,1.44s.96.5,1.68.5,1.27-.15,1.62-.44.53-.64.53-1.04c0-.36-.16-.64-.47-.84-.22-.14-.76-.32-1.62-.54-1.16-.29-1.96-.55-2.41-.76-.45-.21-.79-.51-1.02-.89s-.35-.8-.35-1.25c0-.42.09-.8.29-1.16.19-.35.45-.65.78-.88.25-.18.58-.34,1.01-.46s.88-.19,1.37-.19c.73,0,1.38.11,1.93.32.55.21.96.5,1.23.86s.45.84.54,1.45l-1.55.21c-.07-.48-.27-.86-.61-1.12-.34-.27-.81-.4-1.43-.4-.73,0-1.25.12-1.56.36s-.47.52-.47.84c0,.21.06.39.19.55.13.17.33.31.61.42.16.06.62.19,1.4.4,1.12.3,1.9.54,2.34.73.44.19.79.47,1.04.83s.38.81.38,1.35-.15,1.02-.46,1.49c-.31.47-.75.83-1.33,1.08s-1.24.38-1.97.38c-1.21,0-2.14-.25-2.77-.76-.64-.5-1.04-1.25-1.22-2.24Z"/>
    <path class="cls-5" d="M486.66,461.72l.23,1.4c-.45.09-.84.14-1.2.14-.57,0-1.02-.09-1.34-.27s-.54-.42-.67-.72-.19-.92-.19-1.87v-5.37h-1.16v-1.23h1.16v-2.31l1.57-.95v3.26h1.59v1.23h-1.59v5.46c0,.45.03.74.08.87s.15.23.27.31c.12.08.31.11.54.11.18,0,.41-.02.69-.06Z"/>
    <path class="cls-5" d="M492.57,460.35l1.56-.25c.09.63.33,1.11.73,1.44s.96.5,1.68.5,1.27-.15,1.62-.44.53-.64.53-1.04c0-.36-.16-.64-.47-.84-.22-.14-.76-.32-1.62-.54-1.16-.29-1.96-.55-2.41-.76-.45-.21-.79-.51-1.02-.89s-.35-.8-.35-1.25c0-.42.09-.8.29-1.16.19-.35.45-.65.78-.88.25-.18.58-.34,1.01-.46s.88-.19,1.37-.19c.73,0,1.38.11,1.93.32.55.21.96.5,1.23.86s.45.84.54,1.45l-1.55.21c-.07-.48-.27-.86-.61-1.12-.34-.27-.81-.4-1.43-.4-.73,0-1.25.12-1.56.36s-.47.52-.47.84c0,.21.06.39.19.55.13.17.33.31.61.42.16.06.62.19,1.4.4,1.12.3,1.9.54,2.34.73.44.19.79.47,1.04.83s.38.81.38,1.35-.15,1.02-.46,1.49c-.31.47-.75.83-1.33,1.08s-1.24.38-1.97.38c-1.21,0-2.14-.25-2.77-.76-.64-.5-1.04-1.25-1.22-2.24Z"/>
    <path class="cls-5" d="M501.62,458.47c0-1.73.48-3.01,1.44-3.84.8-.69,1.78-1.04,2.94-1.04,1.28,0,2.33.42,3.15,1.26s1.22,2,1.22,3.48c0,1.2-.18,2.15-.54,2.83-.36.69-.89,1.22-1.57,1.6s-1.44.57-2.25.57c-1.31,0-2.36-.42-3.17-1.26-.81-.84-1.21-2.04-1.21-3.62ZM503.24,458.47c0,1.2.26,2.09.78,2.69s1.18.89,1.97.89,1.44-.3,1.96-.9.78-1.51.78-2.73c0-1.15-.26-2.03-.79-2.62s-1.18-.89-1.96-.89-1.45.3-1.97.89-.78,1.49-.78,2.68Z"/>
    <path class="cls-5" d="M512.18,463.14v-12.88h1.58v12.88h-1.58Z"/>
    <path class="cls-5" d="M522.33,463.14v-1.37c-.73,1.05-1.71,1.58-2.96,1.58-.55,0-1.07-.11-1.54-.32s-.83-.48-1.06-.8c-.23-.32-.39-.71-.49-1.17-.06-.31-.1-.8-.1-1.48v-5.78h1.58v5.18c0,.83.03,1.38.1,1.67.1.42.31.74.63.98s.72.36,1.2.36.92-.12,1.34-.36.71-.57.88-.99.26-1.03.26-1.82v-5h1.58v9.33h-1.42Z"/>
    <path class="cls-5" d="M529.68,461.72l.23,1.4c-.45.09-.84.14-1.2.14-.57,0-1.02-.09-1.34-.27s-.54-.42-.67-.72-.19-.92-.19-1.87v-5.37h-1.16v-1.23h1.16v-2.31l1.57-.95v3.26h1.59v1.23h-1.59v5.46c0,.45.03.74.08.87s.15.23.27.31c.12.08.31.11.54.11.18,0,.41-.02.69-.06Z"/>
    <path class="cls-5" d="M531.23,452.07v-1.82h1.58v1.82h-1.58ZM531.23,463.14v-9.33h1.58v9.33h-1.58Z"/>
    <path class="cls-5" d="M534.64,458.47c0-1.73.48-3.01,1.44-3.84.8-.69,1.78-1.04,2.94-1.04,1.28,0,2.33.42,3.15,1.26s1.22,2,1.22,3.48c0,1.2-.18,2.15-.54,2.83-.36.69-.89,1.22-1.57,1.6s-1.44.57-2.25.57c-1.31,0-2.36-.42-3.17-1.26-.81-.84-1.21-2.04-1.21-3.62ZM536.26,458.47c0,1.2.26,2.09.78,2.69s1.18.89,1.97.89,1.44-.3,1.96-.9.78-1.51.78-2.73c0-1.15-.26-2.03-.79-2.62s-1.18-.89-1.96-.89-1.45.3-1.97.89-.78,1.49-.78,2.68Z"/>
    <path class="cls-5" d="M545.24,463.14v-9.33h1.42v1.33c.69-1.03,1.68-1.54,2.97-1.54.56,0,1.08.1,1.55.3.47.2.82.47,1.06.8s.4.72.49,1.17c.06.29.09.81.09,1.54v5.74h-1.58v-5.68c0-.64-.06-1.13-.18-1.45s-.34-.57-.66-.76-.68-.29-1.1-.29c-.67,0-1.26.21-1.75.64s-.73,1.24-.73,2.43v5.1h-1.58Z"/>
    <path class="cls-5" d="M555.66,463.14v-1.8h1.8v1.8c0,.66-.12,1.2-.35,1.6s-.61.72-1.12.94l-.44-.68c.33-.15.58-.36.74-.65s.25-.69.26-1.23h-.9Z"/>
    <path class="cls-5" d="M571.64,460.13l1.63.2c-.26.96-.74,1.7-1.43,2.22s-1.59.79-2.67.79c-1.37,0-2.45-.42-3.25-1.26-.8-.84-1.2-2.02-1.2-3.54s.4-2.79,1.21-3.66,1.86-1.3,3.15-1.3,2.27.42,3.06,1.27,1.19,2.04,1.19,3.59c0,.09,0,.23,0,.42h-6.96c.06,1.03.35,1.81.87,2.36s1.17.82,1.95.82c.58,0,1.08-.15,1.49-.46s.74-.79.98-1.46ZM566.44,457.58h5.21c-.07-.79-.27-1.37-.6-1.77-.5-.61-1.16-.91-1.96-.91-.73,0-1.34.24-1.83.73s-.77,1.14-.82,1.95Z"/>
    <path class="cls-5" d="M577.85,463.14l-3.55-9.33h1.67l2,5.59c.22.6.42,1.23.6,1.88.14-.49.34-1.08.59-1.78l2.07-5.7h1.63l-3.53,9.33h-1.48Z"/>
    <path class="cls-5" d="M590.65,460.13l1.63.2c-.26.96-.74,1.7-1.43,2.22s-1.59.79-2.67.79c-1.37,0-2.45-.42-3.25-1.26-.8-.84-1.2-2.02-1.2-3.54s.4-2.79,1.21-3.66,1.86-1.3,3.15-1.3,2.27.42,3.06,1.27,1.19,2.04,1.19,3.59c0,.09,0,.23,0,.42h-6.96c.06,1.03.35,1.81.87,2.36s1.17.82,1.95.82c.58,0,1.08-.15,1.49-.46s.74-.79.98-1.46ZM585.45,457.58h5.21c-.07-.79-.27-1.37-.6-1.77-.5-.61-1.16-.91-1.96-.91-.73,0-1.34.24-1.83.73s-.77,1.14-.82,1.95Z"/>
    <path class="cls-5" d="M594.27,463.14v-9.33h1.42v1.33c.69-1.03,1.68-1.54,2.97-1.54.56,0,1.08.1,1.55.3.47.2.82.47,1.06.8s.4.72.49,1.17c.06.29.09.81.09,1.54v5.74h-1.58v-5.68c0-.64-.06-1.13-.18-1.45s-.34-.57-.66-.76-.68-.29-1.1-.29c-.67,0-1.26.21-1.75.64s-.73,1.24-.73,2.43v5.1h-1.58Z"/>
    <path class="cls-5" d="M609.29,452.07v-1.82h1.58v1.82h-1.58ZM609.29,463.14v-9.33h1.58v9.33h-1.58Z"/>
    <path class="cls-5" d="M613.66,463.14v-8.1h-1.4v-1.23h1.4v-.99c0-.63.06-1.09.17-1.4.15-.41.42-.74.8-1s.92-.38,1.61-.38c.45,0,.94.05,1.48.16l-.24,1.38c-.33-.06-.64-.09-.93-.09-.48,0-.82.1-1.02.31s-.3.59-.3,1.15v.86h1.82v1.23h-1.82v8.1h-1.57Z"/>
    <path class="cls-5" d="M409.19,473.67v-1.82h1.58v1.82h-1.58ZM409.19,484.74v-9.33h1.58v9.33h-1.58Z"/>
    <path class="cls-5" d="M416.63,483.32l.23,1.4c-.45.09-.84.14-1.2.14-.57,0-1.02-.09-1.34-.27s-.54-.42-.67-.72-.19-.92-.19-1.87v-5.37h-1.16v-1.23h1.16v-2.31l1.57-.95v3.26h1.59v1.23h-1.59v5.46c0,.45.03.74.08.87s.15.23.27.31c.12.08.31.11.54.11.18,0,.41-.02.69-.06Z"/>
    <path class="cls-5" d="M417.54,481.95l1.56-.25c.09.63.33,1.11.73,1.44s.96.5,1.68.5,1.27-.15,1.62-.44.53-.64.53-1.04c0-.36-.16-.64-.47-.84-.22-.14-.76-.32-1.62-.54-1.16-.29-1.96-.55-2.41-.76-.45-.21-.79-.51-1.02-.89s-.35-.8-.35-1.25c0-.42.09-.8.29-1.16.19-.35.45-.65.78-.88.25-.18.58-.34,1.01-.46s.88-.19,1.37-.19c.73,0,1.38.11,1.93.32.55.21.96.5,1.23.86s.45.84.54,1.45l-1.55.21c-.07-.48-.27-.86-.61-1.12-.34-.27-.81-.4-1.43-.4-.73,0-1.25.12-1.56.36s-.47.52-.47.84c0,.21.06.39.19.55.13.17.33.31.61.42.16.06.62.19,1.4.4,1.12.3,1.9.54,2.34.73.44.19.79.47,1.04.83s.38.81.38,1.35-.15,1.02-.46,1.49c-.31.47-.75.83-1.33,1.08s-1.24.38-1.97.38c-1.21,0-2.14-.25-2.77-.76-.64-.5-1.04-1.25-1.22-2.24Z"/>
    <path class="cls-5" d="M432.18,484.74v-9.33h1.42v1.33c.69-1.03,1.68-1.54,2.97-1.54.56,0,1.08.1,1.55.3.47.2.82.47,1.06.8s.4.72.49,1.17c.06.29.09.81.09,1.54v5.74h-1.58v-5.68c0-.64-.06-1.13-.18-1.45s-.34-.57-.66-.76-.68-.29-1.1-.29c-.67,0-1.26.21-1.75.64s-.73,1.24-.73,2.43v5.1h-1.58Z"/>
    <path class="cls-5" d="M441.6,480.07c0-1.73.48-3.01,1.44-3.84.8-.69,1.78-1.04,2.94-1.04,1.28,0,2.33.42,3.15,1.26s1.22,2,1.22,3.48c0,1.2-.18,2.15-.54,2.83-.36.69-.89,1.22-1.57,1.6s-1.44.57-2.25.57c-1.31,0-2.36-.42-3.17-1.26-.81-.84-1.21-2.04-1.21-3.62ZM443.23,480.07c0,1.2.26,2.09.78,2.69s1.18.89,1.97.89,1.44-.3,1.96-.9.78-1.51.78-2.73c0-1.15-.26-2.03-.79-2.62s-1.18-.89-1.96-.89-1.45.3-1.97.89-.78,1.49-.78,2.68Z"/>
    <path class="cls-5" d="M455.65,483.32l.23,1.4c-.45.09-.84.14-1.2.14-.57,0-1.02-.09-1.34-.27s-.54-.42-.67-.72-.19-.92-.19-1.87v-5.37h-1.16v-1.23h1.16v-2.31l1.57-.95v3.26h1.59v1.23h-1.59v5.46c0,.45.03.74.08.87s.15.23.27.31c.12.08.31.11.54.11.18,0,.41-.02.69-.06Z"/>
    <path class="cls-5" d="M465.66,483.32l.23,1.4c-.45.09-.84.14-1.2.14-.57,0-1.02-.09-1.34-.27s-.54-.42-.67-.72-.19-.92-.19-1.87v-5.37h-1.16v-1.23h1.16v-2.31l1.57-.95v3.26h1.59v1.23h-1.59v5.46c0,.45.03.74.08.87s.15.23.27.31c.12.08.31.11.54.11.18,0,.41-.02.69-.06Z"/>
    <path class="cls-5" d="M467.2,484.74v-12.88h1.58v4.62c.74-.86,1.67-1.28,2.79-1.28.69,0,1.29.14,1.8.41s.88.65,1.09,1.13c.22.48.33,1.18.33,2.09v5.92h-1.58v-5.92c0-.79-.17-1.37-.51-1.73-.34-.36-.83-.54-1.46-.54-.47,0-.91.12-1.32.36-.41.24-.71.57-.88.99s-.26.99-.26,1.72v5.11h-1.58Z"/>
    <path class="cls-5" d="M483.6,481.73l1.63.2c-.26.96-.74,1.7-1.43,2.22s-1.59.79-2.67.79c-1.37,0-2.45-.42-3.25-1.26-.8-.84-1.2-2.02-1.2-3.54s.4-2.79,1.21-3.66,1.86-1.3,3.15-1.3,2.27.42,3.06,1.27,1.19,2.04,1.19,3.59c0,.09,0,.23,0,.42h-6.96c.06,1.03.35,1.81.87,2.36s1.17.82,1.95.82c.58,0,1.08-.15,1.49-.46s.74-.79.98-1.46ZM478.41,479.18h5.21c-.07-.79-.27-1.37-.6-1.77-.5-.61-1.16-.91-1.96-.91-.73,0-1.34.24-1.83.73s-.77,1.14-.82,1.95Z"/>
    <path class="cls-5" d="M498.32,481.32l1.56.2c-.17,1.07-.61,1.91-1.31,2.52s-1.56.91-2.58.91c-1.28,0-2.3-.42-3.08-1.25s-1.16-2.03-1.16-3.59c0-1.01.17-1.89.5-2.65s.84-1.32,1.52-1.7,1.43-.57,2.23-.57c1.01,0,1.84.26,2.49.77s1.06,1.24,1.24,2.18l-1.54.24c-.15-.63-.41-1.1-.78-1.42s-.82-.47-1.35-.47c-.8,0-1.44.29-1.94.86s-.75,1.48-.75,2.71.24,2.17.72,2.73,1.11.85,1.88.85c.62,0,1.14-.19,1.56-.57s.68-.97.79-1.76Z"/>
    <path class="cls-5" d="M501.22,484.74v-12.88h1.58v4.62c.74-.86,1.67-1.28,2.79-1.28.69,0,1.29.14,1.8.41s.88.65,1.09,1.13c.22.48.33,1.18.33,2.09v5.92h-1.58v-5.92c0-.79-.17-1.37-.51-1.73-.34-.36-.83-.54-1.46-.54-.47,0-.91.12-1.32.36-.41.24-.71.57-.88.99s-.26.99-.26,1.72v5.11h-1.58Z"/>
    <path class="cls-5" d="M517.62,481.73l1.63.2c-.26.96-.74,1.7-1.43,2.22s-1.59.79-2.67.79c-1.37,0-2.45-.42-3.25-1.26-.8-.84-1.2-2.02-1.2-3.54s.4-2.79,1.21-3.66,1.86-1.3,3.15-1.3,2.27.42,3.06,1.27,1.19,2.04,1.19,3.59c0,.09,0,.23,0,.42h-6.96c.06,1.03.35,1.81.87,2.36s1.17.82,1.95.82c.58,0,1.08-.15,1.49-.46s.74-.79.98-1.46ZM512.43,479.18h5.21c-.07-.79-.27-1.37-.6-1.77-.5-.61-1.16-.91-1.96-.91-.73,0-1.34.24-1.83.73s-.77,1.14-.82,1.95Z"/>
    <path class="cls-5" d="M527.34,483.59c-.59.5-1.15.85-1.69,1.05-.54.21-1.12.31-1.75.31-1.03,0-1.81-.25-2.36-.75s-.83-1.14-.83-1.92c0-.46.1-.87.31-1.25.21-.38.48-.68.82-.91s.72-.4,1.14-.52c.31-.08.78-.16,1.41-.24,1.28-.15,2.22-.33,2.82-.54,0-.22,0-.35,0-.41,0-.64-.15-1.1-.45-1.36-.4-.36-1-.54-1.8-.54-.74,0-1.29.13-1.65.39s-.62.72-.79,1.38l-1.55-.21c.14-.66.37-1.2.69-1.6s.79-.72,1.4-.94,1.32-.33,2.12-.33,1.44.09,1.94.28.86.42,1.1.71.4.64.49,1.08c.05.27.08.76.08,1.46v2.11c0,1.47.03,2.4.1,2.79s.2.76.4,1.12h-1.65c-.16-.33-.27-.71-.32-1.15ZM527.21,480.06c-.57.23-1.44.43-2.58.6-.65.09-1.11.2-1.38.32s-.48.29-.62.51-.22.48-.22.75c0,.42.16.77.48,1.05s.79.42,1.4.42,1.15-.13,1.63-.4.82-.63,1.05-1.09c.17-.36.25-.88.25-1.58v-.58Z"/>
    <path class="cls-5" d="M531.26,488.32v-12.91h1.44v1.21c.34-.47.72-.83,1.15-1.07s.95-.36,1.56-.36c.8,0,1.5.21,2.11.62s1.07.99,1.38,1.74.47,1.57.47,2.46c0,.96-.17,1.81-.51,2.58-.34.76-.84,1.35-1.49,1.76s-1.34.61-2.06.61c-.53,0-1-.11-1.42-.33s-.76-.5-1.03-.84v4.54h-1.58ZM532.69,480.13c0,1.2.24,2.09.73,2.66s1.08.86,1.77.86,1.3-.3,1.81-.89c.5-.59.75-1.52.75-2.76s-.25-2.08-.73-2.67c-.49-.59-1.07-.89-1.75-.89s-1.27.31-1.79.94c-.52.63-.78,1.55-.78,2.75Z"/>
    <path class="cls-5" d="M547.66,481.73l1.63.2c-.26.96-.74,1.7-1.43,2.22s-1.59.79-2.67.79c-1.37,0-2.45-.42-3.25-1.26-.8-.84-1.2-2.02-1.2-3.54s.4-2.79,1.21-3.66,1.86-1.3,3.15-1.3,2.27.42,3.06,1.27,1.19,2.04,1.19,3.59c0,.09,0,.23,0,.42h-6.96c.06,1.03.35,1.81.87,2.36s1.17.82,1.95.82c.58,0,1.08-.15,1.49-.46s.74-.79.98-1.46ZM542.46,479.18h5.21c-.07-.79-.27-1.37-.6-1.77-.5-.61-1.16-.91-1.96-.91-.73,0-1.34.24-1.83.73s-.77,1.14-.82,1.95Z"/>
    <path class="cls-5" d="M550.65,481.95l1.56-.25c.09.63.33,1.11.73,1.44s.96.5,1.68.5,1.27-.15,1.62-.44.53-.64.53-1.04c0-.36-.16-.64-.47-.84-.22-.14-.76-.32-1.62-.54-1.16-.29-1.96-.55-2.41-.76-.45-.21-.79-.51-1.02-.89s-.35-.8-.35-1.25c0-.42.09-.8.29-1.16.19-.35.45-.65.78-.88.25-.18.58-.34,1.01-.46s.88-.19,1.37-.19c.73,0,1.38.11,1.93.32.55.21.96.5,1.23.86s.45.84.54,1.45l-1.55.21c-.07-.48-.27-.86-.61-1.12-.34-.27-.81-.4-1.43-.4-.73,0-1.25.12-1.56.36s-.47.52-.47.84c0,.21.06.39.19.55.13.17.33.31.61.42.16.06.62.19,1.4.4,1.12.3,1.9.54,2.34.73.44.19.79.47,1.04.83s.38.81.38,1.35-.15,1.02-.46,1.49c-.31.47-.75.83-1.33,1.08s-1.24.38-1.97.38c-1.21,0-2.14-.25-2.77-.76-.64-.5-1.04-1.25-1.22-2.24Z"/>
    <path class="cls-5" d="M563.73,483.32l.23,1.4c-.45.09-.84.14-1.2.14-.57,0-1.02-.09-1.34-.27s-.54-.42-.67-.72-.19-.92-.19-1.87v-5.37h-1.16v-1.23h1.16v-2.31l1.57-.95v3.26h1.59v1.23h-1.59v5.46c0,.45.03.74.08.87s.15.23.27.31c.12.08.31.11.54.11.18,0,.41-.02.69-.06Z"/>
    <path class="cls-5" d="M566.32,488.53h-1.13c1.75-2.81,2.63-5.63,2.63-8.45,0-1.1-.13-2.19-.38-3.28-.2-.88-.48-1.72-.83-2.53-.23-.53-.7-1.41-1.42-2.64h1.13c1.1,1.47,1.92,2.95,2.44,4.43.45,1.28.68,2.61.68,4.01,0,1.58-.3,3.11-.91,4.59-.61,1.48-1.34,2.77-2.21,3.87Z"/>
  </g>
  <g>
    <path class="cls-5" d="M697.11,430.47v-1.82h1.58v1.82h-1.58ZM697.11,441.54v-9.33h1.58v9.33h-1.58Z"/>
    <path class="cls-5" d="M700.46,438.75l1.56-.25c.09.63.33,1.11.73,1.44s.96.5,1.68.5,1.27-.15,1.62-.44.53-.64.53-1.04c0-.36-.16-.64-.47-.84-.22-.14-.76-.32-1.62-.54-1.16-.29-1.96-.55-2.41-.76-.45-.21-.79-.51-1.02-.89s-.35-.8-.35-1.25c0-.42.09-.8.29-1.16.19-.35.45-.65.78-.88.25-.18.58-.34,1.01-.46s.88-.19,1.37-.19c.73,0,1.38.11,1.93.32.55.21.96.5,1.23.86s.45.84.54,1.45l-1.55.21c-.07-.48-.27-.86-.61-1.12-.34-.27-.81-.4-1.43-.4-.73,0-1.25.12-1.56.36s-.47.52-.47.84c0,.21.06.39.19.55.13.17.33.31.61.42.16.06.62.19,1.4.4,1.12.3,1.9.54,2.34.73.44.19.79.47,1.04.83s.38.81.38,1.35-.15,1.02-.46,1.49c-.31.47-.75.83-1.33,1.08s-1.24.38-1.97.38c-1.21,0-2.14-.25-2.77-.76-.64-.5-1.04-1.25-1.22-2.24Z"/>
    <path class="cls-5" d="M721.19,438.12l1.56.2c-.17,1.07-.61,1.91-1.31,2.52s-1.56.91-2.58.91c-1.28,0-2.3-.42-3.08-1.25s-1.16-2.03-1.16-3.59c0-1.01.17-1.89.5-2.65s.84-1.32,1.52-1.7,1.43-.57,2.23-.57c1.01,0,1.84.26,2.49.77s1.06,1.24,1.24,2.18l-1.54.24c-.15-.63-.41-1.1-.78-1.42s-.82-.47-1.35-.47c-.8,0-1.44.29-1.94.86s-.75,1.48-.75,2.71.24,2.17.72,2.73,1.11.85,1.88.85c.62,0,1.14-.19,1.56-.57s.68-.97.79-1.76Z"/>
    <path class="cls-5" d="M723.51,436.87c0-1.73.48-3.01,1.44-3.84.8-.69,1.78-1.04,2.94-1.04,1.28,0,2.33.42,3.15,1.26s1.22,2,1.22,3.48c0,1.2-.18,2.15-.54,2.83-.36.69-.89,1.22-1.57,1.6s-1.44.57-2.25.57c-1.31,0-2.36-.42-3.17-1.26-.81-.84-1.21-2.04-1.21-3.62ZM725.13,436.87c0,1.2.26,2.09.78,2.69s1.18.89,1.97.89,1.44-.3,1.96-.9.78-1.51.78-2.73c0-1.15-.26-2.03-.79-2.62s-1.18-.89-1.96-.89-1.45.3-1.97.89-.78,1.49-.78,2.68Z"/>
    <path class="cls-5" d="M734.11,441.54v-9.33h1.42v1.31c.29-.46.68-.82,1.17-1.1s1.04-.42,1.66-.42c.69,0,1.26.14,1.7.43.44.29.75.69.94,1.2.74-1.09,1.7-1.63,2.88-1.63.93,0,1.64.26,2.14.77s.75,1.3.75,2.37v6.41h-1.57v-5.88c0-.63-.05-1.09-.15-1.37-.1-.28-.29-.5-.56-.67s-.59-.25-.95-.25c-.66,0-1.2.22-1.63.65s-.65,1.14-.65,2.1v5.42h-1.58v-6.06c0-.7-.13-1.23-.39-1.58s-.68-.53-1.27-.53c-.45,0-.86.12-1.23.35-.38.23-.65.58-.82,1.03s-.25,1.1-.25,1.95v4.84h-1.58Z"/>
    <path class="cls-5" d="M749.1,445.12v-12.91h1.44v1.21c.34-.47.72-.83,1.15-1.07s.95-.36,1.56-.36c.8,0,1.5.21,2.11.62s1.07.99,1.38,1.74.47,1.57.47,2.46c0,.96-.17,1.81-.51,2.58-.34.76-.84,1.35-1.49,1.76s-1.34.61-2.06.61c-.53,0-1-.11-1.42-.33s-.76-.5-1.03-.84v4.54h-1.58ZM750.53,436.93c0,1.2.24,2.09.73,2.66s1.08.86,1.77.86,1.3-.3,1.81-.89c.5-.59.75-1.52.75-2.76s-.25-2.08-.73-2.67c-.49-.59-1.07-.89-1.75-.89s-1.27.31-1.79.94c-.52.63-.78,1.55-.78,2.75Z"/>
    <path class="cls-5" d="M759.08,441.54v-12.88h1.58v12.88h-1.58Z"/>
    <path class="cls-5" d="M769.5,438.53l1.63.2c-.26.96-.74,1.7-1.43,2.22s-1.59.79-2.67.79c-1.37,0-2.45-.42-3.25-1.26-.8-.84-1.2-2.02-1.2-3.54s.4-2.79,1.21-3.66,1.86-1.3,3.15-1.3,2.27.42,3.06,1.27,1.19,2.04,1.19,3.59c0,.09,0,.23,0,.42h-6.96c.06,1.03.35,1.81.87,2.36s1.17.82,1.95.82c.58,0,1.08-.15,1.49-.46s.74-.79.98-1.46ZM764.31,435.98h5.21c-.07-.79-.27-1.37-.6-1.77-.5-.61-1.16-.91-1.96-.91-.73,0-1.34.24-1.83.73s-.77,1.14-.82,1.95Z"/>
    <path class="cls-5" d="M776.58,440.12l.23,1.4c-.45.09-.84.14-1.2.14-.57,0-1.02-.09-1.34-.27s-.54-.42-.67-.72-.19-.92-.19-1.87v-5.37h-1.16v-1.23h1.16v-2.31l1.57-.95v3.26h1.59v1.23h-1.59v5.46c0,.45.03.74.08.87s.15.23.27.31c.12.08.31.11.54.11.18,0,.41-.02.69-.06Z"/>
    <path class="cls-5" d="M784.51,438.53l1.63.2c-.26.96-.74,1.7-1.43,2.22s-1.59.79-2.67.79c-1.37,0-2.45-.42-3.25-1.26-.8-.84-1.2-2.02-1.2-3.54s.4-2.79,1.21-3.66,1.86-1.3,3.15-1.3,2.27.42,3.06,1.27,1.19,2.04,1.19,3.59c0,.09,0,.23,0,.42h-6.96c.06,1.03.35,1.81.87,2.36s1.17.82,1.95.82c.58,0,1.08-.15,1.49-.46s.74-.79.98-1.46ZM779.32,435.98h5.21c-.07-.79-.27-1.37-.6-1.77-.5-.61-1.16-.91-1.96-.91-.73,0-1.34.24-1.83.73s-.77,1.14-.82,1.95Z"/>
    <path class="cls-5" d="M799.23,440.39c-.59.5-1.15.85-1.69,1.05-.54.21-1.12.31-1.75.31-1.03,0-1.81-.25-2.36-.75s-.83-1.14-.83-1.92c0-.46.1-.87.31-1.25.21-.38.48-.68.82-.91s.72-.4,1.14-.52c.31-.08.78-.16,1.41-.24,1.28-.15,2.22-.33,2.82-.54,0-.22,0-.35,0-.41,0-.64-.15-1.1-.45-1.36-.4-.36-1-.54-1.8-.54-.74,0-1.29.13-1.65.39s-.62.72-.79,1.38l-1.55-.21c.14-.66.37-1.2.69-1.6s.79-.72,1.4-.94,1.32-.33,2.12-.33,1.44.09,1.94.28.86.42,1.1.71.4.64.49,1.08c.05.27.08.76.08,1.46v2.11c0,1.47.03,2.4.1,2.79s.2.76.4,1.12h-1.65c-.16-.33-.27-.71-.32-1.15ZM799.09,436.85c-.57.23-1.44.43-2.58.6-.65.09-1.11.2-1.38.32s-.48.29-.62.51-.22.48-.22.75c0,.42.16.77.48,1.05s.79.42,1.4.42,1.15-.13,1.63-.4.82-.63,1.05-1.09c.17-.36.25-.88.25-1.58v-.58Z"/>
    <path class="cls-5" d="M803.15,441.54v-9.33h1.42v1.33c.69-1.03,1.68-1.54,2.97-1.54.56,0,1.08.1,1.55.3.47.2.82.47,1.06.8s.4.72.49,1.17c.06.29.09.81.09,1.54v5.74h-1.58v-5.68c0-.64-.06-1.13-.18-1.45s-.34-.57-.66-.76-.68-.29-1.1-.29c-.67,0-1.26.21-1.75.64s-.73,1.24-.73,2.43v5.1h-1.58Z"/>
    <path class="cls-5" d="M819.21,441.54v-1.18c-.59.93-1.46,1.39-2.61,1.39-.74,0-1.43-.21-2.05-.62-.62-.41-1.11-.98-1.45-1.72-.34-.74-.51-1.58-.51-2.54s.16-1.78.47-2.54.78-1.34,1.4-1.74,1.32-.61,2.08-.61c.56,0,1.06.12,1.5.36s.8.55,1.07.93v-4.62h1.57v12.88h-1.47ZM814.21,436.88c0,1.2.25,2.09.76,2.68s1.1.89,1.78.89,1.28-.28,1.76-.85c.48-.57.73-1.43.73-2.59,0-1.28-.25-2.21-.74-2.81s-1.1-.9-1.82-.9-1.29.29-1.76.86c-.47.57-.71,1.48-.71,2.72Z"/>
    <path class="cls-5" d="M834.26,438.12l1.56.2c-.17,1.07-.61,1.91-1.31,2.52s-1.56.91-2.58.91c-1.28,0-2.3-.42-3.08-1.25s-1.16-2.03-1.16-3.59c0-1.01.17-1.89.5-2.65s.84-1.32,1.52-1.7,1.43-.57,2.23-.57c1.01,0,1.84.26,2.49.77s1.06,1.24,1.24,2.18l-1.54.24c-.15-.63-.41-1.1-.78-1.42s-.82-.47-1.35-.47c-.8,0-1.44.29-1.94.86s-.75,1.48-.75,2.71.24,2.17.72,2.73,1.11.85,1.88.85c.62,0,1.14-.19,1.56-.57s.68-.97.79-1.76Z"/>
    <path class="cls-5" d="M836.58,436.87c0-1.73.48-3.01,1.44-3.84.8-.69,1.78-1.04,2.94-1.04,1.28,0,2.33.42,3.15,1.26s1.22,2,1.22,3.48c0,1.2-.18,2.15-.54,2.83-.36.69-.89,1.22-1.57,1.6s-1.44.57-2.25.57c-1.31,0-2.36-.42-3.17-1.26-.81-.84-1.21-2.04-1.21-3.62ZM838.21,436.87c0,1.2.26,2.09.78,2.69s1.18.89,1.97.89,1.44-.3,1.96-.9.78-1.51.78-2.73c0-1.15-.26-2.03-.79-2.62s-1.18-.89-1.96-.89-1.45.3-1.97.89-.78,1.49-.78,2.68Z"/>
    <path class="cls-5" d="M846.55,438.75l1.56-.25c.09.63.33,1.11.73,1.44s.96.5,1.68.5,1.27-.15,1.62-.44.53-.64.53-1.04c0-.36-.16-.64-.47-.84-.22-.14-.76-.32-1.62-.54-1.16-.29-1.96-.55-2.41-.76-.45-.21-.79-.51-1.02-.89s-.35-.8-.35-1.25c0-.42.09-.8.29-1.16.19-.35.45-.65.78-.88.25-.18.58-.34,1.01-.46s.88-.19,1.37-.19c.73,0,1.38.11,1.93.32.55.21.96.5,1.23.86s.45.84.54,1.45l-1.55.21c-.07-.48-.27-.86-.61-1.12-.34-.27-.81-.4-1.43-.4-.73,0-1.25.12-1.56.36s-.47.52-.47.84c0,.21.06.39.19.55.13.17.33.31.61.42.16.06.62.19,1.4.4,1.12.3,1.9.54,2.34.73.44.19.79.47,1.04.83s.38.81.38,1.35-.15,1.02-.46,1.49c-.31.47-.75.83-1.33,1.08s-1.24.38-1.97.38c-1.21,0-2.14-.25-2.77-.76-.64-.5-1.04-1.25-1.22-2.24Z"/>
    <path class="cls-5" d="M859.63,440.12l.23,1.4c-.45.09-.84.14-1.2.14-.57,0-1.02-.09-1.34-.27s-.54-.42-.67-.72-.19-.92-.19-1.87v-5.37h-1.16v-1.23h1.16v-2.31l1.57-.95v3.26h1.59v1.23h-1.59v5.46c0,.45.03.74.08.87s.15.23.27.31c.12.08.31.11.54.11.18,0,.41-.02.69-.06Z"/>
    <path class="cls-5" d="M860.56,437.67v-1.59h4.86v1.59h-4.86Z"/>
    <path class="cls-5" d="M866.58,436.87c0-1.73.48-3.01,1.44-3.84.8-.69,1.78-1.04,2.94-1.04,1.28,0,2.33.42,3.15,1.26s1.22,2,1.22,3.48c0,1.2-.18,2.15-.54,2.83-.36.69-.89,1.22-1.57,1.6s-1.44.57-2.25.57c-1.31,0-2.36-.42-3.17-1.26-.81-.84-1.21-2.04-1.21-3.62ZM868.21,436.87c0,1.2.26,2.09.78,2.69s1.18.89,1.97.89,1.44-.3,1.96-.9.78-1.51.78-2.73c0-1.15-.26-2.03-.79-2.62s-1.18-.89-1.96-.89-1.45.3-1.97.89-.78,1.49-.78,2.68Z"/>
    <path class="cls-5" d="M877.18,445.12v-12.91h1.44v1.21c.34-.47.72-.83,1.15-1.07s.95-.36,1.56-.36c.8,0,1.5.21,2.11.62s1.07.99,1.38,1.74.47,1.57.47,2.46c0,.96-.17,1.81-.51,2.58-.34.76-.84,1.35-1.49,1.76s-1.34.61-2.06.61c-.53,0-1-.11-1.42-.33s-.76-.5-1.03-.84v4.54h-1.58ZM878.62,436.93c0,1.2.24,2.09.73,2.66s1.08.86,1.77.86,1.3-.3,1.81-.89c.5-.59.75-1.52.75-2.76s-.25-2.08-.73-2.67c-.49-.59-1.07-.89-1.75-.89s-1.27.31-1.79.94c-.52.63-.78,1.55-.78,2.75Z"/>
    <path class="cls-5" d="M890.65,440.12l.23,1.4c-.45.09-.84.14-1.2.14-.57,0-1.02-.09-1.34-.27s-.54-.42-.67-.72-.19-.92-.19-1.87v-5.37h-1.16v-1.23h1.16v-2.31l1.57-.95v3.26h1.59v1.23h-1.59v5.46c0,.45.03.74.08.87s.15.23.27.31c.12.08.31.11.54.11.18,0,.41-.02.69-.06Z"/>
    <path class="cls-5" d="M892.21,430.47v-1.82h1.58v1.82h-1.58ZM892.21,441.54v-9.33h1.58v9.33h-1.58Z"/>
    <path class="cls-5" d="M896.2,441.54v-9.33h1.42v1.31c.29-.46.68-.82,1.17-1.1s1.04-.42,1.66-.42c.69,0,1.26.14,1.7.43.44.29.75.69.94,1.2.74-1.09,1.7-1.63,2.88-1.63.93,0,1.64.26,2.14.77s.75,1.3.75,2.37v6.41h-1.57v-5.88c0-.63-.05-1.09-.15-1.37-.1-.28-.29-.5-.56-.67s-.59-.25-.95-.25c-.66,0-1.2.22-1.63.65s-.65,1.14-.65,2.1v5.42h-1.58v-6.06c0-.7-.13-1.23-.39-1.58s-.68-.53-1.27-.53c-.45,0-.86.12-1.23.35-.38.23-.65.58-.82,1.03s-.25,1.1-.25,1.95v4.84h-1.58Z"/>
    <path class="cls-5" d="M917.28,440.39c-.59.5-1.15.85-1.69,1.05-.54.21-1.12.31-1.75.31-1.03,0-1.81-.25-2.36-.75s-.83-1.14-.83-1.92c0-.46.1-.87.31-1.25.21-.38.48-.68.82-.91s.72-.4,1.14-.52c.31-.08.78-.16,1.41-.24,1.28-.15,2.22-.33,2.82-.54,0-.22,0-.35,0-.41,0-.64-.15-1.1-.45-1.36-.4-.36-1-.54-1.8-.54-.74,0-1.29.13-1.65.39s-.62.72-.79,1.38l-1.55-.21c.14-.66.37-1.2.69-1.6s.79-.72,1.4-.94,1.32-.33,2.12-.33,1.44.09,1.94.28.86.42,1.1.71.4.64.49,1.08c.05.27.08.76.08,1.46v2.11c0,1.47.03,2.4.1,2.79s.2.76.4,1.12h-1.65c-.16-.33-.27-.71-.32-1.15ZM917.15,436.85c-.57.23-1.44.43-2.58.6-.65.09-1.11.2-1.38.32s-.48.29-.62.51-.22.48-.22.75c0,.42.16.77.48,1.05s.79.42,1.4.42,1.15-.13,1.63-.4.82-.63,1.05-1.09c.17-.36.25-.88.25-1.58v-.58Z"/>
    <path class="cls-5" d="M921.17,441.54v-12.88h1.58v12.88h-1.58Z"/>
    <path class="cls-5" d="M718.48,463.14v-8.1h-1.4v-1.23h1.4v-.99c0-.63.06-1.09.17-1.4.15-.41.42-.74.8-1s.92-.38,1.61-.38c.45,0,.94.05,1.48.16l-.24,1.38c-.33-.06-.64-.09-.93-.09-.48,0-.82.1-1.02.31s-.3.59-.3,1.15v.86h1.82v1.23h-1.82v8.1h-1.57Z"/>
    <path class="cls-5" d="M722.51,458.47c0-1.73.48-3.01,1.44-3.84.8-.69,1.78-1.04,2.94-1.04,1.28,0,2.33.42,3.15,1.26s1.22,2,1.22,3.48c0,1.2-.18,2.15-.54,2.83-.36.69-.89,1.22-1.57,1.6s-1.44.57-2.25.57c-1.31,0-2.36-.42-3.17-1.26-.81-.84-1.21-2.04-1.21-3.62ZM724.14,458.47c0,1.2.26,2.09.78,2.69s1.18.89,1.97.89,1.44-.3,1.96-.9.78-1.51.78-2.73c0-1.15-.26-2.03-.79-2.62s-1.18-.89-1.96-.89-1.45.3-1.97.89-.78,1.49-.78,2.68Z"/>
    <path class="cls-5" d="M733.09,463.14v-9.33h1.42v1.42c.36-.66.7-1.1,1.01-1.31.31-.21.65-.32,1.01-.32.53,0,1.08.17,1.63.51l-.54,1.47c-.39-.23-.77-.34-1.16-.34-.35,0-.66.1-.93.31s-.47.5-.59.87c-.18.56-.26,1.18-.26,1.85v4.89h-1.58Z"/>
    <path class="cls-5" d="M743.82,463.91l1.54.23c.06.47.24.82.54,1.04.39.29.93.44,1.61.44.73,0,1.3-.15,1.7-.44s.67-.7.81-1.23c.08-.32.12-1,.11-2.03-.69.81-1.55,1.22-2.58,1.22-1.28,0-2.28-.46-2.98-1.39s-1.05-2.04-1.05-3.33c0-.89.16-1.71.48-2.47s.79-1.33,1.4-1.74,1.33-.62,2.16-.62c1.1,0,2.01.45,2.72,1.34v-1.12h1.46v8.07c0,1.45-.15,2.48-.44,3.09-.3.61-.77,1.09-1.41,1.44-.64.35-1.43.53-2.37.53-1.11,0-2.01-.25-2.7-.75s-1.02-1.26-.99-2.26ZM745.12,458.31c0,1.22.24,2.12.73,2.68s1.1.84,1.83.84,1.34-.28,1.83-.84.74-1.44.74-2.63-.25-2-.76-2.58c-.51-.58-1.12-.87-1.83-.87s-1.3.29-1.79.86-.74,1.42-.74,2.54Z"/>
    <path class="cls-5" d="M760.51,460.13l1.63.2c-.26.96-.74,1.7-1.43,2.22s-1.59.79-2.67.79c-1.37,0-2.45-.42-3.25-1.26-.8-.84-1.2-2.02-1.2-3.54s.4-2.79,1.21-3.66,1.86-1.3,3.15-1.3,2.27.42,3.06,1.27,1.19,2.04,1.19,3.59c0,.09,0,.23,0,.42h-6.96c.06,1.03.35,1.81.87,2.36s1.17.82,1.95.82c.58,0,1.08-.15,1.49-.46s.74-.79.98-1.46ZM755.31,457.58h5.21c-.07-.79-.27-1.37-.6-1.77-.5-.61-1.16-.91-1.96-.91-.73,0-1.34.24-1.83.73s-.77,1.14-.82,1.95Z"/>
    <path class="cls-5" d="M764.13,463.14v-9.33h1.42v1.33c.69-1.03,1.68-1.54,2.97-1.54.56,0,1.08.1,1.55.3.47.2.82.47,1.06.8s.4.72.49,1.17c.06.29.09.81.09,1.54v5.74h-1.58v-5.68c0-.64-.06-1.13-.18-1.45s-.34-.57-.66-.76-.68-.29-1.1-.29c-.67,0-1.26.21-1.75.64s-.73,1.24-.73,2.43v5.1h-1.58Z"/>
    <path class="cls-5" d="M780.53,460.13l1.63.2c-.26.96-.74,1.7-1.43,2.22s-1.59.79-2.67.79c-1.37,0-2.45-.42-3.25-1.26-.8-.84-1.2-2.02-1.2-3.54s.4-2.79,1.21-3.66,1.86-1.3,3.15-1.3,2.27.42,3.06,1.27,1.19,2.04,1.19,3.59c0,.09,0,.23,0,.42h-6.96c.06,1.03.35,1.81.87,2.36s1.17.82,1.95.82c.58,0,1.08-.15,1.49-.46s.74-.79.98-1.46ZM775.33,457.58h5.21c-.07-.79-.27-1.37-.6-1.77-.5-.61-1.16-.91-1.96-.91-.73,0-1.34.24-1.83.73s-.77,1.14-.82,1.95Z"/>
    <path class="cls-5" d="M784.13,463.14v-9.33h1.42v1.42c.36-.66.7-1.1,1.01-1.31.31-.21.65-.32,1.01-.32.53,0,1.08.17,1.63.51l-.54,1.47c-.39-.23-.77-.34-1.16-.34-.35,0-.66.1-.93.31s-.47.5-.59.87c-.18.56-.26,1.18-.26,1.85v4.89h-1.58Z"/>
    <path class="cls-5" d="M796.23,461.99c-.59.5-1.15.85-1.69,1.05-.54.21-1.12.31-1.75.31-1.03,0-1.81-.25-2.36-.75s-.83-1.14-.83-1.92c0-.46.1-.87.31-1.25.21-.38.48-.68.82-.91s.72-.4,1.14-.52c.31-.08.78-.16,1.41-.24,1.28-.15,2.22-.33,2.82-.54,0-.22,0-.35,0-.41,0-.64-.15-1.1-.45-1.36-.4-.36-1-.54-1.8-.54-.74,0-1.29.13-1.65.39s-.62.72-.79,1.38l-1.55-.21c.14-.66.37-1.2.69-1.6s.79-.72,1.4-.94,1.32-.33,2.12-.33,1.44.09,1.94.28.86.42,1.1.71.4.64.49,1.08c.05.27.08.76.08,1.46v2.11c0,1.47.03,2.4.1,2.79s.2.76.4,1.12h-1.65c-.16-.33-.27-.71-.32-1.15ZM796.1,458.46c-.57.23-1.44.43-2.58.6-.65.09-1.11.2-1.38.32s-.48.29-.62.51-.22.48-.22.75c0,.42.16.77.48,1.05s.79.42,1.4.42,1.15-.13,1.63-.4.82-.63,1.05-1.09c.17-.36.25-.88.25-1.58v-.58Z"/>
    <path class="cls-5" d="M800.12,463.14v-12.88h1.58v12.88h-1.58Z"/>
    <path class="cls-5" d="M815.24,461.99c-.59.5-1.15.85-1.69,1.05-.54.21-1.12.31-1.75.31-1.03,0-1.81-.25-2.36-.75s-.83-1.14-.83-1.92c0-.46.1-.87.31-1.25.21-.38.48-.68.82-.91s.72-.4,1.14-.52c.31-.08.78-.16,1.41-.24,1.28-.15,2.22-.33,2.82-.54,0-.22,0-.35,0-.41,0-.64-.15-1.1-.45-1.36-.4-.36-1-.54-1.8-.54-.74,0-1.29.13-1.65.39s-.62.72-.79,1.38l-1.55-.21c.14-.66.37-1.2.69-1.6s.79-.72,1.4-.94,1.32-.33,2.12-.33,1.44.09,1.94.28.86.42,1.1.71.4.64.49,1.08c.05.27.08.76.08,1.46v2.11c0,1.47.03,2.4.1,2.79s.2.76.4,1.12h-1.65c-.16-.33-.27-.71-.32-1.15ZM815.11,458.46c-.57.23-1.44.43-2.58.6-.65.09-1.11.2-1.38.32s-.48.29-.62.51-.22.48-.22.75c0,.42.16.77.48,1.05s.79.42,1.4.42,1.15-.13,1.63-.4.82-.63,1.05-1.09c.17-.36.25-.88.25-1.58v-.58Z"/>
    <path class="cls-5" d="M825.25,459.72l1.56.2c-.17,1.07-.61,1.91-1.31,2.52s-1.56.91-2.58.91c-1.28,0-2.3-.42-3.08-1.25s-1.16-2.03-1.16-3.59c0-1.01.17-1.89.5-2.65s.84-1.32,1.52-1.7,1.43-.57,2.23-.57c1.01,0,1.84.26,2.49.77s1.06,1.24,1.24,2.18l-1.54.24c-.15-.63-.41-1.1-.78-1.42s-.82-.47-1.35-.47c-.8,0-1.44.29-1.94.86s-.75,1.48-.75,2.71.24,2.17.72,2.73,1.11.85,1.88.85c.62,0,1.14-.19,1.56-.57s.68-.97.79-1.76Z"/>
    <path class="cls-5" d="M831.62,461.72l.23,1.4c-.45.09-.84.14-1.2.14-.57,0-1.02-.09-1.34-.27s-.54-.42-.67-.72-.19-.92-.19-1.87v-5.37h-1.16v-1.23h1.16v-2.31l1.57-.95v3.26h1.59v1.23h-1.59v5.46c0,.45.03.74.08.87s.15.23.27.31c.12.08.31.11.54.11.18,0,.41-.02.69-.06Z"/>
    <path class="cls-5" d="M833.17,452.07v-1.82h1.58v1.82h-1.58ZM833.17,463.14v-9.33h1.58v9.33h-1.58Z"/>
    <path class="cls-5" d="M836.58,458.47c0-1.73.48-3.01,1.44-3.84.8-.69,1.78-1.04,2.94-1.04,1.28,0,2.33.42,3.15,1.26s1.22,2,1.22,3.48c0,1.2-.18,2.15-.54,2.83-.36.69-.89,1.22-1.57,1.6s-1.44.57-2.25.57c-1.31,0-2.36-.42-3.17-1.26-.81-.84-1.21-2.04-1.21-3.62ZM838.2,458.47c0,1.2.26,2.09.78,2.69s1.18.89,1.97.89,1.44-.3,1.96-.9.78-1.51.78-2.73c0-1.15-.26-2.03-.79-2.62s-1.18-.89-1.96-.89-1.45.3-1.97.89-.78,1.49-.78,2.68Z"/>
    <path class="cls-5" d="M847.17,463.14v-9.33h1.42v1.33c.69-1.03,1.68-1.54,2.97-1.54.56,0,1.08.1,1.55.3.47.2.82.47,1.06.8s.4.72.49,1.17c.06.29.09.81.09,1.54v5.74h-1.58v-5.68c0-.64-.06-1.13-.18-1.45s-.34-.57-.66-.76-.68-.29-1.1-.29c-.67,0-1.26.21-1.75.64s-.73,1.24-.73,2.43v5.1h-1.58Z"/>
    <path class="cls-5" d="M868.28,459.72l1.56.2c-.17,1.07-.61,1.91-1.31,2.52s-1.56.91-2.58.91c-1.28,0-2.3-.42-3.08-1.25s-1.16-2.03-1.16-3.59c0-1.01.17-1.89.5-2.65s.84-1.32,1.52-1.7,1.43-.57,2.23-.57c1.01,0,1.84.26,2.49.77s1.06,1.24,1.24,2.18l-1.54.24c-.15-.63-.41-1.1-.78-1.42s-.82-.47-1.35-.47c-.8,0-1.44.29-1.94.86s-.75,1.48-.75,2.71.24,2.17.72,2.73,1.11.85,1.88.85c.62,0,1.14-.19,1.56-.57s.68-.97.79-1.76Z"/>
    <path class="cls-5" d="M870.6,458.47c0-1.73.48-3.01,1.44-3.84.8-.69,1.78-1.04,2.94-1.04,1.28,0,2.33.42,3.15,1.26s1.22,2,1.22,3.48c0,1.2-.18,2.15-.54,2.83-.36.69-.89,1.22-1.57,1.6s-1.44.57-2.25.57c-1.31,0-2.36-.42-3.17-1.26-.81-.84-1.21-2.04-1.21-3.62ZM872.22,458.47c0,1.2.26,2.09.78,2.69s1.18.89,1.97.89,1.44-.3,1.96-.9.78-1.51.78-2.73c0-1.15-.26-2.03-.79-2.62s-1.18-.89-1.96-.89-1.45.3-1.97.89-.78,1.49-.78,2.68Z"/>
    <path class="cls-5" d="M880.56,460.35l1.56-.25c.09.63.33,1.11.73,1.44s.96.5,1.68.5,1.27-.15,1.62-.44.53-.64.53-1.04c0-.36-.16-.64-.47-.84-.22-.14-.76-.32-1.62-.54-1.16-.29-1.96-.55-2.41-.76-.45-.21-.79-.51-1.02-.89s-.35-.8-.35-1.25c0-.42.09-.8.29-1.16.19-.35.45-.65.78-.88.25-.18.58-.34,1.01-.46s.88-.19,1.37-.19c.73,0,1.38.11,1.93.32.55.21.96.5,1.23.86s.45.84.54,1.45l-1.55.21c-.07-.48-.27-.86-.61-1.12-.34-.27-.81-.4-1.43-.4-.73,0-1.25.12-1.56.36s-.47.52-.47.84c0,.21.06.39.19.55.13.17.33.31.61.42.16.06.62.19,1.4.4,1.12.3,1.9.54,2.34.73.44.19.79.47,1.04.83s.38.81.38,1.35-.15,1.02-.46,1.49c-.31.47-.75.83-1.33,1.08s-1.24.38-1.97.38c-1.21,0-2.14-.25-2.77-.76-.64-.5-1.04-1.25-1.22-2.24Z"/>
    <path class="cls-5" d="M893.65,461.72l.23,1.4c-.45.09-.84.14-1.2.14-.57,0-1.02-.09-1.34-.27s-.54-.42-.67-.72-.19-.92-.19-1.87v-5.37h-1.16v-1.23h1.16v-2.31l1.57-.95v3.26h1.59v1.23h-1.59v5.46c0,.45.03.74.08.87s.15.23.27.31c.12.08.31.11.54.11.18,0,.41-.02.69-.06Z"/>
    <path class="cls-5" d="M894.57,460.35l1.56-.25c.09.63.33,1.11.73,1.44s.96.5,1.68.5,1.27-.15,1.62-.44.53-.64.53-1.04c0-.36-.16-.64-.47-.84-.22-.14-.76-.32-1.62-.54-1.16-.29-1.96-.55-2.41-.76-.45-.21-.79-.51-1.02-.89s-.35-.8-.35-1.25c0-.42.09-.8.29-1.16.19-.35.45-.65.78-.88.25-.18.58-.34,1.01-.46s.88-.19,1.37-.19c.73,0,1.38.11,1.93.32.55.21.96.5,1.23.86s.45.84.54,1.45l-1.55.21c-.07-.48-.27-.86-.61-1.12-.34-.27-.81-.4-1.43-.4-.73,0-1.25.12-1.56.36s-.47.52-.47.84c0,.21.06.39.19.55.13.17.33.31.61.42.16.06.62.19,1.4.4,1.12.3,1.9.54,2.34.73.44.19.79.47,1.04.83s.38.81.38,1.35-.15,1.02-.46,1.49c-.31.47-.75.83-1.33,1.08s-1.24.38-1.97.38c-1.21,0-2.14-.25-2.77-.76-.64-.5-1.04-1.25-1.22-2.24Z"/>
  </g>
  <g>
    <path class="cls-5" d="M40.99,430.47v-1.82h1.58v1.82h-1.58ZM40.99,441.54v-9.33h1.58v9.33h-1.58Z"/>
    <path class="cls-5" d="M44.35,438.75l1.56-.25c.09.63.33,1.11.73,1.44s.96.5,1.68.5,1.27-.15,1.62-.44.53-.64.53-1.04c0-.36-.16-.64-.47-.84-.22-.14-.76-.32-1.62-.54-1.16-.29-1.96-.55-2.41-.76-.45-.21-.79-.51-1.02-.89s-.35-.8-.35-1.25c0-.42.09-.8.29-1.16.19-.35.45-.65.78-.88.25-.18.58-.34,1.01-.46s.88-.19,1.37-.19c.73,0,1.38.11,1.93.32.55.21.96.5,1.23.86s.45.84.54,1.45l-1.55.21c-.07-.48-.27-.86-.61-1.12-.34-.27-.81-.4-1.43-.4-.73,0-1.25.12-1.56.36s-.47.52-.47.84c0,.21.06.39.19.55.13.17.33.31.61.42.16.06.62.19,1.4.4,1.12.3,1.9.54,2.34.73.44.19.79.47,1.04.83s.38.81.38,1.35-.15,1.02-.46,1.49c-.31.47-.75.83-1.33,1.08s-1.24.38-1.97.38c-1.21,0-2.14-.25-2.77-.76-.64-.5-1.04-1.25-1.22-2.24Z"/>
    <path class="cls-5" d="M65.07,438.12l1.56.2c-.17,1.07-.61,1.91-1.31,2.52s-1.56.91-2.58.91c-1.28,0-2.3-.42-3.08-1.25s-1.16-2.03-1.16-3.59c0-1.01.17-1.89.5-2.65s.84-1.32,1.52-1.7,1.43-.57,2.23-.57c1.01,0,1.84.26,2.49.77s1.06,1.24,1.24,2.18l-1.54.24c-.15-.63-.41-1.1-.78-1.42s-.82-.47-1.35-.47c-.8,0-1.44.29-1.94.86s-.75,1.48-.75,2.71.24,2.17.72,2.73,1.11.85,1.88.85c.62,0,1.14-.19,1.56-.57s.68-.97.79-1.76Z"/>
    <path class="cls-5" d="M67.39,436.87c0-1.73.48-3.01,1.44-3.84.8-.69,1.78-1.04,2.94-1.04,1.28,0,2.33.42,3.15,1.26s1.22,2,1.22,3.48c0,1.2-.18,2.15-.54,2.83-.36.69-.89,1.22-1.57,1.6s-1.44.57-2.25.57c-1.31,0-2.36-.42-3.17-1.26-.81-.84-1.21-2.04-1.21-3.62ZM69.02,436.87c0,1.2.26,2.09.78,2.69s1.18.89,1.97.89,1.44-.3,1.96-.9.78-1.51.78-2.73c0-1.15-.26-2.03-.79-2.62s-1.18-.89-1.96-.89-1.45.3-1.97.89-.78,1.49-.78,2.68Z"/>
    <path class="cls-5" d="M77.36,438.75l1.56-.25c.09.63.33,1.11.73,1.44s.96.5,1.68.5,1.27-.15,1.62-.44.53-.64.53-1.04c0-.36-.16-.64-.47-.84-.22-.14-.76-.32-1.62-.54-1.16-.29-1.96-.55-2.41-.76-.45-.21-.79-.51-1.02-.89s-.35-.8-.35-1.25c0-.42.09-.8.29-1.16.19-.35.45-.65.78-.88.25-.18.58-.34,1.01-.46s.88-.19,1.37-.19c.73,0,1.38.11,1.93.32.55.21.96.5,1.23.86s.45.84.54,1.45l-1.55.21c-.07-.48-.27-.86-.61-1.12-.34-.27-.81-.4-1.43-.4-.73,0-1.25.12-1.56.36s-.47.52-.47.84c0,.21.06.39.19.55.13.17.33.31.61.42.16.06.62.19,1.4.4,1.12.3,1.9.54,2.34.73.44.19.79.47,1.04.83s.38.81.38,1.35-.15,1.02-.46,1.49c-.31.47-.75.83-1.33,1.08s-1.24.38-1.97.38c-1.21,0-2.14-.25-2.77-.76-.64-.5-1.04-1.25-1.22-2.24Z"/>
    <path class="cls-5" d="M90.45,440.12l.23,1.4c-.45.09-.84.14-1.2.14-.57,0-1.02-.09-1.34-.27s-.54-.42-.67-.72-.19-.92-.19-1.87v-5.37h-1.16v-1.23h1.16v-2.31l1.57-.95v3.26h1.59v1.23h-1.59v5.46c0,.45.03.74.08.87s.15.23.27.31c.12.08.31.11.54.11.18,0,.41-.02.69-.06Z"/>
    <path class="cls-5" d="M91.38,437.67v-1.59h4.86v1.59h-4.86Z"/>
    <path class="cls-5" d="M97.4,436.87c0-1.73.48-3.01,1.44-3.84.8-.69,1.78-1.04,2.94-1.04,1.28,0,2.33.42,3.15,1.26s1.22,2,1.22,3.48c0,1.2-.18,2.15-.54,2.83-.36.69-.89,1.22-1.57,1.6s-1.44.57-2.25.57c-1.31,0-2.36-.42-3.17-1.26-.81-.84-1.21-2.04-1.21-3.62ZM99.03,436.87c0,1.2.26,2.09.78,2.69s1.18.89,1.97.89,1.44-.3,1.96-.9.78-1.51.78-2.73c0-1.15-.26-2.03-.79-2.62s-1.18-.89-1.96-.89-1.45.3-1.97.89-.78,1.49-.78,2.68Z"/>
    <path class="cls-5" d="M108,445.12v-12.91h1.44v1.21c.34-.47.72-.83,1.15-1.07s.95-.36,1.56-.36c.8,0,1.5.21,2.11.62s1.07.99,1.38,1.74.47,1.57.47,2.46c0,.96-.17,1.81-.51,2.58-.34.76-.84,1.35-1.49,1.76s-1.34.61-2.06.61c-.53,0-1-.11-1.42-.33s-.76-.5-1.03-.84v4.54h-1.58ZM109.43,436.93c0,1.2.24,2.09.73,2.66s1.08.86,1.77.86,1.3-.3,1.81-.89c.5-.59.75-1.52.75-2.76s-.25-2.08-.73-2.67c-.49-.59-1.07-.89-1.75-.89s-1.27.31-1.79.94c-.52.63-.78,1.55-.78,2.75Z"/>
    <path class="cls-5" d="M121.46,440.12l.23,1.4c-.45.09-.84.14-1.2.14-.57,0-1.02-.09-1.34-.27s-.54-.42-.67-.72-.19-.92-.19-1.87v-5.37h-1.16v-1.23h1.16v-2.31l1.57-.95v3.26h1.59v1.23h-1.59v5.46c0,.45.03.74.08.87s.15.23.27.31c.12.08.31.11.54.11.18,0,.41-.02.69-.06Z"/>
    <path class="cls-5" d="M123.02,430.47v-1.82h1.58v1.82h-1.58ZM123.02,441.54v-9.33h1.58v9.33h-1.58Z"/>
    <path class="cls-5" d="M127.01,441.54v-9.33h1.42v1.31c.29-.46.68-.82,1.17-1.1s1.04-.42,1.66-.42c.69,0,1.26.14,1.7.43.44.29.75.69.94,1.2.74-1.09,1.7-1.63,2.88-1.63.93,0,1.64.26,2.14.77s.75,1.3.75,2.37v6.41h-1.57v-5.88c0-.63-.05-1.09-.15-1.37-.1-.28-.29-.5-.56-.67s-.59-.25-.95-.25c-.66,0-1.2.22-1.63.65s-.65,1.14-.65,2.1v5.42h-1.58v-6.06c0-.7-.13-1.23-.39-1.58s-.68-.53-1.27-.53c-.45,0-.86.12-1.23.35-.38.23-.65.58-.82,1.03s-.25,1.1-.25,1.95v4.84h-1.58Z"/>
    <path class="cls-5" d="M148.1,440.39c-.59.5-1.15.85-1.69,1.05-.54.21-1.12.31-1.75.31-1.03,0-1.81-.25-2.36-.75s-.83-1.14-.83-1.92c0-.46.1-.87.31-1.25.21-.38.48-.68.82-.91s.72-.4,1.14-.52c.31-.08.78-.16,1.41-.24,1.28-.15,2.22-.33,2.82-.54,0-.22,0-.35,0-.41,0-.64-.15-1.1-.45-1.36-.4-.36-1-.54-1.8-.54-.74,0-1.29.13-1.65.39s-.62.72-.79,1.38l-1.55-.21c.14-.66.37-1.2.69-1.6s.79-.72,1.4-.94,1.32-.33,2.12-.33,1.44.09,1.94.28.86.42,1.1.71.4.64.49,1.08c.05.27.08.76.08,1.46v2.11c0,1.47.03,2.4.1,2.79s.2.76.4,1.12h-1.65c-.16-.33-.27-.71-.32-1.15ZM147.96,436.85c-.57.23-1.44.43-2.58.6-.65.09-1.11.2-1.38.32s-.48.29-.62.51-.22.48-.22.75c0,.42.16.77.48,1.05s.79.42,1.4.42,1.15-.13,1.63-.4.82-.63,1.05-1.09c.17-.36.25-.88.25-1.58v-.58Z"/>
    <path class="cls-5" d="M151.98,441.54v-12.88h1.58v12.88h-1.58Z"/>
    <path class="cls-5" d="M161.39,441.54v-8.1h-1.4v-1.23h1.4v-.99c0-.63.06-1.09.17-1.4.15-.41.42-.74.8-1s.92-.38,1.61-.38c.45,0,.94.05,1.48.16l-.24,1.38c-.33-.06-.64-.09-.93-.09-.48,0-.82.1-1.02.31s-.3.59-.3,1.15v.86h1.82v1.23h-1.82v8.1h-1.57Z"/>
    <path class="cls-5" d="M165.43,436.87c0-1.73.48-3.01,1.44-3.84.8-.69,1.78-1.04,2.94-1.04,1.28,0,2.33.42,3.15,1.26s1.22,2,1.22,3.48c0,1.2-.18,2.15-.54,2.83-.36.69-.89,1.22-1.57,1.6s-1.44.57-2.25.57c-1.31,0-2.36-.42-3.17-1.26-.81-.84-1.21-2.04-1.21-3.62ZM167.05,436.87c0,1.2.26,2.09.78,2.69s1.18.89,1.97.89,1.44-.3,1.96-.9.78-1.51.78-2.73c0-1.15-.26-2.03-.79-2.62s-1.18-.89-1.96-.89-1.45.3-1.97.89-.78,1.49-.78,2.68Z"/>
    <path class="cls-5" d="M176.01,441.54v-9.33h1.42v1.42c.36-.66.7-1.1,1.01-1.31.31-.21.65-.32,1.01-.32.53,0,1.08.17,1.63.51l-.54,1.47c-.39-.23-.77-.34-1.16-.34-.35,0-.66.1-.93.31s-.47.5-.59.87c-.18.56-.26,1.18-.26,1.85v4.89h-1.58Z"/>
    <path class="cls-5" d="M187.02,445.12v-12.91h1.44v1.21c.34-.47.72-.83,1.15-1.07s.95-.36,1.56-.36c.8,0,1.5.21,2.11.62s1.07.99,1.38,1.74.47,1.57.47,2.46c0,.96-.17,1.81-.51,2.58-.34.76-.84,1.35-1.49,1.76s-1.34.61-2.06.61c-.53,0-1-.11-1.42-.33s-.76-.5-1.03-.84v4.54h-1.58ZM188.46,436.93c0,1.2.24,2.09.73,2.66s1.08.86,1.77.86,1.3-.3,1.81-.89c.5-.59.75-1.52.75-2.76s-.25-2.08-.73-2.67c-.49-.59-1.07-.89-1.75-.89s-1.27.31-1.79.94c-.52.63-.78,1.55-.78,2.75Z"/>
    <path class="cls-5" d="M197.02,441.54v-9.33h1.42v1.42c.36-.66.7-1.1,1.01-1.31.31-.21.65-.32,1.01-.32.53,0,1.08.17,1.63.51l-.54,1.47c-.39-.23-.77-.34-1.16-.34-.35,0-.66.1-.93.31s-.47.5-.59.87c-.18.56-.26,1.18-.26,1.85v4.89h-1.58Z"/>
    <path class="cls-5" d="M202.44,436.87c0-1.73.48-3.01,1.44-3.84.8-.69,1.78-1.04,2.94-1.04,1.28,0,2.33.42,3.15,1.26s1.22,2,1.22,3.48c0,1.2-.18,2.15-.54,2.83-.36.69-.89,1.22-1.57,1.6s-1.44.57-2.25.57c-1.31,0-2.36-.42-3.17-1.26-.81-.84-1.21-2.04-1.21-3.62ZM204.06,436.87c0,1.2.26,2.09.78,2.69s1.18.89,1.97.89,1.44-.3,1.96-.9.78-1.51.78-2.73c0-1.15-.26-2.03-.79-2.62s-1.18-.89-1.96-.89-1.45.3-1.97.89-.78,1.49-.78,2.68Z"/>
    <path class="cls-5" d="M214.5,441.54h-1.47v-12.88h1.58v4.6c.67-.84,1.52-1.26,2.56-1.26.57,0,1.12.12,1.63.35s.93.56,1.27.98.59.92.78,1.52.28,1.22.28,1.9c0,1.6-.4,2.84-1.19,3.71s-1.74,1.31-2.85,1.31-1.97-.46-2.59-1.38v1.17ZM214.48,436.8c0,1.12.15,1.93.46,2.43.5.81,1.17,1.22,2.02,1.22.69,0,1.29-.3,1.79-.9s.76-1.5.76-2.69-.24-2.12-.73-2.7c-.48-.58-1.07-.87-1.75-.87s-1.29.3-1.79.9-.76,1.47-.76,2.61Z"/>
    <path class="cls-5" d="M223.01,441.54v-12.88h1.58v12.88h-1.58Z"/>
    <path class="cls-5" d="M233.44,438.53l1.63.2c-.26.96-.74,1.7-1.43,2.22s-1.59.79-2.67.79c-1.37,0-2.45-.42-3.25-1.26-.8-.84-1.2-2.02-1.2-3.54s.4-2.79,1.21-3.66,1.86-1.3,3.15-1.3,2.27.42,3.06,1.27,1.19,2.04,1.19,3.59c0,.09,0,.23,0,.42h-6.96c.06,1.03.35,1.81.87,2.36s1.17.82,1.95.82c.58,0,1.08-.15,1.49-.46s.74-.79.98-1.46ZM228.24,435.98h5.21c-.07-.79-.27-1.37-.6-1.77-.5-.61-1.16-.91-1.96-.91-.73,0-1.34.24-1.83.73s-.77,1.14-.82,1.95Z"/>
    <path class="cls-5" d="M237.06,441.54v-9.33h1.42v1.31c.29-.46.68-.82,1.17-1.1s1.04-.42,1.66-.42c.69,0,1.26.14,1.7.43.44.29.75.69.94,1.2.74-1.09,1.7-1.63,2.88-1.63.93,0,1.64.26,2.14.77s.75,1.3.75,2.37v6.41h-1.57v-5.88c0-.63-.05-1.09-.15-1.37-.1-.28-.29-.5-.56-.67s-.59-.25-.95-.25c-.66,0-1.2.22-1.63.65s-.65,1.14-.65,2.1v5.42h-1.58v-6.06c0-.7-.13-1.23-.39-1.58s-.68-.53-1.27-.53c-.45,0-.86.12-1.23.35-.38.23-.65.58-.82,1.03s-.25,1.1-.25,1.95v4.84h-1.58Z"/>
    <path class="cls-5" d="M251.42,438.75l1.56-.25c.09.63.33,1.11.73,1.44s.96.5,1.68.5,1.27-.15,1.62-.44.53-.64.53-1.04c0-.36-.16-.64-.47-.84-.22-.14-.76-.32-1.62-.54-1.16-.29-1.96-.55-2.41-.76-.45-.21-.79-.51-1.02-.89s-.35-.8-.35-1.25c0-.42.09-.8.29-1.16.19-.35.45-.65.78-.88.25-.18.58-.34,1.01-.46s.88-.19,1.37-.19c.73,0,1.38.11,1.93.32.55.21.96.5,1.23.86s.45.84.54,1.45l-1.55.21c-.07-.48-.27-.86-.61-1.12-.34-.27-.81-.4-1.43-.4-.73,0-1.25.12-1.56.36s-.47.52-.47.84c0,.21.06.39.19.55.13.17.33.31.61.42.16.06.62.19,1.4.4,1.12.3,1.9.54,2.34.73.44.19.79.47,1.04.83s.38.81.38,1.35-.15,1.02-.46,1.49c-.31.47-.75.83-1.33,1.08s-1.24.38-1.97.38c-1.21,0-2.14-.25-2.77-.76-.64-.5-1.04-1.25-1.22-2.24Z"/>
    <path class="cls-5" d="M267.78,441.54l-2.86-9.33h1.63l1.49,5.39.55,2c.02-.1.18-.74.48-1.92l1.49-5.47h1.63l1.4,5.41.47,1.78.54-1.8,1.6-5.4h1.54l-2.92,9.33h-1.64l-1.49-5.59-.36-1.59-1.89,7.18h-1.65Z"/>
    <path class="cls-5" d="M279.05,441.54v-12.88h1.58v4.62c.74-.86,1.67-1.28,2.79-1.28.69,0,1.29.14,1.8.41s.88.65,1.09,1.13c.22.48.33,1.18.33,2.09v5.92h-1.58v-5.92c0-.79-.17-1.37-.51-1.73-.34-.36-.83-.54-1.46-.54-.47,0-.91.12-1.32.36-.41.24-.71.57-.88.99s-.26.99-.26,1.72v5.11h-1.58Z"/>
    <path class="cls-5" d="M295.45,438.53l1.63.2c-.26.96-.74,1.7-1.43,2.22s-1.59.79-2.67.79c-1.37,0-2.45-.42-3.25-1.26-.8-.84-1.2-2.02-1.2-3.54s.4-2.79,1.21-3.66,1.86-1.3,3.15-1.3,2.27.42,3.06,1.27,1.19,2.04,1.19,3.59c0,.09,0,.23,0,.42h-6.96c.06,1.03.35,1.81.87,2.36s1.17.82,1.95.82c.58,0,1.08-.15,1.49-.46s.74-.79.98-1.46ZM290.26,435.98h5.21c-.07-.79-.27-1.37-.6-1.77-.5-.61-1.16-.91-1.96-.91-.73,0-1.34.24-1.83.73s-.77,1.14-.82,1.95Z"/>
    <path class="cls-5" d="M299.06,441.54v-9.33h1.42v1.42c.36-.66.7-1.1,1.01-1.31.31-.21.65-.32,1.01-.32.53,0,1.08.17,1.63.51l-.54,1.47c-.39-.23-.77-.34-1.16-.34-.35,0-.66.1-.93.31s-.47.5-.59.87c-.18.56-.26,1.18-.26,1.85v4.89h-1.58Z"/>
    <path class="cls-5" d="M311.46,438.53l1.63.2c-.26.96-.74,1.7-1.43,2.22s-1.59.79-2.67.79c-1.37,0-2.45-.42-3.25-1.26-.8-.84-1.2-2.02-1.2-3.54s.4-2.79,1.21-3.66,1.86-1.3,3.15-1.3,2.27.42,3.06,1.27,1.19,2.04,1.19,3.59c0,.09,0,.23,0,.42h-6.96c.06,1.03.35,1.81.87,2.36s1.17.82,1.95.82c.58,0,1.08-.15,1.49-.46s.74-.79.98-1.46ZM306.26,435.98h5.21c-.07-.79-.27-1.37-.6-1.77-.5-.61-1.16-.91-1.96-.91-.73,0-1.34.24-1.83.73s-.77,1.14-.82,1.95Z"/>
    <path class="cls-5" d="M59.06,461.99c-.59.5-1.15.85-1.69,1.05-.54.21-1.12.31-1.75.31-1.03,0-1.81-.25-2.36-.75s-.83-1.14-.83-1.92c0-.46.1-.87.31-1.25.21-.38.48-.68.82-.91s.72-.4,1.14-.52c.31-.08.78-.16,1.41-.24,1.28-.15,2.22-.33,2.82-.54,0-.22,0-.35,0-.41,0-.64-.15-1.1-.45-1.36-.4-.36-1-.54-1.8-.54-.74,0-1.29.13-1.65.39s-.62.72-.79,1.38l-1.55-.21c.14-.66.37-1.2.69-1.6s.79-.72,1.4-.94,1.32-.33,2.12-.33,1.44.09,1.94.28.86.42,1.1.71.4.64.49,1.08c.05.27.08.76.08,1.46v2.11c0,1.47.03,2.4.1,2.79s.2.76.4,1.12h-1.65c-.16-.33-.27-.71-.32-1.15ZM58.93,458.46c-.57.23-1.44.43-2.58.6-.65.09-1.11.2-1.38.32s-.48.29-.62.51-.22.48-.22.75c0,.42.16.77.48,1.05s.79.42,1.4.42,1.15-.13,1.63-.4.82-.63,1.05-1.09c.17-.36.25-.88.25-1.58v-.58Z"/>
    <path class="cls-5" d="M62.94,463.14v-12.88h1.58v12.88h-1.58Z"/>
    <path class="cls-5" d="M66.94,463.14v-12.88h1.58v12.88h-1.58Z"/>
    <path class="cls-5" d="M82.07,461.99c-.59.5-1.15.85-1.69,1.05-.54.21-1.12.31-1.75.31-1.03,0-1.81-.25-2.36-.75s-.83-1.14-.83-1.92c0-.46.1-.87.31-1.25.21-.38.48-.68.82-.91s.72-.4,1.14-.52c.31-.08.78-.16,1.41-.24,1.28-.15,2.22-.33,2.82-.54,0-.22,0-.35,0-.41,0-.64-.15-1.1-.45-1.36-.4-.36-1-.54-1.8-.54-.74,0-1.29.13-1.65.39s-.62.72-.79,1.38l-1.55-.21c.14-.66.37-1.2.69-1.6s.79-.72,1.4-.94,1.32-.33,2.12-.33,1.44.09,1.94.28.86.42,1.1.71.4.64.49,1.08c.05.27.08.76.08,1.46v2.11c0,1.47.03,2.4.1,2.79s.2.76.4,1.12h-1.65c-.16-.33-.27-.71-.32-1.15ZM81.94,458.46c-.57.23-1.44.43-2.58.6-.65.09-1.11.2-1.38.32s-.48.29-.62.51-.22.48-.22.75c0,.42.16.77.48,1.05s.79.42,1.4.42,1.15-.13,1.63-.4.82-.63,1.05-1.09c.17-.36.25-.88.25-1.58v-.58Z"/>
    <path class="cls-5" d="M92.08,459.72l1.56.2c-.17,1.07-.61,1.91-1.31,2.52s-1.56.91-2.58.91c-1.28,0-2.3-.42-3.08-1.25s-1.16-2.03-1.16-3.59c0-1.01.17-1.89.5-2.65s.84-1.32,1.52-1.7,1.43-.57,2.23-.57c1.01,0,1.84.26,2.49.77s1.06,1.24,1.24,2.18l-1.54.24c-.15-.63-.41-1.1-.78-1.42s-.82-.47-1.35-.47c-.8,0-1.44.29-1.94.86s-.75,1.48-.75,2.71.24,2.17.72,2.73,1.11.85,1.88.85c.62,0,1.14-.19,1.56-.57s.68-.97.79-1.76Z"/>
    <path class="cls-5" d="M98.44,461.72l.23,1.4c-.45.09-.84.14-1.2.14-.57,0-1.02-.09-1.34-.27s-.54-.42-.67-.72-.19-.92-.19-1.87v-5.37h-1.16v-1.23h1.16v-2.31l1.57-.95v3.26h1.59v1.23h-1.59v5.46c0,.45.03.74.08.87s.15.23.27.31c.12.08.31.11.54.11.18,0,.41-.02.69-.06Z"/>
    <path class="cls-5" d="M100,452.07v-1.82h1.58v1.82h-1.58ZM100,463.14v-9.33h1.58v9.33h-1.58Z"/>
    <path class="cls-5" d="M103.4,458.47c0-1.73.48-3.01,1.44-3.84.8-.69,1.78-1.04,2.94-1.04,1.28,0,2.33.42,3.15,1.26s1.22,2,1.22,3.48c0,1.2-.18,2.15-.54,2.83-.36.69-.89,1.22-1.57,1.6s-1.44.57-2.25.57c-1.31,0-2.36-.42-3.17-1.26-.81-.84-1.21-2.04-1.21-3.62ZM105.03,458.47c0,1.2.26,2.09.78,2.69s1.18.89,1.97.89,1.44-.3,1.96-.9.78-1.51.78-2.73c0-1.15-.26-2.03-.79-2.62s-1.18-.89-1.96-.89-1.45.3-1.97.89-.78,1.49-.78,2.68Z"/>
    <path class="cls-5" d="M114,463.14v-9.33h1.42v1.33c.69-1.03,1.68-1.54,2.97-1.54.56,0,1.08.1,1.55.3.47.2.82.47,1.06.8s.4.72.49,1.17c.06.29.09.81.09,1.54v5.74h-1.58v-5.68c0-.64-.06-1.13-.18-1.45s-.34-.57-.66-.76-.68-.29-1.1-.29c-.67,0-1.26.21-1.75.64s-.73,1.24-.73,2.43v5.1h-1.58Z"/>
    <path class="cls-5" d="M123.38,460.35l1.56-.25c.09.63.33,1.11.73,1.44s.96.5,1.68.5,1.27-.15,1.62-.44.53-.64.53-1.04c0-.36-.16-.64-.47-.84-.22-.14-.76-.32-1.62-.54-1.16-.29-1.96-.55-2.41-.76-.45-.21-.79-.51-1.02-.89s-.35-.8-.35-1.25c0-.42.09-.8.29-1.16.19-.35.45-.65.78-.88.25-.18.58-.34,1.01-.46s.88-.19,1.37-.19c.73,0,1.38.11,1.93.32.55.21.96.5,1.23.86s.45.84.54,1.45l-1.55.21c-.07-.48-.27-.86-.61-1.12-.34-.27-.81-.4-1.43-.4-.73,0-1.25.12-1.56.36s-.47.52-.47.84c0,.21.06.39.19.55.13.17.33.31.61.42.16.06.62.19,1.4.4,1.12.3,1.9.54,2.34.73.44.19.79.47,1.04.83s.38.81.38,1.35-.15,1.02-.46,1.49c-.31.47-.75.83-1.33,1.08s-1.24.38-1.97.38c-1.21,0-2.14-.25-2.77-.76-.64-.5-1.04-1.25-1.22-2.24Z"/>
    <path class="cls-5" d="M138.01,463.14v-12.88h1.58v4.62c.74-.86,1.67-1.28,2.79-1.28.69,0,1.29.14,1.8.41s.88.65,1.09,1.13c.22.48.33,1.18.33,2.09v5.92h-1.58v-5.92c0-.79-.17-1.37-.51-1.73-.34-.36-.83-.54-1.46-.54-.47,0-.91.12-1.32.36-.41.24-.71.57-.88.99s-.26.99-.26,1.72v5.11h-1.58Z"/>
    <path class="cls-5" d="M154.11,461.99c-.59.5-1.15.85-1.69,1.05-.54.21-1.12.31-1.75.31-1.03,0-1.81-.25-2.36-.75s-.83-1.14-.83-1.92c0-.46.1-.87.31-1.25.21-.38.48-.68.82-.91s.72-.4,1.14-.52c.31-.08.78-.16,1.41-.24,1.28-.15,2.22-.33,2.82-.54,0-.22,0-.35,0-.41,0-.64-.15-1.1-.45-1.36-.4-.36-1-.54-1.8-.54-.74,0-1.29.13-1.65.39s-.62.72-.79,1.38l-1.55-.21c.14-.66.37-1.2.69-1.6s.79-.72,1.4-.94,1.32-.33,2.12-.33,1.44.09,1.94.28.86.42,1.1.71.4.64.49,1.08c.05.27.08.76.08,1.46v2.11c0,1.47.03,2.4.1,2.79s.2.76.4,1.12h-1.65c-.16-.33-.27-.71-.32-1.15ZM153.98,458.46c-.57.23-1.44.43-2.58.6-.65.09-1.11.2-1.38.32s-.48.29-.62.51-.22.48-.22.75c0,.42.16.77.48,1.05s.79.42,1.4.42,1.15-.13,1.63-.4.82-.63,1.05-1.09c.17-.36.25-.88.25-1.58v-.58Z"/>
    <path class="cls-5" d="M160.62,463.14l-3.55-9.33h1.67l2,5.59c.22.6.42,1.23.6,1.88.14-.49.34-1.08.59-1.78l2.07-5.7h1.63l-3.53,9.33h-1.48Z"/>
    <path class="cls-5" d="M173.42,460.13l1.63.2c-.26.96-.74,1.7-1.43,2.22s-1.59.79-2.67.79c-1.37,0-2.45-.42-3.25-1.26-.8-.84-1.2-2.02-1.2-3.54s.4-2.79,1.21-3.66,1.86-1.3,3.15-1.3,2.27.42,3.06,1.27,1.19,2.04,1.19,3.59c0,.09,0,.23,0,.42h-6.96c.06,1.03.35,1.81.87,2.36s1.17.82,1.95.82c.58,0,1.08-.15,1.49-.46s.74-.79.98-1.46ZM168.23,457.58h5.21c-.07-.79-.27-1.37-.6-1.77-.5-.61-1.16-.91-1.96-.91-.73,0-1.34.24-1.83.73s-.77,1.14-.82,1.95Z"/>
    <path class="cls-5" d="M185.5,461.72l.23,1.4c-.45.09-.84.14-1.2.14-.57,0-1.02-.09-1.34-.27s-.54-.42-.67-.72-.19-.92-.19-1.87v-5.37h-1.16v-1.23h1.16v-2.31l1.57-.95v3.26h1.59v1.23h-1.59v5.46c0,.45.03.74.08.87s.15.23.27.31c.12.08.31.11.54.11.18,0,.41-.02.69-.06Z"/>
    <path class="cls-5" d="M187.04,463.14v-12.88h1.58v4.62c.74-.86,1.67-1.28,2.79-1.28.69,0,1.29.14,1.8.41s.88.65,1.09,1.13c.22.48.33,1.18.33,2.09v5.92h-1.58v-5.92c0-.79-.17-1.37-.51-1.73-.34-.36-.83-.54-1.46-.54-.47,0-.91.12-1.32.36-.41.24-.71.57-.88.99s-.26.99-.26,1.72v5.11h-1.58Z"/>
    <path class="cls-5" d="M203.45,460.13l1.63.2c-.26.96-.74,1.7-1.43,2.22s-1.59.79-2.67.79c-1.37,0-2.45-.42-3.25-1.26-.8-.84-1.2-2.02-1.2-3.54s.4-2.79,1.21-3.66,1.86-1.3,3.15-1.3,2.27.42,3.06,1.27,1.19,2.04,1.19,3.59c0,.09,0,.23,0,.42h-6.96c.06,1.03.35,1.81.87,2.36s1.17.82,1.95.82c.58,0,1.08-.15,1.49-.46s.74-.79.98-1.46ZM198.25,457.58h5.21c-.07-.79-.27-1.37-.6-1.77-.5-.61-1.16-.91-1.96-.91-.73,0-1.34.24-1.83.73s-.77,1.14-.82,1.95Z"/>
    <path class="cls-5" d="M211.43,460.35l1.56-.25c.09.63.33,1.11.73,1.44s.96.5,1.68.5,1.27-.15,1.62-.44.53-.64.53-1.04c0-.36-.16-.64-.47-.84-.22-.14-.76-.32-1.62-.54-1.16-.29-1.96-.55-2.41-.76-.45-.21-.79-.51-1.02-.89s-.35-.8-.35-1.25c0-.42.09-.8.29-1.16.19-.35.45-.65.78-.88.25-.18.58-.34,1.01-.46s.88-.19,1.37-.19c.73,0,1.38.11,1.93.32.55.21.96.5,1.23.86s.45.84.54,1.45l-1.55.21c-.07-.48-.27-.86-.61-1.12-.34-.27-.81-.4-1.43-.4-.73,0-1.25.12-1.56.36s-.47.52-.47.84c0,.21.06.39.19.55.13.17.33.31.61.42.16.06.62.19,1.4.4,1.12.3,1.9.54,2.34.73.44.19.79.47,1.04.83s.38.81.38,1.35-.15,1.02-.46,1.49c-.31.47-.75.83-1.33,1.08s-1.24.38-1.97.38c-1.21,0-2.14-.25-2.77-.76-.64-.5-1.04-1.25-1.22-2.24Z"/>
    <path class="cls-5" d="M227.16,461.99c-.59.5-1.15.85-1.69,1.05-.54.21-1.12.31-1.75.31-1.03,0-1.81-.25-2.36-.75s-.83-1.14-.83-1.92c0-.46.1-.87.31-1.25.21-.38.48-.68.82-.91s.72-.4,1.14-.52c.31-.08.78-.16,1.41-.24,1.28-.15,2.22-.33,2.82-.54,0-.22,0-.35,0-.41,0-.64-.15-1.1-.45-1.36-.4-.36-1-.54-1.8-.54-.74,0-1.29.13-1.65.39s-.62.72-.79,1.38l-1.55-.21c.14-.66.37-1.2.69-1.6s.79-.72,1.4-.94,1.32-.33,2.12-.33,1.44.09,1.94.28.86.42,1.1.71.4.64.49,1.08c.05.27.08.76.08,1.46v2.11c0,1.47.03,2.4.1,2.79s.2.76.4,1.12h-1.65c-.16-.33-.27-.71-.32-1.15ZM227.03,458.46c-.57.23-1.44.43-2.58.6-.65.09-1.11.2-1.38.32s-.48.29-.62.51-.22.48-.22.75c0,.42.16.77.48,1.05s.79.42,1.4.42,1.15-.13,1.63-.4.82-.63,1.05-1.09c.17-.36.25-.88.25-1.58v-.58Z"/>
    <path class="cls-5" d="M231.08,463.14v-9.33h1.42v1.31c.29-.46.68-.82,1.17-1.1s1.04-.42,1.66-.42c.69,0,1.26.14,1.7.43.44.29.75.69.94,1.2.74-1.09,1.7-1.63,2.88-1.63.93,0,1.64.26,2.14.77s.75,1.3.75,2.37v6.41h-1.57v-5.88c0-.63-.05-1.09-.15-1.37-.1-.28-.29-.5-.56-.67s-.59-.25-.95-.25c-.66,0-1.2.22-1.63.65s-.65,1.14-.65,2.1v5.42h-1.58v-6.06c0-.7-.13-1.23-.39-1.58s-.68-.53-1.27-.53c-.45,0-.86.12-1.23.35-.38.23-.65.58-.82,1.03s-.25,1.1-.25,1.95v4.84h-1.58Z"/>
    <path class="cls-5" d="M252.46,460.13l1.63.2c-.26.96-.74,1.7-1.43,2.22s-1.59.79-2.67.79c-1.37,0-2.45-.42-3.25-1.26-.8-.84-1.2-2.02-1.2-3.54s.4-2.79,1.21-3.66,1.86-1.3,3.15-1.3,2.27.42,3.06,1.27,1.19,2.04,1.19,3.59c0,.09,0,.23,0,.42h-6.96c.06,1.03.35,1.81.87,2.36s1.17.82,1.95.82c.58,0,1.08-.15,1.49-.46s.74-.79.98-1.46ZM247.27,457.58h5.21c-.07-.79-.27-1.37-.6-1.77-.5-.61-1.16-.91-1.96-.91-.73,0-1.34.24-1.83.73s-.77,1.14-.82,1.95Z"/>
    <path class="cls-5" d="M267.17,459.72l1.56.2c-.17,1.07-.61,1.91-1.31,2.52s-1.56.91-2.58.91c-1.28,0-2.3-.42-3.08-1.25s-1.16-2.03-1.16-3.59c0-1.01.17-1.89.5-2.65s.84-1.32,1.52-1.7,1.43-.57,2.23-.57c1.01,0,1.84.26,2.49.77s1.06,1.24,1.24,2.18l-1.54.24c-.15-.63-.41-1.1-.78-1.42s-.82-.47-1.35-.47c-.8,0-1.44.29-1.94.86s-.75,1.48-.75,2.71.24,2.17.72,2.73,1.11.85,1.88.85c.62,0,1.14-.19,1.56-.57s.68-.97.79-1.76Z"/>
    <path class="cls-5" d="M269.5,458.47c0-1.73.48-3.01,1.44-3.84.8-.69,1.78-1.04,2.94-1.04,1.28,0,2.33.42,3.15,1.26s1.22,2,1.22,3.48c0,1.2-.18,2.15-.54,2.83-.36.69-.89,1.22-1.57,1.6s-1.44.57-2.25.57c-1.31,0-2.36-.42-3.17-1.26-.81-.84-1.21-2.04-1.21-3.62ZM271.12,458.47c0,1.2.26,2.09.78,2.69s1.18.89,1.97.89,1.44-.3,1.96-.9.78-1.51.78-2.73c0-1.15-.26-2.03-.79-2.62s-1.18-.89-1.96-.89-1.45.3-1.97.89-.78,1.49-.78,2.68Z"/>
    <path class="cls-5" d="M279.46,460.35l1.56-.25c.09.63.33,1.11.73,1.44s.96.5,1.68.5,1.27-.15,1.62-.44.53-.64.53-1.04c0-.36-.16-.64-.47-.84-.22-.14-.76-.32-1.62-.54-1.16-.29-1.96-.55-2.41-.76-.45-.21-.79-.51-1.02-.89s-.35-.8-.35-1.25c0-.42.09-.8.29-1.16.19-.35.45-.65.78-.88.25-.18.58-.34,1.01-.46s.88-.19,1.37-.19c.73,0,1.38.11,1.93.32.55.21.96.5,1.23.86s.45.84.54,1.45l-1.55.21c-.07-.48-.27-.86-.61-1.12-.34-.27-.81-.4-1.43-.4-.73,0-1.25.12-1.56.36s-.47.52-.47.84c0,.21.06.39.19.55.13.17.33.31.61.42.16.06.62.19,1.4.4,1.12.3,1.9.54,2.34.73.44.19.79.47,1.04.83s.38.81.38,1.35-.15,1.02-.46,1.49c-.31.47-.75.83-1.33,1.08s-1.24.38-1.97.38c-1.21,0-2.14-.25-2.77-.76-.64-.5-1.04-1.25-1.22-2.24Z"/>
    <path class="cls-5" d="M292.55,461.72l.23,1.4c-.45.09-.84.14-1.2.14-.57,0-1.02-.09-1.34-.27s-.54-.42-.67-.72-.19-.92-.19-1.87v-5.37h-1.16v-1.23h1.16v-2.31l1.57-.95v3.26h1.59v1.23h-1.59v5.46c0,.45.03.74.08.87s.15.23.27.31c.12.08.31.11.54.11.18,0,.41-.02.69-.06Z"/>
    <path class="cls-5" d="M293.46,460.35l1.56-.25c.09.63.33,1.11.73,1.44s.96.5,1.68.5,1.27-.15,1.62-.44.53-.64.53-1.04c0-.36-.16-.64-.47-.84-.22-.14-.76-.32-1.62-.54-1.16-.29-1.96-.55-2.41-.76-.45-.21-.79-.51-1.02-.89s-.35-.8-.35-1.25c0-.42.09-.8.29-1.16.19-.35.45-.65.78-.88.25-.18.58-.34,1.01-.46s.88-.19,1.37-.19c.73,0,1.38.11,1.93.32.55.21.96.5,1.23.86s.45.84.54,1.45l-1.55.21c-.07-.48-.27-.86-.61-1.12-.34-.27-.81-.4-1.43-.4-.73,0-1.25.12-1.56.36s-.47.52-.47.84c0,.21.06.39.19.55.13.17.33.31.61.42.16.06.62.19,1.4.4,1.12.3,1.9.54,2.34.73.44.19.79.47,1.04.83s.38.81.38,1.35-.15,1.02-.46,1.49c-.31.47-.75.83-1.33,1.08s-1.24.38-1.97.38c-1.21,0-2.14-.25-2.77-.76-.64-.5-1.04-1.25-1.22-2.24Z"/>
    <path class="cls-5" d="M53,488.53c-.87-1.1-1.61-2.39-2.21-3.87s-.91-3.01-.91-4.59c0-1.39.23-2.73.68-4.01.53-1.48,1.34-2.96,2.44-4.43h1.13c-.71,1.22-1.18,2.09-1.41,2.61-.36.81-.64,1.65-.84,2.53-.25,1.1-.38,2.2-.38,3.3,0,2.82.88,5.63,2.63,8.45h-1.13Z"/>
    <path class="cls-5" d="M55.97,484.74v-9.33h1.42v1.33c.69-1.03,1.68-1.54,2.97-1.54.56,0,1.08.1,1.55.3.47.2.82.47,1.06.8s.4.72.49,1.17c.06.29.09.81.09,1.54v5.74h-1.58v-5.68c0-.64-.06-1.13-.18-1.45s-.34-.57-.66-.76-.68-.29-1.1-.29c-.67,0-1.26.21-1.75.64s-.73,1.24-.73,2.43v5.1h-1.58Z"/>
    <path class="cls-5" d="M72.1,484.74v-1.37c-.73,1.05-1.71,1.58-2.96,1.58-.55,0-1.07-.11-1.54-.32s-.83-.48-1.06-.8c-.23-.32-.39-.71-.49-1.17-.06-.31-.1-.8-.1-1.48v-5.78h1.58v5.18c0,.83.03,1.38.1,1.67.1.42.31.74.63.98s.72.36,1.2.36.92-.12,1.34-.36.71-.57.88-.99.26-1.03.26-1.82v-5h1.58v9.33h-1.42Z"/>
    <path class="cls-5" d="M76,484.74v-9.33h1.42v1.31c.29-.46.68-.82,1.17-1.1s1.04-.42,1.66-.42c.69,0,1.26.14,1.7.43.44.29.75.69.94,1.2.74-1.09,1.7-1.63,2.88-1.63.93,0,1.64.26,2.14.77s.75,1.3.75,2.37v6.41h-1.57v-5.88c0-.63-.05-1.09-.15-1.37-.1-.28-.29-.5-.56-.67s-.59-.25-.95-.25c-.66,0-1.2.22-1.63.65s-.65,1.14-.65,2.1v5.42h-1.58v-6.06c0-.7-.13-1.23-.39-1.58s-.68-.53-1.27-.53c-.45,0-.86.12-1.23.35-.38.23-.65.58-.82,1.03s-.25,1.1-.25,1.95v4.84h-1.58Z"/>
    <path class="cls-5" d="M92.45,484.74h-1.47v-12.88h1.58v4.6c.67-.84,1.52-1.26,2.56-1.26.57,0,1.12.12,1.63.35s.93.56,1.27.98.59.92.78,1.52.28,1.22.28,1.9c0,1.6-.4,2.84-1.19,3.71s-1.74,1.31-2.85,1.31-1.97-.46-2.59-1.38v1.17ZM92.43,480c0,1.12.15,1.93.46,2.43.5.81,1.17,1.22,2.02,1.22.69,0,1.29-.3,1.79-.9s.76-1.5.76-2.69-.24-2.12-.73-2.7c-.48-.58-1.07-.87-1.75-.87s-1.29.3-1.79.9-.76,1.47-.76,2.61Z"/>
    <path class="cls-5" d="M107.39,481.73l1.63.2c-.26.96-.74,1.7-1.43,2.22s-1.59.79-2.67.79c-1.37,0-2.45-.42-3.25-1.26-.8-.84-1.2-2.02-1.2-3.54s.4-2.79,1.21-3.66,1.86-1.3,3.15-1.3,2.27.42,3.06,1.27,1.19,2.04,1.19,3.59c0,.09,0,.23,0,.42h-6.96c.06,1.03.35,1.81.87,2.36s1.17.82,1.95.82c.58,0,1.08-.15,1.49-.46s.74-.79.98-1.46ZM102.2,479.18h5.21c-.07-.79-.27-1.37-.6-1.77-.5-.61-1.16-.91-1.96-.91-.73,0-1.34.24-1.83.73s-.77,1.14-.82,1.95Z"/>
    <path class="cls-5" d="M110.99,484.74v-9.33h1.42v1.42c.36-.66.7-1.1,1.01-1.31.31-.21.65-.32,1.01-.32.53,0,1.08.17,1.63.51l-.54,1.47c-.39-.23-.77-.34-1.16-.34-.35,0-.66.1-.93.31s-.47.5-.59.87c-.18.56-.26,1.18-.26,1.85v4.89h-1.58Z"/>
    <path class="cls-5" d="M121.42,480.07c0-1.73.48-3.01,1.44-3.84.8-.69,1.78-1.04,2.94-1.04,1.28,0,2.33.42,3.15,1.26s1.22,2,1.22,3.48c0,1.2-.18,2.15-.54,2.83-.36.69-.89,1.22-1.57,1.6s-1.44.57-2.25.57c-1.31,0-2.36-.42-3.17-1.26-.81-.84-1.21-2.04-1.21-3.62ZM123.04,480.07c0,1.2.26,2.09.78,2.69s1.18.89,1.97.89,1.44-.3,1.96-.9.78-1.51.78-2.73c0-1.15-.26-2.03-.79-2.62s-1.18-.89-1.96-.89-1.45.3-1.97.89-.78,1.49-.78,2.68Z"/>
    <path class="cls-5" d="M132.39,484.74v-8.1h-1.4v-1.23h1.4v-.99c0-.63.06-1.09.17-1.4.15-.41.42-.74.8-1s.92-.38,1.61-.38c.45,0,.94.05,1.48.16l-.24,1.38c-.33-.06-.64-.09-.93-.09-.48,0-.82.1-1.02.31s-.3.59-.3,1.15v.86h1.82v1.23h-1.82v8.1h-1.57Z"/>
    <path class="cls-5" d="M148.11,483.59c-.59.5-1.15.85-1.69,1.05-.54.21-1.12.31-1.75.31-1.03,0-1.81-.25-2.36-.75s-.83-1.14-.83-1.92c0-.46.1-.87.31-1.25.21-.38.48-.68.82-.91s.72-.4,1.14-.52c.31-.08.78-.16,1.41-.24,1.28-.15,2.22-.33,2.82-.54,0-.22,0-.35,0-.41,0-.64-.15-1.1-.45-1.36-.4-.36-1-.54-1.8-.54-.74,0-1.29.13-1.65.39s-.62.72-.79,1.38l-1.55-.21c.14-.66.37-1.2.69-1.6s.79-.72,1.4-.94,1.32-.33,2.12-.33,1.44.09,1.94.28.86.42,1.1.71.4.64.49,1.08c.05.27.08.76.08,1.46v2.11c0,1.47.03,2.4.1,2.79s.2.76.4,1.12h-1.65c-.16-.33-.27-.71-.32-1.15ZM147.98,480.06c-.57.23-1.44.43-2.58.6-.65.09-1.11.2-1.38.32s-.48.29-.62.51-.22.48-.22.75c0,.42.16.77.48,1.05s.79.42,1.4.42,1.15-.13,1.63-.4.82-.63,1.05-1.09c.17-.36.25-.88.25-1.58v-.58Z"/>
    <path class="cls-5" d="M158.12,481.32l1.56.2c-.17,1.07-.61,1.91-1.31,2.52s-1.56.91-2.58.91c-1.28,0-2.3-.42-3.08-1.25s-1.16-2.03-1.16-3.59c0-1.01.17-1.89.5-2.65s.84-1.32,1.52-1.7,1.43-.57,2.23-.57c1.01,0,1.84.26,2.49.77s1.06,1.24,1.24,2.18l-1.54.24c-.15-.63-.41-1.1-.78-1.42s-.82-.47-1.35-.47c-.8,0-1.44.29-1.94.86s-.75,1.48-.75,2.71.24,2.17.72,2.73,1.11.85,1.88.85c.62,0,1.14-.19,1.56-.57s.68-.97.79-1.76Z"/>
    <path class="cls-5" d="M164.48,483.32l.23,1.4c-.45.09-.84.14-1.2.14-.57,0-1.02-.09-1.34-.27s-.54-.42-.67-.72-.19-.92-.19-1.87v-5.37h-1.16v-1.23h1.16v-2.31l1.57-.95v3.26h1.59v1.23h-1.59v5.46c0,.45.03.74.08.87s.15.23.27.31c.12.08.31.11.54.11.18,0,.41-.02.69-.06Z"/>
    <path class="cls-5" d="M166.04,473.67v-1.82h1.58v1.82h-1.58ZM166.04,484.74v-9.33h1.58v9.33h-1.58Z"/>
    <path class="cls-5" d="M169.44,480.07c0-1.73.48-3.01,1.44-3.84.8-.69,1.78-1.04,2.94-1.04,1.28,0,2.33.42,3.15,1.26s1.22,2,1.22,3.48c0,1.2-.18,2.15-.54,2.83-.36.69-.89,1.22-1.57,1.6s-1.44.57-2.25.57c-1.31,0-2.36-.42-3.17-1.26-.81-.84-1.21-2.04-1.21-3.62ZM171.07,480.07c0,1.2.26,2.09.78,2.69s1.18.89,1.97.89,1.44-.3,1.96-.9.78-1.51.78-2.73c0-1.15-.26-2.03-.79-2.62s-1.18-.89-1.96-.89-1.45.3-1.97.89-.78,1.49-.78,2.68Z"/>
    <path class="cls-5" d="M180.04,484.74v-9.33h1.42v1.33c.69-1.03,1.68-1.54,2.97-1.54.56,0,1.08.1,1.55.3.47.2.82.47,1.06.8s.4.72.49,1.17c.06.29.09.81.09,1.54v5.74h-1.58v-5.68c0-.64-.06-1.13-.18-1.45s-.34-.57-.66-.76-.68-.29-1.1-.29c-.67,0-1.26.21-1.75.64s-.73,1.24-.73,2.43v5.1h-1.58Z"/>
    <path class="cls-5" d="M189.42,481.95l1.56-.25c.09.63.33,1.11.73,1.44s.96.5,1.68.5,1.27-.15,1.62-.44.53-.64.53-1.04c0-.36-.16-.64-.47-.84-.22-.14-.76-.32-1.62-.54-1.16-.29-1.96-.55-2.41-.76-.45-.21-.79-.51-1.02-.89s-.35-.8-.35-1.25c0-.42.09-.8.29-1.16.19-.35.45-.65.78-.88.25-.18.58-.34,1.01-.46s.88-.19,1.37-.19c.73,0,1.38.11,1.93.32.55.21.96.5,1.23.86s.45.84.54,1.45l-1.55.21c-.07-.48-.27-.86-.61-1.12-.34-.27-.81-.4-1.43-.4-.73,0-1.25.12-1.56.36s-.47.52-.47.84c0,.21.06.39.19.55.13.17.33.31.61.42.16.06.62.19,1.4.4,1.12.3,1.9.54,2.34.73.44.19.79.47,1.04.83s.38.81.38,1.35-.15,1.02-.46,1.49c-.31.47-.75.83-1.33,1.08s-1.24.38-1.97.38c-1.21,0-2.14-.25-2.77-.76-.64-.5-1.04-1.25-1.22-2.24Z"/>
    <path class="cls-5" d="M200.09,488.53h-1.13c1.75-2.81,2.63-5.63,2.63-8.45,0-1.1-.13-2.19-.38-3.28-.2-.88-.48-1.72-.83-2.53-.23-.53-.7-1.41-1.42-2.64h1.13c1.1,1.47,1.92,2.95,2.44,4.43.45,1.28.68,2.61.68,4.01,0,1.58-.3,3.11-.91,4.59-.61,1.48-1.34,2.77-2.21,3.87Z"/>
    <path class="cls-5" d="M205.46,484.74v-1.8h1.8v1.8c0,.66-.12,1.2-.35,1.6s-.61.72-1.12.94l-.44-.68c.33-.15.58-.36.74-.65s.25-.69.26-1.23h-.9ZM205.46,477.21v-1.8h1.8v1.8h-1.8Z"/>
    <path class="cls-5" d="M215.06,473.67v-1.82h1.58v1.82h-1.58ZM215.06,484.74v-9.33h1.58v9.33h-1.58Z"/>
    <path class="cls-5" d="M218.41,481.95l1.56-.25c.09.63.33,1.11.73,1.44s.96.5,1.68.5,1.27-.15,1.62-.44.53-.64.53-1.04c0-.36-.16-.64-.47-.84-.22-.14-.76-.32-1.62-.54-1.16-.29-1.96-.55-2.41-.76-.45-.21-.79-.51-1.02-.89s-.35-.8-.35-1.25c0-.42.09-.8.29-1.16.19-.35.45-.65.78-.88.25-.18.58-.34,1.01-.46s.88-.19,1.37-.19c.73,0,1.38.11,1.93.32.55.21.96.5,1.23.86s.45.84.54,1.45l-1.55.21c-.07-.48-.27-.86-.61-1.12-.34-.27-.81-.4-1.43-.4-.73,0-1.25.12-1.56.36s-.47.52-.47.84c0,.21.06.39.19.55.13.17.33.31.61.42.16.06.62.19,1.4.4,1.12.3,1.9.54,2.34.73.44.19.79.47,1.04.83s.38.81.38,1.35-.15,1.02-.46,1.49c-.31.47-.75.83-1.33,1.08s-1.24.38-1.97.38c-1.21,0-2.14-.25-2.77-.76-.64-.5-1.04-1.25-1.22-2.24Z"/>
    <path class="cls-5" d="M239.14,481.32l1.56.2c-.17,1.07-.61,1.91-1.31,2.52s-1.56.91-2.58.91c-1.28,0-2.3-.42-3.08-1.25s-1.16-2.03-1.16-3.59c0-1.01.17-1.89.5-2.65s.84-1.32,1.52-1.7,1.43-.57,2.23-.57c1.01,0,1.84.26,2.49.77s1.06,1.24,1.24,2.18l-1.54.24c-.15-.63-.41-1.1-.78-1.42s-.82-.47-1.35-.47c-.8,0-1.44.29-1.94.86s-.75,1.48-.75,2.71.24,2.17.72,2.73,1.11.85,1.88.85c.62,0,1.14-.19,1.56-.57s.68-.97.79-1.76Z"/>
    <path class="cls-5" d="M241.46,480.07c0-1.73.48-3.01,1.44-3.84.8-.69,1.78-1.04,2.94-1.04,1.28,0,2.33.42,3.15,1.26s1.22,2,1.22,3.48c0,1.2-.18,2.15-.54,2.83-.36.69-.89,1.22-1.57,1.6s-1.44.57-2.25.57c-1.31,0-2.36-.42-3.17-1.26-.81-.84-1.21-2.04-1.21-3.62ZM243.08,480.07c0,1.2.26,2.09.78,2.69s1.18.89,1.97.89,1.44-.3,1.96-.9.78-1.51.78-2.73c0-1.15-.26-2.03-.79-2.62s-1.18-.89-1.96-.89-1.45.3-1.97.89-.78,1.49-.78,2.68Z"/>
    <path class="cls-5" d="M252.06,484.74v-9.33h1.42v1.31c.29-.46.68-.82,1.17-1.1s1.04-.42,1.66-.42c.69,0,1.26.14,1.7.43.44.29.75.69.94,1.2.74-1.09,1.7-1.63,2.88-1.63.93,0,1.64.26,2.14.77s.75,1.3.75,2.37v6.41h-1.57v-5.88c0-.63-.05-1.09-.15-1.37-.1-.28-.29-.5-.56-.67s-.59-.25-.95-.25c-.66,0-1.2.22-1.63.65s-.65,1.14-.65,2.1v5.42h-1.58v-6.06c0-.7-.13-1.23-.39-1.58s-.68-.53-1.27-.53c-.45,0-.86.12-1.23.35-.38.23-.65.58-.82,1.03s-.25,1.1-.25,1.95v4.84h-1.58Z"/>
    <path class="cls-5" d="M267.05,488.32v-12.91h1.44v1.21c.34-.47.72-.83,1.15-1.07s.95-.36,1.56-.36c.8,0,1.5.21,2.11.62s1.07.99,1.38,1.74.47,1.57.47,2.46c0,.96-.17,1.81-.51,2.58-.34.76-.84,1.35-1.49,1.76s-1.34.61-2.06.61c-.53,0-1-.11-1.42-.33s-.76-.5-1.03-.84v4.54h-1.58ZM268.48,480.13c0,1.2.24,2.09.73,2.66s1.08.86,1.77.86,1.3-.3,1.81-.89c.5-.59.75-1.52.75-2.76s-.25-2.08-.73-2.67c-.49-.59-1.07-.89-1.75-.89s-1.27.31-1.79.94c-.52.63-.78,1.55-.78,2.75Z"/>
    <path class="cls-5" d="M277.03,484.74v-12.88h1.58v12.88h-1.58Z"/>
    <path class="cls-5" d="M287.45,481.73l1.63.2c-.26.96-.74,1.7-1.43,2.22s-1.59.79-2.67.79c-1.37,0-2.45-.42-3.25-1.26-.8-.84-1.2-2.02-1.2-3.54s.4-2.79,1.21-3.66,1.86-1.3,3.15-1.3,2.27.42,3.06,1.27,1.19,2.04,1.19,3.59c0,.09,0,.23,0,.42h-6.96c.06,1.03.35,1.81.87,2.36s1.17.82,1.95.82c.58,0,1.08-.15,1.49-.46s.74-.79.98-1.46ZM282.26,479.18h5.21c-.07-.79-.27-1.37-.6-1.77-.5-.61-1.16-.91-1.96-.91-.73,0-1.34.24-1.83.73s-.77,1.14-.82,1.95Z"/>
    <path class="cls-5" d="M294.53,483.32l.23,1.4c-.45.09-.84.14-1.2.14-.57,0-1.02-.09-1.34-.27s-.54-.42-.67-.72-.19-.92-.19-1.87v-5.37h-1.16v-1.23h1.16v-2.31l1.57-.95v3.26h1.59v1.23h-1.59v5.46c0,.45.03.74.08.87s.15.23.27.31c.12.08.31.11.54.11.18,0,.41-.02.69-.06Z"/>
    <path class="cls-5" d="M302.46,481.73l1.63.2c-.26.96-.74,1.7-1.43,2.22s-1.59.79-2.67.79c-1.37,0-2.45-.42-3.25-1.26-.8-.84-1.2-2.02-1.2-3.54s.4-2.79,1.21-3.66,1.86-1.3,3.15-1.3,2.27.42,3.06,1.27,1.19,2.04,1.19,3.59c0,.09,0,.23,0,.42h-6.96c.06,1.03.35,1.81.87,2.36s1.17.82,1.95.82c.58,0,1.08-.15,1.49-.46s.74-.79.98-1.46ZM297.27,479.18h5.21c-.07-.79-.27-1.37-.6-1.77-.5-.61-1.16-.91-1.96-.91-.73,0-1.34.24-1.83.73s-.77,1.14-.82,1.95Z"/>
  </g>
  <text class="cls-3" transform="translate(722.44 62.67)"><tspan x="0" y="0">Uniform-cost search</tspan></text>
</svg>