<?xml version="1.0" encoding="UTF-8"?>
<svg id="Ebene_1" data-name="Ebene 1" xmlns="http://www.w3.org/2000/svg" viewBox="0 0 988 525">
  <defs>
    <style>
      .cls-1 {
        fill: #0333ff;
      }

      .cls-2, .cls-3, .cls-4, .cls-5, .cls-6 {
        font-family: ArialMT, Arial;
      }

      .cls-2, .cls-5 {
        font-size: 9.6px;
      }

      .cls-2, .cls-7 {
        letter-spacing: 0em;
      }

      .cls-3, .cls-6 {
        font-size: 14px;
      }

      .cls-4 {
        font-size: 12px;
      }

      .cls-8 {
        fill-rule: evenodd;
      }

      .cls-9, .cls-10, .cls-6 {
        fill: #fff;
      }

      .cls-9, .cls-11 {
        stroke: #000;
      }

      .cls-9, .cls-11, .cls-12, .cls-13 {
        stroke-miterlimit: 8;
      }

      .cls-14 {
        font-family: CourierNewPS-BoldMT, 'Courier New';
        font-size: 17.28px;
        font-weight: 700;
        letter-spacing: 0em;
      }

      .cls-15 {
        letter-spacing: 0em;
      }

      .cls-16 {
        letter-spacing: 0em;
      }

      .cls-17 {
        letter-spacing: 0em;
      }

      .cls-18 {
        letter-spacing: 0em;
      }

      .cls-19 {
        letter-spacing: 0em;
      }

      .cls-20 {
        letter-spacing: 0em;
      }

      .cls-21 {
        letter-spacing: 0em;
      }

      .cls-11, .cls-12, .cls-13 {
        fill: none;
      }

      .cls-12 {
        stroke-dasharray: 3 3;
        stroke-width: .5px;
      }

      .cls-12, .cls-13 {
        stroke: #0333ff;
      }

      .cls-13 {
        stroke-width: 2px;
      }

      .cls-22 {
        letter-spacing: 0em;
      }

      .cls-23 {
        letter-spacing: 0em;
      }

      .cls-24 {
        letter-spacing: 0em;
      }

      .cls-25 {
        letter-spacing: 0em;
      }

      .cls-26 {
        letter-spacing: 0em;
      }

      .cls-27 {
        letter-spacing: 0em;
      }

      .cls-28 {
        letter-spacing: 0em;
      }

      .cls-29 {
        letter-spacing: 0em;
      }

      .cls-30 {
        letter-spacing: 0em;
      }

      .cls-31 {
        letter-spacing: 0em;
      }

      .cls-32 {
        letter-spacing: 0em;
      }

      .cls-33 {
        letter-spacing: 0em;
      }

      .cls-34 {
        letter-spacing: 0em;
      }

      .cls-35 {
        letter-spacing: 0em;
      }

      .cls-36 {
        letter-spacing: 0em;
      }

      .cls-37 {
        letter-spacing: 0em;
      }

      .cls-38 {
        letter-spacing: 0em;
      }

      .cls-39 {
        letter-spacing: 0em;
      }

      .cls-40 {
        letter-spacing: 0em;
      }

      .cls-41 {
        letter-spacing: 0em;
      }

      .cls-42 {
        letter-spacing: 0em;
      }

      .cls-43 {
        letter-spacing: 0em;
      }
    </style>
  </defs>
  <rect class="cls-9" x="41.4" y="135.72" width="411.2" height="111.8"/>
  <text class="cls-3" transform="translate(61.46 160.02)"><tspan class="cls-36" x="0" y="0">M</tspan><tspan class="cls-15" x="11.63" y="0">a</tspan><tspan class="cls-20" x="19.43" y="0">n</tspan><tspan class="cls-15" x="27.25" y="0">a</tspan><tspan x="35.05" y="0">ge</tspan><tspan class="cls-20" x="50.62" y="0">m</tspan><tspan x="62.31" y="0">e</tspan><tspan class="cls-21" x="70.1" y="0">n</tspan><tspan class="cls-32" x="77.91" y="0">t</tspan><tspan class="cls-21" x="81.76" y="0">p</tspan><tspan x="89.57" y="0">r</tspan><tspan class="cls-19" x="94.24" y="0">o</tspan><tspan class="cls-16" x="102.06" y="0">ze</tspan><tspan x="116.88" y="0">sse</tspan></text>
  <rect class="cls-9" x="41.4" y="247.52" width="411.2" height="111.8"/>
  <text class="cls-3" transform="translate(61.46 271.82)"><tspan class="cls-32" x="0" y="0">K</tspan><tspan class="cls-16" x="9.3" y="0">e</tspan><tspan x="17.1" y="0">r</tspan><tspan class="cls-21" x="21.76" y="0">np</tspan><tspan x="37.39" y="0">r</tspan><tspan class="cls-19" x="42.05" y="0">o</tspan><tspan class="cls-20" x="49.88" y="0">z</tspan><tspan class="cls-15" x="56.9" y="0">e</tspan><tspan x="64.71" y="0">sse</tspan></text>
  <rect class="cls-9" x="41.4" y="359.32" width="411.2" height="111.8"/>
  <text class="cls-3" transform="translate(61.46 383.62)"><tspan class="cls-16" x="0" y="0">Un</tspan><tspan class="cls-32" x="17.92" y="0">t</tspan><tspan class="cls-16" x="21.77" y="0">e</tspan><tspan x="29.57" y="0">rs</tspan><tspan class="cls-32" x="41.23" y="0">t</tspan><tspan class="cls-19" x="45.08" y="0">ü</tspan><tspan class="cls-32" x="52.91" y="0">t</tspan><tspan class="cls-21" x="56.76" y="0">z</tspan><tspan class="cls-19" x="63.79" y="0">u</tspan><tspan class="cls-16" x="71.61" y="0">n</tspan><tspan x="79.41" y="0">gs</tspan><tspan class="cls-21" x="94.2" y="0">p</tspan><tspan x="102.01" y="0">r</tspan><tspan class="cls-20" x="106.68" y="0">oz</tspan><tspan class="cls-16" x="121.52" y="0">e</tspan><tspan x="129.32" y="0">sse</tspan></text>
  <rect x="240.58" y="183.13" width="113.85" height="41.58"/>
  <text class="cls-6" transform="translate(264.09 208.42)"><tspan class="cls-28" x="0" y="0">R</tspan><tspan class="cls-19" x="10.1" y="0">i</tspan><tspan x="13.25" y="0">s</tspan><tspan class="cls-19" x="20.25" y="0">i</tspan><tspan x="23.4" y="0">k</tspan><tspan class="cls-32" x="30.4" y="0">o </tspan><tspan class="cls-16" x="41.99" y="0">M</tspan><tspan class="cls-28" x="53.67" y="0">g</tspan><tspan class="cls-23" x="61.44" y="0">m</tspan><tspan x="73.05" y="0">t </tspan></text>
  <rect x="115.75" y="183.13" width="114.51" height="41.58"/>
  <text class="cls-6" transform="translate(137.1 201.22)"><tspan class="cls-19" x="0" y="0">S</tspan><tspan class="cls-26" x="9.38" y="0">t</tspan><tspan class="cls-42" x="13.21" y="0">r</tspan><tspan x="17.93" y="0">a</tspan><tspan class="cls-26" x="25.72" y="0">t</tspan><tspan class="cls-40" x="29.55" y="0">e</tspan><tspan x="37.41" y="0">g</tspan><tspan class="cls-19" x="45.19" y="0">i</tspan><tspan class="cls-28" x="48.35" y="0">s</tspan><tspan class="cls-19" x="55.33" y="0">c</tspan><tspan class="cls-28" x="62.37" y="0">h</tspan><tspan class="cls-40" x="70.15" y="0">e</tspan><tspan x="78" y="0"> </tspan><tspan x="15.25" y="16.8">P</tspan><tspan class="cls-19" x="24.59" y="16.8">l</tspan><tspan x="27.74" y="16.8">a</tspan><tspan class="cls-28" x="35.53" y="16.8">n</tspan><tspan x="43.3" y="16.8">u</tspan><tspan class="cls-27" x="51.08" y="16.8">n</tspan><tspan x="58.86" y="16.8">g</tspan></text>
  <rect x="240.58" y="407.33" width="113.85" height="41.58"/>
  <rect x="115.75" y="407.33" width="114.51" height="41.58"/>
  <polygon class="cls-8" points="180.58 295.56 294.76 295.56 315.22 316.02 294.76 336.48 180.58 336.48 201.04 316.02 180.58 295.56"/>
  <text class="cls-6" transform="translate(214.48 320.82)"><tspan x="0" y="0">P</tspan><tspan class="cls-42" x="9.34" y="0">r</tspan><tspan class="cls-32" x="14.06" y="0">o</tspan><tspan class="cls-35" x="21.8" y="0">d</tspan><tspan x="29.56" y="0">u</tspan><tspan class="cls-27" x="37.34" y="0">k</tspan><tspan class="cls-26" x="44.33" y="0">t</tspan><tspan class="cls-19" x="48.16" y="0">i</tspan><tspan class="cls-32" x="51.32" y="0">o</tspan><tspan x="59.06" y="0">n</tspan></text>
  <polygon class="cls-8" points="70.98 295.56 171.16 295.56 191.62 316.02 171.16 336.48 70.98 336.48 70.98 295.56"/>
  <polygon class="cls-8" points="304.18 295.56 418.36 295.56 438.82 316.02 418.36 336.48 304.18 336.48 324.64 316.02 304.18 295.56"/>
  <text class="cls-6" transform="translate(346.89 320.82)"><tspan class="cls-36" x="0" y="0">V</tspan><tspan class="cls-39" x="9.31" y="0">e</tspan><tspan class="cls-42" x="17.17" y="0">r</tspan><tspan class="cls-26" x="21.88" y="0">t</tspan><tspan class="cls-42" x="25.72" y="0">r</tspan><tspan class="cls-19" x="30.44" y="0">i</tspan><tspan class="cls-39" x="33.59" y="0">e</tspan><tspan x="41.44" y="0">b</tspan></text>
  <text class="cls-6" transform="translate(97.01 313.62)"><tspan class="cls-16" x="0" y="0">M</tspan><tspan x="11.68" y="0">a</tspan><tspan class="cls-26" x="19.46" y="0">t</tspan><tspan class="cls-39" x="23.3" y="0">e</tspan><tspan class="cls-42" x="31.15" y="0">r</tspan><tspan class="cls-19" x="35.87" y="0">i</tspan><tspan x="39.02" y="0">al-</tspan><tspan x="-3.82" y="16.8">Wirtschaft</tspan></text>
  <text class="cls-6" transform="translate(261.46 425.42)"><tspan class="cls-28" x="0" y="0">R</tspan><tspan class="cls-38" x="10.1" y="0">e</tspan><tspan class="cls-19" x="17.97" y="0">c</tspan><tspan class="cls-27" x="25.01" y="0">hn</tspan><tspan class="cls-16" x="40.55" y="0">u</tspan><tspan class="cls-28" x="48.35" y="0">n</tspan><tspan x="56.12" y="0">gs-</tspan><tspan x="17.55" y="16.8">wesen</tspan></text>
  <text class="cls-6" transform="translate(144.76 425.42)"><tspan x="0" y="0">P</tspan><tspan class="cls-39" x="9.34" y="0">e</tspan><tspan class="cls-19" x="17.19" y="0">r</tspan><tspan class="cls-27" x="21.9" y="0">s</tspan><tspan class="cls-35" x="28.88" y="0">o</tspan><tspan class="cls-27" x="36.64" y="0">n</tspan><tspan x="44.41" y="0">al-</tspan><tspan class="cls-32" x=".42" y="16.8">w</tspan><tspan class="cls-19" x="10.49" y="16.8">ir</tspan><tspan class="cls-26" x="18.35" y="16.8">t</tspan><tspan class="cls-27" x="22.18" y="16.8">s</tspan><tspan class="cls-41" x="29.17" y="16.8">c</tspan><tspan class="cls-27" x="36.22" y="16.8">h</tspan><tspan x="44" y="16.8">a</tspan><tspan class="cls-28" x="51.78" y="16.8">f</tspan><tspan x="55.66" y="16.8">t</tspan></text>
  <text class="cls-14" transform="translate(164.18 63.28)"><tspan x="0" y="0">Prozesslandkarte</tspan></text>
  <g>
    <circle class="cls-13" cx="427.38" cy="278.2" r="41.82"/>
    <rect class="cls-13" x="482.17" y="314.42" width="23.37" height="60.5" rx="9.34" ry="9.34" transform="translate(-99.07 450.16) rotate(-45)"/>
    <line class="cls-13" x1="472.46" y1="323.28" x2="456.95" y2="307.77"/>
  </g>
  <g>
    <path class="cls-12" d="M460.13,236.38c8.84-45.27,32.61-70.71,77.63-71.98"/>
    <polygon class="cls-1" points="537.12 166.99 541.35 164.35 536.95 162.01 537.12 166.99"/>
  </g>
  <polygon points="737.95 135.72 876.82 135.72 890.95 163.02 876.82 190.32 737.95 190.32 752.08 163.02 737.95 135.72"/>
  <text class="cls-6" transform="translate(780.99 167.82)"><tspan class="cls-16" x="0" y="0">P</tspan><tspan class="cls-35" x="9.35" y="0">r</tspan><tspan class="cls-19" x="13.99" y="0">o</tspan><tspan class="cls-23" x="21.81" y="0">du</tspan><tspan class="cls-21" x="37.27" y="0">k</tspan><tspan class="cls-42" x="44.3" y="0">t</tspan><tspan class="cls-26" x="48.25" y="0">i</tspan><tspan class="cls-19" x="51.3" y="0">o</tspan><tspan x="59.13" y="0">n</tspan></text>
  <polygon points="544.15 135.72 683.02 135.72 697.15 163.02 683.02 190.32 544.15 190.32 558.28 163.02 544.15 135.72"/>
  <g>
    <path class="cls-10" d="M594.57,158.35v-10.02h2l2.37,7.1c.22.66.38,1.16.48,1.48.11-.36.29-.9.53-1.61l2.4-6.97h1.78v10.02h-1.28v-8.39l-2.91,8.39h-1.2l-2.9-8.53v8.53h-1.28Z"/>
    <path class="cls-10" d="M610.84,157.46c-.46.39-.89.66-1.32.82-.42.16-.87.24-1.36.24-.8,0-1.41-.19-1.84-.58s-.64-.89-.64-1.49c0-.36.08-.68.24-.97.16-.29.37-.53.64-.71.26-.18.56-.31.88-.4.24-.06.61-.13,1.09-.18.99-.12,1.72-.26,2.19-.42,0-.17,0-.28,0-.32,0-.5-.12-.85-.35-1.06-.31-.28-.78-.42-1.4-.42-.58,0-1.01.1-1.28.3-.28.2-.48.56-.61,1.08l-1.2-.16c.11-.52.29-.93.54-1.25s.61-.56,1.09-.73,1.02-.26,1.65-.26,1.12.07,1.51.22.67.33.85.55.31.5.38.84c.04.21.06.59.06,1.13v1.64c0,1.14.03,1.87.08,2.17.05.3.16.59.31.87h-1.29c-.13-.26-.21-.55-.25-.9ZM610.73,154.71c-.45.18-1.12.34-2.01.46-.51.07-.86.15-1.07.25s-.37.22-.49.4-.17.37-.17.58c0,.33.12.6.37.82.25.22.61.33,1.09.33s.9-.1,1.26-.31.64-.49.81-.85c.13-.28.2-.69.2-1.23v-.45Z"/>
    <path class="cls-10" d="M616.53,157.25l.18,1.09c-.35.07-.66.11-.93.11-.45,0-.79-.07-1.04-.21s-.42-.33-.52-.56-.15-.71-.15-1.45v-4.18h-.9v-.96h.9v-1.8l1.22-.74v2.54h1.24v.96h-1.24v4.25c0,.35.02.58.07.68.04.1.11.18.21.24.1.06.24.09.42.09.14,0,.32-.02.54-.05Z"/>
    <path class="cls-10" d="M622.77,156.02l1.27.16c-.2.74-.57,1.32-1.11,1.73s-1.24.62-2.08.62c-1.06,0-1.9-.33-2.53-.98-.62-.65-.93-1.57-.93-2.75s.31-2.17.94-2.84,1.44-1.01,2.45-1.01,1.76.33,2.38.99.92,1.59.92,2.79c0,.07,0,.18,0,.33h-5.41c.05.8.27,1.41.68,1.83s.91.64,1.52.64c.45,0,.84-.12,1.16-.36s.57-.62.76-1.13ZM618.73,154.03h4.05c-.05-.61-.21-1.07-.46-1.37-.39-.47-.9-.71-1.52-.71-.57,0-1.04.19-1.42.57-.39.38-.6.88-.64,1.52Z"/>
    <path class="cls-10" d="M625.53,158.35v-7.26h1.11v1.1c.28-.52.54-.85.78-1.02.24-.16.5-.25.79-.25.42,0,.84.13,1.26.4l-.42,1.14c-.3-.18-.6-.27-.9-.27-.27,0-.51.08-.72.24s-.37.39-.46.67c-.14.44-.21.92-.21,1.44v3.8h-1.23Z"/>
    <path class="cls-10" d="M630.19,149.75v-1.42h1.23v1.42h-1.23ZM630.19,158.35v-7.26h1.23v7.26h-1.23Z"/>
    <path class="cls-10" d="M637.97,157.46c-.46.39-.89.66-1.32.82-.42.16-.87.24-1.36.24-.8,0-1.41-.19-1.84-.58s-.64-.89-.64-1.49c0-.36.08-.68.24-.97.16-.29.37-.53.64-.71.26-.18.56-.31.88-.4.24-.06.61-.13,1.09-.18.99-.12,1.72-.26,2.19-.42,0-.17,0-.28,0-.32,0-.5-.12-.85-.35-1.06-.31-.28-.78-.42-1.4-.42-.58,0-1.01.1-1.28.3-.28.2-.48.56-.61,1.08l-1.2-.16c.11-.52.29-.93.54-1.25s.61-.56,1.09-.73,1.02-.26,1.65-.26,1.12.07,1.51.22.67.33.85.55.31.5.38.84c.04.21.06.59.06,1.13v1.64c0,1.14.03,1.87.08,2.17.05.3.16.59.31.87h-1.29c-.13-.26-.21-.55-.25-.9ZM637.87,154.71c-.45.18-1.12.34-2.01.46-.51.07-.86.15-1.07.25s-.37.22-.49.4-.17.37-.17.58c0,.33.12.6.37.82.25.22.61.33,1.09.33s.9-.1,1.26-.31.64-.49.81-.85c.13-.28.2-.69.2-1.23v-.45Z"/>
    <path class="cls-10" d="M640.95,158.35v-10.02h1.23v10.02h-1.23Z"/>
    <path class="cls-10" d="M643.55,155.35v-1.24h3.78v1.24h-3.78Z"/>
    <path class="cls-10" d="M593.28,175.15l-2.22-7.26h1.27l1.16,4.19.43,1.56c.02-.08.14-.58.38-1.5l1.16-4.25h1.26l1.09,4.21.36,1.39.42-1.4,1.24-4.2h1.2l-2.27,7.26h-1.28l-1.16-4.35-.28-1.24-1.47,5.58h-1.29Z"/>
    <path class="cls-10" d="M602.09,166.55v-1.42h1.23v1.42h-1.23ZM602.09,175.15v-7.26h1.23v7.26h-1.23Z"/>
    <path class="cls-10" d="M605.12,175.15v-7.26h1.11v1.1c.28-.52.54-.85.78-1.02.24-.16.5-.25.79-.25.42,0,.84.13,1.26.4l-.42,1.14c-.3-.18-.6-.27-.9-.27-.27,0-.51.08-.72.24s-.37.39-.46.67c-.14.44-.21.92-.21,1.44v3.8h-1.23Z"/>
    <path class="cls-10" d="M612.45,174.05l.18,1.09c-.35.07-.66.11-.93.11-.45,0-.79-.07-1.04-.21s-.42-.33-.52-.56-.15-.71-.15-1.45v-4.18h-.9v-.96h.9v-1.8l1.22-.74v2.54h1.24v.96h-1.24v4.25c0,.35.02.58.07.68.04.1.11.18.21.24.1.06.24.09.42.09.14,0,.32-.02.54-.05Z"/>
    <path class="cls-10" d="M613.23,172.99l1.22-.19c.07.49.26.86.57,1.12.31.26.75.39,1.31.39s.98-.12,1.26-.35.41-.5.41-.81c0-.28-.12-.5-.36-.66-.17-.11-.59-.25-1.26-.42-.9-.23-1.53-.42-1.88-.59-.35-.17-.61-.4-.79-.69-.18-.29-.27-.62-.27-.97,0-.32.07-.62.22-.9.15-.28.35-.5.61-.69.19-.14.45-.26.78-.36.33-.1.68-.15,1.06-.15.57,0,1.07.08,1.5.25.43.16.75.39.95.67s.35.66.42,1.12l-1.2.16c-.05-.37-.21-.67-.48-.88-.26-.21-.63-.31-1.11-.31-.57,0-.97.09-1.21.28s-.36.41-.36.66c0,.16.05.3.15.43.1.13.26.24.47.33.12.05.49.15,1.09.31.87.23,1.48.42,1.82.57.34.15.61.36.81.65s.29.63.29,1.05-.12.8-.36,1.16c-.24.36-.58.64-1.04.84s-.96.3-1.53.3c-.94,0-1.66-.2-2.16-.59-.49-.39-.81-.97-.95-1.74Z"/>
    <path class="cls-10" d="M625.49,172.49l1.21.16c-.13.83-.47,1.49-1.01,1.96-.54.47-1.21.71-2.01.71-.99,0-1.79-.32-2.4-.97-.6-.65-.91-1.58-.91-2.79,0-.78.13-1.47.39-2.06s.66-1.03,1.19-1.32c.53-.29,1.11-.44,1.73-.44.79,0,1.43.2,1.93.6s.82.96.96,1.7l-1.2.18c-.11-.49-.32-.85-.6-1.1-.29-.25-.64-.37-1.05-.37-.62,0-1.12.22-1.51.67s-.58,1.15-.58,2.11.19,1.68.56,2.13.86.66,1.46.66c.48,0,.89-.15,1.21-.44s.53-.75.62-1.37Z"/>
    <path class="cls-10" d="M627.81,175.15v-10.02h1.23v3.6c.57-.67,1.3-1,2.17-1,.54,0,1,.11,1.4.32s.68.5.85.88c.17.37.26.92.26,1.63v4.6h-1.23v-4.6c0-.62-.13-1.06-.4-1.34-.27-.28-.64-.42-1.13-.42-.36,0-.71.09-1.03.28-.32.19-.55.45-.69.77s-.21.77-.21,1.34v3.97h-1.23Z"/>
    <path class="cls-10" d="M640.4,174.26c-.46.39-.89.66-1.32.82-.42.16-.87.24-1.36.24-.8,0-1.41-.19-1.84-.58s-.64-.89-.64-1.49c0-.36.08-.68.24-.97.16-.29.37-.53.64-.71.26-.18.56-.31.88-.4.24-.06.61-.13,1.09-.18.99-.12,1.72-.26,2.19-.42,0-.17,0-.28,0-.32,0-.5-.12-.85-.35-1.06-.31-.28-.78-.42-1.4-.42-.58,0-1.01.1-1.28.3-.28.2-.48.56-.61,1.08l-1.2-.16c.11-.52.29-.93.54-1.25s.61-.56,1.09-.73,1.02-.26,1.65-.26,1.12.07,1.51.22.67.33.85.55.31.5.38.84c.04.21.06.59.06,1.13v1.64c0,1.14.03,1.87.08,2.17.05.3.16.59.31.87h-1.29c-.13-.26-.21-.55-.25-.9ZM640.3,171.51c-.45.18-1.12.34-2.01.46-.51.07-.86.15-1.07.25s-.37.22-.49.4-.17.37-.17.58c0,.33.12.6.37.82.25.22.61.33,1.09.33s.9-.1,1.26-.31.64-.49.81-.85c.13-.28.2-.69.2-1.23v-.45Z"/>
    <path class="cls-10" d="M643.72,175.15v-6.3h-1.09v-.96h1.09v-.77c0-.49.04-.85.13-1.09.12-.32.33-.58.63-.78.3-.2.72-.3,1.25-.3.35,0,.73.04,1.15.12l-.18,1.07c-.25-.05-.5-.07-.72-.07-.37,0-.64.08-.79.24s-.23.46-.23.9v.67h1.42v.96h-1.42v6.3h-1.22Z"/>
    <path class="cls-10" d="M650,174.05l.18,1.09c-.35.07-.66.11-.93.11-.45,0-.79-.07-1.04-.21s-.42-.33-.52-.56-.15-.71-.15-1.45v-4.18h-.9v-.96h.9v-1.8l1.22-.74v2.54h1.24v.96h-1.24v4.25c0,.35.02.58.07.68.04.1.11.18.21.24.1.06.24.09.42.09.14,0,.32-.02.54-.05Z"/>
  </g>
  <polygon class="cls-9" points="602.95 239.52 728.59 239.52 739.15 259.92 728.59 280.32 602.95 280.32 613.51 259.92 602.95 239.52"/>
  <text class="cls-4" transform="translate(650.84 264.42)"><tspan class="cls-34" x="0" y="0">E</tspan><tspan class="cls-17" x="7.98" y="0">i</tspan><tspan class="cls-28" x="10.68" y="0">nk</tspan><tspan x="23.33" y="0">auf</tspan></text>
  <polygon class="cls-9" points="602.95 300.12 728.59 300.12 739.15 320.52 728.59 340.92 602.95 340.92 613.51 320.52 602.95 300.12"/>
  <text class="cls-4" transform="translate(625.68 325.02)"><tspan x="0" y="0">Bestandsführung</tspan></text>
  <g>
    <polygon class="cls-9" points="796.95 239.52 922.59 239.52 933.15 259.92 922.59 280.32 796.95 280.32 807.51 259.92 796.95 239.52"/>
    <g>
      <path d="M832.33,257.92v-8.59h3.24c.57,0,1.01.03,1.31.08.42.07.78.2,1.06.4s.51.47.69.83.26.75.26,1.17c0,.73-.23,1.35-.7,1.85s-1.3.76-2.52.76h-2.2v3.49h-1.14ZM833.47,253.41h2.22c.73,0,1.26-.14,1.56-.41s.46-.66.46-1.15c0-.36-.09-.67-.27-.92s-.42-.42-.72-.51c-.19-.05-.54-.08-1.06-.08h-2.2v3.07Z"/>
      <path d="M840.19,257.92v-6.22h.95v.94c.24-.44.47-.73.67-.87s.43-.21.68-.21c.36,0,.72.11,1.08.34l-.36.98c-.26-.15-.52-.23-.77-.23-.23,0-.44.07-.62.21s-.31.33-.39.58c-.12.38-.18.79-.18,1.23v3.26h-1.05Z"/>
      <path d="M843.85,254.81c0-1.15.32-2.01.96-2.56.54-.46,1.19-.69,1.96-.69.86,0,1.55.28,2.1.84s.81,1.33.81,2.32c0,.8-.12,1.43-.36,1.89s-.59.82-1.05,1.07-.96.38-1.5.38c-.87,0-1.58-.28-2.11-.84s-.81-1.36-.81-2.41ZM844.94,254.81c0,.8.17,1.39.52,1.79s.79.59,1.31.59.96-.2,1.31-.6.52-1.01.52-1.82c0-.77-.17-1.35-.52-1.75s-.78-.59-1.3-.59-.96.2-1.31.59-.52.99-.52,1.79Z"/>
      <path d="M854.92,257.92v-.79c-.39.62-.97.93-1.74.93-.5,0-.95-.14-1.37-.41s-.74-.66-.97-1.15-.34-1.05-.34-1.69.1-1.18.31-1.69.52-.89.93-1.16.88-.4,1.39-.4c.38,0,.71.08,1,.24s.53.36.71.62v-3.08h1.05v8.59h-.98ZM851.59,254.81c0,.8.17,1.39.5,1.79s.73.59,1.19.59.85-.19,1.17-.57.48-.95.48-1.73c0-.85-.16-1.48-.49-1.88s-.73-.6-1.21-.6-.86.19-1.17.57-.47.99-.47,1.81Z"/>
      <path d="M861.61,257.92v-.91c-.48.7-1.14,1.05-1.97,1.05-.37,0-.71-.07-1.03-.21s-.55-.32-.71-.53-.26-.47-.33-.78c-.04-.21-.06-.54-.06-.98v-3.86h1.05v3.45c0,.55.02.92.06,1.11.07.28.21.5.42.65s.48.24.8.24.61-.08.89-.24.47-.38.59-.66.17-.68.17-1.22v-3.33h1.05v6.22h-.94Z"/>
      <path d="M864.21,257.92v-8.59h1.05v4.9l2.5-2.53h1.37l-2.38,2.31,2.62,3.91h-1.3l-2.06-3.18-.74.71v2.47h-1.05Z"/>
      <path d="M872.5,256.98l.15.93c-.3.06-.56.09-.8.09-.38,0-.68-.06-.89-.18s-.36-.28-.45-.48-.13-.61-.13-1.25v-3.58h-.77v-.82h.77v-1.54l1.05-.63v2.17h1.06v.82h-1.06v3.64c0,.3.02.49.06.58s.1.15.18.21.2.08.36.08c.12,0,.27-.01.46-.04Z"/>
      <path d="M873.49,250.54v-1.21h1.05v1.21h-1.05ZM873.49,257.92v-6.22h1.05v6.22h-1.05Z"/>
      <path d="M875.79,254.81c0-1.15.32-2.01.96-2.56.54-.46,1.19-.69,1.96-.69.86,0,1.55.28,2.1.84s.81,1.33.81,2.32c0,.8-.12,1.43-.36,1.89s-.59.82-1.05,1.07-.96.38-1.5.38c-.87,0-1.58-.28-2.11-.84s-.81-1.36-.81-2.41ZM876.88,254.81c0,.8.17,1.39.52,1.79s.79.59,1.31.59.96-.2,1.31-.6.52-1.01.52-1.82c0-.77-.17-1.35-.52-1.75s-.78-.59-1.3-.59-.96.2-1.31.59-.52.99-.52,1.79Z"/>
      <path d="M882.82,257.92v-6.22h.95v.88c.46-.68,1.12-1.03,1.98-1.03.38,0,.72.07,1.03.2s.55.31.71.53.27.48.33.78c.04.2.06.54.06,1.03v3.83h-1.05v-3.79c0-.43-.04-.75-.12-.96s-.23-.38-.44-.51-.45-.19-.74-.19c-.45,0-.84.14-1.16.43s-.49.83-.49,1.62v3.4h-1.05Z"/>
      <path d="M889.06,256.06l1.04-.16c.06.42.22.74.49.96s.64.33,1.12.33.84-.1,1.08-.3.35-.43.35-.69c0-.24-.1-.43-.31-.56-.14-.09-.5-.21-1.08-.36-.77-.2-1.31-.36-1.61-.51s-.53-.34-.68-.59-.23-.53-.23-.83c0-.28.06-.53.19-.77s.3-.43.52-.59c.16-.12.39-.22.67-.31s.59-.13.91-.13c.49,0,.92.07,1.29.21s.64.33.82.57.3.56.36.96l-1.03.14c-.05-.32-.18-.57-.41-.75s-.54-.27-.95-.27c-.48,0-.83.08-1.04.24s-.31.35-.31.56c0,.14.04.26.13.37.09.11.22.21.4.28.11.04.42.13.93.27.75.2,1.27.36,1.56.49s.53.31.69.55.25.54.25.9-.1.68-.31.99-.5.55-.89.72-.82.25-1.31.25c-.81,0-1.42-.17-1.85-.5s-.69-.83-.81-1.49Z"/>
      <path d="M895.07,255.34v-1.06h3.24v1.06h-3.24Z"/>
      <path d="M844.49,274.71v-8.61h.96v.81c.23-.32.48-.55.77-.71s.63-.24,1.04-.24c.53,0,1,.14,1.41.41s.71.66.92,1.16.31,1.04.31,1.64c0,.64-.11,1.21-.34,1.72s-.56.9-1,1.17-.89.41-1.37.41c-.35,0-.67-.07-.95-.22s-.51-.34-.69-.56v3.03h-1.05ZM845.44,269.24c0,.8.16,1.39.49,1.78s.72.57,1.18.57.87-.2,1.2-.59.5-1.01.5-1.84-.16-1.39-.49-1.78-.72-.59-1.17-.59-.85.21-1.19.63-.52,1.03-.52,1.83Z"/>
      <path d="M851.14,272.32v-8.59h1.05v8.59h-1.05Z"/>
      <path d="M857.89,271.55c-.39.33-.77.57-1.13.7s-.75.21-1.16.21c-.68,0-1.21-.17-1.58-.5s-.55-.76-.55-1.28c0-.3.07-.58.21-.83s.32-.45.54-.61.48-.27.76-.35c.21-.05.52-.11.94-.16.85-.1,1.48-.22,1.88-.36,0-.14,0-.24,0-.28,0-.43-.1-.73-.3-.91-.27-.24-.67-.36-1.2-.36-.5,0-.86.09-1.1.26s-.41.48-.52.92l-1.03-.14c.09-.44.25-.8.46-1.07s.53-.48.93-.63.88-.22,1.41-.22.96.06,1.29.19.58.28.73.47.27.43.33.72c.04.18.05.5.05.97v1.41c0,.98.02,1.6.07,1.86s.13.51.27.75h-1.1c-.11-.22-.18-.47-.21-.77ZM857.8,269.2c-.38.16-.96.29-1.72.4-.43.06-.74.13-.92.21s-.32.19-.42.34-.15.32-.15.5c0,.28.11.52.32.7s.52.28.93.28.77-.09,1.08-.27.55-.42.7-.73c.11-.24.17-.59.17-1.05v-.39Z"/>
      <path d="M860.5,272.32v-6.22h.95v.88c.46-.68,1.12-1.03,1.98-1.03.38,0,.72.07,1.03.2s.55.31.71.53.27.48.33.78c.04.2.06.54.06,1.03v3.83h-1.05v-3.79c0-.43-.04-.75-.12-.96s-.23-.38-.44-.51-.45-.19-.74-.19c-.45,0-.84.14-1.16.43s-.49.83-.49,1.62v3.4h-1.05Z"/>
      <path d="M871.25,272.32v-.91c-.48.7-1.14,1.05-1.97,1.05-.37,0-.71-.07-1.03-.21s-.55-.32-.71-.53-.26-.47-.33-.78c-.04-.21-.06-.54-.06-.98v-3.86h1.05v3.45c0,.55.02.92.06,1.11.07.28.21.5.42.65s.48.24.8.24.61-.08.89-.24.47-.38.59-.66.17-.68.17-1.22v-3.33h1.05v6.22h-.94Z"/>
      <path d="M873.85,272.32v-6.22h.95v.88c.46-.68,1.12-1.03,1.98-1.03.38,0,.72.07,1.03.2s.55.31.71.53.27.48.33.78c.04.2.06.54.06,1.03v3.83h-1.05v-3.79c0-.43-.04-.75-.12-.96s-.23-.38-.44-.51-.45-.19-.74-.19c-.45,0-.84.14-1.16.43s-.49.83-.49,1.62v3.4h-1.05Z"/>
      <path d="M880.33,272.84l1.03.15c.04.32.16.55.36.69.26.2.62.29,1.07.29.49,0,.87-.1,1.13-.29s.45-.47.54-.82c.05-.21.08-.67.08-1.35-.46.54-1.04.81-1.72.81-.86,0-1.52-.31-1.99-.93s-.7-1.36-.7-2.22c0-.59.11-1.14.32-1.64s.53-.89.93-1.16.89-.41,1.44-.41c.73,0,1.34.3,1.82.89v-.75h.97v5.38c0,.97-.1,1.66-.3,2.06s-.51.72-.94.96-.95.35-1.58.35c-.74,0-1.34-.17-1.8-.5s-.68-.84-.66-1.51ZM881.2,269.1c0,.82.16,1.41.49,1.79s.73.56,1.22.56.89-.19,1.22-.56.49-.96.49-1.75-.17-1.34-.51-1.72-.75-.58-1.22-.58-.87.19-1.2.57-.49.95-.49,1.7Z"/>
    </g>
  </g>
  <polygon class="cls-9" points="602.95 361.32 728.59 361.32 739.15 381.72 728.59 402.12 602.95 402.12 613.51 381.72 602.95 361.32"/>
  <text class="cls-4" transform="translate(641.73 386.22)"><tspan class="cls-24" x="0" y="0">D</tspan><tspan class="cls-18" x="8.61" y="0">i</tspan><tspan x="11.31" y="0">s</tspan><tspan class="cls-28" x="17.31" y="0">p</tspan><tspan class="cls-29" x="23.97" y="0">o</tspan><tspan x="30.61" y="0">s</tspan><tspan class="cls-17" x="36.61" y="0">i</tspan><tspan class="cls-29" x="39.31" y="0">t</tspan><tspan class="cls-17" x="42.61" y="0">i</tspan><tspan class="cls-35" x="45.31" y="0">o</tspan><tspan x="51.96" y="0">n</tspan></text>
  <text class="cls-5" transform="translate(570.41 217.06)"><tspan class="cls-7" x="0" y="0">h</tspan><tspan x="5.3" y="0">a</tspan><tspan class="cls-31" x="10.64" y="0">t</tspan><tspan class="cls-33" x="13.28" y="0"> </tspan><tspan class="cls-7" x="15.93" y="0">T</tspan><tspan class="cls-37" x="21.75" y="0">e</tspan><tspan class="cls-25" x="27.15" y="0">il</tspan><tspan class="cls-30" x="31.32" y="0">p</tspan><tspan class="cls-43" x="36.63" y="0">r</tspan><tspan class="cls-37" x="39.89" y="0">oze</tspan><tspan class="cls-22" x="55.54" y="0">s</tspan><tspan x="60.28" y="0">s</tspan></text>
  <text class="cls-2" transform="translate(680.25 122.6)"><tspan x="0" y="0">ist Vorgänger von</tspan></text>
  <g>
    <path class="cls-1" d="M778.97,425.22v-8.59h1.17l4.51,6.74v-6.74h1.09v8.59h-1.17l-4.51-6.75v6.75h-1.09Z"/>
    <path class="cls-1" d="M791.57,424.45c-.39.33-.77.57-1.13.7s-.75.21-1.16.21c-.68,0-1.21-.17-1.58-.5s-.55-.76-.55-1.28c0-.3.07-.58.21-.83s.32-.45.54-.61.48-.27.76-.35c.21-.05.52-.11.94-.16.85-.1,1.48-.22,1.88-.36,0-.14,0-.24,0-.28,0-.43-.1-.73-.3-.91-.27-.24-.67-.36-1.2-.36-.5,0-.86.09-1.1.26s-.41.48-.52.92l-1.03-.14c.09-.44.25-.8.46-1.07s.53-.48.93-.63.88-.22,1.41-.22.96.06,1.29.19.58.28.73.47.27.43.33.72c.04.18.05.5.05.97v1.41c0,.98.02,1.6.07,1.86s.13.51.27.75h-1.1c-.11-.22-.18-.47-.21-.77ZM791.48,422.1c-.38.16-.96.29-1.72.4-.43.06-.74.13-.92.21s-.32.19-.42.34-.15.32-.15.5c0,.28.11.52.32.7s.52.28.93.28.77-.09,1.08-.27.55-.42.7-.73c.11-.24.17-.59.17-1.05v-.39ZM788.37,417.78v-1.2h1.1v1.2h-1.1ZM790.56,417.78v-1.2h1.1v1.2h-1.1Z"/>
    <path class="cls-1" d="M798.23,422.94l1.04.13c-.11.71-.4,1.27-.87,1.68s-1.04.61-1.72.61c-.85,0-1.54-.28-2.05-.83s-.78-1.35-.78-2.39c0-.67.11-1.26.33-1.76s.56-.88,1.02-1.13.95-.38,1.49-.38c.68,0,1.23.17,1.66.51s.71.83.83,1.46l-1.03.16c-.1-.42-.27-.73-.52-.94s-.55-.32-.9-.32c-.53,0-.96.19-1.29.57s-.5.98-.5,1.81.16,1.44.48,1.82.74.57,1.25.57c.41,0,.76-.13,1.04-.38s.45-.64.53-1.17Z"/>
    <path class="cls-1" d="M800.15,425.22v-8.59h1.05v3.08c.49-.57,1.11-.86,1.86-.86.46,0,.86.09,1.2.27s.58.43.73.75.22.79.22,1.39v3.94h-1.05v-3.94c0-.53-.11-.91-.34-1.15s-.55-.36-.97-.36c-.31,0-.61.08-.88.24s-.47.38-.59.66-.18.66-.18,1.15v3.4h-1.05Z"/>
    <path class="cls-1" d="M806.39,423.36l1.04-.16c.06.42.22.74.49.96s.64.33,1.12.33.84-.1,1.08-.3.35-.43.35-.69c0-.24-.1-.43-.31-.56-.14-.09-.5-.21-1.08-.36-.77-.2-1.31-.36-1.61-.51s-.53-.34-.68-.59-.23-.53-.23-.83c0-.28.06-.53.19-.77s.3-.43.52-.59c.16-.12.39-.22.67-.31s.59-.13.91-.13c.49,0,.92.07,1.29.21s.64.33.82.57.3.56.36.96l-1.03.14c-.05-.32-.18-.57-.41-.75s-.54-.27-.95-.27c-.48,0-.83.08-1.04.24s-.31.35-.31.56c0,.14.04.26.13.37.09.11.22.21.4.28.11.04.42.13.93.27.75.2,1.27.36,1.56.49s.53.31.69.55.25.54.25.9-.1.68-.31.99-.5.55-.89.72-.82.25-1.31.25c-.81,0-1.42-.17-1.85-.5s-.69-.83-.81-1.49Z"/>
    <path class="cls-1" d="M815.11,424.28l.15.93c-.3.06-.56.09-.8.09-.38,0-.68-.06-.89-.18s-.36-.28-.45-.48-.13-.61-.13-1.25v-3.58h-.77v-.82h.77v-1.54l1.05-.63v2.17h1.06v.82h-1.06v3.64c0,.3.02.49.06.58s.1.15.18.21.2.08.36.08c.12,0,.27-.01.46-.04Z"/>
    <path class="cls-1" d="M820.39,423.22l1.09.13c-.17.64-.49,1.13-.96,1.48s-1.06.53-1.78.53c-.91,0-1.63-.28-2.17-.84s-.8-1.35-.8-2.36.27-1.86.81-2.44,1.24-.87,2.1-.87,1.51.28,2.04.85.79,1.36.79,2.39c0,.06,0,.16,0,.28h-4.64c.04.68.23,1.21.58,1.57s.78.54,1.3.54c.39,0,.72-.1.99-.3s.49-.53.65-.97ZM816.92,421.51h3.47c-.05-.52-.18-.92-.4-1.18-.34-.41-.77-.61-1.31-.61-.48,0-.89.16-1.22.49s-.51.76-.55,1.3Z"/>
    <path class="cls-1" d="M826.27,425.22v-8.59h6.21v1.01h-5.07v2.63h4.75v1.01h-4.75v2.92h5.27v1.01h-6.41Z"/>
    <path class="cls-1" d="M835.07,425.22h-.98v-8.59h1.05v3.06c.45-.56,1.01-.84,1.71-.84.38,0,.75.08,1.09.23s.62.37.84.65.39.62.52,1.01.19.82.19,1.27c0,1.07-.26,1.89-.79,2.47s-1.16.87-1.9.87-1.31-.31-1.73-.92v.78ZM835.06,422.06c0,.75.1,1.29.3,1.62.33.54.78.81,1.35.81.46,0,.86-.2,1.2-.6s.5-1,.5-1.79-.16-1.41-.48-1.8-.71-.58-1.17-.58-.86.2-1.2.6-.5.98-.5,1.74Z"/>
    <path class="cls-1" d="M845.02,423.22l1.09.13c-.17.64-.49,1.13-.96,1.48s-1.06.53-1.78.53c-.91,0-1.63-.28-2.17-.84s-.8-1.35-.8-2.36.27-1.86.81-2.44,1.24-.87,2.1-.87,1.51.28,2.04.85.79,1.36.79,2.39c0,.06,0,.16,0,.28h-4.64c.04.68.23,1.21.58,1.57s.78.54,1.3.54c.39,0,.72-.1.99-.3s.49-.53.65-.97ZM841.56,421.51h3.47c-.05-.52-.18-.92-.4-1.18-.34-.41-.77-.61-1.31-.61-.48,0-.89.16-1.22.49s-.51.76-.55,1.3Z"/>
    <path class="cls-1" d="M847.43,425.22v-6.22h.95v.88c.46-.68,1.12-1.03,1.98-1.03.38,0,.72.07,1.03.2s.55.31.71.53.27.48.33.78c.04.2.06.54.06,1.03v3.83h-1.05v-3.79c0-.43-.04-.75-.12-.96s-.23-.38-.44-.51-.45-.19-.74-.19c-.45,0-.84.14-1.16.43s-.49.83-.49,1.62v3.4h-1.05Z"/>
    <path class="cls-1" d="M858.35,423.22l1.09.13c-.17.64-.49,1.13-.96,1.48s-1.06.53-1.78.53c-.91,0-1.63-.28-2.17-.84s-.8-1.35-.8-2.36.27-1.86.81-2.44,1.24-.87,2.1-.87,1.51.28,2.04.85.79,1.36.79,2.39c0,.06,0,.16,0,.28h-4.64c.04.68.23,1.21.58,1.57s.78.54,1.3.54c.39,0,.72-.1.99-.3s.49-.53.65-.97ZM854.88,421.51h3.47c-.05-.52-.18-.92-.4-1.18-.34-.41-.77-.61-1.31-.61-.48,0-.89.16-1.22.49s-.51.76-.55,1.3Z"/>
    <path class="cls-1" d="M861.04,420.2v-1.2h1.2v1.2h-1.2ZM861.04,425.22v-1.2h1.2v1.2h-1.2Z"/>
    <path class="cls-1" d="M723.08,439.62v-8.59h3.24c.57,0,1.01.03,1.31.08.42.07.78.2,1.06.4s.51.47.69.83.26.75.26,1.17c0,.73-.23,1.35-.7,1.85s-1.3.76-2.52.76h-2.2v3.49h-1.14ZM724.22,435.11h2.22c.73,0,1.26-.14,1.56-.41s.46-.66.46-1.15c0-.36-.09-.67-.27-.92s-.42-.42-.72-.51c-.19-.05-.54-.08-1.06-.08h-2.2v3.07Z"/>
    <path class="cls-1" d="M730.93,439.62v-6.22h.95v.94c.24-.44.47-.73.67-.87s.43-.21.68-.21c.36,0,.72.11,1.08.34l-.36.98c-.26-.15-.52-.23-.77-.23-.23,0-.44.07-.62.21s-.31.33-.39.58c-.12.38-.18.79-.18,1.23v3.26h-1.05Z"/>
    <path class="cls-1" d="M734.53,436.51c0-1.15.32-2.01.96-2.56.54-.46,1.19-.69,1.96-.69.86,0,1.55.28,2.1.84s.81,1.33.81,2.32c0,.8-.12,1.43-.36,1.89s-.59.82-1.05,1.07-.96.38-1.5.38c-.87,0-1.58-.28-2.11-.84s-.81-1.36-.81-2.41ZM735.62,436.51c0,.8.17,1.39.52,1.79s.79.59,1.31.59.96-.2,1.31-.6.52-1.01.52-1.82c0-.77-.17-1.35-.52-1.75s-.78-.59-1.3-.59-.96.2-1.31.59-.52.99-.52,1.79Z"/>
    <path class="cls-1" d="M741.03,439.62v-.86l3.96-4.55c-.45.02-.85.04-1.19.04h-2.54v-.86h5.09v.7l-3.37,3.95-.65.72c.47-.04.92-.05,1.33-.05h2.88v.91h-5.51Z"/>
    <path class="cls-1" d="M751.83,437.62l1.09.13c-.17.64-.49,1.13-.96,1.48s-1.06.53-1.78.53c-.91,0-1.63-.28-2.17-.84s-.8-1.35-.8-2.36.27-1.86.81-2.44,1.24-.87,2.1-.87,1.51.28,2.04.85.79,1.36.79,2.39c0,.06,0,.16,0,.28h-4.64c.04.68.23,1.21.58,1.57s.78.54,1.3.54c.39,0,.72-.1.99-.3s.49-.53.65-.97ZM748.37,435.91h3.47c-.05-.52-.18-.92-.4-1.18-.34-.41-.77-.61-1.31-.61-.48,0-.89.16-1.22.49s-.51.76-.55,1.3Z"/>
    <path class="cls-1" d="M753.82,437.76l1.04-.16c.06.42.22.74.49.96s.64.33,1.12.33.84-.1,1.08-.3.35-.43.35-.69c0-.24-.1-.43-.31-.56-.14-.09-.5-.21-1.08-.36-.77-.2-1.31-.36-1.61-.51s-.53-.34-.68-.59-.23-.53-.23-.83c0-.28.06-.53.19-.77s.3-.43.52-.59c.16-.12.39-.22.67-.31s.59-.13.91-.13c.49,0,.92.07,1.29.21s.64.33.82.57.3.56.36.96l-1.03.14c-.05-.32-.18-.57-.41-.75s-.54-.27-.95-.27c-.48,0-.83.08-1.04.24s-.31.35-.31.56c0,.14.04.26.13.37.09.11.22.21.4.28.11.04.42.13.93.27.75.2,1.27.36,1.56.49s.53.31.69.55.25.54.25.9-.1.68-.31.99-.5.55-.89.72-.82.25-1.31.25c-.81,0-1.42-.17-1.85-.5s-.69-.83-.81-1.49Z"/>
    <path class="cls-1" d="M759.8,437.76l1.04-.16c.06.42.22.74.49.96s.64.33,1.12.33.84-.1,1.08-.3.35-.43.35-.69c0-.24-.1-.43-.31-.56-.14-.09-.5-.21-1.08-.36-.77-.2-1.31-.36-1.61-.51s-.53-.34-.68-.59-.23-.53-.23-.83c0-.28.06-.53.19-.77s.3-.43.52-.59c.16-.12.39-.22.67-.31s.59-.13.91-.13c.49,0,.92.07,1.29.21s.64.33.82.57.3.56.36.96l-1.03.14c-.05-.32-.18-.57-.41-.75s-.54-.27-.95-.27c-.48,0-.83.08-1.04.24s-.31.35-.31.56c0,.14.04.26.13.37.09.11.22.21.4.28.11.04.42.13.93.27.75.2,1.27.36,1.56.49s.53.31.69.55.25.54.25.9-.1.68-.31.99-.5.55-.89.72-.82.25-1.31.25c-.81,0-1.42-.17-1.85-.5s-.69-.83-.81-1.49Z"/>
    <path class="cls-1" d="M766.21,439.62v-6.22h.94v.87c.2-.3.46-.55.78-.74s.69-.28,1.11-.28c.46,0,.84.1,1.13.29s.5.46.62.8c.49-.73,1.13-1.09,1.92-1.09.62,0,1.09.17,1.42.51s.5.87.5,1.58v4.27h-1.05v-3.92c0-.42-.03-.73-.1-.91s-.19-.33-.37-.45-.39-.17-.63-.17c-.44,0-.8.15-1.09.44s-.43.76-.43,1.4v3.62h-1.05v-4.04c0-.47-.09-.82-.26-1.05s-.45-.35-.84-.35c-.3,0-.57.08-.82.23s-.43.38-.55.69-.17.73-.17,1.3v3.23h-1.05Z"/>
    <path class="cls-1" d="M775.8,436.51c0-1.15.32-2.01.96-2.56.54-.46,1.19-.69,1.96-.69.86,0,1.55.28,2.1.84s.81,1.33.81,2.32c0,.8-.12,1.43-.36,1.89s-.59.82-1.05,1.07-.96.38-1.5.38c-.87,0-1.58-.28-2.11-.84s-.81-1.36-.81-2.41ZM776.89,436.51c0,.8.17,1.39.52,1.79s.79.59,1.31.59.96-.2,1.31-.6.52-1.01.52-1.82c0-.77-.17-1.35-.52-1.75s-.78-.59-1.3-.59-.96.2-1.31.59-.52.99-.52,1.79Z"/>
    <path class="cls-1" d="M786.9,439.62v-.79c-.39.62-.97.93-1.74.93-.5,0-.95-.14-1.37-.41s-.74-.66-.97-1.15-.34-1.05-.34-1.69.1-1.18.31-1.69.52-.89.93-1.16.88-.4,1.39-.4c.38,0,.71.08,1,.24s.53.36.71.62v-3.08h1.05v8.59h-.98ZM783.56,436.51c0,.8.17,1.39.5,1.79s.73.59,1.19.59.85-.19,1.17-.57.48-.95.48-1.73c0-.85-.16-1.48-.49-1.88s-.73-.6-1.21-.6-.86.19-1.17.57-.47.99-.47,1.81Z"/>
    <path class="cls-1" d="M793.78,437.62l1.09.13c-.17.64-.49,1.13-.96,1.48s-1.06.53-1.78.53c-.91,0-1.63-.28-2.17-.84s-.8-1.35-.8-2.36.27-1.86.81-2.44,1.24-.87,2.1-.87,1.51.28,2.04.85.79,1.36.79,2.39c0,.06,0,.16,0,.28h-4.64c.04.68.23,1.21.58,1.57s.78.54,1.3.54c.39,0,.72-.1.99-.3s.49-.53.65-.97ZM790.32,435.91h3.47c-.05-.52-.18-.92-.4-1.18-.34-.41-.77-.61-1.31-.61-.48,0-.89.16-1.22.49s-.51.76-.55,1.3Z"/>
    <path class="cls-1" d="M796.16,439.62v-8.59h1.05v8.59h-1.05Z"/>
    <path class="cls-1" d="M798.81,439.62v-8.59h1.05v8.59h-1.05Z"/>
    <path class="cls-1" d="M805.75,437.62l1.09.13c-.17.64-.49,1.13-.96,1.48s-1.06.53-1.78.53c-.91,0-1.63-.28-2.17-.84s-.8-1.35-.8-2.36.27-1.86.81-2.44,1.24-.87,2.1-.87,1.51.28,2.04.85.79,1.36.79,2.39c0,.06,0,.16,0,.28h-4.64c.04.68.23,1.21.58,1.57s.78.54,1.3.54c.39,0,.72-.1.99-.3s.49-.53.65-.97ZM802.29,435.91h3.47c-.05-.52-.18-.92-.4-1.18-.34-.41-.77-.61-1.31-.61-.48,0-.89.16-1.22.49s-.51.76-.55,1.3Z"/>
    <path class="cls-1" d="M812.45,439.62h-.98v-8.59h1.05v3.06c.45-.56,1.01-.84,1.71-.84.38,0,.75.08,1.09.23s.62.37.84.65.39.62.52,1.01.19.82.19,1.27c0,1.07-.26,1.89-.79,2.47s-1.16.87-1.9.87-1.31-.31-1.73-.92v.78ZM812.44,436.46c0,.75.1,1.29.3,1.62.33.54.78.81,1.35.81.46,0,.86-.2,1.2-.6s.5-1,.5-1.79-.16-1.41-.48-1.8-.71-.58-1.17-.58-.86.2-1.2.6-.5.98-.5,1.74Z"/>
    <path class="cls-1" d="M822.2,438.85c-.39.33-.77.57-1.13.7s-.75.21-1.16.21c-.68,0-1.21-.17-1.58-.5s-.55-.76-.55-1.28c0-.3.07-.58.21-.83s.32-.45.54-.61.48-.27.76-.35c.21-.05.52-.11.94-.16.85-.1,1.48-.22,1.88-.36,0-.14,0-.24,0-.28,0-.43-.1-.73-.3-.91-.27-.24-.67-.36-1.2-.36-.5,0-.86.09-1.1.26s-.41.48-.52.92l-1.03-.14c.09-.44.25-.8.46-1.07s.53-.48.93-.63.88-.22,1.41-.22.96.06,1.29.19.58.28.73.47.27.43.33.72c.04.18.05.5.05.97v1.41c0,.98.02,1.6.07,1.86s.13.51.27.75h-1.1c-.11-.22-.18-.47-.21-.77ZM822.11,436.5c-.38.16-.96.29-1.72.4-.43.06-.74.13-.92.21s-.32.19-.42.34-.15.32-.15.5c0,.28.11.52.32.7s.52.28.93.28.77-.09,1.08-.27.55-.42.7-.73c.11-.24.17-.59.17-1.05v-.39Z"/>
    <path class="cls-1" d="M824.38,437.76l1.04-.16c.06.42.22.74.49.96s.64.33,1.12.33.84-.1,1.08-.3.35-.43.35-.69c0-.24-.1-.43-.31-.56-.14-.09-.5-.21-1.08-.36-.77-.2-1.31-.36-1.61-.51s-.53-.34-.68-.59-.23-.53-.23-.83c0-.28.06-.53.19-.77s.3-.43.52-.59c.16-.12.39-.22.67-.31s.59-.13.91-.13c.49,0,.92.07,1.29.21s.64.33.82.57.3.56.36.96l-1.03.14c-.05-.32-.18-.57-.41-.75s-.54-.27-.95-.27c-.48,0-.83.08-1.04.24s-.31.35-.31.56c0,.14.04.26.13.37.09.11.22.21.4.28.11.04.42.13.93.27.75.2,1.27.36,1.56.49s.53.31.69.55.25.54.25.9-.1.68-.31.99-.5.55-.89.72-.82.25-1.31.25c-.81,0-1.42-.17-1.85-.5s-.69-.83-.81-1.49Z"/>
    <path class="cls-1" d="M830.79,432.24v-1.21h1.05v1.21h-1.05ZM830.79,439.62v-6.22h1.05v6.22h-1.05Z"/>
    <path class="cls-1" d="M837.7,437.62l1.09.13c-.17.64-.49,1.13-.96,1.48s-1.06.53-1.78.53c-.91,0-1.63-.28-2.17-.84s-.8-1.35-.8-2.36.27-1.86.81-2.44,1.24-.87,2.1-.87,1.51.28,2.04.85.79,1.36.79,2.39c0,.06,0,.16,0,.28h-4.64c.04.68.23,1.21.58,1.57s.78.54,1.3.54c.39,0,.72-.1.99-.3s.49-.53.65-.97ZM834.24,435.91h3.47c-.05-.52-.18-.92-.4-1.18-.34-.41-.77-.61-1.31-.61-.48,0-.89.16-1.22.49s-.51.76-.55,1.3Z"/>
    <path class="cls-1" d="M840.09,439.62v-6.22h.95v.94c.24-.44.47-.73.67-.87s.43-.21.68-.21c.36,0,.72.11,1.08.34l-.36.98c-.26-.15-.52-.23-.77-.23-.23,0-.44.07-.62.21s-.31.33-.39.58c-.12.38-.18.79-.18,1.23v3.26h-1.05Z"/>
    <path class="cls-1" d="M848.35,437.62l1.09.13c-.17.64-.49,1.13-.96,1.48s-1.06.53-1.78.53c-.91,0-1.63-.28-2.17-.84s-.8-1.35-.8-2.36.27-1.86.81-2.44,1.24-.87,2.1-.87,1.51.28,2.04.85.79,1.36.79,2.39c0,.06,0,.16,0,.28h-4.64c.04.68.23,1.21.58,1.57s.78.54,1.3.54c.39,0,.72-.1.99-.3s.49-.53.65-.97ZM844.88,435.91h3.47c-.05-.52-.18-.92-.4-1.18-.34-.41-.77-.61-1.31-.61-.48,0-.89.16-1.22.49s-.51.76-.55,1.3Z"/>
    <path class="cls-1" d="M850.75,439.62v-6.22h.95v.88c.46-.68,1.12-1.03,1.98-1.03.38,0,.72.07,1.03.2s.55.31.71.53.27.48.33.78c.04.2.06.54.06,1.03v3.83h-1.05v-3.79c0-.43-.04-.75-.12-.96s-.23-.38-.44-.51-.45-.19-.74-.19c-.45,0-.84.14-1.16.43s-.49.83-.49,1.62v3.4h-1.05Z"/>
    <path class="cls-1" d="M861.45,439.62v-.79c-.39.62-.97.93-1.74.93-.5,0-.95-.14-1.37-.41s-.74-.66-.97-1.15-.34-1.05-.34-1.69.1-1.18.31-1.69.52-.89.93-1.16.88-.4,1.39-.4c.38,0,.71.08,1,.24s.53.36.71.62v-3.08h1.05v8.59h-.98ZM858.11,436.51c0,.8.17,1.39.5,1.79s.73.59,1.19.59.85-.19,1.17-.57.48-.95.48-1.73c0-.85-.16-1.48-.49-1.88s-.73-.6-1.21-.6-.86.19-1.17.57-.47.99-.47,1.81Z"/>
    <path class="cls-1" d="M758.95,453.25c-.39.33-.77.57-1.13.7s-.75.21-1.16.21c-.68,0-1.21-.17-1.58-.5s-.55-.76-.55-1.28c0-.3.07-.58.21-.83s.32-.45.54-.61.48-.27.76-.35c.21-.05.52-.11.94-.16.85-.1,1.48-.22,1.88-.36,0-.14,0-.24,0-.28,0-.43-.1-.73-.3-.91-.27-.24-.67-.36-1.2-.36-.5,0-.86.09-1.1.26s-.41.48-.52.92l-1.03-.14c.09-.44.25-.8.46-1.07s.53-.48.93-.63.88-.22,1.41-.22.96.06,1.29.19.58.28.73.47.27.43.33.72c.04.18.05.5.05.97v1.41c0,.98.02,1.6.07,1.86s.13.51.27.75h-1.1c-.11-.22-.18-.47-.21-.77ZM758.87,450.9c-.38.16-.96.29-1.72.4-.43.06-.74.13-.92.21s-.32.19-.42.34-.15.32-.15.5c0,.28.11.52.32.7s.52.28.93.28.77-.09,1.08-.27.55-.42.7-.73c.11-.24.17-.59.17-1.05v-.39Z"/>
    <path class="cls-1" d="M765.63,454.02v-.91c-.48.7-1.14,1.05-1.97,1.05-.37,0-.71-.07-1.03-.21s-.55-.32-.71-.53-.26-.47-.33-.78c-.04-.21-.06-.54-.06-.98v-3.86h1.05v3.45c0,.55.02.92.06,1.11.07.28.21.5.42.65s.48.24.8.24.61-.08.89-.24.47-.38.59-.66.17-.68.17-1.22v-3.33h1.05v6.22h-.94Z"/>
    <path class="cls-1" d="M768.47,454.02v-5.4h-.93v-.82h.93v-.66c0-.42.04-.73.11-.93.1-.27.28-.5.54-.67s.61-.25,1.08-.25c.3,0,.62.04.98.11l-.16.92c-.22-.04-.43-.06-.62-.06-.32,0-.55.07-.68.21s-.2.39-.2.77v.57h1.21v.82h-1.21v5.4h-1.05Z"/>
    <path class="cls-1" d="M775.02,454.02v-8.59h6.21v1.01h-5.07v2.63h4.75v1.01h-4.75v2.92h5.27v1.01h-6.41Z"/>
    <path class="cls-1" d="M782.99,454.02v-8.59h3.24c.57,0,1.01.03,1.31.08.42.07.78.2,1.06.4s.51.47.69.83.26.75.26,1.17c0,.73-.23,1.35-.7,1.85s-1.3.76-2.52.76h-2.2v3.49h-1.14ZM784.12,449.51h2.22c.73,0,1.26-.14,1.56-.41s.46-.66.46-1.15c0-.36-.09-.67-.27-.92s-.42-.42-.72-.51c-.19-.05-.54-.08-1.06-.08h-2.2v3.07Z"/>
    <path class="cls-1" d="M790.93,454.02v-8.59h1.14v4.26l4.27-4.26h1.54l-3.6,3.48,3.76,5.11h-1.5l-3.06-4.35-1.41,1.37v2.98h-1.14Z"/>
    <path class="cls-1" d="M801.77,450.91c0-1.15.32-2.01.96-2.56.54-.46,1.19-.69,1.96-.69.86,0,1.55.28,2.1.84s.81,1.33.81,2.32c0,.8-.12,1.43-.36,1.89s-.59.82-1.05,1.07-.96.38-1.5.38c-.87,0-1.58-.28-2.11-.84s-.81-1.36-.81-2.41ZM802.85,450.91c0,.8.17,1.39.52,1.79s.79.59,1.31.59.96-.2,1.31-.6.52-1.01.52-1.82c0-.77-.17-1.35-.52-1.75s-.78-.59-1.3-.59-.96.2-1.31.59-.52.99-.52,1.79Z"/>
    <path class="cls-1" d="M812.86,454.02v-.79c-.39.62-.97.93-1.74.93-.5,0-.95-.14-1.37-.41s-.74-.66-.97-1.15-.34-1.05-.34-1.69.1-1.18.31-1.69.52-.89.93-1.16.88-.4,1.39-.4c.38,0,.71.08,1,.24s.53.36.71.62v-3.08h1.05v8.59h-.98ZM809.52,450.91c0,.8.17,1.39.5,1.79s.73.59,1.19.59.85-.19,1.17-.57.48-.95.48-1.73c0-.85-.16-1.48-.49-1.88s-.73-.6-1.21-.6-.86.19-1.17.57-.47.99-.47,1.81Z"/>
    <path class="cls-1" d="M819.74,452.02l1.09.13c-.17.64-.49,1.13-.96,1.48s-1.06.53-1.78.53c-.91,0-1.63-.28-2.17-.84s-.8-1.35-.8-2.36.27-1.86.81-2.44,1.24-.87,2.1-.87,1.51.28,2.04.85.79,1.36.79,2.39c0,.06,0,.16,0,.28h-4.64c.04.68.23,1.21.58,1.57s.78.54,1.3.54c.39,0,.72-.1.99-.3s.49-.53.65-.97ZM816.28,450.31h3.47c-.05-.52-.18-.92-.4-1.18-.34-.41-.77-.61-1.31-.61-.48,0-.89.16-1.22.49s-.51.76-.55,1.3Z"/>
    <path class="cls-1" d="M822.13,454.02v-6.22h.95v.94c.24-.44.47-.73.67-.87s.43-.21.68-.21c.36,0,.72.11,1.08.34l-.36.98c-.26-.15-.52-.23-.77-.23-.23,0-.44.07-.62.21s-.31.33-.39.58c-.12.38-.18.79-.18,1.23v3.26h-1.05Z"/>
    <path class="cls-1" d="M829.54,454.02v-8.59h3.22c.66,0,1.18.09,1.58.26s.71.44.93.8.34.74.34,1.13c0,.37-.1.71-.3,1.04s-.5.59-.9.79c.52.15.92.41,1.2.78s.42.8.42,1.3c0,.4-.08.78-.25,1.12s-.38.61-.63.8-.56.33-.94.42-.84.14-1.39.14h-3.28ZM830.67,449.04h1.86c.5,0,.87-.03,1.08-.1.29-.09.51-.23.65-.43s.22-.45.22-.75c0-.29-.07-.54-.21-.75s-.33-.37-.59-.45-.69-.12-1.31-.12h-1.72v2.6ZM830.67,453.01h2.14c.37,0,.62-.01.77-.04.26-.05.48-.12.66-.23s.32-.27.43-.48.17-.45.17-.72c0-.32-.08-.6-.25-.83s-.39-.4-.68-.5-.71-.14-1.26-.14h-1.99v2.95Z"/>
    <path class="cls-1" d="M837.58,454.02v-8.59h3.24c.57,0,1.01.03,1.31.08.42.07.78.2,1.06.4s.51.47.69.83.26.75.26,1.17c0,.73-.23,1.35-.7,1.85s-1.3.76-2.52.76h-2.2v3.49h-1.14ZM838.71,449.51h2.22c.73,0,1.26-.14,1.56-.41s.46-.66.46-1.15c0-.36-.09-.67-.27-.92s-.42-.42-.72-.51c-.19-.05-.54-.08-1.06-.08h-2.2v3.07Z"/>
    <path class="cls-1" d="M845.53,454.02v-8.59h1.71l2.03,6.08c.19.57.32.99.41,1.27.1-.31.25-.77.46-1.38l2.06-5.98h1.53v8.59h-1.1v-7.19l-2.5,7.19h-1.03l-2.48-7.31v7.31h-1.1Z"/>
    <path class="cls-1" d="M855.54,454.02v-8.59h1.17l4.51,6.74v-6.74h1.09v8.59h-1.17l-4.51-6.75v6.75h-1.09Z"/>
  </g>
  <text class="cls-14" transform="translate(596.07 63.28)"><tspan x="0" y="0">Wertschöpfungskettendiagramm</tspan></text>
  <g>
    <polygon class="cls-9" points="796.95 300.12 922.59 300.12 933.15 320.52 922.59 340.92 796.95 340.92 807.51 320.52 796.95 300.12"/>
    <g>
      <path d="M835.65,318.52v-8.59h5.79v1.01h-4.66v2.66h4.03v1.01h-4.03v3.9h-1.14Z"/>
      <path d="M847.07,316.52l1.09.13c-.17.64-.49,1.13-.96,1.48s-1.06.53-1.78.53c-.91,0-1.63-.28-2.17-.84s-.8-1.35-.8-2.36.27-1.86.81-2.44,1.24-.87,2.1-.87,1.51.28,2.04.85.79,1.36.79,2.39c0,.06,0,.16,0,.28h-4.64c.04.68.23,1.21.58,1.57s.78.54,1.3.54c.39,0,.72-.1.99-.3s.49-.53.65-.97ZM843.6,314.81h3.47c-.05-.52-.18-.92-.4-1.18-.34-.41-.77-.61-1.31-.61-.48,0-.89.16-1.22.49s-.51.76-.55,1.3Z"/>
      <path d="M849.53,318.52v-6.22h.95v.94c.24-.44.47-.73.67-.87s.43-.21.68-.21c.36,0,.72.11,1.08.34l-.36.98c-.26-.15-.52-.23-.77-.23-.23,0-.44.07-.62.21s-.31.33-.39.58c-.12.38-.18.79-.18,1.23v3.26h-1.05Z"/>
      <path d="M855.89,317.58l.15.93c-.3.06-.56.09-.8.09-.38,0-.68-.06-.89-.18s-.36-.28-.45-.48-.13-.61-.13-1.25v-3.58h-.77v-.82h.77v-1.54l1.05-.63v2.17h1.06v.82h-1.06v3.64c0,.3.02.49.06.58s.1.15.18.21.2.08.36.08c.12,0,.27-.01.46-.04Z"/>
      <path d="M856.88,311.14v-1.21h1.05v1.21h-1.05ZM856.88,318.52v-6.22h1.05v6.22h-1.05Z"/>
      <path d="M859.38,319.04l1.03.15c.04.32.16.55.36.69.26.2.62.29,1.07.29.49,0,.87-.1,1.13-.29s.45-.47.54-.82c.05-.21.08-.67.08-1.35-.46.54-1.04.81-1.72.81-.86,0-1.52-.31-1.99-.93s-.7-1.36-.7-2.22c0-.59.11-1.14.32-1.64s.53-.89.93-1.16.89-.41,1.44-.41c.73,0,1.34.3,1.82.89v-.75h.97v5.38c0,.97-.1,1.66-.3,2.06s-.51.72-.94.96-.95.35-1.58.35c-.74,0-1.34-.17-1.8-.5s-.68-.84-.66-1.51ZM860.25,315.3c0,.82.16,1.41.49,1.79s.73.56,1.22.56.89-.19,1.22-.56.49-.96.49-1.75-.17-1.34-.51-1.72-.75-.58-1.22-.58-.87.19-1.2.57-.49.95-.49,1.7Z"/>
      <path d="M870.31,318.52v-.91c-.48.7-1.14,1.05-1.97,1.05-.37,0-.71-.07-1.03-.21s-.55-.32-.71-.53-.26-.47-.33-.78c-.04-.21-.06-.54-.06-.98v-3.86h1.05v3.45c0,.55.02.92.06,1.11.07.28.21.5.42.65s.48.24.8.24.61-.08.89-.24.47-.38.59-.66.17-.68.17-1.22v-3.33h1.05v6.22h-.94Z"/>
      <path d="M872.91,318.52v-6.22h.95v.88c.46-.68,1.12-1.03,1.98-1.03.38,0,.72.07,1.03.2s.55.31.71.53.27.48.33.78c.04.2.06.54.06,1.03v3.83h-1.05v-3.79c0-.43-.04-.75-.12-.96s-.23-.38-.44-.51-.45-.19-.74-.19c-.45,0-.84.14-1.16.43s-.49.83-.49,1.62v3.4h-1.05Z"/>
      <path d="M879.38,319.04l1.03.15c.04.32.16.55.36.69.26.2.62.29,1.07.29.49,0,.87-.1,1.13-.29s.45-.47.54-.82c.05-.21.08-.67.08-1.35-.46.54-1.04.81-1.72.81-.86,0-1.52-.31-1.99-.93s-.7-1.36-.7-2.22c0-.59.11-1.14.32-1.64s.53-.89.93-1.16.89-.41,1.44-.41c.73,0,1.34.3,1.82.89v-.75h.97v5.38c0,.97-.1,1.66-.3,2.06s-.51.72-.94.96-.95.35-1.58.35c-.74,0-1.34-.17-1.8-.5s-.68-.84-.66-1.51ZM880.25,315.3c0,.82.16,1.41.49,1.79s.73.56,1.22.56.89-.19,1.22-.56.49-.96.49-1.75-.17-1.34-.51-1.72-.75-.58-1.22-.58-.87.19-1.2.57-.49.95-.49,1.7Z"/>
      <path d="M885.81,316.66l1.04-.16c.06.42.22.74.49.96s.64.33,1.12.33.84-.1,1.08-.3.35-.43.35-.69c0-.24-.1-.43-.31-.56-.14-.09-.5-.21-1.08-.36-.77-.2-1.31-.36-1.61-.51s-.53-.34-.68-.59-.23-.53-.23-.83c0-.28.06-.53.19-.77s.3-.43.52-.59c.16-.12.39-.22.67-.31s.59-.13.91-.13c.49,0,.92.07,1.29.21s.64.33.82.57.3.56.36.96l-1.03.14c-.05-.32-.18-.57-.41-.75s-.54-.27-.95-.27c-.48,0-.83.08-1.04.24s-.31.35-.31.56c0,.14.04.26.13.37.09.11.22.21.4.28.11.04.42.13.93.27.75.2,1.27.36,1.56.49s.53.31.69.55.25.54.25.9-.1.68-.31.99-.5.55-.89.72-.82.25-1.31.25c-.81,0-1.42-.17-1.85-.5s-.69-.83-.81-1.49Z"/>
      <path d="M891.82,315.94v-1.06h3.24v1.06h-3.24Z"/>
      <path d="M838.73,331.06l1.04-.16c.06.42.22.74.49.96s.64.33,1.12.33.84-.1,1.08-.3.35-.43.35-.69c0-.24-.1-.43-.31-.56-.14-.09-.5-.21-1.08-.36-.77-.2-1.31-.36-1.61-.51s-.53-.34-.68-.59-.23-.53-.23-.83c0-.28.06-.53.19-.77s.3-.43.52-.59c.16-.12.39-.22.67-.31s.59-.13.91-.13c.49,0,.92.07,1.29.21s.64.33.82.57.3.56.36.96l-1.03.14c-.05-.32-.18-.57-.41-.75s-.54-.27-.95-.27c-.48,0-.83.08-1.04.24s-.31.35-.31.56c0,.14.04.26.13.37.09.11.22.21.4.28.11.04.42.13.93.27.75.2,1.27.36,1.56.49s.53.31.69.55.25.54.25.9-.1.68-.31.99-.5.55-.89.72-.82.25-1.31.25c-.81,0-1.42-.17-1.85-.5s-.69-.83-.81-1.49Z"/>
      <path d="M847.46,331.98l.15.93c-.3.06-.56.09-.8.09-.38,0-.68-.06-.89-.18s-.36-.28-.45-.48-.13-.61-.13-1.25v-3.58h-.77v-.82h.77v-1.54l1.05-.63v2.17h1.06v.82h-1.06v3.64c0,.3.02.49.06.58s.1.15.18.21.2.08.36.08c.12,0,.27-.01.46-.04Z"/>
      <path d="M852.75,330.92l1.09.13c-.17.64-.49,1.13-.96,1.48s-1.06.53-1.78.53c-.91,0-1.63-.28-2.17-.84s-.8-1.35-.8-2.36.27-1.86.81-2.44,1.24-.87,2.1-.87,1.51.28,2.04.85.79,1.36.79,2.39c0,.06,0,.16,0,.28h-4.64c.04.68.23,1.21.58,1.57s.78.54,1.3.54c.39,0,.72-.1.99-.3s.49-.53.65-.97ZM849.28,329.21h3.47c-.05-.52-.18-.92-.4-1.18-.34-.41-.77-.61-1.31-.61-.48,0-.89.16-1.22.49s-.51.76-.55,1.3Z"/>
      <path d="M859.24,332.92v-.91c-.48.7-1.14,1.05-1.97,1.05-.37,0-.71-.07-1.03-.21s-.55-.32-.71-.53-.26-.47-.33-.78c-.04-.21-.06-.54-.06-.98v-3.86h1.05v3.45c0,.55.02.92.06,1.11.07.28.21.5.42.65s.48.24.8.24.61-.08.89-.24.47-.38.59-.66.17-.68.17-1.22v-3.33h1.05v6.22h-.94Z"/>
      <path d="M866.09,330.92l1.09.13c-.17.64-.49,1.13-.96,1.48s-1.06.53-1.78.53c-.91,0-1.63-.28-2.17-.84s-.8-1.35-.8-2.36.27-1.86.81-2.44,1.24-.87,2.1-.87,1.51.28,2.04.85.79,1.36.79,2.39c0,.06,0,.16,0,.28h-4.64c.04.68.23,1.21.58,1.57s.78.54,1.3.54c.39,0,.72-.1.99-.3s.49-.53.65-.97ZM862.63,329.21h3.47c-.05-.52-.18-.92-.4-1.18-.34-.41-.77-.61-1.31-.61-.48,0-.89.16-1.22.49s-.51.76-.55,1.3Z"/>
      <path d="M868.5,332.92v-6.22h.95v.94c.24-.44.47-.73.67-.87s.43-.21.68-.21c.36,0,.72.11,1.08.34l-.36.98c-.26-.15-.52-.23-.77-.23-.23,0-.44.07-.62.21s-.31.33-.39.58c-.12.38-.18.79-.18,1.23v3.26h-1.05Z"/>
      <path d="M876.58,332.92v-.91c-.48.7-1.14,1.05-1.97,1.05-.37,0-.71-.07-1.03-.21s-.55-.32-.71-.53-.26-.47-.33-.78c-.04-.21-.06-.54-.06-.98v-3.86h1.05v3.45c0,.55.02.92.06,1.11.07.28.21.5.42.65s.48.24.8.24.61-.08.89-.24.47-.38.59-.66.17-.68.17-1.22v-3.33h1.05v6.22h-.94Z"/>
      <path d="M879.18,332.92v-6.22h.95v.88c.46-.68,1.12-1.03,1.98-1.03.38,0,.72.07,1.03.2s.55.31.71.53.27.48.33.78c.04.2.06.54.06,1.03v3.83h-1.05v-3.79c0-.43-.04-.75-.12-.96s-.23-.38-.44-.51-.45-.19-.74-.19c-.45,0-.84.14-1.16.43s-.49.83-.49,1.62v3.4h-1.05Z"/>
      <path d="M885.66,333.44l1.03.15c.04.32.16.55.36.69.26.2.62.29,1.07.29.49,0,.87-.1,1.13-.29s.45-.47.54-.82c.05-.21.08-.67.08-1.35-.46.54-1.04.81-1.72.81-.86,0-1.52-.31-1.99-.93s-.7-1.36-.7-2.22c0-.59.11-1.14.32-1.64s.53-.89.93-1.16.89-.41,1.44-.41c.73,0,1.34.3,1.82.89v-.75h.97v5.38c0,.97-.1,1.66-.3,2.06s-.51.72-.94.96-.95.35-1.58.35c-.74,0-1.34-.17-1.8-.5s-.68-.84-.66-1.51ZM886.53,329.7c0,.82.16,1.41.49,1.79s.73.56,1.22.56.89-.19,1.22-.56.49-.96.49-1.75-.17-1.34-.51-1.72-.75-.58-1.22-.58-.87.19-1.2.57-.49.95-.49,1.7Z"/>
    </g>
  </g>
  <g>
    <circle class="cls-13" cx="864.88" cy="321.15" r="33.43"/>
    <rect class="cls-13" x="908.67" y="350.1" width="18.68" height="48.37" rx="9.34" ry="9.34" transform="translate(4.22 758.76) rotate(-45)"/>
    <line class="cls-13" x1="900.91" y1="357.18" x2="888.52" y2="344.79"/>
  </g>
  <g>
    <path class="cls-12" d="M910.41,396.67c-10.47,8.94-22.28,16.35-35.08,21.91"/>
    <polygon class="cls-1" points="875.01 415.98 872.02 419.97 876.97 420.56 875.01 415.98"/>
  </g>
  <g>
    <line class="cls-11" x1="697.15" y1="163.02" x2="734.91" y2="163.02"/>
    <polygon points="733.45 168.01 742.08 163.02 733.45 158.03 733.45 168.01"/>
  </g>
  <g>
    <line class="cls-11" x1="890.95" y1="163.02" x2="928.71" y2="163.02"/>
    <polygon points="927.25 168.01 935.88 163.02 927.25 158.03 927.25 168.01"/>
  </g>
  <g>
    <polyline class="cls-11" points="560.5 190.32 560.5 381.72 596.33 381.72"/>
    <polygon points="594.88 386.71 603.51 381.72 594.88 376.73 594.88 386.71"/>
  </g>
  <g>
    <line class="cls-11" x1="560.5" y1="259.92" x2="596.33" y2="259.92"/>
    <polygon points="594.88 264.91 603.51 259.92 594.88 254.93 594.88 264.91"/>
  </g>
  <g>
    <line class="cls-11" x1="560.5" y1="320.52" x2="596.33" y2="320.52"/>
    <polygon points="594.88 325.51 603.51 320.52 594.88 315.53 594.88 325.51"/>
  </g>
  <g>
    <line class="cls-11" x1="755.76" y1="259.92" x2="791.59" y2="259.92"/>
    <polygon points="790.13 264.91 798.77 259.92 790.13 254.93 790.13 264.91"/>
  </g>
  <g>
    <polyline class="cls-11" points="791.59 321.15 755.76 321.15 755.76 190.32"/>
    <polygon points="790.13 316.16 798.77 321.15 790.13 326.14 790.13 316.16"/>
  </g>
  <rect class="cls-11" x="739.15" y="190.32" width="16.35" height="10.9"/>
</svg>