<?xml version="1.0" encoding="UTF-8"?>
<svg id="Ebene_1" data-name="Ebene 1" xmlns="http://www.w3.org/2000/svg" viewBox="0 0 988 425">
  <defs>
    <style>
      .cls-1 {
        fill: #fff;
      }

      .cls-1, .cls-2 {
        stroke: #000;
      }

      .cls-1, .cls-2, .cls-3 {
        stroke-miterlimit: 8;
        stroke-width: 2px;
      }

      .cls-2, .cls-3 {
        fill: none;
      }

      .cls-4 {
        font-family: CourierNewPS-BoldMT, 'Courier New';
        font-size: 17.28px;
        font-weight: 700;
        letter-spacing: 0em;
      }

      .cls-3 {
        stroke: #0333ff;
      }
    </style>
  </defs>
  <text class="cls-4" transform="translate(110.95 43.49)"><tspan x="0" y="0">Ereignisse sind nicht entscheidungsrelevant (lösen keine Entscheidung aus)</tspan></text>
  <g>
    <polygon class="cls-1" points="196.82 169.6 216.91 146.65 293.74 146.65 313.82 169.6 293.74 192.55 216.91 192.55 196.82 169.6"/>
    <rect class="cls-1" x="86.12" y="273.55" width="117.9" height="46.8" rx="7.8" ry="7.8"/>
    <rect class="cls-1" x="308.87" y="273.55" width="117.9" height="46.8" rx="7.8" ry="7.8"/>
    <circle class="cls-1" cx="254.87" cy="232.91" r="17.5"/>
    <path class="cls-2" d="M266.4,220.76l-11.78,21.13c-6.32-11.12-12.12-21.76-12.12-21.76"/>
    <g>
      <line class="cls-2" x1="254.87" y1="193" x2="254.87" y2="208.23"/>
      <polygon points="249.89 206.77 254.87 215.41 259.86 206.77 249.89 206.77"/>
    </g>
    <g>
      <polyline class="cls-2" points="236.87 233.05 145.07 233.05 145.07 266.82"/>
      <polygon points="140.09 265.37 145.07 274 150.06 265.37 140.09 265.37"/>
    </g>
    <g>
      <polyline class="cls-2" points="272.37 233.05 365.57 233.05 365.57 266.82"/>
      <polygon points="360.59 265.37 365.57 274 370.56 265.37 360.59 265.37"/>
    </g>
  </g>
  <g>
    <g>
      <circle class="cls-1" cx="730.68" cy="233.05" r="17.5"/>
      <line class="cls-2" x1="718.08" y1="220.45" x2="743.28" y2="245.65"/>
      <line class="cls-2" x1="718.08" y1="245.65" x2="743.28" y2="220.45"/>
    </g>
    <g>
      <polygon class="cls-1" points="672.63 169.6 692.71 146.65 769.54 146.65 789.63 169.6 769.54 192.55 692.71 192.55 672.63 169.6"/>
      <rect class="cls-1" x="561.93" y="273.55" width="117.9" height="46.8" rx="7.8" ry="7.8"/>
      <rect class="cls-1" x="784.68" y="273.55" width="117.9" height="46.8" rx="7.8" ry="7.8"/>
      <g>
        <line class="cls-2" x1="730.68" y1="193" x2="730.68" y2="208.37"/>
        <polygon points="725.69 206.92 730.68 215.55 735.66 206.92 725.69 206.92"/>
      </g>
      <g>
        <polyline class="cls-2" points="712.68 233.05 620.88 233.05 620.88 266.82"/>
        <polygon points="615.89 265.37 620.88 274 625.86 265.37 615.89 265.37"/>
      </g>
      <g>
        <polyline class="cls-2" points="748.18 233.05 841.38 233.05 841.38 266.82"/>
        <polygon points="836.39 265.37 841.38 274 846.36 265.37 836.39 265.37"/>
      </g>
    </g>
  </g>
  <line class="cls-3" x1="41.84" y1="344.45" x2="467.06" y2="122.55"/>
  <line class="cls-3" x1="467.06" y1="344.45" x2="41.84" y2="122.55"/>
  <line class="cls-3" x1="518.52" y1="344.45" x2="943.74" y2="122.55"/>
  <line class="cls-3" x1="943.74" y1="344.45" x2="518.52" y2="122.55"/>
</svg>