<?xml version="1.0" encoding="UTF-8"?>
<svg id="Ebene_1" data-name="Ebene 1" xmlns="http://www.w3.org/2000/svg" viewBox="0 0 988 525">
  <defs>
    <style>
      .cls-1 {
        letter-spacing: 0em;
      }

      .cls-2 {
        letter-spacing: 0em;
      }

      .cls-3 {
        letter-spacing: -.02em;
      }

      .cls-4 {
        letter-spacing: 0em;
      }

      .cls-5 {
        letter-spacing: -.02em;
      }

      .cls-6 {
        letter-spacing: .01em;
      }

      .cls-7 {
        letter-spacing: -.01em;
      }

      .cls-8 {
        letter-spacing: 0em;
      }

      .cls-9 {
        letter-spacing: 0em;
      }

      .cls-10 {
        letter-spacing: 0em;
      }

      .cls-11 {
        letter-spacing: 0em;
      }

      .cls-12 {
        letter-spacing: .03em;
      }

      .cls-13 {
        letter-spacing: -.02em;
      }

      .cls-14 {
        letter-spacing: -.02em;
      }

      .cls-15 {
        letter-spacing: -.01em;
      }

      .cls-16 {
        letter-spacing: -.01em;
      }

      .cls-17 {
        letter-spacing: 0em;
      }

      .cls-18 {
        letter-spacing: 0em;
      }

      .cls-19 {
        letter-spacing: 0em;
      }

      .cls-20 {
        letter-spacing: 0em;
      }

      .cls-21 {
        letter-spacing: 0em;
      }

      .cls-22 {
        letter-spacing: -.01em;
      }

      .cls-23 {
        letter-spacing: 0em;
      }

      .cls-24 {
        letter-spacing: 0em;
      }

      .cls-25 {
        letter-spacing: -.01em;
      }

      .cls-26 {
        letter-spacing: 0em;
      }

      .cls-27 {
        letter-spacing: -.01em;
      }

      .cls-28 {
        letter-spacing: .01em;
      }

      .cls-29 {
        letter-spacing: 0em;
      }

      .cls-30 {
        letter-spacing: 0em;
      }

      .cls-31 {
        letter-spacing: 0em;
      }

      .cls-32 {
        letter-spacing: -.02em;
      }

      .cls-33 {
        font-family: ArialMT, Arial;
        font-size: 12px;
      }

      .cls-34 {
        letter-spacing: 0em;
      }

      .cls-35 {
        letter-spacing: 0em;
      }

      .cls-36 {
        letter-spacing: -.03em;
      }

      .cls-37 {
        letter-spacing: -.02em;
      }

      .cls-38 {
        letter-spacing: -.02em;
      }

      .cls-39 {
        letter-spacing: 0em;
      }

      .cls-40 {
        letter-spacing: .01em;
      }

      .cls-41 {
        letter-spacing: 0em;
      }

      .cls-42 {
        fill: #0333ff;
      }

      .cls-42, .cls-43 {
        font-family: Arial-BoldMT, Arial;
        font-size: 16px;
        font-weight: 700;
      }

      .cls-44 {
        letter-spacing: 0em;
      }

      .cls-45 {
        letter-spacing: 0em;
      }

      .cls-46 {
        letter-spacing: 0em;
      }

      .cls-47 {
        letter-spacing: 0em;
      }

      .cls-48 {
        letter-spacing: 0em;
      }

      .cls-49 {
        letter-spacing: 0em;
      }

      .cls-50 {
        letter-spacing: .01em;
      }

      .cls-51 {
        letter-spacing: -.01em;
      }

      .cls-52 {
        letter-spacing: 0em;
      }

      .cls-53 {
        letter-spacing: 0em;
      }

      .cls-54 {
        stroke: #0333ff;
      }

      .cls-54, .cls-55, .cls-56 {
        fill: none;
        stroke-miterlimit: 10;
      }

      .cls-57 {
        letter-spacing: 0em;
      }

      .cls-58 {
        letter-spacing: 0em;
      }

      .cls-59 {
        letter-spacing: 0em;
      }

      .cls-60 {
        letter-spacing: 0em;
      }

      .cls-61 {
        letter-spacing: 0em;
      }

      .cls-62 {
        letter-spacing: 0em;
      }

      .cls-63 {
        letter-spacing: 0em;
      }

      .cls-64 {
        letter-spacing: 0em;
      }

      .cls-65 {
        letter-spacing: 0em;
      }

      .cls-66 {
        letter-spacing: -.05em;
      }

      .cls-67 {
        letter-spacing: 0em;
      }

      .cls-68 {
        letter-spacing: -.02em;
      }

      .cls-69 {
        letter-spacing: 0em;
      }

      .cls-70 {
        letter-spacing: -.01em;
      }

      .cls-71 {
        stroke-width: 0px;
      }

      .cls-71, .cls-72 {
        fill: #000;
      }

      .cls-73 {
        letter-spacing: -.02em;
      }

      .cls-74 {
        letter-spacing: 0em;
      }

      .cls-75 {
        letter-spacing: -.02em;
      }

      .cls-76 {
        letter-spacing: -.02em;
      }

      .cls-77 {
        letter-spacing: 0em;
      }

      .cls-78 {
        letter-spacing: 0em;
      }

      .cls-79 {
        letter-spacing: .03em;
      }

      .cls-80 {
        letter-spacing: -.05em;
      }

      .cls-81 {
        letter-spacing: 0em;
      }

      .cls-82 {
        letter-spacing: -.01em;
      }

      .cls-83 {
        letter-spacing: -.03em;
      }

      .cls-84 {
        letter-spacing: -.01em;
      }

      .cls-85 {
        letter-spacing: 0em;
      }

      .cls-86 {
        letter-spacing: 0em;
      }

      .cls-87 {
        letter-spacing: 0em;
      }

      .cls-88 {
        letter-spacing: -.01em;
      }

      .cls-89 {
        letter-spacing: 0em;
      }

      .cls-90 {
        letter-spacing: 0em;
      }

      .cls-91 {
        letter-spacing: 0em;
      }

      .cls-92 {
        letter-spacing: 0em;
      }

      .cls-93 {
        letter-spacing: 0em;
      }

      .cls-94 {
        letter-spacing: .03em;
      }

      .cls-95 {
        letter-spacing: .03em;
      }

      .cls-96 {
        letter-spacing: 0em;
      }

      .cls-97 {
        letter-spacing: 0em;
      }

      .cls-98 {
        letter-spacing: -.02em;
      }

      .cls-99 {
        letter-spacing: 0em;
      }

      .cls-100 {
        letter-spacing: 0em;
      }

      .cls-101 {
        letter-spacing: 0em;
      }

      .cls-102 {
        letter-spacing: 0em;
      }

      .cls-55 {
        stroke: #000;
      }

      .cls-103 {
        letter-spacing: 0em;
      }

      .cls-104 {
        letter-spacing: 0em;
      }

      .cls-105 {
        letter-spacing: 0em;
      }

      .cls-106 {
        letter-spacing: 0em;
      }

      .cls-107 {
        letter-spacing: -.01em;
      }

      .cls-108 {
        letter-spacing: 0em;
      }

      .cls-109 {
        letter-spacing: 0em;
      }

      .cls-110 {
        letter-spacing: .02em;
      }

      .cls-111 {
        letter-spacing: 0em;
      }

      .cls-112 {
        letter-spacing: 0em;
      }

      .cls-113 {
        letter-spacing: .01em;
      }

      .cls-114 {
        letter-spacing: -.01em;
      }

      .cls-115 {
        letter-spacing: 0em;
      }

      .cls-116 {
        letter-spacing: -.02em;
      }

      .cls-117 {
        letter-spacing: 0em;
      }

      .cls-118 {
        letter-spacing: 0em;
      }

      .cls-119 {
        letter-spacing: -.02em;
      }

      .cls-120 {
        letter-spacing: 0em;
      }

      .cls-121 {
        letter-spacing: -.02em;
      }

      .cls-122 {
        letter-spacing: 0em;
      }

      .cls-123 {
        letter-spacing: -.06em;
      }

      .cls-124 {
        letter-spacing: 0em;
      }

      .cls-125 {
        letter-spacing: 0em;
      }

      .cls-126 {
        letter-spacing: 0em;
      }

      .cls-127 {
        letter-spacing: 0em;
      }

      .cls-128 {
        letter-spacing: 0em;
      }

      .cls-129 {
        letter-spacing: 0em;
      }

      .cls-130 {
        letter-spacing: -.07em;
      }

      .cls-131 {
        letter-spacing: .02em;
      }

      .cls-132 {
        letter-spacing: 0em;
      }

      .cls-133 {
        letter-spacing: 0em;
      }

      .cls-56 {
        stroke: #b1b1b1;
      }

      .cls-134 {
        letter-spacing: 0em;
      }

      .cls-135 {
        letter-spacing: -.03em;
      }

      .cls-136 {
        letter-spacing: 0em;
      }

      .cls-137 {
        letter-spacing: -.01em;
      }

      .cls-138 {
        letter-spacing: 0em;
      }

      .cls-139 {
        letter-spacing: 0em;
      }

      .cls-140 {
        letter-spacing: .02em;
      }

      .cls-141 {
        letter-spacing: 0em;
      }

      .cls-142 {
        letter-spacing: 0em;
      }

      .cls-143 {
        letter-spacing: 0em;
      }

      .cls-144 {
        letter-spacing: 0em;
      }

      .cls-145 {
        letter-spacing: 0em;
      }

      .cls-146 {
        letter-spacing: -.01em;
      }

      .cls-147 {
        letter-spacing: 0em;
      }

      .cls-148 {
        letter-spacing: 0em;
      }
    </style>
  </defs>
  <rect class="cls-56" x="416.43" y="62.5" width="150" height="80"/>
  <rect class="cls-56" x="216.43" y="382.5" width="550" height="80"/>
  <rect class="cls-54" x="266.43" y="302.5" width="450" height="80"/>
  <rect class="cls-54" x="313.94" y="222.5" width="350" height="80"/>
  <rect class="cls-54" x="366.43" y="142.5" width="250" height="80"/>
  <text class="cls-72" transform="translate(464.87 91.02)"><tspan class="cls-43"><tspan class="cls-121" x="0" y="0">C</tspan><tspan class="cls-111" x="11.29" y="0">l</tspan><tspan class="cls-21" x="15.65" y="0">i</tspan><tspan class="cls-81" x="20.15" y="0">e</tspan><tspan class="cls-117" x="29" y="0">n</tspan><tspan class="cls-50" x="38.73" y="0">t</tspan><tspan x="44.23" y="0">s</tspan></tspan><tspan class="cls-33"><tspan class="cls-98" x="-10.01" y="18.4">w</tspan><tspan class="cls-46" x="-1.53" y="18.4">e</tspan><tspan x="5.08" y="18.4">b </tspan><tspan class="cls-63" x="15.09" y="18.4">b</tspan><tspan class="cls-102" x="21.71" y="18.4">r</tspan><tspan class="cls-22" x="25.65" y="18.4">o</tspan><tspan class="cls-44" x="32.19" y="18.4">w</tspan><tspan class="cls-46" x="40.78" y="18.4">s</tspan><tspan class="cls-128" x="46.71" y="18.4">e</tspan><tspan class="cls-130" x="53.32" y="18.4">r</tspan><tspan x="56.47" y="18.4">, </tspan></tspan><tspan class="cls-33"><tspan class="cls-31" x="-15.19" y="32.8">mo</tspan><tspan class="cls-29" x="1.41" y="32.8">b</tspan><tspan class="cls-44" x="8.01" y="32.8">i</tspan><tspan class="cls-115" x="10.6" y="32.8">l</tspan><tspan x="13.21" y="32.8">e </tspan><tspan class="cls-142" x="23.22" y="32.8">a</tspan><tspan class="cls-9" x="29.8" y="32.8">p</tspan><tspan class="cls-135" x="36.42" y="32.8">p</tspan><tspan x="42.7" y="32.8">, </tspan><tspan class="cls-37" x="49.37" y="32.8">e</tspan><tspan class="cls-84" x="55.86" y="32.8">t</tspan><tspan class="cls-58" x="59.03" y="32.8">c</tspan><tspan x="64.99" y="32.8">.</tspan></tspan></text>
  <text class="cls-72" transform="translate(438.48 178.72)"><tspan class="cls-43"><tspan class="cls-109" x="0" y="0">A</tspan><tspan class="cls-35" x="11.6" y="0">pp</tspan><tspan class="cls-132" x="31.21" y="0">p</tspan><tspan class="cls-111" x="40.99" y="0">l</tspan><tspan class="cls-101" x="45.35" y="0">i</tspan><tspan class="cls-64" x="49.77" y="0">c</tspan><tspan class="cls-30" x="58.76" y="0">a</tspan><tspan class="cls-17" x="67.63" y="0">t</tspan><tspan class="cls-30" x="73.07" y="0">i</tspan><tspan class="cls-90" x="77.49" y="0">o</tspan><tspan x="87.23" y="0">ns</tspan></tspan><tspan class="cls-33"><tspan class="cls-102" x="-41.57" y="18.4">s</tspan><tspan class="cls-15" x="-35.62" y="18.4">o</tspan><tspan class="cls-12" x="-29.08" y="18.4">f</tspan><tspan class="cls-110" x="-25.45" y="18.4">t</tspan><tspan class="cls-88" x="-21.83" y="18.4">w</tspan><tspan class="cls-93" x="-13.33" y="18.4">a</tspan><tspan class="cls-44" x="-6.75" y="18.4">r</tspan><tspan class="cls-3" x="-2.83" y="18.4">e</tspan><tspan x="3.61" y="18.4">, </tspan><tspan class="cls-98" x="10.28" y="18.4">w</tspan><tspan class="cls-46" x="18.76" y="18.4">e</tspan><tspan x="25.37" y="18.4">b </tspan><tspan class="cls-46" x="35.38" y="18.4">s</tspan><tspan class="cls-128" x="41.31" y="18.4">e</tspan><tspan class="cls-94" x="47.93" y="18.4">r</tspan><tspan class="cls-102" x="52.33" y="18.4">v</tspan><tspan class="cls-115" x="58.28" y="18.4">i</tspan><tspan class="cls-139" x="60.89" y="18.4">c</tspan><tspan class="cls-24" x="67.01" y="18.4">e</tspan><tspan class="cls-27" x="73.65" y="18.4">s</tspan><tspan x="79.53" y="18.4">, </tspan><tspan class="cls-19" x="86.19" y="18.4">g</tspan><tspan class="cls-142" x="92.81" y="18.4">a</tspan><tspan class="cls-129" x="99.39" y="18.4">m</tspan><tspan class="cls-120" x="109.34" y="18.4">e</tspan><tspan class="cls-27" x="115.98" y="18.4">s</tspan><tspan x="121.86" y="18.4">, </tspan><tspan class="cls-38" x="128.52" y="18.4">e</tspan><tspan class="cls-84" x="135.01" y="18.4">t</tspan><tspan class="cls-57" x="138.18" y="18.4">c</tspan><tspan x="144.14" y="18.4">.</tspan></tspan></text>
  <text class="cls-72" transform="translate(406.79 258.9)"><tspan class="cls-43"><tspan class="cls-61" x="0" y="0">D</tspan><tspan class="cls-73" x="11.6" y="0">e</tspan><tspan class="cls-116" x="20.16" y="0">v</tspan><tspan class="cls-117" x="28.75" y="0">e</tspan><tspan class="cls-106" x="37.6" y="0">l</tspan><tspan class="cls-125" x="42.03" y="0">o</tspan><tspan class="cls-103" x="51.79" y="0">p</tspan><tspan class="cls-53" x="61.65" y="0">m</tspan><tspan class="cls-141" x="75.92" y="0">e</tspan><tspan class="cls-117" x="84.76" y="0">n</tspan><tspan x="94.5" y="0">t </tspan><tspan class="cls-14" x="104.27" y="0">P</tspan><tspan x="114.62" y="0">l</tspan><tspan class="cls-106" x="119.07" y="0">a</tspan><tspan class="cls-131" x="127.95" y="0">t</tspan><tspan class="cls-47" x="133.58" y="0">f</tspan><tspan class="cls-127" x="138.85" y="0">o</tspan><tspan class="cls-6" x="148.64" y="0">r</tspan><tspan x="155.06" y="0">m</tspan></tspan><tspan class="cls-33"><tspan class="cls-40" x="-76.5" y="18.4">r</tspan><tspan class="cls-2" x="-72.39" y="18.4">u</tspan><tspan class="cls-32" x="-65.83" y="18.4">n</tspan><tspan class="cls-143" x="-59.33" y="18.4">t</tspan><tspan class="cls-145" x="-56.02" y="18.4">i</tspan><tspan class="cls-129" x="-53.45" y="18.4">m</tspan><tspan class="cls-3" x="-43.5" y="18.4">e</tspan><tspan x="-37.06" y="18.4">, </tspan><tspan class="cls-142" x="-30.39" y="18.4">a</tspan><tspan class="cls-9" x="-23.81" y="18.4">p</tspan><tspan class="cls-85" x="-17.19" y="18.4">p</tspan><tspan class="cls-4" x="-10.56" y="18.4">l</tspan><tspan class="cls-115" x="-8.01" y="18.4">i</tspan><tspan class="cls-113" x="-5.4" y="18.4">c</tspan><tspan class="cls-137" x=".74" y="18.4">a</tspan><tspan class="cls-86" x="7.26" y="18.4">ti</tspan><tspan class="cls-60" x="13.21" y="18.4">o</tspan><tspan x="19.85" y="18.4">n </tspan><tspan class="cls-46" x="29.86" y="18.4">s</tspan><tspan class="cls-128" x="35.79" y="18.4">e</tspan><tspan class="cls-95" x="42.41" y="18.4">r</tspan><tspan class="cls-75" x="46.81" y="18.4">v</tspan><tspan class="cls-128" x="52.55" y="18.4">e</tspan><tspan class="cls-130" x="59.17" y="18.4">r</tspan><tspan x="62.31" y="18.4">, </tspan><tspan class="cls-118" x="68.98" y="18.4">d</tspan><tspan class="cls-107" x="75.55" y="18.4">a</tspan><tspan class="cls-108" x="82.07" y="18.4">t</tspan><tspan class="cls-142" x="85.46" y="18.4">a</tspan><tspan class="cls-134" x="92.04" y="18.4">ba</tspan><tspan class="cls-46" x="105.19" y="18.4">s</tspan><tspan class="cls-3" x="111.13" y="18.4">e</tspan><tspan x="117.57" y="18.4">, </tspan><tspan class="cls-44" x="124.24" y="18.4">d</tspan><tspan class="cls-13" x="130.83" y="18.4">e</tspan><tspan class="cls-68" x="137.22" y="18.4">v</tspan><tspan class="cls-100" x="142.97" y="18.4">e</tspan><tspan class="cls-138" x="149.6" y="18.4">lo</tspan><tspan class="cls-63" x="158.86" y="18.4">pm</tspan><tspan class="cls-46" x="175.42" y="18.4">e</tspan><tspan class="cls-32" x="182.03" y="18.4">n</tspan><tspan x="188.52" y="18.4">t </tspan><tspan class="cls-7" x="195.19" y="18.4">t</tspan><tspan x="198.38" y="18.4">o</tspan><tspan class="cls-24" x="205.06" y="18.4">o</tspan><tspan class="cls-148" x="211.7" y="18.4">l</tspan><tspan class="cls-27" x="214.29" y="18.4">s</tspan><tspan x="220.17" y="18.4">, </tspan><tspan class="cls-38" x="226.84" y="18.4">e</tspan><tspan class="cls-51" x="233.33" y="18.4">t</tspan><tspan class="cls-58" x="236.49" y="18.4">c</tspan><tspan x="242.45" y="18.4">.</tspan></tspan></text>
  <text class="cls-72" transform="translate(439.28 337.7)"><tspan class="cls-43"><tspan class="cls-67" x="0" y="0">I</tspan><tspan class="cls-105" x="4.47" y="0">n</tspan><tspan class="cls-45" x="14.16" y="0">f</tspan><tspan class="cls-127" x="19.51" y="0">r</tspan><tspan class="cls-109" x="25.74" y="0">a</tspan><tspan class="cls-136" x="34.69" y="0">s</tspan><tspan class="cls-144" x="43.52" y="0">tr</tspan><tspan class="cls-101" x="55.34" y="0">u</tspan><tspan class="cls-87" x="65.08" y="0">c</tspan><tspan class="cls-132" x="74.12" y="0">t</tspan><tspan class="cls-117" x="79.46" y="0">u</tspan><tspan class="cls-59" x="89.19" y="0">r</tspan><tspan x="95.39" y="0">e</tspan></tspan><tspan class="cls-33"><tspan class="cls-28" x="-87.14" y="18.4">c</tspan><tspan class="cls-26" x="-81" y="18.4">o</tspan><tspan class="cls-147" x="-74.37" y="18.4">m</tspan><tspan class="cls-112" x="-64.44" y="18.4">p</tspan><tspan class="cls-74" x="-57.85" y="18.4">u</tspan><tspan class="cls-143" x="-51.29" y="18.4">t</tspan><tspan class="cls-145" x="-47.98" y="18.4">i</tspan><tspan class="cls-20" x="-45.4" y="18.4">n</tspan><tspan x="-38.8" y="18.4">g </tspan><tspan class="cls-65" x="-28.79" y="18.4">p</tspan><tspan class="cls-22" x="-22.14" y="18.4">o</tspan><tspan class="cls-98" x="-15.6" y="18.4">w</tspan><tspan class="cls-128" x="-7.12" y="18.4">e</tspan><tspan x="-.51" y="18.4">r </tspan><tspan class="cls-142" x="6.82" y="18.4">a</tspan><tspan class="cls-19" x="13.41" y="18.4">n</tspan><tspan x="20.02" y="18.4">d </tspan><tspan class="cls-16" x="30.03" y="18.4">s</tspan><tspan class="cls-15" x="35.9" y="18.4">t</tspan><tspan class="cls-120" x="39.09" y="18.4">o</tspan><tspan class="cls-60" x="45.73" y="18.4">r</tspan><tspan class="cls-34" x="49.69" y="18.4">a</tspan><tspan class="cls-91" x="56.28" y="18.4">g</tspan><tspan x="62.91" y="18.4">e </tspan><tspan class="cls-80" x="72.92" y="18.4">(</tspan><tspan class="cls-5" x="76.3" y="18.4">e</tspan><tspan class="cls-76" x="82.74" y="18.4">.</tspan><tspan class="cls-82" x="85.81" y="18.4">g</tspan><tspan class="cls-36" x="92.32" y="18.4">.</tspan><tspan x="95.28" y="18.4">, </tspan><tspan class="cls-102" x="101.95" y="18.4">v</tspan><tspan class="cls-99" x="107.9" y="18.4">i</tspan><tspan class="cls-79" x="110.48" y="18.4">r</tspan><tspan class="cls-49" x="114.87" y="18.4">t</tspan><tspan class="cls-142" x="118.12" y="18.4">u</tspan><tspan class="cls-99" x="124.71" y="18.4">a</tspan><tspan x="131.29" y="18.4">l </tspan><tspan class="cls-20" x="137.29" y="18.4">m</tspan><tspan class="cls-70" x="147.22" y="18.4">a</tspan><tspan class="cls-89" x="153.77" y="18.4">c</tspan><tspan class="cls-124" x="159.81" y="18.4">h</tspan><tspan class="cls-145" x="166.39" y="18.4">i</tspan><tspan class="cls-62" x="168.96" y="18.4">n</tspan><tspan class="cls-24" x="175.56" y="18.4">e</tspan><tspan class="cls-123" x="182.21" y="18.4">s</tspan><tspan x="187.43" y="18.4">)</tspan></tspan></text>
  <text class="cls-72" transform="translate(455.02 418.55)"><tspan class="cls-43"><tspan class="cls-126" x="0" y="0">Ha</tspan><tspan class="cls-85" x="20.49" y="0">r</tspan><tspan class="cls-23" x="26.65" y="0">d</tspan><tspan class="cls-48" x="36.46" y="0">w</tspan><tspan class="cls-41" x="48.8" y="0">a</tspan><tspan class="cls-11" x="57.72" y="0">r</tspan><tspan x="63.92" y="0">e</tspan></tspan><tspan class="cls-33"><tspan class="cls-69" x="-89.09" y="18.4">f</tspan><tspan class="cls-70" x="-85.8" y="18.4">a</tspan><tspan class="cls-52" x="-79.26" y="18.4">c</tspan><tspan class="cls-78" x="-73.21" y="18.4">i</tspan><tspan class="cls-74" x="-70.62" y="18.4">l</tspan><tspan class="cls-77" x="-68.07" y="18.4">i</tspan><tspan class="cls-143" x="-65.49" y="18.4">t</tspan><tspan class="cls-138" x="-62.18" y="18.4">i</tspan><tspan class="cls-120" x="-59.55" y="18.4">e</tspan><tspan class="cls-27" x="-52.91" y="18.4">s</tspan><tspan x="-47.03" y="18.4">, </tspan><tspan class="cls-10" x="-40.36" y="18.4">s</tspan><tspan class="cls-128" x="-34.43" y="18.4">e</tspan><tspan class="cls-95" x="-27.81" y="18.4">r</tspan><tspan class="cls-75" x="-23.41" y="18.4">v</tspan><tspan class="cls-128" x="-17.67" y="18.4">e</tspan><tspan class="cls-133" x="-11.05" y="18.4">r</tspan><tspan class="cls-27" x="-7" y="18.4">s</tspan><tspan x="-1.12" y="18.4">, </tspan><tspan class="cls-140" x="5.55" y="18.4">f</tspan><tspan class="cls-99" x="9.11" y="18.4">i</tspan><tspan class="cls-78" x="11.69" y="18.4">r</tspan><tspan class="cls-82" x="15.61" y="18.4">ew</tspan><tspan class="cls-99" x="30.61" y="18.4">a</tspan><tspan class="cls-104" x="37.2" y="18.4">l</tspan><tspan class="cls-147" x="39.77" y="18.4">l</tspan><tspan class="cls-27" x="42.36" y="18.4">s</tspan><tspan x="48.24" y="18.4">, </tspan><tspan class="cls-62" x="54.91" y="18.4">n</tspan><tspan class="cls-37" x="61.51" y="18.4">e</tspan><tspan class="cls-110" x="68" y="18.4">t</tspan><tspan class="cls-114" x="71.61" y="18.4">w</tspan><tspan class="cls-120" x="80.13" y="18.4">o</tspan><tspan class="cls-97" x="86.77" y="18.4">r</tspan><tspan x="90.87" y="18.4">k </tspan><tspan class="cls-66" x="100.2" y="18.4">(</tspan><tspan class="cls-25" x="103.59" y="18.4">d</tspan><tspan class="cls-122" x="110.14" y="18.4">i</tspan><tspan class="cls-16" x="112.75" y="18.4">s</tspan><tspan class="cls-92" x="118.62" y="18.4">t</tspan><tspan class="cls-96" x="121.95" y="18.4">r</tspan><tspan class="cls-142" x="126.04" y="18.4">ib</tspan><tspan class="cls-74" x="135.2" y="18.4">u</tspan><tspan class="cls-146" x="141.76" y="18.4">t</tspan><tspan class="cls-60" x="144.94" y="18.4">e</tspan><tspan class="cls-83" x="151.57" y="18.4">d</tspan><tspan x="157.91" y="18.4">)</tspan></tspan></text>
  <text class="cls-42" transform="translate(215.98 180.96)"><tspan class="cls-39" x="0" y="0">S</tspan><tspan class="cls-125" x="10.62" y="0">a</tspan><tspan class="cls-8" x="19.51" y="0">a</tspan><tspan x="28.34" y="0">S</tspan></text>
  <text class="cls-42" transform="translate(216.09 258.9)"><tspan class="cls-119" x="0" y="0">P</tspan><tspan class="cls-18" x="10.41" y="0">a</tspan><tspan class="cls-63" x="19.3" y="0">a</tspan><tspan x="28.12" y="0">S</tspan></text>
  <text class="cls-42" transform="translate(219.02 337.7)"><tspan class="cls-1" x="0" y="0">I</tspan><tspan class="cls-18" x="4.54" y="0">a</tspan><tspan class="cls-63" x="13.44" y="0">a</tspan><tspan x="22.26" y="0">S</tspan></text>
  <g>
    <g>
      <line class="cls-55" x1="147.09" y1="381.64" x2="147.09" y2="152.5"/>
      <polygon class="cls-71" points="152.08 153.96 147.09 145.33 142.11 153.96 152.08 153.96"/>
    </g>
    <g>
      <path class="cls-71" d="M89.84,337.7v-8.52h1.73v7.07h4.31v1.45h-6.05Z"/>
      <path class="cls-71" d="M100.71,335.72l1.64.28c-.21.6-.54,1.06-1,1.37s-1.02.47-1.71.47c-1.08,0-1.88-.35-2.4-1.06-.41-.57-.62-1.28-.62-2.14,0-1.03.27-1.84.81-2.42s1.22-.88,2.04-.88c.93,0,1.66.31,2.19.92s.79,1.55.77,2.81h-4.12c.01.49.14.87.4,1.14s.57.41.95.41c.26,0,.47-.07.65-.21s.31-.37.4-.68ZM100.81,334.05c-.01-.48-.13-.84-.37-1.09s-.52-.37-.86-.37c-.36,0-.66.13-.89.39s-.35.62-.35,1.07h2.46Z"/>
      <path class="cls-71" d="M105.26,337.7l-2.51-6.22h1.73l1.17,3.18.34,1.06c.09-.27.15-.45.17-.53.05-.18.11-.35.18-.53l1.18-3.18h1.69l-2.47,6.22h-1.48Z"/>
      <path class="cls-71" d="M113.61,335.72l1.64.28c-.21.6-.54,1.06-1,1.37s-1.02.47-1.71.47c-1.08,0-1.88-.35-2.4-1.06-.41-.57-.62-1.28-.62-2.14,0-1.03.27-1.84.81-2.42s1.22-.88,2.04-.88c.93,0,1.66.31,2.19.92s.79,1.55.77,2.81h-4.12c.01.49.14.87.4,1.14s.57.41.95.41c.26,0,.47-.07.65-.21s.31-.37.4-.68ZM113.7,334.05c-.01-.48-.13-.84-.37-1.09s-.52-.37-.86-.37c-.36,0-.66.13-.89.39s-.35.62-.35,1.07h2.46Z"/>
      <path class="cls-71" d="M116.66,337.7v-8.59h1.65v8.59h-1.65Z"/>
      <path class="cls-71" d="M122.95,334.5c0-.55.13-1.08.4-1.59s.65-.9,1.15-1.17,1.05-.4,1.66-.4c.94,0,1.71.31,2.31.92s.9,1.38.9,2.32-.3,1.72-.91,2.34-1.37.93-2.29.93c-.57,0-1.11-.13-1.63-.39s-.91-.64-1.18-1.13-.4-1.1-.4-1.82ZM124.64,334.58c0,.62.15,1.09.44,1.42s.65.49,1.08.49.79-.16,1.08-.49.44-.8.44-1.43-.15-1.08-.44-1.41-.65-.49-1.08-.49-.79.16-1.08.49-.44.8-.44,1.42Z"/>
      <path class="cls-71" d="M129.9,331.47h.91v-.47c0-.52.06-.91.17-1.17s.32-.47.62-.63.68-.24,1.13-.24.93.07,1.38.21l-.22,1.15c-.26-.06-.51-.09-.76-.09s-.41.06-.51.17-.16.33-.16.64v.44h1.23v1.29h-1.23v4.93h-1.65v-4.93h-.91v-1.29Z"/>
      <path class="cls-71" d="M74.14,347.77l-1.49-.27c.17-.6.46-1.05.87-1.34s1.02-.43,1.83-.43c.73,0,1.28.09,1.64.26s.61.39.76.66.22.76.22,1.47l-.02,1.92c0,.55.03.95.08,1.21s.15.54.3.83h-1.63c-.04-.11-.1-.27-.16-.49-.03-.1-.05-.16-.06-.19-.28.27-.58.48-.9.62s-.66.21-1.03.21c-.64,0-1.15-.17-1.51-.52s-.55-.79-.55-1.32c0-.35.08-.67.25-.94s.4-.49.71-.63.74-.27,1.31-.38c.77-.14,1.3-.28,1.6-.4v-.16c0-.32-.08-.54-.23-.68s-.45-.2-.88-.2c-.29,0-.52.06-.69.17s-.3.32-.4.61ZM76.34,349.11c-.21.07-.54.15-1,.25s-.76.19-.9.29c-.21.15-.32.35-.32.58s.09.43.26.6.39.25.66.25c.3,0,.58-.1.85-.29.2-.15.33-.33.39-.54.04-.14.06-.41.06-.8v-.33Z"/>
      <path class="cls-71" d="M79.54,352.1v-8.59h1.65v3.09c.51-.58,1.11-.87,1.8-.87.76,0,1.38.27,1.88.82s.74,1.34.74,2.36-.25,1.88-.76,2.46-1.12.86-1.84.86c-.36,0-.71-.09-1.05-.27s-.64-.44-.89-.79v.91h-1.53ZM81.18,348.85c0,.64.1,1.12.3,1.43.29.44.66.66,1.14.66.36,0,.67-.16.93-.47s.38-.8.38-1.47c0-.71-.13-1.22-.39-1.54s-.59-.47-.99-.47-.72.15-.98.46-.39.77-.39,1.4Z"/>
      <path class="cls-71" d="M86.41,350.32l1.65-.25c.07.32.21.56.43.73s.52.25.9.25c.43,0,.75-.08.96-.23.14-.11.22-.26.22-.44,0-.12-.04-.23-.12-.31-.08-.08-.27-.15-.55-.22-1.33-.29-2.17-.56-2.53-.8-.49-.34-.74-.8-.74-1.4,0-.54.21-.99.64-1.36s1.09-.55,1.98-.55,1.48.14,1.9.42.7.69.86,1.23l-1.55.29c-.07-.24-.19-.43-.38-.56s-.45-.19-.79-.19c-.43,0-.74.06-.93.18-.12.09-.19.2-.19.33,0,.12.05.22.16.3.15.11.66.26,1.54.46s1.49.44,1.84.73c.34.29.52.7.52,1.22,0,.57-.24,1.06-.71,1.47s-1.18.62-2.12.62c-.85,0-1.52-.17-2.01-.52s-.82-.81-.97-1.4Z"/>
      <path class="cls-71" d="M96.49,345.87v1.31h-1.12v2.51c0,.51.01.8.03.89s.07.15.15.21.17.08.28.08c.15,0,.37-.05.66-.16l.14,1.28c-.38.16-.82.25-1.3.25-.3,0-.56-.05-.8-.15s-.41-.23-.52-.39-.19-.37-.23-.64c-.04-.19-.05-.58-.05-1.16v-2.71h-.76v-1.31h.76v-1.24l1.65-.96v2.2h1.12Z"/>
      <path class="cls-71" d="M99.32,352.1h-1.65v-6.22h1.53v.88c.26-.42.5-.69.71-.83s.45-.2.71-.2c.38,0,.74.1,1.08.31l-.51,1.44c-.28-.18-.54-.27-.77-.27s-.43.06-.59.19-.29.36-.38.69-.14,1.03-.14,2.09v1.92Z"/>
      <path class="cls-71" d="M103.67,347.77l-1.49-.27c.17-.6.46-1.05.87-1.34s1.02-.43,1.83-.43c.73,0,1.28.09,1.64.26s.61.39.76.66.22.76.22,1.47l-.02,1.92c0,.55.03.95.08,1.21s.15.54.3.83h-1.63c-.04-.11-.1-.27-.16-.49-.03-.1-.05-.16-.06-.19-.28.27-.58.48-.9.62s-.66.21-1.03.21c-.64,0-1.15-.17-1.51-.52s-.55-.79-.55-1.32c0-.35.08-.67.25-.94s.4-.49.71-.63.74-.27,1.31-.38c.77-.14,1.3-.28,1.6-.4v-.16c0-.32-.08-.54-.23-.68s-.45-.2-.88-.2c-.29,0-.52.06-.69.17s-.3.32-.4.61ZM105.87,349.11c-.21.07-.54.15-1,.25s-.76.19-.9.29c-.21.15-.32.35-.32.58s.09.43.26.6.39.25.66.25c.3,0,.58-.1.85-.29.2-.15.33-.33.39-.54.04-.14.06-.41.06-.8v-.33Z"/>
      <path class="cls-71" d="M114.51,347.71l-1.62.29c-.05-.32-.18-.57-.37-.73s-.44-.25-.75-.25c-.41,0-.74.14-.98.42s-.37.76-.37,1.42c0,.74.12,1.26.37,1.56s.58.46,1,.46c.31,0,.57-.09.77-.27s.34-.48.42-.92l1.62.28c-.17.74-.49,1.3-.97,1.68s-1.12.57-1.92.57c-.91,0-1.64-.29-2.18-.86s-.81-1.37-.81-2.38.27-1.83.81-2.4,1.28-.86,2.2-.86c.76,0,1.36.16,1.81.49s.77.82.96,1.49Z"/>
      <path class="cls-71" d="M118.73,345.87v1.31h-1.12v2.51c0,.51.01.8.03.89s.07.15.15.21.17.08.28.08c.15,0,.37-.05.66-.16l.14,1.28c-.38.16-.82.25-1.3.25-.3,0-.56-.05-.8-.15s-.41-.23-.52-.39-.19-.37-.23-.64c-.04-.19-.05-.58-.05-1.16v-2.71h-.76v-1.31h.76v-1.24l1.65-.96v2.2h1.12Z"/>
      <path class="cls-71" d="M119.97,345.03v-1.52h1.65v1.52h-1.65ZM119.97,352.1v-6.22h1.65v6.22h-1.65Z"/>
      <path class="cls-71" d="M122.92,348.9c0-.55.13-1.08.4-1.59s.65-.9,1.15-1.17,1.05-.4,1.66-.4c.94,0,1.71.31,2.31.92s.9,1.38.9,2.32-.3,1.72-.91,2.34-1.37.93-2.29.93c-.57,0-1.11-.13-1.63-.39s-.91-.64-1.18-1.13-.4-1.1-.4-1.82ZM124.61,348.98c0,.62.15,1.09.44,1.42s.65.49,1.08.49.79-.16,1.08-.49.44-.8.44-1.43-.15-1.08-.44-1.41-.65-.49-1.08-.49-.79.16-1.08.49-.44.8-.44,1.42Z"/>
      <path class="cls-71" d="M136.28,352.1h-1.65v-3.18c0-.67-.04-1.11-.11-1.3s-.18-.35-.34-.46-.35-.16-.57-.16c-.29,0-.54.08-.77.23s-.38.36-.47.62-.13.73-.13,1.43v2.82h-1.65v-6.22h1.53v.91c.54-.7,1.23-1.05,2.05-1.05.36,0,.7.07,1,.2s.53.3.68.5.26.43.32.69.09.63.09,1.11v3.87Z"/>
    </g>
  </g>
  <g>
    <g>
      <line class="cls-55" x1="835.77" y1="142.5" x2="835.77" y2="375.32"/>
      <polygon class="cls-71" points="830.78 373.87 835.77 382.5 840.75 373.87 830.78 373.87"/>
    </g>
    <g>
      <path class="cls-71" d="M846.65,178.72v-8.59h5.89v1.45h-4.15v2.03h3.59v1.45h-3.59v3.65h-1.73Z"/>
      <path class="cls-71" d="M853.73,178.72v-8.59h1.65v8.59h-1.65Z"/>
      <path class="cls-71" d="M860.72,176.74l1.64.28c-.21.6-.54,1.06-1,1.37s-1.02.47-1.71.47c-1.08,0-1.88-.35-2.4-1.06-.41-.57-.62-1.28-.62-2.14,0-1.03.27-1.84.81-2.42s1.22-.88,2.04-.88c.93,0,1.66.31,2.19.92s.79,1.55.77,2.81h-4.12c.01.49.14.87.4,1.14s.57.41.95.41c.26,0,.47-.07.65-.21s.31-.37.4-.68ZM860.81,175.08c-.01-.48-.13-.84-.37-1.09s-.52-.37-.86-.37c-.36,0-.66.13-.89.39s-.35.62-.35,1.07h2.46Z"/>
      <path class="cls-71" d="M862.8,178.72l2.24-3.21-2.15-3.02h2.01l1.1,1.71,1.16-1.71h1.93l-2.11,2.95,2.3,3.28h-2.02l-1.27-1.93-1.28,1.93h-1.93Z"/>
      <path class="cls-71" d="M870.24,171.66v-1.52h1.65v1.52h-1.65ZM870.24,178.72v-6.22h1.65v6.22h-1.65Z"/>
      <path class="cls-71" d="M873.49,178.72v-8.59h1.65v3.09c.51-.58,1.11-.87,1.8-.87.76,0,1.38.27,1.88.82s.74,1.34.74,2.36-.25,1.88-.76,2.46-1.12.86-1.84.86c-.36,0-.71-.09-1.05-.27s-.64-.44-.89-.79v.91h-1.53ZM875.12,175.48c0,.64.1,1.12.3,1.43.29.44.66.66,1.14.66.36,0,.67-.16.93-.47s.38-.8.38-1.47c0-.71-.13-1.22-.39-1.54s-.59-.47-.99-.47-.72.15-.98.46-.39.77-.39,1.4Z"/>
      <path class="cls-71" d="M880.9,171.66v-1.52h1.65v1.52h-1.65ZM880.9,178.72v-6.22h1.65v6.22h-1.65Z"/>
      <path class="cls-71" d="M884.19,178.72v-8.59h1.65v8.59h-1.65Z"/>
      <path class="cls-71" d="M887.48,171.66v-1.52h1.65v1.52h-1.65ZM887.48,178.72v-6.22h1.65v6.22h-1.65Z"/>
      <path class="cls-71" d="M893.73,172.5v1.31h-1.12v2.51c0,.51.01.8.03.89s.07.15.15.21.17.08.28.08c.15,0,.37-.05.66-.16l.14,1.28c-.38.16-.82.25-1.3.25-.3,0-.56-.05-.8-.15s-.41-.23-.52-.39-.19-.37-.23-.64c-.04-.19-.05-.58-.05-1.16v-2.71h-.76v-1.31h.76v-1.24l1.65-.96v2.2h1.12Z"/>
      <path class="cls-71" d="M894.37,172.5h1.75l1.49,4.42,1.45-4.42h1.71l-2.2,5.99-.39,1.08c-.14.36-.28.64-.41.83s-.28.35-.45.47-.38.21-.63.28-.53.1-.84.1-.63-.03-.93-.1l-.15-1.29c.26.05.49.08.7.08.38,0,.67-.11.85-.34s.32-.51.42-.86l-2.37-6.24Z"/>
      <path class="cls-71" d="M904.78,175.52c0-.55.13-1.08.4-1.59s.65-.9,1.15-1.17,1.05-.4,1.66-.4c.94,0,1.71.31,2.31.92s.9,1.38.9,2.32-.3,1.72-.91,2.34-1.37.93-2.29.93c-.57,0-1.11-.13-1.63-.39s-.91-.64-1.18-1.13-.4-1.1-.4-1.82ZM906.46,175.61c0,.62.15,1.09.44,1.42s.65.49,1.08.49.79-.16,1.08-.49.44-.8.44-1.43-.15-1.08-.44-1.41-.65-.49-1.08-.49-.79.16-1.08.49-.44.8-.44,1.42Z"/>
      <path class="cls-71" d="M911.73,172.5h.91v-.47c0-.52.06-.91.17-1.17s.32-.47.62-.63.68-.24,1.13-.24.93.07,1.38.21l-.22,1.15c-.26-.06-.51-.09-.76-.09s-.41.06-.51.17-.16.33-.16.64v.44h1.23v1.29h-1.23v4.93h-1.65v-4.93h-.91v-1.29Z"/>
      <path class="cls-71" d="M846.64,193.12v-8.59h2.78c1.05,0,1.74.04,2.06.13.49.13.9.41,1.24.84s.5.99.5,1.67c0,.53-.1.97-.29,1.33s-.43.64-.73.85-.59.34-.9.41c-.41.08-1.01.12-1.8.12h-1.13v3.24h-1.73ZM848.37,185.99v2.44h.95c.68,0,1.14-.04,1.37-.13s.41-.23.54-.42.2-.41.2-.67c0-.31-.09-.57-.28-.77s-.42-.33-.7-.38c-.21-.04-.62-.06-1.25-.06h-.84Z"/>
      <path class="cls-71" d="M858.52,193.12v-.93c-.23.33-.52.59-.89.79s-.76.29-1.17.29-.79-.09-1.12-.28-.57-.44-.72-.77-.22-.79-.22-1.38v-3.94h1.65v2.86c0,.88.03,1.41.09,1.61s.17.35.33.47.36.17.61.17c.28,0,.53-.08.76-.23s.38-.35.46-.57.12-.79.12-1.68v-2.62h1.65v6.22h-1.53Z"/>
      <path class="cls-71" d="M863.32,193.12h-1.65v-6.22h1.53v.88c.26-.42.5-.69.71-.83s.45-.2.71-.2c.38,0,.74.1,1.08.31l-.51,1.44c-.28-.18-.54-.27-.77-.27s-.43.06-.59.19-.29.36-.38.69-.14,1.03-.14,2.09v1.92Z"/>
      <path class="cls-71" d="M866.49,186.9h1.54v.91c.2-.31.47-.57.81-.76s.72-.29,1.13-.29c.72,0,1.34.28,1.84.85s.76,1.36.76,2.37-.25,1.85-.76,2.42-1.12.86-1.85.86c-.34,0-.66-.07-.93-.21s-.57-.37-.88-.7v3.13h-1.65v-8.59ZM868.12,189.91c0,.7.14,1.22.42,1.55s.62.5,1.01.5.7-.15.96-.46.38-.81.38-1.51c0-.65-.13-1.14-.39-1.45s-.59-.47-.97-.47-.74.16-1,.47-.4.77-.4,1.38Z"/>
      <path class="cls-71" d="M873.52,189.93c0-.55.13-1.08.4-1.59s.65-.9,1.15-1.17,1.05-.4,1.66-.4c.94,0,1.71.31,2.31.92s.9,1.38.9,2.32-.3,1.72-.91,2.34-1.37.93-2.29.93c-.57,0-1.11-.13-1.63-.39s-.91-.64-1.18-1.13-.4-1.1-.4-1.82ZM875.21,190.01c0,.62.15,1.09.44,1.42s.65.49,1.08.49.79-.16,1.08-.49.44-.8.44-1.43-.15-1.08-.44-1.41-.65-.49-1.08-.49-.79.16-1.08.49-.44.8-.44,1.42Z"/>
      <path class="cls-71" d="M880.66,191.35l1.65-.25c.07.32.21.56.43.73s.52.25.9.25c.43,0,.75-.08.96-.23.14-.11.22-.26.22-.44,0-.12-.04-.23-.12-.31-.08-.08-.27-.15-.55-.22-1.33-.29-2.17-.56-2.53-.8-.49-.34-.74-.8-.74-1.4,0-.54.21-.99.64-1.36s1.09-.55,1.98-.55,1.48.14,1.9.42.7.69.86,1.23l-1.55.29c-.07-.24-.19-.43-.38-.56s-.45-.19-.79-.19c-.43,0-.74.06-.93.18-.12.09-.19.2-.19.33,0,.12.05.22.16.3.15.11.66.26,1.54.46s1.49.44,1.84.73c.34.29.52.7.52,1.22,0,.57-.24,1.06-.71,1.47s-1.18.62-2.12.62c-.85,0-1.52-.17-2.01-.52s-.82-.81-.97-1.4Z"/>
      <path class="cls-71" d="M891.47,191.14l1.64.28c-.21.6-.54,1.06-1,1.37s-1.02.47-1.71.47c-1.08,0-1.88-.35-2.4-1.06-.41-.57-.62-1.28-.62-2.14,0-1.03.27-1.84.81-2.42s1.22-.88,2.04-.88c.93,0,1.66.31,2.19.92s.79,1.55.77,2.81h-4.12c.01.49.14.87.4,1.14s.57.41.95.41c.26,0,.47-.07.65-.21s.31-.37.4-.68ZM891.56,189.48c-.01-.48-.13-.84-.37-1.09s-.52-.37-.86-.37c-.36,0-.66.13-.89.39s-.35.62-.35,1.07h2.46Z"/>
    </g>
  </g>
</svg>