<?xml version="1.0" encoding="UTF-8"?><svg id="maturity" xmlns="http://www.w3.org/2000/svg" viewBox="0 0 988 525"><rect x="154" y="212.5" width="200" height="100" style="fill:#fff; stroke:#000; stroke-miterlimit:8; stroke-width:2px;"/><text transform="translate(197.64 242.19)" style="fill:#1d1d1b;"><tspan style="font-family:Arial-BoldMT, Arial; font-size:16px; font-weight:700;"><tspan x="0" y="0" style="letter-spacing:-.06em;">T</tspan><tspan x="8.89" y="0">raits</tspan></tspan><tspan style="font-family:ArialMT, Arial; font-size:12px;"><tspan x="0" y="20.4">Big Five</tspan></tspan><tspan style="font-family:ArialMT, Arial; font-size:12px;"><tspan x="0" y="34.8">Core self-evaluations</tspan></tspan><tspan style="font-family:ArialMT, Arial; font-size:12px;"><tspan x="0" y="49.2">Other traits</tspan></tspan></text><rect x="634" y="212.5" width="200" height="100" style="fill:#fff; stroke:#000; stroke-miterlimit:8; stroke-width:2px;"/><text transform="translate(662.42 242.19)" style="fill:#1d1d1b;"><tspan style="font-family:Arial-BoldMT, Arial; font-size:16px; font-weight:700;"><tspan x="0" y="0">Leader Emergence</tspan></tspan><tspan style="font-family:ArialMT, Arial; font-size:12px;"><tspan x="0" y="20.4">Perceived leadership</tspan></tspan><tspan style="font-family:ArialMT, Arial; font-size:12px;"><tspan x="0" y="34.8">Actual leadership</tspan></tspan><tspan style="font-family:ArialMT, Arial; font-size:12px;"><tspan x="0" y="49.2">(e.g., leadership position)</tspan></tspan></text><rect x="742.97" y="32.5" width="200" height="100" style="fill:#0333ff; stroke:#0333ff; stroke-miterlimit:8; stroke-width:2px;"/><path d="m771.97,72.62l2.25-.22c.14.76.41,1.31.82,1.66.41.35.97.53,1.68.53.75,0,1.31-.16,1.68-.47.38-.31.57-.68.57-1.11,0-.27-.08-.5-.24-.69-.16-.19-.44-.36-.83-.5-.27-.09-.89-.26-1.85-.5-1.24-.31-2.11-.68-2.61-1.13-.7-.63-1.05-1.4-1.05-2.3,0-.58.17-1.13.5-1.64s.81-.89,1.43-1.16,1.37-.4,2.25-.4c1.44,0,2.52.32,3.25.95.73.63,1.11,1.47,1.14,2.52l-2.31.1c-.1-.59-.31-1.01-.64-1.27s-.81-.39-1.46-.39-1.2.14-1.58.41c-.25.18-.37.41-.37.71,0,.27.11.5.34.7.29.25,1,.5,2.12.77s1.96.54,2.5.82c.54.28.96.67,1.27,1.16s.46,1.1.46,1.82c0,.66-.18,1.27-.55,1.84-.36.57-.88,1-1.55,1.28s-1.5.42-2.49.42c-1.45,0-2.56-.33-3.34-1-.78-.67-1.24-1.64-1.39-2.93Z" style="fill:#fff;"/><path d="m788.67,76.35v-1.24c-.3.44-.7.79-1.19,1.05s-1.01.38-1.56.38-1.06-.12-1.5-.37-.76-.59-.96-1.03c-.2-.44-.3-1.05-.3-1.84v-5.25h2.2v3.81c0,1.17.04,1.88.12,2.14.08.26.23.47.44.62.21.15.48.23.81.23.38,0,.71-.1,1.01-.31.3-.21.5-.46.61-.77s.16-1.05.16-2.24v-3.5h2.2v8.3h-2.04Z" style="fill:#fff;"/><path d="m792.89,76.35v-11.45h2.2v4.12c.68-.77,1.48-1.16,2.41-1.16,1.01,0,1.85.37,2.51,1.1.66.73.99,1.78.99,3.15s-.34,2.51-1.01,3.27-1.49,1.15-2.46,1.15c-.47,0-.94-.12-1.4-.36s-.86-.59-1.19-1.05v1.22h-2.04Zm2.18-4.33c0,.86.14,1.5.41,1.91.38.58.89.88,1.52.88.48,0,.9-.21,1.24-.62s.51-1.07.51-1.96c0-.95-.17-1.63-.52-2.05-.34-.42-.78-.63-1.32-.63s-.96.2-1.31.61c-.35.41-.52,1.03-.52,1.86Z" style="fill:#fff;"/><path d="m804.91,68.05v8.04c0,1.06-.07,1.8-.21,2.24-.14.43-.4.77-.8,1.02-.39.24-.89.37-1.5.37-.22,0-.45-.02-.71-.06s-.52-.1-.82-.18l.38-1.88c.1.02.2.04.29.05.09.01.18.02.25.02.22,0,.41-.05.55-.14.14-.1.24-.21.29-.35.05-.14.07-.54.07-1.22v-7.91h2.2Zm-2.2-1.12v-2.03h2.2v2.03h-2.2Z" style="fill:#fff;"/><path d="m812.01,73.71l2.19.37c-.28.8-.73,1.41-1.33,1.83-.61.42-1.37.63-2.28.63-1.44,0-2.51-.47-3.2-1.41-.55-.75-.82-1.71-.82-2.86,0-1.38.36-2.45,1.08-3.23.72-.78,1.63-1.17,2.73-1.17,1.23,0,2.21.41,2.92,1.22.71.82,1.05,2.06,1.02,3.75h-5.5c.02.65.19,1.16.53,1.52.34.36.76.54,1.27.54.34,0,.63-.09.87-.28s.41-.49.53-.91Zm.12-2.22c-.02-.64-.18-1.12-.49-1.45-.31-.33-.69-.5-1.14-.5-.48,0-.88.17-1.19.52-.31.35-.47.82-.46,1.42h3.28Z" style="fill:#fff;"/><path d="m823.34,70.51l-2.16.39c-.07-.43-.24-.76-.5-.98s-.59-.33-1-.33c-.55,0-.98.19-1.31.57-.33.38-.49,1.01-.49,1.89,0,.98.17,1.68.5,2.09s.77.61,1.33.61c.42,0,.76-.12,1.02-.36.27-.24.45-.64.56-1.22l2.16.37c-.22.99-.65,1.74-1.29,2.24-.64.51-1.49.76-2.55.76-1.21,0-2.18-.38-2.9-1.15s-1.08-1.83-1.08-3.18.36-2.44,1.09-3.2c.72-.76,1.7-1.14,2.94-1.14,1.01,0,1.81.22,2.41.65.6.44,1.02,1.1,1.29,1.99Z" style="fill:#fff;"/><path d="m828.81,68.05v1.75h-1.5v3.34c0,.68.01,1.07.04,1.18.03.11.09.2.2.28.1.07.23.11.37.11.2,0,.5-.07.88-.21l.19,1.7c-.51.22-1.09.33-1.73.33-.4,0-.75-.07-1.07-.2s-.55-.3-.7-.52-.25-.5-.31-.86c-.05-.25-.07-.77-.07-1.55v-3.62h-1.01v-1.75h1.01v-1.65l2.2-1.28v2.93h1.5Z" style="fill:#fff;"/><path d="m830.33,66.93v-2.03h2.2v2.03h-2.2Zm0,9.42v-8.3h2.2v8.3h-2.2Z" style="fill:#fff;"/><path d="m837.06,76.35l-3.34-8.3h2.3l1.56,4.23.45,1.41c.12-.36.2-.6.23-.71.07-.23.15-.47.23-.7l1.58-4.23h2.26l-3.3,8.3h-1.98Z" style="fill:#fff;"/><path d="m848.48,73.71l2.19.37c-.28.8-.73,1.41-1.33,1.83-.61.42-1.37.63-2.28.63-1.44,0-2.51-.47-3.2-1.41-.55-.75-.82-1.71-.82-2.86,0-1.38.36-2.45,1.08-3.23.72-.78,1.63-1.17,2.73-1.17,1.23,0,2.21.41,2.92,1.22.71.82,1.05,2.06,1.02,3.75h-5.5c.02.65.19,1.16.53,1.52.34.36.76.54,1.27.54.34,0,.63-.09.87-.28s.41-.49.53-.91Zm.12-2.22c-.02-.64-.18-1.12-.49-1.45-.31-.33-.69-.5-1.14-.5-.48,0-.88.17-1.19.52-.31.35-.47.82-.46,1.42h3.28Z" style="fill:#fff;"/><path d="m857.02,76.35v-11.45h2.2v11.45h-2.2Z" style="fill:#fff;"/><path d="m866.27,73.71l2.19.37c-.28.8-.73,1.41-1.33,1.83-.61.42-1.37.63-2.28.63-1.44,0-2.51-.47-3.2-1.41-.55-.75-.82-1.71-.82-2.86,0-1.38.36-2.45,1.08-3.23.72-.78,1.63-1.17,2.73-1.17,1.23,0,2.21.41,2.92,1.22.71.82,1.05,2.06,1.02,3.75h-5.5c.02.65.19,1.16.53,1.52.34.36.76.54,1.27.54.34,0,.63-.09.87-.28s.41-.49.53-.91Zm.12-2.22c-.02-.64-.18-1.12-.49-1.45-.31-.33-.69-.5-1.14-.5-.48,0-.88.17-1.19.52-.31.35-.47.82-.46,1.42h3.28Z" style="fill:#fff;"/><path d="m872,70.59l-1.99-.36c.22-.8.61-1.4,1.16-1.78.55-.39,1.36-.58,2.44-.58.98,0,1.71.12,2.19.35.48.23.82.53,1.01.88.2.36.29,1.01.29,1.96l-.02,2.56c0,.73.04,1.27.11,1.61.07.35.2.72.39,1.11h-2.17c-.06-.15-.13-.36-.21-.65-.04-.13-.06-.22-.08-.26-.38.36-.78.64-1.2.82s-.88.27-1.37.27c-.85,0-1.53-.23-2.02-.7-.49-.46-.74-1.05-.74-1.76,0-.47.11-.89.34-1.25s.54-.65.94-.84.99-.37,1.75-.51c1.03-.19,1.74-.37,2.13-.54v-.22c0-.42-.1-.72-.31-.9s-.6-.27-1.18-.27c-.39,0-.7.08-.91.23-.22.15-.4.42-.53.81Zm2.94,1.78c-.28.09-.73.21-1.34.34-.61.13-1.01.26-1.2.38-.29.2-.43.46-.43.77s.11.57.34.8c.23.22.52.34.88.34.4,0,.77-.13,1.13-.39.27-.2.44-.44.52-.73.06-.19.09-.54.09-1.07v-.44Z" style="fill:#fff;"/><path d="m886.87,76.35h-2.04v-1.22c-.34.47-.74.83-1.2,1.06s-.93.35-1.39.35c-.95,0-1.77-.38-2.45-1.15-.68-.77-1.02-1.84-1.02-3.21s.33-2.48.99-3.21c.66-.73,1.5-1.1,2.51-1.1.93,0,1.73.39,2.41,1.16v-4.12h2.2v11.45Zm-5.86-4.33c0,.89.12,1.53.37,1.92.35.57.85.86,1.48.86.5,0,.93-.21,1.29-.64s.53-1.07.53-1.93c0-.95-.17-1.64-.52-2.06-.34-.42-.78-.63-1.32-.63s-.96.21-1.31.62-.53,1.03-.53,1.86Z" style="fill:#fff;"/><path d="m893.84,73.71l2.19.37c-.28.8-.73,1.41-1.33,1.83-.61.42-1.37.63-2.28.63-1.44,0-2.51-.47-3.2-1.41-.55-.75-.82-1.71-.82-2.86,0-1.38.36-2.45,1.08-3.23.72-.78,1.63-1.17,2.73-1.17,1.23,0,2.21.41,2.92,1.22.71.82,1.05,2.06,1.02,3.75h-5.5c.02.65.19,1.16.53,1.52.34.36.76.54,1.27.54.34,0,.63-.09.87-.28s.41-.49.53-.91Zm.12-2.22c-.02-.64-.18-1.12-.49-1.45-.31-.33-.69-.5-1.14-.5-.48,0-.88.17-1.19.52-.31.35-.47.82-.46,1.42h3.28Z" style="fill:#fff;"/><path d="m900.03,76.35h-2.2v-8.3h2.04v1.18c.35-.56.66-.92.94-1.1.28-.18.59-.27.95-.27.5,0,.98.14,1.45.41l-.68,1.91c-.37-.24-.71-.36-1.03-.36s-.57.08-.78.25c-.21.17-.38.48-.5.92-.12.44-.18,1.37-.18,2.78v2.56Z" style="fill:#fff;"/><path d="m777.35,93.71l2.19.37c-.28.8-.73,1.41-1.33,1.83-.61.42-1.37.63-2.28.63-1.44,0-2.51-.47-3.2-1.41-.55-.75-.82-1.71-.82-2.86,0-1.38.36-2.45,1.08-3.23.72-.78,1.63-1.17,2.73-1.17,1.23,0,2.21.41,2.92,1.22.71.82,1.05,2.06,1.02,3.75h-5.5c.02.65.19,1.16.53,1.52.34.36.76.54,1.27.54.34,0,.63-.09.87-.28s.41-.49.53-.91Zm.12-2.22c-.02-.64-.18-1.12-.49-1.45-.31-.33-.69-.5-1.14-.5-.48,0-.88.17-1.19.52-.31.35-.47.82-.46,1.42h3.28Z" style="fill:#fff;"/><path d="m780.48,88.05h1.22v-.62c0-.7.07-1.22.22-1.56s.42-.62.82-.84c.4-.22.9-.32,1.51-.32s1.24.09,1.84.28l-.3,1.53c-.35-.08-.68-.12-1.01-.12s-.55.07-.68.22-.21.43-.21.86v.59h1.64v1.73h-1.64v6.57h-2.2v-6.57h-1.22v-1.73Z" style="fill:#fff;"/><path d="m785.81,88.05h1.22v-.62c0-.7.07-1.22.22-1.56s.42-.62.82-.84c.4-.22.9-.32,1.51-.32s1.24.09,1.84.28l-.3,1.53c-.35-.08-.68-.12-1.01-.12s-.55.07-.68.22-.21.43-.21.86v.59h1.64v1.73h-1.64v6.57h-2.2v-6.57h-1.22v-1.73Z" style="fill:#fff;"/><path d="m796.9,93.71l2.19.37c-.28.8-.73,1.41-1.33,1.83-.61.42-1.37.63-2.28.63-1.44,0-2.51-.47-3.2-1.41-.55-.75-.82-1.71-.82-2.86,0-1.38.36-2.45,1.08-3.23.72-.78,1.63-1.17,2.73-1.17,1.23,0,2.21.41,2.92,1.22.71.82,1.05,2.06,1.02,3.75h-5.5c.02.65.19,1.16.53,1.52.34.36.76.54,1.27.54.34,0,.63-.09.87-.28s.41-.49.53-.91Zm.12-2.22c-.02-.64-.18-1.12-.49-1.45-.31-.33-.69-.5-1.14-.5-.48,0-.88.17-1.19.52-.31.35-.47.82-.46,1.42h3.28Z" style="fill:#fff;"/><path d="m808.23,90.51l-2.16.39c-.07-.43-.24-.76-.5-.98s-.59-.33-1-.33c-.55,0-.98.19-1.31.57-.33.38-.49,1.01-.49,1.89,0,.98.17,1.68.5,2.09s.77.61,1.33.61c.42,0,.76-.12,1.02-.36.27-.24.45-.64.56-1.22l2.16.37c-.22.99-.65,1.74-1.29,2.24-.64.51-1.49.76-2.55.76-1.21,0-2.18-.38-2.9-1.15s-1.08-1.83-1.08-3.18.36-2.44,1.09-3.2c.72-.76,1.7-1.14,2.94-1.14,1.01,0,1.81.22,2.41.65.6.44,1.02,1.1,1.29,1.99Z" style="fill:#fff;"/><path d="m813.7,88.05v1.75h-1.5v3.34c0,.68.01,1.07.04,1.18.03.11.09.2.2.28.1.07.23.11.37.11.2,0,.5-.07.88-.21l.19,1.7c-.51.22-1.09.33-1.73.33-.4,0-.75-.07-1.07-.2s-.55-.3-.7-.52-.25-.5-.31-.86c-.05-.25-.07-.77-.07-1.55v-3.62h-1.01v-1.75h1.01v-1.65l2.2-1.28v2.93h1.5Z" style="fill:#fff;"/><path d="m815.22,86.93v-2.03h2.2v2.03h-2.2Zm0,9.42v-8.3h2.2v8.3h-2.2Z" style="fill:#fff;"/><path d="m821.95,96.35l-3.34-8.3h2.3l1.56,4.23.45,1.41c.12-.36.2-.6.23-.71.07-.23.15-.47.23-.7l1.58-4.23h2.26l-3.3,8.3h-1.98Z" style="fill:#fff;"/><path d="m833.37,93.71l2.19.37c-.28.8-.73,1.41-1.33,1.83-.61.42-1.37.63-2.28.63-1.44,0-2.51-.47-3.2-1.41-.55-.75-.82-1.71-.82-2.86,0-1.38.36-2.45,1.08-3.23.72-.78,1.63-1.17,2.73-1.17,1.23,0,2.21.41,2.92,1.22.71.82,1.05,2.06,1.02,3.75h-5.5c.02.65.19,1.16.53,1.52.34.36.76.54,1.27.54.34,0,.63-.09.87-.28s.41-.49.53-.91Zm.12-2.22c-.02-.64-.18-1.12-.49-1.45-.31-.33-.69-.5-1.14-.5-.48,0-.88.17-1.19.52-.31.35-.47.82-.46,1.42h3.28Z" style="fill:#fff;"/><path d="m845.01,96.35h-2.2v-4.23c0-.9-.05-1.48-.14-1.74-.09-.26-.25-.47-.46-.61-.21-.15-.46-.22-.76-.22-.38,0-.72.1-1.02.31-.3.21-.51.48-.62.83s-.17.98-.17,1.91v3.76h-2.2v-8.3h2.04v1.22c.72-.94,1.64-1.41,2.73-1.41.48,0,.93.09,1.33.26.4.17.7.4.91.67.21.27.35.58.43.92s.12.84.12,1.48v5.16Z" style="fill:#fff;"/><path d="m852.04,93.71l2.19.37c-.28.8-.73,1.41-1.33,1.83-.61.42-1.37.63-2.28.63-1.44,0-2.51-.47-3.2-1.41-.55-.75-.82-1.71-.82-2.86,0-1.38.36-2.45,1.08-3.23.72-.78,1.63-1.17,2.73-1.17,1.23,0,2.21.41,2.92,1.22.71.82,1.05,2.06,1.02,3.75h-5.5c.02.65.19,1.16.53,1.52.34.36.76.54,1.27.54.34,0,.63-.09.87-.28s.41-.49.53-.91Zm.12-2.22c-.02-.64-.18-1.12-.49-1.45-.31-.33-.69-.5-1.14-.5-.48,0-.88.17-1.19.52-.31.35-.47.82-.46,1.42h3.28Z" style="fill:#fff;"/><path d="m855.36,93.98l2.2-.34c.09.43.28.75.57.97.29.22.69.33,1.2.33.57,0,1-.1,1.28-.31.19-.15.29-.34.29-.59,0-.17-.05-.3-.16-.41-.11-.1-.35-.2-.73-.29-1.77-.39-2.89-.75-3.37-1.07-.66-.45-.98-1.07-.98-1.87,0-.72.28-1.32.85-1.81.57-.49,1.45-.73,2.64-.73s1.98.19,2.53.55c.55.37.93.92,1.14,1.64l-2.07.38c-.09-.32-.26-.57-.5-.74s-.6-.26-1.06-.26c-.58,0-.99.08-1.24.24-.17.11-.25.26-.25.45,0,.16.07.29.22.4.2.15.88.35,2.05.62s1.99.59,2.45.98c.46.39.69.94.69,1.63,0,.76-.32,1.41-.95,1.96s-1.58.82-2.82.82c-1.13,0-2.02-.23-2.68-.69-.66-.46-1.09-1.08-1.29-1.87Z" style="fill:#fff;"/><path d="m864.26,93.98l2.2-.34c.09.43.28.75.57.97.29.22.69.33,1.2.33.57,0,1-.1,1.28-.31.19-.15.29-.34.29-.59,0-.17-.05-.3-.16-.41-.11-.1-.35-.2-.73-.29-1.77-.39-2.89-.75-3.37-1.07-.66-.45-.98-1.07-.98-1.87,0-.72.28-1.32.85-1.81.57-.49,1.45-.73,2.64-.73s1.98.19,2.53.55c.55.37.93.92,1.14,1.64l-2.07.38c-.09-.32-.26-.57-.5-.74s-.6-.26-1.06-.26c-.58,0-.99.08-1.24.24-.17.11-.25.26-.25.45,0,.16.07.29.22.4.2.15.88.35,2.05.62s1.99.59,2.45.98c.46.39.69.94.69,1.63,0,.76-.32,1.41-.95,1.96s-1.58.82-2.82.82c-1.13,0-2.02-.23-2.68-.69-.66-.46-1.09-1.08-1.29-1.87Z" style="fill:#fff;"/><rect x="742.97" y="392.5" width="200" height="100" style="fill:#0333ff; stroke:#0333ff; stroke-miterlimit:8; stroke-width:2px;"/><path d="m772.09,430.7c0-1.17.17-2.15.52-2.94.26-.58.62-1.11,1.07-1.57.45-.46.94-.81,1.48-1.03.71-.3,1.54-.45,2.47-.45,1.69,0,3.04.52,4.05,1.57s1.52,2.5,1.52,4.37-.5,3.3-1.51,4.34c-1,1.04-2.35,1.57-4.03,1.57s-3.06-.52-4.06-1.56-1.51-2.47-1.51-4.29Zm2.38-.08c0,1.3.3,2.28.9,2.95.6.67,1.36,1,2.28,1s1.68-.33,2.27-1,.89-1.66.89-2.99-.29-2.29-.86-2.94c-.58-.65-1.34-.97-2.29-.97s-1.72.33-2.3.98c-.58.65-.88,1.64-.88,2.96Z" style="fill:#fff;"/><path d="m784.89,436.35v-11.45h2.2v4.12c.68-.77,1.48-1.16,2.41-1.16,1.01,0,1.85.37,2.51,1.1.66.73.99,1.78.99,3.15s-.34,2.51-1.01,3.27-1.49,1.15-2.46,1.15c-.47,0-.94-.12-1.4-.36s-.86-.59-1.19-1.05v1.22h-2.04Zm2.18-4.33c0,.86.14,1.5.41,1.91.38.58.89.88,1.52.88.48,0,.9-.21,1.24-.62s.51-1.07.51-1.96c0-.95-.17-1.63-.52-2.05-.34-.42-.78-.63-1.32-.63s-.96.2-1.31.61c-.35.41-.52,1.03-.52,1.86Z" style="fill:#fff;"/><path d="m796.91,428.05v8.04c0,1.06-.07,1.8-.21,2.24-.14.43-.4.77-.8,1.02-.39.24-.89.37-1.5.37-.22,0-.45-.02-.71-.06s-.52-.1-.82-.18l.38-1.88c.1.02.2.04.29.05.09.01.18.02.25.02.22,0,.41-.05.55-.14.14-.1.24-.21.29-.35.05-.14.07-.54.07-1.22v-7.91h2.2Zm-2.2-1.12v-2.03h2.2v2.03h-2.2Z" style="fill:#fff;"/><path d="m804.01,433.71l2.19.37c-.28.8-.73,1.41-1.33,1.83-.61.42-1.37.63-2.28.63-1.44,0-2.51-.47-3.2-1.41-.55-.75-.82-1.71-.82-2.86,0-1.38.36-2.45,1.08-3.23.72-.78,1.63-1.17,2.73-1.17,1.23,0,2.21.41,2.92,1.22.71.82,1.05,2.06,1.02,3.75h-5.5c.02.65.19,1.16.53,1.52.34.36.76.54,1.27.54.34,0,.63-.09.87-.28s.41-.49.53-.91Zm.12-2.22c-.02-.64-.18-1.12-.49-1.45-.31-.33-.69-.5-1.14-.5-.48,0-.88.17-1.19.52-.31.35-.47.82-.46,1.42h3.28Z" style="fill:#fff;"/><path d="m815.34,430.51l-2.16.39c-.07-.43-.24-.76-.5-.98s-.59-.33-1-.33c-.55,0-.98.19-1.31.57-.33.38-.49,1.01-.49,1.89,0,.98.17,1.68.5,2.09s.77.61,1.33.61c.42,0,.76-.12,1.02-.36.27-.24.45-.64.56-1.22l2.16.37c-.22.99-.65,1.74-1.29,2.24-.64.51-1.49.76-2.55.76-1.21,0-2.18-.38-2.9-1.15s-1.08-1.83-1.08-3.18.36-2.44,1.09-3.2c.72-.76,1.7-1.14,2.94-1.14,1.01,0,1.81.22,2.41.65.6.44,1.02,1.1,1.29,1.99Z" style="fill:#fff;"/><path d="m820.81,428.05v1.75h-1.5v3.34c0,.68.01,1.07.04,1.18.03.11.09.2.2.28.1.07.23.11.37.11.2,0,.5-.07.88-.21l.19,1.7c-.51.22-1.09.33-1.73.33-.4,0-.75-.07-1.07-.2s-.55-.3-.7-.52-.25-.5-.31-.86c-.05-.25-.07-.77-.07-1.55v-3.62h-1.01v-1.75h1.01v-1.65l2.2-1.28v2.93h1.5Z" style="fill:#fff;"/><path d="m822.33,426.93v-2.03h2.2v2.03h-2.2Zm0,9.42v-8.3h2.2v8.3h-2.2Z" style="fill:#fff;"/><path d="m829.06,436.35l-3.34-8.3h2.3l1.56,4.23.45,1.41c.12-.36.2-.6.23-.71.07-.23.15-.47.23-.7l1.58-4.23h2.26l-3.3,8.3h-1.98Z" style="fill:#fff;"/><path d="m840.48,433.71l2.19.37c-.28.8-.73,1.41-1.33,1.83-.61.42-1.37.63-2.28.63-1.44,0-2.51-.47-3.2-1.41-.55-.75-.82-1.71-.82-2.86,0-1.38.36-2.45,1.08-3.23.72-.78,1.63-1.17,2.73-1.17,1.23,0,2.21.41,2.92,1.22.71.82,1.05,2.06,1.02,3.75h-5.5c.02.65.19,1.16.53,1.52.34.36.76.54,1.27.54.34,0,.63-.09.87-.28s.41-.49.53-.91Zm.12-2.22c-.02-.64-.18-1.12-.49-1.45-.31-.33-.69-.5-1.14-.5-.48,0-.88.17-1.19.52-.31.35-.47.82-.46,1.42h3.28Z" style="fill:#fff;"/><path d="m849.02,436.35v-11.45h2.2v11.45h-2.2Z" style="fill:#fff;"/><path d="m858.27,433.71l2.19.37c-.28.8-.73,1.41-1.33,1.83-.61.42-1.37.63-2.28.63-1.44,0-2.51-.47-3.2-1.41-.55-.75-.82-1.71-.82-2.86,0-1.38.36-2.45,1.08-3.23.72-.78,1.63-1.17,2.73-1.17,1.23,0,2.21.41,2.92,1.22.71.82,1.05,2.06,1.02,3.75h-5.5c.02.65.19,1.16.53,1.52.34.36.76.54,1.27.54.34,0,.63-.09.87-.28s.41-.49.53-.91Zm.12-2.22c-.02-.64-.18-1.12-.49-1.45-.31-.33-.69-.5-1.14-.5-.48,0-.88.17-1.19.52-.31.35-.47.82-.46,1.42h3.28Z" style="fill:#fff;"/><path d="m864,430.59l-1.99-.36c.22-.8.61-1.4,1.16-1.78.55-.39,1.36-.58,2.44-.58.98,0,1.71.12,2.19.35.48.23.82.53,1.01.88.2.36.29,1.01.29,1.96l-.02,2.56c0,.73.04,1.27.11,1.61.07.35.2.72.39,1.11h-2.17c-.06-.15-.13-.36-.21-.65-.04-.13-.06-.22-.08-.26-.38.36-.78.64-1.2.82s-.88.27-1.37.27c-.85,0-1.53-.23-2.02-.7-.49-.46-.74-1.05-.74-1.76,0-.47.11-.89.34-1.25s.54-.65.94-.84.99-.37,1.75-.51c1.03-.19,1.74-.37,2.13-.54v-.22c0-.42-.1-.72-.31-.9s-.6-.27-1.18-.27c-.39,0-.7.08-.91.23-.22.15-.4.42-.53.81Zm2.94,1.78c-.28.09-.73.21-1.34.34-.61.13-1.01.26-1.2.38-.29.2-.43.46-.43.77s.11.57.34.8c.23.22.52.34.88.34.4,0,.77-.13,1.13-.39.27-.2.44-.44.52-.73.06-.19.09-.54.09-1.07v-.44Z" style="fill:#fff;"/><path d="m878.87,436.35h-2.04v-1.22c-.34.47-.74.83-1.2,1.06s-.93.35-1.39.35c-.95,0-1.77-.38-2.45-1.15-.68-.77-1.02-1.84-1.02-3.21s.33-2.48.99-3.21c.66-.73,1.5-1.1,2.51-1.1.93,0,1.73.39,2.41,1.16v-4.12h2.2v11.45Zm-5.86-4.33c0,.89.12,1.53.37,1.92.35.57.85.86,1.48.86.5,0,.93-.21,1.29-.64s.53-1.07.53-1.93c0-.95-.17-1.64-.52-2.06-.34-.42-.78-.63-1.32-.63s-.96.21-1.31.62-.53,1.03-.53,1.86Z" style="fill:#fff;"/><path d="m885.84,433.71l2.19.37c-.28.8-.73,1.41-1.33,1.83-.61.42-1.37.63-2.28.63-1.44,0-2.51-.47-3.2-1.41-.55-.75-.82-1.71-.82-2.86,0-1.38.36-2.45,1.08-3.23.72-.78,1.63-1.17,2.73-1.17,1.23,0,2.21.41,2.92,1.22.71.82,1.05,2.06,1.02,3.75h-5.5c.02.65.19,1.16.53,1.52.34.36.76.54,1.27.54.34,0,.63-.09.87-.28s.41-.49.53-.91Zm.12-2.22c-.02-.64-.18-1.12-.49-1.45-.31-.33-.69-.5-1.14-.5-.48,0-.88.17-1.19.52-.31.35-.47.82-.46,1.42h3.28Z" style="fill:#fff;"/><path d="m892.03,436.35h-2.2v-8.3h2.04v1.18c.35-.56.66-.92.94-1.1.28-.18.59-.27.95-.27.5,0,.98.14,1.45.41l-.68,1.91c-.37-.24-.71-.36-1.03-.36s-.57.08-.78.25c-.21.17-.38.48-.5.92-.12.44-.18,1.37-.18,2.78v2.56Z" style="fill:#fff;"/><path d="m777.35,453.71l2.19.37c-.28.8-.73,1.41-1.33,1.83-.61.42-1.37.63-2.28.63-1.44,0-2.51-.47-3.2-1.41-.55-.75-.82-1.71-.82-2.86,0-1.38.36-2.45,1.08-3.23.72-.78,1.63-1.17,2.73-1.17,1.23,0,2.21.41,2.92,1.22.71.82,1.05,2.06,1.02,3.75h-5.5c.02.65.19,1.16.53,1.52.34.36.76.54,1.27.54.34,0,.63-.09.87-.28s.41-.49.53-.91Zm.12-2.22c-.02-.64-.18-1.12-.49-1.45-.31-.33-.69-.5-1.14-.5-.48,0-.88.17-1.19.52-.31.35-.47.82-.46,1.42h3.28Z" style="fill:#fff;"/><path d="m780.48,448.05h1.22v-.62c0-.7.07-1.22.22-1.56s.42-.62.82-.84c.4-.22.9-.32,1.51-.32s1.24.09,1.84.28l-.3,1.53c-.35-.08-.68-.12-1.01-.12s-.55.07-.68.22-.21.43-.21.86v.59h1.64v1.73h-1.64v6.57h-2.2v-6.57h-1.22v-1.73Z" style="fill:#fff;"/><path d="m785.81,448.05h1.22v-.62c0-.7.07-1.22.22-1.56s.42-.62.82-.84c.4-.22.9-.32,1.51-.32s1.24.09,1.84.28l-.3,1.53c-.35-.08-.68-.12-1.01-.12s-.55.07-.68.22-.21.43-.21.86v.59h1.64v1.73h-1.64v6.57h-2.2v-6.57h-1.22v-1.73Z" style="fill:#fff;"/><path d="m796.9,453.71l2.19.37c-.28.8-.73,1.41-1.33,1.83-.61.42-1.37.63-2.28.63-1.44,0-2.51-.47-3.2-1.41-.55-.75-.82-1.71-.82-2.86,0-1.38.36-2.45,1.08-3.23.72-.78,1.63-1.17,2.73-1.17,1.23,0,2.21.41,2.92,1.22.71.82,1.05,2.06,1.02,3.75h-5.5c.02.65.19,1.16.53,1.52.34.36.76.54,1.27.54.34,0,.63-.09.87-.28s.41-.49.53-.91Zm.12-2.22c-.02-.64-.18-1.12-.49-1.45-.31-.33-.69-.5-1.14-.5-.48,0-.88.17-1.19.52-.31.35-.47.82-.46,1.42h3.28Z" style="fill:#fff;"/><path d="m808.23,450.51l-2.16.39c-.07-.43-.24-.76-.5-.98s-.59-.33-1-.33c-.55,0-.98.19-1.31.57-.33.38-.49,1.01-.49,1.89,0,.98.17,1.68.5,2.09s.77.61,1.33.61c.42,0,.76-.12,1.02-.36.27-.24.45-.64.56-1.22l2.16.37c-.22.99-.65,1.74-1.29,2.24-.64.51-1.49.76-2.55.76-1.21,0-2.18-.38-2.9-1.15s-1.08-1.83-1.08-3.18.36-2.44,1.09-3.2c.72-.76,1.7-1.14,2.94-1.14,1.01,0,1.81.22,2.41.65.6.44,1.02,1.1,1.29,1.99Z" style="fill:#fff;"/><path d="m813.7,448.05v1.75h-1.5v3.34c0,.68.01,1.07.04,1.18.03.11.09.2.2.28.1.07.23.11.37.11.2,0,.5-.07.88-.21l.19,1.7c-.51.22-1.09.33-1.73.33-.4,0-.75-.07-1.07-.2s-.55-.3-.7-.52-.25-.5-.31-.86c-.05-.25-.07-.77-.07-1.55v-3.62h-1.01v-1.75h1.01v-1.65l2.2-1.28v2.93h1.5Z" style="fill:#fff;"/><path d="m815.22,446.93v-2.03h2.2v2.03h-2.2Zm0,9.42v-8.3h2.2v8.3h-2.2Z" style="fill:#fff;"/><path d="m821.95,456.35l-3.34-8.3h2.3l1.56,4.23.45,1.41c.12-.36.2-.6.23-.71.07-.23.15-.47.23-.7l1.58-4.23h2.26l-3.3,8.3h-1.98Z" style="fill:#fff;"/><path d="m833.37,453.71l2.19.37c-.28.8-.73,1.41-1.33,1.83-.61.42-1.37.63-2.28.63-1.44,0-2.51-.47-3.2-1.41-.55-.75-.82-1.71-.82-2.86,0-1.38.36-2.45,1.08-3.23.72-.78,1.63-1.17,2.73-1.17,1.23,0,2.21.41,2.92,1.22.71.82,1.05,2.06,1.02,3.75h-5.5c.02.65.19,1.16.53,1.52.34.36.76.54,1.27.54.34,0,.63-.09.87-.28s.41-.49.53-.91Zm.12-2.22c-.02-.64-.18-1.12-.49-1.45-.31-.33-.69-.5-1.14-.5-.48,0-.88.17-1.19.52-.31.35-.47.82-.46,1.42h3.28Z" style="fill:#fff;"/><path d="m845.01,456.35h-2.2v-4.23c0-.9-.05-1.48-.14-1.74-.09-.26-.25-.47-.46-.61-.21-.15-.46-.22-.76-.22-.38,0-.72.1-1.02.31-.3.21-.51.48-.62.83s-.17.98-.17,1.91v3.76h-2.2v-8.3h2.04v1.22c.72-.94,1.64-1.41,2.73-1.41.48,0,.93.09,1.33.26.4.17.7.4.91.67.21.27.35.58.43.92s.12.84.12,1.48v5.16Z" style="fill:#fff;"/><path d="m852.04,453.71l2.19.37c-.28.8-.73,1.41-1.33,1.83-.61.42-1.37.63-2.28.63-1.44,0-2.51-.47-3.2-1.41-.55-.75-.82-1.71-.82-2.86,0-1.38.36-2.45,1.08-3.23.72-.78,1.63-1.17,2.73-1.17,1.23,0,2.21.41,2.92,1.22.71.82,1.05,2.06,1.02,3.75h-5.5c.02.65.19,1.16.53,1.52.34.36.76.54,1.27.54.34,0,.63-.09.87-.28s.41-.49.53-.91Zm.12-2.22c-.02-.64-.18-1.12-.49-1.45-.31-.33-.69-.5-1.14-.5-.48,0-.88.17-1.19.52-.31.35-.47.82-.46,1.42h3.28Z" style="fill:#fff;"/><path d="m855.36,453.98l2.2-.34c.09.43.28.75.57.97.29.22.69.33,1.2.33.57,0,1-.1,1.28-.31.19-.15.29-.34.29-.59,0-.17-.05-.3-.16-.41-.11-.1-.35-.2-.73-.29-1.77-.39-2.89-.75-3.37-1.07-.66-.45-.98-1.07-.98-1.87,0-.72.28-1.32.85-1.81.57-.49,1.45-.73,2.64-.73s1.98.19,2.53.55c.55.37.93.92,1.14,1.64l-2.07.38c-.09-.32-.26-.57-.5-.74s-.6-.26-1.06-.26c-.58,0-.99.08-1.24.24-.17.11-.25.26-.25.45,0,.16.07.29.22.4.2.15.88.35,2.05.62s1.99.59,2.45.98c.46.39.69.94.69,1.63,0,.76-.32,1.41-.95,1.96s-1.58.82-2.82.82c-1.13,0-2.02-.23-2.68-.69-.66-.46-1.09-1.08-1.29-1.87Z" style="fill:#fff;"/><path d="m864.26,453.98l2.2-.34c.09.43.28.75.57.97.29.22.69.33,1.2.33.57,0,1-.1,1.28-.31.19-.15.29-.34.29-.59,0-.17-.05-.3-.16-.41-.11-.1-.35-.2-.73-.29-1.77-.39-2.89-.75-3.37-1.07-.66-.45-.98-1.07-.98-1.87,0-.72.28-1.32.85-1.81.57-.49,1.45-.73,2.64-.73s1.98.19,2.53.55c.55.37.93.92,1.14,1.64l-2.07.38c-.09-.32-.26-.57-.5-.74s-.6-.26-1.06-.26c-.58,0-.99.08-1.24.24-.17.11-.25.26-.25.45,0,.16.07.29.22.4.2.15.88.35,2.05.62s1.99.59,2.45.98c.46.39.69.94.69,1.63,0,.76-.32,1.41-.95,1.96s-1.58.82-2.82.82c-1.13,0-2.02-.23-2.68-.69-.66-.46-1.09-1.08-1.29-1.87Z" style="fill:#fff;"/><rect x="53.02" y="32.5" width="200" height="100" style="fill:none; stroke:#000; stroke-miterlimit:8;"/><text transform="translate(81.44 77.22)" style="fill:#1d1d1b;"><tspan style="font-family:Arial-BoldMT, Arial; font-size:16px; font-weight:700;"><tspan x="0" y="0">Genetics</tspan></tspan><tspan style="font-family:ArialMT, Arial; font-size:12px;"><tspan x="0" y="20.4">Mutation</tspan></tspan></text><rect x="53.02" y="392.5" width="200" height="100" style="fill:none; stroke:#000; stroke-miterlimit:8;"/><text transform="translate(81.44 415.61)" style="fill:#1d1d1b;"><tspan style="font-family:Arial-BoldMT, Arial; font-size:16px; font-weight:700;"><tspan x="0" y="0">Selection process</tspan></tspan><tspan style="font-family:ArialMT, Arial; font-size:12px;"><tspan x="0" y="20.4">Natural selection</tspan></tspan><tspan style="font-family:ArialMT, Arial; font-size:12px;"><tspan x="0" y="34.8">(survival fitness)</tspan></tspan><tspan style="font-family:ArialMT, Arial; font-size:12px;"><tspan x="0" y="49.2">Sexual selection</tspan></tspan><tspan style="font-family:ArialMT, Arial; font-size:12px;"><tspan x="0" y="63.6">(reproductive fitness)</tspan></tspan></text><rect x="394" y="212.5" width="200" height="100" style="fill:#fff; stroke:#000; stroke-miterlimit:8; stroke-width:2px;"/><text transform="translate(418.41 242.19)" style="fill:#1d1d1b;"><tspan style="font-family:Arial-BoldMT, Arial; font-size:16px; font-weight:700;"><tspan x="0" y="0">Adaptive processes</tspan></tspan><tspan style="font-family:ArialMT, Arial; font-size:12px;"><tspan x="0" y="20.4">Getting along</tspan></tspan><tspan style="font-family:ArialMT, Arial; font-size:12px;"><tspan x="0" y="34.8">Getting ahead</tspan></tspan><tspan style="font-family:ArialMT, Arial; font-size:12px;"><tspan x="0" y="49.2">Providing meaning</tspan></tspan></text><line x1="111.29" y1="139.68" x2="111.29" y2="385.32" style="fill:none; stroke:#000; stroke-miterlimit:8;"/><polygon points="106.3 141.13 111.29 132.5 116.27 141.13 106.3 141.13"/><polygon points="106.3 383.87 111.29 392.5 116.27 383.87 106.3 383.87"/><line x1="888.11" y1="139.68" x2="888.11" y2="385.32" style="fill:none; stroke:#000; stroke-miterlimit:8; stroke-width:2px;"/><polygon points="883.12 141.13 888.11 132.5 893.09 141.13 883.12 141.13"/><polygon points="883.12 383.87 888.11 392.5 893.09 383.87 883.12 383.87"/><line x1="175.65" y1="132.5" x2="254" y2="212.5" style="fill:#fff;"/><line x1="175.65" y1="132.5" x2="248.98" y2="207.37" style="fill:none; stroke:#000; stroke-miterlimit:8;"/><polygon points="244.4 209.82 254 212.5 251.52 202.84 244.4 209.82"/><line x1="175.65" y1="392.5" x2="254" y2="312.5" style="fill:#fff;"/><line x1="175.65" y1="392.5" x2="248.98" y2="317.63" style="fill:none; stroke:#000; stroke-miterlimit:8;"/><polygon points="251.52 322.16 254 312.5 244.4 315.18 251.52 322.16"/><line x1="742.97" y1="212.5" x2="821.32" y2="132.5" style="fill:#fff;"/><line x1="742.97" y1="212.5" x2="816.3" y2="137.63" style="fill:none; stroke:#000; stroke-miterlimit:8; stroke-width:2px;"/><polygon points="818.84 142.16 821.32 132.5 811.71 135.18 818.84 142.16"/><line x1="742.97" y1="312.5" x2="821.32" y2="392.5" style="fill:#fff;"/><line x1="742.97" y1="312.5" x2="816.3" y2="387.37" style="fill:none; stroke:#000; stroke-miterlimit:8; stroke-width:2px;"/><polygon points="811.71 389.82 821.32 392.5 818.84 382.84 811.71 389.82"/><line x1="354" y1="262.5" x2="386.82" y2="262.5" style="fill:none; stroke:#000; stroke-miterlimit:8; stroke-width:2px;"/><polygon points="385.37 267.49 394 262.5 385.37 257.51 385.37 267.49"/><line x1="594" y1="262.5" x2="626.82" y2="262.5" style="fill:none; stroke:#000; stroke-miterlimit:8; stroke-width:2px;"/><polygon points="625.37 267.49 634 262.5 625.37 257.51 625.37 267.49"/><line x1="315.22" y1="312.5" x2="315.22" y2="313.5" style="fill:none; stroke:#000; stroke-miterlimit:8;"/><line x1="315.22" y1="317.42" x2="315.22" y2="450.62" style="fill:none; stroke:#000; stroke-dasharray:0 0 1.96 3.92; stroke-miterlimit:8;"/><polyline points="315.22 452.58 315.22 453.58 316.22 453.58" style="fill:none; stroke:#000; stroke-miterlimit:8;"/><line x1="320.23" y1="453.58" x2="732.79" y2="453.58" style="fill:none; stroke:#000; stroke-dasharray:0 0 2 4.01; stroke-miterlimit:8;"/><line x1="734.8" y1="453.58" x2="735.8" y2="453.58" style="fill:none; stroke:#000; stroke-miterlimit:8;"/><polygon points="734.34 458.56 742.97 453.58 734.34 448.59 734.34 458.56"/><line x1="315.22" y1="212.5" x2="315.22" y2="211.5" style="fill:none; stroke:#000; stroke-miterlimit:8;"/><line x1="315.22" y1="207.58" x2="315.22" y2="74.38" style="fill:none; stroke:#000; stroke-dasharray:0 0 1.96 3.92; stroke-miterlimit:8;"/><polyline points="315.22 72.42 315.22 71.42 316.22 71.42" style="fill:none; stroke:#000; stroke-miterlimit:8;"/><line x1="320.23" y1="71.42" x2="732.79" y2="71.42" style="fill:none; stroke:#000; stroke-dasharray:0 0 2 4.01; stroke-miterlimit:8;"/><line x1="734.8" y1="71.42" x2="735.8" y2="71.42" style="fill:none; stroke:#000; stroke-miterlimit:8;"/><polygon points="734.34 76.41 742.97 71.42 734.34 66.44 734.34 76.41"/><rect x="539" y="100.05" width="150" height="75" style="fill:none; stroke:#000; stroke-miterlimit:8;"/><text transform="translate(557.31 122.32)" style="fill:#1d1d1b;"><tspan style="font-family:Arial-BoldMT, Arial; font-size:12px; font-weight:700;"><tspan x="0" y="0">Moderators</tspan></tspan><tspan style="font-family:ArialMT, Arial; font-size:9px;"><tspan x="0" y="15.3" style="letter-spacing:-.04em;">T</tspan><tspan x="5.16" y="15.3" style="letter-spacing:0em;">raits</tspan></tspan><tspan style="font-family:ArialMT, Arial; font-size:9px;"><tspan x="0" y="26.1">Implicit leadership theories</tspan></tspan><tspan style="font-family:ArialMT, Arial; font-size:9px;"><tspan x="0" y="36.9">...</tspan></tspan></text><rect x="539" y="349.95" width="150" height="75" style="fill:none; stroke:#000; stroke-miterlimit:8;"/><text transform="translate(557.31 372.22)" style="fill:#1d1d1b;"><tspan style="font-family:Arial-BoldMT, Arial; font-size:12px; font-weight:700;"><tspan x="0" y="0">Moderators</tspan></tspan><tspan style="font-family:ArialMT, Arial; font-size:9px;"><tspan x="0" y="15.3">Threats</tspan></tspan><tspan style="font-family:ArialMT, Arial; font-size:9px;"><tspan x="0" y="26.1">Rsources</tspan></tspan><tspan style="font-family:ArialMT, Arial; font-size:9px;"><tspan x="0" y="36.9">Culture</tspan></tspan></text><line x1="689" y1="387.45" x2="765.12" y2="345.01" style="fill:none; stroke:#000; stroke-dasharray:0 0 2 4; stroke-miterlimit:8;"/><polygon points="766.28 350.08 771.39 341.52 761.42 341.37 766.28 350.08"/><line x1="689" y1="136.48" x2="765.12" y2="178.91" style="fill:none; stroke:#000; stroke-dasharray:0 0 2 4; stroke-miterlimit:8;"/><polygon points="761.42 182.55 771.39 182.4 766.28 173.84 761.42 182.55"/></svg>