<?xml version="1.0" encoding="UTF-8"?><svg id="a" xmlns="http://www.w3.org/2000/svg" viewBox="0 0 988 525"><defs><style>.b{fill:#fff;stroke-width:2px;}.b,.c{stroke:#000;stroke-miterlimit:8;}.d{letter-spacing:0em;}.e{letter-spacing:0em;}.f{letter-spacing:0em;}.f,.g{font-size:13.71px;}.f,.g,.h{font-family:ArialMT, Arial;}.i,.j{font-family:Arial-BoldMT, Arial;font-size:16px;}.k,.j{letter-spacing:0em;}.h{fill:#1d1d1b;font-size:14px;}.l{letter-spacing:0em;}.c{fill:none;}.m{letter-spacing:0em;}</style></defs><g><rect class="b" x="135" y="56.36" width="172.67" height="68"/><text class="i" transform="translate(180.49 96.03)"><tspan class="k" x="0" y="0">M</tspan><tspan class="l" x="13.3" y="0">i</tspan><tspan class="d" x="17.73" y="0">t</tspan><tspan x="23.01" y="0">ar</tspan><tspan class="m" x="38.13" y="0">b</tspan><tspan x="47.94" y="0">e</tspan><tspan class="l" x="56.83" y="0">i</tspan><tspan class="d" x="61.26" y="0">t</tspan><tspan class="e" x="66.54" y="0">e</tspan><tspan x="75.46" y="0">r</tspan></text><polygon class="c" points="430.33 89.94 488.33 64.94 546.33 89.94 488.33 114.94 430.33 89.94"/><text class="f" transform="translate(474.09 94.03)"><tspan x="0" y="0">leitet</tspan></text><line class="c" x1="307.67" y1="89.61" x2="430.54" y2="89.61"/><line class="c" x1="546.33" y1="89.61" x2="681.05" y2="89.61"/><rect class="b" x="681" y="56.36" width="172" height="68"/><text class="i" transform="translate(739.88 96.03)"><tspan x="0" y="0">Projekt</tspan></text><text class="g" transform="translate(663.06 80.36)"><tspan x="0" y="0">1</tspan></text></g><g><rect class="b" x="135" y="203.77" width="172.67" height="68"/><text class="i" transform="translate(180.49 243.44)"><tspan class="k" x="0" y="0">M</tspan><tspan class="l" x="13.3" y="0">i</tspan><tspan class="d" x="17.73" y="0">t</tspan><tspan x="23.01" y="0">ar</tspan><tspan class="m" x="38.13" y="0">b</tspan><tspan x="47.94" y="0">e</tspan><tspan class="l" x="56.83" y="0">i</tspan><tspan class="d" x="61.26" y="0">t</tspan><tspan class="e" x="66.54" y="0">e</tspan><tspan x="75.46" y="0">r</tspan></text><polygon class="c" points="430.33 237.35 488.33 212.35 546.33 237.35 488.33 262.35 430.33 237.35"/><text class="f" transform="translate(465.42 241.44)"><tspan x="0" y="0">erbringt</tspan></text><line class="c" x1="307.67" y1="237.02" x2="430.54" y2="237.02"/><line class="c" x1="546.33" y1="237.02" x2="681.05" y2="237.02"/><rect class="b" x="681" y="203.77" width="172" height="68"/><text class="i" transform="translate(733.67 243.44)"><tspan x="0" y="0">Leistung</tspan></text><text class="g" transform="translate(318.46 227.77)"><tspan x="0" y="0">1</tspan></text><text class="g" transform="translate(663.06 227.77)"><tspan x="0" y="0">n</tspan></text></g><g><rect class="b" x="135" y="351.18" width="172.67" height="68"/><text class="j" transform="translate(188.11 390.85)"><tspan x="0" y="0">Leistung</tspan></text><polygon class="c" points="430.33 384.76 488.33 359.76 546.33 384.76 488.33 409.76 430.33 384.76"/><text class="f" transform="translate(460.13 388.85)"><tspan x="0" y="0">gehört zu</tspan></text><line class="c" x1="307.67" y1="384.43" x2="430.54" y2="384.43"/><line class="c" x1="546.33" y1="384.43" x2="681.05" y2="384.43"/><rect class="b" x="681" y="351.18" width="172" height="68"/><text class="i" transform="translate(738.56 390.85)"><tspan x="0" y="0">Auftrag</tspan></text><text class="g" transform="translate(318.46 375.18)"><tspan x="0" y="0">n</tspan></text><text class="g" transform="translate(663.06 375.18)"><tspan x="0" y="0">1</tspan></text></g><text class="h" transform="translate(135 157.8)"><tspan x="0" y="0">Ein Mitarbeiter leitet genau ein Projekt; ein Projekt wird von genau einem Mitarbeiter geleitet</tspan></text><text class="h" transform="translate(135 305.21)"><tspan x="0" y="0">Ein Mitarbeiter erbringt mehrere Leistungen; eine Leistung wird immer von genau einem Mitarbeiter erbracht</tspan></text><text class="h" transform="translate(135 452.62)"><tspan x="0" y="0">Eine Leistung gehört zu genau einem Auftrag; ein Auftrag kann mehrere Leistungen umfassen.</tspan></text><text class="g" transform="translate(318.46 80.36)"><tspan x="0" y="0">1</tspan></text></svg>