<?xml version="1.0" encoding="UTF-8"?>
<svg id="Ebene_1" data-name="Ebene 1" xmlns="http://www.w3.org/2000/svg" viewBox="0 0 988 525">
  <defs>
    <style>
      .cls-1 {
        fill: #fff;
      }

      .cls-1, .cls-2, .cls-3 {
        stroke-miterlimit: 10;
      }

      .cls-1, .cls-3 {
        stroke: #000;
      }

      .cls-4 {
        font-family: Arial-BoldMT, Arial;
        font-weight: 700;
      }

      .cls-4, .cls-5, .cls-6 {
        fill: #000;
      }

      .cls-4, .cls-6 {
        font-size: 18px;
      }

      .cls-2 {
        stroke: #0333ff;
        stroke-dasharray: 0 0 4 4;
        stroke-width: .5px;
      }

      .cls-2, .cls-3 {
        fill: none;
      }

      .cls-7 {
        fill: #0333ff;
      }

      .cls-7, .cls-5 {
        stroke-width: 0px;
      }

      .cls-6 {
        font-family: ArialMT, Arial;
      }
    </style>
  </defs>
  <g>
    <path class="cls-7" d="M341.25,436.17v-12.88h5.48c1.38,0,2.38.12,3,.35s1.12.64,1.5,1.23.56,1.27.56,2.03c0,.97-.28,1.77-.85,2.4s-1.42,1.03-2.55,1.19c.56.33,1.03.69,1.39,1.08s.86,1.09,1.48,2.09l1.57,2.51h-3.11l-1.88-2.8c-.67-1-1.12-1.63-1.37-1.89s-.51-.44-.78-.54c-.28-.1-.71-.14-1.31-.14h-.53v5.38h-2.6ZM343.85,428.74h1.92c1.25,0,2.03-.05,2.34-.16s.55-.29.73-.54.26-.58.26-.97c0-.43-.12-.78-.35-1.05-.23-.27-.56-.43-.98-.5-.21-.03-.84-.04-1.9-.04h-2.03v3.27Z"/>
    <path class="cls-7" d="M359.62,433.2l2.46.41c-.32.9-.82,1.59-1.5,2.06s-1.54.71-2.56.71c-1.62,0-2.82-.53-3.6-1.59-.62-.85-.92-1.92-.92-3.22,0-1.55.4-2.76,1.21-3.63s1.83-1.31,3.07-1.31c1.39,0,2.48.46,3.29,1.38.8.92,1.19,2.32,1.15,4.21h-6.19c.02.73.22,1.3.6,1.71.38.41.86.61,1.42.61.39,0,.71-.11.98-.32s.46-.55.6-1.02ZM359.76,430.71c-.02-.71-.2-1.26-.55-1.63-.35-.37-.78-.56-1.28-.56-.54,0-.98.2-1.34.59s-.52.93-.52,1.6h3.69Z"/>
    <path class="cls-7" d="M366.08,429.69l-2.24-.4c.25-.9.69-1.57,1.3-2s1.53-.65,2.74-.65c1.1,0,1.92.13,2.46.39.54.26.92.59,1.14.99s.33,1.14.33,2.21l-.03,2.88c0,.82.04,1.43.12,1.82s.23.81.44,1.25h-2.44c-.06-.16-.14-.41-.24-.73-.04-.15-.07-.24-.09-.29-.42.41-.87.72-1.35.92s-.99.31-1.54.31c-.96,0-1.72-.26-2.27-.78s-.83-1.18-.83-1.98c0-.53.13-1,.38-1.41.25-.41.6-.73,1.06-.95.45-.22,1.11-.41,1.96-.58,1.15-.22,1.95-.42,2.4-.61v-.25c0-.47-.12-.81-.35-1.01-.23-.2-.68-.3-1.33-.3-.44,0-.78.09-1.03.26-.25.17-.45.48-.6.91ZM369.38,431.69c-.32.11-.82.23-1.5.38s-1.13.29-1.34.43c-.32.23-.48.52-.48.87s.13.64.39.9.59.38.98.38c.45,0,.87-.15,1.27-.44.3-.22.5-.5.59-.82.06-.21.1-.61.1-1.2v-.49Z"/>
    <path class="cls-7" d="M382.38,429.6l-2.43.44c-.08-.49-.27-.85-.56-1.1s-.67-.37-1.13-.37c-.62,0-1.11.21-1.47.64s-.55,1.13-.55,2.13c0,1.11.19,1.89.56,2.35s.87.69,1.5.69c.47,0,.85-.13,1.15-.4s.51-.73.63-1.38l2.43.41c-.25,1.11-.74,1.95-1.45,2.52s-1.67.85-2.87.85c-1.37,0-2.45-.43-3.27-1.29s-1.22-2.05-1.22-3.58.41-2.74,1.22-3.6c.81-.86,1.92-1.29,3.3-1.29,1.14,0,2.04.25,2.71.73s1.15,1.23,1.45,2.24Z"/>
    <path class="cls-7" d="M388.53,426.84v1.97h-1.69v3.76c0,.76.02,1.21.05,1.33s.11.23.22.31.25.12.42.12c.23,0,.56-.08.99-.24l.21,1.92c-.57.25-1.22.37-1.95.37-.45,0-.85-.07-1.2-.22-.36-.15-.62-.34-.79-.58-.17-.24-.28-.56-.35-.96-.05-.29-.08-.87-.08-1.74v-4.07h-1.13v-1.97h1.13v-1.85l2.48-1.44v3.3h1.69Z"/>
    <path class="cls-7" d="M390.25,425.58v-2.29h2.47v2.29h-2.47ZM390.25,436.17v-9.33h2.47v9.33h-2.47Z"/>
    <path class="cls-7" d="M397.81,436.17l-3.76-9.33h2.59l1.76,4.76.51,1.59c.13-.4.22-.67.25-.8.08-.26.17-.53.26-.79l1.78-4.76h2.54l-3.71,9.33h-2.22Z"/>
    <path class="cls-7" d="M410.66,433.2l2.46.41c-.32.9-.82,1.59-1.5,2.06s-1.54.71-2.56.71c-1.62,0-2.82-.53-3.6-1.59-.62-.85-.92-1.92-.92-3.22,0-1.55.4-2.76,1.21-3.63s1.83-1.31,3.07-1.31c1.39,0,2.48.46,3.29,1.38.8.92,1.19,2.32,1.15,4.21h-6.19c.02.73.22,1.3.6,1.71.38.41.86.61,1.42.61.39,0,.71-.11.98-.32s.46-.55.6-1.02ZM410.8,430.71c-.02-.71-.2-1.26-.55-1.63-.35-.37-.78-.56-1.28-.56-.54,0-.98.2-1.34.59s-.52.93-.52,1.6h3.69Z"/>
    <path class="cls-7" d="M420.16,436.17v-12.88h2.47v4.64c.76-.87,1.66-1.3,2.71-1.3,1.14,0,2.08.41,2.82,1.23.74.82,1.12,2.01,1.12,3.55s-.38,2.82-1.14,3.68-1.68,1.29-2.76,1.29c-.53,0-1.06-.13-1.58-.4-.52-.27-.97-.66-1.34-1.18v1.37h-2.29ZM422.62,431.31c0,.97.15,1.68.46,2.14.43.66,1,.98,1.71.98.54,0,1.01-.23,1.39-.7.38-.46.58-1.2.58-2.2,0-1.07-.19-1.83-.58-2.31s-.88-.71-1.49-.71-1.08.23-1.48.69-.59,1.16-.59,2.1Z"/>
    <path class="cls-7" d="M436.67,433.2l2.46.41c-.32.9-.82,1.59-1.5,2.06s-1.54.71-2.56.71c-1.62,0-2.82-.53-3.6-1.59-.62-.85-.92-1.92-.92-3.22,0-1.55.4-2.76,1.21-3.63s1.83-1.31,3.07-1.31c1.39,0,2.48.46,3.29,1.38.8.92,1.19,2.32,1.15,4.21h-6.19c.02.73.22,1.3.6,1.71.38.41.86.61,1.42.61.39,0,.71-.11.98-.32s.46-.55.6-1.02ZM436.81,430.71c-.02-.71-.2-1.26-.55-1.63-.35-.37-.78-.56-1.28-.56-.54,0-.98.2-1.34.59s-.52.93-.52,1.6h3.69Z"/>
    <path class="cls-7" d="M443.74,423.29v4.74c.8-.93,1.75-1.4,2.86-1.4.57,0,1.08.11,1.54.32s.8.48,1.03.81.39.69.47,1.09.13,1.02.13,1.85v5.48h-2.47v-4.93c0-.98-.05-1.6-.14-1.86s-.26-.47-.5-.63-.53-.23-.89-.23c-.41,0-.78.1-1.1.3s-.56.5-.71.9-.22.99-.22,1.78v4.68h-2.47v-12.88h2.47Z"/>
    <path class="cls-7" d="M454.12,429.69l-2.24-.4c.25-.9.69-1.57,1.3-2s1.53-.65,2.74-.65c1.1,0,1.92.13,2.46.39.54.26.92.59,1.14.99s.33,1.14.33,2.21l-.03,2.88c0,.82.04,1.43.12,1.82s.23.81.44,1.25h-2.44c-.06-.16-.14-.41-.24-.73-.04-.15-.07-.24-.09-.29-.42.41-.87.72-1.35.92s-.99.31-1.54.31c-.96,0-1.72-.26-2.27-.78s-.83-1.18-.83-1.98c0-.53.13-1,.38-1.41.25-.41.6-.73,1.06-.95.45-.22,1.11-.41,1.96-.58,1.15-.22,1.95-.42,2.4-.61v-.25c0-.47-.12-.81-.35-1.01-.23-.2-.68-.3-1.33-.3-.44,0-.78.09-1.03.26-.25.17-.45.48-.6.91ZM457.42,431.69c-.32.11-.82.23-1.5.38s-1.13.29-1.34.43c-.32.23-.48.52-.48.87s.13.64.39.9.59.38.98.38c.45,0,.87-.15,1.27-.44.3-.22.5-.5.59-.82.06-.21.1-.61.1-1.2v-.49Z"/>
    <path class="cls-7" d="M464.85,436.17l-3.76-9.33h2.59l1.76,4.76.51,1.59c.13-.4.22-.67.25-.8.08-.26.17-.53.26-.79l1.78-4.76h2.54l-3.71,9.33h-2.22Z"/>
    <path class="cls-7" d="M472.29,425.58v-2.29h2.47v2.29h-2.47ZM472.29,436.17v-9.33h2.47v9.33h-2.47Z"/>
    <path class="cls-7" d="M476.72,431.38c0-.82.2-1.61.61-2.38s.98-1.35,1.72-1.76,1.57-.61,2.48-.61c1.41,0,2.57.46,3.47,1.38.9.92,1.35,2.08,1.35,3.48s-.46,2.58-1.37,3.51-2.06,1.39-3.44,1.39c-.86,0-1.67-.19-2.45-.58s-1.37-.95-1.77-1.7c-.4-.75-.61-1.66-.61-2.73ZM479.25,431.51c0,.93.22,1.63.66,2.13s.98.74,1.63.74,1.19-.25,1.62-.74.65-1.21.65-2.14-.22-1.62-.65-2.11-.98-.74-1.62-.74-1.19.25-1.63.74-.66,1.2-.66,2.13Z"/>
    <path class="cls-7" d="M490.65,436.17h-2.47v-9.33h2.29v1.33c.39-.63.75-1.04,1.06-1.24s.67-.3,1.07-.3c.56,0,1.1.16,1.63.47l-.76,2.15c-.42-.27-.8-.4-1.16-.4s-.64.1-.88.29c-.24.19-.43.54-.57,1.03s-.21,1.54-.21,3.13v2.88Z"/>
    <path class="cls-7" d="M278.25,447.17v-2.29h2.47v2.29h-2.47ZM278.25,457.77v-9.33h2.47v9.33h-2.47Z"/>
    <path class="cls-7" d="M291.74,457.77h-2.47v-4.76c0-1.01-.05-1.66-.16-1.96s-.28-.53-.51-.69-.52-.25-.86-.25c-.43,0-.81.12-1.15.35s-.57.54-.7.93-.19,1.1-.19,2.14v4.23h-2.47v-9.33h2.29v1.37c.81-1.05,1.84-1.58,3.08-1.58.54,0,1.04.1,1.49.29s.79.45,1.02.75.39.65.48,1.04.14.94.14,1.66v5.8Z"/>
    <path class="cls-7" d="M301.61,457.77h-2.47v-9.33h2.29v1.33c.39-.63.75-1.04,1.06-1.24s.67-.3,1.07-.3c.56,0,1.1.16,1.63.47l-.76,2.15c-.42-.27-.8-.4-1.16-.4s-.64.1-.88.29c-.24.19-.43.54-.57,1.03s-.21,1.54-.21,3.13v2.88Z"/>
    <path class="cls-7" d="M311.65,454.8l2.46.41c-.32.9-.82,1.59-1.5,2.06s-1.54.71-2.56.71c-1.62,0-2.82-.53-3.6-1.59-.62-.85-.92-1.92-.92-3.22,0-1.55.4-2.76,1.21-3.63s1.83-1.31,3.07-1.31c1.39,0,2.48.46,3.29,1.38.8.92,1.19,2.32,1.15,4.21h-6.19c.02.73.22,1.3.6,1.71.38.41.86.61,1.42.61.39,0,.71-.11.98-.32s.46-.55.6-1.02ZM311.79,452.31c-.02-.71-.2-1.26-.55-1.63-.35-.37-.78-.56-1.28-.56-.54,0-.98.2-1.34.59s-.52.93-.52,1.6h3.69Z"/>
    <path class="cls-7" d="M315.39,455.11l2.48-.38c.11.48.32.85.64,1.09.32.25.77.37,1.35.37.64,0,1.12-.12,1.44-.35.22-.16.33-.38.33-.66,0-.19-.06-.34-.18-.47-.12-.12-.4-.23-.83-.33-1.99-.44-3.25-.84-3.79-1.2-.74-.5-1.11-1.2-1.11-2.1,0-.81.32-1.49.96-2.04s1.63-.83,2.97-.83,2.23.21,2.85.62,1.05,1.03,1.28,1.85l-2.33.43c-.1-.36-.29-.64-.57-.83s-.68-.29-1.19-.29c-.65,0-1.12.09-1.4.27-.19.13-.28.3-.28.5,0,.18.08.33.25.45.22.16.99.4,2.31.69s2.23.67,2.76,1.1c.52.44.77,1.05.77,1.84,0,.86-.36,1.59-1.07,2.21s-1.77.92-3.17.92c-1.27,0-2.28-.26-3.02-.77s-1.23-1.22-1.45-2.1Z"/>
    <path class="cls-7" d="M326.2,448.44h2.3v1.37c.3-.47.7-.85,1.21-1.14s1.08-.44,1.7-.44c1.08,0,2,.42,2.76,1.27s1.13,2.03,1.13,3.55-.38,2.77-1.14,3.63c-.76.87-1.68,1.3-2.77,1.3-.52,0-.98-.1-1.4-.31s-.86-.56-1.32-1.05v4.7h-2.47v-12.88ZM328.64,452.95c0,1.05.21,1.82.62,2.33.42.5.92.75,1.52.75s1.05-.23,1.43-.69c.38-.46.57-1.21.57-2.26,0-.98-.2-1.71-.59-2.18s-.88-.71-1.46-.71-1.1.23-1.5.7c-.4.46-.6,1.16-.6,2.07Z"/>
    <path class="cls-7" d="M336.69,452.98c0-.82.2-1.61.61-2.38s.98-1.35,1.72-1.76,1.57-.61,2.48-.61c1.41,0,2.57.46,3.47,1.38.9.92,1.35,2.08,1.35,3.48s-.46,2.58-1.37,3.51-2.06,1.39-3.44,1.39c-.86,0-1.67-.19-2.45-.58s-1.37-.95-1.77-1.7c-.4-.75-.61-1.66-.61-2.73ZM339.22,453.11c0,.93.22,1.63.66,2.13s.98.74,1.63.74,1.19-.25,1.62-.74.65-1.21.65-2.14-.22-1.62-.65-2.11-.98-.74-1.62-.74-1.19.25-1.63.74-.66,1.2-.66,2.13Z"/>
    <path class="cls-7" d="M356.75,457.77h-2.47v-4.76c0-1.01-.05-1.66-.16-1.96s-.28-.53-.51-.69-.52-.25-.86-.25c-.43,0-.81.12-1.15.35s-.57.54-.7.93-.19,1.1-.19,2.14v4.23h-2.47v-9.33h2.29v1.37c.81-1.05,1.84-1.58,3.08-1.58.54,0,1.04.1,1.49.29s.79.45,1.02.75.39.65.48,1.04.14.94.14,1.66v5.8Z"/>
    <path class="cls-7" d="M358.39,455.11l2.48-.38c.11.48.32.85.64,1.09.32.25.77.37,1.35.37.64,0,1.12-.12,1.44-.35.22-.16.33-.38.33-.66,0-.19-.06-.34-.18-.47-.12-.12-.4-.23-.83-.33-1.99-.44-3.25-.84-3.79-1.2-.74-.5-1.11-1.2-1.11-2.1,0-.81.32-1.49.96-2.04s1.63-.83,2.97-.83,2.23.21,2.85.62,1.05,1.03,1.28,1.85l-2.33.43c-.1-.36-.29-.64-.57-.83s-.68-.29-1.19-.29c-.65,0-1.12.09-1.4.27-.19.13-.28.3-.28.5,0,.18.08.33.25.45.22.16.99.4,2.31.69s2.23.67,2.76,1.1c.52.44.77,1.05.77,1.84,0,.86-.36,1.59-1.07,2.21s-1.77.92-3.17.92c-1.27,0-2.28-.26-3.02-.77s-1.23-1.22-1.45-2.1Z"/>
    <path class="cls-7" d="M374.67,454.8l2.46.41c-.32.9-.82,1.59-1.5,2.06s-1.54.71-2.56.71c-1.62,0-2.82-.53-3.6-1.59-.62-.85-.92-1.92-.92-3.22,0-1.55.4-2.76,1.21-3.63s1.83-1.31,3.07-1.31c1.39,0,2.48.46,3.29,1.38.8.92,1.19,2.32,1.15,4.21h-6.19c.02.73.22,1.3.6,1.71.38.41.86.61,1.42.61.39,0,.71-.11.98-.32s.46-.55.6-1.02ZM374.81,452.31c-.02-.71-.2-1.26-.55-1.63-.35-.37-.78-.56-1.28-.56-.54,0-.98.2-1.34.59s-.52.93-.52,1.6h3.69Z"/>
    <path class="cls-7" d="M388.56,448.44v1.97h-1.69v3.76c0,.76.02,1.21.05,1.33s.11.23.22.31.25.12.42.12c.23,0,.56-.08.99-.24l.21,1.92c-.57.25-1.22.37-1.95.37-.45,0-.85-.07-1.2-.22-.36-.15-.62-.34-.79-.58-.17-.24-.28-.56-.35-.96-.05-.29-.08-.87-.08-1.74v-4.07h-1.13v-1.97h1.13v-1.85l2.48-1.44v3.3h1.69Z"/>
    <path class="cls-7" d="M389.7,452.98c0-.82.2-1.61.61-2.38s.98-1.35,1.72-1.76,1.57-.61,2.48-.61c1.41,0,2.57.46,3.47,1.38.9.92,1.35,2.08,1.35,3.48s-.46,2.58-1.37,3.51-2.06,1.39-3.44,1.39c-.86,0-1.67-.19-2.45-.58s-1.37-.95-1.77-1.7c-.4-.75-.61-1.66-.61-2.73ZM392.23,453.11c0,.93.22,1.63.66,2.13s.98.74,1.63.74,1.19-.25,1.62-.74.65-1.21.65-2.14-.22-1.62-.65-2.11-.98-.74-1.62-.74-1.19.25-1.63.74-.66,1.2-.66,2.13Z"/>
    <path class="cls-7" d="M408.11,451.29l-2.24-.4c.25-.9.69-1.57,1.3-2s1.53-.65,2.74-.65c1.1,0,1.92.13,2.46.39.54.26.92.59,1.14.99s.33,1.14.33,2.21l-.03,2.88c0,.82.04,1.43.12,1.82s.23.81.44,1.25h-2.44c-.06-.16-.14-.41-.24-.73-.04-.15-.07-.24-.09-.29-.42.41-.87.72-1.35.92s-.99.31-1.54.31c-.96,0-1.72-.26-2.27-.78s-.83-1.18-.83-1.98c0-.53.13-1,.38-1.41.25-.41.6-.73,1.06-.95.45-.22,1.11-.41,1.96-.58,1.15-.22,1.95-.42,2.4-.61v-.25c0-.47-.12-.81-.35-1.01-.23-.2-.68-.3-1.33-.3-.44,0-.78.09-1.03.26-.25.17-.45.48-.6.91ZM411.42,453.29c-.32.11-.82.23-1.5.38s-1.13.29-1.34.43c-.32.23-.48.52-.48.87s.13.64.39.9.59.38.98.38c.45,0,.87-.15,1.27-.44.3-.22.5-.5.59-.82.06-.21.1-.61.1-1.2v-.49Z"/>
    <path class="cls-7" d="M420.41,455.11l2.48-.38c.11.48.32.85.64,1.09.32.25.77.37,1.35.37.64,0,1.12-.12,1.44-.35.22-.16.33-.38.33-.66,0-.19-.06-.34-.18-.47-.12-.12-.4-.23-.83-.33-1.99-.44-3.25-.84-3.79-1.2-.74-.5-1.11-1.2-1.11-2.1,0-.81.32-1.49.96-2.04s1.63-.83,2.97-.83,2.23.21,2.85.62,1.05,1.03,1.28,1.85l-2.33.43c-.1-.36-.29-.64-.57-.83s-.68-.29-1.19-.29c-.65,0-1.12.09-1.4.27-.19.13-.28.3-.28.5,0,.18.08.33.25.45.22.16.99.4,2.31.69s2.23.67,2.76,1.1c.52.44.77,1.05.77,1.84,0,.86-.36,1.59-1.07,2.21s-1.77.92-3.17.92c-1.27,0-2.28-.26-3.02-.77s-1.23-1.22-1.45-2.1Z"/>
    <path class="cls-7" d="M435.57,448.44v1.97h-1.69v3.76c0,.76.02,1.21.05,1.33s.11.23.22.31.25.12.42.12c.23,0,.56-.08.99-.24l.21,1.92c-.57.25-1.22.37-1.95.37-.45,0-.85-.07-1.2-.22-.36-.15-.62-.34-.79-.58-.17-.24-.28-.56-.35-.96-.05-.29-.08-.87-.08-1.74v-4.07h-1.13v-1.97h1.13v-1.85l2.48-1.44v3.3h1.69Z"/>
    <path class="cls-7" d="M437.28,447.17v-2.29h2.47v2.29h-2.47ZM437.28,457.77v-9.33h2.47v9.33h-2.47Z"/>
    <path class="cls-7" d="M442.1,448.44h2.28v1.27c.81-.99,1.78-1.49,2.91-1.49.6,0,1.12.12,1.56.37s.8.62,1.08,1.12c.41-.5.85-.87,1.33-1.12s.98-.37,1.52-.37c.69,0,1.27.14,1.74.42s.83.69,1.06,1.23c.17.4.25,1.04.25,1.93v5.97h-2.47v-5.33c0-.93-.08-1.52-.25-1.79-.23-.35-.58-.53-1.05-.53-.35,0-.67.11-.98.32s-.52.52-.66.93c-.13.41-.2,1.05-.2,1.93v4.48h-2.47v-5.12c0-.91-.04-1.49-.13-1.76s-.22-.46-.41-.59-.44-.19-.75-.19c-.38,0-.72.1-1.03.31s-.52.5-.65.89-.2,1.03-.2,1.92v4.54h-2.47v-9.33Z"/>
    <path class="cls-7" d="M464.43,457.77v-1.4c-.34.5-.79.89-1.34,1.18s-1.14.43-1.75.43-1.19-.14-1.69-.41-.86-.66-1.08-1.16-.33-1.19-.33-2.07v-5.91h2.47v4.29c0,1.31.05,2.12.14,2.41.09.3.26.53.5.7.24.17.54.26.91.26.42,0,.8-.12,1.13-.35.33-.23.56-.52.69-.86.12-.34.18-1.18.18-2.52v-3.94h2.47v9.33h-2.29Z"/>
    <path class="cls-7" d="M469.29,457.77v-12.88h2.47v12.88h-2.47Z"/>
    <path class="cls-7" d="M480.43,457.77v-1.4c-.34.5-.79.89-1.34,1.18s-1.14.43-1.75.43-1.19-.14-1.69-.41-.86-.66-1.08-1.16-.33-1.19-.33-2.07v-5.91h2.47v4.29c0,1.31.05,2.12.14,2.41.09.3.26.53.5.7.24.17.54.26.91.26.42,0,.8-.12,1.13-.35.33-.23.56-.52.69-.86.12-.34.18-1.18.18-2.52v-3.94h2.47v9.33h-2.29Z"/>
    <path class="cls-7" d="M484.41,455.11l2.48-.38c.11.48.32.85.64,1.09.32.25.77.37,1.35.37.64,0,1.12-.12,1.44-.35.22-.16.33-.38.33-.66,0-.19-.06-.34-.18-.47-.12-.12-.4-.23-.83-.33-1.99-.44-3.25-.84-3.79-1.2-.74-.5-1.11-1.2-1.11-2.1,0-.81.32-1.49.96-2.04s1.63-.83,2.97-.83,2.23.21,2.85.62,1.05,1.03,1.28,1.85l-2.33.43c-.1-.36-.29-.64-.57-.83s-.68-.29-1.19-.29c-.65,0-1.12.09-1.4.27-.19.13-.28.3-.28.5,0,.18.08.33.25.45.22.16.99.4,2.31.69s2.23.67,2.76,1.1c.52.44.77,1.05.77,1.84,0,.86-.36,1.59-1.07,2.21s-1.77.92-3.17.92c-1.27,0-2.28-.26-3.02-.77s-1.23-1.22-1.45-2.1Z"/>
    <path class="cls-7" d="M269.54,483.52c-.68-.86-1.25-1.86-1.72-3.01s-.7-2.34-.7-3.57c0-1.08.18-2.12.53-3.12.41-1.15,1.04-2.3,1.9-3.45h.88c-.55.95-.92,1.62-1.09,2.03-.28.63-.5,1.29-.66,1.97-.2.85-.29,1.71-.29,2.57,0,2.19.68,4.38,2.04,6.57h-.88Z"/>
    <path class="cls-7" d="M276.82,478.24l1.27.16c-.2.74-.57,1.32-1.11,1.73s-1.23.62-2.08.62c-1.06,0-1.9-.33-2.53-.98-.62-.65-.93-1.57-.93-2.75s.31-2.17.94-2.84,1.44-1.01,2.45-1.01,1.76.33,2.38.99.92,1.59.92,2.79c0,.07,0,.18,0,.33h-5.41c.05.8.27,1.41.68,1.83s.91.64,1.52.64c.45,0,.84-.12,1.16-.36s.57-.62.76-1.13ZM272.78,476.25h4.05c-.05-.61-.21-1.07-.46-1.37-.39-.47-.9-.71-1.52-.71-.56,0-1.04.19-1.43.57s-.6.88-.64,1.52Z"/>
    <path class="cls-7" d="M279.93,480.58v-6.3h-1.09v-.96h1.09v-.77c0-.49.04-.85.13-1.09.12-.32.33-.58.63-.78.3-.2.72-.3,1.25-.3.35,0,.73.04,1.15.12l-.18,1.07c-.26-.05-.5-.07-.72-.07-.37,0-.64.08-.79.24s-.23.46-.23.9v.67h1.42v.96h-1.42v6.3h-1.22Z"/>
    <path class="cls-7" d="M283.56,480.58v-6.3h-1.09v-.96h1.09v-.77c0-.49.04-.85.13-1.09.12-.32.33-.58.63-.78.3-.2.72-.3,1.25-.3.35,0,.73.04,1.15.12l-.18,1.07c-.26-.05-.5-.07-.72-.07-.37,0-.64.08-.79.24s-.23.46-.23.9v.67h1.42v.96h-1.42v6.3h-1.22Z"/>
    <path class="cls-7" d="M287.17,471.97v-1.42h1.23v1.42h-1.23ZM287.17,480.58v-7.26h1.23v7.26h-1.23Z"/>
    <path class="cls-7" d="M295.01,477.92l1.21.16c-.13.83-.47,1.49-1.02,1.96-.54.47-1.21.71-2.01.71-.99,0-1.79-.32-2.4-.97-.6-.65-.91-1.58-.91-2.79,0-.78.13-1.47.39-2.06s.66-1.03,1.19-1.32c.53-.29,1.11-.44,1.73-.44.79,0,1.43.2,1.93.6.5.4.82.97.96,1.7l-1.2.18c-.11-.49-.32-.85-.6-1.1s-.64-.37-1.05-.37c-.62,0-1.12.22-1.51.67-.39.45-.58,1.15-.58,2.11s.19,1.68.56,2.13.86.66,1.46.66c.48,0,.89-.15,1.21-.44s.53-.75.62-1.37Z"/>
    <path class="cls-7" d="M297.28,471.97v-1.42h1.23v1.42h-1.23ZM297.28,480.58v-7.26h1.23v7.26h-1.23Z"/>
    <path class="cls-7" d="M305.35,478.24l1.27.16c-.2.74-.57,1.32-1.11,1.73s-1.23.62-2.08.62c-1.06,0-1.9-.33-2.53-.98-.62-.65-.93-1.57-.93-2.75s.31-2.17.94-2.84,1.44-1.01,2.45-1.01,1.76.33,2.38.99.92,1.59.92,2.79c0,.07,0,.18,0,.33h-5.41c.05.8.27,1.41.68,1.83s.91.64,1.52.64c.45,0,.84-.12,1.16-.36s.57-.62.76-1.13ZM301.31,476.25h4.05c-.05-.61-.21-1.07-.46-1.37-.39-.47-.9-.71-1.52-.71-.56,0-1.04.19-1.43.57s-.6.88-.64,1.52Z"/>
    <path class="cls-7" d="M308.17,480.58v-7.26h1.11v1.03c.53-.8,1.3-1.2,2.31-1.2.44,0,.84.08,1.21.24.37.16.64.36.82.62s.31.56.38.91c.05.23.07.63.07,1.2v4.46h-1.23v-4.42c0-.5-.05-.88-.14-1.12-.1-.25-.27-.45-.51-.59-.24-.15-.53-.22-.86-.22-.52,0-.98.17-1.36.5s-.57.96-.57,1.89v3.96h-1.23Z"/>
    <path class="cls-7" d="M318.64,479.47l.18,1.09c-.35.07-.66.11-.93.11-.45,0-.79-.07-1.04-.21s-.42-.33-.52-.56c-.1-.23-.15-.71-.15-1.45v-4.18h-.9v-.96h.9v-1.8l1.22-.74v2.54h1.24v.96h-1.24v4.25c0,.35.02.58.06.68s.11.18.21.24.24.09.42.09c.14,0,.32-.02.54-.05Z"/>
    <path class="cls-7" d="M323.72,480.58v-7.26h1.11v1.1c.28-.51.54-.85.78-1.02s.5-.25.79-.25c.41,0,.84.13,1.26.4l-.42,1.14c-.3-.18-.6-.27-.9-.27-.27,0-.51.08-.72.24-.21.16-.37.39-.46.67-.14.44-.21.92-.21,1.44v3.8h-1.23Z"/>
    <path class="cls-7" d="M333.36,478.24l1.27.16c-.2.74-.57,1.32-1.11,1.73s-1.23.62-2.08.62c-1.06,0-1.9-.33-2.53-.98-.62-.65-.93-1.57-.93-2.75s.31-2.17.94-2.84,1.44-1.01,2.45-1.01,1.76.33,2.38.99.92,1.59.92,2.79c0,.07,0,.18,0,.33h-5.41c.05.8.27,1.41.68,1.83s.91.64,1.52.64c.45,0,.84-.12,1.16-.36s.57-.62.76-1.13ZM329.32,476.25h4.05c-.05-.61-.21-1.07-.46-1.37-.39-.47-.9-.71-1.52-.71-.56,0-1.04.19-1.43.57s-.6.88-.64,1.52Z"/>
    <path class="cls-7" d="M340.92,479.68c-.46.39-.89.66-1.32.82s-.87.24-1.36.24c-.8,0-1.41-.2-1.84-.58-.43-.39-.64-.89-.64-1.49,0-.36.08-.68.24-.97.16-.29.37-.53.64-.71s.56-.31.89-.4c.24-.06.61-.12,1.09-.18.99-.12,1.73-.26,2.19-.42,0-.17,0-.28,0-.32,0-.5-.12-.85-.35-1.06-.31-.28-.78-.42-1.4-.42-.58,0-1.01.1-1.28.3-.28.2-.48.56-.61,1.08l-1.2-.16c.11-.51.29-.93.54-1.25.25-.32.61-.56,1.09-.73.47-.17,1.02-.26,1.65-.26s1.12.07,1.51.22.67.33.85.55c.18.22.31.5.38.84.04.21.06.59.06,1.13v1.64c0,1.14.03,1.87.08,2.17.05.3.16.59.31.87h-1.29c-.13-.25-.21-.55-.25-.9ZM340.81,476.93c-.45.18-1.12.34-2.01.46-.51.07-.86.16-1.07.25s-.37.22-.49.4c-.11.18-.17.37-.17.58,0,.33.12.6.37.82s.61.33,1.09.33.9-.1,1.26-.31c.37-.21.64-.49.81-.85.13-.28.2-.69.2-1.23v-.45Z"/>
    <path class="cls-7" d="M348.7,477.92l1.21.16c-.13.83-.47,1.49-1.02,1.96-.54.47-1.21.71-2.01.71-.99,0-1.79-.32-2.4-.97-.6-.65-.91-1.58-.91-2.79,0-.78.13-1.47.39-2.06s.66-1.03,1.19-1.32c.53-.29,1.11-.44,1.73-.44.79,0,1.43.2,1.93.6.5.4.82.97.96,1.7l-1.2.18c-.11-.49-.32-.85-.6-1.1s-.64-.37-1.05-.37c-.62,0-1.12.22-1.51.67-.39.45-.58,1.15-.58,2.11s.19,1.68.56,2.13.86.66,1.46.66c.48,0,.89-.15,1.21-.44s.53-.75.62-1.37Z"/>
    <path class="cls-7" d="M353.65,479.47l.18,1.09c-.35.07-.66.11-.93.11-.45,0-.79-.07-1.04-.21s-.42-.33-.52-.56c-.1-.23-.15-.71-.15-1.45v-4.18h-.9v-.96h.9v-1.8l1.22-.74v2.54h1.24v.96h-1.24v4.25c0,.35.02.58.06.68s.11.18.21.24.24.09.42.09c.14,0,.32-.02.54-.05Z"/>
    <path class="cls-7" d="M354.86,471.97v-1.42h1.23v1.42h-1.23ZM354.86,480.58v-7.26h1.23v7.26h-1.23Z"/>
    <path class="cls-7" d="M357.51,476.95c0-1.34.37-2.34,1.12-2.99.62-.54,1.39-.81,2.28-.81,1,0,1.81.33,2.45.98.63.65.95,1.56.95,2.71,0,.93-.14,1.67-.42,2.21-.28.54-.69.95-1.22,1.25s-1.12.44-1.75.44c-1.02,0-1.84-.33-2.46-.98s-.94-1.59-.94-2.82ZM358.77,476.95c0,.93.2,1.63.61,2.09.41.46.92.69,1.53.69s1.12-.23,1.52-.7.61-1.17.61-2.13c0-.9-.2-1.58-.61-2.04-.41-.46-.92-.69-1.52-.69s-1.13.23-1.53.69-.61,1.16-.61,2.08Z"/>
    <path class="cls-7" d="M365.75,480.58v-7.26h1.11v1.03c.53-.8,1.3-1.2,2.31-1.2.44,0,.84.08,1.21.24.37.16.64.36.82.62s.31.56.38.91c.05.23.07.63.07,1.2v4.46h-1.23v-4.42c0-.5-.05-.88-.14-1.12-.1-.25-.27-.45-.51-.59-.24-.15-.53-.22-.86-.22-.52,0-.98.17-1.36.5s-.57.96-.57,1.89v3.96h-1.23Z"/>
    <path class="cls-7" d="M380.11,479.47l.18,1.09c-.35.07-.66.11-.93.11-.45,0-.79-.07-1.04-.21s-.42-.33-.52-.56c-.1-.23-.15-.71-.15-1.45v-4.18h-.9v-.96h.9v-1.8l1.22-.74v2.54h1.24v.96h-1.24v4.25c0,.35.02.58.06.68s.11.18.21.24.24.09.42.09c.14,0,.32-.02.54-.05Z"/>
    <path class="cls-7" d="M380.86,476.95c0-1.34.37-2.34,1.12-2.99.62-.54,1.39-.81,2.28-.81,1,0,1.81.33,2.45.98.63.65.95,1.56.95,2.71,0,.93-.14,1.67-.42,2.21-.28.54-.69.95-1.22,1.25s-1.12.44-1.75.44c-1.02,0-1.84-.33-2.46-.98s-.94-1.59-.94-2.82ZM382.12,476.95c0,.93.2,1.63.61,2.09.41.46.92.69,1.53.69s1.12-.23,1.52-.7.61-1.17.61-2.13c0-.9-.2-1.58-.61-2.04-.41-.46-.92-.69-1.52-.69s-1.13.23-1.53.69-.61,1.16-.61,2.08Z"/>
    <path class="cls-7" d="M397.7,480.58v-.92c-.46.72-1.14,1.08-2.03,1.08-.58,0-1.11-.16-1.6-.48s-.86-.76-1.13-1.34c-.27-.57-.4-1.23-.4-1.97s.12-1.38.36-1.97c.24-.59.6-1.04,1.09-1.36s1.02-.47,1.62-.47c.44,0,.83.09,1.17.28.34.18.62.42.83.72v-3.6h1.22v10.02h-1.14ZM393.81,476.95c0,.93.2,1.62.59,2.08s.85.69,1.39.69.99-.22,1.37-.66c.38-.44.56-1.11.56-2.01,0-.99-.19-1.72-.57-2.19s-.85-.7-1.42-.7-1,.22-1.37.67-.55,1.15-.55,2.11Z"/>
    <path class="cls-7" d="M400.72,483.37l-.14-1.16c.27.07.5.11.7.11.27,0,.49-.05.66-.14s.3-.22.4-.38c.08-.12.2-.43.38-.92.02-.07.06-.17.11-.3l-2.75-7.27h1.33l1.51,4.2c.2.53.37,1.09.53,1.68.14-.57.31-1.12.51-1.65l1.55-4.23h1.23l-2.76,7.38c-.3.8-.53,1.35-.69,1.65-.22.41-.47.7-.75.89-.28.19-.62.28-1.01.28-.24,0-.5-.05-.79-.15Z"/>
    <path class="cls-7" d="M407.78,480.58v-7.26h1.11v1.03c.53-.8,1.3-1.2,2.31-1.2.44,0,.84.08,1.21.24.37.16.64.36.82.62s.31.56.38.91c.05.23.07.63.07,1.2v4.46h-1.23v-4.42c0-.5-.05-.88-.14-1.12-.1-.25-.27-.45-.51-.59-.24-.15-.53-.22-.86-.22-.52,0-.98.17-1.36.5s-.57.96-.57,1.89v3.96h-1.23Z"/>
    <path class="cls-7" d="M420.3,479.68c-.46.39-.89.66-1.32.82s-.87.24-1.36.24c-.8,0-1.41-.2-1.84-.58-.43-.39-.64-.89-.64-1.49,0-.36.08-.68.24-.97.16-.29.37-.53.64-.71s.56-.31.89-.4c.24-.06.61-.12,1.09-.18.99-.12,1.73-.26,2.19-.42,0-.17,0-.28,0-.32,0-.5-.12-.85-.35-1.06-.31-.28-.78-.42-1.4-.42-.58,0-1.01.1-1.28.3-.28.2-.48.56-.61,1.08l-1.2-.16c.11-.51.29-.93.54-1.25.25-.32.61-.56,1.09-.73.47-.17,1.02-.26,1.65-.26s1.12.07,1.51.22.67.33.85.55c.18.22.31.5.38.84.04.21.06.59.06,1.13v1.64c0,1.14.03,1.87.08,2.17.05.3.16.59.31.87h-1.29c-.13-.25-.21-.55-.25-.9ZM420.2,476.93c-.45.18-1.12.34-2.01.46-.51.07-.86.16-1.07.25s-.37.22-.49.4c-.11.18-.17.37-.17.58,0,.33.12.6.37.82s.61.33,1.09.33.9-.1,1.26-.31c.37-.21.64-.49.81-.85.13-.28.2-.69.2-1.23v-.45Z"/>
    <path class="cls-7" d="M423.35,480.58v-7.26h1.1v1.02c.23-.36.53-.64.91-.86.38-.22.81-.32,1.29-.32.54,0,.98.11,1.32.33s.59.54.73.94c.57-.85,1.32-1.27,2.24-1.27.72,0,1.27.2,1.66.6.39.4.58,1.01.58,1.84v4.98h-1.22v-4.57c0-.49-.04-.85-.12-1.06-.08-.22-.22-.39-.43-.52s-.46-.2-.74-.2c-.51,0-.93.17-1.27.51-.34.34-.51.88-.51,1.63v4.22h-1.23v-4.72c0-.55-.1-.96-.3-1.23s-.53-.41-.98-.41c-.35,0-.67.09-.96.27s-.51.45-.64.8-.2.86-.2,1.52v3.77h-1.23Z"/>
    <path class="cls-7" d="M435.02,471.97v-1.42h1.23v1.42h-1.23ZM435.02,480.58v-7.26h1.23v7.26h-1.23Z"/>
    <path class="cls-7" d="M442.86,477.92l1.21.16c-.13.83-.47,1.49-1.02,1.96-.54.47-1.21.71-2.01.71-.99,0-1.79-.32-2.4-.97-.6-.65-.91-1.58-.91-2.79,0-.78.13-1.47.39-2.06s.66-1.03,1.19-1.32c.53-.29,1.11-.44,1.73-.44.79,0,1.43.2,1.93.6.5.4.82.97.96,1.7l-1.2.18c-.11-.49-.32-.85-.6-1.1s-.64-.37-1.05-.37c-.62,0-1.12.22-1.51.67-.39.45-.58,1.15-.58,2.11s.19,1.68.56,2.13.86.66,1.46.66c.48,0,.89-.15,1.21-.44s.53-.75.62-1.37Z"/>
    <path class="cls-7" d="M453.98,478.24l1.27.16c-.2.74-.57,1.32-1.11,1.73s-1.23.62-2.08.62c-1.06,0-1.9-.33-2.53-.98-.62-.65-.93-1.57-.93-2.75s.31-2.17.94-2.84,1.44-1.01,2.45-1.01,1.76.33,2.38.99.92,1.59.92,2.79c0,.07,0,.18,0,.33h-5.41c.05.8.27,1.41.68,1.83s.91.64,1.52.64c.45,0,.84-.12,1.16-.36s.57-.62.76-1.13ZM449.94,476.25h4.05c-.05-.61-.21-1.07-.46-1.37-.39-.47-.9-.71-1.52-.71-.56,0-1.04.19-1.43.57s-.6.88-.64,1.52Z"/>
    <path class="cls-7" d="M458.82,480.58l-2.76-7.26h1.3l1.56,4.35c.17.47.32.96.46,1.46.11-.38.26-.84.46-1.38l1.61-4.43h1.26l-2.75,7.26h-1.15Z"/>
    <path class="cls-7" d="M468.77,478.24l1.27.16c-.2.74-.57,1.32-1.11,1.73s-1.23.62-2.08.62c-1.06,0-1.9-.33-2.53-.98-.62-.65-.93-1.57-.93-2.75s.31-2.17.94-2.84,1.44-1.01,2.45-1.01,1.76.33,2.38.99.92,1.59.92,2.79c0,.07,0,.18,0,.33h-5.41c.05.8.27,1.41.68,1.83s.91.64,1.52.64c.45,0,.84-.12,1.16-.36s.57-.62.76-1.13ZM464.73,476.25h4.05c-.05-.61-.21-1.07-.46-1.37-.39-.47-.9-.71-1.52-.71-.56,0-1.04.19-1.43.57s-.6.88-.64,1.52Z"/>
    <path class="cls-7" d="M471.59,480.58v-7.26h1.11v1.03c.53-.8,1.3-1.2,2.31-1.2.44,0,.84.08,1.21.24.37.16.64.36.82.62s.31.56.38.91c.05.23.07.63.07,1.2v4.46h-1.23v-4.42c0-.5-.05-.88-.14-1.12-.1-.25-.27-.45-.51-.59-.24-.15-.53-.22-.86-.22-.52,0-.98.17-1.36.5s-.57.96-.57,1.89v3.96h-1.23Z"/>
    <path class="cls-7" d="M482.06,479.47l.18,1.09c-.35.07-.66.11-.93.11-.45,0-.79-.07-1.04-.21s-.42-.33-.52-.56c-.1-.23-.15-.71-.15-1.45v-4.18h-.9v-.96h.9v-1.8l1.22-.74v2.54h1.24v.96h-1.24v4.25c0,.35.02.58.06.68s.11.18.21.24.24.09.42.09c.14,0,.32-.02.54-.05Z"/>
    <path class="cls-7" d="M482.77,478.41l1.22-.19c.07.49.26.86.57,1.12s.75.39,1.31.39.98-.12,1.26-.35c.27-.23.41-.5.41-.81,0-.28-.12-.5-.36-.66-.17-.11-.59-.25-1.26-.42-.9-.23-1.53-.42-1.88-.59-.35-.17-.61-.4-.79-.69-.18-.29-.27-.62-.27-.97,0-.32.07-.62.22-.9.15-.28.35-.5.6-.69.19-.14.45-.26.78-.36.33-.1.68-.15,1.06-.15.57,0,1.07.08,1.5.25s.75.39.95.67c.21.28.35.66.42,1.12l-1.2.16c-.05-.37-.21-.67-.48-.88s-.63-.31-1.11-.31c-.56,0-.97.09-1.21.28s-.36.41-.36.66c0,.16.05.3.15.43.1.13.26.24.47.33.12.05.49.15,1.09.31.87.23,1.48.42,1.82.57.34.15.61.36.81.65s.29.63.29,1.05-.12.8-.36,1.16c-.24.36-.58.64-1.04.84-.45.2-.96.3-1.53.3-.94,0-1.66-.2-2.16-.59s-.81-.97-.95-1.74Z"/>
    <path class="cls-7" d="M491.07,483.52h-.88c1.36-2.19,2.04-4.38,2.04-6.57,0-.86-.1-1.71-.29-2.55-.15-.68-.37-1.34-.65-1.97-.18-.41-.54-1.09-1.1-2.05h.88c.86,1.14,1.49,2.29,1.9,3.45.35.99.53,2.03.53,3.12,0,1.23-.24,2.42-.71,3.57s-1.04,2.15-1.72,3.01Z"/>
  </g>
  <g>
    <path class="cls-7" d="M625.02,423.29h4.75c1.07,0,1.89.08,2.45.25.76.22,1.4.62,1.94,1.19s.95,1.26,1.23,2.09c.28.82.42,1.84.42,3.05,0,1.06-.13,1.97-.4,2.74-.32.94-.78,1.7-1.38,2.28-.45.44-1.06.78-1.83,1.03-.57.18-1.34.27-2.3.27h-4.9v-12.88ZM627.62,425.47v8.53h1.94c.73,0,1.25-.04,1.57-.12.42-.11.77-.28,1.05-.54s.51-.67.68-1.24c.18-.58.26-1.36.26-2.36s-.09-1.76-.26-2.29-.42-.95-.74-1.25-.72-.5-1.2-.61c-.36-.08-1.08-.12-2.14-.12h-1.17Z"/>
    <path class="cls-7" d="M643.42,433.2l2.46.41c-.32.9-.82,1.59-1.5,2.06s-1.54.71-2.56.71c-1.62,0-2.82-.53-3.6-1.59-.62-.85-.92-1.92-.92-3.22,0-1.55.4-2.76,1.21-3.63s1.83-1.31,3.07-1.31c1.39,0,2.48.46,3.29,1.38.8.92,1.19,2.32,1.15,4.21h-6.19c.02.73.22,1.3.6,1.71.38.41.86.61,1.42.61.39,0,.71-.11.98-.32s.46-.55.6-1.02ZM643.56,430.71c-.02-.71-.2-1.26-.55-1.63-.35-.37-.78-.56-1.28-.56-.54,0-.98.2-1.34.59s-.52.93-.52,1.6h3.69Z"/>
    <path class="cls-7" d="M648.02,436.17v-12.88h2.47v12.88h-2.47Z"/>
    <path class="cls-7" d="M653.02,425.58v-2.29h2.47v2.29h-2.47ZM653.02,436.17v-9.33h2.47v9.33h-2.47Z"/>
    <path class="cls-7" d="M657.92,436.17v-12.88h2.47v4.64c.76-.87,1.66-1.3,2.71-1.3,1.14,0,2.08.41,2.82,1.23.74.82,1.12,2.01,1.12,3.55s-.38,2.82-1.14,3.68-1.68,1.29-2.76,1.29c-.53,0-1.06-.13-1.58-.4-.52-.27-.97-.66-1.34-1.18v1.37h-2.29ZM660.37,431.31c0,.97.15,1.68.46,2.14.43.66,1,.98,1.71.98.54,0,1.01-.23,1.39-.7.38-.46.58-1.2.58-2.2,0-1.07-.19-1.83-.58-2.31s-.88-.71-1.49-.71-1.08.23-1.48.69-.59,1.16-.59,2.1Z"/>
    <path class="cls-7" d="M674.43,433.2l2.46.41c-.32.9-.82,1.59-1.5,2.06s-1.54.71-2.56.71c-1.62,0-2.82-.53-3.6-1.59-.62-.85-.92-1.92-.92-3.22,0-1.55.4-2.76,1.21-3.63s1.83-1.31,3.07-1.31c1.39,0,2.48.46,3.29,1.38.8.92,1.19,2.32,1.15,4.21h-6.19c.02.73.22,1.3.6,1.71.38.41.86.61,1.42.61.39,0,.71-.11.98-.32s.46-.55.6-1.02ZM674.57,430.71c-.02-.71-.2-1.26-.55-1.63-.35-.37-.78-.56-1.28-.56-.54,0-.98.2-1.34.59s-.52.93-.52,1.6h3.69Z"/>
    <path class="cls-7" d="M681.39,436.17h-2.47v-9.33h2.29v1.33c.39-.63.75-1.04,1.06-1.24s.67-.3,1.07-.3c.56,0,1.1.16,1.63.47l-.76,2.15c-.42-.27-.8-.4-1.16-.4s-.64.1-.88.29c-.24.19-.43.54-.57,1.03s-.21,1.54-.21,3.13v2.88Z"/>
    <path class="cls-7" d="M687.88,429.69l-2.24-.4c.25-.9.69-1.57,1.3-2s1.53-.65,2.74-.65c1.1,0,1.92.13,2.46.39.54.26.92.59,1.14.99s.33,1.14.33,2.21l-.03,2.88c0,.82.04,1.43.12,1.82s.23.81.44,1.25h-2.44c-.06-.16-.14-.41-.24-.73-.04-.15-.07-.24-.09-.29-.42.41-.87.72-1.35.92s-.99.31-1.54.31c-.96,0-1.72-.26-2.27-.78s-.83-1.18-.83-1.98c0-.53.13-1,.38-1.41.25-.41.6-.73,1.06-.95.45-.22,1.11-.41,1.96-.58,1.15-.22,1.95-.42,2.4-.61v-.25c0-.47-.12-.81-.35-1.01-.23-.2-.68-.3-1.33-.3-.44,0-.78.09-1.03.26-.25.17-.45.48-.6.91ZM691.19,431.69c-.32.11-.82.23-1.5.38s-1.13.29-1.34.43c-.32.23-.48.52-.48.87s.13.64.39.9.59.38.98.38c.45,0,.87-.15,1.27-.44.3-.22.5-.5.59-.82.06-.21.1-.61.1-1.2v-.49Z"/>
    <path class="cls-7" d="M700.33,426.84v1.97h-1.69v3.76c0,.76.02,1.21.05,1.33s.11.23.22.31.25.12.42.12c.23,0,.56-.08.99-.24l.21,1.92c-.57.25-1.22.37-1.95.37-.45,0-.85-.07-1.2-.22-.36-.15-.62-.34-.79-.58-.17-.24-.28-.56-.35-.96-.05-.29-.08-.87-.08-1.74v-4.07h-1.13v-1.97h1.13v-1.85l2.48-1.44v3.3h1.69Z"/>
    <path class="cls-7" d="M707.45,433.2l2.46.41c-.32.9-.82,1.59-1.5,2.06s-1.54.71-2.56.71c-1.62,0-2.82-.53-3.6-1.59-.62-.85-.92-1.92-.92-3.22,0-1.55.4-2.76,1.21-3.63s1.83-1.31,3.07-1.31c1.39,0,2.48.46,3.29,1.38.8.92,1.19,2.32,1.15,4.21h-6.19c.02.73.22,1.3.6,1.71.38.41.86.61,1.42.61.39,0,.71-.11.98-.32s.46-.55.6-1.02ZM707.59,430.71c-.02-.71-.2-1.26-.55-1.63-.35-.37-.78-.56-1.28-.56-.54,0-.98.2-1.34.59s-.52.93-.52,1.6h3.69Z"/>
    <path class="cls-7" d="M716.95,436.17v-12.88h2.47v4.64c.76-.87,1.66-1.3,2.71-1.3,1.14,0,2.08.41,2.82,1.23.74.82,1.12,2.01,1.12,3.55s-.38,2.82-1.14,3.68-1.68,1.29-2.76,1.29c-.53,0-1.06-.13-1.58-.4-.52-.27-.97-.66-1.34-1.18v1.37h-2.29ZM719.4,431.31c0,.97.15,1.68.46,2.14.43.66,1,.98,1.71.98.54,0,1.01-.23,1.39-.7.38-.46.58-1.2.58-2.2,0-1.07-.19-1.83-.58-2.31s-.88-.71-1.49-.71-1.08.23-1.48.69-.59,1.16-.59,2.1Z"/>
    <path class="cls-7" d="M733.45,433.2l2.46.41c-.32.9-.82,1.59-1.5,2.06s-1.54.71-2.56.71c-1.62,0-2.82-.53-3.6-1.59-.62-.85-.92-1.92-.92-3.22,0-1.55.4-2.76,1.21-3.63s1.83-1.31,3.07-1.31c1.39,0,2.48.46,3.29,1.38.8.92,1.19,2.32,1.15,4.21h-6.19c.02.73.22,1.3.6,1.71.38.41.86.61,1.42.61.39,0,.71-.11.98-.32s.46-.55.6-1.02ZM733.59,430.71c-.02-.71-.2-1.26-.55-1.63-.35-.37-.78-.56-1.28-.56-.54,0-.98.2-1.34.59s-.52.93-.52,1.6h3.69Z"/>
    <path class="cls-7" d="M740.52,423.29v4.74c.8-.93,1.75-1.4,2.86-1.4.57,0,1.08.11,1.54.32s.8.48,1.03.81.39.69.47,1.09.13,1.02.13,1.85v5.48h-2.47v-4.93c0-.98-.05-1.6-.14-1.86s-.26-.47-.5-.63-.53-.23-.89-.23c-.41,0-.78.1-1.1.3s-.56.5-.71.9-.22.99-.22,1.78v4.68h-2.47v-12.88h2.47Z"/>
    <path class="cls-7" d="M750.9,429.69l-2.24-.4c.25-.9.69-1.57,1.3-2s1.53-.65,2.74-.65c1.1,0,1.92.13,2.46.39.54.26.92.59,1.14.99s.33,1.14.33,2.21l-.03,2.88c0,.82.04,1.43.12,1.82s.23.81.44,1.25h-2.44c-.06-.16-.14-.41-.24-.73-.04-.15-.07-.24-.09-.29-.42.41-.87.72-1.35.92s-.99.31-1.54.31c-.96,0-1.72-.26-2.27-.78s-.83-1.18-.83-1.98c0-.53.13-1,.38-1.41.25-.41.6-.73,1.06-.95.45-.22,1.11-.41,1.96-.58,1.15-.22,1.95-.42,2.4-.61v-.25c0-.47-.12-.81-.35-1.01-.23-.2-.68-.3-1.33-.3-.44,0-.78.09-1.03.26-.25.17-.45.48-.6.91ZM754.2,431.69c-.32.11-.82.23-1.5.38s-1.13.29-1.34.43c-.32.23-.48.52-.48.87s.13.64.39.9.59.38.98.38c.45,0,.87-.15,1.27-.44.3-.22.5-.5.59-.82.06-.21.1-.61.1-1.2v-.49Z"/>
    <path class="cls-7" d="M761.63,436.17l-3.76-9.33h2.59l1.76,4.76.51,1.59c.13-.4.22-.67.25-.8.08-.26.17-.53.26-.79l1.78-4.76h2.54l-3.71,9.33h-2.22Z"/>
    <path class="cls-7" d="M769.07,425.58v-2.29h2.47v2.29h-2.47ZM769.07,436.17v-9.33h2.47v9.33h-2.47Z"/>
    <path class="cls-7" d="M773.5,431.38c0-.82.2-1.61.61-2.38s.98-1.35,1.72-1.76,1.57-.61,2.48-.61c1.41,0,2.57.46,3.47,1.38.9.92,1.35,2.08,1.35,3.48s-.46,2.58-1.37,3.51-2.06,1.39-3.44,1.39c-.86,0-1.67-.19-2.45-.58s-1.37-.95-1.77-1.7c-.4-.75-.61-1.66-.61-2.73ZM776.04,431.51c0,.93.22,1.63.66,2.13s.98.74,1.63.74,1.19-.25,1.62-.74.65-1.21.65-2.14-.22-1.62-.65-2.11-.98-.74-1.62-.74-1.19.25-1.63.74-.66,1.2-.66,2.13Z"/>
    <path class="cls-7" d="M787.43,436.17h-2.47v-9.33h2.29v1.33c.39-.63.75-1.04,1.06-1.24s.67-.3,1.07-.3c.56,0,1.1.16,1.63.47l-.76,2.15c-.42-.27-.8-.4-1.16-.4s-.64.1-.88.29c-.24.19-.43.54-.57,1.03s-.21,1.54-.21,3.13v2.88Z"/>
    <path class="cls-7" d="M624.91,457.77v-12.88h2.47v4.64c.76-.87,1.66-1.3,2.71-1.3,1.14,0,2.08.41,2.82,1.23.74.82,1.12,2.01,1.12,3.55s-.38,2.82-1.14,3.68-1.68,1.29-2.76,1.29c-.53,0-1.06-.13-1.58-.4-.52-.27-.97-.66-1.34-1.18v1.37h-2.29ZM627.36,452.91c0,.97.15,1.68.46,2.14.43.66,1,.98,1.71.98.54,0,1.01-.23,1.39-.7.38-.46.58-1.2.58-2.2,0-1.07-.19-1.83-.58-2.31s-.88-.71-1.49-.71-1.08.23-1.48.69-.59,1.16-.59,2.1Z"/>
    <path class="cls-7" d="M637.85,451.29l-2.24-.4c.25-.9.69-1.57,1.3-2s1.53-.65,2.74-.65c1.1,0,1.92.13,2.46.39.54.26.92.59,1.14.99s.33,1.14.33,2.21l-.03,2.88c0,.82.04,1.43.12,1.82s.23.81.44,1.25h-2.44c-.06-.16-.14-.41-.24-.73-.04-.15-.07-.24-.09-.29-.42.41-.87.72-1.35.92s-.99.31-1.54.31c-.96,0-1.72-.26-2.27-.78s-.83-1.18-.83-1.98c0-.53.13-1,.38-1.41.25-.41.6-.73,1.06-.95.45-.22,1.11-.41,1.96-.58,1.15-.22,1.95-.42,2.4-.61v-.25c0-.47-.12-.81-.35-1.01-.23-.2-.68-.3-1.33-.3-.44,0-.78.09-1.03.26-.25.17-.45.48-.6.91ZM641.16,453.29c-.32.11-.82.23-1.5.38s-1.13.29-1.34.43c-.32.23-.48.52-.48.87s.13.64.39.9.59.38.98.38c.45,0,.87-.15,1.27-.44.3-.22.5-.5.59-.82.06-.21.1-.61.1-1.2v-.49Z"/>
    <path class="cls-7" d="M645.15,455.11l2.48-.38c.11.48.32.85.64,1.09.32.25.77.37,1.35.37.64,0,1.12-.12,1.44-.35.22-.16.33-.38.33-.66,0-.19-.06-.34-.18-.47-.12-.12-.4-.23-.83-.33-1.99-.44-3.25-.84-3.79-1.2-.74-.5-1.11-1.2-1.11-2.1,0-.81.32-1.49.96-2.04s1.63-.83,2.97-.83,2.23.21,2.85.62,1.05,1.03,1.28,1.85l-2.33.43c-.1-.36-.29-.64-.57-.83s-.68-.29-1.19-.29c-.65,0-1.12.09-1.4.27-.19.13-.28.3-.28.5,0,.18.08.33.25.45.22.16.99.4,2.31.69s2.23.67,2.76,1.1c.52.44.77,1.05.77,1.84,0,.86-.36,1.59-1.07,2.21s-1.77.92-3.17.92c-1.27,0-2.28-.26-3.02-.77s-1.23-1.22-1.45-2.1Z"/>
    <path class="cls-7" d="M661.43,454.8l2.46.41c-.32.9-.82,1.59-1.5,2.06s-1.54.71-2.56.71c-1.62,0-2.82-.53-3.6-1.59-.62-.85-.92-1.92-.92-3.22,0-1.55.4-2.76,1.21-3.63s1.83-1.31,3.07-1.31c1.39,0,2.48.46,3.29,1.38.8.92,1.19,2.32,1.15,4.21h-6.19c.02.73.22,1.3.6,1.71.38.41.86.61,1.42.61.39,0,.71-.11.98-.32s.46-.55.6-1.02ZM661.58,452.31c-.02-.71-.2-1.26-.55-1.63-.35-.37-.78-.56-1.28-.56-.54,0-.98.2-1.34.59s-.52.93-.52,1.6h3.69Z"/>
    <path class="cls-7" d="M674.6,457.77h-2.29v-1.37c-.38.53-.83.93-1.35,1.19-.52.26-1.04.39-1.57.39-1.07,0-1.99-.43-2.76-1.3-.76-.86-1.15-2.07-1.15-3.62s.37-2.78,1.12-3.61c.74-.82,1.68-1.23,2.82-1.23,1.04,0,1.95.43,2.71,1.3v-4.64h2.47v12.88ZM668.01,452.91c0,1,.14,1.72.41,2.16.4.64.96.97,1.67.97.57,0,1.05-.24,1.45-.72.4-.48.6-1.21.6-2.17,0-1.07-.19-1.84-.58-2.32s-.88-.71-1.49-.71-1.08.23-1.47.7c-.4.47-.59,1.16-.59,2.09Z"/>
    <path class="cls-7" d="M681.47,452.98c0-.82.2-1.61.61-2.38s.98-1.35,1.72-1.76,1.57-.61,2.48-.61c1.41,0,2.57.46,3.47,1.38.9.92,1.35,2.08,1.35,3.48s-.46,2.58-1.37,3.51-2.06,1.39-3.44,1.39c-.86,0-1.67-.19-2.45-.58s-1.37-.95-1.77-1.7c-.4-.75-.61-1.66-.61-2.73ZM684,453.11c0,.93.22,1.63.66,2.13s.98.74,1.63.74,1.19-.25,1.62-.74.65-1.21.65-2.14-.22-1.62-.65-2.11-.98-.74-1.62-.74-1.19.25-1.63.74-.66,1.2-.66,2.13Z"/>
    <path class="cls-7" d="M701.52,457.77h-2.47v-4.76c0-1.01-.05-1.66-.16-1.96s-.28-.53-.51-.69-.52-.25-.86-.25c-.43,0-.81.12-1.15.35s-.57.54-.7.93-.19,1.1-.19,2.14v4.23h-2.47v-9.33h2.29v1.37c.81-1.05,1.84-1.58,3.08-1.58.54,0,1.04.1,1.49.29s.79.45,1.02.75.39.65.48,1.04.14.94.14,1.66v5.8Z"/>
    <path class="cls-7" d="M711.44,448.44v9.04c0,1.19-.08,2.03-.23,2.52-.16.49-.45.87-.9,1.15s-1.01.41-1.69.41c-.25,0-.51-.02-.8-.07-.28-.04-.59-.11-.92-.2l.43-2.11c.12.02.23.04.33.06.1.01.2.02.29.02.25,0,.46-.05.62-.16.16-.11.27-.24.32-.39s.08-.61.08-1.37v-8.9h2.47ZM708.97,447.17v-2.29h2.47v2.29h-2.47Z"/>
    <path class="cls-7" d="M720.17,457.77v-1.4c-.34.5-.79.89-1.34,1.18s-1.14.43-1.75.43-1.19-.14-1.69-.41-.86-.66-1.08-1.16-.33-1.19-.33-2.07v-5.91h2.47v4.29c0,1.31.05,2.12.14,2.41.09.3.26.53.5.7.24.17.54.26.91.26.42,0,.8-.12,1.13-.35.33-.23.56-.52.69-.86.12-.34.18-1.18.18-2.52v-3.94h2.47v9.33h-2.29Z"/>
    <path class="cls-7" d="M724.15,455.11l2.48-.38c.11.48.32.85.64,1.09.32.25.77.37,1.35.37.64,0,1.12-.12,1.44-.35.22-.16.33-.38.33-.66,0-.19-.06-.34-.18-.47-.12-.12-.4-.23-.83-.33-1.99-.44-3.25-.84-3.79-1.2-.74-.5-1.11-1.2-1.11-2.1,0-.81.32-1.49.96-2.04s1.63-.83,2.97-.83,2.23.21,2.85.62,1.05,1.03,1.28,1.85l-2.33.43c-.1-.36-.29-.64-.57-.83s-.68-.29-1.19-.29c-.65,0-1.12.09-1.4.27-.19.13-.28.3-.28.5,0,.18.08.33.25.45.22.16.99.4,2.31.69s2.23.67,2.76,1.1c.52.44.77,1.05.77,1.84,0,.86-.36,1.59-1.07,2.21s-1.77.92-3.17.92c-1.27,0-2.28-.26-3.02-.77s-1.23-1.22-1.45-2.1Z"/>
    <path class="cls-7" d="M739.31,448.44v1.97h-1.69v3.76c0,.76.02,1.21.05,1.33s.11.23.22.31.25.12.42.12c.23,0,.56-.08.99-.24l.21,1.92c-.57.25-1.22.37-1.95.37-.45,0-.85-.07-1.2-.22-.36-.15-.62-.34-.79-.58-.17-.24-.28-.56-.35-.96-.05-.29-.08-.87-.08-1.74v-4.07h-1.13v-1.97h1.13v-1.85l2.48-1.44v3.3h1.69Z"/>
    <path class="cls-7" d="M741.03,447.17v-2.29h2.47v2.29h-2.47ZM741.03,457.77v-9.33h2.47v9.33h-2.47Z"/>
    <path class="cls-7" d="M744.95,448.44h1.37v-.7c0-.79.08-1.37.25-1.76s.47-.7.92-.95c.45-.24,1.02-.36,1.7-.36s1.39.11,2.07.32l-.33,1.72c-.39-.09-.77-.14-1.13-.14s-.61.08-.77.25c-.16.17-.23.49-.23.96v.66h1.85v1.94h-1.85v7.39h-2.47v-7.39h-1.37v-1.94Z"/>
    <path class="cls-7" d="M752.02,447.17v-2.29h2.47v2.29h-2.47ZM752.02,457.77v-9.33h2.47v9.33h-2.47Z"/>
    <path class="cls-7" d="M758.87,451.29l-2.24-.4c.25-.9.69-1.57,1.3-2s1.53-.65,2.74-.65c1.1,0,1.92.13,2.46.39.54.26.92.59,1.14.99s.33,1.14.33,2.21l-.03,2.88c0,.82.04,1.43.12,1.82s.23.81.44,1.25h-2.44c-.06-.16-.14-.41-.24-.73-.04-.15-.07-.24-.09-.29-.42.41-.87.72-1.35.92s-.99.31-1.54.31c-.96,0-1.72-.26-2.27-.78s-.83-1.18-.83-1.98c0-.53.13-1,.38-1.41.25-.41.6-.73,1.06-.95.45-.22,1.11-.41,1.96-.58,1.15-.22,1.95-.42,2.4-.61v-.25c0-.47-.12-.81-.35-1.01-.23-.2-.68-.3-1.33-.3-.44,0-.78.09-1.03.26-.25.17-.45.48-.6.91ZM762.18,453.29c-.32.11-.82.23-1.5.38s-1.13.29-1.34.43c-.32.23-.48.52-.48.87s.13.64.39.9.59.38.98.38c.45,0,.87-.15,1.27-.44.3-.22.5-.5.59-.82.06-.21.1-.61.1-1.2v-.49Z"/>
    <path class="cls-7" d="M766.93,457.77v-12.88h2.47v4.64c.76-.87,1.66-1.3,2.71-1.3,1.14,0,2.08.41,2.82,1.23.74.82,1.12,2.01,1.12,3.55s-.38,2.82-1.14,3.68-1.68,1.29-2.76,1.29c-.53,0-1.06-.13-1.58-.4-.52-.27-.97-.66-1.34-1.18v1.37h-2.29ZM769.38,452.91c0,.97.15,1.68.46,2.14.43.66,1,.98,1.71.98.54,0,1.01-.23,1.39-.7.38-.46.58-1.2.58-2.2,0-1.07-.19-1.83-.58-2.31s-.88-.71-1.49-.71-1.08.23-1.48.69-.59,1.16-.59,2.1Z"/>
    <path class="cls-7" d="M778.03,457.77v-12.88h2.47v12.88h-2.47Z"/>
    <path class="cls-7" d="M788.44,454.8l2.46.41c-.32.9-.82,1.59-1.5,2.06s-1.54.71-2.56.71c-1.62,0-2.82-.53-3.6-1.59-.62-.85-.92-1.92-.92-3.22,0-1.55.4-2.76,1.21-3.63s1.83-1.31,3.07-1.31c1.39,0,2.48.46,3.29,1.38.8.92,1.19,2.32,1.15,4.21h-6.19c.02.73.22,1.3.6,1.71.38.41.86.61,1.42.61.39,0,.71-.11.98-.32s.46-.55.6-1.02ZM788.58,452.31c-.02-.71-.2-1.26-.55-1.63-.35-.37-.78-.56-1.28-.56-.54,0-.98.2-1.34.59s-.52.93-.52,1.6h3.69Z"/>
    <path class="cls-7" d="M800.41,457.77h-2.47v-9.33h2.29v1.33c.39-.63.75-1.04,1.06-1.24s.67-.3,1.07-.3c.56,0,1.1.16,1.63.47l-.76,2.15c-.42-.27-.8-.4-1.16-.4s-.64.1-.88.29c-.24.19-.43.54-.57,1.03s-.21,1.54-.21,3.13v2.88Z"/>
    <path class="cls-7" d="M810.45,454.8l2.46.41c-.32.9-.82,1.59-1.5,2.06s-1.54.71-2.56.71c-1.62,0-2.82-.53-3.6-1.59-.62-.85-.92-1.92-.92-3.22,0-1.55.4-2.76,1.21-3.63s1.83-1.31,3.07-1.31c1.39,0,2.48.46,3.29,1.38.8.92,1.19,2.32,1.15,4.21h-6.19c.02.73.22,1.3.6,1.71.38.41.86.61,1.42.61.39,0,.71-.11.98-.32s.46-.55.6-1.02ZM810.59,452.31c-.02-.71-.2-1.26-.55-1.63-.35-.37-.78-.56-1.28-.56-.54,0-.98.2-1.34.59s-.52.93-.52,1.6h3.69Z"/>
    <path class="cls-7" d="M816.9,451.29l-2.24-.4c.25-.9.69-1.57,1.3-2s1.53-.65,2.74-.65c1.1,0,1.92.13,2.46.39.54.26.92.59,1.14.99s.33,1.14.33,2.21l-.03,2.88c0,.82.04,1.43.12,1.82s.23.81.44,1.25h-2.44c-.06-.16-.14-.41-.24-.73-.04-.15-.07-.24-.09-.29-.42.41-.87.72-1.35.92s-.99.31-1.54.31c-.96,0-1.72-.26-2.27-.78s-.83-1.18-.83-1.98c0-.53.13-1,.38-1.41.25-.41.6-.73,1.06-.95.45-.22,1.11-.41,1.96-.58,1.15-.22,1.95-.42,2.4-.61v-.25c0-.47-.12-.81-.35-1.01-.23-.2-.68-.3-1.33-.3-.44,0-.78.09-1.03.26-.25.17-.45.48-.6.91ZM820.21,453.29c-.32.11-.82.23-1.5.38s-1.13.29-1.34.43c-.32.23-.48.52-.48.87s.13.64.39.9.59.38.98.38c.45,0,.87-.15,1.27-.44.3-.22.5-.5.59-.82.06-.21.1-.61.1-1.2v-.49Z"/>
    <path class="cls-7" d="M824.2,455.11l2.48-.38c.11.48.32.85.64,1.09.32.25.77.37,1.35.37.64,0,1.12-.12,1.44-.35.22-.16.33-.38.33-.66,0-.19-.06-.34-.18-.47-.12-.12-.4-.23-.83-.33-1.99-.44-3.25-.84-3.79-1.2-.74-.5-1.11-1.2-1.11-2.1,0-.81.32-1.49.96-2.04s1.63-.83,2.97-.83,2.23.21,2.85.62,1.05,1.03,1.28,1.85l-2.33.43c-.1-.36-.29-.64-.57-.83s-.68-.29-1.19-.29c-.65,0-1.12.09-1.4.27-.19.13-.28.3-.28.5,0,.18.08.33.25.45.22.16.99.4,2.31.69s2.23.67,2.76,1.1c.52.44.77,1.05.77,1.84,0,.86-.36,1.59-1.07,2.21s-1.77.92-3.17.92c-1.27,0-2.28-.26-3.02-.77s-1.23-1.22-1.45-2.1Z"/>
    <path class="cls-7" d="M834.51,452.98c0-.82.2-1.61.61-2.38s.98-1.35,1.72-1.76,1.57-.61,2.48-.61c1.41,0,2.57.46,3.47,1.38.9.92,1.35,2.08,1.35,3.48s-.46,2.58-1.37,3.51-2.06,1.39-3.44,1.39c-.86,0-1.67-.19-2.45-.58s-1.37-.95-1.77-1.7c-.4-.75-.61-1.66-.61-2.73ZM837.04,453.11c0,.93.22,1.63.66,2.13s.98.74,1.63.74,1.19-.25,1.62-.74.65-1.21.65-2.14-.22-1.62-.65-2.11-.98-.74-1.62-.74-1.19.25-1.63.74-.66,1.2-.66,2.13Z"/>
    <path class="cls-7" d="M854.57,457.77h-2.47v-4.76c0-1.01-.05-1.66-.16-1.96s-.28-.53-.51-.69-.52-.25-.86-.25c-.43,0-.81.12-1.15.35s-.57.54-.7.93-.19,1.1-.19,2.14v4.23h-2.47v-9.33h2.29v1.37c.81-1.05,1.84-1.58,3.08-1.58.54,0,1.04.1,1.49.29s.79.45,1.02.75.39.65.48,1.04.14.94.14,1.66v5.8Z"/>
    <path class="cls-7" d="M856.2,455.11l2.48-.38c.11.48.32.85.64,1.09.32.25.77.37,1.35.37.64,0,1.12-.12,1.44-.35.22-.16.33-.38.33-.66,0-.19-.06-.34-.18-.47-.12-.12-.4-.23-.83-.33-1.99-.44-3.25-.84-3.79-1.2-.74-.5-1.11-1.2-1.11-2.1,0-.81.32-1.49.96-2.04s1.63-.83,2.97-.83,2.23.21,2.85.62,1.05,1.03,1.28,1.85l-2.33.43c-.1-.36-.29-.64-.57-.83s-.68-.29-1.19-.29c-.65,0-1.12.09-1.4.27-.19.13-.28.3-.28.5,0,.18.08.33.25.45.22.16.99.4,2.31.69s2.23.67,2.76,1.1c.52.44.77,1.05.77,1.84,0,.86-.36,1.59-1.07,2.21s-1.77.92-3.17.92c-1.27,0-2.28-.26-3.02-.77s-1.23-1.22-1.45-2.1Z"/>
    <path class="cls-7" d="M627,483.52c-.68-.86-1.25-1.86-1.72-3.01s-.7-2.34-.7-3.57c0-1.08.18-2.12.53-3.12.41-1.15,1.04-2.3,1.9-3.45h.88c-.55.95-.92,1.62-1.09,2.03-.28.63-.5,1.29-.66,1.97-.2.85-.29,1.71-.29,2.57,0,2.19.68,4.38,2.04,6.57h-.88Z"/>
    <path class="cls-7" d="M629.29,480.58v-7.26h1.11v1.1c.28-.51.54-.85.78-1.02s.5-.25.79-.25c.41,0,.84.13,1.26.4l-.42,1.14c-.3-.18-.6-.27-.9-.27-.27,0-.51.08-.72.24-.21.16-.37.39-.46.67-.14.44-.21.92-.21,1.44v3.8h-1.23Z"/>
    <path class="cls-7" d="M638.94,478.24l1.27.16c-.2.74-.57,1.32-1.11,1.73s-1.23.62-2.08.62c-1.06,0-1.9-.33-2.53-.98-.62-.65-.93-1.57-.93-2.75s.31-2.17.94-2.84,1.44-1.01,2.45-1.01,1.76.33,2.38.99.92,1.59.92,2.79c0,.07,0,.18,0,.33h-5.41c.05.8.27,1.41.68,1.83s.91.64,1.52.64c.45,0,.84-.12,1.16-.36s.57-.62.76-1.13ZM634.9,476.25h4.05c-.05-.61-.21-1.07-.46-1.37-.39-.47-.9-.71-1.52-.71-.56,0-1.04.19-1.43.57s-.6.88-.64,1.52Z"/>
    <path class="cls-7" d="M646.49,479.68c-.46.39-.89.66-1.32.82s-.87.24-1.36.24c-.8,0-1.41-.2-1.84-.58-.43-.39-.64-.89-.64-1.49,0-.36.08-.68.24-.97.16-.29.37-.53.64-.71s.56-.31.89-.4c.24-.06.61-.12,1.09-.18.99-.12,1.73-.26,2.19-.42,0-.17,0-.28,0-.32,0-.5-.12-.85-.35-1.06-.31-.28-.78-.42-1.4-.42-.58,0-1.01.1-1.28.3-.28.2-.48.56-.61,1.08l-1.2-.16c.11-.51.29-.93.54-1.25.25-.32.61-.56,1.09-.73.47-.17,1.02-.26,1.65-.26s1.12.07,1.51.22.67.33.85.55c.18.22.31.5.38.84.04.21.06.59.06,1.13v1.64c0,1.14.03,1.87.08,2.17.05.3.16.59.31.87h-1.29c-.13-.25-.21-.55-.25-.9ZM646.39,476.93c-.45.18-1.12.34-2.01.46-.51.07-.86.16-1.07.25s-.37.22-.49.4c-.11.18-.17.37-.17.58,0,.33.12.6.37.82s.61.33,1.09.33.9-.1,1.26-.31c.37-.21.64-.49.81-.85.13-.28.2-.69.2-1.23v-.45Z"/>
    <path class="cls-7" d="M654.28,477.92l1.21.16c-.13.83-.47,1.49-1.02,1.96-.54.47-1.21.71-2.01.71-.99,0-1.79-.32-2.4-.97-.6-.65-.91-1.58-.91-2.79,0-.78.13-1.47.39-2.06s.66-1.03,1.19-1.32c.53-.29,1.11-.44,1.73-.44.79,0,1.43.2,1.93.6.5.4.82.97.96,1.7l-1.2.18c-.11-.49-.32-.85-.6-1.1s-.64-.37-1.05-.37c-.62,0-1.12.22-1.51.67-.39.45-.58,1.15-.58,2.11s.19,1.68.56,2.13.86.66,1.46.66c.48,0,.89-.15,1.21-.44s.53-.75.62-1.37Z"/>
    <path class="cls-7" d="M656.54,480.58v-10.02h1.23v3.6c.57-.67,1.3-1,2.17-1,.54,0,1,.11,1.4.32.4.21.68.5.85.88s.26.92.26,1.63v4.6h-1.23v-4.6c0-.62-.13-1.06-.4-1.34-.27-.28-.64-.42-1.13-.42-.36,0-.71.09-1.03.28-.32.19-.55.45-.69.77s-.21.77-.21,1.34v3.97h-1.23Z"/>
    <path class="cls-7" d="M664.33,471.97v-1.42h1.23v1.42h-1.23ZM664.33,480.58v-7.26h1.23v7.26h-1.23Z"/>
    <path class="cls-7" d="M667.44,480.58v-7.26h1.11v1.03c.53-.8,1.3-1.2,2.31-1.2.44,0,.84.08,1.21.24.37.16.64.36.82.62s.31.56.38.91c.05.23.07.63.07,1.2v4.46h-1.23v-4.42c0-.5-.05-.88-.14-1.12-.1-.25-.27-.45-.51-.59-.24-.15-.53-.22-.86-.22-.52,0-.98.17-1.36.5s-.57.96-.57,1.89v3.96h-1.23Z"/>
    <path class="cls-7" d="M675,481.18l1.2.18c.05.37.19.64.42.81.31.23.72.34,1.25.34.57,0,1.01-.11,1.32-.34s.52-.55.63-.96c.06-.25.09-.78.09-1.58-.54.63-1.21.95-2.01.95-1,0-1.77-.36-2.32-1.08s-.82-1.58-.82-2.59c0-.69.13-1.33.38-1.92.25-.59.61-1.04,1.09-1.36s1.04-.48,1.68-.48c.86,0,1.56.35,2.12,1.04v-.88h1.13v6.28c0,1.13-.12,1.93-.35,2.4-.23.47-.59.84-1.09,1.12s-1.11.41-1.84.41c-.87,0-1.57-.19-2.1-.58-.53-.39-.79-.98-.77-1.76ZM676.02,476.82c0,.95.19,1.65.57,2.08s.85.66,1.42.66,1.04-.22,1.42-.65c.38-.43.57-1.12.57-2.05s-.2-1.56-.59-2.01-.87-.68-1.43-.68-1.01.22-1.39.67c-.38.44-.57,1.1-.57,1.98Z"/>
    <path class="cls-7" d="M686.9,480.58v-7.26h1.1v1.02c.23-.36.53-.64.91-.86.38-.22.81-.32,1.29-.32.54,0,.98.11,1.32.33s.59.54.73.94c.57-.85,1.32-1.27,2.24-1.27.72,0,1.27.2,1.66.6.39.4.58,1.01.58,1.84v4.98h-1.22v-4.57c0-.49-.04-.85-.12-1.06-.08-.22-.22-.39-.43-.52s-.46-.2-.74-.2c-.51,0-.93.17-1.27.51-.34.34-.51.88-.51,1.63v4.22h-1.23v-4.72c0-.55-.1-.96-.3-1.23s-.53-.41-.98-.41c-.35,0-.67.09-.96.27s-.51.45-.64.8-.2.86-.2,1.52v3.77h-1.23Z"/>
    <path class="cls-7" d="M698.1,476.95c0-1.34.37-2.34,1.12-2.99.62-.54,1.39-.81,2.28-.81,1,0,1.81.33,2.45.98.63.65.95,1.56.95,2.71,0,.93-.14,1.67-.42,2.21-.28.54-.69.95-1.22,1.25s-1.12.44-1.75.44c-1.02,0-1.84-.33-2.46-.98s-.94-1.59-.94-2.82ZM699.37,476.95c0,.93.2,1.63.61,2.09.41.46.92.69,1.53.69s1.12-.23,1.52-.7.61-1.17.61-2.13c0-.9-.2-1.58-.61-2.04-.41-.46-.92-.69-1.52-.69s-1.13.23-1.53.69-.61,1.16-.61,2.08Z"/>
    <path class="cls-7" d="M706.33,480.58v-7.26h1.11v1.1c.28-.51.54-.85.78-1.02s.5-.25.79-.25c.41,0,.84.13,1.26.4l-.42,1.14c-.3-.18-.6-.27-.9-.27-.27,0-.51.08-.72.24-.21.16-.37.39-.46.67-.14.44-.21.92-.21,1.44v3.8h-1.23Z"/>
    <path class="cls-7" d="M715.98,478.24l1.27.16c-.2.74-.57,1.32-1.11,1.73s-1.23.62-2.08.62c-1.06,0-1.9-.33-2.53-.98-.62-.65-.93-1.57-.93-2.75s.31-2.17.94-2.84,1.44-1.01,2.45-1.01,1.76.33,2.38.99.92,1.59.92,2.79c0,.07,0,.18,0,.33h-5.41c.05.8.27,1.41.68,1.83s.91.64,1.52.64c.45,0,.84-.12,1.16-.36s.57-.62.76-1.13ZM711.94,476.25h4.05c-.05-.61-.21-1.07-.46-1.37-.39-.47-.9-.71-1.52-.71-.56,0-1.04.19-1.43.57s-.6.88-.64,1.52Z"/>
    <path class="cls-7" d="M727.44,480.58v-1.07c-.56.82-1.33,1.23-2.3,1.23-.43,0-.83-.08-1.2-.25s-.65-.37-.83-.62c-.18-.25-.31-.55-.38-.91-.05-.24-.08-.62-.08-1.15v-4.5h1.23v4.03c0,.64.02,1.08.08,1.3.08.32.24.58.49.76.25.18.56.28.93.28s.72-.09,1.04-.28c.32-.19.55-.45.69-.77.13-.33.2-.8.2-1.42v-3.89h1.23v7.26h-1.1Z"/>
    <path class="cls-7" d="M729.98,478.41l1.22-.19c.07.49.26.86.57,1.12s.75.39,1.31.39.98-.12,1.26-.35c.27-.23.41-.5.41-.81,0-.28-.12-.5-.36-.66-.17-.11-.59-.25-1.26-.42-.9-.23-1.53-.42-1.88-.59-.35-.17-.61-.4-.79-.69-.18-.29-.27-.62-.27-.97,0-.32.07-.62.22-.9.15-.28.35-.5.6-.69.19-.14.45-.26.78-.36.33-.1.68-.15,1.06-.15.57,0,1.07.08,1.5.25s.75.39.95.67c.21.28.35.66.42,1.12l-1.2.16c-.05-.37-.21-.67-.48-.88s-.63-.31-1.11-.31c-.56,0-.97.09-1.21.28s-.36.41-.36.66c0,.16.05.3.15.43.1.13.26.24.47.33.12.05.49.15,1.09.31.87.23,1.48.42,1.82.57.34.15.61.36.81.65s.29.63.29,1.05-.12.8-.36,1.16c-.24.36-.58.64-1.04.84-.45.2-.96.3-1.53.3-.94,0-1.66-.2-2.16-.59s-.81-.97-.95-1.74Z"/>
    <path class="cls-7" d="M742.44,478.24l1.27.16c-.2.74-.57,1.32-1.11,1.73s-1.23.62-2.08.62c-1.06,0-1.9-.33-2.53-.98-.62-.65-.93-1.57-.93-2.75s.31-2.17.94-2.84,1.44-1.01,2.45-1.01,1.76.33,2.38.99.92,1.59.92,2.79c0,.07,0,.18,0,.33h-5.41c.05.8.27,1.41.68,1.83s.91.64,1.52.64c.45,0,.84-.12,1.16-.36s.57-.62.76-1.13ZM738.4,476.25h4.05c-.05-.61-.21-1.07-.46-1.37-.39-.47-.9-.71-1.52-.71-.56,0-1.04.19-1.43.57s-.6.88-.64,1.52Z"/>
    <path class="cls-7" d="M745.55,480.58v-6.3h-1.09v-.96h1.09v-.77c0-.49.04-.85.13-1.09.12-.32.33-.58.63-.78.3-.2.72-.3,1.25-.3.35,0,.73.04,1.15.12l-.18,1.07c-.26-.05-.5-.07-.72-.07-.37,0-.64.08-.79.24s-.23.46-.23.9v.67h1.42v.96h-1.42v6.3h-1.22Z"/>
    <path class="cls-7" d="M753.9,480.58v-1.07c-.56.82-1.33,1.23-2.3,1.23-.43,0-.83-.08-1.2-.25s-.65-.37-.83-.62c-.18-.25-.31-.55-.38-.91-.05-.24-.08-.62-.08-1.15v-4.5h1.23v4.03c0,.64.02,1.08.08,1.3.08.32.24.58.49.76.25.18.56.28.93.28s.72-.09,1.04-.28c.32-.19.55-.45.69-.77.13-.33.2-.8.2-1.42v-3.89h1.23v7.26h-1.1Z"/>
    <path class="cls-7" d="M756.91,480.58v-10.02h1.23v10.02h-1.23Z"/>
    <path class="cls-7" d="M763.91,480.58v-10.02h1.23v10.02h-1.23Z"/>
    <path class="cls-7" d="M766.59,476.95c0-1.34.37-2.34,1.12-2.99.62-.54,1.39-.81,2.28-.81,1,0,1.81.33,2.45.98.63.65.95,1.56.95,2.71,0,.93-.14,1.67-.42,2.21-.28.54-.69.95-1.22,1.25s-1.12.44-1.75.44c-1.02,0-1.84-.33-2.46-.98s-.94-1.59-.94-2.82ZM767.85,476.95c0,.93.2,1.63.61,2.09.41.46.92.69,1.53.69s1.12-.23,1.52-.7.61-1.17.61-2.13c0-.9-.2-1.58-.61-2.04-.41-.46-.92-.69-1.52-.69s-1.13.23-1.53.69-.61,1.16-.61,2.08Z"/>
    <path class="cls-7" d="M774.83,480.58v-7.26h1.11v1.03c.53-.8,1.3-1.2,2.31-1.2.44,0,.84.08,1.21.24.37.16.64.36.82.62s.31.56.38.91c.05.23.07.63.07,1.2v4.46h-1.23v-4.42c0-.5-.05-.88-.14-1.12-.1-.25-.27-.45-.51-.59-.24-.15-.53-.22-.86-.22-.52,0-.98.17-1.36.5s-.57.96-.57,1.89v3.96h-1.23Z"/>
    <path class="cls-7" d="M782.39,481.18l1.2.18c.05.37.19.64.42.81.31.23.72.34,1.25.34.57,0,1.01-.11,1.32-.34s.52-.55.63-.96c.06-.25.09-.78.09-1.58-.54.63-1.21.95-2.01.95-1,0-1.77-.36-2.32-1.08s-.82-1.58-.82-2.59c0-.69.13-1.33.38-1.92.25-.59.61-1.04,1.09-1.36s1.04-.48,1.68-.48c.86,0,1.56.35,2.12,1.04v-.88h1.13v6.28c0,1.13-.12,1.93-.35,2.4-.23.47-.59.84-1.09,1.12s-1.11.41-1.84.41c-.87,0-1.57-.19-2.1-.58-.53-.39-.79-.98-.77-1.76ZM783.41,476.82c0,.95.19,1.65.57,2.08s.85.66,1.42.66,1.04-.22,1.42-.65c.38-.43.57-1.12.57-2.05s-.2-1.56-.59-2.01-.87-.68-1.43-.68-1.01.22-1.39.67c-.38.44-.57,1.1-.57,1.98Z"/>
    <path class="cls-7" d="M789.92,477.57v-1.24h3.78v1.24h-3.78Z"/>
    <path class="cls-7" d="M797.75,479.47l.18,1.09c-.35.07-.66.11-.93.11-.45,0-.79-.07-1.04-.21s-.42-.33-.52-.56c-.1-.23-.15-.71-.15-1.45v-4.18h-.9v-.96h.9v-1.8l1.22-.74v2.54h1.24v.96h-1.24v4.25c0,.35.02.58.06.68s.11.18.21.24.24.09.42.09c.14,0,.32-.02.54-.05Z"/>
    <path class="cls-7" d="M803.92,478.24l1.27.16c-.2.74-.57,1.32-1.11,1.73s-1.23.62-2.08.62c-1.06,0-1.9-.33-2.53-.98-.62-.65-.93-1.57-.93-2.75s.31-2.17.94-2.84,1.44-1.01,2.45-1.01,1.76.33,2.38.99.92,1.59.92,2.79c0,.07,0,.18,0,.33h-5.41c.05.8.27,1.41.68,1.83s.91.64,1.52.64c.45,0,.84-.12,1.16-.36s.57-.62.76-1.13ZM799.88,476.25h4.05c-.05-.61-.21-1.07-.46-1.37-.39-.47-.9-.71-1.52-.71-.56,0-1.04.19-1.43.57s-.6.88-.64,1.52Z"/>
    <path class="cls-7" d="M806.73,480.58v-7.26h1.11v1.1c.28-.51.54-.85.78-1.02s.5-.25.79-.25c.41,0,.84.13,1.26.4l-.42,1.14c-.3-.18-.6-.27-.9-.27-.27,0-.51.08-.72.24-.21.16-.37.39-.46.67-.14.44-.21.92-.21,1.44v3.8h-1.23Z"/>
    <path class="cls-7" d="M811.4,480.58v-7.26h1.1v1.02c.23-.36.53-.64.91-.86.38-.22.81-.32,1.29-.32.54,0,.98.11,1.32.33s.59.54.73.94c.57-.85,1.32-1.27,2.24-1.27.72,0,1.27.2,1.66.6.39.4.58,1.01.58,1.84v4.98h-1.22v-4.57c0-.49-.04-.85-.12-1.06-.08-.22-.22-.39-.43-.52s-.46-.2-.74-.2c-.51,0-.93.17-1.27.51-.34.34-.51.88-.51,1.63v4.22h-1.23v-4.72c0-.55-.1-.96-.3-1.23s-.53-.41-.98-.41c-.35,0-.67.09-.96.27s-.51.45-.64.8-.2.86-.2,1.52v3.77h-1.23Z"/>
    <path class="cls-7" d="M826.73,481.18l1.2.18c.05.37.19.64.42.81.31.23.72.34,1.25.34.57,0,1.01-.11,1.32-.34s.52-.55.63-.96c.06-.25.09-.78.09-1.58-.54.63-1.21.95-2.01.95-1,0-1.77-.36-2.32-1.08s-.82-1.58-.82-2.59c0-.69.13-1.33.38-1.92.25-.59.61-1.04,1.09-1.36s1.04-.48,1.68-.48c.86,0,1.56.35,2.12,1.04v-.88h1.13v6.28c0,1.13-.12,1.93-.35,2.4-.23.47-.59.84-1.09,1.12s-1.11.41-1.84.41c-.87,0-1.57-.19-2.1-.58-.53-.39-.79-.98-.77-1.76ZM827.75,476.82c0,.95.19,1.65.57,2.08s.85.66,1.42.66,1.04-.22,1.42-.65c.38-.43.57-1.12.57-2.05s-.2-1.56-.59-2.01-.87-.68-1.43-.68-1.01.22-1.39.67c-.38.44-.57,1.1-.57,1.98Z"/>
    <path class="cls-7" d="M834.28,476.95c0-1.34.37-2.34,1.12-2.99.62-.54,1.39-.81,2.28-.81,1,0,1.81.33,2.45.98.63.65.95,1.56.95,2.71,0,.93-.14,1.67-.42,2.21-.28.54-.69.95-1.22,1.25s-1.12.44-1.75.44c-1.02,0-1.84-.33-2.46-.98s-.94-1.59-.94-2.82ZM835.55,476.95c0,.93.2,1.63.61,2.09.41.46.92.69,1.53.69s1.12-.23,1.52-.7.61-1.17.61-2.13c0-.9-.2-1.58-.61-2.04-.41-.46-.92-.69-1.52-.69s-1.13.23-1.53.69-.61,1.16-.61,2.08Z"/>
    <path class="cls-7" d="M847.26,479.68c-.46.39-.89.66-1.32.82s-.87.24-1.36.24c-.8,0-1.41-.2-1.84-.58-.43-.39-.64-.89-.64-1.49,0-.36.08-.68.24-.97.16-.29.37-.53.64-.71s.56-.31.89-.4c.24-.06.61-.12,1.09-.18.99-.12,1.73-.26,2.19-.42,0-.17,0-.28,0-.32,0-.5-.12-.85-.35-1.06-.31-.28-.78-.42-1.4-.42-.58,0-1.01.1-1.28.3-.28.2-.48.56-.61,1.08l-1.2-.16c.11-.51.29-.93.54-1.25.25-.32.61-.56,1.09-.73.47-.17,1.02-.26,1.65-.26s1.12.07,1.51.22.67.33.85.55c.18.22.31.5.38.84.04.21.06.59.06,1.13v1.64c0,1.14.03,1.87.08,2.17.05.3.16.59.31.87h-1.29c-.13-.25-.21-.55-.25-.9ZM847.16,476.93c-.45.18-1.12.34-2.01.46-.51.07-.86.16-1.07.25s-.37.22-.49.4c-.11.18-.17.37-.17.58,0,.33.12.6.37.82s.61.33,1.09.33.9-.1,1.26-.31c.37-.21.64-.49.81-.85.13-.28.2-.69.2-1.23v-.45Z"/>
    <path class="cls-7" d="M850.28,480.58v-10.02h1.23v10.02h-1.23Z"/>
    <path class="cls-7" d="M852.93,478.41l1.22-.19c.07.49.26.86.57,1.12s.75.39,1.31.39.98-.12,1.26-.35c.27-.23.41-.5.41-.81,0-.28-.12-.5-.36-.66-.17-.11-.59-.25-1.26-.42-.9-.23-1.53-.42-1.88-.59-.35-.17-.61-.4-.79-.69-.18-.29-.27-.62-.27-.97,0-.32.07-.62.22-.9.15-.28.35-.5.6-.69.19-.14.45-.26.78-.36.33-.1.68-.15,1.06-.15.57,0,1.07.08,1.5.25s.75.39.95.67c.21.28.35.66.42,1.12l-1.2.16c-.05-.37-.21-.67-.48-.88s-.63-.31-1.11-.31c-.56,0-.97.09-1.21.28s-.36.41-.36.66c0,.16.05.3.15.43.1.13.26.24.47.33.12.05.49.15,1.09.31.87.23,1.48.42,1.82.57.34.15.61.36.81.65s.29.63.29,1.05-.12.8-.36,1.16c-.24.36-.58.64-1.04.84-.45.2-.96.3-1.53.3-.94,0-1.66-.2-2.16-.59s-.81-.97-.95-1.74Z"/>
    <path class="cls-7" d="M861.23,483.52h-.88c1.36-2.19,2.04-4.38,2.04-6.57,0-.86-.1-1.71-.29-2.55-.15-.68-.37-1.34-.65-1.97-.18-.41-.54-1.09-1.1-2.05h.88c.86,1.14,1.49,2.29,1.9,3.45.35.99.53,2.03.53,3.12,0,1.23-.24,2.42-.71,3.57s-1.04,2.15-1.72,3.01Z"/>
  </g>
  <rect class="cls-1" x="406.42" y="47.16" width="372.42" height="329.08"/>
  <polygon class="cls-3" points="284.16 376.23 209.16 376.23 211.21 47.16 286.21 47.16 284.16 376.23"/>
  <text class="cls-4" transform="translate(255.97 241.02) rotate(-90)"><tspan x="0" y="0">Environment</tspan></text>
  <g>
    <line class="cls-3" x1="285.94" y1="134.54" x2="421.8" y2="134.54"/>
    <polygon class="cls-5" points="420.34 139.52 428.97 134.54 420.34 129.55 420.34 139.52"/>
  </g>
  <g>
    <line class="cls-3" x1="285.94" y1="87.46" x2="421.8" y2="87.46"/>
    <polygon class="cls-5" points="420.34 92.44 428.97 87.46 420.34 82.47 420.34 92.44"/>
  </g>
  <g>
    <line class="cls-3" x1="285.94" y1="181.62" x2="421.8" y2="181.62"/>
    <polygon class="cls-5" points="420.34 186.6 428.97 181.62 420.34 176.63 420.34 186.6"/>
  </g>
  <g>
    <g>
      <path class="cls-3" d="M292.76,327.5c14.12-4.1,32.29-6.57,52.12-6.57,44.97,0,81.43,13.53,81.43,13.53"/>
      <polygon class="cls-5" points="295.68 331.88 285.94 329.73 292.67 322.37 295.68 331.88"/>
    </g>
    <g>
      <path class="cls-3" d="M399.6,344.36c-14.12,4.1-32.29,6.57-52.12,6.57-25.46,0-48.2-4.34-63.13-8.1"/>
      <polygon class="cls-5" points="396.68 339.98 406.42 342.13 399.69 349.49 396.68 339.98"/>
    </g>
  </g>
  <g>
    <g>
      <path class="cls-3" d="M292.76,280.57c14.12-4.1,32.29-6.57,52.12-6.57,44.97,0,81.43,13.53,81.43,13.53"/>
      <polygon class="cls-5" points="295.68 284.95 285.94 282.8 292.67 275.44 295.68 284.95"/>
    </g>
    <g>
      <path class="cls-3" d="M399.6,297.43c-14.12,4.1-32.29,6.57-52.12,6.57-25.15,0-47.63-4.23-62.57-7.96"/>
      <polygon class="cls-5" points="396.68 293.05 406.42 295.21 399.69 302.56 396.68 293.05"/>
    </g>
  </g>
  <g>
    <g>
      <path class="cls-3" d="M292.76,233.49c14.12-4.1,32.29-6.57,52.12-6.57,44.97,0,81.43,13.53,81.43,13.53"/>
      <polygon class="cls-5" points="295.68 237.87 285.94 235.72 292.67 228.36 295.68 237.87"/>
    </g>
    <g>
      <path class="cls-3" d="M399.6,250.35c-14.12,4.1-32.29,6.57-52.12,6.57-25.16,0-47.66-4.24-62.59-7.97"/>
      <polygon class="cls-5" points="396.68 245.97 406.42 248.13 399.69 255.48 396.68 245.97"/>
    </g>
  </g>
  <rect class="cls-1" x="585.09" y="141.77" width="194.46" height="140" transform="translate(894.1 -470.56) rotate(90)"/>
  <text class="cls-6" transform="translate(636.73 217.39)"><tspan x="0" y="0">Deliberation</tspan></text>
  <text class="cls-6" transform="translate(515.69 177.56) rotate(-90)"><tspan x="0" y="0">Perception</tspan></text>
  <rect class="cls-1" x="443.83" y="114.54" width="40" height="40" transform="translate(927.67 269.08) rotate(-180)"/>
  <line class="cls-2" x1="564.79" y1="67.46" x2="564.79" y2="436.18"/>
  <g>
    <rect class="cls-1" x="443.83" y="67.46" width="40" height="40" transform="translate(927.67 174.91) rotate(-180)"/>
    <g>
      <text class="cls-6" transform="translate(454.91 93.26)"><tspan x="0" y="0">P</tspan></text>
      <text class="cls-6" transform="translate(466.92 99.26) scale(.58)"><tspan x="0" y="0">1</tspan></text>
    </g>
  </g>
  <g>
    <text class="cls-6" transform="translate(454.91 140.34)"><tspan x="0" y="0">P</tspan></text>
    <text class="cls-6" transform="translate(466.92 146.34) scale(.58)"><tspan x="0" y="0">2</tspan></text>
  </g>
  <g>
    <rect class="cls-1" x="443.83" y="161.62" width="40" height="40" transform="translate(927.67 363.24) rotate(-180)"/>
    <g>
      <text class="cls-6" transform="translate(454.91 187.42)"><tspan x="0" y="0">P</tspan></text>
      <text class="cls-6" transform="translate(466.92 193.42) scale(.58)"><tspan x="0" y="0">n</tspan></text>
    </g>
  </g>
  <text class="cls-6" transform="translate(515.69 345.53) rotate(-90)"><tspan x="0" y="0">Action Control</tspan></text>
  <rect class="cls-1" x="443.83" y="269" width="40" height="40" transform="translate(927.67 578) rotate(-180)"/>
  <g>
    <rect class="cls-1" x="443.83" y="221.92" width="40" height="40" transform="translate(927.67 483.84) rotate(-180)"/>
    <g>
      <text class="cls-6" transform="translate(454.91 247.73)"><tspan x="0" y="0">A</tspan></text>
      <text class="cls-6" transform="translate(466.92 253.72) scale(.58)"><tspan x="0" y="0">1</tspan></text>
    </g>
  </g>
  <g>
    <text class="cls-6" transform="translate(454.91 294.81)"><tspan x="0" y="0">A</tspan></text>
    <text class="cls-6" transform="translate(466.92 300.8) scale(.58)"><tspan x="0" y="0">2</tspan></text>
  </g>
  <g>
    <rect class="cls-1" x="443.83" y="316.08" width="40" height="40" transform="translate(927.67 672.16) rotate(-180)"/>
    <g>
      <text class="cls-6" transform="translate(454.91 341.89)"><tspan x="0" y="0">A</tspan></text>
      <text class="cls-6" transform="translate(466.92 347.88) scale(.58)"><tspan x="0" y="0">n</tspan></text>
    </g>
  </g>
  <g>
    <line class="cls-3" x1="535.56" y1="134.54" x2="586.84" y2="134.54"/>
    <polygon class="cls-5" points="585.38 139.52 594.02 134.54 585.38 129.55 585.38 139.52"/>
  </g>
  <g>
    <line class="cls-3" x1="594.02" y1="291.01" x2="542.74" y2="291.01"/>
    <polygon class="cls-5" points="544.2 286.02 535.56 291.01 544.2 296 544.2 286.02"/>
  </g>
</svg>