<?xml version="1.0" encoding="UTF-8"?>
<svg id="maturity" xmlns="http://www.w3.org/2000/svg" viewBox="0 0 988 525">
  <defs>
    <style>
      .cls-1 {
        stroke: #1d1d1b;
      }

      .cls-1, .cls-2, .cls-3, .cls-4, .cls-5 {
        fill: #fff;
      }

      .cls-1, .cls-4, .cls-6, .cls-7 {
        stroke-miterlimit: 8;
      }

      .cls-8, .cls-9, .cls-3 {
        font-family: Arial-BoldMT, Arial;
        font-weight: 700;
      }

      .cls-8, .cls-10, .cls-6, .cls-11 {
        fill: #0333ff;
      }

      .cls-8, .cls-3, .cls-11 {
        font-size: 16px;
      }

      .cls-9 {
        font-size: 18px;
      }

      .cls-9, .cls-12 {
        fill: #000;
      }

      .cls-2 {
        font-size: 14px;
      }

      .cls-2, .cls-11 {
        font-family: ArialMT, Arial;
      }

      .cls-10, .cls-12, .cls-5 {
        stroke-width: 0px;
      }

      .cls-13 {
        letter-spacing: -.06em;
      }

      .cls-4 {
        stroke: #000;
        stroke-linecap: round;
      }

      .cls-6, .cls-7 {
        stroke: #0333ff;
      }

      .cls-7 {
        fill: none;
        stroke-dasharray: 0 0 4 4;
        stroke-width: 2px;
      }
    </style>
  </defs>
  <text class="cls-8" transform="translate(169.78 429.91)"><tspan x="0" y="0">IT resources</tspan></text>
  <text class="cls-8" transform="translate(643.38 429.91)"><tspan x="0" y="0">Digital resources</tspan></text>
  <text class="cls-11" transform="translate(359.48 452.03)"><tspan x="0" y="0">transformed/configured as</tspan></text>
  <g>
    <g>
      <rect class="cls-1" x="68.29" y="99.43" width="300" height="300"/>
      <rect class="cls-4" x="149.15" y="227.94" width="164.77" height="50.5"/>
      <rect class="cls-4" x="83.69" y="129.19" width="121.35" height="50.5"/>
      <rect class="cls-4" x="110.19" y="324.33" width="214.33" height="50.5"/>
      <text class="cls-9" transform="translate(105.84 160.59)"><tspan x="0" y="0">IT assets</tspan></text>
      <text class="cls-9" transform="translate(172.78 258.84)"><tspan x="0" y="0">IT capabilities</tspan></text>
      <text class="cls-9" transform="translate(128.26 355.09)"><tspan x="0" y="0">I</tspan><tspan class="cls-13" x="5" y="0">T</tspan><tspan x="15" y="0">-enabled resources</tspan></text>
    </g>
    <g>
      <polygon class="cls-12" points="511.9 399.43 388.29 399.43 388.29 324.43 511.9 324.43 538.29 361.93 511.9 399.43"/>
      <polygon class="cls-12" points="511.9 286.93 388.29 286.93 388.29 211.93 511.9 211.93 538.29 249.43 511.9 286.93"/>
      <polygon class="cls-12" points="511.9 174.43 388.29 174.43 388.29 99.43 511.9 99.43 538.29 136.93 511.9 174.43"/>
      <g>
        <path class="cls-5" d="M406.82,132.26l3.85-10.02h1.43l4.1,10.02h-1.51l-1.17-3.04h-4.19l-1.1,3.04h-1.41ZM409.72,128.15h3.4l-1.05-2.78c-.32-.84-.56-1.54-.71-2.08-.13.64-.31,1.28-.54,1.91l-1.1,2.94Z"/>
        <path class="cls-5" d="M418.24,132.26h-1.14v-10.02h1.23v3.57c.52-.65,1.18-.98,1.99-.98.45,0,.87.09,1.27.27.4.18.73.43.98.76.26.33.46.72.6,1.18.15.46.22.95.22,1.48,0,1.24-.31,2.21-.92,2.88-.62.68-1.35,1.02-2.21,1.02s-1.53-.36-2.02-1.07v.91ZM418.23,128.57c0,.87.12,1.5.36,1.89.39.63.91.95,1.57.95.54,0,1-.23,1.39-.7s.59-1.16.59-2.09-.19-1.65-.56-2.1c-.38-.45-.83-.68-1.36-.68s-1,.23-1.39.7-.59,1.14-.59,2.03Z"/>
        <path class="cls-5" d="M424.4,130.09l1.22-.19c.07.49.26.86.57,1.12.31.26.75.39,1.31.39s.98-.12,1.26-.35.41-.5.41-.81c0-.28-.12-.5-.36-.66-.17-.11-.59-.25-1.26-.42-.9-.23-1.53-.43-1.88-.59-.35-.17-.61-.4-.79-.69-.18-.29-.27-.62-.27-.97,0-.32.07-.62.22-.9.15-.28.35-.5.61-.69.19-.14.45-.26.78-.36.33-.1.68-.15,1.06-.15.57,0,1.07.08,1.5.25.43.16.75.39.95.67s.35.66.42,1.12l-1.2.16c-.05-.37-.21-.67-.48-.88-.26-.21-.63-.31-1.11-.31-.57,0-.97.09-1.21.28-.24.19-.36.41-.36.66,0,.16.05.3.15.43.1.13.26.24.47.33.12.04.49.15,1.09.31.87.23,1.48.42,1.82.57.34.15.61.36.81.65.2.28.29.63.29,1.05s-.12.8-.36,1.16c-.24.36-.58.64-1.04.84s-.96.3-1.53.3c-.94,0-1.66-.2-2.16-.59-.49-.39-.81-.97-.95-1.74Z"/>
        <path class="cls-5" d="M434.58,131.16l.18,1.09c-.35.07-.66.11-.93.11-.45,0-.79-.07-1.04-.21-.25-.14-.42-.33-.52-.56s-.15-.71-.15-1.45v-4.18h-.9v-.96h.9v-1.8l1.22-.74v2.54h1.24v.96h-1.24v4.24c0,.35.02.58.07.68.04.1.11.18.21.24.1.06.24.09.42.09.14,0,.32-.02.54-.05Z"/>
        <path class="cls-5" d="M435.77,132.26v-7.26h1.11v1.1c.28-.51.54-.85.78-1.02.24-.16.5-.25.79-.25.42,0,.84.13,1.26.4l-.42,1.14c-.3-.18-.6-.27-.9-.27-.27,0-.51.08-.72.24s-.37.39-.46.67c-.14.44-.21.92-.21,1.44v3.8h-1.23Z"/>
        <path class="cls-5" d="M445.18,131.36c-.46.39-.89.66-1.32.82-.42.16-.87.24-1.36.24-.8,0-1.41-.2-1.84-.58s-.64-.89-.64-1.49c0-.36.08-.68.24-.97.16-.29.37-.53.64-.71.26-.18.56-.31.88-.4.24-.06.61-.12,1.09-.18.99-.12,1.72-.26,2.19-.42,0-.17,0-.28,0-.32,0-.5-.12-.85-.35-1.06-.31-.28-.78-.42-1.4-.42-.58,0-1.01.1-1.28.3-.28.2-.48.56-.61,1.08l-1.2-.16c.11-.51.29-.93.54-1.25s.61-.56,1.09-.73,1.02-.26,1.65-.26,1.12.07,1.51.22c.39.15.67.33.85.55s.31.5.38.84c.04.21.06.59.06,1.13v1.64c0,1.14.03,1.87.08,2.17.05.3.16.59.31.87h-1.29c-.13-.26-.21-.55-.25-.9ZM445.08,128.62c-.45.18-1.12.34-2.01.46-.51.07-.86.16-1.07.25-.21.09-.37.22-.49.4s-.17.37-.17.58c0,.33.12.6.37.82.25.22.61.33,1.09.33s.9-.1,1.26-.31.64-.49.81-.85c.13-.28.2-.69.2-1.23v-.45Z"/>
        <path class="cls-5" d="M452.97,129.6l1.21.16c-.13.83-.47,1.49-1.01,1.96-.54.47-1.21.71-2.01.71-.99,0-1.79-.33-2.4-.97-.6-.65-.91-1.58-.91-2.79,0-.78.13-1.47.39-2.06s.66-1.03,1.19-1.32c.53-.29,1.11-.44,1.73-.44.79,0,1.43.2,1.93.6s.82.96.96,1.7l-1.2.18c-.11-.49-.32-.85-.6-1.1-.29-.25-.64-.37-1.05-.37-.62,0-1.12.22-1.51.67s-.58,1.15-.58,2.11.19,1.68.56,2.12c.37.44.86.66,1.46.66.48,0,.89-.15,1.21-.45.32-.3.53-.75.62-1.37Z"/>
        <path class="cls-5" d="M457.92,131.16l.18,1.09c-.35.07-.66.11-.93.11-.45,0-.79-.07-1.04-.21-.25-.14-.42-.33-.52-.56s-.15-.71-.15-1.45v-4.18h-.9v-.96h.9v-1.8l1.22-.74v2.54h1.24v.96h-1.24v4.24c0,.35.02.58.07.68.04.1.11.18.21.24.1.06.24.09.42.09.14,0,.32-.02.54-.05Z"/>
        <path class="cls-5" d="M459.13,123.65v-1.41h1.23v1.41h-1.23ZM459.13,132.26v-7.26h1.23v7.26h-1.23Z"/>
        <path class="cls-5" d="M461.77,128.63c0-1.34.37-2.34,1.12-2.99.62-.54,1.39-.81,2.28-.81,1,0,1.81.33,2.45.98s.95,1.56.95,2.71c0,.93-.14,1.67-.42,2.2-.28.54-.69.95-1.22,1.25-.54.3-1.12.45-1.75.45-1.02,0-1.84-.33-2.46-.98-.63-.65-.94-1.59-.94-2.82ZM463.04,128.63c0,.93.2,1.63.61,2.09s.92.69,1.53.69,1.12-.23,1.52-.7.61-1.17.61-2.13c0-.9-.2-1.58-.61-2.04-.41-.46-.92-.69-1.52-.69s-1.13.23-1.53.69c-.41.46-.61,1.15-.61,2.08Z"/>
        <path class="cls-5" d="M470.02,132.26v-7.26h1.11v1.03c.53-.8,1.3-1.2,2.31-1.2.44,0,.84.08,1.21.24.37.16.64.36.82.62.18.26.31.56.38.91.05.23.07.63.07,1.2v4.46h-1.23v-4.42c0-.5-.05-.88-.14-1.12s-.27-.45-.51-.59c-.24-.15-.53-.22-.86-.22-.52,0-.98.17-1.36.5-.38.33-.57.96-.57,1.89v3.96h-1.23Z"/>
        <path class="cls-5" d="M481.23,128.63c0-1.34.37-2.34,1.12-2.99.62-.54,1.39-.81,2.28-.81,1,0,1.81.33,2.45.98s.95,1.56.95,2.71c0,.93-.14,1.67-.42,2.2-.28.54-.69.95-1.22,1.25-.54.3-1.12.45-1.75.45-1.02,0-1.84-.33-2.46-.98-.63-.65-.94-1.59-.94-2.82ZM482.5,128.63c0,.93.2,1.63.61,2.09s.92.69,1.53.69,1.12-.23,1.52-.7.61-1.17.61-2.13c0-.9-.2-1.58-.61-2.04-.41-.46-.92-.69-1.52-.69s-1.13.23-1.53.69c-.41.46-.61,1.15-.61,2.08Z"/>
        <path class="cls-5" d="M489.77,132.26v-6.3h-1.09v-.96h1.09v-.77c0-.49.04-.85.13-1.09.12-.32.33-.58.63-.78.3-.2.72-.3,1.25-.3.35,0,.73.04,1.15.12l-.18,1.07c-.25-.05-.5-.07-.72-.07-.37,0-.64.08-.79.24-.16.16-.23.46-.23.9v.67h1.42v.96h-1.42v6.3h-1.22Z"/>
        <path class="cls-5" d="M407.31,145.43c0-1.34.37-2.34,1.12-2.99.62-.54,1.39-.81,2.28-.81,1,0,1.81.33,2.45.98s.95,1.56.95,2.71c0,.93-.14,1.67-.42,2.21-.28.54-.69.95-1.22,1.25-.54.3-1.12.44-1.75.44-1.02,0-1.84-.33-2.46-.98-.63-.65-.94-1.59-.94-2.82ZM408.57,145.43c0,.93.2,1.62.61,2.09s.92.69,1.53.69,1.12-.23,1.52-.7.61-1.17.61-2.12c0-.9-.2-1.58-.61-2.04-.41-.46-.92-.69-1.52-.69s-1.13.23-1.53.69c-.41.46-.61,1.16-.61,2.09Z"/>
        <path class="cls-5" d="M416.69,149.06h-1.14v-10.02h1.23v3.58c.52-.65,1.18-.98,1.99-.98.45,0,.87.09,1.27.27.4.18.73.43.98.76.26.33.46.72.6,1.18.15.46.22.95.22,1.48,0,1.24-.31,2.21-.92,2.88-.62.68-1.35,1.02-2.21,1.02s-1.53-.36-2.02-1.07v.91ZM416.67,145.38c0,.87.12,1.5.36,1.89.39.63.91.95,1.57.95.54,0,1-.23,1.39-.7s.59-1.16.59-2.09-.19-1.65-.56-2.1c-.38-.45-.83-.68-1.36-.68s-1,.23-1.39.7-.59,1.14-.59,2.03Z"/>
        <path class="cls-5" d="M421.77,151.88l.23-1.04c.25.06.44.1.58.1.25,0,.44-.08.56-.25s.18-.58.18-1.25v-7.63h1.23v7.66c0,.89-.12,1.52-.35,1.87-.3.46-.79.68-1.48.68-.33,0-.65-.04-.96-.13ZM423.33,140.47v-1.43h1.23v1.43h-1.23Z"/>
        <path class="cls-5" d="M431.42,146.72l1.27.16c-.2.74-.57,1.32-1.11,1.73s-1.24.62-2.08.62c-1.06,0-1.9-.33-2.53-.98-.62-.65-.93-1.57-.93-2.75s.31-2.17.94-2.84c.63-.67,1.44-1.01,2.45-1.01s1.76.33,2.38.99c.62.66.92,1.59.92,2.79,0,.07,0,.18,0,.33h-5.41c.05.8.27,1.41.68,1.83s.91.63,1.52.63c.45,0,.84-.12,1.16-.36.32-.24.57-.62.76-1.13ZM427.38,144.73h4.05c-.05-.61-.21-1.07-.46-1.38-.39-.47-.9-.71-1.52-.71-.57,0-1.04.19-1.42.57-.39.38-.6.88-.64,1.52Z"/>
        <path class="cls-5" d="M438.97,146.4l1.21.16c-.13.83-.47,1.49-1.01,1.96-.54.47-1.21.71-2.01.71-.99,0-1.79-.32-2.4-.97-.6-.65-.91-1.58-.91-2.79,0-.78.13-1.47.39-2.06s.66-1.03,1.19-1.32c.53-.29,1.11-.44,1.73-.44.79,0,1.43.2,1.93.6s.82.96.96,1.7l-1.2.19c-.11-.49-.32-.86-.6-1.1-.29-.25-.64-.37-1.05-.37-.62,0-1.12.22-1.51.67s-.58,1.15-.58,2.11.19,1.68.56,2.13c.37.44.86.66,1.46.66.48,0,.89-.15,1.21-.44.32-.3.53-.75.62-1.37Z"/>
        <path class="cls-5" d="M443.92,147.96l.18,1.09c-.35.07-.66.11-.93.11-.45,0-.79-.07-1.04-.21-.25-.14-.42-.33-.52-.56s-.15-.71-.15-1.45v-4.18h-.9v-.96h.9v-1.8l1.22-.74v2.54h1.24v.96h-1.24v4.25c0,.35.02.58.07.68.04.1.11.18.21.24.1.06.24.09.42.09.14,0,.32-.02.54-.05Z"/>
        <path class="cls-5" d="M448.56,145.43c0-1.34.37-2.34,1.12-2.99.62-.54,1.39-.81,2.28-.81,1,0,1.81.33,2.45.98s.95,1.56.95,2.71c0,.93-.14,1.67-.42,2.21-.28.54-.69.95-1.22,1.25-.54.3-1.12.44-1.75.44-1.02,0-1.84-.33-2.46-.98-.63-.65-.94-1.59-.94-2.82ZM449.82,145.43c0,.93.2,1.62.61,2.09s.92.69,1.53.69,1.12-.23,1.52-.7.61-1.17.61-2.12c0-.9-.2-1.58-.61-2.04-.41-.46-.92-.69-1.52-.69s-1.13.23-1.53.69c-.41.46-.61,1.16-.61,2.09Z"/>
        <path class="cls-5" d="M457.1,149.06v-6.3h-1.09v-.96h1.09v-.77c0-.49.04-.85.13-1.09.12-.32.33-.58.63-.78.3-.2.72-.3,1.25-.3.35,0,.73.04,1.15.12l-.18,1.07c-.25-.04-.5-.07-.72-.07-.37,0-.64.08-.79.24-.16.16-.23.46-.23.89v.67h1.42v.96h-1.42v6.3h-1.22Z"/>
        <path class="cls-5" d="M466.6,149.06l-2.76-7.26h1.3l1.56,4.35c.17.47.32.96.46,1.46.11-.38.26-.84.46-1.38l1.61-4.43h1.26l-2.75,7.26h-1.15Z"/>
        <path class="cls-5" d="M476.32,148.16c-.46.39-.89.66-1.32.82-.42.16-.87.24-1.36.24-.8,0-1.41-.19-1.84-.58s-.64-.89-.64-1.49c0-.36.08-.68.24-.97.16-.29.37-.53.64-.71.26-.18.56-.31.88-.4.24-.06.61-.13,1.09-.19.99-.12,1.72-.26,2.19-.42,0-.17,0-.28,0-.32,0-.5-.12-.86-.35-1.06-.31-.28-.78-.42-1.4-.42-.58,0-1.01.1-1.28.3-.28.2-.48.56-.61,1.08l-1.2-.16c.11-.52.29-.93.54-1.25s.61-.56,1.09-.73,1.02-.26,1.65-.26,1.12.07,1.51.22c.39.15.67.33.85.55s.31.5.38.84c.04.21.06.59.06,1.13v1.64c0,1.14.03,1.87.08,2.17.05.3.16.59.31.87h-1.29c-.13-.25-.21-.55-.25-.89ZM476.22,145.42c-.45.18-1.12.34-2.01.46-.51.07-.86.15-1.07.25-.21.09-.37.22-.49.4s-.17.37-.17.58c0,.33.12.6.37.82.25.22.61.33,1.09.33s.9-.1,1.26-.31.64-.49.81-.85c.13-.28.2-.69.2-1.23v-.45Z"/>
        <path class="cls-5" d="M479.34,149.06v-10.02h1.23v10.02h-1.23Z"/>
        <path class="cls-5" d="M487.24,149.06v-1.07c-.57.82-1.33,1.23-2.3,1.23-.43,0-.83-.08-1.2-.25-.37-.16-.65-.37-.83-.62-.18-.25-.31-.55-.38-.91-.05-.24-.08-.62-.08-1.15v-4.5h1.23v4.03c0,.64.03,1.08.08,1.3.08.32.24.58.49.76s.56.28.93.28.72-.1,1.04-.28.55-.45.69-.77c.13-.33.2-.8.2-1.42v-3.89h1.23v7.26h-1.1Z"/>
        <path class="cls-5" d="M495.23,146.72l1.27.16c-.2.74-.57,1.32-1.11,1.73s-1.24.62-2.08.62c-1.06,0-1.9-.33-2.53-.98-.62-.65-.93-1.57-.93-2.75s.31-2.17.94-2.84c.63-.67,1.44-1.01,2.45-1.01s1.76.33,2.38.99c.62.66.92,1.59.92,2.79,0,.07,0,.18,0,.33h-5.41c.05.8.27,1.41.68,1.83s.91.63,1.52.63c.45,0,.84-.12,1.16-.36.32-.24.57-.62.76-1.13ZM491.19,144.73h4.05c-.05-.61-.21-1.07-.46-1.38-.39-.47-.9-.71-1.52-.71-.57,0-1.04.19-1.42.57-.39.38-.6.88-.64,1.52Z"/>
      </g>
      <text class="cls-2" transform="translate(406.84 253.16)"><tspan x="0" y="0">Modularization</tspan></text>
      <g>
        <path class="cls-5" d="M407.95,357.26v-10.02h7.25v1.18h-5.92v3.07h5.54v1.18h-5.54v3.41h6.15v1.18h-7.48Z"/>
        <path class="cls-5" d="M417.11,357.26v-7.26h1.11v1.03c.53-.8,1.3-1.2,2.31-1.2.44,0,.84.08,1.21.24.37.16.64.36.82.62.18.26.31.56.38.91.05.23.07.63.07,1.2v4.46h-1.23v-4.42c0-.5-.05-.88-.14-1.12s-.27-.45-.51-.59c-.24-.15-.53-.22-.86-.22-.52,0-.98.17-1.36.5-.38.33-.57.96-.57,1.89v3.96h-1.23Z"/>
        <path class="cls-5" d="M429.63,354.6l1.21.16c-.13.83-.47,1.49-1.01,1.96-.54.47-1.21.71-2.01.71-.99,0-1.79-.33-2.4-.97-.6-.65-.91-1.58-.91-2.79,0-.78.13-1.47.39-2.06s.66-1.03,1.19-1.32c.53-.29,1.11-.44,1.73-.44.79,0,1.43.2,1.93.6s.82.96.96,1.7l-1.2.18c-.11-.49-.32-.85-.6-1.1-.29-.25-.64-.37-1.05-.37-.62,0-1.12.22-1.51.67s-.58,1.15-.58,2.11.19,1.68.56,2.12c.37.44.86.66,1.46.66.48,0,.89-.15,1.21-.45.32-.3.53-.75.62-1.37Z"/>
        <path class="cls-5" d="M436.63,356.36c-.46.39-.89.66-1.32.82-.42.16-.87.24-1.36.24-.8,0-1.41-.2-1.84-.58s-.64-.89-.64-1.49c0-.36.08-.68.24-.97.16-.29.37-.53.64-.71.26-.18.56-.31.88-.4.24-.06.61-.12,1.09-.18.99-.12,1.72-.26,2.19-.42,0-.17,0-.28,0-.32,0-.5-.12-.85-.35-1.06-.31-.28-.78-.42-1.4-.42-.58,0-1.01.1-1.28.3-.28.2-.48.56-.61,1.08l-1.2-.16c.11-.51.29-.93.54-1.25s.61-.56,1.09-.73,1.02-.26,1.65-.26,1.12.07,1.51.22c.39.15.67.33.85.55s.31.5.38.84c.04.21.06.59.06,1.13v1.64c0,1.14.03,1.87.08,2.17.05.3.16.59.31.87h-1.29c-.13-.26-.21-.55-.25-.9ZM436.53,353.62c-.45.18-1.12.34-2.01.46-.51.07-.86.16-1.07.25-.21.09-.37.22-.49.4s-.17.37-.17.58c0,.33.12.6.37.82.25.22.61.33,1.09.33s.9-.1,1.26-.31.64-.49.81-.85c.13-.28.2-.69.2-1.23v-.45Z"/>
        <path class="cls-5" d="M439.68,360.04v-10.04h1.12v.94c.26-.37.56-.65.9-.83s.74-.28,1.21-.28c.62,0,1.17.16,1.64.48.47.32.83.77,1.07,1.35s.36,1.22.36,1.91c0,.74-.13,1.41-.4,2.01-.27.59-.65,1.05-1.16,1.37-.51.32-1.04.48-1.6.48-.41,0-.78-.09-1.1-.26-.33-.17-.59-.39-.8-.66v3.53h-1.23ZM440.79,353.67c0,.93.19,1.62.57,2.07.38.45.84.67,1.37.67s1.02-.23,1.4-.69c.39-.46.58-1.18.58-2.15s-.19-1.62-.57-2.08c-.38-.46-.83-.69-1.36-.69s-.99.25-1.39.74c-.4.49-.61,1.2-.61,2.14Z"/>
        <path class="cls-5" d="M446.97,355.09l1.22-.19c.07.49.26.86.57,1.12.31.26.75.39,1.31.39s.98-.12,1.26-.35.41-.5.41-.81c0-.28-.12-.5-.36-.66-.17-.11-.59-.25-1.26-.42-.9-.23-1.53-.43-1.88-.59-.35-.17-.61-.4-.79-.69-.18-.29-.27-.62-.27-.97,0-.32.07-.62.22-.9.15-.28.35-.5.61-.69.19-.14.45-.26.78-.36.33-.1.68-.15,1.06-.15.57,0,1.07.08,1.5.25.43.16.75.39.95.67s.35.66.42,1.12l-1.2.16c-.05-.37-.21-.67-.48-.88-.26-.21-.63-.31-1.11-.31-.57,0-.97.09-1.21.28-.24.19-.36.41-.36.66,0,.16.05.3.15.43.1.13.26.24.47.33.12.04.49.15,1.09.31.87.23,1.48.42,1.82.57.34.15.61.36.81.65.2.28.29.63.29,1.05s-.12.8-.36,1.16c-.24.36-.58.64-1.04.84s-.96.3-1.53.3c-.94,0-1.66-.2-2.16-.59-.49-.39-.81-.97-.95-1.74Z"/>
        <path class="cls-5" d="M459.22,357.26v-1.07c-.57.82-1.33,1.23-2.3,1.23-.43,0-.83-.08-1.2-.25-.37-.16-.65-.37-.83-.62-.18-.25-.31-.55-.38-.91-.05-.24-.08-.62-.08-1.15v-4.5h1.23v4.03c0,.64.03,1.08.08,1.3.08.32.24.58.49.76s.56.28.93.28.72-.09,1.04-.28.55-.45.69-.77c.13-.33.2-.8.2-1.42v-3.89h1.23v7.26h-1.1Z"/>
        <path class="cls-5" d="M462.22,357.26v-10.02h1.23v10.02h-1.23Z"/>
        <path class="cls-5" d="M470.1,356.36c-.46.39-.89.66-1.32.82-.42.16-.87.24-1.36.24-.8,0-1.41-.2-1.84-.58s-.64-.89-.64-1.49c0-.36.08-.68.24-.97.16-.29.37-.53.64-.71.26-.18.56-.31.88-.4.24-.06.61-.12,1.09-.18.99-.12,1.72-.26,2.19-.42,0-.17,0-.28,0-.32,0-.5-.12-.85-.35-1.06-.31-.28-.78-.42-1.4-.42-.58,0-1.01.1-1.28.3-.28.2-.48.56-.61,1.08l-1.2-.16c.11-.51.29-.93.54-1.25s.61-.56,1.09-.73,1.02-.26,1.65-.26,1.12.07,1.51.22c.39.15.67.33.85.55s.31.5.38.84c.04.21.06.59.06,1.13v1.64c0,1.14.03,1.87.08,2.17.05.3.16.59.31.87h-1.29c-.13-.26-.21-.55-.25-.9ZM470,353.62c-.45.18-1.12.34-2.01.46-.51.07-.86.16-1.07.25-.21.09-.37.22-.49.4s-.17.37-.17.58c0,.33.12.6.37.82.25.22.61.33,1.09.33s.9-.1,1.26-.31.64-.49.81-.85c.13-.28.2-.69.2-1.23v-.45Z"/>
        <path class="cls-5" d="M475.83,356.16l.18,1.09c-.35.07-.66.11-.93.11-.45,0-.79-.07-1.04-.21-.25-.14-.42-.33-.52-.56s-.15-.71-.15-1.45v-4.18h-.9v-.96h.9v-1.8l1.22-.74v2.54h1.24v.96h-1.24v4.24c0,.35.02.58.07.68.04.1.11.18.21.24.1.06.24.09.42.09.14,0,.32-.02.54-.05Z"/>
        <path class="cls-5" d="M477.04,348.65v-1.41h1.23v1.41h-1.23ZM477.04,357.26v-7.26h1.23v7.26h-1.23Z"/>
        <path class="cls-5" d="M479.69,353.63c0-1.34.37-2.34,1.12-2.99.62-.54,1.39-.81,2.28-.81,1,0,1.81.33,2.45.98s.95,1.56.95,2.71c0,.93-.14,1.67-.42,2.2-.28.54-.69.95-1.22,1.25-.54.3-1.12.45-1.75.45-1.02,0-1.84-.33-2.46-.98-.63-.65-.94-1.59-.94-2.82ZM480.95,353.63c0,.93.2,1.63.61,2.09s.92.69,1.53.69,1.12-.23,1.52-.7.61-1.17.61-2.13c0-.9-.2-1.58-.61-2.04-.41-.46-.92-.69-1.52-.69s-1.13.23-1.53.69c-.41.46-.61,1.15-.61,2.08Z"/>
        <path class="cls-5" d="M487.93,357.26v-7.26h1.11v1.03c.53-.8,1.3-1.2,2.31-1.2.44,0,.84.08,1.21.24.37.16.64.36.82.62.18.26.31.56.38.91.05.23.07.63.07,1.2v4.46h-1.23v-4.42c0-.5-.05-.88-.14-1.12s-.27-.45-.51-.59c-.24-.15-.53-.22-.86-.22-.52,0-.98.17-1.36.5-.38.33-.57.96-.57,1.89v3.96h-1.23Z"/>
        <path class="cls-5" d="M409.78,374.06l-2.76-7.26h1.3l1.56,4.35c.17.47.32.96.46,1.46.11-.38.26-.84.46-1.38l1.61-4.43h1.26l-2.75,7.26h-1.15Z"/>
        <path class="cls-5" d="M414.77,365.45v-1.42h1.23v1.42h-1.23ZM414.77,374.06v-7.26h1.23v7.26h-1.23Z"/>
        <path class="cls-5" d="M422.62,373.16c-.46.39-.89.66-1.32.82-.42.16-.87.24-1.36.24-.8,0-1.41-.19-1.84-.58s-.64-.89-.64-1.49c0-.36.08-.68.24-.97.16-.29.37-.53.64-.71.26-.18.56-.31.88-.4.24-.06.61-.13,1.09-.19.99-.12,1.72-.26,2.19-.42,0-.17,0-.28,0-.32,0-.5-.12-.86-.35-1.06-.31-.28-.78-.42-1.4-.42-.58,0-1.01.1-1.28.3-.28.2-.48.56-.61,1.08l-1.2-.16c.11-.52.29-.93.54-1.25s.61-.56,1.09-.73,1.02-.26,1.65-.26,1.12.07,1.51.22c.39.15.67.33.85.55s.31.5.38.84c.04.21.06.59.06,1.13v1.64c0,1.14.03,1.87.08,2.17.05.3.16.59.31.87h-1.29c-.13-.25-.21-.55-.25-.89ZM422.51,370.42c-.45.18-1.12.34-2.01.46-.51.07-.86.15-1.07.25-.21.09-.37.22-.49.4s-.17.37-.17.58c0,.33.12.6.37.82.25.22.61.33,1.09.33s.9-.1,1.26-.31.64-.49.81-.85c.13-.28.2-.69.2-1.23v-.45Z"/>
        <path class="cls-5" d="M429.56,365.45v-1.42h1.23v1.42h-1.23ZM429.56,374.06v-7.26h1.23v7.26h-1.23Z"/>
        <path class="cls-5" d="M432.66,374.06v-7.26h1.11v1.03c.53-.8,1.3-1.2,2.31-1.2.44,0,.84.08,1.21.24.37.16.64.36.82.62.18.25.31.56.38.91.05.23.07.63.07,1.2v4.46h-1.23v-4.42c0-.5-.05-.88-.14-1.12s-.27-.45-.51-.59c-.24-.15-.53-.22-.86-.22-.52,0-.98.17-1.36.5-.38.33-.57.96-.57,1.89v3.96h-1.23Z"/>
        <path class="cls-5" d="M443.14,372.96l.18,1.09c-.35.07-.66.11-.93.11-.45,0-.79-.07-1.04-.21-.25-.14-.42-.33-.52-.56s-.15-.71-.15-1.45v-4.18h-.9v-.96h.9v-1.8l1.22-.74v2.54h1.24v.96h-1.24v4.25c0,.35.02.58.07.68.04.1.11.18.21.24.1.06.24.09.42.09.14,0,.32-.02.54-.05Z"/>
        <path class="cls-5" d="M449.31,371.72l1.27.16c-.2.74-.57,1.32-1.11,1.73s-1.24.62-2.08.62c-1.06,0-1.9-.33-2.53-.98-.62-.65-.93-1.57-.93-2.75s.31-2.17.94-2.84c.63-.67,1.44-1.01,2.45-1.01s1.76.33,2.38.99c.62.66.92,1.59.92,2.79,0,.07,0,.18,0,.33h-5.41c.05.8.27,1.41.68,1.83s.91.63,1.52.63c.45,0,.84-.12,1.16-.36.32-.24.57-.62.76-1.13ZM445.27,369.73h4.05c-.05-.61-.21-1.07-.46-1.38-.39-.47-.9-.71-1.52-.71-.57,0-1.04.19-1.42.57-.39.38-.6.88-.64,1.52Z"/>
        <path class="cls-5" d="M452.11,374.06v-7.26h1.11v1.1c.28-.52.54-.86.78-1.02.24-.16.5-.25.79-.25.42,0,.84.13,1.26.4l-.42,1.14c-.3-.18-.6-.27-.9-.27-.27,0-.51.08-.72.24s-.37.39-.46.67c-.14.44-.21.92-.21,1.44v3.8h-1.23Z"/>
        <path class="cls-5" d="M457.08,374.06v-6.3h-1.09v-.96h1.09v-.77c0-.49.04-.85.13-1.09.12-.32.33-.58.63-.78.3-.2.72-.3,1.25-.3.35,0,.73.04,1.15.12l-.18,1.07c-.25-.04-.5-.07-.72-.07-.37,0-.64.08-.79.24-.16.16-.23.46-.23.89v.67h1.42v.96h-1.42v6.3h-1.22Z"/>
        <path class="cls-5" d="M465.42,373.16c-.46.39-.89.66-1.32.82-.42.16-.87.24-1.36.24-.8,0-1.41-.19-1.84-.58s-.64-.89-.64-1.49c0-.36.08-.68.24-.97.16-.29.37-.53.64-.71.26-.18.56-.31.88-.4.24-.06.61-.13,1.09-.19.99-.12,1.72-.26,2.19-.42,0-.17,0-.28,0-.32,0-.5-.12-.86-.35-1.06-.31-.28-.78-.42-1.4-.42-.58,0-1.01.1-1.28.3-.28.2-.48.56-.61,1.08l-1.2-.16c.11-.52.29-.93.54-1.25s.61-.56,1.09-.73,1.02-.26,1.65-.26,1.12.07,1.51.22c.39.15.67.33.85.55s.31.5.38.84c.04.21.06.59.06,1.13v1.64c0,1.14.03,1.87.08,2.17.05.3.16.59.31.87h-1.29c-.13-.25-.21-.55-.25-.89ZM465.31,370.42c-.45.18-1.12.34-2.01.46-.51.07-.86.15-1.07.25-.21.09-.37.22-.49.4s-.17.37-.17.58c0,.33.12.6.37.82.25.22.61.33,1.09.33s.9-.1,1.26-.31.64-.49.81-.85c.13-.28.2-.69.2-1.23v-.45Z"/>
        <path class="cls-5" d="M473.2,371.4l1.21.16c-.13.83-.47,1.49-1.01,1.96-.54.47-1.21.71-2.01.71-.99,0-1.79-.32-2.4-.97-.6-.65-.91-1.58-.91-2.79,0-.78.13-1.47.39-2.06s.66-1.03,1.19-1.32c.53-.29,1.11-.44,1.73-.44.79,0,1.43.2,1.93.6s.82.96.96,1.7l-1.2.19c-.11-.49-.32-.86-.6-1.1-.29-.25-.64-.37-1.05-.37-.62,0-1.12.22-1.51.67s-.58,1.15-.58,2.11.19,1.68.56,2.13c.37.44.86.66,1.46.66.48,0,.89-.15,1.21-.44.32-.3.53-.75.62-1.37Z"/>
        <path class="cls-5" d="M480.43,371.72l1.27.16c-.2.74-.57,1.32-1.11,1.73s-1.24.62-2.08.62c-1.06,0-1.9-.33-2.53-.98-.62-.65-.93-1.57-.93-2.75s.31-2.17.94-2.84c.63-.67,1.44-1.01,2.45-1.01s1.76.33,2.38.99c.62.66.92,1.59.92,2.79,0,.07,0,.18,0,.33h-5.41c.05.8.27,1.41.68,1.83s.91.63,1.52.63c.45,0,.84-.12,1.16-.36.32-.24.57-.62.76-1.13ZM476.39,369.73h4.05c-.05-.61-.21-1.07-.46-1.38-.39-.47-.9-.71-1.52-.71-.57,0-1.04.19-1.42.57-.39.38-.6.88-.64,1.52Z"/>
      </g>
    </g>
    <g>
      <rect class="cls-1" x="558.29" y="99.43" width="300" height="300"/>
      <rect class="cls-4" x="584.18" y="126.48" width="248.22" height="110"/>
      <rect class="cls-4" x="584.18" y="263.54" width="248.22" height="110"/>
      <text class="cls-9" transform="translate(650.27 185.81)"><tspan x="0" y="0">Digital assets</tspan></text>
      <text class="cls-9" transform="translate(629.27 322.87)"><tspan x="0" y="0">Digital capabilities</tspan></text>
    </g>
  </g>
  <g>
    <line class="cls-7" x1="280.61" y1="425.16" x2="613.46" y2="425.16"/>
    <polygon class="cls-10" points="611.28 432.64 624.23 425.16 611.28 417.68 611.28 432.64"/>
  </g>
  <rect class="cls-6" x="858.29" y="99.43" width="50" height="300"/>
  <text class="cls-3" transform="translate(889.14 338.79) rotate(-90)"><tspan x="0" y="0">Programmatic interface</tspan></text>
</svg>