<?xml version="1.0" encoding="UTF-8"?>
<svg id="Ebene_1" data-name="Ebene 1" xmlns="http://www.w3.org/2000/svg" viewBox="0 0 988 525">
  <defs>
    <style>
      .cls-1 {
        letter-spacing: 0em;
      }

      .cls-2 {
        letter-spacing: 0em;
      }

      .cls-3 {
        letter-spacing: 0em;
      }

      .cls-4 {
        letter-spacing: -.02em;
      }

      .cls-5 {
        letter-spacing: -.01em;
      }

      .cls-6 {
        letter-spacing: -.01em;
      }

      .cls-7 {
        letter-spacing: .03em;
      }

      .cls-8 {
        letter-spacing: 0em;
      }

      .cls-9 {
        letter-spacing: 0em;
      }

      .cls-10 {
        letter-spacing: 0em;
      }

      .cls-11 {
        letter-spacing: 0em;
      }

      .cls-12 {
        letter-spacing: -.02em;
      }

      .cls-13 {
        letter-spacing: -.02em;
      }

      .cls-14 {
        letter-spacing: -.01em;
      }

      .cls-15 {
        letter-spacing: 0em;
      }

      .cls-16 {
        letter-spacing: 0em;
      }

      .cls-17 {
        letter-spacing: 0em;
      }

      .cls-18 {
        letter-spacing: 0em;
      }

      .cls-19 {
        letter-spacing: -.02em;
      }

      .cls-20 {
        letter-spacing: 0em;
      }

      .cls-21 {
        letter-spacing: -.01em;
      }

      .cls-22 {
        letter-spacing: 0em;
      }

      .cls-23 {
        letter-spacing: -.02em;
      }

      .cls-24 {
        letter-spacing: 0em;
      }

      .cls-25 {
        letter-spacing: 0em;
      }

      .cls-26 {
        letter-spacing: -.02em;
      }

      .cls-27 {
        letter-spacing: .01em;
      }

      .cls-28 {
        letter-spacing: -.01em;
      }

      .cls-29 {
        letter-spacing: 0em;
      }

      .cls-30 {
        letter-spacing: .02em;
      }

      .cls-31 {
        letter-spacing: 0em;
      }

      .cls-32 {
        letter-spacing: .02em;
      }

      .cls-33 {
        letter-spacing: .02em;
      }

      .cls-34 {
        letter-spacing: 0em;
      }

      .cls-35 {
        letter-spacing: -.01em;
      }

      .cls-36 {
        letter-spacing: -.02em;
      }

      .cls-37 {
        letter-spacing: -.02em;
      }

      .cls-38 {
        letter-spacing: -.03em;
      }

      .cls-39 {
        letter-spacing: .01em;
      }

      .cls-40 {
        letter-spacing: -.04em;
      }

      .cls-41 {
        letter-spacing: 0em;
      }

      .cls-42 {
        letter-spacing: 0em;
      }

      .cls-43 {
        letter-spacing: 0em;
      }

      .cls-44 {
        letter-spacing: 0em;
      }

      .cls-45 {
        letter-spacing: 0em;
      }

      .cls-46 {
        letter-spacing: -.02em;
      }

      .cls-47 {
        letter-spacing: 0em;
      }

      .cls-48 {
        letter-spacing: -.03em;
      }

      .cls-49 {
        letter-spacing: .01em;
      }

      .cls-50 {
        fill: #fff;
      }

      .cls-50, .cls-51 {
        stroke: #1d1d1b;
        stroke-miterlimit: 10;
        stroke-width: 2px;
      }

      .cls-52 {
        letter-spacing: 0em;
      }

      .cls-53 {
        letter-spacing: .01em;
      }

      .cls-54 {
        letter-spacing: -.02em;
      }

      .cls-55 {
        letter-spacing: 0em;
      }

      .cls-56 {
        letter-spacing: 0em;
      }

      .cls-57 {
        letter-spacing: -.04em;
      }

      .cls-58 {
        letter-spacing: 0em;
      }

      .cls-59 {
        letter-spacing: .01em;
      }

      .cls-60 {
        letter-spacing: 0em;
      }

      .cls-61 {
        letter-spacing: .01em;
      }

      .cls-62 {
        letter-spacing: 0em;
      }

      .cls-63 {
        letter-spacing: 0em;
      }

      .cls-64 {
        letter-spacing: 0em;
      }

      .cls-65 {
        letter-spacing: -.05em;
      }

      .cls-66 {
        letter-spacing: -.05em;
      }

      .cls-67 {
        letter-spacing: 0em;
      }

      .cls-68 {
        letter-spacing: 0em;
      }

      .cls-69 {
        letter-spacing: -.03em;
      }

      .cls-70 {
        letter-spacing: 0em;
      }

      .cls-71 {
        letter-spacing: 0em;
      }

      .cls-72 {
        letter-spacing: 0em;
      }

      .cls-73 {
        letter-spacing: -.02em;
      }

      .cls-74 {
        letter-spacing: 0em;
      }

      .cls-75 {
        letter-spacing: .02em;
      }

      .cls-76 {
        letter-spacing: -.02em;
      }

      .cls-77 {
        letter-spacing: 0em;
      }

      .cls-78 {
        letter-spacing: .02em;
      }

      .cls-79 {
        letter-spacing: 0em;
      }

      .cls-80 {
        letter-spacing: 0em;
      }

      .cls-81 {
        letter-spacing: -.02em;
      }

      .cls-82 {
        letter-spacing: -.04em;
      }

      .cls-83 {
        letter-spacing: 0em;
      }

      .cls-84 {
        letter-spacing: 0em;
      }

      .cls-85 {
        letter-spacing: -.02em;
      }

      .cls-86 {
        letter-spacing: -.01em;
      }

      .cls-87 {
        letter-spacing: 0em;
      }

      .cls-88 {
        letter-spacing: 0em;
      }

      .cls-89 {
        letter-spacing: -.03em;
      }

      .cls-90 {
        letter-spacing: .03em;
      }

      .cls-91 {
        letter-spacing: 0em;
      }

      .cls-92 {
        fill: #0333ff;
        font-size: 12px;
      }

      .cls-92, .cls-93 {
        font-family: ArialMT, Arial;
      }

      .cls-94 {
        letter-spacing: 0em;
      }

      .cls-95 {
        letter-spacing: 0em;
      }

      .cls-96 {
        letter-spacing: 0em;
      }

      .cls-97 {
        letter-spacing: 0em;
      }

      .cls-98 {
        letter-spacing: -.03em;
      }

      .cls-99 {
        letter-spacing: 0em;
      }

      .cls-100 {
        letter-spacing: 0em;
      }

      .cls-101 {
        letter-spacing: 0em;
      }

      .cls-51 {
        fill: none;
      }

      .cls-102 {
        letter-spacing: -.02em;
      }

      .cls-103 {
        letter-spacing: 0em;
      }

      .cls-104 {
        letter-spacing: -.01em;
      }

      .cls-105 {
        letter-spacing: 0em;
      }

      .cls-106 {
        letter-spacing: 0em;
      }

      .cls-107 {
        letter-spacing: 0em;
      }

      .cls-108 {
        letter-spacing: 0em;
      }

      .cls-109 {
        letter-spacing: 0em;
      }

      .cls-110 {
        letter-spacing: 0em;
      }

      .cls-111 {
        letter-spacing: 0em;
      }

      .cls-112 {
        letter-spacing: -.01em;
      }

      .cls-113 {
        letter-spacing: -.01em;
      }

      .cls-114 {
        letter-spacing: 0em;
      }

      .cls-115 {
        letter-spacing: -.01em;
      }

      .cls-93 {
        font-size: 18px;
      }

      .cls-93, .cls-116 {
        fill: #1d1d1b;
      }

      .cls-117 {
        letter-spacing: 0em;
      }

      .cls-118 {
        letter-spacing: .01em;
      }

      .cls-119 {
        letter-spacing: -.03em;
      }

      .cls-120 {
        letter-spacing: -.01em;
      }

      .cls-121 {
        letter-spacing: 0em;
      }

      .cls-122 {
        letter-spacing: 0em;
      }

      .cls-123 {
        letter-spacing: 0em;
      }

      .cls-124 {
        letter-spacing: 0em;
      }

      .cls-125 {
        letter-spacing: -.01em;
      }

      .cls-126 {
        letter-spacing: -.01em;
      }

      .cls-127 {
        letter-spacing: 0em;
      }

      .cls-128 {
        letter-spacing: -.02em;
      }

      .cls-129 {
        letter-spacing: 0em;
      }

      .cls-130 {
        letter-spacing: -.02em;
      }

      .cls-131 {
        letter-spacing: 0em;
      }

      .cls-132 {
        letter-spacing: 0em;
      }

      .cls-133 {
        letter-spacing: .03em;
      }

      .cls-134 {
        letter-spacing: 0em;
      }

      .cls-135 {
        letter-spacing: -.03em;
      }

      .cls-136 {
        letter-spacing: -.02em;
      }

      .cls-137 {
        letter-spacing: 0em;
      }

      .cls-138 {
        letter-spacing: 0em;
      }

      .cls-139 {
        letter-spacing: 0em;
      }

      .cls-140 {
        letter-spacing: 0em;
      }

      .cls-141 {
        letter-spacing: 0em;
      }

      .cls-142 {
        letter-spacing: -.06em;
      }

      .cls-143 {
        letter-spacing: -.06em;
      }

      .cls-144 {
        letter-spacing: 0em;
      }

      .cls-145 {
        letter-spacing: 0em;
      }

      .cls-146 {
        letter-spacing: 0em;
      }

      .cls-147 {
        letter-spacing: 0em;
      }

      .cls-148 {
        letter-spacing: 0em;
      }

      .cls-149 {
        letter-spacing: 0em;
      }

      .cls-150 {
        letter-spacing: 0em;
      }

      .cls-151 {
        letter-spacing: .02em;
      }

      .cls-152 {
        letter-spacing: -.01em;
      }

      .cls-153 {
        letter-spacing: .02em;
      }

      .cls-154 {
        letter-spacing: 0em;
      }

      .cls-116 {
        stroke-width: 0px;
      }

      .cls-155 {
        letter-spacing: 0em;
      }

      .cls-156 {
        letter-spacing: 0em;
      }

      .cls-157 {
        letter-spacing: 0em;
      }

      .cls-158 {
        letter-spacing: 0em;
      }

      .cls-159 {
        letter-spacing: 0em;
      }

      .cls-160 {
        letter-spacing: 0em;
      }

      .cls-161 {
        letter-spacing: 0em;
      }

      .cls-162 {
        letter-spacing: 0em;
      }

      .cls-163 {
        letter-spacing: -.01em;
      }

      .cls-164 {
        letter-spacing: 0em;
      }

      .cls-165 {
        letter-spacing: 0em;
      }

      .cls-166 {
        letter-spacing: 0em;
      }

      .cls-167 {
        letter-spacing: -.01em;
      }

      .cls-168 {
        letter-spacing: 0em;
      }
    </style>
  </defs>
  <rect class="cls-50" x="42.08" y="67.5" width="175" height="60"/>
  <text class="cls-93" transform="translate(98.25 102.73)"><tspan class="cls-57" x="0" y="0">P</tspan><tspan class="cls-40" x="11.21" y="0">u</tspan><tspan class="cls-54" x="20.48" y="0">r</tspan><tspan class="cls-135" x="26.07" y="0">p</tspan><tspan class="cls-48" x="35.48" y="0">o</tspan><tspan class="cls-82" x="44.86" y="0">s</tspan><tspan class="cls-38" x="53.19" y="0">e</tspan></text>
  <text class="cls-92" transform="translate(239 86.89)"><tspan class="cls-44" x="0" y="0">C</tspan><tspan class="cls-131" x="8.58" y="0">l</tspan><tspan class="cls-56" x="11.19" y="0">e</tspan><tspan class="cls-110" x="17.8" y="0">a</tspan><tspan class="cls-49" x="24.39" y="0">r</tspan><tspan class="cls-149" x="28.5" y="0">l</tspan><tspan x="31.07" y="0">y </tspan><tspan class="cls-145" x="40.4" y="0">i</tspan><tspan class="cls-55" x="43.04" y="0">d</tspan><tspan class="cls-56" x="49.64" y="0">e</tspan><tspan class="cls-37" x="56.25" y="0">n</tspan><tspan class="cls-161" x="62.74" y="0">t</tspan><tspan class="cls-105" x="66.05" y="0">i</tspan><tspan class="cls-7" x="68.67" y="0">f</tspan><tspan x="72.31" y="0">y </tspan><tspan class="cls-160" x="81.65" y="0">a</tspan><tspan class="cls-16" x="88.23" y="0">n</tspan><tspan x="94.84" y="0">d </tspan><tspan class="cls-155" x="104.85" y="0">d</tspan><tspan class="cls-156" x="111.47" y="0">o</tspan><tspan class="cls-124" x="118.13" y="0">c</tspan><tspan class="cls-1" x="124.16" y="0">u</tspan><tspan class="cls-146" x="130.72" y="0">m</tspan><tspan class="cls-58" x="140.67" y="0">e</tspan><tspan class="cls-128" x="147.28" y="0">n</tspan><tspan x="153.77" y="0">t </tspan><tspan class="cls-9" x="160.44" y="0">t</tspan><tspan class="cls-2" x="163.76" y="0">h</tspan><tspan x="170.36" y="0">e </tspan><tspan class="cls-55" x="180.37" y="0">r</tspan><tspan class="cls-12" x="184.29" y="0">e</tspan><tspan class="cls-111" x="190.68" y="0">v</tspan><tspan class="cls-158" x="196.63" y="0">i</tspan><tspan class="cls-112" x="199.26" y="0">e</tspan><tspan class="cls-59" x="205.77" y="0">w</tspan><tspan class="cls-65" x="214.56" y="0">’</tspan><tspan x="216.64" y="0">s</tspan><tspan class="cls-60" x="0" y="14.4">p</tspan><tspan class="cls-43" x="6.59" y="14.4">u</tspan><tspan class="cls-117" x="13.16" y="14.4">r</tspan><tspan class="cls-77" x="17.27" y="14.4">p</tspan><tspan class="cls-22" x="23.92" y="14.4">o</tspan><tspan class="cls-10" x="30.56" y="14.4">s</tspan><tspan x="36.49" y="14.4">e </tspan><tspan class="cls-162" x="46.5" y="14.4">a</tspan><tspan class="cls-15" x="53.08" y="14.4">n</tspan><tspan x="59.7" y="14.4">d </tspan><tspan class="cls-162" x="69.7" y="14.4">i</tspan><tspan class="cls-128" x="72.28" y="14.4">n</tspan><tspan class="cls-163" x="78.77" y="14.4">t</tspan><tspan class="cls-56" x="81.94" y="14.4">en</tspan><tspan class="cls-55" x="95.16" y="14.4">d</tspan><tspan class="cls-68" x="101.76" y="14.4">e</tspan><tspan class="cls-64" x="108.39" y="14.4">d </tspan><tspan class="cls-141" x="118.4" y="14.4">g</tspan><tspan class="cls-58" x="125.05" y="14.4">o</tspan><tspan class="cls-47" x="131.66" y="14.4">a</tspan><tspan class="cls-166" x="138.25" y="14.4">l</tspan><tspan x="140.84" y="14.4">s </tspan><tspan class="cls-125" x="150.17" y="14.4">(</tspan><tspan class="cls-35" x="154.02" y="14.4">i</tspan><tspan class="cls-85" x="156.51" y="14.4">.</tspan><tspan class="cls-4" x="159.58" y="14.4">e</tspan><tspan class="cls-98" x="166.02" y="14.4">.</tspan><tspan x="168.98" y="14.4">, </tspan><tspan class="cls-97" x="175.65" y="14.4">d</tspan><tspan class="cls-104" x="182.25" y="14.4">e</tspan><tspan class="cls-153" x="188.75" y="14.4">f</tspan><tspan class="cls-162" x="192.31" y="14.4">i</tspan><tspan class="cls-43" x="194.89" y="14.4">n</tspan><tspan class="cls-107" x="201.46" y="14.4">i</tspan><tspan class="cls-18" x="204.03" y="14.4">n</tspan><tspan x="210.63" y="14.4">g </tspan><tspan class="cls-9" x="220.64" y="14.4">t</tspan><tspan class="cls-2" x="223.96" y="14.4">h</tspan><tspan x="230.57" y="14.4">e</tspan><tspan class="cls-55" x="0" y="28.8">r</tspan><tspan class="cls-137" x="3.92" y="28.8">e</tspan><tspan class="cls-56" x="10.56" y="28.8">se</tspan><tspan class="cls-106" x="23.1" y="28.8">a</tspan><tspan class="cls-55" x="29.69" y="28.8">r</tspan><tspan class="cls-103" x="33.61" y="28.8">c</tspan><tspan x="39.65" y="28.8">h </tspan><tspan class="cls-74" x="49.66" y="28.8">q</tspan><tspan class="cls-72" x="56.23" y="28.8">u</tspan><tspan class="cls-137" x="62.83" y="28.8">e</tspan><tspan class="cls-14" x="69.47" y="28.8">s</tspan><tspan class="cls-161" x="75.35" y="28.8">ti</tspan><tspan class="cls-68" x="81.3" y="28.8">o</tspan><tspan x="87.94" y="28.8">n </tspan><tspan class="cls-162" x="97.95" y="28.8">a</tspan><tspan class="cls-16" x="104.53" y="28.8">n</tspan><tspan x="111.14" y="28.8">d </tspan><tspan class="cls-68" x="121.15" y="28.8">o</tspan><tspan class="cls-79" x="127.79" y="28.8">b</tspan><tspan class="cls-8" x="134.38" y="28.8">j</tspan><tspan class="cls-122" x="136.99" y="28.8">e</tspan><tspan class="cls-31" x="143.62" y="28.8">c</tspan><tspan class="cls-96" x="149.67" y="28.8">t</tspan><tspan class="cls-155" x="152.98" y="28.8">i</tspan><tspan class="cls-73" x="155.59" y="28.8">v</tspan><tspan class="cls-134" x="161.33" y="28.8">e</tspan><tspan class="cls-142" x="167.98" y="28.8">s</tspan><tspan x="173.2" y="28.8">)</tspan></text>
  <rect class="cls-50" x="42.08" y="177.5" width="175" height="60"/>
  <text class="cls-93" transform="translate(58.58 212.81)"><tspan class="cls-69" x="0" y="0">P</tspan><tspan class="cls-102" x="11.56" y="0">r</tspan><tspan class="cls-76" x="17.27" y="0">o</tspan><tspan class="cls-19" x="26.83" y="0">t</tspan><tspan class="cls-126" x="31.4" y="0">o</tspan><tspan class="cls-45" x="41.19" y="0">c</tspan><tspan class="cls-113" x="50.18" y="0">o</tspan><tspan class="cls-5" x="59.93" y="0">l &amp; </tspan><tspan class="cls-126" x="85.22" y="0">t</tspan><tspan class="cls-152" x="89.99" y="0">r</tspan><tspan class="cls-26" x="95.72" y="0">a</tspan><tspan class="cls-136" x="105.36" y="0">i</tspan><tspan class="cls-23" x="109.01" y="0">n</tspan><tspan class="cls-136" x="118.65" y="0">i</tspan><tspan class="cls-36" x="122.29" y="0">n</tspan><tspan class="cls-5" x="131.99" y="0">g</tspan></text>
  <text class="cls-92" transform="translate(239 196.97)"><tspan class="cls-2" x="0" y="0">I</tspan><tspan x="3.27" y="0">f </tspan><tspan class="cls-29" x="9.93" y="0">mo</tspan><tspan class="cls-55" x="26.54" y="0">r</tspan><tspan x="30.46" y="0">e </tspan><tspan class="cls-3" x="40.47" y="0">t</tspan><tspan class="cls-44" x="43.79" y="0">ha</tspan><tspan x="56.96" y="0">n </tspan><tspan class="cls-68" x="66.97" y="0">o</tspan><tspan class="cls-71" x="73.61" y="0">n</tspan><tspan x="80.21" y="0">e </tspan><tspan class="cls-55" x="90.21" y="0">r</tspan><tspan class="cls-137" x="94.13" y="0">e</tspan><tspan class="cls-56" x="100.78" y="0">se</tspan><tspan class="cls-47" x="113.32" y="0">a</tspan><tspan class="cls-97" x="119.91" y="0">r</tspan><tspan class="cls-132" x="123.83" y="0">c</tspan><tspan class="cls-2" x="129.87" y="0">h</tspan><tspan class="cls-155" x="136.48" y="0">e</tspan><tspan x="143.09" y="0">r </tspan><tspan class="cls-125" x="150.42" y="0">w</tspan><tspan class="cls-20" x="158.93" y="0">o</tspan><tspan class="cls-100" x="165.58" y="0">r</tspan><tspan class="cls-130" x="169.68" y="0">k</tspan><tspan x="175.5" y="0">s </tspan><tspan class="cls-68" x="184.83" y="0">o</tspan><tspan x="191.47" y="0">n </tspan><tspan class="cls-9" x="201.48" y="0">t</tspan><tspan class="cls-2" x="204.79" y="0">h</tspan><tspan x="211.4" y="0">e</tspan><tspan class="cls-55" x="0" y="14.4">r</tspan><tspan class="cls-13" x="3.92" y="14.4">e</tspan><tspan class="cls-94" x="10.31" y="14.4">v</tspan><tspan class="cls-158" x="16.26" y="14.4">i</tspan><tspan class="cls-112" x="18.89" y="14.4">e</tspan><tspan class="cls-66" x="25.4" y="14.4">w</tspan><tspan x="33.47" y="14.4">, </tspan><tspan class="cls-9" x="40.14" y="14.4">t</tspan><tspan class="cls-2" x="43.46" y="14.4">h</tspan><tspan x="50.07" y="14.4">e </tspan><tspan class="cls-163" x="60.07" y="14.4">t</tspan><tspan class="cls-10" x="63.25" y="14.4">e</tspan><tspan class="cls-162" x="69.85" y="14.4">a</tspan><tspan x="76.44" y="14.4">m </tspan><tspan class="cls-71" x="89.77" y="14.4">n</tspan><tspan class="cls-94" x="96.37" y="14.4">e</tspan><tspan class="cls-22" x="102.99" y="14.4">e</tspan><tspan class="cls-149" x="109.63" y="14.4">d</tspan><tspan x="116.2" y="14.4">s </tspan><tspan class="cls-6" x="125.54" y="14.4">t</tspan><tspan x="128.73" y="14.4">o </tspan><tspan class="cls-42" x="138.74" y="14.4">a</tspan><tspan class="cls-157" x="145.32" y="14.4">gr</tspan><tspan class="cls-111" x="155.84" y="14.4">e</tspan><tspan x="162.47" y="14.4">e </tspan><tspan class="cls-68" x="172.48" y="14.4">o</tspan><tspan x="179.11" y="14.4">n a </tspan><tspan class="cls-55" x="199.13" y="14.4">d</tspan><tspan class="cls-46" x="205.73" y="14.4">e</tspan><tspan class="cls-91" x="212.21" y="14.4">t</tspan><tspan class="cls-138" x="215.6" y="14.4">a</tspan><tspan class="cls-55" x="222.17" y="14.4">i</tspan><tspan class="cls-129" x="224.76" y="14.4">l</tspan><tspan class="cls-68" x="227.37" y="14.4">e</tspan><tspan x="234.01" y="14.4">d</tspan><tspan class="cls-111" x="0" y="28.8">pr</tspan><tspan class="cls-115" x="10.57" y="28.8">o</tspan><tspan class="cls-6" x="17.09" y="28.8">t</tspan><tspan class="cls-156" x="20.28" y="28.8">o</tspan><tspan class="cls-39" x="26.95" y="28.8">c</tspan><tspan class="cls-20" x="33.08" y="28.8">o</tspan><tspan x="39.72" y="28.8">l </tspan><tspan class="cls-9" x="45.72" y="28.8">t</tspan><tspan class="cls-44" x="49.04" y="28.8">h</tspan><tspan class="cls-115" x="55.63" y="28.8">a</tspan><tspan x="62.15" y="28.8">t </tspan><tspan class="cls-55" x="68.82" y="28.8">d</tspan><tspan class="cls-104" x="75.41" y="28.8">e</tspan><tspan class="cls-151" x="81.91" y="28.8">f</tspan><tspan class="cls-160" x="85.48" y="28.8">i</tspan><tspan class="cls-71" x="88.05" y="28.8">n</tspan><tspan class="cls-20" x="94.65" y="28.8">e</tspan><tspan x="101.29" y="28.8">s </tspan><tspan class="cls-9" x="110.63" y="28.8">t</tspan><tspan class="cls-2" x="113.95" y="28.8">h</tspan><tspan x="120.55" y="28.8">e </tspan><tspan class="cls-111" x="130.56" y="28.8">pr</tspan><tspan class="cls-156" x="141.13" y="28.8">o</tspan><tspan class="cls-159" x="147.8" y="28.8">c</tspan><tspan class="cls-68" x="153.91" y="28.8">e</tspan><tspan class="cls-83" x="160.55" y="28.8">d</tspan><tspan class="cls-43" x="167.11" y="28.8">u</tspan><tspan class="cls-55" x="173.68" y="28.8">r</tspan><tspan x="177.6" y="28.8">e</tspan></text>
  <rect class="cls-50" x="42.08" y="287.5" width="175" height="60"/>
  <text class="cls-93" transform="translate(57.78 322.65)"><tspan class="cls-61" x="0" y="0">S</tspan><tspan class="cls-78" x="12.2" y="0">c</tspan><tspan class="cls-139" x="21.53" y="0">r</tspan><tspan class="cls-53" x="27.66" y="0">e</tspan><tspan class="cls-99" x="37.85" y="0">e</tspan><tspan class="cls-121" x="48.02" y="0">n</tspan><tspan class="cls-11" x="58.13" y="0">i</tspan><tspan class="cls-168" x="62.24" y="0">n</tspan><tspan class="cls-32" x="72.4" y="0">g </tspan><tspan class="cls-75" x="87.99" y="0">c</tspan><tspan class="cls-30" x="97.32" y="0">r</tspan><tspan class="cls-25" x="103.73" y="0">i</tspan><tspan class="cls-62" x="107.85" y="0">t</tspan><tspan class="cls-67" x="112.86" y="0">e</tspan><tspan class="cls-30" x="123.03" y="0">r</tspan><tspan class="cls-34" x="129.44" y="0">i</tspan><tspan class="cls-33" x="133.58" y="0">a</tspan></text>
  <text class="cls-92" transform="translate(239 299.61)"><tspan x="0" y="0">D</tspan><tspan class="cls-104" x="8.67" y="0">e</tspan><tspan class="cls-151" x="15.17" y="0">f</tspan><tspan class="cls-160" x="18.73" y="0">i</tspan><tspan class="cls-41" x="21.31" y="0">n</tspan><tspan class="cls-87" x="27.87" y="0">i</tspan><tspan class="cls-161" x="30.45" y="0">ti</tspan><tspan class="cls-68" x="36.4" y="0">o</tspan><tspan x="43.04" y="0">n </tspan><tspan class="cls-6" x="53.05" y="0">o</tspan><tspan x="59.58" y="0">f </tspan><tspan class="cls-3" x="66.25" y="0">t</tspan><tspan class="cls-84" x="69.57" y="0">h</tspan><tspan x="76.17" y="0">e </tspan><tspan class="cls-160" x="86.18" y="0">in</tspan><tspan class="cls-114" x="95.34" y="0">c</tspan><tspan class="cls-150" x="101.41" y="0">lu</tspan><tspan class="cls-123" x="110.55" y="0">s</tspan><tspan class="cls-63" x="116.47" y="0">i</tspan><tspan class="cls-68" x="119.12" y="0">o</tspan><tspan x="125.76" y="0">n </tspan><tspan class="cls-107" x="135.76" y="0">a</tspan><tspan class="cls-24" x="142.35" y="0">n</tspan><tspan x="148.96" y="0">d </tspan><tspan class="cls-89" x="158.97" y="0">e</tspan><tspan class="cls-119" x="165.32" y="0">x</tspan><tspan class="cls-80" x="171.01" y="0">c</tspan><tspan class="cls-150" x="177.09" y="0">lu</tspan><tspan class="cls-123" x="186.23" y="0">s</tspan><tspan class="cls-63" x="192.15" y="0">i</tspan><tspan class="cls-68" x="194.8" y="0">o</tspan><tspan x="201.43" y="0">n</tspan><tspan class="cls-88" x="0" y="14.4">c</tspan><tspan class="cls-108" x="6.05" y="14.4">r</tspan><tspan class="cls-87" x="10.15" y="14.4">i</tspan><tspan class="cls-167" x="12.72" y="14.4">t</tspan><tspan class="cls-155" x="15.9" y="14.4">e</tspan><tspan class="cls-109" x="22.51" y="14.4">r</tspan><tspan class="cls-70" x="26.61" y="14.4">i</tspan><tspan x="29.2" y="14.4">a </tspan><tspan class="cls-125" x="39.21" y="14.4">(</tspan><tspan class="cls-160" x="43.06" y="14.4">in</tspan><tspan class="cls-80" x="52.21" y="14.4">c</tspan><tspan class="cls-149" x="58.28" y="14.4">l</tspan><tspan class="cls-148" x="60.85" y="14.4">u</tspan><tspan class="cls-21" x="67.46" y="14.4">d</tspan><tspan class="cls-160" x="74.01" y="14.4">i</tspan><tspan class="cls-18" x="76.58" y="14.4">n</tspan><tspan x="83.19" y="14.4">g </tspan><tspan class="cls-160" x="93.2" y="14.4">ju</tspan><tspan class="cls-14" x="102.35" y="14.4">s</tspan><tspan class="cls-96" x="108.23" y="14.4">t</tspan><tspan class="cls-105" x="111.54" y="14.4">i</tspan><tspan class="cls-153" x="114.16" y="14.4">f</tspan><tspan class="cls-129" x="117.73" y="14.4">i</tspan><tspan class="cls-118" x="120.34" y="14.4">c</tspan><tspan class="cls-120" x="126.48" y="14.4">a</tspan><tspan class="cls-95" x="133" y="14.4">ti</tspan><tspan class="cls-68" x="138.95" y="14.4">o</tspan><tspan x="145.59" y="14.4">n </tspan><tspan class="cls-6" x="155.59" y="14.4">o</tspan><tspan x="162.13" y="14.4">f </tspan><tspan class="cls-9" x="168.79" y="14.4">t</tspan><tspan class="cls-2" x="172.11" y="14.4">h</tspan><tspan x="178.72" y="14.4">e </tspan><tspan class="cls-154" x="188.73" y="14.4">c</tspan><tspan class="cls-100" x="194.78" y="14.4">r</tspan><tspan class="cls-87" x="198.87" y="14.4">i</tspan><tspan class="cls-167" x="201.45" y="14.4">t</tspan><tspan class="cls-155" x="204.62" y="14.4">e</tspan><tspan class="cls-109" x="211.24" y="14.4">r</tspan><tspan class="cls-71" x="215.33" y="14.4">i</tspan><tspan class="cls-86" x="217.93" y="14.4">a</tspan><tspan x="224.47" y="14.4">,</tspan><tspan class="cls-101" x="0" y="28.8">p</tspan><tspan class="cls-110" x="6.58" y="28.8">a</tspan><tspan class="cls-90" x="13.17" y="28.8">r</tspan><tspan class="cls-96" x="17.56" y="28.8">t</tspan><tspan class="cls-131" x="20.87" y="28.8">i</tspan><tspan class="cls-124" x="23.48" y="28.8">c</tspan><tspan class="cls-140" x="29.52" y="28.8">u</tspan><tspan class="cls-160" x="36.09" y="28.8">l</tspan><tspan class="cls-110" x="38.66" y="28.8">a</tspan><tspan class="cls-49" x="45.25" y="28.8">r</tspan><tspan class="cls-149" x="49.37" y="28.8">l</tspan><tspan x="51.93" y="28.8">y </tspan><tspan class="cls-27" x="61.26" y="28.8">c</tspan><tspan class="cls-22" x="67.4" y="28.8">o</tspan><tspan class="cls-160" x="74.03" y="28.8">n</tspan><tspan class="cls-164" x="80.62" y="28.8">c</tspan><tspan class="cls-155" x="86.73" y="28.8">e</tspan><tspan class="cls-117" x="93.35" y="28.8">r</tspan><tspan class="cls-41" x="97.45" y="28.8">n</tspan><tspan class="cls-162" x="104.02" y="28.8">i</tspan><tspan class="cls-17" x="106.59" y="28.8">n</tspan><tspan x="113.2" y="28.8">g </tspan><tspan class="cls-9" x="123.21" y="28.8">t</tspan><tspan class="cls-2" x="126.52" y="28.8">h</tspan><tspan class="cls-24" x="133.13" y="28.8">e</tspan><tspan class="cls-47" x="139.74" y="28.8">i</tspan><tspan x="142.32" y="28.8">r </tspan><tspan class="cls-104" x="149.65" y="28.8">e</tspan><tspan class="cls-133" x="156.15" y="28.8">f</tspan><tspan class="cls-28" x="159.84" y="28.8">f</tspan><tspan class="cls-52" x="163.05" y="28.8">e</tspan><tspan class="cls-31" x="169.68" y="28.8">c</tspan><tspan x="175.73" y="28.8">t </tspan><tspan class="cls-68" x="182.4" y="28.8">o</tspan><tspan x="189.03" y="28.8">n </tspan><tspan class="cls-9" x="199.04" y="28.8">t</tspan><tspan class="cls-2" x="202.36" y="28.8">h</tspan><tspan x="208.97" y="28.8">e</tspan><tspan class="cls-27" x="0" y="43.2">c</tspan><tspan class="cls-22" x="6.13" y="43.2">o</tspan><tspan class="cls-165" x="12.77" y="43.2">m</tspan><tspan class="cls-111" x="22.69" y="43.2">p</tspan><tspan class="cls-55" x="29.32" y="43.2">r</tspan><tspan class="cls-56" x="33.24" y="43.2">ehe</tspan><tspan class="cls-144" x="53.06" y="43.2">n</tspan><tspan class="cls-127" x="59.63" y="43.2">s</tspan><tspan class="cls-155" x="65.55" y="43.2">i</tspan><tspan class="cls-81" x="68.16" y="43.2">v</tspan><tspan class="cls-56" x="73.9" y="43.2">e</tspan><tspan class="cls-71" x="80.51" y="43.2">n</tspan><tspan class="cls-137" x="87.11" y="43.2">e</tspan><tspan class="cls-147" x="93.75" y="43.2">s</tspan><tspan class="cls-143" x="99.76" y="43.2">s</tspan><tspan x="104.99" y="43.2">)</tspan></text>
  <g>
    <line class="cls-51" x1="129.58" y1="127.5" x2="129.58" y2="170.32"/>
    <polygon class="cls-116" points="124.59 168.87 129.58 177.5 134.57 168.87 124.59 168.87"/>
  </g>
  <g>
    <line class="cls-51" x1="129.58" y1="237.5" x2="129.58" y2="280.32"/>
    <polygon class="cls-116" points="124.59 278.87 129.58 287.5 134.57 278.87 124.59 278.87"/>
  </g>
</svg>