<?xml version="1.0" encoding="UTF-8"?><svg id="Ebene_1" xmlns="http://www.w3.org/2000/svg" viewBox="0 0 988 525"><g><path d="M330.39,481.19c0-1.46,.22-2.68,.65-3.67,.33-.73,.77-1.38,1.33-1.96s1.18-1.01,1.85-1.29c.89-.38,1.92-.57,3.09-.57,2.11,0,3.8,.65,5.06,1.96s1.9,3.13,1.9,5.46-.63,4.12-1.88,5.42-2.94,1.96-5.04,1.96-3.82-.65-5.08-1.95-1.88-3.09-1.88-5.37Zm2.98-.1c0,1.62,.37,2.85,1.12,3.69s1.7,1.25,2.85,1.25,2.1-.42,2.84-1.25,1.11-2.08,1.11-3.74-.36-2.86-1.08-3.67-1.67-1.21-2.87-1.21-2.15,.41-2.88,1.23-1.09,2.05-1.09,3.7Z"/><path d="M349.14,488.26h-2.74v-10.37h2.55v1.47c.44-.7,.83-1.16,1.18-1.38s.74-.33,1.19-.33c.62,0,1.23,.17,1.81,.52l-.85,2.39c-.46-.3-.89-.45-1.29-.45s-.71,.11-.98,.32-.48,.59-.63,1.15-.23,1.71-.23,3.48v3.2Z"/><path d="M354.04,488.94l3.13,.38c.05,.36,.17,.62,.36,.75,.26,.2,.67,.29,1.23,.29,.72,0,1.25-.11,1.61-.32,.24-.14,.42-.37,.55-.69,.08-.23,.13-.65,.13-1.26v-1.51c-.82,1.12-1.86,1.68-3.11,1.68-1.39,0-2.5-.59-3.31-1.77-.64-.93-.96-2.09-.96-3.48,0-1.74,.42-3.07,1.25-3.98s1.88-1.38,3.12-1.38,2.34,.56,3.17,1.69v-1.46h2.57v9.31c0,1.22-.1,2.14-.3,2.74s-.49,1.08-.85,1.43-.85,.62-1.46,.81-1.38,.29-2.31,.29c-1.76,0-3-.3-3.74-.9s-1.1-1.37-1.1-2.29c0-.09,0-.2,0-.33Zm2.45-6.08c0,1.1,.21,1.91,.64,2.42s.95,.77,1.58,.77c.67,0,1.24-.26,1.7-.79s.69-1.3,.69-2.33-.22-1.87-.66-2.39-1-.78-1.68-.78-1.2,.26-1.63,.77-.64,1.29-.64,2.34Z"/><path d="M368.56,481.05l-2.49-.45c.28-1,.76-1.74,1.45-2.23s1.7-.72,3.05-.72c1.22,0,2.14,.15,2.73,.43s1.02,.66,1.26,1.1,.37,1.26,.37,2.46l-.03,3.2c0,.91,.04,1.58,.13,2.02s.25,.9,.49,1.39h-2.71c-.07-.18-.16-.45-.26-.81-.05-.16-.08-.27-.1-.32-.47,.46-.97,.8-1.5,1.03s-1.1,.34-1.71,.34c-1.07,0-1.91-.29-2.52-.87s-.92-1.31-.92-2.2c0-.59,.14-1.11,.42-1.57s.67-.81,1.18-1.05,1.23-.46,2.18-.64c1.28-.24,2.17-.47,2.67-.67v-.27c0-.53-.13-.9-.39-1.13s-.75-.34-1.47-.34c-.49,0-.87,.1-1.14,.29s-.5,.53-.66,1.01Zm3.67,2.23c-.35,.12-.91,.26-1.67,.42s-1.26,.32-1.49,.48c-.36,.25-.54,.58-.54,.97s.14,.72,.43,1,.65,.42,1.09,.42c.5,0,.97-.16,1.42-.49,.33-.25,.55-.55,.65-.91,.07-.23,.11-.68,.11-1.34v-.55Z"/><path d="M387.07,488.26h-2.74v-5.29c0-1.12-.06-1.84-.18-2.17s-.31-.58-.57-.77-.58-.27-.95-.27c-.48,0-.9,.13-1.28,.39s-.64,.61-.78,1.04-.21,1.22-.21,2.38v4.7h-2.74v-10.37h2.55v1.52c.91-1.17,2.04-1.76,3.42-1.76,.61,0,1.16,.11,1.66,.33s.88,.5,1.14,.83,.44,.72,.54,1.15,.15,1.04,.15,1.85v6.45Z"/><path d="M389.85,476.48v-2.54h2.74v2.54h-2.74Zm0,11.78v-10.37h2.74v10.37h-2.74Z"/><path d="M394.44,485.3l2.75-.42c.12,.53,.35,.94,.71,1.22s.86,.42,1.5,.42c.71,0,1.24-.13,1.6-.39,.24-.18,.36-.43,.36-.73,0-.21-.07-.38-.2-.52-.14-.13-.44-.25-.92-.36-2.21-.49-3.62-.93-4.21-1.34-.82-.56-1.23-1.34-1.23-2.33,0-.9,.35-1.65,1.06-2.27s1.81-.92,3.3-.92,2.47,.23,3.16,.69,1.17,1.15,1.43,2.05l-2.59,.48c-.11-.4-.32-.71-.63-.93s-.75-.32-1.32-.32c-.72,0-1.24,.1-1.55,.3-.21,.14-.31,.33-.31,.56,0,.2,.09,.36,.27,.5,.25,.18,1.1,.44,2.56,.77s2.48,.74,3.06,1.22c.57,.49,.86,1.17,.86,2.04,0,.95-.4,1.77-1.19,2.45s-1.97,1.03-3.53,1.03c-1.41,0-2.53-.29-3.35-.86s-1.36-1.35-1.62-2.33Z"/><path d="M408.58,481.05l-2.49-.45c.28-1,.76-1.74,1.45-2.23s1.7-.72,3.05-.72c1.22,0,2.14,.15,2.73,.43s1.02,.66,1.26,1.1,.37,1.26,.37,2.46l-.03,3.2c0,.91,.04,1.58,.13,2.02s.25,.9,.49,1.39h-2.71c-.07-.18-.16-.45-.26-.81-.05-.16-.08-.27-.1-.32-.47,.46-.97,.8-1.5,1.03s-1.1,.34-1.71,.34c-1.07,0-1.91-.29-2.52-.87s-.92-1.31-.92-2.2c0-.59,.14-1.11,.42-1.57s.67-.81,1.18-1.05,1.23-.46,2.18-.64c1.28-.24,2.17-.47,2.67-.67v-.27c0-.53-.13-.9-.39-1.13s-.75-.34-1.47-.34c-.49,0-.87,.1-1.14,.29s-.5,.53-.66,1.01Zm3.67,2.23c-.35,.12-.91,.26-1.67,.42s-1.26,.32-1.49,.48c-.36,.25-.54,.58-.54,.97s.14,.72,.43,1,.65,.42,1.09,.42c.5,0,.97-.16,1.42-.49,.33-.25,.55-.55,.65-.91,.07-.23,.11-.68,.11-1.34v-.55Z"/><path d="M422.41,477.88v2.19h-1.88v4.18c0,.85,.02,1.34,.05,1.48s.12,.26,.24,.35,.28,.14,.46,.14c.25,0,.62-.09,1.1-.26l.23,2.13c-.64,.27-1.36,.41-2.17,.41-.5,0-.94-.08-1.34-.25s-.69-.38-.87-.64-.31-.62-.39-1.07c-.06-.32-.09-.96-.09-1.93v-4.52h-1.26v-2.19h1.26v-2.06l2.75-1.6v3.66h1.88Z"/><path d="M423.68,482.92c0-.91,.22-1.79,.67-2.65s1.09-1.5,1.91-1.95,1.74-.67,2.76-.67c1.57,0,2.85,.51,3.86,1.53s1.5,2.31,1.5,3.86-.51,2.87-1.52,3.9-2.29,1.55-3.82,1.55c-.95,0-1.86-.21-2.72-.64s-1.52-1.06-1.97-1.89-.67-1.84-.67-3.03Zm2.81,.15c0,1.03,.24,1.82,.73,2.36s1.09,.82,1.81,.82,1.32-.27,1.8-.82,.73-1.34,.73-2.38-.24-1.8-.73-2.34-1.09-.82-1.8-.82-1.32,.27-1.81,.82-.73,1.33-.73,2.36Z"/><path d="M439.16,488.26h-2.74v-10.37h2.55v1.47c.44-.7,.83-1.16,1.18-1.38s.74-.33,1.19-.33c.62,0,1.23,.17,1.81,.52l-.85,2.39c-.46-.3-.89-.45-1.29-.45s-.71,.11-.98,.32-.48,.59-.63,1.15-.23,1.71-.23,3.48v3.2Z"/><path d="M444.31,476.48v-2.54h2.74v2.54h-2.74Zm0,11.78v-10.37h2.74v10.37h-2.74Z"/><path d="M448.9,485.3l2.75-.42c.12,.53,.35,.94,.71,1.22s.86,.42,1.5,.42c.71,0,1.24-.13,1.6-.39,.24-.18,.36-.43,.36-.73,0-.21-.07-.38-.2-.52-.14-.13-.44-.25-.92-.36-2.21-.49-3.62-.93-4.21-1.34-.82-.56-1.23-1.34-1.23-2.33,0-.9,.35-1.65,1.06-2.27s1.81-.92,3.3-.92,2.47,.23,3.16,.69,1.17,1.15,1.43,2.05l-2.59,.48c-.11-.4-.32-.71-.63-.93s-.75-.32-1.32-.32c-.72,0-1.24,.1-1.55,.3-.21,.14-.31,.33-.31,.56,0,.2,.09,.36,.27,.5,.25,.18,1.1,.44,2.56,.77s2.48,.74,3.06,1.22c.57,.49,.86,1.17,.86,2.04,0,.95-.4,1.77-1.19,2.45s-1.97,1.03-3.53,1.03c-1.41,0-2.53-.29-3.35-.86s-1.36-1.35-1.62-2.33Z"/><path d="M470.04,480.95l-2.71,.49c-.09-.54-.3-.95-.62-1.22s-.74-.41-1.25-.41c-.68,0-1.23,.24-1.64,.71s-.61,1.26-.61,2.37c0,1.23,.21,2.1,.62,2.61s.97,.76,1.67,.76c.52,0,.95-.15,1.28-.44s.57-.81,.7-1.53l2.7,.46c-.28,1.24-.82,2.17-1.61,2.8s-1.86,.95-3.19,.95c-1.52,0-2.73-.48-3.63-1.44s-1.35-2.28-1.35-3.97,.45-3.05,1.36-4,2.13-1.43,3.67-1.43c1.26,0,2.27,.27,3.01,.82s1.28,1.37,1.61,2.49Z"/><path d="M474.85,473.94v5.26c.89-1.04,1.94-1.55,3.17-1.55,.63,0,1.2,.12,1.71,.35s.89,.53,1.15,.9,.43,.77,.53,1.21,.14,1.13,.14,2.06v6.08h-2.74v-5.48c0-1.09-.05-1.78-.16-2.07s-.29-.53-.55-.7-.59-.26-.99-.26c-.46,0-.86,.11-1.22,.33s-.62,.56-.79,1-.25,1.1-.25,1.98v5.2h-2.74v-14.32h2.74Z"/><path d="M490.34,484.95l2.73,.46c-.35,1-.91,1.77-1.67,2.29s-1.71,.79-2.85,.79c-1.8,0-3.14-.59-4-1.77-.68-.94-1.03-2.14-1.03-3.57,0-1.72,.45-3.06,1.35-4.04s2.03-1.46,3.41-1.46c1.54,0,2.76,.51,3.65,1.53s1.32,2.58,1.28,4.68h-6.88c.02,.81,.24,1.45,.66,1.9s.95,.68,1.58,.68c.43,0,.79-.12,1.08-.35s.51-.61,.66-1.13Zm.16-2.77c-.02-.79-.22-1.4-.62-1.81s-.87-.62-1.43-.62c-.6,0-1.09,.22-1.48,.65s-.58,1.03-.58,1.78h4.1Z"/><path d="M498.08,488.26h-2.74v-10.37h2.55v1.47c.44-.7,.83-1.16,1.18-1.38s.74-.33,1.19-.33c.62,0,1.23,.17,1.81,.52l-.85,2.39c-.46-.3-.89-.45-1.29-.45s-.71,.11-.98,.32-.48,.59-.63,1.15-.23,1.71-.23,3.48v3.2Z"/><path d="M508.85,488.26v-14.32h2.89v6.36l5.84-6.36h3.89l-5.39,5.58,5.68,8.74h-3.74l-3.94-6.72-2.34,2.39v4.33h-2.89Z"/><path d="M522.6,482.92c0-.91,.22-1.79,.67-2.65s1.09-1.5,1.91-1.95,1.74-.67,2.76-.67c1.57,0,2.85,.51,3.86,1.53s1.5,2.31,1.5,3.86-.51,2.87-1.52,3.9-2.29,1.55-3.82,1.55c-.95,0-1.86-.21-2.72-.64s-1.52-1.06-1.97-1.89-.67-1.84-.67-3.03Zm2.81,.15c0,1.03,.24,1.82,.73,2.36s1.09,.82,1.81,.82,1.32-.27,1.8-.82,.73-1.34,.73-2.38-.24-1.8-.73-2.34-1.09-.82-1.8-.82-1.32,.27-1.81,.82-.73,1.33-.73,2.36Z"/><path d="M544.89,488.26h-2.74v-5.29c0-1.12-.06-1.84-.18-2.17s-.31-.58-.57-.77-.58-.27-.95-.27c-.48,0-.9,.13-1.28,.39s-.64,.61-.78,1.04-.21,1.22-.21,2.38v4.7h-2.74v-10.37h2.55v1.52c.91-1.17,2.04-1.76,3.42-1.76,.61,0,1.16,.11,1.66,.33s.88,.5,1.14,.83,.44,.72,.54,1.15,.15,1.04,.15,1.85v6.45Z"/><path d="M552.43,477.88v2.19h-1.88v4.18c0,.85,.02,1.34,.05,1.48s.12,.26,.24,.35,.28,.14,.46,.14c.25,0,.62-.09,1.1-.26l.23,2.13c-.64,.27-1.36,.41-2.17,.41-.5,0-.94-.08-1.34-.25s-.69-.38-.87-.64-.31-.62-.39-1.07c-.06-.32-.09-.96-.09-1.93v-4.52h-1.26v-2.19h1.26v-2.06l2.75-1.6v3.66h1.88Z"/><path d="M560.34,484.95l2.73,.46c-.35,1-.91,1.77-1.67,2.29s-1.71,.79-2.85,.79c-1.8,0-3.14-.59-4-1.77-.68-.94-1.03-2.14-1.03-3.57,0-1.72,.45-3.06,1.35-4.04s2.03-1.46,3.41-1.46c1.54,0,2.76,.51,3.65,1.53s1.32,2.58,1.28,4.68h-6.88c.02,.81,.24,1.45,.66,1.9s.95,.68,1.58,.68c.43,0,.79-.12,1.08-.35s.51-.61,.66-1.13Zm.16-2.77c-.02-.79-.22-1.4-.62-1.81s-.87-.62-1.43-.62c-.6,0-1.09,.22-1.48,.65s-.58,1.03-.58,1.78h4.1Z"/><path d="M564.14,488.26l3.74-5.34-3.58-5.03h3.35l1.84,2.85,1.93-2.85h3.22l-3.52,4.91,3.84,5.46h-3.37l-2.11-3.21-2.13,3.21h-3.21Z"/><path d="M581.33,477.88v2.19h-1.88v4.18c0,.85,.02,1.34,.05,1.48s.12,.26,.24,.35,.28,.14,.46,.14c.25,0,.62-.09,1.1-.26l.23,2.13c-.64,.27-1.36,.41-2.17,.41-.5,0-.94-.08-1.34-.25s-.69-.38-.87-.64-.31-.62-.39-1.07c-.06-.32-.09-.96-.09-1.93v-4.52h-1.26v-2.19h1.26v-2.06l2.75-1.6v3.66h1.88Z"/><path d="M581.77,488.5l3.54-14.8h2.06l-3.58,14.8h-2.02Z"/><path d="M588.79,473.94h2.89v7.75c0,1.23,.04,2.03,.11,2.39,.12,.59,.42,1.06,.88,1.41s1.1,.53,1.91,.53,1.44-.17,1.86-.5,.67-.75,.75-1.24,.13-1.3,.13-2.43v-7.92h2.89v7.52c0,1.72-.08,2.93-.23,3.64s-.44,1.31-.86,1.8-.98,.88-1.68,1.17-1.62,.43-2.75,.43c-1.37,0-2.4-.16-3.11-.47s-1.26-.73-1.67-1.23-.68-1.03-.81-1.59c-.19-.82-.28-2.03-.28-3.63v-7.64Z"/><path d="M603.03,477.88h2.53v1.42c.91-1.1,1.98-1.65,3.23-1.65,.66,0,1.24,.14,1.73,.41s.89,.69,1.2,1.24c.46-.55,.95-.97,1.47-1.24s1.09-.41,1.69-.41c.76,0,1.41,.15,1.93,.46s.92,.76,1.18,1.36c.19,.44,.28,1.16,.28,2.15v6.63h-2.74v-5.93c0-1.03-.09-1.69-.28-1.99-.25-.39-.64-.59-1.17-.59-.38,0-.75,.12-1.08,.35s-.58,.58-.73,1.03-.22,1.17-.22,2.14v4.98h-2.74v-5.68c0-1.01-.05-1.66-.15-1.95s-.25-.51-.45-.65-.48-.21-.83-.21c-.42,0-.8,.11-1.14,.34s-.58,.56-.73,.99-.22,1.14-.22,2.14v5.04h-2.74v-10.37Z"/><path d="M622.96,488.26l-3.28-10.37h2.67l1.94,6.8,1.79-6.8h2.65l1.73,6.8,1.98-6.8h2.71l-3.33,10.37h-2.64l-1.79-6.67-1.76,6.67h-2.67Z"/><path d="M642.58,484.95l2.73,.46c-.35,1-.91,1.77-1.67,2.29s-1.71,.79-2.85,.79c-1.8,0-3.14-.59-4-1.77-.68-.94-1.03-2.14-1.03-3.57,0-1.72,.45-3.06,1.35-4.04s2.03-1.46,3.41-1.46c1.54,0,2.76,.51,3.65,1.53s1.32,2.58,1.28,4.68h-6.88c.02,.81,.24,1.45,.66,1.9s.95,.68,1.58,.68c.43,0,.79-.12,1.08-.35s.51-.61,.66-1.13Zm.16-2.77c-.02-.79-.22-1.4-.62-1.81s-.87-.62-1.43-.62c-.6,0-1.09,.22-1.48,.65s-.58,1.03-.58,1.78h4.1Z"/><path d="M647.7,488.26v-14.32h2.74v14.32h-2.74Z"/><path d="M658.01,477.88v2.19h-1.88v4.18c0,.85,.02,1.34,.05,1.48s.12,.26,.24,.35,.28,.14,.46,.14c.25,0,.62-.09,1.1-.26l.23,2.13c-.64,.27-1.36,.41-2.17,.41-.5,0-.94-.08-1.34-.25s-.69-.38-.87-.64-.31-.62-.39-1.07c-.06-.32-.09-.96-.09-1.93v-4.52h-1.26v-2.19h1.26v-2.06l2.75-1.6v3.66h1.88Z"/></g><g><rect x="166.22" y="124.52" width="635.42" height="315.15" style="fill:#fff; stroke:#1d1d1b; stroke-miterlimit:10; stroke-width:2px;"/><g><path d="M180.21,152.51l2.81-.27c.17,.94,.51,1.64,1.03,2.08s1.22,.66,2.09,.66c.93,0,1.63-.2,2.1-.59s.71-.85,.71-1.38c0-.34-.1-.63-.3-.86s-.54-.44-1.04-.62c-.34-.12-1.11-.33-2.31-.62-1.55-.38-2.64-.86-3.26-1.42-.88-.79-1.32-1.75-1.32-2.88,0-.73,.21-1.41,.62-2.05s1.01-1.12,1.79-1.45,1.72-.5,2.82-.5c1.8,0,3.15,.39,4.06,1.18s1.38,1.84,1.43,3.15l-2.89,.13c-.12-.74-.39-1.26-.8-1.59s-1.02-.48-1.83-.48-1.5,.17-1.97,.52c-.31,.22-.46,.52-.46,.89,0,.34,.14,.63,.43,.87,.36,.31,1.25,.62,2.66,.96s2.45,.68,3.12,1.03,1.2,.84,1.58,1.46,.57,1.38,.57,2.28c0,.82-.23,1.59-.68,2.3s-1.1,1.25-1.93,1.6-1.87,.52-3.12,.52c-1.81,0-3.2-.42-4.17-1.25s-1.55-2.06-1.74-3.66Z"/><path d="M192.96,146.79h2.92l2.48,7.36,2.42-7.36h2.84l-3.66,9.98-.65,1.81c-.24,.61-.47,1.07-.69,1.39s-.47,.58-.75,.78-.63,.35-1.04,.46-.88,.17-1.4,.17-1.04-.06-1.55-.17l-.24-2.15c.43,.08,.82,.13,1.16,.13,.64,0,1.11-.19,1.42-.56s.54-.85,.7-1.43l-3.95-10.4Z"/><path d="M204.42,154.21l2.75-.42c.12,.53,.35,.94,.71,1.22s.86,.42,1.5,.42c.71,0,1.24-.13,1.6-.39,.24-.18,.36-.43,.36-.73,0-.21-.07-.38-.2-.52-.14-.13-.44-.25-.92-.36-2.21-.49-3.62-.93-4.21-1.34-.82-.56-1.23-1.34-1.23-2.33,0-.9,.35-1.65,1.06-2.27s1.81-.92,3.3-.92,2.47,.23,3.16,.69,1.17,1.15,1.43,2.05l-2.59,.48c-.11-.4-.32-.71-.63-.93s-.75-.32-1.32-.32c-.72,0-1.24,.1-1.55,.3-.21,.14-.31,.33-.31,.56,0,.2,.09,.36,.27,.5,.25,.18,1.1,.44,2.56,.77s2.48,.74,3.06,1.22c.57,.49,.86,1.17,.86,2.04,0,.95-.4,1.77-1.19,2.45s-1.97,1.03-3.53,1.03c-1.41,0-2.53-.29-3.35-.86s-1.36-1.35-1.62-2.33Z"/><path d="M221.26,146.79v2.19h-1.88v4.18c0,.85,.02,1.34,.05,1.48s.12,.26,.24,.35,.28,.14,.46,.14c.25,0,.62-.09,1.1-.26l.23,2.13c-.64,.27-1.36,.41-2.17,.41-.5,0-.94-.08-1.34-.25s-.69-.38-.87-.64-.31-.62-.39-1.07c-.06-.32-.09-.96-.09-1.93v-4.52h-1.26v-2.19h1.26v-2.06l2.75-1.6v3.66h1.88Z"/><path d="M229.17,153.87l2.73,.46c-.35,1-.91,1.77-1.67,2.29s-1.71,.79-2.85,.79c-1.8,0-3.14-.59-4-1.77-.68-.94-1.03-2.14-1.03-3.57,0-1.72,.45-3.06,1.35-4.04s2.03-1.46,3.41-1.46c1.54,0,2.76,.51,3.65,1.53s1.32,2.58,1.28,4.68h-6.88c.02,.81,.24,1.45,.66,1.9s.95,.68,1.58,.68c.43,0,.79-.12,1.08-.35s.51-.61,.66-1.13Zm.16-2.77c-.02-.79-.22-1.4-.62-1.81s-.87-.62-1.43-.62c-.6,0-1.09,.22-1.48,.65s-.58,1.03-.58,1.78h4.1Z"/><path d="M234.09,146.79h2.53v1.42c.91-1.1,1.98-1.65,3.23-1.65,.66,0,1.24,.14,1.73,.41s.89,.69,1.2,1.24c.46-.55,.95-.97,1.47-1.24s1.09-.41,1.69-.41c.76,0,1.41,.15,1.93,.46s.92,.76,1.18,1.36c.19,.44,.28,1.16,.28,2.15v6.63h-2.74v-5.93c0-1.03-.09-1.69-.28-1.99-.25-.39-.64-.59-1.17-.59-.38,0-.75,.12-1.08,.35s-.58,.58-.73,1.03-.22,1.17-.22,2.14v4.98h-2.74v-5.68c0-1.01-.05-1.66-.15-1.95s-.25-.51-.45-.65-.48-.21-.83-.21c-.42,0-.8,.11-1.14,.34s-.58,.56-.73,.99-.22,1.14-.22,2.14v5.04h-2.74v-10.37Z"/></g><circle cx="398.9" cy="202.87" r="40.95" transform="translate(-47.08 240.01) rotate(-31.72)" style="fill:#fff;"/><circle cx="398.9" cy="202.87" r="40.95" transform="translate(168.26 586.38) rotate(-85.93)" style="fill:none; stroke:#000; stroke-linejoin:round; stroke-width:2px;"/><g><path d="M382.72,194.62l1.43-.12c.07,.57,.23,1.04,.47,1.41s.63,.66,1.15,.89,1.11,.34,1.76,.34c.58,0,1.09-.09,1.53-.26s.77-.41,.99-.71c.22-.3,.32-.63,.32-.98s-.1-.67-.31-.94c-.21-.27-.55-.49-1.03-.68-.31-.12-.99-.31-2.04-.56-1.05-.25-1.79-.49-2.21-.71-.55-.29-.95-.64-1.22-1.07-.27-.42-.4-.9-.4-1.43,0-.58,.16-1.12,.49-1.62,.33-.5,.81-.88,1.44-1.14,.63-.26,1.33-.39,2.1-.39,.85,0,1.6,.14,2.25,.41s1.15,.68,1.5,1.21,.54,1.13,.56,1.8l-1.45,.11c-.08-.72-.34-1.27-.79-1.64-.45-.37-1.12-.55-2-.55s-1.58,.17-2,.5-.63,.74-.63,1.21c0,.41,.15,.75,.45,1.02,.29,.27,1.05,.54,2.29,.82,1.23,.28,2.08,.52,2.54,.73,.67,.31,1.16,.7,1.48,1.17,.32,.47,.48,1.01,.48,1.63s-.17,1.18-.52,1.72-.85,.96-1.5,1.26-1.39,.45-2.21,.45c-1.04,0-1.91-.15-2.61-.45s-1.25-.76-1.65-1.36c-.4-.61-.61-1.29-.63-2.06Z"/><path d="M393.21,194.15c0-1.54,.43-2.67,1.28-3.41,.71-.61,1.58-.92,2.61-.92,1.14,0,2.07,.37,2.8,1.12,.72,.75,1.09,1.78,1.09,3.1,0,1.07-.16,1.91-.48,2.52-.32,.61-.79,1.09-1.4,1.43s-1.28,.51-2,.51c-1.16,0-2.1-.37-2.82-1.12-.72-.74-1.07-1.82-1.07-3.22Zm1.45,0c0,1.06,.23,1.86,.7,2.39,.46,.53,1.05,.79,1.75,.79s1.28-.27,1.74-.8,.7-1.34,.7-2.43c0-1.03-.23-1.8-.7-2.33-.47-.53-1.05-.79-1.74-.79s-1.29,.26-1.75,.79c-.46,.53-.7,1.32-.7,2.38Z"/><path d="M402.96,198.3v-7.2h-1.24v-1.09h1.24v-.88c0-.56,.05-.97,.15-1.24,.14-.36,.37-.66,.71-.89s.82-.34,1.43-.34c.4,0,.83,.05,1.31,.14l-.21,1.23c-.29-.05-.57-.08-.83-.08-.43,0-.73,.09-.91,.27-.18,.18-.27,.52-.27,1.02v.77h1.62v1.09h-1.62v7.2h-1.4Z"/><path d="M410.14,197.04l.2,1.24c-.4,.08-.75,.12-1.06,.12-.51,0-.91-.08-1.19-.24s-.48-.37-.59-.64c-.11-.26-.17-.82-.17-1.66v-4.77h-1.03v-1.09h1.03v-2.05l1.4-.84v2.9h1.41v1.09h-1.41v4.85c0,.4,.02,.66,.07,.77,.05,.11,.13,.21,.24,.27,.11,.07,.27,.1,.48,.1,.16,0,.36-.02,.62-.05Z"/><path d="M410.97,194.87v-1.41h4.32v1.41h-4.32Z"/><path d="M384.14,217.5l-2.54-8.3h1.45l1.32,4.79,.49,1.78c.02-.09,.16-.66,.43-1.71l1.32-4.86h1.45l1.24,4.81,.41,1.59,.48-1.6,1.42-4.8h1.37l-2.59,8.3h-1.46l-1.32-4.97-.32-1.41-1.68,6.38h-1.47Z"/><path d="M399.58,216.48c-.52,.44-1.02,.76-1.5,.94s-1,.27-1.55,.27c-.91,0-1.61-.22-2.1-.67s-.73-1.01-.73-1.71c0-.41,.09-.78,.28-1.11s.43-.61,.73-.81,.64-.36,1.01-.46c.28-.07,.69-.14,1.25-.21,1.14-.14,1.97-.3,2.51-.48,0-.19,0-.31,0-.37,0-.57-.13-.98-.4-1.21-.36-.32-.89-.48-1.6-.48-.66,0-1.15,.12-1.46,.35-.32,.23-.55,.64-.7,1.23l-1.38-.19c.12-.59,.33-1.06,.62-1.43,.29-.36,.7-.64,1.24-.84s1.17-.29,1.88-.29,1.28,.08,1.73,.25c.44,.17,.77,.38,.98,.63,.21,.25,.35,.57,.44,.96,.05,.24,.07,.67,.07,1.3v1.88c0,1.31,.03,2.13,.09,2.48,.06,.35,.18,.68,.36,1h-1.47c-.15-.29-.24-.63-.28-1.02Zm-.12-3.14c-.51,.21-1.28,.39-2.3,.53-.58,.08-.99,.18-1.23,.28-.24,.1-.42,.26-.55,.46-.13,.2-.2,.42-.2,.67,0,.38,.14,.69,.43,.94s.7,.38,1.25,.38,1.02-.12,1.45-.36c.42-.24,.73-.56,.93-.97,.15-.32,.23-.79,.23-1.41v-.52Z"/><path d="M403.05,217.5v-8.3h1.27v1.26c.32-.59,.62-.98,.89-1.16s.57-.28,.9-.28c.47,0,.96,.15,1.45,.45l-.48,1.3c-.34-.2-.69-.3-1.03-.3-.31,0-.58,.09-.83,.28-.25,.19-.42,.44-.52,.77-.16,.5-.23,1.05-.23,1.64v4.34h-1.41Z"/><path d="M414.07,214.83l1.45,.18c-.23,.85-.65,1.51-1.27,1.98s-1.41,.7-2.38,.7c-1.21,0-2.18-.37-2.89-1.12-.71-.75-1.07-1.8-1.07-3.14s.36-2.48,1.08-3.25c.72-.77,1.65-1.16,2.8-1.16s2.02,.38,2.72,1.13c.7,.76,1.05,1.82,1.05,3.19,0,.08,0,.21,0,.38h-6.19c.05,.91,.31,1.61,.77,2.09s1.04,.73,1.73,.73c.52,0,.96-.14,1.32-.41,.36-.27,.65-.7,.87-1.3Zm-4.62-2.27h4.63c-.06-.7-.24-1.22-.53-1.57-.45-.54-1.03-.81-1.74-.81-.65,0-1.19,.22-1.63,.65-.44,.43-.68,1.01-.73,1.73Z"/></g><polygon points="498.74 371.73 544.04 296.87 589.33 371.73 498.74 371.73" style="fill:#fff; fill-rule:evenodd;"/><polygon points="498.74 371.73 544.04 296.87 589.33 371.73 498.74 371.73" style="fill:none; stroke:#000; stroke-linejoin:round; stroke-width:2px;"/><g><path d="M534.16,357.86v-11.45h3.95c.89,0,1.57,.05,2.04,.16,.66,.15,1.22,.42,1.68,.82,.6,.51,1.06,1.16,1.36,1.96,.3,.79,.45,1.7,.45,2.72,0,.87-.1,1.64-.3,2.31s-.46,1.23-.78,1.67c-.32,.44-.67,.79-1.04,1.04-.38,.25-.83,.44-1.37,.57-.53,.13-1.15,.2-1.84,.2h-4.13Zm1.52-1.35h2.45c.75,0,1.35-.07,1.78-.21s.77-.34,1.03-.59c.36-.36,.64-.84,.84-1.45,.2-.61,.3-1.34,.3-2.21,0-1.2-.2-2.12-.59-2.76-.39-.64-.87-1.07-1.43-1.29-.41-.16-1.06-.23-1.96-.23h-2.41v8.75Z"/><path d="M545.65,357.86v-11.45h4.3c.88,0,1.58,.12,2.11,.35,.53,.23,.94,.59,1.24,1.07,.3,.48,.45,.99,.45,1.51,0,.49-.13,.95-.4,1.38-.27,.43-.67,.78-1.2,1.05,.69,.2,1.23,.55,1.6,1.04,.37,.49,.56,1.07,.56,1.73,0,.54-.11,1.04-.34,1.5s-.51,.82-.84,1.07-.75,.44-1.25,.57c-.5,.13-1.12,.19-1.85,.19h-4.37Zm1.52-6.64h2.48c.67,0,1.15-.04,1.45-.13,.39-.11,.68-.3,.87-.57s.29-.6,.29-1c0-.38-.09-.71-.27-1s-.44-.49-.78-.59c-.34-.11-.92-.16-1.74-.16h-2.29v3.46Zm0,5.29h2.85c.49,0,.83-.02,1.03-.05,.35-.06,.64-.17,.88-.31,.23-.15,.43-.36,.58-.64,.15-.28,.23-.6,.23-.96,0-.43-.11-.8-.33-1.11-.22-.31-.52-.54-.91-.66-.39-.13-.95-.19-1.68-.19h-2.65v3.94Z"/></g><circle cx="398.9" cy="328.51" r="40.95" transform="translate(.89 658.08) rotate(-79.1)" style="fill:#fff;"/><circle cx="398.9" cy="328.51" r="40.95" transform="translate(42.94 703.11) rotate(-85.93)" style="fill:none; stroke:#000; stroke-linejoin:round; stroke-width:2px;"/><g><path d="M372.94,329.71l1.43-.12c.07,.57,.23,1.04,.47,1.41s.63,.66,1.15,.89,1.11,.34,1.76,.34c.58,0,1.09-.09,1.53-.26s.77-.41,.99-.71c.22-.3,.32-.63,.32-.98s-.1-.67-.31-.94c-.21-.27-.55-.49-1.03-.68-.31-.12-.99-.31-2.04-.56-1.05-.25-1.79-.49-2.21-.71-.55-.29-.95-.64-1.22-1.07-.27-.42-.4-.9-.4-1.43,0-.58,.16-1.12,.49-1.62,.33-.5,.81-.88,1.44-1.14,.63-.26,1.33-.39,2.1-.39,.85,0,1.6,.14,2.25,.41s1.15,.68,1.5,1.21,.54,1.13,.56,1.8l-1.45,.11c-.08-.72-.34-1.27-.79-1.64-.45-.37-1.12-.55-2-.55s-1.58,.17-2,.5-.63,.74-.63,1.21c0,.41,.15,.75,.45,1.02,.29,.27,1.05,.54,2.29,.82,1.23,.28,2.08,.52,2.54,.73,.67,.31,1.16,.7,1.48,1.17,.32,.47,.48,1.01,.48,1.63s-.17,1.18-.52,1.72-.85,.96-1.5,1.26-1.39,.45-2.21,.45c-1.04,0-1.91-.15-2.61-.45s-1.25-.76-1.65-1.36c-.4-.61-.61-1.29-.63-2.06Z"/><path d="M389.63,330.72l1.45,.18c-.23,.85-.65,1.51-1.27,1.98s-1.41,.7-2.38,.7c-1.21,0-2.18-.37-2.89-1.12-.71-.75-1.07-1.8-1.07-3.14s.36-2.48,1.08-3.25c.72-.77,1.65-1.16,2.8-1.16s2.02,.38,2.72,1.13c.7,.76,1.05,1.82,1.05,3.19,0,.08,0,.21,0,.38h-6.19c.05,.91,.31,1.61,.77,2.09s1.04,.73,1.73,.73c.52,0,.96-.14,1.32-.41,.36-.27,.65-.7,.87-1.3Zm-4.62-2.27h4.63c-.06-.7-.24-1.22-.53-1.57-.45-.54-1.03-.81-1.74-.81-.65,0-1.19,.22-1.63,.65-.44,.43-.68,1.01-.73,1.73Z"/><path d="M392.83,333.39v-8.3h1.27v1.26c.32-.59,.62-.98,.89-1.16s.57-.28,.9-.28c.47,0,.96,.15,1.45,.45l-.48,1.3c-.34-.2-.69-.3-1.03-.3-.31,0-.58,.09-.83,.28-.25,.19-.42,.44-.52,.77-.16,.5-.23,1.05-.23,1.64v4.34h-1.41Z"/><path d="M400.48,333.39l-3.16-8.3h1.48l1.78,4.97c.19,.54,.37,1.09,.53,1.67,.12-.44,.3-.96,.52-1.58l1.84-5.06h1.45l-3.14,8.3h-1.31Z"/><path d="M406.18,323.56v-1.62h1.41v1.62h-1.41Zm0,9.84v-8.3h1.41v8.3h-1.41Z"/><path d="M415.14,330.35l1.38,.18c-.15,.95-.54,1.7-1.16,2.24s-1.39,.81-2.29,.81c-1.14,0-2.05-.37-2.74-1.11s-1.04-1.81-1.04-3.19c0-.9,.15-1.68,.45-2.35s.75-1.18,1.36-1.51,1.27-.5,1.98-.5c.9,0,1.64,.23,2.21,.68,.57,.46,.94,1.1,1.1,1.94l-1.37,.21c-.13-.56-.36-.98-.69-1.26s-.73-.42-1.2-.42c-.71,0-1.28,.25-1.73,.76s-.66,1.31-.66,2.41,.21,1.92,.64,2.43c.43,.51,.98,.76,1.67,.76,.55,0,1.01-.17,1.38-.51,.37-.34,.6-.86,.7-1.56Z"/><path d="M423.41,330.72l1.45,.18c-.23,.85-.65,1.51-1.27,1.98s-1.41,.7-2.38,.7c-1.21,0-2.18-.37-2.89-1.12-.71-.75-1.07-1.8-1.07-3.14s.36-2.48,1.08-3.25c.72-.77,1.65-1.16,2.8-1.16s2.02,.38,2.72,1.13c.7,.76,1.05,1.82,1.05,3.19,0,.08,0,.21,0,.38h-6.19c.05,.91,.31,1.61,.77,2.09s1.04,.73,1.73,.73c.52,0,.96-.14,1.32-.41,.36-.27,.65-.7,.87-1.3Zm-4.62-2.27h4.63c-.06-.7-.24-1.22-.53-1.57-.45-.54-1.03-.81-1.74-.81-.65,0-1.19,.22-1.63,.65-.44,.43-.68,1.01-.73,1.73Z"/></g><rect x="558.94" y="164.07" width="90.01" height="77.59" style="fill:#fff;"/><rect x="558.94" y="164.07" width="90.01" height="77.59" style="fill:none; stroke:#000; stroke-linejoin:round; stroke-width:2px;"/><g><path d="M585.23,197.54v-11.45h1.52v4.7h5.95v-4.7h1.52v11.45h-1.52v-5.4h-5.95v5.4h-1.52Z"/><path d="M601.97,196.51c-.52,.44-1.02,.76-1.5,.94s-1,.27-1.55,.27c-.91,0-1.61-.22-2.1-.67s-.73-1.01-.73-1.71c0-.41,.09-.78,.28-1.11s.43-.61,.73-.81,.64-.36,1.01-.46c.28-.07,.69-.14,1.25-.21,1.14-.14,1.97-.3,2.51-.48,0-.19,0-.31,0-.37,0-.57-.13-.98-.4-1.21-.36-.32-.89-.48-1.6-.48-.66,0-1.15,.12-1.46,.35-.32,.23-.55,.64-.7,1.23l-1.38-.19c.12-.59,.33-1.06,.62-1.43,.29-.36,.7-.64,1.24-.84s1.17-.29,1.88-.29,1.28,.08,1.73,.25c.44,.17,.77,.38,.98,.63,.21,.25,.35,.57,.44,.96,.05,.24,.07,.67,.07,1.3v1.88c0,1.31,.03,2.13,.09,2.48,.06,.35,.18,.68,.36,1h-1.47c-.15-.29-.24-.63-.28-1.02Zm-.12-3.14c-.51,.21-1.28,.39-2.3,.53-.58,.08-.99,.18-1.23,.28-.24,.1-.42,.26-.55,.46-.13,.2-.2,.42-.2,.67,0,.38,.14,.69,.43,.94s.7,.38,1.25,.38,1.02-.12,1.45-.36c.42-.24,.73-.56,.93-.97,.15-.32,.23-.79,.23-1.41v-.52Z"/><path d="M605.44,197.54v-8.3h1.27v1.26c.32-.59,.62-.98,.89-1.16s.57-.28,.9-.28c.47,0,.96,.15,1.45,.45l-.48,1.3c-.34-.2-.69-.3-1.03-.3-.31,0-.58,.09-.83,.28-.25,.19-.42,.44-.52,.77-.16,.5-.23,1.05-.23,1.64v4.34h-1.41Z"/><path d="M616.16,197.54v-1.05c-.53,.82-1.3,1.23-2.32,1.23-.66,0-1.27-.18-1.82-.55s-.98-.87-1.29-1.53c-.3-.65-.46-1.4-.46-2.25s.14-1.58,.41-2.25c.28-.67,.69-1.19,1.24-1.55s1.17-.54,1.85-.54c.5,0,.95,.11,1.34,.32s.71,.49,.95,.82v-4.11h1.4v11.45h-1.3Zm-4.45-4.14c0,1.06,.22,1.86,.67,2.38,.45,.53,.98,.79,1.59,.79s1.14-.25,1.57-.75c.43-.5,.64-1.27,.64-2.3,0-1.14-.22-1.97-.66-2.5s-.98-.8-1.62-.8-1.15,.26-1.57,.77c-.42,.51-.63,1.32-.63,2.41Z"/><path d="M619.13,194.1v-1.41h4.32v1.41h-4.32Z"/><path d="M586.53,216.74l-2.54-8.3h1.45l1.32,4.79,.49,1.78c.02-.09,.16-.66,.43-1.71l1.32-4.86h1.45l1.24,4.81,.41,1.59,.48-1.6,1.42-4.8h1.37l-2.59,8.3h-1.46l-1.32-4.97-.32-1.41-1.68,6.38h-1.47Z"/><path d="M601.97,215.71c-.52,.44-1.02,.76-1.5,.94s-1,.27-1.55,.27c-.91,0-1.61-.22-2.1-.67s-.73-1.01-.73-1.71c0-.41,.09-.78,.28-1.11s.43-.61,.73-.81,.64-.36,1.01-.46c.28-.07,.69-.14,1.25-.21,1.14-.14,1.97-.3,2.51-.48,0-.19,0-.31,0-.37,0-.57-.13-.98-.4-1.21-.36-.32-.89-.48-1.6-.48-.66,0-1.15,.12-1.46,.35-.32,.23-.55,.64-.7,1.23l-1.38-.19c.12-.59,.33-1.06,.62-1.43,.29-.36,.7-.64,1.24-.84s1.17-.29,1.88-.29,1.28,.08,1.73,.25c.44,.17,.77,.38,.98,.63,.21,.25,.35,.57,.44,.96,.05,.24,.07,.67,.07,1.3v1.88c0,1.31,.03,2.13,.09,2.48,.06,.35,.18,.68,.36,1h-1.47c-.15-.29-.24-.63-.28-1.02Zm-.12-3.14c-.51,.21-1.28,.39-2.3,.53-.58,.08-.99,.18-1.23,.28-.24,.1-.42,.26-.55,.46-.13,.2-.2,.42-.2,.67,0,.38,.14,.69,.43,.94s.7,.38,1.25,.38,1.02-.12,1.45-.36c.42-.24,.73-.56,.93-.97,.15-.32,.23-.79,.23-1.41v-.52Z"/><path d="M605.44,216.74v-8.3h1.27v1.26c.32-.59,.62-.98,.89-1.16s.57-.28,.9-.28c.47,0,.96,.15,1.45,.45l-.48,1.3c-.34-.2-.69-.3-1.03-.3-.31,0-.58,.09-.83,.28-.25,.19-.42,.44-.52,.77-.16,.5-.23,1.05-.23,1.64v4.34h-1.41Z"/><path d="M616.46,214.06l1.45,.18c-.23,.85-.65,1.51-1.27,1.98s-1.41,.7-2.38,.7c-1.21,0-2.18-.37-2.89-1.12-.71-.75-1.07-1.8-1.07-3.14s.36-2.48,1.08-3.25c.72-.77,1.65-1.16,2.8-1.16s2.02,.38,2.72,1.13c.7,.76,1.05,1.82,1.05,3.19,0,.08,0,.21,0,.38h-6.19c.05,.91,.31,1.61,.77,2.09s1.04,.73,1.73,.73c.52,0,.96-.14,1.32-.41,.36-.27,.65-.7,.87-1.3Zm-4.62-2.27h4.63c-.06-.7-.24-1.22-.53-1.57-.45-.54-1.03-.81-1.74-.81-.65,0-1.19,.22-1.63,.65-.44,.43-.68,1.01-.73,1.73Z"/></g><path d="M549.81,207.43l9.13-4.56-9.13-4.56v9.13Zm-100.84-9.13l-9.13,4.56,9.13,4.56v-9.13Zm-1.52,5.71h103.88v-2.28h-103.88v2.28Z"/><path d="M604.78,251.84l-.83-10.17-7.64,6.77,8.47,3.41Zm-38.92,72.29l.83,10.17,7.64-6.77-8.47-3.41Zm4.73,3.54l31.59-78.52-2.12-.85-31.59,78.52,2.12,.85Z"/><path d="M430.64,241.64l-2.78-9.82,9.53,3.67-6.74,6.15Zm87.97,82.84l2.78,9.82-9.53-3.67,6.74-6.15Zm-3.19,4.97l-83.28-91.24,1.69-1.54,83.28,91.24-1.69,1.54Z"/><path d="M403.46,252.94l-4.56-9.13-4.56,9.13h9.13Zm-9.13,25.49l4.56,9.13,4.56-9.13h-9.13Zm5.71,1.52v-28.53s-2.28,0-2.28,0v28.53s2.28,0,2.28,0Z"/><polygon points="190.94 330.39 190.94 307.74 78.2 307.74 78.2 256.45 190.94 256.45 190.94 233.81 229.17 282.1 190.94 330.39" style="fill:#fff; fill-rule:evenodd; stroke:#1d1d1b; stroke-miterlimit:10; stroke-width:2px;"/><polygon points="871.57 330.39 871.57 307.74 758.83 307.74 758.83 256.45 871.57 256.45 871.57 233.81 909.8 282.1 871.57 330.39" style="fill:#fff; fill-rule:evenodd; stroke:#1d1d1b; stroke-miterlimit:10; stroke-width:2px;"/><g><path d="M102.25,288.91v-14.32h2.89v14.32h-2.89Z"/><path d="M117.3,288.91h-2.74v-5.29c0-1.12-.06-1.84-.18-2.17s-.31-.58-.57-.77-.58-.27-.95-.27c-.48,0-.9,.13-1.28,.39s-.64,.61-.78,1.04-.21,1.22-.21,2.38v4.7h-2.74v-10.37h2.55v1.52c.91-1.17,2.04-1.76,3.42-1.76,.61,0,1.16,.11,1.66,.33s.88,.5,1.14,.83,.44,.72,.54,1.15,.15,1.04,.15,1.85v6.45Z"/><path d="M120.01,278.54h2.56v1.52c.33-.52,.78-.94,1.35-1.27s1.19-.49,1.88-.49c1.2,0,2.23,.47,3.07,1.42s1.26,2.26,1.26,3.95-.42,3.08-1.27,4.04-1.87,1.44-3.08,1.44c-.57,0-1.09-.11-1.56-.34s-.96-.62-1.47-1.17v5.22h-2.74v-14.32Zm2.71,5.01c0,1.17,.23,2.03,.69,2.58s1.03,.83,1.69,.83,1.17-.26,1.59-.77,.63-1.35,.63-2.51c0-1.09-.22-1.89-.65-2.42s-.98-.79-1.62-.79-1.23,.26-1.67,.78-.66,1.28-.66,2.3Z"/><path d="M139.13,288.91v-1.55c-.38,.55-.87,.99-1.49,1.31s-1.26,.48-1.95,.48-1.32-.15-1.88-.46-.95-.74-1.2-1.29-.37-1.32-.37-2.29v-6.56h2.74v4.77c0,1.46,.05,2.35,.15,2.68s.29,.59,.55,.78,.61,.29,1.02,.29c.47,0,.89-.13,1.26-.39s.62-.58,.76-.96,.21-1.31,.21-2.8v-4.38h2.74v10.37h-2.55Z"/><path d="M149.28,278.54v2.19h-1.88v4.18c0,.85,.02,1.34,.05,1.48s.12,.26,.24,.35,.28,.14,.46,.14c.25,0,.62-.09,1.1-.26l.23,2.13c-.64,.27-1.36,.41-2.17,.41-.5,0-.94-.08-1.34-.25s-.69-.38-.87-.64-.31-.62-.39-1.07c-.06-.32-.09-.96-.09-1.93v-4.52h-1.26v-2.19h1.26v-2.06l2.75-1.6v3.66h1.88Z"/></g><polyline points="498.87 40.63 213.38 40.63 213.38 124.52" style="fill:none; stroke:#000; stroke-linejoin:round;"/><g><path d="M708.42,363.65c0-4.77,.06-9.37-.02-13.96-.04-2.29-1.06-4.31-2.92-5.59-2.47-1.69-5.06-3.25-7.75-4.57-2.16-1.06-4.54-1.69-6.57-2.42,2.19-.2,4.59-.35,6.97-.68,1.51-.21,2-1.27,1.11-2.24-2.9-3.18-3.2-6.76-2.21-10.79,1.03-4.21,2.07-8.48,1.54-12.89-.54-4.46-3.22-6.77-7.64-6.73-.47,0-1.08-.16-1.4-.47-3.92-3.73-8.66-5.02-13.85-4.21-7.49,1.17-11.34,4.56-11.83,11.42-.31,4.27-.14,8.58-.02,12.87,.12,4.25,1.1,8.54-1.37,12.53-.63,1.01,.08,1.88,1.2,1.81,4.47-.24,8.99-.44,12.26-4.25,.35-.41,1.02-.89,1.44-.82,3.89,.73,8.4-.48,11.26,3.52,.03,.05,.08,.08,.13,.12-.35,.24-.71,.46-1.02,.73-4.67,4.07-8.81,3.97-13.33,.31-.57-.46-1.72-.53-2.5-.36-5.35,1.2-10.25,3.48-14.78,6.56-2.14,1.46-3.51,3.49-3.6,6.16-.1,3.21-.08,6.42-.11,9.62-.01,1.43,0,2.85,0,4.28h2.41c0-.74,0-1.39,0-2.05,0-3.51,.01-7.03,0-10.54,0-2.25,.72-4.18,2.62-5.47,4.03-2.72,8.35-4.86,13.11-5.96,.76-.18,1.83,0,2.48,.44,4.85,3.29,9.21,3.25,14.07-.17,.51-.36,1.36-.57,1.94-.43,4.88,1.2,9.46,3.11,13.52,6.15,1.35,1.02,2.4,2.24,2.43,4.04,.07,3.93,.11,7.86,.16,11.8,0,.71,0,1.41,0,2.2h2.3Z" style="fill:#fff;"/><path d="M708.42,363.65h-2.3c0-.79,0-1.49,0-2.2-.05-3.93-.08-7.86-.16-11.8-.03-1.8-1.08-3.02-2.43-4.04-4.05-3.04-8.63-4.95-13.52-6.15-.59-.14-1.43,.07-1.94,.43-4.85,3.42-9.22,3.46-14.07,.17-.64-.44-1.71-.62-2.48-.44-4.76,1.1-9.08,3.25-13.11,5.96-1.9,1.28-2.62,3.21-2.62,5.47,.01,3.51,0,7.03,0,10.54,0,.65,0,1.3,0,2.05h-2.41c0-1.43,0-2.86,0-4.28,.03-3.21,0-6.42,.11-9.62,.08-2.67,1.45-4.71,3.6-6.16,4.52-3.08,9.42-5.36,14.78-6.56,.78-.18,1.93-.1,2.5,.36,4.52,3.66,8.66,3.76,13.33-.31,.31-.27,.67-.48,1.02-.73-.05-.04-.1-.08-.13-.12-2.86-4-7.38-2.79-11.26-3.52-.42-.08-1.1,.41-1.44,.82-3.27,3.81-7.78,4.01-12.26,4.25-1.12,.06-1.82-.8-1.2-1.81,2.47-3.99,1.49-8.28,1.37-12.53-.12-4.29-.29-8.6,.02-12.87,.5-6.87,4.35-10.25,11.83-11.42,5.19-.81,9.93,.48,13.85,4.21,.33,.31,.93,.48,1.4,.47,4.42-.03,7.1,2.27,7.64,6.73,.53,4.41-.51,8.67-1.54,12.89-.98,4.02-.69,7.61,2.21,10.79,.89,.97,.4,2.04-1.11,2.24-2.38,.33-4.78,.47-6.97,.68,2.03,.73,4.4,1.36,6.57,2.42,2.68,1.32,5.28,2.87,7.75,4.57,1.86,1.28,2.88,3.3,2.92,5.59,.08,4.59,.02,9.19,.02,13.96Zm-34.19-32.15c-.19-.15-.36-.32-.56-.45-4.35-2.79-6.53-6.83-6.66-11.94-.06-2.46,1.23-3.79,3.64-4.14,1.19-.17,2.4-.32,3.58-.55,4.76-.91,8.69-3.43,12.38-6.44,1.74-1.42,2.9-.99,3.65,1.11,.32,.9,.47,2.06,1.12,2.61,2.61,2.22,3.74,5.01,3.78,8.41,.55-2.45,1.03-4.87,1.15-7.31,.24-4.83-1.59-6.56-6.33-6.4-.51,.02-1.18-.31-1.53-.7-3.64-4.02-8.24-5.12-13.34-4.09-3.83,.77-7.41,2.32-8.4,6.67-.52,2.27-.61,4.67-.7,7.01-.27,6.54,1.46,13.09-.17,19.62,3.48,.38,5.99-.66,8.39-3.42Zm13.27-21.18c-4.53,4.1-10.09,6.57-16.51,7.02-1.22,.09-1.53,.81-1.53,1.98,0,5.28,3.93,10.02,9.35,11.12,5.18,1.06,10.88-1.83,12.73-6.69,1.13-2.97,1.78-6.06-.51-8.92-1.14-1.42-2.25-2.87-3.52-4.5Zm6.69,13.94c-1.63,3.24-3.76,5.87-7.03,7.36,1.77,2.9,4.62,3.61,8.95,2.46-1.93-3-2.62-6.25-1.92-9.83Z"/><path d="M674.23,331.5c-2.4,2.76-4.91,3.79-8.39,3.42,1.62-6.53-.11-13.08,.17-19.62,.1-2.35,.19-4.74,.7-7.01,.99-4.35,4.57-5.9,8.4-6.67,5.1-1.02,9.7,.07,13.34,4.09,.35,.39,1.02,.72,1.53,.7,4.75-.16,6.57,1.56,6.33,6.4-.12,2.44-.6,4.85-1.15,7.31-.04-3.4-1.17-6.18-3.78-8.41-.65-.55-.8-1.71-1.12-2.61-.75-2.1-1.91-2.54-3.65-1.11-3.69,3.01-7.61,5.53-12.38,6.44-1.18,.23-2.39,.37-3.58,.55-2.41,.35-3.71,1.68-3.64,4.14,.13,5.11,2.31,9.15,6.66,11.94,.2,.13,.37,.3,.56,.45Z" style="fill:#fff;"/><path d="M687.5,310.31c1.27,1.63,2.38,3.08,3.52,4.5,2.29,2.85,1.64,5.95,.51,8.92-1.85,4.87-7.55,7.75-12.73,6.69-5.41-1.11-9.35-5.84-9.35-11.12,0-1.17,.31-1.89,1.53-1.98,6.42-.45,11.99-2.92,16.51-7.02Z" style="fill:#fff;"/><path d="M694.19,324.25c-.71,3.58-.01,6.83,1.92,9.83-4.34,1.14-7.19,.43-8.95-2.46,3.27-1.49,5.41-4.12,7.03-7.36Z" style="fill:#fff;"/></g><g><path d="M327.46,243.92h-82.53v-82.17h82.53v82.17Zm-56.42-55.24c.59,3.36,1.68,6.36,4.04,8.83,6.59,6.87,18.12,5.17,22.39-3.18,1.99-3.9,2.48-8.2,2.54-12.44,.06-4.38-2.32-7.36-5.67-8.37-1.65-.5-3.28-1.1-4.84-1.82-7.17-3.28-18.36,0-20.02,9.64-.25,1.42-.41,2.86-.71,4.27-.5,2.4-.27,2.76,2.27,3.06Zm42.6,43.63c0-4.48,.04-8.89-.01-13.29-.03-2.81-1.17-5.07-3.49-6.8-4.63-3.44-9.81-5.53-15.37-6.88-1.08-.26-1.74-.11-2.58,.57-4.5,3.64-7.9,3.56-12.53,.02-.64-.49-1.84-.64-2.67-.45-5.65,1.29-10.92,3.56-15.47,7.15-1.4,1.1-2.77,3.09-2.91,4.77-.38,4.92-.14,9.89-.14,14.86h2.44c0-4.25,0-8.36,0-12.47,0-2.08,.54-4.01,2.29-5.26,4.06-2.91,8.49-5.08,13.38-6.21,.75-.17,1.8,.01,2.44,.45,4.81,3.28,9.44,3.26,14.07-.11,.47-.34,1.22-.65,1.73-.53,4.28,1.06,8.31,2.66,12.1,5.01,3.1,1.92,4.38,4.36,4.22,7.93-.17,3.73-.04,7.47-.04,11.25h2.54Z" style="fill:#fff;"/><path d="M271.04,188.68c-2.54-.3-2.77-.66-2.27-3.06,.29-1.41,.46-2.85,.71-4.27,1.66-9.63,12.85-12.93,20.02-9.64,1.56,.72,3.2,1.32,4.84,1.82,3.34,1.01,5.73,3.99,5.67,8.37-.06,4.24-.55,8.54-2.54,12.44-4.26,8.35-15.8,10.05-22.39,3.18-2.36-2.47-3.45-5.47-4.04-8.83Zm2.9-.18c-.02,4.78,4.07,9.73,9.61,10.55,4.77,.71,10.12-2.04,11.96-6.56,.56-1.36,1.34-3.19,.86-4.31-.97-2.27-2.65-4.26-4.2-6.23-.65-.82-1.5-.71-2.48,.07-3.11,2.47-6.21,5.04-10.31,5.75-1.77,.3-3.56,.48-5.44,.73Zm-2.4-2.79c5.42,.27,10.4-.62,14.62-4.25,1.05-.9,2.1-1.85,3.28-2.56,.59-.35,1.72-.54,2.2-.21,1.61,1.1,3.04,2.45,4.51,3.73,.36,.31,.62,.74,1.13,1.35,0-1.4,.1-2.43-.02-3.45-.23-2.03-2.18-3.97-4.04-4.43-1.36-.33-2.77-.71-3.95-1.41-6.18-3.65-16.54-.13-17.22,7.76-.1,1.13-.33,2.24-.52,3.45Z"/><path d="M313.64,232.32h-2.54c0-3.78-.13-7.52,.04-11.25,.17-3.57-1.12-6-4.22-7.93-3.79-2.36-7.82-3.95-12.1-5.01-.51-.13-1.26,.18-1.73,.53-4.63,3.38-9.26,3.39-14.07,.11-.63-.43-1.69-.62-2.44-.45-4.88,1.13-9.32,3.3-13.38,6.21-1.75,1.25-2.29,3.18-2.29,5.26,0,4.11,0,8.22,0,12.47h-2.44c0-4.97-.25-9.94,.14-14.86,.13-1.68,1.51-3.67,2.91-4.77,4.54-3.59,9.82-5.86,15.47-7.15,.83-.19,2.02-.04,2.67,.45,4.63,3.53,8.03,3.61,12.53-.02,.84-.68,1.5-.83,2.58-.57,5.56,1.35,10.74,3.44,15.37,6.88,2.33,1.73,3.46,3.98,3.49,6.8,.05,4.4,.01,8.81,.01,13.29Z"/><path d="M273.94,188.51c1.88-.25,3.67-.42,5.44-.73,4.1-.71,7.21-3.27,10.31-5.75,.99-.78,1.84-.9,2.48-.07,1.55,1.98,3.23,3.97,4.2,6.23,.48,1.12-.31,2.94-.86,4.31-1.84,4.52-7.2,7.27-11.96,6.56-5.54-.83-9.63-5.77-9.61-10.55Z" style="fill:#fff;"/><path d="M271.54,185.72c.19-1.21,.42-2.32,.52-3.45,.68-7.89,11.04-11.41,17.22-7.76,1.19,.7,2.6,1.08,3.95,1.41,1.86,.46,3.81,2.4,4.04,4.43,.12,1.01,.02,2.04,.02,3.45-.51-.62-.77-1.04-1.13-1.35-1.47-1.28-2.91-2.64-4.51-3.73-.48-.33-1.61-.14-2.2,.21-1.18,.7-2.23,1.65-3.28,2.56-4.22,3.62-9.2,4.52-14.62,4.25Z" style="fill:#fff;"/></g><path d="M348.83,207.44l9.13-4.57-9.13-4.56v9.13Zm-12.53-9.12l-9.13,4.57,9.13,4.56v-9.13Zm-1.52,5.71l15.57-.02v-2.28s-15.57,.02-15.57,.02v2.28Z"/><path d="M685.7,284.19l-4.56,9.13-4.56-9.13h9.13Zm-27.62-76.76l-9.13-4.56,9.13-4.56v9.13Zm-1.52-5.71h25.72v83.99h-2.28v-82.85l1.14,1.14h-24.58v-2.28Z"/><rect x="473.21" y="176.77" width="52.37" height="52.19" style="fill:#fff;"/><rect x="473.21" y="176.77" width="52.37" height="52.19" style="fill:none; stroke:#000; stroke-linejoin:round; stroke-width:2px;"/><g><path d="M481.5,200.46v-11.45h1.55l6.02,8.99v-8.99h1.45v11.45h-1.55l-6.02-9v9h-1.45Z"/><path d="M498.57,197.79l1.45,.18c-.23,.85-.65,1.51-1.27,1.98s-1.41,.7-2.38,.7c-1.21,0-2.18-.37-2.89-1.12-.71-.75-1.07-1.8-1.07-3.14s.36-2.48,1.08-3.25c.72-.77,1.65-1.16,2.8-1.16s2.02,.38,2.72,1.13c.7,.76,1.05,1.82,1.05,3.19,0,.08,0,.21,0,.38h-6.19c.05,.91,.31,1.61,.77,2.09s1.04,.73,1.73,.73c.52,0,.96-.14,1.32-.41,.36-.27,.65-.7,.87-1.3Zm-4.62-2.27h4.63c-.06-.7-.24-1.22-.53-1.57-.45-.54-1.03-.81-1.74-.81-.65,0-1.19,.22-1.63,.65-.44,.43-.68,1.01-.73,1.73Z"/><path d="M504.86,199.21l.2,1.24c-.4,.08-.75,.12-1.06,.12-.51,0-.91-.08-1.19-.24s-.48-.37-.59-.64c-.11-.26-.17-.82-.17-1.66v-4.77h-1.03v-1.09h1.03v-2.05l1.4-.84v2.9h1.41v1.09h-1.41v4.85c0,.4,.02,.66,.07,.77,.05,.11,.13,.21,.24,.27,.11,.07,.27,.1,.48,.1,.16,0,.36-.02,.62-.05Z"/><path d="M505.49,200.46v-1.14l5.28-6.06c-.6,.03-1.13,.05-1.59,.05h-3.38v-1.14h6.78v.93l-4.49,5.27-.87,.96c.63-.05,1.22-.07,1.77-.07h3.84v1.21h-7.34Z"/><path d="M513.69,197.03v-1.41h4.32v1.41h-4.32Z"/><path d="M485.09,219.66l-2.54-8.3h1.45l1.32,4.79,.49,1.78c.02-.09,.16-.66,.43-1.71l1.32-4.86h1.45l1.24,4.81,.41,1.59,.48-1.6,1.42-4.8h1.37l-2.59,8.3h-1.46l-1.32-4.97-.32-1.41-1.68,6.38h-1.47Z"/><path d="M500.79,216.99l1.45,.18c-.23,.85-.65,1.51-1.27,1.98s-1.41,.7-2.38,.7c-1.21,0-2.18-.37-2.89-1.12-.71-.75-1.07-1.8-1.07-3.14s.36-2.48,1.08-3.25c.72-.77,1.65-1.16,2.8-1.16s2.02,.38,2.72,1.13c.7,.76,1.05,1.82,1.05,3.19,0,.08,0,.21,0,.38h-6.19c.05,.91,.31,1.61,.77,2.09s1.04,.73,1.73,.73c.52,0,.96-.14,1.32-.41,.36-.27,.65-.7,.87-1.3Zm-4.62-2.27h4.63c-.06-.7-.24-1.22-.53-1.57-.45-.54-1.03-.81-1.74-.81-.65,0-1.19,.22-1.63,.65-.44,.43-.68,1.01-.73,1.73Z"/><path d="M504,219.66v-8.3h1.27v1.26c.32-.59,.62-.98,.89-1.16s.57-.28,.9-.28c.47,0,.96,.15,1.45,.45l-.48,1.3c-.34-.2-.69-.3-1.03-.3-.31,0-.58,.09-.83,.28-.25,.19-.42,.44-.52,.77-.16,.5-.23,1.05-.23,1.64v4.34h-1.41Z"/><path d="M509.35,219.66v-11.45h1.41v6.53l3.33-3.38h1.82l-3.17,3.08,3.49,5.22h-1.73l-2.74-4.24-.99,.95v3.29h-1.41Z"/></g><g><path d="M255.01,270l4.4-11.45h1.63l4.69,11.45h-1.73l-1.34-3.47h-4.79l-1.26,3.47h-1.61Zm3.3-4.7h3.88l-1.2-3.17c-.36-.96-.64-1.75-.81-2.38-.15,.73-.35,1.46-.62,2.19l-1.26,3.36Z"/><path d="M272.2,270v-1.22c-.65,.94-1.52,1.41-2.63,1.41-.49,0-.95-.09-1.37-.28s-.74-.42-.95-.71c-.21-.28-.35-.63-.43-1.04-.06-.28-.09-.71-.09-1.31v-5.14h1.41v4.6c0,.73,.03,1.23,.09,1.48,.09,.37,.28,.66,.56,.87s.64,.32,1.06,.32,.82-.11,1.19-.32c.37-.22,.63-.51,.79-.88,.15-.37,.23-.91,.23-1.62v-4.45h1.41v8.3h-1.26Z"/><path d="M276,270v-7.2h-1.24v-1.09h1.24v-.88c0-.56,.05-.97,.15-1.24,.14-.36,.37-.66,.71-.89s.82-.34,1.43-.34c.4,0,.83,.05,1.31,.14l-.21,1.23c-.29-.05-.57-.08-.83-.08-.43,0-.73,.09-.91,.27-.18,.18-.27,.52-.27,1.02v.77h1.62v1.09h-1.62v7.2h-1.4Z"/><path d="M279.85,270.69l1.37,.2c.06,.42,.22,.73,.48,.92,.35,.26,.83,.39,1.43,.39,.65,0,1.15-.13,1.51-.39,.35-.26,.59-.62,.72-1.09,.07-.29,.11-.89,.1-1.8-.61,.72-1.38,1.09-2.3,1.09-1.14,0-2.02-.41-2.65-1.23-.62-.82-.94-1.81-.94-2.96,0-.79,.14-1.52,.43-2.19,.29-.67,.7-1.19,1.25-1.55,.54-.36,1.18-.55,1.92-.55,.98,0,1.79,.4,2.42,1.19v-1h1.3v7.17c0,1.29-.13,2.21-.39,2.75s-.68,.96-1.25,1.28-1.27,.47-2.11,.47c-.99,0-1.79-.22-2.4-.67s-.9-1.12-.88-2.01Zm1.16-4.98c0,1.09,.22,1.88,.65,2.38s.97,.75,1.62,.75,1.19-.25,1.62-.75c.44-.5,.66-1.28,.66-2.34s-.23-1.78-.68-2.3-.99-.77-1.63-.77-1.16,.25-1.59,.76-.66,1.26-.66,2.26Z"/><path d="M294.42,268.98c-.52,.44-1.02,.76-1.5,.94s-1,.27-1.55,.27c-.91,0-1.61-.22-2.1-.67s-.73-1.01-.73-1.71c0-.41,.09-.78,.28-1.11s.43-.61,.73-.81,.64-.36,1.01-.46c.28-.07,.69-.14,1.25-.21,1.14-.14,1.97-.3,2.51-.48,0-.19,0-.31,0-.37,0-.57-.13-.98-.4-1.21-.36-.32-.89-.48-1.6-.48-.66,0-1.15,.12-1.46,.35-.32,.23-.55,.64-.7,1.23l-1.38-.19c.12-.59,.33-1.06,.62-1.43,.29-.36,.7-.64,1.24-.84s1.17-.29,1.88-.29,1.28,.08,1.73,.25c.44,.17,.77,.38,.98,.63,.21,.25,.35,.57,.44,.96,.05,.24,.07,.67,.07,1.3v1.88c0,1.31,.03,2.13,.09,2.48,.06,.35,.18,.68,.36,1h-1.47c-.15-.29-.24-.63-.28-1.02Zm-.12-3.14c-.51,.21-1.28,.39-2.3,.53-.58,.08-.99,.18-1.23,.28-.24,.1-.42,.26-.55,.46-.13,.2-.2,.42-.2,.67,0,.38,.14,.69,.43,.94s.7,.38,1.25,.38,1.02-.12,1.45-.36c.42-.24,.73-.56,.93-.97,.15-.32,.23-.79,.23-1.41v-.52Z"/><path d="M299.2,270h-1.3v-11.45h1.41v4.09c.59-.74,1.35-1.12,2.27-1.12,.51,0,.99,.1,1.45,.31,.46,.21,.83,.5,1.12,.87,.29,.37,.52,.82,.69,1.35,.17,.53,.25,1.09,.25,1.69,0,1.42-.35,2.52-1.05,3.3-.7,.78-1.55,1.16-2.53,1.16s-1.75-.41-2.3-1.23v1.04Zm-.02-4.21c0,1,.14,1.71,.41,2.16,.44,.72,1.04,1.09,1.8,1.09,.61,0,1.15-.27,1.59-.8,.45-.53,.67-1.33,.67-2.39s-.21-1.88-.64-2.4-.95-.77-1.56-.77-1.15,.27-1.59,.8c-.45,.53-.67,1.31-.67,2.32Z"/><path d="M312.48,267.33l1.45,.18c-.23,.85-.65,1.51-1.27,1.98s-1.41,.7-2.38,.7c-1.21,0-2.18-.37-2.89-1.12-.71-.75-1.07-1.8-1.07-3.14s.36-2.48,1.08-3.25c.72-.77,1.65-1.16,2.8-1.16s2.02,.38,2.72,1.13c.7,.76,1.05,1.82,1.05,3.19,0,.08,0,.21,0,.38h-6.19c.05,.91,.31,1.61,.77,2.09s1.04,.73,1.73,.73c.52,0,.96-.14,1.32-.41,.36-.27,.65-.7,.87-1.3Zm-4.62-2.27h4.63c-.06-.7-.24-1.22-.53-1.57-.45-.54-1.03-.81-1.74-.81-.65,0-1.19,.22-1.63,.65-.44,.43-.68,1.01-.73,1.73Z"/></g><g><path d="M653.49,391.87l4.4-11.45h1.63l4.69,11.45h-1.73l-1.34-3.47h-4.79l-1.26,3.47h-1.61Zm3.3-4.7h3.88l-1.2-3.17c-.36-.96-.64-1.75-.81-2.38-.15,.73-.35,1.46-.62,2.19l-1.26,3.36Z"/><path d="M670.68,391.87v-1.22c-.65,.94-1.52,1.41-2.63,1.41-.49,0-.95-.09-1.37-.28s-.74-.42-.95-.71c-.21-.28-.35-.63-.43-1.04-.06-.28-.09-.71-.09-1.31v-5.14h1.41v4.6c0,.73,.03,1.23,.09,1.48,.09,.37,.28,.66,.56,.87s.64,.32,1.06,.32,.82-.11,1.19-.32c.37-.22,.63-.51,.79-.88,.15-.37,.23-.91,.23-1.62v-4.45h1.41v8.3h-1.26Z"/><path d="M674.48,391.87v-7.2h-1.24v-1.09h1.24v-.88c0-.56,.05-.97,.15-1.24,.14-.36,.37-.66,.71-.89s.82-.34,1.43-.34c.4,0,.83,.05,1.31,.14l-.21,1.23c-.29-.05-.57-.08-.83-.08-.43,0-.73,.09-.91,.27-.18,.18-.27,.52-.27,1.02v.77h1.62v1.09h-1.62v7.2h-1.4Z"/><path d="M678.33,392.55l1.37,.2c.06,.42,.22,.73,.48,.92,.35,.26,.83,.39,1.43,.39,.65,0,1.15-.13,1.51-.39,.35-.26,.59-.62,.72-1.09,.07-.29,.11-.89,.1-1.8-.61,.72-1.38,1.09-2.3,1.09-1.14,0-2.02-.41-2.65-1.23-.62-.82-.94-1.81-.94-2.96,0-.79,.14-1.52,.43-2.19,.29-.67,.7-1.19,1.25-1.55,.54-.36,1.18-.55,1.92-.55,.98,0,1.79,.4,2.42,1.19v-1h1.3v7.17c0,1.29-.13,2.21-.39,2.75s-.68,.96-1.25,1.28-1.27,.47-2.11,.47c-.99,0-1.79-.22-2.4-.67s-.9-1.12-.88-2.01Zm1.16-4.98c0,1.09,.22,1.88,.65,2.38s.97,.75,1.62,.75,1.19-.25,1.62-.75c.44-.5,.66-1.28,.66-2.34s-.23-1.78-.68-2.3-.99-.77-1.63-.77-1.16,.25-1.59,.76-.66,1.26-.66,2.26Z"/><path d="M692.9,390.84c-.52,.44-1.02,.76-1.5,.94s-1,.27-1.55,.27c-.91,0-1.61-.22-2.1-.67s-.73-1.01-.73-1.71c0-.41,.09-.78,.28-1.11s.43-.61,.73-.81,.64-.36,1.01-.46c.28-.07,.69-.14,1.25-.21,1.14-.14,1.97-.3,2.51-.48,0-.19,0-.31,0-.37,0-.57-.13-.98-.4-1.21-.36-.32-.89-.48-1.6-.48-.66,0-1.15,.12-1.46,.35-.32,.23-.55,.64-.7,1.23l-1.38-.19c.12-.59,.33-1.06,.62-1.43,.29-.36,.7-.64,1.24-.84s1.17-.29,1.88-.29,1.28,.08,1.73,.25c.44,.17,.77,.38,.98,.63,.21,.25,.35,.57,.44,.96,.05,.24,.07,.67,.07,1.3v1.88c0,1.31,.03,2.13,.09,2.48,.06,.35,.18,.68,.36,1h-1.47c-.15-.29-.24-.63-.28-1.02Zm-.12-3.14c-.51,.21-1.28,.39-2.3,.53-.58,.08-.99,.18-1.23,.28-.24,.1-.42,.26-.55,.46-.13,.2-.2,.42-.2,.67,0,.38,.14,.69,.43,.94s.7,.38,1.25,.38,1.02-.12,1.45-.36c.42-.24,.73-.56,.93-.97,.15-.32,.23-.79,.23-1.41v-.52Z"/><path d="M697.68,391.87h-1.3v-11.45h1.41v4.09c.59-.74,1.35-1.12,2.27-1.12,.51,0,.99,.1,1.45,.31,.46,.21,.83,.5,1.12,.87,.29,.37,.52,.82,.69,1.35,.17,.53,.25,1.09,.25,1.69,0,1.42-.35,2.52-1.05,3.3-.7,.78-1.55,1.16-2.53,1.16s-1.75-.41-2.3-1.23v1.04Zm-.02-4.21c0,1,.14,1.71,.41,2.16,.44,.72,1.04,1.09,1.8,1.09,.61,0,1.15-.27,1.59-.8,.45-.53,.67-1.33,.67-2.39s-.21-1.88-.64-2.4-.95-.77-1.56-.77-1.15,.27-1.59,.8c-.45,.53-.67,1.31-.67,2.32Z"/><path d="M710.96,389.19l1.45,.18c-.23,.85-.65,1.51-1.27,1.98s-1.41,.7-2.38,.7c-1.21,0-2.18-.37-2.89-1.12-.71-.75-1.07-1.8-1.07-3.14s.36-2.48,1.08-3.25c.72-.77,1.65-1.16,2.8-1.16s2.02,.38,2.72,1.13c.7,.76,1.05,1.82,1.05,3.19,0,.08,0,.21,0,.38h-6.19c.05,.91,.31,1.61,.77,2.09s1.04,.73,1.73,.73c.52,0,.96-.14,1.32-.41,.36-.27,.65-.7,.87-1.3Zm-4.62-2.27h4.63c-.06-.7-.24-1.22-.53-1.57-.45-.54-1.03-.81-1.74-.81-.65,0-1.19,.22-1.63,.65-.44,.43-.68,1.01-.73,1.73Z"/></g><g><path d="M519.75,41.11v-2.41h6.23v5.7c-.61,.59-1.48,1.1-2.63,1.55s-2.31,.67-3.49,.67c-1.5,0-2.8-.31-3.92-.94s-1.95-1.53-2.51-2.7-.84-2.44-.84-3.81c0-1.49,.31-2.82,.94-3.97s1.54-2.05,2.74-2.67c.92-.48,2.06-.71,3.43-.71,1.78,0,3.17,.37,4.17,1.12s1.64,1.78,1.93,3.09l-2.87,.54c-.2-.7-.58-1.26-1.14-1.67s-1.25-.61-2.08-.61c-1.26,0-2.27,.4-3.01,1.2s-1.12,1.99-1.12,3.56c0,1.7,.38,2.97,1.13,3.82s1.75,1.27,2.97,1.27c.61,0,1.21-.12,1.82-.36s1.13-.53,1.57-.86v-1.82h-3.31Z"/><path d="M531.26,46.37h-2.74v-10.37h2.55v1.47c.44-.7,.83-1.16,1.18-1.38s.74-.33,1.19-.33c.62,0,1.23,.17,1.81,.52l-.85,2.39c-.46-.3-.89-.45-1.29-.45s-.71,.11-.98,.32-.48,.59-.63,1.15-.23,1.71-.23,3.48v3.2Z"/><path d="M542.42,43.07l2.73,.46c-.35,1-.91,1.77-1.67,2.29s-1.71,.79-2.85,.79c-1.8,0-3.14-.59-4-1.77-.68-.94-1.03-2.14-1.03-3.57,0-1.72,.45-3.06,1.35-4.04s2.03-1.46,3.41-1.46c1.54,0,2.76,.51,3.65,1.53s1.32,2.58,1.28,4.68h-6.88c.02,.81,.24,1.45,.66,1.9s.95,.68,1.58,.68c.43,0,.79-.12,1.08-.35s.51-.61,.66-1.13Zm.16-2.77c-.02-.79-.22-1.4-.62-1.81s-.87-.62-1.43-.62c-.6,0-1.09,.22-1.48,.65s-.58,1.03-.58,1.78h4.1Z"/><path d="M556.97,46.37h-2.74v-5.29c0-1.12-.06-1.84-.18-2.17s-.31-.58-.57-.77-.58-.27-.95-.27c-.48,0-.9,.13-1.28,.39s-.64,.61-.78,1.04-.21,1.22-.21,2.38v4.7h-2.74v-10.37h2.55v1.52c.91-1.17,2.04-1.76,3.42-1.76,.61,0,1.16,.11,1.66,.33s.88,.5,1.14,.83,.44,.72,.54,1.15,.15,1.04,.15,1.85v6.45Z"/><path d="M558.65,46.37v-2.14l3.89-4.46c.64-.73,1.11-1.25,1.42-1.55-.32,.02-.74,.03-1.26,.04l-3.66,.02v-2.28h8.57v1.94l-3.96,4.57-1.4,1.51c.76-.05,1.23-.07,1.42-.07h4.25v2.41h-9.26Z"/><path d="M575.76,43.07l2.73,.46c-.35,1-.91,1.77-1.67,2.29s-1.71,.79-2.85,.79c-1.8,0-3.14-.59-4-1.77-.68-.94-1.03-2.14-1.03-3.57,0-1.72,.45-3.06,1.35-4.04s2.03-1.46,3.41-1.46c1.54,0,2.76,.51,3.65,1.53s1.32,2.58,1.28,4.68h-6.88c.02,.81,.24,1.45,.66,1.9s.95,.68,1.58,.68c.43,0,.79-.12,1.08-.35s.51-.61,.66-1.13Zm.16-2.77c-.02-.79-.22-1.4-.62-1.81s-.87-.62-1.43-.62c-.6,0-1.09,.22-1.48,.65s-.58,1.03-.58,1.78h4.1Z"/><path d="M590.98,50.58h-1.88c-1-1.5-1.75-3.07-2.28-4.69s-.78-3.19-.78-4.71c0-1.88,.32-3.66,.97-5.34,.56-1.46,1.27-2.8,2.13-4.03h1.88c-.89,1.97-1.51,3.65-1.84,5.03s-.5,2.85-.5,4.4c0,1.07,.1,2.16,.3,3.28s.47,2.18,.82,3.19c.23,.66,.63,1.62,1.2,2.86Z"/><path d="M606.02,46.37h-3.14l-1.25-3.25h-5.72l-1.18,3.25h-3.07l5.58-14.32h3.06l5.73,14.32Zm-5.32-5.66l-1.97-5.31-1.93,5.31h3.91Z"/><path d="M607.42,46.37v-14.32h2.74v5.16c.85-.96,1.85-1.45,3.01-1.45,1.26,0,2.31,.46,3.13,1.37s1.24,2.23,1.24,3.94-.42,3.13-1.26,4.09-1.87,1.44-3.07,1.44c-.59,0-1.18-.15-1.75-.44s-1.07-.73-1.49-1.31v1.52h-2.55Zm2.72-5.41c0,1.07,.17,1.87,.51,2.38,.48,.73,1.11,1.09,1.89,1.09,.61,0,1.12-.26,1.55-.78s.64-1.33,.64-2.45c0-1.19-.21-2.04-.64-2.56s-.98-.79-1.65-.79-1.2,.26-1.64,.77-.65,1.29-.65,2.33Z"/><path d="M619.5,47.06l3.13,.38c.05,.36,.17,.62,.36,.75,.26,.2,.67,.29,1.23,.29,.72,0,1.25-.11,1.61-.32,.24-.14,.42-.37,.55-.69,.08-.23,.13-.65,.13-1.26v-1.51c-.82,1.12-1.86,1.68-3.11,1.68-1.39,0-2.5-.59-3.31-1.77-.64-.93-.96-2.09-.96-3.48,0-1.74,.42-3.07,1.25-3.98s1.88-1.38,3.12-1.38,2.34,.56,3.17,1.69v-1.46h2.57v9.31c0,1.22-.1,2.14-.3,2.74s-.49,1.08-.85,1.43-.85,.62-1.46,.81-1.38,.29-2.31,.29c-1.76,0-3-.3-3.74-.9s-1.1-1.37-1.1-2.29c0-.09,0-.2,0-.33Zm2.45-6.08c0,1.1,.21,1.91,.64,2.42s.95,.77,1.58,.77c.67,0,1.24-.26,1.7-.79s.69-1.3,.69-2.33-.22-1.87-.66-2.39-1-.78-1.68-.78-1.2,.26-1.63,.77-.64,1.29-.64,2.34Z"/><path d="M634.6,46.37h-2.74v-10.37h2.55v1.47c.44-.7,.83-1.16,1.18-1.38s.74-.33,1.19-.33c.62,0,1.23,.17,1.81,.52l-.85,2.39c-.46-.3-.89-.45-1.29-.45s-.71,.11-.98,.32-.48,.59-.63,1.15-.23,1.71-.23,3.48v3.2Z"/><path d="M645.76,43.07l2.73,.46c-.35,1-.91,1.77-1.67,2.29s-1.71,.79-2.85,.79c-1.8,0-3.14-.59-4-1.77-.68-.94-1.03-2.14-1.03-3.57,0-1.72,.45-3.06,1.35-4.04s2.03-1.46,3.41-1.46c1.54,0,2.76,.51,3.65,1.53s1.32,2.58,1.28,4.68h-6.88c.02,.81,.24,1.45,.66,1.9s.95,.68,1.58,.68c.43,0,.79-.12,1.08-.35s.51-.61,.66-1.13Zm.16-2.77c-.02-.79-.22-1.4-.62-1.81s-.87-.62-1.43-.62c-.6,0-1.09,.22-1.48,.65s-.58,1.03-.58,1.78h4.1Z"/><path d="M660.31,46.37h-2.74v-5.29c0-1.12-.06-1.84-.18-2.17s-.31-.58-.57-.77-.58-.27-.95-.27c-.48,0-.9,.13-1.28,.39s-.64,.61-.78,1.04-.21,1.22-.21,2.38v4.7h-2.74v-10.37h2.55v1.52c.91-1.17,2.04-1.76,3.42-1.76,.61,0,1.16,.11,1.66,.33s.88,.5,1.14,.83,.44,.72,.54,1.15,.15,1.04,.15,1.85v6.45Z"/><path d="M661.99,46.37v-2.14l3.89-4.46c.64-.73,1.11-1.25,1.42-1.55-.32,.02-.74,.03-1.26,.04l-3.66,.02v-2.28h8.57v1.94l-3.96,4.57-1.4,1.51c.76-.05,1.23-.07,1.42-.07h4.25v2.41h-9.26Z"/><path d="M679.92,46.37v-1.55c-.38,.55-.87,.99-1.49,1.31s-1.26,.48-1.95,.48-1.32-.15-1.88-.46-.95-.74-1.2-1.29-.37-1.32-.37-2.29v-6.56h2.74v4.77c0,1.46,.05,2.35,.15,2.68s.29,.59,.55,.78,.61,.29,1.02,.29c.47,0,.89-.13,1.26-.39s.62-.58,.76-.96,.21-1.31,.21-2.8v-4.38h2.74v10.37h-2.55Z"/><path d="M694.74,46.37h-2.74v-5.29c0-1.12-.06-1.84-.18-2.17s-.31-.58-.57-.77-.58-.27-.95-.27c-.48,0-.9,.13-1.28,.39s-.64,.61-.78,1.04-.21,1.22-.21,2.38v4.7h-2.74v-10.37h2.55v1.52c.91-1.17,2.04-1.76,3.42-1.76,.61,0,1.16,.11,1.66,.33s.88,.5,1.14,.83,.44,.72,.54,1.15,.15,1.04,.15,1.85v6.45Z"/><path d="M697.27,47.06l3.13,.38c.05,.36,.17,.62,.36,.75,.26,.2,.67,.29,1.23,.29,.72,0,1.25-.11,1.61-.32,.24-.14,.42-.37,.55-.69,.08-.23,.13-.65,.13-1.26v-1.51c-.82,1.12-1.86,1.68-3.11,1.68-1.39,0-2.5-.59-3.31-1.77-.64-.93-.96-2.09-.96-3.48,0-1.74,.42-3.07,1.25-3.98s1.88-1.38,3.12-1.38,2.34,.56,3.17,1.69v-1.46h2.57v9.31c0,1.22-.1,2.14-.3,2.74s-.49,1.08-.85,1.43-.85,.62-1.46,.81-1.38,.29-2.31,.29c-1.76,0-3-.3-3.74-.9s-1.1-1.37-1.1-2.29c0-.09,0-.2,0-.33Zm2.45-6.08c0,1.1,.21,1.91,.64,2.42s.95,.77,1.58,.77c.67,0,1.24-.26,1.7-.79s.69-1.3,.69-2.33-.22-1.87-.66-2.39-1-.78-1.68-.78-1.2,.26-1.63,.77-.64,1.29-.64,2.34Z"/><path d="M714.2,46.37v-2.14l3.89-4.46c.64-.73,1.11-1.25,1.42-1.55-.32,.02-.74,.03-1.26,.04l-3.66,.02v-2.28h8.57v1.94l-3.96,4.57-1.4,1.51c.76-.05,1.23-.07,1.42-.07h4.25v2.41h-9.26Z"/><path d="M732.12,46.37v-1.55c-.38,.55-.87,.99-1.49,1.31s-1.26,.48-1.95,.48-1.32-.15-1.88-.46-.95-.74-1.2-1.29-.37-1.32-.37-2.29v-6.56h2.74v4.77c0,1.46,.05,2.35,.15,2.68s.29,.59,.55,.78,.61,.29,1.02,.29c.47,0,.89-.13,1.26-.39s.62-.58,.76-.96,.21-1.31,.21-2.8v-4.38h2.74v10.37h-2.55Z"/><path d="M740.14,46.37h-2.74v-10.37h2.55v1.47c.44-.7,.83-1.16,1.18-1.38s.74-.33,1.19-.33c.62,0,1.23,.17,1.81,.52l-.85,2.39c-.46-.3-.89-.45-1.29-.45s-.71,.11-.98,.32-.48,.59-.63,1.15-.23,1.71-.23,3.48v3.2Z"/><path d="M750.86,32.06h2.89v7.75c0,1.23,.04,2.03,.11,2.39,.12,.59,.42,1.06,.88,1.41s1.1,.53,1.91,.53,1.44-.17,1.86-.5,.67-.75,.75-1.24,.13-1.3,.13-2.43v-7.92h2.89v7.52c0,1.72-.08,2.93-.23,3.64s-.44,1.31-.86,1.8-.98,.88-1.68,1.17-1.62,.43-2.75,.43c-1.37,0-2.4-.16-3.11-.47s-1.26-.73-1.67-1.23-.68-1.03-.81-1.59c-.19-.82-.28-2.03-.28-3.63v-7.64Z"/><path d="M765.09,36h2.53v1.42c.91-1.1,1.98-1.65,3.23-1.65,.66,0,1.24,.14,1.73,.41s.89,.69,1.2,1.24c.46-.55,.95-.97,1.47-1.24s1.09-.41,1.69-.41c.76,0,1.41,.15,1.93,.46s.92,.76,1.18,1.36c.19,.44,.28,1.16,.28,2.15v6.63h-2.74v-5.93c0-1.03-.09-1.69-.28-1.99-.25-.39-.64-.59-1.17-.59-.38,0-.75,.12-1.08,.35s-.58,.58-.73,1.03-.22,1.17-.22,2.14v4.98h-2.74v-5.68c0-1.01-.05-1.66-.15-1.95s-.25-.51-.45-.65-.48-.21-.83-.21c-.42,0-.8,.11-1.14,.34s-.58,.56-.73,.99-.22,1.14-.22,2.14v5.04h-2.74v-10.37Z"/><path d="M785.02,46.37l-3.28-10.37h2.67l1.94,6.8,1.79-6.8h2.65l1.73,6.8,1.98-6.8h2.71l-3.33,10.37h-2.64l-1.79-6.67-1.76,6.67h-2.67Z"/><path d="M804.64,43.07l2.73,.46c-.35,1-.91,1.77-1.67,2.29s-1.71,.79-2.85,.79c-1.8,0-3.14-.59-4-1.77-.68-.94-1.03-2.14-1.03-3.57,0-1.72,.45-3.06,1.35-4.04s2.03-1.46,3.41-1.46c1.54,0,2.76,.51,3.65,1.53s1.32,2.58,1.28,4.68h-6.88c.02,.81,.24,1.45,.66,1.9s.95,.68,1.58,.68c.43,0,.79-.12,1.08-.35s.51-.61,.66-1.13Zm.16-2.77c-.02-.79-.22-1.4-.62-1.81s-.87-.62-1.43-.62c-.6,0-1.09,.22-1.48,.65s-.58,1.03-.58,1.78h4.1Z"/><path d="M809.76,46.37v-14.32h2.74v14.32h-2.74Z"/><path d="M820.07,36v2.19h-1.88v4.18c0,.85,.02,1.34,.05,1.48s.12,.26,.24,.35,.28,.14,.46,.14c.25,0,.62-.09,1.1-.26l.23,2.13c-.64,.27-1.36,.41-2.17,.41-.5,0-.94-.08-1.34-.25s-.69-.38-.87-.64-.31-.62-.39-1.07c-.06-.32-.09-.96-.09-1.93v-4.52h-1.26v-2.19h1.26v-2.06l2.75-1.6v3.66h1.88Z"/><path d="M821.22,50.58c.54-1.16,.92-2.05,1.14-2.67s.43-1.33,.62-2.14,.33-1.57,.42-2.3,.14-1.47,.14-2.23c0-1.55-.17-3.02-.5-4.4s-.94-3.06-1.84-5.03h1.87c.98,1.4,1.75,2.88,2.29,4.45s.82,3.16,.82,4.78c0,1.36-.21,2.82-.64,4.38-.49,1.74-1.29,3.47-2.41,5.17h-1.89Z"/></g><g><path d="M797.73,281.84c0-1.46,.22-2.68,.65-3.67,.33-.73,.77-1.38,1.33-1.96s1.18-1.01,1.85-1.29c.89-.38,1.92-.57,3.09-.57,2.11,0,3.8,.65,5.06,1.96s1.9,3.13,1.9,5.46-.63,4.12-1.88,5.42-2.94,1.96-5.04,1.96-3.82-.65-5.08-1.95-1.88-3.09-1.88-5.37Zm2.98-.1c0,1.62,.37,2.85,1.12,3.69s1.7,1.25,2.85,1.25,2.1-.42,2.84-1.25,1.11-2.08,1.11-3.74-.36-2.86-1.08-3.67-1.67-1.21-2.87-1.21-2.15,.41-2.88,1.23-1.09,2.05-1.09,3.7Z"/><path d="M820.68,288.91v-1.55c-.38,.55-.87,.99-1.49,1.31s-1.26,.48-1.95,.48-1.32-.15-1.88-.46-.95-.74-1.2-1.29-.37-1.32-.37-2.29v-6.56h2.74v4.77c0,1.46,.05,2.35,.15,2.68s.29,.59,.55,.78,.61,.29,1.02,.29c.47,0,.89-.13,1.26-.39s.62-.58,.76-.96,.21-1.31,.21-2.8v-4.38h2.74v10.37h-2.55Z"/><path d="M830.83,278.54v2.19h-1.88v4.18c0,.85,.02,1.34,.05,1.48s.12,.26,.24,.35,.28,.14,.46,.14c.25,0,.62-.09,1.1-.26l.23,2.13c-.64,.27-1.36,.41-2.17,.41-.5,0-.94-.08-1.34-.25s-.69-.38-.87-.64-.31-.62-.39-1.07c-.06-.32-.09-.96-.09-1.93v-4.52h-1.26v-2.19h1.26v-2.06l2.75-1.6v3.66h1.88Z"/><path d="M832.65,278.54h2.56v1.52c.33-.52,.78-.94,1.35-1.27s1.19-.49,1.88-.49c1.2,0,2.23,.47,3.07,1.42s1.26,2.26,1.26,3.95-.42,3.08-1.27,4.04-1.87,1.44-3.08,1.44c-.57,0-1.09-.11-1.56-.34s-.96-.62-1.47-1.17v5.22h-2.74v-14.32Zm2.71,5.01c0,1.17,.23,2.03,.69,2.58s1.03,.83,1.69,.83,1.17-.26,1.59-.77,.63-1.35,.63-2.51c0-1.09-.22-1.89-.65-2.42s-.98-.79-1.62-.79-1.23,.26-1.67,.78-.66,1.28-.66,2.3Z"/><path d="M851.77,288.91v-1.55c-.38,.55-.87,.99-1.49,1.31s-1.26,.48-1.95,.48-1.32-.15-1.88-.46-.95-.74-1.2-1.29-.37-1.32-.37-2.29v-6.56h2.74v4.77c0,1.46,.05,2.35,.15,2.68s.29,.59,.55,.78,.61,.29,1.02,.29c.47,0,.89-.13,1.26-.39s.62-.58,.76-.96,.21-1.31,.21-2.8v-4.38h2.74v10.37h-2.55Z"/><path d="M861.92,278.54v2.19h-1.88v4.18c0,.85,.02,1.34,.05,1.48s.12,.26,.24,.35,.28,.14,.46,.14c.25,0,.62-.09,1.1-.26l.23,2.13c-.64,.27-1.36,.41-2.17,.41-.5,0-.94-.08-1.34-.25s-.69-.38-.87-.64-.31-.62-.39-1.07c-.06-.32-.09-.96-.09-1.93v-4.52h-1.26v-2.19h1.26v-2.06l2.75-1.6v3.66h1.88Z"/></g></g></svg>