<?xml version="1.0" encoding="UTF-8"?><svg id="maturity" xmlns="http://www.w3.org/2000/svg" viewBox="0 0 988 525"><text transform="translate(185.37 100.68)" style="fill:#1d1d1b; font-family:Arial-BoldMT, Arial; font-size:13px; font-weight:700;"><tspan x="0" y="0" style="letter-spacing:-.08em;">T</tspan><tspan x="6.84" y="0" style="letter-spacing:-.01em;">o</tspan><tspan x="14.63" y="0" style="letter-spacing:0em;">w</tspan><tspan x="24.67" y="0" style="letter-spacing:0em;">a</tspan><tspan x="31.93" y="0" style="letter-spacing:0em;">r</tspan><tspan x="36.95" y="0" style="letter-spacing:0em;">d</tspan><tspan x="44.96" y="0" style="letter-spacing:0em;">s </tspan><tspan x="55.8" y="0" style="letter-spacing:0em;">d</tspan><tspan x="63.84" y="0" style="letter-spacing:-.02em;">e</tspan><tspan x="70.81" y="0" style="letter-spacing:-.02em;">v</tspan><tspan x="77.79" y="0" style="letter-spacing:0em;">e</tspan><tspan x="85" y="0" style="letter-spacing:0em;">lo</tspan><tspan x="96.56" y="0" style="letter-spacing:0em;">p</tspan><tspan x="104.53" y="0" style="letter-spacing:0em;">i</tspan><tspan x="108.09" y="0" style="letter-spacing:0em;">n</tspan><tspan x="116.02" y="0" style="letter-spacing:0em;">g</tspan><tspan x="15.75" y="15.6" style="letter-spacing:0em;">h</tspan><tspan x="23.63" y="15.6" style="letter-spacing:0em;">uman </tspan><tspan x="61.92" y="15.6" style="letter-spacing:0em;">r</tspan><tspan x="66.97" y="15.6" style="letter-spacing:0em;">e</tspan><tspan x="74.23" y="15.6" style="letter-spacing:0em;">s</tspan><tspan x="81.33" y="15.6" style="letter-spacing:0em;">ou</tspan><tspan x="97.17" y="15.6" style="letter-spacing:0em;">r</tspan><tspan x="102.16" y="15.6" style="letter-spacing:0em;">c</tspan><tspan x="109.47" y="15.6" style="letter-spacing:0em;">e</tspan><tspan x="116.73" y="15.6" style="letter-spacing:0em;">s</tspan></text><text transform="translate(406.85 133.3)" style="font-family:ArialMT, Arial; font-size:10px;"><tspan x="0" y="0">Concern</tspan></text><text transform="translate(397.41 148.75)" style="font-family:ArialMT, Arial; font-size:10px;"><tspan x="0" y="0">Commitment</tspan></text><text transform="translate(410.46 164.21)" style="font-family:ArialMT, Arial; font-size:10px;"><tspan x="0" y="0">Morale</tspan></text><text transform="translate(312.46 183.59)" style="font-family:ArialMT, Arial; font-size:10px;"><tspan x="0" y="0">Discussion</tspan></text><text transform="translate(309.12 199.04)" style="font-family:ArialMT, Arial; font-size:10px;"><tspan x="0" y="0">Participation</tspan></text><text transform="translate(313.84 214.5)" style="font-family:ArialMT, Arial; font-size:10px;"><tspan x="0" y="0">Openness</tspan></text><path d="m83.38,42.51c-.7.5-1.22,1.08-1.51,1.34l-.14-.24c-.26.43-1.18,1.15-1.85,1.75-.02.12-.1.38-.17.5-.43.46-2.81,3.19-2.81,4.37,0,.29.12.46.38.46.86,0,2.86-.58,4.3-.79.34-.05.6.1.72.24-1.15.24-2.78.53-3.05,1.01.46.29,1.25.1,1.61-.26,1.27-.24,2.88-.58,4.1-.74l.38.1.58-.07.26.17-1.25.19c-.31.05-.65.14-.43.46l.17.24c-.22.1-2.88.89-4.46,1.39-.26.1-.43.34-.29.5-.5.12-1.27.34-1.82.34-.26,0-.48-.38-.72-.38-.58,0-.72-.6-1.49-.5-.43-.41-1.34-1.94-1.54-2.3-.12-.19-.17-.55-.17-.82v-.65c.38-.34.41-.84.41-1.34l.24.14c.17-.26-.02-.6.1-.86.5-1.01,1.46-2.62,1.78-2.62s-.14.36.19.36c.26,0,.77-1.25,1.03-1.25h.29c-.07-.17-.1-.46-.12-.67h.17c.62-1.51,5.21-4.22,6.05-4.22.29,0,.86.26,1.22.46.34.79,1.01,1.42.84,2.4-.98.24-2.16.72-3,1.32Zm-7.03,2.54l-.34.55.22.17.31-.5-.19-.22Zm.1-.17l.24.14.19-.34c-.19-.07-.31-.02-.43.19Zm.36,3.96l-.17.34.14.19.26-.53h-.24Zm.98-1.56l-.29.46c-.1.17-.36.55-.24.77l.74-1.1-.22-.12Zm1.01-1.37l-.14.24.17.14.19-.24-.22-.14Zm.34,0c.5-.5.5-.6.5-.7-.24,0-.46.24-.72.55l.22.14Zm1.27,7.03l.79-.26c.29.22.02.36-.34.36-.14,0-.31-.02-.46-.1Zm2.71-.82c-.46.26-.91.53-1.32.53-.12,0-.24-.02-.34-.07.46-.19,1.1-.31,1.66-.48v.02Zm-.74-2.33c.96-.17,1.97-.36,2.69-.41-.12.41-.94.55-1.66.55-.43,0-.84-.05-1.03-.14Zm2.62,1.3l-.24-.29.65-.1.31.14-.72.24Z"/><path d="m100.22,48.32c-.5.34-.89.43-1.13.41-.29,0-.36-.05-.41-.12-.43.43.26.79,1.9.14.12-.02.31.05.22.1-.46.22-1.46.74-1.8.74-.55,0-.96.14-1.46.31-1.51.53-3.91,1.44-5.64,2.14-.31.12-.82.6-1.1.62-.29.05-.89.1-1.2.1-.19,0-.34-.12-.41-.26h-.55c-.36-.36-.77-1.1-1.08-1.1h-.29c.41-4.22,4.73-10.71,6.91-13.51v-.38c1.34,0,2.04,1.08,2.04,2.23,0,.29-1.22,3.02-1.66,3.82-.29.5-1.06,1.22-1.46,1.8-.22.31-.36.94-.55,1.27-.26.48-1.08.89-.79,1.58,1.63-.5,1.94-.55,2.14-.6.26-.07.58-.14.89-.14.38,0,.74.12.94.46.12-.12,1.08-.5,1.2-.5.34,0,.36.12.7.12.31,0,1.56-.41,2.38-.65.02.05.12.1.29.12v.02c-.74.24-1.73.48-2.35.86l.24.14c.74-.26,2.26-.94,3.1-1.13.29.1.62.31.65.36.36-.14.98-.48,1.01-.31.07.34-1.46,1.06-2.69,1.37Zm-8.74-1.63c-.17.43-.46.84-.14.98l.43-.91-.29-.07Zm6.29,2.52c-1.27.24-3.94,1.22-5.59,2.04l.02.1,5.95-1.97-.38-.17Zm-4.9-4.37c-.24,0-.34.29-.34.43h.34v-.43Zm3.07,3.46l.53-.29c-.12-.07-.38-.1-.67.1l.14.19Zm4.61-1.42c-.07.02-.26-.1-.19-.12l.48-.14c.26-.07.24.07.12.12l-.41.14Zm.62,1.8c-.17.07-.26.02-.34-.07v-.02c1.42-.62,1.58-.72,1.78-.58l-1.44.67Zm.91-1.73c-.12-.1-.24-.17-.36-.22.1-.07.94-.36.94-.24,0,.14-.41.34-.58.46Z"/><path d="m113.8,48.15c-.19.41-.12,1.46-.62,1.94.34.19.14.79-.17,1.08.14.36.24.62-.26,1.3-.02.1.22-.02.26-.07-.05.82-.24,1.46-.48,2.18-.74,0-1.42-.72-1.8-.58.02-.48-.05-.67-.38-.67l.02-.34c.12,0,.21-.07.24-.24-.12,0-.22-.07-.22-.24.05-.55.34-1.25.48-1.97.17,0,.17.31.14.67.17,0,.43-.98.48-1.54l-.29-.12c-.02.38-.02.91-.31.79.07-.34.14-1.18.22-1.46l.41.5c-.02-.29.1-.36.05-.72-1.37-.05-4.99,1.9-6.07,2.64l-.12.31.1.29c-.41.84-.77,1.82-1.15,2.33l-1.51-.65c-.07-.74-1.1-1.06-.84-1.68h-.38c.53-3.62,4.54-7.51,6.79-10.54,1.13-1.49,2.26-2.5,3.19-3.24.17-.14.84.1.89-.36.31.1.98.38,1.34.67l-.43.14c-.02.41.58-.05.7.05.89.77.38,2.06.84,2.76.02.12-.02,2.18-.38,2.4.05.05.07.05.14.1-.14.53-.34,1.22-.38,1.9-.02.29.89,1.1.82,2.16-.43.05-.89.14-1.3.19Zm-7.61,1.92c-.12.17-.17.26-.26.43l1.82-.96c-.31-.24-1.1.29-1.56.53Zm1.03-1.01c-.19.07-.34.1-.5.17l-.29.41c.1-.05.65-.24.79-.58Zm5.86-8.21c-.46.02-1.56,1.37-2.59,2.74l-.12-.12c.07-.19.14-.34.05-.43-.38.43-.55.65-.34,1.1-.36.48-.7.91-1.01,1.3-.43.55-1.08,1.58-1.63,2.38.48-.29.84-.79,1.8-1.2.84-.36,1.34-.46,2.21-.7.07-.62.31-1.08.41-1.42l.41.36c.29-.74.62-2.69.89-3.77l-.07-.24Zm-4.2,8.11v-.02c-.53.02-.74.07-.84.46.21-.12.58-.26.84-.43Zm2.11,2.42l-.1.31h.14l.1-.38-.14.07Zm.74-5.78c-.1.29.07.29.24.26l.02-.26h-.26Zm.22-.38l-.1-.02-.1.26h.22l-.02-.24Zm.7-2.95h-.22l.19-.65.22-.1-.19.74Z"/><path d="m132.53,39.15c.26-.17.74-.29,1.25-.31.86-.02,1.54.1,1.94.38l-.48.34.05.1c.17,0,.62-.14.77-.24l.67.72c-1.25.58-3.48,2.23-4.7,3.91-.14.19-.24-.1-.38,0-.05.86-.55,1.32-1.13,2.23-.12.22-.07.53-.22.86,0,.14-.36.29-.43.5-.6,1.85-1.42,3.77-2.18,5.74l-1.08-.5-.14.34c-1.54-.41-1.68-1.01-1.9-2.62-.07-.62.12-1.7-.05-2.23-.58-1.68-.02-2.4-.17-3.62l-.12-.94c-.74.24-1.58.96-2.21,2.09l.07.38c-1.2,2.26-2.28,5.38-3.36,6.82h-.67c-.7,0-1.08-1.61-1.37-1.75l-.14-1.06c-.12-.74.1-1.01.26-1.46,1.71-4.13,4.44-6.62,6.34-8.57.72.26,2.69,1.49,3.02,2.38.29.72.58,2.23.82,3.22,1.63-2.83,4.03-6.36,4.56-6.55l.5-.07c-1.49,1.46-2.54,3.19-3.12,4.03-.22.36-.31.5-.26.53l.14.1c.7-1.08,2.3-3.36,3.72-4.73Zm-9.5,1.68l-.53.55c.29.24.55-.24.72-.41l-.19-.14Zm7.15,7.63l-.22-.14c.02-.34.05-.79.34-.67l-.12.82Zm1.9-5.57c-.19.29-.58.79-.34.91l.5-.77c.05-.07-.12-.22-.17-.14Zm-.12-2.54l.41-.53-.19-.1c-.12.1-.26.26-.41.5.02.05.1.14.19.12Zm.74,1.7l-.48.62c.14-.02.19.02.21.12l.43-.62s-.05-.26-.17-.12Zm1.82-1.99l.05.22c.24-.17.46-.19.41-.55l-.46.34Z"/><path d="m76.16,69.49l-1.76.32c-.06-.35-.19-.62-.4-.79s-.48-.27-.82-.27c-.44,0-.8.15-1.06.46-.26.31-.4.82-.4,1.54,0,.8.13,1.36.4,1.69.27.33.63.5,1.08.5.34,0,.62-.1.83-.29.22-.19.37-.52.46-.99l1.75.3c-.18.8-.53,1.41-1.05,1.82-.52.41-1.21.62-2.08.62-.99,0-1.77-.31-2.36-.93-.59-.62-.88-1.48-.88-2.58s.29-1.98.88-2.6c.59-.62,1.38-.93,2.39-.93.82,0,1.47.18,1.96.53.48.35.83.89,1.04,1.62Z" style="fill:#0333ff;"/><path d="m77.12,70.78c0-.59.15-1.17.44-1.72s.71-.98,1.24-1.27,1.13-.44,1.79-.44c1.02,0,1.86.33,2.51.99.65.66.98,1.5.98,2.51s-.33,1.87-.99,2.54c-.66.67-1.49,1.01-2.49,1.01-.62,0-1.21-.14-1.77-.42-.56-.28-.99-.69-1.28-1.23-.29-.54-.44-1.2-.44-1.97Zm1.83.1c0,.67.16,1.18.48,1.54s.71.53,1.17.53.86-.18,1.17-.53c.31-.36.47-.87.47-1.55s-.16-1.17-.47-1.52c-.32-.36-.71-.53-1.17-.53s-.86.18-1.17.53-.48.87-.48,1.54Z" style="fill:#0333ff;"/><path d="m85.46,74.24v-9.31h1.78v9.31h-1.78Z" style="fill:#0333ff;"/><path d="m89.02,74.24v-9.31h1.78v9.31h-1.78Z" style="fill:#0333ff;"/><path d="m93.97,69.56l-1.62-.29c.18-.65.5-1.13.94-1.45s1.1-.47,1.98-.47c.79,0,1.39.09,1.78.28.39.19.66.43.82.72.16.29.24.82.24,1.6l-.02,2.08c0,.59.03,1.03.09,1.31.06.28.16.58.32.9h-1.76c-.05-.12-.1-.29-.17-.53-.03-.11-.05-.18-.06-.21-.3.3-.63.52-.98.67-.35.15-.72.22-1.11.22-.69,0-1.24-.19-1.64-.56-.4-.38-.6-.85-.6-1.43,0-.38.09-.72.27-1.02.18-.3.44-.53.76-.69.33-.16.8-.3,1.42-.42.83-.16,1.41-.3,1.73-.44v-.18c0-.34-.08-.59-.25-.73-.17-.15-.49-.22-.96-.22-.32,0-.56.06-.74.19-.18.12-.32.34-.43.66Zm2.39,1.45c-.23.08-.59.17-1.09.27s-.82.21-.97.31c-.23.17-.35.37-.35.63s.09.47.28.65.42.27.71.27c.32,0,.63-.11.92-.32.22-.16.36-.36.43-.59.05-.15.07-.44.07-.87v-.36Z" style="fill:#0333ff;"/><path d="m99.82,74.24v-9.31h1.78v3.35c.55-.63,1.2-.94,1.96-.94.82,0,1.5.3,2.04.89.54.59.81,1.45.81,2.56s-.27,2.04-.82,2.66c-.55.62-1.21.93-2,.93-.38,0-.76-.1-1.14-.29-.38-.19-.7-.48-.97-.85v.99h-1.66Zm1.77-3.52c0,.7.11,1.21.33,1.55.31.47.72.71,1.23.71.39,0,.73-.17,1.01-.5.28-.34.42-.87.42-1.59,0-.77-.14-1.33-.42-1.67-.28-.34-.64-.51-1.07-.51s-.78.17-1.07.5c-.28.33-.42.84-.42,1.51Z" style="fill:#0333ff;"/><path d="m107.46,70.78c0-.59.15-1.17.44-1.72.29-.55.71-.98,1.24-1.27s1.13-.44,1.79-.44c1.02,0,1.86.33,2.51.99.65.66.98,1.5.98,2.51s-.33,1.87-.99,2.54c-.66.67-1.49,1.01-2.48,1.01-.62,0-1.21-.14-1.77-.42-.56-.28-.99-.69-1.28-1.23-.29-.54-.44-1.2-.44-1.97Zm1.83.1c0,.67.16,1.18.48,1.54.32.36.71.53,1.17.53s.86-.18,1.17-.53c.32-.36.47-.87.47-1.55s-.16-1.17-.47-1.52c-.31-.36-.71-.53-1.17-.53s-.86.18-1.17.53c-.32.36-.48.87-.48,1.54Z" style="fill:#0333ff;"/><path d="m117.54,74.24h-1.78v-6.74h1.66v.96c.28-.45.54-.75.76-.9.23-.14.48-.22.77-.22.41,0,.8.11,1.17.34l-.55,1.56c-.3-.19-.58-.29-.84-.29s-.46.07-.63.21c-.17.14-.31.39-.41.75s-.15,1.11-.15,2.26v2.08Z" style="fill:#0333ff;"/><path d="m122.24,69.56l-1.62-.29c.18-.65.5-1.13.94-1.45s1.1-.47,1.98-.47c.8,0,1.39.09,1.78.28.39.19.66.43.82.72.16.29.24.82.24,1.6l-.02,2.08c0,.59.03,1.03.09,1.31.06.28.16.58.32.9h-1.76c-.05-.12-.1-.29-.17-.53-.03-.11-.05-.18-.06-.21-.3.3-.63.52-.98.67-.35.15-.72.22-1.11.22-.69,0-1.24-.19-1.64-.56-.4-.38-.6-.85-.6-1.43,0-.38.09-.72.27-1.02.18-.3.44-.53.76-.69.33-.16.8-.3,1.42-.42.83-.16,1.41-.3,1.73-.44v-.18c0-.34-.08-.59-.25-.73-.17-.15-.49-.22-.96-.22-.32,0-.57.06-.74.19-.18.12-.32.34-.43.66Zm2.39,1.45c-.23.08-.59.17-1.08.27s-.82.21-.97.31c-.23.17-.35.37-.35.63s.09.47.28.65.42.27.71.27c.32,0,.63-.11.92-.32.21-.16.36-.36.42-.59.05-.15.07-.44.07-.87v-.36Z" style="fill:#0333ff;"/><path d="m131.23,67.5v1.42h-1.22v2.72c0,.55.01.87.04.96.02.09.08.17.16.23.08.06.18.09.3.09.16,0,.4-.06.72-.17l.15,1.38c-.41.18-.88.27-1.41.27-.32,0-.61-.05-.87-.16-.26-.11-.45-.25-.57-.42-.12-.17-.2-.4-.25-.69-.04-.21-.06-.63-.06-1.26v-2.94h-.82v-1.42h.82v-1.34l1.79-1.04v2.38h1.22Z" style="fill:#0333ff;"/><path d="m136.44,72.1l1.78.3c-.23.65-.59,1.15-1.08,1.49-.49.34-1.11.51-1.85.51-1.17,0-2.04-.38-2.6-1.15-.45-.61-.67-1.39-.67-2.32,0-1.12.29-1.99.88-2.62.58-.63,1.32-.95,2.21-.95,1,0,1.79.33,2.38.99.58.66.86,1.68.83,3.04h-4.47c.01.53.16.94.43,1.23.27.29.62.44,1.03.44.28,0,.51-.08.71-.23.19-.15.33-.4.43-.74Zm.1-1.8c-.01-.52-.15-.91-.4-1.18-.25-.27-.56-.4-.93-.4-.39,0-.71.14-.96.43s-.38.67-.37,1.16h2.67Z" style="fill:#0333ff;"/><line x1="324.41" y1="113.94" x2="611.95" y2="401.48" style="fill:none; stroke:#1d1d1b; stroke-miterlimit:10;"/><polygon points="321.91 118.5 319.33 108.87 328.97 111.45 321.91 118.5" style="fill:#1d1d1b;"/><polygon points="607.39 403.98 617.03 406.56 614.45 396.93 607.39 403.98" style="fill:#1d1d1b;"/></svg>