<?xml version="1.0" encoding="UTF-8"?><svg id="maturity" xmlns="http://www.w3.org/2000/svg" viewBox="0 0 988 475"><line x1="403.21" y1="75" x2="403.21" y2="73" style="fill:none; stroke:#1d1d1b; stroke-miterlimit:10;"/><line x1="403.21" y1="69.29" x2="403.21" y2="48.86" style="fill:none; stroke:#1d1d1b; stroke-dasharray:0 0 3.71 3.71; stroke-miterlimit:10;"/><polyline points="403.21 47 403.21 45 405.21 45" style="fill:none; stroke:#1d1d1b; stroke-miterlimit:10;"/><line x1="409.18" y1="45" x2="899.23" y2="45" style="fill:none; stroke:#1d1d1b; stroke-dasharray:0 0 3.97 3.97; stroke-miterlimit:10;"/><polyline points="901.21 45 903.21 45 903.21 47" style="fill:none; stroke:#1d1d1b; stroke-miterlimit:10;"/><line x1="903.21" y1="50.96" x2="903.21" y2="366.02" style="fill:none; stroke:#1d1d1b; stroke-dasharray:0 0 3.96 3.96; stroke-miterlimit:10;"/><polyline points="903.21 368 903.21 370 901.21 370" style="fill:none; stroke:#1d1d1b; stroke-miterlimit:10;"/><line x1="897.5" y1="370" x2="877.07" y2="370" style="fill:none; stroke:#1d1d1b; stroke-dasharray:0 0 3.71 3.71; stroke-miterlimit:10;"/><line x1="875.21" y1="370" x2="873.21" y2="370" style="fill:none; stroke:#1d1d1b; stroke-miterlimit:10;"/><line x1="373.21" y1="105" x2="373.21" y2="103" style="fill:none; stroke:#1d1d1b; stroke-miterlimit:10;"/><line x1="373.21" y1="99.29" x2="373.21" y2="78.86" style="fill:none; stroke:#1d1d1b; stroke-dasharray:0 0 3.71 3.71; stroke-miterlimit:10;"/><polyline points="373.21 77 373.21 75 375.21 75" style="fill:none; stroke:#1d1d1b; stroke-miterlimit:10;"/><line x1="379.18" y1="75" x2="869.23" y2="75" style="fill:none; stroke:#1d1d1b; stroke-dasharray:0 0 3.97 3.97; stroke-miterlimit:10;"/><polyline points="871.21 75 873.21 75 873.21 77" style="fill:none; stroke:#1d1d1b; stroke-miterlimit:10;"/><line x1="873.21" y1="80.96" x2="873.21" y2="396.02" style="fill:none; stroke:#1d1d1b; stroke-dasharray:0 0 3.96 3.96; stroke-miterlimit:10;"/><polyline points="873.21 398 873.21 400 871.21 400" style="fill:none; stroke:#1d1d1b; stroke-miterlimit:10;"/><line x1="867.5" y1="400" x2="847.07" y2="400" style="fill:none; stroke:#1d1d1b; stroke-dasharray:0 0 3.71 3.71; stroke-miterlimit:10;"/><line x1="845.21" y1="400" x2="843.21" y2="400" style="fill:none; stroke:#1d1d1b; stroke-miterlimit:10;"/><rect x="343.21" y="105" width="500" height="325" style="fill:#fff; stroke:#0333ff; stroke-miterlimit:10; stroke-width:2px;"/><rect x="343.21" y="105" width="500" height="325" style="fill:#fff; stroke:#0333ff; stroke-miterlimit:10; stroke-width:2px;"/><circle cx="671.59" cy="267.5" r="75" style="fill:none; stroke:#1d1d1b; stroke-miterlimit:10;"/><text transform="translate(641.17 270.75)" style="fill:#1d1d1b; font-family:Arial-BoldMT, Arial; font-size:15px; font-weight:700;"><tspan x="0" y="0">Platform</tspan></text><circle cx="427.33" cy="167.12" r="37.5" style="fill:none; stroke:#000; stroke-miterlimit:10;"/><text transform="translate(414.21 170.37)" style="fill:#1d1d1b; font-family:Arial-BoldMT, Arial; font-size:13.5px; font-weight:700;"><tspan x="0" y="0">App</tspan></text><circle cx="427.33" cy="267.5" r="37.5" style="fill:none; stroke:#000; stroke-miterlimit:10;"/><text transform="translate(414.21 270.75)" style="fill:#1d1d1b; font-family:Arial-BoldMT, Arial; font-size:13.5px; font-weight:700;"><tspan x="0" y="0">App</tspan></text><circle cx="427.33" cy="367.88" r="37.5" style="fill:none; stroke:#000; stroke-miterlimit:10;"/><text transform="translate(414.21 371.13)" style="fill:#1d1d1b; font-family:Arial-BoldMT, Arial; font-size:13.5px; font-weight:700;"><tspan x="0" y="0">App</tspan></text><line x1="464.83" y1="167.12" x2="616.38" y2="216.75" style="fill:#0333ff;"/><line x1="468.24" y1="168.24" x2="612.97" y2="215.63" style="fill:none; stroke:#1d1d1b; stroke-miterlimit:10; stroke-width:.5px;"/><polygon points="468.16 170.84 464.83 167.12 469.71 166.1 468.16 170.84" style="fill:#1d1d1b;"/><polygon points="611.5 217.77 616.38 216.75 613.05 213.03 611.5 217.77" style="fill:#1d1d1b;"/><line x1="464.83" y1="367.31" x2="616.38" y2="317.69" style="fill:#0333ff;"/><line x1="468.24" y1="366.2" x2="612.97" y2="318.8" style="fill:none; stroke:#1d1d1b; stroke-miterlimit:10; stroke-width:.5px;"/><polygon points="469.71 368.34 464.83 367.31 468.16 363.6 469.71 368.34" style="fill:#1d1d1b;"/><polygon points="613.05 321.4 616.38 317.69 611.5 316.66 613.05 321.4" style="fill:#1d1d1b;"/><line x1="468.42" y1="267.5" x2="593.01" y2="267.5" style="fill:none; stroke:#1d1d1b; stroke-miterlimit:10; stroke-width:.5px;"/><polygon points="469.15 269.99 464.83 267.5 469.15 265.01 469.15 269.99" style="fill:#1d1d1b;"/><polygon points="592.28 269.99 596.59 267.5 592.28 265.01 592.28 269.99" style="fill:#1d1d1b;"/><rect x="546.59" y="365.38" width="250" height="40" style="fill:none; stroke:#1d1d1b; stroke-miterlimit:10;"/><text transform="translate(600.22 390.32)" style="fill:#1d1d1b; font-family:Arial-BoldMT, Arial; font-size:15px; font-weight:700;"><tspan x="0" y="0">Shared infrastructure</tspan></text><text transform="translate(534.81 173.5)" style="fill:#1d1d1b; font-family:ArialMT, Arial; font-size:12px;"><tspan x="0" y="0">Interfaces</tspan></text><text transform="translate(725.44 136.79)" style="fill:#0333ff; font-family:Arial-BoldMT, Arial; font-size:18px; font-weight:700;"><tspan x="0" y="0">Ecosystem</tspan></text><text transform="translate(711.99 96.33)" style="fill:#1d1d1b; font-family:ArialMT, Arial; font-size:14px;"><tspan x="0" y="0">Competing ecosystem</tspan></text><text transform="translate(741.99 63.98)" style="fill:#1d1d1b; font-family:ArialMT, Arial; font-size:14px;"><tspan x="0" y="0">Competing ecosystem</tspan></text><circle cx="75.34" cy="271.51" r="17.9" style="fill:#1d1d1b;"/><circle cx="189.34" cy="229.79" r="17.9" style="fill:#1d1d1b;"/><circle cx="93.24" cy="325.02" r="17.9" style="fill:#1d1d1b;"/><circle cx="149.8" cy="381.41" r="17.9" style="fill:#1d1d1b;"/><circle cx="149.8" cy="299.93" r="17.9" style="fill:#1d1d1b;"/><circle cx="221.03" cy="329.19" r="17.9" style="fill:#1d1d1b;"/><text transform="translate(37.76 207.5)" style="fill:#1d1d1b; font-family:Arial-BoldMT, Arial; font-size:16px; font-weight:700;"><tspan x="0" y="0">End-users</tspan></text><text transform="translate(200.35 63.98)" style="fill:#1d1d1b; font-family:Arial-BoldMT, Arial; font-size:16px; font-weight:700;"><tspan x="0" y="0">Environment</tspan></text></svg>