<?xml version="1.0" encoding="UTF-8"?>
<svg id="Ebene_1" data-name="Ebene 1" xmlns="http://www.w3.org/2000/svg" viewBox="0 0 988 525">
  <defs>
    <style>
      .cls-1, .cls-2 {
        fill: #fff;
      }

      .cls-1, .cls-2, .cls-3, .cls-4 {
        stroke: #000;
      }

      .cls-1, .cls-4 {
        stroke-miterlimit: 10;
      }

      .cls-5 {
        stroke-width: 0px;
      }

      .cls-5, .cls-6, .cls-7 {
        fill: #000;
      }

      .cls-3, .cls-4 {
        fill: none;
      }

      .cls-6 {
        font-family: Arial-BoldMT, Arial;
        font-size: 24px;
        font-weight: 700;
      }

      .cls-7 {
        font-family: ArialMT, Arial;
        font-size: 18px;
      }
    </style>
  </defs>
  <rect class="cls-1" x="260.32" y="62.5" width="354.37" height="400" transform="translate(875.02 525) rotate(-180)"/>
  <g>
    <rect class="cls-4" x="56.09" y="62.5" width="75" height="400" transform="translate(187.18 525) rotate(180)"/>
    <text class="cls-6" transform="translate(103.51 335.84) rotate(-90)"><tspan x="0" y="0">Environment</tspan></text>
  </g>
  <g>
    <rect class="cls-3" x="743.93" y="187.5" width="150" height="150"/>
    <g>
      <path class="cls-5" d="M806.01,250.39c0-1.75.26-3.22.79-4.41.39-.88.92-1.66,1.6-2.36s1.42-1.21,2.22-1.55c1.07-.45,2.3-.68,3.7-.68,2.53,0,4.56.79,6.08,2.36s2.28,3.75,2.28,6.55-.75,4.94-2.26,6.51-3.52,2.35-6.05,2.35-4.59-.78-6.09-2.34-2.26-3.71-2.26-6.44ZM809.58,250.28c0,1.95.45,3.42,1.35,4.42s2.04,1.51,3.42,1.51,2.52-.5,3.4-1.49,1.33-2.49,1.33-4.48-.43-3.44-1.29-4.41-2.01-1.45-3.44-1.45-2.58.49-3.46,1.47-1.31,2.46-1.31,4.44Z"/>
      <path class="cls-5" d="M831.06,246.43v2.62h-2.25v5.02c0,1.02.02,1.61.06,1.78s.14.31.29.42.34.16.56.16c.3,0,.75-.11,1.32-.32l.28,2.55c-.77.33-1.63.49-2.6.49-.59,0-1.13-.1-1.61-.3s-.83-.46-1.05-.77-.38-.74-.46-1.28c-.07-.38-.11-1.16-.11-2.32v-5.43h-1.51v-2.62h1.51v-2.47l3.3-1.92v4.39h2.25Z"/>
      <path class="cls-5" d="M836.63,241.7v6.32c1.06-1.24,2.33-1.86,3.81-1.86.76,0,1.44.14,2.05.42s1.07.64,1.38,1.08.52.92.63,1.45.17,1.36.17,2.47v7.3h-3.29v-6.57c0-1.3-.06-2.13-.19-2.48s-.35-.63-.66-.84-.71-.31-1.19-.31c-.55,0-1.04.13-1.46.4s-.74.67-.94,1.2-.3,1.33-.3,2.37v6.23h-3.29v-17.18h3.29Z"/>
      <path class="cls-5" d="M855.21,254.92l3.28.55c-.42,1.2-1.09,2.12-2,2.75s-2.05.94-3.42.94c-2.16,0-3.77-.71-4.8-2.12-.82-1.13-1.23-2.56-1.23-4.29,0-2.06.54-3.68,1.62-4.85s2.44-1.75,4.09-1.75c1.85,0,3.31.61,4.38,1.83s1.58,3.1,1.54,5.62h-8.25c.02.98.29,1.74.8,2.28s1.14.81,1.9.81c.52,0,.95-.14,1.3-.42s.62-.73.8-1.36ZM855.4,251.59c-.02-.95-.27-1.68-.74-2.17s-1.04-.74-1.71-.74c-.72,0-1.31.26-1.78.79s-.7,1.23-.69,2.13h4.92Z"/>
      <path class="cls-5" d="M864.51,258.88h-3.29v-12.45h3.06v1.77c.52-.84.99-1.39,1.41-1.65s.89-.4,1.42-.4c.75,0,1.47.21,2.17.62l-1.02,2.87c-.55-.36-1.07-.54-1.55-.54s-.85.13-1.17.38-.57.71-.76,1.38-.28,2.05-.28,4.17v3.84Z"/>
      <path class="cls-5" d="M804.87,287.68h-3.77l-1.5-3.9h-6.87l-1.42,3.9h-3.68l6.69-17.18h3.67l6.88,17.18ZM798.48,280.88l-2.37-6.38-2.32,6.38h4.69Z"/>
      <path class="cls-5" d="M806.38,288.5l3.76.46c.06.44.21.74.43.9.31.23.8.35,1.48.35.86,0,1.5-.13,1.93-.39.29-.17.51-.45.66-.83.1-.27.15-.78.15-1.51v-1.82c-.98,1.34-2.23,2.02-3.73,2.02-1.67,0-3-.71-3.97-2.12-.77-1.12-1.15-2.51-1.15-4.17,0-2.09.5-3.68,1.51-4.78s2.25-1.65,3.74-1.65,2.81.68,3.81,2.03v-1.75h3.08v11.17c0,1.47-.12,2.57-.36,3.29s-.58,1.3-1.02,1.71-1.02.74-1.75.97-1.65.35-2.77.35c-2.11,0-3.61-.36-4.49-1.08s-1.32-1.64-1.32-2.75c0-.11,0-.24.01-.4ZM809.32,281.2c0,1.32.26,2.29.77,2.9s1.14.92,1.89.92c.8,0,1.48-.31,2.04-.94s.83-1.56.83-2.79-.27-2.25-.8-2.87-1.2-.94-2.02-.94-1.44.31-1.95.92-.77,1.55-.77,2.81Z"/>
      <path class="cls-5" d="M828.55,283.72l3.28.55c-.42,1.2-1.09,2.12-2,2.75s-2.05.94-3.42.94c-2.16,0-3.77-.71-4.8-2.12-.82-1.13-1.23-2.56-1.23-4.29,0-2.06.54-3.68,1.62-4.85s2.44-1.75,4.09-1.75c1.85,0,3.31.61,4.38,1.83s1.58,3.1,1.54,5.62h-8.25c.02.98.29,1.74.8,2.28s1.14.81,1.9.81c.52,0,.95-.14,1.3-.42s.62-.73.8-1.36ZM828.74,280.39c-.02-.95-.27-1.68-.74-2.17s-1.04-.74-1.71-.74c-.72,0-1.31.26-1.78.79s-.7,1.23-.69,2.13h4.92Z"/>
      <path class="cls-5" d="M846.02,287.68h-3.29v-6.35c0-1.34-.07-2.21-.21-2.61s-.37-.7-.69-.92-.7-.33-1.14-.33c-.57,0-1.08.16-1.54.47s-.76.73-.93,1.24-.25,1.47-.25,2.86v5.64h-3.29v-12.45h3.06v1.83c1.09-1.41,2.45-2.11,4.1-2.11.73,0,1.39.13,1.99.39s1.06.6,1.37,1,.52.87.64,1.38.18,1.25.18,2.21v7.73Z"/>
      <path class="cls-5" d="M855.06,275.23v2.62h-2.25v5.02c0,1.02.02,1.61.06,1.78s.14.31.29.42.34.16.56.16c.3,0,.75-.11,1.32-.32l.28,2.55c-.77.33-1.63.49-2.6.49-.59,0-1.13-.1-1.61-.3s-.83-.46-1.05-.77-.38-.74-.46-1.28c-.07-.38-.11-1.16-.11-2.32v-5.43h-1.51v-2.62h1.51v-2.47l3.3-1.92v4.39h2.25Z"/>
      <path class="cls-5" d="M856.19,284.13l3.3-.5c.14.64.43,1.13.86,1.46s1.03.5,1.8.5c.85,0,1.49-.16,1.92-.47.29-.22.43-.51.43-.88,0-.25-.08-.46-.23-.62-.16-.16-.53-.3-1.1-.43-2.66-.59-4.34-1.12-5.05-1.61-.98-.67-1.48-1.61-1.48-2.8,0-1.08.43-1.98,1.28-2.72s2.17-1.1,3.96-1.1,2.97.28,3.8.83,1.4,1.38,1.71,2.46l-3.11.57c-.13-.48-.38-.86-.76-1.11s-.9-.39-1.59-.39c-.87,0-1.49.12-1.86.36-.25.17-.38.39-.38.67,0,.23.11.43.33.6.3.22,1.32.53,3.08.93s2.98.89,3.67,1.46c.69.59,1.03,1.4,1.03,2.45,0,1.14-.48,2.12-1.43,2.94s-2.36,1.23-4.23,1.23c-1.7,0-3.04-.34-4.03-1.03s-1.63-1.62-1.94-2.8Z"/>
    </g>
  </g>
  <g>
    <line class="cls-4" x1="318.51" y1="412.5" x2="110.68" y2="412.5"/>
    <polygon class="cls-5" points="112.14 407.51 103.51 412.5 112.14 417.49 112.14 407.51"/>
  </g>
  <g>
    <line class="cls-4" x1="103.51" y1="112.5" x2="311.33" y2="112.5"/>
    <polygon class="cls-5" points="309.87 117.49 318.51 112.5 309.87 107.51 309.87 117.49"/>
  </g>
  <g>
    <line class="cls-4" x1="564.89" y1="258.88" x2="765.54" y2="258.88"/>
    <polygon class="cls-5" points="566.35 263.86 557.72 258.88 566.35 253.89 566.35 263.86"/>
    <polygon class="cls-5" points="764.08 263.86 772.72 258.88 764.08 253.89 764.08 263.86"/>
  </g>
  <text class="cls-7" transform="translate(186.99 141.43)"><tspan x="0" y="0">sense</tspan></text>
  <text class="cls-7" transform="translate(199 442.22)"><tspan x="0" y="0">act</tspan></text>
  <rect class="cls-2" x="310.32" y="187.5" width="150" height="150" transform="translate(770.65 525) rotate(-180)"/>
  <text class="cls-6" transform="translate(509.69 117.95)"><tspan x="0" y="0">Agent</tspan></text>
  <g>
    <path class="cls-5" d="M348.48,258.88v-12.88h1.71v12.88h-1.71Z"/>
    <path class="cls-5" d="M352.99,258.88v-9.33h1.42v1.33c.69-1.03,1.68-1.54,2.97-1.54.56,0,1.08.1,1.55.3s.82.47,1.06.8.4.72.49,1.17c.06.29.09.81.09,1.54v5.74h-1.58v-5.68c0-.64-.06-1.13-.18-1.45s-.34-.57-.65-.76-.68-.29-1.1-.29c-.67,0-1.26.21-1.74.64s-.73,1.24-.73,2.43v5.1h-1.58Z"/>
    <path class="cls-5" d="M366.45,257.46l.23,1.4c-.45.09-.84.14-1.2.14-.57,0-1.02-.09-1.34-.27s-.54-.42-.67-.72-.19-.92-.19-1.87v-5.37h-1.16v-1.23h1.16v-2.31l1.57-.95v3.26h1.59v1.23h-1.59v5.46c0,.45.03.74.08.87s.15.23.27.31.31.11.54.11c.18,0,.41-.02.69-.06Z"/>
    <path class="cls-5" d="M374.39,255.87l1.63.2c-.26.96-.74,1.7-1.43,2.22s-1.59.79-2.67.79c-1.37,0-2.45-.42-3.25-1.26s-1.2-2.02-1.2-3.54.4-2.79,1.21-3.66,1.86-1.3,3.15-1.3,2.27.42,3.06,1.27,1.19,2.04,1.19,3.59c0,.09,0,.23,0,.42h-6.96c.06,1.03.35,1.81.87,2.36s1.17.82,1.95.82c.58,0,1.08-.15,1.49-.46s.74-.79.98-1.46ZM369.19,253.31h5.21c-.07-.79-.27-1.37-.6-1.77-.5-.61-1.16-.91-1.96-.91-.73,0-1.34.24-1.83.73s-.77,1.14-.82,1.95Z"/>
    <path class="cls-5" d="M377.97,258.88v-12.88h1.58v12.88h-1.58Z"/>
    <path class="cls-5" d="M381.97,258.88v-12.88h1.58v12.88h-1.58Z"/>
    <path class="cls-5" d="M386.01,247.81v-1.82h1.58v1.82h-1.58ZM386.01,258.88v-9.33h1.58v9.33h-1.58Z"/>
    <path class="cls-5" d="M389.71,259.65l1.54.23c.06.47.24.82.54,1.04.39.29.93.44,1.61.44.73,0,1.3-.15,1.7-.44s.67-.7.81-1.23c.08-.32.12-1,.11-2.03-.69.81-1.55,1.22-2.58,1.22-1.28,0-2.28-.46-2.98-1.39s-1.05-2.04-1.05-3.33c0-.89.16-1.71.48-2.47s.79-1.33,1.4-1.74,1.33-.62,2.16-.62c1.1,0,2.01.45,2.72,1.34v-1.12h1.46v8.07c0,1.45-.15,2.48-.44,3.09s-.76,1.09-1.41,1.44-1.43.53-2.37.53c-1.11,0-2.01-.25-2.7-.75s-1.02-1.26-.99-2.26ZM391.02,254.04c0,1.22.24,2.12.73,2.68s1.1.84,1.83.84,1.34-.28,1.83-.84.74-1.44.74-2.63-.25-2-.76-2.58-1.12-.87-1.83-.87-1.3.29-1.79.86-.74,1.42-.74,2.54Z"/>
    <path class="cls-5" d="M406.41,255.87l1.63.2c-.26.96-.74,1.7-1.43,2.22s-1.59.79-2.67.79c-1.37,0-2.45-.42-3.25-1.26s-1.2-2.02-1.2-3.54.4-2.79,1.21-3.66,1.86-1.3,3.15-1.3,2.27.42,3.06,1.27,1.19,2.04,1.19,3.59c0,.09,0,.23,0,.42h-6.96c.06,1.03.35,1.81.87,2.36s1.17.82,1.95.82c.58,0,1.08-.15,1.49-.46s.74-.79.98-1.46ZM401.21,253.31h5.21c-.07-.79-.27-1.37-.6-1.77-.5-.61-1.16-.91-1.96-.91-.73,0-1.34.24-1.83.73s-.77,1.14-.82,1.95Z"/>
    <path class="cls-5" d="M410.03,258.88v-9.33h1.42v1.33c.69-1.03,1.68-1.54,2.97-1.54.56,0,1.08.1,1.55.3s.82.47,1.06.8.4.72.49,1.17c.06.29.09.81.09,1.54v5.74h-1.58v-5.68c0-.64-.06-1.13-.18-1.45s-.34-.57-.65-.76-.68-.29-1.1-.29c-.67,0-1.26.21-1.74.64s-.73,1.24-.73,2.43v5.1h-1.58Z"/>
    <path class="cls-5" d="M423.49,257.46l.23,1.4c-.45.09-.84.14-1.2.14-.57,0-1.02-.09-1.34-.27s-.54-.42-.67-.72-.19-.92-.19-1.87v-5.37h-1.16v-1.23h1.16v-2.31l1.57-.95v3.26h1.59v1.23h-1.59v5.46c0,.45.03.74.08.87s.15.23.27.31.31.11.54.11c.18,0,.41-.02.69-.06Z"/>
    <path class="cls-5" d="M356.13,276.34l1.61-.14c.08.64.25,1.17.53,1.59s.71.75,1.3,1,1.25.38,1.98.38c.65,0,1.22-.1,1.72-.29s.87-.46,1.11-.8.36-.7.36-1.1-.12-.76-.35-1.06-.62-.56-1.16-.76c-.35-.13-1.11-.34-2.29-.63s-2.01-.55-2.49-.8c-.62-.32-1.07-.72-1.38-1.2s-.45-1.01-.45-1.6c0-.65.18-1.26.55-1.82s.91-.99,1.62-1.29,1.5-.44,2.36-.44c.96,0,1.8.15,2.53.46s1.29.76,1.68,1.36.6,1.27.63,2.03l-1.63.12c-.09-.81-.39-1.43-.89-1.85s-1.26-.62-2.25-.62-1.78.19-2.25.57-.71.83-.71,1.37c0,.46.17.84.5,1.14.33.3,1.19.6,2.57.92s2.34.59,2.85.82c.75.35,1.3.78,1.66,1.31s.54,1.14.54,1.83-.2,1.33-.59,1.94-.96,1.08-1.69,1.42-1.56.51-2.48.51c-1.17,0-2.14-.17-2.93-.51s-1.41-.85-1.85-1.53-.68-1.45-.71-2.32Z"/>
    <path class="cls-5" d="M368.44,284.07l-.18-1.49c.35.09.65.14.91.14.35,0,.63-.06.84-.18s.38-.28.52-.49c.1-.16.26-.55.48-1.18.03-.09.08-.22.14-.39l-3.54-9.35h1.71l1.94,5.41c.25.69.48,1.41.68,2.16.18-.73.4-1.44.65-2.13l2-5.44h1.58l-3.55,9.49c-.38,1.03-.68,1.73-.89,2.12-.28.52-.6.9-.97,1.15s-.8.36-1.3.36c-.3,0-.64-.06-1.02-.19Z"/>
    <path class="cls-5" d="M376.88,277.69l1.56-.25c.09.63.33,1.11.73,1.44s.96.5,1.68.5,1.27-.15,1.62-.44.53-.64.53-1.04c0-.36-.16-.64-.47-.84-.22-.14-.76-.32-1.62-.54-1.16-.29-1.96-.55-2.41-.76s-.79-.51-1.02-.89-.35-.8-.35-1.25c0-.42.1-.8.29-1.16s.45-.65.78-.88c.25-.18.58-.34,1.01-.46s.88-.19,1.37-.19c.73,0,1.38.11,1.93.32s.96.5,1.23.86.45.84.54,1.45l-1.55.21c-.07-.48-.27-.86-.61-1.12s-.81-.4-1.43-.4c-.73,0-1.25.12-1.56.36s-.47.52-.47.84c0,.21.06.39.19.55.13.17.33.31.61.42.16.06.62.19,1.4.4,1.12.3,1.9.54,2.34.73s.79.47,1.04.83.38.81.38,1.35-.15,1.02-.46,1.49-.75.83-1.33,1.08-1.24.38-1.97.38c-1.21,0-2.14-.25-2.77-.76s-1.04-1.25-1.22-2.24Z"/>
    <path class="cls-5" d="M389.97,279.06l.23,1.4c-.45.09-.84.14-1.2.14-.57,0-1.02-.09-1.34-.27s-.54-.42-.67-.72-.19-.92-.19-1.87v-5.37h-1.16v-1.23h1.16v-2.31l1.57-.95v3.26h1.59v1.23h-1.59v5.46c0,.45.03.74.08.87s.15.23.27.31.31.11.54.11c.18,0,.41-.02.69-.06Z"/>
    <path class="cls-5" d="M397.9,277.47l1.63.2c-.26.96-.74,1.7-1.43,2.22s-1.59.79-2.67.79c-1.37,0-2.45-.42-3.25-1.26s-1.2-2.02-1.2-3.54.4-2.79,1.21-3.66,1.86-1.3,3.15-1.3,2.27.42,3.06,1.27,1.19,2.04,1.19,3.59c0,.09,0,.23,0,.42h-6.96c.06,1.03.35,1.81.87,2.36s1.17.82,1.95.82c.58,0,1.08-.15,1.49-.46s.74-.79.98-1.46ZM392.71,274.91h5.21c-.07-.79-.27-1.37-.6-1.77-.5-.61-1.16-.91-1.96-.91-.73,0-1.34.24-1.83.73s-.77,1.14-.82,1.95Z"/>
    <path class="cls-5" d="M401.52,280.48v-9.33h1.42v1.31c.29-.46.68-.82,1.17-1.1s1.04-.42,1.66-.42c.69,0,1.26.14,1.7.43s.75.69.94,1.2c.74-1.09,1.7-1.63,2.88-1.63.93,0,1.64.26,2.14.77s.75,1.3.75,2.37v6.41h-1.57v-5.88c0-.63-.05-1.09-.15-1.37s-.29-.5-.56-.67-.59-.25-.95-.25c-.66,0-1.2.22-1.63.65s-.65,1.14-.65,2.1v5.42h-1.58v-6.06c0-.7-.13-1.23-.39-1.58s-.68-.53-1.27-.53c-.45,0-.86.12-1.23.35s-.65.58-.82,1.03-.25,1.1-.25,1.95v4.84h-1.58Z"/>
  </g>
  <text class="cls-7" transform="translate(352.31 117.95)"><tspan x="0" y="0">Sensors</tspan></text>
  <text class="cls-7" transform="translate(347.31 417.95)"><tspan x="0" y="0">Actuators</tspan></text>
  <g>
    <line class="cls-4" x1="385.32" y1="137.5" x2="385.32" y2="180.32"/>
    <polygon class="cls-5" points="380.34 178.87 385.32 187.5 390.31 178.87 380.34 178.87"/>
  </g>
  <g>
    <line class="cls-4" x1="385.32" y1="337.5" x2="385.32" y2="380.32"/>
    <polygon class="cls-5" points="380.34 378.87 385.32 387.5 390.31 378.87 380.34 378.87"/>
  </g>
  <text class="cls-7" transform="translate(625.42 292.22)"><tspan x="0" y="0">communicate</tspan></text>
</svg>