<?xml version="1.0" encoding="UTF-8"?>
<svg id="graphics" xmlns="http://www.w3.org/2000/svg" viewBox="0 0 988 525">
  <defs>
    <style>
      .cls-1 {
        fill: #fff;
      }

      .cls-1, .cls-2, .cls-3 {
        stroke: #1d1d1b;
        stroke-miterlimit: 10;
      }

      .cls-4 {
        fill: #1d1d1b;
      }

      .cls-5, .cls-6 {
        font-family: ArialMT, Arial;
      }

      .cls-5, .cls-7 {
        font-size: 16px;
      }

      .cls-6 {
        font-size: 12px;
      }

      .cls-2 {
        stroke-width: 2px;
      }

      .cls-2, .cls-3 {
        fill: none;
      }

      .cls-3 {
        stroke-width: .5px;
      }

      .cls-8 {
        letter-spacing: -.11em;
      }

      .cls-9 {
        letter-spacing: -.04em;
      }

      .cls-7 {
        font-family: Arial-BoldMT, Arial;
        font-weight: 700;
      }
    </style>
  </defs>
  <text class="cls-7" transform="translate(138.86 86.74)"><tspan x="0" y="0">Exernal forces</tspan></text>
  <text class="cls-7" transform="translate(425.52 86.74)"><tspan x="0" y="0">Effected variables</tspan></text>
  <g>
    <rect class="cls-1" x="81.5" y="167.5" width="225" height="250"/>
    <text class="cls-5" transform="translate(134.87 204.2)"><tspan x="0" y="0">Economic forces</tspan><tspan x="4.89" y="31.2">Social, cultural,</tspan><tspan x="-4.91" y="50.4">demographic, and</tspan><tspan x="-15.12" y="69.6">environmental forces</tspan><tspan x="-39.14" y="100.8">Political, governmental, and </tspan><tspan x="18.22" y="120">legal forces</tspan><tspan class="cls-8" x="-13.35" y="151.2">T</tspan><tspan x="-5.35" y="151.2">echnological forces</tspan><tspan x="-7.11" y="182.4">Competitive forces</tspan></text>
  </g>
  <g>
    <rect class="cls-1" x="381.5" y="130" width="225" height="325"/>
    <text class="cls-6" transform="translate(461.66 157.7)"><tspan x="0" y="0">Competitors</tspan><tspan x="7.33" y="18.4">Suppliers</tspan><tspan x="2" y="36.8">Distributors</tspan><tspan x="8" y="55.2">Creditors</tspan><tspan x="3.34" y="73.6">Customers</tspan><tspan x="2.66" y="92">Employees</tspan><tspan x="5.66" y="110.4">Managers</tspan><tspan x="-3.35" y="128.8">Shareholders</tspan><tspan x="-2.35" y="147.2">Labor unions</tspan><tspan x="-3.67" y="165.6">Governments</tspan><tspan class="cls-9" x="-17.79" y="184">T</tspan><tspan x="-10.91" y="184">rade associations</tspan><tspan x="-28.69" y="202.4">Special interest groups</tspan><tspan x="8.67" y="220.8">Products</tspan><tspan x="9.34" y="239.2">Services</tspan><tspan x="11.01" y="257.6">Markets</tspan><tspan x="-21.68" y="276">Natural environment</tspan></text>
  </g>
  <g>
    <line class="cls-2" x1="306.5" y1="287.17" x2="370.74" y2="287.17"/>
    <polygon class="cls-4" points="368.55 294.65 381.5 287.17 368.55 279.69 368.55 294.65"/>
  </g>
  <g>
    <line class="cls-3" x1="268.78" y1="81.72" x2="403.71" y2="81.72"/>
    <polygon class="cls-4" points="402.98 84.21 407.3 81.72 402.98 79.23 402.98 84.21"/>
  </g>
</svg>