<?xml version="1.0" encoding="UTF-8"?><svg id="a" xmlns="http://www.w3.org/2000/svg" viewBox="0 0 988 524.06"><defs><style>.b{font-size:16px;}.b,.c{fill:#1d1d1b;font-family:Arial-BoldMT, Arial;}.d{fill:#fff;}.e,.f,.g,.h{fill:none;}.e,.g{stroke-width:2px;}.e,.h{stroke:#1d1d1b;}.c{font-size:14px;}.f,.g{stroke:#000;stroke-miterlimit:8;}</style></defs><g><g><g><rect class="d" x="344.34" y="55.93" width="300" height="60" rx="1" ry="1"/><rect class="e" x="344.34" y="55.93" width="300" height="60" rx="1" ry="1"/></g><text class="b" transform="translate(460.56 91.66)"><tspan x="0" y="0">Software</tspan></text></g><g><g><rect class="d" x="71.92" y="154.95" width="300" height="60" rx="1" ry="1"/><rect class="e" x="71.92" y="154.95" width="300" height="60" rx="1" ry="1"/></g><text class="b" transform="translate(160.56 190.67)"><tspan x="0" y="0">Systemsoftware</tspan></text></g><g><g><path class="d" d="M404.43,274.11c0,.46-.45,.83-1,.83H105.43c-.55,0-1-.38-1-.83v-48.33c0-.46,.45-.83,1-.83H403.43c.55,0,1,.38,1,.83v48.33Z"/><path class="h" d="M404.43,274.11c0,.46-.45,.83-1,.83H105.43c-.55,0-1-.38-1-.83v-48.33c0-.46,.45-.83,1-.83H403.43c.55,0,1,.38,1,.83v48.33Z"/></g><text class="c" transform="translate(198.4 254.96)"><tspan x="0" y="0">Betriebssysteme</tspan></text></g><g><g><path class="d" d="M916.08,274.11c0,.46-.45,.83-1,.83h-298c-.55,0-1-.38-1-.83v-48.33c0-.46,.45-.83,1-.83h298c.55,0,1,.38,1,.83v48.33Z"/><path class="h" d="M916.08,274.11c0,.46-.45,.83-1,.83h-298c-.55,0-1-.38-1-.83v-48.33c0-.46,.45-.83,1-.83h298c.55,0,1,.38,1,.83v48.33Z"/></g><text class="c" transform="translate(706.96 254.96)"><tspan x="0" y="0">Standardsoftware</tspan></text></g><g><g><path class="d" d="M916.08,331.5c0,.46-.45,.83-1,.83h-298c-.55,0-1-.38-1-.83v-48.33c0-.46,.45-.83,1-.83h298c.55,0,1,.38,1,.83v48.33Z"/><path class="h" d="M916.08,331.5c0,.46-.45,.83-1,.83h-298c-.55,0-1-.38-1-.83v-48.33c0-.46,.45-.83,1-.83h298c.55,0,1,.38,1,.83v48.33Z"/></g><text class="c" transform="translate(704.63 312.34)"><tspan x="0" y="0">Individualsoftware</tspan></text></g><g><g><path class="d" d="M404.43,334.11c0,.46-.45,.83-1,.83H105.43c-.55,0-1-.38-1-.83v-48.33c0-.46,.45-.83,1-.83H403.43c.55,0,1,.38,1,.83v48.33Z"/><path class="h" d="M404.43,334.11c0,.46-.45,.83-1,.83H105.43c-.55,0-1-.38-1-.83v-48.33c0-.46,.45-.83,1-.83H403.43c.55,0,1,.38,1,.83v48.33Z"/></g><text class="c" transform="translate(190.62 314.96)"><tspan x="0" y="0">Datenbanksysteme</tspan></text></g><g><g><path class="d" d="M404.43,394.11c0,.46-.45,.83-1,.83H105.43c-.55,0-1-.38-1-.83v-48.33c0-.46,.45-.83,1-.83H403.43c.55,0,1,.38,1,.83v48.33Z"/><path class="h" d="M404.43,394.11c0,.46-.45,.83-1,.83H105.43c-.55,0-1-.38-1-.83v-48.33c0-.46,.45-.83,1-.83H403.43c.55,0,1,.38,1,.83v48.33Z"/></g><text class="c" transform="translate(194.91 374.96)"><tspan x="0" y="0">Netzwerksoftware</tspan></text></g><g><g><path class="d" d="M404.43,454.11c0,.46-.45,.83-1,.83H105.43c-.55,0-1-.38-1-.83v-48.33c0-.46,.45-.83,1-.83H403.43c.55,0,1,.38,1,.83v48.33Z"/><path class="h" d="M404.43,454.11c0,.46-.45,.83-1,.83H105.43c-.55,0-1-.38-1-.83v-48.33c0-.46,.45-.83,1-.83H403.43c.55,0,1,.38,1,.83v48.33Z"/></g><text class="c" transform="translate(149.4 434.96)"><tspan x="0" y="0">Software-Entwicklungssysteme</tspan></text></g><g><g><rect class="d" x="583.57" y="154.95" width="300" height="60" rx="1" ry="1"/><rect class="e" x="583.57" y="154.95" width="300" height="60" rx="1" ry="1"/></g><text class="b" transform="translate(656.68 190.67)"><tspan x="0" y="0">Anwendungssoftare</tspan></text></g></g><polyline class="g" points="344.34 85.93 221.92 85.93 221.92 154.95"/><polyline class="g" points="644.34 85.93 766.77 85.93 766.77 154.95"/><polyline class="f" points="86.54 214.95 86.54 430.49 104.43 430.49"/><line class="f" x1="104.43" y1="369.95" x2="86.54" y2="369.95"/><line class="f" x1="104.43" y1="309.95" x2="86.54" y2="309.95"/><line class="f" x1="104.43" y1="249.95" x2="86.54" y2="249.95"/><polyline class="f" points="597.92 215.03 597.92 307.33 615.81 307.33"/><line class="f" x1="615.81" y1="250.03" x2="597.92" y2="250.03"/></svg>