<?xml version="1.0" encoding="UTF-8"?><svg id="Ebene_1" xmlns="http://www.w3.org/2000/svg" viewBox="0 0 988 525"><g><rect x="344" y="86.32" width="300" height="60" style="fill:#fff; stroke:#000; stroke-width:2px;"/><text transform="translate(393.09 121.69)" style="font-family:Arial-BoldMT, Arial; font-size:16px; font-weight:700; isolation:isolate;"><tspan x="0" y="0">Software-Auswahlkriterien</tspan></text></g><g><rect x="44" y="196.32" width="400" height="60" style="fill:#fff; stroke:#000; stroke-width:2px;"/><text transform="translate(182.67 231.69)" style="font-family:Arial-BoldMT, Arial; font-size:16px; font-weight:700; isolation:isolate;"><tspan x="0" y="0">Produkteignung</tspan></text></g><g><rect x="494" y="196.32" width="200" height="60" style="fill:#fff; stroke:#000; stroke-width:2px;"/><text transform="translate(519.32 231.69)" style="font-family:Arial-BoldMT, Arial; font-size:16px; font-weight:700; isolation:isolate;"><tspan x="0" y="0">Anbieterfähigkeiten</tspan></text></g><g><rect x="744" y="196.32" width="200" height="60" style="fill:#fff; stroke:#000; stroke-width:2px;"/><g style="isolation:isolate;"><path d="M785.62,220.57v-11.45h2.31v5.09l4.67-5.09h3.11l-4.31,4.46,4.55,6.99h-2.99l-3.15-5.38-1.88,1.91v3.46h-2.31Z"/><path d="M798.77,214.81l-1.99-.36c.22-.8,.61-1.4,1.16-1.78s1.36-.58,2.44-.58c.98,0,1.71,.12,2.19,.35s.82,.53,1.01,.88,.29,1.01,.29,1.96l-.02,2.56c0,.73,.04,1.27,.11,1.61s.2,.72,.39,1.11h-2.17c-.06-.15-.13-.36-.21-.65-.04-.13-.06-.22-.08-.26-.38,.36-.78,.64-1.2,.82s-.88,.27-1.37,.27c-.85,0-1.53-.23-2.02-.7s-.74-1.05-.74-1.76c0-.47,.11-.89,.34-1.25s.54-.65,.94-.84,.99-.37,1.75-.51c1.03-.19,1.74-.37,2.13-.54v-.22c0-.42-.1-.72-.31-.9s-.6-.27-1.18-.27c-.39,0-.7,.08-.91,.23s-.4,.42-.53,.81Zm2.94,1.78c-.28,.09-.73,.21-1.34,.34s-1.01,.26-1.2,.38c-.29,.2-.43,.46-.43,.77s.11,.57,.34,.8,.52,.34,.88,.34c.4,0,.77-.13,1.13-.39,.27-.2,.44-.44,.52-.73,.06-.19,.09-.54,.09-1.07v-.44Z"/><path d="M811.49,220.57v-1.24c-.3,.44-.7,.79-1.19,1.05s-1.01,.38-1.56,.38-1.06-.12-1.5-.37-.76-.59-.96-1.03-.3-1.05-.3-1.84v-5.25h2.2v3.81c0,1.17,.04,1.88,.12,2.14s.23,.47,.44,.62,.48,.23,.81,.23c.38,0,.71-.1,1.01-.31s.5-.46,.61-.77,.16-1.05,.16-2.24v-3.5h2.2v8.3h-2.04Z"/><path d="M814.84,212.28h1.22v-.62c0-.7,.07-1.22,.22-1.56s.42-.62,.82-.84,.9-.32,1.51-.32,1.24,.09,1.84,.28l-.3,1.53c-.35-.08-.68-.12-1.01-.12s-.55,.07-.68,.22-.21,.43-.21,.86v.59h1.64v1.73h-1.64v6.57h-2.2v-6.57h-1.22v-1.73Z"/><path d="M820.97,212.28h2.02v1.13c.72-.88,1.59-1.32,2.59-1.32,.53,0,.99,.11,1.38,.33s.71,.55,.96,.99c.36-.44,.76-.77,1.18-.99s.87-.33,1.35-.33c.61,0,1.12,.12,1.55,.37s.74,.61,.95,1.09c.15,.35,.23,.93,.23,1.72v5.3h-2.2v-4.74c0-.82-.08-1.35-.23-1.59-.2-.31-.52-.47-.94-.47-.31,0-.6,.09-.87,.28s-.47,.46-.59,.82-.18,.93-.18,1.71v3.98h-2.2v-4.55c0-.81-.04-1.33-.12-1.56s-.2-.41-.36-.52-.39-.17-.67-.17c-.34,0-.64,.09-.91,.27s-.46,.45-.58,.79-.18,.91-.18,1.71v4.03h-2.2v-8.3Z"/><path d="M837,214.81l-1.99-.36c.22-.8,.61-1.4,1.16-1.78s1.36-.58,2.44-.58c.98,0,1.71,.12,2.19,.35s.82,.53,1.01,.88,.29,1.01,.29,1.96l-.02,2.56c0,.73,.04,1.27,.11,1.61s.2,.72,.39,1.11h-2.17c-.06-.15-.13-.36-.21-.65-.04-.13-.06-.22-.08-.26-.38,.36-.78,.64-1.2,.82s-.88,.27-1.37,.27c-.85,0-1.53-.23-2.02-.7s-.74-1.05-.74-1.76c0-.47,.11-.89,.34-1.25s.54-.65,.94-.84,.99-.37,1.75-.51c1.03-.19,1.74-.37,2.13-.54v-.22c0-.42-.1-.72-.31-.9s-.6-.27-1.18-.27c-.39,0-.7,.08-.91,.23s-.4,.42-.53,.81Zm-.95-4v-1.88h1.88v1.88h-1.88Zm3.88,5.78c-.28,.09-.73,.21-1.34,.34s-1.01,.26-1.2,.38c-.29,.2-.43,.46-.43,.77s.11,.57,.34,.8,.52,.34,.88,.34c.4,0,.77-.13,1.13-.39,.27-.2,.44-.44,.52-.73,.06-.19,.09-.54,.09-1.07v-.44Zm-.52-5.78v-1.88h1.89v1.88h-1.89Z"/><path d="M851.8,220.57h-2.2v-4.23c0-.9-.05-1.48-.14-1.74s-.25-.47-.46-.61-.46-.22-.76-.22c-.38,0-.72,.1-1.02,.31s-.51,.48-.62,.83-.17,.98-.17,1.91v3.76h-2.2v-8.3h2.04v1.22c.72-.94,1.64-1.41,2.73-1.41,.48,0,.93,.09,1.33,.26s.7,.4,.91,.67,.35,.58,.43,.92,.12,.84,.12,1.48v5.16Z"/><path d="M861.58,220.57h-2.2v-4.23c0-.9-.05-1.48-.14-1.74s-.25-.47-.46-.61-.46-.22-.76-.22c-.38,0-.72,.1-1.02,.31s-.51,.48-.62,.83-.17,.98-.17,1.91v3.76h-2.2v-8.3h2.04v1.22c.72-.94,1.64-1.41,2.73-1.41,.48,0,.93,.09,1.33,.26s.7,.4,.91,.67,.35,.58,.43,.92,.12,.84,.12,1.48v5.16Z"/><path d="M863.8,211.15v-2.03h2.2v2.03h-2.2Zm0,9.42v-8.3h2.2v8.3h-2.2Z"/><path d="M867.48,218.21l2.2-.34c.09,.43,.28,.75,.57,.97s.69,.33,1.2,.33c.57,0,1-.1,1.28-.31,.19-.15,.29-.34,.29-.59,0-.17-.05-.3-.16-.41-.11-.1-.35-.2-.73-.29-1.77-.39-2.89-.75-3.37-1.07-.66-.45-.98-1.07-.98-1.87,0-.72,.28-1.32,.85-1.81s1.45-.73,2.64-.73,1.98,.18,2.53,.55,.93,.92,1.14,1.64l-2.07,.38c-.09-.32-.26-.57-.5-.74s-.6-.26-1.06-.26c-.58,0-.99,.08-1.24,.24-.17,.11-.25,.26-.25,.45,0,.16,.07,.29,.22,.4,.2,.15,.88,.35,2.05,.62s1.99,.59,2.45,.98c.46,.39,.69,.93,.69,1.63,0,.76-.32,1.41-.95,1.96s-1.58,.82-2.82,.82c-1.13,0-2.02-.23-2.68-.69s-1.09-1.08-1.29-1.87Z"/><path d="M884.38,214.73l-2.16,.39c-.07-.43-.24-.76-.5-.98s-.59-.33-1-.33c-.55,0-.98,.19-1.31,.57s-.49,1.01-.49,1.89c0,.98,.17,1.68,.5,2.09s.77,.61,1.33,.61c.42,0,.76-.12,1.02-.36s.45-.64,.56-1.22l2.16,.37c-.22,.99-.65,1.74-1.29,2.24s-1.49,.76-2.55,.76c-1.21,0-2.18-.38-2.9-1.15s-1.08-1.83-1.08-3.18,.36-2.44,1.09-3.2,1.7-1.14,2.94-1.14c1.01,0,1.81,.22,2.41,.65s1.02,1.1,1.29,1.99Z"/><path d="M888.23,209.12v4.21c.71-.83,1.55-1.24,2.54-1.24,.5,0,.96,.09,1.37,.28s.71,.43,.92,.72,.35,.61,.42,.97,.11,.9,.11,1.65v4.87h-2.2v-4.38c0-.87-.04-1.42-.12-1.66s-.23-.42-.44-.56-.48-.21-.79-.21c-.36,0-.69,.09-.98,.27s-.5,.44-.63,.8-.2,.88-.2,1.58v4.16h-2.2v-11.45h2.2Z"/><path d="M900.62,217.93l2.19,.37c-.28,.8-.73,1.41-1.33,1.83s-1.37,.63-2.28,.63c-1.44,0-2.51-.47-3.2-1.41-.55-.75-.82-1.71-.82-2.86,0-1.38,.36-2.45,1.08-3.23s1.63-1.17,2.73-1.17c1.23,0,2.21,.41,2.92,1.22s1.05,2.06,1.02,3.75h-5.5c.02,.65,.19,1.16,.53,1.52s.76,.54,1.27,.54c.34,0,.63-.09,.87-.28s.41-.49,.53-.91Zm.12-2.22c-.02-.64-.18-1.12-.49-1.45s-.69-.5-1.14-.5c-.48,0-.88,.17-1.19,.52s-.47,.82-.46,1.42h3.28Z"/><path d="M812.3,239.77v-11.45h2.31v5.09l4.67-5.09h3.11l-4.31,4.46,4.55,6.99h-2.99l-3.15-5.38-1.88,1.91v3.46h-2.31Z"/><path d="M825.91,239.77h-2.2v-8.3h2.04v1.18c.35-.56,.66-.92,.94-1.1s.59-.27,.95-.27c.5,0,.98,.14,1.45,.41l-.68,1.91c-.37-.24-.71-.36-1.03-.36s-.57,.08-.78,.25-.38,.48-.5,.92-.18,1.37-.18,2.78v2.56Z"/><path d="M830.03,230.35v-2.03h2.2v2.03h-2.2Zm0,9.42v-8.3h2.2v8.3h-2.2Z"/><path d="M838.28,231.48v1.75h-1.5v3.34c0,.68,.01,1.07,.04,1.18s.09,.2,.2,.28,.23,.11,.37,.11c.2,0,.5-.07,.88-.21l.19,1.7c-.51,.22-1.09,.33-1.73,.33-.4,0-.75-.07-1.07-.2s-.55-.3-.7-.52-.25-.5-.31-.86c-.05-.25-.07-.77-.07-1.55v-3.62h-1.01v-1.75h1.01v-1.65l2.2-1.28v2.93h1.5Z"/><path d="M844.61,237.13l2.19,.37c-.28,.8-.73,1.41-1.33,1.83s-1.37,.63-2.28,.63c-1.44,0-2.51-.47-3.2-1.41-.55-.75-.82-1.71-.82-2.86,0-1.38,.36-2.45,1.08-3.23s1.63-1.17,2.73-1.17c1.23,0,2.21,.41,2.92,1.22s1.05,2.06,1.02,3.75h-5.5c.02,.65,.19,1.16,.53,1.52s.76,.54,1.27,.54c.34,0,.63-.09,.87-.28s.41-.49,.53-.91Zm.12-2.22c-.02-.64-.18-1.12-.49-1.45s-.69-.5-1.14-.5c-.48,0-.88,.17-1.19,.52s-.47,.82-.46,1.42h3.28Z"/><path d="M850.8,239.77h-2.2v-8.3h2.04v1.18c.35-.56,.66-.92,.94-1.1s.59-.27,.95-.27c.5,0,.98,.14,1.45,.41l-.68,1.91c-.37-.24-.71-.36-1.03-.36s-.57,.08-.78,.25-.38,.48-.5,.92-.18,1.37-.18,2.78v2.56Z"/><path d="M854.93,230.35v-2.03h2.2v2.03h-2.2Zm0,9.42v-8.3h2.2v8.3h-2.2Z"/><path d="M864.18,237.13l2.19,.37c-.28,.8-.73,1.41-1.33,1.83s-1.37,.63-2.28,.63c-1.44,0-2.51-.47-3.2-1.41-.55-.75-.82-1.71-.82-2.86,0-1.38,.36-2.45,1.08-3.23s1.63-1.17,2.73-1.17c1.23,0,2.21,.41,2.92,1.22s1.05,2.06,1.02,3.75h-5.5c.02,.65,.19,1.16,.53,1.52s.76,.54,1.27,.54c.34,0,.63-.09,.87-.28s.41-.49,.53-.91Zm.12-2.22c-.02-.64-.18-1.12-.49-1.45s-.69-.5-1.14-.5c-.48,0-.88,.17-1.19,.52s-.47,.82-.46,1.42h3.28Z"/><path d="M875.82,239.77h-2.2v-4.23c0-.9-.05-1.48-.14-1.74s-.25-.47-.46-.61-.46-.22-.76-.22c-.38,0-.72,.1-1.02,.31s-.51,.48-.62,.83-.17,.98-.17,1.91v3.76h-2.2v-8.3h2.04v1.22c.72-.94,1.64-1.41,2.73-1.41,.48,0,.93,.09,1.33,.26s.7,.4,.91,.67,.35,.58,.43,.92,.12,.84,.12,1.48v5.16Z"/></g></g><rect x="44" y="306.32" width="180" height="60" style="fill:#fff; stroke:#000;"/><g style="isolation:isolate;"><path d="M90.29,330.57v-11.45h7.85v1.94h-5.54v2.71h4.78v1.94h-4.78v4.87h-2.31Z"/><path d="M105.49,330.57v-1.24c-.3,.44-.7,.79-1.19,1.05s-1.01,.38-1.56,.38-1.06-.12-1.5-.37-.76-.59-.96-1.03-.3-1.05-.3-1.84v-5.25h2.2v3.81c0,1.17,.04,1.88,.12,2.14s.23,.47,.44,.62,.48,.23,.81,.23c.38,0,.71-.1,1.01-.31s.5-.46,.61-.77,.16-1.05,.16-2.24v-3.5h2.2v8.3h-2.04Z"/><path d="M117.35,330.57h-2.2v-4.23c0-.9-.05-1.48-.14-1.74s-.25-.47-.46-.61-.46-.22-.76-.22c-.38,0-.72,.1-1.02,.31s-.51,.48-.62,.83-.17,.98-.17,1.91v3.76h-2.2v-8.3h2.04v1.22c.72-.94,1.64-1.41,2.73-1.41,.48,0,.93,.09,1.33,.26s.7,.4,.91,.67,.35,.58,.43,.92,.12,.84,.12,1.48v5.16Z"/><path d="M119.5,330.57v-11.45h2.2v6.08l2.57-2.92h2.7l-2.84,3.03,3.04,5.27h-2.37l-2.09-3.73-1.02,1.07v2.66h-2.2Z"/><path d="M132.28,322.28v1.75h-1.5v3.34c0,.68,.01,1.07,.04,1.18s.09,.2,.2,.28,.23,.11,.37,.11c.2,0,.5-.07,.88-.21l.19,1.7c-.51,.22-1.09,.33-1.73,.33-.4,0-.75-.07-1.07-.2s-.55-.3-.7-.52-.25-.5-.31-.86c-.05-.25-.07-.77-.07-1.55v-3.62h-1.01v-1.75h1.01v-1.65l2.2-1.28v2.93h1.5Z"/><path d="M133.8,321.15v-2.03h2.2v2.03h-2.2Zm0,9.42v-8.3h2.2v8.3h-2.2Z"/><path d="M137.74,326.31c0-.73,.18-1.43,.54-2.12s.87-1.2,1.53-1.56,1.39-.54,2.21-.54c1.25,0,2.28,.41,3.09,1.22s1.2,1.84,1.2,3.09-.41,2.3-1.21,3.12-1.83,1.24-3.06,1.24c-.76,0-1.49-.17-2.18-.52s-1.21-.85-1.57-1.51-.54-1.47-.54-2.43Zm2.25,.12c0,.82,.2,1.45,.59,1.89s.87,.66,1.45,.66,1.05-.22,1.44-.66,.58-1.07,.58-1.91-.19-1.44-.58-1.88-.87-.66-1.44-.66-1.05,.22-1.45,.66-.59,1.07-.59,1.89Z"/><path d="M155.57,330.57h-2.2v-4.23c0-.9-.05-1.48-.14-1.74s-.25-.47-.46-.61-.46-.22-.76-.22c-.38,0-.72,.1-1.02,.31s-.51,.48-.62,.83-.17,.98-.17,1.91v3.76h-2.2v-8.3h2.04v1.22c.72-.94,1.64-1.41,2.73-1.41,.48,0,.93,.09,1.33,.26s.7,.4,.91,.67,.35,.58,.43,.92,.12,.84,.12,1.48v5.16Z"/><path d="M159.44,324.81l-1.99-.36c.22-.8,.61-1.4,1.16-1.78s1.36-.58,2.44-.58c.98,0,1.71,.12,2.19,.35s.82,.53,1.01,.88,.29,1.01,.29,1.96l-.02,2.56c0,.73,.04,1.27,.11,1.61s.2,.72,.39,1.11h-2.17c-.06-.15-.13-.36-.21-.65-.04-.13-.06-.22-.08-.26-.38,.36-.78,.64-1.2,.82s-.88,.27-1.37,.27c-.85,0-1.53-.23-2.02-.7s-.74-1.05-.74-1.76c0-.47,.11-.89,.34-1.25s.54-.65,.94-.84,.99-.37,1.75-.51c1.03-.19,1.74-.37,2.13-.54v-.22c0-.42-.1-.72-.31-.9s-.6-.27-1.18-.27c-.39,0-.7,.08-.91,.23s-.4,.42-.53,.81Zm2.94,1.78c-.28,.09-.73,.21-1.34,.34s-1.01,.26-1.2,.38c-.29,.2-.43,.46-.43,.77s.11,.57,.34,.8,.52,.34,.88,.34c.4,0,.77-.13,1.13-.39,.27-.2,.44-.44,.52-.73,.06-.19,.09-.54,.09-1.07v-.44Z"/><path d="M166.7,330.57v-11.45h2.2v11.45h-2.2Z"/><path d="M175.95,327.93l2.19,.37c-.28,.8-.73,1.41-1.33,1.83s-1.37,.63-2.28,.63c-1.44,0-2.51-.47-3.2-1.41-.55-.75-.82-1.71-.82-2.86,0-1.38,.36-2.45,1.08-3.23s1.63-1.17,2.73-1.17c1.23,0,2.21,.41,2.92,1.22s1.05,2.06,1.02,3.75h-5.5c.02,.65,.19,1.16,.53,1.52s.76,.54,1.27,.54c.34,0,.63-.09,.87-.28s.41-.49,.53-.91Zm.12-2.22c-.02-.64-.18-1.12-.49-1.45s-.69-.5-1.14-.5c-.48,0-.88,.17-1.19,.52s-.47,.82-.46,1.42h3.28Z"/><path d="M87.72,349.77h-2.52l-1-2.6h-4.58l-.95,2.6h-2.45l4.46-11.45h2.45l4.59,11.45Zm-4.26-4.53l-1.58-4.25-1.55,4.25h3.12Z"/><path d="M96.48,349.77h-2.2v-4.23c0-.9-.05-1.48-.14-1.74s-.25-.47-.46-.61-.46-.22-.76-.22c-.38,0-.72,.1-1.02,.31s-.51,.48-.62,.83-.17,.98-.17,1.91v3.76h-2.2v-8.3h2.04v1.22c.72-.94,1.64-1.41,2.73-1.41,.48,0,.93,.09,1.33,.26s.7,.4,.91,.67,.35,.58,.43,.92,.12,.84,.12,1.48v5.16Z"/><path d="M97.74,341.48h1.22v-.62c0-.7,.07-1.22,.22-1.56s.42-.62,.82-.84,.9-.32,1.51-.32,1.24,.09,1.84,.28l-.3,1.53c-.35-.08-.68-.12-1.01-.12s-.55,.07-.68,.22-.21,.43-.21,.86v.59h1.64v1.73h-1.64v6.57h-2.2v-6.57h-1.22v-1.73Z"/><path d="M103.52,345.51c0-.73,.18-1.43,.54-2.12s.87-1.2,1.53-1.56,1.39-.54,2.21-.54c1.25,0,2.28,.41,3.09,1.22s1.2,1.84,1.2,3.09-.41,2.3-1.21,3.12-1.83,1.24-3.06,1.24c-.76,0-1.49-.17-2.18-.52s-1.21-.85-1.57-1.51-.54-1.47-.54-2.43Zm2.25,.12c0,.82,.2,1.45,.59,1.89s.87,.66,1.45,.66,1.05-.22,1.44-.66,.58-1.07,.58-1.91-.19-1.44-.58-1.88-.87-.66-1.44-.66-1.05,.22-1.45,.66-.59,1.07-.59,1.89Z"/><path d="M115.91,349.77h-2.2v-8.3h2.04v1.18c.35-.56,.66-.92,.94-1.1s.59-.27,.95-.27c.5,0,.98,.14,1.45,.41l-.68,1.91c-.37-.24-.71-.36-1.03-.36s-.57,.08-.78,.25-.38,.48-.5,.92-.18,1.37-.18,2.78v2.56Z"/><path d="M127.64,349.77h-2.04v-1.22c-.34,.47-.74,.83-1.2,1.06s-.93,.35-1.39,.35c-.95,0-1.77-.38-2.45-1.15s-1.02-1.84-1.02-3.21,.33-2.48,.99-3.21,1.5-1.1,2.51-1.1c.93,0,1.73,.39,2.41,1.16v-4.12h2.2v11.45Zm-5.86-4.33c0,.89,.12,1.53,.37,1.92,.35,.57,.85,.86,1.48,.86,.5,0,.93-.21,1.29-.64s.53-1.07,.53-1.93c0-.95-.17-1.64-.52-2.06s-.78-.63-1.32-.63-.96,.21-1.31,.62-.53,1.03-.53,1.86Z"/><path d="M134.61,347.13l2.19,.37c-.28,.8-.73,1.41-1.33,1.83s-1.37,.63-2.28,.63c-1.44,0-2.51-.47-3.2-1.41-.55-.75-.82-1.71-.82-2.86,0-1.38,.36-2.45,1.08-3.23s1.63-1.17,2.73-1.17c1.23,0,2.21,.41,2.92,1.22s1.05,2.06,1.02,3.75h-5.5c.02,.65,.19,1.16,.53,1.52s.76,.54,1.27,.54c.34,0,.63-.09,.87-.28s.41-.49,.53-.91Zm.12-2.22c-.02-.64-.18-1.12-.49-1.45s-.69-.5-1.14-.5c-.48,0-.88,.17-1.19,.52s-.47,.82-.46,1.42h3.28Z"/><path d="M140.8,349.77h-2.2v-8.3h2.04v1.18c.35-.56,.66-.92,.94-1.1s.59-.27,.95-.27c.5,0,.98,.14,1.45,.41l-.68,1.91c-.37-.24-.71-.36-1.03-.36s-.57,.08-.78,.25-.38,.48-.5,.92-.18,1.37-.18,2.78v2.56Z"/><path d="M150.39,349.77v-1.24c-.3,.44-.7,.79-1.19,1.05s-1.01,.38-1.56,.38-1.06-.12-1.5-.37-.76-.59-.96-1.03-.3-1.05-.3-1.84v-5.25h2.2v3.81c0,1.17,.04,1.88,.12,2.14s.23,.47,.44,.62,.48,.23,.81,.23c.38,0,.71-.1,1.01-.31s.5-.46,.61-.77,.16-1.05,.16-2.24v-3.5h2.2v8.3h-2.04Z"/><path d="M162.25,349.77h-2.2v-4.23c0-.9-.05-1.48-.14-1.74s-.25-.47-.46-.61-.46-.22-.76-.22c-.38,0-.72,.1-1.02,.31s-.51,.48-.62,.83-.17,.98-.17,1.91v3.76h-2.2v-8.3h2.04v1.22c.72-.94,1.64-1.41,2.73-1.41,.48,0,.93,.09,1.33,.26s.7,.4,.91,.67,.35,.58,.43,.92,.12,.84,.12,1.48v5.16Z"/><path d="M164.27,350.32l2.51,.3c.04,.29,.14,.49,.29,.6,.21,.16,.54,.23,.98,.23,.57,0,1-.09,1.29-.26,.19-.11,.34-.3,.44-.55,.07-.18,.1-.52,.1-1.01v-1.21c-.66,.9-1.48,1.34-2.48,1.34-1.11,0-2-.47-2.65-1.41-.51-.75-.77-1.67-.77-2.78,0-1.39,.33-2.45,1-3.19s1.5-1.1,2.5-1.1,1.87,.45,2.54,1.35v-1.16h2.05v7.45c0,.98-.08,1.71-.24,2.2s-.39,.86-.68,1.14-.68,.49-1.17,.65-1.1,.23-1.85,.23c-1.41,0-2.4-.24-2.99-.72s-.88-1.09-.88-1.83c0-.07,0-.16,0-.27Zm1.96-4.87c0,.88,.17,1.52,.51,1.93s.76,.61,1.26,.61c.54,0,.99-.21,1.36-.63s.55-1.04,.55-1.86-.18-1.5-.53-1.91-.8-.62-1.34-.62-.96,.2-1.3,.61-.51,1.03-.51,1.87Z"/><path d="M179.05,347.13l2.19,.37c-.28,.8-.73,1.41-1.33,1.83s-1.37,.63-2.28,.63c-1.44,0-2.51-.47-3.2-1.41-.55-.75-.82-1.71-.82-2.86,0-1.38,.36-2.45,1.08-3.23s1.63-1.17,2.73-1.17c1.23,0,2.21,.41,2.92,1.22s1.05,2.06,1.02,3.75h-5.5c.02,.65,.19,1.16,.53,1.52s.76,.54,1.27,.54c.34,0,.63-.09,.87-.28s.41-.49,.53-.91Zm.12-2.22c-.02-.64-.18-1.12-.49-1.45s-.69-.5-1.14-.5c-.48,0-.88,.17-1.19,.52s-.47,.82-.46,1.42h3.28Z"/><path d="M190.7,349.77h-2.2v-4.23c0-.9-.05-1.48-.14-1.74s-.25-.47-.46-.61-.46-.22-.76-.22c-.38,0-.72,.1-1.02,.31s-.51,.48-.62,.83-.17,.98-.17,1.91v3.76h-2.2v-8.3h2.04v1.22c.72-.94,1.64-1.41,2.73-1.41,.48,0,.93,.09,1.33,.26s.7,.4,.91,.67,.35,.58,.43,.92,.12,.84,.12,1.48v5.16Z"/></g><rect x="264" y="306.32" width="180" height="60" style="fill:#fff; stroke:#000;"/><g style="isolation:isolate;"><path d="M292.52,330.58v-11.45h2.25l4.69,7.65v-7.65h2.15v11.45h-2.32l-4.62-7.47v7.47h-2.15Z"/><path d="M304.04,321.15v-2.03h2.2v2.03h-2.2Zm0,9.42v-8.3h2.2v8.3h-2.2Z"/><path d="M315.71,324.73l-2.16,.39c-.07-.43-.24-.76-.5-.98s-.59-.33-1-.33c-.55,0-.98,.19-1.31,.57s-.49,1.01-.49,1.89c0,.98,.17,1.68,.5,2.09s.77,.61,1.33,.61c.42,0,.76-.12,1.02-.36s.45-.64,.56-1.22l2.16,.37c-.22,.99-.65,1.74-1.29,2.24s-1.49,.76-2.55,.76c-1.21,0-2.18-.38-2.9-1.15s-1.08-1.83-1.08-3.18,.36-2.44,1.09-3.2,1.7-1.14,2.94-1.14c1.01,0,1.81,.22,2.41,.65s1.02,1.1,1.29,1.99Z"/><path d="M319.57,319.12v4.21c.71-.83,1.55-1.24,2.54-1.24,.5,0,.96,.09,1.37,.28s.71,.43,.92,.72,.35,.61,.42,.97,.11,.9,.11,1.65v4.87h-2.2v-4.38c0-.87-.04-1.42-.12-1.66s-.23-.42-.44-.56-.48-.21-.79-.21c-.36,0-.69,.09-.98,.27s-.5,.44-.63,.8-.2,.88-.2,1.58v4.16h-2.2v-11.45h2.2Z"/><path d="M330.96,322.28v1.75h-1.5v3.34c0,.68,.01,1.07,.04,1.18s.09,.2,.2,.28,.23,.11,.37,.11c.2,0,.5-.07,.88-.21l.19,1.7c-.51,.22-1.09,.33-1.73,.33-.4,0-.75-.07-1.07-.2s-.55-.3-.7-.52-.25-.5-.31-.86c-.05-.25-.07-.77-.07-1.55v-3.62h-1.01v-1.75h1.01v-1.65l2.2-1.28v2.93h1.5Z"/><path d="M331.52,322.28h1.22v-.62c0-.7,.07-1.22,.22-1.56s.42-.62,.82-.84,.9-.32,1.51-.32,1.24,.09,1.84,.28l-.3,1.53c-.35-.08-.68-.12-1.01-.12s-.55,.07-.68,.22-.21,.43-.21,.86v.59h1.64v1.73h-1.64v6.57h-2.2v-6.57h-1.22v-1.73Z"/><path d="M343.27,330.58v-1.24c-.3,.44-.7,.79-1.19,1.05s-1.01,.38-1.56,.38-1.06-.12-1.5-.37-.76-.59-.96-1.03-.3-1.05-.3-1.84v-5.25h2.2v3.81c0,1.17,.04,1.88,.12,2.14s.23,.47,.44,.62,.48,.23,.81,.23c.38,0,.71-.1,1.01-.31s.5-.46,.61-.77,.16-1.05,.16-2.24v-3.5h2.2v8.3h-2.04Z"/><path d="M355.13,330.58h-2.2v-4.23c0-.9-.05-1.48-.14-1.74s-.25-.47-.46-.61-.46-.22-.76-.22c-.38,0-.72,.1-1.02,.31s-.51,.48-.62,.83-.17,.98-.17,1.91v3.76h-2.2v-8.3h2.04v1.22c.72-.94,1.64-1.41,2.73-1.41,.48,0,.93,.09,1.33,.26s.7,.4,.91,.67,.35,.58,.43,.92,.12,.84,.12,1.48v5.16Z"/><path d="M357.28,330.58v-11.45h2.2v6.08l2.57-2.92h2.7l-2.84,3.03,3.04,5.27h-2.37l-2.09-3.73-1.02,1.07v2.66h-2.2Z"/><path d="M370.06,322.28v1.75h-1.5v3.34c0,.68,.01,1.07,.04,1.18s.09,.2,.2,.28,.23,.11,.37,.11c.2,0,.5-.07,.88-.21l.19,1.7c-.51,.22-1.09,.33-1.73,.33-.4,0-.75-.07-1.07-.2s-.55-.3-.7-.52-.25-.5-.31-.86c-.05-.25-.07-.77-.07-1.55v-3.62h-1.01v-1.75h1.01v-1.65l2.2-1.28v2.93h1.5Z"/><path d="M371.58,321.15v-2.03h2.2v2.03h-2.2Zm0,9.42v-8.3h2.2v8.3h-2.2Z"/><path d="M375.52,326.31c0-.73,.18-1.43,.54-2.12s.87-1.2,1.53-1.56,1.39-.54,2.21-.54c1.25,0,2.28,.41,3.09,1.22s1.2,1.84,1.2,3.09-.41,2.3-1.21,3.12-1.83,1.24-3.06,1.24c-.76,0-1.49-.17-2.18-.52s-1.21-.85-1.57-1.51-.54-1.47-.54-2.43Zm2.25,.12c0,.82,.2,1.45,.59,1.89s.87,.66,1.45,.66,1.05-.22,1.44-.66,.58-1.07,.58-1.91-.19-1.44-.58-1.88-.87-.66-1.44-.66-1.05,.22-1.45,.66-.59,1.07-.59,1.89Z"/><path d="M393.35,330.58h-2.2v-4.23c0-.9-.05-1.48-.14-1.74s-.25-.47-.46-.61-.46-.22-.76-.22c-.38,0-.72,.1-1.02,.31s-.51,.48-.62,.83-.17,.98-.17,1.91v3.76h-2.2v-8.3h2.04v1.22c.72-.94,1.64-1.41,2.73-1.41,.48,0,.93,.09,1.33,.26s.7,.4,.91,.67,.35,.58,.43,.92,.12,.84,.12,1.48v5.16Z"/><path d="M397.21,324.81l-1.99-.36c.22-.8,.61-1.4,1.16-1.78s1.36-.58,2.44-.58c.98,0,1.71,.12,2.19,.35s.82,.53,1.01,.88,.29,1.01,.29,1.96l-.02,2.56c0,.73,.04,1.27,.11,1.61s.2,.72,.39,1.11h-2.17c-.06-.15-.13-.36-.21-.65-.04-.13-.06-.22-.08-.26-.38,.36-.78,.64-1.2,.82s-.88,.27-1.37,.27c-.85,0-1.53-.23-2.02-.7s-.74-1.05-.74-1.76c0-.47,.11-.89,.34-1.25s.54-.65,.94-.84,.99-.37,1.75-.51c1.03-.19,1.74-.37,2.13-.54v-.22c0-.42-.1-.72-.31-.9s-.6-.27-1.18-.27c-.39,0-.7,.08-.91,.23s-.4,.42-.53,.81Zm2.94,1.78c-.28,.09-.73,.21-1.34,.34s-1.01,.26-1.2,.38c-.29,.2-.43,.46-.43,.77s.11,.57,.34,.8,.52,.34,.88,.34c.4,0,.77-.13,1.13-.39,.27-.2,.44-.44,.52-.73,.06-.19,.09-.54,.09-1.07v-.44Z"/><path d="M404.47,330.58v-11.45h2.2v11.45h-2.2Z"/><path d="M413.72,327.93l2.19,.37c-.28,.8-.73,1.41-1.33,1.83s-1.37,.63-2.28,.63c-1.44,0-2.51-.47-3.2-1.41-.55-.75-.82-1.71-.82-2.86,0-1.38,.36-2.45,1.08-3.23s1.63-1.17,2.73-1.17c1.23,0,2.21,.41,2.92,1.22s1.05,2.06,1.02,3.75h-5.5c.02,.65,.19,1.16,.53,1.52s.76,.54,1.27,.54c.34,0,.63-.09,.87-.28s.41-.49,.53-.91Zm.12-2.22c-.02-.64-.18-1.12-.49-1.45s-.69-.5-1.14-.5c-.48,0-.88,.17-1.19,.52s-.47,.82-.46,1.42h3.28Z"/><path d="M307.72,349.78h-2.52l-1-2.6h-4.58l-.95,2.6h-2.45l4.46-11.45h2.45l4.59,11.45Zm-4.26-4.53l-1.58-4.25-1.55,4.25h3.12Z"/><path d="M316.48,349.78h-2.2v-4.23c0-.9-.05-1.48-.14-1.74s-.25-.47-.46-.61-.46-.22-.76-.22c-.38,0-.72,.1-1.02,.31s-.51,.48-.62,.83-.17,.98-.17,1.91v3.76h-2.2v-8.3h2.04v1.22c.72-.94,1.64-1.41,2.73-1.41,.48,0,.93,.09,1.33,.26s.7,.4,.91,.67,.35,.58,.43,.92,.12,.84,.12,1.48v5.16Z"/><path d="M317.74,341.48h1.22v-.62c0-.7,.07-1.22,.22-1.56s.42-.62,.82-.84,.9-.32,1.51-.32,1.24,.09,1.84,.28l-.3,1.53c-.35-.08-.68-.12-1.01-.12s-.55,.07-.68,.22-.21,.43-.21,.86v.59h1.64v1.73h-1.64v6.57h-2.2v-6.57h-1.22v-1.73Z"/><path d="M323.52,345.51c0-.73,.18-1.43,.54-2.12s.87-1.2,1.53-1.56,1.39-.54,2.21-.54c1.25,0,2.28,.41,3.09,1.22s1.2,1.84,1.2,3.09-.41,2.3-1.21,3.12-1.83,1.24-3.06,1.24c-.76,0-1.49-.17-2.18-.52s-1.21-.85-1.57-1.51-.54-1.47-.54-2.43Zm2.25,.12c0,.82,.2,1.45,.59,1.89s.87,.66,1.45,.66,1.05-.22,1.44-.66,.58-1.07,.58-1.91-.19-1.44-.58-1.88-.87-.66-1.44-.66-1.05,.22-1.45,.66-.59,1.07-.59,1.89Z"/><path d="M335.91,349.78h-2.2v-8.3h2.04v1.18c.35-.56,.66-.92,.94-1.1s.59-.27,.95-.27c.5,0,.98,.14,1.45,.41l-.68,1.91c-.37-.24-.71-.36-1.03-.36s-.57,.08-.78,.25-.38,.48-.5,.92-.18,1.37-.18,2.78v2.56Z"/><path d="M347.64,349.78h-2.04v-1.22c-.34,.47-.74,.83-1.2,1.06s-.93,.35-1.39,.35c-.95,0-1.77-.38-2.45-1.15s-1.02-1.84-1.02-3.21,.33-2.48,.99-3.21,1.5-1.1,2.51-1.1c.93,0,1.73,.39,2.41,1.16v-4.12h2.2v11.45Zm-5.86-4.33c0,.89,.12,1.53,.37,1.92,.35,.57,.85,.86,1.48,.86,.5,0,.93-.21,1.29-.64s.53-1.07,.53-1.93c0-.95-.17-1.64-.52-2.06s-.78-.63-1.32-.63-.96,.21-1.31,.62-.53,1.03-.53,1.86Z"/><path d="M354.61,347.13l2.19,.37c-.28,.8-.73,1.41-1.33,1.83s-1.37,.63-2.28,.63c-1.44,0-2.51-.47-3.2-1.41-.55-.75-.82-1.71-.82-2.86,0-1.38,.36-2.45,1.08-3.23s1.63-1.17,2.73-1.17c1.23,0,2.21,.41,2.92,1.22s1.05,2.06,1.02,3.75h-5.5c.02,.65,.19,1.16,.53,1.52s.76,.54,1.27,.54c.34,0,.63-.09,.87-.28s.41-.49,.53-.91Zm.12-2.22c-.02-.64-.18-1.12-.49-1.45s-.69-.5-1.14-.5c-.48,0-.88,.17-1.19,.52s-.47,.82-.46,1.42h3.28Z"/><path d="M360.8,349.78h-2.2v-8.3h2.04v1.18c.35-.56,.66-.92,.94-1.1s.59-.27,.95-.27c.5,0,.98,.14,1.45,.41l-.68,1.91c-.37-.24-.71-.36-1.03-.36s-.57,.08-.78,.25-.38,.48-.5,.92-.18,1.37-.18,2.78v2.56Z"/><path d="M370.39,349.78v-1.24c-.3,.44-.7,.79-1.19,1.05s-1.01,.38-1.56,.38-1.06-.12-1.5-.37-.76-.59-.96-1.03-.3-1.05-.3-1.84v-5.25h2.2v3.81c0,1.17,.04,1.88,.12,2.14s.23,.47,.44,.62,.48,.23,.81,.23c.38,0,.71-.1,1.01-.31s.5-.46,.61-.77,.16-1.05,.16-2.24v-3.5h2.2v8.3h-2.04Z"/><path d="M382.25,349.78h-2.2v-4.23c0-.9-.05-1.48-.14-1.74s-.25-.47-.46-.61-.46-.22-.76-.22c-.38,0-.72,.1-1.02,.31s-.51,.48-.62,.83-.17,.98-.17,1.91v3.76h-2.2v-8.3h2.04v1.22c.72-.94,1.64-1.41,2.73-1.41,.48,0,.93,.09,1.33,.26s.7,.4,.91,.67,.35,.58,.43,.92,.12,.84,.12,1.48v5.16Z"/><path d="M384.27,350.32l2.51,.3c.04,.29,.14,.49,.29,.6,.21,.16,.54,.23,.98,.23,.57,0,1-.09,1.29-.26,.19-.11,.34-.3,.44-.55,.07-.18,.1-.52,.1-1.01v-1.21c-.66,.9-1.48,1.34-2.48,1.34-1.11,0-2-.47-2.65-1.41-.51-.75-.77-1.67-.77-2.78,0-1.39,.33-2.45,1-3.19s1.5-1.1,2.5-1.1,1.87,.45,2.54,1.35v-1.16h2.05v7.45c0,.98-.08,1.71-.24,2.2s-.39,.86-.68,1.14-.68,.49-1.17,.65-1.1,.23-1.85,.23c-1.41,0-2.4-.24-2.99-.72s-.88-1.09-.88-1.83c0-.07,0-.16,0-.27Zm1.96-4.87c0,.88,.17,1.52,.51,1.93s.76,.61,1.26,.61c.54,0,.99-.21,1.36-.63s.55-1.04,.55-1.86-.18-1.5-.53-1.91-.8-.62-1.34-.62-.96,.2-1.3,.61-.51,1.03-.51,1.87Z"/><path d="M399.05,347.13l2.19,.37c-.28,.8-.73,1.41-1.33,1.83s-1.37,.63-2.28,.63c-1.44,0-2.51-.47-3.2-1.41-.55-.75-.82-1.71-.82-2.86,0-1.38,.36-2.45,1.08-3.23s1.63-1.17,2.73-1.17c1.23,0,2.21,.41,2.92,1.22s1.05,2.06,1.02,3.75h-5.5c.02,.65,.19,1.16,.53,1.52s.76,.54,1.27,.54c.34,0,.63-.09,.87-.28s.41-.49,.53-.91Zm.12-2.22c-.02-.64-.18-1.12-.49-1.45s-.69-.5-1.14-.5c-.48,0-.88,.17-1.19,.52s-.47,.82-.46,1.42h3.28Z"/><path d="M410.7,349.78h-2.2v-4.23c0-.9-.05-1.48-.14-1.74s-.25-.47-.46-.61-.46-.22-.76-.22c-.38,0-.72,.1-1.02,.31s-.51,.48-.62,.83-.17,.98-.17,1.91v3.76h-2.2v-8.3h2.04v1.22c.72-.94,1.64-1.41,2.73-1.41,.48,0,.93,.09,1.33,.26s.7,.4,.91,.67,.35,.58,.43,.92,.12,.84,.12,1.48v5.16Z"/></g><polyline points="494 146.32 494 171.32 244 171.32 244 196.32" style="fill:none; stroke:#000;"/><polyline points="594 196.32 594 171.32 494 171.32" style="fill:none; stroke:#000;"/><polyline points="844 196.32 844 171.32 594 171.32" style="fill:none; stroke:#000;"/><polyline points="244 256.32 244 284.19 144 284.19 144 306.32" style="fill:#fff; stroke:#000;"/><polyline points="354 306.32 354 284.19 244 284.19" style="fill:#fff; stroke:#000;"/><text transform="translate(80.43 423.05)" style="fill:#0333ff; font-family:Arial-BoldMT, Arial; font-size:16px; font-weight:700;"><tspan x="0" y="0">Passt die Software zu den Anforderungen?</tspan></text><g><path d="M536.41,413.45v-11.45h2.31v11.45h-2.31Z" style="fill:#0333ff;"/><path d="M540.14,411.09l2.2-.34c.09,.43,.28,.75,.57,.97s.69,.33,1.2,.33c.57,0,1-.1,1.28-.31,.19-.15,.29-.34,.29-.59,0-.17-.05-.3-.16-.41-.11-.1-.35-.2-.73-.29-1.77-.39-2.89-.75-3.37-1.07-.66-.45-.98-1.07-.98-1.87,0-.72,.28-1.32,.85-1.81s1.45-.73,2.64-.73,1.98,.18,2.53,.55,.93,.92,1.14,1.64l-2.07,.38c-.09-.32-.26-.57-.5-.74s-.6-.26-1.06-.26c-.58,0-.99,.08-1.24,.24-.17,.11-.25,.26-.25,.45,0,.16,.07,.29,.22,.4,.2,.15,.88,.35,2.05,.62s1.99,.59,2.45,.98c.46,.39,.69,.93,.69,1.63,0,.76-.32,1.41-.95,1.96s-1.58,.82-2.82,.82c-1.13,0-2.02-.23-2.68-.69s-1.09-1.08-1.29-1.87Z" style="fill:#0333ff;"/><path d="M553.62,405.16v1.75h-1.5v3.34c0,.68,.01,1.07,.04,1.18s.09,.2,.2,.28,.23,.11,.37,.11c.2,0,.5-.07,.88-.21l.19,1.7c-.51,.22-1.09,.33-1.73,.33-.4,0-.75-.07-1.07-.2s-.55-.3-.7-.52-.25-.5-.31-.86c-.05-.25-.07-.77-.07-1.55v-3.62h-1.01v-1.75h1.01v-1.65l2.2-1.28v2.93h1.5Z" style="fill:#0333ff;"/><path d="M567.2,413.45h-2.04v-1.22c-.34,.47-.74,.83-1.2,1.06s-.93,.35-1.39,.35c-.95,0-1.77-.38-2.45-1.15s-1.02-1.84-1.02-3.21,.33-2.48,.99-3.21,1.5-1.1,2.51-1.1c.93,0,1.73,.39,2.41,1.16v-4.12h2.2v11.45Zm-5.86-4.33c0,.89,.12,1.53,.37,1.92,.35,.57,.85,.86,1.48,.86,.5,0,.93-.21,1.29-.64s.53-1.07,.53-1.93c0-.95-.17-1.64-.52-2.06s-.78-.63-1.32-.63-.96,.21-1.31,.62-.53,1.03-.53,1.86Z" style="fill:#0333ff;"/><path d="M574.16,410.81l2.19,.37c-.28,.8-.73,1.41-1.33,1.83s-1.37,.63-2.28,.63c-1.44,0-2.51-.47-3.2-1.41-.55-.75-.82-1.71-.82-2.86,0-1.38,.36-2.45,1.08-3.23s1.63-1.17,2.73-1.17c1.23,0,2.21,.41,2.92,1.22s1.05,2.06,1.02,3.75h-5.5c.02,.65,.19,1.16,.53,1.52s.76,.54,1.27,.54c.34,0,.63-.09,.87-.28s.41-.49,.53-.91Zm.12-2.22c-.02-.64-.18-1.12-.49-1.45s-.69-.5-1.14-.5c-.48,0-.88,.17-1.19,.52s-.47,.82-.46,1.42h3.28Z" style="fill:#0333ff;"/><path d="M580.36,413.45h-2.2v-8.3h2.04v1.18c.35-.56,.66-.92,.94-1.1s.59-.27,.95-.27c.5,0,.98,.14,1.45,.41l-.68,1.91c-.37-.24-.71-.36-1.03-.36s-.57,.08-.78,.25-.38,.48-.5,.92-.18,1.37-.18,2.78v2.56Z" style="fill:#0333ff;"/><path d="M599.27,413.45h-2.52l-1-2.6h-4.58l-.95,2.6h-2.45l4.46-11.45h2.45l4.59,11.45Zm-4.26-4.53l-1.58-4.25-1.55,4.25h3.12Z" style="fill:#0333ff;"/><path d="M608.03,413.45h-2.2v-4.23c0-.9-.05-1.48-.14-1.74s-.25-.47-.46-.61-.46-.22-.76-.22c-.38,0-.72,.1-1.02,.31s-.51,.48-.62,.83-.17,.98-.17,1.91v3.76h-2.2v-8.3h2.04v1.22c.72-.94,1.64-1.41,2.73-1.41,.48,0,.93,.09,1.33,.26s.7,.4,.91,.67,.35,.58,.43,.92,.12,.84,.12,1.48v5.16Z" style="fill:#0333ff;"/><path d="M610.16,413.45v-11.45h2.2v4.12c.68-.77,1.48-1.16,2.41-1.16,1.01,0,1.85,.37,2.51,1.1s.99,1.78,.99,3.15-.34,2.51-1.01,3.27-1.49,1.15-2.46,1.15c-.47,0-.94-.12-1.4-.36s-.86-.59-1.19-1.05v1.22h-2.04Zm2.18-4.33c0,.86,.14,1.5,.41,1.91,.38,.58,.89,.88,1.52,.88,.48,0,.9-.21,1.24-.62s.51-1.07,.51-1.96c0-.95-.17-1.63-.52-2.05s-.78-.63-1.32-.63-.96,.2-1.31,.61-.52,1.03-.52,1.86Z" style="fill:#0333ff;"/><path d="M620.03,404.03v-2.03h2.2v2.03h-2.2Zm0,9.42v-8.3h2.2v8.3h-2.2Z" style="fill:#0333ff;"/><path d="M629.28,410.81l2.19,.37c-.28,.8-.73,1.41-1.33,1.83s-1.37,.63-2.28,.63c-1.44,0-2.51-.47-3.2-1.41-.55-.75-.82-1.71-.82-2.86,0-1.38,.36-2.45,1.08-3.23s1.63-1.17,2.73-1.17c1.23,0,2.21,.41,2.92,1.22s1.05,2.06,1.02,3.75h-5.5c.02,.65,.19,1.16,.53,1.52s.76,.54,1.27,.54c.34,0,.63-.09,.87-.28s.41-.49,.53-.91Zm.12-2.22c-.02-.64-.18-1.12-.49-1.45s-.69-.5-1.14-.5c-.48,0-.88,.17-1.19,.52s-.47,.82-.46,1.42h3.28Z" style="fill:#0333ff;"/><path d="M637.18,405.16v1.75h-1.5v3.34c0,.68,.01,1.07,.04,1.18s.09,.2,.2,.28,.23,.11,.37,.11c.2,0,.5-.07,.88-.21l.19,1.7c-.51,.22-1.09,.33-1.73,.33-.4,0-.75-.07-1.07-.2s-.55-.3-.7-.52-.25-.5-.31-.86c-.05-.25-.07-.77-.07-1.55v-3.62h-1.01v-1.75h1.01v-1.65l2.2-1.28v2.93h1.5Z" style="fill:#0333ff;"/><path d="M643.51,410.81l2.19,.37c-.28,.8-.73,1.41-1.33,1.83s-1.37,.63-2.28,.63c-1.44,0-2.51-.47-3.2-1.41-.55-.75-.82-1.71-.82-2.86,0-1.38,.36-2.45,1.08-3.23s1.63-1.17,2.73-1.17c1.23,0,2.21,.41,2.92,1.22s1.05,2.06,1.02,3.75h-5.5c.02,.65,.19,1.16,.53,1.52s.76,.54,1.27,.54c.34,0,.63-.09,.87-.28s.41-.49,.53-.91Zm.12-2.22c-.02-.64-.18-1.12-.49-1.45s-.69-.5-1.14-.5c-.48,0-.88,.17-1.19,.52s-.47,.82-.46,1.42h3.28Z" style="fill:#0333ff;"/><path d="M649.7,413.45h-2.2v-8.3h2.04v1.18c.35-.56,.66-.92,.94-1.1s.59-.27,.95-.27c.5,0,.98,.14,1.45,.41l-.68,1.91c-.37-.24-.71-.36-1.03-.36s-.57,.08-.78,.25-.38,.48-.5,.92-.18,1.37-.18,2.78v2.56Z" style="fill:#0333ff;"/><path d="M524.07,432.65h-2.04v-1.22c-.34,.47-.74,.83-1.2,1.06s-.93,.35-1.39,.35c-.95,0-1.77-.38-2.45-1.15s-1.02-1.84-1.02-3.21,.33-2.48,.99-3.21,1.5-1.1,2.51-1.1c.93,0,1.73,.39,2.41,1.16v-4.12h2.2v11.45Zm-5.86-4.33c0,.89,.12,1.53,.37,1.92,.35,.57,.85,.86,1.48,.86,.5,0,.93-.21,1.29-.64s.53-1.07,.53-1.93c0-.95-.17-1.64-.52-2.06s-.78-.63-1.32-.63-.96,.21-1.31,.62-.53,1.03-.53,1.86Z" style="fill:#0333ff;"/><path d="M531.04,430.01l2.19,.37c-.28,.8-.73,1.41-1.33,1.83s-1.37,.63-2.28,.63c-1.44,0-2.51-.47-3.2-1.41-.55-.75-.82-1.71-.82-2.86,0-1.38,.36-2.45,1.08-3.23s1.63-1.17,2.73-1.17c1.23,0,2.21,.41,2.92,1.22s1.05,2.06,1.02,3.75h-5.5c.02,.65,.19,1.16,.53,1.52s.76,.54,1.27,.54c.34,0,.63-.09,.87-.28s.41-.49,.53-.91Zm.12-2.22c-.02-.64-.18-1.12-.49-1.45s-.69-.5-1.14-.5c-.48,0-.88,.17-1.19,.52s-.47,.82-.46,1.42h3.28Z" style="fill:#0333ff;"/><path d="M537.23,432.65h-2.2v-8.3h2.04v1.18c.35-.56,.66-.92,.94-1.1s.59-.27,.95-.27c.5,0,.98,.14,1.45,.41l-.68,1.91c-.37-.24-.71-.36-1.03-.36s-.57,.08-.78,.25-.38,.48-.5,.92-.18,1.37-.18,2.78v2.56Z" style="fill:#0333ff;"/><path d="M547.91,432.65h-2.2v-8.3h2.04v1.18c.35-.56,.66-.92,.94-1.1s.59-.27,.95-.27c.5,0,.98,.14,1.45,.41l-.68,1.91c-.37-.24-.71-.36-1.03-.36s-.57,.08-.78,.25-.38,.48-.5,.92-.18,1.37-.18,2.78v2.56Z" style="fill:#0333ff;"/><path d="M552.03,423.23v-2.03h2.2v2.03h-2.2Zm0,9.42v-8.3h2.2v8.3h-2.2Z" style="fill:#0333ff;"/><path d="M563.71,426.81l-2.16,.39c-.07-.43-.24-.76-.5-.98s-.59-.33-1-.33c-.55,0-.98,.19-1.31,.57s-.49,1.01-.49,1.89c0,.98,.17,1.68,.5,2.09s.77,.61,1.33,.61c.42,0,.76-.12,1.02-.36s.45-.64,.56-1.22l2.16,.37c-.22,.99-.65,1.74-1.29,2.24s-1.49,.76-2.55,.76c-1.21,0-2.18-.38-2.9-1.15s-1.08-1.83-1.08-3.18,.36-2.44,1.09-3.2,1.7-1.14,2.94-1.14c1.01,0,1.81,.22,2.41,.65s1.02,1.1,1.29,1.99Z" style="fill:#0333ff;"/><path d="M567.56,421.2v4.21c.71-.83,1.55-1.24,2.54-1.24,.5,0,.96,.09,1.37,.28s.71,.43,.92,.72,.35,.61,.42,.97,.11,.9,.11,1.65v4.87h-2.2v-4.38c0-.87-.04-1.42-.12-1.66s-.23-.42-.44-.56-.48-.21-.79-.21c-.36,0-.69,.09-.98,.27s-.5,.44-.63,.8-.2,.88-.2,1.58v4.16h-2.2v-11.45h2.2Z" style="fill:#0333ff;"/><path d="M578.95,424.36v1.75h-1.5v3.34c0,.68,.01,1.07,.04,1.18s.09,.2,.2,.28,.23,.11,.37,.11c.2,0,.5-.07,.88-.21l.19,1.7c-.51,.22-1.09,.33-1.73,.33-.4,0-.75-.07-1.07-.2s-.55-.3-.7-.52-.25-.5-.31-.86c-.05-.25-.07-.77-.07-1.55v-3.62h-1.01v-1.75h1.01v-1.65l2.2-1.28v2.93h1.5Z" style="fill:#0333ff;"/><path d="M580.48,423.23v-2.03h2.2v2.03h-2.2Zm0,9.42v-8.3h2.2v8.3h-2.2Z" style="fill:#0333ff;"/><path d="M584.72,433.2l2.51,.3c.04,.29,.14,.49,.29,.6,.21,.16,.54,.23,.98,.23,.57,0,1-.09,1.29-.26,.19-.11,.34-.3,.44-.55,.07-.18,.1-.52,.1-1.01v-1.21c-.66,.9-1.48,1.34-2.48,1.34-1.11,0-2-.47-2.65-1.41-.51-.75-.77-1.67-.77-2.78,0-1.39,.33-2.45,1-3.19s1.5-1.1,2.5-1.1,1.87,.45,2.54,1.35v-1.16h2.05v7.45c0,.98-.08,1.71-.24,2.2s-.39,.86-.68,1.14-.68,.49-1.17,.65-1.1,.23-1.85,.23c-1.41,0-2.4-.24-2.99-.72s-.88-1.09-.88-1.83c0-.07,0-.16,0-.27Zm1.96-4.87c0,.88,.17,1.52,.51,1.93s.76,.61,1.26,.61c.54,0,.99-.21,1.36-.63s.55-1.04,.55-1.86-.18-1.5-.53-1.91-.8-.62-1.34-.62-.96,.2-1.3,.61-.51,1.03-.51,1.87Z" style="fill:#0333ff;"/><path d="M599.5,430.01l2.19,.37c-.28,.8-.73,1.41-1.33,1.83s-1.37,.63-2.28,.63c-1.44,0-2.51-.47-3.2-1.41-.55-.75-.82-1.71-.82-2.86,0-1.38,.36-2.45,1.08-3.23s1.63-1.17,2.73-1.17c1.23,0,2.21,.41,2.92,1.22s1.05,2.06,1.02,3.75h-5.5c.02,.65,.19,1.16,.53,1.52s.76,.54,1.27,.54c.34,0,.63-.09,.87-.28s.41-.49,.53-.91Zm.12-2.22c-.02-.64-.18-1.12-.49-1.45s-.69-.5-1.14-.5c-.48,0-.88,.17-1.19,.52s-.47,.82-.46,1.42h3.28Z" style="fill:#0333ff;"/><path d="M608.05,432.65v-11.45h3.71c1.41,0,2.32,.06,2.75,.17,.66,.17,1.21,.55,1.65,1.12s.66,1.32,.66,2.23c0,.7-.13,1.29-.38,1.77s-.58,.86-.97,1.13-.79,.45-1.2,.54c-.55,.11-1.35,.16-2.4,.16h-1.51v4.32h-2.31Zm2.31-9.52v3.25h1.27c.91,0,1.52-.06,1.83-.18s.55-.31,.72-.56,.26-.55,.26-.89c0-.42-.12-.76-.37-1.03s-.55-.44-.93-.51c-.28-.05-.83-.08-1.66-.08h-1.12Z" style="fill:#0333ff;"/><path d="M620.35,426.89l-1.99-.36c.22-.8,.61-1.4,1.16-1.78s1.36-.58,2.44-.58c.98,0,1.71,.12,2.19,.35s.82,.53,1.01,.88,.29,1.01,.29,1.96l-.02,2.56c0,.73,.04,1.27,.11,1.61s.2,.72,.39,1.11h-2.17c-.06-.15-.13-.36-.21-.65-.04-.13-.06-.22-.08-.26-.38,.36-.78,.64-1.2,.82s-.88,.27-1.37,.27c-.85,0-1.53-.23-2.02-.7s-.74-1.05-.74-1.76c0-.47,.11-.89,.34-1.25s.54-.65,.94-.84,.99-.37,1.75-.51c1.03-.19,1.74-.37,2.13-.54v-.22c0-.42-.1-.72-.31-.9s-.6-.27-1.18-.27c-.39,0-.7,.08-.91,.23s-.4,.42-.53,.81Zm2.94,1.78c-.28,.09-.73,.21-1.34,.34s-1.01,.26-1.2,.38c-.29,.2-.43,.46-.43,.77s.11,.57,.34,.8,.52,.34,.88,.34c.4,0,.77-.13,1.13-.39,.27-.2,.44-.44,.52-.73,.06-.19,.09-.54,.09-1.07v-.44Z" style="fill:#0333ff;"/><path d="M629.71,432.65h-2.2v-8.3h2.04v1.18c.35-.56,.66-.92,.94-1.1s.59-.27,.95-.27c.5,0,.98,.14,1.45,.41l-.68,1.91c-.37-.24-.71-.36-1.03-.36s-.57,.08-.78,.25-.38,.48-.5,.92-.18,1.37-.18,2.78v2.56Z" style="fill:#0333ff;"/><path d="M637.64,424.36v1.75h-1.5v3.34c0,.68,.01,1.07,.04,1.18s.09,.2,.2,.28,.23,.11,.37,.11c.2,0,.5-.07,.88-.21l.19,1.7c-.51,.22-1.09,.33-1.73,.33-.4,0-.75-.07-1.07-.2s-.55-.3-.7-.52-.25-.5-.31-.86c-.05-.25-.07-.77-.07-1.55v-3.62h-1.01v-1.75h1.01v-1.65l2.2-1.28v2.93h1.5Z" style="fill:#0333ff;"/><path d="M646.71,432.65h-2.2v-4.23c0-.9-.05-1.48-.14-1.74s-.25-.47-.46-.61-.46-.22-.76-.22c-.38,0-.72,.1-1.02,.31s-.51,.48-.62,.83-.17,.98-.17,1.91v3.76h-2.2v-8.3h2.04v1.22c.72-.94,1.64-1.41,2.73-1.41,.48,0,.93,.09,1.33,.26s.7,.4,.91,.67,.35,.58,.43,.92,.12,.84,.12,1.48v5.16Z" style="fill:#0333ff;"/><path d="M653.74,430.01l2.19,.37c-.28,.8-.73,1.41-1.33,1.83s-1.37,.63-2.28,.63c-1.44,0-2.51-.47-3.2-1.41-.55-.75-.82-1.71-.82-2.86,0-1.38,.36-2.45,1.08-3.23s1.63-1.17,2.73-1.17c1.23,0,2.21,.41,2.92,1.22s1.05,2.06,1.02,3.75h-5.5c.02,.65,.19,1.16,.53,1.52s.76,.54,1.27,.54c.34,0,.63-.09,.87-.28s.41-.49,.53-.91Zm.12-2.22c-.02-.64-.18-1.12-.49-1.45s-.69-.5-1.14-.5c-.48,0-.88,.17-1.19,.52s-.47,.82-.46,1.42h3.28Z" style="fill:#0333ff;"/><path d="M659.94,432.65h-2.2v-8.3h2.04v1.18c.35-.56,.66-.92,.94-1.1s.59-.27,.95-.27c.5,0,.98,.14,1.45,.41l-.68,1.91c-.37-.24-.71-.36-1.03-.36s-.57,.08-.78,.25-.38,.48-.5,.92-.18,1.37-.18,2.78v2.56Z" style="fill:#0333ff;"/><path d="M668.78,429.7h-1.99c0-.29,0-.46,0-.52,0-.65,.11-1.18,.32-1.59s.64-.89,1.28-1.41,1.02-.86,1.15-1.02c.19-.25,.29-.54,.29-.84,0-.43-.17-.79-.51-1.1s-.8-.46-1.38-.46-1.02,.16-1.4,.48-.63,.8-.77,1.45l-2.02-.25c.06-.93,.45-1.72,1.19-2.38s1.7-.98,2.9-.98c1.26,0,2.26,.33,3.01,.99s1.12,1.43,1.12,2.3c0,.48-.14,.94-.41,1.38s-.86,1.02-1.75,1.77c-.46,.39-.75,.7-.86,.93s-.16,.65-.15,1.26Zm-1.99,2.95v-2.2h2.2v2.2h-2.2Z" style="fill:#0333ff;"/></g><g><path d="M797.89,413.45l-2.73-11.45h2.37l1.73,7.87,2.09-7.87h2.75l2.01,8,1.76-8h2.33l-2.78,11.45h-2.45l-2.28-8.56-2.27,8.56h-2.51Z" style="fill:#0333ff;"/><path d="M811.36,404.03v-2.03h2.2v2.03h-2.2Zm0,9.42v-8.3h2.2v8.3h-2.2Z" style="fill:#0333ff;"/><path d="M820.61,410.81l2.19,.37c-.28,.8-.73,1.41-1.33,1.83s-1.37,.63-2.28,.63c-1.44,0-2.51-.47-3.2-1.41-.55-.75-.82-1.71-.82-2.86,0-1.38,.36-2.45,1.08-3.23s1.63-1.17,2.73-1.17c1.23,0,2.21,.41,2.92,1.22s1.05,2.06,1.02,3.75h-5.5c.02,.65,.19,1.16,.53,1.52s.76,.54,1.27,.54c.34,0,.63-.09,.87-.28s.41-.49,.53-.91Zm.12-2.22c-.02-.64-.18-1.12-.49-1.45s-.69-.5-1.14-.5c-.48,0-.88,.17-1.19,.52s-.47,.82-.46,1.42h3.28Z" style="fill:#0333ff;"/><path d="M828.37,411.09l2.2-.34c.09,.43,.28,.75,.57,.97s.69,.33,1.2,.33c.57,0,1-.1,1.28-.31,.19-.15,.29-.34,.29-.59,0-.17-.05-.3-.16-.41-.11-.1-.35-.2-.73-.29-1.77-.39-2.89-.75-3.37-1.07-.66-.45-.98-1.07-.98-1.87,0-.72,.28-1.32,.85-1.81s1.45-.73,2.64-.73,1.98,.18,2.53,.55,.93,.92,1.14,1.64l-2.07,.38c-.09-.32-.26-.57-.5-.74s-.6-.26-1.06-.26c-.58,0-.99,.08-1.24,.24-.17,.11-.25,.26-.25,.45,0,.16,.07,.29,.22,.4,.2,.15,.88,.35,2.05,.62s1.99,.59,2.45,.98c.46,.39,.69,.93,.69,1.63,0,.76-.32,1.41-.95,1.96s-1.58,.82-2.82,.82c-1.13,0-2.02-.23-2.68-.69s-1.09-1.08-1.29-1.87Z" style="fill:#0333ff;"/><path d="M838.04,404.03v-2.03h2.2v2.03h-2.2Zm0,9.42v-8.3h2.2v8.3h-2.2Z" style="fill:#0333ff;"/><path d="M850.04,413.45h-2.2v-4.23c0-.9-.05-1.48-.14-1.74s-.25-.47-.46-.61-.46-.22-.76-.22c-.38,0-.72,.1-1.02,.31s-.51,.48-.62,.83-.17,.98-.17,1.91v3.76h-2.2v-8.3h2.04v1.22c.72-.94,1.64-1.41,2.73-1.41,.48,0,.93,.09,1.33,.26s.7,.4,.91,.67,.35,.58,.43,.92,.12,.84,.12,1.48v5.16Z" style="fill:#0333ff;"/><path d="M859.87,413.45h-2.04v-1.22c-.34,.47-.74,.83-1.2,1.06s-.93,.35-1.39,.35c-.95,0-1.77-.38-2.45-1.15s-1.02-1.84-1.02-3.21,.33-2.48,.99-3.21,1.5-1.1,2.51-1.1c.93,0,1.73,.39,2.41,1.16v-4.12h2.2v11.45Zm-5.86-4.33c0,.89,.12,1.53,.37,1.92,.35,.57,.85,.86,1.48,.86,.5,0,.93-.21,1.29-.64s.53-1.07,.53-1.93c0-.95-.17-1.64-.52-2.06s-.78-.63-1.32-.63-.96,.21-1.31,.62-.53,1.03-.53,1.86Z" style="fill:#0333ff;"/><path d="M874.09,413.45h-2.04v-1.22c-.34,.47-.74,.83-1.2,1.06s-.93,.35-1.39,.35c-.95,0-1.77-.38-2.45-1.15s-1.02-1.84-1.02-3.21,.33-2.48,.99-3.21,1.5-1.1,2.51-1.1c.93,0,1.73,.39,2.41,1.16v-4.12h2.2v11.45Zm-5.86-4.33c0,.89,.12,1.53,.37,1.92,.35,.57,.85,.86,1.48,.86,.5,0,.93-.21,1.29-.64s.53-1.07,.53-1.93c0-.95-.17-1.64-.52-2.06s-.78-.63-1.32-.63-.96,.21-1.31,.62-.53,1.03-.53,1.86Z" style="fill:#0333ff;"/><path d="M876.25,404.03v-2.03h2.2v2.03h-2.2Zm0,9.42v-8.3h2.2v8.3h-2.2Z" style="fill:#0333ff;"/><path d="M885.5,410.81l2.19,.37c-.28,.8-.73,1.41-1.33,1.83s-1.37,.63-2.28,.63c-1.44,0-2.51-.47-3.2-1.41-.55-.75-.82-1.71-.82-2.86,0-1.38,.36-2.45,1.08-3.23s1.63-1.17,2.73-1.17c1.23,0,2.21,.41,2.92,1.22s1.05,2.06,1.02,3.75h-5.5c.02,.65,.19,1.16,.53,1.52s.76,.54,1.27,.54c.34,0,.63-.09,.87-.28s.41-.49,.53-.91Zm.12-2.22c-.02-.64-.18-1.12-.49-1.45s-.69-.5-1.14-.5c-.48,0-.88,.17-1.19,.52s-.47,.82-.46,1.42h3.28Z" style="fill:#0333ff;"/><path d="M758.51,432.65v-11.45h4.87c1.22,0,2.11,.1,2.67,.31s1,.57,1.33,1.1,.5,1.13,.5,1.8c0,.86-.25,1.57-.76,2.13s-1.26,.91-2.27,1.06c.5,.29,.91,.61,1.24,.96s.76,.97,1.32,1.86l1.4,2.23h-2.77l-1.67-2.49c-.59-.89-1-1.45-1.22-1.68s-.45-.39-.7-.48-.63-.13-1.16-.13h-.47v4.78h-2.31Zm2.31-6.61h1.71c1.11,0,1.8-.05,2.08-.14s.49-.25,.65-.48,.23-.52,.23-.86c0-.39-.1-.7-.31-.93s-.5-.39-.87-.45c-.19-.03-.75-.04-1.69-.04h-1.8v2.91Z" style="fill:#0333ff;"/><path d="M771.68,426.89l-1.99-.36c.22-.8,.61-1.4,1.16-1.78s1.36-.58,2.44-.58c.98,0,1.71,.12,2.19,.35s.82,.53,1.01,.88,.29,1.01,.29,1.96l-.02,2.56c0,.73,.04,1.27,.11,1.61s.2,.72,.39,1.11h-2.17c-.06-.15-.13-.36-.21-.65-.04-.13-.06-.22-.08-.26-.38,.36-.78,.64-1.2,.82s-.88,.27-1.37,.27c-.85,0-1.53-.23-2.02-.7s-.74-1.05-.74-1.76c0-.47,.11-.89,.34-1.25s.54-.65,.94-.84,.99-.37,1.75-.51c1.03-.19,1.74-.37,2.13-.54v-.22c0-.42-.1-.72-.31-.9s-.6-.27-1.18-.27c-.39,0-.7,.08-.91,.23s-.4,.42-.53,.81Zm2.94,1.78c-.28,.09-.73,.21-1.34,.34s-1.01,.26-1.2,.38c-.29,.2-.43,.46-.43,.77s.11,.57,.34,.8,.52,.34,.88,.34c.4,0,.77-.13,1.13-.39,.27-.2,.44-.44,.52-.73,.06-.19,.09-.54,.09-1.07v-.44Z" style="fill:#0333ff;"/><path d="M781.12,421.2v4.21c.71-.83,1.55-1.24,2.54-1.24,.5,0,.96,.09,1.37,.28s.71,.43,.92,.72,.35,.61,.42,.97,.11,.9,.11,1.65v4.87h-2.2v-4.38c0-.87-.04-1.42-.12-1.66s-.23-.42-.44-.56-.48-.21-.79-.21c-.36,0-.69,.09-.98,.27s-.5,.44-.63,.8-.2,.88-.2,1.58v4.16h-2.2v-11.45h2.2Z" style="fill:#0333ff;"/><path d="M788.55,424.36h2.02v1.13c.72-.88,1.59-1.32,2.59-1.32,.53,0,.99,.11,1.38,.33s.71,.55,.96,.99c.36-.44,.76-.77,1.18-.99s.87-.33,1.35-.33c.61,0,1.12,.12,1.55,.37s.74,.61,.95,1.09c.15,.35,.23,.93,.23,1.72v5.3h-2.2v-4.74c0-.82-.08-1.35-.23-1.59-.2-.31-.52-.47-.94-.47-.31,0-.6,.09-.87,.28s-.47,.46-.59,.82-.18,.93-.18,1.71v3.98h-2.2v-4.55c0-.81-.04-1.33-.12-1.56s-.2-.41-.36-.52-.39-.17-.67-.17c-.34,0-.64,.09-.91,.27s-.46,.45-.58,.79-.18,.91-.18,1.71v4.03h-2.2v-8.3Z" style="fill:#0333ff;"/><path d="M807.74,430.01l2.19,.37c-.28,.8-.73,1.41-1.33,1.83s-1.37,.63-2.28,.63c-1.44,0-2.51-.47-3.2-1.41-.55-.75-.82-1.71-.82-2.86,0-1.38,.36-2.45,1.08-3.23s1.63-1.17,2.73-1.17c1.23,0,2.21,.41,2.92,1.22s1.05,2.06,1.02,3.75h-5.5c.02,.65,.19,1.16,.53,1.52s.76,.54,1.27,.54c.34,0,.63-.09,.87-.28s.41-.49,.53-.91Zm.12-2.22c-.02-.64-.18-1.12-.49-1.45s-.69-.5-1.14-.5c-.48,0-.88,.17-1.19,.52s-.47,.82-.46,1.42h3.28Z" style="fill:#0333ff;"/><path d="M819.38,432.65h-2.2v-4.23c0-.9-.05-1.48-.14-1.74s-.25-.47-.46-.61-.46-.22-.76-.22c-.38,0-.72,.1-1.02,.31s-.51,.48-.62,.83-.17,.98-.17,1.91v3.76h-2.2v-8.3h2.04v1.22c.72-.94,1.64-1.41,2.73-1.41,.48,0,.93,.09,1.33,.26s.7,.4,.91,.67,.35,.58,.43,.92,.12,.84,.12,1.48v5.16Z" style="fill:#0333ff;"/><path d="M821.52,432.65v-11.45h2.2v4.12c.68-.77,1.48-1.16,2.41-1.16,1.01,0,1.85,.37,2.51,1.1s.99,1.78,.99,3.15-.34,2.51-1.01,3.27-1.49,1.15-2.46,1.15c-.47,0-.94-.12-1.4-.36s-.86-.59-1.19-1.05v1.22h-2.04Zm2.18-4.33c0,.86,.14,1.5,.41,1.91,.38,.58,.89,.88,1.52,.88,.48,0,.9-.21,1.24-.62s.51-1.07,.51-1.96c0-.95-.17-1.63-.52-2.05s-.78-.63-1.32-.63-.96,.2-1.31,.61-.52,1.03-.52,1.86Z" style="fill:#0333ff;"/><path d="M836.19,430.01l2.19,.37c-.28,.8-.73,1.41-1.33,1.83s-1.37,.63-2.28,.63c-1.44,0-2.51-.47-3.2-1.41-.55-.75-.82-1.71-.82-2.86,0-1.38,.36-2.45,1.08-3.23s1.63-1.17,2.73-1.17c1.23,0,2.21,.41,2.92,1.22s1.05,2.06,1.02,3.75h-5.5c.02,.65,.19,1.16,.53,1.52s.76,.54,1.27,.54c.34,0,.63-.09,.87-.28s.41-.49,.53-.91Zm.12-2.22c-.02-.64-.18-1.12-.49-1.45s-.69-.5-1.14-.5c-.48,0-.88,.17-1.19,.52s-.47,.82-.46,1.42h3.28Z" style="fill:#0333ff;"/><path d="M847.89,432.65h-2.04v-1.22c-.34,.47-.74,.83-1.2,1.06s-.93,.35-1.39,.35c-.95,0-1.77-.38-2.45-1.15s-1.02-1.84-1.02-3.21,.33-2.48,.99-3.21,1.5-1.1,2.51-1.1c.93,0,1.73,.39,2.41,1.16v-4.12h2.2v11.45Zm-5.86-4.33c0,.89,.12,1.53,.37,1.92,.35,.57,.85,.86,1.48,.86,.5,0,.93-.21,1.29-.64s.53-1.07,.53-1.93c0-.95-.17-1.64-.52-2.06s-.78-.63-1.32-.63-.96,.21-1.31,.62-.53,1.03-.53,1.86Z" style="fill:#0333ff;"/><path d="M850.05,423.23v-2.03h2.2v2.03h-2.2Zm0,9.42v-8.3h2.2v8.3h-2.2Z" style="fill:#0333ff;"/><path d="M862.05,432.65h-2.2v-4.23c0-.9-.05-1.48-.14-1.74s-.25-.47-.46-.61-.46-.22-.76-.22c-.38,0-.72,.1-1.02,.31s-.51,.48-.62,.83-.17,.98-.17,1.91v3.76h-2.2v-8.3h2.04v1.22c.72-.94,1.64-1.41,2.73-1.41,.48,0,.93,.09,1.33,.26s.7,.4,.91,.67,.35,.58,.43,.92,.12,.84,.12,1.48v5.16Z" style="fill:#0333ff;"/><path d="M864.07,433.2l2.51,.3c.04,.29,.14,.49,.29,.6,.21,.16,.54,.23,.98,.23,.57,0,1-.09,1.29-.26,.19-.11,.34-.3,.44-.55,.07-.18,.1-.52,.1-1.01v-1.21c-.66,.9-1.48,1.34-2.48,1.34-1.11,0-2-.47-2.65-1.41-.51-.75-.77-1.67-.77-2.78,0-1.39,.33-2.45,1-3.19s1.5-1.1,2.5-1.1,1.87,.45,2.54,1.35v-1.16h2.05v7.45c0,.98-.08,1.71-.24,2.2s-.39,.86-.68,1.14-.68,.49-1.17,.65-1.1,.23-1.85,.23c-1.41,0-2.4-.24-2.99-.72s-.88-1.09-.88-1.83c0-.07,0-.16,0-.27Zm1.96-4.87c0,.88,.17,1.52,.51,1.93s.76,.61,1.26,.61c.54,0,.99-.21,1.36-.63s.55-1.04,.55-1.86-.18-1.5-.53-1.91-.8-.62-1.34-.62-.96,.2-1.3,.61-.51,1.03-.51,1.87Z" style="fill:#0333ff;"/><path d="M879.51,432.65v-1.24c-.3,.44-.7,.79-1.19,1.05s-1.01,.38-1.56,.38-1.06-.12-1.5-.37-.76-.59-.96-1.03-.3-1.05-.3-1.84v-5.25h2.2v3.81c0,1.17,.04,1.88,.12,2.14s.23,.47,.44,.62,.48,.23,.81,.23c.38,0,.71-.1,1.01-.31s.5-.46,.61-.77,.16-1.05,.16-2.24v-3.5h2.2v8.3h-2.04Z" style="fill:#0333ff;"/><path d="M891.37,432.65h-2.2v-4.23c0-.9-.05-1.48-.14-1.74s-.25-.47-.46-.61-.46-.22-.76-.22c-.38,0-.72,.1-1.02,.31s-.51,.48-.62,.83-.17,.98-.17,1.91v3.76h-2.2v-8.3h2.04v1.22c.72-.94,1.64-1.41,2.73-1.41,.48,0,.93,.09,1.33,.26s.7,.4,.91,.67,.35,.58,.43,.92,.12,.84,.12,1.48v5.16Z" style="fill:#0333ff;"/><path d="M893.39,433.2l2.51,.3c.04,.29,.14,.49,.29,.6,.21,.16,.54,.23,.98,.23,.57,0,1-.09,1.29-.26,.19-.11,.34-.3,.44-.55,.07-.18,.1-.52,.1-1.01v-1.21c-.66,.9-1.48,1.34-2.48,1.34-1.11,0-2-.47-2.65-1.41-.51-.75-.77-1.67-.77-2.78,0-1.39,.33-2.45,1-3.19s1.5-1.1,2.5-1.1,1.87,.45,2.54,1.35v-1.16h2.05v7.45c0,.98-.08,1.71-.24,2.2s-.39,.86-.68,1.14-.68,.49-1.17,.65-1.1,.23-1.85,.23c-1.41,0-2.4-.24-2.99-.72s-.88-1.09-.88-1.83c0-.07,0-.16,0-.27Zm1.96-4.87c0,.88,.17,1.52,.51,1.93s.76,.61,1.26,.61c.54,0,.99-.21,1.36-.63s.55-1.04,.55-1.86-.18-1.5-.53-1.91-.8-.62-1.34-.62-.96,.2-1.3,.61-.51,1.03-.51,1.87Z" style="fill:#0333ff;"/><path d="M908.17,430.01l2.19,.37c-.28,.8-.73,1.41-1.33,1.83s-1.37,.63-2.28,.63c-1.44,0-2.51-.47-3.2-1.41-.55-.75-.82-1.71-.82-2.86,0-1.38,.36-2.45,1.08-3.23s1.63-1.17,2.73-1.17c1.23,0,2.21,.41,2.92,1.22s1.05,2.06,1.02,3.75h-5.5c.02,.65,.19,1.16,.53,1.52s.76,.54,1.27,.54c.34,0,.63-.09,.87-.28s.41-.49,.53-.91Zm.12-2.22c-.02-.64-.18-1.12-.49-1.45s-.69-.5-1.14-.5c-.48,0-.88,.17-1.19,.52s-.47,.82-.46,1.42h3.28Z" style="fill:#0333ff;"/><path d="M919.81,432.65h-2.2v-4.23c0-.9-.05-1.48-.14-1.74s-.25-.47-.46-.61-.46-.22-.76-.22c-.38,0-.72,.1-1.02,.31s-.51,.48-.62,.83-.17,.98-.17,1.91v3.76h-2.2v-8.3h2.04v1.22c.72-.94,1.64-1.41,2.73-1.41,.48,0,.93,.09,1.33,.26s.7,.4,.91,.67,.35,.58,.43,.92,.12,.84,.12,1.48v5.16Z" style="fill:#0333ff;"/><path d="M926.76,429.7h-1.99c0-.29,0-.46,0-.52,0-.65,.11-1.18,.32-1.59s.64-.89,1.28-1.41,1.02-.86,1.15-1.02c.19-.25,.29-.54,.29-.84,0-.43-.17-.79-.51-1.1s-.8-.46-1.38-.46-1.02,.16-1.4,.48-.63,.8-.77,1.45l-2.02-.25c.06-.93,.45-1.72,1.19-2.38s1.7-.98,2.9-.98c1.26,0,2.26,.33,3.01,.99s1.12,1.43,1.12,2.3c0,.48-.14,.94-.41,1.38s-.86,1.02-1.75,1.77c-.46,.39-.75,.7-.86,.93s-.16,.65-.15,1.26Zm-1.99,2.95v-2.2h2.2v2.2h-2.2Z" style="fill:#0333ff;"/></g></svg>