<?xml version="1.0" encoding="UTF-8"?><svg id="Ebene_1" xmlns="http://www.w3.org/2000/svg" viewBox="0 0 988 525"><line x1="700.7" y1="359.54" x2="59.45" y2="489.34" style="fill:none; stroke:#1d1d1b; stroke-miterlimit:8;"/><line x1="59.45" y1="191.39" x2="700.7" y2="321.2" style="fill:none; stroke:#1d1d1b; stroke-miterlimit:8;"/><text transform="translate(768.93 329.23)" style="fill:#0333ff; font-family:Arial-BoldMT, Arial; font-size:14px; font-weight:700; letter-spacing:0em;"><tspan x="0" y="0">Favorit/Empfehlung</tspan></text><text transform="translate(768.93 362.12)" style="fill:#0333ff; font-family:ArialMT, Arial; font-size:14px; letter-spacing:0em;"><tspan x="0" y="0">Herausforderer</tspan></text><ellipse cx="746.61" cy="324.48" rx="11.21" ry="11.72" style="fill:#0333ff;"/><ellipse cx="746.61" cy="358.1" rx="11.21" ry="11.72" style="fill:#0333ff;"/><text transform="translate(501.47 344.87)" style="fill:#0333ff; font-family:Arial-BoldMT, Arial; font-size:14px; font-weight:700; letter-spacing:0em;"><tspan x="0" y="0">Short List</tspan></text><circle cx="589.98" cy="325.58" r="6.21" style="fill:#0333ff;"/><circle cx="589.98" cy="343.12" r="6.21" style="fill:#0333ff;"/><circle cx="589.98" cy="360.66" r="6.21" style="fill:#0333ff;"/><circle cx="589.98" cy="343.12" r="6.21" style="fill:#0333ff;"/><circle cx="602.41" cy="335.08" r="6.21" style="fill:#0333ff;"/><circle cx="602.41" cy="352.62" r="6.21" style="fill:#0333ff;"/><text transform="translate(282.35 344.87)" style="fill:#0333ff; font-family:Arial-BoldMT, Arial; font-size:14px; font-weight:700; letter-spacing:0em;"><tspan x="0" y="0">Long List</tspan></text><circle cx="370.33" cy="311.7" r="5.48" style="fill:#0333ff;"/><circle cx="370.33" cy="329.23" r="5.48" style="fill:#0333ff;"/><circle cx="370.33" cy="346.77" r="5.48" style="fill:#0333ff;"/><circle cx="370.33" cy="364.31" r="5.48" style="fill:#0333ff;"/><circle cx="370.33" cy="329.23" r="5.48" style="fill:#0333ff;"/><circle cx="380.93" cy="320.83" r="5.12" style="fill:#0333ff;"/><circle cx="380.93" cy="338.37" r="5.12" style="fill:#0333ff;"/><circle cx="380.93" cy="355.91" r="5.12" style="fill:#0333ff;"/><circle cx="380.93" cy="338.37" r="5.12" style="fill:#0333ff;"/><text transform="translate(63.24 344.87)" style="fill:#0333ff; font-family:Arial-BoldMT, Arial; font-size:14px; font-weight:700; letter-spacing:0em;"><tspan x="0" y="0">Markt</tspan></text><circle cx="114.7" cy="262.5" r="2.75" style="fill:#0333ff;"/><circle cx="131.45" cy="337.12" r="2.75" style="fill:#0333ff;"/><ellipse cx="144.2" cy="300" rx="2.75" ry="3" style="fill:#0333ff;"/><circle cx="149.7" cy="369.87" r="2.75" style="fill:#0333ff;"/><circle cx="171.95" cy="326.62" r="2.75" style="fill:#0333ff;"/><ellipse cx="151.7" cy="335.12" rx="3" ry="2.75" style="fill:#0333ff;"/><circle cx="186.2" cy="300" r="2.75" style="fill:#0333ff;"/><circle cx="174.7" cy="238.1" r="3" style="fill:#0333ff;"/><circle cx="183.45" cy="192.36" r="3" style="fill:#0333ff;"/><circle cx="191.7" cy="374.51" r="3" style="fill:#0333ff;"/><circle cx="221.7" cy="259.75" r="2.75" style="fill:#0333ff;"/><circle cx="177.7" cy="351.37" r="3" style="fill:#0333ff;"/><ellipse cx="218.95" cy="372.62" rx="2.75" ry="3" style="fill:#0333ff;"/><ellipse cx="235.2" cy="327.12" rx="3" ry="2.75" style="fill:#0333ff;"/><ellipse cx="228.95" cy="346.87" rx="2.75" ry="3" style="fill:#0333ff;"/><ellipse cx="239.2" cy="310.12" rx="3" ry="2.75" style="fill:#0333ff;"/><ellipse cx="251.2" cy="322.12" rx="3" ry="2.75" style="fill:#0333ff;"/><polygon points="712.95 112.01 916.45 112.01 933.45 141.57 916.45 171.14 712.95 171.14 729.95 141.57 712.95 112.01" style="fill:#fff; stroke:#1d1d1b; stroke-miterlimit:10; stroke-width:2px;"/><polygon points="494.45 112.01 697.95 112.01 714.95 141.57 697.95 171.14 494.45 171.14 511.45 141.57 494.45 112.01" style="fill:#fff; stroke:#1d1d1b; stroke-miterlimit:10; stroke-width:2px;"/><polygon points="275.95 112.01 479.95 112.01 496.95 141.57 479.95 171.14 275.95 171.14 292.95 141.57 275.95 112.01" style="fill:#fff; stroke:#1d1d1b; stroke-miterlimit:10; stroke-width:2px;"/><polygon points="59.45 111.14 261.2 111.14 278.45 141.14 261.2 171.14 59.45 171.14 59.45 111.14" style="fill:#fff; fill-rule:evenodd; stroke:#1d1d1b; stroke-miterlimit:10; stroke-width:2px;"/><text transform="translate(763.69 145.14)" style="font-family:Arial-BoldMT, Arial; font-size:18px; font-weight:700;"><tspan x="0" y="0">Entscheidung</tspan></text><text transform="translate(558.19 145.9)" style="font-family:Arial-BoldMT, Arial; font-size:18px; font-weight:700;"><tspan x="0" y="0">Bewertung</tspan></text><text transform="translate(331.95 145.9)" style="font-family:Arial-BoldMT, Arial; font-size:18px; font-weight:700;"><tspan x="0" y="0">Eingrenzung</tspan></text><circle cx="380.93" cy="373.45" r="5.12" style="fill:#0333ff;"/><text transform="translate(112.95 145.47)" style="font-family:Arial-BoldMT, Arial; font-size:18px; font-weight:700;"><tspan x="0" y="0">Identifikation</tspan></text><circle cx="131.45" cy="396.24" r="2.75" style="fill:#0333ff;"/><ellipse cx="111.7" cy="359.12" rx="3" ry="2.75" style="fill:#0333ff;"/><ellipse cx="191.7" cy="407.65" rx="2.75" ry="3" style="fill:#0333ff;"/><ellipse cx="251.2" cy="410.65" rx="3" ry="2.75" style="fill:#0333ff;"/><ellipse cx="242.2" cy="489.34" rx="3" ry="2.75" style="fill:#0333ff;"/><ellipse cx="117.45" cy="446.37" rx="3" ry="2.75" style="fill:#0333ff;"/><circle cx="154.7" cy="427.5" r="2.75" style="fill:#0333ff;"/><g><path d="M103.53,73.14v-9.16h3.16c.71,0,1.26,.04,1.63,.13,.52,.12,.97,.34,1.34,.66,.48,.41,.84,.93,1.08,1.57,.24,.64,.36,1.36,.36,2.18,0,.7-.08,1.31-.24,1.85-.16,.54-.37,.98-.62,1.33-.25,.35-.53,.63-.83,.83s-.67,.35-1.09,.46-.92,.16-1.47,.16h-3.31Zm1.21-1.08h1.96c.6,0,1.08-.06,1.42-.17s.62-.27,.82-.47c.29-.29,.51-.67,.67-1.16,.16-.49,.24-1.07,.24-1.77,0-.96-.16-1.69-.47-2.21s-.7-.86-1.15-1.03c-.32-.12-.85-.19-1.57-.19h-1.92v7Z" style="fill:#0333ff;"/><path d="M117.17,71l1.16,.14c-.18,.68-.52,1.21-1.02,1.58s-1.13,.56-1.9,.56c-.97,0-1.74-.3-2.31-.9-.57-.6-.85-1.44-.85-2.52s.29-1.98,.86-2.6c.58-.62,1.32-.92,2.24-.92s1.61,.3,2.18,.91c.56,.6,.84,1.45,.84,2.55,0,.07,0,.17,0,.3h-4.95c.04,.73,.25,1.29,.62,1.67s.83,.58,1.39,.58c.41,0,.76-.11,1.06-.32,.29-.22,.52-.56,.69-1.04Zm-3.69-1.82h3.71c-.05-.56-.19-.98-.43-1.26-.36-.43-.82-.65-1.39-.65-.52,0-.95,.17-1.3,.52-.35,.35-.55,.81-.58,1.39Z" style="fill:#0333ff;"/><path d="M119.75,73.14v-6.64h1.01v.94c.49-.73,1.19-1.09,2.11-1.09,.4,0,.77,.07,1.1,.21,.33,.14,.59,.33,.75,.57,.17,.23,.28,.51,.35,.83,.04,.21,.06,.57,.06,1.09v4.08h-1.12v-4.04c0-.46-.04-.8-.13-1.03-.09-.23-.24-.41-.47-.54s-.48-.2-.78-.2c-.48,0-.89,.15-1.24,.46-.35,.3-.52,.88-.52,1.73v3.62h-1.12Z" style="fill:#0333ff;"/><path d="M130.53,73.14v-9.16h1.83l2.17,6.49c.2,.6,.35,1.06,.44,1.36,.1-.33,.27-.82,.49-1.47l2.19-6.38h1.63v9.16h-1.17v-7.67l-2.66,7.67h-1.09l-2.65-7.8v7.8h-1.17Z" style="fill:#0333ff;"/><path d="M145.42,72.32c-.42,.35-.82,.6-1.2,.75-.39,.15-.8,.22-1.24,.22-.73,0-1.29-.18-1.68-.54-.39-.36-.59-.81-.59-1.37,0-.33,.07-.62,.22-.89,.15-.27,.34-.48,.58-.65,.24-.16,.51-.29,.81-.37,.22-.06,.55-.11,1-.17,.91-.11,1.58-.24,2.01-.39,0-.15,0-.25,0-.29,0-.46-.11-.78-.32-.97-.29-.25-.71-.38-1.28-.38-.53,0-.92,.09-1.17,.28s-.44,.51-.56,.98l-1.1-.15c.1-.47,.26-.85,.49-1.14,.23-.29,.56-.51,.99-.67s.94-.23,1.51-.23,1.03,.07,1.38,.2c.35,.13,.61,.3,.78,.5s.28,.46,.35,.77c.04,.19,.06,.54,.06,1.04v1.5c0,1.05,.02,1.71,.07,1.98,.05,.28,.14,.54,.28,.8h-1.17c-.12-.23-.19-.51-.23-.82Zm-.09-2.51c-.41,.17-1.02,.31-1.84,.42-.46,.07-.79,.14-.98,.22-.19,.08-.34,.21-.44,.37-.1,.16-.16,.34-.16,.53,0,.3,.11,.55,.34,.75,.23,.2,.56,.3,1,.3s.82-.09,1.16-.28,.58-.45,.74-.78c.12-.25,.18-.63,.18-1.12v-.41Z" style="fill:#0333ff;"/><path d="M148.19,73.14v-6.64h1.01v1.01c.26-.47,.5-.78,.72-.93s.46-.22,.72-.22c.38,0,.76,.12,1.16,.36l-.39,1.04c-.27-.16-.55-.24-.83-.24-.25,0-.47,.07-.66,.22-.2,.15-.34,.35-.42,.62-.12,.4-.19,.84-.19,1.31v3.47h-1.12Z" style="fill:#0333ff;"/><path d="M152.47,73.14v-9.16h1.12v5.22l2.66-2.7h1.46l-2.54,2.46,2.79,4.17h-1.39l-2.19-3.39-.79,.76v2.63h-1.12Z" style="fill:#0333ff;"/><path d="M161.32,72.13l.16,.99c-.32,.07-.6,.1-.85,.1-.41,0-.72-.07-.95-.19-.22-.13-.38-.3-.47-.51-.09-.21-.14-.65-.14-1.33v-3.82h-.83v-.88h.83v-1.64l1.12-.67v2.32h1.13v.88h-1.13v3.88c0,.32,.02,.53,.06,.62,.04,.09,.1,.17,.19,.22,.09,.05,.22,.08,.38,.08,.12,0,.29-.01,.49-.04Z" style="fill:#0333ff;"/><path d="M167.82,73.14l-2.53-6.64h1.19l1.43,3.98c.15,.43,.29,.88,.42,1.34,.1-.35,.24-.77,.42-1.26l1.47-4.05h1.16l-2.51,6.64h-1.05Z" style="fill:#0333ff;"/><path d="M176.92,71l1.16,.14c-.18,.68-.52,1.21-1.02,1.58s-1.13,.56-1.9,.56c-.97,0-1.74-.3-2.31-.9-.57-.6-.85-1.44-.85-2.52s.29-1.98,.86-2.6c.58-.62,1.32-.92,2.24-.92s1.61,.3,2.18,.91c.56,.6,.84,1.45,.84,2.55,0,.07,0,.17,0,.3h-4.95c.04,.73,.25,1.29,.62,1.67s.83,.58,1.39,.58c.41,0,.76-.11,1.06-.32,.29-.22,.52-.56,.69-1.04Zm-3.69-1.82h3.71c-.05-.56-.19-.98-.43-1.26-.36-.43-.82-.65-1.39-.65-.52,0-.95,.17-1.3,.52-.35,.35-.55,.81-.58,1.39Z" style="fill:#0333ff;"/><path d="M179.49,73.14v-6.64h1.01v1.01c.26-.47,.5-.78,.72-.93s.46-.22,.72-.22c.38,0,.76,.12,1.16,.36l-.39,1.04c-.27-.16-.55-.24-.83-.24-.25,0-.47,.07-.66,.22-.2,.15-.34,.35-.42,.62-.12,.4-.19,.84-.19,1.31v3.47h-1.12Z" style="fill:#0333ff;"/><path d="M183.31,71.16l1.11-.17c.06,.45,.24,.79,.52,1.03,.29,.24,.68,.36,1.2,.36s.9-.1,1.15-.32c.25-.21,.38-.46,.38-.74,0-.25-.11-.45-.33-.6-.15-.1-.54-.23-1.15-.38-.83-.21-1.4-.39-1.72-.54-.32-.15-.56-.36-.72-.63-.17-.27-.25-.57-.25-.89,0-.3,.07-.57,.2-.82,.14-.25,.32-.46,.55-.63,.17-.13,.41-.24,.71-.33,.3-.09,.63-.13,.97-.13,.52,0,.98,.07,1.37,.22,.39,.15,.68,.35,.87,.61s.32,.6,.39,1.03l-1.1,.15c-.05-.34-.2-.61-.43-.8-.24-.19-.58-.29-1.02-.29-.52,0-.89,.08-1.11,.26s-.33,.37-.33,.6c0,.15,.05,.28,.14,.39,.09,.12,.24,.22,.43,.3,.11,.04,.44,.14,.99,.29,.8,.21,1.35,.39,1.67,.52s.56,.33,.74,.59c.18,.26,.27,.58,.27,.96s-.11,.73-.33,1.06-.53,.59-.95,.77c-.41,.18-.88,.27-1.4,.27-.86,0-1.52-.18-1.97-.54-.45-.36-.74-.89-.87-1.59Z" style="fill:#0333ff;"/><path d="M192.62,72.13l.16,.99c-.32,.07-.6,.1-.85,.1-.41,0-.72-.07-.95-.19-.22-.13-.38-.3-.47-.51-.09-.21-.14-.65-.14-1.33v-3.82h-.83v-.88h.83v-1.64l1.12-.67v2.32h1.13v.88h-1.13v3.88c0,.32,.02,.53,.06,.62,.04,.09,.1,.17,.19,.22,.09,.05,.22,.08,.38,.08,.12,0,.29-.01,.49-.04Z" style="fill:#0333ff;"/><path d="M198.26,71l1.16,.14c-.18,.68-.52,1.21-1.02,1.58s-1.13,.56-1.9,.56c-.97,0-1.74-.3-2.31-.9-.57-.6-.85-1.44-.85-2.52s.29-1.98,.86-2.6c.58-.62,1.32-.92,2.24-.92s1.61,.3,2.18,.91c.56,.6,.84,1.45,.84,2.55,0,.07,0,.17,0,.3h-4.95c.04,.73,.25,1.29,.62,1.67s.83,.58,1.39,.58c.41,0,.76-.11,1.06-.32,.29-.22,.52-.56,.69-1.04Zm-3.69-1.82h3.71c-.05-.56-.19-.98-.43-1.26-.36-.43-.82-.65-1.39-.65-.52,0-.95,.17-1.3,.52-.35,.35-.55,.81-.58,1.39Z" style="fill:#0333ff;"/><path d="M200.84,73.14v-9.16h1.12v3.29c.53-.61,1.19-.91,1.99-.91,.49,0,.92,.1,1.28,.29,.36,.19,.62,.46,.78,.8s.23,.84,.23,1.49v4.21h-1.12v-4.21c0-.56-.12-.97-.37-1.23-.24-.26-.59-.38-1.04-.38-.33,0-.65,.09-.94,.26s-.5,.41-.63,.7-.19,.7-.19,1.23v3.63h-1.12Z" style="fill:#0333ff;"/><path d="M212.5,71l1.16,.14c-.18,.68-.52,1.21-1.02,1.58s-1.13,.56-1.9,.56c-.97,0-1.74-.3-2.31-.9-.57-.6-.85-1.44-.85-2.52s.29-1.98,.86-2.6c.58-.62,1.32-.92,2.24-.92s1.61,.3,2.18,.91c.56,.6,.84,1.45,.84,2.55,0,.07,0,.17,0,.3h-4.95c.04,.73,.25,1.29,.62,1.67s.83,.58,1.39,.58c.41,0,.76-.11,1.06-.32,.29-.22,.52-.56,.69-1.04Zm-3.69-1.82h3.71c-.05-.56-.19-.98-.43-1.26-.36-.43-.82-.65-1.39-.65-.52,0-.95,.17-1.3,.52-.35,.35-.55,.81-.58,1.39Z" style="fill:#0333ff;"/><path d="M215.07,73.14v-6.64h1.01v.94c.49-.73,1.19-1.09,2.11-1.09,.4,0,.77,.07,1.1,.21,.33,.14,.59,.33,.75,.57,.17,.23,.28,.51,.35,.83,.04,.21,.06,.57,.06,1.09v4.08h-1.12v-4.04c0-.46-.04-.8-.13-1.03-.09-.23-.24-.41-.47-.54s-.48-.2-.78-.2c-.48,0-.89,.15-1.24,.46-.35,.3-.52,.88-.52,1.73v3.62h-1.12Z" style="fill:#0333ff;"/><path d="M82.81,88.5v-.97c-.52,.75-1.22,1.12-2.11,1.12-.39,0-.76-.08-1.1-.23-.34-.15-.59-.34-.76-.57-.17-.23-.28-.5-.35-.83-.05-.22-.07-.57-.07-1.05v-4.11h1.12v3.68c0,.59,.02,.98,.07,1.19,.07,.3,.22,.53,.45,.7,.23,.17,.51,.25,.85,.25s.65-.09,.95-.26,.5-.41,.63-.71,.18-.73,.18-1.3v-3.56h1.12v6.64h-1.01Z" style="fill:#0333ff;"/><path d="M85.58,88.5v-6.64h1.01v.94c.49-.73,1.19-1.09,2.11-1.09,.4,0,.77,.07,1.1,.21,.33,.14,.59,.33,.75,.57,.17,.23,.28,.51,.35,.83,.04,.21,.06,.57,.06,1.09v4.08h-1.12v-4.04c0-.46-.04-.8-.13-1.03-.09-.23-.24-.41-.47-.54s-.48-.2-.78-.2c-.48,0-.89,.15-1.24,.46-.35,.3-.52,.88-.52,1.73v3.62h-1.12Z" style="fill:#0333ff;"/><path d="M97.01,88.5v-.84c-.42,.66-1.04,.99-1.86,.99-.53,0-1.02-.15-1.46-.44-.44-.29-.79-.7-1.03-1.22-.24-.52-.37-1.12-.37-1.8s.11-1.26,.33-1.8c.22-.54,.55-.95,.99-1.24,.44-.29,.94-.43,1.48-.43,.4,0,.76,.08,1.07,.25s.57,.39,.76,.66v-3.29h1.12v9.16h-1.04Zm-3.56-3.31c0,.85,.18,1.49,.54,1.91s.78,.63,1.27,.63,.91-.2,1.25-.6,.52-1.02,.52-1.84c0-.91-.17-1.58-.53-2-.35-.42-.78-.64-1.29-.64s-.92,.2-1.25,.61c-.33,.41-.5,1.05-.5,1.93Z" style="fill:#0333ff;"/><path d="M103.47,88.5v-9.16h1.21v4.54l4.55-4.54h1.64l-3.84,3.71,4.01,5.45h-1.6l-3.26-4.64-1.5,1.46v3.17h-1.21Z" style="fill:#0333ff;"/><path d="M116.24,87.68c-.42,.35-.82,.6-1.2,.75-.39,.15-.8,.22-1.24,.22-.73,0-1.29-.18-1.68-.54-.39-.36-.59-.81-.59-1.37,0-.33,.07-.62,.22-.89,.15-.27,.34-.48,.58-.65,.24-.16,.51-.29,.81-.37,.22-.06,.55-.11,1-.17,.91-.11,1.58-.24,2.01-.39,0-.15,0-.25,0-.29,0-.46-.11-.78-.32-.97-.29-.25-.71-.38-1.28-.38-.53,0-.92,.09-1.17,.28s-.44,.51-.56,.98l-1.1-.15c.1-.47,.26-.85,.49-1.14,.23-.29,.56-.51,.99-.67s.94-.23,1.51-.23,1.03,.07,1.38,.2c.35,.13,.61,.3,.78,.5s.28,.46,.35,.77c.04,.19,.06,.54,.06,1.04v1.5c0,1.05,.02,1.71,.07,1.98,.05,.28,.14,.54,.28,.8h-1.17c-.12-.23-.19-.51-.23-.82Zm-.09-2.51c-.41,.17-1.02,.31-1.84,.42-.46,.07-.79,.14-.98,.22-.19,.08-.34,.21-.44,.37-.1,.16-.16,.34-.16,.53,0,.3,.11,.55,.34,.75,.23,.2,.56,.3,1,.3s.82-.09,1.16-.28,.58-.45,.74-.78c.12-.25,.18-.63,.18-1.12v-.41Z" style="fill:#0333ff;"/><path d="M119.03,88.5v-6.64h1.01v.94c.49-.73,1.19-1.09,2.11-1.09,.4,0,.77,.07,1.1,.21,.33,.14,.59,.33,.75,.57,.17,.23,.28,.51,.35,.83,.04,.21,.06,.57,.06,1.09v4.08h-1.12v-4.04c0-.46-.04-.8-.13-1.03-.09-.23-.24-.41-.47-.54s-.48-.2-.78-.2c-.48,0-.89,.15-1.24,.46-.35,.3-.52,.88-.52,1.73v3.62h-1.12Z" style="fill:#0333ff;"/><path d="M130.46,88.5v-.84c-.42,.66-1.04,.99-1.86,.99-.53,0-1.02-.15-1.46-.44-.44-.29-.79-.7-1.03-1.22-.24-.52-.37-1.12-.37-1.8s.11-1.26,.33-1.8c.22-.54,.55-.95,.99-1.24,.44-.29,.94-.43,1.48-.43,.4,0,.76,.08,1.07,.25s.57,.39,.76,.66v-3.29h1.12v9.16h-1.04Zm-3.56-3.31c0,.85,.18,1.49,.54,1.91s.78,.63,1.27,.63,.91-.2,1.25-.6,.52-1.02,.52-1.84c0-.91-.17-1.58-.53-2-.35-.42-.78-.64-1.29-.64s-.92,.2-1.25,.61c-.33,.41-.5,1.05-.5,1.93Z" style="fill:#0333ff;"/><path d="M133.27,80.63v-1.29h1.12v1.29h-1.12Zm0,7.87v-6.64h1.12v6.64h-1.12Z" style="fill:#0333ff;"/><path d="M140.42,88.5v-.84c-.42,.66-1.04,.99-1.86,.99-.53,0-1.02-.15-1.46-.44-.44-.29-.79-.7-1.03-1.22-.24-.52-.37-1.12-.37-1.8s.11-1.26,.33-1.8c.22-.54,.55-.95,.99-1.24,.44-.29,.94-.43,1.48-.43,.4,0,.76,.08,1.07,.25s.57,.39,.76,.66v-3.29h1.12v9.16h-1.04Zm-3.56-3.31c0,.85,.18,1.49,.54,1.91s.78,.63,1.27,.63,.91-.2,1.25-.6,.52-1.02,.52-1.84c0-.91-.17-1.58-.53-2-.35-.42-.78-.64-1.29-.64s-.92,.2-1.25,.61c-.33,.41-.5,1.05-.5,1.93Z" style="fill:#0333ff;"/><path d="M147.56,87.68c-.42,.35-.82,.6-1.2,.75-.39,.15-.8,.22-1.24,.22-.73,0-1.29-.18-1.68-.54-.39-.36-.59-.81-.59-1.37,0-.33,.07-.62,.22-.89,.15-.27,.34-.48,.58-.65,.24-.16,.51-.29,.81-.37,.22-.06,.55-.11,1-.17,.91-.11,1.58-.24,2.01-.39,0-.15,0-.25,0-.29,0-.46-.11-.78-.32-.97-.29-.25-.71-.38-1.28-.38-.53,0-.92,.09-1.17,.28s-.44,.51-.56,.98l-1.1-.15c.1-.47,.26-.85,.49-1.14,.23-.29,.56-.51,.99-.67s.94-.23,1.51-.23,1.03,.07,1.38,.2c.35,.13,.61,.3,.78,.5s.28,.46,.35,.77c.04,.19,.06,.54,.06,1.04v1.5c0,1.05,.02,1.71,.07,1.98,.05,.28,.14,.54,.28,.8h-1.17c-.12-.23-.19-.51-.23-.82Zm-.09-2.51c-.41,.17-1.02,.31-1.84,.42-.46,.07-.79,.14-.98,.22-.19,.08-.34,.21-.44,.37-.1,.16-.16,.34-.16,.53,0,.3,.11,.55,.34,.75,.23,.2,.56,.3,1,.3s.82-.09,1.16-.28,.58-.45,.74-.78c.12-.25,.18-.63,.18-1.12v-.41Z" style="fill:#0333ff;"/><path d="M152.81,87.49l.16,.99c-.32,.07-.6,.1-.85,.1-.41,0-.72-.07-.95-.19-.22-.13-.38-.3-.47-.51-.09-.21-.14-.65-.14-1.33v-3.82h-.83v-.88h.83v-1.64l1.12-.67v2.32h1.13v.88h-1.13v3.88c0,.32,.02,.53,.06,.62,.04,.09,.1,.17,.19,.22,.09,.05,.22,.08,.38,.08,.12,0,.29-.01,.49-.04Z" style="fill:#0333ff;"/><path d="M158.45,86.36l1.16,.14c-.18,.68-.52,1.21-1.02,1.58s-1.13,.56-1.9,.56c-.97,0-1.74-.3-2.31-.9-.57-.6-.85-1.44-.85-2.52s.29-1.98,.86-2.6c.58-.62,1.32-.92,2.24-.92s1.61,.3,2.18,.91c.56,.6,.84,1.45,.84,2.55,0,.07,0,.17,0,.3h-4.95c.04,.73,.25,1.29,.62,1.67s.83,.58,1.39,.58c.41,0,.76-.11,1.06-.32,.29-.22,.52-.56,.69-1.04Zm-3.69-1.82h3.71c-.05-.56-.19-.98-.43-1.26-.36-.43-.82-.65-1.39-.65-.52,0-.95,.17-1.3,.52-.35,.35-.55,.81-.58,1.39Z" style="fill:#0333ff;"/><path d="M161.02,88.5v-6.64h1.01v.94c.49-.73,1.19-1.09,2.11-1.09,.4,0,.77,.07,1.1,.21,.33,.14,.59,.33,.75,.57,.17,.23,.28,.51,.35,.83,.04,.21,.06,.57,.06,1.09v4.08h-1.12v-4.04c0-.46-.04-.8-.13-1.03-.09-.23-.24-.41-.47-.54s-.48-.2-.78-.2c-.48,0-.89,.15-1.24,.46-.35,.3-.52,.88-.52,1.73v3.62h-1.12Z" style="fill:#0333ff;"/><path d="M171.71,80.63v-1.29h1.12v1.29h-1.12Zm0,7.87v-6.64h1.12v6.64h-1.12Z" style="fill:#0333ff;"/><path d="M178.85,88.5v-.84c-.42,.66-1.04,.99-1.86,.99-.53,0-1.02-.15-1.46-.44-.44-.29-.79-.7-1.03-1.22-.24-.52-.37-1.12-.37-1.8s.11-1.26,.33-1.8c.22-.54,.55-.95,.99-1.24,.44-.29,.94-.43,1.48-.43,.4,0,.76,.08,1.07,.25s.57,.39,.76,.66v-3.29h1.12v9.16h-1.04Zm-3.56-3.31c0,.85,.18,1.49,.54,1.91s.78,.63,1.27,.63,.91-.2,1.25-.6,.52-1.02,.52-1.84c0-.91-.17-1.58-.53-2-.35-.42-.78-.64-1.29-.64s-.92,.2-1.25,.61c-.33,.41-.5,1.05-.5,1.93Z" style="fill:#0333ff;"/><path d="M186.21,86.36l1.16,.14c-.18,.68-.52,1.21-1.02,1.58s-1.13,.56-1.9,.56c-.97,0-1.74-.3-2.31-.9-.57-.6-.85-1.44-.85-2.52s.29-1.98,.86-2.6c.58-.62,1.32-.92,2.24-.92s1.61,.3,2.18,.91c.56,.6,.84,1.45,.84,2.55,0,.07,0,.17,0,.3h-4.95c.04,.73,.25,1.29,.62,1.67s.83,.58,1.39,.58c.41,0,.76-.11,1.06-.32,.29-.22,.52-.56,.69-1.04Zm-3.69-1.82h3.71c-.05-.56-.19-.98-.43-1.26-.36-.43-.82-.65-1.39-.65-.52,0-.95,.17-1.3,.52-.35,.35-.55,.81-.58,1.39Z" style="fill:#0333ff;"/><path d="M188.78,88.5v-6.64h1.01v.94c.49-.73,1.19-1.09,2.11-1.09,.4,0,.77,.07,1.1,.21,.33,.14,.59,.33,.75,.57,.17,.23,.28,.51,.35,.83,.04,.21,.06,.57,.06,1.09v4.08h-1.12v-4.04c0-.46-.04-.8-.13-1.03-.09-.23-.24-.41-.47-.54s-.48-.2-.78-.2c-.48,0-.89,.15-1.24,.46-.35,.3-.52,.88-.52,1.73v3.62h-1.12Z" style="fill:#0333ff;"/><path d="M198.36,87.49l.16,.99c-.32,.07-.6,.1-.85,.1-.41,0-.72-.07-.95-.19-.22-.13-.38-.3-.47-.51-.09-.21-.14-.65-.14-1.33v-3.82h-.83v-.88h.83v-1.64l1.12-.67v2.32h1.13v.88h-1.13v3.88c0,.32,.02,.53,.06,.62,.04,.09,.1,.17,.19,.22,.09,.05,.22,.08,.38,.08,.12,0,.29-.01,.49-.04Z" style="fill:#0333ff;"/><path d="M199.46,80.63v-1.29h1.12v1.29h-1.12Zm0,7.87v-6.64h1.12v6.64h-1.12Z" style="fill:#0333ff;"/><path d="M202.57,88.5v-5.76h-.99v-.88h.99v-.71c0-.45,.04-.78,.12-.99,.11-.29,.3-.53,.57-.71,.27-.18,.66-.27,1.15-.27,.32,0,.67,.04,1.05,.11l-.17,.98c-.23-.04-.45-.06-.66-.06-.34,0-.58,.07-.73,.22-.14,.15-.21,.42-.21,.82v.61h1.29v.88h-1.29v5.76h-1.12Z" style="fill:#0333ff;"/><path d="M205.86,80.63v-1.29h1.12v1.29h-1.12Zm0,7.87v-6.64h1.12v6.64h-1.12Z" style="fill:#0333ff;"/><path d="M208.11,88.5v-.91l4.22-4.85c-.48,.03-.9,.04-1.27,.04h-2.71v-.91h5.42v.74l-3.59,4.21-.69,.77c.5-.04,.98-.06,1.42-.06h3.07v.97h-5.88Z" style="fill:#0333ff;"/><path d="M215.11,80.63v-1.29h1.12v1.29h-1.12Zm0,7.87v-6.64h1.12v6.64h-1.12Z" style="fill:#0333ff;"/><path d="M222.49,86.36l1.16,.14c-.18,.68-.52,1.21-1.02,1.58s-1.13,.56-1.9,.56c-.97,0-1.74-.3-2.31-.9-.57-.6-.85-1.44-.85-2.52s.29-1.98,.86-2.6c.58-.62,1.32-.92,2.24-.92s1.61,.3,2.18,.91c.56,.6,.84,1.45,.84,2.55,0,.07,0,.17,0,.3h-4.95c.04,.73,.25,1.29,.62,1.67s.83,.58,1.39,.58c.41,0,.76-.11,1.06-.32,.29-.22,.52-.56,.69-1.04Zm-3.69-1.82h3.71c-.05-.56-.19-.98-.43-1.26-.36-.43-.82-.65-1.39-.65-.52,0-.95,.17-1.3,.52-.35,.35-.55,.81-.58,1.39Z" style="fill:#0333ff;"/><path d="M225.05,88.5v-6.64h1.01v1.01c.26-.47,.5-.78,.72-.93s.46-.22,.72-.22c.38,0,.76,.12,1.16,.36l-.39,1.04c-.27-.16-.55-.24-.83-.24-.25,0-.47,.07-.66,.22-.2,.15-.34,.35-.42,.62-.12,.4-.19,.84-.19,1.31v3.47h-1.12Z" style="fill:#0333ff;"/><path d="M233.87,86.36l1.16,.14c-.18,.68-.52,1.21-1.02,1.58s-1.13,.56-1.9,.56c-.97,0-1.74-.3-2.31-.9-.57-.6-.85-1.44-.85-2.52s.29-1.98,.86-2.6c.58-.62,1.32-.92,2.24-.92s1.61,.3,2.18,.91c.56,.6,.84,1.45,.84,2.55,0,.07,0,.17,0,.3h-4.95c.04,.73,.25,1.29,.62,1.67s.83,.58,1.39,.58c.41,0,.76-.11,1.06-.32,.29-.22,.52-.56,.69-1.04Zm-3.69-1.82h3.71c-.05-.56-.19-.98-.43-1.26-.36-.43-.82-.65-1.39-.65-.52,0-.95,.17-1.3,.52-.35,.35-.55,.81-.58,1.39Z" style="fill:#0333ff;"/><path d="M236.44,88.5v-6.64h1.01v.94c.49-.73,1.19-1.09,2.11-1.09,.4,0,.77,.07,1.1,.21,.33,.14,.59,.33,.75,.57,.17,.23,.28,.51,.35,.83,.04,.21,.06,.57,.06,1.09v4.08h-1.12v-4.04c0-.46-.04-.8-.13-1.03-.09-.23-.24-.41-.47-.54s-.48-.2-.78-.2c-.48,0-.89,.15-1.24,.46-.35,.3-.52,.88-.52,1.73v3.62h-1.12Z" style="fill:#0333ff;"/></g><g><path d="M328.15,73.14l-3.55-9.16h1.31l2.38,6.66c.19,.53,.35,1.03,.48,1.5,.14-.5,.31-1,.49-1.5l2.48-6.66h1.24l-3.59,9.16h-1.24Z" style="fill:#0333ff;"/><path d="M337.76,71l1.16,.14c-.18,.68-.52,1.21-1.02,1.58s-1.13,.56-1.9,.56c-.97,0-1.74-.3-2.31-.9-.57-.6-.85-1.44-.85-2.52s.29-1.98,.86-2.6c.58-.62,1.32-.92,2.24-.92s1.61,.3,2.18,.91c.56,.6,.84,1.45,.84,2.55,0,.07,0,.17,0,.3h-4.95c.04,.73,.25,1.29,.62,1.67s.83,.58,1.39,.58c.41,0,.76-.11,1.06-.32,.29-.22,.52-.56,.69-1.04Zm-3.69-1.82h3.71c-.05-.56-.19-.98-.43-1.26-.36-.43-.82-.65-1.39-.65-.52,0-.95,.17-1.3,.52-.35,.35-.55,.81-.58,1.39Z" style="fill:#0333ff;"/><path d="M340.32,73.14v-6.64h1.01v1.01c.26-.47,.5-.78,.72-.93s.46-.22,.72-.22c.38,0,.76,.12,1.16,.36l-.39,1.04c-.27-.16-.55-.24-.83-.24-.25,0-.47,.07-.66,.22-.2,.15-.34,.35-.42,.62-.12,.4-.19,.84-.19,1.31v3.47h-1.12Z" style="fill:#0333ff;"/><path d="M347.06,72.13l.16,.99c-.32,.07-.6,.1-.85,.1-.41,0-.72-.07-.95-.19-.22-.13-.38-.3-.47-.51-.09-.21-.14-.65-.14-1.33v-3.82h-.83v-.88h.83v-1.64l1.12-.67v2.32h1.13v.88h-1.13v3.88c0,.32,.02,.53,.06,.62,.04,.09,.1,.17,.19,.22,.09,.05,.22,.08,.38,.08,.12,0,.29-.01,.49-.04Z" style="fill:#0333ff;"/><path d="M348.16,65.27v-1.29h1.12v1.29h-1.12Zm0,7.87v-6.64h1.12v6.64h-1.12Z" style="fill:#0333ff;"/><path d="M355.54,71l1.16,.14c-.18,.68-.52,1.21-1.02,1.58s-1.13,.56-1.9,.56c-.97,0-1.74-.3-2.31-.9-.57-.6-.85-1.44-.85-2.52s.29-1.98,.86-2.6c.58-.62,1.32-.92,2.24-.92s1.61,.3,2.18,.91c.56,.6,.84,1.45,.84,2.55,0,.07,0,.17,0,.3h-4.95c.04,.73,.25,1.29,.62,1.67s.83,.58,1.39,.58c.41,0,.76-.11,1.06-.32,.29-.22,.52-.56,.69-1.04Zm-3.69-1.82h3.71c-.05-.56-.19-.98-.43-1.26-.36-.43-.82-.65-1.39-.65-.52,0-.95,.17-1.3,.52-.35,.35-.55,.81-.58,1.39Z" style="fill:#0333ff;"/><path d="M358.39,73.14v-5.76h-.99v-.88h.99v-.71c0-.45,.04-.78,.12-.99,.11-.29,.3-.53,.57-.71,.27-.18,.66-.27,1.15-.27,.32,0,.67,.04,1.05,.11l-.17,.98c-.23-.04-.45-.06-.66-.06-.34,0-.58,.07-.73,.22-.14,.15-.21,.42-.21,.82v.61h1.29v.88h-1.29v5.76h-1.12Z" style="fill:#0333ff;"/><path d="M364.13,72.13l.16,.99c-.32,.07-.6,.1-.85,.1-.41,0-.72-.07-.95-.19-.22-.13-.38-.3-.47-.51-.09-.21-.14-.65-.14-1.33v-3.82h-.83v-.88h.83v-1.64l1.12-.67v2.32h1.13v.88h-1.13v3.88c0,.32,.02,.53,.06,.62,.04,.09,.1,.17,.19,.22,.09,.05,.22,.08,.38,.08,.12,0,.29-.01,.49-.04Z" style="fill:#0333ff;"/><path d="M369.77,71l1.16,.14c-.18,.68-.52,1.21-1.02,1.58s-1.13,.56-1.9,.56c-.97,0-1.74-.3-2.31-.9-.57-.6-.85-1.44-.85-2.52s.29-1.98,.86-2.6c.58-.62,1.32-.92,2.24-.92s1.61,.3,2.18,.91c.56,.6,.84,1.45,.84,2.55,0,.07,0,.17,0,.3h-4.95c.04,.73,.25,1.29,.62,1.67s.83,.58,1.39,.58c.41,0,.76-.11,1.06-.32,.29-.22,.52-.56,.69-1.04Zm-3.69-1.82h3.71c-.05-.56-.19-.98-.43-1.26-.36-.43-.82-.65-1.39-.65-.52,0-.95,.17-1.3,.52-.35,.35-.55,.81-.58,1.39Z" style="fill:#0333ff;"/><path d="M371.9,71.16l1.11-.17c.06,.45,.24,.79,.52,1.03,.29,.24,.68,.36,1.2,.36s.9-.1,1.15-.32c.25-.21,.38-.46,.38-.74,0-.25-.11-.45-.33-.6-.15-.1-.54-.23-1.15-.38-.83-.21-1.4-.39-1.72-.54-.32-.15-.56-.36-.72-.63-.17-.27-.25-.57-.25-.89,0-.3,.07-.57,.2-.82,.14-.25,.32-.46,.55-.63,.17-.13,.41-.24,.71-.33,.3-.09,.63-.13,.97-.13,.52,0,.98,.07,1.37,.22,.39,.15,.68,.35,.87,.61s.32,.6,.39,1.03l-1.1,.15c-.05-.34-.2-.61-.43-.8-.24-.19-.58-.29-1.02-.29-.52,0-.89,.08-1.11,.26s-.33,.37-.33,.6c0,.15,.05,.28,.14,.39,.09,.12,.24,.22,.43,.3,.11,.04,.44,.14,.99,.29,.8,.21,1.35,.39,1.67,.52s.56,.33,.74,.59c.18,.26,.27,.58,.27,.96s-.11,.73-.33,1.06-.53,.59-.95,.77c-.41,.18-.88,.27-1.4,.27-.86,0-1.52-.18-1.97-.54-.45-.36-.74-.89-.87-1.59Z" style="fill:#0333ff;"/><path d="M385.07,73.14l-3.55-9.16h1.31l2.38,6.66c.19,.53,.35,1.03,.48,1.5,.14-.5,.31-1,.49-1.5l2.48-6.66h1.24l-3.59,9.16h-1.24Z" style="fill:#0333ff;"/><path d="M394.68,71l1.16,.14c-.18,.68-.52,1.21-1.02,1.58s-1.13,.56-1.9,.56c-.97,0-1.74-.3-2.31-.9-.57-.6-.85-1.44-.85-2.52s.29-1.98,.86-2.6c.58-.62,1.32-.92,2.24-.92s1.61,.3,2.18,.91c.56,.6,.84,1.45,.84,2.55,0,.07,0,.17,0,.3h-4.95c.04,.73,.25,1.29,.62,1.67s.83,.58,1.39,.58c.41,0,.76-.11,1.06-.32,.29-.22,.52-.56,.69-1.04Zm-3.69-1.82h3.71c-.05-.56-.19-.98-.43-1.26-.36-.43-.82-.65-1.39-.65-.52,0-.95,.17-1.3,.52-.35,.35-.55,.81-.58,1.39Z" style="fill:#0333ff;"/><path d="M397.24,73.14v-6.64h1.01v1.01c.26-.47,.5-.78,.72-.93s.46-.22,.72-.22c.38,0,.76,.12,1.16,.36l-.39,1.04c-.27-.16-.55-.24-.83-.24-.25,0-.47,.07-.66,.22-.2,.15-.34,.35-.42,.62-.12,.4-.19,.84-.19,1.31v3.47h-1.12Z" style="fill:#0333ff;"/><path d="M401.07,71.16l1.11-.17c.06,.45,.24,.79,.52,1.03,.29,.24,.68,.36,1.2,.36s.9-.1,1.15-.32c.25-.21,.38-.46,.38-.74,0-.25-.11-.45-.33-.6-.15-.1-.54-.23-1.15-.38-.83-.21-1.4-.39-1.72-.54-.32-.15-.56-.36-.72-.63-.17-.27-.25-.57-.25-.89,0-.3,.07-.57,.2-.82,.14-.25,.32-.46,.55-.63,.17-.13,.41-.24,.71-.33,.3-.09,.63-.13,.97-.13,.52,0,.98,.07,1.37,.22,.39,.15,.68,.35,.87,.61s.32,.6,.39,1.03l-1.1,.15c-.05-.34-.2-.61-.43-.8-.24-.19-.58-.29-1.02-.29-.52,0-.89,.08-1.11,.26s-.33,.37-.33,.6c0,.15,.05,.28,.14,.39,.09,.12,.24,.22,.43,.3,.11,.04,.44,.14,.99,.29,.8,.21,1.35,.39,1.67,.52s.56,.33,.74,.59c.18,.26,.27,.58,.27,.96s-.11,.73-.33,1.06-.53,.59-.95,.77c-.41,.18-.88,.27-1.4,.27-.86,0-1.52-.18-1.97-.54-.45-.36-.74-.89-.87-1.59Z" style="fill:#0333ff;"/><path d="M410.37,72.13l.16,.99c-.32,.07-.6,.1-.85,.1-.41,0-.72-.07-.95-.19-.22-.13-.38-.3-.47-.51-.09-.21-.14-.65-.14-1.33v-3.82h-.83v-.88h.83v-1.64l1.12-.67v2.32h1.13v.88h-1.13v3.88c0,.32,.02,.53,.06,.62,.04,.09,.1,.17,.19,.22,.09,.05,.22,.08,.38,.08,.12,0,.29-.01,.49-.04Z" style="fill:#0333ff;"/><path d="M415.81,72.32c-.42,.35-.82,.6-1.2,.75-.39,.15-.8,.22-1.24,.22-.73,0-1.29-.18-1.68-.54-.39-.36-.59-.81-.59-1.37,0-.33,.07-.62,.22-.89,.15-.27,.34-.48,.58-.65,.24-.16,.51-.29,.81-.37,.22-.06,.55-.11,1-.17,.91-.11,1.58-.24,2.01-.39,0-.15,0-.25,0-.29,0-.46-.11-.78-.32-.97-.29-.25-.71-.38-1.28-.38-.53,0-.92,.09-1.17,.28s-.44,.51-.56,.98l-1.1-.15c.1-.47,.26-.85,.49-1.14,.23-.29,.56-.51,.99-.67s.94-.23,1.51-.23,1.03,.07,1.38,.2c.35,.13,.61,.3,.78,.5s.28,.46,.35,.77c.04,.19,.06,.54,.06,1.04v1.5c0,1.05,.02,1.71,.07,1.98,.05,.28,.14,.54,.28,.8h-1.17c-.12-.23-.19-.51-.23-.82Zm-.09-2.51c-.41,.17-1.02,.31-1.84,.42-.46,.07-.79,.14-.98,.22-.19,.08-.34,.21-.44,.37-.1,.16-.16,.34-.16,.53,0,.3,.11,.55,.34,.75,.23,.2,.56,.3,1,.3s.82-.09,1.16-.28,.58-.45,.74-.78c.12-.25,.18-.63,.18-1.12v-.41Zm-3.31-4.61v-1.28h1.17v1.28h-1.17Zm2.33,0v-1.28h1.18v1.28h-1.18Z" style="fill:#0333ff;"/><path d="M418.59,73.14v-6.64h1.01v.94c.49-.73,1.19-1.09,2.11-1.09,.4,0,.77,.07,1.1,.21,.33,.14,.59,.33,.75,.57,.17,.23,.28,.51,.35,.83,.04,.21,.06,.57,.06,1.09v4.08h-1.12v-4.04c0-.46-.04-.8-.13-1.03-.09-.23-.24-.41-.47-.54s-.48-.2-.78-.2c-.48,0-.89,.15-1.24,.46-.35,.3-.52,.88-.52,1.73v3.62h-1.12Z" style="fill:#0333ff;"/><path d="M430.02,73.14v-.84c-.42,.66-1.04,.99-1.86,.99-.53,0-1.02-.15-1.46-.44-.44-.29-.79-.7-1.03-1.22-.24-.52-.37-1.12-.37-1.8s.11-1.26,.33-1.8c.22-.54,.55-.95,.99-1.24,.44-.29,.94-.43,1.48-.43,.4,0,.76,.08,1.07,.25s.57,.39,.76,.66v-3.29h1.12v9.16h-1.04Zm-3.56-3.31c0,.85,.18,1.49,.54,1.91s.78,.63,1.27,.63,.91-.2,1.25-.6,.52-1.02,.52-1.84c0-.91-.17-1.58-.53-2-.35-.42-.78-.64-1.29-.64s-.92,.2-1.25,.61c-.33,.41-.5,1.05-.5,1.93Z" style="fill:#0333ff;"/><path d="M432.83,73.14v-6.64h1.01v.94c.49-.73,1.19-1.09,2.11-1.09,.4,0,.77,.07,1.1,.21,.33,.14,.59,.33,.75,.57,.17,.23,.28,.51,.35,.83,.04,.21,.06,.57,.06,1.09v4.08h-1.12v-4.04c0-.46-.04-.8-.13-1.03-.09-.23-.24-.41-.47-.54s-.48-.2-.78-.2c-.48,0-.89,.15-1.24,.46-.35,.3-.52,.88-.52,1.73v3.62h-1.12Z" style="fill:#0333ff;"/><path d="M439.96,65.27v-1.29h1.12v1.29h-1.12Zm0,7.87v-6.64h1.12v6.64h-1.12Z" style="fill:#0333ff;"/><path d="M442.34,71.16l1.11-.17c.06,.45,.24,.79,.52,1.03,.29,.24,.68,.36,1.2,.36s.9-.1,1.15-.32c.25-.21,.38-.46,.38-.74,0-.25-.11-.45-.33-.6-.15-.1-.54-.23-1.15-.38-.83-.21-1.4-.39-1.72-.54-.32-.15-.56-.36-.72-.63-.17-.27-.25-.57-.25-.89,0-.3,.07-.57,.2-.82,.14-.25,.32-.46,.55-.63,.17-.13,.41-.24,.71-.33,.3-.09,.63-.13,.97-.13,.52,0,.98,.07,1.37,.22,.39,.15,.68,.35,.87,.61s.32,.6,.39,1.03l-1.1,.15c-.05-.34-.2-.61-.43-.8-.24-.19-.58-.29-1.02-.29-.52,0-.89,.08-1.11,.26s-.33,.37-.33,.6c0,.15,.05,.28,.14,.39,.09,.12,.24,.22,.43,.3,.11,.04,.44,.14,.99,.29,.8,.21,1.35,.39,1.67,.52s.56,.33,.74,.59c.18,.26,.27,.58,.27,.96s-.11,.73-.33,1.06-.53,.59-.95,.77c-.41,.18-.88,.27-1.4,.27-.86,0-1.52-.18-1.97-.54-.45-.36-.74-.89-.87-1.59Z" style="fill:#0333ff;"/><path d="M326.49,88.5v-.84c-.42,.66-1.04,.99-1.86,.99-.53,0-1.02-.15-1.46-.44-.44-.29-.79-.7-1.03-1.22-.24-.52-.37-1.12-.37-1.8s.11-1.26,.33-1.8c.22-.54,.55-.95,.99-1.24,.44-.29,.94-.43,1.48-.43,.4,0,.76,.08,1.07,.25s.57,.39,.76,.66v-3.29h1.12v9.16h-1.04Zm-3.56-3.31c0,.85,.18,1.49,.54,1.91s.78,.63,1.27,.63,.91-.2,1.25-.6,.52-1.02,.52-1.84c0-.91-.17-1.58-.53-2-.35-.42-.78-.64-1.29-.64s-.92,.2-1.25,.61c-.33,.41-.5,1.05-.5,1.93Z" style="fill:#0333ff;"/><path d="M333.85,86.36l1.16,.14c-.18,.68-.52,1.21-1.02,1.58s-1.13,.56-1.9,.56c-.97,0-1.74-.3-2.31-.9-.57-.6-.85-1.44-.85-2.52s.29-1.98,.86-2.6c.58-.62,1.32-.92,2.24-.92s1.61,.3,2.18,.91c.56,.6,.84,1.45,.84,2.55,0,.07,0,.17,0,.3h-4.95c.04,.73,.25,1.29,.62,1.67s.83,.58,1.39,.58c.41,0,.76-.11,1.06-.32,.29-.22,.52-.56,.69-1.04Zm-3.69-1.82h3.71c-.05-.56-.19-.98-.43-1.26-.36-.43-.82-.65-1.39-.65-.52,0-.95,.17-1.3,.52-.35,.35-.55,.81-.58,1.39Z" style="fill:#0333ff;"/><path d="M336.41,88.5v-6.64h1.01v1.01c.26-.47,.5-.78,.72-.93s.46-.22,.72-.22c.38,0,.76,.12,1.16,.36l-.39,1.04c-.27-.16-.55-.24-.83-.24-.25,0-.47,.07-.66,.22-.2,.15-.34,.35-.42,.62-.12,.4-.19,.84-.19,1.31v3.47h-1.12Z" style="fill:#0333ff;"/><path d="M343.97,85.55l1.14-.1c.05,.46,.18,.83,.38,1.13,.2,.29,.5,.53,.92,.71s.89,.27,1.41,.27c.46,0,.87-.07,1.23-.21,.35-.14,.62-.33,.79-.57s.26-.5,.26-.78-.08-.54-.25-.75c-.17-.21-.44-.4-.83-.54-.25-.1-.79-.25-1.63-.45-.84-.2-1.43-.39-1.77-.57-.44-.23-.76-.51-.98-.85-.21-.34-.32-.72-.32-1.14,0-.46,.13-.89,.39-1.3,.26-.4,.65-.71,1.15-.92,.5-.21,1.06-.31,1.68-.31,.68,0,1.28,.11,1.8,.33,.52,.22,.92,.54,1.2,.96,.28,.43,.43,.91,.45,1.44l-1.16,.09c-.06-.58-.27-1.02-.63-1.31-.36-.29-.89-.44-1.6-.44s-1.27,.13-1.6,.4c-.33,.27-.5,.59-.5,.97,0,.33,.12,.6,.36,.81,.23,.21,.84,.43,1.83,.65s1.66,.42,2.03,.58c.53,.25,.93,.56,1.18,.93s.38,.81,.38,1.3-.14,.95-.42,1.38c-.28,.43-.68,.77-1.2,1.01-.52,.24-1.11,.36-1.77,.36-.83,0-1.52-.12-2.08-.36-.56-.24-1-.61-1.32-1.09s-.49-1.03-.5-1.65Z" style="fill:#0333ff;"/><path d="M352.73,91.05l-.12-1.06c.25,.07,.46,.1,.64,.1,.25,0,.45-.04,.6-.12,.15-.08,.27-.2,.37-.35,.07-.11,.19-.39,.34-.84,.02-.06,.05-.15,.1-.27l-2.52-6.65h1.21l1.38,3.84c.18,.49,.34,1,.48,1.54,.13-.52,.28-1.02,.46-1.51l1.42-3.87h1.12l-2.52,6.75c-.27,.73-.48,1.23-.63,1.51-.2,.37-.43,.64-.69,.82-.26,.17-.57,.26-.92,.26-.22,0-.46-.05-.72-.14Z" style="fill:#0333ff;"/><path d="M358.73,86.52l1.11-.17c.06,.45,.24,.79,.52,1.03,.29,.24,.68,.36,1.2,.36s.9-.1,1.15-.32c.25-.21,.38-.46,.38-.74,0-.25-.11-.45-.33-.6-.15-.1-.54-.23-1.15-.38-.83-.21-1.4-.39-1.72-.54-.32-.15-.56-.36-.72-.63-.17-.27-.25-.57-.25-.89,0-.3,.07-.57,.2-.82,.14-.25,.32-.46,.55-.63,.17-.13,.41-.24,.71-.33,.3-.09,.63-.13,.97-.13,.52,0,.98,.07,1.37,.22,.39,.15,.68,.35,.87,.61s.32,.6,.39,1.03l-1.1,.15c-.05-.34-.2-.61-.43-.8-.24-.19-.58-.29-1.02-.29-.52,0-.89,.08-1.11,.26s-.33,.37-.33,.6c0,.15,.05,.28,.14,.39,.09,.12,.24,.22,.43,.3,.11,.04,.44,.14,.99,.29,.8,.21,1.35,.39,1.67,.52s.56,.33,.74,.59c.18,.26,.27,.58,.27,.96s-.11,.73-.33,1.06-.53,.59-.95,.77c-.41,.18-.88,.27-1.4,.27-.86,0-1.52-.18-1.97-.54-.45-.36-.74-.89-.87-1.59Z" style="fill:#0333ff;"/><path d="M368.04,87.49l.16,.99c-.32,.07-.6,.1-.85,.1-.41,0-.72-.07-.95-.19-.22-.13-.38-.3-.47-.51-.09-.21-.14-.65-.14-1.33v-3.82h-.83v-.88h.83v-1.64l1.12-.67v2.32h1.13v.88h-1.13v3.88c0,.32,.02,.53,.06,.62,.04,.09,.1,.17,.19,.22,.09,.05,.22,.08,.38,.08,.12,0,.29-.01,.49-.04Z" style="fill:#0333ff;"/><path d="M373.68,86.36l1.16,.14c-.18,.68-.52,1.21-1.02,1.58s-1.13,.56-1.9,.56c-.97,0-1.74-.3-2.31-.9-.57-.6-.85-1.44-.85-2.52s.29-1.98,.86-2.6c.58-.62,1.32-.92,2.24-.92s1.61,.3,2.18,.91c.56,.6,.84,1.45,.84,2.55,0,.07,0,.17,0,.3h-4.95c.04,.73,.25,1.29,.62,1.67s.83,.58,1.39,.58c.41,0,.76-.11,1.06-.32,.29-.22,.52-.56,.69-1.04Zm-3.69-1.82h3.71c-.05-.56-.19-.98-.43-1.26-.36-.43-.82-.65-1.39-.65-.52,0-.95,.17-1.3,.52-.35,.35-.55,.81-.58,1.39Z" style="fill:#0333ff;"/><path d="M376.25,88.5v-6.64h1.01v.93c.21-.33,.49-.59,.83-.78,.35-.2,.74-.3,1.18-.3,.49,0,.89,.1,1.21,.31,.31,.2,.54,.49,.67,.86,.53-.78,1.21-1.16,2.05-1.16,.66,0,1.17,.18,1.52,.55,.35,.36,.53,.93,.53,1.68v4.56h-1.12v-4.18c0-.45-.04-.77-.11-.97-.07-.2-.21-.36-.4-.48-.19-.12-.42-.18-.68-.18-.47,0-.85,.16-1.16,.47s-.46,.81-.46,1.49v3.86h-1.12v-4.31c0-.5-.09-.88-.27-1.12-.18-.25-.48-.38-.9-.38-.32,0-.61,.08-.88,.25s-.46,.41-.58,.73c-.12,.32-.18,.78-.18,1.39v3.44h-1.12Z" style="fill:#0333ff;"/><path d="M391.46,86.36l1.16,.14c-.18,.68-.52,1.21-1.02,1.58s-1.13,.56-1.9,.56c-.97,0-1.74-.3-2.31-.9-.57-.6-.85-1.44-.85-2.52s.29-1.98,.86-2.6c.58-.62,1.32-.92,2.24-.92s1.61,.3,2.18,.91c.56,.6,.84,1.45,.84,2.55,0,.07,0,.17,0,.3h-4.95c.04,.73,.25,1.29,.62,1.67s.83,.58,1.39,.58c.41,0,.76-.11,1.06-.32,.29-.22,.52-.56,.69-1.04Zm-3.69-1.82h3.71c-.05-.56-.19-.98-.43-1.26-.36-.43-.82-.65-1.39-.65-.52,0-.95,.17-1.3,.52-.35,.35-.55,.81-.58,1.39Z" style="fill:#0333ff;"/><path d="M397.39,89.05l1.09,.16c.05,.34,.17,.58,.38,.74,.28,.21,.66,.31,1.14,.31,.52,0,.92-.1,1.21-.31,.28-.21,.47-.5,.57-.88,.06-.23,.09-.71,.08-1.44-.49,.58-1.1,.87-1.84,.87-.91,0-1.62-.33-2.12-.99s-.75-1.45-.75-2.37c0-.63,.12-1.22,.34-1.75,.23-.54,.56-.95,1-1.24,.44-.29,.95-.44,1.53-.44,.78,0,1.43,.32,1.94,.95v-.8h1.04v5.74c0,1.03-.11,1.77-.32,2.2-.21,.43-.54,.77-1,1.02-.46,.25-1.02,.38-1.68,.38-.79,0-1.43-.18-1.92-.53s-.72-.89-.71-1.61Zm.93-3.99c0,.87,.17,1.51,.52,1.91,.35,.4,.78,.6,1.3,.6s.95-.2,1.3-.6c.35-.4,.53-1.02,.53-1.87s-.18-1.42-.54-1.84c-.36-.41-.79-.62-1.3-.62s-.93,.2-1.28,.61-.53,1.01-.53,1.81Z" style="fill:#0333ff;"/><path d="M409.26,86.36l1.16,.14c-.18,.68-.52,1.21-1.02,1.58s-1.13,.56-1.9,.56c-.97,0-1.74-.3-2.31-.9-.57-.6-.85-1.44-.85-2.52s.29-1.98,.86-2.6c.58-.62,1.32-.92,2.24-.92s1.61,.3,2.18,.91c.56,.6,.84,1.45,.84,2.55,0,.07,0,.17,0,.3h-4.95c.04,.73,.25,1.29,.62,1.67s.83,.58,1.39,.58c.41,0,.76-.11,1.06-.32,.29-.22,.52-.56,.69-1.04Zm-3.69-1.82h3.71c-.05-.56-.19-.98-.43-1.26-.36-.43-.82-.65-1.39-.65-.52,0-.95,.17-1.3,.52-.35,.35-.55,.81-.58,1.39Z" style="fill:#0333ff;"/><path d="M413.05,88.5l-2.03-6.64h1.16l1.06,3.83,.39,1.43c.02-.07,.13-.53,.34-1.37l1.06-3.89h1.16l.99,3.85,.33,1.27,.38-1.28,1.14-3.84h1.09l-2.08,6.64h-1.17l-1.06-3.97-.26-1.13-1.34,5.11h-1.18Z" style="fill:#0333ff;"/><path d="M421.08,80.63v-1.29h1.12v1.29h-1.12Zm0,7.87v-6.64h1.12v6.64h-1.12Z" style="fill:#0333ff;"/><path d="M423.92,88.5v-6.64h1.01v.94c.49-.73,1.19-1.09,2.11-1.09,.4,0,.77,.07,1.1,.21,.33,.14,.59,.33,.75,.57,.17,.23,.28,.51,.35,.83,.04,.21,.06,.57,.06,1.09v4.08h-1.12v-4.04c0-.46-.04-.8-.13-1.03-.09-.23-.24-.41-.47-.54s-.48-.2-.78-.2c-.48,0-.89,.15-1.24,.46-.35,.3-.52,.88-.52,1.73v3.62h-1.12Z" style="fill:#0333ff;"/><path d="M431.04,88.5v-6.64h1.01v.94c.49-.73,1.19-1.09,2.11-1.09,.4,0,.77,.07,1.1,.21,.33,.14,.59,.33,.75,.57,.17,.23,.28,.51,.35,.83,.04,.21,.06,.57,.06,1.09v4.08h-1.12v-4.04c0-.46-.04-.8-.13-1.03-.09-.23-.24-.41-.47-.54s-.48-.2-.78-.2c-.48,0-.89,.15-1.24,.46-.35,.3-.52,.88-.52,1.73v3.62h-1.12Z" style="fill:#0333ff;"/><path d="M442.7,86.36l1.16,.14c-.18,.68-.52,1.21-1.02,1.58s-1.13,.56-1.9,.56c-.97,0-1.74-.3-2.31-.9-.57-.6-.85-1.44-.85-2.52s.29-1.98,.86-2.6c.58-.62,1.32-.92,2.24-.92s1.61,.3,2.18,.91c.56,.6,.84,1.45,.84,2.55,0,.07,0,.17,0,.3h-4.95c.04,.73,.25,1.29,.62,1.67s.83,.58,1.39,.58c.41,0,.76-.11,1.06-.32,.29-.22,.52-.56,.69-1.04Zm-3.69-1.82h3.71c-.05-.56-.19-.98-.43-1.26-.36-.43-.82-.65-1.39-.65-.52,0-.95,.17-1.3,.52-.35,.35-.55,.81-.58,1.39Z" style="fill:#0333ff;"/><path d="M445.27,88.5v-6.64h1.01v.94c.49-.73,1.19-1.09,2.11-1.09,.4,0,.77,.07,1.1,.21,.33,.14,.59,.33,.75,.57,.17,.23,.28,.51,.35,.83,.04,.21,.06,.57,.06,1.09v4.08h-1.12v-4.04c0-.46-.04-.8-.13-1.03-.09-.23-.24-.41-.47-.54s-.48-.2-.78-.2c-.48,0-.89,.15-1.24,.46-.35,.3-.52,.88-.52,1.73v3.62h-1.12Z" style="fill:#0333ff;"/></g><g><path d="M532.76,73.14v-9.16h3.16c.71,0,1.26,.04,1.63,.13,.53,.12,.97,.34,1.34,.66,.48,.41,.85,.93,1.08,1.57,.24,.64,.36,1.36,.36,2.18,0,.7-.08,1.31-.24,1.85-.16,.54-.37,.98-.62,1.33-.25,.35-.53,.63-.83,.83-.3,.2-.67,.35-1.09,.46-.43,.1-.92,.16-1.47,.16h-3.31Zm1.21-1.08h1.96c.61,0,1.08-.06,1.42-.17s.62-.27,.82-.47c.29-.29,.51-.67,.67-1.16,.16-.49,.24-1.07,.24-1.77,0-.96-.16-1.69-.47-2.21s-.7-.86-1.15-1.03c-.32-.12-.85-.19-1.57-.19h-1.92v7Z" style="fill:#0333ff;"/><path d="M546.19,72.32c-.42,.35-.82,.6-1.2,.75-.39,.15-.8,.22-1.24,.22-.73,0-1.29-.18-1.68-.54-.39-.36-.59-.81-.59-1.37,0-.33,.07-.62,.22-.89,.15-.27,.34-.48,.58-.65,.24-.16,.51-.29,.81-.37,.22-.06,.55-.11,1-.17,.91-.11,1.58-.24,2.01-.39,0-.15,0-.25,0-.29,0-.46-.11-.78-.32-.97-.29-.25-.71-.38-1.28-.38-.53,0-.92,.09-1.17,.28s-.44,.51-.56,.98l-1.1-.15c.1-.47,.27-.85,.49-1.14,.23-.29,.56-.51,.99-.67s.94-.23,1.51-.23,1.03,.07,1.38,.2c.36,.13,.62,.3,.78,.5,.17,.2,.28,.46,.35,.77,.04,.19,.06,.54,.06,1.04v1.5c0,1.05,.02,1.71,.07,1.98s.14,.54,.29,.8h-1.18c-.12-.23-.19-.51-.22-.82Zm-.09-2.51c-.41,.17-1.02,.31-1.84,.42-.46,.07-.79,.14-.98,.22-.19,.08-.34,.21-.45,.37-.1,.16-.16,.34-.16,.53,0,.3,.12,.55,.34,.75s.56,.3,1,.3,.82-.09,1.16-.28,.59-.45,.74-.78c.12-.25,.18-.63,.18-1.12v-.41Z" style="fill:#0333ff;"/><path d="M548.53,71.16l1.11-.17c.06,.45,.24,.79,.52,1.03,.29,.24,.69,.36,1.2,.36s.9-.1,1.15-.32c.25-.21,.38-.46,.38-.74,0-.25-.11-.45-.33-.6-.15-.1-.54-.23-1.15-.38-.82-.21-1.4-.39-1.71-.54-.32-.15-.56-.36-.72-.63-.17-.27-.25-.57-.25-.89,0-.3,.07-.57,.2-.82,.14-.25,.32-.46,.55-.63,.17-.13,.41-.24,.71-.33,.3-.09,.62-.13,.97-.13,.52,0,.98,.07,1.37,.22s.68,.35,.87,.61,.32,.6,.39,1.03l-1.1,.15c-.05-.34-.2-.61-.44-.8-.24-.19-.58-.29-1.02-.29-.52,0-.88,.08-1.11,.26s-.33,.37-.33,.6c0,.15,.05,.28,.14,.39,.09,.12,.23,.22,.43,.3,.11,.04,.45,.14,.99,.29,.8,.21,1.35,.39,1.67,.52s.56,.33,.74,.59c.18,.26,.27,.58,.27,.96s-.11,.73-.33,1.06-.54,.59-.95,.77c-.41,.18-.88,.27-1.4,.27-.86,0-1.52-.18-1.97-.54-.45-.36-.74-.89-.87-1.59Z" style="fill:#0333ff;"/><path d="M558.52,69.82c0-1.23,.34-2.14,1.03-2.73,.57-.49,1.27-.74,2.09-.74,.91,0,1.66,.3,2.24,.9s.87,1.42,.87,2.48c0,.85-.13,1.53-.38,2.02-.26,.49-.63,.87-1.12,1.14-.49,.27-1.02,.41-1.6,.41-.93,0-1.68-.3-2.25-.89-.57-.6-.86-1.45-.86-2.57Zm1.16,0c0,.85,.19,1.49,.56,1.91,.37,.42,.84,.63,1.4,.63s1.02-.21,1.39-.64c.37-.43,.56-1.07,.56-1.94,0-.82-.19-1.44-.56-1.87s-.84-.63-1.39-.63-1.03,.21-1.4,.63c-.37,.42-.56,1.06-.56,1.91Z" style="fill:#0333ff;"/><path d="M566.05,75.68v-9.18h1.03v.86c.24-.34,.51-.59,.82-.76s.67-.25,1.11-.25c.57,0,1.07,.15,1.5,.44,.43,.29,.76,.7,.98,1.23s.33,1.11,.33,1.75c0,.68-.12,1.29-.37,1.83-.24,.54-.6,.96-1.06,1.25-.46,.29-.95,.43-1.46,.43-.38,0-.71-.08-1.01-.24-.3-.16-.54-.36-.73-.6v3.23h-1.12Zm1.02-5.83c0,.85,.17,1.49,.52,1.89s.77,.61,1.26,.61,.93-.21,1.28-.63c.36-.42,.54-1.08,.54-1.97s-.17-1.48-.52-1.9c-.35-.42-.76-.63-1.25-.63s-.9,.22-1.27,.67-.55,1.1-.55,1.95Z" style="fill:#0333ff;"/><path d="M575.63,72.13l.16,.99c-.32,.07-.6,.1-.85,.1-.41,0-.72-.07-.95-.19-.22-.13-.38-.3-.47-.51-.09-.21-.14-.65-.14-1.33v-3.82h-.83v-.88h.83v-1.64l1.12-.67v2.32h1.13v.88h-1.13v3.88c0,.32,.02,.53,.06,.62s.1,.17,.19,.22c.09,.05,.22,.08,.38,.08,.12,0,.29-.01,.49-.04Z" style="fill:#0333ff;"/><path d="M576.74,65.27v-1.29h1.12v1.29h-1.12Zm0,7.87v-6.64h1.12v6.64h-1.12Z" style="fill:#0333ff;"/><path d="M579.57,73.14v-6.64h1.01v.93c.21-.33,.48-.59,.83-.78,.35-.2,.74-.3,1.18-.3,.49,0,.89,.1,1.21,.31,.31,.2,.54,.49,.66,.86,.53-.78,1.21-1.16,2.05-1.16,.66,0,1.16,.18,1.52,.55,.35,.36,.53,.93,.53,1.68v4.56h-1.12v-4.18c0-.45-.04-.77-.11-.97-.07-.2-.21-.36-.4-.48-.19-.12-.42-.18-.68-.18-.47,0-.85,.16-1.16,.47s-.46,.81-.46,1.49v3.86h-1.12v-4.31c0-.5-.09-.88-.28-1.12s-.48-.38-.9-.38c-.32,0-.61,.08-.88,.25-.27,.17-.46,.41-.58,.73-.12,.32-.18,.78-.18,1.39v3.44h-1.12Z" style="fill:#0333ff;"/><path d="M594.57,72.32c-.42,.35-.82,.6-1.2,.75-.39,.15-.8,.22-1.24,.22-.73,0-1.29-.18-1.68-.54-.39-.36-.59-.81-.59-1.37,0-.33,.07-.62,.22-.89,.15-.27,.34-.48,.58-.65,.24-.16,.51-.29,.81-.37,.22-.06,.55-.11,1-.17,.91-.11,1.58-.24,2.01-.39,0-.15,0-.25,0-.29,0-.46-.11-.78-.32-.97-.29-.25-.71-.38-1.28-.38-.53,0-.92,.09-1.17,.28s-.44,.51-.56,.98l-1.1-.15c.1-.47,.27-.85,.49-1.14,.23-.29,.56-.51,.99-.67s.94-.23,1.51-.23,1.03,.07,1.38,.2c.36,.13,.62,.3,.78,.5,.17,.2,.28,.46,.35,.77,.04,.19,.06,.54,.06,1.04v1.5c0,1.05,.02,1.71,.07,1.98s.14,.54,.29,.8h-1.18c-.12-.23-.19-.51-.22-.82Zm-.09-2.51c-.41,.17-1.02,.31-1.84,.42-.46,.07-.79,.14-.98,.22-.19,.08-.34,.21-.45,.37-.1,.16-.16,.34-.16,.53,0,.3,.12,.55,.34,.75s.56,.3,1,.3,.82-.09,1.16-.28,.59-.45,.74-.78c.12-.25,.18-.63,.18-1.12v-.41Z" style="fill:#0333ff;"/><path d="M597.33,73.14v-9.16h1.12v9.16h-1.12Z" style="fill:#0333ff;"/><path d="M604.74,71l1.16,.14c-.18,.68-.52,1.21-1.02,1.58s-1.13,.56-1.9,.56c-.97,0-1.74-.3-2.31-.9-.57-.6-.85-1.44-.85-2.52s.29-1.98,.86-2.6c.58-.62,1.32-.92,2.24-.92s1.61,.3,2.18,.91c.56,.6,.84,1.45,.84,2.55,0,.07,0,.17,0,.3h-4.95c.04,.73,.25,1.29,.62,1.67s.83,.58,1.39,.58c.41,0,.77-.11,1.06-.32s.52-.56,.69-1.04Zm-3.69-1.82h3.71c-.05-.56-.19-.98-.43-1.26-.36-.43-.82-.65-1.39-.65-.52,0-.95,.17-1.3,.52s-.55,.81-.58,1.39Z" style="fill:#0333ff;"/><path d="M610.61,70.19l1.14-.1c.05,.46,.18,.83,.38,1.13,.2,.29,.5,.53,.92,.71,.42,.18,.88,.27,1.41,.27,.46,0,.87-.07,1.22-.21s.62-.33,.79-.57c.17-.24,.26-.5,.26-.78s-.08-.54-.25-.75c-.17-.21-.44-.4-.83-.54-.25-.1-.79-.25-1.63-.45-.84-.2-1.43-.39-1.77-.57-.44-.23-.76-.51-.98-.85-.21-.34-.32-.72-.32-1.14,0-.46,.13-.89,.39-1.3,.26-.4,.65-.71,1.15-.92,.5-.21,1.06-.31,1.68-.31,.68,0,1.28,.11,1.8,.33s.92,.54,1.2,.96c.28,.43,.43,.91,.45,1.44l-1.16,.09c-.06-.58-.27-1.02-.63-1.31-.36-.29-.89-.44-1.6-.44s-1.27,.13-1.6,.4-.5,.59-.5,.97c0,.33,.12,.6,.36,.81,.23,.21,.84,.43,1.83,.65,.98,.22,1.66,.42,2.03,.58,.53,.25,.93,.56,1.18,.93s.38,.81,.38,1.3-.14,.95-.42,1.38c-.28,.43-.68,.77-1.2,1.01-.52,.24-1.11,.36-1.77,.36-.83,0-1.53-.12-2.09-.36-.56-.24-1-.61-1.32-1.09s-.49-1.03-.5-1.65Z" style="fill:#0333ff;"/><path d="M619.36,75.69l-.12-1.06c.25,.07,.46,.1,.64,.1,.25,0,.45-.04,.6-.12,.15-.08,.27-.2,.37-.35,.07-.11,.19-.39,.34-.84,.02-.06,.05-.15,.1-.27l-2.52-6.65h1.21l1.38,3.84c.18,.49,.34,1,.48,1.54,.13-.52,.28-1.02,.46-1.51l1.42-3.87h1.12l-2.53,6.75c-.27,.73-.48,1.23-.63,1.51-.2,.37-.43,.64-.69,.82s-.57,.26-.93,.26c-.22,0-.46-.05-.72-.14Z" style="fill:#0333ff;"/><path d="M625.36,71.16l1.11-.17c.06,.45,.24,.79,.52,1.03,.29,.24,.68,.36,1.2,.36s.9-.1,1.15-.32c.25-.21,.38-.46,.38-.74,0-.25-.11-.45-.33-.6-.15-.1-.54-.23-1.15-.38-.83-.21-1.4-.39-1.72-.54-.32-.15-.56-.36-.72-.63s-.25-.57-.25-.89c0-.3,.07-.57,.2-.82,.13-.25,.32-.46,.55-.63,.18-.13,.41-.24,.71-.33,.3-.09,.63-.13,.97-.13,.52,0,.98,.07,1.37,.22,.39,.15,.69,.35,.87,.61s.32,.6,.39,1.03l-1.1,.15c-.05-.34-.2-.61-.43-.8-.24-.19-.58-.29-1.02-.29-.52,0-.89,.08-1.11,.26s-.33,.37-.33,.6c0,.15,.04,.28,.14,.39,.09,.12,.24,.22,.43,.3,.11,.04,.44,.14,.99,.29,.79,.21,1.35,.39,1.66,.52s.56,.33,.74,.59c.18,.26,.27,.58,.27,.96s-.11,.73-.33,1.06-.53,.59-.95,.77c-.41,.18-.88,.27-1.4,.27-.86,0-1.52-.18-1.97-.54s-.74-.89-.87-1.59Z" style="fill:#0333ff;"/><path d="M634.67,72.13l.16,.99c-.32,.07-.6,.1-.85,.1-.41,0-.72-.07-.95-.19-.22-.13-.38-.3-.47-.51-.09-.21-.14-.65-.14-1.33v-3.82h-.83v-.88h.83v-1.64l1.12-.67v2.32h1.13v.88h-1.13v3.88c0,.32,.02,.53,.06,.62s.1,.17,.19,.22c.09,.05,.22,.08,.38,.08,.12,0,.29-.01,.49-.04Z" style="fill:#0333ff;"/><path d="M640.31,71l1.16,.14c-.18,.68-.52,1.21-1.02,1.58s-1.13,.56-1.9,.56c-.97,0-1.74-.3-2.31-.9-.57-.6-.85-1.44-.85-2.52s.29-1.98,.86-2.6c.57-.62,1.32-.92,2.24-.92s1.61,.3,2.18,.91c.56,.6,.84,1.45,.84,2.55,0,.07,0,.17,0,.3h-4.95c.04,.73,.25,1.29,.62,1.67s.83,.58,1.39,.58c.41,0,.76-.11,1.05-.32,.29-.22,.52-.56,.7-1.04Zm-3.7-1.82h3.71c-.05-.56-.19-.98-.43-1.26-.36-.43-.82-.65-1.39-.65-.52,0-.95,.17-1.3,.52-.35,.35-.55,.81-.59,1.39Z" style="fill:#0333ff;"/><path d="M642.89,73.14v-6.64h1.01v.93c.21-.33,.48-.59,.83-.78,.35-.2,.74-.3,1.18-.3,.49,0,.89,.1,1.21,.31,.31,.2,.54,.49,.66,.86,.53-.78,1.21-1.16,2.05-1.16,.66,0,1.16,.18,1.52,.55,.35,.36,.53,.93,.53,1.68v4.56h-1.12v-4.18c0-.45-.04-.77-.11-.97-.07-.2-.21-.36-.4-.48-.19-.12-.42-.18-.68-.18-.47,0-.85,.16-1.16,.47s-.46,.81-.46,1.49v3.86h-1.12v-4.31c0-.5-.09-.88-.28-1.12s-.48-.38-.9-.38c-.32,0-.61,.08-.88,.25-.27,.17-.46,.41-.58,.73-.12,.32-.18,.78-.18,1.39v3.44h-1.12Z" style="fill:#0333ff;"/><path d="M661.46,73.14v-.97c-.52,.75-1.22,1.12-2.11,1.12-.39,0-.76-.08-1.1-.23-.34-.15-.59-.34-.76-.57-.17-.23-.28-.5-.35-.83-.04-.22-.07-.57-.07-1.05v-4.11h1.12v3.68c0,.59,.02,.98,.07,1.19,.07,.3,.22,.53,.45,.7,.23,.17,.51,.25,.85,.25s.65-.09,.95-.26c.3-.17,.51-.41,.63-.71s.18-.73,.18-1.3v-3.56h1.12v6.64h-1.01Z" style="fill:#0333ff;"/><path d="M664.22,73.14v-6.64h1.01v.94c.49-.73,1.19-1.09,2.11-1.09,.4,0,.77,.07,1.1,.21,.33,.14,.59,.33,.75,.57s.28,.51,.35,.83c.04,.21,.06,.57,.06,1.09v4.08h-1.12v-4.04c0-.46-.04-.8-.13-1.03-.09-.23-.24-.41-.46-.54s-.48-.2-.79-.2c-.48,0-.89,.15-1.24,.46-.35,.3-.52,.88-.52,1.73v3.62h-1.12Z" style="fill:#0333ff;"/><path d="M675.65,73.14v-.84c-.42,.66-1.04,.99-1.86,.99-.53,0-1.02-.15-1.46-.44-.44-.29-.79-.7-1.03-1.22-.24-.52-.37-1.12-.37-1.8s.11-1.26,.33-1.8c.22-.54,.55-.95,.99-1.24,.44-.29,.94-.43,1.48-.43,.4,0,.76,.08,1.07,.25s.57,.39,.76,.66v-3.29h1.12v9.16h-1.04Zm-3.56-3.31c0,.85,.18,1.49,.54,1.91,.36,.42,.78,.63,1.27,.63s.91-.2,1.25-.6,.52-1.02,.52-1.84c0-.91-.18-1.58-.53-2s-.78-.64-1.29-.64-.92,.2-1.25,.61c-.34,.41-.5,1.05-.5,1.93Z" style="fill:#0333ff;"/><path d="M518.06,88.5v-.84c-.42,.66-1.04,.99-1.86,.99-.53,0-1.02-.15-1.46-.44-.44-.29-.79-.7-1.03-1.22-.24-.52-.37-1.12-.37-1.8s.11-1.26,.33-1.8c.22-.54,.55-.95,.99-1.24,.44-.29,.94-.43,1.48-.43,.4,0,.76,.08,1.07,.25s.57,.39,.76,.66v-3.29h1.12v9.16h-1.04Zm-3.56-3.31c0,.85,.18,1.49,.54,1.91,.36,.42,.78,.63,1.27,.63s.91-.2,1.25-.6,.52-1.02,.52-1.84c0-.91-.18-1.58-.53-2s-.78-.64-1.29-.64-.92,.2-1.25,.61c-.34,.41-.5,1.05-.5,1.93Z" style="fill:#0333ff;"/><path d="M525.42,86.36l1.16,.14c-.18,.68-.52,1.21-1.02,1.58s-1.13,.56-1.9,.56c-.97,0-1.74-.3-2.31-.9-.57-.6-.85-1.44-.85-2.52s.29-1.98,.86-2.6c.57-.62,1.32-.92,2.24-.92s1.61,.3,2.18,.91c.56,.6,.84,1.45,.84,2.55,0,.07,0,.17,0,.3h-4.95c.04,.73,.25,1.29,.62,1.67s.83,.58,1.39,.58c.41,0,.76-.11,1.05-.32,.29-.22,.52-.56,.7-1.04Zm-3.7-1.82h3.71c-.05-.56-.19-.98-.43-1.26-.36-.43-.82-.65-1.39-.65-.52,0-.95,.17-1.3,.52-.35,.35-.55,.81-.59,1.39Z" style="fill:#0333ff;"/><path d="M527.99,88.5v-6.64h1.01v.94c.49-.73,1.19-1.09,2.11-1.09,.4,0,.77,.07,1.1,.21,.33,.14,.59,.33,.75,.57s.28,.51,.35,.83c.04,.21,.06,.57,.06,1.09v4.08h-1.12v-4.04c0-.46-.04-.8-.13-1.03-.09-.23-.24-.41-.46-.54s-.48-.2-.79-.2c-.48,0-.89,.15-1.24,.46-.35,.3-.52,.88-.52,1.73v3.62h-1.12Z" style="fill:#0333ff;"/><path d="M538.25,85.18c0-1.23,.34-2.14,1.03-2.73,.57-.49,1.27-.74,2.09-.74,.91,0,1.66,.3,2.24,.9s.87,1.42,.87,2.48c0,.85-.13,1.53-.38,2.02-.26,.49-.63,.87-1.12,1.14-.49,.27-1.02,.41-1.6,.41-.93,0-1.68-.3-2.25-.89-.57-.6-.86-1.45-.86-2.57Zm1.16,0c0,.85,.19,1.49,.56,1.91,.37,.42,.84,.63,1.4,.63s1.02-.21,1.39-.64c.37-.43,.56-1.07,.56-1.94,0-.82-.19-1.44-.56-1.87s-.84-.63-1.39-.63-1.03,.21-1.4,.63c-.37,.42-.56,1.06-.56,1.91Z" style="fill:#0333ff;"/><path d="M545.78,91.04v-9.18h1.03v.86c.24-.34,.51-.59,.82-.76s.67-.25,1.11-.25c.57,0,1.07,.15,1.5,.44,.43,.29,.76,.7,.98,1.23s.33,1.11,.33,1.75c0,.68-.12,1.29-.37,1.83-.24,.54-.6,.96-1.06,1.25-.46,.29-.95,.43-1.46,.43-.38,0-.71-.08-1.01-.24-.3-.16-.54-.36-.73-.6v3.23h-1.12Zm1.02-5.83c0,.85,.17,1.49,.52,1.89s.77,.61,1.26,.61,.93-.21,1.28-.63c.36-.42,.54-1.08,.54-1.97s-.17-1.48-.52-1.9c-.35-.42-.76-.63-1.25-.63s-.9,.22-1.27,.67-.55,1.1-.55,1.95Z" style="fill:#0333ff;"/><path d="M555.36,87.49l.16,.99c-.32,.07-.6,.1-.85,.1-.41,0-.72-.07-.95-.19-.22-.13-.38-.3-.47-.51-.09-.21-.14-.65-.14-1.33v-3.82h-.83v-.88h.83v-1.64l1.12-.67v2.32h1.13v.88h-1.13v3.88c0,.32,.02,.53,.06,.62s.1,.17,.19,.22c.09,.05,.22,.08,.38,.08,.12,0,.29-.01,.49-.04Z" style="fill:#0333ff;"/><path d="M556.46,80.63v-1.29h1.12v1.29h-1.12Zm0,7.87v-6.64h1.12v6.64h-1.12Z" style="fill:#0333ff;"/><path d="M559.3,88.5v-6.64h1.01v.93c.21-.33,.48-.59,.83-.78,.35-.2,.74-.3,1.18-.3,.49,0,.89,.1,1.21,.31,.31,.2,.54,.49,.66,.86,.53-.78,1.21-1.16,2.05-1.16,.66,0,1.16,.18,1.52,.55,.35,.36,.53,.93,.53,1.68v4.56h-1.12v-4.18c0-.45-.04-.77-.11-.97-.07-.2-.21-.36-.4-.48-.19-.12-.42-.18-.68-.18-.47,0-.85,.16-1.16,.47s-.46,.81-.46,1.49v3.86h-1.12v-4.31c0-.5-.09-.88-.28-1.12s-.48-.38-.9-.38c-.32,0-.61,.08-.88,.25-.27,.17-.46,.41-.58,.73-.12,.32-.18,.78-.18,1.39v3.44h-1.12Z" style="fill:#0333ff;"/><path d="M574.3,87.68c-.42,.35-.82,.6-1.2,.75-.39,.15-.8,.22-1.24,.22-.73,0-1.29-.18-1.68-.54-.39-.36-.59-.81-.59-1.37,0-.33,.07-.62,.22-.89,.15-.27,.34-.48,.58-.65,.24-.16,.51-.29,.81-.37,.22-.06,.55-.11,1-.17,.91-.11,1.58-.24,2.01-.39,0-.15,0-.25,0-.29,0-.46-.11-.78-.32-.97-.29-.25-.71-.38-1.28-.38-.53,0-.92,.09-1.17,.28s-.44,.51-.56,.98l-1.1-.15c.1-.47,.27-.85,.49-1.14,.23-.29,.56-.51,.99-.67s.94-.23,1.51-.23,1.03,.07,1.38,.2c.36,.13,.62,.3,.78,.5,.17,.2,.28,.46,.35,.77,.04,.19,.06,.54,.06,1.04v1.5c0,1.05,.02,1.71,.07,1.98s.14,.54,.29,.8h-1.18c-.12-.23-.19-.51-.22-.82Zm-.09-2.51c-.41,.17-1.02,.31-1.84,.42-.46,.07-.79,.14-.98,.22-.19,.08-.34,.21-.45,.37-.1,.16-.16,.34-.16,.53,0,.3,.12,.55,.34,.75s.56,.3,1,.3,.82-.09,1.16-.28,.59-.45,.74-.78c.12-.25,.18-.63,.18-1.12v-.41Z" style="fill:#0333ff;"/><path d="M577.06,88.5v-9.16h1.12v9.16h-1.12Z" style="fill:#0333ff;"/><path d="M584.47,86.36l1.16,.14c-.18,.68-.52,1.21-1.02,1.58s-1.13,.56-1.9,.56c-.97,0-1.74-.3-2.31-.9-.57-.6-.85-1.44-.85-2.52s.29-1.98,.86-2.6c.58-.62,1.32-.92,2.24-.92s1.61,.3,2.18,.91c.56,.6,.84,1.45,.84,2.55,0,.07,0,.17,0,.3h-4.95c.04,.73,.25,1.29,.62,1.67s.83,.58,1.39,.58c.41,0,.77-.11,1.06-.32s.52-.56,.69-1.04Zm-3.69-1.82h3.71c-.05-.56-.19-.98-.43-1.26-.36-.43-.82-.65-1.39-.65-.52,0-.95,.17-1.3,.52s-.55,.81-.58,1.39Z" style="fill:#0333ff;"/><path d="M587.05,88.5v-6.64h1.01v.94c.49-.73,1.19-1.09,2.11-1.09,.4,0,.77,.07,1.1,.21,.33,.14,.59,.33,.75,.57s.28,.51,.35,.83c.04,.21,.06,.57,.06,1.09v4.08h-1.12v-4.04c0-.46-.04-.8-.13-1.03-.09-.23-.24-.41-.46-.54s-.48-.2-.79-.2c-.48,0-.89,.15-1.24,.46-.35,.3-.52,.88-.52,1.73v3.62h-1.12Z" style="fill:#0333ff;"/><path d="M596.15,88.5l3.52-9.16h1.31l3.75,9.16h-1.38l-1.07-2.78h-3.83l-1.01,2.78h-1.29Zm2.64-3.76h3.11l-.96-2.54c-.29-.77-.51-1.4-.65-1.9-.12,.59-.28,1.17-.49,1.75l-1.01,2.69Z" style="fill:#0333ff;"/><path d="M605.55,88.5v-6.64h1.01v.94c.49-.73,1.19-1.09,2.11-1.09,.4,0,.77,.07,1.1,.21,.33,.14,.59,.33,.75,.57s.28,.51,.35,.83c.04,.21,.06,.57,.06,1.09v4.08h-1.12v-4.04c0-.46-.04-.8-.13-1.03-.09-.23-.24-.41-.46-.54s-.48-.2-.79-.2c-.48,0-.89,.15-1.24,.46-.35,.3-.52,.88-.52,1.73v3.62h-1.12Z" style="fill:#0333ff;"/><path d="M613.71,88.5h-1.04v-9.16h1.12v3.27c.47-.6,1.08-.89,1.82-.89,.41,0,.79,.08,1.16,.25,.37,.17,.67,.4,.9,.69,.24,.3,.42,.66,.55,1.08,.13,.42,.2,.87,.2,1.35,0,1.14-.28,2.02-.84,2.64s-1.24,.93-2.03,.93-1.4-.33-1.84-.98v.83Zm-.01-3.37c0,.8,.11,1.37,.32,1.73,.35,.58,.83,.87,1.44,.87,.49,0,.92-.21,1.28-.64,.36-.43,.54-1.06,.54-1.91s-.17-1.51-.52-1.92c-.34-.41-.76-.62-1.25-.62s-.92,.21-1.28,.64c-.36,.43-.54,1.04-.54,1.85Z" style="fill:#0333ff;"/><path d="M619.79,80.63v-1.29h1.12v1.29h-1.12Zm0,7.87v-6.64h1.12v6.64h-1.12Z" style="fill:#0333ff;"/><path d="M627.18,86.36l1.16,.14c-.18,.68-.52,1.21-1.02,1.58s-1.13,.56-1.9,.56c-.97,0-1.74-.3-2.31-.9-.57-.6-.85-1.44-.85-2.52s.29-1.98,.86-2.6c.57-.62,1.32-.92,2.24-.92s1.61,.3,2.18,.91c.56,.6,.84,1.45,.84,2.55,0,.07,0,.17,0,.3h-4.95c.04,.73,.25,1.29,.62,1.67s.83,.58,1.39,.58c.41,0,.76-.11,1.05-.32,.29-.22,.52-.56,.7-1.04Zm-3.7-1.82h3.71c-.05-.56-.19-.98-.43-1.26-.36-.43-.82-.65-1.39-.65-.52,0-.95,.17-1.3,.52-.35,.35-.55,.81-.59,1.39Z" style="fill:#0333ff;"/><path d="M632.21,87.49l.16,.99c-.32,.07-.6,.1-.85,.1-.41,0-.72-.07-.95-.19-.22-.13-.38-.3-.47-.51-.09-.21-.14-.65-.14-1.33v-3.82h-.83v-.88h.83v-1.64l1.12-.67v2.32h1.13v.88h-1.13v3.88c0,.32,.02,.53,.06,.62s.1,.17,.19,.22c.09,.05,.22,.08,.38,.08,.12,0,.29-.01,.49-.04Z" style="fill:#0333ff;"/><path d="M637.85,86.36l1.16,.14c-.18,.68-.52,1.21-1.02,1.58s-1.13,.56-1.9,.56c-.97,0-1.74-.3-2.31-.9-.57-.6-.85-1.44-.85-2.52s.29-1.98,.86-2.6c.57-.62,1.32-.92,2.24-.92s1.61,.3,2.18,.91c.56,.6,.84,1.45,.84,2.55,0,.07,0,.17,0,.3h-4.95c.04,.73,.25,1.29,.62,1.67s.83,.58,1.39,.58c.41,0,.76-.11,1.05-.32,.29-.22,.52-.56,.7-1.04Zm-3.7-1.82h3.71c-.05-.56-.19-.98-.43-1.26-.36-.43-.82-.65-1.39-.65-.52,0-.95,.17-1.3,.52-.35,.35-.55,.81-.59,1.39Z" style="fill:#0333ff;"/><path d="M640.41,88.5v-6.64h1.01v1.01c.26-.47,.5-.78,.71-.93s.46-.22,.72-.22c.38,0,.76,.12,1.16,.36l-.39,1.04c-.27-.16-.55-.24-.82-.24-.25,0-.47,.07-.66,.22-.2,.15-.34,.35-.42,.62-.12,.4-.19,.84-.19,1.31v3.47h-1.12Z" style="fill:#0333ff;"/><path d="M652.79,86.36l1.16,.14c-.18,.68-.52,1.21-1.02,1.58s-1.13,.56-1.9,.56c-.97,0-1.74-.3-2.31-.9-.57-.6-.85-1.44-.85-2.52s.29-1.98,.86-2.6c.58-.62,1.32-.92,2.24-.92s1.61,.3,2.18,.91c.56,.6,.84,1.45,.84,2.55,0,.07,0,.17,0,.3h-4.95c.04,.73,.25,1.29,.62,1.67s.83,.58,1.39,.58c.41,0,.77-.11,1.06-.32s.52-.56,.69-1.04Zm-3.69-1.82h3.71c-.05-.56-.19-.98-.43-1.26-.36-.43-.82-.65-1.39-.65-.52,0-.95,.17-1.3,.52s-.55,.81-.58,1.39Z" style="fill:#0333ff;"/><path d="M655.35,88.5v-6.64h1.01v1.01c.26-.47,.5-.78,.71-.93s.46-.22,.72-.22c.38,0,.76,.12,1.16,.36l-.39,1.04c-.27-.16-.55-.24-.82-.24-.25,0-.47,.07-.66,.22-.2,.15-.34,.35-.42,.62-.12,.4-.19,.84-.19,1.31v3.47h-1.12Z" style="fill:#0333ff;"/><path d="M659.63,88.5v-6.64h1.01v.93c.21-.33,.49-.59,.83-.78,.35-.2,.74-.3,1.18-.3,.49,0,.89,.1,1.21,.31s.54,.49,.67,.86c.53-.78,1.21-1.16,2.05-1.16,.66,0,1.17,.18,1.52,.55,.35,.36,.53,.93,.53,1.68v4.56h-1.12v-4.18c0-.45-.04-.77-.11-.97-.07-.2-.21-.36-.4-.48-.19-.12-.42-.18-.68-.18-.47,0-.85,.16-1.16,.47s-.46,.81-.46,1.49v3.86h-1.12v-4.31c0-.5-.09-.88-.27-1.12-.18-.25-.48-.38-.9-.38-.32,0-.61,.08-.88,.25-.27,.17-.46,.41-.58,.73-.12,.32-.18,.78-.18,1.39v3.44h-1.12Z" style="fill:#0333ff;"/><path d="M670.29,80.63v-1.29h1.12v1.29h-1.12Zm0,7.87v-6.64h1.12v6.64h-1.12Z" style="fill:#0333ff;"/><path d="M675.59,87.49l.16,.99c-.32,.07-.6,.1-.85,.1-.41,0-.72-.07-.95-.19-.22-.13-.38-.3-.47-.51-.09-.21-.14-.65-.14-1.33v-3.82h-.83v-.88h.83v-1.64l1.12-.67v2.32h1.13v.88h-1.13v3.88c0,.32,.02,.53,.06,.62s.1,.17,.19,.22c.09,.05,.22,.08,.38,.08,.12,0,.29-.01,.49-.04Z" style="fill:#0333ff;"/><path d="M679.15,87.49l.16,.99c-.32,.07-.6,.1-.85,.1-.41,0-.72-.07-.95-.19-.22-.13-.38-.3-.47-.51-.09-.21-.14-.65-.14-1.33v-3.82h-.83v-.88h.83v-1.64l1.12-.67v2.32h1.13v.88h-1.13v3.88c0,.32,.02,.53,.06,.62s.1,.17,.19,.22c.09,.05,.22,.08,.38,.08,.12,0,.29-.01,.49-.04Z" style="fill:#0333ff;"/><path d="M684.79,86.36l1.16,.14c-.18,.68-.52,1.21-1.02,1.58s-1.13,.56-1.9,.56c-.97,0-1.74-.3-2.31-.9-.57-.6-.85-1.44-.85-2.52s.29-1.98,.86-2.6c.58-.62,1.32-.92,2.24-.92s1.61,.3,2.18,.91c.56,.6,.84,1.45,.84,2.55,0,.07,0,.17,0,.3h-4.95c.04,.73,.25,1.29,.62,1.67s.83,.58,1.39,.58c.41,0,.77-.11,1.06-.32s.52-.56,.69-1.04Zm-3.69-1.82h3.71c-.05-.56-.19-.98-.43-1.26-.36-.43-.82-.65-1.39-.65-.52,0-.95,.17-1.3,.52s-.55,.81-.58,1.39Z" style="fill:#0333ff;"/><path d="M687.34,88.5v-9.16h1.12v9.16h-1.12Z" style="fill:#0333ff;"/><path d="M690.21,88.5v-6.64h1.01v.94c.49-.73,1.19-1.09,2.11-1.09,.4,0,.77,.07,1.1,.21,.33,.14,.59,.33,.75,.57s.28,.51,.35,.83c.04,.21,.06,.57,.06,1.09v4.08h-1.12v-4.04c0-.46-.04-.8-.13-1.03-.09-.23-.24-.41-.46-.54s-.48-.2-.79-.2c-.48,0-.89,.15-1.24,.46-.35,.3-.52,.88-.52,1.73v3.62h-1.12Z" style="fill:#0333ff;"/></g><g><path d="M749.39,73.14l3.52-9.16h1.31l3.75,9.16h-1.38l-1.07-2.78h-3.83l-1.01,2.78h-1.29Zm2.64-3.76h3.11l-.96-2.54c-.29-.77-.51-1.4-.65-1.9-.12,.59-.28,1.17-.49,1.75l-1.01,2.69Z" style="fill:#0333ff;"/><path d="M763.14,73.14v-.97c-.52,.75-1.22,1.12-2.11,1.12-.39,0-.76-.08-1.1-.23-.34-.15-.59-.34-.76-.57-.17-.23-.28-.5-.35-.83-.05-.22-.07-.57-.07-1.05v-4.11h1.12v3.68c0,.59,.02,.98,.07,1.19,.07,.3,.22,.53,.45,.7,.23,.17,.51,.25,.85,.25s.65-.09,.95-.26,.5-.41,.63-.71,.18-.73,.18-1.3v-3.56h1.12v6.64h-1.01Z" style="fill:#0333ff;"/><path d="M765.46,71.16l1.11-.17c.06,.45,.24,.79,.52,1.03,.29,.24,.68,.36,1.2,.36s.9-.1,1.15-.32c.25-.21,.38-.46,.38-.74,0-.25-.11-.45-.33-.6-.15-.1-.54-.23-1.15-.38-.83-.21-1.4-.39-1.72-.54-.32-.15-.56-.36-.72-.63-.17-.27-.25-.57-.25-.89,0-.3,.07-.57,.2-.82,.14-.25,.32-.46,.55-.63,.17-.13,.41-.24,.71-.33,.3-.09,.63-.13,.97-.13,.52,0,.98,.07,1.37,.22,.39,.15,.68,.35,.87,.61s.32,.6,.39,1.03l-1.1,.15c-.05-.34-.2-.61-.43-.8-.24-.19-.58-.29-1.02-.29-.52,0-.89,.08-1.11,.26s-.33,.37-.33,.6c0,.15,.05,.28,.14,.39,.09,.12,.24,.22,.43,.3,.11,.04,.44,.14,.99,.29,.8,.21,1.35,.39,1.67,.52s.56,.33,.74,.59c.18,.26,.27,.58,.27,.96s-.11,.73-.33,1.06-.53,.59-.95,.77c-.41,.18-.88,.27-1.4,.27-.86,0-1.52-.18-1.97-.54-.45-.36-.74-.89-.87-1.59Z" style="fill:#0333ff;"/><path d="M773.54,73.14l-2.03-6.64h1.16l1.06,3.83,.39,1.43c.02-.07,.13-.53,.34-1.37l1.06-3.89h1.16l.99,3.85,.33,1.27,.38-1.28,1.14-3.84h1.09l-2.08,6.64h-1.17l-1.06-3.97-.26-1.13-1.34,5.11h-1.18Z" style="fill:#0333ff;"/><path d="M785.88,72.32c-.42,.35-.82,.6-1.2,.75-.39,.15-.8,.22-1.24,.22-.73,0-1.29-.18-1.68-.54-.39-.36-.59-.81-.59-1.37,0-.33,.07-.62,.22-.89,.15-.27,.34-.48,.58-.65,.24-.16,.51-.29,.81-.37,.22-.06,.55-.11,1-.17,.91-.11,1.58-.24,2.01-.39,0-.15,0-.25,0-.29,0-.46-.11-.78-.32-.97-.29-.25-.71-.38-1.28-.38-.53,0-.92,.09-1.17,.28s-.44,.51-.56,.98l-1.1-.15c.1-.47,.26-.85,.49-1.14,.23-.29,.56-.51,.99-.67s.94-.23,1.51-.23,1.03,.07,1.38,.2c.35,.13,.61,.3,.78,.5s.28,.46,.35,.77c.04,.19,.06,.54,.06,1.04v1.5c0,1.05,.02,1.71,.07,1.98,.05,.28,.14,.54,.28,.8h-1.17c-.12-.23-.19-.51-.23-.82Zm-.09-2.51c-.41,.17-1.02,.31-1.84,.42-.46,.07-.79,.14-.98,.22-.19,.08-.34,.21-.44,.37-.1,.16-.16,.34-.16,.53,0,.3,.11,.55,.34,.75,.23,.2,.56,.3,1,.3s.82-.09,1.16-.28,.58-.45,.74-.78c.12-.25,.18-.63,.18-1.12v-.41Z" style="fill:#0333ff;"/><path d="M788.67,73.14v-9.16h1.12v3.29c.53-.61,1.19-.91,1.99-.91,.49,0,.92,.1,1.28,.29,.36,.19,.62,.46,.78,.8s.23,.84,.23,1.49v4.21h-1.12v-4.21c0-.56-.12-.97-.37-1.23-.24-.26-.59-.38-1.04-.38-.33,0-.65,.09-.94,.26s-.5,.41-.63,.7-.19,.7-.19,1.23v3.63h-1.12Z" style="fill:#0333ff;"/><path d="M795.77,73.14v-9.16h1.12v9.16h-1.12Z" style="fill:#0333ff;"/><path d="M806.5,73.14v-.84c-.42,.66-1.04,.99-1.86,.99-.53,0-1.02-.15-1.46-.44-.44-.29-.79-.7-1.03-1.22-.24-.52-.37-1.12-.37-1.8s.11-1.26,.33-1.8c.22-.54,.55-.95,.99-1.24,.44-.29,.94-.43,1.48-.43,.4,0,.76,.08,1.07,.25s.57,.39,.76,.66v-3.29h1.12v9.16h-1.04Zm-3.56-3.31c0,.85,.18,1.49,.54,1.91s.78,.63,1.27,.63,.91-.2,1.25-.6,.52-1.02,.52-1.84c0-.91-.17-1.58-.53-2-.35-.42-.78-.64-1.29-.64s-.92,.2-1.25,.61c-.33,.41-.5,1.05-.5,1.93Z" style="fill:#0333ff;"/><path d="M813.85,71l1.16,.14c-.18,.68-.52,1.21-1.02,1.58s-1.13,.56-1.9,.56c-.97,0-1.74-.3-2.31-.9-.57-.6-.85-1.44-.85-2.52s.29-1.98,.86-2.6c.58-.62,1.32-.92,2.24-.92s1.61,.3,2.18,.91c.56,.6,.84,1.45,.84,2.55,0,.07,0,.17,0,.3h-4.95c.04,.73,.25,1.29,.62,1.67s.83,.58,1.39,.58c.41,0,.76-.11,1.06-.32,.29-.22,.52-.56,.69-1.04Zm-3.69-1.82h3.71c-.05-.56-.19-.98-.43-1.26-.36-.43-.82-.65-1.39-.65-.52,0-.95,.17-1.3,.52-.35,.35-.55,.81-.58,1.39Z" style="fill:#0333ff;"/><path d="M815.98,71.16l1.11-.17c.06,.45,.24,.79,.52,1.03,.29,.24,.68,.36,1.2,.36s.9-.1,1.15-.32c.25-.21,.38-.46,.38-.74,0-.25-.11-.45-.33-.6-.15-.1-.54-.23-1.15-.38-.83-.21-1.4-.39-1.72-.54-.32-.15-.56-.36-.72-.63-.17-.27-.25-.57-.25-.89,0-.3,.07-.57,.2-.82,.14-.25,.32-.46,.55-.63,.17-.13,.41-.24,.71-.33,.3-.09,.63-.13,.97-.13,.52,0,.98,.07,1.37,.22,.39,.15,.68,.35,.87,.61s.32,.6,.39,1.03l-1.1,.15c-.05-.34-.2-.61-.43-.8-.24-.19-.58-.29-1.02-.29-.52,0-.89,.08-1.11,.26s-.33,.37-.33,.6c0,.15,.05,.28,.14,.39,.09,.12,.24,.22,.43,.3,.11,.04,.44,.14,.99,.29,.8,.21,1.35,.39,1.67,.52s.56,.33,.74,.59c.18,.26,.27,.58,.27,.96s-.11,.73-.33,1.06-.53,.59-.95,.77c-.41,.18-.88,.27-1.4,.27-.86,0-1.52-.18-1.97-.54-.45-.36-.74-.89-.87-1.59Z" style="fill:#0333ff;"/><path d="M824.82,73.14l3.52-9.16h1.31l3.75,9.16h-1.38l-1.07-2.78h-3.83l-1.01,2.78h-1.29Zm2.64-3.76h3.11l-.96-2.54c-.29-.77-.51-1.4-.65-1.9-.12,.59-.28,1.17-.49,1.75l-1.01,2.69Z" style="fill:#0333ff;"/><path d="M834.22,73.14v-6.64h1.01v.94c.49-.73,1.19-1.09,2.11-1.09,.4,0,.77,.07,1.1,.21,.33,.14,.59,.33,.75,.57,.17,.23,.28,.51,.35,.83,.04,.21,.06,.57,.06,1.09v4.08h-1.12v-4.04c0-.46-.04-.8-.13-1.03-.09-.23-.24-.41-.47-.54s-.48-.2-.78-.2c-.48,0-.89,.15-1.24,.46-.35,.3-.52,.88-.52,1.73v3.62h-1.12Z" style="fill:#0333ff;"/><path d="M842.37,73.14h-1.04v-9.16h1.12v3.27c.47-.6,1.08-.89,1.82-.89,.41,0,.79,.08,1.16,.25,.36,.17,.67,.4,.9,.69s.42,.66,.55,1.08c.13,.42,.2,.87,.2,1.35,0,1.14-.28,2.02-.84,2.64s-1.24,.93-2.03,.93-1.4-.33-1.84-.98v.83Zm-.01-3.37c0,.8,.11,1.37,.32,1.73,.35,.58,.83,.87,1.44,.87,.49,0,.92-.21,1.28-.64,.36-.43,.54-1.06,.54-1.91s-.17-1.51-.52-1.92c-.34-.41-.76-.62-1.25-.62s-.92,.21-1.28,.64-.54,1.04-.54,1.85Z" style="fill:#0333ff;"/><path d="M848.46,65.27v-1.29h1.12v1.29h-1.12Zm0,7.87v-6.64h1.12v6.64h-1.12Z" style="fill:#0333ff;"/><path d="M855.84,71l1.16,.14c-.18,.68-.52,1.21-1.02,1.58s-1.13,.56-1.9,.56c-.97,0-1.74-.3-2.31-.9-.57-.6-.85-1.44-.85-2.52s.29-1.98,.86-2.6c.58-.62,1.32-.92,2.24-.92s1.61,.3,2.18,.91c.56,.6,.84,1.45,.84,2.55,0,.07,0,.17,0,.3h-4.95c.04,.73,.25,1.29,.62,1.67s.83,.58,1.39,.58c.41,0,.76-.11,1.06-.32,.29-.22,.52-.56,.69-1.04Zm-3.69-1.82h3.71c-.05-.56-.19-.98-.43-1.26-.36-.43-.82-.65-1.39-.65-.52,0-.95,.17-1.3,.52-.35,.35-.55,.81-.58,1.39Z" style="fill:#0333ff;"/><path d="M860.87,72.13l.16,.99c-.32,.07-.6,.1-.85,.1-.41,0-.72-.07-.95-.19-.22-.13-.38-.3-.47-.51-.09-.21-.14-.65-.14-1.33v-3.82h-.83v-.88h.83v-1.64l1.12-.67v2.32h1.13v.88h-1.13v3.88c0,.32,.02,.53,.06,.62,.04,.09,.1,.17,.19,.22,.09,.05,.22,.08,.38,.08,.12,0,.29-.01,.49-.04Z" style="fill:#0333ff;"/><path d="M866.52,71l1.16,.14c-.18,.68-.52,1.21-1.02,1.58s-1.13,.56-1.9,.56c-.97,0-1.74-.3-2.31-.9-.57-.6-.85-1.44-.85-2.52s.29-1.98,.86-2.6c.58-.62,1.32-.92,2.24-.92s1.61,.3,2.18,.91c.56,.6,.84,1.45,.84,2.55,0,.07,0,.17,0,.3h-4.95c.04,.73,.25,1.29,.62,1.67s.83,.58,1.39,.58c.41,0,.76-.11,1.06-.32,.29-.22,.52-.56,.69-1.04Zm-3.69-1.82h3.71c-.05-.56-.19-.98-.43-1.26-.36-.43-.82-.65-1.39-.65-.52,0-.95,.17-1.3,.52-.35,.35-.55,.81-.58,1.39Z" style="fill:#0333ff;"/><path d="M869.08,73.14v-6.64h1.01v1.01c.26-.47,.5-.78,.72-.93s.46-.22,.72-.22c.38,0,.76,.12,1.16,.36l-.39,1.04c-.27-.16-.55-.24-.83-.24-.25,0-.47,.07-.66,.22-.2,.15-.34,.35-.42,.62-.12,.4-.19,.84-.19,1.31v3.47h-1.12Z" style="fill:#0333ff;"/><path d="M872.9,71.16l1.11-.17c.06,.45,.24,.79,.52,1.03,.29,.24,.68,.36,1.2,.36s.9-.1,1.15-.32c.25-.21,.38-.46,.38-.74,0-.25-.11-.45-.33-.6-.15-.1-.54-.23-1.15-.38-.83-.21-1.4-.39-1.72-.54-.32-.15-.56-.36-.72-.63-.17-.27-.25-.57-.25-.89,0-.3,.07-.57,.2-.82,.14-.25,.32-.46,.55-.63,.17-.13,.41-.24,.71-.33,.3-.09,.63-.13,.97-.13,.52,0,.98,.07,1.37,.22,.39,.15,.68,.35,.87,.61s.32,.6,.39,1.03l-1.1,.15c-.05-.34-.2-.61-.43-.8-.24-.19-.58-.29-1.02-.29-.52,0-.89,.08-1.11,.26s-.33,.37-.33,.6c0,.15,.05,.28,.14,.39,.09,.12,.24,.22,.43,.3,.11,.04,.44,.14,.99,.29,.8,.21,1.35,.39,1.67,.52s.56,.33,.74,.59c.18,.26,.27,.58,.27,.96s-.11,.73-.33,1.06-.53,.59-.95,.77c-.41,.18-.88,.27-1.4,.27-.86,0-1.52-.18-1.97-.54-.45-.36-.74-.89-.87-1.59Z" style="fill:#0333ff;"/><path d="M747.83,88.5v-.97c-.52,.75-1.22,1.12-2.11,1.12-.39,0-.76-.08-1.1-.23-.34-.15-.59-.34-.76-.57-.17-.23-.28-.5-.35-.83-.05-.22-.07-.57-.07-1.05v-4.11h1.12v3.68c0,.59,.02,.98,.07,1.19,.07,.3,.22,.53,.45,.7,.23,.17,.51,.25,.85,.25s.65-.09,.95-.26,.5-.41,.63-.71,.18-.73,.18-1.3v-3.56h1.12v6.64h-1.01Z" style="fill:#0333ff;"/><path d="M750.6,88.5v-6.64h1.01v.94c.49-.73,1.19-1.09,2.11-1.09,.4,0,.77,.07,1.1,.21,.33,.14,.59,.33,.75,.57,.17,.23,.28,.51,.35,.83,.04,.21,.06,.57,.06,1.09v4.08h-1.12v-4.04c0-.46-.04-.8-.13-1.03-.09-.23-.24-.41-.47-.54s-.48-.2-.78-.2c-.48,0-.89,.15-1.24,.46-.35,.3-.52,.88-.52,1.73v3.62h-1.12Z" style="fill:#0333ff;"/><path d="M762.03,88.5v-.84c-.42,.66-1.04,.99-1.86,.99-.53,0-1.02-.15-1.46-.44-.44-.29-.79-.7-1.03-1.22-.24-.52-.37-1.12-.37-1.8s.11-1.26,.33-1.8c.22-.54,.55-.95,.99-1.24,.44-.29,.94-.43,1.48-.43,.4,0,.76,.08,1.07,.25s.57,.39,.76,.66v-3.29h1.12v9.16h-1.04Zm-3.56-3.31c0,.85,.18,1.49,.54,1.91s.78,.63,1.27,.63,.91-.2,1.25-.6,.52-1.02,.52-1.84c0-.91-.17-1.58-.53-2-.35-.42-.78-.64-1.29-.64s-.92,.2-1.25,.61c-.33,.41-.5,1.05-.5,1.93Z" style="fill:#0333ff;"/><path d="M771.16,88.5l-3.55-9.16h1.31l2.38,6.66c.19,.53,.35,1.03,.48,1.5,.14-.5,.31-1,.49-1.5l2.48-6.66h1.24l-3.59,9.16h-1.24Z" style="fill:#0333ff;"/><path d="M780.77,86.36l1.16,.14c-.18,.68-.52,1.21-1.02,1.58s-1.13,.56-1.9,.56c-.97,0-1.74-.3-2.31-.9-.57-.6-.85-1.44-.85-2.52s.29-1.98,.86-2.6c.58-.62,1.32-.92,2.24-.92s1.61,.3,2.18,.91c.56,.6,.84,1.45,.84,2.55,0,.07,0,.17,0,.3h-4.95c.04,.73,.25,1.29,.62,1.67s.83,.58,1.39,.58c.41,0,.76-.11,1.06-.32,.29-.22,.52-.56,.69-1.04Zm-3.69-1.82h3.71c-.05-.56-.19-.98-.43-1.26-.36-.43-.82-.65-1.39-.65-.52,0-.95,.17-1.3,.52-.35,.35-.55,.81-.58,1.39Z" style="fill:#0333ff;"/><path d="M783.33,88.5v-6.64h1.01v1.01c.26-.47,.5-.78,.72-.93s.46-.22,.72-.22c.38,0,.76,.12,1.16,.36l-.39,1.04c-.27-.16-.55-.24-.83-.24-.25,0-.47,.07-.66,.22-.2,.15-.34,.35-.42,.62-.12,.4-.19,.84-.19,1.31v3.47h-1.12Z" style="fill:#0333ff;"/><path d="M790.07,87.49l.16,.99c-.32,.07-.6,.1-.85,.1-.41,0-.72-.07-.95-.19-.22-.13-.38-.3-.47-.51-.09-.21-.14-.65-.14-1.33v-3.82h-.83v-.88h.83v-1.64l1.12-.67v2.32h1.13v.88h-1.13v3.88c0,.32,.02,.53,.06,.62,.04,.09,.1,.17,.19,.22,.09,.05,.22,.08,.38,.08,.12,0,.29-.01,.49-.04Z" style="fill:#0333ff;"/><path d="M791.15,88.5v-6.64h1.01v1.01c.26-.47,.5-.78,.72-.93s.46-.22,.72-.22c.38,0,.76,.12,1.16,.36l-.39,1.04c-.27-.16-.55-.24-.83-.24-.25,0-.47,.07-.66,.22-.2,.15-.34,.35-.42,.62-.12,.4-.19,.84-.19,1.31v3.47h-1.12Z" style="fill:#0333ff;"/><path d="M799.76,87.68c-.42,.35-.82,.6-1.2,.75-.39,.15-.8,.22-1.24,.22-.73,0-1.29-.18-1.68-.54-.39-.36-.59-.81-.59-1.37,0-.33,.07-.62,.22-.89,.15-.27,.34-.48,.58-.65,.24-.16,.51-.29,.81-.37,.22-.06,.55-.11,1-.17,.91-.11,1.58-.24,2.01-.39,0-.15,0-.25,0-.29,0-.46-.11-.78-.32-.97-.29-.25-.71-.38-1.28-.38-.53,0-.92,.09-1.17,.28s-.44,.51-.56,.98l-1.1-.15c.1-.47,.26-.85,.49-1.14,.23-.29,.56-.51,.99-.67s.94-.23,1.51-.23,1.03,.07,1.38,.2c.35,.13,.61,.3,.78,.5s.28,.46,.35,.77c.04,.19,.06,.54,.06,1.04v1.5c0,1.05,.02,1.71,.07,1.98,.05,.28,.14,.54,.28,.8h-1.17c-.12-.23-.19-.51-.23-.82Zm-.09-2.51c-.41,.17-1.02,.31-1.84,.42-.46,.07-.79,.14-.98,.22-.19,.08-.34,.21-.44,.37-.1,.16-.16,.34-.16,.53,0,.3,.11,.55,.34,.75,.23,.2,.56,.3,1,.3s.82-.09,1.16-.28,.58-.45,.74-.78c.12-.25,.18-.63,.18-1.12v-.41Z" style="fill:#0333ff;"/><path d="M802.34,89.05l1.09,.16c.05,.34,.17,.58,.38,.74,.28,.21,.66,.31,1.14,.31,.52,0,.92-.1,1.21-.31,.28-.21,.47-.5,.57-.88,.06-.23,.09-.71,.08-1.44-.49,.58-1.1,.87-1.84,.87-.91,0-1.62-.33-2.12-.99s-.75-1.45-.75-2.37c0-.63,.12-1.22,.34-1.75,.23-.54,.56-.95,1-1.24,.44-.29,.95-.44,1.53-.44,.78,0,1.43,.32,1.94,.95v-.8h1.04v5.74c0,1.03-.11,1.77-.32,2.2-.21,.43-.54,.77-1,1.02-.46,.25-1.02,.38-1.68,.38-.79,0-1.43-.18-1.92-.53s-.72-.89-.71-1.61Zm.93-3.99c0,.87,.17,1.51,.52,1.91,.35,.4,.78,.6,1.3,.6s.95-.2,1.3-.6c.35-.4,.53-1.02,.53-1.87s-.18-1.42-.54-1.84c-.36-.41-.79-.62-1.3-.62s-.93,.2-1.28,.61-.53,1.01-.53,1.81Z" style="fill:#0333ff;"/><path d="M809.22,86.52l1.11-.17c.06,.45,.24,.79,.52,1.03,.29,.24,.68,.36,1.2,.36s.9-.1,1.15-.32c.25-.21,.38-.46,.38-.74,0-.25-.11-.45-.33-.6-.15-.1-.54-.23-1.15-.38-.83-.21-1.4-.39-1.72-.54-.32-.15-.56-.36-.72-.63-.17-.27-.25-.57-.25-.89,0-.3,.07-.57,.2-.82,.14-.25,.32-.46,.55-.63,.17-.13,.41-.24,.71-.33,.3-.09,.63-.13,.97-.13,.52,0,.98,.07,1.37,.22,.39,.15,.68,.35,.87,.61s.32,.6,.39,1.03l-1.1,.15c-.05-.34-.2-.61-.43-.8-.24-.19-.58-.29-1.02-.29-.52,0-.89,.08-1.11,.26s-.33,.37-.33,.6c0,.15,.05,.28,.14,.39,.09,.12,.24,.22,.43,.3,.11,.04,.44,.14,.99,.29,.8,.21,1.35,.39,1.67,.52s.56,.33,.74,.59c.18,.26,.27,.58,.27,.96s-.11,.73-.33,1.06-.53,.59-.95,.77c-.41,.18-.88,.27-1.4,.27-.86,0-1.52-.18-1.97-.54-.45-.36-.74-.89-.87-1.59Z" style="fill:#0333ff;"/><path d="M817.91,88.5l-2.53-6.64h1.19l1.43,3.98c.15,.43,.29,.88,.42,1.34,.1-.35,.24-.77,.42-1.26l1.47-4.05h1.16l-2.51,6.64h-1.05Z" style="fill:#0333ff;"/><path d="M827.01,86.36l1.16,.14c-.18,.68-.52,1.21-1.02,1.58s-1.13,.56-1.9,.56c-.97,0-1.74-.3-2.31-.9-.57-.6-.85-1.44-.85-2.52s.29-1.98,.86-2.6c.58-.62,1.32-.92,2.24-.92s1.61,.3,2.18,.91c.56,.6,.84,1.45,.84,2.55,0,.07,0,.17,0,.3h-4.95c.04,.73,.25,1.29,.62,1.67s.83,.58,1.39,.58c.41,0,.76-.11,1.06-.32,.29-.22,.52-.56,.69-1.04Zm-3.69-1.82h3.71c-.05-.56-.19-.98-.43-1.26-.36-.43-.82-.65-1.39-.65-.52,0-.95,.17-1.3,.52-.35,.35-.55,.81-.58,1.39Z" style="fill:#0333ff;"/><path d="M829.57,88.5v-6.64h1.01v1.01c.26-.47,.5-.78,.72-.93s.46-.22,.72-.22c.38,0,.76,.12,1.16,.36l-.39,1.04c-.27-.16-.55-.24-.83-.24-.25,0-.47,.07-.66,.22-.2,.15-.34,.35-.42,.62-.12,.4-.19,.84-.19,1.31v3.47h-1.12Z" style="fill:#0333ff;"/><path d="M833.85,88.5v-9.16h1.12v3.29c.53-.61,1.19-.91,1.99-.91,.49,0,.92,.1,1.28,.29,.36,.19,.62,.46,.78,.8s.23,.84,.23,1.49v4.21h-1.12v-4.21c0-.56-.12-.97-.37-1.23-.24-.26-.59-.38-1.04-.38-.33,0-.65,.09-.94,.26s-.5,.41-.63,.7-.19,.7-.19,1.23v3.63h-1.12Z" style="fill:#0333ff;"/><path d="M845.3,87.68c-.42,.35-.82,.6-1.2,.75-.39,.15-.8,.22-1.24,.22-.73,0-1.29-.18-1.68-.54-.39-.36-.59-.81-.59-1.37,0-.33,.07-.62,.22-.89,.15-.27,.34-.48,.58-.65,.24-.16,.51-.29,.81-.37,.22-.06,.55-.11,1-.17,.91-.11,1.58-.24,2.01-.39,0-.15,0-.25,0-.29,0-.46-.11-.78-.32-.97-.29-.25-.71-.38-1.28-.38-.53,0-.92,.09-1.17,.28s-.44,.51-.56,.98l-1.1-.15c.1-.47,.26-.85,.49-1.14,.23-.29,.56-.51,.99-.67s.94-.23,1.51-.23,1.03,.07,1.38,.2c.35,.13,.61,.3,.78,.5s.28,.46,.35,.77c.04,.19,.06,.54,.06,1.04v1.5c0,1.05,.02,1.71,.07,1.98,.05,.28,.14,.54,.28,.8h-1.17c-.12-.23-.19-.51-.23-.82Zm-.09-2.51c-.41,.17-1.02,.31-1.84,.42-.46,.07-.79,.14-.98,.22-.19,.08-.34,.21-.44,.37-.1,.16-.16,.34-.16,.53,0,.3,.11,.55,.34,.75,.23,.2,.56,.3,1,.3s.82-.09,1.16-.28,.58-.45,.74-.78c.12-.25,.18-.63,.18-1.12v-.41Z" style="fill:#0333ff;"/><path d="M848.08,88.5v-6.64h1.01v.94c.49-.73,1.19-1.09,2.11-1.09,.4,0,.77,.07,1.1,.21,.33,.14,.59,.33,.75,.57,.17,.23,.28,.51,.35,.83,.04,.21,.06,.57,.06,1.09v4.08h-1.12v-4.04c0-.46-.04-.8-.13-1.03-.09-.23-.24-.41-.47-.54s-.48-.2-.78-.2c-.48,0-.89,.15-1.24,.46-.35,.3-.52,.88-.52,1.73v3.62h-1.12Z" style="fill:#0333ff;"/><path d="M859.51,88.5v-.84c-.42,.66-1.04,.99-1.86,.99-.53,0-1.02-.15-1.46-.44-.44-.29-.79-.7-1.03-1.22-.24-.52-.37-1.12-.37-1.8s.11-1.26,.33-1.8c.22-.54,.55-.95,.99-1.24,.44-.29,.94-.43,1.48-.43,.4,0,.76,.08,1.07,.25s.57,.39,.76,.66v-3.29h1.12v9.16h-1.04Zm-3.56-3.31c0,.85,.18,1.49,.54,1.91s.78,.63,1.27,.63,.91-.2,1.25-.6,.52-1.02,.52-1.84c0-.91-.17-1.58-.53-2-.35-.42-.78-.64-1.29-.64s-.92,.2-1.25,.61c-.33,.41-.5,1.05-.5,1.93Z" style="fill:#0333ff;"/><path d="M862.3,88.5v-9.16h1.12v9.16h-1.12Z" style="fill:#0333ff;"/><path d="M869.52,88.5v-.97c-.52,.75-1.22,1.12-2.11,1.12-.39,0-.76-.08-1.1-.23-.34-.15-.59-.34-.76-.57-.17-.23-.28-.5-.35-.83-.05-.22-.07-.57-.07-1.05v-4.11h1.12v3.68c0,.59,.02,.98,.07,1.19,.07,.3,.22,.53,.45,.7,.23,.17,.51,.25,.85,.25s.65-.09,.95-.26,.5-.41,.63-.71,.18-.73,.18-1.3v-3.56h1.12v6.64h-1.01Z" style="fill:#0333ff;"/><path d="M872.29,88.5v-6.64h1.01v.94c.49-.73,1.19-1.09,2.11-1.09,.4,0,.77,.07,1.1,.21,.33,.14,.59,.33,.75,.57,.17,.23,.28,.51,.35,.83,.04,.21,.06,.57,.06,1.09v4.08h-1.12v-4.04c0-.46-.04-.8-.13-1.03-.09-.23-.24-.41-.47-.54s-.48-.2-.78-.2c-.48,0-.89,.15-1.24,.46-.35,.3-.52,.88-.52,1.73v3.62h-1.12Z" style="fill:#0333ff;"/><path d="M879.2,89.05l1.09,.16c.05,.34,.17,.58,.38,.74,.28,.21,.66,.31,1.14,.31,.52,0,.92-.1,1.21-.31,.28-.21,.47-.5,.57-.88,.06-.23,.09-.71,.08-1.44-.49,.58-1.1,.87-1.84,.87-.91,0-1.62-.33-2.12-.99s-.75-1.45-.75-2.37c0-.63,.12-1.22,.34-1.75,.23-.54,.56-.95,1-1.24,.44-.29,.95-.44,1.53-.44,.78,0,1.43,.32,1.94,.95v-.8h1.04v5.74c0,1.03-.11,1.77-.32,2.2-.21,.43-.54,.77-1,1.02-.46,.25-1.02,.38-1.68,.38-.79,0-1.43-.18-1.92-.53s-.72-.89-.71-1.61Zm.93-3.99c0,.87,.17,1.51,.52,1.91,.35,.4,.78,.6,1.3,.6s.95-.2,1.3-.6c.35-.4,.53-1.02,.53-1.87s-.18-1.42-.54-1.84c-.36-.41-.79-.62-1.3-.62s-.93,.2-1.28,.61-.53,1.01-.53,1.81Z" style="fill:#0333ff;"/></g><g><line x1="251.2" y1="410.65" x2="252.53" y2="412.14" style="fill:none; stroke:#1d1d1b; stroke-miterlimit:8; stroke-width:.5px;"/><line x1="255.27" y1="415.21" x2="303.21" y2="469.01" style="fill:none; stroke:#1d1d1b; stroke-dasharray:0 0 4.12 4.12; stroke-miterlimit:8; stroke-width:.5px;"/><line x1="304.58" y1="470.55" x2="305.91" y2="472.04" style="fill:none; stroke:#1d1d1b; stroke-miterlimit:8; stroke-width:.5px;"/></g><text transform="translate(311.14 486.59)" style="font-family:ArialMT, Arial; font-size:12px;"><tspan x="0" y="0">mgliche Lsungen</tspan></text></svg>