<?xml version="1.0" encoding="UTF-8"?>
<svg id="maturity" xmlns="http://www.w3.org/2000/svg" viewBox="0 0 988 525">
  <defs>
    <style>
      .cls-1 {
        fill: #ebebeb;
      }

      .cls-2 {
        font-family: ArialMT, Arial;
        font-size: 18px;
      }

      .cls-3 {
        fill: #b0b0b0;
      }

      .cls-4 {
        stroke: #000;
      }

      .cls-4, .cls-5 {
        fill: none;
        stroke-miterlimit: 10;
      }

      .cls-5 {
        stroke: #0333ff;
      }

      .cls-6 {
        letter-spacing: -.11em;
      }

      .cls-7 {
        letter-spacing: -.02em;
      }

      .cls-8 {
        fill: #0333ff;
        font-family: Arial-BoldMT, Arial;
        font-size: 16px;
        font-weight: 700;
      }
    </style>
  </defs>
  <g>
    <text class="cls-2" transform="translate(81.99 131.9) rotate(-45)"><tspan class="cls-3" x="0" y="0">1</tspan><tspan class="cls-7" x="10.01" y="0"> </tspan><tspan class="cls-6" x="14.69" y="0">T</tspan><tspan x="23.69" y="0">ension</tspan></text>
    <text class="cls-2" transform="translate(181.78 148.1) rotate(-45)"><tspan class="cls-3" x="0" y="0">2</tspan><tspan x="10.01" y="0" xml:space="preserve"> Debate &amp; polemics</tspan></text>
    <g>
      <path class="cls-3" d="M279.69,161.37l.97-1.27c.76.51,1.44.74,2.03.71.59-.03,1.1-.26,1.55-.71.53-.53.79-1.15.79-1.88,0-.73-.27-1.36-.81-1.9-.51-.51-1.11-.77-1.77-.77s-1.26.26-1.78.78c-.21.21-.43.52-.67.91l-.86-1.11c.08-.07.15-.12.19-.17.48-.48.78-1.03.91-1.66s-.06-1.2-.58-1.72c-.41-.41-.89-.61-1.44-.6-.55,0-1.04.23-1.48.67-.43.44-.66.93-.68,1.5s.21,1.16.67,1.79l-1.32.92c-.61-.89-.88-1.78-.81-2.68.07-.9.47-1.71,1.19-2.43.5-.5,1.06-.85,1.69-1.05.63-.21,1.24-.23,1.83-.09.59.15,1.09.43,1.51.84.39.39.65.86.76,1.39.11.53.06,1.1-.17,1.71.66-.41,1.34-.57,2.03-.48s1.33.43,1.92,1.02c.79.8,1.18,1.76,1.15,2.89-.03,1.13-.48,2.14-1.37,3.03-.8.8-1.7,1.23-2.71,1.28-1.01.05-1.92-.26-2.76-.95Z"/>
      <path d="M291.46,154.41l-5.61-12.61,1.3-1.3,12.84,5.38-1.37,1.37-3.82-1.7-3.81,3.81,1.76,3.76-1.28,1.28ZM290.34,148.04l3.09-3.09-3.47-1.57c-1.06-.48-1.9-.89-2.54-1.24.47.7.88,1.44,1.25,2.23l1.67,3.67Z"/>
      <path d="M302.69,138.34l1.24-.96c.64.88.92,1.78.86,2.7s-.46,1.75-1.18,2.47c-.9.9-1.92,1.33-3.06,1.29-1.14-.04-2.26-.61-3.36-1.72-.71-.71-1.22-1.45-1.52-2.23-.3-.77-.34-1.53-.12-2.28.21-.75.61-1.41,1.17-1.98.72-.72,1.48-1.12,2.3-1.22.82-.09,1.62.13,2.42.67l-.92,1.26c-.55-.34-1.06-.49-1.55-.45-.49.04-.92.25-1.29.62-.56.56-.82,1.22-.77,1.98.05.76.51,1.57,1.39,2.45.89.89,1.7,1.36,2.44,1.42.74.06,1.39-.18,1.93-.73.44-.44.67-.94.7-1.5.03-.56-.2-1.17-.68-1.8Z"/>
      <path d="M308.61,135.26l1.15.83c-.25.38-.5.7-.75.94-.41.41-.79.66-1.14.75s-.68.08-.98-.03c-.3-.12-.79-.51-1.46-1.18l-3.8-3.8-.82.82-.87-.87.82-.82-1.63-1.63.44-1.78,2.31,2.31,1.12-1.12.87.87-1.12,1.12,3.86,3.86c.32.32.54.5.67.56.13.05.27.06.41.02.14-.03.3-.14.46-.3.12-.12.27-.3.45-.53Z"/>
      <path d="M302.89,127.34l-1.29-1.29,1.12-1.12,1.29,1.29-1.12,1.12ZM310.71,135.16l-6.6-6.6,1.12-1.12,6.6,6.6-1.12,1.12Z"/>
      <path d="M309.81,129.46c-1.22-1.22-1.79-2.47-1.7-3.74.08-1.06.53-1.99,1.34-2.81.91-.91,1.95-1.35,3.12-1.33,1.17.02,2.28.55,3.33,1.6.85.85,1.39,1.65,1.62,2.39.23.74.24,1.49.02,2.25-.22.76-.61,1.42-1.19,2-.92.92-1.97,1.37-3.13,1.35-1.16-.02-2.3-.59-3.41-1.71ZM310.96,128.31c.84.85,1.66,1.29,2.45,1.35s1.46-.2,2.02-.76c.56-.56.81-1.23.75-2.02-.05-.79-.51-1.62-1.38-2.49-.82-.82-1.62-1.25-2.41-1.3-.79-.05-1.46.2-2.01.75s-.81,1.23-.76,2.02c.05.79.5,1.6,1.34,2.45Z"/>
      <path d="M320.61,125.26l-6.6-6.6,1.01-1.01.94.94c-.24-1.21.1-2.27,1.01-3.19.4-.4.83-.69,1.31-.88.47-.19.91-.25,1.31-.19.4.07.79.23,1.17.48.25.17.63.51,1.15,1.03l4.06,4.06-1.12,1.12-4.01-4.01c-.46-.46-.84-.75-1.15-.89-.31-.14-.65-.16-1-.08-.36.09-.68.28-.98.58-.48.48-.74,1.04-.78,1.69-.04.65.36,1.4,1.2,2.24l3.6,3.6-1.12,1.12Z"/>
      <path d="M323.41,106.82l-1.29-1.29,1.12-1.12,1.29,1.29-1.12,1.12ZM331.23,114.64l-6.6-6.6,1.12-1.12,6.6,6.6-1.12,1.12Z"/>
      <path d="M334.05,111.82l-6.6-6.6,1.01-1.01.94.94c-.24-1.21.1-2.27,1.01-3.19.4-.4.83-.69,1.31-.88.48-.19.91-.25,1.31-.19.4.07.79.23,1.17.48.25.17.63.51,1.15,1.03l4.06,4.06-1.12,1.12-4.02-4.01c-.46-.46-.84-.75-1.15-.89-.31-.14-.65-.16-1-.08s-.68.28-.98.58c-.48.48-.74,1.04-.78,1.69-.04.65.36,1.4,1.2,2.24l3.6,3.6-1.12,1.12Z"/>
      <path d="M338.71,103.22l.93-1.28c.51.38,1.02.55,1.54.5.52-.05,1.04-.33,1.54-.84.51-.51.79-1,.83-1.46.04-.46-.08-.83-.36-1.11-.25-.25-.56-.34-.93-.27-.25.05-.76.31-1.52.76-1.03.61-1.78,1-2.24,1.17-.47.17-.92.2-1.35.09-.43-.1-.81-.32-1.13-.64-.29-.29-.5-.63-.61-1.02-.12-.38-.14-.78-.08-1.17.04-.3.17-.65.38-1.04.21-.39.49-.76.83-1.1.52-.52,1.05-.9,1.59-1.14.54-.24,1.03-.33,1.47-.26s.91.28,1.41.64l-.94,1.24c-.39-.29-.8-.41-1.23-.36-.43.05-.86.29-1.3.72-.51.51-.8.97-.85,1.35-.05.39.04.7.27.93.14.15.32.23.53.25.21.03.45-.01.73-.13.15-.07.58-.3,1.27-.7,1-.58,1.73-.96,2.18-1.14.45-.18.89-.23,1.32-.15s.84.31,1.22.69c.37.37.62.83.73,1.38.11.55.05,1.12-.18,1.71s-.6,1.14-1.12,1.66c-.86.86-1.69,1.33-2.5,1.43-.81.09-1.62-.15-2.45-.72Z"/>
      <path d="M348.94,94.93l1.15.83c-.25.38-.5.7-.75.94-.41.41-.79.66-1.14.75-.35.1-.68.08-.98-.03-.3-.12-.79-.51-1.46-1.18l-3.8-3.8-.82.82-.87-.87.82-.82-1.63-1.63.44-1.78,2.31,2.31,1.12-1.12.87.87-1.12,1.12,3.86,3.86c.32.32.54.5.67.56.13.05.27.06.41.02.14-.03.3-.14.46-.3.12-.12.27-.3.45-.53Z"/>
      <path d="M353.42,88.2l1.3-1.01c.49.86.68,1.72.56,2.59-.12.87-.56,1.68-1.33,2.45-.96.97-2.03,1.43-3.19,1.4-1.16-.03-2.28-.58-3.35-1.65-1.11-1.11-1.69-2.26-1.73-3.44s.39-2.23,1.31-3.14c.88-.88,1.9-1.3,3.06-1.26,1.16.04,2.29.61,3.38,1.7.07.07.16.17.29.3l-4.92,4.92c.77.68,1.53,1.03,2.28,1.05s1.41-.25,1.96-.8c.41-.41.65-.87.73-1.37.07-.51-.04-1.08-.34-1.72ZM347.94,90.06l3.69-3.69c-.61-.51-1.16-.78-1.67-.83-.79-.07-1.46.17-2.03.74-.51.51-.77,1.12-.78,1.81,0,.69.26,1.35.8,1.96Z"/>
      <path d="M361.6,82.64c-.06.77-.21,1.41-.45,1.94-.24.53-.58,1.01-1.02,1.45-.72.73-1.46,1.1-2.2,1.14-.74.04-1.39-.22-1.94-.77-.32-.32-.54-.69-.66-1.11-.12-.41-.14-.82-.07-1.22.08-.4.22-.79.44-1.17.16-.28.44-.67.83-1.16.8-1.01,1.33-1.8,1.61-2.38-.15-.16-.24-.26-.29-.3-.46-.46-.88-.67-1.28-.65-.54.03-1.09.33-1.65.9-.53.53-.82,1.01-.89,1.44s.08.95.42,1.53l-1.24.94c-.37-.57-.58-1.11-.64-1.62-.06-.52.05-1.07.32-1.65s.7-1.16,1.26-1.73,1.09-.96,1.57-1.17c.48-.22.91-.31,1.28-.28s.74.17,1.11.41c.23.15.59.48,1.09.98l1.49,1.49c1.04,1.04,1.72,1.67,2.04,1.9.32.23.68.4,1.08.51l-1.17,1.17c-.35-.12-.69-.31-1.04-.59ZM359.01,80.23c-.24.57-.71,1.32-1.4,2.25-.39.53-.64.93-.75,1.2-.11.27-.13.54-.08.8.06.26.18.49.38.69.3.3.66.43,1.08.41.42-.03.86-.26,1.29-.69.43-.43.72-.91.87-1.43.15-.52.14-1.03-.03-1.51-.13-.37-.45-.81-.94-1.3l-.41-.41Z"/>
      <path d="M369.47,76.4l-.83-.83c.24,1.07-.05,2.02-.86,2.83-.53.53-1.16.87-1.89,1.02-.73.15-1.48.09-2.24-.19-.76-.28-1.48-.75-2.16-1.43-.66-.66-1.15-1.37-1.46-2.12s-.4-1.5-.25-2.22c.15-.73.5-1.36,1.04-1.9.4-.4.83-.67,1.31-.81.48-.14.95-.18,1.41-.1l-3.27-3.27,1.11-1.11,9.11,9.11-1.04,1.04ZM362.64,76.64c.84.85,1.66,1.3,2.43,1.36.77.06,1.4-.15,1.89-.63s.71-1.1.65-1.85c-.06-.74-.5-1.52-1.32-2.34-.9-.9-1.74-1.39-2.51-1.47-.77-.07-1.41.14-1.92.65-.5.5-.71,1.12-.64,1.85.07.74.55,1.55,1.42,2.42Z"/>
      <path d="M301.68,165.87c-1.22-1.22-1.79-2.47-1.7-3.74.08-1.06.53-1.99,1.34-2.81.91-.91,1.95-1.35,3.12-1.33,1.17.02,2.28.55,3.33,1.6.85.85,1.39,1.65,1.62,2.39.23.74.24,1.49.02,2.25-.22.76-.61,1.42-1.19,2-.92.92-1.97,1.38-3.13,1.35-1.16-.02-2.3-.59-3.42-1.71ZM302.83,164.72c.85.85,1.66,1.29,2.45,1.35s1.46-.2,2.02-.76c.55-.56.81-1.23.75-2.02-.05-.79-.51-1.62-1.38-2.49-.82-.82-1.62-1.25-2.41-1.3-.79-.05-1.46.2-2.01.75s-.81,1.23-.76,2.02c.05.79.5,1.6,1.34,2.45Z"/>
      <path d="M312.74,161.41l-5.73-5.73-.99.99-.87-.87.99-.99-.7-.7c-.44-.44-.73-.81-.87-1.11-.18-.4-.23-.82-.14-1.27.09-.45.38-.92.87-1.41.32-.31.7-.63,1.16-.93l.81,1.14c-.27.19-.51.39-.72.6-.34.34-.51.65-.5.94,0,.29.21.63.6,1.03l.61.61,1.29-1.29.87.87-1.29,1.29,5.73,5.73-1.11,1.11Z"/>
      <path d="M320.77,153.39l-8.62-4.58,1.16-1.16,4.86,2.76,1.81,1.03c-.05-.09-.39-.65-1.02-1.7l-2.82-4.92,1.15-1.15,4.82,2.84,1.59.93-.9-1.65-2.68-4.95,1.09-1.09,4.54,8.66-1.16,1.16-5-2.9-1.38-.87,3.74,6.41-1.17,1.17Z"/>
      <path d="M325.02,142.53c-1.22-1.22-1.79-2.47-1.7-3.74.08-1.06.53-1.99,1.34-2.81.91-.91,1.95-1.35,3.12-1.33,1.17.02,2.28.55,3.33,1.6.85.85,1.39,1.65,1.62,2.39.23.74.24,1.49.02,2.25-.22.76-.61,1.42-1.19,2-.92.92-1.97,1.38-3.13,1.35-1.16-.02-2.3-.59-3.42-1.71ZM326.17,141.38c.84.85,1.66,1.29,2.45,1.35s1.46-.2,2.02-.76c.56-.56.81-1.23.75-2.02-.05-.79-.51-1.62-1.38-2.49-.82-.82-1.62-1.25-2.41-1.3-.79-.05-1.46.2-2.01.75s-.81,1.23-.76,2.02c.05.79.5,1.6,1.34,2.45Z"/>
      <path d="M335.81,138.35l-6.6-6.6,1.01-1.01,1,1c-.21-.73-.28-1.27-.21-1.64.07-.37.23-.68.49-.94.38-.38.88-.64,1.51-.79l.65,1.42c-.43.11-.79.3-1.06.58-.25.24-.39.54-.44.88-.05.34.02.68.2,1.03.27.52.65,1.02,1.12,1.49l3.46,3.46-1.12,1.12Z"/>
      <path d="M344.34,129.82l-.83-.83c.24,1.07-.05,2.02-.86,2.83-.53.53-1.16.87-1.89,1.02-.73.15-1.48.09-2.24-.19-.76-.28-1.48-.75-2.16-1.43-.66-.66-1.15-1.37-1.46-2.12-.32-.76-.4-1.5-.24-2.22.15-.73.5-1.36,1.04-1.9.4-.4.84-.67,1.31-.81.48-.14.95-.18,1.41-.1l-3.27-3.27,1.11-1.11,9.11,9.11-1.04,1.04ZM337.51,130.06c.85.85,1.66,1.3,2.43,1.36.77.06,1.41-.15,1.89-.63.49-.49.71-1.1.65-1.85-.06-.74-.5-1.52-1.32-2.34-.9-.9-1.74-1.39-2.51-1.47s-1.41.14-1.92.65c-.5.5-.71,1.12-.64,1.85.07.74.55,1.55,1.42,2.42Z"/>
      <path d="M344.72,125.5l.93-1.28c.5.38,1.02.55,1.54.5.52-.05,1.04-.33,1.54-.84s.79-1,.83-1.46c.04-.46-.08-.83-.36-1.11-.25-.25-.56-.34-.93-.27-.25.05-.76.31-1.52.76-1.03.61-1.78,1-2.24,1.17-.47.17-.92.2-1.35.09s-.81-.32-1.13-.64c-.29-.29-.5-.63-.61-1.02-.12-.38-.14-.78-.08-1.17.05-.3.17-.65.38-1.04.21-.39.49-.76.83-1.1.52-.52,1.05-.9,1.59-1.14.54-.24,1.03-.33,1.47-.26s.91.28,1.41.64l-.95,1.24c-.39-.29-.8-.41-1.23-.36-.43.05-.86.29-1.3.72-.51.51-.79.97-.84,1.35-.05.39.04.7.27.93.15.15.32.23.53.25.21.03.45-.01.73-.13.15-.07.58-.3,1.27-.7,1-.58,1.73-.96,2.18-1.14.45-.18.89-.23,1.32-.15s.84.31,1.22.69c.37.37.62.83.73,1.38.11.55.05,1.12-.18,1.71s-.6,1.14-1.12,1.66c-.86.86-1.69,1.33-2.49,1.43-.81.09-1.62-.15-2.45-.72Z"/>
    </g>
    <text class="cls-2" transform="translate(381.35 180.51) rotate(-45)"><tspan class="cls-3" x="0" y="0">4</tspan><tspan x="10.01" y="0" xml:space="preserve"> Coalition building</tspan></text>
    <text class="cls-2" transform="translate(481.13 196.72) rotate(-45)"><tspan class="cls-3" x="0" y="0">5</tspan><tspan x="10.01" y="0" xml:space="preserve"> Loss of face</tspan></text>
    <text class="cls-2" transform="translate(580.92 212.92) rotate(-45)"><tspan class="cls-3" x="0" y="0">6</tspan><tspan class="cls-7" x="10.01" y="0"> </tspan><tspan x="14.69" y="0">Threats and ultimatums</tspan></text>
    <text class="cls-2" transform="translate(680.7 229.12) rotate(-45)"><tspan class="cls-3" x="0" y="0">7</tspan><tspan x="10.01" y="0" xml:space="preserve"> Limited destructive blows</tspan></text>
    <text class="cls-2" transform="translate(780.49 245.33) rotate(-45)"><tspan class="cls-3" x="0" y="0">8</tspan><tspan x="10.01" y="0" xml:space="preserve"> Fragmentation</tspan></text>
    <g>
      <path class="cls-1" d="M119.74,172.64c0,5.83,4.73,10.56,10.56,10.56s10.56-4.73,10.56-10.56v-18.92c0-5.83-4.73-10.56-10.56-10.56s-10.56,4.73-10.56,10.56v18.92Z"/>
      <path class="cls-4" d="M41.07,153.72h78.67c0-5.83,4.73-10.56,10.56-10.56s10.56,4.73,10.56,10.56v18.92"/>
    </g>
    <g>
      <path class="cls-1" d="M219.53,191.45c0,5.83,4.73,10.56,10.56,10.56s10.56-4.73,10.56-10.56v-18.92c0-5.83-4.73-10.56-10.56-10.56s-10.56,4.73-10.56,10.56v18.92Z"/>
      <path class="cls-4" d="M140.85,172.52h78.67c0-5.83,4.73-10.56,10.56-10.56s10.56,4.73,10.56,10.56v18.92"/>
    </g>
    <g>
      <path class="cls-1" d="M319.31,210.25c0,5.83,4.73,10.56,10.56,10.56s10.56-4.73,10.56-10.56v-18.92c0-5.83-4.73-10.56-10.56-10.56s-10.56,4.73-10.56,10.56v18.92Z"/>
      <path class="cls-4" d="M240.64,191.33h78.67c0-5.83,4.73-10.56,10.56-10.56s10.56,4.73,10.56,10.56v18.92"/>
    </g>
    <g>
      <path class="cls-1" d="M419.1,229.06c0,5.83,4.73,10.56,10.56,10.56s10.56-4.73,10.56-10.56v-18.92c0-5.83-4.73-10.56-10.56-10.56s-10.56,4.73-10.56,10.56v18.92Z"/>
      <path class="cls-4" d="M340.42,210.13h78.67c0-5.83,4.73-10.56,10.56-10.56s10.56,4.73,10.56,10.56v18.92"/>
    </g>
    <g>
      <path class="cls-1" d="M518.88,247.86c0,5.83,4.73,10.56,10.56,10.56s10.56-4.73,10.56-10.56v-18.92c0-5.83-4.73-10.56-10.56-10.56s-10.56,4.73-10.56,10.56v18.92Z"/>
      <path class="cls-4" d="M440.21,228.94h78.67c0-5.83,4.73-10.56,10.56-10.56s10.56,4.73,10.56,10.56v18.92"/>
    </g>
    <g>
      <path class="cls-1" d="M618.67,266.67c0,5.83,4.73,10.56,10.56,10.56s10.56-4.73,10.56-10.56v-18.92c0-5.83-4.73-10.56-10.56-10.56s-10.56,4.73-10.56,10.56v18.92Z"/>
      <path class="cls-4" d="M540,247.74h78.67c0-5.83,4.73-10.56,10.56-10.56s10.56,4.73,10.56,10.56v18.92"/>
    </g>
    <g>
      <path class="cls-1" d="M718.45,285.47c0,5.83,4.73,10.56,10.56,10.56s10.56-4.73,10.56-10.56v-18.92c0-5.83-4.73-10.56-10.56-10.56s-10.56,4.73-10.56,10.56v18.92Z"/>
      <path class="cls-4" d="M639.78,266.55h78.67c0-5.83,4.73-10.56,10.56-10.56s10.56,4.73,10.56,10.56v18.92"/>
    </g>
    <g>
      <path class="cls-1" d="M818.24,304.28c0,5.83,4.73,10.56,10.56,10.56s10.56-4.73,10.56-10.56v-18.92c0-5.83-4.73-10.56-10.56-10.56s-10.56,4.73-10.56,10.56v18.92Z"/>
      <path class="cls-4" d="M739.57,285.35h78.67c0-5.83,4.73-10.56,10.56-10.56s10.56,4.73,10.56,10.56v18.92"/>
    </g>
    <line class="cls-4" x1="839.35" y1="304.16" x2="939.36" y2="304.16"/>
    <polyline class="cls-5" points="40.62 277.47 40.62 296.03 340.42 296.03 340.42 277.47"/>
    <polyline class="cls-5" points="340.2 305.56 340.2 324.11 640 324.11 640 305.56"/>
    <polyline class="cls-5" points="639.56 333.64 639.56 352.2 939.36 352.2 939.36 333.64"/>
    <text class="cls-8" transform="translate(144.45 324.11)"><tspan x="0" y="0">“win-win”</tspan></text>
    <text class="cls-8" transform="translate(441.13 352.2)"><tspan x="0" y="0">“win-lose”</tspan></text>
    <text class="cls-8" transform="translate(737.81 378.81)"><tspan x="0" y="0">“lose-lose”</tspan></text>
  </g>
  <g>
    <path class="cls-3" d="M878.86,258.73l.98-1.17c.6.41,1.14.61,1.62.58.48-.03.93-.24,1.33-.65.34-.34.57-.72.67-1.14.1-.42.1-.84,0-1.27-.1-.43-.31-.92-.65-1.48s-.74-1.07-1.2-1.54c-.05-.05-.13-.12-.23-.22.13.58.12,1.17-.05,1.78-.17.61-.48,1.14-.93,1.59-.75.75-1.67,1.12-2.74,1.09-1.07-.02-2.05-.48-2.95-1.38-.92-.92-1.39-1.94-1.41-3.05-.02-1.11.38-2.07,1.2-2.89.59-.59,1.29-.97,2.1-1.15.81-.17,1.64-.09,2.48.25.85.34,1.83,1.06,2.95,2.18,1.16,1.16,1.97,2.22,2.4,3.16.44.94.59,1.84.45,2.7-.14.86-.54,1.62-1.21,2.3-.71.71-1.49,1.1-2.34,1.15-.85.06-1.67-.23-2.48-.85ZM879.42,250.13c-.64-.64-1.32-.98-2.04-1.02-.72-.04-1.32.19-1.8.67-.5.5-.73,1.13-.69,1.91.04.77.38,1.49,1.03,2.13.58.58,1.23.88,1.94.89.71.01,1.33-.24,1.84-.75.52-.52.76-1.12.73-1.82-.03-.7-.36-1.37-1.01-2.01Z"/>
    <path d="M893.96,247.85l-8.04-8.04-3,3-1.08-1.08,7.22-7.22,1.08,1.08-3.01,3.01,8.04,8.04-1.21,1.21Z"/>
    <path d="M894.15,241.06c-1.22-1.22-1.79-2.47-1.7-3.74.08-1.06.53-1.99,1.34-2.81.91-.91,1.95-1.35,3.12-1.33,1.17.02,2.28.55,3.33,1.6.85.85,1.39,1.64,1.62,2.39.23.74.24,1.49.02,2.25-.22.76-.61,1.42-1.19,2-.92.92-1.97,1.38-3.13,1.35-1.16-.02-2.3-.59-3.41-1.71ZM895.3,239.91c.84.85,1.66,1.29,2.45,1.35.79.05,1.46-.2,2.02-.76.56-.56.81-1.23.75-2.02-.05-.79-.51-1.62-1.38-2.49-.82-.82-1.62-1.25-2.41-1.3-.79-.05-1.46.2-2.01.75s-.81,1.23-.76,2.02c.05.79.5,1.6,1.34,2.45Z"/>
    <path d="M905.28,237.62l1.25-.93c.38.29.75.41,1.11.35.48-.07.97-.35,1.45-.83.52-.52.81-1.02.89-1.51.08-.49-.02-.97-.3-1.44-.17-.29-.62-.79-1.35-1.52.09,1.06-.23,1.96-.96,2.69-.91.91-1.94,1.28-3.09,1.12-1.15-.16-2.19-.69-3.1-1.61-.63-.63-1.1-1.32-1.4-2.08-.3-.76-.39-1.5-.24-2.22.14-.72.51-1.38,1.09-1.96.78-.78,1.74-1.11,2.87-.98l-.79-.8,1.03-1.03,5.71,5.71c1.03,1.03,1.65,1.86,1.87,2.5.22.64.23,1.31.02,2.01-.21.7-.64,1.39-1.3,2.05-.79.79-1.6,1.25-2.44,1.38-.84.13-1.61-.17-2.3-.9ZM902.24,232.73c.87.87,1.67,1.33,2.41,1.38.74.05,1.37-.18,1.89-.7.51-.51.75-1.14.7-1.89-.05-.74-.49-1.54-1.34-2.38-.81-.81-1.6-1.24-2.37-1.29-.77-.05-1.41.18-1.91.68-.5.5-.72,1.12-.66,1.87.06.75.48,1.53,1.28,2.32Z"/>
    <path d="M914.41,223.14l1.3-1.01c.49.86.68,1.72.56,2.59s-.56,1.68-1.33,2.45c-.97.97-2.03,1.43-3.19,1.4-1.16-.03-2.28-.58-3.35-1.65s-1.69-2.26-1.73-3.44.39-2.23,1.31-3.14c.88-.88,1.9-1.3,3.06-1.26,1.16.04,2.28.61,3.37,1.7.07.07.16.17.29.3l-4.92,4.92c.77.68,1.53,1.03,2.28,1.05s1.41-.25,1.96-.8c.41-.41.65-.87.73-1.37s-.04-1.08-.34-1.72ZM908.93,225.01l3.69-3.69c-.6-.51-1.16-.78-1.67-.83-.79-.07-1.46.17-2.03.74-.51.51-.77,1.12-.78,1.81,0,.69.26,1.35.8,1.96Z"/>
    <path d="M920.54,219.27l1.15.83c-.25.38-.5.7-.75.94-.41.41-.78.66-1.14.75-.35.1-.68.08-.98-.03-.3-.12-.79-.51-1.46-1.18l-3.8-3.8-.82.82-.87-.87.82-.82-1.63-1.63.44-1.78,2.31,2.31,1.12-1.12.87.87-1.12,1.12,3.86,3.86c.32.32.54.5.67.56.13.05.27.06.41.02.14-.03.3-.14.46-.3.12-.12.27-.3.45-.53Z"/>
    <path d="M922.64,219.17l-9.11-9.11,1.12-1.12,3.27,3.27c-.08-1.13.27-2.09,1.07-2.88.49-.49,1.01-.82,1.56-.99.55-.17,1.08-.16,1.57.03.5.18,1.07.6,1.71,1.25l4.18,4.18-1.12,1.12-4.18-4.18c-.56-.56-1.09-.84-1.58-.86-.5-.01-.97.2-1.41.65-.33.33-.56.73-.68,1.19-.12.46-.1.91.07,1.32.17.42.51.89,1.03,1.4l3.61,3.61-1.12,1.12Z"/>
    <path d="M932.11,205.45l1.3-1.01c.49.86.68,1.72.56,2.59-.12.87-.56,1.68-1.33,2.45-.97.97-2.03,1.43-3.19,1.4-1.16-.03-2.28-.58-3.35-1.65-1.11-1.11-1.69-2.26-1.73-3.44s.39-2.23,1.31-3.14c.88-.88,1.9-1.3,3.06-1.26,1.16.04,2.28.61,3.37,1.7.07.07.16.17.29.3l-4.92,4.92c.77.68,1.53,1.03,2.28,1.05s1.41-.25,1.96-.8c.41-.41.65-.87.73-1.37.08-.51-.04-1.08-.34-1.72ZM926.62,207.31l3.69-3.69c-.6-.51-1.16-.78-1.67-.83-.79-.07-1.46.17-2.03.74-.51.51-.77,1.12-.78,1.81,0,.69.26,1.35.8,1.96Z"/>
    <path d="M936.78,205.03l-6.6-6.6,1.01-1.01,1,1c-.21-.73-.28-1.27-.21-1.64.07-.37.23-.68.49-.94.38-.38.88-.64,1.51-.79l.65,1.42c-.44.11-.79.3-1.06.58-.24.24-.39.54-.44.88-.05.34.02.68.2,1.03.27.52.65,1.02,1.12,1.49l3.46,3.46-1.12,1.12Z"/>
    <path d="M936.75,189.41l-1.29-1.29,1.12-1.12,1.29,1.29-1.12,1.12ZM944.57,197.23l-6.6-6.6,1.12-1.12,6.6,6.6-1.12,1.12Z"/>
    <path d="M947.39,194.41l-6.6-6.6,1.01-1.01.94.94c-.24-1.21.1-2.27,1.01-3.19.4-.4.83-.69,1.31-.88.47-.19.91-.25,1.31-.19.4.07.79.23,1.17.48.25.17.63.51,1.15,1.03l4.06,4.06-1.12,1.12-4.01-4.01c-.46-.46-.84-.75-1.15-.89-.31-.14-.65-.16-1-.08-.36.09-.68.28-.98.58-.48.48-.74,1.04-.78,1.69-.04.65.36,1.4,1.2,2.24l3.6,3.6-1.12,1.12Z"/>
    <path d="M955.91,183.89l1.15.83c-.25.38-.5.7-.75.94-.41.41-.79.66-1.14.75s-.68.08-.98-.03c-.3-.12-.79-.51-1.46-1.18l-3.8-3.8-.82.82-.87-.87.82-.82-1.63-1.63.44-1.78,2.31,2.31,1.12-1.12.87.87-1.12,1.12,3.86,3.86c.32.32.54.5.67.56s.27.06.41.02c.14-.03.3-.14.46-.3.12-.12.27-.3.45-.53Z"/>
    <path d="M954.29,180.91c-1.22-1.22-1.79-2.47-1.7-3.74.08-1.06.53-1.99,1.34-2.81.91-.91,1.95-1.35,3.12-1.33,1.17.02,2.28.55,3.33,1.6.85.85,1.39,1.65,1.62,2.39.23.74.24,1.49.02,2.25-.22.76-.61,1.42-1.19,2-.92.92-1.97,1.37-3.13,1.35-1.16-.02-2.3-.59-3.42-1.71ZM955.44,179.76c.84.85,1.66,1.29,2.45,1.35s1.46-.2,2.02-.76c.56-.56.81-1.23.75-2.02-.05-.79-.51-1.62-1.38-2.49-.82-.82-1.62-1.25-2.41-1.3-.79-.05-1.46.2-2.01.75-.56.56-.81,1.23-.76,2.02.05.79.5,1.6,1.34,2.45Z"/>
    <path d="M906.31,261.78l1.15.83c-.25.38-.5.7-.75.94-.41.41-.79.66-1.14.75-.35.1-.68.08-.98-.03-.3-.12-.79-.51-1.46-1.18l-3.8-3.8-.82.82-.87-.87.82-.82-1.63-1.63.44-1.78,2.31,2.31,1.12-1.12.87.87-1.12,1.12,3.86,3.86c.32.32.54.5.67.56.13.05.27.06.41.02.14-.03.3-.14.46-.3.12-.12.27-.3.45-.53Z"/>
    <path d="M908.41,261.68l-9.11-9.11,1.12-1.12,3.27,3.27c-.08-1.13.27-2.09,1.07-2.88.49-.49,1.01-.82,1.56-.98.55-.17,1.08-.16,1.57.02.5.18,1.07.6,1.71,1.25l4.18,4.18-1.12,1.12-4.18-4.18c-.56-.56-1.09-.84-1.58-.86-.5-.01-.97.2-1.41.65-.33.33-.56.73-.68,1.19-.12.46-.1.91.07,1.32.17.42.51.89,1.03,1.4l3.61,3.61-1.12,1.12Z"/>
    <path d="M917.88,247.96l1.3-1.01c.49.86.68,1.72.56,2.59-.12.87-.56,1.68-1.33,2.45-.97.97-2.03,1.43-3.19,1.4-1.16-.03-2.28-.58-3.35-1.65s-1.69-2.26-1.73-3.44c-.04-1.18.39-2.23,1.31-3.14.88-.88,1.9-1.3,3.06-1.26,1.16.04,2.29.61,3.38,1.7.07.07.16.17.29.3l-4.92,4.92c.77.68,1.53,1.03,2.28,1.05s1.41-.25,1.96-.8c.41-.41.65-.87.73-1.37s-.04-1.08-.34-1.72ZM912.4,249.82l3.69-3.69c-.6-.51-1.16-.78-1.67-.83-.79-.07-1.46.17-2.03.74-.51.51-.77,1.12-.78,1.81s.26,1.35.8,1.96Z"/>
    <path d="M929.6,238.87c-.06.77-.21,1.41-.45,1.94-.24.53-.58,1.01-1.02,1.45-.72.73-1.46,1.11-2.2,1.14-.74.04-1.39-.22-1.94-.77-.32-.32-.54-.69-.66-1.11-.12-.41-.14-.82-.07-1.22s.22-.79.44-1.17c.16-.28.44-.67.83-1.16.79-1.01,1.33-1.8,1.61-2.38-.15-.16-.25-.26-.29-.3-.46-.46-.88-.67-1.28-.65-.54.03-1.09.33-1.65.89-.53.53-.82,1.01-.89,1.44-.07.43.07.95.42,1.53l-1.24.94c-.37-.57-.58-1.11-.64-1.62-.06-.52.05-1.07.32-1.65.28-.59.7-1.16,1.27-1.73.56-.56,1.09-.96,1.57-1.17.48-.22.91-.31,1.28-.28.37.03.74.17,1.11.41.23.15.59.48,1.09.98l1.49,1.49c1.04,1.04,1.72,1.67,2.04,1.9s.68.4,1.08.51l-1.17,1.17c-.35-.12-.69-.31-1.04-.59ZM927,236.46c-.24.57-.71,1.32-1.4,2.25-.39.53-.64.93-.75,1.2s-.13.54-.08.8c.06.26.18.49.38.69.3.3.66.43,1.08.41.42-.03.85-.26,1.29-.69.43-.43.72-.91.87-1.43.15-.52.14-1.03-.03-1.51-.13-.37-.45-.81-.94-1.3l-.41-.41Z"/>
    <path d="M934.21,235.88l-1.04,1.04-9.11-9.11,1.12-1.12,3.25,3.25c-.12-1.07.19-1.96.92-2.7.41-.41.87-.71,1.4-.91s1.06-.27,1.58-.21c.53.06,1.07.24,1.62.52.55.29,1.06.67,1.54,1.14,1.13,1.13,1.73,2.29,1.78,3.46.06,1.18-.3,2.16-1.09,2.94-.78.78-1.71,1.06-2.81.86l.83.83ZM930.85,232.54c.79.79,1.47,1.25,2.04,1.39.93.22,1.69.04,2.29-.57.49-.49.7-1.12.63-1.9-.07-.78-.52-1.59-1.36-2.43-.86-.86-1.67-1.33-2.42-1.4-.75-.07-1.37.14-1.85.62-.49.49-.7,1.12-.63,1.9s.5,1.57,1.31,2.38Z"/>
    <path d="M942.75,232.42l-1.17-.93c.31-.18.56-.36.74-.54.25-.25.41-.49.47-.72.07-.23.07-.47.02-.71-.04-.18-.21-.57-.49-1.17-.04-.08-.1-.21-.17-.37l-9.12-4.11,1.21-1.21,5.2,2.45c.66.31,1.33.66,2.01,1.05-.39-.64-.73-1.3-1.04-1.96l-2.44-5.26,1.12-1.12,4.2,9.22c.46.99.75,1.7.87,2.13.17.57.21,1.07.13,1.49-.08.43-.3.82-.66,1.18-.22.22-.5.41-.86.58Z"/>
    <path d="M944.21,221.94l.93-1.28c.51.38,1.02.55,1.54.5.52-.05,1.04-.33,1.54-.84s.79-1,.83-1.46c.04-.46-.08-.83-.36-1.11-.25-.25-.56-.34-.93-.27-.25.05-.76.31-1.52.76-1.03.61-1.78,1-2.24,1.17-.47.16-.92.2-1.35.09s-.81-.32-1.13-.64c-.29-.29-.5-.63-.62-1.02-.12-.39-.14-.78-.07-1.17.04-.3.17-.65.38-1.04.21-.39.49-.76.83-1.1.52-.52,1.05-.9,1.59-1.14.54-.24,1.03-.33,1.47-.26s.91.28,1.41.64l-.94,1.24c-.39-.29-.8-.41-1.23-.36-.43.05-.86.29-1.3.72-.51.51-.8.97-.85,1.35s.04.7.27.93c.14.15.32.23.53.25.21.03.46-.01.73-.13.15-.07.58-.3,1.27-.7,1-.58,1.73-.96,2.18-1.14.45-.18.89-.23,1.32-.15s.84.31,1.22.69c.37.37.62.83.73,1.38.11.55.05,1.12-.18,1.71-.23.59-.6,1.14-1.12,1.66-.86.86-1.69,1.33-2.5,1.43-.81.09-1.62-.15-2.45-.72Z"/>
    <path d="M950.57,215.58l.93-1.28c.5.38,1.02.55,1.54.5.52-.05,1.04-.33,1.54-.84s.79-1,.83-1.46c.04-.46-.08-.83-.36-1.11-.25-.25-.56-.34-.93-.27-.25.05-.76.31-1.52.76-1.03.61-1.78,1-2.24,1.17-.47.17-.92.2-1.35.09-.43-.1-.81-.32-1.13-.64-.29-.29-.5-.63-.61-1.02-.12-.38-.14-.78-.08-1.17.05-.3.17-.65.38-1.04.21-.39.49-.76.83-1.1.52-.52,1.05-.9,1.59-1.14.54-.24,1.03-.33,1.47-.26s.91.28,1.41.64l-.95,1.24c-.39-.29-.8-.41-1.23-.36-.43.05-.86.29-1.3.72-.51.51-.79.97-.85,1.35-.05.39.04.7.27.93.15.15.32.23.53.25.21.03.45-.01.73-.13.15-.07.58-.3,1.27-.7,1-.58,1.73-.96,2.18-1.14.45-.18.89-.23,1.32-.15.43.08.84.31,1.22.69.37.37.62.83.73,1.38.11.55.05,1.12-.18,1.71-.23.59-.6,1.15-1.12,1.66-.86.86-1.69,1.33-2.5,1.43-.81.09-1.62-.15-2.45-.72Z"/>
  </g>
</svg>