<?xml version="1.0" encoding="UTF-8"?>
<svg id="Ebene_1" data-name="Ebene 1" xmlns="http://www.w3.org/2000/svg" viewBox="0 0 988 525">
  <defs>
    <style>
      .cls-1 {
        letter-spacing: 0em;
      }

      .cls-2 {
        letter-spacing: 0em;
      }

      .cls-3, .cls-4, .cls-5 {
        fill: #0333ff;
      }

      .cls-3, .cls-6 {
        stroke-miterlimit: 8;
      }

      .cls-3, .cls-6, .cls-7 {
        stroke: #0333ff;
      }

      .cls-3, .cls-8, .cls-9 {
        fill-rule: evenodd;
      }

      .cls-10 {
        letter-spacing: 0em;
      }

      .cls-11 {
        letter-spacing: 0em;
      }

      .cls-12 {
        letter-spacing: 0em;
      }

      .cls-13 {
        letter-spacing: 0em;
      }

      .cls-14 {
        letter-spacing: 0em;
      }

      .cls-15 {
        letter-spacing: 0em;
      }

      .cls-4, .cls-16 {
        font-size: 12px;
      }

      .cls-4, .cls-16, .cls-17 {
        font-family: ArialMT, Arial;
      }

      .cls-16, .cls-8, .cls-18 {
        fill: #fff;
      }

      .cls-19 {
        letter-spacing: 0em;
      }

      .cls-20 {
        letter-spacing: 0em;
      }

      .cls-21 {
        letter-spacing: 0em;
      }

      .cls-22 {
        letter-spacing: 0em;
      }

      .cls-23 {
        letter-spacing: 0em;
      }

      .cls-24 {
        letter-spacing: 0em;
      }

      .cls-6, .cls-25, .cls-7 {
        fill: none;
      }

      .cls-26 {
        letter-spacing: 0em;
      }

      .cls-25 {
        stroke: #1d1d1b;
      }

      .cls-25, .cls-7 {
        stroke-miterlimit: 10;
      }

      .cls-27 {
        letter-spacing: 0em;
      }

      .cls-8, .cls-28, .cls-29, .cls-18, .cls-5, .cls-9 {
        stroke-width: 0px;
      }

      .cls-30 {
        letter-spacing: 0em;
      }

      .cls-31 {
        letter-spacing: 0em;
      }

      .cls-32 {
        letter-spacing: 0em;
      }

      .cls-33 {
        letter-spacing: 0em;
      }

      .cls-29 {
        fill: #1d1d1b;
      }

      .cls-17 {
        font-size: 19.2px;
      }
    </style>
  </defs>
  <polygon class="cls-8" points="0 86.1 570.8 86.1 621.8 137.1 570.8 188.1 0 188.1 0 86.1"/>
  <polygon class="cls-8" points="0 211.5 809.6 211.5 860.6 262.5 809.6 313.5 0 313.5 0 211.5"/>
  <polygon class="cls-8" points="0 336.9 345.2 336.9 396.2 387.9 345.2 438.9 0 438.9 0 336.9"/>
  <text class="cls-17" transform="translate(127.31 143.1)"><tspan class="cls-32" x="0" y="0">Au</tspan><tspan class="cls-13" x="23.41" y="0">th</tspan><tspan class="cls-14" x="39.54" y="0">o</tspan><tspan x="50.19" y="0">rs</tspan></text>
  <text class="cls-17" transform="translate(76 267.62)"><tspan x="0" y="0">E</tspan><tspan class="cls-22" x="12.81" y="0">d</tspan><tspan class="cls-31" x="23.45" y="0">i</tspan><tspan class="cls-13" x="27.73" y="0">t</tspan><tspan class="cls-21" x="33.12" y="0">o</tspan><tspan class="cls-1" x="43.78" y="0">r</tspan><tspan class="cls-31" x="50.18" y="0">i</tspan><tspan class="cls-13" x="54.46" y="0">a</tspan><tspan class="cls-31" x="65.2" y="0">l</tspan><tspan class="cls-1" x="69.48" y="0" xml:space="preserve"> team</tspan></text>
  <text class="cls-17" transform="translate(113.35 395.1)"><tspan class="cls-15" x="0" y="0">R</tspan><tspan class="cls-26" x="13.9" y="0">e</tspan><tspan class="cls-23" x="24.5" y="0">v</tspan><tspan class="cls-31" x="34.07" y="0">i</tspan><tspan class="cls-19" x="38.35" y="0">e</tspan><tspan class="cls-30" x="48.95" y="0">w</tspan><tspan class="cls-19" x="62.88" y="0">e</tspan><tspan x="73.48" y="0">r</tspan></text>
  <g>
    <rect class="cls-18" x="254.6" y="101.7" width="36.6" height="50.4"/>
    <rect class="cls-28" x="267.8" y="129.9" width="24" height="1.2"/>
    <rect class="cls-28" x="267.8" y="125.1" width="11.4" height="1.2"/>
    <rect class="cls-28" x="267.8" y="134.7" width="24" height="1.2"/>
    <rect class="cls-28" x="267.8" y="139.5" width="24" height="1.2"/>
    <rect class="cls-28" x="267.8" y="144.3" width="24" height="1.2"/>
    <rect class="cls-28" x="267.8" y="149.1" width="24" height="1.2"/>
    <path class="cls-9" d="m263.02,156.89v-46.17h21.35v12.76h12.81v33.41h-34.16Zm22.58-45.3l10.71,10.66s0,0,0,0c0,0,0,0,0,0h-10.71v-10.67s0,0,0,0c0,0,0,0,0,0Zm-23.8-2.08v48.6h36.6v-35.49l-13.17-13.11h-23.43Z"/>
    <rect class="cls-6" x="241.4" y="242.7" width="76.8" height="40.2"/>
    <text class="cls-4" transform="translate(258.12 260.7)"><tspan x="0" y="0">Editorial</tspan></text>
    <text class="cls-4" transform="translate(257.71 272.7)"><tspan class="cls-20" x="0" y="0">d</tspan><tspan class="cls-27" x="6.66" y="0">e</tspan><tspan class="cls-11" x="13.41" y="0">ci</tspan><tspan x="22.15" y="0">s</tspan><tspan class="cls-11" x="28.15" y="0">i</tspan><tspan class="cls-33" x="30.85" y="0">o</tspan><tspan x="37.5" y="0">n</tspan></text>
    <polygon class="cls-3" points="342.8 262.8 393.8 236.7 444.8 262.8 393.8 288.9 342.8 262.8"/>
    <g>
      <line class="cls-7" x1="318.2" y1="262.8" x2="335.62" y2="262.8"/>
      <polygon class="cls-5" points="334.17 267.79 342.8 262.8 334.17 257.81 334.17 267.79"/>
    </g>
    <text class="cls-16" transform="translate(376.67 260.7)"><tspan class="cls-20" x="0" y="0">R</tspan><tspan class="cls-27" x="8.65" y="0">eje</tspan><tspan class="cls-2" x="24.88" y="0">c</tspan><tspan x="30.93" y="0">t</tspan></text>
    <text class="cls-16" transform="translate(369.35 272.7)"><tspan class="cls-33" x="0" y="0">o</tspan><tspan class="cls-11" x="6.65" y="0">r r</tspan><tspan class="cls-12" x="18.08" y="0">e</tspan><tspan class="cls-24" x="24.83" y="0">v</tspan><tspan class="cls-10" x="30.78" y="0">i</tspan><tspan class="cls-12" x="33.48" y="0">e</tspan><tspan x="40.23" y="0">w</tspan></text>
    <g>
      <line class="cls-25" x1="280.1" y1="172.5" x2="280.1" y2="235.08"/>
      <polygon class="cls-29" points="275.11 233.63 280.1 242.26 285.09 233.63 275.11 233.63"/>
    </g>
  </g>
</svg>