<?xml version="1.0" encoding="UTF-8"?>
<svg id="Ebene_1" data-name="Ebene 1" xmlns="http://www.w3.org/2000/svg" viewBox="0 0 988 525">
  <defs>
    <style>
      .cls-1 {
        letter-spacing: 0em;
      }

      .cls-2 {
        letter-spacing: 0em;
      }

      .cls-3 {
        letter-spacing: 0em;
      }

      .cls-4 {
        letter-spacing: 0em;
      }

      .cls-5 {
        letter-spacing: 0em;
      }

      .cls-6 {
        letter-spacing: 0em;
      }

      .cls-7 {
        letter-spacing: 0em;
      }

      .cls-8 {
        letter-spacing: 0em;
      }

      .cls-9 {
        letter-spacing: 0em;
      }

      .cls-10, .cls-11, .cls-12, .cls-13 {
        stroke-width: 0px;
      }

      .cls-10, .cls-12 {
        fill: #fff;
      }

      .cls-10, .cls-13 {
        fill-rule: evenodd;
      }

      .cls-14 {
        letter-spacing: 0em;
      }

      .cls-15 {
        letter-spacing: 0em;
      }

      .cls-16 {
        letter-spacing: 0em;
      }

      .cls-17 {
        font-family: ArialMT, Arial;
        font-size: 19.2px;
      }
    </style>
  </defs>
  <polygon class="cls-10" points="0 86.1 570.8 86.1 621.8 137.1 570.8 188.1 0 188.1 0 86.1"/>
  <polygon class="cls-10" points="0 211.5 809.6 211.5 860.6 262.5 809.6 313.5 0 313.5 0 211.5"/>
  <polygon class="cls-10" points="0 336.9 345.2 336.9 396.2 387.9 345.2 438.9 0 438.9 0 336.9"/>
  <text class="cls-17" transform="translate(127.31 143.1)"><tspan class="cls-16" x="0" y="0">Au</tspan><tspan class="cls-2" x="23.41" y="0">th</tspan><tspan class="cls-3" x="39.54" y="0">o</tspan><tspan x="50.19" y="0">rs</tspan></text>
  <text class="cls-17" transform="translate(76 267.62)"><tspan x="0" y="0">E</tspan><tspan class="cls-7" x="12.81" y="0">d</tspan><tspan class="cls-15" x="23.45" y="0">i</tspan><tspan class="cls-2" x="27.73" y="0">t</tspan><tspan class="cls-6" x="33.12" y="0">o</tspan><tspan class="cls-1" x="43.78" y="0">r</tspan><tspan class="cls-15" x="50.18" y="0">i</tspan><tspan class="cls-2" x="54.46" y="0">a</tspan><tspan class="cls-15" x="65.2" y="0">l</tspan><tspan class="cls-1" x="69.48" y="0" xml:space="preserve"> team</tspan></text>
  <text class="cls-17" transform="translate(113.35 395.1)"><tspan class="cls-4" x="0" y="0">R</tspan><tspan class="cls-9" x="13.9" y="0">e</tspan><tspan class="cls-8" x="24.5" y="0">v</tspan><tspan class="cls-15" x="34.07" y="0">i</tspan><tspan class="cls-5" x="38.35" y="0">e</tspan><tspan class="cls-14" x="48.95" y="0">w</tspan><tspan class="cls-5" x="62.88" y="0">e</tspan><tspan x="73.48" y="0">r</tspan></text>
  <g>
    <rect class="cls-12" x="254.6" y="101.7" width="36.6" height="50.4"/>
    <rect class="cls-11" x="267.8" y="129.9" width="24" height="1.2"/>
    <rect class="cls-11" x="267.8" y="125.1" width="11.4" height="1.2"/>
    <rect class="cls-11" x="267.8" y="134.7" width="24" height="1.2"/>
    <rect class="cls-11" x="267.8" y="139.5" width="24" height="1.2"/>
    <rect class="cls-11" x="267.8" y="144.3" width="24" height="1.2"/>
    <rect class="cls-11" x="267.8" y="149.1" width="24" height="1.2"/>
    <path class="cls-13" d="m263.02,156.89v-46.17h21.35v12.76h12.81v33.41h-34.16Zm22.58-45.3l10.71,10.66s0,0,0,0c0,0,0,0,0,0h-10.71v-10.67s0,0,0,0c0,0,0,0,0,0Zm-23.8-2.08v48.6h36.6v-35.49l-13.17-13.11h-23.43Z"/>
  </g>
</svg>