<?xml version="1.0" encoding="UTF-8"?>
<svg id="graphics" xmlns="http://www.w3.org/2000/svg" viewBox="0 0 988 525">
  <defs>
    <style>
      .cls-1, .cls-2 {
        font-family: ArialMT, Arial;
        font-size: 14px;
      }

      .cls-3, .cls-4 {
        fill: #fff;
      }

      .cls-3, .cls-4, .cls-5 {
        stroke-width: 2px;
      }

      .cls-3, .cls-4, .cls-5, .cls-6 {
        stroke-miterlimit: 10;
      }

      .cls-3, .cls-5 {
        stroke: #1d1d1b;
      }

      .cls-4 {
        stroke: #0333ff;
      }

      .cls-7, .cls-8 {
        fill: #0333ff;
      }

      .cls-7, .cls-9 {
        font-family: Arial-BoldMT, Arial;
        font-size: 18px;
        font-weight: 700;
      }

      .cls-10 {
        letter-spacing: -.06em;
      }

      .cls-2, .cls-11 {
        fill: #828282;
      }

      .cls-5, .cls-6 {
        fill: none;
      }

      .cls-6 {
        stroke: #828282;
      }

      .cls-11, .cls-12, .cls-8 {
        stroke-width: 0px;
      }

      .cls-12 {
        fill: #1d1d1b;
      }
    </style>
  </defs>
  <g>
    <rect class="cls-3" x="364" y="50" width="260" height="50"/>
    <text class="cls-9" transform="translate(422.98 79.91)"><tspan x="0" y="0">Simple structure</tspan></text>
  </g>
  <g>
    <rect class="cls-3" x="364" y="175" width="260" height="50"/>
    <text class="cls-9" transform="translate(406.99 204.9)"><tspan x="0" y="0">Functional structure</tspan></text>
  </g>
  <g>
    <rect class="cls-4" x="364" y="300" width="260" height="50"/>
    <text class="cls-7" transform="translate(409.98 329.9)"><tspan x="0" y="0">Divisional structure</tspan></text>
  </g>
  <g>
    <line class="cls-5" x1="493.72" y1="100" x2="493.72" y2="164.24"/>
    <polygon class="cls-12" points="486.24 162.05 493.72 175 501.2 162.05 486.24 162.05"/>
  </g>
  <g>
    <line class="cls-5" x1="743.09" y1="73.74" x2="788.74" y2="73.74"/>
    <polygon class="cls-12" points="786.55 81.22 799.5 73.74 786.55 66.26 786.55 81.22"/>
  </g>
  <g>
    <line class="cls-6" x1="743.09" y1="99.42" x2="792.33" y2="99.42"/>
    <polygon class="cls-11" points="790.87 104.41 799.5 99.42 790.87 94.44 790.87 104.41"/>
  </g>
  <g>
    <line class="cls-6" x1="493.72" y1="225" x2="493.72" y2="292.82"/>
    <polygon class="cls-11" points="488.73 291.37 493.72 300 498.71 291.37 488.73 291.37"/>
  </g>
  <text class="cls-2" transform="translate(522.41 132.83)"><tspan x="0" y="0">Growth in revenues</tspan><tspan x="0" y="16">and employees</tspan></text>
  <g>
    <path class="cls-8" d="m523.49,249.43v-10.02h3.45c.78,0,1.37.05,1.78.14.57.13,1.06.37,1.47.72.53.45.92,1.02,1.19,1.71.26.69.39,1.49.39,2.38,0,.76-.09,1.44-.27,2.02s-.41,1.07-.68,1.46c-.28.38-.58.69-.91.91-.33.22-.73.39-1.2.5-.47.11-1,.17-1.61.17h-3.62Zm1.33-1.18h2.14c.66,0,1.18-.06,1.55-.18s.68-.3.9-.52c.31-.31.56-.74.73-1.27.18-.53.26-1.17.26-1.93,0-1.05-.17-1.85-.52-2.42-.34-.56-.76-.94-1.25-1.13-.36-.14-.93-.21-1.72-.21h-2.11v7.66Z"/>
    <path class="cls-8" d="m533.45,240.83v-1.42h1.23v1.42h-1.23Zm0,8.61v-7.26h1.23v7.26h-1.23Z"/>
    <path class="cls-8" d="m538.57,249.43l-2.76-7.26h1.3l1.56,4.35c.17.47.32.96.46,1.46.11-.38.26-.84.46-1.38l1.61-4.43h1.26l-2.75,7.26h-1.15Z"/>
    <path class="cls-8" d="m548.53,247.1l1.27.16c-.2.74-.57,1.32-1.11,1.73-.54.41-1.24.62-2.08.62-1.06,0-1.9-.33-2.53-.98-.62-.65-.93-1.57-.93-2.75s.31-2.17.94-2.84,1.44-1.01,2.45-1.01,1.76.33,2.38.99.92,1.59.92,2.79c0,.07,0,.18,0,.33h-5.41c.04.8.27,1.41.68,1.83.41.42.91.64,1.52.64.45,0,.84-.12,1.16-.36.32-.24.57-.62.76-1.13Zm-4.04-1.99h4.05c-.05-.61-.21-1.07-.46-1.37-.39-.47-.9-.71-1.52-.71-.57,0-1.04.19-1.43.57-.38.38-.6.88-.64,1.52Z"/>
    <path class="cls-8" d="m551.33,249.43v-7.26h1.11v1.1c.28-.51.54-.85.78-1.02s.5-.25.79-.25c.41,0,.84.13,1.26.4l-.42,1.14c-.3-.18-.6-.27-.9-.27-.27,0-.51.08-.72.24-.21.16-.37.39-.46.67-.14.44-.21.92-.21,1.44v3.8h-1.23Z"/>
    <path class="cls-8" d="m555.51,247.27l1.22-.19c.07.49.26.86.57,1.12.31.26.75.39,1.31.39s.98-.12,1.26-.35c.27-.23.41-.5.41-.81,0-.28-.12-.5-.36-.66-.17-.11-.59-.25-1.26-.42-.9-.23-1.53-.42-1.88-.59-.35-.17-.61-.4-.79-.69-.18-.29-.27-.62-.27-.97,0-.32.07-.62.22-.9.15-.28.35-.5.61-.69.19-.14.45-.26.78-.36.33-.1.68-.15,1.06-.15.57,0,1.07.08,1.5.25s.75.39.95.67c.21.28.35.66.42,1.12l-1.2.16c-.05-.37-.21-.67-.48-.88-.26-.21-.63-.31-1.11-.31-.57,0-.97.09-1.21.28-.24.19-.36.41-.36.66,0,.16.05.3.15.43.1.13.26.24.47.33.12.05.49.15,1.09.31.87.23,1.48.42,1.82.57.34.15.61.36.81.65.2.28.29.63.29,1.05s-.12.8-.36,1.16c-.24.36-.58.64-1.04.84-.45.2-.96.3-1.53.3-.94,0-1.66-.2-2.16-.59-.49-.39-.81-.97-.95-1.74Z"/>
    <path class="cls-8" d="m563.01,240.83v-1.42h1.23v1.42h-1.23Zm0,8.61v-7.26h1.23v7.26h-1.23Z"/>
    <path class="cls-8" d="m566.41,249.43v-6.3h-1.09v-.96h1.09v-.77c0-.49.04-.85.13-1.09.12-.32.33-.58.62-.78.3-.2.72-.3,1.25-.3.35,0,.73.04,1.15.12l-.18,1.07c-.26-.05-.5-.07-.72-.07-.37,0-.64.08-.79.24-.16.16-.23.46-.23.9v.67h1.42v.96h-1.42v6.3h-1.22Z"/>
    <path class="cls-8" d="m570.01,240.83v-1.42h1.23v1.42h-1.23Zm0,8.61v-7.26h1.23v7.26h-1.23Z"/>
    <path class="cls-8" d="m577.85,246.78l1.21.16c-.13.83-.47,1.49-1.02,1.96-.54.47-1.21.71-2.01.71-.99,0-1.79-.32-2.4-.97-.6-.65-.91-1.58-.91-2.79,0-.78.13-1.47.39-2.06s.66-1.03,1.19-1.32c.53-.29,1.11-.44,1.73-.44.79,0,1.43.2,1.93.6.5.4.82.97.96,1.7l-1.2.18c-.11-.49-.32-.85-.61-1.1-.29-.25-.64-.37-1.05-.37-.62,0-1.12.22-1.51.67-.39.45-.58,1.15-.58,2.11s.19,1.68.56,2.13c.37.44.86.66,1.46.66.48,0,.89-.15,1.21-.44.32-.3.53-.75.62-1.37Z"/>
    <path class="cls-8" d="m584.85,248.54c-.46.39-.89.66-1.32.82-.42.16-.87.24-1.36.24-.8,0-1.41-.2-1.84-.58-.43-.39-.64-.89-.64-1.49,0-.36.08-.68.24-.97.16-.29.37-.53.64-.71.26-.18.56-.31.89-.4.24-.06.61-.12,1.09-.18.99-.12,1.72-.26,2.19-.42,0-.17,0-.28,0-.32,0-.5-.12-.85-.35-1.06-.31-.28-.78-.42-1.4-.42-.58,0-1.01.1-1.28.3-.28.2-.48.56-.61,1.08l-1.2-.16c.11-.51.29-.93.54-1.25.25-.32.61-.56,1.09-.73.47-.17,1.02-.26,1.65-.26s1.12.07,1.51.22c.39.15.67.33.85.55.18.22.31.5.38.84.04.21.06.59.06,1.13v1.64c0,1.14.03,1.87.08,2.17.05.3.16.59.31.87h-1.29c-.13-.25-.21-.55-.25-.9Zm-.1-2.75c-.45.18-1.12.34-2.01.46-.51.07-.86.16-1.07.25-.21.09-.37.22-.49.4-.11.18-.17.37-.17.58,0,.33.12.6.37.82.25.22.61.33,1.09.33s.9-.1,1.26-.31c.37-.21.64-.49.81-.85.13-.28.2-.69.2-1.23v-.45Z"/>
    <path class="cls-8" d="m590.59,248.33l.18,1.09c-.35.07-.66.11-.93.11-.45,0-.79-.07-1.04-.21s-.42-.33-.52-.56c-.1-.23-.15-.71-.15-1.45v-4.18h-.9v-.96h.9v-1.8l1.22-.74v2.54h1.24v.96h-1.24v4.25c0,.35.02.58.06.68.04.1.11.18.21.24.1.06.24.09.42.09.14,0,.32-.02.54-.05Z"/>
    <path class="cls-8" d="m591.8,240.83v-1.42h1.23v1.42h-1.23Zm0,8.61v-7.26h1.23v7.26h-1.23Z"/>
    <path class="cls-8" d="m594.44,245.8c0-1.34.37-2.34,1.12-2.99.62-.54,1.38-.81,2.28-.81,1,0,1.81.33,2.45.98.63.65.95,1.56.95,2.71,0,.93-.14,1.67-.42,2.21-.28.54-.69.95-1.22,1.25-.54.3-1.12.44-1.75.44-1.02,0-1.84-.33-2.46-.98-.63-.65-.94-1.59-.94-2.82Zm1.26,0c0,.93.2,1.63.61,2.09.41.46.92.69,1.53.69s1.12-.23,1.52-.7c.41-.46.61-1.17.61-2.13,0-.9-.2-1.58-.61-2.04-.41-.46-.92-.69-1.52-.69s-1.13.23-1.53.69c-.41.46-.61,1.16-.61,2.08Z"/>
    <path class="cls-8" d="m602.69,249.43v-7.26h1.11v1.03c.53-.8,1.3-1.2,2.31-1.2.44,0,.84.08,1.21.24.37.16.64.36.82.62.18.25.31.56.38.91.04.23.07.63.07,1.2v4.46h-1.23v-4.42c0-.5-.05-.88-.14-1.12-.1-.25-.27-.45-.51-.59-.24-.15-.53-.22-.86-.22-.52,0-.98.17-1.36.5-.38.33-.57.96-.57,1.89v3.96h-1.23Z"/>
    <path class="cls-8" d="m523.34,256.83v-1.42h1.23v1.42h-1.23Zm0,8.61v-7.26h1.23v7.26h-1.23Z"/>
    <path class="cls-8" d="m526.45,265.43v-7.26h1.11v1.03c.53-.8,1.3-1.2,2.31-1.2.44,0,.84.08,1.21.24.37.16.64.36.82.62.18.25.31.56.38.91.04.23.07.63.07,1.2v4.46h-1.23v-4.42c0-.5-.05-.88-.14-1.12-.1-.25-.27-.45-.51-.59-.24-.15-.53-.22-.86-.22-.52,0-.98.17-1.36.5-.38.33-.57.96-.57,1.89v3.96h-1.23Z"/>
    <path class="cls-8" d="m536.92,264.33l.18,1.09c-.35.07-.66.11-.93.11-.45,0-.79-.07-1.04-.21s-.42-.33-.52-.56c-.1-.23-.15-.71-.15-1.45v-4.18h-.9v-.96h.9v-1.8l1.22-.74v2.54h1.24v.96h-1.24v4.25c0,.35.02.58.06.68.04.1.11.18.21.24.1.06.24.09.42.09.14,0,.32-.02.54-.05Z"/>
    <path class="cls-8" d="m537.66,261.8c0-1.34.37-2.34,1.12-2.99.62-.54,1.38-.81,2.28-.81,1,0,1.81.33,2.45.98.63.65.95,1.56.95,2.71,0,.93-.14,1.67-.42,2.21-.28.54-.69.95-1.22,1.25-.54.3-1.12.44-1.75.44-1.02,0-1.84-.33-2.46-.98-.63-.65-.94-1.59-.94-2.82Zm1.26,0c0,.93.2,1.63.61,2.09.41.46.92.69,1.53.69s1.12-.23,1.52-.7c.41-.46.61-1.17.61-2.13,0-.9-.2-1.58-.61-2.04-.41-.46-.92-.69-1.52-.69s-1.13.23-1.53.69c-.41.46-.61,1.16-.61,2.08Z"/>
    <path class="cls-8" d="m549.78,265.43v-7.26h1.11v1.1c.28-.51.54-.85.78-1.02s.5-.25.79-.25c.41,0,.84.13,1.26.4l-.42,1.14c-.3-.18-.6-.27-.9-.27-.27,0-.51.08-.72.24-.21.16-.37.39-.46.67-.14.44-.21.92-.21,1.44v3.8h-1.23Z"/>
    <path class="cls-8" d="m559.43,263.1l1.27.16c-.2.74-.57,1.32-1.11,1.73-.54.41-1.24.62-2.08.62-1.06,0-1.9-.33-2.53-.98-.62-.65-.93-1.57-.93-2.75s.31-2.17.94-2.84,1.44-1.01,2.45-1.01,1.76.33,2.38.99.92,1.59.92,2.79c0,.07,0,.18,0,.33h-5.41c.04.8.27,1.41.68,1.83.41.42.91.64,1.52.64.45,0,.84-.12,1.16-.36.32-.24.57-.62.76-1.13Zm-4.04-1.99h4.05c-.05-.61-.21-1.07-.46-1.37-.39-.47-.9-.71-1.52-.71-.57,0-1.04.19-1.43.57-.38.38-.6.88-.64,1.52Z"/>
    <path class="cls-8" d="m562.22,265.43v-10.02h1.23v10.02h-1.23Z"/>
    <path class="cls-8" d="m570.09,264.54c-.46.39-.89.66-1.32.82-.42.16-.87.24-1.36.24-.8,0-1.41-.2-1.84-.58-.43-.39-.64-.89-.64-1.49,0-.36.08-.68.24-.97.16-.29.37-.53.64-.71.26-.18.56-.31.89-.4.24-.06.61-.12,1.09-.18.99-.12,1.72-.26,2.19-.42,0-.17,0-.28,0-.32,0-.5-.12-.85-.35-1.06-.31-.28-.78-.42-1.4-.42-.58,0-1.01.1-1.28.3-.28.2-.48.56-.61,1.08l-1.2-.16c.11-.51.29-.93.54-1.25.25-.32.61-.56,1.09-.73.47-.17,1.02-.26,1.65-.26s1.12.07,1.51.22c.39.15.67.33.85.55.18.22.31.5.38.84.04.21.06.59.06,1.13v1.64c0,1.14.03,1.87.08,2.17.05.3.16.59.31.87h-1.29c-.13-.25-.21-.55-.25-.9Zm-.1-2.75c-.45.18-1.12.34-2.01.46-.51.07-.86.16-1.07.25-.21.09-.37.22-.49.4-.11.18-.17.37-.17.58,0,.33.12.6.37.82.25.22.61.33,1.09.33s.9-.1,1.26-.31c.37-.21.64-.49.81-.85.13-.28.2-.69.2-1.23v-.45Z"/>
    <path class="cls-8" d="m575.83,264.33l.18,1.09c-.35.07-.66.11-.93.11-.45,0-.79-.07-1.04-.21s-.42-.33-.52-.56c-.1-.23-.15-.71-.15-1.45v-4.18h-.9v-.96h.9v-1.8l1.22-.74v2.54h1.24v.96h-1.24v4.25c0,.35.02.58.06.68.04.1.11.18.21.24.1.06.24.09.42.09.14,0,.32-.02.54-.05Z"/>
    <path class="cls-8" d="m582,263.1l1.27.16c-.2.74-.57,1.32-1.11,1.73-.54.41-1.24.62-2.08.62-1.06,0-1.9-.33-2.53-.98-.62-.65-.93-1.57-.93-2.75s.31-2.17.94-2.84,1.44-1.01,2.45-1.01,1.76.33,2.38.99.92,1.59.92,2.79c0,.07,0,.18,0,.33h-5.41c.04.8.27,1.41.68,1.83.41.42.91.64,1.52.64.45,0,.84-.12,1.16-.36.32-.24.57-.62.76-1.13Zm-4.04-1.99h4.05c-.05-.61-.21-1.07-.46-1.37-.39-.47-.9-.71-1.52-.71-.57,0-1.04.19-1.43.57-.38.38-.6.88-.64,1.52Z"/>
    <path class="cls-8" d="m589.53,265.43v-.92c-.46.72-1.14,1.08-2.03,1.08-.58,0-1.11-.16-1.6-.48s-.86-.76-1.13-1.34c-.27-.57-.4-1.23-.4-1.97s.12-1.38.36-1.97c.24-.59.6-1.04,1.09-1.36.48-.31,1.02-.47,1.62-.47.44,0,.83.09,1.17.28.34.18.62.42.83.72v-3.6h1.22v10.02h-1.14Zm-3.89-3.62c0,.93.2,1.62.59,2.08.39.46.85.69,1.39.69s.99-.22,1.37-.66c.38-.44.56-1.11.56-2.01,0-.99-.19-1.72-.57-2.19s-.85-.7-1.42-.7-1,.22-1.37.67c-.37.45-.55,1.15-.55,2.11Z"/>
    <path class="cls-8" d="m596.49,268.22v-10.04h1.12v.94c.26-.37.56-.65.9-.83.33-.19.74-.28,1.21-.28.62,0,1.17.16,1.64.48.47.32.83.77,1.07,1.35.24.58.36,1.22.36,1.91,0,.74-.13,1.41-.4,2.01-.27.59-.65,1.05-1.16,1.37-.51.32-1.04.47-1.6.47-.41,0-.78-.09-1.1-.26-.33-.17-.59-.39-.8-.66v3.53h-1.23Zm1.11-6.37c0,.93.19,1.62.57,2.07.38.45.84.67,1.37.67s1.01-.23,1.4-.69c.39-.46.58-1.18.58-2.15s-.19-1.62-.57-2.08c-.38-.46-.83-.69-1.36-.69s-.99.25-1.39.74c-.4.49-.6,1.2-.6,2.14Z"/>
    <path class="cls-8" d="m604.27,265.43v-7.26h1.11v1.1c.28-.51.54-.85.78-1.02s.5-.25.79-.25c.41,0,.84.13,1.26.4l-.42,1.14c-.3-.18-.6-.27-.9-.27-.27,0-.51.08-.72.24-.21.16-.37.39-.46.67-.14.44-.21.92-.21,1.44v3.8h-1.23Z"/>
    <path class="cls-8" d="m608.48,261.8c0-1.34.37-2.34,1.12-2.99.62-.54,1.38-.81,2.28-.81,1,0,1.81.33,2.45.98.63.65.95,1.56.95,2.71,0,.93-.14,1.67-.42,2.21-.28.54-.69.95-1.22,1.25-.54.3-1.12.44-1.75.44-1.02,0-1.84-.33-2.46-.98-.63-.65-.94-1.59-.94-2.82Zm1.26,0c0,.93.2,1.63.61,2.09.41.46.92.69,1.53.69s1.12-.23,1.52-.7c.41-.46.61-1.17.61-2.13,0-.9-.2-1.58-.61-2.04-.41-.46-.92-.69-1.52-.69s-1.13.23-1.53.69c-.41.46-.61,1.16-.61,2.08Z"/>
    <path class="cls-8" d="m621.44,265.43v-.92c-.46.72-1.14,1.08-2.03,1.08-.58,0-1.11-.16-1.6-.48s-.86-.76-1.13-1.34c-.27-.57-.4-1.23-.4-1.97s.12-1.38.36-1.97c.24-.59.6-1.04,1.09-1.36.48-.31,1.02-.47,1.62-.47.44,0,.83.09,1.17.28.34.18.62.42.83.72v-3.6h1.22v10.02h-1.14Zm-3.89-3.62c0,.93.2,1.62.59,2.08.39.46.85.69,1.39.69s.99-.22,1.37-.66c.38-.44.56-1.11.56-2.01,0-.99-.19-1.72-.57-2.19s-.85-.7-1.42-.7-1,.22-1.37.67c-.37.45-.55,1.15-.55,2.11Z"/>
    <path class="cls-8" d="m629.27,265.43v-1.07c-.57.82-1.33,1.23-2.3,1.23-.43,0-.83-.08-1.2-.25-.37-.16-.65-.37-.83-.62-.18-.25-.31-.55-.38-.91-.05-.24-.08-.62-.08-1.15v-4.5h1.23v4.03c0,.64.02,1.08.08,1.3.08.32.24.58.49.76.25.18.56.28.93.28s.71-.09,1.04-.28c.32-.19.55-.45.69-.77.13-.33.2-.8.2-1.42v-3.89h1.23v7.26h-1.1Z"/>
    <path class="cls-8" d="m637.04,262.78l1.21.16c-.13.83-.47,1.49-1.02,1.96-.54.47-1.21.71-2.01.71-.99,0-1.79-.32-2.4-.97-.6-.65-.91-1.58-.91-2.79,0-.78.13-1.47.39-2.06s.66-1.03,1.19-1.32c.53-.29,1.11-.44,1.73-.44.79,0,1.43.2,1.93.6.5.4.82.97.96,1.7l-1.2.18c-.11-.49-.32-.85-.61-1.1-.29-.25-.64-.37-1.05-.37-.62,0-1.12.22-1.51.67-.39.45-.58,1.15-.58,2.11s.19,1.68.56,2.13c.37.44.86.66,1.46.66.48,0,.89-.15,1.21-.44.32-.3.53-.75.62-1.37Z"/>
    <path class="cls-8" d="m641.99,264.33l.18,1.09c-.35.07-.66.11-.93.11-.45,0-.79-.07-1.04-.21s-.42-.33-.52-.56c-.1-.23-.15-.71-.15-1.45v-4.18h-.9v-.96h.9v-1.8l1.22-.74v2.54h1.24v.96h-1.24v4.25c0,.35.02.58.06.68.04.1.11.18.21.24.1.06.24.09.42.09.14,0,.32-.02.54-.05Z"/>
    <path class="cls-8" d="m642.7,263.27l1.22-.19c.07.49.26.86.57,1.12.31.26.75.39,1.31.39s.98-.12,1.26-.35c.27-.23.41-.5.41-.81,0-.28-.12-.5-.36-.66-.17-.11-.59-.25-1.26-.42-.9-.23-1.53-.42-1.88-.59-.35-.17-.61-.4-.79-.69-.18-.29-.27-.62-.27-.97,0-.32.07-.62.22-.9.15-.28.35-.5.61-.69.19-.14.45-.26.78-.36.33-.1.68-.15,1.06-.15.57,0,1.07.08,1.5.25s.75.39.95.67c.21.28.35.66.42,1.12l-1.2.16c-.05-.37-.21-.67-.48-.88-.26-.21-.63-.31-1.11-.31-.57,0-.97.09-1.21.28-.24.19-.36.41-.36.66,0,.16.05.3.15.43.1.13.26.24.47.33.12.05.49.15,1.09.31.87.23,1.48.42,1.82.57.34.15.61.36.81.65.2.28.29.63.29,1.05s-.12.8-.36,1.16c-.24.36-.58.64-1.04.84-.45.2-.96.3-1.53.3-.94,0-1.66-.2-2.16-.59-.49-.39-.81-.97-.95-1.74Z"/>
    <path class="cls-8" d="m528.07,280.54c-.46.39-.89.66-1.32.82-.42.16-.87.24-1.36.24-.8,0-1.41-.2-1.84-.58-.43-.39-.64-.89-.64-1.49,0-.36.08-.68.24-.97.16-.29.37-.53.64-.71.26-.18.56-.31.89-.4.24-.06.61-.12,1.09-.18.99-.12,1.72-.26,2.19-.42,0-.17,0-.28,0-.32,0-.5-.12-.85-.35-1.06-.31-.28-.78-.42-1.4-.42-.58,0-1.01.1-1.28.3-.28.2-.48.56-.61,1.08l-1.2-.16c.11-.51.29-.93.54-1.25.25-.32.61-.56,1.09-.73.47-.17,1.02-.26,1.65-.26s1.12.07,1.51.22c.39.15.67.33.85.55.18.22.31.5.38.84.04.21.06.59.06,1.13v1.64c0,1.14.03,1.87.08,2.17.05.3.16.59.31.87h-1.29c-.13-.25-.21-.55-.25-.9Zm-.1-2.75c-.45.18-1.12.34-2.01.46-.51.07-.86.16-1.07.25-.21.09-.37.22-.49.4-.11.18-.17.37-.17.58,0,.33.12.6.37.82.25.22.61.33,1.09.33s.9-.1,1.26-.31c.37-.21.64-.49.81-.85.13-.28.2-.69.2-1.23v-.45Z"/>
    <path class="cls-8" d="m531.12,281.43v-7.26h1.11v1.03c.53-.8,1.3-1.2,2.31-1.2.44,0,.84.08,1.21.24.37.16.64.36.82.62.18.25.31.56.38.91.04.23.07.63.07,1.2v4.46h-1.23v-4.42c0-.5-.05-.88-.14-1.12-.1-.25-.27-.45-.51-.59-.24-.15-.53-.22-.86-.22-.52,0-.98.17-1.36.5-.38.33-.57.96-.57,1.89v3.96h-1.23Z"/>
    <path class="cls-8" d="m543.62,281.43v-.92c-.46.72-1.14,1.08-2.03,1.08-.58,0-1.11-.16-1.6-.48s-.86-.76-1.13-1.34c-.27-.57-.4-1.23-.4-1.97s.12-1.38.36-1.97c.24-.59.6-1.04,1.09-1.36.48-.31,1.02-.47,1.62-.47.44,0,.83.09,1.17.28.34.18.62.42.83.72v-3.6h1.22v10.02h-1.14Zm-3.89-3.62c0,.93.2,1.62.59,2.08.39.46.85.69,1.39.69s.99-.22,1.37-.66c.38-.44.56-1.11.56-2.01,0-.99-.19-1.72-.57-2.19s-.85-.7-1.42-.7-1,.22-1.37.67c-.37.45-.55,1.15-.55,2.11Z"/>
    <path class="cls-8" d="m550.58,281.43v-7.26h1.1v1.02c.23-.36.53-.64.91-.86.38-.22.81-.32,1.29-.32.54,0,.98.11,1.32.33.34.22.59.54.73.94.57-.85,1.32-1.27,2.24-1.27.72,0,1.27.2,1.66.6.39.4.58,1.01.58,1.84v4.98h-1.22v-4.57c0-.49-.04-.85-.12-1.06-.08-.22-.22-.39-.43-.52-.21-.13-.46-.2-.74-.2-.51,0-.93.17-1.27.51-.34.34-.51.88-.51,1.63v4.22h-1.23v-4.72c0-.55-.1-.96-.3-1.23-.2-.27-.53-.41-.98-.41-.35,0-.67.09-.96.27s-.51.45-.64.8c-.13.35-.2.86-.2,1.52v3.77h-1.23Z"/>
    <path class="cls-8" d="m566.98,280.54c-.46.39-.89.66-1.32.82-.42.16-.87.24-1.36.24-.8,0-1.41-.2-1.84-.58-.43-.39-.64-.89-.64-1.49,0-.36.08-.68.24-.97.16-.29.37-.53.64-.71.26-.18.56-.31.89-.4.24-.06.61-.12,1.09-.18.99-.12,1.72-.26,2.19-.42,0-.17,0-.28,0-.32,0-.5-.12-.85-.35-1.06-.31-.28-.78-.42-1.4-.42-.58,0-1.01.1-1.28.3-.28.2-.48.56-.61,1.08l-1.2-.16c.11-.51.29-.93.54-1.25.25-.32.61-.56,1.09-.73.47-.17,1.02-.26,1.65-.26s1.12.07,1.51.22c.39.15.67.33.85.55.18.22.31.5.38.84.04.21.06.59.06,1.13v1.64c0,1.14.03,1.87.08,2.17.05.3.16.59.31.87h-1.29c-.13-.25-.21-.55-.25-.9Zm-.1-2.75c-.45.18-1.12.34-2.01.46-.51.07-.86.16-1.07.25-.21.09-.37.22-.49.4-.11.18-.17.37-.17.58,0,.33.12.6.37.82.25.22.61.33,1.09.33s.9-.1,1.26-.31c.37-.21.64-.49.81-.85.13-.28.2-.69.2-1.23v-.45Z"/>
    <path class="cls-8" d="m570.02,281.43v-7.26h1.11v1.1c.28-.51.54-.85.78-1.02s.5-.25.79-.25c.41,0,.84.13,1.26.4l-.42,1.14c-.3-.18-.6-.27-.9-.27-.27,0-.51.08-.72.24-.21.16-.37.39-.46.67-.14.44-.21.92-.21,1.44v3.8h-1.23Z"/>
    <path class="cls-8" d="m574.7,281.43v-10.02h1.23v5.71l2.91-2.95h1.59l-2.78,2.69,3.06,4.57h-1.52l-2.4-3.71-.87.83v2.88h-1.23Z"/>
    <path class="cls-8" d="m586.66,279.1l1.27.16c-.2.74-.57,1.32-1.11,1.73-.54.41-1.24.62-2.08.62-1.06,0-1.9-.33-2.53-.98-.62-.65-.93-1.57-.93-2.75s.31-2.17.94-2.84,1.44-1.01,2.45-1.01,1.76.33,2.38.99.92,1.59.92,2.79c0,.07,0,.18,0,.33h-5.41c.04.8.27,1.41.68,1.83.41.42.91.64,1.52.64.45,0,.84-.12,1.16-.36.32-.24.57-.62.76-1.13Zm-4.04-1.99h4.05c-.05-.61-.21-1.07-.46-1.37-.39-.47-.9-.71-1.52-.71-.57,0-1.04.19-1.43.57-.38.38-.6.88-.64,1.52Z"/>
    <path class="cls-8" d="m592.17,280.33l.18,1.09c-.35.07-.66.11-.93.11-.45,0-.79-.07-1.04-.21s-.42-.33-.52-.56c-.1-.23-.15-.71-.15-1.45v-4.18h-.9v-.96h.9v-1.8l1.22-.74v2.54h1.24v.96h-1.24v4.25c0,.35.02.58.06.68.04.1.11.18.21.24.1.06.24.09.42.09.14,0,.32-.02.54-.05Z"/>
    <path class="cls-8" d="m592.88,279.27l1.22-.19c.07.49.26.86.57,1.12.31.26.75.39,1.31.39s.98-.12,1.26-.35c.27-.23.41-.5.41-.81,0-.28-.12-.5-.36-.66-.17-.11-.59-.25-1.26-.42-.9-.23-1.53-.42-1.88-.59-.35-.17-.61-.4-.79-.69-.18-.29-.27-.62-.27-.97,0-.32.07-.62.22-.9.15-.28.35-.5.61-.69.19-.14.45-.26.78-.36.33-.1.68-.15,1.06-.15.57,0,1.07.08,1.5.25s.75.39.95.67c.21.28.35.66.42,1.12l-1.2.16c-.05-.37-.21-.67-.48-.88-.26-.21-.63-.31-1.11-.31-.57,0-.97.09-1.21.28-.24.19-.36.41-.36.66,0,.16.05.3.15.43.1.13.26.24.47.33.12.05.49.15,1.09.31.87.23,1.48.42,1.82.57.34.15.61.36.81.65.2.28.29.63.29,1.05s-.12.8-.36,1.16c-.24.36-.58.64-1.04.84-.45.2-.96.3-1.53.3-.94,0-1.66-.2-2.16-.59-.49-.39-.81-.97-.95-1.74Z"/>
  </g>
  <text class="cls-1" transform="translate(813.72 78.03)"><tspan class="cls-10" x="0" y="0">T</tspan><tspan x="7.78" y="0">ypical strategical paths</tspan></text>
  <text class="cls-1" transform="translate(813.72 102.94)"><tspan x="0" y="0">Other options</tspan></text>
</svg>