<?xml version="1.0" encoding="UTF-8"?><svg id="maturity" xmlns="http://www.w3.org/2000/svg" viewBox="0 0 988 525"><rect x="413.47" y="280.33" width="177.49" height="40" style="fill:#fff; stroke:#000; stroke-miterlimit:10;"/><text transform="translate(439.98 305.65)" style="font-family:ArialMT, Arial; font-size:14px;"><tspan x="0" y="0">Digital infrastructure</tspan></text><text transform="translate(322.37 381.42)" style="font-family:ArialMT, Arial; font-size:14px;"><tspan x="0" y="0" style="letter-spacing:-.11em;">T</tspan><tspan x="7" y="0">echnical</tspan><tspan x="-5.44" y="16.8">malleability</tspan></text><text transform="translate(455.53 478.34)" style="font-family:ArialMT, Arial; font-size:14px;"><tspan x="0" y="0">Recombination</tspan></text><path d="m635.96,381.42v-10.02h1.36l5.26,7.87v-7.87h1.27v10.02h-1.36l-5.26-7.88v7.88h-1.27Z"/><path d="m650.89,379.09l1.27.16c-.2.74-.57,1.32-1.11,1.73s-1.24.62-2.08.62c-1.06,0-1.9-.33-2.53-.98-.62-.65-.93-1.57-.93-2.75s.31-2.17.94-2.84,1.44-1.01,2.45-1.01,1.76.33,2.38.99.92,1.59.92,2.79c0,.07,0,.18,0,.33h-5.41c.05.8.27,1.41.68,1.83s.91.64,1.52.64c.45,0,.84-.12,1.16-.36s.57-.62.76-1.13Zm-4.04-1.99h4.05c-.05-.61-.21-1.07-.46-1.37-.39-.47-.9-.71-1.52-.71-.57,0-1.04.19-1.42.57-.39.38-.6.88-.64,1.52Z"/><path d="m655.05,381.42l-2.22-7.26h1.27l1.16,4.19.43,1.56c.02-.08.14-.58.38-1.5l1.16-4.25h1.26l1.09,4.21.36,1.39.42-1.4,1.24-4.2h1.2l-2.27,7.26h-1.28l-1.16-4.35-.28-1.24-1.47,5.58h-1.29Z"/><path d="m627.15,396.06l1.22-.19c.07.49.26.86.57,1.12.31.26.75.39,1.31.39s.98-.12,1.26-.35.41-.5.41-.81c0-.28-.12-.5-.36-.66-.17-.11-.59-.25-1.26-.42-.9-.23-1.53-.42-1.88-.59-.35-.17-.61-.4-.79-.69-.18-.29-.27-.62-.27-.97,0-.32.07-.62.22-.9.15-.28.35-.5.61-.69.19-.14.45-.26.78-.36.33-.1.68-.15,1.06-.15.57,0,1.07.08,1.5.25.43.16.75.39.95.67s.35.66.42,1.12l-1.2.16c-.05-.37-.21-.67-.48-.88-.26-.21-.63-.31-1.11-.31-.57,0-.97.09-1.21.28s-.36.41-.36.66c0,.16.05.3.15.43.1.13.26.24.47.33.12.05.49.15,1.09.31.87.23,1.48.42,1.82.57.34.15.61.36.81.65s.29.63.29,1.05-.12.8-.36,1.16c-.24.36-.58.64-1.04.84s-.96.3-1.53.3c-.94,0-1.66-.2-2.16-.59-.49-.39-.81-.97-.95-1.74Z"/><path d="m639.61,395.89l1.27.16c-.2.74-.57,1.32-1.11,1.73s-1.24.62-2.08.62c-1.06,0-1.9-.33-2.53-.98-.62-.65-.93-1.57-.93-2.75s.31-2.17.94-2.84,1.44-1.01,2.45-1.01,1.76.33,2.38.99.92,1.59.92,2.79c0,.07,0,.18,0,.33h-5.41c.05.8.27,1.41.68,1.83s.91.64,1.52.64c.45,0,.84-.12,1.16-.36s.57-.62.76-1.13Zm-4.04-1.99h4.05c-.05-.61-.21-1.07-.46-1.37-.39-.47-.9-.71-1.52-.71-.57,0-1.04.19-1.42.57-.39.38-.6.88-.64,1.52Z"/><path d="m642.42,398.22v-7.26h1.11v1.1c.28-.52.54-.85.78-1.02.24-.16.5-.25.79-.25.42,0,.84.13,1.26.4l-.42,1.14c-.3-.18-.6-.27-.9-.27-.27,0-.51.08-.72.24s-.37.39-.46.67c-.14.44-.21.92-.21,1.44v3.8h-1.23Z"/><path d="m649.11,398.22l-2.76-7.26h1.3l1.56,4.35c.17.47.32.96.46,1.46.11-.38.26-.84.46-1.38l1.61-4.43h1.26l-2.75,7.26h-1.15Z"/><path d="m654.1,389.62v-1.42h1.23v1.42h-1.23Zm0,8.61v-7.26h1.23v7.26h-1.23Z"/><path d="m661.94,395.56l1.21.16c-.13.83-.47,1.49-1.01,1.96-.54.47-1.21.71-2.01.71-.99,0-1.79-.32-2.4-.97-.6-.65-.91-1.58-.91-2.79,0-.78.13-1.47.39-2.06s.66-1.03,1.19-1.32c.53-.29,1.11-.44,1.73-.44.79,0,1.43.2,1.93.6s.82.96.96,1.7l-1.2.18c-.11-.49-.32-.85-.6-1.1-.29-.25-.64-.37-1.05-.37-.62,0-1.12.22-1.51.67s-.58,1.15-.58,2.11.19,1.68.56,2.13.86.66,1.46.66c.48,0,.89-.15,1.21-.44s.53-.75.62-1.37Z"/><path d="m669.17,395.89l1.27.16c-.2.74-.57,1.32-1.11,1.73s-1.24.62-2.08.62c-1.06,0-1.9-.33-2.53-.98-.62-.65-.93-1.57-.93-2.75s.31-2.17.94-2.84,1.44-1.01,2.45-1.01,1.76.33,2.38.99.92,1.59.92,2.79c0,.07,0,.18,0,.33h-5.41c.05.8.27,1.41.68,1.83s.91.64,1.52.64c.45,0,.84-.12,1.16-.36s.57-.62.76-1.13Zm-4.04-1.99h4.05c-.05-.61-.21-1.07-.46-1.37-.39-.47-.9-.71-1.52-.71-.57,0-1.04.19-1.42.57-.39.38-.6.88-.64,1.52Z"/><text transform="translate(447.06 390.42)" style="fill:#0333ff; font-family:Arial-BoldMT, Arial; font-size:18px; font-weight:700;"><tspan x="0" y="0">INNO</tspan><tspan x="45" y="0" style="letter-spacing:-.07em;">VA</tspan><tspan x="67.33" y="0">TION</tspan></text><polyline points="413.47 300.33 351.55 300.33 351.55 349.98" style="fill:none; stroke:#000; stroke-miterlimit:10;"/><polygon points="346.57 348.52 351.55 357.15 356.54 348.52 346.57 348.52"/><polyline points="351.55 413.03 351.55 474.95 401.2 474.95" style="fill:none; stroke:#000; stroke-miterlimit:10;"/><polygon points="399.74 479.94 408.37 474.95 399.74 469.97 399.74 479.94"/><polyline points="586.97 474.95 648.89 474.95 648.89 425.31" style="fill:none; stroke:#000; stroke-miterlimit:10;"/><polygon points="653.88 426.76 648.89 418.13 643.91 426.76 653.88 426.76"/><polyline points="648.89 362.25 648.89 300.33 599.25 300.33" style="fill:none; stroke:#000; stroke-miterlimit:10;"/><polygon points="600.71 295.35 592.07 300.33 600.71 305.32 600.71 295.35"/><rect x="679.86" y="41.8" width="177.49" height="40" style="fill:#fff; stroke:#000; stroke-miterlimit:10;"/><text transform="translate(706.36 67.13)" style="font-family:ArialMT, Arial; font-size:14px;"><tspan x="0" y="0">Digital infrastructure</tspan></text><text transform="translate(591.48 142.9)" style="font-family:ArialMT, Arial; font-size:14px;"><tspan x="0" y="0">Partners</tspan><tspan x="-.78" y="16.8">attracted</tspan></text><text transform="translate(694.67 239.81)" style="font-family:ArialMT, Arial; font-size:14px;"><tspan x="0" y="0">Partner solutions added</tspan></text><path d="m896.14,142.9v-10.02h4.44c.89,0,1.57.09,2.04.27s.84.5,1.11.95.42.96.42,1.51c0,.71-.23,1.31-.69,1.8s-1.17.8-2.13.93c.35.17.62.33.8.5.39.36.75.8,1.1,1.33l1.74,2.73h-1.67l-1.33-2.08c-.39-.6-.71-1.06-.96-1.38s-.48-.54-.67-.67c-.2-.13-.4-.22-.61-.27-.15-.03-.4-.05-.74-.05h-1.54v4.45h-1.33Zm1.33-5.6h2.85c.61,0,1.08-.06,1.42-.19s.6-.33.78-.6.27-.58.27-.9c0-.47-.17-.86-.52-1.17-.34-.31-.89-.46-1.63-.46h-3.17v3.32Z"/><path d="m911.04,140.56l1.27.16c-.2.74-.57,1.32-1.11,1.73s-1.24.62-2.08.62c-1.06,0-1.9-.33-2.53-.98-.62-.65-.93-1.57-.93-2.75s.31-2.17.94-2.84,1.44-1.01,2.45-1.01,1.76.33,2.38.99.92,1.59.92,2.79c0,.07,0,.18,0,.33h-5.41c.05.8.27,1.41.68,1.83s.91.64,1.52.64c.45,0,.84-.12,1.16-.36s.57-.62.76-1.13Zm-4.04-1.99h4.05c-.05-.61-.21-1.07-.46-1.37-.39-.47-.9-.71-1.52-.71-.57,0-1.04.19-1.42.57-.39.38-.6.88-.64,1.52Z"/><path d="m918.6,142c-.46.39-.89.66-1.32.82-.42.16-.87.24-1.36.24-.8,0-1.41-.19-1.84-.58s-.64-.89-.64-1.49c0-.36.08-.68.24-.97.16-.29.37-.53.64-.71.26-.18.56-.31.88-.4.24-.06.61-.13,1.09-.18.99-.12,1.72-.26,2.19-.42,0-.17,0-.28,0-.32,0-.5-.12-.85-.35-1.06-.31-.28-.78-.42-1.4-.42-.58,0-1.01.1-1.28.3-.28.2-.48.56-.61,1.08l-1.2-.16c.11-.52.29-.93.54-1.25s.61-.56,1.09-.73,1.02-.26,1.65-.26,1.12.07,1.51.22.67.33.85.55.31.5.38.84c.04.21.06.59.06,1.13v1.64c0,1.14.03,1.87.08,2.17.05.3.16.59.31.87h-1.29c-.13-.26-.21-.55-.25-.9Zm-.1-2.75c-.45.18-1.12.34-2.01.46-.51.07-.86.15-1.07.25s-.37.22-.49.4-.17.37-.17.58c0,.33.12.6.37.82.25.22.61.33,1.09.33s.9-.1,1.26-.31.64-.49.81-.85c.13-.28.2-.69.2-1.23v-.45Z"/><path d="m926.38,140.24l1.21.16c-.13.83-.47,1.49-1.01,1.96-.54.47-1.21.71-2.01.71-.99,0-1.79-.32-2.4-.97-.6-.65-.91-1.58-.91-2.79,0-.78.13-1.47.39-2.06s.66-1.03,1.19-1.32c.53-.29,1.11-.44,1.73-.44.79,0,1.43.2,1.93.6s.82.96.96,1.7l-1.2.18c-.11-.49-.32-.85-.6-1.1-.29-.25-.64-.37-1.05-.37-.62,0-1.12.22-1.51.67s-.58,1.15-.58,2.11.19,1.68.56,2.13.86.66,1.46.66c.48,0,.89-.15,1.21-.44s.53-.75.62-1.37Z"/><path d="m928.65,142.9v-10.02h1.23v3.6c.57-.67,1.3-1,2.17-1,.54,0,1,.11,1.4.32s.68.5.85.88c.17.37.26.92.26,1.63v4.6h-1.23v-4.6c0-.62-.13-1.06-.4-1.34-.27-.28-.64-.42-1.13-.42-.36,0-.71.09-1.03.28-.32.19-.55.45-.69.77s-.21.77-.21,1.34v3.97h-1.23Z"/><path d="m894.7,157.36l1.27.16c-.2.74-.57,1.32-1.11,1.73s-1.24.62-2.08.62c-1.06,0-1.9-.33-2.53-.98-.62-.65-.93-1.57-.93-2.75s.31-2.17.94-2.84,1.44-1.01,2.45-1.01,1.76.33,2.38.99.92,1.59.92,2.79c0,.07,0,.18,0,.33h-5.41c.05.8.27,1.41.68,1.83s.91.64,1.52.64c.45,0,.84-.12,1.16-.36s.57-.62.76-1.13Zm-4.04-1.99h4.05c-.05-.61-.21-1.07-.46-1.37-.39-.47-.9-.71-1.52-.71-.57,0-1.04.19-1.42.57-.39.38-.6.88-.64,1.52Z"/><path d="m896.7,159.7l2.65-3.77-2.45-3.49h1.54l1.11,1.7c.21.32.38.59.51.81.2-.3.38-.57.55-.8l1.22-1.72h1.47l-2.51,3.42,2.7,3.84h-1.51l-1.49-2.26-.4-.61-1.91,2.86h-1.49Z"/><path d="m904.52,162.48v-10.04h1.12v.94c.26-.37.56-.65.9-.83s.74-.28,1.21-.28c.62,0,1.17.16,1.64.48s.83.77,1.07,1.35.36,1.22.36,1.91c0,.74-.13,1.41-.4,2.01-.27.59-.65,1.05-1.16,1.37-.51.32-1.04.48-1.6.48-.41,0-.78-.09-1.1-.26-.33-.17-.59-.39-.8-.66v3.53h-1.23Zm1.11-6.37c0,.93.19,1.62.57,2.07s.84.67,1.37.67,1.02-.23,1.4-.69c.39-.46.58-1.18.58-2.15s-.19-1.62-.57-2.08c-.38-.46-.83-.69-1.36-.69s-.99.25-1.39.73c-.4.49-.61,1.2-.61,2.14Z"/><path d="m917.04,158.8c-.46.39-.89.66-1.32.82-.42.16-.87.24-1.36.24-.8,0-1.41-.19-1.84-.58s-.64-.89-.64-1.49c0-.36.08-.68.24-.97.16-.29.37-.53.64-.71.26-.18.56-.31.88-.4.24-.06.61-.13,1.09-.18.99-.12,1.72-.26,2.19-.42,0-.17,0-.28,0-.32,0-.5-.12-.85-.35-1.06-.31-.28-.78-.42-1.4-.42-.58,0-1.01.1-1.28.3-.28.2-.48.56-.61,1.08l-1.2-.16c.11-.52.29-.93.54-1.25s.61-.56,1.09-.73,1.02-.26,1.65-.26,1.12.07,1.51.22.67.33.85.55.31.5.38.84c.04.21.06.59.06,1.13v1.64c0,1.14.03,1.87.08,2.17.05.3.16.59.31.87h-1.29c-.13-.26-.21-.55-.25-.9Zm-.1-2.75c-.45.18-1.12.34-2.01.46-.51.07-.86.15-1.07.25s-.37.22-.49.4-.17.37-.17.58c0,.33.12.6.37.82.25.22.61.33,1.09.33s.9-.1,1.26-.31.64-.49.81-.85c.13-.28.2-.69.2-1.23v-.45Z"/><path d="m920.09,159.7v-7.26h1.11v1.03c.53-.8,1.3-1.2,2.31-1.2.44,0,.84.08,1.21.24.37.16.64.36.82.62s.31.56.38.91c.05.23.07.63.07,1.2v4.46h-1.23v-4.42c0-.5-.05-.88-.14-1.12s-.27-.45-.51-.59c-.24-.15-.53-.22-.86-.22-.52,0-.98.17-1.36.5-.38.33-.57.96-.57,1.89v3.96h-1.23Z"/><path d="m932.59,159.7v-.92c-.46.72-1.14,1.08-2.03,1.08-.58,0-1.11-.16-1.6-.48-.48-.32-.86-.76-1.13-1.34-.27-.57-.4-1.23-.4-1.97s.12-1.38.36-1.97.6-1.04,1.09-1.36,1.02-.47,1.62-.47c.44,0,.83.09,1.17.28s.62.42.83.72v-3.6h1.22v10.02h-1.14Zm-3.89-3.62c0,.93.2,1.62.59,2.08s.85.69,1.39.69.99-.22,1.37-.66c.38-.44.56-1.11.56-2.01,0-.99-.19-1.72-.57-2.19s-.85-.7-1.42-.7-1,.22-1.37.67c-.37.45-.55,1.15-.55,2.11Z"/><path d="m935.17,157.53l1.22-.19c.07.49.26.86.57,1.12.31.26.75.39,1.31.39s.98-.12,1.26-.35.41-.5.41-.81c0-.28-.12-.5-.36-.66-.17-.11-.59-.25-1.26-.42-.9-.23-1.53-.42-1.88-.59-.35-.17-.61-.4-.79-.69-.18-.29-.27-.62-.27-.97,0-.32.07-.62.22-.9.15-.28.35-.5.61-.69.19-.14.45-.26.78-.36.33-.1.68-.15,1.06-.15.57,0,1.07.08,1.5.25.43.16.75.39.95.67s.35.66.42,1.12l-1.2.16c-.05-.37-.21-.67-.48-.88-.26-.21-.63-.31-1.11-.31-.57,0-.97.09-1.21.28s-.36.41-.36.66c0,.16.05.3.15.43.1.13.26.24.47.33.12.05.49.15,1.09.31.87.23,1.48.42,1.82.57.34.15.61.36.81.65s.29.63.29,1.05-.12.8-.36,1.16c-.24.36-.58.64-1.04.84s-.96.3-1.53.3c-.94,0-1.66-.2-2.16-.59-.49-.39-.81-.97-.95-1.74Z"/><text transform="translate(713.44 151.89)" style="fill:#0333ff; font-family:Arial-BoldMT, Arial; font-size:18px; font-weight:700;"><tspan x="0" y="0">INNO</tspan><tspan x="45" y="0" style="letter-spacing:-.07em;">VA</tspan><tspan x="67.33" y="0">TION</tspan></text><polyline points="679.86 61.8 617.94 61.8 617.94 111.45" style="fill:none; stroke:#000; stroke-miterlimit:10;"/><polygon points="612.95 109.99 617.94 118.63 622.92 109.99 612.95 109.99"/><polyline points="617.94 174.5 617.94 236.42 667.58 236.42" style="fill:none; stroke:#000; stroke-miterlimit:10;"/><polygon points="666.12 241.41 674.76 236.42 666.12 231.44 666.12 241.41"/><polyline points="853.35 236.42 915.28 236.42 915.28 186.78" style="fill:none; stroke:#000; stroke-miterlimit:10;"/><polygon points="920.26 188.24 915.28 179.6 910.29 188.24 920.26 188.24"/><polyline points="915.28 123.73 915.28 61.8 865.63 61.8" style="fill:none; stroke:#000; stroke-miterlimit:10;"/><polygon points="867.09 56.82 858.45 61.8 867.09 66.79 867.09 56.82"/><rect x="146.88" y="41.49" width="177.49" height="40" style="fill:#fff; stroke:#000; stroke-miterlimit:10;"/><text transform="translate(173.38 66.81)" style="font-family:ArialMT, Arial; font-size:14px;"><tspan x="0" y="0">Digital infrastructure</tspan></text><text transform="translate(41.39 142.58)" style="font-family:ArialMT, Arial; font-size:14px;"><tspan x="0" y="0">More services</tspan><tspan x="21.9" y="16.8">o</tspan><tspan x="29.68" y="16.8" style="letter-spacing:-.02em;">f</tspan><tspan x="33.32" y="16.8">fered</tspan></text><text transform="translate(181.15 239.49)" style="font-family:ArialMT, Arial; font-size:14px;"><tspan x="0" y="0">More users adopt</tspan></text><text transform="translate(338.73 142.58)" style="font-family:ArialMT, Arial; font-size:14px;"><tspan x="0" y="0">More services</tspan><tspan x="17.49" y="16.8">invested</tspan></text><text transform="translate(188.12 151.58)" style="fill:#0333ff; font-family:Arial-BoldMT, Arial; font-size:18px; font-weight:700;"><tspan x="0" y="0">ADOPTION</tspan></text><polyline points="146.88 61.49 84.96 61.49 84.96 111.14" style="fill:none; stroke:#000; stroke-miterlimit:10;"/><polygon points="79.97 109.68 84.96 118.31 89.94 109.68 79.97 109.68"/><polyline points="84.96 174.19 84.96 236.11 134.6 236.11" style="fill:none; stroke:#000; stroke-miterlimit:10;"/><polygon points="133.14 241.1 141.78 236.11 133.14 231.12 133.14 241.1"/><polyline points="320.37 236.11 382.3 236.11 382.3 186.46" style="fill:none; stroke:#000; stroke-miterlimit:10;"/><polygon points="387.28 187.92 382.3 179.29 377.31 187.92 387.28 187.92"/><polyline points="382.3 123.41 382.3 61.49 332.65 61.49" style="fill:none; stroke:#000; stroke-miterlimit:10;"/><polygon points="334.11 56.5 325.47 61.49 334.11 66.48 334.11 56.5"/></svg>