<?xml version="1.0" encoding="UTF-8"?>
<svg id="Ebene_1" data-name="Ebene 1" xmlns="http://www.w3.org/2000/svg" viewBox="0 0 988 525">
  <defs>
    <style>
      .cls-1 {
        fill: #fff;
      }

      .cls-1, .cls-2, .cls-3, .cls-4, .cls-5, .cls-6 {
        stroke-miterlimit: 10;
      }

      .cls-1, .cls-5 {
        stroke: #1d1d1b;
      }

      .cls-7, .cls-8, .cls-9, .cls-10 {
        font-size: 14.4px;
      }

      .cls-7, .cls-11, .cls-9, .cls-12 {
        fill: #000;
      }

      .cls-7, .cls-9, .cls-12 {
        font-family: ArialMT, Arial;
      }

      .cls-7, .cls-10 {
        letter-spacing: .03em;
      }

      .cls-13 {
        letter-spacing: 0em;
      }

      .cls-2 {
        fill-rule: evenodd;
      }

      .cls-2, .cls-3, .cls-4, .cls-6 {
        fill: none;
      }

      .cls-2, .cls-6 {
        stroke: #000;
      }

      .cls-14 {
        letter-spacing: 0em;
      }

      .cls-15 {
        letter-spacing: 0em;
      }

      .cls-3 {
        stroke: #0333ff;
        stroke-width: 2px;
      }

      .cls-4 {
        stroke: #fff;
      }

      .cls-16, .cls-11 {
        stroke-width: 0px;
      }

      .cls-16, .cls-10 {
        fill: #0333ff;
      }

      .cls-5 {
        fill: #868686;
      }

      .cls-17 {
        letter-spacing: 0em;
      }

      .cls-18 {
        letter-spacing: .03em;
      }

      .cls-19 {
        font-size: 19.2px;
      }

      .cls-9 {
        letter-spacing: .03em;
      }

      .cls-10 {
        font-family: Arial-BoldMT, Arial;
        font-weight: 700;
      }

      .cls-20 {
        letter-spacing: 0em;
      }

      .cls-21 {
        letter-spacing: .02em;
      }

      .cls-22 {
        letter-spacing: 0em;
      }

      .cls-23 {
        letter-spacing: -.04em;
      }

      .cls-24 {
        letter-spacing: 0em;
      }

      .cls-25 {
        letter-spacing: 0em;
      }

      .cls-26 {
        letter-spacing: 0em;
      }
    </style>
  </defs>
  <g>
    <ellipse class="cls-11" cx="97.61" cy="44.89" rx="6" ry="5.95"/>
    <g>
      <text class="cls-12" transform="translate(53.36 379.38)"><tspan class="cls-19"><tspan x="0" y="0">Centr</tspan><tspan class="cls-25" x="46.95" y="0">a</tspan><tspan x="57.65" y="0">l</tspan><tspan class="cls-22" x="61.91" y="0">i</tspan><tspan class="cls-13" x="66.24" y="0">z</tspan><tspan class="cls-15" x="75.84" y="0">e</tspan><tspan class="cls-13" x="86.55" y="0">d</tspan><tspan class="cls-20" x="97.23" y="0"> </tspan><tspan class="cls-13" x="102.41" y="0">net</tspan><tspan class="cls-21" x="129.1" y="0">w</tspan><tspan x="143.35" y="0">ork</tspan></tspan><tspan class="cls-8"><tspan class="cls-14" x="-22.54" y="19.68">(</tspan><tspan class="cls-24" x="-17.71" y="19.68">e.</tspan><tspan class="cls-17" x="-5.7" y="19.68">g</tspan><tspan class="cls-26" x="2.45" y="19.68">.,</tspan><tspan class="cls-23" x="10.31" y="19.68"> </tspan><tspan class="cls-18" x="13.76" y="19.68">Client-server-architecture)</tspan></tspan></text>
      <polyline class="cls-2" points="154.06 56.4 138.37 164.85 200.66 82.04"/>
      <polyline class="cls-2" points="97.6 44.89 138.37 164.85 70.19 95.49"/>
      <polyline class="cls-2" points="104.28 213.29 138.37 164.85 126.68 236.69"/>
      <polyline class="cls-2" points="97.6 148.5 138.37 164.85 58.68 183.03"/>
      <polyline class="cls-2" points="207.24 148.5 138.37 164.85 177.09 187.62"/>
      <polyline class="cls-2" points="200.66 267.45 138.37 164.85 166.12 297.6"/>
      <ellipse class="cls-16" cx="138.37" cy="164.85" rx="13.2" ry="13.09"/>
      <ellipse class="cls-11" cx="154.24" cy="56.4" rx="6" ry="5.95"/>
      <ellipse class="cls-11" cx="200.66" cy="81.95" rx="6" ry="5.95"/>
      <ellipse class="cls-11" cx="207.24" cy="148.5" rx="6" ry="5.95"/>
      <ellipse class="cls-11" cx="177.02" cy="187.62" rx="6" ry="5.95"/>
      <ellipse class="cls-11" cx="200.66" cy="267.37" rx="6" ry="5.95"/>
      <ellipse class="cls-11" cx="166.2" cy="297.6" rx="6" ry="5.95"/>
      <ellipse class="cls-11" cx="126.66" cy="237.17" rx="6" ry="5.95"/>
      <ellipse class="cls-11" cx="104.28" cy="213.34" rx="6" ry="5.95"/>
      <ellipse class="cls-11" cx="58.68" cy="183.03" rx="6" ry="5.95"/>
      <ellipse class="cls-11" cx="97.52" cy="148.5" rx="6" ry="5.95"/>
      <ellipse class="cls-11" cx="70.19" cy="95.6" rx="6" ry="5.95"/>
    </g>
  </g>
  <g>
    <ellipse class="cls-11" cx="428.55" cy="188.98" rx="6" ry="5.95"/>
    <ellipse class="cls-11" cx="434.08" cy="151.76" rx="6" ry="5.95"/>
    <ellipse class="cls-11" cx="442.03" cy="44.89" rx="6" ry="5.95"/>
    <ellipse class="cls-11" cx="399.87" cy="56.4" rx="6" ry="5.95"/>
    <ellipse class="cls-11" cx="363.86" cy="52.85" rx="6" ry="5.95"/>
    <ellipse class="cls-11" cx="378.89" cy="115.19" rx="6" ry="5.95"/>
    <ellipse class="cls-11" cx="312.11" cy="99.3" rx="6" ry="5.95"/>
    <ellipse class="cls-11" cx="340.67" cy="132.33" rx="6" ry="5.95"/>
    <ellipse class="cls-11" cx="322.04" cy="142.55" rx="6" ry="5.95"/>
    <ellipse class="cls-11" cx="324.93" cy="185.36" rx="6" ry="5.95"/>
    <ellipse class="cls-11" cx="312.11" cy="222.09" rx="6" ry="5.95"/>
    <ellipse class="cls-11" cx="312.11" cy="291.65" rx="6" ry="5.95"/>
    <ellipse class="cls-11" cx="376.17" cy="294.45" rx="6" ry="5.95"/>
    <ellipse class="cls-11" cx="388.49" cy="236.69" rx="6" ry="5.95"/>
    <ellipse class="cls-11" cx="429.4" cy="224.79" rx="6" ry="5.95"/>
    <ellipse class="cls-11" cx="442.03" cy="279.85" rx="6" ry="5.95"/>
    <ellipse class="cls-11" cx="302.78" cy="58.79" rx="6" ry="5.95"/>
    <g>
      <path class="cls-11" d="M343.51,356.35v-13.74h5.18c.91,0,1.61.04,2.09.13.67.11,1.24.33,1.7.64.46.32.82.76,1.1,1.33.28.57.42,1.19.42,1.88,0,1.17-.37,2.16-1.12,2.97s-2.09,1.21-4.03,1.21h-3.53v5.59h-1.82ZM345.33,349.14h3.55c1.17,0,2.01-.22,2.5-.66s.74-1.05.74-1.85c0-.57-.14-1.07-.44-1.48-.29-.41-.67-.68-1.15-.81-.31-.08-.87-.12-1.7-.12h-3.52v4.91Z"/>
      <path class="cls-11" d="M362.6,355.13c-.62.53-1.23.91-1.8,1.12-.58.22-1.2.33-1.86.33-1.09,0-1.93-.27-2.52-.8-.59-.54-.88-1.22-.88-2.05,0-.49.11-.93.33-1.34s.51-.73.87-.97c.36-.24.76-.43,1.21-.55.33-.09.83-.17,1.5-.25,1.36-.16,2.37-.36,3.01-.58,0-.23,0-.38,0-.44,0-.69-.16-1.17-.48-1.45-.43-.38-1.07-.57-1.92-.57-.79,0-1.38.14-1.76.42-.38.28-.66.77-.84,1.48l-1.65-.22c.15-.71.4-1.28.74-1.71.34-.43.84-.77,1.49-1,.65-.23,1.4-.35,2.26-.35s1.54.1,2.07.3c.53.2.92.45,1.17.75.25.3.42.69.52,1.15.06.29.08.81.08,1.56v2.25c0,1.57.04,2.56.11,2.98.07.42.21.81.43,1.2h-1.76c-.17-.35-.29-.76-.34-1.23ZM362.46,351.36c-.61.25-1.53.46-2.76.64-.69.1-1.18.21-1.47.34s-.51.31-.67.55c-.16.24-.23.51-.23.8,0,.45.17.83.51,1.12.34.3.84.45,1.5.45s1.23-.14,1.73-.43c.51-.28.88-.67,1.12-1.17.18-.38.27-.94.27-1.69v-.62Z"/>
      <path class="cls-11" d="M366.76,356.35v-9.96h1.52v1.51c.39-.71.75-1.17,1.07-1.4s.69-.34,1.08-.34c.57,0,1.15.18,1.73.54l-.58,1.57c-.41-.24-.83-.37-1.24-.37-.37,0-.7.11-.99.33s-.5.53-.63.92c-.19.6-.28,1.26-.28,1.97v5.21h-1.69Z"/>
      <path class="cls-11" d="M376.86,354.84l.24,1.49c-.48.1-.9.15-1.28.15-.61,0-1.09-.1-1.42-.29-.34-.19-.58-.45-.71-.76-.14-.32-.21-.98-.21-1.99v-5.73h-1.24v-1.31h1.24v-2.47l1.68-1.01v3.48h1.7v1.31h-1.7v5.82c0,.48.03.79.09.93.06.14.16.25.29.33.13.08.33.12.58.12.19,0,.43-.02.74-.07Z"/>
      <path class="cls-11" d="M378.52,344.55v-1.94h1.69v1.94h-1.69ZM378.52,356.35v-9.96h1.69v9.96h-1.69Z"/>
      <path class="cls-11" d="M389.27,355.13c-.62.53-1.23.91-1.8,1.12-.58.22-1.2.33-1.86.33-1.09,0-1.93-.27-2.52-.8-.59-.54-.88-1.22-.88-2.05,0-.49.11-.93.33-1.34s.51-.73.87-.97c.36-.24.76-.43,1.21-.55.33-.09.83-.17,1.5-.25,1.36-.16,2.37-.36,3.01-.58,0-.23,0-.38,0-.44,0-.69-.16-1.17-.48-1.45-.43-.38-1.07-.57-1.92-.57-.79,0-1.38.14-1.76.42-.38.28-.66.77-.84,1.48l-1.65-.22c.15-.71.4-1.28.74-1.71.34-.43.84-.77,1.49-1,.65-.23,1.4-.35,2.26-.35s1.54.1,2.07.3c.53.2.92.45,1.17.75.25.3.42.69.52,1.15.06.29.08.81.08,1.56v2.25c0,1.57.04,2.56.11,2.98.07.42.21.81.43,1.2h-1.76c-.17-.35-.29-.76-.34-1.23ZM389.13,351.36c-.61.25-1.53.46-2.76.64-.69.1-1.18.21-1.47.34s-.51.31-.67.55c-.16.24-.23.51-.23.8,0,.45.17.83.51,1.12.34.3.84.45,1.5.45s1.23-.14,1.73-.43c.51-.28.88-.67,1.12-1.17.18-.38.27-.94.27-1.69v-.62Z"/>
      <path class="cls-11" d="M393.42,356.35v-13.74h1.69v13.74h-1.69Z"/>
      <path class="cls-11" d="M397.68,356.35v-13.74h1.69v13.74h-1.69Z"/>
      <path class="cls-11" d="M401.91,360.19l-.19-1.58c.37.1.69.15.97.15.38,0,.67-.06.9-.19.22-.12.41-.3.55-.53.11-.17.28-.59.52-1.26.03-.09.08-.23.15-.41l-3.78-9.97h1.82l2.07,5.77c.27.73.51,1.5.72,2.31.19-.77.42-1.53.69-2.27l2.13-5.8h1.69l-3.79,10.12c-.41,1.09-.72,1.85-.95,2.26-.3.56-.64.96-1.03,1.22-.39.26-.85.39-1.39.39-.33,0-.69-.07-1.09-.21Z"/>
      <path class="cls-11" d="M290.51,379.39v-1.26c-.63.99-1.56,1.48-2.78,1.48-.79,0-1.52-.22-2.19-.66-.67-.44-1.18-1.05-1.55-1.83-.37-.79-.55-1.69-.55-2.71s.17-1.9.5-2.71c.33-.81.83-1.43,1.49-1.86.66-.43,1.4-.65,2.22-.65.6,0,1.13.13,1.6.38s.85.58,1.14.99v-4.93h1.68v13.74h-1.57ZM285.18,374.42c0,1.28.27,2.23.81,2.86.54.63,1.17.95,1.9.95s1.36-.3,1.88-.91c.52-.6.77-1.52.77-2.76,0-1.36-.26-2.36-.79-3-.53-.64-1.17-.96-1.94-.96s-1.38.31-1.88.92c-.5.61-.75,1.58-.75,2.9Z"/>
      <path class="cls-11" d="M301.55,376.19l1.74.22c-.28,1.02-.78,1.81-1.53,2.37-.74.56-1.69.84-2.85.84-1.46,0-2.61-.45-3.46-1.34-.85-.9-1.28-2.16-1.28-3.77s.43-2.98,1.29-3.9,1.98-1.39,3.36-1.39,2.42.45,3.26,1.36,1.27,2.18,1.27,3.83c0,.1,0,.25,0,.45h-7.42c.06,1.09.37,1.93.93,2.51.56.58,1.25.87,2.08.87.62,0,1.15-.16,1.58-.49.44-.32.78-.84,1.04-1.56ZM296.01,373.46h5.56c-.08-.84-.29-1.47-.64-1.88-.54-.65-1.23-.98-2.09-.98-.78,0-1.43.26-1.96.78-.53.52-.82,1.21-.88,2.08Z"/>
      <path class="cls-11" d="M311.91,375.75l1.66.21c-.18,1.14-.65,2.04-1.39,2.69-.75.65-1.66.97-2.75.97-1.36,0-2.46-.45-3.29-1.34s-1.24-2.17-1.24-3.83c0-1.08.18-2.02.53-2.82.36-.81.9-1.41,1.63-1.81.73-.4,1.52-.61,2.38-.61,1.08,0,1.97.27,2.65.82s1.13,1.32,1.32,2.33l-1.64.25c-.16-.67-.43-1.17-.83-1.51-.4-.34-.88-.51-1.44-.51-.85,0-1.54.3-2.07.91s-.8,1.57-.8,2.89.26,2.31.77,2.92c.51.61,1.18.91,2.01.91.66,0,1.22-.2,1.66-.61.44-.41.72-1.03.84-1.88Z"/>
      <path class="cls-11" d="M321.83,376.19l1.74.22c-.28,1.02-.79,1.81-1.53,2.37-.74.56-1.69.84-2.85.84-1.46,0-2.61-.45-3.46-1.34-.85-.9-1.28-2.16-1.28-3.77s.43-2.98,1.29-3.9c.86-.92,1.98-1.39,3.36-1.39s2.42.45,3.26,1.36,1.27,2.18,1.27,3.83c0,.1,0,.25,0,.45h-7.43c.06,1.09.37,1.93.93,2.51.56.58,1.25.87,2.08.87.62,0,1.15-.16,1.58-.49.44-.32.78-.84,1.04-1.56ZM316.29,373.46h5.56c-.08-.84-.29-1.47-.64-1.88-.54-.65-1.23-.98-2.09-.98-.78,0-1.43.26-1.96.78s-.82,1.21-.88,2.08Z"/>
      <path class="cls-11" d="M325.69,379.39v-9.96h1.52v1.42c.73-1.09,1.79-1.64,3.17-1.64.6,0,1.15.11,1.66.32.5.21.88.5,1.13.85.25.35.43.77.53,1.25.06.31.09.86.09,1.64v6.12h-1.69v-6.06c0-.69-.07-1.2-.2-1.54-.13-.34-.36-.61-.7-.82-.33-.2-.73-.3-1.18-.3-.72,0-1.34.23-1.86.68-.52.46-.78,1.32-.78,2.6v5.44h-1.69Z"/>
      <path class="cls-11" d="M340.05,377.88l.24,1.49c-.47.1-.9.15-1.27.15-.61,0-1.09-.1-1.43-.29-.34-.19-.58-.45-.71-.76-.14-.32-.21-.98-.21-1.99v-5.73h-1.24v-1.31h1.24v-2.47l1.68-1.01v3.48h1.7v1.31h-1.7v5.82c0,.48.03.79.09.93s.16.25.29.33c.13.08.33.12.58.12.19,0,.43-.02.74-.07Z"/>
      <path class="cls-11" d="M341.68,379.39v-9.96h1.52v1.51c.39-.71.75-1.17,1.07-1.4s.69-.34,1.08-.34c.57,0,1.15.18,1.73.54l-.58,1.57c-.41-.24-.83-.37-1.24-.37-.37,0-.7.11-.99.33s-.5.53-.63.92c-.19.6-.28,1.26-.28,1.97v5.21h-1.69Z"/>
      <path class="cls-11" d="M354.59,378.17c-.62.53-1.23.91-1.8,1.12s-1.2.33-1.86.33c-1.09,0-1.93-.27-2.52-.8-.59-.54-.88-1.22-.88-2.05,0-.49.11-.93.33-1.34.22-.4.51-.73.87-.97.36-.24.76-.43,1.21-.55.33-.09.83-.17,1.5-.25,1.36-.16,2.37-.36,3.01-.58,0-.23,0-.38,0-.44,0-.69-.16-1.17-.48-1.45-.43-.38-1.07-.57-1.92-.57-.79,0-1.38.14-1.76.42s-.66.77-.84,1.48l-1.65-.22c.15-.71.4-1.28.74-1.71.34-.43.84-.77,1.49-1s1.4-.35,2.26-.35,1.54.1,2.07.3c.53.2.92.45,1.17.75.25.3.42.69.53,1.15.06.29.08.81.08,1.56v2.25c0,1.57.04,2.56.11,2.98.07.42.21.81.43,1.2h-1.76c-.18-.35-.29-.76-.34-1.23ZM354.45,374.4c-.61.25-1.53.46-2.76.64-.69.1-1.18.21-1.47.34-.29.12-.51.31-.67.55-.16.24-.23.51-.23.8,0,.45.17.83.51,1.12s.84.45,1.5.45,1.23-.14,1.73-.43c.51-.28.88-.67,1.12-1.17.18-.38.27-.94.27-1.69v-.62Z"/>
      <path class="cls-11" d="M358.74,379.39v-13.74h1.69v13.74h-1.69Z"/>
      <path class="cls-11" d="M363.05,367.59v-1.94h1.69v1.94h-1.69ZM363.05,379.39v-9.96h1.69v9.96h-1.69Z"/>
      <path class="cls-11" d="M366.42,379.39v-1.37l6.34-7.27c-.72.04-1.35.06-1.9.06h-4.06v-1.37h8.14v1.12l-5.39,6.32-1.04,1.15c.76-.06,1.47-.08,2.13-.08h4.6v1.45h-8.81Z"/>
      <path class="cls-11" d="M383.72,376.19l1.74.22c-.28,1.02-.78,1.81-1.53,2.37-.74.56-1.69.84-2.85.84-1.46,0-2.61-.45-3.46-1.34-.85-.9-1.28-2.16-1.28-3.77s.43-2.98,1.29-3.9,1.98-1.39,3.36-1.39,2.42.45,3.26,1.36,1.27,2.18,1.27,3.83c0,.1,0,.25,0,.45h-7.42c.06,1.09.37,1.93.93,2.51.56.58,1.25.87,2.08.87.62,0,1.15-.16,1.58-.49.44-.32.78-.84,1.04-1.56ZM378.18,373.46h5.56c-.08-.84-.29-1.47-.64-1.88-.54-.65-1.23-.98-2.09-.98-.78,0-1.43.26-1.96.78-.53.52-.82,1.21-.88,2.08Z"/>
      <path class="cls-11" d="M394.04,379.39v-1.26c-.63.99-1.56,1.48-2.79,1.48-.79,0-1.52-.22-2.19-.66-.67-.44-1.18-1.05-1.55-1.83-.37-.79-.55-1.69-.55-2.71s.17-1.9.5-2.71c.33-.81.83-1.43,1.49-1.86.66-.43,1.4-.65,2.22-.65.6,0,1.13.13,1.6.38s.85.58,1.14.99v-4.93h1.68v13.74h-1.57ZM388.71,374.42c0,1.28.27,2.23.81,2.86.54.63,1.17.95,1.9.95s1.36-.3,1.88-.91c.52-.6.77-1.52.77-2.76,0-1.36-.26-2.36-.79-3s-1.17-.96-1.94-.96-1.38.31-1.88.92c-.5.61-.75,1.58-.75,2.9Z"/>
      <path class="cls-11" d="M403.6,379.39v-9.96h1.52v1.42c.73-1.09,1.79-1.64,3.17-1.64.6,0,1.15.11,1.66.32.5.21.88.5,1.13.85.25.35.43.77.53,1.25.06.31.09.86.09,1.64v6.12h-1.69v-6.06c0-.69-.07-1.2-.2-1.54-.13-.34-.36-.61-.7-.82-.33-.2-.73-.3-1.18-.3-.72,0-1.34.23-1.86.68-.52.46-.78,1.32-.78,2.6v5.44h-1.69Z"/>
      <path class="cls-11" d="M421.09,376.19l1.74.22c-.28,1.02-.79,1.81-1.53,2.37-.74.56-1.69.84-2.85.84-1.46,0-2.61-.45-3.46-1.34-.85-.9-1.28-2.16-1.28-3.77s.43-2.98,1.29-3.9c.86-.92,1.98-1.39,3.36-1.39s2.42.45,3.26,1.36,1.27,2.18,1.27,3.83c0,.1,0,.25,0,.45h-7.43c.06,1.09.37,1.93.93,2.51.56.58,1.25.87,2.08.87.62,0,1.15-.16,1.58-.49.44-.32.78-.84,1.04-1.56ZM415.55,373.46h5.56c-.08-.84-.29-1.47-.64-1.88-.54-.65-1.23-.98-2.09-.98-.78,0-1.43.26-1.96.78s-.82,1.21-.88,2.08Z"/>
      <path class="cls-11" d="M428.64,377.88l.24,1.49c-.47.1-.9.15-1.27.15-.61,0-1.09-.1-1.43-.29-.34-.19-.58-.45-.71-.76-.14-.32-.21-.98-.21-1.99v-5.73h-1.24v-1.31h1.24v-2.47l1.68-1.01v3.48h1.7v1.31h-1.7v5.82c0,.48.03.79.09.93s.16.25.29.33c.13.08.33.12.58.12.19,0,.43-.02.74-.07Z"/>
      <path class="cls-11" d="M432.12,379.39l-3.05-9.96h1.74l1.58,5.75.59,2.14c.02-.11.2-.79.52-2.05l1.58-5.83h1.73l1.49,5.77.5,1.9.57-1.92,1.71-5.76h1.64l-3.11,9.96h-1.75l-1.58-5.96-.38-1.7-2.02,7.66h-1.76Z"/>
      <path class="cls-11" d="M443.52,374.42c0-1.84.51-3.21,1.54-4.1.86-.74,1.9-1.11,3.13-1.11,1.37,0,2.49.45,3.36,1.35.87.9,1.3,2.14,1.3,3.72,0,1.28-.19,2.29-.58,3.02-.38.73-.94,1.3-1.68,1.71s-1.54.61-2.41.61c-1.39,0-2.52-.45-3.38-1.34-.86-.89-1.29-2.18-1.29-3.86ZM445.26,374.42c0,1.28.28,2.23.83,2.86.56.63,1.26.95,2.1.95s1.53-.32,2.09-.96c.56-.64.83-1.61.83-2.92,0-1.23-.28-2.16-.84-2.8-.56-.63-1.25-.95-2.09-.95s-1.54.32-2.1.95c-.56.63-.83,1.58-.83,2.86Z"/>
      <path class="cls-11" d="M454.81,379.39v-9.96h1.52v1.51c.39-.71.75-1.17,1.07-1.4s.69-.34,1.08-.34c.57,0,1.15.18,1.73.54l-.58,1.57c-.41-.24-.83-.37-1.24-.37-.37,0-.7.11-.99.33s-.5.53-.63.92c-.19.6-.28,1.26-.28,1.97v5.21h-1.69Z"/>
      <path class="cls-11" d="M461.23,379.39v-13.74h1.69v7.84l3.99-4.05h2.18l-3.81,3.69,4.19,6.26h-2.08l-3.29-5.09-1.19,1.14v3.95h-1.69Z"/>
      <path class="cls-11" d="M340.76,402.1c-.7-.88-1.29-1.91-1.77-3.09-.48-1.18-.72-2.4-.72-3.67,0-1.12.18-2.18.54-3.21.42-1.19,1.07-2.37,1.96-3.54h.91c-.57.97-.94,1.67-1.12,2.09-.29.65-.51,1.32-.67,2.03-.2.88-.3,1.76-.3,2.64,0,2.25.7,4.51,2.1,6.76h-.91Z"/>
      <path class="cls-11" d="M348.73,396.67l1.31.16c-.21.76-.59,1.36-1.15,1.78s-1.27.63-2.14.63c-1.09,0-1.96-.34-2.6-1.01-.64-.67-.96-1.62-.96-2.83s.32-2.23.97-2.93c.65-.69,1.49-1.04,2.52-1.04s1.81.34,2.45,1.02.95,1.64.95,2.87c0,.08,0,.19,0,.34h-5.57c.05.82.28,1.45.7,1.88.42.44.94.65,1.56.65.46,0,.86-.12,1.19-.37.33-.24.59-.63.78-1.17ZM344.57,394.62h4.17c-.06-.63-.22-1.1-.48-1.41-.4-.49-.93-.73-1.57-.73-.58,0-1.07.2-1.47.58-.4.39-.62.91-.66,1.56Z"/>
      <path class="cls-11" d="M352.46,399.07v-1.44h1.44v1.44h-1.44Z"/>
      <path class="cls-11" d="M356.34,399.69l1.23.18c.05.38.19.66.43.83.31.23.74.35,1.29.35.59,0,1.04-.12,1.36-.35s.53-.56.65-.98c.07-.26.1-.8.09-1.62-.55.65-1.24.98-2.07.98-1.03,0-1.82-.37-2.38-1.11-.56-.74-.84-1.63-.84-2.66,0-.71.13-1.37.39-1.97s.63-1.07,1.12-1.4c.49-.33,1.07-.49,1.73-.49.88,0,1.61.36,2.18,1.07v-.9h1.17v6.45c0,1.16-.12,1.99-.36,2.47s-.61.87-1.12,1.15-1.14.42-1.89.42c-.89,0-1.61-.2-2.16-.6-.55-.4-.81-1-.79-1.81ZM357.39,395.21c0,.98.2,1.69.58,2.14s.88.67,1.46.67,1.07-.22,1.46-.67c.39-.45.59-1.15.59-2.11s-.2-1.6-.61-2.07c-.41-.46-.89-.7-1.47-.7s-1.04.23-1.43.69-.59,1.13-.59,2.04Z"/>
      <path class="cls-11" d="M365.42,399.07v-1.44h1.44v1.44h-1.44Z"/>
      <path class="cls-11" d="M369.86,399.07v-1.44h1.44v1.44c0,.53-.09.96-.28,1.28s-.49.58-.89.76l-.35-.54c.27-.12.46-.29.59-.52.13-.23.2-.55.21-.98h-.72Z"/>
      <path class="cls-11" d="M386,395.46l1.36.34c-.29,1.12-.8,1.97-1.54,2.56-.74.59-1.65.88-2.72.88s-2.01-.23-2.71-.68c-.7-.45-1.23-1.11-1.59-1.96-.36-.86-.54-1.78-.54-2.76,0-1.07.21-2.01.62-2.81.41-.8.99-1.41,1.75-1.82s1.59-.62,2.5-.62c1.03,0,1.9.26,2.6.79.7.53,1.19,1.26,1.47,2.21l-1.34.32c-.24-.75-.59-1.3-1.04-1.64-.46-.34-1.03-.51-1.72-.51-.79,0-1.46.19-1.99.57-.53.38-.91.89-1.12,1.53-.21.64-.32,1.3-.32,1.98,0,.88.13,1.64.38,2.3.25.65.65,1.14,1.19,1.47s1.12.49,1.75.49c.76,0,1.41-.22,1.94-.66.53-.44.89-1.09,1.08-1.96Z"/>
      <path class="cls-11" d="M389.52,399.07v-10.31h3.55c.8,0,1.41.05,1.83.15.59.14,1.09.38,1.51.74.54.46.95,1.05,1.22,1.76s.4,1.53.4,2.45c0,.78-.09,1.48-.27,2.08-.18.6-.42,1.11-.7,1.5-.29.4-.6.71-.94.94s-.75.4-1.23.52-1.03.18-1.66.18h-3.72ZM390.89,397.86h2.2c.68,0,1.21-.06,1.6-.19s.7-.3.92-.53c.32-.32.58-.76.76-1.3s.27-1.21.27-1.99c0-1.08-.18-1.91-.53-2.49-.35-.58-.78-.97-1.29-1.16-.37-.14-.95-.21-1.76-.21h-2.17v7.88Z"/>
      <path class="cls-11" d="M400.38,399.07v-10.31h1.4l5.41,8.09v-8.09h1.31v10.31h-1.4l-5.41-8.1v8.1h-1.31Z"/>
      <path class="cls-11" d="M411.94,402.1h-.91c1.4-2.25,2.1-4.5,2.1-6.76,0-.88-.1-1.76-.3-2.62-.16-.7-.38-1.38-.67-2.02-.18-.42-.56-1.12-1.13-2.11h.91c.88,1.18,1.53,2.36,1.96,3.54.36,1.02.54,2.09.54,3.21,0,1.27-.24,2.49-.73,3.67-.49,1.18-1.07,2.21-1.77,3.09Z"/>
    </g>
    <polyline class="cls-2" points="399.27 56.4 428.55 86.28 376.17 177.08 427.31 188.98"/>
    <polyline class="cls-2" points="442.03 44.89 428.55 86.28 442.03 110.63"/>
    <polyline class="cls-2" points="432.84 151.76 376.17 177.08 324.93 265.26 403.19 265.26 429.59 224.47"/>
    <polyline class="cls-2" points="376.17 294.45 403.19 265.26 442.03 279.85"/>
    <line class="cls-6" x1="388.49" y1="236.69" x2="403.19" y2="265.26"/>
    <polyline class="cls-2" points="312.11 222.09 324.93 265.26 312.11 291.65"/>
    <polyline class="cls-2" points="324.93 185.36 376.17 177.08 322.04 142.55"/>
    <polyline class="cls-2" points="302.78 58.73 349.98 85.04 376.17 177.08 340.67 132.45"/>
    <polyline class="cls-2" points="363.86 52.85 349.98 85.04 378.89 115.19"/>
    <polyline class="cls-2" points="312.11 99.3 349.98 85.04 428.55 86.28"/>
    <ellipse class="cls-16" cx="375.29" cy="175.3" rx="13.2" ry="13.09"/>
    <ellipse class="cls-5" cx="324.93" cy="263.87" rx="10.8" ry="10.71"/>
    <ellipse class="cls-5" cx="428.55" cy="86.28" rx="10.8" ry="10.71"/>
    <ellipse class="cls-5" cx="349.98" cy="86.28" rx="10.8" ry="10.71"/>
    <ellipse class="cls-1" cx="403.19" cy="266.5" rx="8.4" ry="8.33"/>
  </g>
  <g>
    <text class="cls-10" transform="translate(28.28 491.29)"><tspan x="0" y="0">Degree of decentralization</tspan></text>
    <g>
      <path class="cls-3" d="M28.28,467.46h702.46"/>
      <polygon class="cls-16" points="728.55 474.94 741.5 467.46 728.55 459.98 728.55 474.94"/>
    </g>
  </g>
  <g>
    <text class="cls-7" transform="translate(837.61 277.16)"><tspan x="0" y="0">Client</tspan></text>
    <ellipse class="cls-11" cx="811.21" cy="273.32" rx="6" ry="5.95"/>
    <text class="cls-9" transform="translate(837.61 388.96)"><tspan x="0" y="0">Server (1st level)</tspan></text>
    <ellipse class="cls-16" cx="811.21" cy="385.12" rx="13.2" ry="13.09"/>
    <text class="cls-9" transform="translate(837.61 351.69)"><tspan x="0" y="0">Server (2nd level)</tspan></text>
    <ellipse class="cls-5" cx="811.21" cy="347.85" rx="10.8" ry="10.71"/>
    <text class="cls-9" transform="translate(837.61 314.43)"><tspan x="0" y="0">Server (3rd level)</tspan></text>
    <ellipse class="cls-1" cx="811.21" cy="310.58" rx="8.4" ry="8.33"/>
  </g>
  <line class="cls-4" x1="769.35" x2="769.35" y2="525"/>
</svg>