<?xml version="1.0" encoding="UTF-8"?><svg id="Ebene_1" xmlns="http://www.w3.org/2000/svg" viewBox="0 0 988 525"><rect x="143.6" y="110.02" width="152.24" height="35" rx="1" ry="1" style="fill:none; stroke:#1e1e1c;"/><text transform="translate(197.93 133.25)" style="fill:#1e1e1c; font-family:ArialMT, Arial; font-size:16px;"><tspan x="0" y="0" style="letter-spacing:-.06em;">T</tspan><tspan x="8.89" y="0">ype?</tspan></text><rect x="131.6" y="48.77" width="26.25" height="26.25" rx=".75" ry=".75" style="fill:#fff; stroke:#1e1e1c;"/><text transform="translate(142.22 65.11)" style="fill:#1e1e1c; font-family:Arial-BoldMT, Arial; font-size:9px; font-weight:700;"><tspan x="0" y="0">1</tspan></text><rect x="161.6" y="48.77" width="26.25" height="26.25" rx=".75" ry=".75" style="fill:#fff; stroke:#1e1e1c;"/><text transform="translate(172.22 65.11)" style="fill:#1e1e1c; font-family:Arial-BoldMT, Arial; font-size:9px; font-weight:700;"><tspan x="0" y="0">3</tspan></text><rect x="191.6" y="48.77" width="26.25" height="26.25" rx=".75" ry=".75" style="fill:#fff; stroke:#1e1e1c;"/><text transform="translate(202.22 65.11)" style="fill:#1e1e1c; font-family:Arial-BoldMT, Arial; font-size:9px; font-weight:700;"><tspan x="0" y="0">4</tspan></text><rect x="221.6" y="48.77" width="26.25" height="26.25" rx=".75" ry=".75" style="fill:#fff; stroke:#1e1e1c;"/><text transform="translate(232.22 65.11)" style="fill:#1e1e1c; font-family:Arial-BoldMT, Arial; font-size:9px; font-weight:700;"><tspan x="0" y="0">6</tspan></text><rect x="251.6" y="48.77" width="26.25" height="26.25" rx=".75" ry=".75" style="fill:#fff; stroke:#1e1e1c;"/><text transform="translate(262.22 65.11)" style="fill:#1e1e1c; font-family:Arial-BoldMT, Arial; font-size:9px; font-weight:700;"><tspan x="0" y="0">8</tspan></text><rect x="281.6" y="48.77" width="26.25" height="26.25" rx=".75" ry=".75" style="fill:#fff; stroke:#1e1e1c;"/><text transform="translate(289.71 65.11)" style="fill:#1e1e1c; font-family:Arial-BoldMT, Arial; font-size:9px; font-weight:700;"><tspan x="0" y="0">12</tspan></text><rect x="131.6" y="78.77" width="26.25" height="26.25" rx=".75" ry=".75" style="fill:#1e1e1c; stroke:#1e1e1c;"/><text transform="translate(142.22 95.11)" style="fill:#fff; font-family:Arial-BoldMT, Arial; font-size:9px; font-weight:700;"><tspan x="0" y="0">2</tspan></text><rect x="161.6" y="78.77" width="26.25" height="26.25" rx=".75" ry=".75" style="fill:#1e1e1c; stroke:#1e1e1c;"/><text transform="translate(172.22 95.11)" style="fill:#fff; font-family:Arial-BoldMT, Arial; font-size:9px; font-weight:700;"><tspan x="0" y="0">5</tspan></text><rect x="191.6" y="78.77" width="26.25" height="26.25" rx=".75" ry=".75" style="fill:#1e1e1c; stroke:#1e1e1c;"/><text transform="translate(202.22 95.11)" style="fill:#fff; font-family:Arial-BoldMT, Arial; font-size:9px; font-weight:700;"><tspan x="0" y="0">7</tspan></text><rect x="221.6" y="78.77" width="26.25" height="26.25" rx=".75" ry=".75" style="fill:#1e1e1c; stroke:#1e1e1c;"/><text transform="translate(232.22 95.11)" style="fill:#fff; font-family:Arial-BoldMT, Arial; font-size:9px; font-weight:700;"><tspan x="0" y="0">9</tspan></text><rect x="251.6" y="78.77" width="26.25" height="26.25" rx=".75" ry=".75" style="fill:#1e1e1c; stroke:#1e1e1c;"/><text transform="translate(259.71 95.11)" style="fill:#fff; font-family:Arial-BoldMT, Arial; font-size:9px; font-weight:700;"><tspan x="0" y="0">10</tspan></text><rect x="281.6" y="78.77" width="26.25" height="26.25" rx=".75" ry=".75" style="fill:#1e1e1c; stroke:#1e1e1c;"/><text transform="translate(289.96 95.11)" style="fill:#fff; font-family:Arial-BoldMT, Arial; font-size:9px; font-weight:700;"><tspan x="0" y="0" style="letter-spacing:-.06em;">1</tspan><tspan x="4.51" y="0">1</tspan></text><rect x="81.91" y="210.41" width="26.25" height="26.25" rx=".75" ry=".75" style="fill:#fff; stroke:#1e1e1c;"/><text transform="translate(92.53 226.75)" style="fill:#1e1e1c; font-family:Arial-BoldMT, Arial; font-size:9px; font-weight:700;"><tspan x="0" y="0">1</tspan></text><rect x="81.91" y="240.41" width="26.25" height="26.25" rx=".75" ry=".75" style="fill:#1e1e1c; stroke:#1e1e1c;"/><text transform="translate(92.53 256.75)" style="fill:#fff; font-family:Arial-BoldMT, Arial; font-size:9px; font-weight:700;"><tspan x="0" y="0">5</tspan></text><rect x="301.28" y="210.41" width="26.25" height="26.25" rx=".75" ry=".75" style="fill:#fff; stroke:#1e1e1c;"/><text transform="translate(311.9 226.75)" style="fill:#1e1e1c; font-family:Arial-BoldMT, Arial; font-size:9px; font-weight:700;"><tspan x="0" y="0">3</tspan></text><rect x="331.28" y="210.41" width="26.25" height="26.25" rx=".75" ry=".75" style="fill:#fff; stroke:#1e1e1c;"/><text transform="translate(339.4 226.75)" style="fill:#1e1e1c; font-family:Arial-BoldMT, Arial; font-size:9px; font-weight:700;"><tspan x="0" y="0">12</tspan></text><rect x="301.28" y="240.41" width="26.25" height="26.25" rx=".75" ry=".75" style="fill:#1e1e1c; stroke:#1e1e1c;"/><text transform="translate(311.9 256.75)" style="fill:#fff; font-family:Arial-BoldMT, Arial; font-size:9px; font-weight:700;"><tspan x="0" y="0">7</tspan></text><rect x="331.28" y="240.41" width="26.25" height="26.25" rx=".75" ry=".75" style="fill:#1e1e1c; stroke:#1e1e1c;"/><text transform="translate(341.9 256.75)" style="fill:#fff; font-family:Arial-BoldMT, Arial; font-size:9px; font-weight:700;"><tspan x="0" y="0">9</tspan></text><rect x="144.62" y="210.41" width="26.25" height="26.25" rx=".75" ry=".75" style="fill:#fff; stroke:#1e1e1c;"/><text transform="translate(155.24 226.75)" style="fill:#1e1e1c; font-family:Arial-BoldMT, Arial; font-size:9px; font-weight:700;"><tspan x="0" y="0">6</tspan></text><rect x="144.62" y="240.41" width="26.25" height="26.25" rx=".75" ry=".75" style="fill:#1e1e1c; stroke:#1e1e1c;"/><text transform="translate(152.73 256.75)" style="fill:#fff; font-family:Arial-BoldMT, Arial; font-size:9px; font-weight:700;"><tspan x="0" y="0">10</tspan></text><rect x="207.32" y="210.41" width="26.25" height="26.25" rx=".75" ry=".75" style="fill:#fff; stroke:#1e1e1c;"/><text transform="translate(217.95 226.75)" style="fill:#1e1e1c; font-family:Arial-BoldMT, Arial; font-size:9px; font-weight:700;"><tspan x="0" y="0">4</tspan></text><rect x="207.32" y="240.41" width="26.25" height="26.25" rx=".75" ry=".75" style="fill:#1e1e1c; stroke:#1e1e1c;"/><text transform="translate(217.95 256.75)" style="fill:#fff; font-family:Arial-BoldMT, Arial; font-size:9px; font-weight:700;"><tspan x="0" y="0">2</tspan></text><rect x="238.57" y="210.41" width="26.25" height="26.25" rx=".75" ry=".75" style="fill:#fff; stroke:#1e1e1c;"/><text transform="translate(249.2 226.75)" style="fill:#1e1e1c; font-family:Arial-BoldMT, Arial; font-size:9px; font-weight:700;"><tspan x="0" y="0">8</tspan></text><rect x="238.57" y="240.41" width="26.25" height="26.25" rx=".75" ry=".75" style="fill:#1e1e1c; stroke:#1e1e1c;"/><text transform="translate(246.94 256.75)" style="fill:#fff; font-family:Arial-BoldMT, Arial; font-size:9px; font-weight:700;"><tspan x="0" y="0" style="letter-spacing:-.06em;">1</tspan><tspan x="4.51" y="0">1</tspan></text><text transform="translate(115.42 189.07)" style="fill:#010101; font-family:CourierNewPS-BoldMT, &apos;Courier New&apos;; font-size:12px; font-weight:700;"><tspan x="0" y="0">F</tspan></text><text transform="translate(161.34 189.07)" style="fill:#010101; font-family:CourierNewPS-BoldMT, &apos;Courier New&apos;; font-size:12px; font-weight:700;"><tspan x="0" y="0">I</tspan></text><text transform="translate(236.84 189.07)" style="fill:#010101; font-family:CourierNewPS-BoldMT, &apos;Courier New&apos;; font-size:12px; font-weight:700;"><tspan x="0" y="0">B</tspan></text><text transform="translate(307.21 189.07)" style="fill:#010101; font-family:CourierNewPS-BoldMT, &apos;Courier New&apos;; font-size:12px; font-weight:700;"><tspan x="0" y="0">T</tspan></text><line x1="217.85" y1="145.02" x2="95.03" y2="206.41" style="fill:none; stroke:#1e1e1c;"/><line x1="217.85" y1="145.02" x2="157.85" y2="206.41" style="fill:none; stroke:#1e1e1c;"/><line x1="217.85" y1="145.02" x2="236.39" y2="206.41" style="fill:none; stroke:#1e1e1c;"/><line x1="217.85" y1="145.02" x2="329.91" y2="206.41" style="fill:none; stroke:#1e1e1c;"/><rect x="605.17" y="110.02" width="152.24" height="35" rx="1" ry="1" style="fill:none; stroke:#1e1e1c;"/><text transform="translate(649.27 133.25)" style="fill:#1e1e1c; font-family:ArialMT, Arial; font-size:16px;"><tspan x="0" y="0">Patrons?</tspan></text><rect x="744.5" y="276.66" width="152.24" height="35" rx="1" ry="1" style="fill:none; stroke:#1e1e1c;"/><text transform="translate(790.39 299.89)" style="fill:#1e1e1c; font-family:ArialMT, Arial; font-size:16px;"><tspan x="0" y="0">Hungry?</tspan></text><rect x="613.88" y="214.16" width="26.25" height="26.25" rx=".75" ry=".75" style="fill:#fff; stroke:#1e1e1c;"/><text transform="translate(624.51 230.5)" style="fill:#1e1e1c; font-family:Arial-BoldMT, Arial; font-size:9px; font-weight:700;"><tspan x="0" y="0">1</tspan></text><rect x="645.13" y="214.16" width="26.25" height="26.25" rx=".75" ry=".75" style="fill:#fff; stroke:#1e1e1c;"/><text transform="translate(655.76 230.5)" style="fill:#1e1e1c; font-family:Arial-BoldMT, Arial; font-size:9px; font-weight:700;"><tspan x="0" y="0">3</tspan></text><rect x="613.88" y="245.41" width="26.25" height="26.25" rx=".75" ry=".75" style="fill:#fff; stroke:#1e1e1c;"/><text transform="translate(624.51 261.75)" style="fill:#1e1e1c; font-family:Arial-BoldMT, Arial; font-size:9px; font-weight:700;"><tspan x="0" y="0">6</tspan></text><rect x="645.13" y="245.41" width="26.25" height="26.25" rx=".75" ry=".75" style="fill:#fff; stroke:#1e1e1c;"/><text transform="translate(655.76 261.75)" style="fill:#1e1e1c; font-family:Arial-BoldMT, Arial; font-size:9px; font-weight:700;"><tspan x="0" y="0">8</tspan></text><rect x="761.36" y="213.75" width="26.25" height="26.25" rx=".75" ry=".75" style="fill:#fff; stroke:#1e1e1c;"/><text transform="translate(771.99 230.1)" style="fill:#1e1e1c; font-family:Arial-BoldMT, Arial; font-size:9px; font-weight:700;"><tspan x="0" y="0">4</tspan></text><rect x="792.61" y="213.75" width="26.25" height="26.25" rx=".75" ry=".75" style="fill:#fff; stroke:#1e1e1c;"/><text transform="translate(800.73 230.1)" style="fill:#1e1e1c; font-family:Arial-BoldMT, Arial; font-size:9px; font-weight:700;"><tspan x="0" y="0">12</tspan></text><rect x="761.36" y="245.41" width="26.25" height="26.25" rx=".75" ry=".75" style="fill:#1e1e1c; stroke:#1e1e1c;"/><text transform="translate(771.99 261.75)" style="fill:#fff; font-family:Arial-BoldMT, Arial; font-size:9px; font-weight:700;"><tspan x="0" y="0">2</tspan></text><rect x="792.61" y="245.41" width="26.25" height="26.25" rx=".75" ry=".75" style="fill:#1e1e1c; stroke:#1e1e1c;"/><text transform="translate(803.24 261.75)" style="fill:#fff; font-family:Arial-BoldMT, Arial; font-size:9px; font-weight:700;"><tspan x="0" y="0">5</tspan></text><rect x="823.86" y="245.41" width="26.25" height="26.25" rx=".75" ry=".75" style="fill:#1e1e1c; stroke:#1e1e1c;"/><text transform="translate(834.49 261.75)" style="fill:#fff; font-family:Arial-BoldMT, Arial; font-size:9px; font-weight:700;"><tspan x="0" y="0">9</tspan></text><rect x="855.11" y="245.41" width="26.25" height="26.25" rx=".75" ry=".75" style="fill:#1e1e1c; stroke:#1e1e1c;"/><text transform="translate(863.23 261.75)" style="fill:#fff; font-family:Arial-BoldMT, Arial; font-size:9px; font-weight:700;"><tspan x="0" y="0">10</tspan></text><rect x="736.3" y="377.93" width="26.25" height="26.25" rx=".75" ry=".75" style="fill:#1e1e1c; stroke:#1e1e1c;"/><text transform="translate(746.92 394.27)" style="fill:#fff; font-family:Arial-BoldMT, Arial; font-size:9px; font-weight:700;"><tspan x="0" y="0">5</tspan></text><rect x="767.55" y="377.93" width="26.25" height="26.25" rx=".75" ry=".75" style="fill:#1e1e1c; stroke:#1e1e1c;"/><text transform="translate(778.17 394.27)" style="fill:#fff; font-family:Arial-BoldMT, Arial; font-size:9px; font-weight:700;"><tspan x="0" y="0">9</tspan></text><rect x="847.45" y="377.93" width="26.25" height="26.25" rx=".75" ry=".75" style="fill:#fff; stroke:#1e1e1c;"/><text transform="translate(858.07 394.27)" style="fill:#1e1e1c; font-family:Arial-BoldMT, Arial; font-size:9px; font-weight:700;"><tspan x="0" y="0">4</tspan></text><rect x="878.7" y="377.93" width="26.25" height="26.25" rx=".75" ry=".75" style="fill:#fff; stroke:#1e1e1c;"/><text transform="translate(886.81 394.27)" style="fill:#1e1e1c; font-family:Arial-BoldMT, Arial; font-size:9px; font-weight:700;"><tspan x="0" y="0">12</tspan></text><rect x="847.45" y="409.98" width="26.25" height="26.25" rx=".75" ry=".75" style="fill:#1e1e1c; stroke:#1e1e1c;"/><text transform="translate(858.07 426.33)" style="fill:#fff; font-family:Arial-BoldMT, Arial; font-size:9px; font-weight:700;"><tspan x="0" y="0">2</tspan></text><rect x="878.7" y="409.98" width="26.25" height="26.25" rx=".75" ry=".75" style="fill:#1e1e1c; stroke:#1e1e1c;"/><text transform="translate(886.81 426.33)" style="fill:#fff; font-family:Arial-BoldMT, Arial; font-size:9px; font-weight:700;"><tspan x="0" y="0">10</tspan></text><rect x="593.17" y="48.77" width="26.25" height="26.25" rx=".75" ry=".75" style="fill:#fff; stroke:#1e1e1c;"/><text transform="translate(603.79 65.11)" style="fill:#1e1e1c; font-family:Arial-BoldMT, Arial; font-size:9px; font-weight:700;"><tspan x="0" y="0">1</tspan></text><rect x="623.17" y="48.77" width="26.25" height="26.25" rx=".75" ry=".75" style="fill:#fff; stroke:#1e1e1c;"/><text transform="translate(633.79 65.11)" style="fill:#1e1e1c; font-family:Arial-BoldMT, Arial; font-size:9px; font-weight:700;"><tspan x="0" y="0">3</tspan></text><rect x="653.17" y="48.77" width="26.25" height="26.25" rx=".75" ry=".75" style="fill:#fff; stroke:#1e1e1c;"/><text transform="translate(663.79 65.11)" style="fill:#1e1e1c; font-family:Arial-BoldMT, Arial; font-size:9px; font-weight:700;"><tspan x="0" y="0">4</tspan></text><rect x="683.17" y="48.77" width="26.25" height="26.25" rx=".75" ry=".75" style="fill:#fff; stroke:#1e1e1c;"/><text transform="translate(693.79 65.11)" style="fill:#1e1e1c; font-family:Arial-BoldMT, Arial; font-size:9px; font-weight:700;"><tspan x="0" y="0">6</tspan></text><rect x="713.17" y="48.77" width="26.25" height="26.25" rx=".75" ry=".75" style="fill:#fff; stroke:#1e1e1c;"/><text transform="translate(723.79 65.11)" style="fill:#1e1e1c; font-family:Arial-BoldMT, Arial; font-size:9px; font-weight:700;"><tspan x="0" y="0">8</tspan></text><rect x="743.17" y="48.77" width="26.25" height="26.25" rx=".75" ry=".75" style="fill:#fff; stroke:#1e1e1c;"/><text transform="translate(751.29 65.11)" style="fill:#1e1e1c; font-family:Arial-BoldMT, Arial; font-size:9px; font-weight:700;"><tspan x="0" y="0">12</tspan></text><rect x="593.17" y="78.77" width="26.25" height="26.25" rx=".75" ry=".75" style="fill:#1e1e1c; stroke:#1e1e1c;"/><text transform="translate(603.79 95.11)" style="fill:#fff; font-family:Arial-BoldMT, Arial; font-size:9px; font-weight:700;"><tspan x="0" y="0">2</tspan></text><rect x="623.17" y="78.77" width="26.25" height="26.25" rx=".75" ry=".75" style="fill:#1e1e1c; stroke:#1e1e1c;"/><text transform="translate(633.79 95.11)" style="fill:#fff; font-family:Arial-BoldMT, Arial; font-size:9px; font-weight:700;"><tspan x="0" y="0">5</tspan></text><rect x="653.17" y="78.77" width="26.25" height="26.25" rx=".75" ry=".75" style="fill:#1e1e1c; stroke:#1e1e1c;"/><text transform="translate(663.79 95.11)" style="fill:#fff; font-family:Arial-BoldMT, Arial; font-size:9px; font-weight:700;"><tspan x="0" y="0">7</tspan></text><rect x="683.17" y="78.77" width="26.25" height="26.25" rx=".75" ry=".75" style="fill:#1e1e1c; stroke:#1e1e1c;"/><text transform="translate(693.79 95.11)" style="fill:#fff; font-family:Arial-BoldMT, Arial; font-size:9px; font-weight:700;"><tspan x="0" y="0">9</tspan></text><rect x="713.17" y="78.77" width="26.25" height="26.25" rx=".75" ry=".75" style="fill:#1e1e1c; stroke:#1e1e1c;"/><text transform="translate(721.29 95.11)" style="fill:#fff; font-family:Arial-BoldMT, Arial; font-size:9px; font-weight:700;"><tspan x="0" y="0">10</tspan></text><rect x="743.17" y="78.77" width="26.25" height="26.25" rx=".75" ry=".75" style="fill:#1e1e1c; stroke:#1e1e1c;"/><text transform="translate(751.54 95.11)" style="fill:#fff; font-family:Arial-BoldMT, Arial; font-size:9px; font-weight:700;"><tspan x="0" y="0" style="letter-spacing:-.06em;">1</tspan><tspan x="4.51" y="0">1</tspan></text><rect x="523.57" y="213.75" width="26.25" height="26.25" rx=".75" ry=".75" style="fill:#1e1e1c; stroke:#1e1e1c;"/><text transform="translate(534.19 230.1)" style="fill:#fff; font-family:Arial-BoldMT, Arial; font-size:9px; font-weight:700;"><tspan x="0" y="0">7</tspan></text><rect x="554.82" y="213.75" width="26.25" height="26.25" rx=".75" ry=".75" style="fill:#1e1e1c; stroke:#1e1e1c;"/><text transform="translate(563.19 230.1)" style="fill:#fff; font-family:Arial-BoldMT, Arial; font-size:9px; font-weight:700;"><tspan x="0" y="0" style="letter-spacing:-.06em;">1</tspan><tspan x="4.51" y="0">1</tspan></text><text transform="translate(548.07 189.07)" style="fill:#010101; font-family:CourierNewPS-BoldMT, &apos;Courier New&apos;; font-size:12px; font-weight:700;"><tspan x="0" y="0">None</tspan></text><text transform="translate(663.74 189.07)" style="fill:#010101; font-family:CourierNewPS-BoldMT, &apos;Courier New&apos;; font-size:12px; font-weight:700;"><tspan x="0" y="0">Some</tspan></text><text transform="translate(773.75 189.07)" style="fill:#010101; font-family:CourierNewPS-BoldMT, &apos;Courier New&apos;; font-size:12px; font-weight:700;"><tspan x="0" y="0">Full</tspan></text><line x1="679.42" y1="145.02" x2="556.61" y2="206.41" style="fill:none; stroke:#1e1e1c;"/><line x1="679.42" y1="145.02" x2="642.63" y2="206.41" style="fill:none; stroke:#1e1e1c;"/><line x1="679.42" y1="145.02" x2="791.48" y2="206.41" style="fill:none; stroke:#1e1e1c;"/><line x1="825.12" y1="311.54" x2="765.55" y2="372.93" style="fill:none; stroke:#1e1e1c;"/><line x1="825.12" y1="311.54" x2="875.85" y2="372.93" style="fill:none; stroke:#1e1e1c;"/><line x1="466.72" x2="466.72" y2="525" style="fill:none; stroke:#1e1e1c;"/><text transform="translate(201.72 485.04)" style="fill:#010101; font-family:CourierNewPS-BoldMT, &apos;Courier New&apos;; font-size:20px; font-weight:700;"><tspan x="0" y="0">(a)</tspan></text><text transform="translate(696.25 485.04)" style="fill:#010101; font-family:CourierNewPS-BoldMT, &apos;Courier New&apos;; font-size:20px; font-weight:700;"><tspan x="0" y="0">(b)</tspan></text><text transform="translate(523.57 434.46)" style="fill:#010101; font-family:CourierNewPS-BoldMT, &apos;Courier New&apos;; font-size:12px; font-weight:700;"><tspan x="0" y="0">proceeds with type and fri</tspan></text></svg>