<?xml version="1.0" encoding="UTF-8"?>
<svg id="Ebene_1" data-name="Ebene 1" xmlns="http://www.w3.org/2000/svg" viewBox="0 0 988 525">
  <defs>
    <style>
      .cls-1 {
        fill: #0433ff;
        font-family: Arial-BoldMT, Arial;
        font-size: 26px;
        font-weight: 700;
      }

      .cls-2 {
        stroke-dasharray: 0 0 3.98 3.98;
      }

      .cls-2, .cls-3, .cls-4, .cls-5 {
        fill: none;
      }

      .cls-2, .cls-5 {
        stroke: #0433ff;
        stroke-miterlimit: 10;
      }

      .cls-6 {
        fill: #1d1d1b;
        stroke-width: 0px;
      }

      .cls-3 {
        stroke-width: .84px;
      }

      .cls-3, .cls-4 {
        stroke: #1d1d1b;
        stroke-linejoin: round;
      }

      .cls-7 {
        letter-spacing: -.07em;
      }

      .cls-4 {
        stroke-width: 2px;
      }

      .cls-8 {
        font-size: 11.2px;
      }

      .cls-8, .cls-9, .cls-10 {
        fill: #000;
        font-family: ArialMT, Arial;
      }

      .cls-9 {
        font-size: 22px;
      }

      .cls-10 {
        font-size: 14px;
      }
    </style>
  </defs>
  <text class="cls-9" transform="translate(81.32 117.51)"><tspan x="0" y="0">Decision</tspan></text>
  <text class="cls-9" transform="translate(339.93 117.51)"><tspan x="0" y="0">Action</tspan></text>
  <g>
    <line class="cls-4" x1="217" y1="108.81" x2="269.82" y2="108.81"/>
    <polygon class="cls-6" points="268.37 113.8 277 108.81 268.37 103.83 268.37 113.8"/>
  </g>
  <text class="cls-1" transform="translate(202.94 52.28)"><tspan x="0" y="0">Human</tspan></text>
  <text class="cls-1" transform="translate(669.02 52.28)"><tspan class="cls-7" x="0" y="0">T</tspan><tspan x="13.95" y="0">echnology</tspan></text>
  <g>
    <line class="cls-5" x1="494" x2="494" y2="2"/>
    <line class="cls-2" x1="494" y1="5.98" x2="494" y2="521.01"/>
    <line class="cls-5" x1="494" y1="523" x2="494" y2="525"/>
  </g>
  <text class="cls-10" transform="translate(96.64 184.84)"><tspan x="0" y="0">Intention</tspan><tspan x="-.78" y="18">Attention</tspan><tspan x="1.18" y="36">Emotion</tspan></text>
  <rect class="cls-3" x="314.5" y="144.33" width="112" height="24" rx="12" ry="12"/>
  <text class="cls-8" transform="translate(351.51 160.32)"><tspan x="0" y="0">Speech</tspan></text>
  <rect class="cls-3" x="314.5" y="172.84" width="112" height="24" rx="12" ry="12"/>
  <text class="cls-8" transform="translate(350.58 188.82)"><tspan x="0" y="0">Gesture</tspan></text>
  <rect class="cls-3" x="314.5" y="201.34" width="112" height="24" rx="12" ry="12"/>
  <text class="cls-8" transform="translate(326.31 217.33)"><tspan x="0" y="0">Facial Expression</tspan></text>
  <rect class="cls-3" x="314.5" y="229.85" width="112" height="24" rx="12" ry="12"/>
  <text class="cls-8" transform="translate(365.83 245.83)"><tspan x="0" y="0">...</tspan></text>
</svg>