<?xml version="1.0" encoding="UTF-8"?>
<svg id="Ebene_1" xmlns="http://www.w3.org/2000/svg" viewBox="0 0 988 525">
  <defs>
    <style>
      .cls-1 {
        stroke: #1d1d1b;
      }

      .cls-1, .cls-2, .cls-3, .cls-4 {
        fill: none;
      }

      .cls-1, .cls-3 {
        stroke-miterlimit: 10;
      }

      .cls-5, .cls-6, .cls-7 {
        fill-rule: evenodd;
      }

      .cls-5, .cls-8, .cls-9 {
        fill: #fff;
      }

      .cls-10, .cls-11, .cls-12, .cls-7 {
        fill: #0333ff;
      }

      .cls-13 {
        fill: #1d1d1b;
      }

      .cls-14 {
        font-size: 19.2px;
      }

      .cls-14, .cls-15, .cls-11, .cls-12, .cls-9 {
        font-family: ArialMT, Arial;
      }

      .cls-15, .cls-11, .cls-12 {
        font-size: 12px;
      }

      .cls-16 {
        letter-spacing: 0em;
      }

      .cls-17 {
        letter-spacing: 0em;
      }

      .cls-18 {
        letter-spacing: 0em;
      }

      .cls-19 {
        letter-spacing: 0em;
      }

      .cls-20 {
        letter-spacing: 0em;
      }

      .cls-21 {
        letter-spacing: 0em;
      }

      .cls-22 {
        letter-spacing: 0em;
      }

      .cls-23 {
        letter-spacing: 0em;
      }

      .cls-24 {
        letter-spacing: 0em;
      }

      .cls-11, .cls-25 {
        letter-spacing: 0em;
      }

      .cls-26 {
        letter-spacing: 0em;
      }

      .cls-2 {
        stroke: #000;
      }

      .cls-2, .cls-4, .cls-7 {
        stroke-miterlimit: 8;
      }

      .cls-3, .cls-4, .cls-7 {
        stroke: #0333ff;
      }

      .cls-27 {
        letter-spacing: 0em;
      }

      .cls-28 {
        letter-spacing: 0em;
      }

      .cls-29 {
        letter-spacing: 0em;
      }

      .cls-30 {
        letter-spacing: 0em;
      }

      .cls-31 {
        letter-spacing: 0em;
      }

      .cls-32 {
        letter-spacing: 0em;
      }

      .cls-33 {
        letter-spacing: 0em;
      }

      .cls-34 {
        letter-spacing: 0em;
      }

      .cls-35 {
        letter-spacing: 0em;
      }

      .cls-36 {
        letter-spacing: 0em;
      }

      .cls-37 {
        letter-spacing: 0em;
      }

      .cls-38 {
        letter-spacing: 0em;
      }

      .cls-39 {
        letter-spacing: 0em;
      }

      .cls-9 {
        font-size: 11px;
      }

      .cls-40 {
        letter-spacing: 0em;
      }

      .cls-41 {
        letter-spacing: 0em;
      }

      .cls-42 {
        letter-spacing: 0em;
      }

      .cls-43 {
        letter-spacing: 0em;
      }

      .cls-44 {
        letter-spacing: 0em;
      }

      .cls-45 {
        letter-spacing: 0em;
      }

      .cls-46 {
        letter-spacing: 0em;
      }

      .cls-47 {
        letter-spacing: 0em;
      }

      .cls-48 {
        letter-spacing: 0em;
      }
    </style>
  </defs>
  <polygon class="cls-5" points="0 86.1 570.8 86.1 621.8 137.1 570.8 188.1 0 188.1 0 86.1"/>
  <polygon class="cls-5" points="0 211.5 809.6 211.5 860.6 262.5 809.6 313.5 0 313.5 0 211.5"/>
  <polygon class="cls-5" points="0 336.9 345.2 336.9 396.2 387.9 345.2 438.9 0 438.9 0 336.9"/>
  <text class="cls-14" transform="translate(127.31 143.1)"><tspan class="cls-39" x="0" y="0">Au</tspan><tspan class="cls-19" x="23.41" y="0">th</tspan><tspan class="cls-34" x="39.54" y="0">o</tspan><tspan x="50.19" y="0">rs</tspan></text>
  <text class="cls-14" transform="translate(76 267.62)"><tspan x="0" y="0">E</tspan><tspan class="cls-41" x="12.81" y="0">d</tspan><tspan class="cls-17" x="23.45" y="0">i</tspan><tspan class="cls-19" x="27.73" y="0">t</tspan><tspan class="cls-35" x="33.12" y="0">o</tspan><tspan class="cls-26" x="43.78" y="0">r</tspan><tspan class="cls-17" x="50.18" y="0">i</tspan><tspan class="cls-19" x="54.46" y="0">a</tspan><tspan class="cls-17" x="65.2" y="0">l</tspan><tspan class="cls-26" x="69.48" y="0" xml:space="preserve"> team</tspan></text>
  <text class="cls-14" transform="translate(113.35 395.1)"><tspan class="cls-22" x="0" y="0">R</tspan><tspan class="cls-28" x="13.9" y="0">e</tspan><tspan class="cls-42" x="24.5" y="0">v</tspan><tspan class="cls-17" x="34.07" y="0">i</tspan><tspan class="cls-29" x="38.35" y="0">e</tspan><tspan class="cls-21" x="48.95" y="0">w</tspan><tspan class="cls-29" x="62.88" y="0">e</tspan><tspan x="73.48" y="0">r</tspan></text>
  <g>
    <rect class="cls-8" x="254.6" y="101.7" width="36.6" height="50.4"/>
    <path class="cls-6" d="M393.8,159.27c-12.24,0-22.17-9.93-22.17-22.17s9.93-22.17,22.17-22.17,22.17,9.93,22.17,22.17c-.01,12.24-9.93,22.15-22.17,22.17ZM393.8,113.7c-12.92,0-23.4,10.48-23.4,23.4s10.48,23.4,23.4,23.4,23.4-10.48,23.4-23.4-10.48-23.4-23.4-23.4Z"/>
    <path class="cls-6" d="M393.8,143.7c-4.62,0-8.99,2.06-11.86,5.62-.21.26-.17.64.09.84.26.21.65.17.86-.09,4.82-5.95,13.62-6.91,19.65-2.16.81.64,1.54,1.36,2.19,2.16.21.26.59.3.86.09.26-.21.3-.59.09-.84-2.88-3.56-7.25-5.63-11.87-5.62Z"/>
    <path class="cls-6" d="M381.3,133.5c0-1.33,1.16-2.4,2.6-2.4s2.6,1.07,2.6,2.4-1.16,2.4-2.6,2.4c-1.44,0-2.6-1.08-2.6-2.4ZM387.8,133.5c0-1.99-1.75-3.6-3.9-3.6s-3.9,1.61-3.9,3.6,1.75,3.6,3.9,3.6,3.9-1.61,3.9-3.6Z"/>
    <path class="cls-6" d="M403.7,135.9c-1.44,0-2.6-1.07-2.6-2.4s1.16-2.4,2.6-2.4,2.6,1.07,2.6,2.4c0,1.33-1.16,2.4-2.6,2.4h0ZM403.7,129.9c-2.15,0-3.9,1.61-3.9,3.6s1.75,3.6,3.9,3.6,3.9-1.61,3.9-3.6-1.75-3.6-3.9-3.6Z"/>
    <path class="cls-6" d="M384.8,141.9c0,.33-.26.6-.59.61-.33,0-.6-.26-.61-.59.13-.48.33-.94.6-1.36.26.42.47.87.6,1.34ZM382.4,141.9c0,.99.81,1.8,1.8,1.8s1.8-.81,1.8-1.8-1.8-3.6-1.8-3.6c0,0-1.8,2.58-1.8,3.6Z"/>
    <path class="cls-6" d="M621.8,159.27c-12.24,0-22.17-9.93-22.17-22.17s9.93-22.17,22.17-22.17,22.17,9.93,22.17,22.17c-.01,12.24-9.93,22.15-22.17,22.17ZM621.8,113.7c-12.92,0-23.4,10.48-23.4,23.4s10.48,23.4,23.4,23.4,23.4-10.48,23.4-23.4-10.48-23.4-23.4-23.4Z"/>
    <path class="cls-6" d="M621.8,143.7c-4.62,0-8.99,2.06-11.86,5.62-.21.26-.17.64.09.84.26.21.65.17.86-.09,4.82-5.95,13.62-6.91,19.65-2.16.81.64,1.54,1.36,2.19,2.16.21.26.59.3.86.09.26-.21.3-.59.09-.84-2.88-3.56-7.25-5.63-11.87-5.62Z"/>
    <path class="cls-6" d="M609.3,133.5c0-1.33,1.16-2.4,2.6-2.4s2.6,1.07,2.6,2.4-1.16,2.4-2.6,2.4c-1.44,0-2.6-1.08-2.6-2.4ZM615.8,133.5c0-1.99-1.75-3.6-3.9-3.6s-3.9,1.61-3.9,3.6,1.75,3.6,3.9,3.6,3.9-1.61,3.9-3.6Z"/>
    <path class="cls-6" d="M631.7,135.9c-1.44,0-2.6-1.07-2.6-2.4s1.16-2.4,2.6-2.4,2.6,1.07,2.6,2.4c0,1.33-1.16,2.4-2.6,2.4h0ZM631.7,129.9c-2.15,0-3.9,1.61-3.9,3.6s1.75,3.6,3.9,3.6,3.9-1.61,3.9-3.6-1.75-3.6-3.9-3.6Z"/>
    <path class="cls-6" d="M612.8,141.9c0,.33-.26.6-.59.61-.33,0-.6-.26-.61-.59.13-.48.33-.94.6-1.36.26.42.47.87.6,1.34ZM610.4,141.9c0,.99.81,1.8,1.8,1.8s1.8-.81,1.8-1.8-1.8-3.6-1.8-3.6c0,0-1.8,2.58-1.8,3.6Z"/>
    <rect x="267.8" y="129.9" width="24" height="1.2"/>
    <rect x="267.8" y="125.1" width="11.4" height="1.2"/>
    <rect x="267.8" y="134.7" width="24" height="1.2"/>
    <rect x="267.8" y="139.5" width="24" height="1.2"/>
    <rect x="267.8" y="144.3" width="24" height="1.2"/>
    <rect x="267.8" y="149.1" width="24" height="1.2"/>
    <path class="cls-6" d="M263.02,156.89v-46.17h21.35v12.76h12.81v33.41h-34.16ZM285.6,111.58l10.71,10.66s0,0,0,0c0,0,0,0,0,0h-10.71v-10.67s0,0,0,0c0,0,0,0,0,0ZM261.8,109.5v48.6h36.6v-35.49l-13.17-13.11h-23.43Z"/>
    <rect class="cls-4" x="241.4" y="242.7" width="76.8" height="40.2"/>
    <text class="cls-12" transform="translate(258.12 260.7)"><tspan x="0" y="0">Editorial</tspan></text>
    <text class="cls-12" transform="translate(257.71 272.7)"><tspan class="cls-36" x="0" y="0">d</tspan><tspan class="cls-46" x="6.66" y="0">e</tspan><tspan class="cls-18" x="13.41" y="0">ci</tspan><tspan x="22.15" y="0">s</tspan><tspan class="cls-18" x="28.15" y="0">i</tspan><tspan class="cls-25" x="30.85" y="0">o</tspan><tspan x="37.5" y="0">n</tspan></text>
    <polygon class="cls-7" points="342.8 262.8 393.8 236.7 444.8 262.8 393.8 288.9 342.8 262.8"/>
    <g>
      <line class="cls-3" x1="318.2" y1="262.8" x2="335.62" y2="262.8"/>
      <polygon class="cls-10" points="334.17 267.79 342.8 262.8 334.17 257.81 334.17 267.79"/>
    </g>
    <g>
      <line class="cls-3" x1="444.8" y1="262.8" x2="462.22" y2="262.8"/>
      <polygon class="cls-10" points="460.77 267.79 469.4 262.8 460.77 257.81 460.77 267.79"/>
    </g>
    <g>
      <line class="cls-3" x1="545.53" y1="262.8" x2="562.95" y2="262.8"/>
      <polygon class="cls-10" points="561.5 267.79 570.13 262.8 561.5 257.81 561.5 267.79"/>
    </g>
    <g>
      <line class="cls-3" x1="672.13" y1="262.8" x2="689.55" y2="262.8"/>
      <polygon class="cls-10" points="688.09 267.79 696.73 262.8 688.09 257.81 688.09 267.79"/>
    </g>
    <g>
      <line class="cls-3" x1="773.53" y1="262.8" x2="808.34" y2="262.8"/>
      <polygon class="cls-10" points="806.88 267.79 815.52 262.8 806.88 257.81 806.88 267.79"/>
    </g>
    <text class="cls-9" transform="translate(378.1 261.7)"><tspan class="cls-36" x="0" y="0">R</tspan><tspan class="cls-43" x="7.93" y="0">eje</tspan><tspan class="cls-47" x="22.81" y="0">c</tspan><tspan class="cls-16" x="28.35" y="0">t</tspan><tspan class="cls-40" x="-6.71" y="11">o</tspan><tspan class="cls-20" x="-.61" y="11">r r</tspan><tspan class="cls-45" x="9.87" y="11">e</tspan><tspan class="cls-30" x="16.06" y="11">v</tspan><tspan class="cls-20" x="21.51" y="11">i</tspan><tspan class="cls-43" x="23.99" y="11">e</tspan><tspan class="cls-24" x="30.17" y="11">w</tspan></text>
    <rect class="cls-4" x="469.4" y="242.7" width="76.8" height="40.2"/>
    <text class="cls-12" transform="translate(484.44 260.7)"><tspan class="cls-25" x="0" y="0">E</tspan><tspan class="cls-36" x="7.98" y="0">d</tspan><tspan class="cls-18" x="14.64" y="0">i</tspan><tspan class="cls-31" x="17.34" y="0">t</tspan><tspan class="cls-37" x="20.63" y="0">o</tspan><tspan class="cls-18" x="27.27" y="0">ri</tspan><tspan x="34" y="0">a</tspan><tspan class="cls-18" x="40.68" y="0">l</tspan><tspan x="43.38" y="0"> </tspan></text>
    <text class="cls-12" transform="translate(485.71 272.7)"><tspan class="cls-36" x="0" y="0">d</tspan><tspan class="cls-46" x="6.66" y="0">e</tspan><tspan class="cls-18" x="13.41" y="0">ci</tspan><tspan x="22.15" y="0">s</tspan><tspan class="cls-18" x="28.15" y="0">i</tspan><tspan class="cls-25" x="30.85" y="0">o</tspan><tspan x="37.5" y="0">n</tspan></text>
    <rect class="cls-2" x="355.4" y="365.1" width="76.8" height="40.2"/>
    <text class="cls-15" transform="translate(372.08 383.1)"><tspan x="0" y="0">B</tspan><tspan class="cls-18" x="8" y="0">li</tspan><tspan class="cls-32" x="13.41" y="0">n</tspan><tspan class="cls-40" x="20.07" y="0">d</tspan><tspan class="cls-48" x="26.72" y="0">e</tspan><tspan class="cls-40" x="33.45" y="0">d</tspan><tspan x="40.1" y="0"> </tspan></text>
    <text class="cls-15" transform="translate(373.41 395.1)"><tspan class="cls-18" x="0" y="0">r</tspan><tspan class="cls-44" x="4.03" y="0">e</tspan><tspan class="cls-27" x="10.78" y="0">v</tspan><tspan class="cls-23" x="16.73" y="0">i</tspan><tspan class="cls-44" x="19.42" y="0">e</tspan><tspan class="cls-31" x="26.17" y="0">w</tspan><tspan x="34.78" y="0">s</tspan></text>
    <rect class="cls-4" x="696.73" y="242.7" width="76.8" height="40.2"/>
    <text class="cls-11" transform="translate(715.53 260.7)"><tspan x="0" y="0">Publish</tspan><tspan x="4.31" y="12">paper</tspan></text>
    <g>
      <path class="cls-6" d="M848.6,260.7h-7.8v-4.8h7.8v4.8ZM849.8,254.7h-10.2v7.2h10.2v-7.2Z"/>
      <path class="cls-6" d="M853.4,270.3h7.8v4.8h-7.8v-4.8ZM852.2,276.3h10.2v-7.2h-10.2v7.2Z"/>
      <rect x="849.2" y="250.5" width="22.8" height="1.2"/>
      <rect x="839.6" y="264.9" width="22.8" height="1.2"/>
      <rect x="852.2" y="255.3" width="10.2" height="1.2"/>
      <rect x="852.2" y="260.1" width="10.2" height="1.2"/>
      <rect x="839.6" y="269.7" width="10.2" height="1.2"/>
      <rect x="839.6" y="274.5" width="10.2" height="1.2"/>
      <path class="cls-6" d="M872,279.3c0,1.33-1.07,2.4-2.4,2.4s-2.4-1.07-2.4-2.4v-30.6h4.8v30.6ZM836,278.7v-33.6h30v34.2c0,.89.33,1.74.92,2.4h-27.92c-1.66,0-3-1.34-3-3ZM867.2,247.5v-3.6h-32.4v34.8c0,2.32,1.88,4.2,4.2,4.2h30.6c1.99,0,3.6-1.61,3.6-3.6v-31.8h-6Z"/>
    </g>
    <polygon class="cls-7" points="570.8 262.8 621.8 236.7 672.8 262.8 621.8 288.9 570.8 262.8"/>
    <text class="cls-9" transform="translate(604.37 255.89)"><tspan class="cls-33" x="0" y="0">R</tspan><tspan class="cls-43" x="7.93" y="0">eje</tspan><tspan class="cls-47" x="22.81" y="0">c</tspan><tspan class="cls-16" x="28.35" y="0">t,</tspan><tspan class="cls-38"><tspan x="-3.77" y="11">revise or</tspan></tspan><tspan class="cls-38"><tspan x="1.08" y="22">accept</tspan></tspan></text>
    <g>
      <path class="cls-6" d="M735.14,159.27c-12.24,0-22.17-9.93-22.17-22.17s9.93-22.17,22.17-22.17,22.17,9.93,22.17,22.17c-.01,12.24-9.93,22.15-22.17,22.17ZM735.14,113.7c-12.92,0-23.4,10.48-23.4,23.4s10.48,23.4,23.4,23.4,23.4-10.48,23.4-23.4-10.48-23.4-23.4-23.4Z"/>
      <path class="cls-6" d="M735.44,150.3c4.73,0,9.21-2.06,12.16-5.62.22-.26.17-.64-.1-.84-.27-.21-.66-.17-.88.09-4.94,5.95-13.96,6.91-20.14,2.16-.83-.64-1.58-1.36-2.24-2.16-.22-.26-.61-.3-.88-.09-.27.21-.31.59-.1.84,2.95,3.56,7.43,5.63,12.16,5.62Z"/>
      <path class="cls-6" d="M723.14,133.5c0-1.33,1.07-2.4,2.4-2.4s2.4,1.07,2.4,2.4-1.07,2.4-2.4,2.4c-1.32,0-2.4-1.08-2.4-2.4ZM729.14,133.5c0-1.99-1.61-3.6-3.6-3.6s-3.6,1.61-3.6,3.6,1.61,3.6,3.6,3.6,3.6-1.61,3.6-3.6Z"/>
      <path class="cls-6" d="M745.34,135.9c-1.33,0-2.4-1.07-2.4-2.4s1.07-2.4,2.4-2.4,2.4,1.07,2.4,2.4c0,1.33-1.07,2.4-2.4,2.4h0ZM745.34,129.9c-1.99,0-3.6,1.61-3.6,3.6s1.61,3.6,3.6,3.6,3.6-1.61,3.6-3.6-1.61-3.6-3.6-3.6Z"/>
    </g>
    <g>
      <line class="cls-1" x1="280.1" y1="172.5" x2="280.1" y2="235.08"/>
      <polygon class="cls-13" points="275.11 233.63 280.1 242.26 285.09 233.63 275.11 233.63"/>
    </g>
    <g>
      <line class="cls-1" x1="393.8" y1="236.7" x2="393.8" y2="179.68"/>
      <polygon class="cls-13" points="398.79 181.14 393.8 172.5 388.81 181.14 398.79 181.14"/>
    </g>
    <g>
      <line class="cls-1" x1="621.8" y1="236.7" x2="621.8" y2="182.04"/>
      <polygon class="cls-13" points="626.79 183.5 621.8 174.86 616.81 183.5 626.79 183.5"/>
    </g>
    <g>
      <line class="cls-1" x1="735.14" y1="242.26" x2="735.14" y2="182.04"/>
      <polygon class="cls-13" points="740.13 183.5 735.14 174.86 730.16 183.5 740.13 183.5"/>
    </g>
    <g>
      <line class="cls-1" x1="393.8" y1="288.9" x2="393.8" y2="357.92"/>
      <polygon class="cls-13" points="388.81 356.47 393.8 365.1 398.79 356.47 388.81 356.47"/>
    </g>
    <g>
      <polyline class="cls-1" points="432.2 385.2 507.5 385.2 507.5 290.08"/>
      <polygon class="cls-13" points="512.49 291.53 507.5 282.9 502.51 291.53 512.49 291.53"/>
    </g>
    <g>
      <polyline class="cls-1" points="621.8 288.9 621.8 451.48 393.8 451.48 393.8 412.48"/>
      <polygon class="cls-13" points="398.79 413.93 393.8 405.3 388.81 413.93 398.79 413.93"/>
    </g>
  </g>
</svg>