<?xml version="1.0" encoding="UTF-8"?>
<svg id="Ebene_1" data-name="Ebene 1" xmlns="http://www.w3.org/2000/svg" viewBox="0 0 988 525">
  <defs>
    <style>
      .cls-1 {
        letter-spacing: 0em;
      }

      .cls-2 {
        letter-spacing: 0em;
      }

      .cls-3 {
        letter-spacing: 0em;
      }

      .cls-4 {
        letter-spacing: 0em;
      }

      .cls-5 {
        letter-spacing: 0em;
      }

      .cls-6 {
        letter-spacing: 0em;
      }

      .cls-7 {
        letter-spacing: -.02em;
      }

      .cls-8 {
        letter-spacing: 0em;
      }

      .cls-9 {
        letter-spacing: 0em;
      }

      .cls-10 {
        letter-spacing: 0em;
      }

      .cls-11 {
        letter-spacing: 0em;
      }

      .cls-12 {
        letter-spacing: 0em;
      }

      .cls-13 {
        letter-spacing: 0em;
      }

      .cls-14 {
        letter-spacing: 0em;
      }

      .cls-15 {
        fill: none;
        stroke: #1d1d1b;
        stroke-miterlimit: 10;
        stroke-width: 2px;
      }

      .cls-16 {
        letter-spacing: 0em;
      }

      .cls-17 {
        letter-spacing: 0em;
      }

      .cls-18 {
        letter-spacing: 0em;
      }

      .cls-19 {
        letter-spacing: 0em;
      }

      .cls-20 {
        font-family: Arial-BoldMT, Arial;
        font-size: 22px;
        font-weight: 700;
      }

      .cls-20, .cls-21 {
        fill: #1d1d1b;
      }

      .cls-22 {
        letter-spacing: 0em;
      }

      .cls-23 {
        letter-spacing: 0em;
      }

      .cls-21, .cls-24 {
        stroke-width: 0px;
      }

      .cls-24 {
        fill: #0333ff;
      }

      .cls-25 {
        letter-spacing: 0em;
      }

      .cls-26 {
        letter-spacing: 0em;
      }

      .cls-27 {
        letter-spacing: 0em;
      }
    </style>
  </defs>
  <g>
    <text class="cls-20" transform="translate(187.64 115.24)"><tspan class="cls-12" x="0" y="0">D</tspan><tspan class="cls-6" x="15.76" y="0">a</tspan><tspan class="cls-1" x="27.93" y="0">t</tspan><tspan x="35.38" y="0">a </tspan><tspan class="cls-3" x="53.72" y="0">c</tspan><tspan class="cls-5" x="65.92" y="0">o</tspan><tspan class="cls-16" x="79.29" y="0">l</tspan><tspan class="cls-11" x="85.25" y="0">l</tspan><tspan class="cls-19" x="91.39" y="0">e</tspan><tspan class="cls-9" x="103.57" y="0">c</tspan><tspan class="cls-18" x="115.96" y="0">t</tspan><tspan class="cls-5" x="123.4" y="0">i</tspan><tspan class="cls-13" x="129.44" y="0">o</tspan><tspan x="142.8" y="0">n</tspan></text>
    <text class="cls-20" transform="translate(577.28 201.72)"><tspan class="cls-12" x="0" y="0">D</tspan><tspan class="cls-6" x="15.76" y="0">a</tspan><tspan class="cls-1" x="27.93" y="0">t</tspan><tspan x="35.38" y="0">a </tspan><tspan class="cls-22" x="53.72" y="0">d</tspan><tspan class="cls-27" x="67.07" y="0">i</tspan><tspan class="cls-2" x="73.2" y="0">s</tspan><tspan class="cls-8" x="85.23" y="0">p</tspan><tspan class="cls-23" x="98.65" y="0">l</tspan><tspan class="cls-7" x="104.71" y="0">a</tspan><tspan x="116.55" y="0">y</tspan></text>
    <text class="cls-20" transform="translate(270.43 340.22)"><tspan class="cls-12" x="0" y="0">D</tspan><tspan class="cls-6" x="15.76" y="0">a</tspan><tspan class="cls-1" x="27.93" y="0">t</tspan><tspan x="35.38" y="0">a </tspan><tspan class="cls-4" x="53.72" y="0">r</tspan><tspan class="cls-19" x="62.21" y="0">e</tspan><tspan class="cls-5" x="74.4" y="0">d</tspan><tspan class="cls-17" x="87.77" y="0">u</tspan><tspan class="cls-10" x="101.12" y="0">c</tspan><tspan class="cls-26" x="113.51" y="0">t</tspan><tspan class="cls-25" x="120.95" y="0">i</tspan><tspan class="cls-14" x="126.99" y="0">o</tspan><tspan x="140.35" y="0">n</tspan></text>
    <g>
      <path class="cls-21" d="m664.48,379.61l3.08.98c-.47,1.72-1.26,3-2.36,3.83s-2.49,1.25-4.18,1.25c-2.09,0-3.81-.71-5.16-2.14-1.35-1.43-2.02-3.38-2.02-5.86,0-2.62.68-4.66,2.03-6.11s3.13-2.18,5.34-2.18c1.93,0,3.49.57,4.69,1.71.72.67,1.25,1.64,1.61,2.9l-3.15.75c-.19-.82-.58-1.46-1.17-1.93-.59-.47-1.31-.71-2.15-.71-1.17,0-2.11.42-2.84,1.26-.73.84-1.09,2.2-1.09,4.07,0,1.99.36,3.41,1.07,4.25.72.85,1.65,1.27,2.79,1.27.85,0,1.57-.27,2.18-.81.61-.54,1.04-1.38,1.31-2.54Z"/>
      <path class="cls-21" d="m669.35,379.54c0-1,.25-1.97.74-2.91.49-.94,1.19-1.65,2.1-2.15s1.92-.74,3.04-.74c1.72,0,3.14.56,4.24,1.68,1.1,1.12,1.65,2.54,1.65,4.25s-.56,3.16-1.67,4.29-2.52,1.7-4.21,1.7c-1.05,0-2.04-.24-2.99-.71s-1.67-1.17-2.16-2.08-.74-2.03-.74-3.34Zm3.09.16c0,1.13.27,2,.81,2.6s1.2.9,1.99.9,1.45-.3,1.98-.9.8-1.47.8-2.62-.27-1.98-.8-2.58-1.19-.9-1.98-.9-1.45.3-1.99.9-.81,1.47-.81,2.6Z"/>
      <path class="cls-21" d="m693.78,385.4h-3.02v-5.82c0-1.23-.06-2.03-.19-2.39s-.34-.64-.63-.84c-.29-.2-.64-.3-1.05-.3-.52,0-.99.14-1.41.43-.41.29-.7.67-.85,1.14s-.23,1.35-.23,2.62v5.17h-3.02v-11.41h2.8v1.68c.99-1.29,2.25-1.93,3.76-1.93.67,0,1.27.12,1.83.36.55.24.97.55,1.25.92.28.37.48.79.59,1.27s.17,1.15.17,2.03v7.09Z"/>
      <path class="cls-21" d="m706.71,377.37l-2.97.54c-.1-.59-.33-1.04-.68-1.34-.36-.3-.82-.45-1.38-.45-.75,0-1.35.26-1.8.78-.45.52-.67,1.39-.67,2.6,0,1.35.23,2.31.68,2.87s1.06.84,1.83.84c.57,0,1.04-.16,1.41-.49s.62-.89.77-1.68l2.96.5c-.31,1.36-.9,2.39-1.77,3.08-.88.7-2.04,1.04-3.51,1.04-1.67,0-3-.53-3.99-1.58s-1.49-2.51-1.49-4.37.5-3.35,1.49-4.4c.99-1.05,2.34-1.57,4.04-1.57,1.39,0,2.49.3,3.31.9.82.6,1.41,1.51,1.77,2.73Z"/>
      <path class="cls-21" d="m708.91,385.4v-15.75h3.02v15.75h-3.02Z"/>
      <path class="cls-21" d="m722.4,385.4v-1.71c-.41.61-.96,1.09-1.64,1.44-.68.35-1.39.53-2.14.53s-1.45-.17-2.06-.5c-.61-.34-1.05-.81-1.32-1.42-.27-.61-.41-1.45-.41-2.52v-7.22h3.02v5.24c0,1.6.06,2.59.17,2.95.11.36.31.65.61.86.29.21.67.32,1.12.32.52,0,.98-.14,1.39-.42s.69-.63.84-1.05.22-1.45.22-3.08v-4.81h3.02v11.41h-2.8Z"/>
      <path class="cls-21" d="m727.24,382.15l3.03-.46c.13.59.39,1.03.78,1.34.39.3.95.46,1.65.46.78,0,1.37-.14,1.76-.43.27-.2.4-.47.4-.81,0-.23-.07-.42-.21-.57-.15-.14-.49-.28-1.01-.4-2.44-.54-3.98-1.03-4.63-1.47-.9-.62-1.35-1.47-1.35-2.57,0-.99.39-1.82,1.17-2.49.78-.67,1.99-1.01,3.63-1.01s2.72.25,3.48.76c.76.51,1.28,1.26,1.57,2.26l-2.85.53c-.12-.44-.35-.78-.69-1.02-.34-.24-.83-.35-1.46-.35-.79,0-1.36.11-1.71.33-.23.16-.34.36-.34.61,0,.21.1.4.3.55.27.2,1.21.48,2.82.85,1.61.37,2.73.81,3.37,1.34.63.54.95,1.29.95,2.25,0,1.05-.44,1.94-1.31,2.7-.88.75-2.17,1.13-3.88,1.13-1.55,0-2.78-.31-3.69-.95-.91-.63-1.5-1.49-1.78-2.57Z"/>
      <path class="cls-21" d="m740.32,372.45v-2.79h3.02v2.79h-3.02Zm0,12.96v-11.41h3.02v11.41h-3.02Z"/>
      <path class="cls-21" d="m745.67,379.54c0-1,.25-1.97.74-2.91.49-.94,1.2-1.65,2.1-2.15.9-.49,1.92-.74,3.03-.74,1.73,0,3.14.56,4.24,1.68,1.1,1.12,1.65,2.54,1.65,4.25s-.56,3.16-1.67,4.29c-1.12,1.13-2.52,1.7-4.21,1.7-1.04,0-2.04-.24-2.99-.71-.95-.47-1.67-1.17-2.17-2.08s-.74-2.03-.74-3.34Zm3.09.16c0,1.13.27,2,.8,2.6s1.2.9,1.99.9,1.45-.3,1.98-.9c.53-.6.8-1.47.8-2.62s-.27-1.98-.8-2.58c-.54-.6-1.2-.9-1.98-.9s-1.45.3-1.99.9-.8,1.47-.8,2.6Z"/>
      <path class="cls-21" d="m770.1,385.4h-3.02v-5.82c0-1.23-.06-2.03-.19-2.39s-.34-.64-.63-.84c-.29-.2-.64-.3-1.05-.3-.52,0-.99.14-1.41.43-.42.29-.7.67-.86,1.14-.15.47-.23,1.35-.23,2.62v5.17h-3.02v-11.41h2.8v1.68c1-1.29,2.25-1.93,3.76-1.93.67,0,1.28.12,1.83.36.55.24.97.55,1.25.92.28.37.48.79.59,1.27.11.47.17,1.15.17,2.03v7.09Z"/>
      <path class="cls-21" d="m772.05,382.15l3.03-.46c.13.59.39,1.03.78,1.34.39.3.95.46,1.65.46.78,0,1.37-.14,1.76-.43.27-.2.4-.47.4-.81,0-.23-.07-.42-.21-.57-.15-.14-.49-.28-1.01-.4-2.44-.54-3.98-1.03-4.63-1.47-.9-.62-1.35-1.47-1.35-2.57,0-.99.39-1.82,1.17-2.49.78-.67,1.99-1.01,3.63-1.01s2.72.25,3.48.76c.76.51,1.28,1.26,1.57,2.26l-2.85.53c-.12-.44-.35-.78-.69-1.02-.34-.24-.83-.35-1.46-.35-.79,0-1.36.11-1.71.33-.23.16-.34.36-.34.61,0,.21.1.4.3.55.27.2,1.21.48,2.82.85,1.61.37,2.73.81,3.37,1.34.63.54.95,1.29.95,2.25,0,1.05-.44,1.94-1.31,2.7-.88.75-2.17,1.13-3.88,1.13-1.55,0-2.78-.31-3.69-.95-.91-.63-1.5-1.49-1.78-2.57Z"/>
      <path class="cls-21" d="m785.15,377.01v-3.02h3.02v3.02h-3.02Zm0,8.39v-3.02h3.02v3.02h-3.02Z"/>
      <path class="cls-21" d="m642.68,411.8h-2.8v-1.68c-.46.65-1.02,1.14-1.65,1.46-.63.32-1.27.48-1.92.48-1.31,0-2.43-.53-3.37-1.58-.94-1.06-1.4-2.53-1.4-4.42s.46-3.4,1.37-4.41c.91-1.01,2.06-1.51,3.45-1.51,1.28,0,2.38.53,3.31,1.59v-5.67h3.02v15.75Zm-8.06-5.95c0,1.22.17,2.1.5,2.64.49.79,1.17,1.18,2.04,1.18.7,0,1.29-.3,1.77-.89.49-.59.73-1.47.73-2.65,0-1.31-.24-2.25-.71-2.83-.47-.58-1.08-.86-1.82-.86s-1.32.28-1.8.85c-.48.57-.72,1.42-.72,2.55Z"/>
      <path class="cls-21" d="m648.53,411.8h-3.02v-11.41h2.8v1.62c.48-.77.91-1.27,1.29-1.51.38-.24.82-.37,1.3-.37.69,0,1.35.19,1.99.57l-.93,2.63c-.51-.33-.98-.49-1.42-.49s-.78.12-1.07.35c-.29.23-.53.65-.69,1.26s-.25,1.88-.25,3.82v3.52Z"/>
      <path class="cls-21" d="m656.43,403.87l-2.74-.49c.31-1.1.84-1.92,1.59-2.45s1.87-.79,3.35-.79c1.35,0,2.35.16,3.01.48.66.32,1.12.72,1.39,1.21.27.49.4,1.39.4,2.7l-.03,3.52c0,1,.05,1.74.14,2.22.1.48.28.99.54,1.53h-2.99c-.08-.2-.18-.5-.29-.89-.05-.18-.09-.3-.11-.35-.52.5-1.07.88-1.65,1.13-.59.25-1.21.38-1.88.38-1.18,0-2.1-.32-2.78-.96-.68-.64-1.02-1.44-1.02-2.42,0-.64.15-1.22.46-1.72.31-.5.74-.89,1.29-1.16.55-.27,1.35-.5,2.4-.7,1.41-.26,2.39-.51,2.93-.74v-.3c0-.58-.14-.99-.43-1.24-.29-.25-.83-.37-1.62-.37-.54,0-.96.11-1.26.32-.3.21-.54.58-.73,1.11Zm4.04,2.45c-.39.13-1,.28-1.84.46s-1.39.35-1.64.53c-.39.28-.59.63-.59,1.06s.16.79.47,1.1c.31.31.71.46,1.2.46.54,0,1.06-.18,1.56-.54.37-.27.61-.61.72-1,.08-.26.12-.75.12-1.47v-.6Z"/>
      <path class="cls-21" d="m668.31,411.8l-3.61-11.41h2.93l2.14,7.48,1.96-7.48h2.91l1.9,7.48,2.18-7.48h2.97l-3.66,11.41h-2.9l-1.97-7.34-1.93,7.34h-2.93Z"/>
      <path class="cls-21" d="m683.28,398.85v-2.79h3.02v2.79h-3.02Zm0,12.96v-11.41h3.02v11.41h-3.02Z"/>
      <path class="cls-21" d="m699.62,411.8h-3.02v-5.82c0-1.23-.06-2.03-.19-2.39-.13-.36-.34-.64-.63-.84-.29-.2-.64-.3-1.05-.3-.52,0-.99.14-1.41.43-.41.29-.7.67-.85,1.14s-.23,1.35-.23,2.62v5.17h-3.02v-11.41h2.8v1.68c.99-1.29,2.25-1.93,3.76-1.93.67,0,1.27.12,1.83.36.55.24.97.55,1.25.92.28.37.48.79.59,1.27s.17,1.15.17,2.03v7.09Z"/>
      <path class="cls-21" d="m702.32,412.55l3.45.42c.06.4.19.68.4.83.29.21.74.32,1.35.32.79,0,1.38-.12,1.77-.35.26-.16.46-.41.6-.76.09-.25.14-.71.14-1.39v-1.67c-.9,1.23-2.04,1.85-3.42,1.85-1.53,0-2.75-.65-3.64-1.94-.7-1.02-1.05-2.3-1.05-3.82,0-1.91.46-3.37,1.38-4.38.92-1.01,2.06-1.51,3.43-1.51s2.57.62,3.49,1.86v-1.6h2.83v10.24c0,1.35-.11,2.35-.33,3.02-.22.67-.53,1.19-.93,1.57-.4.38-.94.68-1.61.89-.67.21-1.52.32-2.54.32-1.93,0-3.3-.33-4.12-.99-.81-.66-1.21-1.5-1.21-2.52,0-.1,0-.22,0-.37Zm2.7-6.69c0,1.21.23,2.1.7,2.66.47.56,1.05.84,1.73.84.74,0,1.36-.29,1.87-.87.51-.58.76-1.43.76-2.56s-.24-2.06-.73-2.63c-.49-.57-1.1-.86-1.85-.86s-1.32.28-1.79.84c-.47.56-.7,1.42-.7,2.57Z"/>
      <path class="cls-21" d="m714.6,412.07l3.9-16.29h2.27l-3.94,16.29h-2.22Z"/>
      <path class="cls-21" d="m725.67,411.8l-4.6-11.41h3.17l2.15,5.82.62,1.94c.16-.49.27-.82.31-.98.1-.32.21-.64.32-.97l2.17-5.82h3.11l-4.53,11.41h-2.72Z"/>
      <path class="cls-21" d="m740.9,408.17l3.01.5c-.39,1.1-1,1.94-1.83,2.52-.83.58-1.88.87-3.13.87-1.98,0-3.45-.65-4.4-1.94-.75-1.04-1.13-2.35-1.13-3.93,0-1.89.49-3.37,1.48-4.44.99-1.07,2.24-1.61,3.75-1.61,1.7,0,3.04.56,4.02,1.68.98,1.12,1.45,2.84,1.41,5.15h-7.56c.02.9.27,1.59.73,2.09.47.5,1.05.75,1.74.75.47,0,.87-.13,1.19-.39s.56-.67.73-1.25Zm.17-3.05c-.02-.87-.25-1.54-.68-1.99-.43-.45-.95-.68-1.57-.68-.66,0-1.2.24-1.63.72s-.64,1.13-.63,1.96h4.51Z"/>
      <path class="cls-21" d="m749.37,411.8h-3.02v-11.41h2.8v1.62c.48-.77.91-1.27,1.29-1.51s.82-.37,1.3-.37c.69,0,1.35.19,1.99.57l-.94,2.63c-.51-.33-.98-.49-1.42-.49s-.78.12-1.07.35c-.29.23-.52.65-.69,1.26-.17.61-.25,1.88-.25,3.82v3.52Z"/>
      <path class="cls-21" d="m755.16,398.85v-2.79h3.02v2.79h-3.02Zm0,12.96v-11.41h3.02v11.41h-3.02Z"/>
      <path class="cls-21" d="m759.96,400.39h1.68v-.86c0-.96.1-1.68.31-2.15.2-.47.58-.86,1.13-1.16.55-.3,1.24-.45,2.08-.45s1.7.13,2.52.39l-.41,2.11c-.48-.11-.94-.17-1.38-.17s-.75.1-.94.31c-.19.2-.28.6-.28,1.18v.81h2.26v2.37h-2.26v9.03h-3.02v-9.03h-1.68v-2.37Z"/>
      <path class="cls-21" d="m767.83,400.39h3.21l2.73,8.1,2.66-8.1h3.12l-4.03,10.98-.72,1.99c-.26.67-.52,1.17-.76,1.53-.24.35-.52.63-.83.85-.31.22-.7.39-1.15.51-.45.12-.97.18-1.54.18s-1.15-.06-1.71-.18l-.27-2.36c.47.09.9.14,1.28.14.7,0,1.22-.21,1.56-.62.34-.41.6-.94.77-1.57l-4.34-11.44Z"/>
      <path class="cls-21" d="m781.3,398.85v-2.79h3.02v2.79h-3.02Zm0,12.96v-11.41h3.02v11.41h-3.02Z"/>
      <path class="cls-21" d="m797.64,411.8h-3.02v-5.82c0-1.23-.06-2.03-.19-2.39-.13-.36-.34-.64-.63-.84-.29-.2-.64-.3-1.05-.3-.52,0-.99.14-1.41.43-.42.29-.7.67-.86,1.14-.15.47-.23,1.35-.23,2.62v5.17h-3.02v-11.41h2.8v1.68c1-1.29,2.25-1.93,3.76-1.93.67,0,1.28.12,1.83.36.55.24.97.55,1.25.92s.48.79.59,1.27c.11.47.17,1.15.17,2.03v7.09Z"/>
      <path class="cls-21" d="m800.34,412.55l3.45.42c.06.4.19.68.4.83.29.21.74.32,1.35.32.79,0,1.38-.12,1.77-.35.27-.16.47-.41.6-.76.09-.25.14-.71.14-1.39v-1.67c-.9,1.23-2.04,1.85-3.42,1.85-1.53,0-2.75-.65-3.64-1.94-.7-1.02-1.05-2.3-1.05-3.82,0-1.91.46-3.37,1.38-4.38s2.06-1.51,3.43-1.51,2.57.62,3.49,1.86v-1.6h2.82v10.24c0,1.35-.11,2.35-.33,3.02-.22.67-.53,1.19-.94,1.57-.4.38-.94.68-1.61.89s-1.52.32-2.54.32c-1.93,0-3.3-.33-4.11-.99-.81-.66-1.21-1.5-1.21-2.52,0-.1,0-.22.01-.37Zm2.7-6.69c0,1.21.23,2.1.7,2.66.47.56,1.05.84,1.74.84.74,0,1.36-.29,1.87-.87.51-.58.76-1.43.76-2.56s-.24-2.06-.73-2.63c-.49-.57-1.1-.86-1.85-.86s-1.32.28-1.79.84c-.47.56-.7,1.42-.7,2.57Z"/>
    </g>
    <g>
      <line class="cls-15" x1="690.42" y1="250.27" x2="690.42" y2="316.88"/>
      <polygon class="cls-21" points="680.45 253.19 690.42 235.92 700.39 253.19 680.45 253.19"/>
      <polygon class="cls-21" points="680.45 313.96 690.42 331.23 700.39 313.96 680.45 313.96"/>
    </g>
    <g>
      <line class="cls-15" x1="526.35" y1="219.77" x2="442.47" y2="290.48"/>
      <polygon class="cls-21" points="517.69 214.03 537.32 210.52 530.55 229.28 517.69 214.03"/>
      <polygon class="cls-21" points="438.28 280.98 431.5 299.73 451.13 296.22 438.28 280.98"/>
    </g>
    <g>
      <line class="cls-15" x1="558.68" y1="375.92" x2="473.25" y2="343.93"/>
      <polygon class="cls-21" points="559.44 365.56 572.12 380.95 552.45 384.23 559.44 365.56"/>
      <polygon class="cls-21" points="479.48 335.62 459.81 338.9 472.49 354.3 479.48 335.62"/>
    </g>
    <ellipse class="cls-15" cx="641.67" cy="192.74" rx="112.5" ry="47.5"/>
    <ellipse class="cls-15" cx="347.31" cy="331.23" rx="112.5" ry="47.5"/>
    <ellipse class="cls-15" cx="715.93" cy="391.97" rx="146.22" ry="60.74"/>
    <ellipse class="cls-15" cx="265.74" cy="106.25" rx="112.5" ry="47.5"/>
    <g>
      <path class="cls-15" d="m238.47,298.18c-18.61-22.49-29.27-48.65-29.27-76.56,0-25.06,8.59-48.7,23.82-69.55"/>
      <polygon class="cls-21" points="244.07 289.28 248.12 308.81 229.18 302.56 244.07 289.28"/>
    </g>
    <g>
      <path class="cls-15" d="m355.32,77.51c21.99-5.31,45.58-8.19,70.12-8.19,73.88,0,139.11,26.1,178.12,65.92"/>
      <polygon class="cls-21" points="594.1 139.96 613.13 145.93 608.8 126.47 594.1 139.96"/>
    </g>
    <g>
      <path class="cls-15" d="m168.17,145.22c-26.89,31.72-42.32,68.75-42.32,108.3,0,117.49,136.21,212.73,304.23,212.73,63.01,0,121.54-13.39,170.1-36.33"/>
      <polygon class="cls-21" points="158.86 140.81 177.8 134.59 173.72 154.11 158.86 140.81"/>
    </g>
  </g>
  <g>
    <path class="cls-24" d="m736.39,270.29v-10.02h1.33v10.02h-1.33Z"/>
    <path class="cls-24" d="m739.79,270.29v-7.26h1.11v1.03c.53-.8,1.3-1.2,2.31-1.2.44,0,.84.08,1.21.24.37.16.64.36.82.62.18.25.31.56.38.91.05.23.07.63.07,1.2v4.46h-1.23v-4.42c0-.5-.05-.88-.14-1.12-.1-.25-.27-.45-.51-.59-.24-.15-.53-.22-.86-.22-.52,0-.98.17-1.36.5s-.57.96-.57,1.89v3.96h-1.23Z"/>
    <path class="cls-24" d="m750.04,269.19l.18,1.09c-.35.07-.66.11-.93.11-.45,0-.79-.07-1.04-.21s-.42-.33-.52-.56c-.1-.23-.15-.71-.15-1.45v-4.18h-.9v-.96h.9v-1.8l1.22-.74v2.54h1.24v.96h-1.24v4.25c0,.35.02.58.07.68s.11.18.21.24.24.09.42.09c.14,0,.32-.02.54-.05Z"/>
    <path class="cls-24" d="m756.01,267.96l1.27.16c-.2.74-.57,1.32-1.11,1.73s-1.23.62-2.08.62c-1.06,0-1.9-.33-2.53-.98-.62-.65-.93-1.57-.93-2.75s.31-2.17.94-2.84,1.45-1.01,2.45-1.01,1.76.33,2.38.99.92,1.59.92,2.79c0,.07,0,.18,0,.33h-5.41c.04.8.27,1.41.68,1.83s.91.64,1.52.64c.45,0,.84-.12,1.16-.36s.57-.62.76-1.13Zm-4.04-1.99h4.05c-.05-.61-.21-1.07-.46-1.37-.39-.47-.9-.71-1.52-.71-.56,0-1.04.19-1.43.57-.38.38-.6.88-.64,1.52Z"/>
    <path class="cls-24" d="m758.74,270.29v-7.26h1.11v1.1c.28-.51.54-.85.78-1.02.24-.16.5-.25.79-.25.41,0,.84.13,1.26.4l-.42,1.14c-.3-.18-.6-.27-.9-.27-.27,0-.51.08-.72.24-.21.16-.37.39-.46.67-.14.44-.21.92-.21,1.44v3.8h-1.23Z"/>
    <path class="cls-24" d="m763.53,273.08v-10.04h1.12v.94c.26-.37.56-.65.9-.83.33-.19.74-.28,1.21-.28.62,0,1.17.16,1.64.48s.83.77,1.07,1.35c.24.58.36,1.22.36,1.91,0,.74-.13,1.41-.4,2.01-.27.59-.65,1.05-1.16,1.37-.51.32-1.04.47-1.6.47-.41,0-.78-.09-1.1-.26-.33-.17-.59-.39-.8-.66v3.53h-1.23Zm1.11-6.37c0,.93.19,1.62.57,2.07s.84.67,1.37.67,1.02-.23,1.4-.69c.39-.46.58-1.18.58-2.15s-.19-1.62-.57-2.08c-.38-.46-.83-.69-1.36-.69s-.99.25-1.39.74c-.4.49-.61,1.2-.61,2.14Z"/>
    <path class="cls-24" d="m771.23,270.29v-7.26h1.11v1.1c.28-.51.54-.85.78-1.02.24-.16.5-.25.79-.25.42,0,.84.13,1.26.4l-.42,1.14c-.3-.18-.6-.27-.9-.27-.27,0-.51.08-.72.24-.21.16-.37.39-.46.67-.14.44-.21.92-.21,1.44v3.8h-1.23Z"/>
    <path class="cls-24" d="m780.78,267.96l1.27.16c-.2.74-.57,1.32-1.11,1.73s-1.23.62-2.08.62c-1.06,0-1.9-.33-2.53-.98-.62-.65-.93-1.57-.93-2.75s.31-2.17.94-2.84,1.45-1.01,2.45-1.01,1.76.33,2.38.99.92,1.59.92,2.79c0,.07,0,.18,0,.33h-5.41c.04.8.27,1.41.68,1.83s.91.64,1.52.64c.45,0,.84-.12,1.16-.36s.57-.62.76-1.13Zm-4.04-1.99h4.05c-.05-.61-.21-1.07-.46-1.37-.39-.47-.9-.71-1.52-.71-.56,0-1.04.19-1.43.57-.38.38-.6.88-.64,1.52Z"/>
    <path class="cls-24" d="m786.06,269.19l.18,1.09c-.35.07-.66.11-.93.11-.45,0-.79-.07-1.04-.21s-.42-.33-.52-.56c-.1-.23-.15-.71-.15-1.45v-4.18h-.9v-.96h.9v-1.8l1.22-.74v2.54h1.24v.96h-1.24v4.25c0,.35.02.58.06.68.04.1.11.18.21.24.1.06.24.09.42.09.14,0,.32-.02.54-.05Z"/>
    <path class="cls-24" d="m793.83,269.19l.18,1.09c-.35.07-.66.11-.93.11-.45,0-.79-.07-1.04-.21s-.42-.33-.52-.56c-.1-.23-.15-.71-.15-1.45v-4.18h-.9v-.96h.9v-1.8l1.22-.74v2.54h1.24v.96h-1.24v4.25c0,.35.02.58.06.68.04.1.11.18.21.24.1.06.24.09.42.09.14,0,.32-.02.54-.05Z"/>
    <path class="cls-24" d="m795.01,270.29v-10.02h1.23v3.6c.57-.67,1.3-1,2.17-1,.54,0,1,.11,1.4.32.4.21.68.5.85.88.17.37.26.92.26,1.63v4.6h-1.23v-4.6c0-.62-.13-1.06-.4-1.34-.27-.28-.64-.42-1.13-.42-.37,0-.71.09-1.03.28-.32.19-.55.45-.69.77s-.21.77-.21,1.34v3.97h-1.23Z"/>
    <path class="cls-24" d="m807.68,267.96l1.27.16c-.2.74-.57,1.32-1.12,1.73-.54.41-1.23.62-2.08.62-1.06,0-1.9-.33-2.53-.98-.62-.65-.93-1.57-.93-2.75s.31-2.17.94-2.84,1.45-1.01,2.45-1.01,1.76.33,2.38.99.92,1.59.92,2.79c0,.07,0,.18,0,.33h-5.41c.05.8.27,1.41.68,1.83.41.42.91.64,1.52.64.45,0,.84-.12,1.15-.36.32-.24.57-.62.76-1.13Zm-4.04-1.99h4.05c-.05-.61-.21-1.07-.46-1.37-.39-.47-.9-.71-1.53-.71-.56,0-1.04.19-1.42.57s-.6.88-.64,1.52Z"/>
    <path class="cls-24" d="m814.38,273.08v-10.04h1.12v.94c.26-.37.56-.65.9-.83.33-.19.74-.28,1.21-.28.62,0,1.17.16,1.64.48.47.32.83.77,1.07,1.35.24.58.36,1.22.36,1.91,0,.74-.13,1.41-.4,2.01-.27.59-.65,1.05-1.16,1.37-.51.32-1.04.47-1.6.47-.41,0-.78-.09-1.1-.26s-.59-.39-.8-.66v3.53h-1.23Zm1.12-6.37c0,.93.19,1.62.57,2.07.38.45.84.67,1.38.67s1.01-.23,1.4-.69c.39-.46.58-1.18.58-2.15s-.19-1.62-.57-2.08-.83-.69-1.36-.69-.99.25-1.39.74c-.4.49-.6,1.2-.6,2.14Z"/>
    <path class="cls-24" d="m826.79,269.4c-.46.39-.89.66-1.32.82s-.87.24-1.36.24c-.8,0-1.41-.2-1.84-.58-.43-.39-.64-.89-.64-1.49,0-.36.08-.68.24-.97.16-.29.37-.53.64-.71s.56-.31.88-.4c.24-.06.61-.12,1.09-.18.99-.12,1.73-.26,2.2-.42,0-.17,0-.28,0-.32,0-.5-.12-.85-.35-1.06-.31-.28-.78-.42-1.4-.42-.58,0-1.01.1-1.28.3-.28.2-.48.56-.61,1.08l-1.2-.16c.11-.51.29-.93.54-1.25.25-.32.61-.56,1.09-.73.47-.17,1.02-.26,1.65-.26s1.12.07,1.51.22c.39.15.67.33.85.55.18.22.31.5.38.84.04.21.06.59.06,1.13v1.64c0,1.14.03,1.87.08,2.17.05.3.16.59.31.87h-1.29c-.13-.25-.21-.55-.25-.9Zm-.1-2.75c-.45.18-1.12.34-2.01.46-.51.07-.86.16-1.07.25-.21.09-.37.22-.48.4-.11.18-.17.37-.17.58,0,.33.12.6.37.82s.61.33,1.09.33.9-.1,1.27-.31c.37-.21.64-.49.81-.85.13-.28.2-.69.2-1.23v-.45Z"/>
    <path class="cls-24" d="m832.33,269.19l.18,1.09c-.35.07-.66.11-.93.11-.45,0-.79-.07-1.04-.21s-.42-.33-.52-.56c-.1-.23-.15-.71-.15-1.45v-4.18h-.9v-.96h.9v-1.8l1.22-.74v2.54h1.24v.96h-1.24v4.25c0,.35.02.58.06.68.04.1.11.18.21.24.1.06.24.09.42.09.14,0,.32-.02.54-.05Z"/>
    <path class="cls-24" d="m836.44,269.19l.18,1.09c-.35.07-.66.11-.93.11-.45,0-.79-.07-1.04-.21s-.42-.33-.52-.56c-.1-.23-.15-.71-.15-1.45v-4.18h-.9v-.96h.9v-1.8l1.22-.74v2.54h1.24v.96h-1.24v4.25c0,.35.02.58.06.68s.11.18.21.24.24.09.42.09c.14,0,.32-.02.54-.05Z"/>
    <path class="cls-24" d="m842.41,267.96l1.27.16c-.2.74-.57,1.32-1.12,1.73-.54.41-1.23.62-2.08.62-1.06,0-1.9-.33-2.53-.98-.62-.65-.93-1.57-.93-2.75s.31-2.17.94-2.84,1.45-1.01,2.45-1.01,1.76.33,2.38.99.92,1.59.92,2.79c0,.07,0,.18,0,.33h-5.41c.05.8.27,1.41.68,1.83.41.42.91.64,1.52.64.45,0,.84-.12,1.15-.36.32-.24.57-.62.76-1.13Zm-4.04-1.99h4.05c-.05-.61-.21-1.07-.46-1.37-.39-.47-.9-.71-1.53-.71-.56,0-1.04.19-1.42.57s-.6.88-.64,1.52Z"/>
    <path class="cls-24" d="m845.13,270.29v-7.26h1.11v1.1c.28-.51.54-.85.78-1.02.24-.16.5-.25.79-.25.42,0,.84.13,1.27.4l-.42,1.14c-.3-.18-.6-.27-.9-.27-.27,0-.51.08-.72.24-.21.16-.37.39-.46.67-.14.44-.21.92-.21,1.44v3.8h-1.23Z"/>
    <path class="cls-24" d="m849.92,270.29v-7.26h1.11v1.03c.53-.8,1.3-1.2,2.31-1.2.44,0,.84.08,1.21.24.37.16.64.36.82.62.18.25.31.56.38.91.05.23.07.63.07,1.2v4.46h-1.23v-4.42c0-.5-.05-.88-.14-1.12-.1-.25-.27-.45-.51-.59-.24-.15-.53-.22-.86-.22-.53,0-.98.17-1.36.5s-.57.96-.57,1.89v3.96h-1.23Z"/>
    <path class="cls-24" d="m857.09,268.13l1.22-.19c.07.49.26.86.57,1.12.31.26.75.39,1.31.39s.98-.12,1.26-.35c.27-.23.41-.5.41-.81,0-.28-.12-.5-.36-.66-.17-.11-.59-.25-1.26-.42-.9-.23-1.53-.42-1.88-.59-.35-.17-.61-.4-.79-.69-.18-.29-.27-.62-.27-.97,0-.32.07-.62.22-.9.15-.28.35-.5.61-.69.19-.14.45-.26.78-.36.33-.1.68-.15,1.06-.15.57,0,1.07.08,1.5.25.43.16.75.39.95.67.21.28.35.66.42,1.12l-1.2.16c-.05-.37-.21-.67-.47-.88s-.63-.31-1.11-.31c-.56,0-.97.09-1.21.28-.24.19-.36.41-.36.66,0,.16.05.3.15.43.1.13.26.24.47.33.12.05.48.15,1.09.31.87.23,1.48.42,1.82.57.34.15.61.36.81.65.2.28.29.63.29,1.05s-.12.8-.36,1.16c-.24.36-.59.64-1.04.84-.45.2-.96.3-1.53.3-.94,0-1.66-.2-2.16-.59s-.81-.97-.95-1.74Z"/>
    <path class="cls-24" d="m873.21,269.4c-.46.39-.89.66-1.32.82-.42.16-.87.24-1.36.24-.8,0-1.41-.2-1.84-.58-.43-.39-.64-.89-.64-1.49,0-.36.08-.68.24-.97.16-.29.38-.53.64-.71s.56-.31.88-.4c.24-.06.61-.12,1.09-.18.99-.12,1.72-.26,2.2-.42,0-.17,0-.28,0-.32,0-.5-.12-.85-.35-1.06-.31-.28-.78-.42-1.4-.42-.58,0-1.01.1-1.28.3-.28.2-.48.56-.61,1.08l-1.2-.16c.11-.51.29-.93.54-1.25.25-.32.61-.56,1.09-.73.47-.17,1.02-.26,1.65-.26s1.12.07,1.51.22c.39.15.67.33.85.55.18.22.31.5.38.84.04.21.06.59.06,1.13v1.64c0,1.14.03,1.87.08,2.17.05.3.16.59.31.87h-1.29c-.13-.25-.21-.55-.25-.9Zm-.1-2.75c-.45.18-1.12.34-2.01.46-.51.07-.86.16-1.07.25-.21.09-.37.22-.48.4-.12.18-.17.37-.17.58,0,.33.12.6.37.82s.61.33,1.09.33.9-.1,1.27-.31c.37-.21.64-.49.81-.85.13-.28.2-.69.2-1.23v-.45Z"/>
    <path class="cls-24" d="m876.14,270.29v-7.26h1.11v1.03c.53-.8,1.3-1.2,2.31-1.2.44,0,.84.08,1.21.24.37.16.64.36.82.62.18.25.31.56.38.91.05.23.07.63.07,1.2v4.46h-1.23v-4.42c0-.5-.05-.88-.14-1.12-.1-.25-.27-.45-.51-.59-.24-.15-.53-.22-.86-.22-.53,0-.98.17-1.36.5s-.57.96-.57,1.89v3.96h-1.23Z"/>
    <path class="cls-24" d="m888.55,270.29v-.92c-.46.72-1.14,1.08-2.03,1.08-.58,0-1.11-.16-1.6-.48-.48-.32-.86-.76-1.13-1.34-.27-.57-.4-1.23-.4-1.97s.12-1.38.36-1.97c.24-.59.6-1.04,1.09-1.36.48-.31,1.02-.47,1.62-.47.44,0,.83.09,1.17.28.34.18.62.42.83.72v-3.6h1.22v10.02h-1.14Zm-3.89-3.62c0,.93.2,1.62.59,2.08.39.46.86.69,1.39.69s.99-.22,1.37-.66c.38-.44.56-1.11.56-2.01,0-.99-.19-1.72-.57-2.19s-.85-.7-1.41-.7-1,.22-1.37.67-.55,1.15-.55,2.11Z"/>
    <path class="cls-24" d="m898.21,269.19l.18,1.09c-.35.07-.66.11-.93.11-.45,0-.79-.07-1.04-.21s-.42-.33-.52-.56c-.1-.23-.15-.71-.15-1.45v-4.18h-.9v-.96h.9v-1.8l1.22-.74v2.54h1.24v.96h-1.24v4.25c0,.35.02.58.07.68.04.1.11.18.21.24s.24.09.42.09c.14,0,.32-.02.54-.05Z"/>
    <path class="cls-24" d="m899.38,270.29v-10.02h1.23v3.6c.57-.67,1.3-1,2.17-1,.54,0,1.01.11,1.4.32.4.21.68.5.85.88.17.37.26.92.26,1.63v4.6h-1.23v-4.6c0-.62-.13-1.06-.4-1.34-.27-.28-.64-.42-1.13-.42-.37,0-.71.09-1.03.28-.32.19-.55.45-.69.77s-.21.77-.21,1.34v3.97h-1.23Z"/>
    <path class="cls-24" d="m912.05,267.96l1.27.16c-.2.74-.57,1.32-1.12,1.73-.54.41-1.23.62-2.08.62-1.06,0-1.9-.33-2.53-.98-.62-.65-.93-1.57-.93-2.75s.31-2.17.94-2.84,1.45-1.01,2.45-1.01,1.76.33,2.38.99.92,1.59.92,2.79c0,.07,0,.18,0,.33h-5.41c.05.8.27,1.41.68,1.83.4.42.91.64,1.52.64.45,0,.84-.12,1.15-.36.32-.24.57-.62.76-1.13Zm-4.04-1.99h4.05c-.05-.61-.21-1.07-.46-1.37-.39-.47-.9-.71-1.53-.71-.56,0-1.04.19-1.42.57-.39.38-.6.88-.64,1.52Z"/>
    <path class="cls-24" d="m914.77,270.29v-7.26h1.1v1.02c.23-.36.53-.64.91-.86.38-.22.81-.32,1.29-.32.54,0,.98.11,1.32.33.35.22.59.54.73.94.57-.85,1.32-1.27,2.24-1.27.72,0,1.27.2,1.66.6.39.4.58,1.01.58,1.84v4.98h-1.22v-4.57c0-.49-.04-.85-.12-1.06-.08-.22-.22-.39-.43-.52-.21-.13-.46-.2-.74-.2-.51,0-.93.17-1.27.51-.34.34-.51.88-.51,1.63v4.22h-1.23v-4.72c0-.55-.1-.96-.3-1.23-.2-.27-.53-.41-.98-.41-.35,0-.67.09-.96.27-.29.18-.51.45-.64.8-.13.35-.2.86-.2,1.52v3.77h-1.23Z"/>
    <path class="cls-24" d="m931.34,267.96l1.27.16c-.2.74-.57,1.32-1.11,1.73-.54.41-1.24.62-2.08.62-1.06,0-1.9-.33-2.53-.98-.62-.65-.93-1.57-.93-2.75s.31-2.17.94-2.84,1.44-1.01,2.45-1.01,1.76.33,2.38.99.92,1.59.92,2.79c0,.07,0,.18,0,.33h-5.41c.04.8.27,1.41.68,1.83.41.42.91.64,1.52.64.45,0,.84-.12,1.16-.36.32-.24.57-.62.76-1.13Zm-4.04-1.99h4.05c-.05-.61-.21-1.07-.46-1.37-.39-.47-.9-.71-1.52-.71-.57,0-1.04.19-1.43.57s-.6.88-.64,1.52Z"/>
    <path class="cls-24" d="m933.61,268.13l1.22-.19c.07.49.26.86.57,1.12.31.26.75.39,1.31.39s.98-.12,1.26-.35c.27-.23.41-.5.41-.81,0-.28-.12-.5-.36-.66-.17-.11-.59-.25-1.26-.42-.9-.23-1.53-.42-1.88-.59-.35-.17-.61-.4-.79-.69-.18-.29-.27-.62-.27-.97,0-.32.07-.62.22-.9.15-.28.35-.5.61-.69.19-.14.45-.26.78-.36.33-.1.68-.15,1.06-.15.57,0,1.07.08,1.5.25.43.16.75.39.95.67.21.28.35.66.42,1.12l-1.2.16c-.05-.37-.21-.67-.47-.88s-.63-.31-1.11-.31c-.56,0-.97.09-1.21.28-.24.19-.36.41-.36.66,0,.16.05.3.15.43.1.13.26.24.47.33.12.05.48.15,1.09.31.87.23,1.48.42,1.82.57.34.15.61.36.81.65.2.28.29.63.29,1.05s-.12.8-.36,1.16c-.24.36-.59.64-1.04.84-.45.2-.96.3-1.53.3-.94,0-1.66-.2-2.16-.59s-.81-.97-.95-1.74Z"/>
    <path class="cls-24" d="m736.02,278.49v-1.42h1.23v1.42h-1.23Zm0,8.61v-7.26h1.23v7.26h-1.23Z"/>
    <path class="cls-24" d="m743.79,287.09v-.92c-.46.72-1.14,1.08-2.03,1.08-.58,0-1.11-.16-1.6-.48-.49-.32-.86-.76-1.13-1.34-.27-.57-.4-1.23-.4-1.97s.12-1.38.36-1.97c.24-.59.6-1.04,1.09-1.36s1.02-.47,1.62-.47c.44,0,.83.09,1.17.28.34.18.62.42.83.72v-3.6h1.22v10.02h-1.14Zm-3.89-3.62c0,.93.2,1.62.59,2.08s.85.69,1.39.69,1-.22,1.37-.66c.38-.44.56-1.11.56-2.01,0-.99-.19-1.72-.57-2.19s-.85-.7-1.42-.7-1,.22-1.37.67c-.37.45-.55,1.15-.55,2.11Z"/>
    <path class="cls-24" d="m751.73,284.76l1.27.16c-.2.74-.57,1.32-1.12,1.73-.54.41-1.23.62-2.08.62-1.06,0-1.9-.33-2.53-.98-.62-.65-.93-1.57-.93-2.75s.31-2.17.94-2.84,1.45-1.01,2.45-1.01,1.76.33,2.38.99.92,1.59.92,2.79c0,.07,0,.18,0,.33h-5.41c.05.8.27,1.41.68,1.83.41.42.91.64,1.52.64.45,0,.84-.12,1.15-.36.32-.24.57-.62.76-1.13Zm-4.04-1.99h4.05c-.05-.61-.21-1.07-.46-1.37-.39-.47-.9-.71-1.53-.71-.56,0-1.04.19-1.42.57s-.6.88-.64,1.52Z"/>
    <path class="cls-24" d="m754.46,287.09v-7.26h1.11v1.03c.53-.8,1.3-1.2,2.31-1.2.44,0,.84.08,1.21.24.37.16.64.36.82.62s.31.56.38.91c.04.23.07.63.07,1.2v4.46h-1.23v-4.42c0-.5-.05-.88-.14-1.12-.1-.25-.27-.45-.51-.59-.24-.15-.53-.22-.86-.22-.52,0-.98.17-1.36.5-.38.33-.57.96-.57,1.89v3.96h-1.23Z"/>
    <path class="cls-24" d="m764.71,285.99l.18,1.09c-.35.07-.66.11-.93.11-.45,0-.79-.07-1.04-.21s-.42-.33-.52-.56c-.1-.23-.15-.71-.15-1.45v-4.18h-.9v-.96h.9v-1.8l1.22-.74v2.54h1.24v.96h-1.24v4.25c0,.35.02.58.06.68.04.1.11.18.21.24.1.06.24.09.42.09.14,0,.32-.02.54-.05Z"/>
    <path class="cls-24" d="m765.88,278.49v-1.42h1.23v1.42h-1.23Zm0,8.61v-7.26h1.23v7.26h-1.23Z"/>
    <path class="cls-24" d="m769.22,287.09v-6.3h-1.09v-.96h1.09v-.77c0-.49.04-.85.13-1.09.12-.32.33-.58.63-.78.3-.2.72-.3,1.25-.3.35,0,.73.04,1.15.12l-.18,1.07c-.25-.05-.5-.07-.72-.07-.37,0-.64.08-.79.24s-.23.46-.23.9v.67h1.42v.96h-1.42v6.3h-1.22Z"/>
    <path class="cls-24" d="m773.08,278.49v-1.42h1.23v1.42h-1.23Zm0,8.61v-7.26h1.23v7.26h-1.23Z"/>
    <path class="cls-24" d="m781.1,284.76l1.27.16c-.2.74-.57,1.32-1.11,1.73s-1.24.62-2.08.62c-1.06,0-1.9-.33-2.53-.98-.62-.65-.93-1.57-.93-2.75s.31-2.17.94-2.84,1.44-1.01,2.45-1.01,1.76.33,2.38.99.92,1.59.92,2.79c0,.07,0,.18,0,.33h-5.41c.05.8.27,1.41.68,1.83s.91.64,1.52.64c.45,0,.84-.12,1.16-.36s.57-.62.76-1.13Zm-4.04-1.99h4.05c-.05-.61-.21-1.07-.46-1.37-.39-.47-.9-.71-1.52-.71-.57,0-1.04.19-1.42.57-.39.38-.6.88-.64,1.52Z"/>
    <path class="cls-24" d="m788.57,287.09v-.92c-.46.72-1.14,1.08-2.03,1.08-.58,0-1.11-.16-1.6-.48-.49-.32-.86-.76-1.13-1.34-.27-.57-.4-1.23-.4-1.97s.12-1.38.36-1.97c.24-.59.6-1.04,1.09-1.36s1.02-.47,1.62-.47c.44,0,.83.09,1.17.28.34.18.62.42.83.72v-3.6h1.22v10.02h-1.14Zm-3.89-3.62c0,.93.2,1.62.59,2.08s.85.69,1.39.69,1-.22,1.37-.66c.38-.44.56-1.11.56-2.01,0-.99-.19-1.72-.57-2.19s-.85-.7-1.42-.7-1,.22-1.37.67c-.37.45-.55,1.15-.55,2.11Z"/>
    <path class="cls-24" d="m800.28,286.2c-.46.39-.89.66-1.32.82-.42.16-.88.24-1.36.24-.8,0-1.41-.2-1.84-.58-.43-.39-.64-.89-.64-1.49,0-.36.08-.68.24-.97.16-.29.37-.53.63-.71.26-.18.56-.31.89-.4.24-.06.61-.12,1.09-.18.99-.12,1.73-.26,2.19-.42,0-.17,0-.28,0-.32,0-.5-.12-.85-.35-1.06-.31-.28-.78-.42-1.4-.42-.58,0-1.01.1-1.28.3-.28.2-.48.56-.61,1.08l-1.2-.16c.11-.51.29-.93.54-1.25.25-.32.61-.56,1.09-.73.47-.17,1.02-.26,1.65-.26s1.12.07,1.51.22.67.33.85.55c.18.22.31.5.38.84.04.21.06.59.06,1.13v1.64c0,1.14.03,1.87.08,2.17.05.3.16.59.31.87h-1.29c-.13-.25-.21-.55-.25-.9Zm-.1-2.75c-.45.18-1.12.34-2.01.46-.51.07-.86.16-1.07.25s-.37.22-.49.4c-.11.18-.17.37-.17.58,0,.33.12.6.37.82.25.22.61.33,1.09.33s.9-.1,1.26-.31c.37-.21.64-.49.81-.85.13-.28.2-.69.2-1.23v-.45Z"/>
    <path class="cls-24" d="m803.21,287.09v-7.26h1.11v1.03c.53-.8,1.3-1.2,2.31-1.2.44,0,.84.08,1.21.24.37.16.64.36.82.62.18.25.31.56.38.91.04.23.07.63.07,1.2v4.46h-1.23v-4.42c0-.5-.05-.88-.14-1.12-.1-.25-.27-.45-.51-.59-.24-.15-.53-.22-.86-.22-.52,0-.98.17-1.36.5s-.57.96-.57,1.89v3.96h-1.23Z"/>
    <path class="cls-24" d="m815.62,287.09v-.92c-.46.72-1.14,1.08-2.03,1.08-.58,0-1.11-.16-1.6-.48-.48-.32-.86-.76-1.13-1.34-.27-.57-.4-1.23-.4-1.97s.12-1.38.36-1.97c.24-.59.6-1.04,1.09-1.36s1.02-.47,1.62-.47c.44,0,.83.09,1.17.28.34.18.62.42.83.72v-3.6h1.22v10.02h-1.14Zm-3.89-3.62c0,.93.2,1.62.59,2.08s.85.69,1.39.69.99-.22,1.37-.66c.38-.44.56-1.11.56-2.01,0-.99-.19-1.72-.57-2.19s-.85-.7-1.42-.7-1,.22-1.37.67c-.37.45-.55,1.15-.55,2.11Z"/>
    <path class="cls-24" d="m827.3,287.09v-.92c-.46.72-1.14,1.08-2.03,1.08-.58,0-1.11-.16-1.6-.48-.48-.32-.86-.76-1.13-1.34-.27-.57-.4-1.23-.4-1.97s.12-1.38.36-1.97c.24-.59.6-1.04,1.09-1.36s1.02-.47,1.62-.47c.44,0,.83.09,1.17.28.34.18.62.42.83.72v-3.6h1.22v10.02h-1.14Zm-3.89-3.62c0,.93.2,1.62.59,2.08s.85.69,1.39.69.99-.22,1.37-.66c.38-.44.56-1.11.56-2.01,0-.99-.19-1.72-.57-2.19s-.85-.7-1.42-.7-1,.22-1.37.67c-.37.45-.55,1.15-.55,2.11Z"/>
    <path class="cls-24" d="m835.24,284.76l1.27.16c-.2.74-.57,1.32-1.11,1.73-.54.41-1.24.62-2.08.62-1.06,0-1.9-.33-2.53-.98-.62-.65-.93-1.57-.93-2.75s.31-2.17.94-2.84,1.44-1.01,2.45-1.01,1.76.33,2.38.99.92,1.59.92,2.79c0,.07,0,.18,0,.33h-5.41c.04.8.27,1.41.68,1.83.41.42.91.64,1.52.64.45,0,.84-.12,1.16-.36.32-.24.57-.62.76-1.13Zm-4.04-1.99h4.05c-.05-.61-.21-1.07-.46-1.37-.39-.47-.9-.71-1.52-.71-.57,0-1.04.19-1.43.57s-.6.88-.64,1.52Z"/>
    <path class="cls-24" d="m839.73,287.09l-2.76-7.26h1.3l1.56,4.35c.17.47.32.96.46,1.46.11-.38.26-.84.46-1.38l1.61-4.43h1.26l-2.75,7.26h-1.15Z"/>
    <path class="cls-24" d="m849.38,284.76l1.27.16c-.2.74-.57,1.32-1.12,1.73-.54.41-1.23.62-2.08.62-1.06,0-1.9-.33-2.53-.98-.62-.65-.93-1.57-.93-2.75s.31-2.17.94-2.84,1.45-1.01,2.45-1.01,1.76.33,2.38.99.92,1.59.92,2.79c0,.07,0,.18,0,.33h-5.41c.05.8.27,1.41.68,1.83.4.42.91.64,1.52.64.45,0,.84-.12,1.15-.36.32-.24.57-.62.76-1.13Zm-4.04-1.99h4.05c-.05-.61-.21-1.07-.46-1.37-.39-.47-.9-.71-1.53-.71-.56,0-1.04.19-1.43.57-.38.38-.6.88-.64,1.52Z"/>
    <path class="cls-24" d="m852.1,287.09v-10.02h1.23v10.02h-1.23Z"/>
    <path class="cls-24" d="m854.73,283.46c0-1.34.38-2.34,1.12-2.99.62-.54,1.39-.81,2.28-.81,1,0,1.81.33,2.45.98.63.65.95,1.56.95,2.71,0,.93-.14,1.67-.42,2.21-.28.54-.69.95-1.22,1.25s-1.12.44-1.75.44c-1.02,0-1.84-.33-2.46-.98-.62-.65-.94-1.59-.94-2.82Zm1.27,0c0,.93.2,1.63.61,2.09.41.46.92.69,1.53.69s1.12-.23,1.53-.7c.4-.46.61-1.17.61-2.13,0-.9-.2-1.58-.61-2.04-.41-.46-.91-.69-1.52-.69s-1.12.23-1.53.69c-.4.46-.61,1.16-.61,2.08Z"/>
    <path class="cls-24" d="m862.92,289.88v-10.04h1.12v.94c.27-.37.56-.65.9-.83.33-.19.74-.28,1.21-.28.62,0,1.17.16,1.64.48.47.32.83.77,1.07,1.35.24.58.36,1.22.36,1.91,0,.74-.13,1.41-.4,2.01-.27.59-.65,1.05-1.16,1.37-.51.32-1.04.47-1.6.47-.41,0-.78-.09-1.1-.26-.33-.17-.59-.39-.8-.66v3.53h-1.23Zm1.12-6.37c0,.93.19,1.62.57,2.07.38.45.84.67,1.38.67s1.02-.23,1.4-.69c.39-.46.58-1.18.58-2.15s-.19-1.62-.57-2.08-.84-.69-1.36-.69-.99.25-1.39.74c-.4.49-.61,1.2-.61,2.14Z"/>
    <path class="cls-24" d="m874.6,278.49v-1.42h1.23v1.42h-1.23Zm0,8.61v-7.26h1.23v7.26h-1.23Z"/>
    <path class="cls-24" d="m877.59,287.09v-7.26h1.11v1.03c.53-.8,1.3-1.2,2.31-1.2.44,0,.84.08,1.21.24.37.16.64.36.82.62.18.25.31.56.38.91.05.23.07.63.07,1.2v4.46h-1.23v-4.42c0-.5-.05-.88-.14-1.12-.1-.25-.27-.45-.51-.59-.24-.15-.53-.22-.86-.22-.53,0-.98.17-1.36.5s-.57.96-.57,1.89v3.96h-1.23Z"/>
    <path class="cls-24" d="m884.75,284.93l1.22-.19c.07.49.26.86.57,1.12s.75.39,1.31.39.98-.12,1.26-.35c.27-.23.41-.5.41-.81,0-.28-.12-.5-.36-.66-.17-.11-.59-.25-1.26-.42-.9-.23-1.53-.42-1.88-.59-.35-.17-.61-.4-.79-.69-.18-.29-.27-.62-.27-.97,0-.32.07-.62.22-.9.15-.28.35-.5.61-.69.19-.14.45-.26.78-.36.33-.1.69-.15,1.06-.15.57,0,1.07.08,1.5.25.43.16.75.39.96.67.21.28.35.66.42,1.12l-1.2.16c-.05-.37-.21-.67-.48-.88-.26-.21-.63-.31-1.11-.31-.57,0-.97.09-1.21.28-.24.19-.36.41-.36.66,0,.16.05.3.15.43.1.13.26.24.47.33.12.05.49.15,1.09.31.87.23,1.48.42,1.82.57.35.15.62.36.81.65.2.28.29.63.29,1.05s-.12.8-.36,1.16c-.24.36-.58.64-1.04.84-.45.2-.96.3-1.53.3-.94,0-1.66-.2-2.16-.59-.49-.39-.81-.97-.95-1.74Z"/>
    <path class="cls-24" d="m892.15,278.49v-1.42h1.23v1.42h-1.23Zm0,8.61v-7.26h1.23v7.26h-1.23Z"/>
    <path class="cls-24" d="m894.98,287.7l1.2.18c.05.37.19.64.42.81.31.23.72.34,1.25.34.57,0,1.01-.11,1.32-.34.31-.23.52-.55.63-.96.06-.25.09-.78.09-1.58-.54.63-1.21.95-2.01.95-1,0-1.77-.36-2.32-1.08s-.82-1.58-.82-2.59c0-.69.12-1.33.38-1.92.25-.59.61-1.04,1.09-1.36s1.04-.48,1.68-.48c.86,0,1.56.35,2.12,1.04v-.88h1.13v6.28c0,1.13-.12,1.93-.35,2.4-.23.47-.59.84-1.09,1.12-.5.27-1.11.41-1.84.41-.87,0-1.56-.19-2.1-.58-.53-.39-.79-.98-.77-1.76Zm1.02-4.36c0,.95.19,1.65.57,2.08.38.44.85.66,1.42.66s1.04-.22,1.42-.65c.38-.43.57-1.12.57-2.05s-.2-1.56-.59-2.01c-.39-.45-.87-.68-1.42-.68s-1.01.22-1.39.67c-.38.44-.57,1.1-.57,1.98Z"/>
    <path class="cls-24" d="m902.88,287.09v-10.02h1.23v3.6c.57-.67,1.3-1,2.17-1,.54,0,1,.11,1.4.32.4.21.68.5.85.88.17.37.26.92.26,1.63v4.6h-1.23v-4.6c0-.62-.13-1.06-.4-1.34-.27-.28-.64-.42-1.13-.42-.36,0-.71.09-1.03.28-.32.19-.55.45-.69.77s-.21.77-.21,1.34v3.97h-1.23Z"/>
    <path class="cls-24" d="m913.14,285.99l.18,1.09c-.35.07-.66.11-.93.11-.45,0-.79-.07-1.04-.21s-.42-.33-.52-.56c-.1-.23-.15-.71-.15-1.45v-4.18h-.9v-.96h.9v-1.8l1.22-.74v2.54h1.24v.96h-1.24v4.25c0,.35.02.58.06.68s.11.18.21.24c.1.06.24.09.42.09.14,0,.32-.02.54-.05Z"/>
    <path class="cls-24" d="m913.84,284.93l1.22-.19c.07.49.26.86.57,1.12.31.26.75.39,1.31.39s.98-.12,1.26-.35c.27-.23.41-.5.41-.81,0-.28-.12-.5-.36-.66-.17-.11-.59-.25-1.26-.42-.9-.23-1.53-.42-1.88-.59-.35-.17-.61-.4-.79-.69-.18-.29-.27-.62-.27-.97,0-.32.07-.62.22-.9.15-.28.35-.5.61-.69.19-.14.45-.26.78-.36.33-.1.68-.15,1.06-.15.57,0,1.07.08,1.5.25.43.16.75.39.95.67.21.28.35.66.42,1.12l-1.2.16c-.05-.37-.21-.67-.47-.88s-.63-.31-1.11-.31c-.56,0-.97.09-1.21.28-.24.19-.36.41-.36.66,0,.16.05.3.15.43.1.13.26.24.47.33.12.05.48.15,1.09.31.87.23,1.48.42,1.82.57.34.15.61.36.81.65.2.28.29.63.29,1.05s-.12.8-.36,1.16c-.24.36-.59.64-1.04.84-.45.2-.96.3-1.53.3-.94,0-1.66-.2-2.16-.59s-.81-.97-.95-1.74Z"/>
    <path class="cls-24" d="m921.5,287.09v-1.4h1.4v1.4c0,.51-.09.93-.27,1.25-.18.32-.47.56-.87.73l-.34-.53c.26-.11.45-.28.57-.5.12-.22.19-.54.21-.95h-.7Z"/>
    <path class="cls-24" d="m740.98,301.56l1.27.16c-.2.74-.57,1.32-1.12,1.73-.54.41-1.23.62-2.08.62-1.06,0-1.9-.33-2.53-.98-.62-.65-.93-1.57-.93-2.75s.31-2.17.94-2.84,1.45-1.01,2.45-1.01,1.76.33,2.38.99.92,1.59.92,2.79c0,.07,0,.18,0,.33h-5.41c.05.8.27,1.41.68,1.83.41.42.91.64,1.52.64.45,0,.84-.12,1.15-.36.32-.24.57-.62.76-1.13Zm-4.04-1.99h4.05c-.05-.61-.21-1.07-.46-1.37-.39-.47-.9-.71-1.53-.71-.56,0-1.04.19-1.42.57s-.6.88-.64,1.52Z"/>
    <path class="cls-24" d="m742.59,303.89l2.65-3.77-2.45-3.49h1.54l1.12,1.7c.21.32.38.59.51.81.2-.3.38-.57.55-.8l1.22-1.72h1.47l-2.51,3.42,2.7,3.84h-1.51l-1.49-2.26-.4-.61-1.91,2.86h-1.49Z"/>
    <path class="cls-24" d="m750.38,306.68v-10.04h1.12v.94c.26-.37.56-.65.9-.83.33-.19.74-.28,1.21-.28.62,0,1.17.16,1.64.48s.83.77,1.07,1.35c.24.58.36,1.22.36,1.91,0,.74-.13,1.41-.4,2.01-.27.59-.65,1.05-1.16,1.37-.51.32-1.04.47-1.6.47-.41,0-.78-.09-1.1-.26-.33-.17-.59-.39-.8-.66v3.53h-1.23Zm1.11-6.37c0,.93.19,1.62.57,2.07s.84.67,1.37.67,1.02-.23,1.4-.69c.39-.46.58-1.18.58-2.15s-.19-1.62-.57-2.08c-.38-.46-.83-.69-1.36-.69s-.99.25-1.39.74c-.4.49-.61,1.2-.61,2.14Z"/>
    <path class="cls-24" d="m758.07,303.89v-10.02h1.23v10.02h-1.23Z"/>
    <path class="cls-24" d="m765.83,303c-.46.39-.89.66-1.32.82-.42.16-.88.24-1.36.24-.8,0-1.41-.2-1.84-.58-.43-.39-.64-.89-.64-1.49,0-.36.08-.68.24-.97.16-.29.37-.53.63-.71.26-.18.56-.31.89-.4.24-.06.61-.12,1.09-.18.99-.12,1.73-.26,2.19-.42,0-.17,0-.28,0-.32,0-.5-.12-.85-.35-1.06-.31-.28-.78-.42-1.4-.42-.58,0-1.01.1-1.28.3-.28.2-.48.56-.61,1.08l-1.2-.16c.11-.51.29-.93.54-1.25.25-.32.61-.56,1.09-.73.47-.17,1.02-.26,1.65-.26s1.12.07,1.51.22.67.33.85.55c.18.22.31.5.38.84.04.21.06.59.06,1.13v1.64c0,1.14.03,1.87.08,2.17.05.3.16.59.31.87h-1.29c-.13-.25-.21-.55-.25-.9Zm-.1-2.75c-.45.18-1.12.34-2.01.46-.51.07-.86.16-1.07.25s-.37.22-.49.4c-.11.18-.17.37-.17.58,0,.33.12.6.37.82.25.22.61.33,1.09.33s.9-.1,1.26-.31c.37-.21.64-.49.81-.85.13-.28.2-.69.2-1.23v-.45Z"/>
    <path class="cls-24" d="m768.76,303.89v-7.26h1.11v1.03c.53-.8,1.3-1.2,2.31-1.2.44,0,.84.08,1.21.24.37.16.64.36.82.62.18.25.31.56.38.91.04.23.07.63.07,1.2v4.46h-1.23v-4.42c0-.5-.05-.88-.14-1.12-.1-.25-.27-.45-.51-.59-.24-.15-.53-.22-.86-.22-.52,0-.98.17-1.36.5s-.57.96-.57,1.89v3.96h-1.23Z"/>
    <path class="cls-24" d="m781.17,303c-.46.39-.89.66-1.32.82-.42.16-.87.24-1.36.24-.8,0-1.41-.2-1.84-.58-.43-.39-.64-.89-.64-1.49,0-.36.08-.68.24-.97.16-.29.37-.53.64-.71.26-.18.56-.31.88-.4.24-.06.61-.12,1.09-.18.99-.12,1.72-.26,2.19-.42,0-.17,0-.28,0-.32,0-.5-.12-.85-.35-1.06-.31-.28-.78-.42-1.4-.42-.58,0-1.01.1-1.28.3-.28.2-.48.56-.61,1.08l-1.2-.16c.11-.51.29-.93.54-1.25.25-.32.61-.56,1.09-.73.47-.17,1.02-.26,1.65-.26s1.12.07,1.51.22.67.33.85.55c.18.22.31.5.38.84.04.21.06.59.06,1.13v1.64c0,1.14.03,1.87.08,2.17.05.3.16.59.31.87h-1.29c-.13-.25-.21-.55-.25-.9Zm-.1-2.75c-.45.18-1.12.34-2.01.46-.51.07-.86.16-1.07.25s-.37.22-.49.4c-.11.18-.17.37-.17.58,0,.33.12.6.37.82.25.22.61.33,1.09.33s.9-.1,1.26-.31c.37-.21.64-.49.81-.85.13-.28.2-.69.2-1.23v-.45Z"/>
    <path class="cls-24" d="m786.71,302.79l.18,1.09c-.35.07-.66.11-.93.11-.45,0-.79-.07-1.04-.21s-.42-.33-.52-.56c-.1-.23-.15-.71-.15-1.45v-4.18h-.9v-.96h.9v-1.8l1.22-.74v2.54h1.24v.96h-1.24v4.25c0,.35.02.58.06.68s.11.18.21.24.24.09.42.09c.14,0,.32-.02.54-.05Z"/>
    <path class="cls-24" d="m787.88,295.29v-1.42h1.23v1.42h-1.23Zm0,8.61v-7.26h1.23v7.26h-1.23Z"/>
    <path class="cls-24" d="m790.49,300.26c0-1.34.37-2.34,1.12-2.99.62-.54,1.38-.81,2.28-.81,1,0,1.81.33,2.45.98.63.65.95,1.56.95,2.71,0,.93-.14,1.67-.42,2.21-.28.54-.69.95-1.22,1.25-.54.3-1.12.44-1.75.44-1.02,0-1.84-.33-2.46-.98-.63-.65-.94-1.59-.94-2.82Zm1.26,0c0,.93.2,1.63.61,2.09.41.46.92.69,1.53.69s1.12-.23,1.52-.7.61-1.17.61-2.13c0-.9-.2-1.58-.61-2.04-.41-.46-.92-.69-1.52-.69s-1.12.23-1.53.69-.61,1.16-.61,2.08Z"/>
    <path class="cls-24" d="m798.69,303.89v-7.26h1.11v1.03c.53-.8,1.3-1.2,2.31-1.2.44,0,.84.08,1.21.24.37.16.64.36.82.62.18.25.31.56.38.91.05.23.07.63.07,1.2v4.46h-1.23v-4.42c0-.5-.05-.88-.14-1.12-.1-.25-.27-.45-.51-.59-.24-.15-.53-.22-.86-.22-.52,0-.98.17-1.36.5s-.57.96-.57,1.89v3.96h-1.23Z"/>
    <path class="cls-24" d="m805.85,301.73l1.22-.19c.07.49.26.86.57,1.12.31.26.75.39,1.31.39s.98-.12,1.26-.35c.27-.23.41-.5.41-.81,0-.28-.12-.5-.36-.66-.17-.11-.59-.25-1.26-.42-.9-.23-1.53-.42-1.88-.59-.35-.17-.61-.4-.79-.69-.18-.29-.27-.62-.27-.97,0-.32.07-.62.22-.9.15-.28.35-.5.6-.69.19-.14.45-.26.78-.36.33-.1.69-.15,1.06-.15.57,0,1.07.08,1.5.25.43.16.75.39.95.67.21.28.35.66.42,1.12l-1.2.16c-.05-.37-.21-.67-.47-.88-.26-.21-.63-.31-1.11-.31-.56,0-.97.09-1.21.28s-.36.41-.36.66c0,.16.05.3.15.43.1.13.26.24.47.33.12.05.49.15,1.09.31.87.23,1.48.42,1.82.57.34.15.61.36.81.65s.29.63.29,1.05-.12.8-.36,1.16c-.24.36-.58.64-1.04.84-.45.2-.96.3-1.53.3-.94,0-1.66-.2-2.16-.59-.5-.39-.81-.97-.95-1.74Z"/>
    <path class="cls-24" d="m813.51,303.89v-1.4h1.4v1.4c0,.51-.09.93-.27,1.25-.18.32-.47.56-.87.73l-.34-.53c.26-.11.45-.28.57-.5.12-.22.19-.54.21-.95h-.7Z"/>
    <path class="cls-24" d="m820.51,300.26c0-1.34.37-2.34,1.12-2.99.62-.54,1.38-.81,2.28-.81,1,0,1.81.33,2.45.98.63.65.95,1.56.95,2.71,0,.93-.14,1.67-.42,2.21-.28.54-.69.95-1.22,1.25-.54.3-1.12.44-1.75.44-1.02,0-1.84-.33-2.46-.98-.63-.65-.94-1.59-.94-2.82Zm1.26,0c0,.93.2,1.63.61,2.09.41.46.92.69,1.53.69s1.12-.23,1.52-.7.61-1.17.61-2.13c0-.9-.2-1.58-.61-2.04-.41-.46-.92-.69-1.52-.69s-1.12.23-1.53.69-.61,1.16-.61,2.08Z"/>
    <path class="cls-24" d="m828.69,303.89v-7.26h1.11v1.1c.28-.51.54-.85.78-1.02s.5-.25.79-.25c.42,0,.84.13,1.27.4l-.42,1.14c-.3-.18-.6-.27-.9-.27-.27,0-.51.08-.72.24-.21.16-.37.39-.46.67-.14.44-.21.92-.21,1.44v3.8h-1.23Z"/>
    <path class="cls-24" d="m839.95,302.79l.18,1.09c-.35.07-.66.11-.93.11-.45,0-.79-.07-1.04-.21s-.42-.33-.52-.56c-.1-.23-.15-.71-.15-1.45v-4.18h-.9v-.96h.9v-1.8l1.22-.74v2.54h1.24v.96h-1.24v4.25c0,.35.02.58.06.68s.11.18.21.24.24.09.42.09c.14,0,.32-.02.54-.05Z"/>
    <path class="cls-24" d="m841.12,303.89v-10.02h1.23v3.6c.57-.67,1.3-1,2.17-1,.54,0,1.01.11,1.4.32.4.21.68.5.85.88.17.37.26.92.26,1.63v4.6h-1.23v-4.6c0-.62-.13-1.06-.4-1.34-.27-.28-.64-.42-1.13-.42-.37,0-.71.09-1.03.28-.32.19-.55.45-.69.77s-.21.77-.21,1.34v3.97h-1.23Z"/>
    <path class="cls-24" d="m853.79,301.56l1.27.16c-.2.74-.57,1.32-1.11,1.73-.54.41-1.24.62-2.08.62-1.06,0-1.9-.33-2.53-.98-.62-.65-.93-1.57-.93-2.75s.31-2.17.94-2.84,1.44-1.01,2.45-1.01,1.76.33,2.38.99.92,1.59.92,2.79c0,.07,0,.18,0,.33h-5.41c.04.8.27,1.41.68,1.83.41.42.91.64,1.52.64.45,0,.84-.12,1.16-.36.32-.24.57-.62.76-1.13Zm-4.04-1.99h4.05c-.05-.61-.21-1.07-.46-1.37-.39-.47-.9-.71-1.52-.71-.57,0-1.04.19-1.43.57s-.6.88-.64,1.52Z"/>
    <path class="cls-24" d="m856.1,300.26c0-1.34.38-2.34,1.12-2.99.62-.54,1.39-.81,2.28-.81,1,0,1.81.33,2.45.98.63.65.95,1.56.95,2.71,0,.93-.14,1.67-.42,2.21-.28.54-.69.95-1.22,1.25s-1.12.44-1.75.44c-1.02,0-1.84-.33-2.46-.98-.62-.65-.94-1.59-.94-2.82Zm1.27,0c0,.93.2,1.63.61,2.09.41.46.92.69,1.53.69s1.12-.23,1.53-.7c.4-.46.61-1.17.61-2.13,0-.9-.2-1.58-.61-2.04-.41-.46-.91-.69-1.52-.69s-1.12.23-1.53.69c-.4.46-.61,1.16-.61,2.08Z"/>
    <path class="cls-24" d="m864.28,303.89v-7.26h1.11v1.1c.28-.51.54-.85.78-1.02.24-.16.5-.25.79-.25.41,0,.84.13,1.26.4l-.42,1.14c-.3-.18-.6-.27-.9-.27-.27,0-.51.08-.72.24-.21.16-.37.39-.46.67-.14.44-.21.92-.21,1.44v3.8h-1.23Z"/>
    <path class="cls-24" d="m869.07,295.29v-1.42h1.23v1.42h-1.23Zm0,8.61v-7.26h1.23v7.26h-1.23Z"/>
    <path class="cls-24" d="m877.09,301.56l1.27.16c-.2.74-.57,1.32-1.12,1.73-.54.41-1.23.62-2.08.62-1.06,0-1.9-.33-2.53-.98-.62-.65-.93-1.57-.93-2.75s.31-2.17.94-2.84,1.45-1.01,2.45-1.01,1.76.33,2.38.99.92,1.59.92,2.79c0,.07,0,.18,0,.33h-5.41c.05.8.27,1.41.68,1.83.4.42.91.64,1.52.64.45,0,.84-.12,1.15-.36.32-.24.57-.62.76-1.13Zm-4.04-1.99h4.05c-.05-.61-.21-1.07-.46-1.37-.39-.47-.9-.71-1.53-.71-.56,0-1.04.19-1.42.57-.39.38-.6.88-.64,1.52Z"/>
    <path class="cls-24" d="m879.37,301.73l1.22-.19c.07.49.26.86.57,1.12s.75.39,1.31.39.98-.12,1.26-.35c.27-.23.41-.5.41-.81,0-.28-.12-.5-.36-.66-.17-.11-.59-.25-1.26-.42-.9-.23-1.53-.42-1.88-.59-.35-.17-.61-.4-.79-.69-.18-.29-.27-.62-.27-.97,0-.32.07-.62.22-.9.15-.28.35-.5.61-.69.19-.14.45-.26.78-.36.33-.1.69-.15,1.06-.15.57,0,1.07.08,1.5.25.43.16.75.39.96.67.21.28.35.66.42,1.12l-1.2.16c-.05-.37-.21-.67-.48-.88-.26-.21-.63-.31-1.11-.31-.57,0-.97.09-1.21.28-.24.19-.36.41-.36.66,0,.16.05.3.15.43.1.13.26.24.47.33.12.05.49.15,1.09.31.87.23,1.48.42,1.82.57.35.15.62.36.81.65.2.28.29.63.29,1.05s-.12.8-.36,1.16c-.24.36-.58.64-1.04.84-.45.2-.96.3-1.53.3-.94,0-1.66-.2-2.16-.59-.49-.39-.81-.97-.95-1.74Z"/>
    <path class="cls-24" d="m887.04,303.89v-1.4h1.4v1.4h-1.4Z"/>
  </g>
</svg>