<?xml version="1.0" encoding="UTF-8"?><svg id="maturity" xmlns="http://www.w3.org/2000/svg" viewBox="0 0 988 525"><g><path d="m726.95,160.34l35.14,17.57-35.14,17.57v-35.14Zm-326.87,11.71h332.73v11.71h-332.73v-11.71Z" style="fill:#d8d8d8;"/><text transform="translate(778.24 182.28)" style="font-family:Arial-BoldMT, Arial; font-size:14px; font-weight:700;"><tspan x="0" y="0">Outcome</tspan></text><text transform="translate(683.09 426.73)" style="font-family:Arial-BoldMT, Arial; font-size:14px; font-weight:700;"><tspan x="0" y="0">Division of labor</tspan></text><text transform="translate(267.79 426.73)" style="font-family:Arial-BoldMT, Arial; font-size:14px; font-weight:700;"><tspan x="0" y="0">Rules</tspan></text><text transform="translate(456.79 426.73)" style="font-family:Arial-BoldMT, Arial; font-size:14px; font-weight:700;"><tspan x="0" y="0">Community</tspan></text><polyline points="588.93 233.15 495.29 384.65 401.65 233.15" style="fill:none; stroke:#000; stroke-miterlimit:8;"/><g><line x1="401.65" y1="233.15" x2="571.85" y2="233.15" style="fill:none; stroke:#000; stroke-miterlimit:8; stroke-width:2px;"/><polygon points="569.66 240.63 582.61 233.15 569.66 225.67 569.66 240.63"/></g><line x1="305.91" y1="383.83" x2="589.19" y2="233.15" style="fill:none; stroke:#000; stroke-miterlimit:8;"/><line x1="401.65" y1="233.15" x2="685.19" y2="383.83" style="fill:none; stroke:#000; stroke-miterlimit:8;"/><line x1="495.29" y1="384.26" x2="495.29" y2="81.65" style="fill:none; stroke:#000; stroke-miterlimit:8;"/><polygon points="305.91 384.65 495.16 81.65 684.67 384.65 305.91 384.65" style="fill:none; stroke:#000; stroke-miterlimit:8;"/><ellipse cx="307.49" cy="383.6" rx="6.84" ry="7.36"/><ellipse cx="683.09" cy="383.6" rx="6.84" ry="7.36"/><ellipse cx="495.29" cy="82.17" rx="7.36" ry="6.84"/><circle cx="589.45" cy="232.62" r="6.84"/><circle cx="400.08" cy="232.62" r="6.84"/><circle cx="495.29" cy="383.6" r="7.36"/><ellipse cx="495.29" cy="278.92" rx="26.3" ry="25.78" style="fill:#0333ff;"/><ellipse cx="495.29" cy="278.92" rx="26.3" ry="25.78" style="fill:none;"/><polygon points="489.94 260.85 497.16 270.57 494.79 272.07 503.42 280.12 501.09 281.88 512.19 295.74 494.9 286.09 497.78 284.17 487.01 277.96 490.32 275.31 478.96 268.8 489.94 260.85" style="fill:#fff; fill-rule:evenodd;"/><path d="m495.6,253.46c0-74.07-103.52-148.14-207.04-148.14" style="fill:none; stroke:#3b3838; stroke-dasharray:0 0 4 1.5; stroke-miterlimit:8; stroke-width:.75px;"/><text transform="translate(178.82 108.96)" style="fill:#0333ff; font-family:Arial-BoldMT, Arial; font-size:14px; font-weight:700;"><tspan x="0" y="0">Contradictions</tspan></text><text transform="translate(476.62 57.45)" style="font-family:Arial-BoldMT, Arial; font-size:14px; font-weight:700;"><tspan x="0" y="0">Tools</tspan></text><text transform="translate(304.17 238.44)" style="font-family:Arial-BoldMT, Arial; font-size:16px; font-weight:700;"><tspan x="0" y="0">Subject</tspan></text><text transform="translate(613.47 238.44)" style="font-family:Arial-BoldMT, Arial; font-size:16px; font-weight:700;"><tspan x="0" y="0">Object</tspan></text></g><line x1="383.71" y1="313.47" x2="227.26" y2="313.47" style="fill:none; stroke:#3b3838; stroke-dasharray:0 0 4 1.5; stroke-miterlimit:8; stroke-width:.75px;"/><text transform="translate(171.23 317.68)" style="font-family:ArialMT, Arial; font-size:14px;"><tspan x="0" y="0">Actions</tspan></text><line x1="660.84" y1="117.07" x2="504.39" y2="117.07" style="fill:none; stroke:#3b3838; stroke-dasharray:0 0 4 1.5; stroke-miterlimit:8; stroke-width:.75px;"/><text transform="translate(676.25 121.28)" style="font-family:ArialMT, Arial; font-size:14px;"><tspan x="0" y="0">Perceived and actualized affordances</tspan></text><text transform="translate(336.88 500.28)" style="font-family:Arial-BoldMT, Arial; font-size:16px; font-weight:700;"><tspan x="0" y="0">Affordance generation in activity systems</tspan></text></svg>