<svg id="Ebene_1" data-name="Ebene 1" xmlns="http://www.w3.org/2000/svg" viewBox="0 0 988 525"><defs><style>.cls-1,.cls-12,.cls-13,.cls-14,.cls-15,.cls-16,.cls-6,.cls-7,.cls-9{fill:none;stroke-miterlimit:10;}.cls-1{stroke:#9d9d9c;}.cls-10,.cls-11,.cls-2,.cls-5{font-size:16px;font-weight:700;}.cls-10,.cls-2{fill:#9d9d9c;}.cls-2,.cls-5{font-family:Arial-BoldMT, Arial;}.cls-3{font-size:20px;font-family:ArialMT, Arial;}.cls-11,.cls-3,.cls-4,.cls-5{fill:#1d1d1b;}.cls-12,.cls-13,.cls-14,.cls-15,.cls-16,.cls-6,.cls-7,.cls-9{stroke:#1d1d1b;}.cls-6{stroke-width:4px;}.cls-7{stroke-width:2px;}.cls-8{fill:#fff;fill-rule:evenodd;}.cls-10,.cls-11{font-family:CourierNewPS-BoldMT, Courier New;}.cls-12{stroke-dasharray:6.06 6.06;}.cls-13{stroke-dasharray:5.7 5.7;}.cls-14{stroke-dasharray:6.13 6.13;}.cls-15{stroke-dasharray:5.86 5.86;}.cls-16{stroke-dasharray:6 6;}</style></defs><line class="cls-1" x1="529.11" y1="225.73" x2="654.02" y2="383.85"/><text class="cls-2" transform="translate(636.57 470.75)">Giurgiu</text><text class="cls-2" transform="translate(722.44 379.07)">Urziceni</text><text class="cls-2" transform="translate(843.48 363.68)">Hirsova</text><text class="cls-2" transform="translate(851.57 457.82)">Eforie</text><text class="cls-2" transform="translate(639.36 95.94)">Neamt</text><text class="cls-2" transform="translate(308.03 66.72)">Oradea</text><text class="cls-3" transform="translate(455.91 81.31)">Action</text><text class="cls-3" transform="translate(809.85 71.97)">Path costs</text><path class="cls-4" d="M115,109.49l1.79-.15a3.9,3.9,0,0,0,.59,1.76,3.2,3.2,0,0,0,1.44,1.11,5.85,5.85,0,0,0,4.11.11,2.69,2.69,0,0,0,1.24-.89,2,2,0,0,0,.4-1.22,1.88,1.88,0,0,0-.39-1.18,2.78,2.78,0,0,0-1.29-.84,22.89,22.89,0,0,0-2.55-.7,13.3,13.3,0,0,1-2.76-.9,3.87,3.87,0,0,1-1.53-1.33,3.21,3.21,0,0,1-.5-1.78,3.66,3.66,0,0,1,.61-2A3.82,3.82,0,0,1,118,100a6.92,6.92,0,0,1,2.63-.49,7,7,0,0,1,2.8.52,4,4,0,0,1,1.87,1.5,4.4,4.4,0,0,1,.71,2.26l-1.82.14a2.93,2.93,0,0,0-1-2,3.82,3.82,0,0,0-2.5-.7,4,4,0,0,0-2.5.63,1.91,1.91,0,0,0-.79,1.52,1.62,1.62,0,0,0,.56,1.27,7.6,7.6,0,0,0,2.86,1,19.42,19.42,0,0,1,3.17.91A4.4,4.4,0,0,1,125.8,108a3.55,3.55,0,0,1,.6,2,3.85,3.85,0,0,1-.66,2.15,4.27,4.27,0,0,1-1.88,1.58,6.57,6.57,0,0,1-2.76.56,8.16,8.16,0,0,1-3.25-.57,4.49,4.49,0,0,1-2.06-1.7A4.87,4.87,0,0,1,115,109.49Z"/><path class="cls-4" d="M132.6,112.52l.25,1.55a6.14,6.14,0,0,1-1.33.16,3,3,0,0,1-1.48-.3,1.68,1.68,0,0,1-.74-.8,6.05,6.05,0,0,1-.22-2.07v-6h-1.29v-1.37h1.29v-2.57l1.75-1.05v3.62h1.77v1.37h-1.77v6.06a3.13,3.13,0,0,0,.09,1,.78.78,0,0,0,.31.34,1.11,1.11,0,0,0,.6.13A5.16,5.16,0,0,0,132.6,112.52Z"/><path class="cls-4" d="M141.08,112.81A6.38,6.38,0,0,1,139.2,114a5.55,5.55,0,0,1-1.93.34,3.76,3.76,0,0,1-2.63-.84,2.76,2.76,0,0,1-.92-2.13,2.84,2.84,0,0,1,.35-1.39,2.78,2.78,0,0,1,.91-1,4,4,0,0,1,1.26-.58,12.37,12.37,0,0,1,1.56-.26,15.69,15.69,0,0,0,3.14-.61c0-.24,0-.39,0-.46a1.94,1.94,0,0,0-.5-1.51,2.93,2.93,0,0,0-2-.6,3.08,3.08,0,0,0-1.83.44,2.63,2.63,0,0,0-.88,1.54l-1.72-.24a4.3,4.3,0,0,1,.78-1.78,3.38,3.38,0,0,1,1.55-1.05,7,7,0,0,1,2.35-.36,6.18,6.18,0,0,1,2.16.31,2.84,2.84,0,0,1,1.22.79,2.79,2.79,0,0,1,.55,1.19,9.67,9.67,0,0,1,.09,1.62v2.35a24,24,0,0,0,.11,3.1,3.76,3.76,0,0,0,.44,1.24h-1.83A3.7,3.7,0,0,1,141.08,112.81Zm-.14-3.92a12.93,12.93,0,0,1-2.87.66,7,7,0,0,0-1.54.35,1.46,1.46,0,0,0-.69.58,1.49,1.49,0,0,0-.24.83,1.47,1.47,0,0,0,.53,1.17,2.29,2.29,0,0,0,1.56.47,3.66,3.66,0,0,0,1.8-.44,2.73,2.73,0,0,0,1.16-1.22,4.21,4.21,0,0,0,.29-1.76Z"/><path class="cls-4" d="M149.28,112.52l.25,1.55a6.14,6.14,0,0,1-1.33.16,3,3,0,0,1-1.48-.3,1.68,1.68,0,0,1-.74-.8,6.05,6.05,0,0,1-.22-2.07v-6h-1.29v-1.37h1.29v-2.57l1.75-1.05v3.62h1.77v1.37h-1.77v6.06a3.13,3.13,0,0,0,.09,1,.78.78,0,0,0,.31.34,1.11,1.11,0,0,0,.6.13A5.16,5.16,0,0,0,149.28,112.52Z"/><path class="cls-4" d="M158.1,110.75l1.81.23a4.38,4.38,0,0,1-1.59,2.47,5.4,5.4,0,0,1-6.58-.52,5.49,5.49,0,0,1-1.33-3.93,5.75,5.75,0,0,1,1.35-4.07,4.56,4.56,0,0,1,3.49-1.44,4.44,4.44,0,0,1,3.4,1.41,5.65,5.65,0,0,1,1.32,4c0,.1,0,.26,0,.47h-7.73a3.92,3.92,0,0,0,1,2.61,2.88,2.88,0,0,0,2.17.91,2.66,2.66,0,0,0,1.65-.51A3.29,3.29,0,0,0,158.1,110.75Zm-5.78-2.84h5.8a3.47,3.47,0,0,0-.67-2,2.68,2.68,0,0,0-2.18-1,2.79,2.79,0,0,0-2,.81A3.23,3.23,0,0,0,152.32,107.91Z"/><path class="cls-4" d="M17.64,142.3A17.44,17.44,0,0,1,15.18,138a13.5,13.5,0,0,1-.26-9.56,18.88,18.88,0,0,1,2.72-4.92H18.9c-.79,1.36-1.31,2.32-1.57,2.9a15.79,15.79,0,0,0-.93,2.82,16.27,16.27,0,0,0-.42,3.67,17.57,17.57,0,0,0,2.92,9.38Z"/><path class="cls-4" d="M20.94,138.09V123.78H22.7v5.13a3.91,3.91,0,0,1,3.1-1.42,4.19,4.19,0,0,1,2,.45A2.66,2.66,0,0,1,29,129.2a5.83,5.83,0,0,1,.37,2.32v6.57H27.63v-6.57a2.72,2.72,0,0,0-.57-1.92,2.13,2.13,0,0,0-1.62-.6,2.86,2.86,0,0,0-1.47.41,2.22,2.22,0,0,0-1,1.1,4.94,4.94,0,0,0-.29,1.91v5.67Z"/><path class="cls-4" d="M39.16,134.75,41,135a4.49,4.49,0,0,1-1.59,2.47,4.85,4.85,0,0,1-3,.88,4.76,4.76,0,0,1-3.61-1.4A5.49,5.49,0,0,1,31.48,133a5.74,5.74,0,0,1,1.34-4.07,4.58,4.58,0,0,1,3.5-1.44,4.44,4.44,0,0,1,3.4,1.41,5.65,5.65,0,0,1,1.32,4c0,.1,0,.26,0,.47H33.29a4,4,0,0,0,1,2.61,2.86,2.86,0,0,0,2.17.91,2.7,2.7,0,0,0,1.65-.51A3.34,3.34,0,0,0,39.16,134.75Zm-5.77-2.84h5.79a3.54,3.54,0,0,0-.66-2,2.7,2.7,0,0,0-2.18-1,2.8,2.8,0,0,0-2,.81A3.23,3.23,0,0,0,33.39,131.91Z"/><path class="cls-4" d="M43.16,138.09V127.72h1.59v1.57a4.25,4.25,0,0,1,1.11-1.45,1.93,1.93,0,0,1,1.13-.35,3.5,3.5,0,0,1,1.81.56l-.61,1.64a2.48,2.48,0,0,0-1.29-.39,1.69,1.69,0,0,0-1,.35,1.84,1.84,0,0,0-.65,1,6.73,6.73,0,0,0-.3,2v5.43Z"/><path class="cls-4" d="M56.94,134.75l1.82.23a4.49,4.49,0,0,1-1.59,2.47,4.85,4.85,0,0,1-3,.88,4.76,4.76,0,0,1-3.61-1.4A5.49,5.49,0,0,1,49.26,133a5.75,5.75,0,0,1,1.35-4.07,4.55,4.55,0,0,1,3.49-1.44,4.44,4.44,0,0,1,3.4,1.41,5.65,5.65,0,0,1,1.32,4c0,.1,0,.26,0,.47H51.07A4,4,0,0,0,52,136a2.86,2.86,0,0,0,2.17.91,2.7,2.7,0,0,0,1.65-.51A3.21,3.21,0,0,0,56.94,134.75Zm-5.77-2.84H57a3.47,3.47,0,0,0-.66-2,2.7,2.7,0,0,0-2.18-1,2.77,2.77,0,0,0-2,.81A3.23,3.23,0,0,0,51.17,131.91Z"/><path class="cls-4" d="M66.53,125.8v-2h1.76v2Zm0,12.29V127.72h1.76v10.37Z"/><path class="cls-4" d="M71,138.09V127.72h1.58v1.48a3.72,3.72,0,0,1,3.3-1.71,4.36,4.36,0,0,1,1.72.33,2.69,2.69,0,0,1,1.18.89,3.48,3.48,0,0,1,.55,1.3,10.48,10.48,0,0,1,.1,1.71v6.37H77.64v-6.31a4.6,4.6,0,0,0-.21-1.6,1.63,1.63,0,0,0-.73-.85,2.29,2.29,0,0,0-1.22-.32,2.87,2.87,0,0,0-1.94.71,3.55,3.55,0,0,0-.81,2.71v5.66Z"/><path class="cls-4" d="M82.1,125.8v-2h1.76v2Zm0,12.29V127.72h1.76v10.37Z"/><path class="cls-4" d="M90.37,136.52l.26,1.55a6.22,6.22,0,0,1-1.33.16,3,3,0,0,1-1.49-.3,1.68,1.68,0,0,1-.74-.8,6.42,6.42,0,0,1-.21-2.07v-6H85.57v-1.37h1.29v-2.57l1.74-1.05v3.62h1.77v1.37H88.6v6.06a2.74,2.74,0,0,0,.1,1,.71.71,0,0,0,.3.34,1.11,1.11,0,0,0,.6.13A5.05,5.05,0,0,0,90.37,136.52Z"/><path class="cls-4" d="M92.1,125.8v-2h1.76v2Zm0,12.29V127.72h1.76v10.37Z"/><path class="cls-4" d="M103.3,136.81a6.51,6.51,0,0,1-1.88,1.18,5.61,5.61,0,0,1-1.94.34,3.73,3.73,0,0,1-2.62-.84,2.72,2.72,0,0,1-.92-2.13,2.83,2.83,0,0,1,.34-1.39,3,3,0,0,1,.91-1,4.2,4.2,0,0,1,1.27-.58,11.75,11.75,0,0,1,1.56-.26,15.56,15.56,0,0,0,3.13-.61c0-.24,0-.39,0-.46a1.94,1.94,0,0,0-.49-1.51,2.94,2.94,0,0,0-2-.6,3.12,3.12,0,0,0-1.83.44,2.67,2.67,0,0,0-.87,1.54l-1.72-.24A4.29,4.29,0,0,1,97,128.9a3.49,3.49,0,0,1,1.55-1.05,7.09,7.09,0,0,1,2.36-.36,6.25,6.25,0,0,1,2.16.31,2.84,2.84,0,0,1,1.22.79,2.67,2.67,0,0,1,.54,1.19,9.67,9.67,0,0,1,.09,1.62v2.35a26.15,26.15,0,0,0,.11,3.1,4,4,0,0,0,.45,1.24h-1.84A3.7,3.7,0,0,1,103.3,136.81Zm-.15-3.92a12.65,12.65,0,0,1-2.87.66,7,7,0,0,0-1.53.35,1.46,1.46,0,0,0-.69.58,1.42,1.42,0,0,0-.25.83,1.48,1.48,0,0,0,.54,1.17,2.28,2.28,0,0,0,1.55.47,3.7,3.7,0,0,0,1.81-.44,2.78,2.78,0,0,0,1.16-1.22,4.24,4.24,0,0,0,.28-1.76Z"/><path class="cls-4" d="M107.62,138.09V123.78h1.76v14.31Z"/><path class="cls-4" d="M117,135l1.74-.28a2.46,2.46,0,0,0,.82,1.61,2.84,2.84,0,0,0,1.87.55,2.73,2.73,0,0,0,1.79-.49,1.49,1.49,0,0,0,.59-1.16,1.06,1.06,0,0,0-.52-.94,8,8,0,0,0-1.79-.59,16.17,16.17,0,0,1-2.68-.85,2.56,2.56,0,0,1-1.14-1,2.78,2.78,0,0,1-.07-2.68,2.92,2.92,0,0,1,.87-1,3.55,3.55,0,0,1,1.12-.51,5.25,5.25,0,0,1,1.51-.21,5.91,5.91,0,0,1,2.15.35,2.89,2.89,0,0,1,1.36.95,3.77,3.77,0,0,1,.61,1.61l-1.72.23a1.92,1.92,0,0,0-.68-1.25,2.49,2.49,0,0,0-1.59-.45,2.94,2.94,0,0,0-1.73.4,1.18,1.18,0,0,0-.51.94,1,1,0,0,0,.21.62,1.5,1.5,0,0,0,.67.46q.27.1,1.56.45a23.35,23.35,0,0,1,2.6.82,2.67,2.67,0,0,1,1.16.92,2.61,2.61,0,0,1,.42,1.51,2.9,2.9,0,0,1-.52,1.65,3.24,3.24,0,0,1-1.48,1.2,5.24,5.24,0,0,1-2.18.43,4.85,4.85,0,0,1-3.08-.84A3.92,3.92,0,0,1,117,135Z"/><path class="cls-4" d="M131.49,136.52l.26,1.55a6.22,6.22,0,0,1-1.33.16,3,3,0,0,1-1.48-.3,1.7,1.7,0,0,1-.75-.8,6.42,6.42,0,0,1-.21-2.07v-6h-1.29v-1.37H128v-2.57l1.75-1.05v3.62h1.76v1.37h-1.76v6.06a3.13,3.13,0,0,0,.09,1,.71.71,0,0,0,.3.34,1.11,1.11,0,0,0,.6.13A5,5,0,0,0,131.49,136.52Z"/><path class="cls-4" d="M140,136.81A6.51,6.51,0,0,1,138.1,138a5.61,5.61,0,0,1-1.94.34,3.73,3.73,0,0,1-2.62-.84,2.72,2.72,0,0,1-.92-2.13A2.83,2.83,0,0,1,133,134a3,3,0,0,1,.91-1,4.2,4.2,0,0,1,1.27-.58,11.75,11.75,0,0,1,1.56-.26,15.56,15.56,0,0,0,3.13-.61c0-.24,0-.39,0-.46a1.94,1.94,0,0,0-.49-1.51,2.94,2.94,0,0,0-2-.6,3.12,3.12,0,0,0-1.83.44,2.67,2.67,0,0,0-.87,1.54l-1.72-.24a4.29,4.29,0,0,1,.77-1.78,3.49,3.49,0,0,1,1.55-1.05,7.09,7.09,0,0,1,2.36-.36,6.25,6.25,0,0,1,2.16.31,2.84,2.84,0,0,1,1.22.79,2.67,2.67,0,0,1,.54,1.19,9.67,9.67,0,0,1,.09,1.62v2.35a26.15,26.15,0,0,0,.11,3.1,4,4,0,0,0,.45,1.24h-1.84A3.7,3.7,0,0,1,140,136.81Zm-.15-3.92a12.65,12.65,0,0,1-2.87.66,7,7,0,0,0-1.53.35,1.46,1.46,0,0,0-.69.58,1.42,1.42,0,0,0-.25.83,1.5,1.5,0,0,0,.53,1.17,2.33,2.33,0,0,0,1.56.47,3.7,3.7,0,0,0,1.81-.44,2.78,2.78,0,0,0,1.16-1.22,4.24,4.24,0,0,0,.28-1.76Z"/><path class="cls-4" d="M148.17,136.52l.26,1.55a6.22,6.22,0,0,1-1.33.16,3,3,0,0,1-1.48-.3,1.7,1.7,0,0,1-.75-.8,6.42,6.42,0,0,1-.21-2.07v-6h-1.29v-1.37h1.29v-2.57l1.75-1.05v3.62h1.76v1.37h-1.76v6.06a3.13,3.13,0,0,0,.09,1,.71.71,0,0,0,.3.34,1.11,1.11,0,0,0,.6.13A5,5,0,0,0,148.17,136.52Z"/><path class="cls-4" d="M157,134.75l1.82.23a4.49,4.49,0,0,1-1.59,2.47,4.85,4.85,0,0,1-3,.88,4.76,4.76,0,0,1-3.61-1.4,5.49,5.49,0,0,1-1.33-3.93,5.79,5.79,0,0,1,1.34-4.07,4.58,4.58,0,0,1,3.5-1.44,4.44,4.44,0,0,1,3.4,1.41,5.65,5.65,0,0,1,1.32,4c0,.1,0,.26,0,.47h-7.74a4,4,0,0,0,1,2.61,2.86,2.86,0,0,0,2.17.91,2.7,2.7,0,0,0,1.65-.51A3.28,3.28,0,0,0,157,134.75Zm-5.77-2.84H157a3.54,3.54,0,0,0-.66-2,2.7,2.7,0,0,0-2.18-1,2.8,2.8,0,0,0-2,.81A3.23,3.23,0,0,0,151.22,131.91Z"/><path class="cls-4" d="M162.17,142.3h-1.26a17.57,17.57,0,0,0,2.92-9.38,16.1,16.1,0,0,0-.42-3.65,15.18,15.18,0,0,0-.93-2.81c-.25-.58-.78-1.56-1.57-2.93h1.26a18.83,18.83,0,0,1,2.71,4.92,13.36,13.36,0,0,1-.26,9.56A17.75,17.75,0,0,1,162.17,142.3Z"/><text class="cls-3" transform="translate(22.96 290.78)">Optimal solution</text><text class="cls-3" transform="translate(648.89 243.7)">Goal state</text><text class="cls-2" transform="translate(279.22 130.15)">Zerind</text><text class="cls-5" transform="translate(191.18 173.63)">Arad</text><text class="cls-2" transform="translate(257.22 276.87)">Timisoara</text><text class="cls-2" transform="translate(355.02 324.02)">Lugoj</text><text class="cls-2" transform="translate(358.69 374.83)">Mehadia</text><text class="cls-2" transform="translate(266.54 427.4)">Drobeta</text><text class="cls-2" transform="translate(434.05 461.2)">Craiova</text><text class="cls-2" transform="translate(407.6 205.96)">Sibiu</text><text class="cls-2" transform="translate(512.14 209.01)">Fagaras</text><text class="cls-2" transform="translate(531.27 319.22)">Pitesti</text><text class="cls-2" transform="translate(809.85 238.96)">Vaslui</text><text class="cls-2" transform="translate(764.6 157.05)">Iasi</text><text class="cls-2" transform="translate(440.6 269.53)">Rimnicu Vilcea</text><path class="cls-1" d="M749.37,147.72l-86.2-37.3M730.41,355l67.87-120.44m0-7.95-48.91-75.19m-19,207.25h99.66m-1.84-4.28,38.52,75.2M655.22,384.93l71.52-26.29"/><text class="cls-5" transform="translate(655.8 411.72)">Bucharest</text><line class="cls-1" x1="655.22" y1="388.6" x2="617.92" y2="463.79"/><line class="cls-6" x1="550.06" y1="331.74" x2="651.55" y2="384.93"/><line class="cls-1" x1="460.19" y1="441.17" x2="546.4" y2="336.02"/><line class="cls-6" x1="433.29" y1="279.16" x2="542.73" y2="331.74"/><line class="cls-1" x1="400.28" y1="215.58" x2="527.44" y2="222.91"/><line class="cls-1" x1="455.91" y1="437.5" x2="433.9" y2="282.83"/><line class="cls-1" x1="343.42" y1="425.89" x2="455.91" y2="437.5"/><line class="cls-1" x1="343.42" y1="373.31" x2="339.75" y2="422.22"/><line class="cls-6" x1="429.63" y1="271.82" x2="398.45" y2="215.58"/><line class="cls-6" x1="245.6" y1="166.67" x2="396" y2="211.91"/><line class="cls-7" x1="396" y1="211.91" x2="298.18" y2="65.18"/><line class="cls-1" x1="339.75" y1="320.73" x2="343.42" y2="369.64"/><line class="cls-1" x1="249.27" y1="279.16" x2="339.75" y2="317.06"/><line class="cls-1" x1="241.94" y1="170.34" x2="245.6" y2="275.49"/><line class="cls-1" x1="264.56" y1="114.09" x2="241.94" y2="166.67"/><line class="cls-1" x1="294.51" y1="61.52" x2="264.56" y2="114.09"/><polyline class="cls-8" points="451.94 433.84 463.25 433.84 463.25 445.14 451.94 445.14 451.94 433.84"/><rect class="cls-1" x="451.94" y="433.84" width="11.31" height="11.31"/><polyline class="cls-8" points="425.96 271.52 437.27 271.52 437.27 282.83 425.96 282.83 425.96 271.52"/><rect class="cls-1" x="425.96" y="271.52" width="11.31" height="11.31"/><polyline class="cls-8" points="613.65 456.15 624.96 456.15 624.96 467.46 613.65 467.46 613.65 456.15"/><rect class="cls-1" x="613.65" y="456.15" width="11.31" height="11.31"/><polyline class="cls-8" points="723.08 350.99 734.39 350.99 734.39 362.3 723.08 362.3 723.08 350.99"/><rect class="cls-1" x="723.08" y="350.99" width="11.31" height="11.31"/><polyline class="cls-8" points="542.42 328.38 553.73 328.38 553.73 339.69 542.42 339.69 542.42 328.38"/><rect class="cls-1" x="542.42" y="328.38" width="11.31" height="11.31"/><polyline class="cls-8" points="655.22 103.09 666.53 103.09 666.53 114.4 655.22 114.4 655.22 103.09"/><rect class="cls-1" x="655.22" y="103.09" width="11.31" height="11.31"/><polyline class="cls-8" points="523.77 219.25 535.08 219.25 535.08 230.55 523.77 230.55 523.77 219.25"/><rect class="cls-1" x="523.77" y="219.25" width="11.31" height="11.31"/><polyline class="cls-8" points="339.75 365.36 351.06 365.36 351.06 376.67 339.75 376.67 339.75 365.36"/><rect class="cls-1" x="339.75" y="365.36" width="11.31" height="11.31"/><polyline class="cls-8" points="335.78 418.24 347.09 418.24 347.09 429.55 335.78 429.55 335.78 418.24"/><rect class="cls-1" x="335.78" y="418.24" width="11.31" height="11.31"/><polyline class="cls-8" points="335.78 313.4 347.09 313.4 347.09 324.7 335.78 324.7 335.78 313.4"/><rect class="cls-1" x="335.78" y="313.4" width="11.31" height="11.31"/><polyline class="cls-8" points="237.96 163 249.27 163 249.27 174.31 237.96 174.31 237.96 163"/><rect class="cls-9" x="237.96" y="163" width="11.31" height="11.31"/><polyline class="cls-8" points="241.63 271.52 252.94 271.52 252.94 282.83 241.63 282.83 241.63 271.52"/><rect class="cls-1" x="241.63" y="271.52" width="11.31" height="11.31"/><polyline class="cls-8" points="260.89 110.12 272.2 110.12 272.2 121.43 260.89 121.43 260.89 110.12"/><rect class="cls-1" x="260.89" y="110.12" width="11.31" height="11.31"/><polyline class="cls-8" points="290.54 57.54 301.85 57.54 301.85 68.85 290.54 68.85 290.54 57.54"/><rect class="cls-1" x="290.54" y="57.54" width="11.31" height="11.31"/><polyline class="cls-8" points="392.33 208.24 403.64 208.24 403.64 219.55 392.33 219.55 392.33 208.24"/><rect class="cls-1" x="392.33" y="208.24" width="11.31" height="11.31"/><polyline class="cls-8" points="862.47 426.19 873.78 426.19 873.78 437.5 862.47 437.5 862.47 426.19"/><rect class="cls-1" x="862.47" y="426.19" width="11.31" height="11.31"/><polyline class="cls-8" points="824.57 350.99 835.88 350.99 835.88 362.3 824.57 362.3 824.57 350.99"/><rect class="cls-1" x="824.57" y="350.99" width="11.31" height="11.31"/><polyline class="cls-8" points="792.27 225.56 803.58 225.56 803.58 236.87 792.27 236.87 792.27 225.56"/><rect class="cls-1" x="792.27" y="225.56" width="11.31" height="11.31"/><polyline class="cls-8" points="745.09 143.74 756.4 143.74 756.4 155.05 745.09 155.05 745.09 143.74"/><rect class="cls-1" x="745.09" y="143.74" width="11.31" height="11.31"/><polyline class="cls-8" points="647.88 380.95 659.19 380.95 659.19 392.26 647.88 392.26 647.88 380.95"/><rect class="cls-9" x="647.88" y="380.95" width="11.31" height="11.31"/><text class="cls-10" transform="translate(257.22 86.91)">71</text><text class="cls-10" transform="translate(228.82 140.38)">75</text><text class="cls-10" transform="translate(207.66 226.58)">118</text><text class="cls-10" transform="translate(275.12 316.26)">111</text><text class="cls-10" transform="translate(322.67 351.93)">70</text><text class="cls-10" transform="translate(322.24 404.17)">75</text><text class="cls-10" transform="translate(388.45 426.64)">120</text><text class="cls-10" transform="translate(353.29 136.78)">151</text><text class="cls-10" transform="translate(309.31 177.95)">140</text><text class="cls-10" transform="translate(465.23 215.39)">99</text><text class="cls-10" transform="translate(421.92 249.65)">80</text><text class="cls-10" transform="translate(475.75 326.91)">97</text><text class="cls-10" transform="translate(574.07 378.37)">101</text><text class="cls-10" transform="translate(602.96 312.42)">211</text><text class="cls-10" transform="translate(505.78 405.01)">138</text><text class="cls-10" transform="translate(452.43 371.12)">146</text><text class="cls-10" transform="translate(675.15 365.36)">85</text><text class="cls-10" transform="translate(641.61 441.54)">90</text><text class="cls-10" transform="translate(776.9 353.88)">98</text><text class="cls-10" transform="translate(772.82 303.28)">142</text><text class="cls-10" transform="translate(782.85 193.5)">92</text><text class="cls-11" transform="translate(708.06 125.85)">87</text><text class="cls-10" transform="translate(856.89 398.26)">86</text><line class="cls-9" x1="328.34" y1="110.42" x2="331.23" y2="109.61"/><line class="cls-12" x1="337.06" y1="107.95" x2="439.11" y2="79.01"/><line class="cls-9" x1="442.02" y1="78.19" x2="444.91" y2="77.37"/><line class="cls-9" x1="723.08" y1="108.74" x2="725.71" y2="107.3"/><line class="cls-13" x1="730.71" y1="104.56" x2="798.24" y2="67.6"/><line class="cls-9" x1="800.74" y1="66.23" x2="803.37" y2="64.79"/><line class="cls-9" x1="170.62" y1="282.83" x2="173.32" y2="281.52"/><line class="cls-14" x1="178.84" y1="278.84" x2="341.63" y2="199.85"/><line class="cls-9" x1="344.39" y1="198.51" x2="347.09" y2="197.2"/><line class="cls-9" x1="170.62" y1="110.12" x2="172.99" y2="111.96"/><line class="cls-15" x1="177.61" y1="115.57" x2="240.02" y2="164.22"/><line class="cls-9" x1="242.33" y1="166.02" x2="244.69" y2="167.86"/><line class="cls-16" x1="654.02" y1="249.65" x2="654.02" y2="386.61"/></svg>