<?xml version="1.0" encoding="UTF-8"?><svg id="maturity" xmlns="http://www.w3.org/2000/svg" viewBox="0 0 988 325"><circle cx="494" cy="141.55" r="100" style="fill:none; stroke:#0333ff; stroke-miterlimit:10; stroke-width:2px;"/><path d="m448.79,131.57h5.72c1.13,0,1.98.05,2.53.14.56.09,1.05.29,1.49.59.44.3.81.7,1.1,1.2s.44,1.06.44,1.67c0,.67-.18,1.29-.54,1.85-.36.56-.85.98-1.47,1.26.87.25,1.54.69,2.01,1.3.47.61.7,1.33.7,2.16,0,.65-.15,1.28-.45,1.9s-.72,1.11-1.24,1.47c-.52.37-1.17.59-1.94.68-.48.05-1.64.08-3.49.1h-4.87v-14.32Zm2.89,2.38v3.31h1.89c1.13,0,1.83-.02,2.1-.05.49-.06.88-.23,1.17-.51s.42-.66.42-1.12-.12-.8-.37-1.08c-.24-.28-.61-.44-1.09-.5-.29-.03-1.11-.05-2.47-.05h-1.66Zm0,5.69v3.83h2.68c1.04,0,1.7-.03,1.98-.09.43-.08.78-.27,1.05-.57s.41-.71.41-1.22c0-.43-.1-.79-.31-1.09-.21-.3-.51-.52-.9-.65s-1.25-.21-2.56-.21h-2.33Z" style="fill:#0333ff;"/><path d="m462.57,140.55c0-.91.22-1.79.67-2.65.45-.85,1.09-1.5,1.91-1.95s1.74-.67,2.76-.67c1.57,0,2.86.51,3.86,1.53,1,1.02,1.5,2.31,1.5,3.86s-.51,2.87-1.52,3.9c-1.01,1.03-2.29,1.55-3.82,1.55-.95,0-1.86-.21-2.72-.64s-1.52-1.06-1.97-1.89-.67-1.84-.67-3.03Zm2.81.15c0,1.03.24,1.82.73,2.36s1.09.82,1.81.82,1.32-.27,1.8-.82.73-1.34.73-2.38-.24-1.8-.73-2.34-1.08-.82-1.8-.82-1.32.27-1.81.82-.73,1.33-.73,2.36Z" style="fill:#0333ff;"/><path d="m482.25,145.88v-1.55c-.38.55-.87.99-1.49,1.31-.62.32-1.26.48-1.95.48s-1.32-.15-1.88-.46c-.55-.31-.95-.74-1.2-1.29-.25-.55-.37-1.32-.37-2.29v-6.56h2.74v4.77c0,1.46.05,2.35.15,2.68.1.33.28.59.55.78.27.19.61.29,1.02.29.47,0,.89-.13,1.26-.39.37-.26.62-.58.76-.96s.21-1.31.21-2.8v-4.38h2.74v10.37h-2.55Z" style="fill:#0333ff;"/><path d="m497.08,145.88h-2.74v-5.29c0-1.12-.06-1.84-.18-2.17-.12-.33-.31-.58-.57-.77-.26-.18-.58-.27-.95-.27-.47,0-.9.13-1.28.39-.38.26-.64.61-.78,1.04s-.21,1.22-.21,2.38v4.7h-2.74v-10.37h2.55v1.52c.9-1.17,2.04-1.76,3.42-1.76.61,0,1.16.11,1.66.33.5.22.88.5,1.14.83.26.34.44.72.54,1.15s.15,1.04.15,1.85v6.45Z" style="fill:#0333ff;"/><path d="m509.37,145.88h-2.55v-1.52c-.42.59-.92,1.03-1.5,1.32-.58.29-1.16.43-1.74.43-1.19,0-2.21-.48-3.06-1.44-.85-.96-1.27-2.3-1.27-4.02s.41-3.09,1.24-4.01c.83-.92,1.87-1.37,3.13-1.37,1.16,0,2.16.48,3.01,1.45v-5.16h2.74v14.32Zm-7.32-5.41c0,1.11.15,1.91.46,2.4.44.72,1.06,1.07,1.86,1.07.63,0,1.17-.27,1.61-.81s.66-1.34.66-2.41c0-1.19-.21-2.05-.64-2.57-.43-.52-.98-.79-1.65-.79s-1.2.26-1.64.78-.66,1.29-.66,2.32Z" style="fill:#0333ff;"/><path d="m514.13,138.68l-2.49-.45c.28-1,.76-1.75,1.45-2.23.68-.48,1.7-.72,3.05-.72,1.22,0,2.13.14,2.73.43.6.29,1.02.66,1.26,1.1.24.45.37,1.26.37,2.46l-.03,3.2c0,.91.04,1.58.13,2.02.09.43.25.9.49,1.39h-2.71c-.07-.18-.16-.45-.26-.81-.04-.16-.08-.27-.1-.32-.47.46-.97.8-1.5,1.03-.53.23-1.1.34-1.71.34-1.07,0-1.91-.29-2.52-.87-.62-.58-.92-1.31-.92-2.2,0-.59.14-1.11.42-1.57s.67-.81,1.18-1.05,1.23-.46,2.18-.64c1.28-.24,2.17-.47,2.67-.67v-.27c0-.53-.13-.9-.39-1.13s-.75-.34-1.47-.34c-.49,0-.87.1-1.14.29-.27.19-.49.53-.66,1.01Zm3.67,2.23c-.35.12-.91.26-1.67.42-.76.16-1.26.32-1.49.48-.36.25-.54.58-.54.97s.14.72.43,1c.29.28.65.42,1.09.42.49,0,.97-.16,1.42-.49.33-.25.55-.55.65-.91.07-.23.11-.68.11-1.34v-.55Z" style="fill:#0333ff;"/><path d="m525.83,145.88h-2.74v-10.37h2.55v1.47c.44-.7.83-1.16,1.18-1.38.35-.22.74-.33,1.19-.33.62,0,1.23.17,1.81.52l-.85,2.39c-.46-.3-.89-.45-1.29-.45s-.71.11-.98.32c-.27.21-.48.59-.63,1.15-.15.55-.23,1.71-.23,3.48v3.2Z" style="fill:#0333ff;"/><path d="m529.68,135.51h2.92l2.48,7.36,2.42-7.36h2.84l-3.66,9.98-.65,1.81c-.24.61-.47,1.07-.69,1.39-.22.32-.47.58-.75.78-.28.2-.63.35-1.04.46-.41.11-.88.17-1.4.17s-1.04-.06-1.55-.17l-.24-2.15c.43.08.82.13,1.16.13.64,0,1.11-.19,1.42-.56.31-.38.54-.85.7-1.43l-3.95-10.4Z" style="fill:#0333ff;"/><path d="m450.25,167.48h-2.74v-10.37h2.55v1.47c.44-.7.83-1.16,1.18-1.38.35-.22.74-.33,1.19-.33.62,0,1.23.17,1.81.52l-.85,2.39c-.46-.3-.89-.45-1.29-.45s-.71.11-.98.32c-.27.21-.48.59-.63,1.15-.15.55-.23,1.71-.23,3.48v3.2Z" style="fill:#0333ff;"/><path d="m461.42,164.18l2.73.46c-.35,1-.91,1.77-1.67,2.29-.76.52-1.71.79-2.85.79-1.8,0-3.14-.59-4-1.77-.68-.94-1.03-2.13-1.03-3.57,0-1.72.45-3.06,1.35-4.04.9-.97,2.03-1.46,3.41-1.46,1.54,0,2.76.51,3.65,1.53.89,1.02,1.32,2.58,1.28,4.68h-6.88c.02.81.24,1.45.66,1.9.42.45.95.68,1.58.68.43,0,.79-.12,1.08-.35s.51-.61.66-1.13Zm.16-2.77c-.02-.79-.22-1.4-.62-1.81-.39-.41-.87-.62-1.43-.62-.6,0-1.09.22-1.48.65-.39.44-.58,1.03-.58,1.78h4.1Z" style="fill:#0333ff;"/><path d="m465.57,164.53l2.75-.42c.12.53.35.94.71,1.22.36.28.86.42,1.5.42.71,0,1.24-.13,1.6-.39.24-.18.36-.43.36-.73,0-.21-.07-.38-.2-.52-.14-.13-.44-.25-.92-.36-2.21-.49-3.62-.93-4.21-1.34-.82-.56-1.23-1.34-1.23-2.33,0-.9.35-1.65,1.06-2.27.71-.61,1.81-.92,3.3-.92s2.47.23,3.16.69c.69.46,1.17,1.15,1.43,2.05l-2.59.48c-.11-.4-.32-.71-.63-.93s-.75-.32-1.32-.32c-.72,0-1.24.1-1.55.3-.21.14-.31.33-.31.56,0,.2.09.36.27.5.25.18,1.1.44,2.56.77s2.48.74,3.06,1.22c.57.49.86,1.17.86,2.04,0,.95-.4,1.77-1.19,2.45s-1.97,1.03-3.53,1.03c-1.41,0-2.53-.29-3.35-.86-.82-.57-1.36-1.35-1.62-2.33Z" style="fill:#0333ff;"/><path d="m477.02,162.15c0-.91.22-1.79.67-2.65.45-.85,1.08-1.5,1.91-1.95s1.74-.67,2.76-.67c1.57,0,2.85.51,3.86,1.53,1,1.02,1.5,2.31,1.5,3.86s-.51,2.87-1.52,3.9c-1.01,1.03-2.29,1.55-3.82,1.55-.95,0-1.86-.21-2.72-.64s-1.52-1.06-1.97-1.89-.67-1.84-.67-3.03Zm2.81.15c0,1.03.24,1.82.73,2.36s1.09.82,1.81.82,1.32-.27,1.8-.82.73-1.34.73-2.38-.24-1.8-.73-2.34-1.09-.82-1.8-.82-1.32.27-1.81.82-.73,1.33-.73,2.36Z" style="fill:#0333ff;"/><path d="m496.7,167.48v-1.55c-.38.55-.87.99-1.49,1.31-.62.32-1.26.48-1.95.48s-1.32-.15-1.88-.46c-.55-.31-.95-.74-1.2-1.29-.25-.55-.37-1.32-.37-2.29v-6.56h2.74v4.77c0,1.46.05,2.35.15,2.68.1.33.29.59.55.78.27.19.61.29,1.02.29.47,0,.89-.13,1.26-.39.37-.26.62-.58.76-.96s.21-1.31.21-2.8v-4.38h2.74v10.37h-2.55Z" style="fill:#0333ff;"/><path d="m504.72,167.48h-2.74v-10.37h2.55v1.47c.44-.7.83-1.16,1.18-1.38.35-.22.74-.33,1.19-.33.62,0,1.23.17,1.81.52l-.85,2.39c-.46-.3-.89-.45-1.29-.45s-.71.11-.98.32c-.27.21-.48.59-.63,1.15-.15.55-.23,1.71-.23,3.48v3.2Z" style="fill:#0333ff;"/><path d="m518.92,160.18l-2.71.49c-.09-.54-.3-.95-.62-1.22s-.74-.41-1.25-.41c-.68,0-1.23.24-1.64.71-.41.47-.61,1.26-.61,2.37,0,1.23.21,2.1.62,2.61s.97.76,1.67.76c.52,0,.95-.15,1.28-.44.33-.3.57-.81.7-1.53l2.7.46c-.28,1.24-.82,2.17-1.61,2.8-.79.63-1.86.95-3.19.95-1.52,0-2.73-.48-3.63-1.44s-1.35-2.28-1.35-3.97.45-3.04,1.36-4c.91-.95,2.13-1.43,3.67-1.43,1.26,0,2.27.27,3.01.82.75.54,1.28,1.37,1.61,2.49Z" style="fill:#0333ff;"/><path d="m527,164.18l2.73.46c-.35,1-.91,1.77-1.67,2.29-.76.52-1.71.79-2.85.79-1.8,0-3.14-.59-4-1.77-.68-.94-1.03-2.13-1.03-3.57,0-1.72.45-3.06,1.35-4.04.9-.97,2.03-1.46,3.41-1.46,1.54,0,2.76.51,3.65,1.53.89,1.02,1.32,2.58,1.28,4.68h-6.88c.02.81.24,1.45.66,1.9.42.45.95.68,1.58.68.43,0,.79-.12,1.08-.35s.51-.61.66-1.13Zm.16-2.77c-.02-.79-.22-1.4-.62-1.81-.39-.41-.87-.62-1.43-.62-.6,0-1.09.22-1.48.65-.39.44-.58,1.03-.58,1.78h4.1Z" style="fill:#0333ff;"/><path d="m531.15,164.53l2.75-.42c.12.53.35.94.71,1.22.36.28.86.42,1.5.42.71,0,1.24-.13,1.6-.39.24-.18.36-.43.36-.73,0-.21-.07-.38-.2-.52-.14-.13-.44-.25-.92-.36-2.21-.49-3.62-.93-4.21-1.34-.82-.56-1.23-1.34-1.23-2.33,0-.9.35-1.65,1.06-2.27.71-.61,1.81-.92,3.3-.92s2.47.23,3.16.69c.69.46,1.17,1.15,1.43,2.05l-2.59.48c-.11-.4-.32-.71-.63-.93s-.75-.32-1.32-.32c-.72,0-1.24.1-1.55.3-.21.14-.31.33-.31.56,0,.2.09.36.27.5.25.18,1.1.44,2.56.77s2.48.74,3.06,1.22c.57.49.86,1.17.86,2.04,0,.95-.4,1.77-1.19,2.45s-1.97,1.03-3.53,1.03c-1.41,0-2.53-.29-3.35-.86-.82-.57-1.36-1.35-1.62-2.33Z" style="fill:#0333ff;"/><line x1="225.49" y1="141.55" x2="386.82" y2="141.55" style="fill:none; stroke:#0333ff; stroke-miterlimit:10;"/><polygon points="226.95 146.54 218.31 141.55 226.95 136.57 226.95 146.54" style="fill:#0333ff;"/><polygon points="385.37 146.54 394 141.55 385.37 136.57 385.37 146.54" style="fill:#0333ff;"/><line x1="601.18" y1="141.55" x2="762.51" y2="141.55" style="fill:none; stroke:#0333ff; stroke-miterlimit:10;"/><polygon points="602.63 146.54 594 141.55 602.63 136.57 602.63 146.54" style="fill:#0333ff;"/><polygon points="761.05 146.54 769.69 141.55 761.05 136.57 761.05 146.54" style="fill:#0333ff;"/><path d="m807.19,141.55v-15.75h5.1c1.93,0,3.19.08,3.78.24.9.24,1.66.75,2.27,1.54.61.79.91,1.81.91,3.07,0,.97-.18,1.78-.53,2.44-.35.66-.8,1.18-1.34,1.55-.54.38-1.09.62-1.65.75-.76.15-1.86.23-3.3.23h-2.07v5.94h-3.18Zm3.18-13.08v4.47h1.74c1.25,0,2.09-.08,2.51-.25.42-.16.75-.42.99-.77.24-.35.36-.76.36-1.22,0-.57-.17-1.05-.5-1.42-.34-.37-.76-.6-1.28-.7-.38-.07-1.14-.11-2.29-.11h-1.54Z" style="fill:#1d1d1b;"/><path d="m821.84,141.55v-15.75h3.02v15.75h-3.02Z" style="fill:#1d1d1b;"/><path d="m830.21,133.62l-2.74-.49c.31-1.1.84-1.92,1.59-2.45.75-.53,1.87-.79,3.35-.79,1.35,0,2.35.16,3.01.48.66.32,1.12.72,1.39,1.21.27.49.4,1.39.4,2.7l-.03,3.52c0,1,.05,1.74.15,2.22.1.48.28.99.54,1.53h-2.99c-.08-.2-.18-.5-.29-.89-.05-.18-.09-.3-.11-.35-.52.5-1.07.88-1.65,1.13-.59.25-1.21.38-1.88.38-1.17,0-2.1-.32-2.78-.96-.68-.64-1.02-1.44-1.02-2.42,0-.64.15-1.22.46-1.72s.74-.89,1.29-1.16,1.36-.5,2.4-.7c1.41-.26,2.39-.51,2.93-.74v-.3c0-.58-.14-.99-.43-1.24-.29-.25-.83-.37-1.62-.37-.54,0-.96.11-1.26.32-.3.21-.54.58-.73,1.11Zm4.04,2.45c-.39.13-1,.28-1.84.46-.84.18-1.39.35-1.64.53-.39.28-.59.63-.59,1.06s.16.79.47,1.1c.32.31.72.46,1.2.46.54,0,1.06-.18,1.56-.54.37-.27.61-.6.72-1,.08-.26.12-.75.12-1.47v-.6Z" style="fill:#1d1d1b;"/><path d="m845.42,130.14v2.41h-2.06v4.6c0,.93.02,1.47.06,1.63.04.15.13.28.27.38.14.1.31.15.51.15.28,0,.68-.1,1.21-.29l.26,2.34c-.7.3-1.5.45-2.38.45-.54,0-1.04-.09-1.47-.27-.44-.18-.76-.42-.96-.71-.21-.29-.35-.68-.42-1.18-.06-.35-.1-1.06-.1-2.13v-4.97h-1.39v-2.41h1.39v-2.27l3.03-1.76v4.03h2.06Z" style="fill:#1d1d1b;"/><path d="m846.19,130.14h1.68v-.86c0-.96.1-1.68.31-2.15.2-.47.58-.86,1.13-1.15.55-.3,1.24-.45,2.08-.45s1.7.13,2.52.39l-.41,2.11c-.48-.11-.94-.17-1.39-.17s-.75.1-.94.31-.28.6-.28,1.18v.81h2.26v2.37h-2.26v9.03h-3.02v-9.03h-1.68v-2.37Z" style="fill:#1d1d1b;"/><path d="m854.14,135.69c0-1,.25-1.97.74-2.91.49-.94,1.19-1.65,2.1-2.15.91-.49,1.92-.74,3.03-.74,1.73,0,3.14.56,4.24,1.68,1.1,1.12,1.65,2.54,1.65,4.25s-.56,3.16-1.67,4.29c-1.11,1.14-2.52,1.7-4.21,1.7-1.05,0-2.04-.24-2.99-.71-.95-.47-1.67-1.17-2.17-2.08s-.74-2.02-.74-3.34Zm3.09.16c0,1.13.27,2,.81,2.6s1.2.9,1.99.9,1.45-.3,1.98-.9c.53-.6.8-1.48.8-2.62s-.27-1.98-.8-2.58c-.53-.6-1.2-.9-1.98-.9s-1.45.3-1.99.9-.81,1.47-.81,2.6Z" style="fill:#1d1d1b;"/><path d="m871.17,141.55h-3.02v-11.41h2.8v1.62c.48-.77.91-1.27,1.29-1.51.38-.24.82-.37,1.31-.37.69,0,1.35.19,1.99.57l-.93,2.63c-.51-.33-.98-.49-1.42-.49s-.78.12-1.07.35c-.29.23-.52.65-.69,1.26-.17.61-.25,1.88-.25,3.82v3.52Z" style="fill:#1d1d1b;"/><path d="m876.61,130.14h2.78v1.56c1-1.21,2.18-1.82,3.56-1.82.73,0,1.36.15,1.9.45s.98.76,1.32,1.36c.5-.61,1.04-1.06,1.62-1.36s1.2-.45,1.86-.45c.84,0,1.55.17,2.13.51.58.34,1.01.84,1.3,1.5.21.49.31,1.27.31,2.36v7.29h-3.02v-6.52c0-1.13-.1-1.86-.31-2.19-.28-.43-.71-.64-1.29-.64-.42,0-.82.13-1.19.39s-.64.64-.81,1.13c-.17.5-.25,1.28-.25,2.36v5.48h-3.02v-6.25c0-1.11-.05-1.83-.16-2.15s-.27-.56-.5-.72c-.23-.16-.53-.24-.92-.24-.47,0-.88.13-1.26.38-.37.25-.64.61-.8,1.08-.16.47-.24,1.26-.24,2.35v5.54h-3.02v-11.41Z" style="fill:#1d1d1b;"/><path d="m806.47,157.29c0-1,.25-1.97.74-2.91.49-.94,1.19-1.65,2.1-2.15.91-.49,1.92-.74,3.03-.74,1.73,0,3.14.56,4.24,1.68,1.1,1.12,1.65,2.54,1.65,4.25s-.56,3.16-1.67,4.29c-1.11,1.14-2.52,1.7-4.21,1.7-1.05,0-2.04-.24-2.99-.71-.95-.47-1.67-1.17-2.17-2.08s-.74-2.02-.74-3.34Zm3.09.16c0,1.13.27,2,.81,2.6s1.2.9,1.99.9,1.45-.3,1.98-.9c.53-.6.8-1.48.8-2.62s-.27-1.98-.8-2.58c-.53-.6-1.2-.9-1.98-.9s-1.45.3-1.99.9-.81,1.47-.81,2.6Z" style="fill:#1d1d1b;"/><path d="m822.73,163.15l-3.61-11.41h2.93l2.14,7.48,1.97-7.48h2.91l1.9,7.48,2.18-7.48h2.98l-3.66,11.41h-2.9l-1.97-7.34-1.93,7.34h-2.93Z" style="fill:#1d1d1b;"/><path d="m848.09,163.15h-3.02v-5.82c0-1.23-.06-2.03-.19-2.39-.13-.36-.34-.64-.63-.84-.29-.2-.64-.3-1.05-.3-.52,0-.99.14-1.41.43-.42.29-.7.67-.85,1.14s-.23,1.35-.23,2.62v5.17h-3.02v-11.41h2.8v1.68c1-1.29,2.25-1.93,3.76-1.93.67,0,1.27.12,1.83.36.55.24.97.55,1.25.92.28.37.48.79.59,1.27s.17,1.15.17,2.03v7.09Z" style="fill:#1d1d1b;"/><path d="m857.76,159.52l3.01.5c-.39,1.1-1,1.94-1.83,2.52-.83.58-1.88.86-3.13.86-1.98,0-3.45-.65-4.4-1.94-.75-1.04-1.13-2.35-1.13-3.93,0-1.89.49-3.37,1.48-4.44.99-1.07,2.24-1.61,3.75-1.61,1.7,0,3.04.56,4.02,1.68.98,1.12,1.45,2.84,1.41,5.15h-7.56c.02.9.26,1.59.73,2.09.46.5,1.04.75,1.74.75.47,0,.87-.13,1.19-.39s.57-.67.73-1.25Zm.17-3.05c-.02-.87-.25-1.54-.68-1.99-.43-.45-.95-.68-1.57-.68-.66,0-1.2.24-1.63.72-.43.48-.64,1.13-.63,1.96h4.51Z" style="fill:#1d1d1b;"/><path d="m866.28,163.15h-3.02v-11.41h2.8v1.62c.48-.77.91-1.27,1.29-1.51.38-.24.82-.37,1.3-.37.69,0,1.35.19,1.99.57l-.93,2.63c-.51-.33-.98-.49-1.42-.49s-.78.12-1.07.35c-.29.23-.53.65-.69,1.26-.17.61-.25,1.88-.25,3.82v3.52Z" style="fill:#1d1d1b;"/><path d="m128.76,141.55v-13.08h-4.67v-2.66h12.51v2.66h-4.66v13.08h-3.18Z" style="fill:#1d1d1b;"/><path d="m141.64,125.8v5.79c.97-1.14,2.14-1.71,3.49-1.71.7,0,1.32.13,1.88.39s.98.59,1.26.99c.28.4.48.85.58,1.33.1.49.16,1.24.16,2.27v6.69h-3.02v-6.03c0-1.2-.06-1.96-.17-2.28-.11-.32-.32-.58-.61-.77-.29-.19-.65-.28-1.09-.28-.5,0-.95.12-1.34.37-.39.24-.68.61-.87,1.1-.18.49-.27,1.22-.27,2.18v5.71h-3.02v-15.75h3.02Z" style="fill:#1d1d1b;"/><path d="m152.07,128.6v-2.79h3.02v2.79h-3.02Zm0,12.96v-11.41h3.02v11.41h-3.02Z" style="fill:#1d1d1b;"/><path d="m161.07,141.55h-3.02v-11.41h2.8v1.62c.48-.77.91-1.27,1.29-1.51.38-.24.82-.37,1.3-.37.69,0,1.35.19,1.99.57l-.94,2.63c-.51-.33-.98-.49-1.42-.49s-.78.12-1.07.35c-.29.23-.52.65-.69,1.26-.17.61-.25,1.88-.25,3.82v3.52Z" style="fill:#1d1d1b;"/><path d="m177.21,141.55h-2.8v-1.68c-.47.65-1.02,1.14-1.65,1.46s-1.27.48-1.92.48c-1.31,0-2.43-.53-3.37-1.58-.93-1.06-1.4-2.53-1.4-4.42s.45-3.4,1.36-4.41c.91-1.01,2.06-1.51,3.45-1.51,1.27,0,2.38.53,3.31,1.59v-5.67h3.02v15.75Zm-8.06-5.95c0,1.22.17,2.1.51,2.64.49.79,1.17,1.18,2.04,1.18.69,0,1.29-.3,1.77-.89.49-.59.73-1.47.73-2.65,0-1.31-.24-2.25-.71-2.83-.47-.58-1.08-.86-1.81-.86s-1.32.28-1.8.85-.73,1.42-.73,2.55Z" style="fill:#1d1d1b;"/><path d="m107.95,151.74h2.81v1.68c.37-.57.86-1.04,1.48-1.4.62-.36,1.31-.54,2.07-.54,1.33,0,2.45.52,3.37,1.56.92,1.04,1.39,2.49,1.39,4.34s-.47,3.39-1.4,4.44c-.93,1.06-2.06,1.58-3.38,1.58-.63,0-1.2-.13-1.71-.38s-1.05-.68-1.62-1.29v5.75h-3.02v-15.75Zm2.99,5.51c0,1.28.25,2.23.76,2.84.51.61,1.13.92,1.86.92s1.29-.28,1.75-.84c.47-.56.7-1.48.7-2.77,0-1.2-.24-2.08-.72-2.66-.48-.58-1.07-.87-1.78-.87s-1.35.28-1.84.85c-.49.57-.73,1.41-.73,2.53Z" style="fill:#1d1d1b;"/><path d="m123.73,155.22l-2.74-.49c.31-1.1.84-1.92,1.59-2.45.75-.53,1.87-.79,3.35-.79,1.35,0,2.35.16,3.01.48.66.32,1.12.72,1.39,1.21.27.49.4,1.39.4,2.7l-.03,3.52c0,1,.05,1.74.14,2.22.1.48.28.99.54,1.53h-2.99c-.08-.2-.18-.5-.29-.89-.05-.18-.09-.3-.11-.35-.52.5-1.07.88-1.65,1.13-.59.25-1.21.38-1.88.38-1.18,0-2.1-.32-2.78-.96-.68-.64-1.02-1.44-1.02-2.42,0-.64.15-1.22.46-1.72.31-.5.74-.89,1.29-1.16.55-.27,1.35-.5,2.4-.7,1.41-.26,2.39-.51,2.93-.74v-.3c0-.58-.14-.99-.43-1.24-.29-.25-.83-.37-1.62-.37-.54,0-.96.11-1.26.32-.3.21-.54.58-.73,1.11Zm4.04,2.45c-.39.13-1,.28-1.84.46-.84.18-1.39.35-1.64.53-.39.28-.59.63-.59,1.06s.16.79.47,1.1c.31.31.71.46,1.2.46.54,0,1.06-.18,1.56-.54.37-.27.61-.6.72-1,.08-.26.12-.75.12-1.47v-.6Z" style="fill:#1d1d1b;"/><path d="m136.6,163.15h-3.02v-11.41h2.8v1.62c.48-.77.91-1.27,1.29-1.51.38-.24.82-.37,1.3-.37.69,0,1.35.19,1.99.57l-.94,2.63c-.51-.33-.98-.49-1.42-.49s-.78.12-1.07.35c-.29.23-.52.65-.69,1.26-.17.61-.25,1.88-.25,3.82v3.52Z" style="fill:#1d1d1b;"/><path d="m147.51,151.74v2.41h-2.06v4.6c0,.93.02,1.47.06,1.63.04.15.13.28.27.38.14.1.31.15.51.15.28,0,.68-.1,1.21-.29l.26,2.34c-.7.3-1.5.45-2.38.45-.54,0-1.04-.09-1.47-.27-.44-.18-.76-.42-.96-.71s-.35-.68-.42-1.18c-.06-.35-.1-1.06-.1-2.13v-4.97h-1.39v-2.41h1.39v-2.27l3.03-1.76v4.03h2.06Z" style="fill:#1d1d1b;"/><path d="m149.6,150.2v-2.79h3.02v2.79h-3.02Zm0,12.96v-11.41h3.02v11.41h-3.02Z" style="fill:#1d1d1b;"/><path d="m162.32,159.52l3.01.5c-.39,1.1-1,1.94-1.83,2.52-.83.58-1.88.86-3.13.86-1.98,0-3.45-.65-4.4-1.94-.75-1.04-1.13-2.35-1.13-3.93,0-1.89.49-3.37,1.48-4.44.99-1.07,2.24-1.61,3.75-1.61,1.7,0,3.04.56,4.02,1.68.98,1.12,1.45,2.84,1.41,5.15h-7.56c.02.9.26,1.59.73,2.09.46.5,1.04.75,1.74.75.47,0,.87-.13,1.19-.39s.57-.67.73-1.25Zm.17-3.05c-.02-.87-.25-1.54-.68-1.99-.43-.45-.95-.68-1.57-.68-.66,0-1.2.24-1.63.72-.43.48-.64,1.13-.63,1.96h4.51Z" style="fill:#1d1d1b;"/><path d="m166.88,159.9l3.03-.46c.13.59.39,1.03.78,1.34.39.3.95.46,1.65.46.78,0,1.37-.14,1.76-.43.27-.2.4-.47.4-.81,0-.23-.07-.42-.21-.57-.15-.14-.49-.28-1.01-.4-2.44-.54-3.98-1.03-4.63-1.47-.9-.62-1.35-1.47-1.35-2.57,0-.99.39-1.82,1.17-2.49.78-.67,1.99-1.01,3.63-1.01s2.72.25,3.48.76c.76.51,1.28,1.26,1.57,2.26l-2.85.53c-.12-.44-.35-.78-.69-1.02-.34-.24-.83-.35-1.46-.35-.79,0-1.36.11-1.71.33-.23.16-.34.36-.34.61,0,.21.1.4.3.55.27.2,1.21.48,2.82.85,1.61.37,2.73.81,3.37,1.34.63.54.95,1.29.95,2.25,0,1.05-.44,1.94-1.31,2.7-.88.75-2.17,1.13-3.88,1.13-1.55,0-2.78-.31-3.69-.95-.91-.63-1.5-1.49-1.78-2.57Z" style="fill:#1d1d1b;"/><text transform="translate(290.15 102.23)" style="fill:#1d1d1b; font-family:ArialMT, Arial; font-size:18px;"><tspan x="0" y="0">Use</tspan></text><text transform="translate(653.83 102.23)" style="fill:#1d1d1b; font-family:ArialMT, Arial; font-size:18px;"><tspan x="0" y="0">Design</tspan></text><path d="m638.14,237.37c-.17-.79.46-.75.62-1.46.5-3.12,3.37-6.49,4.29-9.2.21-.71.54-2.58,1.62-2.21.46-.21-.29-.17-.46-.42-.25-.29.12-.71.21-1.04s.29-1.12.5-1.12c.08,0,.12.08.21.29.25.12.46-.25.67-.33.62,0,.38-.25.83-.33.12.37-.17.46-.21.67-.04.29.08.58,0,.92s-.17.58-.42.83c-.33.33-.08.54-.17.96-.25,1.5-.96,2.66-1.25,3.79.33,0,.42-.04.71-.17.25-.08.62.17.92.12.54-.12,2-.21,2.25-.75.25-.38.29-.33.71-.54.33-.12.62-.12.92-.25,1.33-.62,3.08-2.46,3.83-3.79.42-.75.29-1.33.17-2.12-.38-2.58-1.83-4.21-3.12-6.83-.17-.33-.46-.21-.79-.25-.5-.25-.38-.46-.96-.33-.42-.08-.67-.17-.92-.17-.29,0-.54.08-.96.33l-.92.5c-.42.21-.75.12-.58.62.13.37-1.29.75-1.67.83-.46.12-1.12.21-1,.75.08.33.04-.25.17-.08.21.29.29.62.33,1-.25.58-.54.08-.58.08l.08-.42c-.25,0-.13,0-.33.25-.04.04-.08.04-.08.25-.42,0-.25-.29-.25-.58.42.04.08-.29.25-.42l.67-1c.38-.04.87.04,1.17-.25.08-.08.42-.04.38-.25-.96-.37.5-1.71.75-2.12.71-1,2.21-1.46,3.41-1.5,0,.29.04.38.12.38.17,0,.46-.25.79-.21.54.08,1,.37,1.42.67,2.12,1.54,3.16,4.45,4.08,6.58.54.54.58,1.29.58,2.04,0,.5-.04,1,.04,1.42.12.83-.46.75-.54,1.42-.12,1.29-1.04,2-1.83,2.96-.62.75-1.83,1.12-2.21,1.75-.67.25-1.12.75-1.87,1-.54.21-.96.54-1.42.75-.5-.58.29-.54.71-.75.5-.25,1.33-.58,1-1-1,.29-1.58.58-2.62.62-.5,0-.79.33-1.12.71-.33.29-1.75.17-1.25.62.21,0,.25.04.29.29-.75.12-1.29.25-1.96.33-.42.42-.13.62-.42,1.21-1.29,2.08-1.75,3.79-2.87,5.66-.37.62-.83,1.21-1.17,1.87-.79.04-1.12.08-1.37-.83-.17-.75.37-1.12.62-1.75Zm3.87-18.44c.12.12.25.33.42.12-.38-.33-.33-.83-.17-1.29.25.25.67.37.83.71.5.83-.42.25-.42.58.08,0,.17.04.25.08,0,.17-.21.17-.17.29l.37.17c-.04.17-.12.29-.29.38,0-.21-.21-.25-.17-.5-.29,0-1.08-.12-.67-.54Zm.08.79c.33-.04.46-.04.42.25-.13,0-.21.12-.33.17-.17-.12-.21-.25-.08-.42Zm.67.42c.25.08.12-.04.25.17-.21,0-.25.08-.42-.08-.04-.12.04-.12.17-.08Zm2.54.12c-.04-.5.08-.21.42-.54.5.17.79.46.58,1-.38-.21-.13-.75-.5-.37-.12.21.08.17,0,.37-.42.25,0-.42-.58.17-.17-.08,0-.42.08-.62Zm.42,1.21c.17.08.29.25,0,.25,0,0-.46-.17,0-.25Zm2.08,8.66c.08.12.13.17.17.33-.62,0-1.58.29-2.33.42-.12-.75,1.75-.46,2.17-.75Z" style="fill:#0333ff;"/><path d="m657.54,238.37c0-.71.25-1.5.96-1.79.38-.17.33-.71.54-.71.04,0,.12.04.21.12.25.25-.54.21-.37.46.12.21.12.62.58.12.37-.37.5-.25.5.25,0,.58.58.33.71.25,1.17-.75.25-1.58.12-1.58-.29,0-.67.42-.96.42-.12,0-.21-.04-.25-.17-.37-.67,1.04-.13,1.46-.96.29-.62.5-1.04.96-1.46.38-.29.71-.83,1.21-.83.83,0,1.29-.96,2.25-.96,2.71,0,5.5.42,8.2.42.92,0,1.83-.04,2.71-.17,1.08-.17,2.17-.38,3.37-.38.58,0,1.33-.96,1.92-.83.5.12.92-.12.71-.58-.5-1.04,2.91-1.75,3.5-1.58.46.17.79.71,1.21.71.12,0,.29-.08.46-.21.25-.17.67-.29,1-.29.37,0,.71.17.54.46-.42.87.38,1.08.38.42,0-.62.42-.87.92-.87.42,0,.92.17,1.25.42.71.46,1.29,1.71.37,2.37-.75.54-1.25,2.41-2.41,2.41-.83,0-1.87,1.83-2.75,2.17-.71.25-.96,1.08-1.66,1.08-.75,0-1.46.08-2.29.21-1.38.21-3.58-.79-3.58-2.5,0-.5-.12-1.21-.87-1.08-.83.12-1.71.17-2.54.17-2.12,0-4.29-.29-6.45-.29-.83,0-2.83-.42-3.71-.12-1.37.37-2.75,1.71-3.58,3.25-.42.75-1.33,1.12-1.71,1.92-.33.67-1.42,2.25-2.25,2.16-1.46-.17-.62-1.58-.62-2.41Zm1.83-.42c.17-.17-.33-.37-.5-.21-.17.17.17.54.5.21Zm.33-4.75c.58-.25,1.25.46.96.96-.08.17-.21.21-.33.21-.21,0-.46-.21-.71-.21-.13,0-.25.08-.38.25.87,0,.75.75.38.75-.08,0-.17-.04-.29-.12-.96-.92,0-1.67.38-1.83Zm.42,4.91c.17,0,.29-.17.25-.58-.04-.46-.71,0-1.21-.25-.21,0,.54.83.96.83Zm1.5-2.5c.29.42,1.33-2.08.71-1.67-.5.37-1.08,1.17-.71,1.67Zm4.91-2.71c.13,0,.21-.04.21-.17-.04-.33-.54-.54-.87-.25-.17.17.33.42.67.42Zm7.45.21c.25-.25-.5-.38-.62-.38,0,.38.29.71.62.38Zm1.87-.13c.21,0,.96.04.83-.25-.12-.25-.04-.62-.17-.62-.08,0-.21.12-.46.37-.17.17-.21.5-.21.5Zm5.45,1.54c.38.54.96.75,1.54.75.46,0,.92-.12,1.33-.25,1.46-.37,1.04-.25,2.25-1.33.33-.29,4.37-3.91,2.87-3.25-.62.29-1.25.29-1.79.96,0,.04-2.5.62-2.87.62-.75,0-4.29,1.04-3.33,2.5Zm2.54-4.91c-.42,0-.79.21-.87.71.58.25,2.04.04,1.54-.46-.17-.17-.42-.25-.67-.25Zm3.58.21c0-.29-.21-.5-.71,0-.12.12-.21.29-.21.67,0,.33.92-.21.92-.67Zm3.16,1.12c.29.08.62-.37.46-.5-.25-.21-.46-.25-.71,0,0,0-.08.42.25.5Z" style="fill:#0333ff;"/><path d="m694.76,236.79c.29-1,.46-1.75.92-2.62l1.21-2.16c.46-.62,1.62-2.12,2.41-2.12.42-.25.21-.75.83-.87,0,.13.79-.33.87-.33.5-.33,1.29.21,1.71.42.79.42,1.67,1,.87,2.12-.08.12-.33.37-.46.87-.08.42-.46.79-.62.21.46,0,.46-.12.42-.5-.04-.42-.17.42-.42.25-.42-.29-.33-.79-.54-1.21-.21-.33-.58-.17-.92,0-.29.17-.54.33-.83.46-.17-.25-.42-.62-.67-.42-.17.12.83.67.58.75-1.66.5-1.54,2.08-2.58,3.29-.42.5-.54,1.21-.67,1.83-.21.79-.54,1.92.58,1.42.25-.12.54-.12.75-.25,1.33-.71,2.29-1.67,3.25-2.66.54-.58.87-1.21,1.41-1.71.58-.54,1-.67,1.21-1.42.46-.67,1.21-.92,1.79-1.46.42-.38.62-.67,1.21-.75.46-.08.75.75.83,1.17.08.62-.21,1-.38,1.54-.67,1.83-1.33,2.54-1.58,4.2-.08.42.17,1,.29,1.42.17.54.5,1.21,1.21,1.17.29,0,.87-.17,1.29-.17.25,0,.38.08.29.29-.08.17-.29-.17-.42-.08-.33.25.25.58-.17.71l-.71.42c-.5.37-1,.67-1.67.46-1.04-.33-1.83-1.33-2.04-2.46-.13-.58,0-1.25-.04-1.83,0-.5.33-.58.71-.92.5-.42,1.37-.96.92-1.5-.17-.17-.21-.25-.25-.25-.12,0,0,.54-.29,1.17-.08.21-.5-.58-1.08-.25-.29.21-.46.17-.42.42.04.46-2.46,2.41-3.04,2.71-.5.21-.5-.25-.83-.04-.37.25-.33.38-.67.33-.71-.08-1.21-.04-.83.46.21.25.29-.58.46-.21.21.46-.17.37.21.37.25,0,.5-.17.62.04.25.42-1.54.96-2.04,1.12-.25.08-.5.12-.75.12-.33,0-.62-.04-.87-.12-.5-.17-.54-.83-.92-1.17-.42-.33-.29-1.79-.17-2.25Zm5.62,1.71c.38-.38.29-.29.25.17-.04.33-.17.21-.25-.17Zm3.37-6.79c.21.12.08,0,.17.25-.17.21-.33.87-.42.67-.17-.42-.12-.58.25-.92Z" style="fill:#0333ff;"/><path d="m712.83,233.79c.25-1.25,1.66-2.25,2.54-3.04,1.29-1.12,1.33-1,2.75-2,.5-.37,1.75.21,2.21-.42.17-.29.75-.5.87-.5,1.83-.08,2.41.04,3,.87.46.54,1.46,1.37,1.67,2.37.04.29-.71.79-1.08.79-.67.04-.75-1.71-1.83-1.67-.46,0-1.08.29-1.54.29-.29.04-.54-.04-.71-.25,0,0,.25-.83.17-1.29-.04-.21-.17-.37-.37-.37-.46.04-.96.71-.92,1.08.04.17.25.42.33.58.04.33-.92,1.12-1.58,1.17-.62,0-2,1.42-2.37,1.87-.5.42-2.08,2.16-1.83,3.41.21.87,2.12,1.42,2.46,1.71.13.08.25.12.42.12.54,0,1.12-.71,1.67-.71.25-.04,2.12.25,2.33-.04.5-.67,1-1.17,2.04-1.21,1.08-.04,1.92-1.17,3.04-2.25.5-.42,4-2.37,5.04-4.41.25-.46-.46-1.71-.62-2.41-.21-.75,0-1.25.92-1.42.08.12,1.41,1.79,1.83,1.83.62.08,2.04-1.5,2.29-1.62.83-.62,1.29-2.58,2.62-2.62,1.79-1.37,3.16-2.71,4.91-4.08,1.04-.79,2.29-1.5,3.75-3,.42-.25.5-.46,1.42-.5.58-.04.67.5.71.75.33,1.46-.08,1.12-.46,1.54-1,.87-2.75,2.54-3.46,3.75-.54.79-1.21.92-1.87,1.71-.42.58-1.33,1.83-1.41,2.25-.25,1-1.83,1.62-1.71,2.87,2.37.71,8.58-.37,8.78,3.83,0,.71-.96,2.54-1.21,3.04-.17.33-1,1.87-1.04,2.08-.12.42.46.29.75.25.25-.04,1.41-.83,1.83-.83.46,0-.46.37-.42.5,0,.37.38-.08.33.17.08.71-2.08,3.04-3.2,3.66-.5.29-1.37.92-2,.92-.33.04-.79-.42-.75-.79-.04-.12.08-.12.21-.29.08-.29.38-.58-.08-.54-.25,0-.12.29-.21.42-.25.17-.46-.21-.42-.33-.04-.83,1.46-2.33,1.58-2.79.13-.42.96-.79.92-1.46-.08-1.37.96-2.29,1.29-3.7.17-.87-.46-1.04-1.37-1-1.29.04-2.08-.5-3.46-.46-.37.04-.92.08-1.17.13-.62,0-2-.33-2.08.5-.04.21-.75,2.37-.83,2.46-.17.17-.58,2.12-.75,2.33-.33.42-.13.87.08,1.75.04.42.25.79,1.08.75.5-.04.38-.17.58-.21.29,0,.83.38.87.71.04.33-.17.21-.29.37-.33.46-.79.92-1.62.96-1.46.04-2.29-.75-2.58-2.21-.12-.75-.29-2.41-.12-2.66.04-.12.54-3.37.83-3.5.13-.08.54-1.17.54-1.17-.17-.71-2.41-1.12-3.12-1.08-.71.04-2.96,2.29-3.46,2.91-.29.42-1,.87-1.41,1.25-1.08.79-2.62,1.29-3.41,2.41-.42.54-1.25.46-1.67.83-.08.08-2.71,1.17-3.41,1.21-1.17.04-2.29.75-3.66.83-.29,0-1.17-.08-1.33-.25-1.25-1-2.41-1.67-2.66-3-.42-1.87.71-2.37.87-3.16Zm11.49-2.75c.33,0,.21-.29.54-.29,0,0-.08-.29-.46-.29-.29,0-.33.08-.33.29.04.04.17.29.25.29Zm2.33,3.79c0,.08.29.62.62.33.33-.33,1.79-.87,1.04-1.12-.33-.12-.46-.33-.71-.25-.25.17-1.04.71-.96,1.04Zm2.08-1.12c.25-.29-.04-.62-.38-.62-.08,0-.17.04-.25.12-.25.37.29.83.62.5Zm4.08-8.78c.25-.08.38.12.75.25.71.25-.75.79-1.08,1.12-.29.29-.62-.25-.62-.33-.04-.33.71-.87.96-1.04Zm2.58,3.71s.5.5.87.46c.75,0,.87-.46,1.62-1.17.29-.42,1-.79.67-1.46-.12-.38-1.5.75-1.75,1.08-.38.25-1.54.46-1.42,1.08Zm5-3.25c.25-.29-.04-.62-.33-.62-.08,0-.17.04-.25.12-.25.38.29.83.58.5Zm19.73-10.03c.25.12.87,1.25,1.08,1.42.5.54-.83,4.37-1.42,3.87-1-.96.13-3-.62-3.79-.33-.25-.58-.33-.58-.75,0,0,.67-1.21,1.54-.75Z" style="fill:#0333ff;"/><path d="m754.08,236.99c.21-.83,1.04-.71.5-1.58-.5-.83-.25-1.42.71-1.42,1.25,0,1,2.17.58,3.37-.12.33.21,1.08.5,1.42.17.21.42.25.71.25.67,0,1.46-.37,1.79-.62,2.96-2.25,7.08-4.58,10.57-6,.46-.17.83-.08,1.29-.08.5,0,.5-.37.96-.37,2.66,0,5.33,1.67,8.29,1.67,2.17,0,4.2-.46,6.24-.46.83,0,1.33-1.08,1.92-1.71.58-.71,2.54-.37,2.04-1.08-.17-.25,3.37.04,3.37,1.21,0,1.08-.08,1.25-1.08,1.79-.5.25-2.29.5-2.41,1,.37.33.87.12,1.21.33.29.17.96.71,1.29.71,1.33.04,2.79.5,4.08.62,1.5.17,8.08,1.12,6.87,2.16-.25.21-.75.12-1.08,0-.5-.25-.96-.04-1.46-.12-2.58-.46-5.58-.71-8.29-.71-1.25,0-1.79-.38-2.87-.87-.38-.17-.58-.58-.96-.83-.33-.25-.58-.04-.83-.46-.17-.33-.5-.46-.92-.46-.79,0-1.87.46-2.46.46-.96,0-1.79.25-2.75.33-2.17.21-4.2-.83-6.33-.83-1.66,0-3.29-.71-5.04-.71-.25,0-.13.5-.5.38-.25-.08-.46-.08-.71,0-2.37.96-5.29,2.75-7.45,4.29-1.58,1.12-3.58,2.29-5.62,2.29-.71,0-1.5-.87-1.79-1.46-.21-.37-.25-.83-.25-1.29,0-.37-.21-.83-.13-1.21Zm33.93-4.2c.58.33.33-.08.46-.33.17-.37.79-.33,1.29-.33.46,0,.79,0,.67-.29-.25-.5-.96-.25-1.46-.25s-.58.71-.87.71h-.33c-.25,0-.04.33.25.5Zm2.29.42c.08-.21-.33-.42-.5-.21-.46.58.33.71.5.21Zm1.58-.83c.46-.25-.12-1.04-.46-.71-.33.33.04.92.46.71Z" style="fill:#0333ff;"/><path d="m641.68,272.95c.21-.17,1.17-1.46,1.25-1.67.12-.33.33.33.92.33.17,0,.42-.08.67-.25,1-.67-.71-.42-.83-.79l3.33-3.33c.5-.42,1.12-.71,1.67-1.12l2.75-3.87c.92-.75,1.54-1.87,2.37-2.71.92-.92,1.71-1.83,2.92-2.29,1.12-.75.37-1.12,2.58-1.67.71-.21,1.33-.38,1.87-.38.58,0,1.04.21,1.46.79.5.67-.38,2.58-1,3.04-.75.62-6.29,4.75-7.24,5-.67.21-1.46.87-2,1.25-1.29,1.08-.92,1-1.96,2.37-1.12,1.54-1.29,3.16-1.96,5.04-.33.96-.54,2-.5,3.04.04.83.29,1.17.62,1.17.71,0,1.83-1.29,2.54-1.75.87-.62,2.54-2.71,3.04-3.87.54-1.29.87-2.37.96-3.75,0-.38.17-.5.42-.5.33,0,.79.25,1.17.42.04.42.08.83.08,1.25s-.04.83-.13,1.25c-.67,2.75-2.66,4.45-4.45,6.58-.87,1.04-2.37,1.37-3.12,2.41-.79,1,3.83,2.25,4,2.37.12.08.29.12.42.12.42,0,.83-.46,1-.46.13,0,.17.08.17.42,0,.54-.33.29-.67.42-.75.29-1.58.71-2.33.62-1.04-.12-1.79-.58-2.71-1.04-.79-.37-1.42-1.58-2.21-1.75-1.04.33-2,.67-2.91.67-.67,0-1.29-.17-1.91-.62-.13-.08-1.29-1.46-1.42-2-.08-.42-.13-.87-.13-1.29,0-1.33.42-2.62,1.29-3.46Zm1.04,5.04c.42.29.83.42,1.25.42.75,0,1.5-.33,2.21-.5.21-.54-.12-.92-.17-1.46,0-2.04.17-4.04.87-5.99.17-.46.42-.83.5-1.33-.38,0-1.17.79-1.41,1.04-1,1.71-2.33,1.33-3.12,3.66-.33.79-1,1.67-1,2.58,0,.54.25,1.04.87,1.58Zm14.66-17.28c.79-1.12,3-2.04,3.41-3.54-.67,0-1.37.58-2.12.33-.62-.21-2.41-.58-1.33.5.21.21.83-.38.75-.08-.29,1.12-1.62,1.54-2.17,2.33-.58.87-2,1.58-2.29,2.54.79-.87,3.08-1.08,3.75-2.08Z" style="fill:#0333ff;"/><path d="m677.9,280.45c-.79,0-1.33-.75-.79-1.79.46-.96,1.29-1.71,1.83-2.71.5-.87,1.17-.83,1.58-1.37.12-.12.29-.87.08-.87-.17,0-.29.21-.5-.08-.38-.58.96-2.08,1.75-1.67.33.21.58.54.5,1-.12.54,0,.75.21.75.25,0,.62-.21.96-.46.21-.17,2.33-.79,2.71-.71.42.13.79.46,1.17.58,1.96.54,4.16,1.58,5.83,1.58.33,0,.62-.04.92-.12.79-.29,1.33-1.33,1.92-1.91.58-.58,1.92-1.04,3.12-1.04s1.87.21,2.12,1.5c.25,1.37-2.83,2.54-4.08,3.12-.46.21-1.79.42-2.08.96-.42.83,1.83,2.66,2.58,3.08,1.96,1,3.5,1.17,5.5,1.58.29.04,4.33.04,4.5-.04.13-.08.58.29.75.13.08-.08-.29-.17-.17-.21.12-.04.29-.08.58-.08.46,0-.67.5-.67.92,0,.58-2.17.42-2.91.5-.38.04-1.17.42-1.92.33l-1.67-.21c-2.58-.33-5.45-.79-7.29-2.62-.67-.67-1.5-2.87-1.37-3.87-.17-.08-.17-.17-.46-.17-2.21,0-4.83-1.46-6.7-2.04-.83-.25-2.91,1-3.66,1.46-1.87,1.12-2.41,2.37-3.66,4.33-.25.12-.46.17-.67.17Zm18.44-5.91c.17,0,.42-.04.79-.17.79-.17.67-.83.21-.83-.17,0-.38.08-.58.29-.58.46-.75.71-.42.71Zm12.61,7.91s.17.08.21,0c.04-.08-.12-.25,0-.29.17-.08.25-.42.5-.33.79.33.08,1-.58.87-.17-.04-.21-.12-.12-.25Z" style="fill:#0333ff;"/><path d="m706.04,277.66c.29-1,.46-1.75.92-2.62l1.21-2.16c.46-.62,1.62-2.12,2.41-2.12.42-.25.21-.75.83-.87,0,.13.79-.33.87-.33.5-.33,1.29.21,1.71.42.79.42,1.67,1,.87,2.12-.08.12-.33.37-.46.87-.08.42-.46.79-.62.21.46,0,.46-.12.42-.5-.04-.42-.17.42-.42.25-.42-.29-.33-.79-.54-1.21-.21-.33-.58-.17-.92,0-.29.17-.54.33-.83.46-.17-.25-.42-.62-.67-.42-.17.12.83.67.58.75-1.66.5-1.54,2.08-2.58,3.29-.42.5-.54,1.21-.67,1.83-.21.79-.54,1.92.58,1.42.25-.12.54-.12.75-.25,1.33-.71,2.29-1.67,3.25-2.66.54-.58.87-1.21,1.41-1.71.58-.54,1-.67,1.21-1.42.46-.67,1.21-.92,1.79-1.46.42-.38.62-.67,1.21-.75.46-.08.75.75.83,1.17.08.62-.21,1-.38,1.54-.67,1.83-1.33,2.54-1.58,4.2-.08.42.17,1,.29,1.42.17.54.5,1.21,1.21,1.17.29,0,.87-.17,1.29-.17.25,0,.38.08.29.29-.08.17-.29-.17-.42-.08-.33.25.25.58-.17.71l-.71.42c-.5.37-1,.67-1.67.46-1.04-.33-1.83-1.33-2.04-2.46-.13-.58,0-1.25-.04-1.83,0-.5.33-.58.71-.92.5-.42,1.37-.96.92-1.5-.17-.17-.21-.25-.25-.25-.12,0,0,.54-.29,1.17-.08.21-.5-.58-1.08-.25-.29.21-.46.17-.42.42.04.46-2.46,2.41-3.04,2.71-.5.21-.5-.25-.83-.04-.37.25-.33.38-.67.33-.71-.08-1.21-.04-.83.46.21.25.29-.58.46-.21.21.46-.17.37.21.37.25,0,.5-.17.62.04.25.42-1.54.96-2.04,1.12-.25.08-.5.12-.75.12-.33,0-.62-.04-.87-.12-.5-.17-.54-.83-.92-1.17-.42-.33-.29-1.79-.17-2.25Zm5.62,1.71c.38-.38.29-.29.25.17-.04.33-.17.21-.25-.17Zm3.37-6.79c.21.13.08,0,.17.25-.17.21-.33.87-.42.67-.17-.42-.12-.58.25-.92Z" style="fill:#0333ff;"/><path d="m724.11,274.66c.25-1.25,1.66-2.25,2.54-3.04,1.29-1.12,1.33-1,2.75-2,.5-.37,1.75.21,2.21-.42.17-.29.75-.5.87-.5,1.83-.08,2.41.04,3,.87.46.54,1.46,1.37,1.67,2.37.04.29-.71.79-1.08.79-.67.04-.75-1.71-1.83-1.67-.46,0-1.08.29-1.54.29-.29.04-.54-.04-.71-.25,0,0,.25-.83.17-1.29-.04-.21-.17-.37-.37-.37-.46.04-.96.71-.92,1.08.04.17.25.42.33.58.04.33-.92,1.12-1.58,1.17-.62,0-2,1.42-2.37,1.87-.5.42-2.08,2.16-1.83,3.41.21.87,2.12,1.42,2.46,1.71.13.08.25.12.42.12.54,0,1.12-.71,1.67-.71.25-.04,2.12.25,2.33-.04.5-.67,1-1.17,2.04-1.21,1.08-.04,1.92-1.17,3.04-2.25.5-.42,4-2.37,5.04-4.41.25-.46-.46-1.71-.62-2.41-.21-.75,0-1.25.92-1.42.08.12,1.41,1.79,1.83,1.83.62.08,2.04-1.5,2.29-1.62.83-.62,1.29-2.58,2.62-2.62,1.79-1.37,3.16-2.71,4.91-4.08,1.04-.79,2.29-1.5,3.75-3,.42-.25.5-.46,1.42-.5.58-.04.67.5.71.75.33,1.46-.08,1.12-.46,1.54-1,.87-2.75,2.54-3.46,3.75-.54.79-1.21.92-1.87,1.71-.42.58-1.33,1.83-1.41,2.25-.25,1-1.83,1.62-1.71,2.87,2.37.71,8.58-.37,8.78,3.83,0,.71-.96,2.54-1.21,3.04-.17.33-1,1.87-1.04,2.08-.12.42.46.29.75.25.25-.04,1.41-.83,1.83-.83.46,0-.46.37-.42.5,0,.37.38-.08.33.17.08.71-2.08,3.04-3.2,3.66-.5.29-1.37.92-2,.92-.33.04-.79-.42-.75-.79-.04-.12.08-.12.21-.29.08-.29.38-.58-.08-.54-.25,0-.12.29-.21.42-.25.17-.46-.21-.42-.33-.04-.83,1.46-2.33,1.58-2.79.13-.42.96-.79.92-1.46-.08-1.37.96-2.29,1.29-3.7.17-.87-.46-1.04-1.37-1-1.29.04-2.08-.5-3.46-.46-.37.04-.92.08-1.17.13-.62,0-2-.33-2.08.5-.04.21-.75,2.37-.83,2.46-.17.17-.58,2.12-.75,2.33-.33.42-.13.87.08,1.75.04.42.25.79,1.08.75.5-.04.38-.17.58-.21.29,0,.83.37.87.71.04.33-.17.21-.29.37-.33.46-.79.92-1.62.96-1.46.04-2.29-.75-2.58-2.21-.12-.75-.29-2.41-.12-2.66.04-.12.54-3.37.83-3.5.13-.08.54-1.17.54-1.17-.17-.71-2.41-1.12-3.12-1.08-.71.04-2.96,2.29-3.46,2.91-.29.42-1,.87-1.41,1.25-1.08.79-2.62,1.29-3.41,2.41-.42.54-1.25.46-1.67.83-.08.08-2.71,1.17-3.41,1.21-1.17.04-2.29.75-3.66.83-.29,0-1.17-.08-1.33-.25-1.25-1-2.41-1.67-2.66-3-.42-1.87.71-2.37.87-3.16Zm11.49-2.75c.33,0,.21-.29.54-.29,0,0-.08-.29-.46-.29-.29,0-.33.08-.33.29.04.04.17.29.25.29Zm2.33,3.79c0,.08.29.62.62.33.33-.33,1.79-.87,1.04-1.12-.33-.12-.46-.33-.71-.25-.25.17-1.04.71-.96,1.04Zm2.08-1.12c.25-.29-.04-.62-.38-.62-.08,0-.17.04-.25.12-.25.37.29.83.62.5Zm4.08-8.78c.25-.08.38.13.75.25.71.25-.75.79-1.08,1.12-.29.29-.62-.25-.62-.33-.04-.33.71-.87.96-1.04Zm2.58,3.71s.5.5.87.46c.75,0,.87-.46,1.62-1.17.29-.42,1-.79.67-1.46-.12-.38-1.5.75-1.75,1.08-.38.25-1.54.46-1.42,1.08Zm5-3.25c.25-.29-.04-.62-.33-.62-.08,0-.17.04-.25.12-.25.38.29.83.58.5Zm19.73-10.03c.25.12.87,1.25,1.08,1.42.5.54-.83,4.37-1.42,3.87-1-.96.13-3-.62-3.79-.33-.25-.58-.33-.58-.75,0,0,.67-1.21,1.54-.75Z" style="fill:#0333ff;"/><path d="m765.36,277.87c.21-.83,1.04-.71.5-1.58-.5-.83-.25-1.42.71-1.42,1.25,0,1,2.17.58,3.37-.12.33.21,1.08.5,1.42.17.21.42.25.71.25.67,0,1.46-.37,1.79-.62,2.96-2.25,7.08-4.58,10.57-6,.46-.17.83-.08,1.29-.08.5,0,.5-.37.96-.37,2.66,0,5.33,1.67,8.29,1.67,2.17,0,4.2-.46,6.24-.46.83,0,1.33-1.08,1.92-1.71.58-.71,2.54-.37,2.04-1.08-.17-.25,3.37.04,3.37,1.21,0,1.08-.08,1.25-1.08,1.79-.5.25-2.29.5-2.41,1,.37.33.87.13,1.21.33.29.17.96.71,1.29.71,1.33.04,2.79.5,4.08.62,1.5.17,8.08,1.12,6.87,2.16-.25.21-.75.12-1.08,0-.5-.25-.96-.04-1.46-.12-2.58-.46-5.58-.71-8.29-.71-1.25,0-1.79-.38-2.87-.87-.38-.17-.58-.58-.96-.83-.33-.25-.58-.04-.83-.46-.17-.33-.5-.46-.92-.46-.79,0-1.87.46-2.46.46-.96,0-1.79.25-2.75.33-2.17.21-4.2-.83-6.33-.83-1.66,0-3.29-.71-5.04-.71-.25,0-.13.5-.5.37-.25-.08-.46-.08-.71,0-2.37.96-5.29,2.75-7.45,4.29-1.58,1.12-3.58,2.29-5.62,2.29-.71,0-1.5-.87-1.79-1.46-.21-.37-.25-.83-.25-1.29,0-.37-.21-.83-.13-1.21Zm33.93-4.2c.58.33.33-.08.46-.33.17-.37.79-.33,1.29-.33.46,0,.79,0,.67-.29-.25-.5-.96-.25-1.46-.25s-.58.71-.87.71h-.33c-.25,0-.04.33.25.5Zm2.29.42c.08-.21-.33-.42-.5-.21-.46.58.33.71.5.21Zm1.58-.83c.46-.25-.12-1.04-.46-.71-.33.33.04.92.46.71Z" style="fill:#0333ff;"/></svg>