<?xml version="1.0" encoding="UTF-8"?>
<svg id="Ebene_1" data-name="Ebene 1" xmlns="http://www.w3.org/2000/svg" viewBox="0 0 988 525">
  <defs>
    <style>
      .cls-1 {
        fill: #fff;
      }

      .cls-1, .cls-2, .cls-3 {
        stroke-miterlimit: 10;
      }

      .cls-1, .cls-3 {
        stroke: #000;
      }

      .cls-4 {
        letter-spacing: 0em;
      }

      .cls-5 {
        fill: #1d1d1b;
      }

      .cls-5, .cls-6, .cls-7 {
        stroke-width: 0px;
      }

      .cls-2 {
        stroke: #0333ff;
      }

      .cls-2, .cls-3 {
        fill: none;
      }

      .cls-8 {
        letter-spacing: 0em;
      }

      .cls-6, .cls-9 {
        fill: #0333ff;
      }

      .cls-7, .cls-10, .cls-11 {
        fill: #000;
      }

      .cls-10 {
        font-size: 24px;
      }

      .cls-10, .cls-11, .cls-9 {
        font-family: Arial-BoldMT, Arial;
        font-weight: 700;
      }

      .cls-11 {
        font-size: 16px;
      }

      .cls-9 {
        font-size: 14px;
      }
    </style>
  </defs>
  <rect class="cls-1" x="48.5" y="219.29" width="100" height="100"/>
  <rect class="cls-1" x="197" y="169.29" width="100" height="200"/>
  <rect class="cls-1" x="345.5" y="219.29" width="100" height="100"/>
  <g>
    <polyline class="cls-2" points="395.5 319.29 395.5 445.41 98.5 445.41 98.5 326.46"/>
    <polygon class="cls-6" points="103.49 327.92 98.5 319.29 93.51 327.92 103.49 327.92"/>
  </g>
  <g>
    <line class="cls-3" x1="148.5" y1="269.29" x2="189.82" y2="269.29"/>
    <polygon class="cls-7" points="188.37 274.27 197 269.29 188.37 264.3 188.37 274.27"/>
  </g>
  <g>
    <line class="cls-3" x1="304.18" y1="269.29" x2="338.32" y2="269.29"/>
    <polygon class="cls-7" points="305.63 274.27 297 269.29 305.63 264.3 305.63 274.27"/>
    <polygon class="cls-7" points="336.87 274.27 345.5 269.29 336.87 264.3 336.87 274.27"/>
  </g>
  <g>
    <path class="cls-7" d="M67.22,262.82v-11.45h8.49v1.94h-6.18v2.54h5.75v1.93h-5.75v3.12h6.4v1.93h-8.71Z"/>
    <path class="cls-7" d="M85.42,262.82h-2.2v-4.23c0-.9-.05-1.48-.14-1.74s-.25-.47-.46-.61-.46-.22-.76-.22c-.38,0-.72.1-1.02.31-.3.21-.51.48-.62.83-.11.34-.17.98-.17,1.91v3.76h-2.2v-8.3h2.04v1.22c.72-.94,1.63-1.41,2.73-1.41.48,0,.93.09,1.33.26.4.17.7.4.91.67.21.27.35.58.43.92.08.34.12.84.12,1.48v5.16Z"/>
    <path class="cls-7" d="M89.93,262.82l-3.34-8.3h2.3l1.56,4.23.45,1.41c.12-.36.2-.6.23-.71.07-.23.15-.47.23-.7l1.58-4.23h2.26l-3.3,8.3h-1.98Z"/>
    <path class="cls-7" d="M96.55,253.4v-2.03h2.2v2.03h-2.2ZM96.55,262.82v-8.3h2.2v8.3h-2.2Z"/>
    <path class="cls-7" d="M103.09,262.82h-2.2v-8.3h2.04v1.18c.35-.56.66-.92.94-1.1.28-.18.59-.27.95-.27.5,0,.98.14,1.45.41l-.68,1.91c-.37-.24-.71-.36-1.03-.36s-.57.08-.78.25c-.21.17-.38.48-.5.92-.12.44-.18,1.37-.18,2.78v2.56Z"/>
    <path class="cls-7" d="M106.71,258.56c0-.73.18-1.43.54-2.12s.87-1.2,1.53-1.56c.66-.36,1.39-.54,2.21-.54,1.25,0,2.28.41,3.09,1.22.8.82,1.2,1.84,1.2,3.09s-.41,2.3-1.21,3.12c-.81.83-1.83,1.24-3.06,1.24-.76,0-1.49-.17-2.18-.52-.69-.34-1.21-.85-1.57-1.51s-.54-1.47-.54-2.43ZM108.96,258.67c0,.82.2,1.45.59,1.89s.87.66,1.45.66,1.05-.22,1.44-.66c.39-.44.58-1.07.58-1.91s-.19-1.44-.58-1.88c-.39-.44-.87-.66-1.44-.66s-1.05.22-1.45.66-.59,1.07-.59,1.89Z"/>
    <path class="cls-7" d="M124.54,262.82h-2.2v-4.23c0-.9-.05-1.48-.14-1.74s-.25-.47-.46-.61-.46-.22-.76-.22c-.38,0-.72.1-1.02.31-.3.21-.51.48-.62.83-.11.34-.17.98-.17,1.91v3.76h-2.2v-8.3h2.04v1.22c.72-.94,1.63-1.41,2.73-1.41.48,0,.93.09,1.33.26.4.17.7.4.91.67.21.27.35.58.43.92.08.34.12.84.12,1.48v5.16Z"/>
    <path class="cls-7" d="M126.52,259.77v-2.2h4.31v2.2h-4.31Z"/>
    <path class="cls-7" d="M80.37,273.72h2.02v1.13c.72-.88,1.59-1.32,2.59-1.32.53,0,.99.11,1.38.33s.71.55.96.99c.36-.44.76-.77,1.18-.99s.87-.33,1.35-.33c.61,0,1.12.12,1.55.37s.74.61.95,1.09c.15.35.23.93.23,1.72v5.3h-2.2v-4.74c0-.82-.08-1.35-.23-1.59-.2-.31-.52-.47-.94-.47-.31,0-.6.09-.87.28-.27.19-.47.46-.59.82-.12.36-.18.93-.18,1.71v3.98h-2.2v-4.55c0-.81-.04-1.33-.12-1.56s-.2-.41-.36-.52-.39-.17-.67-.17c-.34,0-.64.09-.91.27-.27.18-.46.45-.58.79s-.18.91-.18,1.71v4.03h-2.2v-8.3Z"/>
    <path class="cls-7" d="M99.57,279.38l2.19.37c-.28.8-.73,1.41-1.33,1.83-.61.42-1.37.63-2.28.63-1.44,0-2.51-.47-3.2-1.41-.55-.75-.82-1.71-.82-2.86,0-1.38.36-2.45,1.08-3.23s1.63-1.17,2.73-1.17c1.23,0,2.21.41,2.92,1.22.71.82,1.05,2.06,1.02,3.75h-5.5c.02.65.19,1.16.53,1.52.34.36.76.54,1.27.54.34,0,.63-.09.87-.28s.41-.49.53-.91ZM99.69,277.16c-.02-.64-.18-1.12-.49-1.45s-.69-.5-1.14-.5c-.48,0-.88.17-1.19.52s-.47.82-.46,1.42h3.28Z"/>
    <path class="cls-7" d="M111.21,282.02h-2.2v-4.23c0-.9-.05-1.48-.14-1.74s-.25-.47-.46-.61-.46-.22-.76-.22c-.38,0-.72.1-1.02.31-.3.21-.51.48-.62.83-.11.34-.17.98-.17,1.91v3.76h-2.2v-8.3h2.04v1.22c.72-.94,1.63-1.41,2.73-1.41.48,0,.93.09,1.33.26.4.17.7.4.91.67.21.27.35.58.43.92.08.34.12.84.12,1.48v5.16Z"/>
    <path class="cls-7" d="M117.24,273.72v1.75h-1.5v3.34c0,.68.01,1.07.04,1.18.03.11.09.2.2.28s.22.11.37.11c.2,0,.5-.07.88-.21l.19,1.7c-.51.22-1.09.33-1.73.33-.4,0-.75-.07-1.07-.2-.32-.13-.55-.3-.7-.52s-.25-.5-.31-.86c-.05-.25-.07-.77-.07-1.55v-3.62h-1.01v-1.75h1.01v-1.65l2.2-1.28v2.93h1.5Z"/>
  </g>
  <text class="cls-11" transform="translate(209.22 262.82)"><tspan x="0" y="0">Intelligent</tspan><tspan x="10.2" y="19.2">system</tspan></text>
  <text class="cls-10" transform="translate(48.5 74.35)"><tspan x="0" y="0">Advisor system</tspan></text>
  <text class="cls-11" transform="translate(377.71 275.25)"><tspan x="0" y="0">User</tspan></text>
  <text class="cls-9" transform="translate(247 465.97)"><tspan class="cls-4" x="0" y="0">a</tspan><tspan class="cls-8" x="7.75" y="0">c</tspan><tspan x="15.66" y="0">t</tspan></text>
  <g>
    <path class="cls-5" d="M52.65,107.67v-10.1h-3.77v-1.35h9.08v1.35h-3.79v10.1h-1.52Z"/>
    <path class="cls-5" d="M59.28,107.67v-11.45h1.41v4.11c.66-.76,1.48-1.14,2.48-1.14.61,0,1.15.12,1.6.36s.78.58.97,1,.29,1.05.29,1.86v5.26h-1.41v-5.26c0-.7-.15-1.21-.46-1.54s-.74-.48-1.29-.48c-.42,0-.81.11-1.18.32s-.63.51-.79.88-.23.88-.23,1.53v4.54h-1.41Z"/>
    <path class="cls-5" d="M73.74,105l1.45.18c-.23.85-.65,1.51-1.27,1.98-.62.47-1.41.7-2.38.7-1.21,0-2.18-.37-2.89-1.12s-1.07-1.8-1.07-3.14.36-2.48,1.08-3.25,1.65-1.16,2.8-1.16,2.02.38,2.72,1.13,1.05,1.82,1.05,3.19c0,.08,0,.21,0,.38h-6.19c.05.91.31,1.61.77,2.09.46.48,1.04.73,1.73.73.52,0,.96-.14,1.32-.41.36-.27.65-.7.87-1.3ZM69.13,102.73h4.63c-.06-.7-.24-1.22-.53-1.57-.45-.54-1.03-.81-1.74-.81-.65,0-1.19.22-1.63.65-.44.43-.68,1.01-.73,1.73Z"/>
    <path class="cls-5" d="M80.85,105.2l1.39-.22c.08.56.29.98.65,1.28.36.3.86.45,1.5.45s1.12-.13,1.44-.39.47-.57.47-.93c0-.32-.14-.57-.41-.75-.19-.12-.67-.28-1.44-.48-1.03-.26-1.75-.49-2.14-.68s-.7-.45-.91-.79c-.21-.34-.31-.71-.31-1.11,0-.37.08-.71.25-1.03.17-.32.4-.58.69-.79.22-.16.52-.3.89-.41.38-.11.78-.17,1.21-.17.65,0,1.22.09,1.71.28s.86.44,1.09.76.4.75.48,1.29l-1.38.19c-.06-.43-.24-.76-.54-1-.3-.24-.72-.36-1.27-.36-.65,0-1.11.11-1.38.32-.28.21-.41.46-.41.75,0,.18.06.35.17.49.11.15.29.28.54.38.14.05.55.17,1.24.36.99.27,1.69.48,2.08.65.39.17.7.42.93.74.22.32.34.72.34,1.2s-.14.91-.41,1.32-.67.73-1.18.96-1.1.34-1.75.34c-1.08,0-1.9-.22-2.46-.67-.57-.45-.93-1.11-1.08-1.99Z"/>
    <path class="cls-5" d="M88.99,110.87l-.16-1.32c.31.08.58.12.8.12.31,0,.56-.05.75-.16.19-.1.34-.25.46-.44.09-.14.23-.49.43-1.05.03-.08.07-.19.12-.34l-3.15-8.31h1.52l1.73,4.8c.22.61.42,1.25.6,1.92.16-.65.35-1.28.58-1.89l1.77-4.84h1.41l-3.16,8.44c-.34.91-.6,1.54-.79,1.88-.25.46-.54.8-.86,1.02-.32.22-.71.32-1.16.32-.27,0-.57-.06-.91-.17Z"/>
    <path class="cls-5" d="M96.31,105.2l1.39-.22c.08.56.29.98.65,1.28.36.3.86.45,1.5.45s1.12-.13,1.44-.39.47-.57.47-.93c0-.32-.14-.57-.41-.75-.19-.12-.67-.28-1.44-.48-1.03-.26-1.75-.49-2.14-.68s-.7-.45-.91-.79c-.21-.34-.31-.71-.31-1.11,0-.37.08-.71.25-1.03.17-.32.4-.58.69-.79.22-.16.52-.3.89-.41.38-.11.78-.17,1.21-.17.65,0,1.22.09,1.71.28s.86.44,1.09.76.4.75.48,1.29l-1.38.19c-.06-.43-.24-.76-.54-1-.3-.24-.72-.36-1.27-.36-.65,0-1.11.11-1.38.32-.28.21-.41.46-.41.75,0,.18.06.35.17.49.11.15.29.28.54.38.14.05.55.17,1.24.36.99.27,1.69.48,2.08.65.39.17.7.42.93.74.22.32.34.72.34,1.2s-.14.91-.41,1.32-.67.73-1.18.96-1.1.34-1.75.34c-1.08,0-1.9-.22-2.46-.67-.57-.45-.93-1.11-1.08-1.99Z"/>
    <path class="cls-5" d="M107.76,106.42l.2,1.24c-.4.08-.75.12-1.06.12-.51,0-.91-.08-1.19-.24s-.48-.37-.59-.64-.17-.82-.17-1.66v-4.77h-1.03v-1.09h1.03v-2.05l1.4-.84v2.9h1.41v1.09h-1.41v4.85c0,.4.02.66.07.77s.13.21.24.27.27.1.48.1c.16,0,.36-.02.62-.05Z"/>
    <path class="cls-5" d="M114.58,105l1.45.18c-.23.85-.65,1.51-1.27,1.98-.62.47-1.41.7-2.38.7-1.21,0-2.18-.37-2.89-1.12s-1.07-1.8-1.07-3.14.36-2.48,1.08-3.25,1.65-1.16,2.8-1.16,2.02.38,2.72,1.13,1.05,1.82,1.05,3.19c0,.08,0,.21,0,.38h-6.19c.05.91.31,1.61.77,2.09.46.48,1.04.73,1.73.73.52,0,.96-.14,1.32-.41.36-.27.65-.7.87-1.3ZM109.96,102.73h4.63c-.06-.7-.24-1.22-.53-1.57-.45-.54-1.03-.81-1.74-.81-.65,0-1.19.22-1.63.65-.44.43-.68,1.01-.73,1.73Z"/>
    <path class="cls-5" d="M117.68,107.67v-8.3h1.26v1.16c.26-.41.61-.73,1.04-.98s.92-.37,1.48-.37c.61,0,1.12.13,1.51.38s.67.61.83,1.07c.66-.97,1.51-1.45,2.56-1.45.82,0,1.46.23,1.9.68s.66,1.16.66,2.11v5.7h-1.4v-5.23c0-.56-.05-.97-.14-1.21s-.26-.45-.5-.6-.52-.23-.84-.23c-.58,0-1.07.19-1.45.58s-.58,1.01-.58,1.86v4.82h-1.41v-5.39c0-.62-.11-1.09-.34-1.41s-.6-.47-1.12-.47c-.4,0-.76.1-1.1.31s-.58.51-.73.91-.23.98-.23,1.73v4.3h-1.41Z"/>
    <path class="cls-5" d="M135.46,107.67v-11.45h1.41v4.11c.66-.76,1.48-1.14,2.48-1.14.61,0,1.15.12,1.6.36s.78.58.97,1,.29,1.05.29,1.86v5.26h-1.41v-5.26c0-.7-.15-1.21-.46-1.54s-.74-.48-1.29-.48c-.42,0-.81.11-1.18.32s-.63.51-.79.88-.23.88-.23,1.53v4.54h-1.41Z"/>
    <path class="cls-5" d="M149.93,105l1.45.18c-.23.85-.65,1.51-1.27,1.98s-1.41.7-2.38.7c-1.21,0-2.18-.37-2.89-1.12s-1.07-1.8-1.07-3.14.36-2.48,1.08-3.25,1.65-1.16,2.8-1.16,2.02.38,2.72,1.13,1.05,1.82,1.05,3.19c0,.08,0,.21,0,.38h-6.19c.05.91.31,1.61.77,2.09s1.04.73,1.73.73c.52,0,.96-.14,1.32-.41s.65-.7.87-1.3ZM145.31,102.73h4.63c-.06-.7-.24-1.22-.53-1.57-.45-.54-1.03-.81-1.74-.81-.65,0-1.19.22-1.63.65s-.68,1.01-.73,1.73Z"/>
    <path class="cls-5" d="M153.04,107.67v-11.45h1.41v11.45h-1.41Z"/>
    <path class="cls-5" d="M156.46,110.85v-11.48h1.28v1.08c.3-.42.64-.74,1.02-.95.38-.21.84-.32,1.38-.32.71,0,1.33.18,1.88.55.54.36.95.88,1.23,1.54.28.66.41,1.39.41,2.18,0,.85-.15,1.61-.46,2.29s-.75,1.2-1.33,1.56c-.58.36-1.19.54-1.83.54-.47,0-.89-.1-1.26-.3-.37-.2-.68-.45-.92-.75v4.04h-1.41ZM157.73,103.57c0,1.07.22,1.86.65,2.37.43.51.96.77,1.57.77s1.16-.26,1.61-.79.67-1.35.67-2.46-.22-1.85-.65-2.38c-.44-.53-.96-.79-1.56-.79s-1.13.28-1.59.84-.69,1.37-.69,2.44Z"/>
    <path class="cls-5" d="M164.67,105.2l1.39-.22c.08.56.3.98.65,1.28s.86.45,1.5.45,1.12-.13,1.44-.39.47-.57.47-.93c0-.32-.14-.57-.41-.75-.19-.12-.67-.28-1.44-.48-1.03-.26-1.75-.49-2.14-.68s-.7-.45-.91-.79-.31-.71-.31-1.11c0-.37.08-.71.25-1.03s.4-.58.69-.79c.22-.16.52-.3.89-.41s.78-.17,1.21-.17c.65,0,1.22.09,1.71.28s.86.44,1.09.76.4.75.48,1.29l-1.38.19c-.06-.43-.24-.76-.54-1s-.72-.36-1.27-.36c-.65,0-1.11.11-1.38.32s-.41.46-.41.75c0,.18.06.35.17.49.11.15.29.28.54.38.14.05.55.17,1.24.36,1,.27,1.69.48,2.08.65s.7.42.93.74.34.72.34,1.2-.14.91-.41,1.32-.67.73-1.18.96-1.1.34-1.75.34c-1.08,0-1.9-.22-2.46-.67s-.93-1.11-1.08-1.99Z"/>
    <path class="cls-5" d="M180.75,106.42l.2,1.24c-.4.08-.75.12-1.06.12-.51,0-.91-.08-1.19-.24s-.48-.37-.59-.64-.17-.82-.17-1.66v-4.77h-1.03v-1.09h1.03v-2.05l1.4-.84v2.9h1.41v1.09h-1.41v4.85c0,.4.02.66.07.77s.13.21.24.27.27.1.48.1c.16,0,.36-.02.62-.05Z"/>
    <path class="cls-5" d="M182.09,107.67v-11.45h1.41v4.11c.66-.76,1.48-1.14,2.48-1.14.61,0,1.15.12,1.6.36s.78.58.97,1,.29,1.05.29,1.86v5.26h-1.41v-5.26c0-.7-.15-1.21-.46-1.54s-.74-.48-1.29-.48c-.42,0-.81.11-1.18.32s-.63.51-.79.88-.23.88-.23,1.53v4.54h-1.41Z"/>
    <path class="cls-5" d="M196.55,105l1.45.18c-.23.85-.65,1.51-1.27,1.98s-1.41.7-2.38.7c-1.21,0-2.18-.37-2.89-1.12s-1.07-1.8-1.07-3.14.36-2.48,1.08-3.25,1.65-1.16,2.8-1.16,2.02.38,2.72,1.13,1.05,1.82,1.05,3.19c0,.08,0,.21,0,.38h-6.19c.05.91.31,1.61.77,2.09s1.04.73,1.73.73c.52,0,.96-.14,1.32-.41s.65-.7.87-1.3ZM191.94,102.73h4.63c-.06-.7-.24-1.22-.53-1.57-.45-.54-1.03-.81-1.74-.81-.65,0-1.19.22-1.63.65s-.68,1.01-.73,1.73Z"/>
    <path class="cls-5" d="M209.65,107.67v-1.22c-.65.94-1.52,1.41-2.63,1.41-.49,0-.95-.09-1.37-.28s-.74-.42-.95-.71-.35-.63-.43-1.04c-.06-.28-.09-.71-.09-1.31v-5.14h1.41v4.6c0,.73.03,1.23.09,1.48.09.37.28.66.56.87s.64.32,1.06.32.82-.11,1.19-.32.63-.51.79-.88.23-.91.23-1.62v-4.45h1.41v8.3h-1.26Z"/>
    <path class="cls-5" d="M212.4,105.2l1.39-.22c.08.56.3.98.65,1.28s.86.45,1.5.45,1.12-.13,1.44-.39.47-.57.47-.93c0-.32-.14-.57-.41-.75-.19-.12-.67-.28-1.44-.48-1.03-.26-1.75-.49-2.14-.68s-.7-.45-.91-.79-.31-.71-.31-1.11c0-.37.08-.71.25-1.03s.4-.58.69-.79c.22-.16.52-.3.89-.41s.78-.17,1.21-.17c.65,0,1.22.09,1.71.28s.86.44,1.09.76.4.75.48,1.29l-1.38.19c-.06-.43-.24-.76-.54-1s-.72-.36-1.27-.36c-.65,0-1.11.11-1.38.32s-.41.46-.41.75c0,.18.06.35.17.49.11.15.29.28.54.38.14.05.55.17,1.24.36,1,.27,1.69.48,2.08.65s.7.42.93.74.34.72.34,1.2-.14.91-.41,1.32-.67.73-1.18.96-1.1.34-1.75.34c-1.08,0-1.9-.22-2.46-.67s-.93-1.11-1.08-1.99Z"/>
    <path class="cls-5" d="M226.54,105l1.45.18c-.23.85-.65,1.51-1.27,1.98s-1.41.7-2.38.7c-1.21,0-2.18-.37-2.89-1.12s-1.07-1.8-1.07-3.14.36-2.48,1.08-3.25,1.65-1.16,2.8-1.16,2.02.38,2.72,1.13,1.05,1.82,1.05,3.19c0,.08,0,.21,0,.38h-6.19c.05.91.31,1.61.77,2.09s1.04.73,1.73.73c.52,0,.96-.14,1.32-.41s.65-.7.87-1.3ZM221.92,102.73h4.63c-.06-.7-.24-1.22-.53-1.57-.45-.54-1.03-.81-1.74-.81-.65,0-1.19.22-1.63.65s-.68,1.01-.73,1.73Z"/>
    <path class="cls-5" d="M229.64,107.67v-8.3h1.27v1.26c.32-.59.62-.98.89-1.16s.57-.28.9-.28c.47,0,.96.15,1.45.45l-.48,1.3c-.34-.2-.69-.3-1.03-.3-.31,0-.58.09-.83.28-.25.18-.42.44-.52.77-.16.5-.23,1.05-.23,1.64v4.34h-1.41Z"/>
    <path class="cls-5" d="M242.5,106.42l.2,1.24c-.4.08-.75.12-1.06.12-.51,0-.91-.08-1.19-.24s-.48-.37-.59-.64c-.12-.26-.17-.82-.17-1.66v-4.77h-1.03v-1.09h1.03v-2.05l1.4-.84v2.9h1.41v1.09h-1.41v4.85c0,.4.02.66.07.77.05.11.13.21.24.27.11.07.27.1.48.1.16,0,.36-.02.62-.05Z"/>
    <path class="cls-5" d="M243.14,103.53c0-1.54.43-2.67,1.28-3.41.71-.61,1.58-.92,2.61-.92,1.14,0,2.07.37,2.8,1.12s1.09,1.78,1.09,3.1c0,1.07-.16,1.91-.48,2.52s-.79,1.09-1.4,1.43c-.61.34-1.28.51-2,.51-1.16,0-2.1-.37-2.82-1.12s-1.07-1.82-1.07-3.22ZM244.58,103.53c0,1.06.23,1.86.7,2.39s1.05.79,1.75.79,1.28-.27,1.74-.8.7-1.34.7-2.43c0-1.03-.23-1.8-.7-2.33s-1.05-.79-1.74-.79-1.29.26-1.75.79-.7,1.32-.7,2.38Z"/>
    <path class="cls-5" d="M262.42,106.65c-.52.44-1.02.75-1.5.94-.48.18-1,.27-1.55.27-.91,0-1.61-.22-2.1-.67s-.73-1.01-.73-1.71c0-.41.09-.78.28-1.11s.43-.61.73-.81.64-.36,1.01-.46c.28-.07.69-.14,1.25-.21,1.14-.14,1.97-.3,2.51-.48,0-.19,0-.32,0-.37,0-.57-.13-.98-.4-1.21-.36-.32-.89-.48-1.6-.48-.66,0-1.15.12-1.46.35s-.55.64-.7,1.23l-1.38-.19c.12-.59.33-1.06.62-1.43s.7-.64,1.24-.84,1.17-.29,1.88-.29,1.28.08,1.73.25.77.38.98.63.35.57.44.96c.05.24.07.67.07,1.3v1.88c0,1.31.03,2.13.09,2.48s.18.68.36,1h-1.47c-.15-.29-.24-.63-.28-1.02ZM262.3,103.51c-.51.21-1.28.39-2.3.53-.58.08-.99.18-1.23.28s-.42.26-.55.46-.2.42-.2.67c0,.38.14.69.43.94s.7.38,1.25.38,1.02-.12,1.45-.36.73-.56.93-.97c.15-.32.23-.79.23-1.41v-.52Z"/>
    <path class="cls-5" d="M271.12,104.64l1.38.18c-.15.95-.54,1.7-1.16,2.24-.62.54-1.39.81-2.29.81-1.14,0-2.05-.37-2.74-1.11-.69-.74-1.04-1.81-1.04-3.19,0-.9.15-1.68.45-2.35s.75-1.18,1.36-1.51c.61-.34,1.27-.5,1.98-.5.9,0,1.64.23,2.21.68.57.46.94,1.1,1.1,1.94l-1.37.21c-.13-.56-.36-.98-.69-1.26-.33-.28-.73-.42-1.2-.42-.71,0-1.28.25-1.73.76-.44.51-.66,1.31-.66,2.41s.21,1.92.64,2.43c.43.5.98.76,1.67.76.55,0,1.01-.17,1.38-.51.37-.34.6-.86.7-1.56Z"/>
    <path class="cls-5" d="M276.82,106.42l.2,1.24c-.4.08-.75.12-1.06.12-.51,0-.91-.08-1.19-.24s-.48-.37-.59-.64c-.12-.26-.17-.82-.17-1.66v-4.77h-1.03v-1.09h1.03v-2.05l1.4-.84v2.9h1.41v1.09h-1.41v4.85c0,.4.02.66.07.77.05.11.13.21.24.27.11.07.27.1.48.1.16,0,.36-.02.62-.05Z"/>
    <path class="cls-5" d="M50.85,126.87h-1.3v-11.45h1.41v4.09c.59-.75,1.35-1.12,2.27-1.12.51,0,.99.1,1.45.31.46.21.83.5,1.12.87.29.37.52.82.69,1.35.17.53.25,1.09.25,1.69,0,1.42-.35,2.52-1.05,3.3s-1.55,1.16-2.53,1.16-1.75-.41-2.3-1.23v1.04ZM50.84,122.66c0,1,.13,1.71.41,2.16.44.72,1.04,1.09,1.8,1.09.61,0,1.15-.27,1.59-.8.45-.53.67-1.33.67-2.39s-.21-1.88-.64-2.4-.95-.77-1.56-.77-1.15.27-1.59.8c-.45.53-.67,1.31-.67,2.32Z"/>
    <path class="cls-5" d="M63.75,126.87v-1.22c-.65.94-1.52,1.41-2.63,1.41-.49,0-.95-.09-1.37-.28-.42-.19-.74-.42-.95-.71-.21-.28-.35-.63-.43-1.04-.06-.28-.09-.71-.09-1.31v-5.14h1.41v4.6c0,.73.03,1.23.09,1.48.09.37.28.66.56.87.29.21.64.32,1.06.32s.82-.11,1.19-.32c.37-.22.63-.51.79-.88.15-.37.23-.91.23-1.62v-4.45h1.41v8.3h-1.26Z"/>
    <path class="cls-5" d="M70.11,125.62l.2,1.24c-.4.08-.75.12-1.06.12-.51,0-.91-.08-1.19-.24s-.48-.37-.59-.64c-.12-.26-.17-.82-.17-1.66v-4.77h-1.03v-1.09h1.03v-2.05l1.4-.84v2.9h1.41v1.09h-1.41v4.85c0,.4.02.66.07.77.05.11.13.21.24.27.11.07.27.1.48.1.16,0,.36-.02.62-.05Z"/>
    <path class="cls-5" d="M79,125.62l.2,1.24c-.4.08-.75.12-1.06.12-.51,0-.91-.08-1.19-.24s-.48-.37-.59-.64c-.12-.26-.17-.82-.17-1.66v-4.77h-1.03v-1.09h1.03v-2.05l1.4-.84v2.9h1.41v1.09h-1.41v4.85c0,.4.02.66.07.77.05.11.13.21.24.27.11.07.27.1.48.1.16,0,.36-.02.62-.05Z"/>
    <path class="cls-5" d="M80.34,126.87v-11.45h1.41v4.11c.66-.76,1.48-1.14,2.48-1.14.61,0,1.15.12,1.6.36s.78.58.97,1,.29,1.05.29,1.86v5.26h-1.41v-5.26c0-.7-.15-1.21-.46-1.54s-.74-.48-1.29-.48c-.42,0-.81.11-1.18.32s-.63.51-.79.88-.23.88-.23,1.53v4.54h-1.41Z"/>
    <path class="cls-5" d="M94.8,124.2l1.45.18c-.23.85-.65,1.51-1.27,1.98s-1.41.7-2.38.7c-1.21,0-2.18-.37-2.89-1.12s-1.07-1.8-1.07-3.14.36-2.48,1.08-3.25,1.65-1.16,2.8-1.16,2.02.38,2.72,1.13,1.05,1.82,1.05,3.19c0,.08,0,.21,0,.38h-6.19c.05.91.31,1.61.77,2.09s1.04.73,1.73.73c.52,0,.96-.14,1.32-.41s.65-.7.87-1.3ZM90.19,121.93h4.63c-.06-.7-.24-1.22-.53-1.57-.45-.54-1.03-.81-1.74-.81-.65,0-1.19.22-1.63.65s-.68,1.01-.73,1.73Z"/>
    <path class="cls-5" d="M107.9,126.87v-1.22c-.65.94-1.52,1.41-2.63,1.41-.49,0-.95-.09-1.37-.28s-.74-.42-.95-.71-.35-.63-.43-1.04c-.06-.28-.09-.71-.09-1.31v-5.14h1.41v4.6c0,.73.03,1.23.09,1.48.09.37.28.66.56.87s.64.32,1.06.32.82-.11,1.19-.32.63-.51.79-.88.23-.91.23-1.62v-4.45h1.41v8.3h-1.26Z"/>
    <path class="cls-5" d="M110.65,124.4l1.39-.22c.08.56.29.98.65,1.28.36.3.86.45,1.5.45s1.12-.13,1.44-.39.47-.57.47-.93c0-.32-.14-.57-.41-.75-.19-.12-.67-.28-1.44-.48-1.03-.26-1.75-.49-2.14-.68s-.7-.45-.91-.79c-.21-.34-.31-.71-.31-1.11,0-.37.08-.71.25-1.03.17-.32.4-.58.69-.79.22-.16.52-.3.89-.41.38-.11.78-.17,1.21-.17.65,0,1.22.09,1.71.28s.86.44,1.09.76.4.75.48,1.29l-1.38.19c-.06-.43-.24-.76-.54-1-.3-.24-.72-.36-1.27-.36-.65,0-1.11.11-1.38.32-.28.21-.41.46-.41.75,0,.18.06.35.17.49.11.15.29.28.54.38.14.05.55.17,1.24.36.99.27,1.69.48,2.08.65.39.17.7.42.93.74.22.32.34.72.34,1.2s-.14.91-.41,1.32-.67.73-1.18.96-1.1.34-1.75.34c-1.08,0-1.9-.22-2.46-.67-.57-.45-.93-1.11-1.08-1.99Z"/>
    <path class="cls-5" d="M124.79,124.2l1.45.18c-.23.85-.65,1.51-1.27,1.98s-1.41.7-2.38.7c-1.21,0-2.18-.37-2.89-1.12s-1.07-1.8-1.07-3.14.36-2.48,1.08-3.25,1.65-1.16,2.8-1.16,2.02.38,2.72,1.13,1.05,1.82,1.05,3.19c0,.08,0,.21,0,.38h-6.19c.05.91.31,1.61.77,2.09s1.04.73,1.73.73c.52,0,.96-.14,1.32-.41s.65-.7.87-1.3ZM120.17,121.93h4.63c-.06-.7-.24-1.22-.53-1.57-.45-.54-1.03-.81-1.74-.81-.65,0-1.19.22-1.63.65s-.68,1.01-.73,1.73Z"/>
    <path class="cls-5" d="M127.89,126.87v-8.3h1.27v1.26c.32-.59.62-.98.89-1.16s.57-.28.9-.28c.47,0,.96.15,1.45.45l-.48,1.3c-.34-.2-.69-.3-1.03-.3-.31,0-.58.09-.83.28s-.42.44-.52.77c-.16.5-.23,1.05-.23,1.64v4.34h-1.41Z"/>
    <path class="cls-5" d="M137.67,126.87v-8.3h1.26v1.16c.26-.41.61-.73,1.04-.98s.92-.37,1.48-.37c.61,0,1.12.13,1.51.38s.67.61.83,1.07c.66-.97,1.51-1.45,2.56-1.45.82,0,1.46.23,1.9.68s.66,1.16.66,2.11v5.7h-1.4v-5.23c0-.56-.05-.97-.14-1.21s-.26-.45-.5-.6-.52-.23-.84-.23c-.58,0-1.07.19-1.45.58s-.58,1.01-.58,1.86v4.82h-1.41v-5.39c0-.62-.11-1.09-.34-1.41s-.6-.47-1.12-.47c-.4,0-.76.1-1.1.31s-.58.51-.73.91-.23.98-.23,1.73v4.3h-1.41Z"/>
    <path class="cls-5" d="M156.3,125.85c-.52.44-1.02.75-1.5.94-.48.18-1,.27-1.55.27-.91,0-1.61-.22-2.1-.67-.49-.45-.73-1.01-.73-1.71,0-.41.09-.78.28-1.11.18-.34.43-.61.73-.81.3-.2.64-.36,1.01-.46.28-.07.69-.14,1.25-.21,1.13-.14,1.97-.3,2.51-.48,0-.19,0-.32,0-.37,0-.57-.13-.98-.4-1.21-.36-.32-.89-.48-1.6-.48-.66,0-1.15.12-1.46.35-.32.23-.55.64-.7,1.23l-1.38-.19c.12-.59.33-1.06.62-1.43.29-.36.7-.64,1.24-.84.54-.2,1.17-.29,1.88-.29s1.28.08,1.73.25c.44.17.77.38.98.63.21.25.35.57.44.96.05.24.07.67.07,1.3v1.88c0,1.31.03,2.13.09,2.48.06.35.18.68.36,1h-1.47c-.15-.29-.24-.63-.28-1.02ZM156.19,122.71c-.51.21-1.28.39-2.3.53-.58.08-.99.18-1.23.28-.24.1-.42.26-.55.46-.13.2-.2.42-.2.67,0,.38.14.69.43.94.28.25.7.38,1.25.38s1.02-.12,1.45-.36.73-.56.93-.97c.15-.32.23-.79.23-1.41v-.52Z"/>
    <path class="cls-5" d="M159.65,126.87v-11.45h1.41v6.53l3.33-3.38h1.82l-3.17,3.08,3.49,5.22h-1.73l-2.74-4.24-.99.95v3.29h-1.41Z"/>
    <path class="cls-5" d="M172.83,124.2l1.45.18c-.23.85-.65,1.51-1.27,1.98-.62.47-1.41.7-2.38.7-1.21,0-2.18-.37-2.89-1.12s-1.07-1.8-1.07-3.14.36-2.48,1.08-3.25,1.65-1.16,2.8-1.16,2.02.38,2.72,1.13,1.05,1.82,1.05,3.19c0,.08,0,.21,0,.38h-6.19c.05.91.31,1.61.77,2.09.46.48,1.04.73,1.73.73.52,0,.96-.14,1.32-.41.36-.27.65-.7.87-1.3ZM168.21,121.93h4.63c-.06-.7-.24-1.22-.53-1.57-.45-.54-1.03-.81-1.74-.81-.65,0-1.19.22-1.63.65-.44.43-.68,1.01-.73,1.73Z"/>
    <path class="cls-5" d="M175.42,124.4l1.39-.22c.08.56.3.98.65,1.28s.86.45,1.5.45,1.12-.13,1.44-.39.47-.57.47-.93c0-.32-.14-.57-.41-.75-.19-.12-.67-.28-1.44-.48-1.03-.26-1.75-.49-2.14-.68s-.7-.45-.91-.79-.31-.71-.31-1.11c0-.37.08-.71.25-1.03s.4-.58.69-.79c.22-.16.52-.3.89-.41s.78-.17,1.21-.17c.65,0,1.22.09,1.71.28s.86.44,1.09.76.4.75.48,1.29l-1.38.19c-.06-.43-.24-.76-.54-1s-.72-.36-1.27-.36c-.65,0-1.11.11-1.38.32s-.41.46-.41.75c0,.18.06.35.17.49.11.15.29.28.54.38.14.05.55.17,1.24.36,1,.27,1.69.48,2.08.65s.7.42.93.74.34.72.34,1.2-.14.91-.41,1.32-.67.73-1.18.96-1.1.34-1.75.34c-1.08,0-1.9-.22-2.46-.67s-.93-1.11-1.08-1.99Z"/>
    <path class="cls-5" d="M191.5,125.62l.2,1.24c-.4.08-.75.12-1.06.12-.51,0-.91-.08-1.19-.24s-.48-.37-.59-.64-.17-.82-.17-1.66v-4.77h-1.03v-1.09h1.03v-2.05l1.4-.84v2.9h1.41v1.09h-1.41v4.85c0,.4.02.66.07.77s.13.21.24.27.27.1.48.1c.16,0,.36-.02.62-.05Z"/>
    <path class="cls-5" d="M192.83,126.87v-11.45h1.41v4.11c.66-.76,1.48-1.14,2.48-1.14.61,0,1.15.12,1.6.36s.78.58.97,1,.29,1.05.29,1.86v5.26h-1.41v-5.26c0-.7-.15-1.21-.46-1.54s-.74-.48-1.29-.48c-.42,0-.81.11-1.18.32s-.63.51-.79.88-.23.88-.23,1.53v4.54h-1.41Z"/>
    <path class="cls-5" d="M207.3,124.2l1.45.18c-.23.85-.65,1.51-1.27,1.98-.62.47-1.41.7-2.38.7-1.21,0-2.18-.37-2.89-1.12s-1.07-1.8-1.07-3.14.36-2.48,1.08-3.25,1.65-1.16,2.8-1.16,2.02.38,2.72,1.13,1.05,1.82,1.05,3.19c0,.08,0,.21,0,.38h-6.19c.05.91.31,1.61.77,2.09.46.48,1.04.73,1.73.73.52,0,.96-.14,1.32-.41.36-.27.65-.7.87-1.3ZM202.68,121.93h4.63c-.06-.7-.24-1.22-.53-1.57-.45-.54-1.03-.81-1.74-.81-.65,0-1.19.22-1.63.65-.44.43-.68,1.01-.73,1.73Z"/>
    <path class="cls-5" d="M220.35,126.87v-1.05c-.53.82-1.3,1.23-2.32,1.23-.66,0-1.27-.18-1.82-.55s-.98-.87-1.29-1.53-.46-1.41-.46-2.25.14-1.58.41-2.25c.28-.67.69-1.19,1.24-1.55.55-.36,1.17-.54,1.85-.54.5,0,.95.11,1.34.32s.71.49.95.82v-4.11h1.4v11.45h-1.3ZM215.9,122.73c0,1.06.22,1.86.67,2.38.45.53.98.79,1.59.79s1.14-.25,1.57-.75.64-1.27.64-2.3c0-1.14-.22-1.97-.66-2.5s-.98-.8-1.62-.8-1.15.25-1.57.77c-.42.51-.63,1.32-.63,2.41Z"/>
    <path class="cls-5" d="M229.42,124.2l1.45.18c-.23.85-.65,1.51-1.27,1.98s-1.41.7-2.38.7c-1.21,0-2.18-.37-2.89-1.12s-1.07-1.8-1.07-3.14.36-2.48,1.08-3.25,1.65-1.16,2.8-1.16,2.02.38,2.72,1.13,1.05,1.82,1.05,3.19c0,.08,0,.21,0,.38h-6.19c.05.91.31,1.61.77,2.09s1.04.73,1.73.73c.52,0,.96-.14,1.32-.41s.65-.7.87-1.3ZM224.8,121.93h4.63c-.06-.7-.24-1.22-.53-1.57-.45-.54-1.03-.81-1.74-.81-.65,0-1.19.22-1.63.65s-.68,1.01-.73,1.73Z"/>
    <path class="cls-5" d="M237.98,123.84l1.38.18c-.15.95-.54,1.7-1.16,2.24-.62.54-1.39.81-2.29.81-1.14,0-2.05-.37-2.74-1.11-.69-.74-1.04-1.81-1.04-3.19,0-.9.15-1.68.45-2.35s.75-1.18,1.36-1.51c.61-.34,1.27-.5,1.98-.5.9,0,1.64.23,2.21.68.57.46.94,1.1,1.1,1.94l-1.37.21c-.13-.56-.36-.98-.69-1.26-.33-.28-.73-.42-1.2-.42-.71,0-1.28.25-1.73.76-.44.51-.66,1.31-.66,2.41s.21,1.92.64,2.43c.43.5.98.76,1.67.76.55,0,1.01-.17,1.38-.51.37-.34.6-.86.7-1.56Z"/>
    <path class="cls-5" d="M240.63,117.04v-1.62h1.41v1.62h-1.41ZM240.63,126.87v-8.3h1.41v8.3h-1.41Z"/>
    <path class="cls-5" d="M243.51,124.4l1.39-.22c.08.56.29.98.65,1.28.36.3.86.45,1.5.45s1.12-.13,1.44-.39.47-.57.47-.93c0-.32-.14-.57-.41-.75-.19-.12-.67-.28-1.44-.48-1.03-.26-1.75-.49-2.14-.68s-.7-.45-.91-.79c-.21-.34-.31-.71-.31-1.11,0-.37.08-.71.25-1.03.17-.32.4-.58.69-.79.22-.16.52-.3.89-.41.38-.11.78-.17,1.21-.17.65,0,1.22.09,1.71.28s.86.44,1.09.76.4.75.48,1.29l-1.38.19c-.06-.43-.24-.76-.54-1-.3-.24-.72-.36-1.27-.36-.65,0-1.11.11-1.38.32-.28.21-.41.46-.41.75,0,.18.06.35.17.49.11.15.29.28.54.38.14.05.55.17,1.24.36.99.27,1.69.48,2.08.65.39.17.7.42.93.74.22.32.34.72.34,1.2s-.14.91-.41,1.32-.67.73-1.18.96-1.1.34-1.75.34c-1.08,0-1.9-.22-2.46-.67-.57-.45-.93-1.11-1.08-1.99Z"/>
    <path class="cls-5" d="M251.96,117.04v-1.62h1.41v1.62h-1.41ZM251.96,126.87v-8.3h1.41v8.3h-1.41Z"/>
    <path class="cls-5" d="M254.93,122.73c0-1.54.43-2.67,1.28-3.41.71-.61,1.58-.92,2.61-.92,1.14,0,2.07.37,2.8,1.12s1.09,1.78,1.09,3.1c0,1.07-.16,1.91-.48,2.52s-.79,1.09-1.4,1.43c-.61.34-1.28.51-2,.51-1.16,0-2.1-.37-2.82-1.12s-1.07-1.82-1.07-3.22ZM256.38,122.73c0,1.06.23,1.86.7,2.39s1.05.79,1.75.79,1.28-.27,1.74-.8.7-1.34.7-2.43c0-1.03-.23-1.8-.7-2.33s-1.05-.79-1.74-.79-1.29.26-1.75.79-.7,1.32-.7,2.38Z"/>
    <path class="cls-5" d="M264.29,126.87v-8.3h1.27v1.18c.61-.91,1.49-1.37,2.64-1.37.5,0,.96.09,1.38.27s.73.42.94.71.35.64.44,1.04c.05.26.08.72.08,1.37v5.1h-1.41v-5.05c0-.57-.05-1-.16-1.29s-.3-.51-.58-.68-.61-.25-.98-.25c-.6,0-1.12.19-1.55.57s-.65,1.1-.65,2.16v4.53h-1.41Z"/>
    <path class="cls-5" d="M272.47,124.4l1.39-.22c.08.56.3.98.65,1.28s.86.45,1.5.45,1.12-.13,1.44-.39.47-.57.47-.93c0-.32-.14-.57-.41-.75-.19-.12-.67-.28-1.44-.48-1.03-.26-1.75-.49-2.14-.68s-.7-.45-.91-.79-.31-.71-.31-1.11c0-.37.08-.71.25-1.03s.4-.58.69-.79c.22-.16.52-.3.89-.41s.78-.17,1.21-.17c.65,0,1.22.09,1.71.28s.86.44,1.09.76.4.75.48,1.29l-1.38.19c-.06-.43-.24-.76-.54-1s-.72-.36-1.27-.36c-.65,0-1.11.11-1.38.32s-.41.46-.41.75c0,.18.06.35.17.49.11.15.29.28.54.38.14.05.55.17,1.24.36,1,.27,1.69.48,2.08.65s.7.42.93.74.34.72.34,1.2-.14.91-.41,1.32-.67.73-1.18.96-1.1.34-1.75.34c-1.08,0-1.9-.22-2.46-.67s-.93-1.11-1.08-1.99Z"/>
  </g>
  <g>
    <line class="cls-3" x1="148.5" y1="269.29" x2="189.82" y2="269.29"/>
    <polygon class="cls-7" points="188.37 274.27 197 269.29 188.37 264.3 188.37 274.27"/>
  </g>
  <g>
    <line class="cls-3" x1="304.18" y1="269.29" x2="338.32" y2="269.29"/>
    <polygon class="cls-7" points="305.63 274.27 297 269.29 305.63 264.3 305.63 274.27"/>
    <polygon class="cls-7" points="336.87 274.27 345.5 269.29 336.87 264.3 336.87 274.27"/>
  </g>
</svg>