<?xml version="1.0" encoding="UTF-8"?>
<svg id="maturity" xmlns="http://www.w3.org/2000/svg" viewBox="0 0 988 525">
  <defs>
    <style>
      .cls-1 {
        stroke-dasharray: 0 0 3 3;
        stroke-width: .5px;
      }

      .cls-1, .cls-2, .cls-3, .cls-4, .cls-5 {
        fill: none;
        stroke-linejoin: round;
      }

      .cls-1, .cls-5 {
        stroke: #1d1d1b;
      }

      .cls-2, .cls-3 {
        stroke: #000;
      }

      .cls-6 {
        font-family: Arial-BoldMT, Arial;
        font-size: 22px;
        font-weight: 700;
      }

      .cls-6, .cls-7, .cls-8, .cls-9 {
        fill: #1d1d1b;
      }

      .cls-3, .cls-4 {
        stroke-width: 1.88px;
      }

      .cls-7, .cls-10 {
        stroke-width: 0px;
      }

      .cls-10 {
        fill: #000;
      }

      .cls-8 {
        font-family: ArialMT, Arial;
        font-size: 16px;
      }

      .cls-4 {
        stroke: #0333ff;
      }

      .cls-9, .cls-11 {
        font-family: Arial-ItalicMT, Arial;
        font-size: 18px;
        font-style: italic;
      }

      .cls-11 {
        fill: #0333ff;
      }
    </style>
  </defs>
  <path class="cls-1" d="M596.91,456.8V63.9M270.43,456.8V63.9"/>
  <g>
    <line class="cls-2" x1="154.11" y1="431.61" x2="719.97" y2="431.61"/>
    <polygon class="cls-10" points="718.51 436.6 727.15 431.61 718.51 426.63 718.51 436.6"/>
  </g>
  <g>
    <line class="cls-5" x1="154.11" y1="431.61" x2="154.11" y2="71.08"/>
    <polygon class="cls-7" points="159.1 72.53 154.11 63.9 149.13 72.53 159.1 72.53"/>
  </g>
  <text class="cls-8" transform="translate(751.46 436.28)"><tspan x="0" y="0">Time</tspan></text>
  <text class="cls-8" transform="translate(131.6 49.09)"><tspan x="0" y="0">Level</tspan></text>
  <text class="cls-6" transform="translate(92.3 481.36)"><tspan x="0" y="0">Pre-emergence </tspan></text>
  <text class="cls-6" transform="translate(369.07 481.36)"><tspan x="0" y="0">Emergence </tspan></text>
  <text class="cls-6" transform="translate(613.07 481.36)"><tspan x="0" y="0">Post-emergence </tspan></text>
  <path class="cls-3" d="M179.21,383.39c54.58.54,109.15,1.09,167.64-39.23,58.49-40.32,121.69-162.37,183.31-202.68,61.63-40.32,105.76-37.92,186.45-39.23"/>
  <text class="cls-9" transform="translate(682.59 134.15)"><tspan x="0" y="0">Relatively fast growth </tspan><tspan x="0" y="21.6">Coherence </tspan><tspan x="0" y="43.2">Prominent impact </tspan></text>
  <path class="cls-4" d="M182.99,103.11c54.58-.54,109.15-1.09,167.64,39.23,58.49,40.32,121.68,162.36,183.31,202.68,61.63,40.32,105.76,37.92,186.45,39.23"/>
  <text class="cls-11" transform="translate(682.59 335.89)"><tspan x="0" y="0">Radical novelty </tspan><tspan x="0" y="21.6">Uncertainty and ambiguity </tspan></text>
</svg>