<?xml version="1.0" encoding="UTF-8"?>
<svg id="graphics" xmlns="http://www.w3.org/2000/svg" viewBox="0 0 988 525">
  <defs>
    <style>
      .cls-1 {
        font-family: Arial-BoldMT, Arial;
        font-size: 18px;
        font-weight: 700;
      }

      .cls-2 {
        fill: #0333ff;
      }

      .cls-3 {
        font-family: ArialMT, Arial;
        font-size: 14px;
      }

      .cls-4 {
        fill: #fff;
        stroke: #0333ff;
        stroke-miterlimit: 10;
        stroke-width: 2px;
      }
    </style>
  </defs>
  <g>
    <circle class="cls-4" cx="494" cy="262.5" r="90.8"/>
    <text class="cls-2" transform="translate(441.51 244.29)"><tspan class="cls-1"><tspan x="0" y="0">Competition</tspan></tspan><tspan class="cls-3"><tspan x="8.15" y="28.8">(rivalry among</tspan></tspan><tspan class="cls-3"><tspan x=".76" y="45.6">competing firms)</tspan></tspan></text>
  </g>
  <g>
    <path class="cls-2" d="M222.76,441.16c.06-.91.99-1.79,1.05-3.03.2-.17.37-.11.4-.4.17-.76.85-2.66.28-3.09-.06-.11-.06-.17-.23-.2-.31-.06-.45,0-.45-.37.4-.25.4-.74.96-.79.31-.03.51-.2.71-.06.34.25.57.85.59,1.19l-.17.6c.11,1.39-.59,3.03-1.05,4.53-.14.48-.54.68-.43,1.16-.08.25-1.22.08-.34.79.4.31-.4,2.32-.2,2.86.08.25.23.34.37.34.31,0,.71-.37.91-.57.34-.34,1.25-.25,1.39-.74-.23,0-.48.17-.74.23-.45-.23,1.13-.62,1.59-1.36.11-.2-.4.11-.17-.06.93-.71,1.73-1.64,2.86-2.12,0,.4.79-.4.96.68.4.4.28.88.31,1.42.03.54.31,1.05.34,1.62.03.28-.14.37.11.48l.31.2c.31.2.59-.06.88-.23.31-.2.14-.48.48-.74,1.02-.74,1.39-1.87,2.64-3,.34-.34.42-.42.74-.85.79-.93,1.45-2.12,2.52-3.12.17-.11.34-.23.51-.31.28-.14.11-.28.2-.57.2-.71.88-1.28,1.33-1.87l2.15-2.69.65-1.13c.34-.11.31-.42.57-.65.11-.11,1.1-.79,1.25-.79.11,0,.2.14.34.28.54.57-1.28,1.59-1.28,2.1,0,.2-.45.85-.54.99-.65.31-.28.37-.4.57-.06.14-.25.4-.76,1.05-.23.14-1.28,1.73-1.53,2.07-.08.4-.23.23-.23.57-.08.08-.17.14-.28.17-.34.06-.74,1.02-.85,1.25-.14.45-.42.85-.91,1.02-.08.03-.6.65-.6.68-.06.37-.48.42-.62.71-.14.28-.17.34-.51.4-.14.14.06.31-.03.45l-.37.57c-.03.06-.94.79-1.02.91-.54.79-.91,1.53-1.64,2.1-.2.14-.4.28-.59.37-.31.14-.17.23-.14.54-.51.14-.82.65-1.3.77-.17.06-.37.03-.54.03-.28,0-1.11-.62-1.47-.99-.2-.23-.28-.48-.31-.76-.06-.48-.43-.71-.4-1.13.06-.54.03-1.02-.14-1.56-1.08.68-1.79,1.67-2.75,2.49-.2.17-1.02.45-.99.82,0,.65-1.47,1.3-2.1,1.11-.14-.03-.14.11-.23.14-.14.06-.28.11-.34-.06-.11-.23-.31-.85-.51-.82-.51,0,.25-.17.06-.42-.11-.14-.23.14-.4.17-.11-.65-.17-1.25-.08-1.93.06-.65.48-1.22.6-1.81-.03-.06-.06-.08-.08-.08-.17,0-.34.74-.54.62-.2-.11.2-.43.2-.71Z"/>
    <path class="cls-2" d="M243.45,441.67c.08-2.27,1.45-4.59,2.3-6.35,1.27-2.64,3.14-5.5,5.21-7.85,1.19-1.25,1.22-2.83,2.64-3.74.31-.17,1.56-.43,1.56-.88,0-.28-.65-.31-.4-.57.17-.14.28-.2.4-.2.51,0,.37,1.33-.37,1.73-.14.08-.82,1.27-1.02,1.53-1.73,2.35-3.09,4.9-4.93,7.31-.31.4.45.6-.4.71-.65.11-.2.23-.45.71-.79,1.28-3.29,5.98-3.29,7.42,0,.25.08.34.28.34.31,0,.82-.26,1.5-.51,1.3-.54,3.43-1.64,4.9-1.9,2.18-.45,3.34.96,3.85,2.92.51,1.64,1.59,4,3.63,4,.37,0,.65-.14.62-.62-.03-.45.06-1.13.37-1.5.6-.62.79-.91,1.16-1.84.06-.14.48.23.59.06.2-.37-.2-.42-.23-.54-.03-.11.57-1.02.74-1.11.08-.06.28-.03.34-.17.08-.48.88-.79,1.3-.99.31-.11.62-.14.91.17.08.11.08.4.25.45.11.03.2-.2.31-.14.2.08,0,.25.23.28.26.08.14.4.09.59-.28.82-1.28,2.21-1.19,3.03,0,1.08-.11,2.83.93,3.54.28.23.68.34.85.68.25.4-.25.31-.48.34-.65,0-1.62-.48-1.84-1.22-.08-.48-.6-1.7-.34-2.47.08-.23-.31-.4-.17-.59.08-.25.4-.17.34-.37-.03-.08-.09-.11-.14-.11-.17,0-.48.31-.62.45-.4.45-1.73,2.44-2.27,2.46-.77.03-1.42.79-2.21.68-2.49-.4-3.77-2.98-4.62-5.53-.37-.99-.71-1.33-1.5-1.33-.28,0-.62.03-1.05.11-2.35.48-3.43,1.28-5.47,2.46-.31.17-.65.25-.94.25-.82,0-1.47-.65-1.39-1.73ZM260.59,444.98c.34,0,1.62-1.64,1.9-1.93.48-.51.79-1.13.99-1.9-.37,0-.4.45-.76.51-1.11.11-1.02,2.1-1.93,2.86-.14.11-.2.25-.2.45ZM263.59,443.56c.26,0,.71-.23.6-.42-.08-.11-.17-.17-.25-.17-.14,0-.31.17-.43.34-.11.2-.06.25.08.25ZM264.36,442.32c.11.2.37-.4.34-.57,0-.06-.25-.08-.28-.06-.11.2-.17.45-.06.62Z"/>
    <path class="cls-2" d="M269.63,434.95c.25,0,.51.06.71.14-.08.17-.31.23-.48.37s-.08.06-.31.03c-.37-.03-.94.23-.65.57.11.11.4-.14.51,0,.11.11.03.14.17.23.31.23.65.4.99.6.37.25,1.08.74,1.64.74.28,0,.51-.11.65-.37.06-.25,1.25-1.81,1.47-2.15.45-.77.68-1.5,1.3-2.29l.91-1.13c.91-1.11,2.44-3.17,3.26-4.25l.43-.57c.08-.11.23-.17.37-.17.2,0,.37.08.45.2.11.17.28.45.11.6-.08.08-.06-.2-.14-.31-.06-.08-.23-.06-.31-.06-.11.2-.23.37-.28.6-.08.31.37.11.28.34-.25.62-.82,1.33-1.16,1.96-.68,1.22-2.21,2.78-2.69,3.8-.68,1.47-1.5,2.41-2.27,3.57-.11.14-.57.59-.45.74.11.14.31.23.51.26.54.14,1.08.11,1.61.23.08.03,1.25.17,1.36-.03.08-.08.4.25.37.37s-.17.11-.11.17c.08.08.25-.25.25-.11-.03.45-.17.14-.37.23-.14.06-.03.37-.2.17-.08-.11.06-.34-.11-.28-.08.03-.17.08-.08.23.06.06.08.11.08.17,0,.2-.85.03-1.05.03-.45.03-.82.11-1.22.11-.2,0-.4-.03-.62-.08-.37-.08-1.02-.06-1.39.17-.45.31-.54.96-.74,1.45-.54,1.3-1.16,2.61-1.42,4-.09.4-.11.79-.14,1.19,0,.37.26.23.57.14.34-.06.88,0,1.27-.11.11-.03,0-.23.09-.17.14.08-.11.23-.06.31.08.11.4-.03.42-.14.06-.23-.17-.08-.2-.34s.4-.54.54-.25c.06.2.08.11,0,.25-.08.11-.25.11-.11.23.08.06.14-.17.14-.11.08.17.03.34-.08.37-.06,0-.08-.11-.17-.08-.11.03.08.2-.14.17-.28-.03-.23.2-.4.42-.11.17-.28.34-.48.4-.14.06-.34,0-.37.08-.06.08,0,.14-.08.14l-.2-.06-.62.17c-.23,0-.43.08-.6-.06-.17-.17-.31-.08-.51-.25-.37-.37-.48-.91-.48-1.53,0-1.96,1.13-4.48,2.07-6.18.51-.99-.74-1.16-1.42-1.47-.74-.31-1.64-1.08-1.87-1.93-.23-.94.65-1.39,1.45-1.39Z"/>
    <path class="cls-2" d="M289.36,443.08c.37-.68.88-1.53,1.53-1.73.45-.2.25-1.02.65-1.27.37-.26.88-.26.88-.91,0-.2-.4-.48-.23-.65.08-.08.31-.2.51-.2s.37.11.37.45c0,.85-.23,1.3-.65,1.93-.23.65-1.08,1.76-1.33,2.18-.2.34-1.02,1.73,0,1.3.74-.31,1.87-.59,2.18-.91.31-.31,2.12-.71,2.38-.82.85-.34,1.93-.03,2.83-.65.31-.2.71-.28,1.16-.28.96,0,2.04.37,2.49.65.42.25-.48,2.63-.2,2.44,1.3-1.02,2.89-1.05,4.11-1.96.31-.23.45-.31.57-.31.14,0,.26.11.74.11,0,0,1.36-.28,1.53-.45.11-.11.34-.17.62-.17.88,0,2.27.51,2.63.82.71.57.82,1.79.23,2.38s-.94,2.32-1.56,2.61c-.08.08-.17.11-.25.11-.54,0-.45-1.9-.37-2.04.34-.68.43-1.53.88-1.98.28-.28-.96-.45-2.1-.45-.74,0-1.45.08-1.62.25-.74.74-2.32.2-3.03,1.08-.42.51-2.44,1.36-2.58,1.5-.2.2-.65.37-1.05.37-.45,0-.85-.23-.68-.76.25-.91.37-1.36.85-2.18.45-.76,0-.65-.85-.65s-1.98-.25-2.64.4c-1.08,1.08-3.74.99-4.96,1.7-.43.25-1.08.48-1.53.48-1.73,0-2.27-1.05-1.53-2.38ZM299.78,429.14c.82,0,1.9.4,2.15.54.57.34-.65.85-1.3.85-.28,0-.79.4-1.19.4-.23,0-.4-.11-.54-.4-.4-1.08.14-1.39.88-1.39ZM299.56,430.53c.31-.03.96-.65.65-.65h-.65c-.26.42-.34.68,0,.65Z"/>
    <path class="cls-2" d="M312.91,453.43c0-1.02.57-1.98.99-2.86.23-.48.37-.82.37-1.36,0-.48.4-.88.62-1.3.17-.28.23-.68.48-.88.25-.2.08-.23.2-.48.28-.68.65-1.42,1.05-2.15.68-1.5,1.22-2.86,1.9-4.48.14-.37.42-.62.57-.96.17-.37.11-.4-.23-.48-.2-.06-.37-.11-.57-.2-.28-.08-.68-.23-.85-.48-.11-.14-.74-1.05-.59-1.19-.85,0,.99-1.3.74-.79.48,0,.17.08.45.34.25.06.42.06.65.26.37.31.79.54,1.3.59.42-1.11.96-2.12,1.5-3.15.99-1.87,1.67-3.85,2.95-5.55.14-.2.31-.37.54-.51.26-.14.11-.17.17-.42.06-.37.28-.65.54-.91.51-.54.93-1.22,1.5-1.7.2-.17.45-.31.71-.37.34-.08.03-.2.4-.37.43-.2.91-.37,1.39-.23.11.06.48.03.57.14.06.11.08.23.2.31.48.08.54.28.77.71s.48.88.48,1.36c0,.45-.48.65-.48,1.08,0,.08.14-.06.17.06.11.34-.34.08-.34.23,0,.11.31.11.23.23s-.25-.14-.23.03.23.14.11.23c-.57.42-.4-.31-.25-.76.06-.17.03-.37.2-.43.08-.03.23-.2.23-.28-.03-.14-.06-.2-.08-.2-.11,0-.25.4-.31.34-.14-.11.2-1.33-.23-1.02-.37.28.25,1.25-.06,1.25-.26,0-.2-.62-.31-.88-.14-.25,0-.23-.11-.54-.11-.34-.42-.51-.76-.34-.31.14-.65.2-.99.28-.34.11-.71.23-.96.54-.06.08.11.14.06.2-.11.11-.34-.03-.45.11-.17.17-.2-.17-.4-.25-.42-.2-.54.31-.25.59l.34-.11c.28.25-.03.74-.14,1.11-.31.79-.93,1.5-1.33,2.32-.2.37-1.13,2.41-1.53,2.61-.31.11-.4.96-.51,1.25-.23.82-.68,1.36-1.11,2.1l-.42.88c-.23.54-.25.62.31.85.88.34,1.7.51,2.58.74.28.08.48.25.79.31.37.06.54.2.91.37.28.14.74-.03.74.28s-.54.54-.85.51c-.25-.03-.42-.2-.65-.23-.51-.03-1.02.14-1.53.17-.65.03-.85-.4-1.42-.4-.68.03-1.3-.28-1.96-.34-.03.62-.37,1.13-.62,1.67-.28.59-.62,1.05-.88,1.64-.85,1.9-1.76,3.63-2.49,5.61-.31.74-.71,1.42-1.05,2.15-.28.62-.85,1.5-.85,2.15,0,.57-.57,1.22-.57,1.7,0,.2.14-.17.23,0,.14.25.25.4.06.68-.17.28-.48.45-.79.54s-.59-.71-.65-.94l-.08-.62c.17-.11.45-.23.34-.4-.08-.11-.25.03-.4.06ZM327.07,439.74c.08-.08.2-.2.28-.11.11.11-.11.45-.28.28q-.08-.08,0-.17ZM330.53,425.34c.06.11.17.08.28,0,.14-.08.2-.17.03-.28-.2-.11-.4.14-.31.28ZM330.81,429.74c0-.37.4-.17.23.11-.03.06.06.2-.03.2s-.2-.23-.2-.31Z"/>
    <path class="cls-2" d="M327.16,442.94c0-2.8,3.66-7.68,5.24-9.8.68-.91,1.33-.6,2.01-1.47.31-.4-.45-.71-.28-1.16.14-.37.57-.91,1.02-.91.17,0,.31.06.48.2-.11.37-1.3.51-1.16.79s.42.85.31,1.16c-.37,1.62-1.56,2.52-2.47,3.85-1.53,2.21-3.23,4.31-3.74,7.2-.06.31-.17.76-.17,1.13,0,.4.14.71.71.62.71-.08,2.63-1.42,3.2-1.79,1.36-.93,2.35-1.36,3.71-2.38.68-.57,4.36-2.24,5.13-1.98.4.14.54.42.54.79,0,1.3-1.76,3.66-1.79,4.45.62,0,.99-.51,1.5-.79.85-.57,2.35-1.59,3.32-2.35,1.16-.94,2.92-1.76,4.42-1.9.71-.06.93.51.93,1.19,0,.82-.34,1.81-.57,2.18-.37.54-.25,1.22-.45,1.81-.14.37-.2.71-.2,1.02,0,.42.11.82.28,1.33-.96.2-1.59-1.28-1.5-2.18.11-.74.14-2.1.54-2.81.37-.65.23-.88-.11-.88-.25,0-.62.14-.93.28-1.16.51-2.41,1.19-3.17,2.15-.48.65-2.1,1.36-2.78,1.76-.42.25-.99.42-1.5.42-.79,0-1.45-.4-1.22-1.5.34-1.16,1.16-2.04,1.39-3.17-.79,0-2.07.59-2.75,1.02-1.42.85-3.26,1.73-4.67,2.83-.77.62-2.78,1.79-4.02,1.79-.79,0-1.42-.57-1.42-1.39l.17-1.53ZM349.37,445.49c.2-.17.4-.26.54-.26.31,0,.42.4-.2.71-.28.14-.59-.23-.34-.45Z"/>
    <path class="cls-2" d="M353.43,441.58c.23-.23,1.1-1.53,1.42-1.53.06,0,.11.03.11.14.06.51.08.74.4,1.13,1.19-.54,2.07-1.42,2.72-2.46-.65.11-1.45.91-2.15.91-.25,0-.51-.11-.74-.42.74-.45,1.96-1.7,3.06-1.7.31,0,.65.08.94.37.59.57.17,1.45-.23,1.96-.71.88-1.62,1.73-2.64,2.15,1.56-.2,3.57-.79,5.13-.79,1.11,0,4.82.03,4.82,1.81,1.19-.25,2.52-.4,3.85-.4,1.9,0,3.83.28,5.5.96,1.42.54.76,1.96,1.81,2.66.71.48-.45.57-.6.62-.51.17-1.05-1.33-1.42-1.59-1.11-.82-4.02-1.25-5.3-1.36-.45-.03-3.4.54-4.68.54-.34,0-.54-.03-.59-.11-.31-.57.31-1.62-.82-1.62s-2.18-.31-3.43-.23c-1.47.17-4.42.54-5.7,1.33-.45.34-.88.48-1.19.48-.62,0-.99-.54-.99-1.22,0-.54.23-1.13.71-1.64Z"/>
    <path class="cls-2" d="M381.51,441.89c.28-1.25.79-2.13,1.67-2.98.4-.4.68-.88,1.13-1.19.31-.2.77-.2.94-.59.25-.54,2.12-.96,3.31-.96.71,0,1.19.14.96.51h-.42c-.11.17-.23.11-.42.31-.23.23-.4-.62-.48-.25-.11.54-.06.54-.25.42-.14-.08.2-.2.08-.34-.31-.37-1.02.82-1.28,1.05-.45.43-1.05.65-1.59.99-.68.45-.82.93-1.22,1.59-.4.59-.77.51-.77,1.33,0,.62-.28.99-.06,1.62.43,1.11,1.9,1.33,2.92,1.25,1.3-.11,2.52-.57,3.68-.99.59-.23,1.5-.31,1.62-1.05.08-.51.48-.99.68-1.47.43-.96,1.08-1.67,1.9-2.29.2-.14.45.31.77.31.11,0,.2-.03.31-.14.4-.4-.06-.82.06-.96.25-.28.76-.28,1.11-.42.37-.11.88-.23,1.39-.23.62,0,1.28.14,1.62.62.71.94-.25,2.04-1.02,2.55-1.19.76-2.32,1.67-3.66,2.27-.77.37-1.98.65-1.13,1.45.62.57,1.47.76,2.41.76,1.28,0,2.66-.34,3.71-.4,1.3-.06,2.83-.37,4.11-.62.42-.11,2.69-.42,2.75-.42,1.3-.11.68.82-.2.91-.34.03-1.1.11-1.16.37-1.13.08-2.32.45-3.49.74-1.19.28-2.35.37-3.54.54-.77.11-1.7.28-2.61.28-.68,0-1.33-.08-1.84-.4-.37-.2-1.05-.42-1.33-.71-.25-.28-.4-.68-.79-.82-.82-.31-1.67.76-2.49.82-.65.06-1.22.43-2.04.54-.45.08-.94.11-1.39.11-.54,0-1.05-.06-1.56-.17-1.67-.4-2.72-2.32-2.38-3.91ZM388.26,437.19c.2-.06.51-.06.68,0,.31.11.34.4.71.28.03.71,1.36,1.3.08,1.76,0-.45-.25-.45-.42-.93-.2-.54-1.02-.71-1.05-1.11ZM390.01,438.63c-.17-.45-.34-.23-.37.06.28.2.54.37.37-.06ZM394.92,441.16c.48-.17,3.32-1.9,2.92-2.35-.08-.08-.17-.11-.28-.11-.2,0-.42.08-.59.17-.45.23-.62-.17-1.05.08-1.08.65-2.24,1.73-2.72,3.09.62,0,1.16-.68,1.73-.88Z"/>
    <path class="cls-2" d="M404.86,446.12c.14-.34.28-.2.62-.25.96-.14,1.5-.42,2.32-.77.14-.06.85-.2.85-.4,0-.59-1.19-1.45-1.84-2.75-.4-.77-1.02-1.45-1.13-2.32-.06-.37-.03-.99.25-1.25.2-.14,0-.45.06-.71.11-.4,1.76-1.02,2.15-.93,1.53.34,2.1.57,2.46,2.07.03.14.23,1.16-.11.91-.06-.08,0-.23-.08-.34-.11-.11-.2,0-.28-.14-.11-.28-.25-.57-.4-.85-.03-.08-.14.11-.23-.06.08-.17-.03-.26-.17-.34-.17-.08-.17.08-.28.11-.17.06-.31-.25-.45-.17-.17.08.03.23.23.34.14.08.23.23-.06.14-.2-.06-.57-.14-.88-.14-.74,0-.96.42-1.02,1.1,0,.2.28,1.19.43,1.3.34.28.51.74.74,1.05.2.31.51.68.68.85.54.54,1.02,1.11,1.25,1.98.17.62-.17.91-.51,1.39-.17.2-.37.4-.65.45-.23.03-.42-.11-.65,0-.42.2-.82.4-1.28.45-.17-.14.08-.2.14-.4.03-.11-.14-.31-.14-.2,0,.2-.28.51-.57.65-.45.06-1.02.17-1.3-.25-.17-.2-.23-.28-.14-.54ZM406.22,438.97c.08,0,.14-.06.14-.23,0-.28-.14-.4-.34-.23s.03.45.2.45Z"/>
    <path class="cls-2" d="M423.4,442.35c0-1.36,1.62-1.96,1.76-2.92.06-.14,1.42-1.13,1.73-1.3.28-.14,1.33-.45,1.47-.82.11-.42,1.25-.14,1.53-.25.2-.08.34-.14.48-.14.48,0,.71.4,1.11.4-.34.34-.74.42-1.13.42-.62,0-1.25-.23-1.79-.03.11.23.88.34.88.62-1.39.25-4.53,2.75-4.62,4.19,0,.91.65,1.64,1.33,2.12.68.48,1.64.62,2.61.62,1.79,0,3.63-.54,3.97-.62.82-.25.54-1.53.85-2.12.28-.57.65-.99.99-1.53.25-.4.79-.31,1.05-.79.31-.6,1.08-.74,1.73-.62.76.08,1.25-.37,1.93-.45.25-.03.88.08,1.19.17.74.08.54.23.57.85,0,.11.23-.2.28-.08.48.82-.28,1.98-1.13,2.49-.4.25-.31.17-.54.54-.2.34-.57.6-.88.82-.34.23-.68.2-.96.45-.25.25-.4.68-.68.68-.06,0-.11-.03-.2-.08-.23-.2.71-.59.37-.88-.08-.08-.17-.11-.25-.11-.4,0-.74.54-.68.96,0,.08.43.06.43.37-.17,0-.96.43-1.45.43-.14,0-.25-.06-.31-.14s-.31-.11-.62-.11c-.59,0-1.39.11-1.53.25-.45.54-3.51.76-4.22.74-.71-.03-1.39-.17-2.1-.23-.82-.28-1.7-.85-2.32-1.47-.23-.2.08-.37-.25-.59-.43-.23-.23-.62-.4-1.02-.11-.28-.17-.57-.17-.79ZM431.25,438.55c-.2,0-.4-.17-.2-.31.11-.06.2-.09.31-.09.14-.23.08-.4.42-.11.28.2-.14.03-.28.34-.06.14-.17.17-.25.17ZM434.62,443.65c.71,0,1.9-1.08,2.35-1.39.51-.34.93-.45.96-1.11-.23-.11-1.08-.08-1.13.11.08,0,.14,0,.23.06-1.08.11-2.07,1.42-2.41,2.32ZM437.37,443.51c.06.2.08.26.14.26.08,0,.17-.54.71-.45-.37-.96,2.1-2.04,1.93-2.61-.14-.42.25-.57.03-.88-.4-.51-.4-.37-.54-.06-.68,1.11-.68.77-1.02,1.87-.23.77-1.45,1.19-1.25,1.87ZM440.68,440.68c.08.06.2-.03.28-.06-.14-.23.06-.62-.23-.42-.11.08-.23.4-.06.48Z"/>
    <path class="cls-2" d="M443.97,443.08c0-.28.06-.54.23-.82.31-.51.51-1.33.93-1.96.23-.28.45-.57.71-.82.2-.2.45,0,.59-.2s.03-.14.28-.23c.23-.06.25-.25.28-.48.03-.4-.48.06-.68-.2-.14-.17.25-.17.23-.34-.03-.2.34-.88.57-.99.14-.06.4.08.34.2-.08.2-.31.06-.23.23.14.28.68-.28.57.17-.08.34-.17.71-.28,1.08-.23.68-.34,1.67-1.02,1.96-.37.17-.71,1.3-.79,1.62-.06.28-.28.45-.25.71,0,.08.11.06.23,0,.88-.76,2.04-.99,3.06-1.56.96-.54,1.98-1.13,3-1.64.4-.2.91-.37,1.39-.37.57,0,1.05.23,1.16.94.08.45-.14,1.67-.48,2.01-.2.2-.37.99.08.74.59-.34,1.05-.85,1.62-1.27,1.5-1.05,2.69-1.87,4.65-1.87.48,0,.85.06,1.02.25.28.31.14,1.53-.4,2.21-.17.2-.14.2-.28.51-.08.2,0,.23-.17.31-.31.17.08.68-.11.91-.06.08-.51.48-.4.62.08.08.14-.11.17,0,.06.17-.17.34-.25.54-.03.03.45.57.54.65.26.23.34,0,.34.42,0,.37-.03.28-.28.45-.28.2-.54-.42-.79-.28-.08.06-.03.37-.11.34-.11-.03-.54-.34-.57-.34-.08-.17.06-.65-.17-.59-.11.03-.06.25-.11.11-.17-.4.03-1.81.25-2.66.06-.25.2-.45.28-.68.23-.45.85-.99.54-1.39-.08-.11-.34-.11-.45,0-.2.2-.31.17-.54.25-.54.17-3.06,1.64-3.37,2.1-.17.17-1.47,1.16-1.7,1.19-.2.11-.57-.31-.74-.17-.08.06,0,.14.06.11-.03.06-.08.17-.17.11-.34-.23-.37-.85-.45-1.3.03-.45-.11-1.81.4-2.58-.42,0-2.44.79-2.78.99-.74.45-2.61,1.5-3.63,1.81-.4.14-.94.48-1.42.48-.28,0-.51-.11-.71-.42-.11-.28-.17-.57-.17-.85Z"/>
    <path class="cls-2" d="M459.9,454.79c.06-.71.03-1.36.06-2.1,0-.26.28-.48.37-.77.06-.31.34-.06.25-.31-.08-.28-.14-.51,0-.71.17-.14.28-.17.23-.4-.03-.34.17-.08.2-.4,0-.17-.11-.4.06-.51.2-.11.11-.25.23-.45.08-.2.06-.11.28-.23.17-.08.28-.14.28-.34,0-.51.99-1.76,1.13-2.18.42-1.25,1.11-1.93,1.87-2.98.28-.4.51-.76.45-1.25-.03-.34-.14-.85.23-1.02.2-.08.2-.11.17-.34-.06-.37.2-.08.14-.31-.11-.37-.91-.31-.74-.68.08-.2.45-.14.71-.14.2,0,.34-.03.25-.2s-.48-.06-.4-.23c.03-.08.31-.4.45-.25l.34.31c.14.2-.31.28-.23.34.14.17.54.08.31.48-.08.2-.2.25-.2.48,0,.11-.06.28.06.37.2.14-.17.2-.06.31.06.08.14.11.25.11.82,0,2.49-1.67,3-2.18.45-.48,1.27-.74,1.93-.62.93.14,2.27,1.36,2.27,2.29,0,.48.17,1.19-.03,1.59-.17.28-.4.34-.59.57-.17.2-.11.54-.2.54-.03,0-.06-.03-.11-.11-.08-.11.14-.4,0-.45-.17-.06-.4.31-.57.31-.06,0-.11,0-.14-.08-.23-.37-.37-.03-.59-.06-.14-.03-.28-.34-.23-.45.17-.37,1.33-.45,1.42-1.11-.03-.31-.06-.65-.23-1.08l-.25-.51c-.14-.26-.11-.34-.4-.23-.31.11-.68.08-1.02.11-.42.06-1.3.26-1.7.74.03.03-.85.91-1.45,1.33-.31.25-.62.48-.91.74.11.11-.4.94-.34,1.36-.4,1.93-.82,3.88-1.62,5.75-.57,1.22-1.25,3.26-1.98,4.08-.45.48-.65,1.02-1.02,1.59-.17.25-.45.62-.79.59.03.11-.08.17-.23.17-.17,0-.42-.08-.48-.17-.17-.2-.28.03-.37-.37-.08-.31-.11-.62-.08-.96ZM461.11,452.24c.14.11.28.08.08.23-.23.17.03-.06-.31.28-.2.2.37.23.2.62-.06.14-.14.37.03.42.2.06.17-.17.25-.34.37-.74.79-1.33,1.08-2.12.14-.42.4-.57.62-.91.23-.28.14-.71.23-1.05.25-.91.85-1.73,1.13-2.64.14-.45.25-.93.34-1.42.03-.2.08-.62-.11-.42-.17.45-.17.4-.45.77-.11.14-.2,0-.37.11-.31.2.76.37.37.54-.14.08-.4.2-.48.14-.28-.23-.4-.31-.45-.31-.08,0,0,.34-.23,1.11-.03.08.25.2.11.28-.11.08-.54-.11-.62.03-.25.4.45.4.34.62-.06.14.03.48-.11.4s-.25-.11-.37-.11c-.34,0-.54.34-.42.88.03.2-.06.76-.28.71-.11-.03-.06-.11-.17-.11-.48,0-.57.57-.11.79.23.11.14.2-.06.23-.17.03.2.2.34.31.23.17-.08.48-.17.42-.51-.34-1.22-.08-.4.54ZM466.98,443.91c.2-.23.51-.57.65-.94.34,0,.28.08.51.23.4.25,1.47-.23,2.07-.14.45.08.91.23,1.3.42.25.14.14.14.11.4-.14-.03-.31-.03-.45,0,.11.2.08.4-.2.42-.2,0-.48.34-.79.31-.68-.08-1.36.06-1.96.03-.42-.03-1.47-.48-1.25-.74Z"/>
    <path class="cls-2" d="M476.08,443.39c0-.45.11-.91.45-1.08.65-.34,1.02-1.25,1.47-1.84.6-.74,2.83-2.04,4.28-2.04.65,0,1.36.34,1.36,1.08,0,.6-.51,1.25-.85,1.64-1.11,1.19-2.35,2.01-3.6,3.03-.45.34-.76.59-.76.76,0,.14.28.2,1.08.11,1.59-.23,3.29-1.25,4.53-2.32,1.64-1.47,2.89-1.98,3.6-3.09.2-.25-.4-1.25-.37-1.67.03-1.05,1.22-2.12,1.76-1.93.82.28-.06,1.02-.25,1.56-.08.25-.11.57-.03.91.94-.06,1.22-1.16,1.9-1.59,1.56-1.11,2.69-2.89,3.74-4.53.88-1.3,1.9-2.35,3.03-3.37.57-.62,1.25-.88,1.76-.88.45,0,.77.2.77.54,0,.31-.23.71-.82,1.19-1.16.88-1.9,2.1-2.95,3.15-1.33,1.44-2.66,3.03-3.66,5.01-.25.54-.82,1.33-.85,2.04,1.28.08,2.07-.2,3.32-.31.34-.03,1.5-.51,2.15-.51.25,0,.42.08.4.34-.03.2-.28-.23-.31-.17-.17.17.11.37-.17.42-1.33.4-1.96,1.79-3.77,1.62-.65-.08-1.11-.14-1.45-.14-.88,0-.93.42-1.39,2.15-.17.48-.06,2.49.54,2.49.14,0,.25-.08.42-.25.23.37.42.65.06.88-.23.14-.48.28-.74.28-.2,0-.42-.08-.62-.28-.79-.76-1.05-1.9-.96-2.86.03-.99.57-1.73.51-2.69-.08-.51-.31-.68-.62-.68-.51,0-1.16.48-1.36.68-1.84,1.64-5.16,4.96-7.91,5.21-1.42.11-2.32-.28-3.34-1.59-.2-.28-.34-.79-.34-1.28ZM477.83,443.59c.88,0,4.51-2.95,4.39-3.88,0-.08-.06-.11-.11-.11-.17,0-.48.2-.6.23-.42.14-1.39,0-1.64.4-.28.45.6.2-.71,1.19-.37.28-1.3,1.62-1.33,2.18ZM490.02,439.65c.06,0,.14-.06.23-.2.17-.2.2-.45.17-.74-.88-.06-.71.93-.4.93ZM498.77,439.51c-.42,0-.88-.08-.91-.34,0-.14.2-.14.37-.11.85.11,1.16.23,1.16.31s-.28.14-.62.14Z"/>
    <path class="cls-2" d="M498.78,441.72c.31-.34.68-.96,1.16-1.22.48-.45,1.19-.11.76-.71-.14-.23-.14-.62-.14-.85,0-.28.2-.28.2-.28,1.42,0-1.05,4.02-1.3,4.73.74,0,2.72-.11,3.12-.42.62-.45,1.33-.88,1.98-1.19.62-.31,2.13-1.44,2.32-1.64,1.19-1.22,2.92-2.38,4.25-4.19.08-.11.14-.14.2-.14.14,0,.17.42.42.42.08,0,.17-.06.31-.14.23-.2-.11-.62-.31-.71.08,0,.54-.57.65-.68,1.5-1.33,2.44-2.32,3.51-3.83.54-.68,1.27-.99,1.64-1.87.17-.42.65-.79,1.1-.79.17,0,.37.08.51.23.2.25.42.59.37.88,0,0-.96,1.7-1.08,1.79-1.08,1.36-1.98,2.95-3.43,4.62-.31.42-1.19,1.47-1.53,2.04-.25.34-.4,1.11-.51,1.56,1.02.03,1.9-.37,2.89-.45.96-.2,1.84-.59,2.92-.62.43-.03.82.08.71.42-.08.17-.06-.25-.23-.14-.37.2-.82,0-.88.25-.08.42.4.2.37.42-.11.59-.34.2-1.13.28-.14.03.23-.65-.31-.65-.11,0-.28.03-.48.11-.59.23.37.57.2.76-.51.48-2.41.6-3.26.85-.37.11-2.13,1.05-2.18,1.67-.11,1.22-.28,1.84-.51,2.8-.03.28-.65.62-.62.91,0,.14.59,1.42-.31.96,0-.08.14,0,.25-.08.11-.17-.17-.23-.28-.14-.09-.25-.11-.99-.11-1.84,0-1.22.09-2.61.28-3.06.17-.25-3.85-.85-4.11-.68-1.25.77-.42.94-1.42,1.56-1.59,1.05-2.72,1.02-3.63,1.93-.34.34-.26.25-.96.25-.25,0-.59.11-.93.11-.28,0-.54-.08-.74-.37-.14-.17-.48-.71-.48-1.45,0-.45.54-1.25.74-1.42ZM506.46,429.71c-.43-.77-.57-.96-.06-1.47.31-.34,1.36.48,1.47.79.08.2.25.68.25.94,0,.62-.23.79-.48.79s-.57-.17-.71-.31c-.17-.2-.79.14-.96-.11-.28-.37.71-.2.48-.62ZM507.84,439.6c.03.28.6.4,1.22.4.82,0,1.79-.17,1.84-.28.42-1.44,2.52-3.4,1.53-3.4-2.27,0-1.62,1.79-2.98,2.81-.2.14-1.64.14-1.62.48Z"/>
    <path class="cls-2" d="M517.34,444.3c.62-1.3,1.08-2.64,1.84-3.74.6-.88.34-1.56.43-1.76s.06-.45.23-.65c.11-.14.25-.2.4-.2s.28.06.42.14c.37.2.23.31.23.62,0,.11.14-.03.23,0s-.03.51-.23.62c-.11.08.14.17.06.28-.11.17-.51.31-.4.45.06.08.23-.14.23,0,0,.91-.62,1.7-1.05,2.46-.2.37-.37.76-.45,1.16-.11.4-.31.65-.54,1.1-.28.59-.08,1.16-.74,1.5-.25.11-.54-.42-.6-.65-.2-.62-.34-.79-.06-1.36ZM524.65,429.28c-.06-.77.11-1.5.54-1.81.17-.11.34-.17.51-.17.14,0,.28.06.45.14.31.2.65.31.96.48.28.17.17.37.34.48.23.14.23.37.11.57-.06.08-.11.14-.17.14-.17,0-.34-.37-.57-.31-.14.03-.03.17-.17.11-.11-.06-.09-.28-.26-.34-.11-.03-.17.11-.25.06s-.14-.25-.06-.28c.11-.03.23.11.25.06.06-.08.06-.37-.06-.42-.14-.08-.17.2-.31.23-.17.03-.23-.48-.4-.23.03-.03-.31.23-.14.28.11.03.28-.03.37.03.28.2.08.48-.11.57l-.45.11c-.45.2-.23.37-.48.62-.08.08.17.45-.08.34-.31-.14,0-.45-.03-.65ZM525.07,430.3c.11-.06.25-.03.25.11-.03.06-.14.23-.2.23-.14-.03-.25-.25-.06-.34ZM525.47,430.47c.17-.17.17-.06.17.11,0,.14-.2.08-.31.06.06-.03.08-.11.14-.17Z"/>
    <path class="cls-2" d="M522.92,442.52c0-1.73,2.13-4.22,3.68-4.65.43-.08,1.53-.79,2.32-.79.37,0,.68.14.82.57-.74.65-1.22.79-1.59.79-.45,0-.71-.2-1.1.08-.23.14.31.4.4.68-.25.08-.34.31-.57.4-.54.25-2.44,1.9-2.44,2.81,0,.37.28.62,1.08.62,1.3-.37,1.33-.54,2.27-1.25.59-.51.4-1.13.71-1.78.4-.79,1.13-1.36,2.13-1.28.82.06.31,1.16.91,1.13.74-.03,1.93-.82,2.52-.76,1.47.2,2.95-.37,4.48-.37.68,0,2.1.17,2.32.93.25.85-.17,1.36-.17,1.62,1.84-.91,3.63-1.5,5.87-1.45,2.1.06,2.58.91,2.58,2.78,0,.42-.06.82-.17,1.05-.14.25-.06.71-.28.85-.23.14-.34.23-.4.51-.11.51,1.02,1.84.6,1.96-.4.11-1.76-1.42-1.7-1.7l-.06-.76c.11-.45.68-1.45.68-2.27,0-.96-.88-1.19-1.67-1.19-1.47,0-3.23.91-4.39,1.22-.4.11-1.45.59-1.7.99-.88,1.45-.82,1.11-1.36,1.11-1.02.03-.42-1.3.23-2.89.17-.4.96-1.13.23-1.47-.17-.11-2.1.08-3.4.08-.54,0-.96-.03-1.13-.14-.4-.06-.31.09-.51.26-.08.11-4.48,1.44-5.3,2.41-.57.68-1.87,2.01-3.4,2.01-.51,0-1.05-.17-1.62-.54-.62-.45-.85-.99-.85-1.56ZM528.3,442.18c-.4,0-.93.57-.65.82.11.08.23.11.31.11.37,0,.54-.54.74-.59-.06-.25-.23-.34-.4-.34ZM531.05,441.01l.65-.23c-.2-.08-.57-.23-.82-.23-.11,0-.2.03-.25.08-.08.11.31.37.42.37Z"/>
    <path class="cls-2" d="M564.04,443.08c.37-.68.88-1.53,1.53-1.73.45-.2.25-1.02.65-1.27.37-.26.88-.26.88-.91,0-.2-.4-.48-.23-.65.08-.08.31-.2.51-.2s.37.11.37.45c0,.85-.23,1.3-.65,1.93-.23.65-1.08,1.76-1.33,2.18-.2.34-1.02,1.73,0,1.3.74-.31,1.87-.59,2.18-.91.31-.31,2.12-.71,2.38-.82.85-.34,1.93-.03,2.83-.65.31-.2.71-.28,1.16-.28.96,0,2.04.37,2.49.65.42.25-.48,2.63-.2,2.44,1.3-1.02,2.89-1.05,4.11-1.96.31-.23.45-.31.57-.31.14,0,.26.11.74.11,0,0,1.36-.28,1.53-.45.11-.11.34-.17.62-.17.88,0,2.27.51,2.63.82.71.57.82,1.79.23,2.38s-.94,2.32-1.56,2.61c-.08.08-.17.11-.25.11-.54,0-.45-1.9-.37-2.04.34-.68.43-1.53.88-1.98.28-.28-.96-.45-2.1-.45-.74,0-1.45.08-1.62.25-.74.74-2.32.2-3.03,1.08-.42.51-2.44,1.36-2.58,1.5-.2.2-.65.37-1.05.37-.45,0-.85-.23-.68-.76.25-.91.37-1.36.85-2.18.45-.76,0-.65-.85-.65s-1.98-.25-2.64.4c-1.08,1.08-3.74.99-4.96,1.7-.43.25-1.08.48-1.53.48-1.73,0-2.27-1.05-1.53-2.38ZM574.47,429.14c.82,0,1.9.4,2.15.54.57.34-.65.85-1.3.85-.28,0-.79.4-1.19.4-.23,0-.4-.11-.54-.4-.4-1.08.14-1.39.88-1.39ZM574.24,430.53c.31-.03.96-.65.65-.65h-.65c-.26.42-.34.68,0,.65Z"/>
    <path class="cls-2" d="M602.41,441.35c.96-1.36,2.75-2.66,4.45-3.2.08-.03.74-.08,1.25-.08.4,0,.74.03.68.2-.06.14-.51.2-.37.31.62.45.96-.28,1.64,1.42-.25-.09-.48.08-.74.08-.51,0-.59-.68-1.02-.79-1.02-.23-2.58.37-3.06,1.08-.6.85-1.9,2.04-2.41,2.72-.17.23-.51,1.13.14.88.74-.28,1.36-.74,2.1-1.02.06.25.25.4.42.4s.37-.14.4-.45c.03-.11-.85-.17-.45-.2,1.42-.2.68-.42.96.45,0,.06.23-.03.2.06-.06.37-.03.51-.59.51-.76,0-1.64,1.05-2.35,1.33-.42.2-.82.34-1.19.34-.4,0-.79-.17-1.25-.65-.99-1.02.74-2.72,1.19-3.37ZM607.2,442.21c.25-.25.68.2.57.48-.08.2-.42.42-.65.42-.11,0-.2-.06-.2-.17-.03-.2.2-.59.28-.74ZM608.47,444.56c0-1.25,1.79-2.81,2.07-3.51-.25.03-.82.51-1.19.51-.11,0-.23-.03-.28-.14.08-.03.91-.25.68-.45-.51-.42.54-.45,1.05-.91.25-.23.62-.34.93-.34.28,0,.57.08.71.26.51.62-.88,1.98-1.3,2.41-.54.54-1.13,1.22-1.39,1.9-.17.45.14.62.62.62.82,0,2.07-.42,2.24-.54.2-.14.42-.2.65-.2.88,0,1.67.82.62.85-.17,0-.06-.23-.09-.4-.03-.08-.06-.11-.11-.11-.23,0-.59.68-.79.79-.17.06-1.64.51-2.78.51-.71,0-1.64-.31-1.64-1.25ZM617.14,442.8c.4-.11.94-.45,1.22-.45.08,0,.14.03.17.11.17.48-.48.93-.57,1.02-.14-.2-.34-.4-.48-.4s-.25.11-.28.51c-.03.25-.28.06-.28-.14-.03-.25.03-.59.23-.65ZM621.56,441.87c.79,0,1.67.34,1.73,1.36,0,.43-.65.82-.82,1.16-.2.37-.11.51.11.51.57,0,2.12-.93,2.44-1.02.57-.14,1.47-.37,1.79-1.05.08-.2.17-.25.25-.25.17,0,.37.31.59.31.08,0,.14-.03.23-.08.17-.11-.17-.4-.03-.54.11-.11.2-.17.28-.17.17,0,.34.2.65.37.85.51-.62.2-.77.45s1.62.08.28.65c-.54.23-.4-.51-.54-.45-.2.11-.42.74-.62.82-1.5.79-1.96,1.25-2.81,1.67-.45.23-1.02.4-1.56.4-.48,0-.93-.14-1.3-.48-.79-.65.54-2.18.4-2.49-.08-.17-.34-.23-.68-.23-.88,0-2.27.34-2.38.17.14-.25.14-.4-.11-.71.99-.08,1.98-.4,2.86-.4ZM628.82,441.81c.03-.37.2-.48.42-.48.48,0,1.22.51,1.33.4.11-.14-.45-.45-.25-.54.74-.25,2.15-.65,3.51-.51,1.19.11,1.56.91,1.56,1.81,0,.62-.17,1.28-.4,1.79-.23.48-1.16,2.32,0,2.1.14.31-.34,1.02-1.28.94-.54-.03-1.13-.45-1.1-1.02.25-1.33,1.33-2.49,1.33-3.68,0-.42-.57-1.05-.96-1.05-.08,0-.17.03-.23.08-.31.31-.45.43-.48.43-.11,0,.37-.77-.25-.74-.4.03-.54.42-1.25.85-.23.14-.65.25-1.05.25-.51,0-.96-.17-.91-.62Z"/>
    <path class="cls-2" d="M650.98,443.08c.37-.68.88-1.53,1.53-1.73.45-.2.25-1.02.65-1.27.37-.26.88-.26.88-.91,0-.2-.4-.48-.23-.65.08-.08.31-.2.51-.2s.37.11.37.45c0,.85-.23,1.3-.65,1.93-.23.65-1.08,1.76-1.33,2.18-.2.34-1.02,1.73,0,1.3.74-.31,1.87-.59,2.18-.91.31-.31,2.12-.71,2.38-.82.85-.34,1.93-.03,2.83-.65.31-.2.71-.28,1.16-.28.96,0,2.04.37,2.49.65.42.25-.48,2.63-.2,2.44,1.3-1.02,2.89-1.05,4.11-1.96.31-.23.45-.31.57-.31.14,0,.26.11.74.11,0,0,1.36-.28,1.53-.45.11-.11.34-.17.62-.17.88,0,2.27.51,2.63.82.71.57.82,1.79.23,2.38s-.94,2.32-1.56,2.61c-.08.08-.17.11-.25.11-.54,0-.45-1.9-.37-2.04.34-.68.43-1.53.88-1.98.28-.28-.96-.45-2.1-.45-.74,0-1.45.08-1.62.25-.74.74-2.32.2-3.03,1.08-.42.51-2.44,1.36-2.58,1.5-.2.2-.65.37-1.05.37-.45,0-.85-.23-.68-.76.25-.91.37-1.36.85-2.18.45-.76,0-.65-.85-.65s-1.98-.25-2.64.4c-1.08,1.08-3.74.99-4.96,1.7-.43.25-1.08.48-1.53.48-1.73,0-2.27-1.05-1.53-2.38ZM661.41,429.14c.82,0,1.9.4,2.15.54.57.34-.65.85-1.3.85-.28,0-.79.4-1.19.4-.23,0-.4-.11-.54-.4-.4-1.08.14-1.39.88-1.39ZM661.18,430.53c.31-.03.96-.65.65-.65h-.65c-.26.42-.34.68,0,.65Z"/>
    <path class="cls-2" d="M677.33,441.75c0-.25.08-.51.25-.79.57-.85.45-2.12,1.5-2.61.23-.08.68-.11.68-.34-.08-.48.03-.62.25-.68.48-.14.28-.31.03-.65,0-.14.17-.23.37-.23.34,0,.76.2.91.85.08.59-1.87,2.75-2.15,3.57-.14.31-.62,1.3.14,1.25.6-.03,1.45-.79,1.96-1.16.11-.06.23-.08.34-.08.37,0,.74.25,1.08.25.08,0,.2-.03.28-.08.14-.08-.31-.2-.34-.37-.03-.25.4-.4.74-.4.37,0,.68.17.37.54-.14.17-.54-.34-.74-.14-.08.08.17.17.31.14.06.42-.68.79-1.13,1.19-.37.28-1.56,1.16-2.35,1.36-1.16.26-2.49-.54-2.49-1.62ZM682.29,434.72c.48.23-.62.93-.25,1.16.14.11.28-.17.37-.34.11.45.03.65-.31.76-1.22.45-.25-1.79.2-1.59ZM682.75,434.98c0-.34.45-.71,1.47-.74.51-.03,1.33.65,1.39,1.3-.03.79.31,1.02.68,1.02s.77-.23.94-.37c.23-.23-.06-1.16.62-1.56,1.76-1.16,2.75-3.23,4.62-4.73,1.05-.99,1.44-2.18,2.69-3.06.31-.23.65-.99,1.11-.99.14,0,.31.08.48.31.62.76-.25,1.47-.68,1.98-1.28,1.47-2.47,3.12-3.57,4.85-.68.99-2.18,2.32-2.52,3.66-.28,1.1-1.19,1.98-1.56,3.14-.17.48-.62,1.16-.4,1.73.06.14.2.2.4.2.68,0,2.01-.59,2.86-.59.31,0,.54.08.65.31.03.06.06.08.11.08.2,0,.45-1.1,1.13-1.1.11,0,.25.06.42.14.11,0,.25-.08.17-.17-.34-.45.03-.85.43-1.22.2.06.51.76.74.76.06,0,.08-.03.14-.11.45-.74-.48-.71-.59-.79.93-.37,1.96-.99,3-.99.71,0,1.02.62,1.02,1.25,0,.28-.06.57-.17.79-.34.93-1.59,2.86-1.59,3.77.99-.03,1.84-.48,2.81-.96,1.36-.65,3.06-2.12,4.5-2.12.59,0,1.11.23,1.56.88.4.57.34,1.39.28,2.07-.03.51-.45,1.39-.23,1.87.11.31-.08.57-.08.88-.03.45.34.2.2.65-.14.48-.57.54-.99.4-.57-.14-.79-.71-.65-1.25.11-.48-.14-.54-.17-1.05-.06-.62.25-1.42.25-2.1-.03-.51-.23-.68-.51-.68-.65,0-1.76.96-2.18,1.08-.91.23-3.71,1.98-4.42,1.79-.54-.14-1.05.17-1.47-.51-.17-.28-.25-.54-.25-.85,0-.68.37-1.42.65-2.15.28-.71.57-1.47.82-2.21-1.13,0-3.29,1.53-4.39,2.18-.91.54-2.04,1.3-3.15,1.42-.31.03-.71.11-1.08.11-.65,0-1.27-.2-1.44-.93-.11-.54-.2-.96-.2-1.36,0-.34.06-.68.17-1.11.34-1.33,2.38-3.4,1.3-3.74.28.11-2.29,2.55-2.97,2.55-.23,0-.26-.31.2-1.13.23-.42-.25-2.58-.77-2.46-.59.14-.71.45-1.02.42-.51-.03-.77-.28-.77-.54ZM684.67,438.8c.45,0,.77.11.74.4-.14.85-.06,1.11-.85,1.08-.28-.03-.48-.23-.31-.48.2-.31.08-.45-.17-.45-.11,0-.28.03-.45.11-.34.14.23.28,0,.42-.11.06-.17.2-.65-.17-.54-.42.79-.91,1.7-.91Z"/>
    <path class="cls-2" d="M710.01,438.95c.14-.08.94-.45.99-.54.48-.65,1.9-.17,2.49-.88.11-.11,1.33-.62,1.76-.62.59,0,.45.79,1.02.79.08,0,.4-.2.71-.2s.68.14.77.79c.06.14-.03.34-.28.23-.17-.08-.17-.17-.28-.17-.51,0-2.75.06-3.09.28-.62.57-2.58.88-2.95,1.36-.17.2-.51-.11-.48.14.03.2.79.59.88.65.28.17,1.64.74,1.81.88.51.43,1.53,1.16,1.84,1.16.14,0,.51-.11.77-.28.62-.48,1.42-.82,1.96-1.47.31-.37,1.56-1.5,2.1-1.79-.06-.4-.91-.37-1.02-1.05-.06-.34.17-.54.37-.71.26-.17,1.08-.68,1.16-.76.08-.11,1.05-.08,1.16.57.06.4-.82.28-.82.68.17,0,.51.11.74.11,1.76,0,.82-.93,1.27-.93.28,0,.79-.14,1.02-.25.54-.23,1.84-1.62,2.15-2.1.14-.25,1.3-.79,1.62-.79.54,0,1.3-.99,1.73-1.3.62-.43.48-1.11,1.25-1.45.91-.4,1.42-1.28,2.29-1.76.25-.11.34-.25.59-.25.45,0,.77.2.82.57.11.79-.62,1.7-1.22,2.04-.62.28-1.13.94-1.56,1.39-.28.34-.79.71-.93.96-.43,1.11-1.36,2.15-2.13,2.95-.2.17-.82.74-.76,1.16.06.23.4.25.74.25,1.08,0,2.27-.25,3.17.68.06.11,3.03,1.96,3.12,1.96.51,0,.79-1.05,1.25-.76.99.62.42-.54.51-.65.4-.45,1.25-.96,1.33-1.08.11-.14.25-.2.37-.2.34,0,.65.42.91.85.23.31.71,1.05,1.53,1.9.99,1.11,1.42.85,1.33,1.08-.06.23-.85.45-1.11.45-.06,0-.74.08-1.27-.57-.06-.08-1.25-1.76-1.36-1.76-.4,0-.54.42-.79.54-.4.2-.85.99-1.56,1.42-.4.25-.51.91-.71,1.28-.14.23-.88,1.05-.99,1.47-.14.43-.79.65-1.3.65-.2,0-.28-.08-.31-.14-.03-.28.71-.37.88-.51.23-.14.25-.65-.37-.65-.31,0-.17.51-.37.51-.08,0-.17-.2-.17-.28-.17-1.22,1.22-1.16,1.08-2.1-.11-.96-2.01-1.56-2.58-2.07-.25-.2-.42-.23-.74-.23-.76,0-1.19-.42-2.01-.42-1.39,0-2.04.59-2.72,1.81-.14.2-.59,1.47-.65,1.56-.14.17-.17.45-.08.88.06.34.23.42.45.42.17,0,.42-.08.59-.11-.08.34-.42,1.59-.82,1.25-.11-.08-.71-.03-.77-.11-.34-.28-.74-.51-.91-1.56-.08-.79.28-1.47.54-2.18.28-.6.96-1.22.96-2.04-.11,0-.48-.08-.71-.25-.2-.14-.42-.17-.71-.17-.51,0-1.11.17-1.62.17-1.5,0-1.22.54-1.67.99-.4.37-1.02.59-1.3.85-.25.23-1.96,1.62-2.07,1.73-.25.28-.51.71-.79.71-.45,0-.68.93-.57,1.5.11.96-1.25,2.04-2.27,2.04-.4,0-.85-.14-1.05-.4h.34c.4,0,1.1-.06.91-.42-.08-.14-.34.03-.57.03-.31,0-1.19-.51-1.22-.85-.06-.25.99-.99,1.33-.99.23,0,.37.23.4.48.03.23,0,.54-.06.68.06.03.11.03.17.03.4,0,.51-.31.42-.77-.06-.42-.65-.42-.65-.65-.06-.23.79-.62.74-1.02-.03-.25-1.27-1.08-1.93-1.42-.48-.25-2.1-.96-2.41-1.11-.14-.08-.28-.2-.31-.42-.2-1.19.23-1.36.68-1.67ZM717.63,438.63c.2,0,.43.11.45.31.06.28-.4-.2-.34.23-.26,0-.34-.23-.34-.37-.03-.11.08-.17.23-.17ZM718.62,440.9c.17.17,1.19.03,1.11-.28-.03-.11-.26-.08-.4-.08-.34,0-.91.23-.71.37ZM722.5,436.37c.14,0,.37-.03.37.08.08.31-.93.45-1.1.28-.17-.14.4-.37.74-.37ZM724.18,438.18c.45,0,.76.23,1.3.23.68,0,.42-.26.88-.65.28-.23.37-.68.79-1.08.2-.17,1.19-1.67,1.42-1.5.48.42.99-.94,1.45-1.25.43-.28,1.39-.99,1.3-1.53-.51.08-1.33.71-1.7.96-.34.2-.76.28-.88.59-.08.17-.03.94-.28.85-.11-.06-.2-.14-.25-.14-.03,0-2.04,1.47-2.18,1.64-.59.74-1.98.85-1.84,1.87Z"/>
    <path class="cls-2" d="M742.06,448.55c.57-.82,1.22-1.59,1.79-2.38.65-.91,1.39-1.53,2.01-2.41.23-.34.54-.43.76-.91.14-.31-.23-.93-.34-1.25-.17-.45-.42-.65-.59-1.05-.23-.45-.06-.54-.34-.91-.14-.17-.11-.51-.26-.62-.4-.37-.4-.85-.57-1.05-.37-.51-.28-.57-.62-.91-.08-.08-.25-.06-.34-.23-.03-.14-.06-.28,0-.37.06-.06.11-.08.17-.17.14-.28.14-.31.4-.28.11,0,.28-.08.34.11.06.14-.11.08-.06.17.06.23.06.11.23.26.17.11.45.23.59.37.71.85,1.16,1.87,1.59,2.89.37.88.51,1.7.91,2.01.06.03,1.1-1.13,1.28-1.33.2-.34.37-.45.68-.65.37-.23.76-.51,1.16-.79.11-.06.08-.28.2-.25.2,0,.14-.23.28-.25.03.14.03.37.11.28.11-.08.06-.28.14-.45.14-.34.06-.26.25-.34.14-.06.25-.28.34-.17.08.08-.06.23.06.17.08-.06.06-.23.17-.28-.03.17-.03.34.08.28.14-.08.2-.48.31-.28.08.14-.06.48.08.57.03.03.03-.2.08-.11.14.17-.28.23-.48.34-.28.14-.23.14-.31.45h.06c-.06.28-.54.2-.54.4,0,.51-.2.48-.4.79-.2.2-.45.51-.68.68-.25.2-1.73,1.81-2.1,2.29-.14.2-.28.06-.42.28-.06.14-.11.26-.23.4-.17.25-.37.2-.54.54,0,.03-1.59,1.76-1.73,1.81-.57.2-1.13,1.47-1.53,1.98-.23.31-1.02.94-1.19,1.33-.11.23-.03.34-.14.51-.23.25-.4.59-.65.85-.17.17-.11.45-.25.62-.17.28-.57-.25-.68-.59-.34-1.05.42-1.67.91-2.35ZM751.75,439.17c.06-.14-.03-.17-.14-.14,0,.14.06.23.14.14ZM751.75,438.69c.08-.06.11.08.14-.03.03-.06-.03-.2-.03-.2-.08-.08-.11-.03-.17,0s0,.25.06.23ZM752.66,438.38c.03-.06.03-.11.03-.17-.08-.03-.2-.2-.26-.11-.08.14.06.23.23.28ZM752.63,437.93c0,.14.03.23.08.17.11-.11-.03-.11-.08-.17ZM752.66,437.53c.14,0,.06-.17.23-.11v.17c-.08.03-.31-.06-.23-.06ZM752.83,437.7c.06,0,.14,0,.2-.06-.06-.03-.06-.08-.08-.11.06-.11.17.03.25.06,0-.14-.14-.11-.11-.2.03-.11.03-.08.11-.11.11.14.2.31.34.31l-.03-.25h.11c.03.17.2.08.14.25s-.31.45-.42.4c-.08-.06-.03-.31-.11-.23-.17.2-.11.62-.2.34-.06-.23-.11-.2-.2-.4ZM753.34,437.1c.08-.03.17-.06.17.06-.03.2,0,.08-.08.17-.06-.08-.06,0-.08-.23ZM753.88,437.16c.17,0,.23.03.08.25-.03.06-.06.03-.06-.03-.03-.06-.03-.08-.03-.23ZM754.07,436.59s.03.06.03.06c.08.17.06.23-.06.23,0-.08,0-.17.03-.28Z"/>
    <path class="cls-2" d="M756.71,428.04c.14-.54-.23-.74-.23-1.02,0-.17.11-.4.59-.74.85-.59,2.38-1.05,3.71-1.05,1.16,0,2.52.28,2.52,1.73,0,1.13-.85,2.58-1.59,3.37-.77.77-3.63,4.42-3.4,5.78.28,1.56,1.93,1.84,3.34,2.04.17.03,1.19.03,1.02.43-.08.23-.59.08-.74.23-.14.17-.54.23-.96.23-.74,0-1.64-.17-1.81-.23-.65-.14-1.36-.91-1.84-.99-.37-.08-.48-.57-.48-1.19,0-.91.28-2.07.42-2.44.62-1.27,1.3-2.75,2.35-3.8.71-.71,1.19-1.76,1.7-2.61.54-.99-.14-.62-.82-.62-.23,0-.45-.06-.62-.2-.08-.06-.2-.08-.31-.08-.82,0-2.49.94-2.47,1.33.03.28.57,1.08.14,1.08-.08,0-.2-.03-.37-.08-.2-.08-.42-.62-.51-.74-.23-.31.28-.2.34-.42ZM756.85,446.74c.28-.25.62-.45.96-.45.62,0,1.33.79,1.33,1.39,0,.76-.79,1.36-1.25,1.36-.28,0-.45-.17-.34-.59.17-.76.2-1.02-.11-1.02-.11,0-.28.06-.51.11-.62.25-.23-.62-.08-.79Z"/>
  </g>
</svg>