<?xml version="1.0" encoding="UTF-8"?>
<svg id="graphics" xmlns="http://www.w3.org/2000/svg" viewBox="0 0 988 525">
  <defs>
    <style>
      .cls-1, .cls-2 {
        fill: none;
      }

      .cls-1, .cls-2, .cls-3, .cls-4 {
        stroke-miterlimit: 10;
      }

      .cls-1, .cls-3 {
        stroke: #1d1d1b;
      }

      .cls-5 {
        font-size: 18px;
      }

      .cls-5, .cls-6 {
        font-family: Arial-BoldMT, Arial;
        font-weight: 700;
      }

      .cls-7 {
        fill: #0333ff;
      }

      .cls-2 {
        stroke: #9b9a9a;
      }

      .cls-3, .cls-4 {
        fill: #fff;
      }

      .cls-8 {
        fill: #1d1d1b;
      }

      .cls-6, .cls-9 {
        font-size: 14px;
      }

      .cls-6, .cls-10 {
        fill: #9b9a9a;
      }

      .cls-9, .cls-11 {
        font-family: ArialMT, Arial;
      }

      .cls-11 {
        font-size: 16px;
      }

      .cls-4 {
        stroke: #0333ff;
        stroke-width: 2px;
      }
    </style>
  </defs>
  <text class="cls-6" transform="translate(240.79 186.06)"><tspan x="0" y="0">horizontal competition</tspan></text>
  <g>
    <line class="cls-2" x1="743.71" y1="201.7" x2="244.2" y2="201.7"/>
    <polygon class="cls-10" points="742.98 199.21 747.3 201.7 742.98 204.2 742.98 199.21"/>
    <polygon class="cls-10" points="244.93 199.21 240.61 201.7 244.93 204.2 244.93 199.21"/>
  </g>
  <g>
    <line class="cls-2" x1="666.43" y1="87.79" x2="666.43" y2="437.57"/>
    <polygon class="cls-10" points="663.94 88.52 666.43 84.2 668.92 88.52 663.94 88.52"/>
    <polygon class="cls-10" points="663.94 436.84 666.43 441.16 668.92 436.84 663.94 436.84"/>
  </g>
  <g>
    <circle class="cls-4" cx="494" cy="262.5" r="90.8"/>
    <text class="cls-7" transform="translate(441.51 244.29)"><tspan class="cls-5"><tspan x="0" y="0">Competition</tspan></tspan><tspan class="cls-9"><tspan x="8.15" y="28.8">(rivalry among</tspan></tspan><tspan class="cls-9"><tspan x=".76" y="45.6">competing firms)</tspan></tspan></text>
  </g>
  <g>
    <rect class="cls-3" x="128.2" y="225" width="225" height="75"/>
    <text class="cls-11" transform="translate(188.68 268.92)"><tspan x="0" y="0">Threat of entry</tspan></text>
  </g>
  <g>
    <rect class="cls-3" x="634.8" y="225" width="225" height="75"/>
    <text class="cls-11" transform="translate(645.91 268.92)"><tspan x="0" y="0">Threat of substitute products</tspan></text>
  </g>
  <g>
    <g>
      <rect class="cls-3" x="369" y="46.7" width="250" height="75"/>
      <text class="cls-11" transform="translate(426.41 89.02)"><tspan x="0" y="0">Powerful suppliers </tspan></text>
    </g>
    <g>
      <rect class="cls-3" x="369" y="403.3" width="250" height="75"/>
      <text class="cls-11" transform="translate(436.64 447.22)"><tspan x="0" y="0">Powerful buyers</tspan></text>
    </g>
    <g>
      <line class="cls-1" x1="494" y1="159.53" x2="494" y2="133.88"/>
      <polygon class="cls-8" points="498.99 158.07 494 166.7 489.01 158.07 498.99 158.07"/>
      <polygon class="cls-8" points="498.99 135.34 494 126.7 489.01 135.34 498.99 135.34"/>
    </g>
    <g>
      <line class="cls-1" x1="494" y1="391.12" x2="494" y2="365.47"/>
      <polygon class="cls-8" points="498.99 389.66 494 398.3 489.01 389.66 498.99 389.66"/>
      <polygon class="cls-8" points="498.99 366.93 494 358.3 489.01 366.93 498.99 366.93"/>
    </g>
  </g>
  <g>
    <line class="cls-1" x1="596.97" y1="262.5" x2="622.62" y2="262.5"/>
    <polygon class="cls-8" points="598.43 267.49 589.8 262.5 598.43 257.51 598.43 267.49"/>
    <polygon class="cls-8" points="621.16 267.49 629.8 262.5 621.16 257.51 621.16 267.49"/>
  </g>
  <g>
    <line class="cls-1" x1="365.38" y1="262.5" x2="391.03" y2="262.5"/>
    <polygon class="cls-8" points="366.84 267.49 358.2 262.5 366.84 257.51 366.84 267.49"/>
    <polygon class="cls-8" points="389.57 267.49 398.2 262.5 389.57 257.51 389.57 267.49"/>
  </g>
  <text class="cls-6" transform="translate(681.5 422.09)"><tspan x="0" y="0">vertical competition</tspan></text>
</svg>