<?xml version="1.0" encoding="UTF-8"?><svg id="Ebene_1" xmlns="http://www.w3.org/2000/svg" viewBox="0 0 988 525"><path d="m478.12,167.54c0,.44-.25.8-.55.8h-118.9c-.3,0-.55-.36-.55-.8v-46.4c0-.44.25-.8.55-.8h118.9c.3,0,.55.36.55.8v46.4Z" style="fill:#fff;"/><path d="m478.12,167.54c0,.44-.25.8-.55.8h-118.9c-.3,0-.55-.36-.55-.8v-46.4c0-.44.25-.8.55-.8h118.9c.3,0,.55.36.55.8v46.4Z" style="fill:none; stroke:#1d1d1b; stroke-width:2px;"/><text transform="translate(393.23 150.07)" style="fill:#1d1d1b; font-family:Arial-BoldMT, Arial; font-size:16px; font-weight:700;"><tspan x="0" y="0">Action</tspan></text><path d="m658.12,167.54c0,.44-.25.8-.55.8h-118.9c-.3,0-.55-.36-.55-.8v-46.4c0-.44.25-.8.55-.8h118.9c.3,0,.55.36.55.8v46.4Z" style="fill:#fff;"/><path d="m658.12,167.54c0,.44-.25.8-.55.8h-118.9c-.3,0-.55-.36-.55-.8v-46.4c0-.44.25-.8.55-.8h118.9c.3,0,.55.36.55.8v46.4Z" style="fill:none; stroke:#1d1d1b; stroke-width:2px;"/><text transform="translate(567.88 150.07)" style="fill:#1d1d1b; font-family:Arial-BoldMT, Arial; font-size:16px; font-weight:700;"><tspan x="0" y="0">Operate</tspan></text><path d="m838.12,167.54c0,.44-.25.8-.55.8h-118.9c-.3,0-.55-.36-.55-.8v-46.4c0-.44.25-.8.55-.8h118.9c.3,0,.55.36.55.8v46.4Z" style="fill:#fff;"/><path d="m838.12,167.54c0,.44-.25.8-.55.8h-118.9c-.3,0-.55-.36-.55-.8v-46.4c0-.44.25-.8.55-.8h118.9c.3,0,.55.36.55.8v46.4Z" style="fill:none; stroke:#1d1d1b; stroke-width:2px;"/><text transform="translate(745.66 150.07)" style="fill:#1d1d1b; font-family:Arial-BoldMT, Arial; font-size:16px; font-weight:700;"><tspan x="0" y="0">Measure</tspan></text><line x1="478.12" y1="143.9" x2="530.94" y2="143.9" style="fill:none; stroke:#1d1d1b; stroke-linejoin:round; stroke-width:2px;"/><polygon points="529.48 148.89 538.12 143.9 529.48 138.91 529.48 148.89" style="fill:#1d1d1b;"/><line x1="658.12" y1="143.9" x2="710.94" y2="143.9" style="fill:none; stroke:#1d1d1b; stroke-linejoin:round; stroke-width:2px;"/><polygon points="709.48 148.89 718.12 143.9 709.48 138.91 709.48 148.89" style="fill:#1d1d1b;"/></svg>