<?xml version="1.0" encoding="UTF-8"?>
<svg id="Ebene_1" data-name="Ebene 1" xmlns="http://www.w3.org/2000/svg" viewBox="0 0 1180 700">
  <defs>
    <style>
      .cls-1 {
        letter-spacing: 0em;
      }

      .cls-2 {
        letter-spacing: 0em;
      }

      .cls-3 {
        letter-spacing: -.01em;
      }

      .cls-4 {
        letter-spacing: 0em;
      }

      .cls-5 {
        letter-spacing: -.01em;
      }

      .cls-6 {
        letter-spacing: 0em;
      }

      .cls-7 {
        letter-spacing: -.01em;
      }

      .cls-8 {
        letter-spacing: 0em;
      }

      .cls-9 {
        font-family: ArialMT, Arial;
        font-size: 26px;
      }

      .cls-9, .cls-10 {
        fill: #1d1d1b;
      }

      .cls-11 {
        letter-spacing: .02em;
      }

      .cls-12 {
        letter-spacing: 0em;
      }

      .cls-13 {
        letter-spacing: -.02em;
      }

      .cls-14 {
        letter-spacing: -.02em;
      }

      .cls-15 {
        letter-spacing: 0em;
      }

      .cls-16 {
        letter-spacing: -.01em;
      }

      .cls-17 {
        letter-spacing: 0em;
      }

      .cls-18 {
        letter-spacing: -.01em;
      }

      .cls-19 {
        letter-spacing: 0em;
      }

      .cls-20 {
        letter-spacing: 0em;
      }

      .cls-21 {
        letter-spacing: -.01em;
      }

      .cls-22 {
        letter-spacing: 0em;
      }

      .cls-23 {
        letter-spacing: -.01em;
      }

      .cls-24 {
        letter-spacing: 0em;
      }

      .cls-25 {
        letter-spacing: 0em;
      }

      .cls-26 {
        letter-spacing: 0em;
      }

      .cls-27 {
        letter-spacing: -.01em;
      }

      .cls-28 {
        letter-spacing: 0em;
      }

      .cls-29 {
        letter-spacing: 0em;
      }

      .cls-30 {
        letter-spacing: 0em;
      }

      .cls-31 {
        letter-spacing: 0em;
      }

      .cls-32 {
        fill: none;
        stroke: #1d1d1b;
        stroke-miterlimit: 10;
      }

      .cls-33 {
        letter-spacing: -.01em;
      }

      .cls-34 {
        letter-spacing: -.01em;
      }

      .cls-35 {
        letter-spacing: .03em;
      }

      .cls-36 {
        letter-spacing: -.02em;
      }

      .cls-37 {
        letter-spacing: 0em;
      }

      .cls-38 {
        letter-spacing: 0em;
      }

      .cls-39 {
        letter-spacing: 0em;
      }

      .cls-40 {
        letter-spacing: -.02em;
      }

      .cls-41 {
        letter-spacing: 0em;
      }

      .cls-42 {
        letter-spacing: 0em;
      }

      .cls-43 {
        letter-spacing: -.02em;
      }

      .cls-44 {
        letter-spacing: -.03em;
      }

      .cls-45 {
        fill: #4d78ff;
      }

      .cls-45, .cls-10, .cls-46, .cls-47, .cls-48, .cls-49 {
        stroke-width: 0px;
      }

      .cls-46 {
        fill: #d9e4ff;
      }

      .cls-47 {
        fill: #99b1ff;
      }

      .cls-48 {
        fill: #00d6bf;
      }

      .cls-49 {
        fill: #0333ff;
      }

      .cls-50 {
        letter-spacing: 0em;
      }

      .cls-51 {
        letter-spacing: -.01em;
      }
    </style>
  </defs>
  <g>
    <circle class="cls-46" cx="350" cy="350" r="338.48"/>
    <circle class="cls-10" cx="505.87" cy="118.67" r="6.38"/>
    <text class="cls-9" transform="translate(760.3 127.64)"><tspan class="cls-17" x="0" y="0">A</tspan><tspan class="cls-35" x="17.48" y="0">r</tspan><tspan class="cls-24" x="26.9" y="0">t</tspan><tspan class="cls-29" x="33.97" y="0">i</tspan><tspan class="cls-11" x="39.54" y="0">f</tspan><tspan class="cls-8" x="47.17" y="0">i</tspan><tspan class="cls-25" x="52.71" y="0">c</tspan><tspan class="cls-5" x="65.72" y="0">i</tspan><tspan class="cls-16" x="71.22" y="0">a</tspan><tspan x="85.38" y="0">l </tspan><tspan class="cls-7" x="98.38" y="0">I</tspan><tspan class="cls-40" x="105.3" y="0">n</tspan><tspan class="cls-14" x="119.25" y="0">t</tspan><tspan class="cls-31" x="126.01" y="0">e</tspan><tspan class="cls-21" x="140.26" y="0">l</tspan><tspan class="cls-27" x="145.72" y="0">l</tspan><tspan class="cls-20" x="151.13" y="0">i</tspan><tspan class="cls-29" x="156.73" y="0">g</tspan><tspan class="cls-39" x="170.99" y="0">e</tspan><tspan class="cls-18" x="185.19" y="0">n</tspan><tspan class="cls-19" x="199.34" y="0">c</tspan><tspan x="212.48" y="0">e</tspan></text>
    <line class="cls-32" x1="505.87" y1="118.67" x2="744.27" y2="118.67"/>
  </g>
  <g>
    <circle class="cls-47" cx="421.37" cy="421.37" r="221.36"/>
    <circle class="cls-10" cx="505.87" cy="277.99" r="6.38"/>
    <text class="cls-9" transform="translate(760.3 286.96)"><tspan class="cls-28" x="0" y="0">M</tspan><tspan class="cls-36" x="21.61" y="0">a</tspan><tspan class="cls-6" x="35.67" y="0">c</tspan><tspan class="cls-33" x="48.66" y="0">h</tspan><tspan class="cls-18" x="62.79" y="0">i</tspan><tspan class="cls-5" x="68.25" y="0">n</tspan><tspan x="82.44" y="0">e </tspan><tspan class="cls-13" x="104.12" y="0">L</tspan><tspan class="cls-37" x="118.11" y="0">e</tspan><tspan class="cls-34" x="132.32" y="0">a</tspan><tspan class="cls-50" x="146.48" y="0">r</tspan><tspan class="cls-51" x="155.27" y="0">n</tspan><tspan class="cls-18" x="169.38" y="0">i</tspan><tspan class="cls-3" x="174.85" y="0">n</tspan><tspan x="189.04" y="0">g</tspan></text>
    <line class="cls-32" x1="505.87" y1="277.99" x2="744.27" y2="277.99"/>
  </g>
  <g>
    <circle class="cls-45" cx="478.61" cy="478.61" r="117.99"/>
    <circle class="cls-10" cx="505.87" cy="409.8" r="6.38"/>
    <text class="cls-9" transform="translate(760.3 418.77)"><tspan class="cls-41" x="0" y="0">D</tspan><tspan class="cls-42" x="18.65" y="0">e</tspan><tspan class="cls-38" x="32.9" y="0">e</tspan><tspan x="47.1" y="0">p </tspan><tspan class="cls-13" x="68.78" y="0">L</tspan><tspan class="cls-37" x="82.78" y="0">e</tspan><tspan class="cls-34" x="96.98" y="0">a</tspan><tspan class="cls-50" x="111.14" y="0">r</tspan><tspan class="cls-51" x="119.93" y="0">n</tspan><tspan class="cls-18" x="134.04" y="0">i</tspan><tspan class="cls-3" x="139.51" y="0">n</tspan><tspan x="153.71" y="0">g</tspan></text>
    <line class="cls-32" x1="505.87" y1="409.8" x2="744.27" y2="409.8"/>
  </g>
  <g>
    <circle class="cls-49" cx="505.22" cy="507.87" r="59.64"/>
    <circle class="cls-10" cx="505.87" cy="484.83" r="6.38"/>
    <text class="cls-9" transform="translate(760.3 493.8)"><tspan class="cls-15" x="0" y="0">G</tspan><tspan class="cls-38" x="20.21" y="0">e</tspan><tspan class="cls-5" x="34.41" y="0">n</tspan><tspan class="cls-1" x="48.6" y="0">e</tspan><tspan class="cls-12" x="62.81" y="0">r</tspan><tspan class="cls-43" x="71.28" y="0">a</tspan><tspan class="cls-22" x="85.29" y="0">t</tspan><tspan class="cls-1" x="92.36" y="0">i</tspan><tspan class="cls-44" x="97.89" y="0">v</tspan><tspan x="110.21" y="0">e </tspan><tspan class="cls-26" x="131.89" y="0">A</tspan><tspan x="149.13" y="0">I</tspan></text>
    <line class="cls-32" x1="505.87" y1="484.83" x2="744.27" y2="484.83"/>
  </g>
  <g>
    <circle class="cls-48" cx="505.22" cy="541.24" r="16.68"/>
    <circle class="cls-10" cx="505.87" cy="541.37" r="6.38"/>
    <text class="cls-9" transform="translate(760.63 550.35)"><tspan class="cls-23" x="0" y="0">C</tspan><tspan class="cls-7" x="18.45" y="0">h</tspan><tspan class="cls-43" x="32.61" y="0">a</tspan><tspan class="cls-30" x="46.62" y="0">t</tspan><tspan class="cls-2" x="53.74" y="0">G</tspan><tspan class="cls-4" x="74" y="0">P</tspan><tspan x="91.2" y="0">T</tspan></text>
    <line class="cls-32" x1="505.65" y1="541.37" x2="744.6" y2="541.37"/>
  </g>
</svg>