<?xml version="1.0" encoding="UTF-8"?><svg id="maturity" xmlns="http://www.w3.org/2000/svg" viewBox="0 0 988 525"><g><polyline points="244 98.26 244 437.5 833.24 437.5" style="fill:none; stroke:#000; stroke-miterlimit:10; stroke-width:2px;"/><polygon points="236.52 100.45 244 87.5 251.48 100.45 236.52 100.45"/><polygon points="831.05 444.98 844 437.5 831.05 430.02 831.05 444.98"/></g><line x1="244" y1="262.5" x2="844" y2="262.5" style="fill:none; stroke:#000; stroke-miterlimit:10;"/><line x1="544" y1="437.5" x2="544" y2="87.53" style="fill:none; stroke:#000; stroke-miterlimit:10;"/><line x1="244" y1="437.5" x2="244" y2="87.53" style="fill:none; stroke:#000; stroke-miterlimit:10;"/><text transform="translate(355.28 183.43)" style="fill:#0333ff; font-family:Arial-BoldMT, Arial; font-size:18px; font-weight:700;"><tspan x="0" y="0">Innovator</tspan></text><text transform="translate(655.78 183.43)" style="fill:#0333ff; font-family:Arial-BoldMT, Arial; font-size:18px; font-weight:700;"><tspan x="0" y="0">Disruptor</tspan></text><text transform="translate(350 359.69)" style="fill:#0333ff; font-family:Arial-BoldMT, Arial; font-size:18px; font-weight:700;"><tspan x="0" y="0">Indifferent</tspan></text><text transform="translate(655.99 359.69)" style="fill:#0333ff; font-family:Arial-BoldMT, Arial; font-size:18px; font-weight:700;"><tspan x="0" y="0">Adaptive</tspan></text><text transform="translate(664.91 470.56)" style="fill:#1d1d1b; font-family:ArialMT, Arial; font-size:16px;"><tspan x="0" y="0">Rate of variety change</tspan></text><g><path d="M139.11,125.37v-11.45h2.28l2.71,8.11c.25,.76,.43,1.32,.55,1.7,.13-.42,.33-1.03,.61-1.84l2.74-7.97h2.04v11.45h-1.46v-9.59l-3.33,9.59h-1.37l-3.31-9.75v9.75h-1.46Z" style="fill:#1d1d1b;"/><path d="M157.72,124.35c-.52,.44-1.02,.76-1.5,.94-.48,.18-1,.27-1.55,.27-.91,0-1.61-.22-2.1-.67-.49-.45-.73-1.01-.73-1.71,0-.41,.09-.78,.28-1.11,.18-.34,.43-.61,.73-.81,.3-.2,.64-.36,1.01-.46,.28-.07,.69-.14,1.25-.21,1.13-.14,1.97-.3,2.51-.48,0-.19,0-.31,0-.37,0-.57-.13-.98-.4-1.21-.36-.32-.89-.48-1.6-.48-.66,0-1.15,.12-1.46,.35-.32,.23-.55,.64-.7,1.23l-1.38-.19c.12-.59,.33-1.06,.62-1.43,.29-.36,.7-.64,1.24-.84,.54-.2,1.17-.29,1.88-.29s1.28,.08,1.73,.25c.44,.17,.77,.38,.98,.63,.21,.25,.35,.57,.44,.96,.05,.24,.07,.67,.07,1.3v1.88c0,1.31,.03,2.13,.09,2.48,.06,.35,.18,.68,.36,1h-1.47c-.15-.29-.24-.63-.28-1.02Zm-.12-3.14c-.51,.21-1.28,.39-2.3,.53-.58,.08-.99,.18-1.23,.28-.24,.1-.43,.26-.55,.46-.13,.2-.2,.42-.2,.67,0,.38,.14,.69,.43,.94,.28,.25,.7,.38,1.25,.38s1.02-.12,1.45-.36c.42-.24,.73-.56,.93-.97,.15-.32,.23-.79,.23-1.41v-.52Z" style="fill:#1d1d1b;"/><path d="M160.94,126.06l1.37,.2c.06,.42,.21,.73,.48,.92,.35,.26,.82,.39,1.43,.39,.65,0,1.15-.13,1.51-.39,.35-.26,.59-.62,.72-1.09,.07-.29,.11-.89,.1-1.8-.62,.72-1.38,1.09-2.3,1.09-1.14,0-2.02-.41-2.65-1.23-.62-.82-.94-1.81-.94-2.96,0-.79,.14-1.52,.43-2.19,.29-.67,.7-1.19,1.25-1.55,.54-.36,1.18-.55,1.92-.55,.98,0,1.79,.4,2.42,1.19v-1h1.3v7.17c0,1.29-.13,2.21-.39,2.75-.26,.54-.68,.96-1.25,1.28s-1.27,.47-2.11,.47c-.99,0-1.79-.22-2.4-.67s-.9-1.12-.88-2.01Zm1.16-4.98c0,1.09,.21,1.88,.65,2.38,.43,.5,.97,.75,1.62,.75s1.19-.25,1.62-.75c.44-.5,.66-1.28,.66-2.34s-.23-1.78-.68-2.3c-.45-.52-.99-.77-1.63-.77s-1.16,.25-1.59,.76-.66,1.26-.66,2.26Z" style="fill:#1d1d1b;"/><path d="M170.1,125.37v-8.3h1.27v1.18c.61-.91,1.49-1.37,2.64-1.37,.5,0,.96,.09,1.38,.27,.42,.18,.73,.42,.94,.71,.21,.29,.35,.64,.44,1.04,.05,.26,.08,.72,.08,1.37v5.1h-1.41v-5.05c0-.57-.05-1-.16-1.29-.11-.28-.3-.51-.58-.68-.28-.17-.61-.25-.98-.25-.6,0-1.12,.19-1.55,.57-.44,.38-.65,1.1-.65,2.16v4.53h-1.41Z" style="fill:#1d1d1b;"/><path d="M179.01,115.53v-1.62h1.41v1.62h-1.41Zm0,9.84v-8.3h1.41v8.3h-1.41Z" style="fill:#1d1d1b;"/><path d="M185.62,124.11l.2,1.24c-.4,.08-.75,.12-1.06,.12-.51,0-.91-.08-1.19-.24s-.48-.37-.59-.64c-.12-.26-.17-.82-.17-1.66v-4.77h-1.03v-1.09h1.03v-2.05l1.4-.84v2.9h1.41v1.09h-1.41v4.85c0,.4,.02,.66,.07,.77,.05,.11,.13,.21,.24,.27,.11,.07,.27,.1,.48,.1,.16,0,.36-.02,.62-.05Z" style="fill:#1d1d1b;"/><path d="M192.44,125.37v-1.22c-.65,.94-1.52,1.41-2.63,1.41-.49,0-.95-.09-1.37-.28-.43-.19-.74-.42-.95-.71-.21-.28-.35-.63-.43-1.04-.06-.28-.09-.71-.09-1.31v-5.14h1.41v4.6c0,.73,.03,1.23,.09,1.48,.09,.37,.28,.66,.56,.87,.29,.21,.64,.32,1.06,.32s.82-.11,1.19-.32c.37-.22,.63-.51,.79-.88,.15-.37,.23-.91,.23-1.62v-4.45h1.41v8.3h-1.26Z" style="fill:#1d1d1b;"/><path d="M201.28,125.37v-1.05c-.53,.82-1.3,1.23-2.32,1.23-.66,0-1.27-.18-1.82-.55s-.98-.87-1.29-1.53c-.3-.65-.46-1.4-.46-2.25s.14-1.58,.41-2.25c.28-.67,.69-1.19,1.24-1.55,.55-.36,1.17-.54,1.85-.54,.5,0,.95,.11,1.34,.32s.71,.49,.95,.82v-4.11h1.4v11.45h-1.3Zm-4.45-4.14c0,1.06,.22,1.86,.67,2.38,.45,.53,.98,.79,1.59,.79s1.14-.25,1.57-.75c.43-.5,.64-1.27,.64-2.3,0-1.14-.22-1.97-.66-2.5s-.98-.8-1.62-.8-1.15,.26-1.57,.77c-.42,.51-.63,1.32-.63,2.41Z" style="fill:#1d1d1b;"/><path d="M210.47,122.7l1.45,.18c-.23,.85-.65,1.51-1.27,1.98-.62,.47-1.41,.7-2.38,.7-1.21,0-2.18-.37-2.89-1.12-.71-.75-1.07-1.8-1.07-3.14s.36-2.48,1.08-3.25c.72-.77,1.65-1.16,2.8-1.16s2.02,.38,2.72,1.13c.7,.76,1.05,1.82,1.05,3.19,0,.08,0,.21,0,.38h-6.19c.05,.91,.31,1.61,.77,2.09,.46,.48,1.04,.73,1.73,.73,.52,0,.96-.14,1.32-.41,.36-.27,.65-.7,.87-1.3Zm-4.62-2.27h4.63c-.06-.7-.24-1.22-.53-1.57-.45-.54-1.03-.81-1.74-.81-.65,0-1.19,.22-1.63,.65-.44,.43-.68,1.01-.73,1.73Z" style="fill:#1d1d1b;"/><path d="M217.62,121.22c0-1.54,.43-2.67,1.28-3.41,.71-.61,1.58-.92,2.61-.92,1.14,0,2.07,.37,2.8,1.12,.72,.75,1.09,1.78,1.09,3.1,0,1.07-.16,1.91-.48,2.52-.32,.61-.79,1.09-1.4,1.43-.61,.34-1.28,.51-2,.51-1.16,0-2.1-.37-2.82-1.12-.72-.74-1.07-1.82-1.07-3.22Zm1.45,0c0,1.06,.23,1.86,.7,2.39,.46,.53,1.05,.79,1.75,.79s1.28-.27,1.74-.8c.46-.53,.7-1.34,.7-2.43,0-1.03-.23-1.8-.7-2.33-.47-.53-1.05-.79-1.74-.79s-1.29,.26-1.75,.79c-.46,.53-.7,1.32-.7,2.38Z" style="fill:#1d1d1b;"/><path d="M227.37,125.37v-7.2h-1.24v-1.09h1.24v-.88c0-.56,.05-.97,.15-1.24,.13-.36,.37-.66,.71-.89,.34-.23,.82-.34,1.43-.34,.39,0,.83,.05,1.31,.14l-.21,1.23c-.29-.05-.57-.08-.83-.08-.43,0-.73,.09-.91,.27-.18,.18-.27,.52-.27,1.02v.77h1.62v1.09h-1.62v7.2h-1.4Z" style="fill:#1d1d1b;"/><path d="M129.72,146.97l-3.16-8.3h1.48l1.78,4.97c.19,.54,.37,1.09,.53,1.67,.12-.44,.3-.96,.52-1.58l1.84-5.06h1.45l-3.14,8.3h-1.31Z" style="fill:#1d1d1b;"/><path d="M140.83,145.95c-.52,.44-1.02,.76-1.5,.94-.48,.18-1,.27-1.55,.27-.91,0-1.61-.22-2.1-.67-.49-.45-.73-1.01-.73-1.71,0-.41,.09-.78,.28-1.11,.18-.34,.43-.61,.73-.81,.3-.2,.64-.36,1.01-.46,.28-.07,.69-.14,1.25-.21,1.13-.14,1.97-.3,2.51-.48,0-.19,0-.31,0-.37,0-.57-.13-.98-.4-1.21-.36-.32-.89-.48-1.6-.48-.66,0-1.15,.12-1.46,.35-.32,.23-.55,.64-.7,1.23l-1.38-.19c.12-.59,.33-1.06,.62-1.43,.29-.36,.7-.64,1.24-.84,.54-.2,1.17-.29,1.88-.29s1.28,.08,1.73,.25c.44,.17,.77,.38,.98,.63,.21,.25,.35,.57,.44,.96,.05,.24,.07,.67,.07,1.3v1.88c0,1.31,.03,2.13,.09,2.48,.06,.35,.18,.68,.36,1h-1.47c-.15-.29-.24-.63-.28-1.02Zm-.12-3.14c-.51,.21-1.28,.39-2.3,.53-.58,.08-.99,.18-1.23,.28-.24,.1-.43,.26-.55,.46-.13,.2-.2,.42-.2,.67,0,.38,.14,.69,.43,.94,.28,.25,.7,.38,1.25,.38s1.02-.12,1.45-.36c.42-.24,.73-.56,.93-.97,.15-.32,.23-.79,.23-1.41v-.52Z" style="fill:#1d1d1b;"/><path d="M144.3,146.97v-8.3h1.27v1.26c.32-.59,.62-.98,.89-1.16s.57-.28,.9-.28c.47,0,.96,.15,1.45,.45l-.48,1.3c-.34-.2-.69-.3-1.03-.3-.31,0-.58,.09-.83,.28-.25,.19-.42,.44-.52,.77-.16,.5-.23,1.05-.23,1.64v4.34h-1.41Z" style="fill:#1d1d1b;"/><path d="M149.65,137.13v-1.62h1.41v1.62h-1.41Zm0,9.84v-8.3h1.41v8.3h-1.41Z" style="fill:#1d1d1b;"/><path d="M158.88,144.3l1.45,.18c-.23,.85-.65,1.51-1.27,1.98-.62,.47-1.41,.7-2.38,.7-1.21,0-2.18-.37-2.89-1.12-.71-.75-1.07-1.8-1.07-3.14s.36-2.48,1.08-3.25c.72-.77,1.65-1.16,2.8-1.16s2.02,.38,2.72,1.13c.7,.76,1.05,1.82,1.05,3.19,0,.08,0,.21,0,.38h-6.19c.05,.91,.31,1.61,.77,2.09,.46,.48,1.04,.73,1.73,.73,.52,0,.96-.14,1.32-.41,.36-.27,.65-.7,.87-1.3Zm-4.62-2.27h4.63c-.06-.7-.24-1.22-.53-1.57-.45-.54-1.03-.81-1.74-.81-.65,0-1.19,.22-1.63,.65-.44,.43-.68,1.01-.73,1.73Z" style="fill:#1d1d1b;"/><path d="M165.17,145.71l.2,1.24c-.4,.08-.75,.12-1.06,.12-.51,0-.91-.08-1.19-.24s-.48-.37-.59-.64c-.12-.26-.17-.82-.17-1.66v-4.77h-1.03v-1.09h1.03v-2.05l1.4-.84v2.9h1.41v1.09h-1.41v4.85c0,.4,.02,.66,.07,.77,.05,.11,.13,.21,.24,.27,.11,.07,.27,.1,.48,.1,.16,0,.36-.02,.62-.05Z" style="fill:#1d1d1b;"/><path d="M166.48,150.17l-.16-1.32c.31,.08,.57,.12,.8,.12,.31,0,.56-.05,.75-.16,.19-.1,.34-.25,.46-.44,.09-.14,.23-.49,.43-1.05,.03-.08,.07-.19,.12-.34l-3.15-8.31h1.52l1.73,4.8c.22,.61,.42,1.25,.6,1.92,.16-.65,.35-1.28,.58-1.89l1.77-4.84h1.41l-3.16,8.44c-.34,.91-.6,1.54-.79,1.88-.25,.46-.54,.8-.86,1.02-.32,.22-.71,.32-1.16,.32-.27,0-.57-.06-.91-.17Z" style="fill:#1d1d1b;"/><path d="M184.4,143.93l1.38,.18c-.15,.95-.54,1.7-1.16,2.24-.62,.54-1.39,.81-2.29,.81-1.14,0-2.05-.37-2.74-1.11-.69-.74-1.04-1.81-1.04-3.19,0-.9,.15-1.68,.45-2.35s.75-1.18,1.36-1.51c.61-.34,1.27-.5,1.98-.5,.9,0,1.64,.23,2.21,.68,.57,.46,.94,1.1,1.1,1.94l-1.37,.21c-.13-.56-.36-.98-.69-1.26-.33-.28-.73-.42-1.2-.42-.71,0-1.29,.25-1.73,.76-.44,.51-.66,1.31-.66,2.41s.21,1.92,.64,2.43c.43,.51,.98,.76,1.67,.76,.55,0,1.01-.17,1.38-.51,.37-.34,.6-.86,.7-1.56Z" style="fill:#1d1d1b;"/><path d="M186.99,146.97v-11.45h1.41v4.11c.66-.76,1.48-1.14,2.48-1.14,.61,0,1.15,.12,1.6,.36s.78,.58,.97,1c.2,.43,.29,1.05,.29,1.86v5.26h-1.41v-5.26c0-.7-.15-1.21-.46-1.54s-.74-.48-1.29-.48c-.42,0-.81,.11-1.18,.32-.37,.22-.63,.51-.79,.88-.16,.37-.23,.88-.23,1.53v4.54h-1.41Z" style="fill:#1d1d1b;"/><path d="M201.3,145.95c-.52,.44-1.02,.76-1.5,.94-.48,.18-1,.27-1.55,.27-.91,0-1.61-.22-2.1-.67-.49-.45-.73-1.01-.73-1.71,0-.41,.09-.78,.28-1.11,.18-.34,.43-.61,.73-.81,.3-.2,.64-.36,1.01-.46,.28-.07,.69-.14,1.25-.21,1.13-.14,1.97-.3,2.51-.48,0-.19,0-.31,0-.37,0-.57-.13-.98-.4-1.21-.36-.32-.89-.48-1.6-.48-.66,0-1.15,.12-1.46,.35-.32,.23-.55,.64-.7,1.23l-1.38-.19c.12-.59,.33-1.06,.62-1.43,.29-.36,.7-.64,1.24-.84,.54-.2,1.17-.29,1.88-.29s1.28,.08,1.73,.25c.44,.17,.77,.38,.98,.63,.21,.25,.35,.57,.44,.96,.05,.24,.07,.67,.07,1.3v1.88c0,1.31,.03,2.13,.09,2.48,.06,.35,.18,.68,.36,1h-1.47c-.15-.29-.24-.63-.28-1.02Zm-.12-3.14c-.51,.21-1.28,.39-2.3,.53-.58,.08-.99,.18-1.23,.28-.24,.1-.43,.26-.55,.46-.13,.2-.2,.42-.2,.67,0,.38,.14,.69,.43,.94,.28,.25,.7,.38,1.25,.38s1.02-.12,1.45-.36c.42-.24,.73-.56,.93-.97,.15-.32,.23-.79,.23-1.41v-.52Z" style="fill:#1d1d1b;"/><path d="M204.79,146.97v-8.3h1.27v1.18c.61-.91,1.49-1.37,2.64-1.37,.5,0,.96,.09,1.38,.27,.42,.18,.73,.42,.94,.71,.21,.29,.35,.64,.44,1.04,.05,.26,.08,.72,.08,1.37v5.1h-1.41v-5.05c0-.57-.05-1-.16-1.29-.11-.28-.3-.51-.58-.68-.28-.17-.61-.25-.98-.25-.6,0-1.12,.19-1.55,.57-.44,.38-.65,1.1-.65,2.16v4.53h-1.41Z" style="fill:#1d1d1b;"/><path d="M213.43,147.66l1.37,.2c.06,.42,.21,.73,.48,.92,.35,.26,.82,.39,1.43,.39,.65,0,1.15-.13,1.51-.39,.35-.26,.59-.62,.72-1.09,.07-.29,.11-.89,.1-1.8-.62,.72-1.38,1.09-2.3,1.09-1.14,0-2.02-.41-2.65-1.23-.62-.82-.94-1.81-.94-2.96,0-.79,.14-1.52,.43-2.19,.29-.67,.7-1.19,1.25-1.55,.54-.36,1.18-.55,1.92-.55,.98,0,1.79,.4,2.42,1.19v-1h1.3v7.17c0,1.29-.13,2.21-.39,2.75-.26,.54-.68,.96-1.25,1.28s-1.27,.47-2.11,.47c-.99,0-1.79-.22-2.4-.67s-.9-1.12-.88-2.01Zm1.16-4.98c0,1.09,.21,1.88,.65,2.38,.43,.5,.97,.75,1.62,.75s1.19-.25,1.62-.75c.44-.5,.66-1.28,.66-2.34s-.23-1.78-.68-2.3c-.45-.52-.99-.77-1.63-.77s-1.16,.25-1.59,.76-.66,1.26-.66,2.26Z" style="fill:#1d1d1b;"/><path d="M228.26,144.3l1.45,.18c-.23,.85-.65,1.51-1.27,1.98-.62,.47-1.41,.7-2.38,.7-1.21,0-2.18-.37-2.89-1.12-.71-.75-1.07-1.8-1.07-3.14s.36-2.48,1.08-3.25c.72-.77,1.65-1.16,2.8-1.16s2.02,.38,2.72,1.13c.7,.76,1.05,1.82,1.05,3.19,0,.08,0,.21,0,.38h-6.19c.05,.91,.31,1.61,.77,2.09,.46,.48,1.04,.73,1.73,.73,.52,0,.96-.14,1.32-.41,.36-.27,.65-.7,.87-1.3Zm-4.62-2.27h4.63c-.06-.7-.24-1.22-.53-1.57-.45-.54-1.03-.81-1.74-.81-.65,0-1.19,.22-1.63,.65-.44,.43-.68,1.01-.73,1.73Z" style="fill:#1d1d1b;"/></g></svg>