<?xml version="1.0" encoding="UTF-8"?>
<svg id="Ebene_1" data-name="Ebene 1" xmlns="http://www.w3.org/2000/svg" viewBox="0 0 988 525">
  <defs>
    <style>
      .cls-1 {
        letter-spacing: 0em;
      }

      .cls-2 {
        letter-spacing: 0em;
      }

      .cls-3 {
        letter-spacing: 0em;
      }

      .cls-4 {
        letter-spacing: 0em;
      }

      .cls-5 {
        letter-spacing: 0em;
      }

      .cls-6 {
        letter-spacing: 0em;
      }

      .cls-7 {
        letter-spacing: -.02em;
      }

      .cls-8 {
        letter-spacing: 0em;
      }

      .cls-9 {
        letter-spacing: 0em;
      }

      .cls-10 {
        letter-spacing: 0em;
      }

      .cls-11 {
        letter-spacing: 0em;
      }

      .cls-12 {
        letter-spacing: 0em;
      }

      .cls-13 {
        letter-spacing: 0em;
      }

      .cls-14 {
        letter-spacing: 0em;
      }

      .cls-15 {
        fill: none;
        stroke: #1d1d1b;
        stroke-miterlimit: 10;
        stroke-width: 2px;
      }

      .cls-16 {
        letter-spacing: 0em;
      }

      .cls-17 {
        letter-spacing: 0em;
      }

      .cls-18 {
        letter-spacing: 0em;
      }

      .cls-19 {
        letter-spacing: 0em;
      }

      .cls-20 {
        font-family: Arial-BoldMT, Arial;
        font-size: 22px;
        font-weight: 700;
      }

      .cls-20, .cls-21 {
        fill: #1d1d1b;
      }

      .cls-22 {
        letter-spacing: 0em;
      }

      .cls-23 {
        letter-spacing: 0em;
      }

      .cls-21 {
        stroke-width: 0px;
      }

      .cls-24 {
        letter-spacing: 0em;
      }

      .cls-25 {
        letter-spacing: 0em;
      }

      .cls-26 {
        letter-spacing: 0em;
      }
    </style>
  </defs>
  <text class="cls-20" transform="translate(187.64 115.24)"><tspan class="cls-12" x="0" y="0">D</tspan><tspan class="cls-6" x="15.76" y="0">a</tspan><tspan class="cls-1" x="27.93" y="0">t</tspan><tspan x="35.38" y="0">a </tspan><tspan class="cls-3" x="53.72" y="0">c</tspan><tspan class="cls-5" x="65.92" y="0">o</tspan><tspan class="cls-16" x="79.29" y="0">l</tspan><tspan class="cls-11" x="85.25" y="0">l</tspan><tspan class="cls-19" x="91.39" y="0">e</tspan><tspan class="cls-9" x="103.57" y="0">c</tspan><tspan class="cls-18" x="115.96" y="0">t</tspan><tspan class="cls-5" x="123.4" y="0">i</tspan><tspan class="cls-13" x="129.44" y="0">o</tspan><tspan x="142.8" y="0">n</tspan></text>
  <text class="cls-20" transform="translate(577.28 201.72)"><tspan class="cls-12" x="0" y="0">D</tspan><tspan class="cls-6" x="15.76" y="0">a</tspan><tspan class="cls-1" x="27.93" y="0">t</tspan><tspan x="35.38" y="0">a </tspan><tspan class="cls-22" x="53.72" y="0">d</tspan><tspan class="cls-26" x="67.07" y="0">i</tspan><tspan class="cls-2" x="73.2" y="0">s</tspan><tspan class="cls-8" x="85.23" y="0">p</tspan><tspan class="cls-23" x="98.65" y="0">l</tspan><tspan class="cls-7" x="104.71" y="0">a</tspan><tspan x="116.55" y="0">y</tspan></text>
  <text class="cls-20" transform="translate(270.43 340.22)"><tspan class="cls-12" x="0" y="0">D</tspan><tspan class="cls-6" x="15.76" y="0">a</tspan><tspan class="cls-1" x="27.93" y="0">t</tspan><tspan x="35.38" y="0">a </tspan><tspan class="cls-4" x="53.72" y="0">r</tspan><tspan class="cls-19" x="62.21" y="0">e</tspan><tspan class="cls-5" x="74.4" y="0">d</tspan><tspan class="cls-17" x="87.77" y="0">u</tspan><tspan class="cls-10" x="101.12" y="0">c</tspan><tspan class="cls-25" x="113.51" y="0">t</tspan><tspan class="cls-24" x="120.95" y="0">i</tspan><tspan class="cls-14" x="126.99" y="0">o</tspan><tspan x="140.35" y="0">n</tspan></text>
  <g>
    <path class="cls-21" d="m664.48,379.61l3.08.98c-.47,1.72-1.26,3-2.36,3.83-1.1.83-2.49,1.25-4.18,1.25-2.09,0-3.81-.71-5.16-2.14s-2.02-3.38-2.02-5.86c0-2.62.68-4.66,2.03-6.11s3.13-2.18,5.34-2.18c1.93,0,3.49.57,4.69,1.71.72.67,1.25,1.64,1.61,2.9l-3.15.75c-.19-.82-.58-1.46-1.17-1.93-.59-.47-1.31-.71-2.15-.71-1.17,0-2.11.42-2.84,1.26-.73.84-1.09,2.2-1.09,4.07,0,1.99.36,3.41,1.07,4.25.72.85,1.65,1.27,2.79,1.27.84,0,1.57-.27,2.18-.81s1.05-1.38,1.31-2.54Z"/>
    <path class="cls-21" d="m669.35,379.54c0-1,.25-1.97.74-2.91.49-.94,1.19-1.65,2.1-2.15.91-.49,1.92-.74,3.03-.74,1.73,0,3.14.56,4.24,1.68s1.65,2.54,1.65,4.25-.56,3.16-1.67,4.29c-1.11,1.13-2.52,1.7-4.21,1.7-1.05,0-2.04-.24-2.99-.71-.95-.47-1.67-1.17-2.17-2.08s-.74-2.03-.74-3.34Zm3.09.16c0,1.13.27,2,.81,2.6s1.2.9,1.99.9,1.45-.3,1.98-.9c.53-.6.8-1.47.8-2.62s-.27-1.98-.8-2.58c-.53-.6-1.19-.9-1.98-.9s-1.45.3-1.99.9-.81,1.47-.81,2.6Z"/>
    <path class="cls-21" d="m693.78,385.4h-3.02v-5.82c0-1.23-.06-2.03-.19-2.39s-.34-.64-.63-.84c-.29-.2-.64-.3-1.05-.3-.52,0-.99.14-1.41.43-.42.29-.7.67-.85,1.14-.15.47-.23,1.35-.23,2.62v5.17h-3.02v-11.41h2.8v1.68c1-1.29,2.25-1.93,3.76-1.93.67,0,1.27.12,1.83.36s.97.55,1.25.92c.28.37.48.79.59,1.27.11.47.17,1.15.17,2.03v7.09Z"/>
    <path class="cls-21" d="m706.71,377.37l-2.98.54c-.1-.59-.33-1.04-.68-1.34-.36-.3-.82-.45-1.38-.45-.75,0-1.35.26-1.8.78-.45.52-.67,1.39-.67,2.6,0,1.35.23,2.31.68,2.87.46.56,1.07.84,1.83.84.57,0,1.04-.16,1.41-.49s.62-.89.77-1.68l2.96.5c-.31,1.36-.9,2.39-1.77,3.08-.87.7-2.04,1.04-3.51,1.04-1.67,0-3-.53-3.99-1.58-.99-1.05-1.49-2.51-1.49-4.37s.5-3.35,1.49-4.4,2.34-1.57,4.04-1.57c1.39,0,2.49.3,3.31.9.82.6,1.41,1.51,1.77,2.73Z"/>
    <path class="cls-21" d="m708.91,385.4v-15.75h3.02v15.75h-3.02Z"/>
    <path class="cls-21" d="m722.4,385.4v-1.71c-.42.61-.96,1.09-1.64,1.44-.68.35-1.39.53-2.14.53s-1.45-.17-2.06-.5c-.61-.34-1.05-.81-1.32-1.42-.27-.61-.41-1.45-.41-2.52v-7.22h3.02v5.24c0,1.6.06,2.59.17,2.95.11.36.31.65.61.86s.67.32,1.12.32c.52,0,.98-.14,1.39-.42s.69-.63.84-1.05.23-1.45.23-3.08v-4.81h3.02v11.41h-2.8Z"/>
    <path class="cls-21" d="m727.24,382.15l3.03-.46c.13.59.39,1.03.78,1.34s.95.46,1.65.46c.78,0,1.37-.14,1.76-.43.26-.2.4-.47.4-.81,0-.23-.07-.42-.21-.57-.15-.14-.49-.28-1.01-.4-2.43-.54-3.98-1.03-4.63-1.47-.9-.62-1.35-1.47-1.35-2.57,0-.99.39-1.82,1.17-2.49.78-.67,1.99-1.01,3.63-1.01s2.72.25,3.48.76c.76.51,1.28,1.26,1.57,2.26l-2.85.53c-.12-.44-.35-.78-.69-1.02-.34-.24-.83-.35-1.46-.35-.79,0-1.36.11-1.71.33-.23.16-.34.36-.34.61,0,.21.1.4.3.55.27.2,1.21.48,2.82.85,1.61.37,2.73.81,3.37,1.34.63.54.95,1.29.95,2.25,0,1.05-.44,1.94-1.31,2.7s-2.17,1.13-3.88,1.13c-1.55,0-2.78-.31-3.69-.95-.91-.63-1.5-1.49-1.78-2.57Z"/>
    <path class="cls-21" d="m740.32,372.45v-2.79h3.02v2.79h-3.02Zm0,12.96v-11.41h3.02v11.41h-3.02Z"/>
    <path class="cls-21" d="m745.67,379.54c0-1,.25-1.97.74-2.91.49-.94,1.19-1.65,2.1-2.15.91-.49,1.92-.74,3.03-.74,1.73,0,3.14.56,4.24,1.68s1.65,2.54,1.65,4.25-.56,3.16-1.67,4.29c-1.11,1.13-2.52,1.7-4.21,1.7-1.05,0-2.04-.24-2.99-.71-.95-.47-1.67-1.17-2.17-2.08s-.74-2.03-.74-3.34Zm3.09.16c0,1.13.27,2,.81,2.6s1.2.9,1.99.9,1.45-.3,1.98-.9c.53-.6.8-1.47.8-2.62s-.27-1.98-.8-2.58c-.53-.6-1.19-.9-1.98-.9s-1.45.3-1.99.9-.81,1.47-.81,2.6Z"/>
    <path class="cls-21" d="m770.1,385.4h-3.02v-5.82c0-1.23-.06-2.03-.19-2.39s-.34-.64-.63-.84c-.29-.2-.64-.3-1.05-.3-.52,0-.99.14-1.41.43-.42.29-.7.67-.85,1.14-.15.47-.23,1.35-.23,2.62v5.17h-3.02v-11.41h2.8v1.68c1-1.29,2.25-1.93,3.76-1.93.67,0,1.27.12,1.83.36s.97.55,1.25.92c.28.37.48.79.59,1.27.11.47.17,1.15.17,2.03v7.09Z"/>
    <path class="cls-21" d="m772.05,382.15l3.03-.46c.13.59.39,1.03.78,1.34s.95.46,1.65.46c.78,0,1.37-.14,1.76-.43.26-.2.4-.47.4-.81,0-.23-.07-.42-.21-.57-.15-.14-.49-.28-1.01-.4-2.43-.54-3.98-1.03-4.63-1.47-.9-.62-1.35-1.47-1.35-2.57,0-.99.39-1.82,1.17-2.49.78-.67,1.99-1.01,3.63-1.01s2.72.25,3.48.76c.76.51,1.28,1.26,1.57,2.26l-2.85.53c-.12-.44-.35-.78-.69-1.02-.34-.24-.83-.35-1.46-.35-.79,0-1.36.11-1.71.33-.23.16-.34.36-.34.61,0,.21.1.4.3.55.27.2,1.21.48,2.82.85,1.61.37,2.73.81,3.37,1.34.63.54.95,1.29.95,2.25,0,1.05-.44,1.94-1.31,2.7s-2.17,1.13-3.88,1.13c-1.55,0-2.78-.31-3.69-.95-.91-.63-1.5-1.49-1.78-2.57Z"/>
    <path class="cls-21" d="m785.15,377.01v-3.02h3.02v3.02h-3.02Zm0,8.39v-3.02h3.02v3.02h-3.02Z"/>
    <path class="cls-21" d="m642.68,411.8h-2.8v-1.68c-.47.65-1.02,1.14-1.65,1.46-.63.32-1.27.48-1.92.48-1.31,0-2.43-.53-3.37-1.58-.94-1.06-1.4-2.53-1.4-4.42s.46-3.4,1.36-4.41c.91-1.01,2.06-1.51,3.45-1.51,1.27,0,2.38.53,3.31,1.59v-5.67h3.02v15.75Zm-8.06-5.95c0,1.22.17,2.1.5,2.64.49.79,1.17,1.18,2.04,1.18.69,0,1.29-.3,1.77-.89s.73-1.47.73-2.65c0-1.31-.24-2.25-.71-2.83-.47-.58-1.08-.86-1.82-.86s-1.32.28-1.8.85c-.48.57-.73,1.42-.73,2.55Z"/>
    <path class="cls-21" d="m648.53,411.8h-3.02v-11.41h2.8v1.62c.48-.77.91-1.27,1.29-1.51.38-.24.82-.37,1.3-.37.69,0,1.35.19,1.99.57l-.93,2.63c-.51-.33-.98-.49-1.42-.49s-.78.12-1.07.35c-.29.23-.52.65-.69,1.26-.17.61-.25,1.88-.25,3.82v3.52Z"/>
    <path class="cls-21" d="m656.43,403.87l-2.74-.49c.31-1.1.84-1.92,1.59-2.45s1.87-.79,3.35-.79c1.35,0,2.35.16,3.01.48.66.32,1.12.72,1.39,1.21.27.49.4,1.39.4,2.7l-.03,3.52c0,1,.05,1.74.14,2.22.1.48.28.99.54,1.53h-2.99c-.08-.2-.18-.5-.29-.89-.05-.18-.09-.3-.11-.35-.52.5-1.07.88-1.65,1.13-.59.25-1.21.38-1.88.38-1.17,0-2.1-.32-2.78-.96-.68-.64-1.01-1.44-1.01-2.42,0-.64.15-1.22.46-1.72s.74-.89,1.29-1.16c.55-.27,1.35-.5,2.4-.7,1.41-.26,2.39-.51,2.93-.74v-.3c0-.58-.14-.99-.43-1.24s-.83-.37-1.62-.37c-.54,0-.96.11-1.26.32-.3.21-.54.58-.73,1.11Zm4.04,2.45c-.39.13-1,.28-1.84.46s-1.39.35-1.64.53c-.39.28-.59.63-.59,1.06s.16.79.47,1.1.72.46,1.2.46c.54,0,1.06-.18,1.56-.54.37-.27.61-.61.72-1,.08-.26.12-.75.12-1.47v-.6Z"/>
    <path class="cls-21" d="m668.31,411.8l-3.61-11.41h2.93l2.14,7.48,1.97-7.48h2.91l1.9,7.48,2.18-7.48h2.98l-3.66,11.41h-2.9l-1.97-7.34-1.93,7.34h-2.93Z"/>
    <path class="cls-21" d="m683.28,398.85v-2.79h3.02v2.79h-3.02Zm0,12.96v-11.41h3.02v11.41h-3.02Z"/>
    <path class="cls-21" d="m699.62,411.8h-3.02v-5.82c0-1.23-.06-2.03-.19-2.39-.13-.36-.34-.64-.63-.84-.29-.2-.64-.3-1.05-.3-.52,0-.99.14-1.41.43s-.7.67-.85,1.14c-.15.47-.23,1.35-.23,2.62v5.17h-3.02v-11.41h2.8v1.68c1-1.29,2.25-1.93,3.76-1.93.67,0,1.27.12,1.83.36.55.24.97.55,1.25.92.28.37.48.79.59,1.27.11.47.17,1.15.17,2.03v7.09Z"/>
    <path class="cls-21" d="m702.32,412.55l3.45.42c.06.4.19.68.4.83.29.21.74.32,1.35.32.79,0,1.38-.12,1.77-.35.26-.16.47-.41.6-.76.09-.25.14-.71.14-1.39v-1.67c-.9,1.23-2.04,1.85-3.42,1.85-1.53,0-2.75-.65-3.64-1.94-.7-1.02-1.05-2.3-1.05-3.82,0-1.91.46-3.37,1.38-4.38.92-1.01,2.06-1.51,3.43-1.51s2.57.62,3.49,1.86v-1.6h2.83v10.24c0,1.35-.11,2.35-.33,3.02s-.53,1.19-.93,1.57c-.4.38-.94.68-1.61.89-.67.21-1.52.32-2.54.32-1.93,0-3.3-.33-4.11-.99s-1.21-1.5-1.21-2.52c0-.1,0-.22.01-.37Zm2.7-6.69c0,1.21.23,2.1.7,2.66.47.56,1.05.84,1.74.84.74,0,1.36-.29,1.87-.87.51-.58.76-1.43.76-2.56s-.24-2.06-.73-2.63-1.1-.86-1.85-.86-1.32.28-1.79.84c-.47.56-.7,1.42-.7,2.57Z"/>
    <path class="cls-21" d="m714.6,412.07l3.9-16.29h2.27l-3.94,16.29h-2.22Z"/>
    <path class="cls-21" d="m725.67,411.8l-4.6-11.41h3.17l2.15,5.82.62,1.94c.17-.49.27-.82.31-.98.1-.32.21-.64.32-.97l2.17-5.82h3.1l-4.53,11.41h-2.72Z"/>
    <path class="cls-21" d="m740.9,408.17l3.01.5c-.39,1.1-1,1.94-1.83,2.52-.83.58-1.88.87-3.13.87-1.98,0-3.45-.65-4.4-1.94-.75-1.04-1.13-2.35-1.13-3.93,0-1.89.49-3.37,1.48-4.44.99-1.07,2.24-1.61,3.75-1.61,1.7,0,3.04.56,4.02,1.68.98,1.12,1.45,2.84,1.41,5.15h-7.56c.02.9.26,1.59.73,2.09.47.5,1.05.75,1.74.75.47,0,.87-.13,1.19-.39s.57-.67.73-1.25Zm.17-3.05c-.02-.87-.25-1.54-.68-1.99-.43-.45-.95-.68-1.57-.68-.66,0-1.2.24-1.63.72s-.64,1.13-.63,1.96h4.51Z"/>
    <path class="cls-21" d="m749.37,411.8h-3.02v-11.41h2.8v1.62c.48-.77.91-1.27,1.29-1.51.38-.24.82-.37,1.3-.37.69,0,1.35.19,1.99.57l-.93,2.63c-.51-.33-.98-.49-1.42-.49s-.78.12-1.07.35c-.29.23-.52.65-.69,1.26-.17.61-.25,1.88-.25,3.82v3.52Z"/>
    <path class="cls-21" d="m755.16,398.85v-2.79h3.02v2.79h-3.02Zm0,12.96v-11.41h3.02v11.41h-3.02Z"/>
    <path class="cls-21" d="m759.97,400.39h1.68v-.86c0-.96.1-1.68.31-2.15.2-.47.58-.86,1.13-1.16.55-.3,1.24-.45,2.08-.45s1.7.13,2.52.39l-.41,2.11c-.48-.11-.94-.17-1.39-.17s-.75.1-.94.31c-.19.2-.28.6-.28,1.18v.81h2.26v2.37h-2.26v9.03h-3.02v-9.03h-1.68v-2.37Z"/>
    <path class="cls-21" d="m767.83,400.39h3.21l2.73,8.1,2.66-8.1h3.13l-4.03,10.98-.72,1.99c-.26.67-.52,1.17-.76,1.53-.24.35-.52.63-.83.85-.31.22-.7.39-1.15.51-.45.12-.97.18-1.54.18s-1.15-.06-1.71-.18l-.27-2.36c.47.09.9.14,1.28.14.7,0,1.22-.21,1.56-.62s.59-.94.77-1.57l-4.34-11.44Z"/>
    <path class="cls-21" d="m781.3,398.85v-2.79h3.02v2.79h-3.02Zm0,12.96v-11.41h3.02v11.41h-3.02Z"/>
    <path class="cls-21" d="m797.64,411.8h-3.02v-5.82c0-1.23-.06-2.03-.19-2.39-.13-.36-.34-.64-.63-.84-.29-.2-.64-.3-1.05-.3-.52,0-.99.14-1.41.43s-.7.67-.85,1.14c-.15.47-.23,1.35-.23,2.62v5.17h-3.02v-11.41h2.8v1.68c1-1.29,2.25-1.93,3.76-1.93.67,0,1.27.12,1.83.36.55.24.97.55,1.25.92.28.37.48.79.59,1.27.11.47.17,1.15.17,2.03v7.09Z"/>
    <path class="cls-21" d="m800.34,412.55l3.45.42c.06.4.19.68.4.83.29.21.74.32,1.35.32.79,0,1.38-.12,1.77-.35.26-.16.47-.41.6-.76.09-.25.14-.71.14-1.39v-1.67c-.9,1.23-2.04,1.85-3.42,1.85-1.53,0-2.75-.65-3.64-1.94-.7-1.02-1.05-2.3-1.05-3.82,0-1.91.46-3.37,1.38-4.38.92-1.01,2.06-1.51,3.43-1.51s2.57.62,3.49,1.86v-1.6h2.83v10.24c0,1.35-.11,2.35-.33,3.02s-.53,1.19-.93,1.57c-.4.38-.94.68-1.61.89-.67.21-1.52.32-2.54.32-1.93,0-3.3-.33-4.11-.99s-1.21-1.5-1.21-2.52c0-.1,0-.22.01-.37Zm2.7-6.69c0,1.21.23,2.1.7,2.66.47.56,1.05.84,1.74.84.74,0,1.36-.29,1.87-.87.51-.58.76-1.43.76-2.56s-.24-2.06-.73-2.63-1.1-.86-1.85-.86-1.32.28-1.79.84c-.47.56-.7,1.42-.7,2.57Z"/>
  </g>
  <g>
    <line class="cls-15" x1="690.42" y1="250.27" x2="690.42" y2="316.88"/>
    <polygon class="cls-21" points="680.45 253.19 690.42 235.92 700.39 253.19 680.45 253.19"/>
    <polygon class="cls-21" points="680.45 313.96 690.42 331.23 700.39 313.96 680.45 313.96"/>
  </g>
  <g>
    <line class="cls-15" x1="526.35" y1="219.77" x2="442.47" y2="290.48"/>
    <polygon class="cls-21" points="517.69 214.03 537.32 210.52 530.55 229.28 517.69 214.03"/>
    <polygon class="cls-21" points="438.28 280.98 431.5 299.73 451.13 296.22 438.28 280.98"/>
  </g>
  <g>
    <line class="cls-15" x1="558.68" y1="375.92" x2="473.25" y2="343.93"/>
    <polygon class="cls-21" points="559.44 365.56 572.12 380.95 552.45 384.23 559.44 365.56"/>
    <polygon class="cls-21" points="479.48 335.62 459.81 338.9 472.49 354.3 479.48 335.62"/>
  </g>
  <ellipse class="cls-15" cx="641.67" cy="192.74" rx="112.5" ry="47.5"/>
  <ellipse class="cls-15" cx="347.31" cy="331.23" rx="112.5" ry="47.5"/>
  <ellipse class="cls-15" cx="715.93" cy="391.97" rx="146.22" ry="60.74"/>
  <ellipse class="cls-15" cx="265.74" cy="106.25" rx="112.5" ry="47.5"/>
  <g>
    <path class="cls-15" d="m238.47,298.18c-18.61-22.49-29.27-48.65-29.27-76.56,0-25.06,8.59-48.7,23.82-69.55"/>
    <polygon class="cls-21" points="244.07 289.28 248.12 308.81 229.18 302.56 244.07 289.28"/>
  </g>
  <g>
    <path class="cls-15" d="m355.32,77.51c21.99-5.31,45.58-8.19,70.12-8.19,73.88,0,139.11,26.1,178.12,65.92"/>
    <polygon class="cls-21" points="594.1 139.96 613.13 145.93 608.8 126.47 594.1 139.96"/>
  </g>
  <g>
    <path class="cls-15" d="m168.17,145.22c-26.89,31.72-42.32,68.75-42.32,108.3,0,117.49,136.21,212.73,304.23,212.73,63.01,0,121.54-13.39,170.1-36.33"/>
    <polygon class="cls-21" points="158.86 140.81 177.8 134.59 173.72 154.11 158.86 140.81"/>
  </g>
</svg>