<?xml version="1.0" encoding="UTF-8"?>
<svg id="Ebene_1" data-name="Ebene 1" xmlns="http://www.w3.org/2000/svg" viewBox="0 0 988 525">
  <defs>
    <style>
      .cls-1, .cls-2 {
        fill: #fff;
      }

      .cls-1, .cls-2, .cls-3 {
        stroke-miterlimit: 10;
        stroke-width: 2px;
      }

      .cls-1, .cls-3 {
        stroke: #1d1d1b;
      }

      .cls-2 {
        stroke: #0333ff;
      }

      .cls-4 {
        letter-spacing: 0em;
      }

      .cls-5 {
        letter-spacing: 0em;
      }

      .cls-6 {
        letter-spacing: 0em;
      }

      .cls-3 {
        fill: none;
      }

      .cls-7 {
        font-family: Arial-BoldMT, Arial;
        font-size: 22px;
        font-weight: 700;
      }

      .cls-7, .cls-8 {
        fill: #1d1d1b;
      }

      .cls-9 {
        letter-spacing: 0em;
      }

      .cls-8, .cls-10 {
        stroke-width: 0px;
      }

      .cls-10 {
        fill: #0333ff;
      }
    </style>
  </defs>
  <g>
    <rect class="cls-1" x="144" y="43.5" width="225" height="95"/>
    <text class="cls-7" transform="translate(226.05 99.99)"><tspan class="cls-4" x="0" y="0">G</tspan><tspan class="cls-5" x="17.11" y="0">o</tspan><tspan class="cls-6" x="30.42" y="0">a</tspan><tspan class="cls-9" x="42.57" y="0">l</tspan><tspan x="48.69" y="0">s</tspan></text>
  </g>
  <g>
    <rect class="cls-2" x="622.35" y="43.5" width="225" height="95"/>
    <g>
      <path class="cls-10" d="m686.94,79.8l3.08.98c-.47,1.72-1.26,3-2.36,3.83s-2.49,1.25-4.18,1.25c-2.09,0-3.81-.71-5.16-2.14-1.35-1.43-2.02-3.38-2.02-5.86,0-2.62.68-4.66,2.03-6.11s3.13-2.17,5.34-2.17c1.93,0,3.49.57,4.69,1.71.72.67,1.25,1.64,1.61,2.9l-3.15.75c-.19-.82-.58-1.46-1.17-1.93-.59-.47-1.31-.71-2.15-.71-1.17,0-2.11.42-2.84,1.26-.73.84-1.09,2.2-1.09,4.07,0,1.99.36,3.41,1.07,4.25.72.85,1.65,1.27,2.79,1.27.85,0,1.57-.27,2.18-.8.61-.54,1.04-1.38,1.31-2.54Z"/>
      <path class="cls-10" d="m691.81,79.72c0-1,.25-1.97.74-2.91.49-.94,1.19-1.65,2.1-2.15s1.92-.74,3.04-.74c1.72,0,3.14.56,4.24,1.68,1.1,1.12,1.65,2.54,1.65,4.25s-.56,3.16-1.67,4.29c-1.11,1.14-2.52,1.7-4.21,1.7-1.05,0-2.04-.24-2.99-.71s-1.67-1.17-2.16-2.08-.74-2.03-.74-3.34Zm3.09.16c0,1.13.27,2,.81,2.6s1.2.9,1.99.9,1.45-.3,1.98-.9.8-1.48.8-2.62-.27-1.98-.8-2.58-1.19-.9-1.98-.9-1.45.3-1.99.9-.81,1.47-.81,2.6Z"/>
      <path class="cls-10" d="m716.24,85.59h-3.02v-5.82c0-1.23-.06-2.03-.19-2.39-.13-.36-.34-.64-.63-.84-.29-.2-.64-.3-1.05-.3-.52,0-.99.14-1.41.43-.41.29-.7.67-.85,1.14s-.23,1.35-.23,2.62v5.17h-3.02v-11.41h2.8v1.68c.99-1.29,2.25-1.93,3.76-1.93.67,0,1.27.12,1.83.36.55.24.97.55,1.25.92.28.37.48.79.59,1.27s.17,1.15.17,2.03v7.09Z"/>
      <path class="cls-10" d="m729.17,77.55l-2.97.54c-.1-.59-.33-1.04-.68-1.34-.36-.3-.82-.45-1.38-.45-.75,0-1.35.26-1.8.78-.45.52-.67,1.39-.67,2.6,0,1.35.23,2.31.68,2.87s1.06.84,1.83.84c.57,0,1.04-.16,1.41-.49.37-.33.62-.89.77-1.68l2.96.5c-.31,1.36-.9,2.39-1.77,3.08-.88.69-2.04,1.04-3.51,1.04-1.67,0-3-.53-3.99-1.58s-1.49-2.51-1.49-4.37.5-3.35,1.49-4.4c.99-1.05,2.34-1.57,4.04-1.57,1.39,0,2.49.3,3.31.9.82.6,1.41,1.51,1.77,2.73Z"/>
      <path class="cls-10" d="m738.14,81.96l3.01.51c-.39,1.1-1,1.94-1.83,2.52-.83.58-1.88.86-3.13.86-1.98,0-3.45-.65-4.4-1.94-.75-1.04-1.13-2.35-1.13-3.93,0-1.89.49-3.37,1.48-4.44.99-1.07,2.24-1.61,3.75-1.61,1.7,0,3.04.56,4.02,1.68.98,1.12,1.45,2.84,1.41,5.15h-7.56c.02.9.26,1.59.73,2.09.46.5,1.04.75,1.74.75.47,0,.87-.13,1.19-.39s.57-.67.73-1.25Zm.17-3.05c-.02-.87-.25-1.54-.68-1.99s-.95-.68-1.57-.68c-.66,0-1.2.24-1.63.72-.43.48-.64,1.13-.63,1.96h4.51Z"/>
      <path class="cls-10" d="m743.61,74.18h2.81v1.68c.37-.57.86-1.04,1.48-1.4.62-.36,1.31-.54,2.07-.54,1.32,0,2.45.52,3.37,1.56.92,1.04,1.38,2.48,1.38,4.34s-.46,3.38-1.4,4.44c-.93,1.06-2.06,1.58-3.38,1.58-.63,0-1.2-.12-1.71-.38-.51-.25-1.05-.68-1.62-1.29v5.75h-3.02v-15.75Zm2.99,5.51c0,1.28.25,2.23.76,2.84.51.61,1.13.92,1.86.92s1.29-.28,1.75-.84c.46-.56.7-1.48.7-2.77,0-1.2-.24-2.08-.72-2.66-.48-.58-1.07-.87-1.78-.87s-1.35.29-1.84.85c-.49.57-.73,1.41-.73,2.53Z"/>
      <path class="cls-10" d="m762.32,74.18v2.41h-2.06v4.6c0,.93.02,1.47.06,1.63.04.15.13.28.27.38.14.1.31.15.51.15.28,0,.68-.1,1.21-.29l.26,2.34c-.7.3-1.5.45-2.38.45-.54,0-1.04-.09-1.47-.27-.44-.18-.76-.42-.96-.71-.21-.29-.35-.68-.43-1.18-.06-.35-.1-1.06-.1-2.13v-4.97h-1.39v-2.41h1.39v-2.27l3.03-1.76v4.03h2.06Z"/>
      <path class="cls-10" d="m771.9,85.59v-1.71c-.41.61-.96,1.09-1.64,1.44-.68.35-1.39.53-2.14.53s-1.45-.17-2.06-.5c-.61-.34-1.05-.81-1.32-1.42-.27-.61-.41-1.45-.41-2.53v-7.22h3.02v5.24c0,1.61.06,2.59.17,2.95.11.36.31.65.61.86.29.21.67.32,1.12.32.52,0,.98-.14,1.39-.42s.69-.63.84-1.05.22-1.45.22-3.08v-4.81h3.02v11.41h-2.8Z"/>
      <path class="cls-10" d="m780.04,77.66l-2.74-.49c.31-1.1.84-1.92,1.59-2.45.75-.53,1.87-.79,3.35-.79,1.35,0,2.35.16,3.01.48.66.32,1.12.72,1.39,1.21.27.49.4,1.39.4,2.7l-.03,3.52c0,1,.05,1.74.14,2.22.1.48.28.99.54,1.53h-2.99c-.08-.2-.18-.5-.29-.89-.05-.18-.09-.3-.11-.36-.52.5-1.07.88-1.65,1.13-.59.25-1.21.38-1.88.38-1.17,0-2.1-.32-2.78-.96-.68-.64-1.01-1.44-1.01-2.42,0-.64.15-1.22.46-1.72.31-.5.74-.89,1.29-1.16s1.36-.5,2.4-.7c1.41-.26,2.39-.51,2.93-.74v-.3c0-.58-.14-.99-.43-1.24-.29-.25-.83-.37-1.62-.37-.54,0-.96.11-1.26.32s-.54.58-.73,1.11Zm4.04,2.45c-.39.13-1,.28-1.84.46-.84.18-1.38.35-1.64.53-.39.28-.59.63-.59,1.06s.16.79.47,1.1c.32.31.72.46,1.2.46.54,0,1.06-.18,1.56-.54.37-.27.61-.6.72-1,.08-.26.12-.75.12-1.47v-.6Z"/>
      <path class="cls-10" d="m789.93,85.59v-15.75h3.02v15.75h-3.02Z"/>
      <path class="cls-10" d="m679.7,100.58h1.68v-.86c0-.96.1-1.68.31-2.15.2-.47.58-.86,1.13-1.15.55-.3,1.24-.45,2.08-.45s1.7.13,2.52.39l-.41,2.11c-.48-.11-.94-.17-1.38-.17s-.75.1-.94.31c-.19.21-.28.6-.28,1.18v.81h2.26v2.37h-2.26v9.03h-3.02v-9.03h-1.68v-2.37Z"/>
      <path class="cls-10" d="m691.22,111.99h-3.02v-11.41h2.8v1.62c.48-.77.91-1.27,1.29-1.51.38-.24.82-.37,1.3-.37.69,0,1.35.19,1.99.57l-.94,2.63c-.51-.33-.98-.49-1.42-.49s-.78.12-1.07.35c-.29.23-.52.65-.69,1.26-.17.61-.25,1.88-.25,3.82v3.52Z"/>
      <path class="cls-10" d="m699.12,104.06l-2.74-.49c.31-1.1.84-1.92,1.59-2.45.75-.53,1.87-.79,3.35-.79,1.35,0,2.35.16,3.01.48.66.32,1.12.72,1.39,1.21.27.49.4,1.39.4,2.7l-.03,3.52c0,1,.05,1.74.14,2.22.1.48.28.99.54,1.53h-2.99c-.08-.2-.18-.5-.29-.89-.05-.18-.09-.3-.11-.35-.52.5-1.07.88-1.65,1.13-.59.25-1.21.38-1.88.38-1.17,0-2.1-.32-2.78-.96-.68-.64-1.01-1.44-1.01-2.42,0-.64.15-1.22.46-1.72.31-.5.74-.89,1.29-1.16.55-.27,1.36-.5,2.4-.7,1.41-.26,2.39-.51,2.93-.74v-.3c0-.58-.14-.99-.43-1.24-.29-.25-.83-.37-1.62-.37-.54,0-.96.11-1.26.32s-.54.58-.73,1.11Zm4.04,2.45c-.39.13-1,.28-1.84.46s-1.38.35-1.64.53c-.39.28-.59.63-.59,1.06s.16.79.47,1.1c.32.31.72.46,1.2.46.54,0,1.06-.18,1.56-.54.37-.27.61-.61.72-1,.08-.26.12-.75.12-1.47v-.6Z"/>
      <path class="cls-10" d="m708.91,100.58h2.78v1.56c1-1.21,2.18-1.82,3.56-1.82.73,0,1.36.15,1.9.45s.98.76,1.32,1.36c.5-.61,1.04-1.06,1.62-1.36s1.2-.45,1.86-.45c.84,0,1.55.17,2.13.51.58.34,1.01.84,1.3,1.5.21.49.31,1.27.31,2.36v7.29h-3.02v-6.52c0-1.13-.1-1.86-.31-2.19-.28-.43-.71-.64-1.29-.64-.42,0-.82.13-1.19.39-.37.26-.64.64-.8,1.13-.17.5-.25,1.28-.25,2.36v5.48h-3.02v-6.25c0-1.11-.05-1.83-.16-2.15s-.27-.56-.5-.72c-.23-.16-.53-.24-.92-.24-.46,0-.88.13-1.26.38-.37.25-.64.61-.8,1.08-.16.47-.24,1.26-.24,2.35v5.54h-3.02v-11.41Z"/>
      <path class="cls-10" d="m735.33,108.36l3.01.5c-.39,1.1-1,1.94-1.83,2.52-.83.58-1.88.87-3.13.87-1.98,0-3.45-.65-4.4-1.94-.75-1.04-1.13-2.35-1.13-3.93,0-1.89.49-3.37,1.48-4.44.99-1.07,2.24-1.61,3.75-1.61,1.7,0,3.04.56,4.02,1.68.98,1.12,1.45,2.84,1.41,5.15h-7.56c.02.9.26,1.59.73,2.09.46.5,1.04.75,1.74.75.47,0,.87-.13,1.19-.39s.57-.67.73-1.25Zm.17-3.05c-.02-.87-.25-1.54-.68-1.99s-.95-.68-1.57-.68c-.66,0-1.2.24-1.63.72-.43.48-.64,1.13-.63,1.96h4.51Z"/>
      <path class="cls-10" d="m742.82,111.99l-3.61-11.41h2.93l2.14,7.48,1.96-7.48h2.91l1.9,7.48,2.18-7.48h2.97l-3.66,11.41h-2.9l-1.97-7.34-1.93,7.34h-2.93Z"/>
      <path class="cls-10" d="m756.78,106.12c0-1,.25-1.97.74-2.91s1.19-1.65,2.1-2.15,1.92-.74,3.04-.74c1.72,0,3.14.56,4.24,1.68,1.1,1.12,1.65,2.54,1.65,4.25s-.56,3.16-1.67,4.29c-1.11,1.14-2.52,1.7-4.21,1.7-1.05,0-2.04-.24-2.99-.71s-1.67-1.17-2.16-2.08c-.49-.91-.74-2.03-.74-3.34Zm3.09.16c0,1.13.27,2,.81,2.6s1.2.9,1.99.9,1.45-.3,1.98-.9.8-1.48.8-2.62-.27-1.98-.8-2.58-1.19-.9-1.98-.9-1.45.3-1.99.9-.81,1.47-.81,2.6Z"/>
      <path class="cls-10" d="m773.78,111.99h-3.02v-11.41h2.8v1.62c.48-.77.91-1.27,1.29-1.51.38-.24.82-.37,1.3-.37.69,0,1.35.19,1.99.57l-.93,2.63c-.51-.33-.98-.49-1.42-.49s-.78.12-1.07.35c-.29.23-.53.65-.69,1.26-.17.61-.25,1.88-.25,3.82v3.52Z"/>
      <path class="cls-10" d="m779.52,111.99v-15.75h3.02v8.36l3.54-4.02h3.72l-3.9,4.17,4.18,7.24h-3.26l-2.87-5.12-1.41,1.47v3.65h-3.02Z"/>
    </g>
  </g>
  <g>
    <line class="cls-3" x1="403.51" y1="91" x2="584.49" y2="91"/>
    <polygon class="cls-8" points="405.7 98.48 392.75 91 405.7 83.52 405.7 98.48"/>
    <polygon class="cls-8" points="582.3 98.48 595.25 91 582.3 83.52 582.3 98.48"/>
  </g>
</svg>