<?xml version="1.0" encoding="UTF-8"?><svg id="a" xmlns="http://www.w3.org/2000/svg" viewBox="0 0 988 525"><line x1="266.2" y1="415.87" x2="262.74" y2="415.87" style="fill:none; stroke:#000; stroke-miterlimit:10; stroke-width:1.53px;"/><path d="M246.52,411.13c.44,.81,.66,1.91,.66,3.32,0,1.33-.2,2.43-.59,3.3-.57,1.25-1.51,1.87-2.82,1.87-1.18,0-2.05-.51-2.62-1.53-.48-.85-.72-2-.72-3.43,0-1.11,.14-2.07,.43-2.86,.54-1.49,1.51-2.23,2.92-2.23,1.27,0,2.18,.52,2.75,1.57Zm-1.24,6.52c.38-.56,.57-1.62,.57-3.16,0-1.11-.14-2.03-.41-2.74-.27-.72-.81-1.08-1.59-1.08-.73,0-1.26,.34-1.59,1.02-.33,.68-.5,1.68-.5,3.01,0,1,.11,1.8,.32,2.41,.33,.93,.89,1.39,1.68,1.39,.64,0,1.15-.28,1.53-.85Z"/><line x1="266.2" y1="341.07" x2="262.74" y2="341.07" style="fill:none; stroke:#000; stroke-miterlimit:10; stroke-width:1.53px;"/><g><path d="M234.84,336.34c.44,.81,.66,1.91,.66,3.32,0,1.33-.2,2.43-.59,3.3-.57,1.25-1.51,1.87-2.82,1.87-1.18,0-2.05-.51-2.62-1.53-.48-.85-.72-2-.72-3.43,0-1.11,.14-2.07,.43-2.86,.54-1.49,1.51-2.23,2.92-2.23,1.27,0,2.18,.52,2.75,1.57Zm-1.24,6.52c.38-.56,.57-1.62,.57-3.16,0-1.11-.14-2.03-.41-2.74-.27-.72-.81-1.08-1.59-1.08-.73,0-1.26,.34-1.59,1.02-.33,.68-.5,1.68-.5,3.01,0,1,.11,1.8,.32,2.41,.33,.93,.89,1.39,1.68,1.39,.64,0,1.15-.28,1.53-.85Z"/><path d="M237.29,343.07h1.43v1.49h-1.43v-1.49Z"/><path d="M240.94,342.36c.3-.62,.89-1.19,1.77-1.7l1.31-.76c.59-.34,1-.63,1.24-.88,.37-.38,.56-.81,.56-1.3,0-.57-.17-1.02-.51-1.36-.34-.34-.8-.5-1.37-.5-.84,0-1.43,.32-1.75,.96-.17,.34-.27,.82-.29,1.43h-1.25c.01-.85,.17-1.55,.47-2.08,.53-.95,1.47-1.42,2.82-1.42,1.12,0,1.94,.3,2.46,.91,.52,.61,.78,1.28,.78,2.02,0,.78-.28,1.45-.83,2.01-.32,.32-.89,.72-1.72,1.18l-.94,.52c-.45,.25-.8,.48-1.05,.7-.46,.4-.74,.84-.86,1.32h5.35v1.16h-6.72c.05-.84,.22-1.58,.52-2.2Z"/></g><line x1="266.2" y1="266.27" x2="262.74" y2="266.27" style="fill:none; stroke:#000; stroke-miterlimit:10; stroke-width:1.53px;"/><g><path d="M234.84,261.54c.44,.81,.66,1.91,.66,3.32,0,1.33-.2,2.43-.59,3.3-.57,1.25-1.51,1.87-2.82,1.87-1.18,0-2.05-.51-2.62-1.53-.48-.85-.72-2-.72-3.43,0-1.11,.14-2.07,.43-2.86,.54-1.49,1.51-2.23,2.92-2.23,1.27,0,2.18,.52,2.75,1.57Zm-1.24,6.52c.38-.56,.57-1.62,.57-3.16,0-1.11-.14-2.03-.41-2.74-.27-.72-.81-1.08-1.59-1.08-.73,0-1.26,.34-1.59,1.02-.33,.68-.5,1.68-.5,3.01,0,1,.11,1.8,.32,2.41,.33,.93,.89,1.39,1.68,1.39,.64,0,1.15-.28,1.53-.85Z"/><path d="M237.29,268.27h1.43v1.49h-1.43v-1.49Z"/><path d="M244.63,269.76v-2.39h-4.29v-1.2l4.48-6.22h1.04v6.35h1.44v1.07h-1.44v2.39h-1.23Zm-.02-3.47v-4.45l-3.14,4.45h3.14Z"/></g><line x1="266.2" y1="191.48" x2="262.74" y2="191.48" style="fill:none; stroke:#000; stroke-miterlimit:10; stroke-width:1.53px;"/><g><path d="M234.84,186.74c.44,.81,.66,1.91,.66,3.32,0,1.33-.2,2.43-.59,3.3-.57,1.25-1.51,1.87-2.82,1.87-1.18,0-2.05-.51-2.62-1.53-.48-.85-.72-2-.72-3.43,0-1.11,.14-2.07,.43-2.86,.54-1.49,1.51-2.23,2.92-2.23,1.27,0,2.18,.52,2.75,1.57Zm-1.24,6.52c.38-.56,.57-1.62,.57-3.16,0-1.11-.14-2.03-.41-2.74-.27-.72-.81-1.08-1.59-1.08-.73,0-1.26,.34-1.59,1.02-.33,.68-.5,1.68-.5,3.01,0,1,.11,1.8,.32,2.41,.33,.93,.89,1.39,1.68,1.39,.64,0,1.15-.28,1.53-.85Z"/><path d="M237.29,193.48h1.43v1.49h-1.43v-1.49Z"/><path d="M246.36,185.99c.43,.57,.65,1.15,.65,1.75h-1.22c-.07-.39-.19-.69-.35-.91-.3-.41-.75-.62-1.35-.62-.69,0-1.24,.32-1.64,.95s-.63,1.55-.68,2.73c.28-.41,.64-.72,1.07-.93,.39-.18,.83-.27,1.31-.27,.82,0,1.54,.26,2.15,.79,.61,.52,.92,1.31,.92,2.34,0,.89-.29,1.68-.87,2.36-.58,.69-1.4,1.03-2.47,1.03-.92,0-1.71-.35-2.37-1.04-.67-.7-1-1.87-1-3.51,0-1.22,.15-2.25,.44-3.1,.57-1.62,1.61-2.43,3.12-2.43,1.09,0,1.86,.28,2.29,.85Zm-.92,7.49c.32-.44,.48-.95,.48-1.54,0-.5-.14-.98-.43-1.43-.29-.45-.81-.68-1.57-.68-.53,0-.99,.18-1.39,.53-.4,.35-.6,.88-.6,1.59,0,.62,.18,1.14,.54,1.56,.36,.42,.87,.63,1.51,.63s1.13-.22,1.45-.65Z"/></g><line x1="266.2" y1="116.68" x2="262.74" y2="116.68" style="fill:none; stroke:#000; stroke-miterlimit:10; stroke-width:1.53px;"/><g><path d="M234.84,111.95c.44,.81,.66,1.91,.66,3.32,0,1.33-.2,2.43-.59,3.3-.57,1.25-1.51,1.87-2.82,1.87-1.18,0-2.05-.51-2.62-1.53-.48-.85-.72-2-.72-3.43,0-1.11,.14-2.07,.43-2.86,.54-1.49,1.51-2.23,2.92-2.23,1.27,0,2.18,.52,2.75,1.57Zm-1.24,6.52c.38-.56,.57-1.62,.57-3.16,0-1.11-.14-2.03-.41-2.74-.27-.72-.81-1.08-1.59-1.08-.73,0-1.26,.34-1.59,1.02-.33,.68-.5,1.68-.5,3.01,0,1,.11,1.8,.32,2.41,.33,.93,.89,1.39,1.68,1.39,.64,0,1.15-.28,1.53-.85Z"/><path d="M237.29,118.68h1.43v1.49h-1.43v-1.49Z"/><path d="M241.31,114.44c-.36-.36-.54-.84-.54-1.42,0-.73,.26-1.36,.79-1.88,.53-.52,1.28-.79,2.25-.79s1.67,.25,2.21,.74c.53,.49,.8,1.07,.8,1.73,0,.61-.16,1.11-.46,1.48-.17,.21-.44,.42-.81,.63,.41,.19,.73,.4,.96,.64,.43,.46,.65,1.05,.65,1.78,0,.86-.29,1.59-.87,2.19-.58,.6-1.4,.9-2.45,.9-.95,0-1.76-.26-2.42-.78-.66-.52-.99-1.27-.99-2.25,0-.58,.14-1.08,.42-1.5,.28-.42,.7-.74,1.26-.97-.34-.15-.61-.32-.8-.51Zm3.97,4.43c.38-.31,.56-.77,.56-1.38s-.19-1.11-.58-1.44-.88-.49-1.49-.49-1.07,.17-1.44,.5c-.37,.33-.56,.8-.56,1.39,0,.51,.17,.95,.51,1.32,.34,.37,.87,.56,1.58,.56,.57,0,1.04-.15,1.42-.46Zm-.23-4.84c.3-.3,.46-.67,.46-1.09,0-.37-.15-.7-.44-1.01-.29-.31-.73-.46-1.33-.46s-1.02,.15-1.28,.46c-.26,.31-.4,.67-.4,1.08,0,.46,.17,.82,.51,1.08,.34,.26,.74,.39,1.21,.39,.54,0,.96-.15,1.27-.46Z"/></g><line x1="266.2" y1="41.88" x2="262.74" y2="41.88" style="fill:none; stroke:#000; stroke-miterlimit:10; stroke-width:1.53px;"/><path d="M241.32,38.44v-.94c.89-.09,1.51-.23,1.86-.43,.35-.2,.61-.68,.79-1.44h.97v9.75h-1.31v-6.93h-2.3Z"/><line x1="266.2" y1="415.87" x2="266.2" y2="419.33" style="fill:none; stroke:#000; stroke-miterlimit:10; stroke-width:1.53px;"/><path d="M268.6,436.06c.44,.81,.66,1.91,.66,3.32,0,1.33-.2,2.43-.59,3.3-.57,1.25-1.51,1.87-2.82,1.87-1.18,0-2.05-.51-2.62-1.53-.48-.85-.72-2-.72-3.43,0-1.11,.14-2.07,.43-2.86,.54-1.49,1.51-2.23,2.92-2.23,1.27,0,2.18,.52,2.75,1.57Zm-1.24,6.52c.38-.56,.57-1.62,.57-3.16,0-1.11-.14-2.03-.41-2.74-.27-.72-.81-1.08-1.59-1.08-.73,0-1.26,.34-1.59,1.02-.33,.68-.5,1.68-.5,3.01,0,1,.11,1.8,.32,2.41,.33,.93,.89,1.39,1.68,1.39,.64,0,1.15-.28,1.53-.85Z"/><line x1="375.64" y1="415.87" x2="375.64" y2="419.33" style="fill:none; stroke:#000; stroke-miterlimit:10; stroke-width:1.53px;"/><path d="M372.46,442.09c.3-.62,.89-1.19,1.77-1.7l1.31-.76c.59-.34,1-.63,1.24-.88,.37-.38,.56-.81,.56-1.3,0-.57-.17-1.02-.51-1.36-.34-.34-.8-.5-1.37-.5-.84,0-1.43,.32-1.75,.96-.17,.34-.27,.82-.29,1.43h-1.25c.01-.85,.17-1.55,.47-2.08,.53-.95,1.47-1.42,2.82-1.42,1.12,0,1.94,.3,2.46,.91,.52,.61,.78,1.28,.78,2.02,0,.78-.28,1.45-.83,2.01-.32,.32-.89,.72-1.72,1.18l-.94,.52c-.45,.25-.8,.48-1.05,.7-.46,.4-.74,.84-.86,1.32h5.35v1.16h-6.72c.05-.84,.22-1.58,.52-2.2Z"/><line x1="484.98" y1="415.87" x2="484.98" y2="419.33" style="fill:none; stroke:#000; stroke-miterlimit:10; stroke-width:1.53px;"/><path d="M485.49,444.29v-2.39h-4.29v-1.2l4.48-6.22h1.04v6.35h1.44v1.07h-1.44v2.39h-1.23Zm-.02-3.47v-4.45l-3.14,4.45h3.14Z"/><line x1="594.41" y1="415.87" x2="594.41" y2="419.33" style="fill:none; stroke:#000; stroke-miterlimit:10; stroke-width:1.53px;"/><path d="M596.65,435.31c.43,.57,.65,1.15,.65,1.75h-1.22c-.07-.39-.19-.69-.35-.91-.3-.41-.75-.62-1.35-.62-.69,0-1.24,.32-1.64,.95s-.63,1.55-.68,2.73c.28-.41,.64-.72,1.07-.93,.39-.18,.83-.27,1.31-.27,.82,0,1.54,.26,2.15,.79,.61,.52,.92,1.31,.92,2.34,0,.89-.29,1.68-.87,2.36-.58,.69-1.4,1.03-2.47,1.03-.92,0-1.71-.35-2.37-1.04-.67-.7-1-1.87-1-3.51,0-1.22,.15-2.25,.44-3.1,.57-1.62,1.61-2.43,3.12-2.43,1.09,0,1.86,.28,2.29,.85Zm-.92,7.49c.32-.44,.48-.95,.48-1.54,0-.5-.14-.98-.43-1.43-.29-.45-.81-.68-1.57-.68-.53,0-.99,.18-1.39,.53-.4,.35-.6,.88-.6,1.59,0,.62,.18,1.14,.54,1.56,.36,.42,.87,.63,1.51,.63s1.13-.22,1.45-.65Z"/><line x1="703.75" y1="415.87" x2="703.75" y2="419.33" style="fill:none; stroke:#000; stroke-miterlimit:10; stroke-width:1.53px;"/><path d="M700.94,438.56c-.36-.36-.54-.84-.54-1.42,0-.73,.26-1.36,.79-1.88,.53-.52,1.28-.79,2.25-.79s1.67,.25,2.21,.74c.53,.49,.8,1.07,.8,1.73,0,.61-.16,1.11-.46,1.48-.17,.21-.44,.42-.81,.63,.41,.19,.73,.4,.96,.64,.43,.46,.65,1.05,.65,1.78,0,.86-.29,1.59-.87,2.19-.58,.6-1.4,.9-2.45,.9-.95,0-1.76-.26-2.42-.78-.66-.52-.99-1.27-.99-2.25,0-.58,.14-1.08,.42-1.5,.28-.42,.7-.74,1.26-.97-.34-.15-.61-.32-.8-.51Zm3.97,4.43c.38-.31,.56-.77,.56-1.38s-.19-1.11-.58-1.44-.88-.49-1.49-.49-1.07,.17-1.44,.5c-.37,.33-.56,.8-.56,1.39,0,.51,.17,.95,.51,1.32,.34,.37,.87,.56,1.58,.56,.57,0,1.04-.15,1.42-.46Zm-.23-4.84c.3-.3,.46-.67,.46-1.09,0-.37-.15-.7-.44-1.01-.29-.31-.73-.46-1.33-.46s-1.02,.15-1.28,.46c-.26,.31-.4,.67-.4,1.08,0,.46,.17,.82,.51,1.08,.34,.26,.74,.39,1.21,.39,.54,0,.96-.15,1.27-.46Z"/><line x1="813.18" y1="415.87" x2="813.18" y2="419.33" style="fill:none; stroke:#000; stroke-miterlimit:10; stroke-width:1.53px;"/><g><path d="M800.24,437.36v-.94c.89-.09,1.51-.23,1.86-.43,.35-.2,.61-.68,.79-1.44h.97v9.75h-1.31v-6.93h-2.3Z"/><path d="M813.22,436.06c.44,.81,.66,1.91,.66,3.32,0,1.33-.2,2.43-.59,3.3-.57,1.25-1.51,1.87-2.82,1.87-1.18,0-2.05-.51-2.62-1.53-.48-.85-.72-2-.72-3.43,0-1.11,.14-2.07,.43-2.86,.54-1.49,1.51-2.23,2.92-2.23,1.27,0,2.18,.52,2.75,1.57Zm-1.24,6.52c.38-.56,.57-1.62,.57-3.16,0-1.11-.14-2.03-.41-2.74-.27-.72-.81-1.08-1.59-1.08-.73,0-1.26,.34-1.59,1.02-.33,.68-.5,1.68-.5,3.01,0,1,.11,1.8,.32,2.41,.33,.93,.89,1.39,1.68,1.39,.64,0,1.15-.28,1.53-.85Z"/></g><path d="M266.2,41.88V415.87m0,0H813.18" style="fill:none; stroke:#000; stroke-miterlimit:10; stroke-width:1.53px;"/><g><path d="M174.41,362.41v-5.78c0-1.14,.32-2.06,.97-2.77,.65-.7,1.56-1.05,2.73-1.05,1.01,0,1.88,.31,2.63,.94,.75,.63,1.12,1.59,1.12,2.88v4.03h5.46v1.75h-12.91Zm1.78-6.78c-.18,.38-.27,.91-.27,1.58v3.46h4.47v-3.46c0-.78-.17-1.41-.5-1.9-.33-.49-.92-.73-1.77-.73-.95,0-1.59,.35-1.93,1.05Z"/><path d="M178.85,343.96c.81-.83,2-1.25,3.57-1.25s2.77,.37,3.76,1.1c.99,.73,1.48,1.87,1.48,3.41,0,1.29-.44,2.31-1.31,3.06-.88,.76-2.05,1.13-3.53,1.13-1.58,0-2.84-.4-3.78-1.2-.94-.8-1.41-1.87-1.41-3.21,0-1.2,.4-2.22,1.21-3.05Zm6.26,.98c-.79-.39-1.67-.58-2.65-.58-.88,0-1.59,.14-2.14,.42-.87,.44-1.3,1.2-1.3,2.28,0,.96,.37,1.65,1.11,2.09s1.63,.65,2.67,.65,1.83-.22,2.5-.65,1-1.12,1-2.07c0-1.04-.4-1.75-1.19-2.13Z"/><path d="M184.37,339.83c.53-.05,.93-.18,1.21-.4,.51-.41,.76-1.11,.76-2.12,0-.6-.13-1.12-.38-1.58-.26-.45-.65-.68-1.18-.68-.4,0-.71,.18-.92,.54-.13,.23-.28,.69-.45,1.38l-.32,1.28c-.2,.82-.42,1.42-.67,1.8-.43,.69-1.02,1.04-1.78,1.04-.89,0-1.61-.33-2.16-.98-.55-.65-.83-1.52-.83-2.62,0-1.44,.42-2.47,1.25-3.11,.53-.4,1.1-.59,1.71-.58v1.49c-.36,.03-.68,.16-.97,.39-.41,.37-.62,1.02-.62,1.93,0,.61,.11,1.08,.34,1.39s.53,.47,.9,.47c.41,0,.74-.21,.98-.62,.15-.24,.27-.59,.39-1.06l.25-1.07c.28-1.16,.54-1.93,.8-2.33,.4-.62,1.04-.92,1.91-.92s1.56,.32,2.17,.97c.61,.64,.91,1.62,.91,2.94,0,1.42-.32,2.42-.95,3.01-.63,.59-1.42,.91-2.36,.95v-1.52Z"/><path d="M175.28,331.45v-1.6h2.63v-1.5h1.29v1.5h6.14c.33,0,.55-.11,.66-.33,.06-.12,.1-.33,.1-.62,0-.08,0-.16,0-.25s-.01-.19-.03-.31h1.26c.05,.18,.09,.37,.11,.57s.04,.41,.04,.64c0,.74-.19,1.24-.57,1.5-.38,.26-.87,.4-1.47,.4h-6.23v1.27h-1.29v-1.27h-2.63Z"/><path d="M178.17,320.95c.31-.62,.72-1.1,1.22-1.42,.47-.31,1.03-.52,1.66-.63,.43-.09,1.12-.14,2.07-.14v6.85c.96-.03,1.73-.25,2.3-.67,.58-.42,.87-1.07,.87-1.94,0-.82-.27-1.47-.82-1.96-.32-.27-.69-.47-1.1-.58v-1.56c.35,.04,.73,.18,1.16,.41s.77,.49,1.04,.77c.47,.48,.79,1.07,.95,1.77,.09,.38,.14,.81,.14,1.28,0,1.16-.43,2.15-1.28,2.96-.85,.81-2.05,1.21-3.58,1.21s-2.74-.41-3.68-1.22c-.94-.81-1.42-1.88-1.42-3.2,0-.66,.16-1.31,.47-1.93Zm3.7-.57c-.69,.06-1.23,.21-1.64,.44-.76,.43-1.14,1.15-1.14,2.15,0,.72,.26,1.32,.79,1.81,.52,.49,1.19,.75,2,.78v-5.19Z"/><path d="M177.91,316.71v-1.5h1.63c-.32-.12-.7-.42-1.16-.91-.45-.48-.68-1.03-.68-1.66,0-.03,0-.08,0-.15s.02-.19,.04-.36h1.67c-.02,.09-.03,.18-.04,.26s0,.17,0,.26c0,.8,.26,1.41,.77,1.84,.51,.43,1.1,.64,1.77,.64h5.41v1.58h-9.41Z"/><path d="M174.41,310.76v-1.61h1.79v1.61h-1.79Zm3.54,0v-1.61h9.37v1.61h-9.37Z"/><path d="M178.85,299.94c.81-.83,2-1.25,3.57-1.25s2.77,.37,3.76,1.1c.99,.73,1.48,1.87,1.48,3.41,0,1.29-.44,2.31-1.31,3.06-.88,.76-2.05,1.13-3.53,1.13-1.58,0-2.84-.4-3.78-1.2-.94-.8-1.41-1.87-1.41-3.21,0-1.2,.4-2.22,1.21-3.05Zm6.26,.98c-.79-.39-1.67-.58-2.65-.58-.88,0-1.59,.14-2.14,.42-.87,.44-1.3,1.2-1.3,2.28,0,.96,.37,1.65,1.11,2.09s1.63,.65,2.67,.65,1.83-.22,2.5-.65,1-1.12,1-2.07c0-1.04-.4-1.75-1.19-2.13Z"/><path d="M177.91,296.71v-1.5h1.63c-.32-.12-.7-.42-1.16-.91-.45-.48-.68-1.03-.68-1.66,0-.03,0-.08,0-.15s.02-.19,.04-.36h1.67c-.02,.09-.03,.18-.04,.26s0,.17,0,.26c0,.8,.26,1.41,.77,1.84,.51,.43,1.1,.64,1.77,.64h5.41v1.58h-9.41Z"/><path d="M177.95,285.89v-1.55h1.25c-.43-.32-.76-.66-.99-1.04-.35-.53-.53-1.16-.53-1.89,0-1.07,.41-1.98,1.23-2.72,.82-.75,1.99-1.12,3.5-1.12,2.05,0,3.52,.54,4.39,1.61,.56,.68,.83,1.48,.83,2.38,0,.71-.16,1.31-.47,1.79-.18,.28-.48,.6-.91,.94h4.81v1.58h-13.12Zm7.38-5.95c-.62-.49-1.54-.74-2.77-.74-.75,0-1.39,.11-1.93,.33-1.04,.41-1.56,1.16-1.56,2.26s.55,1.85,1.64,2.26c.59,.22,1.33,.33,2.23,.33,.73,0,1.34-.11,1.85-.33,.97-.41,1.46-1.16,1.46-2.26,0-.74-.31-1.36-.93-1.85Z"/><path d="M177.91,275.7v-1.5h1.63c-.32-.12-.7-.42-1.16-.91-.45-.48-.68-1.03-.68-1.66,0-.03,0-.08,0-.15s.02-.19,.04-.36h1.67c-.02,.09-.03,.18-.04,.26s0,.17,0,.26c0,.8,.26,1.41,.77,1.84,.51,.43,1.1,.64,1.77,.64h5.41v1.58h-9.41Z"/><path d="M178.85,262.93c.81-.83,2-1.25,3.57-1.25s2.77,.37,3.76,1.1c.99,.73,1.48,1.87,1.48,3.41,0,1.29-.44,2.31-1.31,3.06-.88,.76-2.05,1.13-3.53,1.13-1.58,0-2.84-.4-3.78-1.2-.94-.8-1.41-1.87-1.41-3.21,0-1.2,.4-2.22,1.21-3.05Zm6.26,.98c-.79-.39-1.67-.58-2.65-.58-.88,0-1.59,.14-2.14,.42-.87,.44-1.3,1.2-1.3,2.28,0,.96,.37,1.65,1.11,2.09s1.63,.65,2.67,.65,1.83-.22,2.5-.65,1-1.12,1-2.07c0-1.04-.4-1.75-1.19-2.13Z"/><path d="M174.37,259.88v-1.54h4.68c-.45-.35-.8-.76-1.03-1.24-.24-.48-.36-1.01-.36-1.57,0-1.18,.4-2.13,1.21-2.86,.81-.73,1.99-1.1,3.56-1.1,1.49,0,2.72,.36,3.71,1.09,.98,.72,1.48,1.73,1.48,3.01,0,.72-.17,1.32-.52,1.82-.21,.29-.53,.61-.98,.94h1.2v1.46h-12.96Zm10.84-6.05c-.68-.43-1.58-.64-2.69-.64-.99,0-1.81,.21-2.46,.64-.65,.43-.98,1.05-.98,1.88,0,.72,.27,1.36,.8,1.9,.53,.54,1.41,.82,2.64,.82,.88,0,1.6-.11,2.15-.33,1.04-.42,1.56-1.2,1.56-2.34,0-.86-.34-1.5-1.02-1.93Z"/><path d="M181.63,244.69c-.05-.36-.2-.61-.46-.73-.14-.07-.34-.11-.61-.11-.54,0-.93,.19-1.18,.57-.24,.38-.37,.93-.37,1.64,0,.82,.22,1.41,.67,1.75,.25,.19,.62,.32,1.1,.38v1.48c-1.16-.03-1.97-.41-2.43-1.13-.46-.72-.68-1.56-.68-2.52,0-1.11,.21-2,.63-2.7,.42-.68,1.08-1.03,1.97-1.03h5.42c.16,0,.3-.03,.4-.1s.15-.21,.15-.43c0-.07,0-.15-.01-.24,0-.09-.02-.18-.04-.28h1.17c.07,.25,.11,.43,.13,.56s.03,.3,.03,.53c0,.54-.19,.94-.58,1.19-.21,.13-.5,.22-.87,.27,.42,.32,.79,.79,1.1,1.39s.47,1.27,.47,2c0,.87-.26,1.59-.79,2.14-.53,.55-1.19,.83-1.99,.83-.87,0-1.55-.27-2.03-.82-.48-.54-.78-1.26-.89-2.14l-.32-2.52Zm4.27,3.33c.26-.33,.39-.73,.39-1.19,0-.56-.13-1.1-.39-1.62-.43-.88-1.13-1.32-2.1-1.32h-1.27c.12,.19,.23,.44,.31,.75,.08,.3,.14,.6,.18,.89l.12,.96c.08,.57,.2,1,.36,1.29,.27,.49,.71,.73,1.32,.73,.46,0,.82-.17,1.08-.5Z"/><path d="M174.37,239.85v-1.54h4.68c-.45-.35-.8-.76-1.03-1.24-.24-.48-.36-1.01-.36-1.57,0-1.18,.4-2.13,1.21-2.86,.81-.73,1.99-1.1,3.56-1.1,1.49,0,2.72,.36,3.71,1.09,.98,.72,1.48,1.73,1.48,3.01,0,.72-.17,1.32-.52,1.82-.21,.29-.53,.61-.98,.94h1.2v1.46h-12.96Zm10.84-6.05c-.68-.43-1.58-.64-2.69-.64-.99,0-1.81,.21-2.46,.64-.65,.43-.98,1.05-.98,1.88,0,.72,.27,1.36,.8,1.9,.53,.54,1.41,.82,2.64,.82,.88,0,1.6-.11,2.15-.33,1.04-.42,1.56-1.2,1.56-2.34,0-.86-.34-1.5-1.02-1.93Z"/><path d="M174.41,229.71v-1.61h1.79v1.61h-1.79Zm3.54,0v-1.61h9.37v1.61h-9.37Z"/><path d="M174.41,225.67v-1.58h12.91v1.58h-12.91Z"/><path d="M174.41,221.71v-1.61h1.79v1.61h-1.79Zm3.54,0v-1.61h9.37v1.61h-9.37Z"/><path d="M175.28,217.4v-1.6h2.63v-1.5h1.29v1.5h6.14c.33,0,.55-.11,.66-.33,.06-.12,.1-.33,.1-.62,0-.08,0-.16,0-.25s-.01-.19-.03-.31h1.26c.05,.18,.09,.37,.11,.57s.04,.41,.04,.64c0,.74-.19,1.24-.57,1.5-.38,.26-.87,.4-1.47,.4h-6.23v1.27h-1.29v-1.27h-2.63Z"/><path d="M177.91,206.83v-1.75c.6,.22,1.98,.72,4.13,1.49,1.62,.57,2.94,1.05,3.96,1.44,2.4,.91,3.86,1.56,4.39,1.93,.53,.38,.79,1.02,.79,1.93,0,.22,0,.39-.03,.51s-.05,.27-.1,.44h-1.44c.08-.27,.12-.47,.14-.6,.02-.12,.03-.23,.03-.32,0-.29-.05-.51-.14-.64-.1-.14-.21-.25-.36-.35-.05-.03-.29-.13-.72-.32-.43-.18-.75-.31-.96-.4l-9.69,3.48v-1.79l7.67-2.52-7.67-2.54Z"/><path d="M178.85,191.89c.81-.83,2-1.25,3.57-1.25s2.77,.37,3.76,1.1c.99,.73,1.48,1.87,1.48,3.41,0,1.29-.44,2.31-1.31,3.06-.88,.76-2.05,1.13-3.53,1.13-1.58,0-2.84-.4-3.78-1.2-.94-.8-1.41-1.87-1.41-3.21,0-1.2,.4-2.22,1.21-3.05Zm6.26,.98c-.79-.39-1.67-.58-2.65-.58-.88,0-1.59,.14-2.14,.42-.87,.44-1.3,1.2-1.3,2.28,0,.96,.37,1.65,1.11,2.09s1.63,.65,2.67,.65,1.83-.22,2.5-.65,1-1.12,1-2.07c0-1.04-.4-1.75-1.19-2.13Z"/><path d="M175.04,187.96c-.54-.37-.81-1.08-.81-2.14,0-.1,0-.2,0-.31s.01-.23,.03-.36h1.44c-.01,.17-.02,.29-.02,.36,0,.07,0,.14,0,.21,0,.49,.12,.78,.37,.87s.88,.14,1.9,.14v-1.58h1.25v1.58h8.12v1.56h-8.12v1.31h-1.25v-1.31h-1.48c-.66-.02-1.14-.14-1.44-.34Z"/><path d="M174.37,178.7v-1.58h4.82c-.47-.38-.81-.71-1-1.01-.33-.51-.5-1.15-.5-1.91,0-1.37,.48-2.29,1.43-2.78,.52-.26,1.25-.4,2.17-.4h6.04v1.63h-5.93c-.69,0-1.2,.09-1.52,.26-.52,.29-.77,.83-.77,1.62,0,.66,.23,1.25,.68,1.78s1.3,.8,2.56,.8h4.99v1.58h-12.96Z"/><path d="M177.91,162.8v-1.75c.6,.22,1.98,.72,4.13,1.49,1.62,.57,2.94,1.05,3.96,1.44,2.4,.91,3.86,1.56,4.39,1.93,.53,.38,.79,1.02,.79,1.93,0,.22,0,.39-.03,.51s-.05,.27-.1,.44h-1.44c.08-.27,.12-.47,.14-.6,.02-.12,.03-.23,.03-.32,0-.29-.05-.51-.14-.64-.1-.14-.21-.25-.36-.35-.05-.03-.29-.13-.72-.32-.43-.18-.75-.31-.96-.4l-9.69,3.48v-1.79l7.67-2.52-7.67-2.54Z"/><path d="M177.95,159.82v-1.55h1.25c-.43-.32-.76-.66-.99-1.04-.35-.53-.53-1.16-.53-1.89,0-1.07,.41-1.98,1.23-2.72,.82-.75,1.99-1.12,3.5-1.12,2.05,0,3.52,.54,4.39,1.61,.56,.68,.83,1.48,.83,2.38,0,.71-.16,1.31-.47,1.79-.18,.28-.48,.6-.91,.94h4.81v1.58h-13.12Zm7.38-5.95c-.62-.49-1.54-.74-2.77-.74-.75,0-1.39,.11-1.93,.33-1.04,.41-1.56,1.16-1.56,2.26s.55,1.85,1.64,2.26c.59,.22,1.33,.33,2.23,.33,.73,0,1.34-.11,1.85-.33,.97-.41,1.46-1.16,1.46-2.26,0-.74-.31-1.36-.93-1.85Z"/><path d="M178.85,142.86c.81-.83,2-1.25,3.57-1.25s2.77,.37,3.76,1.1c.99,.73,1.48,1.87,1.48,3.41,0,1.29-.44,2.31-1.31,3.06-.88,.76-2.05,1.13-3.53,1.13-1.58,0-2.84-.4-3.78-1.2-.94-.8-1.41-1.87-1.41-3.21,0-1.2,.4-2.22,1.21-3.05Zm6.26,.98c-.79-.39-1.67-.58-2.65-.58-.88,0-1.59,.14-2.14,.42-.87,.44-1.3,1.2-1.3,2.28,0,.96,.37,1.65,1.11,2.09s1.63,.65,2.67,.65,1.83-.22,2.5-.65,1-1.12,1-2.07c0-1.04-.4-1.75-1.19-2.13Z"/><path d="M175.28,139.35v-1.6h2.63v-1.5h1.29v1.5h6.14c.33,0,.55-.11,.66-.33,.06-.12,.1-.33,.1-.62,0-.08,0-.16,0-.25s-.01-.19-.03-.31h1.26c.05,.18,.09,.37,.11,.57s.04,.41,.04,.64c0,.74-.19,1.24-.57,1.5-.38,.26-.87,.4-1.47,.4h-6.23v1.27h-1.29v-1.27h-2.63Z"/><path d="M174.37,134.67v-1.58h4.82c-.47-.38-.81-.71-1-1.01-.33-.51-.5-1.15-.5-1.91,0-1.37,.48-2.29,1.43-2.78,.52-.26,1.25-.4,2.17-.4h6.04v1.63h-5.93c-.69,0-1.2,.09-1.52,.26-.52,.29-.77,.83-.77,1.62,0,.66,.23,1.25,.68,1.78s1.3,.8,2.56,.8h4.99v1.58h-12.96Z"/><path d="M178.17,118.84c.31-.62,.72-1.1,1.22-1.42,.47-.31,1.03-.52,1.66-.63,.43-.09,1.12-.14,2.07-.14v6.85c.96-.03,1.73-.25,2.3-.67,.58-.42,.87-1.07,.87-1.94,0-.82-.27-1.47-.82-1.96-.32-.27-.69-.47-1.1-.58v-1.56c.35,.04,.73,.18,1.16,.41s.77,.49,1.04,.77c.47,.48,.79,1.07,.95,1.77,.09,.38,.14,.81,.14,1.28,0,1.16-.43,2.15-1.28,2.96-.85,.81-2.05,1.21-3.58,1.21s-2.74-.41-3.68-1.22c-.94-.81-1.42-1.88-1.42-3.2,0-.66,.16-1.31,.47-1.93Zm3.7-.57c-.69,.06-1.23,.21-1.64,.44-.76,.43-1.14,1.15-1.14,2.15,0,.72,.26,1.32,.79,1.81,.52,.49,1.19,.75,2,.78v-5.19Z"/><path d="M184.37,113.7c.53-.05,.93-.18,1.21-.4,.51-.41,.76-1.11,.76-2.12,0-.6-.13-1.12-.38-1.58-.26-.45-.65-.68-1.18-.68-.4,0-.71,.18-.92,.54-.13,.23-.28,.69-.45,1.38l-.32,1.28c-.2,.82-.42,1.42-.67,1.8-.43,.69-1.02,1.04-1.78,1.04-.89,0-1.61-.33-2.16-.98-.55-.65-.83-1.52-.83-2.62,0-1.44,.42-2.47,1.25-3.11,.53-.4,1.1-.59,1.71-.58v1.49c-.36,.03-.68,.16-.97,.39-.41,.37-.62,1.02-.62,1.93,0,.61,.11,1.08,.34,1.39s.53,.47,.9,.47c.41,0,.74-.21,.98-.62,.15-.24,.27-.59,.39-1.06l.25-1.07c.28-1.16,.54-1.93,.8-2.33,.4-.62,1.04-.92,1.91-.92s1.56,.32,2.17,.97c.61,.64,.91,1.62,.91,2.94,0,1.42-.32,2.42-.95,3.01-.63,.59-1.42,.91-2.36,.95v-1.52Z"/><path d="M174.41,105.64v-1.61h1.79v1.61h-1.79Zm3.54,0v-1.61h9.37v1.61h-9.37Z"/><path d="M184.37,100.71c.53-.05,.93-.18,1.21-.4,.51-.41,.76-1.11,.76-2.12,0-.6-.13-1.12-.38-1.58-.26-.45-.65-.68-1.18-.68-.4,0-.71,.18-.92,.54-.13,.23-.28,.69-.45,1.38l-.32,1.28c-.2,.82-.42,1.42-.67,1.8-.43,.69-1.02,1.04-1.78,1.04-.89,0-1.61-.33-2.16-.98-.55-.65-.83-1.52-.83-2.62,0-1.44,.42-2.47,1.25-3.11,.53-.4,1.1-.59,1.71-.58v1.49c-.36,.03-.68,.16-.97,.39-.41,.37-.62,1.02-.62,1.93,0,.61,.11,1.08,.34,1.39s.53,.47,.9,.47c.41,0,.74-.21,.98-.62,.15-.24,.27-.59,.39-1.06l.25-1.07c.28-1.16,.54-1.93,.8-2.33,.4-.62,1.04-.92,1.91-.92s1.56,.32,2.17,.97c.61,.64,.91,1.62,.91,2.94,0,1.42-.32,2.42-.95,3.01-.63,.59-1.42,.91-2.36,.95v-1.52Z"/></g><g><path d="M445.5,470.08h2.06l6.44,10.43v-10.43h1.67v12.91h-1.96l-6.53-10.42v10.42h-1.67v-12.91Z"/><path d="M459.87,473.58v6.25c0,.48,.07,.87,.22,1.18,.27,.56,.78,.84,1.53,.84,1.07,0,1.8-.49,2.19-1.48,.21-.53,.32-1.25,.32-2.17v-4.62h1.58v9.41h-1.49l.02-1.39c-.2,.36-.45,.66-.75,.91-.59,.49-1.31,.74-2.16,.74-1.32,0-2.21-.45-2.69-1.34-.26-.48-.39-1.12-.39-1.92v-6.4h1.62Z"/><path d="M468.3,473.58h1.56v1.34c.38-.46,.71-.8,1.02-1.01,.52-.36,1.11-.54,1.78-.54,.75,0,1.35,.18,1.81,.55,.26,.21,.49,.52,.7,.93,.35-.5,.76-.88,1.24-1.12s1.01-.37,1.6-.37c1.27,0,2.13,.46,2.58,1.37,.25,.49,.37,1.15,.37,1.99v6.27h-1.64v-6.54c0-.63-.16-1.06-.47-1.29s-.7-.35-1.15-.35c-.62,0-1.16,.21-1.6,.62-.45,.42-.67,1.11-.67,2.08v5.48h-1.61v-6.14c0-.64-.08-1.1-.23-1.4-.24-.44-.69-.66-1.34-.66-.6,0-1.14,.23-1.63,.69-.49,.46-.73,1.3-.73,2.51v4.99h-1.58v-9.41Z"/><path d="M483.17,470.03h1.54v4.68c.35-.45,.76-.79,1.24-1.03s1.01-.36,1.57-.36c1.18,0,2.13,.4,2.86,1.21s1.1,1.99,1.1,3.56c0,1.49-.36,2.72-1.08,3.71-.72,.98-1.73,1.48-3.01,1.48-.72,0-1.32-.17-1.82-.52-.29-.21-.61-.53-.94-.98v1.2h-1.46v-12.96Zm6.05,10.84c.43-.68,.64-1.58,.64-2.69,0-.99-.21-1.81-.64-2.46-.43-.65-1.05-.98-1.88-.98-.72,0-1.36,.27-1.9,.8s-.82,1.41-.82,2.64c0,.88,.11,1.6,.33,2.15,.42,1.04,1.2,1.56,2.34,1.56,.86,0,1.5-.34,1.93-1.02Z"/><path d="M499.12,473.83c.62,.31,1.1,.72,1.42,1.22,.31,.47,.52,1.03,.63,1.66,.09,.43,.14,1.12,.14,2.07h-6.85c.03,.96,.25,1.73,.67,2.3,.42,.58,1.07,.87,1.94,.87,.82,0,1.47-.27,1.96-.82,.27-.32,.47-.69,.58-1.1h1.56c-.04,.35-.18,.73-.41,1.16-.23,.42-.49,.77-.78,1.04-.48,.47-1.07,.79-1.77,.95-.38,.09-.81,.14-1.28,.14-1.16,0-2.15-.43-2.96-1.28s-1.21-2.05-1.21-3.58,.41-2.74,1.22-3.68,1.88-1.42,3.2-1.42c.66,0,1.31,.16,1.93,.47Zm.57,3.7c-.06-.69-.21-1.23-.44-1.64-.43-.76-1.15-1.14-2.15-1.14-.72,0-1.32,.26-1.81,.79s-.75,1.19-.78,2h5.19Z"/><path d="M503.36,473.58h1.5v1.63c.12-.32,.42-.7,.91-1.16s1.03-.68,1.66-.68c.03,0,.08,0,.15,0s.19,.02,.36,.04v1.67c-.09-.02-.18-.03-.26-.04-.08,0-.17,0-.26,0-.8,0-1.41,.26-1.84,.77s-.64,1.1-.64,1.77v5.41h-1.58v-9.41Z"/><path d="M521.13,474.51c.83,.81,1.25,2,1.25,3.57s-.37,2.77-1.1,3.76-1.87,1.48-3.41,1.48c-1.29,0-2.31-.44-3.06-1.31-.76-.88-1.13-2.05-1.13-3.53,0-1.58,.4-2.84,1.2-3.78s1.87-1.41,3.21-1.41c1.2,0,2.22,.4,3.05,1.21Zm-.98,6.26c.39-.79,.58-1.67,.58-2.65,0-.88-.14-1.59-.42-2.14-.44-.87-1.2-1.3-2.28-1.3-.96,0-1.65,.37-2.09,1.11s-.65,1.63-.65,2.67,.22,1.83,.65,2.5c.43,.67,1.12,1,2.07,1,1.04,0,1.75-.4,2.13-1.19Z"/><path d="M525.06,470.7c.37-.54,1.08-.81,2.14-.81,.1,0,.2,0,.31,0s.23,.01,.36,.03v1.44c-.17-.01-.29-.02-.36-.02s-.14,0-.21,0c-.49,0-.78,.12-.87,.37s-.14,.88-.14,1.9h1.58v1.25h-1.58v8.12h-1.56v-8.12h-1.31v-1.25h1.31v-1.48c.02-.66,.14-1.14,.34-1.44Z"/><path d="M535.27,480.04c.05,.53,.18,.93,.4,1.21,.41,.51,1.11,.76,2.12,.76,.6,0,1.12-.13,1.58-.38,.45-.25,.68-.65,.68-1.18,0-.4-.18-.71-.54-.92-.23-.13-.69-.28-1.38-.45l-1.28-.32c-.82-.2-1.42-.42-1.8-.67-.69-.43-1.04-1.02-1.04-1.78,0-.89,.33-1.61,.98-2.16,.65-.55,1.52-.83,2.62-.83,1.44,0,2.47,.42,3.11,1.25,.4,.53,.59,1.1,.58,1.71h-1.49c-.03-.36-.16-.68-.39-.97-.37-.41-1.02-.62-1.93-.62-.61,0-1.08,.11-1.39,.34-.32,.23-.47,.53-.47,.9,0,.41,.21,.74,.62,.98,.24,.15,.59,.27,1.06,.39l1.07,.25c1.16,.28,1.93,.54,2.33,.8,.62,.4,.92,1.04,.92,1.91s-.32,1.56-.97,2.17-1.62,.91-2.94,.91c-1.42,0-2.42-.32-3.01-.95-.59-.64-.91-1.42-.95-2.36h1.52Z"/><path d="M548.37,477.29c.36-.05,.61-.2,.73-.46,.07-.14,.11-.34,.11-.61,0-.54-.19-.93-.57-1.18-.38-.24-.93-.37-1.64-.37-.83,0-1.41,.22-1.75,.67-.19,.25-.32,.62-.38,1.1h-1.48c.03-1.16,.41-1.97,1.13-2.43,.72-.46,1.56-.68,2.51-.68,1.11,0,2,.21,2.7,.63,.68,.42,1.03,1.08,1.03,1.97v5.42c0,.16,.03,.3,.1,.4,.07,.1,.21,.15,.43,.15,.07,0,.15,0,.24-.01s.18-.02,.28-.04v1.17c-.25,.07-.43,.11-.56,.13s-.3,.03-.53,.03c-.54,0-.94-.19-1.19-.58-.13-.21-.22-.5-.27-.87-.32,.42-.79,.79-1.39,1.1s-1.27,.47-2,.47c-.87,0-1.59-.26-2.14-.79-.55-.53-.83-1.19-.83-1.99,0-.87,.27-1.55,.82-2.03,.54-.48,1.26-.78,2.14-.89l2.52-.32Zm-3.33,4.27c.33,.26,.73,.39,1.19,.39,.56,0,1.1-.13,1.62-.39,.88-.43,1.32-1.13,1.32-2.1v-1.27c-.19,.12-.44,.23-.75,.31-.3,.08-.6,.14-.9,.18l-.96,.12c-.57,.08-1,.2-1.29,.36-.49,.27-.73,.71-.73,1.32,0,.46,.17,.82,.5,1.08Z"/><path d="M553.34,473.58h1.56v1.34c.38-.46,.71-.8,1.02-1.01,.52-.36,1.11-.54,1.78-.54,.75,0,1.35,.18,1.81,.55,.26,.21,.49,.52,.7,.93,.35-.5,.76-.88,1.24-1.12s1.01-.37,1.6-.37c1.27,0,2.13,.46,2.58,1.37,.25,.49,.37,1.15,.37,1.99v6.27h-1.64v-6.54c0-.63-.16-1.06-.47-1.29s-.7-.35-1.15-.35c-.62,0-1.16,.21-1.6,.62-.45,.42-.67,1.11-.67,2.08v5.48h-1.61v-6.14c0-.64-.08-1.1-.23-1.4-.24-.44-.69-.66-1.34-.66-.6,0-1.14,.23-1.63,.69-.49,.46-.73,1.3-.73,2.51v4.99h-1.58v-9.41Z"/><path d="M568.2,473.62h1.55v1.25c.32-.43,.66-.76,1.04-.99,.53-.35,1.16-.53,1.89-.53,1.07,0,1.98,.41,2.72,1.23s1.12,1.98,1.12,3.5c0,2.05-.54,3.52-1.61,4.39-.68,.56-1.48,.83-2.38,.83-.71,0-1.31-.16-1.79-.47-.28-.18-.6-.48-.94-.91v4.81h-1.58v-13.12Zm5.95,7.38c.49-.62,.74-1.54,.74-2.77,0-.75-.11-1.39-.33-1.93-.41-1.04-1.16-1.56-2.26-1.56s-1.85,.55-2.26,1.64c-.22,.59-.33,1.33-.33,2.23,0,.73,.11,1.34,.33,1.85,.41,.97,1.16,1.46,2.26,1.46,.74,0,1.36-.31,1.85-.93Z"/><path d="M578.39,470.08h1.58v12.91h-1.58v-12.91Z"/><path d="M588.16,473.83c.62,.31,1.1,.72,1.42,1.22,.31,.47,.52,1.03,.63,1.66,.09,.43,.14,1.12,.14,2.07h-6.85c.03,.96,.25,1.73,.67,2.3,.42,.58,1.07,.87,1.94,.87,.82,0,1.47-.27,1.96-.82,.27-.32,.47-.69,.58-1.1h1.56c-.04,.35-.18,.73-.41,1.16-.23,.42-.49,.77-.78,1.04-.48,.47-1.07,.79-1.77,.95-.38,.09-.81,.14-1.28,.14-1.16,0-2.15-.43-2.96-1.28s-1.21-2.05-1.21-3.58,.41-2.74,1.22-3.68,1.88-1.42,3.2-1.42c.66,0,1.31,.16,1.93,.47Zm.57,3.7c-.06-.69-.21-1.23-.44-1.64-.43-.76-1.15-1.14-2.15-1.14-.72,0-1.32,.26-1.81,.79s-.75,1.19-.78,2h5.19Z"/><path d="M593.29,480.04c.05,.53,.18,.93,.4,1.21,.41,.51,1.11,.76,2.12,.76,.6,0,1.12-.13,1.58-.38,.45-.25,.68-.65,.68-1.18,0-.4-.18-.71-.54-.92-.23-.13-.69-.28-1.38-.45l-1.28-.32c-.82-.2-1.42-.42-1.8-.67-.69-.43-1.04-1.02-1.04-1.78,0-.89,.33-1.61,.98-2.16,.65-.55,1.52-.83,2.62-.83,1.44,0,2.47,.42,3.11,1.25,.4,.53,.59,1.1,.58,1.71h-1.49c-.03-.36-.16-.68-.39-.97-.37-.41-1.02-.62-1.93-.62-.61,0-1.08,.11-1.39,.34-.32,.23-.47,.53-.47,.9,0,.41,.21,.74,.62,.98,.24,.15,.59,.27,1.06,.39l1.07,.25c1.16,.28,1.93,.54,2.33,.8,.62,.4,.92,1.04,.92,1.91s-.32,1.56-.97,2.17-1.62,.91-2.94,.91c-1.42,0-2.42-.32-3.01-.95-.59-.64-.91-1.42-.95-2.36h1.52Z"/><path d="M606.35,470.08h1.61v1.79h-1.61v-1.79Zm0,3.54h1.61v9.37h-1.61v-9.37Z"/><path d="M610.35,473.58h1.5v1.34c.45-.55,.92-.95,1.42-1.19s1.05-.36,1.66-.36c1.34,0,2.24,.47,2.71,1.4,.26,.51,.39,1.24,.39,2.19v6.04h-1.61v-5.93c0-.57-.08-1.04-.25-1.39-.28-.59-.79-.88-1.53-.88-.38,0-.68,.04-.92,.11-.43,.13-.81,.39-1.14,.77-.26,.31-.44,.63-.51,.96-.08,.33-.12,.8-.12,1.42v4.93h-1.58v-9.41Z"/><path d="M625.84,474.92c.75-.91,1.66-1.37,2.71-1.37,.53,0,1,.13,1.41,.39,.25,.16,.57,.44,.96,.84v-3.66c0-.5-.1-.82-.29-.94s-.6-.2-1.21-.22v-.48h4.31v11.51c0,.41,.08,.7,.23,.86s.46,.26,.92,.29v.46c-1.12,.11-1.84,.19-2.17,.25-.33,.06-.9,.2-1.72,.42v-1.32c-.38,.39-.72,.68-1.04,.87-.5,.3-1.03,.45-1.6,.45-.98,0-1.83-.41-2.55-1.24-.72-.83-1.08-1.95-1.08-3.37,0-1.58,.38-2.83,1.13-3.75Zm4.56,6.65c.34-.38,.51-.65,.51-.81v-4.86c0-.16-.15-.4-.44-.72-.29-.32-.68-.48-1.17-.48-.71,0-1.2,.49-1.45,1.47-.14,.53-.21,1.27-.21,2.24,0,1.03,.07,1.8,.2,2.32,.24,.94,.71,1.42,1.39,1.42,.43,0,.82-.19,1.16-.58Z"/></g><path d="M413.41,60.61h5.9m-2.95,2.95v-5.9m393.88,358.21h5.9m-2.95,2.95v-5.9m-57.62,2.95h5.9m-2.95,2.95v-5.9m-57.71,2.95h5.9m-2.95,2.95v-5.9m-57.62,2.95h5.9m-2.95,2.95v-5.9m-57.62,2.95h5.9m-2.95,2.95v-5.9m-57.71,2.95h5.9m-2.95,2.95v-5.9m-57.62,2.95h5.9m-2.95,2.95v-5.9m-57.62,2.95h5.9m-2.95,2.95v-5.9m-57.62,2.95h5.9m-2.95,2.95v-5.9m-57.71,2.95h5.9m-2.95,2.95v-5.9m-57.62-34.5h5.9m-2.95,2.95v-5.9m0,2.95l54.67,37.45h492.31M386.5,60.61h59.82" style="fill:none; stroke:#1d1d1b; stroke-miterlimit:10;"/><path d="M266.2,341.07l54.67,37.35,54.76,23.03,54.67,9.45,54.67,3.37,54.67,1.12,54.76,.37,54.67,.09h164.1M386.5,83.07h59.82" style="fill:none; stroke:#1d1d1b; stroke-dasharray:0 0 3.06 1.53; stroke-miterlimit:10;"/><path d="M413.41,86.02l5.9-5.9m-5.9,0l5.9,5.9m390.93,332.79l5.9-5.9m-5.9,0l5.9,5.9m-60.57,0l5.9-5.9m-5.9,0l5.9,5.9m-60.66,0l5.9-5.9m-5.9,0l5.9,5.9m-60.57,0l5.9-5.9m-5.9,0l5.9,5.9m-60.57-.09l5.9-5.9m-5.9,0l5.9,5.9m-60.66-.37l5.9-5.9m-5.9,0l5.9,5.9m-60.57-1.12l5.9-5.9m-5.9,0l5.9,5.9m-60.57-3.37l5.9-5.9m-5.9,0l5.9,5.9m-60.57-9.45l5.9-5.9m-5.9,0l5.9,5.9m-60.66-23.03l5.9-5.9m-5.9,0l5.9,5.9m-60.57-37.35l5.9-5.9m-5.9,0l5.9,5.9" style="fill:none; stroke:#1d1d1b; stroke-miterlimit:10;"/><path d="M266.2,266.27h54.67l54.76,34.54,54.67,36.32,54.67,29.3,54.67,20.22,54.76,12.73,54.67,7.49,54.67,4.21,54.76,2.25,54.67,1.22M386.5,105.54h59.82" style="fill:none; stroke:#1d1d1b; stroke-dasharray:0 0 1.53 2.3; stroke-miterlimit:10;"/><path d="M413.41,108.49l5.9-5.9m-5.9,0l5.9,5.9m-5.9-2.95h5.9m-2.95,2.95v-5.9m393.88,314.91l5.9-5.9m-5.9,0l5.9,5.9m-5.9-2.95h5.9m-2.95,2.95v-5.9m-57.62,4.68l5.9-5.9m-5.9,0l5.9,5.9m-5.9-2.95h5.9m-2.95,2.95v-5.9m-57.71,3.65l5.9-5.9m-5.9,0l5.9,5.9m-5.9-2.95h5.9m-2.95,2.95v-5.9m-57.62,1.69l5.9-5.9m-5.9,0l5.9,5.9m-5.9-2.95h5.9m-2.95,2.95v-5.9m-57.62-1.59l5.9-5.9m-5.9,0l5.9,5.9m-5.9-2.95h5.9m-2.95,2.95v-5.9m-57.71-6.83l5.9-5.9m-5.9,0l5.9,5.9m-5.9-2.95h5.9m-2.95,2.95v-5.9m-57.62-14.32l5.9-5.9m-5.9,0l5.9,5.9m-5.9-2.95h5.9m-2.95,2.95v-5.9m-57.62-23.4l5.9-5.9m-5.9,0l5.9,5.9m-5.9-2.95h5.9m-2.95,2.95v-5.9m-57.62-30.42l5.9-5.9m-5.9,0l5.9,5.9m-5.9-2.95h5.9m-2.95,2.95v-5.9m-57.71-28.65l5.9-5.9m-5.9,0l5.9,5.9m-5.9-2.95h5.9m-2.95,2.95v-5.9m-57.62,5.9l5.9-5.9m-5.9,0l5.9,5.9m-5.9-2.95h5.9m-2.95,2.95v-5.9" style="fill:none; stroke:#1d1d1b; stroke-miterlimit:10;"/><path d="M266.2,341.07l54.67-37.35,54.76-17.32,54.67-3.37,54.67,7.68,54.67,14.32,54.76,17.04,54.67,16.94,54.67,15.26,54.76,13.11,54.67,10.77M386.5,128.01h59.82" style="fill:none; stroke:#1d1d1b; stroke-dasharray:0 0 .77 1.15; stroke-miterlimit:10;"/><rect x="263.26" y="338.12" width="5.9" height="5.9" style="fill:none; stroke:#1d1d1b; stroke-miterlimit:10;"/><line x1="266.2" y1="341.07" x2="266.2" y2="341.07" style="fill:none; stroke:#1d1d1b; stroke-linecap:round; stroke-miterlimit:10;"/><rect x="317.93" y="300.77" width="5.9" height="5.9" style="fill:none; stroke:#1d1d1b; stroke-miterlimit:10;"/><line x1="320.87" y1="303.72" x2="320.87" y2="303.72" style="fill:none; stroke:#1d1d1b; stroke-linecap:round; stroke-miterlimit:10;"/><rect x="372.69" y="283.45" width="5.9" height="5.9" style="fill:none; stroke:#1d1d1b; stroke-miterlimit:10;"/><line x1="375.64" y1="286.4" x2="375.64" y2="286.4" style="fill:none; stroke:#1d1d1b; stroke-linecap:round; stroke-miterlimit:10;"/><rect x="427.36" y="280.08" width="5.9" height="5.9" style="fill:none; stroke:#1d1d1b; stroke-miterlimit:10;"/><line x1="430.31" y1="283.03" x2="430.31" y2="283.03" style="fill:none; stroke:#1d1d1b; stroke-linecap:round; stroke-miterlimit:10;"/><rect x="482.03" y="287.76" width="5.9" height="5.9" style="fill:none; stroke:#1d1d1b; stroke-miterlimit:10;"/><line x1="484.98" y1="290.71" x2="484.98" y2="290.71" style="fill:none; stroke:#1d1d1b; stroke-linecap:round; stroke-miterlimit:10;"/><rect x="536.7" y="302.08" width="5.9" height="5.9" style="fill:none; stroke:#1d1d1b; stroke-miterlimit:10;"/><line x1="539.65" y1="305.03" x2="539.65" y2="305.03" style="fill:none; stroke:#1d1d1b; stroke-linecap:round; stroke-miterlimit:10;"/><rect x="591.46" y="319.12" width="5.9" height="5.9" style="fill:none; stroke:#1d1d1b; stroke-miterlimit:10;"/><line x1="594.41" y1="322.07" x2="594.41" y2="322.07" style="fill:none; stroke:#1d1d1b; stroke-linecap:round; stroke-miterlimit:10;"/><rect x="646.13" y="336.06" width="5.9" height="5.9" style="fill:none; stroke:#1d1d1b; stroke-miterlimit:10;"/><line x1="649.08" y1="339.01" x2="649.08" y2="339.01" style="fill:none; stroke:#1d1d1b; stroke-linecap:round; stroke-miterlimit:10;"/><rect x="700.8" y="351.32" width="5.9" height="5.9" style="fill:none; stroke:#1d1d1b; stroke-miterlimit:10;"/><line x1="703.75" y1="354.27" x2="703.75" y2="354.27" style="fill:none; stroke:#1d1d1b; stroke-linecap:round; stroke-miterlimit:10;"/><rect x="755.57" y="364.43" width="5.9" height="5.9" style="fill:none; stroke:#1d1d1b; stroke-miterlimit:10;"/><line x1="758.51" y1="367.38" x2="758.51" y2="367.38" style="fill:none; stroke:#1d1d1b; stroke-linecap:round; stroke-miterlimit:10;"/><rect x="810.24" y="375.19" width="5.9" height="5.9" style="fill:none; stroke:#1d1d1b; stroke-miterlimit:10;"/><line x1="813.18" y1="378.14" x2="813.18" y2="378.14" style="fill:none; stroke:#1d1d1b; stroke-linecap:round; stroke-miterlimit:10;"/><rect x="413.41" y="125.06" width="5.9" height="5.9" style="fill:none; stroke:#1d1d1b; stroke-miterlimit:10;"/><line x1="416.36" y1="128.01" x2="416.36" y2="128.01" style="fill:none; stroke:#1d1d1b; stroke-linecap:round; stroke-miterlimit:10;"/><path d="M266.2,378.42l54.67-37.35,54.76-40.25,54.67-42.41,54.67-40.35,54.67-35.67,54.76-30.05,54.67-24.53,54.67-19.57,54.76-15.35,54.67-11.98m-426.69,69.55h59.82" style="fill:none; stroke:#1d1d1b; stroke-dasharray:0 0 0 0 3.83 1.53 .77 1.53; stroke-miterlimit:10;"/><rect x="263.26" y="375.47" width="5.9" height="5.9" style="fill:#1d1d1b;"/><rect x="317.93" y="338.12" width="5.9" height="5.9" style="fill:#1d1d1b;"/><rect x="372.69" y="297.87" width="5.9" height="5.9" style="fill:#1d1d1b;"/><rect x="427.36" y="255.46" width="5.9" height="5.9" style="fill:#1d1d1b;"/><rect x="482.03" y="215.11" width="5.9" height="5.9" style="fill:#1d1d1b;"/><rect x="536.7" y="179.45" width="5.9" height="5.9" style="fill:#1d1d1b;"/><rect x="591.46" y="149.4" width="5.9" height="5.9" style="fill:#1d1d1b;"/><rect x="646.13" y="124.87" width="5.9" height="5.9" style="fill:#1d1d1b;"/><rect x="700.8" y="105.31" width="5.9" height="5.9" style="fill:#1d1d1b;"/><rect x="755.57" y="89.95" width="5.9" height="5.9" style="fill:#1d1d1b;"/><rect x="810.24" y="77.97" width="5.9" height="5.9" style="fill:#1d1d1b;"/><rect x="413.41" y="147.53" width="5.9" height="5.9" style="fill:#1d1d1b;"/><g><path d="M318.56,65.14c.65-.06,1.05-.19,1.21-.38,.16-.2,.24-.64,.24-1.34v-7.36c0-.59-.09-.98-.27-1.17s-.57-.31-1.18-.36v-.32h4.48c1.44,0,2.54,.28,3.3,.84s1.14,1.29,1.14,2.21c0,1.16-.42,2-1.27,2.52s-1.91,.78-3.18,.78c-.18,0-.42,0-.7-.01-.29,0-.5-.01-.63-.01v3.09c0,.64,.1,1.04,.29,1.21s.63,.27,1.32,.32v.32h-4.76v-.32Zm5.74-9.99c-.48-.21-1.09-.32-1.83-.32-.35,0-.56,.03-.64,.1-.08,.07-.12,.22-.12,.46v4.43c.3,.03,.5,.04,.6,.05s.19,0,.27,0c.78,0,1.39-.11,1.84-.33,.81-.4,1.22-1.16,1.22-2.27,0-1.04-.45-1.75-1.34-2.14Z" style="fill:#1d1d1b;"/><path d="M330.24,56.12c.71-.89,1.54-1.61,2.51-2.15l.16,.27c-.89,.71-1.53,1.4-1.91,2.07-.67,1.17-1,2.72-1,4.67,0,1.44,.13,2.63,.38,3.56,.45,1.64,1.29,2.86,2.53,3.68l-.22,.27c-.68-.33-1.42-.97-2.21-1.92-1.31-1.58-1.97-3.37-1.97-5.38s.58-3.62,1.73-5.07Z" style="fill:#1d1d1b;"/><path d="M333.55,65.22c.45-.06,.75-.17,.89-.34,.14-.16,.21-.55,.21-1.16v-7.97c0-.31-.04-.54-.12-.68-.08-.15-.28-.22-.58-.22-.06,0-.12,0-.18,.01-.06,0-.12,.02-.2,.03v-.3c.24-.07,.54-.16,.9-.26,.36-.1,.6-.18,.74-.22l.8-.25,.02,.06v5.1c.35-.4,.66-.69,.93-.88,.49-.33,1.01-.5,1.58-.5,.9,0,1.51,.38,1.83,1.13,.18,.4,.27,.92,.27,1.57v3.39c0,.59,.07,.97,.2,1.15s.41,.29,.83,.35v.23h-3.59v-.23c.48-.07,.79-.18,.93-.34s.21-.54,.21-1.15v-3.36c0-.54-.09-.97-.27-1.3s-.52-.5-1.02-.5c-.43,0-.85,.15-1.25,.46-.4,.31-.61,.51-.61,.61v4.09c0,.62,.07,1.01,.22,1.16s.45,.27,.92,.33v.23h-3.66v-.23Z" style="fill:#1d1d1b;"/><path d="M344.85,64.5s0,.03,0,.06v5.83c0,.25,.07,.41,.2,.47,.13,.07,.38,.11,.74,.12v.14h-2.73v-.15c.39-.02,.65-.07,.76-.16,.12-.09,.18-.28,.18-.57v-4.48c0-.15-.02-.27-.06-.35s-.12-.12-.25-.12c-.08,0-.19,.02-.33,.07s-.26,.1-.38,.15v-.14l1.78-.91h.06s.02,.03,.02,.04Z" style="fill:#1d1d1b;"/><path d="M353.38,53.85v11.6h-1.15v-11.6h1.15Z" style="fill:#1d1d1b;"/><path d="M360.15,58.6c.64-.78,1.41-1.17,2.3-1.17,.45,0,.85,.11,1.2,.33,.22,.13,.49,.37,.81,.71v-3.11c0-.43-.08-.7-.25-.8-.17-.1-.51-.17-1.03-.19v-.41h3.66v9.79c0,.35,.07,.59,.2,.73s.39,.22,.78,.25v.39c-.95,.09-1.57,.16-1.84,.21-.28,.05-.76,.17-1.46,.36v-1.12c-.32,.33-.61,.58-.88,.74-.42,.25-.87,.38-1.36,.38-.83,0-1.55-.35-2.17-1.05-.62-.7-.92-1.66-.92-2.86,0-1.34,.32-2.41,.96-3.18Zm3.88,5.65c.29-.33,.44-.56,.44-.69v-4.13c0-.14-.12-.34-.38-.61s-.58-.41-.99-.41c-.6,0-1.02,.42-1.23,1.25-.12,.45-.18,1.08-.18,1.9,0,.87,.06,1.53,.17,1.98,.21,.8,.6,1.2,1.18,1.2,.37,0,.69-.16,.99-.49Z" style="fill:#1d1d1b;"/><path d="M372.73,63.61c-.22,.74-.53,1.43-.95,2.08-.44,.7-1.02,1.35-1.75,1.95-.48,.4-.89,.68-1.21,.84l-.16-.27c.85-.65,1.47-1.31,1.87-1.98,.7-1.2,1.04-2.78,1.04-4.74,0-1.59-.16-2.89-.48-3.89-.45-1.42-1.26-2.54-2.43-3.35l.22-.27c.87,.49,1.69,1.22,2.44,2.21,1.16,1.52,1.74,3.22,1.74,5.1,0,.82-.11,1.6-.32,2.34Z" style="fill:#1d1d1b;"/></g><g><path d="M318.56,87.6c.65-.06,1.05-.19,1.21-.38,.16-.2,.24-.64,.24-1.34v-7.36c0-.59-.09-.98-.27-1.17s-.57-.31-1.18-.36v-.32h4.48c1.44,0,2.54,.28,3.3,.84s1.14,1.29,1.14,2.21c0,1.16-.42,2-1.27,2.52s-1.91,.78-3.18,.78c-.18,0-.42,0-.7-.01-.29,0-.5-.01-.63-.01v3.09c0,.64,.1,1.04,.29,1.21s.63,.27,1.32,.32v.32h-4.76v-.32Zm5.74-9.99c-.48-.21-1.09-.32-1.83-.32-.35,0-.56,.03-.64,.1-.08,.07-.12,.22-.12,.46v4.43c.3,.03,.5,.04,.6,.05s.19,0,.27,0c.78,0,1.39-.11,1.84-.33,.81-.4,1.22-1.16,1.22-2.27,0-1.04-.45-1.75-1.34-2.14Z" style="fill:#1d1d1b;"/><path d="M330.24,78.58c.71-.89,1.54-1.61,2.51-2.15l.16,.27c-.89,.71-1.53,1.4-1.91,2.07-.67,1.17-1,2.72-1,4.67,0,1.44,.13,2.63,.38,3.56,.45,1.64,1.29,2.86,2.53,3.68l-.22,.27c-.68-.33-1.42-.97-2.21-1.92-1.31-1.58-1.97-3.37-1.97-5.38s.58-3.62,1.73-5.07Z" style="fill:#1d1d1b;"/><path d="M333.55,87.68c.45-.06,.75-.17,.89-.34,.14-.16,.21-.55,.21-1.16v-7.97c0-.31-.04-.54-.12-.68-.08-.15-.28-.22-.58-.22-.06,0-.12,0-.18,.01-.06,0-.12,.02-.2,.03v-.3c.24-.07,.54-.16,.9-.26,.36-.1,.6-.18,.74-.22l.8-.25,.02,.06v5.1c.35-.4,.66-.69,.93-.88,.49-.33,1.01-.5,1.58-.5,.9,0,1.51,.38,1.83,1.13,.18,.4,.27,.92,.27,1.57v3.39c0,.59,.07,.97,.2,1.15s.41,.29,.83,.35v.23h-3.59v-.23c.48-.07,.79-.18,.93-.34s.21-.54,.21-1.15v-3.36c0-.54-.09-.97-.27-1.3s-.52-.5-1.02-.5c-.43,0-.85,.15-1.25,.46-.4,.31-.61,.51-.61,.61v4.09c0,.62,.07,1.01,.22,1.16s.45,.27,.92,.33v.23h-3.66v-.23Z" style="fill:#1d1d1b;"/><path d="M342.19,93.47c1.18-1.23,1.98-2.12,2.41-2.7s.63-1.13,.63-1.68c0-.48-.13-.84-.39-1.09s-.57-.38-.92-.38c-.44,0-.8,.16-1.07,.48-.15,.18-.3,.45-.44,.82l-.21-.04c.16-.74,.43-1.26,.82-1.55s.8-.43,1.24-.43c.55,0,.99,.17,1.32,.51,.34,.34,.5,.76,.5,1.26,0,.53-.18,1.04-.55,1.53-.36,.49-1.16,1.36-2.38,2.62h2.22c.31,0,.53-.04,.65-.11s.27-.25,.43-.54l.13,.06-.54,1.35h-3.87v-.11Z" style="fill:#1d1d1b;"/><path d="M353.38,76.31v11.6h-1.15v-11.6h1.15Z" style="fill:#1d1d1b;"/><path d="M360.15,81.06c.64-.78,1.41-1.17,2.3-1.17,.45,0,.85,.11,1.2,.33,.22,.13,.49,.37,.81,.71v-3.11c0-.43-.08-.7-.25-.8-.17-.1-.51-.17-1.03-.19v-.41h3.66v9.79c0,.35,.07,.59,.2,.73s.39,.22,.78,.25v.39c-.95,.09-1.57,.16-1.84,.21-.28,.05-.76,.17-1.46,.36v-1.12c-.32,.33-.61,.58-.88,.74-.42,.25-.87,.38-1.36,.38-.83,0-1.55-.35-2.17-1.05-.62-.7-.92-1.66-.92-2.86,0-1.34,.32-2.41,.96-3.18Zm3.88,5.65c.29-.33,.44-.56,.44-.69v-4.13c0-.14-.12-.34-.38-.61s-.58-.41-.99-.41c-.6,0-1.02,.42-1.23,1.25-.12,.45-.18,1.08-.18,1.9,0,.87,.06,1.53,.17,1.98,.21,.8,.6,1.2,1.18,1.2,.37,0,.69-.16,.99-.49Z" style="fill:#1d1d1b;"/><path d="M372.73,86.07c-.22,.74-.53,1.43-.95,2.08-.44,.7-1.02,1.35-1.75,1.95-.48,.4-.89,.68-1.21,.84l-.16-.27c.85-.65,1.47-1.31,1.87-1.98,.7-1.2,1.04-2.78,1.04-4.74,0-1.59-.16-2.89-.48-3.89-.45-1.42-1.26-2.54-2.43-3.35l.22-.27c.87,.49,1.69,1.22,2.44,2.21,1.16,1.52,1.74,3.22,1.74,5.1,0,.82-.11,1.6-.32,2.34Z" style="fill:#1d1d1b;"/></g><g><path d="M318.56,110.06c.65-.06,1.05-.19,1.21-.38,.16-.2,.24-.64,.24-1.34v-7.36c0-.59-.09-.98-.27-1.17s-.57-.31-1.18-.36v-.32h4.48c1.44,0,2.54,.28,3.3,.84s1.14,1.29,1.14,2.21c0,1.16-.42,2-1.27,2.52s-1.91,.78-3.18,.78c-.18,0-.42,0-.7-.01-.29,0-.5-.01-.63-.01v3.09c0,.64,.1,1.04,.29,1.21s.63,.27,1.32,.32v.32h-4.76v-.32Zm5.74-9.99c-.48-.21-1.09-.32-1.83-.32-.35,0-.56,.03-.64,.1-.08,.07-.12,.22-.12,.46v4.43c.3,.03,.5,.04,.6,.05s.19,0,.27,0c.78,0,1.39-.11,1.84-.33,.81-.4,1.22-1.16,1.22-2.27,0-1.04-.45-1.75-1.34-2.14Z" style="fill:#1d1d1b;"/><path d="M330.24,101.04c.71-.89,1.54-1.61,2.51-2.15l.16,.27c-.89,.71-1.53,1.4-1.91,2.07-.67,1.17-1,2.72-1,4.67,0,1.44,.13,2.63,.38,3.56,.45,1.64,1.29,2.86,2.53,3.68l-.22,.27c-.68-.33-1.42-.97-2.21-1.92-1.31-1.58-1.97-3.37-1.97-5.38s.58-3.62,1.73-5.07Z" style="fill:#1d1d1b;"/><path d="M333.55,110.14c.45-.06,.75-.17,.89-.34,.14-.16,.21-.55,.21-1.16v-7.97c0-.31-.04-.54-.12-.68-.08-.15-.28-.22-.58-.22-.06,0-.12,0-.18,.01-.06,0-.12,.02-.2,.03v-.3c.24-.07,.54-.16,.9-.26,.36-.1,.6-.18,.74-.22l.8-.25,.02,.06v5.1c.35-.4,.66-.69,.93-.88,.49-.33,1.01-.5,1.58-.5,.9,0,1.51,.38,1.83,1.13,.18,.4,.27,.92,.27,1.57v3.39c0,.59,.07,.97,.2,1.15s.41,.29,.83,.35v.23h-3.59v-.23c.48-.07,.79-.18,.93-.34s.21-.54,.21-1.15v-3.36c0-.54-.09-.97-.27-1.3s-.52-.5-1.02-.5c-.43,0-.85,.15-1.25,.46-.4,.31-.61,.51-.61,.61v4.09c0,.62,.07,1.01,.22,1.16s.45,.27,.92,.33v.23h-3.66v-.23Z" style="fill:#1d1d1b;"/><path d="M343.37,115.47c.29,.19,.54,.28,.74,.28,.45,0,.79-.15,1.01-.46,.22-.31,.33-.64,.33-1s-.09-.65-.27-.91c-.3-.44-.81-.66-1.52-.66-.04,0-.08,0-.12,0s-.08,0-.14,.01v-.13c.51-.19,.91-.4,1.21-.64,.3-.24,.45-.56,.45-.96,0-.35-.12-.62-.35-.8-.23-.18-.5-.28-.8-.28-.35,0-.67,.13-.94,.39-.15,.14-.31,.36-.48,.66l-.15-.03c.13-.49,.37-.88,.72-1.18,.35-.29,.76-.44,1.22-.44,.49,0,.88,.14,1.14,.41s.4,.58,.4,.94c0,.31-.11,.6-.33,.86-.13,.15-.32,.31-.59,.5,.31,.13,.56,.29,.75,.46,.35,.34,.53,.77,.53,1.29,0,.61-.24,1.15-.72,1.62s-1.17,.7-2.06,.7c-.4,0-.67-.06-.83-.18-.16-.12-.24-.24-.24-.38,0-.08,.03-.16,.08-.24,.05-.08,.14-.12,.26-.12,.18,0,.41,.09,.7,.28Z" style="fill:#1d1d1b;"/><path d="M353.38,98.77v11.6h-1.15v-11.6h1.15Z" style="fill:#1d1d1b;"/><path d="M360.15,103.52c.64-.78,1.41-1.17,2.3-1.17,.45,0,.85,.11,1.2,.33,.22,.13,.49,.37,.81,.71v-3.11c0-.43-.08-.7-.25-.8-.17-.1-.51-.17-1.03-.19v-.41h3.66v9.79c0,.35,.07,.59,.2,.73s.39,.22,.78,.25v.39c-.95,.09-1.57,.16-1.84,.21-.28,.05-.76,.17-1.46,.36v-1.12c-.32,.33-.61,.58-.88,.74-.42,.25-.87,.38-1.36,.38-.83,0-1.55-.35-2.17-1.05-.62-.7-.92-1.66-.92-2.86,0-1.34,.32-2.41,.96-3.18Zm3.88,5.65c.29-.33,.44-.56,.44-.69v-4.13c0-.14-.12-.34-.38-.61s-.58-.41-.99-.41c-.6,0-1.02,.42-1.23,1.25-.12,.45-.18,1.08-.18,1.9,0,.87,.06,1.53,.17,1.98,.21,.8,.6,1.2,1.18,1.2,.37,0,.69-.16,.99-.49Z" style="fill:#1d1d1b;"/><path d="M372.73,108.53c-.22,.74-.53,1.43-.95,2.08-.44,.7-1.02,1.35-1.75,1.95-.48,.4-.89,.68-1.21,.84l-.16-.27c.85-.65,1.47-1.31,1.87-1.98,.7-1.2,1.04-2.78,1.04-4.74,0-1.59-.16-2.89-.48-3.89-.45-1.42-1.26-2.54-2.43-3.35l.22-.27c.87,.49,1.69,1.22,2.44,2.21,1.16,1.52,1.74,3.22,1.74,5.1,0,.82-.11,1.6-.32,2.34Z" style="fill:#1d1d1b;"/></g><g><path d="M318.56,132.52c.65-.06,1.05-.19,1.21-.38,.16-.2,.24-.64,.24-1.34v-7.36c0-.59-.09-.98-.27-1.17s-.57-.31-1.18-.36v-.32h4.48c1.44,0,2.54,.28,3.3,.84s1.14,1.29,1.14,2.21c0,1.16-.42,2-1.27,2.52s-1.91,.78-3.18,.78c-.18,0-.42,0-.7-.01-.29,0-.5-.01-.63-.01v3.09c0,.64,.1,1.04,.29,1.21s.63,.27,1.32,.32v.32h-4.76v-.32Zm5.74-9.99c-.48-.21-1.09-.32-1.83-.32-.35,0-.56,.03-.64,.1-.08,.07-.12,.22-.12,.46v4.43c.3,.03,.5,.04,.6,.05s.19,0,.27,0c.78,0,1.39-.11,1.84-.33,.81-.4,1.22-1.16,1.22-2.27,0-1.04-.45-1.75-1.34-2.14Z" style="fill:#1d1d1b;"/><path d="M330.24,123.5c.71-.89,1.54-1.61,2.51-2.15l.16,.27c-.89,.71-1.53,1.4-1.91,2.07-.67,1.17-1,2.72-1,4.67,0,1.44,.13,2.63,.38,3.56,.45,1.64,1.29,2.86,2.53,3.68l-.22,.27c-.68-.33-1.42-.97-2.21-1.92-1.31-1.58-1.97-3.37-1.97-5.38s.58-3.62,1.73-5.07Z" style="fill:#1d1d1b;"/><path d="M333.55,132.6c.45-.06,.75-.17,.89-.34,.14-.16,.21-.55,.21-1.16v-7.97c0-.31-.04-.54-.12-.68-.08-.15-.28-.22-.58-.22-.06,0-.12,0-.18,.01-.06,0-.12,.02-.2,.03v-.3c.24-.07,.54-.16,.9-.26,.36-.1,.6-.18,.74-.22l.8-.25,.02,.06v5.1c.35-.4,.66-.69,.93-.88,.49-.33,1.01-.5,1.58-.5,.9,0,1.51,.38,1.83,1.13,.18,.4,.27,.92,.27,1.57v3.39c0,.59,.07,.97,.2,1.15s.41,.29,.83,.35v.23h-3.59v-.23c.48-.07,.79-.18,.93-.34s.21-.54,.21-1.15v-3.36c0-.54-.09-.97-.27-1.3s-.52-.5-1.02-.5c-.43,0-.85,.15-1.25,.46-.4,.31-.61,.51-.61,.61v4.09c0,.62,.07,1.01,.22,1.16s.45,.27,.92,.33v.23h-3.66v-.23Z" style="fill:#1d1d1b;"/><path d="M345.11,131.85h.46v4.36h1.01v.64h-1.01v1.65h-.77v-1.65h-2.79v-.64l3.1-4.36Zm-.32,1l-2.37,3.36h2.37v-3.36Z" style="fill:#1d1d1b;"/><path d="M353.38,121.23v11.6h-1.15v-11.6h1.15Z" style="fill:#1d1d1b;"/><path d="M360.15,125.98c.64-.78,1.41-1.17,2.3-1.17,.45,0,.85,.11,1.2,.33,.22,.13,.49,.37,.81,.71v-3.11c0-.43-.08-.7-.25-.8-.17-.1-.51-.17-1.03-.19v-.41h3.66v9.79c0,.35,.07,.59,.2,.73s.39,.22,.78,.25v.39c-.95,.09-1.57,.16-1.84,.21-.28,.05-.76,.17-1.46,.36v-1.12c-.32,.33-.61,.58-.88,.74-.42,.25-.87,.38-1.36,.38-.83,0-1.55-.35-2.17-1.05-.62-.7-.92-1.66-.92-2.86,0-1.34,.32-2.41,.96-3.18Zm3.88,5.65c.29-.33,.44-.56,.44-.69v-4.13c0-.14-.12-.34-.38-.61s-.58-.41-.99-.41c-.6,0-1.02,.42-1.23,1.25-.12,.45-.18,1.08-.18,1.9,0,.87,.06,1.53,.17,1.98,.21,.8,.6,1.2,1.18,1.2,.37,0,.69-.16,.99-.49Z" style="fill:#1d1d1b;"/><path d="M372.73,130.99c-.22,.74-.53,1.43-.95,2.08-.44,.7-1.02,1.35-1.75,1.95-.48,.4-.89,.68-1.21,.84l-.16-.27c.85-.65,1.47-1.31,1.87-1.98,.7-1.2,1.04-2.78,1.04-4.74,0-1.59-.16-2.89-.48-3.89-.45-1.42-1.26-2.54-2.43-3.35l.22-.27c.87,.49,1.69,1.22,2.44,2.21,1.16,1.52,1.74,3.22,1.74,5.1,0,.82-.11,1.6-.32,2.34Z" style="fill:#1d1d1b;"/></g><g><path d="M318.56,154.98c.65-.06,1.05-.19,1.21-.38,.16-.2,.24-.64,.24-1.34v-7.36c0-.59-.09-.98-.27-1.17s-.57-.31-1.18-.36v-.32h4.48c1.44,0,2.54,.28,3.3,.84s1.14,1.29,1.14,2.21c0,1.16-.42,2-1.27,2.52s-1.91,.78-3.18,.78c-.18,0-.42,0-.7-.01-.29,0-.5-.01-.63-.01v3.09c0,.64,.1,1.04,.29,1.21s.63,.27,1.32,.32v.32h-4.76v-.32Zm5.74-9.99c-.48-.21-1.09-.32-1.83-.32-.35,0-.56,.03-.64,.1-.08,.07-.12,.22-.12,.46v4.43c.3,.03,.5,.04,.6,.05s.19,0,.27,0c.78,0,1.39-.11,1.84-.33,.81-.4,1.22-1.16,1.22-2.27,0-1.04-.45-1.75-1.34-2.14Z" style="fill:#1d1d1b;"/><path d="M330.24,145.96c.71-.89,1.54-1.61,2.51-2.15l.16,.27c-.89,.71-1.53,1.4-1.91,2.07-.67,1.17-1,2.72-1,4.67,0,1.44,.13,2.63,.38,3.56,.45,1.64,1.29,2.86,2.53,3.68l-.22,.27c-.68-.33-1.42-.97-2.21-1.92-1.31-1.58-1.97-3.37-1.97-5.38s.58-3.62,1.73-5.07Z" style="fill:#1d1d1b;"/><path d="M333.55,155.06c.45-.06,.75-.17,.89-.34,.14-.16,.21-.55,.21-1.16v-7.97c0-.31-.04-.54-.12-.68-.08-.15-.28-.22-.58-.22-.06,0-.12,0-.18,.01-.06,0-.12,.02-.2,.03v-.3c.24-.07,.54-.16,.9-.26,.36-.1,.6-.18,.74-.22l.8-.25,.02,.06v5.1c.35-.4,.66-.69,.93-.88,.49-.33,1.01-.5,1.58-.5,.9,0,1.51,.38,1.83,1.13,.18,.4,.27,.92,.27,1.57v3.39c0,.59,.07,.97,.2,1.15s.41,.29,.83,.35v.23h-3.59v-.23c.48-.07,.79-.18,.93-.34s.21-.54,.21-1.15v-3.36c0-.54-.09-.97-.27-1.3s-.52-.5-1.02-.5c-.43,0-.85,.15-1.25,.46-.4,.31-.61,.51-.61,.61v4.09c0,.62,.07,1.01,.22,1.16s.45,.27,.92,.33v.23h-3.66v-.23Z" style="fill:#1d1d1b;"/><path d="M343.36,160.38c.3,.21,.53,.31,.69,.31,.37,0,.7-.16,.97-.49,.28-.33,.42-.73,.42-1.21,0-.84-.45-1.44-1.34-1.81-.49-.2-.96-.3-1.38-.3-.07,0-.12,0-.13,0s-.04-.02-.07-.05l.02-.07s.01-.03,.02-.05l1.06-2.31h2.07c.1,0,.18-.02,.24-.05,.06-.04,.13-.1,.22-.2l.08,.07-.37,.9s-.05,.05-.11,.06c-.06,0-.12,.01-.19,.01h-1.88l-.41,.85c.53,.09,.92,.18,1.16,.26,.4,.14,.74,.34,1.01,.6,.23,.23,.41,.49,.53,.77,.12,.29,.18,.59,.18,.91,0,.71-.25,1.31-.76,1.79s-1.15,.72-1.93,.72c-.32,0-.57-.03-.77-.09-.32-.1-.48-.28-.48-.54,0-.1,.04-.18,.1-.25,.07-.07,.18-.11,.32-.11,.18,0,.43,.1,.72,.31Z" style="fill:#1d1d1b;"/><path d="M353.38,143.69v11.6h-1.15v-11.6h1.15Z" style="fill:#1d1d1b;"/><path d="M360.15,148.44c.64-.78,1.41-1.17,2.3-1.17,.45,0,.85,.11,1.2,.33,.22,.13,.49,.37,.81,.71v-3.11c0-.43-.08-.7-.25-.8-.17-.1-.51-.17-1.03-.19v-.41h3.66v9.79c0,.35,.07,.59,.2,.73s.39,.22,.78,.25v.39c-.95,.09-1.57,.16-1.84,.21-.28,.05-.76,.17-1.46,.36v-1.12c-.32,.33-.61,.58-.88,.74-.42,.25-.87,.38-1.36,.38-.83,0-1.55-.35-2.17-1.05-.62-.7-.92-1.66-.92-2.86,0-1.34,.32-2.41,.96-3.18Zm3.88,5.65c.29-.33,.44-.56,.44-.69v-4.13c0-.14-.12-.34-.38-.61s-.58-.41-.99-.41c-.6,0-1.02,.42-1.23,1.25-.12,.45-.18,1.08-.18,1.9,0,.87,.06,1.53,.17,1.98,.21,.8,.6,1.2,1.18,1.2,.37,0,.69-.16,.99-.49Z" style="fill:#1d1d1b;"/><path d="M372.73,153.45c-.22,.74-.53,1.43-.95,2.08-.44,.7-1.02,1.35-1.75,1.95-.48,.4-.89,.68-1.21,.84l-.16-.27c.85-.65,1.47-1.31,1.87-1.98,.7-1.2,1.04-2.78,1.04-4.74,0-1.59-.16-2.89-.48-3.89-.45-1.42-1.26-2.54-2.43-3.35l.22-.27c.87,.49,1.69,1.22,2.44,2.21,1.16,1.52,1.74,3.22,1.74,5.1,0,.82-.11,1.6-.32,2.34Z" style="fill:#1d1d1b;"/></g></svg>