<?xml version="1.0" encoding="UTF-8"?>
<svg id="graphics" xmlns="http://www.w3.org/2000/svg" viewBox="0 0 988 525">
  <defs>
    <style>
      .cls-1 {
        fill: #0333ff;
        font-family: Arial-BoldMT, Arial;
        font-size: 20px;
        font-weight: 700;
      }

      .cls-2 {
        fill: #1d1d1b;
        font-family: ArialMT, Arial;
        font-size: 12px;
      }

      .cls-3, .cls-4 {
        fill: none;
        stroke: #1d1d1b;
        stroke-miterlimit: 10;
      }

      .cls-5, .cls-6 {
        stroke-width: 0px;
      }

      .cls-6 {
        fill: #fff;
      }

      .cls-4 {
        stroke-width: .5px;
      }
    </style>
  </defs>
  <text class="cls-1" transform="translate(190.12 303.05)"><tspan x="0" y="0">Markets</tspan></text>
  <rect class="cls-6" x="331.5" y="121.15" width="175" height="175"/>
  <rect class="cls-6" x="506.5" y="121.15" width="175" height="175"/>
  <rect class="cls-6" x="331.5" y="296.15" width="175" height="175"/>
  <rect class="cls-6" x="506.5" y="296.15" width="175" height="175"/>
  <line class="cls-3" x1="306.5" y1="296.15" x2="681.5" y2="296.15"/>
  <line class="cls-3" x1="506.5" y1="471.15" x2="506.5" y2="96.15"/>
  <text class="cls-1" transform="translate(420.34 71.01)"><tspan x="0" y="0">Products/services</tspan></text>
  <text class="cls-2" transform="translate(397.99 111.54)"><tspan x="0" y="0">Existing</tspan></text>
  <text class="cls-2" transform="translate(582 111.54)"><tspan x="0" y="0">New</tspan></text>
  <text class="cls-2" transform="translate(321.89 395.65) rotate(-90)"><tspan x="0" y="0">New</tspan></text>
  <text class="cls-2" transform="translate(321.89 229.66) rotate(-90)"><tspan x="0" y="0">Existing</tspan></text>
  <polyline class="cls-4" points="331.5 471.15 331.5 121.15 681.5 121.15"/>
  <g>
    <path class="cls-5" d="m391.26,206.99v-12.88h3.89l2.34,8.79,2.31-8.79h3.9v12.88h-2.42v-10.14l-2.56,10.14h-2.5l-2.55-10.14v10.14h-2.42Z"/>
    <path class="cls-5" d="m408.12,200.5l-2.24-.4c.25-.9.69-1.57,1.3-2s1.53-.65,2.74-.65c1.1,0,1.92.13,2.46.39s.92.59,1.14.99.33,1.14.33,2.21l-.03,2.88c0,.82.04,1.43.12,1.81s.23.81.44,1.25h-2.44c-.06-.16-.14-.41-.24-.73-.04-.15-.07-.24-.09-.29-.42.41-.87.72-1.35.92s-.99.31-1.54.31c-.96,0-1.72-.26-2.27-.78s-.83-1.18-.83-1.98c0-.53.13-1,.38-1.41s.6-.73,1.06-.95,1.11-.41,1.96-.58c1.15-.22,1.95-.42,2.4-.61v-.25c0-.47-.12-.81-.35-1.02s-.68-.3-1.33-.3c-.44,0-.78.09-1.03.26s-.45.48-.6.91Zm3.3,2c-.32.11-.82.23-1.5.38s-1.13.29-1.34.43c-.32.23-.48.52-.48.87s.13.64.39.9.59.38.98.38c.45,0,.87-.15,1.27-.44.3-.22.5-.5.59-.82.06-.21.1-.61.1-1.2v-.49Z"/>
    <path class="cls-5" d="m418.65,206.99h-2.47v-9.33h2.29v1.33c.39-.63.75-1.04,1.06-1.24s.67-.3,1.07-.3c.56,0,1.1.16,1.63.47l-.76,2.15c-.42-.27-.8-.4-1.16-.4s-.64.1-.88.29-.43.53-.57,1.03-.21,1.54-.21,3.13v2.88Z"/>
    <path class="cls-5" d="m423.2,206.99v-12.88h2.47v6.84l2.89-3.29h3.04l-3.19,3.41,3.42,5.92h-2.66l-2.35-4.19-1.15,1.2v2.99h-2.47Z"/>
    <path class="cls-5" d="m438.71,204.02l2.46.41c-.32.9-.82,1.59-1.5,2.06s-1.54.71-2.56.71c-1.62,0-2.82-.53-3.6-1.59-.62-.85-.92-1.92-.92-3.22,0-1.55.4-2.76,1.21-3.63s1.83-1.31,3.07-1.31c1.39,0,2.48.46,3.29,1.38s1.19,2.32,1.15,4.21h-6.19c.02.73.22,1.3.6,1.71s.86.61,1.42.61c.39,0,.71-.11.98-.32s.46-.55.6-1.02Zm.14-2.5c-.02-.71-.2-1.26-.55-1.63s-.78-.56-1.28-.56c-.54,0-.98.2-1.34.59s-.52.93-.52,1.6h3.69Z"/>
    <path class="cls-5" d="m447.59,197.65v1.97h-1.69v3.76c0,.76.02,1.21.05,1.33s.11.23.22.31.25.12.42.12c.23,0,.56-.08.99-.24l.21,1.92c-.57.25-1.22.37-1.95.37-.45,0-.85-.07-1.2-.22s-.62-.34-.79-.58-.28-.56-.35-.96c-.05-.29-.08-.87-.08-1.74v-4.07h-1.13v-1.97h1.13v-1.85l2.48-1.44v3.3h1.69Z"/>
    <path class="cls-5" d="m371.22,219.25h2.3v1.37c.3-.47.7-.85,1.21-1.14s1.08-.44,1.7-.44c1.08,0,2,.42,2.76,1.27s1.13,2.03,1.13,3.55-.38,2.77-1.14,3.63-1.68,1.3-2.77,1.3c-.52,0-.98-.1-1.4-.31s-.86-.56-1.32-1.05v4.7h-2.47v-12.88Zm2.44,4.51c0,1.05.21,1.82.62,2.32s.92.75,1.52.75,1.05-.23,1.43-.69.57-1.21.57-2.26c0-.98-.2-1.71-.59-2.18s-.88-.71-1.46-.71-1.1.23-1.5.7-.6,1.16-.6,2.07Z"/>
    <path class="cls-5" d="m387.69,225.62l2.46.41c-.32.9-.82,1.59-1.5,2.06s-1.54.71-2.56.71c-1.62,0-2.82-.53-3.6-1.59-.62-.85-.92-1.92-.92-3.22,0-1.55.4-2.76,1.21-3.63s1.83-1.31,3.07-1.31c1.39,0,2.48.46,3.29,1.38s1.19,2.32,1.15,4.21h-6.19c.02.73.22,1.3.6,1.71s.86.61,1.42.61c.39,0,.71-.11.98-.32s.46-.55.6-1.02Zm.14-2.5c-.02-.71-.2-1.26-.55-1.63s-.78-.56-1.28-.56c-.54,0-.98.2-1.34.59s-.52.93-.52,1.6h3.69Z"/>
    <path class="cls-5" d="m400.78,228.59h-2.47v-4.76c0-1.01-.05-1.66-.16-1.96s-.28-.53-.51-.69-.52-.25-.86-.25c-.43,0-.81.12-1.15.35s-.57.54-.7.93-.19,1.1-.19,2.14v4.23h-2.47v-9.33h2.29v1.37c.81-1.05,1.84-1.58,3.08-1.58.54,0,1.04.1,1.49.29s.79.45,1.02.75.39.65.48,1.04.14.94.14,1.66v5.8Z"/>
    <path class="cls-5" d="m408.69,225.62l2.46.41c-.32.9-.82,1.59-1.5,2.06s-1.54.71-2.56.71c-1.62,0-2.82-.53-3.6-1.59-.62-.85-.92-1.92-.92-3.22,0-1.55.4-2.76,1.21-3.63s1.83-1.31,3.07-1.31c1.39,0,2.48.46,3.29,1.38s1.19,2.32,1.15,4.21h-6.19c.02.73.22,1.3.6,1.71s.86.61,1.42.61c.39,0,.71-.11.98-.32s.46-.55.6-1.02Zm.14-2.5c-.02-.71-.2-1.26-.55-1.63s-.78-.56-1.28-.56c-.54,0-.98.2-1.34.59s-.52.93-.52,1.6h3.69Z"/>
    <path class="cls-5" d="m417.58,219.25v1.97h-1.69v3.76c0,.76.02,1.21.05,1.33s.11.23.22.31.25.12.42.12c.23,0,.56-.08.99-.24l.21,1.92c-.57.25-1.22.37-1.95.37-.45,0-.85-.07-1.2-.22s-.62-.34-.79-.58-.28-.56-.35-.96c-.05-.29-.08-.87-.08-1.74v-4.07h-1.13v-1.97h1.13v-1.85l2.48-1.44v3.3h1.69Z"/>
    <path class="cls-5" d="m421.66,228.59h-2.47v-9.33h2.29v1.33c.39-.63.75-1.04,1.06-1.24s.67-.3,1.07-.3c.56,0,1.1.16,1.63.47l-.76,2.15c-.42-.27-.8-.4-1.16-.4s-.64.1-.88.29-.43.53-.57,1.03-.21,1.54-.21,3.13v2.88Z"/>
    <path class="cls-5" d="m428.14,222.1l-2.24-.4c.25-.9.69-1.57,1.3-2s1.53-.65,2.74-.65c1.1,0,1.92.13,2.46.39s.92.59,1.14.99.33,1.14.33,2.21l-.03,2.88c0,.82.04,1.43.12,1.81s.23.81.44,1.25h-2.44c-.06-.16-.14-.41-.24-.73-.04-.15-.07-.24-.09-.29-.42.41-.87.72-1.35.92s-.99.31-1.54.31c-.96,0-1.72-.26-2.27-.78s-.83-1.18-.83-1.98c0-.53.13-1,.38-1.41s.61-.73,1.06-.95,1.11-.41,1.96-.58c1.15-.22,1.95-.42,2.4-.61v-.25c0-.47-.12-.81-.35-1.02s-.68-.3-1.33-.3c-.44,0-.78.09-1.03.26s-.45.48-.6.91Zm3.3,2c-.32.11-.82.23-1.5.38s-1.13.29-1.34.43c-.32.23-.48.52-.48.87s.13.64.39.9.59.38.98.38c.45,0,.87-.15,1.27-.44.3-.22.5-.5.59-.82.06-.21.1-.61.1-1.2v-.49Z"/>
    <path class="cls-5" d="m440.59,219.25v1.97h-1.69v3.76c0,.76.02,1.21.05,1.33s.11.23.22.31.25.12.42.12c.23,0,.56-.08.99-.24l.21,1.92c-.57.25-1.22.37-1.95.37-.45,0-.85-.07-1.2-.22s-.62-.34-.79-.58-.28-.56-.35-.96c-.05-.29-.08-.87-.08-1.74v-4.07h-1.13v-1.97h1.13v-1.85l2.48-1.44v3.3h1.69Z"/>
    <path class="cls-5" d="m442.3,217.99v-2.29h2.47v2.29h-2.47Zm0,10.6v-9.33h2.47v9.33h-2.47Z"/>
    <path class="cls-5" d="m446.73,223.79c0-.82.2-1.61.61-2.38s.98-1.35,1.72-1.76,1.57-.61,2.48-.61c1.41,0,2.57.46,3.47,1.38s1.35,2.08,1.35,3.48-.46,2.58-1.37,3.51-2.06,1.39-3.44,1.39c-.86,0-1.67-.19-2.45-.58s-1.37-.95-1.77-1.7-.61-1.66-.61-2.73Zm2.53.13c0,.93.22,1.63.66,2.13s.98.74,1.63.74,1.19-.25,1.62-.74.65-1.21.65-2.14-.22-1.62-.65-2.11-.98-.74-1.62-.74-1.19.25-1.63.74-.66,1.2-.66,2.13Z"/>
    <path class="cls-5" d="m466.79,228.59h-2.47v-4.76c0-1.01-.05-1.66-.16-1.96s-.28-.53-.51-.69-.52-.25-.86-.25c-.43,0-.81.12-1.15.35s-.57.54-.7.93-.19,1.1-.19,2.14v4.23h-2.47v-9.33h2.29v1.37c.81-1.05,1.84-1.58,3.08-1.58.54,0,1.04.1,1.49.29s.79.45,1.02.75.39.65.48,1.04.14.94.14,1.66v5.8Z"/>
  </g>
  <g>
    <path class="cls-5" d="m561.31,206.99v-12.88h4.18c1.58,0,2.61.06,3.09.19.74.19,1.36.61,1.85,1.26s.75,1.48.75,2.51c0,.79-.14,1.46-.43,2s-.65.96-1.09,1.27-.89.51-1.35.61c-.62.12-1.52.18-2.7.18h-1.7v4.86h-2.6Zm2.6-10.71v3.66h1.42c1.03,0,1.71-.07,2.06-.2s.62-.35.81-.63.29-.62.29-1c0-.47-.14-.86-.41-1.16s-.62-.5-1.05-.57c-.31-.06-.93-.09-1.87-.09h-1.26Z"/>
    <path class="cls-5" d="m575.66,206.99h-2.47v-9.33h2.29v1.33c.39-.63.75-1.04,1.06-1.24s.67-.3,1.07-.3c.56,0,1.1.16,1.62.47l-.76,2.15c-.42-.27-.8-.4-1.16-.4s-.64.1-.88.29-.43.53-.57,1.03-.21,1.54-.21,3.13v2.88Z"/>
    <path class="cls-5" d="m579.73,202.19c0-.82.2-1.61.61-2.38s.98-1.35,1.72-1.76,1.57-.61,2.48-.61c1.41,0,2.57.46,3.47,1.38s1.35,2.08,1.35,3.48-.46,2.58-1.37,3.51-2.06,1.39-3.44,1.39c-.86,0-1.67-.19-2.45-.58s-1.37-.95-1.77-1.7-.61-1.66-.61-2.73Zm2.53.13c0,.93.22,1.63.66,2.13s.98.74,1.62.74,1.19-.25,1.62-.74.66-1.21.66-2.14-.22-1.62-.66-2.11-.98-.74-1.62-.74-1.19.25-1.62.74-.66,1.2-.66,2.13Z"/>
    <path class="cls-5" d="m599.86,206.99h-2.29v-1.37c-.38.53-.83.93-1.35,1.19s-1.04.39-1.57.39c-1.07,0-1.99-.43-2.76-1.3s-1.15-2.07-1.15-3.62.37-2.78,1.12-3.61,1.69-1.23,2.82-1.23c1.04,0,1.95.43,2.71,1.3v-4.64h2.47v12.88Zm-6.59-4.87c0,1,.14,1.72.41,2.16.4.64.96.97,1.67.97.57,0,1.05-.24,1.45-.73s.6-1.21.6-2.17c0-1.07-.19-1.84-.58-2.32s-.88-.71-1.48-.71-1.08.23-1.47.7-.59,1.16-.59,2.09Z"/>
    <path class="cls-5" d="m608.44,206.99v-1.4c-.34.5-.79.89-1.34,1.18s-1.14.43-1.75.43-1.19-.14-1.69-.41-.86-.66-1.08-1.16-.33-1.19-.33-2.07v-5.91h2.47v4.29c0,1.31.05,2.12.14,2.41s.26.53.5.7.54.26.91.26c.42,0,.8-.12,1.13-.35s.56-.52.69-.86.18-1.18.18-2.52v-3.94h2.47v9.33h-2.29Z"/>
    <path class="cls-5" d="m621.43,200.41l-2.43.44c-.08-.49-.27-.85-.56-1.1s-.67-.37-1.13-.37c-.62,0-1.11.21-1.47.64s-.55,1.14-.55,2.13c0,1.11.19,1.89.56,2.35s.87.69,1.5.69c.47,0,.85-.13,1.15-.4s.51-.73.63-1.38l2.43.41c-.25,1.11-.73,1.95-1.45,2.52s-1.67.85-2.88.85c-1.37,0-2.45-.43-3.26-1.29s-1.22-2.05-1.22-3.58.41-2.74,1.22-3.6,1.92-1.29,3.3-1.29c1.14,0,2.04.24,2.71.73s1.15,1.23,1.45,2.24Z"/>
    <path class="cls-5" d="m627.58,197.65v1.97h-1.69v3.76c0,.76.02,1.21.05,1.33s.11.23.22.31.25.12.42.12c.23,0,.56-.08.99-.24l.21,1.92c-.57.25-1.22.37-1.95.37-.45,0-.85-.07-1.21-.22s-.62-.34-.79-.58-.28-.56-.35-.96c-.05-.29-.08-.87-.08-1.74v-4.07h-1.13v-1.97h1.13v-1.85l2.48-1.44v3.3h1.69Z"/>
    <path class="cls-5" d="m548.34,228.59h-2.29v-1.37c-.38.53-.83.93-1.35,1.19-.52.26-1.04.39-1.57.39-1.07,0-1.99-.43-2.76-1.3-.76-.86-1.15-2.07-1.15-3.62s.37-2.78,1.12-3.61,1.68-1.23,2.82-1.23c1.04,0,1.95.43,2.71,1.3v-4.64h2.47v12.88Zm-6.59-4.87c0,1,.14,1.72.41,2.16.4.64.96.97,1.67.97.57,0,1.05-.24,1.45-.73s.6-1.21.6-2.17c0-1.07-.19-1.84-.58-2.32s-.88-.71-1.49-.71-1.08.23-1.47.7c-.39.47-.59,1.16-.59,2.09Z"/>
    <path class="cls-5" d="m556.18,225.62l2.46.41c-.32.9-.82,1.59-1.5,2.06-.68.47-1.54.71-2.56.71-1.62,0-2.82-.53-3.6-1.59-.62-.85-.92-1.92-.92-3.22,0-1.55.4-2.76,1.21-3.63s1.83-1.31,3.07-1.31c1.39,0,2.48.46,3.29,1.38s1.19,2.32,1.15,4.21h-6.19c.02.73.22,1.3.6,1.71s.86.61,1.42.61c.39,0,.71-.11.98-.32s.46-.55.6-1.02Zm.14-2.5c-.02-.71-.2-1.26-.55-1.63s-.78-.56-1.28-.56c-.54,0-.98.2-1.34.59s-.52.93-.52,1.6h3.69Z"/>
    <path class="cls-5" d="m563.35,228.59l-3.76-9.33h2.59l1.76,4.76.51,1.59c.13-.4.22-.67.25-.8.08-.26.17-.53.26-.79l1.78-4.76h2.54l-3.71,9.33h-2.22Z"/>
    <path class="cls-5" d="m576.2,225.62l2.46.41c-.32.9-.82,1.59-1.5,2.06-.68.47-1.54.71-2.56.71-1.62,0-2.82-.53-3.6-1.59-.62-.85-.92-1.92-.92-3.22,0-1.55.4-2.76,1.21-3.63s1.83-1.31,3.07-1.31c1.39,0,2.48.46,3.29,1.38s1.19,2.32,1.15,4.21h-6.19c.02.73.22,1.3.6,1.71s.86.61,1.42.61c.39,0,.71-.11.98-.32s.46-.55.6-1.02Zm.14-2.5c-.02-.71-.2-1.26-.55-1.63s-.78-.56-1.28-.56c-.54,0-.98.2-1.34.59s-.52.93-.52,1.6h3.69Z"/>
    <path class="cls-5" d="m580.81,228.59v-12.88h2.47v12.88h-2.47Z"/>
    <path class="cls-5" d="m585.24,223.79c0-.82.2-1.61.61-2.38s.98-1.35,1.72-1.76c.74-.4,1.57-.61,2.48-.61,1.41,0,2.57.46,3.47,1.38s1.35,2.08,1.35,3.48-.46,2.58-1.37,3.51c-.91.93-2.06,1.39-3.44,1.39-.86,0-1.67-.19-2.45-.58-.78-.39-1.37-.95-1.77-1.7s-.61-1.66-.61-2.73Zm2.53.13c0,.93.22,1.63.66,2.13s.98.74,1.63.74,1.18-.25,1.62-.74c.44-.49.65-1.21.65-2.14s-.22-1.62-.65-2.11c-.44-.49-.98-.74-1.62-.74s-1.19.25-1.63.74-.66,1.2-.66,2.13Z"/>
    <path class="cls-5" d="m596.73,219.25h2.3v1.37c.3-.47.7-.85,1.21-1.14s1.08-.44,1.7-.44c1.08,0,2,.42,2.76,1.27s1.13,2.03,1.13,3.55-.38,2.77-1.14,3.63-1.68,1.3-2.77,1.3c-.52,0-.98-.1-1.4-.31-.42-.21-.86-.56-1.32-1.05v4.7h-2.47v-12.88Zm2.44,4.51c0,1.05.21,1.82.62,2.32s.92.75,1.52.75,1.05-.23,1.43-.69.57-1.21.57-2.26c0-.98-.2-1.71-.59-2.18s-.88-.71-1.46-.71-1.1.23-1.5.7-.6,1.16-.6,2.07Z"/>
    <path class="cls-5" d="m607.61,219.25h2.28v1.27c.81-.99,1.78-1.49,2.91-1.49.6,0,1.12.12,1.56.37s.8.62,1.08,1.12c.41-.5.85-.87,1.33-1.12s.98-.37,1.52-.37c.69,0,1.27.14,1.74.42s.83.69,1.06,1.23c.17.4.25,1.04.25,1.93v5.97h-2.47v-5.33c0-.93-.08-1.52-.25-1.79-.23-.35-.58-.53-1.05-.53-.35,0-.67.11-.98.32s-.52.52-.66.93-.2,1.05-.2,1.93v4.48h-2.47v-5.12c0-.91-.04-1.49-.13-1.76s-.22-.46-.41-.59c-.19-.13-.44-.19-.75-.19-.38,0-.72.1-1.03.31s-.52.5-.66.89c-.13.39-.2,1.03-.2,1.92v4.54h-2.47v-9.33Z"/>
    <path class="cls-5" d="m629.21,225.62l2.46.41c-.32.9-.82,1.59-1.5,2.06-.68.47-1.54.71-2.56.71-1.62,0-2.82-.53-3.6-1.59-.62-.85-.92-1.92-.92-3.22,0-1.55.4-2.76,1.21-3.63s1.83-1.31,3.07-1.31c1.39,0,2.48.46,3.29,1.38s1.19,2.32,1.15,4.21h-6.19c.02.73.22,1.3.6,1.71s.86.61,1.42.61c.39,0,.71-.11.98-.32s.46-.55.6-1.02Zm.14-2.5c-.02-.71-.2-1.26-.55-1.63s-.78-.56-1.28-.56c-.54,0-.98.2-1.34.59s-.52.93-.52,1.6h3.69Z"/>
    <path class="cls-5" d="m642.3,228.59h-2.47v-4.76c0-1.01-.05-1.66-.16-1.96s-.28-.53-.51-.69c-.24-.16-.52-.25-.86-.25-.43,0-.81.12-1.15.35s-.57.54-.7.93c-.12.39-.19,1.1-.19,2.14v4.23h-2.47v-9.33h2.29v1.37c.81-1.05,1.84-1.58,3.08-1.58.54,0,1.04.1,1.49.29s.79.45,1.02.75c.23.3.39.65.48,1.04.09.39.14.94.14,1.66v5.8Z"/>
    <path class="cls-5" d="m649.09,219.25v1.97h-1.69v3.76c0,.76.02,1.21.05,1.33.03.13.11.23.22.31.12.08.25.12.42.12.23,0,.56-.08.99-.24l.21,1.92c-.57.25-1.22.37-1.95.37-.45,0-.85-.07-1.2-.22s-.62-.34-.79-.58c-.17-.24-.28-.56-.35-.96-.05-.29-.08-.87-.08-1.74v-4.07h-1.13v-1.97h1.13v-1.85l2.48-1.44v3.3h1.69Z"/>
  </g>
  <g>
    <path class="cls-5" d="m391.26,383.65v-12.88h3.89l2.34,8.79,2.31-8.79h3.9v12.88h-2.42v-10.14l-2.56,10.14h-2.5l-2.55-10.14v10.14h-2.42Z"/>
    <path class="cls-5" d="m408.12,377.16l-2.24-.4c.25-.9.69-1.57,1.3-2s1.53-.65,2.74-.65c1.1,0,1.92.13,2.46.39s.92.59,1.14.99.33,1.14.33,2.21l-.03,2.88c0,.82.04,1.43.12,1.81s.23.81.44,1.25h-2.44c-.06-.16-.14-.41-.24-.73-.04-.15-.07-.24-.09-.29-.42.41-.87.72-1.35.92s-.99.31-1.54.31c-.96,0-1.72-.26-2.27-.78s-.83-1.18-.83-1.98c0-.53.13-1,.38-1.41s.6-.73,1.06-.95,1.11-.41,1.96-.58c1.15-.22,1.95-.42,2.4-.61v-.25c0-.47-.12-.81-.35-1.02s-.68-.3-1.33-.3c-.44,0-.78.09-1.03.26s-.45.48-.6.91Zm3.3,2c-.32.11-.82.23-1.5.38s-1.13.29-1.34.43c-.32.23-.48.52-.48.87s.13.64.39.9.59.38.98.38c.45,0,.87-.15,1.27-.44.3-.22.5-.5.59-.82.06-.21.1-.61.1-1.2v-.49Z"/>
    <path class="cls-5" d="m418.65,383.65h-2.47v-9.33h2.29v1.33c.39-.63.75-1.04,1.06-1.24s.67-.3,1.07-.3c.56,0,1.1.16,1.63.47l-.76,2.15c-.42-.27-.8-.4-1.16-.4s-.64.1-.88.29-.43.53-.57,1.03-.21,1.54-.21,3.13v2.88Z"/>
    <path class="cls-5" d="m423.2,383.65v-12.88h2.47v6.84l2.89-3.29h3.04l-3.19,3.41,3.42,5.92h-2.66l-2.35-4.19-1.15,1.2v2.99h-2.47Z"/>
    <path class="cls-5" d="m438.71,380.68l2.46.41c-.32.9-.82,1.59-1.5,2.06s-1.54.71-2.56.71c-1.62,0-2.82-.53-3.6-1.59-.62-.85-.92-1.92-.92-3.22,0-1.55.4-2.76,1.21-3.63s1.83-1.31,3.07-1.31c1.39,0,2.48.46,3.29,1.38s1.19,2.32,1.15,4.21h-6.19c.02.73.22,1.3.6,1.71s.86.61,1.42.61c.39,0,.71-.11.98-.32s.46-.55.6-1.02Zm.14-2.5c-.02-.71-.2-1.26-.55-1.63s-.78-.56-1.28-.56c-.54,0-.98.2-1.34.59s-.52.93-.52,1.6h3.69Z"/>
    <path class="cls-5" d="m447.59,374.31v1.97h-1.69v3.76c0,.76.02,1.21.05,1.33s.11.23.22.31.25.12.42.12c.23,0,.56-.08.99-.24l.21,1.92c-.57.25-1.22.37-1.95.37-.45,0-.85-.07-1.2-.22s-.62-.34-.79-.58-.28-.56-.35-.96c-.05-.29-.08-.87-.08-1.74v-4.07h-1.13v-1.97h1.13v-1.85l2.48-1.44v3.3h1.69Z"/>
    <path class="cls-5" d="m373.34,405.25h-2.29v-1.37c-.38.53-.83.93-1.35,1.19s-1.04.39-1.57.39c-1.07,0-1.99-.43-2.76-1.3s-1.15-2.07-1.15-3.62.37-2.78,1.12-3.61,1.68-1.23,2.82-1.23c1.04,0,1.95.43,2.71,1.3v-4.64h2.47v12.88Zm-6.59-4.87c0,1,.14,1.72.41,2.16.4.64.96.97,1.67.97.57,0,1.05-.24,1.45-.73s.6-1.21.6-2.17c0-1.07-.19-1.84-.58-2.32s-.88-.71-1.49-.71-1.08.23-1.47.7-.59,1.16-.59,2.09Z"/>
    <path class="cls-5" d="m381.18,402.28l2.46.41c-.32.9-.82,1.59-1.5,2.06s-1.54.71-2.56.71c-1.62,0-2.82-.53-3.6-1.59-.62-.85-.92-1.92-.92-3.22,0-1.55.4-2.76,1.21-3.63s1.83-1.31,3.07-1.31c1.39,0,2.48.46,3.29,1.38s1.19,2.32,1.15,4.21h-6.19c.02.73.22,1.3.6,1.71s.86.61,1.42.61c.39,0,.71-.11.98-.32s.46-.55.6-1.02Zm.14-2.5c-.02-.71-.2-1.26-.55-1.63s-.78-.56-1.28-.56c-.54,0-.98.2-1.34.59s-.52.93-.52,1.6h3.69Z"/>
    <path class="cls-5" d="m388.35,405.25l-3.76-9.33h2.59l1.76,4.76.51,1.59c.13-.4.22-.67.25-.8.08-.26.17-.53.26-.79l1.78-4.76h2.54l-3.71,9.33h-2.22Z"/>
    <path class="cls-5" d="m401.2,402.28l2.46.41c-.32.9-.82,1.59-1.5,2.06s-1.54.71-2.56.71c-1.62,0-2.82-.53-3.6-1.59-.62-.85-.92-1.92-.92-3.22,0-1.55.4-2.76,1.21-3.63s1.83-1.31,3.07-1.31c1.39,0,2.48.46,3.29,1.38s1.19,2.32,1.15,4.21h-6.19c.02.73.22,1.3.6,1.71s.86.61,1.42.61c.39,0,.71-.11.98-.32s.46-.55.6-1.02Zm.14-2.5c-.02-.71-.2-1.26-.55-1.63s-.78-.56-1.28-.56c-.54,0-.98.2-1.34.59s-.52.93-.52,1.6h3.69Z"/>
    <path class="cls-5" d="m405.81,405.25v-12.88h2.47v12.88h-2.47Z"/>
    <path class="cls-5" d="m410.24,400.45c0-.82.2-1.61.61-2.38s.98-1.35,1.72-1.76,1.57-.61,2.48-.61c1.41,0,2.57.46,3.47,1.38s1.35,2.08,1.35,3.48-.46,2.58-1.37,3.51-2.06,1.39-3.44,1.39c-.86,0-1.67-.19-2.45-.58s-1.37-.95-1.77-1.7-.61-1.66-.61-2.73Zm2.53.13c0,.93.22,1.63.66,2.13s.98.74,1.63.74,1.18-.25,1.62-.74.66-1.21.66-2.14-.22-1.62-.66-2.11-.98-.74-1.62-.74-1.19.25-1.63.74-.66,1.2-.66,2.13Z"/>
    <path class="cls-5" d="m421.73,395.91h2.3v1.37c.3-.47.7-.85,1.21-1.14s1.08-.44,1.7-.44c1.08,0,2,.42,2.76,1.27s1.13,2.03,1.13,3.55-.38,2.77-1.14,3.63-1.68,1.3-2.77,1.3c-.52,0-.98-.1-1.4-.31s-.86-.56-1.32-1.05v4.7h-2.47v-12.88Zm2.44,4.51c0,1.05.21,1.82.62,2.32s.92.75,1.52.75,1.05-.23,1.43-.69.57-1.21.57-2.26c0-.98-.2-1.71-.59-2.18s-.88-.71-1.46-.71-1.1.23-1.5.7-.6,1.16-.6,2.07Z"/>
    <path class="cls-5" d="m432.61,395.91h2.28v1.27c.81-.99,1.78-1.49,2.91-1.49.6,0,1.12.12,1.56.37s.8.62,1.08,1.12c.41-.5.85-.87,1.33-1.12s.98-.37,1.52-.37c.69,0,1.27.14,1.74.42s.83.69,1.06,1.23c.17.4.25,1.04.25,1.93v5.97h-2.47v-5.33c0-.93-.08-1.52-.25-1.79-.23-.35-.58-.53-1.05-.53-.35,0-.67.11-.98.32s-.52.52-.66.93-.2,1.05-.2,1.93v4.48h-2.47v-5.12c0-.91-.04-1.49-.13-1.76s-.22-.46-.41-.59-.43-.19-.75-.19c-.38,0-.72.1-1.03.31s-.52.5-.66.89-.2,1.03-.2,1.92v4.54h-2.47v-9.33Z"/>
    <path class="cls-5" d="m454.21,402.28l2.46.41c-.32.9-.82,1.59-1.5,2.06s-1.54.71-2.56.71c-1.62,0-2.82-.53-3.6-1.59-.62-.85-.92-1.92-.92-3.22,0-1.55.4-2.76,1.21-3.63s1.83-1.31,3.07-1.31c1.39,0,2.48.46,3.29,1.38s1.19,2.32,1.15,4.21h-6.19c.02.73.22,1.3.6,1.71s.86.61,1.42.61c.39,0,.71-.11.98-.32s.46-.55.6-1.02Zm.14-2.5c-.02-.71-.2-1.26-.55-1.63s-.78-.56-1.28-.56c-.54,0-.98.2-1.34.59s-.52.93-.52,1.6h3.69Z"/>
    <path class="cls-5" d="m467.3,405.25h-2.47v-4.76c0-1.01-.05-1.66-.16-1.96s-.28-.53-.51-.69-.52-.25-.86-.25c-.43,0-.81.12-1.15.35s-.57.54-.7.93-.19,1.1-.19,2.14v4.23h-2.47v-9.33h2.29v1.37c.81-1.05,1.84-1.58,3.08-1.58.54,0,1.04.1,1.49.29s.79.45,1.02.75.39.65.48,1.04.14.94.14,1.66v5.8Z"/>
    <path class="cls-5" d="m474.09,395.91v1.97h-1.69v3.76c0,.76.02,1.21.05,1.33s.11.23.22.31.25.12.42.12c.23,0,.56-.08.99-.24l.21,1.92c-.57.25-1.22.37-1.95.37-.45,0-.85-.07-1.2-.22s-.62-.34-.79-.58-.28-.56-.35-.96c-.05-.29-.08-.87-.08-1.74v-4.07h-1.13v-1.97h1.13v-1.85l2.48-1.44v3.3h1.69Z"/>
  </g>
</svg>