<?xml version="1.0" encoding="UTF-8"?>
<svg id="layer" xmlns="http://www.w3.org/2000/svg" viewBox="0 0 988 525">
  <defs>
    <style>
      .cls-1 {
        stroke: #0333ff;
        stroke-width: 2px;
      }

      .cls-1, .cls-2, .cls-3 {
        stroke-miterlimit: 10;
      }

      .cls-1, .cls-3 {
        fill: none;
      }

      .cls-2 {
        stroke-dasharray: 0 0 4 4;
        stroke-width: .5px;
      }

      .cls-2, .cls-3 {
        stroke: #000;
      }

      .cls-2, .cls-4 {
        fill: #fff;
      }

      .cls-5, .cls-6 {
        fill: #000;
      }

      .cls-5, .cls-4 {
        stroke-width: 0px;
      }

      .cls-6 {
        font-family: ArialMT, Arial;
        font-size: 18px;
      }
    </style>
  </defs>
  <path class="cls-4" d="M170.91,408.58c47.75,0,103.87-18.6,178.43-106.98,33.98-40.28,75.47-82.87,127.94-82.87s93.95,42.59,127.94,82.87c74.55,88.38,130.68,106.98,178.43,106.98v15.72H170.91v-15.72"/>
  <line class="cls-2" x1="295.01" y1="357.29" x2="295.01" y2="435.97"/>
  <line class="cls-2" x1="390.04" y1="258.46" x2="390.04" y2="435.97"/>
  <line class="cls-2" x1="529.04" y1="232.77" x2="529.04" y2="435.97"/>
  <line class="cls-2" x1="624.07" y1="322.91" x2="624.07" y2="435.97"/>
  <g>
    <line class="cls-3" x1="170.91" y1="424.3" x2="785.8" y2="424.3"/>
    <polygon class="cls-5" points="784.34 429.28 792.98 424.3 784.34 419.31 784.34 429.28"/>
  </g>
  <path class="cls-1" d="M170.91,408.58c47.75,0,103.87-18.6,178.43-106.98"/>
  <path class="cls-1" d="M377.4,270.53c-9.9,9.99-19.24,20.61-28.06,31.07"/>
  <path class="cls-1" d="M783.64,408.58c-47.75,0-103.87-18.6-178.43-106.98-33.98-40.28-75.47-82.87-127.94-82.87-38.84,0-71.66,23.34-99.88,51.8"/>
  <g>
    <line class="cls-3" x1="170.9" y1="61.65" x2="170.71" y2="425.08"/>
    <polygon class="cls-5" points="165.92 63.11 170.91 54.48 175.89 63.12 165.92 63.11"/>
  </g>
  <text class="cls-6" transform="translate(159.42 182.38) rotate(-90)"><tspan x="0" y="0">Market share</tspan></text>
  <text class="cls-6" transform="translate(804.25 446.26)"><tspan x="0" y="0">Time</tspan></text>
</svg>