<?xml version="1.0" encoding="UTF-8"?>
<svg id="layer" xmlns="http://www.w3.org/2000/svg" viewBox="0 0 988 525">
  <defs>
    <style>
      .cls-1, .cls-2, .cls-3, .cls-4 {
        fill: #000;
      }

      .cls-1, .cls-5 {
        font-family: Arial-BoldMT, Arial;
        font-weight: 700;
      }

      .cls-1, .cls-5, .cls-4 {
        font-size: 14px;
      }

      .cls-6 {
        stroke-width: 2px;
      }

      .cls-6, .cls-7 {
        stroke: #0333ff;
      }

      .cls-6, .cls-7, .cls-8, .cls-9, .cls-10 {
        stroke-miterlimit: 10;
      }

      .cls-6, .cls-7, .cls-9, .cls-10 {
        fill: none;
      }

      .cls-11 {
        fill: #1d1d1b;
      }

      .cls-11, .cls-12, .cls-2, .cls-13 {
        stroke-width: 0px;
      }

      .cls-8 {
        stroke-dasharray: 0 0 4 4;
        stroke-width: .5px;
      }

      .cls-8, .cls-9 {
        stroke: #000;
      }

      .cls-8, .cls-13 {
        fill: #fff;
      }

      .cls-12, .cls-5 {
        fill: #0333ff;
      }

      .cls-3 {
        font-size: 18px;
      }

      .cls-3, .cls-4 {
        font-family: ArialMT, Arial;
      }

      .cls-10 {
        stroke: #1d1d1b;
      }
    </style>
  </defs>
  <g>
    <path class="cls-13" d="M170.8,408.58c47.75,0,103.87-18.6,178.43-106.98,33.98-40.28,75.47-82.87,127.94-82.87s93.95,42.59,127.94,82.87c74.55,88.38,130.68,106.98,178.43,106.98v15.72H170.8v-15.72"/>
    <line class="cls-8" x1="294.9" y1="408.65" x2="294.9" y2="435.97"/>
    <line class="cls-8" x1="389.93" y1="408.65" x2="389.93" y2="435.97"/>
    <line class="cls-8" x1="528.93" y1="408.58" x2="528.93" y2="435.97"/>
    <line class="cls-8" x1="623.96" y1="408.58" x2="623.96" y2="435.97"/>
    <text class="cls-1" transform="translate(197.07 459.23)"><tspan x="0" y="0">Innovators</tspan></text>
    <text class="cls-5" transform="translate(409.54 318.12)"><tspan x="0" y="0">Critical mass</tspan></text>
    <g>
      <path class="cls-2" d="M326.31,450.83v-10.02h7.43v1.7h-5.41v2.22h5.03v1.69h-5.03v2.73h5.6v1.69h-7.62Z"/>
      <path class="cls-2" d="M337.07,445.78l-1.74-.31c.2-.7.53-1.22,1.01-1.56s1.19-.51,2.13-.51c.86,0,1.5.1,1.91.3s.71.46.88.77c.17.31.26.89.26,1.72l-.02,2.24c0,.64.03,1.11.09,1.41.06.3.18.63.35.97h-1.9c-.05-.13-.11-.32-.18-.57-.03-.11-.05-.19-.07-.23-.33.32-.68.56-1.05.72s-.77.24-1.2.24c-.75,0-1.34-.2-1.77-.61-.43-.41-.65-.92-.65-1.54,0-.41.1-.78.29-1.1s.47-.57.82-.74c.35-.17.86-.32,1.53-.45.9-.17,1.52-.33,1.87-.47v-.19c0-.37-.09-.63-.27-.79s-.53-.24-1.03-.24c-.34,0-.61.07-.8.2s-.35.37-.46.71ZM339.64,447.34c-.25.08-.64.18-1.17.29s-.88.23-1.05.33c-.25.18-.38.4-.38.68s.1.5.3.7.46.29.77.29c.35,0,.68-.11.99-.34.23-.17.38-.39.46-.64.05-.16.08-.48.08-.94v-.38Z"/>
      <path class="cls-2" d="M345.26,450.83h-1.92v-7.26h1.78v1.03c.31-.49.58-.81.82-.96.24-.15.52-.23.83-.23.44,0,.86.12,1.26.36l-.59,1.67c-.32-.21-.62-.31-.9-.31s-.5.07-.68.22-.33.42-.44.8c-.11.39-.16,1.2-.16,2.43v2.24Z"/>
      <path class="cls-2" d="M348.87,450.83v-10.02h1.92v10.02h-1.92Z"/>
      <path class="cls-2" d="M351.85,443.57h2.04l1.74,5.15,1.7-5.15h1.99l-2.56,6.99-.46,1.26c-.17.42-.33.75-.48.97-.15.22-.33.4-.53.54-.2.14-.44.25-.73.32-.29.08-.62.12-.98.12s-.73-.04-1.09-.12l-.17-1.5c.3.06.57.09.81.09.45,0,.78-.13.99-.39s.38-.6.49-1l-2.76-7.28Z"/>
      <path class="cls-2" d="M315.3,462.58l-1.74-.31c.2-.7.53-1.22,1.01-1.56s1.19-.51,2.13-.51c.86,0,1.5.1,1.91.3s.71.46.88.77c.17.31.26.89.26,1.72l-.02,2.24c0,.64.03,1.11.09,1.41.06.3.18.63.35.97h-1.9c-.05-.13-.11-.32-.18-.57-.03-.11-.05-.19-.07-.23-.33.32-.68.56-1.05.72s-.77.24-1.2.24c-.75,0-1.34-.2-1.77-.61-.43-.41-.65-.92-.65-1.54,0-.41.1-.78.29-1.1s.47-.57.82-.74c.35-.17.86-.32,1.53-.45.9-.17,1.52-.33,1.87-.47v-.19c0-.37-.09-.63-.27-.79s-.53-.24-1.03-.24c-.34,0-.61.07-.8.2s-.35.37-.46.71ZM317.87,464.14c-.25.08-.64.18-1.17.29s-.88.23-1.05.33c-.25.18-.38.4-.38.68s.1.5.3.7.46.29.77.29c.35,0,.68-.11.99-.34.23-.17.38-.39.46-.64.05-.16.08-.48.08-.94v-.38Z"/>
      <path class="cls-2" d="M328.31,467.63h-1.78v-1.07c-.3.41-.65.72-1.05.93-.4.2-.81.3-1.22.3-.83,0-1.55-.34-2.14-1.01-.6-.67-.89-1.61-.89-2.81s.29-2.17.87-2.81,1.31-.96,2.19-.96c.81,0,1.51.34,2.11,1.01v-3.61h1.92v10.02ZM323.18,463.84c0,.77.11,1.34.32,1.68.31.5.74.75,1.3.75.44,0,.82-.19,1.13-.56s.46-.94.46-1.69c0-.83-.15-1.43-.45-1.8s-.69-.55-1.16-.55-.84.18-1.14.54c-.31.36-.46.9-.46,1.62Z"/>
      <path class="cls-2" d="M329.76,463.9c0-.64.16-1.26.47-1.85s.76-1.05,1.34-1.37c.58-.31,1.22-.47,1.93-.47,1.1,0,2,.36,2.7,1.07s1.05,1.61,1.05,2.7-.35,2.01-1.06,2.73c-.71.72-1.6,1.08-2.68,1.08-.67,0-1.3-.15-1.9-.45-.6-.3-1.06-.74-1.38-1.32s-.47-1.29-.47-2.12ZM331.72,464c0,.72.17,1.27.51,1.65s.76.57,1.26.57.92-.19,1.26-.57c.34-.38.51-.94.51-1.67s-.17-1.26-.51-1.64c-.34-.38-.76-.57-1.26-.57s-.92.19-1.26.57-.51.93-.51,1.65Z"/>
      <path class="cls-2" d="M338.7,460.37h1.79v1.07c.23-.36.55-.66.94-.89s.84-.34,1.32-.34c.84,0,1.56.33,2.15.99s.88,1.58.88,2.76-.3,2.15-.89,2.83-1.31,1.01-2.15,1.01c-.4,0-.76-.08-1.09-.24-.33-.16-.67-.43-1.03-.82v3.66h-1.92v-10.02ZM340.6,463.87c0,.82.16,1.42.49,1.81s.72.58,1.18.58.82-.18,1.11-.54.44-.94.44-1.76c0-.76-.15-1.33-.46-1.7s-.68-.55-1.13-.55-.86.18-1.17.54-.46.9-.46,1.61Z"/>
      <path class="cls-2" d="M350.63,460.37v1.53h-1.31v2.93c0,.59.01.94.04,1.04.03.1.08.18.17.24.09.06.2.1.32.1.18,0,.44-.06.77-.18l.16,1.49c-.45.19-.95.29-1.52.29-.35,0-.66-.06-.94-.17s-.48-.27-.61-.45c-.13-.18-.22-.43-.27-.75-.04-.22-.06-.67-.06-1.35v-3.17h-.88v-1.53h.88v-1.44l1.93-1.12v2.56h1.31Z"/>
      <path class="cls-2" d="M356.17,465.32l1.91.32c-.25.7-.63,1.24-1.17,1.6-.53.37-1.19.55-1.99.55-1.26,0-2.2-.41-2.8-1.24-.48-.66-.72-1.49-.72-2.5,0-1.2.31-2.15.94-2.83s1.42-1.02,2.39-1.02c1.08,0,1.93.36,2.56,1.07s.92,1.81.9,3.28h-4.81c.01.57.17,1.01.46,1.33s.67.48,1.11.48c.3,0,.55-.08.76-.25s.36-.43.46-.79ZM356.28,463.38c-.01-.56-.16-.98-.43-1.27s-.61-.43-1-.43c-.42,0-.77.15-1.04.46s-.41.72-.4,1.24h2.87Z"/>
      <path class="cls-2" d="M361.59,467.63h-1.92v-7.26h1.78v1.03c.31-.49.58-.81.82-.96.24-.15.52-.23.83-.23.44,0,.86.12,1.26.36l-.59,1.67c-.32-.21-.62-.31-.9-.31s-.5.07-.68.22-.33.42-.44.8c-.11.39-.16,1.2-.16,2.43v2.24Z"/>
      <path class="cls-2" d="M364.52,465.56l1.93-.29c.08.37.25.66.5.85s.6.29,1.05.29c.5,0,.87-.09,1.12-.27.17-.13.25-.3.25-.51,0-.15-.05-.27-.14-.36-.1-.09-.31-.18-.64-.25-1.55-.34-2.53-.65-2.95-.94-.57-.39-.86-.94-.86-1.63,0-.63.25-1.16.75-1.59s1.27-.64,2.31-.64,1.73.16,2.21.49.82.8,1,1.44l-1.81.33c-.08-.28-.22-.5-.44-.65-.22-.15-.53-.23-.93-.23-.51,0-.87.07-1.09.21-.15.1-.22.23-.22.39,0,.14.06.25.19.35.17.13.77.31,1.79.54,1.02.23,1.74.52,2.14.85.4.34.6.82.6,1.43,0,.67-.28,1.24-.83,1.72s-1.38.72-2.47.72c-.99,0-1.77-.2-2.35-.6-.58-.4-.95-.95-1.13-1.63Z"/>
    </g>
    <g>
      <path class="cls-2" d="M443.33,450.83v-10.02h7.43v1.7h-5.41v2.22h5.03v1.69h-5.03v2.73h5.6v1.69h-7.62Z"/>
      <path class="cls-2" d="M454.09,445.78l-1.74-.31c.2-.7.53-1.22,1.01-1.56s1.19-.51,2.13-.51c.86,0,1.5.1,1.91.3.42.2.71.46.88.77.17.31.26.89.26,1.72l-.02,2.24c0,.64.03,1.11.09,1.41.06.3.18.63.35.97h-1.9c-.05-.13-.11-.32-.18-.57-.03-.11-.05-.19-.07-.23-.33.32-.68.56-1.05.72-.38.16-.77.24-1.2.24-.75,0-1.34-.2-1.77-.61-.43-.41-.64-.92-.64-1.54,0-.41.1-.78.29-1.1.2-.32.47-.57.82-.74s.86-.32,1.53-.45c.9-.17,1.52-.33,1.87-.47v-.19c0-.37-.09-.63-.27-.79-.18-.16-.53-.24-1.03-.24-.34,0-.61.07-.8.2s-.35.37-.46.71ZM456.66,447.34c-.25.08-.64.18-1.17.29s-.88.23-1.04.33c-.25.18-.38.4-.38.68s.1.5.3.7c.2.2.46.29.77.29.35,0,.68-.11.99-.34.23-.17.38-.39.46-.64.05-.16.08-.48.08-.94v-.38Z"/>
      <path class="cls-2" d="M462.28,450.83h-1.92v-7.26h1.79v1.03c.3-.49.58-.81.82-.96.24-.15.52-.23.83-.23.44,0,.86.12,1.26.36l-.59,1.67c-.32-.21-.62-.31-.9-.31s-.5.07-.68.22c-.19.15-.33.42-.44.8s-.16,1.2-.16,2.43v2.24Z"/>
      <path class="cls-2" d="M465.89,450.83v-10.02h1.92v10.02h-1.92Z"/>
      <path class="cls-2" d="M468.87,443.57h2.04l1.74,5.15,1.7-5.15h1.99l-2.56,6.99-.46,1.26c-.17.42-.33.75-.48.97s-.33.4-.53.54c-.2.14-.44.25-.73.32s-.62.12-.98.12-.73-.04-1.09-.12l-.17-1.5c.3.06.57.09.81.09.45,0,.78-.13.99-.39.21-.26.38-.6.49-1l-2.76-7.28Z"/>
      <path class="cls-2" d="M433.06,460.37h1.77v.99c.63-.77,1.39-1.16,2.26-1.16.46,0,.87.1,1.21.29s.62.48.84.87c.32-.39.66-.68,1.03-.87s.76-.29,1.18-.29c.53,0,.98.11,1.35.32s.64.53.83.95c.13.31.2.81.2,1.5v4.64h-1.92v-4.15c0-.72-.07-1.19-.2-1.39-.18-.27-.45-.41-.82-.41-.27,0-.52.08-.76.25-.24.16-.41.4-.51.72-.11.32-.16.82-.16,1.5v3.49h-1.92v-3.98c0-.71-.04-1.16-.1-1.37s-.17-.36-.32-.46c-.14-.1-.34-.15-.59-.15-.29,0-.56.08-.8.24-.24.16-.41.39-.51.69-.1.3-.15.8-.15,1.5v3.53h-1.92v-7.26Z"/>
      <path class="cls-2" d="M447.09,462.58l-1.74-.31c.2-.7.53-1.22,1.01-1.56s1.19-.51,2.13-.51c.86,0,1.5.1,1.91.3.42.2.71.46.88.77.17.31.26.89.26,1.72l-.02,2.24c0,.64.03,1.11.09,1.41.06.3.18.63.35.97h-1.9c-.05-.13-.11-.32-.18-.57-.03-.11-.05-.19-.07-.23-.33.32-.68.56-1.05.72-.38.16-.77.24-1.2.24-.75,0-1.34-.2-1.77-.61-.43-.41-.64-.92-.64-1.54,0-.41.1-.78.29-1.1.2-.32.47-.57.82-.74s.86-.32,1.53-.45c.9-.17,1.52-.33,1.87-.47v-.19c0-.37-.09-.63-.27-.79-.18-.16-.53-.24-1.03-.24-.34,0-.61.07-.8.2s-.35.37-.46.71ZM449.66,464.14c-.25.08-.64.18-1.17.29s-.88.23-1.04.33c-.25.18-.38.4-.38.68s.1.5.3.7c.2.2.46.29.77.29.35,0,.68-.11.99-.34.23-.17.38-.39.46-.64.05-.16.08-.48.08-.94v-.38Z"/>
      <path class="cls-2" d="M455.32,460.37v7.03c0,.93-.06,1.58-.18,1.96s-.35.68-.7.89-.78.32-1.32.32c-.19,0-.4-.02-.62-.05-.22-.03-.46-.09-.71-.15l.33-1.64c.09.02.18.03.26.04.08.01.15.02.22.02.2,0,.36-.04.48-.13s.21-.19.25-.3.06-.47.06-1.07v-6.92h1.92ZM453.4,459.38v-1.78h1.92v1.78h-1.92Z"/>
      <path class="cls-2" d="M456.89,463.9c0-.64.16-1.26.47-1.85s.76-1.05,1.34-1.37,1.22-.47,1.93-.47c1.1,0,2,.36,2.7,1.07.7.71,1.05,1.61,1.05,2.7s-.35,2.01-1.06,2.73-1.6,1.08-2.68,1.08c-.67,0-1.3-.15-1.9-.45s-1.06-.74-1.38-1.32-.47-1.29-.47-2.12ZM458.86,464c0,.72.17,1.27.51,1.65s.76.57,1.26.57.92-.19,1.26-.57.51-.94.51-1.67-.17-1.26-.51-1.64-.76-.57-1.26-.57-.92.19-1.26.57-.51.93-.51,1.65Z"/>
      <path class="cls-2" d="M467.72,467.63h-1.92v-7.26h1.79v1.03c.3-.49.58-.81.82-.96.24-.15.52-.23.83-.23.44,0,.86.12,1.26.36l-.59,1.67c-.32-.21-.62-.31-.9-.31s-.5.07-.68.22c-.19.15-.33.42-.44.8s-.16,1.2-.16,2.43v2.24Z"/>
      <path class="cls-2" d="M471.33,459.38v-1.78h1.92v1.78h-1.92ZM471.33,467.63v-7.26h1.92v7.26h-1.92Z"/>
      <path class="cls-2" d="M478.55,460.37v1.53h-1.31v2.93c0,.59.01.94.04,1.04s.08.18.17.24c.09.06.2.1.32.1.18,0,.44-.06.77-.18l.16,1.49c-.45.19-.95.29-1.52.29-.35,0-.66-.06-.94-.17-.28-.12-.48-.27-.61-.45-.13-.18-.22-.43-.27-.75-.04-.22-.06-.67-.06-1.35v-3.17h-.88v-1.53h.88v-1.44l1.93-1.12v2.56h1.31Z"/>
      <path class="cls-2" d="M478.97,460.37h2.04l1.74,5.15,1.7-5.15h1.99l-2.56,6.99-.46,1.26c-.17.42-.33.75-.48.97s-.33.4-.53.54c-.2.14-.44.25-.73.32s-.62.12-.98.12-.73-.04-1.09-.12l-.17-1.5c.3.06.57.09.81.09.45,0,.78-.13.99-.39.21-.26.38-.6.49-1l-2.76-7.28Z"/>
    </g>
    <g>
      <path class="cls-2" d="M563.13,450.83v-9.94h2.02v8.25h5.03v1.69h-7.05Z"/>
      <path class="cls-2" d="M573.05,445.78l-1.74-.31c.2-.7.53-1.22,1.01-1.56s1.19-.51,2.13-.51c.86,0,1.5.1,1.91.3s.71.46.88.77c.17.31.26.89.26,1.72l-.02,2.24c0,.64.03,1.11.09,1.41.06.3.18.63.35.97h-1.9c-.05-.13-.11-.32-.18-.57-.03-.11-.05-.19-.07-.23-.33.32-.68.56-1.05.72s-.77.24-1.2.24c-.75,0-1.34-.2-1.77-.61-.43-.41-.65-.92-.65-1.54,0-.41.1-.78.29-1.1s.47-.57.82-.74c.35-.17.86-.32,1.53-.45.9-.17,1.52-.33,1.87-.47v-.19c0-.37-.09-.63-.27-.79s-.53-.24-1.03-.24c-.34,0-.61.07-.8.2s-.35.37-.46.71ZM575.62,447.34c-.25.08-.64.18-1.17.29s-.88.23-1.05.33c-.25.18-.38.4-.38.68s.1.5.3.7.46.29.77.29c.35,0,.68-.11.99-.34.23-.17.38-.39.46-.64.05-.16.08-.48.08-.94v-.38Z"/>
      <path class="cls-2" d="M582.73,443.57v1.53h-1.31v2.93c0,.59.01.94.04,1.04.03.1.08.18.17.24.09.06.2.1.32.1.18,0,.44-.06.77-.18l.16,1.49c-.45.19-.95.29-1.52.29-.35,0-.66-.06-.94-.17s-.48-.27-.61-.45c-.13-.18-.22-.43-.27-.75-.04-.22-.06-.67-.06-1.35v-3.17h-.88v-1.53h.88v-1.44l1.93-1.12v2.56h1.31Z"/>
      <path class="cls-2" d="M588.26,448.52l1.91.32c-.25.7-.63,1.24-1.17,1.6-.53.37-1.19.55-1.99.55-1.26,0-2.2-.41-2.8-1.24-.48-.66-.72-1.49-.72-2.5,0-1.2.31-2.15.94-2.83s1.42-1.02,2.39-1.02c1.08,0,1.93.36,2.56,1.07s.92,1.81.9,3.28h-4.81c.01.57.17,1.01.46,1.33s.67.48,1.11.48c.3,0,.55-.08.76-.25s.36-.43.46-.79ZM588.37,446.58c-.01-.56-.16-.98-.43-1.27s-.61-.43-1-.43c-.42,0-.77.15-1.04.46s-.41.72-.4,1.24h2.87Z"/>
      <path class="cls-2" d="M550.08,460.37h1.77v.99c.63-.77,1.39-1.16,2.26-1.16.46,0,.87.1,1.21.29s.62.48.84.87c.32-.39.66-.68,1.03-.87s.76-.29,1.18-.29c.53,0,.98.11,1.35.32s.64.53.83.95c.13.31.2.81.2,1.5v4.64h-1.92v-4.15c0-.72-.07-1.19-.2-1.39-.18-.27-.45-.41-.82-.41-.27,0-.52.08-.76.25s-.41.4-.51.72-.16.82-.16,1.5v3.49h-1.92v-3.98c0-.71-.03-1.16-.1-1.37s-.17-.36-.32-.46c-.14-.1-.34-.15-.58-.15-.3,0-.56.08-.8.24s-.41.39-.51.69c-.1.3-.15.8-.15,1.5v3.53h-1.92v-7.26Z"/>
      <path class="cls-2" d="M564.11,462.58l-1.74-.31c.2-.7.53-1.22,1.01-1.56s1.19-.51,2.13-.51c.86,0,1.5.1,1.91.3s.71.46.88.77c.17.31.26.89.26,1.72l-.02,2.24c0,.64.03,1.11.09,1.41.06.3.18.63.35.97h-1.9c-.05-.13-.11-.32-.18-.57-.03-.11-.05-.19-.07-.23-.33.32-.68.56-1.05.72s-.77.24-1.2.24c-.75,0-1.34-.2-1.77-.61-.43-.41-.65-.92-.65-1.54,0-.41.1-.78.29-1.1s.47-.57.82-.74c.35-.17.86-.32,1.53-.45.9-.17,1.52-.33,1.87-.47v-.19c0-.37-.09-.63-.27-.79s-.53-.24-1.03-.24c-.34,0-.61.07-.8.2s-.35.37-.46.71ZM566.68,464.14c-.25.08-.64.18-1.17.29s-.88.23-1.05.33c-.25.18-.38.4-.38.68s.1.5.3.7.46.29.77.29c.35,0,.68-.11.99-.34.23-.17.38-.39.46-.64.05-.16.08-.48.08-.94v-.38Z"/>
      <path class="cls-2" d="M572.34,460.37v7.03c0,.93-.06,1.58-.18,1.96-.12.38-.35.68-.7.89-.34.21-.78.32-1.32.32-.19,0-.4-.02-.62-.05-.22-.03-.46-.09-.71-.15l.33-1.64c.09.02.18.03.26.04.08.01.15.02.22.02.2,0,.36-.04.48-.13.13-.08.21-.19.25-.3s.06-.47.06-1.07v-6.92h1.92ZM570.42,459.38v-1.78h1.92v1.78h-1.92Z"/>
      <path class="cls-2" d="M573.9,463.9c0-.64.16-1.26.47-1.85s.76-1.05,1.34-1.37c.58-.31,1.22-.47,1.93-.47,1.1,0,2,.36,2.7,1.07s1.05,1.61,1.05,2.7-.35,2.01-1.06,2.73c-.71.72-1.6,1.08-2.68,1.08-.67,0-1.3-.15-1.9-.45-.6-.3-1.06-.74-1.38-1.32s-.47-1.29-.47-2.12ZM575.87,464c0,.72.17,1.27.51,1.65s.76.57,1.26.57.92-.19,1.26-.57c.34-.38.51-.94.51-1.67s-.17-1.26-.51-1.64c-.34-.38-.76-.57-1.26-.57s-.92.19-1.26.57-.51.93-.51,1.65Z"/>
      <path class="cls-2" d="M584.74,467.63h-1.92v-7.26h1.78v1.03c.31-.49.58-.81.82-.96.24-.15.52-.23.83-.23.44,0,.86.12,1.26.36l-.59,1.67c-.32-.21-.62-.31-.9-.31s-.5.07-.68.22-.33.42-.44.8c-.11.39-.16,1.2-.16,2.43v2.24Z"/>
      <path class="cls-2" d="M588.35,459.38v-1.78h1.92v1.78h-1.92ZM588.35,467.63v-7.26h1.92v7.26h-1.92Z"/>
      <path class="cls-2" d="M595.57,460.37v1.53h-1.31v2.93c0,.59.01.94.04,1.04.03.1.08.18.17.24.09.06.2.1.32.1.18,0,.44-.06.77-.18l.16,1.49c-.45.19-.95.29-1.52.29-.35,0-.66-.06-.94-.17s-.48-.27-.61-.45c-.13-.18-.22-.43-.27-.75-.04-.22-.06-.67-.06-1.35v-3.17h-.88v-1.53h.88v-1.44l1.93-1.12v2.56h1.31Z"/>
      <path class="cls-2" d="M595.99,460.37h2.04l1.74,5.15,1.7-5.15h1.99l-2.56,6.99-.46,1.26c-.17.42-.33.75-.48.97-.15.22-.33.4-.53.54-.2.14-.44.25-.73.32-.29.08-.62.12-.98.12s-.73-.04-1.09-.12l-.17-1.5c.3.06.57.09.81.09.45,0,.78-.13.99-.39s.38-.6.49-1l-2.76-7.28Z"/>
    </g>
    <text class="cls-1" transform="translate(672.24 459.23)"><tspan x="0" y="0">Laggards</tspan></text>
    <path class="cls-6" d="M170.8,408.58c21.94,0,150.64-8.21,308.19-177.25C636.54,62.28,739.55,52.1,783.53,52.1"/>
    <circle class="cls-12" cx="389.93" cy="313.65" r="3.95"/>
    <g>
      <line class="cls-9" x1="170.8" y1="424.3" x2="785.69" y2="424.3"/>
      <polygon class="cls-2" points="784.23 429.28 792.87 424.3 784.23 419.31 784.23 429.28"/>
    </g>
    <path class="cls-10" d="M170.8,408.58c47.75,0,103.87-18.6,178.43-106.98"/>
    <path class="cls-10" d="M377.29,270.53c28.22-28.46,61.04-51.8,99.88-51.8,52.47,0,93.95,42.59,127.94,82.87,74.55,88.38,130.68,106.98,178.43,106.98"/>
    <g>
      <line class="cls-9" x1="170.79" y1="61.65" x2="170.6" y2="425.08"/>
      <polygon class="cls-2" points="165.81 63.11 170.8 54.48 175.78 63.12 165.81 63.11"/>
    </g>
    <text class="cls-3" transform="translate(159.31 189.42) rotate(-90)"><tspan x="0" y="0" xml:space="preserve"> Adoption rate</tspan></text>
    <text class="cls-3" transform="translate(804.14 446.26)"><tspan x="0" y="0">Time</tspan></text>
  </g>
  <g>
    <line class="cls-10" x1="189.54" y1="170.88" x2="342.05" y2="170.88"/>
    <polygon class="cls-11" points="191 175.86 182.36 170.88 191 165.89 191 175.86"/>
    <polygon class="cls-11" points="340.59 175.86 349.23 170.88 340.59 165.89 340.59 175.86"/>
  </g>
  <g>
    <line class="cls-10" x1="384.46" y1="170.88" x2="776.35" y2="170.88"/>
    <polygon class="cls-11" points="385.92 175.86 377.29 170.88 385.92 165.89 385.92 175.86"/>
    <polygon class="cls-11" points="774.89 175.86 783.53 170.88 774.89 165.89 774.89 175.86"/>
  </g>
  <text class="cls-1" transform="translate(250.97 124.11)"><tspan x="0" y="0">The „chasm“</tspan></text>
  <line class="cls-7" x1="344.24" y1="118.24" x2="366.06" y2="170.88"/>
  <text class="cls-4" transform="translate(217.8 193.63)"><tspan x="0" y="0">what works here</tspan></text>
  <text class="cls-4" transform="translate(535.07 193.63)"><tspan x="0" y="0">must not work there</tspan></text>
  <line class="cls-8" x1="377.29" y1="150.63" x2="377.29" y2="286.06"/>
</svg>