<?xml version="1.0" encoding="UTF-8"?>
<svg id="Ebene_1" data-name="Ebene 1" xmlns="http://www.w3.org/2000/svg" viewBox="0 0 988 525">
  <defs>
    <style>
      .cls-1 {
        stroke: #1d1d1b;
      }

      .cls-1, .cls-2 {
        fill: none;
        stroke-miterlimit: 10;
      }

      .cls-3 {
        fill: #e6e6e6;
      }

      .cls-4 {
        fill: blue;
        font-family: Arial-BoldMT, Arial;
        font-weight: 700;
      }

      .cls-4, .cls-5 {
        font-size: 18px;
      }

      .cls-2 {
        stroke: #0333ff;
        stroke-width: 2px;
      }

      .cls-5 {
        fill: #1d1d1b;
        font-family: ArialMT, Arial;
      }

      .cls-6 {
        letter-spacing: -.02em;
      }

      .cls-7 {
        letter-spacing: -.06em;
      }

      .cls-8 {
        letter-spacing: -.04em;
      }
    </style>
  </defs>
  <text class="cls-4" transform="translate(163.7 86.05)"><tspan x="0" y="0">Generative</tspan><tspan class="cls-8" x="93.05" y="0"> </tspan><tspan x="97.38" y="0">AI</tspan></text>
  <text class="cls-5" transform="translate(163.7 149.94)"><tspan x="0" y="0">Foundation Models</tspan></text>
  <text class="cls-5" transform="translate(163.7 204.44)"><tspan x="0" y="0">Large Language Models</tspan></text>
  <g>
    <rect class="cls-3" x="153.7" y="224.81" width="310.3" height="34.82"/>
    <text class="cls-5" transform="translate(290.51 247.02)"><tspan x="0" y="0">GP</tspan><tspan class="cls-6" x="26.01" y="0">T</tspan></text>
  </g>
  <g>
    <rect class="cls-3" x="153.7" y="264.92" width="310.3" height="34.82"/>
    <text class="cls-5" transform="translate(280.34 287.13)"><tspan x="0" y="0">Gemini</tspan></text>
  </g>
  <g>
    <rect class="cls-3" x="153.7" y="305.03" width="310.3" height="34.82"/>
    <text class="cls-5" transform="translate(280.33 327.24)"><tspan x="0" y="0">Claude</tspan></text>
  </g>
  <g>
    <rect class="cls-3" x="153.7" y="345.14" width="310.3" height="34.82"/>
    <text class="cls-5" transform="translate(280.32 367.35)"><tspan x="0" y="0">LLaM</tspan><tspan class="cls-7" x="45.03" y="0">A</tspan></text>
  </g>
  <g>
    <rect class="cls-3" x="153.7" y="385.25" width="310.3" height="34.82"/>
    <text class="cls-5" transform="translate(279.83 407.46)"><tspan x="0" y="0">LeChat</tspan></text>
  </g>
  <g>
    <rect class="cls-3" x="524" y="224.81" width="310.3" height="34.82"/>
    <text class="cls-5" transform="translate(647.8 247.02)"><tspan x="0" y="0">DALL-E</tspan></text>
  </g>
  <g>
    <rect class="cls-3" x="524" y="264.92" width="310.3" height="34.82"/>
    <text class="cls-5" transform="translate(626.6 287.13)"><tspan x="0" y="0">NanoBanana</tspan></text>
  </g>
  <g>
    <rect class="cls-3" x="524" y="305.03" width="310.3" height="34.82"/>
    <text class="cls-5" transform="translate(635.13 327.24)"><tspan x="0" y="0">Midjourney</tspan></text>
  </g>
  <g>
    <rect class="cls-3" x="524" y="345.14" width="310.3" height="34.82"/>
    <text class="cls-5" transform="translate(637.11 367.35)"><tspan x="0" y="0">AudioLDM</tspan></text>
  </g>
  <text class="cls-5" transform="translate(534.75 204.44)"><tspan x="0" y="0">Di</tspan><tspan class="cls-6" x="17" y="0">f</tspan><tspan x="21.67" y="0">fusion Models</tspan></text>
  <rect class="cls-2" x="93.7" y="45.5" width="800.6" height="434"/>
  <rect class="cls-1" x="113.7" y="109.03" width="760.6" height="350.48"/>
  <rect class="cls-1" x="133.7" y="174.32" width="350.3" height="265.18"/>
  <rect class="cls-1" x="504" y="174.32" width="349.98" height="265.18"/>
</svg>