<?xml version="1.0" encoding="UTF-8"?><svg id="layer" xmlns="http://www.w3.org/2000/svg" viewBox="0 0 988 525"><line x1="175.43" y1="69" x2="175.24" y2="432.43" style="fill:none; stroke:#000; stroke-miterlimit:10;"/><polygon points="170.44 70.46 175.43 61.83 180.42 70.47 170.44 70.46"/><text transform="translate(163.95 212.77) rotate(-90)" style="font-family:ArialMT, Arial; font-size:18px;"><tspan x="0" y="0">Enabling effects</tspan></text><line x1="538.86" y1="432.42" x2="175.43" y2="432.23" style="fill:none; stroke:#000; stroke-miterlimit:10;"/><polygon points="537.4 427.44 546.03 432.43 537.4 437.41 537.4 427.44"/><text transform="translate(357.1 457.33)" style="font-family:ArialMT, Arial; font-size:18px;"><tspan x="0" y="0">Productivity increase</tspan></text><path d="m410.4,343.68c0,29.98-54.17,54.29-108.66,54.29s-88.66-24.31-88.66-54.29,54.17-54.29,108.66-54.29,88.66,24.31,88.66,54.29Z" style="fill:none; stroke:#000; stroke-miterlimit:10; stroke-width:2px;"/><path d="m504.97,210.21c0,62.06-49.93,136.88-114.58,136.88s-106.09-53.44-106.09-115.5,69.84-108.58,120.69-108.58c64.96,0,99.98,25.14,99.98,87.2Z" style="fill:none; stroke:#0333ff; stroke-linejoin:round; stroke-width:2px;"/><text transform="translate(249.8 366.35)" style="font-family:ArialMT, Arial; font-size:12.8px;"><tspan x="0" y="0">1</tspan></text><circle cx="253.36" cy="362.93" r="11.83" style="fill:none; stroke:#000; stroke-miterlimit:10;"/><text transform="translate(308.18 347.09)" style="font-family:ArialMT, Arial; font-size:12.8px;"><tspan x="0" y="0">2</tspan></text><circle cx="311.74" cy="343.68" r="11.83" style="fill:none; stroke:#000; stroke-miterlimit:10;"/><text transform="translate(350.21 313.81)" style="font-family:ArialMT, Arial; font-size:12.8px;"><tspan x="0" y="0">3</tspan></text><circle cx="353.77" cy="310.4" r="11.83" style="fill:none; stroke:#000; stroke-miterlimit:10;"/><text transform="translate(413.26 298.05)" style="font-family:ArialMT, Arial; font-size:12.8px;"><tspan x="0" y="0">4</tspan></text><circle cx="416.82" cy="294.64" r="11.83" style="fill:none; stroke:#000; stroke-miterlimit:10;"/><text transform="translate(345.34 241.78)" style="font-family:ArialMT, Arial; font-size:12.8px;"><tspan x="0" y="0">5</tspan></text><circle cx="348.9" cy="238.36" r="11.83" style="fill:none; stroke:#000; stroke-miterlimit:10;"/><text transform="translate(398.67 206.41)" style="font-family:ArialMT, Arial; font-size:12.8px;"><tspan x="0" y="0">6</tspan></text><circle cx="402.23" cy="203" r="11.83" style="fill:none; stroke:#000; stroke-miterlimit:10;"/><text transform="translate(459.96 174.29)" style="font-family:ArialMT, Arial; font-size:12.8px;"><tspan x="0" y="0">7</tspan></text><circle cx="463.52" cy="170.88" r="11.83" style="fill:none; stroke:#000; stroke-miterlimit:10;"/><text transform="translate(652.88 150.63)" style="font-family:ArialMT, Arial; font-size:12.8px;"><tspan x="0" y="0">1</tspan></text><circle cx="656.44" cy="147.21" r="11.83" style="fill:none; stroke:#000; stroke-miterlimit:10;"/><text transform="translate(652.88 189.8)" style="font-family:ArialMT, Arial; font-size:12.8px;"><tspan x="0" y="0">2</tspan></text><circle cx="656.44" cy="186.38" r="11.83" style="fill:none; stroke:#000; stroke-miterlimit:10;"/><text transform="translate(652.88 228.97)" style="font-family:ArialMT, Arial; font-size:12.8px;"><tspan x="0" y="0">3</tspan></text><circle cx="656.44" cy="225.55" r="11.83" style="fill:none; stroke:#000; stroke-miterlimit:10;"/><text transform="translate(652.88 268.14)" style="font-family:ArialMT, Arial; font-size:12.8px;"><tspan x="0" y="0">4</tspan></text><circle cx="656.44" cy="264.72" r="11.83" style="fill:none; stroke:#000; stroke-miterlimit:10;"/><text transform="translate(652.88 307.31)" style="font-family:ArialMT, Arial; font-size:12.8px;"><tspan x="0" y="0">5</tspan></text><circle cx="656.44" cy="303.89" r="11.83" style="fill:none; stroke:#000; stroke-miterlimit:10;"/><text transform="translate(652.88 346.47)" style="font-family:ArialMT, Arial; font-size:12.8px;"><tspan x="0" y="0">6</tspan></text><circle cx="656.44" cy="343.06" r="11.83" style="fill:none; stroke:#000; stroke-miterlimit:10;"/><text transform="translate(652.88 385.64)" style="font-family:ArialMT, Arial; font-size:12.8px;"><tspan x="0" y="0">7</tspan></text><circle cx="656.44" cy="382.23" r="11.83" style="fill:none; stroke:#000; stroke-miterlimit:10;"/><text transform="translate(687.44 153.63)" style="font-family:ArialMT, Arial; font-size:16px;"><tspan x="0" y="0">Paper form</tspan></text><text transform="translate(687.44 192.8)" style="font-family:ArialMT, Arial; font-size:16px;"><tspan x="0" y="0">Note to mom</tspan></text><text transform="translate(687.44 231.97)" style="font-family:ArialMT, Arial; font-size:16px;"><tspan x="0" y="0">Article</tspan></text><text transform="translate(687.44 271.14)" style="font-family:ArialMT, Arial; font-size:16px;"><tspan x="0" y="0">Book</tspan></text><text transform="translate(687.44 310.31)" style="font-family:ArialMT, Arial; font-size:16px;"><tspan x="0" y="0">Edit a movie</tspan></text><text transform="translate(687.44 349.47)" style="font-family:ArialMT, Arial; font-size:16px;"><tspan x="0" y="0">Email communication</tspan></text><text transform="translate(687.44 388.64)" style="font-family:ArialMT, Arial; font-size:16px;"><tspan x="0" y="0">Teleconference</tspan></text></svg>