<?xml version="1.0" encoding="UTF-8"?>
<svg id="Ebene_1" data-name="Ebene 1" xmlns="http://www.w3.org/2000/svg" viewBox="0 0 988 525">
  <defs>
    <style>
      .cls-1 {
        letter-spacing: 0em;
      }

      .cls-2 {
        letter-spacing: 0em;
      }

      .cls-3 {
        letter-spacing: 0em;
      }

      .cls-4 {
        letter-spacing: 0em;
      }

      .cls-5 {
        letter-spacing: -.01em;
      }

      .cls-6 {
        letter-spacing: 0em;
      }

      .cls-7 {
        letter-spacing: -.02em;
      }

      .cls-8 {
        letter-spacing: -.01em;
      }

      .cls-9 {
        letter-spacing: 0em;
      }

      .cls-10 {
        letter-spacing: 0em;
      }

      .cls-11 {
        letter-spacing: 0em;
      }

      .cls-12 {
        letter-spacing: -.01em;
      }

      .cls-13 {
        letter-spacing: -.01em;
      }

      .cls-14 {
        letter-spacing: 0em;
      }

      .cls-15 {
        stroke-dasharray: 0 0 4.01 4.01;
      }

      .cls-15, .cls-16, .cls-17, .cls-18 {
        fill: none;
        stroke: #1d1d1b;
        stroke-miterlimit: 10;
      }

      .cls-19 {
        letter-spacing: 0em;
      }

      .cls-20 {
        letter-spacing: -.01em;
      }

      .cls-21 {
        letter-spacing: 0em;
      }

      .cls-22 {
        letter-spacing: 0em;
      }

      .cls-23 {
        letter-spacing: -.01em;
      }

      .cls-24 {
        letter-spacing: .03em;
      }

      .cls-25 {
        letter-spacing: 0em;
      }

      .cls-26 {
        letter-spacing: 0em;
      }

      .cls-16 {
        stroke-dasharray: 0 0 4.02 4.02;
      }

      .cls-27 {
        letter-spacing: .02em;
      }

      .cls-28 {
        letter-spacing: -.03em;
      }

      .cls-29 {
        letter-spacing: 0em;
      }

      .cls-30 {
        letter-spacing: 0em;
      }

      .cls-31 {
        letter-spacing: 0em;
      }

      .cls-32 {
        letter-spacing: 0em;
      }

      .cls-33 {
        letter-spacing: -.03em;
      }

      .cls-34 {
        letter-spacing: .01em;
      }

      .cls-35 {
        letter-spacing: 0em;
      }

      .cls-36 {
        letter-spacing: 0em;
      }

      .cls-37 {
        letter-spacing: -.02em;
      }

      .cls-38 {
        letter-spacing: -.01em;
      }

      .cls-39 {
        letter-spacing: 0em;
      }

      .cls-40 {
        letter-spacing: 0em;
      }

      .cls-41 {
        letter-spacing: 0em;
      }

      .cls-42 {
        letter-spacing: .03em;
      }

      .cls-43 {
        letter-spacing: -.03em;
      }

      .cls-44 {
        letter-spacing: 0em;
      }

      .cls-45 {
        letter-spacing: 0em;
      }

      .cls-46 {
        letter-spacing: 0em;
      }

      .cls-47 {
        letter-spacing: 0em;
      }

      .cls-17 {
        stroke-width: 2px;
      }

      .cls-48 {
        letter-spacing: -.03em;
      }

      .cls-49 {
        letter-spacing: 0em;
      }

      .cls-50 {
        letter-spacing: 0em;
      }

      .cls-51 {
        letter-spacing: -.03em;
      }

      .cls-52 {
        letter-spacing: 0em;
      }

      .cls-53 {
        letter-spacing: 0em;
      }

      .cls-54 {
        letter-spacing: 0em;
      }

      .cls-55 {
        letter-spacing: 0em;
      }

      .cls-56 {
        letter-spacing: 0em;
      }

      .cls-57 {
        letter-spacing: 0em;
      }

      .cls-58 {
        letter-spacing: -.01em;
      }

      .cls-59 {
        letter-spacing: 0em;
      }

      .cls-60 {
        letter-spacing: 0em;
      }

      .cls-61 {
        letter-spacing: 0em;
      }

      .cls-62 {
        letter-spacing: -.01em;
      }

      .cls-63 {
        letter-spacing: 0em;
      }

      .cls-64 {
        letter-spacing: 0em;
      }

      .cls-65 {
        letter-spacing: 0em;
      }

      .cls-66 {
        letter-spacing: 0em;
      }

      .cls-67 {
        letter-spacing: 0em;
      }

      .cls-68 {
        letter-spacing: .01em;
      }

      .cls-69 {
        letter-spacing: 0em;
      }

      .cls-70 {
        letter-spacing: 0em;
      }

      .cls-71 {
        letter-spacing: 0em;
      }

      .cls-72 {
        letter-spacing: 0em;
      }

      .cls-73 {
        font-family: ArialMT, Arial;
        font-size: 16px;
      }

      .cls-73, .cls-74, .cls-75 {
        fill: #1d1d1b;
      }

      .cls-74 {
        font-family: Arial-BoldMT, Arial;
        font-size: 22px;
        font-weight: 700;
      }

      .cls-76 {
        letter-spacing: 0em;
      }

      .cls-77 {
        letter-spacing: 0em;
      }

      .cls-78 {
        letter-spacing: 0em;
      }

      .cls-79 {
        letter-spacing: 0em;
      }

      .cls-80 {
        letter-spacing: -.02em;
      }

      .cls-81 {
        letter-spacing: 0em;
      }

      .cls-82 {
        letter-spacing: 0em;
      }

      .cls-83 {
        letter-spacing: 0em;
      }

      .cls-84 {
        letter-spacing: 0em;
      }

      .cls-85 {
        letter-spacing: 0em;
      }

      .cls-86 {
        letter-spacing: 0em;
      }

      .cls-75, .cls-87, .cls-88 {
        stroke-width: 0px;
      }

      .cls-87 {
        fill: #c5c5c4;
      }

      .cls-88 {
        fill: #0333ff;
      }

      .cls-89 {
        letter-spacing: -.02em;
      }

      .cls-90 {
        letter-spacing: 0em;
      }

      .cls-91 {
        letter-spacing: 0em;
      }

      .cls-92 {
        letter-spacing: 0em;
      }

      .cls-93 {
        letter-spacing: 0em;
      }

      .cls-94 {
        letter-spacing: -.01em;
      }

      .cls-95 {
        letter-spacing: 0em;
      }

      .cls-96 {
        letter-spacing: 0em;
      }

      .cls-97 {
        letter-spacing: 0em;
      }

      .cls-98 {
        letter-spacing: -.01em;
      }

      .cls-99 {
        letter-spacing: 0em;
      }
    </style>
  </defs>
  <g>
    <polyline class="cls-17" points="271.12 57.41 271.12 462.98 669.5 462.98"/>
    <polygon class="cls-75" points="266.13 58.87 271.12 50.24 276.11 58.87 266.13 58.87"/>
    <polygon class="cls-75" points="668.04 467.97 676.68 462.98 668.04 458 668.04 467.97"/>
  </g>
  <text class="cls-74" transform="translate(121.06 92.35)"><tspan class="cls-67" x="0" y="0">Q</tspan><tspan class="cls-83" x="17.18" y="0">u</tspan><tspan class="cls-19" x="30.57" y="0">a</tspan><tspan class="cls-39" x="42.74" y="0">n</tspan><tspan class="cls-92" x="56.09" y="0">t</tspan><tspan class="cls-6" x="63.52" y="0">i</tspan><tspan class="cls-9" x="69.69" y="0">t</tspan><tspan class="cls-10" x="77.14" y="0">a</tspan><tspan class="cls-59" x="89.31" y="0">t</tspan><tspan class="cls-14" x="96.74" y="0">i</tspan><tspan class="cls-37" x="102.8" y="0">v</tspan><tspan x="114.56" y="0">e</tspan></text>
  <text class="cls-74" transform="translate(685.69 491.86)"><tspan class="cls-67" x="0" y="0">Q</tspan><tspan class="cls-83" x="17.18" y="0">u</tspan><tspan class="cls-46" x="30.57" y="0">a</tspan><tspan class="cls-50" x="42.72" y="0">l</tspan><tspan class="cls-6" x="48.68" y="0">i</tspan><tspan class="cls-9" x="54.85" y="0">t</tspan><tspan class="cls-10" x="62.29" y="0">a</tspan><tspan class="cls-92" x="74.46" y="0">t</tspan><tspan class="cls-22" x="81.9" y="0">i</tspan><tspan class="cls-37" x="87.95" y="0">v</tspan><tspan x="99.71" y="0">e</tspan></text>
  <circle class="cls-87" cx="294.12" cy="77.39" r="8.7"/>
  <text class="cls-73" transform="translate(312.52 83.08)"><tspan class="cls-82" x="0" y="0">A</tspan><tspan class="cls-36" x="10.79" y="0">n</tspan><tspan class="cls-85" x="19.55" y="0">a</tspan><tspan class="cls-77" x="28.31" y="0">l</tspan><tspan class="cls-27" x="31.71" y="0">y</tspan><tspan class="cls-35" x="40.04" y="0">t</tspan><tspan class="cls-11" x="44.44" y="0">i</tspan><tspan class="cls-34" x="47.9" y="0">c</tspan><tspan class="cls-85" x="56.07" y="0">a</tspan><tspan x="64.83" y="0">l </tspan><tspan class="cls-44" x="72.83" y="0">m</tspan><tspan class="cls-55" x="86.1" y="0">o</tspan><tspan class="cls-57" x="94.97" y="0">d</tspan><tspan class="cls-72" x="103.74" y="0">e</tspan><tspan class="cls-38" x="112.56" y="0">l</tspan><tspan class="cls-26" x="115.94" y="0">i</tspan><tspan class="cls-49" x="119.35" y="0">n</tspan><tspan x="128.14" y="0">g</tspan></text>
  <circle class="cls-87" cx="311.52" cy="107.07" r="8.7"/>
  <text class="cls-73" transform="translate(329.92 112.76)"><tspan class="cls-33" x="0" y="0">F</tspan><tspan class="cls-46" x="9.33" y="0">o</tspan><tspan class="cls-69" x="18.17" y="0">r</tspan><tspan class="cls-56" x="23.62" y="0">m</tspan><tspan class="cls-85" x="36.84" y="0">a</tspan><tspan x="45.6" y="0">l </tspan><tspan class="cls-60" x="53.6" y="0">pr</tspan><tspan class="cls-61" x="67.66" y="0">o</tspan><tspan class="cls-98" x="76.53" y="0">o</tspan><tspan x="85.22" y="0">f</tspan></text>
  <circle class="cls-88" cx="502.7" cy="151.19" r="8.7"/>
  <text class="cls-73" transform="translate(521.1 156.88)"><tspan class="cls-89" x="0" y="0">F</tspan><tspan class="cls-40" x="9.5" y="0">i</tspan><tspan class="cls-72" x="12.99" y="0">el</tspan><tspan x="25.28" y="0">d </tspan><tspan class="cls-48" x="38.63" y="0">e</tspan><tspan class="cls-64" x="47.08" y="0">x</tspan><tspan class="cls-41" x="55.03" y="0">p</tspan><tspan class="cls-90" x="63.86" y="0">e</tspan><tspan class="cls-47" x="72.66" y="0">r</tspan><tspan class="cls-25" x="78.11" y="0">i</tspan><tspan class="cls-65" x="81.52" y="0">m</tspan><tspan class="cls-30" x="94.76" y="0">e</tspan><tspan class="cls-80" x="103.55" y="0">n</tspan><tspan x="112.19" y="0">t</tspan></text>
  <circle class="cls-88" cx="493" cy="225" r="8.7"/>
  <text class="cls-73" transform="translate(511.4 230.69)"><tspan class="cls-94" x="0" y="0">L</tspan><tspan class="cls-40" x="8.69" y="0">o</tspan><tspan class="cls-49" x="17.52" y="0">n</tspan><tspan class="cls-26" x="26.3" y="0">gi</tspan><tspan class="cls-71" x="38.47" y="0">t</tspan><tspan class="cls-86" x="42.79" y="0">u</tspan><tspan class="cls-12" x="51.58" y="0">d</tspan><tspan class="cls-25" x="60.29" y="0">in</tspan><tspan class="cls-84" x="72.46" y="0">a</tspan><tspan x="81.22" y="0">l </tspan><tspan class="cls-62" x="89.22" y="0">s</tspan><tspan class="cls-5" x="97.05" y="0">u</tspan><tspan class="cls-42" x="105.78" y="0">r</tspan><tspan class="cls-7" x="111.64" y="0">v</tspan><tspan class="cls-43" x="119.27" y="0">e</tspan><tspan x="127.74" y="0">y</tspan></text>
  <circle class="cls-88" cx="430.46" cy="269.2" r="8.7"/>
  <text class="cls-73" transform="translate(448.86 274.89)"><tspan class="cls-81" x="0" y="0">C</tspan><tspan class="cls-63" x="11.42" y="0">r</tspan><tspan class="cls-41" x="16.66" y="0">o</tspan><tspan class="cls-2" x="25.49" y="0">s</tspan><tspan class="cls-99" x="33.48" y="0">s</tspan><tspan class="cls-68" x="41.61" y="0">-</tspan><tspan class="cls-31" x="47.11" y="0">s</tspan><tspan class="cls-70" x="55" y="0">e</tspan><tspan class="cls-29" x="63.83" y="0">c</tspan><tspan class="cls-93" x="71.87" y="0">ti</tspan><tspan class="cls-40" x="79.77" y="0">o</tspan><tspan class="cls-36" x="88.6" y="0">n</tspan><tspan class="cls-84" x="97.35" y="0">a</tspan><tspan x="106.12" y="0">l </tspan><tspan class="cls-62" x="114.12" y="0">s</tspan><tspan class="cls-5" x="121.94" y="0">u</tspan><tspan class="cls-97" x="130.68" y="0">r</tspan><tspan class="cls-42" x="136.14" y="0">r</tspan><tspan class="cls-7" x="141.99" y="0">v</tspan><tspan class="cls-43" x="149.63" y="0">e</tspan><tspan x="158.09" y="0">y</tspan></text>
  <circle class="cls-88" cx="555.62" cy="313.32" r="8.7"/>
  <text class="cls-73" transform="translate(574.02 319.01)"><tspan class="cls-91" x="0" y="0">G</tspan><tspan class="cls-65" x="12.49" y="0">r</tspan><tspan class="cls-66" x="17.73" y="0">o</tspan><tspan class="cls-13" x="26.52" y="0">u</tspan><tspan class="cls-90" x="35.25" y="0">n</tspan><tspan class="cls-57" x="44.05" y="0">d</tspan><tspan class="cls-41" x="52.82" y="0">e</tspan><tspan x="61.65" y="0">d </tspan><tspan class="cls-21" x="74.99" y="0">t</tspan><tspan class="cls-30" x="79.4" y="0">h</tspan><tspan class="cls-45" x="88.18" y="0">eo</tspan><tspan class="cls-24" x="105.86" y="0">r</tspan><tspan x="111.68" y="0">y</tspan></text>
  <circle class="cls-88" cx="587.21" cy="371.89" r="8.7"/>
  <text class="cls-73" transform="translate(605.61 377.57)"><tspan class="cls-32" x="0" y="0">M</tspan><tspan class="cls-79" x="13.32" y="0">u</tspan><tspan class="cls-20" x="22.06" y="0">l</tspan><tspan class="cls-35" x="25.45" y="0">t</tspan><tspan class="cls-26" x="29.85" y="0">i</tspan><tspan class="cls-60" x="33.26" y="0">p</tspan><tspan class="cls-4" x="42.07" y="0">l</tspan><tspan x="45.53" y="0">e </tspan><tspan class="cls-68" x="58.88" y="0">c</tspan><tspan class="cls-78" x="67.04" y="0">a</tspan><tspan class="cls-31" x="75.78" y="0">s</tspan><tspan x="83.67" y="0">e </tspan><tspan class="cls-8" x="97.02" y="0">s</tspan><tspan class="cls-71" x="104.83" y="0">t</tspan><tspan class="cls-86" x="109.15" y="0">u</tspan><tspan class="cls-38" x="117.94" y="0">d</tspan><tspan x="126.67" y="0">y</tspan></text>
  <circle class="cls-87" cx="595.91" cy="432.05" r="8.7"/>
  <text class="cls-73" transform="translate(614.31 437.74)"><tspan class="cls-23" x="0" y="0">P</tspan><tspan class="cls-30" x="10.43" y="0">he</tspan><tspan class="cls-4" x="28.01" y="0">n</tspan><tspan class="cls-40" x="36.81" y="0">o</tspan><tspan class="cls-65" x="45.64" y="0">m</tspan><tspan class="cls-30" x="58.88" y="0">e</tspan><tspan class="cls-11" x="67.67" y="0">n</tspan><tspan class="cls-46" x="76.48" y="0">o</tspan><tspan class="cls-40" x="85.31" y="0">l</tspan><tspan class="cls-95" x="88.8" y="0">o</tspan><tspan class="cls-53" x="97.68" y="0">g</tspan><tspan x="106.46" y="0">y</tspan></text>
  <circle class="cls-88" cx="483" cy="401.57" r="8.7"/>
  <text class="cls-73" transform="translate(501.4 407.26)"><tspan class="cls-40" x="0" y="0">S</tspan><tspan class="cls-25" x="10.6" y="0">i</tspan><tspan class="cls-52" x="14.01" y="0">ng</tspan><tspan class="cls-11" x="31.58" y="0">l</tspan><tspan x="35.04" y="0">e </tspan><tspan class="cls-34" x="48.39" y="0">c</tspan><tspan class="cls-78" x="56.55" y="0">a</tspan><tspan class="cls-31" x="65.29" y="0">s</tspan><tspan x="73.19" y="0">e </tspan><tspan class="cls-8" x="86.53" y="0">s</tspan><tspan class="cls-71" x="94.34" y="0">t</tspan><tspan class="cls-86" x="98.66" y="0">u</tspan><tspan class="cls-38" x="107.45" y="0">d</tspan><tspan x="116.18" y="0">y</tspan></text>
  <circle class="cls-87" cx="484.72" cy="335.78" r="8.7"/>
  <text class="cls-73" transform="translate(503.12 341.47)"><tspan class="cls-51" x="0" y="0">E</tspan><tspan class="cls-21" x="10.21" y="0">t</tspan><tspan class="cls-3" x="14.61" y="0">h</tspan><tspan class="cls-4" x="23.36" y="0">n</tspan><tspan class="cls-95" x="32.16" y="0">o</tspan><tspan class="cls-96" x="41.05" y="0">g</tspan><tspan class="cls-41" x="49.83" y="0">r</tspan><tspan class="cls-25" x="55.09" y="0">a</tspan><tspan class="cls-11" x="63.84" y="0">p</tspan><tspan class="cls-28" x="72.65" y="0">h</tspan><tspan x="81.11" y="0">y</tspan></text>
  <circle class="cls-88" cx="397.46" cy="202.53" r="8.7"/>
  <text class="cls-73" transform="translate(415.86 208.22)"><tspan class="cls-76" x="0" y="0">L</tspan><tspan class="cls-26" x="8.92" y="0">a</tspan><tspan x="17.68" y="0">b </tspan><tspan class="cls-48" x="31.02" y="0">e</tspan><tspan class="cls-64" x="39.47" y="0">x</tspan><tspan class="cls-41" x="47.43" y="0">p</tspan><tspan class="cls-90" x="56.26" y="0">e</tspan><tspan class="cls-54" x="65.06" y="0">r</tspan><tspan class="cls-26" x="70.5" y="0">i</tspan><tspan class="cls-65" x="73.91" y="0">m</tspan><tspan class="cls-30" x="87.16" y="0">e</tspan><tspan class="cls-80" x="95.95" y="0">n</tspan><tspan x="104.58" y="0">t</tspan></text>
  <circle class="cls-87" cx="351.62" cy="165.58" r="8.7"/>
  <text class="cls-73" transform="translate(370.02 171.27)"><tspan class="cls-40" x="0" y="0">S</tspan><tspan class="cls-25" x="10.6" y="0">i</tspan><tspan class="cls-1" x="14.01" y="0">m</tspan><tspan class="cls-78" x="27.19" y="0">u</tspan><tspan class="cls-25" x="35.93" y="0">l</tspan><tspan class="cls-58" x="39.35" y="0">a</tspan><tspan class="cls-93" x="48.02" y="0">ti</tspan><tspan class="cls-40" x="55.92" y="0">o</tspan><tspan x="64.75" y="0">n</tspan></text>
  <g>
    <path class="cls-18" d="m388.76,462.98c0-.67,0-1.33-.02-2"/>
    <path class="cls-16" d="m388.61,456.97c-3.07-60.85-52.37-109.51-113.48-111.56"/>
    <path class="cls-18" d="m273.12,345.36c-.67-.01-1.33-.02-2-.02"/>
  </g>
  <g>
    <path class="cls-18" d="m531.57,462.98c0-.67,0-1.33,0-2"/>
    <path class="cls-15" d="m531.5,456.97c-3.16-139.73-116.38-252.29-256.37-254.41"/>
    <path class="cls-18" d="m273.12,202.54c-.67,0-1.33,0-2,0"/>
  </g>
</svg>