<?xml version="1.0" encoding="UTF-8"?><svg id="a" xmlns="http://www.w3.org/2000/svg" viewBox="0 0 988 525"><circle cx="494" cy="280.41" r="88.24" style="fill:#fff;"/><g><g><path d="M353.56,210.93c16.79-33.12,45.07-59.44,79.59-73.72" style="fill:none; stroke:#000; stroke-miterlimit:8; stroke-width:2px;"/><polygon points="433.83 145.06 443.24 133.44 428.47 131.1 433.83 145.06"/></g><g><path d="M349.23,342.41c-8-18.76-12.43-39.41-12.43-61.1,0-6.69,.42-13.29,1.24-19.76" style="fill:none; stroke:#000; stroke-miterlimit:8; stroke-width:2px;"/><polygon points="345.2 264.86 339.76 250.93 330.41 262.6 345.2 264.86"/></g><g><path d="M611.3,382.42c-28.59,33.51-71.13,54.76-118.63,54.76-43.64,0-83.08-17.93-111.38-46.83" style="fill:none; stroke:#000; stroke-miterlimit:8; stroke-width:2px;"/><polygon points="388.33 386.79 374.03 382.41 377.39 396.99 388.33 386.79"/></g><g><path d="M645.58,250.93c1.94,9.83,2.96,19.99,2.96,30.39,0,17.88-3.01,35.06-8.55,51.06" style="fill:none; stroke:#000; stroke-miterlimit:8; stroke-width:2px;"/><polygon points="633.66 327.66 636.11 342.41 647.67 332.92 633.66 327.66"/></g><g><path d="M542.1,133.44c35.2,11.76,64.81,35.74,83.79,66.91" style="fill:none; stroke:#000; stroke-miterlimit:8; stroke-width:2px;"/><polygon points="618.24 202.23 631.17 209.74 631.21 194.78 618.24 202.23"/></g><g><path d="M456.44,135.95v-11.45h8.49v1.94h-6.18v2.54h5.75v1.93h-5.75v3.12h6.4v1.93h-8.71Z"/><path d="M469.21,135.95h-2.2v-8.3h2.04v1.18c.35-.56,.66-.92,.94-1.1,.28-.18,.59-.27,.95-.27,.5,0,.98,.14,1.45,.41l-.68,1.91c-.37-.24-.71-.36-1.03-.36s-.57,.08-.78,.25c-.21,.17-.38,.48-.5,.92-.12,.44-.18,1.37-.18,2.78v2.56Z"/><path d="M475.54,124.5v4.21c.71-.83,1.55-1.24,2.54-1.24,.5,0,.96,.09,1.37,.28s.71,.43,.92,.72c.21,.29,.35,.61,.42,.97,.08,.35,.11,.9,.11,1.65v4.87h-2.2v-4.38c0-.87-.04-1.42-.12-1.66s-.23-.42-.44-.56c-.21-.14-.48-.21-.79-.21-.36,0-.69,.09-.98,.27-.29,.18-.5,.44-.63,.8-.13,.36-.2,.88-.2,1.58v4.16h-2.2v-11.45h2.2Z"/><path d="M487.95,133.31l2.19,.37c-.28,.8-.73,1.41-1.33,1.83-.61,.42-1.37,.63-2.28,.63-1.44,0-2.51-.47-3.2-1.41-.55-.75-.82-1.71-.82-2.86,0-1.38,.36-2.45,1.08-3.23,.72-.78,1.63-1.17,2.73-1.17,1.23,0,2.21,.41,2.92,1.22,.71,.82,1.05,2.06,1.02,3.75h-5.5c.02,.65,.19,1.16,.53,1.52,.34,.36,.76,.54,1.27,.54,.34,0,.63-.09,.87-.28s.41-.49,.53-.91Zm.12-2.22c-.02-.64-.18-1.12-.49-1.45-.31-.33-.69-.5-1.14-.5-.48,0-.88,.17-1.19,.52-.31,.35-.47,.82-.46,1.42h3.28Z"/><path d="M491.96,135.95v-11.45h2.2v4.12c.68-.77,1.48-1.16,2.41-1.16,1.01,0,1.85,.37,2.51,1.1,.66,.73,.99,1.78,.99,3.15s-.34,2.51-1.01,3.27-1.49,1.15-2.46,1.15c-.47,0-.94-.12-1.4-.36s-.86-.59-1.19-1.05v1.22h-2.04Zm2.18-4.33c0,.86,.14,1.5,.41,1.91,.38,.58,.89,.88,1.52,.88,.48,0,.9-.21,1.24-.62s.51-1.07,.51-1.96c0-.95-.17-1.63-.52-2.05-.34-.42-.78-.63-1.32-.63s-.96,.2-1.31,.61c-.35,.41-.52,1.03-.52,1.86Z"/><path d="M507.31,135.95v-1.24c-.3,.44-.7,.79-1.19,1.05s-1.01,.38-1.56,.38-1.06-.12-1.5-.37-.76-.59-.96-1.03c-.2-.44-.3-1.05-.3-1.84v-5.25h2.2v3.81c0,1.17,.04,1.88,.12,2.14,.08,.26,.23,.47,.44,.62,.21,.15,.48,.23,.81,.23,.38,0,.71-.1,1.01-.31,.3-.21,.5-.46,.61-.77s.16-1.05,.16-2.24v-3.5h2.2v8.3h-2.04Z"/><path d="M519.18,135.95h-2.2v-4.23c0-.9-.05-1.48-.14-1.74-.09-.26-.25-.47-.46-.61-.21-.15-.46-.22-.76-.22-.38,0-.72,.1-1.02,.31-.3,.21-.51,.48-.62,.83s-.17,.98-.17,1.91v3.76h-2.2v-8.3h2.04v1.22c.72-.94,1.64-1.41,2.73-1.41,.48,0,.93,.09,1.33,.26,.4,.17,.7,.4,.91,.67,.21,.27,.35,.58,.43,.92s.12,.84,.12,1.48v5.16Z"/><path d="M521.22,136.5l2.51,.3c.04,.29,.14,.49,.29,.6,.21,.16,.54,.23,.98,.23,.57,0,1-.09,1.29-.26,.19-.11,.34-.3,.44-.55,.07-.18,.1-.52,.1-1.01v-1.21c-.66,.9-1.48,1.34-2.48,1.34-1.11,0-2-.47-2.65-1.41-.51-.74-.77-1.67-.77-2.78,0-1.39,.33-2.45,1-3.19s1.5-1.1,2.5-1.1,1.87,.45,2.54,1.35v-1.16h2.05v7.45c0,.98-.08,1.71-.24,2.2s-.39,.86-.68,1.14c-.29,.28-.68,.49-1.17,.65s-1.1,.23-1.85,.23c-1.41,0-2.4-.24-2.99-.72-.59-.48-.88-1.09-.88-1.83,0-.07,0-.16,0-.27Zm1.96-4.87c0,.88,.17,1.52,.51,1.93,.34,.41,.76,.61,1.26,.61,.54,0,.99-.21,1.36-.63,.37-.42,.55-1.04,.55-1.86s-.18-1.5-.53-1.91c-.35-.42-.8-.62-1.34-.62s-.96,.2-1.3,.61c-.34,.41-.51,1.03-.51,1.87Z"/></g><g><path d="M461.4,69.01h-2.52l-1-2.6h-4.58l-.95,2.6h-2.45l4.46-11.45h2.45l4.59,11.45Zm-4.26-4.53l-1.58-4.25-1.55,4.25h3.12Z"/><path d="M464.73,69.01h-2.2v-8.3h2.04v1.18c.35-.56,.66-.92,.94-1.1,.28-.18,.59-.27,.95-.27,.5,0,.98,.14,1.45,.41l-.68,1.91c-.37-.24-.71-.36-1.03-.36s-.57,.08-.78,.25c-.21,.17-.38,.48-.5,.92-.12,.44-.18,1.37-.18,2.78v2.56Z"/><path d="M476.1,63.17l-2.16,.39c-.07-.43-.24-.76-.5-.98s-.59-.33-1-.33c-.55,0-.98,.19-1.31,.57-.33,.38-.49,1.01-.49,1.89,0,.98,.17,1.68,.5,2.09s.77,.61,1.33,.61c.42,0,.76-.12,1.02-.36,.27-.24,.45-.64,.56-1.22l2.16,.37c-.22,.99-.65,1.74-1.29,2.24-.64,.51-1.49,.76-2.55,.76-1.21,0-2.18-.38-2.9-1.15s-1.08-1.83-1.08-3.18,.36-2.44,1.09-3.2c.72-.76,1.7-1.14,2.94-1.14,1.01,0,1.81,.22,2.41,.65,.6,.44,1.02,1.1,1.29,1.99Z"/><path d="M479.97,57.56v4.21c.71-.83,1.55-1.24,2.54-1.24,.5,0,.96,.09,1.37,.28s.71,.43,.92,.72c.21,.29,.35,.61,.42,.97,.08,.35,.11,.9,.11,1.65v4.87h-2.2v-4.38c0-.87-.04-1.42-.12-1.66s-.23-.42-.44-.56c-.21-.14-.48-.21-.79-.21-.36,0-.69,.09-.98,.27-.29,.18-.5,.44-.63,.8-.13,.36-.2,.88-.2,1.58v4.16h-2.2v-11.45h2.2Z"/><path d="M487.57,59.59v-2.03h2.2v2.03h-2.2Zm0,9.42v-8.3h2.2v8.3h-2.2Z"/><path d="M495.84,60.71v1.75h-1.5v3.34c0,.68,.01,1.07,.04,1.18,.03,.11,.09,.2,.2,.28,.1,.07,.23,.11,.37,.11,.2,0,.5-.07,.88-.21l.19,1.7c-.51,.22-1.09,.33-1.73,.33-.4,0-.75-.07-1.07-.2s-.55-.3-.7-.52-.25-.5-.31-.86c-.05-.25-.07-.77-.07-1.55v-3.62h-1.01v-1.75h1.01v-1.65l2.2-1.28v2.93h1.5Z"/><path d="M502.18,66.37l2.19,.37c-.28,.8-.73,1.41-1.33,1.83-.61,.42-1.37,.63-2.28,.63-1.44,0-2.51-.47-3.2-1.41-.55-.75-.82-1.71-.82-2.86,0-1.38,.36-2.45,1.08-3.23,.72-.78,1.63-1.17,2.73-1.17,1.23,0,2.21,.41,2.92,1.22,.71,.82,1.05,2.06,1.02,3.75h-5.5c.02,.65,.19,1.16,.53,1.52,.34,.36,.76,.54,1.27,.54,.34,0,.63-.09,.87-.28s.41-.49,.53-.91Zm.12-2.22c-.02-.64-.18-1.12-.49-1.45-.31-.33-.69-.5-1.14-.5-.48,0-.88,.17-1.19,.52-.31,.35-.47,.82-.46,1.42h3.28Z"/><path d="M506.21,69.01v-11.45h2.2v6.08l2.57-2.92h2.7l-2.84,3.03,3.04,5.27h-2.37l-2.09-3.73-1.02,1.07v2.66h-2.2Z"/><path d="M519.01,60.71v1.75h-1.5v3.34c0,.68,.01,1.07,.04,1.18,.03,.11,.09,.2,.2,.28,.1,.07,.23,.11,.37,.11,.2,0,.5-.07,.88-.21l.19,1.7c-.51,.22-1.09,.33-1.73,.33-.4,0-.75-.07-1.07-.2s-.55-.3-.7-.52-.25-.5-.31-.86c-.05-.25-.07-.77-.07-1.55v-3.62h-1.01v-1.75h1.01v-1.65l2.2-1.28v2.93h1.5Z"/><path d="M526.01,69.01v-1.24c-.3,.44-.7,.79-1.19,1.05s-1.01,.38-1.56,.38-1.06-.12-1.5-.37-.76-.59-.96-1.03c-.2-.44-.3-1.05-.3-1.84v-5.25h2.2v3.81c0,1.17,.04,1.88,.12,2.14,.08,.26,.23,.47,.44,.62,.21,.15,.48,.23,.81,.23,.38,0,.71-.1,1.01-.31,.3-.21,.5-.46,.61-.77s.16-1.05,.16-2.24v-3.5h2.2v8.3h-2.04Z"/><path d="M532.44,69.01h-2.2v-8.3h2.04v1.18c.35-.56,.66-.92,.94-1.1,.28-.18,.59-.27,.95-.27,.5,0,.98,.14,1.45,.41l-.68,1.91c-.37-.24-.71-.36-1.03-.36s-.57,.08-.78,.25c-.21,.17-.38,.48-.5,.92-.12,.44-.18,1.37-.18,2.78v2.56Z"/></g><g><path d="M623.09,233.25h-2.52l-1-2.6h-4.58l-.95,2.6h-2.45l4.46-11.45h2.45l4.59,11.45Zm-4.26-4.53l-1.58-4.25-1.55,4.25h3.12Z"/><path d="M631.86,233.25h-2.2v-4.23c0-.9-.05-1.48-.14-1.74-.09-.26-.25-.47-.46-.61-.21-.15-.46-.22-.76-.22-.38,0-.72,.1-1.02,.31-.3,.21-.51,.48-.62,.83s-.17,.98-.17,1.91v3.76h-2.2v-8.3h2.04v1.22c.72-.94,1.64-1.41,2.73-1.41,.48,0,.93,.09,1.33,.26,.4,.17,.7,.4,.91,.67,.21,.27,.35,.58,.43,.92s.12,.84,.12,1.48v5.16Z"/><path d="M635.74,227.48l-1.99-.36c.22-.8,.61-1.4,1.16-1.78,.55-.39,1.36-.58,2.44-.58,.98,0,1.71,.12,2.19,.35,.48,.23,.82,.53,1.01,.88,.2,.36,.29,1.01,.29,1.96l-.02,2.56c0,.73,.04,1.27,.11,1.61,.07,.35,.2,.72,.39,1.11h-2.17c-.06-.15-.13-.36-.21-.65-.04-.13-.06-.22-.08-.26-.38,.36-.78,.64-1.2,.82s-.88,.27-1.37,.27c-.85,0-1.53-.23-2.02-.7-.49-.46-.74-1.05-.74-1.76,0-.47,.11-.89,.34-1.25s.54-.65,.94-.84,.99-.37,1.75-.51c1.03-.19,1.74-.37,2.13-.54v-.22c0-.42-.1-.72-.31-.9s-.6-.27-1.18-.27c-.39,0-.7,.08-.91,.23-.22,.15-.4,.42-.53,.81Zm2.94,1.78c-.28,.09-.73,.21-1.34,.34-.61,.13-1.01,.26-1.2,.38-.29,.2-.43,.46-.43,.77s.11,.57,.34,.8c.23,.22,.52,.34,.88,.34,.4,0,.77-.13,1.13-.39,.27-.2,.44-.44,.52-.73,.06-.19,.09-.54,.09-1.07v-.44Z"/><path d="M643.02,233.25v-11.45h2.2v11.45h-2.2Z"/><path d="M646.44,224.95h2.34l1.98,5.89,1.94-5.89h2.27l-2.93,7.98-.52,1.45c-.19,.48-.38,.85-.55,1.11-.17,.25-.38,.46-.6,.62-.23,.16-.5,.28-.84,.37-.33,.09-.7,.13-1.12,.13s-.84-.04-1.24-.13l-.2-1.72c.34,.07,.65,.1,.93,.1,.51,0,.89-.15,1.13-.45,.25-.3,.43-.68,.56-1.14l-3.16-8.32Z"/><path d="M655.62,230.88l2.2-.34c.09,.43,.28,.75,.57,.97,.29,.22,.69,.33,1.2,.33,.57,0,1-.1,1.28-.31,.19-.15,.29-.34,.29-.59,0-.17-.05-.3-.16-.41-.11-.1-.35-.2-.73-.29-1.77-.39-2.89-.75-3.37-1.07-.66-.45-.98-1.07-.98-1.87,0-.72,.28-1.32,.85-1.81,.57-.49,1.45-.73,2.64-.73s1.98,.19,2.53,.55c.55,.37,.93,.92,1.14,1.64l-2.07,.38c-.09-.32-.26-.57-.5-.74s-.6-.26-1.06-.26c-.58,0-.99,.08-1.24,.24-.17,.11-.25,.26-.25,.45,0,.16,.07,.29,.22,.4,.2,.15,.88,.35,2.05,.62s1.99,.59,2.45,.98c.46,.39,.69,.94,.69,1.63,0,.76-.32,1.41-.95,1.96s-1.58,.82-2.82,.82c-1.13,0-2.02-.23-2.68-.69-.66-.46-1.09-1.08-1.29-1.87Z"/><path d="M670.11,230.61l2.19,.37c-.28,.8-.73,1.41-1.33,1.83-.61,.42-1.37,.63-2.28,.63-1.44,0-2.51-.47-3.2-1.41-.55-.75-.82-1.71-.82-2.86,0-1.38,.36-2.45,1.08-3.23,.72-.78,1.63-1.17,2.73-1.17,1.23,0,2.21,.41,2.92,1.22,.71,.82,1.05,2.06,1.02,3.75h-5.5c.02,.65,.19,1.16,.53,1.52,.34,.36,.76,.54,1.27,.54,.34,0,.63-.09,.87-.28s.41-.49,.53-.91Zm.12-2.22c-.02-.64-.18-1.12-.49-1.45-.31-.33-.69-.5-1.14-.5-.48,0-.88,.17-1.19,.52-.31,.35-.47,.82-.46,1.42h3.28Z"/></g><g><path d="M581.81,366.74l-4.09-11.45h2.51l2.9,8.48,2.8-8.48h2.45l-4.1,11.45h-2.47Z"/><path d="M594.37,364.1l2.19,.37c-.28,.8-.73,1.41-1.33,1.83-.61,.42-1.37,.63-2.28,.63-1.44,0-2.51-.47-3.2-1.41-.55-.75-.82-1.71-.82-2.86,0-1.38,.36-2.45,1.08-3.23,.72-.78,1.63-1.17,2.73-1.17,1.23,0,2.21,.41,2.92,1.22,.71,.82,1.05,2.06,1.02,3.75h-5.5c.02,.65,.19,1.16,.53,1.52,.34,.36,.76,.54,1.27,.54,.34,0,.63-.09,.87-.28s.41-.49,.53-.91Zm.12-2.22c-.02-.64-.18-1.12-.49-1.45-.31-.33-.69-.5-1.14-.5-.48,0-.88,.17-1.19,.52-.31,.35-.47,.82-.46,1.42h3.28Z"/><path d="M600.58,366.74h-2.2v-8.3h2.04v1.18c.35-.56,.66-.92,.94-1.1,.28-.18,.59-.27,.95-.27,.5,0,.98,.14,1.45,.41l-.68,1.91c-.37-.24-.71-.36-1.03-.36s-.57,.08-.78,.25c-.21,.17-.38,.48-.5,.92-.12,.44-.18,1.37-.18,2.78v2.56Z"/><path d="M604.63,366.74v-11.45h2.2v4.12c.68-.77,1.48-1.16,2.41-1.16,1.01,0,1.85,.37,2.51,1.1,.66,.73,.99,1.78,.99,3.15s-.34,2.51-1.01,3.27-1.49,1.15-2.46,1.15c-.47,0-.94-.12-1.4-.36s-.86-.59-1.19-1.05v1.22h-2.04Zm2.18-4.33c0,.86,.14,1.5,.41,1.91,.38,.58,.89,.88,1.52,.88,.48,0,.9-.21,1.24-.62s.51-1.07,.51-1.96c0-.95-.17-1.63-.52-2.05-.34-.42-.78-.63-1.32-.63s-.96,.2-1.31,.61c-.35,.41-.52,1.03-.52,1.86Z"/><path d="M619.32,364.1l2.19,.37c-.28,.8-.73,1.41-1.33,1.83-.61,.42-1.37,.63-2.28,.63-1.44,0-2.51-.47-3.2-1.41-.55-.75-.82-1.71-.82-2.86,0-1.38,.36-2.45,1.08-3.23,.72-.78,1.63-1.17,2.73-1.17,1.23,0,2.21,.41,2.92,1.22,.71,.82,1.05,2.06,1.02,3.75h-5.5c.02,.65,.19,1.16,.53,1.52,.34,.36,.76,.54,1.27,.54,.34,0,.63-.09,.87-.28s.41-.49,.53-.91Zm.12-2.22c-.02-.64-.18-1.12-.49-1.45-.31-.33-.69-.5-1.14-.5-.48,0-.88,.17-1.19,.52-.31,.35-.47,.82-.46,1.42h3.28Z"/><path d="M622.65,364.37l2.2-.34c.09,.43,.28,.75,.57,.97,.29,.22,.69,.33,1.2,.33,.57,0,1-.1,1.28-.31,.19-.15,.29-.34,.29-.59,0-.17-.05-.3-.16-.41-.11-.1-.35-.2-.73-.29-1.77-.39-2.89-.75-3.37-1.07-.66-.45-.98-1.07-.98-1.87,0-.72,.28-1.32,.85-1.81,.57-.49,1.45-.73,2.64-.73s1.98,.19,2.53,.55c.55,.37,.93,.92,1.14,1.64l-2.07,.38c-.09-.32-.26-.57-.5-.74s-.6-.26-1.06-.26c-.58,0-.99,.08-1.24,.24-.17,.11-.25,.26-.25,.45,0,.16,.07,.29,.22,.4,.2,.15,.88,.35,2.05,.62s1.99,.59,2.45,.98c.46,.39,.69,.94,.69,1.63,0,.76-.32,1.41-.95,1.96s-1.58,.82-2.82,.82c-1.13,0-2.02-.23-2.68-.69-.66-.46-1.09-1.08-1.29-1.87Z"/><path d="M631.57,364.37l2.2-.34c.09,.43,.28,.75,.57,.97,.29,.22,.69,.33,1.2,.33,.57,0,1-.1,1.28-.31,.19-.15,.29-.34,.29-.59,0-.17-.05-.3-.16-.41-.11-.1-.35-.2-.73-.29-1.77-.39-2.89-.75-3.37-1.07-.66-.45-.98-1.07-.98-1.87,0-.72,.28-1.32,.85-1.81,.57-.49,1.45-.73,2.64-.73s1.98,.19,2.53,.55c.55,.37,.93,.92,1.14,1.64l-2.07,.38c-.09-.32-.26-.57-.5-.74s-.6-.26-1.06-.26c-.58,0-.99,.08-1.24,.24-.17,.11-.25,.26-.25,.45,0,.16,.07,.29,.22,.4,.2,.15,.88,.35,2.05,.62s1.99,.59,2.45,.98c.46,.39,.69,.94,.69,1.63,0,.76-.32,1.41-.95,1.96s-1.58,.82-2.82,.82c-1.13,0-2.02-.23-2.68-.69-.66-.46-1.09-1.08-1.29-1.87Z"/><path d="M646.06,364.1l2.19,.37c-.28,.8-.73,1.41-1.33,1.83-.61,.42-1.37,.63-2.28,.63-1.44,0-2.51-.47-3.2-1.41-.55-.75-.82-1.71-.82-2.86,0-1.38,.36-2.45,1.08-3.23,.72-.78,1.63-1.17,2.73-1.17,1.23,0,2.21,.41,2.92,1.22,.71,.82,1.05,2.06,1.02,3.75h-5.5c.02,.65,.19,1.16,.53,1.52,.34,.36,.76,.54,1.27,.54,.34,0,.63-.09,.87-.28s.41-.49,.53-.91Zm.12-2.22c-.02-.64-.18-1.12-.49-1.45-.31-.33-.69-.5-1.14-.5-.48,0-.88,.17-1.19,.52-.31,.35-.47,.82-.46,1.42h3.28Z"/><path d="M652.27,366.74h-2.2v-8.3h2.04v1.18c.35-.56,.66-.92,.94-1.1,.28-.18,.59-.27,.95-.27,.5,0,.98,.14,1.45,.41l-.68,1.91c-.37-.24-.71-.36-1.03-.36s-.57,.08-.78,.25c-.21,.17-.38,.48-.5,.92-.12,.44-.18,1.37-.18,2.78v2.56Z"/><path d="M661.87,366.74v-1.24c-.3,.44-.7,.79-1.19,1.05s-1.01,.38-1.56,.38-1.06-.12-1.5-.37-.76-.59-.96-1.03c-.2-.44-.3-1.05-.3-1.84v-5.25h2.2v3.81c0,1.17,.04,1.88,.12,2.14,.08,.26,.23,.47,.44,.62,.21,.15,.48,.23,.81,.23,.38,0,.71-.1,1.01-.31,.3-.21,.5-.46,.61-.77s.16-1.05,.16-2.24v-3.5h2.2v8.3h-2.04Z"/><path d="M673.75,366.74h-2.2v-4.23c0-.9-.05-1.48-.14-1.74-.09-.26-.25-.47-.46-.61-.21-.15-.46-.22-.76-.22-.38,0-.72,.1-1.02,.31-.3,.21-.51,.48-.62,.83s-.17,.98-.17,1.91v3.76h-2.2v-8.3h2.04v1.22c.72-.94,1.64-1.41,2.73-1.41,.48,0,.93,.09,1.33,.26,.4,.17,.7,.4,.91,.67,.21,.27,.35,.58,.43,.92s.12,.84,.12,1.48v5.16Z"/><path d="M675.79,367.29l2.51,.3c.04,.29,.14,.49,.29,.6,.21,.16,.54,.23,.98,.23,.57,0,1-.09,1.29-.26,.19-.11,.34-.3,.44-.55,.07-.18,.1-.52,.1-1.01v-1.21c-.66,.9-1.48,1.34-2.48,1.34-1.11,0-2-.47-2.65-1.41-.51-.74-.77-1.67-.77-2.78,0-1.39,.33-2.45,1-3.19s1.5-1.1,2.5-1.1,1.87,.45,2.54,1.35v-1.16h2.05v7.45c0,.98-.08,1.71-.24,2.2s-.39,.86-.68,1.14c-.29,.28-.68,.49-1.17,.65s-1.1,.23-1.85,.23c-1.41,0-2.4-.24-2.99-.72-.59-.48-.88-1.09-.88-1.83,0-.07,0-.16,0-.27Zm1.96-4.87c0,.88,.17,1.52,.51,1.93,.34,.41,.76,.61,1.26,.61,.54,0,.99-.21,1.36-.63,.37-.42,.55-1.04,.55-1.86s-.18-1.5-.53-1.91c-.35-.42-.8-.62-1.34-.62s-.96,.2-1.3,.61c-.34,.41-.51,1.03-.51,1.87Z"/></g><g><path d="M314.84,366.74v-11.45h8.49v1.94h-6.18v2.54h5.75v1.93h-5.75v3.12h6.4v1.93h-8.71Z"/><path d="M325.51,357.32v-2.03h2.2v2.03h-2.2Zm0,9.42v-8.3h2.2v8.3h-2.2Z"/><path d="M337.52,366.74h-2.2v-4.23c0-.9-.05-1.48-.14-1.74-.09-.26-.25-.47-.46-.61-.21-.15-.46-.22-.76-.22-.38,0-.72,.1-1.02,.31-.3,.21-.51,.48-.62,.83s-.17,.98-.17,1.91v3.76h-2.2v-8.3h2.04v1.22c.72-.94,1.64-1.41,2.73-1.41,.48,0,.93,.09,1.33,.26,.4,.17,.7,.4,.91,.67,.21,.27,.35,.58,.43,.92s.12,.84,.12,1.48v5.16Z"/><path d="M338.8,358.44h1.22v-.62c0-.7,.07-1.22,.22-1.56s.42-.62,.82-.84c.4-.22,.9-.32,1.51-.32s1.24,.09,1.84,.28l-.3,1.53c-.35-.08-.68-.12-1.01-.12s-.55,.07-.68,.22-.21,.43-.21,.86v.59h1.64v1.73h-1.64v6.57h-2.2v-6.57h-1.22v-1.73Z"/><path d="M350.57,366.74v-1.24c-.3,.44-.7,.79-1.19,1.05s-1.01,.38-1.56,.38-1.06-.12-1.5-.37-.76-.59-.96-1.03c-.2-.44-.3-1.05-.3-1.84v-5.25h2.2v3.81c0,1.17,.04,1.88,.12,2.14,.08,.26,.23,.47,.44,.62,.21,.15,.48,.23,.81,.23,.38,0,.71-.1,1.01-.31,.3-.21,.5-.46,.61-.77s.16-1.05,.16-2.24v-3.5h2.2v8.3h-2.04Zm-4.36-9.77v-1.88h1.88v1.88h-1.88Zm3.36,0v-1.88h1.89v1.88h-1.89Z"/><path d="M357.08,355.29v4.21c.71-.83,1.55-1.24,2.54-1.24,.5,0,.96,.09,1.37,.28s.71,.43,.92,.72c.21,.29,.35,.61,.42,.97,.08,.35,.11,.9,.11,1.65v4.87h-2.2v-4.38c0-.87-.04-1.42-.12-1.66s-.23-.42-.44-.56c-.21-.14-.48-.21-.79-.21-.36,0-.69,.09-.98,.27-.29,.18-.5,.44-.63,.8-.13,.36-.2,.88-.2,1.58v4.16h-2.2v-11.45h2.2Z"/><path d="M366.79,366.74h-2.2v-8.3h2.04v1.18c.35-.56,.66-.92,.94-1.1,.28-.18,.59-.27,.95-.27,.5,0,.98,.14,1.45,.41l-.68,1.91c-.37-.24-.71-.36-1.03-.36s-.57,.08-.78,.25c-.21,.17-.38,.48-.5,.92-.12,.44-.18,1.37-.18,2.78v2.56Z"/><path d="M376.39,366.74v-1.24c-.3,.44-.7,.79-1.19,1.05s-1.01,.38-1.56,.38-1.06-.12-1.5-.37-.76-.59-.96-1.03c-.2-.44-.3-1.05-.3-1.84v-5.25h2.2v3.81c0,1.17,.04,1.88,.12,2.14,.08,.26,.23,.47,.44,.62,.21,.15,.48,.23,.81,.23,.38,0,.71-.1,1.01-.31,.3-.21,.5-.46,.61-.77s.16-1.05,.16-2.24v-3.5h2.2v8.3h-2.04Z"/><path d="M388.26,366.74h-2.2v-4.23c0-.9-.05-1.48-.14-1.74-.09-.26-.25-.47-.46-.61-.21-.15-.46-.22-.76-.22-.38,0-.72,.1-1.02,.31-.3,.21-.51,.48-.62,.83s-.17,.98-.17,1.91v3.76h-2.2v-8.3h2.04v1.22c.72-.94,1.64-1.41,2.73-1.41,.48,0,.93,.09,1.33,.26,.4,.17,.7,.4,.91,.67,.21,.27,.35,.58,.43,.92s.12,.84,.12,1.48v5.16Z"/><path d="M390.3,367.29l2.51,.3c.04,.29,.14,.49,.29,.6,.21,.16,.54,.23,.98,.23,.57,0,1-.09,1.29-.26,.19-.11,.34-.3,.44-.55,.07-.18,.1-.52,.1-1.01v-1.21c-.66,.9-1.48,1.34-2.48,1.34-1.11,0-2-.47-2.65-1.41-.51-.74-.77-1.67-.77-2.78,0-1.39,.33-2.45,1-3.19s1.5-1.1,2.5-1.1,1.87,.45,2.54,1.35v-1.16h2.05v7.45c0,.98-.08,1.71-.24,2.2s-.39,.86-.68,1.14c-.29,.28-.68,.49-1.17,.65s-1.1,.23-1.85,.23c-1.41,0-2.4-.24-2.99-.72-.59-.48-.88-1.09-.88-1.83,0-.07,0-.16,0-.27Zm1.96-4.87c0,.88,.17,1.52,.51,1.93,.34,.41,.76,.61,1.26,.61,.54,0,.99-.21,1.36-.63,.37-.42,.55-1.04,.55-1.86s-.18-1.5-.53-1.91c-.35-.42-.8-.62-1.34-.62s-.96,.2-1.3,.61c-.34,.41-.51,1.03-.51,1.87Z"/></g><g><path d="M304.58,221.8h2.31v6.2c0,.98,.03,1.62,.09,1.91,.1,.47,.33,.85,.71,1.13,.37,.28,.88,.43,1.53,.43s1.15-.13,1.48-.4c.33-.27,.53-.6,.6-.99s.1-1.04,.1-1.95v-6.34h2.31v6.02c0,1.38-.06,2.35-.19,2.91-.12,.57-.36,1.05-.69,1.44s-.79,.7-1.35,.93-1.3,.35-2.2,.35c-1.09,0-1.92-.13-2.49-.38s-1.01-.58-1.34-.98c-.33-.4-.54-.83-.65-1.27-.15-.66-.23-1.62-.23-2.91v-6.11Zm1.97-.66v-1.88h1.88v1.88h-1.88Zm3.36,0v-1.88h1.89v1.88h-1.89Z"/><path d="M316.05,233.25v-11.45h2.2v4.12c.68-.77,1.48-1.16,2.41-1.16,1.01,0,1.85,.37,2.51,1.1,.66,.73,.99,1.78,.99,3.15s-.34,2.51-1.01,3.27-1.49,1.15-2.46,1.15c-.47,0-.94-.12-1.4-.36s-.86-.59-1.19-1.05v1.22h-2.04Zm2.18-4.33c0,.86,.14,1.5,.41,1.91,.38,.58,.89,.88,1.52,.88,.48,0,.9-.21,1.24-.62s.51-1.07,.51-1.96c0-.95-.17-1.63-.52-2.05-.34-.42-.78-.63-1.32-.63s-.96,.2-1.31,.61c-.35,.41-.52,1.03-.52,1.86Z"/><path d="M330.74,230.61l2.19,.37c-.28,.8-.73,1.41-1.33,1.83-.61,.42-1.37,.63-2.28,.63-1.44,0-2.51-.47-3.2-1.41-.55-.75-.82-1.71-.82-2.86,0-1.38,.36-2.45,1.08-3.23,.72-.78,1.63-1.17,2.73-1.17,1.23,0,2.21,.41,2.92,1.22,.71,.82,1.05,2.06,1.02,3.75h-5.5c.02,.65,.19,1.16,.53,1.52,.34,.36,.76,.54,1.27,.54,.34,0,.63-.09,.87-.28s.41-.49,.53-.91Zm.12-2.22c-.02-.64-.18-1.12-.49-1.45-.31-.33-.69-.5-1.14-.5-.48,0-.88,.17-1.19,.52-.31,.35-.47,.82-.46,1.42h3.28Z"/><path d="M336.95,233.25h-2.2v-8.3h2.04v1.18c.35-.56,.66-.92,.94-1.1,.28-.18,.59-.27,.95-.27,.5,0,.98,.14,1.45,.41l-.68,1.91c-.37-.24-.71-.36-1.03-.36s-.57,.08-.78,.25c-.21,.17-.38,.48-.5,.92-.12,.44-.18,1.37-.18,2.78v2.56Z"/><path d="M342.64,233.25l-2.62-8.3h2.13l1.55,5.44,1.43-5.44h2.12l1.38,5.44,1.59-5.44h2.16l-2.66,8.3h-2.11l-1.43-5.34-1.41,5.34h-2.13Z"/><path d="M355.2,227.48l-1.99-.36c.22-.8,.61-1.4,1.16-1.78,.55-.39,1.36-.58,2.44-.58,.98,0,1.71,.12,2.19,.35,.48,.23,.82,.53,1.01,.88,.2,.36,.29,1.01,.29,1.96l-.02,2.56c0,.73,.04,1.27,.11,1.61,.07,.35,.2,.72,.39,1.11h-2.17c-.06-.15-.13-.36-.21-.65-.04-.13-.06-.22-.08-.26-.38,.36-.78,.64-1.2,.82s-.88,.27-1.37,.27c-.85,0-1.53-.23-2.02-.7-.49-.46-.74-1.05-.74-1.76,0-.47,.11-.89,.34-1.25s.54-.65,.94-.84,.99-.37,1.75-.51c1.03-.19,1.74-.37,2.13-.54v-.22c0-.42-.1-.72-.31-.9s-.6-.27-1.18-.27c-.39,0-.7,.08-.91,.23-.22,.15-.4,.42-.53,.81Zm2.94,1.78c-.28,.09-.73,.21-1.34,.34-.61,.13-1.01,.26-1.2,.38-.29,.2-.43,.46-.43,.77s.11,.57,.34,.8c.23,.22,.52,.34,.88,.34,.4,0,.77-.13,1.13-.39,.27-.2,.44-.44,.52-.73,.06-.19,.09-.54,.09-1.07v-.44Z"/><path d="M369.7,227.41l-2.16,.39c-.07-.43-.24-.76-.5-.98s-.59-.33-1-.33c-.55,0-.98,.19-1.31,.57-.33,.38-.49,1.01-.49,1.89,0,.98,.17,1.68,.5,2.09s.77,.61,1.33,.61c.42,0,.76-.12,1.02-.36,.27-.24,.45-.64,.56-1.22l2.16,.37c-.22,.99-.65,1.74-1.29,2.24-.64,.51-1.49,.76-2.55,.76-1.21,0-2.18-.38-2.9-1.15s-1.08-1.83-1.08-3.18,.36-2.44,1.09-3.2c.72-.76,1.7-1.14,2.94-1.14,1.01,0,1.81,.22,2.41,.65,.6,.44,1.02,1.1,1.29,1.99Z"/><path d="M373.57,221.8v4.21c.71-.83,1.55-1.24,2.54-1.24,.5,0,.96,.09,1.37,.28s.71,.43,.92,.72c.21,.29,.35,.61,.42,.97,.08,.35,.11,.9,.11,1.65v4.87h-2.2v-4.38c0-.87-.04-1.42-.12-1.66s-.23-.42-.44-.56c-.21-.14-.48-.21-.79-.21-.36,0-.69,.09-.98,.27-.29,.18-.5,.44-.63,.8-.13,.36-.2,.88-.2,1.58v4.16h-2.2v-11.45h2.2Z"/><path d="M386.64,233.25v-1.24c-.3,.44-.7,.79-1.19,1.05s-1.01,.38-1.56,.38-1.06-.12-1.5-.37-.76-.59-.96-1.03c-.2-.44-.3-1.05-.3-1.84v-5.25h2.2v3.81c0,1.17,.04,1.88,.12,2.14,.08,.26,.23,.47,.44,.62,.21,.15,.48,.23,.81,.23,.38,0,.71-.1,1.01-.31,.3-.21,.5-.46,.61-.77s.16-1.05,.16-2.24v-3.5h2.2v8.3h-2.04Z"/><path d="M398.51,233.25h-2.2v-4.23c0-.9-.05-1.48-.14-1.74-.09-.26-.25-.47-.46-.61-.21-.15-.46-.22-.76-.22-.38,0-.72,.1-1.02,.31-.3,.21-.51,.48-.62,.83s-.17,.98-.17,1.91v3.76h-2.2v-8.3h2.04v1.22c.72-.94,1.64-1.41,2.73-1.41,.48,0,.93,.09,1.33,.26,.4,.17,.7,.4,.91,.67,.21,.27,.35,.58,.43,.92s.12,.84,.12,1.48v5.16Z"/><path d="M400.55,233.8l2.51,.3c.04,.29,.14,.49,.29,.6,.21,.16,.54,.23,.98,.23,.57,0,1-.09,1.29-.26,.19-.11,.34-.3,.44-.55,.07-.18,.1-.52,.1-1.01v-1.21c-.66,.9-1.48,1.34-2.48,1.34-1.11,0-2-.47-2.65-1.41-.51-.74-.77-1.67-.77-2.78,0-1.39,.33-2.45,1-3.19s1.5-1.1,2.5-1.1,1.87,.45,2.54,1.35v-1.16h2.05v7.45c0,.98-.08,1.71-.24,2.2s-.39,.86-.68,1.14c-.29,.28-.68,.49-1.17,.65s-1.1,.23-1.85,.23c-1.41,0-2.4-.24-2.99-.72-.59-.48-.88-1.09-.88-1.83,0-.07,0-.16,0-.27Zm1.96-4.87c0,.88,.17,1.52,.51,1.93,.34,.41,.76,.61,1.26,.61,.54,0,.99-.21,1.36-.63,.37-.42,.55-1.04,.55-1.86s-.18-1.5-.53-1.91c-.35-.42-.8-.62-1.34-.62s-.96,.2-1.3,.61c-.34,.41-.51,1.03-.51,1.87Z"/></g><g><line x1="492.67" y1="81.97" x2="492.67" y2="100.78" style="fill:none; stroke:#000; stroke-miterlimit:8; stroke-width:2px;"/><polygon points="485.19 98.59 492.67 111.54 500.15 98.59 485.19 98.59"/></g><g><path d="M605.21,141.79v-10.02h1.33v10.02h-1.33Z" style="fill:#0333ff;"/><path d="M608.24,139.62l1.22-.19c.07,.49,.26,.86,.57,1.12,.31,.26,.75,.39,1.31,.39s.98-.12,1.26-.35,.41-.5,.41-.81c0-.28-.12-.5-.36-.66-.17-.11-.59-.25-1.26-.42-.9-.23-1.53-.42-1.88-.59-.35-.17-.61-.4-.79-.69-.18-.29-.27-.62-.27-.97,0-.32,.07-.62,.22-.9,.15-.28,.35-.5,.61-.69,.19-.14,.45-.26,.78-.36,.33-.1,.68-.15,1.06-.15,.57,0,1.07,.08,1.5,.25,.43,.16,.75,.39,.95,.67s.35,.66,.42,1.12l-1.2,.16c-.05-.37-.21-.67-.48-.88-.26-.21-.63-.31-1.11-.31-.57,0-.97,.09-1.21,.28s-.36,.41-.36,.66c0,.16,.05,.3,.15,.43,.1,.13,.26,.24,.47,.33,.12,.05,.49,.15,1.09,.31,.87,.23,1.48,.42,1.82,.57,.34,.15,.61,.36,.81,.65s.29,.63,.29,1.05-.12,.8-.36,1.16c-.24,.36-.58,.64-1.04,.84s-.96,.3-1.53,.3c-.94,0-1.66-.2-2.16-.59-.49-.39-.81-.97-.95-1.74Z" style="fill:#0333ff;"/><path d="M618.43,140.69l.18,1.09c-.35,.07-.66,.11-.93,.11-.45,0-.79-.07-1.04-.21s-.42-.33-.52-.56-.15-.71-.15-1.45v-4.18h-.9v-.96h.9v-1.8l1.22-.74v2.54h1.24v.96h-1.24v4.25c0,.35,.02,.58,.07,.68,.04,.1,.11,.18,.21,.24,.1,.06,.24,.09,.42,.09,.14,0,.32-.02,.54-.05Z" style="fill:#0333ff;"/></g><g><path d="M481.6,460.23l1.25-.11c.06,.5,.2,.91,.41,1.23,.22,.32,.55,.58,1.01,.78s.97,.3,1.54,.3c.51,0,.95-.08,1.34-.23s.68-.36,.87-.62c.19-.26,.28-.55,.28-.86s-.09-.59-.27-.82-.48-.43-.9-.59c-.27-.1-.86-.27-1.78-.49s-1.57-.43-1.93-.63c-.48-.25-.83-.56-1.07-.93-.23-.37-.35-.79-.35-1.25,0-.51,.14-.98,.43-1.42s.71-.77,1.26-1,1.16-.34,1.84-.34c.74,0,1.4,.12,1.96,.36,.57,.24,1,.59,1.31,1.06s.47,.99,.49,1.58l-1.27,.1c-.07-.63-.3-1.11-.69-1.44-.39-.32-.98-.49-1.75-.49s-1.39,.15-1.75,.44c-.37,.29-.55,.65-.55,1.06,0,.36,.13,.66,.39,.89,.25,.23,.92,.47,2,.71,1.08,.24,1.82,.46,2.22,.64,.58,.27,1.01,.61,1.29,1.02s.42,.89,.42,1.43-.15,1.04-.46,1.51-.74,.84-1.32,1.1c-.57,.26-1.21,.39-1.93,.39-.91,0-1.67-.13-2.28-.4-.61-.26-1.09-.66-1.44-1.19-.35-.53-.53-1.13-.55-1.8Z" style="fill:#0333ff;"/><path d="M490.79,459.82c0-1.34,.37-2.34,1.12-2.99,.62-.54,1.39-.81,2.28-.81,1,0,1.81,.33,2.45,.98s.95,1.56,.95,2.71c0,.93-.14,1.67-.42,2.2-.28,.54-.69,.95-1.22,1.25-.54,.3-1.12,.44-1.75,.44-1.02,0-1.84-.33-2.46-.98-.63-.65-.94-1.59-.94-2.82Zm1.26,0c0,.93,.2,1.63,.61,2.09s.92,.69,1.53,.69,1.12-.23,1.52-.7,.61-1.17,.61-2.13c0-.9-.2-1.58-.61-2.04-.41-.46-.92-.69-1.52-.69s-1.13,.23-1.53,.69-.61,1.16-.61,2.08Z" style="fill:#0333ff;"/><path d="M499.02,463.45v-10.02h1.23v10.02h-1.23Z" style="fill:#0333ff;"/><path d="M502.15,463.45v-10.02h1.23v10.02h-1.23Z" style="fill:#0333ff;"/></g><polygon points="492.67 233.25 449.37 308.25 535.97 308.25 492.67 233.25" style="fill:none; stroke:#0333ff; stroke-miterlimit:8; stroke-width:2px;"/></g><g><path d="M482.97,288.33v-1.23l5.13-6.42c.36-.46,.71-.85,1.04-1.19h-5.59v-1.18h7.18v1.18l-5.63,6.95-.61,.7h6.4v1.18h-7.92Z" style="fill:#0333ff;"/><path d="M492.19,279.72v-1.42h1.23v1.42h-1.23Zm0,8.61v-7.26h1.23v7.26h-1.23Z" style="fill:#0333ff;"/><path d="M500.28,285.99l1.27,.16c-.2,.74-.57,1.32-1.11,1.73s-1.24,.62-2.08,.62c-1.06,0-1.9-.33-2.53-.98-.62-.65-.93-1.57-.93-2.75s.31-2.17,.94-2.84,1.44-1.01,2.45-1.01,1.76,.33,2.38,.99,.92,1.59,.92,2.79c0,.07,0,.18,0,.33h-5.41c.05,.8,.27,1.41,.68,1.83s.91,.64,1.52,.64c.45,0,.84-.12,1.16-.36s.57-.62,.76-1.13Zm-4.04-1.99h4.05c-.05-.61-.21-1.07-.46-1.37-.39-.47-.9-.71-1.52-.71-.57,0-1.04,.19-1.42,.57-.39,.38-.6,.88-.64,1.52Z" style="fill:#0333ff;"/><path d="M503.08,288.33v-10.02h1.23v10.02h-1.23Z" style="fill:#0333ff;"/></g></svg>