<svg width="113.4" height="113.4" xmlns="http://www.w3.org/2000/svg" xml:space="preserve" version="1.1">

 <g>
  <title>Layer 1</title>
  <g id="captions"/>
  <g id="svg_11">
   <g id="hintergrund">
    <rect id="svg_1" fill="none" height="113.4" width="113.4" class="st0" y="6.4125" x="0"/>
   </g>
   <g id="symbole">
    <g id="svg_2">
     <g id="svg_3">
      <g id="svg_4">
       <polygon id="svg_5" fill="#26C6DA" points="91.5,92.3125 68.79998779296875,53.01249694824219 66.20001220703125,53.412506103515625 87.20001220703125,89.8125 26,89.8125 44.79998779296875,57.212493896484375 41.600006103515625,57.8125 21.70001220703125,92.3125 " class="st1"/>
       <g id="svg_6">
        <path id="svg_7" fill="#26C6DA" d="m91.7,43.2125l-0.4,-2.5l-12.7,2.2c-1.2,-5.3 -4.3,-9.8 -8.7,-12.9c-3.6,-2.5 -7.7,-3.9 -12,-4l-15,25.8l48.8,-8.6z" class="st1"/>
       </g>
       <g id="svg_8">
        <path y="109.70001" x="-459.29999" id="svg_9" fill="#26C6DA" d="m53.4,26.4125c-5.8,1 -10.8,4.2 -14.2,9c-3.4,4.8 -4.7,10.6 -3.6,16.4l0.2,1.2l3.9,-0.7l15.1,-26.1c-0.5,0.1 -1,0.2 -1.4,0.2z" class="st1"/>
       </g>
      </g>
     </g>
    </g>
   </g>
   <text xml:space="preserve" text-anchor="start" font-family="Noto Sans JP" font-size="24" stroke-width="0" id="svg_10" y="21.51251" x="82.70001" stroke="null" fill="#000000">
   </text>
  </g>
 </g>
</svg>