<?xml version="1.0" encoding="UTF-8"?>
<svg id="graphics" xmlns="http://www.w3.org/2000/svg" viewBox="0 0 988 525">
  <defs>
    <style>
      .cls-1, .cls-2 {
        font-size: 14px;
      }

      .cls-1, .cls-3 {
        font-family: Arial-BoldMT, Arial;
        font-weight: 700;
      }

      .cls-4 {
        letter-spacing: -.02em;
      }

      .cls-2 {
        font-family: ArialMT, Arial;
      }

      .cls-5 {
        fill: #fff;
        stroke-width: 2px;
      }

      .cls-5, .cls-6 {
        stroke: #1d1d1b;
        stroke-miterlimit: 10;
      }

      .cls-3 {
        fill: #0333ff;
        font-size: 18px;
      }

      .cls-7 {
        letter-spacing: -.07em;
      }

      .cls-8 {
        letter-spacing: -.06em;
      }

      .cls-6 {
        fill: none;
      }

      .cls-9, .cls-10 {
        stroke-width: 0px;
      }

      .cls-10 {
        fill-rule: evenodd;
      }
    </style>
  </defs>
  <text transform="translate(395.34 83.7)"><tspan class="cls-3"><tspan x="0" y="0">Philanthropic responsibilities</tspan></tspan><tspan class="cls-1"><tspan x="0" y="28.8">Be a good corporate citizen!</tspan></tspan><tspan class="cls-2"><tspan x="0" y="45.6">Contribute resources to the communit</tspan><tspan class="cls-7" x="233.44" y="45.6">y</tspan><tspan x="239.4" y="45.6">, improve quality of life.</tspan></tspan></text>
  <text transform="translate(452.82 183.85)"><tspan class="cls-3"><tspan x="0" y="0">Ethical responsibilities</tspan></tspan><tspan class="cls-1"><tspan x="0" y="28.8">Be ethical!</tspan></tspan><tspan class="cls-2"><tspan x="0" y="45.6">Obligation to do what is right, just and fai</tspan><tspan class="cls-8" x="252.14" y="45.6">r</tspan><tspan x="256.03" y="45.6">.</tspan><tspan class="cls-8" x="259.92" y="45.6"> </tspan><tspan class="cls-4" x="263.04" y="45.6">A</tspan><tspan x="272.12" y="45.6">void harm.</tspan></tspan></text>
  <text transform="translate(512.92 282.45)"><tspan class="cls-3"><tspan x="0" y="0">Legal responsibilities</tspan></tspan><tspan class="cls-1"><tspan x="0" y="28.8">Obey the law!</tspan></tspan><tspan class="cls-2"><tspan x="0" y="45.6">Play by the rules of the game.</tspan></tspan></text>
  <text transform="translate(570.04 381.43)"><tspan class="cls-3"><tspan x="0" y="0">Economic responsibilities</tspan></tspan><tspan class="cls-1"><tspan x="0" y="28.8">Be profitable!</tspan></tspan><tspan class="cls-2"><tspan x="0" y="45.6">The foundation upon which all others rest.</tspan></tspan></text>
  <g>
    <polygon class="cls-5" points="316.39 58.98 86.48 457.19 546.3 457.19 316.39 58.98"/>
    <line class="cls-6" x1="258.91" y1="158.54" x2="373.87" y2="158.54"/>
    <line class="cls-6" x1="201.44" y1="258.09" x2="431.34" y2="258.09"/>
    <line class="cls-6" x1="143.96" y1="357.64" x2="488.82" y2="357.64"/>
    <line class="cls-6" x1="93.49" y1="457.19" x2="510.21" y2="457.19"/>
  </g>
  <g>
    <path class="cls-10" d="m327.17,229.6c-10.08-8.06-13.28-17.03-13.92-19.13l9.69-4c2.44,9.06,10.56,15.9,12.99,17.78l-8.76,5.35Zm-5.13-41.95c1.72-1.97,4.31-3.15,5.68-3.68-.36,1.42-1.22,4.14-2.94,6.11-1.21,1.3-2.61,2.42-4.16,3.3-.65.12-1.28.26-1.9.43.66-1.8,1.79-4.42,3.32-6.16Zm4.55,6.44c2.58.33,4.99,1.8,6.18,2.63-1.37.49-4.1,1.29-6.68.96-2.57-.33-5.54-1.84-7.1-2.72.47-.13,1.05-.27,1.7-.41,1.93-.46,3.92-.61,5.89-.46Zm-23.38,37.37h-6.72c.62-2.33,1.11-4.69,1.47-7.08,1.29.23,2.6.35,3.91.34.94,0,1.87-.06,2.8-.17-.36,2.33-.85,4.63-1.47,6.9Zm-.16-44.89c.82,2.9,1.44,5.85,1.84,8.84-2.27.25-4.56.15-6.79-.31-.4-2.88-.99-5.73-1.76-8.53h6.72Zm2.77,22.81c-.93.13-1.87.19-2.82.19-1.32,0-2.64-.12-3.94-.37,0-4.32-.26-8.64-.8-12.93,1.38.26,2.78.4,4.18.4.87,0,1.74-.06,2.6-.16.53,4.24.79,8.51.78,12.78v.09Zm-.96,14.01c-.99.14-1.98.21-2.98.21-1.26,0-2.51-.11-3.75-.33.59-4.28.9-8.6.93-12.92,1.3.24,2.62.35,3.95.35.94,0,1.88-.06,2.81-.17-.04,4.31-.36,8.61-.95,12.87Zm32.4.44c-.11-.08-10.93-7.89-13.38-18.26l-.15-.64-5.99,2.47c-.86-.67-3.99-3.51-4.99-9.71,1.49-.95,3.08-1.72,4.74-2.32.93.58,4.93,2.97,8.45,3.41.47.06.95.09,1.42.09,2.33-.06,4.63-.57,6.77-1.5l.81-.37-.68-.57c-.14-.12-3.58-2.96-7.54-3.46-1.17-.13-2.34-.12-3.51.02.87-.64,1.68-1.37,2.4-2.17,2.64-3.02,3.38-7.43,3.41-7.62l.14-.87-.85.25c-.18.05-4.49,1.32-7.13,4.34-1.89,2.16-3.2,5.5-3.81,7.31-.34.12-.69.24-1.02.37l-.04.02c-3.65,1.52-6.95,3.78-9.67,6.64-.33-5.21-1.21-10.37-2.64-15.4l-.12-.4h-9.06l.22.72c1.86,6.16,2.89,14.37,2.89,23.12s-.97,16.48-2.72,22.57l-.2.72h9.05l.12-.41c1.79-6.2,2.77-14.32,2.77-22.88,0-2.22-.07-4.4-.19-6.52,1.5-1.64,3.17-3.12,4.98-4.4,1,5.45,3.53,8.35,4.83,9.51l-4.65,1.91.11.46c.1.44,2.72,10.99,14.75,20.46l.31.24,10.86-6.63-.69-.49Z"/>
    <circle class="cls-9" cx="316.39" cy="213.46" r="1.5"/>
  </g>
  <path class="cls-10" d="m318.64,144.44v-15.25h15.75v15.25h-15.75Zm-20.25-15.25h15.75v15.25h-15.75v-15.25Zm15.75-15.25v10.73h-15.75v-10.73h15.75Zm-7.58-2.36c-.5-.77-.57-1.73-.2-2.57l.08-.17c.36-.84,1.12-1.44,2.01-1.59.16-.03.33-.04.5-.04.74,0,1.44.3,1.94.84l4.55,4.75-7,.02c-.78-.11-1.47-.57-1.88-1.23h0Zm7.2-3.48c-.57-1.4.11-2.99,1.5-3.56.33-.13.67-.2,1.02-.2h.2c1.5,0,2.72,1.24,2.71,2.75,0,.36-.07.71-.21,1.04l-.71,1.71-2.05,2.14-1.55-1.62-.91-2.25Zm7.8-.06c.51-.54,1.21-.84,1.94-.84.17,0,.33.02.5.04.9.15,1.66.75,2.01,1.59l.08.17c.6,1.38-.02,3-1.4,3.6-.22.1-.45.16-.68.2l-7-.03,4.55-4.74Zm-2.92,17.77h15.75v2.26h-15.75v-2.26Zm-3.38-11.86h2.25v30.51h-2.25v-30.51Zm-1.12,14.12h-15.75v-2.26h15.75v2.26Zm20.25-3.39h-15.75v-10.73h15.75v10.73Zm-8.06-11.86c1.12-1.11,1.43-2.81.79-4.26l-.08-.17c-.85-1.95-3.12-2.84-5.07-1.99-.46.2-.88.49-1.23.86l-.5.52c.39-2.09-.98-4.11-3.06-4.5-.23-.04-.46-.07-.7-.07h-.19c-2.12-.01-3.85,1.7-3.86,3.83,0,.39.06.78.17,1.16l-.91-.95c-1.47-1.54-3.91-1.58-5.44-.1-.36.35-.65.77-.85,1.23l-.08.17c-.64,1.45-.33,3.14.78,4.26h-8.85v32.77h38.25v-32.77h-9.19Z"/>
  <g>
    <path class="cls-10" d="m332.42,311.7c-2.82,0-5.25-1.05-5.79-2.39h11.59c-.55,1.34-2.98,2.39-5.79,2.39Zm-16.03-21.31c-.62,0-1.12-.51-1.12-1.13s.5-1.13,1.12-1.13,1.12.51,1.12,1.13-.5,1.13-1.12,1.13Zm-16.03,21.31c-2.82,0-5.25-1.05-5.79-2.39h11.59c-.55,1.34-2.98,2.39-5.79,2.39Zm0-21.15l4.13,17.64h-8.27l4.13-17.64s0,0,0,0,0,0,0,0Zm36.19,17.64h-8.27l4.13-17.64s0,0,0,0,0,0,0,0l4.13,17.64Zm1.16,0l-4.3-18.36h1.54c.31,0,.56-.25.56-.56s-.25-.56-.56-.56h-16.39c-.21-.79-.82-1.41-1.61-1.61v-5.16c0-.31-.25-.56-.56-.56s-.56.25-.56.56v5.16c-.79.21-1.4.82-1.61,1.61h-16.39c-.31,0-.56.25-.56.56s.25.56.56.56h1.54l-4.3,18.36h-1.74v.56c0,2.29,3.09,4.08,7.03,4.08s7.03-1.79,7.03-4.08v-.56h-1.74l-4.3-18.36h12.87c.21.79.82,1.41,1.61,1.61v31.15h-3.94c-1.24,0-2.25,1.01-2.25,2.26h1.12c0-.62.5-1.13,1.12-1.13h9c.62,0,1.12.51,1.12,1.13h1.12c0-1.25-1.01-2.26-2.25-2.26h-3.94v-31.15c.79-.21,1.4-.82,1.61-1.61h12.87l-4.3,18.36h-1.74v.56c0,2.29,3.09,4.08,7.03,4.08s7.03-1.79,7.03-4.08v-.56h-1.74Z"/>
    <rect class="cls-9" x="302.89" y="325.22" width="27" height="1.12"/>
  </g>
  <g>
    <polygon class="cls-10" points="335.52 428.36 298.39 428.36 298.39 391.24 297.27 391.24 297.27 429.49 335.52 429.49 335.52 428.36"/>
    <path class="cls-10" d="m334.39,423.86h-6.75v-31.5h6.75v31.5Zm1.12-32.62h-9v33.75h9v-33.75Z"/>
    <path class="cls-10" d="m315.27,404.74h6.75v19.12h-6.75v-19.12Zm-1.12,20.25h9v-21.38h-9v21.38Z"/>
    <path class="cls-10" d="m302.89,414.86h6.75v9h-6.75v-9Zm-1.12,10.12h9v-11.25h-9v11.25Z"/>
    <polygon class="cls-10" points="302.19 409.61 318.63 393.16 318.64 393.17 318.64 393.17 318.64 398.54 319.77 398.54 319.77 391.24 312.48 391.24 312.48 392.36 317.83 392.36 317.84 392.37 317.84 392.37 301.39 408.82 302.19 409.61"/>
  </g>
</svg>