<?xml version="1.0" encoding="UTF-8"?>
<svg id="Ebene_1" data-name="Ebene 1" xmlns="http://www.w3.org/2000/svg" viewBox="0 0 988 400">
  <defs>
    <style>
      .cls-1 {
        fill: none;
        stroke: #000;
        stroke-miterlimit: 10;
        stroke-width: 2px;
      }

      .cls-2, .cls-3, .cls-4 {
        stroke-width: 0px;
      }

      .cls-3 {
        fill: #fff;
      }

      .cls-4 {
        fill: #0333ff;
      }
    </style>
  </defs>
  <g>
    <rect class="cls-2" x="534.92" y="164" width="150" height="72"/>
    <g>
      <path class="cls-3" d="m570.19,185.23h4.58c.91,0,1.58.04,2.03.11s.84.23,1.2.47.64.56.88.96.35.84.35,1.34c0,.54-.14,1.03-.43,1.48s-.68.78-1.18,1.01c.7.2,1.23.55,1.61,1.04s.56,1.07.56,1.73c0,.52-.12,1.03-.36,1.52s-.57.89-.99,1.18c-.42.29-.94.48-1.55.54-.39.04-1.32.07-2.79.08h-3.9v-11.45Zm2.31,1.91v2.65h1.52c.9,0,1.46-.01,1.68-.04.4-.05.71-.18.93-.41s.34-.52.34-.89-.1-.64-.29-.86-.49-.36-.87-.4c-.23-.03-.89-.04-1.98-.04h-1.33Zm0,4.55v3.06h2.14c.83,0,1.36-.02,1.59-.07.34-.06.62-.21.84-.46.22-.24.32-.57.32-.97,0-.34-.08-.64-.25-.88-.17-.24-.41-.41-.72-.52-.32-.11-1-.16-2.05-.16h-1.87Z"/>
      <path class="cls-3" d="m586.53,194.05l2.19.37c-.28.8-.73,1.41-1.33,1.83-.61.42-1.37.63-2.28.63-1.44,0-2.51-.47-3.2-1.41-.55-.75-.82-1.71-.82-2.86,0-1.38.36-2.45,1.08-3.23s1.63-1.17,2.73-1.17c1.23,0,2.21.41,2.92,1.22.71.82,1.05,2.06,1.02,3.75h-5.5c.02.65.19,1.16.53,1.52.34.36.76.54,1.27.54.34,0,.63-.09.87-.28s.41-.49.53-.91Zm.12-2.22c-.02-.64-.18-1.12-.49-1.45s-.69-.5-1.14-.5c-.48,0-.88.17-1.19.52s-.47.82-.46,1.42h3.28Z"/>
      <path class="cls-3" d="m592.81,185.23v4.21c.71-.83,1.55-1.24,2.54-1.24.5,0,.96.09,1.37.28s.71.43.92.72c.21.29.35.61.42.97.08.35.11.9.11,1.65v4.87h-2.2v-4.38c0-.87-.04-1.42-.12-1.66-.08-.23-.23-.42-.44-.56s-.48-.21-.79-.21c-.37,0-.69.09-.98.27-.29.18-.5.44-.63.8s-.2.88-.2,1.58v4.16h-2.2v-11.45h2.2Z"/>
      <path class="cls-3" d="m602.04,190.92l-1.99-.36c.22-.8.61-1.4,1.16-1.78s1.36-.58,2.44-.58c.98,0,1.71.12,2.19.35.48.23.82.53,1.01.88s.29,1.01.29,1.96l-.02,2.56c0,.73.04,1.27.11,1.61s.2.72.39,1.11h-2.17c-.06-.15-.13-.36-.21-.65-.04-.13-.06-.22-.08-.26-.38.36-.78.64-1.2.82-.43.18-.88.27-1.37.27-.85,0-1.53-.23-2.02-.7s-.74-1.05-.74-1.76c0-.47.11-.89.34-1.25.22-.37.54-.65.94-.84.4-.2.99-.37,1.75-.51,1.03-.19,1.74-.37,2.13-.54v-.22c0-.42-.1-.72-.31-.9-.21-.18-.6-.27-1.18-.27-.39,0-.7.08-.91.23s-.4.42-.53.81Zm2.94,1.78c-.28.09-.73.21-1.34.34s-1.01.26-1.2.38c-.29.2-.43.46-.43.77s.11.57.34.8c.23.22.52.34.88.34.4,0,.77-.13,1.13-.39.27-.2.44-.44.52-.73.06-.19.09-.54.09-1.07v-.44Z"/>
      <path class="cls-3" d="m611.58,196.69l-3.34-8.3h2.3l1.56,4.23.45,1.41c.12-.36.2-.6.23-.71.07-.23.15-.47.23-.7l1.58-4.23h2.26l-3.3,8.3h-1.98Z"/>
      <path class="cls-3" d="m618.19,187.26v-2.03h2.2v2.03h-2.2Zm0,9.42v-8.3h2.2v8.3h-2.2Z"/>
      <path class="cls-3" d="m622.13,192.42c0-.73.18-1.43.54-2.12s.87-1.2,1.53-1.56c.66-.36,1.39-.54,2.21-.54,1.25,0,2.28.41,3.09,1.22.8.82,1.2,1.84,1.2,3.09s-.41,2.3-1.21,3.12c-.81.83-1.83,1.24-3.06,1.24-.76,0-1.49-.17-2.18-.52-.69-.34-1.21-.85-1.57-1.51s-.54-1.47-.54-2.43Zm2.25.12c0,.82.2,1.45.59,1.89s.87.66,1.45.66,1.05-.22,1.44-.66c.39-.44.58-1.07.58-1.91s-.19-1.44-.58-1.88c-.39-.44-.87-.66-1.44-.66s-1.05.22-1.45.66-.59,1.07-.59,1.89Z"/>
      <path class="cls-3" d="m634.51,196.69h-2.2v-8.3h2.04v1.18c.35-.56.66-.92.94-1.1.28-.18.59-.27.95-.27.5,0,.98.14,1.45.41l-.68,1.91c-.37-.24-.71-.36-1.03-.36s-.57.08-.78.25c-.21.17-.38.48-.5.92-.12.44-.18,1.37-.18,2.78v2.56Z"/>
      <path class="cls-3" d="m640.28,190.92l-1.99-.36c.22-.8.61-1.4,1.16-1.78s1.36-.58,2.44-.58c.98,0,1.71.12,2.19.35.48.23.82.53,1.01.88s.29,1.01.29,1.96l-.02,2.56c0,.73.04,1.27.11,1.61s.2.72.39,1.11h-2.17c-.06-.15-.13-.36-.21-.65-.04-.13-.06-.22-.08-.26-.38.36-.78.64-1.2.82-.43.18-.88.27-1.37.27-.85,0-1.53-.23-2.02-.7s-.74-1.05-.74-1.76c0-.47.11-.89.34-1.25.22-.37.54-.65.94-.84.4-.2.99-.37,1.75-.51,1.03-.19,1.74-.37,2.13-.54v-.22c0-.42-.1-.72-.31-.9-.21-.18-.6-.27-1.18-.27-.39,0-.7.08-.91.23s-.4.42-.53.81Zm2.94,1.78c-.28.09-.73.21-1.34.34s-1.01.26-1.2.38c-.29.2-.43.46-.43.77s.11.57.34.8c.23.22.52.34.88.34.4,0,.77-.13,1.13-.39.27-.2.44-.44.52-.73.06-.19.09-.54.09-1.07v-.44Z"/>
      <path class="cls-3" d="m647.54,196.69v-11.45h2.2v11.45h-2.2Z"/>
      <path class="cls-3" d="m577.25,216.69v-11.45h2.31v11.45h-2.31Z"/>
      <path class="cls-3" d="m589.3,216.69h-2.2v-4.23c0-.9-.05-1.48-.14-1.74s-.25-.47-.46-.61-.46-.22-.76-.22c-.38,0-.72.1-1.02.31-.3.21-.51.48-.62.83-.11.34-.17.98-.17,1.91v3.76h-2.2v-8.3h2.04v1.22c.72-.94,1.63-1.41,2.73-1.41.48,0,.93.09,1.33.26.4.17.7.4.91.67.21.27.35.58.43.92.08.34.12.84.12,1.48v5.16Z"/>
      <path class="cls-3" d="m595.33,208.39v1.75h-1.5v3.34c0,.68.01,1.07.04,1.18.03.11.09.2.2.28s.22.11.37.11c.2,0,.5-.07.88-.21l.19,1.7c-.51.22-1.09.33-1.73.33-.4,0-.75-.07-1.07-.2-.32-.13-.55-.3-.7-.52s-.25-.5-.31-.86c-.05-.25-.07-.77-.07-1.55v-3.62h-1.01v-1.75h1.01v-1.65l2.2-1.28v2.93h1.5Z"/>
      <path class="cls-3" d="m601.66,214.05l2.19.37c-.28.8-.73,1.41-1.33,1.83-.61.42-1.37.63-2.28.63-1.44,0-2.51-.47-3.2-1.41-.55-.75-.82-1.71-.82-2.86,0-1.38.36-2.45,1.08-3.23s1.63-1.17,2.73-1.17c1.23,0,2.21.41,2.92,1.22.71.82,1.05,2.06,1.02,3.75h-5.5c.02.65.19,1.16.53,1.52.34.36.76.54,1.27.54.34,0,.63-.09.87-.28s.41-.49.53-.91Zm.12-2.22c-.02-.64-.18-1.12-.49-1.45s-.69-.5-1.14-.5c-.48,0-.88.17-1.19.52s-.47.82-.46,1.42h3.28Z"/>
      <path class="cls-3" d="m613.3,216.69h-2.2v-4.23c0-.9-.05-1.48-.14-1.74s-.25-.47-.46-.61-.46-.22-.76-.22c-.38,0-.72.1-1.02.31-.3.21-.51.48-.62.83-.11.34-.17.98-.17,1.91v3.76h-2.2v-8.3h2.04v1.22c.72-.94,1.63-1.41,2.73-1.41.48,0,.93.09,1.33.26.4.17.7.4.91.67.21.27.35.58.43.92.08.34.12.84.12,1.48v5.16Z"/>
      <path class="cls-3" d="m619.33,208.39v1.75h-1.5v3.34c0,.68.01,1.07.04,1.18.03.11.09.2.2.28s.22.11.37.11c.2,0,.5-.07.88-.21l.19,1.7c-.51.22-1.09.33-1.73.33-.4,0-.75-.07-1.07-.2-.32-.13-.55-.3-.7-.52s-.25-.5-.31-.86c-.05-.25-.07-.77-.07-1.55v-3.62h-1.01v-1.75h1.01v-1.65l2.2-1.28v2.93h1.5Z"/>
      <path class="cls-3" d="m620.85,207.26v-2.03h2.2v2.03h-2.2Zm0,9.42v-8.3h2.2v8.3h-2.2Z"/>
      <path class="cls-3" d="m624.79,212.42c0-.73.18-1.43.54-2.12s.87-1.2,1.53-1.56c.66-.36,1.39-.54,2.21-.54,1.25,0,2.28.41,3.09,1.22.8.82,1.2,1.84,1.2,3.09s-.41,2.3-1.21,3.12c-.81.83-1.83,1.24-3.06,1.24-.76,0-1.49-.17-2.18-.52-.69-.34-1.21-.85-1.57-1.51s-.54-1.47-.54-2.43Zm2.25.12c0,.82.2,1.45.59,1.89s.87.66,1.45.66,1.05-.22,1.44-.66c.39-.44.58-1.07.58-1.91s-.19-1.44-.58-1.88c-.39-.44-.87-.66-1.44-.66s-1.05.22-1.45.66-.59,1.07-.59,1.89Z"/>
      <path class="cls-3" d="m642.62,216.69h-2.2v-4.23c0-.9-.05-1.48-.14-1.74s-.25-.47-.46-.61-.46-.22-.76-.22c-.38,0-.72.1-1.02.31-.3.21-.51.48-.62.83-.11.34-.17.98-.17,1.91v3.76h-2.2v-8.3h2.04v1.22c.72-.94,1.63-1.41,2.73-1.41.48,0,.93.09,1.33.26.4.17.7.4.91.67.21.27.35.58.43.92.08.34.12.84.12,1.48v5.16Z"/>
    </g>
  </g>
  <g>
    <rect class="cls-2" x="776.47" y="164" width="150" height="72"/>
    <g>
      <path class="cls-3" d="m838.53,196.69h-2.52l-1-2.6h-4.58l-.95,2.6h-2.45l4.46-11.45h2.45l4.59,11.45Zm-4.26-4.53l-1.58-4.25-1.55,4.25h3.12Z"/>
      <path class="cls-3" d="m846.97,190.84l-2.16.39c-.07-.43-.24-.76-.5-.98s-.59-.33-1-.33c-.55,0-.98.19-1.31.57s-.49,1.01-.49,1.89c0,.98.17,1.68.5,2.09s.77.61,1.33.61c.42,0,.76-.12,1.02-.36s.45-.64.56-1.22l2.16.37c-.22.99-.65,1.74-1.29,2.24s-1.49.76-2.55.76c-1.21,0-2.18-.38-2.9-1.15s-1.08-1.83-1.08-3.18.36-2.44,1.09-3.2,1.7-1.14,2.94-1.14c1.01,0,1.81.22,2.41.65s1.02,1.1,1.29,1.99Z"/>
      <path class="cls-3" d="m852.44,188.39v1.75h-1.5v3.34c0,.68.01,1.07.04,1.18s.09.2.2.28.23.11.37.11c.2,0,.5-.07.88-.21l.19,1.7c-.51.22-1.09.33-1.73.33-.4,0-.75-.07-1.07-.2s-.55-.3-.7-.52-.25-.5-.31-.86c-.05-.25-.07-.77-.07-1.55v-3.62h-1.01v-1.75h1.01v-1.65l2.2-1.28v2.93h1.5Z"/>
      <path class="cls-3" d="m859.43,196.69v-1.24c-.3.44-.7.79-1.19,1.05s-1.01.38-1.56.38-1.06-.12-1.5-.37-.76-.59-.96-1.03-.3-1.05-.3-1.84v-5.25h2.2v3.81c0,1.17.04,1.88.12,2.14s.23.47.44.62.48.23.81.23c.38,0,.71-.1,1.01-.31s.5-.46.61-.77.16-1.05.16-2.24v-3.5h2.2v8.3h-2.04Z"/>
      <path class="cls-3" d="m865.38,190.92l-1.99-.36c.22-.8.61-1.4,1.16-1.78s1.36-.58,2.44-.58c.98,0,1.71.12,2.19.35s.82.53,1.01.88.29,1.01.29,1.96l-.02,2.56c0,.73.04,1.27.11,1.61s.2.72.39,1.11h-2.17c-.06-.15-.13-.36-.21-.65-.04-.13-.06-.22-.08-.26-.38.36-.78.64-1.2.82s-.88.27-1.37.27c-.85,0-1.53-.23-2.02-.7s-.74-1.05-.74-1.76c0-.47.11-.89.34-1.25s.54-.65.94-.84.99-.37,1.75-.51c1.03-.19,1.74-.37,2.13-.54v-.22c0-.42-.1-.72-.31-.9s-.6-.27-1.18-.27c-.39,0-.7.08-.91.23s-.4.42-.53.81Zm2.94,1.78c-.28.09-.73.21-1.34.34s-1.01.26-1.2.38c-.29.2-.43.46-.43.77s.11.57.34.8.52.34.88.34c.4,0,.77-.13,1.13-.39.27-.2.44-.44.52-.73.06-.19.09-.54.09-1.07v-.44Z"/>
      <path class="cls-3" d="m872.64,196.69v-11.45h2.2v11.45h-2.2Z"/>
      <path class="cls-3" d="m818.42,205.23h4.58c.91,0,1.58.04,2.03.11s.84.23,1.2.47.64.56.88.96.35.84.35,1.34c0,.54-.14,1.03-.43,1.48s-.68.78-1.18,1.01c.7.2,1.23.55,1.61,1.04s.56,1.07.56,1.73c0,.52-.12,1.03-.36,1.52s-.57.89-.99,1.18-.94.48-1.55.54c-.39.04-1.32.07-2.79.08h-3.9v-11.45Zm2.31,1.91v2.65h1.52c.9,0,1.46-.01,1.68-.04.4-.05.71-.18.93-.41s.34-.52.34-.89-.1-.64-.29-.86-.49-.36-.87-.4c-.23-.03-.89-.04-1.98-.04h-1.33Zm0,4.55v3.06h2.14c.83,0,1.36-.02,1.59-.07.34-.06.62-.21.84-.46s.32-.57.32-.97c0-.34-.08-.64-.25-.88s-.41-.41-.72-.52-1-.16-2.05-.16h-1.87Z"/>
      <path class="cls-3" d="m834.76,214.05l2.19.37c-.28.8-.73,1.41-1.33,1.83s-1.37.63-2.28.63c-1.44,0-2.51-.47-3.2-1.41-.55-.75-.82-1.71-.82-2.86,0-1.38.36-2.45,1.08-3.23s1.63-1.17,2.73-1.17c1.23,0,2.21.41,2.92,1.22s1.05,2.06,1.02,3.75h-5.5c.02.65.19,1.16.53,1.52s.76.54,1.27.54c.34,0,.63-.09.87-.28s.41-.49.53-.91Zm.12-2.22c-.02-.64-.18-1.12-.49-1.45s-.69-.5-1.14-.5c-.48,0-.88.17-1.19.52s-.47.82-.46,1.42h3.28Z"/>
      <path class="cls-3" d="m841.04,205.23v4.21c.71-.83,1.55-1.24,2.54-1.24.5,0,.96.09,1.37.28s.71.43.92.72.35.61.42.97.11.9.11,1.65v4.87h-2.2v-4.38c0-.87-.04-1.42-.12-1.66s-.23-.42-.44-.56-.48-.21-.79-.21c-.36,0-.69.09-.98.27s-.5.44-.63.8-.2.88-.2,1.58v4.16h-2.2v-11.45h2.2Z"/>
      <path class="cls-3" d="m850.27,210.92l-1.99-.36c.22-.8.61-1.4,1.16-1.78s1.36-.58,2.44-.58c.98,0,1.71.12,2.19.35s.82.53,1.01.88.29,1.01.29,1.96l-.02,2.56c0,.73.04,1.27.11,1.61s.2.72.39,1.11h-2.17c-.06-.15-.13-.36-.21-.65-.04-.13-.06-.22-.08-.26-.38.36-.78.64-1.2.82s-.88.27-1.37.27c-.85,0-1.53-.23-2.02-.7s-.74-1.05-.74-1.76c0-.47.11-.89.34-1.25s.54-.65.94-.84.99-.37,1.75-.51c1.03-.19,1.74-.37,2.13-.54v-.22c0-.42-.1-.72-.31-.9s-.6-.27-1.18-.27c-.39,0-.7.08-.91.23s-.4.42-.53.81Zm2.94,1.78c-.28.09-.73.21-1.34.34s-1.01.26-1.2.38c-.29.2-.43.46-.43.77s.11.57.34.8.52.34.88.34c.4,0,.77-.13,1.13-.39.27-.2.44-.44.52-.73.06-.19.09-.54.09-1.07v-.44Z"/>
      <path class="cls-3" d="m859.81,216.69l-3.34-8.3h2.3l1.56,4.23.45,1.41c.12-.36.2-.6.23-.71.07-.23.15-.47.23-.7l1.58-4.23h2.26l-3.3,8.3h-1.98Z"/>
      <path class="cls-3" d="m866.42,207.26v-2.03h2.2v2.03h-2.2Zm0,9.42v-8.3h2.2v8.3h-2.2Z"/>
      <path class="cls-3" d="m870.36,212.42c0-.73.18-1.43.54-2.12s.87-1.2,1.53-1.56,1.39-.54,2.21-.54c1.25,0,2.28.41,3.09,1.22s1.2,1.84,1.2,3.09-.41,2.3-1.21,3.12-1.83,1.24-3.06,1.24c-.76,0-1.49-.17-2.18-.52s-1.21-.85-1.57-1.51-.54-1.47-.54-2.43Zm2.25.12c0,.82.2,1.45.59,1.89s.87.66,1.45.66,1.05-.22,1.44-.66.58-1.07.58-1.91-.19-1.44-.58-1.88-.87-.66-1.44-.66-1.05.22-1.45.66-.59,1.07-.59,1.89Z"/>
      <path class="cls-3" d="m882.74,216.69h-2.2v-8.3h2.04v1.18c.35-.56.66-.92.94-1.1s.59-.27.95-.27c.5,0,.98.14,1.45.41l-.68,1.91c-.37-.24-.71-.36-1.03-.36s-.57.08-.78.25-.38.48-.5.92-.18,1.37-.18,2.78v2.56Z"/>
    </g>
  </g>
  <g>
    <line class="cls-1" x1="684.92" y1="200" x2="769.3" y2="200"/>
    <polygon class="cls-2" points="767.84 204.99 776.47 200 767.84 195.01 767.84 204.99"/>
  </g>
  <g>
    <path class="cls-4" d="m581.29,262v-8.59h1.14v8.59h-1.14Z"/>
    <path class="cls-4" d="m587.65,264.38v-8.61h.96v.81c.23-.32.48-.55.77-.71s.63-.24,1.04-.24c.53,0,1,.14,1.41.41s.71.66.92,1.16.31,1.04.31,1.64c0,.64-.11,1.21-.34,1.72s-.56.9-1,1.17-.89.41-1.37.41c-.35,0-.67-.07-.95-.22s-.51-.34-.69-.56v3.03h-1.05Zm.96-5.46c0,.8.16,1.39.49,1.78s.72.57,1.18.57.87-.2,1.2-.59.5-1.01.5-1.84-.16-1.39-.49-1.78-.72-.59-1.17-.59-.85.21-1.19.63-.52,1.03-.52,1.83Z"/>
    <path class="cls-4" d="m594.32,262v-8.59h1.05v8.59h-1.05Z"/>
    <path class="cls-4" d="m601.08,261.23c-.39.33-.77.57-1.13.7s-.75.21-1.16.21c-.68,0-1.21-.17-1.58-.5s-.55-.76-.55-1.28c0-.3.07-.58.21-.83s.32-.45.54-.61.48-.27.76-.35c.21-.05.52-.11.94-.16.85-.1,1.48-.22,1.88-.36,0-.14,0-.24,0-.28,0-.43-.1-.73-.3-.91-.27-.24-.67-.36-1.2-.36-.5,0-.86.09-1.1.26s-.41.48-.52.92l-1.03-.14c.09-.44.25-.8.46-1.07s.53-.48.93-.63.88-.22,1.41-.22.96.06,1.29.19.58.28.73.47.27.43.33.72c.04.18.05.5.05.97v1.41c0,.98.02,1.6.07,1.86s.13.51.27.75h-1.1c-.11-.22-.18-.47-.21-.77Zm-.09-2.36c-.38.16-.96.29-1.72.4-.43.06-.74.13-.92.21s-.32.19-.42.34-.15.32-.15.5c0,.28.11.52.32.7s.52.28.93.28.77-.09,1.08-.27.55-.42.7-.73c.11-.24.17-.59.17-1.05v-.39Z"/>
    <path class="cls-4" d="m603.7,262v-6.22h.95v.88c.46-.68,1.12-1.03,1.98-1.03.38,0,.72.07,1.03.2s.55.31.71.53.27.48.33.78c.04.2.06.54.06,1.03v3.83h-1.05v-3.79c0-.43-.04-.75-.12-.96s-.23-.38-.44-.51-.45-.19-.74-.19c-.45,0-.84.14-1.16.43s-.49.83-.49,1.62v3.4h-1.05Z"/>
    <path class="cls-4" d="m616.04,261.06l.15.93c-.3.06-.56.09-.8.09-.38,0-.68-.06-.89-.18s-.36-.28-.45-.48-.13-.61-.13-1.25v-3.58h-.77v-.82h.77v-1.54l1.05-.63v2.17h1.06v.82h-1.06v3.64c0,.3.02.49.06.58s.1.15.18.21.2.08.36.08c.12,0,.27-.01.46-.04Z"/>
    <path class="cls-4" d="m616.69,258.89c0-1.15.32-2.01.96-2.56.54-.46,1.19-.69,1.96-.69.86,0,1.55.28,2.1.84s.81,1.33.81,2.32c0,.8-.12,1.43-.36,1.89s-.59.82-1.05,1.07-.96.38-1.5.38c-.87,0-1.58-.28-2.11-.84s-.81-1.36-.81-2.41Zm1.08,0c0,.8.17,1.39.52,1.79s.79.59,1.31.59.96-.2,1.31-.6.52-1.01.52-1.82c0-.77-.17-1.35-.52-1.75s-.78-.59-1.3-.59-.96.2-1.31.59-.52.99-.52,1.79Z"/>
    <path class="cls-4" d="m631.15,262v-.79c-.39.62-.97.93-1.74.93-.5,0-.95-.14-1.37-.41s-.74-.66-.97-1.15-.34-1.05-.34-1.69.1-1.18.31-1.69.52-.89.93-1.16.88-.4,1.39-.4c.38,0,.71.08,1,.24s.53.36.71.62v-3.08h1.05v8.59h-.98Zm-3.33-3.11c0,.8.17,1.39.5,1.79s.73.59,1.19.59.85-.19,1.17-.57.48-.95.48-1.73c0-.85-.16-1.48-.49-1.88s-.73-.6-1.21-.6-.86.19-1.17.57-.47.99-.47,1.81Z"/>
    <path class="cls-4" d="m633.41,258.89c0-1.15.32-2.01.96-2.56.54-.46,1.19-.69,1.96-.69.86,0,1.55.28,2.1.84s.81,1.33.81,2.32c0,.8-.12,1.43-.36,1.89s-.59.82-1.05,1.07-.96.38-1.5.38c-.87,0-1.58-.28-2.11-.84s-.81-1.36-.81-2.41Zm1.08,0c0,.8.17,1.39.52,1.79s.79.59,1.31.59.96-.2,1.31-.6.52-1.01.52-1.82c0-.77-.17-1.35-.52-1.75s-.78-.59-1.3-.59-.96.2-1.31.59-.52.99-.52,1.79Z"/>
    <path class="cls-4" d="m566.66,275.63c-.39.33-.77.57-1.13.7s-.75.21-1.16.21c-.68,0-1.21-.17-1.58-.5s-.55-.76-.55-1.28c0-.3.07-.58.21-.83s.32-.45.54-.61.48-.27.76-.35c.21-.05.52-.11.94-.16.85-.1,1.48-.22,1.88-.36,0-.14,0-.24,0-.28,0-.43-.1-.73-.3-.91-.27-.24-.67-.36-1.2-.36-.5,0-.86.09-1.1.26s-.41.48-.52.92l-1.03-.14c.09-.44.25-.8.46-1.07s.53-.48.93-.63.88-.22,1.41-.22.96.06,1.29.19.58.28.73.47.27.43.33.72c.04.18.05.5.05.97v1.41c0,.98.02,1.6.07,1.86s.13.51.27.75h-1.1c-.11-.22-.18-.47-.21-.77Zm-.09-2.36c-.38.16-.96.29-1.72.4-.43.06-.74.13-.92.21s-.32.19-.42.34-.15.32-.15.5c0,.28.11.52.32.7s.52.28.93.28.77-.09,1.08-.27.55-.42.7-.73c.11-.24.17-.59.17-1.05v-.39Z"/>
    <path class="cls-4" d="m572.63,276.4v-6.22h.94v.87c.2-.3.46-.55.78-.74s.69-.28,1.11-.28c.46,0,.84.1,1.13.29s.5.46.62.8c.49-.73,1.13-1.09,1.92-1.09.62,0,1.09.17,1.42.51s.5.87.5,1.58v4.27h-1.05v-3.92c0-.42-.03-.73-.1-.91s-.19-.33-.37-.45-.39-.17-.63-.17c-.44,0-.8.15-1.09.44s-.43.76-.43,1.4v3.62h-1.05v-4.04c0-.47-.09-.82-.26-1.05s-.45-.35-.84-.35c-.3,0-.57.08-.82.23s-.43.38-.55.69-.17.73-.17,1.3v3.23h-1.05Z"/>
    <path class="cls-4" d="m586.7,275.63c-.39.33-.77.57-1.13.7s-.75.21-1.16.21c-.68,0-1.21-.17-1.58-.5s-.55-.76-.55-1.28c0-.3.07-.58.21-.83s.32-.45.54-.61.48-.27.76-.35c.21-.05.52-.11.94-.16.85-.1,1.48-.22,1.88-.36,0-.14,0-.24,0-.28,0-.43-.1-.73-.3-.91-.27-.24-.67-.36-1.2-.36-.5,0-.86.09-1.1.26s-.41.48-.52.92l-1.03-.14c.09-.44.25-.8.46-1.07s.53-.48.93-.63.88-.22,1.41-.22.96.06,1.29.19.58.28.73.47.27.43.33.72c.04.18.05.5.05.97v1.41c0,.98.02,1.6.07,1.86s.13.51.27.75h-1.1c-.11-.22-.18-.47-.21-.77Zm-.09-2.36c-.38.16-.96.29-1.72.4-.43.06-.74.13-.92.21s-.32.19-.42.34-.15.32-.15.5c0,.28.11.52.32.7s.52.28.93.28.77-.09,1.08-.27.55-.42.7-.73c.11-.24.17-.59.17-1.05v-.39Z"/>
    <path class="cls-4" d="m588.9,274.54l1.04-.16c.06.42.22.74.49.96s.64.33,1.12.33.84-.1,1.08-.3.35-.43.35-.69c0-.24-.1-.43-.31-.56-.14-.09-.5-.21-1.08-.36-.77-.2-1.31-.36-1.61-.51s-.53-.34-.68-.59-.23-.53-.23-.83c0-.28.06-.53.19-.77s.3-.43.52-.59c.16-.12.39-.22.67-.31s.59-.13.91-.13c.49,0,.92.07,1.29.21s.64.33.82.57.3.56.36.96l-1.03.14c-.05-.32-.18-.57-.41-.75s-.54-.27-.95-.27c-.48,0-.83.08-1.04.24s-.31.35-.31.56c0,.14.04.26.13.37.09.11.22.21.4.28.11.04.42.13.93.27.75.2,1.27.36,1.56.49s.53.31.69.55.25.54.25.9-.1.68-.31.99-.5.55-.89.72-.82.25-1.31.25c-.81,0-1.42-.17-1.85-.5s-.69-.83-.81-1.49Z"/>
    <path class="cls-4" d="m597.64,275.46l.15.93c-.3.06-.56.09-.8.09-.38,0-.68-.06-.89-.18s-.36-.28-.45-.48-.13-.61-.13-1.25v-3.58h-.77v-.82h.77v-1.54l1.05-.63v2.17h1.06v.82h-1.06v3.64c0,.3.02.49.06.58s.1.15.18.21.2.08.36.08c.12,0,.27-.01.46-.04Z"/>
    <path class="cls-4" d="m602.94,274.4l1.09.13c-.17.64-.49,1.13-.96,1.48s-1.06.53-1.78.53c-.91,0-1.63-.28-2.17-.84s-.8-1.35-.8-2.36.27-1.86.81-2.44,1.24-.87,2.1-.87,1.51.28,2.04.85.79,1.36.79,2.39c0,.06,0,.16,0,.28h-4.64c.04.68.23,1.21.58,1.57s.78.54,1.3.54c.39,0,.72-.1.99-.3s.49-.53.65-.97Zm-3.46-1.71h3.47c-.05-.52-.18-.92-.4-1.18-.34-.41-.77-.61-1.31-.61-.48,0-.89.16-1.22.49s-.51.76-.55,1.3Z"/>
    <path class="cls-4" d="m605.36,276.4v-6.22h.95v.94c.24-.44.47-.73.67-.87s.43-.21.68-.21c.36,0,.72.11,1.08.34l-.36.98c-.26-.15-.52-.23-.77-.23-.23,0-.44.07-.62.21s-.31.33-.39.58c-.12.38-.18.79-.18,1.23v3.26h-1.05Z"/>
    <path class="cls-4" d="m610.47,269.25v1.22h-1.13v-.97c0-.52.06-.9.19-1.14.16-.31.42-.55.78-.71l.26.41c-.21.09-.37.22-.47.4s-.16.44-.17.78h.55Z"/>
    <path class="cls-4" d="m611.63,274.54l1.04-.16c.06.42.22.74.49.96s.64.33,1.12.33.84-.1,1.08-.3.35-.43.35-.69c0-.24-.1-.43-.31-.56-.14-.09-.5-.21-1.08-.36-.77-.2-1.31-.36-1.61-.51s-.53-.34-.68-.59-.23-.53-.23-.83c0-.28.06-.53.19-.77s.3-.43.52-.59c.16-.12.39-.22.67-.31s.59-.13.91-.13c.49,0,.92.07,1.29.21s.64.33.82.57.3.56.36.96l-1.03.14c-.05-.32-.18-.57-.41-.75s-.54-.27-.95-.27c-.48,0-.83.08-1.04.24s-.31.35-.31.56c0,.14.04.26.13.37.09.11.22.21.4.28.11.04.42.13.93.27.75.2,1.27.36,1.56.49s.53.31.69.55.25.54.25.9-.1.68-.31.99-.5.55-.89.72-.82.25-1.31.25c-.81,0-1.42-.17-1.85-.5s-.69-.83-.81-1.49Z"/>
    <path class="cls-4" d="m625.45,276.4v-.79c-.39.62-.97.93-1.74.93-.5,0-.95-.14-1.37-.41s-.74-.66-.97-1.15-.34-1.05-.34-1.69.1-1.18.31-1.69.52-.89.93-1.16.88-.4,1.39-.4c.38,0,.71.08,1,.24s.53.36.71.62v-3.08h1.05v8.59h-.98Zm-3.33-3.11c0,.8.17,1.39.5,1.79s.73.59,1.19.59.85-.19,1.17-.57.48-.95.48-1.73c0-.85-.16-1.48-.49-1.88s-.73-.6-1.21-.6-.86.19-1.17.57-.47.99-.47,1.81Z"/>
    <path class="cls-4" d="m632.36,274.4l1.09.13c-.17.64-.49,1.13-.96,1.48s-1.06.53-1.78.53c-.91,0-1.63-.28-2.17-.84s-.8-1.35-.8-2.36.27-1.86.81-2.44,1.24-.87,2.1-.87,1.51.28,2.04.85.79,1.36.79,2.39c0,.06,0,.16,0,.28h-4.64c.04.68.23,1.21.58,1.57s.78.54,1.3.54c.39,0,.72-.1.99-.3s.49-.53.65-.97Zm-3.46-1.71h3.47c-.05-.52-.18-.92-.4-1.18-.34-.41-.77-.61-1.31-.61-.48,0-.89.16-1.22.49s-.51.76-.55,1.3Z"/>
    <path class="cls-4" d="m634.59,276.92l1.03.15c.04.32.16.55.36.69.26.2.62.29,1.07.29.49,0,.87-.1,1.13-.29s.45-.47.54-.82c.05-.21.08-.67.08-1.35-.46.54-1.04.81-1.72.81-.86,0-1.52-.31-1.99-.93s-.7-1.36-.7-2.22c0-.59.11-1.14.32-1.64s.53-.89.93-1.16.89-.41,1.44-.41c.73,0,1.34.3,1.82.89v-.75h.97v5.38c0,.97-.1,1.66-.3,2.06s-.51.72-.94.96-.95.35-1.58.35c-.74,0-1.34-.17-1.8-.5s-.68-.84-.66-1.51Zm.87-3.74c0,.82.16,1.41.49,1.79s.73.56,1.22.56.89-.19,1.22-.56.49-.96.49-1.75-.17-1.34-.51-1.72-.75-.58-1.22-.58-.87.19-1.2.57-.49.95-.49,1.7Z"/>
    <path class="cls-4" d="m641.46,276.4v-6.22h.95v.94c.24-.44.47-.73.67-.87s.43-.21.68-.21c.36,0,.72.11,1.08.34l-.36.98c-.26-.15-.52-.23-.77-.23-.23,0-.44.07-.62.21s-.31.33-.39.58c-.12.38-.18.79-.18,1.23v3.26h-1.05Z"/>
    <path class="cls-4" d="m649.74,274.4l1.09.13c-.17.64-.49,1.13-.96,1.48s-1.06.53-1.78.53c-.91,0-1.63-.28-2.17-.84s-.8-1.35-.8-2.36.27-1.86.81-2.44,1.24-.87,2.1-.87,1.51.28,2.04.85.79,1.36.79,2.39c0,.06,0,.16,0,.28h-4.64c.04.68.23,1.21.58,1.57s.78.54,1.3.54c.39,0,.72-.1.99-.3s.49-.53.65-.97Zm-3.46-1.71h3.47c-.05-.52-.18-.92-.4-1.18-.34-.41-.77-.61-1.31-.61-.48,0-.89.16-1.22.49s-.51.76-.55,1.3Z"/>
    <path class="cls-4" d="m656.42,274.4l1.09.13c-.17.64-.49,1.13-.96,1.48s-1.06.53-1.78.53c-.91,0-1.63-.28-2.17-.84s-.8-1.35-.8-2.36.27-1.86.81-2.44,1.24-.87,2.1-.87,1.51.28,2.04.85.79,1.36.79,2.39c0,.06,0,.16,0,.28h-4.64c.04.68.23,1.21.58,1.57s.78.54,1.3.54c.39,0,.72-.1.99-.3s.49-.53.65-.97Zm-3.46-1.71h3.47c-.05-.52-.18-.92-.4-1.18-.34-.41-.77-.61-1.31-.61-.48,0-.89.16-1.22.49s-.51.76-.55,1.3Z"/>
  </g>
  <g>
    <path class="cls-4" d="m807.31,262v-8.59h6.21v1.01h-5.07v2.63h4.75v1.01h-4.75v2.92h5.27v1.01h-6.41Z"/>
    <path class="cls-4" d="m815.17,262v-6.22h.95v.88c.46-.68,1.12-1.03,1.98-1.03.38,0,.72.07,1.03.2s.55.31.71.53.27.48.33.78c.04.2.06.54.06,1.03v3.83h-1.05v-3.79c0-.43-.04-.75-.12-.96s-.23-.38-.44-.51-.45-.19-.74-.19c-.45,0-.84.14-1.16.43s-.49.83-.49,1.62v3.4h-1.05Z"/>
    <path class="cls-4" d="m821.85,262v-6.22h.95v.94c.24-.44.47-.73.67-.87s.43-.21.68-.21c.36,0,.72.11,1.08.34l-.36.98c-.26-.15-.52-.23-.77-.23-.23,0-.44.07-.62.21s-.31.33-.39.58c-.12.38-.18.79-.18,1.23v3.26h-1.05Z"/>
    <path class="cls-4" d="m825.47,258.89c0-1.15.32-2.01.96-2.56.54-.46,1.19-.69,1.96-.69.86,0,1.55.28,2.1.84s.81,1.33.81,2.32c0,.8-.12,1.43-.36,1.89s-.59.82-1.05,1.07-.96.38-1.5.38c-.87,0-1.58-.28-2.11-.84s-.81-1.36-.81-2.41Zm1.08,0c0,.8.17,1.39.52,1.79s.79.59,1.31.59.96-.2,1.31-.6.52-1.01.52-1.82c0-.77-.17-1.35-.52-1.75s-.78-.59-1.3-.59-.96.2-1.31.59-.52.99-.52,1.79Z"/>
    <path class="cls-4" d="m832.53,262v-8.59h1.05v8.59h-1.05Z"/>
    <path class="cls-4" d="m835.21,262v-8.59h1.05v8.59h-1.05Z"/>
    <path class="cls-4" d="m837.91,262v-6.22h.94v.87c.2-.3.46-.55.78-.74s.69-.28,1.11-.28c.46,0,.84.1,1.13.29s.5.46.62.8c.49-.73,1.13-1.09,1.92-1.09.62,0,1.09.17,1.42.51s.5.87.5,1.58v4.27h-1.05v-3.92c0-.42-.03-.73-.1-.91s-.19-.33-.37-.45-.39-.17-.63-.17c-.44,0-.8.15-1.09.44s-.43.76-.43,1.4v3.62h-1.05v-4.04c0-.47-.09-.82-.26-1.05s-.45-.35-.84-.35c-.3,0-.57.08-.82.23s-.43.38-.55.69-.17.73-.17,1.3v3.23h-1.05Z"/>
    <path class="cls-4" d="m852.18,260l1.09.13c-.17.64-.49,1.13-.96,1.48s-1.06.53-1.78.53c-.91,0-1.63-.28-2.17-.84s-.8-1.35-.8-2.36.27-1.86.81-2.44,1.24-.87,2.1-.87,1.51.28,2.04.85.79,1.36.79,2.39c0,.06,0,.16,0,.28h-4.64c.04.68.23,1.21.58,1.57s.78.54,1.3.54c.39,0,.72-.1.99-.3s.49-.53.65-.97Zm-3.46-1.71h3.47c-.05-.52-.18-.92-.4-1.18-.34-.41-.77-.61-1.31-.61-.48,0-.89.16-1.22.49s-.51.76-.55,1.3Z"/>
    <path class="cls-4" d="m854.6,262v-6.22h.95v.88c.46-.68,1.12-1.03,1.98-1.03.38,0,.72.07,1.03.2s.55.31.71.53.27.48.33.78c.04.2.06.54.06,1.03v3.83h-1.05v-3.79c0-.43-.04-.75-.12-.96s-.23-.38-.44-.51-.45-.19-.74-.19c-.45,0-.84.14-1.16.43s-.49.83-.49,1.62v3.4h-1.05Z"/>
    <path class="cls-4" d="m863.59,261.06l.15.93c-.3.06-.56.09-.8.09-.38,0-.68-.06-.89-.18s-.36-.28-.45-.48-.13-.61-.13-1.25v-3.58h-.77v-.82h.77v-1.54l1.05-.63v2.17h1.06v.82h-1.06v3.64c0,.3.02.49.06.58s.1.15.18.21.2.08.36.08c.12,0,.27-.01.46-.04Z"/>
    <path class="cls-4" d="m867.99,254.62v-1.21h1.05v1.21h-1.05Zm0,7.38v-6.22h1.05v6.22h-1.05Z"/>
    <path class="cls-4" d="m870.66,262v-6.22h.95v.88c.46-.68,1.12-1.03,1.98-1.03.38,0,.72.07,1.03.2s.55.31.71.53.27.48.33.78c.04.2.06.54.06,1.03v3.83h-1.05v-3.79c0-.43-.04-.75-.12-.96s-.23-.38-.44-.51-.45-.19-.74-.19c-.45,0-.84.14-1.16.43s-.49.83-.49,1.62v3.4h-1.05Z"/>
    <path class="cls-4" d="m882.99,261.06l.15.93c-.3.06-.56.09-.8.09-.38,0-.68-.06-.89-.18s-.36-.28-.45-.48-.13-.61-.13-1.25v-3.58h-.77v-.82h.77v-1.54l1.05-.63v2.17h1.06v.82h-1.06v3.64c0,.3.02.49.06.58s.1.15.18.21.2.08.36.08c.12,0,.27-.01.46-.04Z"/>
    <path class="cls-4" d="m884.04,262v-8.59h1.05v3.08c.49-.57,1.11-.86,1.86-.86.46,0,.86.09,1.2.27s.58.43.73.75.22.79.22,1.39v3.94h-1.05v-3.94c0-.53-.11-.91-.34-1.15s-.55-.36-.97-.36c-.31,0-.61.08-.88.24s-.47.38-.59.66-.18.66-.18,1.15v3.4h-1.05Z"/>
    <path class="cls-4" d="m894.98,260l1.09.13c-.17.64-.49,1.13-.96,1.48s-1.06.53-1.78.53c-.91,0-1.63-.28-2.17-.84s-.8-1.35-.8-2.36.27-1.86.81-2.44,1.24-.87,2.1-.87,1.51.28,2.04.85.79,1.36.79,2.39c0,.06,0,.16,0,.28h-4.64c.04.68.23,1.21.58,1.57s.78.54,1.3.54c.39,0,.72-.1.99-.3s.49-.53.65-.97Zm-3.46-1.71h3.47c-.05-.52-.18-.92-.4-1.18-.34-.41-.77-.61-1.31-.61-.48,0-.89.16-1.22.49s-.51.76-.55,1.3Z"/>
    <path class="cls-4" d="m805.51,276.4v-6.22h.94v.87c.2-.3.46-.55.78-.74s.69-.28,1.11-.28c.46,0,.84.1,1.13.29s.5.46.62.8c.49-.73,1.13-1.09,1.92-1.09.62,0,1.09.17,1.42.51s.5.87.5,1.58v4.27h-1.05v-3.92c0-.42-.03-.73-.1-.91s-.19-.33-.37-.45-.39-.17-.63-.17c-.44,0-.8.15-1.09.44s-.43.76-.43,1.4v3.62h-1.05v-4.04c0-.47-.09-.82-.26-1.05s-.45-.35-.84-.35c-.3,0-.57.08-.82.23s-.43.38-.55.69-.17.73-.17,1.3v3.23h-1.05Z"/>
    <path class="cls-4" d="m819.58,275.63c-.39.33-.77.57-1.13.7s-.75.21-1.16.21c-.68,0-1.21-.17-1.58-.5s-.55-.76-.55-1.28c0-.3.07-.58.21-.83s.32-.45.54-.61.48-.27.76-.35c.21-.05.52-.11.94-.16.85-.1,1.48-.22,1.88-.36,0-.14,0-.24,0-.28,0-.43-.1-.73-.3-.91-.27-.24-.67-.36-1.2-.36-.5,0-.86.09-1.1.26s-.41.48-.52.92l-1.03-.14c.09-.44.25-.8.46-1.07s.53-.48.93-.63.88-.22,1.41-.22.96.06,1.29.19.58.28.73.47.27.43.33.72c.04.18.05.5.05.97v1.41c0,.98.02,1.6.07,1.86s.13.51.27.75h-1.1c-.11-.22-.18-.47-.21-.77Zm-.09-2.36c-.38.16-.96.29-1.72.4-.43.06-.74.13-.92.21s-.32.19-.42.34-.15.32-.15.5c0,.28.11.52.32.7s.52.28.93.28.77-.09,1.08-.27.55-.42.7-.73c.11-.24.17-.59.17-1.05v-.39Z"/>
    <path class="cls-4" d="m821.78,274.54l1.04-.16c.06.42.22.74.49.96s.64.33,1.12.33.84-.1,1.08-.3.35-.43.35-.69c0-.24-.1-.43-.31-.56-.14-.09-.5-.21-1.08-.36-.77-.2-1.31-.36-1.61-.51s-.53-.34-.68-.59-.23-.53-.23-.83c0-.28.06-.53.19-.77s.3-.43.52-.59c.16-.12.39-.22.67-.31s.59-.13.91-.13c.49,0,.92.07,1.29.21s.64.33.82.57.3.56.36.96l-1.03.14c-.05-.32-.18-.57-.41-.75s-.54-.27-.95-.27c-.48,0-.83.08-1.04.24s-.31.35-.31.56c0,.14.04.26.13.37.09.11.22.21.4.28.11.04.42.13.93.27.75.2,1.27.36,1.56.49s.53.31.69.55.25.54.25.9-.1.68-.31.99-.5.55-.89.72-.82.25-1.31.25c-.81,0-1.42-.17-1.85-.5s-.69-.83-.81-1.49Z"/>
    <path class="cls-4" d="m830.52,275.46l.15.93c-.3.06-.56.09-.8.09-.38,0-.68-.06-.89-.18s-.36-.28-.45-.48-.13-.61-.13-1.25v-3.58h-.77v-.82h.77v-1.54l1.05-.63v2.17h1.06v.82h-1.06v3.64c0,.3.02.49.06.58s.1.15.18.21.2.08.36.08c.12,0,.27-.01.46-.04Z"/>
    <path class="cls-4" d="m835.82,274.4l1.09.13c-.17.64-.49,1.13-.96,1.48s-1.06.53-1.78.53c-.91,0-1.63-.28-2.17-.84s-.8-1.35-.8-2.36.27-1.86.81-2.44,1.24-.87,2.1-.87,1.51.28,2.04.85.79,1.36.79,2.39c0,.06,0,.16,0,.28h-4.64c.04.68.23,1.21.58,1.57s.78.54,1.3.54c.39,0,.72-.1.99-.3s.49-.53.65-.97Zm-3.46-1.71h3.47c-.05-.52-.18-.92-.4-1.18-.34-.41-.77-.61-1.31-.61-.48,0-.89.16-1.22.49s-.51.76-.55,1.3Z"/>
    <path class="cls-4" d="m838.23,276.4v-6.22h.95v.94c.24-.44.47-.73.67-.87s.43-.21.68-.21c.36,0,.72.11,1.08.34l-.36.98c-.26-.15-.52-.23-.77-.23-.23,0-.44.07-.62.21s-.31.33-.39.58c-.12.38-.18.79-.18,1.23v3.26h-1.05Z"/>
    <path class="cls-4" d="m843.34,269.25v1.22h-1.13v-.97c0-.52.06-.9.19-1.14.16-.31.42-.55.78-.71l.26.41c-.21.09-.37.22-.47.4s-.16.44-.17.78h.55Z"/>
    <path class="cls-4" d="m844.51,274.54l1.04-.16c.06.42.22.74.49.96s.64.33,1.12.33.84-.1,1.08-.3.35-.43.35-.69c0-.24-.1-.43-.31-.56-.14-.09-.5-.21-1.08-.36-.77-.2-1.31-.36-1.61-.51s-.53-.34-.68-.59-.23-.53-.23-.83c0-.28.06-.53.19-.77s.3-.43.52-.59c.16-.12.39-.22.67-.31s.59-.13.91-.13c.49,0,.92.07,1.29.21s.64.33.82.57.3.56.36.96l-1.03.14c-.05-.32-.18-.57-.41-.75s-.54-.27-.95-.27c-.48,0-.83.08-1.04.24s-.31.35-.31.56c0,.14.04.26.13.37.09.11.22.21.4.28.11.04.42.13.93.27.75.2,1.27.36,1.56.49s.53.31.69.55.25.54.25.9-.1.68-.31.99-.5.55-.89.72-.82.25-1.31.25c-.81,0-1.42-.17-1.85-.5s-.69-.83-.81-1.49Z"/>
    <path class="cls-4" d="m854.29,278.79v-8.61h.96v.81c.23-.32.48-.55.77-.71s.63-.24,1.04-.24c.53,0,1,.14,1.41.41s.71.66.92,1.16.31,1.04.31,1.64c0,.64-.11,1.21-.34,1.72s-.56.9-1,1.17-.89.41-1.37.41c-.35,0-.67-.07-.95-.22s-.51-.34-.69-.56v3.03h-1.05Zm.96-5.46c0,.8.16,1.39.49,1.78s.72.57,1.18.57.87-.2,1.2-.59.5-1.01.5-1.84-.16-1.39-.49-1.78-.72-.59-1.17-.59-.85.21-1.19.63-.52,1.03-.52,1.83Z"/>
    <path class="cls-4" d="m860.96,276.4v-6.22h.95v.94c.24-.44.47-.73.67-.87s.43-.21.68-.21c.36,0,.72.11,1.08.34l-.36.98c-.26-.15-.52-.23-.77-.23-.23,0-.44.07-.62.21s-.31.33-.39.58c-.12.38-.18.79-.18,1.23v3.26h-1.05Z"/>
    <path class="cls-4" d="m864.59,273.29c0-1.15.32-2.01.96-2.56.54-.46,1.19-.69,1.96-.69.86,0,1.55.28,2.1.84s.81,1.33.81,2.32c0,.8-.12,1.43-.36,1.89s-.59.82-1.05,1.07-.96.38-1.5.38c-.87,0-1.58-.28-2.11-.84s-.81-1.36-.81-2.41Zm1.08,0c0,.8.17,1.39.52,1.79s.79.59,1.31.59.96-.2,1.31-.6.52-1.01.52-1.82c0-.77-.17-1.35-.52-1.75s-.78-.59-1.3-.59-.96.2-1.31.59-.52.99-.52,1.79Z"/>
    <path class="cls-4" d="m871.48,276.92l1.03.15c.04.32.16.55.36.69.26.2.62.29,1.07.29.49,0,.87-.1,1.13-.29s.45-.47.54-.82c.05-.21.08-.67.08-1.35-.46.54-1.04.81-1.72.81-.86,0-1.52-.31-1.99-.93s-.7-1.36-.7-2.22c0-.59.11-1.14.32-1.64s.53-.89.93-1.16.89-.41,1.44-.41c.73,0,1.34.3,1.82.89v-.75h.97v5.38c0,.97-.1,1.66-.3,2.06s-.51.72-.94.96-.95.35-1.58.35c-.74,0-1.34-.17-1.8-.5s-.68-.84-.66-1.51Zm.87-3.74c0,.82.16,1.41.49,1.79s.73.56,1.22.56.89-.19,1.22-.56.49-.96.49-1.75-.17-1.34-.51-1.72-.75-.58-1.22-.58-.87.19-1.2.57-.49.95-.49,1.7Z"/>
    <path class="cls-4" d="m878.34,276.4v-6.22h.95v.94c.24-.44.47-.73.67-.87s.43-.21.68-.21c.36,0,.72.11,1.08.34l-.36.98c-.26-.15-.52-.23-.77-.23-.23,0-.44.07-.62.21s-.31.33-.39.58c-.12.38-.18.79-.18,1.23v3.26h-1.05Z"/>
    <path class="cls-4" d="m886.42,275.63c-.39.33-.77.57-1.13.7s-.75.21-1.16.21c-.68,0-1.21-.17-1.58-.5s-.55-.76-.55-1.28c0-.3.07-.58.21-.83s.32-.45.54-.61.48-.27.76-.35c.21-.05.52-.11.94-.16.85-.1,1.48-.22,1.88-.36,0-.14,0-.24,0-.28,0-.43-.1-.73-.3-.91-.27-.24-.67-.36-1.2-.36-.5,0-.86.09-1.1.26s-.41.48-.52.92l-1.03-.14c.09-.44.25-.8.46-1.07s.53-.48.93-.63.88-.22,1.41-.22.96.06,1.29.19.58.28.73.47.27.43.33.72c.04.18.05.5.05.97v1.41c0,.98.02,1.6.07,1.86s.13.51.27.75h-1.1c-.11-.22-.18-.47-.21-.77Zm-.09-2.36c-.38.16-.96.29-1.72.4-.43.06-.74.13-.92.21s-.32.19-.42.34-.15.32-.15.5c0,.28.11.52.32.7s.52.28.93.28.77-.09,1.08-.27.55-.42.7-.73c.11-.24.17-.59.17-1.05v-.39Z"/>
    <path class="cls-4" d="m889.05,276.4v-6.22h.94v.87c.2-.3.46-.55.78-.74s.69-.28,1.11-.28c.46,0,.84.1,1.13.29s.5.46.62.8c.49-.73,1.13-1.09,1.92-1.09.62,0,1.09.17,1.42.51s.5.87.5,1.58v4.27h-1.05v-3.92c0-.42-.03-.73-.1-.91s-.19-.33-.37-.45-.39-.17-.63-.17c-.44,0-.8.15-1.09.44s-.43.76-.43,1.4v3.62h-1.05v-4.04c0-.47-.09-.82-.26-1.05s-.45-.35-.84-.35c-.3,0-.57.08-.82.23s-.43.38-.55.69-.17.73-.17,1.3v3.23h-1.05Z"/>
  </g>
</svg>