<?xml version="1.0" encoding="UTF-8"?>
<svg id="maturity" xmlns="http://www.w3.org/2000/svg" viewBox="0 0 988 425">
  <defs>
    <style>
      .cls-1 {
        letter-spacing: 0em;
      }

      .cls-2 {
        letter-spacing: 0em;
      }

      .cls-3 {
        letter-spacing: 0em;
      }

      .cls-4 {
        letter-spacing: 0em;
      }

      .cls-5 {
        letter-spacing: -.01em;
      }

      .cls-6 {
        letter-spacing: 0em;
      }

      .cls-7 {
        letter-spacing: -.01em;
      }

      .cls-8 {
        letter-spacing: -.01em;
      }

      .cls-9 {
        letter-spacing: 0em;
      }

      .cls-10, .cls-11 {
        stroke-width: 0px;
      }

      .cls-10, .cls-12, .cls-13 {
        fill: none;
      }

      .cls-14 {
        letter-spacing: 0em;
      }

      .cls-15 {
        letter-spacing: 0em;
      }

      .cls-16 {
        letter-spacing: 0em;
      }

      .cls-17 {
        letter-spacing: 0em;
      }

      .cls-11, .cls-18 {
        fill: #1d1d1b;
      }

      .cls-19 {
        letter-spacing: -.02em;
      }

      .cls-20 {
        letter-spacing: 0em;
      }

      .cls-21 {
        letter-spacing: 0em;
      }

      .cls-22 {
        letter-spacing: 0em;
      }

      .cls-23 {
        letter-spacing: .04em;
      }

      .cls-24 {
        letter-spacing: 0em;
      }

      .cls-25 {
        letter-spacing: 0em;
      }

      .cls-26 {
        letter-spacing: 0em;
      }

      .cls-27 {
        letter-spacing: 0em;
      }

      .cls-28 {
        letter-spacing: -.01em;
      }

      .cls-29 {
        fill: #000;
        font-size: 48px;
        letter-spacing: .18em;
      }

      .cls-29, .cls-18 {
        font-family: ArialMT, Arial;
      }

      .cls-18 {
        font-size: 16px;
      }

      .cls-30 {
        letter-spacing: -.01em;
      }

      .cls-31 {
        letter-spacing: 0em;
      }

      .cls-32 {
        letter-spacing: 0em;
      }

      .cls-33 {
        letter-spacing: 0em;
      }

      .cls-34 {
        letter-spacing: .03em;
      }

      .cls-35 {
        letter-spacing: 0em;
      }

      .cls-36 {
        letter-spacing: 0em;
      }

      .cls-37 {
        letter-spacing: 0em;
      }

      .cls-38 {
        letter-spacing: 0em;
      }

      .cls-12 {
        stroke: #1d1d1b;
      }

      .cls-12, .cls-13 {
        stroke-miterlimit: 10;
      }

      .cls-39 {
        letter-spacing: -.01em;
      }

      .cls-40 {
        letter-spacing: 0em;
      }

      .cls-41 {
        letter-spacing: 0em;
      }

      .cls-42 {
        letter-spacing: 0em;
      }

      .cls-43 {
        letter-spacing: -.02em;
      }

      .cls-44 {
        letter-spacing: 0em;
      }

      .cls-45 {
        letter-spacing: 0em;
      }

      .cls-46 {
        letter-spacing: 0em;
      }

      .cls-47 {
        letter-spacing: 0em;
      }

      .cls-48 {
        letter-spacing: -.02em;
      }

      .cls-49 {
        letter-spacing: 0em;
      }

      .cls-13 {
        stroke: #c5c5c4;
        stroke-width: .5px;
      }

      .cls-50 {
        letter-spacing: 0em;
      }

      .cls-51 {
        letter-spacing: 0em;
      }

      .cls-52 {
        letter-spacing: 0em;
      }

      .cls-53 {
        letter-spacing: 0em;
      }

      .cls-54 {
        letter-spacing: 0em;
      }

      .cls-55 {
        letter-spacing: 0em;
      }
    </style>
  </defs>
  <g>
    <path class="cls-11" d="M134.96,180.27v-11.45h1.52v10.1h5.64v1.35h-7.16Z"/>
    <path class="cls-11" d="M149.19,177.59l1.45.18c-.23.85-.65,1.51-1.27,1.98-.62.47-1.41.7-2.38.7-1.21,0-2.18-.37-2.89-1.12-.71-.75-1.07-1.8-1.07-3.14s.36-2.48,1.08-3.25c.72-.77,1.65-1.16,2.8-1.16s2.02.38,2.72,1.13c.7.76,1.05,1.82,1.05,3.19,0,.08,0,.21,0,.38h-6.19c.05.91.31,1.61.77,2.09.46.48,1.04.73,1.73.73.52,0,.96-.14,1.32-.41.36-.27.65-.7.87-1.3ZM144.57,175.32h4.63c-.06-.7-.24-1.22-.53-1.57-.45-.54-1.03-.81-1.74-.81-.65,0-1.19.22-1.63.65-.44.43-.68,1.01-.73,1.73Z"/>
    <path class="cls-11" d="M157.71,179.24c-.52.44-1.02.76-1.5.94-.48.18-1,.27-1.55.27-.91,0-1.61-.22-2.1-.67-.49-.45-.73-1.01-.73-1.71,0-.41.09-.78.28-1.11.18-.34.43-.61.73-.81.3-.2.64-.36,1.01-.46.28-.07.69-.14,1.25-.21,1.14-.14,1.97-.3,2.51-.48,0-.19,0-.31,0-.37,0-.57-.13-.98-.4-1.21-.36-.32-.89-.48-1.6-.48-.66,0-1.15.12-1.46.35-.32.23-.55.64-.7,1.23l-1.38-.19c.12-.59.33-1.06.62-1.43.29-.36.7-.64,1.24-.84.54-.2,1.17-.29,1.88-.29s1.28.08,1.73.25c.44.17.77.38.98.63.21.25.35.57.44.96.05.24.07.67.07,1.3v1.88c0,1.31.03,2.13.09,2.48.06.35.18.68.36,1h-1.47c-.15-.29-.24-.63-.28-1.02ZM157.59,176.1c-.51.21-1.28.39-2.3.53-.58.08-.99.18-1.23.28-.24.1-.42.26-.55.46-.13.2-.2.42-.2.67,0,.38.14.69.43.94.28.25.7.38,1.25.38s1.02-.12,1.45-.36c.42-.24.73-.56.93-.97.15-.32.23-.79.23-1.41v-.52Z"/>
    <path class="cls-11" d="M161.04,180.27v-8.3h1.27v1.26c.32-.59.62-.98.89-1.16s.57-.28.9-.28c.47,0,.96.15,1.45.45l-.48,1.3c-.34-.2-.69-.3-1.03-.3-.31,0-.58.09-.83.28-.25.19-.42.44-.52.77-.16.5-.23,1.05-.23,1.64v4.34h-1.41Z"/>
    <path class="cls-11" d="M166.51,180.27v-8.3h1.27v1.18c.61-.91,1.49-1.37,2.64-1.37.5,0,.96.09,1.38.27.42.18.73.42.94.71.21.29.35.64.44,1.04.05.26.08.72.08,1.37v5.1h-1.41v-5.05c0-.57-.05-1-.16-1.29-.11-.28-.3-.51-.58-.68-.28-.17-.61-.25-.98-.25-.6,0-1.12.19-1.55.57-.44.38-.65,1.1-.65,2.16v4.53h-1.41Z"/>
    <path class="cls-11" d="M175.26,170.43v-1.62h1.41v1.62h-1.41ZM175.26,180.27v-8.3h1.41v8.3h-1.41Z"/>
    <path class="cls-11" d="M178.66,180.27v-8.3h1.27v1.18c.61-.91,1.49-1.37,2.64-1.37.5,0,.96.09,1.38.27.42.18.73.42.94.71.21.29.35.64.44,1.04.05.26.08.72.08,1.37v5.1h-1.41v-5.05c0-.57-.05-1-.16-1.29-.11-.28-.3-.51-.58-.68-.28-.17-.61-.25-.98-.25-.6,0-1.12.19-1.55.57-.44.38-.65,1.1-.65,2.16v4.53h-1.41Z"/>
    <path class="cls-11" d="M187.19,180.95l1.37.2c.06.42.22.73.48.92.35.26.83.39,1.43.39.65,0,1.15-.13,1.51-.39.35-.26.59-.62.72-1.09.07-.29.11-.89.1-1.8-.61.72-1.38,1.09-2.3,1.09-1.14,0-2.02-.41-2.65-1.23-.62-.82-.94-1.81-.94-2.96,0-.79.14-1.52.43-2.19.29-.67.7-1.19,1.25-1.55.54-.36,1.18-.55,1.92-.55.98,0,1.79.4,2.42,1.19v-1h1.3v7.17c0,1.29-.13,2.21-.39,2.75-.26.54-.68.96-1.25,1.28s-1.27.47-2.11.47c-.99,0-1.79-.22-2.4-.67s-.9-1.12-.88-2.01ZM188.35,175.97c0,1.09.22,1.88.65,2.38.43.5.97.75,1.62.75s1.19-.25,1.62-.75c.44-.5.66-1.28.66-2.34s-.23-1.78-.68-2.3c-.45-.52-.99-.77-1.63-.77s-1.16.25-1.59.76-.66,1.26-.66,2.26Z"/>
    <path class="cls-11" d="M207.34,178.91c-.46.52-.97.9-1.52,1.16s-1.14.39-1.77.39c-1.17,0-2.1-.4-2.79-1.19-.56-.65-.84-1.37-.84-2.16,0-.71.23-1.35.68-1.92.46-.57,1.14-1.07,2.04-1.5-.52-.59-.86-1.08-1.03-1.45-.17-.37-.26-.73-.26-1.07,0-.69.27-1.29.81-1.79s1.22-.76,2.04-.76,1.42.24,1.92.72c.5.48.75,1.05.75,1.73,0,1.09-.72,2.02-2.16,2.79l2.05,2.62c.23-.46.42-.99.55-1.59l1.46.31c-.25,1-.59,1.82-1.02,2.47.53.7,1.12,1.28,1.79,1.76l-.95,1.12c-.57-.36-1.15-.9-1.76-1.62ZM206.45,177.81l-2.58-3.2c-.76.45-1.27.87-1.54,1.26-.27.39-.4.77-.4,1.15,0,.46.18.95.55,1.45.37.5.89.75,1.57.75.42,0,.86-.13,1.31-.39.45-.26.81-.6,1.08-1.02ZM204.48,172.95c.61-.36,1-.67,1.18-.95.18-.27.27-.57.27-.9,0-.39-.12-.71-.37-.96-.25-.25-.56-.37-.93-.37s-.7.12-.95.37c-.25.25-.38.54-.38.9,0,.18.05.36.14.56.09.2.23.4.41.62l.62.73Z"/>
    <path class="cls-11" d="M118.93,199.47v-11.45h3.95c.89,0,1.57.05,2.04.16.66.15,1.22.42,1.68.82.6.51,1.06,1.16,1.36,1.96.3.79.45,1.7.45,2.72,0,.87-.1,1.64-.3,2.31s-.46,1.23-.78,1.67c-.32.44-.67.79-1.04,1.04-.38.25-.83.44-1.37.57-.53.13-1.15.2-1.84.2h-4.13ZM120.44,198.11h2.45c.75,0,1.35-.07,1.78-.21s.77-.34,1.03-.59c.36-.36.64-.84.84-1.45.2-.61.3-1.34.3-2.21,0-1.2-.2-2.12-.59-2.76-.39-.64-.87-1.07-1.43-1.29-.41-.16-1.06-.23-1.96-.23h-2.41v8.75Z"/>
    <path class="cls-11" d="M135.96,196.79l1.45.18c-.23.85-.65,1.51-1.27,1.98-.62.47-1.41.7-2.38.7-1.21,0-2.18-.37-2.89-1.12-.71-.75-1.07-1.8-1.07-3.14s.36-2.48,1.08-3.25c.72-.77,1.65-1.16,2.8-1.16s2.02.38,2.72,1.13c.7.76,1.05,1.82,1.05,3.19,0,.08,0,.21,0,.38h-6.19c.05.91.31,1.61.77,2.09.46.48,1.04.73,1.73.73.52,0,.96-.14,1.32-.41.36-.27.65-.7.87-1.3ZM131.34,194.52h4.63c-.06-.7-.24-1.22-.53-1.57-.45-.54-1.03-.81-1.74-.81-.65,0-1.19.22-1.63.65-.44.43-.68,1.01-.73,1.73Z"/>
    <path class="cls-11" d="M141.08,199.47l-3.16-8.3h1.48l1.78,4.97c.19.54.37,1.09.53,1.67.12-.44.3-.96.52-1.58l1.84-5.06h1.45l-3.14,8.3h-1.31Z"/>
    <path class="cls-11" d="M152.09,196.79l1.45.18c-.23.85-.65,1.51-1.27,1.98-.62.47-1.41.7-2.38.7-1.21,0-2.18-.37-2.89-1.12-.71-.75-1.07-1.8-1.07-3.14s.36-2.48,1.08-3.25c.72-.77,1.65-1.16,2.8-1.16s2.02.38,2.72,1.13c.7.76,1.05,1.82,1.05,3.19,0,.08,0,.21,0,.38h-6.19c.05.91.31,1.61.77,2.09.46.48,1.04.73,1.73.73.52,0,.96-.14,1.32-.41.36-.27.65-.7.87-1.3ZM147.47,194.52h4.63c-.06-.7-.24-1.22-.53-1.57-.45-.54-1.03-.81-1.74-.81-.65,0-1.19.22-1.63.65-.44.43-.68,1.01-.73,1.73Z"/>
    <path class="cls-11" d="M155.2,199.47v-11.45h1.41v11.45h-1.41Z"/>
    <path class="cls-11" d="M158.19,195.32c0-1.54.43-2.67,1.28-3.41.71-.61,1.58-.92,2.61-.92,1.14,0,2.07.37,2.8,1.12.72.75,1.09,1.78,1.09,3.1,0,1.07-.16,1.91-.48,2.52-.32.61-.79,1.09-1.4,1.43-.61.34-1.28.51-2,.51-1.16,0-2.1-.37-2.82-1.12-.72-.74-1.07-1.82-1.07-3.22ZM159.64,195.32c0,1.06.23,1.86.7,2.39.46.53,1.05.79,1.75.79s1.28-.27,1.74-.8c.46-.53.7-1.34.7-2.43,0-1.03-.23-1.8-.7-2.33-.47-.53-1.05-.79-1.74-.79s-1.29.26-1.75.79c-.46.53-.7,1.32-.7,2.38Z"/>
    <path class="cls-11" d="M167.54,202.65v-11.48h1.28v1.08c.3-.42.64-.74,1.02-.95.38-.21.84-.32,1.38-.32.71,0,1.33.18,1.88.55.54.36.95.88,1.23,1.54.28.66.41,1.39.41,2.18,0,.85-.15,1.61-.46,2.29s-.75,1.2-1.33,1.56c-.58.36-1.19.54-1.83.54-.47,0-.89-.1-1.26-.3-.37-.2-.68-.45-.92-.75v4.04h-1.41ZM168.82,195.36c0,1.07.22,1.86.65,2.37.43.51.96.77,1.57.77s1.16-.26,1.61-.79c.45-.53.67-1.35.67-2.46s-.22-1.85-.65-2.38c-.44-.53-.95-.79-1.56-.79s-1.13.28-1.59.84c-.46.56-.69,1.37-.69,2.44Z"/>
    <path class="cls-11" d="M176.35,199.47v-8.3h1.26v1.16c.26-.41.61-.73,1.04-.98.43-.25.92-.37,1.48-.37.61,0,1.12.13,1.51.38.39.26.67.61.83,1.07.66-.97,1.51-1.45,2.56-1.45.82,0,1.46.23,1.9.68.44.46.66,1.16.66,2.11v5.7h-1.4v-5.23c0-.56-.05-.97-.14-1.21-.09-.25-.26-.45-.5-.6-.24-.15-.52-.23-.84-.23-.58,0-1.07.19-1.45.58-.39.39-.58,1.01-.58,1.86v4.82h-1.41v-5.39c0-.62-.11-1.09-.34-1.41-.23-.31-.6-.47-1.12-.47-.4,0-.76.1-1.1.31-.34.21-.58.51-.73.91-.15.4-.23.98-.23,1.73v4.3h-1.41Z"/>
    <path class="cls-11" d="M195.27,196.79l1.45.18c-.23.85-.65,1.51-1.27,1.98-.62.47-1.41.7-2.38.7-1.21,0-2.18-.37-2.89-1.12-.71-.75-1.07-1.8-1.07-3.14s.36-2.48,1.08-3.25c.72-.77,1.65-1.16,2.8-1.16s2.02.38,2.72,1.13c.7.76,1.05,1.82,1.05,3.19,0,.08,0,.21,0,.38h-6.19c.05.91.31,1.61.77,2.09.46.48,1.04.73,1.73.73.52,0,.96-.14,1.32-.41.36-.27.65-.7.87-1.3ZM190.65,194.52h4.63c-.06-.7-.24-1.22-.53-1.57-.45-.54-1.03-.81-1.74-.81-.65,0-1.19.22-1.63.65-.44.43-.68,1.01-.73,1.73Z"/>
    <path class="cls-11" d="M198.38,199.47v-8.3h1.27v1.18c.61-.91,1.49-1.37,2.64-1.37.5,0,.96.09,1.38.27.42.18.73.42.94.71.21.29.35.64.44,1.04.05.26.08.72.08,1.37v5.1h-1.41v-5.05c0-.57-.05-1-.16-1.29-.11-.28-.3-.51-.58-.68-.28-.17-.61-.25-.98-.25-.6,0-1.12.19-1.55.57-.44.38-.65,1.1-.65,2.16v4.53h-1.41Z"/>
    <path class="cls-11" d="M210.09,198.21l.2,1.24c-.4.08-.75.12-1.06.12-.51,0-.91-.08-1.19-.24s-.48-.37-.59-.64c-.11-.26-.17-.82-.17-1.66v-4.77h-1.03v-1.09h1.03v-2.05l1.4-.84v2.9h1.41v1.09h-1.41v4.85c0,.4.02.66.07.77.05.11.13.21.24.27.11.07.27.1.48.1.16,0,.36-.02.62-.05Z"/>
  </g>
  <text class="cls-18" transform="translate(116.68 242.47)"><tspan class="cls-49" x="0" y="0">I</tspan><tspan class="cls-31" x="4.31" y="0">m</tspan><tspan class="cls-40" x="17.52" y="0">pr</tspan><tspan class="cls-43" x="31.57" y="0">o</tspan><tspan class="cls-41" x="40.11" y="0">v</tspan><tspan class="cls-25" x="48.03" y="0">i</tspan><tspan class="cls-44" x="51.49" y="0">s</tspan><tspan class="cls-39" x="59.43" y="0">a</tspan><tspan class="cls-54" x="68.1" y="0">ti</tspan><tspan class="cls-27" x="76" y="0">o</tspan><tspan x="84.83" y="0">n</tspan></text>
  <text class="cls-18" transform="translate(634.08 191.07)"><tspan class="cls-43" x="0" y="0">P</tspan><tspan class="cls-52" x="10.31" y="0">e</tspan><tspan class="cls-23" x="19.11" y="0">r</tspan><tspan class="cls-17" x="25.01" y="0">f</tspan><tspan class="cls-35" x="29.32" y="0">o</tspan><tspan class="cls-45" x="38.16" y="0">r</tspan><tspan class="cls-37" x="43.61" y="0">m</tspan><tspan class="cls-16" x="56.82" y="0">an</tspan><tspan class="cls-55" x="74.34" y="0">c</tspan><tspan x="82.47" y="0">e</tspan></text>
  <text class="cls-18" transform="translate(634.08 242.47)"><tspan class="cls-6" x="0" y="0">S</tspan><tspan class="cls-50" x="10.58" y="0">t</tspan><tspan class="cls-33" x="14.99" y="0">r</tspan><tspan class="cls-16" x="20.46" y="0">u</tspan><tspan class="cls-22" x="29.21" y="0">c</tspan><tspan class="cls-47" x="37.26" y="0">t</tspan><tspan class="cls-5" x="41.57" y="0">u</tspan><tspan class="cls-36" x="50.31" y="0">r</tspan><tspan x="55.51" y="0">e</tspan></text>
  <g>
    <line class="cls-12" x1="239.7" y1="186.73" x2="607.15" y2="186.73"/>
    <polygon class="cls-11" points="241.16 191.72 232.53 186.73 241.16 181.75 241.16 191.72"/>
    <polygon class="cls-11" points="605.69 191.72 614.32 186.73 605.69 181.75 605.69 191.72"/>
  </g>
  <g>
    <line class="cls-12" x1="239.7" y1="238.14" x2="607.15" y2="238.14"/>
    <polygon class="cls-11" points="241.16 243.12 232.53 238.14 241.16 233.15 241.16 243.12"/>
    <polygon class="cls-11" points="605.69 243.12 614.32 238.14 605.69 233.15 605.69 243.12"/>
  </g>
  <circle class="cls-10" cx="447.47" cy="186.73" r="8.53"/>
  <circle class="cls-10" cx="378.38" cy="238.14" r="8.53"/>
  <text class="cls-18" transform="translate(143.92 39.08)"><tspan class="cls-49" x="0" y="0">I</tspan><tspan class="cls-52" x="4.31" y="0">n</tspan><tspan class="cls-7" x="13.11" y="0">d</tspan><tspan class="cls-53" x="21.82" y="0">i</tspan><tspan class="cls-42" x="25.27" y="0">v</tspan><tspan class="cls-21" x="33.19" y="0">i</tspan><tspan class="cls-28" x="36.69" y="0">d</tspan><tspan class="cls-15" x="45.41" y="0">u</tspan><tspan class="cls-51" x="54.17" y="0">a</tspan><tspan x="62.93" y="0">l</tspan></text>
  <text class="cls-18" transform="translate(154.35 90.48)"><tspan class="cls-38" x="0" y="0">S</tspan><tspan class="cls-8" x="10.54" y="0">u</tspan><tspan class="cls-4" x="19.27" y="0">p</tspan><tspan class="cls-2" x="28.08" y="0">p</tspan><tspan class="cls-32" x="36.93" y="0">o</tspan><tspan class="cls-34" x="45.77" y="0">r</tspan><tspan x="51.61" y="0">t</tspan></text>
  <text class="cls-18" transform="translate(634.08 39.08)"><tspan class="cls-3" x="0" y="0">C</tspan><tspan class="cls-35" x="11.6" y="0">o</tspan><tspan class="cls-1" x="20.44" y="0">l</tspan><tspan class="cls-6" x="23.85" y="0">l</tspan><tspan class="cls-46" x="27.31" y="0">e</tspan><tspan class="cls-20" x="36.13" y="0">c</tspan><tspan class="cls-24" x="44.18" y="0">t</tspan><tspan class="cls-53" x="48.57" y="0">i</tspan><tspan class="cls-19" x="52.03" y="0">v</tspan><tspan x="59.66" y="0">e</tspan></text>
  <text class="cls-18" transform="translate(634.08 90.48)"><tspan class="cls-3" x="0" y="0">C</tspan><tspan class="cls-26" x="11.6" y="0">o</tspan><tspan class="cls-30" x="20.43" y="0">n</tspan><tspan class="cls-9" x="29.12" y="0">f</tspan><tspan class="cls-41" x="33.57" y="0">r</tspan><tspan class="cls-27" x="38.81" y="0">o</tspan><tspan class="cls-48" x="47.64" y="0">n</tspan><tspan class="cls-14" x="56.28" y="0">t</tspan><tspan class="cls-39" x="60.78" y="0">a</tspan><tspan class="cls-54" x="69.45" y="0">ti</tspan><tspan class="cls-27" x="77.35" y="0">o</tspan><tspan x="86.18" y="0">n</tspan></text>
  <g>
    <line class="cls-12" x1="239.7" y1="34.74" x2="607.15" y2="34.74"/>
    <polygon class="cls-11" points="241.16 39.73 232.53 34.74 241.16 29.76 241.16 39.73"/>
    <polygon class="cls-11" points="605.69 39.73 614.32 34.74 605.69 29.76 605.69 39.73"/>
  </g>
  <g>
    <line class="cls-12" x1="239.7" y1="86.15" x2="607.15" y2="86.15"/>
    <polygon class="cls-11" points="241.16 91.13 232.53 86.15 241.16 81.16 241.16 91.13"/>
    <polygon class="cls-11" points="605.69 91.13 614.32 86.15 605.69 81.16 605.69 91.13"/>
  </g>
  <circle class="cls-10" cx="394.35" cy="34.74" r="8.53"/>
  <circle class="cls-10" cx="419.24" cy="86.15" r="8.53"/>
  <line class="cls-13" x1="92.72" y1="136.44" x2="745.39" y2="136.44"/>
  <text class="cls-29" transform="translate(62.72 345.84) rotate(-90)"><tspan x="0" y="0">UNLEASH</tspan></text>
  <text class="cls-29" transform="translate(810.75 348.5) rotate(-90)"><tspan x="0" y="0">HARNESS</tspan></text>
</svg>