<?xml version="1.0" encoding="UTF-8"?>
<svg id="maturity" xmlns="http://www.w3.org/2000/svg" viewBox="0 0 425 425">
  <defs>
    <style>
      .cls-1 {
        fill: #4266ff;
      }

      .cls-1, .cls-2 {
        stroke-width: 0px;
      }

      .cls-3 {
        letter-spacing: 0em;
      }

      .cls-4 {
        fill: #1d1d1b;
        font-family: Arial-BoldMT, Arial;
        font-size: 18px;
        font-weight: 700;
      }

      .cls-5 {
        fill: #fff;
        stroke: #0333ff;
        stroke-miterlimit: 10;
      }

      .cls-2 {
        fill: #0333ff;
      }

      .cls-6 {
        letter-spacing: 0em;
      }

      .cls-7 {
        fill: #000;
        font-family: ArialMT, Arial;
        font-size: 32px;
        letter-spacing: .18em;
      }

      .cls-8 {
        letter-spacing: 0em;
      }

      .cls-9 {
        letter-spacing: 0em;
      }

      .cls-10 {
        letter-spacing: -.02em;
      }

      .cls-11 {
        letter-spacing: 0em;
      }
    </style>
  </defs>
  <g>
    <g>
      <circle class="cls-5" cx="213.53" cy="177.65" r="100"/>
      <circle class="cls-5" cx="147.93" cy="277.65" r="100"/>
      <circle class="cls-5" cx="277.07" cy="277.65" r="100"/>
    </g>
    <g>
      <path class="cls-1" d="M177.3,270.88c1.86-27.87,15.14-52.6,35.2-69.58-17.42-14.75-39.95-23.64-64.57-23.64-12.02,0-23.54,2.12-34.22,6.01,2.36,39.84,28.04,73.4,63.58,87.22Z"/>
      <path class="cls-1" d="M212.5,201.29c20.24,17.13,33.58,42.17,35.25,70.35,36.36-13.24,62.86-46.97,65.55-87.22-11.24-4.37-23.45-6.77-36.23-6.77-24.61,0-47.14,8.9-64.57,23.64Z"/>
      <path class="cls-1" d="M247.93,277.65c0-2.02-.07-4.02-.19-6.01-10.67,3.89-22.2,6.01-34.22,6.01-12.78,0-25-2.4-36.23-6.77-.15,2.24-.23,4.5-.23,6.77,0,30.62,13.76,58.01,35.43,76.36,21.67-18.34,35.43-45.74,35.43-76.36Z"/>
      <path class="cls-2" d="M212.5,201.29c-20.06,16.98-33.34,41.72-35.2,69.58,11.23,4.37,23.45,6.77,36.23,6.77,12.02,0,23.54-2.12,34.22-6.01-1.67-28.18-15.01-53.21-35.25-70.35Z"/>
    </g>
    <text class="cls-4" transform="translate(176.67 133.88)"><tspan class="cls-10" x="0" y="0">P</tspan><tspan class="cls-11" x="11.66" y="0">u</tspan><tspan class="cls-9" x="22.6" y="0">r</tspan><tspan class="cls-3" x="29.76" y="0">p</tspan><tspan class="cls-6" x="40.79" y="0">o</tspan><tspan class="cls-8" x="51.76" y="0">s</tspan><tspan x="61.66" y="0">e</tspan></text>
  </g>
  <text class="cls-7" transform="translate(74.18 44.17)"><tspan x="0" y="0">WILLINGNESS</tspan></text>
</svg>