<?xml version="1.0" encoding="UTF-8"?><svg id="Ebene_1" xmlns="http://www.w3.org/2000/svg" xmlns:xlink="http://www.w3.org/1999/xlink" viewBox="0 0 988 275"><defs><linearGradient id="Unbenannter_Verlauf" x1="479.86" y1="170.08" x2="557.24" y2="170.08" gradientUnits="userSpaceOnUse"><stop offset="0" stop-color="#fff"/><stop offset="1" stop-color="#000"/></linearGradient><linearGradient id="Unbenannter_Verlauf-2" x1="765.79" x2="813.16" xlink:href="#Unbenannter_Verlauf"/><linearGradient id="Unbenannter_Verlauf-3" x1="765.79" x2="813.16" xlink:href="#Unbenannter_Verlauf"/><linearGradient id="Unbenannter_Verlauf-4" x1="765.79" x2="813.16" xlink:href="#Unbenannter_Verlauf"/><linearGradient id="Unbenannter_Verlauf-5" x1="765.79" x2="813.16" xlink:href="#Unbenannter_Verlauf"/><linearGradient id="Unbenannter_Verlauf-6" x1="765.79" x2="813.16" xlink:href="#Unbenannter_Verlauf"/><linearGradient id="Unbenannter_Verlauf-7" x1="765.79" x2="813.16" xlink:href="#Unbenannter_Verlauf"/><linearGradient id="Unbenannter_Verlauf-8" x1="765.79" x2="813.16" xlink:href="#Unbenannter_Verlauf"/><linearGradient id="Unbenannter_Verlauf-9" x1="765.79" x2="813.16" xlink:href="#Unbenannter_Verlauf"/><linearGradient id="Unbenannter_Verlauf-10" x1="765.79" x2="813.16" xlink:href="#Unbenannter_Verlauf"/><linearGradient id="Unbenannter_Verlauf-11" x1="765.79" x2="813.16" xlink:href="#Unbenannter_Verlauf"/></defs><g><line x1="866.71" y1="205.25" x2="171.06" y2="205.25" style="fill:none; stroke:#221e1f; stroke-miterlimit:10;"/><polygon points="865.25 200.26 873.89 205.25 865.25 210.23 865.25 200.26" style="fill:#221e1f;"/><polygon points="172.52 200.26 163.89 205.25 172.52 210.23 172.52 200.26" style="fill:#221e1f;"/></g><g><path d="M218,106.41l2.25-.22c.14,.76,.41,1.31,.82,1.66,.41,.35,.97,.53,1.68,.53,.75,0,1.31-.16,1.68-.47,.38-.31,.57-.68,.57-1.11,0-.27-.08-.5-.24-.69-.16-.19-.44-.36-.83-.5-.27-.09-.89-.26-1.85-.5-1.24-.31-2.11-.68-2.61-1.13-.7-.63-1.05-1.4-1.05-2.3,0-.58,.17-1.13,.5-1.64s.81-.89,1.43-1.16,1.37-.4,2.25-.4c1.44,0,2.52,.32,3.25,.95,.73,.63,1.11,1.47,1.14,2.52l-2.31,.1c-.1-.59-.31-1.01-.64-1.27s-.81-.39-1.46-.39-1.2,.14-1.58,.41c-.25,.18-.37,.41-.37,.71,0,.27,.11,.5,.34,.7,.29,.25,1,.5,2.12,.77s1.96,.54,2.5,.82c.54,.28,.96,.67,1.27,1.16s.46,1.1,.46,1.82c0,.66-.18,1.27-.55,1.84-.36,.57-.88,1-1.55,1.28s-1.5,.42-2.49,.42c-1.45,0-2.56-.33-3.34-1-.78-.67-1.24-1.64-1.39-2.93Z" style="fill:#0333ff;"/><path d="M228.73,105.87c0-.73,.18-1.43,.54-2.12,.36-.68,.87-1.2,1.53-1.56s1.39-.54,2.21-.54c1.25,0,2.28,.41,3.09,1.22,.8,.82,1.2,1.85,1.2,3.09s-.41,2.3-1.21,3.12c-.81,.83-1.83,1.24-3.06,1.24-.76,0-1.49-.17-2.18-.52s-1.21-.85-1.57-1.51-.54-1.47-.54-2.43Zm2.25,.12c0,.82,.2,1.45,.59,1.89s.87,.66,1.45,.66,1.05-.22,1.44-.66,.58-1.07,.58-1.91-.19-1.44-.58-1.88-.87-.66-1.44-.66-1.05,.22-1.45,.66-.59,1.07-.59,1.89Z" style="fill:#0333ff;"/><path d="M239.02,110.14v-11.45h2.2v11.45h-2.2Z" style="fill:#0333ff;"/><path d="M248.92,110.14v-1.24c-.3,.44-.7,.79-1.19,1.05s-1.01,.38-1.56,.38-1.06-.12-1.5-.37-.76-.59-.96-1.03c-.2-.44-.3-1.05-.3-1.84v-5.25h2.2v3.81c0,1.17,.04,1.88,.12,2.14,.08,.26,.23,.47,.44,.62,.21,.15,.48,.23,.81,.23,.38,0,.71-.1,1.01-.31,.3-.21,.5-.46,.61-.77s.16-1.05,.16-2.24v-3.5h2.2v8.3h-2.04Z" style="fill:#0333ff;"/><path d="M257.04,101.84v1.75h-1.5v3.34c0,.68,.01,1.07,.04,1.18,.03,.11,.09,.2,.2,.28,.1,.07,.23,.11,.37,.11,.2,0,.5-.07,.88-.21l.19,1.7c-.51,.22-1.09,.33-1.73,.33-.4,0-.75-.07-1.07-.2s-.55-.3-.7-.52-.25-.5-.31-.86c-.05-.25-.07-.77-.07-1.55v-3.62h-1.01v-1.75h1.01v-1.65l2.2-1.28v2.93h1.5Z" style="fill:#0333ff;"/><path d="M258.56,100.71v-2.03h2.2v2.03h-2.2Zm0,9.42v-8.3h2.2v8.3h-2.2Z" style="fill:#0333ff;"/><path d="M262.5,105.87c0-.73,.18-1.43,.54-2.12,.36-.68,.87-1.2,1.53-1.56s1.39-.54,2.21-.54c1.25,0,2.28,.41,3.09,1.22,.8,.82,1.2,1.85,1.2,3.09s-.41,2.3-1.21,3.12c-.81,.83-1.83,1.24-3.06,1.24-.76,0-1.49-.17-2.18-.52s-1.21-.85-1.57-1.51-.54-1.47-.54-2.43Zm2.25,.12c0,.82,.2,1.45,.59,1.89s.87,.66,1.45,.66,1.05-.22,1.44-.66,.58-1.07,.58-1.91-.19-1.44-.58-1.88-.87-.66-1.44-.66-1.05,.22-1.45,.66-.59,1.07-.59,1.89Z" style="fill:#0333ff;"/><path d="M280.33,110.14h-2.2v-4.23c0-.9-.05-1.48-.14-1.74-.09-.26-.25-.47-.46-.61-.21-.15-.46-.22-.76-.22-.38,0-.72,.1-1.02,.31-.3,.21-.51,.48-.62,.83s-.17,.98-.17,1.91v3.76h-2.2v-8.3h2.04v1.22c.72-.94,1.64-1.41,2.73-1.41,.48,0,.93,.09,1.33,.26,.4,.17,.7,.4,.91,.67,.21,.27,.35,.58,.43,.92s.12,.84,.12,1.48v5.16Z" style="fill:#0333ff;"/><path d="M214.66,122.29l-2.16,.39c-.07-.43-.24-.76-.5-.98s-.59-.33-1-.33c-.55,0-.98,.19-1.31,.57-.33,.38-.49,1.01-.49,1.89,0,.98,.17,1.68,.5,2.09s.77,.61,1.33,.61c.42,0,.76-.12,1.02-.36,.27-.24,.45-.64,.56-1.22l2.16,.37c-.22,.99-.65,1.74-1.29,2.24-.64,.51-1.49,.76-2.55,.76-1.21,0-2.18-.38-2.9-1.15s-1.08-1.83-1.08-3.18,.36-2.44,1.09-3.2c.72-.76,1.7-1.14,2.94-1.14,1.01,0,1.81,.22,2.41,.65,.6,.44,1.02,1.1,1.29,1.99Z" style="fill:#0333ff;"/><path d="M215.82,123.87c0-.73,.18-1.43,.54-2.12,.36-.68,.87-1.2,1.53-1.56s1.39-.54,2.21-.54c1.25,0,2.28,.41,3.09,1.22,.8,.82,1.2,1.85,1.2,3.09s-.41,2.3-1.21,3.12c-.81,.83-1.83,1.24-3.06,1.24-.76,0-1.49-.17-2.18-.52s-1.21-.85-1.57-1.51-.54-1.47-.54-2.43Zm2.25,.12c0,.82,.2,1.45,.59,1.89s.87,.66,1.45,.66,1.05-.22,1.44-.66,.58-1.07,.58-1.91-.19-1.44-.58-1.88-.87-.66-1.44-.66-1.05,.22-1.45,.66-.59,1.07-.59,1.89Z" style="fill:#0333ff;"/><path d="M225.33,125.77l2.2-.34c.09,.43,.28,.75,.57,.97,.29,.22,.69,.33,1.2,.33,.57,0,1-.1,1.28-.31,.19-.15,.29-.34,.29-.59,0-.17-.05-.3-.16-.41-.11-.1-.35-.2-.73-.29-1.77-.39-2.89-.75-3.37-1.07-.66-.45-.98-1.07-.98-1.87,0-.72,.28-1.32,.85-1.81,.57-.49,1.45-.73,2.64-.73s1.98,.19,2.53,.55c.55,.37,.93,.92,1.14,1.64l-2.07,.38c-.09-.32-.26-.57-.5-.74s-.6-.26-1.06-.26c-.58,0-.99,.08-1.24,.24-.17,.11-.25,.26-.25,.45,0,.16,.07,.29,.22,.4,.2,.15,.88,.35,2.05,.62s1.99,.59,2.45,.98c.46,.39,.69,.94,.69,1.63,0,.76-.32,1.41-.95,1.96s-1.58,.82-2.82,.82c-1.13,0-2.02-.23-2.68-.69-.66-.46-1.09-1.08-1.29-1.87Z" style="fill:#0333ff;"/><path d="M238.8,119.84v1.75h-1.5v3.34c0,.68,.01,1.07,.04,1.18,.03,.11,.09,.2,.2,.28,.1,.07,.23,.11,.37,.11,.2,0,.5-.07,.88-.21l.19,1.7c-.51,.22-1.09,.33-1.73,.33-.4,0-.75-.07-1.07-.2s-.55-.3-.7-.52-.25-.5-.31-.86c-.05-.25-.07-.77-.07-1.55v-3.62h-1.01v-1.75h1.01v-1.65l2.2-1.28v2.93h1.5Z" style="fill:#0333ff;"/><path d="M252.38,128.14h-2.04v-1.22c-.34,.47-.74,.83-1.2,1.06s-.93,.35-1.39,.35c-.95,0-1.77-.38-2.45-1.15-.68-.77-1.02-1.84-1.02-3.21s.33-2.48,.99-3.21c.66-.73,1.5-1.1,2.51-1.1,.93,0,1.73,.39,2.41,1.16v-4.12h2.2v11.45Zm-5.86-4.33c0,.89,.12,1.53,.37,1.92,.35,.57,.85,.86,1.48,.86,.5,0,.93-.21,1.29-.64s.53-1.07,.53-1.93c0-.95-.17-1.64-.52-2.06-.34-.42-.78-.63-1.32-.63s-.96,.21-1.31,.62-.53,1.03-.53,1.86Z" style="fill:#0333ff;"/><path d="M256.65,128.14h-2.2v-8.3h2.04v1.18c.35-.56,.66-.92,.94-1.1,.28-.18,.59-.27,.95-.27,.5,0,.98,.14,1.45,.41l-.68,1.91c-.37-.24-.71-.36-1.03-.36s-.57,.08-.78,.25c-.21,.17-.38,.48-.5,.92-.12,.44-.18,1.37-.18,2.78v2.56Z" style="fill:#0333ff;"/><path d="M260.77,118.71v-2.03h2.2v2.03h-2.2Zm0,9.42v-8.3h2.2v8.3h-2.2Z" style="fill:#0333ff;"/><path d="M267.5,128.14l-3.34-8.3h2.3l1.56,4.23,.45,1.41c.12-.36,.2-.6,.23-.71,.07-.23,.15-.47,.23-.7l1.58-4.23h2.26l-3.3,8.3h-1.98Z" style="fill:#0333ff;"/><path d="M278.92,125.49l2.19,.37c-.28,.8-.73,1.41-1.33,1.83-.61,.42-1.37,.63-2.28,.63-1.44,0-2.51-.47-3.2-1.41-.55-.75-.82-1.71-.82-2.86,0-1.38,.36-2.45,1.08-3.23,.72-.78,1.63-1.17,2.73-1.17,1.23,0,2.21,.41,2.92,1.22,.71,.82,1.05,2.06,1.02,3.75h-5.5c.02,.65,.19,1.16,.53,1.52,.34,.36,.76,.54,1.27,.54,.34,0,.63-.09,.87-.28s.41-.49,.53-.91Zm.12-2.22c-.02-.64-.18-1.12-.49-1.45-.31-.33-.69-.5-1.14-.5-.48,0-.88,.17-1.19,.52-.31,.35-.47,.82-.46,1.42h3.28Z" style="fill:#0333ff;"/><path d="M285.12,128.14h-2.2v-8.3h2.04v1.18c.35-.56,.66-.92,.94-1.1,.28-.18,.59-.27,.95-.27,.5,0,.98,.14,1.45,.41l-.68,1.91c-.37-.24-.71-.36-1.03-.36s-.57,.08-.78,.25c-.21,.17-.38,.48-.5,.92-.12,.44-.18,1.37-.18,2.78v2.56Z" style="fill:#0333ff;"/><path d="M288.47,125.77l2.2-.34c.09,.43,.28,.75,.57,.97,.29,.22,.69,.33,1.2,.33,.57,0,1-.1,1.28-.31,.19-.15,.29-.34,.29-.59,0-.17-.05-.3-.16-.41-.11-.1-.35-.2-.73-.29-1.77-.39-2.89-.75-3.37-1.07-.66-.45-.98-1.07-.98-1.87,0-.72,.28-1.32,.85-1.81,.57-.49,1.45-.73,2.64-.73s1.98,.19,2.53,.55c.55,.37,.93,.92,1.14,1.64l-2.07,.38c-.09-.32-.26-.57-.5-.74s-.6-.26-1.06-.26c-.58,0-.99,.08-1.24,.24-.17,.11-.25,.26-.25,.45,0,.16,.07,.29,.22,.4,.2,.15,.88,.35,2.05,.62s1.99,.59,2.45,.98c.46,.39,.69,.94,.69,1.63,0,.76-.32,1.41-.95,1.96s-1.58,.82-2.82,.82c-1.13,0-2.02-.23-2.68-.69-.66-.46-1.09-1.08-1.29-1.87Z" style="fill:#0333ff;"/></g><g><path d="M483.41,106.41l2.25-.22c.14,.76,.41,1.31,.82,1.66,.41,.35,.97,.53,1.68,.53,.75,0,1.31-.16,1.68-.47,.38-.31,.57-.68,.57-1.11,0-.27-.08-.5-.24-.69-.16-.19-.44-.36-.83-.5-.27-.09-.89-.26-1.85-.5-1.24-.31-2.11-.68-2.61-1.13-.7-.63-1.05-1.4-1.05-2.3,0-.58,.17-1.13,.5-1.64s.81-.89,1.43-1.16,1.37-.4,2.25-.4c1.44,0,2.52,.32,3.25,.95,.73,.63,1.11,1.47,1.14,2.52l-2.31,.1c-.1-.59-.31-1.01-.64-1.27s-.81-.39-1.46-.39-1.2,.14-1.58,.41c-.25,.18-.37,.41-.37,.71,0,.27,.11,.5,.34,.7,.29,.25,1,.5,2.12,.77s1.96,.54,2.5,.82c.54,.28,.96,.67,1.27,1.16s.46,1.1,.46,1.82c0,.66-.18,1.27-.55,1.84-.36,.57-.88,1-1.55,1.28s-1.5,.42-2.49,.42c-1.45,0-2.56-.33-3.34-1-.78-.67-1.24-1.64-1.39-2.93Z" style="fill:#0333ff;"/><path d="M494.14,105.87c0-.73,.18-1.43,.54-2.12,.36-.68,.87-1.2,1.53-1.56s1.39-.54,2.21-.54c1.25,0,2.28,.41,3.09,1.22,.8,.82,1.2,1.85,1.2,3.09s-.41,2.3-1.21,3.12c-.81,.83-1.83,1.24-3.06,1.24-.76,0-1.49-.17-2.18-.52s-1.21-.85-1.57-1.51-.54-1.47-.54-2.43Zm2.25,.12c0,.82,.2,1.45,.59,1.89s.87,.66,1.45,.66,1.05-.22,1.44-.66,.58-1.07,.58-1.91-.19-1.44-.58-1.88-.87-.66-1.44-.66-1.05,.22-1.45,.66-.59,1.07-.59,1.89Z" style="fill:#0333ff;"/><path d="M504.42,110.14v-11.45h2.2v11.45h-2.2Z" style="fill:#0333ff;"/><path d="M514.33,110.14v-1.24c-.3,.44-.7,.79-1.19,1.05s-1.01,.38-1.56,.38-1.06-.12-1.5-.37-.76-.59-.96-1.03c-.2-.44-.3-1.05-.3-1.84v-5.25h2.2v3.81c0,1.17,.04,1.88,.12,2.14,.08,.26,.23,.47,.44,.62,.21,.15,.48,.23,.81,.23,.38,0,.71-.1,1.01-.31,.3-.21,.5-.46,.61-.77s.16-1.05,.16-2.24v-3.5h2.2v8.3h-2.04Z" style="fill:#0333ff;"/><path d="M522.45,101.84v1.75h-1.5v3.34c0,.68,.01,1.07,.04,1.18,.03,.11,.09,.2,.2,.28,.1,.07,.23,.11,.37,.11,.2,0,.5-.07,.88-.21l.19,1.7c-.51,.22-1.09,.33-1.73,.33-.4,0-.75-.07-1.07-.2s-.55-.3-.7-.52-.25-.5-.31-.86c-.05-.25-.07-.77-.07-1.55v-3.62h-1.01v-1.75h1.01v-1.65l2.2-1.28v2.93h1.5Z" style="fill:#0333ff;"/><path d="M523.97,100.71v-2.03h2.2v2.03h-2.2Zm0,9.42v-8.3h2.2v8.3h-2.2Z" style="fill:#0333ff;"/><path d="M527.91,105.87c0-.73,.18-1.43,.54-2.12,.36-.68,.87-1.2,1.53-1.56s1.39-.54,2.21-.54c1.25,0,2.28,.41,3.09,1.22,.8,.82,1.2,1.85,1.2,3.09s-.41,2.3-1.21,3.12c-.81,.83-1.83,1.24-3.06,1.24-.76,0-1.49-.17-2.18-.52s-1.21-.85-1.57-1.51-.54-1.47-.54-2.43Zm2.25,.12c0,.82,.2,1.45,.59,1.89s.87,.66,1.45,.66,1.05-.22,1.44-.66,.58-1.07,.58-1.91-.19-1.44-.58-1.88-.87-.66-1.44-.66-1.05,.22-1.45,.66-.59,1.07-.59,1.89Z" style="fill:#0333ff;"/><path d="M545.74,110.14h-2.2v-4.23c0-.9-.05-1.48-.14-1.74-.09-.26-.25-.47-.46-.61-.21-.15-.46-.22-.76-.22-.38,0-.72,.1-1.02,.31-.3,.21-.51,.48-.62,.83s-.17,.98-.17,1.91v3.76h-2.2v-8.3h2.04v1.22c.72-.94,1.64-1.41,2.73-1.41,.48,0,.93,.09,1.33,.26,.4,.17,.7,.4,.91,.67,.21,.27,.35,.58,.43,.92s.12,.84,.12,1.48v5.16Z" style="fill:#0333ff;"/><path d="M488.45,128.14h-2.04v-1.22c-.34,.47-.74,.83-1.2,1.06s-.93,.35-1.39,.35c-.95,0-1.77-.38-2.45-1.15-.68-.77-1.02-1.84-1.02-3.21s.33-2.48,.99-3.21c.66-.73,1.5-1.1,2.51-1.1,.93,0,1.73,.39,2.41,1.16v-4.12h2.2v11.45Zm-5.86-4.33c0,.89,.12,1.53,.37,1.92,.35,.57,.85,.86,1.48,.86,.5,0,.93-.21,1.29-.64s.53-1.07,.53-1.93c0-.95-.17-1.64-.52-2.06-.34-.42-.78-.63-1.32-.63s-.96,.21-1.31,.62-.53,1.03-.53,1.86Z" style="fill:#0333ff;"/><path d="M495.42,125.5l2.19,.37c-.28,.8-.73,1.41-1.33,1.83-.61,.42-1.37,.63-2.28,.63-1.44,0-2.51-.47-3.2-1.41-.55-.75-.82-1.71-.82-2.86,0-1.38,.36-2.45,1.08-3.23,.72-.78,1.63-1.17,2.73-1.17,1.23,0,2.21,.41,2.92,1.22,.71,.82,1.05,2.06,1.02,3.75h-5.5c.02,.65,.19,1.16,.53,1.52,.34,.36,.76,.54,1.27,.54,.34,0,.63-.09,.87-.28s.41-.49,.53-.91Zm.12-2.22c-.02-.64-.18-1.12-.49-1.45-.31-.33-.69-.5-1.14-.5-.48,0-.88,.17-1.19,.52-.31,.35-.47,.82-.46,1.42h3.28Z" style="fill:#0333ff;"/><path d="M499.51,128.14v-11.45h2.2v11.45h-2.2Z" style="fill:#0333ff;"/><path d="M503.96,118.71v-2.03h2.2v2.03h-2.2Zm0,9.42v-8.3h2.2v8.3h-2.2Z" style="fill:#0333ff;"/><path d="M510.69,128.14l-3.34-8.3h2.3l1.56,4.23,.45,1.41c.12-.36,.2-.6,.23-.71,.07-.23,.15-.47,.23-.7l1.58-4.23h2.26l-3.3,8.3h-1.98Z" style="fill:#0333ff;"/><path d="M522.11,125.5l2.19,.37c-.28,.8-.73,1.41-1.33,1.83-.61,.42-1.37,.63-2.28,.63-1.44,0-2.51-.47-3.2-1.41-.55-.75-.82-1.71-.82-2.86,0-1.38,.36-2.45,1.08-3.23,.72-.78,1.63-1.17,2.73-1.17,1.23,0,2.21,.41,2.92,1.22,.71,.82,1.05,2.06,1.02,3.75h-5.5c.02,.65,.19,1.16,.53,1.52,.34,.36,.76,.54,1.27,.54,.34,0,.63-.09,.87-.28s.41-.49,.53-.91Zm.12-2.22c-.02-.64-.18-1.12-.49-1.45-.31-.33-.69-.5-1.14-.5-.48,0-.88,.17-1.19,.52-.31,.35-.47,.82-.46,1.42h3.28Z" style="fill:#0333ff;"/><path d="M528.3,128.14h-2.2v-8.3h2.04v1.18c.35-.56,.66-.92,.94-1.1,.28-.18,.59-.27,.95-.27,.5,0,.98,.14,1.45,.41l-.68,1.91c-.37-.24-.71-.36-1.03-.36s-.57,.08-.78,.25c-.21,.17-.38,.48-.5,.92-.12,.44-.18,1.37-.18,2.78v2.56Z" style="fill:#0333ff;"/><path d="M537.23,125.5l2.19,.37c-.28,.8-.73,1.41-1.33,1.83-.61,.42-1.37,.63-2.28,.63-1.44,0-2.51-.47-3.2-1.41-.55-.75-.82-1.71-.82-2.86,0-1.38,.36-2.45,1.08-3.23,.72-.78,1.63-1.17,2.73-1.17,1.23,0,2.21,.41,2.92,1.22,.71,.82,1.05,2.06,1.02,3.75h-5.5c.02,.65,.19,1.16,.53,1.52,.34,.36,.76,.54,1.27,.54,.34,0,.63-.09,.87-.28s.41-.49,.53-.91Zm.12-2.22c-.02-.64-.18-1.12-.49-1.45-.31-.33-.69-.5-1.14-.5-.48,0-.88,.17-1.19,.52-.31,.35-.47,.82-.46,1.42h3.28Z" style="fill:#0333ff;"/><path d="M548.94,128.14h-2.04v-1.22c-.34,.47-.74,.83-1.2,1.06s-.93,.35-1.39,.35c-.95,0-1.77-.38-2.45-1.15-.68-.77-1.02-1.84-1.02-3.21s.33-2.48,.99-3.21c.66-.73,1.5-1.1,2.51-1.1,.93,0,1.73,.39,2.41,1.16v-4.12h2.2v11.45Zm-5.86-4.33c0,.89,.12,1.53,.37,1.92,.35,.57,.85,.86,1.48,.86,.5,0,.93-.21,1.29-.64s.53-1.07,.53-1.93c0-.95-.17-1.64-.52-2.06-.34-.42-.78-.63-1.32-.63s-.96,.21-1.31,.62-.53,1.03-.53,1.86Z" style="fill:#0333ff;"/></g><g><path d="M771.73,98.68h2.31v6.2c0,.98,.03,1.62,.09,1.91,.1,.47,.33,.84,.71,1.13s.88,.43,1.53,.43,1.15-.13,1.48-.4,.53-.6,.6-.99,.1-1.04,.1-1.95v-6.34h2.31v6.02c0,1.38-.06,2.35-.19,2.91s-.36,1.05-.69,1.44-.79,.7-1.35,.93-1.3,.35-2.2,.35c-1.09,0-1.92-.13-2.49-.38-.57-.25-1.01-.58-1.34-.98s-.54-.83-.65-1.27c-.15-.66-.23-1.62-.23-2.91v-6.11Z" style="fill:#0333ff;"/><path d="M790.84,110.14h-2.2v-4.23c0-.9-.05-1.48-.14-1.74s-.25-.47-.46-.61-.46-.22-.76-.22c-.38,0-.72,.1-1.02,.31s-.51,.48-.62,.83-.17,.98-.17,1.91v3.76h-2.2v-8.3h2.04v1.22c.72-.94,1.64-1.41,2.73-1.41,.48,0,.93,.09,1.33,.26s.7,.4,.91,.67,.35,.58,.43,.92,.12,.84,.12,1.48v5.16Z" style="fill:#0333ff;"/><path d="M793.06,100.71v-2.03h2.2v2.03h-2.2Zm0,9.42v-8.3h2.2v8.3h-2.2Z" style="fill:#0333ff;"/><path d="M801.31,101.84v1.75h-1.5v3.34c0,.68,.01,1.07,.04,1.18s.09,.2,.2,.28,.23,.11,.37,.11c.2,0,.5-.07,.88-.21l.19,1.7c-.51,.22-1.09,.33-1.73,.33-.4,0-.75-.07-1.07-.2s-.55-.3-.7-.52-.25-.5-.31-.86c-.05-.25-.07-.77-.07-1.55v-3.62h-1.01v-1.75h1.01v-1.65l2.2-1.28v2.93h1.5Z" style="fill:#0333ff;"/><path d="M770.26,128.14h-2.2v-8.3h2.04v1.18c.35-.56,.66-.92,.94-1.1s.59-.27,.95-.27c.5,0,.98,.14,1.45,.41l-.68,1.91c-.37-.24-.71-.36-1.03-.36s-.57,.08-.78,.25-.38,.48-.5,.92-.18,1.37-.18,2.78v2.56Z" style="fill:#0333ff;"/><path d="M776.03,122.37l-1.99-.36c.22-.8,.61-1.4,1.16-1.78s1.36-.58,2.44-.58c.98,0,1.71,.12,2.19,.35s.82,.53,1.01,.88,.29,1.01,.29,1.96l-.02,2.56c0,.73,.04,1.27,.11,1.61s.2,.72,.39,1.11h-2.17c-.06-.15-.13-.36-.21-.65-.04-.13-.06-.22-.08-.26-.38,.36-.78,.64-1.2,.82-.43,.18-.88,.27-1.37,.27-.85,0-1.53-.23-2.02-.7s-.74-1.05-.74-1.76c0-.47,.11-.89,.34-1.25s.54-.65,.94-.84,.99-.37,1.75-.51c1.03-.19,1.74-.37,2.13-.54v-.22c0-.42-.1-.72-.31-.9s-.6-.27-1.18-.27c-.39,0-.7,.08-.91,.23s-.4,.42-.53,.81Zm2.94,1.78c-.28,.09-.73,.21-1.34,.34s-1.01,.26-1.2,.38c-.29,.2-.43,.46-.43,.77s.11,.57,.34,.8,.52,.34,.88,.34c.4,0,.77-.13,1.13-.39,.27-.2,.44-.44,.52-.73,.06-.19,.09-.54,.09-1.07v-.44Z" style="fill:#0333ff;"/><path d="M787.09,119.84v1.75h-1.5v3.34c0,.68,.01,1.07,.04,1.18s.09,.2,.2,.28,.23,.11,.37,.11c.2,0,.5-.07,.88-.21l.19,1.7c-.51,.22-1.09,.33-1.73,.33-.4,0-.75-.07-1.07-.2s-.55-.3-.7-.52-.25-.5-.31-.86c-.05-.25-.07-.77-.07-1.55v-3.62h-1.01v-1.75h1.01v-1.65l2.2-1.28v2.93h1.5Z" style="fill:#0333ff;"/><path d="M793.42,125.5l2.19,.37c-.28,.8-.73,1.41-1.33,1.83s-1.37,.63-2.28,.63c-1.44,0-2.51-.47-3.2-1.41-.55-.75-.82-1.71-.82-2.86,0-1.38,.36-2.45,1.08-3.23s1.63-1.17,2.73-1.17c1.23,0,2.21,.41,2.92,1.22s1.05,2.06,1.02,3.75h-5.5c.02,.65,.19,1.16,.53,1.52s.76,.54,1.27,.54c.34,0,.63-.09,.87-.28s.41-.49,.53-.91Zm.12-2.22c-.02-.64-.18-1.12-.49-1.45s-.69-.5-1.14-.5c-.48,0-.88,.17-1.19,.52s-.47,.82-.46,1.42h3.28Z" style="fill:#0333ff;"/><path d="M796.74,125.77l2.2-.34c.09,.43,.28,.75,.57,.97s.69,.33,1.2,.33c.57,0,1-.1,1.28-.31,.19-.15,.29-.34,.29-.59,0-.17-.05-.3-.16-.41-.11-.1-.35-.2-.73-.29-1.77-.39-2.89-.75-3.37-1.07-.66-.45-.98-1.07-.98-1.87,0-.72,.28-1.32,.85-1.81s1.45-.73,2.64-.73,1.98,.18,2.53,.55,.93,.92,1.14,1.64l-2.07,.38c-.09-.32-.26-.57-.5-.74s-.6-.26-1.06-.26c-.58,0-.99,.08-1.24,.24-.17,.11-.25,.26-.25,.45,0,.16,.07,.29,.22,.4,.2,.15,.88,.35,2.05,.62s1.99,.59,2.45,.98c.46,.39,.69,.93,.69,1.63,0,.76-.32,1.41-.95,1.96s-1.58,.82-2.82,.82c-1.13,0-2.02-.23-2.68-.69s-1.09-1.08-1.29-1.87Z" style="fill:#0333ff;"/></g><text transform="translate(173.89 239.54)" style="font-family:ArialMT, Arial; font-size:12px;"><tspan x="0" y="0">Not actionable by business</tspan></text><g><path d="M224.24,166.93v-1.05c-.53-.07-.96-.18-1.29-.35s-.62-.44-.86-.82-.38-.84-.42-1.39l1.06-.2c.08,.57,.23,.98,.43,1.25,.3,.38,.65,.58,1.07,.63v-3.36c-.43-.08-.88-.25-1.33-.5-.34-.19-.59-.45-.78-.78s-.27-.71-.27-1.13c0-.75,.27-1.36,.8-1.82,.36-.31,.88-.5,1.58-.57v-.5h.62v.5c.61,.06,1.1,.24,1.46,.54,.46,.38,.74,.91,.83,1.58l-1.09,.16c-.06-.41-.19-.73-.39-.95s-.47-.37-.81-.44v3.04c.53,.13,.88,.24,1.05,.31,.33,.14,.6,.32,.8,.53s.37,.45,.48,.74,.17,.59,.17,.93c0,.73-.23,1.34-.7,1.83s-1.07,.75-1.8,.79v1.07h-.62Zm0-9.23c-.41,.06-.73,.23-.97,.49s-.36,.58-.36,.94,.1,.66,.3,.9,.54,.44,1.02,.58v-2.92Zm.62,7.29c.41-.05,.75-.23,1.02-.53s.4-.68,.4-1.13c0-.38-.09-.69-.28-.92s-.57-.44-1.13-.62v3.21Z"/><path d="M232.4,165.69h-1.05v-6.72c-.25,.24-.59,.48-1,.73s-.78,.42-1.11,.54v-1.02c.59-.28,1.11-.61,1.55-1.01s.75-.78,.94-1.15h.68v8.62Z"/><path d="M235.1,161.45c0-1.02,.11-1.83,.31-2.45s.52-1.1,.93-1.43,.93-.5,1.55-.5c.46,0,.87,.09,1.21,.28s.63,.45,.86,.8,.4,.78,.53,1.28,.19,1.18,.19,2.03c0,1.01-.1,1.82-.31,2.44s-.52,1.1-.93,1.44-.93,.51-1.56,.51c-.83,0-1.48-.3-1.95-.89-.57-.71-.85-1.88-.85-3.49Zm1.08,0c0,1.41,.17,2.35,.5,2.82s.74,.7,1.22,.7,.89-.23,1.22-.7,.49-1.41,.49-2.81-.16-2.35-.49-2.82-.74-.7-1.23-.7-.87,.21-1.16,.62c-.36,.52-.54,1.49-.54,2.9Z"/><path d="M245.4,165.69v-6.22h.94v.87c.2-.3,.46-.55,.78-.74s.69-.28,1.11-.28c.46,0,.84,.1,1.13,.29s.5,.46,.62,.8c.49-.73,1.13-1.09,1.92-1.09,.62,0,1.09,.17,1.42,.51s.5,.87,.5,1.58v4.27h-1.05v-3.92c0-.42-.03-.73-.1-.91s-.19-.33-.37-.45-.39-.17-.63-.17c-.44,0-.8,.15-1.09,.44s-.43,.76-.43,1.4v3.62h-1.05v-4.04c0-.47-.09-.82-.26-1.05s-.45-.35-.84-.35c-.3,0-.57,.08-.82,.23s-.44,.38-.55,.69-.17,.73-.17,1.3v3.23h-1.05Z"/><path d="M255.4,158.31v-1.21h1.05v1.21h-1.05Zm0,7.38v-6.22h1.05v6.22h-1.05Z"/><path d="M258.04,165.69v-8.59h1.05v8.59h-1.05Z"/><path d="M260.71,165.69v-8.59h1.05v8.59h-1.05Z"/><path d="M263.4,158.31v-1.21h1.05v1.21h-1.05Zm0,7.38v-6.22h1.05v6.22h-1.05Z"/><path d="M265.67,162.58c0-1.15,.32-2.01,.96-2.56,.54-.46,1.19-.69,1.96-.69,.86,0,1.55,.28,2.1,.84s.81,1.33,.81,2.32c0,.8-.12,1.43-.36,1.89s-.59,.82-1.05,1.07-.96,.38-1.5,.38c-.87,0-1.57-.28-2.11-.84s-.81-1.36-.81-2.41Zm1.08,0c0,.8,.17,1.39,.52,1.79s.79,.59,1.31,.59,.96-.2,1.31-.6,.52-1.01,.52-1.82c0-.77-.17-1.35-.52-1.75s-.79-.59-1.3-.59-.96,.2-1.31,.59-.52,.99-.52,1.79Z"/><path d="M272.74,165.69v-6.22h.95v.88c.46-.68,1.12-1.03,1.98-1.03,.38,0,.72,.07,1.04,.2s.55,.31,.71,.53,.27,.48,.33,.78c.04,.2,.06,.54,.06,1.03v3.83h-1.05v-3.79c0-.43-.04-.75-.12-.96s-.23-.38-.44-.51-.46-.19-.74-.19c-.45,0-.84,.14-1.16,.43s-.49,.83-.49,1.62v3.4h-1.05Z"/><path d="M221.72,172.71v-1.21h1.05v1.21h-1.05Zm0,7.38v-6.22h1.05v6.22h-1.05Z"/><path d="M224.38,180.09v-6.22h.95v.88c.46-.68,1.12-1.03,1.98-1.03,.38,0,.72,.07,1.03,.2s.55,.31,.71,.53,.27,.48,.33,.78c.04,.2,.06,.54,.06,1.03v3.83h-1.05v-3.79c0-.43-.04-.75-.12-.96s-.23-.38-.44-.51-.45-.19-.73-.19c-.45,0-.84,.14-1.16,.43s-.49,.83-.49,1.62v3.4h-1.05Z"/><path d="M233.97,178.23l1.04-.16c.06,.42,.22,.74,.49,.96s.64,.33,1.12,.33,.84-.1,1.08-.3,.35-.43,.35-.69c0-.24-.1-.43-.31-.56-.14-.09-.5-.21-1.08-.36-.77-.2-1.31-.36-1.61-.51s-.53-.34-.68-.59-.23-.53-.23-.83c0-.28,.06-.53,.19-.77s.3-.43,.52-.59c.16-.12,.39-.22,.67-.31s.59-.13,.91-.13c.49,0,.92,.07,1.29,.21s.64,.33,.82,.57,.3,.56,.36,.96l-1.03,.14c-.05-.32-.18-.57-.41-.75s-.54-.27-.95-.27c-.48,0-.83,.08-1.04,.24s-.31,.35-.31,.56c0,.14,.04,.26,.13,.37,.09,.11,.22,.21,.4,.28,.11,.04,.42,.13,.93,.27,.75,.2,1.27,.36,1.56,.49s.53,.31,.7,.55,.25,.54,.25,.9-.1,.68-.31,.99-.5,.55-.89,.72-.82,.25-1.31,.25c-.81,0-1.43-.17-1.85-.5s-.69-.83-.81-1.49Z"/><path d="M240,176.98c0-1.15,.32-2.01,.96-2.56,.54-.46,1.19-.69,1.96-.69,.86,0,1.55,.28,2.1,.84s.81,1.33,.81,2.32c0,.8-.12,1.43-.36,1.89s-.59,.82-1.05,1.07-.96,.38-1.5,.38c-.87,0-1.58-.28-2.11-.84s-.8-1.36-.8-2.41Zm1.08,0c0,.8,.17,1.39,.52,1.79s.79,.59,1.31,.59,.96-.2,1.31-.6,.52-1.01,.52-1.82c0-.77-.18-1.35-.53-1.75s-.78-.59-1.3-.59-.96,.2-1.31,.59-.52,.99-.52,1.79Z"/><path d="M247.32,180.09v-5.4h-.93v-.82h.93v-.66c0-.42,.04-.73,.11-.93,.1-.27,.28-.5,.54-.67s.62-.25,1.08-.25c.3,0,.62,.04,.98,.11l-.16,.92c-.22-.04-.43-.06-.62-.06-.32,0-.55,.07-.68,.21s-.2,.39-.2,.77v.57h1.21v.82h-1.21v5.4h-1.05Z"/><path d="M252.7,179.15l.15,.93c-.3,.06-.56,.09-.8,.09-.38,0-.68-.06-.89-.18s-.36-.28-.45-.48-.13-.61-.13-1.25v-3.58h-.77v-.82h.77v-1.54l1.05-.63v2.17h1.06v.82h-1.06v3.64c0,.3,.02,.49,.05,.58s.1,.15,.18,.21,.21,.08,.36,.08c.12,0,.27-.01,.46-.04Z"/><path d="M254.88,180.09l-1.9-6.22h1.09l.99,3.59,.37,1.34c.02-.07,.12-.49,.32-1.28l.99-3.64h1.08l.93,3.61,.31,1.19,.36-1.2,1.07-3.6h1.03l-1.95,6.22h-1.1l-.99-3.73-.24-1.06-1.26,4.79h-1.1Z"/><path d="M266.46,179.32c-.39,.33-.77,.57-1.13,.7s-.75,.21-1.16,.21c-.68,0-1.21-.17-1.58-.5s-.55-.76-.55-1.28c0-.3,.07-.58,.21-.83s.32-.45,.54-.61,.48-.27,.76-.35c.21-.05,.52-.11,.94-.16,.85-.1,1.48-.22,1.88-.36,0-.14,0-.24,0-.28,0-.43-.1-.73-.3-.91-.27-.24-.67-.36-1.2-.36-.5,0-.86,.09-1.1,.26s-.41,.48-.52,.92l-1.03-.14c.09-.44,.25-.8,.46-1.07s.53-.48,.93-.63,.88-.22,1.41-.22,.96,.06,1.29,.19,.58,.28,.73,.47,.27,.43,.33,.72c.04,.18,.05,.5,.05,.97v1.41c0,.98,.02,1.6,.07,1.86s.13,.51,.27,.75h-1.1c-.11-.22-.18-.47-.21-.77Zm-.09-2.36c-.38,.16-.96,.29-1.72,.4-.43,.06-.74,.13-.92,.21s-.32,.19-.42,.34-.15,.32-.15,.5c0,.28,.11,.52,.32,.7s.53,.28,.94,.28,.77-.09,1.08-.27,.55-.42,.7-.73c.11-.24,.17-.59,.17-1.05v-.39Z"/><path d="M269.06,180.09v-6.22h.95v.94c.24-.44,.46-.73,.67-.87s.43-.21,.68-.21c.36,0,.72,.11,1.08,.34l-.36,.98c-.26-.15-.52-.23-.77-.23-.23,0-.44,.07-.62,.21s-.31,.33-.39,.58c-.12,.38-.18,.79-.18,1.23v3.26h-1.05Z"/><path d="M277.33,178.08l1.09,.13c-.17,.64-.49,1.13-.96,1.48s-1.06,.53-1.78,.53c-.91,0-1.63-.28-2.17-.84s-.8-1.35-.8-2.36,.27-1.86,.81-2.44,1.24-.87,2.1-.87,1.51,.28,2.04,.85,.79,1.36,.79,2.39c0,.06,0,.16,0,.28h-4.64c.04,.68,.23,1.21,.58,1.57s.78,.54,1.3,.54c.39,0,.72-.1,.99-.3s.49-.53,.65-.97Zm-3.46-1.71h3.47c-.05-.52-.18-.92-.4-1.18-.34-.41-.77-.61-1.31-.61-.48,0-.89,.16-1.22,.49s-.51,.76-.55,1.3Z"/></g><text transform="translate(114.11 175.21)" style="font-family:ArialMT, Arial; font-size:12px;"><tspan x="0" y="0">EXAMPLE</tspan></text><g><g><path d="M486.91,163.07l1.14,.29c-.24,.93-.67,1.65-1.29,2.14s-1.38,.74-2.27,.74-1.68-.19-2.26-.57-1.02-.92-1.32-1.64-.45-1.48-.45-2.3c0-.89,.17-1.67,.51-2.34s.83-1.17,1.46-1.52,1.33-.52,2.08-.52c.86,0,1.58,.22,2.17,.66s.99,1.05,1.22,1.85l-1.12,.26c-.2-.62-.49-1.08-.87-1.37s-.86-.43-1.43-.43c-.66,0-1.21,.16-1.66,.47s-.75,.74-.93,1.27-.27,1.08-.27,1.65c0,.73,.11,1.37,.32,1.91s.54,.95,.99,1.22,.94,.4,1.46,.4c.64,0,1.18-.18,1.62-.55s.74-.91,.9-1.63Z" style="fill:url(#Unbenannter_Verlauf);"/><path d="M488.92,162.97c0-1.15,.32-2.01,.96-2.56,.54-.46,1.19-.69,1.96-.69,.86,0,1.55,.28,2.1,.84s.81,1.33,.81,2.32c0,.8-.12,1.43-.36,1.89s-.59,.82-1.05,1.07-.96,.38-1.5,.38c-.87,0-1.58-.28-2.11-.84s-.8-1.36-.8-2.41Zm1.08,0c0,.8,.17,1.39,.52,1.79s.79,.59,1.31,.59,.96-.2,1.31-.6,.52-1.01,.52-1.82c0-.77-.18-1.35-.53-1.75s-.78-.59-1.3-.59-.96,.2-1.31,.59-.52,.99-.52,1.79Z" style="fill:url(#Unbenannter_Verlauf);"/><path d="M495.96,166.08v-8.59h1.05v8.59h-1.05Z" style="fill:url(#Unbenannter_Verlauf);"/><path d="M498.63,166.08v-8.59h1.05v8.59h-1.05Z" style="fill:url(#Unbenannter_Verlauf);"/><path d="M505.38,165.31c-.39,.33-.77,.57-1.13,.7s-.75,.21-1.16,.21c-.68,0-1.21-.17-1.58-.5s-.55-.76-.55-1.28c0-.3,.07-.58,.21-.83s.32-.45,.54-.61,.48-.27,.76-.35c.21-.05,.52-.11,.94-.16,.85-.1,1.48-.22,1.88-.36,0-.14,0-.24,0-.28,0-.43-.1-.73-.3-.91-.27-.24-.67-.36-1.2-.36-.5,0-.86,.09-1.1,.26s-.41,.48-.52,.92l-1.03-.14c.09-.44,.25-.8,.46-1.07s.53-.48,.93-.63,.88-.22,1.41-.22,.96,.06,1.29,.19,.58,.28,.73,.47,.27,.43,.33,.72c.04,.18,.05,.5,.05,.97v1.41c0,.98,.02,1.6,.07,1.86s.13,.51,.27,.75h-1.1c-.11-.22-.18-.47-.21-.77Zm-.09-2.36c-.38,.16-.96,.29-1.72,.4-.43,.06-.74,.13-.92,.21s-.32,.19-.42,.34-.15,.32-.15,.5c0,.28,.11,.52,.32,.7s.53,.28,.94,.28,.77-.09,1.08-.27,.55-.42,.7-.73c.11-.24,.17-.59,.17-1.05v-.39Z" style="fill:url(#Unbenannter_Verlauf);"/><path d="M508.97,166.08h-.98v-8.59h1.05v3.06c.45-.56,1.01-.84,1.71-.84,.38,0,.74,.08,1.09,.23s.62,.37,.84,.65,.39,.62,.52,1.01,.19,.82,.19,1.27c0,1.07-.26,1.89-.79,2.47s-1.16,.87-1.9,.87-1.31-.31-1.73-.92v.78Zm-.01-3.16c0,.75,.1,1.29,.3,1.62,.33,.54,.78,.81,1.35,.81,.46,0,.86-.2,1.2-.6s.5-1,.5-1.79-.16-1.41-.48-1.8-.71-.58-1.17-.58-.86,.2-1.2,.6-.5,.98-.5,1.74Z" style="fill:url(#Unbenannter_Verlauf);"/><path d="M514.28,162.97c0-1.15,.32-2.01,.96-2.56,.54-.46,1.19-.69,1.96-.69,.86,0,1.55,.28,2.1,.84s.81,1.33,.81,2.32c0,.8-.12,1.43-.36,1.89s-.59,.82-1.05,1.07-.96,.38-1.5,.38c-.87,0-1.58-.28-2.11-.84s-.8-1.36-.8-2.41Zm1.08,0c0,.8,.17,1.39,.52,1.79s.79,.59,1.31,.59,.96-.2,1.31-.6,.52-1.01,.52-1.82c0-.77-.18-1.35-.53-1.75s-.78-.59-1.3-.59-.96,.2-1.31,.59-.52,.99-.52,1.79Z" style="fill:url(#Unbenannter_Verlauf);"/><path d="M521.33,166.08v-6.22h.95v.94c.24-.44,.46-.73,.67-.87s.43-.21,.68-.21c.36,0,.72,.11,1.08,.34l-.36,.98c-.26-.15-.52-.23-.77-.23-.23,0-.44,.07-.62,.21s-.31,.33-.39,.58c-.12,.38-.18,.79-.18,1.23v3.26h-1.05Z" style="fill:url(#Unbenannter_Verlauf);"/><path d="M529.4,165.31c-.39,.33-.77,.57-1.13,.7s-.75,.21-1.16,.21c-.68,0-1.21-.17-1.58-.5s-.55-.76-.55-1.28c0-.3,.07-.58,.21-.83s.32-.45,.54-.61,.48-.27,.76-.35c.21-.05,.52-.11,.94-.16,.85-.1,1.48-.22,1.88-.36,0-.14,0-.24,0-.28,0-.43-.1-.73-.3-.91-.27-.24-.67-.36-1.2-.36-.5,0-.86,.09-1.1,.26s-.41,.48-.52,.92l-1.03-.14c.09-.44,.25-.8,.46-1.07s.53-.48,.93-.63,.88-.22,1.41-.22,.96,.06,1.29,.19,.58,.28,.73,.47,.27,.43,.33,.72c.04,.18,.05,.5,.05,.97v1.41c0,.98,.02,1.6,.07,1.86s.13,.51,.27,.75h-1.1c-.11-.22-.18-.47-.21-.77Zm-.09-2.36c-.38,.16-.96,.29-1.72,.4-.43,.06-.74,.13-.92,.21s-.32,.19-.42,.34-.15,.32-.15,.5c0,.28,.11,.52,.32,.7s.53,.28,.94,.28,.77-.09,1.08-.27,.55-.42,.7-.73c.11-.24,.17-.59,.17-1.05v-.39Z" style="fill:url(#Unbenannter_Verlauf);"/><path d="M534.31,165.13l.15,.93c-.3,.06-.56,.09-.8,.09-.38,0-.68-.06-.89-.18s-.36-.28-.45-.48-.13-.61-.13-1.25v-3.58h-.77v-.82h.77v-1.54l1.05-.63v2.17h1.06v.82h-1.06v3.64c0,.3,.02,.49,.05,.58s.1,.15,.18,.21,.21,.08,.36,.08c.12,0,.27-.01,.46-.04Z" style="fill:url(#Unbenannter_Verlauf);"/><path d="M535.35,158.7v-1.21h1.05v1.21h-1.05Zm0,7.38v-6.22h1.05v6.22h-1.05Z" style="fill:url(#Unbenannter_Verlauf);"/><path d="M537.62,162.97c0-1.15,.32-2.01,.96-2.56,.54-.46,1.19-.69,1.96-.69,.86,0,1.55,.28,2.1,.84s.81,1.33,.81,2.32c0,.8-.12,1.43-.36,1.89s-.59,.82-1.05,1.07-.96,.38-1.5,.38c-.87,0-1.58-.28-2.11-.84s-.8-1.36-.8-2.41Zm1.08,0c0,.8,.17,1.39,.52,1.79s.79,.59,1.31,.59,.96-.2,1.31-.6,.52-1.01,.52-1.82c0-.77-.18-1.35-.53-1.75s-.78-.59-1.3-.59-.96,.2-1.31,.59-.52,.99-.52,1.79Z" style="fill:url(#Unbenannter_Verlauf);"/><path d="M544.69,166.08v-6.22h.95v.88c.46-.68,1.12-1.03,1.98-1.03,.38,0,.72,.07,1.03,.2s.55,.31,.71,.53,.27,.48,.33,.78c.04,.2,.06,.54,.06,1.03v3.83h-1.05v-3.79c0-.43-.04-.75-.12-.96s-.23-.38-.44-.51-.45-.19-.73-.19c-.45,0-.84,.14-1.16,.43s-.49,.83-.49,1.62v3.4h-1.05Z" style="fill:url(#Unbenannter_Verlauf);"/><path d="M508.63,179.53l.15,.93c-.3,.06-.56,.09-.8,.09-.38,0-.68-.06-.89-.18s-.36-.28-.45-.48-.13-.61-.13-1.25v-3.58h-.77v-.82h.77v-1.54l1.05-.63v2.17h1.06v.82h-1.06v3.64c0,.3,.02,.49,.05,.58s.1,.15,.18,.21,.21,.08,.36,.08c.12,0,.27-.01,.46-.04Z" style="fill:url(#Unbenannter_Verlauf);"/><path d="M509.27,177.37c0-1.15,.32-2.01,.96-2.56,.54-.46,1.19-.69,1.96-.69,.86,0,1.55,.28,2.1,.84s.81,1.33,.81,2.32c0,.8-.12,1.43-.36,1.89s-.59,.82-1.05,1.07-.96,.38-1.5,.38c-.87,0-1.58-.28-2.11-.84s-.8-1.36-.8-2.41Zm1.08,0c0,.8,.17,1.39,.52,1.79s.79,.59,1.31,.59,.96-.2,1.31-.6,.52-1.01,.52-1.82c0-.77-.18-1.35-.53-1.75s-.78-.59-1.3-.59-.96,.2-1.31,.59-.52,.99-.52,1.79Z" style="fill:url(#Unbenannter_Verlauf);"/><path d="M515.95,177.37c0-1.15,.32-2.01,.96-2.56,.54-.46,1.19-.69,1.96-.69,.86,0,1.55,.28,2.1,.84s.81,1.33,.81,2.32c0,.8-.12,1.43-.36,1.89s-.59,.82-1.05,1.07-.96,.38-1.5,.38c-.87,0-1.58-.28-2.11-.84s-.8-1.36-.8-2.41Zm1.08,0c0,.8,.17,1.39,.52,1.79s.79,.59,1.31,.59,.96-.2,1.31-.6,.52-1.01,.52-1.82c0-.77-.18-1.35-.53-1.75s-.78-.59-1.3-.59-.96,.2-1.31,.59-.52,.99-.52,1.79Z" style="fill:url(#Unbenannter_Verlauf);"/><path d="M522.99,180.48v-8.59h1.05v8.59h-1.05Z" style="fill:url(#Unbenannter_Verlauf);"/></g><g><path d="M486.91,163.07l1.14,.29c-.24,.93-.67,1.65-1.29,2.14s-1.38,.74-2.27,.74-1.68-.19-2.26-.57-1.02-.92-1.32-1.64-.45-1.48-.45-2.3c0-.89,.17-1.67,.51-2.34s.83-1.17,1.46-1.52,1.33-.52,2.08-.52c.86,0,1.58,.22,2.17,.66s.99,1.05,1.22,1.85l-1.12,.26c-.2-.62-.49-1.08-.87-1.37s-.86-.43-1.43-.43c-.66,0-1.21,.16-1.66,.47s-.75,.74-.93,1.27-.27,1.08-.27,1.65c0,.73,.11,1.37,.32,1.91s.54,.95,.99,1.22,.94,.4,1.46,.4c.64,0,1.18-.18,1.62-.55s.74-.91,.9-1.63Z"/><path d="M488.92,162.97c0-1.15,.32-2.01,.96-2.56,.54-.46,1.19-.69,1.96-.69,.86,0,1.55,.28,2.1,.84s.81,1.33,.81,2.32c0,.8-.12,1.43-.36,1.89s-.59,.82-1.05,1.07-.96,.38-1.5,.38c-.87,0-1.58-.28-2.11-.84s-.8-1.36-.8-2.41Zm1.08,0c0,.8,.17,1.39,.52,1.79s.79,.59,1.31,.59,.96-.2,1.31-.6,.52-1.01,.52-1.82c0-.77-.18-1.35-.53-1.75s-.78-.59-1.3-.59-.96,.2-1.31,.59-.52,.99-.52,1.79Z"/><path d="M495.96,166.08v-8.59h1.05v8.59h-1.05Z"/><path d="M498.63,166.08v-8.59h1.05v8.59h-1.05Z"/><path d="M505.38,165.31c-.39,.33-.77,.57-1.13,.7s-.75,.21-1.16,.21c-.68,0-1.21-.17-1.58-.5s-.55-.76-.55-1.28c0-.3,.07-.58,.21-.83s.32-.45,.54-.61,.48-.27,.76-.35c.21-.05,.52-.11,.94-.16,.85-.1,1.48-.22,1.88-.36,0-.14,0-.24,0-.28,0-.43-.1-.73-.3-.91-.27-.24-.67-.36-1.2-.36-.5,0-.86,.09-1.1,.26s-.41,.48-.52,.92l-1.03-.14c.09-.44,.25-.8,.46-1.07s.53-.48,.93-.63,.88-.22,1.41-.22,.96,.06,1.29,.19,.58,.28,.73,.47,.27,.43,.33,.72c.04,.18,.05,.5,.05,.97v1.41c0,.98,.02,1.6,.07,1.86s.13,.51,.27,.75h-1.1c-.11-.22-.18-.47-.21-.77Zm-.09-2.36c-.38,.16-.96,.29-1.72,.4-.43,.06-.74,.13-.92,.21s-.32,.19-.42,.34-.15,.32-.15,.5c0,.28,.11,.52,.32,.7s.53,.28,.94,.28,.77-.09,1.08-.27,.55-.42,.7-.73c.11-.24,.17-.59,.17-1.05v-.39Z"/><path d="M508.97,166.08h-.98v-8.59h1.05v3.06c.45-.56,1.01-.84,1.71-.84,.38,0,.74,.08,1.09,.23s.62,.37,.84,.65,.39,.62,.52,1.01,.19,.82,.19,1.27c0,1.07-.26,1.89-.79,2.47s-1.16,.87-1.9,.87-1.31-.31-1.73-.92v.78Zm-.01-3.16c0,.75,.1,1.29,.3,1.62,.33,.54,.78,.81,1.35,.81,.46,0,.86-.2,1.2-.6s.5-1,.5-1.79-.16-1.41-.48-1.8-.71-.58-1.17-.58-.86,.2-1.2,.6-.5,.98-.5,1.74Z"/><path d="M514.28,162.97c0-1.15,.32-2.01,.96-2.56,.54-.46,1.19-.69,1.96-.69,.86,0,1.55,.28,2.1,.84s.81,1.33,.81,2.32c0,.8-.12,1.43-.36,1.89s-.59,.82-1.05,1.07-.96,.38-1.5,.38c-.87,0-1.58-.28-2.11-.84s-.8-1.36-.8-2.41Zm1.08,0c0,.8,.17,1.39,.52,1.79s.79,.59,1.31,.59,.96-.2,1.31-.6,.52-1.01,.52-1.82c0-.77-.18-1.35-.53-1.75s-.78-.59-1.3-.59-.96,.2-1.31,.59-.52,.99-.52,1.79Z"/><path d="M521.33,166.08v-6.22h.95v.94c.24-.44,.46-.73,.67-.87s.43-.21,.68-.21c.36,0,.72,.11,1.08,.34l-.36,.98c-.26-.15-.52-.23-.77-.23-.23,0-.44,.07-.62,.21s-.31,.33-.39,.58c-.12,.38-.18,.79-.18,1.23v3.26h-1.05Z"/><path d="M529.4,165.31c-.39,.33-.77,.57-1.13,.7s-.75,.21-1.16,.21c-.68,0-1.21-.17-1.58-.5s-.55-.76-.55-1.28c0-.3,.07-.58,.21-.83s.32-.45,.54-.61,.48-.27,.76-.35c.21-.05,.52-.11,.94-.16,.85-.1,1.48-.22,1.88-.36,0-.14,0-.24,0-.28,0-.43-.1-.73-.3-.91-.27-.24-.67-.36-1.2-.36-.5,0-.86,.09-1.1,.26s-.41,.48-.52,.92l-1.03-.14c.09-.44,.25-.8,.46-1.07s.53-.48,.93-.63,.88-.22,1.41-.22,.96,.06,1.29,.19,.58,.28,.73,.47,.27,.43,.33,.72c.04,.18,.05,.5,.05,.97v1.41c0,.98,.02,1.6,.07,1.86s.13,.51,.27,.75h-1.1c-.11-.22-.18-.47-.21-.77Zm-.09-2.36c-.38,.16-.96,.29-1.72,.4-.43,.06-.74,.13-.92,.21s-.32,.19-.42,.34-.15,.32-.15,.5c0,.28,.11,.52,.32,.7s.53,.28,.94,.28,.77-.09,1.08-.27,.55-.42,.7-.73c.11-.24,.17-.59,.17-1.05v-.39Z"/><path d="M534.31,165.13l.15,.93c-.3,.06-.56,.09-.8,.09-.38,0-.68-.06-.89-.18s-.36-.28-.45-.48-.13-.61-.13-1.25v-3.58h-.77v-.82h.77v-1.54l1.05-.63v2.17h1.06v.82h-1.06v3.64c0,.3,.02,.49,.05,.58s.1,.15,.18,.21,.21,.08,.36,.08c.12,0,.27-.01,.46-.04Z"/><path d="M535.35,158.7v-1.21h1.05v1.21h-1.05Zm0,7.38v-6.22h1.05v6.22h-1.05Z"/><path d="M537.62,162.97c0-1.15,.32-2.01,.96-2.56,.54-.46,1.19-.69,1.96-.69,.86,0,1.55,.28,2.1,.84s.81,1.33,.81,2.32c0,.8-.12,1.43-.36,1.89s-.59,.82-1.05,1.07-.96,.38-1.5,.38c-.87,0-1.58-.28-2.11-.84s-.8-1.36-.8-2.41Zm1.08,0c0,.8,.17,1.39,.52,1.79s.79,.59,1.31,.59,.96-.2,1.31-.6,.52-1.01,.52-1.82c0-.77-.18-1.35-.53-1.75s-.78-.59-1.3-.59-.96,.2-1.31,.59-.52,.99-.52,1.79Z"/><path d="M544.69,166.08v-6.22h.95v.88c.46-.68,1.12-1.03,1.98-1.03,.38,0,.72,.07,1.03,.2s.55,.31,.71,.53,.27,.48,.33,.78c.04,.2,.06,.54,.06,1.03v3.83h-1.05v-3.79c0-.43-.04-.75-.12-.96s-.23-.38-.44-.51-.45-.19-.73-.19c-.45,0-.84,.14-1.16,.43s-.49,.83-.49,1.62v3.4h-1.05Z"/><path d="M508.63,179.53l.15,.93c-.3,.06-.56,.09-.8,.09-.38,0-.68-.06-.89-.18s-.36-.28-.45-.48-.13-.61-.13-1.25v-3.58h-.77v-.82h.77v-1.54l1.05-.63v2.17h1.06v.82h-1.06v3.64c0,.3,.02,.49,.05,.58s.1,.15,.18,.21,.21,.08,.36,.08c.12,0,.27-.01,.46-.04Z"/><path d="M509.27,177.37c0-1.15,.32-2.01,.96-2.56,.54-.46,1.19-.69,1.96-.69,.86,0,1.55,.28,2.1,.84s.81,1.33,.81,2.32c0,.8-.12,1.43-.36,1.89s-.59,.82-1.05,1.07-.96,.38-1.5,.38c-.87,0-1.58-.28-2.11-.84s-.8-1.36-.8-2.41Zm1.08,0c0,.8,.17,1.39,.52,1.79s.79,.59,1.31,.59,.96-.2,1.31-.6,.52-1.01,.52-1.82c0-.77-.18-1.35-.53-1.75s-.78-.59-1.3-.59-.96,.2-1.31,.59-.52,.99-.52,1.79Z"/><path d="M515.95,177.37c0-1.15,.32-2.01,.96-2.56,.54-.46,1.19-.69,1.96-.69,.86,0,1.55,.28,2.1,.84s.81,1.33,.81,2.32c0,.8-.12,1.43-.36,1.89s-.59,.82-1.05,1.07-.96,.38-1.5,.38c-.87,0-1.58-.28-2.11-.84s-.8-1.36-.8-2.41Zm1.08,0c0,.8,.17,1.39,.52,1.79s.79,.59,1.31,.59,.96-.2,1.31-.6,.52-1.01,.52-1.82c0-.77-.18-1.35-.53-1.75s-.78-.59-1.3-.59-.96,.2-1.31,.59-.52,.99-.52,1.79Z"/><path d="M522.99,180.48v-8.59h1.05v8.59h-1.05Z"/></g></g><g><g><path d="M768.78,167.31v-1.05c-.53-.07-.96-.18-1.29-.35s-.62-.44-.86-.82-.38-.84-.42-1.39l1.06-.2c.08,.57,.23,.98,.43,1.25,.3,.38,.65,.58,1.07,.63v-3.36c-.43-.08-.88-.25-1.33-.5-.34-.19-.59-.45-.78-.78s-.27-.71-.27-1.13c0-.75,.27-1.36,.8-1.82,.36-.31,.88-.5,1.58-.57v-.5h.62v.5c.61,.06,1.1,.24,1.46,.54,.46,.38,.74,.91,.83,1.58l-1.09,.16c-.06-.41-.19-.73-.39-.95s-.47-.37-.81-.44v3.04c.53,.13,.88,.24,1.05,.31,.33,.14,.6,.32,.8,.53s.37,.45,.48,.74,.17,.59,.17,.93c0,.73-.23,1.34-.7,1.83s-1.07,.75-1.8,.79v1.07h-.62Zm0-9.23c-.41,.06-.73,.23-.97,.49s-.36,.58-.36,.94,.1,.66,.3,.9,.54,.44,1.02,.58v-2.92Zm.62,7.29c.41-.05,.75-.23,1.02-.53s.4-.68,.4-1.13c0-.38-.09-.69-.28-.92s-.57-.44-1.13-.62v3.21Z" style="fill:url(#Unbenannter_Verlauf-2);"/><path d="M773.12,164.09l1.01-.09c.09,.48,.25,.82,.49,1.04s.55,.32,.93,.32c.32,0,.61-.07,.85-.22s.44-.35,.6-.59,.29-.58,.39-1,.16-.85,.16-1.29c0-.05,0-.12,0-.21-.21,.34-.5,.61-.86,.82s-.76,.31-1.19,.31c-.71,0-1.31-.26-1.8-.77s-.74-1.2-.74-2.04,.26-1.57,.77-2.1,1.16-.8,1.93-.8c.56,0,1.07,.15,1.53,.45s.81,.73,1.05,1.29,.36,1.36,.36,2.42-.12,1.97-.36,2.62-.59,1.15-1.06,1.49-1.02,.51-1.66,.51c-.67,0-1.22-.19-1.65-.56s-.68-.9-.77-1.57Zm4.32-3.79c0-.61-.16-1.09-.48-1.44s-.71-.53-1.16-.53-.88,.19-1.22,.57-.52,.88-.52,1.49c0,.55,.17,.99,.5,1.33s.74,.51,1.22,.51,.89-.17,1.21-.51,.47-.82,.47-1.42Z" style="fill:url(#Unbenannter_Verlauf-3);"/><path d="M779.63,161.84c0-1.02,.11-1.83,.31-2.45s.52-1.1,.93-1.43,.93-.5,1.55-.5c.46,0,.87,.09,1.21,.28s.63,.45,.86,.8,.4,.78,.53,1.28,.19,1.18,.19,2.03c0,1.01-.1,1.82-.31,2.44s-.52,1.1-.93,1.44-.93,.51-1.56,.51c-.83,0-1.48-.3-1.95-.89-.57-.71-.85-1.88-.85-3.49Zm1.08,0c0,1.41,.17,2.35,.5,2.82s.74,.7,1.22,.7,.89-.23,1.22-.7,.49-1.41,.49-2.81-.16-2.35-.49-2.82-.74-.7-1.23-.7-.87,.21-1.16,.62c-.36,.52-.54,1.49-.54,2.9Z" style="fill:url(#Unbenannter_Verlauf-4);"/><path d="M789.93,168.46v-8.61h.96v.81c.23-.32,.48-.55,.77-.71s.63-.24,1.04-.24c.53,0,1,.14,1.41,.41s.71,.66,.92,1.16,.31,1.04,.31,1.64c0,.64-.11,1.21-.34,1.72s-.56,.9-1,1.17-.89,.41-1.38,.41c-.35,0-.67-.07-.95-.22s-.51-.34-.69-.56v3.03h-1.05Zm.96-5.46c0,.8,.16,1.39,.49,1.78s.72,.57,1.18,.57,.87-.2,1.21-.59,.5-1.01,.5-1.84-.16-1.39-.49-1.78-.72-.59-1.17-.59-.85,.21-1.19,.63-.52,1.03-.52,1.83Z" style="fill:url(#Unbenannter_Verlauf-5);"/><path d="M800.87,164.07l1.09,.13c-.17,.64-.49,1.13-.96,1.48s-1.06,.53-1.78,.53c-.91,0-1.63-.28-2.16-.84s-.8-1.35-.8-2.36,.27-1.86,.81-2.44,1.24-.87,2.1-.87,1.51,.28,2.04,.85,.79,1.36,.79,2.39c0,.06,0,.16,0,.28h-4.64c.04,.68,.23,1.21,.58,1.57s.78,.54,1.3,.54c.39,0,.72-.1,.99-.3s.49-.53,.65-.97Zm-3.46-1.71h3.47c-.05-.52-.18-.92-.4-1.18-.34-.41-.77-.61-1.31-.61-.48,0-.89,.16-1.22,.49s-.51,.76-.55,1.3Z" style="fill:url(#Unbenannter_Verlauf-6);"/><path d="M803.27,166.08v-6.22h.95v.94c.24-.44,.47-.73,.67-.87s.43-.21,.68-.21c.36,0,.72,.11,1.08,.34l-.36,.98c-.26-.15-.52-.23-.77-.23-.23,0-.44,.07-.62,.21s-.31,.33-.39,.58c-.12,.38-.18,.79-.18,1.23v3.26h-1.05Z" style="fill:url(#Unbenannter_Verlauf-7);"/><path d="M779.33,180.48v-.91c-.48,.7-1.14,1.05-1.97,1.05-.37,0-.71-.07-1.03-.21s-.55-.32-.71-.53-.26-.47-.33-.78c-.04-.21-.06-.54-.06-.98v-3.86h1.05v3.45c0,.55,.02,.92,.06,1.11,.07,.28,.21,.5,.42,.65s.48,.24,.8,.24,.61-.08,.89-.24,.47-.38,.59-.66,.17-.68,.17-1.22v-3.33h1.05v6.22h-.94Z" style="fill:url(#Unbenannter_Verlauf-8);"/><path d="M781.51,178.62l1.04-.16c.06,.42,.22,.74,.49,.96s.64,.33,1.12,.33,.84-.1,1.08-.3,.35-.43,.35-.69c0-.24-.1-.43-.31-.56-.14-.09-.5-.21-1.08-.36-.77-.2-1.31-.36-1.61-.51s-.53-.34-.68-.59-.23-.53-.23-.83c0-.28,.06-.53,.19-.77s.3-.43,.52-.59c.16-.12,.39-.22,.67-.31s.59-.13,.91-.13c.49,0,.92,.07,1.29,.21s.64,.33,.82,.57,.3,.56,.36,.96l-1.03,.14c-.05-.32-.18-.57-.41-.75s-.54-.27-.95-.27c-.48,0-.83,.08-1.04,.24s-.31,.35-.31,.56c0,.14,.04,.26,.13,.37,.09,.11,.22,.21,.4,.28,.11,.04,.42,.13,.93,.27,.75,.2,1.27,.36,1.56,.49s.53,.31,.69,.55,.25,.54,.25,.9-.1,.68-.31,.99-.5,.55-.89,.72-.82,.25-1.31,.25c-.81,0-1.42-.17-1.85-.5s-.7-.83-.81-1.49Z" style="fill:url(#Unbenannter_Verlauf-9);"/><path d="M792.19,178.47l1.09,.13c-.17,.64-.49,1.13-.96,1.48s-1.06,.53-1.78,.53c-.91,0-1.63-.28-2.16-.84s-.8-1.35-.8-2.36,.27-1.86,.81-2.44,1.24-.87,2.1-.87,1.51,.28,2.04,.85,.79,1.36,.79,2.39c0,.06,0,.16,0,.28h-4.64c.04,.68,.23,1.21,.58,1.57s.78,.54,1.3,.54c.39,0,.72-.1,.99-.3s.49-.53,.65-.97Zm-3.46-1.71h3.47c-.05-.52-.18-.92-.4-1.18-.34-.41-.77-.61-1.31-.61-.48,0-.89,.16-1.22,.49s-.51,.76-.55,1.3Z" style="fill:url(#Unbenannter_Verlauf-10);"/><path d="M794.59,180.48v-6.22h.95v.94c.24-.44,.47-.73,.67-.87s.43-.21,.68-.21c.36,0,.72,.11,1.08,.34l-.36,.98c-.26-.15-.52-.23-.77-.23-.23,0-.44,.07-.62,.21s-.31,.33-.39,.58c-.12,.38-.18,.79-.18,1.23v3.26h-1.05Z" style="fill:url(#Unbenannter_Verlauf-11);"/></g><g><path d="M768.78,167.31v-1.05c-.53-.07-.96-.18-1.29-.35s-.62-.44-.86-.82-.38-.84-.42-1.39l1.06-.2c.08,.57,.23,.98,.43,1.25,.3,.38,.65,.58,1.07,.63v-3.36c-.43-.08-.88-.25-1.33-.5-.34-.19-.59-.45-.78-.78s-.27-.71-.27-1.13c0-.75,.27-1.36,.8-1.82,.36-.31,.88-.5,1.58-.57v-.5h.62v.5c.61,.06,1.1,.24,1.46,.54,.46,.38,.74,.91,.83,1.58l-1.09,.16c-.06-.41-.19-.73-.39-.95s-.47-.37-.81-.44v3.04c.53,.13,.88,.24,1.05,.31,.33,.14,.6,.32,.8,.53s.37,.45,.48,.74,.17,.59,.17,.93c0,.73-.23,1.34-.7,1.83s-1.07,.75-1.8,.79v1.07h-.62Zm0-9.23c-.41,.06-.73,.23-.97,.49s-.36,.58-.36,.94,.1,.66,.3,.9,.54,.44,1.02,.58v-2.92Zm.62,7.29c.41-.05,.75-.23,1.02-.53s.4-.68,.4-1.13c0-.38-.09-.69-.28-.92s-.57-.44-1.13-.62v3.21Z"/><path d="M773.12,164.09l1.01-.09c.09,.48,.25,.82,.49,1.04s.55,.32,.93,.32c.32,0,.61-.07,.85-.22s.44-.35,.6-.59,.29-.58,.39-1,.16-.85,.16-1.29c0-.05,0-.12,0-.21-.21,.34-.5,.61-.86,.82s-.76,.31-1.19,.31c-.71,0-1.31-.26-1.8-.77s-.74-1.2-.74-2.04,.26-1.57,.77-2.1,1.16-.8,1.93-.8c.56,0,1.07,.15,1.53,.45s.81,.73,1.05,1.29,.36,1.36,.36,2.42-.12,1.97-.36,2.62-.59,1.15-1.06,1.49-1.02,.51-1.66,.51c-.67,0-1.22-.19-1.65-.56s-.68-.9-.77-1.57Zm4.32-3.79c0-.61-.16-1.09-.48-1.44s-.71-.53-1.16-.53-.88,.19-1.22,.57-.52,.88-.52,1.49c0,.55,.17,.99,.5,1.33s.74,.51,1.22,.51,.89-.17,1.21-.51,.47-.82,.47-1.42Z"/><path d="M779.63,161.84c0-1.02,.11-1.83,.31-2.45s.52-1.1,.93-1.43,.93-.5,1.55-.5c.46,0,.87,.09,1.21,.28s.63,.45,.86,.8,.4,.78,.53,1.28,.19,1.18,.19,2.03c0,1.01-.1,1.82-.31,2.44s-.52,1.1-.93,1.44-.93,.51-1.56,.51c-.83,0-1.48-.3-1.95-.89-.57-.71-.85-1.88-.85-3.49Zm1.08,0c0,1.41,.17,2.35,.5,2.82s.74,.7,1.22,.7,.89-.23,1.22-.7,.49-1.41,.49-2.81-.16-2.35-.49-2.82-.74-.7-1.23-.7-.87,.21-1.16,.62c-.36,.52-.54,1.49-.54,2.9Z"/><path d="M789.93,168.46v-8.61h.96v.81c.23-.32,.48-.55,.77-.71s.63-.24,1.04-.24c.53,0,1,.14,1.41,.41s.71,.66,.92,1.16,.31,1.04,.31,1.64c0,.64-.11,1.21-.34,1.72s-.56,.9-1,1.17-.89,.41-1.38,.41c-.35,0-.67-.07-.95-.22s-.51-.34-.69-.56v3.03h-1.05Zm.96-5.46c0,.8,.16,1.39,.49,1.78s.72,.57,1.18,.57,.87-.2,1.21-.59,.5-1.01,.5-1.84-.16-1.39-.49-1.78-.72-.59-1.17-.59-.85,.21-1.19,.63-.52,1.03-.52,1.83Z"/><path d="M800.87,164.07l1.09,.13c-.17,.64-.49,1.13-.96,1.48s-1.06,.53-1.78,.53c-.91,0-1.63-.28-2.16-.84s-.8-1.35-.8-2.36,.27-1.86,.81-2.44,1.24-.87,2.1-.87,1.51,.28,2.04,.85,.79,1.36,.79,2.39c0,.06,0,.16,0,.28h-4.64c.04,.68,.23,1.21,.58,1.57s.78,.54,1.3,.54c.39,0,.72-.1,.99-.3s.49-.53,.65-.97Zm-3.46-1.71h3.47c-.05-.52-.18-.92-.4-1.18-.34-.41-.77-.61-1.31-.61-.48,0-.89,.16-1.22,.49s-.51,.76-.55,1.3Z"/><path d="M803.27,166.08v-6.22h.95v.94c.24-.44,.47-.73,.67-.87s.43-.21,.68-.21c.36,0,.72,.11,1.08,.34l-.36,.98c-.26-.15-.52-.23-.77-.23-.23,0-.44,.07-.62,.21s-.31,.33-.39,.58c-.12,.38-.18,.79-.18,1.23v3.26h-1.05Z"/><path d="M779.33,180.48v-.91c-.48,.7-1.14,1.05-1.97,1.05-.37,0-.71-.07-1.03-.21s-.55-.32-.71-.53-.26-.47-.33-.78c-.04-.21-.06-.54-.06-.98v-3.86h1.05v3.45c0,.55,.02,.92,.06,1.11,.07,.28,.21,.5,.42,.65s.48,.24,.8,.24,.61-.08,.89-.24,.47-.38,.59-.66,.17-.68,.17-1.22v-3.33h1.05v6.22h-.94Z"/><path d="M781.51,178.62l1.04-.16c.06,.42,.22,.74,.49,.96s.64,.33,1.12,.33,.84-.1,1.08-.3,.35-.43,.35-.69c0-.24-.1-.43-.31-.56-.14-.09-.5-.21-1.08-.36-.77-.2-1.31-.36-1.61-.51s-.53-.34-.68-.59-.23-.53-.23-.83c0-.28,.06-.53,.19-.77s.3-.43,.52-.59c.16-.12,.39-.22,.67-.31s.59-.13,.91-.13c.49,0,.92,.07,1.29,.21s.64,.33,.82,.57,.3,.56,.36,.96l-1.03,.14c-.05-.32-.18-.57-.41-.75s-.54-.27-.95-.27c-.48,0-.83,.08-1.04,.24s-.31,.35-.31,.56c0,.14,.04,.26,.13,.37,.09,.11,.22,.21,.4,.28,.11,.04,.42,.13,.93,.27,.75,.2,1.27,.36,1.56,.49s.53,.31,.69,.55,.25,.54,.25,.9-.1,.68-.31,.99-.5,.55-.89,.72-.82,.25-1.31,.25c-.81,0-1.42-.17-1.85-.5s-.7-.83-.81-1.49Z"/><path d="M792.19,178.47l1.09,.13c-.17,.64-.49,1.13-.96,1.48s-1.06,.53-1.78,.53c-.91,0-1.63-.28-2.16-.84s-.8-1.35-.8-2.36,.27-1.86,.81-2.44,1.24-.87,2.1-.87,1.51,.28,2.04,.85,.79,1.36,.79,2.39c0,.06,0,.16,0,.28h-4.64c.04,.68,.23,1.21,.58,1.57s.78,.54,1.3,.54c.39,0,.72-.1,.99-.3s.49-.53,.65-.97Zm-3.46-1.71h3.47c-.05-.52-.18-.92-.4-1.18-.34-.41-.77-.61-1.31-.61-.48,0-.89,.16-1.22,.49s-.51,.76-.55,1.3Z"/><path d="M794.59,180.48v-6.22h.95v.94c.24-.44,.47-.73,.67-.87s.43-.21,.68-.21c.36,0,.72,.11,1.08,.34l-.36,.98c-.26-.15-.52-.23-.77-.23-.23,0-.44,.07-.62,.21s-.31,.33-.39,.58c-.12,.38-.18,.79-.18,1.23v3.26h-1.05Z"/></g></g><text transform="translate(741.15 239.54)" style="font-family:ArialMT, Arial; font-size:12px;"><tspan x="0" y="0">Actionable by business</tspan></text><path d="M234.64,69.56c-.8,0-1.5-.3-2.1-.9-.6-.6-.9-1.3-.9-2.1v-26c0-.8,.3-1.5,.9-2.1,.6-.6,1.3-.9,2.1-.9h34c.8,0,1.5,.3,2.1,.9,.6,.6,.9,1.3,.9,2.1v26c0,.8-.3,1.5-.9,2.1-.6,.6-1.3,.9-2.1,.9h-34Zm0-3h34v-21.8h-34v21.8Zm8-3.6l-2.1-2.1,5.15-5.2-5.2-5.2,2.15-2.1,7.3,7.3-7.3,7.3Zm9.5,.2v-3h11v3h-11Z"/><path d="M533.06,63.21l-1.15-2.5-2.5-1.15,2.5-1.15,1.15-2.5,1.15,2.5,2.5,1.15-2.5,1.15-1.15,2.5Zm-10-1.8l-2.45-5.4-5.4-2.45,5.4-2.45,2.45-5.4,2.45,5.4,5.4,2.45-5.4,2.45-2.45,5.4Zm10-10.2l-1.15-2.5-2.5-1.15,2.5-1.15,1.15-2.5,1.15,2.5,2.5,1.15-2.5,1.15-1.15,2.5Zm-29,24.35c-.83,0-1.54-.29-2.12-.88s-.88-1.29-.88-2.12V34.56c0-.83,.29-1.54,.88-2.12s1.29-.88,2.12-.88h22c.83,0,1.54,.29,2.12,.88s.88,1.29,.88,2.12v7.3h-3v-2.8h-22v29h22v-2.8h3v7.3c0,.83-.29,1.54-.88,2.12s-1.29,.88-2.12,.88h-22Zm0-4.5v1.5h22v-1.5h-22Zm0-35h22v-1.5h-22v1.5Zm0,0v0Zm0,35v0Z"/><path d="M790.04,72.69c-.6,.6-1.33,.9-2.17,.9s-1.57-.3-2.17-.9l-18.75-18.75c-.33-.33-.56-.68-.68-1.05-.12-.37-.17-.75-.17-1.15v-15.2c0-.87,.28-1.58,.85-2.15s1.28-.85,2.15-.85h15.2c.4,0,.8,.06,1.2,.18s.77,.34,1.1,.68l18.65,18.65c.63,.63,.95,1.38,.95,2.23s-.32,1.59-.95,2.23l-15.2,15.2Zm-2.05-2.05l15.2-15.2-18.9-18.9h-15.2v15.2l18.9,18.9Zm-13.65-26.3c.7,0,1.31-.26,1.82-.77s.77-1.12,.77-1.82-.26-1.31-.77-1.82c-.52-.52-1.12-.78-1.82-.78s-1.31,.26-1.82,.77-.77,1.12-.77,1.82,.26,1.31,.77,1.82c.52,.52,1.12,.77,1.82,.78Z"/></svg>