<?xml version="1.0" encoding="UTF-8"?><svg id="Ebene_1" xmlns="http://www.w3.org/2000/svg" viewBox="0 0 988 525"><g><line x1="211.31" y1="156.77" x2="213.31" y2="156.77" style="fill:none; stroke:#000; stroke-miterlimit:10; stroke-width:.5px;"/><line x1="217.31" y1="156.77" x2="879.31" y2="156.77" style="fill:none; stroke:#000; stroke-dasharray:0 0 4 4; stroke-miterlimit:10; stroke-width:.5px;"/><line x1="881.31" y1="156.77" x2="883.31" y2="156.77" style="fill:none; stroke:#000; stroke-miterlimit:10; stroke-width:.5px;"/></g><g><line x1="104.69" y1="368.79" x2="106.69" y2="368.79" style="fill:none; stroke:#000; stroke-miterlimit:10; stroke-width:.5px;"/><line x1="110.7" y1="368.79" x2="879.3" y2="368.79" style="fill:none; stroke:#000; stroke-dasharray:0 0 4.01 4.01; stroke-miterlimit:10; stroke-width:.5px;"/><line x1="881.31" y1="368.79" x2="883.31" y2="368.79" style="fill:none; stroke:#000; stroke-miterlimit:10; stroke-width:.5px;"/></g><polygon points="367.88 446.2 459.87 436.47 551.86 446.2 551.86 455.19 367.88 455.19 367.88 446.2" style="fill:#6f6f6e; fill-rule:evenodd; stroke:#6f6f6e; stroke-miterlimit:10;"/><polygon points="367.88 82.97 459.87 73.25 551.86 82.97 551.86 91.97 367.88 91.97 367.88 82.97" style="fill:#0333ff; fill-rule:evenodd; stroke:#0333ff; stroke-miterlimit:10;"/><polygon points="367.88 359.8 459.87 350.07 551.86 359.8 551.86 390.39 367.88 390.39 367.88 359.8" style="fill:#6f6f6e; fill-rule:evenodd; stroke:#6f6f6e; stroke-miterlimit:10;"/><polygon points="367.88 147.77 459.87 138.05 551.86 147.77 551.86 178.37 367.88 178.37 367.88 147.77" style="fill-rule:evenodd; stroke:#000; stroke-miterlimit:10;"/><polygon points="737.94 147.23 776.73 138.05 815.52 147.23 815.52 303.99 737.94 303.99 737.94 147.23" style="fill-rule:evenodd; stroke:#000; stroke-miterlimit:10;"/><polygon points="445.36 292.16 406.57 301.34 367.77 292.16 367.77 282.62 445.36 282.62 445.36 292.16" style="fill-rule:evenodd; stroke:#000; stroke-miterlimit:10;"/><polygon points="474.27 233.63 513.06 224.45 551.86 233.63 551.86 243.17 474.27 243.17 474.27 233.63" style="fill-rule:evenodd; stroke:#000; stroke-miterlimit:10;"/><polygon points="474.27 294.45 513.06 285.27 551.86 294.45 551.86 303.99 474.27 303.99 474.27 294.45" style="fill-rule:evenodd; stroke:#000; stroke-miterlimit:10;"/><polygon points="104.69 82.43 143.48 73.25 182.28 82.43 182.28 303.99 104.69 303.99 104.69 82.43" style="fill-rule:evenodd; stroke:#000; stroke-miterlimit:10;"/><polygon points="239.4 234.42 278.2 225.24 316.99 234.42 316.99 303.99 239.4 303.99 239.4 234.42" style="fill-rule:evenodd; stroke:#000; stroke-miterlimit:10;"/><polygon points="239.4 82.25 278.2 73.06 316.99 82.25 316.99 177.15 239.4 177.15 239.4 82.25" style="fill-rule:evenodd; stroke:#000; stroke-miterlimit:10;"/><polygon points="631.31 146.96 670.11 137.77 708.9 146.96 708.9 243.17 631.31 243.17 631.31 146.96" style="fill-rule:evenodd; stroke:#000; stroke-miterlimit:10;"/><rect x="104.69" y="26.61" width="710.36" height="43.2" style="fill:#fff; stroke:#0333ff; stroke-miterlimit:10;"/><text transform="translate(268.84 128.18)" style="fill:#fff; font-family:ArialMT, Arial; font-size:10px; letter-spacing:-.02em;"><tspan x="0" y="0">PxQ</tspan></text><text transform="translate(450.51 164.66)" style="fill:#fff; font-family:ArialMT, Arial; font-size:10px; letter-spacing:-.02em;"><tspan x="0" y="0">PxQ</tspan></text><text transform="translate(450.51 85.64)" style="fill:#fff; font-family:ArialMT, Arial; font-size:10px; letter-spacing:-.02em;"><tspan x="0" y="0">PxQ</tspan></text><rect x="345.79" y="91.97" width="469.26" height="43.2" style="fill:#fff; stroke:#0333ff; stroke-miterlimit:10;"/><text transform="translate(413.34 117.73)" style="fill:#0333ff; font-family:Arial-BoldMT, Arial; font-size:14px; font-weight:700;"><tspan x="0" y="0">Workplace services, shared services, products </tspan></text><text transform="translate(257.58 54.68)" style="fill:#0333ff; font-family:Arial-BoldMT, Arial; font-size:14px; font-weight:700;"><tspan x="0" y="0">Business units, business architecture, customers &amp; partners</tspan></text><rect x="212.02" y="178.37" width="390.5" height="43.2" style="fill:#fff; stroke:#000; stroke-miterlimit:10;"/><text transform="translate(661.3 165.89)" style="fill:#fff; font-family:ArialMT, Arial; font-size:10px; letter-spacing:-.02em;"><tspan x="0" y="0">Non</tspan><tspan x="-18.47" y="12">capitalizable </tspan><tspan x="-5.38" y="24">project</tspan><tspan x="-2.27" y="36">costs</tspan><tspan x="-6.32" y="48">(OpEx)</tspan></text><text transform="translate(764.57 224.09)" style="fill:#fff; font-family:ArialMT, Arial; font-size:10px; letter-spacing:-.02em;"><tspan x="0" y="0">OpEx</tspan></text><text transform="translate(500.91 238.1)" style="fill:#fff; font-family:ArialMT, Arial; font-size:10px; letter-spacing:-.02em;"><tspan x="0" y="0">OpEx</tspan></text><text transform="translate(393.3 294.63)" style="fill:#fff; font-family:ArialMT, Arial; font-size:9.6px; letter-spacing:-.02em;"><tspan x="0" y="0">CaPex</tspan></text><rect x="345.79" y="243.17" width="363.11" height="39.23" style="fill:#fff; stroke:#000; stroke-miterlimit:10;"/><rect x="104.69" y="303.99" width="710.84" height="43.2" style="fill:#fff; stroke:#000; stroke-miterlimit:10;"/><text transform="translate(429.14 329.75)" style="font-family:Arial-BoldMT, Arial; font-size:14px; font-weight:700;"><tspan x="0" y="0">IT towers</tspan></text><text transform="translate(499.72 266.94)" style="font-family:Arial-BoldMT, Arial; font-size:14px; font-weight:700;"><tspan x="0" y="0">Projects</tspan></text><text transform="translate(269.15 204.13)" style="font-size:14px;"><tspan x="0" y="0" style="font-family:Arial-BoldMT, Arial; font-weight:700;">Services </tspan><tspan x="61.5" y="0" style="font-family:ArialMT, Arial;">(delivery, platform &amp; infrastructure)</tspan></text><rect x="104.69" y="390.39" width="710.36" height="43.2" style="fill:#fff; stroke:#6f6f6e; stroke-miterlimit:10;"/><text transform="translate(423.66 416.15)" style="fill:#6f6f6e; font-family:Arial-BoldMT, Arial; font-size:14px; font-weight:700;"><tspan x="0" y="0">C</tspan><tspan x="10.11" y="0" style="letter-spacing:0em;">o</tspan><tspan x="18.72" y="0">st</tspan><tspan x="31.17" y="0" style="letter-spacing:0em;"> </tspan><tspan x="35.08" y="0">po</tspan><tspan x="52.19" y="0" style="letter-spacing:0em;">o</tspan><tspan x="60.81" y="0" style="letter-spacing:0em;">l</tspan><tspan x="64.64" y="0">s</tspan></text><rect x="104.69" y="455.19" width="710.36" height="43.2" style="fill:#fff; stroke:#6f6f6e; stroke-miterlimit:10;"/><text transform="translate(410.74 480.95)" style="fill:#6f6f6e; font-family:Arial-BoldMT, Arial; font-size:14px; font-weight:700;"><tspan x="0" y="0">General ledger</tspan></text><text transform="translate(132.53 177.87)" style="fill:#fff; font-family:ArialMT, Arial; font-size:10px;"><tspan x="0" y="0">P</tspan><tspan x="6.67" y="0" style="letter-spacing:0em;">a</tspan><tspan x="12.14" y="0" style="letter-spacing:-.02em;">s</tspan><tspan x="16.91" y="0">s</tspan><tspan x="-6" y="12">through</tspan><tspan x="-12.11" y="24">purchases</tspan><tspan x="-6.55" y="36">or costs</tspan><tspan x="-6" y="48">that are</tspan><tspan x="-14.62" y="60">not solution</tspan><tspan x="-2.67" y="72">based</tspan></text><text transform="translate(862.02 285.68) rotate(-90)" style="font-family:ArialMT, Arial; font-size:14px; letter-spacing:0em;"><tspan x="0" y="0">IT view</tspan></text><text transform="translate(862.02 128.18) rotate(-90)" style="font-family:ArialMT, Arial; font-size:14px;"><tspan x="0" y="0">Bu</tspan><tspan x="17.12" y="0" style="letter-spacing:0em;">s</tspan><tspan x="24.15" y="0" style="letter-spacing:0em;">i</tspan><tspan x="27.3" y="0" style="letter-spacing:0em;">n</tspan><tspan x="35.12" y="0" style="letter-spacing:0em;">e</tspan><tspan x="42.86" y="0">ss</tspan><tspan x="56.86" y="0" style="letter-spacing:0em;"> </tspan><tspan x="60.7" y="0">v</tspan><tspan x="67.7" y="0" style="letter-spacing:0em;">i</tspan><tspan x="70.83" y="0" style="letter-spacing:0em;">e</tspan><tspan x="78.58" y="0">w</tspan></text><text transform="translate(862.02 484.58) rotate(-90)" style="font-family:ArialMT, Arial; font-size:14px; letter-spacing:0em;"><tspan x="0" y="0">Finance view</tspan></text></svg>