<?xml version="1.0" encoding="UTF-8"?>
<svg id="Ebene_1" data-name="Ebene 1" xmlns="http://www.w3.org/2000/svg" viewBox="0 0 988 525">
  <defs>
    <style>
      .cls-1 {
        letter-spacing: -.02em;
      }

      .cls-2 {
        fill: #0433ff;
        font-family: Arial-BoldMT, Arial;
        font-size: 26px;
        font-weight: 700;
      }

      .cls-3 {
        stroke-dasharray: 0 0 3.98 3.98;
      }

      .cls-3, .cls-4, .cls-5, .cls-6 {
        fill: none;
      }

      .cls-3, .cls-6 {
        stroke: #0433ff;
        stroke-miterlimit: 10;
      }

      .cls-7 {
        fill: #1d1d1b;
        stroke-width: 0px;
      }

      .cls-4 {
        stroke-width: .84px;
      }

      .cls-4, .cls-5 {
        stroke: #1d1d1b;
        stroke-linejoin: round;
      }

      .cls-8 {
        letter-spacing: 0em;
      }

      .cls-9 {
        letter-spacing: -.07em;
      }

      .cls-10 {
        letter-spacing: -.11em;
      }

      .cls-5 {
        stroke-width: 2px;
      }

      .cls-11 {
        font-size: 11.2px;
      }

      .cls-11, .cls-12, .cls-13 {
        fill: #000;
        font-family: ArialMT, Arial;
      }

      .cls-12 {
        font-size: 22px;
      }

      .cls-13 {
        font-size: 14px;
      }
    </style>
  </defs>
  <text class="cls-12" transform="translate(81.32 117.51)"><tspan x="0" y="0">Decision</tspan></text>
  <text class="cls-12" transform="translate(339.93 117.51)"><tspan x="0" y="0">Action</tspan></text>
  <text class="cls-12" transform="translate(564.91 117.51)"><tspan x="0" y="0">Perception</tspan></text>
  <g>
    <line class="cls-5" x1="217" y1="108.81" x2="269.82" y2="108.81"/>
    <polygon class="cls-7" points="268.37 113.8 277 108.81 268.37 103.83 268.37 113.8"/>
  </g>
  <g>
    <line class="cls-5" x1="464" y1="108.81" x2="516.82" y2="108.81"/>
    <polygon class="cls-7" points="515.37 113.8 524 108.81 515.37 103.83 515.37 113.8"/>
  </g>
  <text class="cls-2" transform="translate(202.94 52.28)"><tspan x="0" y="0">Human</tspan></text>
  <text class="cls-2" transform="translate(669.02 52.28)"><tspan class="cls-9" x="0" y="0">T</tspan><tspan x="13.95" y="0">echnology</tspan></text>
  <g>
    <line class="cls-6" x1="494" x2="494" y2="2"/>
    <line class="cls-3" x1="494" y1="5.98" x2="494" y2="521.01"/>
    <line class="cls-6" x1="494" y1="523" x2="494" y2="525"/>
  </g>
  <text class="cls-13" transform="translate(96.64 184.84)"><tspan x="0" y="0">Intention</tspan><tspan x="-.78" y="18">Attention</tspan><tspan x="1.18" y="36">Emotion</tspan></text>
  <rect class="cls-4" x="314.5" y="144.33" width="112" height="24" rx="12" ry="12"/>
  <text class="cls-11" transform="translate(351.51 160.32)"><tspan x="0" y="0">Speech</tspan></text>
  <rect class="cls-4" x="314.5" y="172.84" width="112" height="24" rx="12" ry="12"/>
  <text class="cls-11" transform="translate(350.58 188.82)"><tspan x="0" y="0">Gesture</tspan></text>
  <rect class="cls-4" x="314.5" y="201.34" width="112" height="24" rx="12" ry="12"/>
  <text class="cls-11" transform="translate(326.31 217.33)"><tspan x="0" y="0">Facial Expression</tspan></text>
  <rect class="cls-4" x="314.5" y="229.85" width="112" height="24" rx="12" ry="12"/>
  <text class="cls-11" transform="translate(365.83 245.83)"><tspan x="0" y="0">...</tspan></text>
  <rect class="cls-4" x="561.5" y="144.33" width="112" height="24" rx="12" ry="12"/>
  <text class="cls-11" transform="translate(588.24 160.32)"><tspan x="0" y="0">Microphone</tspan></text>
  <rect class="cls-4" x="561.5" y="172.84" width="112" height="24" rx="12" ry="12"/>
  <text class="cls-11" transform="translate(581.81 188.82)"><tspan class="cls-1" x="0" y="0">V</tspan><tspan x="7.27" y="0">ideo Camera</tspan></text>
  <rect class="cls-4" x="561.5" y="201.34" width="112" height="24" rx="12" ry="12"/>
  <text class="cls-11" transform="translate(602.56 216.33)"><tspan class="cls-10" x="0" y="0">T</tspan><tspan class="cls-8" x="5.6" y="0">ablet</tspan></text>
  <rect class="cls-4" x="561.5" y="229.85" width="112" height="24" rx="12" ry="12"/>
  <text class="cls-11" transform="translate(612.83 245.83)"><tspan x="0" y="0">...</tspan></text>
  <line class="cls-4" x1="426.5" y1="156.33" x2="561.5" y2="156.33"/>
  <line class="cls-4" x1="426.5" y1="213.34" x2="561.5" y2="184.84"/>
  <line class="cls-4" x1="426.5" y1="184.84" x2="561.5" y2="184.84"/>
  <line class="cls-4" x1="426.5" y1="184.84" x2="561.5" y2="213.34"/>
  <line class="cls-4" x1="426.5" y1="213.34" x2="561.5" y2="156.33"/>
</svg>