<?xml version="1.0" encoding="UTF-8"?><svg id="Ebene_1" xmlns="http://www.w3.org/2000/svg" viewBox="0 0 988 525"><text transform="translate(54.45 132.32)" style="font-family:ArialMT, Arial; font-size:16px;"><tspan x="0" y="0">Strategie — was?</tspan></text><text transform="translate(54.45 272.5)" style="font-family:ArialMT, Arial; font-size:16px;"><tspan x="0" y="0">Organisation — wie?</tspan></text><text transform="translate(54.45 417.37)" style="font-family:ArialMT, Arial; font-size:16px;"><tspan x="0" y="0" style="letter-spacing:-.11em;">T</tspan><tspan x="8" y="0">echnologie — womit?</tspan></text><g><g><g><rect x="276.93" y="97.63" width="300" height="60" rx="1" ry="1" style="fill:#fff;"/><rect x="276.93" y="97.63" width="300" height="60" rx="1" ry="1" style="fill:none; stroke:#1d1d1b; stroke-width:2px;"/></g><text transform="translate(336.89 134.79)" style="fill:#1d1d1b; font-family:Arial-BoldMT, Arial; font-size:20px; font-weight:700;"><tspan x="0" y="0">Geschäftsstrategie</tspan></text></g><g><rect x="276.93" y="242.5" width="300" height="60" rx="1" ry="1" style="fill:none; stroke:#000; stroke-miterlimit:10; stroke-width:2px;"/><text transform="translate(335.22 279.66)" style="font-family:Arial-BoldMT, Arial; font-size:20px; font-weight:700;"><tspan x="0" y="0">Geschäftsprozesse</tspan></text></g><g><rect x="276.93" y="387.37" width="300" height="60" rx="1" ry="1" style="fill:none; stroke:#1d1d1b; stroke-width:2px;"/><text transform="translate(331.91 424.53)" style="fill:#1d1d1b; font-family:Arial-BoldMT, Arial; font-size:20px; font-weight:700;"><tspan x="0" y="0">Informationssystem</tspan></text></g><text transform="translate(252.4 207.54)" style="font-family:ArialMT, Arial; font-size:16px;"><tspan x="0" y="0">fordert</tspan></text><text transform="translate(241.72 346.11)" style="font-family:ArialMT, Arial; font-size:16px;"><tspan x="0" y="0">definiert</tspan></text><text transform="translate(548.51 207.54)" style="font-family:ArialMT, Arial; font-size:16px;"><tspan x="0" y="0">implementiert</tspan></text><text transform="translate(548.51 346.11)" style="font-family:ArialMT, Arial; font-size:16px;"><tspan x="0" y="0">unterstützt</tspan></text><polygon points="473.14 185.41 429.84 214.72 516.44 214.72 473.14 185.41"/><polygon points="380.72 214.72 424.02 185.41 337.42 185.41 380.72 214.72"/><polygon points="473.14 328.73 429.84 358.05 516.44 358.05 473.14 328.73"/><polygon points="380.72 358.05 424.02 328.73 337.42 328.73 380.72 358.05"/></g><g><line x1="54.46" y1="203.92" x2="56.46" y2="203.92" style="fill:none; stroke:#1d1d1b;"/><line x1="64.39" y1="203.92" x2="203.17" y2="203.92" style="fill:none; stroke:#1d1d1b; stroke-dasharray:0 0 3.97 7.93;"/><line x1="207.14" y1="203.92" x2="209.14" y2="203.92" style="fill:none; stroke:#1d1d1b;"/></g><g><line x1="54.46" y1="341.26" x2="56.46" y2="341.26" style="fill:none; stroke:#1d1d1b;"/><line x1="64.39" y1="341.26" x2="203.17" y2="341.26" style="fill:none; stroke:#1d1d1b; stroke-dasharray:0 0 3.97 7.93;"/><line x1="207.14" y1="341.26" x2="209.14" y2="341.26" style="fill:none; stroke:#1d1d1b;"/></g><g><line x1="663.32" y1="203.92" x2="665.32" y2="203.92" style="fill:none; stroke:#1d1d1b;"/><line x1="673.43" y1="203.92" x2="900.42" y2="203.92" style="fill:none; stroke:#1d1d1b; stroke-dasharray:0 0 4.05 8.11;"/><line x1="904.48" y1="203.92" x2="906.48" y2="203.92" style="fill:none; stroke:#1d1d1b;"/></g><g><line x1="663.32" y1="341.26" x2="665.32" y2="341.26" style="fill:none; stroke:#1d1d1b;"/><line x1="673.43" y1="341.26" x2="900.42" y2="341.26" style="fill:none; stroke:#1d1d1b; stroke-dasharray:0 0 4.05 8.11;"/><line x1="904.48" y1="341.26" x2="906.48" y2="341.26" style="fill:none; stroke:#1d1d1b;"/></g><text transform="translate(663.32 112.85)" style="fill:#0333ff; font-family:ArialMT, Arial; font-size:18px;"><tspan x="0" y="0">W</tspan><tspan x="16.99" y="0" style="letter-spacing:0em;">i</tspan><tspan x="20.9" y="0">e </tspan><tspan x="35.91" y="0" style="letter-spacing:-.01em;">k</tspan><tspan x="44.72" y="0" style="letter-spacing:0em;">a</tspan><tspan x="54.56" y="0" style="letter-spacing:-.01em;">n</tspan><tspan x="64.39" y="0">n </tspan><tspan x="79.4" y="0" style="letter-spacing:-.01em;">I</tspan><tspan x="84.18" y="0">T </tspan><tspan x="100.18" y="0" style="letter-spacing:0em;">f</tspan><tspan x="105.19" y="0" style="letter-spacing:-.01em;">ü</tspan><tspan x="115" y="0">r </tspan><tspan x="0" y="24" style="letter-spacing:0em;">d</tspan><tspan x="9.83" y="24" style="letter-spacing:-.01em;">a</tspan><tspan x="19.65" y="24">s </tspan><tspan x="33.65" y="24" style="letter-spacing:0em;">U</tspan><tspan x="46.53" y="24" style="letter-spacing:-.02em;">n</tspan><tspan x="56.23" y="24" style="letter-spacing:-.02em;">t</tspan><tspan x="60.96" y="24" style="letter-spacing:0em;">e</tspan><tspan x="70.84" y="24" style="letter-spacing:0em;">r</tspan><tspan x="76.97" y="24" style="letter-spacing:0em;">n</tspan><tspan x="86.84" y="24" style="letter-spacing:0em;">e</tspan><tspan x="96.71" y="24" style="letter-spacing:0em;">h</tspan><tspan x="106.54" y="24" style="letter-spacing:0em;">m</tspan><tspan x="121.43" y="24" style="letter-spacing:0em;">e</tspan><tspan x="131.31" y="24">n </tspan><tspan x="0" y="48" style="letter-spacing:-.03em;">W</tspan><tspan x="16.43" y="48" style="letter-spacing:0em;">e</tspan><tspan x="26.32" y="48" style="letter-spacing:.03em;">r</tspan><tspan x="32.88" y="48">t </tspan><tspan x="42.88" y="48" style="letter-spacing:0em;">s</tspan><tspan x="51.74" y="48" style="letter-spacing:0em;">c</tspan><tspan x="60.77" y="48" style="letter-spacing:0em;">h</tspan><tspan x="70.61" y="48" style="letter-spacing:-.01em;">a</tspan><tspan x="80.4" y="48" style="letter-spacing:.03em;">f</tspan><tspan x="85.9" y="48" style="letter-spacing:-.01em;">f</tspan><tspan x="90.68" y="48" style="letter-spacing:0em;">e</tspan><tspan x="100.56" y="48" style="letter-spacing:-.05em;">n</tspan><tspan x="109.64" y="48">?</tspan></text><text transform="translate(663.32 49.92)" style="fill:#0333ff; font-family:Arial-BoldMT, Arial; font-size:20px; font-weight:700;"><tspan x="0" y="0" xml:space="preserve"> I</tspan><tspan x="11.11" y="0" style="letter-spacing:-.06em;">T</tspan><tspan x="22.23" y="0">-Management</tspan></text><g><path d="M666.96,253.03l-3.42-12.88h1.75l1.96,8.45c.21,.88,.39,1.76,.54,2.64,.33-1.38,.52-2.17,.58-2.38l2.45-8.7h2.06l1.85,6.52c.46,1.62,.8,3.14,1,4.56,.16-.81,.38-1.75,.64-2.8l2.02-8.28h1.71l-3.53,12.88h-1.64l-2.72-9.82c-.23-.82-.36-1.32-.4-1.51-.13,.59-.26,1.1-.38,1.51l-2.73,9.82h-1.74Z" style="fill:#0333ff;"/><path d="M687.33,250.03l1.63,.2c-.26,.96-.74,1.7-1.43,2.22s-1.59,.79-2.67,.79c-1.37,0-2.45-.42-3.25-1.26-.8-.84-1.2-2.02-1.2-3.54s.4-2.79,1.21-3.66,1.86-1.3,3.15-1.3,2.27,.42,3.06,1.27,1.19,2.04,1.19,3.59c0,.09,0,.23,0,.42h-6.96c.06,1.03,.35,1.81,.87,2.36s1.17,.82,1.95,.82c.58,0,1.08-.15,1.49-.46s.74-.79,.98-1.46Zm-5.19-2.56h5.21c-.07-.79-.27-1.37-.6-1.77-.5-.61-1.16-.91-1.96-.91-.73,0-1.34,.24-1.83,.73s-.77,1.14-.82,1.95Z" style="fill:#0333ff;"/><path d="M690.82,253.03v-12.88h1.58v12.88h-1.58Z" style="fill:#0333ff;"/><path d="M700.8,249.61l1.56,.2c-.17,1.07-.61,1.91-1.31,2.52s-1.56,.91-2.58,.91c-1.28,0-2.3-.42-3.08-1.25s-1.16-2.03-1.16-3.59c0-1.01,.17-1.89,.5-2.65s.84-1.32,1.52-1.7,1.43-.57,2.23-.57c1.01,0,1.84,.26,2.49,.77s1.06,1.24,1.24,2.18l-1.54,.24c-.15-.63-.41-1.1-.78-1.42s-.82-.47-1.35-.47c-.8,0-1.44,.29-1.94,.86s-.75,1.48-.75,2.71,.24,2.17,.72,2.73,1.11,.85,1.88,.85c.62,0,1.14-.19,1.56-.57s.68-.97,.79-1.76Z" style="fill:#0333ff;"/><path d="M703.74,253.03v-12.88h1.58v4.62c.74-.86,1.67-1.28,2.79-1.28,.69,0,1.29,.14,1.8,.41s.88,.65,1.09,1.13c.22,.48,.33,1.18,.33,2.09v5.92h-1.58v-5.92c0-.79-.17-1.37-.51-1.73-.34-.36-.83-.54-1.46-.54-.47,0-.91,.12-1.32,.36-.41,.24-.71,.57-.88,.99s-.26,.99-.26,1.72v5.11h-1.58Z" style="fill:#0333ff;"/><path d="M720.01,250.03l1.63,.2c-.26,.96-.74,1.7-1.43,2.22s-1.59,.79-2.67,.79c-1.37,0-2.45-.42-3.25-1.26-.8-.84-1.2-2.02-1.2-3.54s.4-2.79,1.21-3.66,1.86-1.3,3.15-1.3,2.27,.42,3.06,1.27,1.19,2.04,1.19,3.59c0,.09,0,.23,0,.42h-6.96c.06,1.03,.35,1.81,.87,2.36s1.17,.82,1.95,.82c.58,0,1.08-.15,1.49-.46s.74-.79,.98-1.46Zm-5.19-2.56h5.21c-.07-.79-.27-1.37-.6-1.77-.5-.61-1.16-.91-1.96-.91-.73,0-1.34,.24-1.83,.73s-.77,1.14-.82,1.95Z" style="fill:#0333ff;"/><path d="M727.41,253.03l4.95-12.88h1.84l5.27,12.88h-1.94l-1.5-3.9h-5.39l-1.42,3.9h-1.81Zm3.72-5.29h4.37l-1.34-3.57c-.41-1.08-.71-1.97-.91-2.67-.16,.83-.4,1.65-.69,2.46l-1.42,3.78Z" style="fill:#0333ff;"/><path d="M740.76,253.03v-9.33h1.42v1.33c.69-1.03,1.68-1.54,2.97-1.54,.56,0,1.08,.1,1.55,.3,.47,.2,.82,.47,1.06,.8s.4,.72,.49,1.17c.06,.29,.09,.81,.09,1.54v5.74h-1.58v-5.68c0-.64-.06-1.13-.18-1.45s-.34-.57-.66-.76-.68-.29-1.1-.29c-.67,0-1.26,.21-1.75,.64s-.73,1.24-.73,2.43v5.1h-1.58Z" style="fill:#0333ff;"/><path d="M750.9,253.03v-8.1h-1.4v-1.23h1.4v-.99c0-.63,.06-1.09,.17-1.4,.15-.41,.42-.74,.8-1s.92-.38,1.61-.38c.45,0,.94,.05,1.48,.16l-.24,1.38c-.33-.06-.64-.09-.93-.09-.48,0-.82,.1-1.02,.31s-.3,.59-.3,1.15v.86h1.82v1.23h-1.82v8.1h-1.57Z" style="fill:#0333ff;"/><path d="M754.77,248.37c0-1.73,.48-3.01,1.44-3.84,.8-.69,1.78-1.04,2.94-1.04,1.28,0,2.33,.42,3.15,1.26s1.22,2,1.22,3.48c0,1.2-.18,2.15-.54,2.83-.36,.69-.89,1.22-1.57,1.6s-1.44,.57-2.25,.57c-1.31,0-2.36-.42-3.17-1.26-.81-.84-1.21-2.04-1.21-3.62Zm1.63,0c0,1.2,.26,2.09,.78,2.69s1.18,.89,1.97,.89,1.44-.3,1.96-.9,.78-1.51,.78-2.73c0-1.15-.26-2.03-.79-2.62s-1.18-.89-1.96-.89-1.45,.3-1.97,.89-.78,1.49-.78,2.68Z" style="fill:#0333ff;"/><path d="M765.28,253.03v-9.33h1.42v1.42c.36-.66,.7-1.1,1.01-1.31,.31-.21,.65-.32,1.01-.32,.53,0,1.08,.17,1.63,.51l-.54,1.47c-.39-.23-.77-.34-1.16-.34-.35,0-.66,.1-.93,.31s-.47,.5-.59,.87c-.18,.56-.26,1.18-.26,1.85v4.89h-1.58Z" style="fill:#0333ff;"/><path d="M777.24,253.03v-1.18c-.59,.93-1.46,1.39-2.61,1.39-.74,0-1.43-.21-2.05-.62-.62-.41-1.11-.98-1.45-1.72-.34-.74-.51-1.58-.51-2.54s.16-1.78,.47-2.54,.78-1.34,1.4-1.74,1.32-.61,2.08-.61c.56,0,1.06,.12,1.5,.36s.8,.55,1.07,.93v-4.62h1.57v12.88h-1.47Zm-5-4.66c0,1.2,.25,2.09,.76,2.68s1.1,.89,1.78,.89,1.28-.28,1.76-.85c.48-.57,.73-1.43,.73-2.59,0-1.28-.25-2.21-.74-2.81s-1.1-.9-1.82-.9-1.29,.29-1.76,.86c-.47,.57-.71,1.48-.71,2.72Z" style="fill:#0333ff;"/><path d="M787.43,250.03l1.63,.2c-.26,.96-.74,1.7-1.43,2.22s-1.59,.79-2.67,.79c-1.37,0-2.45-.42-3.25-1.26-.8-.84-1.2-2.02-1.2-3.54s.4-2.79,1.21-3.66,1.86-1.3,3.15-1.3,2.27,.42,3.06,1.27,1.19,2.04,1.19,3.59c0,.09,0,.23,0,.42h-6.96c.06,1.03,.35,1.81,.87,2.36s1.17,.82,1.95,.82c.58,0,1.08-.15,1.49-.46s.74-.79,.98-1.46Zm-5.19-2.56h5.21c-.07-.79-.27-1.37-.6-1.77-.5-.61-1.16-.91-1.96-.91-.73,0-1.34,.24-1.83,.73s-.77,1.14-.82,1.95Z" style="fill:#0333ff;"/><path d="M790.91,253.03v-9.33h1.42v1.42c.36-.66,.7-1.1,1.01-1.31,.31-.21,.65-.32,1.01-.32,.53,0,1.08,.17,1.63,.51l-.54,1.47c-.39-.23-.77-.34-1.16-.34-.35,0-.66,.1-.93,.31s-.47,.5-.59,.87c-.18,.56-.26,1.18-.26,1.85v4.89h-1.58Z" style="fill:#0333ff;"/><path d="M803.19,253.03v-1.37c-.73,1.05-1.71,1.58-2.96,1.58-.55,0-1.07-.11-1.54-.32s-.83-.48-1.06-.8c-.23-.32-.39-.71-.49-1.17-.06-.31-.1-.8-.1-1.48v-5.78h1.58v5.18c0,.83,.03,1.38,.1,1.67,.1,.42,.31,.74,.63,.98s.72,.36,1.2,.36,.92-.12,1.34-.36,.71-.57,.88-.99,.26-1.03,.26-1.82v-5h1.58v9.33h-1.42Z" style="fill:#0333ff;"/><path d="M806.88,253.03v-9.33h1.42v1.33c.69-1.03,1.68-1.54,2.97-1.54,.56,0,1.08,.1,1.55,.3,.47,.2,.82,.47,1.06,.8s.4,.72,.49,1.17c.06,.29,.09,.81,.09,1.54v5.74h-1.58v-5.68c0-.64-.06-1.13-.18-1.45s-.34-.57-.66-.76-.68-.29-1.1-.29c-.67,0-1.26,.21-1.75,.64s-.73,1.24-.73,2.43v5.1h-1.58Z" style="fill:#0333ff;"/><path d="M816.47,253.81l1.54,.23c.06,.47,.24,.82,.54,1.04,.39,.29,.93,.44,1.61,.44,.73,0,1.3-.15,1.7-.44s.67-.7,.81-1.23c.08-.32,.12-1,.11-2.03-.69,.81-1.55,1.22-2.58,1.22-1.28,0-2.28-.46-2.98-1.39s-1.05-2.04-1.05-3.33c0-.89,.16-1.71,.48-2.47s.79-1.33,1.4-1.74,1.33-.62,2.16-.62c1.1,0,2.01,.45,2.72,1.34v-1.12h1.46v8.07c0,1.45-.15,2.48-.44,3.09-.3,.61-.77,1.09-1.41,1.44-.64,.35-1.43,.53-2.37,.53-1.11,0-2.01-.25-2.7-.75s-1.02-1.26-.99-2.26Zm1.31-5.61c0,1.22,.24,2.12,.73,2.68s1.1,.84,1.83,.84,1.34-.28,1.83-.84,.74-1.44,.74-2.63-.25-2-.76-2.58c-.51-.58-1.12-.87-1.83-.87s-1.3,.29-1.79,.86-.74,1.42-.74,2.54Z" style="fill:#0333ff;"/><path d="M833.06,250.03l1.63,.2c-.26,.96-.74,1.7-1.43,2.22s-1.59,.79-2.67,.79c-1.37,0-2.45-.42-3.25-1.26-.8-.84-1.2-2.02-1.2-3.54s.4-2.79,1.21-3.66,1.86-1.3,3.15-1.3,2.27,.42,3.06,1.27,1.19,2.04,1.19,3.59c0,.09,0,.23,0,.42h-6.96c.06,1.03,.35,1.81,.87,2.36s1.17,.82,1.95,.82c.58,0,1.08-.15,1.49-.46s.74-.79,.98-1.46Zm-5.19-2.56h5.21c-.07-.79-.27-1.37-.6-1.77-.5-.61-1.16-.91-1.96-.91-.73,0-1.34,.24-1.83,.73s-.77,1.14-.82,1.95Z" style="fill:#0333ff;"/><path d="M836.55,253.03v-9.33h1.42v1.33c.69-1.03,1.68-1.54,2.97-1.54,.56,0,1.08,.1,1.55,.3,.47,.2,.82,.47,1.06,.8s.4,.72,.49,1.17c.06,.29,.09,.81,.09,1.54v5.74h-1.58v-5.68c0-.64-.06-1.13-.18-1.45s-.34-.57-.66-.76-.68-.29-1.1-.29c-.67,0-1.26,.21-1.75,.64s-.73,1.24-.73,2.43v5.1h-1.58Z" style="fill:#0333ff;"/><path d="M670.9,274.03l1.63,.2c-.26,.96-.74,1.7-1.43,2.22s-1.59,.79-2.67,.79c-1.37,0-2.45-.42-3.25-1.26-.8-.84-1.2-2.02-1.2-3.54s.4-2.79,1.21-3.66,1.86-1.3,3.15-1.3,2.27,.42,3.06,1.27,1.19,2.04,1.19,3.59c0,.09,0,.23,0,.42h-6.96c.06,1.03,.35,1.81,.87,2.36s1.17,.82,1.95,.82c.58,0,1.08-.15,1.49-.46s.74-.79,.98-1.46Zm-5.19-2.56h5.21c-.07-.79-.27-1.37-.6-1.77-.5-.61-1.16-.91-1.96-.91-.73,0-1.34,.24-1.83,.73s-.77,1.14-.82,1.95Z" style="fill:#0333ff;"/><path d="M674.38,277.03v-9.33h1.42v1.42c.36-.66,.7-1.1,1.01-1.31,.31-.21,.65-.32,1.01-.32,.53,0,1.08,.17,1.63,.51l-.54,1.47c-.39-.23-.77-.34-1.16-.34-.35,0-.66,.1-.93,.31s-.47,.5-.59,.87c-.18,.56-.26,1.18-.26,1.85v4.89h-1.58Z" style="fill:#0333ff;"/><path d="M680,277.81l1.54,.23c.06,.47,.24,.82,.54,1.04,.39,.29,.93,.44,1.61,.44,.73,0,1.3-.15,1.7-.44s.67-.7,.81-1.23c.08-.32,.12-1,.11-2.03-.69,.81-1.55,1.22-2.58,1.22-1.28,0-2.28-.46-2.98-1.39s-1.05-2.04-1.05-3.33c0-.89,.16-1.71,.48-2.47s.79-1.33,1.4-1.74,1.33-.62,2.16-.62c1.1,0,2.01,.45,2.72,1.34v-1.12h1.46v8.07c0,1.45-.15,2.48-.44,3.09-.3,.61-.77,1.09-1.41,1.44-.64,.35-1.43,.53-2.37,.53-1.11,0-2.01-.25-2.7-.75s-1.02-1.26-.99-2.26Zm1.31-5.61c0,1.22,.24,2.12,.73,2.68s1.1,.84,1.83,.84,1.34-.28,1.83-.84,.74-1.44,.74-2.63-.25-2-.76-2.58c-.51-.58-1.12-.87-1.83-.87s-1.3,.29-1.79,.86-.74,1.42-.74,2.54Z" style="fill:#0333ff;"/><path d="M696.6,274.03l1.63,.2c-.26,.96-.74,1.7-1.43,2.22s-1.59,.79-2.67,.79c-1.37,0-2.45-.42-3.25-1.26-.8-.84-1.2-2.02-1.2-3.54s.4-2.79,1.21-3.66,1.86-1.3,3.15-1.3,2.27,.42,3.06,1.27,1.19,2.04,1.19,3.59c0,.09,0,.23,0,.42h-6.96c.06,1.03,.35,1.81,.87,2.36s1.17,.82,1.95,.82c.58,0,1.08-.15,1.49-.46s.74-.79,.98-1.46Zm-5.19-2.56h5.21c-.07-.79-.27-1.37-.6-1.77-.5-.61-1.16-.91-1.96-.91-.73,0-1.34,.24-1.83,.73s-.77,1.14-.82,1.95Z" style="fill:#0333ff;"/><path d="M701.54,277.03h-1.47v-12.88h1.58v4.6c.67-.84,1.52-1.26,2.56-1.26,.57,0,1.12,.12,1.63,.35s.93,.56,1.27,.98,.59,.92,.78,1.52,.28,1.22,.28,1.9c0,1.6-.4,2.84-1.19,3.71s-1.74,1.31-2.85,1.31-1.97-.46-2.59-1.38v1.17Zm-.02-4.74c0,1.12,.15,1.93,.46,2.43,.5,.81,1.17,1.22,2.02,1.22,.69,0,1.29-.3,1.79-.9s.76-1.5,.76-2.69-.24-2.12-.73-2.7c-.48-.58-1.07-.87-1.75-.87s-1.29,.3-1.79,.9-.76,1.47-.76,2.61Z" style="fill:#0333ff;"/><path d="M716.39,274.03l1.63,.2c-.26,.96-.74,1.7-1.43,2.22s-1.59,.79-2.67,.79c-1.37,0-2.45-.42-3.25-1.26-.8-.84-1.2-2.02-1.2-3.54s.4-2.79,1.21-3.66,1.86-1.3,3.15-1.3,2.27,.42,3.06,1.27,1.19,2.04,1.19,3.59c0,.09,0,.23,0,.42h-6.96c.06,1.03,.35,1.81,.87,2.36s1.17,.82,1.95,.82c.58,0,1.08-.15,1.49-.46s.74-.79,.98-1.46Zm-5.19-2.56h5.21c-.07-.79-.27-1.37-.6-1.77-.5-.61-1.16-.91-1.96-.91-.73,0-1.34,.24-1.83,.73s-.77,1.14-.82,1.95Z" style="fill:#0333ff;"/><path d="M719.88,277.03v-9.33h1.42v1.33c.69-1.03,1.68-1.54,2.97-1.54,.56,0,1.08,.1,1.55,.3,.47,.2,.82,.47,1.06,.8s.4,.72,.49,1.17c.06,.29,.09,.81,.09,1.54v5.74h-1.58v-5.68c0-.64-.06-1.13-.18-1.45s-.34-.57-.66-.76-.68-.29-1.1-.29c-.67,0-1.26,.21-1.75,.64s-.73,1.24-.73,2.43v5.1h-1.58Z" style="fill:#0333ff;"/><path d="M734.26,274.25l1.56-.25c.09,.63,.33,1.11,.73,1.44s.96,.5,1.68,.5,1.27-.15,1.62-.44,.53-.64,.53-1.04c0-.36-.16-.64-.47-.84-.22-.14-.76-.32-1.62-.54-1.16-.29-1.96-.55-2.41-.76-.45-.21-.79-.51-1.02-.89s-.35-.8-.35-1.25c0-.42,.09-.8,.29-1.16,.19-.35,.45-.65,.78-.88,.25-.18,.58-.34,1.01-.46s.88-.19,1.37-.19c.73,0,1.38,.11,1.93,.32,.55,.21,.96,.5,1.23,.86s.45,.84,.54,1.45l-1.55,.21c-.07-.48-.27-.86-.61-1.12-.34-.27-.81-.4-1.43-.4-.73,0-1.25,.12-1.56,.36s-.47,.52-.47,.84c0,.21,.06,.39,.19,.55,.13,.17,.33,.31,.61,.42,.16,.06,.62,.19,1.4,.4,1.12,.3,1.9,.54,2.34,.73,.44,.19,.79,.47,1.04,.83s.38,.81,.38,1.35-.15,1.02-.46,1.49c-.31,.47-.75,.83-1.33,1.08s-1.24,.38-1.97,.38c-1.21,0-2.14-.25-2.77-.76-.64-.5-1.04-1.25-1.22-2.24Z" style="fill:#0333ff;"/><path d="M743.75,265.97v-1.82h1.58v1.82h-1.58Zm0,11.07v-9.33h1.58v9.33h-1.58Z" style="fill:#0333ff;"/><path d="M753.71,273.61l1.56,.2c-.17,1.07-.61,1.91-1.31,2.52s-1.56,.91-2.58,.91c-1.28,0-2.3-.42-3.08-1.25s-1.16-2.03-1.16-3.59c0-1.01,.17-1.89,.5-2.65s.84-1.32,1.52-1.7,1.43-.57,2.23-.57c1.01,0,1.84,.26,2.49,.77s1.06,1.24,1.24,2.18l-1.54,.24c-.15-.63-.41-1.1-.78-1.42s-.82-.47-1.35-.47c-.8,0-1.44,.29-1.94,.86s-.75,1.48-.75,2.71,.24,2.17,.72,2.73,1.11,.85,1.88,.85c.62,0,1.14-.19,1.56-.57s.68-.97,.79-1.76Z" style="fill:#0333ff;"/><path d="M756.65,277.03v-12.88h1.58v4.62c.74-.86,1.67-1.28,2.79-1.28,.69,0,1.29,.14,1.8,.41s.88,.65,1.09,1.13c.22,.48,.33,1.18,.33,2.09v5.92h-1.58v-5.92c0-.79-.17-1.37-.51-1.73-.34-.36-.83-.54-1.46-.54-.47,0-.91,.12-1.32,.36-.41,.24-.71,.57-.88,.99s-.26,.99-.26,1.72v5.11h-1.58Z" style="fill:#0333ff;"/><path d="M777.76,275.88c-.59,.5-1.15,.85-1.69,1.05-.54,.21-1.12,.31-1.75,.31-1.03,0-1.81-.25-2.36-.75s-.83-1.14-.83-1.92c0-.46,.1-.87,.31-1.25,.21-.38,.48-.68,.82-.91s.72-.4,1.14-.52c.31-.08,.78-.16,1.41-.24,1.28-.15,2.22-.33,2.82-.54,0-.22,0-.35,0-.41,0-.64-.15-1.1-.45-1.36-.4-.36-1-.54-1.8-.54-.74,0-1.29,.13-1.65,.39s-.62,.72-.79,1.38l-1.55-.21c.14-.66,.37-1.2,.69-1.6s.79-.72,1.4-.94,1.32-.33,2.12-.33,1.44,.09,1.94,.28,.86,.42,1.1,.71,.4,.64,.49,1.08c.05,.27,.08,.76,.08,1.46v2.11c0,1.47,.03,2.4,.1,2.79s.2,.76,.4,1.12h-1.65c-.16-.33-.27-.71-.32-1.15Zm-.13-3.53c-.57,.23-1.44,.43-2.58,.6-.65,.09-1.11,.2-1.38,.32s-.48,.29-.62,.51-.22,.48-.22,.75c0,.42,.16,.77,.48,1.05s.79,.42,1.4,.42,1.15-.13,1.63-.4,.82-.63,1.05-1.09c.17-.36,.25-.88,.25-1.58v-.58Z" style="fill:#0333ff;"/><path d="M781.51,277.03v-9.33h1.42v1.33c.69-1.03,1.68-1.54,2.97-1.54,.56,0,1.08,.1,1.55,.3,.47,.2,.82,.47,1.06,.8s.4,.72,.49,1.17c.06,.29,.09,.81,.09,1.54v5.74h-1.58v-5.68c0-.64-.06-1.13-.18-1.45s-.34-.57-.66-.76-.68-.29-1.1-.29c-.67,0-1.26,.21-1.75,.64s-.73,1.24-.73,2.43v5.1h-1.58Z" style="fill:#0333ff;"/><path d="M665,301.03v-12.88h1.71v12.88h-1.71Z" style="fill:#0333ff;"/><path d="M669.35,301.03v-9.33h1.42v1.33c.69-1.03,1.68-1.54,2.97-1.54,.56,0,1.08,.1,1.55,.3,.47,.2,.82,.47,1.06,.8s.4,.72,.49,1.17c.06,.29,.09,.81,.09,1.54v5.74h-1.58v-5.68c0-.64-.06-1.13-.18-1.45s-.34-.57-.66-.76-.68-.29-1.1-.29c-.67,0-1.26,.21-1.75,.64s-.73,1.24-.73,2.43v5.1h-1.58Z" style="fill:#0333ff;"/><path d="M679.49,301.03v-8.1h-1.4v-1.23h1.4v-.99c0-.63,.06-1.09,.17-1.4,.15-.41,.42-.74,.8-1s.92-.38,1.61-.38c.45,0,.94,.05,1.48,.16l-.24,1.38c-.33-.06-.64-.09-.93-.09-.48,0-.82,.1-1.02,.31s-.3,.59-.3,1.15v.86h1.82v1.23h-1.82v8.1h-1.57Z" style="fill:#0333ff;"/><path d="M683.35,296.37c0-1.73,.48-3.01,1.44-3.84,.8-.69,1.78-1.04,2.94-1.04,1.28,0,2.33,.42,3.15,1.26s1.22,2,1.22,3.48c0,1.2-.18,2.15-.54,2.83-.36,.69-.89,1.22-1.57,1.6s-1.44,.57-2.25,.57c-1.31,0-2.36-.42-3.17-1.26-.81-.84-1.21-2.04-1.21-3.62Zm1.63,0c0,1.2,.26,2.09,.78,2.69s1.18,.89,1.97,.89,1.44-.3,1.96-.9,.78-1.51,.78-2.73c0-1.15-.26-2.03-.79-2.62s-1.18-.89-1.96-.89-1.45,.3-1.97,.89-.78,1.49-.78,2.68Z" style="fill:#0333ff;"/><path d="M693.86,301.03v-9.33h1.42v1.42c.36-.66,.7-1.1,1.01-1.31,.31-.21,.65-.32,1.01-.32,.53,0,1.08,.17,1.63,.51l-.54,1.47c-.39-.23-.77-.34-1.16-.34-.35,0-.66,.1-.93,.31s-.47,.5-.59,.87c-.18,.56-.26,1.18-.26,1.85v4.89h-1.58Z" style="fill:#0333ff;"/><path d="M700,301.03v-9.33h1.42v1.31c.29-.46,.68-.82,1.17-1.1s1.04-.42,1.66-.42c.69,0,1.26,.14,1.7,.43,.44,.29,.75,.69,.94,1.2,.74-1.09,1.7-1.63,2.88-1.63,.93,0,1.64,.26,2.14,.77s.75,1.3,.75,2.37v6.41h-1.57v-5.88c0-.63-.05-1.09-.15-1.37-.1-.28-.29-.5-.56-.67s-.59-.25-.95-.25c-.66,0-1.2,.22-1.63,.65s-.65,1.14-.65,2.1v5.42h-1.58v-6.06c0-.7-.13-1.23-.39-1.58s-.68-.53-1.27-.53c-.45,0-.86,.12-1.23,.35-.38,.23-.65,.58-.82,1.03s-.25,1.1-.25,1.95v4.84h-1.58Z" style="fill:#0333ff;"/><path d="M720.95,299.88c-.59,.5-1.15,.85-1.69,1.05-.54,.21-1.12,.31-1.75,.31-1.03,0-1.81-.25-2.36-.75s-.83-1.14-.83-1.92c0-.46,.1-.87,.31-1.25,.21-.38,.48-.68,.82-.91s.72-.4,1.14-.52c.31-.08,.78-.16,1.41-.24,1.28-.15,2.22-.33,2.82-.54,0-.22,0-.35,0-.41,0-.64-.15-1.1-.45-1.36-.4-.36-1-.54-1.8-.54-.74,0-1.29,.13-1.65,.39s-.62,.72-.79,1.38l-1.55-.21c.14-.66,.37-1.2,.69-1.6s.79-.72,1.4-.94,1.32-.33,2.12-.33,1.44,.09,1.94,.28,.86,.42,1.1,.71,.4,.64,.49,1.08c.05,.27,.08,.76,.08,1.46v2.11c0,1.47,.03,2.4,.1,2.79s.2,.76,.4,1.12h-1.65c-.16-.33-.27-.71-.32-1.15Zm-.13-3.53c-.57,.23-1.44,.43-2.58,.6-.65,.09-1.11,.2-1.38,.32s-.48,.29-.62,.51-.22,.48-.22,.75c0,.42,.16,.77,.48,1.05s.79,.42,1.4,.42,1.15-.13,1.63-.4,.82-.63,1.05-1.09c.17-.36,.25-.88,.25-1.58v-.58Z" style="fill:#0333ff;"/><path d="M728.06,299.62l.23,1.4c-.45,.09-.84,.14-1.2,.14-.57,0-1.02-.09-1.34-.27s-.54-.42-.67-.72-.19-.92-.19-1.87v-5.37h-1.16v-1.23h1.16v-2.31l1.57-.95v3.26h1.59v1.23h-1.59v5.46c0,.45,.03,.74,.08,.87s.15,.23,.27,.31c.12,.08,.31,.11,.54,.11,.18,0,.41-.02,.69-.06Z" style="fill:#0333ff;"/><path d="M729.55,289.97v-1.82h1.58v1.82h-1.58Zm0,11.07v-9.33h1.58v9.33h-1.58Z" style="fill:#0333ff;"/><path d="M732.88,296.37c0-1.73,.48-3.01,1.44-3.84,.8-.69,1.78-1.04,2.94-1.04,1.28,0,2.33,.42,3.15,1.26s1.22,2,1.22,3.48c0,1.2-.18,2.15-.54,2.83-.36,.69-.89,1.22-1.57,1.6s-1.44,.57-2.25,.57c-1.31,0-2.36-.42-3.17-1.26-.81-.84-1.21-2.04-1.21-3.62Zm1.63,0c0,1.2,.26,2.09,.78,2.69s1.18,.89,1.97,.89,1.44-.3,1.96-.9,.78-1.51,.78-2.73c0-1.15-.26-2.03-.79-2.62s-1.18-.89-1.96-.89-1.45,.3-1.97,.89-.78,1.49-.78,2.68Z" style="fill:#0333ff;"/><path d="M743.39,301.03v-9.33h1.42v1.33c.69-1.03,1.68-1.54,2.97-1.54,.56,0,1.08,.1,1.55,.3,.47,.2,.82,.47,1.06,.8s.4,.72,.49,1.17c.06,.29,.09,.81,.09,1.54v5.74h-1.58v-5.68c0-.64-.06-1.13-.18-1.45s-.34-.57-.66-.76-.68-.29-1.1-.29c-.67,0-1.26,.21-1.75,.64s-.73,1.24-.73,2.43v5.1h-1.58Z" style="fill:#0333ff;"/><path d="M752.59,298.25l1.56-.25c.09,.63,.33,1.11,.73,1.44s.96,.5,1.68,.5,1.27-.15,1.62-.44,.53-.64,.53-1.04c0-.36-.16-.64-.47-.84-.22-.14-.76-.32-1.62-.54-1.16-.29-1.96-.55-2.41-.76-.45-.21-.79-.51-1.02-.89s-.35-.8-.35-1.25c0-.42,.09-.8,.29-1.16,.19-.35,.45-.65,.78-.88,.25-.18,.58-.34,1.01-.46s.88-.19,1.37-.19c.73,0,1.38,.11,1.93,.32,.55,.21,.96,.5,1.23,.86s.45,.84,.54,1.45l-1.55,.21c-.07-.48-.27-.86-.61-1.12-.34-.27-.81-.4-1.43-.4-.73,0-1.25,.12-1.56,.36s-.47,.52-.47,.84c0,.21,.06,.39,.19,.55,.13,.17,.33,.31,.61,.42,.16,.06,.62,.19,1.4,.4,1.12,.3,1.9,.54,2.34,.73,.44,.19,.79,.47,1.04,.83s.38,.81,.38,1.35-.15,1.02-.46,1.49c-.31,.47-.75,.83-1.33,1.08s-1.24,.38-1.97,.38c-1.21,0-2.14-.25-2.77-.76-.64-.5-1.04-1.25-1.22-2.24Z" style="fill:#0333ff;"/><path d="M761.57,298.25l1.56-.25c.09,.63,.33,1.11,.73,1.44s.96,.5,1.68,.5,1.27-.15,1.62-.44,.53-.64,.53-1.04c0-.36-.16-.64-.47-.84-.22-.14-.76-.32-1.62-.54-1.16-.29-1.96-.55-2.41-.76-.45-.21-.79-.51-1.02-.89s-.35-.8-.35-1.25c0-.42,.09-.8,.29-1.16,.19-.35,.45-.65,.78-.88,.25-.18,.58-.34,1.01-.46s.88-.19,1.37-.19c.73,0,1.38,.11,1.93,.32,.55,.21,.96,.5,1.23,.86s.45,.84,.54,1.45l-1.55,.21c-.07-.48-.27-.86-.61-1.12-.34-.27-.81-.4-1.43-.4-.73,0-1.25,.12-1.56,.36s-.47,.52-.47,.84c0,.21,.06,.39,.19,.55,.13,.17,.33,.31,.61,.42,.16,.06,.62,.19,1.4,.4,1.12,.3,1.9,.54,2.34,.73,.44,.19,.79,.47,1.04,.83s.38,.81,.38,1.35-.15,1.02-.46,1.49c-.31,.47-.75,.83-1.33,1.08s-1.24,.38-1.97,.38c-1.21,0-2.14-.25-2.77-.76-.64-.5-1.04-1.25-1.22-2.24Z" style="fill:#0333ff;"/><path d="M770.71,304.63l-.18-1.49c.35,.09,.65,.14,.91,.14,.35,0,.63-.06,.84-.18s.38-.28,.52-.49c.1-.16,.26-.55,.48-1.18,.03-.09,.08-.22,.14-.39l-3.54-9.35h1.71l1.94,5.41c.25,.69,.48,1.41,.68,2.16,.18-.73,.4-1.44,.65-2.13l2-5.44h1.58l-3.55,9.49c-.38,1.03-.68,1.73-.89,2.12-.28,.52-.6,.9-.97,1.15s-.8,.36-1.3,.36c-.3,0-.64-.06-1.02-.19Z" style="fill:#0333ff;"/><path d="M778.95,298.25l1.56-.25c.09,.63,.33,1.11,.73,1.44s.96,.5,1.68,.5,1.27-.15,1.62-.44,.53-.64,.53-1.04c0-.36-.16-.64-.47-.84-.22-.14-.76-.32-1.62-.54-1.16-.29-1.96-.55-2.41-.76-.45-.21-.79-.51-1.02-.89s-.35-.8-.35-1.25c0-.42,.09-.8,.29-1.16,.19-.35,.45-.65,.78-.88,.25-.18,.58-.34,1.01-.46s.88-.19,1.37-.19c.73,0,1.38,.11,1.93,.32,.55,.21,.96,.5,1.23,.86s.45,.84,.54,1.45l-1.55,.21c-.07-.48-.27-.86-.61-1.12-.34-.27-.81-.4-1.43-.4-.73,0-1.25,.12-1.56,.36s-.47,.52-.47,.84c0,.21,.06,.39,.19,.55,.13,.17,.33,.31,.61,.42,.16,.06,.62,.19,1.4,.4,1.12,.3,1.9,.54,2.34,.73,.44,.19,.79,.47,1.04,.83s.38,.81,.38,1.35-.15,1.02-.46,1.49c-.31,.47-.75,.83-1.33,1.08s-1.24,.38-1.97,.38c-1.21,0-2.14-.25-2.77-.76-.64-.5-1.04-1.25-1.22-2.24Z" style="fill:#0333ff;"/><path d="M791.81,299.62l.23,1.4c-.45,.09-.84,.14-1.2,.14-.57,0-1.02-.09-1.34-.27s-.54-.42-.67-.72-.19-.92-.19-1.87v-5.37h-1.16v-1.23h1.16v-2.31l1.57-.95v3.26h1.59v1.23h-1.59v5.46c0,.45,.03,.74,.08,.87s.15,.23,.27,.31c.12,.08,.31,.11,.54,.11,.18,0,.41-.02,.69-.06Z" style="fill:#0333ff;"/><path d="M799.47,298.03l1.63,.2c-.26,.96-.74,1.7-1.43,2.22s-1.59,.79-2.67,.79c-1.37,0-2.45-.42-3.25-1.26-.8-.84-1.2-2.02-1.2-3.54s.4-2.79,1.21-3.66,1.86-1.3,3.15-1.3,2.27,.42,3.06,1.27,1.19,2.04,1.19,3.59c0,.09,0,.23,0,.42h-6.96c.06,1.03,.35,1.81,.87,2.36s1.17,.82,1.95,.82c.58,0,1.08-.15,1.49-.46s.74-.79,.98-1.46Zm-5.19-2.56h5.21c-.07-.79-.27-1.37-.6-1.77-.5-.61-1.16-.91-1.96-.91-.73,0-1.34,.24-1.83,.73s-.77,1.14-.82,1.95Z" style="fill:#0333ff;"/><path d="M802.96,301.03v-9.33h1.42v1.31c.29-.46,.68-.82,1.17-1.1s1.04-.42,1.66-.42c.69,0,1.26,.14,1.7,.43,.44,.29,.75,.69,.94,1.2,.74-1.09,1.7-1.63,2.88-1.63,.93,0,1.64,.26,2.14,.77s.75,1.3,.75,2.37v6.41h-1.57v-5.88c0-.63-.05-1.09-.15-1.37-.1-.28-.29-.5-.56-.67s-.59-.25-.95-.25c-.66,0-1.2,.22-1.63,.65s-.65,1.14-.65,2.1v5.42h-1.58v-6.06c0-.7-.13-1.23-.39-1.58s-.68-.53-1.27-.53c-.45,0-.86,.12-1.23,.35-.38,.23-.65,.58-.82,1.03s-.25,1.1-.25,1.95v4.84h-1.58Z" style="fill:#0333ff;"/><path d="M824.24,298.03l1.63,.2c-.26,.96-.74,1.7-1.43,2.22s-1.59,.79-2.67,.79c-1.37,0-2.45-.42-3.25-1.26-.8-.84-1.2-2.02-1.2-3.54s.4-2.79,1.21-3.66,1.86-1.3,3.15-1.3,2.27,.42,3.06,1.27,1.19,2.04,1.19,3.59c0,.09,0,.23,0,.42h-6.96c.06,1.03,.35,1.81,.87,2.36s1.17,.82,1.95,.82c.58,0,1.08-.15,1.49-.46s.74-.79,.98-1.46Zm-5.19-2.56h5.21c-.07-.79-.27-1.37-.6-1.77-.5-.61-1.16-.91-1.96-.91-.73,0-1.34,.24-1.83,.73s-.77,1.14-.82,1.95Z" style="fill:#0333ff;"/><path d="M829.75,297.86c0-.21,0-.37,0-.47,0-.62,.09-1.16,.26-1.61,.13-.34,.34-.68,.62-1.03,.21-.25,.59-.62,1.14-1.1,.55-.48,.9-.87,1.07-1.16s.25-.6,.25-.94c0-.62-.24-1.16-.72-1.62s-1.07-.7-1.77-.7-1.24,.21-1.69,.63-.75,1.08-.89,1.98l-1.63-.19c.15-1.2,.58-2.12,1.3-2.76s1.68-.96,2.87-.96c1.26,0,2.26,.34,3.01,1.03s1.12,1.51,1.12,2.49c0,.56-.13,1.08-.4,1.56s-.78,1.05-1.55,1.73c-.52,.46-.85,.79-1.01,1.01s-.28,.47-.35,.75-.12,.74-.13,1.37h-1.52Zm-.1,3.17v-1.8h1.8v1.8h-1.8Z" style="fill:#0333ff;"/></g><g><path d="M666.96,397.9l-3.42-12.88h1.75l1.96,8.45c.21,.88,.39,1.76,.54,2.64,.33-1.38,.52-2.17,.58-2.38l2.45-8.7h2.06l1.85,6.52c.46,1.62,.8,3.14,1,4.56,.16-.81,.38-1.75,.64-2.8l2.02-8.28h1.71l-3.53,12.88h-1.64l-2.72-9.82c-.23-.82-.36-1.32-.4-1.51-.13,.59-.26,1.1-.38,1.51l-2.73,9.82h-1.74Z" style="fill:#0333ff;"/><path d="M681.5,386.84v-1.82h1.58v1.82h-1.58Zm0,11.07v-9.33h1.58v9.33h-1.58Z" style="fill:#0333ff;"/><path d="M691.79,394.9l1.63,.2c-.26,.96-.74,1.7-1.43,2.22s-1.59,.79-2.67,.79c-1.37,0-2.45-.42-3.25-1.26-.8-.84-1.2-2.02-1.2-3.54s.4-2.79,1.21-3.66,1.86-1.3,3.15-1.3,2.27,.42,3.06,1.27,1.19,2.04,1.19,3.59c0,.09,0,.23,0,.42h-6.96c.06,1.03,.35,1.81,.87,2.36s1.17,.82,1.95,.82c.58,0,1.08-.15,1.49-.46s.74-.79,.98-1.46Zm-5.19-2.56h5.21c-.07-.79-.27-1.37-.6-1.77-.5-.61-1.16-.91-1.96-.91-.73,0-1.34,.24-1.83,.73s-.77,1.14-.82,1.95Z" style="fill:#0333ff;"/><path d="M700.43,397.9v-12.88h1.58v7.35l3.74-3.8h2.05l-3.57,3.46,3.93,5.87h-1.95l-3.08-4.77-1.12,1.07v3.7h-1.58Z" style="fill:#0333ff;"/><path d="M708.29,393.24c0-1.73,.48-3.01,1.44-3.84,.8-.69,1.78-1.04,2.94-1.04,1.28,0,2.33,.42,3.15,1.26s1.22,2,1.22,3.48c0,1.2-.18,2.15-.54,2.83-.36,.69-.89,1.22-1.57,1.6s-1.44,.57-2.25,.57c-1.31,0-2.36-.42-3.17-1.26-.81-.84-1.21-2.04-1.21-3.62Zm1.63,0c0,1.2,.26,2.09,.78,2.69s1.18,.89,1.97,.89,1.44-.3,1.96-.9,.78-1.51,.78-2.73c0-1.15-.26-2.03-.79-2.62s-1.18-.89-1.96-.89-1.45,.3-1.97,.89-.78,1.49-.78,2.68Zm.28-6.5v-1.8h1.65v1.8h-1.65Zm3.28,0v-1.8h1.65v1.8h-1.65Z" style="fill:#0333ff;"/><path d="M718.8,397.9v-9.33h1.42v1.33c.69-1.03,1.68-1.54,2.97-1.54,.56,0,1.08,.1,1.55,.3,.47,.2,.82,.47,1.06,.8s.4,.72,.49,1.17c.06,.29,.09,.81,.09,1.54v5.74h-1.58v-5.68c0-.64-.06-1.13-.18-1.45s-.34-.57-.66-.76-.68-.29-1.1-.29c-.67,0-1.26,.21-1.75,.64s-.73,1.24-.73,2.43v5.1h-1.58Z" style="fill:#0333ff;"/><path d="M728.62,397.9v-9.33h1.42v1.33c.69-1.03,1.68-1.54,2.97-1.54,.56,0,1.08,.1,1.55,.3,.47,.2,.82,.47,1.06,.8s.4,.72,.49,1.17c.06,.29,.09,.81,.09,1.54v5.74h-1.58v-5.68c0-.64-.06-1.13-.18-1.45s-.34-.57-.66-.76-.68-.29-1.1-.29c-.67,0-1.26,.21-1.75,.64s-.73,1.24-.73,2.43v5.1h-1.58Z" style="fill:#0333ff;"/><path d="M744.88,394.9l1.63,.2c-.26,.96-.74,1.7-1.43,2.22s-1.59,.79-2.67,.79c-1.37,0-2.45-.42-3.25-1.26-.8-.84-1.2-2.02-1.2-3.54s.4-2.79,1.21-3.66,1.86-1.3,3.15-1.3,2.27,.42,3.06,1.27,1.19,2.04,1.19,3.59c0,.09,0,.23,0,.42h-6.96c.06,1.03,.35,1.81,.87,2.36s1.17,.82,1.95,.82c.58,0,1.08-.15,1.49-.46s.74-.79,.98-1.46Zm-5.19-2.56h5.21c-.07-.79-.27-1.37-.6-1.77-.5-.61-1.16-.91-1.96-.91-.73,0-1.34,.24-1.83,.73s-.77,1.14-.82,1.95Z" style="fill:#0333ff;"/><path d="M748.37,397.9v-9.33h1.42v1.33c.69-1.03,1.68-1.54,2.97-1.54,.56,0,1.08,.1,1.55,.3,.47,.2,.82,.47,1.06,.8s.4,.72,.49,1.17c.06,.29,.09,.81,.09,1.54v5.74h-1.58v-5.68c0-.64-.06-1.13-.18-1.45s-.34-.57-.66-.76-.68-.29-1.1-.29c-.67,0-1.26,.21-1.75,.64s-.73,1.24-.73,2.43v5.1h-1.58Z" style="fill:#0333ff;"/><path d="M763.87,397.9v-12.88h1.71v12.88h-1.71Z" style="fill:#0333ff;"/><path d="M768.22,397.9v-9.33h1.42v1.33c.69-1.03,1.68-1.54,2.97-1.54,.56,0,1.08,.1,1.55,.3,.47,.2,.82,.47,1.06,.8s.4,.72,.49,1.17c.06,.29,.09,.81,.09,1.54v5.74h-1.58v-5.68c0-.64-.06-1.13-.18-1.45s-.34-.57-.66-.76-.68-.29-1.1-.29c-.67,0-1.26,.21-1.75,.64s-.73,1.24-.73,2.43v5.1h-1.58Z" style="fill:#0333ff;"/><path d="M778.36,397.9v-8.1h-1.4v-1.23h1.4v-.99c0-.63,.06-1.09,.17-1.4,.15-.41,.42-.74,.8-1s.92-.38,1.61-.38c.45,0,.94,.05,1.48,.16l-.24,1.38c-.33-.06-.64-.09-.93-.09-.48,0-.82,.1-1.02,.31s-.3,.59-.3,1.15v.86h1.82v1.23h-1.82v8.1h-1.57Z" style="fill:#0333ff;"/><path d="M782.23,393.24c0-1.73,.48-3.01,1.44-3.84,.8-.69,1.78-1.04,2.94-1.04,1.28,0,2.33,.42,3.15,1.26s1.22,2,1.22,3.48c0,1.2-.18,2.15-.54,2.83-.36,.69-.89,1.22-1.57,1.6s-1.44,.57-2.25,.57c-1.31,0-2.36-.42-3.17-1.26-.81-.84-1.21-2.04-1.21-3.62Zm1.63,0c0,1.2,.26,2.09,.78,2.69s1.18,.89,1.97,.89,1.44-.3,1.96-.9,.78-1.51,.78-2.73c0-1.15-.26-2.03-.79-2.62s-1.18-.89-1.96-.89-1.45,.3-1.97,.89-.78,1.49-.78,2.68Z" style="fill:#0333ff;"/><path d="M792.73,397.9v-9.33h1.42v1.42c.36-.66,.7-1.1,1.01-1.31,.31-.21,.65-.32,1.01-.32,.53,0,1.08,.17,1.63,.51l-.54,1.47c-.39-.23-.77-.34-1.16-.34-.35,0-.66,.1-.93,.31s-.47,.5-.59,.87c-.18,.56-.26,1.18-.26,1.85v4.89h-1.58Z" style="fill:#0333ff;"/><path d="M798.88,397.9v-9.33h1.42v1.31c.29-.46,.68-.82,1.17-1.1s1.04-.42,1.66-.42c.69,0,1.26,.14,1.7,.43,.44,.29,.75,.69,.94,1.2,.74-1.09,1.7-1.63,2.88-1.63,.93,0,1.64,.26,2.14,.77s.75,1.3,.75,2.37v6.41h-1.57v-5.88c0-.63-.05-1.09-.15-1.37-.1-.28-.29-.5-.56-.67s-.59-.25-.95-.25c-.66,0-1.2,.22-1.63,.65s-.65,1.14-.65,2.1v5.42h-1.58v-6.06c0-.7-.13-1.23-.39-1.58s-.68-.53-1.27-.53c-.45,0-.86,.12-1.23,.35-.38,.23-.65,.58-.82,1.03s-.25,1.1-.25,1.95v4.84h-1.58Z" style="fill:#0333ff;"/><path d="M819.82,396.75c-.59,.5-1.15,.85-1.69,1.05-.54,.21-1.12,.31-1.75,.31-1.03,0-1.81-.25-2.36-.75s-.83-1.14-.83-1.92c0-.46,.1-.87,.31-1.25,.21-.38,.48-.68,.82-.91s.72-.4,1.14-.52c.31-.08,.78-.16,1.41-.24,1.28-.15,2.22-.33,2.82-.54,0-.22,0-.35,0-.41,0-.64-.15-1.1-.45-1.36-.4-.36-1-.54-1.8-.54-.74,0-1.29,.13-1.65,.39s-.62,.72-.79,1.38l-1.55-.21c.14-.66,.37-1.2,.69-1.6s.79-.72,1.4-.94,1.32-.33,2.12-.33,1.44,.09,1.94,.28,.86,.42,1.1,.71,.4,.64,.49,1.08c.05,.27,.08,.76,.08,1.46v2.11c0,1.47,.03,2.4,.1,2.79s.2,.76,.4,1.12h-1.65c-.16-.33-.27-.71-.32-1.15Zm-.13-3.53c-.57,.23-1.44,.43-2.58,.6-.65,.09-1.11,.2-1.38,.32s-.48,.29-.62,.51-.22,.48-.22,.75c0,.42,.16,.77,.48,1.05s.79,.42,1.4,.42,1.15-.13,1.63-.4,.82-.63,1.05-1.09c.17-.36,.25-.88,.25-1.58v-.58Z" style="fill:#0333ff;"/><path d="M826.93,396.49l.23,1.4c-.45,.09-.84,.14-1.2,.14-.57,0-1.02-.09-1.34-.27s-.54-.42-.67-.72-.19-.92-.19-1.87v-5.37h-1.16v-1.23h1.16v-2.31l1.57-.95v3.26h1.59v1.23h-1.59v5.46c0,.45,.03,.74,.08,.87s.15,.23,.27,.31c.12,.08,.31,.11,.54,.11,.18,0,.41-.02,.69-.06Z" style="fill:#0333ff;"/><path d="M828.42,386.84v-1.82h1.58v1.82h-1.58Zm0,11.07v-9.33h1.58v9.33h-1.58Z" style="fill:#0333ff;"/><path d="M831.76,393.24c0-1.73,.48-3.01,1.44-3.84,.8-.69,1.78-1.04,2.94-1.04,1.28,0,2.33,.42,3.15,1.26s1.22,2,1.22,3.48c0,1.2-.18,2.15-.54,2.83-.36,.69-.89,1.22-1.57,1.6s-1.44,.57-2.25,.57c-1.31,0-2.36-.42-3.17-1.26-.81-.84-1.21-2.04-1.21-3.62Zm1.63,0c0,1.2,.26,2.09,.78,2.69s1.18,.89,1.97,.89,1.44-.3,1.96-.9,.78-1.51,.78-2.73c0-1.15-.26-2.03-.79-2.62s-1.18-.89-1.96-.89-1.45,.3-1.97,.89-.78,1.49-.78,2.68Z" style="fill:#0333ff;"/><path d="M842.27,397.9v-9.33h1.42v1.33c.69-1.03,1.68-1.54,2.97-1.54,.56,0,1.08,.1,1.55,.3,.47,.2,.82,.47,1.06,.8s.4,.72,.49,1.17c.06,.29,.09,.81,.09,1.54v5.74h-1.58v-5.68c0-.64-.06-1.13-.18-1.45s-.34-.57-.66-.76-.68-.29-1.1-.29c-.67,0-1.26,.21-1.75,.64s-.73,1.24-.73,2.43v5.1h-1.58Z" style="fill:#0333ff;"/><path d="M851.46,395.12l1.56-.25c.09,.63,.33,1.11,.73,1.44s.96,.5,1.68,.5,1.27-.15,1.62-.44,.53-.64,.53-1.04c0-.36-.16-.64-.47-.84-.22-.14-.76-.32-1.62-.54-1.16-.29-1.96-.55-2.41-.76-.45-.21-.79-.51-1.02-.89s-.35-.8-.35-1.25c0-.42,.09-.8,.29-1.16,.19-.35,.45-.65,.78-.88,.25-.18,.58-.34,1.01-.46s.88-.19,1.37-.19c.73,0,1.38,.11,1.93,.32,.55,.21,.96,.5,1.23,.86s.45,.84,.54,1.45l-1.55,.21c-.07-.48-.27-.86-.61-1.12-.34-.27-.81-.4-1.43-.4-.73,0-1.25,.12-1.56,.36s-.47,.52-.47,.84c0,.21,.06,.39,.19,.55,.13,.17,.33,.31,.61,.42,.16,.06,.62,.19,1.4,.4,1.12,.3,1.9,.54,2.34,.73,.44,.19,.79,.47,1.04,.83s.38,.81,.38,1.35-.15,1.02-.46,1.49c-.31,.47-.75,.83-1.33,1.08s-1.24,.38-1.97,.38c-1.21,0-2.14-.25-2.77-.76-.64-.5-1.04-1.25-1.22-2.24Z" style="fill:#0333ff;"/><path d="M860.62,394.04v-1.59h4.86v1.59h-4.86Z" style="fill:#0333ff;"/><path d="M663.87,419.12l1.56-.25c.09,.63,.33,1.11,.73,1.44s.96,.5,1.68,.5,1.27-.15,1.62-.44,.53-.64,.53-1.04c0-.36-.16-.64-.47-.84-.22-.14-.76-.32-1.62-.54-1.16-.29-1.96-.55-2.41-.76-.45-.21-.79-.51-1.02-.89s-.35-.8-.35-1.25c0-.42,.09-.8,.29-1.16,.19-.35,.45-.65,.78-.88,.25-.18,.58-.34,1.01-.46s.88-.19,1.37-.19c.73,0,1.38,.11,1.93,.32,.55,.21,.96,.5,1.23,.86s.45,.84,.54,1.45l-1.55,.21c-.07-.48-.27-.86-.61-1.12-.34-.27-.81-.4-1.43-.4-.73,0-1.25,.12-1.56,.36s-.47,.52-.47,.84c0,.21,.06,.39,.19,.55,.13,.17,.33,.31,.61,.42,.16,.06,.62,.19,1.4,.4,1.12,.3,1.9,.54,2.34,.73,.44,.19,.79,.47,1.04,.83s.38,.81,.38,1.35-.15,1.02-.46,1.49c-.31,.47-.75,.83-1.33,1.08s-1.24,.38-1.97,.38c-1.21,0-2.14-.25-2.77-.76-.64-.5-1.04-1.25-1.22-2.24Z" style="fill:#0333ff;"/><path d="M673.02,425.5l-.18-1.49c.35,.09,.65,.14,.91,.14,.35,0,.63-.06,.84-.18s.38-.28,.52-.49c.1-.16,.26-.55,.48-1.18,.03-.09,.08-.22,.14-.39l-3.54-9.35h1.71l1.94,5.41c.25,.69,.48,1.41,.68,2.16,.18-.73,.4-1.44,.65-2.13l2-5.44h1.58l-3.55,9.49c-.38,1.03-.68,1.73-.89,2.12-.28,.52-.6,.9-.97,1.15s-.8,.36-1.3,.36c-.3,0-.64-.06-1.02-.19Z" style="fill:#0333ff;"/><path d="M681.25,419.12l1.56-.25c.09,.63,.33,1.11,.73,1.44s.96,.5,1.68,.5,1.27-.15,1.62-.44,.53-.64,.53-1.04c0-.36-.16-.64-.47-.84-.22-.14-.76-.32-1.62-.54-1.16-.29-1.96-.55-2.41-.76-.45-.21-.79-.51-1.02-.89s-.35-.8-.35-1.25c0-.42,.09-.8,.29-1.16,.19-.35,.45-.65,.78-.88,.25-.18,.58-.34,1.01-.46s.88-.19,1.37-.19c.73,0,1.38,.11,1.93,.32,.55,.21,.96,.5,1.23,.86s.45,.84,.54,1.45l-1.55,.21c-.07-.48-.27-.86-.61-1.12-.34-.27-.81-.4-1.43-.4-.73,0-1.25,.12-1.56,.36s-.47,.52-.47,.84c0,.21,.06,.39,.19,.55,.13,.17,.33,.31,.61,.42,.16,.06,.62,.19,1.4,.4,1.12,.3,1.9,.54,2.34,.73,.44,.19,.79,.47,1.04,.83s.38,.81,.38,1.35-.15,1.02-.46,1.49c-.31,.47-.75,.83-1.33,1.08s-1.24,.38-1.97,.38c-1.21,0-2.14-.25-2.77-.76-.64-.5-1.04-1.25-1.22-2.24Z" style="fill:#0333ff;"/><path d="M694.12,420.49l.23,1.4c-.45,.09-.84,.14-1.2,.14-.57,0-1.02-.09-1.34-.27s-.54-.42-.67-.72-.19-.92-.19-1.87v-5.37h-1.16v-1.23h1.16v-2.31l1.57-.95v3.26h1.59v1.23h-1.59v5.46c0,.45,.03,.74,.08,.87s.15,.23,.27,.31c.12,.08,.31,.11,.54,.11,.18,0,.41-.02,.69-.06Z" style="fill:#0333ff;"/><path d="M701.78,418.9l1.63,.2c-.26,.96-.74,1.7-1.43,2.22s-1.59,.79-2.67,.79c-1.37,0-2.45-.42-3.25-1.26-.8-.84-1.2-2.02-1.2-3.54s.4-2.79,1.21-3.66,1.86-1.3,3.15-1.3,2.27,.42,3.06,1.27,1.19,2.04,1.19,3.59c0,.09,0,.23,0,.42h-6.96c.06,1.03,.35,1.81,.87,2.36s1.17,.82,1.95,.82c.58,0,1.08-.15,1.49-.46s.74-.79,.98-1.46Zm-5.19-2.56h5.21c-.07-.79-.27-1.37-.6-1.77-.5-.61-1.16-.91-1.96-.91-.73,0-1.34,.24-1.83,.73s-.77,1.14-.82,1.95Z" style="fill:#0333ff;"/><path d="M705.27,421.9v-9.33h1.42v1.31c.29-.46,.68-.82,1.17-1.1s1.04-.42,1.66-.42c.69,0,1.26,.14,1.7,.43,.44,.29,.75,.69,.94,1.2,.74-1.09,1.7-1.63,2.88-1.63,.93,0,1.64,.26,2.14,.77s.75,1.3,.75,2.37v6.41h-1.57v-5.88c0-.63-.05-1.09-.15-1.37-.1-.28-.29-.5-.56-.67s-.59-.25-.95-.25c-.66,0-1.2,.22-1.63,.65s-.65,1.14-.65,2.1v5.42h-1.58v-6.06c0-.7-.13-1.23-.39-1.58s-.68-.53-1.27-.53c-.45,0-.86,.12-1.23,.35-.38,.23-.65,.58-.82,1.03s-.25,1.1-.25,1.95v4.84h-1.58Z" style="fill:#0333ff;"/><path d="M726.54,418.9l1.63,.2c-.26,.96-.74,1.7-1.43,2.22s-1.59,.79-2.67,.79c-1.37,0-2.45-.42-3.25-1.26-.8-.84-1.2-2.02-1.2-3.54s.4-2.79,1.21-3.66,1.86-1.3,3.15-1.3,2.27,.42,3.06,1.27,1.19,2.04,1.19,3.59c0,.09,0,.23,0,.42h-6.96c.06,1.03,.35,1.81,.87,2.36s1.17,.82,1.95,.82c.58,0,1.08-.15,1.49-.46s.74-.79,.98-1.46Zm-5.19-2.56h5.21c-.07-.79-.27-1.37-.6-1.77-.5-.61-1.16-.91-1.96-.91-.73,0-1.34,.24-1.83,.73s-.77,1.14-.82,1.95Z" style="fill:#0333ff;"/><path d="M741.56,418.9l1.63,.2c-.26,.96-.74,1.7-1.43,2.22s-1.59,.79-2.67,.79c-1.37,0-2.45-.42-3.25-1.26-.8-.84-1.2-2.02-1.2-3.54s.4-2.79,1.21-3.66,1.86-1.3,3.15-1.3,2.27,.42,3.06,1.27,1.19,2.04,1.19,3.59c0,.09,0,.23,0,.42h-6.96c.06,1.03,.35,1.81,.87,2.36s1.17,.82,1.95,.82c.58,0,1.08-.15,1.49-.46s.74-.79,.98-1.46Zm-5.19-2.56h5.21c-.07-.79-.27-1.37-.6-1.77-.5-.61-1.16-.91-1.96-.91-.73,0-1.34,.24-1.83,.73s-.77,1.14-.82,1.95Z" style="fill:#0333ff;"/><path d="M745.26,421.9v-8.1h-1.4v-1.23h1.4v-.99c0-.63,.06-1.09,.17-1.4,.15-.41,.42-.74,.8-1s.92-.38,1.61-.38c.45,0,.94,.05,1.48,.16l-.24,1.38c-.33-.06-.64-.09-.93-.09-.48,0-.82,.1-1.02,.31s-.3,.59-.3,1.15v.86h1.82v1.23h-1.82v8.1h-1.57Z" style="fill:#0333ff;"/><path d="M750.76,421.9v-8.1h-1.4v-1.23h1.4v-.99c0-.63,.06-1.09,.17-1.4,.15-.41,.42-.74,.8-1s.92-.38,1.61-.38c.45,0,.94,.05,1.48,.16l-.24,1.38c-.33-.06-.64-.09-.93-.09-.48,0-.82,.1-1.02,.31s-.3,.59-.3,1.15v.86h1.82v1.23h-1.82v8.1h-1.57Z" style="fill:#0333ff;"/><path d="M755.71,410.84v-1.82h1.58v1.82h-1.58Zm0,11.07v-9.33h1.58v9.33h-1.58Z" style="fill:#0333ff;"/><path d="M758.67,421.9v-1.28l5.94-6.82c-.67,.04-1.27,.05-1.78,.05h-3.81v-1.28h7.63v1.05l-5.05,5.92-.98,1.08c.71-.05,1.37-.08,2-.08h4.32v1.36h-8.26Z" style="fill:#0333ff;"/><path d="M768.32,410.84v-1.82h1.58v1.82h-1.58Zm0,11.07v-9.33h1.58v9.33h-1.58Z" style="fill:#0333ff;"/><path d="M778.61,418.9l1.63,.2c-.26,.96-.74,1.7-1.43,2.22s-1.59,.79-2.67,.79c-1.37,0-2.45-.42-3.25-1.26-.8-.84-1.2-2.02-1.2-3.54s.4-2.79,1.21-3.66,1.86-1.3,3.15-1.3,2.27,.42,3.06,1.27,1.19,2.04,1.19,3.59c0,.09,0,.23,0,.42h-6.96c.06,1.03,.35,1.81,.87,2.36s1.17,.82,1.95,.82c.58,0,1.08-.15,1.49-.46s.74-.79,.98-1.46Zm-5.19-2.56h5.21c-.07-.79-.27-1.37-.6-1.77-.5-.61-1.16-.91-1.96-.91-.73,0-1.34,.24-1.83,.73s-.77,1.14-.82,1.95Z" style="fill:#0333ff;"/><path d="M782.1,421.9v-9.33h1.42v1.33c.69-1.03,1.68-1.54,2.97-1.54,.56,0,1.08,.1,1.55,.3,.47,.2,.82,.47,1.06,.8s.4,.72,.49,1.17c.06,.29,.09,.81,.09,1.54v5.74h-1.58v-5.68c0-.64-.06-1.13-.18-1.45s-.34-.57-.66-.76-.68-.29-1.1-.29c-.67,0-1.26,.21-1.75,.64s-.73,1.24-.73,2.43v5.1h-1.58Z" style="fill:#0333ff;"/><path d="M795.26,420.49l.23,1.4c-.45,.09-.84,.14-1.2,.14-.57,0-1.02-.09-1.34-.27s-.54-.42-.67-.72-.19-.92-.19-1.87v-5.37h-1.16v-1.23h1.16v-2.31l1.57-.95v3.26h1.59v1.23h-1.59v5.46c0,.45,.03,.74,.08,.87s.15,.23,.27,.31c.12,.08,.31,.11,.54,.11,.18,0,.41-.02,.69-.06Z" style="fill:#0333ff;"/><path d="M808.2,418.9l1.63,.2c-.26,.96-.74,1.7-1.43,2.22s-1.59,.79-2.67,.79c-1.37,0-2.45-.42-3.25-1.26-.8-.84-1.2-2.02-1.2-3.54s.4-2.79,1.21-3.66,1.86-1.3,3.15-1.3,2.27,.42,3.06,1.27,1.19,2.04,1.19,3.59c0,.09,0,.23,0,.42h-6.96c.06,1.03,.35,1.81,.87,2.36s1.17,.82,1.95,.82c.58,0,1.08-.15,1.49-.46s.74-.79,.98-1.46Zm-5.19-2.56h5.21c-.07-.79-.27-1.37-.6-1.77-.5-.61-1.16-.91-1.96-.91-.73,0-1.34,.24-1.83,.73s-.77,1.14-.82,1.95Z" style="fill:#0333ff;"/><path d="M811.68,421.9v-9.33h1.42v1.33c.69-1.03,1.68-1.54,2.97-1.54,.56,0,1.08,.1,1.55,.3,.47,.2,.82,.47,1.06,.8s.4,.72,.49,1.17c.06,.29,.09,.81,.09,1.54v5.74h-1.58v-5.68c0-.64-.06-1.13-.18-1.45s-.34-.57-.66-.76-.68-.29-1.1-.29c-.67,0-1.26,.21-1.75,.64s-.73,1.24-.73,2.43v5.1h-1.58Z" style="fill:#0333ff;"/><path d="M824.84,420.49l.23,1.4c-.45,.09-.84,.14-1.2,.14-.57,0-1.02-.09-1.34-.27s-.54-.42-.67-.72-.19-.92-.19-1.87v-5.37h-1.16v-1.23h1.16v-2.31l1.57-.95v3.26h1.59v1.23h-1.59v5.46c0,.45,.03,.74,.08,.87s.15,.23,.27,.31c.12,.08,.31,.11,.54,.11,.18,0,.41-.02,.69-.06Z" style="fill:#0333ff;"/><path d="M828.51,421.9l-2.86-9.33h1.63l1.49,5.39,.55,2c.02-.1,.18-.74,.48-1.92l1.49-5.47h1.63l1.4,5.41,.47,1.78,.54-1.8,1.6-5.4h1.54l-2.92,9.33h-1.64l-1.49-5.59-.36-1.59-1.89,7.18h-1.65Z" style="fill:#0333ff;"/><path d="M839.73,410.84v-1.82h1.58v1.82h-1.58Zm0,11.07v-9.33h1.58v9.33h-1.58Z" style="fill:#0333ff;"/><path d="M849.69,418.49l1.56,.2c-.17,1.07-.61,1.91-1.31,2.52s-1.56,.91-2.58,.91c-1.28,0-2.3-.42-3.08-1.25s-1.16-2.03-1.16-3.59c0-1.01,.17-1.89,.5-2.65s.84-1.32,1.52-1.7,1.43-.57,2.23-.57c1.01,0,1.84,.26,2.49,.77s1.06,1.24,1.24,2.18l-1.54,.24c-.15-.63-.41-1.1-.78-1.42s-.82-.47-1.35-.47c-.8,0-1.44,.29-1.94,.86s-.75,1.48-.75,2.71,.24,2.17,.72,2.73,1.11,.85,1.88,.85c.62,0,1.14-.19,1.56-.57s.68-.97,.79-1.76Z" style="fill:#0333ff;"/><path d="M852.63,421.9v-12.88h1.58v7.35l3.74-3.8h2.05l-3.57,3.46,3.93,5.87h-1.95l-3.08-4.77-1.12,1.07v3.7h-1.58Z" style="fill:#0333ff;"/><path d="M867.45,418.9l1.63,.2c-.26,.96-.74,1.7-1.43,2.22s-1.59,.79-2.67,.79c-1.37,0-2.45-.42-3.25-1.26-.8-.84-1.2-2.02-1.2-3.54s.4-2.79,1.21-3.66,1.86-1.3,3.15-1.3,2.27,.42,3.06,1.27,1.19,2.04,1.19,3.59c0,.09,0,.23,0,.42h-6.96c.06,1.03,.35,1.81,.87,2.36s1.17,.82,1.95,.82c.58,0,1.08-.15,1.49-.46s.74-.79,.98-1.46Zm-5.19-2.56h5.21c-.07-.79-.27-1.37-.6-1.77-.5-.61-1.16-.91-1.96-.91-.73,0-1.34,.24-1.83,.73s-.77,1.14-.82,1.95Z" style="fill:#0333ff;"/><path d="M870.94,421.9v-12.88h1.58v12.88h-1.58Z" style="fill:#0333ff;"/><path d="M878.23,420.49l.23,1.4c-.45,.09-.84,.14-1.2,.14-.57,0-1.02-.09-1.34-.27s-.54-.42-.67-.72-.19-.92-.19-1.87v-5.37h-1.16v-1.23h1.16v-2.31l1.57-.95v3.26h1.59v1.23h-1.59v5.46c0,.45,.03,.74,.08,.87s.15,.23,.27,.31c.12,.08,.31,.11,.54,.11,.18,0,.41-.02,.69-.06Z" style="fill:#0333ff;"/><path d="M670.62,445.9v-1.37c-.73,1.05-1.71,1.58-2.96,1.58-.55,0-1.07-.11-1.54-.32s-.83-.48-1.06-.8c-.23-.32-.39-.71-.49-1.17-.06-.31-.1-.8-.1-1.48v-5.78h1.58v5.18c0,.83,.03,1.38,.1,1.67,.1,.42,.31,.74,.63,.98s.72,.36,1.2,.36,.92-.12,1.34-.36,.71-.57,.88-.99,.26-1.03,.26-1.82v-5h1.58v9.33h-1.42Z" style="fill:#0333ff;"/><path d="M674.32,445.9v-9.33h1.42v1.33c.69-1.03,1.68-1.54,2.97-1.54,.56,0,1.08,.1,1.55,.3,.47,.2,.82,.47,1.06,.8s.4,.72,.49,1.17c.06,.29,.09,.81,.09,1.54v5.74h-1.58v-5.68c0-.64-.06-1.13-.18-1.45s-.34-.57-.66-.76-.68-.29-1.1-.29c-.67,0-1.26,.21-1.75,.64s-.73,1.24-.73,2.43v5.1h-1.58Z" style="fill:#0333ff;"/><path d="M690.26,445.9v-1.18c-.59,.93-1.46,1.39-2.61,1.39-.74,0-1.43-.21-2.05-.62-.62-.41-1.11-.98-1.45-1.72-.34-.74-.51-1.58-.51-2.54s.16-1.78,.47-2.54,.78-1.34,1.4-1.74,1.32-.61,2.08-.61c.56,0,1.06,.12,1.5,.36s.8,.55,1.07,.93v-4.62h1.57v12.88h-1.47Zm-5-4.66c0,1.2,.25,2.09,.76,2.68s1.1,.89,1.78,.89,1.28-.28,1.76-.85c.48-.57,.73-1.43,.73-2.59,0-1.28-.25-2.21-.74-2.81s-1.1-.9-1.82-.9-1.29,.29-1.76,.86c-.47,.57-.71,1.48-.71,2.72Z" style="fill:#0333ff;"/><path d="M700.67,445.9h-1.47v-12.88h1.58v4.6c.67-.84,1.52-1.26,2.56-1.26,.57,0,1.12,.12,1.63,.35s.93,.56,1.27,.98,.59,.92,.78,1.52,.28,1.22,.28,1.9c0,1.6-.4,2.84-1.19,3.71s-1.74,1.31-2.85,1.31-1.97-.46-2.59-1.38v1.17Zm-.02-4.74c0,1.12,.15,1.93,.46,2.43,.5,.81,1.17,1.22,2.02,1.22,.69,0,1.29-.3,1.79-.9s.76-1.5,.76-2.69-.24-2.12-.73-2.7c-.48-.58-1.07-.87-1.75-.87s-1.29,.3-1.79,.9-.76,1.47-.76,2.61Z" style="fill:#0333ff;"/><path d="M715.52,442.9l1.63,.2c-.26,.96-.74,1.7-1.43,2.22s-1.59,.79-2.67,.79c-1.37,0-2.45-.42-3.25-1.26-.8-.84-1.2-2.02-1.2-3.54s.4-2.79,1.21-3.66,1.86-1.3,3.15-1.3,2.27,.42,3.06,1.27,1.19,2.04,1.19,3.59c0,.09,0,.23,0,.42h-6.96c.06,1.03,.35,1.81,.87,2.36s1.17,.82,1.95,.82c.58,0,1.08-.15,1.49-.46s.74-.79,.98-1.46Zm-5.19-2.56h5.21c-.07-.79-.27-1.37-.6-1.77-.5-.61-1.16-.91-1.96-.91-.73,0-1.34,.24-1.83,.73s-.77,1.14-.82,1.95Z" style="fill:#0333ff;"/><path d="M722.28,444.49l.23,1.4c-.45,.09-.84,.14-1.2,.14-.57,0-1.02-.09-1.34-.27s-.54-.42-.67-.72-.19-.92-.19-1.87v-5.37h-1.16v-1.23h1.16v-2.31l1.57-.95v3.26h1.59v1.23h-1.59v5.46c0,.45,.03,.74,.08,.87s.15,.23,.27,.31c.12,.08,.31,.11,.54,.11,.18,0,.41-.02,.69-.06Z" style="fill:#0333ff;"/><path d="M723.76,445.9v-9.33h1.42v1.42c.36-.66,.7-1.1,1.01-1.31,.31-.21,.65-.32,1.01-.32,.53,0,1.08,.17,1.63,.51l-.54,1.47c-.39-.23-.77-.34-1.16-.34-.35,0-.66,.1-.93,.31s-.47,.5-.59,.87c-.18,.56-.26,1.18-.26,1.85v4.89h-1.58Z" style="fill:#0333ff;"/><path d="M729.91,434.84v-1.82h1.58v1.82h-1.58Zm0,11.07v-9.33h1.58v9.33h-1.58Z" style="fill:#0333ff;"/><path d="M740.2,442.9l1.63,.2c-.26,.96-.74,1.7-1.43,2.22s-1.59,.79-2.67,.79c-1.37,0-2.45-.42-3.25-1.26-.8-.84-1.2-2.02-1.2-3.54s.4-2.79,1.21-3.66,1.86-1.3,3.15-1.3,2.27,.42,3.06,1.27,1.19,2.04,1.19,3.59c0,.09,0,.23,0,.42h-6.96c.06,1.03,.35,1.81,.87,2.36s1.17,.82,1.95,.82c.58,0,1.08-.15,1.49-.46s.74-.79,.98-1.46Zm-5.19-2.56h5.21c-.07-.79-.27-1.37-.6-1.77-.5-.61-1.16-.91-1.96-.91-.73,0-1.34,.24-1.83,.73s-.77,1.14-.82,1.95Z" style="fill:#0333ff;"/><path d="M745.14,445.9h-1.47v-12.88h1.58v4.6c.67-.84,1.52-1.26,2.56-1.26,.57,0,1.12,.12,1.63,.35s.93,.56,1.27,.98,.59,.92,.78,1.52,.28,1.22,.28,1.9c0,1.6-.4,2.84-1.19,3.71s-1.74,1.31-2.85,1.31-1.97-.46-2.59-1.38v1.17Zm-.02-4.74c0,1.12,.15,1.93,.46,2.43,.5,.81,1.17,1.22,2.02,1.22,.69,0,1.29-.3,1.79-.9s.76-1.5,.76-2.69-.24-2.12-.73-2.7c-.48-.58-1.07-.87-1.75-.87s-1.29,.3-1.79,.9-.76,1.47-.76,2.61Z" style="fill:#0333ff;"/><path d="M759.99,442.9l1.63,.2c-.26,.96-.74,1.7-1.43,2.22s-1.59,.79-2.67,.79c-1.37,0-2.45-.42-3.25-1.26-.8-.84-1.2-2.02-1.2-3.54s.4-2.79,1.21-3.66,1.86-1.3,3.15-1.3,2.27,.42,3.06,1.27,1.19,2.04,1.19,3.59c0,.09,0,.23,0,.42h-6.96c.06,1.03,.35,1.81,.87,2.36s1.17,.82,1.95,.82c.58,0,1.08-.15,1.49-.46s.74-.79,.98-1.46Zm-5.19-2.56h5.21c-.07-.79-.27-1.37-.6-1.77-.5-.61-1.16-.91-1.96-.91-.73,0-1.34,.24-1.83,.73s-.77,1.14-.82,1.95Z" style="fill:#0333ff;"/><path d="M763.48,445.9v-9.33h1.42v1.33c.69-1.03,1.68-1.54,2.97-1.54,.56,0,1.08,.1,1.55,.3,.47,.2,.82,.47,1.06,.8s.4,.72,.49,1.17c.06,.29,.09,.81,.09,1.54v5.74h-1.58v-5.68c0-.64-.06-1.13-.18-1.45s-.34-.57-.66-.76-.68-.29-1.1-.29c-.67,0-1.26,.21-1.75,.64s-.73,1.24-.73,2.43v5.1h-1.58Z" style="fill:#0333ff;"/><path d="M780.21,445.9l-2.86-9.33h1.63l1.49,5.39,.55,2c.02-.1,.18-.74,.48-1.92l1.49-5.47h1.63l1.4,5.41,.47,1.78,.54-1.8,1.6-5.4h1.54l-2.92,9.33h-1.64l-1.49-5.59-.36-1.59-1.89,7.18h-1.65Z" style="fill:#0333ff;"/><path d="M797.56,442.9l1.63,.2c-.26,.96-.74,1.7-1.43,2.22s-1.59,.79-2.67,.79c-1.37,0-2.45-.42-3.25-1.26-.8-.84-1.2-2.02-1.2-3.54s.4-2.79,1.21-3.66,1.86-1.3,3.15-1.3,2.27,.42,3.06,1.27,1.19,2.04,1.19,3.59c0,.09,0,.23,0,.42h-6.96c.06,1.03,.35,1.81,.87,2.36s1.17,.82,1.95,.82c.58,0,1.08-.15,1.49-.46s.74-.79,.98-1.46Zm-5.19-2.56h5.21c-.07-.79-.27-1.37-.6-1.77-.5-.61-1.16-.91-1.96-.91-.73,0-1.34,.24-1.83,.73s-.77,1.14-.82,1.95Z" style="fill:#0333ff;"/><path d="M801.04,445.9v-9.33h1.42v1.42c.36-.66,.7-1.1,1.01-1.31,.31-.21,.65-.32,1.01-.32,.53,0,1.08,.17,1.63,.51l-.54,1.47c-.39-.23-.77-.34-1.16-.34-.35,0-.66,.1-.93,.31s-.47,.5-.59,.87c-.18,.56-.26,1.18-.26,1.85v4.89h-1.58Z" style="fill:#0333ff;"/><path d="M813,445.9v-1.18c-.59,.93-1.46,1.39-2.61,1.39-.74,0-1.43-.21-2.05-.62-.62-.41-1.11-.98-1.45-1.72-.34-.74-.51-1.58-.51-2.54s.16-1.78,.47-2.54,.78-1.34,1.4-1.74,1.32-.61,2.08-.61c.56,0,1.06,.12,1.5,.36s.8,.55,1.07,.93v-4.62h1.57v12.88h-1.47Zm-5-4.66c0,1.2,.25,2.09,.76,2.68s1.1,.89,1.78,.89,1.28-.28,1.76-.85c.48-.57,.73-1.43,.73-2.59,0-1.28-.25-2.21-.74-2.81s-1.1-.9-1.82-.9-1.29,.29-1.76,.86c-.47,.57-.71,1.48-.71,2.72Z" style="fill:#0333ff;"/><path d="M823.2,442.9l1.63,.2c-.26,.96-.74,1.7-1.43,2.22s-1.59,.79-2.67,.79c-1.37,0-2.45-.42-3.25-1.26-.8-.84-1.2-2.02-1.2-3.54s.4-2.79,1.21-3.66,1.86-1.3,3.15-1.3,2.27,.42,3.06,1.27,1.19,2.04,1.19,3.59c0,.09,0,.23,0,.42h-6.96c.06,1.03,.35,1.81,.87,2.36s1.17,.82,1.95,.82c.58,0,1.08-.15,1.49-.46s.74-.79,.98-1.46Zm-5.19-2.56h5.21c-.07-.79-.27-1.37-.6-1.77-.5-.61-1.16-.91-1.96-.91-.73,0-1.34,.24-1.83,.73s-.77,1.14-.82,1.95Z" style="fill:#0333ff;"/><path d="M826.69,445.9v-9.33h1.42v1.33c.69-1.03,1.68-1.54,2.97-1.54,.56,0,1.08,.1,1.55,.3,.47,.2,.82,.47,1.06,.8s.4,.72,.49,1.17c.06,.29,.09,.81,.09,1.54v5.74h-1.58v-5.68c0-.64-.06-1.13-.18-1.45s-.34-.57-.66-.76-.68-.29-1.1-.29c-.67,0-1.26,.21-1.75,.64s-.73,1.24-.73,2.43v5.1h-1.58Z" style="fill:#0333ff;"/><path d="M838.73,442.73c0-.21,0-.37,0-.47,0-.62,.09-1.16,.26-1.61,.13-.34,.34-.68,.62-1.03,.21-.25,.59-.62,1.14-1.1,.55-.48,.9-.87,1.07-1.16s.25-.6,.25-.94c0-.62-.24-1.16-.72-1.62s-1.07-.7-1.77-.7-1.24,.21-1.69,.63-.75,1.08-.89,1.98l-1.63-.19c.15-1.2,.58-2.12,1.3-2.76s1.68-.96,2.87-.96c1.26,0,2.26,.34,3.01,1.03s1.12,1.51,1.12,2.49c0,.56-.13,1.08-.4,1.56s-.78,1.05-1.55,1.73c-.52,.46-.85,.79-1.01,1.01s-.28,.47-.35,.75-.12,.74-.13,1.37h-1.52Zm-.1,3.17v-1.8h1.8v1.8h-1.8Z" style="fill:#0333ff;"/></g></svg>