<?xml version="1.0" encoding="UTF-8"?><svg id="a" xmlns="http://www.w3.org/2000/svg" viewBox="0 0 988 525"><defs><style>.b{letter-spacing:-.02em;}.c,.d,.e{fill:#1d1d1b;}.c,.f,.e{font-family:Arial-BoldMT, Arial;}.c,.f,.e,.g,.h{font-size:16px;}.i,.g{fill:#0333ff;}.j{fill-rule:evenodd;stroke-width:2px;}.j,.k{fill:#fff;}.j,.l{stroke:#1d1d1b;stroke-miterlimit:10;}.f,.e,.m,.h{isolation:isolate;}.k{font-family:CourierNewPS-BoldMT, Courier New;font-size:20px;}.n{letter-spacing:-.07em;}.o{letter-spacing:-.06em;}.p{letter-spacing:-.11em;}.l{fill:none;}.g,.h{font-family:ArialMT, Arial;}</style></defs><g><polygon points="470.97 253.99 233.31 253.99 247.06 267.74 233.31 281.49 470.97 281.49 484.72 267.74 470.97 253.99"/><polygon points="227.66 253.99 182.7 253.99 182.7 281.49 227.66 281.49 241.41 267.74 227.66 253.99"/><polygon points="755.97 253.99 716.22 253.99 729.97 267.74 716.22 281.49 755.97 281.49 755.97 253.99"/><polygon points="710.57 253.99 476.63 253.99 490.38 267.74 476.63 281.49 710.57 281.49 724.32 267.74 710.57 253.99"/></g><g class="m"><path d="M136.51,98.73v-11.45h4.32c.76,0,1.34,.04,1.74,.11,.56,.09,1.03,.27,1.41,.54,.38,.26,.69,.63,.92,1.11,.23,.47,.35,1,.35,1.56,0,.97-.31,1.8-.93,2.47-.62,.67-1.74,1.01-3.36,1.01h-2.94v4.66h-1.52Zm1.52-6.01h2.96c.98,0,1.67-.18,2.09-.55,.41-.36,.62-.88,.62-1.54,0-.48-.12-.89-.36-1.23-.24-.34-.56-.57-.96-.68-.25-.07-.73-.1-1.41-.1h-2.93v4.09Z"/><path d="M146.97,98.73v-11.45h1.41v11.45h-1.41Z"/><path d="M155.97,97.71c-.52,.44-1.02,.76-1.5,.94s-1,.27-1.55,.27c-.91,0-1.61-.22-2.1-.67s-.73-1.01-.73-1.71c0-.41,.09-.78,.28-1.11s.43-.61,.73-.81,.64-.36,1.01-.46c.28-.07,.69-.14,1.25-.21,1.14-.14,1.97-.3,2.51-.48,0-.19,0-.31,0-.37,0-.57-.13-.98-.4-1.21-.36-.32-.89-.48-1.6-.48-.66,0-1.15,.12-1.46,.35-.32,.23-.55,.64-.7,1.23l-1.38-.19c.12-.59,.33-1.06,.62-1.43,.29-.36,.7-.64,1.24-.84s1.17-.29,1.88-.29,1.28,.08,1.73,.25c.44,.17,.77,.38,.98,.63,.21,.25,.35,.57,.44,.96,.05,.24,.07,.67,.07,1.3v1.88c0,1.31,.03,2.13,.09,2.48,.06,.35,.18,.68,.36,1h-1.47c-.15-.29-.24-.63-.28-1.02Zm-.12-3.14c-.51,.21-1.28,.39-2.3,.53-.58,.08-.99,.18-1.23,.28-.24,.1-.42,.26-.55,.46-.13,.2-.2,.42-.2,.67,0,.38,.14,.69,.43,.94s.7,.38,1.25,.38,1.02-.12,1.45-.36c.42-.24,.73-.56,.93-.97,.15-.32,.23-.79,.23-1.41v-.52Z"/><path d="M162.53,97.47l.2,1.24c-.4,.08-.75,.12-1.06,.12-.51,0-.91-.08-1.19-.24s-.48-.37-.59-.64c-.11-.26-.17-.82-.17-1.66v-4.77h-1.03v-1.09h1.03v-2.05l1.4-.84v2.9h1.41v1.09h-1.41v4.85c0,.4,.02,.66,.07,.77,.05,.11,.13,.21,.24,.27,.11,.07,.27,.1,.48,.1,.16,0,.36-.02,.62-.05Z"/><path d="M163.16,98.73v-1.14l5.28-6.06c-.6,.03-1.13,.05-1.59,.05h-3.38v-1.14h6.78v.93l-4.49,5.27-.87,.96c.63-.05,1.22-.07,1.77-.07h3.84v1.21h-7.34Z"/><path d="M177.58,96.06l1.45,.18c-.23,.85-.65,1.51-1.27,1.98s-1.41,.7-2.38,.7c-1.21,0-2.18-.37-2.89-1.12-.71-.75-1.07-1.8-1.07-3.14s.36-2.48,1.08-3.25c.72-.77,1.65-1.16,2.8-1.16s2.02,.38,2.72,1.13c.7,.76,1.05,1.82,1.05,3.19,0,.08,0,.21,0,.38h-6.19c.05,.91,.31,1.61,.77,2.09s1.04,.73,1.73,.73c.52,0,.96-.14,1.32-.41,.36-.27,.65-.7,.87-1.3Zm-4.62-2.27h4.63c-.06-.7-.24-1.22-.53-1.57-.45-.54-1.03-.81-1.74-.81-.65,0-1.19,.22-1.63,.65-.44,.43-.68,1.01-.73,1.73Z"/><path d="M180.8,98.73v-8.3h1.27v1.18c.61-.91,1.49-1.37,2.64-1.37,.5,0,.96,.09,1.38,.27s.73,.42,.94,.71c.21,.29,.35,.64,.44,1.04,.05,.26,.08,.72,.08,1.37v5.1h-1.41v-5.05c0-.57-.05-1-.16-1.29-.11-.28-.3-.51-.58-.68-.28-.17-.61-.25-.98-.25-.6,0-1.12,.19-1.55,.57-.43,.38-.65,1.1-.65,2.16v4.53h-1.41Z"/><path d="M199.53,98.73v-1.05c-.53,.82-1.3,1.23-2.32,1.23-.66,0-1.27-.18-1.82-.55s-.98-.87-1.29-1.53c-.3-.65-.46-1.4-.46-2.25s.14-1.58,.41-2.25c.28-.67,.69-1.19,1.24-1.55s1.17-.54,1.85-.54c.5,0,.95,.11,1.34,.32s.71,.49,.95,.82v-4.11h1.4v11.45h-1.3Zm-4.45-4.14c0,1.06,.22,1.86,.67,2.38,.45,.53,.98,.79,1.59,.79s1.14-.25,1.57-.75c.43-.5,.64-1.27,.64-2.3,0-1.14-.22-1.97-.66-2.5s-.98-.8-1.62-.8-1.15,.26-1.57,.77c-.42,.51-.63,1.32-.63,2.41Z"/><path d="M208.72,96.06l1.45,.18c-.23,.85-.65,1.51-1.27,1.98s-1.41,.7-2.38,.7c-1.21,0-2.18-.37-2.89-1.12-.71-.75-1.07-1.8-1.07-3.14s.36-2.48,1.08-3.25c.72-.77,1.65-1.16,2.8-1.16s2.02,.38,2.72,1.13c.7,.76,1.05,1.82,1.05,3.19,0,.08,0,.21,0,.38h-6.19c.05,.91,.31,1.61,.77,2.09s1.04,.73,1.73,.73c.52,0,.96-.14,1.32-.41,.36-.27,.65-.7,.87-1.3Zm-4.62-2.27h4.63c-.06-.7-.24-1.22-.53-1.57-.45-.54-1.03-.81-1.74-.81-.65,0-1.19,.22-1.63,.65-.44,.43-.68,1.01-.73,1.73Z"/><path d="M211.93,98.73v-8.3h1.27v1.26c.32-.59,.62-.98,.89-1.16s.57-.28,.9-.28c.47,0,.96,.15,1.45,.45l-.48,1.3c-.34-.2-.69-.3-1.03-.3-.31,0-.58,.09-.83,.28-.25,.19-.42,.44-.52,.77-.16,.5-.23,1.05-.23,1.64v4.34h-1.41Z"/><path d="M136.25,117.93v-1.63h1.51v1.29c0,.7-.08,1.2-.24,1.51-.22,.42-.57,.74-1.05,.95l-.34-.55c.28-.11,.49-.3,.63-.54,.14-.25,.21-.59,.23-1.02h-.73Z"/><path d="M140.07,117.93v-11.45h3.95c.89,0,1.57,.05,2.04,.16,.66,.15,1.22,.42,1.68,.82,.6,.51,1.06,1.16,1.36,1.96,.3,.79,.45,1.7,.45,2.72,0,.87-.1,1.64-.3,2.31s-.46,1.23-.78,1.67c-.32,.44-.67,.79-1.04,1.04-.38,.25-.83,.44-1.37,.57-.53,.13-1.15,.2-1.84,.2h-4.13Zm1.52-1.35h2.45c.75,0,1.35-.07,1.78-.21s.77-.34,1.03-.59c.36-.36,.64-.84,.84-1.45,.2-.61,.3-1.34,.3-2.21,0-1.2-.2-2.12-.59-2.76-.39-.64-.87-1.07-1.43-1.29-.41-.16-1.06-.23-1.96-.23h-2.41v8.75Z"/><path d="M150.92,113.78c0-1.54,.43-2.67,1.28-3.41,.71-.61,1.58-.92,2.61-.92,1.14,0,2.07,.37,2.8,1.12,.72,.75,1.09,1.78,1.09,3.1,0,1.07-.16,1.91-.48,2.52-.32,.61-.79,1.09-1.4,1.43s-1.28,.51-2,.51c-1.16,0-2.1-.37-2.82-1.12-.72-.74-1.07-1.82-1.07-3.22Zm1.45,0c0,1.06,.23,1.86,.7,2.39,.46,.53,1.05,.79,1.75,.79s1.28-.27,1.74-.8,.7-1.34,.7-2.43c0-1.03-.23-1.8-.7-2.33-.47-.53-1.05-.79-1.74-.79s-1.29,.26-1.75,.79c-.46,.53-.7,1.32-.7,2.38Z"/><path d="M163.41,116.67l.2,1.24c-.4,.08-.75,.12-1.06,.12-.51,0-.91-.08-1.19-.24s-.48-.37-.59-.64c-.11-.26-.17-.82-.17-1.66v-4.77h-1.03v-1.09h1.03v-2.05l1.4-.84v2.9h1.41v1.09h-1.41v4.85c0,.4,.02,.66,.07,.77,.05,.11,.13,.21,.24,.27,.11,.07,.27,.1,.48,.1,.16,0,.36-.02,.62-.05Z"/><path d="M170.2,114.89l1.38,.18c-.15,.95-.54,1.7-1.16,2.24s-1.39,.81-2.29,.81c-1.14,0-2.05-.37-2.74-1.11s-1.04-1.81-1.04-3.19c0-.9,.15-1.68,.45-2.35s.75-1.18,1.36-1.51,1.27-.5,1.98-.5c.9,0,1.64,.23,2.21,.68,.57,.46,.94,1.1,1.1,1.94l-1.37,.21c-.13-.56-.36-.98-.69-1.26s-.73-.42-1.2-.42c-.71,0-1.28,.25-1.73,.76s-.66,1.31-.66,2.41,.21,1.92,.64,2.43c.43,.51,.98,.76,1.67,.76,.55,0,1.01-.17,1.38-.51,.37-.34,.6-.86,.7-1.56Z"/><path d="M172.26,113.78c0-1.54,.43-2.67,1.28-3.41,.71-.61,1.58-.92,2.61-.92,1.14,0,2.07,.37,2.8,1.12,.72,.75,1.09,1.78,1.09,3.1,0,1.07-.16,1.91-.48,2.52-.32,.61-.79,1.09-1.4,1.43s-1.28,.51-2,.51c-1.16,0-2.1-.37-2.82-1.12-.72-.74-1.07-1.82-1.07-3.22Zm1.45,0c0,1.06,.23,1.86,.7,2.39,.46,.53,1.05,.79,1.75,.79s1.28-.27,1.74-.8,.7-1.34,.7-2.43c0-1.03-.23-1.8-.7-2.33-.47-.53-1.05-.79-1.74-.79s-1.29,.26-1.75,.79c-.46,.53-.7,1.32-.7,2.38Z"/><path d="M181.68,117.93v-8.3h1.26v1.16c.26-.41,.61-.73,1.04-.98,.43-.25,.92-.37,1.48-.37,.61,0,1.12,.13,1.51,.38,.39,.26,.67,.61,.83,1.07,.66-.97,1.51-1.45,2.56-1.45,.82,0,1.46,.23,1.9,.68,.44,.46,.66,1.16,.66,2.11v5.7h-1.4v-5.23c0-.56-.05-.97-.14-1.21-.09-.25-.26-.45-.5-.6-.24-.15-.52-.23-.84-.23-.58,0-1.07,.19-1.45,.58-.39,.39-.58,1.01-.58,1.86v4.82h-1.41v-5.39c0-.62-.11-1.09-.34-1.41s-.6-.47-1.12-.47c-.4,0-.76,.1-1.1,.31-.34,.21-.58,.51-.73,.91-.15,.4-.23,.98-.23,1.73v4.3h-1.41Z"/><path d="M194.46,114.5v-1.41h4.32v1.41h-4.32Z"/><path d="M200.46,117.93v-11.45h4.3c.88,0,1.58,.12,2.11,.35,.53,.23,.94,.59,1.24,1.07,.3,.48,.45,.99,.45,1.51,0,.49-.13,.95-.4,1.38-.27,.43-.67,.78-1.2,1.05,.69,.2,1.23,.55,1.6,1.04,.37,.49,.56,1.07,.56,1.73,0,.54-.11,1.04-.34,1.5s-.51,.82-.84,1.07-.75,.44-1.25,.57c-.5,.13-1.12,.19-1.85,.19h-4.37Zm1.52-6.64h2.48c.67,0,1.15-.04,1.45-.13,.39-.11,.68-.3,.87-.57s.29-.6,.29-1c0-.38-.09-.71-.27-1s-.44-.49-.78-.59c-.34-.11-.92-.16-1.74-.16h-2.29v3.46Zm0,5.29h2.85c.49,0,.83-.02,1.03-.05,.35-.06,.64-.17,.88-.31,.23-.15,.43-.36,.58-.64,.15-.28,.23-.6,.23-.96,0-.43-.11-.8-.33-1.11-.22-.31-.52-.54-.91-.66-.39-.13-.95-.19-1.68-.19h-2.65v3.94Z"/><path d="M210.98,117.93v-11.45h1.41v11.45h-1.41Z"/><path d="M219.98,116.91c-.52,.44-1.02,.76-1.5,.94s-1,.27-1.55,.27c-.91,0-1.61-.22-2.1-.67s-.73-1.01-.73-1.71c0-.41,.09-.78,.28-1.11s.43-.61,.73-.81,.64-.36,1.01-.46c.28-.07,.69-.14,1.25-.21,1.14-.14,1.97-.3,2.51-.48,0-.19,0-.31,0-.37,0-.57-.13-.98-.4-1.21-.36-.32-.89-.48-1.6-.48-.66,0-1.15,.12-1.46,.35-.32,.23-.55,.64-.7,1.23l-1.38-.19c.12-.59,.33-1.06,.62-1.43,.29-.36,.7-.64,1.24-.84s1.17-.29,1.88-.29,1.28,.08,1.73,.25c.44,.17,.77,.38,.98,.63,.21,.25,.35,.57,.44,.96,.05,.24,.07,.67,.07,1.3v1.88c0,1.31,.03,2.13,.09,2.48,.06,.35,.18,.68,.36,1h-1.47c-.15-.29-.24-.63-.28-1.02Zm-.12-3.14c-.51,.21-1.28,.39-2.3,.53-.58,.08-.99,.18-1.23,.28-.24,.1-.42,.26-.55,.46-.13,.2-.2,.42-.2,.67,0,.38,.14,.69,.43,.94s.7,.38,1.25,.38,1.02-.12,1.45-.36c.42-.24,.73-.56,.93-.97,.15-.32,.23-.79,.23-1.41v-.52Z"/><path d="M222.9,115.46l1.39-.22c.08,.56,.3,.98,.65,1.28s.86,.45,1.5,.45,1.12-.13,1.44-.39c.31-.26,.47-.57,.47-.93,0-.32-.14-.57-.41-.75-.19-.12-.67-.28-1.44-.48-1.03-.26-1.75-.49-2.14-.68-.4-.19-.7-.45-.91-.79s-.31-.71-.31-1.11c0-.37,.08-.71,.25-1.03,.17-.31,.4-.58,.69-.79,.22-.16,.52-.3,.89-.41,.38-.11,.78-.17,1.21-.17,.65,0,1.22,.09,1.71,.28s.86,.44,1.09,.76,.4,.75,.48,1.29l-1.38,.19c-.06-.43-.24-.76-.54-1-.3-.24-.72-.36-1.27-.36-.65,0-1.11,.11-1.38,.32-.28,.21-.41,.46-.41,.75,0,.18,.06,.35,.17,.49,.11,.15,.29,.28,.54,.38,.14,.05,.55,.17,1.24,.36,1,.27,1.69,.48,2.08,.65,.39,.17,.7,.42,.93,.74,.22,.32,.34,.72,.34,1.2s-.14,.91-.41,1.32-.67,.73-1.18,.96-1.1,.34-1.75,.34c-1.08,0-1.9-.22-2.46-.67-.57-.45-.93-1.11-1.08-1.99Z"/><path d="M237.14,115.26l1.45,.18c-.23,.85-.65,1.51-1.27,1.98s-1.41,.7-2.38,.7c-1.21,0-2.18-.37-2.89-1.12-.71-.75-1.07-1.8-1.07-3.14s.36-2.48,1.08-3.25c.72-.77,1.65-1.16,2.8-1.16s2.02,.38,2.72,1.13c.7,.76,1.05,1.82,1.05,3.19,0,.08,0,.21,0,.38h-6.19c.05,.91,.31,1.61,.77,2.09s1.04,.73,1.73,.73c.52,0,.96-.14,1.32-.41,.36-.27,.65-.7,.87-1.3Zm-4.62-2.27h4.63c-.06-.7-.24-1.22-.53-1.57-.45-.54-1.03-.81-1.74-.81-.65,0-1.19,.22-1.63,.65-.44,.43-.68,1.01-.73,1.73Z"/><path d="M241.82,108.4v1.63h-1.51v-1.29c0-.7,.08-1.2,.25-1.52,.22-.42,.57-.73,1.04-.95l.34,.55c-.29,.12-.5,.3-.63,.54-.14,.24-.21,.58-.23,1.04h.73Z"/><path d="M139.02,140.5c-.78-.98-1.43-2.12-1.97-3.44s-.8-2.67-.8-4.08c0-1.24,.2-2.43,.6-3.56,.47-1.32,1.19-2.63,2.17-3.94h1.01c-.63,1.08-1.05,1.86-1.25,2.32-.32,.72-.57,1.47-.75,2.25-.22,.97-.34,1.95-.34,2.94,0,2.51,.78,5.01,2.34,7.51h-1.01Z"/><path d="M141.82,137.13v-11.45h1.55l6.02,8.99v-8.99h1.45v11.45h-1.55l-6.02-9v9h-1.45Z"/><path d="M158.89,134.46l1.45,.18c-.23,.85-.65,1.51-1.27,1.98s-1.41,.7-2.38,.7c-1.21,0-2.18-.37-2.89-1.12-.71-.75-1.07-1.8-1.07-3.14s.36-2.48,1.08-3.25c.72-.77,1.65-1.16,2.8-1.16s2.02,.38,2.72,1.13c.7,.76,1.05,1.82,1.05,3.19,0,.08,0,.21,0,.38h-6.19c.05,.91,.31,1.61,.77,2.09s1.04,.73,1.73,.73c.52,0,.96-.14,1.32-.41,.36-.27,.65-.7,.87-1.3Zm-4.62-2.27h4.63c-.06-.7-.24-1.22-.53-1.57-.45-.54-1.03-.81-1.74-.81-.65,0-1.19,.22-1.63,.65-.44,.43-.68,1.01-.73,1.73Z"/><path d="M163.64,137.13l-2.54-8.3h1.45l1.32,4.79,.49,1.78c.02-.09,.16-.66,.43-1.71l1.32-4.86h1.45l1.24,4.81,.41,1.59,.48-1.6,1.42-4.8h1.37l-2.59,8.3h-1.46l-1.32-4.97-.32-1.41-1.68,6.38h-1.47Z"/><path d="M178.32,137.13v-11.45h8.28v1.35h-6.77v3.51h6.34v1.34h-6.34v3.9h7.03v1.35h-8.55Z"/><path d="M194.2,134.09l1.38,.18c-.15,.95-.54,1.7-1.16,2.24s-1.39,.81-2.29,.81c-1.14,0-2.05-.37-2.74-1.11s-1.04-1.81-1.04-3.19c0-.9,.15-1.68,.45-2.35s.75-1.18,1.36-1.51,1.27-.5,1.98-.5c.9,0,1.64,.23,2.21,.68,.57,.46,.94,1.1,1.1,1.94l-1.37,.21c-.13-.56-.36-.98-.69-1.26s-.73-.42-1.2-.42c-.71,0-1.28,.25-1.73,.76s-.66,1.31-.66,2.41,.21,1.92,.64,2.43c.43,.51,.98,.76,1.67,.76,.55,0,1.01-.17,1.38-.51,.37-.34,.6-.86,.7-1.56Z"/><path d="M196.26,132.98c0-1.54,.43-2.67,1.28-3.41,.71-.61,1.58-.92,2.61-.92,1.14,0,2.07,.37,2.8,1.12,.72,.75,1.09,1.78,1.09,3.1,0,1.07-.16,1.91-.48,2.52-.32,.61-.79,1.09-1.4,1.43s-1.28,.51-2,.51c-1.16,0-2.1-.37-2.82-1.12-.72-.74-1.07-1.82-1.07-3.22Zm1.45,0c0,1.06,.23,1.86,.7,2.39,.46,.53,1.05,.79,1.75,.79s1.28-.27,1.74-.8,.7-1.34,.7-2.43c0-1.03-.23-1.8-.7-2.33-.47-.53-1.05-.79-1.74-.79s-1.29,.26-1.75,.79c-.46,.53-.7,1.32-.7,2.38Z"/><path d="M205.68,137.13v-8.3h1.27v1.18c.61-.91,1.49-1.37,2.64-1.37,.5,0,.96,.09,1.38,.27s.73,.42,.94,.71c.21,.29,.35,.64,.44,1.04,.05,.26,.08,.72,.08,1.37v5.1h-1.41v-5.05c0-.57-.05-1-.16-1.29-.11-.28-.3-.51-.58-.68-.28-.17-.61-.25-.98-.25-.6,0-1.12,.19-1.55,.57-.43,.38-.65,1.1-.65,2.16v4.53h-1.41Z"/><path d="M214.06,132.98c0-1.54,.43-2.67,1.28-3.41,.71-.61,1.58-.92,2.61-.92,1.14,0,2.07,.37,2.8,1.12,.72,.75,1.09,1.78,1.09,3.1,0,1.07-.16,1.91-.48,2.52-.32,.61-.79,1.09-1.4,1.43s-1.28,.51-2,.51c-1.16,0-2.1-.37-2.82-1.12-.72-.74-1.07-1.82-1.07-3.22Zm1.45,0c0,1.06,.23,1.86,.7,2.39,.46,.53,1.05,.79,1.75,.79s1.28-.27,1.74-.8,.7-1.34,.7-2.43c0-1.03-.23-1.8-.7-2.33-.47-.53-1.05-.79-1.74-.79s-1.29,.26-1.75,.79c-.46,.53-.7,1.32-.7,2.38Z"/><path d="M223.48,137.13v-8.3h1.26v1.16c.26-.41,.61-.73,1.04-.98,.43-.25,.92-.37,1.48-.37,.61,0,1.12,.13,1.51,.38,.39,.26,.67,.61,.83,1.07,.66-.97,1.51-1.45,2.56-1.45,.82,0,1.46,.23,1.9,.68,.44,.46,.66,1.16,.66,2.11v5.7h-1.4v-5.23c0-.56-.05-.97-.14-1.21-.09-.25-.26-.45-.5-.6-.24-.15-.52-.23-.84-.23-.58,0-1.07,.19-1.45,.58-.39,.39-.58,1.01-.58,1.86v4.82h-1.41v-5.39c0-.62-.11-1.09-.34-1.41s-.6-.47-1.12-.47c-.4,0-.76,.1-1.1,.31-.34,.21-.58,.51-.73,.91-.15,.4-.23,.98-.23,1.73v4.3h-1.41Z"/><path d="M236.75,140.33l-.16-1.32c.31,.08,.58,.12,.8,.12,.31,0,.56-.05,.75-.16,.19-.1,.34-.25,.46-.44,.09-.14,.23-.49,.43-1.05,.03-.08,.07-.19,.12-.34l-3.15-8.31h1.52l1.73,4.8c.22,.61,.42,1.25,.6,1.92,.16-.65,.35-1.28,.58-1.89l1.77-4.84h1.41l-3.16,8.44c-.34,.91-.6,1.54-.79,1.88-.25,.46-.54,.8-.86,1.02-.32,.22-.71,.32-1.16,.32-.27,0-.57-.06-.91-.17Z"/><path d="M245.73,140.5h-1.01c1.56-2.5,2.34-5,2.34-7.51,0-.98-.11-1.95-.34-2.91-.18-.78-.42-1.53-.74-2.25-.2-.47-.62-1.25-1.26-2.34h1.01c.98,1.31,1.7,2.62,2.17,3.94,.4,1.14,.6,2.32,.6,3.56,0,1.41-.27,2.77-.81,4.08s-1.19,2.46-1.96,3.44Z"/></g><g class="m"><path d="M375.01,60.33v-11.45h7.73v1.35h-6.21v3.55h5.38v1.35h-5.38v5.2h-1.52Z"/><path d="M389.94,59.31c-.52,.44-1.02,.76-1.5,.94s-1,.27-1.55,.27c-.91,0-1.61-.22-2.1-.67s-.73-1.01-.73-1.71c0-.41,.09-.78,.28-1.11s.43-.61,.73-.81,.64-.36,1.01-.46c.28-.07,.69-.14,1.25-.21,1.14-.14,1.97-.3,2.51-.48,0-.19,0-.31,0-.37,0-.57-.13-.98-.4-1.21-.36-.32-.89-.48-1.6-.48-.66,0-1.15,.12-1.46,.35-.32,.23-.55,.64-.7,1.23l-1.38-.19c.12-.59,.33-1.06,.62-1.43,.29-.36,.7-.64,1.24-.84s1.17-.29,1.88-.29,1.28,.08,1.73,.25c.44,.17,.77,.38,.98,.63,.21,.25,.35,.57,.44,.96,.05,.24,.07,.67,.07,1.3v1.88c0,1.31,.03,2.13,.09,2.48,.06,.35,.18,.68,.36,1h-1.47c-.15-.29-.24-.63-.28-1.02Zm-.12-3.14c-.51,.21-1.28,.39-2.3,.53-.58,.08-.99,.18-1.23,.28-.24,.1-.42,.26-.55,.46-.13,.2-.2,.42-.2,.67,0,.38,.14,.69,.43,.94s.7,.38,1.25,.38,1.02-.12,1.45-.36c.42-.24,.73-.56,.93-.97,.15-.32,.23-.79,.23-1.41v-.52Z"/><path d="M392.86,57.86l1.39-.22c.08,.56,.3,.98,.65,1.28s.86,.45,1.5,.45,1.12-.13,1.44-.39c.31-.26,.47-.57,.47-.93,0-.32-.14-.57-.41-.75-.19-.12-.67-.28-1.44-.48-1.03-.26-1.75-.49-2.14-.68-.4-.19-.7-.45-.91-.79s-.31-.71-.31-1.11c0-.37,.08-.71,.25-1.03,.17-.31,.4-.58,.69-.79,.22-.16,.52-.3,.89-.41,.38-.11,.78-.17,1.21-.17,.65,0,1.22,.09,1.71,.28s.86,.44,1.09,.76,.4,.75,.48,1.29l-1.38,.19c-.06-.43-.24-.76-.54-1-.3-.24-.72-.36-1.27-.36-.65,0-1.11,.11-1.38,.32-.28,.21-.41,.46-.41,.75,0,.18,.06,.35,.17,.49,.11,.15,.29,.28,.54,.38,.14,.05,.55,.17,1.24,.36,1,.27,1.69,.48,2.08,.65,.39,.17,.7,.42,.93,.74,.22,.32,.34,.72,.34,1.2s-.14,.91-.41,1.32-.67,.73-1.18,.96-1.1,.34-1.75,.34c-1.08,0-1.9-.22-2.46-.67-.57-.45-.93-1.11-1.08-1.99Z"/><path d="M404.49,59.07l.2,1.24c-.4,.08-.75,.12-1.06,.12-.51,0-.91-.08-1.19-.24s-.48-.37-.59-.64c-.11-.26-.17-.82-.17-1.66v-4.77h-1.03v-1.09h1.03v-2.05l1.4-.84v2.9h1.41v1.09h-1.41v4.85c0,.4,.02,.66,.07,.77,.05,.11,.13,.21,.24,.27,.11,.07,.27,.1,.48,.1,.16,0,.36-.02,.62-.05Z"/><path d="M415.7,60.33v-1.05c-.53,.82-1.3,1.23-2.32,1.23-.66,0-1.27-.18-1.82-.55s-.98-.87-1.29-1.53c-.3-.65-.46-1.4-.46-2.25s.14-1.58,.41-2.25c.28-.67,.69-1.19,1.24-1.55s1.17-.54,1.85-.54c.5,0,.95,.11,1.34,.32s.71,.49,.95,.82v-4.11h1.4v11.45h-1.3Zm-4.45-4.14c0,1.06,.22,1.86,.67,2.38,.45,.53,.98,.79,1.59,.79s1.14-.25,1.57-.75c.43-.5,.64-1.27,.64-2.3,0-1.14-.22-1.97-.66-2.5s-.98-.8-1.62-.8-1.15,.26-1.57,.77c-.42,.51-.63,1.32-.63,2.41Z"/><path d="M419.22,50.5v-1.62h1.41v1.62h-1.41Zm0,9.84v-8.3h1.41v8.3h-1.41Z"/><path d="M428.45,57.66l1.45,.18c-.23,.85-.65,1.51-1.27,1.98s-1.41,.7-2.38,.7c-1.21,0-2.18-.37-2.89-1.12-.71-.75-1.07-1.8-1.07-3.14s.36-2.48,1.08-3.25c.72-.77,1.65-1.16,2.8-1.16s2.02,.38,2.72,1.13c.7,.76,1.05,1.82,1.05,3.19,0,.08,0,.21,0,.38h-6.19c.05,.91,.31,1.61,.77,2.09s1.04,.73,1.73,.73c.52,0,.96-.14,1.32-.41,.36-.27,.65-.7,.87-1.3Zm-4.62-2.27h4.63c-.06-.7-.24-1.22-.53-1.57-.45-.54-1.03-.81-1.74-.81-.65,0-1.19,.22-1.63,.65-.44,.43-.68,1.01-.73,1.73Z"/><path d="M436.34,60.33v-11.45h1.52v4.7h5.95v-4.7h1.52v11.45h-1.52v-5.4h-5.95v5.4h-1.52Z"/><path d="M453.08,59.31c-.52,.44-1.02,.76-1.5,.94s-1,.27-1.55,.27c-.91,0-1.61-.22-2.1-.67s-.73-1.01-.73-1.71c0-.41,.09-.78,.28-1.11s.43-.61,.73-.81,.64-.36,1.01-.46c.28-.07,.69-.14,1.25-.21,1.14-.14,1.97-.3,2.51-.48,0-.19,0-.31,0-.37,0-.57-.13-.98-.4-1.21-.36-.32-.89-.48-1.6-.48-.66,0-1.15,.12-1.46,.35-.32,.23-.55,.64-.7,1.23l-1.38-.19c.12-.59,.33-1.06,.62-1.43,.29-.36,.7-.64,1.24-.84s1.17-.29,1.88-.29,1.28,.08,1.73,.25c.44,.17,.77,.38,.98,.63,.21,.25,.35,.57,.44,.96,.05,.24,.07,.67,.07,1.3v1.88c0,1.31,.03,2.13,.09,2.48,.06,.35,.18,.68,.36,1h-1.47c-.15-.29-.24-.63-.28-1.02Zm-.12-3.14c-.51,.21-1.28,.39-2.3,.53-.58,.08-.99,.18-1.23,.28-.24,.1-.42,.26-.55,.46-.13,.2-.2,.42-.2,.67,0,.38,.14,.69,.43,.94s.7,.38,1.25,.38,1.02-.12,1.45-.36c.42-.24,.73-.56,.93-.97,.15-.32,.23-.79,.23-1.41v-.52Zm-4.14-5.76v-1.6h1.47v1.6h-1.47Zm2.91,0v-1.6h1.47v1.6h-1.47Z"/><path d="M456.53,60.33v-11.45h1.41v11.45h-1.41Z"/><path d="M460.46,60.33v-7.2h-1.24v-1.09h1.24v-.88c0-.56,.05-.97,.15-1.24,.14-.36,.37-.66,.71-.89s.82-.34,1.43-.34c.4,0,.83,.05,1.31,.14l-.21,1.23c-.29-.05-.57-.08-.83-.08-.43,0-.73,.09-.91,.27-.18,.18-.27,.52-.27,1.02v.77h1.62v1.09h-1.62v7.2h-1.4Z"/><path d="M467.63,59.07l.2,1.24c-.4,.08-.75,.12-1.06,.12-.51,0-.91-.08-1.19-.24s-.48-.37-.59-.64c-.11-.26-.17-.82-.17-1.66v-4.77h-1.03v-1.09h1.03v-2.05l1.4-.84v2.9h1.41v1.09h-1.41v4.85c0,.4,.02,.66,.07,.77,.05,.11,.13,.21,.24,.27,.11,.07,.27,.1,.48,.1,.16,0,.36-.02,.62-.05Z"/><path d="M474.69,57.66l1.45,.18c-.23,.85-.65,1.51-1.27,1.98s-1.41,.7-2.38,.7c-1.21,0-2.18-.37-2.89-1.12-.71-.75-1.07-1.8-1.07-3.14s.36-2.48,1.08-3.25c.72-.77,1.65-1.16,2.8-1.16s2.02,.38,2.72,1.13c.7,.76,1.05,1.82,1.05,3.19,0,.08,0,.21,0,.38h-6.19c.05,.91,.31,1.61,.77,2.09s1.04,.73,1.73,.73c.52,0,.96-.14,1.32-.41,.36-.27,.65-.7,.87-1.3Zm-4.62-2.27h4.63c-.06-.7-.24-1.22-.53-1.57-.45-.54-1.03-.81-1.74-.81-.65,0-1.19,.22-1.63,.65-.44,.43-.68,1.01-.73,1.73Z"/><path d="M487.74,60.33v-1.05c-.53,.82-1.3,1.23-2.32,1.23-.66,0-1.27-.18-1.82-.55s-.98-.87-1.29-1.53c-.3-.65-.46-1.4-.46-2.25s.14-1.58,.41-2.25c.28-.67,.69-1.19,1.24-1.55s1.17-.54,1.85-.54c.5,0,.95,.11,1.34,.32s.71,.49,.95,.82v-4.11h1.4v11.45h-1.3Zm-4.45-4.14c0,1.06,.22,1.86,.67,2.38,.45,.53,.98,.79,1.59,.79s1.14-.25,1.57-.75c.43-.5,.64-1.27,.64-2.3,0-1.14-.22-1.97-.66-2.5s-.98-.8-1.62-.8-1.15,.26-1.57,.77c-.42,.51-.63,1.32-.63,2.41Z"/><path d="M496.93,57.66l1.45,.18c-.23,.85-.65,1.51-1.27,1.98s-1.41,.7-2.38,.7c-1.21,0-2.18-.37-2.89-1.12-.71-.75-1.07-1.8-1.07-3.14s.36-2.48,1.08-3.25c.72-.77,1.65-1.16,2.8-1.16s2.02,.38,2.72,1.13c.7,.76,1.05,1.82,1.05,3.19,0,.08,0,.21,0,.38h-6.19c.05,.91,.31,1.61,.77,2.09s1.04,.73,1.73,.73c.52,0,.96-.14,1.32-.41,.36-.27,.65-.7,.87-1.3Zm-4.62-2.27h4.63c-.06-.7-.24-1.22-.53-1.57-.45-.54-1.03-.81-1.74-.81-.65,0-1.19,.22-1.63,.65-.44,.43-.68,1.01-.73,1.73Z"/><path d="M500.13,60.33v-8.3h1.27v1.26c.32-.59,.62-.98,.89-1.16s.57-.28,.9-.28c.47,0,.96,.15,1.45,.45l-.48,1.3c-.34-.2-.69-.3-1.03-.3-.31,0-.58,.09-.83,.28-.25,.19-.42,.44-.52,.77-.16,.5-.23,1.05-.23,1.64v4.34h-1.41Z"/><path d="M376.93,79.53l-3.04-11.45h1.55l1.74,7.51c.19,.79,.35,1.57,.48,2.34,.29-1.22,.46-1.93,.52-2.12l2.18-7.73h1.83l1.64,5.8c.41,1.44,.71,2.79,.89,4.05,.15-.72,.34-1.55,.57-2.49l1.8-7.36h1.52l-3.14,11.45h-1.46l-2.41-8.73c-.2-.73-.32-1.18-.36-1.34-.12,.53-.23,.97-.34,1.34l-2.43,8.73h-1.55Z"/><path d="M395.24,76.86l1.45,.18c-.23,.85-.65,1.51-1.27,1.98s-1.41,.7-2.38,.7c-1.21,0-2.18-.37-2.89-1.12-.71-.75-1.07-1.8-1.07-3.14s.36-2.48,1.08-3.25c.72-.77,1.65-1.16,2.8-1.16s2.02,.38,2.72,1.13c.7,.76,1.05,1.82,1.05,3.19,0,.08,0,.21,0,.38h-6.19c.05,.91,.31,1.61,.77,2.09s1.04,.73,1.73,.73c.52,0,.96-.14,1.32-.41,.36-.27,.65-.7,.87-1.3Zm-4.62-2.27h4.63c-.06-.7-.24-1.22-.53-1.57-.45-.54-1.03-.81-1.74-.81-.65,0-1.19,.22-1.63,.65-.44,.43-.68,1.01-.73,1.73Z"/><path d="M398.43,79.53v-11.45h1.41v11.45h-1.41Z"/><path d="M405.09,78.27l.2,1.24c-.4,.08-.75,.12-1.06,.12-.51,0-.91-.08-1.19-.24s-.48-.37-.59-.64c-.11-.26-.17-.82-.17-1.66v-4.77h-1.03v-1.09h1.03v-2.05l1.4-.84v2.9h1.41v1.09h-1.41v4.85c0,.4,.02,.66,.07,.77,.05,.11,.13,.21,.24,.27,.11,.07,.27,.1,.48,.1,.16,0,.36-.02,.62-.05Z"/><path d="M407.76,79.53h-1.3v-11.45h1.41v4.09c.59-.74,1.35-1.12,2.27-1.12,.51,0,.99,.1,1.45,.31,.46,.21,.83,.5,1.12,.87,.29,.37,.52,.82,.69,1.35,.17,.53,.25,1.09,.25,1.69,0,1.42-.35,2.52-1.05,3.3-.7,.78-1.55,1.16-2.53,1.16s-1.75-.41-2.3-1.23v1.04Zm-.02-4.21c0,1,.14,1.71,.41,2.16,.44,.72,1.04,1.09,1.8,1.09,.61,0,1.15-.27,1.59-.8,.45-.53,.67-1.33,.67-2.39s-.21-1.88-.64-2.4-.95-.77-1.56-.77-1.15,.27-1.59,.8c-.45,.53-.67,1.31-.67,2.32Z"/><path d="M421.04,76.86l1.45,.18c-.23,.85-.65,1.51-1.27,1.98s-1.41,.7-2.38,.7c-1.21,0-2.18-.37-2.89-1.12-.71-.75-1.07-1.8-1.07-3.14s.36-2.48,1.08-3.25c.72-.77,1.65-1.16,2.8-1.16s2.02,.38,2.72,1.13c.7,.76,1.05,1.82,1.05,3.19,0,.08,0,.21,0,.38h-6.19c.05,.91,.31,1.61,.77,2.09s1.04,.73,1.73,.73c.52,0,.96-.14,1.32-.41,.36-.27,.65-.7,.87-1.3Zm-4.62-2.27h4.63c-.06-.7-.24-1.22-.53-1.57-.45-.54-1.03-.81-1.74-.81-.65,0-1.19,.22-1.63,.65-.44,.43-.68,1.01-.73,1.73Z"/><path d="M426.56,79.53l-3.16-8.3h1.48l1.78,4.97c.19,.54,.37,1.09,.53,1.67,.12-.44,.3-.96,.52-1.58l1.84-5.06h1.45l-3.14,8.3h-1.31Z"/><path d="M431.74,75.38c0-1.54,.43-2.67,1.28-3.41,.71-.61,1.58-.92,2.61-.92,1.14,0,2.07,.37,2.8,1.12,.72,.75,1.09,1.78,1.09,3.1,0,1.07-.16,1.91-.48,2.52-.32,.61-.79,1.09-1.4,1.43s-1.28,.51-2,.51c-1.16,0-2.1-.37-2.82-1.12-.72-.74-1.07-1.82-1.07-3.22Zm1.45,0c0,1.06,.23,1.86,.7,2.39,.46,.53,1.05,.79,1.75,.79s1.28-.27,1.74-.8,.7-1.34,.7-2.43c0-1.03-.23-1.8-.7-2.33-.47-.53-1.05-.79-1.74-.79s-1.29,.26-1.75,.79c-.46,.53-.7,1.32-.7,2.38Zm.25-5.77v-1.6h1.47v1.6h-1.47Zm2.91,0v-1.6h1.47v1.6h-1.47Z"/><path d="M441.13,79.53v-11.45h1.41v11.45h-1.41Z"/><path d="M444.72,79.53v-11.45h1.41v6.53l3.33-3.38h1.82l-3.17,3.08,3.49,5.22h-1.73l-2.74-4.24-.99,.95v3.29h-1.41Z"/><path d="M458.39,76.86l1.45,.18c-.23,.85-.65,1.51-1.27,1.98s-1.41,.7-2.38,.7c-1.21,0-2.18-.37-2.89-1.12-.71-.75-1.07-1.8-1.07-3.14s.36-2.48,1.08-3.25c.72-.77,1.65-1.16,2.8-1.16s2.02,.38,2.72,1.13c.7,.76,1.05,1.82,1.05,3.19,0,.08,0,.21,0,.38h-6.19c.05,.91,.31,1.61,.77,2.09s1.04,.73,1.73,.73c.52,0,.96-.14,1.32-.41,.36-.27,.65-.7,.87-1.3Zm-4.62-2.27h4.63c-.06-.7-.24-1.22-.53-1.57-.45-.54-1.03-.81-1.74-.81-.65,0-1.19,.22-1.63,.65-.44,.43-.68,1.01-.73,1.73Z"/><path d="M461.6,79.53v-8.3h1.27v1.26c.32-.59,.62-.98,.89-1.16s.57-.28,.9-.28c.47,0,.96,.15,1.45,.45l-.48,1.3c-.34-.2-.69-.3-1.03-.3-.31,0-.58,.09-.83,.28-.25,.19-.42,.44-.52,.77-.16,.5-.23,1.05-.23,1.64v4.34h-1.41Z"/><path d="M472.38,79.53v-1.22c-.65,.94-1.52,1.41-2.63,1.41-.49,0-.95-.09-1.37-.28s-.74-.42-.95-.71c-.21-.28-.35-.63-.43-1.04-.06-.28-.09-.71-.09-1.31v-5.14h1.41v4.6c0,.73,.03,1.23,.09,1.48,.09,.37,.28,.66,.56,.87s.64,.32,1.06,.32,.82-.11,1.19-.32c.37-.22,.63-.51,.79-.88,.15-.37,.23-.91,.23-1.62v-4.45h1.41v8.3h-1.26Z"/><path d="M475.84,79.53v-8.3h1.27v1.18c.61-.91,1.49-1.37,2.64-1.37,.5,0,.96,.09,1.38,.27s.73,.42,.94,.71c.21,.29,.35,.64,.44,1.04,.05,.26,.08,.72,.08,1.37v5.1h-1.41v-5.05c0-.57-.05-1-.16-1.29-.11-.28-.3-.51-.58-.68-.28-.17-.61-.25-.98-.25-.6,0-1.12,.19-1.55,.57-.43,.38-.65,1.1-.65,2.16v4.53h-1.41Z"/><path d="M484.48,80.22l1.37,.2c.06,.42,.22,.73,.48,.92,.35,.26,.83,.39,1.43,.39,.65,0,1.15-.13,1.51-.39,.35-.26,.59-.62,.72-1.09,.07-.29,.11-.89,.1-1.8-.61,.72-1.38,1.09-2.3,1.09-1.14,0-2.02-.41-2.65-1.23-.62-.82-.94-1.81-.94-2.96,0-.79,.14-1.52,.43-2.19,.29-.67,.7-1.19,1.25-1.55,.54-.36,1.18-.55,1.92-.55,.98,0,1.79,.4,2.42,1.19v-1h1.3v7.17c0,1.29-.13,2.21-.39,2.75s-.68,.96-1.25,1.28-1.27,.47-2.11,.47c-.99,0-1.79-.22-2.4-.67s-.9-1.12-.88-2.01Zm1.16-4.98c0,1.09,.22,1.88,.65,2.38s.97,.75,1.62,.75,1.19-.25,1.62-.75c.44-.5,.66-1.28,.66-2.34s-.23-1.78-.68-2.3-.99-.77-1.63-.77-1.16,.25-1.59,.76-.66,1.26-.66,2.26Z"/><path d="M498.09,69.7v-1.62h1.41v1.62h-1.41Zm0,9.84v-8.3h1.41v8.3h-1.41Z"/><path d="M501.07,77.06l1.39-.22c.08,.56,.3,.98,.65,1.28s.86,.45,1.5,.45,1.12-.13,1.44-.39c.31-.26,.47-.57,.47-.93,0-.32-.14-.57-.41-.75-.19-.12-.67-.28-1.44-.48-1.03-.26-1.75-.49-2.14-.68-.4-.19-.7-.45-.91-.79s-.31-.71-.31-1.11c0-.37,.08-.71,.25-1.03,.17-.31,.4-.58,.69-.79,.22-.16,.52-.3,.89-.41,.38-.11,.78-.17,1.21-.17,.65,0,1.22,.09,1.71,.28s.86,.44,1.09,.76,.4,.75,.48,1.29l-1.38,.19c-.06-.43-.24-.76-.54-1-.3-.24-.72-.36-1.27-.36-.65,0-1.11,.11-1.38,.32-.28,.21-.41,.46-.41,.75,0,.18,.06,.35,.17,.49,.11,.15,.29,.28,.54,.38,.14,.05,.55,.17,1.24,.36,1,.27,1.69,.48,2.08,.65,.39,.17,.7,.42,.93,.74,.22,.32,.34,.72,.34,1.2s-.14,.91-.41,1.32-.67,.73-1.18,.96-1.1,.34-1.75,.34c-1.08,0-1.9-.22-2.46-.67-.57-.45-.93-1.11-1.08-1.99Z"/><path d="M512.71,78.27l.2,1.24c-.4,.08-.75,.12-1.06,.12-.51,0-.91-.08-1.19-.24s-.48-.37-.59-.64c-.11-.26-.17-.82-.17-1.66v-4.77h-1.03v-1.09h1.03v-2.05l1.4-.84v2.9h1.41v1.09h-1.41v4.85c0,.4,.02,.66,.07,.77,.05,.11,.13,.21,.24,.27,.11,.07,.27,.1,.48,.1,.16,0,.36-.02,.62-.05Z"/><path d="M374.23,94.58c0-1.54,.43-2.67,1.28-3.41,.71-.61,1.58-.92,2.61-.92,1.14,0,2.07,.37,2.8,1.12,.72,.75,1.09,1.78,1.09,3.1,0,1.07-.16,1.91-.48,2.52-.32,.61-.79,1.09-1.4,1.43s-1.28,.51-2,.51c-1.16,0-2.1-.37-2.82-1.12-.72-.74-1.07-1.82-1.07-3.22Zm1.45,0c0,1.06,.23,1.86,.7,2.39,.46,.53,1.05,.79,1.75,.79s1.28-.27,1.74-.8,.7-1.34,.7-2.43c0-1.03-.23-1.8-.7-2.33-.47-.53-1.05-.79-1.74-.79s-1.29,.26-1.75,.79c-.46,.53-.7,1.32-.7,2.38Z"/><path d="M383.65,98.73v-8.3h1.27v1.18c.61-.91,1.49-1.37,2.64-1.37,.5,0,.96,.09,1.38,.27s.73,.42,.94,.71c.21,.29,.35,.64,.44,1.04,.05,.26,.08,.72,.08,1.37v5.1h-1.41v-5.05c0-.57-.05-1-.16-1.29-.11-.28-.3-.51-.58-.68-.28-.17-.61-.25-.98-.25-.6,0-1.12,.19-1.55,.57-.43,.38-.65,1.1-.65,2.16v4.53h-1.41Z"/><path d="M392.52,98.73v-11.45h1.41v11.45h-1.41Z"/><path d="M396.11,88.9v-1.62h1.41v1.62h-1.41Zm0,9.84v-8.3h1.41v8.3h-1.41Z"/><path d="M399.66,98.73v-8.3h1.27v1.18c.61-.91,1.49-1.37,2.64-1.37,.5,0,.96,.09,1.38,.27s.73,.42,.94,.71c.21,.29,.35,.64,.44,1.04,.05,.26,.08,.72,.08,1.37v5.1h-1.41v-5.05c0-.57-.05-1-.16-1.29-.11-.28-.3-.51-.58-.68-.28-.17-.61-.25-.98-.25-.6,0-1.12,.19-1.55,.57-.43,.38-.65,1.1-.65,2.16v4.53h-1.41Z"/><path d="M414.24,96.06l1.45,.18c-.23,.85-.65,1.51-1.27,1.98s-1.41,.7-2.38,.7c-1.21,0-2.18-.37-2.89-1.12-.71-.75-1.07-1.8-1.07-3.14s.36-2.48,1.08-3.25c.72-.77,1.65-1.16,2.8-1.16s2.02,.38,2.72,1.13c.7,.76,1.05,1.82,1.05,3.19,0,.08,0,.21,0,.38h-6.19c.05,.91,.31,1.61,.77,2.09s1.04,.73,1.73,.73c.52,0,.96-.14,1.32-.41,.36-.27,.65-.7,.87-1.3Zm-4.62-2.27h4.63c-.06-.7-.24-1.22-.53-1.57-.45-.54-1.03-.81-1.74-.81-.65,0-1.19,.22-1.63,.65-.44,.43-.68,1.01-.73,1.73Z"/><path d="M417.85,98.73v-1.6h1.6v1.6h-1.6Z"/><path d="M426.48,98.73v-11.45h2.28l2.71,8.11c.25,.76,.43,1.32,.55,1.7,.13-.42,.33-1.03,.61-1.84l2.74-7.97h2.04v11.45h-1.46v-9.59l-3.33,9.59h-1.37l-3.31-9.75v9.75h-1.46Z"/><path d="M439.15,94.58c0-1.54,.43-2.67,1.28-3.41,.71-.61,1.58-.92,2.61-.92,1.14,0,2.07,.37,2.8,1.12,.72,.75,1.09,1.78,1.09,3.1,0,1.07-.16,1.91-.48,2.52-.32,.61-.79,1.09-1.4,1.43s-1.28,.51-2,.51c-1.16,0-2.1-.37-2.82-1.12-.72-.74-1.07-1.82-1.07-3.22Zm1.45,0c0,1.06,.23,1.86,.7,2.39,.46,.53,1.05,.79,1.75,.79s1.28-.27,1.74-.8,.7-1.34,.7-2.43c0-1.03-.23-1.8-.7-2.33-.47-.53-1.05-.79-1.74-.79s-1.29,.26-1.75,.79c-.46,.53-.7,1.32-.7,2.38Z"/><path d="M449.87,98.73h-1.3v-11.45h1.41v4.09c.59-.74,1.35-1.12,2.27-1.12,.51,0,.99,.1,1.45,.31,.46,.21,.83,.5,1.12,.87,.29,.37,.52,.82,.69,1.35,.17,.53,.25,1.09,.25,1.69,0,1.42-.35,2.52-1.05,3.3-.7,.78-1.55,1.16-2.53,1.16s-1.75-.41-2.3-1.23v1.04Zm-.02-4.21c0,1,.14,1.71,.41,2.16,.44,.72,1.04,1.09,1.8,1.09,.61,0,1.15-.27,1.59-.8,.45-.53,.67-1.33,.67-2.39s-.21-1.88-.64-2.4-.95-.77-1.56-.77-1.15,.27-1.59,.8c-.45,.53-.67,1.31-.67,2.32Z"/><path d="M457.48,88.9v-1.62h1.41v1.62h-1.41Zm0,9.84v-8.3h1.41v8.3h-1.41Z"/><path d="M460.99,98.73v-11.45h1.41v11.45h-1.41Z"/><path d="M470.26,96.06l1.45,.18c-.23,.85-.65,1.51-1.27,1.98s-1.41,.7-2.38,.7c-1.21,0-2.18-.37-2.89-1.12-.71-.75-1.07-1.8-1.07-3.14s.36-2.48,1.08-3.25c.72-.77,1.65-1.16,2.8-1.16s2.02,.38,2.72,1.13c.7,.76,1.05,1.82,1.05,3.19,0,.08,0,.21,0,.38h-6.19c.05,.91,.31,1.61,.77,2.09s1.04,.73,1.73,.73c.52,0,.96-.14,1.32-.41,.36-.27,.65-.7,.87-1.3Zm-4.62-2.27h4.63c-.06-.7-.24-1.22-.53-1.57-.45-.54-1.03-.81-1.74-.81-.65,0-1.19,.22-1.63,.65-.44,.43-.68,1.01-.73,1.73Z"/><path d="M478.13,98.73v-11.45h8.28v1.35h-6.77v3.51h6.34v1.34h-6.34v3.9h7.03v1.35h-8.55Z"/><path d="M488.6,98.73v-8.3h1.27v1.18c.61-.91,1.49-1.37,2.64-1.37,.5,0,.96,.09,1.38,.27s.73,.42,.94,.71c.21,.29,.35,.64,.44,1.04,.05,.26,.08,.72,.08,1.37v5.1h-1.41v-5.05c0-.57-.05-1-.16-1.29-.11-.28-.3-.51-.58-.68-.28-.17-.61-.25-.98-.25-.6,0-1.12,.19-1.55,.57-.43,.38-.65,1.1-.65,2.16v4.53h-1.41Z"/><path d="M502.88,98.73v-1.05c-.53,.82-1.3,1.23-2.32,1.23-.66,0-1.27-.18-1.82-.55s-.98-.87-1.29-1.53c-.3-.65-.46-1.4-.46-2.25s.14-1.58,.41-2.25c.28-.67,.69-1.19,1.24-1.55s1.17-.54,1.85-.54c.5,0,.95,.11,1.34,.32s.71,.49,.95,.82v-4.11h1.4v11.45h-1.3Zm-4.45-4.14c0,1.06,.22,1.86,.67,2.38,.45,.53,.98,.79,1.59,.79s1.14-.25,1.57-.75c.43-.5,.64-1.27,.64-2.3,0-1.14-.22-1.97-.66-2.5s-.98-.8-1.62-.8-1.15,.26-1.57,.77c-.42,.51-.63,1.32-.63,2.41Z"/><path d="M506.13,99.42l1.37,.2c.06,.42,.22,.73,.48,.92,.35,.26,.83,.39,1.43,.39,.65,0,1.15-.13,1.51-.39,.35-.26,.59-.62,.72-1.09,.07-.29,.11-.89,.1-1.8-.61,.72-1.38,1.09-2.3,1.09-1.14,0-2.02-.41-2.65-1.23-.62-.82-.94-1.81-.94-2.96,0-.79,.14-1.52,.43-2.19,.29-.67,.7-1.19,1.25-1.55,.54-.36,1.18-.55,1.92-.55,.98,0,1.79,.4,2.42,1.19v-1h1.3v7.17c0,1.29-.13,2.21-.39,2.75s-.68,.96-1.25,1.28-1.27,.47-2.11,.47c-.99,0-1.79-.22-2.4-.67s-.9-1.12-.88-2.01Zm1.16-4.98c0,1.09,.22,1.88,.65,2.38s.97,.75,1.62,.75,1.19-.25,1.62-.75c.44-.5,.66-1.28,.66-2.34s-.23-1.78-.68-2.3-.99-.77-1.63-.77-1.16,.25-1.59,.76-.66,1.26-.66,2.26Z"/><path d="M520.97,96.06l1.45,.18c-.23,.85-.65,1.51-1.27,1.98s-1.41,.7-2.38,.7c-1.21,0-2.18-.37-2.89-1.12-.71-.75-1.07-1.8-1.07-3.14s.36-2.48,1.08-3.25c.72-.77,1.65-1.16,2.8-1.16s2.02,.38,2.72,1.13c.7,.76,1.05,1.82,1.05,3.19,0,.08,0,.21,0,.38h-6.19c.05,.91,.31,1.61,.77,2.09s1.04,.73,1.73,.73c.52,0,.96-.14,1.32-.41,.36-.27,.65-.7,.87-1.3Zm-4.62-2.27h4.63c-.06-.7-.24-1.22-.53-1.57-.45-.54-1.03-.81-1.74-.81-.65,0-1.19,.22-1.63,.65-.44,.43-.68,1.01-.73,1.73Z"/><path d="M524.17,98.73v-8.3h1.27v1.26c.32-.59,.62-.98,.89-1.16s.57-.28,.9-.28c.47,0,.96,.15,1.45,.45l-.48,1.3c-.34-.2-.69-.3-1.03-.3-.31,0-.58,.09-.83,.28-.25,.19-.42,.44-.52,.77-.16,.5-.23,1.05-.23,1.64v4.34h-1.41Z"/><path d="M534.93,97.71c-.52,.44-1.02,.76-1.5,.94s-1,.27-1.55,.27c-.91,0-1.61-.22-2.1-.67s-.73-1.01-.73-1.71c0-.41,.09-.78,.28-1.11s.43-.61,.73-.81,.64-.36,1.01-.46c.28-.07,.69-.14,1.25-.21,1.14-.14,1.97-.3,2.51-.48,0-.19,0-.31,0-.37,0-.57-.13-.98-.4-1.21-.36-.32-.89-.48-1.6-.48-.66,0-1.15,.12-1.46,.35-.32,.23-.55,.64-.7,1.23l-1.38-.19c.12-.59,.33-1.06,.62-1.43,.29-.36,.7-.64,1.24-.84s1.17-.29,1.88-.29,1.28,.08,1.73,.25c.44,.17,.77,.38,.98,.63,.21,.25,.35,.57,.44,.96,.05,.24,.07,.67,.07,1.3v1.88c0,1.31,.03,2.13,.09,2.48,.06,.35,.18,.68,.36,1h-1.47c-.15-.29-.24-.63-.28-1.02Zm-.12-3.14c-.51,.21-1.28,.39-2.3,.53-.58,.08-.99,.18-1.23,.28-.24,.1-.42,.26-.55,.46-.13,.2-.2,.42-.2,.67,0,.38,.14,.69,.43,.94s.7,.38,1.25,.38,1.02-.12,1.45-.36c.42-.24,.73-.56,.93-.97,.15-.32,.23-.79,.23-1.41v-.52Zm-4.14-5.76v-1.6h1.47v1.6h-1.47Zm2.91,0v-1.6h1.47v1.6h-1.47Z"/><path d="M541.49,97.47l.2,1.24c-.4,.08-.75,.12-1.06,.12-.51,0-.91-.08-1.19-.24s-.48-.37-.59-.64c-.11-.26-.17-.82-.17-1.66v-4.77h-1.03v-1.09h1.03v-2.05l1.4-.84v2.9h1.41v1.09h-1.41v4.85c0,.4,.02,.66,.07,.77,.05,.11,.13,.21,.24,.27,.11,.07,.27,.1,.48,.1,.16,0,.36-.02,.62-.05Z"/><path d="M548.54,96.06l1.45,.18c-.23,.85-.65,1.51-1.27,1.98s-1.41,.7-2.38,.7c-1.21,0-2.18-.37-2.89-1.12-.71-.75-1.07-1.8-1.07-3.14s.36-2.48,1.08-3.25c.72-.77,1.65-1.16,2.8-1.16s2.02,.38,2.72,1.13c.7,.76,1.05,1.82,1.05,3.19,0,.08,0,.21,0,.38h-6.19c.05,.91,.31,1.61,.77,2.09s1.04,.73,1.73,.73c.52,0,.96-.14,1.32-.41,.36-.27,.65-.7,.87-1.3Zm-4.62-2.27h4.63c-.06-.7-.24-1.22-.53-1.57-.45-.54-1.03-.81-1.74-.81-.65,0-1.19,.22-1.63,.65-.44,.43-.68,1.01-.73,1.73Z"/><path d="M380.13,117.93v-1.05c-.53,.82-1.3,1.23-2.32,1.23-.66,0-1.27-.18-1.82-.55s-.98-.87-1.29-1.53c-.3-.65-.46-1.4-.46-2.25s.14-1.58,.41-2.25c.28-.67,.69-1.19,1.24-1.55s1.17-.54,1.85-.54c.5,0,.95,.11,1.34,.32s.71,.49,.95,.82v-4.11h1.4v11.45h-1.3Zm-4.45-4.14c0,1.06,.22,1.86,.67,2.38,.45,.53,.98,.79,1.59,.79s1.14-.25,1.57-.75c.43-.5,.64-1.27,.64-2.3,0-1.14-.22-1.97-.66-2.5s-.98-.8-1.62-.8-1.15,.26-1.57,.77c-.42,.51-.63,1.32-.63,2.41Z"/><path d="M383.13,113.78c0-1.54,.43-2.67,1.28-3.41,.71-.61,1.58-.92,2.61-.92,1.14,0,2.07,.37,2.8,1.12,.72,.75,1.09,1.78,1.09,3.1,0,1.07-.16,1.91-.48,2.52-.32,.61-.79,1.09-1.4,1.43s-1.28,.51-2,.51c-1.16,0-2.1-.37-2.82-1.12-.72-.74-1.07-1.82-1.07-3.22Zm1.45,0c0,1.06,.23,1.86,.7,2.39,.46,.53,1.05,.79,1.75,.79s1.28-.27,1.74-.8,.7-1.34,.7-2.43c0-1.03-.23-1.8-.7-2.33-.47-.53-1.05-.79-1.74-.79s-1.29,.26-1.75,.79c-.46,.53-.7,1.32-.7,2.38Z"/><path d="M392.55,117.93v-8.3h1.26v1.16c.26-.41,.61-.73,1.04-.98,.43-.25,.92-.37,1.48-.37,.61,0,1.12,.13,1.51,.38,.39,.26,.67,.61,.83,1.07,.66-.97,1.51-1.45,2.56-1.45,.82,0,1.46,.23,1.9,.68,.44,.46,.66,1.16,.66,2.11v5.7h-1.4v-5.23c0-.56-.05-.97-.14-1.21-.09-.25-.26-.45-.5-.6-.24-.15-.52-.23-.84-.23-.58,0-1.07,.19-1.45,.58-.39,.39-.58,1.01-.58,1.86v4.82h-1.41v-5.39c0-.62-.11-1.09-.34-1.41s-.6-.47-1.12-.47c-.4,0-.76,.1-1.1,.31-.34,.21-.58,.51-.73,.91-.15,.4-.23,.98-.23,1.73v4.3h-1.41Z"/><path d="M405.88,108.1v-1.62h1.41v1.62h-1.41Zm0,9.84v-8.3h1.41v8.3h-1.41Z"/><path d="M409.43,117.93v-8.3h1.27v1.18c.61-.91,1.49-1.37,2.64-1.37,.5,0,.96,.09,1.38,.27s.73,.42,.94,.71c.21,.29,.35,.64,.44,1.04,.05,.26,.08,.72,.08,1.37v5.1h-1.41v-5.05c0-.57-.05-1-.16-1.29-.11-.28-.3-.51-.58-.68-.28-.17-.61-.25-.98-.25-.6,0-1.12,.19-1.55,.57-.43,.38-.65,1.1-.65,2.16v4.53h-1.41Z"/><path d="M418.34,108.1v-1.62h1.41v1.62h-1.41Zm0,9.84v-8.3h1.41v8.3h-1.41Z"/><path d="M427.56,115.26l1.45,.18c-.23,.85-.65,1.51-1.27,1.98s-1.41,.7-2.38,.7c-1.21,0-2.18-.37-2.89-1.12-.71-.75-1.07-1.8-1.07-3.14s.36-2.48,1.08-3.25c.72-.77,1.65-1.16,2.8-1.16s2.02,.38,2.72,1.13c.7,.76,1.05,1.82,1.05,3.19,0,.08,0,.21,0,.38h-6.19c.05,.91,.31,1.61,.77,2.09s1.04,.73,1.73,.73c.52,0,.96-.14,1.32-.41,.36-.27,.65-.7,.87-1.3Zm-4.62-2.27h4.63c-.06-.7-.24-1.22-.53-1.57-.45-.54-1.03-.81-1.74-.81-.65,0-1.19,.22-1.63,.65-.44,.43-.68,1.01-.73,1.73Z"/><path d="M430.77,117.93v-8.3h1.27v1.26c.32-.59,.62-.98,.89-1.16s.57-.28,.9-.28c.47,0,.96,.15,1.45,.45l-.48,1.3c-.34-.2-.69-.3-1.03-.3-.31,0-.58,.09-.83,.28-.25,.19-.42,.44-.52,.77-.16,.5-.23,1.05-.23,1.64v4.34h-1.41Z"/><path d="M441.79,115.26l1.45,.18c-.23,.85-.65,1.51-1.27,1.98s-1.41,.7-2.38,.7c-1.21,0-2.18-.37-2.89-1.12-.71-.75-1.07-1.8-1.07-3.14s.36-2.48,1.08-3.25c.72-.77,1.65-1.16,2.8-1.16s2.02,.38,2.72,1.13c.7,.76,1.05,1.82,1.05,3.19,0,.08,0,.21,0,.38h-6.19c.05,.91,.31,1.61,.77,2.09s1.04,.73,1.73,.73c.52,0,.96-.14,1.32-.41,.36-.27,.65-.7,.87-1.3Zm-4.62-2.27h4.63c-.06-.7-.24-1.22-.53-1.57-.45-.54-1.03-.81-1.74-.81-.65,0-1.19,.22-1.63,.65-.44,.43-.68,1.01-.73,1.73Z"/><path d="M445.01,117.93v-8.3h1.27v1.18c.61-.91,1.49-1.37,2.64-1.37,.5,0,.96,.09,1.38,.27s.73,.42,.94,.71c.21,.29,.35,.64,.44,1.04,.05,.26,.08,.72,.08,1.37v5.1h-1.41v-5.05c0-.57-.05-1-.16-1.29-.11-.28-.3-.51-.58-.68-.28-.17-.61-.25-.98-.25-.6,0-1.12,.19-1.55,.57-.43,.38-.65,1.1-.65,2.16v4.53h-1.41Z"/><path d="M463.74,117.93v-1.05c-.53,.82-1.3,1.23-2.32,1.23-.66,0-1.27-.18-1.82-.55s-.98-.87-1.29-1.53c-.3-.65-.46-1.4-.46-2.25s.14-1.58,.41-2.25c.28-.67,.69-1.19,1.24-1.55s1.17-.54,1.85-.54c.5,0,.95,.11,1.34,.32s.71,.49,.95,.82v-4.11h1.4v11.45h-1.3Zm-4.45-4.14c0,1.06,.22,1.86,.67,2.38,.45,.53,.98,.79,1.59,.79s1.14-.25,1.57-.75c.43-.5,.64-1.27,.64-2.3,0-1.14-.22-1.97-.66-2.5s-.98-.8-1.62-.8-1.15,.26-1.57,.77c-.42,.51-.63,1.32-.63,2.41Z"/><path d="M467.26,108.1v-1.62h1.41v1.62h-1.41Zm0,9.84v-8.3h1.41v8.3h-1.41Z"/><path d="M476.49,115.26l1.45,.18c-.23,.85-.65,1.51-1.27,1.98s-1.41,.7-2.38,.7c-1.21,0-2.18-.37-2.89-1.12-.71-.75-1.07-1.8-1.07-3.14s.36-2.48,1.08-3.25c.72-.77,1.65-1.16,2.8-1.16s2.02,.38,2.72,1.13c.7,.76,1.05,1.82,1.05,3.19,0,.08,0,.21,0,.38h-6.19c.05,.91,.31,1.61,.77,2.09s1.04,.73,1.73,.73c.52,0,.96-.14,1.32-.41,.36-.27,.65-.7,.87-1.3Zm-4.62-2.27h4.63c-.06-.7-.24-1.22-.53-1.57-.45-.54-1.03-.81-1.74-.81-.65,0-1.19,.22-1.63,.65-.44,.43-.68,1.01-.73,1.73Z"/><path d="M484.59,117.93v-11.45h1.52v11.45h-1.52Z"/><path d="M488.6,117.93v-8.3h1.27v1.18c.61-.91,1.49-1.37,2.64-1.37,.5,0,.96,.09,1.38,.27s.73,.42,.94,.71c.21,.29,.35,.64,.44,1.04,.05,.26,.08,.72,.08,1.37v5.1h-1.41v-5.05c0-.57-.05-1-.16-1.29-.11-.28-.3-.51-.58-.68-.28-.17-.61-.25-.98-.25-.6,0-1.12,.19-1.55,.57-.43,.38-.65,1.1-.65,2.16v4.53h-1.41Z"/><path d="M500.56,116.67l.2,1.24c-.4,.08-.75,.12-1.06,.12-.51,0-.91-.08-1.19-.24s-.48-.37-.59-.64c-.11-.26-.17-.82-.17-1.66v-4.77h-1.03v-1.09h1.03v-2.05l1.4-.84v2.9h1.41v1.09h-1.41v4.85c0,.4,.02,.66,.07,.77,.05,.11,.13,.21,.24,.27,.11,.07,.27,.1,.48,.1,.16,0,.36-.02,.62-.05Z"/><path d="M507.62,115.26l1.45,.18c-.23,.85-.65,1.51-1.27,1.98s-1.41,.7-2.38,.7c-1.21,0-2.18-.37-2.89-1.12-.71-.75-1.07-1.8-1.07-3.14s.36-2.48,1.08-3.25c.72-.77,1.65-1.16,2.8-1.16s2.02,.38,2.72,1.13c.7,.76,1.05,1.82,1.05,3.19,0,.08,0,.21,0,.38h-6.19c.05,.91,.31,1.61,.77,2.09s1.04,.73,1.73,.73c.52,0,.96-.14,1.32-.41,.36-.27,.65-.7,.87-1.3Zm-4.62-2.27h4.63c-.06-.7-.24-1.22-.53-1.57-.45-.54-1.03-.81-1.74-.81-.65,0-1.19,.22-1.63,.65-.44,.43-.68,1.01-.73,1.73Z"/><path d="M510.82,117.93v-8.3h1.27v1.26c.32-.59,.62-.98,.89-1.16s.57-.28,.9-.28c.47,0,.96,.15,1.45,.45l-.48,1.3c-.34-.2-.69-.3-1.03-.3-.31,0-.58,.09-.83,.28-.25,.19-.42,.44-.52,.77-.16,.5-.23,1.05-.23,1.64v4.34h-1.41Z"/><path d="M516.17,117.93v-8.3h1.27v1.18c.61-.91,1.49-1.37,2.64-1.37,.5,0,.96,.09,1.38,.27s.73,.42,.94,.71c.21,.29,.35,.64,.44,1.04,.05,.26,.08,.72,.08,1.37v5.1h-1.41v-5.05c0-.57-.05-1-.16-1.29-.11-.28-.3-.51-.58-.68-.28-.17-.61-.25-.98-.25-.6,0-1.12,.19-1.55,.57-.43,.38-.65,1.1-.65,2.16v4.53h-1.41Z"/><path d="M530.74,115.26l1.45,.18c-.23,.85-.65,1.51-1.27,1.98s-1.41,.7-2.38,.7c-1.21,0-2.18-.37-2.89-1.12-.71-.75-1.07-1.8-1.07-3.14s.36-2.48,1.08-3.25c.72-.77,1.65-1.16,2.8-1.16s2.02,.38,2.72,1.13c.7,.76,1.05,1.82,1.05,3.19,0,.08,0,.21,0,.38h-6.19c.05,.91,.31,1.61,.77,2.09s1.04,.73,1.73,.73c.52,0,.96-.14,1.32-.41,.36-.27,.65-.7,.87-1.3Zm-4.62-2.27h4.63c-.06-.7-.24-1.22-.53-1.57-.45-.54-1.03-.81-1.74-.81-.65,0-1.19,.22-1.63,.65-.44,.43-.68,1.01-.73,1.73Z"/><path d="M537.03,116.67l.2,1.24c-.4,.08-.75,.12-1.06,.12-.51,0-.91-.08-1.19-.24s-.48-.37-.59-.64c-.11-.26-.17-.82-.17-1.66v-4.77h-1.03v-1.09h1.03v-2.05l1.4-.84v2.9h1.41v1.09h-1.41v4.85c0,.4,.02,.66,.07,.77,.05,.11,.13,.21,.24,.27,.11,.07,.27,.1,.48,.1,.16,0,.36-.02,.62-.05Z"/><path d="M537.86,114.5v-1.41h4.32v1.41h-4.32Z"/><path d="M374.92,137.13v-11.45h1.55l6.02,8.99v-8.99h1.45v11.45h-1.55l-6.02-9v9h-1.45Z"/><path d="M391.74,137.13v-1.22c-.65,.94-1.52,1.41-2.63,1.41-.49,0-.95-.09-1.37-.28s-.74-.42-.95-.71c-.21-.28-.35-.63-.43-1.04-.06-.28-.09-.71-.09-1.31v-5.14h1.41v4.6c0,.73,.03,1.23,.09,1.48,.09,.37,.28,.66,.56,.87s.64,.32,1.06,.32,.82-.11,1.19-.32c.37-.22,.63-.51,.79-.88,.15-.37,.23-.91,.23-1.62v-4.45h1.41v8.3h-1.26Z"/><path d="M398.28,135.87l.2,1.24c-.4,.08-.75,.12-1.06,.12-.51,0-.91-.08-1.19-.24s-.48-.37-.59-.64c-.11-.26-.17-.82-.17-1.66v-4.77h-1.03v-1.09h1.03v-2.05l1.4-.84v2.9h1.41v1.09h-1.41v4.85c0,.4,.02,.66,.07,.77,.05,.11,.13,.21,.24,.27,.11,.07,.27,.1,.48,.1,.16,0,.36-.02,.62-.05Z"/><path d="M398.91,137.13v-1.14l5.28-6.06c-.6,.03-1.13,.05-1.59,.05h-3.38v-1.14h6.78v.93l-4.49,5.27-.87,.96c.63-.05,1.22-.07,1.77-.07h3.84v1.21h-7.34Z"/><path d="M413.09,137.13v-1.22c-.65,.94-1.52,1.41-2.63,1.41-.49,0-.95-.09-1.37-.28s-.74-.42-.95-.71c-.21-.28-.35-.63-.43-1.04-.06-.28-.09-.71-.09-1.31v-5.14h1.41v4.6c0,.73,.03,1.23,.09,1.48,.09,.37,.28,.66,.56,.87s.64,.32,1.06,.32,.82-.11,1.19-.32c.37-.22,.63-.51,.79-.88,.15-.37,.23-.91,.23-1.62v-4.45h1.41v8.3h-1.26Z"/><path d="M416.55,137.13v-8.3h1.27v1.18c.61-.91,1.49-1.37,2.64-1.37,.5,0,.96,.09,1.38,.27s.73,.42,.94,.71c.21,.29,.35,.64,.44,1.04,.05,.26,.08,.72,.08,1.37v5.1h-1.41v-5.05c0-.57-.05-1-.16-1.29-.11-.28-.3-.51-.58-.68-.28-.17-.61-.25-.98-.25-.6,0-1.12,.19-1.55,.57-.43,.38-.65,1.1-.65,2.16v4.53h-1.41Z"/><path d="M425.19,137.82l1.37,.2c.06,.42,.22,.73,.48,.92,.35,.26,.83,.39,1.43,.39,.65,0,1.15-.13,1.51-.39,.35-.26,.59-.62,.72-1.09,.07-.29,.11-.89,.1-1.8-.61,.72-1.38,1.09-2.3,1.09-1.14,0-2.02-.41-2.65-1.23-.62-.82-.94-1.81-.94-2.96,0-.79,.14-1.52,.43-2.19,.29-.67,.7-1.19,1.25-1.55,.54-.36,1.18-.55,1.92-.55,.98,0,1.79,.4,2.42,1.19v-1h1.3v7.17c0,1.29-.13,2.21-.39,2.75s-.68,.96-1.25,1.28-1.27,.47-2.11,.47c-.99,0-1.79-.22-2.4-.67s-.9-1.12-.88-2.01Zm1.16-4.98c0,1.09,.22,1.88,.65,2.38s.97,.75,1.62,.75,1.19-.25,1.62-.75c.44-.5,.66-1.28,.66-2.34s-.23-1.78-.68-2.3-.99-.77-1.63-.77-1.16,.25-1.59,.76-.66,1.26-.66,2.26Z"/></g><g class="m"><path d="M614.37,60.33v-11.45h3.95c.89,0,1.57,.05,2.04,.16,.66,.15,1.22,.42,1.68,.82,.6,.51,1.06,1.16,1.36,1.96,.3,.79,.45,1.7,.45,2.72,0,.87-.1,1.64-.3,2.31s-.46,1.23-.78,1.67c-.32,.44-.67,.79-1.04,1.04-.38,.25-.83,.44-1.37,.57-.53,.13-1.15,.2-1.84,.2h-4.13Zm1.52-1.35h2.45c.75,0,1.35-.07,1.78-.21s.77-.34,1.03-.59c.36-.36,.64-.84,.84-1.45,.2-.61,.3-1.34,.3-2.21,0-1.2-.2-2.12-.59-2.76-.39-.64-.87-1.07-1.43-1.29-.41-.16-1.06-.23-1.96-.23h-2.41v8.75Z"/><path d="M625.22,56.18c0-1.54,.43-2.67,1.28-3.41,.71-.61,1.58-.92,2.61-.92,1.14,0,2.07,.37,2.8,1.12,.72,.75,1.09,1.78,1.09,3.1,0,1.07-.16,1.91-.48,2.52-.32,.61-.79,1.09-1.4,1.43s-1.28,.51-2,.51c-1.16,0-2.1-.37-2.82-1.12-.72-.74-1.07-1.82-1.07-3.22Zm1.45,0c0,1.06,.23,1.86,.7,2.39,.46,.53,1.05,.79,1.75,.79s1.28-.27,1.74-.8,.7-1.34,.7-2.43c0-1.03-.23-1.8-.7-2.33-.47-.53-1.05-.79-1.74-.79s-1.29,.26-1.75,.79c-.46,.53-.7,1.32-.7,2.38Z"/><path d="M634.64,60.33v-8.3h1.26v1.16c.26-.41,.61-.73,1.04-.98,.43-.25,.92-.37,1.48-.37,.61,0,1.12,.13,1.51,.38,.39,.26,.67,.61,.83,1.07,.66-.97,1.51-1.45,2.56-1.45,.82,0,1.46,.23,1.9,.68,.44,.46,.66,1.16,.66,2.11v5.7h-1.4v-5.23c0-.56-.05-.97-.14-1.21-.09-.25-.26-.45-.5-.6-.24-.15-.52-.23-.84-.23-.58,0-1.07,.19-1.45,.58-.39,.39-.58,1.01-.58,1.86v4.82h-1.41v-5.39c0-.62-.11-1.09-.34-1.41s-.6-.47-1.12-.47c-.4,0-.76,.1-1.1,.31-.34,.21-.58,.51-.73,.91-.15,.4-.23,.98-.23,1.73v4.3h-1.41Z"/><path d="M647.98,50.5v-1.62h1.41v1.62h-1.41Zm0,9.84v-8.3h1.41v8.3h-1.41Z"/><path d="M651.52,60.33v-8.3h1.27v1.18c.61-.91,1.49-1.37,2.64-1.37,.5,0,.96,.09,1.38,.27s.73,.42,.94,.71c.21,.29,.35,.64,.44,1.04,.05,.26,.08,.72,.08,1.37v5.1h-1.41v-5.05c0-.57-.05-1-.16-1.29-.11-.28-.3-.51-.58-.68-.28-.17-.61-.25-.98-.25-.6,0-1.12,.19-1.55,.57-.43,.38-.65,1.1-.65,2.16v4.53h-1.41Z"/><path d="M665.83,59.31c-.52,.44-1.02,.76-1.5,.94s-1,.27-1.55,.27c-.91,0-1.61-.22-2.1-.67s-.73-1.01-.73-1.71c0-.41,.09-.78,.28-1.11s.43-.61,.73-.81,.64-.36,1.01-.46c.28-.07,.69-.14,1.25-.21,1.14-.14,1.97-.3,2.51-.48,0-.19,0-.31,0-.37,0-.57-.13-.98-.4-1.21-.36-.32-.89-.48-1.6-.48-.66,0-1.15,.12-1.46,.35-.32,.23-.55,.64-.7,1.23l-1.38-.19c.12-.59,.33-1.06,.62-1.43,.29-.36,.7-.64,1.24-.84s1.17-.29,1.88-.29,1.28,.08,1.73,.25c.44,.17,.77,.38,.98,.63,.21,.25,.35,.57,.44,.96,.05,.24,.07,.67,.07,1.3v1.88c0,1.31,.03,2.13,.09,2.48,.06,.35,.18,.68,.36,1h-1.47c-.15-.29-.24-.63-.28-1.02Zm-.12-3.14c-.51,.21-1.28,.39-2.3,.53-.58,.08-.99,.18-1.23,.28-.24,.1-.42,.26-.55,.46-.13,.2-.2,.42-.2,.67,0,.38,.14,.69,.43,.94s.7,.38,1.25,.38,1.02-.12,1.45-.36c.42-.24,.73-.56,.93-.97,.15-.32,.23-.79,.23-1.41v-.52Z"/><path d="M669.32,60.33v-8.3h1.27v1.18c.61-.91,1.49-1.37,2.64-1.37,.5,0,.96,.09,1.38,.27s.73,.42,.94,.71c.21,.29,.35,.64,.44,1.04,.05,.26,.08,.72,.08,1.37v5.1h-1.41v-5.05c0-.57-.05-1-.16-1.29-.11-.28-.3-.51-.58-.68-.28-.17-.61-.25-.98-.25-.6,0-1.12,.19-1.55,.57-.43,.38-.65,1.1-.65,2.16v4.53h-1.41Z"/><path d="M677.48,60.33v-1.14l5.28-6.06c-.6,.03-1.13,.05-1.59,.05h-3.38v-1.14h6.78v.93l-4.49,5.27-.87,.96c.63-.05,1.22-.07,1.77-.07h3.84v1.21h-7.34Z"/><path d="M696.05,60.33v-1.05c-.53,.82-1.3,1.23-2.32,1.23-.66,0-1.27-.18-1.82-.55s-.98-.87-1.29-1.53c-.3-.65-.46-1.4-.46-2.25s.14-1.58,.41-2.25c.28-.67,.69-1.19,1.24-1.55s1.17-.54,1.85-.54c.5,0,.95,.11,1.34,.32s.71,.49,.95,.82v-4.11h1.4v11.45h-1.3Zm-4.45-4.14c0,1.06,.22,1.86,.67,2.38,.45,.53,.98,.79,1.59,.79s1.14-.25,1.57-.75c.43-.5,.64-1.27,.64-2.3,0-1.14-.22-1.97-.66-2.5s-.98-.8-1.62-.8-1.15,.26-1.57,.77c-.42,.51-.63,1.32-.63,2.41Z"/><path d="M705.24,57.66l1.45,.18c-.23,.85-.65,1.51-1.27,1.98s-1.41,.7-2.38,.7c-1.21,0-2.18-.37-2.89-1.12-.71-.75-1.07-1.8-1.07-3.14s.36-2.48,1.08-3.25c.72-.77,1.65-1.16,2.8-1.16s2.02,.38,2.72,1.13c.7,.76,1.05,1.82,1.05,3.19,0,.08,0,.21,0,.38h-6.19c.05,.91,.31,1.61,.77,2.09s1.04,.73,1.73,.73c.52,0,.96-.14,1.32-.41,.36-.27,.65-.7,.87-1.3Zm-4.62-2.27h4.63c-.06-.7-.24-1.22-.53-1.57-.45-.54-1.03-.81-1.74-.81-.65,0-1.19,.22-1.63,.65-.44,.43-.68,1.01-.73,1.73Z"/><path d="M708.44,60.33v-8.3h1.27v1.26c.32-.59,.62-.98,.89-1.16s.57-.28,.9-.28c.47,0,.96,.15,1.45,.45l-.48,1.3c-.34-.2-.69-.3-1.03-.3-.31,0-.58,.09-.83,.28-.25,.19-.42,.44-.52,.77-.16,.5-.23,1.05-.23,1.64v4.34h-1.41Z"/><path d="M718.67,60.33v-11.45h1.52v11.45h-1.52Z"/><path d="M722.68,60.33v-8.3h1.27v1.18c.61-.91,1.49-1.37,2.64-1.37,.5,0,.96,.09,1.38,.27s.73,.42,.94,.71c.21,.29,.35,.64,.44,1.04,.05,.26,.08,.72,.08,1.37v5.1h-1.41v-5.05c0-.57-.05-1-.16-1.29-.11-.28-.3-.51-.58-.68-.28-.17-.61-.25-.98-.25-.6,0-1.12,.19-1.55,.57-.43,.38-.65,1.1-.65,2.16v4.53h-1.41Z"/><path d="M734.65,59.07l.2,1.24c-.4,.08-.75,.12-1.06,.12-.51,0-.91-.08-1.19-.24s-.48-.37-.59-.64c-.11-.26-.17-.82-.17-1.66v-4.77h-1.03v-1.09h1.03v-2.05l1.4-.84v2.9h1.41v1.09h-1.41v4.85c0,.4,.02,.66,.07,.77,.05,.11,.13,.21,.24,.27,.11,.07,.27,.1,.48,.1,.16,0,.36-.02,.62-.05Z"/><path d="M741.7,57.66l1.45,.18c-.23,.85-.65,1.51-1.27,1.98s-1.41,.7-2.38,.7c-1.21,0-2.18-.37-2.89-1.12-.71-.75-1.07-1.8-1.07-3.14s.36-2.48,1.08-3.25c.72-.77,1.65-1.16,2.8-1.16s2.02,.38,2.72,1.13c.7,.76,1.05,1.82,1.05,3.19,0,.08,0,.21,0,.38h-6.19c.05,.91,.31,1.61,.77,2.09s1.04,.73,1.73,.73c.52,0,.96-.14,1.32-.41,.36-.27,.65-.7,.87-1.3Zm-4.62-2.27h4.63c-.06-.7-.24-1.22-.53-1.57-.45-.54-1.03-.81-1.74-.81-.65,0-1.19,.22-1.63,.65-.44,.43-.68,1.01-.73,1.73Z"/><path d="M744.91,60.33v-8.3h1.27v1.26c.32-.59,.62-.98,.89-1.16s.57-.28,.9-.28c.47,0,.96,.15,1.45,.45l-.48,1.3c-.34-.2-.69-.3-1.03-.3-.31,0-.58,.09-.83,.28-.25,.19-.42,.44-.52,.77-.16,.5-.23,1.05-.23,1.64v4.34h-1.41Z"/><path d="M750.25,60.33v-8.3h1.27v1.18c.61-.91,1.49-1.37,2.64-1.37,.5,0,.96,.09,1.38,.27s.73,.42,.94,.71c.21,.29,.35,.64,.44,1.04,.05,.26,.08,.72,.08,1.37v5.1h-1.41v-5.05c0-.57-.05-1-.16-1.29-.11-.28-.3-.51-.58-.68-.28-.17-.61-.25-.98-.25-.6,0-1.12,.19-1.55,.57-.43,.38-.65,1.1-.65,2.16v4.53h-1.41Z"/><path d="M764.83,57.66l1.45,.18c-.23,.85-.65,1.51-1.27,1.98s-1.41,.7-2.38,.7c-1.21,0-2.18-.37-2.89-1.12-.71-.75-1.07-1.8-1.07-3.14s.36-2.48,1.08-3.25c.72-.77,1.65-1.16,2.8-1.16s2.02,.38,2.72,1.13c.7,.76,1.05,1.82,1.05,3.19,0,.08,0,.21,0,.38h-6.19c.05,.91,.31,1.61,.77,2.09s1.04,.73,1.73,.73c.52,0,.96-.14,1.32-.41,.36-.27,.65-.7,.87-1.3Zm-4.62-2.27h4.63c-.06-.7-.24-1.22-.53-1.57-.45-.54-1.03-.81-1.74-.81-.65,0-1.19,.22-1.63,.65-.44,.43-.68,1.01-.73,1.73Z"/><path d="M771.12,59.07l.2,1.24c-.4,.08-.75,.12-1.06,.12-.51,0-.91-.08-1.19-.24s-.48-.37-.59-.64c-.11-.26-.17-.82-.17-1.66v-4.77h-1.03v-1.09h1.03v-2.05l1.4-.84v2.9h1.41v1.09h-1.41v4.85c0,.4,.02,.66,.07,.77,.05,.11,.13,.21,.24,.27,.11,.07,.27,.1,.48,.1,.16,0,.36-.02,.62-.05Z"/><path d="M771.94,56.9v-1.41h4.32v1.41h-4.32Z"/><path d="M614.4,79.53v-11.45h8.28v1.35h-6.77v3.51h6.34v1.34h-6.34v3.9h7.03v1.35h-8.55Z"/><path d="M630.27,76.49l1.38,.18c-.15,.95-.54,1.7-1.16,2.24s-1.39,.81-2.29,.81c-1.14,0-2.05-.37-2.74-1.11s-1.04-1.81-1.04-3.19c0-.9,.15-1.68,.45-2.35s.75-1.18,1.36-1.51,1.27-.5,1.98-.5c.9,0,1.64,.23,2.21,.68,.57,.46,.94,1.1,1.1,1.94l-1.37,.21c-.13-.56-.36-.98-.69-1.26s-.73-.42-1.2-.42c-.71,0-1.28,.25-1.73,.76s-.66,1.31-.66,2.41,.21,1.92,.64,2.43c.43,.51,.98,.76,1.67,.76,.55,0,1.01-.17,1.38-.51,.37-.34,.6-.86,.7-1.56Z"/><path d="M632.33,75.38c0-1.54,.43-2.67,1.28-3.41,.71-.61,1.58-.92,2.61-.92,1.14,0,2.07,.37,2.8,1.12,.72,.75,1.09,1.78,1.09,3.1,0,1.07-.16,1.91-.48,2.52-.32,.61-.79,1.09-1.4,1.43s-1.28,.51-2,.51c-1.16,0-2.1-.37-2.82-1.12-.72-.74-1.07-1.82-1.07-3.22Zm1.45,0c0,1.06,.23,1.86,.7,2.39,.46,.53,1.05,.79,1.75,.79s1.28-.27,1.74-.8,.7-1.34,.7-2.43c0-1.03-.23-1.8-.7-2.33-.47-.53-1.05-.79-1.74-.79s-1.29,.26-1.75,.79c-.46,.53-.7,1.32-.7,2.38Z"/><path d="M641.76,79.53v-8.3h1.27v1.18c.61-.91,1.49-1.37,2.64-1.37,.5,0,.96,.09,1.38,.27s.73,.42,.94,.71c.21,.29,.35,.64,.44,1.04,.05,.26,.08,.72,.08,1.37v5.1h-1.41v-5.05c0-.57-.05-1-.16-1.29-.11-.28-.3-.51-.58-.68-.28-.17-.61-.25-.98-.25-.6,0-1.12,.19-1.55,.57-.43,.38-.65,1.1-.65,2.16v4.53h-1.41Z"/><path d="M650.13,75.38c0-1.54,.43-2.67,1.28-3.41,.71-.61,1.58-.92,2.61-.92,1.14,0,2.07,.37,2.8,1.12,.72,.75,1.09,1.78,1.09,3.1,0,1.07-.16,1.91-.48,2.52-.32,.61-.79,1.09-1.4,1.43s-1.28,.51-2,.51c-1.16,0-2.1-.37-2.82-1.12-.72-.74-1.07-1.82-1.07-3.22Zm1.45,0c0,1.06,.23,1.86,.7,2.39,.46,.53,1.05,.79,1.75,.79s1.28-.27,1.74-.8,.7-1.34,.7-2.43c0-1.03-.23-1.8-.7-2.33-.47-.53-1.05-.79-1.74-.79s-1.29,.26-1.75,.79c-.46,.53-.7,1.32-.7,2.38Z"/><path d="M659.55,79.53v-8.3h1.26v1.16c.26-.41,.61-.73,1.04-.98,.43-.25,.92-.37,1.48-.37,.61,0,1.12,.13,1.51,.38,.39,.26,.67,.61,.83,1.07,.66-.97,1.51-1.45,2.56-1.45,.82,0,1.46,.23,1.9,.68,.44,.46,.66,1.16,.66,2.11v5.7h-1.4v-5.23c0-.56-.05-.97-.14-1.21-.09-.25-.26-.45-.5-.6-.24-.15-.52-.23-.84-.23-.58,0-1.07,.19-1.45,.58-.39,.39-.58,1.01-.58,1.86v4.82h-1.41v-5.39c0-.62-.11-1.09-.34-1.41s-.6-.47-1.12-.47c-.4,0-.76,.1-1.1,.31-.34,.21-.58,.51-.73,.91-.15,.4-.23,.98-.23,1.73v4.3h-1.41Z"/><path d="M672.82,82.73l-.16-1.32c.31,.08,.58,.12,.8,.12,.31,0,.56-.05,.75-.16,.19-.1,.34-.25,.46-.44,.09-.14,.23-.49,.43-1.05,.03-.08,.07-.19,.12-.34l-3.15-8.31h1.52l1.73,4.8c.22,.61,.42,1.25,.6,1.92,.16-.65,.35-1.28,.58-1.89l1.77-4.84h1.41l-3.16,8.44c-.34,.91-.6,1.54-.79,1.88-.25,.46-.54,.8-.86,1.02-.32,.22-.71,.32-1.16,.32-.27,0-.57-.06-.91-.17Z"/><path d="M681.25,79.53v-1.6h1.6v1.6c0,.59-.1,1.06-.31,1.43-.21,.36-.54,.64-.99,.84l-.39-.6c.3-.13,.52-.32,.66-.57,.14-.25,.22-.62,.23-1.09h-.8Zm0-6.7v-1.6h1.6v1.6h-1.6Z"/><path d="M697.47,68.08h1.52v6.62c0,1.15-.13,2.07-.39,2.74-.26,.68-.73,1.23-1.41,1.65-.68,.42-1.57,.64-2.68,.64s-1.95-.19-2.63-.55-1.17-.9-1.46-1.61c-.29-.7-.44-1.66-.44-2.87v-6.62h1.52v6.61c0,1,.09,1.73,.28,2.2,.18,.47,.5,.83,.95,1.09,.45,.26,1,.38,1.65,.38,1.11,0,1.91-.25,2.38-.76,.47-.5,.71-1.48,.71-2.91v-6.61Z"/><path d="M701.33,79.53v-8.3h1.26v1.16c.26-.41,.61-.73,1.04-.98,.43-.25,.92-.37,1.48-.37,.61,0,1.12,.13,1.51,.38,.39,.26,.67,.61,.83,1.07,.66-.97,1.51-1.45,2.56-1.45,.82,0,1.46,.23,1.9,.68,.44,.46,.66,1.16,.66,2.11v5.7h-1.4v-5.23c0-.56-.05-.97-.14-1.21-.09-.25-.26-.45-.5-.6-.24-.15-.52-.23-.84-.23-.58,0-1.07,.19-1.45,.58-.39,.39-.58,1.01-.58,1.86v4.82h-1.41v-5.39c0-.62-.11-1.09-.34-1.41s-.6-.47-1.12-.47c-.4,0-.76,.1-1.1,.31-.34,.21-.58,.51-.73,.91-.15,.4-.23,.98-.23,1.73v4.3h-1.41Z"/><path d="M716.19,79.53l-2.54-8.3h1.45l1.32,4.79,.49,1.78c.02-.09,.16-.66,.43-1.71l1.32-4.86h1.45l1.24,4.81,.41,1.59,.48-1.6,1.42-4.8h1.37l-2.59,8.3h-1.46l-1.32-4.97-.32-1.41-1.68,6.38h-1.47Z"/><path d="M731.62,78.51c-.52,.44-1.02,.76-1.5,.94s-1,.27-1.55,.27c-.91,0-1.61-.22-2.1-.67s-.73-1.01-.73-1.71c0-.41,.09-.78,.28-1.11s.43-.61,.73-.81,.64-.36,1.01-.46c.28-.07,.69-.14,1.25-.21,1.14-.14,1.97-.3,2.51-.48,0-.19,0-.31,0-.37,0-.57-.13-.98-.4-1.21-.36-.32-.89-.48-1.6-.48-.66,0-1.15,.12-1.46,.35-.32,.23-.55,.64-.7,1.23l-1.38-.19c.12-.59,.33-1.06,.62-1.43,.29-.36,.7-.64,1.24-.84s1.17-.29,1.88-.29,1.28,.08,1.73,.25c.44,.17,.77,.38,.98,.63,.21,.25,.35,.57,.44,.96,.05,.24,.07,.67,.07,1.3v1.88c0,1.31,.03,2.13,.09,2.48,.06,.35,.18,.68,.36,1h-1.47c-.15-.29-.24-.63-.28-1.02Zm-.12-3.14c-.51,.21-1.28,.39-2.3,.53-.58,.08-.99,.18-1.23,.28-.24,.1-.42,.26-.55,.46-.13,.2-.2,.42-.2,.67,0,.38,.14,.69,.43,.94s.7,.38,1.25,.38,1.02-.12,1.45-.36c.42-.24,.73-.56,.93-.97,.15-.32,.23-.79,.23-1.41v-.52Zm-4.14-5.76v-1.6h1.47v1.6h-1.47Zm2.91,0v-1.6h1.47v1.6h-1.47Z"/><path d="M735.08,79.53v-11.45h1.41v11.45h-1.41Z"/><path d="M737.92,79.53v-1.14l5.28-6.06c-.6,.03-1.13,.05-1.59,.05h-3.38v-1.14h6.78v.93l-4.49,5.27-.87,.96c.63-.05,1.22-.07,1.77-.07h3.84v1.21h-7.34Z"/><path d="M752.1,79.53v-1.22c-.65,.94-1.52,1.41-2.63,1.41-.49,0-.95-.09-1.37-.28s-.74-.42-.95-.71c-.21-.28-.35-.63-.43-1.04-.06-.28-.09-.71-.09-1.31v-5.14h1.41v4.6c0,.73,.03,1.23,.09,1.48,.09,.37,.28,.66,.56,.87s.64,.32,1.06,.32,.82-.11,1.19-.32c.37-.22,.63-.51,.79-.88,.15-.37,.23-.91,.23-1.62v-4.45h1.41v8.3h-1.26Z"/><path d="M755.56,79.53v-8.3h1.27v1.18c.61-.91,1.49-1.37,2.64-1.37,.5,0,.96,.09,1.38,.27s.73,.42,.94,.71c.21,.29,.35,.64,.44,1.04,.05,.26,.08,.72,.08,1.37v5.1h-1.41v-5.05c0-.57-.05-1-.16-1.29-.11-.28-.3-.51-.58-.68-.28-.17-.61-.25-.98-.25-.6,0-1.12,.19-1.55,.57-.43,.38-.65,1.1-.65,2.16v4.53h-1.41Z"/><path d="M764.2,80.22l1.37,.2c.06,.42,.22,.73,.48,.92,.35,.26,.83,.39,1.43,.39,.65,0,1.15-.13,1.51-.39,.35-.26,.59-.62,.72-1.09,.07-.29,.11-.89,.1-1.8-.61,.72-1.38,1.09-2.3,1.09-1.14,0-2.02-.41-2.65-1.23-.62-.82-.94-1.81-.94-2.96,0-.79,.14-1.52,.43-2.19,.29-.67,.7-1.19,1.25-1.55,.54-.36,1.18-.55,1.92-.55,.98,0,1.79,.4,2.42,1.19v-1h1.3v7.17c0,1.29-.13,2.21-.39,2.75s-.68,.96-1.25,1.28-1.27,.47-2.11,.47c-.99,0-1.79-.22-2.4-.67s-.9-1.12-.88-2.01Zm1.16-4.98c0,1.09,.22,1.88,.65,2.38s.97,.75,1.62,.75,1.19-.25,1.62-.75c.44-.5,.66-1.28,.66-2.34s-.23-1.78-.68-2.3-.99-.77-1.63-.77-1.16,.25-1.59,.76-.66,1.26-.66,2.26Z"/><path d="M613.93,99.42l1.37,.2c.06,.42,.22,.73,.48,.92,.35,.26,.83,.39,1.43,.39,.65,0,1.15-.13,1.51-.39,.35-.26,.59-.62,.72-1.09,.07-.29,.11-.89,.1-1.8-.61,.72-1.38,1.09-2.3,1.09-1.14,0-2.02-.41-2.65-1.23-.62-.82-.94-1.81-.94-2.96,0-.79,.14-1.52,.43-2.19,.29-.67,.7-1.19,1.25-1.55,.54-.36,1.18-.55,1.92-.55,.98,0,1.79,.4,2.42,1.19v-1h1.3v7.17c0,1.29-.13,2.21-.39,2.75s-.68,.96-1.25,1.28-1.27,.47-2.11,.47c-.99,0-1.79-.22-2.4-.67s-.9-1.12-.88-2.01Zm1.16-4.98c0,1.09,.22,1.88,.65,2.38s.97,.75,1.62,.75,1.19-.25,1.62-.75c.44-.5,.66-1.28,.66-2.34s-.23-1.78-.68-2.3-.99-.77-1.63-.77-1.16,.25-1.59,.76-.66,1.26-.66,2.26Z"/><path d="M628.5,97.71c-.52,.44-1.02,.76-1.5,.94s-1,.27-1.55,.27c-.91,0-1.61-.22-2.1-.67s-.73-1.01-.73-1.71c0-.41,.09-.78,.28-1.11s.43-.61,.73-.81,.64-.36,1.01-.46c.28-.07,.69-.14,1.25-.21,1.14-.14,1.97-.3,2.51-.48,0-.19,0-.31,0-.37,0-.57-.13-.98-.4-1.21-.36-.32-.89-.48-1.6-.48-.66,0-1.15,.12-1.46,.35-.32,.23-.55,.64-.7,1.23l-1.38-.19c.12-.59,.33-1.06,.62-1.43,.29-.36,.7-.64,1.24-.84s1.17-.29,1.88-.29,1.28,.08,1.73,.25c.44,.17,.77,.38,.98,.63,.21,.25,.35,.57,.44,.96,.05,.24,.07,.67,.07,1.3v1.88c0,1.31,.03,2.13,.09,2.48,.06,.35,.18,.68,.36,1h-1.47c-.15-.29-.24-.63-.28-1.02Zm-.12-3.14c-.51,.21-1.28,.39-2.3,.53-.58,.08-.99,.18-1.23,.28-.24,.1-.42,.26-.55,.46-.13,.2-.2,.42-.2,.67,0,.38,.14,.69,.43,.94s.7,.38,1.25,.38,1.02-.12,1.45-.36c.42-.24,.73-.56,.93-.97,.15-.32,.23-.79,.23-1.41v-.52Z"/><path d="M631.98,98.73v-8.3h1.27v1.18c.61-.91,1.49-1.37,2.64-1.37,.5,0,.96,.09,1.38,.27s.73,.42,.94,.71c.21,.29,.35,.64,.44,1.04,.05,.26,.08,.72,.08,1.37v5.1h-1.41v-5.05c0-.57-.05-1-.16-1.29-.11-.28-.3-.51-.58-.68-.28-.17-.61-.25-.98-.25-.6,0-1.12,.19-1.55,.57-.43,.38-.65,1.1-.65,2.16v4.53h-1.41Z"/><path d="M640.14,98.73v-1.14l5.28-6.06c-.6,.03-1.13,.05-1.59,.05h-3.38v-1.14h6.78v.93l-4.49,5.27-.87,.96c.63-.05,1.22-.07,1.77-.07h3.84v1.21h-7.34Z"/><path d="M654.56,96.06l1.45,.18c-.23,.85-.65,1.51-1.27,1.98s-1.41,.7-2.38,.7c-1.21,0-2.18-.37-2.89-1.12-.71-.75-1.07-1.8-1.07-3.14s.36-2.48,1.08-3.25c.72-.77,1.65-1.16,2.8-1.16s2.02,.38,2.72,1.13c.7,.76,1.05,1.82,1.05,3.19,0,.08,0,.21,0,.38h-6.19c.05,.91,.31,1.61,.77,2.09s1.04,.73,1.73,.73c.52,0,.96-.14,1.32-.41,.36-.27,.65-.7,.87-1.3Zm-4.62-2.27h4.63c-.06-.7-.24-1.22-.53-1.57-.45-.54-1.03-.81-1.74-.81-.65,0-1.19,.22-1.63,.65-.44,.43-.68,1.01-.73,1.73Z"/><path d="M657.76,98.73v-8.3h1.27v1.26c.32-.59,.62-.98,.89-1.16s.57-.28,.9-.28c.47,0,.96,.15,1.45,.45l-.48,1.3c-.34-.2-.69-.3-1.03-.3-.31,0-.58,.09-.83,.28-.25,.19-.42,.44-.52,.77-.16,.5-.23,1.05-.23,1.64v4.34h-1.41Z"/><path d="M667.99,98.73v-11.45h1.52v11.45h-1.52Z"/><path d="M672,98.73v-8.3h1.27v1.18c.61-.91,1.49-1.37,2.64-1.37,.5,0,.96,.09,1.38,.27s.73,.42,.94,.71c.21,.29,.35,.64,.44,1.04,.05,.26,.08,.72,.08,1.37v5.1h-1.41v-5.05c0-.57-.05-1-.16-1.29-.11-.28-.3-.51-.58-.68-.28-.17-.61-.25-.98-.25-.6,0-1.12,.19-1.55,.57-.43,.38-.65,1.1-.65,2.16v4.53h-1.41Z"/><path d="M686.28,98.73v-1.05c-.53,.82-1.3,1.23-2.32,1.23-.66,0-1.27-.18-1.82-.55s-.98-.87-1.29-1.53c-.3-.65-.46-1.4-.46-2.25s.14-1.58,.41-2.25c.28-.67,.69-1.19,1.24-1.55s1.17-.54,1.85-.54c.5,0,.95,.11,1.34,.32s.71,.49,.95,.82v-4.11h1.4v11.45h-1.3Zm-4.45-4.14c0,1.06,.22,1.86,.67,2.38,.45,.53,.98,.79,1.59,.79s1.14-.25,1.57-.75c.43-.5,.64-1.27,.64-2.3,0-1.14-.22-1.97-.66-2.5s-.98-.8-1.62-.8-1.15,.26-1.57,.77c-.42,.51-.63,1.32-.63,2.41Z"/><path d="M695.23,98.73v-1.22c-.65,.94-1.52,1.41-2.63,1.41-.49,0-.95-.09-1.37-.28s-.74-.42-.95-.71c-.21-.28-.35-.63-.43-1.04-.06-.28-.09-.71-.09-1.31v-5.14h1.41v4.6c0,.73,.03,1.23,.09,1.48,.09,.37,.28,.66,.56,.87s.64,.32,1.06,.32,.82-.11,1.19-.32c.37-.22,.63-.51,.79-.88,.15-.37,.23-.91,.23-1.62v-4.45h1.41v8.3h-1.26Z"/><path d="M698.13,96.26l1.39-.22c.08,.56,.3,.98,.65,1.28s.86,.45,1.5,.45,1.12-.13,1.44-.39c.31-.26,.47-.57,.47-.93,0-.32-.14-.57-.41-.75-.19-.12-.67-.28-1.44-.48-1.03-.26-1.75-.49-2.14-.68-.4-.19-.7-.45-.91-.79s-.31-.71-.31-1.11c0-.37,.08-.71,.25-1.03,.17-.31,.4-.58,.69-.79,.22-.16,.52-.3,.89-.41,.38-.11,.78-.17,1.21-.17,.65,0,1.22,.09,1.71,.28s.86,.44,1.09,.76,.4,.75,.48,1.29l-1.38,.19c-.06-.43-.24-.76-.54-1-.3-.24-.72-.36-1.27-.36-.65,0-1.11,.11-1.38,.32-.28,.21-.41,.46-.41,.75,0,.18,.06,.35,.17,.49,.11,.15,.29,.28,.54,.38,.14,.05,.55,.17,1.24,.36,1,.27,1.69,.48,2.08,.65,.39,.17,.7,.42,.93,.74,.22,.32,.34,.72,.34,1.2s-.14,.91-.41,1.32-.67,.73-1.18,.96-1.1,.34-1.75,.34c-1.08,0-1.9-.22-2.46-.67-.57-.45-.93-1.11-1.08-1.99Z"/><path d="M709.76,97.47l.2,1.24c-.4,.08-.75,.12-1.06,.12-.51,0-.91-.08-1.19-.24s-.48-.37-.59-.64c-.11-.26-.17-.82-.17-1.66v-4.77h-1.03v-1.09h1.03v-2.05l1.4-.84v2.9h1.41v1.09h-1.41v4.85c0,.4,.02,.66,.07,.77,.05,.11,.13,.21,.24,.27,.11,.07,.27,.1,.48,.1,.16,0,.36-.02,.62-.05Z"/><path d="M711.12,98.73v-8.3h1.27v1.26c.32-.59,.62-.98,.89-1.16s.57-.28,.9-.28c.47,0,.96,.15,1.45,.45l-.48,1.3c-.34-.2-.69-.3-1.03-.3-.31,0-.58,.09-.83,.28-.25,.19-.42,.44-.52,.77-.16,.5-.23,1.05-.23,1.64v4.34h-1.41Z"/><path d="M716.48,88.9v-1.62h1.41v1.62h-1.41Zm0,9.84v-8.3h1.41v8.3h-1.41Z"/><path d="M725.7,96.06l1.45,.18c-.23,.85-.65,1.51-1.27,1.98s-1.41,.7-2.38,.7c-1.21,0-2.18-.37-2.89-1.12-.71-.75-1.07-1.8-1.07-3.14s.36-2.48,1.08-3.25c.72-.77,1.65-1.16,2.8-1.16s2.02,.38,2.72,1.13c.7,.76,1.05,1.82,1.05,3.19,0,.08,0,.21,0,.38h-6.19c.05,.91,.31,1.61,.77,2.09s1.04,.73,1.73,.73c.52,0,.96-.14,1.32-.41,.36-.27,.65-.7,.87-1.3Zm-4.62-2.27h4.63c-.06-.7-.24-1.22-.53-1.57-.45-.54-1.03-.81-1.74-.81-.65,0-1.19,.22-1.63,.65-.44,.43-.68,1.01-.73,1.73Z"/><path d="M728.92,98.73v-8.3h1.27v1.18c.61-.91,1.49-1.37,2.64-1.37,.5,0,.96,.09,1.38,.27s.73,.42,.94,.71c.21,.29,.35,.64,.44,1.04,.05,.26,.08,.72,.08,1.37v5.1h-1.41v-5.05c0-.57-.05-1-.16-1.29-.11-.28-.3-.51-.58-.68-.28-.17-.61-.25-.98-.25-.6,0-1.12,.19-1.55,.57-.43,.38-.65,1.1-.65,2.16v4.53h-1.41Z"/><path d="M738.19,98.73v-1.6h1.6v1.6c0,.59-.1,1.06-.31,1.43-.21,.36-.54,.64-.99,.84l-.39-.6c.3-.13,.52-.32,.66-.57,.14-.25,.22-.62,.23-1.09h-.8Zm0-6.7v-1.6h1.6v1.6h-1.6Z"/><path d="M619.73,113.44v-1.34h4.85v4.24c-.75,.59-1.51,1.04-2.3,1.34s-1.6,.45-2.44,.45c-1.12,0-2.15-.24-3.07-.72-.92-.48-1.61-1.18-2.08-2.09-.47-.91-.7-1.93-.7-3.05s.23-2.15,.7-3.12c.47-.97,1.14-1.68,2.01-2.15s1.88-.7,3.02-.7c.83,0,1.58,.13,2.25,.4,.67,.27,1.19,.64,1.57,1.12,.38,.48,.67,1.1,.87,1.88l-1.37,.38c-.17-.58-.39-1.04-.64-1.38-.25-.33-.62-.6-1.09-.8-.47-.2-1-.3-1.58-.3-.69,0-1.29,.11-1.8,.32s-.91,.49-1.22,.83-.55,.72-.72,1.13c-.29,.71-.44,1.48-.44,2.3,0,1.02,.18,1.88,.53,2.56s.86,1.2,1.54,1.53c.67,.33,1.39,.5,2.14,.5,.66,0,1.3-.13,1.92-.38,.62-.25,1.1-.52,1.42-.81v-2.13h-3.37Z"/><path d="M632.31,115.26l1.45,.18c-.23,.85-.65,1.51-1.27,1.98s-1.41,.7-2.38,.7c-1.21,0-2.18-.37-2.89-1.12-.71-.75-1.07-1.8-1.07-3.14s.36-2.48,1.08-3.25c.72-.77,1.65-1.16,2.8-1.16s2.02,.38,2.72,1.13c.7,.76,1.05,1.82,1.05,3.19,0,.08,0,.21,0,.38h-6.19c.05,.91,.31,1.61,.77,2.09s1.04,.73,1.73,.73c.52,0,.96-.14,1.32-.41,.36-.27,.65-.7,.87-1.3Zm-4.62-2.27h4.63c-.06-.7-.24-1.22-.53-1.57-.45-.54-1.03-.81-1.74-.81-.65,0-1.19,.22-1.63,.65-.44,.43-.68,1.01-.73,1.73Z"/><path d="M634.97,115.46l1.39-.22c.08,.56,.3,.98,.65,1.28s.86,.45,1.5,.45,1.12-.13,1.44-.39c.31-.26,.47-.57,.47-.93,0-.32-.14-.57-.41-.75-.19-.12-.67-.28-1.44-.48-1.03-.26-1.75-.49-2.14-.68-.4-.19-.7-.45-.91-.79s-.31-.71-.31-1.11c0-.37,.08-.71,.25-1.03,.17-.31,.4-.58,.69-.79,.22-.16,.52-.3,.89-.41,.38-.11,.78-.17,1.21-.17,.65,0,1.22,.09,1.71,.28s.86,.44,1.09,.76,.4,.75,.48,1.29l-1.38,.19c-.06-.43-.24-.76-.54-1-.3-.24-.72-.36-1.27-.36-.65,0-1.11,.11-1.38,.32-.28,.21-.41,.46-.41,.75,0,.18,.06,.35,.17,.49,.11,.15,.29,.28,.54,.38,.14,.05,.55,.17,1.24,.36,1,.27,1.69,.48,2.08,.65,.39,.17,.7,.42,.93,.74,.22,.32,.34,.72,.34,1.2s-.14,.91-.41,1.32-.67,.73-1.18,.96-1.1,.34-1.75,.34c-1.08,0-1.9-.22-2.46-.67-.57-.45-.93-1.11-1.08-1.99Z"/><path d="M649.21,115.26l1.45,.18c-.23,.85-.65,1.51-1.27,1.98s-1.41,.7-2.38,.7c-1.21,0-2.18-.37-2.89-1.12-.71-.75-1.07-1.8-1.07-3.14s.36-2.48,1.08-3.25c.72-.77,1.65-1.16,2.8-1.16s2.02,.38,2.72,1.13c.7,.76,1.05,1.82,1.05,3.19,0,.08,0,.21,0,.38h-6.19c.05,.91,.31,1.61,.77,2.09s1.04,.73,1.73,.73c.52,0,.96-.14,1.32-.41,.36-.27,.65-.7,.87-1.3Zm-4.62-2.27h4.63c-.06-.7-.24-1.22-.53-1.57-.45-.54-1.03-.81-1.74-.81-.65,0-1.19,.22-1.63,.65-.44,.43-.68,1.01-.73,1.73Z"/><path d="M652.4,117.93v-11.45h1.41v11.45h-1.41Z"/><path d="M655.95,117.93v-11.45h1.41v11.45h-1.41Z"/><path d="M658.98,115.46l1.39-.22c.08,.56,.3,.98,.65,1.28s.86,.45,1.5,.45,1.12-.13,1.44-.39c.31-.26,.47-.57,.47-.93,0-.32-.14-.57-.41-.75-.19-.12-.67-.28-1.44-.48-1.03-.26-1.75-.49-2.14-.68-.4-.19-.7-.45-.91-.79s-.31-.71-.31-1.11c0-.37,.08-.71,.25-1.03,.17-.31,.4-.58,.69-.79,.22-.16,.52-.3,.89-.41,.38-.11,.78-.17,1.21-.17,.65,0,1.22,.09,1.71,.28s.86,.44,1.09,.76,.4,.75,.48,1.29l-1.38,.19c-.06-.43-.24-.76-.54-1-.3-.24-.72-.36-1.27-.36-.65,0-1.11,.11-1.38,.32-.28,.21-.41,.46-.41,.75,0,.18,.06,.35,.17,.49,.11,.15,.29,.28,.54,.38,.14,.05,.55,.17,1.24,.36,1,.27,1.69,.48,2.08,.65,.39,.17,.7,.42,.93,.74,.22,.32,.34,.72,.34,1.2s-.14,.91-.41,1.32-.67,.73-1.18,.96-1.1,.34-1.75,.34c-1.08,0-1.9-.22-2.46-.67-.57-.45-.93-1.11-1.08-1.99Z"/><path d="M672.95,114.89l1.38,.18c-.15,.95-.54,1.7-1.16,2.24s-1.39,.81-2.29,.81c-1.14,0-2.05-.37-2.74-1.11s-1.04-1.81-1.04-3.19c0-.9,.15-1.68,.45-2.35s.75-1.18,1.36-1.51,1.27-.5,1.98-.5c.9,0,1.64,.23,2.21,.68,.57,.46,.94,1.1,1.1,1.94l-1.37,.21c-.13-.56-.36-.98-.69-1.26s-.73-.42-1.2-.42c-.71,0-1.28,.25-1.73,.76s-.66,1.31-.66,2.41,.21,1.92,.64,2.43c.43,.51,.98,.76,1.67,.76,.55,0,1.01-.17,1.38-.51,.37-.34,.6-.86,.7-1.56Z"/><path d="M675.54,117.93v-11.45h1.41v4.11c.66-.76,1.48-1.14,2.48-1.14,.61,0,1.15,.12,1.6,.36s.78,.58,.97,1c.2,.43,.29,1.05,.29,1.86v5.26h-1.41v-5.26c0-.7-.15-1.21-.46-1.54s-.74-.48-1.29-.48c-.42,0-.81,.11-1.18,.32-.37,.22-.63,.51-.79,.88-.16,.37-.23,.88-.23,1.53v4.54h-1.41Z"/><path d="M689.85,116.91c-.52,.44-1.02,.76-1.5,.94s-1,.27-1.55,.27c-.91,0-1.61-.22-2.1-.67s-.73-1.01-.73-1.71c0-.41,.09-.78,.28-1.11s.43-.61,.73-.81,.64-.36,1.01-.46c.28-.07,.69-.14,1.25-.21,1.14-.14,1.97-.3,2.51-.48,0-.19,0-.31,0-.37,0-.57-.13-.98-.4-1.21-.36-.32-.89-.48-1.6-.48-.66,0-1.15,.12-1.46,.35-.32,.23-.55,.64-.7,1.23l-1.38-.19c.12-.59,.33-1.06,.62-1.43,.29-.36,.7-.64,1.24-.84s1.17-.29,1.88-.29,1.28,.08,1.73,.25c.44,.17,.77,.38,.98,.63,.21,.25,.35,.57,.44,.96,.05,.24,.07,.67,.07,1.3v1.88c0,1.31,.03,2.13,.09,2.48,.06,.35,.18,.68,.36,1h-1.47c-.15-.29-.24-.63-.28-1.02Zm-.12-3.14c-.51,.21-1.28,.39-2.3,.53-.58,.08-.99,.18-1.23,.28-.24,.1-.42,.26-.55,.46-.13,.2-.2,.42-.2,.67,0,.38,.14,.69,.43,.94s.7,.38,1.25,.38,1.02-.12,1.45-.36c.42-.24,.73-.56,.93-.97,.15-.32,.23-.79,.23-1.41v-.52Z"/><path d="M693.67,117.93v-7.2h-1.24v-1.09h1.24v-.88c0-.56,.05-.97,.15-1.24,.14-.36,.37-.66,.71-.89s.82-.34,1.43-.34c.4,0,.83,.05,1.31,.14l-.21,1.23c-.29-.05-.57-.08-.83-.08-.43,0-.73,.09-.91,.27-.18,.18-.27,.52-.27,1.02v.77h1.62v1.09h-1.62v7.2h-1.4Z"/><path d="M700.85,116.67l.2,1.24c-.4,.08-.75,.12-1.06,.12-.51,0-.91-.08-1.19-.24s-.48-.37-.59-.64c-.11-.26-.17-.82-.17-1.66v-4.77h-1.03v-1.09h1.03v-2.05l1.4-.84v2.9h1.41v1.09h-1.41v4.85c0,.4,.02,.66,.07,.77,.05,.11,.13,.21,.24,.27,.11,.07,.27,.1,.48,.1,.16,0,.36-.02,.62-.05Z"/><path d="M702.19,117.93v-11.45h1.41v11.45h-1.41Z"/><path d="M705.79,108.1v-1.62h1.41v1.62h-1.41Zm0,9.84v-8.3h1.41v8.3h-1.41Z"/><path d="M714.75,114.89l1.38,.18c-.15,.95-.54,1.7-1.16,2.24s-1.39,.81-2.29,.81c-1.14,0-2.05-.37-2.74-1.11s-1.04-1.81-1.04-3.19c0-.9,.15-1.68,.45-2.35s.75-1.18,1.36-1.51,1.27-.5,1.98-.5c.9,0,1.64,.23,2.21,.68,.57,.46,.94,1.1,1.1,1.94l-1.37,.21c-.13-.56-.36-.98-.69-1.26s-.73-.42-1.2-.42c-.71,0-1.28,.25-1.73,.76s-.66,1.31-.66,2.41,.21,1.92,.64,2.43c.43,.51,.98,.76,1.67,.76,.55,0,1.01-.17,1.38-.51,.37-.34,.6-.86,.7-1.56Z"/><path d="M717.33,117.93v-11.45h1.41v4.11c.66-.76,1.48-1.14,2.48-1.14,.61,0,1.15,.12,1.6,.36s.78,.58,.97,1c.2,.43,.29,1.05,.29,1.86v5.26h-1.41v-5.26c0-.7-.15-1.21-.46-1.54s-.74-.48-1.29-.48c-.42,0-.81,.11-1.18,.32-.37,.22-.63,.51-.79,.88-.16,.37-.23,.88-.23,1.53v4.54h-1.41Z"/><path d="M731.91,115.26l1.45,.18c-.23,.85-.65,1.51-1.27,1.98s-1.41,.7-2.38,.7c-1.21,0-2.18-.37-2.89-1.12-.71-.75-1.07-1.8-1.07-3.14s.36-2.48,1.08-3.25c.72-.77,1.65-1.16,2.8-1.16s2.02,.38,2.72,1.13c.7,.76,1.05,1.82,1.05,3.19,0,.08,0,.21,0,.38h-6.19c.05,.91,.31,1.61,.77,2.09s1.04,.73,1.73,.73c.52,0,.96-.14,1.32-.41,.36-.27,.65-.7,.87-1.3Zm-4.62-2.27h4.63c-.06-.7-.24-1.22-.53-1.57-.45-.54-1.03-.81-1.74-.81-.65,0-1.19,.22-1.63,.65-.44,.43-.68,1.01-.73,1.73Z"/><path d="M735.12,117.93v-8.3h1.27v1.26c.32-.59,.62-.98,.89-1.16s.57-.28,.9-.28c.47,0,.96,.15,1.45,.45l-.48,1.3c-.34-.2-.69-.3-1.03-.3-.31,0-.58,.09-.83,.28-.25,.19-.42,.44-.52,.77-.16,.5-.23,1.05-.23,1.64v4.34h-1.41Z"/><path d="M747.08,117.93l-3.04-11.45h1.55l1.74,7.51c.19,.79,.35,1.57,.48,2.34,.29-1.22,.46-1.93,.52-2.12l2.18-7.73h1.83l1.64,5.8c.41,1.44,.71,2.79,.89,4.05,.15-.72,.34-1.55,.57-2.49l1.8-7.36h1.52l-3.14,11.45h-1.46l-2.41-8.73c-.2-.73-.32-1.18-.36-1.34-.12,.53-.23,.97-.34,1.34l-2.43,8.73h-1.55Z"/><path d="M765.4,115.26l1.45,.18c-.23,.85-.65,1.51-1.27,1.98s-1.41,.7-2.38,.7c-1.21,0-2.18-.37-2.89-1.12-.71-.75-1.07-1.8-1.07-3.14s.36-2.48,1.08-3.25c.72-.77,1.65-1.16,2.8-1.16s2.02,.38,2.72,1.13c.7,.76,1.05,1.82,1.05,3.19,0,.08,0,.21,0,.38h-6.19c.05,.91,.31,1.61,.77,2.09s1.04,.73,1.73,.73c.52,0,.96-.14,1.32-.41,.36-.27,.65-.7,.87-1.3Zm-4.62-2.27h4.63c-.06-.7-.24-1.22-.53-1.57-.45-.54-1.03-.81-1.74-.81-.65,0-1.19,.22-1.63,.65-.44,.43-.68,1.01-.73,1.73Z"/><path d="M768.6,117.93v-8.3h1.27v1.26c.32-.59,.62-.98,.89-1.16s.57-.28,.9-.28c.47,0,.96,.15,1.45,.45l-.48,1.3c-.34-.2-.69-.3-1.03-.3-.31,0-.58,.09-.83,.28-.25,.19-.42,.44-.52,.77-.16,.5-.23,1.05-.23,1.64v4.34h-1.41Z"/><path d="M777.01,116.67l.2,1.24c-.4,.08-.75,.12-1.06,.12-.51,0-.91-.08-1.19-.24s-.48-.37-.59-.64c-.11-.26-.17-.82-.17-1.66v-4.77h-1.03v-1.09h1.03v-2.05l1.4-.84v2.9h1.41v1.09h-1.41v4.85c0,.4,.02,.66,.07,.77,.05,.11,.13,.21,.24,.27,.11,.07,.27,.1,.48,.1,.16,0,.36-.02,.62-.05Z"/><path d="M784.07,115.26l1.45,.18c-.23,.85-.65,1.51-1.27,1.98s-1.41,.7-2.38,.7c-1.21,0-2.18-.37-2.89-1.12-.71-.75-1.07-1.8-1.07-3.14s.36-2.48,1.08-3.25c.72-.77,1.65-1.16,2.8-1.16s2.02,.38,2.72,1.13c.7,.76,1.05,1.82,1.05,3.19,0,.08,0,.21,0,.38h-6.19c.05,.91,.31,1.61,.77,2.09s1.04,.73,1.73,.73c.52,0,.96-.14,1.32-.41,.36-.27,.65-.7,.87-1.3Zm-4.62-2.27h4.63c-.06-.7-.24-1.22-.53-1.57-.45-.54-1.03-.81-1.74-.81-.65,0-1.19,.22-1.63,.65-.44,.43-.68,1.01-.73,1.73Z"/><path d="M786.74,114.5v-1.41h4.32v1.41h-4.32Z"/><path d="M619.62,137.13v-1.22c-.65,.94-1.52,1.41-2.63,1.41-.49,0-.95-.09-1.37-.28s-.74-.42-.95-.71c-.21-.28-.35-.63-.43-1.04-.06-.28-.09-.71-.09-1.31v-5.14h1.41v4.6c0,.73,.03,1.23,.09,1.48,.09,.37,.28,.66,.56,.87s.64,.32,1.06,.32,.82-.11,1.19-.32c.37-.22,.63-.51,.79-.88,.15-.37,.23-.91,.23-1.62v-4.45h1.41v8.3h-1.26Z"/><path d="M623.08,137.13v-8.3h1.27v1.18c.61-.91,1.49-1.37,2.64-1.37,.5,0,.96,.09,1.38,.27s.73,.42,.94,.71c.21,.29,.35,.64,.44,1.04,.05,.26,.08,.72,.08,1.37v5.1h-1.41v-5.05c0-.57-.05-1-.16-1.29-.11-.28-.3-.51-.58-.68-.28-.17-.61-.25-.98-.25-.6,0-1.12,.19-1.55,.57-.43,.38-.65,1.1-.65,2.16v4.53h-1.41Z"/><path d="M637.37,137.13v-1.05c-.53,.82-1.3,1.23-2.32,1.23-.66,0-1.27-.18-1.82-.55s-.98-.87-1.29-1.53c-.3-.65-.46-1.4-.46-2.25s.14-1.58,.41-2.25c.28-.67,.69-1.19,1.24-1.55s1.17-.54,1.85-.54c.5,0,.95,.11,1.34,.32s.71,.49,.95,.82v-4.11h1.4v11.45h-1.3Zm-4.45-4.14c0,1.06,.22,1.86,.67,2.38,.45,.53,.98,.79,1.59,.79s1.14-.25,1.57-.75c.43-.5,.64-1.27,.64-2.3,0-1.14-.22-1.97-.66-2.5s-.98-.8-1.62-.8-1.15,.26-1.57,.77c-.42,.51-.63,1.32-.63,2.41Z"/><path d="M645.49,137.13v-11.45h1.55l6.02,8.99v-8.99h1.45v11.45h-1.55l-6.02-9v9h-1.45Z"/><path d="M656.36,132.98c0-1.54,.43-2.67,1.28-3.41,.71-.61,1.58-.92,2.61-.92,1.14,0,2.07,.37,2.8,1.12,.72,.75,1.09,1.78,1.09,3.1,0,1.07-.16,1.91-.48,2.52-.32,.61-.79,1.09-1.4,1.43s-1.28,.51-2,.51c-1.16,0-2.1-.37-2.82-1.12-.72-.74-1.07-1.82-1.07-3.22Zm1.45,0c0,1.06,.23,1.86,.7,2.39,.46,.53,1.05,.79,1.75,.79s1.28-.27,1.74-.8,.7-1.34,.7-2.43c0-1.03-.23-1.8-.7-2.33-.47-.53-1.05-.79-1.74-.79s-1.29,.26-1.75,.79c-.46,.53-.7,1.32-.7,2.38Z"/><path d="M665.76,137.13v-8.3h1.27v1.26c.32-.59,.62-.98,.89-1.16s.57-.28,.9-.28c.47,0,.96,.15,1.45,.45l-.48,1.3c-.34-.2-.69-.3-1.03-.3-.31,0-.58,.09-.83,.28-.25,.19-.42,.44-.52,.77-.16,.5-.23,1.05-.23,1.64v4.34h-1.41Z"/><path d="M671.11,137.13v-8.3h1.26v1.16c.26-.41,.61-.73,1.04-.98,.43-.25,.92-.37,1.48-.37,.61,0,1.12,.13,1.51,.38,.39,.26,.67,.61,.83,1.07,.66-.97,1.51-1.45,2.56-1.45,.82,0,1.46,.23,1.9,.68,.44,.46,.66,1.16,.66,2.11v5.7h-1.4v-5.23c0-.56-.05-.97-.14-1.21-.09-.25-.26-.45-.5-.6-.24-.15-.52-.23-.84-.23-.58,0-1.07,.19-1.45,.58-.39,.39-.58,1.01-.58,1.86v4.82h-1.41v-5.39c0-.62-.11-1.09-.34-1.41s-.6-.47-1.12-.47c-.4,0-.76,.1-1.1,.31-.34,.21-.58,.51-.73,.91-.15,.4-.23,.98-.23,1.73v4.3h-1.41Z"/><path d="M690.12,134.46l1.45,.18c-.23,.85-.65,1.51-1.27,1.98s-1.41,.7-2.38,.7c-1.21,0-2.18-.37-2.89-1.12-.71-.75-1.07-1.8-1.07-3.14s.36-2.48,1.08-3.25c.72-.77,1.65-1.16,2.8-1.16s2.02,.38,2.72,1.13c.7,.76,1.05,1.82,1.05,3.19,0,.08,0,.21,0,.38h-6.19c.05,.91,.31,1.61,.77,2.09s1.04,.73,1.73,.73c.52,0,.96-.14,1.32-.41,.36-.27,.65-.7,.87-1.3Zm-4.62-2.27h4.63c-.06-.7-.24-1.22-.53-1.57-.45-.54-1.03-.81-1.74-.81-.65,0-1.19,.22-1.63,.65-.44,.43-.68,1.01-.73,1.73Z"/><path d="M693.33,137.13v-8.3h1.27v1.18c.61-.91,1.49-1.37,2.64-1.37,.5,0,.96,.09,1.38,.27s.73,.42,.94,.71c.21,.29,.35,.64,.44,1.04,.05,.26,.08,.72,.08,1.37v5.1h-1.41v-5.05c0-.57-.05-1-.16-1.29-.11-.28-.3-.51-.58-.68-.28-.17-.61-.25-.98-.25-.6,0-1.12,.19-1.55,.57-.43,.38-.65,1.1-.65,2.16v4.53h-1.41Z"/><path d="M703.76,137.13l-2.54-8.3h1.45l1.32,4.79,.49,1.78c.02-.09,.16-.66,.43-1.71l1.32-4.86h1.45l1.24,4.81,.41,1.59,.48-1.6,1.42-4.8h1.37l-2.59,8.3h-1.46l-1.32-4.97-.32-1.41-1.68,6.38h-1.47Z"/><path d="M719.2,136.11c-.52,.44-1.02,.76-1.5,.94s-1,.27-1.55,.27c-.91,0-1.61-.22-2.1-.67s-.73-1.01-.73-1.71c0-.41,.09-.78,.28-1.11s.43-.61,.73-.81,.64-.36,1.01-.46c.28-.07,.69-.14,1.25-.21,1.14-.14,1.97-.3,2.51-.48,0-.19,0-.31,0-.37,0-.57-.13-.98-.4-1.21-.36-.32-.89-.48-1.6-.48-.66,0-1.15,.12-1.46,.35-.32,.23-.55,.64-.7,1.23l-1.38-.19c.12-.59,.33-1.06,.62-1.43,.29-.36,.7-.64,1.24-.84s1.17-.29,1.88-.29,1.28,.08,1.73,.25c.44,.17,.77,.38,.98,.63,.21,.25,.35,.57,.44,.96,.05,.24,.07,.67,.07,1.3v1.88c0,1.31,.03,2.13,.09,2.48,.06,.35,.18,.68,.36,1h-1.47c-.15-.29-.24-.63-.28-1.02Zm-.12-3.14c-.51,.21-1.28,.39-2.3,.53-.58,.08-.99,.18-1.23,.28-.24,.1-.42,.26-.55,.46-.13,.2-.2,.42-.2,.67,0,.38,.14,.69,.43,.94s.7,.38,1.25,.38,1.02-.12,1.45-.36c.42-.24,.73-.56,.93-.97,.15-.32,.23-.79,.23-1.41v-.52Z"/><path d="M722.69,137.13v-8.3h1.27v1.18c.61-.91,1.49-1.37,2.64-1.37,.5,0,.96,.09,1.38,.27s.73,.42,.94,.71c.21,.29,.35,.64,.44,1.04,.05,.26,.08,.72,.08,1.37v5.1h-1.41v-5.05c0-.57-.05-1-.16-1.29-.11-.28-.3-.51-.58-.68-.28-.17-.61-.25-.98-.25-.6,0-1.12,.19-1.55,.57-.43,.38-.65,1.1-.65,2.16v4.53h-1.41Z"/><path d="M736.97,137.13v-1.05c-.53,.82-1.3,1.23-2.32,1.23-.66,0-1.27-.18-1.82-.55s-.98-.87-1.29-1.53c-.3-.65-.46-1.4-.46-2.25s.14-1.58,.41-2.25c.28-.67,.69-1.19,1.24-1.55s1.17-.54,1.85-.54c.5,0,.95,.11,1.34,.32s.71,.49,.95,.82v-4.11h1.4v11.45h-1.3Zm-4.45-4.14c0,1.06,.22,1.86,.67,2.38,.45,.53,.98,.79,1.59,.79s1.14-.25,1.57-.75c.43-.5,.64-1.27,.64-2.3,0-1.14-.22-1.97-.66-2.5s-.98-.8-1.62-.8-1.15,.26-1.57,.77c-.42,.51-.63,1.32-.63,2.41Z"/><path d="M746.16,134.46l1.45,.18c-.23,.85-.65,1.51-1.27,1.98s-1.41,.7-2.38,.7c-1.21,0-2.18-.37-2.89-1.12-.71-.75-1.07-1.8-1.07-3.14s.36-2.48,1.08-3.25c.72-.77,1.65-1.16,2.8-1.16s2.02,.38,2.72,1.13c.7,.76,1.05,1.82,1.05,3.19,0,.08,0,.21,0,.38h-6.19c.05,.91,.31,1.61,.77,2.09s1.04,.73,1.73,.73c.52,0,.96-.14,1.32-.41,.36-.27,.65-.7,.87-1.3Zm-4.62-2.27h4.63c-.06-.7-.24-1.22-.53-1.57-.45-.54-1.03-.81-1.74-.81-.65,0-1.19,.22-1.63,.65-.44,.43-.68,1.01-.73,1.73Z"/><path d="M749.35,137.13v-11.45h1.41v11.45h-1.41Z"/></g><text class="h" transform="translate(852.72 137.13)"><tspan x="0" y="0">o</tspan><tspan class="b" x="8.9" y="0">f</tspan><tspan x="13.05" y="0">fen</tspan></text><g><path class="j" d="M37.71,267.74c0-45.01,36.42-81.49,81.34-81.49s81.34,36.49,81.34,81.49-36.42,81.49-81.34,81.49-81.34-36.49-81.34-81.49Z"/><text class="e" transform="translate(55.95 251.76)"><tspan x="0" y="0">Entstehung und </tspan><tspan class="o" x="16.43" y="19.2">V</tspan><tspan x="26.21" y="19.2">erbreitung </tspan></text><text class="g" transform="translate(76.35 294.7)"><tspan x="0" y="0">1990 - 2000</tspan></text><path class="l" d="M119.21,186.25l.7-56.96"/></g><g><path class="j" d="M276.99,267.74c0-45.01,36.42-81.49,81.34-81.49s81.34,36.49,81.34,81.49-36.42,81.49-81.34,81.49-81.34-36.49-81.34-81.49Z"/><text class="c" transform="translate(313.43 234.52)"><tspan x="0" y="0">Allgemeine </tspan><tspan x="-11.54" y="19.2">Akzeptanz und</tspan><tspan x="-22.23" y="38.4">alltgliche mobile</tspan><tspan x="12.91" y="57.6">Nutzung</tspan></text><text class="g" transform="translate(300.51 311.94)"><tspan x="0" y="0">2000 - ca. 2015 </tspan></text><path class="l" d="M358.17,129.29v56.96"/></g><g><path class="j" d="M516.27,267.74c0-45.01,36.49-81.49,81.49-81.49s81.49,36.49,81.49,81.49-36.49,81.49-81.49,81.49-81.49-36.49-81.49-81.49Z"/><g><path class="d" d="M566.58,243.29h-2.52l-1-2.6h-4.58l-.95,2.6h-2.45l4.46-11.45h2.45l4.59,11.45Zm-4.26-4.53l-1.58-4.25-1.55,4.25h3.12Z"/><path class="d" d="M567.79,243.29v-11.45h2.2v11.45h-2.2Z"/><path class="d" d="M572.23,243.29v-11.45h2.2v11.45h-2.2Z"/><path class="d" d="M576.48,243.84l2.51,.3c.04,.29,.14,.49,.29,.6,.21,.16,.54,.23,.98,.23,.57,0,1-.09,1.29-.26,.19-.11,.34-.3,.44-.55,.07-.18,.1-.52,.1-1.01v-1.21c-.66,.9-1.48,1.34-2.48,1.34-1.11,0-2-.47-2.65-1.41-.51-.74-.77-1.67-.77-2.78,0-1.39,.33-2.45,1-3.19s1.5-1.1,2.5-1.1,1.87,.45,2.54,1.35v-1.16h2.05v7.45c0,.98-.08,1.71-.24,2.2s-.39,.86-.68,1.14c-.29,.28-.68,.49-1.17,.65s-1.1,.23-1.85,.23c-1.41,0-2.4-.24-2.99-.72-.59-.48-.88-1.09-.88-1.83,0-.07,0-.16,0-.27Zm1.96-4.87c0,.88,.17,1.52,.51,1.93,.34,.41,.76,.61,1.26,.61,.54,0,.99-.21,1.36-.63,.37-.42,.55-1.04,.55-1.86s-.18-1.5-.53-1.91c-.35-.42-.8-.62-1.34-.62s-.96,.2-1.3,.61c-.34,.41-.51,1.03-.51,1.87Z"/><path class="d" d="M591.26,240.65l2.19,.37c-.28,.8-.73,1.41-1.33,1.83-.61,.42-1.37,.63-2.28,.63-1.44,0-2.51-.47-3.2-1.41-.55-.75-.82-1.71-.82-2.86,0-1.38,.36-2.45,1.08-3.23,.72-.78,1.63-1.17,2.73-1.17,1.23,0,2.21,.41,2.92,1.22,.71,.82,1.05,2.06,1.02,3.75h-5.5c.02,.65,.19,1.16,.53,1.52,.34,.36,.76,.54,1.27,.54,.34,0,.63-.09,.87-.28s.41-.49,.53-.91Zm.12-2.22c-.02-.64-.18-1.12-.49-1.45-.31-.33-.69-.5-1.14-.5-.48,0-.88,.17-1.19,.52-.31,.35-.47,.82-.46,1.42h3.28Z"/><path class="d" d="M595.19,235h2.02v1.13c.72-.88,1.59-1.32,2.59-1.32,.53,0,.99,.11,1.38,.33s.71,.55,.96,.99c.36-.44,.76-.77,1.18-.99s.87-.33,1.35-.33c.61,0,1.12,.12,1.55,.37,.42,.25,.74,.61,.95,1.09,.15,.35,.23,.93,.23,1.72v5.3h-2.2v-4.74c0-.82-.08-1.35-.23-1.59-.2-.31-.52-.47-.94-.47-.31,0-.6,.09-.87,.28s-.47,.46-.59,.82c-.12,.36-.18,.93-.18,1.71v3.98h-2.2v-4.55c0-.81-.04-1.33-.12-1.56s-.2-.41-.36-.52c-.16-.11-.39-.17-.67-.17-.34,0-.64,.09-.91,.27-.27,.18-.46,.45-.58,.79s-.18,.91-.18,1.71v4.03h-2.2v-8.3Z"/><path class="d" d="M614.38,240.65l2.19,.37c-.28,.8-.73,1.41-1.33,1.83-.61,.42-1.37,.63-2.28,.63-1.44,0-2.51-.47-3.2-1.41-.55-.75-.82-1.71-.82-2.86,0-1.38,.36-2.45,1.08-3.23,.72-.78,1.63-1.17,2.73-1.17,1.23,0,2.21,.41,2.92,1.22,.71,.82,1.05,2.06,1.02,3.75h-5.5c.02,.65,.19,1.16,.53,1.52,.34,.36,.76,.54,1.27,.54,.34,0,.63-.09,.87-.28s.41-.49,.53-.91Zm.12-2.22c-.02-.64-.18-1.12-.49-1.45-.31-.33-.69-.5-1.14-.5-.48,0-.88,.17-1.19,.52-.31,.35-.47,.82-.46,1.42h3.28Z"/><path class="d" d="M618.48,233.87v-2.03h2.2v2.03h-2.2Zm0,9.42v-8.3h2.2v8.3h-2.2Z"/><path class="d" d="M630.47,243.29h-2.2v-4.23c0-.9-.05-1.48-.14-1.74-.09-.26-.25-.47-.46-.61-.21-.15-.46-.22-.76-.22-.38,0-.72,.1-1.02,.31-.3,.21-.51,.48-.62,.83s-.17,.98-.17,1.91v3.76h-2.2v-8.3h2.04v1.22c.72-.94,1.64-1.41,2.73-1.41,.48,0,.93,.09,1.33,.26,.4,.17,.7,.4,.91,.67,.21,.27,.35,.58,.43,.92s.12,.84,.12,1.48v5.16Z"/><path class="d" d="M637.5,240.65l2.19,.37c-.28,.8-.73,1.41-1.33,1.83-.61,.42-1.37,.63-2.28,.63-1.44,0-2.51-.47-3.2-1.41-.55-.75-.82-1.71-.82-2.86,0-1.38,.36-2.45,1.08-3.23,.72-.78,1.63-1.17,2.73-1.17,1.23,0,2.21,.41,2.92,1.22,.71,.82,1.05,2.06,1.02,3.75h-5.5c.02,.65,.19,1.16,.53,1.52,.34,.36,.76,.54,1.27,.54,.34,0,.63-.09,.87-.28s.41-.49,.53-.91Zm.12-2.22c-.02-.64-.18-1.12-.49-1.45-.31-.33-.69-.5-1.14-.5-.48,0-.88,.17-1.19,.52-.31,.35-.47,.82-.46,1.42h3.28Z"/><path class="d" d="M552.28,262.49v-11.45h4.87c1.22,0,2.11,.1,2.67,.31,.55,.21,1,.57,1.33,1.1,.33,.53,.5,1.13,.5,1.8,0,.86-.25,1.57-.76,2.13-.5,.56-1.26,.91-2.27,1.06,.5,.29,.91,.61,1.24,.96,.33,.35,.76,.97,1.32,1.86l1.4,2.23h-2.77l-1.67-2.49c-.59-.89-1-1.45-1.22-1.68-.22-.23-.45-.39-.7-.48s-.63-.13-1.16-.13h-.47v4.78h-2.31Zm2.31-6.61h1.71c1.11,0,1.8-.05,2.08-.14s.49-.25,.65-.48c.16-.23,.23-.52,.23-.86,0-.39-.1-.7-.31-.93-.21-.24-.5-.39-.87-.45-.19-.03-.75-.04-1.69-.04h-1.8v2.91Z"/><path class="d" d="M568.62,259.85l2.19,.37c-.28,.8-.73,1.41-1.33,1.83-.61,.42-1.37,.63-2.28,.63-1.44,0-2.51-.47-3.2-1.41-.55-.75-.82-1.71-.82-2.86,0-1.38,.36-2.45,1.08-3.23,.72-.78,1.63-1.17,2.73-1.17,1.23,0,2.21,.41,2.92,1.22,.71,.82,1.05,2.06,1.02,3.75h-5.5c.02,.65,.19,1.16,.53,1.52,.34,.36,.76,.54,1.27,.54,.34,0,.63-.09,.87-.28s.41-.49,.53-.91Zm.12-2.22c-.02-.64-.18-1.12-.49-1.45-.31-.33-.69-.5-1.14-.5-.48,0-.88,.17-1.19,.52-.31,.35-.47,.82-.46,1.42h3.28Z"/><path class="d" d="M572.71,253.07v-2.03h2.2v2.03h-2.2Zm0,9.42v-8.3h2.2v8.3h-2.2Z"/><path class="d" d="M576.2,254.2h1.22v-.62c0-.7,.07-1.22,.22-1.56s.42-.62,.82-.84c.4-.22,.9-.32,1.51-.32s1.24,.09,1.84,.28l-.3,1.53c-.35-.08-.68-.12-1.01-.12s-.55,.07-.68,.22-.21,.43-.21,.86v.59h1.64v1.73h-1.64v6.57h-2.2v-6.57h-1.22v-1.73Z"/><path class="d" d="M587.95,262.49v-1.24c-.3,.44-.7,.79-1.19,1.05s-1.01,.38-1.56,.38-1.06-.12-1.5-.37-.76-.59-.96-1.03c-.2-.44-.3-1.05-.3-1.84v-5.25h2.2v3.81c0,1.17,.04,1.88,.12,2.14,.08,.26,.23,.47,.44,.62,.21,.15,.48,.23,.81,.23,.38,0,.71-.1,1.01-.31,.3-.21,.5-.46,.61-.77s.16-1.05,.16-2.24v-3.5h2.2v8.3h-2.04Z"/><path class="d" d="M599.8,262.49h-2.2v-4.23c0-.9-.05-1.48-.14-1.74-.09-.26-.25-.47-.46-.61-.21-.15-.46-.22-.76-.22-.38,0-.72,.1-1.02,.31-.3,.21-.51,.48-.62,.83s-.17,.98-.17,1.91v3.76h-2.2v-8.3h2.04v1.22c.72-.94,1.64-1.41,2.73-1.41,.48,0,.93,.09,1.33,.26,.4,.17,.7,.4,.91,.67,.21,.27,.35,.58,.43,.92s.12,.84,.12,1.48v5.16Z"/><path class="d" d="M601.83,263.04l2.51,.3c.04,.29,.14,.49,.29,.6,.21,.16,.54,.23,.98,.23,.57,0,1-.09,1.29-.26,.19-.11,.34-.3,.44-.55,.07-.18,.1-.52,.1-1.01v-1.21c-.66,.9-1.48,1.34-2.48,1.34-1.11,0-2-.47-2.65-1.41-.51-.74-.77-1.67-.77-2.78,0-1.39,.33-2.45,1-3.19s1.5-1.1,2.5-1.1,1.87,.45,2.54,1.35v-1.16h2.05v7.45c0,.98-.08,1.71-.24,2.2s-.39,.86-.68,1.14c-.29,.28-.68,.49-1.17,.65s-1.1,.23-1.85,.23c-1.41,0-2.4-.24-2.99-.72-.59-.48-.88-1.09-.88-1.83,0-.07,0-.16,0-.27Zm1.96-4.87c0,.88,.17,1.52,.51,1.93,.34,.41,.76,.61,1.26,.61,.54,0,.99-.21,1.36-.63,.37-.42,.55-1.04,.55-1.86s-.18-1.5-.53-1.91c-.35-.42-.8-.62-1.34-.62s-.96,.2-1.3,.61c-.34,.41-.51,1.03-.51,1.87Z"/><path class="d" d="M621.71,262.49v-1.24c-.3,.44-.7,.79-1.19,1.05s-1.01,.38-1.56,.38-1.06-.12-1.5-.37-.76-.59-.96-1.03c-.2-.44-.3-1.05-.3-1.84v-5.25h2.2v3.81c0,1.17,.04,1.88,.12,2.14,.08,.26,.23,.47,.44,.62,.21,.15,.48,.23,.81,.23,.38,0,.71-.1,1.01-.31,.3-.21,.5-.46,.61-.77s.16-1.05,.16-2.24v-3.5h2.2v8.3h-2.04Z"/><path class="d" d="M633.57,262.49h-2.2v-4.23c0-.9-.05-1.48-.14-1.74-.09-.26-.25-.47-.46-.61-.21-.15-.46-.22-.76-.22-.38,0-.72,.1-1.02,.31-.3,.21-.51,.48-.62,.83s-.17,.98-.17,1.91v3.76h-2.2v-8.3h2.04v1.22c.72-.94,1.64-1.41,2.73-1.41,.48,0,.93,.09,1.33,.26,.4,.17,.7,.4,.91,.67,.21,.27,.35,.58,.43,.92s.12,.84,.12,1.48v5.16Z"/><path class="d" d="M643.41,262.49h-2.04v-1.22c-.34,.47-.74,.83-1.2,1.06s-.93,.35-1.39,.35c-.95,0-1.77-.38-2.45-1.15-.68-.77-1.02-1.84-1.02-3.21s.33-2.48,.99-3.21c.66-.73,1.5-1.1,2.51-1.1,.93,0,1.73,.39,2.41,1.16v-4.12h2.2v11.45Zm-5.86-4.33c0,.89,.12,1.53,.37,1.92,.35,.57,.85,.86,1.48,.86,.5,0,.93-.21,1.29-.64s.53-1.07,.53-1.93c0-.95-.17-1.64-.52-2.06-.34-.42-.78-.63-1.32-.63s-.96,.21-1.31,.62-.53,1.03-.53,1.86Z"/><path class="d" d="M530.41,281.69v-11.45h2.31v11.45h-2.31Z"/><path class="d" d="M542.45,281.69h-2.2v-4.23c0-.9-.05-1.48-.14-1.74-.09-.26-.25-.47-.46-.61-.21-.15-.46-.22-.76-.22-.38,0-.72,.1-1.02,.31-.3,.21-.51,.48-.62,.83s-.17,.98-.17,1.91v3.76h-2.2v-8.3h2.04v1.22c.72-.94,1.64-1.41,2.73-1.41,.48,0,.93,.09,1.33,.26,.4,.17,.7,.4,.91,.67,.21,.27,.35,.58,.43,.92s.12,.84,.12,1.48v5.16Z"/><path class="d" d="M548.48,273.4v1.75h-1.5v3.34c0,.68,.01,1.07,.04,1.18,.03,.11,.09,.2,.2,.28,.1,.07,.23,.11,.37,.11,.2,0,.5-.07,.88-.21l.19,1.7c-.51,.22-1.09,.33-1.73,.33-.4,0-.75-.07-1.07-.2s-.55-.3-.7-.52-.25-.5-.31-.86c-.05-.25-.07-.77-.07-1.55v-3.62h-1.01v-1.75h1.01v-1.65l2.2-1.28v2.93h1.5Z"/><path class="d" d="M554.81,279.05l2.19,.37c-.28,.8-.73,1.41-1.33,1.83-.61,.42-1.37,.63-2.28,.63-1.44,0-2.51-.47-3.2-1.41-.55-.75-.82-1.71-.82-2.86,0-1.38,.36-2.45,1.08-3.23,.72-.78,1.63-1.17,2.73-1.17,1.23,0,2.21,.41,2.92,1.22,.71,.82,1.05,2.06,1.02,3.75h-5.5c.02,.65,.19,1.16,.53,1.52,.34,.36,.76,.54,1.27,.54,.34,0,.63-.09,.87-.28s.41-.49,.53-.91Zm.12-2.22c-.02-.64-.18-1.12-.49-1.45-.31-.33-.69-.5-1.14-.5-.48,0-.88,.17-1.19,.52-.31,.35-.47,.82-.46,1.42h3.28Z"/><path class="d" d="M561.01,281.69h-2.2v-8.3h2.04v1.18c.35-.56,.66-.92,.94-1.1,.28-.18,.59-.27,.95-.27,.5,0,.98,.14,1.45,.41l-.68,1.91c-.37-.24-.71-.36-1.03-.36s-.57,.08-.78,.25c-.21,.17-.38,.48-.5,.92-.12,.44-.18,1.37-.18,2.78v2.56Z"/><path class="d" d="M572.68,281.69h-2.2v-4.23c0-.9-.05-1.48-.14-1.74-.09-.26-.25-.47-.46-.61-.21-.15-.46-.22-.76-.22-.38,0-.72,.1-1.02,.31-.3,.21-.51,.48-.62,.83s-.17,.98-.17,1.91v3.76h-2.2v-8.3h2.04v1.22c.72-.94,1.64-1.41,2.73-1.41,.48,0,.93,.09,1.33,.26,.4,.17,.7,.4,.91,.67,.21,.27,.35,.58,.43,.92s.12,.84,.12,1.48v5.16Z"/><path class="d" d="M579.71,279.05l2.19,.37c-.28,.8-.73,1.41-1.33,1.83-.61,.42-1.37,.63-2.28,.63-1.44,0-2.51-.47-3.2-1.41-.55-.75-.82-1.71-.82-2.86,0-1.38,.36-2.45,1.08-3.23,.72-.78,1.63-1.17,2.73-1.17,1.23,0,2.21,.41,2.92,1.22,.71,.82,1.05,2.06,1.02,3.75h-5.5c.02,.65,.19,1.16,.53,1.52,.34,.36,.76,.54,1.27,.54,.34,0,.63-.09,.87-.28s.41-.49,.53-.91Zm.12-2.22c-.02-.64-.18-1.12-.49-1.45-.31-.33-.69-.5-1.14-.5-.48,0-.88,.17-1.19,.52-.31,.35-.47,.82-.46,1.42h3.28Z"/><path class="d" d="M587.61,273.4v1.75h-1.5v3.34c0,.68,.01,1.07,.04,1.18,.03,.11,.09,.2,.2,.28,.1,.07,.23,.11,.37,.11,.2,0,.5-.07,.88-.21l.19,1.7c-.51,.22-1.09,.33-1.73,.33-.4,0-.75-.07-1.07-.2s-.55-.3-.7-.52-.25-.5-.31-.86c-.05-.25-.07-.77-.07-1.55v-3.62h-1.01v-1.75h1.01v-1.65l2.2-1.28v2.93h1.5Z"/><path class="d" d="M601.19,281.69h-2.04v-1.22c-.34,.47-.74,.83-1.2,1.06s-.93,.35-1.39,.35c-.95,0-1.77-.38-2.45-1.15-.68-.77-1.02-1.84-1.02-3.21s.33-2.48,.99-3.21c.66-.73,1.5-1.1,2.51-1.1,.93,0,1.73,.39,2.41,1.16v-4.12h2.2v11.45Zm-5.86-4.33c0,.89,.12,1.53,.37,1.92,.35,.57,.85,.86,1.48,.86,.5,0,.93-.21,1.29-.64s.53-1.07,.53-1.93c0-.95-.17-1.64-.52-2.06-.34-.42-.78-.63-1.32-.63s-.96,.21-1.31,.62-.53,1.03-.53,1.86Z"/><path class="d" d="M608.16,279.05l2.19,.37c-.28,.8-.73,1.41-1.33,1.83-.61,.42-1.37,.63-2.28,.63-1.44,0-2.51-.47-3.2-1.41-.55-.75-.82-1.71-.82-2.86,0-1.38,.36-2.45,1.08-3.23,.72-.78,1.63-1.17,2.73-1.17,1.23,0,2.21,.41,2.92,1.22,.71,.82,1.05,2.06,1.02,3.75h-5.5c.02,.65,.19,1.16,.53,1.52,.34,.36,.76,.54,1.27,.54,.34,0,.63-.09,.87-.28s.41-.49,.53-.91Zm.12-2.22c-.02-.64-.18-1.12-.49-1.45-.31-.33-.69-.5-1.14-.5-.48,0-.88,.17-1.19,.52-.31,.35-.47,.82-.46,1.42h3.28Z"/><path class="d" d="M614.35,281.69h-2.2v-8.3h2.04v1.18c.35-.56,.66-.92,.94-1.1,.28-.18,.59-.27,.95-.27,.5,0,.98,.14,1.45,.41l-.68,1.91c-.37-.24-.71-.36-1.03-.36s-.57,.08-.78,.25c-.21,.17-.38,.48-.5,.92-.12,.44-.18,1.37-.18,2.78v2.56Z"/><path class="d" d="M622.93,270.24h4.23c.95,0,1.68,.07,2.18,.22,.67,.2,1.25,.55,1.73,1.05,.48,.51,.84,1.12,1.09,1.86,.25,.73,.38,1.63,.38,2.71,0,.94-.12,1.76-.35,2.44-.29,.83-.7,1.51-1.23,2.02-.4,.39-.94,.7-1.62,.91-.51,.16-1.19,.24-2.05,.24h-4.35v-11.45Zm2.31,1.94v7.59h1.73c.65,0,1.11-.04,1.4-.11,.38-.09,.69-.25,.93-.48,.25-.22,.45-.59,.61-1.11,.16-.51,.23-1.21,.23-2.1s-.08-1.56-.23-2.04c-.16-.47-.38-.84-.66-1.11s-.64-.45-1.07-.54c-.32-.07-.96-.11-1.9-.11h-1.04Z"/><path class="d" d="M634.48,272.27v-2.03h2.2v2.03h-2.2Zm0,9.42v-8.3h2.2v8.3h-2.2Z"/><path class="d" d="M646.47,281.69h-2.2v-4.23c0-.9-.05-1.48-.14-1.74-.09-.26-.25-.47-.46-.61-.21-.15-.46-.22-.76-.22-.38,0-.72,.1-1.02,.31-.3,.21-.51,.48-.62,.83s-.17,.98-.17,1.91v3.76h-2.2v-8.3h2.04v1.22c.72-.94,1.64-1.41,2.73-1.41,.48,0,.93,.09,1.33,.26,.4,.17,.7,.4,.91,.67,.21,.27,.35,.58,.43,.92s.12,.84,.12,1.48v5.16Z"/><path class="d" d="M648.49,282.24l2.51,.3c.04,.29,.14,.49,.29,.6,.21,.16,.54,.23,.98,.23,.57,0,1-.09,1.29-.26,.19-.11,.34-.3,.44-.55,.07-.18,.1-.52,.1-1.01v-1.21c-.66,.9-1.48,1.34-2.48,1.34-1.11,0-2-.47-2.65-1.41-.51-.74-.77-1.67-.77-2.78,0-1.39,.33-2.45,1-3.19s1.5-1.1,2.5-1.1,1.87,.45,2.54,1.35v-1.16h2.05v7.45c0,.98-.08,1.71-.24,2.2s-.39,.86-.68,1.14c-.29,.28-.68,.49-1.17,.65s-1.1,.23-1.85,.23c-1.41,0-2.4-.24-2.99-.72-.59-.48-.88-1.09-.88-1.83,0-.07,0-.16,0-.27Zm1.96-4.87c0,.88,.17,1.52,.51,1.93,.34,.41,.76,.61,1.26,.61,.54,0,.99-.21,1.36-.63,.37-.42,.55-1.04,.55-1.86s-.18-1.5-.53-1.91c-.35-.42-.8-.62-1.34-.62s-.96,.2-1.3,.61c-.34,.41-.51,1.03-.51,1.87Z"/><path class="d" d="M663.27,279.05l2.19,.37c-.28,.8-.73,1.41-1.33,1.83-.61,.42-1.37,.63-2.28,.63-1.44,0-2.51-.47-3.2-1.41-.55-.75-.82-1.71-.82-2.86,0-1.38,.36-2.45,1.08-3.23,.72-.78,1.63-1.17,2.73-1.17,1.23,0,2.21,.41,2.92,1.22,.71,.82,1.05,2.06,1.02,3.75h-5.5c.02,.65,.19,1.16,.53,1.52,.34,.36,.76,.54,1.27,.54,.34,0,.63-.09,.87-.28s.41-.49,.53-.91Zm.12-2.22c-.02-.64-.18-1.12-.49-1.45-.31-.33-.69-.5-1.14-.5-.48,0-.88,.17-1.19,.52-.31,.35-.47,.82-.46,1.42h3.28Z"/></g><text class="g" transform="translate(542.17 303.48)"><tspan x="0" y="0">2015 - ca. 2030</tspan></text><path class="l" d="M597.77,129.29v56.96"/></g><text class="f" transform="translate(135.28 380.27)"><tspan x="0" y="0">Meilensteine</tspan></text><text class="f" transform="translate(135.28 404.7)"><tspan x="0" y="0">1989 </tspan></text><text class="h" transform="translate(177.65 404.7)"><tspan class="b" x="0" y="0">W</tspan><tspan x="14.81" y="0">orld Wide </tspan><tspan class="b" x="86.84" y="0">W</tspan><tspan x="101.65" y="0">eb</tspan></text><text class="f" transform="translate(135.28 426.14)"><tspan x="0" y="0">1992</tspan></text><text class="h" transform="translate(177.65 426.14)"><tspan x="0" y="0">SA</tspan><tspan class="b" x="21.34" y="0">P</tspan><tspan x="31.73" y="0" xml:space="preserve"> R/3</tspan></text><text class="f" transform="translate(135.28 447.88)"><tspan x="0" y="0">1994</tspan></text><text class="h" transform="translate(177.65 447.88)"><tspan x="0" y="0">Amazon</tspan></text><text class="f" transform="translate(135.28 469.31)"><tspan x="0" y="0">1996</tspan></text><text class="h" transform="translate(177.65 469.31)"><tspan class="b" x="0" y="0">W</tspan><tspan x="14.81" y="0">eb Mail</tspan></text><text class="f" transform="translate(135.28 490.75)"><tspan x="0" y="0">1998</tspan></text><text class="h" transform="translate(177.65 490.75)"><tspan x="0" y="0">Google</tspan></text><text class="f" transform="translate(374.56 380.27)"><tspan x="0" y="0">Meilensteine</tspan></text><text class="f" transform="translate(374.56 404.7)"><tspan x="0" y="0">2004</tspan></text><text class="h" transform="translate(416.49 404.7)"><tspan x="0" y="0">Facebook</tspan></text><text class="f" transform="translate(374.56 426.14)"><tspan x="0" y="0">2007</tspan></text><text class="h" transform="translate(416.49 426.14)"><tspan x="0" y="0">iPhone</tspan></text><text class="f" transform="translate(374.56 447.88)"><tspan x="0" y="0">2009</tspan></text><text class="h" transform="translate(416.49 447.88)"><tspan x="0" y="0">WhatsApp</tspan></text><text class="f" transform="translate(374.56 469.31)"><tspan x="0" y="0">2009 </tspan></text><text class="h" transform="translate(416.49 469.31)"><tspan x="0" y="0">Bitcoin</tspan></text><text class="f" transform="translate(374.56 490.75)"><tspan x="0" y="0">2014</tspan></text><text class="h" transform="translate(416.49 490.75)"><tspan x="0" y="0">Autopilot</tspan><tspan class="b" x="62.27" y="0"> </tspan><tspan class="p" x="66.42" y="0">T</tspan><tspan x="74.42" y="0">esla</tspan></text><text class="f" transform="translate(613.83 380.27)"><tspan x="0" y="0">Meilensteine</tspan></text><text class="f" transform="translate(613.83 404.7)"><tspan x="0" y="0">2016</tspan></text><text class="h" transform="translate(656.2 404.7)"><tspan x="0" y="0">Alexa</tspan></text><text class="f" transform="translate(613.83 426.14)"><tspan x="0" y="0">2019</tspan></text><text class="h" transform="translate(656.2 426.14)"><tspan x="0" y="0">5G</tspan></text><g><path class="j" d="M755.86,267.74c0-45.01,36.49-81.49,81.49-81.49s81.49,36.49,81.49,81.49-36.49,81.49-81.49,81.49-81.49-36.49-81.49-81.49Z"/><text class="c" transform="translate(783.71 234.52)"><tspan class="n" x="0" y="0">V</tspan><tspan x="9.48" y="0">ollkommene </tspan><tspan class="o" x="-7.27" y="19.2">V</tspan><tspan x="2.52" y="19.2">erschmelzung </tspan><tspan x="-13.04" y="38.4">realer und digital </tspan><tspan x="-3.56" y="57.6">vernetzter </tspan><tspan class="b" x="77.36" y="57.6">W</tspan><tspan x="92.18" y="57.6">elt</tspan></text><path class="l" d="M837.36,129.29v56.96"/><text class="g" transform="translate(805.78 311.94)"><tspan x="0" y="0">2030 - ? </tspan></text></g><g><circle class="i" cx="179.83" cy="195.91" r="21.5"/><text class="k" transform="translate(173.83 201.99)"><tspan x="0" y="0">1</tspan></text></g><g><circle class="i" cx="418.17" cy="195.91" r="21.5"/><text class="k" transform="translate(412.17 201.99)"><tspan x="0" y="0">2</tspan></text></g><g><circle class="i" cx="657.76" cy="195.91" r="21.5"/><text class="k" transform="translate(651.76 201.99)"><tspan x="0" y="0">3</tspan></text></g><g><circle class="i" cx="897.36" cy="195.91" r="21.5"/><text class="k" transform="translate(891.36 201.99)"><tspan x="0" y="0">4</tspan></text></g></svg>