<svg id="Ebene_1" data-name="Ebene 1" xmlns="http://www.w3.org/2000/svg" viewBox="0 0 988 525"><defs><style>.cls-1,.cls-4,.cls-5,.cls-8{fill:#fff;}.cls-1,.cls-5,.cls-8{stroke:#1d1d1b;stroke-miterlimit:10;}.cls-1,.cls-4{fill-rule:evenodd;}.cls-2,.cls-3,.cls-6,.cls-9{fill:#010101;}.cls-3{font-size:16px;font-family:ArialMT, Arial;}.cls-6,.cls-9{font-size:20px;font-family:Arial-BoldMT, Arial;font-weight:700;}.cls-7{letter-spacing:-0.02em;}.cls-8{stroke-width:2px;}.cls-9{isolation:isolate;}.cls-10{letter-spacing:-0.01em;}</style></defs><polygon class="cls-1" points="217.15 119.62 258.07 119.62 271.7 133.25 258.07 146.87 217.15 146.87 217.15 119.62"/><path class="cls-2" d="M81.42,129V117.56h7.73v1.35H82.93v3.55h5.38v1.35H82.93V129Z"/><path class="cls-2" d="M96.37,129v-1.22a3,3,0,0,1-2.63,1.41,3.29,3.29,0,0,1-1.37-.28,2.24,2.24,0,0,1-1-.71,2.65,2.65,0,0,1-.43-1,6.82,6.82,0,0,1-.09-1.31v-5.14h1.41v4.6a7.77,7.77,0,0,0,.09,1.48,1.4,1.4,0,0,0,.56.87A1.73,1.73,0,0,0,94,128a2.39,2.39,0,0,0,1.19-.32,1.77,1.77,0,0,0,.78-.89,4.28,4.28,0,0,0,.23-1.62v-4.44h1.41V129Z"/><path class="cls-2" d="M99.83,129v-8.29h1.27v1.18a3,3,0,0,1,2.64-1.37,3.47,3.47,0,0,1,1.38.27,2.11,2.11,0,0,1,.94.71,2.75,2.75,0,0,1,.44,1,8.36,8.36,0,0,1,.08,1.37V129h-1.41v-5a3.77,3.77,0,0,0-.17-1.29,1.32,1.32,0,0,0-.58-.68,1.83,1.83,0,0,0-1-.25,2.28,2.28,0,0,0-1.55.57,2.83,2.83,0,0,0-.65,2.16V129Z"/><path class="cls-2" d="M108.74,129V117.56h1.41v6.53l3.32-3.37h1.82l-3.17,3.07,3.49,5.22h-1.73l-2.74-4.24-1,1V129Z"/><path class="cls-2" d="M119.8,127.76,120,129a5.37,5.37,0,0,1-1.06.12,2.46,2.46,0,0,1-1.19-.24,1.35,1.35,0,0,1-.59-.64,5.14,5.14,0,0,1-.17-1.66v-4.77h-1v-1.09h1v-2.06l1.4-.84v2.9h1.41v1.09h-1.41v4.85a2.56,2.56,0,0,0,.07.78.62.62,0,0,0,.24.27,1,1,0,0,0,.48.1A5.62,5.62,0,0,0,119.8,127.76Z"/><path class="cls-2" d="M121.18,119.18v-1.62h1.41v1.62Zm0,9.83v-8.29h1.41V129Z"/><path class="cls-2" d="M124.21,124.86a4.26,4.26,0,0,1,1.28-3.41,3.87,3.87,0,0,1,2.61-.92,3.73,3.73,0,0,1,2.8,1.12,4.29,4.29,0,0,1,1.08,3.1,5.48,5.48,0,0,1-.48,2.52,3.42,3.42,0,0,1-1.4,1.42,4,4,0,0,1-2,.51,3.73,3.73,0,0,1-2.82-1.12A4.47,4.47,0,0,1,124.21,124.86Zm1.44,0a3.5,3.5,0,0,0,.7,2.39,2.32,2.32,0,0,0,3.49,0,3.63,3.63,0,0,0,.7-2.43,3.43,3.43,0,0,0-.7-2.33,2.31,2.31,0,0,0-3.49,0A3.49,3.49,0,0,0,125.65,124.86Z"/><path class="cls-2" d="M133.63,129v-8.29h1.27v1.18a2.94,2.94,0,0,1,2.64-1.37,3.47,3.47,0,0,1,1.38.27,2.17,2.17,0,0,1,.94.71,2.74,2.74,0,0,1,.43,1,7.34,7.34,0,0,1,.08,1.37V129H139v-5a3.77,3.77,0,0,0-.17-1.29,1.36,1.36,0,0,0-.58-.68,1.86,1.86,0,0,0-1-.25,2.27,2.27,0,0,0-1.55.57,2.79,2.79,0,0,0-.65,2.16V129Z"/><path class="cls-2" d="M142,126.54l1.39-.22a1.89,1.89,0,0,0,.65,1.28,2.24,2.24,0,0,0,1.49.44,2.21,2.21,0,0,0,1.44-.39,1.18,1.18,0,0,0,.47-.93A.88.88,0,0,0,147,126a6.42,6.42,0,0,0-1.44-.47,12.66,12.66,0,0,1-2.14-.68,2,2,0,0,1-1.22-1.9,2.16,2.16,0,0,1,1-1.81,2.74,2.74,0,0,1,.89-.41,4,4,0,0,1,1.21-.17,4.74,4.74,0,0,1,1.72.28,2.34,2.34,0,0,1,1.09.76,2.93,2.93,0,0,1,.48,1.29l-1.37.18a1.51,1.51,0,0,0-.54-1,2.06,2.06,0,0,0-1.27-.35A2.28,2.28,0,0,0,144,122a.93.93,0,0,0-.41.75.81.81,0,0,0,.17.49,1.32,1.32,0,0,0,.54.37l1.24.36a19.66,19.66,0,0,1,2.08.65,2.09,2.09,0,0,1,.93.74,2.13,2.13,0,0,1,.34,1.21,2.39,2.39,0,0,1-.41,1.32,2.73,2.73,0,0,1-1.19,1,4.24,4.24,0,0,1-1.75.34,3.86,3.86,0,0,1-2.46-.67A3.07,3.07,0,0,1,142,126.54Z"/><path class="cls-2" d="M152.06,129l-2.54-8.29H151l1.32,4.79.5,1.78c0-.09.16-.66.43-1.71l1.32-4.86H156l1.24,4.81.42,1.58.47-1.6,1.43-4.79h1.36L158.31,129h-1.46l-1.32-5-.32-1.41L153.53,129Z"/><path class="cls-2" d="M167.76,126.34l1.46.18a3.57,3.57,0,0,1-1.28,2,4.32,4.32,0,0,1-5.26-.42,4.39,4.39,0,0,1-1.07-3.14,4.57,4.57,0,0,1,1.08-3.25,3.62,3.62,0,0,1,2.8-1.16,3.58,3.58,0,0,1,2.72,1.13,4.53,4.53,0,0,1,1,3.19c0,.08,0,.21,0,.37h-6.18a3.21,3.21,0,0,0,.77,2.1,2.31,2.31,0,0,0,1.74.72,2.18,2.18,0,0,0,1.32-.4A2.67,2.67,0,0,0,167.76,126.34Zm-4.61-2.27h4.63a2.8,2.8,0,0,0-.53-1.57,2.17,2.17,0,0,0-1.75-.81,2.22,2.22,0,0,0-1.62.64A2.55,2.55,0,0,0,163.15,124.07Z"/><path class="cls-2" d="M171,119.18v-1.62h1.41v1.62Zm0,9.83v-8.29h1.41V129Z"/><path class="cls-2" d="M174,126.54l1.39-.22a1.94,1.94,0,0,0,.66,1.28,2.8,2.8,0,0,0,2.93.05,1.18,1.18,0,0,0,.47-.93A.87.87,0,0,0,179,126a6.27,6.27,0,0,0-1.43-.47,13.19,13.19,0,0,1-2.15-.68,2,2,0,0,1-.9-.79,2,2,0,0,1-.31-1.11,2.15,2.15,0,0,1,.25-1,2.34,2.34,0,0,1,.69-.78,2.91,2.91,0,0,1,.9-.41,4,4,0,0,1,1.21-.17,4.77,4.77,0,0,1,1.72.28,2.39,2.39,0,0,1,1.09.76,3.05,3.05,0,0,1,.48,1.29l-1.37.18a1.56,1.56,0,0,0-.55-1,2,2,0,0,0-1.27-.35A2.26,2.26,0,0,0,176,122a.93.93,0,0,0-.41.75.75.75,0,0,0,.17.49,1.2,1.2,0,0,0,.54.37c.14,0,.55.17,1.24.36a19.66,19.66,0,0,1,2.08.65,2.15,2.15,0,0,1,.93.74,2.12,2.12,0,0,1,.33,1.21,2.31,2.31,0,0,1-.41,1.32,2.65,2.65,0,0,1-1.18,1,4.27,4.27,0,0,1-1.75.34,3.86,3.86,0,0,1-2.46-.67A3.13,3.13,0,0,1,174,126.54Z"/><path class="cls-2" d="M188.22,126.34l1.45.18a3.55,3.55,0,0,1-1.27,2,3.84,3.84,0,0,1-2.38.7,3.8,3.8,0,0,1-2.89-1.12,4.39,4.39,0,0,1-1.06-3.14,4.57,4.57,0,0,1,1.08-3.25,3.6,3.6,0,0,1,2.79-1.16,3.56,3.56,0,0,1,2.72,1.13,4.53,4.53,0,0,1,1.06,3.19c0,.08,0,.21,0,.37h-6.19a3.21,3.21,0,0,0,.77,2.1A2.34,2.34,0,0,0,186,128a2.18,2.18,0,0,0,1.32-.4A2.75,2.75,0,0,0,188.22,126.34Zm-4.62-2.27h4.63a2.8,2.8,0,0,0-.53-1.57,2.16,2.16,0,0,0-1.74-.81,2.23,2.23,0,0,0-1.63.64A2.6,2.6,0,0,0,183.6,124.07Z"/><path class="cls-2" d="M93.81,148.21V136.76h3.94a9.48,9.48,0,0,1,2,.16,4,4,0,0,1,1.68.82,4.72,4.72,0,0,1,1.36,2,7.68,7.68,0,0,1,.45,2.72,7.85,7.85,0,0,1-.31,2.32,5.45,5.45,0,0,1-.78,1.66,3.8,3.8,0,0,1-1,1,4.08,4.08,0,0,1-1.37.58,7.83,7.83,0,0,1-1.84.19Zm1.52-1.35h2.44a6,6,0,0,0,1.78-.21,2.64,2.64,0,0,0,1-.59,3.91,3.91,0,0,0,.84-1.45,7.11,7.11,0,0,0,.3-2.21,5.34,5.34,0,0,0-.59-2.76,3,3,0,0,0-1.44-1.29,5.77,5.77,0,0,0-2-.24h-2.4Z"/><path class="cls-2" d="M110.86,145.54l1.46.18a3.57,3.57,0,0,1-1.28,2,4.32,4.32,0,0,1-5.26-.42,4.39,4.39,0,0,1-1.06-3.14,4.61,4.61,0,0,1,1.07-3.25,3.64,3.64,0,0,1,2.8-1.16,3.56,3.56,0,0,1,2.72,1.13,4.53,4.53,0,0,1,1,3.19v.37h-6.19a3.21,3.21,0,0,0,.77,2.1,2.32,2.32,0,0,0,1.74.72,2.18,2.18,0,0,0,1.32-.4A2.67,2.67,0,0,0,110.86,145.54Zm-4.61-2.27h4.63a2.8,2.8,0,0,0-.53-1.57,2.16,2.16,0,0,0-1.74-.81,2.23,2.23,0,0,0-1.63.64A2.55,2.55,0,0,0,106.25,143.27Z"/><path class="cls-2" d="M116.39,148.21l-3.16-8.29h1.49l1.78,5c.19.53.37,1.09.53,1.67.12-.44.3-1,.52-1.58l1.85-5.06h1.44l-3.14,8.29Z"/><path class="cls-2" d="M122.09,138.38v-1.62h1.41v1.62Zm0,9.83v-8.29h1.41v8.29Z"/><path class="cls-2" d="M125.08,145.74l1.39-.22a1.89,1.89,0,0,0,.65,1.28,2.8,2.8,0,0,0,2.93,0,1.18,1.18,0,0,0,.47-.93.88.88,0,0,0-.41-.75,6.62,6.62,0,0,0-1.44-.47,13.19,13.19,0,0,1-2.15-.68,2.05,2.05,0,0,1-.9-.79,2,2,0,0,1-.31-1.11,2.15,2.15,0,0,1,.25-1,2.34,2.34,0,0,1,.69-.78,2.91,2.91,0,0,1,.9-.41,4.31,4.31,0,0,1,1.21-.17,4.74,4.74,0,0,1,1.72.28,2.39,2.39,0,0,1,1.09.76,3.05,3.05,0,0,1,.48,1.29l-1.37.18a1.51,1.51,0,0,0-.54-1,2.06,2.06,0,0,0-1.27-.35,2.28,2.28,0,0,0-1.39.32.93.93,0,0,0-.41.75.81.81,0,0,0,.17.49,1.26,1.26,0,0,0,.54.37c.14.06.55.17,1.24.36a19.66,19.66,0,0,1,2.08.65,2.09,2.09,0,0,1,.93.74,2.13,2.13,0,0,1,.34,1.21,2.39,2.39,0,0,1-.41,1.32,2.73,2.73,0,0,1-1.19,1,4.24,4.24,0,0,1-1.75.34,3.86,3.86,0,0,1-2.46-.67A3.07,3.07,0,0,1,125.08,145.74Z"/><path class="cls-2" d="M139.32,145.54l1.45.18a3.55,3.55,0,0,1-1.27,2,3.82,3.82,0,0,1-2.38.7,3.77,3.77,0,0,1-2.88-1.12,4.35,4.35,0,0,1-1.07-3.14,4.57,4.57,0,0,1,1.08-3.25,3.62,3.62,0,0,1,2.79-1.16,3.56,3.56,0,0,1,2.72,1.13,4.49,4.49,0,0,1,1.06,3.19c0,.08,0,.21,0,.37h-6.19a3.16,3.16,0,0,0,.78,2.1,2.3,2.3,0,0,0,1.73.72,2.13,2.13,0,0,0,1.32-.4A2.75,2.75,0,0,0,139.32,145.54Zm-4.62-2.27h4.63a2.8,2.8,0,0,0-.53-1.57,2.16,2.16,0,0,0-1.74-.81,2.23,2.23,0,0,0-1.63.64A2.6,2.6,0,0,0,134.7,143.27Z"/><path class="cls-2" d="M142.54,148.21v-8.29h1.26v1.18a3,3,0,0,1,2.64-1.37,3.47,3.47,0,0,1,1.38.27,2.11,2.11,0,0,1,.94.71,2.6,2.6,0,0,1,.44,1,8.36,8.36,0,0,1,.08,1.37v5.1h-1.41v-5a3.82,3.82,0,0,0-.16-1.29,1.41,1.41,0,0,0-.58-.68,1.86,1.86,0,0,0-1-.25,2.31,2.31,0,0,0-1.56.57,2.83,2.83,0,0,0-.65,2.16v4.53Z"/><path class="cls-2" d="M151.43,148.21v-8.29h1.26v1.16a3,3,0,0,1,1-1,2.9,2.9,0,0,1,1.48-.37,2.77,2.77,0,0,1,1.51.38,2.07,2.07,0,0,1,.83,1.07,3,3,0,0,1,2.56-1.45,2.54,2.54,0,0,1,1.9.68,2.91,2.91,0,0,1,.67,2.11v5.69h-1.4V143a3.88,3.88,0,0,0-.14-1.22,1.24,1.24,0,0,0-.49-.6,1.58,1.58,0,0,0-.85-.22,1.94,1.94,0,0,0-1.45.58,2.54,2.54,0,0,0-.58,1.86v4.82h-1.41v-5.39a2.35,2.35,0,0,0-.34-1.4,1.28,1.28,0,0,0-1.12-.47,2,2,0,0,0-1.1.31,1.75,1.75,0,0,0-.73.91,5.21,5.21,0,0,0-.23,1.74v4.3Z"/><path class="cls-2" d="M170.18,147.19a5.29,5.29,0,0,1-1.51.94,4.39,4.39,0,0,1-1.55.27,3,3,0,0,1-2.1-.67,2.18,2.18,0,0,1-.73-1.7,2.35,2.35,0,0,1,.27-1.12,2.48,2.48,0,0,1,.73-.81,3.72,3.72,0,0,1,1-.46,11.25,11.25,0,0,1,1.25-.21,12.35,12.35,0,0,0,2.51-.48c0-.19,0-.32,0-.37a1.57,1.57,0,0,0-.4-1.21,2.34,2.34,0,0,0-1.6-.48,2.53,2.53,0,0,0-1.47.35,2.13,2.13,0,0,0-.7,1.23l-1.37-.19a3.31,3.31,0,0,1,.62-1.42,2.73,2.73,0,0,1,1.24-.84,5.67,5.67,0,0,1,1.88-.29A5,5,0,0,1,170,140a2.27,2.27,0,0,1,1,.63,2.15,2.15,0,0,1,.44.95,7.67,7.67,0,0,1,.07,1.3v1.88a20,20,0,0,0,.09,2.48,3,3,0,0,0,.36,1h-1.47A2.83,2.83,0,0,1,170.18,147.19Zm-.12-3.14a10,10,0,0,1-2.3.53,5.28,5.28,0,0,0-1.22.28,1.28,1.28,0,0,0-.56.46,1.25,1.25,0,0,0,.23,1.6,1.85,1.85,0,0,0,1.25.38,2.85,2.85,0,0,0,1.44-.36,2.13,2.13,0,0,0,.93-1,3.4,3.4,0,0,0,.23-1.41Z"/><path class="cls-2" d="M173.65,148.21v-8.29h1.26v1.25a3.4,3.4,0,0,1,.9-1.16,1.52,1.52,0,0,1,.9-.28,2.75,2.75,0,0,1,1.44.45l-.48,1.31a2,2,0,0,0-1-.31,1.3,1.3,0,0,0-.83.28,1.42,1.42,0,0,0-.52.77,5.37,5.37,0,0,0-.24,1.64v4.34Z"/><path class="cls-2" d="M179,148.21V136.76h1.4v6.53l3.33-3.37h1.82L182.38,143l3.49,5.22h-1.73L181.4,144l-1,.95v3.29Z"/><path class="cls-2" d="M190.06,147l.2,1.24a5.37,5.37,0,0,1-1.06.12,2.43,2.43,0,0,1-1.19-.24,1.3,1.3,0,0,1-.59-.64,4.86,4.86,0,0,1-.17-1.66V141h-1v-1.09h1v-2.06l1.4-.84v2.9h1.41V141h-1.41v4.85a2.56,2.56,0,0,0,.07.78.62.62,0,0,0,.24.27.9.9,0,0,0,.48.1A5.81,5.81,0,0,0,190.06,147Z"/><text class="cls-3" transform="translate(102.35 243.29)">Devisenkurs<tspan x="-23.6" y="19.2">0,87 € = 1 US $</tspan></text><text class="cls-3" transform="translate(159.24 365.58)">0,87</text><text class="cls-3" transform="translate(67.72 472.39)">„1“, „2“, „3“, ..., „,“</text><polygon class="cls-1" points="217.66 231.33 258.59 231.33 272.21 244.95 258.59 258.58 217.66 258.58 217.66 231.33"/><polygon class="cls-1" points="213.93 343.03 254.85 343.03 268.48 356.66 254.85 370.28 213.93 370.28 213.93 343.03"/><polygon class="cls-1" points="213.93 454.74 254.85 454.74 268.48 468.36 254.85 481.99 213.93 481.99 213.93 454.74"/><polygon class="cls-4" points="536.86 146.87 495.94 146.87 482.32 133.25 495.94 119.62 536.86 119.62 536.86 146.87"/><polygon class="cls-5" points="536.86 146.87 495.94 146.87 482.32 133.25 495.94 119.62 536.86 119.62 536.86 146.87"/><path class="cls-2" d="M563.26,129l-4.44-11.45h1.64l3,8.32c.24.67.44,1.29.6,1.88.18-.63.38-1.25.62-1.88l3.09-8.32h1.55L564.81,129Z"/><path class="cls-2" d="M575.27,126.34l1.46.18a3.57,3.57,0,0,1-1.28,2,4.32,4.32,0,0,1-5.26-.42,4.39,4.39,0,0,1-1.06-3.14,4.61,4.61,0,0,1,1.07-3.25,3.64,3.64,0,0,1,2.8-1.16,3.56,3.56,0,0,1,2.72,1.13,4.53,4.53,0,0,1,1,3.19v.37h-6.19a3.21,3.21,0,0,0,.77,2.1,2.32,2.32,0,0,0,1.74.72,2.18,2.18,0,0,0,1.32-.4A2.67,2.67,0,0,0,575.27,126.34Zm-4.61-2.27h4.63a2.8,2.8,0,0,0-.53-1.57,2.16,2.16,0,0,0-1.74-.81,2.23,2.23,0,0,0-1.63.64A2.55,2.55,0,0,0,570.66,124.07Z"/><path class="cls-2" d="M578.48,129v-8.29h1.26V122a3.53,3.53,0,0,1,.9-1.16,1.52,1.52,0,0,1,.9-.28A2.78,2.78,0,0,1,583,121l-.49,1.31a2,2,0,0,0-1-.31,1.32,1.32,0,0,0-.83.28,1.47,1.47,0,0,0-.52.77,5.37,5.37,0,0,0-.24,1.64V129Z"/><path class="cls-2" d="M583.82,129v-8.29h1.27v1.18a3,3,0,0,1,2.64-1.37,3.47,3.47,0,0,1,1.38.27,2.11,2.11,0,0,1,.94.71,2.75,2.75,0,0,1,.44,1,8.68,8.68,0,0,1,.07,1.37V129h-1.4v-5a3.77,3.77,0,0,0-.17-1.29,1.36,1.36,0,0,0-.58-.68,1.83,1.83,0,0,0-1-.25,2.27,2.27,0,0,0-1.55.57,2.83,2.83,0,0,0-.65,2.16V129Z"/><path class="cls-2" d="M598.4,126.34l1.45.18a3.55,3.55,0,0,1-1.27,2,3.82,3.82,0,0,1-2.38.7,3.77,3.77,0,0,1-2.88-1.12,4.39,4.39,0,0,1-1.07-3.14,4.57,4.57,0,0,1,1.08-3.25,3.62,3.62,0,0,1,2.8-1.16,3.54,3.54,0,0,1,2.71,1.13,4.49,4.49,0,0,1,1.06,3.19c0,.08,0,.21,0,.37H593.7a3.21,3.21,0,0,0,.78,2.1,2.3,2.3,0,0,0,1.73.72,2.13,2.13,0,0,0,1.32-.4A2.62,2.62,0,0,0,598.4,126.34Zm-4.62-2.27h4.64a2.8,2.8,0,0,0-.54-1.57,2.13,2.13,0,0,0-1.74-.81,2.25,2.25,0,0,0-1.63.64A2.6,2.6,0,0,0,593.78,124.07Z"/><path class="cls-2" d="M604.69,127.76l.2,1.24a5.37,5.37,0,0,1-1.06.12,2.43,2.43,0,0,1-1.19-.24,1.3,1.3,0,0,1-.59-.64,4.86,4.86,0,0,1-.17-1.66v-4.77h-1v-1.09h1v-2.06l1.39-.84v2.9h1.42v1.09h-1.42v4.85a2.45,2.45,0,0,0,.08.78.62.62,0,0,0,.24.27.9.9,0,0,0,.48.1A5.81,5.81,0,0,0,604.69,127.76Z"/><path class="cls-2" d="M605.32,129v-1.14l5.28-6.06c-.6,0-1.13,0-1.58,0h-3.39v-1.14h6.79v.93l-4.5,5.26-.86,1c.63,0,1.22-.07,1.77-.07h3.84V129Z"/><path class="cls-2" d="M619.5,129v-1.22a3,3,0,0,1-2.63,1.41,3.29,3.29,0,0,1-1.37-.28,2.24,2.24,0,0,1-1-.71,2.65,2.65,0,0,1-.43-1,6.82,6.82,0,0,1-.09-1.31v-5.14h1.41v4.6a9.11,9.11,0,0,0,.08,1.48,1.46,1.46,0,0,0,.57.87,1.73,1.73,0,0,0,1.06.32,2.39,2.39,0,0,0,1.19-.32,1.77,1.77,0,0,0,.78-.89,4.28,4.28,0,0,0,.23-1.62v-4.44h1.41V129Z"/><path class="cls-2" d="M623,129v-8.29h1.27v1.18a3,3,0,0,1,2.64-1.37,3.47,3.47,0,0,1,1.38.27,2.11,2.11,0,0,1,.94.71,2.75,2.75,0,0,1,.44,1,8.68,8.68,0,0,1,.07,1.37V129h-1.4v-5a3.77,3.77,0,0,0-.17-1.29,1.36,1.36,0,0,0-.58-.68,1.83,1.83,0,0,0-1-.25,2.28,2.28,0,0,0-1.55.57,2.83,2.83,0,0,0-.65,2.16V129Z"/><path class="cls-2" d="M631.6,129.7l1.37.2a1.33,1.33,0,0,0,.48.93,2.32,2.32,0,0,0,1.43.39,2.48,2.48,0,0,0,1.5-.39,1.91,1.91,0,0,0,.72-1.1,8.12,8.12,0,0,0,.1-1.8,2.89,2.89,0,0,1-2.29,1.08,3.13,3.13,0,0,1-2.65-1.23,4.72,4.72,0,0,1-.94-3,5.45,5.45,0,0,1,.43-2.19,3.4,3.4,0,0,1,1.25-1.55,3.31,3.31,0,0,1,1.92-.55,3,3,0,0,1,2.42,1.19v-1h1.29v7.17a6.81,6.81,0,0,1-.39,2.74,2.86,2.86,0,0,1-1.25,1.28,4.36,4.36,0,0,1-2.11.47,3.89,3.89,0,0,1-2.39-.67A2.25,2.25,0,0,1,631.6,129.7Zm1.17-5a3.55,3.55,0,0,0,.65,2.38,2,2,0,0,0,1.62.75,2.08,2.08,0,0,0,1.63-.75,3.5,3.5,0,0,0,.65-2.34,3.38,3.38,0,0,0-.67-2.29,2.09,2.09,0,0,0-1.63-.78,2.06,2.06,0,0,0-1.6.76A3.45,3.45,0,0,0,632.77,124.72Z"/><path class="cls-2" d="M565.24,148.21V147a3,3,0,0,1-2.63,1.41,3.29,3.29,0,0,1-1.37-.28,2.24,2.24,0,0,1-1-.71,2.65,2.65,0,0,1-.43-1,6.82,6.82,0,0,1-.09-1.31v-5.14h1.41v4.6a7.77,7.77,0,0,0,.09,1.48,1.45,1.45,0,0,0,.56.87,1.75,1.75,0,0,0,1.06.32,2.39,2.39,0,0,0,1.19-.32,1.77,1.77,0,0,0,.78-.89,4.28,4.28,0,0,0,.23-1.62v-4.44h1.41v8.29Z"/><path class="cls-2" d="M568.7,148.21v-8.29H570v1.18a3,3,0,0,1,2.64-1.37A3.47,3.47,0,0,1,574,140a2.11,2.11,0,0,1,.94.71,2.6,2.6,0,0,1,.44,1,8.36,8.36,0,0,1,.08,1.37v5.1H574v-5a3.82,3.82,0,0,0-.16-1.29,1.38,1.38,0,0,0-.59-.68,1.81,1.81,0,0,0-1-.25,2.28,2.28,0,0,0-1.55.57,2.83,2.83,0,0,0-.65,2.16v4.53Z"/><path class="cls-2" d="M583,148.21v-1a2.59,2.59,0,0,1-2.32,1.23,3.23,3.23,0,0,1-1.83-.55,3.64,3.64,0,0,1-1.29-1.52,5.4,5.4,0,0,1-.46-2.26,5.78,5.78,0,0,1,.42-2.25,3.27,3.27,0,0,1,1.24-1.55,3.31,3.31,0,0,1,1.85-.54,2.78,2.78,0,0,1,2.29,1.14v-4.11h1.4v11.45Zm-4.45-4.14a3.61,3.61,0,0,0,.67,2.39,2,2,0,0,0,1.59.78,2,2,0,0,0,1.56-.75,3.47,3.47,0,0,0,.65-2.3,3.87,3.87,0,0,0-.66-2.5,2,2,0,0,0-1.61-.8,2,2,0,0,0-1.57.77A3.76,3.76,0,0,0,578.54,144.07Z"/><path class="cls-2" d="M591.17,148.21V136.76h1.52v4.7h5.95v-4.7h1.52v11.45h-1.52v-5.4h-5.95v5.4Z"/><path class="cls-2" d="M607.92,147.19a5.43,5.43,0,0,1-1.51.94,4.39,4.39,0,0,1-1.55.27,3,3,0,0,1-2.1-.67A2.19,2.19,0,0,1,602,146a2.35,2.35,0,0,1,.28-1.12,2.48,2.48,0,0,1,.73-.81,3.72,3.72,0,0,1,1-.46,11.25,11.25,0,0,1,1.25-.21,12.35,12.35,0,0,0,2.51-.48c0-.19,0-.32,0-.37a1.57,1.57,0,0,0-.4-1.21,2.35,2.35,0,0,0-1.6-.48,2.51,2.51,0,0,0-1.47.35,2.13,2.13,0,0,0-.7,1.23l-1.37-.19a3.43,3.43,0,0,1,.61-1.42,2.76,2.76,0,0,1,1.25-.84,5.63,5.63,0,0,1,1.88-.29,5,5,0,0,1,1.73.25,2.33,2.33,0,0,1,1,.63,2.15,2.15,0,0,1,.44.95,7.67,7.67,0,0,1,.07,1.3v1.88a20,20,0,0,0,.09,2.48,3,3,0,0,0,.36,1H608.2A2.83,2.83,0,0,1,607.92,147.19Zm-.12-3.14a10,10,0,0,1-2.3.53,5.39,5.39,0,0,0-1.23.28,1.31,1.31,0,0,0-.55.46,1.22,1.22,0,0,0,.23,1.6,1.83,1.83,0,0,0,1.25.38,2.85,2.85,0,0,0,1.44-.36,2.18,2.18,0,0,0,.93-1,3.4,3.4,0,0,0,.23-1.41Z"/><path class="cls-2" d="M611.4,148.21v-8.29h1.27v1.18a3,3,0,0,1,2.64-1.37,3.38,3.38,0,0,1,1.37.27,2.15,2.15,0,0,1,1,.71,2.74,2.74,0,0,1,.43,1,7.34,7.34,0,0,1,.08,1.37v5.1h-1.4v-5a3.77,3.77,0,0,0-.17-1.29,1.36,1.36,0,0,0-.58-.68,1.86,1.86,0,0,0-1-.25,2.27,2.27,0,0,0-1.55.57,2.79,2.79,0,0,0-.65,2.16v4.53Z"/><path class="cls-2" d="M625.68,148.21v-1a2.59,2.59,0,0,1-2.32,1.23,3.19,3.19,0,0,1-1.82-.55,3.5,3.5,0,0,1-1.29-1.52,5.25,5.25,0,0,1-.46-2.26,6,6,0,0,1,.41-2.25,3.23,3.23,0,0,1,1.25-1.55,3.31,3.31,0,0,1,1.85-.54,2.65,2.65,0,0,1,1.33.32,2.83,2.83,0,0,1,1,.82v-4.11H627v11.45Zm-4.44-4.14a3.61,3.61,0,0,0,.67,2.39,2,2,0,0,0,1.58.78,2,2,0,0,0,1.57-.75,3.47,3.47,0,0,0,.64-2.3,3.88,3.88,0,0,0-.65-2.5,2,2,0,0,0-1.62-.8,2,2,0,0,0-1.57.77A3.82,3.82,0,0,0,621.24,144.07Z"/><path class="cls-2" d="M629.17,148.21V136.76h1.4v11.45Z"/><path class="cls-2" d="M638.19,148.21V147a3,3,0,0,1-2.63,1.41,3.37,3.37,0,0,1-1.38-.28,2.27,2.27,0,0,1-.94-.71,2.51,2.51,0,0,1-.43-1,6.82,6.82,0,0,1-.09-1.31v-5.14h1.41v4.6a8.06,8.06,0,0,0,.08,1.48,1.49,1.49,0,0,0,.56.87,1.79,1.79,0,0,0,1.07.32,2.35,2.35,0,0,0,1.18-.32,1.79,1.79,0,0,0,.79-.89,4.49,4.49,0,0,0,.23-1.62v-4.44h1.41v8.29Z"/><path class="cls-2" d="M641.65,148.21v-8.29h1.27v1.18a3,3,0,0,1,2.64-1.37,3.38,3.38,0,0,1,1.37.27,2.15,2.15,0,0,1,1,.71,2.74,2.74,0,0,1,.43,1,7.34,7.34,0,0,1,.08,1.37v5.1H647v-5a3.77,3.77,0,0,0-.17-1.29,1.36,1.36,0,0,0-.58-.68,1.86,1.86,0,0,0-1-.25,2.27,2.27,0,0,0-1.55.57,2.79,2.79,0,0,0-.65,2.16v4.53Z"/><path class="cls-2" d="M650.29,148.9l1.37.2a1.29,1.29,0,0,0,.47.93,2.36,2.36,0,0,0,1.43.39,2.51,2.51,0,0,0,1.51-.39,1.88,1.88,0,0,0,.72-1.1,8.82,8.82,0,0,0,.1-1.8,2.89,2.89,0,0,1-2.3,1.08A3.11,3.11,0,0,1,651,147a4.72,4.72,0,0,1-.94-3,5.45,5.45,0,0,1,.43-2.19,3.28,3.28,0,0,1,3.16-2.1,2.94,2.94,0,0,1,2.42,1.19v-1h1.3v7.17a6.81,6.81,0,0,1-.39,2.74,2.91,2.91,0,0,1-1.25,1.28,4.39,4.39,0,0,1-2.11.47,3.94,3.94,0,0,1-2.4-.67A2.24,2.24,0,0,1,650.29,148.9Zm1.16-5a3.6,3.6,0,0,0,.65,2.38,2.14,2.14,0,0,0,3.25,0A3.44,3.44,0,0,0,656,144a3.39,3.39,0,0,0-.68-2.29,2.08,2.08,0,0,0-1.63-.78,2.06,2.06,0,0,0-1.59.76A3.4,3.4,0,0,0,651.45,143.92Z"/><path class="cls-2" d="M658.88,145.74l1.39-.22a1.94,1.94,0,0,0,.66,1.28,2.8,2.8,0,0,0,2.93,0,1.18,1.18,0,0,0,.47-.93.88.88,0,0,0-.41-.75,6.62,6.62,0,0,0-1.44-.47,13.19,13.19,0,0,1-2.15-.68,2,2,0,0,1-.9-.79,2,2,0,0,1-.31-1.11,2.15,2.15,0,0,1,.25-1,2.34,2.34,0,0,1,.69-.78,2.91,2.91,0,0,1,.9-.41,4.31,4.31,0,0,1,1.21-.17,4.77,4.77,0,0,1,1.72.28,2.39,2.39,0,0,1,1.09.76,3.05,3.05,0,0,1,.48,1.29l-1.37.18a1.56,1.56,0,0,0-.55-1,2,2,0,0,0-1.27-.35,2.26,2.26,0,0,0-1.38.32.93.93,0,0,0-.41.75.81.81,0,0,0,.17.49,1.2,1.2,0,0,0,.54.37c.14.06.55.17,1.24.36a19.66,19.66,0,0,1,2.08.65,2.15,2.15,0,0,1,.93.74,2.12,2.12,0,0,1,.33,1.21,2.31,2.31,0,0,1-.41,1.32,2.65,2.65,0,0,1-1.18,1,4.24,4.24,0,0,1-1.75.34,3.86,3.86,0,0,1-2.46-.67A3.13,3.13,0,0,1,658.88,145.74Z"/><path class="cls-2" d="M668.74,148.21h-1.3V136.76h1.4v4.09a2.79,2.79,0,0,1,2.28-1.12,3.44,3.44,0,0,1,1.45.31,2.9,2.9,0,0,1,1.12.86,4.1,4.1,0,0,1,.69,1.35,5.48,5.48,0,0,1,.25,1.69,4.77,4.77,0,0,1-1,3.3,3.31,3.31,0,0,1-2.53,1.16,2.65,2.65,0,0,1-2.31-1.23Zm0-4.21a4.32,4.32,0,0,0,.4,2.16,2,2,0,0,0,1.8,1.08,2,2,0,0,0,1.59-.8,3.61,3.61,0,0,0,.68-2.38,3.68,3.68,0,0,0-.65-2.4,2,2,0,0,0-1.56-.77,2,2,0,0,0-1.59.8A3.48,3.48,0,0,0,668.73,144Z"/><path class="cls-2" d="M682,145.54l1.46.18a3.57,3.57,0,0,1-1.28,2,4.32,4.32,0,0,1-5.26-.42,4.39,4.39,0,0,1-1.06-3.14,4.61,4.61,0,0,1,1.07-3.25,3.64,3.64,0,0,1,2.8-1.16,3.56,3.56,0,0,1,2.72,1.13,4.53,4.53,0,0,1,1,3.19v.37h-6.19a3.21,3.21,0,0,0,.77,2.1,2.32,2.32,0,0,0,1.74.72,2.18,2.18,0,0,0,1.32-.4A2.67,2.67,0,0,0,682,145.54Zm-4.61-2.27H682a2.8,2.8,0,0,0-.53-1.57,2.16,2.16,0,0,0-1.74-.81,2.23,2.23,0,0,0-1.63.64A2.55,2.55,0,0,0,677.41,143.27Z"/><path class="cls-2" d="M684.5,148.21v-1.14l5.28-6.06c-.6,0-1.13.05-1.58.05h-3.39v-1.14h6.78v.93l-4.49,5.26-.86,1c.63,0,1.22-.07,1.77-.07h3.83v1.21Z"/><path class="cls-2" d="M698.68,148.21V147a3,3,0,0,1-2.63,1.41,3.29,3.29,0,0,1-1.37-.28,2.24,2.24,0,0,1-.95-.71,2.65,2.65,0,0,1-.43-1,6.82,6.82,0,0,1-.09-1.31v-5.14h1.41v4.6a9.11,9.11,0,0,0,.08,1.48,1.46,1.46,0,0,0,.57.87,1.73,1.73,0,0,0,1.06.32,2.39,2.39,0,0,0,1.19-.32,1.77,1.77,0,0,0,.78-.89,4.28,4.28,0,0,0,.23-1.62v-4.44h1.41v8.29Z"/><path class="cls-2" d="M701.88,148.9l1.37.2a1.33,1.33,0,0,0,.48.93,2.34,2.34,0,0,0,1.43.39,2.54,2.54,0,0,0,1.51-.39,1.92,1.92,0,0,0,.71-1.1,8.57,8.57,0,0,0,.11-1.8,2.91,2.91,0,0,1-2.3,1.08,3.15,3.15,0,0,1-2.65-1.23,4.78,4.78,0,0,1-.94-3,5.63,5.63,0,0,1,.43-2.19,3.4,3.4,0,0,1,1.25-1.55,3.31,3.31,0,0,1,1.92-.55,3,3,0,0,1,2.42,1.19v-1h1.3v7.17a6.78,6.78,0,0,1-.4,2.74,2.86,2.86,0,0,1-1.25,1.28,4.35,4.35,0,0,1-2.1.47,3.94,3.94,0,0,1-2.4-.67A2.25,2.25,0,0,1,701.88,148.9Zm1.17-5a3.55,3.55,0,0,0,.65,2.38,2,2,0,0,0,1.62.75,2.08,2.08,0,0,0,1.63-.75,3.5,3.5,0,0,0,.65-2.34,3.38,3.38,0,0,0-.67-2.29,2.09,2.09,0,0,0-1.63-.78,2.06,2.06,0,0,0-1.6.76A3.45,3.45,0,0,0,703.05,143.92Z"/><polygon class="cls-1" points="537.38 258.58 496.46 258.58 482.83 244.95 496.46 231.33 537.38 231.33 537.38 258.58"/><path class="cls-2" d="M560.44,243.29V231.84h4.3a5.34,5.34,0,0,1,2.1.35,2.7,2.7,0,0,1,1.24,1.07,2.8,2.8,0,0,1,.45,1.51,2.54,2.54,0,0,1-.4,1.38,2.77,2.77,0,0,1-1.2,1,3,3,0,0,1,1.6,1,2.8,2.8,0,0,1,.56,1.73,3.44,3.44,0,0,1-.34,1.5,3,3,0,0,1-.84,1.07,3.49,3.49,0,0,1-1.26.56,7.43,7.43,0,0,1-1.84.19Zm1.52-6.64h2.47a5.58,5.58,0,0,0,1.45-.13,1.59,1.59,0,0,0,.87-.57,1.69,1.69,0,0,0,.29-1,1.82,1.82,0,0,0-.27-1,1.42,1.42,0,0,0-.78-.6,6.87,6.87,0,0,0-1.75-.16H562Zm0,5.29h2.85a7.71,7.71,0,0,0,1-.05,2.47,2.47,0,0,0,.87-.32,1.55,1.55,0,0,0,.58-.63,2,2,0,0,0,.23-1,1.91,1.91,0,0,0-.33-1.11,1.66,1.66,0,0,0-.91-.66,5.55,5.55,0,0,0-1.68-.2H562Z"/><path class="cls-2" d="M576.67,240.62l1.46.18a3.57,3.57,0,0,1-1.28,2,4.32,4.32,0,0,1-5.26-.42,4.39,4.39,0,0,1-1.06-3.14A4.57,4.57,0,0,1,571.6,236a3.62,3.62,0,0,1,2.8-1.16,3.56,3.56,0,0,1,2.72,1.13,4.53,4.53,0,0,1,1,3.19v.37H572a3.21,3.21,0,0,0,.77,2.1,2.32,2.32,0,0,0,1.74.72,2.18,2.18,0,0,0,1.32-.4A2.67,2.67,0,0,0,576.67,240.62Zm-4.61-2.27h4.63a2.8,2.8,0,0,0-.53-1.57,2.16,2.16,0,0,0-1.74-.81,2.23,2.23,0,0,0-1.63.64A2.55,2.55,0,0,0,572.06,238.35Z"/><path class="cls-2" d="M585.28,243.29v-1a2.59,2.59,0,0,1-2.32,1.23,3.23,3.23,0,0,1-1.83-.55,3.64,3.64,0,0,1-1.29-1.52,5.4,5.4,0,0,1-.46-2.26,5.78,5.78,0,0,1,.42-2.25,3.27,3.27,0,0,1,1.24-1.55,3.31,3.31,0,0,1,1.85-.54,2.78,2.78,0,0,1,2.29,1.14v-4.11h1.4v11.45Zm-4.45-4.14a3.61,3.61,0,0,0,.67,2.39,2,2,0,0,0,1.59.78,2,2,0,0,0,1.56-.75,3.47,3.47,0,0,0,.65-2.3,3.87,3.87,0,0,0-.66-2.5A2,2,0,0,0,583,236a2,2,0,0,0-1.57.77A3.76,3.76,0,0,0,580.83,239.15Z"/><path class="cls-2" d="M594.47,240.62l1.45.18a3.55,3.55,0,0,1-1.27,2,4.32,4.32,0,0,1-5.26-.42,4.39,4.39,0,0,1-1.07-3.14A4.57,4.57,0,0,1,589.4,236a3.62,3.62,0,0,1,2.8-1.16,3.58,3.58,0,0,1,2.72,1.13,4.53,4.53,0,0,1,1.05,3.19c0,.08,0,.21,0,.37h-6.18a3.15,3.15,0,0,0,.77,2.1,2.3,2.3,0,0,0,1.73.72,2.13,2.13,0,0,0,1.32-.4A2.62,2.62,0,0,0,594.47,240.62Zm-4.62-2.27h4.64a2.88,2.88,0,0,0-.53-1.57,2.17,2.17,0,0,0-1.75-.81,2.25,2.25,0,0,0-1.63.64A2.6,2.6,0,0,0,589.85,238.35Z"/><path class="cls-2" d="M603.13,243.29v-1.22a3.05,3.05,0,0,1-2.64,1.41,3.33,3.33,0,0,1-1.37-.28,2.21,2.21,0,0,1-.94-.71,2.66,2.66,0,0,1-.44-1,8,8,0,0,1-.08-1.31V235h1.4v4.6a7.77,7.77,0,0,0,.09,1.48,1.49,1.49,0,0,0,.56.87,1.76,1.76,0,0,0,1.07.32A2.35,2.35,0,0,0,602,242a1.84,1.84,0,0,0,.79-.89,4.49,4.49,0,0,0,.23-1.62V235h1.4v8.29Z"/><path class="cls-2" d="M609.66,242l.2,1.24a5.37,5.37,0,0,1-1.06.12,2.43,2.43,0,0,1-1.19-.24,1.3,1.3,0,0,1-.59-.64,4.86,4.86,0,0,1-.17-1.66v-4.77h-1V235h1v-2.06l1.39-.84V235h1.42v1.09h-1.42v4.85a2.45,2.45,0,0,0,.08.78.62.62,0,0,0,.24.27.9.9,0,0,0,.48.1A5.81,5.81,0,0,0,609.66,242Z"/><path class="cls-2" d="M616.47,243.29v-1.22a3,3,0,0,1-2.63,1.41,3.29,3.29,0,0,1-1.37-.28,2.24,2.24,0,0,1-1-.71,2.65,2.65,0,0,1-.43-1,6.82,6.82,0,0,1-.09-1.31V235h1.41v4.6a9.11,9.11,0,0,0,.08,1.48,1.46,1.46,0,0,0,.57.87,1.73,1.73,0,0,0,1.06.32,2.39,2.39,0,0,0,1.19-.32,1.77,1.77,0,0,0,.78-.89,4.28,4.28,0,0,0,.23-1.62V235h1.41v8.29Z"/><path class="cls-2" d="M619.93,243.29V235h1.27v1.18a3,3,0,0,1,2.64-1.37,3.47,3.47,0,0,1,1.38.27,2.11,2.11,0,0,1,.94.71,2.75,2.75,0,0,1,.44,1,8.68,8.68,0,0,1,.07,1.37v5.1h-1.4v-5a3.77,3.77,0,0,0-.17-1.29,1.36,1.36,0,0,0-.58-.68,1.83,1.83,0,0,0-1-.25,2.27,2.27,0,0,0-1.55.57,2.83,2.83,0,0,0-.65,2.16v4.53Z"/><path class="cls-2" d="M628.57,244l1.37.2a1.33,1.33,0,0,0,.48.93,2.32,2.32,0,0,0,1.43.39,2.48,2.48,0,0,0,1.5-.39,1.88,1.88,0,0,0,.72-1.1,8.12,8.12,0,0,0,.1-1.8,2.89,2.89,0,0,1-2.29,1.08,3.13,3.13,0,0,1-2.65-1.23,4.72,4.72,0,0,1-.94-3,5.45,5.45,0,0,1,.43-2.19,3.4,3.4,0,0,1,1.25-1.55,3.3,3.3,0,0,1,1.91-.55,3,3,0,0,1,2.43,1.19v-1h1.29v7.17a6.81,6.81,0,0,1-.39,2.74,2.86,2.86,0,0,1-1.25,1.28,4.36,4.36,0,0,1-2.11.47,3.89,3.89,0,0,1-2.39-.67A2.25,2.25,0,0,1,628.57,244Zm1.17-5a3.6,3.6,0,0,0,.64,2.38,2.08,2.08,0,0,0,1.63.75,2,2,0,0,0,1.62-.75,3.44,3.44,0,0,0,.66-2.34,3.38,3.38,0,0,0-.67-2.29A2.09,2.09,0,0,0,632,236a2.06,2.06,0,0,0-1.6.76A3.45,3.45,0,0,0,629.74,239Z"/><path class="cls-2" d="M561.62,262.49h-1.31V251h1.41v4.09A2.76,2.76,0,0,1,564,254a3.4,3.4,0,0,1,1.45.31,2.87,2.87,0,0,1,1.13.87,4.34,4.34,0,0,1,.69,1.34,5.48,5.48,0,0,1,.25,1.69,4.77,4.77,0,0,1-1,3.3,3.33,3.33,0,0,1-2.54,1.16,2.63,2.63,0,0,1-2.3-1.23Zm0-4.21a4.3,4.3,0,0,0,.41,2.16,2,2,0,0,0,3.39.28,3.6,3.6,0,0,0,.67-2.38,3.68,3.68,0,0,0-.64-2.4,2,2,0,0,0-1.56-.77,2,2,0,0,0-1.59.8A3.48,3.48,0,0,0,561.6,258.28Z"/><path class="cls-2" d="M568.48,262.49v-1.14l5.28-6.06c-.6,0-1.13.05-1.59.05h-3.38V254.2h6.78v.93l-4.49,5.26-.87,1c.63,0,1.22-.07,1.78-.07h3.83v1.21Z"/><path class="cls-2" d="M578.75,262.49l-2.54-8.29h1.46L579,259l.49,1.78c0-.09.16-.66.43-1.71l1.32-4.86h1.44l1.25,4.81.41,1.59.48-1.61,1.42-4.79h1.37l-2.6,8.29h-1.46l-1.32-5-.32-1.41-1.68,6.38Z"/><path class="cls-2" d="M588.29,262.49v-1.6h1.6v1.6Z"/><path class="cls-2" d="M596.9,262.49V251h1.52v5.68L604.1,251h2.06l-4.81,4.64,5,6.81h-2l-4.08-5.79-1.87,1.82v4Z"/><path class="cls-2" d="M606.93,258.35a4.3,4.3,0,0,1,1.28-3.42,3.91,3.91,0,0,1,2.61-.92,3.71,3.71,0,0,1,2.8,1.12,4.29,4.29,0,0,1,1.09,3.1,5.47,5.47,0,0,1-.49,2.52,3.4,3.4,0,0,1-1.39,1.42,4.09,4.09,0,0,1-2,.51,3.69,3.69,0,0,1-2.81-1.12A4.42,4.42,0,0,1,606.93,258.35Zm1.45,0a3.54,3.54,0,0,0,.69,2.38,2.24,2.24,0,0,0,1.75.79,2.2,2.2,0,0,0,1.74-.79,3.58,3.58,0,0,0,.7-2.43,3.4,3.4,0,0,0-.7-2.33,2.24,2.24,0,0,0-1.74-.8,2.27,2.27,0,0,0-1.75.79A3.55,3.55,0,0,0,608.38,258.35Z"/><path class="cls-2" d="M616.35,262.49V254.2h1.27v1.18a3,3,0,0,1,2.64-1.37,3.47,3.47,0,0,1,1.38.27,2.11,2.11,0,0,1,.94.71,2.75,2.75,0,0,1,.44,1,8.36,8.36,0,0,1,.08,1.37v5.1h-1.41v-5a4.1,4.1,0,0,0-.16-1.29,1.38,1.38,0,0,0-.59-.68,1.81,1.81,0,0,0-1-.25,2.28,2.28,0,0,0-1.55.57,2.83,2.83,0,0,0-.65,2.16v4.53Z"/><path class="cls-2" d="M628.32,261.24l.21,1.24a5.47,5.47,0,0,1-1.07.12,2.39,2.39,0,0,1-1.18-.24,1.32,1.32,0,0,1-.6-.64,5.14,5.14,0,0,1-.17-1.66v-4.77h-1V254.2h1v-2.06l1.4-.84v2.9h1.41v1.09h-1.41v4.85a2.56,2.56,0,0,0,.07.78.62.62,0,0,0,.24.27,1,1,0,0,0,.49.1A5.66,5.66,0,0,0,628.32,261.24Z"/><path class="cls-2" d="M635.38,259.82l1.45.18a3.55,3.55,0,0,1-1.27,2,4.33,4.33,0,0,1-5.27-.42,4.39,4.39,0,0,1-1.06-3.14,4.57,4.57,0,0,1,1.08-3.25A3.65,3.65,0,0,1,633.1,254a3.56,3.56,0,0,1,2.72,1.13,4.49,4.49,0,0,1,1.06,3.19c0,.08,0,.21,0,.37h-6.19a3.16,3.16,0,0,0,.78,2.1,2.3,2.3,0,0,0,1.73.72,2.13,2.13,0,0,0,1.32-.4A2.75,2.75,0,0,0,635.38,259.82Zm-4.62-2.27h4.63a2.8,2.8,0,0,0-.53-1.57,2.16,2.16,0,0,0-1.74-.81,2.23,2.23,0,0,0-1.63.64A2.6,2.6,0,0,0,630.76,257.55Z"/><path class="cls-2" d="M637.66,262.49l3-4.31-2.81-4h1.76l1.28,1.94q.36.56.57.93c.23-.34.44-.65.64-.91l1.4-2h1.68l-2.87,3.9,3.08,4.39H643.7L642,259.92l-.45-.7-2.18,3.27Z"/><path class="cls-2" d="M649.67,261.24l.2,1.24a5.46,5.46,0,0,1-1.06.12,2.43,2.43,0,0,1-1.19-.24,1.3,1.3,0,0,1-.59-.64,4.78,4.78,0,0,1-.18-1.66v-4.77h-1V254.2h1v-2.06l1.4-.84v2.9h1.42v1.09h-1.42v4.85a2.45,2.45,0,0,0,.08.78.62.62,0,0,0,.24.27.9.9,0,0,0,.48.1A5.81,5.81,0,0,0,649.67,261.24Z"/><polygon class="cls-4" points="533.65 370.28 492.72 370.28 479.1 356.66 492.72 343.03 533.65 343.03 533.65 370.28"/><polygon class="cls-5" points="533.65 370.28 492.72 370.28 479.1 356.66 492.72 343.03 533.65 343.03 533.65 370.28"/><text class="cls-3" transform="translate(555.53 360.68)">Syntax</text><polygon class="cls-1" points="533.65 481.99 492.72 481.99 479.1 468.36 492.72 454.74 533.65 454.74 533.65 481.99"/><text class="cls-3" transform="translate(555.53 472.39)">Zeichenvorrat</text><polygon class="cls-1" points="771.24 46.26 771.24 481.99 904.53 46.26 771.24 46.26"/><text class="cls-6" transform="translate(805.61 84.4)"><tspan class="cls-7">W</tspan><tspan x="18.52" y="0">ert</tspan></text><ellipse class="cls-8" cx="375.71" cy="77.4" rx="105.07" ry="37.37"/><ellipse class="cls-8" cx="375.65" cy="189.1" rx="105.07" ry="37.36"/><ellipse class="cls-8" cx="375.65" cy="300.81" rx="105.07" ry="37.37"/><text class="cls-9" transform="translate(340.78 84.4)"><tspan class="cls-10">W</tspan><tspan x="18.7" y="0">issen</tspan></text><text class="cls-9" transform="translate(320.71 193.92)">Information</text><text class="cls-9" transform="translate(347.92 305.62)">Daten</text><ellipse class="cls-8" cx="375.65" cy="412.51" rx="105.07" ry="37.37"/><text class="cls-9" transform="translate(337.92 417.33)">Zeichen</text></svg>