<?xml version="1.0" encoding="UTF-8"?>
<svg id="graphics" xmlns="http://www.w3.org/2000/svg" viewBox="0 0 988 525">
  <defs>
    <style>
      .cls-1, .cls-2 {
        font-size: 14px;
      }

      .cls-1, .cls-3 {
        font-family: Arial-BoldMT, Arial;
        font-weight: 700;
      }

      .cls-2 {
        font-family: ArialMT, Arial;
      }

      .cls-4 {
        fill: #fff;
        stroke-width: 2px;
      }

      .cls-4, .cls-5 {
        stroke: #1d1d1b;
        stroke-miterlimit: 10;
      }

      .cls-3 {
        fill: #0333ff;
        font-size: 18px;
      }

      .cls-5 {
        fill: none;
      }

      .cls-6, .cls-7 {
        stroke-width: 0px;
      }

      .cls-7 {
        fill-rule: evenodd;
      }
    </style>
  </defs>
  <text transform="translate(512.92 282.45)"><tspan class="cls-3"><tspan x="0" y="0">Legal responsibilities</tspan></tspan><tspan class="cls-1"><tspan x="0" y="28.8">Obey the law!</tspan></tspan><tspan class="cls-2"><tspan x="0" y="45.6">Play by the rules of the game.</tspan></tspan></text>
  <text transform="translate(570.04 381.43)"><tspan class="cls-3"><tspan x="0" y="0">Economic responsibilities</tspan></tspan><tspan class="cls-1"><tspan x="0" y="28.8">Be profitable!</tspan></tspan><tspan class="cls-2"><tspan x="0" y="45.6">The foundation upon which all others rest.</tspan></tspan></text>
  <g>
    <polygon class="cls-4" points="316.39 58.98 86.48 457.19 546.3 457.19 316.39 58.98"/>
    <line class="cls-5" x1="258.91" y1="158.54" x2="373.87" y2="158.54"/>
    <line class="cls-5" x1="201.44" y1="258.09" x2="431.34" y2="258.09"/>
    <line class="cls-5" x1="143.96" y1="357.64" x2="488.82" y2="357.64"/>
    <line class="cls-5" x1="93.49" y1="457.19" x2="510.21" y2="457.19"/>
  </g>
  <g>
    <path class="cls-7" d="m332.42,311.7c-2.82,0-5.25-1.05-5.79-2.39h11.59c-.55,1.34-2.98,2.39-5.79,2.39Zm-16.03-21.31c-.62,0-1.12-.51-1.12-1.13s.5-1.13,1.12-1.13,1.12.51,1.12,1.13-.5,1.13-1.12,1.13Zm-16.03,21.31c-2.82,0-5.25-1.05-5.79-2.39h11.59c-.55,1.34-2.98,2.39-5.79,2.39Zm0-21.15l4.13,17.64h-8.27l4.13-17.64s0,0,0,0,0,0,0,0Zm36.19,17.64h-8.27l4.13-17.64s0,0,0,0,0,0,0,0l4.13,17.64Zm1.16,0l-4.3-18.36h1.54c.31,0,.56-.25.56-.56s-.25-.56-.56-.56h-16.39c-.21-.79-.82-1.41-1.61-1.61v-5.16c0-.31-.25-.56-.56-.56s-.56.25-.56.56v5.16c-.79.21-1.4.82-1.61,1.61h-16.39c-.31,0-.56.25-.56.56s.25.56.56.56h1.54l-4.3,18.36h-1.74v.56c0,2.29,3.09,4.08,7.03,4.08s7.03-1.79,7.03-4.08v-.56h-1.74l-4.3-18.36h12.87c.21.79.82,1.41,1.61,1.61v31.15h-3.94c-1.24,0-2.25,1.01-2.25,2.26h1.12c0-.62.5-1.13,1.12-1.13h9c.62,0,1.12.51,1.12,1.13h1.12c0-1.25-1.01-2.26-2.25-2.26h-3.94v-31.15c.79-.21,1.4-.82,1.61-1.61h12.87l-4.3,18.36h-1.74v.56c0,2.29,3.09,4.08,7.03,4.08s7.03-1.79,7.03-4.08v-.56h-1.74Z"/>
    <rect class="cls-6" x="302.89" y="325.22" width="27" height="1.12"/>
  </g>
  <g>
    <polygon class="cls-7" points="335.52 428.36 298.39 428.36 298.39 391.24 297.27 391.24 297.27 429.49 335.52 429.49 335.52 428.36"/>
    <path class="cls-7" d="m334.39,423.86h-6.75v-31.5h6.75v31.5Zm1.12-32.62h-9v33.75h9v-33.75Z"/>
    <path class="cls-7" d="m315.27,404.74h6.75v19.12h-6.75v-19.12Zm-1.12,20.25h9v-21.38h-9v21.38Z"/>
    <path class="cls-7" d="m302.89,414.86h6.75v9h-6.75v-9Zm-1.12,10.12h9v-11.25h-9v11.25Z"/>
    <polygon class="cls-7" points="302.19 409.61 318.63 393.16 318.64 393.17 318.64 393.17 318.64 398.54 319.77 398.54 319.77 391.24 312.48 391.24 312.48 392.36 317.83 392.36 317.84 392.37 317.84 392.37 301.39 408.82 302.19 409.61"/>
  </g>
</svg>