<?xml version="1.0" encoding="UTF-8"?>
<svg id="maturity" xmlns="http://www.w3.org/2000/svg" viewBox="0 0 988 525">
  <defs>
    <style>
      .cls-1 {
        letter-spacing: -.02em;
      }

      .cls-2 {
        fill: #fff;
      }

      .cls-2, .cls-3 {
        stroke: #000;
        stroke-miterlimit: 10;
      }

      .cls-4 {
        stroke-width: 0px;
      }

      .cls-4, .cls-5 {
        fill: #000;
      }

      .cls-6 {
        fill: #0333ff;
        font-family: Arial-BoldMT, Arial;
        font-size: 18px;
        font-weight: 700;
      }

      .cls-3 {
        fill: none;
      }

      .cls-5 {
        font-family: ArialMT, Arial;
        font-size: 14px;
      }
    </style>
  </defs>
  <g>
    <rect class="cls-2" x="146.88" y="41.49" width="177.49" height="40"/>
    <text class="cls-5" transform="translate(173.38 66.81)"><tspan x="0" y="0">Digital infrastructure</tspan></text>
  </g>
  <text class="cls-5" transform="translate(41.39 142.58)"><tspan x="0" y="0">More services</tspan><tspan x="21.9" y="16.8">o</tspan><tspan class="cls-1" x="29.68" y="16.8">f</tspan><tspan x="33.32" y="16.8">fered</tspan></text>
  <text class="cls-5" transform="translate(181.15 239.49)"><tspan x="0" y="0">More users adopt</tspan></text>
  <text class="cls-5" transform="translate(338.73 142.58)"><tspan x="0" y="0">More services</tspan><tspan x="17.49" y="16.8">invested</tspan></text>
  <text class="cls-6" transform="translate(188.12 151.58)"><tspan x="0" y="0">ADOPTION</tspan></text>
  <g>
    <polyline class="cls-3" points="146.88 61.49 84.96 61.49 84.96 111.14"/>
    <polygon class="cls-4" points="79.97 109.68 84.96 118.31 89.94 109.68 79.97 109.68"/>
  </g>
  <g>
    <polyline class="cls-3" points="84.96 174.19 84.96 236.11 134.6 236.11"/>
    <polygon class="cls-4" points="133.14 241.1 141.78 236.11 133.14 231.12 133.14 241.1"/>
  </g>
  <g>
    <polyline class="cls-3" points="320.37 236.11 382.3 236.11 382.3 186.46"/>
    <polygon class="cls-4" points="387.28 187.92 382.3 179.29 377.31 187.92 387.28 187.92"/>
  </g>
  <g>
    <polyline class="cls-3" points="382.3 123.41 382.3 61.49 332.65 61.49"/>
    <polygon class="cls-4" points="334.11 56.5 325.47 61.49 334.11 66.48 334.11 56.5"/>
  </g>
</svg>