<?xml version="1.0" encoding="UTF-8"?>
<svg id="Ebene_1" data-name="Ebene 1" xmlns="http://www.w3.org/2000/svg" viewBox="0 0 988 525">
  <defs>
    <style>
      .cls-1 {
        stroke-width: .5px;
      }

      .cls-1, .cls-2, .cls-3 {
        stroke-dasharray: 4 4;
      }

      .cls-1, .cls-2, .cls-3, .cls-4, .cls-5, .cls-6, .cls-7, .cls-8 {
        stroke-miterlimit: 10;
      }

      .cls-1, .cls-2, .cls-3, .cls-5, .cls-6, .cls-7, .cls-8, .cls-9 {
        fill: none;
      }

      .cls-1, .cls-2, .cls-3, .cls-7, .cls-8 {
        stroke: #0333ff;
      }

      .cls-2 {
        stroke-width: .75px;
      }

      .cls-10 {
        font-family: Arial-BoldMT, Arial;
        font-weight: 700;
      }

      .cls-10, .cls-11 {
        font-size: 18px;
      }

      .cls-12 {
        fill: #0333ff;
      }

      .cls-11 {
        font-family: ArialMT, Arial;
      }

      .cls-4 {
        fill: #fff;
      }

      .cls-4, .cls-5, .cls-6, .cls-9 {
        stroke: #000;
      }

      .cls-6, .cls-13 {
        opacity: .5;
      }

      .cls-7 {
        stroke-dasharray: 4.05 4.05;
      }
    </style>
  </defs>
  <rect class="cls-6" x="251.3" y="62.5" width="372.42" height="400"/>
  <g class="cls-13">
    <rect class="cls-5" x="56.09" y="122.95" width="75" height="279.11"/>
    <text class="cls-10" transform="translate(100.85 317.51) rotate(-90)"><tspan x="0" y="0">Environment</tspan></text>
  </g>
  <g class="cls-13">
    <rect class="cls-9" x="743.93" y="187.5" width="150" height="150"/>
    <g>
      <path d="M795.71,252.51c0-1.31.2-2.41.59-3.3.29-.66.69-1.25,1.2-1.77s1.06-.91,1.67-1.16c.8-.34,1.73-.51,2.78-.51,1.9,0,3.42.59,4.56,1.77s1.71,2.82,1.71,4.91-.57,3.71-1.7,4.88-2.64,1.76-4.54,1.76-3.44-.58-4.57-1.75-1.7-2.78-1.7-4.83ZM798.39,252.43c0,1.46.34,2.57,1.01,3.32s1.53,1.13,2.57,1.13,1.89-.37,2.55-1.12,1-1.87,1-3.36-.32-2.58-.97-3.3-1.51-1.09-2.58-1.09-1.94.37-2.59,1.1-.98,1.84-.98,3.33Z"/>
      <path d="M814.5,249.54v1.97h-1.69v3.76c0,.76.02,1.21.05,1.33s.11.23.22.31.25.12.42.12c.23,0,.56-.08.99-.24l.21,1.92c-.57.25-1.22.37-1.95.37-.45,0-.85-.07-1.2-.22s-.62-.34-.79-.58-.28-.56-.35-.96c-.05-.29-.08-.87-.08-1.74v-4.07h-1.13v-1.97h1.13v-1.85l2.48-1.44v3.3h1.69Z"/>
      <path d="M818.67,245.99v4.74c.8-.93,1.75-1.4,2.86-1.4.57,0,1.08.11,1.54.32s.8.48,1.03.81.39.69.47,1.09.13,1.02.13,1.85v5.48h-2.47v-4.93c0-.98-.05-1.6-.14-1.86s-.26-.47-.5-.63-.53-.23-.89-.23c-.41,0-.78.1-1.1.3s-.56.5-.71.9-.22.99-.22,1.78v4.68h-2.47v-12.88h2.47Z"/>
      <path d="M832.61,255.91l2.46.41c-.32.9-.82,1.59-1.5,2.06s-1.54.71-2.56.71c-1.62,0-2.82-.53-3.6-1.59-.62-.85-.92-1.92-.92-3.22,0-1.55.4-2.76,1.21-3.63s1.83-1.31,3.07-1.31c1.39,0,2.48.46,3.29,1.38s1.19,2.32,1.15,4.21h-6.19c.02.73.22,1.3.6,1.71s.86.61,1.42.61c.39,0,.71-.11.98-.32s.46-.55.6-1.02ZM832.75,253.41c-.02-.71-.2-1.26-.55-1.63s-.78-.56-1.28-.56c-.54,0-.98.2-1.34.59s-.52.93-.52,1.6h3.69Z"/>
      <path d="M839.58,258.88h-2.47v-9.33h2.29v1.33c.39-.63.75-1.04,1.06-1.24s.67-.3,1.07-.3c.56,0,1.1.16,1.63.47l-.76,2.15c-.42-.27-.8-.4-1.16-.4s-.64.1-.88.29-.43.53-.57,1.03-.21,1.54-.21,3.13v2.88Z"/>
      <path d="M801.36,280.48h-2.83l-1.12-2.93h-5.15l-1.06,2.93h-2.76l5.02-12.88h2.75l5.16,12.88ZM796.57,275.38l-1.78-4.78-1.74,4.78h3.52Z"/>
      <path d="M802.49,281.09l2.82.34c.05.33.16.55.33.68.23.18.6.26,1.11.26.64,0,1.13-.1,1.45-.29.22-.13.38-.34.49-.62.08-.21.11-.58.11-1.13v-1.36c-.74,1.01-1.67,1.51-2.79,1.51-1.25,0-2.25-.53-2.98-1.59-.57-.84-.86-1.88-.86-3.13,0-1.56.38-2.76,1.13-3.59s1.69-1.24,2.81-1.24,2.11.51,2.86,1.52v-1.31h2.31v8.38c0,1.1-.09,1.92-.27,2.47s-.44.97-.76,1.28-.77.55-1.31.73-1.24.26-2.08.26c-1.58,0-2.7-.27-3.37-.81s-.99-1.23-.99-2.06c0-.08,0-.18,0-.3ZM804.7,275.62c0,.99.19,1.71.58,2.17s.86.69,1.42.69c.6,0,1.11-.24,1.53-.71s.62-1.17.62-2.1-.2-1.68-.6-2.15-.9-.7-1.51-.7-1.08.23-1.46.69-.58,1.16-.58,2.11Z"/>
      <path d="M819.12,277.51l2.46.41c-.32.9-.82,1.59-1.5,2.06s-1.54.71-2.56.71c-1.62,0-2.82-.53-3.6-1.59-.62-.85-.92-1.92-.92-3.22,0-1.55.4-2.76,1.21-3.63s1.83-1.31,3.07-1.31c1.39,0,2.48.46,3.29,1.38s1.19,2.32,1.15,4.21h-6.19c.02.73.22,1.3.6,1.71s.86.61,1.42.61c.39,0,.71-.11.98-.32s.46-.55.6-1.02ZM819.26,275.01c-.02-.71-.2-1.26-.55-1.63s-.78-.56-1.28-.56c-.54,0-.98.2-1.34.59s-.52.93-.52,1.6h3.69Z"/>
      <path d="M832.21,280.48h-2.47v-4.76c0-1.01-.05-1.66-.16-1.96s-.28-.53-.51-.69-.52-.25-.86-.25c-.43,0-.81.12-1.15.35s-.57.54-.7.93-.19,1.1-.19,2.14v4.23h-2.47v-9.33h2.29v1.37c.81-1.05,1.84-1.58,3.08-1.58.54,0,1.04.1,1.49.29s.79.45,1.02.75.39.65.48,1.04.14.94.14,1.66v5.8Z"/>
      <path d="M839,271.14v1.97h-1.69v3.76c0,.76.02,1.21.05,1.33s.11.23.22.31.25.12.42.12c.23,0,.56-.08.99-.24l.21,1.92c-.57.25-1.22.37-1.95.37-.45,0-.85-.08-1.2-.22s-.62-.34-.79-.58-.28-.56-.35-.96c-.05-.29-.08-.87-.08-1.74v-4.07h-1.13v-1.97h1.13v-1.85l2.48-1.44v3.3h1.69Z"/>
      <path d="M839.84,277.81l2.48-.38c.11.48.32.84.64,1.09s.77.37,1.35.37c.64,0,1.12-.12,1.44-.35.22-.16.33-.38.33-.66,0-.19-.06-.34-.18-.47-.12-.12-.4-.23-.83-.33-1.99-.44-3.25-.84-3.79-1.2-.74-.5-1.11-1.2-1.11-2.1,0-.81.32-1.49.96-2.04s1.63-.83,2.97-.83,2.23.21,2.85.62,1.05,1.03,1.28,1.85l-2.33.43c-.1-.36-.29-.64-.57-.83s-.68-.29-1.19-.29c-.65,0-1.12.09-1.4.27-.19.13-.28.3-.28.5,0,.18.08.33.25.45.22.16.99.4,2.31.69s2.23.67,2.76,1.1c.52.44.77,1.05.77,1.84,0,.86-.36,1.59-1.07,2.21s-1.77.92-3.17.92c-1.27,0-2.28-.26-3.02-.77s-1.23-1.22-1.45-2.1Z"/>
    </g>
  </g>
  <g class="cls-13">
    <g>
      <line class="cls-5" x1="94.48" y1="187.5" x2="266.67" y2="187.5"/>
      <polygon points="265.22 192.49 273.85 187.5 265.22 182.51 265.22 192.49"/>
    </g>
  </g>
  <g class="cls-13">
    <g>
      <path class="cls-5" d="M137.38,308.05c14.16-5.57,32.43-8.93,52.38-8.93,44.97,0,81.43,18.18,81.43,18.18"/>
      <polygon points="140.72 312.14 130.82 310.94 136.8 302.96 140.72 312.14"/>
    </g>
  </g>
  <g class="cls-13">
    <g>
      <path class="cls-5" d="M244.73,365.59c-14.16,5.57-32.43,8.93-52.38,8.93-44.97,0-81.43-18.18-81.43-18.18"/>
      <polygon points="241.4 361.5 251.3 362.7 245.31 370.67 241.4 361.5"/>
    </g>
  </g>
  <rect class="cls-4" x="291.3" y="122.95" width="80" height="129.55" transform="translate(662.59 375.45) rotate(-180)"/>
  <rect class="cls-4" x="291.3" y="272.5" width="80" height="129.55" transform="translate(662.59 674.55) rotate(-180)"/>
  <rect class="cls-4" x="491.3" y="162.5" width="80" height="200"/>
  <rect class="cls-4" x="391.3" y="162.5" width="80" height="200"/>
  <text class="cls-11" transform="translate(340.13 230.75) rotate(-90)"><tspan x="0" y="0">Perception</tspan></text>
  <text class="cls-11" transform="translate(541.66 304.52) rotate(-90)"><tspan x="0" y="0">Interaction</tspan></text>
  <text class="cls-11" transform="translate(438.11 310.53) rotate(-90)"><tspan x="0" y="0">Deliberation</tspan></text>
  <g>
    <path d="M326.5,362.32l-12.88-4.95v-1.84l12.88-5.27v1.94l-3.9,1.5v5.39l3.9,1.42v1.81ZM321.21,358.6v-4.37l-3.57,1.34c-1.08.41-1.97.71-2.67.91.83.16,1.65.4,2.46.69l3.78,1.42Z"/>
    <path d="M323.08,343.01l.2-1.56c1.07.17,1.91.6,2.52,1.31.61.7.91,1.56.91,2.58,0,1.28-.42,2.3-1.25,3.08-.83.78-2.03,1.16-3.59,1.16-1.01,0-1.89-.17-2.65-.5s-1.32-.84-1.7-1.52c-.38-.68-.57-1.43-.57-2.23,0-1.01.26-1.84.77-2.49s1.24-1.06,2.18-1.24l.24,1.54c-.63.15-1.1.41-1.42.78-.32.37-.47.82-.47,1.35,0,.8.29,1.44.86,1.94s1.48.75,2.71.75,2.17-.24,2.73-.72.85-1.11.85-1.88c0-.62-.19-1.14-.57-1.56s-.97-.68-1.76-.79Z"/>
    <path d="M325.08,336.64l1.4-.23c.09.45.14.84.14,1.2,0,.57-.09,1.02-.27,1.34s-.42.54-.72.67-.92.19-1.87.19h-5.37v1.16h-1.23v-1.16h-2.31l-.95-1.57h3.26v-1.59h1.23v1.59h5.46c.45,0,.74-.03.87-.08.13-.06.23-.15.31-.27.08-.12.11-.31.11-.54,0-.18-.02-.41-.06-.69Z"/>
    <path d="M315.43,335.09h-1.82v-1.58h1.82v1.58ZM326.5,335.09h-9.33v-1.58h9.33v1.58Z"/>
    <path d="M321.83,331.69c-1.73,0-3.01-.48-3.84-1.44-.69-.8-1.04-1.78-1.04-2.94,0-1.28.42-2.33,1.26-3.15s2-1.22,3.48-1.22c1.2,0,2.15.18,2.83.54.69.36,1.22.88,1.6,1.57.38.69.57,1.44.57,2.25,0,1.31-.42,2.36-1.26,3.17-.84.81-2.04,1.21-3.62,1.21ZM321.83,330.06c1.2,0,2.09-.26,2.69-.78s.89-1.18.89-1.97-.3-1.44-.9-1.96-1.51-.78-2.73-.78c-1.15,0-2.03.26-2.62.79-.59.52-.89,1.18-.89,1.96s.3,1.45.89,1.97,1.49.78,2.68.78Z"/>
    <path d="M326.5,321.09h-9.33v-1.42h1.33c-1.03-.69-1.54-1.68-1.54-2.97,0-.56.1-1.08.3-1.55.2-.47.47-.83.8-1.06s.72-.4,1.17-.49c.29-.06.81-.09,1.54-.09h5.74v1.58h-5.68c-.64,0-1.13.06-1.45.18s-.57.34-.76.65c-.19.31-.29.68-.29,1.1,0,.67.21,1.26.64,1.74.43.49,1.24.73,2.43.73h5.1v1.58Z"/>
    <path d="M343.58,355.71l.43-1.71c1.4.36,2.47,1,3.2,1.93.74.93,1.1,2.06,1.1,3.41s-.28,2.52-.85,3.39c-.57.87-1.38,1.53-2.46,1.99-1.07.45-2.22.68-3.45.68-1.34,0-2.51-.26-3.51-.77-1-.51-1.76-1.24-2.28-2.19-.52-.95-.78-1.99-.78-3.12,0-1.29.33-2.37.98-3.25s1.58-1.49,2.77-1.84l.4,1.68c-.94.3-1.62.73-2.05,1.3s-.64,1.28-.64,2.14c0,.99.24,1.82.71,2.48.47.66,1.11,1.13,1.91,1.4s1.62.4,2.47.4c1.1,0,2.05-.16,2.87-.48.82-.32,1.43-.82,1.83-1.49s.61-1.4.61-2.19c0-.96-.28-1.76-.83-2.43s-1.37-1.11-2.45-1.34Z"/>
    <path d="M343.43,352.69c-1.73,0-3.01-.48-3.84-1.44-.69-.8-1.04-1.78-1.04-2.94,0-1.28.42-2.33,1.26-3.15s2-1.22,3.48-1.22c1.2,0,2.15.18,2.83.54.69.36,1.22.88,1.6,1.57.38.69.57,1.44.57,2.25,0,1.31-.42,2.36-1.26,3.17-.84.81-2.04,1.21-3.62,1.21ZM343.43,351.07c1.2,0,2.09-.26,2.69-.78s.89-1.18.89-1.97-.3-1.44-.9-1.96-1.51-.78-2.73-.78c-1.15,0-2.03.26-2.62.79-.59.52-.89,1.18-.89,1.96s.3,1.45.89,1.97,1.49.78,2.68.78Z"/>
    <path d="M348.1,342.09h-9.33v-1.42h1.33c-1.03-.69-1.54-1.68-1.54-2.97,0-.56.1-1.08.3-1.55.2-.47.47-.83.8-1.06s.72-.4,1.17-.49c.29-.06.81-.09,1.54-.09h5.74v1.58h-5.68c-.64,0-1.13.06-1.45.18s-.57.34-.76.65c-.19.31-.29.68-.29,1.1,0,.67.21,1.26.64,1.74.43.49,1.24.73,2.43.73h5.1v1.58Z"/>
    <path d="M346.68,328.63l1.4-.23c.09.45.14.84.14,1.2,0,.57-.09,1.02-.27,1.34s-.42.54-.72.67-.92.19-1.87.19h-5.37v1.16h-1.23v-1.16h-2.31l-.95-1.57h3.26v-1.59h1.23v1.59h5.46c.45,0,.74-.03.87-.08.13-.06.23-.15.31-.27.08-.12.11-.31.11-.54,0-.18-.02-.41-.06-.69Z"/>
    <path d="M348.1,327.1h-9.33v-1.42h1.42c-.66-.36-1.1-.7-1.31-1.01-.21-.31-.32-.65-.32-1.02,0-.53.17-1.08.51-1.63l1.47.54c-.23.39-.34.77-.34,1.16,0,.35.1.66.31.93s.5.47.87.59c.56.18,1.18.26,1.85.26h4.89v1.58Z"/>
    <path d="M343.43,321.68c-1.73,0-3.01-.48-3.84-1.44-.69-.8-1.04-1.78-1.04-2.94,0-1.28.42-2.33,1.26-3.15s2-1.22,3.48-1.22c1.2,0,2.15.18,2.83.54.69.36,1.22.88,1.6,1.57.38.69.57,1.44.57,2.25,0,1.31-.42,2.36-1.26,3.17-.84.8-2.04,1.21-3.62,1.21ZM343.43,320.05c1.2,0,2.09-.26,2.69-.78s.89-1.18.89-1.97-.3-1.44-.9-1.96-1.51-.78-2.73-.78c-1.15,0-2.03.26-2.62.79-.59.53-.89,1.18-.89,1.96s.3,1.45.89,1.97,1.49.78,2.68.78Z"/>
    <path d="M348.1,311.11h-12.88v-1.58h12.88v1.58Z"/>
  </g>
  <g class="cls-13">
    <text class="cls-10" transform="translate(360.49 91.56)"><tspan x="0" y="0">Intelligent System</tspan></text>
  </g>
  <g>
    <path class="cls-12" d="M667.79,461.82v-12.88h1.71v12.88h-1.71Z"/>
    <path class="cls-12" d="M672.13,461.82v-9.33h1.42v1.33c.69-1.03,1.68-1.54,2.97-1.54.56,0,1.08.1,1.55.3s.82.47,1.06.79.4.72.49,1.17c.06.29.09.81.09,1.54v5.74h-1.58v-5.68c0-.64-.06-1.13-.18-1.45s-.34-.57-.65-.76-.68-.29-1.1-.29c-.67,0-1.25.21-1.74.64s-.73,1.24-.73,2.43v5.1h-1.58Z"/>
    <path class="cls-12" d="M685.29,460.41l.23,1.4c-.45.09-.84.14-1.2.14-.57,0-1.02-.09-1.34-.27s-.54-.42-.67-.72-.19-.92-.19-1.87v-5.37h-1.16v-1.23h1.16v-2.31l1.57-.95v3.26h1.59v1.23h-1.59v5.46c0,.45.03.74.08.87s.15.23.27.31.31.11.54.11c.18,0,.41-.02.69-.06Z"/>
    <path class="cls-12" d="M692.95,458.82l1.63.2c-.26.96-.74,1.7-1.43,2.22s-1.59.79-2.67.79c-1.37,0-2.45-.42-3.25-1.26s-1.2-2.02-1.2-3.54.4-2.79,1.21-3.66,1.86-1.3,3.15-1.3,2.27.42,3.06,1.27,1.19,2.04,1.19,3.59c0,.09,0,.23,0,.42h-6.96c.06,1.03.35,1.81.87,2.36s1.17.82,1.95.82c.58,0,1.08-.15,1.49-.46s.74-.79.98-1.46ZM687.76,456.26h5.21c-.07-.79-.27-1.37-.6-1.77-.5-.61-1.16-.91-1.96-.91-.73,0-1.34.24-1.83.73s-.77,1.14-.82,1.95Z"/>
    <path class="cls-12" d="M696.43,461.82v-9.33h1.42v1.42c.36-.66.7-1.1,1.01-1.31s.65-.32,1.02-.32c.53,0,1.08.17,1.63.51l-.54,1.47c-.39-.23-.77-.34-1.16-.34-.35,0-.66.1-.93.31s-.47.5-.59.87c-.18.56-.26,1.18-.26,1.85v4.89h-1.58Z"/>
    <path class="cls-12" d="M708.45,460.67c-.59.5-1.15.85-1.69,1.05s-1.12.31-1.75.31c-1.03,0-1.81-.25-2.36-.75s-.83-1.14-.83-1.92c0-.46.1-.87.31-1.25s.48-.68.82-.91.72-.4,1.14-.52c.31-.08.78-.16,1.41-.24,1.28-.15,2.22-.33,2.82-.54,0-.22,0-.35,0-.41,0-.64-.15-1.1-.45-1.36-.4-.36-1-.54-1.8-.54-.74,0-1.29.13-1.65.39s-.62.72-.79,1.38l-1.55-.21c.14-.66.37-1.2.69-1.6s.79-.72,1.4-.94,1.32-.33,2.12-.33,1.44.09,1.94.28.86.42,1.1.71.4.64.49,1.08c.05.27.08.76.08,1.46v2.11c0,1.47.03,2.4.1,2.79s.2.76.4,1.12h-1.65c-.16-.33-.27-.71-.32-1.15ZM708.32,457.14c-.57.23-1.44.43-2.58.6-.65.09-1.11.2-1.38.32s-.48.29-.62.51-.22.48-.22.75c0,.42.16.77.48,1.05s.79.42,1.4.42,1.15-.13,1.63-.4.82-.63,1.05-1.09c.17-.36.25-.88.25-1.58v-.58Z"/>
    <path class="cls-12" d="M718.23,458.4l1.56.2c-.17,1.07-.6,1.91-1.3,2.52s-1.56.91-2.58.91c-1.28,0-2.3-.42-3.08-1.25s-1.17-2.03-1.17-3.59c0-1.01.17-1.89.5-2.65s.84-1.32,1.53-1.7,1.42-.57,2.23-.57c1.01,0,1.84.26,2.49.77s1.06,1.24,1.24,2.18l-1.54.24c-.15-.63-.41-1.1-.78-1.42s-.82-.47-1.35-.47c-.8,0-1.44.29-1.94.86s-.75,1.47-.75,2.71.24,2.17.72,2.73,1.11.85,1.88.85c.62,0,1.14-.19,1.56-.57s.68-.97.79-1.76Z"/>
    <path class="cls-12" d="M724.64,460.41l.23,1.4c-.45.09-.84.14-1.2.14-.57,0-1.02-.09-1.34-.27s-.54-.42-.67-.72-.19-.92-.19-1.87v-5.37h-1.16v-1.23h1.16v-2.31l1.57-.95v3.26h1.59v1.23h-1.59v5.46c0,.45.03.74.08.87s.15.23.27.31.31.11.54.11c.18,0,.41-.02.69-.06Z"/>
    <path class="cls-12" d="M726.13,450.76v-1.82h1.58v1.82h-1.58ZM726.13,461.82v-9.33h1.58v9.33h-1.58Z"/>
    <path class="cls-12" d="M729.46,457.16c0-1.73.48-3.01,1.44-3.84.8-.69,1.78-1.04,2.94-1.04,1.28,0,2.33.42,3.15,1.26s1.22,2,1.22,3.48c0,1.2-.18,2.15-.54,2.83s-.88,1.22-1.57,1.6-1.44.57-2.25.57c-1.31,0-2.36-.42-3.17-1.26s-1.21-2.04-1.21-3.62ZM731.09,457.16c0,1.2.26,2.09.78,2.69s1.18.89,1.97.89,1.44-.3,1.96-.9.78-1.51.78-2.73c0-1.15-.26-2.03-.79-2.62s-1.18-.89-1.96-.89-1.45.3-1.97.89-.78,1.49-.78,2.68Z"/>
    <path class="cls-12" d="M739.97,461.82v-9.33h1.42v1.33c.69-1.03,1.68-1.54,2.97-1.54.56,0,1.08.1,1.55.3s.83.47,1.06.79.4.72.49,1.17c.06.29.09.81.09,1.54v5.74h-1.58v-5.68c0-.64-.06-1.13-.18-1.45s-.34-.57-.66-.76-.68-.29-1.1-.29c-.67,0-1.26.21-1.75.64s-.73,1.24-.73,2.43v5.1h-1.58Z"/>
    <path class="cls-12" d="M756.71,461.82l-2.86-9.33h1.63l1.49,5.39.55,2c.02-.1.18-.74.48-1.92l1.49-5.47h1.63l1.4,5.41.47,1.78.54-1.8,1.6-5.4h1.54l-2.92,9.33h-1.64l-1.49-5.59-.36-1.59-1.89,7.18h-1.65Z"/>
    <path class="cls-12" d="M767.92,450.76v-1.82h1.58v1.82h-1.58ZM767.92,461.82v-9.33h1.58v9.33h-1.58Z"/>
    <path class="cls-12" d="M775.2,460.41l.23,1.4c-.45.09-.84.14-1.2.14-.57,0-1.02-.09-1.34-.27s-.54-.42-.67-.72-.19-.92-.19-1.87v-5.37h-1.16v-1.23h1.16v-2.31l1.57-.95v3.26h1.59v1.23h-1.59v5.46c0,.45.03.74.08.87s.15.23.27.31.31.11.54.11c.18,0,.41-.02.69-.06Z"/>
    <path class="cls-12" d="M776.69,461.82v-12.88h1.58v4.62c.74-.86,1.67-1.28,2.79-1.28.69,0,1.29.14,1.8.41s.87.65,1.09,1.13.33,1.18.33,2.09v5.92h-1.58v-5.92c0-.79-.17-1.37-.51-1.73s-.83-.54-1.45-.54c-.47,0-.91.12-1.32.37s-.71.57-.88.99-.26.99-.26,1.72v5.11h-1.58Z"/>
    <path class="cls-12" d="M666.7,478.76c0-1.73.48-3.01,1.44-3.84.8-.69,1.78-1.04,2.94-1.04,1.28,0,2.33.42,3.15,1.26s1.22,2,1.22,3.49c0,1.2-.18,2.15-.54,2.83s-.88,1.22-1.57,1.6-1.44.57-2.25.57c-1.31,0-2.36-.42-3.17-1.26s-1.21-2.04-1.21-3.62ZM668.33,478.76c0,1.2.26,2.09.78,2.68s1.18.89,1.97.89,1.44-.3,1.96-.9.78-1.51.78-2.73c0-1.15-.26-2.03-.79-2.62s-1.18-.89-1.96-.89-1.45.3-1.97.89-.78,1.49-.78,2.68Z"/>
    <path class="cls-12" d="M680.49,482.01l.23,1.4c-.45.09-.84.14-1.2.14-.57,0-1.02-.09-1.34-.27s-.54-.42-.67-.72-.19-.92-.19-1.87v-5.37h-1.16v-1.23h1.16v-2.31l1.57-.95v3.26h1.59v1.23h-1.59v5.46c0,.45.03.74.08.87s.15.23.27.31.31.11.54.11c.18,0,.41-.02.69-.06Z"/>
    <path class="cls-12" d="M681.98,483.42v-12.88h1.58v4.62c.74-.86,1.67-1.28,2.79-1.28.69,0,1.29.14,1.8.41s.88.65,1.09,1.13.33,1.18.33,2.09v5.92h-1.58v-5.92c0-.79-.17-1.37-.51-1.73s-.83-.54-1.46-.54c-.47,0-.91.12-1.32.36s-.71.57-.88.99-.26.99-.26,1.72v5.11h-1.58Z"/>
    <path class="cls-12" d="M698.25,480.42l1.63.2c-.26.96-.74,1.7-1.43,2.22s-1.59.79-2.67.79c-1.37,0-2.45-.42-3.25-1.26s-1.2-2.02-1.2-3.54.4-2.79,1.21-3.66,1.86-1.3,3.15-1.3,2.27.42,3.06,1.27,1.19,2.04,1.19,3.59c0,.09,0,.23,0,.42h-6.96c.06,1.03.35,1.81.87,2.36s1.17.82,1.95.82c.58,0,1.08-.15,1.49-.46s.74-.79.98-1.46ZM693.05,477.86h5.21c-.07-.79-.27-1.37-.6-1.77-.5-.61-1.16-.91-1.96-.91-.73,0-1.34.24-1.83.73s-.77,1.14-.82,1.95Z"/>
    <path class="cls-12" d="M701.73,483.42v-9.33h1.42v1.42c.36-.66.7-1.1,1.01-1.31s.65-.32,1.01-.32c.53,0,1.08.17,1.63.51l-.54,1.47c-.39-.23-.77-.34-1.16-.34-.35,0-.66.1-.93.31s-.47.5-.59.87c-.18.56-.26,1.18-.26,1.85v4.89h-1.58Z"/>
    <path class="cls-12" d="M718.83,482.27c-.59.5-1.15.85-1.69,1.05s-1.12.31-1.75.31c-1.03,0-1.81-.25-2.36-.75s-.83-1.14-.83-1.92c0-.46.1-.88.31-1.25s.48-.68.82-.91.72-.4,1.14-.52c.31-.08.78-.16,1.41-.24,1.28-.15,2.22-.33,2.82-.54,0-.22,0-.35,0-.41,0-.64-.15-1.1-.45-1.36-.4-.36-1-.54-1.8-.54-.74,0-1.29.13-1.65.39s-.62.72-.79,1.38l-1.55-.21c.14-.66.37-1.2.69-1.6s.79-.72,1.4-.94,1.32-.33,2.12-.33,1.44.09,1.94.28.86.42,1.1.71.4.64.49,1.08c.05.27.08.76.08,1.46v2.11c0,1.47.03,2.4.1,2.79s.2.76.4,1.12h-1.65c-.16-.33-.27-.71-.32-1.15ZM718.7,478.74c-.57.23-1.44.43-2.58.6-.65.09-1.11.2-1.38.32s-.48.29-.62.51-.22.48-.22.75c0,.42.16.77.48,1.05s.79.42,1.4.42,1.15-.13,1.63-.4.82-.63,1.05-1.09c.17-.36.25-.88.25-1.58v-.58Z"/>
    <path class="cls-12" d="M722.3,484.2l1.54.23c.06.47.24.82.54,1.04.39.29.93.44,1.61.44.73,0,1.3-.15,1.7-.44s.67-.7.81-1.23c.08-.32.12-1,.11-2.03-.69.81-1.55,1.22-2.58,1.22-1.28,0-2.28-.46-2.98-1.39s-1.05-2.04-1.05-3.33c0-.89.16-1.71.48-2.47s.79-1.33,1.4-1.74,1.33-.62,2.16-.62c1.1,0,2.01.45,2.72,1.34v-1.12h1.46v8.07c0,1.45-.15,2.48-.44,3.09s-.76,1.09-1.41,1.44-1.43.53-2.37.53c-1.11,0-2.01-.25-2.7-.75s-1.02-1.25-.99-2.26ZM723.61,478.59c0,1.22.24,2.12.73,2.68s1.1.84,1.83.84,1.34-.28,1.83-.84.74-1.44.74-2.63-.25-2-.76-2.58-1.12-.87-1.83-.87-1.3.29-1.79.86-.74,1.42-.74,2.54Z"/>
    <path class="cls-12" d="M738.89,480.42l1.63.2c-.26.96-.74,1.7-1.43,2.22s-1.59.79-2.67.79c-1.37,0-2.45-.42-3.25-1.26s-1.2-2.02-1.2-3.54.4-2.79,1.21-3.66,1.86-1.3,3.15-1.3,2.27.42,3.06,1.27,1.19,2.04,1.19,3.59c0,.09,0,.23,0,.42h-6.96c.06,1.03.35,1.81.87,2.36s1.17.82,1.95.82c.58,0,1.08-.15,1.49-.46s.74-.79.98-1.46ZM733.7,477.86h5.21c-.07-.79-.27-1.37-.6-1.77-.5-.61-1.16-.91-1.96-.91-.73,0-1.34.24-1.83.73s-.77,1.14-.82,1.95Z"/>
    <path class="cls-12" d="M742.38,483.42v-9.33h1.42v1.33c.69-1.03,1.68-1.54,2.97-1.54.56,0,1.08.1,1.55.3s.82.47,1.06.8.4.72.49,1.17c.06.29.09.81.09,1.54v5.74h-1.58v-5.68c0-.64-.06-1.13-.18-1.45s-.34-.57-.65-.76-.68-.29-1.1-.29c-.67,0-1.25.21-1.74.64s-.73,1.24-.73,2.43v5.1h-1.58Z"/>
    <path class="cls-12" d="M755.54,482.01l.23,1.4c-.45.09-.84.14-1.2.14-.57,0-1.02-.09-1.34-.27s-.54-.42-.67-.72-.19-.92-.19-1.87v-5.37h-1.16v-1.23h1.16v-2.31l1.57-.95v3.26h1.59v1.23h-1.59v5.46c0,.45.03.74.08.87s.15.23.27.31.31.11.54.11c.18,0,.41-.02.69-.06Z"/>
    <path class="cls-12" d="M756.42,480.64l1.56-.25c.09.63.33,1.11.73,1.44s.96.5,1.68.5,1.27-.15,1.62-.44.53-.64.53-1.04c0-.36-.16-.64-.47-.84-.22-.14-.76-.32-1.62-.54-1.16-.29-1.96-.55-2.41-.76s-.79-.51-1.02-.89-.35-.79-.35-1.25c0-.42.09-.8.29-1.16s.45-.65.78-.88c.25-.18.58-.34,1.01-.46s.88-.19,1.37-.19c.73,0,1.38.11,1.93.32s.96.5,1.23.86.45.84.54,1.45l-1.55.21c-.07-.48-.27-.86-.61-1.12s-.81-.4-1.43-.4c-.73,0-1.25.12-1.56.36s-.47.52-.47.84c0,.21.06.39.19.55.13.17.33.31.61.42.16.06.62.19,1.4.4,1.12.3,1.9.54,2.34.73s.79.47,1.04.83.38.81.38,1.35-.15,1.02-.46,1.49-.75.83-1.33,1.08-1.24.38-1.97.38c-1.21,0-2.14-.25-2.77-.76s-1.04-1.25-1.22-2.24Z"/>
  </g>
  <line class="cls-1" x1="652.7" y1="461.82" x2="531.3" y2="362.5"/>
  <g>
    <path class="cls-12" d="M51.07,457.31l1.71.43c-.36,1.4-1,2.47-1.93,3.2s-2.06,1.1-3.41,1.1-2.52-.28-3.39-.85-1.53-1.38-1.99-2.46-.68-2.22-.68-3.45c0-1.34.26-2.51.77-3.51s1.24-1.76,2.19-2.28,1.99-.78,3.12-.78c1.29,0,2.37.33,3.25.98s1.49,1.58,1.84,2.77l-1.68.4c-.3-.94-.73-1.62-1.3-2.05s-1.28-.64-2.14-.64c-.99,0-1.82.24-2.48.71s-1.13,1.11-1.4,1.91-.4,1.62-.4,2.47c0,1.1.16,2.05.48,2.87s.82,1.43,1.49,1.83,1.4.61,2.19.61c.96,0,1.76-.28,2.43-.83s1.11-1.37,1.34-2.45Z"/>
    <path class="cls-12" d="M54.13,457.16c0-1.73.48-3.01,1.44-3.84.8-.69,1.78-1.04,2.94-1.04,1.28,0,2.33.42,3.15,1.26s1.22,2,1.22,3.49c0,1.2-.18,2.15-.54,2.83s-.88,1.22-1.57,1.6-1.44.57-2.25.57c-1.31,0-2.36-.42-3.17-1.26s-1.21-2.04-1.21-3.62ZM55.76,457.16c0,1.2.26,2.09.78,2.68s1.18.89,1.97.89,1.44-.3,1.96-.9.78-1.51.78-2.73c0-1.15-.26-2.03-.79-2.62s-1.18-.89-1.96-.89-1.45.3-1.97.89-.78,1.49-.78,2.68Z"/>
    <path class="cls-12" d="M64.64,461.82v-9.33h1.42v1.33c.69-1.03,1.68-1.54,2.97-1.54.56,0,1.08.1,1.55.3s.82.47,1.06.8.4.72.49,1.17c.06.29.09.81.09,1.54v5.74h-1.58v-5.68c0-.64-.06-1.13-.18-1.45s-.34-.57-.65-.76-.68-.29-1.1-.29c-.67,0-1.26.21-1.74.64s-.73,1.24-.73,2.43v5.1h-1.58Z"/>
    <path class="cls-12" d="M77.8,460.41l.23,1.4c-.45.09-.84.14-1.2.14-.57,0-1.02-.09-1.34-.27s-.54-.42-.67-.72-.19-.92-.19-1.87v-5.37h-1.16v-1.23h1.16v-2.31l1.57-.95v3.26h1.59v1.23h-1.59v5.46c0,.45.03.74.08.87s.15.23.27.31.31.11.54.11c.18,0,.41-.02.69-.06Z"/>
    <path class="cls-12" d="M79.28,461.82v-9.33h1.42v1.42c.36-.66.7-1.1,1.01-1.31s.65-.32,1.02-.32c.53,0,1.08.17,1.63.51l-.54,1.47c-.39-.23-.77-.34-1.16-.34-.35,0-.66.1-.93.31s-.47.5-.59.87c-.18.56-.26,1.18-.26,1.85v4.89h-1.58Z"/>
    <path class="cls-12" d="M84.6,457.16c0-1.73.48-3.01,1.44-3.84.8-.69,1.78-1.04,2.94-1.04,1.28,0,2.33.42,3.15,1.26s1.22,2,1.22,3.49c0,1.2-.18,2.15-.54,2.83s-.88,1.22-1.57,1.6-1.44.57-2.25.57c-1.31,0-2.36-.42-3.17-1.26s-1.21-2.04-1.21-3.62ZM86.23,457.16c0,1.2.26,2.09.78,2.68s1.18.89,1.97.89,1.44-.3,1.96-.9.78-1.51.78-2.73c0-1.15-.26-2.03-.79-2.62s-1.18-.89-1.96-.89-1.45.3-1.97.89-.78,1.49-.78,2.68Z"/>
    <path class="cls-12" d="M95.09,461.82v-12.88h1.58v12.88h-1.58Z"/>
    <path class="cls-12" d="M107.58,460.41l.23,1.4c-.45.09-.84.14-1.2.14-.57,0-1.02-.09-1.34-.27s-.54-.42-.67-.72-.19-.92-.19-1.87v-5.37h-1.16v-1.23h1.16v-2.31l1.57-.95v3.26h1.59v1.23h-1.59v5.46c0,.45.03.74.08.87s.15.23.27.31.31.11.54.11c.18,0,.41-.02.69-.06Z"/>
    <path class="cls-12" d="M109.07,461.82v-12.88h1.58v4.62c.74-.86,1.67-1.28,2.79-1.28.69,0,1.29.14,1.8.41s.87.65,1.09,1.13.33,1.18.33,2.09v5.92h-1.58v-5.92c0-.79-.17-1.37-.51-1.73s-.83-.54-1.45-.54c-.47,0-.91.12-1.32.36s-.71.57-.88.99-.26.99-.26,1.72v5.11h-1.58Z"/>
    <path class="cls-12" d="M125.33,458.82l1.63.2c-.26.96-.74,1.7-1.43,2.22s-1.59.79-2.67.79c-1.37,0-2.45-.42-3.25-1.26s-1.2-2.02-1.2-3.54.4-2.79,1.21-3.66,1.86-1.3,3.15-1.3,2.27.42,3.06,1.27,1.19,2.04,1.19,3.59c0,.09,0,.23,0,.42h-6.96c.06,1.03.35,1.81.87,2.36s1.17.82,1.95.82c.58,0,1.08-.15,1.49-.46s.74-.79.98-1.46ZM120.14,456.26h5.21c-.07-.79-.27-1.37-.6-1.77-.5-.61-1.16-.91-1.96-.91-.73,0-1.34.24-1.83.73s-.77,1.14-.82,1.95Z"/>
    <path class="cls-12" d="M140.34,458.82l1.63.2c-.26.96-.74,1.7-1.43,2.22s-1.59.79-2.67.79c-1.37,0-2.45-.42-3.25-1.26s-1.2-2.02-1.2-3.54.4-2.79,1.21-3.66,1.86-1.3,3.15-1.3,2.27.42,3.06,1.27,1.19,2.04,1.19,3.59c0,.09,0,.23,0,.42h-6.96c.06,1.03.35,1.81.87,2.36s1.17.82,1.95.82c.58,0,1.08-.15,1.49-.46s.74-.79.98-1.46ZM135.15,456.26h5.21c-.07-.79-.27-1.37-.6-1.77-.5-.61-1.16-.91-1.96-.91-.73,0-1.34.24-1.83.73s-.77,1.14-.82,1.95Z"/>
    <path class="cls-12" d="M142.39,461.82l3.41-4.85-3.16-4.48h1.98l1.43,2.19c.27.42.49.76.65,1.05.26-.39.5-.73.71-1.03l1.57-2.21h1.89l-3.23,4.39,3.47,4.94h-1.94l-1.92-2.9-.51-.78-2.45,3.68h-1.92Z"/>
    <path class="cls-12" d="M158.37,458.82l1.63.2c-.26.96-.74,1.7-1.43,2.22s-1.59.79-2.67.79c-1.37,0-2.45-.42-3.25-1.26s-1.2-2.02-1.2-3.54.4-2.79,1.21-3.66,1.86-1.3,3.15-1.3,2.27.42,3.06,1.27,1.19,2.04,1.19,3.59c0,.09,0,.23,0,.42h-6.96c.06,1.03.35,1.81.87,2.36s1.17.82,1.95.82c.58,0,1.08-.15,1.49-.46s.74-.79.98-1.46ZM153.17,456.26h5.21c-.07-.79-.27-1.37-.6-1.77-.5-.61-1.16-.91-1.96-.91-.73,0-1.34.24-1.83.73s-.77,1.14-.82,1.95Z"/>
    <path class="cls-12" d="M167.99,458.4l1.56.2c-.17,1.07-.6,1.91-1.31,2.52s-1.56.91-2.58.91c-1.28,0-2.3-.42-3.08-1.25s-1.16-2.03-1.16-3.59c0-1.01.17-1.89.5-2.65s.84-1.32,1.52-1.7,1.43-.57,2.23-.57c1.01,0,1.84.26,2.49.77s1.06,1.24,1.24,2.18l-1.54.24c-.15-.63-.41-1.1-.78-1.42s-.82-.47-1.35-.47c-.8,0-1.44.29-1.94.86s-.75,1.48-.75,2.71.24,2.17.72,2.73,1.11.85,1.88.85c.62,0,1.14-.19,1.56-.57s.68-.97.79-1.76Z"/>
    <path class="cls-12" d="M177.03,461.82v-1.37c-.73,1.05-1.71,1.58-2.96,1.58-.55,0-1.06-.11-1.54-.32s-.83-.48-1.06-.8-.39-.71-.49-1.17c-.06-.31-.1-.8-.1-1.48v-5.78h1.58v5.18c0,.83.03,1.38.1,1.67.1.42.31.74.63.98s.72.36,1.2.36.92-.12,1.34-.37.71-.57.88-.99.26-1.03.26-1.82v-5h1.58v9.33h-1.42Z"/>
    <path class="cls-12" d="M184.17,460.41l.23,1.4c-.45.09-.84.14-1.2.14-.57,0-1.02-.09-1.34-.27s-.54-.42-.67-.72-.19-.92-.19-1.87v-5.37h-1.16v-1.23h1.16v-2.31l1.57-.95v3.26h1.59v1.23h-1.59v5.46c0,.45.03.74.08.87s.15.23.27.31.31.11.54.11c.18,0,.41-.02.69-.06Z"/>
    <path class="cls-12" d="M185.66,450.76v-1.82h1.58v1.82h-1.58ZM185.66,461.82v-9.33h1.58v9.33h-1.58Z"/>
    <path class="cls-12" d="M189,457.16c0-1.73.48-3.01,1.44-3.84.8-.69,1.78-1.04,2.94-1.04,1.28,0,2.33.42,3.15,1.26s1.22,2,1.22,3.49c0,1.2-.18,2.15-.54,2.83s-.88,1.22-1.57,1.6-1.44.57-2.25.57c-1.31,0-2.36-.42-3.17-1.26s-1.21-2.04-1.21-3.62ZM190.62,457.16c0,1.2.26,2.09.78,2.68s1.18.89,1.97.89,1.44-.3,1.96-.9.78-1.51.78-2.73c0-1.15-.26-2.03-.79-2.62s-1.18-.89-1.96-.89-1.45.3-1.97.89-.78,1.49-.78,2.68Z"/>
    <path class="cls-12" d="M199.51,461.82v-9.33h1.42v1.33c.69-1.03,1.68-1.54,2.97-1.54.56,0,1.08.1,1.55.3s.82.47,1.06.8.4.72.49,1.17c.06.29.09.81.09,1.54v5.74h-1.58v-5.68c0-.64-.06-1.13-.18-1.45s-.34-.57-.65-.76-.68-.29-1.1-.29c-.67,0-1.26.21-1.74.64s-.73,1.24-.73,2.43v5.1h-1.58Z"/>
    <path class="cls-12" d="M95,478.76c0-1.73.48-3.01,1.44-3.84.8-.69,1.78-1.04,2.94-1.04,1.28,0,2.33.42,3.15,1.26s1.22,2,1.22,3.48c0,1.2-.18,2.15-.54,2.83s-.88,1.22-1.57,1.6-1.44.57-2.25.57c-1.31,0-2.36-.42-3.17-1.26s-1.21-2.04-1.21-3.62ZM96.63,478.76c0,1.2.26,2.09.78,2.69s1.18.89,1.97.89,1.44-.3,1.96-.9.78-1.51.78-2.73c0-1.15-.26-2.03-.79-2.62s-1.18-.89-1.96-.89-1.45.3-1.97.89-.78,1.49-.78,2.68Z"/>
    <path class="cls-12" d="M105.73,483.42v-8.1h-1.4v-1.23h1.4v-.99c0-.63.06-1.09.17-1.4.15-.41.42-.74.8-1s.92-.38,1.61-.38c.45,0,.94.05,1.48.16l-.24,1.38c-.33-.06-.64-.09-.93-.09-.48,0-.82.1-1.02.31s-.3.59-.3,1.15v.86h1.82v1.23h-1.82v8.1h-1.57Z"/>
    <path class="cls-12" d="M114.77,478.76c0-1.73.48-3.01,1.44-3.84.8-.69,1.78-1.04,2.94-1.04,1.28,0,2.33.42,3.15,1.26s1.22,2,1.22,3.48c0,1.2-.18,2.15-.54,2.83s-.88,1.22-1.57,1.6-1.44.57-2.25.57c-1.31,0-2.36-.42-3.17-1.26s-1.21-2.04-1.21-3.62ZM116.39,478.76c0,1.2.26,2.09.78,2.69s1.18.89,1.97.89,1.44-.3,1.96-.9.78-1.51.78-2.73c0-1.15-.26-2.03-.79-2.62s-1.18-.89-1.96-.89-1.45.3-1.97.89-.78,1.49-.78,2.68Z"/>
    <path class="cls-12" d="M126.85,483.42l-2.86-9.33h1.63l1.49,5.39.55,2c.02-.1.18-.74.48-1.92l1.49-5.47h1.63l1.4,5.41.47,1.78.54-1.8,1.6-5.4h1.54l-2.92,9.33h-1.64l-1.49-5.59-.36-1.59-1.89,7.18h-1.65Z"/>
    <path class="cls-12" d="M138.07,483.42v-9.33h1.42v1.33c.69-1.03,1.68-1.54,2.97-1.54.56,0,1.08.1,1.55.3s.82.47,1.06.79.4.72.49,1.17c.06.29.09.81.09,1.54v5.74h-1.58v-5.68c0-.64-.06-1.13-.18-1.45s-.34-.57-.65-.76-.68-.29-1.1-.29c-.67,0-1.26.21-1.74.64s-.73,1.24-.73,2.43v5.1h-1.58Z"/>
    <path class="cls-12" d="M159.17,482.27c-.59.5-1.15.85-1.69,1.05s-1.12.31-1.74.31c-1.03,0-1.81-.25-2.36-.75s-.83-1.14-.83-1.92c0-.46.1-.87.31-1.25s.48-.68.82-.91.72-.4,1.14-.52c.31-.08.78-.16,1.41-.24,1.28-.15,2.22-.33,2.82-.54,0-.22,0-.35,0-.41,0-.64-.15-1.1-.45-1.36-.4-.36-1-.54-1.8-.54-.74,0-1.29.13-1.65.39s-.62.72-.79,1.38l-1.55-.21c.14-.66.37-1.2.69-1.6s.79-.72,1.4-.94,1.32-.33,2.12-.33,1.44.09,1.94.28.86.42,1.1.71.4.64.49,1.08c.05.27.08.76.08,1.46v2.11c0,1.47.03,2.4.1,2.79s.2.76.4,1.12h-1.65c-.16-.33-.27-.71-.32-1.15ZM159.04,478.74c-.57.23-1.44.43-2.58.6-.65.09-1.11.2-1.38.32s-.48.29-.62.51-.22.48-.22.75c0,.42.16.77.48,1.05s.79.42,1.4.42,1.15-.13,1.63-.4.82-.63,1.05-1.09c.17-.36.25-.88.25-1.58v-.58Z"/>
    <path class="cls-12" d="M168.95,480l1.56.2c-.17,1.07-.6,1.91-1.31,2.52s-1.56.91-2.58.91c-1.28,0-2.3-.42-3.08-1.25s-1.16-2.03-1.16-3.59c0-1.01.17-1.89.5-2.65s.84-1.32,1.52-1.7,1.43-.57,2.23-.57c1.01,0,1.84.26,2.49.77s1.06,1.24,1.24,2.18l-1.54.24c-.15-.63-.41-1.1-.78-1.42s-.82-.47-1.35-.47c-.8,0-1.44.29-1.94.86s-.75,1.47-.75,2.71.24,2.17.72,2.73,1.11.85,1.88.85c.62,0,1.14-.19,1.56-.57s.68-.97.79-1.76Z"/>
    <path class="cls-12" d="M175.36,482.01l.23,1.4c-.45.09-.84.14-1.2.14-.57,0-1.02-.09-1.34-.27s-.54-.42-.67-.72-.19-.92-.19-1.87v-5.37h-1.16v-1.23h1.16v-2.31l1.57-.95v3.26h1.59v1.23h-1.59v5.46c0,.45.03.74.08.87s.15.23.27.31.31.11.54.11c.18,0,.41-.02.69-.06Z"/>
    <path class="cls-12" d="M176.85,472.36v-1.82h1.58v1.82h-1.58ZM176.85,483.42v-9.33h1.58v9.33h-1.58Z"/>
    <path class="cls-12" d="M180.18,478.76c0-1.73.48-3.01,1.44-3.84.8-.69,1.78-1.04,2.94-1.04,1.28,0,2.33.42,3.15,1.26s1.22,2,1.22,3.48c0,1.2-.18,2.15-.54,2.83s-.88,1.22-1.57,1.6-1.44.57-2.25.57c-1.31,0-2.36-.42-3.17-1.26s-1.21-2.04-1.21-3.62ZM181.81,478.76c0,1.2.26,2.09.78,2.69s1.18.89,1.97.89,1.44-.3,1.96-.9.78-1.51.78-2.73c0-1.15-.26-2.03-.79-2.62s-1.18-.89-1.96-.89-1.45.3-1.97.89-.78,1.49-.78,2.68Z"/>
    <path class="cls-12" d="M190.69,483.42v-9.33h1.42v1.33c.69-1.03,1.68-1.54,2.97-1.54.56,0,1.08.1,1.55.3s.82.47,1.06.79.4.72.49,1.17c.06.29.09.81.09,1.54v5.74h-1.58v-5.68c0-.64-.06-1.13-.18-1.45s-.34-.57-.65-.76-.68-.29-1.1-.29c-.67,0-1.26.21-1.74.64s-.73,1.24-.73,2.43v5.1h-1.58Z"/>
    <path class="cls-12" d="M199.89,480.64l1.56-.25c.09.63.33,1.11.73,1.44s.96.5,1.68.5,1.27-.15,1.62-.44.53-.64.53-1.04c0-.36-.16-.64-.47-.84-.22-.14-.76-.32-1.62-.54-1.16-.29-1.96-.55-2.41-.76s-.79-.51-1.02-.89-.35-.8-.35-1.25c0-.42.1-.8.29-1.16s.45-.65.78-.88c.25-.18.58-.33,1.01-.46s.88-.19,1.37-.19c.73,0,1.38.11,1.93.32s.96.5,1.23.86.45.84.54,1.45l-1.55.21c-.07-.48-.27-.86-.61-1.12s-.81-.4-1.43-.4c-.73,0-1.25.12-1.56.36s-.47.52-.47.84c0,.21.06.39.19.55.13.17.33.31.61.42.16.06.62.19,1.4.4,1.12.3,1.9.54,2.34.73s.79.47,1.04.83.38.81.38,1.35-.15,1.02-.46,1.49-.75.83-1.33,1.08-1.24.38-1.97.38c-1.21,0-2.14-.25-2.77-.76s-1.04-1.25-1.22-2.24Z"/>
  </g>
  <line class="cls-2" x1="221.23" y1="461.82" x2="331.3" y2="402.05"/>
  <g>
    <g>
      <path class="cls-12" d="M110.08,47.87v-12.88h9.32v1.52h-7.61v3.95h7.13v1.51h-7.13v4.38h7.91v1.52h-9.62Z"/>
      <path class="cls-12" d="M120.95,47.87l3.41-4.85-3.16-4.48h1.98l1.43,2.19c.27.42.49.77.65,1.05.26-.39.5-.73.71-1.03l1.57-2.21h1.89l-3.23,4.39,3.47,4.94h-1.94l-1.92-2.9-.51-.78-2.45,3.68h-1.92Z"/>
      <path class="cls-12" d="M134.72,46.45l.23,1.4c-.45.09-.84.14-1.2.14-.57,0-1.02-.09-1.34-.27s-.54-.42-.67-.72-.19-.92-.19-1.87v-5.37h-1.16v-1.23h1.16v-2.31l1.57-.95v3.26h1.59v1.23h-1.59v5.46c0,.45.03.74.08.87s.15.23.27.31.31.12.54.12c.18,0,.41-.02.69-.06Z"/>
      <path class="cls-12" d="M136.2,47.87v-9.33h1.42v1.41c.36-.66.7-1.1,1.01-1.31s.65-.32,1.02-.32c.53,0,1.08.17,1.63.51l-.54,1.47c-.39-.23-.77-.34-1.16-.34-.35,0-.66.1-.93.31s-.47.5-.59.87c-.18.56-.26,1.18-.26,1.85v4.89h-1.58Z"/>
      <path class="cls-12" d="M148.22,46.71c-.59.5-1.15.85-1.69,1.05s-1.12.31-1.74.31c-1.03,0-1.81-.25-2.36-.75s-.83-1.14-.83-1.92c0-.46.1-.88.31-1.25s.48-.68.82-.91.72-.4,1.14-.52c.31-.08.78-.16,1.41-.24,1.28-.15,2.22-.33,2.82-.54,0-.22,0-.36,0-.41,0-.64-.15-1.1-.45-1.36-.4-.36-1-.54-1.8-.54-.74,0-1.29.13-1.65.39s-.62.72-.79,1.38l-1.55-.21c.14-.66.37-1.2.69-1.6s.79-.72,1.4-.94,1.32-.33,2.12-.33,1.44.09,1.94.28.86.42,1.1.71.4.64.49,1.08c.05.27.08.76.08,1.46v2.11c0,1.47.03,2.4.1,2.79s.2.76.4,1.12h-1.65c-.16-.33-.27-.71-.32-1.15ZM148.09,43.18c-.57.23-1.44.43-2.58.6-.65.09-1.11.2-1.38.32s-.48.29-.62.51-.22.48-.22.75c0,.42.16.77.48,1.05s.79.42,1.4.42,1.15-.13,1.63-.4.82-.63,1.05-1.09c.17-.36.25-.88.25-1.58v-.58Z"/>
      <path class="cls-12" d="M158,44.45l1.56.2c-.17,1.07-.6,1.91-1.31,2.52s-1.56.91-2.58.91c-1.28,0-2.3-.42-3.08-1.25s-1.16-2.03-1.16-3.59c0-1.01.17-1.89.5-2.64s.84-1.32,1.52-1.7,1.43-.57,2.23-.57c1.01,0,1.84.26,2.49.77s1.06,1.24,1.24,2.18l-1.54.24c-.15-.63-.41-1.1-.78-1.41s-.82-.47-1.35-.47c-.8,0-1.44.29-1.94.86s-.75,1.48-.75,2.71.24,2.16.72,2.73,1.11.85,1.88.85c.62,0,1.14-.19,1.56-.57s.68-.97.79-1.76Z"/>
      <path class="cls-12" d="M164.41,46.45l.23,1.4c-.45.09-.84.14-1.2.14-.57,0-1.02-.09-1.34-.27s-.54-.42-.67-.72-.19-.92-.19-1.87v-5.37h-1.16v-1.23h1.16v-2.31l1.57-.95v3.26h1.59v1.23h-1.59v5.46c0,.45.03.74.08.87s.15.23.27.31.31.12.54.12c.18,0,.41-.02.69-.06Z"/>
      <path class="cls-12" d="M165.9,36.8v-1.82h1.58v1.82h-1.58ZM165.9,47.87v-9.33h1.58v9.33h-1.58Z"/>
      <path class="cls-12" d="M169.23,43.2c0-1.73.48-3.01,1.44-3.84.8-.69,1.78-1.04,2.94-1.04,1.28,0,2.33.42,3.15,1.26s1.22,2,1.22,3.49c0,1.2-.18,2.15-.54,2.83s-.88,1.22-1.57,1.6-1.44.57-2.25.57c-1.31,0-2.36-.42-3.17-1.26s-1.21-2.04-1.21-3.62ZM170.86,43.2c0,1.2.26,2.09.78,2.69s1.18.89,1.97.89,1.44-.3,1.96-.9.78-1.51.78-2.73c0-1.15-.26-2.03-.79-2.62s-1.18-.89-1.96-.89-1.45.3-1.97.89-.78,1.48-.78,2.68Z"/>
      <path class="cls-12" d="M179.74,47.87v-9.33h1.42v1.33c.69-1.03,1.68-1.54,2.97-1.54.56,0,1.08.1,1.55.3s.82.47,1.06.79.4.72.49,1.17c.06.29.09.8.09,1.54v5.74h-1.58v-5.68c0-.64-.06-1.13-.18-1.45s-.34-.57-.65-.76-.68-.29-1.1-.29c-.67,0-1.26.21-1.74.64s-.73,1.24-.73,2.44v5.1h-1.58Z"/>
      <path class="cls-12" d="M194.17,43.2c0-1.73.48-3.01,1.44-3.84.8-.69,1.78-1.04,2.94-1.04,1.28,0,2.33.42,3.15,1.26s1.22,2,1.22,3.49c0,1.2-.18,2.15-.54,2.83s-.88,1.22-1.57,1.6-1.44.57-2.25.57c-1.31,0-2.36-.42-3.17-1.26s-1.21-2.04-1.21-3.62ZM195.79,43.2c0,1.2.26,2.09.78,2.69s1.18.89,1.97.89,1.44-.3,1.96-.9.78-1.51.78-2.73c0-1.15-.26-2.03-.79-2.62s-1.18-.89-1.96-.89-1.45.3-1.97.89-.78,1.48-.78,2.68Z"/>
      <path class="cls-12" d="M204.9,47.87v-8.1h-1.4v-1.23h1.4v-.99c0-.63.06-1.09.17-1.4.15-.41.42-.74.8-1s.92-.38,1.61-.38c.45,0,.94.05,1.48.16l-.24,1.38c-.33-.06-.64-.09-.93-.09-.48,0-.82.1-1.02.31s-.3.59-.3,1.15v.86h1.82v1.23h-1.82v8.1h-1.57Z"/>
      <path class="cls-12" d="M66.7,69.47v-9.33h1.42v1.42c.36-.66.7-1.1,1.01-1.31s.65-.32,1.02-.32c.53,0,1.08.17,1.63.51l-.54,1.47c-.39-.23-.77-.34-1.16-.34-.35,0-.66.1-.93.31-.28.21-.47.5-.59.87-.18.56-.26,1.18-.26,1.85v4.89h-1.58Z"/>
      <path class="cls-12" d="M78.95,66.46l1.63.2c-.26.96-.74,1.7-1.43,2.22s-1.59.79-2.67.79c-1.37,0-2.45-.42-3.25-1.26-.8-.84-1.2-2.02-1.2-3.54s.4-2.79,1.21-3.66,1.86-1.3,3.15-1.3,2.27.42,3.06,1.27,1.19,2.04,1.19,3.59c0,.09,0,.23,0,.42h-6.96c.06,1.03.35,1.81.87,2.36s1.17.82,1.95.82c.58,0,1.08-.15,1.49-.46s.74-.79.98-1.46ZM73.75,63.9h5.21c-.07-.79-.27-1.37-.6-1.77-.5-.61-1.16-.91-1.96-.91-.73,0-1.34.24-1.83.73s-.77,1.14-.82,1.95Z"/>
      <path class="cls-12" d="M82.43,69.47v-12.88h1.58v12.88h-1.58Z"/>
      <path class="cls-12" d="M92.74,66.46l1.63.2c-.26.96-.74,1.7-1.43,2.22s-1.59.79-2.67.79c-1.37,0-2.45-.42-3.25-1.26-.8-.84-1.2-2.02-1.2-3.54s.4-2.79,1.21-3.66,1.86-1.3,3.15-1.3,2.27.42,3.06,1.27,1.19,2.04,1.19,3.59c0,.09,0,.23,0,.42h-6.96c.06,1.03.35,1.81.87,2.36s1.17.82,1.95.82c.58,0,1.08-.15,1.49-.46s.74-.79.98-1.46ZM87.55,63.9h5.21c-.07-.79-.27-1.37-.6-1.77-.5-.61-1.16-.91-1.96-.91-.73,0-1.34.24-1.83.73s-.77,1.14-.82,1.95Z"/>
      <path class="cls-12" d="M98.5,69.47l-3.55-9.33h1.67l2,5.59c.22.6.42,1.23.6,1.88.14-.49.34-1.08.59-1.78l2.07-5.7h1.63l-3.53,9.33h-1.48Z"/>
      <path class="cls-12" d="M110.62,68.31c-.59.5-1.15.85-1.69,1.05s-1.12.31-1.74.31c-1.03,0-1.81-.25-2.36-.75-.55-.5-.83-1.14-.83-1.92,0-.46.1-.88.31-1.25.21-.38.48-.68.82-.91s.72-.4,1.14-.52c.31-.08.78-.16,1.41-.24,1.28-.15,2.22-.33,2.82-.54,0-.22,0-.35,0-.41,0-.64-.15-1.1-.45-1.36-.4-.36-1-.54-1.8-.54-.74,0-1.29.13-1.65.39-.35.26-.62.72-.79,1.38l-1.55-.21c.14-.66.37-1.2.69-1.6.32-.41.79-.72,1.4-.94.61-.22,1.32-.33,2.12-.33s1.44.09,1.94.28.86.42,1.1.71c.23.29.4.64.49,1.08.05.27.08.76.08,1.46v2.11c0,1.47.03,2.4.1,2.79.07.39.2.76.4,1.12h-1.65c-.16-.33-.27-.71-.32-1.15ZM110.49,64.78c-.57.23-1.44.43-2.58.6-.65.09-1.11.2-1.38.32s-.48.29-.62.51c-.15.22-.22.48-.22.75,0,.42.16.77.48,1.05s.79.42,1.4.42,1.15-.13,1.63-.4c.47-.27.82-.63,1.05-1.09.17-.36.25-.88.25-1.58v-.58Z"/>
      <path class="cls-12" d="M114.37,69.47v-9.33h1.42v1.33c.69-1.03,1.68-1.54,2.97-1.54.56,0,1.08.1,1.55.3.47.2.82.47,1.06.8s.4.72.49,1.17c.06.29.09.81.09,1.54v5.74h-1.58v-5.68c0-.64-.06-1.13-.18-1.45-.12-.32-.34-.57-.65-.77-.31-.19-.68-.29-1.1-.29-.67,0-1.26.21-1.74.64s-.73,1.24-.73,2.43v5.1h-1.58Z"/>
      <path class="cls-12" d="M127.52,68.05l.23,1.4c-.45.09-.84.14-1.2.14-.57,0-1.02-.09-1.34-.27s-.54-.42-.67-.72c-.13-.3-.19-.92-.19-1.87v-5.37h-1.16v-1.23h1.16v-2.31l1.57-.95v3.26h1.59v1.23h-1.59v5.46c0,.45.03.74.08.87s.15.23.27.31.31.11.54.11c.18,0,.41-.02.69-.06Z"/>
      <path class="cls-12" d="M140.13,69.47v-1.18c-.59.93-1.46,1.39-2.61,1.39-.74,0-1.43-.21-2.05-.62s-1.11-.98-1.45-1.72c-.34-.73-.51-1.58-.51-2.54s.16-1.78.47-2.54c.31-.76.78-1.34,1.4-1.75s1.32-.61,2.08-.61c.56,0,1.06.12,1.5.36.44.24.8.55,1.07.93v-4.62h1.57v12.88h-1.47ZM135.13,64.81c0,1.2.25,2.09.76,2.68s1.1.89,1.78.89,1.28-.28,1.76-.85c.48-.57.73-1.43.73-2.59,0-1.28-.25-2.21-.74-2.81s-1.1-.9-1.82-.9-1.29.29-1.76.86-.71,1.48-.71,2.72Z"/>
      <path class="cls-12" d="M149.99,68.31c-.59.5-1.15.85-1.69,1.05s-1.12.31-1.74.31c-1.03,0-1.81-.25-2.36-.75-.55-.5-.83-1.14-.83-1.92,0-.46.1-.88.31-1.25.21-.38.48-.68.82-.91s.72-.4,1.14-.52c.31-.08.78-.16,1.41-.24,1.28-.15,2.22-.33,2.82-.54,0-.22,0-.35,0-.41,0-.64-.15-1.1-.45-1.36-.4-.36-1-.54-1.8-.54-.74,0-1.29.13-1.65.39-.35.26-.62.72-.79,1.38l-1.55-.21c.14-.66.37-1.2.69-1.6.32-.41.79-.72,1.4-.94.61-.22,1.32-.33,2.12-.33s1.44.09,1.94.28.86.42,1.1.71c.23.29.4.64.49,1.08.05.27.08.76.08,1.46v2.11c0,1.47.03,2.4.1,2.79.07.39.2.76.4,1.12h-1.65c-.16-.33-.27-.71-.32-1.15ZM149.86,64.78c-.57.23-1.44.43-2.58.6-.65.09-1.11.2-1.38.32s-.48.29-.62.51c-.15.22-.22.48-.22.75,0,.42.16.77.48,1.05s.79.42,1.4.42,1.15-.13,1.63-.4c.47-.27.82-.63,1.05-1.09.17-.36.25-.88.25-1.58v-.58Z"/>
      <path class="cls-12" d="M157.1,68.05l.23,1.4c-.45.09-.84.14-1.2.14-.57,0-1.02-.09-1.34-.27s-.54-.42-.67-.72c-.13-.3-.19-.92-.19-1.87v-5.37h-1.16v-1.23h1.16v-2.31l1.57-.95v3.26h1.59v1.23h-1.59v5.46c0,.45.03.74.08.87s.15.23.27.31.31.11.54.11c.18,0,.41-.02.69-.06Z"/>
      <path class="cls-12" d="M164.79,68.31c-.59.5-1.15.85-1.69,1.05s-1.12.31-1.74.31c-1.03,0-1.81-.25-2.36-.75-.55-.5-.83-1.14-.83-1.92,0-.46.1-.88.31-1.25.21-.38.48-.68.82-.91s.72-.4,1.14-.52c.31-.08.78-.16,1.41-.24,1.28-.15,2.22-.33,2.82-.54,0-.22,0-.35,0-.41,0-.64-.15-1.1-.45-1.36-.4-.36-1-.54-1.8-.54-.74,0-1.29.13-1.65.39-.35.26-.62.72-.79,1.38l-1.55-.21c.14-.66.37-1.2.69-1.6.32-.41.79-.72,1.4-.94.61-.22,1.32-.33,2.12-.33s1.44.09,1.94.28.86.42,1.1.71c.23.29.4.64.49,1.08.05.27.08.76.08,1.46v2.11c0,1.47.03,2.4.1,2.79.07.39.2.76.4,1.12h-1.65c-.16-.33-.27-.71-.32-1.15ZM164.66,64.78c-.57.23-1.44.43-2.58.6-.65.09-1.11.2-1.38.32s-.48.29-.62.51c-.15.22-.22.48-.22.75,0,.42.16.77.48,1.05s.79.42,1.4.42,1.15-.13,1.63-.4c.47-.27.82-.63,1.05-1.09.17-.36.25-.88.25-1.58v-.58Z"/>
      <path class="cls-12" d="M174.09,69.47v-8.1h-1.4v-1.23h1.4v-.99c0-.63.06-1.09.17-1.4.15-.41.42-.74.8-1,.38-.25.92-.38,1.61-.38.45,0,.94.05,1.48.16l-.24,1.38c-.33-.06-.64-.09-.93-.09-.48,0-.82.1-1.02.31s-.3.59-.3,1.15v.86h1.82v1.23h-1.82v8.1h-1.57Z"/>
      <path class="cls-12" d="M178.7,69.47v-9.33h1.42v1.42c.36-.66.7-1.1,1.01-1.31s.65-.32,1.02-.32c.53,0,1.08.17,1.63.51l-.54,1.47c-.39-.23-.77-.34-1.16-.34-.35,0-.66.1-.93.31-.28.21-.47.5-.59.87-.18.56-.26,1.18-.26,1.85v4.89h-1.58Z"/>
      <path class="cls-12" d="M184.01,64.8c0-1.73.48-3.01,1.44-3.84.8-.69,1.78-1.04,2.94-1.04,1.28,0,2.33.42,3.15,1.26.81.84,1.22,2,1.22,3.48,0,1.2-.18,2.15-.54,2.83-.36.69-.88,1.22-1.57,1.6s-1.44.57-2.25.57c-1.31,0-2.36-.42-3.17-1.26s-1.21-2.04-1.21-3.62ZM185.64,64.8c0,1.2.26,2.09.78,2.68.52.6,1.18.89,1.97.89s1.44-.3,1.96-.9.78-1.51.78-2.73c0-1.15-.26-2.03-.79-2.62-.52-.59-1.18-.89-1.96-.89s-1.45.3-1.97.89-.78,1.49-.78,2.68Z"/>
      <path class="cls-12" d="M194.53,69.47v-9.33h1.42v1.31c.29-.46.68-.83,1.17-1.1.49-.28,1.04-.42,1.66-.42.69,0,1.26.14,1.7.43s.75.69.94,1.2c.74-1.09,1.7-1.63,2.88-1.63.93,0,1.64.26,2.14.77.5.51.75,1.3.75,2.37v6.41h-1.57v-5.88c0-.63-.05-1.09-.15-1.37-.1-.28-.29-.5-.56-.67s-.59-.25-.95-.25c-.66,0-1.2.22-1.63.65-.43.44-.65,1.14-.65,2.1v5.42h-1.58v-6.06c0-.7-.13-1.23-.39-1.58s-.68-.53-1.27-.53c-.45,0-.86.12-1.23.35s-.65.58-.82,1.03-.25,1.1-.25,1.95v4.84h-1.58Z"/>
      <path class="cls-12" d="M61.77,89.65l.23,1.4c-.45.09-.84.14-1.2.14-.57,0-1.02-.09-1.34-.27s-.54-.42-.67-.72-.19-.92-.19-1.87v-5.37h-1.16v-1.23h1.16v-2.31l1.57-.95v3.26h1.59v1.23h-1.59v5.46c0,.45.03.74.08.87s.15.23.27.31.31.11.54.11c.18,0,.41-.02.69-.06Z"/>
      <path class="cls-12" d="M63.26,91.07v-12.88h1.58v4.62c.74-.86,1.67-1.28,2.79-1.28.69,0,1.29.14,1.8.41s.87.65,1.09,1.13.33,1.18.33,2.09v5.91h-1.58v-5.91c0-.79-.17-1.37-.51-1.73s-.83-.54-1.45-.54c-.47,0-.91.12-1.32.36s-.71.57-.88.99-.26.99-.26,1.72v5.11h-1.58Z"/>
      <path class="cls-12" d="M79.53,88.06l1.63.2c-.26.96-.74,1.7-1.43,2.22s-1.59.79-2.67.79c-1.37,0-2.45-.42-3.25-1.26s-1.2-2.02-1.2-3.54.4-2.79,1.21-3.66,1.86-1.3,3.15-1.3,2.27.43,3.06,1.28,1.19,2.04,1.19,3.59c0,.09,0,.23,0,.42h-6.96c.06,1.03.35,1.81.87,2.36s1.17.82,1.95.82c.58,0,1.08-.15,1.49-.46s.74-.79.98-1.46ZM74.33,85.5h5.21c-.07-.79-.27-1.38-.6-1.77-.5-.61-1.16-.91-1.96-.91-.73,0-1.34.24-1.83.73s-.77,1.14-.82,1.95Z"/>
      <path class="cls-12" d="M87.56,86.4c0-1.73.48-3.01,1.44-3.84.8-.69,1.78-1.04,2.94-1.04,1.28,0,2.33.42,3.15,1.26s1.22,2,1.22,3.48c0,1.2-.18,2.15-.54,2.83s-.88,1.22-1.57,1.6-1.44.57-2.25.57c-1.31,0-2.36-.42-3.17-1.26s-1.21-2.04-1.21-3.62ZM89.19,86.4c0,1.2.26,2.09.78,2.68s1.18.89,1.97.89,1.44-.3,1.96-.9.78-1.51.78-2.73c0-1.15-.26-2.03-.79-2.62s-1.18-.89-1.96-.89-1.45.29-1.97.89-.78,1.49-.78,2.68Z"/>
      <path class="cls-12" d="M99.53,91.07h-1.47v-12.88h1.58v4.6c.67-.84,1.52-1.26,2.56-1.26.57,0,1.12.12,1.63.35s.93.56,1.27.98.59.92.78,1.52.28,1.22.28,1.9c0,1.6-.4,2.84-1.19,3.71s-1.74,1.31-2.85,1.31-1.97-.46-2.59-1.38v1.17ZM99.51,86.33c0,1.12.15,1.93.46,2.43.5.81,1.17,1.22,2.02,1.22.69,0,1.29-.3,1.79-.9s.76-1.5.76-2.69-.24-2.12-.73-2.7-1.07-.87-1.75-.87-1.29.3-1.79.9-.76,1.47-.76,2.61Z"/>
      <path class="cls-12" d="M107.31,88.28l1.56-.25c.09.63.33,1.11.73,1.44s.96.5,1.68.5,1.27-.15,1.62-.44.53-.64.53-1.04c0-.36-.16-.64-.47-.84-.22-.14-.76-.32-1.62-.54-1.16-.29-1.96-.55-2.41-.76s-.79-.51-1.02-.89-.35-.8-.35-1.25c0-.42.1-.8.29-1.16s.45-.65.78-.88c.25-.18.58-.33,1.01-.46s.88-.19,1.37-.19c.73,0,1.38.11,1.93.32s.96.5,1.23.86.45.84.54,1.45l-1.55.21c-.07-.48-.27-.86-.61-1.12s-.81-.4-1.43-.4c-.73,0-1.25.12-1.56.36s-.47.52-.47.84c0,.21.06.39.19.55.13.17.33.31.61.42.16.06.62.19,1.4.4,1.12.3,1.9.54,2.34.73s.79.47,1.04.83.38.81.38,1.35-.15,1.02-.46,1.49-.75.83-1.33,1.08-1.24.38-1.97.38c-1.21,0-2.14-.25-2.77-.76s-1.04-1.25-1.22-2.24Z"/>
      <path class="cls-12" d="M123.2,88.06l1.63.2c-.26.96-.74,1.7-1.43,2.22s-1.59.79-2.67.79c-1.37,0-2.45-.42-3.25-1.26s-1.2-2.02-1.2-3.54.4-2.79,1.21-3.66,1.86-1.3,3.15-1.3,2.27.43,3.06,1.28,1.19,2.04,1.19,3.59c0,.09,0,.23,0,.42h-6.96c.06,1.03.35,1.81.87,2.36s1.17.82,1.95.82c.58,0,1.08-.15,1.49-.46s.74-.79.98-1.46ZM118,85.5h5.21c-.07-.79-.27-1.38-.6-1.77-.5-.61-1.16-.91-1.96-.91-.73,0-1.34.24-1.83.73s-.77,1.14-.82,1.95Z"/>
      <path class="cls-12" d="M126.68,91.07v-9.33h1.42v1.42c.36-.66.7-1.1,1.01-1.31s.65-.32,1.02-.32c.53,0,1.08.17,1.63.51l-.54,1.47c-.39-.23-.77-.34-1.16-.34-.35,0-.66.1-.93.31s-.47.5-.59.87c-.18.56-.26,1.18-.26,1.85v4.89h-1.58Z"/>
      <path class="cls-12" d="M135.87,91.07l-3.55-9.33h1.67l2,5.59c.22.6.42,1.23.6,1.88.14-.49.34-1.08.59-1.78l2.07-5.7h1.63l-3.53,9.33h-1.48Z"/>
      <path class="cls-12" d="M148.24,88.06l1.63.2c-.26.96-.74,1.7-1.43,2.22s-1.59.79-2.67.79c-1.37,0-2.45-.42-3.25-1.26s-1.2-2.02-1.2-3.54.4-2.79,1.21-3.66,1.86-1.3,3.15-1.3,2.27.43,3.06,1.28,1.19,2.04,1.19,3.59c0,.09,0,.23,0,.42h-6.96c.06,1.03.35,1.81.87,2.36s1.17.82,1.95.82c.58,0,1.08-.15,1.49-.46s.74-.79.98-1.46ZM143.05,85.5h5.21c-.07-.79-.27-1.38-.6-1.77-.5-.61-1.16-.91-1.96-.91-.73,0-1.34.24-1.83.73s-.77,1.14-.82,1.95Z"/>
      <path class="cls-12" d="M157.83,91.07v-1.18c-.59.93-1.46,1.39-2.61,1.39-.74,0-1.43-.21-2.05-.62s-1.11-.98-1.45-1.72-.51-1.58-.51-2.54.16-1.78.47-2.54.78-1.34,1.4-1.74,1.32-.61,2.08-.61c.56,0,1.06.12,1.5.36s.8.55,1.07.93v-4.62h1.57v12.88h-1.47ZM152.83,86.41c0,1.2.25,2.09.76,2.68s1.1.89,1.78.89,1.28-.28,1.76-.85.73-1.43.73-2.59c0-1.28-.25-2.21-.74-2.81s-1.1-.9-1.82-.9-1.29.29-1.76.86-.71,1.48-.71,2.71Z"/>
      <path class="cls-12" d="M168.51,91.07l-2.86-9.33h1.63l1.49,5.39.55,2c.02-.1.18-.74.48-1.93l1.49-5.47h1.63l1.4,5.41.47,1.79.54-1.8,1.6-5.4h1.54l-2.92,9.33h-1.64l-1.49-5.59-.36-1.59-1.89,7.18h-1.65Z"/>
      <path class="cls-12" d="M178.94,86.4c0-1.73.48-3.01,1.44-3.84.8-.69,1.78-1.04,2.94-1.04,1.28,0,2.33.42,3.15,1.26s1.22,2,1.22,3.48c0,1.2-.18,2.15-.54,2.83s-.88,1.22-1.57,1.6-1.44.57-2.25.57c-1.31,0-2.36-.42-3.17-1.26s-1.21-2.04-1.21-3.62ZM180.57,86.4c0,1.2.26,2.09.78,2.68s1.18.89,1.97.89,1.44-.3,1.96-.9.78-1.51.78-2.73c0-1.15-.26-2.03-.79-2.62s-1.18-.89-1.96-.89-1.45.29-1.97.89-.78,1.49-.78,2.68Z"/>
      <path class="cls-12" d="M189.45,91.07v-9.33h1.42v1.42c.36-.66.7-1.1,1.01-1.31s.65-.32,1.02-.32c.53,0,1.08.17,1.63.51l-.54,1.47c-.39-.23-.77-.34-1.16-.34-.35,0-.66.1-.93.31s-.47.5-.59.87c-.18.56-.26,1.18-.26,1.85v4.89h-1.58Z"/>
      <path class="cls-12" d="M195.57,91.07v-12.88h1.58v12.88h-1.58Z"/>
      <path class="cls-12" d="M205.56,91.07v-1.18c-.59.93-1.46,1.39-2.61,1.39-.74,0-1.43-.21-2.05-.62s-1.11-.98-1.45-1.72-.51-1.58-.51-2.54.16-1.78.47-2.54.78-1.34,1.4-1.74,1.32-.61,2.08-.61c.56,0,1.06.12,1.5.36s.8.55,1.07.93v-4.62h1.57v12.88h-1.47ZM200.56,86.41c0,1.2.25,2.09.76,2.68s1.1.89,1.78.89,1.28-.28,1.76-.85.73-1.43.73-2.59c0-1.28-.25-2.21-.74-2.81s-1.1-.9-1.82-.9-1.29.29-1.76.86-.71,1.48-.71,2.71Z"/>
    </g>
    <line class="cls-3" x1="221.23" y1="62.5" x2="331.3" y2="122.95"/>
  </g>
  <g class="cls-13">
    <g>
      <line class="cls-5" x1="598.15" y1="258.88" x2="765.54" y2="258.88"/>
      <polygon points="599.6 263.86 590.97 258.88 599.6 253.89 599.6 263.86"/>
      <polygon points="764.08 263.86 772.72 258.88 764.08 253.89 764.08 263.86"/>
    </g>
  </g>
  <g>
    <line class="cls-8" x1="431.3" y1="162.5" x2="433.12" y2="161.68"/>
    <line class="cls-7" x1="436.81" y1="160.01" x2="649.04" y2="64.16"/>
    <line class="cls-8" x1="650.88" y1="63.32" x2="652.7" y2="62.5"/>
  </g>
  <g>
    <path class="cls-12" d="M667.52,47.87v-12.88h5.71c1.15,0,2.02.12,2.62.35s1.08.64,1.43,1.23.54,1.23.54,1.94c0,.91-.3,1.68-.89,2.31s-1.51,1.03-2.74,1.2c.45.22.79.43,1.03.64.5.46.97,1.03,1.42,1.71l2.24,3.51h-2.14l-1.71-2.68c-.5-.77-.91-1.37-1.23-1.78s-.61-.7-.87-.86-.51-.28-.78-.34c-.19-.04-.51-.06-.95-.06h-1.98v5.72h-1.71ZM669.23,40.67h3.67c.78,0,1.39-.08,1.83-.24s.77-.42,1-.77.34-.74.34-1.16c0-.61-.22-1.11-.66-1.5s-1.14-.59-2.1-.59h-4.08v4.26Z"/>
    <path class="cls-12" d="M686.32,44.86l1.63.2c-.26.96-.74,1.7-1.43,2.22s-1.59.79-2.67.79c-1.37,0-2.45-.42-3.25-1.26s-1.2-2.02-1.2-3.54.4-2.79,1.21-3.66,1.86-1.3,3.15-1.3,2.27.42,3.06,1.27,1.19,2.04,1.19,3.59c0,.09,0,.23,0,.42h-6.96c.06,1.03.35,1.81.87,2.36s1.17.82,1.95.82c.58,0,1.08-.15,1.49-.46s.74-.79.98-1.46ZM681.12,42.3h5.21c-.07-.79-.27-1.37-.6-1.77-.5-.61-1.16-.91-1.96-.91-.73,0-1.34.24-1.83.73s-.77,1.14-.82,1.95Z"/>
    <path class="cls-12" d="M695.9,46.71c-.59.5-1.15.85-1.69,1.05s-1.12.31-1.74.31c-1.03,0-1.81-.25-2.36-.75s-.83-1.14-.83-1.92c0-.46.1-.87.31-1.25s.48-.68.82-.91.72-.4,1.14-.52c.31-.08.78-.16,1.41-.24,1.28-.15,2.22-.33,2.82-.54,0-.22,0-.35,0-.41,0-.64-.15-1.1-.45-1.36-.4-.36-1-.54-1.8-.54-.74,0-1.29.13-1.65.39s-.62.72-.79,1.38l-1.55-.21c.14-.66.37-1.2.69-1.6s.79-.72,1.4-.94,1.32-.33,2.12-.33,1.44.09,1.94.28.86.42,1.1.71.4.64.49,1.08c.05.27.08.76.08,1.46v2.11c0,1.47.03,2.4.1,2.79s.2.76.4,1.12h-1.65c-.16-.33-.27-.71-.32-1.15ZM695.77,43.18c-.57.23-1.44.43-2.58.6-.65.09-1.11.2-1.38.32s-.48.29-.62.51-.22.48-.22.75c0,.42.16.77.48,1.05s.79.42,1.4.42,1.15-.13,1.63-.4.82-.63,1.05-1.09c.17-.36.25-.88.25-1.58v-.58Z"/>
    <path class="cls-12" d="M699,45.08l1.56-.25c.09.63.33,1.11.73,1.44s.96.5,1.68.5,1.27-.15,1.62-.44.53-.64.53-1.04c0-.36-.16-.64-.47-.84-.22-.14-.76-.32-1.62-.54-1.16-.29-1.96-.55-2.41-.76s-.79-.51-1.02-.89-.35-.8-.35-1.25c0-.42.1-.8.29-1.16s.45-.65.78-.88c.25-.18.58-.33,1.01-.46s.88-.19,1.37-.19c.73,0,1.38.11,1.93.32s.96.5,1.23.86.45.84.54,1.45l-1.55.21c-.07-.48-.27-.86-.61-1.12s-.81-.4-1.43-.4c-.73,0-1.25.12-1.56.36s-.47.52-.47.84c0,.21.06.39.19.55.13.17.33.31.61.42.16.06.62.19,1.4.4,1.12.3,1.9.54,2.34.73s.79.47,1.04.83.38.81.38,1.35-.15,1.02-.46,1.49-.75.83-1.33,1.08-1.24.38-1.97.38c-1.21,0-2.14-.25-2.77-.76s-1.04-1.25-1.22-2.24Z"/>
    <path class="cls-12" d="M707.94,43.2c0-1.73.48-3.01,1.44-3.84.8-.69,1.78-1.04,2.94-1.04,1.28,0,2.33.42,3.15,1.26s1.22,2,1.22,3.48c0,1.2-.18,2.15-.54,2.83s-.88,1.22-1.57,1.6-1.44.57-2.25.57c-1.31,0-2.36-.42-3.17-1.26s-1.21-2.04-1.21-3.62ZM709.56,43.2c0,1.2.26,2.09.78,2.69s1.18.89,1.97.89,1.44-.3,1.96-.9.78-1.51.78-2.73c0-1.15-.26-2.03-.79-2.62s-1.18-.89-1.96-.89-1.45.3-1.97.89-.78,1.49-.78,2.68Z"/>
    <path class="cls-12" d="M718.45,47.87v-9.33h1.42v1.33c.69-1.03,1.68-1.54,2.97-1.54.56,0,1.08.1,1.55.3s.82.47,1.06.79.4.72.49,1.17c.06.29.09.81.09,1.54v5.74h-1.58v-5.68c0-.64-.06-1.13-.18-1.45s-.34-.57-.65-.76-.68-.29-1.1-.29c-.67,0-1.26.21-1.74.64s-.73,1.24-.73,2.43v5.1h-1.58Z"/>
    <path class="cls-12" d="M728.28,36.8v-1.82h1.58v1.82h-1.58ZM728.28,47.87v-9.33h1.58v9.33h-1.58Z"/>
    <path class="cls-12" d="M732.09,47.87v-9.33h1.42v1.33c.69-1.03,1.68-1.54,2.97-1.54.56,0,1.08.1,1.55.3s.82.47,1.06.79.4.72.49,1.17c.06.29.09.81.09,1.54v5.74h-1.58v-5.68c0-.64-.06-1.13-.18-1.45s-.34-.57-.65-.76-.68-.29-1.1-.29c-.67,0-1.26.21-1.74.64s-.73,1.24-.73,2.43v5.1h-1.58Z"/>
    <path class="cls-12" d="M741.68,48.64l1.54.23c.06.47.24.82.54,1.04.39.29.93.44,1.61.44.73,0,1.3-.15,1.7-.44s.67-.7.81-1.23c.08-.32.12-1,.11-2.03-.69.81-1.55,1.22-2.58,1.22-1.28,0-2.28-.46-2.98-1.39s-1.05-2.04-1.05-3.33c0-.89.16-1.71.48-2.46s.79-1.33,1.4-1.75,1.33-.62,2.16-.62c1.1,0,2.01.45,2.72,1.34v-1.12h1.46v8.07c0,1.45-.15,2.48-.44,3.09s-.76,1.08-1.41,1.44-1.43.53-2.37.53c-1.11,0-2.01-.25-2.7-.75s-1.02-1.26-.99-2.26ZM742.99,43.03c0,1.22.24,2.12.73,2.68s1.1.84,1.83.84,1.34-.28,1.83-.84.74-1.44.74-2.63-.25-2-.76-2.58-1.12-.87-1.83-.87-1.3.29-1.79.86-.74,1.42-.74,2.54Z"/>
    <path class="cls-12" d="M763.07,46.71c-.59.5-1.15.85-1.69,1.05s-1.12.31-1.74.31c-1.03,0-1.81-.25-2.36-.75s-.83-1.14-.83-1.92c0-.46.1-.87.31-1.25s.48-.68.82-.91.72-.4,1.14-.52c.31-.08.78-.16,1.41-.24,1.28-.15,2.22-.33,2.82-.54,0-.22,0-.35,0-.41,0-.64-.15-1.1-.45-1.36-.4-.36-1-.54-1.8-.54-.74,0-1.29.13-1.65.39s-.62.72-.79,1.38l-1.55-.21c.14-.66.37-1.2.69-1.6s.79-.72,1.4-.94,1.32-.33,2.12-.33,1.44.09,1.94.28.86.42,1.1.71.4.64.49,1.08c.05.27.08.76.08,1.46v2.11c0,1.47.03,2.4.1,2.79s.2.76.4,1.12h-1.65c-.16-.33-.27-.71-.32-1.15ZM762.94,43.18c-.57.23-1.44.43-2.58.6-.65.09-1.11.2-1.38.32s-.48.29-.62.51-.22.48-.22.75c0,.42.16.77.48,1.05s.79.42,1.4.42,1.15-.13,1.63-.4.82-.63,1.05-1.09c.17-.36.25-.88.25-1.58v-.58Z"/>
    <path class="cls-12" d="M768.28,47.87h-1.47v-12.88h1.58v4.6c.67-.84,1.52-1.26,2.56-1.26.57,0,1.12.12,1.63.35s.93.56,1.27.98.59.92.78,1.52.28,1.22.28,1.9c0,1.6-.4,2.84-1.19,3.71s-1.74,1.31-2.85,1.31-1.97-.46-2.59-1.38v1.17ZM768.26,43.13c0,1.12.15,1.93.46,2.43.5.81,1.17,1.22,2.02,1.22.69,0,1.29-.3,1.79-.9s.76-1.5.76-2.69-.24-2.12-.73-2.7-1.07-.87-1.75-.87-1.29.3-1.79.9-.76,1.47-.76,2.61Z"/>
    <path class="cls-12" d="M776.17,43.2c0-1.73.48-3.01,1.44-3.84.8-.69,1.78-1.04,2.94-1.04,1.28,0,2.33.42,3.15,1.26s1.22,2,1.22,3.48c0,1.2-.18,2.15-.54,2.83s-.88,1.22-1.57,1.6-1.44.57-2.25.57c-1.31,0-2.36-.42-3.17-1.26s-1.21-2.04-1.21-3.62ZM777.8,43.2c0,1.2.26,2.09.78,2.69s1.18.89,1.97.89,1.44-.3,1.96-.9.78-1.51.78-2.73c0-1.15-.26-2.03-.79-2.62s-1.18-.89-1.96-.89-1.45.3-1.97.89-.78,1.49-.78,2.68Z"/>
    <path class="cls-12" d="M792.76,47.87v-1.37c-.73,1.05-1.71,1.58-2.96,1.58-.55,0-1.06-.11-1.54-.32s-.83-.48-1.06-.79-.39-.71-.49-1.17c-.06-.31-.1-.8-.1-1.48v-5.78h1.58v5.18c0,.83.03,1.38.1,1.67.1.42.31.74.63.98s.72.36,1.2.36.92-.12,1.34-.36.71-.57.88-.99.26-1.03.26-1.82v-5h1.58v9.33h-1.42Z"/>
    <path class="cls-12" d="M799.91,46.45l.23,1.4c-.45.09-.84.14-1.2.14-.57,0-1.02-.09-1.34-.27s-.54-.42-.67-.72-.19-.92-.19-1.87v-5.37h-1.16v-1.23h1.16v-2.31l1.57-.95v3.26h1.59v1.23h-1.59v5.46c0,.45.03.74.08.87s.15.23.27.31.31.11.54.11c.18,0,.41-.02.69-.06Z"/>
    <path class="cls-12" d="M809.91,46.45l.23,1.4c-.45.09-.84.14-1.2.14-.57,0-1.02-.09-1.34-.27s-.54-.42-.67-.72-.19-.92-.19-1.87v-5.37h-1.16v-1.23h1.16v-2.31l1.57-.95v3.26h1.59v1.23h-1.59v5.46c0,.45.03.74.08.87s.15.23.27.31.31.11.54.11c.18,0,.41-.02.69-.06Z"/>
    <path class="cls-12" d="M811.4,47.87v-12.88h1.58v4.62c.74-.86,1.67-1.28,2.79-1.28.69,0,1.29.14,1.8.41s.87.65,1.09,1.13.33,1.18.33,2.09v5.92h-1.58v-5.92c0-.79-.17-1.37-.51-1.73s-.83-.54-1.45-.54c-.47,0-.91.12-1.32.37s-.71.57-.88.99-.26.99-.26,1.72v5.11h-1.58Z"/>
    <path class="cls-12" d="M827.66,44.86l1.63.2c-.26.96-.74,1.7-1.43,2.22s-1.59.79-2.67.79c-1.37,0-2.45-.42-3.25-1.26s-1.2-2.02-1.2-3.54.4-2.79,1.21-3.66,1.86-1.3,3.15-1.3,2.27.42,3.06,1.27,1.19,2.04,1.19,3.59c0,.09,0,.23,0,.42h-6.96c.06,1.03.35,1.81.87,2.36s1.17.82,1.95.82c.58,0,1.08-.15,1.49-.46s.74-.79.98-1.46ZM822.47,42.3h5.21c-.07-.79-.27-1.37-.6-1.77-.5-.61-1.16-.91-1.96-.91-.73,0-1.34.24-1.83.73s-.77,1.14-.82,1.95Z"/>
    <path class="cls-12" d="M838.01,47.87l-2.86-9.33h1.63l1.49,5.39.55,2c.02-.1.18-.74.48-1.92l1.49-5.47h1.63l1.4,5.41.47,1.78.54-1.8,1.6-5.4h1.54l-2.92,9.33h-1.64l-1.49-5.59-.36-1.59-1.89,7.18h-1.65Z"/>
    <path class="cls-12" d="M848.43,43.2c0-1.73.48-3.01,1.44-3.84.8-.69,1.78-1.04,2.94-1.04,1.28,0,2.33.42,3.15,1.26s1.22,2,1.22,3.48c0,1.2-.18,2.15-.54,2.83s-.88,1.22-1.57,1.6-1.44.57-2.25.57c-1.31,0-2.36-.42-3.17-1.26s-1.21-2.04-1.21-3.62ZM850.06,43.2c0,1.2.26,2.09.78,2.69s1.18.89,1.97.89,1.44-.3,1.96-.9.78-1.51.78-2.73c0-1.15-.26-2.03-.79-2.62s-1.18-.89-1.96-.89-1.45.3-1.97.89-.78,1.49-.78,2.68Z"/>
    <path class="cls-12" d="M858.94,47.87v-9.33h1.42v1.42c.36-.66.7-1.1,1.01-1.31s.65-.32,1.02-.32c.53,0,1.08.17,1.63.51l-.54,1.47c-.39-.23-.77-.34-1.16-.34-.35,0-.66.1-.93.31s-.47.5-.59.87c-.18.56-.26,1.18-.26,1.85v4.89h-1.58Z"/>
    <path class="cls-12" d="M865.07,47.87v-12.88h1.58v12.88h-1.58Z"/>
    <path class="cls-12" d="M875.06,47.87v-1.18c-.59.93-1.46,1.39-2.61,1.39-.74,0-1.43-.21-2.05-.62s-1.11-.98-1.45-1.72-.51-1.58-.51-2.54.16-1.78.47-2.54.78-1.34,1.4-1.75,1.32-.61,2.08-.61c.56,0,1.06.12,1.5.36s.8.55,1.07.93v-4.62h1.57v12.88h-1.47ZM870.06,43.21c0,1.2.25,2.09.76,2.68s1.1.89,1.78.89,1.28-.28,1.76-.85.73-1.43.73-2.59c0-1.28-.25-2.21-.74-2.81s-1.1-.9-1.82-.9-1.29.29-1.76.86-.71,1.48-.71,2.72Z"/>
    <path class="cls-12" d="M673.38,68.31c-.59.5-1.15.85-1.69,1.05s-1.12.31-1.74.31c-1.03,0-1.81-.25-2.36-.75s-.83-1.14-.83-1.92c0-.46.1-.88.31-1.25s.48-.68.82-.91.72-.4,1.14-.52c.31-.08.78-.16,1.41-.24,1.28-.15,2.22-.33,2.82-.54,0-.22,0-.35,0-.41,0-.64-.15-1.1-.45-1.36-.4-.36-1-.54-1.8-.54-.74,0-1.29.13-1.65.39s-.62.72-.79,1.38l-1.55-.21c.14-.66.37-1.2.69-1.6s.79-.72,1.4-.94,1.32-.33,2.12-.33,1.44.09,1.94.28.86.42,1.1.71.4.64.49,1.08c.05.27.08.76.08,1.46v2.11c0,1.47.03,2.4.1,2.79s.2.76.4,1.12h-1.65c-.16-.33-.27-.71-.32-1.15ZM673.25,64.78c-.57.23-1.44.43-2.58.6-.65.09-1.11.2-1.38.32s-.48.29-.62.51-.22.48-.22.75c0,.42.16.77.48,1.05s.79.42,1.4.42,1.15-.13,1.63-.4.82-.63,1.05-1.09c.17-.36.25-.88.25-1.58v-.58Z"/>
    <path class="cls-12" d="M677.13,69.47v-9.33h1.42v1.33c.69-1.03,1.68-1.54,2.97-1.54.56,0,1.08.1,1.55.3s.82.47,1.06.8.4.72.49,1.17c.06.29.09.81.09,1.54v5.74h-1.58v-5.68c0-.64-.06-1.13-.18-1.45s-.34-.57-.65-.76-.68-.29-1.1-.29c-.67,0-1.26.21-1.74.64s-.73,1.24-.73,2.43v5.1h-1.58Z"/>
    <path class="cls-12" d="M693.07,69.47v-1.18c-.59.93-1.46,1.39-2.61,1.39-.74,0-1.43-.21-2.05-.62s-1.11-.98-1.45-1.72-.51-1.58-.51-2.54.16-1.78.47-2.54.78-1.34,1.4-1.74,1.32-.61,2.08-.61c.56,0,1.06.12,1.5.36s.8.55,1.07.93v-4.62h1.57v12.88h-1.47ZM688.07,64.81c0,1.2.25,2.09.76,2.68s1.1.89,1.78.89,1.28-.28,1.76-.85.73-1.43.73-2.59c0-1.28-.25-2.21-.74-2.81s-1.1-.9-1.82-.9-1.29.29-1.76.86-.71,1.48-.71,2.72Z"/>
    <path class="cls-12" d="M702.03,69.47v-9.33h1.42v1.31c.29-.46.68-.83,1.17-1.1s1.04-.42,1.66-.42c.69,0,1.26.14,1.7.43s.75.69.94,1.2c.74-1.09,1.7-1.63,2.88-1.63.93,0,1.64.26,2.14.77s.75,1.3.75,2.37v6.41h-1.57v-5.88c0-.63-.05-1.09-.15-1.37s-.29-.5-.56-.67-.59-.25-.95-.25c-.66,0-1.2.22-1.63.65s-.65,1.14-.65,2.1v5.42h-1.58v-6.06c0-.7-.13-1.23-.39-1.58s-.68-.53-1.27-.53c-.45,0-.86.12-1.23.35s-.65.58-.82,1.03-.25,1.1-.25,1.95v4.84h-1.58Z"/>
    <path class="cls-12" d="M722.98,68.31c-.59.5-1.15.85-1.69,1.05s-1.12.31-1.74.31c-1.03,0-1.81-.25-2.36-.75s-.83-1.14-.83-1.92c0-.46.1-.88.31-1.25s.48-.68.82-.91.72-.4,1.14-.52c.31-.08.78-.16,1.41-.24,1.28-.15,2.22-.33,2.82-.54,0-.22,0-.35,0-.41,0-.64-.15-1.1-.45-1.36-.4-.36-1-.54-1.8-.54-.74,0-1.29.13-1.65.39s-.62.72-.79,1.38l-1.55-.21c.14-.66.37-1.2.69-1.6s.79-.72,1.4-.94,1.32-.33,2.12-.33,1.44.09,1.94.28.86.42,1.1.71.4.64.49,1.08c.05.27.08.76.08,1.46v2.11c0,1.47.03,2.4.1,2.79s.2.76.4,1.12h-1.65c-.16-.33-.27-.71-.32-1.15ZM722.85,64.78c-.57.23-1.44.43-2.58.6-.65.09-1.11.2-1.38.32s-.48.29-.62.51-.22.48-.22.75c0,.42.16.77.48,1.05s.79.42,1.4.42,1.15-.13,1.63-.4.82-.63,1.05-1.09c.17-.36.25-.88.25-1.58v-.58Z"/>
    <path class="cls-12" d="M726.73,69.47v-12.88h1.58v7.35l3.74-3.8h2.05l-3.57,3.46,3.93,5.87h-1.95l-3.08-4.77-1.12,1.07v3.7h-1.58Z"/>
    <path class="cls-12" d="M735.7,58.4v-1.82h1.58v1.82h-1.58ZM735.7,69.47v-9.33h1.58v9.33h-1.58Z"/>
    <path class="cls-12" d="M739.52,69.47v-9.33h1.42v1.33c.69-1.03,1.68-1.54,2.97-1.54.56,0,1.08.1,1.55.3s.82.47,1.06.8.4.72.49,1.17c.06.29.09.81.09,1.54v5.74h-1.58v-5.68c0-.64-.06-1.13-.18-1.45s-.34-.57-.65-.76-.68-.29-1.1-.29c-.67,0-1.26.21-1.74.64s-.73,1.24-.73,2.43v5.1h-1.58Z"/>
    <path class="cls-12" d="M749.1,70.24l1.54.23c.06.47.24.82.54,1.04.39.29.93.44,1.61.44.73,0,1.3-.15,1.7-.44s.67-.7.81-1.23c.08-.32.12-1,.11-2.03-.69.81-1.55,1.22-2.58,1.22-1.28,0-2.28-.46-2.98-1.39s-1.05-2.04-1.05-3.33c0-.89.16-1.71.48-2.47s.79-1.33,1.4-1.74,1.33-.62,2.16-.62c1.1,0,2.01.45,2.72,1.34v-1.12h1.46v8.07c0,1.45-.15,2.48-.44,3.09s-.76,1.09-1.41,1.44-1.43.53-2.37.53c-1.11,0-2.01-.25-2.7-.75s-1.02-1.25-.99-2.26ZM750.41,64.63c0,1.22.24,2.12.73,2.68s1.1.84,1.83.84,1.34-.28,1.83-.84.74-1.44.74-2.63-.25-2-.76-2.58-1.12-.87-1.83-.87-1.3.29-1.79.86-.74,1.42-.74,2.54Z"/>
    <path class="cls-12" d="M770.46,69.47v-1.18c-.59.93-1.46,1.39-2.61,1.39-.74,0-1.43-.21-2.05-.62s-1.11-.98-1.45-1.72-.51-1.58-.51-2.54.16-1.78.47-2.54.78-1.34,1.4-1.74,1.32-.61,2.08-.61c.56,0,1.06.12,1.5.36s.8.55,1.07.93v-4.62h1.57v12.88h-1.47ZM765.46,64.81c0,1.2.25,2.09.76,2.68s1.1.89,1.78.89,1.28-.28,1.76-.85.73-1.43.73-2.59c0-1.28-.25-2.21-.74-2.81s-1.1-.9-1.82-.9-1.29.29-1.76.86-.71,1.48-.71,2.72Z"/>
    <path class="cls-12" d="M780.65,66.46l1.63.2c-.26.96-.74,1.7-1.43,2.22s-1.59.79-2.67.79c-1.37,0-2.45-.42-3.25-1.26s-1.2-2.02-1.2-3.54.4-2.79,1.21-3.66,1.86-1.3,3.15-1.3,2.27.42,3.06,1.27,1.19,2.04,1.19,3.59c0,.09,0,.23,0,.42h-6.96c.06,1.03.35,1.81.87,2.36s1.17.82,1.95.82c.58,0,1.08-.15,1.49-.46s.74-.79.98-1.46ZM775.46,63.9h5.21c-.07-.79-.27-1.37-.6-1.77-.5-.61-1.16-.91-1.96-.91-.73,0-1.34.24-1.83.73s-.77,1.14-.82,1.95Z"/>
    <path class="cls-12" d="M790.27,66.05l1.56.2c-.17,1.07-.6,1.91-1.31,2.52s-1.56.91-2.58.91c-1.28,0-2.3-.42-3.08-1.25s-1.16-2.03-1.16-3.59c0-1.01.17-1.89.5-2.65s.84-1.32,1.52-1.7,1.43-.57,2.23-.57c1.01,0,1.84.26,2.49.77s1.06,1.24,1.24,2.18l-1.54.24c-.15-.63-.41-1.1-.78-1.42s-.82-.47-1.35-.47c-.8,0-1.44.29-1.94.86s-.75,1.48-.75,2.71.24,2.17.72,2.73,1.11.85,1.88.85c.62,0,1.14-.19,1.56-.57s.68-.97.79-1.76Z"/>
    <path class="cls-12" d="M793.24,58.4v-1.82h1.58v1.82h-1.58ZM793.24,69.47v-9.33h1.58v9.33h-1.58Z"/>
    <path class="cls-12" d="M796.48,66.68l1.56-.25c.09.63.33,1.11.73,1.44s.96.5,1.68.5,1.27-.15,1.62-.44.53-.64.53-1.04c0-.36-.16-.64-.47-.84-.22-.14-.76-.32-1.62-.54-1.16-.29-1.96-.55-2.41-.76s-.79-.51-1.02-.89-.35-.79-.35-1.25c0-.42.1-.8.29-1.16s.45-.65.78-.88c.25-.18.58-.34,1.01-.46s.88-.19,1.37-.19c.73,0,1.38.11,1.93.32s.96.5,1.23.86.45.84.54,1.45l-1.55.21c-.07-.48-.27-.86-.61-1.12s-.81-.4-1.43-.4c-.73,0-1.25.12-1.56.36s-.47.52-.47.84c0,.21.06.39.19.55.13.17.33.31.61.42.16.06.62.19,1.4.4,1.12.3,1.9.54,2.34.73s.79.47,1.04.83.38.81.38,1.35-.15,1.02-.46,1.49-.75.83-1.33,1.08-1.24.38-1.97.38c-1.21,0-2.14-.25-2.77-.76s-1.04-1.25-1.22-2.24Z"/>
    <path class="cls-12" d="M805.97,58.4v-1.82h1.58v1.82h-1.58ZM805.97,69.47v-9.33h1.58v9.33h-1.58Z"/>
    <path class="cls-12" d="M809.31,64.8c0-1.73.48-3.01,1.44-3.84.8-.69,1.78-1.04,2.94-1.04,1.28,0,2.33.42,3.15,1.26s1.22,2,1.22,3.49c0,1.2-.18,2.15-.54,2.83s-.88,1.22-1.57,1.6-1.44.57-2.25.57c-1.31,0-2.36-.42-3.17-1.26s-1.21-2.04-1.21-3.62ZM810.93,64.8c0,1.2.26,2.09.78,2.68s1.18.89,1.97.89,1.44-.3,1.96-.9.78-1.51.78-2.73c0-1.15-.26-2.03-.79-2.62s-1.18-.89-1.96-.89-1.45.3-1.97.89-.78,1.49-.78,2.68Z"/>
    <path class="cls-12" d="M819.82,69.47v-9.33h1.42v1.33c.69-1.03,1.68-1.54,2.97-1.54.56,0,1.08.1,1.55.3s.82.47,1.06.8.4.72.49,1.17c.06.29.09.81.09,1.54v5.74h-1.58v-5.68c0-.64-.06-1.13-.18-1.45s-.34-.57-.65-.76-.68-.29-1.1-.29c-.67,0-1.26.21-1.74.64s-.73,1.24-.73,2.43v5.1h-1.58Z"/>
    <path class="cls-12" d="M829.01,66.68l1.56-.25c.09.63.33,1.11.73,1.44s.96.5,1.68.5,1.27-.15,1.62-.44.53-.64.53-1.04c0-.36-.16-.64-.47-.84-.22-.14-.76-.32-1.62-.54-1.16-.29-1.96-.55-2.41-.76s-.79-.51-1.02-.89-.35-.79-.35-1.25c0-.42.1-.8.29-1.16s.45-.65.78-.88c.25-.18.58-.34,1.01-.46s.88-.19,1.37-.19c.73,0,1.38.11,1.93.32s.96.5,1.23.86.45.84.54,1.45l-1.55.21c-.07-.48-.27-.86-.61-1.12s-.81-.4-1.43-.4c-.73,0-1.25.12-1.56.36s-.47.52-.47.84c0,.21.06.39.19.55.13.17.33.31.61.42.16.06.62.19,1.4.4,1.12.3,1.9.54,2.34.73s.79.47,1.04.83.38.81.38,1.35-.15,1.02-.46,1.49-.75.83-1.33,1.08-1.24.38-1.97.38c-1.21,0-2.14-.25-2.77-.76s-1.04-1.25-1.22-2.24Z"/>
    <path class="cls-12" d="M849.74,68.31c-.59.5-1.15.85-1.69,1.05s-1.12.31-1.74.31c-1.03,0-1.81-.25-2.36-.75s-.83-1.14-.83-1.92c0-.46.1-.88.31-1.25s.48-.68.82-.91.72-.4,1.14-.52c.31-.08.78-.16,1.41-.24,1.28-.15,2.22-.33,2.82-.54,0-.22,0-.35,0-.41,0-.64-.15-1.1-.45-1.36-.4-.36-1-.54-1.8-.54-.74,0-1.29.13-1.65.39s-.62.72-.79,1.38l-1.55-.21c.14-.66.37-1.2.69-1.6s.79-.72,1.4-.94,1.32-.33,2.12-.33,1.44.09,1.94.28.86.42,1.1.71.4.64.49,1.08c.05.27.08.76.08,1.46v2.11c0,1.47.03,2.4.1,2.79s.2.76.4,1.12h-1.65c-.16-.33-.27-.71-.32-1.15ZM849.6,64.78c-.57.23-1.44.43-2.58.6-.65.09-1.11.2-1.38.32s-.48.29-.62.51-.22.48-.22.75c0,.42.16.77.48,1.05s.79.42,1.4.42,1.15-.13,1.63-.4.82-.63,1.05-1.09c.17-.36.25-.88.25-1.58v-.58Z"/>
    <path class="cls-12" d="M854.94,69.47h-1.47v-12.88h1.58v4.6c.67-.84,1.52-1.26,2.56-1.26.57,0,1.12.12,1.63.35s.93.56,1.27.98.59.92.78,1.52.28,1.22.28,1.9c0,1.6-.4,2.84-1.19,3.71s-1.74,1.31-2.85,1.31-1.97-.46-2.59-1.38v1.17ZM854.93,64.73c0,1.12.15,1.93.46,2.43.5.81,1.17,1.22,2.02,1.22.69,0,1.29-.3,1.79-.9s.76-1.5.76-2.68-.24-2.12-.73-2.7-1.07-.87-1.75-.87-1.29.3-1.79.9-.76,1.47-.76,2.61Z"/>
    <path class="cls-12" d="M862.84,64.8c0-1.73.48-3.01,1.44-3.84.8-.69,1.78-1.04,2.94-1.04,1.28,0,2.33.42,3.15,1.26s1.22,2,1.22,3.49c0,1.2-.18,2.15-.54,2.83s-.88,1.22-1.57,1.6-1.44.57-2.25.57c-1.31,0-2.36-.42-3.17-1.26s-1.21-2.04-1.21-3.62ZM864.47,64.8c0,1.2.26,2.09.78,2.68s1.18.89,1.97.89,1.44-.3,1.96-.9.78-1.51.78-2.73c0-1.15-.26-2.03-.79-2.62s-1.18-.89-1.96-.89-1.45.3-1.97.89-.78,1.49-.78,2.68Z"/>
    <path class="cls-12" d="M879.43,69.47v-1.37c-.73,1.05-1.71,1.58-2.96,1.58-.55,0-1.06-.11-1.54-.32s-.83-.48-1.06-.8-.39-.71-.49-1.17c-.06-.31-.1-.8-.1-1.48v-5.78h1.58v5.18c0,.83.03,1.38.1,1.67.1.42.31.74.63.98s.72.36,1.2.36.92-.12,1.34-.37.71-.57.88-.99.26-1.03.26-1.82v-5h1.58v9.33h-1.42Z"/>
    <path class="cls-12" d="M886.57,68.05l.23,1.4c-.45.09-.84.14-1.2.14-.57,0-1.02-.09-1.34-.27s-.54-.42-.67-.72-.19-.92-.19-1.87v-5.37h-1.16v-1.23h1.16v-2.31l1.57-.95v3.26h1.59v1.23h-1.59v5.46c0,.45.03.74.08.87s.15.23.27.31.31.11.54.11c.18,0,.41-.02.69-.06Z"/>
    <path class="cls-12" d="M669.02,91.07l-2.86-9.33h1.63l1.49,5.39.55,2c.02-.1.18-.74.48-1.92l1.49-5.47h1.63l1.4,5.41.47,1.78.54-1.8,1.6-5.4h1.54l-2.92,9.33h-1.64l-1.49-5.59-.36-1.59-1.89,7.18h-1.65Z"/>
    <path class="cls-12" d="M680.23,91.07v-12.88h1.58v4.62c.74-.86,1.67-1.28,2.79-1.28.69,0,1.29.14,1.8.41s.87.65,1.09,1.13.33,1.18.33,2.09v5.92h-1.58v-5.92c0-.79-.17-1.37-.51-1.73s-.83-.54-1.45-.54c-.47,0-.91.12-1.32.37s-.71.57-.88.99-.26.99-.26,1.72v5.11h-1.58Z"/>
    <path class="cls-12" d="M696.17,89.91c-.59.5-1.15.85-1.69,1.05s-1.12.31-1.74.31c-1.03,0-1.81-.25-2.36-.75s-.83-1.14-.83-1.92c0-.46.1-.87.31-1.25s.48-.68.82-.91.72-.4,1.14-.52c.31-.08.78-.16,1.41-.24,1.28-.15,2.22-.33,2.82-.54,0-.22,0-.35,0-.41,0-.64-.15-1.1-.45-1.36-.4-.36-1-.54-1.8-.54-.74,0-1.29.13-1.65.39s-.62.72-.79,1.38l-1.55-.21c.14-.66.37-1.2.69-1.6s.79-.72,1.4-.94,1.32-.33,2.12-.33,1.44.09,1.94.28.86.42,1.1.71.4.64.49,1.08c.05.27.08.76.08,1.46v2.11c0,1.47.03,2.4.1,2.79s.2.76.4,1.12h-1.65c-.16-.33-.27-.71-.32-1.15ZM696.04,86.38c-.57.23-1.44.43-2.58.6-.65.09-1.11.2-1.38.32s-.48.29-.62.51-.22.48-.22.75c0,.42.16.77.48,1.05s.79.42,1.4.42,1.15-.13,1.63-.4.82-.63,1.05-1.09c.17-.36.25-.88.25-1.58v-.58Z"/>
    <path class="cls-12" d="M703.28,89.65l.23,1.4c-.45.09-.84.14-1.2.14-.57,0-1.02-.09-1.34-.27s-.54-.42-.67-.72-.19-.92-.19-1.87v-5.37h-1.16v-1.23h1.16v-2.31l1.57-.95v3.26h1.59v1.23h-1.59v5.46c0,.45.03.74.08.87s.15.23.27.31.31.11.54.11c.18,0,.41-.02.69-.06Z"/>
    <path class="cls-12" d="M713.28,89.65l.23,1.4c-.45.09-.84.14-1.2.14-.57,0-1.02-.09-1.34-.27s-.54-.42-.67-.72-.19-.92-.19-1.87v-5.37h-1.16v-1.23h1.16v-2.31l1.57-.95v3.26h1.59v1.23h-1.59v5.46c0,.45.03.74.08.87s.15.23.27.31.31.11.54.11c.18,0,.41-.02.69-.06Z"/>
    <path class="cls-12" d="M713.99,86.4c0-1.73.48-3.01,1.44-3.84.8-.69,1.78-1.04,2.94-1.04,1.28,0,2.33.42,3.15,1.26s1.22,2,1.22,3.48c0,1.2-.18,2.15-.54,2.83s-.88,1.22-1.57,1.6-1.44.57-2.25.57c-1.31,0-2.36-.42-3.17-1.26s-1.21-2.04-1.21-3.62ZM715.61,86.4c0,1.2.26,2.09.78,2.69s1.18.89,1.97.89,1.44-.3,1.96-.9.78-1.51.78-2.73c0-1.15-.26-2.03-.79-2.62s-1.18-.89-1.96-.89-1.45.3-1.97.89-.78,1.49-.78,2.68Z"/>
    <path class="cls-12" d="M735.64,91.07v-1.18c-.59.93-1.46,1.39-2.61,1.39-.74,0-1.43-.21-2.05-.62s-1.11-.98-1.45-1.72-.51-1.58-.51-2.54.16-1.78.47-2.54.78-1.34,1.4-1.75,1.32-.61,2.08-.61c.56,0,1.06.12,1.5.36s.8.55,1.07.93v-4.62h1.57v12.88h-1.47ZM730.64,86.41c0,1.2.25,2.09.76,2.68s1.1.89,1.78.89,1.28-.28,1.76-.85.73-1.43.73-2.59c0-1.28-.25-2.21-.74-2.81s-1.1-.9-1.82-.9-1.29.29-1.76.86-.71,1.48-.71,2.72Z"/>
    <path class="cls-12" d="M738.89,86.4c0-1.73.48-3.01,1.44-3.84.8-.69,1.78-1.04,2.94-1.04,1.28,0,2.33.42,3.15,1.26s1.22,2,1.22,3.48c0,1.2-.18,2.15-.54,2.83s-.88,1.22-1.57,1.6-1.44.57-2.25.57c-1.31,0-2.36-.42-3.17-1.26s-1.21-2.04-1.21-3.62ZM740.51,86.4c0,1.2.26,2.09.78,2.69s1.18.89,1.97.89,1.44-.3,1.96-.9.78-1.51.78-2.73c0-1.15-.26-2.03-.79-2.62s-1.18-.89-1.96-.89-1.45.3-1.97.89-.78,1.49-.78,2.68Z"/>
  </g>
</svg>