<?xml version="1.0" encoding="UTF-8"?><svg id="maturity" xmlns="http://www.w3.org/2000/svg" viewBox="0 0 988 525"><circle cx="325.49" cy="262.5" r="237.2" style="fill:#fff; stroke:#0333ff; stroke-miterlimit:10; stroke-width:2px;"/><ellipse cx="325.49" cy="331.79" rx="158.04" ry="167.91" style="fill:#fff; stroke:#000; stroke-miterlimit:10; stroke-width:2px;"/><circle cx="325.49" cy="401.08" r="98.62" style="fill:#fff; stroke:#000; stroke-miterlimit:10; stroke-width:2px;"/><text transform="translate(241.61 109.92)" style="fill:#0333ff; font-family:Arial-BoldMT, Arial; font-size:20px; font-weight:700;"><tspan x="0" y="0">Digital innovation</tspan></text><text transform="translate(247.49 253.53)" style="font-family:Arial-BoldMT, Arial; font-size:18px; font-weight:700;"><tspan x="0" y="0">Digital technology</tspan></text><text transform="translate(275.27 401.08)" style="font-family:Arial-BoldMT, Arial; font-size:16px; font-weight:700;"><tspan x="0" y="0">Digital object</tspan></text><path d="m624.63,380.88v-10.1h-3.77v-1.35h9.08v1.35h-3.79v10.1h-1.52Z"/><path d="m635.22,378.21l1.45.18c-.23.85-.65,1.51-1.27,1.98-.62.47-1.41.7-2.38.7-1.21,0-2.18-.37-2.89-1.12-.71-.75-1.07-1.8-1.07-3.14s.36-2.48,1.08-3.25c.72-.77,1.65-1.16,2.8-1.16s2.02.38,2.72,1.13c.7.76,1.05,1.82,1.05,3.19,0,.08,0,.21,0,.38h-6.19c.05.91.31,1.61.77,2.09.46.48,1.04.73,1.73.73.52,0,.96-.14,1.32-.41.36-.27.65-.7.87-1.3Zm-4.62-2.27h4.63c-.06-.7-.24-1.22-.53-1.57-.45-.54-1.03-.81-1.74-.81-.65,0-1.19.22-1.63.65-.44.43-.68,1.01-.73,1.73Z"/><path d="m643.85,377.84l1.38.18c-.15.95-.54,1.7-1.16,2.24-.62.54-1.39.81-2.29.81-1.14,0-2.05-.37-2.74-1.11-.69-.74-1.04-1.81-1.04-3.19,0-.9.15-1.68.45-2.35s.75-1.18,1.36-1.51c.61-.34,1.27-.5,1.98-.5.9,0,1.64.23,2.21.68.57.46.94,1.1,1.1,1.94l-1.37.21c-.13-.56-.36-.98-.69-1.26-.33-.28-.73-.42-1.2-.42-.71,0-1.28.25-1.73.76-.44.51-.66,1.31-.66,2.41s.21,1.92.64,2.43c.43.51.98.76,1.67.76.55,0,1.01-.17,1.38-.51.37-.34.6-.86.7-1.56Z"/><path d="m646.44,380.88v-11.45h1.41v4.11c.66-.76,1.48-1.14,2.48-1.14.61,0,1.15.12,1.6.36s.78.58.97,1c.2.43.29,1.05.29,1.86v5.26h-1.41v-5.26c0-.7-.15-1.21-.46-1.54s-.74-.48-1.29-.48c-.42,0-.81.11-1.18.32-.37.22-.63.51-.79.88-.16.37-.23.88-.23,1.53v4.54h-1.41Z"/><path d="m655.33,380.88v-8.3h1.27v1.18c.61-.91,1.49-1.37,2.64-1.37.5,0,.96.09,1.38.27.42.18.73.42.94.71.21.29.35.64.44,1.04.05.26.08.72.08,1.37v5.1h-1.41v-5.05c0-.57-.05-1-.16-1.29-.11-.28-.3-.51-.58-.68-.28-.17-.61-.25-.98-.25-.6,0-1.12.19-1.55.57-.44.38-.65,1.1-.65,2.16v4.53h-1.41Z"/><path d="m664.24,371.05v-1.62h1.41v1.62h-1.41Zm0,9.84v-8.3h1.41v8.3h-1.41Z"/><path d="m673.2,377.84l1.38.18c-.15.95-.54,1.7-1.16,2.24-.62.54-1.39.81-2.29.81-1.14,0-2.05-.37-2.74-1.11-.69-.74-1.04-1.81-1.04-3.19,0-.9.15-1.68.45-2.35s.75-1.18,1.36-1.51c.61-.34,1.27-.5,1.98-.5.9,0,1.64.23,2.21.68.57.46.94,1.1,1.1,1.94l-1.37.21c-.13-.56-.36-.98-.69-1.26-.33-.28-.73-.42-1.2-.42-.71,0-1.28.25-1.73.76-.44.51-.66,1.31-.66,2.41s.21,1.92.64,2.43c.43.51.98.76,1.67.76.55,0,1.01-.17,1.38-.51.37-.34.6-.86.7-1.56Z"/><path d="m681.2,379.86c-.52.44-1.02.76-1.5.94-.48.18-1,.27-1.55.27-.91,0-1.61-.22-2.1-.67-.49-.45-.73-1.01-.73-1.71,0-.41.09-.78.28-1.11.18-.34.43-.61.73-.81.3-.2.64-.36,1.01-.46.28-.07.69-.14,1.25-.21,1.14-.14,1.97-.3,2.51-.48,0-.19,0-.31,0-.37,0-.57-.13-.98-.4-1.21-.36-.32-.89-.48-1.6-.48-.66,0-1.15.12-1.46.35-.32.23-.55.64-.7,1.23l-1.38-.19c.12-.59.33-1.06.62-1.43.29-.36.7-.64,1.24-.84.54-.2,1.17-.29,1.88-.29s1.28.08,1.73.25c.44.17.77.38.98.63.21.25.35.57.44.96.05.24.07.67.07,1.3v1.88c0,1.31.03,2.13.09,2.48.06.35.18.68.36,1h-1.47c-.15-.29-.24-.63-.28-1.02Zm-.12-3.14c-.51.21-1.28.39-2.3.53-.58.08-.99.18-1.23.28-.24.1-.42.26-.55.46-.13.2-.2.42-.2.67,0,.38.14.69.43.94.28.25.7.38,1.25.38s1.02-.12,1.45-.36c.42-.24.73-.56.93-.97.15-.32.23-.79.23-1.41v-.52Z"/><path d="m684.65,380.88v-11.45h1.41v11.45h-1.41Z"/><path d="m692.16,376.73c0-1.54.43-2.67,1.28-3.41.71-.61,1.58-.92,2.61-.92,1.14,0,2.07.37,2.8,1.12.72.75,1.09,1.78,1.09,3.1,0,1.07-.16,1.91-.48,2.52-.32.61-.79,1.09-1.4,1.43-.61.34-1.28.51-2,.51-1.16,0-2.1-.37-2.82-1.12-.72-.74-1.07-1.82-1.07-3.22Zm1.45,0c0,1.06.23,1.86.7,2.39.46.53,1.05.79,1.75.79s1.28-.27,1.74-.8c.46-.53.7-1.34.7-2.43,0-1.03-.23-1.8-.7-2.33-.47-.53-1.05-.79-1.74-.79s-1.29.26-1.75.79c-.46.53-.7,1.32-.7,2.38Z"/><path d="m702.88,380.88h-1.3v-11.45h1.41v4.09c.59-.74,1.35-1.12,2.27-1.12.51,0,.99.1,1.45.31.46.21.83.5,1.12.87.29.37.52.82.69,1.35.17.53.25,1.09.25,1.69,0,1.42-.35,2.52-1.05,3.3-.7.78-1.55,1.16-2.53,1.16s-1.75-.41-2.3-1.23v1.04Zm-.02-4.21c0,1,.14,1.71.41,2.16.44.72,1.04,1.09,1.8,1.09.61,0,1.15-.27,1.59-.8.45-.53.67-1.33.67-2.39s-.21-1.88-.64-2.4-.95-.77-1.56-.77-1.15.27-1.59.8c-.45.53-.67,1.31-.67,2.32Z"/><path d="m708.69,384.1l.27-1.2c.28.07.5.11.66.11.29,0,.5-.1.64-.29.14-.19.21-.67.21-1.43v-8.72h1.41v8.75c0,1.02-.13,1.73-.4,2.13-.34.52-.9.78-1.69.78-.38,0-.75-.05-1.1-.15Zm1.78-13.04v-1.63h1.41v1.63h-1.41Z"/><path d="m719.72,378.21l1.45.18c-.23.85-.65,1.51-1.27,1.98-.62.47-1.41.7-2.38.7-1.21,0-2.18-.37-2.89-1.12-.71-.75-1.07-1.8-1.07-3.14s.36-2.48,1.08-3.25c.72-.77,1.65-1.16,2.8-1.16s2.02.38,2.72,1.13c.7.76,1.05,1.82,1.05,3.19,0,.08,0,.21,0,.38h-6.19c.05.91.31,1.61.77,2.09.46.48,1.04.73,1.73.73.52,0,.96-.14,1.32-.41.36-.27.65-.7.87-1.3Zm-4.62-2.27h4.63c-.06-.7-.24-1.22-.53-1.57-.45-.54-1.03-.81-1.74-.81-.65,0-1.19.22-1.63.65-.44.43-.68,1.01-.73,1.73Z"/><path d="m728.35,377.84l1.38.18c-.15.95-.54,1.7-1.16,2.24-.62.54-1.39.81-2.29.81-1.14,0-2.05-.37-2.74-1.11-.69-.74-1.04-1.81-1.04-3.19,0-.9.15-1.68.45-2.35s.75-1.18,1.36-1.51c.61-.34,1.27-.5,1.98-.5.9,0,1.64.23,2.21.68.57.46.94,1.1,1.1,1.94l-1.37.21c-.13-.56-.36-.98-.69-1.26-.33-.28-.73-.42-1.2-.42-.71,0-1.28.25-1.73.76-.44.51-.66,1.31-.66,2.41s.21,1.92.64,2.43c.43.51.98.76,1.67.76.55,0,1.01-.17,1.38-.51.37-.34.6-.86.7-1.56Z"/><path d="m734.01,379.63l.2,1.24c-.4.08-.75.12-1.06.12-.51,0-.91-.08-1.19-.24s-.48-.37-.59-.64c-.11-.26-.17-.82-.17-1.66v-4.77h-1.03v-1.09h1.03v-2.05l1.4-.84v2.9h1.41v1.09h-1.41v4.85c0,.4.02.66.07.77.05.11.13.21.24.27.11.07.27.1.48.1.16,0,.36-.02.62-.05Z"/><path d="m734.82,378.41l1.39-.22c.08.56.3.98.65,1.28.36.3.86.45,1.5.45s1.12-.13,1.44-.39c.31-.26.47-.57.47-.93,0-.32-.14-.57-.41-.75-.19-.12-.67-.28-1.44-.48-1.03-.26-1.75-.49-2.14-.68-.4-.19-.7-.45-.91-.79-.21-.34-.31-.71-.31-1.11,0-.37.08-.71.25-1.03.17-.31.4-.58.69-.79.22-.16.52-.3.89-.41.38-.11.78-.17,1.21-.17.65,0,1.22.09,1.71.28s.86.44,1.09.76.4.75.48,1.29l-1.38.19c-.06-.43-.24-.76-.54-1-.3-.24-.72-.36-1.27-.36-.65,0-1.11.11-1.38.32-.28.21-.41.46-.41.75,0,.18.06.35.17.49.11.15.29.28.54.38.14.05.55.17,1.24.36.99.27,1.69.48,2.08.65.39.17.7.42.93.74.22.32.34.72.34,1.2s-.14.91-.41,1.32-.67.73-1.18.96-1.1.34-1.75.34c-1.08,0-1.9-.22-2.46-.67-.57-.45-.93-1.11-1.08-1.99Z"/><path d="m750.9,379.63l.2,1.24c-.4.08-.75.12-1.06.12-.51,0-.91-.08-1.19-.24s-.48-.37-.59-.64c-.11-.26-.17-.82-.17-1.66v-4.77h-1.03v-1.09h1.03v-2.05l1.4-.84v2.9h1.41v1.09h-1.41v4.85c0,.4.02.66.07.77.05.11.13.21.24.27.11.07.27.1.48.1.16,0,.36-.02.62-.05Z"/><path d="m752.27,380.88v-11.45h1.41v4.11c.66-.76,1.48-1.14,2.48-1.14.61,0,1.15.12,1.6.36s.78.58.97,1c.2.43.29,1.05.29,1.86v5.26h-1.41v-5.26c0-.7-.15-1.21-.46-1.54s-.74-.48-1.29-.48c-.42,0-.81.11-1.18.32-.37.22-.63.51-.79.88-.16.37-.23.88-.23,1.53v4.54h-1.41Z"/><path d="m766.58,379.86c-.52.44-1.02.76-1.5.94-.48.18-1,.27-1.55.27-.91,0-1.61-.22-2.1-.67-.49-.45-.73-1.01-.73-1.71,0-.41.09-.78.28-1.11.18-.34.43-.61.73-.81.3-.2.64-.36,1.01-.46.28-.07.69-.14,1.25-.21,1.14-.14,1.97-.3,2.51-.48,0-.19,0-.31,0-.37,0-.57-.13-.98-.4-1.21-.36-.32-.89-.48-1.6-.48-.66,0-1.15.12-1.46.35-.32.23-.55.64-.7,1.23l-1.38-.19c.12-.59.33-1.06.62-1.43.29-.36.7-.64,1.24-.84.54-.2,1.17-.29,1.88-.29s1.28.08,1.73.25c.44.17.77.38.98.63.21.25.35.57.44.96.05.24.07.67.07,1.3v1.88c0,1.31.03,2.13.09,2.48.06.35.18.68.36,1h-1.47c-.15-.29-.24-.63-.28-1.02Zm-.12-3.14c-.51.21-1.28.39-2.3.53-.58.08-.99.18-1.23.28-.24.1-.42.26-.55.46-.13.2-.2.42-.2.67,0,.38.14.69.43.94.28.25.7.38,1.25.38s1.02-.12,1.45-.36c.42-.24.73-.56.93-.97.15-.32.23-.79.23-1.41v-.52Z"/><path d="m773.14,379.63l.2,1.24c-.4.08-.75.12-1.06.12-.51,0-.91-.08-1.19-.24s-.48-.37-.59-.64c-.11-.26-.17-.82-.17-1.66v-4.77h-1.03v-1.09h1.03v-2.05l1.4-.84v2.9h1.41v1.09h-1.41v4.85c0,.4.02.66.07.77.05.11.13.21.24.27.11.07.27.1.48.1.16,0,.36-.02.62-.05Z"/><path d="m778.44,376.73c0-1.54.43-2.67,1.28-3.41.71-.61,1.58-.92,2.61-.92,1.14,0,2.07.37,2.8,1.12.72.75,1.09,1.78,1.09,3.1,0,1.07-.16,1.91-.48,2.52-.32.61-.79,1.09-1.4,1.43-.61.34-1.28.51-2,.51-1.16,0-2.1-.37-2.82-1.12-.72-.74-1.07-1.82-1.07-3.22Zm1.45,0c0,1.06.23,1.86.7,2.39.46.53,1.05.79,1.75.79s1.28-.27,1.74-.8c.46-.53.7-1.34.7-2.43,0-1.03-.23-1.8-.7-2.33-.47-.53-1.05-.79-1.74-.79s-1.29.26-1.75.79c-.46.53-.7,1.32-.7,2.38Z"/><path d="m789.15,380.88h-1.3v-11.45h1.41v4.09c.59-.74,1.35-1.12,2.27-1.12.51,0,.99.1,1.45.31.46.21.83.5,1.12.87.29.37.52.82.69,1.35.17.53.25,1.09.25,1.69,0,1.42-.35,2.52-1.05,3.3-.7.78-1.55,1.16-2.53,1.16s-1.75-.41-2.3-1.23v1.04Zm-.02-4.21c0,1,.14,1.71.41,2.16.44.72,1.04,1.09,1.8,1.09.61,0,1.15-.27,1.59-.8.45-.53.67-1.33.67-2.39s-.21-1.88-.64-2.4-.95-.77-1.56-.77-1.15.27-1.59.8c-.45.53-.67,1.31-.67,2.32Z"/><path d="m794.97,384.1l.27-1.2c.28.07.5.11.66.11.29,0,.5-.1.64-.29.14-.19.21-.67.21-1.43v-8.72h1.41v8.75c0,1.02-.13,1.73-.4,2.13-.34.52-.9.78-1.69.78-.38,0-.75-.05-1.1-.15Zm1.78-13.04v-1.63h1.41v1.63h-1.41Z"/><path d="m805.99,378.21l1.45.18c-.23.85-.65,1.51-1.27,1.98-.62.47-1.41.7-2.38.7-1.21,0-2.18-.37-2.89-1.12-.71-.75-1.07-1.8-1.07-3.14s.36-2.48,1.08-3.25c.72-.77,1.65-1.16,2.8-1.16s2.02.38,2.72,1.13c.7.76,1.05,1.82,1.05,3.19,0,.08,0,.21,0,.38h-6.19c.05.91.31,1.61.77,2.09.46.48,1.04.73,1.73.73.52,0,.96-.14,1.32-.41.36-.27.65-.7.87-1.3Zm-4.62-2.27h4.63c-.06-.7-.24-1.22-.53-1.57-.45-.54-1.03-.81-1.74-.81-.65,0-1.19.22-1.63.65-.44.43-.68,1.01-.73,1.73Z"/><path d="m814.62,377.84l1.38.18c-.15.95-.54,1.7-1.16,2.24-.62.54-1.39.81-2.29.81-1.14,0-2.05-.37-2.74-1.11-.69-.74-1.04-1.81-1.04-3.19,0-.9.15-1.68.45-2.35s.75-1.18,1.36-1.51c.61-.34,1.27-.5,1.98-.5.9,0,1.64.23,2.21.68.57.46.94,1.1,1.1,1.94l-1.37.21c-.13-.56-.36-.98-.69-1.26-.33-.28-.73-.42-1.2-.42-.71,0-1.28.25-1.73.76-.44.51-.66,1.31-.66,2.41s.21,1.92.64,2.43c.43.51.98.76,1.67.76.55,0,1.01-.17,1.38-.51.37-.34.6-.86.7-1.56Z"/><path d="m820.28,379.63l.2,1.24c-.4.08-.75.12-1.06.12-.51,0-.91-.08-1.19-.24s-.48-.37-.59-.64c-.11-.26-.17-.82-.17-1.66v-4.77h-1.03v-1.09h1.03v-2.05l1.4-.84v2.9h1.41v1.09h-1.41v4.85c0,.4.02.66.07.77.05.11.13.21.24.27.11.07.27.1.48.1.16,0,.36-.02.62-.05Z"/><path d="m821.09,378.41l1.39-.22c.08.56.3.98.65,1.28.36.3.86.45,1.5.45s1.12-.13,1.44-.39c.31-.26.47-.57.47-.93,0-.32-.14-.57-.41-.75-.19-.12-.67-.28-1.44-.48-1.03-.26-1.75-.49-2.14-.68-.4-.19-.7-.45-.91-.79-.21-.34-.31-.71-.31-1.11,0-.37.08-.71.25-1.03.17-.31.4-.58.69-.79.22-.16.52-.3.89-.41.38-.11.78-.17,1.21-.17.65,0,1.22.09,1.71.28s.86.44,1.09.76.4.75.48,1.29l-1.38.19c-.06-.43-.24-.76-.54-1-.3-.24-.72-.36-1.27-.36-.65,0-1.11.11-1.38.32-.28.21-.41.46-.41.75,0,.18.06.35.17.49.11.15.29.28.54.38.14.05.55.17,1.24.36.99.27,1.69.48,2.08.65.39.17.7.42.93.74.22.32.34.72.34,1.2s-.14.91-.41,1.32-.67.73-1.18.96-1.1.34-1.75.34c-1.08,0-1.9-.22-2.46-.67-.57-.45-.93-1.11-1.08-1.99Z"/><path d="m835.63,380.88l-2.54-8.3h1.45l1.32,4.79.49,1.78c.02-.09.16-.66.43-1.71l1.32-4.86h1.45l1.24,4.81.41,1.59.48-1.6,1.42-4.8h1.37l-2.59,8.3h-1.46l-1.32-4.97-.32-1.41-1.68,6.38h-1.47Z"/><path d="m845.65,380.88v-11.45h1.41v4.11c.66-.76,1.48-1.14,2.48-1.14.61,0,1.15.12,1.6.36s.78.58.97,1c.2.43.29,1.05.29,1.86v5.26h-1.41v-5.26c0-.7-.15-1.21-.46-1.54s-.74-.48-1.29-.48c-.42,0-.81.11-1.18.32-.37.22-.63.51-.79.88-.16.37-.23.88-.23,1.53v4.54h-1.41Z"/><path d="m854.03,376.73c0-1.54.43-2.67,1.28-3.41.71-.61,1.58-.92,2.61-.92,1.14,0,2.07.37,2.8,1.12.72.75,1.09,1.78,1.09,3.1,0,1.07-.16,1.91-.48,2.52-.32.61-.79,1.09-1.4,1.43-.61.34-1.28.51-2,.51-1.16,0-2.1-.37-2.82-1.12-.72-.74-1.07-1.82-1.07-3.22Zm1.45,0c0,1.06.23,1.86.7,2.39.46.53,1.05.79,1.75.79s1.28-.27,1.74-.8c.46-.53.7-1.34.7-2.43,0-1.03-.23-1.8-.7-2.33-.47-.53-1.05-.79-1.74-.79s-1.29.26-1.75.79c-.46.53-.7,1.32-.7,2.38Z"/><path d="m862.89,378.41l1.39-.22c.08.56.3.98.65,1.28.36.3.86.45,1.5.45s1.12-.13,1.44-.39c.31-.26.47-.57.47-.93,0-.32-.14-.57-.41-.75-.19-.12-.67-.28-1.44-.48-1.03-.26-1.75-.49-2.14-.68-.4-.19-.7-.45-.91-.79-.21-.34-.31-.71-.31-1.11,0-.37.08-.71.25-1.03.17-.31.4-.58.69-.79.22-.16.52-.3.89-.41.38-.11.78-.17,1.21-.17.65,0,1.22.09,1.71.28s.86.44,1.09.76.4.75.48,1.29l-1.38.19c-.06-.43-.24-.76-.54-1-.3-.24-.72-.36-1.27-.36-.65,0-1.11.11-1.38.32-.28.21-.41.46-.41.75,0,.18.06.35.17.49.11.15.29.28.54.38.14.05.55.17,1.24.36.99.27,1.69.48,2.08.65.39.17.7.42.93.74.22.32.34.72.34,1.2s-.14.91-.41,1.32-.67.73-1.18.96-1.1.34-1.75.34c-1.08,0-1.9-.22-2.46-.67-.57-.45-.93-1.11-1.08-1.99Z"/><path d="m877.13,378.21l1.45.18c-.23.85-.65,1.51-1.27,1.98-.62.47-1.41.7-2.38.7-1.21,0-2.18-.37-2.89-1.12-.71-.75-1.07-1.8-1.07-3.14s.36-2.48,1.08-3.25c.72-.77,1.65-1.16,2.8-1.16s2.02.38,2.72,1.13c.7.76,1.05,1.82,1.05,3.19,0,.08,0,.21,0,.38h-6.19c.05.91.31,1.61.77,2.09.46.48,1.04.73,1.73.73.52,0,.96-.14,1.32-.41.36-.27.65-.7.87-1.3Zm-4.62-2.27h4.63c-.06-.7-.24-1.22-.53-1.57-.45-.54-1.03-.81-1.74-.81-.65,0-1.19.22-1.63.65-.44.43-.68,1.01-.73,1.73Z"/><path d="m890.21,377.84l1.38.18c-.15.95-.54,1.7-1.16,2.24-.62.54-1.39.81-2.29.81-1.14,0-2.05-.37-2.74-1.11-.69-.74-1.04-1.81-1.04-3.19,0-.9.15-1.68.45-2.35s.75-1.18,1.36-1.51c.61-.34,1.27-.5,1.98-.5.9,0,1.64.23,2.21.68.57.46.94,1.1,1.1,1.94l-1.37.21c-.13-.56-.36-.98-.69-1.26-.33-.28-.73-.42-1.2-.42-.71,0-1.28.25-1.73.76-.44.51-.66,1.31-.66,2.41s.21,1.92.64,2.43c.43.51.98.76,1.67.76.55,0,1.01-.17,1.38-.51.37-.34.6-.86.7-1.56Z"/><path d="m892.27,376.73c0-1.54.43-2.67,1.28-3.41.71-.61,1.58-.92,2.61-.92,1.14,0,2.07.37,2.8,1.12.72.75,1.09,1.78,1.09,3.1,0,1.07-.16,1.91-.48,2.52-.32.61-.79,1.09-1.4,1.43-.61.34-1.28.51-2,.51-1.16,0-2.1-.37-2.82-1.12-.72-.74-1.07-1.82-1.07-3.22Zm1.45,0c0,1.06.23,1.86.7,2.39.46.53,1.05.79,1.75.79s1.28-.27,1.74-.8c.46-.53.7-1.34.7-2.43,0-1.03-.23-1.8-.7-2.33-.47-.53-1.05-.79-1.74-.79s-1.29.26-1.75.79c-.46.53-.7,1.32-.7,2.38Z"/><path d="m901.69,380.88v-8.3h1.26v1.16c.26-.41.61-.73,1.04-.98.43-.25.92-.37,1.48-.37.61,0,1.12.13,1.51.38.39.26.67.61.83,1.07.66-.97,1.51-1.45,2.56-1.45.82,0,1.46.23,1.9.68.44.46.66,1.16.66,2.11v5.7h-1.4v-5.23c0-.56-.05-.97-.14-1.21-.09-.25-.26-.45-.5-.6-.24-.15-.52-.23-.84-.23-.58,0-1.07.19-1.45.58-.39.39-.58,1.01-.58,1.86v4.82h-1.41v-5.39c0-.62-.11-1.09-.34-1.41-.23-.31-.6-.47-1.12-.47-.4,0-.76.1-1.1.31-.34.21-.58.51-.73.91-.15.4-.23.98-.23,1.73v4.3h-1.41Z"/><path d="m915.02,384.06v-11.48h1.28v1.08c.3-.42.64-.74,1.02-.95.38-.21.84-.32,1.38-.32.71,0,1.33.18,1.88.55.54.36.95.88,1.23,1.54.28.66.41,1.39.41,2.18,0,.85-.15,1.61-.46,2.29s-.75,1.2-1.33,1.56c-.58.36-1.19.54-1.83.54-.47,0-.89-.1-1.26-.3-.37-.2-.68-.45-.92-.75v4.04h-1.41Zm1.27-7.28c0,1.07.22,1.86.65,2.37.43.51.96.77,1.57.77s1.16-.26,1.61-.79c.45-.53.67-1.35.67-2.46s-.22-1.85-.65-2.38c-.44-.53-.95-.79-1.56-.79s-1.13.28-1.59.84c-.46.56-.69,1.37-.69,2.44Z"/><path d="m923.4,376.73c0-1.54.43-2.67,1.28-3.41.71-.61,1.58-.92,2.61-.92,1.14,0,2.07.37,2.8,1.12.72.75,1.09,1.78,1.09,3.1,0,1.07-.16,1.91-.48,2.52-.32.61-.79,1.09-1.4,1.43-.61.34-1.28.51-2,.51-1.16,0-2.1-.37-2.82-1.12-.72-.74-1.07-1.82-1.07-3.22Zm1.45,0c0,1.06.23,1.86.7,2.39.46.53,1.05.79,1.75.79s1.28-.27,1.74-.8c.46-.53.7-1.34.7-2.43,0-1.03-.23-1.8-.7-2.33-.47-.53-1.05-.79-1.74-.79s-1.29.26-1.75.79c-.46.53-.7,1.32-.7,2.38Z"/><path d="m932.82,380.88v-8.3h1.27v1.18c.61-.91,1.49-1.37,2.64-1.37.5,0,.96.09,1.38.27.42.18.73.42.94.71.21.29.35.64.44,1.04.05.26.08.72.08,1.37v5.1h-1.41v-5.05c0-.57-.05-1-.16-1.29-.11-.28-.3-.51-.58-.68-.28-.17-.61-.25-.98-.25-.6,0-1.12.19-1.55.57-.44.38-.65,1.1-.65,2.16v4.53h-1.41Z"/><path d="m947.4,378.21l1.45.18c-.23.85-.65,1.51-1.27,1.98s-1.41.7-2.38.7c-1.21,0-2.18-.37-2.89-1.12-.71-.75-1.07-1.8-1.07-3.14s.36-2.48,1.08-3.25c.72-.77,1.65-1.16,2.8-1.16s2.02.38,2.72,1.13c.7.76,1.05,1.82,1.05,3.19,0,.08,0,.21,0,.38h-6.19c.05.91.31,1.61.77,2.09s1.04.73,1.73.73c.52,0,.96-.14,1.32-.41.36-.27.65-.7.87-1.3Zm-4.62-2.27h4.63c-.06-.7-.24-1.22-.53-1.57-.45-.54-1.03-.81-1.74-.81-.65,0-1.19.22-1.63.65-.44.43-.68,1.01-.73,1.73Z"/><path d="m950.61,380.88v-8.3h1.27v1.18c.61-.91,1.49-1.37,2.64-1.37.5,0,.96.09,1.38.27s.73.42.94.71c.21.29.35.64.44,1.04.05.26.08.72.08,1.37v5.1h-1.41v-5.05c0-.57-.05-1-.16-1.29-.11-.28-.3-.51-.58-.68-.28-.17-.61-.25-.98-.25-.6,0-1.12.19-1.55.57-.43.38-.65,1.1-.65,2.16v4.53h-1.41Z"/><path d="m962.58,379.63l.2,1.24c-.4.08-.75.12-1.06.12-.51,0-.91-.08-1.19-.24s-.48-.37-.59-.64c-.11-.26-.17-.82-.17-1.66v-4.77h-1.03v-1.09h1.03v-2.05l1.4-.84v2.9h1.41v1.09h-1.41v4.85c0,.4.02.66.07.77.05.11.13.21.24.27.11.07.27.1.48.1.16,0,.36-.02.62-.05Z"/><path d="m621.54,403.26v-11.48h1.28v1.08c.3-.42.64-.74,1.02-.95.38-.21.84-.32,1.38-.32.71,0,1.33.18,1.88.55.54.36.95.88,1.23,1.54.28.66.41,1.39.41,2.18,0,.85-.15,1.61-.46,2.29s-.75,1.2-1.33,1.56c-.58.36-1.19.54-1.83.54-.47,0-.89-.1-1.26-.3-.37-.2-.68-.45-.92-.75v4.04h-1.41Zm1.27-7.28c0,1.07.22,1.86.65,2.37.43.51.96.77,1.57.77s1.16-.26,1.61-.79c.45-.53.67-1.35.67-2.46s-.22-1.85-.65-2.38c-.44-.53-.95-.79-1.56-.79s-1.13.28-1.59.84c-.46.56-.69,1.37-.69,2.44Z"/><path d="m635.85,399.06c-.52.44-1.02.76-1.5.94-.48.18-1,.27-1.55.27-.91,0-1.61-.22-2.1-.67-.49-.45-.73-1.01-.73-1.71,0-.41.09-.78.28-1.11.18-.34.43-.61.73-.81.3-.2.64-.36,1.01-.46.28-.07.69-.14,1.25-.21,1.14-.14,1.97-.3,2.51-.48,0-.19,0-.31,0-.37,0-.57-.13-.98-.4-1.21-.36-.32-.89-.48-1.6-.48-.66,0-1.15.12-1.46.35-.32.23-.55.64-.7,1.23l-1.38-.19c.12-.59.33-1.06.62-1.43.29-.36.7-.64,1.24-.84.54-.2,1.17-.29,1.88-.29s1.28.08,1.73.25c.44.17.77.38.98.63.21.25.35.57.44.96.05.24.07.67.07,1.3v1.88c0,1.31.03,2.13.09,2.48.06.35.18.68.36,1h-1.47c-.15-.29-.24-.63-.28-1.02Zm-.12-3.14c-.51.21-1.28.39-2.3.53-.58.08-.99.18-1.23.28-.24.1-.42.26-.55.46-.13.2-.2.42-.2.67,0,.38.14.69.43.94.28.25.7.38,1.25.38s1.02-.12,1.45-.36c.42-.24.73-.56.93-.97.15-.32.23-.79.23-1.41v-.52Z"/><path d="m639.32,400.08v-8.3h1.27v1.26c.32-.59.62-.98.89-1.16s.57-.28.9-.28c.47,0,.96.15,1.45.45l-.48,1.3c-.34-.2-.69-.3-1.03-.3-.31,0-.58.09-.83.28-.25.19-.42.44-.52.77-.16.5-.23,1.05-.23,1.64v4.34h-1.41Z"/><path d="m647.73,398.83l.2,1.24c-.4.08-.75.12-1.06.12-.51,0-.91-.08-1.19-.24s-.48-.37-.59-.64c-.11-.26-.17-.82-.17-1.66v-4.77h-1.03v-1.09h1.03v-2.05l1.4-.84v2.9h1.41v1.09h-1.41v4.85c0,.4.02.66.07.77.05.11.13.21.24.27.11.07.27.1.48.1.16,0,.36-.02.62-.05Z"/><path d="m648.54,397.61l1.39-.22c.08.56.3.98.65,1.28.36.3.86.45,1.5.45s1.12-.13,1.44-.39c.31-.26.47-.57.47-.93,0-.32-.14-.57-.41-.75-.19-.12-.67-.28-1.44-.48-1.03-.26-1.75-.49-2.14-.68-.4-.19-.7-.45-.91-.79-.21-.34-.31-.71-.31-1.11,0-.37.08-.71.25-1.03.17-.31.4-.58.69-.79.22-.16.52-.3.89-.41.38-.11.78-.17,1.21-.17.65,0,1.22.09,1.71.28s.86.44,1.09.76.4.75.48,1.29l-1.38.19c-.06-.43-.24-.76-.54-1-.3-.24-.72-.36-1.27-.36-.65,0-1.11.11-1.38.32-.28.21-.41.46-.41.75,0,.18.06.35.17.49.11.15.29.28.54.38.14.05.55.17,1.24.36.99.27,1.69.48,2.08.65.39.17.7.42.93.74.22.32.34.72.34,1.2s-.14.91-.41,1.32-.67.73-1.18.96-1.1.34-1.75.34c-1.08,0-1.9-.22-2.46-.67-.57-.45-.93-1.11-1.08-1.99Z"/><path d="m661.56,390.25v-1.62h1.41v1.62h-1.41Zm0,9.84v-8.3h1.41v8.3h-1.41Z"/><path d="m665.11,400.08v-8.3h1.27v1.18c.61-.91,1.49-1.37,2.64-1.37.5,0,.96.09,1.38.27.42.18.73.42.94.71.21.29.35.64.44,1.04.05.26.08.72.08,1.37v5.1h-1.41v-5.05c0-.57-.05-1-.16-1.29-.11-.28-.3-.51-.58-.68-.28-.17-.61-.25-.98-.25-.6,0-1.12.19-1.55.57-.44.38-.65,1.1-.65,2.16v4.53h-1.41Z"/><path d="m679.42,397.04l1.38.18c-.15.95-.54,1.7-1.16,2.24-.62.54-1.39.81-2.29.81-1.14,0-2.05-.37-2.74-1.11-.69-.74-1.04-1.81-1.04-3.19,0-.9.15-1.68.45-2.35s.75-1.18,1.36-1.51c.61-.34,1.27-.5,1.98-.5.9,0,1.64.23,2.21.68.57.46.94,1.1,1.1,1.94l-1.37.21c-.13-.56-.36-.98-.69-1.26-.33-.28-.73-.42-1.2-.42-.71,0-1.28.25-1.73.76-.44.51-.66,1.31-.66,2.41s.21,1.92.64,2.43c.43.51.98.76,1.67.76.55,0,1.01-.17,1.38-.51.37-.34.6-.86.7-1.56Z"/><path d="m681.97,400.08v-11.45h1.41v11.45h-1.41Z"/><path d="m691,400.08v-1.22c-.65.94-1.52,1.41-2.63,1.41-.49,0-.95-.09-1.37-.28-.42-.19-.74-.42-.95-.71-.21-.28-.35-.63-.43-1.04-.06-.28-.09-.71-.09-1.31v-5.14h1.41v4.6c0,.73.03,1.23.09,1.48.09.37.28.66.56.87.29.21.64.32,1.06.32s.82-.11,1.19-.32c.37-.22.63-.51.79-.88.15-.37.23-.91.23-1.62v-4.45h1.41v8.3h-1.26Z"/><path d="m699.84,400.08v-1.05c-.53.82-1.3,1.23-2.32,1.23-.66,0-1.27-.18-1.82-.55s-.98-.87-1.29-1.53c-.3-.65-.46-1.4-.46-2.25s.14-1.58.41-2.25c.28-.67.69-1.19,1.24-1.55.55-.36,1.17-.54,1.85-.54.5,0,.95.11,1.34.32s.71.49.95.82v-4.11h1.4v11.45h-1.3Zm-4.45-4.14c0,1.06.22,1.86.67,2.38.45.53.98.79,1.59.79s1.14-.25,1.57-.75c.43-.5.64-1.27.64-2.3,0-1.14-.22-1.97-.66-2.5s-.98-.8-1.62-.8-1.15.26-1.57.77c-.42.51-.63,1.32-.63,2.41Z"/><path d="m709.04,397.41l1.45.18c-.23.85-.65,1.51-1.27,1.98-.62.47-1.41.7-2.38.7-1.21,0-2.18-.37-2.89-1.12-.71-.75-1.07-1.8-1.07-3.14s.36-2.48,1.08-3.25c.72-.77,1.65-1.16,2.8-1.16s2.02.38,2.72,1.13c.7.76,1.05,1.82,1.05,3.19,0,.08,0,.21,0,.38h-6.19c.05.91.31,1.61.77,2.09.46.48,1.04.73,1.73.73.52,0,.96-.14,1.32-.41.36-.27.65-.7.87-1.3Zm-4.62-2.27h4.63c-.06-.7-.24-1.22-.53-1.57-.45-.54-1.03-.81-1.74-.81-.65,0-1.19.22-1.63.65-.44.43-.68,1.01-.73,1.73Z"/><path d="m716.18,395.94c0-1.54.43-2.67,1.28-3.41.71-.61,1.58-.92,2.61-.92,1.14,0,2.07.37,2.8,1.12.72.75,1.09,1.78,1.09,3.1,0,1.07-.16,1.91-.48,2.52-.32.61-.79,1.09-1.4,1.43-.61.34-1.28.51-2,.51-1.16,0-2.1-.37-2.82-1.12-.72-.74-1.07-1.82-1.07-3.22Zm1.45,0c0,1.06.23,1.86.7,2.39.46.53,1.05.79,1.75.79s1.28-.27,1.74-.8c.46-.53.7-1.34.7-2.43,0-1.03-.23-1.8-.7-2.33-.47-.53-1.05-.79-1.74-.79s-1.29.26-1.75.79c-.46.53-.7,1.32-.7,2.38Z"/><path d="m725.6,400.08v-8.3h1.27v1.18c.61-.91,1.49-1.37,2.64-1.37.5,0,.96.09,1.38.27.42.18.73.42.94.71.21.29.35.64.44,1.04.05.26.08.72.08,1.37v5.1h-1.41v-5.05c0-.57-.05-1-.16-1.29-.11-.28-.3-.51-.58-.68-.28-.17-.61-.25-.98-.25-.6,0-1.12.19-1.55.57-.44.38-.65,1.1-.65,2.16v4.53h-1.41Z"/><path d="m740.18,397.41l1.45.18c-.23.85-.65,1.51-1.27,1.98-.62.47-1.41.7-2.38.7-1.21,0-2.18-.37-2.89-1.12-.71-.75-1.07-1.8-1.07-3.14s.36-2.48,1.08-3.25c.72-.77,1.65-1.16,2.8-1.16s2.02.38,2.72,1.13c.7.76,1.05,1.82,1.05,3.19,0,.08,0,.21,0,.38h-6.19c.05.91.31,1.61.77,2.09.46.48,1.04.73,1.73.73.52,0,.96-.14,1.32-.41.36-.27.65-.7.87-1.3Zm-4.62-2.27h4.63c-.06-.7-.24-1.22-.53-1.57-.45-.54-1.03-.81-1.74-.81-.65,0-1.19.22-1.63.65-.44.43-.68,1.01-.73,1.73Z"/><path d="m747.32,395.94c0-1.54.43-2.67,1.28-3.41.71-.61,1.58-.92,2.61-.92,1.14,0,2.07.37,2.8,1.12.72.75,1.09,1.78,1.09,3.1,0,1.07-.16,1.91-.48,2.52-.32.61-.79,1.09-1.4,1.43-.61.34-1.28.51-2,.51-1.16,0-2.1-.37-2.82-1.12-.72-.74-1.07-1.82-1.07-3.22Zm1.45,0c0,1.06.23,1.86.7,2.39.46.53,1.05.79,1.75.79s1.28-.27,1.74-.8c.46-.53.7-1.34.7-2.43,0-1.03-.23-1.8-.7-2.33-.47-.53-1.05-.79-1.74-.79s-1.29.26-1.75.79c-.46.53-.7,1.32-.7,2.38Z"/><path d="m756.72,400.08v-8.3h1.27v1.26c.32-.59.62-.98.89-1.16s.57-.28.9-.28c.47,0,.96.15,1.45.45l-.48,1.3c-.34-.2-.69-.3-1.03-.3-.31,0-.58.09-.83.28-.25.19-.42.44-.52.77-.16.5-.23,1.05-.23,1.64v4.34h-1.41Z"/><path d="m766.51,400.08v-8.3h1.26v1.16c.26-.41.61-.73,1.04-.98.43-.25.92-.37,1.48-.37.61,0,1.12.13,1.51.38.39.26.67.61.83,1.07.66-.97,1.51-1.45,2.56-1.45.82,0,1.46.23,1.9.68.44.46.66,1.16.66,2.11v5.7h-1.4v-5.23c0-.56-.05-.97-.14-1.21-.09-.25-.26-.45-.5-.6-.24-.15-.52-.23-.84-.23-.58,0-1.07.19-1.45.58-.39.39-.58,1.01-.58,1.86v4.82h-1.41v-5.39c0-.62-.11-1.09-.34-1.41-.23-.31-.6-.47-1.12-.47-.4,0-.76.1-1.1.31-.34.21-.58.51-.73.91-.15.4-.23.98-.23,1.73v4.3h-1.41Z"/><path d="m779.32,395.94c0-1.54.43-2.67,1.28-3.41.71-.61,1.58-.92,2.61-.92,1.14,0,2.07.37,2.8,1.12.72.75,1.09,1.78,1.09,3.1,0,1.07-.16,1.91-.48,2.52-.32.61-.79,1.09-1.4,1.43-.61.34-1.28.51-2,.51-1.16,0-2.1-.37-2.82-1.12-.72-.74-1.07-1.82-1.07-3.22Zm1.45,0c0,1.06.23,1.86.7,2.39.46.53,1.05.79,1.75.79s1.28-.27,1.74-.8c.46-.53.7-1.34.7-2.43,0-1.03-.23-1.8-.7-2.33-.47-.53-1.05-.79-1.74-.79s-1.29.26-1.75.79c-.46.53-.7,1.32-.7,2.38Z"/><path d="m788.72,400.08v-8.3h1.27v1.26c.32-.59.62-.98.89-1.16s.57-.28.9-.28c.47,0,.96.15,1.45.45l-.48,1.3c-.34-.2-.69-.3-1.03-.3-.31,0-.58.09-.83.28-.25.19-.42.44-.52.77-.16.5-.23,1.05-.23,1.64v4.34h-1.41Z"/><path d="m799.75,397.41l1.45.18c-.23.85-.65,1.51-1.27,1.98-.62.47-1.41.7-2.38.7-1.21,0-2.18-.37-2.89-1.12-.71-.75-1.07-1.8-1.07-3.14s.36-2.48,1.08-3.25c.72-.77,1.65-1.16,2.8-1.16s2.02.38,2.72,1.13c.7.76,1.05,1.82,1.05,3.19,0,.08,0,.21,0,.38h-6.19c.05.91.31,1.61.77,2.09.46.48,1.04.73,1.73.73.52,0,.96-.14,1.32-.41.36-.27.65-.7.87-1.3Zm-4.62-2.27h4.63c-.06-.7-.24-1.22-.53-1.57-.45-.54-1.03-.81-1.74-.81-.65,0-1.19.22-1.63.65-.44.43-.68,1.01-.73,1.73Z"/><path d="m808.71,400.08h-1.3v-11.45h1.41v4.09c.59-.74,1.35-1.12,2.27-1.12.51,0,.99.1,1.45.31.46.21.83.5,1.12.87.29.37.52.82.69,1.35.17.53.25,1.09.25,1.69,0,1.42-.35,2.52-1.05,3.3-.7.78-1.55,1.16-2.53,1.16s-1.75-.41-2.3-1.23v1.04Zm-.02-4.21c0,1,.14,1.71.41,2.16.44.72,1.04,1.09,1.8,1.09.61,0,1.15-.27,1.59-.8.45-.53.67-1.33.67-2.39s-.21-1.88-.64-2.4-.95-.77-1.56-.77-1.15.27-1.59.8c-.45.53-.67,1.31-.67,2.32Z"/><path d="m816.32,390.25v-1.62h1.41v1.62h-1.41Zm0,9.84v-8.3h1.41v8.3h-1.41Z"/><path d="m822.94,398.83l.2,1.24c-.4.08-.75.12-1.06.12-.51,0-.91-.08-1.19-.24s-.48-.37-.59-.64c-.11-.26-.17-.82-.17-1.66v-4.77h-1.03v-1.09h1.03v-2.05l1.4-.84v2.9h1.41v1.09h-1.41v4.85c0,.4.02.66.07.77.05.11.13.21.24.27.11.07.27.1.48.1.16,0,.36-.02.62-.05Z"/><path d="m823.75,397.61l1.39-.22c.08.56.3.98.65,1.28.36.3.86.45,1.5.45s1.12-.13,1.44-.39c.31-.26.47-.57.47-.93,0-.32-.14-.57-.41-.75-.19-.12-.67-.28-1.44-.48-1.03-.26-1.75-.49-2.14-.68-.4-.19-.7-.45-.91-.79-.21-.34-.31-.71-.31-1.11,0-.37.08-.71.25-1.03.17-.31.4-.58.69-.79.22-.16.52-.3.89-.41.38-.11.78-.17,1.21-.17.65,0,1.22.09,1.71.28s.86.44,1.09.76.4.75.48,1.29l-1.38.19c-.06-.43-.24-.76-.54-1-.3-.24-.72-.36-1.27-.36-.65,0-1.11.11-1.38.32-.28.21-.41.46-.41.75,0,.18.06.35.17.49.11.15.29.28.54.38.14.05.55.17,1.24.36.99.27,1.69.48,2.08.65.39.17.7.42.93.74.22.32.34.72.34,1.2s-.14.91-.41,1.32-.67.73-1.18.96-1.1.34-1.75.34c-1.08,0-1.9-.22-2.46-.67-.57-.45-.93-1.11-1.08-1.99Z"/><path d="m835.38,398.83l.2,1.24c-.4.08-.75.12-1.06.12-.51,0-.91-.08-1.19-.24s-.48-.37-.59-.64c-.11-.26-.17-.82-.17-1.66v-4.77h-1.03v-1.09h1.03v-2.05l1.4-.84v2.9h1.41v1.09h-1.41v4.85c0,.4.02.66.07.77.05.11.13.21.24.27.11.07.27.1.48.1.16,0,.36-.02.62-.05Z"/><path d="m836.74,400.08v-8.3h1.27v1.26c.32-.59.62-.98.89-1.16s.57-.28.9-.28c.47,0,.96.15,1.45.45l-.48,1.3c-.34-.2-.69-.3-1.03-.3-.31,0-.58.09-.83.28-.25.19-.42.44-.52.77-.16.5-.23,1.05-.23,1.64v4.34h-1.41Z"/><path d="m842.09,390.25v-1.62h1.41v1.62h-1.41Zm0,9.84v-8.3h1.41v8.3h-1.41Z"/><path d="m845.64,400.08v-8.3h1.27v1.18c.61-.91,1.49-1.37,2.64-1.37.5,0,.96.09,1.38.27.42.18.73.42.94.71.21.29.35.64.44,1.04.05.26.08.72.08,1.37v5.1h-1.41v-5.05c0-.57-.05-1-.16-1.29-.11-.28-.3-.51-.58-.68-.28-.17-.61-.25-.98-.25-.6,0-1.12.19-1.55.57-.44.38-.65,1.1-.65,2.16v4.53h-1.41Z"/><path d="m854.28,400.77l1.37.2c.06.42.22.73.48.92.35.26.83.39,1.43.39.65,0,1.15-.13,1.51-.39.35-.26.59-.62.72-1.09.07-.29.11-.89.1-1.8-.61.72-1.38,1.09-2.3,1.09-1.14,0-2.02-.41-2.65-1.23-.62-.82-.94-1.81-.94-2.96,0-.79.14-1.52.43-2.19.29-.67.7-1.19,1.25-1.55.54-.36,1.18-.55,1.92-.55.98,0,1.79.4,2.42,1.19v-1h1.3v7.17c0,1.29-.13,2.21-.39,2.75-.26.54-.68.96-1.25,1.28s-1.27.47-2.11.47c-.99,0-1.79-.22-2.4-.67s-.9-1.12-.88-2.01Zm1.16-4.98c0,1.09.22,1.88.65,2.38.43.5.97.75,1.62.75s1.19-.25,1.62-.75c.44-.5.66-1.28.66-2.34s-.23-1.78-.68-2.3c-.45-.52-.99-.77-1.63-.77s-1.16.25-1.59.76-.66,1.26-.66,2.26Z"/><path d="m862.87,397.61l1.39-.22c.08.56.3.98.65,1.28.36.3.86.45,1.5.45s1.12-.13,1.44-.39c.31-.26.47-.57.47-.93,0-.32-.14-.57-.41-.75-.19-.12-.67-.28-1.44-.48-1.03-.26-1.75-.49-2.14-.68-.4-.19-.7-.45-.91-.79-.21-.34-.31-.71-.31-1.11,0-.37.08-.71.25-1.03.17-.31.4-.58.69-.79.22-.16.52-.3.89-.41.38-.11.78-.17,1.21-.17.65,0,1.22.09,1.71.28s.86.44,1.09.76.4.75.48,1.29l-1.38.19c-.06-.43-.24-.76-.54-1-.3-.24-.72-.36-1.27-.36-.65,0-1.11.11-1.38.32-.28.21-.41.46-.41.75,0,.18.06.35.17.49.11.15.29.28.54.38.14.05.55.17,1.24.36.99.27,1.69.48,2.08.65.39.17.7.42.93.74.22.32.34.72.34,1.2s-.14.91-.41,1.32-.67.73-1.18.96-1.1.34-1.75.34c-1.08,0-1.9-.22-2.46-.67-.57-.45-.93-1.11-1.08-1.99Z"/><path d="m878.95,398.83l.2,1.24c-.4.08-.75.12-1.06.12-.51,0-.91-.08-1.19-.24s-.48-.37-.59-.64c-.11-.26-.17-.82-.17-1.66v-4.77h-1.03v-1.09h1.03v-2.05l1.4-.84v2.9h1.41v1.09h-1.41v4.85c0,.4.02.66.07.77.05.11.13.21.24.27.11.07.27.1.48.1.16,0,.36-.02.62-.05Z"/><path d="m880.33,400.08v-11.45h1.41v4.11c.66-.76,1.48-1.14,2.48-1.14.61,0,1.15.12,1.6.36s.78.58.97,1c.2.43.29,1.05.29,1.86v5.26h-1.41v-5.26c0-.7-.15-1.21-.46-1.54s-.74-.48-1.29-.48c-.42,0-.81.11-1.18.32-.37.22-.63.51-.79.88-.16.37-.23.88-.23,1.53v4.54h-1.41Z"/><path d="m894.64,399.06c-.52.44-1.02.76-1.5.94-.48.18-1,.27-1.55.27-.91,0-1.61-.22-2.1-.67-.49-.45-.73-1.01-.73-1.71,0-.41.09-.78.28-1.11.18-.34.43-.61.73-.81.3-.2.64-.36,1.01-.46.28-.07.69-.14,1.25-.21,1.14-.14,1.97-.3,2.51-.48,0-.19,0-.31,0-.37,0-.57-.13-.98-.4-1.21-.36-.32-.89-.48-1.6-.48-.66,0-1.15.12-1.46.35-.32.23-.55.64-.7,1.23l-1.38-.19c.12-.59.33-1.06.62-1.43.29-.36.7-.64,1.24-.84.54-.2,1.17-.29,1.88-.29s1.28.08,1.73.25c.44.17.77.38.98.63.21.25.35.57.44.96.05.24.07.67.07,1.3v1.88c0,1.31.03,2.13.09,2.48.06.35.18.68.36,1h-1.47c-.15-.29-.24-.63-.28-1.02Zm-.12-3.14c-.51.21-1.28.39-2.3.53-.58.08-.99.18-1.23.28-.24.1-.42.26-.55.46-.13.2-.2.42-.2.67,0,.38.14.69.43.94.28.25.7.38,1.25.38s1.02-.12,1.45-.36c.42-.24.73-.56.93-.97.15-.32.23-.79.23-1.41v-.52Z"/><path d="m901.19,398.83l.2,1.24c-.4.08-.75.12-1.06.12-.51,0-.91-.08-1.19-.24s-.48-.37-.59-.64c-.11-.26-.17-.82-.17-1.66v-4.77h-1.03v-1.09h1.03v-2.05l1.4-.84v2.9h1.41v1.09h-1.41v4.85c0,.4.02.66.07.77.05.11.13.21.24.27.11.07.27.1.48.1.16,0,.36-.02.62-.05Z"/><path d="m907.35,400.08v-7.2h-1.24v-1.09h1.24v-.88c0-.56.05-.97.15-1.24.14-.36.37-.66.71-.89.34-.23.82-.34,1.43-.34.4,0,.83.05,1.31.14l-.21,1.23c-.29-.05-.57-.08-.83-.08-.43,0-.73.09-.91.27-.18.18-.27.52-.27,1.02v.77h1.62v1.09h-1.62v7.2h-1.4Z"/><path d="m910.94,395.94c0-1.54.43-2.67,1.28-3.41.71-.61,1.58-.92,2.61-.92,1.14,0,2.07.37,2.8,1.12.72.75,1.09,1.78,1.09,3.1,0,1.07-.16,1.91-.48,2.52-.32.61-.79,1.09-1.4,1.43-.61.34-1.28.51-2,.51-1.16,0-2.1-.37-2.82-1.12-.72-.74-1.07-1.82-1.07-3.22Zm1.45,0c0,1.06.23,1.86.7,2.39.46.53,1.05.79,1.75.79s1.28-.27,1.74-.8c.46-.53.7-1.34.7-2.43,0-1.03-.23-1.8-.7-2.33-.47-.53-1.05-.79-1.74-.79s-1.29.26-1.75.79c-.46.53-.7,1.32-.7,2.38Z"/><path d="m920.33,400.08v-11.45h1.41v11.45h-1.41Z"/><path d="m923.88,400.08v-11.45h1.41v11.45h-1.41Z"/><path d="m926.94,395.94c0-1.54.43-2.67,1.28-3.41.71-.61,1.58-.92,2.61-.92,1.14,0,2.07.37,2.8,1.12.72.75,1.09,1.78,1.09,3.1,0,1.07-.16,1.91-.48,2.52-.32.61-.79,1.09-1.4,1.43-.61.34-1.28.51-2,.51-1.16,0-2.1-.37-2.82-1.12-.72-.74-1.07-1.82-1.07-3.22Zm1.45,0c0,1.06.23,1.86.7,2.39.46.53,1.05.79,1.75.79s1.28-.27,1.74-.8c.46-.53.7-1.34.7-2.43,0-1.03-.23-1.8-.7-2.33-.47-.53-1.05-.79-1.74-.79s-1.29.26-1.75.79c-.46.53-.7,1.32-.7,2.38Z"/><path d="m937.9,400.08l-2.54-8.3h1.45l1.32,4.79.49,1.78c.02-.09.16-.66.43-1.71l1.32-4.86h1.45l1.24,4.81.41,1.59.48-1.6,1.42-4.8h1.37l-2.59,8.3h-1.46l-1.32-4.97-.32-1.41-1.68,6.38h-1.47Z"/><path d="m626.95,418.26c-.52.44-1.02.76-1.5.94-.48.18-1,.27-1.55.27-.91,0-1.61-.22-2.1-.67-.49-.45-.73-1.01-.73-1.71,0-.41.09-.78.28-1.11.18-.34.43-.61.73-.81.3-.2.64-.36,1.01-.46.28-.07.69-.14,1.25-.21,1.14-.14,1.97-.3,2.51-.48,0-.19,0-.31,0-.37,0-.57-.13-.98-.4-1.21-.36-.32-.89-.48-1.6-.48-.66,0-1.15.12-1.46.35-.32.23-.55.64-.7,1.23l-1.38-.19c.12-.59.33-1.06.62-1.43.29-.36.7-.64,1.24-.84.54-.2,1.17-.29,1.88-.29s1.28.08,1.73.25c.44.17.77.38.98.63.21.25.35.57.44.96.05.24.07.67.07,1.3v1.88c0,1.31.03,2.13.09,2.48.06.35.18.68.36,1h-1.47c-.15-.29-.24-.63-.28-1.02Zm-.12-3.14c-.51.21-1.28.39-2.3.53-.58.08-.99.18-1.23.28-.24.1-.42.26-.55.46-.13.2-.2.42-.2.67,0,.38.14.69.43.94.28.25.7.38,1.25.38s1.02-.12,1.45-.36c.42-.24.73-.56.93-.97.15-.32.23-.79.23-1.41v-.52Z"/><path d="m634.32,416.81l1.39-.22c.08.56.3.98.65,1.28.36.3.86.45,1.5.45s1.12-.13,1.44-.39c.31-.26.47-.57.47-.93,0-.32-.14-.57-.41-.75-.19-.12-.67-.28-1.44-.48-1.03-.26-1.75-.49-2.14-.68-.4-.19-.7-.45-.91-.79-.21-.34-.31-.71-.31-1.11,0-.37.08-.71.25-1.03.17-.31.4-.58.69-.79.22-.16.52-.3.89-.41.38-.11.78-.17,1.21-.17.65,0,1.22.09,1.71.28s.86.44,1.09.76.4.75.48,1.29l-1.38.19c-.06-.43-.24-.76-.54-1-.3-.24-.72-.36-1.27-.36-.65,0-1.11.11-1.38.32-.28.21-.41.46-.41.75,0,.18.06.35.17.49.11.15.29.28.54.38.14.05.55.17,1.24.36.99.27,1.69.48,2.08.65.39.17.7.42.93.74.22.32.34.72.34,1.2s-.14.91-.41,1.32-.67.73-1.18.96-1.1.34-1.75.34c-1.08,0-1.9-.22-2.46-.67-.57-.45-.93-1.11-1.08-1.99Z"/><path d="m648.56,416.61l1.45.18c-.23.85-.65,1.51-1.27,1.98-.62.47-1.41.7-2.38.7-1.21,0-2.18-.37-2.89-1.12-.71-.75-1.07-1.8-1.07-3.14s.36-2.48,1.08-3.25c.72-.77,1.65-1.16,2.8-1.16s2.02.38,2.72,1.13c.7.76,1.05,1.82,1.05,3.19,0,.08,0,.21,0,.38h-6.19c.05.91.31,1.61.77,2.09.46.48,1.04.73,1.73.73.52,0,.96-.14,1.32-.41.36-.27.65-.7.87-1.3Zm-4.62-2.27h4.63c-.06-.7-.24-1.22-.53-1.57-.45-.54-1.03-.81-1.74-.81-.65,0-1.19.22-1.63.65-.44.43-.68,1.01-.73,1.73Z"/><path d="m654.85,418.03l.2,1.24c-.4.08-.75.12-1.06.12-.51,0-.91-.08-1.19-.24s-.48-.37-.59-.64c-.11-.26-.17-.82-.17-1.66v-4.77h-1.03v-1.09h1.03v-2.05l1.4-.84v2.9h1.41v1.09h-1.41v4.85c0,.4.02.66.07.77.05.11.13.21.24.27.11.07.27.1.48.1.16,0,.36-.02.62-.05Z"/><path d="m660.15,415.13c0-1.54.43-2.67,1.28-3.41.71-.61,1.58-.92,2.61-.92,1.14,0,2.07.37,2.8,1.12.72.75,1.09,1.78,1.09,3.1,0,1.07-.16,1.91-.48,2.52-.32.61-.79,1.09-1.4,1.43-.61.34-1.28.51-2,.51-1.16,0-2.1-.37-2.82-1.12-.72-.74-1.07-1.82-1.07-3.22Zm1.45,0c0,1.06.23,1.86.7,2.39.46.53,1.05.79,1.75.79s1.28-.27,1.74-.8c.46-.53.7-1.34.7-2.43,0-1.03-.23-1.8-.7-2.33-.47-.53-1.05-.79-1.74-.79s-1.29.26-1.75.79c-.46.53-.7,1.32-.7,2.38Z"/><path d="m669.9,419.28v-7.2h-1.24v-1.09h1.24v-.88c0-.56.05-.97.15-1.24.14-.36.37-.66.71-.89.34-.23.82-.34,1.43-.34.4,0,.83.05,1.31.14l-.21,1.23c-.29-.05-.57-.08-.83-.08-.43,0-.73.09-.91.27-.18.18-.27.52-.27,1.02v.77h1.62v1.09h-1.62v7.2h-1.4Z"/><path d="m677.9,416.81l1.39-.22c.08.56.3.98.65,1.28.36.3.86.45,1.5.45s1.12-.13,1.44-.39c.31-.26.47-.57.47-.93,0-.32-.14-.57-.41-.75-.19-.12-.67-.28-1.44-.48-1.03-.26-1.75-.49-2.14-.68-.4-.19-.7-.45-.91-.79-.21-.34-.31-.71-.31-1.11,0-.37.08-.71.25-1.03.17-.31.4-.58.69-.79.22-.16.52-.3.89-.41.38-.11.78-.17,1.21-.17.65,0,1.22.09,1.71.28s.86.44,1.09.76.4.75.48,1.29l-1.38.19c-.06-.43-.24-.76-.54-1-.3-.24-.72-.36-1.27-.36-.65,0-1.11.11-1.38.32-.28.21-.41.46-.41.75,0,.18.06.35.17.49.11.15.29.28.54.38.14.05.55.17,1.24.36.99.27,1.69.48,2.08.65.39.17.7.42.93.74.22.32.34.72.34,1.2s-.14.91-.41,1.32-.67.73-1.18.96-1.1.34-1.75.34c-1.08,0-1.9-.22-2.46-.67-.57-.45-.93-1.11-1.08-1.99Z"/><path d="m686.4,422.48l-.16-1.32c.31.08.58.12.8.12.31,0,.56-.05.75-.16.19-.1.34-.25.46-.44.09-.14.23-.49.43-1.05.03-.08.07-.19.12-.34l-3.15-8.31h1.52l1.73,4.8c.22.61.42,1.25.6,1.92.16-.65.35-1.28.58-1.89l1.77-4.84h1.41l-3.16,8.44c-.34.91-.6,1.54-.79,1.88-.25.46-.54.8-.86,1.02-.32.22-.71.32-1.16.32-.27,0-.57-.06-.91-.17Z"/><path d="m694.46,419.28v-8.3h1.27v1.18c.61-.91,1.49-1.37,2.64-1.37.5,0,.96.09,1.38.27.42.18.73.42.94.71.21.29.35.64.44,1.04.05.26.08.72.08,1.37v5.1h-1.41v-5.05c0-.57-.05-1-.16-1.29-.11-.28-.3-.51-.58-.68-.28-.17-.61-.25-.98-.25-.6,0-1.12.19-1.55.57-.44.38-.65,1.1-.65,2.16v4.53h-1.41Z"/><path d="m706.43,418.03l.2,1.24c-.4.08-.75.12-1.06.12-.51,0-.91-.08-1.19-.24s-.48-.37-.59-.64c-.11-.26-.17-.82-.17-1.66v-4.77h-1.03v-1.09h1.03v-2.05l1.4-.84v2.9h1.41v1.09h-1.41v4.85c0,.4.02.66.07.77.05.11.13.21.24.27.11.07.27.1.48.1.16,0,.36-.02.62-.05Z"/><path d="m713.22,418.26c-.52.44-1.02.76-1.5.94-.48.18-1,.27-1.55.27-.91,0-1.61-.22-2.1-.67-.49-.45-.73-1.01-.73-1.71,0-.41.09-.78.28-1.11.18-.34.43-.61.73-.81.3-.2.64-.36,1.01-.46.28-.07.69-.14,1.25-.21,1.14-.14,1.97-.3,2.51-.48,0-.19,0-.31,0-.37,0-.57-.13-.98-.4-1.21-.36-.32-.89-.48-1.6-.48-.66,0-1.15.12-1.46.35-.32.23-.55.64-.7,1.23l-1.38-.19c.12-.59.33-1.06.62-1.43.29-.36.7-.64,1.24-.84.54-.2,1.17-.29,1.88-.29s1.28.08,1.73.25c.44.17.77.38.98.63.21.25.35.57.44.96.05.24.07.67.07,1.3v1.88c0,1.31.03,2.13.09,2.48.06.35.18.68.36,1h-1.47c-.15-.29-.24-.63-.28-1.02Zm-.12-3.14c-.51.21-1.28.39-2.3.53-.58.08-.99.18-1.23.28-.24.1-.42.26-.55.46-.13.2-.2.42-.2.67,0,.38.14.69.43.94.28.25.7.38,1.25.38s1.02-.12,1.45-.36c.42-.24.73-.56.93-.97.15-.32.23-.79.23-1.41v-.52Z"/><path d="m722.11,416.24l1.38.18c-.15.95-.54,1.7-1.16,2.24-.62.54-1.39.81-2.29.81-1.14,0-2.05-.37-2.74-1.11-.69-.74-1.04-1.81-1.04-3.19,0-.9.15-1.68.45-2.35s.75-1.18,1.36-1.51c.61-.34,1.27-.5,1.98-.5.9,0,1.64.23,2.21.68.57.46.94,1.1,1.1,1.94l-1.37.21c-.13-.56-.36-.98-.69-1.26-.33-.28-.73-.42-1.2-.42-.71,0-1.28.25-1.73.76-.44.51-.66,1.31-.66,2.41s.21,1.92.64,2.43c.43.51.98.76,1.67.76.55,0,1.01-.17,1.38-.51.37-.34.6-.86.7-1.56Z"/><path d="m727.77,418.03l.2,1.24c-.4.08-.75.12-1.06.12-.51,0-.91-.08-1.19-.24s-.48-.37-.59-.64c-.11-.26-.17-.82-.17-1.66v-4.77h-1.03v-1.09h1.03v-2.05l1.4-.84v2.9h1.41v1.09h-1.41v4.85c0,.4.02.66.07.77.05.11.13.21.24.27.11.07.27.1.48.1.16,0,.36-.02.62-.05Z"/><path d="m729.15,409.45v-1.62h1.41v1.62h-1.41Zm0,9.84v-8.3h1.41v8.3h-1.41Z"/><path d="m738.11,416.24l1.38.18c-.15.95-.54,1.7-1.16,2.24-.62.54-1.39.81-2.29.81-1.14,0-2.05-.37-2.74-1.11-.69-.74-1.04-1.81-1.04-3.19,0-.9.15-1.68.45-2.35s.75-1.18,1.36-1.51c.61-.34,1.27-.5,1.98-.5.9,0,1.64.23,2.21.68.57.46.94,1.1,1.1,1.94l-1.37.21c-.13-.56-.36-.98-.69-1.26-.33-.28-.73-.42-1.2-.42-.71,0-1.28.25-1.73.76-.44.51-.66,1.31-.66,2.41s.21,1.92.64,2.43c.43.51.98.76,1.67.76.55,0,1.01-.17,1.38-.51.37-.34.6-.86.7-1.56Z"/><path d="m746.11,418.26c-.52.44-1.02.76-1.5.94-.48.18-1,.27-1.55.27-.91,0-1.61-.22-2.1-.67-.49-.45-.73-1.01-.73-1.71,0-.41.09-.78.28-1.11.18-.34.43-.61.73-.81.3-.2.64-.36,1.01-.46.28-.07.69-.14,1.25-.21,1.14-.14,1.97-.3,2.51-.48,0-.19,0-.31,0-.37,0-.57-.13-.98-.4-1.21-.36-.32-.89-.48-1.6-.48-.66,0-1.15.12-1.46.35-.32.23-.55.64-.7,1.23l-1.38-.19c.12-.59.33-1.06.62-1.43.29-.36.7-.64,1.24-.84.54-.2,1.17-.29,1.88-.29s1.28.08,1.73.25c.44.17.77.38.98.63.21.25.35.57.44.96.05.24.07.67.07,1.3v1.88c0,1.31.03,2.13.09,2.48.06.35.18.68.36,1h-1.47c-.15-.29-.24-.63-.28-1.02Zm-.12-3.14c-.51.21-1.28.39-2.3.53-.58.08-.99.18-1.23.28-.24.1-.42.26-.55.46-.13.2-.2.42-.2.67,0,.38.14.69.43.94.28.25.7.38,1.25.38s1.02-.12,1.45-.36c.42-.24.73-.56.93-.97.15-.32.23-.79.23-1.41v-.52Z"/><path d="m749.57,419.28v-11.45h1.41v11.45h-1.41Z"/><path d="m757.58,419.28v-8.3h1.27v1.26c.32-.59.62-.98.89-1.16s.57-.28.9-.28c.47,0,.96.15,1.45.45l-.48,1.3c-.34-.2-.69-.3-1.03-.3-.31,0-.58.09-.83.28-.25.19-.42.44-.52.77-.16.5-.23,1.05-.23,1.64v4.34h-1.41Z"/><path d="m768.36,419.28v-1.22c-.65.94-1.52,1.41-2.63,1.41-.49,0-.95-.09-1.37-.28-.42-.19-.74-.42-.95-.71-.21-.28-.35-.63-.43-1.04-.06-.28-.09-.71-.09-1.31v-5.14h1.41v4.6c0,.73.03,1.23.09,1.48.09.37.28.66.56.87.29.21.64.32,1.06.32s.82-.11,1.19-.32c.37-.22.63-.51.79-.88.15-.37.23-.91.23-1.62v-4.45h1.41v8.3h-1.26Z"/><path d="m771.79,419.28v-11.45h1.41v11.45h-1.41Z"/><path d="m781.06,416.61l1.45.18c-.23.85-.65,1.51-1.27,1.98-.62.47-1.41.7-2.38.7-1.21,0-2.18-.37-2.89-1.12-.71-.75-1.07-1.8-1.07-3.14s.36-2.48,1.08-3.25c.72-.77,1.65-1.16,2.8-1.16s2.02.38,2.72,1.13c.7.76,1.05,1.82,1.05,3.19,0,.08,0,.21,0,.38h-6.19c.05.91.31,1.61.77,2.09.46.48,1.04.73,1.73.73.52,0,.96-.14,1.32-.41.36-.27.65-.7.87-1.3Zm-4.62-2.27h4.63c-.06-.7-.24-1.22-.53-1.57-.45-.54-1.03-.81-1.74-.81-.65,0-1.19.22-1.63.65-.44.43-.68,1.01-.73,1.73Z"/><path d="m783.72,416.81l1.39-.22c.08.56.3.98.65,1.28.36.3.86.45,1.5.45s1.12-.13,1.44-.39c.31-.26.47-.57.47-.93,0-.32-.14-.57-.41-.75-.19-.12-.67-.28-1.44-.48-1.03-.26-1.75-.49-2.14-.68-.4-.19-.7-.45-.91-.79-.21-.34-.31-.71-.31-1.11,0-.37.08-.71.25-1.03.17-.31.4-.58.69-.79.22-.16.52-.3.89-.41.38-.11.78-.17,1.21-.17.65,0,1.22.09,1.71.28s.86.44,1.09.76.4.75.48,1.29l-1.38.19c-.06-.43-.24-.76-.54-1-.3-.24-.72-.36-1.27-.36-.65,0-1.11.11-1.38.32-.28.21-.41.46-.41.75,0,.18.06.35.17.49.11.15.29.28.54.38.14.05.55.17,1.24.36.99.27,1.69.48,2.08.65.39.17.7.42.93.74.22.32.34.72.34,1.2s-.14.91-.41,1.32-.67.73-1.18.96-1.1.34-1.75.34c-1.08,0-1.9-.22-2.46-.67-.57-.45-.93-1.11-1.08-1.99Z"/><path d="m620.46,241.35l4.4-11.45h1.63l4.69,11.45h-1.73l-1.34-3.47h-4.79l-1.26,3.47h-1.61Zm3.3-4.7h3.88l-1.2-3.17c-.36-.96-.64-1.75-.81-2.38-.15.73-.35,1.46-.62,2.19l-1.26,3.36Z"/><path d="m641.15,241.35v-1.05c-.53.82-1.3,1.23-2.32,1.23-.66,0-1.27-.18-1.82-.55s-.98-.87-1.29-1.53c-.3-.65-.46-1.4-.46-2.25s.14-1.58.41-2.25c.28-.67.69-1.19,1.24-1.55.55-.36,1.17-.54,1.85-.54.5,0,.95.11,1.34.32s.71.49.95.82v-4.11h1.4v11.45h-1.3Zm-4.45-4.14c0,1.06.22,1.86.67,2.38.45.53.98.79,1.59.79s1.14-.25,1.57-.75c.43-.5.64-1.27.64-2.3,0-1.14-.22-1.97-.66-2.5s-.98-.8-1.62-.8-1.15.26-1.57.77c-.42.51-.63,1.32-.63,2.41Z"/><path d="m644.68,231.51v-1.62h1.41v1.62h-1.41Zm0,9.84v-8.3h1.41v8.3h-1.41Z"/><path d="m647.97,242.04l1.37.2c.06.42.22.73.48.92.35.26.83.39,1.43.39.65,0,1.15-.13,1.51-.39.35-.26.59-.62.72-1.09.07-.29.11-.89.1-1.8-.61.72-1.38,1.09-2.3,1.09-1.14,0-2.02-.41-2.65-1.23-.62-.82-.94-1.81-.94-2.96,0-.79.14-1.52.43-2.19.29-.67.7-1.19,1.25-1.55.54-.36,1.18-.55,1.92-.55.98,0,1.79.4,2.42,1.19v-1h1.3v7.17c0,1.29-.13,2.21-.39,2.75-.26.54-.68.96-1.25,1.28s-1.27.47-2.11.47c-.99,0-1.79-.22-2.4-.67s-.9-1.12-.88-2.01Zm1.16-4.98c0,1.09.22,1.88.65,2.38.43.5.97.75,1.62.75s1.19-.25,1.62-.75c.44-.5.66-1.28.66-2.34s-.23-1.78-.68-2.3c-.45-.52-.99-.77-1.63-.77s-1.16.25-1.59.76-.66,1.26-.66,2.26Z"/><path d="m657.13,231.51v-1.62h1.41v1.62h-1.41Zm0,9.84v-8.3h1.41v8.3h-1.41Z"/><path d="m663.75,240.09l.2,1.24c-.4.08-.75.12-1.06.12-.51,0-.91-.08-1.19-.24s-.48-.37-.59-.64c-.11-.26-.17-.82-.17-1.66v-4.77h-1.03v-1.09h1.03v-2.05l1.4-.84v2.9h1.41v1.09h-1.41v4.85c0,.4.02.66.07.77.05.11.13.21.24.27.11.07.27.1.48.1.16,0,.36-.02.62-.05Z"/><path d="m670.54,240.32c-.52.44-1.02.76-1.5.94-.48.18-1,.27-1.55.27-.91,0-1.61-.22-2.1-.67-.49-.45-.73-1.01-.73-1.71,0-.41.09-.78.28-1.11.18-.34.43-.61.73-.81.3-.2.64-.36,1.01-.46.28-.07.69-.14,1.25-.21,1.14-.14,1.97-.3,2.51-.48,0-.19,0-.31,0-.37,0-.57-.13-.98-.4-1.21-.36-.32-.89-.48-1.6-.48-.66,0-1.15.12-1.46.35-.32.23-.55.64-.7,1.23l-1.38-.19c.12-.59.33-1.06.62-1.43.29-.36.7-.64,1.24-.84.54-.2,1.17-.29,1.88-.29s1.28.08,1.73.25c.44.17.77.38.98.63.21.25.35.57.44.96.05.24.07.67.07,1.3v1.88c0,1.31.03,2.13.09,2.48.06.35.18.68.36,1h-1.47c-.15-.29-.24-.63-.28-1.02Zm-.12-3.14c-.51.21-1.28.39-2.3.53-.58.08-.99.18-1.23.28-.24.1-.42.26-.55.46-.13.2-.2.42-.2.67,0,.38.14.69.43.94.28.25.7.38,1.25.38s1.02-.12,1.45-.36c.42-.24.73-.56.93-.97.15-.32.23-.79.23-1.41v-.52Z"/><path d="m673.99,241.35v-11.45h1.41v11.45h-1.41Z"/><path d="m681.5,237.2c0-1.54.43-2.67,1.28-3.41.71-.61,1.58-.92,2.61-.92,1.14,0,2.07.37,2.8,1.12.72.75,1.09,1.78,1.09,3.1,0,1.07-.16,1.91-.48,2.52-.32.61-.79,1.09-1.4,1.43-.61.34-1.28.51-2,.51-1.16,0-2.1-.37-2.82-1.12-.72-.74-1.07-1.82-1.07-3.22Zm1.45,0c0,1.06.23,1.86.7,2.39.46.53,1.05.79,1.75.79s1.28-.27,1.74-.8c.46-.53.7-1.34.7-2.43,0-1.03-.23-1.8-.7-2.33-.47-.53-1.05-.79-1.74-.79s-1.29.26-1.75.79c-.46.53-.7,1.32-.7,2.38Z"/><path d="m692.22,241.35h-1.3v-11.45h1.41v4.09c.59-.74,1.35-1.12,2.27-1.12.51,0,.99.1,1.45.31.46.21.83.5,1.12.87.29.37.52.82.69,1.35.17.53.25,1.09.25,1.69,0,1.42-.35,2.52-1.05,3.3-.7.78-1.55,1.16-2.53,1.16s-1.75-.41-2.3-1.23v1.04Zm-.02-4.21c0,1,.14,1.71.41,2.16.44.72,1.04,1.09,1.8,1.09.61,0,1.15-.27,1.59-.8.45-.53.67-1.33.67-2.39s-.21-1.88-.64-2.4-.95-.77-1.56-.77-1.15.27-1.59.8c-.45.53-.67,1.31-.67,2.32Z"/><path d="m698.03,244.57l.27-1.2c.28.07.5.11.66.11.29,0,.5-.1.64-.29.14-.19.21-.67.21-1.43v-8.72h1.41v8.75c0,1.02-.13,1.73-.4,2.13-.34.52-.9.78-1.69.78-.38,0-.75-.05-1.1-.15Zm1.78-13.04v-1.63h1.41v1.63h-1.41Z"/><path d="m709.05,238.68l1.45.18c-.23.85-.65,1.51-1.27,1.98-.62.47-1.41.7-2.38.7-1.21,0-2.18-.37-2.89-1.12-.71-.75-1.07-1.8-1.07-3.14s.36-2.48,1.08-3.25c.72-.77,1.65-1.16,2.8-1.16s2.02.38,2.72,1.13c.7.76,1.05,1.82,1.05,3.19,0,.08,0,.21,0,.38h-6.19c.05.91.31,1.61.77,2.09.46.48,1.04.73,1.73.73.52,0,.96-.14,1.32-.41.36-.27.65-.7.87-1.3Zm-4.62-2.27h4.63c-.06-.7-.24-1.22-.53-1.57-.45-.54-1.03-.81-1.74-.81-.65,0-1.19.22-1.63.65-.44.43-.68,1.01-.73,1.73Z"/><path d="m717.69,238.31l1.38.18c-.15.95-.54,1.7-1.16,2.24-.62.54-1.39.81-2.29.81-1.14,0-2.05-.37-2.74-1.11-.69-.74-1.04-1.81-1.04-3.19,0-.9.15-1.68.45-2.35s.75-1.18,1.36-1.51c.61-.34,1.27-.5,1.98-.5.9,0,1.64.23,2.21.68.57.46.94,1.1,1.1,1.94l-1.37.21c-.13-.56-.36-.98-.69-1.26-.33-.28-.73-.42-1.2-.42-.71,0-1.28.25-1.73.76-.44.51-.66,1.31-.66,2.41s.21,1.92.64,2.43c.43.51.98.76,1.67.76.55,0,1.01-.17,1.38-.51.37-.34.6-.86.7-1.56Z"/><path d="m723.34,240.09l.2,1.24c-.4.08-.75.12-1.06.12-.51,0-.91-.08-1.19-.24s-.48-.37-.59-.64c-.11-.26-.17-.82-.17-1.66v-4.77h-1.03v-1.09h1.03v-2.05l1.4-.84v2.9h1.41v1.09h-1.41v4.85c0,.4.02.66.07.77.05.11.13.21.24.27.11.07.27.1.48.1.16,0,.36-.02.62-.05Z"/><path d="m730.69,241.35l-2.54-8.3h1.45l1.32,4.79.49,1.78c.02-.09.16-.66.43-1.71l1.32-4.86h1.45l1.24,4.81.41,1.59.48-1.6,1.42-4.8h1.37l-2.59,8.3h-1.46l-1.32-4.97-.32-1.41-1.68,6.38h-1.47Z"/><path d="m740.72,231.51v-1.62h1.41v1.62h-1.41Zm0,9.84v-8.3h1.41v8.3h-1.41Z"/><path d="m747.34,240.09l.2,1.24c-.4.08-.75.12-1.06.12-.51,0-.91-.08-1.19-.24s-.48-.37-.59-.64c-.11-.26-.17-.82-.17-1.66v-4.77h-1.03v-1.09h1.03v-2.05l1.4-.84v2.9h1.41v1.09h-1.41v4.85c0,.4.02.66.07.77.05.11.13.21.24.27.11.07.27.1.48.1.16,0,.36-.02.62-.05Z"/><path d="m748.72,241.35v-11.45h1.41v4.11c.66-.76,1.48-1.14,2.48-1.14.61,0,1.15.12,1.6.36s.78.58.97,1c.2.43.29,1.05.29,1.86v5.26h-1.41v-5.26c0-.7-.15-1.21-.46-1.54s-.74-.48-1.29-.48c-.42,0-.81.11-1.18.32-.37.22-.63.51-.79.88-.16.37-.23.88-.23,1.53v4.54h-1.41Z"/><path d="m767.47,240.32c-.52.44-1.02.76-1.5.94-.48.18-1,.27-1.55.27-.91,0-1.61-.22-2.1-.67-.49-.45-.73-1.01-.73-1.71,0-.41.09-.78.28-1.11.18-.34.43-.61.73-.81.3-.2.64-.36,1.01-.46.28-.07.69-.14,1.25-.21,1.14-.14,1.97-.3,2.51-.48,0-.19,0-.31,0-.37,0-.57-.13-.98-.4-1.21-.36-.32-.89-.48-1.6-.48-.66,0-1.15.12-1.46.35-.32.23-.55.64-.7,1.23l-1.38-.19c.12-.59.33-1.06.62-1.43.29-.36.7-.64,1.24-.84.54-.2,1.17-.29,1.88-.29s1.28.08,1.73.25c.44.17.77.38.98.63.21.25.35.57.44.96.05.24.07.67.07,1.3v1.88c0,1.31.03,2.13.09,2.48.06.35.18.68.36,1h-1.47c-.15-.29-.24-.63-.28-1.02Zm-.12-3.14c-.51.21-1.28.39-2.3.53-.58.08-.99.18-1.23.28-.24.1-.42.26-.55.46-.13.2-.2.42-.2.67,0,.38.14.69.43.94.28.25.7.38,1.25.38s1.02-.12,1.45-.36c.42-.24.73-.56.93-.97.15-.32.23-.79.23-1.41v-.52Z"/><path d="m774.84,238.87l1.39-.22c.08.56.3.98.65,1.28.36.3.86.45,1.5.45s1.12-.13,1.44-.39c.31-.26.47-.57.47-.93,0-.32-.14-.57-.41-.75-.19-.12-.67-.28-1.44-.48-1.03-.26-1.75-.49-2.14-.68-.4-.19-.7-.45-.91-.79-.21-.34-.31-.71-.31-1.11,0-.37.08-.71.25-1.03.17-.31.4-.58.69-.79.22-.16.52-.3.89-.41.38-.11.78-.17,1.21-.17.65,0,1.22.09,1.71.28s.86.44,1.09.76.4.75.48,1.29l-1.38.19c-.06-.43-.24-.76-.54-1-.3-.24-.72-.36-1.27-.36-.65,0-1.11.11-1.38.32-.28.21-.41.46-.41.75,0,.18.06.35.17.49.11.15.29.28.54.38.14.05.55.17,1.24.36.99.27,1.69.48,2.08.65.39.17.7.42.93.74.22.32.34.72.34,1.2s-.14.91-.41,1.32-.67.73-1.18.96-1.1.34-1.75.34c-1.08,0-1.9-.22-2.46-.67-.57-.45-.93-1.11-1.08-1.99Z"/><path d="m782.88,237.2c0-1.54.43-2.67,1.28-3.41.71-.61,1.58-.92,2.61-.92,1.14,0,2.07.37,2.8,1.12.72.75,1.09,1.78,1.09,3.1,0,1.07-.16,1.91-.48,2.52-.32.61-.79,1.09-1.4,1.43-.61.34-1.28.51-2,.51-1.16,0-2.1-.37-2.82-1.12-.72-.74-1.07-1.82-1.07-3.22Zm1.45,0c0,1.06.23,1.86.7,2.39.46.53,1.05.79,1.75.79s1.28-.27,1.74-.8c.46-.53.7-1.34.7-2.43,0-1.03-.23-1.8-.7-2.33-.47-.53-1.05-.79-1.74-.79s-1.29.26-1.75.79c-.46.53-.7,1.32-.7,2.38Z"/><path d="m797.72,238.31l1.38.18c-.15.95-.54,1.7-1.16,2.24-.62.54-1.39.81-2.29.81-1.14,0-2.05-.37-2.74-1.11-.69-.74-1.04-1.81-1.04-3.19,0-.9.15-1.68.45-2.35s.75-1.18,1.36-1.51c.61-.34,1.27-.5,1.98-.5.9,0,1.64.23,2.21.68.57.46.94,1.1,1.1,1.94l-1.37.21c-.13-.56-.36-.98-.69-1.26-.33-.28-.73-.42-1.2-.42-.71,0-1.28.25-1.73.76-.44.51-.66,1.31-.66,2.41s.21,1.92.64,2.43c.43.51.98.76,1.67.76.55,0,1.01-.17,1.38-.51.37-.34.6-.86.7-1.56Z"/><path d="m800.31,231.51v-1.62h1.41v1.62h-1.41Zm0,9.84v-8.3h1.41v8.3h-1.41Z"/><path d="m809.27,240.32c-.52.44-1.02.76-1.5.94-.48.18-1,.27-1.55.27-.91,0-1.61-.22-2.1-.67-.49-.45-.73-1.01-.73-1.71,0-.41.09-.78.28-1.11.18-.34.43-.61.73-.81.3-.2.64-.36,1.01-.46.28-.07.69-.14,1.25-.21,1.14-.14,1.97-.3,2.51-.48,0-.19,0-.31,0-.37,0-.57-.13-.98-.4-1.21-.36-.32-.89-.48-1.6-.48-.66,0-1.15.12-1.46.35-.32.23-.55.64-.7,1.23l-1.38-.19c.12-.59.33-1.06.62-1.43.29-.36.7-.64,1.24-.84.54-.2,1.17-.29,1.88-.29s1.28.08,1.73.25c.44.17.77.38.98.63.21.25.35.57.44.96.05.24.07.67.07,1.3v1.88c0,1.31.03,2.13.09,2.48.06.35.18.68.36,1h-1.47c-.15-.29-.24-.63-.28-1.02Zm-.12-3.14c-.51.21-1.28.39-2.3.53-.58.08-.99.18-1.23.28-.24.1-.42.26-.55.46-.13.2-.2.42-.2.67,0,.38.14.69.43.94.28.25.7.38,1.25.38s1.02-.12,1.45-.36c.42-.24.73-.56.93-.97.15-.32.23-.79.23-1.41v-.52Z"/><path d="m812.72,241.35v-11.45h1.41v11.45h-1.41Z"/><path d="m816.28,241.35v-11.45h1.41v11.45h-1.41Z"/><path d="m819.8,244.54l-.16-1.32c.31.08.58.12.8.12.31,0,.56-.05.75-.16.19-.1.34-.25.46-.44.09-.14.23-.49.43-1.05.03-.08.07-.19.12-.34l-3.15-8.31h1.52l1.73,4.8c.22.61.42,1.25.6,1.92.16-.65.35-1.28.58-1.89l1.77-4.84h1.41l-3.16,8.44c-.34.91-.6,1.54-.79,1.88-.25.46-.54.8-.86,1.02-.32.22-.71.32-1.16.32-.27,0-.57-.06-.91-.17Z"/><path d="m837.72,240.32c-.52.44-1.02.76-1.5.94-.48.18-1,.27-1.55.27-.91,0-1.61-.22-2.1-.67-.49-.45-.73-1.01-.73-1.71,0-.41.09-.78.28-1.11.18-.34.43-.61.73-.81.3-.2.64-.36,1.01-.46.28-.07.69-.14,1.25-.21,1.14-.14,1.97-.3,2.51-.48,0-.19,0-.31,0-.37,0-.57-.13-.98-.4-1.21-.36-.32-.89-.48-1.6-.48-.66,0-1.15.12-1.46.35-.32.23-.55.64-.7,1.23l-1.38-.19c.12-.59.33-1.06.62-1.43.29-.36.7-.64,1.24-.84.54-.2,1.17-.29,1.88-.29s1.28.08,1.73.25c.44.17.77.38.98.63.21.25.35.57.44.96.05.24.07.67.07,1.3v1.88c0,1.31.03,2.13.09,2.48.06.35.18.68.36,1h-1.47c-.15-.29-.24-.63-.28-1.02Zm-.12-3.14c-.51.21-1.28.39-2.3.53-.58.08-.99.18-1.23.28-.24.1-.42.26-.55.46-.13.2-.2.42-.2.67,0,.38.14.69.43.94.28.25.7.38,1.25.38s1.02-.12,1.45-.36c.42-.24.73-.56.93-.97.15-.32.23-.79.23-1.41v-.52Z"/><path d="m840.95,242.04l1.37.2c.06.42.22.73.48.92.35.26.83.39,1.43.39.65,0,1.15-.13,1.51-.39.35-.26.59-.62.72-1.09.07-.29.11-.89.1-1.8-.61.72-1.38,1.09-2.3,1.09-1.14,0-2.02-.41-2.65-1.23-.62-.82-.94-1.81-.94-2.96,0-.79.14-1.52.43-2.19.29-.67.7-1.19,1.25-1.55.54-.36,1.18-.55,1.92-.55.98,0,1.79.4,2.42,1.19v-1h1.3v7.17c0,1.29-.13,2.21-.39,2.75-.26.54-.68.96-1.25,1.28s-1.27.47-2.11.47c-.99,0-1.79-.22-2.4-.67s-.9-1.12-.88-2.01Zm1.16-4.98c0,1.09.22,1.88.65,2.38.43.5.97.75,1.62.75s1.19-.25,1.62-.75c.44-.5.66-1.28.66-2.34s-.23-1.78-.68-2.3c-.45-.52-.99-.77-1.63-.77s-1.16.25-1.59.76-.66,1.26-.66,2.26Z"/><path d="m850.09,241.35v-8.3h1.27v1.26c.32-.59.62-.98.89-1.16s.57-.28.9-.28c.47,0,.96.15,1.45.45l-.48,1.3c-.34-.2-.69-.3-1.03-.3-.31,0-.58.09-.83.28-.25.19-.42.44-.52.77-.16.5-.23,1.05-.23,1.64v4.34h-1.41Z"/><path d="m861.11,238.68l1.45.18c-.23.85-.65,1.51-1.27,1.98-.62.47-1.41.7-2.38.7-1.21,0-2.18-.37-2.89-1.12-.71-.75-1.07-1.8-1.07-3.14s.36-2.48,1.08-3.25c.72-.77,1.65-1.16,2.8-1.16s2.02.38,2.72,1.13c.7.76,1.05,1.82,1.05,3.19,0,.08,0,.21,0,.38h-6.19c.05.91.31,1.61.77,2.09.46.48,1.04.73,1.73.73.52,0,.96-.14,1.32-.41.36-.27.65-.7.87-1.3Zm-4.62-2.27h4.63c-.06-.7-.24-1.22-.53-1.57-.45-.54-1.03-.81-1.74-.81-.65,0-1.19.22-1.63.65-.44.43-.68,1.01-.73,1.73Z"/><path d="m870.01,238.68l1.45.18c-.23.85-.65,1.51-1.27,1.98-.62.47-1.41.7-2.38.7-1.21,0-2.18-.37-2.89-1.12-.71-.75-1.07-1.8-1.07-3.14s.36-2.48,1.08-3.25c.72-.77,1.65-1.16,2.8-1.16s2.02.38,2.72,1.13c.7.76,1.05,1.82,1.05,3.19,0,.08,0,.21,0,.38h-6.19c.05.91.31,1.61.77,2.09.46.48,1.04.73,1.73.73.52,0,.96-.14,1.32-.41.36-.27.65-.7.87-1.3Zm-4.62-2.27h4.63c-.06-.7-.24-1.22-.53-1.57-.45-.54-1.03-.81-1.74-.81-.65,0-1.19.22-1.63.65-.44.43-.68,1.01-.73,1.73Z"/><path d="m878.61,241.35v-1.05c-.53.82-1.3,1.23-2.32,1.23-.66,0-1.27-.18-1.82-.55s-.98-.87-1.29-1.53c-.3-.65-.46-1.4-.46-2.25s.14-1.58.41-2.25c.28-.67.69-1.19,1.24-1.55.55-.36,1.17-.54,1.85-.54.5,0,.95.11,1.34.32s.71.49.95.82v-4.11h1.4v11.45h-1.3Zm-4.45-4.14c0,1.06.22,1.86.67,2.38.45.53.98.79,1.59.79s1.14-.25,1.57-.75c.43-.5.64-1.27.64-2.3,0-1.14-.22-1.97-.66-2.5s-.98-.8-1.62-.8-1.15.26-1.57.77c-.42.51-.63,1.32-.63,2.41Z"/><path d="m881.58,237.91v-1.41h4.32v1.41h-4.32Z"/><path d="m892.9,241.35v-1.22c-.65.94-1.52,1.41-2.63,1.41-.49,0-.95-.09-1.37-.28-.42-.19-.74-.42-.95-.71-.21-.28-.35-.63-.43-1.04-.06-.28-.09-.71-.09-1.31v-5.14h1.41v4.6c0,.73.03,1.23.09,1.48.09.37.28.66.56.87.29.21.64.32,1.06.32s.82-.11,1.19-.32c.37-.22.63-.51.79-.88.15-.37.23-.91.23-1.62v-4.45h1.41v8.3h-1.26Z"/><path d="m896.36,244.53v-11.48h1.28v1.08c.3-.42.64-.74,1.02-.95.38-.21.84-.32,1.38-.32.71,0,1.33.18,1.88.55.54.36.95.88,1.23,1.54.28.66.41,1.39.41,2.18,0,.85-.15,1.61-.46,2.29s-.75,1.2-1.33,1.56c-.58.36-1.19.54-1.83.54-.47,0-.89-.1-1.26-.3-.37-.2-.68-.45-.92-.75v4.04h-1.41Zm1.27-7.28c0,1.07.22,1.86.65,2.37.43.51.96.77,1.57.77s1.16-.26,1.61-.79c.45-.53.67-1.35.67-2.46s-.22-1.85-.65-2.38c-.44-.53-.95-.79-1.56-.79s-1.13.28-1.59.84c-.46.56-.69,1.37-.69,2.44Z"/><path d="m904.73,237.2c0-1.54.43-2.67,1.28-3.41.71-.61,1.58-.92,2.61-.92,1.14,0,2.07.37,2.8,1.12.72.75,1.09,1.78,1.09,3.1,0,1.07-.16,1.91-.48,2.52-.32.61-.79,1.09-1.4,1.43-.61.34-1.28.51-2,.51-1.16,0-2.1-.37-2.82-1.12-.72-.74-1.07-1.82-1.07-3.22Zm1.45,0c0,1.06.23,1.86.7,2.39.46.53,1.05.79,1.75.79s1.28-.27,1.74-.8c.46-.53.7-1.34.7-2.43,0-1.03-.23-1.8-.7-2.33-.47-.53-1.05-.79-1.74-.79s-1.29.26-1.75.79c-.46.53-.7,1.32-.7,2.38Z"/><path d="m914.15,241.35v-8.3h1.27v1.18c.61-.91,1.49-1.37,2.64-1.37.5,0,.96.09,1.38.27.42.18.73.42.94.71.21.29.35.64.44,1.04.05.26.08.72.08,1.37v5.1h-1.41v-5.05c0-.57-.05-1-.16-1.29-.11-.28-.3-.51-.58-.68-.28-.17-.61-.25-.98-.25-.6,0-1.12.19-1.55.57-.44.38-.65,1.1-.65,2.16v4.53h-1.41Z"/><path d="m621.54,260.55v-8.3h1.26v1.16c.26-.41.61-.73,1.04-.98.43-.25.92-.37,1.48-.37.61,0,1.12.13,1.51.38.39.26.67.61.83,1.07.66-.97,1.51-1.45,2.56-1.45.82,0,1.46.23,1.9.68.44.46.66,1.16.66,2.11v5.7h-1.4v-5.23c0-.56-.05-.97-.14-1.21-.09-.25-.26-.45-.5-.6-.24-.15-.52-.23-.84-.23-.58,0-1.07.19-1.45.58-.39.39-.58,1.01-.58,1.86v4.82h-1.41v-5.39c0-.62-.11-1.09-.34-1.41-.23-.31-.6-.47-1.12-.47-.4,0-.76.1-1.1.31-.34.21-.58.51-.73.91-.15.4-.23.98-.23,1.73v4.3h-1.41Z"/><path d="m640.54,257.88l1.45.18c-.23.85-.65,1.51-1.27,1.98-.62.47-1.41.7-2.38.7-1.21,0-2.18-.37-2.89-1.12-.71-.75-1.07-1.8-1.07-3.14s.36-2.48,1.08-3.25c.72-.77,1.65-1.16,2.8-1.16s2.02.38,2.72,1.13c.7.76,1.05,1.82,1.05,3.19,0,.08,0,.21,0,.38h-6.19c.05.91.31,1.61.77,2.09.46.48,1.04.73,1.73.73.52,0,.96-.14,1.32-.41.36-.27.65-.7.87-1.3Zm-4.62-2.27h4.63c-.06-.7-.24-1.22-.53-1.57-.45-.54-1.03-.81-1.74-.81-.65,0-1.19.22-1.63.65-.44.43-.68,1.01-.73,1.73Z"/><path d="m649.18,259.52c-.52.44-1.02.76-1.5.94-.48.18-1,.27-1.55.27-.91,0-1.61-.22-2.1-.67-.49-.45-.73-1.01-.73-1.71,0-.41.09-.78.28-1.11.18-.34.43-.61.73-.81.3-.2.64-.36,1.01-.46.28-.07.69-.14,1.25-.21,1.14-.14,1.97-.3,2.51-.48,0-.19,0-.31,0-.37,0-.57-.13-.98-.4-1.21-.36-.32-.89-.48-1.6-.48-.66,0-1.15.12-1.46.35-.32.23-.55.64-.7,1.23l-1.38-.19c.12-.59.33-1.06.62-1.43.29-.36.7-.64,1.24-.84.54-.2,1.17-.29,1.88-.29s1.28.08,1.73.25c.44.17.77.38.98.63.21.25.35.57.44.96.05.24.07.67.07,1.3v1.88c0,1.31.03,2.13.09,2.48.06.35.18.68.36,1h-1.47c-.15-.29-.24-.63-.28-1.02Zm-.12-3.14c-.51.21-1.28.39-2.3.53-.58.08-.99.18-1.23.28-.24.1-.42.26-.55.46-.13.2-.2.42-.2.67,0,.38.14.69.43.94.28.25.7.38,1.25.38s1.02-.12,1.45-.36c.42-.24.73-.56.93-.97.15-.32.23-.79.23-1.41v-.52Z"/><path d="m652.66,260.55v-8.3h1.27v1.18c.61-.91,1.49-1.37,2.64-1.37.5,0,.96.09,1.38.27.42.18.73.42.94.71.21.29.35.64.44,1.04.05.26.08.72.08,1.37v5.1h-1.41v-5.05c0-.57-.05-1-.16-1.29-.11-.28-.3-.51-.58-.68-.28-.17-.61-.25-.98-.25-.6,0-1.12.19-1.55.57-.44.38-.65,1.1-.65,2.16v4.53h-1.41Z"/><path d="m661.57,250.71v-1.62h1.41v1.62h-1.41Zm0,9.84v-8.3h1.41v8.3h-1.41Z"/><path d="m665.11,260.55v-8.3h1.27v1.18c.61-.91,1.49-1.37,2.64-1.37.5,0,.96.09,1.38.27.42.18.73.42.94.71.21.29.35.64.44,1.04.05.26.08.72.08,1.37v5.1h-1.41v-5.05c0-.57-.05-1-.16-1.29-.11-.28-.3-.51-.58-.68-.28-.17-.61-.25-.98-.25-.6,0-1.12.19-1.55.57-.44.38-.65,1.1-.65,2.16v4.53h-1.41Z"/><path d="m673.76,261.24l1.37.2c.06.42.22.73.48.92.35.26.83.39,1.43.39.65,0,1.15-.13,1.51-.39.35-.26.59-.62.72-1.09.07-.29.11-.89.1-1.8-.61.72-1.38,1.09-2.3,1.09-1.14,0-2.02-.41-2.65-1.23-.62-.82-.94-1.81-.94-2.96,0-.79.14-1.52.43-2.19.29-.67.7-1.19,1.25-1.55.54-.36,1.18-.55,1.92-.55.98,0,1.79.4,2.42,1.19v-1h1.3v7.17c0,1.29-.13,2.21-.39,2.75-.26.54-.68.96-1.25,1.28s-1.27.47-2.11.47c-.99,0-1.79-.22-2.4-.67s-.9-1.12-.88-2.01Zm1.16-4.98c0,1.09.22,1.88.65,2.38.43.5.97.75,1.62.75s1.19-.25,1.62-.75c.44-.5.66-1.28.66-2.34s-.23-1.78-.68-2.3c-.45-.52-.99-.77-1.63-.77s-1.16.25-1.59.76-.66,1.26-.66,2.26Z"/><path d="m690.04,263.92c-.78-.98-1.43-2.12-1.97-3.44-.54-1.31-.8-2.67-.8-4.08,0-1.24.2-2.43.6-3.56.47-1.32,1.19-2.63,2.17-3.94h1.01c-.63,1.08-1.05,1.86-1.25,2.32-.32.72-.57,1.47-.75,2.25-.22.97-.34,1.95-.34,2.94,0,2.51.78,5.01,2.34,7.51h-1.01Z"/><path d="m692.69,250.71v-1.62h1.41v1.62h-1.41Zm0,9.84v-8.3h1.41v8.3h-1.41Z"/><path d="m696.64,260.55v-1.6h1.6v1.6h-1.6Z"/><path d="m706.36,257.88l1.45.18c-.23.85-.65,1.51-1.27,1.98-.62.47-1.41.7-2.38.7-1.21,0-2.18-.37-2.89-1.12-.71-.75-1.07-1.8-1.07-3.14s.36-2.48,1.08-3.25c.72-.77,1.65-1.16,2.8-1.16s2.02.38,2.72,1.13c.7.76,1.05,1.82,1.05,3.19,0,.08,0,.21,0,.38h-6.19c.05.91.31,1.61.77,2.09.46.48,1.04.73,1.73.73.52,0,.96-.14,1.32-.41.36-.27.65-.7.87-1.3Zm-4.62-2.27h4.63c-.06-.7-.24-1.22-.53-1.57-.45-.54-1.03-.81-1.74-.81-.65,0-1.19.22-1.63.65-.44.43-.68,1.01-.73,1.73Z"/><path d="m709.98,260.55v-1.6h1.6v1.6h-1.6Z"/><path d="m714.4,260.55v-1.6h1.6v1.6c0,.59-.1,1.06-.31,1.43-.21.36-.54.64-.99.84l-.39-.6c.3-.13.52-.32.66-.57.14-.25.22-.62.23-1.09h-.8Z"/><path d="m722.92,260.55v-8.3h1.27v1.18c.61-.91,1.49-1.37,2.64-1.37.5,0,.96.09,1.38.27.42.18.73.42.94.71.21.29.35.64.44,1.04.05.26.08.72.08,1.37v5.1h-1.41v-5.05c0-.57-.05-1-.16-1.29-.11-.28-.3-.51-.58-.68-.28-.17-.61-.25-.98-.25-.6,0-1.12.19-1.55.57-.44.38-.65,1.1-.65,2.16v4.53h-1.41Z"/><path d="m737.23,259.52c-.52.44-1.02.76-1.5.94-.48.18-1,.27-1.55.27-.91,0-1.61-.22-2.1-.67-.49-.45-.73-1.01-.73-1.71,0-.41.09-.78.28-1.11.18-.34.43-.61.73-.81.3-.2.64-.36,1.01-.46.28-.07.69-.14,1.25-.21,1.14-.14,1.97-.3,2.51-.48,0-.19,0-.31,0-.37,0-.57-.13-.98-.4-1.21-.36-.32-.89-.48-1.6-.48-.66,0-1.15.12-1.46.35-.32.23-.55.64-.7,1.23l-1.38-.19c.12-.59.33-1.06.62-1.43.29-.36.7-.64,1.24-.84.54-.2,1.17-.29,1.88-.29s1.28.08,1.73.25c.44.17.77.38.98.63.21.25.35.57.44.96.05.24.07.67.07,1.3v1.88c0,1.31.03,2.13.09,2.48.06.35.18.68.36,1h-1.47c-.15-.29-.24-.63-.28-1.02Zm-.12-3.14c-.51.21-1.28.39-2.3.53-.58.08-.99.18-1.23.28-.24.1-.42.26-.55.46-.13.2-.2.42-.2.67,0,.38.14.69.43.94.28.25.7.38,1.25.38s1.02-.12,1.45-.36c.42-.24.73-.56.93-.97.15-.32.23-.79.23-1.41v-.52Z"/><path d="m740.72,260.55v-8.3h1.26v1.16c.26-.41.61-.73,1.04-.98.43-.25.92-.37,1.48-.37.61,0,1.12.13,1.51.38.39.26.67.61.83,1.07.66-.97,1.51-1.45,2.56-1.45.82,0,1.46.23,1.9.68.44.46.66,1.16.66,2.11v5.7h-1.4v-5.23c0-.56-.05-.97-.14-1.21-.09-.25-.26-.45-.5-.6-.24-.15-.52-.23-.84-.23-.58,0-1.07.19-1.45.58-.39.39-.58,1.01-.58,1.86v4.82h-1.41v-5.39c0-.62-.11-1.09-.34-1.41-.23-.31-.6-.47-1.12-.47-.4,0-.76.1-1.1.31-.34.21-.58.51-.73.91-.15.4-.23.98-.23,1.73v4.3h-1.41Z"/><path d="m759.72,257.88l1.45.18c-.23.85-.65,1.51-1.27,1.98-.62.47-1.41.7-2.38.7-1.21,0-2.18-.37-2.89-1.12-.71-.75-1.07-1.8-1.07-3.14s.36-2.48,1.08-3.25c.72-.77,1.65-1.16,2.8-1.16s2.02.38,2.72,1.13c.7.76,1.05,1.82,1.05,3.19,0,.08,0,.21,0,.38h-6.19c.05.91.31,1.61.77,2.09.46.48,1.04.73,1.73.73.52,0,.96-.14,1.32-.41.36-.27.65-.7.87-1.3Zm-4.62-2.27h4.63c-.06-.7-.24-1.22-.53-1.57-.45-.54-1.03-.81-1.74-.81-.65,0-1.19.22-1.63.65-.44.43-.68,1.01-.73,1.73Z"/><path d="m762.91,260.55v-11.45h1.41v11.45h-1.41Z"/><path d="m766.44,263.74l-.16-1.32c.31.08.58.12.8.12.31,0,.56-.05.75-.16.19-.1.34-.25.46-.44.09-.14.23-.49.43-1.05.03-.08.07-.19.12-.34l-3.15-8.31h1.52l1.73,4.8c.22.61.42,1.25.6,1.92.16-.65.35-1.28.58-1.89l1.77-4.84h1.41l-3.16,8.44c-.34.91-.6,1.54-.79,1.88-.25.46-.54.8-.86,1.02-.32.22-.71.32-1.16.32-.27,0-.57-.06-.91-.17Z"/><path d="m784.36,259.52c-.52.44-1.02.76-1.5.94-.48.18-1,.27-1.55.27-.91,0-1.61-.22-2.1-.67-.49-.45-.73-1.01-.73-1.71,0-.41.09-.78.28-1.11.18-.34.43-.61.73-.81.3-.2.64-.36,1.01-.46.28-.07.69-.14,1.25-.21,1.14-.14,1.97-.3,2.51-.48,0-.19,0-.31,0-.37,0-.57-.13-.98-.4-1.21-.36-.32-.89-.48-1.6-.48-.66,0-1.15.12-1.46.35-.32.23-.55.64-.7,1.23l-1.38-.19c.12-.59.33-1.06.62-1.43.29-.36.7-.64,1.24-.84.54-.2,1.17-.29,1.88-.29s1.28.08,1.73.25c.44.17.77.38.98.63.21.25.35.57.44.96.05.24.07.67.07,1.3v1.88c0,1.31.03,2.13.09,2.48.06.35.18.68.36,1h-1.47c-.15-.29-.24-.63-.28-1.02Zm-.12-3.14c-.51.21-1.28.39-2.3.53-.58.08-.99.18-1.23.28-.24.1-.42.26-.55.46-.13.2-.2.42-.2.67,0,.38.14.69.43.94.28.25.7.38,1.25.38s1.02-.12,1.45-.36c.42-.24.73-.56.93-.97.15-.32.23-.79.23-1.41v-.52Z"/><path d="m792.29,263.73v-11.48h1.28v1.08c.3-.42.64-.74,1.02-.95.38-.21.84-.32,1.38-.32.71,0,1.33.18,1.88.55.54.36.95.88,1.23,1.54.28.66.41,1.39.41,2.18,0,.85-.15,1.61-.46,2.29s-.75,1.2-1.33,1.56c-.58.36-1.19.54-1.83.54-.47,0-.89-.1-1.26-.3-.37-.2-.68-.45-.92-.75v4.04h-1.41Zm1.27-7.28c0,1.07.22,1.86.65,2.37.43.51.96.77,1.57.77s1.16-.26,1.61-.79c.45-.53.67-1.35.67-2.46s-.22-1.85-.65-2.38c-.44-.53-.95-.79-1.56-.79s-1.13.28-1.59.84c-.46.56-.69,1.37-.69,2.44Z"/><path d="m806.62,260.55v-1.22c-.65.94-1.52,1.41-2.63,1.41-.49,0-.95-.09-1.37-.28-.42-.19-.74-.42-.95-.71-.21-.28-.35-.63-.43-1.04-.06-.28-.09-.71-.09-1.31v-5.14h1.41v4.6c0,.73.03,1.23.09,1.48.09.37.28.66.56.87.29.21.64.32,1.06.32s.82-.11,1.19-.32c.37-.22.63-.51.79-.88.15-.37.23-.91.23-1.62v-4.45h1.41v8.3h-1.26Z"/><path d="m810.07,260.55v-8.3h1.27v1.26c.32-.59.62-.98.89-1.16s.57-.28.9-.28c.47,0,.96.15,1.45.45l-.48,1.3c-.34-.2-.69-.3-1.03-.3-.31,0-.58.09-.83.28-.25.19-.42.44-.52.77-.16.5-.23,1.05-.23,1.64v4.34h-1.41Z"/><path d="m815.41,263.73v-11.48h1.28v1.08c.3-.42.64-.74,1.02-.95.38-.21.84-.32,1.38-.32.71,0,1.33.18,1.88.55.54.36.95.88,1.23,1.54.28.66.41,1.39.41,2.18,0,.85-.15,1.61-.46,2.29s-.75,1.2-1.33,1.56c-.58.36-1.19.54-1.83.54-.47,0-.89-.1-1.26-.3-.37-.2-.68-.45-.92-.75v4.04h-1.41Zm1.27-7.28c0,1.07.22,1.86.65,2.37.43.51.96.77,1.57.77s1.16-.26,1.61-.79c.45-.53.67-1.35.67-2.46s-.22-1.85-.65-2.38c-.44-.53-.95-.79-1.56-.79s-1.13.28-1.59.84c-.46.56-.69,1.37-.69,2.44Z"/><path d="m823.79,256.4c0-1.54.43-2.67,1.28-3.41.71-.61,1.58-.92,2.61-.92,1.14,0,2.07.37,2.8,1.12.72.75,1.09,1.78,1.09,3.1,0,1.07-.16,1.91-.48,2.52-.32.61-.79,1.09-1.4,1.43-.61.34-1.28.51-2,.51-1.16,0-2.1-.37-2.82-1.12-.72-.74-1.07-1.82-1.07-3.22Zm1.45,0c0,1.06.23,1.86.7,2.39.46.53,1.05.79,1.75.79s1.28-.27,1.74-.8c.46-.53.7-1.34.7-2.43,0-1.03-.23-1.8-.7-2.33-.47-.53-1.05-.79-1.74-.79s-1.29.26-1.75.79c-.46.53-.7,1.32-.7,2.38Z"/><path d="m832.65,258.07l1.39-.22c.08.56.3.98.65,1.28.36.3.86.45,1.5.45s1.12-.13,1.44-.39c.31-.26.47-.57.47-.93,0-.32-.14-.57-.41-.75-.19-.12-.67-.28-1.44-.48-1.03-.26-1.75-.49-2.14-.68-.4-.19-.7-.45-.91-.79-.21-.34-.31-.71-.31-1.11,0-.37.08-.71.25-1.03.17-.31.4-.58.69-.79.22-.16.52-.3.89-.41.38-.11.78-.17,1.21-.17.65,0,1.22.09,1.71.28s.86.44,1.09.76.4.75.48,1.29l-1.38.19c-.06-.43-.24-.76-.54-1-.3-.24-.72-.36-1.27-.36-.65,0-1.11.11-1.38.32-.28.21-.41.46-.41.75,0,.18.06.35.17.49.11.15.29.28.54.38.14.05.55.17,1.24.36.99.27,1.69.48,2.08.65.39.17.7.42.93.74.22.32.34.72.34,1.2s-.14.91-.41,1.32-.67.73-1.18.96-1.1.34-1.75.34c-1.08,0-1.9-.22-2.46-.67-.57-.45-.93-1.11-1.08-1.99Z"/><path d="m846.89,257.88l1.45.18c-.23.85-.65,1.51-1.27,1.98-.62.47-1.41.7-2.38.7-1.21,0-2.18-.37-2.89-1.12-.71-.75-1.07-1.8-1.07-3.14s.36-2.48,1.08-3.25c.72-.77,1.65-1.16,2.8-1.16s2.02.38,2.72,1.13c.7.76,1.05,1.82,1.05,3.19,0,.08,0,.21,0,.38h-6.19c.05.91.31,1.61.77,2.09.46.48,1.04.73,1.73.73.52,0,.96-.14,1.32-.41.36-.27.65-.7.87-1.3Zm-4.62-2.27h4.63c-.06-.7-.24-1.22-.53-1.57-.45-.54-1.03-.81-1.74-.81-.65,0-1.19.22-1.63.65-.44.43-.68,1.01-.73,1.73Z"/><path d="m854.89,260.55v-7.2h-1.24v-1.09h1.24v-.88c0-.56.05-.97.15-1.24.14-.36.37-.66.71-.89.34-.23.82-.34,1.43-.34.4,0,.83.05,1.31.14l-.21,1.23c-.29-.05-.57-.08-.83-.08-.43,0-.73.09-.91.27-.18.18-.27.52-.27,1.02v.77h1.62v1.09h-1.62v7.2h-1.4Z"/><path d="m858.47,256.4c0-1.54.43-2.67,1.28-3.41.71-.61,1.58-.92,2.61-.92,1.14,0,2.07.37,2.8,1.12.72.75,1.09,1.78,1.09,3.1,0,1.07-.16,1.91-.48,2.52-.32.61-.79,1.09-1.4,1.43-.61.34-1.28.51-2,.51-1.16,0-2.1-.37-2.82-1.12-.72-.74-1.07-1.82-1.07-3.22Zm1.45,0c0,1.06.23,1.86.7,2.39.46.53,1.05.79,1.75.79s1.28-.27,1.74-.8c.46-.53.7-1.34.7-2.43,0-1.03-.23-1.8-.7-2.33-.47-.53-1.05-.79-1.74-.79s-1.29.26-1.75.79c-.46.53-.7,1.32-.7,2.38Z"/><path d="m867.88,260.55v-8.3h1.27v1.26c.32-.59.62-.98.89-1.16s.57-.28.9-.28c.47,0,.96.15,1.45.45l-.48,1.3c-.34-.2-.69-.3-1.03-.3-.31,0-.58.09-.83.28-.25.19-.42.44-.52.77-.16.5-.23,1.05-.23,1.64v4.34h-1.41Z"/><path d="m883.08,259.52c-.52.44-1.02.76-1.5.94-.48.18-1,.27-1.55.27-.91,0-1.61-.22-2.1-.67-.49-.45-.73-1.01-.73-1.71,0-.41.09-.78.28-1.11.18-.34.43-.61.73-.81.3-.2.64-.36,1.01-.46.28-.07.69-.14,1.25-.21,1.14-.14,1.97-.3,2.51-.48,0-.19,0-.31,0-.37,0-.57-.13-.98-.4-1.21-.36-.32-.89-.48-1.6-.48-.66,0-1.15.12-1.46.35-.32.23-.55.64-.7,1.23l-1.38-.19c.12-.59.33-1.06.62-1.43.29-.36.7-.64,1.24-.84.54-.2,1.17-.29,1.88-.29s1.28.08,1.73.25c.44.17.77.38.98.63.21.25.35.57.44.96.05.24.07.67.07,1.3v1.88c0,1.31.03,2.13.09,2.48.06.35.18.68.36,1h-1.47c-.15-.29-.24-.63-.28-1.02Zm-.12-3.14c-.51.21-1.28.39-2.3.53-.58.08-.99.18-1.23.28-.24.1-.42.26-.55.46-.13.2-.2.42-.2.67,0,.38.14.69.43.94.28.25.7.38,1.25.38s1.02-.12,1.45-.36c.42-.24.73-.56.93-.97.15-.32.23-.79.23-1.41v-.52Z"/><path d="m886.57,263.73v-11.48h1.28v1.08c.3-.42.64-.74,1.02-.95.38-.21.84-.32,1.38-.32.71,0,1.33.18,1.88.55.54.36.95.88,1.23,1.54.28.66.41,1.39.41,2.18,0,.85-.15,1.61-.46,2.29s-.75,1.2-1.33,1.56c-.58.36-1.19.54-1.83.54-.47,0-.89-.1-1.26-.3-.37-.2-.68-.45-.92-.75v4.04h-1.41Zm1.27-7.28c0,1.07.22,1.86.65,2.37.43.51.96.77,1.57.77s1.16-.26,1.61-.79c.45-.53.67-1.35.67-2.46s-.22-1.85-.65-2.38c-.44-.53-.95-.79-1.56-.79s-1.13.28-1.59.84c-.46.56-.69,1.37-.69,2.44Z"/><path d="m895.47,263.73v-11.48h1.28v1.08c.3-.42.64-.74,1.02-.95.38-.21.84-.32,1.38-.32.71,0,1.33.18,1.88.55.54.36.95.88,1.23,1.54.28.66.41,1.39.41,2.18,0,.85-.15,1.61-.46,2.29s-.75,1.2-1.33,1.56c-.58.36-1.19.54-1.83.54-.47,0-.89-.1-1.26-.3-.37-.2-.68-.45-.92-.75v4.04h-1.41Zm1.27-7.28c0,1.07.22,1.86.65,2.37.43.51.96.77,1.57.77s1.16-.26,1.61-.79c.45-.53.67-1.35.67-2.46s-.22-1.85-.65-2.38c-.44-.53-.95-.79-1.56-.79s-1.13.28-1.59.84c-.46.56-.69,1.37-.69,2.44Z"/><path d="m904.33,260.55v-11.45h1.41v11.45h-1.41Z"/><path d="m907.86,263.74l-.16-1.32c.31.08.58.12.8.12.31,0,.56-.05.75-.16.19-.1.34-.25.46-.44.09-.14.23-.49.43-1.05.03-.08.07-.19.12-.34l-3.15-8.31h1.52l1.73,4.8c.22.61.42,1.25.6,1.92.16-.65.35-1.28.58-1.89l1.77-4.84h1.41l-3.16,8.44c-.34.91-.6,1.54-.79,1.88-.25.46-.54.8-.86,1.02-.32.22-.71.32-1.16.32-.27,0-.57-.06-.91-.17Z"/><path d="m915.93,250.71v-1.62h1.41v1.62h-1.41Zm0,9.84v-8.3h1.41v8.3h-1.41Z"/><path d="m919.47,260.55v-8.3h1.27v1.18c.61-.91,1.49-1.37,2.64-1.37.5,0,.96.09,1.38.27.42.18.73.42.94.71.21.29.35.64.44,1.04.05.26.08.72.08,1.37v5.1h-1.41v-5.05c0-.57-.05-1-.16-1.29-.11-.28-.3-.51-.58-.68-.28-.17-.61-.25-.98-.25-.6,0-1.12.19-1.55.57-.44.38-.65,1.1-.65,2.16v4.53h-1.41Z"/><path d="m928.11,261.24l1.37.2c.06.42.22.73.48.92.35.26.83.39,1.43.39.65,0,1.15-.13,1.51-.39.35-.26.59-.62.72-1.09.07-.29.11-.89.1-1.8-.61.72-1.38,1.09-2.3,1.09-1.14,0-2.02-.41-2.65-1.23-.62-.82-.94-1.81-.94-2.96,0-.79.14-1.52.43-2.19.29-.67.7-1.19,1.25-1.55.54-.36,1.18-.55,1.92-.55.98,0,1.79.4,2.42,1.19v-1h1.3v7.17c0,1.29-.13,2.21-.39,2.75-.26.54-.68.96-1.25,1.28s-1.27.47-2.11.47c-.99,0-1.79-.22-2.4-.67s-.9-1.12-.88-2.01Zm1.16-4.98c0,1.09.22,1.88.65,2.38.43.5.97.75,1.62.75s1.19-.25,1.62-.75c.44-.5.66-1.28.66-2.34s-.23-1.78-.68-2.3c-.45-.52-.99-.77-1.63-.77s-1.16.25-1.59.76-.66,1.26-.66,2.26Z"/><path d="m941.72,250.71v-1.62h1.41v1.62h-1.41Zm0,9.84v-8.3h1.41v8.3h-1.41Z"/><path d="m948.34,259.29l.2,1.24c-.4.08-.75.12-1.06.12-.51,0-.91-.08-1.19-.24s-.48-.37-.59-.64c-.11-.26-.17-.82-.17-1.66v-4.77h-1.03v-1.09h1.03v-2.05l1.4-.84v2.9h1.41v1.09h-1.41v4.85c0,.4.02.66.07.77.05.11.13.21.24.27.11.07.27.1.48.1.16,0,.36-.02.62-.05Z"/><path d="m950.64,263.92h-1.01c1.56-2.5,2.34-5,2.34-7.51,0-.98-.11-1.95-.34-2.91-.18-.78-.42-1.53-.74-2.25-.2-.47-.62-1.25-1.26-2.34h1.01c.98,1.31,1.7,2.62,2.17,3.94.4,1.14.6,2.32.6,3.56,0,1.41-.27,2.77-.81,4.08s-1.19,2.46-1.96,3.44Z"/><path d="m621.97,100.74v-11.45h1.52v11.45h-1.52Z"/><path d="m625.98,100.74v-8.3h1.27v1.18c.61-.91,1.49-1.37,2.64-1.37.5,0,.96.09,1.38.27.42.18.73.42.94.71.21.29.35.64.44,1.04.05.26.08.72.08,1.37v5.1h-1.41v-5.05c0-.57-.05-1-.16-1.29-.11-.28-.3-.51-.58-.68-.28-.17-.61-.25-.98-.25-.6,0-1.12.19-1.55.57-.44.38-.65,1.1-.65,2.16v4.53h-1.41Z"/><path d="m640.29,97.7l1.38.18c-.15.95-.54,1.7-1.16,2.24-.62.54-1.39.81-2.29.81-1.14,0-2.05-.37-2.74-1.11-.69-.74-1.04-1.81-1.04-3.19,0-.9.15-1.68.45-2.35s.75-1.18,1.36-1.51c.61-.34,1.27-.5,1.98-.5.9,0,1.64.23,2.21.68.57.46.94,1.1,1.1,1.94l-1.37.21c-.13-.56-.36-.98-.69-1.26-.33-.28-.73-.42-1.2-.42-.71,0-1.28.25-1.73.76-.44.51-.66,1.31-.66,2.41s.21,1.92.64,2.43c.43.51.98.76,1.67.76.55,0,1.01-.17,1.38-.51.37-.34.6-.86.7-1.56Z"/><path d="m642.36,96.59c0-1.54.43-2.67,1.28-3.41.71-.61,1.58-.92,2.61-.92,1.14,0,2.07.37,2.8,1.12.72.75,1.09,1.78,1.09,3.1,0,1.07-.16,1.91-.48,2.52-.32.61-.79,1.09-1.4,1.43-.61.34-1.28.51-2,.51-1.16,0-2.1-.37-2.82-1.12-.72-.74-1.07-1.82-1.07-3.22Zm1.45,0c0,1.06.23,1.86.7,2.39.46.53,1.05.79,1.75.79s1.28-.27,1.74-.8c.46-.53.7-1.34.7-2.43,0-1.03-.23-1.8-.7-2.33-.47-.53-1.05-.79-1.74-.79s-1.29.26-1.75.79c-.46.53-.7,1.32-.7,2.38Z"/><path d="m651.76,100.74v-8.3h1.27v1.26c.32-.59.62-.98.89-1.16s.57-.28.9-.28c.47,0,.96.15,1.45.45l-.48,1.3c-.34-.2-.69-.3-1.03-.3-.31,0-.58.09-.83.28-.25.19-.42.44-.52.77-.16.5-.23,1.05-.23,1.64v4.34h-1.41Z"/><path d="m657.11,103.92v-11.48h1.28v1.08c.3-.42.64-.74,1.02-.95.38-.21.84-.32,1.38-.32.71,0,1.33.18,1.88.55.54.36.95.88,1.23,1.54.28.66.41,1.39.41,2.18,0,.85-.15,1.61-.46,2.29s-.75,1.2-1.33,1.56c-.58.36-1.19.54-1.83.54-.47,0-.89-.1-1.26-.3-.37-.2-.68-.45-.92-.75v4.04h-1.41Zm1.27-7.28c0,1.07.22,1.86.65,2.37.43.51.96.77,1.57.77s1.16-.26,1.61-.79c.45-.53.67-1.35.67-2.46s-.22-1.85-.65-2.38c-.44-.53-.95-.79-1.56-.79s-1.13.28-1.59.84c-.46.56-.69,1.37-.69,2.44Z"/><path d="m665.48,96.59c0-1.54.43-2.67,1.28-3.41.71-.61,1.58-.92,2.61-.92,1.14,0,2.07.37,2.8,1.12.72.75,1.09,1.78,1.09,3.1,0,1.07-.16,1.91-.48,2.52-.32.61-.79,1.09-1.4,1.43-.61.34-1.28.51-2,.51-1.16,0-2.1-.37-2.82-1.12-.72-.74-1.07-1.82-1.07-3.22Zm1.45,0c0,1.06.23,1.86.7,2.39.46.53,1.05.79,1.75.79s1.28-.27,1.74-.8c.46-.53.7-1.34.7-2.43,0-1.03-.23-1.8-.7-2.33-.47-.53-1.05-.79-1.74-.79s-1.29.26-1.75.79c-.46.53-.7,1.32-.7,2.38Z"/><path d="m674.89,100.74v-8.3h1.27v1.26c.32-.59.62-.98.89-1.16s.57-.28.9-.28c.47,0,.96.15,1.45.45l-.48,1.3c-.34-.2-.69-.3-1.03-.3-.31,0-.58.09-.83.28-.25.19-.42.44-.52.77-.16.5-.23,1.05-.23,1.64v4.34h-1.41Z"/><path d="m685.65,99.71c-.52.44-1.02.76-1.5.94-.48.18-1,.27-1.55.27-.91,0-1.61-.22-2.1-.67-.49-.45-.73-1.01-.73-1.71,0-.41.09-.78.28-1.11.18-.34.43-.61.73-.81.3-.2.64-.36,1.01-.46.28-.07.69-.14,1.25-.21,1.14-.14,1.97-.3,2.51-.48,0-.19,0-.31,0-.37,0-.57-.13-.98-.4-1.21-.36-.32-.89-.48-1.6-.48-.66,0-1.15.12-1.46.35-.32.23-.55.64-.7,1.23l-1.38-.19c.12-.59.33-1.06.62-1.43.29-.36.7-.64,1.24-.84.54-.2,1.17-.29,1.88-.29s1.28.08,1.73.25c.44.17.77.38.98.63.21.25.35.57.44.96.05.24.07.67.07,1.3v1.88c0,1.31.03,2.13.09,2.48.06.35.18.68.36,1h-1.47c-.15-.29-.24-.63-.28-1.02Zm-.12-3.14c-.51.21-1.28.39-2.3.53-.58.08-.99.18-1.23.28-.24.1-.42.26-.55.46-.13.2-.2.42-.2.67,0,.38.14.69.43.94.28.25.7.38,1.25.38s1.02-.12,1.45-.36c.42-.24.73-.56.93-.97.15-.32.23-.79.23-1.41v-.52Z"/><path d="m692.2,99.48l.2,1.24c-.4.08-.75.12-1.06.12-.51,0-.91-.08-1.19-.24s-.48-.37-.59-.64c-.11-.26-.17-.82-.17-1.66v-4.77h-1.03v-1.09h1.03v-2.05l1.4-.84v2.9h1.41v1.09h-1.41v4.85c0,.4.02.66.07.77.05.11.13.21.24.27.11.07.27.1.48.1.16,0,.36-.02.62-.05Z"/><path d="m699.26,98.07l1.45.18c-.23.85-.65,1.51-1.27,1.98-.62.47-1.41.7-2.38.7-1.21,0-2.18-.37-2.89-1.12-.71-.75-1.07-1.8-1.07-3.14s.36-2.48,1.08-3.25c.72-.77,1.65-1.16,2.8-1.16s2.02.38,2.72,1.13c.7.76,1.05,1.82,1.05,3.19,0,.08,0,.21,0,.38h-6.19c.05.91.31,1.61.77,2.09.46.48,1.04.73,1.73.73.52,0,.96-.14,1.32-.41.36-.27.65-.7.87-1.3Zm-4.62-2.27h4.63c-.06-.7-.24-1.22-.53-1.57-.45-.54-1.03-.81-1.74-.81-.65,0-1.19.22-1.63.65-.44.43-.68,1.01-.73,1.73Z"/><path d="m701.91,98.26l1.39-.22c.08.56.3.98.65,1.28.36.3.86.45,1.5.45s1.12-.13,1.44-.39c.31-.26.47-.57.47-.93,0-.32-.14-.57-.41-.75-.19-.12-.67-.28-1.44-.48-1.03-.26-1.75-.49-2.14-.68-.4-.19-.7-.45-.91-.79-.21-.34-.31-.71-.31-1.11,0-.37.08-.71.25-1.03.17-.31.4-.58.69-.79.22-.16.52-.3.89-.41.38-.11.78-.17,1.21-.17.65,0,1.22.09,1.71.28s.86.44,1.09.76.4.75.48,1.29l-1.38.19c-.06-.43-.24-.76-.54-1-.3-.24-.72-.36-1.27-.36-.65,0-1.11.11-1.38.32-.28.21-.41.46-.41.75,0,.18.06.35.17.49.11.15.29.28.54.38.14.05.55.17,1.24.36.99.27,1.69.48,2.08.65.39.17.7.42.93.74.22.32.34.72.34,1.2s-.14.91-.41,1.32-.67.73-1.18.96-1.1.34-1.75.34c-1.08,0-1.9-.22-2.46-.67-.57-.45-.93-1.11-1.08-1.99Z"/><path d="m720.3,100.74v-1.05c-.53.82-1.3,1.23-2.32,1.23-.66,0-1.27-.18-1.82-.55s-.98-.87-1.29-1.53c-.3-.65-.46-1.4-.46-2.25s.14-1.58.41-2.25c.28-.67.69-1.19,1.24-1.55.55-.36,1.17-.54,1.85-.54.5,0,.95.11,1.34.32s.71.49.95.82v-4.11h1.4v11.45h-1.3Zm-4.45-4.14c0,1.06.22,1.86.67,2.38.45.53.98.79,1.59.79s1.14-.25,1.57-.75c.43-.5.64-1.27.64-2.3,0-1.14-.22-1.97-.66-2.5s-.98-.8-1.62-.8-1.15.26-1.57.77c-.42.51-.63,1.32-.63,2.41Z"/><path d="m723.83,90.9v-1.62h1.41v1.62h-1.41Zm0,9.84v-8.3h1.41v8.3h-1.41Z"/><path d="m727.11,101.43l1.37.2c.06.42.22.73.48.92.35.26.83.39,1.43.39.65,0,1.15-.13,1.51-.39.35-.26.59-.62.72-1.09.07-.29.11-.89.1-1.8-.61.72-1.38,1.09-2.3,1.09-1.14,0-2.02-.41-2.65-1.23-.62-.82-.94-1.81-.94-2.96,0-.79.14-1.52.43-2.19.29-.67.7-1.19,1.25-1.55.54-.36,1.18-.55,1.92-.55.98,0,1.79.4,2.42,1.19v-1h1.3v7.17c0,1.29-.13,2.21-.39,2.75-.26.54-.68.96-1.25,1.28s-1.27.47-2.11.47c-.99,0-1.79-.22-2.4-.67s-.9-1.12-.88-2.01Zm1.16-4.98c0,1.09.22,1.88.65,2.38.43.5.97.75,1.62.75s1.19-.25,1.62-.75c.44-.5.66-1.28.66-2.34s-.23-1.78-.68-2.3c-.45-.52-.99-.77-1.63-.77s-1.16.25-1.59.76-.66,1.26-.66,2.26Z"/><path d="m736.28,90.9v-1.62h1.41v1.62h-1.41Zm0,9.84v-8.3h1.41v8.3h-1.41Z"/><path d="m742.9,99.48l.2,1.24c-.4.08-.75.12-1.06.12-.51,0-.91-.08-1.19-.24s-.48-.37-.59-.64c-.11-.26-.17-.82-.17-1.66v-4.77h-1.03v-1.09h1.03v-2.05l1.4-.84v2.9h1.41v1.09h-1.41v4.85c0,.4.02.66.07.77.05.11.13.21.24.27.11.07.27.1.48.1.16,0,.36-.02.62-.05Z"/><path d="m749.69,99.71c-.52.44-1.02.76-1.5.94-.48.18-1,.27-1.55.27-.91,0-1.61-.22-2.1-.67-.49-.45-.73-1.01-.73-1.71,0-.41.09-.78.28-1.11.18-.34.43-.61.73-.81.3-.2.64-.36,1.01-.46.28-.07.69-.14,1.25-.21,1.14-.14,1.97-.3,2.51-.48,0-.19,0-.31,0-.37,0-.57-.13-.98-.4-1.21-.36-.32-.89-.48-1.6-.48-.66,0-1.15.12-1.46.35-.32.23-.55.64-.7,1.23l-1.38-.19c.12-.59.33-1.06.62-1.43.29-.36.7-.64,1.24-.84.54-.2,1.17-.29,1.88-.29s1.28.08,1.73.25c.44.17.77.38.98.63.21.25.35.57.44.96.05.24.07.67.07,1.3v1.88c0,1.31.03,2.13.09,2.48.06.35.18.68.36,1h-1.47c-.15-.29-.24-.63-.28-1.02Zm-.12-3.14c-.51.21-1.28.39-2.3.53-.58.08-.99.18-1.23.28-.24.1-.42.26-.55.46-.13.2-.2.42-.2.67,0,.38.14.69.43.94.28.25.7.38,1.25.38s1.02-.12,1.45-.36c.42-.24.73-.56.93-.97.15-.32.23-.79.23-1.41v-.52Z"/><path d="m753.14,100.74v-11.45h1.41v11.45h-1.41Z"/><path d="m764.24,99.48l.2,1.24c-.4.08-.75.12-1.06.12-.51,0-.91-.08-1.19-.24s-.48-.37-.59-.64c-.11-.26-.17-.82-.17-1.66v-4.77h-1.03v-1.09h1.03v-2.05l1.4-.84v2.9h1.41v1.09h-1.41v4.85c0,.4.02.66.07.77.05.11.13.21.24.27.11.07.27.1.48.1.16,0,.36-.02.62-.05Z"/><path d="m771.29,98.07l1.45.18c-.23.85-.65,1.51-1.27,1.98-.62.47-1.41.7-2.38.7-1.21,0-2.18-.37-2.89-1.12-.71-.75-1.07-1.8-1.07-3.14s.36-2.48,1.08-3.25c.72-.77,1.65-1.16,2.8-1.16s2.02.38,2.72,1.13c.7.76,1.05,1.82,1.05,3.19,0,.08,0,.21,0,.38h-6.19c.05.91.31,1.61.77,2.09.46.48,1.04.73,1.73.73.52,0,.96-.14,1.32-.41.36-.27.65-.7.87-1.3Zm-4.62-2.27h4.63c-.06-.7-.24-1.22-.53-1.57-.45-.54-1.03-.81-1.74-.81-.65,0-1.19.22-1.63.65-.44.43-.68,1.01-.73,1.73Z"/><path d="m779.93,97.7l1.38.18c-.15.95-.54,1.7-1.16,2.24-.62.54-1.39.81-2.29.81-1.14,0-2.05-.37-2.74-1.11-.69-.74-1.04-1.81-1.04-3.19,0-.9.15-1.68.45-2.35s.75-1.18,1.36-1.51c.61-.34,1.27-.5,1.98-.5.9,0,1.64.23,2.21.68.57.46.94,1.1,1.1,1.94l-1.37.21c-.13-.56-.36-.98-.69-1.26-.33-.28-.73-.42-1.2-.42-.71,0-1.28.25-1.73.76-.44.51-.66,1.31-.66,2.41s.21,1.92.64,2.43c.43.51.98.76,1.67.76.55,0,1.01-.17,1.38-.51.37-.34.6-.86.7-1.56Z"/><path d="m782.51,100.74v-11.45h1.41v4.11c.66-.76,1.48-1.14,2.48-1.14.61,0,1.15.12,1.6.36s.78.58.97,1c.2.43.29,1.05.29,1.86v5.26h-1.41v-5.26c0-.7-.15-1.21-.46-1.54s-.74-.48-1.29-.48c-.42,0-.81.11-1.18.32-.37.22-.63.51-.79.88-.16.37-.23.88-.23,1.53v4.54h-1.41Z"/><path d="m791.41,100.74v-8.3h1.27v1.18c.61-.91,1.49-1.37,2.64-1.37.5,0,.96.09,1.38.27.42.18.73.42.94.71.21.29.35.64.44,1.04.05.26.08.72.08,1.37v5.1h-1.41v-5.05c0-.57-.05-1-.16-1.29-.11-.28-.3-.51-.58-.68-.28-.17-.61-.25-.98-.25-.6,0-1.12.19-1.55.57-.44.38-.65,1.1-.65,2.16v4.53h-1.41Z"/><path d="m799.79,96.59c0-1.54.43-2.67,1.28-3.41.71-.61,1.58-.92,2.61-.92,1.14,0,2.07.37,2.8,1.12.72.75,1.09,1.78,1.09,3.1,0,1.07-.16,1.91-.48,2.52-.32.61-.79,1.09-1.4,1.43-.61.34-1.28.51-2,.51-1.16,0-2.1-.37-2.82-1.12-.72-.74-1.07-1.82-1.07-3.22Zm1.45,0c0,1.06.23,1.86.7,2.39.46.53,1.05.79,1.75.79s1.28-.27,1.74-.8c.46-.53.7-1.34.7-2.43,0-1.03-.23-1.8-.7-2.33-.47-.53-1.05-.79-1.74-.79s-1.29.26-1.75.79c-.46.53-.7,1.32-.7,2.38Z"/><path d="m809.18,100.74v-11.45h1.41v11.45h-1.41Z"/><path d="m812.24,96.59c0-1.54.43-2.67,1.28-3.41.71-.61,1.58-.92,2.61-.92,1.14,0,2.07.37,2.8,1.12.72.75,1.09,1.78,1.09,3.1,0,1.07-.16,1.91-.48,2.52-.32.61-.79,1.09-1.4,1.43-.61.34-1.28.51-2,.51-1.16,0-2.1-.37-2.82-1.12-.72-.74-1.07-1.82-1.07-3.22Zm1.45,0c0,1.06.23,1.86.7,2.39.46.53,1.05.79,1.75.79s1.28-.27,1.74-.8c.46-.53.7-1.34.7-2.43,0-1.03-.23-1.8-.7-2.33-.47-.53-1.05-.79-1.74-.79s-1.29.26-1.75.79c-.46.53-.7,1.32-.7,2.38Z"/><path d="m821.4,101.43l1.37.2c.06.42.22.73.48.92.35.26.83.39,1.43.39.65,0,1.15-.13,1.51-.39.35-.26.59-.62.72-1.09.07-.29.11-.89.1-1.8-.61.72-1.38,1.09-2.3,1.09-1.14,0-2.02-.41-2.65-1.23-.62-.82-.94-1.81-.94-2.96,0-.79.14-1.52.43-2.19.29-.67.7-1.19,1.25-1.55.54-.36,1.18-.55,1.92-.55.98,0,1.79.4,2.42,1.19v-1h1.3v7.17c0,1.29-.13,2.21-.39,2.75-.26.54-.68.96-1.25,1.28s-1.27.47-2.11.47c-.99,0-1.79-.22-2.4-.67s-.9-1.12-.88-2.01Zm1.16-4.98c0,1.09.22,1.88.65,2.38.43.5.97.75,1.62.75s1.19-.25,1.62-.75c.44-.5.66-1.28.66-2.34s-.23-1.78-.68-2.3c-.45-.52-.99-.77-1.63-.77s-1.16.25-1.59.76-.66,1.26-.66,2.26Z"/><path d="m830.5,103.93l-.16-1.32c.31.08.58.12.8.12.31,0,.56-.05.75-.16.19-.1.34-.25.46-.44.09-.14.23-.49.43-1.05.03-.08.07-.19.12-.34l-3.15-8.31h1.52l1.73,4.8c.22.61.42,1.25.6,1.92.16-.65.35-1.28.58-1.89l1.77-4.84h1.41l-3.16,8.44c-.34.91-.6,1.54-.79,1.88-.25.46-.54.8-.86,1.02-.32.22-.71.32-1.16.32-.27,0-.57-.06-.91-.17Z"/><path d="m626.95,118.91c-.52.44-1.02.76-1.5.94-.48.18-1,.27-1.55.27-.91,0-1.61-.22-2.1-.67-.49-.45-.73-1.01-.73-1.71,0-.41.09-.78.28-1.11.18-.34.43-.61.73-.81.3-.2.64-.36,1.01-.46.28-.07.69-.14,1.25-.21,1.14-.14,1.97-.3,2.51-.48,0-.19,0-.31,0-.37,0-.57-.13-.98-.4-1.21-.36-.32-.89-.48-1.6-.48-.66,0-1.15.12-1.46.35-.32.23-.55.64-.7,1.23l-1.38-.19c.12-.59.33-1.06.62-1.43.29-.36.7-.64,1.24-.84.54-.2,1.17-.29,1.88-.29s1.28.08,1.73.25c.44.17.77.38.98.63.21.25.35.57.44.96.05.24.07.67.07,1.3v1.88c0,1.31.03,2.13.09,2.48.06.35.18.68.36,1h-1.47c-.15-.29-.24-.63-.28-1.02Zm-.12-3.14c-.51.21-1.28.39-2.3.53-.58.08-.99.18-1.23.28-.24.1-.42.26-.55.46-.13.2-.2.42-.2.67,0,.38.14.69.43.94.28.25.7.38,1.25.38s1.02-.12,1.45-.36c.42-.24.73-.56.93-.97.15-.32.23-.79.23-1.41v-.52Z"/><path d="m630.44,119.94v-8.3h1.27v1.18c.61-.91,1.49-1.37,2.64-1.37.5,0,.96.09,1.38.27.42.18.73.42.94.71.21.29.35.64.44,1.04.05.26.08.72.08,1.37v5.1h-1.41v-5.05c0-.57-.05-1-.16-1.29-.11-.28-.3-.51-.58-.68-.28-.17-.61-.25-.98-.25-.6,0-1.12.19-1.55.57-.44.38-.65,1.1-.65,2.16v4.53h-1.41Z"/><path d="m644.72,119.94v-1.05c-.53.82-1.3,1.23-2.32,1.23-.66,0-1.27-.18-1.82-.55s-.98-.87-1.29-1.53c-.3-.65-.46-1.4-.46-2.25s.14-1.58.41-2.25c.28-.67.69-1.19,1.24-1.55.55-.36,1.17-.54,1.85-.54.5,0,.95.11,1.34.32s.71.49.95.82v-4.11h1.4v11.45h-1.3Zm-4.45-4.14c0,1.06.22,1.86.67,2.38.45.53.98.79,1.59.79s1.14-.25,1.57-.75c.43-.5.64-1.27.64-2.3,0-1.14-.22-1.97-.66-2.5s-.98-.8-1.62-.8-1.15.26-1.57.77c-.42.51-.63,1.32-.63,2.41Z"/><path d="m658.09,116.9l1.38.18c-.15.95-.54,1.7-1.16,2.24-.62.54-1.39.81-2.29.81-1.14,0-2.05-.37-2.74-1.11-.69-.74-1.04-1.81-1.04-3.19,0-.9.15-1.68.45-2.35s.75-1.18,1.36-1.51c.61-.34,1.27-.5,1.98-.5.9,0,1.64.23,2.21.68.57.46.94,1.1,1.1,1.94l-1.37.21c-.13-.56-.36-.98-.69-1.26-.33-.28-.73-.42-1.2-.42-.71,0-1.28.25-1.73.76-.44.51-.66,1.31-.66,2.41s.21,1.92.64,2.43c.43.51.98.76,1.67.76.55,0,1.01-.17,1.38-.51.37-.34.6-.86.7-1.56Z"/><path d="m660.66,119.94v-8.3h1.27v1.26c.32-.59.62-.98.89-1.16s.57-.28.9-.28c.47,0,.96.15,1.45.45l-.48,1.3c-.34-.2-.69-.3-1.03-.3-.31,0-.58.09-.83.28-.25.19-.42.44-.52.77-.16.5-.23,1.05-.23,1.64v4.34h-1.41Z"/><path d="m671.69,117.27l1.45.18c-.23.85-.65,1.51-1.27,1.98-.62.47-1.41.7-2.38.7-1.21,0-2.18-.37-2.89-1.12-.71-.75-1.07-1.8-1.07-3.14s.36-2.48,1.08-3.25c.72-.77,1.65-1.16,2.8-1.16s2.02.38,2.72,1.13c.7.76,1.05,1.82,1.05,3.19,0,.08,0,.21,0,.38h-6.19c.05.91.31,1.61.77,2.09.46.48,1.04.73,1.73.73.52,0,.96-.14,1.32-.41.36-.27.65-.7.87-1.3Zm-4.62-2.27h4.63c-.06-.7-.24-1.22-.53-1.57-.45-.54-1.03-.81-1.74-.81-.65,0-1.19.22-1.63.65-.44.43-.68,1.01-.73,1.73Z"/><path d="m680.32,118.91c-.52.44-1.02.76-1.5.94-.48.18-1,.27-1.55.27-.91,0-1.61-.22-2.1-.67-.49-.45-.73-1.01-.73-1.71,0-.41.09-.78.28-1.11.18-.34.43-.61.73-.81.3-.2.64-.36,1.01-.46.28-.07.69-.14,1.25-.21,1.14-.14,1.97-.3,2.51-.48,0-.19,0-.31,0-.37,0-.57-.13-.98-.4-1.21-.36-.32-.89-.48-1.6-.48-.66,0-1.15.12-1.46.35-.32.23-.55.64-.7,1.23l-1.38-.19c.12-.59.33-1.06.62-1.43.29-.36.7-.64,1.24-.84.54-.2,1.17-.29,1.88-.29s1.28.08,1.73.25c.44.17.77.38.98.63.21.25.35.57.44.96.05.24.07.67.07,1.3v1.88c0,1.31.03,2.13.09,2.48.06.35.18.68.36,1h-1.47c-.15-.29-.24-.63-.28-1.02Zm-.12-3.14c-.51.21-1.28.39-2.3.53-.58.08-.99.18-1.23.28-.24.1-.42.26-.55.46-.13.2-.2.42-.2.67,0,.38.14.69.43.94.28.25.7.38,1.25.38s1.02-.12,1.45-.36c.42-.24.73-.56.93-.97.15-.32.23-.79.23-1.41v-.52Z"/><path d="m686.87,118.68l.2,1.24c-.4.08-.75.12-1.06.12-.51,0-.91-.08-1.19-.24s-.48-.37-.59-.64c-.11-.26-.17-.82-.17-1.66v-4.77h-1.03v-1.09h1.03v-2.05l1.4-.84v2.9h1.41v1.09h-1.41v4.85c0,.4.02.66.07.77.05.11.13.21.24.27.11.07.27.1.48.1.16,0,.36-.02.62-.05Z"/><path d="m693.93,117.27l1.45.18c-.23.85-.65,1.51-1.27,1.98-.62.47-1.41.7-2.38.7-1.21,0-2.18-.37-2.89-1.12-.71-.75-1.07-1.8-1.07-3.14s.36-2.48,1.08-3.25c.72-.77,1.65-1.16,2.8-1.16s2.02.38,2.72,1.13c.7.76,1.05,1.82,1.05,3.19,0,.08,0,.21,0,.38h-6.19c.05.91.31,1.61.77,2.09.46.48,1.04.73,1.73.73.52,0,.96-.14,1.32-.41.36-.27.65-.7.87-1.3Zm-4.62-2.27h4.63c-.06-.7-.24-1.22-.53-1.57-.45-.54-1.03-.81-1.74-.81-.65,0-1.19.22-1.63.65-.44.43-.68,1.01-.73,1.73Z"/><path d="m696.58,117.46l1.39-.22c.08.56.3.98.65,1.28.36.3.86.45,1.5.45s1.12-.13,1.44-.39c.31-.26.47-.57.47-.93,0-.32-.14-.57-.41-.75-.19-.12-.67-.28-1.44-.48-1.03-.26-1.75-.49-2.14-.68-.4-.19-.7-.45-.91-.79-.21-.34-.31-.71-.31-1.11,0-.37.08-.71.25-1.03.17-.31.4-.58.69-.79.22-.16.52-.3.89-.41.38-.11.78-.17,1.21-.17.65,0,1.22.09,1.71.28s.86.44,1.09.76.4.75.48,1.29l-1.38.19c-.06-.43-.24-.76-.54-1-.3-.24-.72-.36-1.27-.36-.65,0-1.11.11-1.38.32-.28.21-.41.46-.41.75,0,.18.06.35.17.49.11.15.29.28.54.38.14.05.55.17,1.24.36.99.27,1.69.48,2.08.65.39.17.7.42.93.74.22.32.34.72.34,1.2s-.14.91-.41,1.32-.67.73-1.18.96-1.1.34-1.75.34c-1.08,0-1.9-.22-2.46-.67-.57-.45-.93-1.11-1.08-1.99Z"/><path d="m711.9,119.94l-3.16-8.3h1.48l1.78,4.97c.19.54.37,1.09.53,1.67.12-.44.3-.96.52-1.58l1.84-5.06h1.45l-3.14,8.3h-1.31Z"/><path d="m723.01,118.91c-.52.44-1.02.76-1.5.94-.48.18-1,.27-1.55.27-.91,0-1.61-.22-2.1-.67-.49-.45-.73-1.01-.73-1.71,0-.41.09-.78.28-1.11.18-.34.43-.61.73-.81.3-.2.64-.36,1.01-.46.28-.07.69-.14,1.25-.21,1.14-.14,1.97-.3,2.51-.48,0-.19,0-.31,0-.37,0-.57-.13-.98-.4-1.21-.36-.32-.89-.48-1.6-.48-.66,0-1.15.12-1.46.35-.32.23-.55.64-.7,1.23l-1.38-.19c.12-.59.33-1.06.62-1.43.29-.36.7-.64,1.24-.84.54-.2,1.17-.29,1.88-.29s1.28.08,1.73.25c.44.17.77.38.98.63.21.25.35.57.44.96.05.24.07.67.07,1.3v1.88c0,1.31.03,2.13.09,2.48.06.35.18.68.36,1h-1.47c-.15-.29-.24-.63-.28-1.02Zm-.12-3.14c-.51.21-1.28.39-2.3.53-.58.08-.99.18-1.23.28-.24.1-.42.26-.55.46-.13.2-.2.42-.2.67,0,.38.14.69.43.94.28.25.7.38,1.25.38s1.02-.12,1.45-.36c.42-.24.73-.56.93-.97.15-.32.23-.79.23-1.41v-.52Z"/><path d="m726.46,119.94v-11.45h1.41v11.45h-1.41Z"/><path d="m735.48,119.94v-1.22c-.65.94-1.52,1.41-2.63,1.41-.49,0-.95-.09-1.37-.28-.42-.19-.74-.42-.95-.71-.21-.28-.35-.63-.43-1.04-.06-.28-.09-.71-.09-1.31v-5.14h1.41v4.6c0,.73.03,1.23.09,1.48.09.37.28.66.56.87.29.21.64.32,1.06.32s.82-.11,1.19-.32c.37-.22.63-.51.79-.88.15-.37.23-.91.23-1.62v-4.45h1.41v8.3h-1.26Z"/><path d="m744.62,117.27l1.45.18c-.23.85-.65,1.51-1.27,1.98-.62.47-1.41.7-2.38.7-1.21,0-2.18-.37-2.89-1.12-.71-.75-1.07-1.8-1.07-3.14s.36-2.48,1.08-3.25c.72-.77,1.65-1.16,2.8-1.16s2.02.38,2.72,1.13c.7.76,1.05,1.82,1.05,3.19,0,.08,0,.21,0,.38h-6.19c.05.91.31,1.61.77,2.09.46.48,1.04.73,1.73.73.52,0,.96-.14,1.32-.41.36-.27.65-.7.87-1.3Zm-4.62-2.27h4.63c-.06-.7-.24-1.22-.53-1.57-.45-.54-1.03-.81-1.74-.81-.65,0-1.19.22-1.63.65-.44.43-.68,1.01-.73,1.73Z"/><path d="m752.29,110.1v-1.62h1.41v1.62h-1.41Zm0,9.84v-8.3h1.41v8.3h-1.41Z"/><path d="m755.84,119.94v-8.3h1.27v1.18c.61-.91,1.49-1.37,2.64-1.37.5,0,.96.09,1.38.27.42.18.73.42.94.71.21.29.35.64.44,1.04.05.26.08.72.08,1.37v5.1h-1.41v-5.05c0-.57-.05-1-.16-1.29-.11-.28-.3-.51-.58-.68-.28-.17-.61-.25-.98-.25-.6,0-1.12.19-1.55.57-.44.38-.65,1.1-.65,2.16v4.53h-1.41Z"/><path d="m769.19,119.94v-8.3h1.27v1.18c.61-.91,1.49-1.37,2.64-1.37.5,0,.96.09,1.38.27.42.18.73.42.94.71.21.29.35.64.44,1.04.05.26.08.72.08,1.37v5.1h-1.41v-5.05c0-.57-.05-1-.16-1.29-.11-.28-.3-.51-.58-.68-.28-.17-.61-.25-.98-.25-.6,0-1.12.19-1.55.57-.44.38-.65,1.1-.65,2.16v4.53h-1.41Z"/><path d="m777.56,115.79c0-1.54.43-2.67,1.28-3.41.71-.61,1.58-.92,2.61-.92,1.14,0,2.07.37,2.8,1.12.72.75,1.09,1.78,1.09,3.1,0,1.07-.16,1.91-.48,2.52-.32.61-.79,1.09-1.4,1.43-.61.34-1.28.51-2,.51-1.16,0-2.1-.37-2.82-1.12-.72-.74-1.07-1.82-1.07-3.22Zm1.45,0c0,1.06.23,1.86.7,2.39.46.53,1.05.79,1.75.79s1.28-.27,1.74-.8c.46-.53.7-1.34.7-2.43,0-1.03-.23-1.8-.7-2.33-.47-.53-1.05-.79-1.74-.79s-1.29.26-1.75.79c-.46.53-.7,1.32-.7,2.38Z"/><path d="m789.29,119.94l-3.16-8.3h1.48l1.78,4.97c.19.54.37,1.09.53,1.67.12-.44.3-.96.52-1.58l1.84-5.06h1.45l-3.14,8.3h-1.31Z"/><path d="m800.66,117.27l1.45.18c-.23.85-.65,1.51-1.27,1.98-.62.47-1.41.7-2.38.7-1.21,0-2.18-.37-2.89-1.12-.71-.75-1.07-1.8-1.07-3.14s.36-2.48,1.08-3.25c.72-.77,1.65-1.16,2.8-1.16s2.02.38,2.72,1.13c.7.76,1.05,1.82,1.05,3.19,0,.08,0,.21,0,.38h-6.19c.05.91.31,1.61.77,2.09.46.48,1.04.73,1.73.73.52,0,.96-.14,1.32-.41.36-.27.65-.7.87-1.3Zm-4.62-2.27h4.63c-.06-.7-.24-1.22-.53-1.57-.45-.54-1.03-.81-1.74-.81-.65,0-1.19.22-1.63.65-.44.43-.68,1.01-.73,1.73Z"/><path d="m803.85,119.94v-11.45h1.41v11.45h-1.41Z"/><path d="m813.41,119.94l-2.54-8.3h1.45l1.32,4.79.49,1.78c.02-.09.16-.66.43-1.71l1.32-4.86h1.45l1.24,4.81.41,1.59.48-1.6,1.42-4.8h1.37l-2.59,8.3h-1.46l-1.32-4.97-.32-1.41-1.68,6.38h-1.47Z"/><path d="m828.85,118.91c-.52.44-1.02.76-1.5.94-.48.18-1,.27-1.55.27-.91,0-1.61-.22-2.1-.67-.49-.45-.73-1.01-.73-1.71,0-.41.09-.78.28-1.11.18-.34.43-.61.73-.81.3-.2.64-.36,1.01-.46.28-.07.69-.14,1.25-.21,1.14-.14,1.97-.3,2.51-.48,0-.19,0-.31,0-.37,0-.57-.13-.98-.4-1.21-.36-.32-.89-.48-1.6-.48-.66,0-1.15.12-1.46.35-.32.23-.55.64-.7,1.23l-1.38-.19c.12-.59.33-1.06.62-1.43.29-.36.7-.64,1.24-.84.54-.2,1.17-.29,1.88-.29s1.28.08,1.73.25c.44.17.77.38.98.63.21.25.35.57.44.96.05.24.07.67.07,1.3v1.88c0,1.31.03,2.13.09,2.48.06.35.18.68.36,1h-1.47c-.15-.29-.24-.63-.28-1.02Zm-.12-3.14c-.51.21-1.28.39-2.3.53-.58.08-.99.18-1.23.28-.24.1-.42.26-.55.46-.13.2-.2.42-.2.67,0,.38.14.69.43.94.28.25.7.38,1.25.38s1.02-.12,1.45-.36c.42-.24.73-.56.93-.97.15-.32.23-.79.23-1.41v-.52Z"/><path d="m832.27,123.13l-.16-1.32c.31.08.58.12.8.12.31,0,.56-.05.75-.16.19-.1.34-.25.46-.44.09-.14.23-.49.43-1.05.03-.08.07-.19.12-.34l-3.15-8.31h1.52l1.73,4.8c.22.61.42,1.25.6,1.92.16-.65.35-1.28.58-1.89l1.77-4.84h1.41l-3.16,8.44c-.34.91-.6,1.54-.79,1.88-.25.46-.54.8-.86,1.02-.32.22-.71.32-1.16.32-.27,0-.57-.06-.91-.17Z"/><path d="m839.77,117.46l1.39-.22c.08.56.3.98.65,1.28.36.3.86.45,1.5.45s1.12-.13,1.44-.39c.31-.26.47-.57.47-.93,0-.32-.14-.57-.41-.75-.19-.12-.67-.28-1.44-.48-1.03-.26-1.75-.49-2.14-.68-.4-.19-.7-.45-.91-.79-.21-.34-.31-.71-.31-1.11,0-.37.08-.71.25-1.03.17-.31.4-.58.69-.79.22-.16.52-.3.89-.41.38-.11.78-.17,1.21-.17.65,0,1.22.09,1.71.28s.86.44,1.09.76.4.75.48,1.29l-1.38.19c-.06-.43-.24-.76-.54-1-.3-.24-.72-.36-1.27-.36-.65,0-1.11.11-1.38.32-.28.21-.41.46-.41.75,0,.18.06.35.17.49.11.15.29.28.54.38.14.05.55.17,1.24.36.99.27,1.69.48,2.08.65.39.17.7.42.93.74.22.32.34.72.34,1.2s-.14.91-.41,1.32-.67.73-1.18.96-1.1.34-1.75.34c-1.08,0-1.9-.22-2.46-.67-.57-.45-.93-1.11-1.08-1.99Z"/><line x1="423.47" y1="105.25" x2="597" y2="105.25" style="fill:none; stroke:#000; stroke-miterlimit:10;"/><line x1="419.47" y1="250.53" x2="597" y2="250.53" style="fill:none; stroke:#000; stroke-miterlimit:10;"/><line x1="390.47" y1="396.08" x2="597" y2="396.08" style="fill:none; stroke:#000; stroke-miterlimit:10;"/></svg>