<?xml version="1.0" encoding="UTF-8"?>
<svg id="Ebene_1" data-name="Ebene 1" xmlns="http://www.w3.org/2000/svg" viewBox="0 0 1180 700">
  <defs>
    <style>
      .cls-1 {
        fill: none;
        stroke: #1d1d1b;
        stroke-miterlimit: 10;
      }

      .cls-2 {
        fill: #d9e4ff;
      }

      .cls-3 {
        fill: #0333ff;
      }

      .cls-4, .cls-5 {
        fill: #1d1d1b;
      }

      .cls-5 {
        font-family: ArialMT, Arial;
        font-size: 26px;
      }

      .cls-6 {
        letter-spacing: 0em;
      }

      .cls-7 {
        fill: #99b1ff;
      }

      .cls-8 {
        letter-spacing: 0em;
      }

      .cls-9 {
        fill: #4d78ff;
      }

      .cls-10 {
        fill: #00d6bf;
      }

      .cls-11 {
        letter-spacing: -.02em;
      }

      .cls-12 {
        letter-spacing: -.02em;
      }

      .cls-13 {
        letter-spacing: -.02em;
      }

      .cls-14 {
        letter-spacing: -.02em;
      }

      .cls-15 {
        letter-spacing: -.02em;
      }

      .cls-16 {
        letter-spacing: -.01em;
      }

      .cls-17 {
        letter-spacing: -.03em;
      }

      .cls-18 {
        letter-spacing: 0em;
      }

      .cls-19 {
        letter-spacing: 0em;
      }

      .cls-20 {
        letter-spacing: 0em;
      }

      .cls-21 {
        letter-spacing: 0em;
      }

      .cls-22 {
        letter-spacing: 0em;
      }

      .cls-23 {
        letter-spacing: -.01em;
      }

      .cls-24 {
        letter-spacing: -.01em;
      }

      .cls-25 {
        letter-spacing: -.01em;
      }

      .cls-26 {
        letter-spacing: -.01em;
      }

      .cls-27 {
        letter-spacing: -.01em;
      }

      .cls-28 {
        letter-spacing: -.01em;
      }

      .cls-29 {
        letter-spacing: -.01em;
      }

      .cls-30 {
        letter-spacing: -.01em;
      }

      .cls-31 {
        letter-spacing: -.01em;
      }

      .cls-32 {
        letter-spacing: 0em;
      }

      .cls-33 {
        letter-spacing: 0em;
      }

      .cls-34 {
        letter-spacing: 0em;
      }

      .cls-35 {
        letter-spacing: 0em;
      }

      .cls-36 {
        letter-spacing: 0em;
      }

      .cls-37 {
        letter-spacing: 0em;
      }

      .cls-38 {
        letter-spacing: 0em;
      }

      .cls-39 {
        letter-spacing: 0em;
      }

      .cls-40 {
        letter-spacing: 0em;
      }

      .cls-41 {
        letter-spacing: 0em;
      }

      .cls-42 {
        letter-spacing: 0em;
      }

      .cls-43 {
        letter-spacing: .02em;
      }

      .cls-44 {
        letter-spacing: .03em;
      }

      .cls-45 {
        letter-spacing: 0em;
      }

      .cls-46 {
        letter-spacing: 0em;
      }

      .cls-47 {
        letter-spacing: 0em;
      }
    </style>
  </defs>
  <g>
    <circle class="cls-2" cx="350" cy="350" r="338.48"/>
    <circle class="cls-4" cx="505.87" cy="118.67" r="6.38"/>
    <text class="cls-5" transform="translate(760.3 127.64)"><tspan class="cls-46" x="0" y="0">A</tspan><tspan class="cls-44" x="17.48" y="0">r</tspan><tspan class="cls-19" x="26.9" y="0">t</tspan><tspan class="cls-38" x="33.97" y="0">i</tspan><tspan class="cls-43" x="39.54" y="0">f</tspan><tspan class="cls-32" x="47.17" y="0">i</tspan><tspan class="cls-8" x="52.71" y="0">c</tspan><tspan class="cls-27" x="65.72" y="0">i</tspan><tspan class="cls-31" x="71.22" y="0">a</tspan><tspan x="85.38" y="0">l </tspan><tspan class="cls-29" x="98.38" y="0">I</tspan><tspan class="cls-15" x="105.3" y="0">n</tspan><tspan class="cls-13" x="119.25" y="0">t</tspan><tspan class="cls-39" x="126.01" y="0">e</tspan><tspan class="cls-24" x="140.26" y="0">l</tspan><tspan class="cls-16" x="145.72" y="0">l</tspan><tspan class="cls-18" x="151.13" y="0">i</tspan><tspan class="cls-38" x="156.73" y="0">g</tspan><tspan class="cls-35" x="170.99" y="0">e</tspan><tspan class="cls-25" x="185.19" y="0">n</tspan><tspan class="cls-45" x="199.34" y="0">c</tspan><tspan x="212.48" y="0">e</tspan></text>
    <line class="cls-1" x1="505.87" y1="118.67" x2="744.27" y2="118.67"/>
  </g>
  <g>
    <circle class="cls-7" cx="421.37" cy="421.37" r="221.36"/>
    <circle class="cls-4" cx="505.87" cy="277.99" r="6.38"/>
    <text class="cls-5" transform="translate(760.3 286.96)"><tspan class="cls-41" x="0" y="0">M</tspan><tspan class="cls-11" x="21.61" y="0">a</tspan><tspan class="cls-6" x="35.67" y="0">c</tspan><tspan class="cls-23" x="48.66" y="0">h</tspan><tspan class="cls-25" x="62.79" y="0">i</tspan><tspan class="cls-27" x="68.25" y="0">n</tspan><tspan x="82.44" y="0">e </tspan><tspan class="cls-12" x="104.12" y="0">L</tspan><tspan class="cls-36" x="118.11" y="0">e</tspan><tspan class="cls-30" x="132.32" y="0">a</tspan><tspan class="cls-47" x="146.48" y="0">r</tspan><tspan class="cls-26" x="155.27" y="0">n</tspan><tspan class="cls-25" x="169.38" y="0">i</tspan><tspan class="cls-28" x="174.85" y="0">n</tspan><tspan x="189.04" y="0">g</tspan></text>
    <line class="cls-1" x1="505.87" y1="277.99" x2="744.27" y2="277.99"/>
  </g>
  <g>
    <circle class="cls-9" cx="478.61" cy="478.61" r="117.99"/>
    <circle class="cls-4" cx="505.87" cy="409.8" r="6.38"/>
    <text class="cls-5" transform="translate(760.3 418.77)"><tspan class="cls-21" x="0" y="0">D</tspan><tspan class="cls-33" x="18.65" y="0">e</tspan><tspan class="cls-34" x="32.9" y="0">e</tspan><tspan x="47.1" y="0">p </tspan><tspan class="cls-12" x="68.78" y="0">L</tspan><tspan class="cls-36" x="82.78" y="0">e</tspan><tspan class="cls-30" x="96.98" y="0">a</tspan><tspan class="cls-47" x="111.14" y="0">r</tspan><tspan class="cls-26" x="119.93" y="0">n</tspan><tspan class="cls-25" x="134.04" y="0">i</tspan><tspan class="cls-28" x="139.51" y="0">n</tspan><tspan x="153.71" y="0">g</tspan></text>
    <line class="cls-1" x1="505.87" y1="409.8" x2="744.27" y2="409.8"/>
  </g>
  <g>
    <circle class="cls-3" cx="505.22" cy="507.87" r="59.64"/>
    <circle class="cls-4" cx="505.87" cy="484.83" r="6.38"/>
    <text class="cls-5" transform="translate(760.3 493.8)"><tspan class="cls-42" x="0" y="0">G</tspan><tspan class="cls-34" x="20.21" y="0">e</tspan><tspan class="cls-27" x="34.41" y="0">n</tspan><tspan class="cls-37" x="48.6" y="0">e</tspan><tspan class="cls-40" x="62.81" y="0">r</tspan><tspan class="cls-14" x="71.28" y="0">a</tspan><tspan class="cls-20" x="85.29" y="0">t</tspan><tspan class="cls-37" x="92.36" y="0">i</tspan><tspan class="cls-17" x="97.89" y="0">v</tspan><tspan x="110.21" y="0">e </tspan><tspan class="cls-22" x="131.89" y="0">A</tspan><tspan x="149.13" y="0">I</tspan></text>
    <line class="cls-1" x1="505.87" y1="484.83" x2="744.27" y2="484.83"/>
  </g>
  <g>
    <circle class="cls-10" cx="505.22" cy="541.24" r="16.68"/>
    <circle class="cls-4" cx="505.87" cy="541.37" r="6.38"/>
    <g>
      <path class="cls-4" d="M767.37,550.35v-16.42h-6.13v-2.2h14.75v2.2h-6.16v16.42h-2.46Z"/>
      <path class="cls-4" d="M775.65,550.35v-13.48h2.06v2.04c.52-.96,1.01-1.59,1.45-1.89s.93-.46,1.47-.46c.77,0,1.55.25,2.35.74l-.79,2.12c-.56-.33-1.12-.5-1.68-.5-.5,0-.95.15-1.35.45-.4.3-.68.72-.85,1.25-.25.81-.38,1.7-.38,2.67v7.06h-2.29Z"/>
      <path class="cls-4" d="M792.95,548.68c-.85.72-1.66,1.23-2.44,1.52-.78.3-1.62.44-2.52.44-1.48,0-2.62-.36-3.42-1.08-.79-.72-1.19-1.65-1.19-2.77,0-.66.15-1.26.45-1.81.3-.55.69-.98,1.18-1.31.49-.33,1.03-.58,1.64-.75.45-.12,1.13-.23,2.03-.34,1.85-.22,3.2-.48,4.08-.79,0-.31.01-.51.01-.6,0-.93-.22-1.59-.65-1.97-.58-.52-1.45-.77-2.6-.77-1.07,0-1.87.19-2.38.57-.51.38-.89,1.04-1.14,2l-2.23-.3c.2-.96.54-1.73,1-2.32.47-.59,1.14-1.04,2.02-1.36.88-.32,1.9-.48,3.06-.48s2.09.14,2.81.41c.72.27,1.25.61,1.59,1.02.34.41.58.93.71,1.55.08.39.11,1.09.11,2.11v3.05c0,2.12.05,3.47.15,4.03.1.56.29,1.1.58,1.62h-2.39c-.24-.47-.39-1.03-.46-1.66ZM792.76,543.58c-.83.34-2.07.63-3.73.86-.94.14-1.6.29-1.99.46-.39.17-.69.42-.9.74-.21.33-.32.69-.32,1.08,0,.61.23,1.12.69,1.52.46.41,1.14.61,2.02.61s1.66-.19,2.35-.58c.69-.39,1.19-.91,1.51-1.58.25-.52.37-1.28.37-2.29v-.84Z"/>
      <path class="cls-4" d="M798.3,550.35v-13.48h2.06v1.92c.99-1.48,2.42-2.22,4.29-2.22.81,0,1.56.15,2.24.44.68.29,1.19.67,1.53,1.15.34.47.58,1.04.71,1.69.08.42.13,1.16.13,2.22v8.29h-2.29v-8.2c0-.93-.09-1.63-.27-2.09-.18-.46-.49-.83-.95-1.1-.45-.28-.98-.41-1.59-.41-.97,0-1.81.31-2.52.93-.71.62-1.06,1.79-1.06,3.52v7.36h-2.29Z"/>
      <path class="cls-4" d="M811.51,546.32l2.26-.36c.13.91.48,1.6,1.06,2.08.58.48,1.39.72,2.43.72s1.83-.21,2.34-.64c.51-.43.76-.93.76-1.5,0-.52-.22-.92-.67-1.22-.31-.2-1.09-.46-2.34-.77-1.68-.42-2.84-.79-3.49-1.1-.65-.31-1.14-.74-1.47-1.28-.33-.55-.5-1.15-.5-1.81,0-.6.14-1.16.41-1.67.28-.51.65-.94,1.12-1.28.36-.26.84-.48,1.45-.67.61-.18,1.27-.27,1.97-.27,1.06,0,1.99.15,2.79.46s1.39.72,1.77,1.24.64,1.22.79,2.09l-2.23.3c-.1-.69-.4-1.24-.88-1.62-.49-.39-1.17-.58-2.06-.58-1.05,0-1.8.17-2.25.52-.45.35-.67.75-.67,1.22,0,.3.09.56.28.8.19.25.48.45.88.61.23.08.9.28,2.02.58,1.62.43,2.74.79,3.38,1.06.64.27,1.14.67,1.5,1.2.36.53.55,1.18.55,1.96s-.22,1.48-.67,2.15-1.08,1.19-1.92,1.56-1.79.55-2.84.55c-1.75,0-3.09-.36-4.01-1.09-.92-.73-1.5-1.81-1.76-3.24Z"/>
      <path class="cls-4" d="M825.69,550.35v-11.71h-2.02v-1.78h2.02v-1.43c0-.91.08-1.58.24-2.02.22-.59.61-1.07,1.16-1.44.55-.37,1.33-.55,2.33-.55.64,0,1.35.08,2.13.23l-.34,1.99c-.47-.08-.92-.13-1.35-.13-.69,0-1.18.15-1.47.44-.29.3-.43.85-.43,1.66v1.24h2.63v1.78h-2.63v11.71h-2.27Z"/>
      <path class="cls-4" d="M831.21,543.6c0-2.5.69-4.35,2.08-5.55,1.16-1,2.57-1.5,4.24-1.5,1.85,0,3.37.61,4.54,1.82,1.18,1.21,1.76,2.89,1.76,5.03,0,1.74-.26,3.1-.78,4.09-.52.99-1.28,1.77-2.27,2.32-1,.55-2.08.83-3.26.83-1.89,0-3.41-.6-4.58-1.82-1.16-1.21-1.75-2.95-1.75-5.23ZM833.56,543.6c0,1.73.38,3.02,1.13,3.88.75.86,1.7,1.29,2.84,1.29s2.08-.43,2.83-1.29c.75-.86,1.13-2.18,1.13-3.95,0-1.67-.38-2.93-1.14-3.79-.76-.86-1.7-1.29-2.83-1.29s-2.09.43-2.84,1.28c-.75.86-1.13,2.15-1.13,3.87Z"/>
      <path class="cls-4" d="M846.32,550.35v-13.48h2.06v2.04c.53-.96,1.01-1.59,1.45-1.89s.93-.46,1.47-.46c.77,0,1.55.25,2.35.74l-.79,2.12c-.56-.33-1.12-.5-1.68-.5-.5,0-.95.15-1.35.45-.4.3-.68.72-.85,1.25-.25.81-.38,1.7-.38,2.67v7.06h-2.29Z"/>
      <path class="cls-4" d="M855.13,550.35v-13.48h2.04v1.89c.42-.66.99-1.19,1.69-1.59.7-.4,1.5-.6,2.4-.6,1,0,1.82.21,2.46.62.64.42,1.09,1,1.35,1.74,1.07-1.57,2.46-2.36,4.16-2.36,1.34,0,2.37.37,3.08,1.11.72.74,1.08,1.88,1.08,3.42v9.25h-2.27v-8.49c0-.91-.07-1.57-.22-1.97-.15-.4-.42-.73-.81-.97-.39-.25-.85-.37-1.37-.37-.95,0-1.73.32-2.36.95-.63.63-.94,1.64-.94,3.03v7.83h-2.29v-8.76c0-1.02-.19-1.78-.56-2.29-.37-.51-.98-.76-1.83-.76-.64,0-1.24.17-1.78.51-.55.34-.94.83-1.19,1.49-.25.65-.37,1.59-.37,2.82v7h-2.29Z"/>
      <path class="cls-4" d="M885.8,546l2.36.29c-.37,1.38-1.06,2.45-2.07,3.21-1.01.76-2.29,1.14-3.86,1.14-1.97,0-3.54-.61-4.69-1.82-1.16-1.21-1.73-2.92-1.73-5.11s.58-4.03,1.75-5.28c1.17-1.25,2.68-1.88,4.54-1.88s3.28.61,4.42,1.84c1.14,1.23,1.71,2.95,1.71,5.18,0,.14,0,.34-.01.61h-10.05c.08,1.48.5,2.62,1.26,3.4.75.79,1.69,1.18,2.82,1.18.84,0,1.55-.22,2.15-.66.59-.44,1.06-1.14,1.41-2.11ZM878.3,542.31h7.53c-.1-1.13-.39-1.98-.86-2.55-.73-.88-1.67-1.32-2.83-1.32-1.05,0-1.93.35-2.65,1.05-.71.7-1.11,1.64-1.19,2.82Z"/>
      <path class="cls-4" d="M890.76,550.35v-13.48h2.06v2.04c.53-.96,1.01-1.59,1.45-1.89s.93-.46,1.47-.46c.77,0,1.55.25,2.35.74l-.79,2.12c-.56-.33-1.12-.5-1.68-.5-.5,0-.95.15-1.35.45-.4.3-.68.72-.85,1.25-.25.81-.38,1.7-.38,2.67v7.06h-2.29Z"/>
      <path class="cls-4" d="M897.23,544.76v-2.3h7.02v2.3h-7.02Z"/>
      <path class="cls-4" d="M907.59,550.35v-18.61h3.71l4.41,13.18c.41,1.23.7,2.15.89,2.75.21-.68.54-1.67.99-2.98l4.46-12.95h3.31v18.61h-2.37v-15.58l-5.41,15.58h-2.22l-5.38-15.84v15.84h-2.37Z"/>
      <path class="cls-4" d="M928.22,543.6c0-2.5.69-4.35,2.08-5.55,1.16-1,2.57-1.5,4.24-1.5,1.85,0,3.37.61,4.54,1.82,1.18,1.21,1.76,2.89,1.76,5.03,0,1.74-.26,3.1-.78,4.09-.52.99-1.28,1.77-2.27,2.32-1,.55-2.08.83-3.26.83-1.89,0-3.41-.6-4.58-1.82-1.16-1.21-1.75-2.95-1.75-5.23ZM930.57,543.6c0,1.73.38,3.02,1.13,3.88.75.86,1.7,1.29,2.84,1.29s2.08-.43,2.83-1.29c.75-.86,1.13-2.18,1.13-3.95,0-1.67-.38-2.93-1.14-3.79-.76-.86-1.7-1.29-2.83-1.29s-2.09.43-2.84,1.28c-.75.86-1.13,2.15-1.13,3.87Z"/>
      <path class="cls-4" d="M952.15,550.35v-1.7c-.86,1.34-2.11,2.01-3.77,2.01-1.08,0-2.06-.3-2.96-.89-.9-.59-1.6-1.42-2.09-2.48-.5-1.06-.74-2.28-.74-3.66s.22-2.57.67-3.66c.45-1.1,1.12-1.94,2.02-2.52.9-.58,1.9-.88,3.01-.88.81,0,1.54.17,2.17.51s1.15.79,1.55,1.34v-6.68h2.27v18.61h-2.12ZM944.93,543.62c0,1.73.36,3.02,1.09,3.87.73.86,1.59,1.28,2.58,1.28s1.85-.41,2.54-1.22c.7-.82,1.05-2.06,1.05-3.74,0-1.84-.36-3.2-1.07-4.06s-1.59-1.29-2.63-1.29-1.86.42-2.55,1.24c-.68.83-1.02,2.14-1.02,3.92Z"/>
      <path class="cls-4" d="M966.81,546l2.36.29c-.37,1.38-1.06,2.45-2.07,3.21-1.01.76-2.29,1.14-3.86,1.14-1.97,0-3.54-.61-4.69-1.82-1.16-1.21-1.73-2.92-1.73-5.11s.58-4.03,1.75-5.28c1.17-1.25,2.68-1.88,4.54-1.88s3.28.61,4.42,1.84c1.14,1.23,1.71,2.95,1.71,5.18,0,.14,0,.34-.01.61h-10.05c.08,1.48.5,2.62,1.26,3.4.75.79,1.69,1.18,2.82,1.18.84,0,1.55-.22,2.15-.66.59-.44,1.06-1.14,1.41-2.11ZM959.31,542.31h7.53c-.1-1.13-.39-1.98-.86-2.55-.73-.88-1.67-1.32-2.83-1.32-1.05,0-1.93.35-2.65,1.05-.72.7-1.11,1.64-1.19,2.82Z"/>
      <path class="cls-4" d="M971.78,550.35v-18.61h2.29v18.61h-2.29Z"/>
      <path class="cls-4" d="M977.23,550.35v-18.61h2.29v18.61h-2.29Z"/>
      <path class="cls-4" d="M992.06,546l2.36.29c-.37,1.38-1.06,2.45-2.07,3.21-1.01.76-2.29,1.14-3.86,1.14-1.97,0-3.54-.61-4.69-1.82-1.16-1.21-1.73-2.92-1.73-5.11s.58-4.03,1.75-5.28c1.17-1.25,2.68-1.88,4.54-1.88s3.28.61,4.42,1.84c1.14,1.23,1.71,2.95,1.71,5.18,0,.14,0,.34-.01.61h-10.05c.08,1.48.5,2.62,1.26,3.4.75.79,1.69,1.18,2.82,1.18.84,0,1.55-.22,2.15-.66.59-.44,1.06-1.14,1.41-2.11ZM984.55,542.31h7.53c-.1-1.13-.39-1.98-.86-2.55-.73-.88-1.67-1.32-2.83-1.32-1.05,0-1.93.35-2.65,1.05-.71.7-1.11,1.64-1.19,2.82Z"/>
      <path class="cls-4" d="M766.71,587.02c-1.26-1.59-2.33-3.45-3.2-5.59-.87-2.13-1.31-4.34-1.31-6.63,0-2.01.33-3.94.98-5.79.76-2.14,1.94-4.27,3.53-6.4h1.64c-1.02,1.76-1.7,3.02-2.03,3.77-.52,1.17-.92,2.39-1.22,3.66-.36,1.58-.55,3.17-.55,4.77,0,4.07,1.27,8.14,3.8,12.2h-1.64Z"/>
      <path class="cls-4" d="M772.59,581.55l-4.13-13.48h2.36l2.15,7.78.8,2.89c.03-.14.27-1.07.7-2.78l2.15-7.9h2.35l2.02,7.82.67,2.58.77-2.6,2.31-7.79h2.22l-4.21,13.48h-2.37l-2.15-8.07-.52-2.3-2.73,10.37h-2.39Z"/>
      <path class="cls-4" d="M788.72,565.56v-2.63h2.29v2.63h-2.29ZM788.72,581.55v-13.48h2.29v13.48h-2.29Z"/>
      <path class="cls-4" d="M803.52,577.2l2.36.29c-.37,1.38-1.06,2.45-2.07,3.21-1.01.76-2.29,1.14-3.86,1.14-1.97,0-3.54-.61-4.69-1.82-1.16-1.21-1.73-2.92-1.73-5.11s.58-4.03,1.75-5.28c1.17-1.25,2.68-1.88,4.54-1.88s3.28.61,4.42,1.84c1.14,1.23,1.71,2.95,1.71,5.18,0,.14,0,.34-.01.61h-10.05c.08,1.48.5,2.62,1.26,3.4.75.79,1.69,1.18,2.82,1.18.84,0,1.55-.22,2.15-.66.59-.44,1.06-1.14,1.41-2.11ZM796.02,573.51h7.53c-.1-1.13-.39-1.98-.86-2.55-.73-.88-1.67-1.32-2.83-1.32-1.05,0-1.93.35-2.65,1.05-.71.7-1.11,1.64-1.19,2.82Z"/>
      <path class="cls-4" d="M818.08,581.55h-2.12v-18.61h2.29v6.64c.96-1.21,2.2-1.82,3.69-1.82.83,0,1.61.17,2.35.5.74.33,1.35.8,1.83,1.41.48.6.85,1.33,1.12,2.19.27.86.41,1.77.41,2.74,0,2.31-.57,4.1-1.71,5.36-1.14,1.26-2.51,1.89-4.11,1.89s-2.84-.66-3.75-1.99v1.69ZM818.06,574.7c0,1.62.22,2.79.66,3.5.72,1.18,1.69,1.76,2.92,1.76,1,0,1.86-.43,2.59-1.3.73-.87,1.09-2.16,1.09-3.88s-.35-3.06-1.05-3.9-1.54-1.26-2.53-1.26-1.86.43-2.59,1.3c-.73.87-1.09,2.12-1.09,3.76Z"/>
      <path class="cls-4" d="M829.25,577.52l2.26-.36c.13.91.48,1.6,1.06,2.08.58.48,1.39.72,2.43.72s1.83-.21,2.34-.64c.51-.43.76-.93.76-1.5,0-.52-.22-.92-.67-1.22-.31-.2-1.09-.46-2.34-.77-1.68-.42-2.84-.79-3.48-1.1-.65-.31-1.14-.74-1.47-1.28-.33-.55-.5-1.15-.5-1.81,0-.6.14-1.16.41-1.67.27-.51.65-.94,1.12-1.28.36-.26.84-.48,1.45-.67.61-.18,1.27-.27,1.97-.27,1.06,0,1.99.15,2.79.46s1.39.72,1.77,1.24.64,1.22.79,2.09l-2.23.3c-.1-.69-.4-1.24-.88-1.62-.49-.39-1.17-.58-2.06-.58-1.05,0-1.8.17-2.25.52-.45.35-.67.75-.67,1.22,0,.3.09.56.28.8.19.25.48.45.88.61.23.08.9.28,2.02.58,1.62.43,2.74.79,3.38,1.06.64.27,1.14.67,1.5,1.2.36.53.55,1.18.55,1.96s-.22,1.48-.67,2.15-1.09,1.19-1.92,1.56-1.79.55-2.84.55c-1.75,0-3.09-.36-4-1.09-.92-.73-1.5-1.81-1.76-3.24Z"/>
      <path class="cls-4" d="M842.86,586.71v-18.65h2.08v1.75c.49-.69,1.05-1.2,1.66-1.54.62-.34,1.37-.51,2.25-.51,1.15,0,2.17.3,3.05.89.88.59,1.54,1.43,1.99,2.51.45,1.08.67,2.26.67,3.55,0,1.38-.25,2.62-.74,3.73s-1.21,1.95-2.16,2.54c-.94.59-1.94.88-2.98.88-.76,0-1.45-.16-2.05-.48-.61-.32-1.1-.73-1.49-1.22v6.56h-2.29ZM844.93,574.88c0,1.74.35,3.02,1.05,3.85.7.83,1.55,1.24,2.55,1.24s1.89-.43,2.61-1.29c.72-.86,1.08-2.19,1.08-3.99s-.35-3-1.06-3.86c-.71-.85-1.55-1.28-2.53-1.28s-1.83.46-2.58,1.37c-.75.91-1.12,2.23-1.12,3.97Z"/>
      <path class="cls-4" d="M859.35,581.55l-4.13-13.48h2.36l2.15,7.78.8,2.89c.03-.14.27-1.07.7-2.78l2.15-7.9h2.35l2.02,7.82.67,2.58.77-2.6,2.31-7.79h2.22l-4.21,13.48h-2.37l-2.15-8.07-.52-2.3-2.73,10.37h-2.39Z"/>
      <path class="cls-4" d="M874.77,581.55v-2.6h2.6v2.6h-2.6Z"/>
      <path class="cls-4" d="M897.57,574.25v-2.18h7.88s0,6.89,0,6.89c-1.21.96-2.46,1.69-3.75,2.18-1.29.49-2.61.73-3.96.73-1.83,0-3.49-.39-4.98-1.17-1.49-.78-2.62-1.92-3.38-3.4-.76-1.48-1.14-3.14-1.14-4.96s.38-3.5,1.14-5.07c.76-1.57,1.85-2.74,3.27-3.5s3.06-1.14,4.91-1.14c1.35,0,2.56.22,3.65.65,1.09.44,1.94,1.04,2.56,1.82.62.78,1.09,1.79,1.41,3.05l-2.22.61c-.28-.95-.63-1.69-1.04-2.23-.42-.54-1.01-.98-1.78-1.3-.77-.33-1.62-.49-2.56-.49-1.13,0-2.1.17-2.92.51-.82.34-1.48.79-1.99,1.35-.5.56-.89,1.17-1.17,1.84-.47,1.15-.71,2.4-.71,3.75,0,1.66.29,3.05.86,4.16s1.4,1.95,2.5,2.49c1.09.54,2.25.81,3.48.81,1.07,0,2.11-.21,3.12-.62,1.02-.41,1.79-.85,2.31-1.31v-3.47h-5.47Z"/>
      <path class="cls-4" d="M909.12,581.55v-18.61h7.02c1.24,0,2.18.06,2.83.18.91.15,1.68.44,2.3.87.62.43,1.12,1.03,1.49,1.8.38.77.56,1.62.56,2.54,0,1.58-.5,2.92-1.51,4.02-1.01,1.1-2.83,1.64-5.46,1.64h-4.77v7.57h-2.46ZM911.59,571.78h4.81c1.59,0,2.72-.3,3.39-.89.67-.59,1-1.43,1-2.5,0-.78-.2-1.45-.59-2-.39-.55-.91-.92-1.56-1.1-.41-.11-1.18-.17-2.3-.17h-4.76v6.65Z"/>
      <path class="cls-4" d="M931.05,581.55v-16.42h-6.13v-2.2h14.75v2.2h-6.16v16.42h-2.46Z"/>
      <path class="cls-4" d="M943.38,587.02h-1.64c2.53-4.06,3.8-8.13,3.8-12.2,0-1.59-.18-3.17-.55-4.74-.29-1.27-.69-2.49-1.21-3.66-.33-.76-1.01-2.03-2.04-3.81h1.64c1.59,2.12,2.77,4.26,3.53,6.4.65,1.85.98,3.78.98,5.79,0,2.29-.44,4.49-1.31,6.63s-1.94,4-3.19,5.59Z"/>
    </g>
    <line class="cls-1" x1="505.65" y1="541.37" x2="744.6" y2="541.37"/>
  </g>
</svg>