<?xml version="1.0" encoding="UTF-8"?><svg id="maturity" xmlns="http://www.w3.org/2000/svg" viewBox="0 0 988 525"><circle cx="538.58" cy="233.02" r="100" style="fill:none; stroke:#0333ff; stroke-miterlimit:10; stroke-width:2px;"/><text transform="translate(498.02 237.35)" style="fill:#0333ff; font-family:Arial-BoldMT, Arial; font-size:20px; font-weight:700;"><tspan x="0" y="0">Platform</tspan></text><circle cx="212.89" cy="99.19" r="50" style="fill:none; stroke:#000; stroke-miterlimit:10; stroke-width:2px;"/><text transform="translate(195.4 103.52)" style="fill:#1d1d1b; font-family:Arial-BoldMT, Arial; font-size:18px; font-weight:700;"><tspan x="0" y="0">App</tspan></text><circle cx="212.89" cy="233.02" r="50" style="fill:none; stroke:#000; stroke-miterlimit:10; stroke-width:2px;"/><text transform="translate(195.4 237.35)" style="fill:#1d1d1b; font-family:Arial-BoldMT, Arial; font-size:18px; font-weight:700;"><tspan x="0" y="0">App</tspan></text><circle cx="212.89" cy="366.86" r="50" style="fill:none; stroke:#000; stroke-miterlimit:10; stroke-width:2px;"/><text transform="translate(195.4 371.19)" style="fill:#1d1d1b; font-family:Arial-BoldMT, Arial; font-size:18px; font-weight:700;"><tspan x="0" y="0">App</tspan></text><line x1="262.89" y1="99.19" x2="464.96" y2="165.35" style="fill:#0333ff;"/><line x1="269.71" y1="101.42" x2="458.14" y2="163.12" style="fill:none; stroke:#0333ff; stroke-miterlimit:10;"/><polygon points="269.55 106.61 262.9 99.19 272.65 97.13 269.55 106.61" style="fill:#0333ff;"/><polygon points="455.21 167.4 464.96 165.35 458.31 157.92 455.21 167.4" style="fill:#0333ff;"/><line x1="262.89" y1="366.1" x2="464.96" y2="299.94" style="fill:#0333ff;"/><line x1="269.71" y1="363.87" x2="458.14" y2="302.17" style="fill:none; stroke:#0333ff; stroke-miterlimit:10;"/><polygon points="272.65 368.16 262.9 366.1 269.55 358.68 272.65 368.16" style="fill:#0333ff;"/><polygon points="458.31 307.37 464.96 299.94 455.21 297.89 458.31 307.37" style="fill:#0333ff;"/><line x1="270.07" y1="233.02" x2="431.41" y2="233.02" style="fill:none; stroke:#0333ff; stroke-miterlimit:10;"/><polygon points="271.53 238.01 262.9 233.02 271.53 228.04 271.53 238.01" style="fill:#0333ff;"/><polygon points="429.95 238.01 438.58 233.02 429.95 228.04 429.95 238.01" style="fill:#0333ff;"/><text transform="translate(680.02 83.74)" style="fill:#1d1d1b; font-family:ArialMT, Arial; font-size:16px;"><tspan x="0" y="0">Core functionality</tspan></text><text transform="translate(472.96 469.04)" style="fill:#1d1d1b; font-family:Arial-BoldMT, Arial; font-size:18px; font-weight:700;"><tspan x="0" y="0">Platform owner</tspan></text><text transform="translate(124.36 469.04)" style="fill:#1d1d1b; font-family:Arial-BoldMT, Arial; font-size:18px; font-weight:700;"><tspan x="0" y="0">3rd party developers</tspan></text><path d="m726.42,190.32v-11.45h1.52v11.45h-1.52Z" style="fill:#1d1d1b;"/><path d="m730.43,190.32v-8.3h1.27v1.18c.61-.91,1.49-1.37,2.64-1.37.5,0,.96.09,1.38.27s.73.42.94.71c.21.29.35.64.44,1.04.05.26.08.72.08,1.37v5.1h-1.41v-5.05c0-.57-.05-1-.16-1.29-.11-.28-.3-.51-.58-.68-.28-.17-.61-.25-.98-.25-.6,0-1.12.19-1.55.57-.43.38-.65,1.1-.65,2.16v4.53h-1.41Z" style="fill:#1d1d1b;"/><path d="m742.4,189.06l.2,1.24c-.4.08-.75.12-1.06.12-.51,0-.91-.08-1.19-.24s-.48-.37-.59-.64c-.11-.26-.17-.82-.17-1.66v-4.77h-1.03v-1.09h1.03v-2.05l1.4-.84v2.9h1.41v1.09h-1.41v4.85c0,.4.02.66.07.77.05.12.13.21.24.27.11.07.27.1.48.1.16,0,.36-.02.62-.05Z" style="fill:#1d1d1b;"/><path d="m749.45,187.65l1.45.18c-.23.85-.65,1.51-1.27,1.98s-1.41.7-2.38.7c-1.21,0-2.18-.37-2.89-1.12-.71-.75-1.07-1.79-1.07-3.14s.36-2.48,1.08-3.25c.72-.77,1.65-1.16,2.8-1.16s2.02.38,2.72,1.13c.7.76,1.05,1.82,1.05,3.19,0,.08,0,.21,0,.38h-6.19c.05.91.31,1.61.77,2.09s1.04.73,1.73.73c.52,0,.96-.13,1.32-.41.36-.27.65-.7.87-1.3Zm-4.62-2.27h4.63c-.06-.7-.24-1.22-.53-1.57-.45-.54-1.03-.81-1.74-.81-.65,0-1.19.22-1.63.65-.44.43-.68,1.01-.73,1.73Z" style="fill:#1d1d1b;"/><path d="m752.66,190.32v-8.3h1.27v1.26c.32-.59.62-.98.89-1.16s.57-.28.9-.28c.47,0,.96.15,1.45.45l-.48,1.3c-.34-.2-.69-.3-1.03-.3-.31,0-.58.09-.83.28-.25.19-.42.44-.52.77-.16.5-.23,1.05-.23,1.64v4.34h-1.41Z" style="fill:#1d1d1b;"/><path d="m758.34,190.32v-7.2h-1.24v-1.09h1.24v-.88c0-.56.05-.97.15-1.24.14-.36.37-.66.71-.89s.82-.34,1.43-.34c.4,0,.83.05,1.31.14l-.21,1.23c-.29-.05-.57-.08-.83-.08-.43,0-.73.09-.91.27-.18.18-.27.52-.27,1.02v.77h1.62v1.09h-1.62v7.2h-1.4Z" style="fill:#1d1d1b;"/><path d="m767.86,189.3c-.52.44-1.02.76-1.5.94-.48.18-1,.27-1.55.27-.91,0-1.61-.22-2.1-.67s-.73-1.01-.73-1.71c0-.41.09-.78.28-1.11s.43-.61.73-.81.64-.36,1.01-.46c.28-.07.69-.14,1.25-.21,1.14-.13,1.97-.3,2.51-.48,0-.19,0-.31,0-.37,0-.57-.13-.98-.4-1.21-.36-.32-.89-.48-1.6-.48-.66,0-1.15.12-1.46.35-.32.23-.55.64-.7,1.23l-1.38-.19c.12-.59.33-1.06.62-1.43.29-.36.7-.64,1.24-.84s1.17-.29,1.88-.29,1.28.08,1.73.25c.44.17.77.38.98.63.21.25.35.57.44.96.05.24.07.67.07,1.3v1.88c0,1.31.03,2.13.09,2.48.06.35.18.68.36,1h-1.47c-.15-.29-.24-.63-.28-1.02Zm-.12-3.14c-.51.21-1.28.39-2.3.53-.58.08-.99.18-1.23.28-.24.1-.42.26-.55.46-.13.2-.2.42-.2.67,0,.38.14.69.43.94s.7.38,1.25.38,1.02-.12,1.45-.36c.42-.24.73-.56.93-.97.15-.32.23-.79.23-1.41v-.52Z" style="fill:#1d1d1b;"/><path d="m776.76,187.28l1.38.18c-.15.95-.54,1.7-1.16,2.24s-1.39.81-2.29.81c-1.14,0-2.05-.37-2.74-1.11s-1.04-1.81-1.04-3.19c0-.9.15-1.68.45-2.35s.75-1.18,1.36-1.51,1.27-.5,1.98-.5c.9,0,1.64.23,2.21.68.57.46.94,1.1,1.1,1.94l-1.37.21c-.13-.56-.36-.98-.69-1.26s-.73-.42-1.2-.42c-.71,0-1.28.25-1.73.76s-.66,1.31-.66,2.41.21,1.92.64,2.43c.43.51.98.76,1.67.76.55,0,1.01-.17,1.38-.51.37-.34.6-.86.7-1.56Z" style="fill:#1d1d1b;"/><path d="m785.02,187.65l1.45.18c-.23.85-.65,1.51-1.27,1.98s-1.41.7-2.38.7c-1.21,0-2.18-.37-2.89-1.12-.71-.75-1.07-1.79-1.07-3.14s.36-2.48,1.08-3.25c.72-.77,1.65-1.16,2.8-1.16s2.02.38,2.72,1.13c.7.76,1.05,1.82,1.05,3.19,0,.08,0,.21,0,.38h-6.19c.05.91.31,1.61.77,2.09s1.04.73,1.73.73c.52,0,.96-.13,1.32-.41.36-.27.65-.7.87-1.3Zm-4.62-2.27h4.63c-.06-.7-.24-1.22-.53-1.57-.45-.54-1.03-.81-1.74-.81-.65,0-1.19.22-1.63.65-.44.43-.68,1.01-.73,1.73Z" style="fill:#1d1d1b;"/><path d="m795.38,193.69c-.78-.98-1.43-2.12-1.97-3.44s-.8-2.67-.8-4.08c0-1.24.2-2.43.6-3.56.47-1.32,1.19-2.63,2.17-3.94h1.01c-.63,1.08-1.05,1.86-1.25,2.32-.32.72-.57,1.47-.75,2.25-.22.97-.34,1.95-.34,2.94,0,2.51.78,5.01,2.34,7.51h-1.01Z" style="fill:#1d1d1b;"/><path d="m796.94,190.32l4.4-11.45h1.63l4.69,11.45h-1.73l-1.34-3.47h-4.79l-1.26,3.47h-1.61Zm3.3-4.7h3.88l-1.2-3.17c-.36-.96-.64-1.75-.81-2.38-.15.73-.35,1.46-.62,2.19l-1.26,3.36Z" style="fill:#1d1d1b;"/><path d="m808.87,190.32v-11.45h4.32c.76,0,1.34.04,1.74.11.56.09,1.03.27,1.41.54.38.26.69.63.92,1.11.23.47.35,1,.35,1.56,0,.97-.31,1.8-.93,2.47-.62.67-1.74,1.01-3.36,1.01h-2.94v4.66h-1.52Zm1.52-6.01h2.96c.98,0,1.67-.18,2.09-.55.41-.36.62-.88.62-1.54,0-.48-.12-.89-.36-1.23-.24-.34-.56-.57-.96-.68-.25-.07-.73-.1-1.41-.1h-2.93v4.09Z" style="fill:#1d1d1b;"/><path d="m819.8,190.32v-11.45h1.52v11.45h-1.52Z" style="fill:#1d1d1b;"/><path d="m824.73,193.69h-1.01c1.56-2.5,2.34-5,2.34-7.51,0-.98-.11-1.95-.34-2.91-.18-.78-.42-1.53-.74-2.25-.2-.47-.62-1.25-1.26-2.34h1.01c.98,1.31,1.7,2.62,2.17,3.94.4,1.14.6,2.32.6,3.56,0,1.41-.27,2.77-.81,4.08s-1.19,2.46-1.96,3.44Z" style="fill:#1d1d1b;"/><path d="m728.67,215.29c-.78-.98-1.43-2.12-1.97-3.44s-.8-2.67-.8-4.08c0-1.24.2-2.43.6-3.56.47-1.32,1.19-2.63,2.17-3.94h1.01c-.63,1.08-1.05,1.86-1.25,2.32-.32.72-.57,1.47-.75,2.25-.22.97-.34,1.95-.34,2.94,0,2.5.78,5.01,2.34,7.51h-1.01Z" style="fill:#1d1d1b;"/><path d="m733.62,211.92l-3.16-8.3h1.48l1.78,4.97c.19.54.37,1.09.53,1.67.12-.44.3-.96.52-1.58l1.84-5.06h1.45l-3.14,8.3h-1.31Z" style="fill:#1d1d1b;"/><path d="m739.32,202.08v-1.62h1.41v1.62h-1.41Zm0,9.84v-8.3h1.41v8.3h-1.41Z" style="fill:#1d1d1b;"/><path d="m742.31,209.44l1.39-.22c.08.56.3.98.65,1.28s.86.45,1.5.45,1.12-.13,1.44-.39.47-.57.47-.93c0-.32-.14-.57-.41-.75-.19-.12-.67-.28-1.44-.48-1.03-.26-1.75-.49-2.14-.68s-.7-.45-.91-.79-.31-.71-.31-1.11c0-.37.08-.71.25-1.03s.4-.58.69-.79c.22-.16.52-.3.89-.41s.78-.17,1.21-.17c.65,0,1.22.09,1.71.28s.86.44,1.09.76.4.75.48,1.29l-1.38.19c-.06-.43-.24-.76-.54-1s-.72-.36-1.27-.36c-.65,0-1.11.11-1.38.32s-.41.46-.41.75c0,.18.06.35.17.49.11.15.29.28.54.38.14.05.55.17,1.24.36,1,.27,1.69.48,2.08.65s.7.42.93.74.34.72.34,1.2-.14.91-.41,1.32-.67.73-1.18.96-1.1.34-1.75.34c-1.08,0-1.9-.22-2.46-.67s-.93-1.11-1.08-1.99Z" style="fill:#1d1d1b;"/><path d="m750.88,202.08v-1.62h1.41v1.62h-1.41Zm0,9.84v-8.3h1.41v8.3h-1.41Z" style="fill:#1d1d1b;"/><path d="m755.72,211.92h-1.3v-11.45h1.41v4.09c.59-.75,1.35-1.12,2.27-1.12.51,0,.99.1,1.45.31s.83.5,1.12.87.52.82.69,1.35.25,1.09.25,1.69c0,1.42-.35,2.52-1.05,3.3s-1.55,1.16-2.53,1.16-1.75-.41-2.3-1.23v1.04Zm-.02-4.21c0,1,.14,1.71.41,2.16.44.72,1.04,1.09,1.8,1.09.61,0,1.15-.27,1.59-.8s.67-1.33.67-2.39-.21-1.88-.64-2.4-.95-.77-1.56-.77-1.15.27-1.59.8-.67,1.31-.67,2.32Z" style="fill:#1d1d1b;"/><path d="m763.29,211.92v-11.45h1.41v11.45h-1.41Z" style="fill:#1d1d1b;"/><path d="m772.56,209.25l1.45.18c-.23.85-.65,1.51-1.27,1.98s-1.41.7-2.38.7c-1.21,0-2.18-.37-2.89-1.12s-1.07-1.8-1.07-3.14.36-2.48,1.08-3.25,1.65-1.16,2.8-1.16,2.02.38,2.72,1.13,1.05,1.82,1.05,3.19c0,.08,0,.21,0,.38h-6.19c.05.91.31,1.61.77,2.09s1.04.73,1.73.73c.52,0,.96-.14,1.32-.41s.65-.7.87-1.3Zm-4.62-2.27h4.63c-.06-.7-.24-1.22-.53-1.57-.45-.54-1.03-.81-1.74-.81-.65,0-1.19.22-1.63.65s-.68,1.01-.73,1.73Z" style="fill:#1d1d1b;"/><path d="m780.23,202.08v-1.62h1.41v1.62h-1.41Zm0,9.84v-8.3h1.41v8.3h-1.41Z" style="fill:#1d1d1b;"/><path d="m783.77,211.92v-8.3h1.27v1.18c.61-.91,1.49-1.37,2.64-1.37.5,0,.96.09,1.38.27s.73.42.94.71.35.64.44,1.04c.05.26.08.72.08,1.37v5.1h-1.41v-5.05c0-.57-.05-1-.16-1.29s-.3-.51-.58-.68-.61-.25-.98-.25c-.6,0-1.12.19-1.55.57s-.65,1.1-.65,2.16v4.53h-1.41Z" style="fill:#1d1d1b;"/><path d="m793.01,211.92v-7.2h-1.24v-1.09h1.24v-.88c0-.56.05-.97.15-1.24.14-.36.37-.66.71-.89s.82-.34,1.43-.34c.4,0,.83.05,1.31.14l-.21,1.23c-.29-.05-.57-.08-.83-.08-.43,0-.73.09-.91.27s-.27.52-.27,1.02v.77h1.62v1.09h-1.62v7.2h-1.4Z" style="fill:#1d1d1b;"/><path d="m796.59,207.77c0-1.54.43-2.67,1.28-3.41.71-.61,1.58-.92,2.61-.92,1.14,0,2.07.37,2.8,1.12s1.09,1.78,1.09,3.1c0,1.07-.16,1.91-.48,2.52s-.79,1.09-1.4,1.43c-.61.34-1.28.51-2,.51-1.16,0-2.1-.37-2.82-1.12s-1.07-1.82-1.07-3.22Zm1.45,0c0,1.06.23,1.86.7,2.39s1.05.79,1.75.79,1.28-.27,1.74-.8.7-1.34.7-2.43c0-1.03-.23-1.8-.7-2.33s-1.05-.79-1.74-.79-1.29.26-1.75.79-.7,1.32-.7,2.38Z" style="fill:#1d1d1b;"/><path d="m806,211.92v-8.3h1.27v1.26c.32-.59.62-.98.89-1.16s.57-.28.9-.28c.47,0,.96.15,1.45.45l-.48,1.3c-.34-.2-.69-.3-1.03-.3-.31,0-.58.09-.83.28s-.42.44-.52.77c-.16.5-.23,1.05-.23,1.64v4.34h-1.41Z" style="fill:#1d1d1b;"/><path d="m811.34,211.92v-8.3h1.26v1.16c.26-.41.61-.73,1.04-.98s.92-.37,1.48-.37c.61,0,1.12.13,1.51.38s.67.61.83,1.07c.66-.97,1.51-1.45,2.56-1.45.82,0,1.46.23,1.9.68s.66,1.16.66,2.11v5.7h-1.4v-5.23c0-.56-.05-.97-.14-1.21s-.26-.45-.5-.6-.52-.23-.84-.23c-.58,0-1.07.19-1.45.58s-.58,1.01-.58,1.86v4.82h-1.41v-5.39c0-.62-.11-1.09-.34-1.41s-.6-.47-1.12-.47c-.4,0-.76.1-1.1.31s-.58.51-.73.91-.23.98-.23,1.73v4.3h-1.41Z" style="fill:#1d1d1b;"/><path d="m830.09,210.9c-.52.44-1.02.75-1.5.94-.48.18-1,.27-1.55.27-.91,0-1.61-.22-2.1-.67s-.73-1.01-.73-1.71c0-.41.09-.78.28-1.11s.43-.61.73-.81.64-.36,1.01-.46c.28-.07.69-.14,1.25-.21,1.14-.14,1.97-.3,2.51-.48,0-.19,0-.32,0-.37,0-.57-.13-.98-.4-1.21-.36-.32-.89-.48-1.6-.48-.66,0-1.15.12-1.46.35s-.55.64-.7,1.23l-1.38-.19c.12-.59.33-1.06.62-1.43s.7-.64,1.24-.84,1.17-.29,1.88-.29,1.28.08,1.73.25.77.38.98.63.35.57.44.96c.05.24.07.67.07,1.3v1.88c0,1.31.03,2.13.09,2.48s.18.68.36,1h-1.47c-.15-.29-.24-.63-.28-1.02Zm-.12-3.14c-.51.21-1.28.39-2.3.53-.58.08-.99.18-1.23.28s-.42.26-.55.46-.2.42-.2.67c0,.38.14.69.43.94s.7.38,1.25.38,1.02-.12,1.45-.36.73-.56.93-.97c.15-.32.23-.79.23-1.41v-.52Z" style="fill:#1d1d1b;"/><path d="m836.64,210.66l.2,1.24c-.4.08-.75.12-1.06.12-.51,0-.91-.08-1.19-.24s-.48-.37-.59-.64-.17-.82-.17-1.66v-4.77h-1.03v-1.09h1.03v-2.05l1.4-.84v2.9h1.41v1.09h-1.41v4.85c0,.4.02.66.07.77s.13.21.24.27.27.1.48.1c.16,0,.36-.02.62-.05Z" style="fill:#1d1d1b;"/><path d="m838.02,202.08v-1.62h1.41v1.62h-1.41Zm0,9.84v-8.3h1.41v8.3h-1.41Z" style="fill:#1d1d1b;"/><path d="m841.05,207.77c0-1.54.43-2.67,1.28-3.41.71-.61,1.58-.92,2.61-.92,1.14,0,2.07.37,2.8,1.12s1.09,1.78,1.09,3.1c0,1.07-.16,1.91-.48,2.52s-.79,1.09-1.4,1.43c-.61.34-1.28.51-2,.51-1.16,0-2.1-.37-2.82-1.12s-1.07-1.82-1.07-3.22Zm1.45,0c0,1.06.23,1.86.7,2.39s1.05.79,1.75.79,1.28-.27,1.74-.8.7-1.34.7-2.43c0-1.03-.23-1.8-.7-2.33s-1.05-.79-1.74-.79-1.29.26-1.75.79-.7,1.32-.7,2.38Z" style="fill:#1d1d1b;"/><path d="m850.47,211.92v-8.3h1.27v1.18c.61-.91,1.49-1.37,2.64-1.37.5,0,.96.09,1.38.27s.73.42.94.71.35.64.44,1.04c.05.26.08.72.08,1.37v5.1h-1.41v-5.05c0-.57-.05-1-.16-1.29s-.3-.51-.58-.68-.61-.25-.98-.25c-.6,0-1.12.19-1.55.57s-.65,1.1-.65,2.16v4.53h-1.41Z" style="fill:#1d1d1b;"/><path d="m860.29,215.29h-1.01c1.56-2.5,2.34-5,2.34-7.51,0-.98-.11-1.95-.34-2.91-.18-.78-.42-1.53-.74-2.25-.2-.47-.62-1.25-1.26-2.34h1.01c.98,1.31,1.7,2.62,2.17,3.94.4,1.14.6,2.32.6,3.56,0,1.41-.27,2.77-.81,4.08s-1.19,2.46-1.96,3.44Z" style="fill:#1d1d1b;"/><line x1="544.86" y1="190.32" x2="663.95" y2="83.74" style="fill:none; stroke:#1d1d1b; stroke-miterlimit:10;"/><line x1="638.58" y1="233.02" x2="708.86" y2="190.32" style="fill:none; stroke:#1d1d1b; stroke-miterlimit:10;"/><line x1="350.74" y1="128.77" x2="391.6" y2="76.25" style="fill:none; stroke:#0333ff; stroke-miterlimit:10;"/><text transform="translate(350.74 62.39)" style="fill:#0333ff; font-family:BiroScriptPlus-Sloppy, &apos;Biro Script Plus&apos;; font-size:34.68px;"><tspan x="0" y="0">Coupling</tspan></text></svg>