<?xml version="1.0" encoding="UTF-8"?><svg id="a" xmlns="http://www.w3.org/2000/svg" viewBox="0 0 988 525"><defs><style>.b{stroke:#000;}.b,.c{fill:none;stroke-linejoin:round;}.d{fill:#0333ff;}.e,.f{fill:#1d1d1b;}.g{font-size:16px;letter-spacing:0em;}.g,.h{fill:#0f1d30;font-family:ArialMT, Arial;}.h{font-size:14px;letter-spacing:0em;}.f{font-family:Arial-BoldMT, Arial;font-size:20px;}.c{stroke:#222;stroke-dasharray:0 0 .75 2.25;stroke-width:.75px;}</style></defs><text class="f" transform="translate(45.93 51.78)"><tspan x="0" y="0">Entwicklung der Internetbandbreite in China </tspan></text><path class="c" d="M150.49,92.93h509.67m-509.67,37.11h509.67m-509.67,36.41h509.67m-509.67,36.41h509.67m-509.67,37.11h509.67m-509.67,36.41h509.67m-509.67,37.11h509.67m-509.67,36.41h509.67m-509.67,36.41h509.67m-509.67,37.11h509.67"/><rect class="d" x="632.16" y="136.34" width="20.3" height="323.45"/><rect class="d" x="595.75" y="189.55" width="20.3" height="270.24"/><rect class="d" x="559.35" y="191.65" width="20.3" height="268.14"/><rect class="d" x="522.94" y="216.15" width="20.3" height="243.64"/><rect class="d" x="486.54" y="262.36" width="20.3" height="197.43"/><rect class="d" x="450.13" y="308.57" width="20.3" height="151.22"/><rect class="d" x="413.73" y="335.17" width="20.3" height="124.62"/><rect class="d" x="377.32" y="390.48" width="20.3" height="69.31"/><rect class="d" x="340.92" y="408.68" width="20.3" height="51.11"/><rect class="d" x="304.51" y="419.88" width="20.3" height="39.91"/><rect class="d" x="268.11" y="428.28" width="19.6" height="31.5"/><rect class="d" x="231.7" y="436.68" width="19.6" height="23.1"/><rect class="d" x="194.6" y="446.49" width="20.3" height="13.3"/><rect class="d" x="158.19" y="450.69" width="20.3" height="9.1"/><line class="b" x1="150.49" y1="459.79" x2="660.16" y2="459.79"/><text class="h" transform="translate(120.13 464.69)"><tspan x="0" y="0">0</tspan></text><text class="h" transform="translate(92.77 428.28)"><tspan x="0" y="0">1.000</tspan></text><text class="h" transform="translate(84.96 97.1)"><tspan x="0" y="0">10.000</tspan></text><text class="h" transform="translate(152.72 482.89)"><tspan x="0" y="0">2006</tspan></text><text class="h" transform="translate(189.18 482.89)"><tspan x="0" y="0">2007</tspan></text><text class="h" transform="translate(225.63 482.89)"><tspan x="0" y="0">2008</tspan></text><text class="h" transform="translate(262.09 482.89)"><tspan x="0" y="0">2009</tspan></text><text class="h" transform="translate(298.55 482.89)"><tspan x="0" y="0">2010</tspan></text><text class="h" transform="translate(335.01 482.89)"><tspan x="0" y="0">2011</tspan></text><text class="h" transform="translate(371.47 482.89)"><tspan x="0" y="0">2012</tspan></text><text class="h" transform="translate(407.93 482.89)"><tspan x="0" y="0">2013</tspan></text><text class="h" transform="translate(444.39 482.89)"><tspan x="0" y="0">2014</tspan></text><text class="h" transform="translate(480.85 482.89)"><tspan x="0" y="0">2015</tspan></text><text class="h" transform="translate(517.31 482.89)"><tspan x="0" y="0">2016</tspan></text><text class="h" transform="translate(553.77 482.89)"><tspan x="0" y="0">2017</tspan></text><text class="h" transform="translate(590.23 482.89)"><tspan x="0" y="0">2018</tspan></text><text class="h" transform="translate(626.69 482.89)"><tspan x="0" y="0">2019</tspan></text><text class="g" transform="translate(67.79 331.12) rotate(-90)"><tspan x="0" y="0">Bandbreite in Gbps</tspan></text><g><path class="e" d="M731.56,122.46v-14.32h1.89v7.1l7.11-7.1h2.57l-6.01,5.8,6.27,8.52h-2.5l-5.1-7.25-2.34,2.29v4.96h-1.89Z"/><path class="e" d="M751.89,119.12l1.82,.22c-.29,1.06-.82,1.88-1.59,2.47s-1.76,.88-2.97,.88c-1.52,0-2.72-.47-3.61-1.4s-1.33-2.24-1.33-3.93,.45-3.1,1.35-4.06,2.06-1.45,3.5-1.45,2.52,.47,3.4,1.42,1.32,2.27,1.32,3.98c0,.1,0,.26,0,.47h-7.73c.07,1.14,.39,2.01,.97,2.62s1.3,.91,2.17,.91c.64,0,1.19-.17,1.65-.51s.82-.88,1.08-1.62Zm-5.77-2.84h5.79c-.08-.87-.3-1.53-.66-1.96-.56-.68-1.29-1.02-2.18-1.02-.81,0-1.49,.27-2.04,.81s-.85,1.26-.91,2.17Z"/><path class="e" d="M755.96,110.17v-2.02h1.76v2.02h-1.76Zm0,12.29v-10.37h1.76v10.37h-1.76Z"/><path class="e" d="M760.44,122.46v-10.37h1.58v1.47c.76-1.14,1.86-1.71,3.3-1.71,.62,0,1.2,.11,1.72,.34s.92,.52,1.18,.88,.44,.8,.55,1.3c.07,.33,.1,.9,.1,1.71v6.38h-1.76v-6.31c0-.72-.07-1.25-.21-1.61s-.38-.64-.73-.85-.76-.32-1.23-.32c-.75,0-1.39,.24-1.94,.71s-.82,1.38-.82,2.71v5.66h-1.76Z"/><path class="e" d="M778.7,119.12l1.82,.22c-.29,1.06-.82,1.88-1.59,2.47s-1.76,.88-2.97,.88c-1.52,0-2.72-.47-3.61-1.4s-1.33-2.24-1.33-3.93,.45-3.1,1.35-4.06,2.06-1.45,3.5-1.45,2.52,.47,3.4,1.42,1.32,2.27,1.32,3.98c0,.1,0,.26,0,.47h-7.73c.07,1.14,.39,2.01,.97,2.62s1.3,.91,2.17,.91c.64,0,1.19-.17,1.65-.51s.82-.88,1.08-1.62Zm-5.77-2.84h5.79c-.08-.87-.3-1.53-.66-1.96-.56-.68-1.29-1.02-2.18-1.02-.81,0-1.49,.27-2.04,.81s-.85,1.26-.91,2.17Z"/><path class="e" d="M792.68,122.46l-5.55-14.32h2.05l3.72,10.4c.3,.83,.55,1.61,.75,2.34,.22-.78,.48-1.56,.77-2.34l3.87-10.4h1.93l-5.61,14.32h-1.94Z"/><path class="e" d="M808.84,119.12l1.82,.22c-.29,1.06-.82,1.88-1.59,2.47s-1.76,.88-2.97,.88c-1.52,0-2.72-.47-3.61-1.4s-1.33-2.24-1.33-3.93,.45-3.1,1.35-4.06,2.06-1.45,3.5-1.45,2.52,.47,3.4,1.42,1.32,2.27,1.32,3.98c0,.1,0,.26,0,.47h-7.73c.07,1.14,.39,2.01,.97,2.62s1.3,.91,2.17,.91c.64,0,1.19-.17,1.65-.51s.82-.88,1.08-1.62Zm-5.77-2.84h5.79c-.08-.87-.3-1.53-.66-1.96-.56-.68-1.29-1.02-2.18-1.02-.81,0-1.49,.27-2.04,.81s-.85,1.26-.91,2.17Z"/><path class="e" d="M812.88,122.46v-10.37h1.58v1.57c.4-.74,.78-1.22,1.12-1.46s.72-.35,1.13-.35c.59,0,1.19,.19,1.81,.57l-.61,1.63c-.43-.25-.86-.38-1.29-.38-.38,0-.73,.12-1.04,.35s-.52,.55-.65,.96c-.2,.62-.29,1.31-.29,2.05v5.43h-1.76Z"/><path class="e" d="M826.33,122.46v-1.31c-.66,1.03-1.62,1.54-2.9,1.54-.83,0-1.59-.23-2.28-.68s-1.23-1.09-1.61-1.91-.57-1.76-.57-2.82,.17-1.97,.52-2.82,.86-1.49,1.55-1.94,1.46-.67,2.31-.67c.62,0,1.18,.13,1.67,.4s.89,.61,1.19,1.03v-5.14h1.75v14.32h-1.63Zm-5.56-5.18c0,1.33,.28,2.32,.84,2.98s1.22,.99,1.98,.99,1.42-.31,1.96-.94,.81-1.59,.81-2.88c0-1.42-.27-2.46-.82-3.12s-1.22-1-2.02-1-1.43,.32-1.96,.96-.79,1.64-.79,3.02Z"/><path class="e" d="M830.11,117.27c0-1.92,.53-3.34,1.6-4.27,.89-.77,1.98-1.15,3.26-1.15,1.43,0,2.59,.47,3.5,1.4s1.36,2.23,1.36,3.87c0,1.33-.2,2.38-.6,3.15s-.98,1.36-1.75,1.78-1.6,.63-2.5,.63c-1.45,0-2.62-.47-3.52-1.4s-1.34-2.27-1.34-4.02Zm1.81,0c0,1.33,.29,2.32,.87,2.98s1.31,.99,2.19,.99,1.6-.33,2.18-1,.87-1.68,.87-3.04c0-1.28-.29-2.25-.87-2.92s-1.31-.99-2.17-.99-1.61,.33-2.19,.99-.87,1.65-.87,2.98Z"/><path class="e" d="M841.93,126.44v-14.35h1.6v1.35c.38-.53,.8-.92,1.28-1.19s1.05-.4,1.73-.4c.89,0,1.67,.23,2.34,.68s1.19,1.1,1.53,1.93,.52,1.74,.52,2.73c0,1.06-.19,2.02-.57,2.87s-.93,1.5-1.66,1.95-1.49,.68-2.29,.68c-.59,0-1.11-.12-1.58-.37s-.85-.56-1.15-.94v5.05h-1.76Zm1.59-9.1c0,1.33,.27,2.32,.81,2.96s1.19,.96,1.96,.96,1.45-.33,2.01-.99,.83-1.68,.83-3.07-.27-2.31-.82-2.97-1.19-.99-1.95-.99-1.41,.35-1.99,1.05-.86,1.72-.86,3.05Z"/><path class="e" d="M853.09,126.44v-14.35h1.6v1.35c.38-.53,.8-.92,1.28-1.19s1.05-.4,1.73-.4c.89,0,1.67,.23,2.34,.68s1.19,1.1,1.53,1.93,.52,1.74,.52,2.73c0,1.06-.19,2.02-.57,2.87s-.93,1.5-1.66,1.95-1.49,.68-2.29,.68c-.59,0-1.11-.12-1.58-.37s-.85-.56-1.15-.94v5.05h-1.76Zm1.59-9.1c0,1.33,.27,2.32,.81,2.96s1.19,.96,1.96,.96,1.45-.33,2.01-.99,.83-1.68,.83-3.07-.27-2.31-.82-2.97-1.19-.99-1.95-.99-1.41,.35-1.99,1.05-.86,1.72-.86,3.05Z"/><path class="e" d="M864.21,122.46v-14.32h1.76v14.32h-1.76Z"/><path class="e" d="M875.53,122.46v-1.52c-.81,1.17-1.9,1.76-3.29,1.76-.61,0-1.18-.12-1.71-.35s-.92-.53-1.18-.88-.44-.79-.54-1.3c-.07-.35-.11-.89-.11-1.64v-6.43h1.76v5.75c0,.92,.04,1.54,.11,1.86,.11,.46,.34,.83,.7,1.09s.8,.4,1.33,.4,1.02-.14,1.48-.41,.79-.64,.98-1.1,.29-1.14,.29-2.03v-5.56h1.76v10.37h-1.57Z"/><path class="e" d="M879.9,122.46v-10.37h1.58v1.47c.76-1.14,1.86-1.71,3.3-1.71,.62,0,1.2,.11,1.72,.34s.92,.52,1.18,.88,.44,.8,.55,1.3c.07,.33,.1,.9,.1,1.71v6.38h-1.76v-6.31c0-.72-.07-1.25-.21-1.61s-.38-.64-.73-.85-.76-.32-1.23-.32c-.75,0-1.39,.24-1.94,.71s-.82,1.38-.82,2.71v5.66h-1.76Z"/><path class="e" d="M890.74,123.32l1.71,.25c.07,.53,.27,.91,.6,1.15,.44,.33,1.03,.49,1.79,.49,.81,0,1.44-.16,1.88-.49s.74-.78,.9-1.37c.09-.36,.13-1.11,.13-2.26-.77,.9-1.73,1.36-2.87,1.36-1.43,0-2.53-.51-3.31-1.54s-1.17-2.26-1.17-3.7c0-.99,.18-1.9,.54-2.74s.88-1.48,1.56-1.94,1.48-.68,2.4-.68c1.22,0,2.23,.49,3.03,1.48v-1.25h1.62v8.96c0,1.61-.16,2.76-.49,3.43s-.85,1.21-1.56,1.6-1.59,.59-2.63,.59c-1.24,0-2.24-.28-3-.83s-1.13-1.4-1.1-2.51Zm1.46-6.23c0,1.36,.27,2.35,.81,2.98s1.22,.94,2.03,.94,1.48-.31,2.03-.93,.82-1.6,.82-2.92-.28-2.23-.84-2.87-1.24-.97-2.04-.97-1.45,.32-1.99,.95-.82,1.58-.82,2.83Z"/><path class="e" d="M738.18,145.18c-.65,.55-1.28,.94-1.88,1.17s-1.25,.34-1.94,.34c-1.14,0-2.01-.28-2.63-.83s-.92-1.27-.92-2.13c0-.51,.12-.97,.35-1.39s.53-.76,.91-1.01,.8-.45,1.26-.58c.34-.09,.87-.18,1.56-.26,1.42-.17,2.46-.37,3.13-.61,0-.24,0-.39,0-.46,0-.72-.17-1.22-.5-1.51-.45-.4-1.12-.6-2-.6-.83,0-1.44,.15-1.83,.43s-.69,.8-.87,1.54l-1.72-.23c.16-.74,.41-1.33,.77-1.78s.88-.8,1.55-1.04,1.46-.37,2.35-.37,1.6,.1,2.16,.31,.96,.47,1.22,.79,.44,.71,.55,1.2c.06,.3,.09,.84,.09,1.62v2.34c0,1.63,.04,2.67,.11,3.1s.22,.85,.44,1.25h-1.84c-.18-.36-.3-.79-.35-1.28Zm-.15-3.93c-.64,.26-1.59,.48-2.87,.66-.72,.1-1.23,.22-1.53,.35s-.53,.32-.69,.57-.24,.53-.24,.83c0,.47,.18,.86,.53,1.17s.87,.47,1.56,.47,1.28-.15,1.81-.44,.92-.7,1.16-1.22c.19-.4,.28-.98,.28-1.76v-.64Z"/><path class="e" d="M742.53,146.46v-14.32h1.76v14.32h-1.76Z"/><path class="e" d="M747.02,146.46v-14.32h1.76v14.32h-1.76Z"/><path class="e" d="M758.64,143.12l1.82,.22c-.29,1.06-.82,1.88-1.59,2.47s-1.76,.88-2.97,.88c-1.52,0-2.72-.47-3.61-1.4s-1.33-2.24-1.33-3.93,.45-3.1,1.35-4.06,2.06-1.45,3.5-1.45,2.52,.47,3.4,1.42,1.32,2.27,1.32,3.98c0,.1,0,.26,0,.47h-7.73c.07,1.14,.39,2.01,.97,2.62s1.3,.91,2.17,.91c.64,0,1.19-.17,1.65-.51s.82-.88,1.08-1.62Zm-5.77-2.84h5.79c-.08-.87-.3-1.53-.66-1.96-.56-.68-1.29-1.02-2.18-1.02-.81,0-1.49,.27-2.04,.81s-.85,1.26-.91,2.17Z"/><path class="e" d="M776.93,135.65l-1.75,.14c-.16-.69-.38-1.19-.66-1.5-.48-.5-1.06-.75-1.76-.75-.56,0-1.05,.16-1.47,.47-.55,.4-.99,.99-1.31,1.77s-.49,1.88-.5,3.31c.42-.64,.94-1.12,1.55-1.44s1.25-.47,1.92-.47c1.17,0,2.17,.43,2.99,1.29s1.24,1.98,1.24,3.34c0,.9-.19,1.73-.58,2.5s-.92,1.36-1.6,1.77-1.45,.62-2.3,.62c-1.46,0-2.66-.54-3.58-1.62s-1.39-2.85-1.39-5.33c0-2.77,.51-4.78,1.53-6.04,.89-1.09,2.09-1.64,3.6-1.64,1.13,0,2.05,.32,2.77,.95s1.15,1.5,1.29,2.62Zm-7.18,6.17c0,.61,.13,1.19,.39,1.74s.62,.98,1.08,1.26,.95,.43,1.46,.43c.74,0,1.38-.3,1.91-.9s.8-1.41,.8-2.44-.26-1.77-.79-2.34-1.19-.85-1.99-.85-1.47,.28-2.02,.85-.83,1.32-.83,2.24Z"/><path class="e" d="M785.23,146.46v-14.32h2.85l3.39,10.14c.31,.94,.54,1.65,.68,2.12,.16-.52,.42-1.29,.76-2.29l3.43-9.96h2.55v14.32h-1.83v-11.98l-4.16,11.98h-1.71l-4.14-12.19v12.19h-1.83Z"/><path class="e" d="M801.11,141.27c0-1.92,.53-3.34,1.6-4.27,.89-.77,1.98-1.15,3.26-1.15,1.43,0,2.59,.47,3.5,1.4s1.36,2.23,1.36,3.87c0,1.33-.2,2.38-.6,3.15s-.98,1.36-1.75,1.78-1.6,.63-2.5,.63c-1.45,0-2.62-.47-3.52-1.4s-1.34-2.27-1.34-4.02Zm1.81,0c0,1.33,.29,2.32,.87,2.98s1.31,.99,2.19,.99,1.6-.33,2.18-1,.87-1.68,.87-3.04c0-1.28-.29-2.25-.87-2.92s-1.31-.99-2.17-.99-1.61,.33-2.19,.99-.87,1.65-.87,2.98Z"/><path class="e" d="M812.92,146.46v-10.37h1.58v1.47c.76-1.14,1.86-1.71,3.3-1.71,.62,0,1.2,.11,1.72,.34s.92,.52,1.18,.88,.44,.8,.55,1.3c.07,.33,.1,.9,.1,1.71v6.38h-1.76v-6.31c0-.72-.07-1.25-.21-1.61s-.38-.64-.73-.85-.76-.32-1.23-.32c-.75,0-1.39,.24-1.94,.71s-.82,1.38-.82,2.71v5.66h-1.76Z"/><path class="e" d="M830.85,145.18c-.65,.55-1.28,.94-1.88,1.17s-1.25,.34-1.94,.34c-1.14,0-2.01-.28-2.63-.83s-.92-1.27-.92-2.13c0-.51,.12-.97,.35-1.39s.53-.76,.91-1.01,.8-.45,1.26-.58c.34-.09,.87-.18,1.56-.26,1.42-.17,2.46-.37,3.13-.61,0-.24,0-.39,0-.46,0-.72-.17-1.22-.5-1.51-.45-.4-1.12-.6-2-.6-.83,0-1.44,.15-1.83,.43s-.69,.8-.87,1.54l-1.72-.23c.16-.74,.41-1.33,.77-1.78s.88-.8,1.55-1.04,1.46-.37,2.35-.37,1.6,.1,2.16,.31,.96,.47,1.22,.79,.44,.71,.55,1.2c.06,.3,.09,.84,.09,1.62v2.34c0,1.63,.04,2.67,.11,3.1s.22,.85,.44,1.25h-1.84c-.18-.36-.3-.79-.35-1.28Zm-.15-3.93c-.64,.26-1.59,.48-2.87,.66-.72,.1-1.23,.22-1.53,.35s-.53,.32-.69,.57-.24,.53-.24,.83c0,.47,.18,.86,.53,1.17s.87,.47,1.56,.47,1.28-.15,1.81-.44,.92-.7,1.16-1.22c.19-.4,.28-.98,.28-1.76v-.64Z"/><path class="e" d="M839.09,144.89l.25,1.55c-.5,.1-.94,.16-1.33,.16-.64,0-1.13-.1-1.48-.3s-.6-.47-.74-.8-.21-1.02-.21-2.08v-5.97h-1.29v-1.37h1.29v-2.57l1.75-1.05v3.62h1.77v1.37h-1.77v6.06c0,.5,.03,.82,.09,.97s.16,.26,.3,.34,.34,.13,.6,.13c.2,0,.45-.02,.77-.07Z"/><path class="e" d="M847.95,143.12l1.82,.22c-.29,1.06-.82,1.88-1.59,2.47s-1.76,.88-2.97,.88c-1.52,0-2.72-.47-3.61-1.4s-1.33-2.24-1.33-3.93,.45-3.1,1.35-4.06,2.06-1.45,3.5-1.45,2.52,.47,3.4,1.42,1.32,2.27,1.32,3.98c0,.1,0,.26,0,.47h-7.73c.07,1.14,.39,2.01,.97,2.62s1.3,.91,2.17,.91c.64,0,1.19-.17,1.65-.51s.82-.88,1.08-1.62Zm-5.77-2.84h5.79c-.08-.87-.3-1.53-.66-1.96-.56-.68-1.29-1.02-2.18-1.02-.81,0-1.49,.27-2.04,.81s-.85,1.26-.91,2.17Z"/><path class="e" d="M852.51,146.46v-2h2v2h-2Z"/><path class="e" d="M731.63,194.46v-14.32h4.93c1.11,0,1.96,.07,2.55,.21,.82,.19,1.52,.53,2.1,1.03,.75,.64,1.32,1.45,1.69,2.45s.56,2.13,.56,3.4c0,1.09-.13,2.05-.38,2.89s-.58,1.53-.98,2.08-.83,.98-1.3,1.3-1.04,.56-1.71,.72-1.43,.24-2.3,.24h-5.17Zm1.89-1.69h3.06c.94,0,1.68-.09,2.22-.26s.96-.42,1.28-.74c.45-.45,.8-1.05,1.05-1.81s.38-1.68,.38-2.76c0-1.5-.25-2.65-.74-3.45s-1.09-1.34-1.79-1.62c-.51-.2-1.33-.29-2.45-.29h-3.01v10.94Z"/><path class="e" d="M752.99,191.12l1.82,.22c-.29,1.06-.82,1.88-1.59,2.47s-1.76,.88-2.97,.88c-1.52,0-2.72-.47-3.61-1.4s-1.33-2.24-1.33-3.93,.45-3.1,1.35-4.06,2.06-1.45,3.5-1.45,2.52,.47,3.4,1.42,1.32,2.27,1.32,3.98c0,.1,0,.26,0,.47h-7.73c.07,1.14,.39,2.01,.97,2.62s1.3,.91,2.17,.91c.64,0,1.19-.17,1.65-.51s.82-.88,1.08-1.62Zm-5.77-2.84h5.79c-.08-.87-.3-1.53-.66-1.96-.56-.68-1.29-1.02-2.18-1.02-.81,0-1.49,.27-2.04,.81s-.85,1.26-.91,2.17Z"/><path class="e" d="M757.06,194.46v-10.37h1.58v1.47c.76-1.14,1.86-1.71,3.3-1.71,.62,0,1.2,.11,1.72,.34s.92,.52,1.18,.88,.44,.8,.55,1.3c.07,.33,.1,.9,.1,1.71v6.38h-1.76v-6.31c0-.72-.07-1.25-.21-1.61s-.38-.64-.73-.85-.76-.32-1.23-.32c-.75,0-1.39,.24-1.94,.71s-.82,1.38-.82,2.71v5.66h-1.76Z"/><path class="e" d="M768.22,194.46v-10.37h1.58v1.47c.76-1.14,1.86-1.71,3.3-1.71,.62,0,1.2,.11,1.72,.34s.92,.52,1.18,.88,.44,.8,.55,1.3c.07,.33,.1,.9,.1,1.71v6.38h-1.76v-6.31c0-.72-.07-1.25-.21-1.61s-.38-.64-.73-.85-.76-.32-1.23-.32c-.75,0-1.39,.24-1.94,.71s-.82,1.38-.82,2.71v5.66h-1.76Z"/><path class="e" d="M778.73,189.27c0-1.92,.53-3.34,1.6-4.27,.89-.77,1.98-1.15,3.26-1.15,1.43,0,2.59,.47,3.5,1.4s1.36,2.23,1.36,3.87c0,1.33-.2,2.38-.6,3.15s-.98,1.36-1.75,1.78-1.6,.63-2.5,.63c-1.45,0-2.62-.47-3.52-1.4s-1.34-2.27-1.34-4.02Zm1.81,0c0,1.33,.29,2.32,.87,2.98s1.31,.99,2.19,.99,1.6-.33,2.18-1,.87-1.68,.87-3.04c0-1.28-.29-2.25-.87-2.92s-1.31-.99-2.17-.99-1.61,.33-2.19,.99-.87,1.65-.87,2.98Z"/><path class="e" d="M797.31,190.66l1.73,.22c-.19,1.19-.67,2.12-1.45,2.8s-1.73,1.01-2.87,1.01c-1.42,0-2.56-.46-3.42-1.39s-1.29-2.26-1.29-3.99c0-1.12,.19-2.1,.56-2.94s.94-1.47,1.69-1.89,1.58-.63,2.48-.63c1.13,0,2.05,.28,2.76,.85s1.17,1.38,1.38,2.43l-1.71,.26c-.16-.7-.45-1.22-.86-1.57s-.91-.53-1.5-.53c-.89,0-1.6,.32-2.16,.95s-.83,1.64-.83,3.01,.27,2.41,.8,3.04,1.23,.95,2.09,.95c.69,0,1.27-.21,1.73-.63s.75-1.07,.88-1.95Z"/><path class="e" d="M800.59,194.46v-14.32h1.76v5.14c.82-.95,1.86-1.43,3.11-1.43,.77,0,1.44,.15,2,.45s.97,.72,1.22,1.25,.37,1.31,.37,2.32v6.57h-1.76v-6.57c0-.88-.19-1.52-.57-1.92s-.92-.6-1.62-.6c-.52,0-1.01,.14-1.47,.41s-.79,.64-.98,1.1-.29,1.1-.29,1.91v5.67h-1.76Z"/><path class="e" d="M817.33,194.46v-10.37h1.58v1.57c.4-.74,.78-1.22,1.12-1.46s.72-.35,1.13-.35c.59,0,1.19,.19,1.81,.57l-.61,1.63c-.43-.25-.86-.38-1.29-.38-.38,0-.73,.12-1.04,.35s-.52,.55-.65,.96c-.2,.62-.29,1.31-.29,2.05v5.43h-1.76Z"/><path class="e" d="M830.81,193.18c-.65,.55-1.28,.94-1.88,1.17s-1.25,.34-1.94,.34c-1.14,0-2.01-.28-2.63-.83s-.92-1.27-.92-2.13c0-.51,.12-.97,.35-1.39s.53-.76,.91-1.01,.8-.45,1.26-.58c.34-.09,.87-.18,1.56-.26,1.42-.17,2.46-.37,3.13-.61,0-.24,0-.39,0-.46,0-.72-.17-1.22-.5-1.51-.45-.4-1.12-.6-2-.6-.83,0-1.44,.15-1.83,.43s-.69,.8-.87,1.54l-1.72-.23c.16-.74,.41-1.33,.77-1.78s.88-.8,1.55-1.04,1.46-.37,2.35-.37,1.6,.1,2.16,.31,.96,.47,1.22,.79,.44,.71,.55,1.2c.06,.3,.09,.84,.09,1.62v2.34c0,1.63,.04,2.67,.11,3.1s.22,.85,.44,1.25h-1.84c-.18-.36-.3-.79-.35-1.28Zm-.15-3.93c-.64,.26-1.59,.48-2.87,.66-.72,.1-1.23,.22-1.53,.35s-.53,.32-.69,.57-.24,.53-.24,.83c0,.47,.18,.86,.53,1.17s.87,.47,1.56,.47,1.28-.15,1.81-.44,.92-.7,1.16-1.22c.19-.4,.28-.98,.28-1.76v-.64Z"/><path class="e" d="M834.51,191.36l1.74-.27c.1,.7,.37,1.23,.82,1.6s1.07,.56,1.87,.56,1.41-.16,1.8-.49,.59-.71,.59-1.16c0-.4-.17-.71-.52-.94-.24-.16-.84-.35-1.8-.6-1.29-.33-2.18-.61-2.68-.84s-.88-.57-1.13-.99-.39-.88-.39-1.39c0-.46,.11-.89,.32-1.28s.5-.72,.86-.98c.27-.2,.65-.37,1.12-.51s.98-.21,1.52-.21c.81,0,1.53,.12,2.14,.35s1.07,.55,1.36,.95,.5,.94,.61,1.61l-1.72,.23c-.08-.53-.3-.95-.68-1.25s-.9-.45-1.59-.45c-.81,0-1.38,.13-1.73,.4s-.52,.58-.52,.94c0,.23,.07,.43,.21,.62,.14,.19,.37,.35,.67,.47,.18,.06,.69,.21,1.55,.45,1.24,.33,2.11,.6,2.6,.82s.88,.52,1.16,.92,.42,.9,.42,1.5-.17,1.14-.51,1.66-.83,.92-1.48,1.2-1.37,.42-2.19,.42c-1.35,0-2.38-.28-3.08-.84s-1.16-1.39-1.35-2.49Z"/><path class="e" d="M852.02,193.18c-.65,.55-1.28,.94-1.88,1.17s-1.25,.34-1.94,.34c-1.14,0-2.01-.28-2.63-.83s-.92-1.27-.92-2.13c0-.51,.12-.97,.35-1.39s.53-.76,.91-1.01,.8-.45,1.26-.58c.34-.09,.87-.18,1.56-.26,1.42-.17,2.46-.37,3.13-.61,0-.24,0-.39,0-.46,0-.72-.17-1.22-.5-1.51-.45-.4-1.12-.6-2-.6-.83,0-1.44,.15-1.83,.43s-.69,.8-.87,1.54l-1.72-.23c.16-.74,.41-1.33,.77-1.78s.88-.8,1.55-1.04,1.46-.37,2.35-.37,1.6,.1,2.16,.31,.96,.47,1.22,.79,.44,.71,.55,1.2c.06,.3,.09,.84,.09,1.62v2.34c0,1.63,.04,2.67,.11,3.1s.22,.85,.44,1.25h-1.84c-.18-.36-.3-.79-.35-1.28Zm-.15-3.93c-.64,.26-1.59,.48-2.87,.66-.72,.1-1.23,.22-1.53,.35s-.53,.32-.69,.57-.24,.53-.24,.83c0,.47,.18,.86,.53,1.17s.87,.47,1.56,.47,1.28-.15,1.81-.44,.92-.7,1.16-1.22c.19-.4,.28-.98,.28-1.76v-.64Z"/><path class="e" d="M856.41,194.46v-10.37h1.58v1.47c.76-1.14,1.86-1.71,3.3-1.71,.62,0,1.2,.11,1.72,.34s.92,.52,1.18,.88,.44,.8,.55,1.3c.07,.33,.1,.9,.1,1.71v6.38h-1.76v-6.31c0-.72-.07-1.25-.21-1.61s-.38-.64-.73-.85-.76-.32-1.23-.32c-.75,0-1.39,.24-1.94,.71s-.82,1.38-.82,2.71v5.66h-1.76Z"/><path class="e" d="M871.41,192.89l.25,1.55c-.5,.1-.94,.16-1.33,.16-.64,0-1.13-.1-1.48-.3s-.6-.47-.74-.8-.21-1.02-.21-2.08v-5.97h-1.29v-1.37h1.29v-2.57l1.75-1.05v3.62h1.77v1.37h-1.77v6.06c0,.5,.03,.82,.09,.97s.16,.26,.3,.34,.34,.13,.6,.13c.2,0,.45-.02,.77-.07Z"/><path class="e" d="M880.27,191.12l1.82,.22c-.29,1.06-.82,1.88-1.59,2.47s-1.76,.88-2.97,.88c-1.52,0-2.72-.47-3.61-1.4s-1.33-2.24-1.33-3.93,.45-3.1,1.35-4.06,2.06-1.45,3.5-1.45,2.52,.47,3.4,1.42,1.32,2.27,1.32,3.98c0,.1,0,.26,0,.47h-7.73c.07,1.14,.39,2.01,.97,2.62s1.3,.91,2.17,.91c.64,0,1.19-.17,1.65-.51s.82-.88,1.08-1.62Zm-5.77-2.84h5.79c-.08-.87-.3-1.53-.66-1.96-.56-.68-1.29-1.02-2.18-1.02-.81,0-1.49,.27-2.04,.81s-.85,1.26-.91,2.17Z"/><path class="e" d="M883.63,191.36l1.74-.27c.1,.7,.37,1.23,.82,1.6s1.07,.56,1.87,.56,1.41-.16,1.8-.49,.59-.71,.59-1.16c0-.4-.17-.71-.52-.94-.24-.16-.84-.35-1.8-.6-1.29-.33-2.18-.61-2.68-.84s-.88-.57-1.13-.99-.39-.88-.39-1.39c0-.46,.11-.89,.32-1.28s.5-.72,.86-.98c.27-.2,.65-.37,1.12-.51s.98-.21,1.52-.21c.81,0,1.53,.12,2.14,.35s1.07,.55,1.36,.95,.5,.94,.61,1.61l-1.72,.23c-.08-.53-.3-.95-.68-1.25s-.9-.45-1.59-.45c-.81,0-1.38,.13-1.73,.4s-.52,.58-.52,.94c0,.23,.07,.43,.21,.62,.14,.19,.37,.35,.67,.47,.18,.06,.69,.21,1.55,.45,1.24,.33,2.11,.6,2.6,.82s.88,.52,1.16,.92,.42,.9,.42,1.5-.17,1.14-.51,1.66-.83,.92-1.48,1.2-1.37,.42-2.19,.42c-1.35,0-2.38-.28-3.08-.84s-1.16-1.39-1.35-2.49Z"/><path class="e" d="M734.13,218.46l-3.8-14.32h1.94l2.18,9.38c.23,.98,.44,1.96,.61,2.93,.36-1.53,.58-2.41,.64-2.65l2.72-9.67h2.29l2.05,7.25c.51,1.8,.89,3.49,1.11,5.07,.18-.9,.42-1.94,.71-3.12l2.25-9.2h1.9l-3.93,14.32h-1.83l-3.02-10.91c-.25-.91-.4-1.47-.45-1.68-.15,.66-.29,1.22-.42,1.68l-3.04,10.91h-1.93Z"/><path class="e" d="M757.09,217.18c-.65,.55-1.28,.94-1.88,1.17s-1.25,.34-1.94,.34c-1.14,0-2.01-.28-2.63-.83s-.92-1.27-.92-2.13c0-.51,.12-.97,.35-1.39s.53-.76,.91-1.01,.8-.45,1.26-.58c.34-.09,.87-.18,1.56-.26,1.42-.17,2.46-.37,3.13-.61,0-.24,0-.39,0-.46,0-.72-.17-1.22-.5-1.51-.45-.4-1.12-.6-2-.6-.83,0-1.44,.15-1.83,.43s-.69,.8-.87,1.54l-1.72-.23c.16-.74,.41-1.33,.77-1.78s.88-.8,1.55-1.04,1.46-.37,2.35-.37,1.6,.1,2.16,.31,.96,.47,1.22,.79,.44,.71,.55,1.2c.06,.3,.09,.84,.09,1.62v2.34c0,1.63,.04,2.67,.11,3.1s.22,.85,.44,1.25h-1.84c-.18-.36-.3-.79-.35-1.28Zm-.15-3.93c-.64,.26-1.59,.48-2.87,.66-.72,.1-1.23,.22-1.53,.35s-.53,.32-.69,.57-.24,.53-.24,.83c0,.47,.18,.86,.53,1.17s.87,.47,1.56,.47,1.28-.15,1.81-.44,.92-.7,1.16-1.22c.19-.4,.28-.98,.28-1.76v-.64Z"/><path class="e" d="M768.26,214.66l1.73,.22c-.19,1.19-.67,2.12-1.45,2.8s-1.73,1.01-2.87,1.01c-1.42,0-2.56-.46-3.42-1.39s-1.29-2.26-1.29-3.99c0-1.12,.19-2.1,.56-2.94s.94-1.47,1.69-1.89,1.58-.63,2.48-.63c1.13,0,2.05,.28,2.76,.85s1.17,1.38,1.38,2.43l-1.71,.26c-.16-.7-.45-1.22-.86-1.57s-.91-.53-1.5-.53c-.89,0-1.6,.32-2.16,.95s-.83,1.64-.83,3.01,.27,2.41,.8,3.04,1.23,.95,2.09,.95c.69,0,1.27-.21,1.73-.63s.75-1.07,.88-1.95Z"/><path class="e" d="M771.53,218.46v-14.32h1.76v5.14c.82-.95,1.86-1.43,3.11-1.43,.77,0,1.44,.15,2,.45s.97,.72,1.22,1.25,.37,1.31,.37,2.32v6.57h-1.76v-6.57c0-.88-.19-1.52-.57-1.92s-.92-.6-1.62-.6c-.52,0-1.01,.14-1.47,.41s-.79,.64-.98,1.1-.29,1.1-.29,1.91v5.67h-1.76Z"/><path class="e" d="M781.99,215.36l1.74-.27c.1,.7,.37,1.23,.82,1.6s1.07,.56,1.87,.56,1.41-.16,1.8-.49,.59-.71,.59-1.16c0-.4-.17-.71-.52-.94-.24-.16-.84-.35-1.8-.6-1.29-.33-2.18-.61-2.68-.84s-.88-.57-1.13-.99-.39-.88-.39-1.39c0-.46,.11-.89,.32-1.28s.5-.72,.86-.98c.27-.2,.65-.37,1.12-.51s.98-.21,1.52-.21c.81,0,1.53,.12,2.14,.35s1.07,.55,1.36,.95,.5,.94,.61,1.61l-1.72,.23c-.08-.53-.3-.95-.68-1.25s-.9-.45-1.59-.45c-.81,0-1.38,.13-1.73,.4s-.52,.58-.52,.94c0,.23,.07,.43,.21,.62,.14,.19,.37,.35,.67,.47,.18,.06,.69,.21,1.55,.45,1.24,.33,2.11,.6,2.6,.82s.88,.52,1.16,.92,.42,.9,.42,1.5-.17,1.14-.51,1.66-.83,.92-1.48,1.2-1.37,.42-2.19,.42c-1.35,0-2.38-.28-3.08-.84s-1.16-1.39-1.35-2.49Z"/><path class="e" d="M796.57,216.89l.25,1.55c-.5,.1-.94,.16-1.33,.16-.64,0-1.13-.1-1.48-.3s-.6-.47-.74-.8-.21-1.02-.21-2.08v-5.97h-1.29v-1.37h1.29v-2.57l1.75-1.05v3.62h1.77v1.37h-1.77v6.06c0,.5,.03,.82,.09,.97s.16,.26,.3,.34,.34,.13,.6,.13c.2,0,.45-.02,.77-.07Z"/><path class="e" d="M805.13,218.46v-1.52c-.81,1.17-1.9,1.76-3.29,1.76-.61,0-1.18-.12-1.71-.35s-.92-.53-1.18-.88-.44-.79-.54-1.3c-.07-.35-.11-.89-.11-1.64v-6.43h1.76v5.75c0,.92,.04,1.54,.11,1.86,.11,.46,.34,.83,.7,1.09s.8,.4,1.33,.4,1.02-.14,1.48-.41,.79-.64,.98-1.1,.29-1.14,.29-2.03v-5.56h1.76v10.37h-1.57Z"/><path class="e" d="M809.49,218.46v-10.37h1.57v1.46c.33-.51,.76-.92,1.3-1.23s1.16-.46,1.85-.46c.77,0,1.4,.16,1.89,.48s.84,.77,1.04,1.34c.82-1.21,1.89-1.82,3.2-1.82,1.03,0,1.82,.28,2.37,.85s.83,1.45,.83,2.63v7.12h-1.75v-6.53c0-.7-.06-1.21-.17-1.52s-.32-.56-.62-.75-.65-.28-1.05-.28c-.73,0-1.33,.24-1.82,.73s-.72,1.26-.72,2.33v6.03h-1.76v-6.74c0-.78-.14-1.37-.43-1.76s-.75-.59-1.41-.59c-.5,0-.95,.13-1.37,.39s-.72,.64-.91,1.14-.28,1.22-.28,2.17v5.38h-1.76Z"/><path class="e" d="M838.56,217.18c-.65,.55-1.28,.94-1.88,1.17s-1.25,.34-1.94,.34c-1.14,0-2.01-.28-2.63-.83s-.92-1.27-.92-2.13c0-.51,.12-.97,.35-1.39s.53-.76,.91-1.01,.8-.45,1.26-.58c.34-.09,.87-.18,1.56-.26,1.42-.17,2.46-.37,3.13-.61,0-.24,0-.39,0-.46,0-.72-.17-1.22-.5-1.51-.45-.4-1.12-.6-2-.6-.83,0-1.44,.15-1.83,.43s-.69,.8-.87,1.54l-1.72-.23c.16-.74,.41-1.33,.77-1.78s.88-.8,1.55-1.04,1.46-.37,2.35-.37,1.6,.1,2.16,.31,.96,.47,1.22,.79,.44,.71,.55,1.2c.06,.3,.09,.84,.09,1.62v2.34c0,1.63,.04,2.67,.11,3.1s.22,.85,.44,1.25h-1.84c-.18-.36-.3-.79-.35-1.28Zm-.15-3.93c-.64,.26-1.59,.48-2.87,.66-.72,.1-1.23,.22-1.53,.35s-.53,.32-.69,.57-.24,.53-.24,.83c0,.47,.18,.86,.53,1.17s.87,.47,1.56,.47,1.28-.15,1.81-.44,.92-.7,1.16-1.22c.19-.4,.28-.98,.28-1.76v-.64Z"/><path class="e" d="M842.91,218.46v-14.32h1.76v14.32h-1.76Z"/><path class="e" d="M846.73,215.36l1.74-.27c.1,.7,.37,1.23,.82,1.6s1.07,.56,1.87,.56,1.41-.16,1.8-.49,.59-.71,.59-1.16c0-.4-.17-.71-.52-.94-.24-.16-.84-.35-1.8-.6-1.29-.33-2.18-.61-2.68-.84s-.88-.57-1.13-.99-.39-.88-.39-1.39c0-.46,.11-.89,.32-1.28s.5-.72,.86-.98c.27-.2,.65-.37,1.12-.51s.98-.21,1.52-.21c.81,0,1.53,.12,2.14,.35s1.07,.55,1.36,.95,.5,.94,.61,1.61l-1.72,.23c-.08-.53-.3-.95-.68-1.25s-.9-.45-1.59-.45c-.81,0-1.38,.13-1.73,.4s-.52,.58-.52,.94c0,.23,.07,.43,.21,.62,.14,.19,.37,.35,.67,.47,.18,.06,.69,.21,1.55,.45,1.24,.33,2.11,.6,2.6,.82s.88,.52,1.16,.92,.42,.9,.42,1.5-.17,1.14-.51,1.66-.83,.92-1.48,1.2-1.37,.42-2.19,.42c-1.35,0-2.38-.28-3.08-.84s-1.16-1.39-1.35-2.49Z"/><path class="e" d="M730.94,242.46v-2.04h1.88v1.61c0,.87-.1,1.5-.3,1.88-.28,.53-.72,.92-1.31,1.19l-.43-.69c.35-.14,.61-.37,.79-.68s.27-.73,.29-1.27h-.92Zm3.03,0v-2.04h1.88v1.61c0,.87-.1,1.5-.3,1.88-.28,.53-.72,.92-1.31,1.19l-.43-.69c.35-.14,.61-.37,.79-.68s.27-.73,.29-1.27h-.92Z"/><path class="e" d="M745.03,236.85v-1.68h6.06v5.3c-.93,.74-1.89,1.3-2.88,1.67s-2,.56-3.05,.56c-1.41,0-2.68-.3-3.83-.9s-2.02-1.47-2.6-2.61-.88-2.41-.88-3.82,.29-2.69,.87-3.9,1.42-2.1,2.51-2.69,2.35-.88,3.78-.88c1.04,0,1.97,.17,2.81,.5s1.49,.8,1.97,1.4,.84,1.38,1.08,2.34l-1.71,.47c-.21-.73-.48-1.3-.8-1.72s-.77-.75-1.37-1-1.25-.38-1.97-.38c-.87,0-1.61,.13-2.25,.4s-1.14,.61-1.53,1.04-.69,.9-.9,1.42c-.36,.89-.55,1.85-.55,2.88,0,1.28,.22,2.34,.66,3.2s1.08,1.5,1.92,1.91,1.73,.62,2.68,.62c.82,0,1.62-.16,2.4-.47s1.37-.65,1.78-1.01v-2.67h-4.21Z"/><path class="e" d="M760.81,239.12l1.82,.22c-.29,1.06-.82,1.88-1.59,2.47s-1.76,.88-2.97,.88c-1.52,0-2.72-.47-3.61-1.4s-1.33-2.24-1.33-3.93,.45-3.1,1.35-4.06,2.06-1.45,3.5-1.45,2.52,.47,3.4,1.42,1.32,2.27,1.32,3.98c0,.1,0,.26,0,.47h-7.73c.07,1.14,.39,2.01,.97,2.62s1.3,.91,2.17,.91c.64,0,1.19-.17,1.65-.51s.82-.88,1.08-1.62Zm-5.77-2.84h5.79c-.08-.87-.3-1.53-.66-1.96-.56-.68-1.29-1.02-2.18-1.02-.81,0-1.49,.27-2.04,.81s-.85,1.26-.91,2.17Z"/><path class="e" d="M764.17,239.36l1.74-.27c.1,.7,.37,1.23,.82,1.6s1.07,.56,1.87,.56,1.41-.16,1.8-.49,.59-.71,.59-1.16c0-.4-.17-.71-.52-.94-.24-.16-.84-.35-1.8-.6-1.29-.33-2.18-.61-2.68-.84s-.88-.57-1.13-.99-.39-.88-.39-1.39c0-.46,.11-.89,.32-1.28s.5-.72,.86-.98c.27-.2,.65-.37,1.12-.51s.98-.21,1.52-.21c.81,0,1.53,.12,2.14,.35s1.07,.55,1.36,.95,.5,.94,.61,1.61l-1.72,.23c-.08-.53-.3-.95-.68-1.25s-.9-.45-1.59-.45c-.81,0-1.38,.13-1.73,.4s-.52,.58-.52,.94c0,.23,.07,.43,.21,.62,.14,.19,.37,.35,.67,.47,.18,.06,.69,.21,1.55,.45,1.24,.33,2.11,.6,2.6,.82s.88,.52,1.16,.92,.42,.9,.42,1.5-.17,1.14-.51,1.66-.83,.92-1.48,1.2-1.37,.42-2.19,.42c-1.35,0-2.38-.28-3.08-.84s-1.16-1.39-1.35-2.49Z"/><path class="e" d="M782.01,239.12l1.82,.22c-.29,1.06-.82,1.88-1.59,2.47s-1.76,.88-2.97,.88c-1.52,0-2.72-.47-3.61-1.4s-1.33-2.24-1.33-3.93,.45-3.1,1.35-4.06,2.06-1.45,3.5-1.45,2.52,.47,3.4,1.42,1.32,2.27,1.32,3.98c0,.1,0,.26,0,.47h-7.73c.07,1.14,.39,2.01,.97,2.62s1.3,.91,2.17,.91c.64,0,1.19-.17,1.65-.51s.82-.88,1.08-1.62Zm-5.77-2.84h5.79c-.08-.87-.3-1.53-.66-1.96-.56-.68-1.29-1.02-2.18-1.02-.81,0-1.49,.27-2.04,.81s-.85,1.26-.91,2.17Z"/><path class="e" d="M789.91,240.89l.25,1.55c-.5,.1-.94,.16-1.33,.16-.64,0-1.13-.1-1.48-.3s-.6-.47-.74-.8-.21-1.02-.21-2.08v-5.97h-1.29v-1.37h1.29v-2.57l1.75-1.05v3.62h1.77v1.37h-1.77v6.06c0,.5,.03,.82,.09,.97s.16,.26,.3,.34,.34,.13,.6,.13c.2,0,.45-.02,.77-.07Z"/><path class="e" d="M790.74,242.46v-1.43l6.6-7.58c-.75,.04-1.41,.06-1.98,.06h-4.23v-1.43h8.48v1.16l-5.62,6.58-1.08,1.2c.79-.06,1.53-.09,2.22-.09h4.79v1.51h-9.18Z"/><path class="e" d="M801.71,242.46v-10.37h1.57v1.46c.33-.51,.76-.92,1.3-1.23s1.16-.46,1.85-.46c.77,0,1.4,.16,1.89,.48s.84,.77,1.04,1.34c.82-1.21,1.89-1.82,3.2-1.82,1.03,0,1.82,.28,2.37,.85s.83,1.45,.83,2.63v7.12h-1.75v-6.53c0-.7-.06-1.21-.17-1.52s-.32-.56-.62-.75-.65-.28-1.05-.28c-.73,0-1.33,.24-1.82,.73s-.72,1.26-.72,2.33v6.03h-1.76v-6.74c0-.78-.14-1.37-.43-1.76s-.75-.59-1.41-.59c-.5,0-.95,.13-1.37,.39s-.72,.64-.91,1.14-.28,1.22-.28,2.17v5.38h-1.76Z"/><path class="e" d="M825.18,241.18c-.65,.55-1.28,.94-1.88,1.17s-1.25,.34-1.94,.34c-1.14,0-2.01-.28-2.63-.83s-.92-1.27-.92-2.13c0-.51,.12-.97,.35-1.39s.53-.76,.91-1.01,.8-.45,1.26-.58c.34-.09,.87-.18,1.56-.26,1.42-.17,2.46-.37,3.13-.61,0-.24,0-.39,0-.46,0-.72-.17-1.22-.5-1.51-.45-.4-1.12-.6-2-.6-.83,0-1.44,.15-1.83,.43s-.69,.8-.87,1.54l-1.72-.23c.16-.74,.41-1.33,.77-1.78s.88-.8,1.55-1.04,1.46-.37,2.35-.37,1.6,.1,2.16,.31,.96,.47,1.22,.79,.44,.71,.55,1.2c.06,.3,.09,.84,.09,1.62v2.34c0,1.63,.04,2.67,.11,3.1s.22,.85,.44,1.25h-1.84c-.18-.36-.3-.79-.35-1.28Zm-.15-3.93c-.64,.26-1.59,.48-2.87,.66-.72,.1-1.23,.22-1.53,.35s-.53,.32-.69,.57-.24,.53-.24,.83c0,.47,.18,.86,.53,1.17s.87,.47,1.56,.47,1.28-.15,1.81-.44,.92-.7,1.16-1.22c.19-.4,.28-.98,.28-1.76v-.64Zm-5.18-7.2v-2h1.84v2h-1.84Zm3.64,0v-2h1.84v2h-1.84Z"/><path class="e" d="M829.75,242.46v-9.76c0-1.19,.14-2.11,.43-2.75s.77-1.14,1.45-1.51,1.44-.55,2.29-.55c1.13,0,2.01,.28,2.66,.84s.97,1.22,.97,1.96c0,.33-.06,.67-.18,1.03s-.33,.79-.62,1.31-.49,.89-.57,1.09-.12,.39-.12,.54c0,.21,.07,.41,.21,.62,.14,.21,.53,.52,1.18,.95,.89,.58,1.47,1.04,1.77,1.4,.42,.5,.62,1.09,.62,1.78,0,.9-.33,1.68-1,2.32s-1.52,.97-2.56,.97c-.82,0-1.54-.22-2.16-.66s-1.08-1-1.39-1.69l1.51-.7c.33,.61,.65,1.03,.98,1.26s.67,.35,1.03,.35c.5,0,.92-.17,1.27-.51s.53-.74,.53-1.19c0-.36-.1-.68-.31-.94-.14-.17-.5-.46-1.09-.86-1.08-.74-1.75-1.3-2-1.67-.26-.37-.39-.75-.39-1.14,0-.25,.04-.51,.13-.77s.3-.68,.63-1.25,.55-1,.66-1.29,.16-.54,.16-.76c0-.4-.18-.76-.53-1.07s-.83-.46-1.42-.46c-.7,0-1.27,.21-1.71,.64s-.66,1.36-.66,2.79v9.68h-1.76Z"/><path class="e" d="M841.84,230.17v-2.02h1.76v2.02h-1.76Zm0,12.29v-10.37h1.76v10.37h-1.76Z"/><path class="e" d="M845.99,243.32l1.71,.25c.07,.53,.27,.91,.6,1.15,.44,.33,1.03,.49,1.79,.49,.81,0,1.44-.16,1.88-.49s.74-.78,.9-1.37c.09-.36,.13-1.11,.13-2.26-.77,.9-1.73,1.36-2.87,1.36-1.43,0-2.53-.51-3.31-1.54s-1.17-2.26-1.17-3.7c0-.99,.18-1.9,.54-2.74s.88-1.48,1.56-1.94,1.48-.68,2.4-.68c1.22,0,2.23,.49,3.03,1.48v-1.25h1.62v8.96c0,1.61-.16,2.76-.49,3.43s-.85,1.21-1.56,1.6-1.59,.59-2.63,.59c-1.24,0-2.24-.28-3-.83s-1.13-1.4-1.1-2.51Zm1.46-6.23c0,1.36,.27,2.35,.81,2.98s1.22,.94,2.03,.94,1.48-.31,2.03-.93,.82-1.6,.82-2.92-.28-2.23-.84-2.87-1.24-.97-2.04-.97-1.45,.32-1.99,.95-.82,1.58-.82,2.83Z"/><path class="e" d="M857.49,242.46v-14.32h1.76v8.16l4.16-4.22h2.28l-3.96,3.85,4.37,6.52h-2.17l-3.43-5.3-1.24,1.19v4.11h-1.76Z"/><path class="e" d="M874.62,239.12l1.82,.22c-.29,1.06-.82,1.88-1.59,2.47s-1.76,.88-2.97,.88c-1.52,0-2.72-.47-3.61-1.4s-1.33-2.24-1.33-3.93,.45-3.1,1.35-4.06,2.06-1.45,3.5-1.45,2.52,.47,3.4,1.42,1.32,2.27,1.32,3.98c0,.1,0,.26,0,.47h-7.73c.07,1.14,.39,2.01,.97,2.62s1.3,.91,2.17,.91c.64,0,1.19-.17,1.65-.51s.82-.88,1.08-1.62Zm-5.77-2.84h5.79c-.08-.87-.3-1.53-.66-1.96-.56-.68-1.29-1.02-2.18-1.02-.81,0-1.49,.27-2.04,.81s-.85,1.26-.91,2.17Z"/><path class="e" d="M878.69,230.17v-2.02h1.76v2.02h-1.76Zm0,12.29v-10.37h1.76v10.37h-1.76Z"/><path class="e" d="M887,240.89l.25,1.55c-.5,.1-.94,.16-1.33,.16-.64,0-1.13-.1-1.48-.3s-.6-.47-.74-.8-.21-1.02-.21-2.08v-5.97h-1.29v-1.37h1.29v-2.57l1.75-1.05v3.62h1.77v1.37h-1.77v6.06c0,.5,.03,.82,.09,.97s.16,.26,.3,.34,.34,.13,.6,.13c.2,0,.45-.02,.77-.07Z"/><path class="e" d="M890.14,230.55v2.04h-1.88v-1.61c0-.87,.1-1.5,.31-1.89,.27-.52,.71-.91,1.3-1.18l.43,.68c-.36,.15-.62,.37-.79,.67s-.26,.73-.28,1.29h.92Zm3.03,0v2.04h-1.88v-1.61c0-.87,.1-1.5,.31-1.89,.27-.52,.71-.91,1.3-1.18l.43,.68c-.36,.15-.62,.37-.79,.67s-.26,.73-.28,1.29h.92Z"/><path class="e" d="M738.51,263.12l1.82,.22c-.29,1.06-.82,1.88-1.59,2.47s-1.76,.88-2.97,.88c-1.52,0-2.72-.47-3.61-1.4s-1.33-2.24-1.33-3.93,.45-3.1,1.35-4.06,2.06-1.45,3.5-1.45,2.52,.47,3.4,1.42,1.32,2.27,1.32,3.98c0,.1,0,.26,0,.47h-7.73c.07,1.14,.39,2.01,.97,2.62s1.3,.91,2.17,.91c.64,0,1.19-.17,1.65-.51s.82-.88,1.08-1.62Zm-5.77-2.84h5.79c-.08-.87-.3-1.53-.66-1.96-.56-.68-1.29-1.02-2.18-1.02-.81,0-1.49,.27-2.04,.81s-.85,1.26-.91,2.17Z"/><path class="e" d="M742.55,266.46v-10.37h1.58v1.57c.4-.74,.78-1.22,1.12-1.46s.72-.35,1.13-.35c.59,0,1.19,.19,1.81,.57l-.61,1.63c-.43-.25-.86-.38-1.29-.38-.38,0-.73,.12-1.04,.35s-.52,.55-.65,.96c-.2,.62-.29,1.31-.29,2.05v5.43h-1.76Z"/><path class="e" d="M749.28,266.46v-14.32h1.76v8.16l4.16-4.22h2.28l-3.96,3.85,4.37,6.52h-2.17l-3.43-5.3-1.24,1.19v4.11h-1.76Z"/><path class="e" d="M766.41,263.12l1.82,.22c-.29,1.06-.82,1.88-1.59,2.47s-1.76,.88-2.97,.88c-1.52,0-2.72-.47-3.61-1.4s-1.33-2.24-1.33-3.93,.45-3.1,1.35-4.06,2.06-1.45,3.5-1.45,2.52,.47,3.4,1.42,1.32,2.27,1.32,3.98c0,.1,0,.26,0,.47h-7.73c.07,1.14,.39,2.01,.97,2.62s1.3,.91,2.17,.91c.64,0,1.19-.17,1.65-.51s.82-.88,1.08-1.62Zm-5.77-2.84h5.79c-.08-.87-.3-1.53-.66-1.96-.56-.68-1.29-1.02-2.18-1.02-.81,0-1.49,.27-2.04,.81s-.85,1.26-.91,2.17Z"/><path class="e" d="M770.48,266.46v-10.37h1.58v1.47c.76-1.14,1.86-1.71,3.3-1.71,.62,0,1.2,.11,1.72,.34s.92,.52,1.18,.88,.44,.8,.55,1.3c.07,.33,.1,.9,.1,1.71v6.38h-1.76v-6.31c0-.72-.07-1.25-.21-1.61s-.38-.64-.73-.85-.76-.32-1.23-.32c-.75,0-1.39,.24-1.94,.71s-.82,1.38-.82,2.71v5.66h-1.76Z"/><path class="e" d="M781.64,266.46v-10.37h1.58v1.47c.76-1.14,1.86-1.71,3.3-1.71,.62,0,1.2,.11,1.72,.34s.92,.52,1.18,.88,.44,.8,.55,1.3c.07,.33,.1,.9,.1,1.71v6.38h-1.76v-6.31c0-.72-.07-1.25-.21-1.61s-.38-.64-.73-.85-.76-.32-1.23-.32c-.75,0-1.39,.24-1.94,.71s-.82,1.38-.82,2.71v5.66h-1.76Z"/><path class="e" d="M794.42,266.46h-1.63v-14.32h1.76v5.11c.74-.93,1.69-1.4,2.84-1.4,.64,0,1.24,.13,1.81,.39s1.04,.62,1.41,1.08,.66,1.03,.86,1.68,.31,1.36,.31,2.11c0,1.78-.44,3.15-1.32,4.12s-1.93,1.46-3.16,1.46-2.18-.51-2.88-1.53v1.3Zm-.02-5.26c0,1.24,.17,2.14,.51,2.7,.55,.9,1.3,1.36,2.25,1.36,.77,0,1.43-.33,1.99-1s.84-1.66,.84-2.98-.27-2.35-.81-3-1.19-.97-1.95-.97-1.43,.33-1.99,1-.84,1.63-.84,2.9Z"/><path class="e" d="M810.73,265.18c-.65,.55-1.28,.94-1.88,1.17s-1.25,.34-1.94,.34c-1.14,0-2.01-.28-2.63-.83s-.92-1.27-.92-2.13c0-.51,.12-.97,.35-1.39s.53-.76,.91-1.01,.8-.45,1.26-.58c.34-.09,.87-.18,1.56-.26,1.42-.17,2.46-.37,3.13-.61,0-.24,0-.39,0-.46,0-.72-.17-1.22-.5-1.51-.45-.4-1.12-.6-2-.6-.83,0-1.44,.15-1.83,.43s-.69,.8-.87,1.54l-1.72-.23c.16-.74,.41-1.33,.77-1.78s.88-.8,1.55-1.04,1.46-.37,2.35-.37,1.6,.1,2.16,.31,.96,.47,1.22,.79,.44,.71,.55,1.2c.06,.3,.09,.84,.09,1.62v2.34c0,1.63,.04,2.67,.11,3.1s.22,.85,.44,1.25h-1.84c-.18-.36-.3-.79-.35-1.28Zm-.15-3.93c-.64,.26-1.59,.48-2.87,.66-.72,.1-1.23,.22-1.53,.35s-.53,.32-.69,.57-.24,.53-.24,.83c0,.47,.18,.86,.53,1.17s.87,.47,1.56,.47,1.28-.15,1.81-.44,.92-.7,1.16-1.22c.19-.4,.28-.98,.28-1.76v-.64Z"/><path class="e" d="M815.11,266.46v-10.37h1.58v1.57c.4-.74,.78-1.22,1.12-1.46s.72-.35,1.13-.35c.59,0,1.19,.19,1.81,.57l-.61,1.63c-.43-.25-.86-.38-1.29-.38-.38,0-.73,.12-1.04,.35s-.52,.55-.65,.96c-.2,.62-.29,1.31-.29,2.05v5.43h-1.76Z"/><path class="e" d="M822.33,266.46v-2h2v2h-2Z"/></g></svg>