<?xml version="1.0" encoding="UTF-8"?>
<svg id="graphics" xmlns="http://www.w3.org/2000/svg" viewBox="0 0 740 250">
  <defs>
    <style>
      .cls-1 {
        stroke: #1d1d1b;
      }

      .cls-1, .cls-2 {
        fill: none;
        stroke-miterlimit: 10;
      }

      .cls-2 {
        stroke: #000;
      }
    </style>
  </defs>
  <line class="cls-1" x1="622.34" y1="134.09" x2="622.34" y2="95.82"/>
  <line class="cls-1" x1="117.66" y1="134.09" x2="117.66" y2="95.82"/>
  <g>
    <line class="cls-2" x1="124.84" y1="122.68" x2="615.16" y2="122.68"/>
    <polygon points="126.29 127.66 117.66 122.68 126.29 117.69 126.29 127.66"/>
    <polygon points="613.71 127.66 622.34 122.68 613.71 117.69 613.71 127.66"/>
  </g>
  <g>
    <path d="M623.5,60.27v-11.45h3.71c1.41,0,2.32.06,2.75.17.66.17,1.21.55,1.65,1.12.44.58.66,1.32.66,2.23,0,.7-.13,1.29-.38,1.77-.26.48-.58.86-.97,1.13-.39.27-.79.45-1.2.54-.55.11-1.35.16-2.4.16h-1.51v4.32h-2.31ZM625.82,50.76v3.25h1.27c.91,0,1.52-.06,1.83-.18.31-.12.55-.31.72-.56.17-.25.26-.55.26-.89,0-.42-.12-.76-.37-1.03-.25-.27-.55-.44-.93-.51-.28-.05-.83-.08-1.66-.08h-1.12Z"/>
    <path d="M639.62,60.27v-1.24c-.3.44-.7.79-1.19,1.05s-1.01.38-1.56.38-1.06-.12-1.5-.37c-.44-.24-.76-.59-.96-1.03-.2-.44-.3-1.05-.3-1.84v-5.25h2.2v3.81c0,1.17.04,1.88.12,2.14.08.26.23.47.44.62.21.15.48.23.81.23.38,0,.71-.1,1.01-.31.3-.21.5-.46.61-.77s.16-1.05.16-2.24v-3.5h2.2v8.3h-2.04Z"/>
    <path d="M646.04,60.27h-2.2v-8.3h2.04v1.18c.35-.56.66-.92.94-1.1.28-.18.59-.27.95-.27.5,0,.98.14,1.45.41l-.68,1.91c-.37-.24-.71-.36-1.03-.36s-.57.08-.78.25c-.21.17-.38.48-.5.92-.12.44-.18,1.37-.18,2.78v2.56Z"/>
    <path d="M654.97,57.63l2.19.37c-.28.8-.73,1.41-1.33,1.83-.61.42-1.37.63-2.28.63-1.44,0-2.51-.47-3.2-1.41-.55-.75-.82-1.71-.82-2.86,0-1.38.36-2.45,1.08-3.23.72-.78,1.63-1.17,2.73-1.17,1.23,0,2.21.41,2.92,1.22.71.82,1.05,2.06,1.02,3.75h-5.5c.02.65.19,1.16.53,1.52.34.36.76.54,1.27.54.34,0,.63-.09.87-.28s.41-.49.53-.91ZM655.09,55.41c-.02-.64-.18-1.12-.49-1.45-.31-.33-.69-.5-1.14-.5-.48,0-.88.17-1.19.52-.31.35-.47.82-.46,1.42h3.28Z"/>
    <path d="M628.29,76.83l2.19.37c-.28.8-.73,1.41-1.33,1.83-.61.42-1.37.63-2.28.63-1.44,0-2.51-.47-3.2-1.41-.55-.75-.82-1.71-.82-2.86,0-1.38.36-2.45,1.08-3.23.72-.78,1.63-1.17,2.73-1.17,1.23,0,2.21.41,2.92,1.22.71.82,1.05,2.06,1.02,3.75h-5.5c.02.65.19,1.16.53,1.52.34.36.76.54,1.27.54.34,0,.63-.09.87-.28s.41-.49.53-.91ZM628.42,74.61c-.02-.64-.18-1.12-.49-1.45-.31-.33-.69-.5-1.14-.5-.48,0-.88.17-1.19.52-.31.35-.47.82-.46,1.42h3.28Z"/>
    <path d="M632.22,71.17h2.02v1.13c.72-.88,1.59-1.32,2.59-1.32.53,0,.99.11,1.38.33s.71.55.96.99c.36-.44.76-.77,1.18-.99s.87-.33,1.35-.33c.61,0,1.12.12,1.55.37.42.25.74.61.95,1.09.15.35.23.93.23,1.72v5.3h-2.2v-4.74c0-.82-.08-1.35-.23-1.59-.2-.31-.52-.47-.94-.47-.31,0-.6.09-.87.28-.27.19-.47.46-.59.82-.12.36-.18.93-.18,1.71v3.98h-2.2v-4.55c0-.81-.04-1.33-.12-1.56s-.2-.41-.36-.52c-.16-.11-.39-.17-.67-.17-.34,0-.64.09-.91.27-.27.18-.46.45-.58.79s-.18.91-.18,1.71v4.03h-2.2v-8.3Z"/>
    <path d="M651.42,76.83l2.19.37c-.28.8-.73,1.41-1.33,1.83-.61.42-1.37.63-2.28.63-1.44,0-2.51-.47-3.2-1.41-.55-.75-.82-1.71-.82-2.86,0-1.38.36-2.45,1.08-3.23.72-.78,1.63-1.17,2.73-1.17,1.23,0,2.21.41,2.92,1.22.71.82,1.05,2.06,1.02,3.75h-5.5c.02.65.19,1.16.53,1.52.34.36.76.54,1.27.54.34,0,.63-.09.87-.28s.41-.49.53-.91ZM651.54,74.61c-.02-.64-.18-1.12-.49-1.45-.31-.33-.69-.5-1.14-.5-.48,0-.88.17-1.19.52-.31.35-.47.82-.46,1.42h3.28Z"/>
    <path d="M657.61,79.47h-2.2v-8.3h2.04v1.18c.35-.56.66-.92.94-1.1.28-.18.59-.27.95-.27.5,0,.98.14,1.45.41l-.68,1.91c-.37-.24-.71-.36-1.03-.36s-.57.08-.78.25c-.21.17-.38.48-.5.92-.12.44-.18,1.37-.18,2.78v2.56Z"/>
    <path d="M661.54,80.02l2.51.3c.04.29.14.49.29.6.21.16.54.23.98.23.57,0,1-.09,1.29-.26.19-.11.34-.3.44-.55.07-.18.1-.52.1-1.01v-1.21c-.66.9-1.48,1.34-2.48,1.34-1.12,0-2-.47-2.65-1.41-.51-.74-.77-1.67-.77-2.78,0-1.39.33-2.45,1-3.19.67-.73,1.5-1.1,2.5-1.1s1.87.45,2.54,1.35v-1.16h2.05v7.45c0,.98-.08,1.71-.24,2.2-.16.48-.39.86-.68,1.14-.29.28-.68.49-1.17.65-.49.16-1.1.23-1.85.23-1.41,0-2.4-.24-2.99-.72-.59-.48-.88-1.09-.88-1.83,0-.07,0-.16,0-.27ZM663.5,75.15c0,.88.17,1.52.51,1.93.34.41.76.61,1.26.61.54,0,.99-.21,1.36-.63.37-.42.55-1.04.55-1.86s-.18-1.5-.53-1.91c-.35-.42-.8-.62-1.34-.62s-.96.2-1.3.61c-.34.41-.51,1.03-.51,1.87Z"/>
    <path d="M676.32,76.83l2.19.37c-.28.8-.73,1.41-1.33,1.83-.61.42-1.37.63-2.28.63-1.44,0-2.51-.47-3.2-1.41-.55-.75-.82-1.71-.82-2.86,0-1.38.36-2.45,1.08-3.23.72-.78,1.63-1.17,2.73-1.17,1.23,0,2.21.41,2.92,1.22.71.82,1.05,2.06,1.02,3.75h-5.5c.02.65.19,1.16.53,1.52.34.36.76.54,1.27.54.34,0,.63-.09.87-.28s.41-.49.53-.91ZM676.44,74.61c-.02-.64-.18-1.12-.49-1.45-.31-.33-.69-.5-1.14-.5-.48,0-.88.17-1.19.52-.31.35-.47.82-.46,1.42h3.28Z"/>
    <path d="M687.96,79.47h-2.2v-4.23c0-.9-.05-1.48-.14-1.74-.09-.26-.25-.47-.46-.61-.21-.15-.46-.22-.76-.22-.38,0-.72.1-1.02.31-.3.21-.51.48-.62.83-.11.34-.17.98-.17,1.91v3.76h-2.2v-8.3h2.04v1.22c.72-.94,1.63-1.41,2.73-1.41.48,0,.93.09,1.33.26.4.17.7.4.91.67.21.27.35.58.43.92.08.34.12.84.12,1.48v5.16Z"/>
    <path d="M697.42,73.63l-2.16.39c-.07-.43-.24-.76-.5-.98s-.59-.33-1-.33c-.55,0-.98.19-1.31.57-.33.38-.49,1.01-.49,1.89,0,.98.17,1.68.5,2.09.33.41.77.61,1.33.61.42,0,.76-.12,1.02-.36.27-.24.45-.64.56-1.22l2.16.37c-.22.99-.65,1.74-1.29,2.24-.64.51-1.49.76-2.55.76-1.21,0-2.18-.38-2.9-1.15-.72-.77-1.08-1.83-1.08-3.18s.36-2.44,1.09-3.2c.72-.76,1.7-1.14,2.94-1.14,1.01,0,1.81.22,2.41.65.6.44,1.02,1.1,1.29,1.99Z"/>
    <path d="M703.89,76.83l2.19.37c-.28.8-.73,1.41-1.33,1.83-.61.42-1.37.63-2.28.63-1.44,0-2.51-.47-3.2-1.41-.55-.75-.82-1.71-.82-2.86,0-1.38.36-2.45,1.08-3.23.72-.78,1.63-1.17,2.73-1.17,1.23,0,2.21.41,2.92,1.22.71.82,1.05,2.06,1.02,3.75h-5.5c.02.65.19,1.16.53,1.52.34.36.76.54,1.27.54.34,0,.63-.09.87-.28s.41-.49.53-.91ZM704.01,74.61c-.02-.64-.18-1.12-.49-1.45-.31-.33-.69-.5-1.14-.5-.48,0-.88.17-1.19.52-.31.35-.47.82-.46,1.42h3.28Z"/>
  </g>
  <g>
    <path d="M83.25,60.27v-11.45h3.71c1.41,0,2.32.06,2.75.17.66.17,1.21.55,1.65,1.12.44.58.66,1.32.66,2.23,0,.7-.13,1.29-.38,1.77-.26.48-.58.86-.97,1.13-.39.27-.79.45-1.2.54-.55.11-1.35.16-2.4.16h-1.51v4.32h-2.31ZM85.57,50.76v3.25h1.27c.91,0,1.52-.06,1.83-.18.31-.12.55-.31.72-.56.17-.25.26-.55.26-.89,0-.42-.12-.76-.37-1.03-.25-.27-.55-.44-.93-.51-.28-.05-.83-.08-1.66-.08h-1.12Z"/>
    <path d="M99.37,60.27v-1.24c-.3.44-.7.79-1.19,1.05s-1.01.38-1.56.38-1.06-.12-1.5-.37c-.44-.24-.76-.59-.96-1.03-.2-.44-.3-1.05-.3-1.84v-5.25h2.2v3.81c0,1.17.04,1.88.12,2.14.08.26.23.47.44.62.21.15.48.23.81.23.38,0,.71-.1,1.01-.31.3-.21.5-.46.61-.77s.16-1.05.16-2.24v-3.5h2.2v8.3h-2.04Z"/>
    <path d="M105.78,60.27h-2.2v-8.3h2.04v1.18c.35-.56.66-.92.94-1.1.28-.18.59-.27.95-.27.5,0,.98.14,1.45.41l-.68,1.91c-.37-.24-.71-.36-1.03-.36s-.57.08-.78.25c-.21.17-.38.48-.5.92-.12.44-.18,1.37-.18,2.78v2.56Z"/>
    <path d="M114.71,57.63l2.19.37c-.28.8-.73,1.41-1.33,1.83-.61.42-1.37.63-2.28.63-1.44,0-2.51-.47-3.2-1.41-.55-.75-.82-1.71-.82-2.86,0-1.38.36-2.45,1.08-3.23.72-.78,1.63-1.17,2.73-1.17,1.23,0,2.21.41,2.92,1.22.71.82,1.05,2.06,1.02,3.75h-5.5c.02.65.19,1.16.53,1.52.34.36.76.54,1.27.54.34,0,.63-.09.87-.28s.41-.49.53-.91ZM114.84,55.41c-.02-.64-.18-1.12-.49-1.45-.31-.33-.69-.5-1.14-.5-.48,0-.88.17-1.19.52-.31.35-.47.82-.46,1.42h3.28Z"/>
    <path d="M52.09,71.17h2.05v1.22c.27-.42.62-.75,1.08-1.02.45-.26.96-.39,1.51-.39.96,0,1.78.38,2.45,1.13.67.76,1.01,1.81,1.01,3.16s-.34,2.46-1.02,3.23c-.68.77-1.5,1.15-2.46,1.15-.46,0-.87-.09-1.25-.27-.37-.18-.76-.49-1.18-.94v4.18h-2.2v-11.45ZM54.26,75.18c0,.93.18,1.62.55,2.07.37.45.82.67,1.35.67s.93-.2,1.27-.61c.34-.41.51-1.08.51-2.01,0-.87-.17-1.52-.52-1.94-.35-.42-.78-.63-1.3-.63s-.98.21-1.34.62c-.35.41-.53,1.03-.53,1.84Z"/>
    <path d="M61.93,79.47v-11.45h2.2v11.45h-2.2Z"/>
    <path d="M68.01,73.71l-1.99-.36c.22-.8.61-1.4,1.16-1.78.55-.39,1.36-.58,2.44-.58.98,0,1.71.12,2.19.35.48.23.82.53,1.01.88.2.36.29,1.01.29,1.96l-.02,2.56c0,.73.04,1.27.11,1.61.07.35.2.72.39,1.11h-2.17c-.06-.15-.13-.36-.21-.65-.04-.13-.06-.22-.08-.26-.38.36-.78.64-1.2.82-.43.18-.88.27-1.37.27-.85,0-1.53-.23-2.02-.7-.49-.46-.74-1.05-.74-1.76,0-.47.11-.89.34-1.25.22-.37.54-.65.94-.84.4-.2.99-.37,1.75-.51,1.03-.19,1.74-.37,2.13-.54v-.22c0-.42-.1-.72-.31-.9-.21-.18-.6-.27-1.18-.27-.39,0-.7.08-.91.23-.22.15-.4.42-.53.81ZM70.95,75.49c-.28.09-.73.21-1.34.34-.61.13-1.01.26-1.2.38-.29.2-.43.46-.43.77s.11.57.34.8c.23.22.52.34.88.34.4,0,.77-.13,1.13-.39.27-.2.44-.44.52-.73.06-.19.09-.54.09-1.07v-.44Z"/>
    <path d="M82.82,79.47h-2.2v-4.23c0-.9-.05-1.48-.14-1.74-.09-.26-.25-.47-.46-.61-.21-.15-.46-.22-.76-.22-.38,0-.72.1-1.02.31-.3.21-.51.48-.62.83-.11.34-.17.98-.17,1.91v3.76h-2.2v-8.3h2.04v1.22c.72-.94,1.64-1.41,2.73-1.41.48,0,.93.09,1.33.26.4.17.7.4.91.67.21.27.35.58.43.92.08.34.12.84.12,1.48v5.16Z"/>
    <path d="M92.59,79.47h-2.2v-4.23c0-.9-.05-1.48-.14-1.74-.09-.26-.25-.47-.46-.61-.21-.15-.46-.22-.76-.22-.38,0-.72.1-1.02.31-.3.21-.51.48-.62.83-.11.34-.17.98-.17,1.91v3.76h-2.2v-8.3h2.04v1.22c.72-.94,1.64-1.41,2.73-1.41.48,0,.93.09,1.33.26.4.17.7.4.91.67.21.27.35.58.43.92.08.34.12.84.12,1.48v5.16Z"/>
    <path d="M94.82,70.05v-2.03h2.2v2.03h-2.2ZM94.82,79.47v-8.3h2.2v8.3h-2.2Z"/>
    <path d="M106.81,79.47h-2.2v-4.23c0-.9-.05-1.48-.14-1.74-.09-.26-.25-.47-.46-.61-.21-.15-.46-.22-.76-.22-.38,0-.72.1-1.02.31-.3.21-.51.48-.62.83-.11.34-.17.98-.17,1.91v3.76h-2.2v-8.3h2.04v1.22c.72-.94,1.64-1.41,2.73-1.41.48,0,.93.09,1.33.26.4.17.7.4.91.67.21.27.35.58.43.92.08.34.12.84.12,1.48v5.16Z"/>
    <path d="M108.83,80.02l2.51.3c.04.29.14.49.29.6.21.16.54.23.98.23.57,0,1-.09,1.29-.26.19-.11.34-.3.44-.55.07-.18.1-.52.1-1.01v-1.21c-.66.9-1.48,1.34-2.48,1.34-1.11,0-2-.47-2.65-1.41-.51-.74-.77-1.67-.77-2.78,0-1.39.33-2.45,1-3.19.67-.73,1.5-1.1,2.5-1.1s1.87.45,2.54,1.35v-1.16h2.05v7.45c0,.98-.08,1.71-.24,2.2-.16.48-.39.86-.68,1.14-.29.28-.68.49-1.17.65-.49.16-1.1.23-1.85.23-1.41,0-2.4-.24-2.99-.72-.59-.48-.88-1.09-.88-1.83,0-.07,0-.16,0-.27ZM110.79,75.15c0,.88.17,1.52.51,1.93.34.41.76.61,1.26.61.54,0,.99-.21,1.36-.63.37-.42.55-1.04.55-1.86s-.18-1.5-.53-1.91c-.35-.42-.8-.62-1.34-.62s-.96.2-1.3.61c-.34.41-.51,1.03-.51,1.87Z"/>
  </g>
</svg>