<?xml version="1.0" encoding="UTF-8"?>
<svg id="maturity" xmlns="http://www.w3.org/2000/svg" viewBox="0 0 425 425">
  <defs>
    <style>
      .cls-1 {
        fill: #4266ff;
      }

      .cls-1, .cls-2, .cls-3 {
        stroke-width: 0px;
      }

      .cls-4 {
        letter-spacing: 0em;
      }

      .cls-2, .cls-5 {
        fill: #1d1d1b;
      }

      .cls-5 {
        font-family: Arial-BoldMT, Arial;
        font-size: 18px;
        font-weight: 700;
      }

      .cls-6 {
        fill: #fff;
        stroke: #0333ff;
        stroke-miterlimit: 10;
      }

      .cls-3 {
        fill: #0333ff;
      }

      .cls-7 {
        letter-spacing: 0em;
      }

      .cls-8 {
        fill: #000;
        font-family: ArialMT, Arial;
        font-size: 32px;
        letter-spacing: .18em;
      }

      .cls-9 {
        letter-spacing: 0em;
      }

      .cls-10 {
        letter-spacing: 0em;
      }

      .cls-11 {
        letter-spacing: -.02em;
      }

      .cls-12 {
        letter-spacing: 0em;
      }
    </style>
  </defs>
  <g>
    <g>
      <circle class="cls-6" cx="213.53" cy="177.65" r="100"/>
      <circle class="cls-6" cx="147.93" cy="277.65" r="100"/>
      <circle class="cls-6" cx="277.07" cy="277.65" r="100"/>
    </g>
    <g>
      <path class="cls-1" d="M177.3,270.88c1.86-27.87,15.14-52.6,35.2-69.58-17.42-14.75-39.95-23.64-64.57-23.64-12.02,0-23.54,2.12-34.22,6.01,2.36,39.84,28.04,73.4,63.58,87.22Z"/>
      <path class="cls-1" d="M212.5,201.29c20.24,17.13,33.58,42.17,35.25,70.35,36.36-13.24,62.86-46.97,65.55-87.22-11.24-4.37-23.45-6.77-36.23-6.77-24.61,0-47.14,8.9-64.57,23.64Z"/>
      <path class="cls-1" d="M247.93,277.65c0-2.02-.07-4.02-.19-6.01-10.67,3.89-22.2,6.01-34.22,6.01-12.78,0-25-2.4-36.23-6.77-.15,2.24-.23,4.5-.23,6.77,0,30.62,13.76,58.01,35.43,76.36,21.67-18.34,35.43-45.74,35.43-76.36Z"/>
      <path class="cls-3" d="M212.5,201.29c-20.06,16.98-33.34,41.72-35.2,69.58,11.23,4.37,23.45,6.77,36.23,6.77,12.02,0,23.54-2.12,34.22-6.01-1.67-28.18-15.01-53.21-35.25-70.35Z"/>
    </g>
    <text class="cls-5" transform="translate(176.67 133.88)"><tspan class="cls-11" x="0" y="0">P</tspan><tspan class="cls-12" x="11.66" y="0">u</tspan><tspan class="cls-10" x="22.6" y="0">r</tspan><tspan class="cls-4" x="29.76" y="0">p</tspan><tspan class="cls-7" x="40.79" y="0">o</tspan><tspan class="cls-9" x="51.76" y="0">s</tspan><tspan x="61.66" y="0">e</tspan></text>
    <g>
      <path class="cls-2" d="M79.87,299.48l2.53-.25c.15.85.46,1.47.93,1.87.46.4,1.09.6,1.88.6.84,0,1.47-.18,1.89-.53.42-.35.64-.77.64-1.24,0-.3-.09-.56-.27-.78-.18-.21-.49-.4-.94-.56-.3-.11-1-.29-2.08-.56-1.39-.35-2.37-.77-2.94-1.27-.79-.71-1.19-1.57-1.19-2.59,0-.66.19-1.27.56-1.84s.91-1.01,1.61-1.31c.7-.3,1.54-.45,2.54-.45,1.62,0,2.83.35,3.65,1.06.82.71,1.25,1.66,1.29,2.84l-2.6.11c-.11-.66-.35-1.14-.72-1.43s-.92-.44-1.65-.44-1.35.16-1.78.47c-.28.2-.41.47-.41.8,0,.3.13.57.39.78.33.28,1.12.56,2.39.86s2.2.61,2.81.93c.61.32,1.08.76,1.42,1.31.34.55.51,1.24.51,2.05,0,.74-.21,1.43-.62,2.07s-.99,1.12-1.74,1.44-1.68.47-2.8.47c-1.63,0-2.88-.38-3.75-1.13s-1.39-1.85-1.56-3.29Z"/>
      <path class="cls-2" d="M94.89,290.79v4.74c.8-.93,1.75-1.4,2.86-1.4.57,0,1.08.11,1.54.32s.8.48,1.03.81.39.69.47,1.09.13,1.02.13,1.85v5.48h-2.47v-4.93c0-.98-.05-1.6-.14-1.86s-.26-.47-.5-.63c-.24-.16-.54-.23-.89-.23-.41,0-.78.1-1.1.3s-.56.5-.71.9c-.15.4-.22.99-.22,1.78v4.68h-2.47v-12.88h2.47Z"/>
      <path class="cls-2" d="M105.22,297.19l-2.24-.4c.25-.9.69-1.57,1.3-2s1.53-.65,2.74-.65c1.1,0,1.92.13,2.46.39s.92.59,1.14.99c.22.4.33,1.14.33,2.21l-.03,2.88c0,.82.04,1.43.12,1.81.08.39.23.81.44,1.25h-2.44c-.06-.16-.14-.41-.24-.73-.04-.15-.07-.24-.09-.29-.42.41-.87.72-1.35.92s-.99.31-1.54.31c-.96,0-1.72-.26-2.27-.78-.55-.52-.83-1.18-.83-1.98,0-.53.13-1,.38-1.41s.6-.73,1.06-.95,1.11-.41,1.96-.58c1.15-.22,1.95-.42,2.4-.61v-.25c0-.47-.12-.81-.35-1.02s-.68-.3-1.33-.3c-.44,0-.78.09-1.03.26s-.45.48-.6.91ZM108.52,299.19c-.32.11-.82.23-1.5.38s-1.13.29-1.34.43c-.32.23-.48.52-.48.87s.13.64.39.9.59.38.98.38c.45,0,.87-.15,1.27-.44.3-.22.5-.5.59-.82.06-.21.1-.61.1-1.2v-.49Z"/>
      <path class="cls-2" d="M115.76,303.67h-2.47v-9.33h2.29v1.33c.39-.63.75-1.04,1.06-1.24s.67-.3,1.07-.3c.56,0,1.1.16,1.63.47l-.76,2.15c-.42-.27-.8-.4-1.16-.4s-.64.1-.88.29-.43.53-.57,1.03c-.14.5-.21,1.54-.21,3.13v2.88Z"/>
      <path class="cls-2" d="M125.77,300.7l2.46.41c-.32.9-.82,1.59-1.5,2.06-.68.47-1.54.71-2.56.71-1.62,0-2.82-.53-3.6-1.59-.62-.85-.92-1.92-.92-3.22,0-1.55.4-2.76,1.21-3.63s1.83-1.31,3.07-1.31c1.39,0,2.48.46,3.29,1.38s1.19,2.32,1.15,4.21h-6.19c.02.73.22,1.3.6,1.71s.86.61,1.42.61c.39,0,.71-.11.98-.32s.46-.55.6-1.02ZM125.91,298.21c-.02-.71-.2-1.26-.55-1.63s-.78-.56-1.28-.56c-.54,0-.98.2-1.34.59s-.52.93-.52,1.6h3.69Z"/>
      <path class="cls-2" d="M138.92,303.67h-2.29v-1.37c-.38.53-.83.93-1.35,1.19-.52.26-1.04.39-1.57.39-1.07,0-1.99-.43-2.76-1.3-.76-.86-1.15-2.07-1.15-3.62s.37-2.78,1.12-3.61,1.68-1.23,2.82-1.23c1.04,0,1.95.43,2.71,1.3v-4.64h2.47v12.88ZM132.33,298.81c0,1,.14,1.72.41,2.16.4.64.96.97,1.67.97.57,0,1.05-.24,1.45-.73s.6-1.21.6-2.17c0-1.07-.19-1.84-.58-2.32s-.88-.71-1.49-.71-1.08.23-1.47.7c-.39.47-.59,1.16-.59,2.09Z"/>
      <path class="cls-2" d="M85.67,325.27l-3.76-9.33h2.59l1.76,4.76.51,1.59c.13-.4.22-.67.25-.8.08-.26.17-.53.26-.79l1.78-4.76h2.54l-3.71,9.33h-2.22Z"/>
      <path class="cls-2" d="M94.65,318.79l-2.24-.4c.25-.9.69-1.57,1.3-2s1.53-.65,2.74-.65c1.1,0,1.92.13,2.46.39s.92.59,1.14.99c.22.4.33,1.14.33,2.21l-.03,2.88c0,.82.04,1.43.12,1.81.08.39.23.81.44,1.25h-2.44c-.06-.16-.14-.41-.24-.73-.04-.15-.07-.24-.09-.29-.42.41-.87.72-1.35.92s-.99.31-1.54.31c-.96,0-1.72-.26-2.27-.78-.55-.52-.83-1.18-.83-1.98,0-.53.13-1,.38-1.41s.6-.73,1.06-.95,1.11-.41,1.96-.58c1.15-.22,1.95-.42,2.4-.61v-.25c0-.47-.12-.81-.35-1.02s-.68-.3-1.33-.3c-.44,0-.78.09-1.03.26s-.45.48-.6.91ZM97.96,320.79c-.32.11-.82.23-1.5.38s-1.13.29-1.34.43c-.32.23-.48.52-.48.87s.13.64.39.9.59.38.98.38c.45,0,.87-.15,1.27-.44.3-.22.5-.5.59-.82.06-.21.1-.61.1-1.2v-.49Z"/>
      <path class="cls-2" d="M102.77,325.27v-12.88h2.47v12.88h-2.47Z"/>
      <path class="cls-2" d="M113.83,325.27v-1.4c-.34.5-.79.89-1.34,1.18-.55.29-1.14.43-1.75.43s-1.19-.14-1.69-.41-.86-.66-1.08-1.16-.33-1.19-.33-2.07v-5.91h2.47v4.29c0,1.31.04,2.12.14,2.41.09.3.26.53.5.7s.54.26.91.26c.42,0,.8-.12,1.13-.35s.56-.52.69-.86.18-1.18.18-2.52v-3.94h2.47v9.33h-2.29Z"/>
      <path class="cls-2" d="M124.13,322.3l2.46.41c-.32.9-.82,1.59-1.5,2.06-.68.47-1.54.71-2.56.71-1.62,0-2.82-.53-3.6-1.59-.62-.85-.92-1.92-.92-3.22,0-1.55.4-2.76,1.21-3.63s1.83-1.31,3.07-1.31c1.39,0,2.48.46,3.29,1.38s1.19,2.32,1.15,4.21h-6.19c.02.73.22,1.3.6,1.71s.86.61,1.42.61c.39,0,.71-.11.98-.32s.46-.55.6-1.02ZM124.27,319.81c-.02-.71-.2-1.26-.55-1.63s-.78-.56-1.28-.56c-.54,0-.98.2-1.34.59s-.52.93-.52,1.6h3.69Z"/>
      <path class="cls-2" d="M127.88,322.61l2.48-.38c.11.48.32.85.64,1.09s.77.37,1.35.37c.64,0,1.12-.12,1.44-.35.22-.16.33-.38.33-.66,0-.19-.06-.34-.18-.47-.12-.12-.4-.23-.83-.33-1.99-.44-3.25-.84-3.79-1.2-.74-.5-1.11-1.2-1.11-2.1,0-.81.32-1.49.96-2.04s1.63-.83,2.97-.83,2.23.21,2.85.62,1.05,1.03,1.28,1.85l-2.33.43c-.1-.36-.29-.64-.57-.83s-.67-.29-1.19-.29c-.65,0-1.12.09-1.4.27-.19.13-.28.3-.28.5,0,.18.08.33.25.45.22.16.99.4,2.31.69s2.23.67,2.76,1.1c.52.44.77,1.05.77,1.84,0,.86-.36,1.59-1.07,2.21s-1.77.92-3.17.92c-1.27,0-2.28-.26-3.02-.77-.74-.52-1.23-1.22-1.46-2.1Z"/>
    </g>
  </g>
  <text class="cls-8" transform="translate(74.18 44.17)"><tspan x="0" y="0">WILLINGNESS</tspan></text>
</svg>