<?xml version="1.0" encoding="UTF-8"?>
<svg id="graphics" xmlns="http://www.w3.org/2000/svg" viewBox="0 0 988 525">
  <defs>
    <style>
      .cls-1 {
        font-family: ArialMT, Arial;
      }

      .cls-2 {
        fill: #fff;
        stroke-width: 1.97px;
      }

      .cls-2, .cls-3 {
        stroke: #1d1d1b;
        stroke-miterlimit: 10;
      }

      .cls-3 {
        fill: none;
      }

      .cls-4, .cls-5 {
        font-family: Arial-BoldMT, Arial;
        font-weight: 700;
      }

      .cls-6, .cls-5 {
        font-size: 18px;
      }

      .cls-7 {
        fill: #0333ff;
        stroke-width: 0px;
      }
    </style>
  </defs>
  <g>
    <rect class="cls-2" x="404" y="50" width="180" height="70"/>
    <text class="cls-6" transform="translate(465.99 79.91)"><tspan class="cls-4"><tspan x="0" y="0">Owner</tspan></tspan><tspan class="cls-1"><tspan x="-35.53" y="21.6">or top executive</tspan></tspan></text>
  </g>
  <g>
    <g>
      <rect class="cls-2" x="59" y="220" width="180" height="70"/>
      <text class="cls-5" transform="translate(98.98 259.33)"><tspan x="0" y="0">Employee 1</tspan></text>
    </g>
    <g>
      <rect class="cls-2" x="289" y="220" width="180" height="70"/>
      <text class="cls-5" transform="translate(328.98 259.33)"><tspan x="0" y="0">Employee 2</tspan></text>
    </g>
    <g>
      <rect class="cls-2" x="749" y="220" width="180" height="70"/>
      <text class="cls-5" transform="translate(788.49 259.33)"><tspan x="0" y="0">Employee n</tspan></text>
    </g>
    <g>
      <rect class="cls-2" x="519" y="220" width="180" height="70"/>
      <text class="cls-5" transform="translate(601.5 259.33)"><tspan x="0" y="0">...</tspan></text>
    </g>
  </g>
  <polyline class="cls-3" points="493.72 120 493.72 170 149 170 149 220"/>
  <polyline class="cls-3" points="494 120 494 170 838.72 170 838.72 220"/>
  <polyline class="cls-3" points="494 120 494 170 609 170 609 220"/>
  <polyline class="cls-3" points="494 120 494 170 379 170 379 220"/>
  <g>
    <path class="cls-7" d="m64.22,412.02v4.07h-4.07v-4.07h4.07Z"/>
    <path class="cls-7" d="m78.34,420v-12.88h2.57l3.05,9.12c.28.85.49,1.49.62,1.91.15-.47.38-1.16.69-2.07l3.08-8.96h2.29v12.88h-1.64v-10.78l-3.74,10.78h-1.54l-3.73-10.97v10.97h-1.64Z"/>
    <path class="cls-7" d="m92.59,415.33c0-1.73.48-3.01,1.44-3.84.8-.69,1.78-1.04,2.94-1.04,1.28,0,2.33.42,3.15,1.26s1.22,2,1.22,3.48c0,1.2-.18,2.15-.54,2.83-.36.69-.88,1.22-1.57,1.6s-1.44.57-2.25.57c-1.31,0-2.36-.42-3.17-1.26s-1.21-2.04-1.21-3.62Zm1.63,0c0,1.2.26,2.09.78,2.68.52.6,1.18.89,1.97.89s1.44-.3,1.96-.9.78-1.51.78-2.73c0-1.15-.26-2.03-.79-2.62-.52-.59-1.18-.89-1.96-.89s-1.45.3-1.97.89-.78,1.49-.78,2.68Z"/>
    <path class="cls-7" d="m102.56,417.21l1.56-.25c.09.63.33,1.11.73,1.44s.96.5,1.68.5,1.27-.15,1.62-.44.53-.64.53-1.04c0-.36-.16-.64-.47-.84-.22-.14-.76-.32-1.62-.54-1.16-.29-1.96-.55-2.41-.76s-.79-.51-1.02-.89c-.23-.38-.35-.79-.35-1.25,0-.42.1-.8.29-1.16.19-.35.45-.65.78-.88.25-.18.58-.33,1.01-.46s.88-.19,1.37-.19c.73,0,1.38.11,1.93.32s.96.5,1.23.86c.26.36.45.84.54,1.45l-1.55.21c-.07-.48-.27-.86-.61-1.12s-.81-.4-1.43-.4c-.73,0-1.25.12-1.56.36s-.47.52-.47.84c0,.21.06.39.19.55.13.17.33.31.61.42.16.06.62.19,1.4.4,1.12.3,1.9.54,2.34.73s.79.47,1.04.83.38.81.38,1.35-.15,1.02-.46,1.49c-.31.46-.75.83-1.33,1.08-.58.26-1.24.38-1.97.38-1.21,0-2.14-.25-2.77-.76s-1.04-1.25-1.22-2.24Z"/>
    <path class="cls-7" d="m115.65,418.58l.23,1.4c-.45.09-.84.14-1.2.14-.57,0-1.02-.09-1.34-.27s-.54-.42-.67-.72-.19-.92-.19-1.87v-5.37h-1.16v-1.23h1.16v-2.31l1.57-.95v3.26h1.59v1.23h-1.59v5.46c0,.45.03.74.08.87s.15.23.27.31.31.11.54.11c.18,0,.41-.02.69-.06Z"/>
    <path class="cls-7" d="m128.28,416.58l1.56.2c-.17,1.07-.6,1.91-1.31,2.52-.7.61-1.56.91-2.58.91-1.28,0-2.3-.42-3.08-1.25-.78-.84-1.16-2.03-1.16-3.59,0-1.01.17-1.89.5-2.65s.84-1.32,1.52-1.7c.68-.38,1.43-.57,2.23-.57,1.01,0,1.84.26,2.49.77s1.06,1.24,1.24,2.18l-1.54.24c-.15-.63-.41-1.1-.78-1.42s-.82-.47-1.35-.47c-.8,0-1.44.29-1.94.86-.5.57-.75,1.47-.75,2.71s.24,2.17.72,2.73,1.11.85,1.88.85c.62,0,1.14-.19,1.56-.57s.68-.97.79-1.76Z"/>
    <path class="cls-7" d="m130.6,415.33c0-1.73.48-3.01,1.44-3.84.8-.69,1.78-1.04,2.94-1.04,1.28,0,2.33.42,3.15,1.26s1.22,2,1.22,3.48c0,1.2-.18,2.15-.54,2.83-.36.69-.88,1.22-1.57,1.6s-1.44.57-2.25.57c-1.31,0-2.36-.42-3.17-1.26s-1.21-2.04-1.21-3.62Zm1.63,0c0,1.2.26,2.09.78,2.68.52.6,1.18.89,1.97.89s1.44-.3,1.96-.9.78-1.51.78-2.73c0-1.15-.26-2.03-.79-2.62-.52-.59-1.18-.89-1.96-.89s-1.45.3-1.97.89-.78,1.49-.78,2.68Z"/>
    <path class="cls-7" d="m141.2,420v-9.33h1.42v1.31c.29-.46.68-.82,1.17-1.1s1.04-.42,1.66-.42c.69,0,1.26.14,1.7.43s.75.69.94,1.2c.74-1.09,1.7-1.63,2.88-1.63.93,0,1.64.26,2.14.77s.75,1.3.75,2.37v6.41h-1.57v-5.88c0-.63-.05-1.09-.15-1.37s-.29-.5-.56-.67-.59-.25-.95-.25c-.66,0-1.2.22-1.63.65-.43.44-.65,1.14-.65,2.1v5.42h-1.58v-6.06c0-.7-.13-1.23-.39-1.58s-.68-.53-1.27-.53c-.45,0-.86.12-1.23.35s-.65.58-.82,1.03-.25,1.1-.25,1.95v4.84h-1.58Z"/>
    <path class="cls-7" d="m156.2,420v-9.33h1.42v1.31c.29-.46.68-.82,1.17-1.1s1.04-.42,1.66-.42c.69,0,1.26.14,1.7.43s.75.69.94,1.2c.74-1.09,1.7-1.63,2.88-1.63.93,0,1.64.26,2.14.77s.75,1.3.75,2.37v6.41h-1.57v-5.88c0-.63-.05-1.09-.15-1.37s-.29-.5-.56-.67-.59-.25-.95-.25c-.66,0-1.2.22-1.63.65-.43.44-.65,1.14-.65,2.1v5.42h-1.58v-6.06c0-.7-.13-1.23-.39-1.58s-.68-.53-1.27-.53c-.45,0-.86.12-1.23.35s-.65.58-.82,1.03-.25,1.1-.25,1.95v4.84h-1.58Z"/>
    <path class="cls-7" d="m170.6,415.33c0-1.73.48-3.01,1.44-3.84.8-.69,1.78-1.04,2.94-1.04,1.28,0,2.33.42,3.15,1.26s1.22,2,1.22,3.48c0,1.2-.18,2.15-.54,2.83-.36.69-.88,1.22-1.57,1.6s-1.44.57-2.25.57c-1.31,0-2.36-.42-3.17-1.26s-1.21-2.04-1.21-3.62Zm1.63,0c0,1.2.26,2.09.78,2.68.52.6,1.18.89,1.97.89s1.44-.3,1.96-.9.78-1.51.78-2.73c0-1.15-.26-2.03-.79-2.62-.52-.59-1.18-.89-1.96-.89s-1.45.3-1.97.89-.78,1.49-.78,2.68Z"/>
    <path class="cls-7" d="m181.2,420v-9.33h1.42v1.33c.69-1.03,1.68-1.54,2.97-1.54.56,0,1.08.1,1.55.3.47.2.82.47,1.06.8s.4.72.49,1.17c.06.29.09.81.09,1.54v5.74h-1.58v-5.68c0-.64-.06-1.13-.18-1.45s-.34-.57-.65-.77c-.31-.19-.68-.29-1.1-.29-.67,0-1.26.21-1.74.64s-.73,1.24-.73,2.43v5.1h-1.58Z"/>
    <path class="cls-7" d="m196.59,420v-8.1h-1.4v-1.23h1.4v-.99c0-.63.06-1.09.17-1.4.15-.41.42-.74.8-1,.38-.25.92-.38,1.61-.38.45,0,.94.05,1.48.16l-.24,1.38c-.33-.06-.64-.09-.93-.09-.48,0-.82.1-1.02.31s-.3.59-.3,1.15v.86h1.82v1.23h-1.82v8.1h-1.57Z"/>
    <path class="cls-7" d="m200.63,415.33c0-1.73.48-3.01,1.44-3.84.8-.69,1.78-1.04,2.94-1.04,1.28,0,2.33.42,3.15,1.26s1.22,2,1.22,3.48c0,1.2-.18,2.15-.54,2.83-.36.69-.88,1.22-1.57,1.6s-1.44.57-2.25.57c-1.31,0-2.36-.42-3.17-1.26s-1.21-2.04-1.21-3.62Zm1.63,0c0,1.2.26,2.09.78,2.68.52.6,1.18.89,1.97.89s1.44-.3,1.96-.9.78-1.51.78-2.73c0-1.15-.26-2.03-.79-2.62-.52-.59-1.18-.89-1.96-.89s-1.45.3-1.97.89-.78,1.49-.78,2.68Z"/>
    <path class="cls-7" d="m211.21,420v-9.33h1.42v1.42c.36-.66.7-1.1,1.01-1.31s.65-.32,1.02-.32c.53,0,1.08.17,1.63.51l-.54,1.47c-.39-.23-.77-.34-1.16-.34-.35,0-.66.1-.93.31s-.47.5-.59.87c-.18.56-.26,1.18-.26,1.85v4.89h-1.58Z"/>
    <path class="cls-7" d="m221.59,417.21l1.56-.25c.09.63.33,1.11.73,1.44s.96.5,1.68.5,1.27-.15,1.62-.44.53-.64.53-1.04c0-.36-.16-.64-.47-.84-.22-.14-.76-.32-1.62-.54-1.16-.29-1.96-.55-2.41-.76s-.79-.51-1.02-.89c-.23-.38-.35-.79-.35-1.25,0-.42.1-.8.29-1.16.19-.35.45-.65.78-.88.25-.18.58-.33,1.01-.46s.88-.19,1.37-.19c.73,0,1.38.11,1.93.32s.96.5,1.23.86c.26.36.45.84.54,1.45l-1.55.21c-.07-.48-.27-.86-.61-1.12s-.81-.4-1.43-.4c-.73,0-1.25.12-1.56.36s-.47.52-.47.84c0,.21.06.39.19.55.13.17.33.31.61.42.16.06.62.19,1.4.4,1.12.3,1.9.54,2.34.73s.79.47,1.04.83.38.81.38,1.35-.15,1.02-.46,1.49c-.31.46-.75.83-1.33,1.08-.58.26-1.24.38-1.97.38-1.21,0-2.14-.25-2.77-.76s-1.04-1.25-1.22-2.24Z"/>
    <path class="cls-7" d="m231.23,408.93v-1.82h1.58v1.82h-1.58Zm0,11.07v-9.33h1.58v9.33h-1.58Z"/>
    <path class="cls-7" d="m235.22,420v-9.33h1.42v1.31c.29-.46.68-.82,1.17-1.1s1.04-.42,1.66-.42c.69,0,1.26.14,1.7.43s.75.69.94,1.2c.74-1.09,1.7-1.63,2.88-1.63.93,0,1.64.26,2.14.77s.75,1.3.75,2.37v6.41h-1.57v-5.88c0-.63-.05-1.09-.15-1.37s-.29-.5-.56-.67-.59-.25-.95-.25c-.66,0-1.2.22-1.63.65-.43.44-.65,1.14-.65,2.1v5.42h-1.58v-6.06c0-.7-.13-1.23-.39-1.58s-.68-.53-1.27-.53c-.45,0-.86.12-1.23.35s-.65.58-.82,1.03-.25,1.1-.25,1.95v4.84h-1.58Z"/>
    <path class="cls-7" d="m250.21,423.58v-12.91h1.44v1.21c.34-.47.72-.83,1.15-1.07.43-.24.95-.36,1.56-.36.8,0,1.5.21,2.11.62s1.07.99,1.38,1.74c.31.75.47,1.57.47,2.46,0,.96-.17,1.82-.51,2.58-.34.77-.84,1.35-1.49,1.76-.65.41-1.34.61-2.06.61-.53,0-1-.11-1.42-.33s-.76-.5-1.03-.84v4.54h-1.58Zm1.43-8.19c0,1.2.24,2.09.73,2.66s1.08.86,1.77.86,1.31-.3,1.81-.89c.5-.59.75-1.52.75-2.76s-.24-2.08-.73-2.67-1.07-.89-1.75-.89-1.27.32-1.79.94c-.52.63-.78,1.55-.78,2.75Z"/>
    <path class="cls-7" d="m260.19,420v-12.88h1.58v12.88h-1.58Z"/>
    <path class="cls-7" d="m270.61,416.99l1.63.2c-.26.96-.74,1.7-1.43,2.22s-1.59.79-2.67.79c-1.37,0-2.45-.42-3.25-1.26-.8-.84-1.2-2.02-1.2-3.54s.4-2.79,1.21-3.66,1.86-1.3,3.15-1.3,2.27.42,3.06,1.27,1.19,2.04,1.19,3.59c0,.09,0,.23,0,.42h-6.96c.06,1.03.35,1.81.87,2.36s1.17.82,1.95.82c.58,0,1.08-.15,1.49-.46s.74-.79.98-1.46Zm-5.19-2.56h5.21c-.07-.79-.27-1.37-.6-1.77-.5-.61-1.16-.91-1.96-.91-.73,0-1.34.24-1.83.73s-.77,1.14-.82,1.95Z"/>
    <path class="cls-7" d="m273.05,420.22l3.74-13.32h1.27l-3.73,13.32h-1.27Z"/>
    <path class="cls-7" d="m279.24,420v-9.33h1.42v1.33c.69-1.03,1.68-1.54,2.97-1.54.56,0,1.08.1,1.55.3.47.2.82.47,1.06.8s.4.72.49,1.17c.06.29.09.81.09,1.54v5.74h-1.58v-5.68c0-.64-.06-1.13-.18-1.45s-.34-.57-.65-.77c-.31-.19-.68-.29-1.1-.29-.67,0-1.26.21-1.74.64s-.73,1.24-.73,2.43v5.1h-1.58Z"/>
    <path class="cls-7" d="m295.34,418.85c-.59.5-1.15.85-1.69,1.05s-1.12.31-1.74.31c-1.03,0-1.81-.25-2.36-.75-.55-.5-.83-1.14-.83-1.92,0-.46.1-.88.31-1.25.21-.38.48-.68.82-.91s.72-.4,1.14-.52c.31-.08.78-.16,1.41-.24,1.28-.15,2.22-.33,2.82-.54,0-.22,0-.35,0-.41,0-.64-.15-1.1-.45-1.36-.4-.36-1-.54-1.8-.54-.74,0-1.29.13-1.65.39s-.62.72-.79,1.38l-1.55-.21c.14-.66.37-1.2.69-1.6.32-.41.79-.72,1.4-.94.61-.22,1.32-.33,2.12-.33s1.44.09,1.94.28.86.42,1.1.71c.23.29.4.64.49,1.08.05.27.08.76.08,1.46v2.11c0,1.47.03,2.4.1,2.79.07.39.2.76.4,1.12h-1.65c-.16-.33-.27-.71-.32-1.15Zm-.13-3.53c-.57.23-1.44.43-2.58.6-.65.09-1.11.2-1.38.32s-.48.29-.62.51-.22.48-.22.75c0,.42.16.77.48,1.05s.79.42,1.4.42,1.15-.13,1.63-.4.82-.63,1.05-1.09c.17-.36.25-.88.25-1.58v-.58Z"/>
    <path class="cls-7" d="m299.24,420v-9.33h1.42v1.42c.36-.66.7-1.1,1.01-1.31s.65-.32,1.02-.32c.53,0,1.08.17,1.63.51l-.54,1.47c-.39-.23-.77-.34-1.16-.34-.35,0-.66.1-.93.31s-.47.5-.59.87c-.18.56-.26,1.18-.26,1.85v4.89h-1.58Z"/>
    <path class="cls-7" d="m305.23,420v-9.33h1.42v1.42c.36-.66.7-1.1,1.01-1.31s.65-.32,1.02-.32c.53,0,1.08.17,1.63.51l-.54,1.47c-.39-.23-.77-.34-1.16-.34-.35,0-.66.1-.93.31s-.47.5-.59.87c-.18.56-.26,1.18-.26,1.85v4.89h-1.58Z"/>
    <path class="cls-7" d="m310.66,415.33c0-1.73.48-3.01,1.44-3.84.8-.69,1.78-1.04,2.94-1.04,1.28,0,2.33.42,3.15,1.26s1.22,2,1.22,3.48c0,1.2-.18,2.15-.54,2.83-.36.69-.88,1.22-1.57,1.6s-1.44.57-2.25.57c-1.31,0-2.36-.42-3.17-1.26s-1.21-2.04-1.21-3.62Zm1.63,0c0,1.2.26,2.09.78,2.68.52.6,1.18.89,1.97.89s1.44-.3,1.96-.9.78-1.51.78-2.73c0-1.15-.26-2.03-.79-2.62-.52-.59-1.18-.89-1.96-.89s-1.45.3-1.97.89-.78,1.49-.78,2.68Z"/>
    <path class="cls-7" d="m322.98,420l-2.86-9.33h1.63l1.49,5.39.55,2c.02-.1.18-.74.48-1.92l1.49-5.47h1.63l1.4,5.41.47,1.78.54-1.8,1.6-5.4h1.54l-2.92,9.33h-1.64l-1.49-5.59-.36-1.59-1.89,7.18h-1.65Z"/>
    <path class="cls-7" d="m339.26,423.58v-12.91h1.44v1.21c.34-.47.72-.83,1.15-1.07.43-.24.95-.36,1.56-.36.8,0,1.5.21,2.11.62s1.07.99,1.38,1.74c.31.75.47,1.57.47,2.46,0,.96-.17,1.82-.51,2.58-.34.77-.84,1.35-1.49,1.76-.65.41-1.34.61-2.06.61-.53,0-1-.11-1.42-.33s-.76-.5-1.03-.84v4.54h-1.58Zm1.43-8.19c0,1.2.24,2.09.73,2.66s1.08.86,1.77.86,1.31-.3,1.81-.89c.5-.59.75-1.52.75-2.76s-.24-2.08-.73-2.67-1.07-.89-1.75-.89-1.27.32-1.79.94c-.52.63-.78,1.55-.78,2.75Z"/>
    <path class="cls-7" d="m349.25,420v-9.33h1.42v1.42c.36-.66.7-1.1,1.01-1.31s.65-.32,1.02-.32c.53,0,1.08.17,1.63.51l-.54,1.47c-.39-.23-.77-.34-1.16-.34-.35,0-.66.1-.93.31s-.47.5-.59.87c-.18.56-.26,1.18-.26,1.85v4.89h-1.58Z"/>
    <path class="cls-7" d="m354.67,415.33c0-1.73.48-3.01,1.44-3.84.8-.69,1.78-1.04,2.94-1.04,1.28,0,2.33.42,3.15,1.26s1.22,2,1.22,3.48c0,1.2-.18,2.15-.54,2.83-.36.69-.88,1.22-1.57,1.6s-1.44.57-2.25.57c-1.31,0-2.36-.42-3.17-1.26s-1.21-2.04-1.21-3.62Zm1.63,0c0,1.2.26,2.09.78,2.68.52.6,1.18.89,1.97.89s1.44-.3,1.96-.9.78-1.51.78-2.73c0-1.15-.26-2.03-.79-2.62-.52-.59-1.18-.89-1.96-.89s-1.45.3-1.97.89-.78,1.49-.78,2.68Z"/>
    <path class="cls-7" d="m371.33,420v-1.18c-.59.93-1.46,1.39-2.61,1.39-.74,0-1.43-.21-2.05-.62s-1.11-.98-1.45-1.72c-.34-.73-.51-1.58-.51-2.54s.16-1.78.47-2.54.78-1.34,1.4-1.75,1.32-.61,2.08-.61c.56,0,1.06.12,1.5.36.44.24.8.55,1.07.93v-4.62h1.57v12.88h-1.47Zm-5-4.66c0,1.2.25,2.09.76,2.68s1.1.89,1.78.89,1.28-.28,1.76-.85.73-1.43.73-2.59c0-1.28-.25-2.21-.74-2.81s-1.1-.9-1.82-.9-1.29.29-1.76.86-.71,1.48-.71,2.72Z"/>
    <path class="cls-7" d="m381.4,420v-1.37c-.73,1.05-1.71,1.58-2.96,1.58-.55,0-1.06-.11-1.54-.32s-.83-.48-1.06-.79-.39-.71-.49-1.17c-.06-.31-.1-.8-.1-1.48v-5.78h1.58v5.18c0,.83.03,1.38.1,1.67.1.42.31.74.63.98.32.24.72.36,1.2.36s.92-.12,1.34-.36.71-.57.88-.99c.17-.42.26-1.03.26-1.82v-5h1.58v9.33h-1.42Z"/>
    <path class="cls-7" d="m391.38,416.58l1.56.2c-.17,1.07-.6,1.91-1.31,2.52-.7.61-1.56.91-2.58.91-1.28,0-2.3-.42-3.08-1.25-.78-.84-1.16-2.03-1.16-3.59,0-1.01.17-1.89.5-2.65s.84-1.32,1.52-1.7c.68-.38,1.43-.57,2.23-.57,1.01,0,1.84.26,2.49.77s1.06,1.24,1.24,2.18l-1.54.24c-.15-.63-.41-1.1-.78-1.42s-.82-.47-1.35-.47c-.8,0-1.44.29-1.94.86-.5.57-.75,1.47-.75,2.71s.24,2.17.72,2.73,1.11.85,1.88.85c.62,0,1.14-.19,1.56-.57s.68-.97.79-1.76Z"/>
    <path class="cls-7" d="m397.75,418.58l.23,1.4c-.45.09-.84.14-1.2.14-.57,0-1.02-.09-1.34-.27s-.54-.42-.67-.72-.19-.92-.19-1.87v-5.37h-1.16v-1.23h1.16v-2.31l1.57-.95v3.26h1.59v1.23h-1.59v5.46c0,.45.03.74.08.87s.15.23.27.31.31.11.54.11c.18,0,.41-.02.69-.06Z"/>
    <path class="cls-7" d="m404.26,420v-12.88h1.58v12.88h-1.58Z"/>
    <path class="cls-7" d="m408.3,408.93v-1.82h1.58v1.82h-1.58Zm0,11.07v-9.33h1.58v9.33h-1.58Z"/>
    <path class="cls-7" d="m412.29,420v-9.33h1.42v1.33c.69-1.03,1.68-1.54,2.97-1.54.56,0,1.08.1,1.55.3.47.2.82.47,1.06.8s.4.72.49,1.17c.06.29.09.81.09,1.54v5.74h-1.58v-5.68c0-.64-.06-1.13-.18-1.45s-.34-.57-.66-.77c-.31-.19-.68-.29-1.1-.29-.67,0-1.26.21-1.75.64s-.73,1.24-.73,2.43v5.1h-1.58Z"/>
    <path class="cls-7" d="m428.69,416.99l1.63.2c-.26.96-.74,1.7-1.43,2.22s-1.59.79-2.67.79c-1.37,0-2.45-.42-3.25-1.26-.8-.84-1.2-2.02-1.2-3.54s.4-2.79,1.21-3.66,1.86-1.3,3.15-1.3,2.27.42,3.06,1.27,1.19,2.04,1.19,3.59c0,.09,0,.23,0,.42h-6.96c.06,1.03.35,1.81.87,2.36s1.17.82,1.95.82c.58,0,1.08-.15,1.49-.46s.74-.79.98-1.46Zm-5.19-2.56h5.21c-.07-.79-.27-1.37-.6-1.77-.5-.61-1.16-.91-1.96-.91-.73,0-1.34.24-1.83.73s-.77,1.14-.82,1.95Z"/>
    <path class="cls-7" d="m431.68,417.21l1.56-.25c.09.63.33,1.11.73,1.44s.96.5,1.68.5,1.27-.15,1.62-.44.53-.64.53-1.04c0-.36-.16-.64-.47-.84-.22-.14-.76-.32-1.62-.54-1.16-.29-1.96-.55-2.41-.76-.45-.21-.79-.51-1.02-.89-.23-.38-.35-.79-.35-1.25,0-.42.09-.8.29-1.16.19-.35.45-.65.78-.88.25-.18.58-.33,1.01-.46s.88-.19,1.37-.19c.73,0,1.38.11,1.93.32.55.21.96.5,1.23.86.26.36.45.84.54,1.45l-1.55.21c-.07-.48-.27-.86-.61-1.12-.34-.27-.81-.4-1.43-.4-.73,0-1.25.12-1.56.36s-.47.52-.47.84c0,.21.06.39.19.55.13.17.33.31.61.42.16.06.62.19,1.4.4,1.12.3,1.9.54,2.34.73.44.19.79.47,1.04.83s.38.81.38,1.35-.15,1.02-.46,1.49c-.31.46-.75.83-1.33,1.08-.58.26-1.24.38-1.97.38-1.21,0-2.14-.25-2.77-.76-.64-.5-1.04-1.25-1.22-2.24Z"/>
    <path class="cls-7" d="m449.34,423.79c-.87-1.1-1.61-2.39-2.21-3.87s-.91-3.01-.91-4.59c0-1.39.23-2.73.68-4.01.53-1.48,1.34-2.96,2.44-4.43h1.13c-.71,1.22-1.18,2.09-1.41,2.61-.36.81-.64,1.65-.84,2.53-.25,1.1-.38,2.2-.38,3.3,0,2.82.88,5.63,2.63,8.45h-1.13Z"/>
    <path class="cls-7" d="m455.76,418.58l.23,1.4c-.45.09-.84.14-1.2.14-.57,0-1.02-.09-1.34-.27s-.54-.42-.67-.72-.19-.92-.19-1.87v-5.37h-1.16v-1.23h1.16v-2.31l1.57-.95v3.26h1.59v1.23h-1.59v5.46c0,.45.03.74.08.87s.15.23.27.31c.12.08.31.11.54.11.18,0,.41-.02.69-.06Z"/>
    <path class="cls-7" d="m457.24,423.59l-.18-1.49c.35.09.65.14.91.14.35,0,.63-.06.84-.18s.38-.28.52-.49c.1-.16.26-.55.48-1.18.03-.09.08-.22.14-.39l-3.54-9.35h1.71l1.94,5.41c.25.69.48,1.41.68,2.16.18-.73.4-1.44.65-2.13l2-5.44h1.58l-3.55,9.49c-.38,1.03-.68,1.73-.89,2.12-.28.52-.6.9-.97,1.15-.36.24-.8.36-1.3.36-.3,0-.64-.06-1.02-.19Z"/>
    <path class="cls-7" d="m466.31,423.58v-12.91h1.44v1.21c.34-.47.72-.83,1.15-1.07.43-.24.95-.36,1.56-.36.8,0,1.5.21,2.11.62s1.07.99,1.38,1.74c.31.75.47,1.57.47,2.46,0,.96-.17,1.82-.51,2.58-.34.77-.84,1.35-1.49,1.76-.65.41-1.34.61-2.06.61-.53,0-1-.11-1.42-.33s-.76-.5-1.03-.84v4.54h-1.58Zm1.43-8.19c0,1.2.24,2.09.73,2.66s1.08.86,1.77.86,1.3-.3,1.81-.89c.5-.59.75-1.52.75-2.76s-.25-2.08-.73-2.67c-.49-.59-1.07-.89-1.75-.89s-1.27.32-1.79.94c-.52.63-.78,1.55-.78,2.75Z"/>
    <path class="cls-7" d="m476.33,408.93v-1.82h1.58v1.82h-1.58Zm0,11.07v-9.33h1.58v9.33h-1.58Z"/>
    <path class="cls-7" d="m486.41,416.58l1.56.2c-.17,1.07-.61,1.91-1.31,2.52-.7.61-1.56.91-2.58.91-1.28,0-2.3-.42-3.08-1.25-.78-.84-1.16-2.03-1.16-3.59,0-1.01.17-1.89.5-2.65s.84-1.32,1.52-1.7c.68-.38,1.43-.57,2.23-.57,1.01,0,1.84.26,2.49.77s1.06,1.24,1.24,2.18l-1.54.24c-.15-.63-.41-1.1-.78-1.42s-.82-.47-1.35-.47c-.8,0-1.44.29-1.94.86-.5.57-.75,1.47-.75,2.71s.24,2.17.72,2.73,1.11.85,1.88.85c.62,0,1.14-.19,1.56-.57s.68-.97.79-1.76Z"/>
    <path class="cls-7" d="m495.41,418.85c-.59.5-1.15.85-1.69,1.05-.54.21-1.12.31-1.75.31-1.03,0-1.81-.25-2.36-.75-.55-.5-.83-1.14-.83-1.92,0-.46.1-.88.31-1.25.21-.38.48-.68.82-.91s.72-.4,1.14-.52c.31-.08.78-.16,1.41-.24,1.28-.15,2.22-.33,2.82-.54,0-.22,0-.35,0-.41,0-.64-.15-1.1-.45-1.36-.4-.36-1-.54-1.8-.54-.74,0-1.29.13-1.65.39s-.62.72-.79,1.38l-1.55-.21c.14-.66.37-1.2.69-1.6.32-.41.79-.72,1.4-.94.61-.22,1.32-.33,2.12-.33s1.44.09,1.94.28.86.42,1.1.71c.23.29.4.64.49,1.08.05.27.08.76.08,1.46v2.11c0,1.47.03,2.4.1,2.79.07.39.2.76.4,1.12h-1.65c-.16-.33-.27-.71-.32-1.15Zm-.13-3.53c-.57.23-1.44.43-2.58.6-.65.09-1.11.2-1.38.32s-.48.29-.62.51-.22.48-.22.75c0,.42.16.77.48,1.05s.79.42,1.4.42,1.15-.13,1.63-.4.82-.63,1.05-1.09c.17-.36.25-.88.25-1.58v-.58Z"/>
    <path class="cls-7" d="m499.3,420v-12.88h1.58v12.88h-1.58Z"/>
    <path class="cls-7" d="m503.3,420v-12.88h1.58v12.88h-1.58Z"/>
    <path class="cls-7" d="m507.26,423.59l-.18-1.49c.35.09.65.14.91.14.35,0,.63-.06.84-.18s.38-.28.52-.49c.1-.16.26-.55.48-1.18.03-.09.08-.22.14-.39l-3.54-9.35h1.71l1.94,5.41c.25.69.48,1.41.68,2.16.18-.73.4-1.44.65-2.13l2-5.44h1.58l-3.55,9.49c-.38,1.03-.68,1.73-.89,2.12-.28.52-.6.9-.97,1.15-.36.24-.8.36-1.3.36-.3,0-.64-.06-1.02-.19Z"/>
    <path class="cls-7" d="m526.85,420h-1.58v-10.08c-.38.36-.88.73-1.5,1.09s-1.17.64-1.67.82v-1.53c.88-.42,1.66-.92,2.32-1.51s1.13-1.17,1.41-1.72h1.02v12.94Z"/>
    <path class="cls-7" d="m530.9,416.62l1.66-.14c.12.81.41,1.42.86,1.82.45.41.99.61,1.62.61.76,0,1.41-.29,1.93-.86s.79-1.34.79-2.29-.25-1.61-.76-2.14c-.51-.52-1.17-.78-1.99-.78-.51,0-.97.12-1.38.35-.41.23-.73.53-.97.9l-1.49-.19,1.25-6.62h6.41v1.51h-5.14l-.69,3.46c.77-.54,1.58-.81,2.43-.81,1.12,0,2.07.39,2.85,1.17s1.16,1.78,1.16,3.01-.34,2.17-1.02,3.02c-.83,1.04-1.95,1.56-3.38,1.56-1.17,0-2.13-.33-2.87-.98-.74-.66-1.17-1.53-1.27-2.61Z"/>
    <path class="cls-7" d="m552.74,416.99l1.63.2c-.26.96-.74,1.7-1.43,2.22s-1.59.79-2.67.79c-1.37,0-2.45-.42-3.25-1.26-.8-.84-1.2-2.02-1.2-3.54s.4-2.79,1.21-3.66,1.86-1.3,3.15-1.3,2.27.42,3.06,1.27,1.19,2.04,1.19,3.59c0,.09,0,.23,0,.42h-6.96c.06,1.03.35,1.81.87,2.36s1.17.82,1.95.82c.58,0,1.08-.15,1.49-.46s.74-.79.98-1.46Zm-5.19-2.56h5.21c-.07-.79-.27-1.37-.6-1.77-.5-.61-1.16-.91-1.96-.91-.73,0-1.34.24-1.83.73s-.77,1.14-.82,1.95Z"/>
    <path class="cls-7" d="m556.36,420v-9.33h1.42v1.31c.29-.46.68-.82,1.17-1.1s1.04-.42,1.66-.42c.69,0,1.26.14,1.7.43.44.29.75.69.94,1.2.74-1.09,1.7-1.63,2.88-1.63.93,0,1.64.26,2.14.77s.75,1.3.75,2.37v6.41h-1.57v-5.88c0-.63-.05-1.09-.15-1.37-.1-.28-.29-.5-.56-.67s-.59-.25-.95-.25c-.66,0-1.2.22-1.63.65-.43.44-.65,1.14-.65,2.1v5.42h-1.58v-6.06c0-.7-.13-1.23-.39-1.58s-.68-.53-1.27-.53c-.45,0-.86.12-1.23.35-.38.23-.65.58-.82,1.03s-.25,1.1-.25,1.95v4.84h-1.58Z"/>
    <path class="cls-7" d="m571.36,423.58v-12.91h1.44v1.21c.34-.47.72-.83,1.15-1.07.43-.24.95-.36,1.56-.36.8,0,1.5.21,2.11.62s1.07.99,1.38,1.74c.31.75.47,1.57.47,2.46,0,.96-.17,1.82-.51,2.58-.34.77-.84,1.35-1.49,1.76-.65.41-1.34.61-2.06.61-.53,0-1-.11-1.42-.33s-.76-.5-1.03-.84v4.54h-1.58Zm1.43-8.19c0,1.2.24,2.09.73,2.66s1.08.86,1.77.86,1.3-.3,1.81-.89c.5-.59.75-1.52.75-2.76s-.25-2.08-.73-2.67c-.49-.59-1.07-.89-1.75-.89s-1.27.32-1.79.94c-.52.63-.78,1.55-.78,2.75Z"/>
    <path class="cls-7" d="m581.33,420v-12.88h1.58v12.88h-1.58Z"/>
    <path class="cls-7" d="m584.78,415.33c0-1.73.48-3.01,1.44-3.84.8-.69,1.78-1.04,2.94-1.04,1.28,0,2.33.42,3.15,1.26s1.22,2,1.22,3.48c0,1.2-.18,2.15-.54,2.83-.36.69-.89,1.22-1.57,1.6s-1.44.57-2.25.57c-1.31,0-2.36-.42-3.17-1.26-.81-.84-1.21-2.04-1.21-3.62Zm1.63,0c0,1.2.26,2.09.78,2.68.52.6,1.18.89,1.97.89s1.44-.3,1.96-.9.78-1.51.78-2.73c0-1.15-.26-2.03-.79-2.62-.52-.59-1.18-.89-1.96-.89s-1.45.3-1.97.89-.78,1.49-.78,2.68Z"/>
    <path class="cls-7" d="m595.31,423.59l-.18-1.49c.35.09.65.14.91.14.35,0,.63-.06.84-.18s.38-.28.52-.49c.1-.16.26-.55.48-1.18.03-.09.08-.22.14-.39l-3.54-9.35h1.71l1.94,5.41c.25.69.48,1.41.68,2.16.18-.73.4-1.44.65-2.13l2-5.44h1.58l-3.55,9.49c-.38,1.03-.68,1.73-.89,2.12-.28.52-.6.9-.97,1.15-.36.24-.8.36-1.3.36-.3,0-.64-.06-1.02-.19Z"/>
    <path class="cls-7" d="m610.77,416.99l1.63.2c-.26.96-.74,1.7-1.43,2.22s-1.59.79-2.67.79c-1.37,0-2.45-.42-3.25-1.26-.8-.84-1.2-2.02-1.2-3.54s.4-2.79,1.21-3.66,1.86-1.3,3.15-1.3,2.27.42,3.06,1.27,1.19,2.04,1.19,3.59c0,.09,0,.23,0,.42h-6.96c.06,1.03.35,1.81.87,2.36s1.17.82,1.95.82c.58,0,1.08-.15,1.49-.46s.74-.79.98-1.46Zm-5.19-2.56h5.21c-.07-.79-.27-1.37-.6-1.77-.5-.61-1.16-.91-1.96-.91-.73,0-1.34.24-1.83.73s-.77,1.14-.82,1.95Z"/>
    <path class="cls-7" d="m620.78,416.99l1.63.2c-.26.96-.74,1.7-1.43,2.22s-1.59.79-2.67.79c-1.37,0-2.45-.42-3.25-1.26-.8-.84-1.2-2.02-1.2-3.54s.4-2.79,1.21-3.66,1.86-1.3,3.15-1.3,2.27.42,3.06,1.27,1.19,2.04,1.19,3.59c0,.09,0,.23,0,.42h-6.96c.06,1.03.35,1.81.87,2.36s1.17.82,1.95.82c.58,0,1.08-.15,1.49-.46s.74-.79.98-1.46Zm-5.19-2.56h5.21c-.07-.79-.27-1.37-.6-1.77-.5-.61-1.16-.91-1.96-.91-.73,0-1.34.24-1.83.73s-.77,1.14-.82,1.95Z"/>
    <path class="cls-7" d="m623.77,417.21l1.56-.25c.09.63.33,1.11.73,1.44s.96.5,1.68.5,1.27-.15,1.62-.44.53-.64.53-1.04c0-.36-.16-.64-.47-.84-.22-.14-.76-.32-1.62-.54-1.16-.29-1.96-.55-2.41-.76-.45-.21-.79-.51-1.02-.89-.23-.38-.35-.79-.35-1.25,0-.42.09-.8.29-1.16.19-.35.45-.65.78-.88.25-.18.58-.33,1.01-.46s.88-.19,1.37-.19c.73,0,1.38.11,1.93.32.55.21.96.5,1.23.86.26.36.45.84.54,1.45l-1.55.21c-.07-.48-.27-.86-.61-1.12-.34-.27-.81-.4-1.43-.4-.73,0-1.25.12-1.56.36s-.47.52-.47.84c0,.21.06.39.19.55.13.17.33.31.61.42.16.06.62.19,1.4.4,1.12.3,1.9.54,2.34.73.44.19.79.47,1.04.83s.38.81.38,1.35-.15,1.02-.46,1.49c-.31.46-.75.83-1.33,1.08-.58.26-1.24.38-1.97.38-1.21,0-2.14-.25-2.77-.76-.64-.5-1.04-1.25-1.22-2.24Z"/>
    <path class="cls-7" d="m637.81,415.33c0-1.73.48-3.01,1.44-3.84.8-.69,1.78-1.04,2.94-1.04,1.28,0,2.33.42,3.15,1.26s1.22,2,1.22,3.48c0,1.2-.18,2.15-.54,2.83-.36.69-.89,1.22-1.57,1.6s-1.44.57-2.25.57c-1.31,0-2.36-.42-3.17-1.26-.81-.84-1.21-2.04-1.21-3.62Zm1.63,0c0,1.2.26,2.09.78,2.68.52.6,1.18.89,1.97.89s1.44-.3,1.96-.9.78-1.51.78-2.73c0-1.15-.26-2.03-.79-2.62-.52-.59-1.18-.89-1.96-.89s-1.45.3-1.97.89-.78,1.49-.78,2.68Z"/>
    <path class="cls-7" d="m648.39,420v-9.33h1.42v1.42c.36-.66.7-1.1,1.01-1.31.31-.21.65-.32,1.01-.32.53,0,1.08.17,1.63.51l-.54,1.47c-.39-.23-.77-.34-1.16-.34-.35,0-.66.1-.93.31s-.47.5-.59.87c-.18.56-.26,1.18-.26,1.85v4.89h-1.58Z"/>
    <path class="cls-7" d="m659.37,420v-12.88h1.58v12.88h-1.58Z"/>
    <path class="cls-7" d="m669.8,416.99l1.63.2c-.26.96-.74,1.7-1.43,2.22s-1.59.79-2.67.79c-1.37,0-2.45-.42-3.25-1.26-.8-.84-1.2-2.02-1.2-3.54s.4-2.79,1.21-3.66,1.86-1.3,3.15-1.3,2.27.42,3.06,1.27,1.19,2.04,1.19,3.59c0,.09,0,.23,0,.42h-6.96c.06,1.03.35,1.81.87,2.36s1.17.82,1.95.82c.58,0,1.08-.15,1.49-.46s.74-.79.98-1.46Zm-5.19-2.56h5.21c-.07-.79-.27-1.37-.6-1.77-.5-.61-1.16-.91-1.96-.91-.73,0-1.34.24-1.83.73s-.77,1.14-.82,1.95Z"/>
    <path class="cls-7" d="m672.78,417.21l1.56-.25c.09.63.33,1.11.73,1.44s.96.5,1.68.5,1.27-.15,1.62-.44.53-.64.53-1.04c0-.36-.16-.64-.47-.84-.22-.14-.76-.32-1.62-.54-1.16-.29-1.96-.55-2.41-.76-.45-.21-.79-.51-1.02-.89-.23-.38-.35-.79-.35-1.25,0-.42.09-.8.29-1.16.19-.35.45-.65.78-.88.25-.18.58-.33,1.01-.46s.88-.19,1.37-.19c.73,0,1.38.11,1.93.32.55.21.96.5,1.23.86.26.36.45.84.54,1.45l-1.55.21c-.07-.48-.27-.86-.61-1.12-.34-.27-.81-.4-1.43-.4-.73,0-1.25.12-1.56.36s-.47.52-.47.84c0,.21.06.39.19.55.13.17.33.31.61.42.16.06.62.19,1.4.4,1.12.3,1.9.54,2.34.73.44.19.79.47,1.04.83s.38.81.38,1.35-.15,1.02-.46,1.49c-.31.46-.75.83-1.33,1.08-.58.26-1.24.38-1.97.38-1.21,0-2.14-.25-2.77-.76-.64-.5-1.04-1.25-1.22-2.24Z"/>
    <path class="cls-7" d="m681.78,417.21l1.56-.25c.09.63.33,1.11.73,1.44s.96.5,1.68.5,1.27-.15,1.62-.44.53-.64.53-1.04c0-.36-.16-.64-.47-.84-.22-.14-.76-.32-1.62-.54-1.16-.29-1.96-.55-2.41-.76-.45-.21-.79-.51-1.02-.89-.23-.38-.35-.79-.35-1.25,0-.42.09-.8.29-1.16.19-.35.45-.65.78-.88.25-.18.58-.33,1.01-.46s.88-.19,1.37-.19c.73,0,1.38.11,1.93.32.55.21.96.5,1.23.86.26.36.45.84.54,1.45l-1.55.21c-.07-.48-.27-.86-.61-1.12-.34-.27-.81-.4-1.43-.4-.73,0-1.25.12-1.56.36s-.47.52-.47.84c0,.21.06.39.19.55.13.17.33.31.61.42.16.06.62.19,1.4.4,1.12.3,1.9.54,2.34.73.44.19.79.47,1.04.83s.38.81.38,1.35-.15,1.02-.46,1.49c-.31.46-.75.83-1.33,1.08-.58.26-1.24.38-1.97.38-1.21,0-2.14-.25-2.77-.76-.64-.5-1.04-1.25-1.22-2.24Z"/>
    <path class="cls-7" d="m692.45,423.79h-1.13c1.75-2.81,2.63-5.63,2.63-8.45,0-1.1-.13-2.19-.38-3.28-.2-.88-.48-1.72-.83-2.53-.23-.53-.7-1.41-1.42-2.64h1.13c1.1,1.47,1.92,2.95,2.44,4.43.45,1.28.68,2.61.68,4.01,0,1.58-.3,3.11-.91,4.59-.61,1.48-1.34,2.77-2.21,3.87Z"/>
    <path class="cls-7" d="m64.22,439.62v4.07h-4.07v-4.07h4.07Z"/>
    <path class="cls-7" d="m77.87,441.32c0-2.14.57-3.81,1.72-5.02,1.15-1.21,2.63-1.81,4.45-1.81,1.19,0,2.26.28,3.22.85s1.68,1.36,2.18,2.38.75,2.17.75,3.46-.26,2.48-.79,3.51-1.27,1.81-2.24,2.34c-.97.53-2.01.8-3.13.8-1.21,0-2.3-.29-3.25-.88s-1.68-1.39-2.17-2.4-.74-2.09-.74-3.22Zm1.76.03c0,1.55.42,2.78,1.25,3.67.83.89,1.88,1.34,3.14,1.34s2.34-.45,3.17-1.35,1.24-2.18,1.24-3.84c0-1.05-.18-1.96-.53-2.75-.35-.78-.87-1.39-1.56-1.82-.68-.43-1.45-.65-2.3-.65-1.21,0-2.25.42-3.12,1.24-.87.83-1.31,2.21-1.31,4.15Z"/>
    <path class="cls-7" d="m93.91,447.6l-2.86-9.33h1.63l1.49,5.39.55,2c.02-.1.18-.74.48-1.92l1.49-5.47h1.63l1.4,5.41.47,1.78.54-1.8,1.6-5.4h1.54l-2.92,9.33h-1.64l-1.49-5.59-.36-1.59-1.89,7.18h-1.65Z"/>
    <path class="cls-7" d="m105.19,447.6v-9.33h1.42v1.33c.69-1.03,1.68-1.54,2.97-1.54.56,0,1.08.1,1.55.3.47.2.82.47,1.06.8s.4.72.49,1.17c.06.29.09.81.09,1.54v5.74h-1.58v-5.68c0-.64-.06-1.13-.18-1.45s-.34-.57-.65-.77c-.31-.19-.68-.29-1.1-.29-.67,0-1.26.21-1.74.64s-.73,1.24-.73,2.43v5.1h-1.58Z"/>
    <path class="cls-7" d="m121.59,444.59l1.63.2c-.26.96-.74,1.7-1.43,2.22s-1.59.79-2.67.79c-1.37,0-2.45-.42-3.25-1.26-.8-.84-1.2-2.02-1.2-3.54s.4-2.79,1.21-3.66,1.86-1.3,3.15-1.3,2.27.42,3.06,1.27,1.19,2.04,1.19,3.59c0,.09,0,.23,0,.42h-6.96c.06,1.03.35,1.81.87,2.36s1.17.82,1.95.82c.58,0,1.08-.15,1.49-.46s.74-.79.98-1.46Zm-5.19-2.56h5.21c-.07-.79-.27-1.37-.6-1.77-.5-.61-1.16-.91-1.96-.91-.73,0-1.34.24-1.83.73s-.77,1.14-.82,1.95Z"/>
    <path class="cls-7" d="m125.19,447.6v-9.33h1.42v1.42c.36-.66.7-1.1,1.01-1.31s.65-.32,1.02-.32c.53,0,1.08.17,1.63.51l-.54,1.47c-.39-.23-.77-.34-1.16-.34-.35,0-.66.1-.93.31s-.47.5-.59.87c-.18.56-.26,1.18-.26,1.85v4.89h-1.58Z"/>
    <path class="cls-7" d="m130.59,443.73v-1.59h4.86v1.59h-4.86Z"/>
    <path class="cls-7" d="m137.2,447.6v-9.33h1.42v1.31c.29-.46.68-.82,1.17-1.1s1.04-.42,1.66-.42c.69,0,1.26.14,1.7.43s.75.69.94,1.2c.74-1.09,1.7-1.63,2.88-1.63.93,0,1.64.26,2.14.77s.75,1.3.75,2.37v6.41h-1.57v-5.88c0-.63-.05-1.09-.15-1.37s-.29-.5-.56-.67-.59-.25-.95-.25c-.66,0-1.2.22-1.63.65-.43.44-.65,1.14-.65,2.1v5.42h-1.58v-6.06c0-.7-.13-1.23-.39-1.58s-.68-.53-1.27-.53c-.45,0-.86.12-1.23.35s-.65.58-.82,1.03-.25,1.1-.25,1.95v4.84h-1.58Z"/>
    <path class="cls-7" d="m154.78,447.6l-3.55-9.33h1.67l2,5.59c.22.6.42,1.23.6,1.88.14-.49.34-1.08.59-1.78l2.07-5.7h1.63l-3.53,9.33h-1.48Z"/>
    <path class="cls-7" d="m167.28,446.45c-.59.5-1.15.85-1.69,1.05s-1.12.31-1.74.31c-1.03,0-1.81-.25-2.36-.75-.55-.5-.83-1.14-.83-1.92,0-.46.1-.88.31-1.25.21-.38.48-.68.82-.91s.72-.4,1.14-.52c.31-.08.78-.16,1.41-.24,1.28-.15,2.22-.33,2.82-.54,0-.22,0-.35,0-.41,0-.64-.15-1.1-.45-1.36-.4-.36-1-.54-1.8-.54-.74,0-1.29.13-1.65.39s-.62.72-.79,1.38l-1.55-.21c.14-.66.37-1.2.69-1.6.32-.41.79-.72,1.4-.94.61-.22,1.32-.33,2.12-.33s1.44.09,1.94.28.86.42,1.1.71c.23.29.4.64.49,1.08.05.27.08.76.08,1.46v2.11c0,1.47.03,2.4.1,2.79.07.39.2.76.4,1.12h-1.65c-.16-.33-.27-.71-.32-1.15Zm-.13-3.53c-.57.23-1.44.43-2.58.6-.65.09-1.11.2-1.38.32s-.48.29-.62.51-.22.48-.22.75c0,.42.16.77.48,1.05s.79.42,1.4.42,1.15-.13,1.63-.4.82-.63,1.05-1.09c.17-.36.25-.88.25-1.58v-.58Z"/>
    <path class="cls-7" d="m171.2,447.6v-9.33h1.42v1.33c.69-1.03,1.68-1.54,2.97-1.54.56,0,1.08.1,1.55.3.47.2.82.47,1.06.8s.4.72.49,1.17c.06.29.09.81.09,1.54v5.74h-1.58v-5.68c0-.64-.06-1.13-.18-1.45s-.34-.57-.65-.77c-.31-.19-.68-.29-1.1-.29-.67,0-1.26.21-1.74.64s-.73,1.24-.73,2.43v5.1h-1.58Z"/>
    <path class="cls-7" d="m187.3,446.45c-.59.5-1.15.85-1.69,1.05s-1.12.31-1.74.31c-1.03,0-1.81-.25-2.36-.75-.55-.5-.83-1.14-.83-1.92,0-.46.1-.88.31-1.25.21-.38.48-.68.82-.91s.72-.4,1.14-.52c.31-.08.78-.16,1.41-.24,1.28-.15,2.22-.33,2.82-.54,0-.22,0-.35,0-.41,0-.64-.15-1.1-.45-1.36-.4-.36-1-.54-1.8-.54-.74,0-1.29.13-1.65.39s-.62.72-.79,1.38l-1.55-.21c.14-.66.37-1.2.69-1.6.32-.41.79-.72,1.4-.94.61-.22,1.32-.33,2.12-.33s1.44.09,1.94.28.86.42,1.1.71c.23.29.4.64.49,1.08.05.27.08.76.08,1.46v2.11c0,1.47.03,2.4.1,2.79.07.39.2.76.4,1.12h-1.65c-.16-.33-.27-.71-.32-1.15Zm-.13-3.53c-.57.23-1.44.43-2.58.6-.65.09-1.11.2-1.38.32s-.48.29-.62.51-.22.48-.22.75c0,.42.16.77.48,1.05s.79.42,1.4.42,1.15-.13,1.63-.4.82-.63,1.05-1.09c.17-.36.25-.88.25-1.58v-.58Z"/>
    <path class="cls-7" d="m190.93,448.37l1.54.23c.06.47.24.82.54,1.04.39.29.93.44,1.61.44.73,0,1.3-.15,1.7-.44s.67-.7.81-1.23c.08-.32.12-1,.11-2.03-.69.81-1.55,1.22-2.58,1.22-1.28,0-2.28-.46-2.98-1.39s-1.05-2.04-1.05-3.33c0-.89.16-1.71.48-2.47.32-.75.79-1.33,1.4-1.74s1.33-.62,2.16-.62c1.1,0,2.01.45,2.72,1.34v-1.12h1.46v8.07c0,1.45-.15,2.48-.44,3.09-.3.61-.76,1.08-1.41,1.44s-1.43.53-2.37.53c-1.11,0-2.01-.25-2.7-.75-.69-.5-1.02-1.26-.99-2.26Zm1.31-5.61c0,1.22.24,2.12.73,2.68s1.1.84,1.83.84,1.34-.28,1.83-.84.74-1.44.74-2.63-.25-2-.76-2.58-1.12-.87-1.83-.87-1.3.29-1.79.86c-.49.57-.74,1.42-.74,2.54Z"/>
    <path class="cls-7" d="m207.62,444.59l1.63.2c-.26.96-.74,1.7-1.43,2.22s-1.59.79-2.67.79c-1.37,0-2.45-.42-3.25-1.26-.8-.84-1.2-2.02-1.2-3.54s.4-2.79,1.21-3.66,1.86-1.3,3.15-1.3,2.27.42,3.06,1.27,1.19,2.04,1.19,3.59c0,.09,0,.23,0,.42h-6.96c.06,1.03.35,1.81.87,2.36s1.17.82,1.95.82c.58,0,1.08-.15,1.49-.46s.74-.79.98-1.46Zm-5.19-2.56h5.21c-.07-.79-.27-1.37-.6-1.77-.5-.61-1.16-.91-1.96-.91-.73,0-1.34.24-1.83.73s-.77,1.14-.82,1.95Z"/>
    <path class="cls-7" d="m211.23,447.6v-9.33h1.42v1.42c.36-.66.7-1.1,1.01-1.31s.65-.32,1.02-.32c.53,0,1.08.17,1.63.51l-.54,1.47c-.39-.23-.77-.34-1.16-.34-.35,0-.66.1-.93.31s-.47.5-.59.87c-.18.56-.26,1.18-.26,1.85v4.89h-1.58Z"/>
    <path class="cls-7" d="m225.26,451.39c-.87-1.1-1.61-2.39-2.21-3.87s-.91-3.01-.91-4.59c0-1.39.23-2.73.68-4.01.53-1.48,1.34-2.96,2.44-4.43h1.13c-.71,1.22-1.18,2.09-1.41,2.61-.36.81-.64,1.65-.84,2.53-.25,1.1-.38,2.2-.38,3.3,0,2.82.88,5.63,2.63,8.45h-1.13Z"/>
    <path class="cls-7" d="m227.64,442.93c0-1.73.48-3.01,1.44-3.84.8-.69,1.78-1.04,2.94-1.04,1.28,0,2.33.42,3.15,1.26s1.22,2,1.22,3.48c0,1.2-.18,2.15-.54,2.83-.36.69-.88,1.22-1.57,1.6s-1.44.57-2.25.57c-1.31,0-2.36-.42-3.17-1.26s-1.21-2.04-1.21-3.62Zm1.63,0c0,1.2.26,2.09.78,2.68.52.6,1.18.89,1.97.89s1.44-.3,1.96-.9.78-1.51.78-2.73c0-1.15-.26-2.03-.79-2.62-.52-.59-1.18-.89-1.96-.89s-1.45.3-1.97.89-.78,1.49-.78,2.68Z"/>
    <path class="cls-7" d="m238.23,447.6v-9.33h1.42v1.42c.36-.66.7-1.1,1.01-1.31s.65-.32,1.02-.32c.53,0,1.08.17,1.63.51l-.54,1.47c-.39-.23-.77-.34-1.16-.34-.35,0-.66.1-.93.31s-.47.5-.59.87c-.18.56-.26,1.18-.26,1.85v4.89h-1.58Z"/>
    <path class="cls-7" d="m252.69,446.18l.23,1.4c-.45.09-.84.14-1.2.14-.57,0-1.02-.09-1.34-.27s-.54-.42-.67-.72-.19-.92-.19-1.87v-5.37h-1.16v-1.23h1.16v-2.31l1.57-.95v3.26h1.59v1.23h-1.59v5.46c0,.45.03.74.08.87s.15.23.27.31.31.11.54.11c.18,0,.41-.02.69-.06Z"/>
    <path class="cls-7" d="m253.65,442.93c0-1.73.48-3.01,1.44-3.84.8-.69,1.78-1.04,2.94-1.04,1.28,0,2.33.42,3.15,1.26s1.22,2,1.22,3.48c0,1.2-.18,2.15-.54,2.83-.36.69-.88,1.22-1.57,1.6s-1.44.57-2.25.57c-1.31,0-2.36-.42-3.17-1.26s-1.21-2.04-1.21-3.62Zm1.63,0c0,1.2.26,2.09.78,2.68.52.6,1.18.89,1.97.89s1.44-.3,1.96-.9.78-1.51.78-2.73c0-1.15-.26-2.03-.79-2.62-.52-.59-1.18-.89-1.96-.89s-1.45.3-1.97.89-.78,1.49-.78,2.68Z"/>
    <path class="cls-7" d="m264.25,451.18v-12.91h1.44v1.21c.34-.47.72-.83,1.15-1.07.43-.24.95-.36,1.56-.36.8,0,1.5.21,2.11.62s1.07.99,1.38,1.74c.31.75.47,1.57.47,2.46,0,.96-.17,1.82-.51,2.58-.34.77-.84,1.35-1.49,1.76-.65.41-1.34.61-2.06.61-.53,0-1-.11-1.42-.33s-.76-.5-1.03-.84v4.54h-1.58Zm1.43-8.19c0,1.2.24,2.09.73,2.66s1.08.86,1.77.86,1.31-.3,1.81-.89c.5-.59.75-1.52.75-2.76s-.24-2.08-.73-2.67-1.07-.89-1.75-.89-1.27.32-1.79.94c-.52.63-.78,1.55-.78,2.75Z"/>
    <path class="cls-7" d="m285.65,444.59l1.63.2c-.26.96-.74,1.7-1.43,2.22s-1.59.79-2.67.79c-1.37,0-2.45-.42-3.25-1.26-.8-.84-1.2-2.02-1.2-3.54s.4-2.79,1.21-3.66,1.86-1.3,3.15-1.3,2.27.42,3.06,1.27,1.19,2.04,1.19,3.59c0,.09,0,.23,0,.42h-6.96c.06,1.03.35,1.81.87,2.36s1.17.82,1.95.82c.58,0,1.08-.15,1.49-.46s.74-.79.98-1.46Zm-5.19-2.56h5.21c-.07-.79-.27-1.37-.6-1.77-.5-.61-1.16-.91-1.96-.91-.73,0-1.34.24-1.83.73s-.77,1.14-.82,1.95Z"/>
    <path class="cls-7" d="m288.22,447.6l3.41-4.85-3.16-4.48h1.98l1.43,2.19c.27.42.49.76.65,1.05.26-.39.5-.73.71-1.03l1.57-2.21h1.89l-3.23,4.39,3.47,4.94h-1.94l-1.92-2.9-.51-.78-2.45,3.68h-1.92Z"/>
    <path class="cls-7" d="m304.66,444.59l1.63.2c-.26.96-.74,1.7-1.43,2.22s-1.59.79-2.67.79c-1.37,0-2.45-.42-3.25-1.26-.8-.84-1.2-2.02-1.2-3.54s.4-2.79,1.21-3.66,1.86-1.3,3.15-1.3,2.27.42,3.06,1.27,1.19,2.04,1.19,3.59c0,.09,0,.23,0,.42h-6.96c.06,1.03.35,1.81.87,2.36s1.17.82,1.95.82c.58,0,1.08-.15,1.49-.46s.74-.79.98-1.46Zm-5.19-2.56h5.21c-.07-.79-.27-1.37-.6-1.77-.5-.61-1.16-.91-1.96-.91-.73,0-1.34.24-1.83.73s-.77,1.14-.82,1.95Z"/>
    <path class="cls-7" d="m314.38,444.18l1.56.2c-.17,1.07-.6,1.91-1.31,2.52-.7.61-1.56.91-2.58.91-1.28,0-2.3-.42-3.08-1.25-.78-.84-1.16-2.03-1.16-3.59,0-1.01.17-1.89.5-2.65s.84-1.32,1.52-1.7c.68-.38,1.43-.57,2.23-.57,1.01,0,1.84.26,2.49.77s1.06,1.24,1.24,2.18l-1.54.24c-.15-.63-.41-1.1-.78-1.42s-.82-.47-1.35-.47c-.8,0-1.44.29-1.94.86-.5.57-.75,1.47-.75,2.71s.24,2.17.72,2.73,1.11.85,1.88.85c.62,0,1.14-.19,1.56-.57s.68-.97.79-1.76Z"/>
    <path class="cls-7" d="m323.4,447.6v-1.37c-.73,1.05-1.71,1.58-2.96,1.58-.55,0-1.06-.11-1.54-.32s-.83-.48-1.06-.79-.39-.71-.49-1.17c-.06-.31-.1-.8-.1-1.48v-5.78h1.58v5.18c0,.83.03,1.38.1,1.67.1.42.31.74.63.98.32.24.72.36,1.2.36s.92-.12,1.34-.36.71-.57.88-.99c.17-.42.26-1.03.26-1.82v-5h1.58v9.33h-1.42Z"/>
    <path class="cls-7" d="m330.75,446.18l.23,1.4c-.45.09-.84.14-1.2.14-.57,0-1.02-.09-1.34-.27s-.54-.42-.67-.72-.19-.92-.19-1.87v-5.37h-1.16v-1.23h1.16v-2.31l1.57-.95v3.26h1.59v1.23h-1.59v5.46c0,.45.03.74.08.87s.15.23.27.31.31.11.54.11c.18,0,.41-.02.69-.06Z"/>
    <path class="cls-7" d="m332.3,436.53v-1.82h1.58v1.82h-1.58Zm0,11.07v-9.33h1.58v9.33h-1.58Z"/>
    <path class="cls-7" d="m338.89,447.6l-3.55-9.33h1.67l2,5.59c.22.6.42,1.23.6,1.88.14-.49.34-1.08.59-1.78l2.07-5.7h1.63l-3.53,9.33h-1.48Z"/>
    <path class="cls-7" d="m351.68,444.59l1.63.2c-.26.96-.74,1.7-1.43,2.22s-1.59.79-2.67.79c-1.37,0-2.45-.42-3.25-1.26-.8-.84-1.2-2.02-1.2-3.54s.4-2.79,1.21-3.66,1.86-1.3,3.15-1.3,2.27.42,3.06,1.27,1.19,2.04,1.19,3.59c0,.09,0,.23,0,.42h-6.96c.06,1.03.35,1.81.87,2.36s1.17.82,1.95.82c.58,0,1.08-.15,1.49-.46s.74-.79.98-1.46Zm-5.19-2.56h5.21c-.07-.79-.27-1.37-.6-1.77-.5-.61-1.16-.91-1.96-.91-.73,0-1.34.24-1.83.73s-.77,1.14-.82,1.95Z"/>
    <path class="cls-7" d="m356.34,451.39h-1.13c1.75-2.81,2.63-5.63,2.63-8.45,0-1.1-.13-2.19-.38-3.28-.2-.88-.48-1.72-.83-2.53-.23-.53-.7-1.41-1.42-2.64h1.13c1.1,1.47,1.92,2.95,2.44,4.43.45,1.28.68,2.61.68,4.01,0,1.58-.3,3.11-.91,4.59s-1.34,2.77-2.21,3.87Z"/>
    <path class="cls-7" d="m366.3,447.6v-9.33h1.42v1.31c.29-.46.68-.82,1.17-1.1s1.04-.42,1.66-.42c.69,0,1.26.14,1.7.43s.75.69.94,1.2c.74-1.09,1.7-1.63,2.88-1.63.93,0,1.64.26,2.14.77s.75,1.3.75,2.37v6.41h-1.57v-5.88c0-.63-.05-1.09-.15-1.37s-.29-.5-.56-.67-.59-.25-.95-.25c-.66,0-1.2.22-1.63.65-.43.44-.65,1.14-.65,2.1v5.42h-1.58v-6.06c0-.7-.13-1.23-.39-1.58s-.68-.53-1.27-.53c-.45,0-.86.12-1.23.35s-.65.58-.82,1.03-.25,1.1-.25,1.95v4.84h-1.58Z"/>
    <path class="cls-7" d="m387.39,446.45c-.59.5-1.15.85-1.69,1.05s-1.12.31-1.74.31c-1.03,0-1.81-.25-2.36-.75-.55-.5-.83-1.14-.83-1.92,0-.46.1-.88.31-1.25.21-.38.48-.68.82-.91s.72-.4,1.14-.52c.31-.08.78-.16,1.41-.24,1.28-.15,2.22-.33,2.82-.54,0-.22,0-.35,0-.41,0-.64-.15-1.1-.45-1.36-.4-.36-1-.54-1.8-.54-.74,0-1.29.13-1.65.39s-.62.72-.79,1.38l-1.55-.21c.14-.66.37-1.2.69-1.6.32-.41.79-.72,1.4-.94.61-.22,1.32-.33,2.12-.33s1.44.09,1.94.28.86.42,1.1.71c.23.29.4.64.49,1.08.05.27.08.76.08,1.46v2.11c0,1.47.03,2.4.1,2.79.07.39.2.76.4,1.12h-1.65c-.16-.33-.27-.71-.32-1.15Zm-.13-3.53c-.57.23-1.44.43-2.58.6-.65.09-1.11.2-1.38.32s-.48.29-.62.51-.22.48-.22.75c0,.42.16.77.48,1.05s.79.42,1.4.42,1.15-.13,1.63-.4.82-.63,1.05-1.09c.17-.36.25-.88.25-1.58v-.58Z"/>
    <path class="cls-7" d="m391.31,447.6v-12.88h1.58v7.35l3.74-3.8h2.05l-3.57,3.46,3.93,5.87h-1.95l-3.08-4.77-1.12,1.07v3.7h-1.58Z"/>
    <path class="cls-7" d="m406.7,444.59l1.63.2c-.26.96-.74,1.7-1.43,2.22s-1.59.79-2.67.79c-1.37,0-2.45-.42-3.25-1.26-.8-.84-1.2-2.02-1.2-3.54s.4-2.79,1.21-3.66,1.86-1.3,3.15-1.3,2.27.42,3.06,1.27,1.19,2.04,1.19,3.59c0,.09,0,.23,0,.42h-6.96c.06,1.03.35,1.81.87,2.36s1.17.82,1.95.82c.58,0,1.08-.15,1.49-.46s.74-.79.98-1.46Zm-5.19-2.56h5.21c-.07-.79-.27-1.37-.6-1.77-.5-.61-1.16-.91-1.96-.91-.73,0-1.34.24-1.83.73s-.77,1.14-.82,1.95Z"/>
    <path class="cls-7" d="m409.68,444.81l1.56-.25c.09.63.33,1.11.73,1.44s.96.5,1.68.5,1.27-.15,1.62-.44.53-.64.53-1.04c0-.36-.16-.64-.47-.84-.22-.14-.76-.32-1.62-.54-1.16-.29-1.96-.55-2.41-.76-.45-.21-.79-.51-1.02-.89-.23-.38-.35-.79-.35-1.25,0-.42.09-.8.29-1.16.19-.35.45-.65.78-.88.25-.18.58-.33,1.01-.46s.88-.19,1.37-.19c.73,0,1.38.11,1.93.32.55.21.96.5,1.23.86.26.36.45.84.54,1.45l-1.55.21c-.07-.48-.27-.86-.61-1.12-.34-.27-.81-.4-1.43-.4-.73,0-1.25.12-1.56.36s-.47.52-.47.84c0,.21.06.39.19.55.13.17.33.31.61.42.16.06.62.19,1.4.4,1.12.3,1.9.54,2.34.73.44.19.79.47,1.04.83s.38.81.38,1.35-.15,1.02-.46,1.49c-.31.46-.75.83-1.33,1.08-.58.26-1.24.38-1.97.38-1.21,0-2.14-.25-2.77-.76-.64-.5-1.04-1.25-1.22-2.24Z"/>
    <path class="cls-7" d="m424.32,447.6v-9.33h1.42v1.31c.29-.46.68-.82,1.17-1.1s1.04-.42,1.66-.42c.69,0,1.26.14,1.7.43.44.29.75.69.94,1.2.74-1.09,1.7-1.63,2.88-1.63.93,0,1.64.26,2.14.77s.75,1.3.75,2.37v6.41h-1.57v-5.88c0-.63-.05-1.09-.15-1.37-.1-.28-.29-.5-.56-.67s-.59-.25-.95-.25c-.66,0-1.2.22-1.63.65-.43.44-.65,1.14-.65,2.1v5.42h-1.58v-6.06c0-.7-.13-1.23-.39-1.58s-.68-.53-1.27-.53c-.45,0-.86.12-1.23.35-.38.23-.65.58-.82,1.03s-.25,1.1-.25,1.95v4.84h-1.58Z"/>
    <path class="cls-7" d="m438.72,442.93c0-1.73.48-3.01,1.44-3.84.8-.69,1.78-1.04,2.94-1.04,1.28,0,2.33.42,3.15,1.26s1.22,2,1.22,3.48c0,1.2-.18,2.15-.54,2.83-.36.69-.89,1.22-1.57,1.6s-1.44.57-2.25.57c-1.31,0-2.36-.42-3.17-1.26-.81-.84-1.21-2.04-1.21-3.62Zm1.63,0c0,1.2.26,2.09.78,2.68.52.6,1.18.89,1.97.89s1.44-.3,1.96-.9.78-1.51.78-2.73c0-1.15-.26-2.03-.79-2.62-.52-.59-1.18-.89-1.96-.89s-1.45.3-1.97.89-.78,1.49-.78,2.68Z"/>
    <path class="cls-7" d="m448.69,444.81l1.56-.25c.09.63.33,1.11.73,1.44s.96.5,1.68.5,1.27-.15,1.62-.44.53-.64.53-1.04c0-.36-.16-.64-.47-.84-.22-.14-.76-.32-1.62-.54-1.16-.29-1.96-.55-2.41-.76-.45-.21-.79-.51-1.02-.89-.23-.38-.35-.79-.35-1.25,0-.42.09-.8.29-1.16.19-.35.45-.65.78-.88.25-.18.58-.33,1.01-.46s.88-.19,1.37-.19c.73,0,1.38.11,1.93.32.55.21.96.5,1.23.86.26.36.45.84.54,1.45l-1.55.21c-.07-.48-.27-.86-.61-1.12-.34-.27-.81-.4-1.43-.4-.73,0-1.25.12-1.56.36s-.47.52-.47.84c0,.21.06.39.19.55.13.17.33.31.61.42.16.06.62.19,1.4.4,1.12.3,1.9.54,2.34.73.44.19.79.47,1.04.83s.38.81.38,1.35-.15,1.02-.46,1.49c-.31.46-.75.83-1.33,1.08-.58.26-1.24.38-1.97.38-1.21,0-2.14-.25-2.77-.76-.64-.5-1.04-1.25-1.22-2.24Z"/>
    <path class="cls-7" d="m461.78,446.18l.23,1.4c-.45.09-.84.14-1.2.14-.57,0-1.02-.09-1.34-.27s-.54-.42-.67-.72-.19-.92-.19-1.87v-5.37h-1.16v-1.23h1.16v-2.31l1.57-.95v3.26h1.59v1.23h-1.59v5.46c0,.45.03.74.08.87s.15.23.27.31c.12.08.31.11.54.11.18,0,.41-.02.69-.06Z"/>
    <path class="cls-7" d="m467.74,442.93c0-1.73.48-3.01,1.44-3.84.8-.69,1.78-1.04,2.94-1.04,1.28,0,2.33.42,3.15,1.26s1.22,2,1.22,3.48c0,1.2-.18,2.15-.54,2.83-.36.69-.89,1.22-1.57,1.6s-1.44.57-2.25.57c-1.31,0-2.36-.42-3.17-1.26-.81-.84-1.21-2.04-1.21-3.62Zm1.63,0c0,1.2.26,2.09.78,2.68.52.6,1.18.89,1.97.89s1.44-.3,1.96-.9.78-1.51.78-2.73c0-1.15-.26-2.03-.79-2.62-.52-.59-1.18-.89-1.96-.89s-1.45.3-1.97.89-.78,1.49-.78,2.68Z"/>
    <path class="cls-7" d="m478.71,447.6v-8.1h-1.4v-1.23h1.4v-.99c0-.63.06-1.09.17-1.4.15-.41.42-.74.8-1,.38-.25.92-.38,1.61-.38.45,0,.94.05,1.48.16l-.24,1.38c-.33-.06-.64-.09-.93-.09-.48,0-.82.1-1.02.31s-.3.59-.3,1.15v.86h1.82v1.23h-1.82v8.1h-1.57Z"/>
    <path class="cls-7" d="m491.79,446.18l.23,1.4c-.45.09-.84.14-1.2.14-.57,0-1.02-.09-1.34-.27s-.54-.42-.67-.72-.19-.92-.19-1.87v-5.37h-1.16v-1.23h1.16v-2.31l1.57-.95v3.26h1.59v1.23h-1.59v5.46c0,.45.03.74.08.87s.15.23.27.31c.12.08.31.11.54.11.18,0,.41-.02.69-.06Z"/>
    <path class="cls-7" d="m493.34,447.6v-12.88h1.58v4.62c.74-.86,1.67-1.28,2.79-1.28.69,0,1.29.14,1.8.41.51.27.88.65,1.09,1.13.22.48.33,1.18.33,2.09v5.92h-1.58v-5.92c0-.79-.17-1.37-.51-1.73-.34-.36-.83-.54-1.46-.54-.47,0-.91.12-1.32.36-.41.24-.71.57-.88.99s-.26.99-.26,1.72v5.11h-1.58Z"/>
    <path class="cls-7" d="m509.74,444.59l1.63.2c-.26.96-.74,1.7-1.43,2.22s-1.59.79-2.67.79c-1.37,0-2.45-.42-3.25-1.26-.8-.84-1.2-2.02-1.2-3.54s.4-2.79,1.21-3.66,1.86-1.3,3.15-1.3,2.27.42,3.06,1.27,1.19,2.04,1.19,3.59c0,.09,0,.23,0,.42h-6.96c.06,1.03.35,1.81.87,2.36s1.17.82,1.95.82c.58,0,1.08-.15,1.49-.46s.74-.79.98-1.46Zm-5.19-2.56h5.21c-.07-.79-.27-1.37-.6-1.77-.5-.61-1.16-.91-1.96-.91-.73,0-1.34.24-1.83.73s-.77,1.14-.82,1.95Z"/>
    <path class="cls-7" d="m524.42,447.6v-1.18c-.59.93-1.46,1.39-2.61,1.39-.74,0-1.43-.21-2.05-.62-.62-.41-1.11-.98-1.45-1.72-.34-.73-.51-1.58-.51-2.54s.16-1.78.47-2.54.78-1.34,1.4-1.75,1.32-.61,2.08-.61c.56,0,1.06.12,1.5.36.44.24.8.55,1.07.93v-4.62h1.57v12.88h-1.47Zm-5-4.66c0,1.2.25,2.09.76,2.68s1.1.89,1.78.89,1.28-.28,1.76-.85c.48-.57.73-1.43.73-2.59,0-1.28-.25-2.21-.74-2.81s-1.1-.9-1.82-.9-1.29.29-1.76.86c-.47.57-.71,1.48-.71,2.72Z"/>
    <path class="cls-7" d="m534.76,444.59l1.63.2c-.26.96-.74,1.7-1.43,2.22s-1.59.79-2.67.79c-1.37,0-2.45-.42-3.25-1.26-.8-.84-1.2-2.02-1.2-3.54s.4-2.79,1.21-3.66,1.86-1.3,3.15-1.3,2.27.42,3.06,1.27,1.19,2.04,1.19,3.59c0,.09,0,.23,0,.42h-6.96c.06,1.03.35,1.81.87,2.36s1.17.82,1.95.82c.58,0,1.08-.15,1.49-.46s.74-.79.98-1.46Zm-5.19-2.56h5.21c-.07-.79-.27-1.37-.6-1.77-.5-.61-1.16-.91-1.96-.91-.73,0-1.34.24-1.83.73s-.77,1.14-.82,1.95Z"/>
    <path class="cls-7" d="m544.47,444.18l1.56.2c-.17,1.07-.61,1.91-1.31,2.52-.7.61-1.56.91-2.58.91-1.28,0-2.3-.42-3.08-1.25-.78-.84-1.16-2.03-1.16-3.59,0-1.01.17-1.89.5-2.65s.84-1.32,1.52-1.7c.68-.38,1.43-.57,2.23-.57,1.01,0,1.84.26,2.49.77s1.06,1.24,1.24,2.18l-1.54.24c-.15-.63-.41-1.1-.78-1.42s-.82-.47-1.35-.47c-.8,0-1.44.29-1.94.86-.5.57-.75,1.47-.75,2.71s.24,2.17.72,2.73,1.11.85,1.88.85c.62,0,1.14-.19,1.56-.57s.68-.97.79-1.76Z"/>
    <path class="cls-7" d="m547.39,436.53v-1.82h1.58v1.82h-1.58Zm0,11.07v-9.33h1.58v9.33h-1.58Z"/>
    <path class="cls-7" d="m550.75,444.81l1.56-.25c.09.63.33,1.11.73,1.44s.96.5,1.68.5,1.27-.15,1.62-.44.53-.64.53-1.04c0-.36-.16-.64-.47-.84-.22-.14-.76-.32-1.62-.54-1.16-.29-1.96-.55-2.41-.76-.45-.21-.79-.51-1.02-.89-.23-.38-.35-.79-.35-1.25,0-.42.09-.8.29-1.16.19-.35.45-.65.78-.88.25-.18.58-.33,1.01-.46s.88-.19,1.37-.19c.73,0,1.38.11,1.93.32.55.21.96.5,1.23.86.26.36.45.84.54,1.45l-1.55.21c-.07-.48-.27-.86-.61-1.12-.34-.27-.81-.4-1.43-.4-.73,0-1.25.12-1.56.36s-.47.52-.47.84c0,.21.06.39.19.55.13.17.33.31.61.42.16.06.62.19,1.4.4,1.12.3,1.9.54,2.34.73.44.19.79.47,1.04.83s.38.81.38,1.35-.15,1.02-.46,1.49c-.31.46-.75.83-1.33,1.08-.58.26-1.24.38-1.97.38-1.21,0-2.14-.25-2.77-.76-.64-.5-1.04-1.25-1.22-2.24Z"/>
    <path class="cls-7" d="m560.39,436.53v-1.82h1.58v1.82h-1.58Zm0,11.07v-9.33h1.58v9.33h-1.58Z"/>
    <path class="cls-7" d="m563.79,442.93c0-1.73.48-3.01,1.44-3.84.8-.69,1.78-1.04,2.94-1.04,1.28,0,2.33.42,3.15,1.26s1.22,2,1.22,3.48c0,1.2-.18,2.15-.54,2.83-.36.69-.89,1.22-1.57,1.6s-1.44.57-2.25.57c-1.31,0-2.36-.42-3.17-1.26-.81-.84-1.21-2.04-1.21-3.62Zm1.63,0c0,1.2.26,2.09.78,2.68.52.6,1.18.89,1.97.89s1.44-.3,1.96-.9.78-1.51.78-2.73c0-1.15-.26-2.03-.79-2.62-.52-.59-1.18-.89-1.96-.89s-1.45.3-1.97.89-.78,1.49-.78,2.68Z"/>
    <path class="cls-7" d="m574.39,447.6v-9.33h1.42v1.33c.69-1.03,1.68-1.54,2.97-1.54.56,0,1.08.1,1.55.3.47.2.82.47,1.06.8s.4.72.49,1.17c.06.29.09.81.09,1.54v5.74h-1.58v-5.68c0-.64-.06-1.13-.18-1.45s-.34-.57-.66-.77c-.31-.19-.68-.29-1.1-.29-.67,0-1.26.21-1.75.64s-.73,1.24-.73,2.43v5.1h-1.58Z"/>
    <path class="cls-7" d="m583.77,444.81l1.56-.25c.09.63.33,1.11.73,1.44s.96.5,1.68.5,1.27-.15,1.62-.44.53-.64.53-1.04c0-.36-.16-.64-.47-.84-.22-.14-.76-.32-1.62-.54-1.16-.29-1.96-.55-2.41-.76-.45-.21-.79-.51-1.02-.89-.23-.38-.35-.79-.35-1.25,0-.42.09-.8.29-1.16.19-.35.45-.65.78-.88.25-.18.58-.33,1.01-.46s.88-.19,1.37-.19c.73,0,1.38.11,1.93.32.55.21.96.5,1.23.86.26.36.45.84.54,1.45l-1.55.21c-.07-.48-.27-.86-.61-1.12-.34-.27-.81-.4-1.43-.4-.73,0-1.25.12-1.56.36s-.47.52-.47.84c0,.21.06.39.19.55.13.17.33.31.61.42.16.06.62.19,1.4.4,1.12.3,1.9.54,2.34.73.44.19.79.47,1.04.83s.38.81.38,1.35-.15,1.02-.46,1.49c-.31.46-.75.83-1.33,1.08-.58.26-1.24.38-1.97.38-1.21,0-2.14-.25-2.77-.76-.64-.5-1.04-1.25-1.22-2.24Z"/>
    <path class="cls-7" d="m604.49,446.45c-.59.5-1.15.85-1.69,1.05-.54.21-1.12.31-1.75.31-1.03,0-1.81-.25-2.36-.75-.55-.5-.83-1.14-.83-1.92,0-.46.1-.88.31-1.25.21-.38.48-.68.82-.91s.72-.4,1.14-.52c.31-.08.78-.16,1.41-.24,1.28-.15,2.22-.33,2.82-.54,0-.22,0-.35,0-.41,0-.64-.15-1.1-.45-1.36-.4-.36-1-.54-1.8-.54-.74,0-1.29.13-1.65.39s-.62.72-.79,1.38l-1.55-.21c.14-.66.37-1.2.69-1.6.32-.41.79-.72,1.4-.94.61-.22,1.32-.33,2.12-.33s1.44.09,1.94.28.86.42,1.1.71c.23.29.4.64.49,1.08.05.27.08.76.08,1.46v2.11c0,1.47.03,2.4.1,2.79.07.39.2.76.4,1.12h-1.65c-.16-.33-.27-.71-.32-1.15Zm-.13-3.53c-.57.23-1.44.43-2.58.6-.65.09-1.11.2-1.38.32s-.48.29-.62.51-.22.48-.22.75c0,.42.16.77.48,1.05s.79.42,1.4.42,1.15-.13,1.63-.4.82-.63,1.05-1.09c.17-.36.25-.88.25-1.58v-.58Z"/>
    <path class="cls-7" d="m608.41,447.6v-9.33h1.42v1.33c.69-1.03,1.68-1.54,2.97-1.54.56,0,1.08.1,1.55.3.47.2.82.47,1.06.8s.4.72.49,1.17c.06.29.09.81.09,1.54v5.74h-1.58v-5.68c0-.64-.06-1.13-.18-1.45s-.34-.57-.66-.77c-.31-.19-.68-.29-1.1-.29-.67,0-1.26.21-1.75.64s-.73,1.24-.73,2.43v5.1h-1.58Z"/>
    <path class="cls-7" d="m624.48,447.6v-1.18c-.59.93-1.46,1.39-2.61,1.39-.74,0-1.43-.21-2.05-.62-.62-.41-1.11-.98-1.45-1.72-.34-.73-.51-1.58-.51-2.54s.16-1.78.47-2.54.78-1.34,1.4-1.75,1.32-.61,2.08-.61c.56,0,1.06.12,1.5.36.44.24.8.55,1.07.93v-4.62h1.57v12.88h-1.47Zm-5-4.66c0,1.2.25,2.09.76,2.68s1.1.89,1.78.89,1.28-.28,1.76-.85c.48-.57.73-1.43.73-2.59,0-1.28-.25-2.21-.74-2.81s-1.1-.9-1.82-.9-1.29.29-1.76.86c-.47.57-.71,1.48-.71,2.72Z"/>
    <path class="cls-7" d="m639.53,444.18l1.56.2c-.17,1.07-.61,1.91-1.31,2.52-.7.61-1.56.91-2.58.91-1.28,0-2.3-.42-3.08-1.25-.78-.84-1.16-2.03-1.16-3.59,0-1.01.17-1.89.5-2.65s.84-1.32,1.52-1.7c.68-.38,1.43-.57,2.23-.57,1.01,0,1.84.26,2.49.77s1.06,1.24,1.24,2.18l-1.54.24c-.15-.63-.41-1.1-.78-1.42s-.82-.47-1.35-.47c-.8,0-1.44.29-1.94.86-.5.57-.75,1.47-.75,2.71s.24,2.17.72,2.73,1.11.85,1.88.85c.62,0,1.14-.19,1.56-.57s.68-.97.79-1.76Z"/>
    <path class="cls-7" d="m641.85,442.93c0-1.73.48-3.01,1.44-3.84.8-.69,1.78-1.04,2.94-1.04,1.28,0,2.33.42,3.15,1.26s1.22,2,1.22,3.48c0,1.2-.18,2.15-.54,2.83-.36.69-.89,1.22-1.57,1.6s-1.44.57-2.25.57c-1.31,0-2.36-.42-3.17-1.26-.81-.84-1.21-2.04-1.21-3.62Zm1.63,0c0,1.2.26,2.09.78,2.68.52.6,1.18.89,1.97.89s1.44-.3,1.96-.9.78-1.51.78-2.73c0-1.15-.26-2.03-.79-2.62-.52-.59-1.18-.89-1.96-.89s-1.45.3-1.97.89-.78,1.49-.78,2.68Z"/>
    <path class="cls-7" d="m652.45,447.6v-9.33h1.42v1.33c.69-1.03,1.68-1.54,2.97-1.54.56,0,1.08.1,1.55.3.47.2.82.47,1.06.8s.4.72.49,1.17c.06.29.09.81.09,1.54v5.74h-1.58v-5.68c0-.64-.06-1.13-.18-1.45s-.34-.57-.66-.77c-.31-.19-.68-.29-1.1-.29-.67,0-1.26.21-1.75.64s-.73,1.24-.73,2.43v5.1h-1.58Z"/>
    <path class="cls-7" d="m665.91,446.18l.23,1.4c-.45.09-.84.14-1.2.14-.57,0-1.02-.09-1.34-.27s-.54-.42-.67-.72-.19-.92-.19-1.87v-5.37h-1.16v-1.23h1.16v-2.31l1.57-.95v3.26h1.59v1.23h-1.59v5.46c0,.45.03.74.08.87s.15.23.27.31c.12.08.31.11.54.11.18,0,.41-.02.69-.06Z"/>
    <path class="cls-7" d="m667.44,447.6v-9.33h1.42v1.42c.36-.66.7-1.1,1.01-1.31.31-.21.65-.32,1.01-.32.53,0,1.08.17,1.63.51l-.54,1.47c-.39-.23-.77-.34-1.16-.34-.35,0-.66.1-.93.31s-.47.5-.59.87c-.18.56-.26,1.18-.26,1.85v4.89h-1.58Z"/>
    <path class="cls-7" d="m672.86,442.93c0-1.73.48-3.01,1.44-3.84.8-.69,1.78-1.04,2.94-1.04,1.28,0,2.33.42,3.15,1.26s1.22,2,1.22,3.48c0,1.2-.18,2.15-.54,2.83-.36.69-.89,1.22-1.57,1.6s-1.44.57-2.25.57c-1.31,0-2.36-.42-3.17-1.26-.81-.84-1.21-2.04-1.21-3.62Zm1.63,0c0,1.2.26,2.09.78,2.68.52.6,1.18.89,1.97.89s1.44-.3,1.96-.9.78-1.51.78-2.73c0-1.15-.26-2.03-.79-2.62-.52-.59-1.18-.89-1.96-.89s-1.45.3-1.97.89-.78,1.49-.78,2.68Z"/>
    <path class="cls-7" d="m683.43,447.6v-12.88h1.58v12.88h-1.58Z"/>
    <path class="cls-7" d="m686.83,444.81l1.56-.25c.09.63.33,1.11.73,1.44s.96.5,1.68.5,1.27-.15,1.62-.44.53-.64.53-1.04c0-.36-.16-.64-.47-.84-.22-.14-.76-.32-1.62-.54-1.16-.29-1.96-.55-2.41-.76-.45-.21-.79-.51-1.02-.89-.23-.38-.35-.79-.35-1.25,0-.42.09-.8.29-1.16.19-.35.45-.65.78-.88.25-.18.58-.33,1.01-.46s.88-.19,1.37-.19c.73,0,1.38.11,1.93.32.55.21.96.5,1.23.86.26.36.45.84.54,1.45l-1.55.21c-.07-.48-.27-.86-.61-1.12-.34-.27-.81-.4-1.43-.4-.73,0-1.25.12-1.56.36s-.47.52-.47.84c0,.21.06.39.19.55.13.17.33.31.61.42.16.06.62.19,1.4.4,1.12.3,1.9.54,2.34.73.44.19.79.47,1.04.83s.38.81.38,1.35-.15,1.02-.46,1.49c-.31.46-.75.83-1.33,1.08-.58.26-1.24.38-1.97.38-1.21,0-2.14-.25-2.77-.76-.64-.5-1.04-1.25-1.22-2.24Z"/>
    <path class="cls-7" d="m707.55,446.45c-.59.5-1.15.85-1.69,1.05-.54.21-1.12.31-1.75.31-1.03,0-1.81-.25-2.36-.75-.55-.5-.83-1.14-.83-1.92,0-.46.1-.88.31-1.25.21-.38.48-.68.82-.91s.72-.4,1.14-.52c.31-.08.78-.16,1.41-.24,1.28-.15,2.22-.33,2.82-.54,0-.22,0-.35,0-.41,0-.64-.15-1.1-.45-1.36-.4-.36-1-.54-1.8-.54-.74,0-1.29.13-1.65.39s-.62.72-.79,1.38l-1.55-.21c.14-.66.37-1.2.69-1.6.32-.41.79-.72,1.4-.94.61-.22,1.32-.33,2.12-.33s1.44.09,1.94.28.86.42,1.1.71c.23.29.4.64.49,1.08.05.27.08.76.08,1.46v2.11c0,1.47.03,2.4.1,2.79.07.39.2.76.4,1.12h-1.65c-.16-.33-.27-.71-.32-1.15Zm-.13-3.53c-.57.23-1.44.43-2.58.6-.65.09-1.11.2-1.38.32s-.48.29-.62.51-.22.48-.22.75c0,.42.16.77.48,1.05s.79.42,1.4.42,1.15-.13,1.63-.4.82-.63,1.05-1.09c.17-.36.25-.88.25-1.58v-.58Z"/>
    <path class="cls-7" d="m711.44,447.6v-12.88h1.58v12.88h-1.58Z"/>
    <path class="cls-7" d="m715.44,447.6v-12.88h1.58v12.88h-1.58Z"/>
    <path class="cls-7" d="m730.56,446.45c-.59.5-1.15.85-1.69,1.05-.54.21-1.12.31-1.75.31-1.03,0-1.81-.25-2.36-.75-.55-.5-.83-1.14-.83-1.92,0-.46.1-.88.31-1.25.21-.38.48-.68.82-.91s.72-.4,1.14-.52c.31-.08.78-.16,1.41-.24,1.28-.15,2.22-.33,2.82-.54,0-.22,0-.35,0-.41,0-.64-.15-1.1-.45-1.36-.4-.36-1-.54-1.8-.54-.74,0-1.29.13-1.65.39s-.62.72-.79,1.38l-1.55-.21c.14-.66.37-1.2.69-1.6.32-.41.79-.72,1.4-.94.61-.22,1.32-.33,2.12-.33s1.44.09,1.94.28.86.42,1.1.71c.23.29.4.64.49,1.08.05.27.08.76.08,1.46v2.11c0,1.47.03,2.4.1,2.79.07.39.2.76.4,1.12h-1.65c-.16-.33-.27-.71-.32-1.15Zm-.13-3.53c-.57.23-1.44.43-2.58.6-.65.09-1.11.2-1.38.32s-.48.29-.62.51-.22.48-.22.75c0,.42.16.77.48,1.05s.79.42,1.4.42,1.15-.13,1.63-.4.82-.63,1.05-1.09c.17-.36.25-.88.25-1.58v-.58Z"/>
    <path class="cls-7" d="m740.57,444.18l1.56.2c-.17,1.07-.61,1.91-1.31,2.52-.7.61-1.56.91-2.58.91-1.28,0-2.3-.42-3.08-1.25-.78-.84-1.16-2.03-1.16-3.59,0-1.01.17-1.89.5-2.65s.84-1.32,1.52-1.7c.68-.38,1.43-.57,2.23-.57,1.01,0,1.84.26,2.49.77s1.06,1.24,1.24,2.18l-1.54.24c-.15-.63-.41-1.1-.78-1.42s-.82-.47-1.35-.47c-.8,0-1.44.29-1.94.86-.5.57-.75,1.47-.75,2.71s.24,2.17.72,2.73,1.11.85,1.88.85c.62,0,1.14-.19,1.56-.57s.68-.97.79-1.76Z"/>
    <path class="cls-7" d="m746.94,446.18l.23,1.4c-.45.09-.84.14-1.2.14-.57,0-1.02-.09-1.34-.27s-.54-.42-.67-.72-.19-.92-.19-1.87v-5.37h-1.16v-1.23h1.16v-2.31l1.57-.95v3.26h1.59v1.23h-1.59v5.46c0,.45.03.74.08.87s.15.23.27.31c.12.08.31.11.54.11.18,0,.41-.02.69-.06Z"/>
    <path class="cls-7" d="m748.49,436.53v-1.82h1.58v1.82h-1.58Zm0,11.07v-9.33h1.58v9.33h-1.58Z"/>
    <path class="cls-7" d="m755.08,447.6l-3.55-9.33h1.67l2,5.59c.22.6.42,1.23.6,1.88.14-.49.34-1.08.59-1.78l2.07-5.7h1.63l-3.53,9.33h-1.48Z"/>
    <path class="cls-7" d="m761.49,436.53v-1.82h1.58v1.82h-1.58Zm0,11.07v-9.33h1.58v9.33h-1.58Z"/>
    <path class="cls-7" d="m768.94,446.18l.23,1.4c-.45.09-.84.14-1.2.14-.57,0-1.02-.09-1.34-.27s-.54-.42-.67-.72-.19-.92-.19-1.87v-5.37h-1.16v-1.23h1.16v-2.31l1.57-.95v3.26h1.59v1.23h-1.59v5.46c0,.45.03.74.08.87s.15.23.27.31c.12.08.31.11.54.11.18,0,.41-.02.69-.06Z"/>
    <path class="cls-7" d="m770.49,436.53v-1.82h1.58v1.82h-1.58Zm0,11.07v-9.33h1.58v9.33h-1.58Z"/>
    <path class="cls-7" d="m780.87,444.59l1.63.2c-.26.96-.74,1.7-1.43,2.22s-1.59.79-2.67.79c-1.37,0-2.45-.42-3.25-1.26-.8-.84-1.2-2.02-1.2-3.54s.4-2.79,1.21-3.66,1.86-1.3,3.15-1.3,2.27.42,3.06,1.27,1.19,2.04,1.19,3.59c0,.09,0,.23,0,.42h-6.96c.06,1.03.35,1.81.87,2.36s1.17.82,1.95.82c.58,0,1.08-.15,1.49-.46s.74-.79.98-1.46Zm-5.19-2.56h5.21c-.07-.79-.27-1.37-.6-1.77-.5-.61-1.16-.91-1.96-.91-.73,0-1.34.24-1.83.73s-.77,1.14-.82,1.95Z"/>
    <path class="cls-7" d="m783.86,444.81l1.56-.25c.09.63.33,1.11.73,1.44s.96.5,1.68.5,1.27-.15,1.62-.44.53-.64.53-1.04c0-.36-.16-.64-.47-.84-.22-.14-.76-.32-1.62-.54-1.16-.29-1.96-.55-2.41-.76-.45-.21-.79-.51-1.02-.89-.23-.38-.35-.79-.35-1.25,0-.42.09-.8.29-1.16.19-.35.45-.65.78-.88.25-.18.58-.33,1.01-.46s.88-.19,1.37-.19c.73,0,1.38.11,1.93.32.55.21.96.5,1.23.86.26.36.45.84.54,1.45l-1.55.21c-.07-.48-.27-.86-.61-1.12-.34-.27-.81-.4-1.43-.4-.73,0-1.25.12-1.56.36s-.47.52-.47.84c0,.21.06.39.19.55.13.17.33.31.61.42.16.06.62.19,1.4.4,1.12.3,1.9.54,2.34.73.44.19.79.47,1.04.83s.38.81.38,1.35-.15,1.02-.46,1.49c-.31.46-.75.83-1.33,1.08-.58.26-1.24.38-1.97.38-1.21,0-2.14-.25-2.77-.76-.64-.5-1.04-1.25-1.22-2.24Z"/>
    <path class="cls-7" d="m64.22,467.22v4.07h-4.07v-4.07h4.07Z"/>
    <path class="cls-7" d="m77.81,471.06l1.61-.14c.08.64.25,1.17.53,1.59.28.41.71.75,1.3,1,.59.25,1.25.38,1.98.38.65,0,1.22-.1,1.72-.29s.87-.46,1.11-.79.36-.71.36-1.1-.12-.76-.35-1.06-.62-.56-1.16-.76c-.35-.13-1.11-.34-2.29-.63s-2.01-.55-2.49-.8c-.62-.32-1.07-.72-1.38-1.2s-.45-1.01-.45-1.6c0-.65.18-1.26.55-1.82s.91-1,1.62-1.29,1.5-.44,2.36-.44c.96,0,1.8.15,2.53.46.73.31,1.29.76,1.68,1.36s.6,1.27.63,2.03l-1.63.12c-.09-.81-.39-1.43-.89-1.85s-1.26-.62-2.25-.62-1.78.19-2.25.57c-.47.38-.71.83-.71,1.37,0,.46.17.84.5,1.14.33.3,1.19.61,2.57.92,1.39.31,2.34.59,2.85.82.75.35,1.3.78,1.66,1.31s.54,1.14.54,1.83-.2,1.33-.59,1.94c-.39.61-.96,1.08-1.69,1.42-.74.34-1.56.5-2.48.5-1.17,0-2.14-.17-2.93-.51s-1.41-.85-1.85-1.53c-.45-.68-.68-1.45-.71-2.32Z"/>
    <path class="cls-7" d="m93.65,473.79l.23,1.4c-.45.09-.84.14-1.2.14-.57,0-1.02-.09-1.34-.27s-.54-.42-.67-.72-.19-.92-.19-1.87v-5.37h-1.16v-1.23h1.16v-2.31l1.57-.95v3.26h1.59v1.23h-1.59v5.46c0,.45.03.74.08.87s.15.23.27.31.31.11.54.11c.18,0,.41-.02.69-.06Z"/>
    <path class="cls-7" d="m101.28,474.05c-.59.5-1.15.85-1.69,1.05s-1.12.31-1.74.31c-1.03,0-1.81-.25-2.36-.75-.55-.5-.83-1.14-.83-1.92,0-.46.1-.88.31-1.25.21-.38.48-.68.82-.91s.72-.4,1.14-.52c.31-.08.78-.16,1.41-.24,1.28-.15,2.22-.33,2.82-.54,0-.22,0-.35,0-.41,0-.64-.15-1.1-.45-1.36-.4-.36-1-.54-1.8-.54-.74,0-1.29.13-1.65.39s-.62.72-.79,1.38l-1.55-.21c.14-.66.37-1.2.69-1.6.32-.41.79-.72,1.4-.94.61-.22,1.32-.33,2.12-.33s1.44.09,1.94.28.86.42,1.1.71c.23.29.4.64.49,1.08.05.27.08.76.08,1.46v2.11c0,1.47.03,2.4.1,2.79.07.39.2.76.4,1.12h-1.65c-.16-.33-.27-.71-.32-1.15Zm-.13-3.53c-.57.23-1.44.43-2.58.6-.65.09-1.11.2-1.38.32s-.48.29-.62.51-.22.48-.22.75c0,.42.16.77.48,1.05s.79.42,1.4.42,1.15-.13,1.63-.4.82-.63,1.05-1.09c.17-.36.25-.88.25-1.58v-.58Z"/>
    <path class="cls-7" d="m105.58,475.2v-8.1h-1.4v-1.23h1.4v-.99c0-.63.06-1.09.17-1.4.15-.41.42-.74.8-1,.38-.25.92-.38,1.61-.38.45,0,.94.05,1.48.16l-.24,1.38c-.33-.06-.64-.09-.93-.09-.48,0-.82.1-1.02.31s-.3.59-.3,1.15v.86h1.82v1.23h-1.82v8.1h-1.57Z"/>
    <path class="cls-7" d="m110.26,475.2v-8.1h-1.4v-1.23h1.4v-.99c0-.63.06-1.09.17-1.4.15-.41.42-.74.8-1,.38-.25.92-.38,1.61-.38.45,0,.94.05,1.48.16l-.24,1.38c-.33-.06-.64-.09-.93-.09-.48,0-.82.1-1.02.31s-.3.59-.3,1.15v.86h1.82v1.23h-1.82v8.1h-1.57Z"/>
    <path class="cls-7" d="m119.25,472.41l1.56-.25c.09.63.33,1.11.73,1.44s.96.5,1.68.5,1.27-.15,1.62-.44.53-.64.53-1.04c0-.36-.16-.64-.47-.84-.22-.14-.76-.32-1.62-.54-1.16-.29-1.96-.55-2.41-.76s-.79-.51-1.02-.89c-.23-.38-.35-.79-.35-1.25,0-.42.1-.8.29-1.16.19-.35.45-.65.78-.88.25-.18.58-.33,1.01-.46s.88-.19,1.37-.19c.73,0,1.38.11,1.93.32s.96.5,1.23.86c.26.36.45.84.54,1.45l-1.55.21c-.07-.48-.27-.86-.61-1.12s-.81-.4-1.43-.4c-.73,0-1.25.12-1.56.36s-.47.52-.47.84c0,.21.06.39.19.55.13.17.33.31.61.42.16.06.62.19,1.4.4,1.12.3,1.9.54,2.34.73s.79.47,1.04.83.38.81.38,1.35-.15,1.02-.46,1.49c-.31.46-.75.83-1.33,1.08-.58.26-1.24.38-1.97.38-1.21,0-2.14-.25-2.77-.76s-1.04-1.25-1.22-2.24Z"/>
    <path class="cls-7" d="m135.27,472.19l1.63.2c-.26.96-.74,1.7-1.43,2.22s-1.59.79-2.67.79c-1.37,0-2.45-.42-3.25-1.26-.8-.84-1.2-2.02-1.2-3.54s.4-2.79,1.21-3.66,1.86-1.3,3.15-1.3,2.27.42,3.06,1.27,1.19,2.04,1.19,3.59c0,.09,0,.23,0,.42h-6.96c.06,1.03.35,1.81.87,2.36s1.17.82,1.95.82c.58,0,1.08-.15,1.49-.46s.74-.79.98-1.46Zm-5.19-2.56h5.21c-.07-.79-.27-1.37-.6-1.77-.5-.61-1.16-.91-1.96-.91-.73,0-1.34.24-1.83.73s-.77,1.14-.82,1.95Z"/>
    <path class="cls-7" d="m138.88,475.2v-9.33h1.42v1.42c.36-.66.7-1.1,1.01-1.31s.65-.32,1.02-.32c.53,0,1.08.17,1.63.51l-.54,1.47c-.39-.23-.77-.34-1.16-.34-.35,0-.66.1-.93.31s-.47.5-.59.87c-.18.56-.26,1.18-.26,1.85v4.89h-1.58Z"/>
    <path class="cls-7" d="m147.48,475.2l-3.55-9.33h1.67l2,5.59c.22.6.42,1.23.6,1.88.14-.49.34-1.08.59-1.78l2.07-5.7h1.63l-3.53,9.33h-1.48Z"/>
    <path class="cls-7" d="m160.28,472.19l1.63.2c-.26.96-.74,1.7-1.43,2.22s-1.59.79-2.67.79c-1.37,0-2.45-.42-3.25-1.26-.8-.84-1.2-2.02-1.2-3.54s.4-2.79,1.21-3.66,1.86-1.3,3.15-1.3,2.27.42,3.06,1.27,1.19,2.04,1.19,3.59c0,.09,0,.23,0,.42h-6.96c.06,1.03.35,1.81.87,2.36s1.17.82,1.95.82c.58,0,1.08-.15,1.49-.46s.74-.79.98-1.46Zm-5.19-2.56h5.21c-.07-.79-.27-1.37-.6-1.77-.5-.61-1.16-.91-1.96-.91-.73,0-1.34.24-1.83.73s-.77,1.14-.82,1.95Z"/>
    <path class="cls-7" d="m163.26,472.41l1.56-.25c.09.63.33,1.11.73,1.44s.96.5,1.68.5,1.27-.15,1.62-.44.53-.64.53-1.04c0-.36-.16-.64-.47-.84-.22-.14-.76-.32-1.62-.54-1.16-.29-1.96-.55-2.41-.76s-.79-.51-1.02-.89c-.23-.38-.35-.79-.35-1.25,0-.42.1-.8.29-1.16.19-.35.45-.65.78-.88.25-.18.58-.33,1.01-.46s.88-.19,1.37-.19c.73,0,1.38.11,1.93.32s.96.5,1.23.86c.26.36.45.84.54,1.45l-1.55.21c-.07-.48-.27-.86-.61-1.12s-.81-.4-1.43-.4c-.73,0-1.25.12-1.56.36s-.47.52-.47.84c0,.21.06.39.19.55.13.17.33.31.61.42.16.06.62.19,1.4.4,1.12.3,1.9.54,2.34.73s.79.47,1.04.83.38.81.38,1.35-.15,1.02-.46,1.49c-.31.46-.75.83-1.33,1.08-.58.26-1.24.38-1.97.38-1.21,0-2.14-.25-2.77-.76s-1.04-1.25-1.22-2.24Z"/>
    <path class="cls-7" d="m183.99,474.05c-.59.5-1.15.85-1.69,1.05s-1.12.31-1.74.31c-1.03,0-1.81-.25-2.36-.75-.55-.5-.83-1.14-.83-1.92,0-.46.1-.88.31-1.25.21-.38.48-.68.82-.91s.72-.4,1.14-.52c.31-.08.78-.16,1.41-.24,1.28-.15,2.22-.33,2.82-.54,0-.22,0-.35,0-.41,0-.64-.15-1.1-.45-1.36-.4-.36-1-.54-1.8-.54-.74,0-1.29.13-1.65.39s-.62.72-.79,1.38l-1.55-.21c.14-.66.37-1.2.69-1.6.32-.41.79-.72,1.4-.94.61-.22,1.32-.33,2.12-.33s1.44.09,1.94.28.86.42,1.1.71c.23.29.4.64.49,1.08.05.27.08.76.08,1.46v2.11c0,1.47.03,2.4.1,2.79.07.39.2.76.4,1.12h-1.65c-.16-.33-.27-.71-.32-1.15Zm-.13-3.53c-.57.23-1.44.43-2.58.6-.65.09-1.11.2-1.38.32s-.48.29-.62.51-.22.48-.22.75c0,.42.16.77.48,1.05s.79.42,1.4.42,1.15-.13,1.63-.4.82-.63,1.05-1.09c.17-.36.25-.88.25-1.58v-.58Z"/>
    <path class="cls-7" d="m187.28,472.41l1.56-.25c.09.63.33,1.11.73,1.44s.96.5,1.68.5,1.27-.15,1.62-.44.53-.64.53-1.04c0-.36-.16-.64-.47-.84-.22-.14-.76-.32-1.62-.54-1.16-.29-1.96-.55-2.41-.76s-.79-.51-1.02-.89c-.23-.38-.35-.79-.35-1.25,0-.42.1-.8.29-1.16.19-.35.45-.65.78-.88.25-.18.58-.33,1.01-.46s.88-.19,1.37-.19c.73,0,1.38.11,1.93.32s.96.5,1.23.86c.26.36.45.84.54,1.45l-1.55.21c-.07-.48-.27-.86-.61-1.12s-.81-.4-1.43-.4c-.73,0-1.25.12-1.56.36s-.47.52-.47.84c0,.21.06.39.19.55.13.17.33.31.61.42.16.06.62.19,1.4.4,1.12.3,1.9.54,2.34.73s.79.47,1.04.83.38.81.38,1.35-.15,1.02-.46,1.49c-.31.46-.75.83-1.33,1.08-.58.26-1.24.38-1.97.38-1.21,0-2.14-.25-2.77-.76s-1.04-1.25-1.22-2.24Z"/>
    <path class="cls-7" d="m208,474.05c-.59.5-1.15.85-1.69,1.05s-1.12.31-1.74.31c-1.03,0-1.81-.25-2.36-.75-.55-.5-.83-1.14-.83-1.92,0-.46.1-.88.31-1.25.21-.38.48-.68.82-.91s.72-.4,1.14-.52c.31-.08.78-.16,1.41-.24,1.28-.15,2.22-.33,2.82-.54,0-.22,0-.35,0-.41,0-.64-.15-1.1-.45-1.36-.4-.36-1-.54-1.8-.54-.74,0-1.29.13-1.65.39s-.62.72-.79,1.38l-1.55-.21c.14-.66.37-1.2.69-1.6.32-.41.79-.72,1.4-.94.61-.22,1.32-.33,2.12-.33s1.44.09,1.94.28.86.42,1.1.71c.23.29.4.64.49,1.08.05.27.08.76.08,1.46v2.11c0,1.47.03,2.4.1,2.79.07.39.2.76.4,1.12h-1.65c-.16-.33-.27-.71-.32-1.15Zm-.13-3.53c-.57.23-1.44.43-2.58.6-.65.09-1.11.2-1.38.32s-.48.29-.62.51-.22.48-.22.75c0,.42.16.77.48,1.05s.79.42,1.4.42,1.15-.13,1.63-.4.82-.63,1.05-1.09c.17-.36.25-.88.25-1.58v-.58Z"/>
    <path class="cls-7" d="m211.92,475.2v-9.33h1.42v1.33c.69-1.03,1.68-1.54,2.97-1.54.56,0,1.08.1,1.55.3.47.2.82.47,1.06.8s.4.72.49,1.17c.06.29.09.81.09,1.54v5.74h-1.58v-5.68c0-.64-.06-1.13-.18-1.45s-.34-.57-.65-.77c-.31-.19-.68-.29-1.1-.29-.67,0-1.26.21-1.74.64s-.73,1.24-.73,2.43v5.1h-1.58Z"/>
    <path class="cls-7" d="m233.32,472.19l1.63.2c-.26.96-.74,1.7-1.43,2.22s-1.59.79-2.67.79c-1.37,0-2.45-.42-3.25-1.26-.8-.84-1.2-2.02-1.2-3.54s.4-2.79,1.21-3.66,1.86-1.3,3.15-1.3,2.27.42,3.06,1.27,1.19,2.04,1.19,3.59c0,.09,0,.23,0,.42h-6.96c.06,1.03.35,1.81.87,2.36s1.17.82,1.95.82c.58,0,1.08-.15,1.49-.46s.74-.79.98-1.46Zm-5.19-2.56h5.21c-.07-.79-.27-1.37-.6-1.77-.5-.61-1.16-.91-1.96-.91-.73,0-1.34.24-1.83.73s-.77,1.14-.82,1.95Z"/>
    <path class="cls-7" d="m235.89,475.2l3.41-4.85-3.16-4.48h1.98l1.43,2.19c.27.42.49.76.65,1.05.26-.39.5-.73.71-1.03l1.57-2.21h1.89l-3.23,4.39,3.47,4.94h-1.94l-1.92-2.9-.51-.78-2.45,3.68h-1.92Z"/>
    <path class="cls-7" d="m249.4,473.79l.23,1.4c-.45.09-.84.14-1.2.14-.57,0-1.02-.09-1.34-.27s-.54-.42-.67-.72-.19-.92-.19-1.87v-5.37h-1.16v-1.23h1.16v-2.31l1.57-.95v3.26h1.59v1.23h-1.59v5.46c0,.45.03.74.08.87s.15.23.27.31.31.11.54.11c.18,0,.41-.02.69-.06Z"/>
    <path class="cls-7" d="m257.33,472.19l1.63.2c-.26.96-.74,1.7-1.43,2.22s-1.59.79-2.67.79c-1.37,0-2.45-.42-3.25-1.26-.8-.84-1.2-2.02-1.2-3.54s.4-2.79,1.21-3.66,1.86-1.3,3.15-1.3,2.27.42,3.06,1.27,1.19,2.04,1.19,3.59c0,.09,0,.23,0,.42h-6.96c.06,1.03.35,1.81.87,2.36s1.17.82,1.95.82c.58,0,1.08-.15,1.49-.46s.74-.79.98-1.46Zm-5.19-2.56h5.21c-.07-.79-.27-1.37-.6-1.77-.5-.61-1.16-.91-1.96-.91-.73,0-1.34.24-1.83.73s-.77,1.14-.82,1.95Z"/>
    <path class="cls-7" d="m260.96,475.2v-9.33h1.42v1.33c.69-1.03,1.68-1.54,2.97-1.54.56,0,1.08.1,1.55.3.47.2.82.47,1.06.8s.4.72.49,1.17c.06.29.09.81.09,1.54v5.74h-1.58v-5.68c0-.64-.06-1.13-.18-1.45s-.34-.57-.65-.77c-.31-.19-.68-.29-1.1-.29-.67,0-1.26.21-1.74.64s-.73,1.24-.73,2.43v5.1h-1.58Z"/>
    <path class="cls-7" d="m270.33,472.41l1.56-.25c.09.63.33,1.11.73,1.44s.96.5,1.68.5,1.27-.15,1.62-.44.53-.64.53-1.04c0-.36-.16-.64-.47-.84-.22-.14-.76-.32-1.62-.54-1.16-.29-1.96-.55-2.41-.76s-.79-.51-1.02-.89c-.23-.38-.35-.79-.35-1.25,0-.42.1-.8.29-1.16.19-.35.45-.65.78-.88.25-.18.58-.33,1.01-.46s.88-.19,1.37-.19c.73,0,1.38.11,1.93.32s.96.5,1.23.86c.26.36.45.84.54,1.45l-1.55.21c-.07-.48-.27-.86-.61-1.12s-.81-.4-1.43-.4c-.73,0-1.25.12-1.56.36s-.47.52-.47.84c0,.21.06.39.19.55.13.17.33.31.61.42.16.06.62.19,1.4.4,1.12.3,1.9.54,2.34.73s.79.47,1.04.83.38.81.38,1.35-.15,1.02-.46,1.49c-.31.46-.75.83-1.33,1.08-.58.26-1.24.38-1.97.38-1.21,0-2.14-.25-2.77-.76s-1.04-1.25-1.22-2.24Z"/>
    <path class="cls-7" d="m279.97,464.13v-1.82h1.58v1.82h-1.58Zm0,11.07v-9.33h1.58v9.33h-1.58Z"/>
    <path class="cls-7" d="m283.38,470.53c0-1.73.48-3.01,1.44-3.84.8-.69,1.78-1.04,2.94-1.04,1.28,0,2.33.42,3.15,1.26s1.22,2,1.22,3.48c0,1.2-.18,2.15-.54,2.83-.36.69-.88,1.22-1.57,1.6s-1.44.57-2.25.57c-1.31,0-2.36-.42-3.17-1.26s-1.21-2.04-1.21-3.62Zm1.63,0c0,1.2.26,2.09.78,2.68.52.6,1.18.89,1.97.89s1.44-.3,1.96-.9.78-1.51.78-2.73c0-1.15-.26-2.03-.79-2.62-.52-.59-1.18-.89-1.96-.89s-1.45.3-1.97.89-.78,1.49-.78,2.68Z"/>
    <path class="cls-7" d="m293.98,475.2v-9.33h1.42v1.33c.69-1.03,1.68-1.54,2.97-1.54.56,0,1.08.1,1.55.3.47.2.82.47,1.06.8s.4.72.49,1.17c.06.29.09.81.09,1.54v5.74h-1.58v-5.68c0-.64-.06-1.13-.18-1.45s-.34-.57-.65-.77c-.31-.19-.68-.29-1.1-.29-.67,0-1.26.21-1.74.64s-.73,1.24-.73,2.43v5.1h-1.58Z"/>
    <path class="cls-7" d="m308.4,470.53c0-1.73.48-3.01,1.44-3.84.8-.69,1.78-1.04,2.94-1.04,1.28,0,2.33.42,3.15,1.26s1.22,2,1.22,3.48c0,1.2-.18,2.15-.54,2.83-.36.69-.88,1.22-1.57,1.6s-1.44.57-2.25.57c-1.31,0-2.36-.42-3.17-1.26s-1.21-2.04-1.21-3.62Zm1.63,0c0,1.2.26,2.09.78,2.68.52.6,1.18.89,1.97.89s1.44-.3,1.96-.9.78-1.51.78-2.73c0-1.15-.26-2.03-.79-2.62-.52-.59-1.18-.89-1.96-.89s-1.45.3-1.97.89-.78,1.49-.78,2.68Z"/>
    <path class="cls-7" d="m319.38,475.2v-8.1h-1.4v-1.23h1.4v-.99c0-.63.06-1.09.17-1.4.15-.41.42-.74.8-1,.38-.25.92-.38,1.61-.38.45,0,.94.05,1.48.16l-.24,1.38c-.33-.06-.64-.09-.93-.09-.48,0-.82.1-1.02.31s-.3.59-.3,1.15v.86h1.82v1.23h-1.82v8.1h-1.57Z"/>
    <path class="cls-7" d="m332.45,473.79l.23,1.4c-.45.09-.84.14-1.2.14-.57,0-1.02-.09-1.34-.27s-.54-.42-.67-.72-.19-.92-.19-1.87v-5.37h-1.16v-1.23h1.16v-2.31l1.57-.95v3.26h1.59v1.23h-1.59v5.46c0,.45.03.74.08.87s.15.23.27.31.31.11.54.11c.18,0,.41-.02.69-.06Z"/>
    <path class="cls-7" d="m334,475.2v-12.88h1.58v4.62c.74-.86,1.67-1.28,2.79-1.28.69,0,1.29.14,1.8.41.51.27.87.65,1.09,1.13s.33,1.18.33,2.09v5.92h-1.58v-5.92c0-.79-.17-1.37-.51-1.73-.34-.36-.83-.54-1.45-.54-.47,0-.91.12-1.32.36-.41.24-.71.57-.88.99s-.26.99-.26,1.72v5.11h-1.58Z"/>
    <path class="cls-7" d="m350.4,472.19l1.63.2c-.26.96-.74,1.7-1.43,2.22s-1.59.79-2.67.79c-1.37,0-2.45-.42-3.25-1.26-.8-.84-1.2-2.02-1.2-3.54s.4-2.79,1.21-3.66,1.86-1.3,3.15-1.3,2.27.42,3.06,1.27,1.19,2.04,1.19,3.59c0,.09,0,.23,0,.42h-6.96c.06,1.03.35,1.81.87,2.36s1.17.82,1.95.82c.58,0,1.08-.15,1.49-.46s.74-.79.98-1.46Zm-5.19-2.56h5.21c-.07-.79-.27-1.37-.6-1.77-.5-.61-1.16-.91-1.96-.91-.73,0-1.34.24-1.83.73s-.77,1.14-.82,1.95Z"/>
    <path class="cls-7" d="m362.48,473.79l.23,1.4c-.45.09-.84.14-1.2.14-.57,0-1.02-.09-1.34-.27s-.54-.42-.67-.72-.19-.92-.19-1.87v-5.37h-1.16v-1.23h1.16v-2.31l1.57-.95v3.26h1.59v1.23h-1.59v5.46c0,.45.03.74.08.87s.15.23.27.31.31.11.54.11c.18,0,.41-.02.69-.06Z"/>
    <path class="cls-7" d="m363.44,470.53c0-1.73.48-3.01,1.44-3.84.8-.69,1.78-1.04,2.94-1.04,1.28,0,2.33.42,3.15,1.26s1.22,2,1.22,3.48c0,1.2-.18,2.15-.54,2.83-.36.69-.88,1.22-1.57,1.6s-1.44.57-2.25.57c-1.31,0-2.36-.42-3.17-1.26s-1.21-2.04-1.21-3.62Zm1.63,0c0,1.2.26,2.09.78,2.68.52.6,1.18.89,1.97.89s1.44-.3,1.96-.9.78-1.51.78-2.73c0-1.15-.26-2.03-.79-2.62-.52-.59-1.18-.89-1.96-.89s-1.45.3-1.97.89-.78,1.49-.78,2.68Z"/>
    <path class="cls-7" d="m374.04,478.78v-12.91h1.44v1.21c.34-.47.72-.83,1.15-1.07.43-.24.95-.36,1.56-.36.8,0,1.5.21,2.11.62s1.07.99,1.38,1.74c.31.75.47,1.57.47,2.46,0,.96-.17,1.82-.51,2.58-.34.77-.84,1.35-1.49,1.76-.65.41-1.34.61-2.06.61-.53,0-1-.11-1.42-.33s-.76-.5-1.03-.84v4.54h-1.58Zm1.43-8.19c0,1.2.24,2.09.73,2.66s1.08.86,1.77.86,1.31-.3,1.81-.89c.5-.59.75-1.52.75-2.76s-.24-2.08-.73-2.67-1.07-.89-1.75-.89-1.27.32-1.79.94c-.52.63-.78,1.55-.78,2.75Z"/>
    <path class="cls-7" d="m395.44,472.19l1.63.2c-.26.96-.74,1.7-1.43,2.22s-1.59.79-2.67.79c-1.37,0-2.45-.42-3.25-1.26-.8-.84-1.2-2.02-1.2-3.54s.4-2.79,1.21-3.66,1.86-1.3,3.15-1.3,2.27.42,3.06,1.27,1.19,2.04,1.19,3.59c0,.09,0,.23,0,.42h-6.96c.06,1.03.35,1.81.87,2.36s1.17.82,1.95.82c.58,0,1.08-.15,1.49-.46s.74-.79.98-1.46Zm-5.19-2.56h5.21c-.07-.79-.27-1.37-.6-1.77-.5-.61-1.16-.91-1.96-.91-.73,0-1.34.24-1.83.73s-.77,1.14-.82,1.95Z"/>
    <path class="cls-7" d="m398,475.2l3.41-4.85-3.16-4.48h1.98l1.43,2.19c.27.42.49.76.65,1.05.26-.39.5-.73.71-1.03l1.57-2.21h1.89l-3.23,4.39,3.47,4.94h-1.94l-1.92-2.9-.51-.78-2.45,3.68h-1.92Z"/>
    <path class="cls-7" d="m414.45,472.19l1.63.2c-.26.96-.74,1.7-1.43,2.22s-1.59.79-2.67.79c-1.37,0-2.45-.42-3.25-1.26-.8-.84-1.2-2.02-1.2-3.54s.4-2.79,1.21-3.66,1.86-1.3,3.15-1.3,2.27.42,3.06,1.27,1.19,2.04,1.19,3.59c0,.09,0,.23,0,.42h-6.96c.06,1.03.35,1.81.87,2.36s1.17.82,1.95.82c.58,0,1.08-.15,1.49-.46s.74-.79.98-1.46Zm-5.19-2.56h5.21c-.07-.79-.27-1.37-.6-1.77-.5-.61-1.16-.91-1.96-.91-.73,0-1.34.24-1.83.73s-.77,1.14-.82,1.95Z"/>
    <path class="cls-7" d="m424.16,471.78l1.56.2c-.17,1.07-.61,1.91-1.31,2.52-.7.61-1.56.91-2.58.91-1.28,0-2.3-.42-3.08-1.25-.78-.84-1.16-2.03-1.16-3.59,0-1.01.17-1.89.5-2.65s.84-1.32,1.52-1.7c.68-.38,1.43-.57,2.23-.57,1.01,0,1.84.26,2.49.77s1.06,1.24,1.24,2.18l-1.54.24c-.15-.63-.41-1.1-.78-1.42s-.82-.47-1.35-.47c-.8,0-1.44.29-1.94.86-.5.57-.75,1.47-.75,2.71s.24,2.17.72,2.73,1.11.85,1.88.85c.62,0,1.14-.19,1.56-.57s.68-.97.79-1.76Z"/>
    <path class="cls-7" d="m433.19,475.2v-1.37c-.73,1.05-1.71,1.58-2.96,1.58-.55,0-1.07-.11-1.54-.32s-.83-.48-1.06-.79c-.23-.32-.39-.71-.49-1.17-.06-.31-.1-.8-.1-1.48v-5.78h1.58v5.18c0,.83.03,1.38.1,1.67.1.42.31.74.63.98.32.24.72.36,1.2.36s.92-.12,1.34-.36.71-.57.88-.99c.17-.42.26-1.03.26-1.82v-5h1.58v9.33h-1.42Z"/>
    <path class="cls-7" d="m440.53,473.79l.23,1.4c-.45.09-.84.14-1.2.14-.57,0-1.02-.09-1.34-.27s-.54-.42-.67-.72-.19-.92-.19-1.87v-5.37h-1.16v-1.23h1.16v-2.31l1.57-.95v3.26h1.59v1.23h-1.59v5.46c0,.45.03.74.08.87s.15.23.27.31c.12.08.31.11.54.11.18,0,.41-.02.69-.06Z"/>
    <path class="cls-7" d="m442.09,464.13v-1.82h1.58v1.82h-1.58Zm0,11.07v-9.33h1.58v9.33h-1.58Z"/>
    <path class="cls-7" d="m448.67,475.2l-3.55-9.33h1.67l2,5.59c.22.6.42,1.23.6,1.88.14-.49.34-1.08.59-1.78l2.07-5.7h1.63l-3.53,9.33h-1.48Z"/>
    <path class="cls-7" d="m461.47,472.19l1.63.2c-.26.96-.74,1.7-1.43,2.22s-1.59.79-2.67.79c-1.37,0-2.45-.42-3.25-1.26-.8-.84-1.2-2.02-1.2-3.54s.4-2.79,1.21-3.66,1.86-1.3,3.15-1.3,2.27.42,3.06,1.27,1.19,2.04,1.19,3.59c0,.09,0,.23,0,.42h-6.96c.06,1.03.35,1.81.87,2.36s1.17.82,1.95.82c.58,0,1.08-.15,1.49-.46s.74-.79.98-1.46Zm-5.19-2.56h5.21c-.07-.79-.27-1.37-.6-1.77-.5-.61-1.16-.91-1.96-.91-.73,0-1.34.24-1.83.73s-.77,1.14-.82,1.95Z"/>
  </g>
</svg>