<?xml version="1.0" encoding="UTF-8"?><svg id="a" xmlns="http://www.w3.org/2000/svg" viewBox="0 0 988 425"><g><g><path d="M173,202.6v-11.45h3.46l2.08,7.81,2.05-7.81h3.47v11.45h-2.15v-9.02l-2.27,9.02h-2.23l-2.27-9.02v9.02h-2.15Z" style="fill:#1d1d1b;"/><path d="M191.15,199.96l2.19,.37c-.28,.8-.73,1.41-1.33,1.83s-1.37,.63-2.28,.63c-1.44,0-2.51-.47-3.2-1.41-.55-.75-.82-1.71-.82-2.86,0-1.38,.36-2.45,1.08-3.23s1.63-1.17,2.73-1.17c1.23,0,2.21,.41,2.92,1.22s1.05,2.06,1.02,3.75h-5.5c.02,.65,.19,1.16,.53,1.52s.76,.54,1.27,.54c.34,0,.63-.09,.87-.28s.41-.49,.53-.91Zm.12-2.22c-.02-.64-.18-1.12-.49-1.45s-.69-.5-1.14-.5c-.48,0-.88,.17-1.19,.52s-.47,.82-.46,1.42h3.28Z" style="fill:#1d1d1b;"/><path d="M202.48,196.75l-2.16,.39c-.07-.43-.24-.76-.5-.98s-.59-.33-1-.33c-.55,0-.98,.19-1.31,.57s-.49,1.01-.49,1.89c0,.98,.17,1.68,.5,2.09s.77,.61,1.33,.61c.42,0,.76-.12,1.02-.36s.45-.64,.56-1.22l2.16,.37c-.22,.99-.65,1.74-1.29,2.24s-1.49,.76-2.55,.76c-1.21,0-2.18-.38-2.9-1.15s-1.08-1.83-1.08-3.18,.36-2.44,1.09-3.2,1.7-1.14,2.94-1.14c1.01,0,1.81,.22,2.41,.65s1.02,1.1,1.29,1.99Z" style="fill:#1d1d1b;"/><path d="M206.33,191.15v4.21c.71-.83,1.55-1.24,2.54-1.24,.5,0,.96,.09,1.37,.28s.71,.43,.92,.72,.35,.61,.42,.97,.11,.9,.11,1.65v4.87h-2.2v-4.38c0-.87-.04-1.42-.12-1.66s-.23-.42-.44-.56-.48-.21-.79-.21c-.36,0-.69,.09-.98,.27s-.5,.44-.63,.8-.2,.88-.2,1.58v4.16h-2.2v-11.45h2.2Z" style="fill:#1d1d1b;"/><path d="M215.56,196.83l-1.99-.36c.22-.8,.61-1.4,1.16-1.78s1.36-.58,2.44-.58c.98,0,1.71,.12,2.19,.35s.82,.53,1.01,.88,.29,1.01,.29,1.96l-.02,2.56c0,.73,.04,1.27,.11,1.61s.2,.72,.39,1.11h-2.17c-.06-.15-.13-.36-.21-.65-.04-.13-.06-.22-.08-.26-.38,.36-.78,.64-1.2,.82s-.88,.27-1.37,.27c-.85,0-1.53-.23-2.02-.7s-.74-1.05-.74-1.76c0-.47,.11-.89,.34-1.25s.54-.65,.94-.84,.99-.37,1.75-.51c1.03-.19,1.74-.37,2.13-.54v-.22c0-.42-.1-.72-.31-.9s-.6-.27-1.18-.27c-.39,0-.7,.08-.91,.23s-.4,.42-.53,.81Zm2.94,1.78c-.28,.09-.73,.21-1.34,.34s-1.01,.26-1.2,.38c-.29,.2-.43,.46-.43,.77s.11,.57,.34,.8,.52,.34,.88,.34c.4,0,.77-.13,1.13-.39,.27-.2,.44-.44,.52-.73,.06-.19,.09-.54,.09-1.07v-.44Z" style="fill:#1d1d1b;"/><path d="M230.36,202.6h-2.2v-4.23c0-.9-.05-1.48-.14-1.74s-.25-.47-.46-.61-.46-.22-.76-.22c-.38,0-.72,.1-1.02,.31s-.51,.48-.62,.83-.17,.98-.17,1.91v3.76h-2.2v-8.3h2.04v1.22c.72-.94,1.64-1.41,2.73-1.41,.48,0,.93,.09,1.33,.26s.7,.4,.91,.67,.35,.58,.43,.92,.12,.84,.12,1.48v5.16Z" style="fill:#1d1d1b;"/><path d="M232.59,193.18v-2.03h2.2v2.03h-2.2Zm0,9.42v-8.3h2.2v8.3h-2.2Z" style="fill:#1d1d1b;"/><path d="M236.26,200.23l2.2-.34c.09,.43,.28,.75,.57,.97s.69,.33,1.2,.33c.57,0,1-.1,1.28-.31,.19-.15,.29-.34,.29-.59,0-.17-.05-.3-.16-.41-.11-.1-.35-.2-.73-.29-1.77-.39-2.89-.75-3.37-1.07-.66-.45-.98-1.07-.98-1.87,0-.72,.28-1.32,.85-1.81s1.45-.73,2.64-.73,1.98,.18,2.53,.55,.93,.92,1.14,1.64l-2.07,.38c-.09-.32-.26-.57-.5-.74s-.6-.26-1.06-.26c-.58,0-.99,.08-1.24,.24-.17,.11-.25,.26-.25,.45,0,.16,.07,.29,.22,.4,.2,.15,.88,.35,2.05,.62s1.99,.59,2.45,.98c.46,.39,.69,.93,.69,1.63,0,.76-.32,1.41-.95,1.96s-1.58,.82-2.82,.82c-1.13,0-2.02-.23-2.68-.69s-1.09-1.08-1.29-1.87Z" style="fill:#1d1d1b;"/><path d="M245.77,194.3h2.02v1.13c.72-.88,1.59-1.32,2.59-1.32,.53,0,.99,.11,1.38,.33s.71,.55,.96,.99c.36-.44,.76-.77,1.18-.99s.87-.33,1.35-.33c.61,0,1.12,.12,1.55,.37s.74,.61,.95,1.09c.15,.35,.23,.93,.23,1.72v5.3h-2.2v-4.74c0-.82-.08-1.35-.23-1.59-.2-.31-.52-.47-.94-.47-.31,0-.6,.09-.87,.28s-.47,.46-.59,.82-.18,.93-.18,1.71v3.98h-2.2v-4.55c0-.81-.04-1.33-.12-1.56s-.2-.41-.36-.52-.39-.17-.67-.17c-.34,0-.64,.09-.91,.27s-.46,.45-.58,.79-.18,.91-.18,1.71v4.03h-2.2v-8.3Z" style="fill:#1d1d1b;"/><path d="M265.62,202.6v-1.24c-.3,.44-.7,.79-1.19,1.05s-1.01,.38-1.56,.38-1.06-.12-1.5-.37-.76-.59-.96-1.03-.3-1.05-.3-1.84v-5.25h2.2v3.81c0,1.17,.04,1.88,.12,2.14s.23,.47,.44,.62,.48,.23,.81,.23c.38,0,.71-.1,1.01-.31s.5-.46,.61-.77,.16-1.05,.16-2.24v-3.5h2.2v8.3h-2.04Z" style="fill:#1d1d1b;"/><path d="M269.16,200.23l2.2-.34c.09,.43,.28,.75,.57,.97s.69,.33,1.2,.33c.57,0,1-.1,1.28-.31,.19-.15,.29-.34,.29-.59,0-.17-.05-.3-.16-.41-.11-.1-.35-.2-.73-.29-1.77-.39-2.89-.75-3.37-1.07-.66-.45-.98-1.07-.98-1.87,0-.72,.28-1.32,.85-1.81s1.45-.73,2.64-.73,1.98,.18,2.53,.55,.93,.92,1.14,1.64l-2.07,.38c-.09-.32-.26-.57-.5-.74s-.6-.26-1.06-.26c-.58,0-.99,.08-1.24,.24-.17,.11-.25,.26-.25,.45,0,.16,.07,.29,.22,.4,.2,.15,.88,.35,2.05,.62s1.99,.59,2.45,.98c.46,.39,.69,.93,.69,1.63,0,.76-.32,1.41-.95,1.96s-1.58,.82-2.82,.82c-1.13,0-2.02-.23-2.68-.69s-1.09-1.08-1.29-1.87Z" style="fill:#1d1d1b;"/><path d="M277.66,202.79l2.84-11.84h1.65l-2.87,11.84h-1.62Z" style="fill:#1d1d1b;"/><path d="M283.29,202.6v-11.45h3.71c1.41,0,2.32,.06,2.75,.17,.66,.17,1.21,.55,1.65,1.12s.66,1.32,.66,2.23c0,.7-.13,1.29-.38,1.77s-.58,.86-.97,1.13-.79,.45-1.2,.54c-.55,.11-1.35,.16-2.4,.16h-1.51v4.32h-2.31Zm2.31-9.52v3.25h1.27c.91,0,1.52-.06,1.83-.18s.55-.31,.72-.56,.26-.55,.26-.89c0-.42-.12-.76-.37-1.03s-.55-.44-.93-.51c-.28-.05-.83-.08-1.66-.08h-1.12Z" style="fill:#1d1d1b;"/><path d="M292.99,194.3h1.22v-.62c0-.7,.07-1.22,.22-1.56s.42-.62,.82-.84,.9-.32,1.51-.32,1.24,.09,1.84,.28l-.3,1.53c-.35-.08-.68-.12-1.01-.12s-.55,.07-.68,.22-.21,.43-.21,.86v.59h1.64v1.73h-1.64v6.57h-2.2v-6.57h-1.22v-1.73Z" style="fill:#1d1d1b;"/><path d="M300.92,196.83l-1.99-.36c.22-.8,.61-1.4,1.16-1.78s1.36-.58,2.44-.58c.98,0,1.71,.12,2.19,.35s.82,.53,1.01,.88,.29,1.01,.29,1.96l-.02,2.56c0,.73,.04,1.27,.11,1.61s.2,.72,.39,1.11h-2.17c-.06-.15-.13-.36-.21-.65-.04-.13-.06-.22-.08-.26-.38,.36-.78,.64-1.2,.82s-.88,.27-1.37,.27c-.85,0-1.53-.23-2.02-.7s-.74-1.05-.74-1.76c0-.47,.11-.89,.34-1.25s.54-.65,.94-.84,.99-.37,1.75-.51c1.03-.19,1.74-.37,2.13-.54v-.22c0-.42-.1-.72-.31-.9s-.6-.27-1.18-.27c-.39,0-.7,.08-.91,.23s-.4,.42-.53,.81Zm2.94,1.78c-.28,.09-.73,.21-1.34,.34s-1.01,.26-1.2,.38c-.29,.2-.43,.46-.43,.77s.11,.57,.34,.8,.52,.34,.88,.34c.4,0,.77-.13,1.13-.39,.27-.2,.44-.44,.52-.73,.06-.19,.09-.54,.09-1.07v-.44Z" style="fill:#1d1d1b;"/><path d="M315.79,202.6h-2.04v-1.22c-.34,.47-.74,.83-1.2,1.06s-.93,.35-1.39,.35c-.95,0-1.77-.38-2.45-1.15s-1.02-1.84-1.02-3.21,.33-2.48,.99-3.21,1.5-1.1,2.51-1.1c.93,0,1.73,.39,2.41,1.16v-4.12h2.2v11.45Zm-5.86-4.33c0,.89,.12,1.53,.37,1.92,.35,.57,.85,.86,1.48,.86,.5,0,.93-.21,1.29-.64s.53-1.07,.53-1.93c0-.95-.17-1.64-.52-2.06s-.78-.63-1.32-.63-.96,.21-1.31,.62-.53,1.03-.53,1.86Z" style="fill:#1d1d1b;"/><path d="M318.37,196.5v-2.2h2.2v2.2h-2.2Zm0,6.1v-2.2h2.2v2.2h-2.2Z" style="fill:#1d1d1b;"/><path d="M173.33,228.6v-14.32h10.62v2.42h-7.72v3.17h7.19v2.41h-7.19v3.9h8v2.41h-10.89Z" style="fill:#0333ff;"/><path d="M185.33,228.6l3.74-5.34-3.58-5.03h3.35l1.84,2.85,1.93-2.85h3.22l-3.52,4.91,3.84,5.46h-3.37l-2.11-3.21-2.13,3.21h-3.21Z" style="fill:#0333ff;"/><path d="M203.78,225.3l2.73,.46c-.35,1-.91,1.77-1.67,2.29s-1.71,.79-2.85,.79c-1.8,0-3.14-.59-4-1.77-.68-.94-1.03-2.14-1.03-3.57,0-1.72,.45-3.06,1.35-4.04s2.03-1.46,3.41-1.46c1.54,0,2.76,.51,3.65,1.53s1.32,2.58,1.28,4.68h-6.88c.02,.81,.24,1.45,.66,1.9s.95,.68,1.58,.68c.43,0,.79-.12,1.08-.35s.51-.61,.66-1.13Zm.16-2.77c-.02-.79-.22-1.4-.62-1.81s-.87-.62-1.43-.62c-.6,0-1.09,.22-1.48,.65s-.58,1.03-.58,1.78h4.1Z" style="fill:#0333ff;"/><path d="M217.94,221.29l-2.71,.49c-.09-.54-.3-.95-.62-1.22s-.74-.41-1.25-.41c-.68,0-1.23,.24-1.64,.71s-.61,1.26-.61,2.37c0,1.23,.21,2.1,.62,2.61s.97,.76,1.67,.76c.52,0,.95-.15,1.28-.44s.57-.81,.7-1.53l2.7,.46c-.28,1.24-.82,2.17-1.61,2.8s-1.86,.95-3.19,.95c-1.52,0-2.73-.48-3.63-1.44s-1.35-2.28-1.35-3.97,.45-3.04,1.36-4,2.13-1.43,3.67-1.43c1.26,0,2.27,.27,3.01,.82s1.28,1.37,1.61,2.49Z" style="fill:#0333ff;"/><path d="M226.84,228.6v-1.55c-.38,.55-.87,.99-1.49,1.31s-1.26,.48-1.95,.48-1.32-.15-1.88-.46-.95-.74-1.2-1.29-.37-1.32-.37-2.29v-6.56h2.74v4.77c0,1.46,.05,2.35,.15,2.68s.29,.59,.55,.78,.61,.29,1.02,.29c.47,0,.89-.13,1.26-.39s.62-.58,.76-.96,.21-1.31,.21-2.8v-4.38h2.74v10.37h-2.55Z" style="fill:#0333ff;"/><path d="M236.99,218.23v2.19h-1.88v4.18c0,.85,.02,1.34,.05,1.48s.12,.26,.24,.35,.28,.14,.46,.14c.25,0,.62-.09,1.1-.26l.23,2.13c-.64,.27-1.36,.41-2.17,.41-.5,0-.94-.08-1.34-.25s-.69-.38-.87-.64-.31-.62-.39-1.07c-.06-.32-.09-.96-.09-1.93v-4.52h-1.26v-2.19h1.26v-2.06l2.75-1.6v3.66h1.88Z" style="fill:#0333ff;"/><path d="M238.89,216.82v-2.54h2.74v2.54h-2.74Zm0,11.78v-10.37h2.74v10.37h-2.74Z" style="fill:#0333ff;"/><path d="M243.81,223.27c0-.91,.22-1.79,.67-2.65s1.09-1.5,1.91-1.95,1.74-.67,2.76-.67c1.57,0,2.85,.51,3.86,1.53s1.5,2.31,1.5,3.86-.51,2.87-1.52,3.9-2.29,1.55-3.82,1.55c-.95,0-1.86-.21-2.72-.64s-1.52-1.06-1.97-1.89-.67-1.84-.67-3.03Zm2.81,.15c0,1.03,.24,1.82,.73,2.36s1.09,.82,1.81,.82,1.32-.27,1.8-.82,.73-1.34,.73-2.38-.24-1.8-.73-2.34-1.09-.82-1.8-.82-1.32,.27-1.81,.82-.73,1.33-.73,2.36Z" style="fill:#0333ff;"/><path d="M266.1,228.6h-2.74v-5.29c0-1.12-.06-1.84-.18-2.17s-.31-.58-.57-.77-.58-.27-.95-.27c-.48,0-.9,.13-1.28,.39s-.64,.61-.78,1.04-.21,1.22-.21,2.38v4.7h-2.74v-10.37h2.55v1.52c.91-1.17,2.04-1.76,3.42-1.76,.61,0,1.16,.11,1.66,.33s.88,.5,1.14,.83,.44,.72,.54,1.15,.15,1.04,.15,1.85v6.45Z" style="fill:#0333ff;"/></g><g><rect x="284.5" y="65" width="156" height="100" style="fill:none; stroke:#000; stroke-dasharray:0 0 4 4; stroke-miterlimit:8;"/><g><rect x="53.5" y="55" width="156" height="120" style="fill:#fff; stroke:#0333ff; stroke-miterlimit:8; stroke-width:2px;"/><g><path d="M73.97,96.4h2.31v6.2c0,.98,.03,1.62,.09,1.91,.1,.47,.33,.84,.71,1.13s.88,.43,1.53,.43,1.15-.13,1.48-.4,.53-.6,.6-.99,.1-1.04,.1-1.95v-6.34h2.31v6.02c0,1.38-.06,2.35-.19,2.91s-.36,1.05-.69,1.44-.79,.7-1.35,.93-1.3,.35-2.2,.35c-1.09,0-1.92-.13-2.49-.38s-1.01-.58-1.34-.98-.54-.83-.65-1.27c-.15-.66-.23-1.62-.23-2.91v-6.11Z" style="fill:#0333ff;"/><path d="M93.07,107.85h-2.2v-4.23c0-.9-.05-1.48-.14-1.74s-.25-.47-.46-.61-.46-.22-.76-.22c-.38,0-.72,.1-1.02,.31s-.51,.48-.62,.83-.17,.98-.17,1.91v3.76h-2.2v-8.3h2.04v1.22c.72-.94,1.64-1.41,2.73-1.41,.48,0,.93,.09,1.33,.26s.7,.4,.91,.67,.35,.58,.43,.92,.12,.84,.12,1.48v5.16Z" style="fill:#0333ff;"/><path d="M99.11,99.55v1.75h-1.5v3.34c0,.68,.01,1.07,.04,1.18s.09,.2,.2,.28,.23,.11,.37,.11c.2,0,.5-.07,.88-.21l.19,1.7c-.51,.22-1.09,.33-1.73,.33-.4,0-.75-.07-1.07-.2s-.55-.3-.7-.52-.25-.5-.31-.86c-.05-.25-.07-.77-.07-1.55v-3.62h-1.01v-1.75h1.01v-1.65l2.2-1.28v2.93h1.5Z" style="fill:#0333ff;"/><path d="M105.43,105.21l2.19,.37c-.28,.8-.73,1.41-1.33,1.83s-1.37,.63-2.28,.63c-1.44,0-2.51-.47-3.2-1.41-.55-.75-.82-1.71-.82-2.86,0-1.38,.36-2.45,1.08-3.23s1.63-1.17,2.73-1.17c1.23,0,2.21,.41,2.92,1.22s1.05,2.06,1.02,3.75h-5.5c.02,.65,.19,1.16,.53,1.52s.76,.54,1.27,.54c.34,0,.63-.09,.87-.28s.41-.49,.53-.91Zm.12-2.22c-.02-.64-.18-1.12-.49-1.45s-.69-.5-1.14-.5c-.48,0-.88,.17-1.19,.52s-.47,.82-.46,1.42h3.28Z" style="fill:#0333ff;"/><path d="M111.63,107.85h-2.2v-8.3h2.04v1.18c.35-.56,.66-.92,.94-1.1s.59-.27,.95-.27c.5,0,.98,.14,1.45,.41l-.68,1.91c-.37-.24-.71-.36-1.03-.36s-.57,.08-.78,.25-.38,.48-.5,.92-.18,1.37-.18,2.78v2.56Z" style="fill:#0333ff;"/><path d="M123.3,107.85h-2.2v-4.23c0-.9-.05-1.48-.14-1.74s-.25-.47-.46-.61-.46-.22-.76-.22c-.38,0-.72,.1-1.02,.31s-.51,.48-.62,.83-.17,.98-.17,1.91v3.76h-2.2v-8.3h2.04v1.22c.72-.94,1.64-1.41,2.73-1.41,.48,0,.93,.09,1.33,.26s.7,.4,.91,.67,.35,.58,.43,.92,.12,.84,.12,1.48v5.16Z" style="fill:#0333ff;"/><path d="M130.33,105.21l2.19,.37c-.28,.8-.73,1.41-1.33,1.83s-1.37,.63-2.28,.63c-1.44,0-2.51-.47-3.2-1.41-.55-.75-.82-1.71-.82-2.86,0-1.38,.36-2.45,1.08-3.23s1.63-1.17,2.73-1.17c1.23,0,2.21,.41,2.92,1.22s1.05,2.06,1.02,3.75h-5.5c.02,.65,.19,1.16,.53,1.52s.76,.54,1.27,.54c.34,0,.63-.09,.87-.28s.41-.49,.53-.91Zm.12-2.22c-.02-.64-.18-1.12-.49-1.45s-.69-.5-1.14-.5c-.48,0-.88,.17-1.19,.52s-.47,.82-.46,1.42h3.28Z" style="fill:#0333ff;"/><path d="M136.61,96.4v4.21c.71-.83,1.55-1.24,2.54-1.24,.5,0,.96,.09,1.37,.28s.71,.43,.92,.72,.35,.61,.42,.97,.11,.9,.11,1.65v4.87h-2.2v-4.38c0-.87-.04-1.42-.12-1.66s-.23-.42-.44-.56-.48-.21-.79-.21c-.36,0-.69,.09-.98,.27s-.5,.44-.63,.8-.2,.88-.2,1.58v4.16h-2.2v-11.45h2.2Z" style="fill:#0333ff;"/><path d="M144.04,99.55h2.02v1.13c.72-.88,1.59-1.32,2.59-1.32,.53,0,.99,.11,1.38,.33s.71,.55,.96,.99c.36-.44,.76-.77,1.18-.99s.87-.33,1.35-.33c.61,0,1.12,.12,1.55,.37s.74,.61,.95,1.09c.15,.35,.23,.93,.23,1.72v5.3h-2.2v-4.74c0-.82-.08-1.35-.23-1.59-.2-.31-.52-.47-.94-.47-.31,0-.6,.09-.87,.28s-.47,.46-.59,.82-.18,.93-.18,1.71v3.98h-2.2v-4.55c0-.81-.04-1.33-.12-1.56s-.2-.41-.36-.52-.39-.17-.67-.17c-.34,0-.64,.09-.91,.27s-.46,.45-.58,.79-.18,.91-.18,1.71v4.03h-2.2v-8.3Z" style="fill:#0333ff;"/><path d="M163.23,105.21l2.19,.37c-.28,.8-.73,1.41-1.33,1.83s-1.37,.63-2.28,.63c-1.44,0-2.51-.47-3.2-1.41-.55-.75-.82-1.71-.82-2.86,0-1.38,.36-2.45,1.08-3.23s1.63-1.17,2.73-1.17c1.23,0,2.21,.41,2.92,1.22s1.05,2.06,1.02,3.75h-5.5c.02,.65,.19,1.16,.53,1.52s.76,.54,1.27,.54c.34,0,.63-.09,.87-.28s.41-.49,.53-.91Zm.12-2.22c-.02-.64-.18-1.12-.49-1.45s-.69-.5-1.14-.5c-.48,0-.88,.17-1.19,.52s-.47,.82-.46,1.42h3.28Z" style="fill:#0333ff;"/><path d="M174.87,107.85h-2.2v-4.23c0-.9-.05-1.48-.14-1.74s-.25-.47-.46-.61-.46-.22-.76-.22c-.38,0-.72,.1-1.02,.31s-.51,.48-.62,.83-.17,.98-.17,1.91v3.76h-2.2v-8.3h2.04v1.22c.72-.94,1.64-1.41,2.73-1.41,.48,0,.93,.09,1.33,.26s.7,.4,.91,.67,.35,.58,.43,.92,.12,.84,.12,1.48v5.16Z" style="fill:#0333ff;"/><path d="M176.32,105.48l2.2-.34c.09,.43,.28,.75,.57,.97s.69,.33,1.2,.33c.57,0,1-.1,1.28-.31,.19-.15,.29-.34,.29-.59,0-.17-.05-.3-.16-.41-.11-.1-.35-.2-.73-.29-1.77-.39-2.89-.75-3.37-1.07-.66-.45-.98-1.07-.98-1.87,0-.72,.28-1.32,.85-1.81s1.45-.73,2.64-.73,1.98,.18,2.53,.55,.93,.92,1.14,1.64l-2.07,.38c-.09-.32-.26-.57-.5-.74s-.6-.26-1.06-.26c-.58,0-.99,.08-1.24,.24-.17,.11-.25,.26-.25,.45,0,.16,.07,.29,.22,.4,.2,.15,.88,.35,2.05,.62s1.99,.59,2.45,.98c.46,.39,.69,.93,.69,1.63,0,.76-.32,1.41-.95,1.96s-1.58,.82-2.82,.82c-1.13,0-2.02-.23-2.68-.69s-1.09-1.08-1.29-1.87Z" style="fill:#0333ff;"/><path d="M185.75,104.8v-2.2h4.31v2.2h-4.31Z" style="fill:#0333ff;"/><path d="M98.53,127.48l2.2-.34c.09,.43,.28,.75,.57,.97s.69,.33,1.2,.33c.57,0,1-.1,1.28-.31,.19-.15,.29-.34,.29-.59,0-.17-.05-.3-.16-.41-.11-.1-.35-.2-.73-.29-1.77-.39-2.89-.75-3.37-1.07-.66-.45-.98-1.07-.98-1.87,0-.72,.28-1.32,.85-1.81s1.45-.73,2.64-.73,1.98,.18,2.53,.55,.93,.92,1.14,1.64l-2.07,.38c-.09-.32-.26-.57-.5-.74s-.6-.26-1.06-.26c-.58,0-.99,.08-1.24,.24-.17,.11-.25,.26-.25,.45,0,.16,.07,.29,.22,.4,.2,.15,.88,.35,2.05,.62s1.99,.59,2.45,.98c.46,.39,.69,.93,.69,1.63,0,.76-.32,1.41-.95,1.96s-1.58,.82-2.82,.82c-1.13,0-2.02-.23-2.68-.69s-1.09-1.08-1.29-1.87Z" style="fill:#0333ff;"/><path d="M112,121.55v1.75h-1.5v3.34c0,.68,.01,1.07,.04,1.18s.09,.2,.2,.28,.23,.11,.37,.11c.2,0,.5-.07,.88-.21l.19,1.7c-.51,.22-1.09,.33-1.73,.33-.4,0-.75-.07-1.07-.2s-.55-.3-.7-.52-.25-.5-.31-.86c-.05-.25-.07-.77-.07-1.55v-3.62h-1.01v-1.75h1.01v-1.65l2.2-1.28v2.93h1.5Z" style="fill:#0333ff;"/><path d="M115.63,129.85h-2.2v-8.3h2.04v1.18c.35-.56,.66-.92,.94-1.1s.59-.27,.95-.27c.5,0,.98,.14,1.45,.41l-.68,1.91c-.37-.24-.71-.36-1.03-.36s-.57,.08-.78,.25-.38,.48-.5,.92-.18,1.37-.18,2.78v2.56Z" style="fill:#0333ff;"/><path d="M121.39,124.09l-1.99-.36c.22-.8,.61-1.4,1.16-1.78s1.36-.58,2.44-.58c.98,0,1.71,.12,2.19,.35s.82,.53,1.01,.88,.29,1.01,.29,1.96l-.02,2.56c0,.73,.04,1.27,.11,1.61s.2,.72,.39,1.11h-2.17c-.06-.15-.13-.36-.21-.65-.04-.13-.06-.22-.08-.26-.38,.36-.78,.64-1.2,.82s-.88,.27-1.37,.27c-.85,0-1.53-.23-2.02-.7s-.74-1.05-.74-1.76c0-.47,.11-.89,.34-1.25s.54-.65,.94-.84,.99-.37,1.75-.51c1.03-.19,1.74-.37,2.13-.54v-.22c0-.42-.1-.72-.31-.9s-.6-.27-1.18-.27c-.39,0-.7,.08-.91,.23s-.4,.42-.53,.81Zm2.94,1.78c-.28,.09-.73,.21-1.34,.34s-1.01,.26-1.2,.38c-.29,.2-.43,.46-.43,.77s.11,.57,.34,.8,.52,.34,.88,.34c.4,0,.77-.13,1.13-.39,.27-.2,.44-.44,.52-.73,.06-.19,.09-.54,.09-1.07v-.44Z" style="fill:#0333ff;"/><path d="M132.46,121.55v1.75h-1.5v3.34c0,.68,.01,1.07,.04,1.18s.09,.2,.2,.28,.23,.11,.37,.11c.2,0,.5-.07,.88-.21l.19,1.7c-.51,.22-1.09,.33-1.73,.33-.4,0-.75-.07-1.07-.2s-.55-.3-.7-.52-.25-.5-.31-.86c-.05-.25-.07-.77-.07-1.55v-3.62h-1.01v-1.75h1.01v-1.65l2.2-1.28v2.93h1.5Z" style="fill:#0333ff;"/><path d="M138.79,127.21l2.19,.37c-.28,.8-.73,1.41-1.33,1.83s-1.37,.63-2.28,.63c-1.44,0-2.51-.47-3.2-1.41-.55-.75-.82-1.71-.82-2.86,0-1.38,.36-2.45,1.08-3.23s1.63-1.17,2.73-1.17c1.23,0,2.21,.41,2.92,1.22s1.05,2.06,1.02,3.75h-5.5c.02,.65,.19,1.16,.53,1.52s.76,.54,1.27,.54c.34,0,.63-.09,.87-.28s.41-.49,.53-.91Zm.12-2.22c-.02-.64-.18-1.12-.49-1.45s-.69-.5-1.14-.5c-.48,0-.88,.17-1.19,.52s-.47,.82-.46,1.42h3.28Z" style="fill:#0333ff;"/><path d="M142.68,130.4l2.51,.3c.04,.29,.14,.49,.29,.6,.21,.16,.54,.23,.98,.23,.57,0,1-.09,1.29-.26,.19-.11,.34-.3,.44-.55,.07-.18,.1-.52,.1-1.01v-1.21c-.66,.9-1.48,1.34-2.48,1.34-1.11,0-2-.47-2.65-1.41-.51-.75-.77-1.67-.77-2.78,0-1.39,.33-2.45,1-3.19s1.5-1.1,2.5-1.1,1.87,.45,2.54,1.35v-1.16h2.05v7.45c0,.98-.08,1.71-.24,2.2s-.39,.86-.68,1.14-.68,.49-1.17,.65-1.1,.23-1.85,.23c-1.41,0-2.4-.24-2.99-.72s-.88-1.09-.88-1.83c0-.07,0-.16,0-.27Zm1.96-4.87c0,.88,.17,1.52,.51,1.93s.76,.61,1.26,.61c.54,0,.99-.21,1.36-.63s.55-1.04,.55-1.86-.18-1.5-.53-1.91-.8-.62-1.34-.62-.96,.2-1.3,.61-.51,1.03-.51,1.87Z" style="fill:#0333ff;"/><path d="M152.65,120.43v-2.03h2.2v2.03h-2.2Zm0,9.42v-8.3h2.2v8.3h-2.2Z" style="fill:#0333ff;"/><path d="M161.9,127.21l2.19,.37c-.28,.8-.73,1.41-1.33,1.83s-1.37,.63-2.28,.63c-1.44,0-2.51-.47-3.2-1.41-.55-.75-.82-1.71-.82-2.86,0-1.38,.36-2.45,1.08-3.23s1.63-1.17,2.73-1.17c1.23,0,2.21,.41,2.92,1.22s1.05,2.06,1.02,3.75h-5.5c.02,.65,.19,1.16,.53,1.52s.76,.54,1.27,.54c.34,0,.63-.09,.87-.28s.41-.49,.53-.91Zm.12-2.22c-.02-.64-.18-1.12-.49-1.45s-.69-.5-1.14-.5c-.48,0-.88,.17-1.19,.52s-.47,.82-.46,1.42h3.28Z" style="fill:#0333ff;"/></g></g><rect x="53.5" y="250" width="156" height="120" style="fill:#fff; stroke:#000; stroke-miterlimit:8; stroke-width:2px;"/><g><path d="M322.64,118.85v-11.45h1.52v11.45h-1.52Z" style="fill:#1d1d1b;"/><path d="M329.74,118.85v-10.1h-3.77v-1.35h9.08v1.35h-3.79v10.1h-1.52Z" style="fill:#1d1d1b;"/><path d="M334.99,115.41v-1.41h4.32v1.41h-4.32Z" style="fill:#1d1d1b;"/><path d="M340.53,115.17l1.43-.12c.07,.57,.23,1.04,.47,1.41s.63,.66,1.15,.89,1.11,.34,1.76,.34c.58,0,1.09-.09,1.53-.26s.77-.41,.99-.71,.32-.63,.32-.98-.1-.67-.31-.94-.55-.49-1.03-.68c-.31-.12-.99-.31-2.04-.56s-1.79-.49-2.21-.71c-.55-.29-.95-.64-1.22-1.07s-.4-.9-.4-1.43c0-.58,.16-1.12,.49-1.62s.81-.88,1.44-1.14,1.33-.39,2.1-.39c.85,0,1.6,.14,2.25,.41s1.15,.68,1.5,1.21,.54,1.13,.56,1.8l-1.45,.11c-.08-.72-.34-1.27-.79-1.64s-1.12-.55-2-.55-1.58,.17-2,.5-.63,.74-.63,1.21c0,.41,.15,.75,.45,1.02,.29,.27,1.05,.54,2.29,.82s2.08,.52,2.54,.73c.67,.31,1.16,.7,1.48,1.17s.48,1.01,.48,1.63-.17,1.18-.52,1.72-.85,.96-1.5,1.26-1.39,.45-2.21,.45c-1.04,0-1.91-.15-2.61-.45s-1.25-.76-1.65-1.36-.61-1.29-.63-2.06Z" style="fill:#1d1d1b;"/><path d="M354.61,117.59l.2,1.24c-.4,.08-.75,.12-1.06,.12-.51,0-.91-.08-1.19-.24s-.48-.37-.59-.64-.17-.82-.17-1.66v-4.77h-1.03v-1.09h1.03v-2.05l1.4-.84v2.9h1.41v1.09h-1.41v4.85c0,.4,.02,.66,.07,.77s.13,.21,.24,.27,.27,.1,.48,.1c.16,0,.36-.02,.62-.05Z" style="fill:#1d1d1b;"/><path d="M355.97,118.85v-8.3h1.27v1.26c.32-.59,.62-.98,.89-1.16s.57-.28,.9-.28c.47,0,.96,.15,1.45,.45l-.48,1.3c-.34-.2-.69-.3-1.03-.3-.31,0-.58,.09-.83,.28s-.42,.44-.52,.77c-.16,.5-.23,1.05-.23,1.64v4.34h-1.41Z" style="fill:#1d1d1b;"/><path d="M366.73,117.83c-.52,.44-1.02,.75-1.5,.94s-1,.27-1.55,.27c-.91,0-1.61-.22-2.1-.67s-.73-1.01-.73-1.71c0-.41,.09-.78,.28-1.11s.43-.61,.73-.81,.64-.36,1.01-.46c.28-.07,.69-.14,1.25-.21,1.14-.14,1.97-.3,2.51-.48,0-.19,0-.32,0-.37,0-.57-.13-.98-.4-1.21-.36-.32-.89-.48-1.6-.48-.66,0-1.15,.12-1.46,.35s-.55,.64-.7,1.23l-1.38-.19c.12-.59,.33-1.06,.62-1.43s.7-.64,1.24-.84,1.17-.29,1.88-.29,1.28,.08,1.73,.25,.77,.38,.98,.63,.35,.57,.44,.96c.05,.24,.07,.67,.07,1.3v1.88c0,1.31,.03,2.13,.09,2.48s.18,.68,.36,1h-1.47c-.15-.29-.24-.63-.28-1.02Zm-.12-3.14c-.51,.21-1.28,.39-2.3,.53-.58,.08-.99,.18-1.23,.28s-.42,.26-.55,.46-.2,.42-.2,.67c0,.38,.14,.69,.43,.94s.7,.38,1.25,.38,1.02-.12,1.45-.36,.73-.56,.93-.97c.15-.32,.23-.79,.23-1.41v-.52Z" style="fill:#1d1d1b;"/><path d="M373.28,117.59l.2,1.24c-.4,.08-.75,.12-1.06,.12-.51,0-.91-.08-1.19-.24s-.48-.37-.59-.64-.17-.82-.17-1.66v-4.77h-1.03v-1.09h1.03v-2.05l1.4-.84v2.9h1.41v1.09h-1.41v4.85c0,.4,.02,.66,.07,.77s.13,.21,.24,.27,.27,.1,.48,.1c.16,0,.36-.02,.62-.05Z" style="fill:#1d1d1b;"/><path d="M380.34,116.18l1.45,.18c-.23,.85-.65,1.51-1.27,1.98s-1.41,.7-2.38,.7c-1.21,0-2.18-.37-2.89-1.12s-1.07-1.8-1.07-3.14,.36-2.48,1.08-3.25,1.65-1.16,2.8-1.16,2.02,.38,2.72,1.13,1.05,1.82,1.05,3.19c0,.08,0,.21,0,.38h-6.19c.05,.91,.31,1.61,.77,2.09s1.04,.73,1.73,.73c.52,0,.96-.14,1.32-.41s.65-.7,.87-1.3Zm-4.62-2.27h4.63c-.06-.7-.24-1.22-.53-1.57-.45-.54-1.03-.81-1.74-.81-.65,0-1.19,.22-1.63,.65s-.68,1.01-.73,1.73Z" style="fill:#1d1d1b;"/><path d="M383.3,119.54l1.37,.2c.06,.42,.22,.73,.48,.92,.35,.26,.83,.39,1.43,.39,.65,0,1.15-.13,1.51-.39s.59-.62,.72-1.09c.07-.29,.11-.89,.1-1.8-.61,.72-1.38,1.09-2.3,1.09-1.14,0-2.02-.41-2.65-1.23s-.94-1.81-.94-2.96c0-.79,.14-1.52,.43-2.19s.7-1.19,1.25-1.55,1.18-.55,1.92-.55c.98,0,1.79,.4,2.42,1.19v-1h1.3v7.17c0,1.29-.13,2.21-.39,2.75s-.68,.96-1.25,1.28-1.27,.47-2.11,.47c-.99,0-1.79-.22-2.4-.67s-.9-1.12-.88-2.01Zm1.16-4.98c0,1.09,.22,1.88,.65,2.38s.97,.75,1.62,.75,1.19-.25,1.62-.75,.66-1.28,.66-2.34-.23-1.78-.68-2.3-.99-.77-1.63-.77-1.16,.25-1.59,.76-.66,1.26-.66,2.26Z" style="fill:#1d1d1b;"/><path d="M392.46,109.02v-1.62h1.41v1.62h-1.41Zm0,9.84v-8.3h1.41v8.3h-1.41Z" style="fill:#1d1d1b;"/><path d="M401.69,116.18l1.45,.18c-.23,.85-.65,1.51-1.27,1.98s-1.41,.7-2.38,.7c-1.21,0-2.18-.37-2.89-1.12s-1.07-1.8-1.07-3.14,.36-2.48,1.08-3.25,1.65-1.16,2.8-1.16,2.02,.38,2.72,1.13,1.05,1.82,1.05,3.19c0,.08,0,.21,0,.38h-6.19c.05,.91,.31,1.61,.77,2.09s1.04,.73,1.73,.73c.52,0,.96-.14,1.32-.41s.65-.7,.87-1.3Zm-4.62-2.27h4.63c-.06-.7-.24-1.22-.53-1.57-.45-.54-1.03-.81-1.74-.81-.65,0-1.19,.22-1.63,.65s-.68,1.01-.73,1.73Z" style="fill:#1d1d1b;"/></g><g><rect x="284.5" y="250" width="156" height="120" style="fill:#fff; stroke:#000; stroke-miterlimit:8; stroke-width:2px;"/><g><path d="M306.7,302.85v-11.45h2.31v11.45h-2.31Z" style="fill:#1d1d1b;"/><path d="M313.79,302.85v-9.52h-3.4v-1.94h9.1v1.94h-3.39v9.52h-2.31Z" style="fill:#1d1d1b;"/><path d="M319.84,299.8v-2.2h4.31v2.2h-4.31Z" style="fill:#1d1d1b;"/><path d="M325.36,302.85v-11.45h2.31v11.45h-2.31Z" style="fill:#1d1d1b;"/><path d="M337.41,302.85h-2.2v-4.23c0-.9-.05-1.48-.14-1.74s-.25-.47-.46-.61-.46-.22-.76-.22c-.38,0-.72,.1-1.02,.31s-.51,.48-.62,.83-.17,.98-.17,1.91v3.76h-2.2v-8.3h2.04v1.22c.72-.94,1.64-1.41,2.73-1.41,.48,0,.93,.09,1.33,.26s.7,.4,.91,.67,.35,.58,.43,.92,.12,.84,.12,1.48v5.16Z" style="fill:#1d1d1b;"/><path d="M338.68,294.55h1.22v-.62c0-.7,.07-1.22,.22-1.56s.42-.62,.82-.84,.9-.32,1.51-.32,1.24,.09,1.84,.28l-.3,1.53c-.35-.08-.68-.12-1.01-.12s-.55,.07-.68,.22-.21,.43-.21,.86v.59h1.64v1.73h-1.64v6.57h-2.2v-6.57h-1.22v-1.73Z" style="fill:#1d1d1b;"/><path d="M347.07,302.85h-2.2v-8.3h2.04v1.18c.35-.56,.66-.92,.94-1.1s.59-.27,.95-.27c.5,0,.98,.14,1.45,.41l-.68,1.91c-.37-.24-.71-.36-1.03-.36s-.57,.08-.78,.25-.38,.48-.5,.92-.18,1.37-.18,2.78v2.56Z" style="fill:#1d1d1b;"/><path d="M352.83,297.09l-1.99-.36c.22-.8,.61-1.4,1.16-1.78s1.36-.58,2.44-.58c.98,0,1.71,.12,2.19,.35s.82,.53,1.01,.88,.29,1.01,.29,1.96l-.02,2.56c0,.73,.04,1.27,.11,1.61s.2,.72,.39,1.11h-2.17c-.06-.15-.13-.36-.21-.65-.04-.13-.06-.22-.08-.26-.38,.36-.78,.64-1.2,.82s-.88,.27-1.37,.27c-.85,0-1.53-.23-2.02-.7s-.74-1.05-.74-1.76c0-.47,.11-.89,.34-1.25s.54-.65,.94-.84,.99-.37,1.75-.51c1.03-.19,1.74-.37,2.13-.54v-.22c0-.42-.1-.72-.31-.9s-.6-.27-1.18-.27c-.39,0-.7,.08-.91,.23s-.4,.42-.53,.81Zm2.94,1.78c-.28,.09-.73,.21-1.34,.34s-1.01,.26-1.2,.38c-.29,.2-.43,.46-.43,.77s.11,.57,.34,.8,.52,.34,.88,.34c.4,0,.77-.13,1.13-.39,.27-.2,.44-.44,.52-.73,.06-.19,.09-.54,.09-1.07v-.44Z" style="fill:#1d1d1b;"/><path d="M359.32,300.48l2.2-.34c.09,.43,.28,.75,.57,.97s.69,.33,1.2,.33c.57,0,1-.1,1.28-.31,.19-.15,.29-.34,.29-.59,0-.17-.05-.3-.16-.41-.11-.1-.35-.2-.73-.29-1.77-.39-2.89-.75-3.37-1.07-.66-.45-.98-1.07-.98-1.87,0-.72,.28-1.32,.85-1.81s1.45-.73,2.64-.73,1.98,.18,2.53,.55,.93,.92,1.14,1.64l-2.07,.38c-.09-.32-.26-.57-.5-.74s-.6-.26-1.06-.26c-.58,0-.99,.08-1.24,.24-.17,.11-.25,.26-.25,.45,0,.16,.07,.29,.22,.4,.2,.15,.88,.35,2.05,.62s1.99,.59,2.45,.98c.46,.39,.69,.93,.69,1.63,0,.76-.32,1.41-.95,1.96s-1.58,.82-2.82,.82c-1.13,0-2.02-.23-2.68-.69s-1.09-1.08-1.29-1.87Z" style="fill:#1d1d1b;"/><path d="M372.79,294.55v1.75h-1.5v3.34c0,.68,.01,1.07,.04,1.18s.09,.2,.2,.28,.23,.11,.37,.11c.2,0,.5-.07,.88-.21l.19,1.7c-.51,.22-1.09,.33-1.73,.33-.4,0-.75-.07-1.07-.2s-.55-.3-.7-.52-.25-.5-.31-.86c-.05-.25-.07-.77-.07-1.55v-3.62h-1.01v-1.75h1.01v-1.65l2.2-1.28v2.93h1.5Z" style="fill:#1d1d1b;"/><path d="M376.42,302.85h-2.2v-8.3h2.04v1.18c.35-.56,.66-.92,.94-1.1s.59-.27,.95-.27c.5,0,.98,.14,1.45,.41l-.68,1.91c-.37-.24-.71-.36-1.03-.36s-.57,.08-.78,.25-.38,.48-.5,.92-.18,1.37-.18,2.78v2.56Z" style="fill:#1d1d1b;"/><path d="M386,302.85v-1.24c-.3,.44-.7,.79-1.19,1.05s-1.01,.38-1.56,.38-1.06-.12-1.5-.37-.76-.59-.96-1.03-.3-1.05-.3-1.84v-5.25h2.2v3.81c0,1.17,.04,1.88,.12,2.14s.23,.47,.44,.62,.48,.23,.81,.23c.38,0,.71-.1,1.01-.31s.5-.46,.61-.77,.16-1.05,.16-2.24v-3.5h2.2v8.3h-2.04Z" style="fill:#1d1d1b;"/><path d="M390.24,302.85v-11.45h2.2v6.08l2.57-2.92h2.7l-2.84,3.03,3.04,5.27h-2.37l-2.09-3.73-1.02,1.07v2.66h-2.2Z" style="fill:#1d1d1b;"/><path d="M403.02,294.55v1.75h-1.5v3.34c0,.68,.01,1.07,.04,1.18s.09,.2,.2,.28,.23,.11,.37,.11c.2,0,.5-.07,.88-.21l.19,1.7c-.51,.22-1.09,.33-1.73,.33-.4,0-.75-.07-1.07-.2s-.55-.3-.7-.52-.25-.5-.31-.86c-.05-.25-.07-.77-.07-1.55v-3.62h-1.01v-1.75h1.01v-1.65l2.2-1.28v2.93h1.5Z" style="fill:#1d1d1b;"/><path d="M410,302.85v-1.24c-.3,.44-.7,.79-1.19,1.05s-1.01,.38-1.56,.38-1.06-.12-1.5-.37-.76-.59-.96-1.03-.3-1.05-.3-1.84v-5.25h2.2v3.81c0,1.17,.04,1.88,.12,2.14s.23,.47,.44,.62,.48,.23,.81,.23c.38,0,.71-.1,1.01-.31s.5-.46,.61-.77,.16-1.05,.16-2.24v-3.5h2.2v8.3h-2.04Z" style="fill:#1d1d1b;"/><path d="M416.42,302.85h-2.2v-8.3h2.04v1.18c.35-.56,.66-.92,.94-1.1s.59-.27,.95-.27c.5,0,.98,.14,1.45,.41l-.68,1.91c-.37-.24-.71-.36-1.03-.36s-.57,.08-.78,.25-.38,.48-.5,.92-.18,1.37-.18,2.78v2.56Z" style="fill:#1d1d1b;"/><path d="M307.76,324.85v-1.24c-.3,.44-.7,.79-1.19,1.05s-1.01,.38-1.56,.38-1.06-.12-1.5-.37-.76-.59-.96-1.03-.3-1.05-.3-1.84v-5.25h2.2v3.81c0,1.17,.04,1.88,.12,2.14s.23,.47,.44,.62,.48,.23,.81,.23c.38,0,.71-.1,1.01-.31s.5-.46,.61-.77,.16-1.05,.16-2.24v-3.5h2.2v8.3h-2.04Z" style="fill:#1d1d1b;"/><path d="M319.62,324.85h-2.2v-4.23c0-.9-.05-1.48-.14-1.74s-.25-.47-.46-.61-.46-.22-.76-.22c-.38,0-.72,.1-1.02,.31s-.51,.48-.62,.83-.17,.98-.17,1.91v3.76h-2.2v-8.3h2.04v1.22c.72-.94,1.64-1.41,2.73-1.41,.48,0,.93,.09,1.33,.26s.7,.4,.91,.67,.35,.58,.43,.92,.12,.84,.12,1.48v5.16Z" style="fill:#1d1d1b;"/><path d="M329.46,324.85h-2.04v-1.22c-.34,.47-.74,.83-1.2,1.06s-.93,.35-1.39,.35c-.95,0-1.77-.38-2.45-1.15s-1.02-1.84-1.02-3.21,.33-2.48,.99-3.21,1.5-1.1,2.51-1.1c.93,0,1.73,.39,2.41,1.16v-4.12h2.2v11.45Zm-5.86-4.33c0,.89,.12,1.53,.37,1.92,.35,.57,.85,.86,1.48,.86,.5,0,.93-.21,1.29-.64s.53-1.07,.53-1.93c0-.95-.17-1.64-.52-2.06s-.78-.63-1.32-.63-.96,.21-1.31,.62-.53,1.03-.53,1.86Z" style="fill:#1d1d1b;"/><path d="M336.01,324.85v-11.45h2.31v11.45h-2.31Z" style="fill:#1d1d1b;"/><path d="M343.11,324.85v-9.52h-3.4v-1.94h9.1v1.94h-3.39v9.52h-2.31Z" style="fill:#1d1d1b;"/><path d="M349.15,321.8v-2.2h4.31v2.2h-4.31Z" style="fill:#1d1d1b;"/><path d="M354.75,324.85v-11.45h3.71c1.41,0,2.32,.06,2.75,.17,.66,.17,1.21,.55,1.65,1.12s.66,1.32,.66,2.23c0,.7-.13,1.29-.38,1.77s-.58,.86-.97,1.13-.79,.45-1.2,.54c-.55,.11-1.35,.16-2.4,.16h-1.51v4.32h-2.31Zm2.31-9.52v3.25h1.27c.91,0,1.52-.06,1.83-.18s.55-.31,.72-.56,.26-.55,.26-.89c0-.42-.12-.76-.37-1.03s-.55-.44-.93-.51c-.28-.05-.83-.08-1.66-.08h-1.12Z" style="fill:#1d1d1b;"/><path d="M367.5,324.85h-2.2v-8.3h2.04v1.18c.35-.56,.66-.92,.94-1.1s.59-.27,.95-.27c.5,0,.98,.14,1.45,.41l-.68,1.91c-.37-.24-.71-.36-1.03-.36s-.57,.08-.78,.25-.38,.48-.5,.92-.18,1.37-.18,2.78v2.56Z" style="fill:#1d1d1b;"/><path d="M371.12,320.59c0-.73,.18-1.43,.54-2.12s.87-1.2,1.53-1.56,1.39-.54,2.21-.54c1.25,0,2.28,.41,3.09,1.22s1.2,1.84,1.2,3.09-.41,2.3-1.21,3.12-1.83,1.24-3.06,1.24c-.76,0-1.49-.17-2.18-.52s-1.21-.85-1.57-1.51-.54-1.47-.54-2.43Zm2.25,.12c0,.82,.2,1.45,.59,1.89s.87,.66,1.45,.66,1.05-.22,1.44-.66,.58-1.07,.58-1.91-.19-1.44-.58-1.88-.87-.66-1.44-.66-1.05,.22-1.45,.66-.59,1.07-.59,1.89Z" style="fill:#1d1d1b;"/><path d="M380.52,324.85v-1.71l3.11-3.57c.51-.58,.89-1,1.13-1.24-.25,.02-.59,.03-1.01,.03l-2.93,.02v-1.82h6.86v1.55l-3.17,3.66-1.12,1.21c.61-.04,.99-.05,1.13-.05h3.4v1.93h-7.41Z" style="fill:#1d1d1b;"/><path d="M394.21,322.21l2.19,.37c-.28,.8-.73,1.41-1.33,1.83s-1.37,.63-2.28,.63c-1.44,0-2.51-.47-3.2-1.41-.55-.75-.82-1.71-.82-2.86,0-1.38,.36-2.45,1.08-3.23s1.63-1.17,2.73-1.17c1.23,0,2.21,.41,2.92,1.22s1.05,2.06,1.02,3.75h-5.5c.02,.65,.19,1.16,.53,1.52s.76,.54,1.27,.54c.34,0,.63-.09,.87-.28s.41-.49,.53-.91Zm.12-2.22c-.02-.64-.18-1.12-.49-1.45s-.69-.5-1.14-.5c-.48,0-.88,.17-1.19,.52s-.47,.82-.46,1.42h3.28Z" style="fill:#1d1d1b;"/><path d="M397.53,322.48l2.2-.34c.09,.43,.28,.75,.57,.97s.69,.33,1.2,.33c.57,0,1-.1,1.28-.31,.19-.15,.29-.34,.29-.59,0-.17-.05-.3-.16-.41-.11-.1-.35-.2-.73-.29-1.77-.39-2.89-.75-3.37-1.07-.66-.45-.98-1.07-.98-1.87,0-.72,.28-1.32,.85-1.81s1.45-.73,2.64-.73,1.98,.18,2.53,.55,.93,.92,1.14,1.64l-2.07,.38c-.09-.32-.26-.57-.5-.74s-.6-.26-1.06-.26c-.58,0-.99,.08-1.24,.24-.17,.11-.25,.26-.25,.45,0,.16,.07,.29,.22,.4,.2,.15,.88,.35,2.05,.62s1.99,.59,2.45,.98c.46,.39,.69,.93,.69,1.63,0,.76-.32,1.41-.95,1.96s-1.58,.82-2.82,.82c-1.13,0-2.02-.23-2.68-.69s-1.09-1.08-1.29-1.87Z" style="fill:#1d1d1b;"/><path d="M406.43,322.48l2.2-.34c.09,.43,.28,.75,.57,.97s.69,.33,1.2,.33c.57,0,1-.1,1.28-.31,.19-.15,.29-.34,.29-.59,0-.17-.05-.3-.16-.41-.11-.1-.35-.2-.73-.29-1.77-.39-2.89-.75-3.37-1.07-.66-.45-.98-1.07-.98-1.87,0-.72,.28-1.32,.85-1.81s1.45-.73,2.64-.73,1.98,.18,2.53,.55,.93,.92,1.14,1.64l-2.07,.38c-.09-.32-.26-.57-.5-.74s-.6-.26-1.06-.26c-.58,0-.99,.08-1.24,.24-.17,.11-.25,.26-.25,.45,0,.16,.07,.29,.22,.4,.2,.15,.88,.35,2.05,.62s1.99,.59,2.45,.98c.46,.39,.69,.93,.69,1.63,0,.76-.32,1.41-.95,1.96s-1.58,.82-2.82,.82c-1.13,0-2.02-.23-2.68-.69s-1.09-1.08-1.29-1.87Z" style="fill:#1d1d1b;"/><path d="M420.9,322.21l2.19,.37c-.28,.8-.73,1.41-1.33,1.83s-1.37,.63-2.28,.63c-1.44,0-2.51-.47-3.2-1.41-.55-.75-.82-1.71-.82-2.86,0-1.38,.36-2.45,1.08-3.23s1.63-1.17,2.73-1.17c1.23,0,2.21,.41,2.92,1.22s1.05,2.06,1.02,3.75h-5.5c.02,.65,.19,1.16,.53,1.52s.76,.54,1.27,.54c.34,0,.63-.09,.87-.28s.41-.49,.53-.91Zm.12-2.22c-.02-.64-.18-1.12-.49-1.45s-.69-.5-1.14-.5c-.48,0-.88,.17-1.19,.52s-.47,.82-.46,1.42h3.28Z" style="fill:#1d1d1b;"/></g></g><g><line x1="131.5" y1="175" x2="131.5" y2="239.24" style="fill:none; stroke:#0333ff; stroke-miterlimit:8; stroke-width:2px;"/><polygon points="124.02 237.05 131.5 250 138.98 237.05 124.02 237.05" style="fill:#0333ff;"/></g><g><line x1="209.5" y1="310" x2="273.74" y2="310" style="fill:none; stroke:#0333ff; stroke-miterlimit:8; stroke-width:2px;"/><polygon points="271.55 317.48 284.5 310 271.55 302.52 271.55 317.48" style="fill:#0333ff;"/></g><g><path d="M63.75,297.2c0-1.17,.17-2.15,.52-2.94,.26-.58,.62-1.11,1.07-1.57s.94-.81,1.48-1.03c.71-.3,1.54-.45,2.47-.45,1.69,0,3.04,.52,4.05,1.57s1.52,2.5,1.52,4.37-.5,3.3-1.51,4.34-2.35,1.57-4.03,1.57-3.06-.52-4.06-1.56-1.51-2.47-1.51-4.29Zm2.38-.08c0,1.3,.3,2.28,.9,2.95s1.36,1,2.28,1,1.68-.33,2.27-1,.89-1.66,.89-2.99-.29-2.29-.86-2.94-1.34-.97-2.29-.97-1.72,.33-2.3,.98-.88,1.64-.88,2.96Z" style="fill:#1d1d1b;"/><path d="M78.75,302.85h-2.2v-8.3h2.04v1.18c.35-.56,.66-.92,.94-1.1s.59-.27,.95-.27c.5,0,.98,.14,1.45,.41l-.68,1.91c-.37-.24-.71-.36-1.03-.36s-.57,.08-.78,.25-.38,.48-.5,.92-.18,1.37-.18,2.78v2.56Z" style="fill:#1d1d1b;"/><path d="M82.67,303.4l2.51,.3c.04,.29,.14,.49,.29,.6,.21,.16,.54,.23,.98,.23,.57,0,1-.09,1.29-.26,.19-.11,.34-.3,.44-.55,.07-.18,.1-.52,.1-1.01v-1.21c-.66,.9-1.48,1.34-2.48,1.34-1.11,0-2-.47-2.65-1.41-.51-.75-.77-1.67-.77-2.78,0-1.39,.33-2.45,1-3.19s1.5-1.1,2.5-1.1,1.87,.45,2.54,1.35v-1.16h2.05v7.45c0,.98-.08,1.71-.24,2.2s-.39,.86-.68,1.14-.68,.49-1.17,.65-1.1,.23-1.85,.23c-1.41,0-2.4-.24-2.99-.72s-.88-1.09-.88-1.83c0-.07,0-.16,0-.27Zm1.96-4.87c0,.88,.17,1.52,.51,1.93s.76,.61,1.26,.61c.54,0,.99-.21,1.36-.63s.55-1.04,.55-1.86-.18-1.5-.53-1.91-.8-.62-1.34-.62-.96,.2-1.3,.61-.51,1.03-.51,1.87Z" style="fill:#1d1d1b;"/><path d="M94.29,297.09l-1.99-.36c.22-.8,.61-1.4,1.16-1.78s1.36-.58,2.44-.58c.98,0,1.71,.12,2.19,.35s.82,.53,1.01,.88,.29,1.01,.29,1.96l-.02,2.56c0,.73,.04,1.27,.11,1.61s.2,.72,.39,1.11h-2.17c-.06-.15-.13-.36-.21-.65-.04-.13-.06-.22-.08-.26-.38,.36-.78,.64-1.2,.82s-.88,.27-1.37,.27c-.85,0-1.53-.23-2.02-.7s-.74-1.05-.74-1.76c0-.47,.11-.89,.34-1.25s.54-.65,.94-.84,.99-.37,1.75-.51c1.03-.19,1.74-.37,2.13-.54v-.22c0-.42-.1-.72-.31-.9s-.6-.27-1.18-.27c-.39,0-.7,.08-.91,.23s-.4,.42-.53,.81Zm2.94,1.78c-.28,.09-.73,.21-1.34,.34s-1.01,.26-1.2,.38c-.29,.2-.43,.46-.43,.77s.11,.57,.34,.8,.52,.34,.88,.34c.4,0,.77-.13,1.13-.39,.27-.2,.44-.44,.52-.73,.06-.19,.09-.54,.09-1.07v-.44Z" style="fill:#1d1d1b;"/><path d="M109.09,302.85h-2.2v-4.23c0-.9-.05-1.48-.14-1.74s-.25-.47-.46-.61-.46-.22-.76-.22c-.38,0-.72,.1-1.02,.31s-.51,.48-.62,.83-.17,.98-.17,1.91v3.76h-2.2v-8.3h2.04v1.22c.72-.94,1.64-1.41,2.73-1.41,.48,0,.93,.09,1.33,.26s.7,.4,.91,.67,.35,.58,.43,.92,.12,.84,.12,1.48v5.16Z" style="fill:#1d1d1b;"/><path d="M111.32,293.43v-2.03h2.2v2.03h-2.2Zm0,9.42v-8.3h2.2v8.3h-2.2Z" style="fill:#1d1d1b;"/><path d="M114.99,300.48l2.2-.34c.09,.43,.28,.75,.57,.97s.69,.33,1.2,.33c.57,0,1-.1,1.28-.31,.19-.15,.29-.34,.29-.59,0-.17-.05-.3-.16-.41-.11-.1-.35-.2-.73-.29-1.77-.39-2.89-.75-3.37-1.07-.66-.45-.98-1.07-.98-1.87,0-.72,.28-1.32,.85-1.81s1.45-.73,2.64-.73,1.98,.18,2.53,.55,.93,.92,1.14,1.64l-2.07,.38c-.09-.32-.26-.57-.5-.74s-.6-.26-1.06-.26c-.58,0-.99,.08-1.24,.24-.17,.11-.25,.26-.25,.45,0,.16,.07,.29,.22,.4,.2,.15,.88,.35,2.05,.62s1.99,.59,2.45,.98c.46,.39,.69,.93,.69,1.63,0,.76-.32,1.41-.95,1.96s-1.58,.82-2.82,.82c-1.13,0-2.02-.23-2.68-.69s-1.09-1.08-1.29-1.87Z" style="fill:#1d1d1b;"/><path d="M126.3,297.09l-1.99-.36c.22-.8,.61-1.4,1.16-1.78s1.36-.58,2.44-.58c.98,0,1.71,.12,2.19,.35s.82,.53,1.01,.88,.29,1.01,.29,1.96l-.02,2.56c0,.73,.04,1.27,.11,1.61s.2,.72,.39,1.11h-2.17c-.06-.15-.13-.36-.21-.65-.04-.13-.06-.22-.08-.26-.38,.36-.78,.64-1.2,.82s-.88,.27-1.37,.27c-.85,0-1.53-.23-2.02-.7s-.74-1.05-.74-1.76c0-.47,.11-.89,.34-1.25s.54-.65,.94-.84,.99-.37,1.75-.51c1.03-.19,1.74-.37,2.13-.54v-.22c0-.42-.1-.72-.31-.9s-.6-.27-1.18-.27c-.39,0-.7,.08-.91,.23s-.4,.42-.53,.81Zm2.94,1.78c-.28,.09-.73,.21-1.34,.34s-1.01,.26-1.2,.38c-.29,.2-.43,.46-.43,.77s.11,.57,.34,.8,.52,.34,.88,.34c.4,0,.77-.13,1.13-.39,.27-.2,.44-.44,.52-.73,.06-.19,.09-.54,.09-1.07v-.44Z" style="fill:#1d1d1b;"/><path d="M137.37,294.55v1.75h-1.5v3.34c0,.68,.01,1.07,.04,1.18s.09,.2,.2,.28,.23,.11,.37,.11c.2,0,.5-.07,.88-.21l.19,1.7c-.51,.22-1.09,.33-1.73,.33-.4,0-.75-.07-1.07-.2s-.55-.3-.7-.52-.25-.5-.31-.86c-.05-.25-.07-.77-.07-1.55v-3.62h-1.01v-1.75h1.01v-1.65l2.2-1.28v2.93h1.5Z" style="fill:#1d1d1b;"/><path d="M138.89,293.43v-2.03h2.2v2.03h-2.2Zm0,9.42v-8.3h2.2v8.3h-2.2Z" style="fill:#1d1d1b;"/><path d="M142.83,298.59c0-.73,.18-1.43,.54-2.12s.87-1.2,1.53-1.56,1.39-.54,2.21-.54c1.25,0,2.28,.41,3.09,1.22s1.2,1.84,1.2,3.09-.41,2.3-1.21,3.12-1.83,1.24-3.06,1.24c-.76,0-1.49-.17-2.18-.52s-1.21-.85-1.57-1.51-.54-1.47-.54-2.43Zm2.25,.12c0,.82,.2,1.45,.59,1.89s.87,.66,1.45,.66,1.05-.22,1.44-.66,.58-1.07,.58-1.91-.19-1.44-.58-1.88-.87-.66-1.44-.66-1.05,.22-1.45,.66-.59,1.07-.59,1.89Z" style="fill:#1d1d1b;"/><path d="M160.66,302.85h-2.2v-4.23c0-.9-.05-1.48-.14-1.74s-.25-.47-.46-.61-.46-.22-.76-.22c-.38,0-.72,.1-1.02,.31s-.51,.48-.62,.83-.17,.98-.17,1.91v3.76h-2.2v-8.3h2.04v1.22c.72-.94,1.64-1.41,2.73-1.41,.48,0,.93,.09,1.33,.26s.7,.4,.91,.67,.35,.58,.43,.92,.12,.84,.12,1.48v5.16Z" style="fill:#1d1d1b;"/><path d="M172.79,302.85v-1.24c-.3,.44-.7,.79-1.19,1.05s-1.01,.38-1.56,.38-1.06-.12-1.5-.37-.76-.59-.96-1.03-.3-1.05-.3-1.84v-5.25h2.2v3.81c0,1.17,.04,1.88,.12,2.14s.23,.47,.44,.62,.48,.23,.81,.23c.38,0,.71-.1,1.01-.31s.5-.46,.61-.77,.16-1.05,.16-2.24v-3.5h2.2v8.3h-2.04Z" style="fill:#1d1d1b;"/><path d="M184.65,302.85h-2.2v-4.23c0-.9-.05-1.48-.14-1.74s-.25-.47-.46-.61-.46-.22-.76-.22c-.38,0-.72,.1-1.02,.31s-.51,.48-.62,.83-.17,.98-.17,1.91v3.76h-2.2v-8.3h2.04v1.22c.72-.94,1.64-1.41,2.73-1.41,.48,0,.93,.09,1.33,.26s.7,.4,.91,.67,.35,.58,.43,.92,.12,.84,.12,1.48v5.16Z" style="fill:#1d1d1b;"/><path d="M194.48,302.85h-2.04v-1.22c-.34,.47-.74,.83-1.2,1.06s-.93,.35-1.39,.35c-.95,0-1.77-.38-2.45-1.15s-1.02-1.84-1.02-3.21,.33-2.48,.99-3.21,1.5-1.1,2.51-1.1c.93,0,1.73,.39,2.41,1.16v-4.12h2.2v11.45Zm-5.86-4.33c0,.89,.12,1.53,.37,1.92,.35,.57,.85,.86,1.48,.86,.5,0,.93-.21,1.29-.64s.53-1.07,.53-1.93c0-.95-.17-1.64-.52-2.06s-.78-.63-1.32-.63-.96,.21-1.31,.62-.53,1.03-.53,1.86Z" style="fill:#1d1d1b;"/><path d="M64.62,320.64v-1.93h4.98v4.56c-.48,.47-1.19,.88-2.11,1.24s-1.85,.54-2.79,.54c-1.2,0-2.24-.25-3.13-.75s-1.56-1.22-2.01-2.16-.67-1.95-.67-3.05c0-1.19,.25-2.25,.75-3.18s1.23-1.64,2.2-2.13c.73-.38,1.65-.57,2.74-.57,1.42,0,2.53,.3,3.33,.89s1.31,1.42,1.54,2.47l-2.3,.43c-.16-.56-.46-1.01-.91-1.33s-1-.49-1.67-.49c-1.01,0-1.81,.32-2.41,.96s-.89,1.59-.89,2.85c0,1.36,.3,2.38,.91,3.06s1.4,1.02,2.38,1.02c.48,0,.97-.09,1.46-.29s.91-.42,1.25-.69v-1.45h-2.65Z" style="fill:#1d1d1b;"/><path d="M76.53,322.21l2.19,.37c-.28,.8-.73,1.41-1.33,1.83s-1.37,.63-2.28,.63c-1.44,0-2.51-.47-3.2-1.41-.55-.75-.82-1.71-.82-2.86,0-1.38,.36-2.45,1.08-3.23s1.63-1.17,2.73-1.17c1.23,0,2.21,.41,2.92,1.22s1.05,2.06,1.02,3.75h-5.5c.02,.65,.19,1.16,.53,1.52s.76,.54,1.27,.54c.34,0,.63-.09,.87-.28s.41-.49,.53-.91Zm.12-2.22c-.02-.64-.18-1.12-.49-1.45s-.69-.5-1.14-.5c-.48,0-.88,.17-1.19,.52s-.47,.82-.46,1.42h3.28Z" style="fill:#1d1d1b;"/><path d="M79.85,322.48l2.2-.34c.09,.43,.28,.75,.57,.97s.69,.33,1.2,.33c.57,0,1-.1,1.28-.31,.19-.15,.29-.34,.29-.59,0-.17-.05-.3-.16-.41-.11-.1-.35-.2-.73-.29-1.77-.39-2.89-.75-3.37-1.07-.66-.45-.98-1.07-.98-1.87,0-.72,.28-1.32,.85-1.81s1.45-.73,2.64-.73,1.98,.18,2.53,.55,.93,.92,1.14,1.64l-2.07,.38c-.09-.32-.26-.57-.5-.74s-.6-.26-1.06-.26c-.58,0-.99,.08-1.24,.24-.17,.11-.25,.26-.25,.45,0,.16,.07,.29,.22,.4,.2,.15,.88,.35,2.05,.62s1.99,.59,2.45,.98c.46,.39,.69,.93,.69,1.63,0,.76-.32,1.41-.95,1.96s-1.58,.82-2.82,.82c-1.13,0-2.02-.23-2.68-.69s-1.09-1.08-1.29-1.87Z" style="fill:#1d1d1b;"/><path d="M96.76,319.01l-2.16,.39c-.07-.43-.24-.76-.5-.98s-.59-.33-1-.33c-.55,0-.98,.19-1.31,.57s-.49,1.01-.49,1.89c0,.98,.17,1.68,.5,2.09s.77,.61,1.33,.61c.42,0,.76-.12,1.02-.36s.45-.64,.56-1.22l2.16,.37c-.22,.99-.65,1.74-1.29,2.24s-1.49,.76-2.55,.76c-1.21,0-2.18-.38-2.9-1.15s-1.08-1.83-1.08-3.18,.36-2.44,1.09-3.2,1.7-1.14,2.94-1.14c1.01,0,1.81,.22,2.41,.65s1.02,1.1,1.29,1.99Z" style="fill:#1d1d1b;"/><path d="M100.61,313.4v4.21c.71-.83,1.55-1.24,2.54-1.24,.5,0,.96,.09,1.37,.28s.71,.43,.92,.72,.35,.61,.42,.97,.11,.9,.11,1.65v4.87h-2.2v-4.38c0-.87-.04-1.42-.12-1.66s-.23-.42-.44-.56-.48-.21-.79-.21c-.36,0-.69,.09-.98,.27s-.5,.44-.63,.8-.2,.88-.2,1.58v4.16h-2.2v-11.45h2.2Z" style="fill:#1d1d1b;"/><path d="M109.84,319.09l-1.99-.36c.22-.8,.61-1.4,1.16-1.78s1.36-.58,2.44-.58c.98,0,1.71,.12,2.19,.35s.82,.53,1.01,.88,.29,1.01,.29,1.96l-.02,2.56c0,.73,.04,1.27,.11,1.61s.2,.72,.39,1.11h-2.17c-.06-.15-.13-.36-.21-.65-.04-.13-.06-.22-.08-.26-.38,.36-.78,.64-1.2,.82s-.88,.27-1.37,.27c-.85,0-1.53-.23-2.02-.7s-.74-1.05-.74-1.76c0-.47,.11-.89,.34-1.25s.54-.65,.94-.84,.99-.37,1.75-.51c1.03-.19,1.74-.37,2.13-.54v-.22c0-.42-.1-.72-.31-.9s-.6-.27-1.18-.27c-.39,0-.7,.08-.91,.23s-.4,.42-.53,.81Zm-.95-4v-1.88h1.88v1.88h-1.88Zm3.88,5.78c-.28,.09-.73,.21-1.34,.34s-1.01,.26-1.2,.38c-.29,.2-.43,.46-.43,.77s.11,.57,.34,.8,.52,.34,.88,.34c.4,0,.77-.13,1.13-.39,.27-.2,.44-.44,.52-.73,.06-.19,.09-.54,.09-1.07v-.44Zm-.52-5.78v-1.88h1.89v1.88h-1.89Z" style="fill:#1d1d1b;"/><path d="M116.13,316.55h1.22v-.62c0-.7,.07-1.22,.22-1.56s.42-.62,.82-.84,.9-.32,1.51-.32,1.24,.09,1.84,.28l-.3,1.53c-.35-.08-.68-.12-1.01-.12s-.55,.07-.68,.22-.21,.43-.21,.86v.59h1.64v1.73h-1.64v6.57h-2.2v-6.57h-1.22v-1.73Z" style="fill:#1d1d1b;"/><path d="M126.23,316.55v1.75h-1.5v3.34c0,.68,.01,1.07,.04,1.18s.09,.2,.2,.28,.23,.11,.37,.11c.2,0,.5-.07,.88-.21l.19,1.7c-.51,.22-1.09,.33-1.73,.33-.4,0-.75-.07-1.07-.2s-.55-.3-.7-.52-.25-.5-.31-.86c-.05-.25-.07-.77-.07-1.55v-3.62h-1.01v-1.75h1.01v-1.65l2.2-1.28v2.93h1.5Z" style="fill:#1d1d1b;"/><path d="M126.98,322.48l2.2-.34c.09,.43,.28,.75,.57,.97s.69,.33,1.2,.33c.57,0,1-.1,1.28-.31,.19-.15,.29-.34,.29-.59,0-.17-.05-.3-.16-.41-.11-.1-.35-.2-.73-.29-1.77-.39-2.89-.75-3.37-1.07-.66-.45-.98-1.07-.98-1.87,0-.72,.28-1.32,.85-1.81s1.45-.73,2.64-.73,1.98,.18,2.53,.55,.93,.92,1.14,1.64l-2.07,.38c-.09-.32-.26-.57-.5-.74s-.6-.26-1.06-.26c-.58,0-.99,.08-1.24,.24-.17,.11-.25,.26-.25,.45,0,.16,.07,.29,.22,.4,.2,.15,.88,.35,2.05,.62s1.99,.59,2.45,.98c.46,.39,.69,.93,.69,1.63,0,.76-.32,1.41-.95,1.96s-1.58,.82-2.82,.82c-1.13,0-2.02-.23-2.68-.69s-1.09-1.08-1.29-1.87Z" style="fill:#1d1d1b;"/><path d="M136.59,316.55h2.05v1.22c.27-.42,.62-.75,1.08-1.02s.96-.39,1.51-.39c.96,0,1.78,.38,2.45,1.13s1.01,1.81,1.01,3.16-.34,2.46-1.02,3.23-1.5,1.15-2.46,1.15c-.46,0-.87-.09-1.25-.27s-.76-.5-1.18-.94v4.18h-2.2v-11.45Zm2.17,4.01c0,.93,.18,1.62,.55,2.07s.82,.67,1.35,.67,.93-.2,1.27-.61,.51-1.08,.51-2.01c0-.87-.17-1.52-.52-1.94s-.78-.63-1.3-.63-.98,.21-1.34,.62-.53,1.03-.53,1.84Z" style="fill:#1d1d1b;"/><path d="M148.52,324.85h-2.2v-8.3h2.04v1.18c.35-.56,.66-.92,.94-1.1s.59-.27,.95-.27c.5,0,.98,.14,1.45,.41l-.68,1.91c-.37-.24-.71-.36-1.03-.36s-.57,.08-.78,.25-.38,.48-.5,.92-.18,1.37-.18,2.78v2.56Z" style="fill:#1d1d1b;"/><path d="M152.14,320.59c0-.73,.18-1.43,.54-2.12s.87-1.2,1.53-1.56,1.39-.54,2.21-.54c1.25,0,2.28,.41,3.09,1.22s1.2,1.84,1.2,3.09-.41,2.3-1.21,3.12-1.83,1.24-3.06,1.24c-.76,0-1.49-.17-2.18-.52s-1.21-.85-1.57-1.51-.54-1.47-.54-2.43Zm2.25,.12c0,.82,.2,1.45,.59,1.89s.87,.66,1.45,.66,1.05-.22,1.44-.66,.58-1.07,.58-1.91-.19-1.44-.58-1.88-.87-.66-1.44-.66-1.05,.22-1.45,.66-.59,1.07-.59,1.89Z" style="fill:#1d1d1b;"/><path d="M161.54,324.85v-1.71l3.11-3.57c.51-.58,.89-1,1.13-1.24-.25,.02-.59,.03-1.01,.03l-2.93,.02v-1.82h6.86v1.55l-3.17,3.66-1.12,1.21c.61-.04,.99-.05,1.13-.05h3.4v1.93h-7.41Z" style="fill:#1d1d1b;"/><path d="M175.23,322.21l2.19,.37c-.28,.8-.73,1.41-1.33,1.83s-1.37,.63-2.28,.63c-1.44,0-2.51-.47-3.2-1.41-.55-.75-.82-1.71-.82-2.86,0-1.38,.36-2.45,1.08-3.23s1.63-1.17,2.73-1.17c1.23,0,2.21,.41,2.92,1.22s1.05,2.06,1.02,3.75h-5.5c.02,.65,.19,1.16,.53,1.52s.76,.54,1.27,.54c.34,0,.63-.09,.87-.28s.41-.49,.53-.91Zm.12-2.22c-.02-.64-.18-1.12-.49-1.45s-.69-.5-1.14-.5c-.48,0-.88,.17-1.19,.52s-.47,.82-.46,1.42h3.28Z" style="fill:#1d1d1b;"/><path d="M178.55,322.48l2.2-.34c.09,.43,.28,.75,.57,.97s.69,.33,1.2,.33c.57,0,1-.1,1.28-.31,.19-.15,.29-.34,.29-.59,0-.17-.05-.3-.16-.41-.11-.1-.35-.2-.73-.29-1.77-.39-2.89-.75-3.37-1.07-.66-.45-.98-1.07-.98-1.87,0-.72,.28-1.32,.85-1.81s1.45-.73,2.64-.73,1.98,.18,2.53,.55,.93,.92,1.14,1.64l-2.07,.38c-.09-.32-.26-.57-.5-.74s-.6-.26-1.06-.26c-.58,0-.99,.08-1.24,.24-.17,.11-.25,.26-.25,.45,0,.16,.07,.29,.22,.4,.2,.15,.88,.35,2.05,.62s1.99,.59,2.45,.98c.46,.39,.69,.93,.69,1.63,0,.76-.32,1.41-.95,1.96s-1.58,.82-2.82,.82c-1.13,0-2.02-.23-2.68-.69s-1.09-1.08-1.29-1.87Z" style="fill:#1d1d1b;"/><path d="M187.45,322.48l2.2-.34c.09,.43,.28,.75,.57,.97s.69,.33,1.2,.33c.57,0,1-.1,1.28-.31,.19-.15,.29-.34,.29-.59,0-.17-.05-.3-.16-.41-.11-.1-.35-.2-.73-.29-1.77-.39-2.89-.75-3.37-1.07-.66-.45-.98-1.07-.98-1.87,0-.72,.28-1.32,.85-1.81s1.45-.73,2.64-.73,1.98,.18,2.53,.55,.93,.92,1.14,1.64l-2.07,.38c-.09-.32-.26-.57-.5-.74s-.6-.26-1.06-.26c-.58,0-.99,.08-1.24,.24-.17,.11-.25,.26-.25,.45,0,.16,.07,.29,.22,.4,.2,.15,.88,.35,2.05,.62s1.99,.59,2.45,.98c.46,.39,.69,.93,.69,1.63,0,.76-.32,1.41-.95,1.96s-1.58,.82-2.82,.82c-1.13,0-2.02-.23-2.68-.69s-1.09-1.08-1.29-1.87Z" style="fill:#1d1d1b;"/><path d="M201.92,322.21l2.19,.37c-.28,.8-.73,1.41-1.33,1.83s-1.37,.63-2.28,.63c-1.44,0-2.51-.47-3.2-1.41-.55-.75-.82-1.71-.82-2.86,0-1.38,.36-2.45,1.08-3.23s1.63-1.17,2.73-1.17c1.23,0,2.21,.41,2.92,1.22s1.05,2.06,1.02,3.75h-5.5c.02,.65,.19,1.16,.53,1.52s.76,.54,1.27,.54c.34,0,.63-.09,.87-.28s.41-.49,.53-.91Zm.12-2.22c-.02-.64-.18-1.12-.49-1.45s-.69-.5-1.14-.5c-.48,0-.88,.17-1.19,.52s-.47,.82-.46,1.42h3.28Z" style="fill:#1d1d1b;"/></g></g></g><g><g><rect x="778.5" y="50.04" width="156" height="120" style="fill:#fff; stroke:#0333ff; stroke-miterlimit:8; stroke-width:2px;"/><g><rect x="547.5" y="60.04" width="156" height="100" style="fill:none; stroke:#000; stroke-dasharray:0 0 4 4; stroke-miterlimit:8;"/><g><path d="M579.11,91.43h1.52v6.62c0,1.15-.13,2.07-.39,2.74s-.73,1.23-1.41,1.65-1.57,.64-2.68,.64-1.95-.18-2.63-.55-1.17-.91-1.46-1.61-.44-1.66-.44-2.87v-6.62h1.52v6.61c0,1,.09,1.73,.28,2.2s.5,.83,.95,1.09,1,.38,1.65,.38c1.11,0,1.91-.25,2.38-.76s.71-1.48,.71-2.91v-6.61Z" style="fill:#1d1d1b;"/><path d="M582.97,102.89v-8.3h1.27v1.18c.61-.91,1.49-1.37,2.64-1.37,.5,0,.96,.09,1.38,.27s.73,.42,.94,.71,.35,.64,.44,1.04c.05,.26,.08,.72,.08,1.37v5.1h-1.41v-5.05c0-.57-.05-1-.16-1.29s-.3-.51-.58-.68-.61-.25-.98-.25c-.6,0-1.12,.19-1.55,.57s-.65,1.1-.65,2.16v4.53h-1.41Z" style="fill:#1d1d1b;"/><path d="M594.94,101.63l.2,1.24c-.4,.08-.75,.12-1.06,.12-.51,0-.91-.08-1.19-.24s-.48-.37-.59-.64-.17-.82-.17-1.66v-4.77h-1.03v-1.09h1.03v-2.05l1.4-.84v2.9h1.41v1.09h-1.41v4.85c0,.4,.02,.66,.07,.77s.13,.21,.24,.27,.27,.1,.48,.1c.16,0,.36-.02,.62-.05Z" style="fill:#1d1d1b;"/><path d="M602,100.21l1.45,.18c-.23,.85-.65,1.51-1.27,1.98s-1.41,.7-2.38,.7c-1.21,0-2.18-.37-2.89-1.12s-1.07-1.8-1.07-3.14,.36-2.48,1.08-3.25,1.65-1.16,2.8-1.16,2.02,.38,2.72,1.13,1.05,1.82,1.05,3.19c0,.08,0,.21,0,.38h-6.19c.05,.91,.31,1.61,.77,2.09s1.04,.73,1.73,.73c.52,0,.96-.14,1.32-.41s.65-.7,.87-1.3Zm-4.62-2.27h4.63c-.06-.7-.24-1.22-.53-1.57-.45-.54-1.03-.81-1.74-.81-.65,0-1.19,.22-1.63,.65s-.68,1.01-.73,1.73Z" style="fill:#1d1d1b;"/><path d="M605.2,102.89v-8.3h1.27v1.26c.32-.59,.62-.98,.89-1.16s.57-.28,.9-.28c.47,0,.96,.15,1.45,.45l-.48,1.3c-.34-.2-.69-.3-1.03-.3-.31,0-.58,.09-.83,.28s-.42,.44-.52,.77c-.16,.5-.23,1.05-.23,1.64v4.34h-1.41Z" style="fill:#1d1d1b;"/><path d="M610.54,102.89v-8.3h1.27v1.18c.61-.91,1.49-1.37,2.64-1.37,.5,0,.96,.09,1.38,.27s.73,.42,.94,.71,.35,.64,.44,1.04c.05,.26,.08,.72,.08,1.37v5.1h-1.41v-5.05c0-.57-.05-1-.16-1.29s-.3-.51-.58-.68-.61-.25-.98-.25c-.6,0-1.12,.19-1.55,.57s-.65,1.1-.65,2.16v4.53h-1.41Z" style="fill:#1d1d1b;"/><path d="M625.12,100.21l1.45,.18c-.23,.85-.65,1.51-1.27,1.98s-1.41,.7-2.38,.7c-1.21,0-2.18-.37-2.89-1.12s-1.07-1.8-1.07-3.14,.36-2.48,1.08-3.25,1.65-1.16,2.8-1.16,2.02,.38,2.72,1.13,1.05,1.82,1.05,3.19c0,.08,0,.21,0,.38h-6.19c.05,.91,.31,1.61,.77,2.09s1.04,.73,1.73,.73c.52,0,.96-.14,1.32-.41s.65-.7,.87-1.3Zm-4.62-2.27h4.63c-.06-.7-.24-1.22-.53-1.57-.45-.54-1.03-.81-1.74-.81-.65,0-1.19,.22-1.63,.65s-.68,1.01-.73,1.73Z" style="fill:#1d1d1b;"/><path d="M628.34,102.89v-11.45h1.41v4.11c.66-.76,1.48-1.14,2.48-1.14,.61,0,1.15,.12,1.6,.36s.78,.58,.97,1,.29,1.05,.29,1.86v5.26h-1.41v-5.26c0-.7-.15-1.21-.46-1.54s-.74-.48-1.29-.48c-.42,0-.81,.11-1.18,.32s-.63,.51-.79,.88-.23,.88-.23,1.53v4.54h-1.41Z" style="fill:#1d1d1b;"/><path d="M637.24,102.89v-8.3h1.26v1.16c.26-.41,.61-.73,1.04-.98s.92-.37,1.48-.37c.61,0,1.12,.13,1.51,.38s.67,.61,.83,1.07c.66-.97,1.51-1.45,2.56-1.45,.82,0,1.46,.23,1.9,.68s.66,1.16,.66,2.11v5.7h-1.4v-5.23c0-.56-.05-.97-.14-1.21s-.26-.45-.5-.6-.52-.23-.84-.23c-.58,0-1.07,.19-1.45,.58s-.58,1.01-.58,1.86v4.82h-1.41v-5.39c0-.62-.11-1.09-.34-1.41s-.6-.47-1.12-.47c-.4,0-.76,.1-1.1,.31s-.58,.51-.73,.91-.23,.98-.23,1.73v4.3h-1.41Z" style="fill:#1d1d1b;"/><path d="M656.25,100.21l1.45,.18c-.23,.85-.65,1.51-1.27,1.98s-1.41,.7-2.38,.7c-1.21,0-2.18-.37-2.89-1.12s-1.07-1.8-1.07-3.14,.36-2.48,1.08-3.25,1.65-1.16,2.8-1.16,2.02,.38,2.72,1.13,1.05,1.82,1.05,3.19c0,.08,0,.21,0,.38h-6.19c.05,.91,.31,1.61,.77,2.09s1.04,.73,1.73,.73c.52,0,.96-.14,1.32-.41s.65-.7,.87-1.3Zm-4.62-2.27h4.63c-.06-.7-.24-1.22-.53-1.57-.45-.54-1.03-.81-1.74-.81-.65,0-1.19,.22-1.63,.65s-.68,1.01-.73,1.73Z" style="fill:#1d1d1b;"/><path d="M659.46,102.89v-8.3h1.27v1.18c.61-.91,1.49-1.37,2.64-1.37,.5,0,.96,.09,1.38,.27s.73,.42,.94,.71,.35,.64,.44,1.04c.05,.26,.08,.72,.08,1.37v5.1h-1.41v-5.05c0-.57-.05-1-.16-1.29s-.3-.51-.58-.68-.61-.25-.98-.25c-.6,0-1.12,.19-1.55,.57s-.65,1.1-.65,2.16v4.53h-1.41Z" style="fill:#1d1d1b;"/><path d="M667.8,100.41l1.39-.22c.08,.56,.3,.98,.65,1.28s.86,.45,1.5,.45,1.12-.13,1.44-.39,.47-.57,.47-.93c0-.32-.14-.57-.41-.75-.19-.12-.67-.28-1.44-.48-1.03-.26-1.75-.49-2.14-.68s-.7-.45-.91-.79-.31-.71-.31-1.11c0-.37,.08-.71,.25-1.03s.4-.58,.69-.79c.22-.16,.52-.3,.89-.41s.78-.17,1.21-.17c.65,0,1.22,.09,1.71,.28s.86,.44,1.09,.76,.4,.75,.48,1.29l-1.38,.19c-.06-.43-.24-.76-.54-1s-.72-.36-1.27-.36c-.65,0-1.11,.11-1.38,.32s-.41,.46-.41,.75c0,.18,.06,.35,.17,.49,.11,.15,.29,.28,.54,.38,.14,.05,.55,.17,1.24,.36,1,.27,1.69,.48,2.08,.65s.7,.42,.93,.74,.34,.72,.34,1.2-.14,.91-.41,1.32-.67,.73-1.18,.96-1.1,.34-1.75,.34c-1.08,0-1.9-.22-2.46-.67s-.93-1.11-1.08-1.99Z" style="fill:#1d1d1b;"/><path d="M675.82,99.45v-1.41h4.32v1.41h-4.32Z" style="fill:#1d1d1b;"/><path d="M595.31,122.41l1.39-.22c.08,.56,.3,.98,.65,1.28s.86,.45,1.5,.45,1.12-.13,1.44-.39,.47-.57,.47-.93c0-.32-.14-.57-.41-.75-.19-.12-.67-.28-1.44-.48-1.03-.26-1.75-.49-2.14-.68s-.7-.45-.91-.79-.31-.71-.31-1.11c0-.37,.08-.71,.25-1.03s.4-.58,.69-.79c.22-.16,.52-.3,.89-.41s.78-.17,1.21-.17c.65,0,1.22,.09,1.71,.28s.86,.44,1.09,.76,.4,.75,.48,1.29l-1.38,.19c-.06-.43-.24-.76-.54-1s-.72-.36-1.27-.36c-.65,0-1.11,.11-1.38,.32s-.41,.46-.41,.75c0,.18,.06,.35,.17,.49,.11,.15,.29,.28,.54,.38,.14,.05,.55,.17,1.24,.36,1,.27,1.69,.48,2.08,.65s.7,.42,.93,.74,.34,.72,.34,1.2-.14,.91-.41,1.32-.67,.73-1.18,.96-1.1,.34-1.75,.34c-1.08,0-1.9-.22-2.46-.67s-.93-1.11-1.08-1.99Z" style="fill:#1d1d1b;"/><path d="M606.94,123.63l.2,1.24c-.4,.08-.75,.12-1.06,.12-.51,0-.91-.08-1.19-.24s-.48-.37-.59-.64-.17-.82-.17-1.66v-4.77h-1.03v-1.09h1.03v-2.05l1.4-.84v2.9h1.41v1.09h-1.41v4.85c0,.4,.02,.66,.07,.77s.13,.21,.24,.27,.27,.1,.48,.1c.16,0,.36-.02,.62-.05Z" style="fill:#1d1d1b;"/><path d="M608.3,124.89v-8.3h1.27v1.26c.32-.59,.62-.98,.89-1.16s.57-.28,.9-.28c.47,0,.96,.15,1.45,.45l-.48,1.3c-.34-.2-.69-.3-1.03-.3-.31,0-.58,.09-.83,.28s-.42,.44-.52,.77c-.16,.5-.23,1.05-.23,1.64v4.34h-1.41Z" style="fill:#1d1d1b;"/><path d="M619.06,123.86c-.52,.44-1.02,.75-1.5,.94s-1,.27-1.55,.27c-.91,0-1.61-.22-2.1-.67s-.73-1.01-.73-1.71c0-.41,.09-.78,.28-1.11s.43-.61,.73-.81,.64-.36,1.01-.46c.28-.07,.69-.14,1.25-.21,1.14-.14,1.97-.3,2.51-.48,0-.19,0-.32,0-.37,0-.57-.13-.98-.4-1.21-.36-.32-.89-.48-1.6-.48-.66,0-1.15,.12-1.46,.35s-.55,.64-.7,1.23l-1.38-.19c.12-.59,.33-1.06,.62-1.43s.7-.64,1.24-.84,1.17-.29,1.88-.29,1.28,.08,1.73,.25,.77,.38,.98,.63,.35,.57,.44,.96c.05,.24,.07,.67,.07,1.3v1.88c0,1.31,.03,2.13,.09,2.48s.18,.68,.36,1h-1.47c-.15-.29-.24-.63-.28-1.02Zm-.12-3.14c-.51,.21-1.28,.39-2.3,.53-.58,.08-.99,.18-1.23,.28s-.42,.26-.55,.46-.2,.42-.2,.67c0,.38,.14,.69,.43,.94s.7,.38,1.25,.38,1.02-.12,1.45-.36,.73-.56,.93-.97c.15-.32,.23-.79,.23-1.41v-.52Z" style="fill:#1d1d1b;"/><path d="M625.61,123.63l.2,1.24c-.4,.08-.75,.12-1.06,.12-.51,0-.91-.08-1.19-.24s-.48-.37-.59-.64-.17-.82-.17-1.66v-4.77h-1.03v-1.09h1.03v-2.05l1.4-.84v2.9h1.41v1.09h-1.41v4.85c0,.4,.02,.66,.07,.77s.13,.21,.24,.27,.27,.1,.48,.1c.16,0,.36-.02,.62-.05Z" style="fill:#1d1d1b;"/><path d="M632.67,122.21l1.45,.18c-.23,.85-.65,1.51-1.27,1.98s-1.41,.7-2.38,.7c-1.21,0-2.18-.37-2.89-1.12s-1.07-1.8-1.07-3.14,.36-2.48,1.08-3.25,1.65-1.16,2.8-1.16,2.02,.38,2.72,1.13,1.05,1.82,1.05,3.19c0,.08,0,.21,0,.38h-6.19c.05,.91,.31,1.61,.77,2.09s1.04,.73,1.73,.73c.52,0,.96-.14,1.32-.41s.65-.7,.87-1.3Zm-4.62-2.27h4.63c-.06-.7-.24-1.22-.53-1.57-.45-.54-1.03-.81-1.74-.81-.65,0-1.19,.22-1.63,.65s-.68,1.01-.73,1.73Z" style="fill:#1d1d1b;"/><path d="M635.63,125.57l1.37,.2c.06,.42,.22,.73,.48,.92,.35,.26,.83,.39,1.43,.39,.65,0,1.15-.13,1.51-.39s.59-.62,.72-1.09c.07-.29,.11-.89,.1-1.8-.61,.72-1.38,1.09-2.3,1.09-1.14,0-2.02-.41-2.65-1.23s-.94-1.81-.94-2.96c0-.79,.14-1.52,.43-2.19s.7-1.19,1.25-1.55,1.18-.55,1.92-.55c.98,0,1.79,.4,2.42,1.19v-1h1.3v7.17c0,1.29-.13,2.21-.39,2.75s-.68,.96-1.25,1.28-1.27,.47-2.11,.47c-.99,0-1.79-.22-2.4-.67s-.9-1.12-.88-2.01Zm1.16-4.98c0,1.09,.22,1.88,.65,2.38s.97,.75,1.62,.75,1.19-.25,1.62-.75,.66-1.28,.66-2.34-.23-1.78-.68-2.3-.99-.77-1.63-.77-1.16,.25-1.59,.76-.66,1.26-.66,2.26Z" style="fill:#1d1d1b;"/><path d="M644.79,115.05v-1.62h1.41v1.62h-1.41Zm0,9.84v-8.3h1.41v8.3h-1.41Z" style="fill:#1d1d1b;"/><path d="M654.02,122.21l1.45,.18c-.23,.85-.65,1.51-1.27,1.98s-1.41,.7-2.38,.7c-1.21,0-2.18-.37-2.89-1.12s-1.07-1.8-1.07-3.14,.36-2.48,1.08-3.25,1.65-1.16,2.8-1.16,2.02,.38,2.72,1.13,1.05,1.82,1.05,3.19c0,.08,0,.21,0,.38h-6.19c.05,.91,.31,1.61,.77,2.09s1.04,.73,1.73,.73c.52,0,.96-.14,1.32-.41s.65-.7,.87-1.3Zm-4.62-2.27h4.63c-.06-.7-.24-1.22-.53-1.57-.45-.54-1.03-.81-1.74-.81-.65,0-1.19,.22-1.63,.65s-.68,1.01-.73,1.73Z" style="fill:#1d1d1b;"/></g></g><rect x="547.5" y="245.04" width="156" height="120" style="fill:#fff; stroke:#000; stroke-miterlimit:8; stroke-width:2px;"/><g><path d="M814.03,113.89v-11.45h2.31v11.45h-2.31Z" style="fill:#0333ff;"/><path d="M821.12,113.89v-9.52h-3.4v-1.94h9.1v1.94h-3.39v9.52h-2.31Z" style="fill:#0333ff;"/><path d="M827.17,110.83v-2.2h4.31v2.2h-4.31Z" style="fill:#0333ff;"/><path d="M832.18,110.16l2.25-.22c.14,.75,.41,1.31,.82,1.66s.97,.53,1.68,.53c.75,0,1.31-.16,1.68-.47s.57-.68,.57-1.11c0-.27-.08-.5-.24-.69s-.44-.36-.83-.5c-.27-.09-.89-.26-1.85-.5-1.24-.31-2.11-.68-2.61-1.13-.7-.63-1.05-1.4-1.05-2.3,0-.58,.17-1.13,.5-1.64s.81-.89,1.43-1.16,1.37-.4,2.25-.4c1.44,0,2.52,.32,3.25,.95s1.11,1.47,1.14,2.52l-2.31,.1c-.1-.59-.31-1.01-.64-1.27s-.81-.39-1.46-.39-1.2,.14-1.58,.41c-.25,.18-.37,.41-.37,.71,0,.27,.11,.5,.34,.7,.29,.25,1,.5,2.12,.77s1.96,.54,2.5,.82,.96,.67,1.27,1.16,.46,1.1,.46,1.82c0,.66-.18,1.27-.55,1.84s-.88,1-1.55,1.28-1.5,.42-2.49,.42c-1.45,0-2.56-.33-3.34-1s-1.24-1.64-1.39-2.93Z" style="fill:#0333ff;"/><path d="M847.22,105.59v1.75h-1.5v3.34c0,.68,.01,1.07,.04,1.18s.09,.2,.2,.28,.23,.11,.37,.11c.2,0,.5-.07,.88-.21l.19,1.7c-.51,.22-1.09,.33-1.73,.33-.4,0-.75-.07-1.07-.2s-.55-.3-.7-.52-.25-.5-.31-.86c-.05-.25-.07-.77-.07-1.55v-3.62h-1.01v-1.75h1.01v-1.65l2.2-1.28v2.93h1.5Z" style="fill:#0333ff;"/><path d="M850.85,113.89h-2.2v-8.3h2.04v1.18c.35-.56,.66-.92,.94-1.1s.59-.27,.95-.27c.5,0,.98,.14,1.45,.41l-.68,1.91c-.37-.24-.71-.36-1.03-.36s-.57,.08-.78,.25-.38,.48-.5,.92-.18,1.37-.18,2.78v2.56Z" style="fill:#0333ff;"/><path d="M856.61,108.12l-1.99-.36c.22-.8,.61-1.4,1.16-1.78s1.36-.58,2.44-.58c.98,0,1.71,.12,2.19,.35s.82,.53,1.01,.88,.29,1.01,.29,1.96l-.02,2.56c0,.73,.04,1.27,.11,1.61s.2,.72,.39,1.11h-2.17c-.06-.15-.13-.36-.21-.65-.04-.13-.06-.22-.08-.26-.38,.36-.78,.64-1.2,.82s-.88,.27-1.37,.27c-.85,0-1.53-.23-2.02-.7s-.74-1.05-.74-1.76c0-.47,.11-.89,.34-1.25s.54-.65,.94-.84,.99-.37,1.75-.51c1.03-.19,1.74-.37,2.13-.54v-.22c0-.42-.1-.72-.31-.9s-.6-.27-1.18-.27c-.39,0-.7,.08-.91,.23s-.4,.42-.53,.81Zm2.94,1.78c-.28,.09-.73,.21-1.34,.34s-1.01,.26-1.2,.38c-.29,.2-.43,.46-.43,.77s.11,.57,.34,.8,.52,.34,.88,.34c.4,0,.77-.13,1.13-.39,.27-.2,.44-.44,.52-.73,.06-.19,.09-.54,.09-1.07v-.44Z" style="fill:#0333ff;"/><path d="M867.68,105.59v1.75h-1.5v3.34c0,.68,.01,1.07,.04,1.18s.09,.2,.2,.28,.23,.11,.37,.11c.2,0,.5-.07,.88-.21l.19,1.7c-.51,.22-1.09,.33-1.73,.33-.4,0-.75-.07-1.07-.2s-.55-.3-.7-.52-.25-.5-.31-.86c-.05-.25-.07-.77-.07-1.55v-3.62h-1.01v-1.75h1.01v-1.65l2.2-1.28v2.93h1.5Z" style="fill:#0333ff;"/><path d="M874,111.25l2.19,.37c-.28,.8-.73,1.41-1.33,1.83s-1.37,.63-2.28,.63c-1.44,0-2.51-.47-3.2-1.41-.55-.75-.82-1.71-.82-2.86,0-1.38,.36-2.45,1.08-3.23s1.63-1.17,2.73-1.17c1.23,0,2.21,.41,2.92,1.22s1.05,2.06,1.02,3.75h-5.5c.02,.65,.19,1.16,.53,1.52s.76,.54,1.27,.54c.34,0,.63-.09,.87-.28s.41-.49,.53-.91Zm.12-2.22c-.02-.64-.18-1.12-.49-1.45s-.69-.5-1.14-.5c-.48,0-.88,.17-1.19,.52s-.47,.82-.46,1.42h3.28Z" style="fill:#0333ff;"/><path d="M877.89,114.43l2.51,.3c.04,.29,.14,.49,.29,.6,.21,.16,.54,.23,.98,.23,.57,0,1-.09,1.29-.26,.19-.11,.34-.3,.44-.55,.07-.18,.1-.52,.1-1.01v-1.21c-.66,.9-1.48,1.34-2.48,1.34-1.11,0-2-.47-2.65-1.41-.51-.75-.77-1.67-.77-2.78,0-1.39,.33-2.45,1-3.19s1.5-1.1,2.5-1.1,1.87,.45,2.54,1.35v-1.16h2.05v7.45c0,.98-.08,1.71-.24,2.2s-.39,.86-.68,1.14-.68,.49-1.17,.65-1.1,.23-1.85,.23c-1.41,0-2.4-.24-2.99-.72s-.88-1.09-.88-1.83c0-.07,0-.16,0-.27Zm1.96-4.87c0,.88,.17,1.52,.51,1.93s.76,.61,1.26,.61c.54,0,.99-.21,1.36-.63s.55-1.04,.55-1.86-.18-1.5-.53-1.91-.8-.62-1.34-.62-.96,.2-1.3,.61-.51,1.03-.51,1.87Z" style="fill:#0333ff;"/><path d="M887.87,104.46v-2.03h2.2v2.03h-2.2Zm0,9.42v-8.3h2.2v8.3h-2.2Z" style="fill:#0333ff;"/><path d="M897.12,111.25l2.19,.37c-.28,.8-.73,1.41-1.33,1.83s-1.37,.63-2.28,.63c-1.44,0-2.51-.47-3.2-1.41-.55-.75-.82-1.71-.82-2.86,0-1.38,.36-2.45,1.08-3.23s1.63-1.17,2.73-1.17c1.23,0,2.21,.41,2.92,1.22s1.05,2.06,1.02,3.75h-5.5c.02,.65,.19,1.16,.53,1.52s.76,.54,1.27,.54c.34,0,.63-.09,.87-.28s.41-.49,.53-.91Zm.12-2.22c-.02-.64-.18-1.12-.49-1.45s-.69-.5-1.14-.5c-.48,0-.88,.17-1.19,.52s-.47,.82-.46,1.42h3.28Z" style="fill:#0333ff;"/></g><g><rect x="778.5" y="245.04" width="156" height="120" style="fill:#fff; stroke:#000; stroke-miterlimit:8; stroke-width:2px;"/><g><path d="M800.7,297.89v-11.45h2.31v11.45h-2.31Z" style="fill:#1d1d1b;"/><path d="M807.79,297.89v-9.52h-3.4v-1.94h9.1v1.94h-3.39v9.52h-2.31Z" style="fill:#1d1d1b;"/><path d="M813.84,294.83v-2.2h4.31v2.2h-4.31Z" style="fill:#1d1d1b;"/><path d="M819.36,297.89v-11.45h2.31v11.45h-2.31Z" style="fill:#1d1d1b;"/><path d="M831.41,297.89h-2.2v-4.23c0-.9-.05-1.48-.14-1.74s-.25-.47-.46-.61-.46-.22-.76-.22c-.38,0-.72,.1-1.02,.31s-.51,.48-.62,.83-.17,.98-.17,1.91v3.76h-2.2v-8.3h2.04v1.22c.72-.94,1.64-1.41,2.73-1.41,.48,0,.93,.09,1.33,.26s.7,.4,.91,.67,.35,.58,.43,.92,.12,.84,.12,1.48v5.16Z" style="fill:#1d1d1b;"/><path d="M832.68,289.59h1.22v-.62c0-.7,.07-1.22,.22-1.56s.42-.62,.82-.84,.9-.32,1.51-.32,1.24,.09,1.84,.28l-.3,1.53c-.35-.08-.68-.12-1.01-.12s-.55,.07-.68,.22-.21,.43-.21,.86v.59h1.64v1.73h-1.64v6.57h-2.2v-6.57h-1.22v-1.73Z" style="fill:#1d1d1b;"/><path d="M841.07,297.89h-2.2v-8.3h2.04v1.18c.35-.56,.66-.92,.94-1.1s.59-.27,.95-.27c.5,0,.98,.14,1.45,.41l-.68,1.91c-.37-.24-.71-.36-1.03-.36s-.57,.08-.78,.25-.38,.48-.5,.92-.18,1.37-.18,2.78v2.56Z" style="fill:#1d1d1b;"/><path d="M846.83,292.12l-1.99-.36c.22-.8,.61-1.4,1.16-1.78s1.36-.58,2.44-.58c.98,0,1.71,.12,2.19,.35s.82,.53,1.01,.88,.29,1.01,.29,1.96l-.02,2.56c0,.73,.04,1.27,.11,1.61s.2,.72,.39,1.11h-2.17c-.06-.15-.13-.36-.21-.65-.04-.13-.06-.22-.08-.26-.38,.36-.78,.64-1.2,.82s-.88,.27-1.37,.27c-.85,0-1.53-.23-2.02-.7s-.74-1.05-.74-1.76c0-.47,.11-.89,.34-1.25s.54-.65,.94-.84,.99-.37,1.75-.51c1.03-.19,1.74-.37,2.13-.54v-.22c0-.42-.1-.72-.31-.9s-.6-.27-1.18-.27c-.39,0-.7,.08-.91,.23s-.4,.42-.53,.81Zm2.94,1.78c-.28,.09-.73,.21-1.34,.34s-1.01,.26-1.2,.38c-.29,.2-.43,.46-.43,.77s.11,.57,.34,.8,.52,.34,.88,.34c.4,0,.77-.13,1.13-.39,.27-.2,.44-.44,.52-.73,.06-.19,.09-.54,.09-1.07v-.44Z" style="fill:#1d1d1b;"/><path d="M853.32,295.52l2.2-.34c.09,.43,.28,.75,.57,.97s.69,.33,1.2,.33c.57,0,1-.1,1.28-.31,.19-.15,.29-.34,.29-.59,0-.17-.05-.3-.16-.41-.11-.1-.35-.2-.73-.29-1.77-.39-2.89-.75-3.37-1.07-.66-.45-.98-1.07-.98-1.87,0-.72,.28-1.32,.85-1.81s1.45-.73,2.64-.73,1.98,.18,2.53,.55,.93,.92,1.14,1.64l-2.07,.38c-.09-.32-.26-.57-.5-.74s-.6-.26-1.06-.26c-.58,0-.99,.08-1.24,.24-.17,.11-.25,.26-.25,.45,0,.16,.07,.29,.22,.4,.2,.15,.88,.35,2.05,.62s1.99,.59,2.45,.98c.46,.39,.69,.93,.69,1.63,0,.76-.32,1.41-.95,1.96s-1.58,.82-2.82,.82c-1.13,0-2.02-.23-2.68-.69s-1.09-1.08-1.29-1.87Z" style="fill:#1d1d1b;"/><path d="M866.79,289.59v1.75h-1.5v3.34c0,.68,.01,1.07,.04,1.18s.09,.2,.2,.28,.23,.11,.37,.11c.2,0,.5-.07,.88-.21l.19,1.7c-.51,.22-1.09,.33-1.73,.33-.4,0-.75-.07-1.07-.2s-.55-.3-.7-.52-.25-.5-.31-.86c-.05-.25-.07-.77-.07-1.55v-3.62h-1.01v-1.75h1.01v-1.65l2.2-1.28v2.93h1.5Z" style="fill:#1d1d1b;"/><path d="M870.42,297.89h-2.2v-8.3h2.04v1.18c.35-.56,.66-.92,.94-1.1s.59-.27,.95-.27c.5,0,.98,.14,1.45,.41l-.68,1.91c-.37-.24-.71-.36-1.03-.36s-.57,.08-.78,.25-.38,.48-.5,.92-.18,1.37-.18,2.78v2.56Z" style="fill:#1d1d1b;"/><path d="M880,297.89v-1.24c-.3,.44-.7,.79-1.19,1.05s-1.01,.38-1.56,.38-1.06-.12-1.5-.37-.76-.59-.96-1.03-.3-1.05-.3-1.84v-5.25h2.2v3.81c0,1.17,.04,1.88,.12,2.14s.23,.47,.44,.62,.48,.23,.81,.23c.38,0,.71-.1,1.01-.31s.5-.46,.61-.77,.16-1.05,.16-2.24v-3.5h2.2v8.3h-2.04Z" style="fill:#1d1d1b;"/><path d="M884.24,297.89v-11.45h2.2v6.08l2.57-2.92h2.7l-2.84,3.03,3.04,5.27h-2.37l-2.09-3.73-1.02,1.07v2.66h-2.2Z" style="fill:#1d1d1b;"/><path d="M897.02,289.59v1.75h-1.5v3.34c0,.68,.01,1.07,.04,1.18s.09,.2,.2,.28,.23,.11,.37,.11c.2,0,.5-.07,.88-.21l.19,1.7c-.51,.22-1.09,.33-1.73,.33-.4,0-.75-.07-1.07-.2s-.55-.3-.7-.52-.25-.5-.31-.86c-.05-.25-.07-.77-.07-1.55v-3.62h-1.01v-1.75h1.01v-1.65l2.2-1.28v2.93h1.5Z" style="fill:#1d1d1b;"/><path d="M904,297.89v-1.24c-.3,.44-.7,.79-1.19,1.05s-1.01,.38-1.56,.38-1.06-.12-1.5-.37-.76-.59-.96-1.03-.3-1.05-.3-1.84v-5.25h2.2v3.81c0,1.17,.04,1.88,.12,2.14s.23,.47,.44,.62,.48,.23,.81,.23c.38,0,.71-.1,1.01-.31s.5-.46,.61-.77,.16-1.05,.16-2.24v-3.5h2.2v8.3h-2.04Z" style="fill:#1d1d1b;"/><path d="M910.42,297.89h-2.2v-8.3h2.04v1.18c.35-.56,.66-.92,.94-1.1s.59-.27,.95-.27c.5,0,.98,.14,1.45,.41l-.68,1.91c-.37-.24-.71-.36-1.03-.36s-.57,.08-.78,.25-.38,.48-.5,.92-.18,1.37-.18,2.78v2.56Z" style="fill:#1d1d1b;"/><path d="M801.76,319.89v-1.24c-.3,.44-.7,.79-1.19,1.05s-1.01,.38-1.56,.38-1.06-.12-1.5-.37-.76-.59-.96-1.03-.3-1.05-.3-1.84v-5.25h2.2v3.81c0,1.17,.04,1.88,.12,2.14s.23,.47,.44,.62,.48,.23,.81,.23c.38,0,.71-.1,1.01-.31s.5-.46,.61-.77,.16-1.05,.16-2.24v-3.5h2.2v8.3h-2.04Z" style="fill:#1d1d1b;"/><path d="M813.62,319.89h-2.2v-4.23c0-.9-.05-1.48-.14-1.74s-.25-.47-.46-.61-.46-.22-.76-.22c-.38,0-.72,.1-1.02,.31s-.51,.48-.62,.83-.17,.98-.17,1.91v3.76h-2.2v-8.3h2.04v1.22c.72-.94,1.64-1.41,2.73-1.41,.48,0,.93,.09,1.33,.26s.7,.4,.91,.67,.35,.58,.43,.92,.12,.84,.12,1.48v5.16Z" style="fill:#1d1d1b;"/><path d="M823.46,319.89h-2.04v-1.22c-.34,.47-.74,.83-1.2,1.06s-.93,.35-1.39,.35c-.95,0-1.77-.38-2.45-1.15s-1.02-1.84-1.02-3.21,.33-2.48,.99-3.21,1.5-1.1,2.51-1.1c.93,0,1.73,.39,2.41,1.16v-4.12h2.2v11.45Zm-5.86-4.33c0,.89,.12,1.53,.37,1.92,.35,.57,.85,.86,1.48,.86,.5,0,.93-.21,1.29-.64s.53-1.07,.53-1.93c0-.95-.17-1.64-.52-2.06s-.78-.63-1.32-.63-.96,.21-1.31,.62-.53,1.03-.53,1.86Z" style="fill:#1d1d1b;"/><path d="M830.01,319.89v-11.45h2.31v11.45h-2.31Z" style="fill:#1d1d1b;"/><path d="M837.11,319.89v-9.52h-3.4v-1.94h9.1v1.94h-3.39v9.52h-2.31Z" style="fill:#1d1d1b;"/><path d="M843.15,316.83v-2.2h4.31v2.2h-4.31Z" style="fill:#1d1d1b;"/><path d="M848.75,319.89v-11.45h3.71c1.41,0,2.32,.06,2.75,.17,.66,.17,1.21,.55,1.65,1.12s.66,1.32,.66,2.23c0,.7-.13,1.29-.38,1.77s-.58,.86-.97,1.13-.79,.45-1.2,.54c-.55,.11-1.35,.16-2.4,.16h-1.51v4.32h-2.31Zm2.31-9.52v3.25h1.27c.91,0,1.52-.06,1.83-.18s.55-.31,.72-.56,.26-.55,.26-.89c0-.42-.12-.76-.37-1.03s-.55-.44-.93-.51c-.28-.05-.83-.08-1.66-.08h-1.12Z" style="fill:#1d1d1b;"/><path d="M861.5,319.89h-2.2v-8.3h2.04v1.18c.35-.56,.66-.92,.94-1.1s.59-.27,.95-.27c.5,0,.98,.14,1.45,.41l-.68,1.91c-.37-.24-.71-.36-1.03-.36s-.57,.08-.78,.25-.38,.48-.5,.92-.18,1.37-.18,2.78v2.56Z" style="fill:#1d1d1b;"/><path d="M865.12,315.62c0-.73,.18-1.43,.54-2.12s.87-1.2,1.53-1.56,1.39-.54,2.21-.54c1.25,0,2.28,.41,3.09,1.22s1.2,1.84,1.2,3.09-.41,2.3-1.21,3.12-1.83,1.24-3.06,1.24c-.76,0-1.49-.17-2.18-.52s-1.21-.85-1.57-1.51-.54-1.47-.54-2.43Zm2.25,.12c0,.82,.2,1.45,.59,1.89s.87,.66,1.45,.66,1.05-.22,1.44-.66,.58-1.07,.58-1.91-.19-1.44-.58-1.88-.87-.66-1.44-.66-1.05,.22-1.45,.66-.59,1.07-.59,1.89Z" style="fill:#1d1d1b;"/><path d="M874.52,319.89v-1.71l3.11-3.57c.51-.58,.89-1,1.13-1.24-.25,.02-.59,.03-1.01,.03l-2.93,.02v-1.82h6.86v1.55l-3.17,3.66-1.12,1.21c.61-.04,.99-.05,1.13-.05h3.4v1.93h-7.41Z" style="fill:#1d1d1b;"/><path d="M888.21,317.25l2.19,.37c-.28,.8-.73,1.41-1.33,1.83s-1.37,.63-2.28,.63c-1.44,0-2.51-.47-3.2-1.41-.55-.75-.82-1.71-.82-2.86,0-1.38,.36-2.45,1.08-3.23s1.63-1.17,2.73-1.17c1.23,0,2.21,.41,2.92,1.22s1.05,2.06,1.02,3.75h-5.5c.02,.65,.19,1.16,.53,1.52s.76,.54,1.27,.54c.34,0,.63-.09,.87-.28s.41-.49,.53-.91Zm.12-2.22c-.02-.64-.18-1.12-.49-1.45s-.69-.5-1.14-.5c-.48,0-.88,.17-1.19,.52s-.47,.82-.46,1.42h3.28Z" style="fill:#1d1d1b;"/><path d="M891.53,317.52l2.2-.34c.09,.43,.28,.75,.57,.97s.69,.33,1.2,.33c.57,0,1-.1,1.28-.31,.19-.15,.29-.34,.29-.59,0-.17-.05-.3-.16-.41-.11-.1-.35-.2-.73-.29-1.77-.39-2.89-.75-3.37-1.07-.66-.45-.98-1.07-.98-1.87,0-.72,.28-1.32,.85-1.81s1.45-.73,2.64-.73,1.98,.18,2.53,.55,.93,.92,1.14,1.64l-2.07,.38c-.09-.32-.26-.57-.5-.74s-.6-.26-1.06-.26c-.58,0-.99,.08-1.24,.24-.17,.11-.25,.26-.25,.45,0,.16,.07,.29,.22,.4,.2,.15,.88,.35,2.05,.62s1.99,.59,2.45,.98c.46,.39,.69,.93,.69,1.63,0,.76-.32,1.41-.95,1.96s-1.58,.82-2.82,.82c-1.13,0-2.02-.23-2.68-.69s-1.09-1.08-1.29-1.87Z" style="fill:#1d1d1b;"/><path d="M900.43,317.52l2.2-.34c.09,.43,.28,.75,.57,.97s.69,.33,1.2,.33c.57,0,1-.1,1.28-.31,.19-.15,.29-.34,.29-.59,0-.17-.05-.3-.16-.41-.11-.1-.35-.2-.73-.29-1.77-.39-2.89-.75-3.37-1.07-.66-.45-.98-1.07-.98-1.87,0-.72,.28-1.32,.85-1.81s1.45-.73,2.64-.73,1.98,.18,2.53,.55,.93,.92,1.14,1.64l-2.07,.38c-.09-.32-.26-.57-.5-.74s-.6-.26-1.06-.26c-.58,0-.99,.08-1.24,.24-.17,.11-.25,.26-.25,.45,0,.16,.07,.29,.22,.4,.2,.15,.88,.35,2.05,.62s1.99,.59,2.45,.98c.46,.39,.69,.93,.69,1.63,0,.76-.32,1.41-.95,1.96s-1.58,.82-2.82,.82c-1.13,0-2.02-.23-2.68-.69s-1.09-1.08-1.29-1.87Z" style="fill:#1d1d1b;"/><path d="M914.9,317.25l2.19,.37c-.28,.8-.73,1.41-1.33,1.83s-1.37,.63-2.28,.63c-1.44,0-2.51-.47-3.2-1.41-.55-.75-.82-1.71-.82-2.86,0-1.38,.36-2.45,1.08-3.23s1.63-1.17,2.73-1.17c1.23,0,2.21,.41,2.92,1.22s1.05,2.06,1.02,3.75h-5.5c.02,.65,.19,1.16,.53,1.52s.76,.54,1.27,.54c.34,0,.63-.09,.87-.28s.41-.49,.53-.91Zm.12-2.22c-.02-.64-.18-1.12-.49-1.45s-.69-.5-1.14-.5c-.48,0-.88,.17-1.19,.52s-.47,.82-.46,1.42h3.28Z" style="fill:#1d1d1b;"/></g></g><g><line x1="856.5" y1="170.04" x2="856.5" y2="234.27" style="fill:none; stroke:#0333ff; stroke-miterlimit:8; stroke-width:2px;"/><polygon points="849.02 232.08 856.5 245.04 863.98 232.08 849.02 232.08" style="fill:#0333ff;"/></g><g><line x1="778.5" y1="305.04" x2="714.26" y2="305.04" style="fill:none; stroke:#0333ff; stroke-miterlimit:8; stroke-width:2px;"/><polygon points="716.45 297.56 703.5 305.04 716.45 312.51 716.45 297.56" style="fill:#0333ff;"/></g><g><path d="M557.75,292.23c0-1.17,.17-2.15,.52-2.94,.26-.58,.62-1.11,1.07-1.57s.94-.81,1.48-1.03c.71-.3,1.54-.45,2.47-.45,1.69,0,3.04,.52,4.05,1.57s1.52,2.5,1.52,4.37-.5,3.3-1.51,4.34-2.35,1.57-4.03,1.57-3.06-.52-4.06-1.56-1.51-2.47-1.51-4.29Zm2.38-.08c0,1.3,.3,2.28,.9,2.95s1.36,1,2.28,1,1.68-.33,2.27-1,.89-1.66,.89-2.99-.29-2.29-.86-2.94-1.34-.97-2.29-.97-1.72,.33-2.3,.98-.88,1.64-.88,2.96Z" style="fill:#1d1d1b;"/><path d="M572.75,297.89h-2.2v-8.3h2.04v1.18c.35-.56,.66-.92,.94-1.1s.59-.27,.95-.27c.5,0,.98,.14,1.45,.41l-.68,1.91c-.37-.24-.71-.36-1.03-.36s-.57,.08-.78,.25-.38,.48-.5,.92-.18,1.37-.18,2.78v2.56Z" style="fill:#1d1d1b;"/><path d="M576.67,298.43l2.51,.3c.04,.29,.14,.49,.29,.6,.21,.16,.54,.23,.98,.23,.57,0,1-.09,1.29-.26,.19-.11,.34-.3,.44-.55,.07-.18,.1-.52,.1-1.01v-1.21c-.66,.9-1.48,1.34-2.48,1.34-1.11,0-2-.47-2.65-1.41-.51-.75-.77-1.67-.77-2.78,0-1.39,.33-2.45,1-3.19s1.5-1.1,2.5-1.1,1.87,.45,2.54,1.35v-1.16h2.05v7.45c0,.98-.08,1.71-.24,2.2s-.39,.86-.68,1.14-.68,.49-1.17,.65-1.1,.23-1.85,.23c-1.41,0-2.4-.24-2.99-.72s-.88-1.09-.88-1.83c0-.07,0-.16,0-.27Zm1.96-4.87c0,.88,.17,1.52,.51,1.93s.76,.61,1.26,.61c.54,0,.99-.21,1.36-.63s.55-1.04,.55-1.86-.18-1.5-.53-1.91-.8-.62-1.34-.62-.96,.2-1.3,.61-.51,1.03-.51,1.87Z" style="fill:#1d1d1b;"/><path d="M588.29,292.12l-1.99-.36c.22-.8,.61-1.4,1.16-1.78s1.36-.58,2.44-.58c.98,0,1.71,.12,2.19,.35s.82,.53,1.01,.88,.29,1.01,.29,1.96l-.02,2.56c0,.73,.04,1.27,.11,1.61s.2,.72,.39,1.11h-2.17c-.06-.15-.13-.36-.21-.65-.04-.13-.06-.22-.08-.26-.38,.36-.78,.64-1.2,.82s-.88,.27-1.37,.27c-.85,0-1.53-.23-2.02-.7s-.74-1.05-.74-1.76c0-.47,.11-.89,.34-1.25s.54-.65,.94-.84,.99-.37,1.75-.51c1.03-.19,1.74-.37,2.13-.54v-.22c0-.42-.1-.72-.31-.9s-.6-.27-1.18-.27c-.39,0-.7,.08-.91,.23s-.4,.42-.53,.81Zm2.94,1.78c-.28,.09-.73,.21-1.34,.34s-1.01,.26-1.2,.38c-.29,.2-.43,.46-.43,.77s.11,.57,.34,.8,.52,.34,.88,.34c.4,0,.77-.13,1.13-.39,.27-.2,.44-.44,.52-.73,.06-.19,.09-.54,.09-1.07v-.44Z" style="fill:#1d1d1b;"/><path d="M603.09,297.89h-2.2v-4.23c0-.9-.05-1.48-.14-1.74s-.25-.47-.46-.61-.46-.22-.76-.22c-.38,0-.72,.1-1.02,.31s-.51,.48-.62,.83-.17,.98-.17,1.91v3.76h-2.2v-8.3h2.04v1.22c.72-.94,1.64-1.41,2.73-1.41,.48,0,.93,.09,1.33,.26s.7,.4,.91,.67,.35,.58,.43,.92,.12,.84,.12,1.48v5.16Z" style="fill:#1d1d1b;"/><path d="M605.32,288.46v-2.03h2.2v2.03h-2.2Zm0,9.42v-8.3h2.2v8.3h-2.2Z" style="fill:#1d1d1b;"/><path d="M608.99,295.52l2.2-.34c.09,.43,.28,.75,.57,.97s.69,.33,1.2,.33c.57,0,1-.1,1.28-.31,.19-.15,.29-.34,.29-.59,0-.17-.05-.3-.16-.41-.11-.1-.35-.2-.73-.29-1.77-.39-2.89-.75-3.37-1.07-.66-.45-.98-1.07-.98-1.87,0-.72,.28-1.32,.85-1.81s1.45-.73,2.64-.73,1.98,.18,2.53,.55,.93,.92,1.14,1.64l-2.07,.38c-.09-.32-.26-.57-.5-.74s-.6-.26-1.06-.26c-.58,0-.99,.08-1.24,.24-.17,.11-.25,.26-.25,.45,0,.16,.07,.29,.22,.4,.2,.15,.88,.35,2.05,.62s1.99,.59,2.45,.98c.46,.39,.69,.93,.69,1.63,0,.76-.32,1.41-.95,1.96s-1.58,.82-2.82,.82c-1.13,0-2.02-.23-2.68-.69s-1.09-1.08-1.29-1.87Z" style="fill:#1d1d1b;"/><path d="M620.3,292.12l-1.99-.36c.22-.8,.61-1.4,1.16-1.78s1.36-.58,2.44-.58c.98,0,1.71,.12,2.19,.35s.82,.53,1.01,.88,.29,1.01,.29,1.96l-.02,2.56c0,.73,.04,1.27,.11,1.61s.2,.72,.39,1.11h-2.17c-.06-.15-.13-.36-.21-.65-.04-.13-.06-.22-.08-.26-.38,.36-.78,.64-1.2,.82s-.88,.27-1.37,.27c-.85,0-1.53-.23-2.02-.7s-.74-1.05-.74-1.76c0-.47,.11-.89,.34-1.25s.54-.65,.94-.84,.99-.37,1.75-.51c1.03-.19,1.74-.37,2.13-.54v-.22c0-.42-.1-.72-.31-.9s-.6-.27-1.18-.27c-.39,0-.7,.08-.91,.23s-.4,.42-.53,.81Zm2.94,1.78c-.28,.09-.73,.21-1.34,.34s-1.01,.26-1.2,.38c-.29,.2-.43,.46-.43,.77s.11,.57,.34,.8,.52,.34,.88,.34c.4,0,.77-.13,1.13-.39,.27-.2,.44-.44,.52-.73,.06-.19,.09-.54,.09-1.07v-.44Z" style="fill:#1d1d1b;"/><path d="M631.37,289.59v1.75h-1.5v3.34c0,.68,.01,1.07,.04,1.18s.09,.2,.2,.28,.23,.11,.37,.11c.2,0,.5-.07,.88-.21l.19,1.7c-.51,.22-1.09,.33-1.73,.33-.4,0-.75-.07-1.07-.2s-.55-.3-.7-.52-.25-.5-.31-.86c-.05-.25-.07-.77-.07-1.55v-3.62h-1.01v-1.75h1.01v-1.65l2.2-1.28v2.93h1.5Z" style="fill:#1d1d1b;"/><path d="M632.89,288.46v-2.03h2.2v2.03h-2.2Zm0,9.42v-8.3h2.2v8.3h-2.2Z" style="fill:#1d1d1b;"/><path d="M636.83,293.62c0-.73,.18-1.43,.54-2.12s.87-1.2,1.53-1.56,1.39-.54,2.21-.54c1.25,0,2.28,.41,3.09,1.22s1.2,1.84,1.2,3.09-.41,2.3-1.21,3.12-1.83,1.24-3.06,1.24c-.76,0-1.49-.17-2.18-.52s-1.21-.85-1.57-1.51-.54-1.47-.54-2.43Zm2.25,.12c0,.82,.2,1.45,.59,1.89s.87,.66,1.45,.66,1.05-.22,1.44-.66,.58-1.07,.58-1.91-.19-1.44-.58-1.88-.87-.66-1.44-.66-1.05,.22-1.45,.66-.59,1.07-.59,1.89Z" style="fill:#1d1d1b;"/><path d="M654.66,297.89h-2.2v-4.23c0-.9-.05-1.48-.14-1.74s-.25-.47-.46-.61-.46-.22-.76-.22c-.38,0-.72,.1-1.02,.31s-.51,.48-.62,.83-.17,.98-.17,1.91v3.76h-2.2v-8.3h2.04v1.22c.72-.94,1.64-1.41,2.73-1.41,.48,0,.93,.09,1.33,.26s.7,.4,.91,.67,.35,.58,.43,.92,.12,.84,.12,1.48v5.16Z" style="fill:#1d1d1b;"/><path d="M666.79,297.89v-1.24c-.3,.44-.7,.79-1.19,1.05s-1.01,.38-1.56,.38-1.06-.12-1.5-.37-.76-.59-.96-1.03-.3-1.05-.3-1.84v-5.25h2.2v3.81c0,1.17,.04,1.88,.12,2.14s.23,.47,.44,.62,.48,.23,.81,.23c.38,0,.71-.1,1.01-.31s.5-.46,.61-.77,.16-1.05,.16-2.24v-3.5h2.2v8.3h-2.04Z" style="fill:#1d1d1b;"/><path d="M678.65,297.89h-2.2v-4.23c0-.9-.05-1.48-.14-1.74s-.25-.47-.46-.61-.46-.22-.76-.22c-.38,0-.72,.1-1.02,.31s-.51,.48-.62,.83-.17,.98-.17,1.91v3.76h-2.2v-8.3h2.04v1.22c.72-.94,1.64-1.41,2.73-1.41,.48,0,.93,.09,1.33,.26s.7,.4,.91,.67,.35,.58,.43,.92,.12,.84,.12,1.48v5.16Z" style="fill:#1d1d1b;"/><path d="M688.48,297.89h-2.04v-1.22c-.34,.47-.74,.83-1.2,1.06s-.93,.35-1.39,.35c-.95,0-1.77-.38-2.45-1.15s-1.02-1.84-1.02-3.21,.33-2.48,.99-3.21,1.5-1.1,2.51-1.1c.93,0,1.73,.39,2.41,1.16v-4.12h2.2v11.45Zm-5.86-4.33c0,.89,.12,1.53,.37,1.92,.35,.57,.85,.86,1.48,.86,.5,0,.93-.21,1.29-.64s.53-1.07,.53-1.93c0-.95-.17-1.64-.52-2.06s-.78-.63-1.32-.63-.96,.21-1.31,.62-.53,1.03-.53,1.86Z" style="fill:#1d1d1b;"/><path d="M558.62,315.68v-1.93h4.98v4.56c-.48,.47-1.19,.88-2.11,1.24s-1.85,.54-2.79,.54c-1.2,0-2.24-.25-3.13-.75s-1.56-1.22-2.01-2.16-.67-1.95-.67-3.05c0-1.19,.25-2.25,.75-3.18s1.23-1.64,2.2-2.13c.73-.38,1.65-.57,2.74-.57,1.42,0,2.53,.3,3.33,.89s1.31,1.42,1.54,2.47l-2.3,.43c-.16-.56-.46-1.01-.91-1.33s-1-.49-1.67-.49c-1.01,0-1.81,.32-2.41,.96s-.89,1.59-.89,2.85c0,1.36,.3,2.38,.91,3.06s1.4,1.02,2.38,1.02c.48,0,.97-.09,1.46-.29s.91-.42,1.25-.69v-1.45h-2.65Z" style="fill:#1d1d1b;"/><path d="M570.53,317.25l2.19,.37c-.28,.8-.73,1.41-1.33,1.83s-1.37,.63-2.28,.63c-1.44,0-2.51-.47-3.2-1.41-.55-.75-.82-1.71-.82-2.86,0-1.38,.36-2.45,1.08-3.23s1.63-1.17,2.73-1.17c1.23,0,2.21,.41,2.92,1.22s1.05,2.06,1.02,3.75h-5.5c.02,.65,.19,1.16,.53,1.52s.76,.54,1.27,.54c.34,0,.63-.09,.87-.28s.41-.49,.53-.91Zm.12-2.22c-.02-.64-.18-1.12-.49-1.45s-.69-.5-1.14-.5c-.48,0-.88,.17-1.19,.52s-.47,.82-.46,1.42h3.28Z" style="fill:#1d1d1b;"/><path d="M573.85,317.52l2.2-.34c.09,.43,.28,.75,.57,.97s.69,.33,1.2,.33c.57,0,1-.1,1.28-.31,.19-.15,.29-.34,.29-.59,0-.17-.05-.3-.16-.41-.11-.1-.35-.2-.73-.29-1.77-.39-2.89-.75-3.37-1.07-.66-.45-.98-1.07-.98-1.87,0-.72,.28-1.32,.85-1.81s1.45-.73,2.64-.73,1.98,.18,2.53,.55,.93,.92,1.14,1.64l-2.07,.38c-.09-.32-.26-.57-.5-.74s-.6-.26-1.06-.26c-.58,0-.99,.08-1.24,.24-.17,.11-.25,.26-.25,.45,0,.16,.07,.29,.22,.4,.2,.15,.88,.35,2.05,.62s1.99,.59,2.45,.98c.46,.39,.69,.93,.69,1.63,0,.76-.32,1.41-.95,1.96s-1.58,.82-2.82,.82c-1.13,0-2.02-.23-2.68-.69s-1.09-1.08-1.29-1.87Z" style="fill:#1d1d1b;"/><path d="M590.76,314.04l-2.16,.39c-.07-.43-.24-.76-.5-.98s-.59-.33-1-.33c-.55,0-.98,.19-1.31,.57s-.49,1.01-.49,1.89c0,.98,.17,1.68,.5,2.09s.77,.61,1.33,.61c.42,0,.76-.12,1.02-.36s.45-.64,.56-1.22l2.16,.37c-.22,.99-.65,1.74-1.29,2.24s-1.49,.76-2.55,.76c-1.21,0-2.18-.38-2.9-1.15s-1.08-1.83-1.08-3.18,.36-2.44,1.09-3.2,1.7-1.14,2.94-1.14c1.01,0,1.81,.22,2.41,.65s1.02,1.1,1.29,1.99Z" style="fill:#1d1d1b;"/><path d="M594.61,308.43v4.21c.71-.83,1.55-1.24,2.54-1.24,.5,0,.96,.09,1.37,.28s.71,.43,.92,.72,.35,.61,.42,.97,.11,.9,.11,1.65v4.87h-2.2v-4.38c0-.87-.04-1.42-.12-1.66s-.23-.42-.44-.56-.48-.21-.79-.21c-.36,0-.69,.09-.98,.27s-.5,.44-.63,.8-.2,.88-.2,1.58v4.16h-2.2v-11.45h2.2Z" style="fill:#1d1d1b;"/><path d="M603.84,314.12l-1.99-.36c.22-.8,.61-1.4,1.16-1.78s1.36-.58,2.44-.58c.98,0,1.71,.12,2.19,.35s.82,.53,1.01,.88,.29,1.01,.29,1.96l-.02,2.56c0,.73,.04,1.27,.11,1.61s.2,.72,.39,1.11h-2.17c-.06-.15-.13-.36-.21-.65-.04-.13-.06-.22-.08-.26-.38,.36-.78,.64-1.2,.82s-.88,.27-1.37,.27c-.85,0-1.53-.23-2.02-.7s-.74-1.05-.74-1.76c0-.47,.11-.89,.34-1.25s.54-.65,.94-.84,.99-.37,1.75-.51c1.03-.19,1.74-.37,2.13-.54v-.22c0-.42-.1-.72-.31-.9s-.6-.27-1.18-.27c-.39,0-.7,.08-.91,.23s-.4,.42-.53,.81Zm-.95-4v-1.88h1.88v1.88h-1.88Zm3.88,5.78c-.28,.09-.73,.21-1.34,.34s-1.01,.26-1.2,.38c-.29,.2-.43,.46-.43,.77s.11,.57,.34,.8,.52,.34,.88,.34c.4,0,.77-.13,1.13-.39,.27-.2,.44-.44,.52-.73,.06-.19,.09-.54,.09-1.07v-.44Zm-.52-5.78v-1.88h1.89v1.88h-1.89Z" style="fill:#1d1d1b;"/><path d="M610.13,311.59h1.22v-.62c0-.7,.07-1.22,.22-1.56s.42-.62,.82-.84,.9-.32,1.51-.32,1.24,.09,1.84,.28l-.3,1.53c-.35-.08-.68-.12-1.01-.12s-.55,.07-.68,.22-.21,.43-.21,.86v.59h1.64v1.73h-1.64v6.57h-2.2v-6.57h-1.22v-1.73Z" style="fill:#1d1d1b;"/><path d="M620.23,311.59v1.75h-1.5v3.34c0,.68,.01,1.07,.04,1.18s.09,.2,.2,.28,.23,.11,.37,.11c.2,0,.5-.07,.88-.21l.19,1.7c-.51,.22-1.09,.33-1.73,.33-.4,0-.75-.07-1.07-.2s-.55-.3-.7-.52-.25-.5-.31-.86c-.05-.25-.07-.77-.07-1.55v-3.62h-1.01v-1.75h1.01v-1.65l2.2-1.28v2.93h1.5Z" style="fill:#1d1d1b;"/><path d="M620.98,317.52l2.2-.34c.09,.43,.28,.75,.57,.97s.69,.33,1.2,.33c.57,0,1-.1,1.28-.31,.19-.15,.29-.34,.29-.59,0-.17-.05-.3-.16-.41-.11-.1-.35-.2-.73-.29-1.77-.39-2.89-.75-3.37-1.07-.66-.45-.98-1.07-.98-1.87,0-.72,.28-1.32,.85-1.81s1.45-.73,2.64-.73,1.98,.18,2.53,.55,.93,.92,1.14,1.64l-2.07,.38c-.09-.32-.26-.57-.5-.74s-.6-.26-1.06-.26c-.58,0-.99,.08-1.24,.24-.17,.11-.25,.26-.25,.45,0,.16,.07,.29,.22,.4,.2,.15,.88,.35,2.05,.62s1.99,.59,2.45,.98c.46,.39,.69,.93,.69,1.63,0,.76-.32,1.41-.95,1.96s-1.58,.82-2.82,.82c-1.13,0-2.02-.23-2.68-.69s-1.09-1.08-1.29-1.87Z" style="fill:#1d1d1b;"/><path d="M630.59,311.59h2.05v1.22c.27-.42,.62-.75,1.08-1.02s.96-.39,1.51-.39c.96,0,1.78,.38,2.45,1.13s1.01,1.81,1.01,3.16-.34,2.46-1.02,3.23-1.5,1.15-2.46,1.15c-.46,0-.87-.09-1.25-.27s-.76-.5-1.18-.94v4.18h-2.2v-11.45Zm2.17,4.01c0,.93,.18,1.62,.55,2.07s.82,.67,1.35,.67,.93-.2,1.27-.61,.51-1.08,.51-2.01c0-.87-.17-1.52-.52-1.94s-.78-.63-1.3-.63-.98,.21-1.34,.62-.53,1.03-.53,1.84Z" style="fill:#1d1d1b;"/><path d="M642.52,319.89h-2.2v-8.3h2.04v1.18c.35-.56,.66-.92,.94-1.1s.59-.27,.95-.27c.5,0,.98,.14,1.45,.41l-.68,1.91c-.37-.24-.71-.36-1.03-.36s-.57,.08-.78,.25-.38,.48-.5,.92-.18,1.37-.18,2.78v2.56Z" style="fill:#1d1d1b;"/><path d="M646.14,315.62c0-.73,.18-1.43,.54-2.12s.87-1.2,1.53-1.56,1.39-.54,2.21-.54c1.25,0,2.28,.41,3.09,1.22s1.2,1.84,1.2,3.09-.41,2.3-1.21,3.12-1.83,1.24-3.06,1.24c-.76,0-1.49-.17-2.18-.52s-1.21-.85-1.57-1.51-.54-1.47-.54-2.43Zm2.25,.12c0,.82,.2,1.45,.59,1.89s.87,.66,1.45,.66,1.05-.22,1.44-.66,.58-1.07,.58-1.91-.19-1.44-.58-1.88-.87-.66-1.44-.66-1.05,.22-1.45,.66-.59,1.07-.59,1.89Z" style="fill:#1d1d1b;"/><path d="M655.54,319.89v-1.71l3.11-3.57c.51-.58,.89-1,1.13-1.24-.25,.02-.59,.03-1.01,.03l-2.93,.02v-1.82h6.86v1.55l-3.17,3.66-1.12,1.21c.61-.04,.99-.05,1.13-.05h3.4v1.93h-7.41Z" style="fill:#1d1d1b;"/><path d="M669.23,317.25l2.19,.37c-.28,.8-.73,1.41-1.33,1.83s-1.37,.63-2.28,.63c-1.44,0-2.51-.47-3.2-1.41-.55-.75-.82-1.71-.82-2.86,0-1.38,.36-2.45,1.08-3.23s1.63-1.17,2.73-1.17c1.23,0,2.21,.41,2.92,1.22s1.05,2.06,1.02,3.75h-5.5c.02,.65,.19,1.16,.53,1.52s.76,.54,1.27,.54c.34,0,.63-.09,.87-.28s.41-.49,.53-.91Zm.12-2.22c-.02-.64-.18-1.12-.49-1.45s-.69-.5-1.14-.5c-.48,0-.88,.17-1.19,.52s-.47,.82-.46,1.42h3.28Z" style="fill:#1d1d1b;"/><path d="M672.55,317.52l2.2-.34c.09,.43,.28,.75,.57,.97s.69,.33,1.2,.33c.57,0,1-.1,1.28-.31,.19-.15,.29-.34,.29-.59,0-.17-.05-.3-.16-.41-.11-.1-.35-.2-.73-.29-1.77-.39-2.89-.75-3.37-1.07-.66-.45-.98-1.07-.98-1.87,0-.72,.28-1.32,.85-1.81s1.45-.73,2.64-.73,1.98,.18,2.53,.55,.93,.92,1.14,1.64l-2.07,.38c-.09-.32-.26-.57-.5-.74s-.6-.26-1.06-.26c-.58,0-.99,.08-1.24,.24-.17,.11-.25,.26-.25,.45,0,.16,.07,.29,.22,.4,.2,.15,.88,.35,2.05,.62s1.99,.59,2.45,.98c.46,.39,.69,.93,.69,1.63,0,.76-.32,1.41-.95,1.96s-1.58,.82-2.82,.82c-1.13,0-2.02-.23-2.68-.69s-1.09-1.08-1.29-1.87Z" style="fill:#1d1d1b;"/><path d="M681.45,317.52l2.2-.34c.09,.43,.28,.75,.57,.97s.69,.33,1.2,.33c.57,0,1-.1,1.28-.31,.19-.15,.29-.34,.29-.59,0-.17-.05-.3-.16-.41-.11-.1-.35-.2-.73-.29-1.77-.39-2.89-.75-3.37-1.07-.66-.45-.98-1.07-.98-1.87,0-.72,.28-1.32,.85-1.81s1.45-.73,2.64-.73,1.98,.18,2.53,.55,.93,.92,1.14,1.64l-2.07,.38c-.09-.32-.26-.57-.5-.74s-.6-.26-1.06-.26c-.58,0-.99,.08-1.24,.24-.17,.11-.25,.26-.25,.45,0,.16,.07,.29,.22,.4,.2,.15,.88,.35,2.05,.62s1.99,.59,2.45,.98c.46,.39,.69,.93,.69,1.63,0,.76-.32,1.41-.95,1.96s-1.58,.82-2.82,.82c-1.13,0-2.02-.23-2.68-.69s-1.09-1.08-1.29-1.87Z" style="fill:#1d1d1b;"/><path d="M695.92,317.25l2.19,.37c-.28,.8-.73,1.41-1.33,1.83s-1.37,.63-2.28,.63c-1.44,0-2.51-.47-3.2-1.41-.55-.75-.82-1.71-.82-2.86,0-1.38,.36-2.45,1.08-3.23s1.63-1.17,2.73-1.17c1.23,0,2.21,.41,2.92,1.22s1.05,2.06,1.02,3.75h-5.5c.02,.65,.19,1.16,.53,1.52s.76,.54,1.27,.54c.34,0,.63-.09,.87-.28s.41-.49,.53-.91Zm.12-2.22c-.02-.64-.18-1.12-.49-1.45s-.69-.5-1.14-.5c-.48,0-.88,.17-1.19,.52s-.47,.82-.46,1.42h3.28Z" style="fill:#1d1d1b;"/></g></g><g><path d="M667,197.63v-11.45h3.46l2.08,7.81,2.05-7.81h3.47v11.45h-2.15v-9.02l-2.27,9.02h-2.23l-2.27-9.02v9.02h-2.15Z" style="fill:#1d1d1b;"/><path d="M685.15,194.99l2.19,.37c-.28,.8-.73,1.41-1.33,1.83-.61,.42-1.37,.63-2.28,.63-1.44,0-2.51-.47-3.2-1.41-.55-.75-.82-1.71-.82-2.86,0-1.38,.36-2.45,1.08-3.23s1.63-1.17,2.73-1.17c1.23,0,2.21,.41,2.92,1.22,.71,.82,1.05,2.06,1.02,3.75h-5.5c.02,.65,.19,1.16,.53,1.52,.34,.36,.76,.54,1.27,.54,.34,0,.63-.09,.87-.28s.41-.49,.53-.91Zm.12-2.22c-.02-.64-.18-1.12-.49-1.45s-.69-.5-1.14-.5c-.48,0-.88,.17-1.19,.52s-.47,.82-.46,1.42h3.28Z" style="fill:#1d1d1b;"/><path d="M696.48,191.79l-2.16,.39c-.07-.43-.24-.76-.5-.98s-.59-.33-1-.33c-.55,0-.98,.19-1.31,.57-.33,.38-.49,1.01-.49,1.89,0,.98,.17,1.68,.5,2.09,.33,.41,.77,.61,1.33,.61,.42,0,.76-.12,1.02-.36s.45-.64,.56-1.22l2.16,.37c-.22,.99-.65,1.74-1.29,2.24-.64,.5-1.49,.76-2.55,.76-1.21,0-2.18-.38-2.9-1.15-.72-.77-1.08-1.83-1.08-3.18s.36-2.44,1.09-3.2c.72-.76,1.7-1.14,2.94-1.14,1.01,0,1.81,.22,2.41,.65,.6,.43,1.02,1.1,1.29,1.99Z" style="fill:#1d1d1b;"/><path d="M700.33,186.18v4.21c.71-.83,1.55-1.24,2.54-1.24,.5,0,.96,.09,1.37,.28s.71,.43,.92,.72c.21,.29,.35,.61,.42,.97,.08,.35,.11,.9,.11,1.65v4.87h-2.2v-4.38c0-.87-.04-1.42-.12-1.66-.08-.23-.23-.42-.44-.56s-.48-.21-.79-.21c-.37,0-.69,.09-.98,.27-.29,.18-.5,.44-.63,.8s-.2,.88-.2,1.58v4.16h-2.2v-11.45h2.2Z" style="fill:#1d1d1b;"/><path d="M709.56,191.87l-1.99-.36c.22-.8,.61-1.4,1.16-1.78s1.36-.58,2.44-.58c.98,0,1.71,.12,2.19,.35,.48,.23,.82,.53,1.01,.88s.29,1.01,.29,1.96l-.02,2.56c0,.73,.04,1.27,.11,1.61s.2,.72,.39,1.11h-2.17c-.06-.15-.13-.36-.21-.65-.04-.13-.06-.22-.08-.26-.38,.36-.78,.64-1.2,.82-.43,.18-.88,.27-1.37,.27-.85,0-1.53-.23-2.02-.7s-.74-1.05-.74-1.76c0-.47,.11-.89,.34-1.25,.22-.37,.54-.65,.94-.84,.4-.2,.99-.37,1.75-.51,1.03-.19,1.74-.37,2.13-.54v-.22c0-.42-.1-.72-.31-.9-.21-.18-.6-.27-1.18-.27-.39,0-.7,.08-.91,.23s-.4,.42-.53,.81Zm2.94,1.78c-.28,.09-.73,.21-1.34,.34s-1.01,.26-1.2,.38c-.29,.2-.43,.46-.43,.77s.11,.57,.34,.8c.23,.22,.52,.34,.88,.34,.4,0,.77-.13,1.13-.39,.27-.2,.44-.44,.52-.73,.06-.19,.09-.54,.09-1.07v-.44Z" style="fill:#1d1d1b;"/><path d="M724.36,197.63h-2.2v-4.23c0-.9-.05-1.48-.14-1.74s-.25-.47-.46-.61-.46-.22-.76-.22c-.38,0-.72,.1-1.02,.31-.3,.21-.51,.48-.62,.83-.11,.34-.17,.98-.17,1.91v3.76h-2.2v-8.3h2.04v1.22c.72-.94,1.63-1.41,2.73-1.41,.48,0,.93,.09,1.33,.26,.4,.17,.7,.4,.91,.67,.21,.27,.35,.58,.43,.92,.08,.34,.12,.84,.12,1.48v5.16Z" style="fill:#1d1d1b;"/><path d="M726.59,188.21v-2.03h2.2v2.03h-2.2Zm0,9.42v-8.3h2.2v8.3h-2.2Z" style="fill:#1d1d1b;"/><path d="M730.26,195.27l2.2-.34c.09,.43,.28,.75,.57,.97,.29,.22,.69,.33,1.2,.33,.57,0,.99-.1,1.28-.31,.19-.15,.29-.34,.29-.59,0-.17-.05-.3-.16-.41-.11-.1-.35-.2-.73-.29-1.77-.39-2.89-.75-3.37-1.07-.66-.45-.98-1.07-.98-1.87,0-.72,.28-1.32,.85-1.81,.57-.49,1.45-.73,2.64-.73s1.98,.18,2.53,.55c.55,.37,.93,.92,1.14,1.64l-2.07,.38c-.09-.32-.26-.57-.5-.74-.25-.17-.6-.26-1.06-.26-.58,0-.99,.08-1.24,.24-.17,.11-.25,.26-.25,.45,0,.16,.07,.29,.22,.4,.2,.15,.88,.35,2.05,.62,1.17,.27,1.99,.59,2.45,.98,.46,.39,.69,.93,.69,1.63,0,.76-.32,1.41-.95,1.96-.64,.55-1.58,.82-2.82,.82-1.13,0-2.03-.23-2.68-.69-.66-.46-1.09-1.08-1.29-1.87Z" style="fill:#1d1d1b;"/><path d="M739.77,189.34h2.02v1.13c.72-.88,1.59-1.32,2.59-1.32,.53,0,.99,.11,1.38,.33s.71,.55,.96,.99c.36-.44,.76-.77,1.18-.99s.87-.33,1.35-.33c.61,0,1.12,.12,1.55,.37s.74,.61,.95,1.09c.15,.35,.23,.93,.23,1.72v5.3h-2.2v-4.74c0-.82-.08-1.35-.23-1.59-.2-.31-.52-.47-.94-.47-.31,0-.6,.09-.87,.28-.27,.19-.47,.46-.59,.82-.12,.36-.18,.93-.18,1.71v3.98h-2.2v-4.55c0-.81-.04-1.33-.12-1.56s-.2-.41-.36-.52-.39-.17-.67-.17c-.34,0-.64,.09-.91,.27-.27,.18-.46,.45-.58,.79s-.18,.91-.18,1.71v4.03h-2.2v-8.3Z" style="fill:#1d1d1b;"/><path d="M759.62,197.63v-1.24c-.3,.44-.7,.79-1.19,1.05s-1.01,.38-1.56,.38-1.06-.12-1.5-.37c-.44-.25-.76-.59-.96-1.03-.2-.44-.3-1.05-.3-1.84v-5.25h2.2v3.81c0,1.17,.04,1.88,.12,2.14,.08,.26,.23,.47,.44,.62,.21,.15,.48,.23,.81,.23,.38,0,.71-.1,1.01-.31s.5-.46,.61-.77,.16-1.05,.16-2.24v-3.5h2.2v8.3h-2.04Z" style="fill:#1d1d1b;"/><path d="M763.16,195.27l2.2-.34c.09,.43,.28,.75,.57,.97,.29,.22,.69,.33,1.2,.33,.57,0,.99-.1,1.28-.31,.19-.15,.29-.34,.29-.59,0-.17-.05-.3-.16-.41-.11-.1-.35-.2-.73-.29-1.77-.39-2.89-.75-3.37-1.07-.66-.45-.98-1.07-.98-1.87,0-.72,.28-1.32,.85-1.81,.57-.49,1.45-.73,2.64-.73s1.98,.18,2.53,.55c.55,.37,.93,.92,1.14,1.64l-2.07,.38c-.09-.32-.26-.57-.5-.74-.25-.17-.6-.26-1.06-.26-.58,0-.99,.08-1.24,.24-.17,.11-.25,.26-.25,.45,0,.16,.07,.29,.22,.4,.2,.15,.88,.35,2.05,.62,1.17,.27,1.99,.59,2.45,.98,.46,.39,.69,.93,.69,1.63,0,.76-.32,1.41-.95,1.96-.64,.55-1.58,.82-2.82,.82-1.13,0-2.03-.23-2.68-.69-.66-.46-1.09-1.08-1.29-1.87Z" style="fill:#1d1d1b;"/><path d="M771.66,197.83l2.84-11.84h1.65l-2.87,11.84h-1.62Z" style="fill:#1d1d1b;"/><path d="M777.29,197.63v-11.45h3.71c1.41,0,2.32,.06,2.75,.17,.66,.17,1.21,.55,1.65,1.12,.44,.58,.66,1.32,.66,2.23,0,.7-.13,1.29-.38,1.77s-.58,.86-.97,1.13c-.39,.27-.79,.45-1.2,.54-.55,.11-1.35,.16-2.4,.16h-1.51v4.32h-2.31Zm2.31-9.52v3.25h1.27c.91,0,1.52-.06,1.83-.18,.31-.12,.55-.31,.72-.56,.17-.25,.26-.55,.26-.89,0-.42-.12-.76-.37-1.03-.25-.27-.55-.44-.93-.51-.28-.05-.83-.08-1.66-.08h-1.12Z" style="fill:#1d1d1b;"/><path d="M786.99,189.34h1.22v-.62c0-.7,.07-1.22,.22-1.56s.42-.62,.82-.84,.9-.32,1.51-.32,1.24,.09,1.84,.28l-.3,1.53c-.35-.08-.68-.12-1.01-.12s-.55,.07-.68,.22-.21,.43-.21,.86v.59h1.64v1.73h-1.64v6.57h-2.2v-6.57h-1.22v-1.73Z" style="fill:#1d1d1b;"/><path d="M794.92,191.87l-1.99-.36c.22-.8,.61-1.4,1.16-1.78s1.36-.58,2.44-.58c.98,0,1.71,.12,2.19,.35s.82,.53,1.01,.88,.29,1.01,.29,1.96l-.02,2.56c0,.73,.04,1.27,.11,1.61s.2,.72,.39,1.11h-2.17c-.06-.15-.13-.36-.21-.65-.04-.13-.06-.22-.08-.26-.38,.36-.78,.64-1.2,.82s-.88,.27-1.37,.27c-.85,0-1.53-.23-2.02-.7s-.74-1.05-.74-1.76c0-.47,.11-.89,.34-1.25s.54-.65,.94-.84,.99-.37,1.75-.51c1.03-.19,1.74-.37,2.13-.54v-.22c0-.42-.1-.72-.31-.9s-.6-.27-1.18-.27c-.39,0-.7,.08-.91,.23s-.4,.42-.53,.81Zm2.94,1.78c-.28,.09-.73,.21-1.34,.34s-1.01,.26-1.2,.38c-.29,.2-.43,.46-.43,.77s.11,.57,.34,.8,.52,.34,.88,.34c.4,0,.77-.13,1.13-.39,.27-.2,.44-.44,.52-.73,.06-.19,.09-.54,.09-1.07v-.44Z" style="fill:#1d1d1b;"/><path d="M809.79,197.63h-2.04v-1.22c-.34,.47-.74,.83-1.2,1.06s-.93,.35-1.39,.35c-.95,0-1.77-.38-2.45-1.15s-1.02-1.84-1.02-3.21,.33-2.48,.99-3.21,1.5-1.1,2.51-1.1c.93,0,1.73,.39,2.41,1.16v-4.12h2.2v11.45Zm-5.86-4.33c0,.89,.12,1.53,.37,1.92,.35,.57,.85,.86,1.48,.86,.5,0,.93-.21,1.29-.64s.53-1.07,.53-1.93c0-.95-.17-1.64-.52-2.06s-.78-.63-1.32-.63-.96,.21-1.31,.62-.53,1.03-.53,1.86Z" style="fill:#1d1d1b;"/><path d="M812.37,191.53v-2.2h2.2v2.2h-2.2Zm0,6.1v-2.2h2.2v2.2h-2.2Z" style="fill:#1d1d1b;"/><path d="M688.98,218.98l2.81-.27c.17,.94,.51,1.64,1.03,2.08s1.22,.66,2.09,.66c.93,0,1.63-.2,2.1-.59s.71-.85,.71-1.38c0-.34-.1-.63-.3-.86s-.55-.44-1.04-.62c-.34-.12-1.11-.33-2.31-.62-1.55-.38-2.64-.86-3.26-1.42-.88-.79-1.32-1.75-1.32-2.88,0-.73,.21-1.41,.62-2.05s1.01-1.12,1.79-1.45,1.72-.5,2.82-.5c1.8,0,3.15,.39,4.06,1.18s1.39,1.84,1.43,3.15l-2.89,.13c-.12-.74-.39-1.26-.8-1.59s-1.02-.48-1.83-.48-1.5,.17-1.97,.52c-.31,.22-.46,.52-.46,.89,0,.34,.14,.63,.43,.87,.37,.31,1.25,.62,2.66,.96s2.45,.68,3.12,1.03,1.2,.84,1.58,1.46,.57,1.38,.57,2.28c0,.82-.23,1.59-.68,2.3s-1.1,1.25-1.93,1.6-1.87,.52-3.12,.52c-1.81,0-3.2-.42-4.17-1.25s-1.55-2.06-1.74-3.66Z" style="fill:#0333ff;"/><path d="M709.04,220.33l2.73,.46c-.35,1-.91,1.77-1.67,2.29s-1.71,.79-2.85,.79c-1.8,0-3.14-.59-4-1.77-.68-.94-1.03-2.14-1.03-3.57,0-1.72,.45-3.06,1.35-4.04s2.04-1.46,3.41-1.46c1.54,0,2.76,.51,3.65,1.53s1.32,2.58,1.28,4.68h-6.88c.02,.81,.24,1.45,.66,1.9s.95,.68,1.58,.68c.43,0,.79-.12,1.08-.35s.51-.61,.66-1.13Zm.16-2.77c-.02-.79-.22-1.4-.62-1.81s-.87-.62-1.43-.62c-.6,0-1.09,.22-1.48,.65s-.58,1.03-.58,1.78h4.1Z" style="fill:#0333ff;"/><path d="M716.78,223.63h-2.74v-10.37h2.55v1.47c.44-.7,.83-1.16,1.18-1.38s.74-.33,1.19-.33c.62,0,1.23,.17,1.81,.52l-.85,2.39c-.46-.3-.89-.45-1.29-.45s-.71,.11-.98,.32-.48,.59-.63,1.15-.23,1.71-.23,3.48v3.2Z" style="fill:#0333ff;"/><path d="M724.79,223.63l-4.18-10.37h2.88l1.95,5.29,.57,1.77c.15-.45,.24-.75,.28-.89,.09-.29,.19-.59,.29-.88l1.97-5.29h2.82l-4.12,10.37h-2.47Z" style="fill:#0333ff;"/><path d="M733.06,211.86v-2.54h2.74v2.54h-2.74Zm0,11.78v-10.37h2.74v10.37h-2.74Z" style="fill:#0333ff;"/><path d="M747.66,216.33l-2.71,.49c-.09-.54-.3-.95-.62-1.22s-.74-.41-1.25-.41c-.68,0-1.23,.24-1.64,.71s-.61,1.26-.61,2.37c0,1.23,.21,2.1,.62,2.61s.97,.76,1.67,.76c.52,0,.95-.15,1.28-.44s.57-.81,.7-1.53l2.7,.46c-.28,1.24-.82,2.17-1.61,2.8s-1.86,.95-3.19,.95c-1.52,0-2.73-.48-3.63-1.44s-1.35-2.28-1.35-3.97,.45-3.04,1.36-4,2.13-1.43,3.67-1.43c1.26,0,2.27,.27,3.01,.82s1.28,1.37,1.61,2.49Z" style="fill:#0333ff;"/><path d="M755.75,220.33l2.73,.46c-.35,1-.91,1.77-1.67,2.29s-1.71,.79-2.85,.79c-1.8,0-3.14-.59-4-1.77-.68-.94-1.03-2.14-1.03-3.57,0-1.72,.45-3.06,1.35-4.04s2.04-1.46,3.41-1.46c1.54,0,2.76,.51,3.65,1.53s1.32,2.58,1.28,4.68h-6.88c.02,.81,.24,1.45,.66,1.9s.95,.68,1.58,.68c.43,0,.79-.12,1.08-.35s.51-.61,.66-1.13Zm.16-2.77c-.02-.79-.22-1.4-.62-1.81s-.87-.62-1.43-.62c-.6,0-1.09,.22-1.48,.65s-.58,1.03-.58,1.78h4.1Z" style="fill:#0333ff;"/><path d="M766.52,223.63v-14.2h2.89v11.79h7.19v2.41h-10.08Z" style="fill:#0333ff;"/><path d="M784.65,220.33l2.73,.46c-.35,1-.91,1.77-1.67,2.29s-1.71,.79-2.85,.79c-1.8,0-3.14-.59-4-1.77-.68-.94-1.03-2.14-1.03-3.57,0-1.72,.45-3.06,1.35-4.04s2.04-1.46,3.41-1.46c1.54,0,2.76,.51,3.65,1.53s1.32,2.58,1.28,4.68h-6.88c.02,.81,.24,1.45,.66,1.9s.95,.68,1.58,.68c.43,0,.79-.12,1.08-.35s.51-.61,.66-1.13Zm.16-2.77c-.02-.79-.22-1.4-.62-1.81s-.87-.62-1.43-.62c-.6,0-1.09,.22-1.48,.65s-.58,1.03-.58,1.78h4.1Z" style="fill:#0333ff;"/><path d="M792.61,223.63l-4.18-10.37h2.88l1.95,5.29,.57,1.77c.15-.45,.24-.75,.28-.89,.09-.29,.19-.59,.29-.88l1.97-5.29h2.82l-4.12,10.37h-2.47Z" style="fill:#0333ff;"/><path d="M806.89,220.33l2.73,.46c-.35,1-.91,1.77-1.67,2.29s-1.71,.79-2.85,.79c-1.8,0-3.14-.59-4-1.77-.68-.94-1.03-2.14-1.03-3.57,0-1.72,.45-3.06,1.35-4.04s2.03-1.46,3.41-1.46c1.54,0,2.76,.51,3.65,1.53s1.32,2.58,1.28,4.68h-6.88c.02,.81,.24,1.45,.66,1.9s.95,.68,1.58,.68c.43,0,.79-.12,1.08-.35s.51-.61,.66-1.13Zm.16-2.77c-.02-.79-.22-1.4-.62-1.81s-.87-.62-1.43-.62c-.6,0-1.09,.22-1.48,.65s-.58,1.03-.58,1.78h4.1Z" style="fill:#0333ff;"/><path d="M812.01,223.63v-14.32h2.74v14.32h-2.74Z" style="fill:#0333ff;"/></g></g><line x1="494" x2="494" y2="425" style="fill:none; stroke:#000; stroke-miterlimit:8; stroke-width:.5px;"/></svg>