<?xml version="1.0" encoding="UTF-8"?><svg id="Ebene_1" xmlns="http://www.w3.org/2000/svg" viewBox="0 0 988 525"><g><g><path d="M90.54,148.71l1.52,.38c-.32,1.25-.89,2.19-1.71,2.85s-1.83,.98-3.03,.98-2.24-.25-3.01-.75-1.36-1.23-1.77-2.18-.61-1.98-.61-3.07c0-1.19,.23-2.23,.68-3.12s1.1-1.56,1.95-2.02,1.77-.69,2.78-.69c1.15,0,2.11,.29,2.89,.88s1.33,1.4,1.63,2.46l-1.49,.35c-.27-.83-.65-1.44-1.16-1.82s-1.14-.57-1.91-.57c-.88,0-1.62,.21-2.21,.63s-1.01,.99-1.25,1.7-.36,1.44-.36,2.2c0,.97,.14,1.82,.43,2.55s.73,1.27,1.32,1.63,1.25,.54,1.95,.54c.85,0,1.57-.25,2.16-.73s.99-1.22,1.2-2.18Z"/><path d="M92.96,148.58c0-1.54,.43-2.67,1.28-3.41,.71-.61,1.58-.92,2.61-.92,1.14,0,2.07,.37,2.8,1.12s1.09,1.78,1.09,3.1c0,1.07-.16,1.91-.48,2.52s-.79,1.09-1.4,1.43-1.28,.51-2,.51c-1.16,0-2.1-.37-2.82-1.12s-1.07-1.82-1.07-3.22Zm1.45,0c0,1.06,.23,1.86,.7,2.39s1.05,.79,1.75,.79,1.28-.27,1.74-.8,.7-1.34,.7-2.43c0-1.03-.23-1.8-.7-2.33s-1.05-.79-1.74-.79-1.29,.26-1.75,.79-.7,1.32-.7,2.38Z"/><path d="M102.13,152.73v-8.3h1.27v1.18c.61-.91,1.49-1.37,2.64-1.37,.5,0,.96,.09,1.38,.27,.42,.18,.73,.42,.94,.71,.21,.29,.35,.64,.44,1.04,.05,.26,.08,.72,.08,1.37v5.1h-1.41v-5.05c0-.57-.05-1-.16-1.29s-.3-.51-.58-.68c-.28-.17-.61-.25-.98-.25-.6,0-1.12,.19-1.55,.57-.44,.38-.65,1.1-.65,2.16v4.53h-1.41Z"/><path d="M116.15,152.73v-1.05c-.53,.82-1.3,1.23-2.32,1.23-.66,0-1.27-.18-1.82-.55s-.98-.87-1.29-1.53-.46-1.41-.46-2.25,.14-1.58,.41-2.25c.28-.67,.69-1.19,1.24-1.55,.55-.36,1.17-.54,1.85-.54,.5,0,.95,.11,1.34,.32s.71,.49,.95,.82v-4.11h1.4v11.45h-1.3Zm-4.45-4.14c0,1.06,.22,1.86,.67,2.38,.45,.53,.98,.79,1.59,.79s1.14-.25,1.57-.75,.64-1.27,.64-2.3c0-1.14-.22-1.97-.66-2.5s-.98-.8-1.62-.8-1.15,.25-1.57,.77c-.42,.51-.63,1.32-.63,2.41Z"/><path d="M119.42,142.89v-1.62h1.41v1.62h-1.41Zm0,9.84v-8.3h1.41v8.3h-1.41Z"/><path d="M125.78,151.47l.2,1.24c-.4,.08-.75,.12-1.06,.12-.51,0-.91-.08-1.19-.24s-.48-.37-.59-.64c-.12-.26-.17-.82-.17-1.66v-4.77h-1.03v-1.09h1.03v-2.05l1.4-.84v2.9h1.41v1.09h-1.41v4.85c0,.4,.02,.66,.07,.77,.05,.11,.13,.21,.24,.27,.11,.07,.27,.1,.48,.1,.16,0,.36-.02,.62-.05Z"/><path d="M126.91,142.89v-1.62h1.41v1.62h-1.41Zm0,9.84v-8.3h1.41v8.3h-1.41Z"/><path d="M129.67,148.58c0-1.54,.43-2.67,1.28-3.41,.71-.61,1.58-.92,2.61-.92,1.14,0,2.07,.37,2.8,1.12s1.09,1.78,1.09,3.1c0,1.07-.16,1.91-.48,2.52s-.79,1.09-1.4,1.43-1.28,.51-2,.51c-1.16,0-2.1-.37-2.82-1.12s-1.07-1.82-1.07-3.22Zm1.45,0c0,1.06,.23,1.86,.7,2.39s1.05,.79,1.75,.79,1.28-.27,1.74-.8,.7-1.34,.7-2.43c0-1.03-.23-1.8-.7-2.33s-1.05-.79-1.74-.79-1.29,.26-1.75,.79-.7,1.32-.7,2.38Z"/><path d="M138.84,152.73v-8.3h1.27v1.18c.61-.91,1.49-1.37,2.64-1.37,.5,0,.96,.09,1.38,.27s.73,.42,.94,.71,.35,.64,.44,1.04c.05,.26,.08,.72,.08,1.37v5.1h-1.41v-5.05c0-.57-.05-1-.16-1.29s-.3-.51-.58-.68-.61-.25-.98-.25c-.6,0-1.12,.19-1.55,.57s-.65,1.1-.65,2.16v4.53h-1.41Z"/><path d="M153.16,150.05l1.45,.18c-.23,.85-.65,1.51-1.27,1.98-.62,.47-1.41,.7-2.38,.7-1.21,0-2.18-.37-2.89-1.12s-1.07-1.8-1.07-3.14,.36-2.48,1.08-3.25,1.65-1.16,2.8-1.16,2.02,.38,2.72,1.13,1.05,1.82,1.05,3.19c0,.08,0,.21,0,.38h-6.19c.05,.91,.31,1.61,.77,2.09,.46,.48,1.04,.73,1.73,.73,.52,0,.96-.14,1.32-.41,.36-.27,.65-.7,.87-1.3Zm-4.62-2.27h4.63c-.06-.7-.24-1.22-.53-1.57-.45-.54-1.03-.81-1.74-.81-.65,0-1.19,.22-1.63,.65-.44,.43-.68,1.01-.73,1.73Z"/><path d="M161.51,152.73v-1.05c-.53,.82-1.3,1.23-2.32,1.23-.66,0-1.27-.18-1.82-.55s-.98-.87-1.29-1.53-.46-1.41-.46-2.25,.14-1.58,.41-2.25c.28-.67,.69-1.19,1.24-1.55,.55-.36,1.17-.54,1.85-.54,.5,0,.95,.11,1.34,.32s.71,.49,.95,.82v-4.11h1.4v11.45h-1.3Zm-4.45-4.14c0,1.06,.22,1.86,.67,2.38,.45,.53,.98,.79,1.59,.79s1.14-.25,1.57-.75,.64-1.27,.64-2.3c0-1.14-.22-1.97-.66-2.5s-.98-.8-1.62-.8-1.15,.25-1.57,.77c-.42,.51-.63,1.32-.63,2.41Z"/><path d="M168.43,148.58c0-1.54,.43-2.67,1.28-3.41,.71-.61,1.58-.92,2.61-.92,1.14,0,2.07,.37,2.8,1.12,.72,.75,1.09,1.78,1.09,3.1,0,1.07-.16,1.91-.48,2.52s-.79,1.09-1.4,1.43c-.61,.34-1.28,.51-2,.51-1.16,0-2.1-.37-2.82-1.12-.72-.75-1.07-1.82-1.07-3.22Zm1.45,0c0,1.06,.23,1.86,.7,2.39,.46,.53,1.05,.79,1.75,.79s1.28-.27,1.74-.8c.46-.53,.7-1.34,.7-2.43,0-1.03-.23-1.8-.7-2.33-.47-.53-1.05-.79-1.74-.79s-1.29,.26-1.75,.79c-.46,.53-.7,1.32-.7,2.38Z"/><path d="M177.58,152.73v-8.3h1.27v1.26c.32-.59,.62-.98,.89-1.16s.57-.28,.9-.28c.47,0,.96,.15,1.45,.45l-.48,1.3c-.34-.2-.69-.3-1.03-.3-.31,0-.58,.09-.83,.28s-.42,.44-.52,.77c-.16,.5-.23,1.05-.23,1.64v4.34h-1.41Z"/><path d="M186.86,155.91v-11.48h1.28v1.08c.3-.42,.64-.74,1.02-.95s.84-.32,1.38-.32c.71,0,1.33,.18,1.88,.55s.95,.88,1.23,1.54,.41,1.39,.41,2.18c0,.85-.15,1.61-.46,2.29s-.75,1.2-1.33,1.56-1.19,.54-1.83,.54c-.47,0-.89-.1-1.26-.3s-.68-.45-.92-.75v4.04h-1.41Zm1.27-7.28c0,1.07,.22,1.86,.65,2.37s.96,.77,1.57,.77,1.16-.26,1.61-.79,.67-1.35,.67-2.46-.22-1.85-.65-2.38-.95-.79-1.56-.79-1.13,.28-1.59,.84-.69,1.37-.69,2.44Z"/><path d="M195.49,152.73v-8.3h1.27v1.26c.32-.59,.62-.98,.89-1.16s.57-.28,.9-.28c.47,0,.96,.15,1.45,.45l-.48,1.3c-.34-.2-.69-.3-1.03-.3-.31,0-.58,.09-.83,.28-.25,.18-.42,.44-.52,.77-.16,.5-.23,1.05-.23,1.64v4.34h-1.41Z"/><path d="M206.26,150.05l1.45,.18c-.23,.85-.65,1.51-1.27,1.98-.62,.47-1.41,.7-2.38,.7-1.21,0-2.18-.37-2.89-1.12s-1.07-1.8-1.07-3.14,.36-2.48,1.08-3.25,1.65-1.16,2.8-1.16,2.02,.38,2.72,1.13,1.05,1.82,1.05,3.19c0,.08,0,.21,0,.38h-6.19c.05,.91,.31,1.61,.77,2.09,.46,.48,1.04,.73,1.73,.73,.52,0,.96-.14,1.32-.41,.36-.27,.65-.7,.87-1.3Zm-4.62-2.27h4.63c-.06-.7-.24-1.22-.53-1.57-.45-.54-1.03-.81-1.74-.81-.65,0-1.19,.22-1.63,.65-.44,.43-.68,1.01-.73,1.73Z"/><path d="M208.67,149.29v-1.41h4.32v1.41h-4.32Z"/><path d="M214.29,155.91v-11.48h1.28v1.08c.3-.42,.64-.74,1.02-.95,.38-.21,.84-.32,1.38-.32,.71,0,1.33,.18,1.88,.55,.54,.36,.95,.88,1.23,1.54,.28,.66,.41,1.39,.41,2.18,0,.85-.15,1.61-.46,2.29s-.75,1.2-1.33,1.56c-.58,.36-1.19,.54-1.83,.54-.47,0-.89-.1-1.26-.3-.37-.2-.68-.45-.92-.75v4.04h-1.41Zm1.27-7.28c0,1.07,.22,1.86,.65,2.37,.43,.51,.96,.77,1.57,.77s1.16-.26,1.61-.79,.67-1.35,.67-2.46-.22-1.85-.65-2.38c-.44-.53-.96-.79-1.56-.79s-1.13,.28-1.59,.84-.69,1.37-.69,2.44Z"/><path d="M222.92,152.73v-8.3h1.27v1.26c.32-.59,.62-.98,.89-1.16s.57-.28,.9-.28c.47,0,.96,.15,1.45,.45l-.48,1.3c-.34-.2-.69-.3-1.03-.3-.31,0-.58,.09-.83,.28s-.42,.44-.52,.77c-.16,.5-.23,1.05-.23,1.64v4.34h-1.41Z"/><path d="M227.48,148.58c0-1.54,.43-2.67,1.28-3.41,.71-.61,1.58-.92,2.61-.92,1.14,0,2.07,.37,2.8,1.12s1.09,1.78,1.09,3.1c0,1.07-.16,1.91-.48,2.52s-.79,1.09-1.4,1.43-1.28,.51-2,.51c-1.16,0-2.1-.37-2.82-1.12s-1.07-1.82-1.07-3.22Zm1.45,0c0,1.06,.23,1.86,.7,2.39s1.05,.79,1.75,.79,1.28-.27,1.74-.8,.7-1.34,.7-2.43c0-1.03-.23-1.8-.7-2.33s-1.05-.79-1.74-.79-1.29,.26-1.75,.79-.7,1.32-.7,2.38Z"/><path d="M236.39,153.41l1.37,.2c.06,.42,.22,.73,.48,.92,.35,.26,.83,.39,1.43,.39,.65,0,1.15-.13,1.51-.39s.59-.62,.72-1.09c.07-.29,.11-.89,.1-1.8-.61,.72-1.38,1.09-2.3,1.09-1.14,0-2.02-.41-2.65-1.23s-.94-1.81-.94-2.96c0-.79,.14-1.52,.43-2.19s.7-1.19,1.25-1.55,1.18-.55,1.92-.55c.98,0,1.79,.4,2.42,1.19v-1h1.3v7.17c0,1.29-.13,2.21-.39,2.75s-.68,.96-1.25,1.28-1.27,.47-2.11,.47c-.99,0-1.79-.22-2.4-.67s-.9-1.12-.88-2.01Zm1.16-4.98c0,1.09,.22,1.88,.65,2.38s.97,.75,1.62,.75,1.19-.25,1.62-.75,.66-1.28,.66-2.34-.23-1.78-.68-2.3-.99-.77-1.63-.77-1.16,.25-1.59,.76-.66,1.26-.66,2.26Z"/><path d="M245.27,152.73v-8.3h1.27v1.26c.32-.59,.62-.98,.89-1.16s.57-.28,.9-.28c.47,0,.96,.15,1.45,.45l-.48,1.3c-.34-.2-.69-.3-1.03-.3-.31,0-.58,.09-.83,.28-.25,.18-.42,.44-.52,.77-.16,.5-.23,1.05-.23,1.64v4.34h-1.41Z"/><path d="M255.78,151.7c-.52,.44-1.02,.75-1.5,.94-.48,.18-1,.27-1.55,.27-.91,0-1.61-.22-2.1-.67-.49-.45-.73-1.01-.73-1.71,0-.41,.09-.78,.28-1.11,.18-.34,.43-.61,.73-.81,.3-.2,.64-.36,1.01-.46,.28-.07,.69-.14,1.25-.21,1.13-.14,1.97-.3,2.51-.48,0-.19,0-.32,0-.37,0-.57-.13-.98-.4-1.21-.36-.32-.89-.48-1.6-.48-.66,0-1.15,.12-1.46,.35-.32,.23-.55,.64-.7,1.23l-1.38-.19c.12-.59,.33-1.06,.62-1.43,.29-.36,.7-.64,1.24-.84,.54-.2,1.17-.29,1.88-.29s1.28,.08,1.73,.25c.44,.17,.77,.38,.98,.63,.21,.25,.35,.57,.44,.96,.05,.24,.07,.67,.07,1.3v1.88c0,1.31,.03,2.13,.09,2.48,.06,.35,.18,.68,.36,1h-1.47c-.15-.29-.24-.63-.28-1.02Zm-.12-3.14c-.51,.21-1.28,.39-2.3,.53-.58,.08-.99,.18-1.23,.28-.24,.1-.42,.26-.55,.46-.13,.2-.2,.42-.2,.67,0,.38,.14,.69,.43,.94,.28,.25,.7,.38,1.25,.38s1.02-.12,1.45-.36,.73-.56,.93-.97c.15-.32,.23-.79,.23-1.41v-.52Z"/><path d="M259,152.73v-8.3h1.26v1.16c.26-.41,.61-.73,1.04-.98,.43-.25,.92-.37,1.48-.37,.61,0,1.12,.13,1.51,.38,.39,.25,.67,.61,.83,1.07,.66-.97,1.51-1.45,2.56-1.45,.82,0,1.46,.23,1.9,.68,.44,.46,.66,1.16,.66,2.11v5.7h-1.4v-5.23c0-.56-.05-.97-.14-1.21-.09-.25-.26-.45-.5-.6-.24-.15-.52-.23-.84-.23-.58,0-1.07,.19-1.45,.58-.39,.39-.58,1.01-.58,1.86v4.82h-1.41v-5.39c0-.62-.12-1.09-.34-1.41-.23-.31-.6-.47-1.12-.47-.4,0-.76,.1-1.1,.31s-.58,.51-.73,.91c-.15,.4-.23,.98-.23,1.73v4.3h-1.41Z"/><path d="M272.08,152.73v-8.3h1.26v1.16c.26-.41,.61-.73,1.04-.98,.43-.25,.92-.37,1.48-.37,.61,0,1.12,.13,1.51,.38,.39,.25,.67,.61,.83,1.07,.66-.97,1.51-1.45,2.56-1.45,.82,0,1.46,.23,1.9,.68,.44,.46,.66,1.16,.66,2.11v5.7h-1.4v-5.23c0-.56-.05-.97-.14-1.21-.09-.25-.26-.45-.5-.6-.24-.15-.52-.23-.84-.23-.58,0-1.07,.19-1.45,.58-.39,.39-.58,1.01-.58,1.86v4.82h-1.41v-5.39c0-.62-.12-1.09-.34-1.41-.23-.31-.6-.47-1.12-.47-.4,0-.76,.1-1.1,.31s-.58,.51-.73,.91c-.15,.4-.23,.98-.23,1.73v4.3h-1.41Z"/><path d="M290.83,150.05l1.45,.18c-.23,.85-.65,1.51-1.27,1.98s-1.41,.7-2.38,.7c-1.21,0-2.18-.37-2.89-1.12s-1.07-1.8-1.07-3.14,.36-2.48,1.08-3.25,1.65-1.16,2.8-1.16,2.02,.38,2.72,1.13,1.05,1.82,1.05,3.19c0,.08,0,.21,0,.38h-6.19c.05,.91,.31,1.61,.77,2.09s1.04,.73,1.73,.73c.52,0,.96-.14,1.32-.41s.65-.7,.87-1.3Zm-4.62-2.27h4.63c-.06-.7-.24-1.22-.53-1.57-.45-.54-1.03-.81-1.74-.81-.65,0-1.19,.22-1.63,.65s-.68,1.01-.73,1.73Z"/><path d="M299.17,152.73v-1.05c-.53,.82-1.3,1.23-2.32,1.23-.66,0-1.27-.18-1.82-.55s-.98-.87-1.29-1.53-.46-1.41-.46-2.25,.14-1.58,.41-2.25,.69-1.19,1.24-1.55,1.17-.54,1.85-.54c.5,0,.95,.11,1.34,.32s.71,.49,.95,.82v-4.11h1.4v11.45h-1.3Zm-4.45-4.14c0,1.06,.22,1.86,.67,2.38s.98,.79,1.59,.79,1.14-.25,1.57-.75,.64-1.27,.64-2.3c0-1.14-.22-1.97-.66-2.5s-.98-.8-1.62-.8-1.15,.25-1.57,.77-.63,1.32-.63,2.41Z"/><path d="M312.04,149.69l1.38,.18c-.15,.95-.54,1.7-1.16,2.24-.62,.54-1.39,.81-2.29,.81-1.14,0-2.05-.37-2.74-1.11-.69-.74-1.04-1.81-1.04-3.19,0-.9,.15-1.68,.45-2.35s.75-1.18,1.36-1.51c.61-.34,1.27-.5,1.98-.5,.9,0,1.64,.23,2.21,.68,.57,.46,.94,1.1,1.1,1.94l-1.37,.21c-.13-.56-.36-.98-.69-1.26-.33-.28-.73-.42-1.2-.42-.71,0-1.28,.25-1.73,.76-.44,.51-.66,1.31-.66,2.41s.21,1.92,.64,2.43c.43,.5,.98,.76,1.67,.76,.55,0,1.01-.17,1.38-.51,.37-.34,.6-.86,.7-1.56Z"/><path d="M313.84,148.58c0-1.54,.43-2.67,1.28-3.41,.71-.61,1.58-.92,2.61-.92,1.14,0,2.07,.37,2.8,1.12,.72,.75,1.09,1.78,1.09,3.1,0,1.07-.16,1.91-.48,2.52s-.79,1.09-1.4,1.43c-.61,.34-1.28,.51-2,.51-1.16,0-2.1-.37-2.82-1.12-.72-.75-1.07-1.82-1.07-3.22Zm1.45,0c0,1.06,.23,1.86,.7,2.39,.46,.53,1.05,.79,1.75,.79s1.28-.27,1.74-.8c.46-.53,.7-1.34,.7-2.43,0-1.03-.23-1.8-.7-2.33-.47-.53-1.05-.79-1.74-.79s-1.29,.26-1.75,.79c-.46,.53-.7,1.32-.7,2.38Z"/><path d="M322.75,153.41l1.37,.2c.06,.42,.22,.73,.48,.92,.35,.26,.83,.39,1.43,.39,.65,0,1.15-.13,1.51-.39,.35-.26,.59-.62,.72-1.09,.07-.29,.11-.89,.1-1.8-.62,.72-1.38,1.09-2.3,1.09-1.14,0-2.02-.41-2.65-1.23s-.94-1.81-.94-2.96c0-.79,.14-1.52,.43-2.19,.29-.67,.7-1.19,1.25-1.55,.54-.36,1.18-.55,1.92-.55,.98,0,1.79,.4,2.42,1.19v-1h1.3v7.17c0,1.29-.13,2.21-.39,2.75-.26,.54-.68,.96-1.25,1.28s-1.27,.47-2.11,.47c-.99,0-1.79-.22-2.4-.67s-.9-1.12-.88-2.01Zm1.16-4.98c0,1.09,.22,1.88,.65,2.38,.43,.5,.97,.75,1.62,.75s1.19-.25,1.62-.75,.66-1.28,.66-2.34-.23-1.78-.68-2.3c-.45-.52-.99-.77-1.63-.77s-1.16,.25-1.59,.76-.66,1.26-.66,2.26Z"/><path d="M331.65,152.73v-8.3h1.27v1.18c.61-.91,1.49-1.37,2.64-1.37,.5,0,.96,.09,1.38,.27,.42,.18,.73,.42,.94,.71,.21,.29,.35,.64,.44,1.04,.05,.26,.08,.72,.08,1.37v5.1h-1.41v-5.05c0-.57-.05-1-.16-1.29s-.3-.51-.58-.68c-.28-.17-.61-.25-.98-.25-.6,0-1.12,.19-1.55,.57-.44,.38-.65,1.1-.65,2.16v4.53h-1.41Z"/><path d="M340.3,142.89v-1.62h1.41v1.62h-1.41Zm0,9.84v-8.3h1.41v8.3h-1.41Z"/><path d="M346.66,151.47l.2,1.24c-.4,.08-.75,.12-1.06,.12-.51,0-.91-.08-1.19-.24s-.48-.37-.59-.64-.17-.82-.17-1.66v-4.77h-1.03v-1.09h1.03v-2.05l1.4-.84v2.9h1.41v1.09h-1.41v4.85c0,.4,.02,.66,.07,.77s.13,.21,.24,.27,.27,.1,.48,.1c.16,0,.36-.02,.62-.05Z"/><path d="M347.79,142.89v-1.62h1.41v1.62h-1.41Zm0,9.84v-8.3h1.41v8.3h-1.41Z"/><path d="M353.39,152.73l-3.16-8.3h1.48l1.78,4.97c.19,.54,.37,1.09,.53,1.67,.12-.44,.3-.96,.52-1.58l1.84-5.06h1.45l-3.14,8.3h-1.31Z"/><path d="M364.5,150.05l1.45,.18c-.23,.85-.65,1.51-1.27,1.98-.62,.47-1.41,.7-2.38,.7-1.21,0-2.18-.37-2.89-1.12s-1.07-1.8-1.07-3.14,.36-2.48,1.08-3.25,1.65-1.16,2.8-1.16,2.02,.38,2.72,1.13,1.05,1.82,1.05,3.19c0,.08,0,.21,0,.38h-6.19c.05,.91,.31,1.61,.77,2.09,.46,.48,1.04,.73,1.73,.73,.52,0,.96-.14,1.32-.41,.36-.27,.65-.7,.87-1.3Zm-4.62-2.27h4.63c-.06-.7-.24-1.22-.53-1.57-.45-.54-1.03-.81-1.74-.81-.65,0-1.19,.22-1.63,.65-.44,.43-.68,1.01-.73,1.73Z"/><path d="M87.6,170.9c-.52,.44-1.02,.75-1.5,.94s-1,.27-1.55,.27c-.91,0-1.61-.22-2.1-.67s-.73-1.01-.73-1.71c0-.41,.09-.78,.28-1.11s.43-.61,.73-.81,.64-.36,1.01-.46c.28-.07,.69-.14,1.25-.21,1.14-.14,1.97-.3,2.51-.48,0-.19,0-.32,0-.37,0-.57-.13-.98-.4-1.21-.36-.32-.89-.48-1.6-.48-.66,0-1.15,.12-1.46,.35s-.55,.64-.7,1.23l-1.38-.19c.12-.59,.33-1.06,.62-1.43s.7-.64,1.24-.84,1.17-.29,1.88-.29,1.28,.08,1.73,.25,.77,.38,.98,.63,.35,.57,.44,.96c.05,.24,.07,.67,.07,1.3v1.88c0,1.31,.03,2.13,.09,2.48s.18,.68,.36,1h-1.47c-.15-.29-.24-.63-.28-1.02Zm-.12-3.14c-.51,.21-1.28,.39-2.3,.53-.58,.08-.99,.18-1.23,.28s-.42,.26-.55,.46-.2,.42-.2,.67c0,.38,.14,.69,.43,.94s.7,.38,1.25,.38,1.02-.12,1.45-.36,.73-.56,.93-.97c.15-.32,.23-.79,.23-1.41v-.52Z"/><path d="M90.83,171.93v-8.3h1.27v1.18c.61-.91,1.49-1.37,2.64-1.37,.5,0,.96,.09,1.38,.27s.73,.42,.94,.71,.35,.64,.44,1.04c.05,.26,.08,.72,.08,1.37v5.1h-1.41v-5.05c0-.57-.05-1-.16-1.29s-.3-.51-.58-.68-.61-.25-.98-.25c-.6,0-1.12,.19-1.55,.57s-.65,1.1-.65,2.16v4.53h-1.41Z"/><path d="M104.85,171.93v-1.05c-.53,.82-1.3,1.23-2.32,1.23-.66,0-1.27-.18-1.82-.55s-.98-.87-1.29-1.53-.46-1.41-.46-2.25,.14-1.58,.41-2.25c.28-.67,.69-1.19,1.24-1.55,.55-.36,1.17-.54,1.85-.54,.5,0,.95,.11,1.34,.32s.71,.49,.95,.82v-4.11h1.4v11.45h-1.3Zm-4.45-4.14c0,1.06,.22,1.86,.67,2.38,.45,.53,.98,.79,1.59,.79s1.14-.25,1.57-.75,.64-1.27,.64-2.3c0-1.14-.22-1.97-.66-2.5s-.98-.8-1.62-.8-1.15,.25-1.57,.77c-.42,.51-.63,1.32-.63,2.41Z"/><path d="M117.98,169.25l1.45,.18c-.23,.85-.65,1.51-1.27,1.98-.62,.47-1.41,.7-2.38,.7-1.21,0-2.18-.37-2.89-1.12s-1.07-1.8-1.07-3.14,.36-2.48,1.08-3.25,1.65-1.16,2.8-1.16,2.02,.38,2.72,1.13,1.05,1.82,1.05,3.19c0,.08,0,.21,0,.38h-6.19c.05,.91,.31,1.61,.77,2.09,.46,.48,1.04,.73,1.73,.73,.52,0,.96-.14,1.32-.41,.36-.27,.65-.7,.87-1.3Zm-4.62-2.27h4.63c-.06-.7-.24-1.22-.53-1.57-.45-.54-1.03-.81-1.74-.81-.65,0-1.19,.22-1.63,.65-.44,.43-.68,1.01-.73,1.73Z"/><path d="M120.95,171.93v-8.3h1.26v1.16c.26-.41,.61-.73,1.04-.98,.43-.25,.92-.37,1.48-.37,.61,0,1.12,.13,1.51,.38,.39,.25,.67,.61,.83,1.07,.66-.97,1.51-1.45,2.56-1.45,.82,0,1.46,.23,1.9,.68,.44,.46,.66,1.16,.66,2.11v5.7h-1.4v-5.23c0-.56-.05-.97-.14-1.21-.09-.25-.26-.45-.5-.6-.24-.15-.52-.23-.84-.23-.58,0-1.07,.19-1.45,.58-.39,.39-.58,1.01-.58,1.86v4.82h-1.41v-5.39c0-.62-.12-1.09-.34-1.41-.23-.31-.6-.47-1.12-.47-.4,0-.76,.1-1.1,.31s-.58,.51-.73,.91c-.15,.4-.23,.98-.23,1.73v4.3h-1.41Z"/><path d="M133.49,167.78c0-1.54,.43-2.67,1.28-3.41,.71-.61,1.58-.92,2.61-.92,1.14,0,2.07,.37,2.8,1.12s1.09,1.78,1.09,3.1c0,1.07-.16,1.91-.48,2.52s-.79,1.09-1.4,1.43-1.28,.51-2,.51c-1.16,0-2.1-.37-2.82-1.12s-1.07-1.82-1.07-3.22Zm1.45,0c0,1.06,.23,1.86,.7,2.39s1.05,.79,1.75,.79,1.28-.27,1.74-.8,.7-1.34,.7-2.43c0-1.03-.23-1.8-.7-2.33s-1.05-.79-1.74-.79-1.29,.26-1.75,.79-.7,1.32-.7,2.38Z"/><path d="M145.73,170.67l.2,1.24c-.4,.08-.75,.12-1.06,.12-.51,0-.91-.08-1.19-.24s-.48-.37-.59-.64-.17-.82-.17-1.66v-4.77h-1.03v-1.09h1.03v-2.05l1.4-.84v2.9h1.41v1.09h-1.41v4.85c0,.4,.02,.66,.07,.77s.13,.21,.24,.27,.27,.1,.48,.1c.16,0,.36-.02,.62-.05Z"/><path d="M146.86,162.09v-1.62h1.41v1.62h-1.41Zm0,9.84v-8.3h1.41v8.3h-1.41Z"/><path d="M149.62,167.78c0-1.54,.43-2.67,1.28-3.41,.71-.61,1.58-.92,2.61-.92,1.14,0,2.07,.37,2.8,1.12,.72,.75,1.09,1.78,1.09,3.1,0,1.07-.16,1.91-.48,2.52s-.79,1.09-1.4,1.43c-.61,.34-1.28,.51-2,.51-1.16,0-2.1-.37-2.82-1.12-.72-.75-1.07-1.82-1.07-3.22Zm1.45,0c0,1.06,.23,1.86,.7,2.39,.46,.53,1.05,.79,1.75,.79s1.28-.27,1.74-.8c.46-.53,.7-1.34,.7-2.43,0-1.03-.23-1.8-.7-2.33-.47-.53-1.05-.79-1.74-.79s-1.29,.26-1.75,.79c-.46,.53-.7,1.32-.7,2.38Z"/><path d="M158.79,171.93v-8.3h1.27v1.18c.61-.91,1.49-1.37,2.64-1.37,.5,0,.96,.09,1.38,.27,.42,.18,.73,.42,.94,.71,.21,.29,.35,.64,.44,1.04,.05,.26,.08,.72,.08,1.37v5.1h-1.41v-5.05c0-.57-.05-1-.16-1.29s-.3-.51-.58-.68c-.28-.17-.61-.25-.98-.25-.6,0-1.12,.19-1.55,.57-.44,.38-.65,1.1-.65,2.16v4.53h-1.41Z"/><path d="M172.85,170.9c-.52,.44-1.02,.75-1.5,.94-.48,.18-1,.27-1.55,.27-.91,0-1.61-.22-2.1-.67-.49-.45-.73-1.01-.73-1.71,0-.41,.09-.78,.28-1.11,.18-.34,.43-.61,.73-.81,.3-.2,.64-.36,1.01-.46,.28-.07,.69-.14,1.25-.21,1.13-.14,1.97-.3,2.51-.48,0-.19,0-.32,0-.37,0-.57-.13-.98-.4-1.21-.36-.32-.89-.48-1.6-.48-.66,0-1.15,.12-1.46,.35-.32,.23-.55,.64-.7,1.23l-1.38-.19c.12-.59,.33-1.06,.62-1.43,.29-.36,.7-.64,1.24-.84,.54-.2,1.17-.29,1.88-.29s1.28,.08,1.73,.25c.44,.17,.77,.38,.98,.63,.21,.25,.35,.57,.44,.96,.05,.24,.07,.67,.07,1.3v1.88c0,1.31,.03,2.13,.09,2.48,.06,.35,.18,.68,.36,1h-1.47c-.15-.29-.24-.63-.28-1.02Zm-.12-3.14c-.51,.21-1.28,.39-2.3,.53-.58,.08-.99,.18-1.23,.28-.24,.1-.42,.26-.55,.46-.13,.2-.2,.42-.2,.67,0,.38,.14,.69,.43,.94,.28,.25,.7,.38,1.25,.38s1.02-.12,1.45-.36,.73-.56,.93-.97c.15-.32,.23-.79,.23-1.41v-.52Z"/><path d="M176.04,171.93v-11.45h1.41v11.45h-1.41Z"/><path d="M183.55,171.93v-8.3h1.27v1.26c.32-.59,.62-.98,.89-1.16s.57-.28,.9-.28c.47,0,.96,.15,1.45,.45l-.48,1.3c-.34-.2-.69-.3-1.03-.3-.31,0-.58,.09-.83,.28s-.42,.44-.52,.77c-.16,.5-.23,1.05-.23,1.64v4.34h-1.41Z"/><path d="M194.31,169.25l1.45,.18c-.23,.85-.65,1.51-1.27,1.98s-1.41,.7-2.38,.7c-1.21,0-2.18-.37-2.89-1.12s-1.07-1.8-1.07-3.14,.36-2.48,1.08-3.25,1.65-1.16,2.8-1.16,2.02,.38,2.72,1.13,1.05,1.82,1.05,3.19c0,.08,0,.21,0,.38h-6.19c.05,.91,.31,1.61,.77,2.09s1.04,.73,1.73,.73c.52,0,.96-.14,1.32-.41s.65-.7,.87-1.3Zm-4.62-2.27h4.63c-.06-.7-.24-1.22-.53-1.57-.45-.54-1.03-.81-1.74-.81-.65,0-1.19,.22-1.63,.65s-.68,1.01-.73,1.73Z"/><path d="M196.71,169.45l1.39-.22c.08,.56,.29,.98,.65,1.28,.36,.3,.86,.45,1.5,.45s1.12-.13,1.44-.39,.47-.57,.47-.93c0-.32-.14-.57-.41-.75-.19-.12-.67-.28-1.44-.48-1.03-.26-1.75-.49-2.14-.68s-.7-.45-.91-.79c-.21-.34-.31-.71-.31-1.11,0-.37,.08-.71,.25-1.03,.17-.32,.4-.58,.69-.79,.22-.16,.52-.3,.89-.41,.38-.11,.78-.17,1.21-.17,.65,0,1.22,.09,1.71,.28s.86,.44,1.09,.76,.4,.75,.48,1.29l-1.38,.19c-.06-.43-.24-.76-.54-1-.3-.24-.72-.36-1.27-.36-.65,0-1.11,.11-1.38,.32-.28,.21-.41,.46-.41,.75,0,.18,.06,.35,.17,.49,.11,.15,.29,.28,.54,.38,.14,.05,.55,.17,1.24,.36,.99,.27,1.69,.48,2.08,.65,.39,.17,.7,.42,.93,.74,.22,.32,.34,.72,.34,1.2s-.14,.91-.41,1.32-.67,.73-1.18,.96-1.1,.34-1.75,.34c-1.08,0-1.9-.22-2.46-.67-.57-.45-.93-1.11-1.08-1.99Z"/><path d="M205.02,175.11v-11.48h1.28v1.08c.3-.42,.64-.74,1.02-.95,.38-.21,.84-.32,1.38-.32,.71,0,1.33,.18,1.88,.55,.54,.36,.95,.88,1.23,1.54,.28,.66,.41,1.39,.41,2.18,0,.85-.15,1.61-.46,2.29s-.75,1.2-1.33,1.56c-.58,.36-1.19,.54-1.83,.54-.47,0-.89-.1-1.26-.3-.37-.2-.68-.45-.92-.75v4.04h-1.41Zm1.27-7.28c0,1.07,.22,1.86,.65,2.37,.43,.51,.96,.77,1.57,.77s1.16-.26,1.61-.79,.67-1.35,.67-2.46-.22-1.85-.65-2.38c-.44-.53-.96-.79-1.56-.79s-1.13,.28-1.59,.84-.69,1.37-.69,2.44Z"/><path d="M213.14,167.78c0-1.54,.43-2.67,1.28-3.41,.71-.61,1.58-.92,2.61-.92,1.14,0,2.07,.37,2.8,1.12,.72,.75,1.09,1.78,1.09,3.1,0,1.07-.16,1.91-.48,2.52s-.79,1.09-1.4,1.43c-.61,.34-1.28,.51-2,.51-1.16,0-2.1-.37-2.82-1.12-.72-.75-1.07-1.82-1.07-3.22Zm1.45,0c0,1.06,.23,1.86,.7,2.39,.46,.53,1.05,.79,1.75,.79s1.28-.27,1.74-.8c.46-.53,.7-1.34,.7-2.43,0-1.03-.23-1.8-.7-2.33-.47-.53-1.05-.79-1.74-.79s-1.29,.26-1.75,.79c-.46,.53-.7,1.32-.7,2.38Z"/><path d="M222.31,171.93v-8.3h1.27v1.18c.61-.91,1.49-1.37,2.64-1.37,.5,0,.96,.09,1.38,.27,.42,.18,.73,.42,.94,.71,.21,.29,.35,.64,.44,1.04,.05,.26,.08,.72,.08,1.37v5.1h-1.41v-5.05c0-.57-.05-1-.16-1.29s-.3-.51-.58-.68c-.28-.17-.61-.25-.98-.25-.6,0-1.12,.19-1.55,.57-.44,.38-.65,1.1-.65,2.16v4.53h-1.41Z"/><path d="M230.39,169.45l1.39-.22c.08,.56,.3,.98,.65,1.28s.86,.45,1.5,.45,1.12-.13,1.44-.39,.47-.57,.47-.93c0-.32-.14-.57-.41-.75-.19-.12-.67-.28-1.44-.48-1.03-.26-1.75-.49-2.14-.68s-.7-.45-.91-.79-.31-.71-.31-1.11c0-.37,.08-.71,.25-1.03s.4-.58,.69-.79c.22-.16,.52-.3,.89-.41s.78-.17,1.21-.17c.65,0,1.22,.09,1.71,.28s.86,.44,1.09,.76,.4,.75,.48,1.29l-1.38,.19c-.06-.43-.24-.76-.54-1s-.72-.36-1.27-.36c-.65,0-1.11,.11-1.38,.32s-.41,.46-.41,.75c0,.18,.06,.35,.17,.49,.11,.15,.29,.28,.54,.38,.14,.05,.55,.17,1.24,.36,1,.27,1.69,.48,2.08,.65s.7,.42,.93,.74,.34,.72,.34,1.2-.14,.91-.41,1.32-.67,.73-1.18,.96-1.1,.34-1.75,.34c-1.08,0-1.9-.22-2.46-.67s-.93-1.11-1.08-1.99Z"/><path d="M244.37,169.25l1.45,.18c-.23,.85-.65,1.51-1.27,1.98s-1.41,.7-2.38,.7c-1.21,0-2.18-.37-2.89-1.12s-1.07-1.8-1.07-3.14,.36-2.48,1.08-3.25,1.65-1.16,2.8-1.16,2.02,.38,2.72,1.13,1.05,1.82,1.05,3.19c0,.08,0,.21,0,.38h-6.19c.05,.91,.31,1.61,.77,2.09s1.04,.73,1.73,.73c.52,0,.96-.14,1.32-.41s.65-.7,.87-1.3Zm-4.62-2.27h4.63c-.06-.7-.24-1.22-.53-1.57-.45-.54-1.03-.81-1.74-.81-.65,0-1.19,.22-1.63,.65s-.68,1.01-.73,1.73Z"/><path d="M246.77,169.45l1.39-.22c.08,.56,.3,.98,.65,1.28s.86,.45,1.5,.45,1.12-.13,1.44-.39,.47-.57,.47-.93c0-.32-.14-.57-.41-.75-.19-.12-.67-.28-1.44-.48-1.03-.26-1.75-.49-2.14-.68s-.7-.45-.91-.79-.31-.71-.31-1.11c0-.37,.08-.71,.25-1.03s.4-.58,.69-.79c.22-.16,.52-.3,.89-.41s.78-.17,1.21-.17c.65,0,1.22,.09,1.71,.28s.86,.44,1.09,.76,.4,.75,.48,1.29l-1.38,.19c-.06-.43-.24-.76-.54-1s-.72-.36-1.27-.36c-.65,0-1.11,.11-1.38,.32s-.41,.46-.41,.75c0,.18,.06,.35,.17,.49,.11,.15,.29,.28,.54,.38,.14,.05,.55,.17,1.24,.36,1,.27,1.69,.48,2.08,.65s.7,.42,.93,.74,.34,.72,.34,1.2-.14,.91-.41,1.32-.67,.73-1.18,.96-1.1,.34-1.75,.34c-1.08,0-1.9-.22-2.46-.67s-.93-1.11-1.08-1.99Z"/><path d="M262.34,170.67l.2,1.24c-.4,.08-.75,.12-1.06,.12-.51,0-.91-.08-1.19-.24s-.48-.37-.59-.64c-.12-.26-.17-.82-.17-1.66v-4.77h-1.03v-1.09h1.03v-2.05l1.4-.84v2.9h1.41v1.09h-1.41v4.85c0,.4,.02,.66,.07,.77,.05,.11,.13,.21,.24,.27,.11,.07,.27,.1,.48,.1,.16,0,.36-.02,.62-.05Z"/><path d="M263.46,171.93v-11.45h1.41v4.11c.66-.76,1.48-1.14,2.48-1.14,.61,0,1.15,.12,1.6,.36s.78,.58,.97,1,.29,1.05,.29,1.86v5.26h-1.41v-5.26c0-.7-.15-1.21-.46-1.54s-.74-.48-1.29-.48c-.42,0-.81,.11-1.18,.32s-.63,.51-.79,.88-.23,.88-.23,1.53v4.54h-1.41Z"/><path d="M277.51,170.9c-.52,.44-1.02,.75-1.5,.94-.48,.18-1,.27-1.55,.27-.91,0-1.61-.22-2.1-.67-.49-.45-.73-1.01-.73-1.71,0-.41,.09-.78,.28-1.11,.18-.34,.43-.61,.73-.81,.3-.2,.64-.36,1.01-.46,.28-.07,.69-.14,1.25-.21,1.13-.14,1.97-.3,2.51-.48,0-.19,0-.32,0-.37,0-.57-.13-.98-.4-1.21-.36-.32-.89-.48-1.6-.48-.66,0-1.15,.12-1.46,.35-.32,.23-.55,.64-.7,1.23l-1.38-.19c.12-.59,.33-1.06,.62-1.43,.29-.36,.7-.64,1.24-.84,.54-.2,1.17-.29,1.88-.29s1.28,.08,1.73,.25c.44,.17,.77,.38,.98,.63,.21,.25,.35,.57,.44,.96,.05,.24,.07,.67,.07,1.3v1.88c0,1.31,.03,2.13,.09,2.48,.06,.35,.18,.68,.36,1h-1.47c-.15-.29-.24-.63-.28-1.02Zm-.12-3.14c-.51,.21-1.28,.39-2.3,.53-.58,.08-.99,.18-1.23,.28-.24,.1-.42,.26-.55,.46-.13,.2-.2,.42-.2,.67,0,.38,.14,.69,.43,.94,.28,.25,.7,.38,1.25,.38s1.02-.12,1.45-.36,.73-.56,.93-.97c.15-.32,.23-.79,.23-1.41v-.52Z"/><path d="M283.81,170.67l.2,1.24c-.4,.08-.75,.12-1.06,.12-.51,0-.91-.08-1.19-.24s-.48-.37-.59-.64-.17-.82-.17-1.66v-4.77h-1.03v-1.09h1.03v-2.05l1.4-.84v2.9h1.41v1.09h-1.41v4.85c0,.4,.02,.66,.07,.77s.13,.21,.24,.27,.27,.1,.48,.1c.16,0,.36-.02,.62-.05Z"/><path d="M294.54,168.89l1.38,.18c-.15,.95-.54,1.7-1.16,2.24s-1.39,.81-2.29,.81c-1.14,0-2.05-.37-2.74-1.11s-1.04-1.81-1.04-3.19c0-.9,.15-1.68,.45-2.35s.75-1.18,1.36-1.51,1.27-.5,1.98-.5c.9,0,1.64,.23,2.21,.68s.94,1.1,1.1,1.94l-1.37,.21c-.13-.56-.36-.98-.69-1.26s-.73-.42-1.2-.42c-.71,0-1.28,.25-1.73,.76s-.66,1.31-.66,2.41,.21,1.92,.64,2.43,.98,.76,1.67,.76c.55,0,1.01-.17,1.38-.51s.6-.86,.7-1.56Z"/><path d="M302.28,170.9c-.52,.44-1.02,.75-1.5,.94-.48,.18-1,.27-1.55,.27-.91,0-1.61-.22-2.1-.67-.49-.45-.73-1.01-.73-1.71,0-.41,.09-.78,.28-1.11,.18-.34,.43-.61,.73-.81,.3-.2,.64-.36,1.01-.46,.28-.07,.69-.14,1.25-.21,1.13-.14,1.97-.3,2.51-.48,0-.19,0-.32,0-.37,0-.57-.13-.98-.4-1.21-.36-.32-.89-.48-1.6-.48-.66,0-1.15,.12-1.46,.35-.32,.23-.55,.64-.7,1.23l-1.38-.19c.12-.59,.33-1.06,.62-1.43,.29-.36,.7-.64,1.24-.84,.54-.2,1.17-.29,1.88-.29s1.28,.08,1.73,.25c.44,.17,.77,.38,.98,.63,.21,.25,.35,.57,.44,.96,.05,.24,.07,.67,.07,1.3v1.88c0,1.31,.03,2.13,.09,2.48,.06,.35,.18,.68,.36,1h-1.47c-.15-.29-.24-.63-.28-1.02Zm-.12-3.14c-.51,.21-1.28,.39-2.3,.53-.58,.08-.99,.18-1.23,.28-.24,.1-.42,.26-.55,.46-.13,.2-.2,.42-.2,.67,0,.38,.14,.69,.43,.94,.28,.25,.7,.38,1.25,.38s1.02-.12,1.45-.36,.73-.56,.93-.97c.15-.32,.23-.79,.23-1.41v-.52Z"/><path d="M310.95,171.93v-1.22c-.65,.94-1.52,1.41-2.63,1.41-.49,0-.95-.09-1.37-.28-.42-.19-.74-.42-.95-.71-.21-.28-.35-.63-.43-1.04-.06-.28-.09-.71-.09-1.31v-5.14h1.41v4.6c0,.73,.03,1.23,.09,1.48,.09,.37,.28,.66,.56,.87,.29,.21,.64,.32,1.06,.32s.82-.11,1.19-.32c.37-.22,.63-.51,.79-.88,.15-.37,.23-.91,.23-1.62v-4.45h1.41v8.3h-1.26Z"/><path d="M313.59,169.45l1.39-.22c.08,.56,.29,.98,.65,1.28,.36,.3,.86,.45,1.5,.45s1.12-.13,1.44-.39,.47-.57,.47-.93c0-.32-.14-.57-.41-.75-.19-.12-.67-.28-1.44-.48-1.03-.26-1.75-.49-2.14-.68s-.7-.45-.91-.79c-.21-.34-.31-.71-.31-1.11,0-.37,.08-.71,.25-1.03,.17-.32,.4-.58,.69-.79,.22-.16,.52-.3,.89-.41,.38-.11,.78-.17,1.21-.17,.65,0,1.22,.09,1.71,.28s.86,.44,1.09,.76,.4,.75,.48,1.29l-1.38,.19c-.06-.43-.24-.76-.54-1-.3-.24-.72-.36-1.27-.36-.65,0-1.11,.11-1.38,.32-.28,.21-.41,.46-.41,.75,0,.18,.06,.35,.17,.49,.11,.15,.29,.28,.54,.38,.14,.05,.55,.17,1.24,.36,.99,.27,1.69,.48,2.08,.65,.39,.17,.7,.42,.93,.74,.22,.32,.34,.72,.34,1.2s-.14,.91-.41,1.32-.67,.73-1.18,.96-1.1,.34-1.75,.34c-1.08,0-1.9-.22-2.46-.67-.57-.45-.93-1.11-1.08-1.99Z"/><path d="M327.57,169.25l1.45,.18c-.23,.85-.65,1.51-1.27,1.98-.62,.47-1.41,.7-2.38,.7-1.21,0-2.18-.37-2.89-1.12s-1.07-1.8-1.07-3.14,.36-2.48,1.08-3.25,1.65-1.16,2.8-1.16,2.02,.38,2.72,1.13,1.05,1.82,1.05,3.19c0,.08,0,.21,0,.38h-6.19c.05,.91,.31,1.61,.77,2.09,.46,.48,1.04,.73,1.73,.73,.52,0,.96-.14,1.32-.41,.36-.27,.65-.7,.87-1.3Zm-4.62-2.27h4.63c-.06-.7-.24-1.22-.53-1.57-.45-.54-1.03-.81-1.74-.81-.65,0-1.19,.22-1.63,.65-.44,.43-.68,1.01-.73,1.73Z"/><path d="M340.16,171.93v-1.22c-.65,.94-1.52,1.41-2.63,1.41-.49,0-.95-.09-1.37-.28s-.74-.42-.95-.71-.35-.63-.43-1.04c-.06-.28-.09-.71-.09-1.31v-5.14h1.41v4.6c0,.73,.03,1.23,.09,1.48,.09,.37,.28,.66,.56,.87s.64,.32,1.06,.32,.82-.11,1.19-.32,.63-.51,.79-.88,.23-.91,.23-1.62v-4.45h1.41v8.3h-1.26Z"/><path d="M342.81,169.45l1.39-.22c.08,.56,.3,.98,.65,1.28s.86,.45,1.5,.45,1.12-.13,1.44-.39,.47-.57,.47-.93c0-.32-.14-.57-.41-.75-.19-.12-.67-.28-1.44-.48-1.03-.26-1.75-.49-2.14-.68s-.7-.45-.91-.79-.31-.71-.31-1.11c0-.37,.08-.71,.25-1.03s.4-.58,.69-.79c.22-.16,.52-.3,.89-.41s.78-.17,1.21-.17c.65,0,1.22,.09,1.71,.28s.86,.44,1.09,.76,.4,.75,.48,1.29l-1.38,.19c-.06-.43-.24-.76-.54-1s-.72-.36-1.27-.36c-.65,0-1.11,.11-1.38,.32s-.41,.46-.41,.75c0,.18,.06,.35,.17,.49,.11,.15,.29,.28,.54,.38,.14,.05,.55,.17,1.24,.36,1,.27,1.69,.48,2.08,.65s.7,.42,.93,.74,.34,.72,.34,1.2-.14,.91-.41,1.32-.67,.73-1.18,.96-1.1,.34-1.75,.34c-1.08,0-1.9-.22-2.46-.67s-.93-1.11-1.08-1.99Z"/><path d="M85.26,189.87l.2,1.24c-.4,.08-.75,.12-1.06,.12-.51,0-.91-.08-1.19-.24s-.48-.37-.59-.64-.17-.82-.17-1.66v-4.77h-1.03v-1.09h1.03v-2.05l1.4-.84v2.9h1.41v1.09h-1.41v4.85c0,.4,.02,.66,.07,.77s.13,.21,.24,.27,.27,.1,.48,.1c.16,0,.36-.02,.62-.05Z"/><path d="M85.85,186.98c0-1.54,.43-2.67,1.28-3.41,.71-.61,1.58-.92,2.61-.92,1.14,0,2.07,.37,2.8,1.12s1.09,1.78,1.09,3.1c0,1.07-.16,1.91-.48,2.52s-.79,1.09-1.4,1.43-1.28,.51-2,.51c-1.16,0-2.1-.37-2.82-1.12s-1.07-1.82-1.07-3.22Zm1.45,0c0,1.06,.23,1.86,.7,2.39s1.05,.79,1.75,.79,1.28-.27,1.74-.8,.7-1.34,.7-2.43c0-1.03-.23-1.8-.7-2.33s-1.05-.79-1.74-.79-1.29,.26-1.75,.79-.7,1.32-.7,2.38Z"/><path d="M99.19,191.13v-8.3h1.27v1.26c.32-.59,.62-.98,.89-1.16s.57-.28,.9-.28c.47,0,.96,.15,1.45,.45l-.48,1.3c-.34-.2-.69-.3-1.03-.3-.31,0-.58,.09-.83,.28-.25,.18-.42,.44-.52,.77-.16,.5-.23,1.05-.23,1.64v4.34h-1.41Z"/><path d="M109.96,188.45l1.45,.18c-.23,.85-.65,1.51-1.27,1.98-.62,.47-1.41,.7-2.38,.7-1.21,0-2.18-.37-2.89-1.12s-1.07-1.8-1.07-3.14,.36-2.48,1.08-3.25,1.65-1.16,2.8-1.16,2.02,.38,2.72,1.13,1.05,1.82,1.05,3.19c0,.08,0,.21,0,.38h-6.19c.05,.91,.31,1.61,.77,2.09,.46,.48,1.04,.73,1.73,.73,.52,0,.96-.14,1.32-.41,.36-.27,.65-.7,.87-1.3Zm-4.62-2.27h4.63c-.06-.7-.24-1.22-.53-1.57-.45-.54-1.03-.81-1.74-.81-.65,0-1.19,.22-1.63,.65-.44,.43-.68,1.01-.73,1.73Z"/><path d="M118.34,190.1c-.52,.44-1.02,.75-1.5,.94-.48,.18-1,.27-1.55,.27-.91,0-1.61-.22-2.1-.67-.49-.45-.73-1.01-.73-1.71,0-.41,.09-.78,.28-1.11,.18-.34,.43-.61,.73-.81,.3-.2,.64-.36,1.01-.46,.28-.07,.69-.14,1.25-.21,1.13-.14,1.97-.3,2.51-.48,0-.19,0-.32,0-.37,0-.57-.13-.98-.4-1.21-.36-.32-.89-.48-1.6-.48-.66,0-1.15,.12-1.46,.35-.32,.23-.55,.64-.7,1.23l-1.38-.19c.12-.59,.33-1.06,.62-1.43,.29-.36,.7-.64,1.24-.84,.54-.2,1.17-.29,1.88-.29s1.28,.08,1.73,.25c.44,.17,.77,.38,.98,.63,.21,.25,.35,.57,.44,.96,.05,.24,.07,.67,.07,1.3v1.88c0,1.31,.03,2.13,.09,2.48,.06,.35,.18,.68,.36,1h-1.47c-.15-.29-.24-.63-.28-1.02Zm-.12-3.14c-.51,.21-1.28,.39-2.3,.53-.58,.08-.99,.18-1.23,.28-.24,.1-.42,.26-.55,.46-.13,.2-.2,.42-.2,.67,0,.38,.14,.69,.43,.94,.28,.25,.7,.38,1.25,.38s1.02-.12,1.45-.36,.73-.56,.93-.97c.15-.32,.23-.79,.23-1.41v-.52Z"/><path d="M126.98,188.09l1.38,.18c-.15,.95-.54,1.7-1.16,2.24s-1.39,.81-2.29,.81c-1.14,0-2.05-.37-2.74-1.11s-1.04-1.81-1.04-3.19c0-.9,.15-1.68,.45-2.35s.75-1.18,1.36-1.51,1.27-.5,1.98-.5c.9,0,1.64,.23,2.21,.68s.94,1.1,1.1,1.94l-1.37,.21c-.13-.56-.36-.98-.69-1.26s-.73-.42-1.2-.42c-.71,0-1.28,.25-1.73,.76s-.66,1.31-.66,2.41,.21,1.92,.64,2.43,.98,.76,1.67,.76c.55,0,1.01-.17,1.38-.51s.6-.86,.7-1.56Z"/><path d="M132.38,189.87l.2,1.24c-.4,.08-.75,.12-1.06,.12-.51,0-.91-.08-1.19-.24s-.48-.37-.59-.64-.17-.82-.17-1.66v-4.77h-1.03v-1.09h1.03v-2.05l1.4-.84v2.9h1.41v1.09h-1.41v4.85c0,.4,.02,.66,.07,.77s.13,.21,.24,.27,.27,.1,.48,.1c.16,0,.36-.02,.62-.05Z"/><path d="M137.69,181.29v-1.62h1.41v1.62h-1.41Zm0,9.84v-8.3h1.41v8.3h-1.41Z"/><path d="M140.99,191.13v-8.3h1.27v1.18c.61-.91,1.49-1.37,2.64-1.37,.5,0,.96,.09,1.38,.27,.42,.18,.73,.42,.94,.71,.21,.29,.35,.64,.44,1.04,.05,.26,.08,.72,.08,1.37v5.1h-1.41v-5.05c0-.57-.05-1-.16-1.29s-.3-.51-.58-.68c-.28-.17-.61-.25-.98-.25-.6,0-1.12,.19-1.55,.57-.44,.38-.65,1.1-.65,2.16v4.53h-1.41Z"/><path d="M159.23,188.09l1.38,.18c-.15,.95-.54,1.7-1.16,2.24-.62,.54-1.39,.81-2.29,.81-1.14,0-2.05-.37-2.74-1.11-.69-.74-1.04-1.81-1.04-3.19,0-.9,.15-1.68,.45-2.35s.75-1.18,1.36-1.51c.61-.34,1.27-.5,1.98-.5,.9,0,1.64,.23,2.21,.68,.57,.46,.94,1.1,1.1,1.94l-1.37,.21c-.13-.56-.36-.98-.69-1.26-.33-.28-.73-.42-1.2-.42-.71,0-1.28,.25-1.73,.76-.44,.51-.66,1.31-.66,2.41s.21,1.92,.64,2.43c.43,.5,.98,.76,1.67,.76,.55,0,1.01-.17,1.38-.51,.37-.34,.6-.86,.7-1.56Z"/><path d="M167.24,188.45l1.45,.18c-.23,.85-.65,1.51-1.27,1.98s-1.41,.7-2.38,.7c-1.21,0-2.18-.37-2.89-1.12s-1.07-1.8-1.07-3.14,.36-2.48,1.08-3.25,1.65-1.16,2.8-1.16,2.02,.38,2.72,1.13,1.05,1.82,1.05,3.19c0,.08,0,.21,0,.38h-6.19c.05,.91,.31,1.61,.77,2.09s1.04,.73,1.73,.73c.52,0,.96-.14,1.32-.41s.65-.7,.87-1.3Zm-4.62-2.27h4.63c-.06-.7-.24-1.22-.53-1.57-.45-.54-1.03-.81-1.74-.81-.65,0-1.19,.22-1.63,.65s-.68,1.01-.73,1.73Z"/><path d="M170.19,191.13v-8.3h1.27v1.26c.32-.59,.62-.98,.89-1.16s.57-.28,.9-.28c.47,0,.96,.15,1.45,.45l-.48,1.3c-.34-.2-.69-.3-1.03-.3-.31,0-.58,.09-.83,.28s-.42,.44-.52,.77c-.16,.5-.23,1.05-.23,1.64v4.34h-1.41Z"/><path d="M178.35,189.87l.2,1.24c-.4,.08-.75,.12-1.06,.12-.51,0-.91-.08-1.19-.24s-.48-.37-.59-.64-.17-.82-.17-1.66v-4.77h-1.03v-1.09h1.03v-2.05l1.4-.84v2.9h1.41v1.09h-1.41v4.85c0,.4,.02,.66,.07,.77s.13,.21,.24,.27,.27,.1,.48,.1c.16,0,.36-.02,.62-.05Z"/><path d="M184.88,190.1c-.52,.44-1.02,.75-1.5,.94-.48,.18-1,.27-1.55,.27-.91,0-1.61-.22-2.1-.67-.49-.45-.73-1.01-.73-1.71,0-.41,.09-.78,.28-1.11,.18-.34,.43-.61,.73-.81,.3-.2,.64-.36,1.01-.46,.28-.07,.69-.14,1.25-.21,1.13-.14,1.97-.3,2.51-.48,0-.19,0-.32,0-.37,0-.57-.13-.98-.4-1.21-.36-.32-.89-.48-1.6-.48-.66,0-1.15,.12-1.46,.35-.32,.23-.55,.64-.7,1.23l-1.38-.19c.12-.59,.33-1.06,.62-1.43,.29-.36,.7-.64,1.24-.84,.54-.2,1.17-.29,1.88-.29s1.28,.08,1.73,.25c.44,.17,.77,.38,.98,.63,.21,.25,.35,.57,.44,.96,.05,.24,.07,.67,.07,1.3v1.88c0,1.31,.03,2.13,.09,2.48,.06,.35,.18,.68,.36,1h-1.47c-.15-.29-.24-.63-.28-1.02Zm-.12-3.14c-.51,.21-1.28,.39-2.3,.53-.58,.08-.99,.18-1.23,.28-.24,.1-.42,.26-.55,.46-.13,.2-.2,.42-.2,.67,0,.38,.14,.69,.43,.94,.28,.25,.7,.38,1.25,.38s1.02-.12,1.45-.36,.73-.56,.93-.97c.15-.32,.23-.79,.23-1.41v-.52Z"/><path d="M188.12,181.29v-1.62h1.41v1.62h-1.41Zm0,9.84v-8.3h1.41v8.3h-1.41Z"/><path d="M191.41,191.13v-8.3h1.27v1.18c.61-.91,1.49-1.37,2.64-1.37,.5,0,.96,.09,1.38,.27,.42,.18,.73,.42,.94,.71,.21,.29,.35,.64,.44,1.04,.05,.26,.08,.72,.08,1.37v5.1h-1.41v-5.05c0-.57-.05-1-.16-1.29s-.3-.51-.58-.68c-.28-.17-.61-.25-.98-.25-.6,0-1.12,.19-1.55,.57-.44,.38-.65,1.1-.65,2.16v4.53h-1.41Z"/><path d="M205.77,191.13l-2.54-8.3h1.45l1.32,4.79,.49,1.78c.02-.09,.16-.66,.43-1.71l1.32-4.86h1.45l1.24,4.81,.41,1.59,.48-1.6,1.42-4.8h1.37l-2.59,8.3h-1.46l-1.32-4.97-.32-1.41-1.68,6.38h-1.47Z"/><path d="M220.95,190.1c-.52,.44-1.02,.75-1.5,.94s-1,.27-1.55,.27c-.91,0-1.61-.22-2.1-.67s-.73-1.01-.73-1.71c0-.41,.09-.78,.28-1.11s.43-.61,.73-.81,.64-.36,1.01-.46c.28-.07,.69-.14,1.25-.21,1.14-.14,1.97-.3,2.51-.48,0-.19,0-.32,0-.37,0-.57-.13-.98-.4-1.21-.36-.32-.89-.48-1.6-.48-.66,0-1.15,.12-1.46,.35s-.55,.64-.7,1.23l-1.38-.19c.12-.59,.33-1.06,.62-1.43s.7-.64,1.24-.84,1.17-.29,1.88-.29,1.28,.08,1.73,.25,.77,.38,.98,.63,.35,.57,.44,.96c.05,.24,.07,.67,.07,1.3v1.88c0,1.31,.03,2.13,.09,2.48s.18,.68,.36,1h-1.47c-.15-.29-.24-.63-.28-1.02Zm-.12-3.14c-.51,.21-1.28,.39-2.3,.53-.58,.08-.99,.18-1.23,.28s-.42,.26-.55,.46-.2,.42-.2,.67c0,.38,.14,.69,.43,.94s.7,.38,1.25,.38,1.02-.12,1.45-.36,.73-.56,.93-.97c.15-.32,.23-.79,.23-1.41v-.52Z"/><path d="M224.12,194.32l-.16-1.32c.31,.08,.58,.12,.8,.12,.31,0,.56-.05,.75-.16s.34-.25,.46-.44c.09-.14,.23-.49,.43-1.05,.03-.08,.07-.19,.12-.34l-3.15-8.31h1.52l1.73,4.8c.22,.61,.42,1.25,.6,1.92,.16-.65,.35-1.28,.58-1.89l1.77-4.84h1.41l-3.16,8.44c-.34,.91-.6,1.54-.79,1.88-.25,.46-.54,.8-.86,1.02s-.71,.32-1.16,.32c-.27,0-.57-.06-.91-.17Z"/><path d="M231.36,188.65l1.39-.22c.08,.56,.29,.98,.65,1.28,.36,.3,.86,.45,1.5,.45s1.12-.13,1.44-.39,.47-.57,.47-.93c0-.32-.14-.57-.41-.75-.19-.12-.67-.28-1.44-.48-1.03-.26-1.75-.49-2.14-.68s-.7-.45-.91-.79c-.21-.34-.31-.71-.31-1.11,0-.37,.08-.71,.25-1.03,.17-.32,.4-.58,.69-.79,.22-.16,.52-.3,.89-.41,.38-.11,.78-.17,1.21-.17,.65,0,1.22,.09,1.71,.28s.86,.44,1.09,.76,.4,.75,.48,1.29l-1.38,.19c-.06-.43-.24-.76-.54-1-.3-.24-.72-.36-1.27-.36-.65,0-1.11,.11-1.38,.32-.28,.21-.41,.46-.41,.75,0,.18,.06,.35,.17,.49,.11,.15,.29,.28,.54,.38,.14,.05,.55,.17,1.24,.36,.99,.27,1.69,.48,2.08,.65,.39,.17,.7,.42,.93,.74,.22,.32,.34,.72,.34,1.2s-.14,.91-.41,1.32-.67,.73-1.18,.96-1.1,.34-1.75,.34c-1.08,0-1.9-.22-2.46-.67-.57-.45-.93-1.11-1.08-1.99Z"/><path d="M240.07,191.13v-1.6h1.6v1.6h-1.6Z"/></g><g><path d="M440.22,152.73v-10.1h-3.77v-1.35h9.08v1.35h-3.79v10.1h-1.52Z"/><path d="M446.64,152.73v-11.45h1.41v4.11c.66-.76,1.48-1.14,2.48-1.14,.61,0,1.15,.12,1.6,.36s.78,.58,.97,1,.29,1.05,.29,1.86v5.26h-1.41v-5.26c0-.7-.15-1.21-.46-1.54s-.74-.48-1.29-.48c-.42,0-.81,.11-1.18,.32s-.63,.51-.79,.88-.23,.88-.23,1.53v4.54h-1.41Z"/><path d="M460.97,150.05l1.45,.18c-.23,.85-.65,1.51-1.27,1.98-.62,.47-1.41,.7-2.38,.7-1.21,0-2.18-.37-2.89-1.12s-1.07-1.8-1.07-3.14,.36-2.48,1.08-3.25,1.65-1.16,2.8-1.16,2.02,.38,2.72,1.13,1.05,1.82,1.05,3.19c0,.08,0,.21,0,.38h-6.19c.05,.91,.31,1.61,.77,2.09,.46,.48,1.04,.73,1.73,.73,.52,0,.96-.14,1.32-.41,.36-.27,.65-.7,.87-1.3Zm-4.62-2.27h4.63c-.06-.7-.24-1.22-.53-1.57-.45-.54-1.03-.81-1.74-.81-.65,0-1.19,.22-1.63,.65-.44,.43-.68,1.01-.73,1.73Z"/><path d="M473.53,151.7c-.52,.44-1.02,.75-1.5,.94-.48,.18-1,.27-1.55,.27-.91,0-1.61-.22-2.1-.67-.49-.45-.73-1.01-.73-1.71,0-.41,.09-.78,.28-1.11,.18-.34,.43-.61,.73-.81,.3-.2,.64-.36,1.01-.46,.28-.07,.69-.14,1.25-.21,1.13-.14,1.97-.3,2.51-.48,0-.19,0-.32,0-.37,0-.57-.13-.98-.4-1.21-.36-.32-.89-.48-1.6-.48-.66,0-1.15,.12-1.46,.35-.32,.23-.55,.64-.7,1.23l-1.38-.19c.12-.59,.33-1.06,.62-1.43,.29-.36,.7-.64,1.24-.84,.54-.2,1.17-.29,1.88-.29s1.28,.08,1.73,.25c.44,.17,.77,.38,.98,.63,.21,.25,.35,.57,.44,.96,.05,.24,.07,.67,.07,1.3v1.88c0,1.31,.03,2.13,.09,2.48,.06,.35,.18,.68,.36,1h-1.47c-.15-.29-.24-.63-.28-1.02Zm-.12-3.14c-.51,.21-1.28,.39-2.3,.53-.58,.08-.99,.18-1.23,.28-.24,.1-.42,.26-.55,.46-.13,.2-.2,.42-.2,.67,0,.38,.14,.69,.43,.94,.28,.25,.7,.38,1.25,.38s1.02-.12,1.45-.36,.73-.56,.93-.97c.15-.32,.23-.79,.23-1.41v-.52Z"/><path d="M478.06,152.73h-1.3v-11.45h1.41v4.09c.59-.75,1.35-1.12,2.27-1.12,.51,0,.99,.1,1.45,.31,.46,.21,.83,.5,1.12,.87,.29,.37,.52,.82,.69,1.35,.17,.53,.25,1.09,.25,1.69,0,1.42-.35,2.52-1.05,3.3s-1.55,1.16-2.53,1.16-1.75-.41-2.3-1.23v1.04Zm-.02-4.21c0,1,.13,1.71,.41,2.16,.44,.72,1.04,1.09,1.8,1.09,.61,0,1.15-.27,1.59-.8,.45-.53,.67-1.33,.67-2.39s-.21-1.88-.64-2.4-.95-.77-1.56-.77-1.15,.27-1.59,.8c-.45,.53-.67,1.31-.67,2.32Z"/><path d="M485.41,142.89v-1.62h1.41v1.62h-1.41Zm0,9.84v-8.3h1.41v8.3h-1.41Z"/><path d="M488.67,152.73v-11.45h1.41v11.45h-1.41Z"/><path d="M492.01,142.89v-1.62h1.41v1.62h-1.41Zm0,9.84v-8.3h1.41v8.3h-1.41Z"/><path d="M498.37,151.47l.2,1.24c-.4,.08-.75,.12-1.06,.12-.51,0-.91-.08-1.19-.24s-.48-.37-.59-.64c-.12-.26-.17-.82-.17-1.66v-4.77h-1.03v-1.09h1.03v-2.05l1.4-.84v2.9h1.41v1.09h-1.41v4.85c0,.4,.02,.66,.07,.77,.05,.11,.13,.21,.24,.27,.11,.07,.27,.1,.48,.1,.16,0,.36-.02,.62-.05Z"/><path d="M499.43,155.92l-.16-1.32c.31,.08,.58,.12,.8,.12,.31,0,.56-.05,.75-.16s.34-.25,.46-.44c.09-.14,.23-.49,.43-1.05,.03-.08,.07-.19,.12-.34l-3.15-8.31h1.52l1.73,4.8c.22,.61,.42,1.25,.6,1.92,.16-.65,.35-1.28,.58-1.89l1.77-4.84h1.41l-3.16,8.44c-.34,.91-.6,1.54-.79,1.88-.25,.46-.54,.8-.86,1.02-.32,.22-.71,.32-1.16,.32-.27,0-.57-.06-.91-.17Z"/><path d="M514.49,151.47l.2,1.24c-.4,.08-.75,.12-1.06,.12-.51,0-.91-.08-1.19-.24s-.48-.37-.59-.64c-.12-.26-.17-.82-.17-1.66v-4.77h-1.03v-1.09h1.03v-2.05l1.4-.84v2.9h1.41v1.09h-1.41v4.85c0,.4,.02,.66,.07,.77,.05,.11,.13,.21,.24,.27,.11,.07,.27,.1,.48,.1,.16,0,.36-.02,.62-.05Z"/><path d="M515.09,148.58c0-1.54,.43-2.67,1.28-3.41,.71-.61,1.58-.92,2.61-.92,1.14,0,2.07,.37,2.8,1.12s1.09,1.78,1.09,3.1c0,1.07-.16,1.91-.48,2.52s-.79,1.09-1.4,1.43-1.28,.51-2,.51c-1.16,0-2.1-.37-2.82-1.12s-1.07-1.82-1.07-3.22Zm1.45,0c0,1.06,.23,1.86,.7,2.39s1.05,.79,1.75,.79,1.28-.27,1.74-.8,.7-1.34,.7-2.43c0-1.03-.23-1.8-.7-2.33s-1.05-.79-1.74-.79-1.29,.26-1.75,.79-.7,1.32-.7,2.38Z"/><path d="M533.86,151.7c-.52,.44-1.02,.75-1.5,.94s-1,.27-1.55,.27c-.91,0-1.61-.22-2.1-.67s-.73-1.01-.73-1.71c0-.41,.09-.78,.28-1.11s.43-.61,.73-.81,.64-.36,1.01-.46c.28-.07,.69-.14,1.25-.21,1.14-.14,1.97-.3,2.51-.48,0-.19,0-.32,0-.37,0-.57-.13-.98-.4-1.21-.36-.32-.89-.48-1.6-.48-.66,0-1.15,.12-1.46,.35s-.55,.64-.7,1.23l-1.38-.19c.12-.59,.33-1.06,.62-1.43s.7-.64,1.24-.84,1.17-.29,1.88-.29,1.28,.08,1.73,.25,.77,.38,.98,.63,.35,.57,.44,.96c.05,.24,.07,.67,.07,1.3v1.88c0,1.31,.03,2.13,.09,2.48s.18,.68,.36,1h-1.47c-.15-.29-.24-.63-.28-1.02Zm-.12-3.14c-.51,.21-1.28,.39-2.3,.53-.58,.08-.99,.18-1.23,.28s-.42,.26-.55,.46-.2,.42-.2,.67c0,.38,.14,.69,.43,.94s.7,.38,1.25,.38,1.02-.12,1.45-.36,.73-.56,.93-.97c.15-.32,.23-.79,.23-1.41v-.52Z"/><path d="M542.5,149.69l1.38,.18c-.15,.95-.54,1.7-1.16,2.24-.62,.54-1.39,.81-2.29,.81-1.14,0-2.05-.37-2.74-1.11-.69-.74-1.04-1.81-1.04-3.19,0-.9,.15-1.68,.45-2.35s.75-1.18,1.36-1.51c.61-.34,1.27-.5,1.98-.5,.9,0,1.64,.23,2.21,.68,.57,.46,.94,1.1,1.1,1.94l-1.37,.21c-.13-.56-.36-.98-.69-1.26-.33-.28-.73-.42-1.2-.42-.71,0-1.28,.25-1.73,.76-.44,.51-.66,1.31-.66,2.41s.21,1.92,.64,2.43c.43,.5,.98,.76,1.67,.76,.55,0,1.01-.17,1.38-.51,.37-.34,.6-.86,.7-1.56Z"/><path d="M550.24,149.69l1.38,.18c-.15,.95-.54,1.7-1.16,2.24-.62,.54-1.39,.81-2.29,.81-1.14,0-2.05-.37-2.74-1.11-.69-.74-1.04-1.81-1.04-3.19,0-.9,.15-1.68,.45-2.35s.75-1.18,1.36-1.51c.61-.34,1.27-.5,1.98-.5,.9,0,1.64,.23,2.21,.68,.57,.46,.94,1.1,1.1,1.94l-1.37,.21c-.13-.56-.36-.98-.69-1.26-.33-.28-.73-.42-1.2-.42-.71,0-1.28,.25-1.73,.76-.44,.51-.66,1.31-.66,2.41s.21,1.92,.64,2.43c.43,.5,.98,.76,1.67,.76,.55,0,1.01-.17,1.38-.51,.37-.34,.6-.86,.7-1.56Z"/><path d="M558.25,150.05l1.45,.18c-.23,.85-.65,1.51-1.27,1.98-.62,.47-1.41,.7-2.38,.7-1.21,0-2.18-.37-2.89-1.12s-1.07-1.8-1.07-3.14,.36-2.48,1.08-3.25,1.65-1.16,2.8-1.16,2.02,.38,2.72,1.13,1.05,1.82,1.05,3.19c0,.08,0,.21,0,.38h-6.19c.05,.91,.31,1.61,.77,2.09,.46,.48,1.04,.73,1.73,.73,.52,0,.96-.14,1.32-.41,.36-.27,.65-.7,.87-1.3Zm-4.62-2.27h4.63c-.06-.7-.24-1.22-.53-1.57-.45-.54-1.03-.81-1.74-.81-.65,0-1.19,.22-1.63,.65-.44,.43-.68,1.01-.73,1.73Z"/><path d="M561.22,155.91v-11.48h1.28v1.08c.3-.42,.64-.74,1.02-.95,.38-.21,.84-.32,1.38-.32,.71,0,1.33,.18,1.88,.55,.54,.36,.95,.88,1.23,1.54,.28,.66,.41,1.39,.41,2.18,0,.85-.15,1.61-.46,2.29s-.75,1.2-1.33,1.56c-.58,.36-1.19,.54-1.83,.54-.47,0-.89-.1-1.26-.3-.37-.2-.68-.45-.92-.75v4.04h-1.41Zm1.27-7.28c0,1.07,.22,1.86,.65,2.37,.43,.51,.96,.77,1.57,.77s1.16-.26,1.61-.79,.67-1.35,.67-2.46-.22-1.85-.65-2.38c-.44-.53-.96-.79-1.56-.79s-1.13,.28-1.59,.84-.69,1.37-.69,2.44Z"/><path d="M572.93,151.47l.2,1.24c-.4,.08-.75,.12-1.06,.12-.51,0-.91-.08-1.19-.24s-.48-.37-.59-.64-.17-.82-.17-1.66v-4.77h-1.03v-1.09h1.03v-2.05l1.4-.84v2.9h1.41v1.09h-1.41v4.85c0,.4,.02,.66,.07,.77s.13,.21,.24,.27,.27,.1,.48,.1c.16,0,.36-.02,.62-.05Z"/><path d="M574.41,152.73v-1.6h1.6v1.6c0,.59-.1,1.06-.31,1.43s-.54,.64-.99,.84l-.39-.6c.3-.13,.52-.32,.66-.57s.22-.62,.23-1.09h-.8Z"/><path d="M582.43,152.73v-8.3h1.27v1.18c.61-.91,1.49-1.37,2.64-1.37,.5,0,.96,.09,1.38,.27,.42,.18,.73,.42,.94,.71,.21,.29,.35,.64,.44,1.04,.05,.26,.08,.72,.08,1.37v5.1h-1.41v-5.05c0-.57-.05-1-.16-1.29s-.3-.51-.58-.68c-.28-.17-.61-.25-.98-.25-.6,0-1.12,.19-1.55,.57-.44,.38-.65,1.1-.65,2.16v4.53h-1.41Z"/><path d="M590.54,148.58c0-1.54,.43-2.67,1.28-3.41,.71-.61,1.58-.92,2.61-.92,1.14,0,2.07,.37,2.8,1.12,.72,.75,1.09,1.78,1.09,3.1,0,1.07-.16,1.91-.48,2.52s-.79,1.09-1.4,1.43c-.61,.34-1.28,.51-2,.51-1.16,0-2.1-.37-2.82-1.12-.72-.75-1.07-1.82-1.07-3.22Zm1.45,0c0,1.06,.23,1.86,.7,2.39,.46,.53,1.05,.79,1.75,.79s1.28-.27,1.74-.8c.46-.53,.7-1.34,.7-2.43,0-1.03-.23-1.8-.7-2.33-.47-.53-1.05-.79-1.74-.79s-1.29,.26-1.75,.79c-.46,.53-.7,1.32-.7,2.38Z"/><path d="M602.78,151.47l.2,1.24c-.4,.08-.75,.12-1.06,.12-.51,0-.91-.08-1.19-.24s-.48-.37-.59-.64c-.12-.26-.17-.82-.17-1.66v-4.77h-1.03v-1.09h1.03v-2.05l1.4-.84v2.9h1.41v1.09h-1.41v4.85c0,.4,.02,.66,.07,.77,.05,.11,.13,.21,.24,.27,.11,.07,.27,.1,.48,.1,.16,0,.36-.02,.62-.05Z"/><path d="M603.91,142.89v-1.62h1.41v1.62h-1.41Zm0,9.84v-8.3h1.41v8.3h-1.41Z"/><path d="M612.61,149.69l1.38,.18c-.15,.95-.54,1.7-1.16,2.24s-1.39,.81-2.29,.81c-1.14,0-2.05-.37-2.74-1.11s-1.04-1.81-1.04-3.19c0-.9,.15-1.68,.45-2.35s.75-1.18,1.36-1.51,1.27-.5,1.98-.5c.9,0,1.64,.23,2.21,.68s.94,1.1,1.1,1.94l-1.37,.21c-.13-.56-.36-.98-.69-1.26s-.73-.42-1.2-.42c-.71,0-1.28,.25-1.73,.76s-.66,1.31-.66,2.41,.21,1.92,.64,2.43,.98,.76,1.67,.76c.55,0,1.01-.17,1.38-.51s.6-.86,.7-1.56Z"/><path d="M620.62,150.05l1.45,.18c-.23,.85-.65,1.51-1.27,1.98s-1.41,.7-2.38,.7c-1.21,0-2.18-.37-2.89-1.12s-1.07-1.8-1.07-3.14,.36-2.48,1.08-3.25,1.65-1.16,2.8-1.16,2.02,.38,2.72,1.13,1.05,1.82,1.05,3.19c0,.08,0,.21,0,.38h-6.19c.05,.91,.31,1.61,.77,2.09s1.04,.73,1.73,.73c.52,0,.96-.14,1.32-.41s.65-.7,.87-1.3Zm-4.62-2.27h4.63c-.06-.7-.24-1.22-.53-1.57-.45-.54-1.03-.81-1.74-.81-.65,0-1.19,.22-1.63,.65s-.68,1.01-.73,1.73Z"/><path d="M633.19,151.7c-.52,.44-1.02,.75-1.5,.94-.48,.18-1,.27-1.55,.27-.91,0-1.61-.22-2.1-.67-.49-.45-.73-1.01-.73-1.71,0-.41,.09-.78,.28-1.11,.18-.34,.43-.61,.73-.81,.3-.2,.64-.36,1.01-.46,.28-.07,.69-.14,1.25-.21,1.13-.14,1.97-.3,2.51-.48,0-.19,0-.32,0-.37,0-.57-.13-.98-.4-1.21-.36-.32-.89-.48-1.6-.48-.66,0-1.15,.12-1.46,.35-.32,.23-.55,.64-.7,1.23l-1.38-.19c.12-.59,.33-1.06,.62-1.43,.29-.36,.7-.64,1.24-.84,.54-.2,1.17-.29,1.88-.29s1.28,.08,1.73,.25c.44,.17,.77,.38,.98,.63,.21,.25,.35,.57,.44,.96,.05,.24,.07,.67,.07,1.3v1.88c0,1.31,.03,2.13,.09,2.48,.06,.35,.18,.68,.36,1h-1.47c-.15-.29-.24-.63-.28-1.02Zm-.12-3.14c-.51,.21-1.28,.39-2.3,.53-.58,.08-.99,.18-1.23,.28-.24,.1-.42,.26-.55,.46-.13,.2-.2,.42-.2,.67,0,.38,.14,.69,.43,.94,.28,.25,.7,.38,1.25,.38s1.02-.12,1.45-.36,.73-.56,.93-.97c.15-.32,.23-.79,.23-1.41v-.52Z"/><path d="M636.42,152.73v-8.3h1.27v1.18c.61-.91,1.49-1.37,2.64-1.37,.5,0,.96,.09,1.38,.27,.42,.18,.73,.42,.94,.71,.21,.29,.35,.64,.44,1.04,.05,.26,.08,.72,.08,1.37v5.1h-1.41v-5.05c0-.57-.05-1-.16-1.29s-.3-.51-.58-.68c-.28-.17-.61-.25-.98-.25-.6,0-1.12,.19-1.55,.57-.44,.38-.65,1.1-.65,2.16v4.53h-1.41Z"/><path d="M650.44,152.73v-1.05c-.53,.82-1.3,1.23-2.32,1.23-.66,0-1.27-.18-1.82-.55s-.98-.87-1.29-1.53-.46-1.41-.46-2.25,.14-1.58,.41-2.25c.28-.67,.69-1.19,1.24-1.55,.55-.36,1.17-.54,1.85-.54,.5,0,.95,.11,1.34,.32s.71,.49,.95,.82v-4.11h1.4v11.45h-1.3Zm-4.45-4.14c0,1.06,.22,1.86,.67,2.38,.45,.53,.98,.79,1.59,.79s1.14-.25,1.57-.75,.64-1.27,.64-2.3c0-1.14-.22-1.97-.66-2.5s-.98-.8-1.62-.8-1.15,.25-1.57,.77c-.42,.51-.63,1.32-.63,2.41Z"/><path d="M659.19,152.73h-1.3v-11.45h1.41v4.09c.59-.75,1.35-1.12,2.27-1.12,.51,0,.99,.1,1.45,.31s.83,.5,1.12,.87,.52,.82,.69,1.35,.25,1.09,.25,1.69c0,1.42-.35,2.52-1.05,3.3s-1.55,1.16-2.53,1.16-1.75-.41-2.3-1.23v1.04Zm-.02-4.21c0,1,.14,1.71,.41,2.16,.44,.72,1.04,1.09,1.8,1.09,.61,0,1.15-.27,1.59-.8s.67-1.33,.67-2.39-.21-1.88-.64-2.4-.95-.77-1.56-.77-1.15,.27-1.59,.8-.67,1.31-.67,2.32Z"/><path d="M672.21,150.05l1.45,.18c-.23,.85-.65,1.51-1.27,1.98s-1.41,.7-2.38,.7c-1.21,0-2.18-.37-2.89-1.12s-1.07-1.8-1.07-3.14,.36-2.48,1.08-3.25,1.65-1.16,2.8-1.16,2.02,.38,2.72,1.13,1.05,1.82,1.05,3.19c0,.08,0,.21,0,.38h-6.19c.05,.91,.31,1.61,.77,2.09s1.04,.73,1.73,.73c.52,0,.96-.14,1.32-.41s.65-.7,.87-1.3Zm-4.62-2.27h4.63c-.06-.7-.24-1.22-.53-1.57-.45-.54-1.03-.81-1.74-.81-.65,0-1.19,.22-1.63,.65s-.68,1.01-.73,1.73Z"/><path d="M679.7,152.73v-7.2h-1.24v-1.09h1.24v-.88c0-.56,.05-.97,.15-1.24,.13-.36,.37-.66,.71-.89,.34-.23,.82-.34,1.43-.34,.4,0,.83,.05,1.31,.14l-.21,1.23c-.29-.05-.57-.08-.83-.08-.43,0-.73,.09-.91,.27-.18,.18-.27,.52-.27,1.02v.77h1.62v1.09h-1.62v7.2h-1.4Z"/><path d="M683.52,152.73v-11.45h1.41v11.45h-1.41Z"/><path d="M692.53,150.05l1.45,.18c-.23,.85-.65,1.51-1.27,1.98-.62,.47-1.41,.7-2.38,.7-1.21,0-2.18-.37-2.89-1.12s-1.07-1.8-1.07-3.14,.36-2.48,1.08-3.25,1.65-1.16,2.8-1.16,2.02,.38,2.72,1.13,1.05,1.82,1.05,3.19c0,.08,0,.21,0,.38h-6.19c.05,.91,.31,1.61,.77,2.09,.46,.48,1.04,.73,1.73,.73,.52,0,.96-.14,1.32-.41,.36-.27,.65-.7,.87-1.3Zm-4.62-2.27h4.63c-.06-.7-.24-1.22-.53-1.57-.45-.54-1.03-.81-1.74-.81-.65,0-1.19,.22-1.63,.65-.44,.43-.68,1.01-.73,1.73Z"/><path d="M694.56,152.73l3.03-4.31-2.8-3.98h1.76l1.27,1.95c.24,.37,.43,.68,.58,.93,.23-.34,.44-.65,.63-.91l1.4-1.96h1.68l-2.87,3.91,3.09,4.39h-1.73l-1.7-2.58-.45-.7-2.18,3.27h-1.7Z"/><path d="M703.25,142.89v-1.62h1.41v1.62h-1.41Zm0,9.84v-8.3h1.41v8.3h-1.41Z"/><path d="M707.83,152.73h-1.3v-11.45h1.41v4.09c.59-.75,1.35-1.12,2.27-1.12,.51,0,.99,.1,1.45,.31s.83,.5,1.12,.87,.52,.82,.69,1.35,.25,1.09,.25,1.69c0,1.42-.35,2.52-1.05,3.3s-1.55,1.16-2.53,1.16-1.75-.41-2.3-1.23v1.04Zm-.02-4.21c0,1,.14,1.71,.41,2.16,.44,.72,1.04,1.09,1.8,1.09,.61,0,1.15-.27,1.59-.8s.67-1.33,.67-2.39-.21-1.88-.64-2.4-.95-.77-1.56-.77-1.15,.27-1.59,.8-.67,1.31-.67,2.32Z"/><path d="M715.15,152.73v-11.45h1.41v11.45h-1.41Z"/><path d="M724.16,150.05l1.45,.18c-.23,.85-.65,1.51-1.27,1.98-.62,.47-1.41,.7-2.38,.7-1.21,0-2.18-.37-2.89-1.12s-1.07-1.8-1.07-3.14,.36-2.48,1.08-3.25,1.65-1.16,2.8-1.16,2.02,.38,2.72,1.13,1.05,1.82,1.05,3.19c0,.08,0,.21,0,.38h-6.19c.05,.91,.31,1.61,.77,2.09,.46,.48,1.04,.73,1.73,.73,.52,0,.96-.14,1.32-.41,.36-.27,.65-.7,.87-1.3Zm-4.62-2.27h4.63c-.06-.7-.24-1.22-.53-1.57-.45-.54-1.03-.81-1.74-.81-.65,0-1.19,.22-1.63,.65-.44,.43-.68,1.01-.73,1.73Z"/><path d="M438.66,171.93l-2.54-8.3h1.45l1.32,4.79,.49,1.78c.02-.09,.16-.66,.43-1.71l1.32-4.86h1.45l1.24,4.81,.41,1.59,.48-1.6,1.42-4.8h1.37l-2.59,8.3h-1.46l-1.32-4.97-.32-1.41-1.68,6.38h-1.47Z"/><path d="M448.43,162.09v-1.62h1.41v1.62h-1.41Zm0,9.84v-8.3h1.41v8.3h-1.41Z"/><path d="M454.79,170.67l.2,1.24c-.4,.08-.75,.12-1.06,.12-.51,0-.91-.08-1.19-.24s-.48-.37-.59-.64c-.12-.26-.17-.82-.17-1.66v-4.77h-1.03v-1.09h1.03v-2.05l1.4-.84v2.9h1.41v1.09h-1.41v4.85c0,.4,.02,.66,.07,.77,.05,.11,.13,.21,.24,.27,.11,.07,.27,.1,.48,.1,.16,0,.36-.02,.62-.05Z"/><path d="M455.91,171.93v-11.45h1.41v4.11c.66-.76,1.48-1.14,2.48-1.14,.61,0,1.15,.12,1.6,.36s.78,.58,.97,1,.29,1.05,.29,1.86v5.26h-1.41v-5.26c0-.7-.15-1.21-.46-1.54s-.74-.48-1.29-.48c-.42,0-.81,.11-1.18,.32s-.63,.51-.79,.88-.23,.88-.23,1.53v4.54h-1.41Z"/><path d="M471.82,170.67l.2,1.24c-.4,.08-.75,.12-1.06,.12-.51,0-.91-.08-1.19-.24s-.48-.37-.59-.64c-.12-.26-.17-.82-.17-1.66v-4.77h-1.03v-1.09h1.03v-2.05l1.4-.84v2.9h1.41v1.09h-1.41v4.85c0,.4,.02,.66,.07,.77,.05,.11,.13,.21,.24,.27,.11,.07,.27,.1,.48,.1,.16,0,.36-.02,.62-.05Z"/><path d="M472.93,171.93v-11.45h1.41v4.11c.66-.76,1.48-1.14,2.48-1.14,.61,0,1.15,.12,1.6,.36s.78,.58,.97,1,.29,1.05,.29,1.86v5.26h-1.41v-5.26c0-.7-.15-1.21-.46-1.54s-.74-.48-1.29-.48c-.42,0-.81,.11-1.18,.32s-.63,.51-.79,.88-.23,.88-.23,1.53v4.54h-1.41Z"/><path d="M481.05,167.78c0-1.54,.43-2.67,1.28-3.41,.71-.61,1.58-.92,2.61-.92,1.14,0,2.07,.37,2.8,1.12s1.09,1.78,1.09,3.1c0,1.07-.16,1.91-.48,2.52s-.79,1.09-1.4,1.43-1.28,.51-2,.51c-1.16,0-2.1-.37-2.82-1.12s-1.07-1.82-1.07-3.22Zm1.45,0c0,1.06,.23,1.86,.7,2.39s1.05,.79,1.75,.79,1.28-.27,1.74-.8,.7-1.34,.7-2.43c0-1.03-.23-1.8-.7-2.33s-1.05-.79-1.74-.79-1.29,.26-1.75,.79-.7,1.32-.7,2.38Z"/><path d="M495.66,171.93v-1.22c-.65,.94-1.52,1.41-2.63,1.41-.49,0-.95-.09-1.37-.28s-.74-.42-.95-.71-.35-.63-.43-1.04c-.06-.28-.09-.71-.09-1.31v-5.14h1.41v4.6c0,.73,.03,1.23,.09,1.48,.09,.37,.28,.66,.56,.87s.64,.32,1.06,.32,.82-.11,1.19-.32,.63-.51,.79-.88,.23-.91,.23-1.62v-4.45h1.41v8.3h-1.26Z"/><path d="M498.6,172.61l1.37,.2c.06,.42,.22,.73,.48,.92,.35,.26,.83,.39,1.43,.39,.65,0,1.15-.13,1.51-.39,.35-.26,.59-.62,.72-1.09,.07-.29,.11-.89,.1-1.8-.62,.72-1.38,1.09-2.3,1.09-1.14,0-2.02-.41-2.65-1.23s-.94-1.81-.94-2.96c0-.79,.14-1.52,.43-2.19,.29-.67,.7-1.19,1.25-1.55,.54-.36,1.18-.55,1.92-.55,.98,0,1.79,.4,2.42,1.19v-1h1.3v7.17c0,1.29-.13,2.21-.39,2.75-.26,.54-.68,.96-1.25,1.28s-1.27,.47-2.11,.47c-.99,0-1.79-.22-2.4-.67s-.9-1.12-.88-2.01Zm1.16-4.98c0,1.09,.22,1.88,.65,2.38,.43,.5,.97,.75,1.62,.75s1.19-.25,1.62-.75,.66-1.28,.66-2.34-.23-1.78-.68-2.3c-.45-.52-.99-.77-1.63-.77s-1.16,.25-1.59,.76-.66,1.26-.66,2.26Z"/><path d="M507.5,171.93v-11.45h1.41v4.11c.66-.76,1.48-1.14,2.48-1.14,.61,0,1.15,.12,1.6,.36s.78,.58,.97,1,.29,1.05,.29,1.86v5.26h-1.41v-5.26c0-.7-.15-1.21-.46-1.54s-.74-.48-1.29-.48c-.42,0-.81,.11-1.18,.32s-.63,.51-.79,.88-.23,.88-.23,1.53v4.54h-1.41Z"/><path d="M519.22,170.67l.2,1.24c-.4,.08-.75,.12-1.06,.12-.51,0-.91-.08-1.19-.24s-.48-.37-.59-.64c-.12-.26-.17-.82-.17-1.66v-4.77h-1.03v-1.09h1.03v-2.05l1.4-.84v2.9h1.41v1.09h-1.41v4.85c0,.4,.02,.66,.07,.77,.05,.11,.13,.21,.24,.27,.11,.07,.27,.1,.48,.1,.16,0,.36-.02,.62-.05Z"/><path d="M519.77,169.45l1.39-.22c.08,.56,.29,.98,.65,1.28,.36,.3,.86,.45,1.5,.45s1.12-.13,1.44-.39,.47-.57,.47-.93c0-.32-.14-.57-.41-.75-.19-.12-.67-.28-1.44-.48-1.03-.26-1.75-.49-2.14-.68s-.7-.45-.91-.79c-.21-.34-.31-.71-.31-1.11,0-.37,.08-.71,.25-1.03,.17-.32,.4-.58,.69-.79,.22-.16,.52-.3,.89-.41,.38-.11,.78-.17,1.21-.17,.65,0,1.22,.09,1.71,.28s.86,.44,1.09,.76,.4,.75,.48,1.29l-1.38,.19c-.06-.43-.24-.76-.54-1-.3-.24-.72-.36-1.27-.36-.65,0-1.11,.11-1.38,.32-.28,.21-.41,.46-.41,.75,0,.18,.06,.35,.17,.49,.11,.15,.29,.28,.54,.38,.14,.05,.55,.17,1.24,.36,.99,.27,1.69,.48,2.08,.65,.39,.17,.7,.42,.93,.74,.22,.32,.34,.72,.34,1.2s-.14,.91-.41,1.32-.67,.73-1.18,.96-1.1,.34-1.75,.34c-1.08,0-1.9-.22-2.46-.67-.57-.45-.93-1.11-1.08-1.99Z"/><path d="M528.45,171.93v-1.6h1.6v1.6c0,.59-.1,1.06-.31,1.43s-.54,.64-.99,.84l-.39-.6c.3-.13,.52-.32,.66-.57s.22-.62,.23-1.09h-.8Z"/><path d="M542.14,169.25l1.45,.18c-.23,.85-.65,1.51-1.27,1.98s-1.41,.7-2.38,.7c-1.21,0-2.18-.37-2.89-1.12s-1.07-1.8-1.07-3.14,.36-2.48,1.08-3.25,1.65-1.16,2.8-1.16,2.02,.38,2.72,1.13,1.05,1.82,1.05,3.19c0,.08,0,.21,0,.38h-6.19c.05,.91,.31,1.61,.77,2.09s1.04,.73,1.73,.73c.52,0,.96-.14,1.32-.41s.65-.7,.87-1.3Zm-4.62-2.27h4.63c-.06-.7-.24-1.22-.53-1.57-.45-.54-1.03-.81-1.74-.81-.65,0-1.19,.22-1.63,.65s-.68,1.01-.73,1.73Z"/><path d="M545.1,171.93v-8.3h1.26v1.16c.26-.41,.61-.73,1.04-.98,.43-.25,.92-.37,1.48-.37,.61,0,1.12,.13,1.51,.38,.39,.25,.67,.61,.83,1.07,.66-.97,1.51-1.45,2.56-1.45,.82,0,1.46,.23,1.9,.68,.44,.46,.66,1.16,.66,2.11v5.7h-1.4v-5.23c0-.56-.05-.97-.14-1.21-.09-.25-.26-.45-.5-.6-.24-.15-.52-.23-.84-.23-.58,0-1.07,.19-1.45,.58-.39,.39-.58,1.01-.58,1.86v4.82h-1.41v-5.39c0-.62-.12-1.09-.34-1.41-.23-.31-.6-.47-1.12-.47-.4,0-.76,.1-1.1,.31s-.58,.51-.73,.91c-.15,.4-.23,.98-.23,1.73v4.3h-1.41Z"/><path d="M557.65,167.78c0-1.54,.43-2.67,1.28-3.41,.71-.61,1.58-.92,2.61-.92,1.14,0,2.07,.37,2.8,1.12,.72,.75,1.09,1.78,1.09,3.1,0,1.07-.16,1.91-.48,2.52s-.79,1.09-1.4,1.43c-.61,.34-1.28,.51-2,.51-1.16,0-2.1-.37-2.82-1.12-.72-.75-1.07-1.82-1.07-3.22Zm1.45,0c0,1.06,.23,1.86,.7,2.39,.46,.53,1.05,.79,1.75,.79s1.28-.27,1.74-.8c.46-.53,.7-1.34,.7-2.43,0-1.03-.23-1.8-.7-2.33-.47-.53-1.05-.79-1.74-.79s-1.29,.26-1.75,.79c-.46,.53-.7,1.32-.7,2.38Z"/><path d="M569.89,170.67l.2,1.24c-.4,.08-.75,.12-1.06,.12-.51,0-.91-.08-1.19-.24s-.48-.37-.59-.64c-.12-.26-.17-.82-.17-1.66v-4.77h-1.03v-1.09h1.03v-2.05l1.4-.84v2.9h1.41v1.09h-1.41v4.85c0,.4,.02,.66,.07,.77,.05,.11,.13,.21,.24,.27,.11,.07,.27,.1,.48,.1,.16,0,.36-.02,.62-.05Z"/><path d="M571.01,162.09v-1.62h1.41v1.62h-1.41Zm0,9.84v-8.3h1.41v8.3h-1.41Z"/><path d="M573.78,167.78c0-1.54,.43-2.67,1.28-3.41,.71-.61,1.58-.92,2.61-.92,1.14,0,2.07,.37,2.8,1.12s1.09,1.78,1.09,3.1c0,1.07-.16,1.91-.48,2.52s-.79,1.09-1.4,1.43-1.28,.51-2,.51c-1.16,0-2.1-.37-2.82-1.12s-1.07-1.82-1.07-3.22Zm1.45,0c0,1.06,.23,1.86,.7,2.39s1.05,.79,1.75,.79,1.28-.27,1.74-.8,.7-1.34,.7-2.43c0-1.03-.23-1.8-.7-2.33s-1.05-.79-1.74-.79-1.29,.26-1.75,.79-.7,1.32-.7,2.38Z"/><path d="M582.95,171.93v-8.3h1.27v1.18c.61-.91,1.49-1.37,2.64-1.37,.5,0,.96,.09,1.38,.27s.73,.42,.94,.71,.35,.64,.44,1.04c.05,.26,.08,.72,.08,1.37v5.1h-1.41v-5.05c0-.57-.05-1-.16-1.29s-.3-.51-.58-.68-.61-.25-.98-.25c-.6,0-1.12,.19-1.55,.57s-.65,1.1-.65,2.16v4.53h-1.41Z"/><path d="M591.03,169.45l1.39-.22c.08,.56,.3,.98,.65,1.28s.86,.45,1.5,.45,1.12-.13,1.44-.39,.47-.57,.47-.93c0-.32-.14-.57-.41-.75-.19-.12-.67-.28-1.44-.48-1.03-.26-1.75-.49-2.14-.68s-.7-.45-.91-.79-.31-.71-.31-1.11c0-.37,.08-.71,.25-1.03s.4-.58,.69-.79c.22-.16,.52-.3,.89-.41s.78-.17,1.21-.17c.65,0,1.22,.09,1.71,.28s.86,.44,1.09,.76,.4,.75,.48,1.29l-1.38,.19c-.06-.43-.24-.76-.54-1s-.72-.36-1.27-.36c-.65,0-1.11,.11-1.38,.32s-.41,.46-.41,.75c0,.18,.06,.35,.17,.49,.11,.15,.29,.28,.54,.38,.14,.05,.55,.17,1.24,.36,1,.27,1.69,.48,2.08,.65s.7,.42,.93,.74,.34,.72,.34,1.2-.14,.91-.41,1.32-.67,.73-1.18,.96-1.1,.34-1.75,.34c-1.08,0-1.9-.22-2.46-.67s-.93-1.11-1.08-1.99Z"/><path d="M608.94,170.9c-.52,.44-1.02,.75-1.5,.94-.48,.18-1,.27-1.55,.27-.91,0-1.61-.22-2.1-.67-.49-.45-.73-1.01-.73-1.71,0-.41,.09-.78,.28-1.11,.18-.34,.43-.61,.73-.81,.3-.2,.64-.36,1.01-.46,.28-.07,.69-.14,1.25-.21,1.13-.14,1.97-.3,2.51-.48,0-.19,0-.32,0-.37,0-.57-.13-.98-.4-1.21-.36-.32-.89-.48-1.6-.48-.66,0-1.15,.12-1.46,.35-.32,.23-.55,.64-.7,1.23l-1.38-.19c.12-.59,.33-1.06,.62-1.43,.29-.36,.7-.64,1.24-.84,.54-.2,1.17-.29,1.88-.29s1.28,.08,1.73,.25c.44,.17,.77,.38,.98,.63,.21,.25,.35,.57,.44,.96,.05,.24,.07,.67,.07,1.3v1.88c0,1.31,.03,2.13,.09,2.48,.06,.35,.18,.68,.36,1h-1.47c-.15-.29-.24-.63-.28-1.02Zm-.12-3.14c-.51,.21-1.28,.39-2.3,.53-.58,.08-.99,.18-1.23,.28-.24,.1-.42,.26-.55,.46-.13,.2-.2,.42-.2,.67,0,.38,.14,.69,.43,.94,.28,.25,.7,.38,1.25,.38s1.02-.12,1.45-.36,.73-.56,.93-.97c.15-.32,.23-.79,.23-1.41v-.52Z"/><path d="M612.16,171.93v-8.3h1.27v1.18c.61-.91,1.49-1.37,2.64-1.37,.5,0,.96,.09,1.38,.27,.42,.18,.73,.42,.94,.71,.21,.29,.35,.64,.44,1.04,.05,.26,.08,.72,.08,1.37v5.1h-1.41v-5.05c0-.57-.05-1-.16-1.29s-.3-.51-.58-.68c-.28-.17-.61-.25-.98-.25-.6,0-1.12,.19-1.55,.57-.44,.38-.65,1.1-.65,2.16v4.53h-1.41Z"/><path d="M626.19,171.93v-1.05c-.53,.82-1.3,1.23-2.32,1.23-.66,0-1.27-.18-1.82-.55s-.98-.87-1.29-1.53-.46-1.41-.46-2.25,.14-1.58,.41-2.25c.28-.67,.69-1.19,1.24-1.55,.55-.36,1.17-.54,1.85-.54,.5,0,.95,.11,1.34,.32s.71,.49,.95,.82v-4.11h1.4v11.45h-1.3Zm-4.45-4.14c0,1.06,.22,1.86,.67,2.38,.45,.53,.98,.79,1.59,.79s1.14-.25,1.57-.75,.64-1.27,.64-2.3c0-1.14-.22-1.97-.66-2.5s-.98-.8-1.62-.8-1.15,.25-1.57,.77c-.42,.51-.63,1.32-.63,2.41Z"/><path d="M633.08,169.45l1.39-.22c.08,.56,.3,.98,.65,1.28s.86,.45,1.5,.45,1.12-.13,1.44-.39,.47-.57,.47-.93c0-.32-.14-.57-.41-.75-.19-.12-.67-.28-1.44-.48-1.03-.26-1.75-.49-2.14-.68s-.7-.45-.91-.79-.31-.71-.31-1.11c0-.37,.08-.71,.25-1.03s.4-.58,.69-.79c.22-.16,.52-.3,.89-.41s.78-.17,1.21-.17c.65,0,1.22,.09,1.71,.28s.86,.44,1.09,.76,.4,.75,.48,1.29l-1.38,.19c-.06-.43-.24-.76-.54-1s-.72-.36-1.27-.36c-.65,0-1.11,.11-1.38,.32s-.41,.46-.41,.75c0,.18,.06,.35,.17,.49,.11,.15,.29,.28,.54,.38,.14,.05,.55,.17,1.24,.36,1,.27,1.69,.48,2.08,.65s.7,.42,.93,.74,.34,.72,.34,1.2-.14,.91-.41,1.32-.67,.73-1.18,.96-1.1,.34-1.75,.34c-1.08,0-1.9-.22-2.46-.67s-.93-1.11-1.08-1.99Z"/><path d="M644.45,170.67l.2,1.24c-.4,.08-.75,.12-1.06,.12-.51,0-.91-.08-1.19-.24s-.48-.37-.59-.64-.17-.82-.17-1.66v-4.77h-1.03v-1.09h1.03v-2.05l1.4-.84v2.9h1.41v1.09h-1.41v4.85c0,.4,.02,.66,.07,.77s.13,.21,.24,.27,.27,.1,.48,.1c.16,0,.36-.02,.62-.05Z"/><path d="M645.05,167.78c0-1.54,.43-2.67,1.28-3.41,.71-.61,1.58-.92,2.61-.92,1.14,0,2.07,.37,2.8,1.12,.72,.75,1.09,1.78,1.09,3.1,0,1.07-.16,1.91-.48,2.52s-.79,1.09-1.4,1.43c-.61,.34-1.28,.51-2,.51-1.16,0-2.1-.37-2.82-1.12-.72-.75-1.07-1.82-1.07-3.22Zm1.45,0c0,1.06,.23,1.86,.7,2.39,.46,.53,1.05,.79,1.75,.79s1.28-.27,1.74-.8c.46-.53,.7-1.34,.7-2.43,0-1.03-.23-1.8-.7-2.33-.47-.53-1.05-.79-1.74-.79s-1.29,.26-1.75,.79c-.46,.53-.7,1.32-.7,2.38Z"/><path d="M654.2,171.93v-8.3h1.27v1.26c.32-.59,.62-.98,.89-1.16s.57-.28,.9-.28c.47,0,.96,.15,1.45,.45l-.48,1.3c-.34-.2-.69-.3-1.03-.3-.31,0-.58,.09-.83,.28-.25,.18-.42,.44-.52,.77-.16,.5-.23,1.05-.23,1.64v4.34h-1.41Z"/><path d="M659.29,162.09v-1.62h1.41v1.62h-1.41Zm0,9.84v-8.3h1.41v8.3h-1.41Z"/><path d="M668.26,169.25l1.45,.18c-.23,.85-.65,1.51-1.27,1.98-.62,.47-1.41,.7-2.38,.7-1.21,0-2.18-.37-2.89-1.12s-1.07-1.8-1.07-3.14,.36-2.48,1.08-3.25,1.65-1.16,2.8-1.16,2.02,.38,2.72,1.13,1.05,1.82,1.05,3.19c0,.08,0,.21,0,.38h-6.19c.05,.91,.31,1.61,.77,2.09,.46,.48,1.04,.73,1.73,.73,.52,0,.96-.14,1.32-.41,.36-.27,.65-.7,.87-1.3Zm-4.62-2.27h4.63c-.06-.7-.24-1.22-.53-1.57-.45-.54-1.03-.81-1.74-.81-.65,0-1.19,.22-1.63,.65-.44,.43-.68,1.01-.73,1.73Z"/><path d="M670.66,169.45l1.39-.22c.08,.56,.3,.98,.65,1.28s.86,.45,1.5,.45,1.12-.13,1.44-.39,.47-.57,.47-.93c0-.32-.14-.57-.41-.75-.19-.12-.67-.28-1.44-.48-1.03-.26-1.75-.49-2.14-.68s-.7-.45-.91-.79-.31-.71-.31-1.11c0-.37,.08-.71,.25-1.03s.4-.58,.69-.79c.22-.16,.52-.3,.89-.41s.78-.17,1.21-.17c.65,0,1.22,.09,1.71,.28s.86,.44,1.09,.76,.4,.75,.48,1.29l-1.38,.19c-.06-.43-.24-.76-.54-1s-.72-.36-1.27-.36c-.65,0-1.11,.11-1.38,.32s-.41,.46-.41,.75c0,.18,.06,.35,.17,.49,.11,.15,.29,.28,.54,.38,.14,.05,.55,.17,1.24,.36,1,.27,1.69,.48,2.08,.65s.7,.42,.93,.74,.34,.72,.34,1.2-.14,.91-.41,1.32-.67,.73-1.18,.96-1.1,.34-1.75,.34c-1.08,0-1.9-.22-2.46-.67s-.93-1.11-1.08-1.99Z"/><path d="M686.23,170.67l.2,1.24c-.4,.08-.75,.12-1.06,.12-.51,0-.91-.08-1.19-.24s-.48-.37-.59-.64-.17-.82-.17-1.66v-4.77h-1.03v-1.09h1.03v-2.05l1.4-.84v2.9h1.41v1.09h-1.41v4.85c0,.4,.02,.66,.07,.77s.13,.21,.24,.27,.27,.1,.48,.1c.16,0,.36-.02,.62-.05Z"/><path d="M686.83,167.78c0-1.54,.43-2.67,1.28-3.41,.71-.61,1.58-.92,2.61-.92,1.14,0,2.07,.37,2.8,1.12,.72,.75,1.09,1.78,1.09,3.1,0,1.07-.16,1.91-.48,2.52s-.79,1.09-1.4,1.43c-.61,.34-1.28,.51-2,.51-1.16,0-2.1-.37-2.82-1.12-.72-.75-1.07-1.82-1.07-3.22Zm1.45,0c0,1.06,.23,1.86,.7,2.39,.46,.53,1.05,.79,1.75,.79s1.28-.27,1.74-.8c.46-.53,.7-1.34,.7-2.43,0-1.03-.23-1.8-.7-2.33-.47-.53-1.05-.79-1.74-.79s-1.29,.26-1.75,.79c-.46,.53-.7,1.32-.7,2.38Z"/><path d="M700.17,171.93v-8.3h1.27v1.26c.32-.59,.62-.98,.89-1.16s.57-.28,.9-.28c.47,0,.96,.15,1.45,.45l-.48,1.3c-.34-.2-.69-.3-1.03-.3-.31,0-.58,.09-.83,.28-.25,.18-.42,.44-.52,.77-.16,.5-.23,1.05-.23,1.64v4.34h-1.41Z"/><path d="M710.93,169.25l1.45,.18c-.23,.85-.65,1.51-1.27,1.98-.62,.47-1.41,.7-2.38,.7-1.21,0-2.18-.37-2.89-1.12s-1.07-1.8-1.07-3.14,.36-2.48,1.08-3.25,1.65-1.16,2.8-1.16,2.02,.38,2.72,1.13,1.05,1.82,1.05,3.19c0,.08,0,.21,0,.38h-6.19c.05,.91,.31,1.61,.77,2.09,.46,.48,1.04,.73,1.73,.73,.52,0,.96-.14,1.32-.41,.36-.27,.65-.7,.87-1.3Zm-4.62-2.27h4.63c-.06-.7-.24-1.22-.53-1.57-.45-.54-1.03-.81-1.74-.81-.65,0-1.19,.22-1.63,.65-.44,.43-.68,1.01-.73,1.73Z"/><path d="M719.31,170.9c-.52,.44-1.02,.75-1.5,.94s-1,.27-1.55,.27c-.91,0-1.61-.22-2.1-.67s-.73-1.01-.73-1.71c0-.41,.09-.78,.28-1.11s.43-.61,.73-.81,.64-.36,1.01-.46c.28-.07,.69-.14,1.25-.21,1.14-.14,1.97-.3,2.51-.48,0-.19,0-.32,0-.37,0-.57-.13-.98-.4-1.21-.36-.32-.89-.48-1.6-.48-.66,0-1.15,.12-1.46,.35s-.55,.64-.7,1.23l-1.38-.19c.12-.59,.33-1.06,.62-1.43s.7-.64,1.24-.84,1.17-.29,1.88-.29,1.28,.08,1.73,.25,.77,.38,.98,.63,.35,.57,.44,.96c.05,.24,.07,.67,.07,1.3v1.88c0,1.31,.03,2.13,.09,2.48s.18,.68,.36,1h-1.47c-.15-.29-.24-.63-.28-1.02Zm-.12-3.14c-.51,.21-1.28,.39-2.3,.53-.58,.08-.99,.18-1.23,.28s-.42,.26-.55,.46-.2,.42-.2,.67c0,.38,.14,.69,.43,.94s.7,.38,1.25,.38,1.02-.12,1.45-.36,.73-.56,.93-.97c.15-.32,.23-.79,.23-1.41v-.52Z"/><path d="M727.95,168.89l1.38,.18c-.15,.95-.54,1.7-1.16,2.24s-1.39,.81-2.29,.81c-1.14,0-2.05-.37-2.74-1.11s-1.04-1.81-1.04-3.19c0-.9,.15-1.68,.45-2.35s.75-1.18,1.36-1.51,1.27-.5,1.98-.5c.9,0,1.64,.23,2.21,.68s.94,1.1,1.1,1.94l-1.37,.21c-.13-.56-.36-.98-.69-1.26s-.73-.42-1.2-.42c-.71,0-1.28,.25-1.73,.76s-.66,1.31-.66,2.41,.21,1.92,.64,2.43,.98,.76,1.67,.76c.55,0,1.01-.17,1.38-.51s.6-.86,.7-1.56Z"/><path d="M733.35,170.67l.2,1.24c-.4,.08-.75,.12-1.06,.12-.51,0-.91-.08-1.19-.24s-.48-.37-.59-.64-.17-.82-.17-1.66v-4.77h-1.03v-1.09h1.03v-2.05l1.4-.84v2.9h1.41v1.09h-1.41v4.85c0,.4,.02,.66,.07,.77s.13,.21,.24,.27,.27,.1,.48,.1c.16,0,.36-.02,.62-.05Z"/><path d="M437.13,181.29v-1.62h1.41v1.62h-1.41Zm0,9.84v-8.3h1.41v8.3h-1.41Z"/><path d="M440.42,191.13v-8.3h1.27v1.18c.61-.91,1.49-1.37,2.64-1.37,.5,0,.96,.09,1.38,.27s.73,.42,.94,.71,.35,.64,.44,1.04c.05,.26,.08,.72,.08,1.37v5.1h-1.41v-5.05c0-.57-.05-1-.16-1.29s-.3-.51-.58-.68-.61-.25-.98-.25c-.6,0-1.12,.19-1.55,.57s-.65,1.1-.65,2.16v4.53h-1.41Z"/><path d="M458.67,190.1c-.52,.44-1.02,.75-1.5,.94-.48,.18-1,.27-1.55,.27-.91,0-1.61-.22-2.1-.67-.49-.45-.73-1.01-.73-1.71,0-.41,.09-.78,.28-1.11,.18-.34,.43-.61,.73-.81,.3-.2,.64-.36,1.01-.46,.28-.07,.69-.14,1.25-.21,1.13-.14,1.97-.3,2.51-.48,0-.19,0-.32,0-.37,0-.57-.13-.98-.4-1.21-.36-.32-.89-.48-1.6-.48-.66,0-1.15,.12-1.46,.35-.32,.23-.55,.64-.7,1.23l-1.38-.19c.12-.59,.33-1.06,.62-1.43,.29-.36,.7-.64,1.24-.84,.54-.2,1.17-.29,1.88-.29s1.28,.08,1.73,.25c.44,.17,.77,.38,.98,.63,.21,.25,.35,.57,.44,.96,.05,.24,.07,.67,.07,1.3v1.88c0,1.31,.03,2.13,.09,2.48,.06,.35,.18,.68,.36,1h-1.47c-.15-.29-.24-.63-.28-1.02Zm-.12-3.14c-.51,.21-1.28,.39-2.3,.53-.58,.08-.99,.18-1.23,.28-.24,.1-.42,.26-.55,.46-.13,.2-.2,.42-.2,.67,0,.38,.14,.69,.43,.94,.28,.25,.7,.38,1.25,.38s1.02-.12,1.45-.36,.73-.56,.93-.97c.15-.32,.23-.79,.23-1.41v-.52Z"/><path d="M467.62,191.13l-2.54-8.3h1.45l1.32,4.79,.49,1.78c.02-.09,.16-.66,.43-1.71l1.32-4.86h1.45l1.24,4.81,.41,1.59,.48-1.6,1.42-4.8h1.37l-2.59,8.3h-1.46l-1.32-4.97-.32-1.41-1.68,6.38h-1.47Z"/><path d="M482.8,190.1c-.52,.44-1.02,.75-1.5,.94s-1,.27-1.55,.27c-.91,0-1.61-.22-2.1-.67s-.73-1.01-.73-1.71c0-.41,.09-.78,.28-1.11s.43-.61,.73-.81,.64-.36,1.01-.46c.28-.07,.69-.14,1.25-.21,1.14-.14,1.97-.3,2.51-.48,0-.19,0-.32,0-.37,0-.57-.13-.98-.4-1.21-.36-.32-.89-.48-1.6-.48-.66,0-1.15,.12-1.46,.35s-.55,.64-.7,1.23l-1.38-.19c.12-.59,.33-1.06,.62-1.43s.7-.64,1.24-.84,1.17-.29,1.88-.29,1.28,.08,1.73,.25,.77,.38,.98,.63,.35,.57,.44,.96c.05,.24,.07,.67,.07,1.3v1.88c0,1.31,.03,2.13,.09,2.48s.18,.68,.36,1h-1.47c-.15-.29-.24-.63-.28-1.02Zm-.12-3.14c-.51,.21-1.28,.39-2.3,.53-.58,.08-.99,.18-1.23,.28s-.42,.26-.55,.46-.2,.42-.2,.67c0,.38,.14,.69,.43,.94s.7,.38,1.25,.38,1.02-.12,1.45-.36,.73-.56,.93-.97c.15-.32,.23-.79,.23-1.41v-.52Z"/><path d="M485.97,194.32l-.16-1.32c.31,.08,.58,.12,.8,.12,.31,0,.56-.05,.75-.16s.34-.25,.46-.44c.09-.14,.23-.49,.43-1.05,.03-.08,.07-.19,.12-.34l-3.15-8.31h1.52l1.73,4.8c.22,.61,.42,1.25,.6,1.92,.16-.65,.35-1.28,.58-1.89l1.77-4.84h1.41l-3.16,8.44c-.34,.91-.6,1.54-.79,1.88-.25,.46-.54,.8-.86,1.02s-.71,.32-1.16,.32c-.27,0-.57-.06-.91-.17Z"/><path d="M501.03,189.87l.2,1.24c-.4,.08-.75,.12-1.06,.12-.51,0-.91-.08-1.19-.24s-.48-.37-.59-.64c-.12-.26-.17-.82-.17-1.66v-4.77h-1.03v-1.09h1.03v-2.05l1.4-.84v2.9h1.41v1.09h-1.41v4.85c0,.4,.02,.66,.07,.77,.05,.11,.13,.21,.24,.27,.11,.07,.27,.1,.48,.1,.16,0,.36-.02,.62-.05Z"/><path d="M502.15,191.13v-11.45h1.41v4.11c.66-.76,1.48-1.14,2.48-1.14,.61,0,1.15,.12,1.6,.36s.78,.58,.97,1,.29,1.05,.29,1.86v5.26h-1.41v-5.26c0-.7-.15-1.21-.46-1.54s-.74-.48-1.29-.48c-.42,0-.81,.11-1.18,.32s-.63,.51-.79,.88-.23,.88-.23,1.53v4.54h-1.41Z"/><path d="M516.21,190.1c-.52,.44-1.02,.75-1.5,.94-.48,.18-1,.27-1.55,.27-.91,0-1.61-.22-2.1-.67-.49-.45-.73-1.01-.73-1.71,0-.41,.09-.78,.28-1.11,.18-.34,.43-.61,.73-.81,.3-.2,.64-.36,1.01-.46,.28-.07,.69-.14,1.25-.21,1.13-.14,1.97-.3,2.51-.48,0-.19,0-.32,0-.37,0-.57-.13-.98-.4-1.21-.36-.32-.89-.48-1.6-.48-.66,0-1.15,.12-1.46,.35-.32,.23-.55,.64-.7,1.23l-1.38-.19c.12-.59,.33-1.06,.62-1.43,.29-.36,.7-.64,1.24-.84,.54-.2,1.17-.29,1.88-.29s1.28,.08,1.73,.25c.44,.17,.77,.38,.98,.63,.21,.25,.35,.57,.44,.96,.05,.24,.07,.67,.07,1.3v1.88c0,1.31,.03,2.13,.09,2.48,.06,.35,.18,.68,.36,1h-1.47c-.15-.29-.24-.63-.28-1.02Zm-.12-3.14c-.51,.21-1.28,.39-2.3,.53-.58,.08-.99,.18-1.23,.28-.24,.1-.42,.26-.55,.46-.13,.2-.2,.42-.2,.67,0,.38,.14,.69,.43,.94,.28,.25,.7,.38,1.25,.38s1.02-.12,1.45-.36,.73-.56,.93-.97c.15-.32,.23-.79,.23-1.41v-.52Z"/><path d="M522.51,189.87l.2,1.24c-.4,.08-.75,.12-1.06,.12-.51,0-.91-.08-1.19-.24s-.48-.37-.59-.64c-.12-.26-.17-.82-.17-1.66v-4.77h-1.03v-1.09h1.03v-2.05l1.4-.84v2.9h1.41v1.09h-1.41v4.85c0,.4,.02,.66,.07,.77,.05,.11,.13,.21,.24,.27,.11,.07,.27,.1,.48,.1,.16,0,.36-.02,.62-.05Z"/><path d="M527.82,181.29v-1.62h1.41v1.62h-1.41Zm0,9.84v-8.3h1.41v8.3h-1.41Z"/><path d="M530.55,188.65l1.39-.22c.08,.56,.3,.98,.65,1.28s.86,.45,1.5,.45,1.12-.13,1.44-.39,.47-.57,.47-.93c0-.32-.14-.57-.41-.75-.19-.12-.67-.28-1.44-.48-1.03-.26-1.75-.49-2.14-.68s-.7-.45-.91-.79-.31-.71-.31-1.11c0-.37,.08-.71,.25-1.03s.4-.58,.69-.79c.22-.16,.52-.3,.89-.41s.78-.17,1.21-.17c.65,0,1.22,.09,1.71,.28s.86,.44,1.09,.76,.4,.75,.48,1.29l-1.38,.19c-.06-.43-.24-.76-.54-1s-.72-.36-1.27-.36c-.65,0-1.11,.11-1.38,.32s-.41,.46-.41,.75c0,.18,.06,.35,.17,.49,.11,.15,.29,.28,.54,.38,.14,.05,.55,.17,1.24,.36,1,.27,1.69,.48,2.08,.65s.7,.42,.93,.74,.34,.72,.34,1.2-.14,.91-.41,1.32-.67,.73-1.18,.96-1.1,.34-1.75,.34c-1.08,0-1.9-.22-2.46-.67s-.93-1.11-1.08-1.99Z"/><path d="M543.05,191.13v-11.45h1.41v4.11c.66-.76,1.48-1.14,2.48-1.14,.61,0,1.15,.12,1.6,.36s.78,.58,.97,1,.29,1.05,.29,1.86v5.26h-1.41v-5.26c0-.7-.15-1.21-.46-1.54s-.74-.48-1.29-.48c-.42,0-.81,.11-1.18,.32s-.63,.51-.79,.88-.23,.88-.23,1.53v4.54h-1.41Z"/><path d="M557.37,188.46l1.45,.18c-.23,.85-.65,1.51-1.27,1.98-.62,.47-1.41,.7-2.38,.7-1.21,0-2.18-.37-2.89-1.12s-1.07-1.8-1.07-3.14,.36-2.48,1.08-3.25,1.65-1.16,2.8-1.16,2.02,.38,2.72,1.13,1.05,1.82,1.05,3.19c0,.08,0,.21,0,.38h-6.19c.05,.91,.31,1.61,.77,2.09,.46,.48,1.04,.73,1.73,.73,.52,0,.96-.14,1.32-.41,.36-.27,.65-.7,.87-1.3Zm-4.62-2.27h4.63c-.06-.7-.24-1.22-.53-1.57-.45-.54-1.03-.81-1.74-.81-.65,0-1.19,.22-1.63,.65-.44,.43-.68,1.01-.73,1.73Z"/><path d="M560.3,191.13v-11.45h1.41v11.45h-1.41Z"/><path d="M563.63,194.31v-11.48h1.28v1.08c.3-.42,.64-.74,1.02-.95s.84-.32,1.38-.32c.71,0,1.33,.18,1.88,.55s.95,.88,1.23,1.54,.41,1.39,.41,2.18c0,.85-.15,1.61-.46,2.29s-.75,1.2-1.33,1.56-1.19,.54-1.83,.54c-.47,0-.89-.1-1.26-.3s-.68-.45-.92-.75v4.04h-1.41Zm1.27-7.28c0,1.07,.22,1.86,.65,2.37s.96,.77,1.57,.77,1.16-.26,1.61-.79,.67-1.35,.67-2.46-.22-1.85-.65-2.38-.95-.79-1.56-.79-1.13,.28-1.59,.84-.69,1.37-.69,2.44Z"/><path d="M572.61,191.13v-7.2h-1.24v-1.09h1.24v-.88c0-.56,.05-.97,.15-1.24,.14-.36,.37-.66,.71-.89s.82-.34,1.43-.34c.4,0,.83,.05,1.31,.14l-.21,1.23c-.29-.05-.57-.08-.83-.08-.43,0-.73,.09-.91,.27s-.27,.52-.27,1.02v.77h1.62v1.09h-1.62v7.2h-1.4Z"/><path d="M581.9,191.13v-1.22c-.65,.94-1.52,1.41-2.63,1.41-.49,0-.95-.09-1.37-.28s-.74-.42-.95-.71-.35-.63-.43-1.04c-.06-.28-.09-.71-.09-1.31v-5.14h1.41v4.6c0,.73,.03,1.23,.09,1.48,.09,.37,.28,.66,.56,.87s.64,.32,1.06,.32,.82-.11,1.19-.32,.63-.51,.79-.88,.23-.91,.23-1.62v-4.45h1.41v8.3h-1.26Z"/><path d="M585.07,191.13v-11.45h1.41v11.45h-1.41Z"/><path d="M588.8,191.13v-1.6h1.6v1.6h-1.6Z"/></g><text transform="translate(79.23 333.75)" style="font-family:ArialMT, Arial; font-size:16px; letter-spacing:-.02em;"><tspan x="0" y="0">Stimulus</tspan></text><text transform="translate(179.37 333.75)" style="font-family:ArialMT, Arial; font-size:16px; letter-spacing:-.02em;"><tspan x="0" y="0">Response</tspan></text><path d="M86.04,258.69c-.56,0-1.03-.47-1.01-1.03,.13-3.41,.92-6.65,2.36-9.74,1.45-3.1,3.47-5.78,6.06-8.04,.41-.36,1.03-.31,1.4,.09l1.53,1.68c.38,.42,.33,1.06-.09,1.43-2.1,1.87-3.77,4.07-5,6.59-1.24,2.54-1.92,5.22-2.05,8.04-.02,.54-.45,.97-.99,.97h-2.21Zm45.74,0c-.54,0-.97-.43-1-.98-.12-2.82-.77-5.5-1.94-8.04-1.17-2.52-2.8-4.72-4.89-6.59-.42-.38-.47-1.01-.09-1.43l1.52-1.67c.37-.4,1-.45,1.41-.08,2.54,2.29,4.51,4.98,5.92,8.05,1.4,3.06,2.17,6.29,2.3,9.7,.02,.56-.44,1.03-1.01,1.03h-2.21Zm-44.24,24.74v-2.21c0-.55,.45-1,1-1h3.89c.55,0,1-.45,1-1v-20.46c0-3.93,1.16-7.42,3.47-10.48,2.16-2.85,4.95-4.72,8.38-5.61,.45-.12,.77-.51,.77-.97v-1.24c0-1.08,.39-1.96,1.16-2.66s1.69-1.05,2.77-1.05,2,.35,2.77,1.05c.77,.7,1.16,1.59,1.16,2.66v1.24c0,.46,.32,.85,.77,.97,3.43,.89,6.24,2.75,8.42,5.61,2.34,3.06,3.51,6.56,3.51,10.48v20.46c0,.55,.45,1,1,1h3.82c.55,0,1,.45,1,1v2.21c0,.55-.45,1-1,1h-42.88c-.55,0-1-.45-1-1Zm22.44,9.42c-1.5,0-2.81-.55-3.93-1.65-.83-.81-1.35-1.74-1.57-2.8-.12-.61,.37-1.17,.99-1.17h9.01c.62,0,1.11,.56,.99,1.16-.21,1.05-.72,1.99-1.54,2.8-1.1,1.1-2.42,1.65-3.96,1.65Zm-11.34-12.62h22.75c.55,0,1-.45,1-1v-20.46c0-3.46-1.19-6.4-3.58-8.84-2.38-2.43-5.31-3.65-8.77-3.65-3.46,0-6.39,1.22-8.8,3.65-2.41,2.43-3.61,5.38-3.61,8.84v20.46c0,.55,.45,1,1,1Z"/><path d="M214.44,233.59c3.9,0,7.23,1.36,10,4.08,2.76,2.72,4.15,6.03,4.15,9.93,0,2.23-.48,4.33-1.45,6.3-.96,1.97-2.32,3.64-4.08,5.01h-2.19v-3.21c1.24-.99,2.2-2.19,2.86-3.6,.66-1.41,1-2.91,1-4.5,0-2.83-1.01-5.23-3.02-7.2-2.01-1.97-4.44-2.96-7.26-2.96-2.83,0-5.25,.99-7.26,2.96-2.01,1.97-3.02,4.37-3.02,7.2,0,1.59,.33,3.09,1,4.5,.66,1.41,1.62,2.61,2.86,3.6v4.63c-2.4-1.24-4.29-3-5.66-5.27-1.37-2.27-2.06-4.76-2.06-7.46,0-3.9,1.38-7.21,4.15-9.93,2.76-2.72,6.1-4.08,10-4.08Zm-2.44,53.99c-.73,0-1.41-.14-2.06-.42s-1.2-.65-1.67-1.12l-13.24-13.24,3.6-3.73c.6-.6,1.27-1.06,2.02-1.38,.75-.32,1.53-.37,2.35-.16l5.01,1.16v-20.95c0-1.8,.62-3.32,1.86-4.56,1.24-1.24,2.76-1.86,4.56-1.86s3.32,.62,4.56,1.86c1.24,1.24,1.86,2.76,1.86,4.56v11.06h1.67c.21,0,.41,.04,.58,.13s.36,.17,.58,.26l9.51,4.63c1.03,.47,1.79,1.23,2.28,2.28,.49,1.05,.63,2.13,.42,3.25l-2.31,14.01c-.21,1.24-.81,2.26-1.8,3.05-.99,.79-2.1,1.19-3.34,1.19h-16.46Zm-.51-3.86h18.06l2.76-16.01-11.76-5.85h-3.54v-14.14c0-.77-.24-1.39-.71-1.86-.47-.47-1.09-.71-1.86-.71s-1.39,.24-1.86,.71c-.47,.47-.71,1.09-.71,1.86v25.65l-9.9-2.12-1.48,1.48,10.99,10.99Zm18.06,0h0Z"/><g><line x1="153.09" y1="290.04" x2="183.53" y2="290.04" style="fill:none; stroke:#0333ff; stroke-miterlimit:10; stroke-width:4px;"/><rect x="151.09" y="277.04" width="4" height="26" style="fill:#0333ff;"/><rect x="181.53" y="277.04" width="4" height="26" style="fill:#0333ff;"/></g><text transform="translate(436.07 333.75)" style="font-family:ArialMT, Arial; font-size:16px; letter-spacing:-.02em;"><tspan x="0" y="0">Stimulus</tspan></text><text transform="translate(838.77 333.75)" style="font-family:ArialMT, Arial; font-size:16px; letter-spacing:-.02em;"><tspan x="0" y="0">Response</tspan></text><path d="M442.89,258.69c-.56,0-1.03-.47-1.01-1.03,.13-3.41,.92-6.65,2.36-9.74,1.45-3.1,3.47-5.78,6.06-8.04,.41-.36,1.03-.31,1.4,.09l1.53,1.68c.38,.42,.33,1.06-.09,1.43-2.1,1.87-3.77,4.07-5,6.59-1.24,2.54-1.92,5.22-2.05,8.04-.02,.54-.45,.97-.99,.97h-2.21Zm45.74,0c-.54,0-.97-.43-1-.98-.12-2.82-.77-5.5-1.94-8.04-1.17-2.52-2.8-4.72-4.89-6.59-.42-.38-.47-1.01-.09-1.43l1.52-1.67c.37-.4,1-.45,1.41-.08,2.54,2.29,4.51,4.98,5.92,8.05,1.4,3.06,2.17,6.29,2.3,9.7,.02,.56-.44,1.03-1.01,1.03h-2.21Zm-44.24,24.74v-2.21c0-.55,.45-1,1-1h3.89c.55,0,1-.45,1-1v-20.46c0-3.93,1.16-7.42,3.47-10.48,2.16-2.85,4.95-4.72,8.38-5.61,.45-.12,.77-.51,.77-.97v-1.24c0-1.08,.39-1.96,1.16-2.66s1.69-1.05,2.77-1.05,2,.35,2.77,1.05c.77,.7,1.16,1.59,1.16,2.66v1.24c0,.46,.32,.85,.77,.97,3.43,.89,6.24,2.75,8.42,5.61,2.34,3.06,3.51,6.56,3.51,10.48v20.46c0,.55,.45,1,1,1h3.82c.55,0,1,.45,1,1v2.21c0,.55-.45,1-1,1h-42.88c-.55,0-1-.45-1-1Zm22.44,9.42c-1.5,0-2.81-.55-3.93-1.65-.83-.81-1.35-1.74-1.57-2.8-.12-.61,.37-1.17,.99-1.17h9.01c.62,0,1.11,.56,.99,1.16-.21,1.05-.72,1.99-1.54,2.8-1.1,1.1-2.42,1.65-3.96,1.65Zm-11.34-12.62h22.75c.55,0,1-.45,1-1v-20.46c0-3.46-1.19-6.4-3.58-8.84-2.38-2.43-5.31-3.65-8.77-3.65-3.46,0-6.39,1.22-8.8,3.65-2.41,2.43-3.61,5.38-3.61,8.84v20.46c0,.55,.45,1,1,1Z"/><path d="M873.83,233.59c3.9,0,7.23,1.36,10,4.08,2.76,2.72,4.15,6.03,4.15,9.93,0,2.23-.48,4.33-1.45,6.3-.96,1.97-2.32,3.64-4.08,5.01h-2.19v-3.21c1.24-.99,2.2-2.19,2.86-3.6,.66-1.41,1-2.91,1-4.5,0-2.83-1.01-5.23-3.02-7.2-2.01-1.97-4.44-2.96-7.26-2.96-2.83,0-5.25,.99-7.26,2.96-2.01,1.97-3.02,4.37-3.02,7.2,0,1.59,.33,3.09,1,4.5,.66,1.41,1.62,2.61,2.86,3.6v4.63c-2.4-1.24-4.29-3-5.66-5.27-1.37-2.27-2.06-4.76-2.06-7.46,0-3.9,1.38-7.21,4.15-9.93,2.76-2.72,6.1-4.08,10-4.08Zm-2.44,53.99c-.73,0-1.41-.14-2.06-.42s-1.2-.65-1.67-1.12l-13.24-13.24,3.6-3.73c.6-.6,1.27-1.06,2.02-1.38,.75-.32,1.53-.37,2.35-.16l5.01,1.16v-20.95c0-1.8,.62-3.32,1.86-4.56,1.24-1.24,2.76-1.86,4.56-1.86s3.32,.62,4.56,1.86c1.24,1.24,1.86,2.76,1.86,4.56v11.06h1.67c.21,0,.41,.04,.58,.13s.36,.17,.58,.26l9.51,4.63c1.03,.47,1.79,1.23,2.28,2.28,.49,1.05,.63,2.13,.42,3.25l-2.31,14.01c-.21,1.24-.81,2.26-1.8,3.05-.99,.79-2.1,1.19-3.34,1.19h-16.46Zm-.51-3.86h18.06l2.76-16.01-11.76-5.85h-3.54v-14.14c0-.77-.24-1.39-.71-1.86-.47-.47-1.09-.71-1.86-.71s-1.39,.24-1.86,.71c-.47,.47-.71,1.09-.71,1.86v25.65l-9.9-2.12-1.48,1.48,10.99,10.99Zm18.06,0h0Z"/><g><line x1="509.93" y1="290.04" x2="842.93" y2="290.04" style="fill:none; stroke:#0333ff; stroke-miterlimit:10; stroke-width:4px;"/><rect x="507.93" y="277.04" width="4" height="26" style="fill:#0333ff;"/><rect x="840.93" y="277.04" width="4" height="26" style="fill:#0333ff;"/></g><text transform="translate(436.07 108.73)" style="fill:#0333ff; font-family:ArialMT, Arial; font-size:24px;"><tspan x="0" y="0">Emotional agility</tspan></text><text transform="translate(81.13 108.73)" style="fill:#0333ff; font-family:ArialMT, Arial; font-size:24px;"><tspan x="0" y="0">Emotional rigidity</tspan></text></g><text transform="translate(106.47 412.47)" style="font-family:ArialMT, Arial; font-size:16px; letter-spacing:-.02em;"><tspan x="0" y="0">Mental shortcuts</tspan><tspan x="26.54" y="19.2">(Option A)</tspan></text><line x1="168.31" y1="306.95" x2="168.31" y2="372" style="stroke:#0333ff; stroke-miterlimit:10;"/><g><path d="M600.48,412.47v-11.45h8.28v1.35h-6.77v3.51h6.34v1.34h-6.34v3.9h7.03v1.35h-8.55Z"/><path d="M609.75,412.47l3.03-4.31-2.8-3.98h1.76l1.27,1.95c.24,.37,.43,.68,.58,.93,.23-.34,.44-.65,.63-.91l1.4-1.96h1.68l-2.87,3.91,3.09,4.39h-1.73l-1.7-2.58-.45-.7-2.18,3.27h-1.7Z"/><path d="M624.11,409.8l1.45,.18c-.23,.85-.65,1.51-1.27,1.98s-1.41,.7-2.38,.7c-1.21,0-2.18-.37-2.89-1.12s-1.07-1.8-1.07-3.14,.36-2.48,1.08-3.25,1.65-1.16,2.8-1.16,2.02,.38,2.72,1.13,1.05,1.82,1.05,3.19c0,.08,0,.21,0,.38h-6.19c.05,.91,.31,1.61,.77,2.09s1.04,.73,1.73,.73c.52,0,.96-.14,1.32-.41s.65-.7,.87-1.3Zm-4.62-2.27h4.63c-.06-.7-.24-1.22-.53-1.57-.45-.54-1.03-.81-1.74-.81-.65,0-1.19,.22-1.63,.65s-.68,1.01-.73,1.73Z"/><path d="M627.05,412.47v-8.3h1.27v1.26c.32-.59,.62-.98,.89-1.16s.57-.28,.9-.28c.47,0,.96,.15,1.45,.45l-.48,1.3c-.34-.2-.69-.3-1.03-.3-.31,0-.58,.09-.83,.28s-.42,.44-.52,.77c-.16,.5-.23,1.05-.23,1.64v4.34h-1.41Z"/><path d="M637.56,409.43l1.38,.18c-.15,.95-.54,1.7-1.16,2.24s-1.39,.81-2.29,.81c-1.14,0-2.05-.37-2.74-1.11s-1.04-1.81-1.04-3.19c0-.9,.15-1.68,.45-2.35s.75-1.18,1.36-1.51,1.27-.5,1.98-.5c.9,0,1.64,.23,2.21,.68s.94,1.1,1.1,1.94l-1.37,.21c-.13-.56-.36-.98-.69-1.26s-.73-.42-1.2-.42c-.71,0-1.28,.25-1.73,.76s-.66,1.31-.66,2.41,.21,1.92,.64,2.43,.98,.76,1.67,.76c.55,0,1.01-.17,1.38-.51s.6-.86,.7-1.56Z"/><path d="M639.89,402.64v-1.62h1.41v1.62h-1.41Zm0,9.84v-8.3h1.41v8.3h-1.41Z"/><path d="M642.62,410l1.39-.22c.08,.56,.29,.98,.65,1.28,.36,.3,.86,.45,1.5,.45s1.12-.13,1.44-.39,.47-.57,.47-.93c0-.32-.14-.57-.41-.75-.19-.12-.67-.28-1.44-.48-1.03-.26-1.75-.49-2.14-.68s-.7-.45-.91-.79c-.21-.34-.31-.71-.31-1.11,0-.37,.08-.71,.25-1.03,.17-.32,.4-.58,.69-.79,.22-.16,.52-.3,.89-.41,.38-.11,.78-.17,1.21-.17,.65,0,1.22,.09,1.71,.28s.86,.44,1.09,.76,.4,.75,.48,1.29l-1.38,.19c-.06-.43-.24-.76-.54-1-.3-.24-.72-.36-1.27-.36-.65,0-1.11,.11-1.38,.32-.28,.21-.41,.46-.41,.75,0,.18,.06,.35,.17,.49,.11,.15,.29,.28,.54,.38,.14,.05,.55,.17,1.24,.36,.99,.27,1.69,.48,2.08,.65,.39,.17,.7,.42,.93,.74,.22,.32,.34,.72,.34,1.2s-.14,.91-.41,1.32-.67,.73-1.18,.96-1.1,.34-1.75,.34c-1.08,0-1.9-.22-2.46-.67-.57-.45-.93-1.11-1.08-1.99Z"/><path d="M650.94,402.64v-1.62h1.41v1.62h-1.41Zm0,9.84v-8.3h1.41v8.3h-1.41Z"/><path d="M654.23,412.47v-8.3h1.27v1.18c.61-.91,1.49-1.37,2.64-1.37,.5,0,.96,.09,1.38,.27,.42,.18,.73,.42,.94,.71,.21,.29,.35,.64,.44,1.04,.05,.26,.08,.72,.08,1.37v5.1h-1.41v-5.05c0-.57-.05-1-.16-1.29s-.3-.51-.58-.68c-.28-.17-.61-.25-.98-.25-.6,0-1.12,.19-1.55,.57-.44,.38-.65,1.1-.65,2.16v4.53h-1.41Z"/><path d="M662.61,413.16l1.37,.2c.06,.42,.22,.73,.48,.92,.35,.26,.83,.39,1.43,.39,.65,0,1.15-.13,1.51-.39s.59-.62,.72-1.09c.07-.29,.11-.89,.1-1.8-.61,.72-1.38,1.09-2.3,1.09-1.14,0-2.02-.41-2.65-1.23s-.94-1.81-.94-2.96c0-.79,.14-1.52,.43-2.19s.7-1.19,1.25-1.55,1.18-.55,1.92-.55c.98,0,1.79,.4,2.42,1.19v-1h1.3v7.17c0,1.29-.13,2.21-.39,2.75s-.68,.96-1.25,1.28-1.27,.47-2.11,.47c-.99,0-1.79-.22-2.4-.67s-.9-1.12-.88-2.01Zm1.16-4.98c0,1.09,.22,1.88,.65,2.38s.97,.75,1.62,.75,1.19-.25,1.62-.75,.66-1.28,.66-2.34-.23-1.78-.68-2.3-.99-.77-1.63-.77-1.16,.25-1.59,.76-.66,1.26-.66,2.26Z"/><path d="M675.69,412.47v-8.3h1.27v1.26c.32-.59,.62-.98,.89-1.16s.57-.28,.9-.28c.47,0,.96,.15,1.45,.45l-.48,1.3c-.34-.2-.69-.3-1.03-.3-.31,0-.58,.09-.83,.28s-.42,.44-.52,.77c-.16,.5-.23,1.05-.23,1.64v4.34h-1.41Z"/><path d="M686.45,409.8l1.45,.18c-.23,.85-.65,1.51-1.27,1.98s-1.41,.7-2.38,.7c-1.21,0-2.18-.37-2.89-1.12s-1.07-1.8-1.07-3.14,.36-2.48,1.08-3.25,1.65-1.16,2.8-1.16,2.02,.38,2.72,1.13,1.05,1.82,1.05,3.19c0,.08,0,.21,0,.38h-6.19c.05,.91,.31,1.61,.77,2.09s1.04,.73,1.73,.73c.52,0,.96-.14,1.32-.41s.65-.7,.87-1.3Zm-4.62-2.27h4.63c-.06-.7-.24-1.22-.53-1.57-.45-.54-1.03-.81-1.74-.81-.65,0-1.19,.22-1.63,.65s-.68,1.01-.73,1.73Z"/><path d="M694.83,411.45c-.52,.44-1.02,.75-1.5,.94-.48,.18-1,.27-1.55,.27-.91,0-1.61-.22-2.1-.67-.49-.45-.73-1.01-.73-1.71,0-.41,.09-.78,.28-1.11,.18-.34,.43-.61,.73-.81,.3-.2,.64-.36,1.01-.46,.28-.07,.69-.14,1.25-.21,1.13-.14,1.97-.3,2.51-.48,0-.19,0-.32,0-.37,0-.57-.13-.98-.4-1.21-.36-.32-.89-.48-1.6-.48-.66,0-1.15,.12-1.46,.35-.32,.23-.55,.64-.7,1.23l-1.38-.19c.12-.59,.33-1.06,.62-1.43,.29-.36,.7-.64,1.24-.84,.54-.2,1.17-.29,1.88-.29s1.28,.08,1.73,.25c.44,.17,.77,.38,.98,.63,.21,.25,.35,.57,.44,.96,.05,.24,.07,.67,.07,1.3v1.88c0,1.31,.03,2.13,.09,2.48,.06,.35,.18,.68,.36,1h-1.47c-.15-.29-.24-.63-.28-1.02Zm-.12-3.14c-.51,.21-1.28,.39-2.3,.53-.58,.08-.99,.18-1.23,.28-.24,.1-.42,.26-.55,.46-.13,.2-.2,.42-.2,.67,0,.38,.14,.69,.43,.94,.28,.25,.7,.38,1.25,.38s1.02-.12,1.45-.36,.73-.56,.93-.97c.15-.32,.23-.79,.23-1.41v-.52Z"/><path d="M698.03,412.47v-11.45h1.41v11.45h-1.41Z"/><path d="M710.96,409.43l1.38,.18c-.15,.95-.54,1.7-1.16,2.24s-1.39,.81-2.29,.81c-1.14,0-2.05-.37-2.74-1.11s-1.04-1.81-1.04-3.19c0-.9,.15-1.68,.45-2.35s.75-1.18,1.36-1.51,1.27-.5,1.98-.5c.9,0,1.64,.23,2.21,.68s.94,1.1,1.1,1.94l-1.37,.21c-.13-.56-.36-.98-.69-1.26s-.73-.42-1.2-.42c-.71,0-1.28,.25-1.73,.76s-.66,1.31-.66,2.41,.21,1.92,.64,2.43,.98,.76,1.67,.76c.55,0,1.01-.17,1.38-.51s.6-.86,.7-1.56Z"/><path d="M713.29,412.47v-11.45h1.41v4.11c.66-.76,1.48-1.14,2.48-1.14,.61,0,1.15,.12,1.6,.36s.78,.58,.97,1,.29,1.05,.29,1.86v5.26h-1.41v-5.26c0-.7-.15-1.21-.46-1.54s-.74-.48-1.29-.48c-.42,0-.81,.11-1.18,.32s-.63,.51-.79,.88-.23,.88-.23,1.53v4.54h-1.41Z"/><path d="M721.41,408.33c0-1.54,.43-2.67,1.28-3.41,.71-.61,1.58-.92,2.61-.92,1.14,0,2.07,.37,2.8,1.12s1.09,1.78,1.09,3.1c0,1.07-.16,1.91-.48,2.52s-.79,1.09-1.4,1.43-1.28,.51-2,.51c-1.16,0-2.1-.37-2.82-1.12s-1.07-1.82-1.07-3.22Zm1.45,0c0,1.06,.23,1.86,.7,2.39s1.05,.79,1.75,.79,1.28-.27,1.74-.8,.7-1.34,.7-2.43c0-1.03-.23-1.8-.7-2.33s-1.05-.79-1.74-.79-1.29,.26-1.75,.79-.7,1.32-.7,2.38Z"/><path d="M730.58,402.64v-1.62h1.41v1.62h-1.41Zm0,9.84v-8.3h1.41v8.3h-1.41Z"/><path d="M739.29,409.43l1.38,.18c-.15,.95-.54,1.7-1.16,2.24-.62,.54-1.39,.81-2.29,.81-1.14,0-2.05-.37-2.74-1.11-.69-.74-1.04-1.81-1.04-3.19,0-.9,.15-1.68,.45-2.35s.75-1.18,1.36-1.51c.61-.34,1.27-.5,1.98-.5,.9,0,1.64,.23,2.21,.68,.57,.46,.94,1.1,1.1,1.94l-1.37,.21c-.13-.56-.36-.98-.69-1.26-.33-.28-.73-.42-1.2-.42-.71,0-1.28,.25-1.73,.76-.44,.51-.66,1.31-.66,2.41s.21,1.92,.64,2.43c.43,.5,.98,.76,1.67,.76,.55,0,1.01-.17,1.38-.51,.37-.34,.6-.86,.7-1.56Z"/><path d="M747.3,409.8l1.45,.18c-.23,.85-.65,1.51-1.27,1.98-.62,.47-1.41,.7-2.38,.7-1.21,0-2.18-.37-2.89-1.12s-1.07-1.8-1.07-3.14,.36-2.48,1.08-3.25,1.65-1.16,2.8-1.16,2.02,.38,2.72,1.13,1.05,1.82,1.05,3.19c0,.08,0,.21,0,.38h-6.19c.05,.91,.31,1.61,.77,2.09,.46,.48,1.04,.73,1.73,.73,.52,0,.96-.14,1.32-.41,.36-.27,.65-.7,.87-1.3Zm-4.62-2.27h4.63c-.06-.7-.24-1.22-.53-1.57-.45-.54-1.03-.81-1.74-.81-.65,0-1.19,.22-1.63,.65-.44,.43-.68,1.01-.73,1.73Z"/><path d="M750.63,412.47v-1.6h1.6v1.6c0,.59-.1,1.06-.31,1.43-.21,.36-.54,.64-.99,.84l-.39-.6c.3-.13,.52-.32,.66-.57s.22-.62,.23-1.09h-.8Z"/><path d="M586.98,431.67v-8.3h1.27v1.26c.32-.59,.62-.98,.89-1.16s.57-.28,.9-.28c.47,0,.96,.15,1.45,.45l-.48,1.3c-.34-.2-.69-.3-1.03-.3-.31,0-.58,.09-.83,.28s-.42,.44-.52,.77c-.16,.5-.23,1.05-.23,1.64v4.34h-1.41Z"/><path d="M591.55,427.53c0-1.54,.43-2.67,1.28-3.41,.71-.61,1.58-.92,2.61-.92,1.14,0,2.07,.37,2.8,1.12s1.09,1.78,1.09,3.1c0,1.07-.16,1.91-.48,2.52s-.79,1.09-1.4,1.43-1.28,.51-2,.51c-1.16,0-2.1-.37-2.82-1.12s-1.07-1.82-1.07-3.22Zm1.45,0c0,1.06,.23,1.86,.7,2.39s1.05,.79,1.75,.79,1.28-.27,1.74-.8,.7-1.34,.7-2.43c0-1.03-.23-1.8-.7-2.33s-1.05-.79-1.74-.79-1.29,.26-1.75,.79-.7,1.32-.7,2.38Z"/><path d="M600.19,427.53c0-1.54,.43-2.67,1.28-3.41,.71-.61,1.58-.92,2.61-.92,1.14,0,2.07,.37,2.8,1.12,.72,.75,1.09,1.78,1.09,3.1,0,1.07-.16,1.91-.48,2.52s-.79,1.09-1.4,1.43c-.61,.34-1.28,.51-2,.51-1.16,0-2.1-.37-2.82-1.12-.72-.75-1.07-1.82-1.07-3.22Zm1.45,0c0,1.06,.23,1.86,.7,2.39,.46,.53,1.05,.79,1.75,.79s1.28-.27,1.74-.8c.46-.53,.7-1.34,.7-2.43,0-1.03-.23-1.8-.7-2.33-.47-.53-1.05-.79-1.74-.79s-1.29,.26-1.75,.79c-.46,.53-.7,1.32-.7,2.38Z"/><path d="M609.36,431.67v-8.3h1.26v1.16c.26-.41,.61-.73,1.04-.98,.43-.25,.92-.37,1.48-.37,.61,0,1.12,.13,1.51,.38,.39,.25,.67,.61,.83,1.07,.66-.97,1.51-1.45,2.56-1.45,.82,0,1.46,.23,1.9,.68,.44,.46,.66,1.16,.66,2.11v5.7h-1.4v-5.23c0-.56-.05-.97-.14-1.21-.09-.25-.26-.45-.5-.6-.24-.15-.52-.23-.84-.23-.58,0-1.07,.19-1.45,.58-.39,.39-.58,1.01-.58,1.86v4.82h-1.41v-5.39c0-.62-.12-1.09-.34-1.41-.23-.31-.6-.47-1.12-.47-.4,0-.76,.1-1.1,.31s-.58,.51-.73,.91c-.15,.4-.23,.98-.23,1.73v4.3h-1.41Z"/><path d="M626.95,431.67v-7.2h-1.24v-1.09h1.24v-.88c0-.56,.05-.97,.15-1.24,.13-.36,.37-.66,.71-.89,.34-.23,.82-.34,1.43-.34,.4,0,.83,.05,1.31,.14l-.21,1.23c-.29-.05-.57-.08-.83-.08-.43,0-.73,.09-.91,.27-.18,.18-.27,.52-.27,1.02v.77h1.62v1.09h-1.62v7.2h-1.4Z"/><path d="M630.28,427.53c0-1.54,.43-2.67,1.28-3.41,.71-.61,1.58-.92,2.61-.92,1.14,0,2.07,.37,2.8,1.12s1.09,1.78,1.09,3.1c0,1.07-.16,1.91-.48,2.52s-.79,1.09-1.4,1.43-1.28,.51-2,.51c-1.16,0-2.1-.37-2.82-1.12s-1.07-1.82-1.07-3.22Zm1.45,0c0,1.06,.23,1.86,.7,2.39s1.05,.79,1.75,.79,1.28-.27,1.74-.8,.7-1.34,.7-2.43c0-1.03-.23-1.8-.7-2.33s-1.05-.79-1.74-.79-1.29,.26-1.75,.79-.7,1.32-.7,2.38Z"/><path d="M639.43,431.67v-8.3h1.27v1.26c.32-.59,.62-.98,.89-1.16s.57-.28,.9-.28c.47,0,.96,.15,1.45,.45l-.48,1.3c-.34-.2-.69-.3-1.03-.3-.31,0-.58,.09-.83,.28s-.42,.44-.52,.77c-.16,.5-.23,1.05-.23,1.64v4.34h-1.41Z"/><path d="M654.12,428.63l1.38,.18c-.15,.95-.54,1.7-1.16,2.24-.62,.54-1.39,.81-2.29,.81-1.14,0-2.05-.37-2.74-1.11-.69-.74-1.04-1.81-1.04-3.19,0-.9,.15-1.68,.45-2.35s.75-1.18,1.36-1.51c.61-.34,1.27-.5,1.98-.5,.9,0,1.64,.23,2.21,.68,.57,.46,.94,1.1,1.1,1.94l-1.37,.21c-.13-.56-.36-.98-.69-1.26-.33-.28-.73-.42-1.2-.42-.71,0-1.28,.25-1.73,.76-.44,.51-.66,1.31-.66,2.41s.21,1.92,.64,2.43c.43,.5,.98,.76,1.67,.76,.55,0,1.01-.17,1.38-.51,.37-.34,.6-.86,.7-1.56Z"/><path d="M656.44,431.67v-8.3h1.27v1.26c.32-.59,.62-.98,.89-1.16s.57-.28,.9-.28c.47,0,.96,.15,1.45,.45l-.48,1.3c-.34-.2-.69-.3-1.03-.3-.31,0-.58,.09-.83,.28-.25,.18-.42,.44-.52,.77-.16,.5-.23,1.05-.23,1.64v4.34h-1.41Z"/><path d="M667.21,429l1.45,.18c-.23,.85-.65,1.51-1.27,1.98-.62,.47-1.41,.7-2.38,.7-1.21,0-2.18-.37-2.89-1.12s-1.07-1.8-1.07-3.14,.36-2.48,1.08-3.25,1.65-1.16,2.8-1.16,2.02,.38,2.72,1.13,1.05,1.82,1.05,3.19c0,.08,0,.21,0,.38h-6.19c.05,.91,.31,1.61,.77,2.09,.46,.48,1.04,.73,1.73,.73,.52,0,.96-.14,1.32-.41,.36-.27,.65-.7,.87-1.3Zm-4.62-2.27h4.63c-.06-.7-.24-1.22-.53-1.57-.45-.54-1.03-.81-1.74-.81-.65,0-1.19,.22-1.63,.65-.44,.43-.68,1.01-.73,1.73Z"/><path d="M675.58,430.65c-.52,.44-1.02,.75-1.5,.94-.48,.18-1,.27-1.55,.27-.91,0-1.61-.22-2.1-.67-.49-.45-.73-1.01-.73-1.71,0-.41,.09-.78,.28-1.11,.18-.34,.43-.61,.73-.81,.3-.2,.64-.36,1.01-.46,.28-.07,.69-.14,1.25-.21,1.13-.14,1.97-.3,2.51-.48,0-.19,0-.32,0-.37,0-.57-.13-.98-.4-1.21-.36-.32-.89-.48-1.6-.48-.66,0-1.15,.12-1.46,.35-.32,.23-.55,.64-.7,1.23l-1.38-.19c.12-.59,.33-1.06,.62-1.43,.29-.36,.7-.64,1.24-.84,.54-.2,1.17-.29,1.88-.29s1.28,.08,1.73,.25c.44,.17,.77,.38,.98,.63,.21,.25,.35,.57,.44,.96,.05,.24,.07,.67,.07,1.3v1.88c0,1.31,.03,2.13,.09,2.48,.06,.35,.18,.68,.36,1h-1.47c-.15-.29-.24-.63-.28-1.02Zm-.12-3.14c-.51,.21-1.28,.39-2.3,.53-.58,.08-.99,.18-1.23,.28-.24,.1-.42,.26-.55,.46-.13,.2-.2,.42-.2,.67,0,.38,.14,.69,.43,.94,.28,.25,.7,.38,1.25,.38s1.02-.12,1.45-.36,.73-.56,.93-.97c.15-.32,.23-.79,.23-1.41v-.52Z"/><path d="M681.88,430.42l.2,1.24c-.4,.08-.75,.12-1.06,.12-.51,0-.91-.08-1.19-.24s-.48-.37-.59-.64-.17-.82-.17-1.66v-4.77h-1.03v-1.09h1.03v-2.05l1.4-.84v2.9h1.41v1.09h-1.41v4.85c0,.4,.02,.66,.07,.77s.13,.21,.24,.27,.27,.1,.48,.1c.16,0,.36-.02,.62-.05Z"/><path d="M683.01,421.84v-1.62h1.41v1.62h-1.41Zm0,9.84v-8.3h1.41v8.3h-1.41Z"/><path d="M688.6,431.67l-3.16-8.3h1.48l1.78,4.97c.19,.54,.37,1.09,.53,1.67,.12-.44,.3-.96,.52-1.58l1.84-5.06h1.45l-3.14,8.3h-1.31Z"/><path d="M699.72,429l1.45,.18c-.23,.85-.65,1.51-1.27,1.98-.62,.47-1.41,.7-2.38,.7-1.21,0-2.18-.37-2.89-1.12s-1.07-1.8-1.07-3.14,.36-2.48,1.08-3.25,1.65-1.16,2.8-1.16,2.02,.38,2.72,1.13,1.05,1.82,1.05,3.19c0,.08,0,.21,0,.38h-6.19c.05,.91,.31,1.61,.77,2.09,.46,.48,1.04,.73,1.73,.73,.52,0,.96-.14,1.32-.41,.36-.27,.65-.7,.87-1.3Zm-4.62-2.27h4.63c-.06-.7-.24-1.22-.53-1.57-.45-.54-1.03-.81-1.74-.81-.65,0-1.19,.22-1.63,.65-.44,.43-.68,1.01-.73,1.73Z"/><path d="M706.31,429.2l1.39-.22c.08,.56,.29,.98,.65,1.28,.36,.3,.86,.45,1.5,.45s1.12-.13,1.44-.39,.47-.57,.47-.93c0-.32-.14-.57-.41-.75-.19-.12-.67-.28-1.44-.48-1.03-.26-1.75-.49-2.14-.68s-.7-.45-.91-.79c-.21-.34-.31-.71-.31-1.11,0-.37,.08-.71,.25-1.03,.17-.32,.4-.58,.69-.79,.22-.16,.52-.3,.89-.41,.38-.11,.78-.17,1.21-.17,.65,0,1.22,.09,1.71,.28s.86,.44,1.09,.76,.4,.75,.48,1.29l-1.38,.19c-.06-.43-.24-.76-.54-1-.3-.24-.72-.36-1.27-.36-.65,0-1.11,.11-1.38,.32-.28,.21-.41,.46-.41,.75,0,.18,.06,.35,.17,.49,.11,.15,.29,.28,.54,.38,.14,.05,.55,.17,1.24,.36,.99,.27,1.69,.48,2.08,.65,.39,.17,.7,.42,.93,.74,.22,.32,.34,.72,.34,1.2s-.14,.91-.41,1.32-.67,.73-1.18,.96-1.1,.34-1.75,.34c-1.08,0-1.9-.22-2.46-.67-.57-.45-.93-1.11-1.08-1.99Z"/><path d="M714.1,427.53c0-1.54,.43-2.67,1.28-3.41,.71-.61,1.58-.92,2.61-.92,1.14,0,2.07,.37,2.8,1.12,.72,.75,1.09,1.78,1.09,3.1,0,1.07-.16,1.91-.48,2.52s-.79,1.09-1.4,1.43c-.61,.34-1.28,.51-2,.51-1.16,0-2.1-.37-2.82-1.12-.72-.75-1.07-1.82-1.07-3.22Zm1.45,0c0,1.06,.23,1.86,.7,2.39,.46,.53,1.05,.79,1.75,.79s1.28-.27,1.74-.8c.46-.53,.7-1.34,.7-2.43,0-1.03-.23-1.8-.7-2.33-.47-.53-1.05-.79-1.74-.79s-1.29,.26-1.75,.79c-.46,.53-.7,1.32-.7,2.38Z"/><path d="M723.23,431.67v-11.45h1.41v11.45h-1.41Z"/><path d="M732,431.67v-1.22c-.65,.94-1.52,1.41-2.63,1.41-.49,0-.95-.09-1.37-.28s-.74-.42-.95-.71-.35-.63-.43-1.04c-.06-.28-.09-.71-.09-1.31v-5.14h1.41v4.6c0,.73,.03,1.23,.09,1.48,.09,.37,.28,.66,.56,.87s.64,.32,1.06,.32,.82-.11,1.19-.32,.63-.51,.79-.88,.23-.91,.23-1.62v-4.45h1.41v8.3h-1.26Z"/><path d="M738.27,430.42l.2,1.24c-.4,.08-.75,.12-1.06,.12-.51,0-.91-.08-1.19-.24s-.48-.37-.59-.64-.17-.82-.17-1.66v-4.77h-1.03v-1.09h1.03v-2.05l1.4-.84v2.9h1.41v1.09h-1.41v4.85c0,.4,.02,.66,.07,.77s.13,.21,.24,.27,.27,.1,.48,.1c.16,0,.36-.02,.62-.05Z"/><path d="M739.4,421.84v-1.62h1.41v1.62h-1.41Zm0,9.84v-8.3h1.41v8.3h-1.41Z"/><path d="M742.17,427.53c0-1.54,.43-2.67,1.28-3.41,.71-.61,1.58-.92,2.61-.92,1.14,0,2.07,.37,2.8,1.12,.72,.75,1.09,1.78,1.09,3.1,0,1.07-.16,1.91-.48,2.52s-.79,1.09-1.4,1.43c-.61,.34-1.28,.51-2,.51-1.16,0-2.1-.37-2.82-1.12-.72-.75-1.07-1.82-1.07-3.22Zm1.45,0c0,1.06,.23,1.86,.7,2.39,.46,.53,1.05,.79,1.75,.79s1.28-.27,1.74-.8c.46-.53,.7-1.34,.7-2.43,0-1.03-.23-1.8-.7-2.33-.47-.53-1.05-.79-1.74-.79s-1.29,.26-1.75,.79c-.46,.53-.7,1.32-.7,2.38Z"/><path d="M751.33,431.67v-8.3h1.27v1.18c.61-.91,1.49-1.37,2.64-1.37,.5,0,.96,.09,1.38,.27,.42,.18,.73,.42,.94,.71,.21,.29,.35,.64,.44,1.04,.05,.26,.08,.72,.08,1.37v5.1h-1.41v-5.05c0-.57-.05-1-.16-1.29s-.3-.51-.58-.68c-.28-.17-.61-.25-.98-.25-.6,0-1.12,.19-1.55,.57-.44,.38-.65,1.1-.65,2.16v4.53h-1.41Z"/><path d="M759.41,429.2l1.39-.22c.08,.56,.29,.98,.65,1.28,.36,.3,.86,.45,1.5,.45s1.12-.13,1.44-.39,.47-.57,.47-.93c0-.32-.14-.57-.41-.75-.19-.12-.67-.28-1.44-.48-1.03-.26-1.75-.49-2.14-.68s-.7-.45-.91-.79c-.21-.34-.31-.71-.31-1.11,0-.37,.08-.71,.25-1.03,.17-.32,.4-.58,.69-.79,.22-.16,.52-.3,.89-.41,.38-.11,.78-.17,1.21-.17,.65,0,1.22,.09,1.71,.28s.86,.44,1.09,.76,.4,.75,.48,1.29l-1.38,.19c-.06-.43-.24-.76-.54-1-.3-.24-.72-.36-1.27-.36-.65,0-1.11,.11-1.38,.32-.28,.21-.41,.46-.41,.75,0,.18,.06,.35,.17,.49,.11,.15,.29,.28,.54,.38,.14,.05,.55,.17,1.24,.36,.99,.27,1.69,.48,2.08,.65,.39,.17,.7,.42,.93,.74,.22,.32,.34,.72,.34,1.2s-.14,.91-.41,1.32-.67,.73-1.18,.96-1.1,.34-1.75,.34c-1.08,0-1.9-.22-2.46-.67-.57-.45-.93-1.11-1.08-1.99Z"/><path d="M644.43,454.24c-.78-.98-1.43-2.12-1.97-3.44-.54-1.31-.8-2.67-.8-4.08,0-1.24,.2-2.43,.6-3.56,.47-1.32,1.19-2.63,2.17-3.94h1.01c-.63,1.08-1.05,1.86-1.25,2.32-.32,.72-.57,1.47-.75,2.25-.22,.97-.34,1.95-.34,2.94,0,2.5,.78,5.01,2.34,7.51h-1.01Z"/><path d="M646.53,445.3c0-1.9,.51-3.39,1.53-4.46,1.02-1.08,2.34-1.61,3.95-1.61,1.06,0,2.01,.25,2.86,.76,.85,.5,1.5,1.21,1.94,2.11s.67,1.93,.67,3.07-.23,2.2-.7,3.12-1.13,1.61-1.99,2.08-1.79,.71-2.78,.71c-1.08,0-2.04-.26-2.89-.78-.85-.52-1.49-1.23-1.93-2.13s-.66-1.85-.66-2.86Zm1.56,.02c0,1.38,.37,2.47,1.11,3.26s1.67,1.19,2.79,1.19,2.08-.4,2.82-1.2c.74-.8,1.11-1.94,1.11-3.41,0-.93-.16-1.75-.47-2.44-.32-.7-.78-1.23-1.38-1.62-.61-.38-1.29-.57-2.04-.57-1.07,0-2,.37-2.77,1.11s-1.16,1.97-1.16,3.69Z"/><path d="M659,454.05v-11.48h1.28v1.08c.3-.42,.64-.74,1.02-.95s.84-.32,1.38-.32c.71,0,1.33,.18,1.88,.55s.95,.88,1.23,1.54,.41,1.39,.41,2.18c0,.85-.15,1.61-.46,2.29s-.75,1.2-1.33,1.56-1.19,.54-1.83,.54c-.47,0-.89-.1-1.26-.3s-.68-.45-.92-.75v4.04h-1.41Zm1.27-7.28c0,1.07,.22,1.86,.65,2.37s.96,.77,1.57,.77,1.16-.26,1.61-.79,.67-1.35,.67-2.46-.22-1.85-.65-2.38-.95-.79-1.56-.79-1.13,.28-1.59,.84-.69,1.37-.69,2.44Z"/><path d="M670.71,449.62l.2,1.24c-.4,.08-.75,.12-1.06,.12-.51,0-.91-.08-1.19-.24s-.48-.37-.59-.64-.17-.82-.17-1.66v-4.77h-1.03v-1.09h1.03v-2.05l1.4-.84v2.9h1.41v1.09h-1.41v4.85c0,.4,.02,.66,.07,.77s.13,.21,.24,.27,.27,.1,.48,.1c.16,0,.36-.02,.62-.05Z"/><path d="M671.84,441.04v-1.62h1.41v1.62h-1.41Zm0,9.84v-8.3h1.41v8.3h-1.41Z"/><path d="M674.61,446.73c0-1.54,.43-2.67,1.28-3.41,.71-.61,1.58-.92,2.61-.92,1.14,0,2.07,.37,2.8,1.12s1.09,1.78,1.09,3.1c0,1.07-.16,1.91-.48,2.52s-.79,1.09-1.4,1.43-1.28,.51-2,.51c-1.16,0-2.1-.37-2.82-1.12s-1.07-1.82-1.07-3.22Zm1.45,0c0,1.06,.23,1.86,.7,2.39s1.05,.79,1.75,.79,1.28-.27,1.74-.8,.7-1.34,.7-2.43c0-1.03-.23-1.8-.7-2.33s-1.05-.79-1.74-.79-1.29,.26-1.75,.79-.7,1.32-.7,2.38Z"/><path d="M683.78,450.87v-8.3h1.27v1.18c.61-.91,1.49-1.37,2.64-1.37,.5,0,.96,.09,1.38,.27,.42,.18,.73,.42,.94,.71,.21,.29,.35,.64,.44,1.04,.05,.26,.08,.72,.08,1.37v5.1h-1.41v-5.05c0-.57-.05-1-.16-1.29s-.3-.51-.58-.68c-.28-.17-.61-.25-.98-.25-.6,0-1.12,.19-1.55,.57-.44,.38-.65,1.1-.65,2.16v4.53h-1.41Z"/><path d="M704.96,446.86l1.52,.38c-.32,1.25-.89,2.19-1.71,2.85-.83,.65-1.83,.98-3.03,.98s-2.24-.25-3.01-.75-1.36-1.23-1.77-2.18c-.4-.95-.61-1.98-.61-3.07,0-1.19,.23-2.23,.68-3.12,.46-.89,1.1-1.56,1.95-2.02,.84-.46,1.77-.69,2.78-.69,1.15,0,2.11,.29,2.89,.88s1.33,1.4,1.63,2.46l-1.49,.35c-.27-.83-.65-1.44-1.16-1.82-.51-.38-1.14-.57-1.91-.57-.88,0-1.62,.21-2.21,.63-.59,.42-1.01,.99-1.25,1.7-.24,.71-.36,1.44-.36,2.2,0,.97,.14,1.82,.43,2.55,.28,.73,.72,1.27,1.32,1.63,.6,.36,1.25,.54,1.95,.54,.85,0,1.57-.25,2.16-.73,.59-.49,.99-1.22,1.2-2.18Z"/><path d="M708.83,454.24h-1.01c1.56-2.5,2.34-5,2.34-7.51,0-.98-.11-1.95-.34-2.91-.18-.78-.42-1.53-.74-2.25-.2-.47-.62-1.25-1.26-2.34h1.01c.98,1.31,1.7,2.62,2.17,3.94,.4,1.14,.6,2.32,.6,3.56,0,1.41-.27,2.77-.81,4.08s-1.19,2.46-1.96,3.44Z"/></g><line x1="676.43" y1="306.95" x2="676.43" y2="372" style="stroke:#0333ff; stroke-miterlimit:10;"/></svg>