<?xml version="1.0" encoding="UTF-8"?><svg id="a" xmlns="http://www.w3.org/2000/svg" viewBox="0 0 988 525"><g><path d="M360.67,207.54h-3.14l-1.25-3.25h-5.72l-1.18,3.25h-3.07l5.58-14.32h3.06l5.73,14.32Zm-5.32-5.66l-1.97-5.31-1.93,5.31h3.91Z" style="fill:#0333ff;"/><path d="M362.19,207.54v-14.32h2.74v14.32h-2.74Z" style="fill:#0333ff;"/><path d="M367.74,195.76v-2.54h2.74v2.54h-2.74Zm0,11.78v-10.37h2.74v10.37h-2.74Z" style="fill:#0333ff;"/><path d="M373.05,208.22l3.13,.38c.05,.36,.17,.62,.36,.75,.26,.2,.67,.29,1.23,.29,.72,0,1.25-.11,1.61-.32,.24-.14,.42-.37,.55-.69,.08-.23,.13-.65,.13-1.26v-1.51c-.82,1.12-1.86,1.68-3.11,1.68-1.39,0-2.5-.59-3.31-1.77-.64-.93-.96-2.09-.96-3.48,0-1.74,.42-3.07,1.25-3.98s1.88-1.38,3.12-1.38,2.34,.56,3.17,1.69v-1.46h2.57v9.31c0,1.22-.1,2.14-.3,2.74s-.49,1.08-.85,1.43-.85,.62-1.46,.81-1.38,.29-2.31,.29c-1.76,0-3-.3-3.74-.9s-1.1-1.37-1.1-2.29c0-.09,0-.2,0-.33Zm2.45-6.08c0,1.1,.21,1.91,.64,2.42s.95,.77,1.58,.77c.67,0,1.24-.26,1.7-.79s.69-1.3,.69-2.33-.22-1.87-.66-2.39-1-.78-1.68-.78-1.2,.26-1.63,.77-.64,1.29-.64,2.34Z" style="fill:#0333ff;"/><path d="M394.95,207.54h-2.74v-5.29c0-1.12-.06-1.84-.18-2.17s-.31-.58-.57-.77-.58-.27-.95-.27c-.48,0-.9,.13-1.28,.39s-.64,.61-.78,1.04-.21,1.22-.21,2.38v4.7h-2.74v-10.37h2.55v1.52c.91-1.17,2.04-1.76,3.42-1.76,.61,0,1.16,.11,1.66,.33s.88,.5,1.14,.83,.44,.72,.54,1.15,.15,1.04,.15,1.85v6.45Z" style="fill:#0333ff;"/></g><g><path d="M697.75,352.31v-14.32h10.62v2.42h-7.72v3.17h7.19v2.41h-7.19v3.9h8v2.41h-10.89Z" style="fill:#0333ff;"/><path d="M720.51,352.31h-2.74v-5.29c0-1.12-.06-1.84-.18-2.17s-.31-.58-.57-.77-.58-.27-.95-.27c-.48,0-.9,.13-1.28,.39s-.64,.61-.78,1.04-.21,1.22-.21,2.38v4.7h-2.74v-10.37h2.55v1.52c.91-1.17,2.04-1.76,3.42-1.76,.61,0,1.16,.11,1.66,.33s.88,.5,1.14,.83,.44,.72,.54,1.15,.15,1.04,.15,1.85v6.45Z" style="fill:#0333ff;"/><path d="M725.34,345.11l-2.49-.45c.28-1,.76-1.74,1.45-2.23s1.7-.72,3.05-.72c1.22,0,2.14,.15,2.73,.43s1.02,.66,1.26,1.1,.37,1.26,.37,2.46l-.03,3.2c0,.91,.04,1.58,.13,2.02s.25,.9,.49,1.39h-2.71c-.07-.18-.16-.45-.26-.81-.05-.16-.08-.27-.1-.32-.47,.46-.97,.8-1.5,1.03s-1.1,.34-1.71,.34c-1.07,0-1.91-.29-2.52-.87s-.92-1.31-.92-2.2c0-.59,.14-1.11,.42-1.57s.67-.81,1.18-1.05,1.23-.46,2.18-.64c1.28-.24,2.17-.47,2.67-.67v-.27c0-.53-.13-.9-.39-1.13s-.75-.34-1.47-.34c-.49,0-.87,.1-1.14,.29s-.5,.53-.66,1.01Zm3.67,2.23c-.35,.12-.91,.26-1.67,.42s-1.26,.32-1.49,.48c-.36,.25-.54,.58-.54,.97s.14,.72,.43,1,.65,.42,1.09,.42c.5,0,.97-.16,1.42-.49,.33-.25,.55-.55,.65-.91,.07-.23,.11-.68,.11-1.34v-.55Z" style="fill:#0333ff;"/><path d="M734.3,352.31v-14.32h2.74v5.16c.85-.96,1.85-1.45,3.01-1.45,1.26,0,2.31,.46,3.13,1.37s1.24,2.23,1.24,3.94-.42,3.13-1.26,4.09-1.87,1.44-3.07,1.44c-.59,0-1.18-.15-1.75-.44s-1.07-.73-1.49-1.31v1.52h-2.55Zm2.72-5.41c0,1.07,.17,1.87,.51,2.38,.48,.73,1.11,1.09,1.89,1.09,.61,0,1.12-.26,1.55-.78s.64-1.33,.64-2.45c0-1.19-.21-2.04-.64-2.56s-.98-.79-1.65-.79-1.2,.26-1.64,.77-.65,1.29-.65,2.33Z" style="fill:#0333ff;"/><path d="M746.63,352.31v-14.32h2.74v14.32h-2.74Z" style="fill:#0333ff;"/><path d="M758.19,349.01l2.73,.46c-.35,1-.91,1.77-1.67,2.29s-1.71,.79-2.85,.79c-1.8,0-3.14-.59-4-1.77-.68-.94-1.03-2.14-1.03-3.57,0-1.72,.45-3.06,1.35-4.04s2.03-1.46,3.41-1.46c1.54,0,2.76,.51,3.65,1.53s1.32,2.58,1.28,4.68h-6.88c.02,.81,.24,1.45,.66,1.9s.95,.68,1.58,.68c.43,0,.79-.12,1.08-.35s.51-.61,.66-1.13Zm.16-2.77c-.02-.79-.22-1.4-.62-1.81s-.87-.62-1.43-.62c-.6,0-1.09,.22-1.48,.65s-.58,1.03-.58,1.78h4.1Z" style="fill:#0333ff;"/></g><g><g><rect x="396.3" y="97.63" width="300" height="60" rx="1" ry="1" style="fill:none; stroke:#1d1d1b;"/><g><path d="M464.37,129.53v-2.41h6.23v5.7c-.61,.59-1.48,1.1-2.63,1.55s-2.31,.67-3.49,.67c-1.5,0-2.8-.31-3.92-.94s-1.95-1.53-2.51-2.7-.84-2.44-.84-3.81c0-1.49,.31-2.82,.94-3.97s1.54-2.05,2.74-2.67c.92-.48,2.06-.71,3.43-.71,1.78,0,3.17,.37,4.17,1.12s1.64,1.78,1.93,3.09l-2.87,.54c-.2-.7-.58-1.26-1.14-1.67s-1.25-.61-2.08-.61c-1.26,0-2.27,.4-3.01,1.2s-1.12,1.99-1.12,3.56c0,1.7,.38,2.97,1.13,3.82s1.75,1.27,2.97,1.27c.61,0,1.21-.12,1.82-.36s1.13-.53,1.57-.86v-1.82h-3.31Z" style="fill:#1d1d1b;"/><path d="M479.26,131.49l2.73,.46c-.35,1-.91,1.77-1.67,2.29s-1.71,.79-2.85,.79c-1.8,0-3.14-.59-4-1.77-.68-.94-1.03-2.14-1.03-3.57,0-1.72,.45-3.06,1.35-4.04s2.03-1.46,3.41-1.46c1.54,0,2.76,.51,3.65,1.53s1.32,2.58,1.28,4.68h-6.88c.02,.81,.24,1.45,.66,1.9s.95,.68,1.58,.68c.43,0,.79-.12,1.08-.35s.51-.61,.66-1.13Zm.16-2.77c-.02-.79-.22-1.4-.62-1.81s-.87-.62-1.43-.62c-.6,0-1.09,.22-1.48,.65s-.58,1.03-.58,1.78h4.1Z" style="fill:#1d1d1b;"/><path d="M483.41,131.83l2.75-.42c.12,.53,.35,.94,.71,1.22s.86,.42,1.5,.42c.71,0,1.24-.13,1.6-.39,.24-.18,.36-.43,.36-.73,0-.21-.07-.38-.2-.52-.14-.13-.44-.25-.92-.36-2.21-.49-3.62-.93-4.21-1.34-.82-.56-1.23-1.34-1.23-2.33,0-.9,.35-1.65,1.06-2.27s1.81-.92,3.3-.92,2.47,.23,3.16,.69,1.17,1.15,1.43,2.05l-2.59,.48c-.11-.4-.32-.71-.63-.93s-.75-.32-1.32-.32c-.72,0-1.24,.1-1.55,.3-.21,.14-.31,.33-.31,.56,0,.2,.09,.36,.27,.5,.25,.18,1.1,.44,2.56,.77s2.48,.74,3.06,1.22c.57,.49,.86,1.17,.86,2.04,0,.95-.4,1.77-1.19,2.45s-1.97,1.03-3.53,1.03c-1.41,0-2.53-.29-3.35-.86s-1.36-1.35-1.62-2.33Z" style="fill:#1d1d1b;"/><path d="M504.54,127.48l-2.71,.49c-.09-.54-.3-.95-.62-1.22s-.74-.41-1.25-.41c-.68,0-1.23,.24-1.64,.71s-.61,1.26-.61,2.37c0,1.23,.21,2.1,.62,2.61s.97,.76,1.67,.76c.52,0,.95-.15,1.28-.44s.57-.81,.7-1.53l2.7,.46c-.28,1.24-.82,2.17-1.61,2.8s-1.86,.95-3.19,.95c-1.52,0-2.73-.48-3.63-1.44s-1.35-2.28-1.35-3.97,.45-3.05,1.36-4,2.13-1.43,3.67-1.43c1.26,0,2.27,.27,3.01,.82s1.28,1.37,1.61,2.49Z" style="fill:#1d1d1b;"/><path d="M509.35,120.47v5.26c.89-1.04,1.94-1.55,3.17-1.55,.63,0,1.2,.12,1.71,.35s.89,.53,1.15,.9,.43,.77,.53,1.21,.14,1.13,.14,2.06v6.08h-2.74v-5.48c0-1.09-.05-1.78-.16-2.07s-.29-.53-.55-.7-.59-.26-.99-.26c-.46,0-.86,.11-1.22,.33s-.62,.56-.79,1-.25,1.1-.25,1.98v5.2h-2.74v-14.32h2.74Z" style="fill:#1d1d1b;"/><path d="M520.89,127.58l-2.49-.45c.28-1,.76-1.74,1.45-2.23s1.7-.72,3.05-.72c1.22,0,2.14,.15,2.73,.43s1.02,.66,1.26,1.1,.37,1.26,.37,2.46l-.03,3.2c0,.91,.04,1.58,.13,2.02s.25,.9,.49,1.39h-2.71c-.07-.18-.16-.45-.26-.81-.05-.16-.08-.27-.1-.32-.47,.46-.97,.8-1.5,1.03s-1.1,.34-1.71,.34c-1.07,0-1.91-.29-2.52-.87s-.92-1.31-.92-2.2c0-.59,.14-1.11,.42-1.57s.67-.81,1.18-1.05,1.23-.46,2.18-.64c1.28-.24,2.17-.47,2.67-.67v-.27c0-.53-.13-.9-.39-1.13s-.75-.34-1.47-.34c-.49,0-.87,.1-1.14,.29s-.5,.53-.66,1.01Zm-1.18-5v-2.35h2.35v2.35h-2.35Zm4.85,7.23c-.35,.12-.91,.26-1.67,.42s-1.26,.32-1.49,.48c-.36,.25-.54,.58-.54,.97s.14,.72,.43,1,.65,.42,1.09,.42c.5,0,.97-.16,1.42-.49,.33-.25,.55-.55,.65-.91,.07-.23,.11-.68,.11-1.34v-.55Zm-.65-7.23v-2.35h2.36v2.35h-2.36Z" style="fill:#1d1d1b;"/><path d="M528.76,124.42h1.52v-.78c0-.87,.09-1.52,.28-1.95s.53-.78,1.03-1.05,1.13-.41,1.89-.41,1.55,.12,2.29,.35l-.37,1.91c-.44-.1-.86-.16-1.26-.16s-.68,.09-.85,.28-.26,.54-.26,1.07v.73h2.05v2.16h-2.05v8.21h-2.74v-8.21h-1.52v-2.16Z" style="fill:#1d1d1b;"/><path d="M541.38,124.42v2.19h-1.88v4.18c0,.85,.02,1.34,.05,1.48s.12,.26,.24,.35,.28,.14,.46,.14c.25,0,.62-.09,1.1-.26l.23,2.13c-.64,.27-1.36,.41-2.17,.41-.5,0-.94-.08-1.34-.25s-.69-.38-.87-.64-.31-.62-.39-1.07c-.06-.32-.09-.96-.09-1.93v-4.52h-1.26v-2.19h1.26v-2.06l2.75-1.6v3.66h1.88Z" style="fill:#1d1d1b;"/><path d="M542.31,131.83l2.75-.42c.12,.53,.35,.94,.71,1.22s.86,.42,1.5,.42c.71,0,1.24-.13,1.6-.39,.24-.18,.36-.43,.36-.73,0-.21-.07-.38-.2-.52-.14-.13-.44-.25-.92-.36-2.21-.49-3.62-.93-4.21-1.34-.82-.56-1.23-1.34-1.23-2.33,0-.9,.35-1.65,1.06-2.27s1.81-.92,3.3-.92,2.47,.23,3.16,.69,1.17,1.15,1.43,2.05l-2.59,.48c-.11-.4-.32-.71-.63-.93s-.75-.32-1.32-.32c-.72,0-1.24,.1-1.55,.3-.21,.14-.31,.33-.31,.56,0,.2,.09,.36,.27,.5,.25,.18,1.1,.44,2.56,.77s2.48,.74,3.06,1.22c.57,.49,.86,1.17,.86,2.04,0,.95-.4,1.77-1.19,2.45s-1.97,1.03-3.53,1.03c-1.41,0-2.53-.29-3.35-.86s-1.36-1.35-1.62-2.33Z" style="fill:#1d1d1b;"/><path d="M553.44,131.83l2.75-.42c.12,.53,.35,.94,.71,1.22s.86,.42,1.5,.42c.71,0,1.24-.13,1.6-.39,.24-.18,.36-.43,.36-.73,0-.21-.07-.38-.2-.52-.14-.13-.44-.25-.92-.36-2.21-.49-3.62-.93-4.21-1.34-.82-.56-1.23-1.34-1.23-2.33,0-.9,.35-1.65,1.06-2.27s1.81-.92,3.3-.92,2.47,.23,3.16,.69,1.17,1.15,1.43,2.05l-2.59,.48c-.11-.4-.32-.71-.63-.93s-.75-.32-1.32-.32c-.72,0-1.24,.1-1.55,.3-.21,.14-.31,.33-.31,.56,0,.2,.09,.36,.27,.5,.25,.18,1.1,.44,2.56,.77s2.48,.74,3.06,1.22c.57,.49,.86,1.17,.86,2.04,0,.95-.4,1.77-1.19,2.45s-1.97,1.03-3.53,1.03c-1.41,0-2.53-.29-3.35-.86s-1.36-1.35-1.62-2.33Z" style="fill:#1d1d1b;"/><path d="M570.28,124.42v2.19h-1.88v4.18c0,.85,.02,1.34,.05,1.48s.12,.26,.24,.35,.28,.14,.46,.14c.25,0,.62-.09,1.1-.26l.23,2.13c-.64,.27-1.36,.41-2.17,.41-.5,0-.94-.08-1.34-.25s-.69-.38-.87-.64-.31-.62-.39-1.07c-.06-.32-.09-.96-.09-1.93v-4.52h-1.26v-2.19h1.26v-2.06l2.75-1.6v3.66h1.88Z" style="fill:#1d1d1b;"/><path d="M574.81,134.79h-2.74v-10.37h2.55v1.47c.44-.7,.83-1.16,1.18-1.38s.74-.33,1.19-.33c.62,0,1.23,.17,1.81,.52l-.85,2.39c-.46-.3-.89-.45-1.29-.45s-.71,.11-.98,.32-.48,.59-.63,1.15-.23,1.71-.23,3.48v3.2Z" style="fill:#1d1d1b;"/><path d="M582.02,127.58l-2.49-.45c.28-1,.76-1.74,1.45-2.23s1.7-.72,3.05-.72c1.22,0,2.14,.15,2.73,.43s1.02,.66,1.26,1.1,.37,1.26,.37,2.46l-.03,3.2c0,.91,.04,1.58,.13,2.02s.25,.9,.49,1.39h-2.71c-.07-.18-.16-.45-.26-.81-.05-.16-.08-.27-.1-.32-.47,.46-.97,.8-1.5,1.03s-1.1,.34-1.71,.34c-1.07,0-1.91-.29-2.52-.87s-.92-1.31-.92-2.2c0-.59,.14-1.11,.42-1.57s.67-.81,1.18-1.05,1.23-.46,2.18-.64c1.28-.24,2.17-.47,2.67-.67v-.27c0-.53-.13-.9-.39-1.13s-.75-.34-1.47-.34c-.49,0-.87,.1-1.14,.29s-.5,.53-.66,1.01Zm3.67,2.23c-.35,.12-.91,.26-1.67,.42s-1.26,.32-1.49,.48c-.36,.25-.54,.58-.54,.97s.14,.72,.43,1,.65,.42,1.09,.42c.5,0,.97-.16,1.42-.49,.33-.25,.55-.55,.65-.91,.07-.23,.11-.68,.11-1.34v-.55Z" style="fill:#1d1d1b;"/><path d="M595.85,124.42v2.19h-1.88v4.18c0,.85,.02,1.34,.05,1.48s.12,.26,.24,.35,.28,.14,.46,.14c.25,0,.62-.09,1.1-.26l.23,2.13c-.64,.27-1.36,.41-2.17,.41-.5,0-.94-.08-1.34-.25s-.69-.38-.87-.64-.31-.62-.39-1.07c-.06-.32-.09-.96-.09-1.93v-4.52h-1.26v-2.19h1.26v-2.06l2.75-1.6v3.66h1.88Z" style="fill:#1d1d1b;"/><path d="M603.76,131.49l2.73,.46c-.35,1-.91,1.77-1.67,2.29s-1.71,.79-2.85,.79c-1.8,0-3.14-.59-4-1.77-.68-.94-1.03-2.14-1.03-3.57,0-1.72,.45-3.06,1.35-4.04s2.03-1.46,3.41-1.46c1.54,0,2.76,.51,3.65,1.53s1.32,2.58,1.28,4.68h-6.88c.02,.81,.24,1.45,.66,1.9s.95,.68,1.58,.68c.43,0,.79-.12,1.08-.35s.51-.61,.66-1.13Zm.16-2.77c-.02-.79-.22-1.4-.62-1.81s-.87-.62-1.43-.62c-.6,0-1.09,.22-1.48,.65s-.58,1.03-.58,1.78h4.1Z" style="fill:#1d1d1b;"/><path d="M608.62,135.47l3.13,.38c.05,.36,.17,.62,.36,.75,.26,.2,.67,.29,1.23,.29,.72,0,1.25-.11,1.61-.32,.24-.14,.42-.37,.55-.69,.08-.23,.13-.65,.13-1.26v-1.51c-.82,1.12-1.86,1.68-3.11,1.68-1.39,0-2.5-.59-3.31-1.77-.64-.93-.96-2.09-.96-3.48,0-1.74,.42-3.07,1.25-3.98s1.88-1.38,3.12-1.38,2.34,.56,3.17,1.69v-1.46h2.57v9.31c0,1.22-.1,2.14-.3,2.74s-.49,1.08-.85,1.43-.85,.62-1.46,.81-1.38,.29-2.31,.29c-1.76,0-3-.3-3.74-.9s-1.1-1.37-1.1-2.29c0-.09,0-.2,0-.33Zm2.45-6.08c0,1.1,.21,1.91,.64,2.42s.95,.77,1.58,.77c.67,0,1.24-.26,1.7-.79s.69-1.3,.69-2.33-.22-1.87-.66-2.39-1-.78-1.68-.78-1.2,.26-1.63,.77-.64,1.29-.64,2.34Z" style="fill:#1d1d1b;"/><path d="M621.09,123.01v-2.54h2.74v2.54h-2.74Zm0,11.78v-10.37h2.74v10.37h-2.74Z" style="fill:#1d1d1b;"/><path d="M632.66,131.49l2.73,.46c-.35,1-.91,1.77-1.67,2.29s-1.71,.79-2.85,.79c-1.8,0-3.14-.59-4-1.77-.68-.94-1.03-2.14-1.03-3.57,0-1.72,.45-3.06,1.35-4.04s2.03-1.46,3.41-1.46c1.54,0,2.76,.51,3.65,1.53s1.32,2.58,1.28,4.68h-6.88c.02,.81,.24,1.45,.66,1.9s.95,.68,1.58,.68c.43,0,.79-.12,1.08-.35s.51-.61,.66-1.13Zm.16-2.77c-.02-.79-.22-1.4-.62-1.81s-.87-.62-1.43-.62c-.6,0-1.09,.22-1.48,.65s-.58,1.03-.58,1.78h4.1Z" style="fill:#1d1d1b;"/></g></g><g><rect x="396.3" y="242.5" width="300" height="60" rx="1" ry="1" style="fill:none; stroke:#000; stroke-miterlimit:10;"/><g><path d="M462.7,274.4v-2.41h6.23v5.7c-.61,.59-1.48,1.1-2.63,1.55s-2.31,.67-3.49,.67c-1.5,0-2.8-.31-3.92-.94s-1.95-1.53-2.51-2.7-.84-2.44-.84-3.81c0-1.49,.31-2.82,.94-3.97s1.54-2.05,2.74-2.67c.92-.48,2.06-.71,3.43-.71,1.78,0,3.17,.37,4.17,1.12s1.64,1.78,1.93,3.09l-2.87,.54c-.2-.7-.58-1.26-1.14-1.67s-1.25-.61-2.08-.61c-1.26,0-2.27,.4-3.01,1.2s-1.12,1.99-1.12,3.56c0,1.7,.38,2.97,1.13,3.82s1.75,1.27,2.97,1.27c.61,0,1.21-.12,1.82-.36s1.13-.53,1.57-.86v-1.82h-3.31Z"/><path d="M477.59,276.36l2.73,.46c-.35,1-.91,1.77-1.67,2.29s-1.71,.79-2.85,.79c-1.8,0-3.14-.59-4-1.77-.68-.94-1.03-2.14-1.03-3.57,0-1.72,.45-3.06,1.35-4.04s2.03-1.46,3.41-1.46c1.54,0,2.76,.51,3.65,1.53s1.32,2.58,1.28,4.68h-6.88c.02,.81,.24,1.45,.66,1.9s.95,.68,1.58,.68c.43,0,.79-.12,1.08-.35s.51-.61,.66-1.13Zm.16-2.77c-.02-.79-.22-1.4-.62-1.81s-.87-.62-1.43-.62c-.6,0-1.09,.22-1.48,.65s-.58,1.03-.58,1.78h4.1Z"/><path d="M481.74,276.7l2.75-.42c.12,.53,.35,.94,.71,1.22s.86,.42,1.5,.42c.71,0,1.24-.13,1.6-.39,.24-.18,.36-.43,.36-.73,0-.21-.07-.38-.2-.52-.14-.13-.44-.25-.92-.36-2.21-.49-3.62-.93-4.21-1.34-.82-.56-1.23-1.34-1.23-2.33,0-.9,.35-1.65,1.06-2.27s1.81-.92,3.3-.92,2.47,.23,3.16,.69,1.17,1.15,1.43,2.05l-2.59,.48c-.11-.4-.32-.71-.63-.93s-.75-.32-1.32-.32c-.72,0-1.24,.1-1.55,.3-.21,.14-.31,.33-.31,.56,0,.2,.09,.36,.27,.5,.25,.18,1.1,.44,2.56,.77s2.48,.74,3.06,1.22c.57,.49,.86,1.17,.86,2.04,0,.95-.4,1.77-1.19,2.45s-1.97,1.03-3.53,1.03c-1.41,0-2.53-.29-3.35-.86s-1.36-1.35-1.62-2.33Z"/><path d="M502.87,272.35l-2.71,.49c-.09-.54-.3-.95-.62-1.22s-.74-.41-1.25-.41c-.68,0-1.23,.24-1.64,.71s-.61,1.26-.61,2.37c0,1.23,.21,2.1,.62,2.61s.97,.76,1.67,.76c.52,0,.95-.15,1.28-.44s.57-.81,.7-1.53l2.7,.46c-.28,1.24-.82,2.17-1.61,2.8s-1.86,.95-3.19,.95c-1.52,0-2.73-.48-3.63-1.44s-1.35-2.28-1.35-3.97,.45-3.05,1.36-4,2.13-1.43,3.67-1.43c1.26,0,2.27,.27,3.01,.82s1.28,1.37,1.61,2.49Z"/><path d="M507.69,265.34v5.26c.89-1.04,1.94-1.55,3.17-1.55,.63,0,1.2,.12,1.71,.35s.89,.53,1.15,.9,.43,.77,.53,1.21,.14,1.13,.14,2.06v6.08h-2.74v-5.48c0-1.09-.05-1.78-.16-2.07s-.29-.53-.55-.7-.59-.26-.99-.26c-.46,0-.86,.11-1.22,.33s-.62,.56-.79,1-.25,1.1-.25,1.98v5.2h-2.74v-14.32h2.74Z"/><path d="M519.22,272.45l-2.49-.45c.28-1,.76-1.74,1.45-2.23s1.7-.72,3.05-.72c1.22,0,2.14,.15,2.73,.43s1.02,.66,1.26,1.1,.37,1.26,.37,2.46l-.03,3.2c0,.91,.04,1.58,.13,2.02s.25,.9,.49,1.39h-2.71c-.07-.18-.16-.45-.26-.81-.05-.16-.08-.27-.1-.32-.47,.46-.97,.8-1.5,1.03s-1.1,.34-1.71,.34c-1.07,0-1.91-.29-2.52-.87s-.92-1.31-.92-2.2c0-.59,.14-1.11,.42-1.57s.67-.81,1.18-1.05,1.23-.46,2.18-.64c1.28-.24,2.17-.47,2.67-.67v-.27c0-.53-.13-.9-.39-1.13s-.75-.34-1.47-.34c-.49,0-.87,.1-1.14,.29s-.5,.53-.66,1.01Zm-1.18-5v-2.35h2.35v2.35h-2.35Zm4.85,7.23c-.35,.12-.91,.26-1.67,.42s-1.26,.32-1.49,.48c-.36,.25-.54,.58-.54,.97s.14,.72,.43,1,.65,.42,1.09,.42c.5,0,.97-.16,1.42-.49,.33-.25,.55-.55,.65-.91,.07-.23,.11-.68,.11-1.34v-.55Zm-.65-7.23v-2.35h2.36v2.35h-2.36Z"/><path d="M527.09,269.29h1.52v-.78c0-.87,.09-1.52,.28-1.95s.53-.78,1.03-1.05,1.13-.41,1.89-.41,1.55,.12,2.29,.35l-.37,1.91c-.44-.1-.86-.16-1.26-.16s-.68,.09-.85,.28-.26,.54-.26,1.07v.73h2.05v2.16h-2.05v8.21h-2.74v-8.21h-1.52v-2.16Z"/><path d="M539.71,269.29v2.19h-1.88v4.18c0,.85,.02,1.34,.05,1.48s.12,.26,.24,.35,.28,.14,.46,.14c.25,0,.62-.09,1.1-.26l.23,2.13c-.64,.27-1.36,.41-2.17,.41-.5,0-.94-.08-1.34-.25s-.69-.38-.87-.64-.31-.62-.39-1.07c-.06-.32-.09-.96-.09-1.93v-4.52h-1.26v-2.19h1.26v-2.06l2.75-1.6v3.66h1.88Z"/><path d="M540.64,276.7l2.75-.42c.12,.53,.35,.94,.71,1.22s.86,.42,1.5,.42c.71,0,1.24-.13,1.6-.39,.24-.18,.36-.43,.36-.73,0-.21-.07-.38-.2-.52-.14-.13-.44-.25-.92-.36-2.21-.49-3.62-.93-4.21-1.34-.82-.56-1.23-1.34-1.23-2.33,0-.9,.35-1.65,1.06-2.27s1.81-.92,3.3-.92,2.47,.23,3.16,.69,1.17,1.15,1.43,2.05l-2.59,.48c-.11-.4-.32-.71-.63-.93s-.75-.32-1.32-.32c-.72,0-1.24,.1-1.55,.3-.21,.14-.31,.33-.31,.56,0,.2,.09,.36,.27,.5,.25,.18,1.1,.44,2.56,.77s2.48,.74,3.06,1.22c.57,.49,.86,1.17,.86,2.04,0,.95-.4,1.77-1.19,2.45s-1.97,1.03-3.53,1.03c-1.41,0-2.53-.29-3.35-.86s-1.36-1.35-1.62-2.33Z"/><path d="M552.66,269.29h2.56v1.52c.33-.52,.78-.94,1.35-1.27s1.19-.49,1.88-.49c1.2,0,2.23,.47,3.07,1.42s1.26,2.26,1.26,3.95-.42,3.08-1.27,4.04-1.87,1.44-3.08,1.44c-.57,0-1.09-.11-1.56-.34s-.96-.62-1.47-1.17v5.22h-2.74v-14.32Zm2.71,5.01c0,1.17,.23,2.03,.69,2.58s1.03,.83,1.69,.83,1.17-.26,1.59-.77,.63-1.35,.63-2.51c0-1.09-.22-1.89-.65-2.42s-.98-.79-1.62-.79-1.23,.26-1.67,.78-.66,1.28-.66,2.3Z"/><path d="M567.58,279.66h-2.74v-10.37h2.55v1.47c.44-.7,.83-1.16,1.18-1.38s.74-.33,1.19-.33c.62,0,1.23,.17,1.81,.52l-.85,2.39c-.46-.3-.89-.45-1.29-.45s-.71,.11-.98,.32-.48,.59-.63,1.15-.23,1.71-.23,3.48v3.2Z"/><path d="M572.1,274.33c0-.91,.22-1.79,.67-2.65s1.09-1.5,1.91-1.95,1.74-.67,2.76-.67c1.57,0,2.85,.51,3.86,1.53s1.5,2.31,1.5,3.86-.51,2.87-1.52,3.9-2.29,1.55-3.82,1.55c-.95,0-1.86-.21-2.72-.64s-1.52-1.06-1.97-1.89-.67-1.84-.67-3.03Zm2.81,.15c0,1.03,.24,1.82,.73,2.36s1.09,.82,1.81,.82,1.32-.27,1.8-.82,.73-1.34,.73-2.38-.24-1.8-.73-2.34-1.09-.82-1.8-.82-1.32,.27-1.81,.82-.73,1.33-.73,2.36Z"/><path d="M583.85,279.66v-2.14l3.89-4.46c.64-.73,1.11-1.25,1.42-1.55-.32,.02-.74,.03-1.26,.04l-3.66,.02v-2.28h8.57v1.94l-3.96,4.57-1.4,1.51c.76-.05,1.23-.07,1.42-.07h4.25v2.41h-9.26Z"/><path d="M600.96,276.36l2.73,.46c-.35,1-.91,1.77-1.67,2.29s-1.71,.79-2.85,.79c-1.8,0-3.14-.59-4-1.77-.68-.94-1.03-2.14-1.03-3.57,0-1.72,.45-3.06,1.35-4.04s2.03-1.46,3.41-1.46c1.54,0,2.76,.51,3.65,1.53s1.32,2.58,1.28,4.68h-6.88c.02,.81,.24,1.45,.66,1.9s.95,.68,1.58,.68c.43,0,.79-.12,1.08-.35s.51-.61,.66-1.13Zm.16-2.77c-.02-.79-.22-1.4-.62-1.81s-.87-.62-1.43-.62c-.6,0-1.09,.22-1.48,.65s-.58,1.03-.58,1.78h4.1Z"/><path d="M605.11,276.7l2.75-.42c.12,.53,.35,.94,.71,1.22s.86,.42,1.5,.42c.71,0,1.24-.13,1.6-.39,.24-.18,.36-.43,.36-.73,0-.21-.07-.38-.2-.52-.14-.13-.44-.25-.92-.36-2.21-.49-3.62-.93-4.21-1.34-.82-.56-1.23-1.34-1.23-2.33,0-.9,.35-1.65,1.06-2.27s1.81-.92,3.3-.92,2.47,.23,3.16,.69,1.17,1.15,1.43,2.05l-2.59,.48c-.11-.4-.32-.71-.63-.93s-.75-.32-1.32-.32c-.72,0-1.24,.1-1.55,.3-.21,.14-.31,.33-.31,.56,0,.2,.09,.36,.27,.5,.25,.18,1.1,.44,2.56,.77s2.48,.74,3.06,1.22c.57,.49,.86,1.17,.86,2.04,0,.95-.4,1.77-1.19,2.45s-1.97,1.03-3.53,1.03c-1.41,0-2.53-.29-3.35-.86s-1.36-1.35-1.62-2.33Z"/><path d="M616.23,276.7l2.75-.42c.12,.53,.35,.94,.71,1.22s.86,.42,1.5,.42c.71,0,1.24-.13,1.6-.39,.24-.18,.36-.43,.36-.73,0-.21-.07-.38-.2-.52-.14-.13-.44-.25-.92-.36-2.21-.49-3.62-.93-4.21-1.34-.82-.56-1.23-1.34-1.23-2.33,0-.9,.35-1.65,1.06-2.27s1.81-.92,3.3-.92,2.47,.23,3.16,.69,1.17,1.15,1.43,2.05l-2.59,.48c-.11-.4-.32-.71-.63-.93s-.75-.32-1.32-.32c-.72,0-1.24,.1-1.55,.3-.21,.14-.31,.33-.31,.56,0,.2,.09,.36,.27,.5,.25,.18,1.1,.44,2.56,.77s2.48,.74,3.06,1.22c.57,.49,.86,1.17,.86,2.04,0,.95-.4,1.77-1.19,2.45s-1.97,1.03-3.53,1.03c-1.41,0-2.53-.29-3.35-.86s-1.36-1.35-1.62-2.33Z"/><path d="M634.33,276.36l2.73,.46c-.35,1-.91,1.77-1.67,2.29s-1.71,.79-2.85,.79c-1.8,0-3.14-.59-4-1.77-.68-.94-1.03-2.14-1.03-3.57,0-1.72,.45-3.06,1.35-4.04s2.03-1.46,3.41-1.46c1.54,0,2.76,.51,3.65,1.53s1.32,2.58,1.28,4.68h-6.88c.02,.81,.24,1.45,.66,1.9s.95,.68,1.58,.68c.43,0,.79-.12,1.08-.35s.51-.61,.66-1.13Zm.16-2.77c-.02-.79-.22-1.4-.62-1.81s-.87-.62-1.43-.62c-.6,0-1.09,.22-1.48,.65s-.58,1.03-.58,1.78h4.1Z"/></g></g><g><rect x="396.3" y="387.37" width="300" height="60" rx="1" ry="1" style="fill:none; stroke:#1d1d1b;"/><g><path d="M452.64,424.53v-14.32h2.89v14.32h-2.89Z" style="fill:#1d1d1b;"/><path d="M467.7,424.53h-2.74v-5.29c0-1.12-.06-1.84-.18-2.17s-.31-.58-.57-.77-.58-.27-.95-.27c-.48,0-.9,.13-1.28,.39s-.64,.61-.78,1.04-.21,1.22-.21,2.38v4.7h-2.74v-10.37h2.55v1.52c.91-1.17,2.04-1.76,3.42-1.76,.61,0,1.16,.11,1.66,.33s.88,.5,1.14,.83,.44,.72,.54,1.15,.15,1.04,.15,1.85v6.45Z" style="fill:#1d1d1b;"/><path d="M469.28,414.16h1.52v-.78c0-.87,.09-1.52,.28-1.95s.53-.78,1.03-1.05,1.13-.41,1.89-.41,1.55,.12,2.29,.35l-.37,1.91c-.44-.1-.86-.16-1.26-.16s-.68,.09-.85,.28-.26,.54-.26,1.07v.73h2.05v2.16h-2.05v8.21h-2.74v-8.21h-1.52v-2.16Z" style="fill:#1d1d1b;"/><path d="M476.51,419.2c0-.91,.22-1.79,.67-2.65s1.09-1.5,1.91-1.95,1.74-.67,2.76-.67c1.57,0,2.85,.51,3.86,1.53s1.5,2.31,1.5,3.86-.51,2.87-1.52,3.9-2.29,1.55-3.82,1.55c-.95,0-1.86-.21-2.72-.64s-1.52-1.06-1.97-1.89-.67-1.84-.67-3.03Zm2.81,.15c0,1.03,.24,1.82,.73,2.36s1.09,.82,1.81,.82,1.32-.27,1.8-.82,.73-1.34,.73-2.38-.24-1.8-.73-2.34-1.09-.82-1.8-.82-1.32,.27-1.81,.82-.73,1.33-.73,2.36Z" style="fill:#1d1d1b;"/><path d="M491.99,424.53h-2.74v-10.37h2.55v1.47c.44-.7,.83-1.16,1.18-1.38s.74-.33,1.19-.33c.62,0,1.23,.17,1.81,.52l-.85,2.39c-.46-.3-.89-.45-1.29-.45s-.71,.11-.98,.32-.48,.59-.63,1.15-.23,1.71-.23,3.48v3.2Z" style="fill:#1d1d1b;"/><path d="M496.94,414.16h2.53v1.42c.91-1.1,1.98-1.65,3.23-1.65,.66,0,1.24,.14,1.73,.41s.89,.69,1.2,1.24c.46-.55,.95-.97,1.47-1.24s1.09-.41,1.69-.41c.76,0,1.41,.15,1.93,.46s.92,.76,1.18,1.36c.19,.44,.28,1.16,.28,2.15v6.63h-2.74v-5.93c0-1.03-.09-1.69-.28-1.99-.25-.39-.64-.59-1.17-.59-.38,0-.75,.12-1.08,.35s-.58,.58-.73,1.03-.22,1.17-.22,2.14v4.98h-2.74v-5.68c0-1.01-.05-1.66-.15-1.95s-.25-.51-.45-.65-.48-.21-.83-.21c-.42,0-.8,.11-1.14,.34s-.58,.56-.73,.99-.22,1.14-.22,2.14v5.04h-2.74v-10.37Z" style="fill:#1d1d1b;"/><path d="M516.98,417.32l-2.49-.45c.28-1,.76-1.74,1.45-2.23s1.7-.72,3.05-.72c1.22,0,2.14,.15,2.73,.43s1.02,.66,1.26,1.1,.37,1.26,.37,2.46l-.03,3.2c0,.91,.04,1.58,.13,2.02s.25,.9,.49,1.39h-2.71c-.07-.18-.16-.45-.26-.81-.05-.16-.08-.27-.1-.32-.47,.46-.97,.8-1.5,1.03s-1.1,.34-1.71,.34c-1.07,0-1.91-.29-2.52-.87s-.92-1.31-.92-2.2c0-.59,.14-1.11,.42-1.57s.67-.81,1.18-1.05,1.23-.46,2.18-.64c1.28-.24,2.17-.47,2.67-.67v-.27c0-.53-.13-.9-.39-1.13s-.75-.34-1.47-.34c-.49,0-.87,.1-1.14,.29s-.5,.53-.66,1.01Zm3.67,2.23c-.35,.12-.91,.26-1.67,.42s-1.26,.32-1.49,.48c-.36,.25-.54,.58-.54,.97s.14,.72,.43,1,.65,.42,1.09,.42c.5,0,.97-.16,1.42-.49,.33-.25,.55-.55,.65-.91,.07-.23,.11-.68,.11-1.34v-.55Z" style="fill:#1d1d1b;"/><path d="M530.8,414.16v2.19h-1.88v4.18c0,.85,.02,1.34,.05,1.48s.12,.26,.24,.35,.28,.14,.46,.14c.25,0,.62-.09,1.1-.26l.23,2.13c-.64,.27-1.36,.41-2.17,.41-.5,0-.94-.08-1.34-.25s-.69-.38-.87-.64-.31-.62-.39-1.07c-.06-.32-.09-.96-.09-1.93v-4.52h-1.26v-2.19h1.26v-2.06l2.75-1.6v3.66h1.88Z" style="fill:#1d1d1b;"/><path d="M532.71,412.75v-2.54h2.74v2.54h-2.74Zm0,11.78v-10.37h2.74v10.37h-2.74Z" style="fill:#1d1d1b;"/><path d="M537.63,419.2c0-.91,.22-1.79,.67-2.65s1.09-1.5,1.91-1.95,1.74-.67,2.76-.67c1.57,0,2.85,.51,3.86,1.53s1.5,2.31,1.5,3.86-.51,2.87-1.52,3.9-2.29,1.55-3.82,1.55c-.95,0-1.86-.21-2.72-.64s-1.52-1.06-1.97-1.89-.67-1.84-.67-3.03Zm2.81,.15c0,1.03,.24,1.82,.73,2.36s1.09,.82,1.81,.82,1.32-.27,1.8-.82,.73-1.34,.73-2.38-.24-1.8-.73-2.34-1.09-.82-1.8-.82-1.32,.27-1.81,.82-.73,1.33-.73,2.36Z" style="fill:#1d1d1b;"/><path d="M559.92,424.53h-2.74v-5.29c0-1.12-.06-1.84-.18-2.17s-.31-.58-.57-.77-.58-.27-.95-.27c-.48,0-.9,.13-1.28,.39s-.64,.61-.78,1.04-.21,1.22-.21,2.38v4.7h-2.74v-10.37h2.55v1.52c.91-1.17,2.04-1.76,3.42-1.76,.61,0,1.16,.11,1.66,.33s.88,.5,1.14,.83,.44,.72,.54,1.15,.15,1.04,.15,1.85v6.45Z" style="fill:#1d1d1b;"/><path d="M561.73,421.57l2.75-.42c.12,.53,.35,.94,.71,1.22s.86,.42,1.5,.42c.71,0,1.24-.13,1.6-.39,.24-.18,.36-.43,.36-.73,0-.21-.07-.38-.2-.52-.14-.13-.44-.25-.92-.36-2.21-.49-3.62-.93-4.21-1.34-.82-.56-1.23-1.34-1.23-2.33,0-.9,.35-1.65,1.06-2.27s1.81-.92,3.3-.92,2.47,.23,3.16,.69,1.17,1.15,1.43,2.05l-2.59,.48c-.11-.4-.32-.71-.63-.93s-.75-.32-1.32-.32c-.72,0-1.24,.1-1.55,.3-.21,.14-.31,.33-.31,.56,0,.2,.09,.36,.27,.5,.25,.18,1.1,.44,2.56,.77s2.48,.74,3.06,1.22c.57,.49,.86,1.17,.86,2.04,0,.95-.4,1.77-1.19,2.45s-1.97,1.03-3.53,1.03c-1.41,0-2.53-.29-3.35-.86s-1.36-1.35-1.62-2.33Z" style="fill:#1d1d1b;"/><path d="M572.86,421.57l2.75-.42c.12,.53,.35,.94,.71,1.22s.86,.42,1.5,.42c.71,0,1.24-.13,1.6-.39,.24-.18,.36-.43,.36-.73,0-.21-.07-.38-.2-.52-.14-.13-.44-.25-.92-.36-2.21-.49-3.62-.93-4.21-1.34-.82-.56-1.23-1.34-1.23-2.33,0-.9,.35-1.65,1.06-2.27s1.81-.92,3.3-.92,2.47,.23,3.16,.69,1.17,1.15,1.43,2.05l-2.59,.48c-.11-.4-.32-.71-.63-.93s-.75-.32-1.32-.32c-.72,0-1.24,.1-1.55,.3-.21,.14-.31,.33-.31,.56,0,.2,.09,.36,.27,.5,.25,.18,1.1,.44,2.56,.77s2.48,.74,3.06,1.22c.57,.49,.86,1.17,.86,2.04,0,.95-.4,1.77-1.19,2.45s-1.97,1.03-3.53,1.03c-1.41,0-2.53-.29-3.35-.86s-1.36-1.35-1.62-2.33Z" style="fill:#1d1d1b;"/><path d="M583.65,414.16h2.92l2.48,7.36,2.42-7.36h2.84l-3.66,9.98-.65,1.81c-.24,.61-.47,1.07-.69,1.39s-.47,.58-.75,.78-.63,.35-1.04,.46-.88,.17-1.4,.17-1.04-.06-1.55-.17l-.24-2.15c.43,.08,.82,.13,1.16,.13,.64,0,1.11-.19,1.42-.56s.54-.85,.7-1.43l-3.95-10.4Z" style="fill:#1d1d1b;"/><path d="M595.1,421.57l2.75-.42c.12,.53,.35,.94,.71,1.22s.86,.42,1.5,.42c.71,0,1.24-.13,1.6-.39,.24-.18,.36-.43,.36-.73,0-.21-.07-.38-.2-.52-.14-.13-.44-.25-.92-.36-2.21-.49-3.62-.93-4.21-1.34-.82-.56-1.23-1.34-1.23-2.33,0-.9,.35-1.65,1.06-2.27s1.81-.92,3.3-.92,2.47,.23,3.16,.69,1.17,1.15,1.43,2.05l-2.59,.48c-.11-.4-.32-.71-.63-.93s-.75-.32-1.32-.32c-.72,0-1.24,.1-1.55,.3-.21,.14-.31,.33-.31,.56,0,.2,.09,.36,.27,.5,.25,.18,1.1,.44,2.56,.77s2.48,.74,3.06,1.22c.57,.49,.86,1.17,.86,2.04,0,.95-.4,1.77-1.19,2.45s-1.97,1.03-3.53,1.03c-1.41,0-2.53-.29-3.35-.86s-1.36-1.35-1.62-2.33Z" style="fill:#1d1d1b;"/><path d="M611.95,414.16v2.19h-1.88v4.18c0,.85,.02,1.34,.05,1.48s.12,.26,.24,.35,.28,.14,.46,.14c.25,0,.62-.09,1.1-.26l.23,2.13c-.64,.27-1.36,.41-2.17,.41-.5,0-.94-.08-1.34-.25s-.69-.38-.87-.64-.31-.62-.39-1.07c-.06-.32-.09-.96-.09-1.93v-4.52h-1.26v-2.19h1.26v-2.06l2.75-1.6v3.66h1.88Z" style="fill:#1d1d1b;"/><path d="M619.86,421.23l2.73,.46c-.35,1-.91,1.77-1.67,2.29s-1.71,.79-2.85,.79c-1.8,0-3.14-.59-4-1.77-.68-.94-1.03-2.14-1.03-3.57,0-1.72,.45-3.06,1.35-4.04s2.03-1.46,3.41-1.46c1.54,0,2.76,.51,3.65,1.53s1.32,2.58,1.28,4.68h-6.88c.02,.81,.24,1.45,.66,1.9s.95,.68,1.58,.68c.43,0,.79-.12,1.08-.35s.51-.61,.66-1.13Zm.16-2.77c-.02-.79-.22-1.4-.62-1.81s-.87-.62-1.43-.62c-.6,0-1.09,.22-1.48,.65s-.58,1.03-.58,1.78h4.1Z" style="fill:#1d1d1b;"/><path d="M624.77,414.16h2.53v1.42c.91-1.1,1.98-1.65,3.23-1.65,.66,0,1.24,.14,1.73,.41s.89,.69,1.2,1.24c.46-.55,.95-.97,1.47-1.24s1.09-.41,1.69-.41c.76,0,1.41,.15,1.93,.46s.92,.76,1.18,1.36c.19,.44,.28,1.16,.28,2.15v6.63h-2.74v-5.93c0-1.03-.09-1.69-.28-1.99-.25-.39-.64-.59-1.17-.59-.38,0-.75,.12-1.08,.35s-.58,.58-.73,1.03-.22,1.17-.22,2.14v4.98h-2.74v-5.68c0-1.01-.05-1.66-.15-1.95s-.25-.51-.45-.65-.48-.21-.83-.21c-.42,0-.8,.11-1.14,.34s-.58,.56-.73,.99-.22,1.14-.22,2.14v5.04h-2.74v-10.37Z" style="fill:#1d1d1b;"/></g></g></g><g><g><line x1="665.97" y1="417.37" x2="665.97" y2="171.98" style="fill:none; stroke:#0333ff; stroke-miterlimit:10; stroke-width:2px;"/><polygon points="675.95 174.9 665.97 157.63 656 174.9 675.95 174.9" style="fill:#0333ff;"/></g><g><line x1="426.62" y1="157.63" x2="426.62" y2="403.02" style="fill:none; stroke:#0333ff; stroke-miterlimit:10; stroke-width:2px;"/><polygon points="416.65 400.1 426.62 417.37 436.6 400.1 416.65 400.1" style="fill:#0333ff;"/></g></g><g><path d="M55.17,128.64l1.43-.12c.07,.57,.23,1.04,.47,1.41s.63,.66,1.15,.89,1.11,.34,1.76,.34c.58,0,1.09-.09,1.53-.26s.77-.41,.99-.71c.22-.3,.32-.63,.32-.98s-.1-.67-.31-.94c-.21-.27-.55-.49-1.03-.68-.31-.12-.99-.31-2.04-.56-1.05-.25-1.79-.49-2.21-.71-.55-.29-.95-.64-1.22-1.07-.27-.42-.4-.9-.4-1.43,0-.58,.16-1.12,.49-1.62,.33-.5,.81-.88,1.44-1.14,.63-.26,1.33-.39,2.1-.39,.85,0,1.6,.14,2.25,.41s1.15,.68,1.5,1.21,.54,1.13,.56,1.8l-1.45,.11c-.08-.72-.34-1.27-.79-1.64-.45-.37-1.12-.55-2-.55s-1.58,.17-2,.5-.63,.74-.63,1.21c0,.41,.15,.75,.45,1.02,.29,.27,1.05,.54,2.29,.82,1.23,.28,2.08,.52,2.54,.73,.67,.31,1.16,.7,1.48,1.17,.32,.47,.48,1.01,.48,1.63s-.17,1.18-.52,1.72-.85,.96-1.5,1.26-1.39,.45-2.21,.45c-1.04,0-1.91-.15-2.61-.45s-1.25-.76-1.65-1.36c-.4-.61-.61-1.29-.63-2.06Z"/><path d="M69.25,131.06l.2,1.24c-.4,.08-.75,.12-1.06,.12-.51,0-.91-.08-1.19-.24s-.48-.37-.59-.64c-.11-.26-.17-.82-.17-1.66v-4.77h-1.03v-1.09h1.03v-2.05l1.4-.84v2.9h1.41v1.09h-1.41v4.85c0,.4,.02,.66,.07,.77,.05,.11,.13,.21,.24,.27,.11,.07,.27,.1,.48,.1,.16,0,.36-.02,.62-.05Z"/><path d="M70.61,132.32v-8.3h1.27v1.26c.32-.59,.62-.98,.89-1.16s.57-.28,.9-.28c.47,0,.96,.15,1.45,.45l-.48,1.3c-.34-.2-.69-.3-1.03-.3-.31,0-.58,.09-.83,.28-.25,.19-.42,.44-.52,.77-.16,.5-.23,1.05-.23,1.64v4.34h-1.41Z"/><path d="M81.37,131.3c-.52,.44-1.02,.76-1.5,.94s-1,.27-1.55,.27c-.91,0-1.61-.22-2.1-.67s-.73-1.01-.73-1.71c0-.41,.09-.78,.28-1.11s.43-.61,.73-.81,.64-.36,1.01-.46c.28-.07,.69-.14,1.25-.21,1.14-.14,1.97-.3,2.51-.48,0-.19,0-.31,0-.37,0-.57-.13-.98-.4-1.21-.36-.32-.89-.48-1.6-.48-.66,0-1.15,.12-1.46,.35-.32,.23-.55,.64-.7,1.23l-1.38-.19c.12-.59,.33-1.06,.62-1.43,.29-.36,.7-.64,1.24-.84s1.17-.29,1.88-.29,1.28,.08,1.73,.25c.44,.17,.77,.38,.98,.63,.21,.25,.35,.57,.44,.96,.05,.24,.07,.67,.07,1.3v1.88c0,1.31,.03,2.13,.09,2.48,.06,.35,.18,.68,.36,1h-1.47c-.15-.29-.24-.63-.28-1.02Zm-.12-3.14c-.51,.21-1.28,.39-2.3,.53-.58,.08-.99,.18-1.23,.28-.24,.1-.42,.26-.55,.46-.13,.2-.2,.42-.2,.67,0,.38,.14,.69,.43,.94s.7,.38,1.25,.38,1.02-.12,1.45-.36c.42-.24,.73-.56,.93-.97,.15-.32,.23-.79,.23-1.41v-.52Z"/><path d="M87.92,131.06l.2,1.24c-.4,.08-.75,.12-1.06,.12-.51,0-.91-.08-1.19-.24s-.48-.37-.59-.64c-.11-.26-.17-.82-.17-1.66v-4.77h-1.03v-1.09h1.03v-2.05l1.4-.84v2.9h1.41v1.09h-1.41v4.85c0,.4,.02,.66,.07,.77,.05,.11,.13,.21,.24,.27,.11,.07,.27,.1,.48,.1,.16,0,.36-.02,.62-.05Z"/><path d="M94.98,129.65l1.45,.18c-.23,.85-.65,1.51-1.27,1.98s-1.41,.7-2.38,.7c-1.21,0-2.18-.37-2.89-1.12-.71-.75-1.07-1.8-1.07-3.14s.36-2.48,1.08-3.25c.72-.77,1.65-1.16,2.8-1.16s2.02,.38,2.72,1.13c.7,.76,1.05,1.82,1.05,3.19,0,.08,0,.21,0,.38h-6.19c.05,.91,.31,1.61,.77,2.09s1.04,.73,1.73,.73c.52,0,.96-.14,1.32-.41,.36-.27,.65-.7,.87-1.3Zm-4.62-2.27h4.63c-.06-.7-.24-1.22-.53-1.57-.45-.54-1.03-.81-1.74-.81-.65,0-1.19,.22-1.63,.65-.44,.43-.68,1.01-.73,1.73Z"/><path d="M97.94,133.01l1.37,.2c.06,.42,.22,.73,.48,.92,.35,.26,.83,.39,1.43,.39,.65,0,1.15-.13,1.51-.39,.35-.26,.59-.62,.72-1.09,.07-.29,.11-.89,.1-1.8-.61,.72-1.38,1.09-2.3,1.09-1.14,0-2.02-.41-2.65-1.23-.62-.82-.94-1.81-.94-2.96,0-.79,.14-1.52,.43-2.19,.29-.67,.7-1.19,1.25-1.55,.54-.36,1.18-.55,1.92-.55,.98,0,1.79,.4,2.42,1.19v-1h1.3v7.17c0,1.29-.13,2.21-.39,2.75s-.68,.96-1.25,1.28-1.27,.47-2.11,.47c-.99,0-1.79-.22-2.4-.67s-.9-1.12-.88-2.01Zm1.16-4.98c0,1.09,.22,1.88,.65,2.38s.97,.75,1.62,.75,1.19-.25,1.62-.75c.44-.5,.66-1.28,.66-2.34s-.23-1.78-.68-2.3-.99-.77-1.63-.77-1.16,.25-1.59,.76-.66,1.26-.66,2.26Z"/><path d="M107.1,122.48v-1.62h1.41v1.62h-1.41Zm0,9.84v-8.3h1.41v8.3h-1.41Z"/><path d="M116.33,129.65l1.45,.18c-.23,.85-.65,1.51-1.27,1.98s-1.41,.7-2.38,.7c-1.21,0-2.18-.37-2.89-1.12-.71-.75-1.07-1.8-1.07-3.14s.36-2.48,1.08-3.25c.72-.77,1.65-1.16,2.8-1.16s2.02,.38,2.72,1.13c.7,.76,1.05,1.82,1.05,3.19,0,.08,0,.21,0,.38h-6.19c.05,.91,.31,1.61,.77,2.09s1.04,.73,1.73,.73c.52,0,.96-.14,1.32-.41,.36-.27,.65-.7,.87-1.3Zm-4.62-2.27h4.63c-.06-.7-.24-1.22-.53-1.57-.45-.54-1.03-.81-1.74-.81-.65,0-1.19,.22-1.63,.65-.44,.43-.68,1.01-.73,1.73Z"/><path d="M122.94,128.74v-1.13h16v1.13h-16Z"/><path d="M145.97,132.32l-2.54-8.3h1.45l1.32,4.79,.49,1.78c.02-.09,.16-.66,.43-1.71l1.32-4.86h1.45l1.24,4.81,.41,1.59,.48-1.6,1.42-4.8h1.37l-2.59,8.3h-1.46l-1.32-4.97-.32-1.41-1.68,6.38h-1.47Z"/><path d="M161.41,131.3c-.52,.44-1.02,.76-1.5,.94s-1,.27-1.55,.27c-.91,0-1.61-.22-2.1-.67s-.73-1.01-.73-1.71c0-.41,.09-.78,.28-1.11s.43-.61,.73-.81,.64-.36,1.01-.46c.28-.07,.69-.14,1.25-.21,1.14-.14,1.97-.3,2.51-.48,0-.19,0-.31,0-.37,0-.57-.13-.98-.4-1.21-.36-.32-.89-.48-1.6-.48-.66,0-1.15,.12-1.46,.35-.32,.23-.55,.64-.7,1.23l-1.38-.19c.12-.59,.33-1.06,.62-1.43,.29-.36,.7-.64,1.24-.84s1.17-.29,1.88-.29,1.28,.08,1.73,.25c.44,.17,.77,.38,.98,.63,.21,.25,.35,.57,.44,.96,.05,.24,.07,.67,.07,1.3v1.88c0,1.31,.03,2.13,.09,2.48,.06,.35,.18,.68,.36,1h-1.47c-.15-.29-.24-.63-.28-1.02Zm-.12-3.14c-.51,.21-1.28,.39-2.3,.53-.58,.08-.99,.18-1.23,.28-.24,.1-.42,.26-.55,.46-.13,.2-.2,.42-.2,.67,0,.38,.14,.69,.43,.94s.7,.38,1.25,.38,1.02-.12,1.45-.36c.42-.24,.73-.56,.93-.97,.15-.32,.23-.79,.23-1.41v-.52Z"/><path d="M164.33,129.84l1.39-.22c.08,.56,.3,.98,.65,1.28s.86,.45,1.5,.45,1.12-.13,1.44-.39c.31-.26,.47-.57,.47-.93,0-.32-.14-.57-.41-.75-.19-.12-.67-.28-1.44-.48-1.03-.26-1.75-.49-2.14-.68-.4-.19-.7-.45-.91-.79s-.31-.71-.31-1.11c0-.37,.08-.71,.25-1.03,.17-.31,.4-.58,.69-.79,.22-.16,.52-.3,.89-.41,.38-.11,.78-.17,1.21-.17,.65,0,1.22,.09,1.71,.28s.86,.44,1.09,.76,.4,.75,.48,1.29l-1.38,.19c-.06-.43-.24-.76-.54-1-.3-.24-.72-.36-1.27-.36-.65,0-1.11,.11-1.38,.32-.28,.21-.41,.46-.41,.75,0,.18,.06,.35,.17,.49,.11,.15,.29,.28,.54,.38,.14,.05,.55,.17,1.24,.36,1,.27,1.69,.48,2.08,.65,.39,.17,.7,.42,.93,.74,.22,.32,.34,.72,.34,1.2s-.14,.91-.41,1.32-.67,.73-1.18,.96-1.1,.34-1.75,.34c-1.08,0-1.9-.22-2.46-.67-.57-.45-.93-1.11-1.08-1.99Z"/><path d="M175.53,129.5c0-.19,0-.33,0-.42,0-.55,.08-1.03,.23-1.43,.11-.3,.3-.61,.55-.91,.19-.22,.52-.55,1.01-.98s.8-.77,.95-1.03c.15-.25,.22-.53,.22-.84,0-.55-.21-1.03-.64-1.44s-.95-.62-1.57-.62-1.1,.19-1.5,.56-.66,.96-.79,1.76l-1.45-.17c.13-1.07,.52-1.89,1.16-2.45,.64-.57,1.49-.85,2.55-.85,1.12,0,2.01,.3,2.68,.91s1,1.35,1,2.21c0,.5-.12,.96-.35,1.38s-.69,.94-1.38,1.54c-.46,.41-.76,.71-.9,.9-.14,.19-.25,.41-.31,.66s-.11,.66-.12,1.22h-1.35Zm-.09,2.82v-1.6h1.6v1.6h-1.6Z"/></g><g><path d="M55.23,266.92c0-1.9,.51-3.39,1.53-4.46,1.02-1.08,2.34-1.61,3.95-1.61,1.06,0,2.01,.25,2.86,.76,.85,.51,1.5,1.21,1.94,2.11,.45,.9,.67,1.93,.67,3.07s-.23,2.2-.7,3.12c-.47,.92-1.13,1.61-1.99,2.08-.86,.47-1.79,.71-2.78,.71-1.08,0-2.04-.26-2.89-.78-.85-.52-1.49-1.23-1.93-2.13-.44-.9-.66-1.85-.66-2.86Zm1.56,.02c0,1.38,.37,2.47,1.11,3.26,.74,.79,1.67,1.19,2.79,1.19s2.08-.4,2.82-1.2c.74-.8,1.11-1.94,1.11-3.41,0-.93-.16-1.75-.47-2.44s-.78-1.23-1.38-1.62-1.29-.57-2.04-.57c-1.07,0-2,.37-2.77,1.11-.77,.74-1.16,1.97-1.16,3.69Z"/><path d="M67.94,272.5v-8.3h1.27v1.26c.32-.59,.62-.98,.89-1.16s.57-.28,.9-.28c.47,0,.96,.15,1.45,.45l-.48,1.3c-.34-.2-.69-.3-1.03-.3-.31,0-.58,.09-.83,.28-.25,.19-.42,.44-.52,.77-.16,.5-.23,1.05-.23,1.64v4.34h-1.41Z"/><path d="M73.03,273.19l1.37,.2c.06,.42,.22,.73,.48,.92,.35,.26,.83,.39,1.43,.39,.65,0,1.15-.13,1.51-.39,.35-.26,.59-.62,.72-1.09,.07-.29,.11-.89,.1-1.8-.61,.72-1.38,1.09-2.3,1.09-1.14,0-2.02-.41-2.65-1.23-.62-.82-.94-1.81-.94-2.96,0-.79,.14-1.52,.43-2.19,.29-.67,.7-1.19,1.25-1.55,.54-.36,1.18-.55,1.92-.55,.98,0,1.79,.4,2.42,1.19v-1h1.3v7.17c0,1.29-.13,2.21-.39,2.75s-.68,.96-1.25,1.28-1.27,.47-2.11,.47c-.99,0-1.79-.22-2.4-.67s-.9-1.12-.88-2.01Zm1.16-4.98c0,1.09,.22,1.88,.65,2.38s.97,.75,1.62,.75,1.19-.25,1.62-.75c.44-.5,.66-1.28,.66-2.34s-.23-1.78-.68-2.3-.99-.77-1.63-.77-1.16,.25-1.59,.76-.66,1.26-.66,2.26Z"/><path d="M87.6,271.48c-.52,.44-1.02,.76-1.5,.94s-1,.27-1.55,.27c-.91,0-1.61-.22-2.1-.67s-.73-1.01-.73-1.71c0-.41,.09-.78,.28-1.11s.43-.61,.73-.81,.64-.36,1.01-.46c.28-.07,.69-.14,1.25-.21,1.14-.14,1.97-.3,2.51-.48,0-.19,0-.31,0-.37,0-.57-.13-.98-.4-1.21-.36-.32-.89-.48-1.6-.48-.66,0-1.15,.12-1.46,.35-.32,.23-.55,.64-.7,1.23l-1.38-.19c.12-.59,.33-1.06,.62-1.43,.29-.36,.7-.64,1.24-.84s1.17-.29,1.88-.29,1.28,.08,1.73,.25c.44,.17,.77,.38,.98,.63,.21,.25,.35,.57,.44,.96,.05,.24,.07,.67,.07,1.3v1.88c0,1.31,.03,2.13,.09,2.48,.06,.35,.18,.68,.36,1h-1.47c-.15-.29-.24-.63-.28-1.02Zm-.12-3.14c-.51,.21-1.28,.39-2.3,.53-.58,.08-.99,.18-1.23,.28-.24,.1-.42,.26-.55,.46-.13,.2-.2,.42-.2,.67,0,.38,.14,.69,.43,.94s.7,.38,1.25,.38,1.02-.12,1.45-.36c.42-.24,.73-.56,.93-.97,.15-.32,.23-.79,.23-1.41v-.52Z"/><path d="M91.08,272.5v-8.3h1.27v1.18c.61-.91,1.49-1.37,2.64-1.37,.5,0,.96,.09,1.38,.27s.73,.42,.94,.71c.21,.29,.35,.64,.44,1.04,.05,.26,.08,.72,.08,1.37v5.1h-1.41v-5.05c0-.57-.05-1-.16-1.29-.11-.28-.3-.51-.58-.68-.28-.17-.61-.25-.98-.25-.6,0-1.12,.19-1.55,.57-.43,.38-.65,1.1-.65,2.16v4.53h-1.41Z"/><path d="M99.99,262.66v-1.62h1.41v1.62h-1.41Zm0,9.84v-8.3h1.41v8.3h-1.41Z"/><path d="M102.97,270.02l1.39-.22c.08,.56,.3,.98,.65,1.28s.86,.45,1.5,.45,1.12-.13,1.44-.39c.31-.26,.47-.57,.47-.93,0-.32-.14-.57-.41-.75-.19-.12-.67-.28-1.44-.48-1.03-.26-1.75-.49-2.14-.68-.4-.19-.7-.45-.91-.79s-.31-.71-.31-1.11c0-.37,.08-.71,.25-1.03,.17-.31,.4-.58,.69-.79,.22-.16,.52-.3,.89-.41,.38-.11,.78-.17,1.21-.17,.65,0,1.22,.09,1.71,.28s.86,.44,1.09,.76,.4,.75,.48,1.29l-1.38,.19c-.06-.43-.24-.76-.54-1-.3-.24-.72-.36-1.27-.36-.65,0-1.11,.11-1.38,.32-.28,.21-.41,.46-.41,.75,0,.18,.06,.35,.17,.49,.11,.15,.29,.28,.54,.38,.14,.05,.55,.17,1.24,.36,1,.27,1.69,.48,2.08,.65,.39,.17,.7,.42,.93,.74,.22,.32,.34,.72,.34,1.2s-.14,.91-.41,1.32-.67,.73-1.18,.96-1.1,.34-1.75,.34c-1.08,0-1.9-.22-2.46-.67-.57-.45-.93-1.11-1.08-1.99Z"/><path d="M116.95,271.48c-.52,.44-1.02,.76-1.5,.94s-1,.27-1.55,.27c-.91,0-1.61-.22-2.1-.67s-.73-1.01-.73-1.71c0-.41,.09-.78,.28-1.11s.43-.61,.73-.81,.64-.36,1.01-.46c.28-.07,.69-.14,1.25-.21,1.14-.14,1.97-.3,2.51-.48,0-.19,0-.31,0-.37,0-.57-.13-.98-.4-1.21-.36-.32-.89-.48-1.6-.48-.66,0-1.15,.12-1.46,.35-.32,.23-.55,.64-.7,1.23l-1.38-.19c.12-.59,.33-1.06,.62-1.43,.29-.36,.7-.64,1.24-.84s1.17-.29,1.88-.29,1.28,.08,1.73,.25c.44,.17,.77,.38,.98,.63,.21,.25,.35,.57,.44,.96,.05,.24,.07,.67,.07,1.3v1.88c0,1.31,.03,2.13,.09,2.48,.06,.35,.18,.68,.36,1h-1.47c-.15-.29-.24-.63-.28-1.02Zm-.12-3.14c-.51,.21-1.28,.39-2.3,.53-.58,.08-.99,.18-1.23,.28-.24,.1-.42,.26-.55,.46-.13,.2-.2,.42-.2,.67,0,.38,.14,.69,.43,.94s.7,.38,1.25,.38,1.02-.12,1.45-.36c.42-.24,.73-.56,.93-.97,.15-.32,.23-.79,.23-1.41v-.52Z"/><path d="M123.5,271.24l.2,1.24c-.4,.08-.75,.12-1.06,.12-.51,0-.91-.08-1.19-.24s-.48-.37-.59-.64c-.11-.26-.17-.82-.17-1.66v-4.77h-1.03v-1.09h1.03v-2.05l1.4-.84v2.9h1.41v1.09h-1.41v4.85c0,.4,.02,.66,.07,.77,.05,.11,.13,.21,.24,.27,.11,.07,.27,.1,.48,.1,.16,0,.36-.02,.62-.05Z"/><path d="M124.88,262.66v-1.62h1.41v1.62h-1.41Zm0,9.84v-8.3h1.41v8.3h-1.41Z"/><path d="M127.91,268.35c0-1.54,.43-2.67,1.28-3.41,.71-.61,1.58-.92,2.61-.92,1.14,0,2.07,.37,2.8,1.12,.72,.75,1.09,1.78,1.09,3.1,0,1.07-.16,1.91-.48,2.52-.32,.61-.79,1.09-1.4,1.43s-1.28,.51-2,.51c-1.16,0-2.1-.37-2.82-1.12-.72-.74-1.07-1.82-1.07-3.22Zm1.45,0c0,1.06,.23,1.86,.7,2.39,.46,.53,1.05,.79,1.75,.79s1.28-.27,1.74-.8,.7-1.34,.7-2.43c0-1.03-.23-1.8-.7-2.33-.47-.53-1.05-.79-1.74-.79s-1.29,.26-1.75,.79c-.46,.53-.7,1.32-.7,2.38Z"/><path d="M137.33,272.5v-8.3h1.27v1.18c.61-.91,1.49-1.37,2.64-1.37,.5,0,.96,.09,1.38,.27s.73,.42,.94,.71c.21,.29,.35,.64,.44,1.04,.05,.26,.08,.72,.08,1.37v5.1h-1.41v-5.05c0-.57-.05-1-.16-1.29-.11-.28-.3-.51-.58-.68-.28-.17-.61-.25-.98-.25-.6,0-1.12,.19-1.55,.57-.43,.38-.65,1.1-.65,2.16v4.53h-1.41Z"/><path d="M149.62,268.92v-1.13h16v1.13h-16Z"/><path d="M172.65,272.5l-2.54-8.3h1.45l1.32,4.79,.49,1.78c.02-.09,.16-.66,.43-1.71l1.32-4.86h1.45l1.24,4.81,.41,1.59,.48-1.6,1.42-4.8h1.37l-2.59,8.3h-1.46l-1.32-4.97-.32-1.41-1.68,6.38h-1.47Z"/><path d="M182.68,262.66v-1.62h1.41v1.62h-1.41Zm0,9.84v-8.3h1.41v8.3h-1.41Z"/><path d="M191.91,269.83l1.45,.18c-.23,.85-.65,1.51-1.27,1.98s-1.41,.7-2.38,.7c-1.21,0-2.18-.37-2.89-1.12-.71-.75-1.07-1.8-1.07-3.14s.36-2.48,1.08-3.25c.72-.77,1.65-1.16,2.8-1.16s2.02,.38,2.72,1.13c.7,.76,1.05,1.82,1.05,3.19,0,.08,0,.21,0,.38h-6.19c.05,.91,.31,1.61,.77,2.09s1.04,.73,1.73,.73c.52,0,.96-.14,1.32-.41,.36-.27,.65-.7,.87-1.3Zm-4.62-2.27h4.63c-.06-.7-.24-1.22-.53-1.57-.45-.54-1.03-.81-1.74-.81-.65,0-1.19,.22-1.63,.65-.44,.43-.68,1.01-.73,1.73Z"/><path d="M197.76,269.68c0-.19,0-.33,0-.42,0-.55,.08-1.03,.23-1.43,.11-.3,.3-.61,.55-.91,.19-.22,.52-.55,1.01-.98s.8-.77,.95-1.03c.15-.25,.22-.53,.22-.84,0-.55-.21-1.03-.64-1.44s-.95-.62-1.57-.62-1.1,.19-1.5,.56-.66,.96-.79,1.76l-1.45-.17c.13-1.07,.52-1.89,1.16-2.45,.64-.57,1.49-.85,2.55-.85,1.12,0,2.01,.3,2.68,.91s1,1.35,1,2.21c0,.5-.12,.96-.35,1.38s-.69,.94-1.38,1.54c-.46,.41-.76,.71-.9,.9-.14,.19-.25,.41-.31,.66s-.11,.66-.12,1.22h-1.35Zm-.09,2.82v-1.6h1.6v1.6h-1.6Z"/></g><g><path d="M58.6,417.37v-10.1h-3.77v-1.35h9.08v1.35h-3.79v10.1h-1.52Z"/><path d="M69.19,414.7l1.45,.18c-.23,.85-.65,1.51-1.27,1.98s-1.41,.7-2.38,.7c-1.21,0-2.18-.37-2.89-1.12-.71-.75-1.07-1.8-1.07-3.14s.36-2.48,1.08-3.25c.72-.77,1.65-1.16,2.8-1.16s2.02,.38,2.72,1.13c.7,.76,1.05,1.82,1.05,3.19,0,.08,0,.21,0,.38h-6.19c.05,.91,.31,1.61,.77,2.09s1.04,.73,1.73,.73c.52,0,.96-.14,1.32-.41,.36-.27,.65-.7,.87-1.3Zm-4.62-2.27h4.63c-.06-.7-.24-1.22-.53-1.57-.45-.54-1.03-.81-1.74-.81-.65,0-1.19,.22-1.63,.65-.44,.43-.68,1.01-.73,1.73Z"/><path d="M77.82,414.33l1.38,.18c-.15,.95-.54,1.7-1.16,2.24s-1.39,.81-2.29,.81c-1.14,0-2.05-.37-2.74-1.11s-1.04-1.81-1.04-3.19c0-.9,.15-1.68,.45-2.35s.75-1.18,1.36-1.51,1.27-.5,1.98-.5c.9,0,1.64,.23,2.21,.68,.57,.46,.94,1.1,1.1,1.94l-1.37,.21c-.13-.56-.36-.98-.69-1.26s-.73-.42-1.2-.42c-.71,0-1.28,.25-1.73,.76s-.66,1.31-.66,2.41,.21,1.92,.64,2.43c.43,.51,.98,.76,1.67,.76,.55,0,1.01-.17,1.38-.51,.37-.34,.6-.86,.7-1.56Z"/><path d="M80.41,417.37v-11.45h1.41v4.11c.66-.76,1.48-1.14,2.48-1.14,.61,0,1.15,.12,1.6,.36s.78,.58,.97,1c.2,.43,.29,1.05,.29,1.86v5.26h-1.41v-5.26c0-.7-.15-1.21-.46-1.54s-.74-.48-1.29-.48c-.42,0-.81,.11-1.18,.32-.37,.22-.63,.51-.79,.88-.16,.37-.23,.88-.23,1.53v4.54h-1.41Z"/><path d="M89.31,417.37v-8.3h1.27v1.18c.61-.91,1.49-1.37,2.64-1.37,.5,0,.96,.09,1.38,.27s.73,.42,.94,.71c.21,.29,.35,.64,.44,1.04,.05,.26,.08,.72,.08,1.37v5.1h-1.41v-5.05c0-.57-.05-1-.16-1.29-.11-.28-.3-.51-.58-.68-.28-.17-.61-.25-.98-.25-.6,0-1.12,.19-1.55,.57-.43,.38-.65,1.1-.65,2.16v4.53h-1.41Z"/><path d="M97.68,413.22c0-1.54,.43-2.67,1.28-3.41,.71-.61,1.58-.92,2.61-.92,1.14,0,2.07,.37,2.8,1.12,.72,.75,1.09,1.78,1.09,3.1,0,1.07-.16,1.91-.48,2.52-.32,.61-.79,1.09-1.4,1.43s-1.28,.51-2,.51c-1.16,0-2.1-.37-2.82-1.12-.72-.74-1.07-1.82-1.07-3.22Zm1.45,0c0,1.06,.23,1.86,.7,2.39,.46,.53,1.05,.79,1.75,.79s1.28-.27,1.74-.8,.7-1.34,.7-2.43c0-1.03-.23-1.8-.7-2.33-.47-.53-1.05-.79-1.74-.79s-1.29,.26-1.75,.79c-.46,.53-.7,1.32-.7,2.38Z"/><path d="M107.07,417.37v-11.45h1.41v11.45h-1.41Z"/><path d="M110.13,413.22c0-1.54,.43-2.67,1.28-3.41,.71-.61,1.58-.92,2.61-.92,1.14,0,2.07,.37,2.8,1.12,.72,.75,1.09,1.78,1.09,3.1,0,1.07-.16,1.91-.48,2.52-.32,.61-.79,1.09-1.4,1.43s-1.28,.51-2,.51c-1.16,0-2.1-.37-2.82-1.12-.72-.74-1.07-1.82-1.07-3.22Zm1.45,0c0,1.06,.23,1.86,.7,2.39,.46,.53,1.05,.79,1.75,.79s1.28-.27,1.74-.8,.7-1.34,.7-2.43c0-1.03-.23-1.8-.7-2.33-.47-.53-1.05-.79-1.74-.79s-1.29,.26-1.75,.79c-.46,.53-.7,1.32-.7,2.38Z"/><path d="M119.3,418.06l1.37,.2c.06,.42,.22,.73,.48,.92,.35,.26,.83,.39,1.43,.39,.65,0,1.15-.13,1.51-.39,.35-.26,.59-.62,.72-1.09,.07-.29,.11-.89,.1-1.8-.61,.72-1.38,1.09-2.3,1.09-1.14,0-2.02-.41-2.65-1.23-.62-.82-.94-1.81-.94-2.96,0-.79,.14-1.52,.43-2.19,.29-.67,.7-1.19,1.25-1.55,.54-.36,1.18-.55,1.92-.55,.98,0,1.79,.4,2.42,1.19v-1h1.3v7.17c0,1.29-.13,2.21-.39,2.75s-.68,.96-1.25,1.28-1.27,.47-2.11,.47c-.99,0-1.79-.22-2.4-.67s-.9-1.12-.88-2.01Zm1.16-4.98c0,1.09,.22,1.88,.65,2.38s.97,.75,1.62,.75,1.19-.25,1.62-.75c.44-.5,.66-1.28,.66-2.34s-.23-1.78-.68-2.3-.99-.77-1.63-.77-1.16,.25-1.59,.76-.66,1.26-.66,2.26Z"/><path d="M128.46,407.53v-1.62h1.41v1.62h-1.41Zm0,9.84v-8.3h1.41v8.3h-1.41Z"/><path d="M137.69,414.7l1.45,.18c-.23,.85-.65,1.51-1.27,1.98s-1.41,.7-2.38,.7c-1.21,0-2.18-.37-2.89-1.12-.71-.75-1.07-1.8-1.07-3.14s.36-2.48,1.08-3.25c.72-.77,1.65-1.16,2.8-1.16s2.02,.38,2.72,1.13c.7,.76,1.05,1.82,1.05,3.19,0,.08,0,.21,0,.38h-6.19c.05,.91,.31,1.61,.77,2.09s1.04,.73,1.73,.73c.52,0,.96-.14,1.32-.41,.36-.27,.65-.7,.87-1.3Zm-4.62-2.27h4.63c-.06-.7-.24-1.22-.53-1.57-.45-.54-1.03-.81-1.74-.81-.65,0-1.19,.22-1.63,.65-.44,.43-.68,1.01-.73,1.73Z"/><path d="M144.3,413.79v-1.13h16v1.13h-16Z"/><path d="M167.33,417.37l-2.54-8.3h1.45l1.32,4.79,.49,1.78c.02-.09,.16-.66,.43-1.71l1.32-4.86h1.45l1.24,4.81,.41,1.59,.48-1.6,1.42-4.8h1.37l-2.59,8.3h-1.46l-1.32-4.97-.32-1.41-1.68,6.38h-1.47Z"/><path d="M176.83,413.22c0-1.54,.43-2.67,1.28-3.41,.71-.61,1.58-.92,2.61-.92,1.14,0,2.07,.37,2.8,1.12,.72,.75,1.09,1.78,1.09,3.1,0,1.07-.16,1.91-.48,2.52-.32,.61-.79,1.09-1.4,1.43s-1.28,.51-2,.51c-1.16,0-2.1-.37-2.82-1.12-.72-.74-1.07-1.82-1.07-3.22Zm1.45,0c0,1.06,.23,1.86,.7,2.39,.46,.53,1.05,.79,1.75,.79s1.28-.27,1.74-.8,.7-1.34,.7-2.43c0-1.03-.23-1.8-.7-2.33-.47-.53-1.05-.79-1.74-.79s-1.29,.26-1.75,.79c-.46,.53-.7,1.32-.7,2.38Z"/><path d="M186.25,417.37v-8.3h1.26v1.16c.26-.41,.61-.73,1.04-.98,.43-.25,.92-.37,1.48-.37,.61,0,1.12,.13,1.51,.38,.39,.26,.67,.61,.83,1.07,.66-.97,1.51-1.45,2.56-1.45,.82,0,1.46,.23,1.9,.68,.44,.46,.66,1.16,.66,2.11v5.7h-1.4v-5.23c0-.56-.05-.97-.14-1.21-.09-.25-.26-.45-.5-.6-.24-.15-.52-.23-.84-.23-.58,0-1.07,.19-1.45,.58-.39,.39-.58,1.01-.58,1.86v4.82h-1.41v-5.39c0-.62-.11-1.09-.34-1.41s-.6-.47-1.12-.47c-.4,0-.76,.1-1.1,.31-.34,.21-.58,.51-.73,.91-.15,.4-.23,.98-.23,1.73v4.3h-1.41Z"/><path d="M199.59,407.53v-1.62h1.41v1.62h-1.41Zm0,9.84v-8.3h1.41v8.3h-1.41Z"/><path d="M206.2,416.11l.2,1.24c-.4,.08-.75,.12-1.06,.12-.51,0-.91-.08-1.19-.24s-.48-.37-.59-.64c-.11-.26-.17-.82-.17-1.66v-4.77h-1.03v-1.09h1.03v-2.05l1.4-.84v2.9h1.41v1.09h-1.41v4.85c0,.4,.02,.66,.07,.77,.05,.11,.13,.21,.24,.27,.11,.07,.27,.1,.48,.1,.16,0,.36-.02,.62-.05Z"/><path d="M210.21,414.55c0-.19,0-.33,0-.42,0-.55,.08-1.03,.23-1.43,.11-.3,.3-.61,.55-.91,.19-.22,.52-.55,1.01-.98s.8-.77,.95-1.03c.15-.25,.22-.53,.22-.84,0-.55-.21-1.03-.64-1.44s-.95-.62-1.57-.62-1.1,.19-1.5,.56-.66,.96-.79,1.76l-1.45-.17c.13-1.07,.52-1.89,1.16-2.45,.64-.57,1.49-.85,2.55-.85,1.12,0,2.01,.3,2.68,.91s1,1.35,1,2.21c0,.5-.12,.96-.35,1.38s-.69,.94-1.38,1.54c-.46,.41-.76,.71-.9,.9-.14,.19-.25,.41-.31,.66s-.11,.66-.12,1.22h-1.35Zm-.09,2.82v-1.6h1.6v1.6h-1.6Z"/></g><g><line x1="54.46" y1="203.92" x2="56.46" y2="203.92" style="fill:none; stroke:#1d1d1b;"/><line x1="64.39" y1="203.92" x2="203.17" y2="203.92" style="fill:none; stroke:#1d1d1b; stroke-dasharray:0 0 3.97 7.93;"/><line x1="207.14" y1="203.92" x2="209.14" y2="203.92" style="fill:none; stroke:#1d1d1b;"/></g><g><line x1="54.46" y1="341.26" x2="56.46" y2="341.26" style="fill:none; stroke:#1d1d1b;"/><line x1="64.39" y1="341.26" x2="203.17" y2="341.26" style="fill:none; stroke:#1d1d1b; stroke-dasharray:0 0 3.97 7.93;"/><line x1="207.14" y1="341.26" x2="209.14" y2="341.26" style="fill:none; stroke:#1d1d1b;"/></g></svg>