<?xml version="1.0" encoding="UTF-8"?><svg id="maturity" xmlns="http://www.w3.org/2000/svg" viewBox="0 0 988 425"><path d="m860.99,49.44l2.52.8c-.39,1.41-1.03,2.45-1.93,3.13-.9.68-2.04,1.02-3.42,1.02-1.71,0-3.12-.58-4.22-1.75s-1.65-2.77-1.65-4.79c0-2.14.55-3.81,1.66-5s2.56-1.78,4.37-1.78c1.58,0,2.86.47,3.84,1.4.59.55,1.03,1.34,1.32,2.37l-2.58.62c-.15-.67-.47-1.2-.95-1.58-.48-.39-1.07-.58-1.76-.58-.96,0-1.73.34-2.32,1.03-.6.69-.89,1.8-.89,3.33,0,1.63.29,2.79.88,3.48s1.35,1.04,2.29,1.04c.69,0,1.29-.22,1.78-.66s.86-1.13,1.07-2.07Z" style="fill:#1d1d1b;"/><path d="m867.84,54.17h-2.47v-9.33h2.29v1.33c.39-.63.75-1.04,1.06-1.24.31-.2.67-.3,1.07-.3.56,0,1.1.16,1.63.47l-.76,2.15c-.42-.27-.8-.4-1.16-.4s-.64.1-.88.29-.43.53-.57,1.03c-.14.5-.21,1.54-.21,3.13v2.88Z" style="fill:#1d1d1b;"/><path d="m877.85,51.2l2.46.41c-.32.9-.82,1.59-1.5,2.06s-1.54.71-2.56.71c-1.62,0-2.82-.53-3.6-1.59-.62-.85-.92-1.92-.92-3.22,0-1.55.4-2.76,1.21-3.63s1.83-1.31,3.07-1.31c1.39,0,2.48.46,3.29,1.38s1.19,2.32,1.15,4.21h-6.19c.02.73.22,1.3.6,1.71s.86.61,1.42.61c.39,0,.71-.11.97-.32s.46-.55.6-1.02Zm.14-2.5c-.02-.71-.2-1.26-.55-1.63s-.78-.56-1.28-.56c-.54,0-.98.2-1.34.59s-.53.93-.52,1.6h3.69Z" style="fill:#1d1d1b;"/><path d="m884.25,47.69l-2.24-.4c.25-.9.69-1.57,1.3-2s1.53-.65,2.74-.65c1.1,0,1.92.13,2.46.39s.92.59,1.14.99c.22.4.33,1.14.33,2.21l-.03,2.88c0,.82.04,1.43.12,1.81.08.39.23.81.44,1.25h-2.44c-.06-.16-.14-.41-.24-.73-.04-.15-.07-.24-.09-.29-.42.41-.87.72-1.35.92s-.99.31-1.54.31c-.96,0-1.72-.26-2.27-.78-.55-.52-.83-1.18-.83-1.98,0-.53.13-1,.38-1.41s.61-.73,1.06-.95c.46-.22,1.11-.41,1.96-.58,1.15-.22,1.95-.42,2.4-.61v-.25c0-.47-.12-.81-.35-1.02s-.68-.3-1.33-.3c-.44,0-.78.09-1.03.26s-.45.48-.6.91Zm3.3,2c-.32.11-.82.23-1.5.38s-1.13.29-1.34.43c-.32.23-.48.52-.48.87s.13.64.39.9.59.38.98.38c.45,0,.87-.15,1.27-.44.3-.22.5-.5.59-.82.06-.21.1-.61.1-1.2v-.49Z" style="fill:#1d1d1b;"/><path d="m896.66,44.84v1.97h-1.69v3.76c0,.76.02,1.21.05,1.33.03.13.11.23.22.31.12.08.25.12.42.12.23,0,.56-.08.99-.24l.21,1.92c-.57.25-1.22.37-1.95.37-.45,0-.85-.07-1.2-.22s-.62-.34-.79-.58c-.17-.24-.28-.56-.35-.96-.05-.29-.08-.87-.08-1.74v-4.07h-1.13v-1.97h1.13v-1.85l2.48-1.44v3.3h1.69Z" style="fill:#1d1d1b;"/><path d="m898.49,43.57v-2.29h2.47v2.29h-2.47Zm0,10.6v-9.33h2.47v9.33h-2.47Z" style="fill:#1d1d1b;"/><path d="m906.03,54.17l-3.76-9.33h2.59l1.76,4.76.51,1.59c.13-.4.22-.67.25-.8.08-.26.17-.53.26-.79l1.78-4.76h2.54l-3.71,9.33h-2.22Z" style="fill:#1d1d1b;"/><path d="m918.52,51.2l2.46.41c-.32.9-.82,1.59-1.5,2.06-.68.47-1.54.71-2.56.71-1.62,0-2.82-.53-3.6-1.59-.62-.85-.92-1.92-.92-3.22,0-1.55.4-2.76,1.21-3.63s1.83-1.31,3.07-1.31c1.39,0,2.48.46,3.29,1.38s1.19,2.32,1.15,4.21h-6.19c.02.73.22,1.3.6,1.71s.86.61,1.42.61c.39,0,.71-.11.98-.32s.46-.55.6-1.02Zm.14-2.5c-.02-.71-.2-1.26-.55-1.63s-.78-.56-1.28-.56c-.54,0-.98.2-1.34.59s-.52.93-.52,1.6h3.69Z" style="fill:#1d1d1b;"/><path d="m864.36,75.77h-2.83l-1.12-2.93h-5.15l-1.06,2.93h-2.76l5.02-12.88h2.75l5.16,12.88Zm-4.79-5.1l-1.78-4.78-1.74,4.78h3.52Z" style="fill:#1d1d1b;"/><path d="m865.68,75.77v-12.88h2.47v4.64c.76-.87,1.66-1.3,2.71-1.3,1.14,0,2.08.41,2.82,1.23s1.12,2.01,1.12,3.55-.38,2.82-1.14,3.68-1.68,1.29-2.76,1.29c-.53,0-1.06-.13-1.58-.4s-.96-.66-1.34-1.18v1.37h-2.29Zm2.45-4.87c0,.97.15,1.68.46,2.14.43.66,1,.98,1.71.98.54,0,1.01-.23,1.39-.7s.58-1.2.58-2.2c0-1.07-.19-1.84-.58-2.31s-.88-.71-1.49-.71-1.08.23-1.48.69-.59,1.16-.59,2.1Z" style="fill:#1d1d1b;"/><path d="m879.18,75.77h-2.47v-9.33h2.29v1.33c.39-.63.75-1.04,1.06-1.24.31-.2.67-.3,1.07-.3.56,0,1.1.16,1.63.47l-.76,2.15c-.42-.27-.8-.4-1.16-.4s-.64.1-.88.29-.43.53-.57,1.03c-.14.5-.21,1.54-.21,3.13v2.88Z" style="fill:#1d1d1b;"/><path d="m885.66,69.29l-2.24-.4c.25-.9.69-1.57,1.3-2s1.53-.65,2.74-.65c1.1,0,1.92.13,2.46.39s.92.59,1.14.99c.22.4.33,1.14.33,2.21l-.03,2.88c0,.82.04,1.43.12,1.81.08.39.23.81.44,1.25h-2.44c-.06-.16-.14-.41-.24-.73-.04-.15-.07-.24-.09-.29-.42.41-.87.72-1.35.92s-.99.31-1.54.31c-.96,0-1.72-.26-2.27-.78-.55-.52-.83-1.18-.83-1.98,0-.53.13-1,.38-1.41s.6-.73,1.06-.95c.45-.22,1.11-.41,1.96-.58,1.15-.22,1.95-.42,2.4-.61v-.25c0-.47-.12-.81-.35-1.02s-.68-.3-1.33-.3c-.44,0-.78.09-1.03.26s-.45.48-.6.91Zm3.3,2c-.32.11-.82.23-1.5.38s-1.13.29-1.34.43c-.32.23-.48.52-.48.87s.13.64.39.9.59.38.98.38c.45,0,.87-.15,1.27-.44.3-.22.5-.5.59-.82.06-.21.1-.61.1-1.2v-.49Z" style="fill:#1d1d1b;"/><path d="m893,73.11l2.48-.38c.11.48.32.85.64,1.09s.77.37,1.35.37c.64,0,1.12-.12,1.44-.35.22-.16.33-.38.33-.66,0-.19-.06-.34-.18-.47-.12-.12-.4-.23-.83-.33-1.99-.44-3.25-.84-3.79-1.2-.74-.5-1.11-1.2-1.11-2.1,0-.81.32-1.49.96-2.04s1.63-.83,2.97-.83,2.23.21,2.85.62,1.05,1.03,1.28,1.85l-2.33.43c-.1-.36-.29-.64-.57-.83-.28-.19-.67-.29-1.19-.29-.65,0-1.12.09-1.4.27-.19.13-.28.3-.28.5,0,.18.08.33.25.45.22.16.99.4,2.31.69,1.32.3,2.23.67,2.76,1.1.52.44.77,1.05.77,1.84,0,.86-.36,1.59-1.07,2.21s-1.77.92-3.17.92c-1.27,0-2.28-.26-3.02-.77-.74-.52-1.23-1.22-1.46-2.1Z" style="fill:#1d1d1b;"/><path d="m903.73,65.17v-2.29h2.47v2.29h-2.47Zm0,10.6v-9.33h2.47v9.33h-2.47Z" style="fill:#1d1d1b;"/><path d="m908.13,70.97c0-.82.2-1.61.61-2.38s.98-1.35,1.72-1.76c.74-.4,1.57-.61,2.48-.61,1.41,0,2.57.46,3.47,1.38s1.35,2.08,1.35,3.48-.46,2.58-1.37,3.51c-.91.93-2.06,1.39-3.44,1.39-.86,0-1.67-.19-2.45-.58-.78-.39-1.37-.95-1.77-1.7s-.61-1.66-.61-2.73Zm2.53.13c0,.93.22,1.63.66,2.13s.98.74,1.63.74,1.19-.25,1.62-.74c.44-.49.66-1.21.66-2.14s-.22-1.62-.66-2.11c-.44-.49-.98-.74-1.62-.74s-1.19.25-1.63.74-.66,1.2-.66,2.13Z" style="fill:#1d1d1b;"/><path d="m928.14,75.77h-2.47v-4.76c0-1.01-.05-1.66-.16-1.96s-.28-.53-.51-.69c-.24-.16-.52-.25-.86-.25-.43,0-.81.12-1.15.35s-.57.54-.7.93c-.12.39-.19,1.1-.19,2.14v4.23h-2.47v-9.33h2.29v1.37c.81-1.05,1.84-1.58,3.08-1.58.54,0,1.04.1,1.49.29s.79.45,1.02.75c.23.3.39.65.48,1.04.09.39.14.94.14,1.66v5.8Z" style="fill:#1d1d1b;"/><path d="m860.99,201.61l2.52.8c-.39,1.41-1.03,2.45-1.93,3.13-.9.68-2.04,1.02-3.42,1.02-1.71,0-3.12-.58-4.22-1.75s-1.65-2.77-1.65-4.79c0-2.14.55-3.81,1.66-5s2.56-1.78,4.37-1.78c1.58,0,2.86.47,3.84,1.4.59.55,1.03,1.34,1.32,2.37l-2.58.62c-.15-.67-.47-1.2-.95-1.58-.48-.39-1.07-.58-1.76-.58-.96,0-1.73.34-2.32,1.03-.6.69-.89,1.8-.89,3.33,0,1.63.29,2.79.88,3.48s1.35,1.04,2.29,1.04c.69,0,1.29-.22,1.78-.66s.86-1.13,1.07-2.07Z" style="fill:#1d1d1b;"/><path d="m867.84,206.35h-2.47v-9.33h2.29v1.33c.39-.63.75-1.04,1.06-1.24.31-.2.67-.3,1.07-.3.56,0,1.1.16,1.63.47l-.76,2.15c-.42-.27-.8-.4-1.16-.4s-.64.1-.88.29-.43.53-.57,1.03c-.14.5-.21,1.54-.21,3.13v2.88Z" style="fill:#1d1d1b;"/><path d="m877.85,203.38l2.46.41c-.32.9-.82,1.59-1.5,2.06s-1.54.71-2.56.71c-1.62,0-2.82-.53-3.6-1.59-.62-.85-.92-1.92-.92-3.22,0-1.55.4-2.76,1.21-3.63s1.83-1.31,3.07-1.31c1.39,0,2.48.46,3.29,1.38s1.19,2.32,1.15,4.21h-6.19c.02.73.22,1.3.6,1.71s.86.61,1.42.61c.39,0,.71-.11.97-.32s.46-.55.6-1.02Zm.14-2.5c-.02-.71-.2-1.26-.55-1.63s-.78-.56-1.28-.56c-.54,0-.98.2-1.34.59s-.53.93-.52,1.6h3.69Z" style="fill:#1d1d1b;"/><path d="m884.25,199.86l-2.24-.4c.25-.9.69-1.57,1.3-2s1.53-.65,2.74-.65c1.1,0,1.92.13,2.46.39s.92.59,1.14.99c.22.4.33,1.14.33,2.21l-.03,2.88c0,.82.04,1.43.12,1.81.08.39.23.81.44,1.25h-2.44c-.06-.16-.14-.41-.24-.73-.04-.15-.07-.24-.09-.29-.42.41-.87.72-1.35.92s-.99.31-1.54.31c-.96,0-1.72-.26-2.27-.78-.55-.52-.83-1.18-.83-1.98,0-.53.13-1,.38-1.41s.61-.73,1.06-.95c.46-.22,1.11-.41,1.96-.58,1.15-.22,1.95-.42,2.4-.61v-.25c0-.47-.12-.81-.35-1.02s-.68-.3-1.33-.3c-.44,0-.78.09-1.03.26s-.45.48-.6.91Zm3.3,2c-.32.11-.82.23-1.5.38s-1.13.29-1.34.43c-.32.23-.48.52-.48.87s.13.64.39.9.59.38.98.38c.45,0,.87-.15,1.27-.44.3-.22.5-.5.59-.82.06-.21.1-.61.1-1.2v-.49Z" style="fill:#1d1d1b;"/><path d="m896.66,197.01v1.97h-1.69v3.76c0,.76.02,1.21.05,1.33.03.13.11.23.22.31.12.08.25.12.42.12.23,0,.56-.08.99-.24l.21,1.92c-.57.25-1.22.37-1.95.37-.45,0-.85-.07-1.2-.22s-.62-.34-.79-.58c-.17-.24-.28-.56-.35-.96-.05-.29-.08-.87-.08-1.74v-4.07h-1.13v-1.97h1.13v-1.85l2.48-1.44v3.3h1.69Z" style="fill:#1d1d1b;"/><path d="m898.49,195.75v-2.29h2.47v2.29h-2.47Zm0,10.6v-9.33h2.47v9.33h-2.47Z" style="fill:#1d1d1b;"/><path d="m906.03,206.35l-3.76-9.33h2.59l1.76,4.76.51,1.59c.13-.4.22-.67.25-.8.08-.26.17-.53.26-.79l1.78-4.76h2.54l-3.71,9.33h-2.22Z" style="fill:#1d1d1b;"/><path d="m918.52,203.38l2.46.41c-.32.9-.82,1.59-1.5,2.06-.68.47-1.54.71-2.56.71-1.62,0-2.82-.53-3.6-1.59-.62-.85-.92-1.92-.92-3.22,0-1.55.4-2.76,1.21-3.63s1.83-1.31,3.07-1.31c1.39,0,2.48.46,3.29,1.38s1.19,2.32,1.15,4.21h-6.19c.02.73.22,1.3.6,1.71s.86.61,1.42.61c.39,0,.71-.11.98-.32s.46-.55.6-1.02Zm.14-2.5c-.02-.71-.2-1.26-.55-1.63s-.78-.56-1.28-.56c-.54,0-.98.2-1.34.59s-.52.93-.52,1.6h3.69Z" style="fill:#1d1d1b;"/><path d="m864.36,227.95h-2.83l-1.12-2.93h-5.15l-1.06,2.93h-2.76l5.02-12.88h2.75l5.16,12.88Zm-4.79-5.1l-1.78-4.78-1.74,4.78h3.52Z" style="fill:#1d1d1b;"/><path d="m865.23,228.56l2.82.34c.05.33.16.55.33.68.23.18.6.26,1.11.26.64,0,1.13-.1,1.45-.29.22-.13.38-.34.49-.62.08-.21.11-.58.11-1.13v-1.36c-.74,1.01-1.67,1.51-2.79,1.51-1.25,0-2.25-.53-2.98-1.59-.57-.84-.86-1.88-.86-3.13,0-1.56.38-2.76,1.13-3.59.75-.83,1.69-1.24,2.81-1.24s2.11.51,2.86,1.52v-1.31h2.31v8.38c0,1.1-.09,1.92-.27,2.47s-.44.97-.76,1.28-.77.55-1.31.73c-.55.18-1.24.26-2.08.26-1.58,0-2.7-.27-3.37-.81s-.99-1.23-.99-2.06c0-.08,0-.18,0-.3Zm2.21-5.48c0,.99.19,1.72.58,2.18.38.46.86.69,1.42.69.6,0,1.11-.24,1.53-.71s.62-1.17.62-2.1-.2-1.68-.6-2.15-.9-.7-1.51-.7-1.08.23-1.46.69c-.38.46-.58,1.16-.58,2.1Z" style="fill:#1d1d1b;"/><path d="m876.39,217.35v-2.29h2.47v2.29h-2.47Zm0,10.6v-9.33h2.47v9.33h-2.47Z" style="fill:#1d1d1b;"/><path d="m881.29,227.95v-12.88h2.47v12.88h-2.47Z" style="fill:#1d1d1b;"/><path d="m886.19,217.35v-2.29h2.47v2.29h-2.47Zm0,10.6v-9.33h2.47v9.33h-2.47Z" style="fill:#1d1d1b;"/><path d="m895.54,218.61v1.97h-1.69v3.76c0,.76.02,1.21.05,1.33s.11.23.22.31.25.12.42.12c.23,0,.56-.08.99-.24l.21,1.92c-.57.25-1.22.37-1.95.37-.45,0-.85-.07-1.2-.22s-.62-.34-.79-.58-.28-.56-.35-.96c-.05-.29-.08-.87-.08-1.74v-4.07h-1.13v-1.97h1.13v-1.85l2.48-1.44v3.3h1.69Z" style="fill:#1d1d1b;"/><path d="m896.46,218.61h2.63l2.23,6.63,2.18-6.63h2.56l-3.3,8.98-.59,1.63c-.22.54-.42.96-.62,1.25-.2.29-.42.52-.68.7-.25.18-.57.32-.94.42-.37.1-.79.15-1.26.15s-.94-.05-1.4-.15l-.22-1.93c.39.08.74.11,1.05.11.57,0,1-.17,1.27-.51s.49-.77.63-1.29l-3.55-9.36Z" style="fill:#1d1d1b;"/><path d="m860.99,349.5l2.52.8c-.39,1.41-1.03,2.45-1.93,3.13-.9.68-2.04,1.02-3.42,1.02-1.71,0-3.12-.58-4.22-1.75s-1.65-2.77-1.65-4.79c0-2.14.55-3.81,1.66-5s2.56-1.78,4.37-1.78c1.58,0,2.86.47,3.84,1.4.59.55,1.03,1.34,1.32,2.37l-2.58.62c-.15-.67-.47-1.2-.95-1.58-.48-.39-1.07-.58-1.76-.58-.96,0-1.73.34-2.32,1.03-.6.69-.89,1.8-.89,3.33,0,1.63.29,2.79.88,3.48s1.35,1.04,2.29,1.04c.69,0,1.29-.22,1.78-.66s.86-1.13,1.07-2.07Z" style="fill:#1d1d1b;"/><path d="m867.84,354.24h-2.47v-9.33h2.29v1.33c.39-.63.75-1.04,1.06-1.24.31-.2.67-.3,1.07-.3.56,0,1.1.16,1.63.47l-.76,2.15c-.42-.27-.8-.4-1.16-.4s-.64.1-.88.29-.43.53-.57,1.03c-.14.5-.21,1.54-.21,3.13v2.88Z" style="fill:#1d1d1b;"/><path d="m877.85,351.27l2.46.41c-.32.9-.82,1.59-1.5,2.06s-1.54.71-2.56.71c-1.62,0-2.82-.53-3.6-1.59-.62-.85-.92-1.92-.92-3.22,0-1.55.4-2.76,1.21-3.63s1.83-1.31,3.07-1.31c1.39,0,2.48.46,3.29,1.38s1.19,2.32,1.15,4.21h-6.19c.02.73.22,1.3.6,1.71s.86.61,1.42.61c.39,0,.71-.11.97-.32s.46-.55.6-1.02Zm.14-2.5c-.02-.71-.2-1.26-.55-1.63s-.78-.56-1.28-.56c-.54,0-.98.2-1.34.59s-.53.93-.52,1.6h3.69Z" style="fill:#1d1d1b;"/><path d="m884.25,347.75l-2.24-.4c.25-.9.69-1.57,1.3-2s1.53-.65,2.74-.65c1.1,0,1.92.13,2.46.39s.92.59,1.14.99c.22.4.33,1.14.33,2.21l-.03,2.88c0,.82.04,1.43.12,1.81.08.39.23.81.44,1.25h-2.44c-.06-.16-.14-.41-.24-.73-.04-.15-.07-.24-.09-.29-.42.41-.87.72-1.35.92s-.99.31-1.54.31c-.96,0-1.72-.26-2.27-.78-.55-.52-.83-1.18-.83-1.98,0-.53.13-1,.38-1.41s.61-.73,1.06-.95c.46-.22,1.11-.41,1.96-.58,1.15-.22,1.95-.42,2.4-.61v-.25c0-.47-.12-.81-.35-1.02s-.68-.3-1.33-.3c-.44,0-.78.09-1.03.26s-.45.48-.6.91Zm3.3,2c-.32.11-.82.23-1.5.38s-1.13.29-1.34.43c-.32.23-.48.52-.48.87s.13.64.39.9.59.38.98.38c.45,0,.87-.15,1.27-.44.3-.22.5-.5.59-.82.06-.21.1-.61.1-1.2v-.49Z" style="fill:#1d1d1b;"/><path d="m896.66,344.9v1.97h-1.69v3.76c0,.76.02,1.21.05,1.33.03.13.11.23.22.31.12.08.25.12.42.12.23,0,.56-.08.99-.24l.21,1.92c-.57.25-1.22.37-1.95.37-.45,0-.85-.07-1.2-.22s-.62-.34-.79-.58c-.17-.24-.28-.56-.35-.96-.05-.29-.08-.87-.08-1.74v-4.07h-1.13v-1.97h1.13v-1.85l2.48-1.44v3.3h1.69Z" style="fill:#1d1d1b;"/><path d="m898.49,343.64v-2.29h2.47v2.29h-2.47Zm0,10.6v-9.33h2.47v9.33h-2.47Z" style="fill:#1d1d1b;"/><path d="m906.03,354.24l-3.76-9.33h2.59l1.76,4.76.51,1.59c.13-.4.22-.67.25-.8.08-.26.17-.53.26-.79l1.78-4.76h2.54l-3.71,9.33h-2.22Z" style="fill:#1d1d1b;"/><path d="m918.52,351.27l2.46.41c-.32.9-.82,1.59-1.5,2.06-.68.47-1.54.71-2.56.71-1.62,0-2.82-.53-3.6-1.59-.62-.85-.92-1.92-.92-3.22,0-1.55.4-2.76,1.21-3.63s1.83-1.31,3.07-1.31c1.39,0,2.48.46,3.29,1.38s1.19,2.32,1.15,4.21h-6.19c.02.73.22,1.3.6,1.71s.86.61,1.42.61c.39,0,.71-.11.98-.32s.46-.55.6-1.02Zm.14-2.5c-.02-.71-.2-1.26-.55-1.63s-.78-.56-1.28-.56c-.54,0-.98.2-1.34.59s-.52.93-.52,1.6h3.69Z" style="fill:#1d1d1b;"/><path d="m852.75,375.84v-12.88h5.48c1.38,0,2.38.12,3,.35.62.23,1.12.64,1.5,1.23s.56,1.27.56,2.03c0,.97-.28,1.77-.85,2.4s-1.42,1.03-2.55,1.19c.56.33,1.03.69,1.39,1.08.37.39.86,1.09,1.48,2.09l1.57,2.51h-3.11l-1.88-2.8c-.67-1-1.12-1.63-1.37-1.89s-.51-.44-.78-.54-.71-.15-1.31-.15h-.53v5.38h-2.6Zm2.6-7.44h1.92c1.25,0,2.03-.05,2.34-.16s.55-.29.73-.54.26-.58.26-.97c0-.43-.12-.78-.35-1.05-.23-.27-.56-.44-.98-.51-.21-.03-.84-.04-1.9-.04h-2.03v3.27Z" style="fill:#1d1d1b;"/><path d="m870.94,372.87l2.46.41c-.32.9-.82,1.59-1.5,2.06s-1.54.71-2.56.71c-1.62,0-2.82-.53-3.6-1.59-.62-.85-.92-1.92-.92-3.22,0-1.55.4-2.76,1.21-3.63s1.83-1.31,3.07-1.31c1.39,0,2.48.46,3.29,1.38s1.19,2.32,1.15,4.21h-6.19c.02.73.22,1.3.6,1.71s.86.61,1.42.61c.39,0,.71-.11.98-.32s.46-.55.6-1.02Zm.14-2.5c-.02-.71-.2-1.26-.55-1.63s-.78-.56-1.28-.56c-.54,0-.98.2-1.34.59s-.52.93-.52,1.6h3.69Z" style="fill:#1d1d1b;"/><path d="m874.68,373.17l2.48-.38c.11.48.32.85.64,1.09s.77.37,1.35.37c.64,0,1.12-.12,1.44-.35.22-.16.33-.38.33-.66,0-.19-.06-.34-.18-.47-.12-.12-.4-.23-.83-.33-1.99-.44-3.25-.84-3.79-1.2-.74-.5-1.11-1.2-1.11-2.1,0-.81.32-1.49.96-2.04s1.63-.83,2.97-.83,2.23.21,2.85.62,1.05,1.03,1.28,1.85l-2.33.43c-.1-.36-.29-.64-.57-.83-.28-.19-.67-.29-1.19-.29-.65,0-1.12.09-1.4.27-.19.13-.28.3-.28.5,0,.18.08.33.25.45.22.16.99.4,2.31.69,1.32.3,2.23.67,2.76,1.1.52.44.77,1.05.77,1.84,0,.86-.36,1.59-1.07,2.21s-1.77.92-3.17.92c-1.27,0-2.28-.26-3.02-.77-.74-.52-1.23-1.22-1.46-2.1Z" style="fill:#1d1d1b;"/><path d="m884.79,371.04c0-.82.2-1.61.61-2.38s.98-1.35,1.72-1.76c.74-.4,1.57-.61,2.48-.61,1.41,0,2.57.46,3.47,1.38s1.35,2.08,1.35,3.48-.46,2.58-1.37,3.51c-.91.93-2.06,1.39-3.44,1.39-.86,0-1.67-.19-2.45-.58-.78-.39-1.37-.95-1.77-1.7s-.61-1.66-.61-2.73Zm2.53.13c0,.93.22,1.63.66,2.13s.98.74,1.63.74,1.19-.25,1.62-.74c.44-.49.66-1.21.66-2.14s-.22-1.62-.66-2.11c-.44-.49-.98-.74-1.62-.74s-1.19.25-1.63.74-.66,1.2-.66,2.13Z" style="fill:#1d1d1b;"/><path d="m896.33,375.84v-12.88h2.47v12.88h-2.47Z" style="fill:#1d1d1b;"/><path d="m907.38,375.84v-1.4c-.34.5-.79.89-1.34,1.18s-1.14.43-1.75.43-1.19-.14-1.69-.41-.86-.66-1.08-1.16-.33-1.19-.33-2.07v-5.91h2.47v4.29c0,1.31.05,2.12.14,2.41s.26.53.5.7.54.26.91.26c.42,0,.8-.12,1.13-.35s.56-.52.69-.86.18-1.18.18-2.52v-3.94h2.47v9.33h-2.29Z" style="fill:#1d1d1b;"/><path d="m916.55,366.5v1.97h-1.69v3.76c0,.76.02,1.21.05,1.33s.11.23.22.31.25.12.42.12c.23,0,.56-.08.99-.24l.21,1.92c-.57.25-1.22.37-1.95.37-.45,0-.85-.07-1.21-.22s-.62-.34-.79-.58-.28-.56-.35-.96c-.05-.29-.08-.87-.08-1.74v-4.07h-1.13v-1.97h1.13v-1.85l2.48-1.44v3.3h1.69Z" style="fill:#1d1d1b;"/><path d="m918.38,365.24v-2.29h2.47v2.29h-2.47Zm0,10.6v-9.33h2.47v9.33h-2.47Z" style="fill:#1d1d1b;"/><path d="m922.77,371.04c0-.82.2-1.61.61-2.38s.98-1.35,1.72-1.76,1.57-.61,2.48-.61c1.41,0,2.57.46,3.47,1.38s1.35,2.08,1.35,3.48-.46,2.58-1.37,3.51-2.06,1.39-3.44,1.39c-.86,0-1.67-.19-2.45-.58s-1.37-.95-1.77-1.7-.61-1.66-.61-2.73Zm2.53.13c0,.93.22,1.63.66,2.13s.98.74,1.62.74,1.19-.25,1.62-.74.66-1.21.66-2.14-.22-1.62-.66-2.11-.98-.74-1.62-.74-1.19.25-1.62.74-.66,1.2-.66,2.13Z" style="fill:#1d1d1b;"/><path d="m942.79,375.84h-2.47v-4.76c0-1.01-.05-1.66-.16-1.96s-.28-.53-.51-.69-.52-.25-.86-.25c-.43,0-.81.12-1.15.35s-.57.54-.7.93-.19,1.1-.19,2.14v4.23h-2.47v-9.33h2.29v1.37c.81-1.05,1.84-1.58,3.08-1.58.54,0,1.04.1,1.49.29s.79.45,1.02.75.39.65.48,1.04.14.94.14,1.66v5.8Z" style="fill:#1d1d1b;"/><text transform="translate(148.92 343.06)" style="fill:#1d1d1b; font-family:ArialMT, Arial; font-size:16px;"><tspan x="0" y="0" style="letter-spacing:-.02em;">P</tspan><tspan x="10.35" y="0" style="letter-spacing:-.01em;">a</tspan><tspan x="19.02" y="0" style="letter-spacing:0em;">t</tspan><tspan x="23.42" y="0" style="letter-spacing:0em;">i</tspan><tspan x="26.9" y="0" style="letter-spacing:0em;">e</tspan><tspan x="35.69" y="0" style="letter-spacing:0em;">n</tspan><tspan x="44.45" y="0" style="letter-spacing:0em;">c</tspan><tspan x="52.58" y="0">e</tspan></text><text transform="translate(137.95 394.46)" style="fill:#1d1d1b; font-family:ArialMT, Arial; font-size:16px;"><tspan x="0" y="0" style="letter-spacing:0em;">B</tspan><tspan x="10.64" y="0" style="letter-spacing:-.01em;">o</tspan><tspan x="19.31" y="0" style="letter-spacing:.02em;">t</tspan><tspan x="23.99" y="0" style="letter-spacing:-.01em;">t</tspan><tspan x="28.23" y="0" style="letter-spacing:0em;">o</tspan><tspan x="37.05" y="0">m </tspan><tspan x="54.83" y="0" style="letter-spacing:-.01em;">u</tspan><tspan x="63.56" y="0">p</tspan></text><text transform="translate(654.08 343.06)" style="fill:#1d1d1b; font-family:ArialMT, Arial; font-size:16px;"><tspan x="0" y="0" style="letter-spacing:0em;">U</tspan><tspan x="11.46" y="0" style="letter-spacing:0em;">rg</tspan><tspan x="25.53" y="0" style="letter-spacing:0em;">e</tspan><tspan x="34.32" y="0" style="letter-spacing:0em;">n</tspan><tspan x="43.08" y="0" style="letter-spacing:0em;">c</tspan><tspan x="50.98" y="0">y</tspan></text><text transform="translate(654.08 394.46)" style="fill:#1d1d1b; font-family:ArialMT, Arial; font-size:16px;"><tspan x="0" y="0" style="letter-spacing:-.09em;">T</tspan><tspan x="8.29" y="0" style="letter-spacing:0em;">o</tspan><tspan x="17.12" y="0">p </tspan><tspan x="30.46" y="0" style="letter-spacing:0em;">d</tspan><tspan x="39.26" y="0" style="letter-spacing:-.01em;">o</tspan><tspan x="47.95" y="0" style="letter-spacing:0em;">w</tspan><tspan x="59.46" y="0">n</tspan></text><line x1="249.7" y1="338.72" x2="617.15" y2="338.72" style="fill:none; stroke:#1d1d1b; stroke-miterlimit:10;"/><polygon points="251.16 343.71 242.53 338.72 251.16 333.74 251.16 343.71" style="fill:#1d1d1b;"/><polygon points="615.69 343.71 624.32 338.72 615.69 333.74 615.69 343.71" style="fill:#1d1d1b;"/><line x1="249.7" y1="390.13" x2="617.15" y2="390.13" style="fill:none; stroke:#1d1d1b; stroke-miterlimit:10;"/><polygon points="251.16 395.11 242.53 390.13 251.16 385.14 251.16 395.11" style="fill:#1d1d1b;"/><polygon points="615.69 395.11 624.32 390.13 615.69 385.14 615.69 395.11" style="fill:#1d1d1b;"/><circle cx="437.77" cy="338.72" r="8.53" style="fill:#0333ff;"/><circle cx="400.48" cy="389.58" r="8.53" style="fill:#0333ff;"/><path d="m134.96,180.27v-11.45h1.52v10.1h5.64v1.35h-7.16Z" style="fill:#1d1d1b;"/><path d="m149.19,177.59l1.45.18c-.23.85-.65,1.51-1.27,1.98-.62.47-1.41.7-2.38.7-1.21,0-2.18-.37-2.89-1.12-.71-.75-1.07-1.8-1.07-3.14s.36-2.48,1.08-3.25c.72-.77,1.65-1.16,2.8-1.16s2.02.38,2.72,1.13c.7.76,1.05,1.82,1.05,3.19,0,.08,0,.21,0,.38h-6.19c.05.91.31,1.61.77,2.09.46.48,1.04.73,1.73.73.52,0,.96-.14,1.32-.41.36-.27.65-.7.87-1.3Zm-4.62-2.27h4.63c-.06-.7-.24-1.22-.53-1.57-.45-.54-1.03-.81-1.74-.81-.65,0-1.19.22-1.63.65-.44.43-.68,1.01-.73,1.73Z" style="fill:#1d1d1b;"/><path d="m157.71,179.24c-.52.44-1.02.76-1.5.94-.48.18-1,.27-1.55.27-.91,0-1.61-.22-2.1-.67-.49-.45-.73-1.01-.73-1.71,0-.41.09-.78.28-1.11.19-.34.43-.61.73-.81.3-.2.64-.36,1.01-.46.28-.07.69-.14,1.25-.21,1.14-.14,1.97-.3,2.51-.48,0-.19,0-.31,0-.37,0-.57-.13-.98-.4-1.21-.36-.32-.89-.48-1.6-.48-.66,0-1.15.12-1.46.35-.31.23-.55.64-.7,1.23l-1.38-.19c.12-.59.33-1.06.62-1.43.29-.36.7-.64,1.24-.84.54-.2,1.17-.29,1.88-.29s1.28.08,1.73.25c.44.17.77.38.98.63.21.25.35.57.44.96.05.24.07.67.07,1.3v1.88c0,1.31.03,2.13.09,2.48.06.35.18.68.36,1h-1.47c-.15-.29-.24-.63-.28-1.02Zm-.12-3.14c-.51.21-1.28.39-2.3.53-.58.08-.99.18-1.23.28-.24.1-.42.26-.55.46-.13.2-.2.42-.2.67,0,.38.14.69.43.94.28.25.7.38,1.25.38s1.02-.12,1.45-.36c.42-.24.73-.56.93-.97.15-.32.23-.79.23-1.41v-.52Z" style="fill:#1d1d1b;"/><path d="m161.04,180.27v-8.3h1.27v1.26c.32-.59.62-.98.89-1.16s.57-.28.9-.28c.47,0,.96.15,1.45.45l-.48,1.3c-.34-.2-.69-.3-1.03-.3-.31,0-.58.09-.83.28-.25.19-.42.44-.52.77-.16.5-.23,1.05-.23,1.64v4.34h-1.41Z" style="fill:#1d1d1b;"/><path d="m166.51,180.27v-8.3h1.27v1.18c.61-.91,1.49-1.37,2.64-1.37.5,0,.96.09,1.38.27.42.18.73.42.94.71.21.29.35.64.44,1.04.05.26.08.72.08,1.37v5.1h-1.41v-5.05c0-.57-.05-1-.16-1.29-.11-.28-.3-.51-.58-.68-.28-.17-.61-.25-.98-.25-.6,0-1.12.19-1.55.57-.43.38-.65,1.1-.65,2.16v4.53h-1.41Z" style="fill:#1d1d1b;"/><path d="m175.26,170.43v-1.62h1.41v1.62h-1.41Zm0,9.84v-8.3h1.41v8.3h-1.41Z" style="fill:#1d1d1b;"/><path d="m178.66,180.27v-8.3h1.27v1.18c.61-.91,1.49-1.37,2.64-1.37.5,0,.96.09,1.38.27.42.18.73.42.94.71.21.29.35.64.44,1.04.05.26.08.72.08,1.37v5.1h-1.41v-5.05c0-.57-.05-1-.16-1.29-.11-.28-.3-.51-.58-.68-.28-.17-.61-.25-.98-.25-.6,0-1.12.19-1.55.57-.44.38-.65,1.1-.65,2.16v4.53h-1.41Z" style="fill:#1d1d1b;"/><path d="m187.19,180.95l1.37.2c.06.42.21.73.48.92.35.26.82.39,1.43.39.65,0,1.15-.13,1.51-.39.35-.26.59-.62.72-1.09.07-.29.11-.89.1-1.8-.62.72-1.38,1.09-2.3,1.09-1.14,0-2.02-.41-2.65-1.23-.62-.82-.94-1.81-.94-2.96,0-.79.14-1.52.43-2.19.29-.67.7-1.19,1.25-1.55.54-.36,1.18-.55,1.92-.55.98,0,1.79.4,2.42,1.19v-1h1.3v7.17c0,1.29-.13,2.21-.39,2.75-.26.54-.68.96-1.25,1.28s-1.27.47-2.11.47c-.99,0-1.79-.22-2.4-.67s-.9-1.12-.88-2.01Zm1.16-4.98c0,1.09.21,1.88.65,2.38.43.5.97.75,1.62.75s1.19-.25,1.62-.75c.44-.5.66-1.28.66-2.34s-.23-1.78-.68-2.3c-.45-.52-.99-.77-1.63-.77s-1.16.25-1.59.76-.66,1.26-.66,2.26Z" style="fill:#1d1d1b;"/><path d="m207.34,178.91c-.46.52-.97.9-1.52,1.16s-1.14.39-1.77.39c-1.17,0-2.1-.4-2.79-1.19-.56-.65-.84-1.37-.84-2.16,0-.71.23-1.35.68-1.92.46-.57,1.14-1.07,2.04-1.5-.52-.59-.86-1.08-1.03-1.45-.17-.37-.26-.73-.26-1.07,0-.69.27-1.29.81-1.79s1.22-.76,2.04-.76,1.42.24,1.92.72c.5.48.75,1.05.75,1.73,0,1.09-.72,2.02-2.16,2.79l2.05,2.62c.23-.46.42-.99.55-1.59l1.46.31c-.25,1-.59,1.82-1.02,2.47.53.7,1.12,1.28,1.79,1.76l-.95,1.12c-.57-.36-1.15-.9-1.76-1.62Zm-.88-1.11l-2.58-3.2c-.76.45-1.27.87-1.54,1.26-.27.39-.4.77-.4,1.15,0,.46.18.95.55,1.45.37.5.89.75,1.57.75.42,0,.86-.13,1.31-.39.45-.26.81-.6,1.08-1.02Zm-1.98-4.86c.61-.36,1-.67,1.18-.95.18-.27.27-.57.27-.9,0-.39-.12-.71-.37-.96-.25-.25-.56-.37-.93-.37s-.7.12-.95.37c-.25.25-.38.54-.38.9,0,.18.04.36.14.56.09.2.23.4.41.62l.62.73Z" style="fill:#1d1d1b;"/><path d="m118.93,199.47v-11.45h3.95c.89,0,1.57.05,2.04.16.66.15,1.22.42,1.68.82.6.51,1.06,1.16,1.36,1.96.3.79.45,1.7.45,2.72,0,.87-.1,1.64-.3,2.31s-.46,1.23-.78,1.67c-.32.44-.67.79-1.04,1.04-.38.25-.83.44-1.37.57-.53.13-1.15.2-1.84.2h-4.13Zm1.52-1.35h2.45c.75,0,1.35-.07,1.78-.21s.77-.34,1.03-.59c.36-.36.64-.84.84-1.45.2-.61.3-1.34.3-2.21,0-1.2-.2-2.12-.59-2.76-.39-.64-.87-1.07-1.43-1.29-.41-.16-1.06-.23-1.96-.23h-2.41v8.75Z" style="fill:#1d1d1b;"/><path d="m135.96,196.79l1.45.18c-.23.85-.65,1.51-1.27,1.98-.62.47-1.41.7-2.38.7-1.21,0-2.18-.37-2.89-1.12-.71-.75-1.07-1.8-1.07-3.14s.36-2.48,1.08-3.25c.72-.77,1.65-1.16,2.8-1.16s2.02.38,2.72,1.13c.7.76,1.05,1.82,1.05,3.19,0,.08,0,.21,0,.38h-6.19c.05.91.31,1.61.77,2.09.46.48,1.04.73,1.73.73.52,0,.96-.14,1.32-.41.37-.27.65-.7.87-1.3Zm-4.62-2.27h4.63c-.06-.7-.24-1.22-.53-1.57-.45-.54-1.03-.81-1.74-.81-.65,0-1.19.22-1.63.65-.44.43-.68,1.01-.73,1.73Z" style="fill:#1d1d1b;"/><path d="m141.08,199.47l-3.16-8.3h1.48l1.78,4.97c.19.54.37,1.09.53,1.67.12-.44.3-.96.52-1.58l1.84-5.06h1.45l-3.14,8.3h-1.31Z" style="fill:#1d1d1b;"/><path d="m152.09,196.79l1.45.18c-.23.85-.65,1.51-1.27,1.98-.62.47-1.41.7-2.38.7-1.21,0-2.18-.37-2.89-1.12-.71-.75-1.07-1.8-1.07-3.14s.36-2.48,1.08-3.25c.72-.77,1.65-1.16,2.8-1.16s2.02.38,2.72,1.13c.7.76,1.05,1.82,1.05,3.19,0,.08,0,.21,0,.38h-6.19c.05.91.31,1.61.77,2.09.46.48,1.04.73,1.73.73.52,0,.96-.14,1.32-.41.36-.27.65-.7.87-1.3Zm-4.62-2.27h4.63c-.06-.7-.24-1.22-.53-1.57-.45-.54-1.03-.81-1.74-.81-.65,0-1.19.22-1.63.65-.44.43-.68,1.01-.73,1.73Z" style="fill:#1d1d1b;"/><path d="m155.2,199.47v-11.45h1.41v11.45h-1.41Z" style="fill:#1d1d1b;"/><path d="m158.19,195.32c0-1.54.43-2.67,1.28-3.41.71-.61,1.58-.92,2.61-.92,1.14,0,2.07.37,2.8,1.12.72.75,1.09,1.78,1.09,3.1,0,1.07-.16,1.91-.48,2.52-.32.61-.79,1.09-1.4,1.43s-1.28.51-2,.51c-1.16,0-2.1-.37-2.82-1.12-.72-.74-1.07-1.82-1.07-3.22Zm1.45,0c0,1.06.23,1.86.7,2.39.46.53,1.05.79,1.75.79s1.28-.27,1.74-.8.7-1.34.7-2.43c0-1.03-.23-1.8-.7-2.33-.47-.53-1.05-.79-1.74-.79s-1.29.26-1.75.79c-.46.53-.7,1.32-.7,2.38Z" style="fill:#1d1d1b;"/><path d="m167.54,202.65v-11.48h1.28v1.08c.3-.42.64-.74,1.02-.95s.84-.32,1.38-.32c.71,0,1.33.18,1.88.55.54.36.95.88,1.23,1.54s.41,1.39.41,2.18c0,.85-.15,1.61-.46,2.29s-.75,1.2-1.33,1.56-1.19.54-1.83.54c-.47,0-.89-.1-1.26-.3s-.68-.45-.92-.75v4.04h-1.41Zm1.27-7.28c0,1.07.22,1.86.65,2.37.43.51.96.77,1.57.77s1.16-.26,1.61-.79c.45-.53.67-1.35.67-2.46s-.22-1.85-.65-2.38c-.43-.53-.95-.79-1.56-.79s-1.13.28-1.59.84c-.46.56-.69,1.37-.69,2.44Z" style="fill:#1d1d1b;"/><path d="m176.35,199.47v-8.3h1.26v1.16c.26-.41.61-.73,1.04-.98.43-.25.92-.37,1.48-.37.61,0,1.12.13,1.51.38.39.26.67.61.83,1.07.66-.97,1.51-1.45,2.56-1.45.82,0,1.46.23,1.9.68.44.46.66,1.16.66,2.11v5.7h-1.4v-5.23c0-.56-.05-.97-.14-1.21-.09-.25-.26-.45-.5-.6-.24-.15-.52-.23-.84-.23-.58,0-1.07.19-1.45.58-.39.39-.58,1.01-.58,1.86v4.82h-1.41v-5.39c0-.62-.12-1.09-.34-1.41-.23-.31-.6-.47-1.12-.47-.4,0-.76.1-1.1.31-.34.21-.58.51-.73.91-.15.4-.23.98-.23,1.73v4.3h-1.41Z" style="fill:#1d1d1b;"/><path d="m195.27,196.79l1.45.18c-.23.85-.65,1.51-1.27,1.98-.62.47-1.41.7-2.38.7-1.21,0-2.18-.37-2.89-1.12-.71-.75-1.07-1.8-1.07-3.14s.36-2.48,1.08-3.25c.72-.77,1.65-1.16,2.8-1.16s2.02.38,2.72,1.13c.7.76,1.05,1.82,1.05,3.19,0,.08,0,.21,0,.38h-6.19c.05.91.31,1.61.77,2.09.46.48,1.04.73,1.73.73.52,0,.96-.14,1.32-.41.36-.27.65-.7.87-1.3Zm-4.62-2.27h4.63c-.06-.7-.24-1.22-.53-1.57-.45-.54-1.03-.81-1.74-.81-.65,0-1.19.22-1.63.65-.44.43-.68,1.01-.73,1.73Z" style="fill:#1d1d1b;"/><path d="m198.38,199.47v-8.3h1.27v1.18c.61-.91,1.49-1.37,2.64-1.37.5,0,.96.09,1.38.27.42.18.73.42.94.71.21.29.35.64.44,1.04.05.26.08.72.08,1.37v5.1h-1.41v-5.05c0-.57-.05-1-.16-1.29-.11-.28-.3-.51-.58-.68-.28-.17-.61-.25-.98-.25-.6,0-1.12.19-1.55.57-.43.38-.65,1.1-.65,2.16v4.53h-1.41Z" style="fill:#1d1d1b;"/><path d="m210.09,198.21l.2,1.24c-.4.08-.75.12-1.06.12-.51,0-.91-.08-1.19-.24s-.48-.37-.59-.64c-.12-.26-.17-.82-.17-1.66v-4.77h-1.03v-1.09h1.03v-2.05l1.4-.84v2.9h1.41v1.09h-1.41v4.85c0,.4.02.66.07.77.05.11.13.21.24.27.11.07.27.1.48.1.16,0,.36-.02.62-.05Z" style="fill:#1d1d1b;"/><text transform="translate(116.68 242.47)" style="fill:#1d1d1b; font-family:ArialMT, Arial; font-size:16px;"><tspan x="0" y="0" style="letter-spacing:0em;">I</tspan><tspan x="4.31" y="0" style="letter-spacing:0em;">m</tspan><tspan x="17.52" y="0" style="letter-spacing:0em;">pr</tspan><tspan x="31.57" y="0" style="letter-spacing:-.02em;">o</tspan><tspan x="40.11" y="0" style="letter-spacing:0em;">v</tspan><tspan x="48.03" y="0" style="letter-spacing:0em;">i</tspan><tspan x="51.49" y="0" style="letter-spacing:0em;">s</tspan><tspan x="59.43" y="0" style="letter-spacing:-.01em;">a</tspan><tspan x="68.1" y="0" style="letter-spacing:0em;">ti</tspan><tspan x="76" y="0" style="letter-spacing:0em;">o</tspan><tspan x="84.83" y="0">n</tspan></text><text transform="translate(654.08 191.07)" style="fill:#1d1d1b; font-family:ArialMT, Arial; font-size:16px;"><tspan x="0" y="0" style="letter-spacing:-.02em;">P</tspan><tspan x="10.31" y="0" style="letter-spacing:0em;">e</tspan><tspan x="19.11" y="0" style="letter-spacing:.04em;">r</tspan><tspan x="25.01" y="0" style="letter-spacing:0em;">f</tspan><tspan x="29.32" y="0" style="letter-spacing:0em;">o</tspan><tspan x="38.16" y="0" style="letter-spacing:0em;">r</tspan><tspan x="43.61" y="0" style="letter-spacing:0em;">m</tspan><tspan x="56.82" y="0" style="letter-spacing:0em;">an</tspan><tspan x="74.34" y="0" style="letter-spacing:0em;">c</tspan><tspan x="82.47" y="0">e</tspan></text><text transform="translate(654.08 242.47)" style="fill:#1d1d1b; font-family:ArialMT, Arial; font-size:16px;"><tspan x="0" y="0" style="letter-spacing:0em;">S</tspan><tspan x="10.58" y="0" style="letter-spacing:0em;">t</tspan><tspan x="14.99" y="0" style="letter-spacing:0em;">r</tspan><tspan x="20.46" y="0" style="letter-spacing:0em;">u</tspan><tspan x="29.21" y="0" style="letter-spacing:0em;">c</tspan><tspan x="37.26" y="0" style="letter-spacing:0em;">t</tspan><tspan x="41.57" y="0" style="letter-spacing:-.01em;">u</tspan><tspan x="50.31" y="0" style="letter-spacing:0em;">r</tspan><tspan x="55.51" y="0">e</tspan></text><line x1="249.7" y1="186.73" x2="617.15" y2="186.73" style="fill:none; stroke:#1d1d1b; stroke-miterlimit:10;"/><polygon points="251.16 191.72 242.53 186.73 251.16 181.75 251.16 191.72" style="fill:#1d1d1b;"/><polygon points="615.69 191.72 624.32 186.73 615.69 181.75 615.69 191.72" style="fill:#1d1d1b;"/><line x1="249.7" y1="238.14" x2="617.15" y2="238.14" style="fill:none; stroke:#1d1d1b; stroke-miterlimit:10;"/><polygon points="251.16 243.12 242.53 238.14 251.16 233.15 251.16 243.12" style="fill:#1d1d1b;"/><polygon points="615.69 243.12 624.32 238.14 615.69 233.15 615.69 243.12" style="fill:#1d1d1b;"/><circle cx="457.47" cy="186.73" r="8.53" style="fill:#0333ff;"/><circle cx="388.38" cy="238.14" r="8.53" style="fill:#0333ff;"/><text transform="translate(143.92 39.08)" style="fill:#1d1d1b; font-family:ArialMT, Arial; font-size:16px;"><tspan x="0" y="0" style="letter-spacing:0em;">I</tspan><tspan x="4.31" y="0" style="letter-spacing:0em;">n</tspan><tspan x="13.11" y="0" style="letter-spacing:-.01em;">d</tspan><tspan x="21.82" y="0" style="letter-spacing:0em;">i</tspan><tspan x="25.27" y="0" style="letter-spacing:0em;">v</tspan><tspan x="33.19" y="0" style="letter-spacing:0em;">i</tspan><tspan x="36.69" y="0" style="letter-spacing:-.01em;">d</tspan><tspan x="45.41" y="0" style="letter-spacing:0em;">u</tspan><tspan x="54.17" y="0" style="letter-spacing:0em;">a</tspan><tspan x="62.93" y="0">l</tspan></text><text transform="translate(154.35 90.48)" style="fill:#1d1d1b; font-family:ArialMT, Arial; font-size:16px;"><tspan x="0" y="0" style="letter-spacing:0em;">S</tspan><tspan x="10.54" y="0" style="letter-spacing:-.01em;">u</tspan><tspan x="19.27" y="0" style="letter-spacing:0em;">p</tspan><tspan x="28.08" y="0" style="letter-spacing:0em;">p</tspan><tspan x="36.93" y="0" style="letter-spacing:0em;">o</tspan><tspan x="45.77" y="0" style="letter-spacing:.03em;">r</tspan><tspan x="51.61" y="0">t</tspan></text><text transform="translate(654.08 39.08)" style="fill:#1d1d1b; font-family:ArialMT, Arial; font-size:16px;"><tspan x="0" y="0" style="letter-spacing:0em;">C</tspan><tspan x="11.6" y="0" style="letter-spacing:0em;">o</tspan><tspan x="20.44" y="0" style="letter-spacing:0em;">l</tspan><tspan x="23.85" y="0" style="letter-spacing:0em;">l</tspan><tspan x="27.31" y="0" style="letter-spacing:0em;">e</tspan><tspan x="36.13" y="0" style="letter-spacing:0em;">c</tspan><tspan x="44.18" y="0" style="letter-spacing:0em;">t</tspan><tspan x="48.57" y="0" style="letter-spacing:0em;">i</tspan><tspan x="52.03" y="0" style="letter-spacing:-.02em;">v</tspan><tspan x="59.66" y="0">e</tspan></text><text transform="translate(654.08 90.48)" style="fill:#1d1d1b; font-family:ArialMT, Arial; font-size:16px;"><tspan x="0" y="0" style="letter-spacing:0em;">C</tspan><tspan x="11.6" y="0" style="letter-spacing:0em;">o</tspan><tspan x="20.43" y="0" style="letter-spacing:-.01em;">n</tspan><tspan x="29.12" y="0" style="letter-spacing:0em;">f</tspan><tspan x="33.57" y="0" style="letter-spacing:0em;">r</tspan><tspan x="38.81" y="0" style="letter-spacing:0em;">o</tspan><tspan x="47.64" y="0" style="letter-spacing:-.02em;">n</tspan><tspan x="56.28" y="0" style="letter-spacing:0em;">t</tspan><tspan x="60.78" y="0" style="letter-spacing:-.01em;">a</tspan><tspan x="69.45" y="0" style="letter-spacing:0em;">ti</tspan><tspan x="77.35" y="0" style="letter-spacing:0em;">o</tspan><tspan x="86.18" y="0">n</tspan></text><line x1="249.7" y1="34.74" x2="617.15" y2="34.74" style="fill:none; stroke:#1d1d1b; stroke-miterlimit:10;"/><polygon points="251.16 39.73 242.53 34.74 251.16 29.76 251.16 39.73" style="fill:#1d1d1b;"/><polygon points="615.69 39.73 624.32 34.74 615.69 29.76 615.69 39.73" style="fill:#1d1d1b;"/><line x1="249.7" y1="86.15" x2="617.15" y2="86.15" style="fill:none; stroke:#1d1d1b; stroke-miterlimit:10;"/><polygon points="251.16 91.13 242.53 86.15 251.16 81.16 251.16 91.13" style="fill:#1d1d1b;"/><polygon points="615.69 91.13 624.32 86.15 615.69 81.16 615.69 91.13" style="fill:#1d1d1b;"/><circle cx="404.35" cy="34.74" r="8.53" style="fill:#0333ff;"/><circle cx="429.24" cy="86.15" r="8.53" style="fill:#0333ff;"/><path d="m50.39,302.8c-.13,1.27.82,3.04,1.84,1.52.25-.44,1.2.06,1.14.82l-.44.89c1.52.82,3.55,1.84,3.61,1.01l1.33.7c-.06,1.2,1.65,1.33,6.46,5.25l.63-.51c-2.03-1.58-4.18-3.1-6.27-4.37.57-.44,1.14-.32,1.52-.13,16.33,8.86,18.23,21.9,18.23,25.58,0,.44-.19.44-.32.51-.19,0-.32,0-.32.44s.13.38.32.38c.13-.06.32-.13.32.32,0,1.77-1.71,2.6-2.79,3.48l.32.7c-1.52,2.53-4.43,3.67-7.41,3.67-2.53,0-5.19-.63-7.53-1.71-6.33-2.91-17.73-7.66-23.04-10-.63-.76-.89-1.39-.89-1.96.06-1.39,5.19-3.36,6.52-3.86l-.63-.89h1.46c3.36,1.84,8.86,4.49,12.47,6.14-.63.38-1.01.38-1.71.06-.19-.63-.89.25-.51.51,2.22,1.52,3.36-.06,4.68.57.57.25,1.2.57,1.96.89-.25.57.44,1.2,1.08,1.52.19-.38,0-.76-.25-1.14v-.06c.95.44,2.15.95,3.04,1.33-.38.25-.89.32-1.84-.13l-.38.38c.95.51,2.09,1.14,2.85,1.14.44,0,.7-.25.76-.82.63.25,1.27.51,1.77.7,0-12.91-9.62-18.68-20.39-23.87-.57-.19-.25-1.2-.63-1.77-.32-.57-.89-.32-.76.7-2.28-1.01-5.89-2.28-6.9-2.53-.57-.13-.7-.51-.7-1.01,0-.38.51-.82.95-1.39.57-.7.89-1.52,1.01-1.84.7-.32,1.96-.44,3.23-.51,1.52-.06,2.91-.25,3.04-1.58l3.17.89Zm25.83,26.72c-1.46.82-.95,3.1-.19,2.47.32-.25.38-.57.38-1.01s-.13-1.01-.19-1.46Zm-23.05,1.27c.13.06.38.19.44.13l.51-.82c-.63-.44-2.91-1.52-3.55-.89l2.6,1.58Zm21.15-5.76c.38,1.08.19,2.6,1.65,2.47-.25-1.27-.76-2.53-1.33-3.67-.44.19-.44.76-.32,1.2Zm-.76-1.9l.63-.13c-.63-1.33-2.09-3.61-2.98-4.68-.06,1.52,1.14,2.6,2.34,4.81Zm-8.67-9.56c.95.95,1.77,1.77,2.6,1.14l-1.96-1.77-.63.63Z" style="fill:#0333ff;"/><path d="m41.59,261.44c-.44-.7-.76-1.96-.82-3.29-.06-2.28.25-4.05,1.01-5.13l.89,1.27.25-.13c0-.44-.38-1.65-.63-2.03l1.9-1.77c1.52,3.29,5.89,9.18,10.32,12.41.51.38-.25.63,0,1.01,2.28.13,3.48,1.46,5.89,2.98.57.32,1.39.19,2.28.57.38,0,.76.95,1.33,1.14,4.87,1.58,9.94,3.74,15.13,5.76l-1.33,2.85.89.38c-1.08,4.05-2.66,4.43-6.9,5-1.65.19-4.49-.32-5.89.13-4.43,1.52-6.33.06-9.56.44l-2.47.32c.63,1.96,2.53,4.18,5.51,5.82l1.01-.19c5.95,3.17,14.18,6.01,17.98,8.86v1.77c0,1.84-4.24,2.85-4.62,3.61l-2.79.38c-1.96.32-2.66-.25-3.86-.7-10.89-4.49-17.47-11.71-22.6-16.71.7-1.9,3.93-7.09,6.27-7.98,1.9-.76,5.89-1.52,8.48-2.15-7.47-4.3-16.78-10.64-17.28-12.03l-.19-1.33c3.86,3.93,8.42,6.71,10.64,8.23.95.57,1.33.82,1.39.7l.25-.38c-2.85-1.84-8.86-6.08-12.47-9.81Zm4.43,25.07l1.46,1.39c.63-.76-.63-1.46-1.08-1.9l-.38.51Zm20.13-18.87l-.38.57c-.89-.06-2.09-.13-1.77-.89l2.15.32Zm-14.69-5c.76.51,2.09,1.52,2.41.89l-2.03-1.33c-.19-.13-.57.32-.38.44Zm-6.71.32l-1.39-1.08-.25.51c.25.32.7.7,1.33,1.08.13-.06.38-.25.32-.51Zm4.49-1.96l1.65,1.27c-.06-.38.06-.51.32-.57l-1.65-1.14c-.13-.13-.7.13-.32.44Zm-5.25-4.81l.57-.13c-.44-.63-.51-1.2-1.46-1.08l.89,1.2Z" style="fill:#0333ff;"/><path d="m65.77,221.77c.89,1.33,1.14,2.34,1.08,2.98,0,.76-.13.95-.32,1.08,1.14,1.14,2.09-.7.38-5-.06-.32.13-.82.25-.57.57,1.2,1.96,3.86,1.96,4.75,0,1.46.38,2.53.82,3.86,1.39,3.99,3.8,10.32,5.63,14.88.32.82,1.58,2.15,1.65,2.91.13.76.25,2.34.25,3.17,0,.51-.32.89-.7,1.08v1.46c-.95.95-2.91,2.03-2.91,2.85v.76c-11.14-1.08-28.24-12.47-35.64-18.23h-1.01c0-3.54,2.85-5.38,5.89-5.38.76,0,7.98,3.23,10.07,4.37,1.33.76,3.23,2.79,4.75,3.86.82.57,2.47.95,3.36,1.46,1.27.7,2.34,2.85,4.18,2.09-1.33-4.31-1.46-5.13-1.58-5.63-.19-.7-.38-1.52-.38-2.34,0-1.01.32-1.96,1.2-2.47-.32-.32-1.33-2.85-1.33-3.17,0-.89.32-.95.32-1.84,0-.82-1.08-4.12-1.71-6.27.13-.06.25-.32.32-.76h.06c.63,1.96,1.27,4.56,2.28,6.2l.38-.63c-.7-1.96-2.47-5.95-2.98-8.17.25-.76.82-1.65.95-1.71-.38-.95-1.27-2.6-.82-2.66.89-.19,2.79,3.86,3.61,7.09Zm-4.3,23.04c1.14.44,2.22,1.2,2.6.38l-2.41-1.14-.19.76Zm6.65-16.59c.63,3.35,3.23,10.38,5.38,14.75l.25-.06-5.19-15.7-.44,1.01Zm-11.52,12.91c0,.63.76.89,1.14.89v-.89h-1.14Zm9.12-8.1l-.76-1.39c-.19.32-.25,1.01.25,1.77l.51-.38Zm-3.74-12.16c.06.19-.25.7-.32.51l-.38-1.27c-.19-.7.19-.63.32-.32l.38,1.08Zm4.75-1.65c.19.44.06.7-.19.89h-.06c-1.65-3.74-1.9-4.18-1.52-4.69l1.77,3.8Zm-4.56-2.41c-.25.32-.44.63-.57.95-.19-.25-.95-2.47-.63-2.47.38,0,.89,1.08,1.2,1.52Z" style="fill:#0333ff;"/><path d="m47.6,181.99c2.6,5.76,2.79,11.65,4.37,17.22,1.14.7,2.6,1.58,4.3,2.66-.25-2.53-2.41-7.79-2.41-9.62s.63-2.41,2.91-3.74c.7.25,1.33-.06,1.65-.7l1.39.44c.63,3.86,2.15,13.3,3.55,16.46.7,1.65,7.66,3.1,9.12,3.17,1.46-1.96.82-4.94.38-6.77l.63-.38c0-.44-.38-1.01-.76-1.01-.13-.95,1.39-1.27,1.14-2.15-1.14-4.12-2.79-8.99-3.8-12.16-.06-.19-.13-.44.06-.51.32-.13.76.82,1.01,1.33l1.58,4.3c.25-.38.7-1.08.95-1.52.06-.19.19-.06.25.13,1.08,3.17,2.15,7.09,3.04,10.64.44-.95.44-2.34.13-3.55-.7-2.53-1.9-6.01-2.98-9.12-.06-.19-.25-.63.38-.32.63.38,1.08.89,1.39,1.77,1.58,4.12,3.48,9.43,3.48,13.3,0,7.41-3.36,12.66-12.6,12.41-4.68-.13-10.45-3.99-20.13-8.61-1.58.32-3.1.25-4.81-.89.38-3.17-4.5-5-4.5-7.22,0-1.2.95-4.56,1.2-5.38,1.39-.06,2.85.25,4.56,1.14.25-1.08.57-4.12.57-5.51l1.2-.57c0-.32-.38-.89-.38-1.58s.63-2.22.76-3.1c0-.13.13-.25.25-.13,2.28,2.53.89,4.3,2.79,3.86-.76-1.9-1.2-3.48-2.03-5.25-.13-.25-.57-.63-.19-.7.63-.13,1.01,1.01,1.52,1.65Zm22.1,26.78c1.14.25,1.96.32,2.34-.19l-1.71-.32-.63.51Zm-3.61-1.01l2.34.7.57-.44-2.98-.89.06.63Zm-.44-.13v-.06c-.51-.38-1.01-.89-1.65-1.14-.06.82.32,1.08.95,1.2h.7Zm-9.18-3.61l-.13-.82-1.46-.63c0,.44.89,1.27,1.58,1.46Zm-4.24-2.91l1.77,1.08-.19-.82-1.77-1.08.19.82Zm18.99-8.23c1.33,1.77,2.22,3.99,1.01,4.75-.63-2.91-1.58-5.82-2.53-8.17-.13-.25.06-.32.25-.19.89.76,1.33,2.41,1.27,3.61Zm-25.58-5.95l.76-.19-.51-1.14c-.32.06-.38.95-.25,1.33Z" style="fill:#0333ff;"/><path d="m65.33,151.58c1.08.51,3.86.32,5.13,1.65.51-.89,2.09-.38,2.85.44.95-.38,1.65-.63,3.42.7.25.06-.06-.57-.19-.7,2.15.13,3.86.63,5.76,1.27,0,1.96-1.9,3.74-1.52,4.75-1.27-.06-1.77.13-1.77,1.01l-.89-.06c0-.32-.19-.57-.63-.63,0,.32-.19.57-.63.57-1.46-.13-3.29-.89-5.19-1.27,0-.44.82-.44,1.77-.38,0-.44-2.6-1.14-4.05-1.27l-.32.76c1.01.06,2.41.06,2.09.82-.89-.19-3.1-.38-3.86-.57l1.33-1.08c-.76.06-.95-.25-1.9-.13-.13,3.61,5,13.17,6.96,16.02l.82.32.76-.25c2.22,1.08,4.81,2.03,6.14,3.04l-1.71,3.99c-1.96.19-2.79,2.91-4.43,2.22v1.01c-9.56-1.39-19.82-11.97-27.79-17.92-3.93-2.98-6.58-5.95-8.55-8.42-.38-.44.25-2.22-.95-2.34.25-.82,1.01-2.6,1.77-3.55l.38,1.14c1.08.06-.13-1.52.13-1.84,2.03-2.34,5.44-1.01,7.28-2.22.32-.06,5.76.06,6.33,1.01.13-.13.13-.19.25-.38,1.39.38,3.23.89,5,1.01.76.06,2.91-2.34,5.7-2.15.13,1.14.38,2.34.51,3.42Zm5.07,20.07c.44.32.7.44,1.14.7l-2.53-4.81c-.63.82.76,2.91,1.39,4.12Zm-2.66-2.72c.19.51.25.89.44,1.33l1.08.76c-.13-.25-.63-1.71-1.52-2.09Zm-21.65-15.45c.06,1.2,3.61,4.12,7.22,6.84l-.32.32c-.51-.19-.89-.38-1.14-.13,1.14,1.01,1.71,1.46,2.91.89,1.27.95,2.41,1.84,3.42,2.66,1.46,1.14,4.18,2.85,6.27,4.3-.76-1.27-2.09-2.22-3.17-4.75-.95-2.22-1.2-3.55-1.84-5.82-1.65-.19-2.85-.82-3.74-1.08l.95-1.08c-1.96-.76-7.09-1.65-9.94-2.34l-.63.19Zm21.4,11.08h-.06c.06,1.39.19,1.96,1.2,2.22-.32-.57-.7-1.52-1.14-2.22Zm6.39-5.57l.82.25v-.38l-1.01-.25.19.38Zm-15.26-1.96c.76.25.76-.19.7-.63l-.7-.06v.7Zm-1.01-.57l-.06.25.7.25v-.57l-.63.06Zm-7.79-1.84v.57l-1.71-.51-.25-.57,1.96.51Z" style="fill:#0333ff;"/><path d="m40.64,114.68c.57-2.28,2.6-3.42,5-3.23.25-.32.57-.44.89-.44,1.33,0,3.1,2.15,3.61,4.56-1.71,1.33-1.77-.76-2.47-.13,0,6.39,1.27,9.62,5.19,15.13h.95l1.9-2.66c1.9-2.72,2.79-5.38,4.88-7.28l-.44-.7c1.96-1.84,4.37-2.91,6.01-2.79l5.06.38-.25,1.08c2.53,1.84,4.81,5.51,6.46,9.24-.82,1.96-.51,3.04,1.2,2.98,1.14,3.04,1.71,5.76,1.71,6.9,0,.89-1.01,2.41-2.47,3.93-.51,2.53-2.03,3.1-3.17,2.79-1.14.82-2.22,1.39-2.91,1.39-1.58,0-2.53-1.08-3.29-2.09.89-1.08,3.1-2.72,3.1-3.86,0-2.98-1.71-8.86-5.25-12.92h-.63c-1.52,1.58-4.3,2.85-3.54,3.99-2.28,1.71-3.23,2.47-2.41,3.61-.76.89-2.28,2.6-4.05,2.91-2.03.38-4.37,1.14-5.7,1.08-5.19-.38-10.38-10.64-10.38-18.68,0-1.58.06-3.67.25-5.25l.76.06Zm36.85,16.9l.95,2.22.44-.32-.63-1.9h-.76Zm-28.43-5.7c.7,2.28,1.65,4.62,2.66,4.68l-2.6-4.68h-.06Zm1.01-12.35l-1.08-1.58c.76,0,.82.19,1.52,1.01l-.44.57Z" style="fill:#0333ff;"/><path d="m68.18,112.74l.25,1.2c-.19,0-.82-.82-1.33-1.39-.13-.13-.13-.32.13-.19l.95.38Zm7.66-29.25c.44-.82,2.34.32,3.67,1.01,1.77.95,5.25,1.9,5.25,2.85-1.01,1.71-3.48,5.44-6.27,5.44-3.8,0-9.56-2.79-13.04-4.68l-.57.32c0,1.52.76,6.96.76,7.53-.25.19-.44.51-.44.82,0,1.01.76,1.52,1.71,1.9,2.91,1.2,10.38,3.23,13.3,3.86,0,1.33-.7,1.65-1.46,2.41,0,0,.06.06.06.13.06.06.06.13.06.19v.32c0,.25-.13.44-.19.7l-.76-.32c-2.47,3.8-4.81,1.71-9.75.95-.32,1.46-.06,3.48-.06,5.13-1.27-.7-1.52-2.03-2.09-3.17l-.57,1.01-1.52-3.67c-.95-.38-1.39-.89-2.28-1.33-2.09-1.14-5-1.52-7.15-2.66-5.63-2.98-11.78-6.96-16.71-8.93-.19-.25-.51-.06-.51-.89,0-3.36,1.96-3.1,3.67-4.94,2.15-.06,3.67-.51,6.9.44v.44c2.03.63,5.13,2.91,7.91,4.24.57,1.2,1.84,1.96,2.98,1.96l-.38-1.33c-2.09-1.77-2.34-4.3-2.34-6.77,0-.82.38-2.09.7-3.04-4.87-3.93-10.51-6.39-16.08-9.31-.44-.25-.76-.82-.76-1.46,0-2.22,3.23-3.04,5.63-3.04,1.46,0,3.17.19,3.93,1.2,1.77.19,3.48.82,4.3,2.28,1.2-.51,3.55,1.46,5.25,2.41-.25.82.63,1.9,1.39,2.34.76.44,2.22,1.2,3.42,1.77.25.13.57-.38-.06-.7l-1.58-.76c-.63-.32-1.14-.89-1.08-1.46,3.61,2.03,7.28,2.98,10.83,5.44l-.25.7c-.13.25.25.82.63,1.08.44.25,1.2.76,2.09,1.27.89.57,2.41,0,3.04-.06.76.44,1.39,1.33,2.22,1.33.95-.44-.89-1.58-3.8-2.98Zm-8.17,16.84l.19-.57-1.9-.7c0,.57.89.95,1.71,1.27Zm1.96-8.48l.25-.7c1.71.38,2.28,1.27,2.28,1.39l-2.53-.7Zm7.66-4.88l1.27.63.51-.38-2.15-1.08c0,.19,0,.63.38.82Zm-2.47-2.98c.25.13.25.32.06.32l-.7.06-1.39-.95c-.19-.13-.32-.32-.19-.44l.19-.19,2.03,1.2Zm-9.37-3.67l5.07,2.6c-.06-.76-1.14-1.33-1.96-1.71l-3.48-1.71c-.06.25.13.7.38.82Z" style="fill:#0333ff;"/><path d="m804.84,344.49l.25,1.2c-.19,0-.82-.82-1.33-1.39-.13-.13-.13-.32.13-.19l.95.38Zm7.66-29.25c.44-.82,2.34.32,3.67,1.01,1.77.95,5.25,1.9,5.25,2.85-1.01,1.71-3.48,5.44-6.27,5.44-3.8,0-9.56-2.79-13.04-4.68l-.57.32c0,1.52.76,6.96.76,7.53-.25.19-.44.51-.44.82,0,1.01.76,1.52,1.71,1.9,2.91,1.2,10.38,3.23,13.3,3.86,0,1.33-.7,1.65-1.46,2.41.06.06.13.19.13.32v.32c0,.25-.13.44-.19.7l-.76-.32c-2.47,3.8-4.81,1.71-9.75.95-.32,1.46-.06,3.48-.06,5.13-1.27-.7-1.52-2.03-2.09-3.17l-.57,1.01-1.52-3.67c-.95-.38-1.39-.89-2.28-1.33-2.09-1.14-5-1.52-7.15-2.66-5.63-2.98-11.78-6.96-16.71-8.93-.19-.25-.51-.06-.51-.89,0-3.36,1.96-3.1,3.67-4.94,2.15-.06,3.67-.51,6.9.44v.44c2.03.63,5.13,2.91,7.91,4.24.57,1.2,1.84,1.96,2.98,1.96l-.38-1.33c-2.09-1.77-2.34-4.3-2.34-6.77,0-.82.38-2.09.7-3.04-4.87-3.93-10.51-6.39-16.08-9.31-.44-.25-.76-.82-.76-1.46,0-2.22,3.23-3.04,5.63-3.04,1.46,0,3.17.19,3.93,1.2,1.77.19,3.48.82,4.3,2.28,1.2-.51,3.55,1.46,5.25,2.41-.25.82.63,1.9,1.39,2.34.76.44,2.22,1.2,3.42,1.77.25.13.57-.38-.06-.7l-1.58-.76c-.63-.32-1.14-.89-1.08-1.46,3.61,2.03,7.28,2.98,10.83,5.44l-.25.7c-.13.25.25.82.63,1.08.44.25,1.2.76,2.09,1.27.89.57,2.41,0,3.04-.06.76.44,1.39,1.33,2.22,1.33.95-.44-.89-1.58-3.8-2.98Zm-8.17,16.84l.19-.57-1.9-.7c0,.57.89.95,1.71,1.27Zm1.96-8.48l.25-.7c1.71.38,2.28,1.27,2.28,1.39l-2.53-.7Zm7.66-4.88l1.27.63.51-.38-2.15-1.08c0,.19,0,.63.38.82Zm-2.47-2.98c.25.13.25.32.06.32l-.7.06-1.39-.95c-.19-.13-.32-.32-.19-.44l.19-.19,2.03,1.2Zm-9.37-3.67l5.07,2.6c-.06-.76-1.14-1.33-1.96-1.71l-3.48-1.71c-.06.25.13.7.38.82Z" style="fill:#0333ff;"/><path d="m802,272.57c1.08.51,3.86.32,5.13,1.65.51-.89,2.09-.38,2.85.44.95-.38,1.65-.63,3.42.7.25.06-.06-.57-.19-.7,2.15.13,3.86.63,5.76,1.27,0,1.96-1.9,3.74-1.52,4.75-1.27-.06-1.77.13-1.77,1.01l-.89-.06c0-.32-.19-.57-.63-.63,0,.32-.19.57-.63.57-1.46-.13-3.29-.89-5.19-1.27,0-.44.82-.44,1.77-.38,0-.44-2.6-1.14-4.05-1.27l-.32.76c1.01.06,2.41.06,2.09.82-.89-.19-3.1-.38-3.86-.57l1.33-1.08c-.76.06-.95-.25-1.9-.13-.13,3.61,5,13.17,6.96,16.02l.82.32.76-.25c2.22,1.08,4.81,2.03,6.14,3.04l-1.71,3.99c-1.96.19-2.79,2.91-4.43,2.22v1.01c-9.56-1.39-19.82-11.97-27.79-17.92-3.93-2.98-6.58-5.95-8.55-8.42-.38-.44.25-2.22-.95-2.34.25-.82,1.01-2.6,1.77-3.55l.38,1.14c1.08.06-.13-1.52.13-1.84,2.03-2.34,5.44-1.01,7.28-2.22.32-.06,5.76.06,6.33,1.01.13-.13.13-.19.25-.38,1.39.38,3.23.89,5,1.01.76.06,2.91-2.34,5.7-2.15.13,1.14.38,2.34.51,3.42Zm5.07,20.07c.44.32.7.44,1.14.7l-2.53-4.81c-.63.82.76,2.91,1.39,4.12Zm-2.66-2.72c.19.51.25.89.44,1.33l1.08.76c-.13-.25-.63-1.71-1.52-2.09Zm-21.65-15.45c.06,1.2,3.61,4.12,7.22,6.84l-.32.32c-.51-.19-.89-.38-1.14-.13,1.14,1.01,1.71,1.46,2.91.89,1.27.95,2.41,1.84,3.42,2.66,1.46,1.14,4.18,2.85,6.27,4.3-.76-1.27-2.09-2.22-3.17-4.75-.95-2.22-1.2-3.55-1.84-5.82-1.65-.19-2.85-.82-3.74-1.08l.95-1.08c-1.96-.76-7.09-1.65-9.94-2.34l-.63.19Zm21.4,11.08h-.06c.06,1.39.19,1.96,1.2,2.22-.32-.57-.7-1.52-1.14-2.22Zm6.39-5.57l.82.25v-.38l-1.01-.25.19.38Zm-15.26-1.96c.76.25.76-.19.7-.63l-.7-.06v.7Zm-1.01-.57l-.06.25.7.25v-.57l-.63.06Zm-7.79-1.84v.57l-1.71-.51-.25-.57,1.96.51Z" style="fill:#0333ff;"/><path d="m790.79,236.28c1.71,2.72,2.53,1.71,4.43,4.94-1.33.95-.25,2.79,1.52,4.68,5.51-6.01,14.5-12.66,14.5-18.8,0-2.98-.89-6.14-1.27-7.53.19-.7.95-1.71,1.58-2.22.32,1.2.63,2.34,1.08,3.55l.13-.13c0-.82.13-2.09.38-1.71.51.63,1.84,3.04,2.66,5.38.19.51.51-.25.44-.57-.89-2.6-2.72-5.13-4.05-7.09.25-.25.57-.51.82-.63,3.1,3.36,6.27,9.37,6.27,14.12-.82,2.41-1.96,5.13-3.61,6.77-3.04,3.1-15.13,11.59-17.09,15.38,2.28,1.65,7.34,4.24,9.81,5.13.82.38,2.47-.82,3.67-.51,1.39.38,2.41,2.09,3.8,3.48,0,1.2-1.01,2.85-2.34,3.36l-2.6.95c-1.01-1.52-.44.57-1.65.57-3.29,0-26.08-10.38-35.39-16.59,0-5.19,4.43-3.48,6.39-4.43-.82-1.96-1.84-4.49-1.84-6.71,0-1.39.13-2.47.44-3.61l1.01.44c.25-.89.25-1.9-.57-1.9l.51-1.2c.32.06.7.32.89.51.38-.51.38-1.08-.32-1.2,1.2-1.27,2.09-1.77,3.54-1.77.76,0,1.77.32,2.22.82,1.52,1.71,3.29,3.48,5.32,5.82l-.7.7Zm12.72,20.32l3.36,1.84.76-.32-3.61-1.84-.51.32Zm-7.03-12.91l-.57.38c-.51-.7-.89-1.77-.25-2.09l.82,1.71Zm-17.03-6.46l.32-2.03-.44-.32c-.25.7-.13,1.9.13,2.34Zm37.29-9.12c-.25.89.38,1.52.82.06-.19-1.2-.63-2.66-.95-3.55h-.06c0,.32-.32.44-.44.63l.63,2.85Z" style="fill:#0333ff;"/><path d="m778.25,177.95c-.44-.7-.76-1.96-.82-3.29-.06-2.28.25-4.05,1.01-5.13l.89,1.27.25-.13c0-.44-.38-1.65-.63-2.03l1.9-1.77c1.52,3.29,5.89,9.18,10.32,12.41.51.38-.25.63,0,1.01,2.28.13,3.48,1.46,5.89,2.98.57.32,1.39.19,2.28.57.38,0,.76.95,1.33,1.14,4.87,1.58,9.94,3.74,15.13,5.76l-1.33,2.85.89.38c-1.08,4.05-2.66,4.43-6.9,5-1.65.19-4.49-.32-5.89.13-4.43,1.52-6.33.06-9.56.44l-2.47.32c.63,1.96,2.53,4.18,5.51,5.82l1.01-.19c5.95,3.17,14.18,6.01,17.98,8.86v1.77c0,1.84-4.24,2.85-4.62,3.61l-2.79.38c-1.96.32-2.66-.25-3.86-.7-10.89-4.49-17.47-11.71-22.6-16.71.7-1.9,3.93-7.09,6.27-7.98,1.9-.76,5.89-1.52,8.48-2.15-7.47-4.3-16.78-10.64-17.28-12.03l-.19-1.33c3.86,3.93,8.42,6.71,10.64,8.23.95.57,1.33.82,1.39.7l.25-.38c-2.85-1.84-8.86-6.08-12.47-9.81Zm4.43,25.07l1.46,1.39c.63-.76-.63-1.46-1.08-1.9l-.38.51Zm20.13-18.87l-.38.57c-.89-.06-2.09-.13-1.77-.89l2.15.32Zm-14.69-5c.76.51,2.09,1.52,2.41.89l-2.03-1.33c-.19-.13-.57.32-.38.44Zm-6.71.32l-1.39-1.08-.25.51c.25.32.7.7,1.33,1.08.13-.06.38-.25.32-.51Zm4.49-1.96l1.65,1.27c-.06-.38.06-.51.32-.57l-1.65-1.14c-.13-.13-.7.13-.32.44Zm-5.25-4.81l.57-.13c-.44-.63-.51-1.2-1.46-1.08l.89,1.2Z" style="fill:#0333ff;"/><path d="m784.27,138.58c2.6,5.76,2.79,11.65,4.37,17.22,1.14.7,2.6,1.58,4.3,2.66-.25-2.53-2.41-7.79-2.41-9.62s.63-2.41,2.91-3.74c.7.25,1.33-.06,1.65-.7l1.39.44c.63,3.86,2.15,13.3,3.55,16.46.7,1.65,7.66,3.1,9.12,3.17,1.46-1.96.82-4.94.38-6.77l.63-.38c0-.44-.38-1.01-.76-1.01-.13-.95,1.39-1.27,1.14-2.15-1.14-4.12-2.79-8.99-3.8-12.16-.06-.19-.13-.44.06-.51.32-.13.76.82,1.01,1.33l1.58,4.3c.25-.38.7-1.08.95-1.52.06-.19.19-.06.25.13,1.08,3.17,2.15,7.09,3.04,10.64.44-.95.44-2.34.13-3.55-.7-2.53-1.9-6.01-2.98-9.12-.06-.19-.25-.63.38-.32.63.38,1.08.89,1.39,1.77,1.58,4.12,3.48,9.43,3.48,13.3,0,7.41-3.36,12.66-12.6,12.41-4.68-.13-10.45-3.99-20.13-8.61-1.58.32-3.1.25-4.81-.89.38-3.17-4.5-5-4.5-7.22,0-1.2.95-4.56,1.2-5.38,1.39-.06,2.85.25,4.56,1.14.25-1.08.57-4.12.57-5.51l1.2-.57c0-.32-.38-.89-.38-1.58s.63-2.22.76-3.1c0-.13.13-.25.25-.13,2.28,2.53.89,4.3,2.79,3.86-.76-1.9-1.2-3.48-2.03-5.25-.13-.25-.57-.63-.19-.7.63-.13,1.01,1.01,1.52,1.65Zm22.1,26.78c1.14.25,1.96.32,2.34-.19l-1.71-.32-.63.51Zm-3.61-1.01l2.34.7.57-.44-2.98-.89.06.63Zm-.44-.13v-.06c-.51-.38-1.01-.89-1.65-1.14-.06.82.32,1.08.95,1.2h.7Zm-9.18-3.61l-.13-.82-1.46-.63c0,.44.89,1.27,1.58,1.46Zm-4.24-2.91l1.77,1.08-.19-.82-1.77-1.08.19.82Zm18.99-8.23c1.33,1.77,2.22,3.99,1.01,4.75-.63-2.91-1.58-5.82-2.53-8.17-.13-.25.06-.32.25-.19.89.76,1.33,2.41,1.27,3.61Zm-25.58-5.95l.76-.19-.51-1.14c-.32.06-.38.95-.25,1.33Z" style="fill:#0333ff;"/><path d="m777.3,107.52c.57-2.28,2.6-3.42,5-3.23.25-.32.57-.44.89-.44,1.33,0,3.1,2.15,3.61,4.56-1.71,1.33-1.77-.76-2.47-.13,0,6.39,1.27,9.62,5.19,15.13h.95l1.9-2.66c1.9-2.72,2.79-5.38,4.88-7.28l-.44-.7c1.96-1.84,4.37-2.91,6.01-2.79l5.06.38-.25,1.08c2.53,1.84,4.81,5.51,6.46,9.24-.82,1.96-.51,3.04,1.2,2.98,1.14,3.04,1.71,5.76,1.71,6.9,0,.89-1.01,2.41-2.47,3.93-.51,2.53-2.03,3.1-3.17,2.79-1.14.82-2.22,1.39-2.91,1.39-1.58,0-2.53-1.08-3.29-2.09.89-1.08,3.1-2.72,3.1-3.86,0-2.98-1.71-8.86-5.25-12.92h-.63c-1.52,1.58-4.3,2.85-3.54,3.99-2.28,1.71-3.23,2.47-2.41,3.61-.76.89-2.28,2.6-4.05,2.91-2.03.38-4.37,1.14-5.7,1.08-5.19-.38-10.38-10.64-10.38-18.68,0-1.58.06-3.67.25-5.25l.76.06Zm36.85,16.9l.95,2.22.44-.32-.63-1.9h-.76Zm-28.43-5.7c.7,2.28,1.65,4.62,2.66,4.68l-2.6-4.68h-.06Zm1.01-12.35l-1.08-1.58c.76,0,.82.19,1.52,1.01l-.44.57Z" style="fill:#0333ff;"/><path d="m777.3,73.56c.57-2.28,2.6-3.42,5-3.23.25-.32.57-.44.89-.44,1.33,0,3.1,2.15,3.61,4.56-1.71,1.33-1.77-.76-2.47-.13,0,6.39,1.27,9.62,5.19,15.13h.95l1.9-2.66c1.9-2.72,2.79-5.38,4.88-7.28l-.44-.7c1.96-1.84,4.37-2.91,6.01-2.79l5.06.38-.25,1.08c2.53,1.84,4.81,5.51,6.46,9.24-.82,1.96-.51,3.04,1.2,2.98,1.14,3.04,1.71,5.76,1.71,6.9,0,.89-1.01,2.41-2.47,3.93-.51,2.53-2.03,3.1-3.17,2.79-1.14.82-2.22,1.39-2.91,1.39-1.58,0-2.53-1.08-3.29-2.09.89-1.08,3.1-2.72,3.1-3.86,0-2.98-1.71-8.86-5.25-12.92h-.63c-1.52,1.58-4.3,2.85-3.54,3.99-2.28,1.71-3.23,2.47-2.41,3.61-.76.89-2.28,2.6-4.05,2.91-2.03.38-4.37,1.14-5.7,1.08-5.19-.38-10.38-10.64-10.38-18.68,0-1.58.06-3.67.25-5.25l.76.06Zm36.85,16.9l.95,2.22.44-.32-.63-1.9h-.76Zm-28.43-5.7c.7,2.28,1.65,4.62,2.66,4.68l-2.6-4.68h-.06Zm1.01-12.35l-1.08-1.58c.76,0,.82.19,1.52,1.01l-.44.57Z" style="fill:#0333ff;"/><line x1="102.72" y1="136.44" x2="755.39" y2="136.44" style="fill:none; stroke:#c5c5c4; stroke-miterlimit:10; stroke-width:.5px;"/><line x1="102.72" y1="288.43" x2="755.39" y2="288.43" style="fill:none; stroke:#c5c5c4; stroke-miterlimit:10; stroke-width:.5px;"/></svg>