<?xml version="1.0" encoding="UTF-8"?><svg id="maturity" xmlns="http://www.w3.org/2000/svg" viewBox="0 0 425 425"><circle cx="213.53" cy="187.65" r="100" style="fill:#fff; stroke:#0333ff; stroke-miterlimit:10;"/><circle cx="147.93" cy="287.65" r="100" style="fill:#fff; stroke:#0333ff; stroke-miterlimit:10;"/><circle cx="277.07" cy="287.65" r="100" style="fill:#fff; stroke:#0333ff; stroke-miterlimit:10;"/><path d="m177.3,280.88c1.86-27.87,15.14-52.6,35.2-69.58-17.42-14.75-39.95-23.64-64.57-23.64-12.02,0-23.54,2.12-34.22,6.01,2.36,39.84,28.04,73.4,63.58,87.22Z" style="fill:#4266ff;"/><path d="m212.5,211.29c20.24,17.13,33.58,42.17,35.25,70.35,36.36-13.24,62.86-46.97,65.55-87.22-11.24-4.37-23.45-6.77-36.23-6.77-24.61,0-47.14,8.9-64.57,23.64Z" style="fill:#4266ff;"/><path d="m247.93,287.65c0-2.02-.07-4.02-.19-6.01-10.67,3.89-22.2,6.01-34.22,6.01-12.78,0-25-2.4-36.23-6.77-.15,2.24-.23,4.5-.23,6.77,0,30.62,13.76,58.01,35.43,76.36,21.67-18.34,35.43-45.74,35.43-76.36Z" style="fill:#4266ff;"/><path d="m212.5,211.29c-20.06,16.98-33.34,41.72-35.2,69.58,11.23,4.37,23.45,6.77,36.23,6.77,12.02,0,23.54-2.12,34.22-6.01-1.67-28.18-15.01-53.21-35.25-70.35Z" style="fill:#0333ff;"/><text transform="translate(176.67 143.88)" style="fill:#1d1d1b; font-family:Arial-BoldMT, Arial; font-size:18px; font-weight:700;"><tspan x="0" y="0" style="letter-spacing:-.02em;">P</tspan><tspan x="11.66" y="0" style="letter-spacing:0em;">u</tspan><tspan x="22.6" y="0" style="letter-spacing:0em;">r</tspan><tspan x="29.76" y="0" style="letter-spacing:0em;">p</tspan><tspan x="40.79" y="0" style="letter-spacing:0em;">o</tspan><tspan x="51.76" y="0" style="letter-spacing:0em;">s</tspan><tspan x="61.66" y="0">e</tspan></text><path d="m79.87,309.48l2.53-.25c.15.85.46,1.47.93,1.87.46.4,1.09.6,1.88.6.84,0,1.47-.18,1.89-.53.42-.35.64-.77.64-1.24,0-.3-.09-.56-.27-.78-.18-.21-.49-.4-.94-.56-.3-.11-1-.29-2.08-.56-1.39-.35-2.37-.77-2.94-1.27-.79-.71-1.19-1.57-1.19-2.59,0-.66.19-1.27.56-1.84s.91-1.01,1.61-1.31c.7-.3,1.54-.45,2.54-.45,1.62,0,2.83.35,3.65,1.06.82.71,1.25,1.66,1.29,2.84l-2.6.11c-.11-.66-.35-1.14-.72-1.43s-.92-.44-1.65-.44-1.35.16-1.78.47c-.28.2-.41.47-.41.8,0,.3.13.57.39.78.33.28,1.12.56,2.39.86s2.2.61,2.81.93c.61.32,1.08.76,1.42,1.31.34.55.51,1.24.51,2.05,0,.74-.21,1.43-.62,2.07s-.99,1.12-1.74,1.44-1.68.47-2.8.47c-1.63,0-2.88-.38-3.75-1.13s-1.39-1.85-1.56-3.29Z" style="fill:#1d1d1b;"/><path d="m94.89,300.79v4.74c.8-.93,1.75-1.4,2.86-1.4.57,0,1.08.11,1.54.32s.8.48,1.03.81.39.69.47,1.09.13,1.02.13,1.85v5.48h-2.47v-4.93c0-.98-.05-1.6-.14-1.86s-.26-.47-.5-.63c-.24-.16-.54-.23-.89-.23-.41,0-.78.1-1.1.3s-.56.5-.71.9c-.15.4-.22.99-.22,1.78v4.68h-2.47v-12.88h2.47Z" style="fill:#1d1d1b;"/><path d="m105.22,307.19l-2.24-.4c.25-.9.69-1.57,1.3-2s1.53-.65,2.74-.65c1.1,0,1.92.13,2.46.39s.92.59,1.14.99c.22.4.33,1.14.33,2.21l-.03,2.88c0,.82.04,1.43.12,1.81.08.39.23.81.44,1.25h-2.44c-.06-.16-.14-.41-.24-.73-.04-.15-.07-.24-.09-.29-.42.41-.87.72-1.35.92s-.99.31-1.54.31c-.96,0-1.72-.26-2.27-.78-.55-.52-.83-1.18-.83-1.98,0-.53.13-1,.38-1.41s.6-.73,1.06-.95,1.11-.41,1.96-.58c1.15-.22,1.95-.42,2.4-.61v-.25c0-.47-.12-.81-.35-1.02s-.68-.3-1.33-.3c-.44,0-.78.09-1.03.26s-.45.48-.6.91Zm3.3,2c-.32.11-.82.23-1.5.38s-1.13.29-1.34.43c-.32.23-.48.52-.48.87s.13.64.39.9.59.38.98.38c.45,0,.87-.15,1.27-.44.3-.22.5-.5.59-.82.06-.21.1-.61.1-1.2v-.49Z" style="fill:#1d1d1b;"/><path d="m115.76,313.67h-2.47v-9.33h2.29v1.33c.39-.63.75-1.04,1.06-1.24s.67-.3,1.07-.3c.56,0,1.1.16,1.63.47l-.76,2.15c-.42-.27-.8-.4-1.16-.4s-.64.1-.88.29-.43.53-.57,1.03c-.14.5-.21,1.54-.21,3.13v2.88Z" style="fill:#1d1d1b;"/><path d="m125.77,310.7l2.46.41c-.32.9-.82,1.59-1.5,2.06-.68.47-1.54.71-2.56.71-1.62,0-2.82-.53-3.6-1.59-.62-.85-.92-1.92-.92-3.22,0-1.55.4-2.76,1.21-3.63s1.83-1.31,3.07-1.31c1.39,0,2.48.46,3.29,1.38s1.19,2.32,1.15,4.21h-6.19c.02.73.22,1.3.6,1.71s.86.61,1.42.61c.39,0,.71-.11.98-.32s.46-.55.6-1.02Zm.14-2.5c-.02-.71-.2-1.26-.55-1.63s-.78-.56-1.28-.56c-.54,0-.98.2-1.34.59s-.52.93-.52,1.6h3.69Z" style="fill:#1d1d1b;"/><path d="m138.92,313.67h-2.29v-1.37c-.38.53-.83.93-1.35,1.19-.52.26-1.04.39-1.57.39-1.07,0-1.99-.43-2.76-1.3-.76-.86-1.15-2.07-1.15-3.62s.37-2.78,1.12-3.61,1.68-1.23,2.82-1.23c1.04,0,1.95.43,2.71,1.3v-4.64h2.47v12.88Zm-6.59-4.87c0,1,.14,1.72.41,2.16.4.64.96.97,1.67.97.57,0,1.05-.24,1.45-.73s.6-1.21.6-2.17c0-1.07-.19-1.84-.58-2.32s-.88-.71-1.49-.71-1.08.23-1.47.7c-.39.47-.59,1.16-.59,2.09Z" style="fill:#1d1d1b;"/><path d="m85.67,335.27l-3.76-9.33h2.59l1.76,4.76.51,1.59c.13-.4.22-.67.25-.8.08-.26.17-.53.26-.79l1.78-4.76h2.54l-3.71,9.33h-2.22Z" style="fill:#1d1d1b;"/><path d="m94.65,328.79l-2.24-.4c.25-.9.69-1.57,1.3-2s1.53-.65,2.74-.65c1.1,0,1.92.13,2.46.39s.92.59,1.14.99c.22.4.33,1.14.33,2.21l-.03,2.88c0,.82.04,1.43.12,1.81.08.39.23.81.44,1.25h-2.44c-.06-.16-.14-.41-.24-.73-.04-.15-.07-.24-.09-.29-.42.41-.87.72-1.35.92s-.99.31-1.54.31c-.96,0-1.72-.26-2.27-.78-.55-.52-.83-1.18-.83-1.98,0-.53.13-1,.38-1.41s.6-.73,1.06-.95,1.11-.41,1.96-.58c1.15-.22,1.95-.42,2.4-.61v-.25c0-.47-.12-.81-.35-1.02s-.68-.3-1.33-.3c-.44,0-.78.09-1.03.26s-.45.48-.6.91Zm3.3,2c-.32.11-.82.23-1.5.38s-1.13.29-1.34.43c-.32.23-.48.52-.48.87s.13.64.39.9.59.38.98.38c.45,0,.87-.15,1.27-.44.3-.22.5-.5.59-.82.06-.21.1-.61.1-1.2v-.49Z" style="fill:#1d1d1b;"/><path d="m102.77,335.27v-12.88h2.47v12.88h-2.47Z" style="fill:#1d1d1b;"/><path d="m113.83,335.27v-1.4c-.34.5-.79.89-1.34,1.18-.55.29-1.14.43-1.75.43s-1.19-.14-1.69-.41-.86-.66-1.08-1.16-.33-1.19-.33-2.07v-5.91h2.47v4.29c0,1.31.04,2.12.14,2.41.09.3.26.53.5.7s.54.26.91.26c.42,0,.8-.12,1.13-.35s.56-.52.69-.86.18-1.18.18-2.52v-3.94h2.47v9.33h-2.29Z" style="fill:#1d1d1b;"/><path d="m124.13,332.3l2.46.41c-.32.9-.82,1.59-1.5,2.06-.68.47-1.54.71-2.56.71-1.62,0-2.82-.53-3.6-1.59-.62-.85-.92-1.92-.92-3.22,0-1.55.4-2.76,1.21-3.63s1.83-1.31,3.07-1.31c1.39,0,2.48.46,3.29,1.38s1.19,2.32,1.15,4.21h-6.19c.02.73.22,1.3.6,1.71s.86.61,1.42.61c.39,0,.71-.11.98-.32s.46-.55.6-1.02Zm.14-2.5c-.02-.71-.2-1.26-.55-1.63s-.78-.56-1.28-.56c-.54,0-.98.2-1.34.59s-.52.93-.52,1.6h3.69Z" style="fill:#1d1d1b;"/><path d="m127.88,332.61l2.48-.38c.11.48.32.85.64,1.09s.77.37,1.35.37c.64,0,1.12-.12,1.44-.35.22-.16.33-.38.33-.66,0-.19-.06-.34-.18-.47-.12-.12-.4-.23-.83-.33-1.99-.44-3.25-.84-3.79-1.2-.74-.5-1.11-1.2-1.11-2.1,0-.81.32-1.49.96-2.04s1.63-.83,2.97-.83,2.23.21,2.85.62,1.05,1.03,1.28,1.85l-2.33.43c-.1-.36-.29-.64-.57-.83s-.67-.29-1.19-.29c-.65,0-1.12.09-1.4.27-.19.13-.28.3-.28.5,0,.18.08.33.25.45.22.16.99.4,2.31.69s2.23.67,2.76,1.1c.52.44.77,1.05.77,1.84,0,.86-.36,1.59-1.07,2.21s-1.77.92-3.17.92c-1.27,0-2.28-.26-3.02-.77-.74-.52-1.23-1.22-1.46-2.1Z" style="fill:#1d1d1b;"/><path d="m269.45,313.67v-12.88h5.48c1.38,0,2.38.12,3,.35.62.23,1.12.64,1.5,1.23s.56,1.27.56,2.03c0,.97-.28,1.77-.85,2.4s-1.42,1.03-2.55,1.19c.56.33,1.03.69,1.39,1.08s.86,1.09,1.48,2.09l1.57,2.51h-3.11l-1.88-2.8c-.67-1-1.12-1.63-1.37-1.89s-.51-.44-.78-.54-.71-.15-1.31-.15h-.53v5.38h-2.6Zm2.6-7.44h1.92c1.25,0,2.03-.05,2.34-.16s.55-.29.73-.54.26-.58.26-.97c0-.43-.12-.78-.35-1.05s-.56-.44-.98-.51c-.21-.03-.84-.04-1.9-.04h-2.03v3.27Z" style="fill:#1d1d1b;"/><path d="m288.28,313.67v-1.4c-.34.5-.79.89-1.34,1.18-.55.29-1.14.43-1.75.43s-1.19-.14-1.69-.41-.86-.66-1.08-1.16-.33-1.19-.33-2.07v-5.91h2.47v4.29c0,1.31.04,2.12.14,2.41.09.3.26.53.5.7s.54.26.91.26c.42,0,.8-.12,1.13-.35s.56-.52.69-.86.18-1.18.18-2.52v-3.94h2.47v9.33h-2.29Z" style="fill:#1d1d1b;"/><path d="m293.01,313.67v-12.88h2.47v12.88h-2.47Z" style="fill:#1d1d1b;"/><path d="m303.47,310.7l2.46.41c-.32.9-.82,1.59-1.5,2.06-.68.47-1.54.71-2.56.71-1.62,0-2.82-.53-3.6-1.59-.62-.85-.92-1.92-.92-3.22,0-1.55.4-2.76,1.21-3.63s1.83-1.31,3.07-1.31c1.39,0,2.48.46,3.29,1.38s1.19,2.32,1.15,4.21h-6.19c.02.73.22,1.3.6,1.71s.86.61,1.42.61c.39,0,.71-.11.98-.32s.46-.55.6-1.02Zm.14-2.5c-.02-.71-.2-1.26-.55-1.63s-.78-.56-1.28-.56c-.54,0-.98.2-1.34.59s-.52.93-.52,1.6h3.69Z" style="fill:#1d1d1b;"/><path d="m307.21,311.01l2.48-.38c.11.48.32.85.64,1.09s.77.37,1.35.37c.64,0,1.12-.12,1.44-.35.22-.16.33-.38.33-.66,0-.19-.06-.34-.18-.47-.12-.12-.4-.23-.83-.33-1.99-.44-3.25-.84-3.79-1.2-.74-.5-1.11-1.2-1.11-2.1,0-.81.32-1.49.96-2.04s1.63-.83,2.97-.83,2.23.21,2.85.62,1.05,1.03,1.28,1.85l-2.33.43c-.1-.36-.29-.64-.57-.83s-.67-.29-1.19-.29c-.65,0-1.12.09-1.4.27-.19.13-.28.3-.28.5,0,.18.08.33.25.45.22.16.99.4,2.31.69s2.23.67,2.76,1.1c.52.44.77,1.05.77,1.84,0,.86-.36,1.59-1.07,2.21s-1.77.92-3.17.92c-1.27,0-2.28-.26-3.02-.77-.74-.52-1.23-1.22-1.46-2.1Z" style="fill:#1d1d1b;"/><path d="m322.52,308.88c0-.82.2-1.61.61-2.38s.98-1.35,1.72-1.76,1.57-.61,2.48-.61c1.41,0,2.57.46,3.47,1.38s1.35,2.08,1.35,3.48-.46,2.58-1.37,3.51-2.06,1.39-3.44,1.39c-.86,0-1.67-.19-2.45-.58s-1.37-.95-1.77-1.7-.61-1.66-.61-2.73Zm2.53.13c0,.93.22,1.63.66,2.13s.98.74,1.63.74,1.18-.25,1.62-.74.66-1.21.66-2.14-.22-1.62-.66-2.11-.98-.74-1.62-.74-1.19.25-1.63.74-.66,1.2-.66,2.13Z" style="fill:#1d1d1b;"/><path d="m332.92,304.34h1.37v-.7c0-.79.08-1.37.25-1.76.17-.39.47-.7.92-.94.45-.24,1.01-.36,1.7-.36s1.39.11,2.07.32l-.33,1.72c-.39-.09-.77-.14-1.13-.14s-.61.08-.77.25c-.16.17-.23.49-.23.96v.66h1.85v1.94h-1.85v7.39h-2.47v-7.39h-1.37v-1.94Z" style="fill:#1d1d1b;"/><path d="m257.15,332.3l2.46.41c-.32.9-.82,1.59-1.5,2.06-.68.47-1.54.71-2.56.71-1.62,0-2.82-.53-3.6-1.59-.62-.85-.92-1.92-.92-3.22,0-1.55.4-2.76,1.21-3.63s1.83-1.31,3.07-1.31c1.39,0,2.48.46,3.29,1.38s1.19,2.32,1.15,4.21h-6.19c.02.73.22,1.3.6,1.71s.86.61,1.42.61c.39,0,.71-.11.98-.32s.46-.55.6-1.02Zm.14-2.5c-.02-.71-.2-1.26-.55-1.63s-.78-.56-1.28-.56c-.54,0-.98.2-1.34.59s-.52.93-.52,1.6h3.69Z" style="fill:#1d1d1b;"/><path d="m270.18,335.27h-2.47v-4.76c0-1.01-.05-1.66-.16-1.96s-.28-.53-.51-.69c-.24-.16-.52-.25-.86-.25-.43,0-.81.12-1.15.35s-.57.54-.7.93c-.13.39-.19,1.1-.19,2.14v4.23h-2.47v-9.33h2.29v1.37c.81-1.05,1.84-1.58,3.08-1.58.54,0,1.04.1,1.49.29s.79.45,1.02.75.39.65.48,1.04c.09.39.14.94.14,1.66v5.8Z" style="fill:#1d1d1b;"/><path d="m272.41,335.89l2.82.34c.05.33.16.55.33.68.23.18.6.26,1.11.26.64,0,1.13-.1,1.45-.29.22-.13.38-.34.49-.62.08-.21.11-.58.11-1.13v-1.36c-.74,1.01-1.67,1.51-2.79,1.51-1.25,0-2.25-.53-2.98-1.59-.57-.84-.86-1.88-.86-3.13,0-1.56.38-2.76,1.13-3.59s1.69-1.24,2.81-1.24,2.11.51,2.86,1.52v-1.31h2.31v8.38c0,1.1-.09,1.92-.27,2.47s-.44.97-.76,1.28-.77.55-1.31.73-1.24.26-2.08.26c-1.58,0-2.7-.27-3.37-.81s-.99-1.23-.99-2.06c0-.08,0-.18,0-.3Zm2.21-5.48c0,.99.19,1.72.58,2.18.38.46.86.69,1.42.69.6,0,1.11-.24,1.53-.71s.62-1.17.62-2.1-.2-1.68-.6-2.15-.9-.7-1.51-.7-1.08.23-1.46.69c-.38.46-.58,1.16-.58,2.1Z" style="fill:#1d1d1b;"/><path d="m285.52,328.79l-2.24-.4c.25-.9.69-1.57,1.3-2s1.53-.65,2.74-.65c1.1,0,1.92.13,2.46.39s.92.59,1.14.99c.22.4.33,1.14.33,2.21l-.03,2.88c0,.82.04,1.43.12,1.81.08.39.23.81.44,1.25h-2.44c-.06-.16-.14-.41-.24-.73-.04-.15-.07-.24-.09-.29-.42.41-.87.72-1.35.92s-.99.31-1.54.31c-.96,0-1.72-.26-2.27-.78-.55-.52-.83-1.18-.83-1.98,0-.53.13-1,.38-1.41s.6-.73,1.06-.95,1.11-.41,1.96-.58c1.15-.22,1.95-.42,2.4-.61v-.25c0-.47-.12-.81-.35-1.02s-.68-.3-1.33-.3c-.44,0-.78.09-1.03.26s-.45.48-.6.91Zm3.3,2c-.32.11-.82.23-1.5.38s-1.13.29-1.34.43c-.32.23-.48.52-.48.87s.13.64.39.9.59.38.98.38c.45,0,.87-.15,1.27-.44.3-.22.5-.5.59-.82.06-.21.1-.61.1-1.2v-.49Z" style="fill:#1d1d1b;"/><path d="m293.39,335.89l2.82.34c.05.33.16.55.33.68.23.18.6.26,1.11.26.64,0,1.13-.1,1.45-.29.22-.13.38-.34.49-.62.08-.21.11-.58.11-1.13v-1.36c-.74,1.01-1.67,1.51-2.79,1.51-1.25,0-2.25-.53-2.98-1.59-.57-.84-.86-1.88-.86-3.13,0-1.56.38-2.76,1.13-3.59s1.69-1.24,2.81-1.24,2.11.51,2.86,1.52v-1.31h2.31v8.38c0,1.1-.09,1.92-.27,2.47s-.44.97-.76,1.28-.77.55-1.31.73-1.24.26-2.08.26c-1.58,0-2.7-.27-3.37-.81s-.99-1.23-.99-2.06c0-.08,0-.18,0-.3Zm2.21-5.48c0,.99.19,1.72.58,2.18.38.46.86.69,1.42.69.6,0,1.11-.24,1.53-.71s.62-1.17.62-2.1-.2-1.68-.6-2.15-.9-.7-1.51-.7-1.08.23-1.46.69c-.38.46-.58,1.16-.58,2.1Z" style="fill:#1d1d1b;"/><path d="m310.12,332.3l2.46.41c-.32.9-.82,1.59-1.5,2.06-.68.47-1.54.71-2.56.71-1.62,0-2.82-.53-3.6-1.59-.62-.85-.92-1.92-.92-3.22,0-1.55.4-2.76,1.21-3.63s1.83-1.31,3.07-1.31c1.39,0,2.48.46,3.29,1.38s1.19,2.32,1.15,4.21h-6.19c.02.73.22,1.3.6,1.71s.86.61,1.42.61c.39,0,.71-.11.98-.32s.46-.55.6-1.02Zm.14-2.5c-.02-.71-.2-1.26-.55-1.63s-.78-.56-1.28-.56c-.54,0-.98.2-1.34.59s-.52.93-.52,1.6h3.69Z" style="fill:#1d1d1b;"/><path d="m314.56,325.94h2.28v1.27c.81-.99,1.78-1.49,2.91-1.49.6,0,1.12.12,1.56.37s.8.62,1.08,1.12c.41-.5.85-.87,1.33-1.12s.98-.37,1.52-.37c.69,0,1.27.14,1.74.42s.83.69,1.06,1.23c.17.4.25,1.04.25,1.93v5.97h-2.47v-5.33c0-.93-.08-1.52-.25-1.79-.23-.35-.58-.53-1.05-.53-.35,0-.67.11-.98.32s-.52.52-.66.93-.2,1.05-.2,1.93v4.48h-2.47v-5.12c0-.91-.04-1.49-.13-1.76s-.22-.46-.41-.59c-.18-.13-.43-.19-.75-.19-.38,0-.72.1-1.03.31s-.52.5-.65.89c-.13.39-.2,1.03-.2,1.92v4.54h-2.47v-9.33Z" style="fill:#1d1d1b;"/><path d="m336.19,332.3l2.46.41c-.32.9-.82,1.59-1.5,2.06-.68.47-1.54.71-2.56.71-1.62,0-2.82-.53-3.6-1.59-.62-.85-.92-1.92-.92-3.22,0-1.55.4-2.76,1.21-3.63s1.83-1.31,3.07-1.31c1.39,0,2.48.46,3.29,1.38s1.19,2.32,1.15,4.21h-6.19c.02.73.22,1.3.6,1.71s.86.61,1.42.61c.39,0,.71-.11.98-.32s.46-.55.6-1.02Zm.14-2.5c-.02-.71-.2-1.26-.55-1.63s-.78-.56-1.28-.56c-.54,0-.98.2-1.34.59s-.52.93-.52,1.6h3.69Z" style="fill:#1d1d1b;"/><path d="m349.22,335.27h-2.47v-4.76c0-1.01-.05-1.66-.16-1.96s-.28-.53-.51-.69c-.24-.16-.52-.25-.86-.25-.43,0-.81.12-1.15.35s-.57.54-.7.93c-.13.39-.19,1.1-.19,2.14v4.23h-2.47v-9.33h2.29v1.37c.81-1.05,1.84-1.58,3.08-1.58.54,0,1.04.1,1.49.29s.79.45,1.02.75.39.65.48,1.04c.09.39.14.94.14,1.66v5.8Z" style="fill:#1d1d1b;"/><path d="m355.96,325.94v1.97h-1.69v3.76c0,.76.02,1.21.05,1.33.03.13.11.23.22.31.12.08.25.12.42.12.23,0,.56-.08.99-.24l.21,1.92c-.57.25-1.22.37-1.95.37-.45,0-.85-.07-1.2-.22s-.62-.34-.79-.58c-.17-.24-.28-.56-.35-.96-.05-.29-.08-.87-.08-1.74v-4.07h-1.13v-1.97h1.13v-1.85l2.48-1.44v3.3h1.69Z" style="fill:#1d1d1b;"/><text transform="translate(164 241.3)" style="fill:#fff; font-family:Arial-BoldMT, Arial; font-size:18px; font-weight:700;"><tspan x="0" y="0" style="letter-spacing:0em;">C</tspan><tspan x="12.84" y="0" style="letter-spacing:0em;">o</tspan><tspan x="23.88" y="0" style="letter-spacing:0em;">m</tspan><tspan x="39.9" y="0" style="letter-spacing:0em;">m</tspan><tspan x="55.81" y="0" style="letter-spacing:0em;">u</tspan><tspan x="66.71" y="0" style="letter-spacing:0em;">n</tspan><tspan x="77.61" y="0" style="letter-spacing:0em;">i</tspan><tspan x="82.68" y="0" style="letter-spacing:.02em;">t</tspan><tspan x="89.06" y="0">y</tspan><tspan x="19.64" y="27.6" style="letter-spacing:0em;">c</tspan><tspan x="29.57" y="27.6" style="letter-spacing:0em;">u</tspan><tspan x="40.45" y="27.6" style="letter-spacing:0em;">l</tspan><tspan x="45.52" y="27.6">t</tspan><tspan x="51.52" y="27.6" style="letter-spacing:0em;">u</tspan><tspan x="62.46" y="27.6" style="letter-spacing:0em;">r</tspan><tspan x="69.42" y="27.6" style="letter-spacing:0em;">e</tspan></text><text transform="translate(107.59 54.17)" style="font-family:FloodStd, &apos;Flood Std&apos;; font-size:32px;"><tspan x="0" y="0" style="letter-spacing:0em;">W</tspan><tspan x="27.28" y="0" style="letter-spacing:-.01em;">i</tspan><tspan x="38.44" y="0" style="letter-spacing:.02em;">l</tspan><tspan x="58.79" y="0" style="letter-spacing:.02em;">l</tspan><tspan x="79.15" y="0" style="letter-spacing:0em;">i</tspan><tspan x="90.39" y="0" style="letter-spacing:0em;">n</tspan><tspan x="114.35" y="0" style="letter-spacing:0em;">g</tspan><tspan x="133.33" y="0" style="letter-spacing:0em;">n</tspan><tspan x="157.56" y="0" style="letter-spacing:.03em;">e</tspan><tspan x="175.78" y="0" style="letter-spacing:.02em;">s</tspan><tspan x="193.01" y="0">s</tspan></text></svg>