<?xml version="1.0" encoding="UTF-8"?><svg id="Ebene_1" xmlns="http://www.w3.org/2000/svg" viewBox="0 0 988 525"><path d="M553.06,271.04c0,32.49-26.34,58.83-58.83,58.83s-58.83-26.34-58.83-58.83,26.34-58.83,58.83-58.83,58.83,26.34,58.83,58.83" style="fill:#0333ff;"/><text transform="translate(461.49 100.5)" style="fill:#1d1d1b; font-family:ArialMT, Arial; font-size:14px;"><tspan x="0" y="0" style="letter-spacing:-.01em;">P</tspan><tspan x="9.14" y="0" style="letter-spacing:0em;">r</tspan><tspan x="13.74" y="0" style="letter-spacing:0em;">o</tspan><tspan x="21.5" y="0" style="letter-spacing:0em;">c</tspan><tspan x="28.63" y="0" style="letter-spacing:0em;">e</tspan><tspan x="36.37" y="0">s</tspan><tspan x="43.37" y="0" style="letter-spacing:0em;">s</tspan><tspan x="50.28" y="0" style="letter-spacing:0em;">e</tspan><tspan x="58.02" y="0">s</tspan></text><text transform="translate(374.21 424.07)" style="fill:#1d1d1b; font-family:ArialMT, Arial; font-size:14px;"><tspan x="0" y="0" style="letter-spacing:0em;">C</tspan><tspan x="9.97" y="0" style="letter-spacing:0em;">ul</tspan><tspan x="20.6" y="0" style="letter-spacing:0em;">t</tspan><tspan x="24.38" y="0" style="letter-spacing:0em;">u</tspan><tspan x="32.03" y="0" style="letter-spacing:0em;">r</tspan><tspan x="36.6" y="0" style="letter-spacing:-.02em;">e</tspan><tspan x="44.1" y="0">, </tspan><tspan x="51.88" y="0" style="letter-spacing:-.02em;">e</tspan><tspan x="59.44" y="0" style="letter-spacing:0em;">t</tspan><tspan x="63.3" y="0" style="letter-spacing:0em;">h</tspan><tspan x="70.96" y="0" style="letter-spacing:0em;">i</tspan><tspan x="73.99" y="0" style="letter-spacing:.01em;">c</tspan><tspan x="81.18" y="0">s</tspan><tspan x="4.09" y="16.2" style="letter-spacing:0em;">a</tspan><tspan x="11.75" y="16.2" style="letter-spacing:0em;">n</tspan><tspan x="19.46" y="16.2">d </tspan><tspan x="31.13" y="16.2" style="letter-spacing:0em;">b</tspan><tspan x="38.86" y="16.2" style="letter-spacing:0em;">e</tspan><tspan x="46.56" y="16.2" style="letter-spacing:0em;">h</tspan><tspan x="54.23" y="16.2" style="letter-spacing:-.02em;">a</tspan><tspan x="61.68" y="16.2" style="letter-spacing:0em;">v</tspan><tspan x="68.62" y="16.2" style="letter-spacing:0em;">i</tspan><tspan x="71.7" y="16.2" style="letter-spacing:0em;">o</tspan><tspan x="79.44" y="16.2">r</tspan></text><text transform="translate(535.05 432.17)" style="fill:#1d1d1b; font-family:ArialMT, Arial; font-size:14px;"><tspan x="0" y="0" style="letter-spacing:0em;">I</tspan><tspan x="3.78" y="0" style="letter-spacing:-.01em;">n</tspan><tspan x="11.39" y="0" style="letter-spacing:0em;">f</tspan><tspan x="15.16" y="0" style="letter-spacing:0em;">o</tspan><tspan x="22.9" y="0" style="letter-spacing:0em;">r</tspan><tspan x="27.68" y="0" style="letter-spacing:0em;">m</tspan><tspan x="39.25" y="0" style="letter-spacing:-.01em;">a</tspan><tspan x="46.85" y="0" style="letter-spacing:0em;">ti</tspan><tspan x="53.77" y="0" style="letter-spacing:0em;">o</tspan><tspan x="61.51" y="0">n</tspan></text><text transform="translate(632.18 297.6)" style="fill:#1d1d1b; font-family:ArialMT, Arial; font-size:14px;"><tspan x="0" y="0" style="letter-spacing:-.01em;">P</tspan><tspan x="9.14" y="0" style="letter-spacing:0em;">r</tspan><tspan x="13.92" y="0" style="letter-spacing:0em;">in</tspan><tspan x="24.58" y="0" style="letter-spacing:0em;">c</tspan><tspan x="31.63" y="0" style="letter-spacing:0em;">i</tspan><tspan x="34.62" y="0" style="letter-spacing:0em;">p</tspan><tspan x="42.34" y="0" style="letter-spacing:0em;">l</tspan><tspan x="45.38" y="0" style="letter-spacing:0em;">e</tspan><tspan x="53.12" y="0" style="letter-spacing:-.01em;">s</tspan><tspan x="59.96" y="0">,</tspan><tspan x="6.89" y="16.2" style="letter-spacing:0em;">p</tspan><tspan x="14.64" y="16.2" style="letter-spacing:0em;">o</tspan><tspan x="22.38" y="16.2" style="letter-spacing:-.01em;">l</tspan><tspan x="25.35" y="16.2" style="letter-spacing:0em;">i</tspan><tspan x="28.38" y="16.2" style="letter-spacing:0em;">c</tspan><tspan x="35.43" y="16.2" style="letter-spacing:0em;">i</tspan><tspan x="38.49" y="16.2" style="letter-spacing:0em;">e</tspan><tspan x="46.23" y="16.2" style="letter-spacing:-.01em;">s</tspan><tspan x="53.08" y="16.2">,</tspan><tspan x="-2.84" y="32.4" style="letter-spacing:0em;">pr</tspan><tspan x="9.48" y="32.4" style="letter-spacing:0em;">o</tspan><tspan x="17.24" y="32.4" style="letter-spacing:0em;">c</tspan><tspan x="24.36" y="32.4" style="letter-spacing:0em;">e</tspan><tspan x="32.1" y="32.4" style="letter-spacing:-.01em;">d</tspan><tspan x="39.74" y="32.4" style="letter-spacing:0em;">u</tspan><tspan x="47.39" y="32.4" style="letter-spacing:0em;">r</tspan><tspan x="51.95" y="32.4" style="letter-spacing:0em;">e</tspan><tspan x="59.69" y="32.4">s</tspan></text><text transform="translate(453.94 266.41)" style="fill:#fff; font-family:Arial-BoldMT, Arial; font-size:14px;"><tspan x="0" y="0" style="letter-spacing:0em;">G</tspan><tspan x="10.92" y="0" style="letter-spacing:-.02em;">ov</tspan><tspan x="26.72" y="0">e</tspan><tspan x="34.51" y="0" style="letter-spacing:0em;">r</tspan><tspan x="40.08" y="0" style="letter-spacing:0em;">n</tspan><tspan x="48.6" y="0" style="letter-spacing:0em;">a</tspan><tspan x="56.39" y="0" style="letter-spacing:0em;">n</tspan><tspan x="64.92" y="0" style="letter-spacing:0em;">c</tspan><tspan x="72.79" y="0">e</tspan><tspan x="16.34" y="16.2" style="letter-spacing:-.02em;">s</tspan><tspan x="23.86" y="16.2" style="letter-spacing:-.01em;">y</tspan><tspan x="31.5" y="16.2" style="letter-spacing:0em;">s</tspan><tspan x="39.24" y="16.2" style="letter-spacing:0em;">t</tspan><tspan x="43.97" y="16.2" style="letter-spacing:0em;">e</tspan><tspan x="51.79" y="16.2">m</tspan></text><path d="M552.83,96.66c0,32.49-26.34,58.83-58.83,58.83s-58.83-26.34-58.83-58.83,26.34-58.83,58.83-58.83,58.83,26.34,58.83,58.83" style="fill:none; stroke:#1d1d1b; stroke-miterlimit:8; stroke-width:.99px;"/><line x1="494.23" y1="155.49" x2="494.23" y2="212.21" style="fill:#fff; stroke:#1d1d1b; stroke-miterlimit:8; stroke-width:.99px;"/><path d="M394.27,116.35c25.4,20.26,29.57,57.28,9.32,82.68-20.26,25.4-57.27,29.57-82.68,9.31-25.4-20.26-29.57-57.27-9.32-82.68,20.26-25.4,57.27-29.57,82.68-9.32" style="fill:none; stroke:#1d1d1b; stroke-miterlimit:8; stroke-width:.99px;"/><line x1="403.73" y1="198.85" x2="448.07" y2="234.22" style="fill:#fff; stroke:#1d1d1b; stroke-miterlimit:8; stroke-width:.99px;"/><path d="M310.81,252.6c31.68-7.23,63.22,12.59,70.45,44.26s-12.59,63.22-44.27,70.45-63.22-12.59-70.45-44.26,12.59-63.22,44.26-70.45" style="fill:none; stroke:#1d1d1b; stroke-miterlimit:8; stroke-width:.99px;"/><line x1="381.21" y1="296.64" x2="436.5" y2="284.02" style="fill:#fff; stroke:#1d1d1b; stroke-miterlimit:8; stroke-width:.99px;"/><path d="M365.29,402.8c14.1-29.28,49.26-41.58,78.53-27.48,29.27,14.1,41.58,49.26,27.48,78.53-14.1,29.27-49.26,41.58-78.53,27.48-29.27-14.1-41.58-49.26-27.48-78.53" style="fill:none; stroke:#1d1d1b; stroke-miterlimit:8; stroke-width:.99px;"/><line x1="443.62" y1="375.22" x2="468.23" y2="324.12" style="fill:#fff; stroke:#1d1d1b; stroke-miterlimit:8; stroke-width:.99px;"/><path d="M516.7,453.86c-14.1-29.28-1.79-64.44,27.48-78.53,29.27-14.1,64.43-1.79,78.53,27.48,14.1,29.27,1.8,64.43-27.48,78.53-29.27,14.1-64.43,1.8-78.53-27.48" style="fill:none; stroke:#1d1d1b; stroke-miterlimit:8; stroke-width:.99px;"/><line x1="543.97" y1="375.42" x2="519.36" y2="324.32" style="fill:#fff; stroke:#1d1d1b; stroke-miterlimit:8; stroke-width:.99px;"/><path d="M651.01,367.31c-31.68-7.23-51.5-38.77-44.27-70.45,7.23-31.68,38.77-51.49,70.45-44.26,31.68,7.23,51.5,38.77,44.27,70.45-7.23,31.67-38.77,51.5-70.45,44.27" style="fill:none; stroke:#1d1d1b; stroke-miterlimit:8; stroke-width:.99px;"/><line x1="606.69" y1="297.09" x2="551.39" y2="284.46" style="fill:#fff; stroke:#1d1d1b; stroke-miterlimit:8; stroke-width:.99px;"/><path d="M667.09,208.34c-25.4,20.26-62.42,16.09-82.68-9.31s-16.09-62.42,9.32-82.68c25.4-20.26,62.42-16.09,82.68,9.31,20.26,25.4,16.09,62.42-9.32,82.68" style="fill:none; stroke:#1d1d1b; stroke-miterlimit:8; stroke-width:.99px;"/><line x1="584.55" y1="199.21" x2="540.21" y2="234.57" style="fill:#fff; stroke:#1d1d1b; stroke-miterlimit:8; stroke-width:.99px;"/><text transform="translate(585.76 158.09)" style="fill:#1d1d1b; font-family:ArialMT, Arial; font-size:14px;"><tspan x="0" y="0" style="letter-spacing:0em;">O</tspan><tspan x="10.95" y="0" style="letter-spacing:0em;">r</tspan><tspan x="15.55" y="0" style="letter-spacing:0em;">g</tspan><tspan x="23.26" y="0" style="letter-spacing:0em;">a</tspan><tspan x="30.92" y="0" style="letter-spacing:0em;">n</tspan><tspan x="38.58" y="0" style="letter-spacing:0em;">i</tspan><tspan x="41.56" y="0" style="letter-spacing:0em;">z</tspan><tspan x="48.59" y="0" style="letter-spacing:-.01em;">a</tspan><tspan x="56.18" y="0" style="letter-spacing:0em;">ti</tspan><tspan x="63.11" y="0" style="letter-spacing:0em;">o</tspan><tspan x="70.84" y="0" style="letter-spacing:0em;">n</tspan><tspan x="78.51" y="0" style="letter-spacing:0em;">a</tspan><tspan x="86.18" y="0">l</tspan><tspan x="14.17" y="16.2" style="letter-spacing:-.01em;">s</tspan><tspan x="21.01" y="16.2" style="letter-spacing:0em;">t</tspan><tspan x="24.88" y="16.2" style="letter-spacing:0em;">r</tspan><tspan x="29.67" y="16.2" style="letter-spacing:0em;">u</tspan><tspan x="37.34" y="16.2" style="letter-spacing:0em;">c</tspan><tspan x="44.39" y="16.2" style="letter-spacing:0em;">t</tspan><tspan x="48.17" y="16.2" style="letter-spacing:0em;">u</tspan><tspan x="55.82" y="16.2" style="letter-spacing:0em;">r</tspan><tspan x="60.38" y="16.2" style="letter-spacing:0em;">e</tspan><tspan x="68.12" y="16.2">s</tspan></text><text transform="translate(298.63 297.6)" style="fill:#1d1d1b; font-family:ArialMT, Arial; font-size:14px;"><tspan x="0" y="0" style="letter-spacing:-.02em;">P</tspan><tspan x="9.03" y="0" style="letter-spacing:0em;">e</tspan><tspan x="16.77" y="0" style="letter-spacing:0em;">o</tspan><tspan x="24.5" y="0" style="letter-spacing:0em;">p</tspan><tspan x="32.22" y="0" style="letter-spacing:0em;">l</tspan><tspan x="35.26" y="0" style="letter-spacing:-.02em;">e</tspan><tspan x="42.76" y="0">, </tspan><tspan x="-3.19" y="16.2" style="letter-spacing:0em;">s</tspan><tspan x="3.69" y="16.2" style="letter-spacing:0em;">k</tspan><tspan x="10.68" y="16.2" style="letter-spacing:0em;">i</tspan><tspan x="13.69" y="16.2" style="letter-spacing:0em;">l</tspan><tspan x="16.67" y="16.2" style="letter-spacing:0em;">l</tspan><tspan x="19.69" y="16.2">s </tspan><tspan x="30.58" y="16.2" style="letter-spacing:0em;">a</tspan><tspan x="38.24" y="16.2" style="letter-spacing:0em;">n</tspan><tspan x="45.95" y="16.2">d</tspan><tspan x="-17.55" y="32.4" style="letter-spacing:.01em;">c</tspan><tspan x="-10.41" y="32.4" style="letter-spacing:0em;">o</tspan><tspan x="-2.67" y="32.4" style="letter-spacing:0em;">m</tspan><tspan x="8.89" y="32.4" style="letter-spacing:0em;">p</tspan><tspan x="16.62" y="32.4" style="letter-spacing:-.02em;">e</tspan><tspan x="24.18" y="32.4" style="letter-spacing:-.01em;">t</tspan><tspan x="27.88" y="32.4" style="letter-spacing:0em;">e</tspan><tspan x="35.57" y="32.4" style="letter-spacing:0em;">n</tspan><tspan x="43.24" y="32.4" style="letter-spacing:0em;">c</tspan><tspan x="50.29" y="32.4" style="letter-spacing:0em;">i</tspan><tspan x="53.35" y="32.4" style="letter-spacing:0em;">e</tspan><tspan x="61.09" y="32.4">s</tspan></text><text transform="translate(328.75 141.89)" style="fill:#1d1d1b; font-family:ArialMT, Arial; font-size:14px;"><tspan x="0" y="0" style="letter-spacing:0em;">S</tspan><tspan x="9.27" y="0" style="letter-spacing:0em;">e</tspan><tspan x="16.98" y="0" style="letter-spacing:.03em;">r</tspan><tspan x="22.11" y="0" style="letter-spacing:0em;">v</tspan><tspan x="29.04" y="0" style="letter-spacing:0em;">i</tspan><tspan x="32.07" y="0" style="letter-spacing:0em;">c</tspan><tspan x="39.2" y="0" style="letter-spacing:0em;">e</tspan><tspan x="46.94" y="0" style="letter-spacing:-.01em;">s</tspan><tspan x="53.78" y="0">,</tspan><tspan x="-11.55" y="16.2" style="letter-spacing:0em;">i</tspan><tspan x="-8.55" y="16.2" style="letter-spacing:-.01em;">n</tspan><tspan x="-.95" y="16.2" style="letter-spacing:0em;">f</tspan><tspan x="2.95" y="16.2" style="letter-spacing:0em;">r</tspan><tspan x="7.56" y="16.2" style="letter-spacing:0em;">a</tspan><tspan x="15.22" y="16.2" style="letter-spacing:-.01em;">s</tspan><tspan x="22.06" y="16.2" style="letter-spacing:0em;">t</tspan><tspan x="25.93" y="16.2" style="letter-spacing:0em;">r</tspan><tspan x="30.72" y="16.2" style="letter-spacing:0em;">u</tspan><tspan x="38.39" y="16.2" style="letter-spacing:0em;">c</tspan><tspan x="45.44" y="16.2" style="letter-spacing:0em;">t</tspan><tspan x="49.22" y="16.2" style="letter-spacing:0em;">u</tspan><tspan x="56.87" y="16.2" style="letter-spacing:0em;">r</tspan><tspan x="61.43" y="16.2">e</tspan><tspan x="17.26" y="32.4" style="letter-spacing:0em;">a</tspan><tspan x="24.93" y="32.4" style="letter-spacing:0em;">n</tspan><tspan x="32.63" y="32.4">d</tspan><tspan x="-7.75" y="48.6" style="letter-spacing:0em;">a</tspan><tspan x="-.08" y="48.6" style="letter-spacing:0em;">p</tspan><tspan x="7.63" y="48.6" style="letter-spacing:0em;">p</tspan><tspan x="15.35" y="48.6" style="letter-spacing:-.01em;">l</tspan><tspan x="18.32" y="48.6" style="letter-spacing:0em;">i</tspan><tspan x="21.35" y="48.6" style="letter-spacing:.01em;">c</tspan><tspan x="28.51" y="48.6" style="letter-spacing:-.01em;">a</tspan><tspan x="36.1" y="48.6" style="letter-spacing:0em;">ti</tspan><tspan x="43.03" y="48.6" style="letter-spacing:0em;">o</tspan><tspan x="50.76" y="48.6" style="letter-spacing:0em;">n</tspan><tspan x="58.42" y="48.6">s</tspan></text></svg>