<?xml version="1.0" encoding="UTF-8"?><svg id="Ebene_1" xmlns="http://www.w3.org/2000/svg" viewBox="0 0 988 525"><g><g><rect x="269" y="398.33" width="450" height="60" style="fill:#fff;"/><text transform="translate(322.49 433.75)" style="font-family:Arial-BoldMT, Arial; font-size:17.63px;"><tspan x="0" y="0">Governance and management objectives</tspan></text></g><g><rect x="294" y="285" width="400" height="60" style="fill:#fff;"/><text transform="translate(425.42 320.42)" style="font-family:Arial-BoldMT, Arial; font-size:17.63px;"><tspan x="0" y="0">Alignment goals</tspan></text></g><g><rect x="319" y="172.68" width="350" height="59" style="fill:#fff;"/><text transform="translate(424.91 208.1)" style="font-family:Arial-BoldMT, Arial; font-size:17.63px;"><tspan x="0" y="0">Enterprise goals</tspan></text></g><g><rect x="344" y="60.35" width="300" height="59" style="fill:#fff;"/><text transform="translate(374.92 95.77)" style="font-family:Arial-BoldMT, Arial; font-size:17.63px;"><tspan x="0" y="0">Stakeholder drivers &amp; needs</tspan></text></g><g><polyline points="344 119.35 494 119.35 494 158.84" style="fill:none; stroke:#0333ff; stroke-miterlimit:8; stroke-width:2px;"/><polygon points="489.01 157.38 494 166.02 498.99 157.38 489.01 157.38" style="fill:#0333ff;"/></g><g><polyline points="319 231.68 494 231.68 494 271.17" style="fill:none; stroke:#0333ff; stroke-miterlimit:8; stroke-width:2px;"/><polygon points="489.01 269.71 494 278.34 498.99 269.71 489.01 269.71" style="fill:#0333ff;"/></g><g><polyline points="294 345 494 345 494 384.49" style="fill:none; stroke:#0333ff; stroke-miterlimit:8; stroke-width:2px;"/><polygon points="489.01 383.03 494 391.67 498.99 383.03 489.01 383.03" style="fill:#0333ff;"/></g><rect x="269" y="398.33" width="450" height="60" style="fill:none; stroke:#1d1d1b; stroke-miterlimit:8; stroke-width:.99px;"/><polyline points="501.36 345 694 345 694 285 294 285 294 337.64" style="fill:none; stroke:#1d1d1b; stroke-miterlimit:8; stroke-width:.99px;"/><polyline points="501.36 231.68 669 231.68 669 172.68 319 172.68 319 224.32" style="fill:none; stroke:#1d1d1b; stroke-miterlimit:8; stroke-width:.99px;"/><polyline points="501.36 119.35 644 119.35 644 60.35 344 60.35 344 111.99" style="fill:none; stroke:#1d1d1b; stroke-miterlimit:8; stroke-width:.99px;"/><text transform="translate(526.39 149.39)" style="fill:#0333ff; font-family:Arial-BoldMT, Arial; font-size:14px; letter-spacing:0em;"><tspan x="0" y="0">Casscade to</tspan></text><text transform="translate(526.39 261.71)" style="fill:#0333ff; font-family:Arial-BoldMT, Arial; font-size:14px; letter-spacing:0em;"><tspan x="0" y="0">Casscade to</tspan></text><text transform="translate(526.39 375.04)" style="fill:#0333ff; font-family:Arial-BoldMT, Arial; font-size:14px; letter-spacing:0em;"><tspan x="0" y="0">Casscade to</tspan></text></g><text transform="translate(112.91 199.21)" style="fill:#1d1d1b; font-family:ArialMT, Arial; font-size:14px;"><tspan x="0" y="0" style="letter-spacing:0em;">S</tspan><tspan x="9.23" y="0" style="letter-spacing:-.01em;">u</tspan><tspan x="16.88" y="0" style="letter-spacing:0em;">p</tspan><tspan x="24.59" y="0" style="letter-spacing:0em;">p</tspan><tspan x="32.34" y="0" style="letter-spacing:0em;">o</tspan><tspan x="40.08" y="0" style="letter-spacing:.03em;">r</tspan><tspan x="45.2" y="0">t </tspan><tspan x="52.98" y="0" style="letter-spacing:0em;">t</tspan><tspan x="56.84" y="0" style="letter-spacing:0em;">h</tspan><tspan x="64.54" y="0">e </tspan><tspan x="-38.37" y="16.2" style="letter-spacing:0em;">e</tspan><tspan x="-30.67" y="16.2" style="letter-spacing:-.02em;">n</tspan><tspan x="-23.11" y="16.2" style="letter-spacing:-.01em;">t</tspan><tspan x="-19.42" y="16.2" style="letter-spacing:0em;">e</tspan><tspan x="-11.72" y="16.2" style="letter-spacing:0em;">r</tspan><tspan x="-6.94" y="16.2" style="letter-spacing:0em;">p</tspan><tspan x=".78" y="16.2" style="letter-spacing:0em;">r</tspan><tspan x="5.55" y="16.2" style="letter-spacing:0em;">i</tspan><tspan x="8.59" y="16.2" style="letter-spacing:0em;">s</tspan><tspan x="15.5" y="16.2">e </tspan><tspan x="27.18" y="16.2" style="letter-spacing:-.01em;">s</tspan><tspan x="34.02" y="16.2" style="letter-spacing:0em;">t</tspan><tspan x="37.88" y="16.2" style="letter-spacing:0em;">r</tspan><tspan x="42.5" y="16.2" style="letter-spacing:-.01em;">a</tspan><tspan x="50.09" y="16.2" style="letter-spacing:-.01em;">t</tspan><tspan x="53.78" y="16.2" style="letter-spacing:0em;">e</tspan><tspan x="61.53" y="16.2" style="letter-spacing:0em;">g</tspan><tspan x="69.21" y="16.2">y</tspan></text><g><path d="M41.37,302.26l1.27,.16c-.2,.74-.57,1.32-1.11,1.73-.54,.41-1.23,.62-2.08,.62-1.06,0-1.9-.33-2.53-.98s-.93-1.57-.93-2.75,.31-2.17,.94-2.84,1.45-1.01,2.45-1.01,1.76,.33,2.38,.99,.92,1.59,.92,2.79c0,.07,0,.18,0,.33h-5.41c.05,.8,.27,1.41,.68,1.83,.41,.42,.91,.64,1.52,.64,.45,0,.84-.12,1.16-.36,.32-.24,.57-.62,.76-1.13Zm-4.04-1.99h4.05c-.05-.61-.21-1.07-.46-1.37-.39-.47-.9-.71-1.52-.71-.56,0-1.04,.19-1.42,.57-.39,.38-.6,.88-.64,1.52Z" style="fill:#1d1d1b;"/><path d="M44.09,304.6v-7.26h1.1v1.02c.23-.36,.53-.64,.91-.86,.38-.22,.81-.32,1.29-.32,.54,0,.98,.11,1.32,.33,.34,.22,.59,.54,.73,.94,.57-.85,1.32-1.27,2.24-1.27,.72,0,1.27,.2,1.66,.6,.39,.4,.58,1.01,.58,1.84v4.98h-1.22v-4.57c0-.49-.04-.85-.12-1.06-.08-.22-.22-.39-.43-.52-.21-.13-.46-.2-.74-.2-.51,0-.93,.17-1.27,.51-.34,.34-.51,.88-.51,1.63v4.22h-1.23v-4.72c0-.55-.1-.96-.3-1.23-.2-.27-.53-.41-.98-.41-.35,0-.67,.09-.96,.27s-.51,.45-.64,.8c-.13,.35-.2,.86-.2,1.52v3.77h-1.23Z" style="fill:#1d1d1b;"/><path d="M55.66,307.38v-10.04h1.12v.94c.26-.37,.56-.65,.9-.83,.33-.18,.74-.28,1.21-.28,.62,0,1.17,.16,1.64,.48,.47,.32,.83,.77,1.07,1.35,.24,.58,.36,1.22,.36,1.91,0,.74-.13,1.41-.4,2.01s-.65,1.05-1.16,1.37c-.51,.32-1.04,.48-1.6,.48-.41,0-.78-.09-1.1-.26-.33-.17-.59-.39-.8-.66v3.53h-1.23Zm1.11-6.37c0,.93,.19,1.62,.57,2.07,.38,.45,.84,.67,1.37,.67s1.01-.23,1.4-.69,.58-1.18,.58-2.15-.19-1.62-.57-2.08c-.38-.46-.83-.69-1.36-.69s-.99,.25-1.39,.73-.6,1.2-.6,2.14Z" style="fill:#1d1d1b;"/><path d="M63.37,304.6v-10.02h1.23v3.6c.57-.67,1.3-1,2.17-1,.54,0,1,.11,1.4,.32s.68,.5,.85,.88,.26,.92,.26,1.63v4.6h-1.23v-4.6c0-.62-.13-1.06-.4-1.34s-.64-.42-1.13-.42c-.37,0-.71,.09-1.03,.28s-.55,.45-.69,.77-.21,.77-.21,1.34v3.97h-1.23Z" style="fill:#1d1d1b;"/><path d="M75.78,303.7c-.46,.39-.89,.66-1.32,.82-.42,.16-.87,.24-1.36,.24-.8,0-1.41-.19-1.84-.58-.43-.39-.64-.89-.64-1.49,0-.36,.08-.68,.24-.97,.16-.29,.37-.53,.64-.71,.26-.18,.56-.31,.89-.4,.24-.06,.61-.13,1.09-.18,.99-.12,1.72-.26,2.19-.42,0-.17,0-.28,0-.32,0-.5-.12-.85-.35-1.06-.31-.28-.78-.42-1.4-.42-.58,0-1.01,.1-1.28,.3-.28,.2-.48,.56-.61,1.08l-1.2-.16c.11-.52,.29-.93,.54-1.25,.25-.32,.61-.56,1.09-.73,.47-.17,1.02-.26,1.65-.26s1.12,.07,1.51,.22c.39,.15,.67,.33,.85,.55,.18,.22,.31,.5,.38,.84,.04,.21,.06,.59,.06,1.13v1.64c0,1.14,.03,1.87,.08,2.17,.05,.3,.16,.59,.31,.87h-1.29c-.13-.26-.21-.55-.25-.9Zm-.1-2.75c-.45,.18-1.12,.34-2.01,.46-.51,.07-.86,.15-1.07,.25-.21,.09-.37,.22-.49,.4-.11,.18-.17,.37-.17,.58,0,.33,.12,.6,.37,.82,.25,.22,.61,.33,1.09,.33s.9-.1,1.26-.31,.64-.49,.81-.85c.13-.28,.2-.69,.2-1.23v-.45Z" style="fill:#1d1d1b;"/><path d="M78.21,302.43l1.22-.19c.07,.49,.26,.86,.57,1.12,.31,.26,.75,.39,1.31,.39s.98-.12,1.26-.35,.41-.5,.41-.81c0-.28-.12-.5-.36-.66-.17-.11-.59-.25-1.26-.42-.9-.23-1.53-.42-1.88-.59s-.61-.4-.79-.69c-.18-.29-.27-.62-.27-.97,0-.32,.07-.62,.22-.9,.15-.28,.35-.5,.6-.69,.19-.14,.45-.26,.78-.36,.33-.1,.68-.15,1.06-.15,.57,0,1.07,.08,1.5,.25s.75,.39,.95,.67,.35,.66,.42,1.12l-1.2,.16c-.05-.37-.21-.67-.47-.88-.26-.21-.63-.31-1.11-.31-.56,0-.97,.09-1.21,.28-.24,.19-.36,.41-.36,.66,0,.16,.05,.3,.15,.43,.1,.13,.26,.24,.47,.33,.12,.05,.49,.15,1.09,.31,.87,.23,1.48,.42,1.82,.57,.34,.15,.61,.36,.81,.65,.2,.28,.29,.63,.29,1.05s-.12,.8-.36,1.16-.58,.64-1.04,.84-.96,.3-1.53,.3c-.94,0-1.66-.2-2.16-.59-.5-.39-.81-.97-.95-1.74Z" style="fill:#1d1d1b;"/><path d="M85.6,295.99v-1.42h1.23v1.42h-1.23Zm0,8.61v-7.26h1.23v7.26h-1.23Z" style="fill:#1d1d1b;"/><path d="M87.93,304.6v-1l4.62-5.3c-.52,.03-.99,.04-1.39,.04h-2.96v-1h5.93v.81l-3.93,4.61-.76,.84c.55-.04,1.07-.06,1.55-.06h3.36v1.06h-6.43Z" style="fill:#1d1d1b;"/><path d="M100.32,302.26l1.27,.16c-.2,.74-.57,1.32-1.11,1.73-.54,.41-1.23,.62-2.08,.62-1.06,0-1.9-.33-2.53-.98s-.93-1.57-.93-2.75,.31-2.17,.94-2.84,1.45-1.01,2.45-1.01,1.76,.33,2.38,.99,.92,1.59,.92,2.79c0,.07,0,.18,0,.33h-5.41c.05,.8,.27,1.41,.68,1.83,.41,.42,.91,.64,1.52,.64,.45,0,.84-.12,1.16-.36,.32-.24,.57-.62,.76-1.13Zm-4.04-1.99h4.05c-.05-.61-.21-1.07-.46-1.37-.39-.47-.9-.71-1.52-.71-.56,0-1.04,.19-1.42,.57-.39,.38-.6,.88-.64,1.52Z" style="fill:#1d1d1b;"/><path d="M109.72,303.5l.18,1.09c-.35,.07-.66,.11-.93,.11-.45,0-.79-.07-1.04-.21s-.42-.33-.52-.56-.15-.71-.15-1.45v-4.18h-.9v-.96h.9v-1.8l1.22-.74v2.54h1.24v.96h-1.24v4.25c0,.35,.02,.58,.07,.68,.04,.1,.11,.18,.21,.24,.1,.06,.24,.09,.42,.09,.14,0,.32-.02,.54-.05Z" style="fill:#1d1d1b;"/><path d="M110.89,304.6v-10.02h1.23v3.6c.57-.67,1.3-1,2.17-1,.54,0,1,.11,1.4,.32s.68,.5,.85,.88c.17,.37,.26,.92,.26,1.63v4.6h-1.23v-4.6c0-.62-.13-1.06-.4-1.34-.27-.28-.64-.42-1.13-.42-.36,0-.71,.09-1.03,.28-.32,.19-.55,.45-.69,.77s-.21,.77-.21,1.34v3.97h-1.23Z" style="fill:#1d1d1b;"/><path d="M123.56,302.26l1.27,.16c-.2,.74-.57,1.32-1.11,1.73s-1.24,.62-2.08,.62c-1.06,0-1.9-.33-2.53-.98-.62-.65-.93-1.57-.93-2.75s.31-2.17,.94-2.84,1.44-1.01,2.45-1.01,1.76,.33,2.38,.99,.92,1.59,.92,2.79c0,.07,0,.18,0,.33h-5.41c.05,.8,.27,1.41,.68,1.83s.91,.64,1.52,.64c.45,0,.84-.12,1.16-.36s.57-.62,.76-1.13Zm-4.04-1.99h4.05c-.05-.61-.21-1.07-.46-1.37-.39-.47-.9-.71-1.52-.71-.57,0-1.04,.19-1.42,.57-.39,.38-.6,.88-.64,1.52Z" style="fill:#1d1d1b;"/><path d="M135,303.7c-.46,.39-.89,.66-1.32,.82-.42,.16-.87,.24-1.36,.24-.8,0-1.41-.19-1.84-.58s-.64-.89-.64-1.49c0-.36,.08-.68,.24-.97,.16-.29,.37-.53,.64-.71,.26-.18,.56-.31,.88-.4,.24-.06,.61-.13,1.09-.18,.99-.12,1.72-.26,2.19-.42,0-.17,0-.28,0-.32,0-.5-.12-.85-.35-1.06-.31-.28-.78-.42-1.4-.42-.58,0-1.01,.1-1.28,.3-.28,.2-.48,.56-.61,1.08l-1.2-.16c.11-.52,.29-.93,.54-1.25s.61-.56,1.09-.73,1.02-.26,1.65-.26,1.12,.07,1.51,.22,.67,.33,.85,.55,.31,.5,.38,.84c.04,.21,.06,.59,.06,1.13v1.64c0,1.14,.03,1.87,.08,2.17,.05,.3,.16,.59,.31,.87h-1.29c-.13-.26-.21-.55-.25-.9Zm-.1-2.75c-.45,.18-1.12,.34-2.01,.46-.51,.07-.86,.15-1.07,.25s-.37,.22-.49,.4-.17,.37-.17,.58c0,.33,.12,.6,.37,.82,.25,.22,.61,.33,1.09,.33s.9-.1,1.26-.31,.64-.49,.81-.85c.13-.28,.2-.69,.2-1.23v-.45Z" style="fill:#1d1d1b;"/><path d="M137.91,304.6v-10.02h1.23v10.02h-1.23Z" style="fill:#1d1d1b;"/><path d="M140.91,295.99v-1.42h1.23v1.42h-1.23Zm0,8.61v-7.26h1.23v7.26h-1.23Z" style="fill:#1d1d1b;"/><path d="M143.74,305.2l1.2,.18c.05,.37,.19,.64,.42,.81,.31,.23,.72,.34,1.25,.34,.57,0,1.01-.11,1.32-.34s.52-.55,.63-.96c.06-.25,.09-.78,.09-1.58-.54,.63-1.21,.95-2.01,.95-1,0-1.77-.36-2.32-1.08s-.82-1.58-.82-2.59c0-.69,.12-1.33,.38-1.92s.61-1.04,1.09-1.36c.48-.32,1.04-.48,1.68-.48,.86,0,1.56,.35,2.12,1.04v-.88h1.13v6.28c0,1.13-.12,1.93-.35,2.4-.23,.47-.59,.84-1.09,1.12-.5,.27-1.11,.41-1.84,.41-.87,0-1.57-.19-2.1-.58s-.79-.98-.77-1.76Zm1.02-4.36c0,.95,.19,1.65,.57,2.08s.85,.66,1.42,.66,1.04-.22,1.42-.65,.57-1.12,.57-2.05-.2-1.56-.59-2.01c-.39-.45-.87-.68-1.42-.68s-1.01,.22-1.39,.67-.57,1.1-.57,1.98Z" style="fill:#1d1d1b;"/><path d="M151.65,304.6v-7.26h1.11v1.03c.53-.8,1.3-1.2,2.31-1.2,.44,0,.84,.08,1.21,.24,.37,.16,.64,.36,.82,.62s.31,.56,.38,.91c.05,.23,.07,.63,.07,1.2v4.46h-1.23v-4.42c0-.5-.05-.88-.14-1.12s-.27-.45-.51-.59c-.24-.15-.53-.22-.86-.22-.52,0-.98,.17-1.36,.5-.38,.33-.57,.96-.57,1.89v3.96h-1.23Z" style="fill:#1d1d1b;"/><path d="M159.3,304.6v-7.26h1.1v1.02c.23-.36,.53-.64,.91-.86s.81-.32,1.29-.32c.54,0,.98,.11,1.32,.33,.34,.22,.59,.54,.73,.94,.57-.85,1.32-1.27,2.24-1.27,.72,0,1.27,.2,1.66,.6s.58,1.01,.58,1.84v4.98h-1.22v-4.57c0-.49-.04-.85-.12-1.06-.08-.22-.22-.39-.43-.52s-.46-.2-.74-.2c-.51,0-.93,.17-1.27,.51s-.51,.88-.51,1.63v4.22h-1.23v-4.72c0-.55-.1-.96-.3-1.23s-.53-.41-.98-.41c-.35,0-.67,.09-.96,.27-.29,.18-.51,.45-.64,.8s-.2,.86-.2,1.52v3.77h-1.23Z" style="fill:#1d1d1b;"/><path d="M175.87,302.26l1.27,.16c-.2,.74-.57,1.32-1.11,1.73s-1.24,.62-2.08,.62c-1.06,0-1.9-.33-2.53-.98-.62-.65-.93-1.57-.93-2.75s.31-2.17,.94-2.84,1.44-1.01,2.45-1.01,1.76,.33,2.38,.99,.92,1.59,.92,2.79c0,.07,0,.18,0,.33h-5.41c.05,.8,.27,1.41,.68,1.83s.91,.64,1.52,.64c.45,0,.84-.12,1.16-.36s.57-.62,.76-1.13Zm-4.04-1.99h4.05c-.05-.61-.21-1.07-.46-1.37-.39-.47-.9-.71-1.52-.71-.57,0-1.04,.19-1.42,.57-.39,.38-.6,.88-.64,1.52Z" style="fill:#1d1d1b;"/><path d="M178.59,304.6v-7.26h1.11v1.03c.53-.8,1.3-1.2,2.31-1.2,.44,0,.84,.08,1.21,.24,.37,.16,.64,.36,.82,.62s.31,.56,.38,.91c.05,.23,.07,.63,.07,1.2v4.46h-1.23v-4.42c0-.5-.05-.88-.14-1.12s-.27-.45-.51-.59c-.24-.15-.53-.22-.86-.22-.52,0-.98,.17-1.36,.5-.38,.33-.57,.96-.57,1.89v3.96h-1.23Z" style="fill:#1d1d1b;"/><path d="M188.84,303.5l.18,1.09c-.35,.07-.66,.11-.93,.11-.45,0-.79-.07-1.04-.21s-.42-.33-.52-.56-.15-.71-.15-1.45v-4.18h-.9v-.96h.9v-1.8l1.22-.74v2.54h1.24v.96h-1.24v4.25c0,.35,.02,.58,.07,.68,.04,.1,.11,.18,.21,.24,.1,.06,.24,.09,.42,.09,.14,0,.32-.02,.54-.05Z" style="fill:#1d1d1b;"/><path d="M68.43,317.17c0-1.34,.37-2.34,1.12-2.99,.62-.54,1.38-.81,2.28-.81,1,0,1.81,.33,2.45,.98,.63,.65,.95,1.56,.95,2.71,0,.93-.14,1.67-.42,2.2s-.69,.95-1.22,1.25c-.54,.3-1.12,.44-1.75,.44-1.02,0-1.84-.33-2.46-.98-.63-.65-.94-1.59-.94-2.82Zm1.26,0c0,.93,.2,1.63,.61,2.09,.41,.46,.92,.69,1.53,.69s1.12-.23,1.52-.7c.41-.46,.61-1.17,.61-2.13,0-.9-.2-1.58-.61-2.04-.41-.46-.92-.69-1.52-.69s-1.13,.23-1.53,.69c-.41,.46-.61,1.16-.61,2.08Z" style="fill:#1d1d1b;"/><path d="M76.79,320.8v-6.3h-1.09v-.96h1.09v-.77c0-.49,.04-.85,.13-1.09,.12-.32,.33-.58,.62-.78,.3-.2,.72-.3,1.25-.3,.35,0,.73,.04,1.15,.12l-.18,1.07c-.26-.05-.5-.07-.72-.07-.37,0-.64,.08-.79,.24-.16,.16-.23,.46-.23,.9v.67h1.42v.96h-1.42v6.3h-1.22Z" style="fill:#1d1d1b;"/><path d="M88.71,319.9c-.43,.37-.84,.64-1.24,.81s-.82,.26-1.27,.26c-.67,0-1.21-.2-1.62-.59s-.62-.9-.62-1.51c0-.41,.09-.76,.28-1.08s.43-.56,.74-.75c.3-.19,.68-.32,1.12-.41,.28-.05,.81-.1,1.58-.13,.78-.03,1.33-.11,1.67-.25,.1-.34,.14-.62,.14-.84,0-.29-.11-.51-.31-.68-.29-.23-.71-.34-1.26-.34-.52,0-.94,.12-1.28,.35-.33,.23-.57,.56-.72,.98l-1.25-.11c.25-.72,.66-1.27,1.21-1.65s1.25-.57,2.1-.57c.9,0,1.61,.21,2.13,.64,.4,.32,.6,.73,.6,1.24,0,.39-.06,.84-.17,1.35l-.4,1.8c-.13,.57-.19,1.04-.19,1.4,0,.23,.05,.56,.15,.98h-1.25c-.07-.24-.12-.54-.14-.9Zm.46-2.78c-.17,.07-.36,.12-.56,.16s-.53,.08-.99,.12c-.72,.06-1.23,.14-1.52,.24-.3,.1-.52,.25-.67,.47s-.23,.45-.23,.71c0,.35,.12,.63,.36,.85s.58,.33,1.02,.33c.41,0,.8-.11,1.18-.32,.38-.22,.68-.52,.9-.91s.39-.94,.51-1.65Z" style="fill:#1d1d1b;"/><path d="M91.44,320.8l2.09-10.02h1.24l-2.09,10.02h-1.24Z" style="fill:#1d1d1b;"/><path d="M94.53,320.8l2.09-10.02h1.24l-2.09,10.02h-1.24Z" style="fill:#1d1d1b;"/><path d="M101.96,320.8l2.1-10.02h1.33l-2.09,10.02h-1.34Z" style="fill:#1d1d1b;"/><path d="M108.1,320.8l1.85-8.88h-3.29l.24-1.14h7.89l-.24,1.14h-3.26l-1.85,8.88h-1.34Z" style="fill:#1d1d1b;"/><path d="M123.16,318.33l1.2,.12c-.17,.6-.57,1.16-1.19,1.7-.62,.54-1.36,.81-2.22,.81-.54,0-1.03-.12-1.48-.37-.45-.25-.79-.61-1.03-1.08-.23-.47-.35-1.01-.35-1.62,0-.79,.18-1.56,.55-2.31,.37-.75,.84-1.3,1.42-1.66s1.21-.54,1.89-.54c.87,0,1.56,.27,2.07,.81,.52,.54,.78,1.27,.78,2.2,0,.36-.03,.72-.1,1.09h-5.35c-.02,.14-.03,.27-.03,.38,0,.68,.16,1.2,.47,1.56,.31,.36,.69,.54,1.15,.54,.42,0,.84-.14,1.25-.42s.73-.68,.96-1.2Zm-3.6-1.8h4.07c0-.13,0-.22,0-.27,0-.62-.16-1.09-.46-1.43s-.71-.5-1.2-.5c-.53,0-1.01,.18-1.45,.55-.44,.36-.76,.91-.97,1.65Z" style="fill:#1d1d1b;"/><path d="M125.62,320.8l1.32-6.3h-1.11l.2-.96h1.11l.21-1.03c.11-.52,.22-.89,.34-1.11,.12-.23,.31-.42,.57-.56,.26-.15,.62-.22,1.07-.22,.31,0,.77,.07,1.37,.2l-.23,1.08c-.42-.11-.77-.16-1.05-.16-.24,0-.42,.06-.55,.18-.12,.12-.23,.41-.32,.86l-.16,.78h1.38l-.2,.96h-1.38l-1.32,6.3h-1.24Z" style="fill:#1d1d1b;"/><path d="M129.9,320.8l1.32-6.3h-1.11l.2-.96h1.11l.21-1.03c.11-.52,.22-.89,.34-1.11,.12-.23,.31-.42,.57-.56,.26-.15,.62-.22,1.07-.22,.31,0,.77,.07,1.37,.2l-.23,1.08c-.42-.11-.77-.16-1.05-.16-.24,0-.42,.06-.55,.18-.12,.12-.23,.41-.32,.86l-.16,.78h1.38l-.2,.96h-1.38l-1.32,6.3h-1.24Z" style="fill:#1d1d1b;"/><path d="M133.71,318.04c0-1.42,.42-2.59,1.25-3.52,.69-.77,1.59-1.15,2.71-1.15,.88,0,1.58,.27,2.12,.82,.54,.55,.8,1.29,.8,2.21,0,.83-.17,1.61-.51,2.33s-.82,1.27-1.44,1.65c-.62,.38-1.28,.57-1.96,.57-.57,0-1.08-.12-1.54-.36-.46-.24-.82-.58-1.06-1.03-.24-.44-.37-.95-.37-1.53Zm1.24-.12c0,.68,.16,1.2,.49,1.56s.75,.53,1.25,.53c.26,0,.53-.05,.79-.16s.5-.27,.72-.49,.41-.47,.57-.75c.16-.28,.28-.58,.38-.91,.14-.45,.21-.88,.21-1.3,0-.66-.17-1.17-.5-1.53-.33-.36-.75-.54-1.25-.54-.39,0-.74,.09-1.06,.28s-.61,.45-.86,.81c-.26,.36-.45,.77-.57,1.24-.12,.47-.18,.89-.18,1.26Z" style="fill:#1d1d1b;"/><path d="M141.22,320.8l1.52-7.26h1.09l-.31,1.48c.37-.56,.74-.98,1.1-1.24,.36-.27,.72-.4,1.1-.4,.25,0,.55,.09,.91,.27l-.51,1.15c-.21-.15-.45-.23-.7-.23-.43,0-.88,.24-1.33,.72s-.81,1.35-1.07,2.6l-.62,2.91h-1.18Z" style="fill:#1d1d1b;"/><path d="M149.32,319.79l-.21,1.01c-.3,.08-.58,.12-.86,.12-.49,0-.88-.12-1.18-.36-.22-.18-.33-.43-.33-.75,0-.16,.06-.53,.18-1.1l.88-4.22h-.98l.2-.96h.98l.38-1.78,1.42-.85-.55,2.64h1.22l-.21,.96h-1.21l-.84,4.01c-.1,.51-.16,.82-.16,.92,0,.15,.04,.26,.13,.33,.08,.08,.22,.12,.41,.12,.27,0,.52-.03,.73-.08Z" style="fill:#1d1d1b;"/><path d="M150.21,318.32l1.24-.08c0,.36,.05,.66,.16,.91s.31,.46,.61,.62c.29,.16,.64,.24,1.03,.24,.55,0,.96-.11,1.23-.33s.41-.48,.41-.77c0-.21-.08-.42-.25-.61-.17-.19-.58-.43-1.23-.71-.65-.28-1.07-.48-1.25-.59-.31-.19-.54-.41-.69-.66s-.23-.54-.23-.87c0-.57,.23-1.07,.68-1.48s1.09-.62,1.91-.62c.91,0,1.61,.21,2.08,.63,.48,.42,.72,.98,.74,1.66l-1.21,.08c-.02-.44-.17-.78-.46-1.04s-.7-.38-1.24-.38c-.43,0-.76,.1-1,.29s-.36,.41-.36,.64,.1,.43,.31,.6c.14,.12,.49,.3,1.06,.55,.95,.41,1.54,.73,1.79,.97,.39,.38,.59,.84,.59,1.38,0,.36-.11,.71-.33,1.06-.22,.35-.56,.62-1.01,.83-.45,.21-.99,.31-1.6,.31-.84,0-1.55-.21-2.14-.62s-.87-1.09-.83-2.02Z" style="fill:#1d1d1b;"/><path d="M162.79,320.8l-2.22-7.26h1.27l1.16,4.19,.43,1.56c.02-.08,.14-.58,.38-1.5l1.16-4.25h1.26l1.09,4.21,.36,1.39,.42-1.4,1.24-4.2h1.2l-2.27,7.26h-1.28l-1.16-4.35-.28-1.24-1.47,5.58h-1.29Z" style="fill:#1d1d1b;"/><path d="M171.52,312.19v-1.42h1.23v1.42h-1.23Zm0,8.61v-7.26h1.23v7.26h-1.23Z" style="fill:#1d1d1b;"/><path d="M177.2,319.7l.18,1.09c-.35,.07-.66,.11-.93,.11-.45,0-.79-.07-1.04-.21s-.42-.33-.52-.56-.15-.71-.15-1.45v-4.18h-.9v-.96h.9v-1.8l1.22-.74v2.54h1.24v.96h-1.24v4.25c0,.35,.02,.58,.07,.68,.04,.1,.11,.18,.21,.24,.1,.06,.24,.09,.42,.09,.14,0,.32-.02,.54-.05Z" style="fill:#1d1d1b;"/><path d="M178.37,320.8v-10.02h1.23v3.6c.57-.67,1.3-1,2.17-1,.54,0,1,.11,1.4,.32s.68,.5,.85,.88c.17,.37,.26,.92,.26,1.63v4.6h-1.23v-4.6c0-.62-.13-1.06-.4-1.34-.27-.28-.64-.42-1.13-.42-.36,0-.71,.09-1.03,.28-.32,.19-.55,.45-.69,.77s-.21,.77-.21,1.34v3.97h-1.23Z" style="fill:#1d1d1b;"/><path d="M67.38,337h-1.14v-10.02h1.23v3.58c.52-.65,1.18-.98,1.99-.98,.45,0,.87,.09,1.27,.27,.4,.18,.73,.43,.98,.76,.26,.33,.46,.72,.61,1.18,.15,.46,.22,.95,.22,1.48,0,1.24-.31,2.21-.92,2.88s-1.35,1.02-2.21,1.02-1.53-.36-2.02-1.07v.91Zm-.01-3.68c0,.87,.12,1.5,.36,1.89,.39,.63,.91,.95,1.57,.95,.54,0,1-.23,1.39-.7,.39-.47,.59-1.16,.59-2.09s-.19-1.65-.56-2.1-.83-.68-1.36-.68-1,.23-1.39,.7c-.39,.47-.59,1.14-.59,2.03Z" style="fill:#1d1d1b;"/><path d="M78.67,337v-1.07c-.56,.82-1.33,1.23-2.3,1.23-.43,0-.83-.08-1.2-.25-.37-.16-.65-.37-.83-.62-.18-.25-.31-.55-.38-.91-.05-.24-.08-.62-.08-1.15v-4.5h1.23v4.03c0,.64,.03,1.08,.08,1.3,.08,.32,.24,.58,.49,.76,.25,.18,.56,.28,.93,.28s.72-.09,1.04-.28c.32-.19,.55-.45,.69-.77,.13-.33,.2-.8,.2-1.42v-3.89h1.23v7.26h-1.1Z" style="fill:#1d1d1b;"/><path d="M81.09,334.83l1.22-.19c.07,.49,.26,.86,.57,1.12,.31,.26,.75,.39,1.31,.39s.98-.12,1.26-.35,.41-.5,.41-.81c0-.28-.12-.5-.36-.66-.17-.11-.59-.25-1.26-.42-.9-.23-1.53-.42-1.88-.59s-.61-.4-.79-.69c-.18-.29-.27-.62-.27-.97,0-.32,.07-.62,.22-.9,.15-.28,.35-.5,.61-.69,.19-.14,.45-.26,.78-.36,.33-.1,.68-.15,1.06-.15,.57,0,1.07,.08,1.5,.25s.75,.39,.95,.67,.35,.66,.42,1.12l-1.2,.16c-.05-.37-.21-.67-.48-.88-.26-.21-.63-.31-1.11-.31-.57,0-.97,.09-1.21,.28-.24,.19-.36,.41-.36,.66,0,.16,.05,.3,.15,.43,.1,.13,.26,.24,.47,.33,.12,.05,.49,.15,1.09,.31,.87,.23,1.48,.42,1.82,.57,.34,.15,.61,.36,.81,.65,.2,.28,.29,.63,.29,1.05s-.12,.8-.36,1.16-.58,.64-1.04,.84-.96,.3-1.53,.3c-.94,0-1.66-.2-2.16-.59-.49-.39-.81-.97-.95-1.74Z" style="fill:#1d1d1b;"/><path d="M88.48,328.39v-1.42h1.23v1.42h-1.23Zm0,8.61v-7.26h1.23v7.26h-1.23Z" style="fill:#1d1d1b;"/><path d="M91.47,337v-7.26h1.11v1.03c.53-.8,1.3-1.2,2.31-1.2,.44,0,.84,.08,1.21,.24,.37,.16,.64,.36,.82,.62,.18,.26,.31,.56,.38,.91,.05,.23,.07,.63,.07,1.2v4.46h-1.23v-4.42c0-.5-.05-.88-.14-1.12s-.27-.45-.51-.59c-.24-.15-.53-.22-.86-.22-.52,0-.98,.17-1.36,.5-.38,.33-.57,.96-.57,1.89v3.96h-1.23Z" style="fill:#1d1d1b;"/><path d="M104.13,334.66l1.27,.16c-.2,.74-.57,1.32-1.11,1.73-.54,.41-1.23,.62-2.08,.62-1.06,0-1.9-.33-2.53-.98s-.93-1.57-.93-2.75,.31-2.17,.94-2.84,1.45-1.01,2.45-1.01,1.76,.33,2.38,.99,.92,1.59,.92,2.79c0,.07,0,.18,0,.33h-5.41c.05,.8,.27,1.41,.68,1.83,.41,.42,.91,.64,1.52,.64,.45,0,.84-.12,1.16-.36,.32-.24,.57-.62,.76-1.13Zm-4.04-1.99h4.05c-.05-.61-.21-1.07-.46-1.37-.39-.47-.9-.71-1.52-.71-.56,0-1.04,.19-1.42,.57-.39,.38-.6,.88-.64,1.52Z" style="fill:#1d1d1b;"/><path d="M106.41,334.83l1.22-.19c.07,.49,.26,.86,.57,1.12,.31,.26,.75,.39,1.31,.39s.98-.12,1.26-.35,.41-.5,.41-.81c0-.28-.12-.5-.36-.66-.17-.11-.59-.25-1.26-.42-.9-.23-1.53-.42-1.88-.59-.35-.17-.61-.4-.79-.69-.18-.29-.27-.62-.27-.97,0-.32,.07-.62,.22-.9,.15-.28,.35-.5,.61-.69,.19-.14,.45-.26,.78-.36,.33-.1,.68-.15,1.06-.15,.57,0,1.07,.08,1.5,.25,.43,.16,.75,.39,.95,.67s.35,.66,.42,1.12l-1.2,.16c-.05-.37-.21-.67-.48-.88-.26-.21-.63-.31-1.11-.31-.57,0-.97,.09-1.21,.28s-.36,.41-.36,.66c0,.16,.05,.3,.15,.43,.1,.13,.26,.24,.47,.33,.12,.05,.49,.15,1.09,.31,.87,.23,1.48,.42,1.82,.57,.34,.15,.61,.36,.81,.65s.29,.63,.29,1.05-.12,.8-.36,1.16c-.24,.36-.58,.64-1.04,.84s-.96,.3-1.53,.3c-.94,0-1.66-.2-2.16-.59-.49-.39-.81-.97-.95-1.74Z" style="fill:#1d1d1b;"/><path d="M113.41,334.83l1.22-.19c.07,.49,.26,.86,.57,1.12,.31,.26,.75,.39,1.31,.39s.98-.12,1.26-.35,.41-.5,.41-.81c0-.28-.12-.5-.36-.66-.17-.11-.59-.25-1.26-.42-.9-.23-1.53-.42-1.88-.59-.35-.17-.61-.4-.79-.69-.18-.29-.27-.62-.27-.97,0-.32,.07-.62,.22-.9,.15-.28,.35-.5,.61-.69,.19-.14,.45-.26,.78-.36,.33-.1,.68-.15,1.06-.15,.57,0,1.07,.08,1.5,.25,.43,.16,.75,.39,.95,.67s.35,.66,.42,1.12l-1.2,.16c-.05-.37-.21-.67-.48-.88-.26-.21-.63-.31-1.11-.31-.57,0-.97,.09-1.21,.28s-.36,.41-.36,.66c0,.16,.05,.3,.15,.43,.1,.13,.26,.24,.47,.33,.12,.05,.49,.15,1.09,.31,.87,.23,1.48,.42,1.82,.57,.34,.15,.61,.36,.81,.65s.29,.63,.29,1.05-.12,.8-.36,1.16c-.24,.36-.58,.64-1.04,.84s-.96,.3-1.53,.3c-.94,0-1.66-.2-2.16-.59-.49-.39-.81-.97-.95-1.74Z" style="fill:#1d1d1b;"/><path d="M124.33,333.37c0-1.34,.37-2.34,1.12-2.99,.62-.54,1.39-.81,2.28-.81,1,0,1.81,.33,2.45,.98s.95,1.56,.95,2.71c0,.93-.14,1.67-.42,2.2-.28,.54-.69,.95-1.22,1.25-.54,.3-1.12,.44-1.75,.44-1.02,0-1.84-.33-2.46-.98-.63-.65-.94-1.59-.94-2.82Zm1.26,0c0,.93,.2,1.63,.61,2.09s.92,.69,1.53,.69,1.12-.23,1.52-.7,.61-1.17,.61-2.13c0-.9-.2-1.58-.61-2.04-.41-.46-.92-.69-1.52-.69s-1.13,.23-1.53,.69-.61,1.16-.61,2.08Z" style="fill:#1d1d1b;"/><path d="M133.66,337h-1.14v-10.02h1.23v3.58c.52-.65,1.18-.98,1.99-.98,.45,0,.87,.09,1.27,.27,.4,.18,.73,.43,.98,.76,.26,.33,.46,.72,.6,1.18s.22,.95,.22,1.48c0,1.24-.31,2.21-.92,2.88s-1.35,1.02-2.21,1.02-1.53-.36-2.02-1.07v.91Zm-.01-3.68c0,.87,.12,1.5,.36,1.89,.39,.63,.91,.95,1.57,.95,.54,0,1-.23,1.39-.7s.59-1.16,.59-2.09-.19-1.65-.56-2.1c-.38-.45-.83-.68-1.36-.68s-1,.23-1.39,.7-.59,1.14-.59,2.03Z" style="fill:#1d1d1b;"/><path d="M138.64,339.81l.23-1.05c.25,.06,.44,.1,.58,.1,.25,0,.44-.08,.56-.25s.18-.58,.18-1.25v-7.63h1.23v7.66c0,.89-.12,1.52-.35,1.87-.3,.46-.79,.68-1.48,.68-.33,0-.65-.04-.96-.13Zm1.56-11.41v-1.43h1.23v1.43h-1.23Z" style="fill:#1d1d1b;"/><path d="M148.21,334.66l1.27,.16c-.2,.74-.57,1.32-1.11,1.73s-1.24,.62-2.08,.62c-1.06,0-1.9-.33-2.53-.98-.62-.65-.93-1.57-.93-2.75s.31-2.17,.94-2.84,1.44-1.01,2.45-1.01,1.76,.33,2.38,.99,.92,1.59,.92,2.79c0,.07,0,.18,0,.33h-5.41c.05,.8,.27,1.41,.68,1.83s.91,.64,1.52,.64c.45,0,.84-.12,1.16-.36s.57-.62,.76-1.13Zm-4.04-1.99h4.05c-.05-.61-.21-1.07-.46-1.37-.39-.47-.9-.71-1.52-.71-.57,0-1.04,.19-1.42,.57-.39,.38-.6,.88-.64,1.52Z" style="fill:#1d1d1b;"/><path d="M155.71,334.34l1.21,.16c-.13,.83-.47,1.49-1.01,1.96-.54,.47-1.21,.71-2.01,.71-.99,0-1.79-.32-2.4-.97-.6-.65-.91-1.58-.91-2.79,0-.78,.13-1.47,.39-2.06s.66-1.03,1.19-1.32c.53-.29,1.11-.44,1.73-.44,.79,0,1.43,.2,1.93,.6s.82,.96,.96,1.7l-1.2,.18c-.11-.49-.32-.85-.6-1.1-.29-.25-.64-.37-1.05-.37-.62,0-1.12,.22-1.51,.67s-.58,1.15-.58,2.11,.19,1.68,.56,2.13,.86,.66,1.46,.66c.48,0,.89-.15,1.21-.44s.53-.75,.62-1.37Z" style="fill:#1d1d1b;"/><path d="M160.7,335.9l.18,1.09c-.35,.07-.66,.11-.93,.11-.45,0-.79-.07-1.04-.21s-.42-.33-.52-.56-.15-.71-.15-1.45v-4.18h-.9v-.96h.9v-1.8l1.22-.74v2.54h1.24v.96h-1.24v4.25c0,.35,.02,.58,.07,.68,.04,.1,.11,.18,.21,.24,.1,.06,.24,.09,.42,.09,.14,0,.32-.02,.54-.05Z" style="fill:#1d1d1b;"/><path d="M161.87,328.39v-1.42h1.23v1.42h-1.23Zm0,8.61v-7.26h1.23v7.26h-1.23Z" style="fill:#1d1d1b;"/><path d="M166.91,337l-2.76-7.26h1.3l1.56,4.35c.17,.47,.32,.96,.46,1.46,.11-.38,.26-.84,.46-1.38l1.61-4.43h1.26l-2.75,7.26h-1.15Z" style="fill:#1d1d1b;"/><path d="M176.55,334.66l1.27,.16c-.2,.74-.57,1.32-1.11,1.73s-1.24,.62-2.08,.62c-1.06,0-1.9-.33-2.53-.98-.62-.65-.93-1.57-.93-2.75s.31-2.17,.94-2.84,1.44-1.01,2.45-1.01,1.76,.33,2.38,.99,.92,1.59,.92,2.79c0,.07,0,.18,0,.33h-5.41c.05,.8,.27,1.41,.68,1.83s.91,.64,1.52,.64c.45,0,.84-.12,1.16-.36s.57-.62,.76-1.13Zm-4.04-1.99h4.05c-.05-.61-.21-1.07-.46-1.37-.39-.47-.9-.71-1.52-.71-.57,0-1.04,.19-1.42,.57-.39,.38-.6,.88-.64,1.52Z" style="fill:#1d1d1b;"/><path d="M178.83,334.83l1.22-.19c.07,.49,.26,.86,.57,1.12,.31,.26,.75,.39,1.31,.39s.98-.12,1.26-.35,.41-.5,.41-.81c0-.28-.12-.5-.36-.66-.17-.11-.59-.25-1.26-.42-.9-.23-1.53-.42-1.88-.59-.35-.17-.61-.4-.79-.69-.18-.29-.27-.62-.27-.97,0-.32,.07-.62,.22-.9,.15-.28,.35-.5,.61-.69,.19-.14,.45-.26,.78-.36,.33-.1,.68-.15,1.06-.15,.57,0,1.07,.08,1.5,.25,.43,.16,.75,.39,.95,.67s.35,.66,.42,1.12l-1.2,.16c-.05-.37-.21-.67-.48-.88-.26-.21-.63-.31-1.11-.31-.57,0-.97,.09-1.21,.28s-.36,.41-.36,.66c0,.16,.05,.3,.15,.43,.1,.13,.26,.24,.47,.33,.12,.05,.49,.15,1.09,.31,.87,.23,1.48,.42,1.82,.57,.34,.15,.61,.36,.81,.65s.29,.63,.29,1.05-.12,.8-.36,1.16c-.24,.36-.58,.64-1.04,.84s-.96,.3-1.53,.3c-.94,0-1.66-.2-2.16-.59-.49-.39-.81-.97-.95-1.74Z" style="fill:#1d1d1b;"/><path d="M186.51,337v-1.4h1.4v1.4h-1.4Z" style="fill:#1d1d1b;"/></g></svg>