<?xml version="1.0" encoding="UTF-8"?>
<svg id="Ebene_1" data-name="Ebene 1" xmlns="http://www.w3.org/2000/svg" viewBox="0 0 988 525">
  <defs>
    <style>
      .cls-1 {
        letter-spacing: 0em;
      }

      .cls-2 {
        letter-spacing: 0em;
      }

      .cls-3 {
        letter-spacing: 0em;
      }

      .cls-4 {
        letter-spacing: 0em;
      }

      .cls-5 {
        letter-spacing: 0em;
      }

      .cls-6 {
        letter-spacing: 0em;
      }

      .cls-7 {
        letter-spacing: 0em;
      }

      .cls-8 {
        letter-spacing: -.01em;
      }

      .cls-9 {
        letter-spacing: 0em;
      }

      .cls-10 {
        letter-spacing: 0em;
      }

      .cls-11 {
        letter-spacing: 0em;
      }

      .cls-12 {
        letter-spacing: -.01em;
      }

      .cls-13 {
        letter-spacing: .03em;
      }

      .cls-14 {
        letter-spacing: 0em;
      }

      .cls-15 {
        letter-spacing: 0em;
      }

      .cls-16 {
        letter-spacing: 0em;
      }

      .cls-17 {
        letter-spacing: 0em;
      }

      .cls-18 {
        letter-spacing: .01em;
      }

      .cls-19 {
        letter-spacing: 0em;
      }

      .cls-20 {
        letter-spacing: 0em;
      }

      .cls-21 {
        letter-spacing: 0em;
      }

      .cls-22 {
        letter-spacing: 0em;
      }

      .cls-23 {
        letter-spacing: 0em;
      }

      .cls-24 {
        letter-spacing: 0em;
      }

      .cls-25 {
        letter-spacing: 0em;
      }

      .cls-26 {
        letter-spacing: 0em;
      }

      .cls-27 {
        letter-spacing: -.01em;
      }

      .cls-28 {
        letter-spacing: -.01em;
      }

      .cls-29 {
        letter-spacing: 0em;
      }

      .cls-30 {
        letter-spacing: 0em;
      }

      .cls-31 {
        letter-spacing: .01em;
      }

      .cls-32 {
        letter-spacing: 0em;
      }

      .cls-33 {
        letter-spacing: 0em;
      }

      .cls-34 {
        letter-spacing: 0em;
      }

      .cls-35 {
        letter-spacing: -.02em;
      }

      .cls-36 {
        letter-spacing: -.01em;
      }

      .cls-37 {
        letter-spacing: 0em;
      }

      .cls-38 {
        letter-spacing: -.02em;
      }

      .cls-39 {
        letter-spacing: 0em;
      }

      .cls-40 {
        letter-spacing: 0em;
      }

      .cls-41 {
        letter-spacing: -.02em;
      }

      .cls-42 {
        letter-spacing: -.06em;
      }

      .cls-43 {
        letter-spacing: 0em;
      }

      .cls-44 {
        letter-spacing: 0em;
      }

      .cls-45 {
        letter-spacing: -.02em;
      }

      .cls-46 {
        fill: #fff;
        stroke: #0333ff;
        stroke-width: 2px;
      }

      .cls-46, .cls-47 {
        stroke-miterlimit: 10;
      }

      .cls-48 {
        letter-spacing: 0em;
      }

      .cls-49 {
        letter-spacing: -.01em;
      }

      .cls-50 {
        letter-spacing: 0em;
      }

      .cls-51 {
        letter-spacing: 0em;
      }

      .cls-52 {
        letter-spacing: -.02em;
      }

      .cls-53 {
        letter-spacing: 0em;
      }

      .cls-54 {
        letter-spacing: .04em;
      }

      .cls-55 {
        letter-spacing: .02em;
      }

      .cls-56 {
        font-family: Arial-BoldMT, Arial;
        font-weight: 700;
      }

      .cls-56, .cls-57 {
        font-size: 20px;
      }

      .cls-56, .cls-58 {
        fill: #0333ff;
      }

      .cls-59 {
        letter-spacing: .04em;
      }

      .cls-60 {
        letter-spacing: 0em;
      }

      .cls-61 {
        letter-spacing: 0em;
      }

      .cls-62 {
        letter-spacing: .01em;
      }

      .cls-63 {
        letter-spacing: -.02em;
      }

      .cls-64 {
        letter-spacing: 0em;
      }

      .cls-65 {
        letter-spacing: 0em;
      }

      .cls-66 {
        letter-spacing: -.01em;
      }

      .cls-67 {
        letter-spacing: 0em;
      }

      .cls-68 {
        letter-spacing: 0em;
      }

      .cls-57, .cls-69 {
        fill: #1d1d1b;
      }

      .cls-57, .cls-69, .cls-58 {
        font-family: ArialMT, Arial;
      }

      .cls-70 {
        letter-spacing: 0em;
      }

      .cls-71 {
        letter-spacing: 0em;
      }

      .cls-72 {
        letter-spacing: 0em;
      }

      .cls-73 {
        letter-spacing: 0em;
      }

      .cls-74 {
        letter-spacing: 0em;
      }

      .cls-75 {
        letter-spacing: 0em;
      }

      .cls-76 {
        letter-spacing: 0em;
      }

      .cls-77 {
        letter-spacing: 0em;
      }

      .cls-78 {
        letter-spacing: 0em;
      }

      .cls-79 {
        letter-spacing: 0em;
      }

      .cls-80 {
        letter-spacing: 0em;
      }

      .cls-81 {
        letter-spacing: 0em;
      }

      .cls-82 {
        letter-spacing: .01em;
      }

      .cls-83 {
        letter-spacing: 0em;
      }

      .cls-84 {
        letter-spacing: -.04em;
      }

      .cls-85 {
        letter-spacing: 0em;
      }

      .cls-86 {
        letter-spacing: .02em;
      }

      .cls-87 {
        letter-spacing: .02em;
      }

      .cls-69, .cls-58 {
        font-size: 12px;
      }

      .cls-88 {
        letter-spacing: 0em;
      }

      .cls-89 {
        letter-spacing: 0em;
      }

      .cls-90 {
        letter-spacing: -.02em;
      }

      .cls-91 {
        letter-spacing: 0em;
      }

      .cls-92 {
        letter-spacing: .02em;
      }

      .cls-93 {
        letter-spacing: .03em;
      }

      .cls-94 {
        letter-spacing: -.02em;
      }

      .cls-95 {
        letter-spacing: .03em;
      }

      .cls-96 {
        letter-spacing: 0em;
      }

      .cls-97 {
        letter-spacing: .02em;
      }

      .cls-98 {
        letter-spacing: -.02em;
      }

      .cls-99 {
        letter-spacing: .02em;
      }

      .cls-47 {
        fill: none;
        stroke: #1d1d1b;
      }

      .cls-100 {
        letter-spacing: 0em;
      }

      .cls-101 {
        letter-spacing: -.01em;
      }

      .cls-102 {
        letter-spacing: 0em;
      }

      .cls-103 {
        letter-spacing: 0em;
      }

      .cls-104 {
        letter-spacing: 0em;
      }

      .cls-105 {
        letter-spacing: 0em;
      }

      .cls-106 {
        letter-spacing: 0em;
      }

      .cls-107 {
        letter-spacing: 0em;
      }

      .cls-108 {
        letter-spacing: 0em;
      }

      .cls-109 {
        letter-spacing: 0em;
      }

      .cls-110 {
        letter-spacing: .02em;
      }

      .cls-111 {
        letter-spacing: 0em;
      }

      .cls-112 {
        letter-spacing: 0em;
      }

      .cls-113 {
        letter-spacing: .03em;
      }

      .cls-114 {
        letter-spacing: 0em;
      }

      .cls-115 {
        letter-spacing: 0em;
      }

      .cls-116 {
        letter-spacing: 0em;
      }

      .cls-117 {
        letter-spacing: 0em;
      }

      .cls-118 {
        letter-spacing: 0em;
      }

      .cls-119 {
        letter-spacing: 0em;
      }

      .cls-120 {
        letter-spacing: .03em;
      }

      .cls-121 {
        letter-spacing: 0em;
      }

      .cls-122 {
        letter-spacing: 0em;
      }

      .cls-123 {
        letter-spacing: 0em;
      }

      .cls-124 {
        letter-spacing: 0em;
      }

      .cls-125 {
        letter-spacing: 0em;
      }

      .cls-126 {
        letter-spacing: .01em;
      }

      .cls-127 {
        letter-spacing: 0em;
      }

      .cls-128 {
        letter-spacing: 0em;
      }

      .cls-129 {
        letter-spacing: 0em;
      }

      .cls-130 {
        letter-spacing: 0em;
      }

      .cls-131 {
        letter-spacing: 0em;
      }

      .cls-132 {
        letter-spacing: .01em;
      }

      .cls-133 {
        letter-spacing: 0em;
      }

      .cls-134 {
        letter-spacing: 0em;
      }

      .cls-135 {
        letter-spacing: 0em;
      }

      .cls-136 {
        letter-spacing: 0em;
      }

      .cls-137 {
        letter-spacing: 0em;
      }

      .cls-138 {
        letter-spacing: 0em;
      }

      .cls-139 {
        letter-spacing: 0em;
      }

      .cls-140 {
        letter-spacing: .04em;
      }

      .cls-141 {
        letter-spacing: 0em;
      }

      .cls-142 {
        letter-spacing: 0em;
      }

      .cls-143 {
        letter-spacing: 0em;
      }

      .cls-144 {
        letter-spacing: 0em;
      }

      .cls-145 {
        letter-spacing: 0em;
      }

      .cls-146 {
        letter-spacing: 0em;
      }

      .cls-147 {
        letter-spacing: 0em;
      }

      .cls-148 {
        letter-spacing: -.01em;
      }

      .cls-149 {
        letter-spacing: 0em;
      }

      .cls-150 {
        letter-spacing: -.03em;
      }
    </style>
  </defs>
  <g>
    <rect class="cls-47" x="48.86" y="32.5" width="400" height="60"/>
    <text class="cls-57" transform="translate(154.37 69.09)"><tspan class="cls-94" x="0" y="0">P</tspan><tspan class="cls-53" x="13.02" y="0">r</tspan><tspan class="cls-3" x="19.55" y="0">o</tspan><tspan class="cls-96" x="30.56" y="0">bl</tspan><tspan class="cls-137" x="45.85" y="0">e</tspan><tspan x="56.81" y="0">m </tspan><tspan class="cls-115" x="79.02" y="0">i</tspan><tspan class="cls-14" x="83.37" y="0">d</tspan><tspan class="cls-136" x="94.31" y="0">e</tspan><tspan class="cls-41" x="105.27" y="0">n</tspan><tspan class="cls-77" x="116.04" y="0">t</tspan><tspan class="cls-76" x="121.51" y="0">i</tspan><tspan class="cls-86" x="125.83" y="0">f</tspan><tspan class="cls-40" x="131.72" y="0">i</tspan><tspan class="cls-73" x="136.02" y="0">c</tspan><tspan class="cls-98" x="146.21" y="0">a</tspan><tspan class="cls-77" x="157.02" y="0">t</tspan><tspan class="cls-124" x="162.49" y="0">i</tspan><tspan class="cls-3" x="166.85" y="0">o</tspan><tspan x="177.86" y="0">n</tspan></text>
  </g>
  <g>
    <rect class="cls-47" x="48.86" y="112.5" width="400" height="60"/>
    <text class="cls-57" transform="translate(150.12 149.09)"><tspan class="cls-2" x="0" y="0">D</tspan><tspan class="cls-38" x="14.39" y="0">e</tspan><tspan class="cls-87" x="25.17" y="0">f</tspan><tspan class="cls-36" x="31.06" y="0">i</tspan><tspan class="cls-49" x="35.3" y="0">n</tspan><tspan class="cls-8" x="46.2" y="0">i</tspan><tspan class="cls-77" x="50.44" y="0">t</tspan><tspan class="cls-124" x="55.91" y="0">i</tspan><tspan class="cls-3" x="60.27" y="0">o</tspan><tspan x="71.28" y="0">n </tspan><tspan class="cls-148" x="87.96" y="0">o</tspan><tspan x="98.79" y="0">f </tspan><tspan class="cls-5" x="109.91" y="0">o</tspan><tspan class="cls-6" x="120.92" y="0">b</tspan><tspan class="cls-96" x="131.85" y="0">j</tspan><tspan class="cls-11" x="136.15" y="0">e</tspan><tspan class="cls-1" x="147.16" y="0">c</tspan><tspan class="cls-83" x="157.19" y="0">t</tspan><tspan class="cls-142" x="162.66" y="0">i</tspan><tspan class="cls-63" x="166.95" y="0">v</tspan><tspan class="cls-128" x="176.47" y="0">e</tspan><tspan x="187.49" y="0">s</tspan></text>
  </g>
  <g>
    <rect class="cls-47" x="48.86" y="192.5" width="400" height="60"/>
    <text class="cls-57" transform="translate(139.9 229.09)"><tspan class="cls-2" x="0" y="0">D</tspan><tspan class="cls-135" x="14.39" y="0">e</tspan><tspan class="cls-78" x="25.41" y="0">s</tspan><tspan class="cls-32" x="35.23" y="0">i</tspan><tspan class="cls-6" x="39.57" y="0">g</tspan><tspan x="50.5" y="0">n </tspan><tspan class="cls-36" x="67.18" y="0">a</tspan><tspan class="cls-143" x="78.1" y="0">n</tspan><tspan x="89.07" y="0">d </tspan><tspan class="cls-14" x="105.75" y="0">d</tspan><tspan class="cls-150" x="116.69" y="0">e</tspan><tspan class="cls-52" x="127.29" y="0">v</tspan><tspan class="cls-70" x="136.81" y="0">e</tspan><tspan class="cls-3" x="147.81" y="0">lo</tspan><tspan class="cls-96" x="163.15" y="0">p</tspan><tspan class="cls-109" x="174.13" y="0">m</tspan><tspan class="cls-137" x="190.66" y="0">e</tspan><tspan class="cls-41" x="201.62" y="0">n</tspan><tspan x="212.39" y="0">t</tspan></text>
  </g>
  <g>
    <rect class="cls-46" x="48.86" y="272.5" width="400" height="60"/>
    <text class="cls-56" transform="translate(178.38 309.09)"><tspan class="cls-1" x="0" y="0">D</tspan><tspan x="14.48" y="0">e</tspan><tspan class="cls-25" x="25.6" y="0">m</tspan><tspan class="cls-44" x="43.32" y="0">o</tspan><tspan class="cls-26" x="55.47" y="0">n</tspan><tspan class="cls-111" x="67.67" y="0">s</tspan><tspan class="cls-43" x="78.68" y="0">t</tspan><tspan class="cls-7" x="85.49" y="0">r</tspan><tspan class="cls-108" x="93.26" y="0">a</tspan><tspan class="cls-19" x="104.33" y="0">t</tspan><tspan class="cls-118" x="111.1" y="0">i</tspan><tspan class="cls-44" x="116.6" y="0">o</tspan><tspan x="128.75" y="0">n</tspan></text>
  </g>
  <text class="cls-69" transform="translate(511.7 62.5)"><tspan class="cls-102" x="0" y="0">D</tspan><tspan class="cls-106" x="8.77" y="0">e</tspan><tspan class="cls-113" x="15.38" y="0">f</tspan><tspan class="cls-75" x="19.05" y="0">i</tspan><tspan class="cls-67" x="21.74" y="0">n</tspan><tspan class="cls-102" x="28.45" y="0">e </tspan><tspan class="cls-125" x="38.67" y="0">t</tspan><tspan class="cls-29" x="42.09" y="0">h</tspan><tspan class="cls-71" x="48.81" y="0">e </tspan><tspan class="cls-37" x="59.03" y="0">s</tspan><tspan class="cls-81" x="65.05" y="0">pe</tspan><tspan class="cls-82" x="78.55" y="0">c</tspan><tspan class="cls-19" x="84.71" y="0">i</tspan><tspan class="cls-120" x="87.44" y="0">f</tspan><tspan class="cls-64" x="91.11" y="0">i</tspan><tspan class="cls-102" x="93.83" y="0">c </tspan><tspan class="cls-149" x="103.38" y="0">r</tspan><tspan class="cls-17" x="107.41" y="0">e</tspan><tspan class="cls-112" x="114.16" y="0">se</tspan><tspan class="cls-121" x="126.92" y="0">a</tspan><tspan class="cls-149" x="133.61" y="0">r</tspan><tspan class="cls-18" x="137.64" y="0">c</tspan><tspan class="cls-71" x="143.79" y="0">h </tspan><tspan class="cls-134" x="154.02" y="0">pr</tspan><tspan class="cls-100" x="164.81" y="0">o</tspan><tspan class="cls-60" x="171.55" y="0">bl</tspan><tspan class="cls-112" x="181" y="0">e</tspan><tspan class="cls-102" x="187.71" y="0">m </tspan><tspan class="cls-75" x="201.26" y="0">a</tspan><tspan class="cls-123" x="207.95" y="0">n</tspan><tspan class="cls-102" x="214.67" y="0">d</tspan><tspan class="cls-75" x="0" y="14.4">ju</tspan><tspan class="cls-80" x="9.37" y="14.4">s</tspan><tspan class="cls-114" x="15.36" y="14.4">t</tspan><tspan class="cls-61" x="18.77" y="14.4">i</tspan><tspan class="cls-95" x="21.51" y="14.4">f</tspan><tspan class="cls-102" x="25.26" y="14.4">y </tspan><tspan class="cls-125" x="34.81" y="14.4">t</tspan><tspan class="cls-30" x="38.23" y="14.4">h</tspan><tspan class="cls-102" x="44.95" y="14.4">e </tspan><tspan class="cls-12" x="55.17" y="14.4">v</tspan><tspan class="cls-121" x="61.05" y="14.4">a</tspan><tspan class="cls-127" x="67.75" y="14.4">l</tspan><tspan class="cls-79" x="70.42" y="14.4">u</tspan><tspan class="cls-102" x="77.13" y="14.4">e </tspan><tspan class="cls-16" x="87.35" y="14.4">o</tspan><tspan class="cls-102" x="93.99" y="14.4">f a </tspan><tspan class="cls-134" x="111.1" y="14.4">s</tspan><tspan class="cls-119" x="117.16" y="14.4">o</tspan><tspan class="cls-147" x="123.91" y="14.4">l</tspan><tspan class="cls-131" x="126.58" y="14.4">u</tspan><tspan class="cls-116" x="133.25" y="14.4">ti</tspan><tspan class="cls-81" x="139.42" y="14.4">o</tspan><tspan class="cls-76" x="146.17" y="14.4">n</tspan><tspan class="cls-102" x="152.77" y="14.4">.</tspan></text>
  <text class="cls-69" transform="translate(511.7 149.09)"><tspan class="cls-34" x="0" y="0">I</tspan><tspan class="cls-72" x="3.36" y="0">n</tspan><tspan class="cls-15" x="10" y="0">f</tspan><tspan class="cls-33" x="13.31" y="0">e</tspan><tspan class="cls-71" x="20.03" y="0">r </tspan><tspan class="cls-129" x="27.58" y="0">t</tspan><tspan class="cls-30" x="31.01" y="0">h</tspan><tspan class="cls-102" x="37.72" y="0">e </tspan><tspan class="cls-81" x="47.94" y="0">o</tspan><tspan class="cls-133" x="54.69" y="0">b</tspan><tspan class="cls-60" x="61.39" y="0">j</tspan><tspan class="cls-74" x="64.11" y="0">e</tspan><tspan class="cls-132" x="70.85" y="0">c</tspan><tspan class="cls-114" x="77.01" y="0">t</tspan><tspan class="cls-33" x="80.43" y="0">i</tspan><tspan class="cls-66" x="83.14" y="0">v</tspan><tspan class="cls-17" x="88.99" y="0">e</tspan><tspan class="cls-102" x="95.74" y="0">s </tspan><tspan class="cls-16" x="105.29" y="0">o</tspan><tspan class="cls-102" x="111.93" y="0">f a </tspan><tspan class="cls-134" x="129.04" y="0">s</tspan><tspan class="cls-119" x="135.1" y="0">o</tspan><tspan class="cls-147" x="141.85" y="0">l</tspan><tspan class="cls-131" x="144.52" y="0">u</tspan><tspan class="cls-116" x="151.19" y="0">ti</tspan><tspan class="cls-81" x="157.36" y="0">o</tspan><tspan class="cls-102" x="164.11" y="0">n </tspan><tspan class="cls-62" x="174.33" y="0">f</tspan><tspan class="cls-134" x="177.79" y="0">r</tspan><tspan class="cls-100" x="181.85" y="0">o</tspan><tspan class="cls-102" x="188.59" y="0">m </tspan><tspan class="cls-125" x="202.14" y="0">t</tspan><tspan class="cls-30" x="205.57" y="0">h</tspan><tspan class="cls-102" x="212.28" y="0">e </tspan><tspan class="cls-134" x="222.5" y="0">pr</tspan><tspan class="cls-100" x="233.29" y="0">o</tspan><tspan class="cls-60" x="240.04" y="0">bl</tspan><tspan class="cls-112" x="249.49" y="0">e</tspan><tspan class="cls-102" x="256.2" y="0">m </tspan><tspan class="cls-149" x="269.75" y="0">d</tspan><tspan class="cls-107" x="276.45" y="0">e</tspan><tspan class="cls-120" x="283.06" y="0">f</tspan><tspan class="cls-68" x="286.73" y="0">i</tspan><tspan class="cls-22" x="289.42" y="0">n</tspan><tspan class="cls-104" x="296.09" y="0">i</tspan><tspan class="cls-116" x="298.78" y="0">ti</tspan><tspan class="cls-81" x="304.95" y="0">o</tspan><tspan class="cls-76" x="311.69" y="0">n</tspan><tspan class="cls-102" x="318.29" y="0">.</tspan></text>
  <text class="cls-69" transform="translate(511.7 222.5)"><tspan class="cls-37" x="0" y="0">C</tspan><tspan class="cls-50" x="8.69" y="0">r</tspan><tspan class="cls-112" x="12.71" y="0">e</tspan><tspan class="cls-91" x="19.43" y="0">a</tspan><tspan class="cls-83" x="26.06" y="0">t</tspan><tspan class="cls-102" x="29.34" y="0">e </tspan><tspan class="cls-125" x="39.56" y="0">t</tspan><tspan class="cls-29" x="42.99" y="0">h</tspan><tspan class="cls-71" x="49.7" y="0">e </tspan><tspan class="cls-130" x="59.93" y="0">a</tspan><tspan class="cls-59" x="66.62" y="0">r</tspan><tspan class="cls-114" x="71.12" y="0">t</tspan><tspan class="cls-19" x="74.54" y="0">i</tspan><tspan class="cls-103" x="77.27" y="0">f</tspan><tspan class="cls-48" x="80.66" y="0">a</tspan><tspan class="cls-126" x="87.32" y="0">c</tspan><tspan class="cls-88" x="93.47" y="0">t</tspan><tspan class="cls-75" x="96.83" y="0">u</tspan><tspan class="cls-121" x="103.52" y="0">a</tspan><tspan class="cls-102" x="110.22" y="0">l </tspan><tspan class="cls-134" x="116.43" y="0">s</tspan><tspan class="cls-17" x="122.49" y="0">o</tspan><tspan class="cls-127" x="129.25" y="0">l</tspan><tspan class="cls-23" x="131.92" y="0">u</tspan><tspan class="cls-114" x="138.59" y="0">ti</tspan><tspan class="cls-100" x="144.76" y="0">o</tspan><tspan class="cls-9" x="151.5" y="0">n</tspan><tspan class="cls-102" x="158.1" y="0">, </tspan><tspan class="cls-75" x="164.99" y="0">in</tspan><tspan class="cls-99" x="174.36" y="0">c</tspan><tspan class="cls-127" x="180.54" y="0">l</tspan><tspan class="cls-39" x="183.21" y="0">u</tspan><tspan class="cls-149" x="189.94" y="0">d</tspan><tspan class="cls-17" x="196.64" y="0">e</tspan><tspan class="cls-102" x="203.39" y="0">s </tspan><tspan class="cls-50" x="212.94" y="0">d</tspan><tspan class="cls-89" x="219.65" y="0">e</tspan><tspan class="cls-83" x="226.24" y="0">t</tspan><tspan class="cls-39" x="229.52" y="0">e</tspan><tspan class="cls-92" x="236.25" y="0">r</tspan><tspan class="cls-144" x="240.46" y="0">m</tspan><tspan class="cls-75" x="250.48" y="0">i</tspan><tspan class="cls-22" x="253.16" y="0">n</tspan><tspan class="cls-68" x="259.84" y="0">i</tspan><tspan class="cls-10" x="262.52" y="0">n</tspan><tspan class="cls-102" x="269.24" y="0">g </tspan><tspan class="cls-125" x="279.46" y="0">t</tspan><tspan class="cls-30" x="282.88" y="0">h</tspan><tspan class="cls-102" x="289.6" y="0">e </tspan><tspan class="cls-149" x="299.82" y="0">d</tspan><tspan class="cls-17" x="306.53" y="0">e</tspan><tspan class="cls-138" x="313.28" y="0">s</tspan><tspan class="cls-121" x="319.31" y="0">i</tspan><tspan class="cls-149" x="322" y="0">r</tspan><tspan class="cls-81" x="326.02" y="0">e</tspan><tspan class="cls-102" x="332.77" y="0">d</tspan><tspan class="cls-31" x="0" y="14.4">f</tspan><tspan class="cls-146" x="3.47" y="14.4">u</tspan><tspan class="cls-68" x="10.14" y="14.4">n</tspan><tspan class="cls-126" x="16.83" y="14.4">c</tspan><tspan class="cls-116" x="22.98" y="14.4">ti</tspan><tspan class="cls-81" x="29.15" y="14.4">o</tspan><tspan class="cls-105" x="35.9" y="14.4">n</tspan><tspan class="cls-130" x="42.59" y="14.4">a</tspan><tspan class="cls-23" x="49.29" y="14.4">l</tspan><tspan class="cls-4" x="51.95" y="14.4">i</tspan><tspan class="cls-13" x="54.63" y="14.4">t</tspan><tspan class="cls-102" x="58.27" y="14.4">y </tspan><tspan class="cls-68" x="67.82" y="14.4">a</tspan><tspan class="cls-123" x="74.51" y="14.4">n</tspan><tspan class="cls-102" x="81.23" y="14.4">d </tspan><tspan class="cls-4" x="91.46" y="14.4">i</tspan><tspan class="cls-102" x="94.14" y="14.4">ts </tspan><tspan class="cls-130" x="107.13" y="14.4">a</tspan><tspan class="cls-50" x="113.83" y="14.4">r</tspan><tspan class="cls-18" x="117.86" y="14.4">c</tspan><tspan class="cls-51" x="124.01" y="14.4">h</tspan><tspan class="cls-4" x="130.69" y="14.4">i</tspan><tspan class="cls-83" x="133.37" y="14.4">t</tspan><tspan class="cls-74" x="136.66" y="14.4">e</tspan><tspan class="cls-126" x="143.4" y="14.4">c</tspan><tspan class="cls-88" x="149.55" y="14.4">t</tspan><tspan class="cls-22" x="152.91" y="14.4">u</tspan><tspan class="cls-149" x="159.59" y="14.4">r</tspan><tspan class="cls-28" x="163.61" y="14.4">e</tspan><tspan class="cls-102" x="170.16" y="14.4">.</tspan></text>
  <text class="cls-58" transform="translate(511.7 302.5)"><tspan class="cls-102" x="0" y="0">D</tspan><tspan class="cls-112" x="8.77" y="0">e</tspan><tspan class="cls-122" x="15.49" y="0">mo</tspan><tspan class="cls-51" x="32.31" y="0">n</tspan><tspan class="cls-80" x="39" y="0">s</tspan><tspan class="cls-85" x="44.98" y="0">t</tspan><tspan class="cls-81" x="48.41" y="0">r</tspan><tspan class="cls-91" x="52.48" y="0">a</tspan><tspan class="cls-83" x="59.1" y="0">t</tspan><tspan class="cls-102" x="62.39" y="0">e </tspan><tspan class="cls-125" x="72.61" y="0">t</tspan><tspan class="cls-29" x="76.03" y="0">h</tspan><tspan class="cls-71" x="82.75" y="0">e </tspan><tspan class="cls-106" x="92.97" y="0">e</tspan><tspan class="cls-140" x="99.58" y="0">f</tspan><tspan class="cls-113" x="103.37" y="0">f</tspan><tspan class="cls-145" x="107.04" y="0">i</tspan><tspan class="cls-110" x="109.76" y="0">c</tspan><tspan class="cls-65" x="116.01" y="0">a</tspan><tspan class="cls-33" x="122.66" y="0">c</tspan><tspan class="cls-71" x="128.71" y="0">y </tspan><tspan class="cls-16" x="138.26" y="0">o</tspan><tspan class="cls-102" x="144.9" y="0">f </tspan><tspan class="cls-125" x="151.78" y="0">t</tspan><tspan class="cls-29" x="155.21" y="0">h</tspan><tspan class="cls-102" x="161.92" y="0">e </tspan><tspan class="cls-130" x="172.15" y="0">a</tspan><tspan class="cls-54" x="178.84" y="0">r</tspan><tspan class="cls-116" x="183.34" y="0">t</tspan><tspan class="cls-19" x="186.76" y="0">i</tspan><tspan class="cls-103" x="189.49" y="0">f</tspan><tspan class="cls-65" x="192.88" y="0">a</tspan><tspan class="cls-132" x="199.54" y="0">c</tspan><tspan class="cls-102" x="205.69" y="0">t </tspan><tspan class="cls-16" x="212.58" y="0">t</tspan><tspan class="cls-102" x="215.88" y="0">o </tspan><tspan class="cls-134" x="226.1" y="0">s</tspan><tspan class="cls-17" x="232.16" y="0">o</tspan><tspan class="cls-149" x="238.91" y="0">l</tspan><tspan class="cls-66" x="241.61" y="0">v</tspan><tspan class="cls-102" x="247.46" y="0">e </tspan><tspan class="cls-129" x="257.68" y="0">t</tspan><tspan class="cls-30" x="261.11" y="0">h</tspan><tspan class="cls-102" x="267.82" y="0">e </tspan><tspan class="cls-134" x="278.05" y="0">pr</tspan><tspan class="cls-100" x="288.84" y="0">o</tspan><tspan class="cls-60" x="295.58" y="0">bl</tspan><tspan class="cls-112" x="305.03" y="0">e</tspan><tspan class="cls-102" x="311.75" y="0">m </tspan><tspan class="cls-84" x="325.29" y="0">(</tspan><tspan class="cls-27" x="328.78" y="0">e</tspan><tspan class="cls-101" x="335.33" y="0">.</tspan><tspan class="cls-24" x="338.51" y="0">g</tspan><tspan class="cls-45" x="345.12" y="0">.</tspan><tspan class="cls-102" x="348.19" y="0">, </tspan><tspan class="cls-90" x="355.07" y="0">b</tspan><tspan class="cls-102" x="361.55" y="0">y</tspan><tspan class="cls-141" x="0" y="14.4">m</tspan><tspan class="cls-112" x="10.05" y="14.4">e</tspan><tspan class="cls-68" x="16.77" y="14.4">a</tspan><tspan class="cls-51" x="23.46" y="14.4">n</tspan><tspan class="cls-102" x="30.14" y="14.4">s </tspan><tspan class="cls-16" x="39.69" y="14.4">o</tspan><tspan class="cls-102" x="46.33" y="14.4">f </tspan><tspan class="cls-75" x="53.22" y="14.4">a</tspan><tspan class="cls-102" x="59.91" y="14.4">n </tspan><tspan class="cls-35" x="70.13" y="14.4">e</tspan><tspan class="cls-117" x="76.59" y="14.4">x</tspan><tspan class="cls-81" x="82.68" y="14.4">p</tspan><tspan class="cls-33" x="89.43" y="14.4">e</tspan><tspan class="cls-97" x="96.15" y="14.4">r</tspan><tspan class="cls-75" x="100.36" y="14.4">i</tspan><tspan class="cls-139" x="103.04" y="14.4">m</tspan><tspan class="cls-112" x="113.1" y="14.4">e</tspan><tspan class="cls-76" x="119.81" y="14.4">n</tspan><tspan class="cls-21" x="126.41" y="14.4">t</tspan><tspan class="cls-102" x="129.83" y="14.4">, a </tspan><tspan class="cls-138" x="146.93" y="14.4">s</tspan><tspan class="cls-68" x="152.96" y="14.4">im</tspan><tspan class="cls-20" x="165.66" y="14.4">u</tspan><tspan class="cls-75" x="172.34" y="14.4">l</tspan><tspan class="cls-91" x="175.02" y="14.4">a</tspan><tspan class="cls-116" x="181.65" y="14.4">ti</tspan><tspan class="cls-81" x="187.82" y="14.4">o</tspan><tspan class="cls-9" x="194.56" y="14.4">n</tspan><tspan class="cls-102" x="201.17" y="14.4">, a </tspan><tspan class="cls-55" x="218.27" y="14.4">c</tspan><tspan class="cls-20" x="224.52" y="14.4">a</tspan><tspan class="cls-112" x="231.2" y="14.4">s</tspan><tspan class="cls-102" x="237.24" y="14.4">e </tspan><tspan class="cls-80" x="247.46" y="14.4">s</tspan><tspan class="cls-133" x="253.45" y="14.4">t</tspan><tspan class="cls-39" x="256.81" y="14.4">u</tspan><tspan class="cls-131" x="263.53" y="14.4">d</tspan><tspan class="cls-42" x="270.19" y="14.4">y</tspan><tspan class="cls-102" x="275.47" y="14.4">, </tspan><tspan class="cls-17" x="282.36" y="14.4">o</tspan><tspan class="cls-102" x="289.11" y="14.4">r </tspan><tspan class="cls-134" x="296.65" y="14.4">pr</tspan><tspan class="cls-102" x="307.44" y="14.4">o</tspan><tspan class="cls-16" x="314.23" y="14.4">o</tspan><tspan class="cls-93" x="320.87" y="14.4">f</tspan><tspan class="cls-102" x="324.62" y="14.4">)</tspan></text>
</svg>