<?xml version="1.0" encoding="UTF-8"?><svg id="a" xmlns="http://www.w3.org/2000/svg" viewBox="0 0 494 525"><rect x="67" y="82.5" width="90" height="90" style="fill:none; stroke:#1d1d1b; stroke-miterlimit:10;"/><rect x="157" y="82.5" width="90" height="90" style="fill:none; stroke:#1d1d1b; stroke-miterlimit:10;"/><rect x="247" y="82.5" width="90" height="90" style="fill:none; stroke:#1d1d1b; stroke-miterlimit:10;"/><rect x="337" y="82.5" width="90" height="90" style="fill:none; stroke:#1d1d1b; stroke-miterlimit:10;"/><rect x="67" y="172.5" width="90" height="90" style="fill:none; stroke:#1d1d1b; stroke-miterlimit:10;"/><rect x="157" y="172.5" width="90" height="90" style="fill:none; stroke:#1d1d1b; stroke-miterlimit:10;"/><rect x="247" y="172.5" width="90" height="90" style="fill:none; stroke:#1d1d1b; stroke-miterlimit:10;"/><rect x="337" y="172.5" width="90" height="90" style="fill:none; stroke:#1d1d1b; stroke-miterlimit:10;"/><rect x="67" y="262.5" width="90" height="90" style="fill:none; stroke:#1d1d1b; stroke-miterlimit:10;"/><rect x="157" y="262.5" width="90" height="90" style="fill:none; stroke:#1d1d1b; stroke-miterlimit:10;"/><rect x="247" y="262.5" width="90" height="90" style="fill:none; stroke:#1d1d1b; stroke-miterlimit:10;"/><rect x="337" y="262.5" width="90" height="90" style="fill:none; stroke:#1d1d1b; stroke-miterlimit:10;"/><rect x="67" y="352.5" width="90" height="90" style="fill:none; stroke:#1d1d1b; stroke-miterlimit:10;"/><rect x="157" y="352.5" width="90" height="90" style="fill:none; stroke:#1d1d1b; stroke-miterlimit:10;"/><rect x="247" y="352.5" width="90" height="90" style="fill:none; stroke:#1d1d1b; stroke-miterlimit:10;"/><rect x="337" y="352.5" width="90" height="90" style="fill:none; stroke:#1d1d1b; stroke-miterlimit:10;"/><rect x="67" y="82.5" width="360" height="360" style="fill:none; stroke:#1d1d1b; stroke-miterlimit:10; stroke-width:2px;"/><g><circle cx="382" cy="127.5" r="27.95" style="fill:#1d1d1b;"/><g><path d="M370.72,131.35v-11.45h3.71c1.41,0,2.32,.06,2.75,.17,.66,.17,1.21,.55,1.65,1.12,.44,.58,.66,1.32,.66,2.23,0,.7-.13,1.29-.38,1.77-.25,.48-.58,.86-.97,1.13s-.79,.45-1.2,.54c-.55,.11-1.35,.16-2.4,.16h-1.51v4.32h-2.31Zm2.31-9.52v3.25h1.27c.91,0,1.52-.06,1.83-.18,.31-.12,.55-.31,.72-.56,.17-.25,.26-.55,.26-.89,0-.42-.12-.76-.37-1.03-.25-.27-.55-.44-.93-.51-.28-.05-.83-.08-1.66-.08h-1.12Z" style="fill:#fff;"/><path d="M381.32,131.35v-11.45h2.31v11.45h-2.31Z" style="fill:#fff;"/><path d="M388.41,131.35v-9.52h-3.4v-1.94h9.1v1.94h-3.39v9.52h-2.31Z" style="fill:#fff;"/></g></g><g><circle cx="292" cy="217.5" r="27.95" style="fill:#1d1d1b;"/><g><path d="M280.72,221.35v-11.45h3.71c1.41,0,2.32,.06,2.75,.17,.66,.17,1.21,.55,1.65,1.12,.44,.58,.66,1.32,.66,2.23,0,.7-.13,1.29-.38,1.77-.25,.48-.58,.86-.97,1.13s-.79,.45-1.2,.54c-.55,.11-1.35,.16-2.4,.16h-1.51v4.32h-2.31Zm2.31-9.52v3.25h1.27c.91,0,1.52-.06,1.83-.18,.31-.12,.55-.31,.72-.56,.17-.25,.26-.55,.26-.89,0-.42-.12-.76-.37-1.03-.25-.27-.55-.44-.93-.51-.28-.05-.83-.08-1.66-.08h-1.12Z" style="fill:#fff;"/><path d="M291.32,221.35v-11.45h2.31v11.45h-2.31Z" style="fill:#fff;"/><path d="M298.41,221.35v-9.52h-3.4v-1.94h9.1v1.94h-3.39v9.52h-2.31Z" style="fill:#fff;"/></g></g><g><circle cx="292" cy="397.5" r="27.95" style="fill:#1d1d1b;"/><g><path d="M280.72,401.35v-11.45h3.71c1.41,0,2.32,.06,2.75,.17,.66,.17,1.21,.55,1.65,1.12,.44,.58,.66,1.32,.66,2.23,0,.7-.13,1.29-.38,1.77-.25,.48-.58,.86-.97,1.13s-.79,.45-1.2,.54c-.55,.11-1.35,.16-2.4,.16h-1.51v4.32h-2.31Zm2.31-9.52v3.25h1.27c.91,0,1.52-.06,1.83-.18,.31-.12,.55-.31,.72-.56,.17-.25,.26-.55,.26-.89,0-.42-.12-.76-.37-1.03-.25-.27-.55-.44-.93-.51-.28-.05-.83-.08-1.66-.08h-1.12Z" style="fill:#fff;"/><path d="M291.32,401.35v-11.45h2.31v11.45h-2.31Z" style="fill:#fff;"/><path d="M298.41,401.35v-9.52h-3.4v-1.94h9.1v1.94h-3.39v9.52h-2.31Z" style="fill:#fff;"/></g></g><g><g><path d="M363.87,225.41c0-2.86,0-5.73,0-8.59,1.07-.1,2.15-.23,3.22-.4,.66-.1,1.18-.11,1.58,0,.4,.1,.71,.31,.93,.63,.23,.32,.34,.67,.34,1.07,0,.37-.1,.73-.3,1.1-.2,.36-.5,.68-.9,.95,.52,.06,.92,.24,1.2,.55,.28,.31,.42,.72,.42,1.22,0,.4-.08,.79-.25,1.17-.17,.38-.38,.69-.63,.92-.25,.24-.56,.44-.94,.6-.38,.16-.84,.29-1.39,.37-1.09,.17-2.18,.31-3.28,.41Zm1.14-5.1c.62-.07,1.24-.15,1.86-.25,.5-.08,.87-.17,1.08-.27,.29-.13,.51-.32,.65-.54,.15-.23,.22-.49,.22-.79,0-.29-.07-.52-.21-.72-.14-.19-.33-.31-.59-.34-.25-.04-.69,0-1.31,.09-.57,.08-1.14,.16-1.72,.23v2.6Zm0,3.97c.71-.08,1.43-.18,2.14-.29,.37-.06,.63-.11,.77-.17,.26-.09,.48-.21,.66-.35,.18-.14,.32-.33,.43-.56,.11-.23,.17-.48,.17-.76,0-.32-.08-.58-.25-.79-.16-.21-.39-.33-.68-.38-.29-.05-.71-.02-1.26,.06-.66,.1-1.32,.19-1.99,.27v2.95Z" style="fill:#1d1d1b;"/><path d="M371.77,224.12v-6.22c.32-.07,.63-.14,.95-.22,0,.31,0,.63,0,.94,.24-.5,.47-.84,.67-1.03,.2-.19,.43-.31,.68-.38,.35-.09,.72-.06,1.08,.07-.12,.36-.24,.71-.36,1.07-.26-.09-.52-.1-.77-.04-.23,.06-.44,.18-.62,.36-.18,.18-.32,.41-.39,.67-.12,.4-.18,.83-.18,1.27v3.26c-.35,.08-.7,.16-1.05,.24Z" style="fill:#1d1d1b;"/><path d="M380.04,219.99c.36-.06,.73-.11,1.09-.17-.17,.69-.49,1.27-.96,1.75-.46,.48-1.06,.82-1.78,1.02-.91,.25-1.63,.16-2.17-.26-.53-.42-.8-1.14-.8-2.15,0-1.05,.27-1.93,.81-2.65,.54-.72,1.24-1.2,2.1-1.43,.83-.23,1.51-.14,2.04,.28,.53,.42,.79,1.14,.79,2.17,0,.06,0,.16,0,.28-1.55,.44-3.09,.87-4.64,1.28,.04,.67,.23,1.15,.58,1.42,.35,.27,.78,.33,1.3,.19,.39-.11,.72-.3,.99-.58,.27-.28,.49-.66,.65-1.15Zm-3.46-.76c1.16-.31,2.32-.63,3.47-.95-.05-.51-.18-.87-.4-1.07-.34-.31-.77-.39-1.31-.25-.48,.13-.89,.41-1.22,.82-.33,.41-.51,.89-.55,1.45Z" style="fill:#1d1d1b;"/><path d="M386.71,218.13c.36-.05,.73-.1,1.09-.16-.17,.68-.49,1.26-.96,1.74-.46,.48-1.06,.81-1.78,1.01-.91,.25-1.63,.17-2.17-.24-.53-.41-.8-1.12-.8-2.13,0-1.05,.27-1.94,.81-2.67,.54-.73,1.24-1.22,2.1-1.45,.83-.23,1.51-.13,2.04,.29,.53,.43,.79,1.15,.79,2.18,0,.06,0,.16,0,.28-1.55,.41-3.09,.84-4.64,1.27,.04,.67,.23,1.14,.58,1.41,.35,.27,.78,.33,1.3,.18,.39-.11,.72-.3,.99-.58,.27-.28,.49-.66,.65-1.15Zm-3.46-.75c1.16-.33,2.32-.65,3.47-.96-.05-.51-.18-.87-.4-1.07-.34-.32-.77-.4-1.31-.25-.48,.13-.89,.41-1.22,.83-.33,.42-.51,.9-.55,1.45Z" style="fill:#1d1d1b;"/><path d="M388.57,219.64v-.86c1.32-1.85,2.64-3.69,3.96-5.49-.45,.12-.85,.22-1.19,.3-.85,.2-1.69,.4-2.54,.62v-.86c1.7-.43,3.39-.83,5.09-1.17,0,.23,0,.46,0,.7-1.12,1.54-2.25,3.11-3.37,4.69-.22,.29-.43,.59-.65,.88,.47-.15,.92-.28,1.33-.37,.96-.22,1.92-.43,2.88-.62,0,.3,0,.61,0,.91-1.84,.36-3.67,.8-5.51,1.27Z" style="fill:#1d1d1b;"/><path d="M399.39,215.55c.36,0,.73,.02,1.09,.03-.17,.65-.49,1.17-.96,1.57-.46,.4-1.06,.65-1.78,.75-.91,.13-1.63-.03-2.17-.5-.53-.47-.8-1.2-.8-2.21,0-1.05,.27-1.91,.81-2.58,.54-.67,1.24-1.08,2.1-1.2,.83-.12,1.51,.09,2.04,.6,.53,.51,.79,1.29,.79,2.32,0,.06,0,.16,0,.28-1.55,.13-3.09,.34-4.64,.6,.04,.68,.23,1.17,.58,1.47,.35,.31,.78,.42,1.3,.35,.39-.05,.72-.2,.99-.43,.27-.24,.49-.58,.65-1.05Zm-3.46-1.22c1.16-.2,2.32-.36,3.47-.49-.05-.52-.18-.9-.4-1.13-.34-.37-.77-.52-1.31-.44-.49,.07-.89,.29-1.22,.67-.33,.38-.51,.84-.55,1.39Z" style="fill:#1d1d1b;"/></g><path d="M405.81,213.38c4.83,.22,9.67,1.39,14.5,4.12" style="fill:none; stroke:#1d1d1b; stroke-miterlimit:10;"/><path d="M343.69,217.5c5.09,2.87,10.18,4.02,15.27,4.15" style="fill:none; stroke:#1d1d1b; stroke-miterlimit:10;"/><path d="M343.69,207.43c25.54,14.4,51.08-14.4,76.62,0" style="fill:none; stroke:#1d1d1b; stroke-miterlimit:10;"/><path d="M343.69,227.57c25.54,14.4,51.08-14.4,76.62,0" style="fill:none; stroke:#1d1d1b; stroke-miterlimit:10;"/></g><g><g><path d="M363.87,405.41c0-2.86,0-5.73,0-8.59,1.07-.1,2.15-.23,3.22-.4,.66-.1,1.18-.11,1.58,0,.4,.1,.71,.31,.93,.63,.23,.32,.34,.67,.34,1.07,0,.37-.1,.73-.3,1.1-.2,.36-.5,.68-.9,.95,.52,.06,.92,.24,1.2,.55,.28,.31,.42,.72,.42,1.22,0,.4-.08,.79-.25,1.17-.17,.38-.38,.69-.63,.92-.25,.24-.56,.44-.94,.6-.38,.16-.84,.29-1.39,.37-1.09,.17-2.18,.31-3.28,.41Zm1.14-5.1c.62-.07,1.24-.15,1.86-.25,.5-.08,.87-.17,1.08-.27,.29-.13,.51-.32,.65-.54,.15-.23,.22-.49,.22-.79,0-.29-.07-.52-.21-.72-.14-.19-.33-.31-.59-.34-.25-.04-.69,0-1.31,.09-.57,.08-1.14,.16-1.72,.23v2.6Zm0,3.97c.71-.08,1.43-.18,2.14-.29,.37-.06,.63-.11,.77-.17,.26-.09,.48-.21,.66-.35,.18-.14,.32-.33,.43-.56,.11-.23,.17-.48,.17-.76,0-.32-.08-.58-.25-.79-.16-.21-.39-.33-.68-.38-.29-.05-.71-.02-1.26,.06-.66,.1-1.32,.19-1.99,.27v2.95Z" style="fill:#1d1d1b;"/><path d="M371.77,404.12v-6.22c.32-.07,.63-.14,.95-.22,0,.31,0,.63,0,.94,.24-.5,.47-.84,.67-1.03,.2-.19,.43-.31,.68-.38,.35-.09,.72-.06,1.08,.07-.12,.36-.24,.71-.36,1.07-.26-.09-.52-.1-.77-.04-.23,.06-.44,.18-.62,.36-.18,.18-.32,.41-.39,.67-.12,.4-.18,.83-.18,1.27v3.26c-.35,.08-.7,.16-1.05,.24Z" style="fill:#1d1d1b;"/><path d="M380.04,399.99c.36-.06,.73-.11,1.09-.17-.17,.69-.49,1.27-.96,1.75-.46,.48-1.06,.82-1.78,1.02-.91,.25-1.63,.16-2.17-.26-.53-.42-.8-1.14-.8-2.15,0-1.05,.27-1.93,.81-2.65,.54-.72,1.24-1.2,2.1-1.43,.83-.23,1.51-.14,2.04,.28,.53,.42,.79,1.14,.79,2.17,0,.06,0,.16,0,.28-1.55,.44-3.09,.87-4.64,1.28,.04,.67,.23,1.15,.58,1.42,.35,.27,.78,.33,1.3,.19,.39-.11,.72-.3,.99-.58,.27-.28,.49-.66,.65-1.15Zm-3.46-.76c1.16-.31,2.32-.63,3.47-.95-.05-.51-.18-.87-.4-1.07-.34-.31-.77-.39-1.31-.25-.48,.13-.89,.41-1.22,.82-.33,.41-.51,.89-.55,1.45Z" style="fill:#1d1d1b;"/><path d="M386.71,398.13c.36-.05,.73-.1,1.09-.16-.17,.68-.49,1.26-.96,1.74-.46,.48-1.06,.81-1.78,1.01-.91,.25-1.63,.17-2.17-.24-.53-.41-.8-1.12-.8-2.13,0-1.05,.27-1.94,.81-2.67,.54-.73,1.24-1.22,2.1-1.45,.83-.23,1.51-.13,2.04,.29,.53,.43,.79,1.15,.79,2.18,0,.06,0,.16,0,.28-1.55,.41-3.09,.84-4.64,1.27,.04,.67,.23,1.14,.58,1.41,.35,.27,.78,.33,1.3,.18,.39-.11,.72-.3,.99-.58,.27-.28,.49-.66,.65-1.15Zm-3.46-.75c1.16-.33,2.32-.65,3.47-.96-.05-.51-.18-.87-.4-1.07-.34-.32-.77-.4-1.31-.25-.48,.13-.89,.41-1.22,.83-.33,.42-.51,.9-.55,1.45Z" style="fill:#1d1d1b;"/><path d="M388.57,399.64v-.86c1.32-1.85,2.64-3.69,3.96-5.49-.45,.12-.85,.22-1.19,.3-.85,.2-1.69,.4-2.54,.62v-.86c1.7-.43,3.39-.83,5.09-1.17,0,.23,0,.46,0,.7-1.12,1.54-2.25,3.11-3.37,4.69-.22,.29-.43,.59-.65,.88,.47-.15,.92-.28,1.33-.37,.96-.22,1.92-.43,2.88-.62,0,.3,0,.61,0,.91-1.84,.36-3.67,.8-5.51,1.27Z" style="fill:#1d1d1b;"/><path d="M399.39,395.55c.36,0,.73,.02,1.09,.03-.17,.65-.49,1.17-.96,1.57-.46,.4-1.06,.65-1.78,.75-.91,.13-1.63-.03-2.17-.5-.53-.47-.8-1.2-.8-2.21,0-1.05,.27-1.91,.81-2.58,.54-.67,1.24-1.08,2.1-1.2,.83-.12,1.51,.09,2.04,.6,.53,.51,.79,1.29,.79,2.32,0,.06,0,.16,0,.28-1.55,.13-3.09,.34-4.64,.6,.04,.68,.23,1.17,.58,1.47,.35,.31,.78,.42,1.3,.35,.39-.05,.72-.2,.99-.43,.27-.24,.49-.58,.65-1.05Zm-3.46-1.22c1.16-.2,2.32-.36,3.47-.49-.05-.52-.18-.9-.4-1.13-.34-.37-.77-.52-1.31-.44-.49,.07-.89,.29-1.22,.67-.33,.38-.51,.84-.55,1.39Z" style="fill:#1d1d1b;"/></g><path d="M405.81,393.38c4.83,.22,9.67,1.39,14.5,4.12" style="fill:none; stroke:#1d1d1b; stroke-miterlimit:10;"/><path d="M343.69,397.5c5.09,2.87,10.18,4.02,15.27,4.15" style="fill:none; stroke:#1d1d1b; stroke-miterlimit:10;"/><path d="M343.69,387.43c25.54,14.4,51.08-14.4,76.62,0" style="fill:none; stroke:#1d1d1b; stroke-miterlimit:10;"/><path d="M343.69,407.57c25.54,14.4,51.08-14.4,76.62,0" style="fill:none; stroke:#1d1d1b; stroke-miterlimit:10;"/></g><g><g><path d="M183.87,405.41c0-2.86,0-5.73,0-8.59,1.07-.1,2.15-.23,3.22-.4,.66-.1,1.18-.11,1.58,0,.4,.1,.71,.31,.93,.63,.23,.32,.34,.67,.34,1.07,0,.37-.1,.73-.3,1.1-.2,.36-.5,.68-.9,.95,.52,.06,.92,.24,1.2,.55,.28,.31,.42,.72,.42,1.22,0,.4-.08,.79-.25,1.17-.17,.38-.38,.69-.63,.92-.25,.24-.56,.44-.94,.6-.38,.16-.84,.29-1.39,.37-1.09,.17-2.18,.31-3.28,.41Zm1.14-5.1c.62-.07,1.24-.15,1.86-.25,.5-.08,.87-.17,1.08-.27,.29-.13,.51-.32,.65-.54,.15-.23,.22-.49,.22-.79,0-.29-.07-.52-.21-.72-.14-.19-.33-.31-.59-.34-.25-.04-.69,0-1.31,.09-.57,.08-1.14,.16-1.72,.23v2.6Zm0,3.97c.71-.08,1.43-.18,2.14-.29,.37-.06,.63-.11,.77-.17,.26-.09,.48-.21,.66-.35,.18-.14,.32-.33,.43-.56,.11-.23,.17-.48,.17-.76,0-.32-.08-.58-.25-.79-.16-.21-.39-.33-.68-.38-.29-.05-.71-.02-1.26,.06-.66,.1-1.32,.19-1.99,.27v2.95Z" style="fill:#1d1d1b;"/><path d="M191.77,404.12v-6.22c.32-.07,.63-.14,.95-.22,0,.31,0,.63,0,.94,.24-.5,.47-.84,.67-1.03,.2-.19,.43-.31,.68-.38,.35-.09,.72-.06,1.08,.07-.12,.36-.24,.71-.36,1.07-.26-.09-.52-.1-.77-.04-.23,.06-.44,.18-.62,.36-.18,.18-.32,.41-.39,.67-.12,.4-.18,.83-.18,1.27v3.26c-.35,.08-.7,.16-1.05,.24Z" style="fill:#1d1d1b;"/><path d="M200.04,399.99c.36-.06,.73-.11,1.09-.17-.17,.69-.49,1.27-.96,1.75-.46,.48-1.06,.82-1.78,1.02-.91,.25-1.63,.16-2.17-.26-.53-.42-.8-1.14-.8-2.15,0-1.05,.27-1.93,.81-2.65,.54-.72,1.24-1.2,2.1-1.43,.83-.23,1.51-.14,2.04,.28,.53,.42,.79,1.14,.79,2.17,0,.06,0,.16,0,.28-1.55,.44-3.09,.87-4.64,1.28,.04,.67,.23,1.15,.58,1.42,.35,.27,.78,.33,1.3,.19,.39-.11,.72-.3,.99-.58,.27-.28,.49-.66,.65-1.15Zm-3.46-.76c1.16-.31,2.32-.63,3.47-.95-.05-.51-.18-.87-.4-1.07-.34-.31-.77-.39-1.31-.25-.48,.13-.89,.41-1.22,.82-.33,.41-.51,.89-.55,1.45Z" style="fill:#1d1d1b;"/><path d="M206.71,398.13c.36-.05,.73-.1,1.09-.16-.17,.68-.49,1.26-.96,1.74-.46,.48-1.06,.81-1.78,1.01-.91,.25-1.63,.17-2.17-.24-.53-.41-.8-1.12-.8-2.13,0-1.05,.27-1.94,.81-2.67,.54-.73,1.24-1.22,2.1-1.45,.83-.23,1.51-.13,2.04,.29,.53,.43,.79,1.15,.79,2.18,0,.06,0,.16,0,.28-1.55,.41-3.09,.84-4.64,1.27,.04,.67,.23,1.14,.58,1.41,.35,.27,.78,.33,1.3,.18,.39-.11,.72-.3,.99-.58,.27-.28,.49-.66,.65-1.15Zm-3.46-.75c1.16-.33,2.32-.65,3.47-.96-.05-.51-.18-.87-.4-1.07-.34-.32-.77-.4-1.31-.25-.48,.13-.89,.41-1.22,.83-.33,.42-.51,.9-.55,1.45Z" style="fill:#1d1d1b;"/><path d="M208.57,399.64v-.86c1.32-1.85,2.64-3.69,3.96-5.49-.45,.12-.85,.22-1.19,.3-.85,.2-1.69,.4-2.54,.62v-.86c1.7-.43,3.39-.83,5.09-1.17,0,.23,0,.46,0,.7-1.12,1.54-2.25,3.11-3.37,4.69-.22,.29-.43,.59-.65,.88,.47-.15,.92-.28,1.33-.37,.96-.22,1.92-.43,2.88-.62,0,.3,0,.61,0,.91-1.84,.36-3.67,.8-5.51,1.27Z" style="fill:#1d1d1b;"/><path d="M219.39,395.55c.36,0,.73,.02,1.09,.03-.17,.65-.49,1.17-.96,1.57-.46,.4-1.06,.65-1.78,.75-.91,.13-1.63-.03-2.17-.5-.53-.47-.8-1.2-.8-2.21,0-1.05,.27-1.91,.81-2.58,.54-.67,1.24-1.08,2.1-1.2,.83-.12,1.51,.09,2.04,.6,.53,.51,.79,1.29,.79,2.32,0,.06,0,.16,0,.28-1.55,.13-3.09,.34-4.64,.6,.04,.68,.23,1.17,.58,1.47,.35,.31,.78,.42,1.3,.35,.39-.05,.72-.2,.99-.43,.27-.24,.49-.58,.65-1.05Zm-3.46-1.22c1.16-.2,2.32-.36,3.47-.49-.05-.52-.18-.9-.4-1.13-.34-.37-.77-.52-1.31-.44-.49,.07-.89,.29-1.22,.67-.33,.38-.51,.84-.55,1.39Z" style="fill:#1d1d1b;"/></g><path d="M225.81,393.38c4.83,.22,9.67,1.39,14.5,4.12" style="fill:none; stroke:#1d1d1b; stroke-miterlimit:10;"/><path d="M163.69,397.5c5.09,2.87,10.18,4.02,15.27,4.15" style="fill:none; stroke:#1d1d1b; stroke-miterlimit:10;"/><path d="M163.69,387.43c25.54,14.4,51.08-14.4,76.62,0" style="fill:none; stroke:#1d1d1b; stroke-miterlimit:10;"/><path d="M163.69,407.57c25.54,14.4,51.08-14.4,76.62,0" style="fill:none; stroke:#1d1d1b; stroke-miterlimit:10;"/></g><g><g><path d="M183.87,194.63c0-2.86,0-5.73,0-8.59,1.07-.1,2.15-.23,3.22-.4,.66-.1,1.18-.11,1.58,0,.4,.1,.71,.31,.93,.63,.23,.32,.34,.67,.34,1.07,0,.37-.1,.73-.3,1.1-.2,.36-.5,.68-.9,.95,.52,.06,.92,.24,1.2,.55,.28,.31,.42,.72,.42,1.22,0,.4-.08,.79-.25,1.17-.17,.38-.38,.69-.63,.92-.25,.24-.56,.44-.94,.6-.38,.16-.84,.29-1.39,.37-1.09,.17-2.18,.31-3.28,.41Zm1.14-5.1c.62-.07,1.24-.15,1.86-.25,.5-.08,.87-.17,1.08-.27,.29-.13,.51-.32,.65-.54,.15-.23,.22-.49,.22-.79,0-.29-.07-.52-.21-.72-.14-.19-.33-.31-.59-.34-.25-.04-.69,0-1.31,.09-.57,.08-1.14,.16-1.72,.23v2.6Zm0,3.97c.71-.08,1.43-.18,2.14-.29,.37-.06,.63-.11,.77-.17,.26-.09,.48-.21,.66-.35,.18-.14,.32-.33,.43-.56,.11-.23,.17-.48,.17-.76,0-.32-.08-.58-.25-.79-.16-.21-.39-.33-.68-.38-.29-.05-.71-.02-1.26,.06-.66,.1-1.32,.19-1.99,.27v2.95Z" style="fill:#1d1d1b;"/><path d="M191.77,193.35v-6.22c.32-.07,.63-.14,.95-.22,0,.31,0,.63,0,.94,.24-.5,.47-.84,.67-1.03,.2-.19,.43-.31,.68-.38,.35-.09,.72-.06,1.08,.07-.12,.36-.24,.71-.36,1.07-.26-.09-.52-.1-.77-.04-.23,.06-.44,.18-.62,.36-.18,.18-.32,.41-.39,.67-.12,.4-.18,.83-.18,1.27v3.26c-.35,.08-.7,.16-1.05,.24Z" style="fill:#1d1d1b;"/><path d="M200.04,189.22c.36-.06,.73-.11,1.09-.17-.17,.69-.49,1.27-.96,1.75-.46,.48-1.06,.82-1.78,1.02-.91,.25-1.63,.16-2.17-.26-.53-.42-.8-1.14-.8-2.15,0-1.05,.27-1.93,.81-2.65,.54-.72,1.24-1.2,2.1-1.43,.83-.23,1.51-.14,2.04,.28,.53,.42,.79,1.14,.79,2.17,0,.06,0,.16,0,.28-1.55,.44-3.09,.87-4.64,1.28,.04,.67,.23,1.15,.58,1.42,.35,.27,.78,.33,1.3,.19,.39-.11,.72-.3,.99-.58,.27-.28,.49-.66,.65-1.15Zm-3.46-.76c1.16-.31,2.32-.63,3.47-.95-.05-.51-.18-.87-.4-1.07-.34-.31-.77-.39-1.31-.25-.48,.13-.89,.41-1.22,.82-.33,.41-.51,.89-.55,1.45Z" style="fill:#1d1d1b;"/><path d="M206.71,187.36c.36-.05,.73-.1,1.09-.16-.17,.68-.49,1.26-.96,1.74-.46,.48-1.06,.81-1.78,1.01-.91,.25-1.63,.17-2.17-.24-.53-.41-.8-1.12-.8-2.13,0-1.05,.27-1.94,.81-2.67,.54-.73,1.24-1.22,2.1-1.45,.83-.23,1.51-.13,2.04,.29,.53,.43,.79,1.15,.79,2.18,0,.06,0,.16,0,.28-1.55,.41-3.09,.84-4.64,1.27,.04,.67,.23,1.14,.58,1.41,.35,.27,.78,.33,1.3,.18,.39-.11,.72-.3,.99-.58,.27-.28,.49-.66,.65-1.15Zm-3.46-.75c1.16-.33,2.32-.65,3.47-.96-.05-.51-.18-.87-.4-1.07-.34-.32-.77-.4-1.31-.25-.48,.13-.89,.41-1.22,.83-.33,.42-.51,.9-.55,1.45Z" style="fill:#1d1d1b;"/><path d="M208.57,188.87v-.86c1.32-1.85,2.64-3.69,3.96-5.49-.45,.12-.85,.22-1.19,.3-.85,.2-1.69,.4-2.54,.62v-.86c1.7-.43,3.39-.83,5.09-1.17,0,.23,0,.46,0,.7-1.12,1.54-2.25,3.11-3.37,4.69-.22,.29-.43,.59-.65,.88,.47-.15,.92-.28,1.33-.37,.96-.22,1.92-.43,2.88-.62,0,.3,0,.61,0,.91-1.84,.36-3.67,.8-5.51,1.27Z" style="fill:#1d1d1b;"/><path d="M219.39,184.77c.36,0,.73,.02,1.09,.03-.17,.65-.49,1.17-.96,1.57-.46,.4-1.06,.65-1.78,.75-.91,.13-1.63-.03-2.17-.5-.53-.47-.8-1.2-.8-2.21,0-1.05,.27-1.91,.81-2.58,.54-.67,1.24-1.08,2.1-1.2,.83-.12,1.51,.09,2.04,.6,.53,.51,.79,1.29,.79,2.32,0,.06,0,.16,0,.28-1.55,.13-3.09,.34-4.64,.6,.04,.68,.23,1.17,.58,1.47,.35,.31,.78,.42,1.3,.35,.39-.05,.72-.2,.99-.43,.27-.24,.49-.58,.65-1.05Zm-3.46-1.22c1.16-.2,2.32-.36,3.47-.49-.05-.52-.18-.9-.4-1.13-.34-.37-.77-.52-1.31-.44-.49,.07-.89,.29-1.22,.67-.33,.38-.51,.84-.55,1.39Z" style="fill:#1d1d1b;"/></g><path d="M225.81,182.61c4.83,.22,9.67,1.39,14.5,4.12" style="fill:none; stroke:#1d1d1b; stroke-miterlimit:10;"/><path d="M163.69,186.73c5.09,2.87,10.18,4.02,15.27,4.15" style="fill:none; stroke:#1d1d1b; stroke-miterlimit:10;"/><path d="M163.69,176.66c25.54,14.4,51.08-14.4,76.62,0" style="fill:none; stroke:#1d1d1b; stroke-miterlimit:10;"/><path d="M163.69,196.8c25.54,14.4,51.08-14.4,76.62,0" style="fill:none; stroke:#1d1d1b; stroke-miterlimit:10;"/></g><g><g><path d="M273.87,315.41c0-2.86,0-5.73,0-8.59,1.07-.1,2.15-.23,3.22-.4,.66-.1,1.18-.11,1.58,0,.4,.1,.71,.31,.93,.63,.23,.32,.34,.67,.34,1.07,0,.37-.1,.73-.3,1.1-.2,.36-.5,.68-.9,.95,.52,.06,.92,.24,1.2,.55,.28,.31,.42,.72,.42,1.22,0,.4-.08,.79-.25,1.17-.17,.38-.38,.69-.63,.92-.25,.24-.56,.44-.94,.6-.38,.16-.84,.29-1.39,.37-1.09,.17-2.18,.31-3.28,.41Zm1.14-5.1c.62-.07,1.24-.15,1.86-.25,.5-.08,.87-.17,1.08-.27,.29-.13,.51-.32,.65-.54,.15-.23,.22-.49,.22-.79,0-.29-.07-.52-.21-.72-.14-.19-.33-.31-.59-.34-.25-.04-.69,0-1.31,.09-.57,.08-1.14,.16-1.72,.23v2.6Zm0,3.97c.71-.08,1.43-.18,2.14-.29,.37-.06,.63-.11,.77-.17,.26-.09,.48-.21,.66-.35,.18-.14,.32-.33,.43-.56,.11-.23,.17-.48,.17-.76,0-.32-.08-.58-.25-.79-.16-.21-.39-.33-.68-.38-.29-.05-.71-.02-1.26,.06-.66,.1-1.32,.19-1.99,.27v2.95Z" style="fill:#1d1d1b;"/><path d="M281.77,314.12v-6.22c.32-.07,.63-.14,.95-.22,0,.31,0,.63,0,.94,.24-.5,.47-.84,.67-1.03,.2-.19,.43-.31,.68-.38,.35-.09,.72-.06,1.08,.07-.12,.36-.24,.71-.36,1.07-.26-.09-.52-.1-.77-.04-.23,.06-.44,.18-.62,.36-.18,.18-.32,.41-.39,.67-.12,.4-.18,.83-.18,1.27v3.26c-.35,.08-.7,.16-1.05,.24Z" style="fill:#1d1d1b;"/><path d="M290.04,309.99c.36-.06,.73-.11,1.09-.17-.17,.69-.49,1.27-.96,1.75-.46,.48-1.06,.82-1.78,1.02-.91,.25-1.63,.16-2.17-.26-.53-.42-.8-1.14-.8-2.15,0-1.05,.27-1.93,.81-2.65,.54-.72,1.24-1.2,2.1-1.43,.83-.23,1.51-.14,2.04,.28,.53,.42,.79,1.14,.79,2.17,0,.06,0,.16,0,.28-1.55,.44-3.09,.87-4.64,1.28,.04,.67,.23,1.15,.58,1.42,.35,.27,.78,.33,1.3,.19,.39-.11,.72-.3,.99-.58,.27-.28,.49-.66,.65-1.15Zm-3.46-.76c1.16-.31,2.32-.63,3.47-.95-.05-.51-.18-.87-.4-1.07-.34-.31-.77-.39-1.31-.25-.48,.13-.89,.41-1.22,.82-.33,.41-.51,.89-.55,1.45Z" style="fill:#1d1d1b;"/><path d="M296.71,308.13c.36-.05,.73-.1,1.09-.16-.17,.68-.49,1.26-.96,1.74-.46,.48-1.06,.81-1.78,1.01-.91,.25-1.63,.17-2.17-.24-.53-.41-.8-1.12-.8-2.13,0-1.05,.27-1.94,.81-2.67,.54-.73,1.24-1.22,2.1-1.45,.83-.23,1.51-.13,2.04,.29,.53,.43,.79,1.15,.79,2.18,0,.06,0,.16,0,.28-1.55,.41-3.09,.84-4.64,1.27,.04,.67,.23,1.14,.58,1.41,.35,.27,.78,.33,1.3,.18,.39-.11,.72-.3,.99-.58,.27-.28,.49-.66,.65-1.15Zm-3.46-.75c1.16-.33,2.32-.65,3.47-.96-.05-.51-.18-.87-.4-1.07-.34-.32-.77-.4-1.31-.25-.48,.13-.89,.41-1.22,.83-.33,.42-.51,.9-.55,1.45Z" style="fill:#1d1d1b;"/><path d="M298.57,309.64v-.86c1.32-1.85,2.64-3.69,3.96-5.49-.45,.12-.85,.22-1.19,.3-.85,.2-1.69,.4-2.54,.62v-.86c1.7-.43,3.39-.83,5.09-1.17,0,.23,0,.46,0,.7-1.12,1.54-2.25,3.11-3.37,4.69-.22,.29-.43,.59-.65,.88,.47-.15,.92-.28,1.33-.37,.96-.22,1.92-.43,2.88-.62,0,.3,0,.61,0,.91-1.84,.36-3.67,.8-5.51,1.27Z" style="fill:#1d1d1b;"/><path d="M309.39,305.55c.36,0,.73,.02,1.09,.03-.17,.65-.49,1.17-.96,1.57-.46,.4-1.06,.65-1.78,.75-.91,.13-1.63-.03-2.17-.5-.53-.47-.8-1.2-.8-2.21,0-1.05,.27-1.91,.81-2.58,.54-.67,1.24-1.08,2.1-1.2,.83-.12,1.51,.09,2.04,.6,.53,.51,.79,1.29,.79,2.32,0,.06,0,.16,0,.28-1.55,.13-3.09,.34-4.64,.6,.04,.68,.23,1.17,.58,1.47,.35,.31,.78,.42,1.3,.35,.39-.05,.72-.2,.99-.43,.27-.24,.49-.58,.65-1.05Zm-3.46-1.22c1.16-.2,2.32-.36,3.47-.49-.05-.52-.18-.9-.4-1.13-.34-.37-.77-.52-1.31-.44-.49,.07-.89,.29-1.22,.67-.33,.38-.51,.84-.55,1.39Z" style="fill:#1d1d1b;"/></g><path d="M315.81,303.38c4.83,.22,9.67,1.39,14.5,4.12" style="fill:none; stroke:#1d1d1b; stroke-miterlimit:10;"/><path d="M253.69,307.5c5.09,2.87,10.18,4.02,15.27,4.15" style="fill:none; stroke:#1d1d1b; stroke-miterlimit:10;"/><path d="M253.69,297.43c25.54,14.4,51.08-14.4,76.62,0" style="fill:none; stroke:#1d1d1b; stroke-miterlimit:10;"/><path d="M253.69,317.57c25.54,14.4,51.08-14.4,76.62,0" style="fill:none; stroke:#1d1d1b; stroke-miterlimit:10;"/></g><g><g><path d="M273.87,135.41c0-2.86,0-5.73,0-8.59,1.07-.1,2.15-.23,3.22-.4,.66-.1,1.18-.11,1.58,0,.4,.1,.71,.31,.93,.63,.23,.32,.34,.67,.34,1.07,0,.37-.1,.73-.3,1.1-.2,.36-.5,.68-.9,.95,.52,.06,.92,.24,1.2,.55,.28,.31,.42,.72,.42,1.22,0,.4-.08,.79-.25,1.17-.17,.38-.38,.69-.63,.92-.25,.24-.56,.44-.94,.6-.38,.16-.84,.29-1.39,.37-1.09,.17-2.18,.31-3.28,.41Zm1.14-5.1c.62-.07,1.24-.15,1.86-.25,.5-.08,.87-.17,1.08-.27,.29-.13,.51-.32,.65-.54,.15-.23,.22-.49,.22-.79,0-.29-.07-.52-.21-.72-.14-.19-.33-.31-.59-.34-.25-.04-.69,0-1.31,.09-.57,.08-1.14,.16-1.72,.23v2.6Zm0,3.97c.71-.08,1.43-.18,2.14-.29,.37-.06,.63-.11,.77-.17,.26-.09,.48-.21,.66-.35,.18-.14,.32-.33,.43-.56,.11-.23,.17-.48,.17-.76,0-.32-.08-.58-.25-.79-.16-.21-.39-.33-.68-.38-.29-.05-.71-.02-1.26,.06-.66,.1-1.32,.19-1.99,.27v2.95Z" style="fill:#1d1d1b;"/><path d="M281.77,134.12v-6.22c.32-.07,.63-.14,.95-.22,0,.31,0,.63,0,.94,.24-.5,.47-.84,.67-1.03,.2-.19,.43-.31,.68-.38,.35-.09,.72-.06,1.08,.07-.12,.36-.24,.71-.36,1.07-.26-.09-.52-.1-.77-.04-.23,.06-.44,.18-.62,.36-.18,.18-.32,.41-.39,.67-.12,.4-.18,.83-.18,1.27v3.26c-.35,.08-.7,.16-1.05,.24Z" style="fill:#1d1d1b;"/><path d="M290.04,129.99c.36-.06,.73-.11,1.09-.17-.17,.69-.49,1.27-.96,1.75-.46,.48-1.06,.82-1.78,1.02-.91,.25-1.63,.16-2.17-.26-.53-.42-.8-1.14-.8-2.15,0-1.05,.27-1.93,.81-2.65,.54-.72,1.24-1.2,2.1-1.43,.83-.23,1.51-.14,2.04,.28,.53,.42,.79,1.14,.79,2.17,0,.06,0,.16,0,.28-1.55,.44-3.09,.87-4.64,1.28,.04,.67,.23,1.15,.58,1.42,.35,.27,.78,.33,1.3,.19,.39-.11,.72-.3,.99-.58,.27-.28,.49-.66,.65-1.15Zm-3.46-.76c1.16-.31,2.32-.63,3.47-.95-.05-.51-.18-.87-.4-1.07-.34-.31-.77-.39-1.31-.25-.48,.13-.89,.41-1.22,.82-.33,.41-.51,.89-.55,1.45Z" style="fill:#1d1d1b;"/><path d="M296.71,128.13c.36-.05,.73-.1,1.09-.16-.17,.68-.49,1.26-.96,1.74-.46,.48-1.06,.81-1.78,1.01-.91,.25-1.63,.17-2.17-.24-.53-.41-.8-1.12-.8-2.13,0-1.05,.27-1.94,.81-2.67,.54-.73,1.24-1.22,2.1-1.45,.83-.23,1.51-.13,2.04,.29,.53,.43,.79,1.15,.79,2.18,0,.06,0,.16,0,.28-1.55,.41-3.09,.84-4.64,1.27,.04,.67,.23,1.14,.58,1.41,.35,.27,.78,.33,1.3,.18,.39-.11,.72-.3,.99-.58,.27-.28,.49-.66,.65-1.15Zm-3.46-.75c1.16-.33,2.32-.65,3.47-.96-.05-.51-.18-.87-.4-1.07-.34-.32-.77-.4-1.31-.25-.48,.13-.89,.41-1.22,.83-.33,.42-.51,.9-.55,1.45Z" style="fill:#1d1d1b;"/><path d="M298.57,129.64v-.86c1.32-1.85,2.64-3.69,3.96-5.49-.45,.12-.85,.22-1.19,.3-.85,.2-1.69,.4-2.54,.62v-.86c1.7-.43,3.39-.83,5.09-1.17,0,.23,0,.46,0,.7-1.12,1.54-2.25,3.11-3.37,4.69-.22,.29-.43,.59-.65,.88,.47-.15,.92-.28,1.33-.37,.96-.22,1.92-.43,2.88-.62,0,.3,0,.61,0,.91-1.84,.36-3.67,.8-5.51,1.27Z" style="fill:#1d1d1b;"/><path d="M309.39,125.55c.36,0,.73,.02,1.09,.03-.17,.65-.49,1.17-.96,1.57-.46,.4-1.06,.65-1.78,.75-.91,.13-1.63-.03-2.17-.5-.53-.47-.8-1.2-.8-2.21,0-1.05,.27-1.91,.81-2.58,.54-.67,1.24-1.08,2.1-1.2,.83-.12,1.51,.09,2.04,.6,.53,.51,.79,1.29,.79,2.32,0,.06,0,.16,0,.28-1.55,.13-3.09,.34-4.64,.6,.04,.68,.23,1.17,.58,1.47,.35,.31,.78,.42,1.3,.35,.39-.05,.72-.2,.99-.43,.27-.24,.49-.58,.65-1.05Zm-3.46-1.22c1.16-.2,2.32-.36,3.47-.49-.05-.52-.18-.9-.4-1.13-.34-.37-.77-.52-1.31-.44-.49,.07-.89,.29-1.22,.67-.33,.38-.51,.84-.55,1.39Z" style="fill:#1d1d1b;"/></g><path d="M315.81,123.38c4.83,.22,9.67,1.39,14.5,4.12" style="fill:none; stroke:#1d1d1b; stroke-miterlimit:10;"/><path d="M253.69,127.5c5.09,2.87,10.18,4.02,15.27,4.15" style="fill:none; stroke:#1d1d1b; stroke-miterlimit:10;"/><path d="M253.69,117.43c25.54,14.4,51.08-14.4,76.62,0" style="fill:none; stroke:#1d1d1b; stroke-miterlimit:10;"/><path d="M253.69,137.57c25.54,14.4,51.08-14.4,76.62,0" style="fill:none; stroke:#1d1d1b; stroke-miterlimit:10;"/></g><g><g><path d="M183.9,224.99l1.07-.09c.05,.43,.17,.78,.35,1.06s.47,.5,.86,.67,.83,.25,1.32,.25c.43,0,.82-.06,1.15-.19s.58-.31,.74-.53,.24-.47,.24-.74-.08-.5-.23-.71-.41-.37-.77-.51c-.23-.09-.74-.23-1.53-.42s-1.34-.37-1.66-.54c-.41-.21-.72-.48-.92-.8s-.3-.67-.3-1.07c0-.43,.12-.84,.37-1.22s.61-.66,1.08-.86,1-.29,1.58-.29c.64,0,1.2,.1,1.68,.31s.86,.51,1.12,.91,.4,.85,.42,1.35l-1.09,.08c-.06-.54-.26-.95-.59-1.23s-.84-.42-1.5-.42-1.19,.13-1.5,.38-.47,.56-.47,.91c0,.31,.11,.56,.33,.76,.22,.2,.79,.4,1.71,.61s1.56,.39,1.9,.55c.5,.23,.87,.52,1.11,.88s.36,.76,.36,1.22-.13,.89-.39,1.29-.64,.72-1.13,.94-1.04,.34-1.66,.34c-.78,0-1.43-.11-1.95-.34s-.94-.57-1.24-1.02-.46-.97-.47-1.54Z" style="fill:#1d1d1b;"/><path d="M194.46,226.81l.15,.93c-.3,.06-.56,.09-.8,.09-.38,0-.68-.06-.89-.18s-.36-.28-.45-.48-.13-.61-.13-1.25v-3.58h-.77v-.82h.77v-1.54l1.05-.63v2.17h1.06v.82h-1.06v3.64c0,.3,.02,.49,.06,.58s.1,.15,.18,.21,.2,.08,.36,.08c.12,0,.27-.01,.46-.04Z" style="fill:#1d1d1b;"/><path d="M199.75,225.75l1.09,.13c-.17,.64-.49,1.13-.96,1.48s-1.06,.53-1.78,.53c-.91,0-1.63-.28-2.17-.84s-.8-1.35-.8-2.36,.27-1.86,.81-2.44,1.24-.87,2.1-.87,1.51,.28,2.04,.85,.79,1.36,.79,2.39c0,.06,0,.16,0,.28h-4.64c.04,.68,.23,1.21,.58,1.57s.78,.54,1.3,.54c.39,0,.72-.1,.99-.3s.49-.53,.65-.97Zm-3.46-1.71h3.47c-.05-.52-.18-.92-.4-1.18-.34-.41-.77-.61-1.31-.61-.48,0-.89,.16-1.22,.49s-.51,.76-.55,1.3Z" style="fill:#1d1d1b;"/><path d="M202.17,227.75v-6.22h.95v.88c.46-.68,1.12-1.03,1.98-1.03,.38,0,.72,.07,1.03,.2s.55,.31,.71,.53,.27,.48,.33,.78c.04,.2,.06,.54,.06,1.03v3.83h-1.05v-3.79c0-.43-.04-.75-.12-.96s-.23-.38-.44-.51-.45-.19-.74-.19c-.45,0-.84,.14-1.16,.43s-.49,.83-.49,1.62v3.4h-1.05Z" style="fill:#1d1d1b;"/><path d="M212.9,225.47l1.04,.13c-.11,.71-.4,1.27-.87,1.68s-1.04,.61-1.72,.61c-.85,0-1.54-.28-2.05-.83s-.78-1.35-.78-2.39c0-.67,.11-1.26,.33-1.76s.56-.88,1.02-1.13,.95-.38,1.49-.38c.68,0,1.23,.17,1.66,.51s.71,.83,.83,1.46l-1.03,.16c-.1-.42-.27-.73-.52-.94s-.55-.32-.9-.32c-.53,0-.96,.19-1.29,.57s-.5,.98-.5,1.81,.16,1.44,.48,1.82,.74,.57,1.25,.57c.41,0,.76-.13,1.04-.38s.45-.64,.53-1.17Z" style="fill:#1d1d1b;"/><path d="M214.84,227.75v-8.59h1.05v3.08c.49-.57,1.11-.86,1.86-.86,.46,0,.86,.09,1.2,.27s.58,.43,.73,.75,.22,.79,.22,1.39v3.94h-1.05v-3.94c0-.53-.11-.91-.34-1.15s-.55-.36-.97-.36c-.31,0-.61,.08-.88,.24s-.47,.38-.59,.66-.18,.66-.18,1.15v3.4h-1.05Z" style="fill:#1d1d1b;"/></g><path d="M219.6,219.15c-.13-3-3.13-3-3-6,.24-3,3.24-3,3.74-5.98" style="fill:none; stroke:#1d1d1b; stroke-miterlimit:10;"/><path d="M223.44,227.75c-.5-2.98,2.5-2.98,2.26-5.97-.13-3-3.13-3-3-6,.24-3,3.24-3,3.74-5.98" style="fill:none; stroke:#1d1d1b; stroke-miterlimit:10;"/><path d="M213.5,216.51c-.13-3-3.13-3-3-6,.24-3,3.24-3,3.74-5.98" style="fill:none; stroke:#1d1d1b; stroke-miterlimit:10;"/><path d="M206.17,216.87c.66-.75,1.35-1.5,1.23-2.99-.13-3-3.13-3-3-6,.24-3,3.24-3,3.74-5.98" style="fill:none; stroke:#1d1d1b; stroke-miterlimit:10;"/><path d="M201.7,213.88c-.06-3-1.47-3-1.41-6,.11-3,1.52-3,1.75-5.98" style="fill:none; stroke:#1d1d1b; stroke-miterlimit:10;"/><path d="M188.83,204.53c-.5,2.98,2.5,2.98,2.26,5.97-.13,3-3.13,3-3,6" style="fill:none; stroke:#1d1d1b; stroke-miterlimit:10;"/><path d="M194.93,201.9c-.5,2.98,2.5,2.98,2.26,5.97-.13,3-3.13,3-3,6,.06,.75,.29,1.31,.62,1.78" style="fill:none; stroke:#1d1d1b; stroke-miterlimit:10;"/><path d="M182.73,207.17c-.5,2.98,2.5,2.98,2.26,5.97-.13,3-3.13,3-3,6" style="fill:none; stroke:#1d1d1b; stroke-miterlimit:10;"/><path d="M176.63,209.8c-.5,2.98,2.5,2.98,2.26,5.97-.13,3-3.13,3-3,6,.24,3,3.24,3,3.74,5.98" style="fill:none; stroke:#1d1d1b; stroke-miterlimit:10;"/></g><g><g><path d="M94.74,135.72l1.07-.09c.05,.43,.17,.78,.35,1.06s.47,.5,.86,.67,.83,.25,1.32,.25c.43,0,.82-.06,1.15-.19s.58-.31,.74-.53,.24-.47,.24-.74-.08-.5-.23-.71-.41-.37-.77-.51c-.23-.09-.74-.23-1.53-.42s-1.34-.37-1.66-.54c-.41-.21-.72-.48-.92-.8s-.3-.67-.3-1.07c0-.43,.12-.84,.37-1.22s.61-.66,1.08-.86,1-.29,1.58-.29c.64,0,1.2,.1,1.68,.31s.86,.51,1.12,.91,.4,.85,.42,1.35l-1.09,.08c-.06-.54-.26-.95-.59-1.23s-.84-.42-1.5-.42-1.19,.13-1.5,.38-.47,.56-.47,.91c0,.31,.11,.56,.33,.76,.22,.2,.79,.4,1.71,.61s1.56,.39,1.9,.55c.5,.23,.87,.52,1.11,.88s.36,.76,.36,1.22-.13,.89-.39,1.29-.64,.72-1.13,.94-1.04,.34-1.66,.34c-.78,0-1.43-.11-1.95-.34s-.94-.57-1.24-1.02-.46-.97-.47-1.54Z" style="fill:#1d1d1b;"/><path d="M105.29,137.53l.15,.93c-.3,.06-.56,.09-.8,.09-.38,0-.68-.06-.89-.18s-.36-.28-.45-.48-.13-.61-.13-1.25v-3.58h-.77v-.82h.77v-1.54l1.05-.63v2.17h1.06v.82h-1.06v3.64c0,.3,.02,.49,.06,.58s.1,.15,.18,.21,.2,.08,.36,.08c.12,0,.27-.01,.46-.04Z" style="fill:#1d1d1b;"/><path d="M110.59,136.47l1.09,.13c-.17,.64-.49,1.13-.96,1.48s-1.06,.53-1.78,.53c-.91,0-1.63-.28-2.17-.84s-.8-1.35-.8-2.36,.27-1.86,.81-2.44,1.24-.87,2.1-.87,1.51,.28,2.04,.85,.79,1.36,.79,2.39c0,.06,0,.16,0,.28h-4.64c.04,.68,.23,1.21,.58,1.57s.78,.54,1.3,.54c.39,0,.72-.1,.99-.3s.49-.53,.65-.97Zm-3.46-1.71h3.47c-.05-.52-.18-.92-.4-1.18-.34-.41-.77-.61-1.31-.61-.48,0-.89,.16-1.22,.49s-.51,.76-.55,1.3Z" style="fill:#1d1d1b;"/><path d="M113,138.48v-6.22h.95v.88c.46-.68,1.12-1.03,1.98-1.03,.38,0,.72,.07,1.03,.2s.55,.31,.71,.53,.27,.48,.33,.78c.04,.2,.06,.54,.06,1.03v3.83h-1.05v-3.79c0-.43-.04-.75-.12-.96s-.23-.38-.44-.51-.45-.19-.74-.19c-.45,0-.84,.14-1.16,.43s-.49,.83-.49,1.62v3.4h-1.05Z" style="fill:#1d1d1b;"/><path d="M123.73,136.2l1.04,.13c-.11,.71-.4,1.27-.87,1.68s-1.04,.61-1.72,.61c-.85,0-1.54-.28-2.05-.83s-.78-1.35-.78-2.39c0-.67,.11-1.26,.33-1.76s.56-.88,1.02-1.13,.95-.38,1.49-.38c.68,0,1.23,.17,1.66,.51s.71,.83,.83,1.46l-1.03,.16c-.1-.42-.27-.73-.52-.94s-.55-.32-.9-.32c-.53,0-.96,.19-1.29,.57s-.5,.98-.5,1.81,.16,1.44,.48,1.82,.74,.57,1.25,.57c.41,0,.76-.13,1.04-.38s.45-.64,.53-1.17Z" style="fill:#1d1d1b;"/><path d="M125.67,138.48v-8.59h1.05v3.08c.49-.57,1.11-.86,1.86-.86,.46,0,.86,.09,1.2,.27s.58,.43,.73,.75,.22,.79,.22,1.39v3.94h-1.05v-3.94c0-.53-.11-.91-.34-1.15s-.55-.36-.97-.36c-.31,0-.61,.08-.88,.24s-.47,.38-.59,.66-.18,.66-.18,1.15v3.4h-1.05Z" style="fill:#1d1d1b;"/></g><path d="M130.43,129.87c-.13-3-3.13-3-3-6,.24-3,3.24-3,3.74-5.98" style="fill:none; stroke:#1d1d1b; stroke-miterlimit:10;"/><path d="M134.28,138.48c-.5-2.98,2.5-2.98,2.26-5.97-.13-3-3.13-3-3-6,.24-3,3.24-3,3.74-5.98" style="fill:none; stroke:#1d1d1b; stroke-miterlimit:10;"/><path d="M124.34,127.24c-.13-3-3.13-3-3-6,.24-3,3.24-3,3.74-5.98" style="fill:none; stroke:#1d1d1b; stroke-miterlimit:10;"/><path d="M117.01,127.6c.66-.75,1.35-1.5,1.23-2.99-.13-3-3.13-3-3-6,.24-3,3.24-3,3.74-5.98" style="fill:none; stroke:#1d1d1b; stroke-miterlimit:10;"/><path d="M112.53,124.61c-.06-3-1.47-3-1.41-6,.11-3,1.52-3,1.75-5.98" style="fill:none; stroke:#1d1d1b; stroke-miterlimit:10;"/><path d="M99.67,115.26c-.5,2.98,2.5,2.98,2.26,5.97-.13,3-3.13,3-3,6" style="fill:none; stroke:#1d1d1b; stroke-miterlimit:10;"/><path d="M105.77,112.63c-.5,2.98,2.5,2.98,2.26,5.97-.13,3-3.13,3-3,6,.06,.75,.29,1.31,.62,1.78" style="fill:none; stroke:#1d1d1b; stroke-miterlimit:10;"/><path d="M93.57,117.89c-.5,2.98,2.5,2.98,2.26,5.97-.13,3-3.13,3-3,6" style="fill:none; stroke:#1d1d1b; stroke-miterlimit:10;"/><path d="M87.47,120.52c-.5,2.98,2.5,2.98,2.26,5.97-.13,3-3.13,3-3,6,.24,3,3.24,3,3.74,5.98" style="fill:none; stroke:#1d1d1b; stroke-miterlimit:10;"/></g><g><g><path d="M94.74,315.72l1.07-.09c.05,.43,.17,.78,.35,1.06s.47,.5,.86,.67,.83,.25,1.32,.25c.43,0,.82-.06,1.15-.19s.58-.31,.74-.53,.24-.47,.24-.74-.08-.5-.23-.71-.41-.37-.77-.51c-.23-.09-.74-.23-1.53-.42s-1.34-.37-1.66-.54c-.41-.21-.72-.48-.92-.8s-.3-.67-.3-1.07c0-.43,.12-.84,.37-1.22s.61-.66,1.08-.86,1-.29,1.58-.29c.64,0,1.2,.1,1.68,.31s.86,.51,1.12,.91,.4,.85,.42,1.35l-1.09,.08c-.06-.54-.26-.95-.59-1.23s-.84-.42-1.5-.42-1.19,.13-1.5,.38-.47,.56-.47,.91c0,.31,.11,.56,.33,.76,.22,.2,.79,.4,1.71,.61s1.56,.39,1.9,.55c.5,.23,.87,.52,1.11,.88s.36,.76,.36,1.22-.13,.89-.39,1.29-.64,.72-1.13,.94-1.04,.34-1.66,.34c-.78,0-1.43-.11-1.95-.34s-.94-.57-1.24-1.02-.46-.97-.47-1.54Z" style="fill:#1d1d1b;"/><path d="M105.29,317.53l.15,.93c-.3,.06-.56,.09-.8,.09-.38,0-.68-.06-.89-.18s-.36-.28-.45-.48-.13-.61-.13-1.25v-3.58h-.77v-.82h.77v-1.54l1.05-.63v2.17h1.06v.82h-1.06v3.64c0,.3,.02,.49,.06,.58s.1,.15,.18,.21,.2,.08,.36,.08c.12,0,.27-.01,.46-.04Z" style="fill:#1d1d1b;"/><path d="M110.59,316.47l1.09,.13c-.17,.64-.49,1.13-.96,1.48s-1.06,.53-1.78,.53c-.91,0-1.63-.28-2.17-.84s-.8-1.35-.8-2.36,.27-1.86,.81-2.44,1.24-.87,2.1-.87,1.51,.28,2.04,.85,.79,1.36,.79,2.39c0,.06,0,.16,0,.28h-4.64c.04,.68,.23,1.21,.58,1.57s.78,.54,1.3,.54c.39,0,.72-.1,.99-.3s.49-.53,.65-.97Zm-3.46-1.71h3.47c-.05-.52-.18-.92-.4-1.18-.34-.41-.77-.61-1.31-.61-.48,0-.89,.16-1.22,.49s-.51,.76-.55,1.3Z" style="fill:#1d1d1b;"/><path d="M113,318.48v-6.22h.95v.88c.46-.68,1.12-1.03,1.98-1.03,.38,0,.72,.07,1.03,.2s.55,.31,.71,.53,.27,.48,.33,.78c.04,.2,.06,.54,.06,1.03v3.83h-1.05v-3.79c0-.43-.04-.75-.12-.96s-.23-.38-.44-.51-.45-.19-.74-.19c-.45,0-.84,.14-1.16,.43s-.49,.83-.49,1.62v3.4h-1.05Z" style="fill:#1d1d1b;"/><path d="M123.73,316.2l1.04,.13c-.11,.71-.4,1.27-.87,1.68s-1.04,.61-1.72,.61c-.85,0-1.54-.28-2.05-.83s-.78-1.35-.78-2.39c0-.67,.11-1.26,.33-1.76s.56-.88,1.02-1.13,.95-.38,1.49-.38c.68,0,1.23,.17,1.66,.51s.71,.83,.83,1.46l-1.03,.16c-.1-.42-.27-.73-.52-.94s-.55-.32-.9-.32c-.53,0-.96,.19-1.29,.57s-.5,.98-.5,1.81,.16,1.44,.48,1.82,.74,.57,1.25,.57c.41,0,.76-.13,1.04-.38s.45-.64,.53-1.17Z" style="fill:#1d1d1b;"/><path d="M125.67,318.48v-8.59h1.05v3.08c.49-.57,1.11-.86,1.86-.86,.46,0,.86,.09,1.2,.27s.58,.43,.73,.75,.22,.79,.22,1.39v3.94h-1.05v-3.94c0-.53-.11-.91-.34-1.15s-.55-.36-.97-.36c-.31,0-.61,.08-.88,.24s-.47,.38-.59,.66-.18,.66-.18,1.15v3.4h-1.05Z" style="fill:#1d1d1b;"/></g><path d="M130.43,309.87c-.13-3-3.13-3-3-6,.24-3,3.24-3,3.74-5.98" style="fill:none; stroke:#1d1d1b; stroke-miterlimit:10;"/><path d="M134.28,318.48c-.5-2.98,2.5-2.98,2.26-5.97-.13-3-3.13-3-3-6,.24-3,3.24-3,3.74-5.98" style="fill:none; stroke:#1d1d1b; stroke-miterlimit:10;"/><path d="M124.34,307.24c-.13-3-3.13-3-3-6,.24-3,3.24-3,3.74-5.98" style="fill:none; stroke:#1d1d1b; stroke-miterlimit:10;"/><path d="M117.01,307.6c.66-.75,1.35-1.5,1.23-2.99-.13-3-3.13-3-3-6,.24-3,3.24-3,3.74-5.98" style="fill:none; stroke:#1d1d1b; stroke-miterlimit:10;"/><path d="M112.53,304.61c-.06-3-1.47-3-1.41-6,.11-3,1.52-3,1.75-5.98" style="fill:none; stroke:#1d1d1b; stroke-miterlimit:10;"/><path d="M99.67,295.26c-.5,2.98,2.5,2.98,2.26,5.97-.13,3-3.13,3-3,6" style="fill:none; stroke:#1d1d1b; stroke-miterlimit:10;"/><path d="M105.77,292.63c-.5,2.98,2.5,2.98,2.26,5.97-.13,3-3.13,3-3,6,.06,.75,.29,1.31,.62,1.78" style="fill:none; stroke:#1d1d1b; stroke-miterlimit:10;"/><path d="M93.57,297.89c-.5,2.98,2.5,2.98,2.26,5.97-.13,3-3.13,3-3,6" style="fill:none; stroke:#1d1d1b; stroke-miterlimit:10;"/><path d="M87.47,300.52c-.5,2.98,2.5,2.98,2.26,5.97-.13,3-3.13,3-3,6,.24,3,3.24,3,3.74,5.98" style="fill:none; stroke:#1d1d1b; stroke-miterlimit:10;"/></g><g><path d="M216.71,262.5h-33.31c-1.42,0-2.38-1.35-1.8-2.56l6.12-12.73c.32-.66,1.02-1.08,1.8-1.08h21.06c.78,0,1.48,.42,1.8,1.08l6.12,12.73c.58,1.2-.37,2.56-1.8,2.56Z" style="fill:none; stroke:#1d1d1b; stroke-miterlimit:10;"/><line x1="179.97" y1="253.07" x2="167.62" y2="253.07" style="fill:none; stroke:#1d1d1b; stroke-miterlimit:10;"/><line x1="232.49" y1="253.07" x2="220.13" y2="253.07" style="fill:none; stroke:#1d1d1b; stroke-miterlimit:10;"/><line x1="218.96" y1="236.31" x2="210.99" y2="243.35" style="fill:none; stroke:#1d1d1b; stroke-miterlimit:10;"/><line x1="181.1" y1="236.26" x2="189.11" y2="243.35" style="fill:none; stroke:#1d1d1b; stroke-miterlimit:10;"/><line x1="200.05" y1="241.42" x2="200.05" y2="232.59" style="fill:none; stroke:#1d1d1b; stroke-miterlimit:10;"/><g><path d="M192.32,254.8v-1.01h3.64v3.18c-.56,.45-1.13,.78-1.73,1s-1.2,.34-1.83,.34c-.84,0-1.61-.18-2.3-.54s-1.21-.88-1.56-1.57-.53-1.45-.53-2.29,.17-1.62,.52-2.34,.85-1.26,1.51-1.61,1.41-.53,2.27-.53c.62,0,1.18,.1,1.68,.3s.9,.48,1.18,.84,.5,.83,.65,1.41l-1.03,.28c-.13-.44-.29-.78-.48-1.03s-.46-.45-.82-.6-.75-.23-1.18-.23c-.52,0-.97,.08-1.35,.24s-.68,.37-.92,.62-.41,.54-.54,.85c-.22,.53-.33,1.11-.33,1.73,0,.77,.13,1.41,.4,1.92s.65,.9,1.15,1.15,1.04,.38,1.61,.38c.49,0,.97-.09,1.44-.28s.82-.39,1.07-.61v-1.6h-2.53Z" style="fill:#1d1d1b;"/><path d="M197.11,255.06c0-1.15,.32-2.01,.96-2.56,.54-.46,1.19-.69,1.96-.69,.86,0,1.55,.28,2.1,.84s.81,1.33,.81,2.32c0,.8-.12,1.43-.36,1.89s-.59,.82-1.05,1.07-.96,.38-1.5,.38c-.87,0-1.58-.28-2.11-.84s-.81-1.36-.81-2.41Zm1.08,0c0,.8,.17,1.39,.52,1.79s.79,.59,1.31,.59,.96-.2,1.31-.6,.52-1.01,.52-1.82c0-.77-.17-1.35-.52-1.75s-.78-.59-1.3-.59-.96,.2-1.31,.59-.52,.99-.52,1.79Z" style="fill:#1d1d1b;"/><path d="M204.15,258.17v-8.59h1.05v8.59h-1.05Z" style="fill:#1d1d1b;"/><path d="M210.88,258.17v-.79c-.39,.62-.97,.93-1.74,.93-.5,0-.95-.14-1.37-.41s-.74-.66-.97-1.15-.34-1.05-.34-1.69,.1-1.18,.31-1.69,.52-.89,.93-1.16,.88-.4,1.39-.4c.38,0,.71,.08,1,.24s.53,.36,.71,.62v-3.08h1.05v8.59h-.98Zm-3.33-3.11c0,.8,.17,1.39,.5,1.79s.73,.59,1.19,.59,.85-.19,1.17-.57,.48-.95,.48-1.73c0-.85-.16-1.48-.49-1.88s-.73-.6-1.21-.6-.86,.19-1.17,.57-.47,.99-.47,1.81Z" style="fill:#1d1d1b;"/></g></g><g id="b"><path d="M83.79,234.63v-1.81c.04-.08,.09-.15,.1-.23,.21-1.22,.74-2.29,1.58-3.19,.27-.29,.36-.56,.36-.94,0-8.13-.01-16.26,0-24.39,0-.9,.06-1.82,.25-2.69,1.2-5.35,5.65-8.91,11.15-8.92,9.27-.01,18.54,0,27.81,0,1.65,0,3.26,.28,4.75,1,4.35,2.13,6.6,5.64,6.63,10.47,.04,8.56,.01,17.12,0,25.67,0,.41,.09,.72,.37,1.05,3,3.53,1.5,8.94-2.88,10.43-.46,.16-.95,.25-1.42,.38h-1.17c-.07-.03-.13-.07-.2-.07-1.96-.23-3.51-1.16-4.67-2.74-.05-.06-.12-.11-.19-.17-1.54,1.45-3.36,2.04-5.4,1.78-2.04-.26-3.62-1.33-4.74-3.07-2.78,4.35-9.15,4.13-11.57-.58-1.22,.92-2.58,1.45-4.13,1.46-1.56,0-2.94-.53-4.19-1.47-.11,.17-.18,.29-.25,.41-2.5,4.36-8.74,4.43-11.29,.1-.44-.74-.63-1.63-.93-2.46Zm43.05-30.38c-.74,0-1.45,.02-2.16,0-.39-.02-.6,.11-.79,.45-1.75,3.05-3.51,6.08-5.28,9.11-.24,.42-.45,.98-1.06,.9-.61-.07-.68-.66-.82-1.12-.93-2.94-1.86-5.87-2.77-8.81-.13-.41-.31-.56-.74-.53-.73,.04-1.46,.03-2.18,0-.34-.01-.54,.1-.73,.38-2.08,3.07-4.17,6.13-6.26,9.2-.32,.47-.62,1.02-1.29,.96-.66-.06-.89-.64-1.13-1.15-1.29-2.7-2.59-5.4-3.88-8.1-.09-.19-.19-.36-.31-.58-.45,.46-.53,.99-.53,1.55,0,5.86,0,11.72,0,17.58,0,.17,.01,.34,.03,.62,.15-.25,.25-.39,.34-.53,.53-.9,1.04-1.82,1.59-2.7,.6-.96,1.41-.95,1.98,.02,.47,.79,.89,1.61,1.34,2.42,.34,.6,.65,1.22,1.05,1.78,.44,.62,1.09,.59,1.56-.01,.14-.18,.25-.39,.36-.59,1.35-2.41,2.69-4.83,4.04-7.25,.26-.47,.52-.98,1.14-.99,.65-.01,.92,.51,1.21,.99,.02,.03,.04,.06,.06,.09,1,1.7,1.99,3.39,2.99,5.09,.51,.87,1,1.76,1.55,2.6,.53,.82,1.28,.8,1.85,.02,.13-.19,.25-.39,.36-.59,1.43-2.43,2.85-4.86,4.28-7.29,.24-.41,.49-.9,1.05-.87,.59,.03,.76,.56,.95,1.03,.92,2.34,1.84,4.68,2.77,7.02,.11,.28,.24,.55,.39,.81,.06,.11,.2,.18,.3,.26,.09-.12,.21-.23,.25-.37,.07-.27,.1-.56,.12-.84,.15-1.93,.28-3.86,.43-5.79,.09-1.19,.85-1.58,1.87-.97,.33,.2,.64,.41,1.02,.65v-11.13c-.14,.14-.2,.29-.25,.45-.51,1.49-1.01,2.98-1.55,4.46-.08,.23-.35,.4-.53,.6-.16-.21-.34-.42-.49-.64-.05-.07-.05-.17-.07-.25-.28-1.1-.56-2.19-.84-3.29-.39-1.54-.79-3.08-1.19-4.65Zm-25.14-6.37c0-1.35-1.09-2.46-2.42-2.45-1.32,.01-2.39,1.1-2.39,2.42,0,1.33,1.07,2.4,2.4,2.41,1.33,0,2.41-1.05,2.42-2.38Zm22.68-.05c-.01,1.37,1.05,2.44,2.41,2.43,1.32,0,2.41-1.09,2.41-2.4,0-1.3-1.1-2.41-2.41-2.42-1.31-.01-2.4,1.07-2.41,2.39Z"/></g><g id="c"><g><path d="M119.57,369.08c2.05,1.11,2.25,2.38,.97,4.37-.53,.82-.8,1.87-.93,2.85-.16,1.15-.04,2.33-.04,3.5,0,3.64-.98,5.01-4.42,6.19v.84h2.27l11.04-11.9c0-1.28-.07-2.58,.04-3.87,.03-.4,.47-.95,.85-1.1,1-.39,2.07-.61,3.11-.89h.78l4.11,3.22c0,.22,0,.44,0,.67-4.96,8.24-12.53,14.21-18.64,21.5v7.52c2.38,0,4.72,0,7.07,0,1.37,0,2.4,.57,3.01,1.8,.61,1.23,.42,2.4-.42,3.48-2.59,3.33-5.17,6.68-7.8,9.98-.34,.43-.99,.61-1.49,.9-.86,1.02-1.49,2.37-2.21,3.66-.17,.3-.65,.61-.97,.59-.28-.01-.67-.44-.78-.76-.58-1.85-1.16-3.7-1.59-5.59-.12-.51,.11-1.25,.44-1.68,1.55-2.03,3.18-3.99,4.91-6.12h-5.96c-1.67,3.64-3.34,7.26-4.99,10.9-.68,1.49-1.06,3.45-3.48,1.8,0,1.45,.04,2.73-.02,4-.02,.34-.26,.86-.52,.95-.3,.11-.84-.06-1.1-.29-1.08-.99-2.15-2-3.09-3.11-.33-.39-.52-1.16-.38-1.63,1.29-4.08,2.67-8.13,4.03-12.22-5.32-3.08-10.62-6.14-15.91-9.21-1.08-.63-1.08-1.35,0-1.96,3.6-2.06,7.12-4.26,10.81-6.12,3.43-1.73,6.26-4.95,10.63-4.49v-1.02c-2.04-.78-3.27-2.26-3.89-4.29-.76-2.48-1.72-4.94-2.17-7.48-.44-2.5-.53-4.13,2.08-4.98h14.67Zm-.04,46.63c2.55-3.29,5.12-6.56,7.61-9.88,.63-.84-.11-2.04-1.21-2.05-6.33-.02-12.66-.01-19.04-.01l-4.85,14.54,3.71,1.24c1.57-3.43,3.31-6.78,4.65-10.29,.87-2.28,2.08-3.2,4.52-2.88,1.73,.23,3.51,.02,5.27,.07,.36,.01,.9,.22,1.03,.5,.14,.28,0,.83-.21,1.13-1.23,1.8-2.52,3.56-3.77,5.31l2.3,2.31Zm-30.16-17.28l14.83,8.59,1.54-8.04c-.65,.3-.84,.37-1,.47-1.3,.85-2.46,1.44-3.71-.24-1.06-1.43-1.38-3.18-.42-4.68,.83-1.29,1.7-2.55,2.73-4.1l-13.97,7.99Zm20.26-23.1c-.99,1.48-2.06,2.96-2.99,4.54-.73,1.24,1.42,4.11,3.27,4.27,1.63,.14,3.3,.13,4.93-.02,1.7-.15,2.77-1.28,2.89-3.06,.13-1.89,.03-3.8,.03-5.73h-8.13Zm9.07,16.38l12.86-13.61-2.1-1.58-10.76,11.59v3.6Zm14.01-20.76l-2.43,.61v3.31l2.41,1.81,2.55-3.83-2.53-1.9Zm-24.49,22.23l-4.22,2.35-.92-1.35c-1.61,1.84-1.67,2.95-.22,4.23l5.87-3.11-.52-2.12Zm5.11-2.04l-2.26-.56-1.2,1.8,.54,2.16,2.92-1.16v-2.23Zm-.02-4.29v-.84h-2.61v.84h2.61Zm-7.99,5.77v-1.87l-2.26,3.37,2.26-1.5Z" style="fill:#0333ff;"/><path d="M115.36,380.67h-1.37c-.58,.38-.94,.79-1.31,.81-.32,.01-.66-.42-1.2-.81h-1.4c-.07,1.35,1.08,2.59,2.44,2.64,1.6,.07,2.8-1.02,2.84-2.64Z" style="fill:#0333ff;"/><path d="M115.83,379.54c.65-.97,1.31-1.53,1.25-1.99-.06-.49-.81-1.26-1.24-1.25-.46,0-1.21,.75-1.27,1.24-.06,.46,.61,1.02,1.26,2Z" style="fill:#0333ff;"/><path d="M110.48,379.54c.66-.97,1.32-1.52,1.26-1.98-.06-.49-.8-1.27-1.23-1.26-.46,0-1.21,.74-1.28,1.23-.06,.46,.6,1.03,1.25,2.01Z" style="fill:#0333ff;"/></g></g><path d="M40.69,310.42v1.35h-7.57c-.01-.34,.04-.66,.16-.98,.19-.52,.5-1.02,.93-1.52s1.04-1.08,1.84-1.73c1.25-1.02,2.09-1.83,2.52-2.43,.44-.6,.66-1.16,.66-1.69s-.2-1.03-.6-1.41-.92-.57-1.56-.57c-.68,0-1.22,.2-1.62,.61s-.61,.97-.62,1.69l-1.45-.15c.1-1.08,.47-1.9,1.12-2.46,.65-.56,1.51-.85,2.6-.85s1.97,.3,2.61,.91,.96,1.36,.96,2.27c0,.46-.09,.91-.28,1.35-.19,.44-.5,.91-.93,1.4-.43,.49-1.16,1.16-2.17,2.02-.84,.71-1.39,1.19-1.62,1.44-.24,.25-.44,.51-.59,.76h5.62Z"/><path d="M33.31,218.74l1.41-.19c.16,.8,.44,1.37,.82,1.72s.86,.53,1.42,.53c.66,0,1.22-.23,1.68-.69,.46-.46,.68-1.03,.68-1.7s-.21-1.18-.63-1.6c-.42-.42-.96-.63-1.61-.63-.27,0-.6,.05-.99,.16l.16-1.23c.09,.01,.17,.02,.23,.02,.6,0,1.14-.16,1.62-.47s.72-.79,.72-1.45c0-.52-.17-.94-.52-1.28-.35-.34-.8-.51-1.35-.51s-1,.17-1.37,.52-.6,.86-.7,1.55l-1.41-.25c.17-.94,.56-1.67,1.17-2.19,.61-.52,1.37-.78,2.27-.78,.62,0,1.2,.13,1.73,.4,.53,.27,.93,.63,1.21,1.1,.28,.46,.42,.96,.42,1.48s-.13,.95-.4,1.35-.66,.73-1.18,.97c.68,.16,1.2,.48,1.58,.97s.56,1.11,.56,1.85c0,1-.36,1.85-1.09,2.54s-1.65,1.04-2.77,1.04c-1,0-1.84-.3-2.5-.9-.66-.6-1.04-1.38-1.14-2.33Z"/><path d="M37.81,131.77v-2.74h-4.97v-1.29l5.23-7.42h1.15v7.42h1.55v1.29h-1.55v2.74h-1.41Zm0-4.03v-5.16l-3.59,5.16h3.59Z"/><path d="M38.6,401.77h-1.41v-8.96c-.34,.32-.78,.65-1.33,.97-.55,.32-1.04,.57-1.48,.73v-1.36c.79-.37,1.47-.82,2.06-1.34,.59-.53,1-1.04,1.25-1.53h.91v11.5Z"/><path d="M113.51,478.04h-1.41v-8.96c-.34,.32-.78,.65-1.33,.97-.55,.32-1.04,.57-1.48,.73v-1.36c.79-.37,1.47-.82,2.06-1.34,.59-.53,1-1.04,1.25-1.53h.91v11.5Z"/><path d="M205.61,476.69v1.35h-7.57c-.01-.34,.04-.66,.16-.98,.19-.52,.5-1.02,.93-1.52s1.04-1.08,1.84-1.73c1.25-1.02,2.09-1.83,2.52-2.43,.44-.6,.66-1.16,.66-1.69s-.2-1.03-.6-1.41-.92-.57-1.56-.57c-.68,0-1.22,.2-1.62,.61s-.61,.97-.62,1.69l-1.45-.15c.1-1.08,.47-1.9,1.12-2.46,.65-.56,1.51-.85,2.6-.85s1.97,.3,2.61,.91,.96,1.36,.96,2.27c0,.46-.09,.91-.28,1.35-.19,.44-.5,.91-.93,1.4-.43,.49-1.16,1.16-2.17,2.02-.84,.71-1.39,1.19-1.62,1.44-.24,.25-.44,.51-.59,.76h5.62Z"/><path d="M288.22,475.01l1.41-.19c.16,.8,.44,1.37,.82,1.72s.86,.53,1.42,.53c.66,0,1.22-.23,1.68-.69,.46-.46,.68-1.03,.68-1.7s-.21-1.18-.63-1.6c-.42-.42-.96-.63-1.61-.63-.27,0-.6,.05-.99,.16l.16-1.23c.09,.01,.17,.02,.23,.02,.6,0,1.14-.16,1.62-.47s.72-.79,.72-1.45c0-.52-.17-.94-.52-1.28-.35-.34-.8-.51-1.35-.51s-1,.17-1.37,.52-.6,.86-.7,1.55l-1.41-.25c.17-.94,.56-1.67,1.17-2.19,.61-.52,1.37-.78,2.27-.78,.62,0,1.2,.13,1.73,.4,.53,.27,.93,.63,1.21,1.1,.28,.46,.42,.96,.42,1.48s-.13,.95-.4,1.35-.66,.73-1.18,.97c.68,.16,1.2,.48,1.58,.97s.56,1.11,.56,1.85c0,1-.36,1.85-1.09,2.54s-1.65,1.04-2.77,1.04c-1,0-1.84-.3-2.5-.9-.66-.6-1.04-1.38-1.14-2.33Z"/><path d="M382.72,478.04v-2.74h-4.97v-1.29l5.23-7.42h1.15v7.42h1.55v1.29h-1.55v2.74h-1.41Zm0-4.03v-5.16l-3.59,5.16h3.59Z"/></svg>