<?xml version="1.0" encoding="UTF-8"?>
<svg id="maturity" xmlns="http://www.w3.org/2000/svg" viewBox="0 0 988 525">
  <defs>
    <style>
      .cls-1 {
        fill: none;
        stroke: #000;
        stroke-miterlimit: 10;
      }
    </style>
  </defs>
  <rect class="cls-1" x="681" y="268.76" width="240" height="70"/>
  <g>
    <path d="M739.34,300.57v-12.88h1.75l6.77,10.12v-10.12h1.63v12.88h-1.75l-6.77-10.12v10.12h-1.63Z"/>
    <path d="M758.54,297.56l1.63.2c-.26.96-.74,1.7-1.43,2.22s-1.59.79-2.67.79c-1.37,0-2.45-.42-3.25-1.26-.8-.84-1.2-2.02-1.2-3.54s.4-2.79,1.21-3.66,1.86-1.3,3.15-1.3,2.27.42,3.06,1.27,1.19,2.04,1.19,3.59c0,.09,0,.23,0,.42h-6.96c.06,1.03.35,1.81.87,2.36s1.17.82,1.95.82c.58,0,1.08-.15,1.49-.46s.74-.79.98-1.46ZM753.35,295h5.21c-.07-.79-.27-1.37-.6-1.77-.5-.61-1.16-.91-1.96-.91-.73,0-1.34.24-1.83.73s-.77,1.14-.82,1.95Z"/>
    <path d="M763.89,300.57l-2.86-9.33h1.63l1.49,5.39.55,2c.02-.1.18-.74.48-1.92l1.49-5.47h1.63l1.4,5.41.47,1.78.54-1.8,1.6-5.4h1.54l-2.92,9.33h-1.64l-1.49-5.59-.36-1.59-1.89,7.18h-1.65Z"/>
    <path d="M780.17,289.5v-1.82h1.58v1.82h-1.58ZM780.17,300.57v-9.33h1.58v9.33h-1.58Z"/>
    <path d="M784.16,300.57v-9.33h1.42v1.33c.69-1.03,1.68-1.54,2.97-1.54.56,0,1.08.1,1.55.3.47.2.82.47,1.06.8s.4.72.49,1.17c.06.29.09.81.09,1.54v5.74h-1.58v-5.68c0-.64-.06-1.13-.18-1.45s-.34-.57-.66-.76-.68-.29-1.1-.29c-.67,0-1.26.21-1.75.64s-.73,1.24-.73,2.43v5.1h-1.58Z"/>
    <path d="M797.63,299.15l.23,1.4c-.45.09-.84.14-1.2.14-.57,0-1.02-.09-1.34-.27s-.54-.42-.67-.72-.19-.92-.19-1.87v-5.37h-1.16v-1.23h1.16v-2.31l1.57-.95v3.26h1.59v1.23h-1.59v5.46c0,.45.03.74.08.87s.15.23.27.31c.12.08.31.11.54.11.18,0,.41-.02.69-.06Z"/>
    <path d="M805.57,297.56l1.63.2c-.26.96-.74,1.7-1.43,2.22s-1.59.79-2.67.79c-1.37,0-2.45-.42-3.25-1.26-.8-.84-1.2-2.02-1.2-3.54s.4-2.79,1.21-3.66,1.86-1.3,3.15-1.3,2.27.42,3.06,1.27,1.19,2.04,1.19,3.59c0,.09,0,.23,0,.42h-6.96c.06,1.03.35,1.81.87,2.36s1.17.82,1.95.82c.58,0,1.08-.15,1.49-.46s.74-.79.98-1.46ZM800.37,295h5.21c-.07-.79-.27-1.37-.6-1.77-.5-.61-1.16-.91-1.96-.91-.73,0-1.34.24-1.83.73s-.77,1.14-.82,1.95Z"/>
    <path d="M809.15,300.57v-12.88h1.58v12.88h-1.58Z"/>
    <path d="M813.15,300.57v-12.88h1.58v12.88h-1.58Z"/>
    <path d="M823.57,297.56l1.63.2c-.26.96-.74,1.7-1.43,2.22s-1.59.79-2.67.79c-1.37,0-2.45-.42-3.25-1.26-.8-.84-1.2-2.02-1.2-3.54s.4-2.79,1.21-3.66,1.86-1.3,3.15-1.3,2.27.42,3.06,1.27,1.19,2.04,1.19,3.59c0,.09,0,.23,0,.42h-6.96c.06,1.03.35,1.81.87,2.36s1.17.82,1.95.82c.58,0,1.08-.15,1.49-.46s.74-.79.98-1.46ZM818.38,295h5.21c-.07-.79-.27-1.37-.6-1.77-.5-.61-1.16-.91-1.96-.91-.73,0-1.34.24-1.83.73s-.77,1.14-.82,1.95Z"/>
    <path d="M833.29,297.15l1.56.2c-.17,1.07-.61,1.91-1.31,2.52s-1.56.91-2.58.91c-1.28,0-2.3-.42-3.08-1.25s-1.16-2.03-1.16-3.59c0-1.01.17-1.89.5-2.65s.84-1.32,1.52-1.7,1.43-.57,2.23-.57c1.01,0,1.84.26,2.49.77s1.06,1.24,1.24,2.18l-1.54.24c-.15-.63-.41-1.1-.78-1.42s-.82-.47-1.35-.47c-.8,0-1.44.29-1.94.86s-.75,1.48-.75,2.71.24,2.17.72,2.73,1.11.85,1.88.85c.62,0,1.14-.19,1.56-.57s.68-.97.79-1.76Z"/>
    <path d="M839.65,299.15l.23,1.4c-.45.09-.84.14-1.2.14-.57,0-1.02-.09-1.34-.27s-.54-.42-.67-.72-.19-.92-.19-1.87v-5.37h-1.16v-1.23h1.16v-2.31l1.57-.95v3.26h1.59v1.23h-1.59v5.46c0,.45.03.74.08.87s.15.23.27.31c.12.08.31.11.54.11.18,0,.41-.02.69-.06Z"/>
    <path d="M847.31,300.57v-1.37c-.73,1.05-1.71,1.58-2.96,1.58-.55,0-1.07-.11-1.54-.32s-.83-.48-1.06-.8c-.23-.32-.39-.71-.49-1.17-.06-.31-.1-.8-.1-1.48v-5.78h1.58v5.18c0,.83.03,1.38.1,1.67.1.42.31.74.63.98s.72.36,1.2.36.92-.12,1.34-.36.71-.57.88-.99.26-1.03.26-1.82v-5h1.58v9.33h-1.42Z"/>
    <path d="M857.3,299.41c-.59.5-1.15.85-1.69,1.05-.54.21-1.12.31-1.75.31-1.03,0-1.81-.25-2.36-.75s-.83-1.14-.83-1.92c0-.46.1-.87.31-1.25.21-.38.48-.68.82-.91s.72-.4,1.14-.52c.31-.08.78-.16,1.41-.24,1.28-.15,2.22-.33,2.82-.54,0-.22,0-.35,0-.41,0-.64-.15-1.1-.45-1.36-.4-.36-1-.54-1.8-.54-.74,0-1.29.13-1.65.39s-.62.72-.79,1.38l-1.55-.21c.14-.66.37-1.2.69-1.6s.79-.72,1.4-.94,1.32-.33,2.12-.33,1.44.09,1.94.28.86.42,1.1.71.4.64.49,1.08c.05.27.08.76.08,1.46v2.11c0,1.47.03,2.4.1,2.79s.2.76.4,1.12h-1.65c-.16-.33-.27-.71-.32-1.15ZM857.17,295.88c-.57.23-1.44.43-2.58.6-.65.09-1.11.2-1.38.32s-.48.29-.62.51-.22.48-.22.75c0,.42.16.77.48,1.05s.79.42,1.4.42,1.15-.13,1.63-.4.82-.63,1.05-1.09c.17-.36.25-.88.25-1.58v-.58Z"/>
    <path d="M861.18,300.57v-12.88h1.58v12.88h-1.58Z"/>
    <path d="M764.77,317.15l1.56.2c-.17,1.07-.61,1.91-1.31,2.52s-1.56.91-2.58.91c-1.28,0-2.3-.42-3.08-1.25s-1.16-2.03-1.16-3.59c0-1.01.17-1.89.5-2.65s.84-1.32,1.52-1.7,1.43-.57,2.23-.57c1.01,0,1.84.26,2.49.77s1.06,1.24,1.24,2.18l-1.54.24c-.15-.63-.41-1.1-.78-1.42s-.82-.47-1.35-.47c-.8,0-1.44.29-1.94.86s-.75,1.48-.75,2.71.24,2.17.72,2.73,1.11.85,1.88.85c.62,0,1.14-.19,1.56-.57s.68-.97.79-1.76Z"/>
    <path d="M773.77,319.41c-.59.5-1.15.85-1.69,1.05-.54.21-1.12.31-1.75.31-1.03,0-1.81-.25-2.36-.75s-.83-1.14-.83-1.92c0-.46.1-.87.31-1.25.21-.38.48-.68.82-.91s.72-.4,1.14-.52c.31-.08.78-.16,1.41-.24,1.28-.15,2.22-.33,2.82-.54,0-.22,0-.35,0-.41,0-.64-.15-1.1-.45-1.36-.4-.36-1-.54-1.8-.54-.74,0-1.29.13-1.65.39s-.62.72-.79,1.38l-1.55-.21c.14-.66.37-1.2.69-1.6s.79-.72,1.4-.94,1.32-.33,2.12-.33,1.44.09,1.94.28.86.42,1.1.71.4.64.49,1.08c.05.27.08.76.08,1.46v2.11c0,1.47.03,2.4.1,2.79s.2.76.4,1.12h-1.65c-.16-.33-.27-.71-.32-1.15ZM773.64,315.88c-.57.23-1.44.43-2.58.6-.65.09-1.11.2-1.38.32s-.48.29-.62.51-.22.48-.22.75c0,.42.16.77.48,1.05s.79.42,1.4.42,1.15-.13,1.63-.4.82-.63,1.05-1.09c.17-.36.25-.88.25-1.58v-.58Z"/>
    <path d="M777.69,324.14v-12.91h1.44v1.21c.34-.47.72-.83,1.15-1.07s.95-.36,1.56-.36c.8,0,1.5.21,2.11.62s1.07.99,1.38,1.74.47,1.57.47,2.46c0,.96-.17,1.81-.51,2.58-.34.76-.84,1.35-1.49,1.76s-1.34.61-2.06.61c-.53,0-1-.11-1.42-.33s-.76-.5-1.03-.84v4.54h-1.58ZM779.12,315.95c0,1.2.24,2.09.73,2.66s1.08.86,1.77.86,1.3-.3,1.81-.89c.5-.59.75-1.52.75-2.76s-.25-2.08-.73-2.67c-.49-.59-1.07-.89-1.75-.89s-1.27.31-1.79.94c-.52.63-.78,1.55-.78,2.75Z"/>
    <path d="M787.71,309.5v-1.82h1.58v1.82h-1.58ZM787.71,320.57v-9.33h1.58v9.33h-1.58Z"/>
    <path d="M795.15,319.15l.23,1.4c-.45.09-.84.14-1.2.14-.57,0-1.02-.09-1.34-.27s-.54-.42-.67-.72-.19-.92-.19-1.87v-5.37h-1.16v-1.23h1.16v-2.31l1.57-.95v3.26h1.59v1.23h-1.59v5.46c0,.45.03.74.08.87s.15.23.27.31c.12.08.31.11.54.11.18,0,.41-.02.69-.06Z"/>
    <path d="M802.79,319.41c-.59.5-1.15.85-1.69,1.05-.54.21-1.12.31-1.75.31-1.03,0-1.81-.25-2.36-.75s-.83-1.14-.83-1.92c0-.46.1-.87.31-1.25.21-.38.48-.68.82-.91s.72-.4,1.14-.52c.31-.08.78-.16,1.41-.24,1.28-.15,2.22-.33,2.82-.54,0-.22,0-.35,0-.41,0-.64-.15-1.1-.45-1.36-.4-.36-1-.54-1.8-.54-.74,0-1.29.13-1.65.39s-.62.72-.79,1.38l-1.55-.21c.14-.66.37-1.2.69-1.6s.79-.72,1.4-.94,1.32-.33,2.12-.33,1.44.09,1.94.28.86.42,1.1.71.4.64.49,1.08c.05.27.08.76.08,1.46v2.11c0,1.47.03,2.4.1,2.79s.2.76.4,1.12h-1.65c-.16-.33-.27-.71-.32-1.15ZM802.66,315.88c-.57.23-1.44.43-2.58.6-.65.09-1.11.2-1.38.32s-.48.29-.62.51-.22.48-.22.75c0,.42.16.77.48,1.05s.79.42,1.4.42,1.15-.13,1.63-.4.82-.63,1.05-1.09c.17-.36.25-.88.25-1.58v-.58Z"/>
    <path d="M806.67,320.57v-12.88h1.58v12.88h-1.58Z"/>
    <path d="M818.73,324.35c-.87-1.1-1.61-2.39-2.21-3.87s-.91-3.01-.91-4.59c0-1.39.23-2.73.68-4.01.53-1.48,1.34-2.96,2.44-4.43h1.13c-.71,1.22-1.18,2.09-1.41,2.61-.36.81-.64,1.65-.84,2.53-.25,1.1-.38,2.2-.38,3.3,0,2.82.88,5.63,2.63,8.45h-1.13Z"/>
    <path d="M822.2,320.57v-12.88h1.71v12.88h-1.71Z"/>
    <path d="M836.1,316.05l1.71.43c-.36,1.4-1,2.47-1.93,3.2s-2.06,1.1-3.41,1.1-2.52-.28-3.39-.85c-.87-.57-1.53-1.38-1.99-2.46-.46-1.07-.68-2.22-.68-3.45,0-1.34.26-2.51.77-3.51.51-1,1.24-1.76,2.19-2.28s1.99-.78,3.12-.78c1.29,0,2.37.33,3.25.98s1.49,1.58,1.84,2.77l-1.68.4c-.3-.94-.73-1.62-1.3-2.05s-1.28-.64-2.14-.64c-.99,0-1.82.24-2.48.71-.67.47-1.13,1.11-1.4,1.91s-.4,1.62-.4,2.47c0,1.1.16,2.05.48,2.87s.82,1.43,1.49,1.83,1.4.61,2.19.61c.96,0,1.76-.28,2.43-.83s1.11-1.37,1.34-2.45Z"/>
    <path d="M840.74,324.35h-1.13c1.75-2.81,2.63-5.63,2.63-8.45,0-1.1-.13-2.19-.38-3.28-.2-.88-.48-1.72-.83-2.53-.23-.53-.7-1.41-1.42-2.64h1.13c1.1,1.47,1.92,2.95,2.44,4.43.45,1.28.68,2.61.68,4.01,0,1.58-.3,3.11-.91,4.59-.61,1.48-1.34,2.77-2.21,3.87Z"/>
  </g>
</svg>