<?xml version="1.0" encoding="UTF-8"?>
<svg id="maturity" xmlns="http://www.w3.org/2000/svg" viewBox="0 0 988 525">
  <defs>
    <style>
      .cls-1 {
        fill: #ebebeb;
      }

      .cls-2 {
        fill: none;
        stroke: #1d1d1b;
        stroke-miterlimit: 10;
        stroke-width: 2px;
      }

      .cls-3 {
        fill: #0333ff;
        font-family: ArialMT, Arial;
        font-size: 16px;
      }

      .cls-4 {
        fill: #1d1d1b;
        font-family: Arial-BoldMT, Arial;
        font-size: 20px;
        font-weight: 700;
      }
    </style>
  </defs>
  <path class="cls-1" d="M436.76,320.81c4.56-41.38,25.98-77.69,57.24-101.9-25.33-19.62-57.13-31.31-91.65-31.31-16.28,0-31.94,2.61-46.62,7.41,2.67,54.87,34.86,101.98,81.03,125.8Z"/>
  <path class="cls-1" d="M494,218.91c33.55,25.99,55.77,65.91,57.97,111.09,54.85-17.95,95.76-66.69,102.27-125.8-20.55-10.6-43.87-16.6-68.59-16.6-34.52,0-66.32,11.69-91.65,31.31Z"/>
  <path class="cls-1" d="M552.16,337.4c0-2.48-.06-4.95-.18-7.41-14.67,4.8-30.34,7.41-46.62,7.41-24.72,0-48.04-5.99-68.59-16.6-.6,5.45-.92,10.99-.92,16.6,0,48.21,22.78,91.1,58.16,118.5,35.38-27.4,58.16-70.29,58.16-118.5Z"/>
  <text class="cls-4" transform="translate(475.35 125.84)"><tspan x="0" y="0">Power</tspan></text>
  <text class="cls-4" transform="translate(585.65 415.69)"><tspan x="0" y="0">Legitimacy</tspan></text>
  <text class="cls-4" transform="translate(322.32 415.69)"><tspan x="0" y="0">Urgency</tspan></text>
  <text class="cls-3" transform="translate(551.41 247.13)"><tspan x="0" y="0">Dominant</tspan></text>
  <text class="cls-3" transform="translate(454.86 380.74)"><tspan x="0" y="0">Dependant</tspan></text>
  <text class="cls-3" transform="translate(474.68 159.76)"><tspan x="0" y="0">Dormant</tspan></text>
  <text class="cls-3" transform="translate(324.2 380.74)"><tspan x="0" y="0">Demanding</tspan></text>
  <text class="cls-3" transform="translate(586.77 380.74)"><tspan x="0" y="0">Discretionary</tspan></text>
  <text class="cls-3" transform="translate(375.89 247.13)"><tspan x="0" y="0">Dangerous</tspan></text>
  <circle class="cls-2" cx="505.36" cy="187.6" r="149.81"/>
  <circle class="cls-2" cx="402.35" cy="337.4" r="149.81"/>
  <circle class="cls-2" cx="585.65" cy="337.4" r="149.81"/>
</svg>