<?xml version="1.0" encoding="UTF-8"?>
<svg id="graphics" xmlns="http://www.w3.org/2000/svg" viewBox="0 0 988 525">
  <defs>
    <style>
      .cls-1, .cls-2 {
        font-family: ArialMT, Arial;
        font-size: 12px;
      }

      .cls-3 {
        letter-spacing: -.06em;
      }

      .cls-2, .cls-4 {
        fill: #0333ff;
      }

      .cls-5, .cls-6 {
        fill: none;
        stroke: #1d1d1b;
        stroke-miterlimit: 10;
      }

      .cls-6 {
        stroke-dasharray: 0 0 4.63 4.63;
      }

      .cls-7 {
        fill: #1d1d1b;
      }

      .cls-7, .cls-4 {
        stroke-width: 0px;
      }
    </style>
  </defs>
  <g>
    <g>
      <circle class="cls-5" cx="607.52" cy="162.62" r="100"/>
      <circle class="cls-5" cx="607.52" cy="162.62" r="137.5"/>
    </g>
    <text class="cls-1" transform="translate(576.17 50.31)"><tspan x="0" y="0">Perspective</tspan></text>
    <text class="cls-1" transform="translate(588.17 156.41)"><tspan x="0" y="0">Pattern</tspan><tspan x="-24.01" y="14.4">(and/or position)</tspan></text>
    <g>
      <polygon class="cls-7" points="612.02 123.95 612.02 114.95 616.52 114.95 607.52 105.95 598.52 114.95 603.02 114.95 603.02 123.95 612.02 123.95"/>
      <polygon class="cls-7" points="612.02 89.37 612.02 80.37 616.52 80.37 607.52 71.37 598.52 80.37 603.02 80.37 603.02 89.37 612.02 89.37"/>
      <polygon class="cls-7" points="603.01 201.3 603.01 210.3 598.51 210.3 607.51 219.3 616.51 210.3 612.01 210.3 612.01 201.3 603.01 201.3"/>
      <polygon class="cls-7" points="603.01 235.88 603.01 244.88 598.51 244.88 607.51 253.88 616.51 244.88 612.01 244.88 612.01 235.88 603.01 235.88"/>
    </g>
    <g>
      <polygon class="cls-7" points="576.27 139.39 568.48 134.89 570.73 130.99 558.43 134.28 561.73 146.58 563.98 142.68 571.77 147.18 576.27 139.39"/>
      <polygon class="cls-7" points="546.33 122.1 538.53 117.6 540.78 113.7 528.49 117 531.78 129.29 534.03 125.39 541.83 129.89 546.33 122.1"/>
      <polygon class="cls-7" points="638.76 185.86 646.55 190.36 644.3 194.26 656.6 190.96 653.3 178.67 651.05 182.56 643.26 178.06 638.76 185.86"/>
      <polygon class="cls-7" points="668.71 203.15 676.5 207.65 674.25 211.54 686.54 208.25 683.25 195.96 681 199.85 673.21 195.35 668.71 203.15"/>
    </g>
    <g>
      <polygon class="cls-7" points="643.26 147.18 651.05 142.68 653.3 146.58 656.6 134.28 644.3 130.99 646.55 134.89 638.76 139.39 643.26 147.18"/>
      <polygon class="cls-7" points="673.21 129.89 681 125.39 683.25 129.29 686.54 117 674.25 113.7 676.5 117.6 668.71 122.1 673.21 129.89"/>
      <polygon class="cls-7" points="571.77 178.06 563.98 182.56 561.73 178.67 558.43 190.96 570.73 194.26 568.48 190.36 576.27 185.86 571.77 178.06"/>
      <polygon class="cls-7" points="541.82 195.35 534.03 199.85 531.78 195.96 528.49 208.25 540.78 211.54 538.53 207.65 546.32 203.15 541.82 195.35"/>
    </g>
  </g>
  <g>
    <circle class="cls-5" cx="153.45" cy="162.62" r="100"/>
    <circle class="cls-5" cx="153.45" cy="162.62" r="137.5"/>
  </g>
  <g>
    <circle class="cls-5" cx="834.55" cy="362.38" r="100"/>
    <circle class="cls-5" cx="834.55" cy="362.38" r="137.5"/>
  </g>
  <text class="cls-1" transform="translate(122.11 50.31)"><tspan x="0" y="0">Perspective</tspan></text>
  <text class="cls-1" transform="translate(803.2 250.07)"><tspan x="0" y="0">Perspective</tspan></text>
  <text class="cls-1" transform="translate(141.45 109.68)"><tspan x="0" y="0">Plan</tspan><tspan x="4" y="14.4">as </tspan><tspan x="-9.34" y="28.8">Position</tspan></text>
  <text class="cls-1" transform="translate(134.11 183.48)"><tspan x="0" y="0">Pattern</tspan></text>
  <polyline class="cls-7" points="148.95 62.97 148.95 71.97 144.45 71.97 153.45 80.97 162.45 71.97 157.95 71.97 157.95 62.97"/>
  <g>
    <line class="cls-5" x1="731.37" y1="466.07" x2="732.79" y2="464.65"/>
    <line class="cls-6" x1="736.06" y1="461.37" x2="747.53" y2="449.91"/>
    <line class="cls-5" x1="749.17" y1="448.27" x2="750.58" y2="446.85"/>
  </g>
  <polyline class="cls-5" points="725.01 459.7 718.72 465.99 715.53 462.81 715.53 475.54 728.26 475.54 725.08 472.36 731.37 466.07"/>
  <g>
    <line class="cls-5" x1="744.22" y1="440.49" x2="742.8" y2="441.9"/>
    <line class="cls-6" x1="739.53" y1="445.18" x2="728.06" y2="456.65"/>
    <line class="cls-5" x1="726.42" y1="458.29" x2="725.01" y2="459.7"/>
  </g>
  <polygon class="cls-7" points="148.95 148.18 148.95 157.18 144.45 157.18 153.45 166.18 162.45 157.18 157.95 157.18 157.95 148.18 148.95 148.18"/>
  <text class="cls-1" transform="translate(770.87 414.12)"><tspan x="0" y="0">Position</tspan><tspan class="cls-3" x="42.69" y="0" xml:space="preserve"> A</tspan></text>
  <text class="cls-1" transform="translate(858.65 341.92)"><tspan x="0" y="0">Position B</tspan></text>
  <text class="cls-1" transform="translate(651.68 485.72)"><tspan x="0" y="0">Position X</tspan></text>
  <polygon class="cls-7" points="831.64 393.63 838.01 387.27 841.19 390.45 841.19 377.72 828.46 377.72 831.64 380.9 825.28 387.27 831.64 393.63"/>
  <polygon class="cls-7" points="760.13 421.4 753.76 427.76 750.58 424.58 750.58 437.31 763.31 437.31 760.13 434.13 766.49 427.76 760.13 421.4"/>
  <polygon class="cls-7" points="850.89 372.08 857.26 365.71 860.44 368.89 860.44 356.17 847.71 356.17 850.89 359.35 844.53 365.71 850.89 372.08"/>
  <g>
    <g>
      <circle class="cls-5" cx="380.48" cy="362.38" r="100"/>
      <circle class="cls-5" cx="380.48" cy="362.38" r="137.5"/>
    </g>
    <text class="cls-1" transform="translate(349.14 250.07)"><tspan x="0" y="0">Perspective</tspan></text>
    <text class="cls-1" transform="translate(368.48 338.23)"><tspan x="0" y="0">Plan</tspan></text>
    <text class="cls-1" transform="translate(361.14 383.24)"><tspan x="0" y="0">Pattern</tspan><tspan x="-16.67" y="14.4">(position etc.)</tspan></text>
    <polygon class="cls-7" points="384.98 363.94 384.98 354.94 389.48 354.94 380.48 345.94 371.48 354.94 375.98 354.94 375.98 363.94 384.98 363.94"/>
  </g>
  <line class="cls-5" x1="734.55" y1="430.82" x2="761.21" y2="457.48"/>
  <g>
    <path class="cls-4" d="m73.34,329.65v-8.59h3.24c.57,0,1.01.03,1.31.08.42.07.78.2,1.06.4s.51.47.69.83.26.75.26,1.17c0,.73-.23,1.35-.7,1.85s-1.3.76-2.52.76h-2.2v3.49h-1.14Zm1.14-4.51h2.22c.73,0,1.26-.14,1.56-.41s.46-.66.46-1.15c0-.36-.09-.67-.27-.92s-.42-.42-.72-.51c-.19-.05-.54-.08-1.06-.08h-2.2v3.07Z"/>
    <path class="cls-4" d="m85.47,327.64l1.09.13c-.17.64-.49,1.13-.96,1.48s-1.06.53-1.78.53c-.91,0-1.63-.28-2.17-.84s-.8-1.35-.8-2.36.27-1.86.81-2.44,1.24-.87,2.1-.87,1.51.28,2.04.85.79,1.36.79,2.39c0,.06,0,.16,0,.28h-4.64c.04.68.23,1.21.58,1.57s.78.54,1.3.54c.39,0,.72-.1.99-.3s.49-.53.65-.97Zm-3.46-1.71h3.47c-.05-.52-.18-.92-.4-1.18-.34-.41-.77-.61-1.31-.61-.48,0-.89.16-1.22.49s-.51.76-.55,1.3Z"/>
    <path class="cls-4" d="m87.87,329.65v-6.22h.95v.94c.24-.44.47-.73.67-.87s.43-.21.68-.21c.36,0,.72.11,1.08.34l-.36.98c-.26-.15-.52-.23-.77-.23-.23,0-.44.07-.62.21s-.31.33-.39.58c-.12.38-.18.79-.18,1.23v3.26h-1.05Z"/>
    <path class="cls-4" d="m91.46,327.79l1.04-.16c.06.42.22.74.49.96s.64.33,1.12.33.84-.1,1.08-.3.35-.43.35-.69c0-.24-.1-.43-.31-.56-.14-.09-.5-.21-1.08-.36-.77-.2-1.31-.36-1.61-.51s-.53-.34-.68-.59-.23-.53-.23-.83c0-.28.06-.53.19-.77s.3-.43.52-.59c.16-.12.39-.22.67-.31s.59-.13.91-.13c.49,0,.92.07,1.29.21s.64.33.82.57.3.56.36.96l-1.03.14c-.05-.32-.18-.57-.41-.75s-.54-.27-.95-.27c-.48,0-.83.08-1.04.24s-.31.35-.31.56c0,.14.04.26.13.37.09.11.22.21.4.28.11.04.42.13.93.27.75.2,1.27.36,1.56.49s.53.31.69.55.25.54.25.9-.1.68-.31.99-.5.55-.89.72-.82.25-1.31.25c-.81,0-1.42-.17-1.85-.5s-.69-.83-.81-1.49Z"/>
    <path class="cls-4" d="m97.88,332.03v-8.61h.96v.81c.23-.32.48-.55.77-.71s.63-.24,1.04-.24c.53,0,1,.14,1.41.41s.71.66.92,1.16.31,1.04.31,1.64c0,.64-.11,1.21-.34,1.72s-.56.9-1,1.17-.89.41-1.37.41c-.35,0-.67-.07-.95-.22s-.51-.34-.69-.56v3.03h-1.05Zm.96-5.46c0,.8.16,1.39.49,1.78s.72.57,1.18.57.87-.2,1.2-.59.5-1.01.5-1.84-.16-1.39-.49-1.78-.72-.59-1.17-.59-.85.21-1.19.63-.52,1.03-.52,1.83Z"/>
    <path class="cls-4" d="m108.82,327.64l1.09.13c-.17.64-.49,1.13-.96,1.48s-1.06.53-1.78.53c-.91,0-1.63-.28-2.17-.84s-.8-1.35-.8-2.36.27-1.86.81-2.44,1.24-.87,2.1-.87,1.51.28,2.04.85.79,1.36.79,2.39c0,.06,0,.16,0,.28h-4.64c.04.68.23,1.21.58,1.57s.78.54,1.3.54c.39,0,.72-.1.99-.3s.49-.53.65-.97Zm-3.46-1.71h3.47c-.05-.52-.18-.92-.4-1.18-.34-.41-.77-.61-1.31-.61-.48,0-.89.16-1.22.49s-.51.76-.55,1.3Z"/>
    <path class="cls-4" d="m115.29,327.37l1.04.13c-.11.71-.4,1.27-.87,1.68s-1.04.61-1.72.61c-.85,0-1.54-.28-2.05-.83s-.78-1.35-.78-2.39c0-.67.11-1.26.33-1.76s.56-.88,1.02-1.13.95-.38,1.49-.38c.68,0,1.23.17,1.66.51s.71.83.83,1.46l-1.03.16c-.1-.42-.27-.73-.52-.94s-.55-.32-.9-.32c-.53,0-.96.19-1.29.57s-.5.98-.5,1.81.16,1.44.48,1.82.74.57,1.25.57c.41,0,.76-.13,1.04-.38s.45-.64.53-1.17Z"/>
    <path class="cls-4" d="m119.53,328.7l.15.93c-.3.06-.56.09-.8.09-.38,0-.68-.06-.89-.18s-.36-.28-.45-.48-.13-.61-.13-1.25v-3.58h-.77v-.82h.77v-1.54l1.05-.63v2.17h1.06v.82h-1.06v3.64c0,.3.02.49.06.58s.1.15.18.21.2.08.36.08c.12,0,.27-.01.46-.04Z"/>
    <path class="cls-4" d="m120.57,322.27v-1.21h1.05v1.21h-1.05Zm0,7.38v-6.22h1.05v6.22h-1.05Z"/>
    <path class="cls-4" d="m124.96,329.65l-2.37-6.22h1.11l1.34,3.73c.14.4.28.82.4,1.25.09-.33.22-.72.39-1.18l1.38-3.8h1.08l-2.36,6.22h-.98Z"/>
    <path class="cls-4" d="m133.49,327.64l1.09.13c-.17.64-.49,1.13-.96,1.48s-1.06.53-1.78.53c-.91,0-1.63-.28-2.17-.84s-.8-1.35-.8-2.36.27-1.86.81-2.44,1.24-.87,2.1-.87,1.51.28,2.04.85.79,1.36.79,2.39c0,.06,0,.16,0,.28h-4.64c.04.68.23,1.21.58,1.57s.78.54,1.3.54c.39,0,.72-.1.99-.3s.49-.53.65-.97Zm-3.46-1.71h3.47c-.05-.52-.18-.92-.4-1.18-.34-.41-.77-.61-1.31-.61-.48,0-.89.16-1.22.49s-.51.76-.55,1.3Z"/>
    <path class="cls-4" d="m135.48,327.79l1.04-.16c.06.42.22.74.49.96s.64.33,1.12.33.84-.1,1.08-.3.35-.43.35-.69c0-.24-.1-.43-.31-.56-.14-.09-.5-.21-1.08-.36-.77-.2-1.31-.36-1.61-.51s-.53-.34-.68-.59-.23-.53-.23-.83c0-.28.06-.53.19-.77s.3-.43.52-.59c.16-.12.39-.22.67-.31s.59-.13.91-.13c.49,0,.92.07,1.29.21s.64.33.82.57.3.56.36.96l-1.03.14c-.05-.32-.18-.57-.41-.75s-.54-.27-.95-.27c-.48,0-.83.08-1.04.24s-.31.35-.31.56c0,.14.04.26.13.37.09.11.22.21.4.28.11.04.42.13.93.27.75.2,1.27.36,1.56.49s.53.31.69.55.25.54.25.9-.1.68-.31.99-.5.55-.89.72-.82.25-1.31.25c-.81,0-1.42-.17-1.85-.5s-.69-.83-.81-1.49Z"/>
    <path class="cls-4" d="m145.04,330.16l1.03.15c.04.32.16.55.36.69.26.2.62.29,1.07.29.49,0,.87-.1,1.13-.29s.45-.47.54-.82c.05-.21.08-.67.08-1.35-.46.54-1.04.81-1.72.81-.86,0-1.52-.31-1.99-.93s-.7-1.36-.7-2.22c0-.59.11-1.14.32-1.64s.53-.89.93-1.16.89-.41,1.44-.41c.73,0,1.34.3,1.82.89v-.75h.97v5.38c0,.97-.1,1.66-.3,2.06s-.51.72-.94.96-.95.35-1.58.35c-.74,0-1.34-.17-1.8-.5s-.68-.84-.66-1.51Zm.87-3.74c0,.82.16,1.41.49,1.79s.73.56,1.22.56.89-.19,1.22-.56.49-.96.49-1.75-.17-1.34-.51-1.72-.75-.58-1.22-.58-.87.19-1.2.57-.49.95-.49,1.7Z"/>
    <path class="cls-4" d="m151.92,322.27v-1.21h1.05v1.21h-1.05Zm0,7.38v-6.22h1.05v6.22h-1.05Z"/>
    <path class="cls-4" d="m156.31,329.65l-2.37-6.22h1.11l1.34,3.73c.14.4.28.82.4,1.25.09-.33.22-.72.39-1.18l1.38-3.8h1.08l-2.36,6.22h-.98Z"/>
    <path class="cls-4" d="m164.84,327.64l1.09.13c-.17.64-.49,1.13-.96,1.48s-1.06.53-1.78.53c-.91,0-1.63-.28-2.17-.84s-.8-1.35-.8-2.36.27-1.86.81-2.44,1.24-.87,2.1-.87,1.51.28,2.04.85.79,1.36.79,2.39c0,.06,0,.16,0,.28h-4.64c.04.68.23,1.21.58,1.57s.78.54,1.3.54c.39,0,.72-.1.99-.3s.49-.53.65-.97Zm-3.46-1.71h3.47c-.05-.52-.18-.92-.4-1.18-.34-.41-.77-.61-1.31-.61-.48,0-.89.16-1.22.49s-.51.76-.55,1.3Z"/>
    <path class="cls-4" d="m167.24,329.65v-6.22h.95v.94c.24-.44.47-.73.67-.87s.43-.21.68-.21c.36,0,.72.11,1.08.34l-.36.98c-.26-.15-.52-.23-.77-.23-.23,0-.44.07-.62.21s-.31.33-.39.58c-.12.38-.18.79-.18,1.23v3.26h-1.05Z"/>
    <path class="cls-4" d="m171.25,322.27v-1.21h1.05v1.21h-1.05Zm0,7.38v-6.22h1.05v6.22h-1.05Z"/>
    <path class="cls-4" d="m173.49,327.79l1.04-.16c.06.42.22.74.49.96s.64.33,1.12.33.84-.1,1.08-.3.35-.43.35-.69c0-.24-.1-.43-.31-.56-.14-.09-.5-.21-1.08-.36-.77-.2-1.31-.36-1.61-.51s-.53-.34-.68-.59-.23-.53-.23-.83c0-.28.06-.53.19-.77s.3-.43.52-.59c.16-.12.39-.22.67-.31s.59-.13.91-.13c.49,0,.92.07,1.29.21s.64.33.82.57.3.56.36.96l-1.03.14c-.05-.32-.18-.57-.41-.75s-.54-.27-.95-.27c-.48,0-.83.08-1.04.24s-.31.35-.31.56c0,.14.04.26.13.37.09.11.22.21.4.28.11.04.42.13.93.27.75.2,1.27.36,1.56.49s.53.31.69.55.25.54.25.9-.1.68-.31.99-.5.55-.89.72-.82.25-1.31.25c-.81,0-1.42-.17-1.85-.5s-.69-.83-.81-1.49Z"/>
    <path class="cls-4" d="m184.17,327.64l1.09.13c-.17.64-.49,1.13-.96,1.48s-1.06.53-1.78.53c-.91,0-1.63-.28-2.17-.84s-.8-1.35-.8-2.36.27-1.86.81-2.44,1.24-.87,2.1-.87,1.51.28,2.04.85.79,1.36.79,2.39c0,.06,0,.16,0,.28h-4.64c.04.68.23,1.21.58,1.57s.78.54,1.3.54c.39,0,.72-.1.99-.3s.49-.53.65-.97Zm-3.46-1.71h3.47c-.05-.52-.18-.92-.4-1.18-.34-.41-.77-.61-1.31-.61-.48,0-.89.16-1.22.49s-.51.76-.55,1.3Z"/>
    <path class="cls-4" d="m192.22,328.7l.15.93c-.3.06-.56.09-.8.09-.38,0-.68-.06-.89-.18s-.36-.28-.45-.48-.13-.61-.13-1.25v-3.58h-.77v-.82h.77v-1.54l1.05-.63v2.17h1.06v.82h-1.06v3.64c0,.3.02.49.06.58s.1.15.18.21.2.08.36.08c.12,0,.27-.01.46-.04Z"/>
    <path class="cls-4" d="m192.86,326.54c0-1.15.32-2.01.96-2.56.54-.46,1.19-.69,1.96-.69.86,0,1.55.28,2.1.84s.81,1.33.81,2.32c0,.8-.12,1.43-.36,1.89s-.59.82-1.05,1.07-.96.38-1.5.38c-.87,0-1.58-.28-2.11-.84s-.81-1.36-.81-2.41Zm1.08,0c0,.8.17,1.39.52,1.79s.79.59,1.31.59.96-.2,1.31-.6.52-1.01.52-1.82c0-.77-.17-1.35-.52-1.75s-.78-.59-1.3-.59-.96.2-1.31.59-.52.99-.52,1.79Z"/>
    <path class="cls-4" d="m203.26,332.03v-8.61h.96v.81c.23-.32.48-.55.77-.71s.63-.24,1.04-.24c.53,0,1,.14,1.41.41s.71.66.92,1.16.31,1.04.31,1.64c0,.64-.11,1.21-.34,1.72s-.56.9-1,1.17-.89.41-1.37.41c-.35,0-.67-.07-.95-.22s-.51-.34-.69-.56v3.03h-1.05Zm.96-5.46c0,.8.16,1.39.49,1.78s.72.57,1.18.57.87-.2,1.2-.59.5-1.01.5-1.84-.16-1.39-.49-1.78-.72-.59-1.17-.59-.85.21-1.19.63-.52,1.03-.52,1.83Z"/>
    <path class="cls-4" d="m209.91,329.65v-8.59h1.05v8.59h-1.05Z"/>
    <path class="cls-4" d="m216.66,328.88c-.39.33-.77.57-1.13.7s-.75.21-1.16.21c-.68,0-1.21-.17-1.58-.5s-.55-.76-.55-1.28c0-.3.07-.58.21-.83s.32-.45.54-.61.48-.27.76-.35c.21-.05.52-.11.94-.16.85-.1,1.48-.22,1.88-.36,0-.14,0-.24,0-.28,0-.43-.1-.73-.3-.91-.27-.24-.67-.36-1.2-.36-.5,0-.86.09-1.1.26s-.41.48-.52.92l-1.03-.14c.09-.44.25-.8.46-1.07s.53-.48.93-.63.88-.22,1.41-.22.96.06,1.29.19.58.28.73.47.27.43.33.72c.04.18.05.5.05.97v1.41c0,.98.02,1.6.07,1.86s.13.51.27.75h-1.1c-.11-.22-.18-.47-.21-.77Zm-.09-2.36c-.38.16-.96.29-1.72.4-.43.06-.74.13-.92.21s-.32.19-.42.34-.15.32-.15.5c0,.28.11.52.32.7s.52.28.93.28.77-.09,1.08-.27.55-.42.7-.73c.11-.24.17-.59.17-1.05v-.39Z"/>
    <path class="cls-4" d="m219.28,329.65v-6.22h.95v.88c.46-.68,1.12-1.03,1.98-1.03.38,0,.72.07,1.03.2s.55.31.71.53.27.48.33.78c.04.2.06.54.06,1.03v3.83h-1.05v-3.79c0-.43-.04-.75-.12-.96s-.23-.38-.44-.51-.45-.19-.74-.19c-.45,0-.84.14-1.16.43s-.49.83-.49,1.62v3.4h-1.05Z"/>
    <path class="cls-4" d="m225.53,327.79l1.04-.16c.06.42.22.74.49.96s.64.33,1.12.33.84-.1,1.08-.3.35-.43.35-.69c0-.24-.1-.43-.31-.56-.14-.09-.5-.21-1.08-.36-.77-.2-1.31-.36-1.61-.51s-.53-.34-.68-.59-.23-.53-.23-.83c0-.28.06-.53.19-.77s.3-.43.52-.59c.16-.12.39-.22.67-.31s.59-.13.91-.13c.49,0,.92.07,1.29.21s.64.33.82.57.3.56.36.96l-1.03.14c-.05-.32-.18-.57-.41-.75s-.54-.27-.95-.27c-.48,0-.83.08-1.04.24s-.31.35-.31.56c0,.14.04.26.13.37.09.11.22.21.4.28.11.04.42.13.93.27.75.2,1.27.36,1.56.49s.53.31.69.55.25.54.25.9-.1.68-.31.99-.5.55-.89.72-.82.25-1.31.25c-.81,0-1.42-.17-1.85-.5s-.69-.83-.81-1.49Z"/>
    <path class="cls-4" d="m232.23,329.65v-1.2h1.2v1.2c0,.44-.08.8-.23,1.07s-.4.48-.74.63l-.29-.45c.22-.1.39-.24.49-.43s.16-.46.18-.82h-.6Z"/>
    <path class="cls-4" d="m74.86,346.43v-8.61h.96v.81c.23-.32.48-.55.77-.71s.63-.24,1.04-.24c.53,0,1,.14,1.41.41s.71.66.92,1.16.31,1.04.31,1.64c0,.64-.11,1.21-.34,1.72s-.56.9-1,1.17-.89.41-1.37.41c-.35,0-.67-.07-.95-.22s-.51-.34-.69-.56v3.03h-1.05Zm.96-5.46c0,.8.16,1.39.49,1.78s.72.57,1.18.57.87-.2,1.2-.59.5-1.01.5-1.84-.16-1.39-.49-1.78-.72-.59-1.17-.59-.85.21-1.19.63-.52,1.03-.52,1.83Z"/>
    <path class="cls-4" d="m81.51,344.05v-8.59h1.05v8.59h-1.05Z"/>
    <path class="cls-4" d="m88.26,343.28c-.39.33-.77.57-1.13.7s-.75.21-1.16.21c-.68,0-1.21-.17-1.58-.5s-.55-.76-.55-1.28c0-.3.07-.58.21-.83s.32-.45.54-.61.48-.27.76-.35c.21-.05.52-.11.94-.16.85-.1,1.48-.22,1.88-.36,0-.14,0-.24,0-.28,0-.43-.1-.73-.3-.91-.27-.24-.67-.36-1.2-.36-.5,0-.86.09-1.1.26s-.41.48-.52.92l-1.03-.14c.09-.44.25-.8.46-1.07s.53-.48.93-.63.88-.22,1.41-.22.96.06,1.29.19.58.28.73.47.27.43.33.72c.04.18.05.5.05.97v1.41c0,.98.02,1.6.07,1.86s.13.51.27.75h-1.1c-.11-.22-.18-.47-.21-.77Zm-.09-2.36c-.38.16-.96.29-1.72.4-.43.06-.74.13-.92.21s-.32.19-.42.34-.15.32-.15.5c0,.28.11.52.32.7s.52.28.93.28.77-.09,1.08-.27.55-.42.7-.73c.11-.24.17-.59.17-1.05v-.39Z"/>
    <path class="cls-4" d="m90.87,344.05v-6.22h.95v.88c.46-.68,1.12-1.03,1.98-1.03.38,0,.72.07,1.03.2s.55.31.71.53.27.48.33.78c.04.2.06.54.06,1.03v3.83h-1.05v-3.79c0-.43-.04-.75-.12-.96s-.23-.38-.44-.51-.45-.19-.74-.19c-.45,0-.84.14-1.16.43s-.49.83-.49,1.62v3.4h-1.05Z"/>
    <path class="cls-4" d="m97.13,342.19l1.04-.16c.06.42.22.74.49.96s.64.33,1.12.33.84-.1,1.08-.3.35-.43.35-.69c0-.24-.1-.43-.31-.56-.14-.09-.5-.21-1.08-.36-.77-.2-1.31-.36-1.61-.51s-.53-.34-.68-.59-.23-.53-.23-.83c0-.28.06-.53.19-.77s.3-.43.52-.59c.16-.12.39-.22.67-.31s.59-.13.91-.13c.49,0,.92.07,1.29.21s.64.33.82.57.3.56.36.96l-1.03.14c-.05-.32-.18-.57-.41-.75s-.54-.27-.95-.27c-.48,0-.83.08-1.04.24s-.31.35-.31.56c0,.14.04.26.13.37.09.11.22.21.4.28.11.04.42.13.93.27.75.2,1.27.36,1.56.49s.53.31.69.55.25.54.25.9-.1.68-.31.99-.5.55-.89.72-.82.25-1.31.25c-.81,0-1.42-.17-1.85-.5s-.69-.83-.81-1.49Z"/>
    <path class="cls-4" d="m110.94,343.28c-.39.33-.77.57-1.13.7s-.75.21-1.16.21c-.68,0-1.21-.17-1.58-.5s-.55-.76-.55-1.28c0-.3.07-.58.21-.83s.32-.45.54-.61.48-.27.76-.35c.21-.05.52-.11.94-.16.85-.1,1.48-.22,1.88-.36,0-.14,0-.24,0-.28,0-.43-.1-.73-.3-.91-.27-.24-.67-.36-1.2-.36-.5,0-.86.09-1.1.26s-.41.48-.52.92l-1.03-.14c.09-.44.25-.8.46-1.07s.53-.48.93-.63.88-.22,1.41-.22.96.06,1.29.19.58.28.73.47.27.43.33.72c.04.18.05.5.05.97v1.41c0,.98.02,1.6.07,1.86s.13.51.27.75h-1.1c-.11-.22-.18-.47-.21-.77Zm-.09-2.36c-.38.16-.96.29-1.72.4-.43.06-.74.13-.92.21s-.32.19-.42.34-.15.32-.15.5c0,.28.11.52.32.7s.52.28.93.28.77-.09,1.08-.27.55-.42.7-.73c.11-.24.17-.59.17-1.05v-.39Z"/>
    <path class="cls-4" d="m113.54,344.05v-6.22h.95v.94c.24-.44.47-.73.67-.87s.43-.21.68-.21c.36,0,.72.11,1.08.34l-.36.98c-.26-.15-.52-.23-.77-.23-.23,0-.44.07-.62.21s-.31.33-.39.58c-.12.38-.18.79-.18,1.23v3.26h-1.05Z"/>
    <path class="cls-4" d="m121.81,342.04l1.09.13c-.17.64-.49,1.13-.96,1.48s-1.06.53-1.78.53c-.91,0-1.63-.28-2.17-.84s-.8-1.35-.8-2.36.27-1.86.81-2.44,1.24-.87,2.1-.87,1.51.28,2.04.85.79,1.36.79,2.39c0,.06,0,.16,0,.28h-4.64c.04.68.23,1.21.58,1.57s.78.54,1.3.54c.39,0,.72-.1.99-.3s.49-.53.65-.97Zm-3.46-1.71h3.47c-.05-.52-.18-.92-.4-1.18-.34-.41-.77-.61-1.31-.61-.48,0-.89.16-1.22.49s-.51.76-.55,1.3Z"/>
    <path class="cls-4" d="m127.55,344.05v-6.22h.95v.94c.24-.44.47-.73.67-.87s.43-.21.68-.21c.36,0,.72.11,1.08.34l-.36.98c-.26-.15-.52-.23-.77-.23-.23,0-.44.07-.62.21s-.31.33-.39.58c-.12.38-.18.79-.18,1.23v3.26h-1.05Z"/>
    <path class="cls-4" d="m135.82,342.04l1.09.13c-.17.64-.49,1.13-.96,1.48s-1.06.53-1.78.53c-.91,0-1.63-.28-2.17-.84s-.8-1.35-.8-2.36.27-1.86.81-2.44,1.24-.87,2.1-.87,1.51.28,2.04.85.79,1.36.79,2.39c0,.06,0,.16,0,.28h-4.64c.04.68.23,1.21.58,1.57s.78.54,1.3.54c.39,0,.72-.1.99-.3s.49-.53.65-.97Zm-3.46-1.71h3.47c-.05-.52-.18-.92-.4-1.18-.34-.41-.77-.61-1.31-.61-.48,0-.89.16-1.22.49s-.51.76-.55,1.3Z"/>
    <path class="cls-4" d="m142.29,343.28c-.39.33-.77.57-1.13.7s-.75.21-1.16.21c-.68,0-1.21-.17-1.58-.5s-.55-.76-.55-1.28c0-.3.07-.58.21-.83s.32-.45.54-.61.48-.27.76-.35c.21-.05.52-.11.94-.16.85-.1,1.48-.22,1.88-.36,0-.14,0-.24,0-.28,0-.43-.1-.73-.3-.91-.27-.24-.67-.36-1.2-.36-.5,0-.86.09-1.1.26s-.41.48-.52.92l-1.03-.14c.09-.44.25-.8.46-1.07s.53-.48.93-.63.88-.22,1.41-.22.96.06,1.29.19.58.28.73.47.27.43.33.72c.04.18.05.5.05.97v1.41c0,.98.02,1.6.07,1.86s.13.51.27.75h-1.1c-.11-.22-.18-.47-.21-.77Zm-.09-2.36c-.38.16-.96.29-1.72.4-.43.06-.74.13-.92.21s-.32.19-.42.34-.15.32-.15.5c0,.28.11.52.32.7s.52.28.93.28.77-.09,1.08-.27.55-.42.7-.73c.11-.24.17-.59.17-1.05v-.39Z"/>
    <path class="cls-4" d="m144.88,344.05v-8.59h1.05v8.59h-1.05Z"/>
    <path class="cls-4" d="m147.58,336.67v-1.21h1.05v1.21h-1.05Zm0,7.38v-6.22h1.05v6.22h-1.05Z"/>
    <path class="cls-4" d="m149.68,344.05v-.86l3.96-4.55c-.45.02-.85.04-1.19.04h-2.54v-.86h5.09v.7l-3.37,3.95-.65.72c.47-.04.92-.05,1.33-.05h2.88v.91h-5.51Z"/>
    <path class="cls-4" d="m160.5,342.04l1.09.13c-.17.64-.49,1.13-.96,1.48s-1.06.53-1.78.53c-.91,0-1.63-.28-2.17-.84s-.8-1.35-.8-2.36.27-1.86.81-2.44,1.24-.87,2.1-.87,1.51.28,2.04.85.79,1.36.79,2.39c0,.06,0,.16,0,.28h-4.64c.04.68.23,1.21.58,1.57s.78.54,1.3.54c.39,0,.72-.1.99-.3s.49-.53.65-.97Zm-3.46-1.71h3.47c-.05-.52-.18-.92-.4-1.18-.34-.41-.77-.61-1.31-.61-.48,0-.89.16-1.22.49s-.51.76-.55,1.3Z"/>
    <path class="cls-4" d="m166.95,344.05v-.79c-.39.62-.97.93-1.74.93-.5,0-.95-.14-1.37-.41s-.74-.66-.97-1.15-.34-1.05-.34-1.69.1-1.18.31-1.69.52-.89.93-1.16.88-.4,1.39-.4c.38,0,.71.08,1,.24s.53.36.71.62v-3.08h1.05v8.59h-.98Zm-3.33-3.11c0,.8.17,1.39.5,1.79s.73.59,1.19.59.85-.19,1.17-.57.48-.95.48-1.73c0-.85-.16-1.48-.49-1.88s-.73-.6-1.21-.6-.86.19-1.17.57-.47.99-.47,1.81Z"/>
    <path class="cls-4" d="m175.22,343.1l.15.93c-.3.06-.56.09-.8.09-.38,0-.68-.06-.89-.18s-.36-.28-.45-.48-.13-.61-.13-1.25v-3.58h-.77v-.82h.77v-1.54l1.05-.63v2.17h1.06v.82h-1.06v3.64c0,.3.02.49.06.58s.1.15.18.21.2.08.36.08c.12,0,.27-.01.46-.04Z"/>
    <path class="cls-4" d="m176.25,344.05v-8.59h1.05v3.08c.49-.57,1.11-.86,1.86-.86.46,0,.86.09,1.2.27s.58.43.73.75.22.79.22,1.39v3.94h-1.05v-3.94c0-.53-.11-.91-.34-1.15s-.55-.36-.97-.36c-.31,0-.61.08-.88.24s-.47.38-.59.66-.18.66-.18,1.15v3.4h-1.05Z"/>
    <path class="cls-4" d="m182.91,344.05v-6.22h.95v.94c.24-.44.47-.73.67-.87s.43-.21.68-.21c.36,0,.72.11,1.08.34l-.36.98c-.26-.15-.52-.23-.77-.23-.23,0-.44.07-.62.21s-.31.33-.39.58c-.12.38-.18.79-.18,1.23v3.26h-1.05Z"/>
    <path class="cls-4" d="m186.53,340.94c0-1.15.32-2.01.96-2.56.54-.46,1.19-.69,1.96-.69.86,0,1.55.28,2.1.84s.81,1.33.81,2.32c0,.8-.12,1.43-.36,1.89s-.59.82-1.05,1.07-.96.38-1.5.38c-.87,0-1.58-.28-2.11-.84s-.81-1.36-.81-2.41Zm1.08,0c0,.8.17,1.39.52,1.79s.79.59,1.31.59.96-.2,1.31-.6.52-1.01.52-1.82c0-.77-.17-1.35-.52-1.75s-.78-.59-1.3-.59-.96.2-1.31.59-.52.99-.52,1.79Z"/>
    <path class="cls-4" d="m197.67,344.05v-.91c-.48.7-1.14,1.05-1.97,1.05-.37,0-.71-.07-1.03-.21s-.55-.32-.71-.53-.26-.47-.33-.78c-.04-.21-.06-.54-.06-.98v-3.86h1.05v3.45c0,.55.02.92.06,1.11.07.28.21.5.42.65s.48.24.8.24.61-.08.89-.24.47-.38.59-.66.17-.68.17-1.22v-3.33h1.05v6.22h-.94Z"/>
    <path class="cls-4" d="m200.08,344.56l1.03.15c.04.32.16.55.36.69.26.2.62.29,1.07.29.49,0,.87-.1,1.13-.29s.45-.47.54-.82c.05-.21.08-.67.08-1.35-.46.54-1.04.81-1.72.81-.86,0-1.52-.31-1.99-.93s-.7-1.36-.7-2.22c0-.59.11-1.14.32-1.64s.53-.89.93-1.16.89-.41,1.44-.41c.73,0,1.34.3,1.82.89v-.75h.97v5.38c0,.97-.1,1.66-.3,2.06s-.51.72-.94.96-.95.35-1.58.35c-.74,0-1.34-.17-1.8-.5s-.68-.84-.66-1.51Zm.87-3.74c0,.82.16,1.41.49,1.79s.73.56,1.22.56.89-.19,1.22-.56.49-.96.49-1.75-.17-1.34-.51-1.72-.75-.58-1.22-.58-.87.19-1.2.57-.49.95-.49,1.7Z"/>
    <path class="cls-4" d="m206.94,344.05v-8.59h1.05v3.08c.49-.57,1.11-.86,1.86-.86.46,0,.86.09,1.2.27s.58.43.73.75.22.79.22,1.39v3.94h-1.05v-3.94c0-.53-.11-.91-.34-1.15s-.55-.36-.97-.36c-.31,0-.61.08-.88.24s-.47.38-.59.66-.18.66-.18,1.15v3.4h-1.05Z"/>
    <path class="cls-4" d="m221.01,343.28c-.39.33-.77.57-1.13.7s-.75.21-1.16.21c-.68,0-1.21-.17-1.58-.5s-.55-.76-.55-1.28c0-.3.07-.58.21-.83s.32-.45.54-.61.48-.27.76-.35c.21-.05.52-.11.94-.16.85-.1,1.48-.22,1.88-.36,0-.14,0-.24,0-.28,0-.43-.1-.73-.3-.91-.27-.24-.67-.36-1.2-.36-.5,0-.86.09-1.1.26s-.41.48-.52.92l-1.03-.14c.09-.44.25-.8.46-1.07s.53-.48.93-.63.88-.22,1.41-.22.96.06,1.29.19.58.28.73.47.27.43.33.72c.04.18.05.5.05.97v1.41c0,.98.02,1.6.07,1.86s.13.51.27.75h-1.1c-.11-.22-.18-.47-.21-.77Zm-.09-2.36c-.38.16-.96.29-1.72.4-.43.06-.74.13-.92.21s-.32.19-.42.34-.15.32-.15.5c0,.28.11.52.32.7s.52.28.93.28.77-.09,1.08-.27.55-.42.7-.73c.11-.24.17-.59.17-1.05v-.39Z"/>
    <path class="cls-4" d="m223.62,344.05v-6.22h.95v.88c.46-.68,1.12-1.03,1.98-1.03.38,0,.72.07,1.03.2s.55.31.71.53.27.48.33.78c.04.2.06.54.06,1.03v3.83h-1.05v-3.79c0-.43-.04-.75-.12-.96s-.23-.38-.44-.51-.45-.19-.74-.19c-.45,0-.84.14-1.16.43s-.49.83-.49,1.62v3.4h-1.05Z"/>
    <path class="cls-4" d="m86.21,351.07v-1.21h1.05v1.21h-1.05Zm0,7.38v-6.22h1.05v6.22h-1.05Z"/>
    <path class="cls-4" d="m88.87,358.45v-6.22h.95v.88c.46-.68,1.12-1.03,1.98-1.03.38,0,.72.07,1.03.2s.55.31.71.53.27.48.33.78c.04.2.06.54.06,1.03v3.83h-1.05v-3.79c0-.43-.04-.75-.12-.96s-.23-.38-.44-.51-.45-.19-.74-.19c-.45,0-.84.14-1.16.43s-.49.83-.49,1.62v3.4h-1.05Z"/>
    <path class="cls-4" d="m97.85,357.5l.15.93c-.3.06-.56.09-.8.09-.38,0-.68-.06-.89-.18s-.36-.28-.45-.48-.13-.61-.13-1.25v-3.58h-.77v-.82h.77v-1.54l1.05-.63v2.17h1.06v.82h-1.06v3.64c0,.3.02.49.06.58s.1.15.18.21.2.08.36.08c.12,0,.27-.01.46-.04Z"/>
    <path class="cls-4" d="m103.14,356.44l1.09.13c-.17.64-.49,1.13-.96,1.48s-1.06.53-1.78.53c-.91,0-1.63-.28-2.17-.84s-.8-1.35-.8-2.36.27-1.86.81-2.44,1.24-.87,2.1-.87,1.51.28,2.04.85.79,1.36.79,2.39c0,.06,0,.16,0,.28h-4.64c.04.68.23,1.21.58,1.57s.78.54,1.3.54c.39,0,.72-.1.99-.3s.49-.53.65-.97Zm-3.46-1.71h3.47c-.05-.52-.18-.92-.4-1.18-.34-.41-.77-.61-1.31-.61-.48,0-.89.16-1.22.49s-.51.76-.55,1.3Z"/>
    <path class="cls-4" d="m105.36,358.96l1.03.15c.04.32.16.55.36.69.26.2.62.29,1.07.29.49,0,.87-.1,1.13-.29s.45-.47.54-.82c.05-.21.08-.67.08-1.35-.46.54-1.04.81-1.72.81-.86,0-1.52-.31-1.99-.93s-.7-1.36-.7-2.22c0-.59.11-1.14.32-1.64s.53-.89.93-1.16.89-.41,1.44-.41c.73,0,1.34.3,1.82.89v-.75h.97v5.38c0,.97-.1,1.66-.3,2.06s-.51.72-.94.96-.95.35-1.58.35c-.74,0-1.34-.17-1.8-.5s-.68-.84-.66-1.51Zm.87-3.74c0,.82.16,1.41.49,1.79s.73.56,1.22.56.89-.19,1.22-.56.49-.96.49-1.75-.17-1.34-.51-1.72-.75-.58-1.22-.58-.87.19-1.2.57-.49.95-.49,1.7Z"/>
    <path class="cls-4" d="m112.21,358.45v-6.22h.95v.94c.24-.44.47-.73.67-.87s.43-.21.68-.21c.36,0,.72.11,1.08.34l-.36.98c-.26-.15-.52-.23-.77-.23-.23,0-.44.07-.62.21s-.31.33-.39.58c-.12.38-.18.79-.18,1.23v3.26h-1.05Z"/>
    <path class="cls-4" d="m120.28,357.68c-.39.33-.77.57-1.13.7s-.75.21-1.16.21c-.68,0-1.21-.17-1.58-.5s-.55-.76-.55-1.28c0-.3.07-.58.21-.83s.32-.45.54-.61.48-.27.76-.35c.21-.05.52-.11.94-.16.85-.1,1.48-.22,1.88-.36,0-.14,0-.24,0-.28,0-.43-.1-.73-.3-.91-.27-.24-.67-.36-1.2-.36-.5,0-.86.09-1.1.26s-.41.48-.52.92l-1.03-.14c.09-.44.25-.8.46-1.07s.53-.48.93-.63.88-.22,1.41-.22.96.06,1.29.19.58.28.73.47.27.43.33.72c.04.18.05.5.05.97v1.41c0,.98.02,1.6.07,1.86s.13.51.27.75h-1.1c-.11-.22-.18-.47-.21-.77Zm-.09-2.36c-.38.16-.96.29-1.72.4-.43.06-.74.13-.92.21s-.32.19-.42.34-.15.32-.15.5c0,.28.11.52.32.7s.52.28.93.28.77-.09,1.08-.27.55-.42.7-.73c.11-.24.17-.59.17-1.05v-.39Z"/>
    <path class="cls-4" d="m125.2,357.5l.15.93c-.3.06-.56.09-.8.09-.38,0-.68-.06-.89-.18s-.36-.28-.45-.48-.13-.61-.13-1.25v-3.58h-.77v-.82h.77v-1.54l1.05-.63v2.17h1.06v.82h-1.06v3.64c0,.3.02.49.06.58s.1.15.18.21.2.08.36.08c.12,0,.27-.01.46-.04Z"/>
    <path class="cls-4" d="m130.49,356.44l1.09.13c-.17.64-.49,1.13-.96,1.48s-1.06.53-1.78.53c-.91,0-1.63-.28-2.17-.84s-.8-1.35-.8-2.36.27-1.86.81-2.44,1.24-.87,2.1-.87,1.51.28,2.04.85.79,1.36.79,2.39c0,.06,0,.16,0,.28h-4.64c.04.68.23,1.21.58,1.57s.78.54,1.3.54c.39,0,.72-.1.99-.3s.49-.53.65-.97Zm-3.46-1.71h3.47c-.05-.52-.18-.92-.4-1.18-.34-.41-.77-.61-1.31-.61-.48,0-.89.16-1.22.49s-.51.76-.55,1.3Z"/>
    <path class="cls-4" d="m136.94,358.45v-.79c-.39.62-.97.93-1.74.93-.5,0-.95-.14-1.37-.41s-.74-.66-.97-1.15-.34-1.05-.34-1.69.1-1.18.31-1.69.52-.89.93-1.16.88-.4,1.39-.4c.38,0,.71.08,1,.24s.53.36.71.62v-3.08h1.05v8.59h-.98Zm-3.33-3.11c0,.8.17,1.39.5,1.79s.73.59,1.19.59.85-.19,1.17-.57.48-.95.48-1.73c0-.85-.16-1.48-.49-1.88s-.73-.6-1.21-.6-.86.19-1.17.57-.47.99-.47,1.81Z"/>
    <path class="cls-4" d="m142.49,356.59l1.04-.16c.06.42.22.74.49.96s.64.33,1.12.33.84-.1,1.08-.3.35-.43.35-.69c0-.24-.1-.43-.31-.56-.14-.09-.5-.21-1.08-.36-.77-.2-1.31-.36-1.61-.51s-.53-.34-.68-.59-.23-.53-.23-.83c0-.28.06-.53.19-.77s.3-.43.52-.59c.16-.12.39-.22.67-.31s.59-.13.91-.13c.49,0,.92.07,1.29.21s.64.33.82.57.3.56.36.96l-1.03.14c-.05-.32-.18-.57-.41-.75s-.54-.27-.95-.27c-.48,0-.83.08-1.04.24s-.31.35-.31.56c0,.14.04.26.13.37.09.11.22.21.4.28.11.04.42.13.93.27.75.2,1.27.36,1.56.49s.53.31.69.55.25.54.25.9-.1.68-.31.99-.5.55-.89.72-.82.25-1.31.25c-.81,0-1.42-.17-1.85-.5s-.69-.83-.81-1.49Z"/>
    <path class="cls-4" d="m153.17,356.44l1.09.13c-.17.64-.49,1.13-.96,1.48s-1.06.53-1.78.53c-.91,0-1.63-.28-2.17-.84s-.8-1.35-.8-2.36.27-1.86.81-2.44,1.24-.87,2.1-.87,1.51.28,2.04.85.79,1.36.79,2.39c0,.06,0,.16,0,.28h-4.64c.04.68.23,1.21.58,1.57s.78.54,1.3.54c.39,0,.72-.1.99-.3s.49-.53.65-.97Zm-3.46-1.71h3.47c-.05-.52-.18-.92-.4-1.18-.34-.41-.77-.61-1.31-.61-.48,0-.89.16-1.22.49s-.51.76-.55,1.3Z"/>
    <path class="cls-4" d="m157.89,357.5l.15.93c-.3.06-.56.09-.8.09-.38,0-.68-.06-.89-.18s-.36-.28-.45-.48-.13-.61-.13-1.25v-3.58h-.77v-.82h.77v-1.54l1.05-.63v2.17h1.06v.82h-1.06v3.64c0,.3.02.49.06.58s.1.15.18.21.2.08.36.08c.12,0,.27-.01.46-.04Z"/>
    <path class="cls-4" d="m161.86,355.34c0-1.15.32-2.01.96-2.56.54-.46,1.19-.69,1.96-.69.86,0,1.55.28,2.1.84s.81,1.33.81,2.32c0,.8-.12,1.43-.36,1.89s-.59.82-1.05,1.07-.96.38-1.5.38c-.87,0-1.58-.28-2.11-.84s-.81-1.36-.81-2.41Zm1.08,0c0,.8.17,1.39.52,1.79s.79.59,1.31.59.96-.2,1.31-.6.52-1.01.52-1.82c0-.77-.17-1.35-.52-1.75s-.78-.59-1.3-.59-.96.2-1.31.59-.52.99-.52,1.79Z"/>
    <path class="cls-4" d="m169.18,358.45v-5.4h-.93v-.82h.93v-.66c0-.42.04-.73.11-.93.1-.27.28-.5.54-.67s.61-.25,1.08-.25c.3,0,.62.04.98.11l-.16.92c-.22-.04-.43-.06-.62-.06-.32,0-.55.07-.68.21s-.2.39-.2.77v.57h1.21v.82h-1.21v5.4h-1.05Z"/>
    <path class="cls-4" d="m175.59,360.83v-8.61h.96v.81c.23-.32.48-.55.77-.71s.63-.24,1.04-.24c.53,0,1,.14,1.41.41s.71.66.92,1.16.31,1.04.31,1.64c0,.64-.11,1.21-.34,1.72s-.56.9-1,1.17-.89.41-1.37.41c-.35,0-.67-.07-.95-.22s-.51-.34-.69-.56v3.03h-1.05Zm.96-5.46c0,.8.16,1.39.49,1.78s.72.57,1.18.57.87-.2,1.2-.59.5-1.01.5-1.84-.16-1.39-.49-1.78-.72-.59-1.17-.59-.85.21-1.19.63-.52,1.03-.52,1.83Z"/>
    <path class="cls-4" d="m186.33,357.68c-.39.33-.77.57-1.13.7s-.75.21-1.16.21c-.68,0-1.21-.17-1.58-.5s-.55-.76-.55-1.28c0-.3.07-.58.21-.83s.32-.45.54-.61.48-.27.76-.35c.21-.05.52-.11.94-.16.85-.1,1.48-.22,1.88-.36,0-.14,0-.24,0-.28,0-.43-.1-.73-.3-.91-.27-.24-.67-.36-1.2-.36-.5,0-.86.09-1.1.26s-.41.48-.52.92l-1.03-.14c.09-.44.25-.8.46-1.07s.53-.48.93-.63.88-.22,1.41-.22.96.06,1.29.19.58.28.73.47.27.43.33.72c.04.18.05.5.05.97v1.41c0,.98.02,1.6.07,1.86s.13.51.27.75h-1.1c-.11-.22-.18-.47-.21-.77Zm-.09-2.36c-.38.16-.96.29-1.72.4-.43.06-.74.13-.92.21s-.32.19-.42.34-.15.32-.15.5c0,.28.11.52.32.7s.52.28.93.28.77-.09,1.08-.27.55-.42.7-.73c.11-.24.17-.59.17-1.05v-.39Z"/>
    <path class="cls-4" d="m191.25,357.5l.15.93c-.3.06-.56.09-.8.09-.38,0-.68-.06-.89-.18s-.36-.28-.45-.48-.13-.61-.13-1.25v-3.58h-.77v-.82h.77v-1.54l1.05-.63v2.17h1.06v.82h-1.06v3.64c0,.3.02.49.06.58s.1.15.18.21.2.08.36.08c.12,0,.27-.01.46-.04Z"/>
    <path class="cls-4" d="m194.58,357.5l.15.93c-.3.06-.56.09-.8.09-.38,0-.68-.06-.89-.18s-.36-.28-.45-.48-.13-.61-.13-1.25v-3.58h-.77v-.82h.77v-1.54l1.05-.63v2.17h1.06v.82h-1.06v3.64c0,.3.02.49.06.58s.1.15.18.21.2.08.36.08c.12,0,.27-.01.46-.04Z"/>
    <path class="cls-4" d="m199.87,356.44l1.09.13c-.17.64-.49,1.13-.96,1.48s-1.06.53-1.78.53c-.91,0-1.63-.28-2.17-.84s-.8-1.35-.8-2.36.27-1.86.81-2.44,1.24-.87,2.1-.87,1.51.28,2.04.85.79,1.36.79,2.39c0,.06,0,.16,0,.28h-4.64c.04.68.23,1.21.58,1.57s.78.54,1.3.54c.39,0,.72-.1.99-.3s.49-.53.65-.97Zm-3.46-1.71h3.47c-.05-.52-.18-.92-.4-1.18-.34-.41-.77-.61-1.31-.61-.48,0-.89.16-1.22.49s-.51.76-.55,1.3Z"/>
    <path class="cls-4" d="m202.27,358.45v-6.22h.95v.94c.24-.44.47-.73.67-.87s.43-.21.68-.21c.36,0,.72.11,1.08.34l-.36.98c-.26-.15-.52-.23-.77-.23-.23,0-.44.07-.62.21s-.31.33-.39.58c-.12.38-.18.79-.18,1.23v3.26h-1.05Z"/>
    <path class="cls-4" d="m206.28,358.45v-6.22h.95v.88c.46-.68,1.12-1.03,1.98-1.03.38,0,.72.07,1.03.2s.55.31.71.53.27.48.33.78c.04.2.06.54.06,1.03v3.83h-1.05v-3.79c0-.43-.04-.75-.12-.96s-.23-.38-.44-.51-.45-.19-.74-.19c-.45,0-.84.14-1.16.43s-.49.83-.49,1.62v3.4h-1.05Z"/>
    <path class="cls-4" d="m212.53,356.59l1.04-.16c.06.42.22.74.49.96s.64.33,1.12.33.84-.1,1.08-.3.35-.43.35-.69c0-.24-.1-.43-.31-.56-.14-.09-.5-.21-1.08-.36-.77-.2-1.31-.36-1.61-.51s-.53-.34-.68-.59-.23-.53-.23-.83c0-.28.06-.53.19-.77s.3-.43.52-.59c.16-.12.39-.22.67-.31s.59-.13.91-.13c.49,0,.92.07,1.29.21s.64.33.82.57.3.56.36.96l-1.03.14c-.05-.32-.18-.57-.41-.75s-.54-.27-.95-.27c-.48,0-.83.08-1.04.24s-.31.35-.31.56c0,.14.04.26.13.37.09.11.22.21.4.28.11.04.42.13.93.27.75.2,1.27.36,1.56.49s.53.31.69.55.25.54.25.9-.1.68-.31.99-.5.55-.89.72-.82.25-1.31.25c-.81,0-1.42-.17-1.85-.5s-.69-.83-.81-1.49Z"/>
    <path class="cls-4" d="m219.25,358.45v-1.2h1.2v1.2h-1.2Z"/>
  </g>
  <text class="cls-2" transform="translate(322.45 171.89)"><tspan x="0" y="0">Patterns evoke a plan</tspan><tspan x="-9.34" y="14.4">(intentions are developed</tspan><tspan x="15.01" y="28.8">through actions)</tspan></text>
  <g>
    <path class="cls-4" d="m562.09,329.65v-8.59h3.24c.57,0,1.01.03,1.31.08.42.07.78.2,1.06.4s.51.47.69.83.26.75.26,1.17c0,.73-.23,1.35-.7,1.85s-1.3.76-2.52.76h-2.2v3.49h-1.14Zm1.14-4.51h2.22c.73,0,1.26-.14,1.56-.41s.46-.66.46-1.15c0-.36-.09-.67-.27-.92s-.42-.42-.72-.51c-.19-.05-.54-.08-1.06-.08h-2.2v3.07Z"/>
    <path class="cls-4" d="m574.02,328.88c-.39.33-.77.57-1.13.7s-.75.21-1.16.21c-.68,0-1.21-.17-1.58-.5s-.55-.76-.55-1.28c0-.3.07-.58.21-.83s.32-.45.54-.61.48-.27.76-.35c.21-.05.52-.11.94-.16.85-.1,1.48-.22,1.88-.36,0-.14,0-.24,0-.28,0-.43-.1-.73-.3-.91-.27-.24-.67-.36-1.2-.36-.5,0-.86.09-1.1.26s-.41.48-.52.92l-1.03-.14c.09-.44.25-.8.46-1.07s.53-.48.93-.63.88-.22,1.41-.22.96.06,1.29.19.58.28.73.47.27.43.33.72c.04.18.05.5.05.97v1.41c0,.98.02,1.6.07,1.86s.13.51.27.75h-1.1c-.11-.22-.18-.47-.21-.77Zm-.09-2.36c-.38.16-.96.29-1.72.4-.43.06-.74.13-.92.21s-.32.19-.42.34-.15.32-.15.5c0,.28.11.52.32.7s.52.28.93.28.77-.09,1.08-.27.55-.42.7-.73c.11-.24.17-.59.17-1.05v-.39Z"/>
    <path class="cls-4" d="m578.93,328.7l.15.93c-.3.06-.56.09-.8.09-.38,0-.68-.06-.89-.18s-.36-.28-.45-.48-.13-.61-.13-1.25v-3.58h-.77v-.82h.77v-1.54l1.05-.63v2.17h1.06v.82h-1.06v3.64c0,.3.02.49.06.58s.1.15.18.21.2.08.36.08c.12,0,.27-.01.46-.04Z"/>
    <path class="cls-4" d="m582.27,328.7l.15.93c-.3.06-.56.09-.8.09-.38,0-.68-.06-.89-.18s-.36-.28-.45-.48-.13-.61-.13-1.25v-3.58h-.77v-.82h.77v-1.54l1.05-.63v2.17h1.06v.82h-1.06v3.64c0,.3.02.49.06.58s.1.15.18.21.2.08.36.08c.12,0,.27-.01.46-.04Z"/>
    <path class="cls-4" d="m587.56,327.64l1.09.13c-.17.64-.49,1.13-.96,1.48s-1.06.53-1.78.53c-.91,0-1.63-.28-2.17-.84s-.8-1.35-.8-2.36.27-1.86.81-2.44,1.24-.87,2.1-.87,1.51.28,2.04.85.79,1.36.79,2.39c0,.06,0,.16,0,.28h-4.64c.04.68.23,1.21.58,1.57s.78.54,1.3.54c.39,0,.72-.1.99-.3s.49-.53.65-.97Zm-3.46-1.71h3.47c-.05-.52-.18-.92-.4-1.18-.34-.41-.77-.61-1.31-.61-.48,0-.89.16-1.22.49s-.51.76-.55,1.3Z"/>
    <path class="cls-4" d="m589.96,329.65v-6.22h.95v.94c.24-.44.47-.73.67-.87s.43-.21.68-.21c.36,0,.72.11,1.08.34l-.36.98c-.26-.15-.52-.23-.77-.23-.23,0-.44.07-.62.21s-.31.33-.39.58c-.12.38-.18.79-.18,1.23v3.26h-1.05Z"/>
    <path class="cls-4" d="m593.97,329.65v-6.22h.95v.88c.46-.68,1.12-1.03,1.98-1.03.38,0,.72.07,1.03.2s.55.31.71.53.27.48.33.78c.04.2.06.54.06,1.03v3.83h-1.05v-3.79c0-.43-.04-.75-.12-.96s-.23-.38-.44-.51-.45-.19-.74-.19c-.45,0-.84.14-1.16.43s-.49.83-.49,1.62v3.4h-1.05Z"/>
    <path class="cls-4" d="m600.22,327.79l1.04-.16c.06.42.22.74.49.96s.64.33,1.12.33.84-.1,1.08-.3.35-.43.35-.69c0-.24-.1-.43-.31-.56-.14-.09-.5-.21-1.08-.36-.77-.2-1.31-.36-1.61-.51s-.53-.34-.68-.59-.23-.53-.23-.83c0-.28.06-.53.19-.77s.3-.43.52-.59c.16-.12.39-.22.67-.31s.59-.13.91-.13c.49,0,.92.07,1.29.21s.64.33.82.57.3.56.36.96l-1.03.14c-.05-.32-.18-.57-.41-.75s-.54-.27-.95-.27c-.48,0-.83.08-1.04.24s-.31.35-.31.56c0,.14.04.26.13.37.09.11.22.21.4.28.11.04.42.13.93.27.75.2,1.27.36,1.56.49s.53.31.69.55.25.54.25.9-.1.68-.31.99-.5.55-.89.72-.82.25-1.31.25c-.81,0-1.42-.17-1.85-.5s-.69-.83-.81-1.49Z"/>
    <path class="cls-4" d="m609.78,330.16l1.03.15c.04.32.16.55.36.69.26.2.62.29,1.07.29.49,0,.87-.1,1.13-.29s.45-.47.54-.82c.05-.21.08-.67.08-1.35-.46.54-1.04.81-1.72.81-.86,0-1.52-.31-1.99-.93s-.7-1.36-.7-2.22c0-.59.11-1.14.32-1.64s.53-.89.93-1.16.89-.41,1.44-.41c.73,0,1.34.3,1.82.89v-.75h.97v5.38c0,.97-.1,1.66-.3,2.06s-.51.72-.94.96-.95.35-1.58.35c-.74,0-1.34-.17-1.8-.5s-.68-.84-.66-1.51Zm.87-3.74c0,.82.16,1.41.49,1.79s.73.56,1.22.56.89-.19,1.22-.56.49-.96.49-1.75-.17-1.34-.51-1.72-.75-.58-1.22-.58-.87.19-1.2.57-.49.95-.49,1.7Z"/>
    <path class="cls-4" d="m616.66,322.27v-1.21h1.05v1.21h-1.05Zm0,7.38v-6.22h1.05v6.22h-1.05Z"/>
    <path class="cls-4" d="m621.04,329.65l-2.37-6.22h1.11l1.34,3.73c.14.4.28.82.4,1.25.09-.33.22-.72.39-1.18l1.38-3.8h1.08l-2.36,6.22h-.98Z"/>
    <path class="cls-4" d="m629.58,327.64l1.09.13c-.17.64-.49,1.13-.96,1.48s-1.06.53-1.78.53c-.91,0-1.63-.28-2.17-.84s-.8-1.35-.8-2.36.27-1.86.81-2.44,1.24-.87,2.1-.87,1.51.28,2.04.85.79,1.36.79,2.39c0,.06,0,.16,0,.28h-4.64c.04.68.23,1.21.58,1.57s.78.54,1.3.54c.39,0,.72-.1.99-.3s.49-.53.65-.97Zm-3.46-1.71h3.47c-.05-.52-.18-.92-.4-1.18-.34-.41-.77-.61-1.31-.61-.48,0-.89.16-1.22.49s-.51.76-.55,1.3Z"/>
    <path class="cls-4" d="m635.31,329.65v-6.22h.95v.94c.24-.44.47-.73.67-.87s.43-.21.68-.21c.36,0,.72.11,1.08.34l-.36.98c-.26-.15-.52-.23-.77-.23-.23,0-.44.07-.62.21s-.31.33-.39.58c-.12.38-.18.79-.18,1.23v3.26h-1.05Z"/>
    <path class="cls-4" d="m639.33,322.27v-1.21h1.05v1.21h-1.05Zm0,7.38v-6.22h1.05v6.22h-1.05Z"/>
    <path class="cls-4" d="m641.56,327.79l1.04-.16c.06.42.22.74.49.96s.64.33,1.12.33.84-.1,1.08-.3.35-.43.35-.69c0-.24-.1-.43-.31-.56-.14-.09-.5-.21-1.08-.36-.77-.2-1.31-.36-1.61-.51s-.53-.34-.68-.59-.23-.53-.23-.83c0-.28.06-.53.19-.77s.3-.43.52-.59c.16-.12.39-.22.67-.31s.59-.13.91-.13c.49,0,.92.07,1.29.21s.64.33.82.57.3.56.36.96l-1.03.14c-.05-.32-.18-.57-.41-.75s-.54-.27-.95-.27c-.48,0-.83.08-1.04.24s-.31.35-.31.56c0,.14.04.26.13.37.09.11.22.21.4.28.11.04.42.13.93.27.75.2,1.27.36,1.56.49s.53.31.69.55.25.54.25.9-.1.68-.31.99-.5.55-.89.72-.82.25-1.31.25c-.81,0-1.42-.17-1.85-.5s-.69-.83-.81-1.49Z"/>
    <path class="cls-4" d="m652.25,327.64l1.09.13c-.17.64-.49,1.13-.96,1.48s-1.06.53-1.78.53c-.91,0-1.63-.28-2.17-.84s-.8-1.35-.8-2.36.27-1.86.81-2.44,1.24-.87,2.1-.87,1.51.28,2.04.85.79,1.36.79,2.39c0,.06,0,.16,0,.28h-4.64c.04.68.23,1.21.58,1.57s.78.54,1.3.54c.39,0,.72-.1.99-.3s.49-.53.65-.97Zm-3.46-1.71h3.47c-.05-.52-.18-.92-.4-1.18-.34-.41-.77-.61-1.31-.61-.48,0-.89.16-1.22.49s-.51.76-.55,1.3Z"/>
    <path class="cls-4" d="m566.58,343.1l.15.93c-.3.06-.56.09-.8.09-.38,0-.68-.06-.89-.18s-.36-.28-.45-.48-.13-.61-.13-1.25v-3.58h-.77v-.82h.77v-1.54l1.05-.63v2.17h1.06v.82h-1.06v3.64c0,.3.02.49.06.58s.1.15.18.21.2.08.36.08c.12,0,.27-.01.46-.04Z"/>
    <path class="cls-4" d="m567.22,340.94c0-1.15.32-2.01.96-2.56.54-.46,1.19-.69,1.96-.69.86,0,1.55.28,2.1.84s.81,1.33.81,2.32c0,.8-.12,1.43-.36,1.89s-.59.82-1.05,1.07-.96.38-1.5.38c-.87,0-1.58-.28-2.11-.84s-.81-1.36-.81-2.41Zm1.08,0c0,.8.17,1.39.52,1.79s.79.59,1.31.59.96-.2,1.31-.6.52-1.01.52-1.82c0-.77-.17-1.35-.52-1.75s-.78-.59-1.3-.59-.96.2-1.31.59-.52.99-.52,1.79Z"/>
    <path class="cls-4" d="m581.68,343.28c-.39.33-.77.57-1.13.7s-.75.21-1.16.21c-.68,0-1.21-.17-1.58-.5s-.55-.76-.55-1.28c0-.3.07-.58.21-.83s.32-.45.54-.61.48-.27.76-.35c.21-.05.52-.11.94-.16.85-.1,1.48-.22,1.88-.36,0-.14,0-.24,0-.28,0-.43-.1-.73-.3-.91-.27-.24-.67-.36-1.2-.36-.5,0-.86.09-1.1.26s-.41.48-.52.92l-1.03-.14c.09-.44.25-.8.46-1.07s.53-.48.93-.63.88-.22,1.41-.22.96.06,1.29.19.58.28.73.47.27.43.33.72c.04.18.05.5.05.97v1.41c0,.98.02,1.6.07,1.86s.13.51.27.75h-1.1c-.11-.22-.18-.47-.21-.77Zm-.09-2.36c-.38.16-.96.29-1.72.4-.43.06-.74.13-.92.21s-.32.19-.42.34-.15.32-.15.5c0,.28.11.52.32.7s.52.28.93.28.77-.09,1.08-.27.55-.42.7-.73c.11-.24.17-.59.17-1.05v-.39Z"/>
    <path class="cls-4" d="m587.63,346.43v-8.61h.96v.81c.23-.32.48-.55.77-.71s.63-.24,1.04-.24c.53,0,1,.14,1.41.41s.71.66.92,1.16.31,1.04.31,1.64c0,.64-.11,1.21-.34,1.72s-.56.9-1,1.17-.89.41-1.37.41c-.35,0-.67-.07-.95-.22s-.51-.34-.69-.56v3.03h-1.05Zm.96-5.46c0,.8.16,1.39.49,1.78s.72.57,1.18.57.87-.2,1.2-.59.5-1.01.5-1.84-.16-1.39-.49-1.78-.72-.59-1.17-.59-.85.21-1.19.63-.52,1.03-.52,1.83Z"/>
    <path class="cls-4" d="m598.56,342.04l1.09.13c-.17.64-.49,1.13-.96,1.48s-1.06.53-1.78.53c-.91,0-1.63-.28-2.17-.84s-.8-1.35-.8-2.36.27-1.86.81-2.44,1.24-.87,2.1-.87,1.51.28,2.04.85.79,1.36.79,2.39c0,.06,0,.16,0,.28h-4.64c.04.68.23,1.21.58,1.57s.78.54,1.3.54c.39,0,.72-.1.99-.3s.49-.53.65-.97Zm-3.46-1.71h3.47c-.05-.52-.18-.92-.4-1.18-.34-.41-.77-.61-1.31-.61-.48,0-.89.16-1.22.49s-.51.76-.55,1.3Z"/>
    <path class="cls-4" d="m600.97,344.05v-6.22h.95v.94c.24-.44.47-.73.67-.87s.43-.21.68-.21c.36,0,.72.11,1.08.34l-.36.98c-.26-.15-.52-.23-.77-.23-.23,0-.44.07-.62.21s-.31.33-.39.58c-.12.38-.18.79-.18,1.23v3.26h-1.05Z"/>
    <path class="cls-4" d="m604.55,342.19l1.04-.16c.06.42.22.74.49.96s.64.33,1.12.33.84-.1,1.08-.3.35-.43.35-.69c0-.24-.1-.43-.31-.56-.14-.09-.5-.21-1.08-.36-.77-.2-1.31-.36-1.61-.51s-.53-.34-.68-.59-.23-.53-.23-.83c0-.28.06-.53.19-.77s.3-.43.52-.59c.16-.12.39-.22.67-.31s.59-.13.91-.13c.49,0,.92.07,1.29.21s.64.33.82.57.3.56.36.96l-1.03.14c-.05-.32-.18-.57-.41-.75s-.54-.27-.95-.27c-.48,0-.83.08-1.04.24s-.31.35-.31.56c0,.14.04.26.13.37.09.11.22.21.4.28.11.04.42.13.93.27.75.2,1.27.36,1.56.49s.53.31.69.55.25.54.25.9-.1.68-.31.99-.5.55-.89.72-.82.25-1.31.25c-.81,0-1.42-.17-1.85-.5s-.69-.83-.81-1.49Z"/>
    <path class="cls-4" d="m610.98,346.43v-8.61h.96v.81c.23-.32.48-.55.77-.71s.63-.24,1.04-.24c.53,0,1,.14,1.41.41s.71.66.92,1.16.31,1.04.31,1.64c0,.64-.11,1.21-.34,1.72s-.56.9-1,1.17-.89.41-1.37.41c-.35,0-.67-.07-.95-.22s-.51-.34-.69-.56v3.03h-1.05Zm.96-5.46c0,.8.16,1.39.49,1.78s.72.57,1.18.57.87-.2,1.2-.59.5-1.01.5-1.84-.16-1.39-.49-1.78-.72-.59-1.17-.59-.85.21-1.19.63-.52,1.03-.52,1.83Z"/>
    <path class="cls-4" d="m619.95,343.1l.15.93c-.3.06-.56.09-.8.09-.38,0-.68-.06-.89-.18s-.36-.28-.45-.48-.13-.61-.13-1.25v-3.58h-.77v-.82h.77v-1.54l1.05-.63v2.17h1.06v.82h-1.06v3.64c0,.3.02.49.06.58s.1.15.18.21.2.08.36.08c.12,0,.27-.01.46-.04Z"/>
    <path class="cls-4" d="m625.24,342.04l1.09.13c-.17.64-.49,1.13-.96,1.48s-1.06.53-1.78.53c-.91,0-1.63-.28-2.17-.84s-.8-1.35-.8-2.36.27-1.86.81-2.44,1.24-.87,2.1-.87,1.51.28,2.04.85.79,1.36.79,2.39c0,.06,0,.16,0,.28h-4.64c.04.68.23,1.21.58,1.57s.78.54,1.3.54c.39,0,.72-.1.99-.3s.49-.53.65-.97Zm-3.46-1.71h3.47c-.05-.52-.18-.92-.4-1.18-.34-.41-.77-.61-1.31-.61-.48,0-.89.16-1.22.49s-.51.76-.55,1.3Z"/>
    <path class="cls-4" d="m631.72,341.77l1.04.13c-.11.71-.4,1.27-.87,1.68s-1.04.61-1.72.61c-.85,0-1.54-.28-2.05-.83s-.78-1.35-.78-2.39c0-.67.11-1.26.33-1.76s.56-.88,1.02-1.13.95-.38,1.49-.38c.68,0,1.23.17,1.66.51s.71.83.83,1.46l-1.03.16c-.1-.42-.27-.73-.52-.94s-.55-.32-.9-.32c-.53,0-.96.19-1.29.57s-.5.98-.5,1.81.16,1.44.48,1.82.74.57,1.25.57c.41,0,.76-.13,1.04-.38s.45-.64.53-1.17Z"/>
    <path class="cls-4" d="m635.96,343.1l.15.93c-.3.06-.56.09-.8.09-.38,0-.68-.06-.89-.18s-.36-.28-.45-.48-.13-.61-.13-1.25v-3.58h-.77v-.82h.77v-1.54l1.05-.63v2.17h1.06v.82h-1.06v3.64c0,.3.02.49.06.58s.1.15.18.21.2.08.36.08c.12,0,.27-.01.46-.04Z"/>
    <path class="cls-4" d="m637,336.67v-1.21h1.05v1.21h-1.05Zm0,7.38v-6.22h1.05v6.22h-1.05Z"/>
    <path class="cls-4" d="m641.39,344.05l-2.37-6.22h1.11l1.34,3.73c.14.4.28.82.4,1.25.09-.33.22-.72.39-1.18l1.38-3.8h1.08l-2.36,6.22h-.98Z"/>
    <path class="cls-4" d="m649.92,342.04l1.09.13c-.17.64-.49,1.13-.96,1.48s-1.06.53-1.78.53c-.91,0-1.63-.28-2.17-.84s-.8-1.35-.8-2.36.27-1.86.81-2.44,1.24-.87,2.1-.87,1.51.28,2.04.85.79,1.36.79,2.39c0,.06,0,.16,0,.28h-4.64c.04.68.23,1.21.58,1.57s.78.54,1.3.54c.39,0,.72-.1.99-.3s.49-.53.65-.97Zm-3.46-1.71h3.47c-.05-.52-.18-.92-.4-1.18-.34-.41-.77-.61-1.31-.61-.48,0-.89.16-1.22.49s-.51.76-.55,1.3Z"/>
    <path class="cls-4" d="m566.64,360.97c-.58-.73-1.07-1.59-1.48-2.58s-.6-2-.6-3.06c0-.93.15-1.82.45-2.67.35-.99.89-1.97,1.63-2.95h.76c-.47.81-.79,1.39-.94,1.74-.24.54-.43,1.1-.56,1.69-.17.73-.25,1.46-.25,2.2,0,1.88.58,3.76,1.75,5.63h-.76Z"/>
    <path class="cls-4" d="m572.68,357.68c-.39.33-.77.57-1.13.7s-.75.21-1.16.21c-.68,0-1.21-.17-1.58-.5s-.55-.76-.55-1.28c0-.3.07-.58.21-.83s.32-.45.54-.61.48-.27.76-.35c.21-.05.52-.11.94-.16.85-.1,1.48-.22,1.88-.36,0-.14,0-.24,0-.28,0-.43-.1-.73-.3-.91-.27-.24-.67-.36-1.2-.36-.5,0-.86.09-1.1.26s-.41.48-.52.92l-1.03-.14c.09-.44.25-.8.46-1.07s.53-.48.93-.63.88-.22,1.41-.22.96.06,1.29.19.58.28.73.47.27.43.33.72c.04.18.05.5.05.97v1.41c0,.98.02,1.6.07,1.86s.13.51.27.75h-1.1c-.11-.22-.18-.47-.21-.77Zm-.09-2.36c-.38.16-.96.29-1.72.4-.43.06-.74.13-.92.21s-.32.19-.42.34-.15.32-.15.5c0,.28.11.52.32.7s.52.28.93.28.77-.09,1.08-.27.55-.42.7-.73c.11-.24.17-.59.17-1.05v-.39Z"/>
    <path class="cls-4" d="m578.63,360.83v-8.61h.96v.81c.23-.32.48-.55.77-.71s.63-.24,1.04-.24c.53,0,1,.14,1.41.41s.71.66.92,1.16.31,1.04.31,1.64c0,.64-.11,1.21-.34,1.72s-.56.9-1,1.17-.89.41-1.37.41c-.35,0-.67-.07-.95-.22s-.51-.34-.69-.56v3.03h-1.05Zm.96-5.46c0,.8.16,1.39.49,1.78s.72.57,1.18.57.87-.2,1.2-.59.5-1.01.5-1.84-.16-1.39-.49-1.78-.72-.59-1.17-.59-.85.21-1.19.63-.52,1.03-.52,1.83Z"/>
    <path class="cls-4" d="m589.56,356.44l1.09.13c-.17.64-.49,1.13-.96,1.48s-1.06.53-1.78.53c-.91,0-1.63-.28-2.17-.84s-.8-1.35-.8-2.36.27-1.86.81-2.44,1.24-.87,2.1-.87,1.51.28,2.04.85.79,1.36.79,2.39c0,.06,0,.16,0,.28h-4.64c.04.68.23,1.21.58,1.57s.78.54,1.3.54c.39,0,.72-.1.99-.3s.49-.53.65-.97Zm-3.46-1.71h3.47c-.05-.52-.18-.92-.4-1.18-.34-.41-.77-.61-1.31-.61-.48,0-.89.16-1.22.49s-.51.76-.55,1.3Z"/>
    <path class="cls-4" d="m591.96,358.45v-6.22h.95v.94c.24-.44.47-.73.67-.87s.43-.21.68-.21c.36,0,.72.11,1.08.34l-.36.98c-.26-.15-.52-.23-.77-.23-.23,0-.44.07-.62.21s-.31.33-.39.58c-.12.38-.18.79-.18,1.23v3.26h-1.05Z"/>
    <path class="cls-4" d="m595.55,356.59l1.04-.16c.06.42.22.74.49.96s.64.33,1.12.33.84-.1,1.08-.3.35-.43.35-.69c0-.24-.1-.43-.31-.56-.14-.09-.5-.21-1.08-.36-.77-.2-1.31-.36-1.61-.51s-.53-.34-.68-.59-.23-.53-.23-.83c0-.28.06-.53.19-.77s.3-.43.52-.59c.16-.12.39-.22.67-.31s.59-.13.91-.13c.49,0,.92.07,1.29.21s.64.33.82.57.3.56.36.96l-1.03.14c-.05-.32-.18-.57-.41-.75s-.54-.27-.95-.27c-.48,0-.83.08-1.04.24s-.31.35-.31.56c0,.14.04.26.13.37.09.11.22.21.4.28.11.04.42.13.93.27.75.2,1.27.36,1.56.49s.53.31.69.55.25.54.25.9-.1.68-.31.99-.5.55-.89.72-.82.25-1.31.25c-.81,0-1.42-.17-1.85-.5s-.69-.83-.81-1.49Z"/>
    <path class="cls-4" d="m601.97,360.83v-8.61h.96v.81c.23-.32.48-.55.77-.71s.63-.24,1.04-.24c.53,0,1,.14,1.41.41s.71.66.92,1.16.31,1.04.31,1.64c0,.64-.11,1.21-.34,1.72s-.56.9-1,1.17-.89.41-1.37.41c-.35,0-.67-.07-.95-.22s-.51-.34-.69-.56v3.03h-1.05Zm.96-5.46c0,.8.16,1.39.49,1.78s.72.57,1.18.57.87-.2,1.2-.59.5-1.01.5-1.84-.16-1.39-.49-1.78-.72-.59-1.17-.59-.85.21-1.19.63-.52,1.03-.52,1.83Z"/>
    <path class="cls-4" d="m612.9,356.44l1.09.13c-.17.64-.49,1.13-.96,1.48s-1.06.53-1.78.53c-.91,0-1.63-.28-2.17-.84s-.8-1.35-.8-2.36.27-1.86.81-2.44,1.24-.87,2.1-.87,1.51.28,2.04.85.79,1.36.79,2.39c0,.06,0,.16,0,.28h-4.64c.04.68.23,1.21.58,1.57s.78.54,1.3.54c.39,0,.72-.1.99-.3s.49-.53.65-.97Zm-3.46-1.71h3.47c-.05-.52-.18-.92-.4-1.18-.34-.41-.77-.61-1.31-.61-.48,0-.89.16-1.22.49s-.51.76-.55,1.3Z"/>
    <path class="cls-4" d="m619.38,356.17l1.04.13c-.11.71-.4,1.27-.87,1.68s-1.04.61-1.72.61c-.85,0-1.54-.28-2.05-.83s-.78-1.35-.78-2.39c0-.67.11-1.26.33-1.76s.56-.88,1.02-1.13.95-.38,1.49-.38c.68,0,1.23.17,1.66.51s.71.83.83,1.46l-1.03.16c-.1-.42-.27-.73-.52-.94s-.55-.32-.9-.32c-.53,0-.96.19-1.29.57s-.5.98-.5,1.81.16,1.44.48,1.82.74.57,1.25.57c.41,0,.76-.13,1.04-.38s.45-.64.53-1.17Z"/>
    <path class="cls-4" d="m623.62,357.5l.15.93c-.3.06-.56.09-.8.09-.38,0-.68-.06-.89-.18s-.36-.28-.45-.48-.13-.61-.13-1.25v-3.58h-.77v-.82h.77v-1.54l1.05-.63v2.17h1.06v.82h-1.06v3.64c0,.3.02.49.06.58s.1.15.18.21.2.08.36.08c.12,0,.27-.01.46-.04Z"/>
    <path class="cls-4" d="m624.66,351.07v-1.21h1.05v1.21h-1.05Zm0,7.38v-6.22h1.05v6.22h-1.05Z"/>
    <path class="cls-4" d="m629.05,358.45l-2.37-6.22h1.11l1.34,3.73c.14.4.28.82.4,1.25.09-.33.22-.72.39-1.18l1.38-3.8h1.08l-2.36,6.22h-.98Z"/>
    <path class="cls-4" d="m637.58,356.44l1.09.13c-.17.64-.49,1.13-.96,1.48s-1.06.53-1.78.53c-.91,0-1.63-.28-2.17-.84s-.8-1.35-.8-2.36.27-1.86.81-2.44,1.24-.87,2.1-.87,1.51.28,2.04.85.79,1.36.79,2.39c0,.06,0,.16,0,.28h-4.64c.04.68.23,1.21.58,1.57s.78.54,1.3.54c.39,0,.72-.1.99-.3s.49-.53.65-.97Zm-3.46-1.71h3.47c-.05-.52-.18-.92-.4-1.18-.34-.41-.77-.61-1.31-.61-.48,0-.89.16-1.22.49s-.51.76-.55,1.3Z"/>
    <path class="cls-4" d="m643.33,351.07v-1.21h1.05v1.21h-1.05Zm0,7.38v-6.22h1.05v6.22h-1.05Z"/>
    <path class="cls-4" d="m645.57,356.59l1.04-.16c.06.42.22.74.49.96s.64.33,1.12.33.84-.1,1.08-.3.35-.43.35-.69c0-.24-.1-.43-.31-.56-.14-.09-.5-.21-1.08-.36-.77-.2-1.31-.36-1.61-.51s-.53-.34-.68-.59-.23-.53-.23-.83c0-.28.06-.53.19-.77s.3-.43.52-.59c.16-.12.39-.22.67-.31s.59-.13.91-.13c.49,0,.92.07,1.29.21s.64.33.82.57.3.56.36.96l-1.03.14c-.05-.32-.18-.57-.41-.75s-.54-.27-.95-.27c-.48,0-.83.08-1.04.24s-.31.35-.31.56c0,.14.04.26.13.37.09.11.22.21.4.28.11.04.42.13.93.27.75.2,1.27.36,1.56.49s.53.31.69.55.25.54.25.9-.1.68-.31.99-.5.55-.89.72-.82.25-1.31.25c-.81,0-1.42-.17-1.85-.5s-.69-.83-.81-1.49Z"/>
    <path class="cls-4" d="m558.66,370.57l1.04.13c-.11.71-.4,1.27-.87,1.68s-1.04.61-1.72.61c-.85,0-1.54-.28-2.05-.83s-.78-1.35-.78-2.39c0-.67.11-1.26.33-1.76s.56-.88,1.02-1.13.95-.38,1.49-.38c.68,0,1.23.17,1.66.51s.71.83.83,1.46l-1.03.16c-.1-.42-.27-.73-.52-.94s-.55-.32-.9-.32c-.53,0-.96.19-1.29.57s-.5.98-.5,1.81.16,1.44.48,1.82.74.57,1.25.57c.41,0,.76-.13,1.04-.38s.45-.64.53-1.17Z"/>
    <path class="cls-4" d="m560.21,369.74c0-1.15.32-2.01.96-2.56.54-.46,1.19-.69,1.96-.69.86,0,1.55.28,2.1.84s.81,1.33.81,2.32c0,.8-.12,1.43-.36,1.89s-.59.82-1.05,1.07-.96.38-1.5.38c-.87,0-1.58-.28-2.11-.84s-.81-1.36-.81-2.41Zm1.08,0c0,.8.17,1.39.52,1.79s.79.59,1.31.59.96-.2,1.31-.6.52-1.01.52-1.82c0-.77-.17-1.35-.52-1.75s-.78-.59-1.3-.59-.96.2-1.31.59-.52.99-.52,1.79Z"/>
    <path class="cls-4" d="m567.28,372.85v-6.22h.95v.88c.46-.68,1.12-1.03,1.98-1.03.38,0,.72.07,1.03.2s.55.31.71.53.27.48.33.78c.04.2.06.54.06,1.03v3.83h-1.05v-3.79c0-.43-.04-.75-.12-.96s-.23-.38-.44-.51-.45-.19-.74-.19c-.45,0-.84.14-1.16.43s-.49.83-.49,1.62v3.4h-1.05Z"/>
    <path class="cls-4" d="m573.53,370.99l1.04-.16c.06.42.22.74.49.96s.64.33,1.12.33.84-.1,1.08-.3.35-.43.35-.69c0-.24-.1-.43-.31-.56-.14-.09-.5-.21-1.08-.36-.77-.2-1.31-.36-1.61-.51s-.53-.34-.68-.59-.23-.53-.23-.83c0-.28.06-.53.19-.77s.3-.43.52-.59c.16-.12.39-.22.67-.31s.59-.13.91-.13c.49,0,.92.07,1.29.21s.64.33.82.57.3.56.36.96l-1.03.14c-.05-.32-.18-.57-.41-.75s-.54-.27-.95-.27c-.48,0-.83.08-1.04.24s-.31.35-.31.56c0,.14.04.26.13.37.09.11.22.21.4.28.11.04.42.13.93.27.75.2,1.27.36,1.56.49s.53.31.69.55.25.54.25.9-.1.68-.31.99-.5.55-.89.72-.82.25-1.31.25c-.81,0-1.42-.17-1.85-.5s-.69-.83-.81-1.49Z"/>
    <path class="cls-4" d="m579.56,369.74c0-1.15.32-2.01.96-2.56.54-.46,1.19-.69,1.96-.69.86,0,1.55.28,2.1.84s.81,1.33.81,2.32c0,.8-.12,1.43-.36,1.89s-.59.82-1.05,1.07-.96.38-1.5.38c-.87,0-1.58-.28-2.11-.84s-.81-1.36-.81-2.41Zm1.08,0c0,.8.17,1.39.52,1.79s.79.59,1.31.59.96-.2,1.31-.6.52-1.01.52-1.82c0-.77-.17-1.35-.52-1.75s-.78-.59-1.3-.59-.96.2-1.31.59-.52.99-.52,1.79Z"/>
    <path class="cls-4" d="m586.6,372.85v-8.59h1.05v8.59h-1.05Z"/>
    <path class="cls-4" d="m589.3,365.47v-1.21h1.05v1.21h-1.05Zm0,7.38v-6.22h1.05v6.22h-1.05Z"/>
    <path class="cls-4" d="m595.99,372.85v-.79c-.39.62-.97.93-1.74.93-.5,0-.95-.14-1.37-.41s-.74-.66-.97-1.15-.34-1.05-.34-1.69.1-1.18.31-1.69.52-.89.93-1.16.88-.4,1.39-.4c.38,0,.71.08,1,.24s.53.36.71.62v-3.08h1.05v8.59h-.98Zm-3.33-3.11c0,.8.17,1.39.5,1.79s.73.59,1.19.59.85-.19,1.17-.57.48-.95.48-1.73c0-.85-.16-1.48-.49-1.88s-.73-.6-1.21-.6-.86.19-1.17.57-.47.99-.47,1.81Z"/>
    <path class="cls-4" d="m602.69,372.08c-.39.33-.77.57-1.13.7s-.75.21-1.16.21c-.68,0-1.21-.17-1.58-.5s-.55-.76-.55-1.28c0-.3.07-.58.21-.83s.32-.45.54-.61.48-.27.76-.35c.21-.05.52-.11.94-.16.85-.1,1.48-.22,1.88-.36,0-.14,0-.24,0-.28,0-.43-.1-.73-.3-.91-.27-.24-.67-.36-1.2-.36-.5,0-.86.09-1.1.26s-.41.48-.52.92l-1.03-.14c.09-.44.25-.8.46-1.07s.53-.48.93-.63.88-.22,1.41-.22.96.06,1.29.19.58.28.73.47.27.43.33.72c.04.18.05.5.05.97v1.41c0,.98.02,1.6.07,1.86s.13.51.27.75h-1.1c-.11-.22-.18-.47-.21-.77Zm-.09-2.36c-.38.16-.96.29-1.72.4-.43.06-.74.13-.92.21s-.32.19-.42.34-.15.32-.15.5c0,.28.11.52.32.7s.52.28.93.28.77-.09,1.08-.27.55-.42.7-.73c.11-.24.17-.59.17-1.05v-.39Z"/>
    <path class="cls-4" d="m607.61,371.9l.15.93c-.3.06-.56.09-.8.09-.38,0-.68-.06-.89-.18s-.36-.28-.45-.48-.13-.61-.13-1.25v-3.58h-.77v-.82h.77v-1.54l1.05-.63v2.17h1.06v.82h-1.06v3.64c0,.3.02.49.06.58s.1.15.18.21.2.08.36.08c.12,0,.27-.01.46-.04Z"/>
    <path class="cls-4" d="m612.9,370.84l1.09.13c-.17.64-.49,1.13-.96,1.48s-1.06.53-1.78.53c-.91,0-1.63-.28-2.17-.84s-.8-1.35-.8-2.36.27-1.86.81-2.44,1.24-.87,2.1-.87,1.51.28,2.04.85.79,1.36.79,2.39c0,.06,0,.16,0,.28h-4.64c.04.68.23,1.21.58,1.57s.78.54,1.3.54c.39,0,.72-.1.99-.3s.49-.53.65-.97Zm-3.46-1.71h3.47c-.05-.52-.18-.92-.4-1.18-.34-.41-.77-.61-1.31-.61-.48,0-.89.16-1.22.49s-.51.76-.55,1.3Z"/>
    <path class="cls-4" d="m614.89,370.99l1.04-.16c.06.42.22.74.49.96s.64.33,1.12.33.84-.1,1.08-.3.35-.43.35-.69c0-.24-.1-.43-.31-.56-.14-.09-.5-.21-1.08-.36-.77-.2-1.31-.36-1.61-.51s-.53-.34-.68-.59-.23-.53-.23-.83c0-.28.06-.53.19-.77s.3-.43.52-.59c.16-.12.39-.22.67-.31s.59-.13.91-.13c.49,0,.92.07,1.29.21s.64.33.82.57.3.56.36.96l-1.03.14c-.05-.32-.18-.57-.41-.75s-.54-.27-.95-.27c-.48,0-.83.08-1.04.24s-.31.35-.31.56c0,.14.04.26.13.37.09.11.22.21.4.28.11.04.42.13.93.27.75.2,1.27.36,1.56.49s.53.31.69.55.25.54.25.9-.1.68-.31.99-.5.55-.89.72-.82.25-1.31.25c-.81,0-1.42-.17-1.85-.5s-.69-.83-.81-1.49Z"/>
    <path class="cls-4" d="m628.71,372.08c-.39.33-.77.57-1.13.7s-.75.21-1.16.21c-.68,0-1.21-.17-1.58-.5s-.55-.76-.55-1.28c0-.3.07-.58.21-.83s.32-.45.54-.61.48-.27.76-.35c.21-.05.52-.11.94-.16.85-.1,1.48-.22,1.88-.36,0-.14,0-.24,0-.28,0-.43-.1-.73-.3-.91-.27-.24-.67-.36-1.2-.36-.5,0-.86.09-1.1.26s-.41.48-.52.92l-1.03-.14c.09-.44.25-.8.46-1.07s.53-.48.93-.63.88-.22,1.41-.22.96.06,1.29.19.58.28.73.47.27.43.33.72c.04.18.05.5.05.97v1.41c0,.98.02,1.6.07,1.86s.13.51.27.75h-1.1c-.11-.22-.18-.47-.21-.77Zm-.09-2.36c-.38.16-.96.29-1.72.4-.43.06-.74.13-.92.21s-.32.19-.42.34-.15.32-.15.5c0,.28.11.52.32.7s.52.28.93.28.77-.09,1.08-.27.55-.42.7-.73c.11-.24.17-.59.17-1.05v-.39Z"/>
    <path class="cls-4" d="m631.31,372.85v-6.22h.95v.94c.24-.44.47-.73.67-.87s.43-.21.68-.21c.36,0,.72.11,1.08.34l-.36.98c-.26-.15-.52-.23-.77-.23-.23,0-.44.07-.62.21s-.31.33-.39.58c-.12.38-.18.79-.18,1.23v3.26h-1.05Z"/>
    <path class="cls-4" d="m634.92,369.74c0-1.15.32-2.01.96-2.56.54-.46,1.19-.69,1.96-.69.86,0,1.55.28,2.1.84s.81,1.33.81,2.32c0,.8-.12,1.43-.36,1.89s-.59.82-1.05,1.07-.96.38-1.5.38c-.87,0-1.58-.28-2.11-.84s-.81-1.36-.81-2.41Zm1.08,0c0,.8.17,1.39.52,1.79s.79.59,1.31.59.96-.2,1.31-.6.52-1.01.52-1.82c0-.77-.17-1.35-.52-1.75s-.78-.59-1.3-.59-.96.2-1.31.59-.52.99-.52,1.79Z"/>
    <path class="cls-4" d="m646.07,372.85v-.91c-.48.7-1.14,1.05-1.97,1.05-.37,0-.71-.07-1.03-.21s-.55-.32-.71-.53-.26-.47-.33-.78c-.04-.21-.06-.54-.06-.98v-3.86h1.05v3.45c0,.55.02.92.06,1.11.07.28.21.5.42.65s.48.24.8.24.61-.08.89-.24.47-.38.59-.66.17-.68.17-1.22v-3.33h1.05v6.22h-.94Z"/>
    <path class="cls-4" d="m648.66,372.85v-6.22h.95v.88c.46-.68,1.12-1.03,1.98-1.03.38,0,.72.07,1.03.2s.55.31.71.53.27.48.33.78c.04.2.06.54.06,1.03v3.83h-1.05v-3.79c0-.43-.04-.75-.12-.96s-.23-.38-.44-.51-.45-.19-.74-.19c-.45,0-.84.14-1.16.43s-.49.83-.49,1.62v3.4h-1.05Z"/>
    <path class="cls-4" d="m659.37,372.85v-.79c-.39.62-.97.93-1.74.93-.5,0-.95-.14-1.37-.41s-.74-.66-.97-1.15-.34-1.05-.34-1.69.1-1.18.31-1.69.52-.89.93-1.16.88-.4,1.39-.4c.38,0,.71.08,1,.24s.53.36.71.62v-3.08h1.05v8.59h-.98Zm-3.33-3.11c0,.8.17,1.39.5,1.79s.73.59,1.19.59.85-.19,1.17-.57.48-.95.48-1.73c0-.85-.16-1.48-.49-1.88s-.73-.6-1.21-.6-.86.19-1.17.57-.47.99-.47,1.81Z"/>
    <path class="cls-4" d="m573.77,387.25l-1.9-6.22h1.09l.99,3.59.37,1.34c.02-.07.12-.49.32-1.28l.99-3.64h1.08l.93,3.61.31,1.19.36-1.2,1.07-3.6h1.03l-1.95,6.22h-1.1l-.99-3.73-.24-1.06-1.26,4.79h-1.1Z"/>
    <path class="cls-4" d="m581.29,387.25v-8.59h1.05v3.08c.49-.57,1.11-.86,1.86-.86.46,0,.86.09,1.2.27s.58.43.73.75.22.79.22,1.39v3.94h-1.05v-3.94c0-.53-.11-.91-.34-1.15s-.55-.36-.97-.36c-.31,0-.61.08-.88.24s-.47.38-.59.66-.18.66-.18,1.15v3.4h-1.05Z"/>
    <path class="cls-4" d="m592.03,386.48c-.39.33-.77.57-1.13.7s-.75.21-1.16.21c-.68,0-1.21-.17-1.58-.5s-.55-.76-.55-1.28c0-.3.07-.58.21-.83s.32-.45.54-.61.48-.27.76-.35c.21-.05.52-.11.94-.16.85-.1,1.48-.22,1.88-.36,0-.14,0-.24,0-.28,0-.43-.1-.73-.3-.91-.27-.24-.67-.36-1.2-.36-.5,0-.86.09-1.1.26s-.41.48-.52.92l-1.03-.14c.09-.44.25-.8.46-1.07s.53-.48.93-.63.88-.22,1.41-.22.96.06,1.29.19.58.28.73.47.27.43.33.72c.04.18.05.5.05.97v1.41c0,.98.02,1.6.07,1.86s.13.51.27.75h-1.1c-.11-.22-.18-.47-.21-.77Zm-.09-2.36c-.38.16-.96.29-1.72.4-.43.06-.74.13-.92.21s-.32.19-.42.34-.15.32-.15.5c0,.28.11.52.32.7s.52.28.93.28.77-.09,1.08-.27.55-.42.7-.73c.11-.24.17-.59.17-1.05v-.39Z"/>
    <path class="cls-4" d="m596.94,386.3l.15.93c-.3.06-.56.09-.8.09-.38,0-.68-.06-.89-.18s-.36-.28-.45-.48-.13-.61-.13-1.25v-3.58h-.77v-.82h.77v-1.54l1.05-.63v2.17h1.06v.82h-1.06v3.64c0,.3.02.49.06.58s.1.15.18.21.2.08.36.08c.12,0,.27-.01.46-.04Z"/>
    <path class="cls-4" d="m602.46,387.25l-1.9-6.22h1.09l.99,3.59.37,1.34c.02-.07.12-.49.32-1.28l.99-3.64h1.08l.93,3.61.31,1.19.36-1.2,1.07-3.6h1.03l-1.95,6.22h-1.1l-.99-3.73-.24-1.06-1.26,4.79h-1.1Z"/>
    <path class="cls-4" d="m609.58,384.14c0-1.15.32-2.01.96-2.56.54-.46,1.19-.69,1.96-.69.86,0,1.55.28,2.1.84s.81,1.33.81,2.32c0,.8-.12,1.43-.36,1.89s-.59.82-1.05,1.07-.96.38-1.5.38c-.87,0-1.58-.28-2.11-.84s-.81-1.36-.81-2.41Zm1.08,0c0,.8.17,1.39.52,1.79s.79.59,1.31.59.96-.2,1.31-.6.52-1.01.52-1.82c0-.77-.17-1.35-.52-1.75s-.78-.59-1.3-.59-.96.2-1.31.59-.52.99-.52,1.79Z"/>
    <path class="cls-4" d="m616.64,387.25v-6.22h.95v.94c.24-.44.47-.73.67-.87s.43-.21.68-.21c.36,0,.72.11,1.08.34l-.36.98c-.26-.15-.52-.23-.77-.23-.23,0-.44.07-.62.21s-.31.33-.39.58c-.12.38-.18.79-.18,1.23v3.26h-1.05Z"/>
    <path class="cls-4" d="m620.65,387.25v-8.59h1.05v4.9l2.5-2.53h1.37l-2.38,2.31,2.62,3.91h-1.3l-2.06-3.18-.74.71v2.47h-1.05Z"/>
    <path class="cls-4" d="m630.9,385.24l1.09.13c-.17.64-.49,1.13-.96,1.48s-1.06.53-1.78.53c-.91,0-1.63-.28-2.17-.84s-.8-1.35-.8-2.36.27-1.86.81-2.44,1.24-.87,2.1-.87,1.51.28,2.04.85.79,1.36.79,2.39c0,.06,0,.16,0,.28h-4.64c.04.68.23,1.21.58,1.57s.78.54,1.3.54c.39,0,.72-.1.99-.3s.49-.53.65-.97Zm-3.46-1.71h3.47c-.05-.52-.18-.92-.4-1.18-.34-.41-.77-.61-1.31-.61-.48,0-.89.16-1.22.49s-.51.76-.55,1.3Z"/>
    <path class="cls-4" d="m637.35,387.25v-.79c-.39.62-.97.93-1.74.93-.5,0-.95-.14-1.37-.41s-.74-.66-.97-1.15-.34-1.05-.34-1.69.1-1.18.31-1.69.52-.89.93-1.16.88-.4,1.39-.4c.38,0,.71.08,1,.24s.53.36.71.62v-3.08h1.05v8.59h-.98Zm-3.33-3.11c0,.8.17,1.39.5,1.79s.73.59,1.19.59.85-.19,1.17-.57.48-.95.48-1.73c0-.85-.16-1.48-.49-1.88s-.73-.6-1.21-.6-.86.19-1.17.57-.47.99-.47,1.81Z"/>
    <path class="cls-4" d="m640.68,389.77h-.76c1.17-1.88,1.75-3.75,1.75-5.63,0-.73-.08-1.46-.25-2.19-.13-.59-.32-1.15-.56-1.69-.15-.35-.47-.94-.94-1.76h.76c.73.98,1.28,1.96,1.63,2.95.3.85.45,1.74.45,2.67,0,1.05-.2,2.07-.61,3.06s-.9,1.84-1.47,2.58Z"/>
  </g>
  <g>
    <path class="cls-4" d="m769.19,174.42c-.58-.73-1.07-1.59-1.48-2.58s-.6-2-.6-3.06c0-.93.15-1.82.45-2.67.35-.99.89-1.97,1.63-2.95h.76c-.47.81-.79,1.39-.94,1.74-.24.54-.43,1.1-.56,1.69-.17.73-.25,1.46-.25,2.2,0,1.88.58,3.76,1.75,5.63h-.76Z"/>
    <path class="cls-4" d="m771.5,171.89v-8.59h1.14v8.59h-1.14Z"/>
    <path class="cls-4" d="m774.51,171.89v-6.22h.94v.87c.2-.3.46-.55.78-.74s.69-.28,1.11-.28c.46,0,.84.1,1.13.29s.5.46.62.8c.49-.73,1.13-1.09,1.92-1.09.62,0,1.09.17,1.42.51s.5.87.5,1.58v4.27h-1.05v-3.92c0-.42-.03-.73-.1-.91s-.19-.33-.37-.45-.39-.17-.63-.17c-.44,0-.8.15-1.09.44s-.43.76-.43,1.4v3.62h-1.05v-4.04c0-.47-.09-.82-.26-1.05s-.45-.35-.84-.35c-.3,0-.57.08-.82.23s-.43.38-.55.69-.17.73-.17,1.3v3.23h-1.05Z"/>
    <path class="cls-4" d="m784.5,171.89v-6.22h.94v.87c.2-.3.46-.55.78-.74s.69-.28,1.11-.28c.46,0,.84.1,1.13.29s.5.46.62.8c.49-.73,1.13-1.09,1.92-1.09.62,0,1.09.17,1.42.51s.5.87.5,1.58v4.27h-1.05v-3.92c0-.42-.03-.73-.1-.91s-.19-.33-.37-.45-.39-.17-.63-.17c-.44,0-.8.15-1.09.44s-.43.76-.43,1.4v3.62h-1.05v-4.04c0-.47-.09-.82-.26-1.05s-.45-.35-.84-.35c-.3,0-.57.08-.82.23s-.43.38-.55.69-.17.73-.17,1.3v3.23h-1.05Z"/>
    <path class="cls-4" d="m798.58,171.89v-.91c-.48.7-1.14,1.05-1.97,1.05-.37,0-.71-.07-1.03-.21s-.55-.32-.71-.53-.26-.47-.33-.78c-.04-.21-.06-.54-.06-.98v-3.86h1.05v3.45c0,.55.02.92.06,1.11.07.28.21.5.42.65s.48.24.8.24.61-.08.89-.24.47-.38.59-.66.17-.68.17-1.22v-3.33h1.05v6.22h-.94Z"/>
    <path class="cls-4" d="m803.48,170.95l.15.93c-.3.06-.56.09-.8.09-.38,0-.68-.06-.89-.18s-.36-.28-.45-.48-.13-.61-.13-1.25v-3.58h-.77v-.82h.77v-1.54l1.05-.63v2.17h1.06v.82h-1.06v3.64c0,.3.02.49.06.58s.1.15.18.21.2.08.36.08c.12,0,.27-.01.46-.04Z"/>
    <path class="cls-4" d="m808.57,171.12c-.39.33-.77.57-1.13.7s-.75.21-1.16.21c-.68,0-1.21-.17-1.58-.5s-.55-.76-.55-1.28c0-.3.07-.58.21-.83s.32-.45.54-.61.48-.27.76-.35c.21-.05.52-.11.94-.16.85-.1,1.48-.22,1.88-.36,0-.14,0-.24,0-.28,0-.43-.1-.73-.3-.91-.27-.24-.67-.36-1.2-.36-.5,0-.86.09-1.1.26s-.41.48-.52.92l-1.03-.14c.09-.44.25-.8.46-1.07s.53-.48.93-.63.88-.22,1.41-.22.96.06,1.29.19.58.28.73.47.27.43.33.72c.04.18.05.5.05.97v1.41c0,.98.02,1.6.07,1.86s.13.51.27.75h-1.1c-.11-.22-.18-.47-.21-.77Zm-.09-2.36c-.38.16-.96.29-1.72.4-.43.06-.74.13-.92.21s-.32.19-.42.34-.15.32-.15.5c0,.28.11.52.32.7s.52.28.93.28.77-.09,1.08-.27.55-.42.7-.73c.11-.24.17-.59.17-1.05v-.39Z"/>
    <path class="cls-4" d="m812.15,171.89h-.98v-8.59h1.05v3.06c.45-.56,1.01-.84,1.71-.84.38,0,.75.08,1.09.23s.62.37.84.65.39.62.52,1.01.19.82.19,1.27c0,1.07-.26,1.89-.79,2.47s-1.16.87-1.9.87-1.31-.31-1.73-.92v.78Zm-.01-3.16c0,.75.1,1.29.3,1.62.33.54.78.81,1.35.81.46,0,.86-.2,1.2-.6s.5-1,.5-1.79-.16-1.41-.48-1.8-.71-.58-1.17-.58-.86.2-1.2.6-.5.98-.5,1.74Z"/>
    <path class="cls-4" d="m817.83,171.89v-8.59h1.05v8.59h-1.05Z"/>
    <path class="cls-4" d="m824.78,169.89l1.09.13c-.17.64-.49,1.13-.96,1.48s-1.06.53-1.78.53c-.91,0-1.63-.28-2.17-.84s-.8-1.35-.8-2.36.27-1.86.81-2.44,1.24-.87,2.1-.87,1.51.28,2.04.85.79,1.36.79,2.39c0,.06,0,.16,0,.28h-4.64c.04.68.23,1.21.58,1.57s.78.54,1.3.54c.39,0,.72-.1.99-.3s.49-.53.65-.97Zm-3.46-1.71h3.47c-.05-.52-.18-.92-.4-1.18-.34-.41-.77-.61-1.31-.61-.48,0-.89.16-1.22.49s-.51.76-.55,1.3Z"/>
    <path class="cls-4" d="m827.89,174.42h-.76c1.17-1.88,1.75-3.75,1.75-5.63,0-.73-.08-1.46-.25-2.19-.13-.59-.32-1.15-.56-1.69-.15-.35-.47-.94-.94-1.76h.76c.73.98,1.28,1.96,1.63,2.95.3.85.45,1.74.45,2.67,0,1.05-.2,2.07-.61,3.06s-.9,1.84-1.47,2.58Z"/>
    <path class="cls-4" d="m834.52,174.28v-8.61h.96v.81c.23-.32.48-.55.77-.71s.63-.24,1.04-.24c.53,0,1,.14,1.41.41s.71.66.92,1.16.31,1.04.31,1.64c0,.64-.11,1.21-.34,1.72s-.56.9-1,1.17-.89.41-1.37.41c-.35,0-.67-.07-.95-.22s-.51-.34-.69-.56v3.03h-1.05Zm.96-5.46c0,.8.16,1.39.49,1.78s.72.57,1.18.57.87-.2,1.2-.59.5-1.01.5-1.84-.16-1.39-.49-1.78-.72-.59-1.17-.59-.85.21-1.19.63-.52,1.03-.52,1.83Z"/>
    <path class="cls-4" d="m845.46,169.89l1.09.13c-.17.64-.49,1.13-.96,1.48s-1.06.53-1.78.53c-.91,0-1.63-.28-2.17-.84s-.8-1.35-.8-2.36.27-1.86.81-2.44,1.24-.87,2.1-.87,1.51.28,2.04.85.79,1.36.79,2.39c0,.06,0,.16,0,.28h-4.64c.04.68.23,1.21.58,1.57s.78.54,1.3.54c.39,0,.72-.1.99-.3s.49-.53.65-.97Zm-3.46-1.71h3.47c-.05-.52-.18-.92-.4-1.18-.34-.41-.77-.61-1.31-.61-.48,0-.89.16-1.22.49s-.51.76-.55,1.3Z"/>
    <path class="cls-4" d="m847.86,171.89v-6.22h.95v.94c.24-.44.47-.73.67-.87s.43-.21.68-.21c.36,0,.72.11,1.08.34l-.36.98c-.26-.15-.52-.23-.77-.23-.23,0-.44.07-.62.21s-.31.33-.39.58c-.12.38-.18.79-.18,1.23v3.26h-1.05Z"/>
    <path class="cls-4" d="m851.45,170.04l1.04-.16c.06.42.22.74.49.96s.64.33,1.12.33.84-.1,1.08-.3.35-.43.35-.69c0-.24-.1-.43-.31-.56-.14-.09-.5-.21-1.08-.36-.77-.2-1.31-.36-1.61-.51s-.53-.34-.68-.59-.23-.53-.23-.83c0-.28.06-.53.19-.77s.3-.43.52-.59c.16-.12.39-.22.67-.31s.59-.13.91-.13c.49,0,.92.07,1.29.21s.64.33.82.57.3.56.36.96l-1.03.14c-.05-.32-.18-.57-.41-.75s-.54-.27-.95-.27c-.48,0-.83.08-1.04.24s-.31.35-.31.56c0,.14.04.26.13.37.09.11.22.21.4.28.11.04.42.13.93.27.75.2,1.27.36,1.56.49s.53.31.69.55.25.54.25.9-.1.68-.31.99-.5.55-.89.72-.82.25-1.31.25c-.81,0-1.42-.17-1.85-.5s-.69-.83-.81-1.49Z"/>
    <path class="cls-4" d="m857.87,174.28v-8.61h.96v.81c.23-.32.48-.55.77-.71s.63-.24,1.04-.24c.53,0,1,.14,1.41.41s.71.66.92,1.16.31,1.04.31,1.64c0,.64-.11,1.21-.34,1.72s-.56.9-1,1.17-.89.41-1.37.41c-.35,0-.67-.07-.95-.22s-.51-.34-.69-.56v3.03h-1.05Zm.96-5.46c0,.8.16,1.39.49,1.78s.72.57,1.18.57.87-.2,1.2-.59.5-1.01.5-1.84-.16-1.39-.49-1.78-.72-.59-1.17-.59-.85.21-1.19.63-.52,1.03-.52,1.83Z"/>
    <path class="cls-4" d="m868.8,169.89l1.09.13c-.17.64-.49,1.13-.96,1.48s-1.06.53-1.78.53c-.91,0-1.63-.28-2.17-.84s-.8-1.35-.8-2.36.27-1.86.81-2.44,1.24-.87,2.1-.87,1.51.28,2.04.85.79,1.36.79,2.39c0,.06,0,.16,0,.28h-4.64c.04.68.23,1.21.58,1.57s.78.54,1.3.54c.39,0,.72-.1.99-.3s.49-.53.65-.97Zm-3.46-1.71h3.47c-.05-.52-.18-.92-.4-1.18-.34-.41-.77-.61-1.31-.61-.48,0-.89.16-1.22.49s-.51.76-.55,1.3Z"/>
    <path class="cls-4" d="m875.28,169.61l1.04.13c-.11.71-.4,1.27-.87,1.68s-1.04.61-1.72.61c-.85,0-1.54-.28-2.05-.83s-.78-1.35-.78-2.39c0-.67.11-1.26.33-1.76s.56-.88,1.02-1.13.95-.38,1.49-.38c.68,0,1.23.17,1.66.51s.71.83.83,1.46l-1.03.16c-.1-.42-.27-.73-.52-.94s-.55-.32-.9-.32c-.53,0-.96.19-1.29.57s-.5.98-.5,1.81.16,1.44.48,1.82.74.57,1.25.57c.41,0,.76-.13,1.04-.38s.45-.64.53-1.17Z"/>
    <path class="cls-4" d="m879.52,170.95l.15.93c-.3.06-.56.09-.8.09-.38,0-.68-.06-.89-.18s-.36-.28-.45-.48-.13-.61-.13-1.25v-3.58h-.77v-.82h.77v-1.54l1.05-.63v2.17h1.06v.82h-1.06v3.64c0,.3.02.49.06.58s.1.15.18.21.2.08.36.08c.12,0,.27-.01.46-.04Z"/>
    <path class="cls-4" d="m880.56,164.52v-1.21h1.05v1.21h-1.05Zm0,7.38v-6.22h1.05v6.22h-1.05Z"/>
    <path class="cls-4" d="m884.94,171.89l-2.37-6.22h1.11l1.34,3.73c.14.4.28.82.4,1.25.09-.33.22-.72.39-1.18l1.38-3.8h1.08l-2.36,6.22h-.98Z"/>
    <path class="cls-4" d="m893.48,169.89l1.09.13c-.17.64-.49,1.13-.96,1.48s-1.06.53-1.78.53c-.91,0-1.63-.28-2.17-.84s-.8-1.35-.8-2.36.27-1.86.81-2.44,1.24-.87,2.1-.87,1.51.28,2.04.85.79,1.36.79,2.39c0,.06,0,.16,0,.28h-4.64c.04.68.23,1.21.58,1.57s.78.54,1.3.54c.39,0,.72-.1.99-.3s.49-.53.65-.97Zm-3.46-1.71h3.47c-.05-.52-.18-.92-.4-1.18-.34-.41-.77-.61-1.31-.61-.48,0-.89.16-1.22.49s-.51.76-.55,1.3Z"/>
    <path class="cls-4" d="m895.47,170.04l1.04-.16c.06.42.22.74.49.96s.64.33,1.12.33.84-.1,1.08-.3.35-.43.35-.69c0-.24-.1-.43-.31-.56-.14-.09-.5-.21-1.08-.36-.77-.2-1.31-.36-1.61-.51s-.53-.34-.68-.59-.23-.53-.23-.83c0-.28.06-.53.19-.77s.3-.43.52-.59c.16-.12.39-.22.67-.31s.59-.13.91-.13c.49,0,.92.07,1.29.21s.64.33.82.57.3.56.36.96l-1.03.14c-.05-.32-.18-.57-.41-.75s-.54-.27-.95-.27c-.48,0-.83.08-1.04.24s-.31.35-.31.56c0,.14.04.26.13.37.09.11.22.21.4.28.11.04.42.13.93.27.75.2,1.27.36,1.56.49s.53.31.69.55.25.54.25.9-.1.68-.31.99-.5.55-.89.72-.82.25-1.31.25c-.81,0-1.42-.17-1.85-.5s-.69-.83-.81-1.49Z"/>
    <path class="cls-4" d="m764.22,184.01l1.04.13c-.11.71-.4,1.27-.87,1.68s-1.04.61-1.72.61c-.85,0-1.54-.28-2.05-.83s-.78-1.35-.78-2.39c0-.67.11-1.26.33-1.76s.56-.88,1.02-1.13.95-.38,1.49-.38c.68,0,1.23.17,1.66.51s.71.83.83,1.46l-1.03.16c-.1-.42-.27-.73-.52-.94s-.55-.32-.9-.32c-.53,0-.96.19-1.29.57s-.5.98-.5,1.81.16,1.44.48,1.82.74.57,1.25.57c.41,0,.76-.13,1.04-.38s.45-.64.53-1.17Z"/>
    <path class="cls-4" d="m765.77,183.18c0-1.15.32-2.01.96-2.56.54-.46,1.19-.69,1.96-.69.86,0,1.55.28,2.1.84s.81,1.33.81,2.32c0,.8-.12,1.43-.36,1.89s-.59.82-1.05,1.07-.96.38-1.5.38c-.87,0-1.58-.28-2.11-.84s-.81-1.36-.81-2.41Zm1.08,0c0,.8.17,1.39.52,1.79s.79.59,1.31.59.96-.2,1.31-.6.52-1.01.52-1.82c0-.77-.17-1.35-.52-1.75s-.78-.59-1.3-.59-.96.2-1.31.59-.52.99-.52,1.79Z"/>
    <path class="cls-4" d="m772.83,186.29v-6.22h.94v.87c.2-.3.46-.55.78-.74s.69-.28,1.11-.28c.46,0,.84.1,1.13.29s.5.46.62.8c.49-.73,1.13-1.09,1.92-1.09.62,0,1.09.17,1.42.51s.5.87.5,1.58v4.27h-1.05v-3.92c0-.42-.03-.73-.1-.91s-.19-.33-.37-.45-.39-.17-.63-.17c-.44,0-.8.15-1.09.44s-.43.76-.43,1.4v3.62h-1.05v-4.04c0-.47-.09-.82-.26-1.05s-.45-.35-.84-.35c-.3,0-.57.08-.82.23s-.43.38-.55.69-.17.73-.17,1.3v3.23h-1.05Z"/>
    <path class="cls-4" d="m782.83,188.68v-8.61h.96v.81c.23-.32.48-.55.77-.71s.63-.24,1.04-.24c.53,0,1,.14,1.41.41s.71.66.92,1.16.31,1.04.31,1.64c0,.64-.11,1.21-.34,1.72s-.56.9-1,1.17-.89.41-1.37.41c-.35,0-.67-.07-.95-.22s-.51-.34-.69-.56v3.03h-1.05Zm.96-5.46c0,.8.16,1.39.49,1.78s.72.57,1.18.57.87-.2,1.2-.59.5-1.01.5-1.84-.16-1.39-.49-1.78-.72-.59-1.17-.59-.85.21-1.19.63-.52,1.03-.52,1.83Z"/>
    <path class="cls-4" d="m789.48,186.29v-8.59h1.05v8.59h-1.05Z"/>
    <path class="cls-4" d="m792.17,178.92v-1.21h1.05v1.21h-1.05Zm0,7.38v-6.22h1.05v6.22h-1.05Z"/>
    <path class="cls-4" d="m798.89,184.01l1.04.13c-.11.71-.4,1.27-.87,1.68s-1.04.61-1.72.61c-.85,0-1.54-.28-2.05-.83s-.78-1.35-.78-2.39c0-.67.11-1.26.33-1.76s.56-.88,1.02-1.13.95-.38,1.49-.38c.68,0,1.23.17,1.66.51s.71.83.83,1.46l-1.03.16c-.1-.42-.27-.73-.52-.94s-.55-.32-.9-.32c-.53,0-.96.19-1.29.57s-.5.98-.5,1.81.16,1.44.48,1.82.74.57,1.25.57c.41,0,.76-.13,1.04-.38s.45-.64.53-1.17Z"/>
    <path class="cls-4" d="m804.89,185.52c-.39.33-.77.57-1.13.7s-.75.21-1.16.21c-.68,0-1.21-.17-1.58-.5s-.55-.76-.55-1.28c0-.3.07-.58.21-.83s.32-.45.54-.61.48-.27.76-.35c.21-.05.52-.11.94-.16.85-.1,1.48-.22,1.88-.36,0-.14,0-.24,0-.28,0-.43-.1-.73-.3-.91-.27-.24-.67-.36-1.2-.36-.5,0-.86.09-1.1.26s-.41.48-.52.92l-1.03-.14c.09-.44.25-.8.46-1.07s.53-.48.93-.63.88-.22,1.41-.22.96.06,1.29.19.58.28.73.47.27.43.33.72c.04.18.05.5.05.97v1.41c0,.98.02,1.6.07,1.86s.13.51.27.75h-1.1c-.11-.22-.18-.47-.21-.77Zm-.09-2.36c-.38.16-.96.29-1.72.4-.43.06-.74.13-.92.21s-.32.19-.42.34-.15.32-.15.5c0,.28.11.52.32.7s.52.28.93.28.77-.09,1.08-.27.55-.42.7-.73c.11-.24.17-.59.17-1.05v-.39Z"/>
    <path class="cls-4" d="m809.81,185.35l.15.93c-.3.06-.56.09-.8.09-.38,0-.68-.06-.89-.18s-.36-.28-.45-.48-.13-.61-.13-1.25v-3.58h-.77v-.82h.77v-1.54l1.05-.63v2.17h1.06v.82h-1.06v3.64c0,.3.02.49.06.58s.1.15.18.21.2.08.36.08c.12,0,.27-.01.46-.04Z"/>
    <path class="cls-4" d="m815.1,184.29l1.09.13c-.17.64-.49,1.13-.96,1.48s-1.06.53-1.78.53c-.91,0-1.63-.28-2.17-.84s-.8-1.35-.8-2.36.27-1.86.81-2.44,1.24-.87,2.1-.87,1.51.28,2.04.85.79,1.36.79,2.39c0,.06,0,.16,0,.28h-4.64c.04.68.23,1.21.58,1.57s.78.54,1.3.54c.39,0,.72-.1.99-.3s.49-.53.65-.97Zm-3.46-1.71h3.47c-.05-.52-.18-.92-.4-1.18-.34-.41-.77-.61-1.31-.61-.48,0-.89.16-1.22.49s-.51.76-.55,1.3Z"/>
    <path class="cls-4" d="m816.72,186.44l2.49-8.88h.84l-2.48,8.88h-.85Z"/>
    <path class="cls-4" d="m820.85,178.92v-1.21h1.05v1.21h-1.05Zm0,7.38v-6.22h1.05v6.22h-1.05Z"/>
    <path class="cls-4" d="m823.52,186.29v-6.22h.94v.87c.2-.3.46-.55.78-.74s.69-.28,1.11-.28c.46,0,.84.1,1.13.29s.5.46.62.8c.49-.73,1.13-1.09,1.92-1.09.62,0,1.09.17,1.42.51s.5.87.5,1.58v4.27h-1.05v-3.92c0-.42-.03-.73-.1-.91s-.19-.33-.37-.45-.39-.17-.63-.17c-.44,0-.8.15-1.09.44s-.43.76-.43,1.4v3.62h-1.05v-4.04c0-.47-.09-.82-.26-1.05s-.45-.35-.84-.35c-.3,0-.57.08-.82.23s-.43.38-.55.69-.17.73-.17,1.3v3.23h-1.05Z"/>
    <path class="cls-4" d="m833.51,188.68v-8.61h.96v.81c.23-.32.48-.55.77-.71s.63-.24,1.04-.24c.53,0,1,.14,1.41.41s.71.66.92,1.16.31,1.04.31,1.64c0,.64-.11,1.21-.34,1.72s-.56.9-1,1.17-.89.41-1.37.41c-.35,0-.67-.07-.95-.22s-.51-.34-.69-.56v3.03h-1.05Zm.96-5.46c0,.8.16,1.39.49,1.78s.72.57,1.18.57.87-.2,1.2-.59.5-1.01.5-1.84-.16-1.39-.49-1.78-.72-.59-1.17-.59-.85.21-1.19.63-.52,1.03-.52,1.83Z"/>
    <path class="cls-4" d="m844.44,184.29l1.09.13c-.17.64-.49,1.13-.96,1.48s-1.06.53-1.78.53c-.91,0-1.63-.28-2.17-.84s-.8-1.35-.8-2.36.27-1.86.81-2.44,1.24-.87,2.1-.87,1.51.28,2.04.85.79,1.36.79,2.39c0,.06,0,.16,0,.28h-4.64c.04.68.23,1.21.58,1.57s.78.54,1.3.54c.39,0,.72-.1.99-.3s.49-.53.65-.97Zm-3.46-1.71h3.47c-.05-.52-.18-.92-.4-1.18-.34-.41-.77-.61-1.31-.61-.48,0-.89.16-1.22.49s-.51.76-.55,1.3Z"/>
    <path class="cls-4" d="m850.9,186.29v-.79c-.39.62-.97.93-1.74.93-.5,0-.95-.14-1.37-.41s-.74-.66-.97-1.15-.34-1.05-.34-1.69.1-1.18.31-1.69.52-.89.93-1.16.88-.4,1.39-.4c.38,0,.71.08,1,.24s.53.36.71.62v-3.08h1.05v8.59h-.98Zm-3.33-3.11c0,.8.17,1.39.5,1.79s.73.59,1.19.59.85-.19,1.17-.57.48-.95.48-1.73c0-.85-.16-1.48-.49-1.88s-.73-.6-1.21-.6-.86.19-1.17.57-.47.99-.47,1.81Z"/>
    <path class="cls-4" d="m857.79,184.29l1.09.13c-.17.64-.49,1.13-.96,1.48s-1.06.53-1.78.53c-.91,0-1.63-.28-2.17-.84s-.8-1.35-.8-2.36.27-1.86.81-2.44,1.24-.87,2.1-.87,1.51.28,2.04.85.79,1.36.79,2.39c0,.06,0,.16,0,.28h-4.64c.04.68.23,1.21.58,1.57s.78.54,1.3.54c.39,0,.72-.1.99-.3s.49-.53.65-.97Zm-3.46-1.71h3.47c-.05-.52-.18-.92-.4-1.18-.34-.41-.77-.61-1.31-.61-.48,0-.89.16-1.22.49s-.51.76-.55,1.3Z"/>
    <path class="cls-4" d="m867.6,184.01l1.04.13c-.11.71-.4,1.27-.87,1.68s-1.04.61-1.72.61c-.85,0-1.54-.28-2.05-.83s-.78-1.35-.78-2.39c0-.67.11-1.26.33-1.76s.56-.88,1.02-1.13.95-.38,1.49-.38c.68,0,1.23.17,1.66.51s.71.83.83,1.46l-1.03.16c-.1-.42-.27-.73-.52-.94s-.55-.32-.9-.32c-.53,0-.96.19-1.29.57s-.5.98-.5,1.81.16,1.44.48,1.82.74.57,1.25.57c.41,0,.76-.13,1.04-.38s.45-.64.53-1.17Z"/>
    <path class="cls-4" d="m869.54,186.29v-8.59h1.05v3.08c.49-.57,1.11-.86,1.86-.86.46,0,.86.09,1.2.27s.58.43.73.75.22.79.22,1.39v3.94h-1.05v-3.94c0-.53-.11-.91-.34-1.15s-.55-.36-.97-.36c-.31,0-.61.08-.88.24s-.47.38-.59.66-.18.66-.18,1.15v3.4h-1.05Z"/>
    <path class="cls-4" d="m880.27,185.52c-.39.33-.77.57-1.13.7s-.75.21-1.16.21c-.68,0-1.21-.17-1.58-.5s-.55-.76-.55-1.28c0-.3.07-.58.21-.83s.32-.45.54-.61.48-.27.76-.35c.21-.05.52-.11.94-.16.85-.1,1.48-.22,1.88-.36,0-.14,0-.24,0-.28,0-.43-.1-.73-.3-.91-.27-.24-.67-.36-1.2-.36-.5,0-.86.09-1.1.26s-.41.48-.52.92l-1.03-.14c.09-.44.25-.8.46-1.07s.53-.48.93-.63.88-.22,1.41-.22.96.06,1.29.19.58.28.73.47.27.43.33.72c.04.18.05.5.05.97v1.41c0,.98.02,1.6.07,1.86s.13.51.27.75h-1.1c-.11-.22-.18-.47-.21-.77Zm-.09-2.36c-.38.16-.96.29-1.72.4-.43.06-.74.13-.92.21s-.32.19-.42.34-.15.32-.15.5c0,.28.11.52.32.7s.52.28.93.28.77-.09,1.08-.27.55-.42.7-.73c.11-.24.17-.59.17-1.05v-.39Z"/>
    <path class="cls-4" d="m882.89,186.29v-6.22h.95v.88c.46-.68,1.12-1.03,1.98-1.03.38,0,.72.07,1.03.2s.55.31.71.53.27.48.33.78c.04.2.06.54.06,1.03v3.83h-1.05v-3.79c0-.43-.04-.75-.12-.96s-.23-.38-.44-.51-.45-.19-.74-.19c-.45,0-.84.14-1.16.43s-.49.83-.49,1.62v3.4h-1.05Z"/>
    <path class="cls-4" d="m889.37,186.81l1.03.15c.04.32.16.55.36.69.26.2.62.29,1.07.29.49,0,.87-.1,1.13-.29s.45-.47.54-.82c.05-.21.08-.67.08-1.35-.46.54-1.04.81-1.72.81-.86,0-1.52-.31-1.99-.93s-.7-1.36-.7-2.22c0-.59.11-1.14.32-1.64s.53-.89.93-1.16.89-.41,1.44-.41c.73,0,1.34.3,1.82.89v-.75h.97v5.38c0,.97-.1,1.66-.3,2.06s-.51.72-.94.96-.95.35-1.58.35c-.74,0-1.34-.17-1.8-.5s-.68-.84-.66-1.51Zm.87-3.74c0,.82.16,1.41.49,1.79s.73.56,1.22.56.89-.19,1.22-.56.49-.96.49-1.75-.17-1.34-.51-1.72-.75-.58-1.22-.58-.87.19-1.2.57-.49.95-.49,1.7Z"/>
    <path class="cls-4" d="m900.5,184.29l1.09.13c-.17.64-.49,1.13-.96,1.48s-1.06.53-1.78.53c-.91,0-1.63-.28-2.17-.84s-.8-1.35-.8-2.36.27-1.86.81-2.44,1.24-.87,2.1-.87,1.51.28,2.04.85.79,1.36.79,2.39c0,.06,0,.16,0,.28h-4.64c.04.68.23,1.21.58,1.57s.78.54,1.3.54c.39,0,.72-.1.99-.3s.49-.53.65-.97Zm-3.46-1.71h3.47c-.05-.52-.18-.92-.4-1.18-.34-.41-.77-.61-1.31-.61-.48,0-.89.16-1.22.49s-.51.76-.55,1.3Z"/>
    <path class="cls-4" d="m902.49,184.44l1.04-.16c.06.42.22.74.49.96s.64.33,1.12.33.84-.1,1.08-.3.35-.43.35-.69c0-.24-.1-.43-.31-.56-.14-.09-.5-.21-1.08-.36-.77-.2-1.31-.36-1.61-.51s-.53-.34-.68-.59-.23-.53-.23-.83c0-.28.06-.53.19-.77s.3-.43.52-.59c.16-.12.39-.22.67-.31s.59-.13.91-.13c.49,0,.92.07,1.29.21s.64.33.82.57.3.56.36.96l-1.03.14c-.05-.32-.18-.57-.41-.75s-.54-.27-.95-.27c-.48,0-.83.08-1.04.24s-.31.35-.31.56c0,.14.04.26.13.37.09.11.22.21.4.28.11.04.42.13.93.27.75.2,1.27.36,1.56.49s.53.31.69.55.25.54.25.9-.1.68-.31.99-.5.55-.89.72-.82.25-1.31.25c-.81,0-1.42-.17-1.85-.5s-.69-.83-.81-1.49Z"/>
    <path class="cls-4" d="m762.46,199.75l.15.93c-.3.06-.56.09-.8.09-.38,0-.68-.06-.89-.18s-.36-.28-.45-.48-.13-.61-.13-1.25v-3.58h-.77v-.82h.77v-1.54l1.05-.63v2.17h1.06v.82h-1.06v3.64c0,.3.02.49.06.58s.1.15.18.21.2.08.36.08c.12,0,.27-.01.46-.04Z"/>
    <path class="cls-4" d="m763.1,197.58c0-1.15.32-2.01.96-2.56.54-.46,1.19-.69,1.96-.69.86,0,1.55.28,2.1.84s.81,1.33.81,2.32c0,.8-.12,1.43-.36,1.89s-.59.82-1.05,1.07-.96.38-1.5.38c-.87,0-1.58-.28-2.11-.84s-.81-1.36-.81-2.41Zm1.08,0c0,.8.17,1.39.52,1.79s.79.59,1.31.59.96-.2,1.31-.6.52-1.01.52-1.82c0-.77-.17-1.35-.52-1.75s-.78-.59-1.3-.59-.96.2-1.31.59-.52.99-.52,1.79Z"/>
    <path class="cls-4" d="m773.07,198.83l1.04-.16c.06.42.22.74.49.96s.64.33,1.12.33.84-.1,1.08-.3.35-.43.35-.69c0-.24-.1-.43-.31-.56-.14-.09-.5-.21-1.08-.36-.77-.2-1.31-.36-1.61-.51s-.53-.34-.68-.59-.23-.53-.23-.83c0-.28.06-.53.19-.77s.3-.43.52-.59c.16-.12.39-.22.67-.31s.59-.13.91-.13c.49,0,.92.07,1.29.21s.64.33.82.57.3.56.36.96l-1.03.14c-.05-.32-.18-.57-.41-.75s-.54-.27-.95-.27c-.48,0-.83.08-1.04.24s-.31.35-.31.56c0,.14.04.26.13.37.09.11.22.21.4.28.11.04.42.13.93.27.75.2,1.27.36,1.56.49s.53.31.69.55.25.54.25.9-.1.68-.31.99-.5.55-.89.72-.82.25-1.31.25c-.81,0-1.42-.17-1.85-.5s-.69-.83-.81-1.49Z"/>
    <path class="cls-4" d="m779.1,197.58c0-1.15.32-2.01.96-2.56.54-.46,1.19-.69,1.96-.69.86,0,1.55.28,2.1.84s.81,1.33.81,2.32c0,.8-.12,1.43-.36,1.89s-.59.82-1.05,1.07-.96.38-1.5.38c-.87,0-1.58-.28-2.11-.84s-.81-1.36-.81-2.41Zm1.08,0c0,.8.17,1.39.52,1.79s.79.59,1.31.59.96-.2,1.31-.6.52-1.01.52-1.82c0-.77-.17-1.35-.52-1.75s-.78-.59-1.3-.59-.96.2-1.31.59-.52.99-.52,1.79Z"/>
    <path class="cls-4" d="m786.17,200.69v-6.22h.94v.87c.2-.3.46-.55.78-.74s.69-.28,1.11-.28c.46,0,.84.1,1.13.29s.5.46.62.8c.49-.73,1.13-1.09,1.92-1.09.62,0,1.09.17,1.42.51s.5.87.5,1.58v4.27h-1.05v-3.92c0-.42-.03-.73-.1-.91s-.19-.33-.37-.45-.39-.17-.63-.17c-.44,0-.8.15-1.09.44s-.43.76-.43,1.4v3.62h-1.05v-4.04c0-.47-.09-.82-.26-1.05s-.45-.35-.84-.35c-.3,0-.57.08-.82.23s-.43.38-.55.69-.17.73-.17,1.3v3.23h-1.05Z"/>
    <path class="cls-4" d="m800.43,198.69l1.09.13c-.17.64-.49,1.13-.96,1.48s-1.06.53-1.78.53c-.91,0-1.63-.28-2.17-.84s-.8-1.35-.8-2.36.27-1.86.81-2.44,1.24-.87,2.1-.87,1.51.28,2.04.85.79,1.36.79,2.39c0,.06,0,.16,0,.28h-4.64c.04.68.23,1.21.58,1.57s.78.54,1.3.54c.39,0,.72-.1.99-.3s.49-.53.65-.97Zm-3.46-1.71h3.47c-.05-.52-.18-.92-.4-1.18-.34-.41-.77-.61-1.31-.61-.48,0-.89.16-1.22.49s-.51.76-.55,1.3Z"/>
    <path class="cls-4" d="m806.17,203.08v-8.61h.96v.81c.23-.32.48-.55.77-.71s.63-.24,1.04-.24c.53,0,1,.14,1.41.41s.71.66.92,1.16.31,1.04.31,1.64c0,.64-.11,1.21-.34,1.72s-.56.9-1,1.17-.89.41-1.37.41c-.35,0-.67-.07-.95-.22s-.51-.34-.69-.56v3.03h-1.05Zm.96-5.46c0,.8.16,1.39.49,1.78s.72.57,1.18.57.87-.2,1.2-.59.5-1.01.5-1.84-.16-1.39-.49-1.78-.72-.59-1.17-.59-.85.21-1.19.63-.52,1.03-.52,1.83Z"/>
    <path class="cls-4" d="m812.82,200.69v-8.59h1.05v8.59h-1.05Z"/>
    <path class="cls-4" d="m819.57,199.92c-.39.33-.77.57-1.13.7s-.75.21-1.16.21c-.68,0-1.21-.17-1.58-.5s-.55-.76-.55-1.28c0-.3.07-.58.21-.83s.32-.45.54-.61.48-.27.76-.35c.21-.05.52-.11.94-.16.85-.1,1.48-.22,1.88-.36,0-.14,0-.24,0-.28,0-.43-.1-.73-.3-.91-.27-.24-.67-.36-1.2-.36-.5,0-.86.09-1.1.26s-.41.48-.52.92l-1.03-.14c.09-.44.25-.8.46-1.07s.53-.48.93-.63.88-.22,1.41-.22.96.06,1.29.19.58.28.73.47.27.43.33.72c.04.18.05.5.05.97v1.41c0,.98.02,1.6.07,1.86s.13.51.27.75h-1.1c-.11-.22-.18-.47-.21-.77Zm-.09-2.36c-.38.16-.96.29-1.72.4-.43.06-.74.13-.92.21s-.32.19-.42.34-.15.32-.15.5c0,.28.11.52.32.7s.52.28.93.28.77-.09,1.08-.27.55-.42.7-.73c.11-.24.17-.59.17-1.05v-.39Z"/>
    <path class="cls-4" d="m822.19,200.69v-6.22h.95v.88c.46-.68,1.12-1.03,1.98-1.03.38,0,.72.07,1.03.2s.55.31.71.53.27.48.33.78c.04.2.06.54.06,1.03v3.83h-1.05v-3.79c0-.43-.04-.75-.12-.96s-.23-.38-.44-.51-.45-.19-.74-.19c-.45,0-.84.14-1.16.43s-.49.83-.49,1.62v3.4h-1.05Z"/>
    <path class="cls-4" d="m828.44,198.83l1.04-.16c.06.42.22.74.49.96s.64.33,1.12.33.84-.1,1.08-.3.35-.43.35-.69c0-.24-.1-.43-.31-.56-.14-.09-.5-.21-1.08-.36-.77-.2-1.31-.36-1.61-.51s-.53-.34-.68-.59-.23-.53-.23-.83c0-.28.06-.53.19-.77s.3-.43.52-.59c.16-.12.39-.22.67-.31s.59-.13.91-.13c.49,0,.92.07,1.29.21s.64.33.82.57.3.56.36.96l-1.03.14c-.05-.32-.18-.57-.41-.75s-.54-.27-.95-.27c-.48,0-.83.08-1.04.24s-.31.35-.31.56c0,.14.04.26.13.37.09.11.22.21.4.28.11.04.42.13.93.27.75.2,1.27.36,1.56.49s.53.31.69.55.25.54.25.9-.1.68-.31.99-.5.55-.89.72-.82.25-1.31.25c-.81,0-1.42-.17-1.85-.5s-.69-.83-.81-1.49Z"/>
    <path class="cls-4" d="m842.26,199.92c-.39.33-.77.57-1.13.7s-.75.21-1.16.21c-.68,0-1.21-.17-1.58-.5s-.55-.76-.55-1.28c0-.3.07-.58.21-.83s.32-.45.54-.61.48-.27.76-.35c.21-.05.52-.11.94-.16.85-.1,1.48-.22,1.88-.36,0-.14,0-.24,0-.28,0-.43-.1-.73-.3-.91-.27-.24-.67-.36-1.2-.36-.5,0-.86.09-1.1.26s-.41.48-.52.92l-1.03-.14c.09-.44.25-.8.46-1.07s.53-.48.93-.63.88-.22,1.41-.22.96.06,1.29.19.58.28.73.47.27.43.33.72c.04.18.05.5.05.97v1.41c0,.98.02,1.6.07,1.86s.13.51.27.75h-1.1c-.11-.22-.18-.47-.21-.77Zm-.09-2.36c-.38.16-.96.29-1.72.4-.43.06-.74.13-.92.21s-.32.19-.42.34-.15.32-.15.5c0,.28.11.52.32.7s.52.28.93.28.77-.09,1.08-.27.55-.42.7-.73c.11-.24.17-.59.17-1.05v-.39Z"/>
    <path class="cls-4" d="m844.87,200.69v-6.22h.95v.88c.46-.68,1.12-1.03,1.98-1.03.38,0,.72.07,1.03.2s.55.31.71.53.27.48.33.78c.04.2.06.54.06,1.03v3.83h-1.05v-3.79c0-.43-.04-.75-.12-.96s-.23-.38-.44-.51-.45-.19-.74-.19c-.45,0-.84.14-1.16.43s-.49.83-.49,1.62v3.4h-1.05Z"/>
    <path class="cls-4" d="m855.58,200.69v-.79c-.39.62-.97.93-1.74.93-.5,0-.95-.14-1.37-.41s-.74-.66-.97-1.15-.34-1.05-.34-1.69.1-1.18.31-1.69.52-.89.93-1.16.88-.4,1.39-.4c.38,0,.71.08,1,.24s.53.36.71.62v-3.08h1.05v8.59h-.98Zm-3.33-3.11c0,.8.17,1.39.5,1.79s.73.59,1.19.59.85-.19,1.17-.57.48-.95.48-1.73c0-.85-.16-1.48-.49-1.88s-.73-.6-1.21-.6-.86.19-1.17.57-.47.99-.47,1.81Z"/>
    <path class="cls-4" d="m861.55,203.08v-8.61h.96v.81c.23-.32.48-.55.77-.71s.63-.24,1.04-.24c.53,0,1,.14,1.41.41s.71.66.92,1.16.31,1.04.31,1.64c0,.64-.11,1.21-.34,1.72s-.56.9-1,1.17-.89.41-1.37.41c-.35,0-.67-.07-.95-.22s-.51-.34-.69-.56v3.03h-1.05Zm.96-5.46c0,.8.16,1.39.49,1.78s.72.57,1.18.57.87-.2,1.2-.59.5-1.01.5-1.84-.16-1.39-.49-1.78-.72-.59-1.17-.59-.85.21-1.19.63-.52,1.03-.52,1.83Z"/>
    <path class="cls-4" d="m867.83,197.58c0-1.15.32-2.01.96-2.56.54-.46,1.19-.69,1.96-.69.86,0,1.55.28,2.1.84s.81,1.33.81,2.32c0,.8-.12,1.43-.36,1.89s-.59.82-1.05,1.07-.96.38-1.5.38c-.87,0-1.58-.28-2.11-.84s-.81-1.36-.81-2.41Zm1.08,0c0,.8.17,1.39.52,1.79s.79.59,1.31.59.96-.2,1.31-.6.52-1.01.52-1.82c0-.77-.17-1.35-.52-1.75s-.78-.59-1.3-.59-.96.2-1.31.59-.52.99-.52,1.79Z"/>
    <path class="cls-4" d="m874.48,198.83l1.04-.16c.06.42.22.74.49.96s.64.33,1.12.33.84-.1,1.08-.3.35-.43.35-.69c0-.24-.1-.43-.31-.56-.14-.09-.5-.21-1.08-.36-.77-.2-1.31-.36-1.61-.51s-.53-.34-.68-.59-.23-.53-.23-.83c0-.28.06-.53.19-.77s.3-.43.52-.59c.16-.12.39-.22.67-.31s.59-.13.91-.13c.49,0,.92.07,1.29.21s.64.33.82.57.3.56.36.96l-1.03.14c-.05-.32-.18-.57-.41-.75s-.54-.27-.95-.27c-.48,0-.83.08-1.04.24s-.31.35-.31.56c0,.14.04.26.13.37.09.11.22.21.4.28.11.04.42.13.93.27.75.2,1.27.36,1.56.49s.53.31.69.55.25.54.25.9-.1.68-.31.99-.5.55-.89.72-.82.25-1.31.25c-.81,0-1.42-.17-1.85-.5s-.69-.83-.81-1.49Z"/>
    <path class="cls-4" d="m880.9,193.32v-1.21h1.05v1.21h-1.05Zm0,7.38v-6.22h1.05v6.22h-1.05Z"/>
    <path class="cls-4" d="m885.87,199.75l.15.93c-.3.06-.56.09-.8.09-.38,0-.68-.06-.89-.18s-.36-.28-.45-.48-.13-.61-.13-1.25v-3.58h-.77v-.82h.77v-1.54l1.05-.63v2.17h1.06v.82h-1.06v3.64c0,.3.02.49.06.58s.1.15.18.21.2.08.36.08c.12,0,.27-.01.46-.04Z"/>
    <path class="cls-4" d="m886.9,193.32v-1.21h1.05v1.21h-1.05Zm0,7.38v-6.22h1.05v6.22h-1.05Z"/>
    <path class="cls-4" d="m889.17,197.58c0-1.15.32-2.01.96-2.56.54-.46,1.19-.69,1.96-.69.86,0,1.55.28,2.1.84s.81,1.33.81,2.32c0,.8-.12,1.43-.36,1.89s-.59.82-1.05,1.07-.96.38-1.5.38c-.87,0-1.58-.28-2.11-.84s-.81-1.36-.81-2.41Zm1.08,0c0,.8.17,1.39.52,1.79s.79.59,1.31.59.96-.2,1.31-.6.52-1.01.52-1.82c0-.77-.17-1.35-.52-1.75s-.78-.59-1.3-.59-.96.2-1.31.59-.52.99-.52,1.79Z"/>
    <path class="cls-4" d="m896.24,200.69v-6.22h.95v.88c.46-.68,1.12-1.03,1.98-1.03.38,0,.72.07,1.03.2s.55.31.71.53.27.48.33.78c.04.2.06.54.06,1.03v3.83h-1.05v-3.79c0-.43-.04-.75-.12-.96s-.23-.38-.44-.51-.45-.19-.74-.19c-.45,0-.84.14-1.16.43s-.49.83-.49,1.62v3.4h-1.05Z"/>
    <path class="cls-4" d="m902.49,198.83l1.04-.16c.06.42.22.74.49.96s.64.33,1.12.33.84-.1,1.08-.3.35-.43.35-.69c0-.24-.1-.43-.31-.56-.14-.09-.5-.21-1.08-.36-.77-.2-1.31-.36-1.61-.51s-.53-.34-.68-.59-.23-.53-.23-.83c0-.28.06-.53.19-.77s.3-.43.52-.59c.16-.12.39-.22.67-.31s.59-.13.91-.13c.49,0,.92.07,1.29.21s.64.33.82.57.3.56.36.96l-1.03.14c-.05-.32-.18-.57-.41-.75s-.54-.27-.95-.27c-.48,0-.83.08-1.04.24s-.31.35-.31.56c0,.14.04.26.13.37.09.11.22.21.4.28.11.04.42.13.93.27.75.2,1.27.36,1.56.49s.53.31.69.55.25.54.25.9-.1.68-.31.99-.5.55-.89.72-.82.25-1.31.25c-.81,0-1.42-.17-1.85-.5s-.69-.83-.81-1.49Z"/>
  </g>
</svg>