<?xml version="1.0" encoding="UTF-8"?>
<svg id="Ebene_1" data-name="Ebene 1" xmlns="http://www.w3.org/2000/svg" viewBox="0 0 988 525">
  <defs>
    <style>
      .cls-1 {
        fill: #0333ff;
      }

      .cls-2 {
        fill: none;
        stroke: #0333ff;
        stroke-miterlimit: 10;
        stroke-width: 2px;
      }
    </style>
  </defs>
  <g>
    <line class="cls-2" x1="261.22" y1="460.43" x2="261.22" y2="139.14"/>
    <polygon class="cls-1" points="271.2 457.52 261.22 474.78 251.25 457.52 271.2 457.52"/>
    <polygon class="cls-1" points="271.2 142.05 261.22 124.78 251.25 142.05 271.2 142.05"/>
  </g>
  <g>
    <line class="cls-2" x1="100.57" y1="299.78" x2="421.87" y2="299.78"/>
    <polygon class="cls-1" points="103.49 309.76 86.22 299.78 103.49 289.81 103.49 309.76"/>
    <polygon class="cls-1" points="418.95 309.76 436.22 299.78 418.95 289.81 418.95 309.76"/>
  </g>
  <g>
    <path d="m121.02,383.6v-14.32h2.85l3.39,10.14c.31.94.54,1.65.68,2.12.16-.52.42-1.29.76-2.29l3.43-9.96h2.55v14.32h-1.83v-11.98l-4.16,11.98h-1.71l-4.14-12.19v12.19h-1.83Z"/>
    <path d="m143.96,382.32c-.65.55-1.28.94-1.88,1.17s-1.25.34-1.94.34c-1.14,0-2.02-.28-2.63-.83s-.92-1.27-.92-2.13c0-.51.12-.97.35-1.39s.53-.76.91-1.01.8-.45,1.26-.58c.35-.09.87-.18,1.56-.26,1.42-.17,2.46-.37,3.13-.61,0-.24,0-.39,0-.46,0-.72-.17-1.22-.5-1.51-.45-.4-1.12-.6-2-.6-.83,0-1.44.14-1.83.43s-.69.8-.87,1.54l-1.72-.23c.16-.74.41-1.33.77-1.78s.88-.8,1.55-1.04,1.46-.37,2.35-.37,1.6.1,2.16.31.96.47,1.22.79.44.71.55,1.2c.06.3.09.84.09,1.62v2.34c0,1.63.04,2.67.11,3.1s.22.85.44,1.25h-1.84c-.18-.36-.3-.79-.35-1.28Zm-.15-3.93c-.64.26-1.6.48-2.87.66-.72.1-1.23.22-1.53.35s-.53.32-.69.57-.24.53-.24.83c0,.47.18.86.53,1.17s.87.47,1.56.47,1.28-.15,1.81-.44.91-.7,1.16-1.22c.19-.4.28-.98.28-1.76v-.64Z"/>
    <path d="m148,383.6v-10.37h1.58v1.47c.76-1.14,1.86-1.71,3.3-1.71.62,0,1.2.11,1.72.34s.92.52,1.18.88.44.8.55,1.3c.06.33.1.9.1,1.71v6.38h-1.76v-6.31c0-.72-.07-1.25-.21-1.61s-.38-.64-.73-.85-.76-.32-1.23-.32c-.75,0-1.4.24-1.94.71s-.82,1.38-.82,2.71v5.66h-1.76Z"/>
    <path d="m158.81,371.31v-2.02h1.76v2.02h-1.76Zm0,12.29v-10.37h1.76v10.37h-1.76Z"/>
    <path d="m162.92,387.58v-14.35h1.6v1.35c.38-.53.8-.92,1.28-1.19s1.05-.4,1.73-.4c.89,0,1.67.23,2.34.68s1.19,1.1,1.53,1.93.52,1.74.52,2.73c0,1.06-.19,2.02-.57,2.87s-.93,1.5-1.66,1.95-1.49.68-2.29.68c-.59,0-1.11-.12-1.58-.37s-.85-.56-1.15-.94v5.05h-1.76Zm1.59-9.1c0,1.33.27,2.32.81,2.96s1.19.96,1.96.96,1.45-.33,2.01-.99.83-1.68.83-3.07-.27-2.31-.82-2.97-1.19-.99-1.95-.99-1.41.35-1.99,1.05-.86,1.72-.86,3.05Z"/>
    <path d="m180.52,383.6v-1.52c-.81,1.17-1.9,1.76-3.29,1.76-.61,0-1.18-.12-1.71-.35s-.92-.53-1.18-.88-.44-.79-.54-1.3c-.07-.34-.11-.89-.11-1.64v-6.43h1.76v5.75c0,.92.04,1.54.11,1.86.11.46.35.83.7,1.09s.8.4,1.33.4,1.02-.13,1.48-.41.79-.64.98-1.1.29-1.14.29-2.03v-5.56h1.76v10.37h-1.57Z"/>
    <path d="m184.49,383.6v-14.32h1.76v14.32h-1.76Z"/>
    <path d="m195.42,382.32c-.65.55-1.28.94-1.88,1.17s-1.25.34-1.94.34c-1.14,0-2.02-.28-2.63-.83s-.92-1.27-.92-2.13c0-.51.12-.97.35-1.39s.53-.76.91-1.01.8-.45,1.26-.58c.35-.09.87-.18,1.56-.26,1.42-.17,2.46-.37,3.13-.61,0-.24,0-.39,0-.46,0-.72-.17-1.22-.5-1.51-.45-.4-1.12-.6-2-.6-.83,0-1.44.14-1.83.43s-.69.8-.87,1.54l-1.72-.23c.16-.74.41-1.33.77-1.78s.88-.8,1.55-1.04,1.46-.37,2.35-.37,1.6.1,2.16.31.96.47,1.22.79.44.71.55,1.2c.06.3.09.84.09,1.62v2.34c0,1.63.04,2.67.11,3.1s.22.85.44,1.25h-1.84c-.18-.36-.3-.79-.35-1.28Zm-.15-3.93c-.64.26-1.6.48-2.87.66-.72.1-1.23.22-1.53.35s-.53.32-.69.57-.24.53-.24.83c0,.47.18.86.53,1.17s.87.47,1.56.47,1.28-.15,1.81-.44.91-.7,1.16-1.22c.19-.4.28-.98.28-1.76v-.64Z"/>
    <path d="m203.29,382.03l.25,1.55c-.49.1-.94.16-1.33.16-.64,0-1.13-.1-1.48-.3s-.6-.47-.74-.8-.21-1.02-.21-2.08v-5.97h-1.29v-1.37h1.29v-2.57l1.75-1.05v3.62h1.77v1.37h-1.77v6.06c0,.5.03.82.09.97s.16.26.3.34.34.13.6.13c.2,0,.45-.02.77-.07Z"/>
    <path d="m204.7,371.31v-2.02h1.76v2.02h-1.76Zm0,12.29v-10.37h1.76v10.37h-1.76Z"/>
    <path d="m211.7,383.6l-3.95-10.37h1.86l2.23,6.21c.24.67.46,1.37.66,2.09.16-.55.37-1.2.65-1.97l2.3-6.33h1.81l-3.93,10.37h-1.64Z"/>
    <path d="m225.6,380.26l1.82.22c-.29,1.06-.82,1.88-1.59,2.47s-1.76.88-2.97.88c-1.52,0-2.72-.47-3.61-1.4s-1.33-2.24-1.33-3.93.45-3.1,1.35-4.06,2.06-1.45,3.5-1.45,2.52.47,3.4,1.42,1.32,2.27,1.32,3.98c0,.1,0,.26,0,.47h-7.73c.06,1.14.39,2.01.97,2.62s1.3.91,2.17.91c.64,0,1.19-.17,1.65-.51s.82-.88,1.08-1.62Zm-5.77-2.84h5.79c-.08-.87-.3-1.53-.66-1.96-.56-.68-1.29-1.02-2.18-1.02-.81,0-1.49.27-2.04.81s-.85,1.26-.91,2.17Z"/>
    <path d="m132.39,396.31v-2.02h1.76v2.02h-1.76Zm0,12.29v-10.37h1.76v10.37h-1.76Z"/>
    <path d="m136.5,408.6v-10.37h1.58v1.47c.76-1.14,1.86-1.71,3.3-1.71.62,0,1.2.11,1.72.34s.92.52,1.18.88.44.8.55,1.3c.06.33.1.9.1,1.71v6.38h-1.76v-6.31c0-.72-.07-1.25-.21-1.61s-.38-.64-.73-.85-.76-.32-1.23-.32c-.75,0-1.4.24-1.94.71s-.82,1.38-.82,2.71v5.66h-1.76Z"/>
    <path d="m146.6,405.51l1.74-.27c.1.7.37,1.23.82,1.6s1.07.56,1.87.56,1.41-.16,1.8-.49.59-.71.59-1.16c0-.4-.17-.71-.52-.94-.24-.16-.84-.35-1.8-.6-1.29-.33-2.18-.61-2.68-.84s-.88-.57-1.13-.99-.39-.88-.39-1.39c0-.46.11-.89.32-1.28s.5-.72.86-.98c.27-.2.65-.37,1.12-.51s.98-.21,1.52-.21c.81,0,1.53.12,2.14.35s1.07.55,1.36.95.49.94.61,1.61l-1.72.23c-.08-.53-.3-.95-.68-1.25s-.9-.45-1.59-.45c-.81,0-1.38.13-1.73.4s-.52.58-.52.94c0,.23.07.43.21.62.14.19.37.34.67.47.18.07.69.21,1.55.45,1.24.33,2.11.6,2.6.82s.88.52,1.16.92.42.91.42,1.5-.17,1.14-.51,1.66-.83.92-1.48,1.2-1.37.42-2.19.42c-1.35,0-2.37-.28-3.08-.84s-1.16-1.39-1.35-2.49Z"/>
    <path d="m156.99,396.31v-2.02h1.76v2.02h-1.76Zm0,12.29v-10.37h1.76v10.37h-1.76Z"/>
    <path d="m161.11,408.6v-10.37h1.58v1.47c.76-1.14,1.86-1.71,3.3-1.71.62,0,1.2.11,1.72.34s.92.52,1.18.88.44.8.55,1.3c.06.33.1.9.1,1.71v6.38h-1.76v-6.31c0-.72-.07-1.25-.21-1.61s-.38-.64-.73-.85-.76-.32-1.23-.32c-.75,0-1.4.24-1.94.71s-.82,1.38-.82,2.71v5.66h-1.76Z"/>
    <path d="m178.68,404.8l1.73.22c-.19,1.19-.67,2.12-1.45,2.8s-1.73,1.01-2.87,1.01c-1.42,0-2.56-.46-3.42-1.39s-1.29-2.26-1.29-3.99c0-1.12.19-2.1.56-2.94s.94-1.47,1.69-1.89,1.58-.63,2.48-.63c1.13,0,2.05.29,2.76.85s1.18,1.38,1.38,2.43l-1.71.26c-.16-.7-.45-1.22-.86-1.57s-.91-.53-1.5-.53c-.89,0-1.6.32-2.16.95s-.83,1.64-.83,3.01.27,2.41.8,3.04,1.23.95,2.09.95c.69,0,1.27-.21,1.73-.63s.76-1.07.88-1.95Z"/>
    <path d="m188.69,405.26l1.82.22c-.29,1.06-.82,1.88-1.59,2.47s-1.76.88-2.97.88c-1.52,0-2.72-.47-3.61-1.4s-1.33-2.24-1.33-3.93.45-3.1,1.35-4.06,2.06-1.45,3.5-1.45,2.52.47,3.4,1.42,1.32,2.27,1.32,3.98c0,.1,0,.26,0,.47h-7.73c.06,1.14.39,2.01.97,2.62s1.3.91,2.17.91c.64,0,1.19-.17,1.65-.51s.82-.88,1.08-1.62Zm-5.77-2.84h5.79c-.08-.87-.3-1.53-.66-1.96-.56-.68-1.29-1.02-2.18-1.02-.81,0-1.49.27-2.04.81s-.85,1.26-.91,2.17Z"/>
    <path d="m192.37,408.6v-10.37h1.58v1.57c.4-.74.78-1.22,1.12-1.46s.72-.35,1.13-.35c.59,0,1.19.19,1.81.57l-.61,1.63c-.43-.25-.86-.38-1.29-.38-.38,0-.73.12-1.04.35s-.52.55-.65.96c-.2.62-.29,1.31-.29,2.05v5.43h-1.76Z"/>
    <path d="m198.74,396.31v-2.02h1.76v2.02h-1.76Zm0,12.29v-10.37h1.76v10.37h-1.76Z"/>
    <path d="m206.7,407.03l.25,1.55c-.49.1-.94.16-1.33.16-.64,0-1.13-.1-1.48-.3s-.6-.47-.74-.8-.21-1.02-.21-2.08v-5.97h-1.29v-1.37h1.29v-2.57l1.75-1.05v3.62h1.77v1.37h-1.77v6.06c0,.5.03.82.09.97s.16.26.3.34.34.13.6.13c.2,0,.45-.02.77-.07Z"/>
    <path d="m208.02,412.6l-.2-1.65c.38.1.72.16,1.01.16.39,0,.7-.07.94-.2s.43-.31.58-.55c.11-.18.29-.61.54-1.31.03-.1.08-.24.16-.43l-3.94-10.39h1.89l2.16,6.01c.28.76.53,1.56.75,2.4.2-.81.44-1.59.72-2.36l2.22-6.04h1.76l-3.95,10.55c-.42,1.14-.75,1.92-.99,2.35-.31.58-.67,1-1.07,1.27s-.89.41-1.45.41c-.34,0-.72-.07-1.13-.21Z"/>
  </g>
  <g>
    <path d="m293.12,376.16c0-2.38.64-4.24,1.91-5.58s2.92-2.02,4.94-2.02c1.32,0,2.51.32,3.57.95s1.87,1.51,2.43,2.64.83,2.41.83,3.84-.29,2.75-.88,3.9-1.42,2.01-2.49,2.6-2.23.88-3.48.88c-1.35,0-2.55-.33-3.61-.98s-1.87-1.54-2.41-2.67-.82-2.32-.82-3.57Zm1.95.03c0,1.73.46,3.08,1.39,4.08s2.09,1.49,3.49,1.49,2.6-.5,3.52-1.5,1.38-2.42,1.38-4.27c0-1.17-.2-2.18-.59-3.05s-.97-1.54-1.73-2.02-1.61-.72-2.55-.72c-1.34,0-2.5.46-3.46,1.38s-1.45,2.46-1.45,4.61Z"/>
    <path d="m310.33,383.13h-1.63v-14.32h1.76v5.11c.74-.93,1.69-1.4,2.84-1.4.64,0,1.24.13,1.81.39s1.04.62,1.41,1.08.66,1.03.86,1.68.31,1.36.31,2.11c0,1.78-.44,3.15-1.32,4.12s-1.93,1.46-3.16,1.46-2.18-.51-2.88-1.53v1.3Zm-.02-5.26c0,1.24.17,2.14.51,2.7.55.91,1.3,1.36,2.25,1.36.77,0,1.43-.33,1.99-1s.84-1.66.84-2.98-.27-2.35-.81-3-1.19-.97-1.95-.97-1.43.33-1.99,1-.84,1.63-.84,2.9Z"/>
    <path d="m319.51,383.13v-10.37h1.58v1.47c.76-1.14,1.86-1.71,3.3-1.71.62,0,1.2.11,1.72.34s.92.52,1.18.88.44.8.55,1.3c.06.33.1.9.1,1.71v6.38h-1.76v-6.31c0-.72-.07-1.25-.21-1.61s-.38-.64-.73-.85-.76-.32-1.23-.32c-.75,0-1.4.24-1.94.71s-.82,1.38-.82,2.71v5.66h-1.76Z"/>
    <path d="m329.66,377.95c0-1.92.53-3.34,1.6-4.27.89-.77,1.98-1.15,3.26-1.15,1.43,0,2.59.47,3.5,1.4s1.36,2.22,1.36,3.87c0,1.33-.2,2.38-.6,3.15s-.98,1.36-1.75,1.78-1.6.63-2.5.63c-1.45,0-2.63-.47-3.52-1.4s-1.34-2.27-1.34-4.02Zm1.81,0c0,1.33.29,2.32.87,2.98s1.31.99,2.19.99,1.6-.33,2.18-1,.87-1.68.87-3.04c0-1.28-.29-2.25-.87-2.92s-1.31-.99-2.17-.99-1.61.33-2.19.99-.87,1.65-.87,2.98Z"/>
    <path d="m339.95,383.13l3.79-5.39-3.51-4.98h2.2l1.59,2.43c.3.46.54.85.72,1.16.29-.43.55-.81.79-1.14l1.75-2.45h2.1l-3.58,4.88,3.86,5.49h-2.16l-2.13-3.22-.57-.87-2.72,4.09h-2.13Z"/>
    <path d="m350.81,370.84v-2.02h1.76v2.02h-1.76Zm0,12.29v-10.37h1.76v10.37h-1.76Z"/>
    <path d="m354.27,377.95c0-1.92.53-3.34,1.6-4.27.89-.77,1.98-1.15,3.26-1.15,1.43,0,2.59.47,3.5,1.4s1.36,2.22,1.36,3.87c0,1.33-.2,2.38-.6,3.15s-.98,1.36-1.75,1.78-1.6.63-2.5.63c-1.45,0-2.63-.47-3.52-1.4s-1.34-2.27-1.34-4.02Zm1.81,0c0,1.33.29,2.32.87,2.98s1.31.99,2.19.99,1.6-.33,2.18-1,.87-1.68.87-3.04c0-1.28-.29-2.25-.87-2.92s-1.31-.99-2.17-.99-1.61.33-2.19.99-.87,1.65-.87,2.98Z"/>
    <path d="m372.52,383.13v-1.52c-.81,1.17-1.9,1.76-3.29,1.76-.61,0-1.18-.12-1.71-.35s-.92-.53-1.18-.88-.44-.79-.54-1.3c-.07-.34-.11-.89-.11-1.64v-6.43h1.76v5.75c0,.92.04,1.54.11,1.86.11.46.35.83.7,1.09s.8.4,1.33.4,1.02-.13,1.48-.41.79-.64.98-1.1.29-1.14.29-2.03v-5.56h1.76v10.37h-1.57Z"/>
    <path d="m375.82,380.04l1.74-.27c.1.7.37,1.23.82,1.6s1.07.56,1.87.56,1.41-.16,1.8-.49.59-.71.59-1.16c0-.4-.17-.71-.52-.94-.24-.16-.84-.35-1.8-.6-1.29-.33-2.18-.61-2.68-.84s-.88-.57-1.13-.99-.39-.88-.39-1.39c0-.46.11-.89.32-1.28s.5-.72.86-.98c.27-.2.65-.37,1.12-.51s.98-.21,1.52-.21c.81,0,1.53.12,2.14.35s1.07.55,1.36.95.49.94.61,1.61l-1.72.23c-.08-.53-.3-.95-.68-1.25s-.9-.45-1.59-.45c-.81,0-1.38.13-1.73.4s-.52.58-.52.94c0,.23.07.43.21.62.14.19.37.34.67.47.18.07.69.21,1.55.45,1.24.33,2.11.6,2.6.82s.88.52,1.16.92.42.91.42,1.5-.17,1.14-.51,1.66-.83.92-1.48,1.2-1.37.42-2.19.42c-1.35,0-2.37-.28-3.08-.84s-1.16-1.39-1.35-2.49Z"/>
    <path d="m299.29,406.85c-.65.55-1.28.94-1.88,1.17s-1.25.34-1.94.34c-1.14,0-2.02-.28-2.63-.83s-.92-1.27-.92-2.13c0-.51.12-.97.35-1.39s.53-.76.91-1.01.8-.45,1.26-.58c.35-.09.87-.18,1.56-.26,1.42-.17,2.46-.37,3.13-.61,0-.24,0-.39,0-.46,0-.72-.17-1.22-.5-1.51-.45-.4-1.12-.6-2-.6-.83,0-1.44.14-1.83.43s-.69.8-.87,1.54l-1.72-.23c.16-.74.41-1.33.77-1.78s.88-.8,1.55-1.04,1.46-.37,2.35-.37,1.6.1,2.16.31.96.47,1.22.79.44.71.55,1.2c.06.3.09.84.09,1.62v2.34c0,1.63.04,2.67.11,3.1s.22.85.44,1.25h-1.84c-.18-.36-.3-.79-.35-1.28Zm-.15-3.93c-.64.26-1.6.48-2.87.66-.72.1-1.23.22-1.53.35s-.53.32-.69.57-.24.53-.24.83c0,.47.18.86.53,1.17s.87.47,1.56.47,1.28-.15,1.81-.44.91-.7,1.16-1.22c.19-.4.28-.98.28-1.76v-.64Z"/>
    <path d="m303,408.99l1.71.25c.07.53.27.91.6,1.15.44.33,1.03.49,1.79.49.81,0,1.44-.16,1.88-.49s.74-.78.9-1.37c.09-.36.13-1.11.13-2.26-.77.91-1.73,1.36-2.87,1.36-1.43,0-2.53-.51-3.31-1.54s-1.17-2.26-1.17-3.7c0-.99.18-1.9.54-2.74s.88-1.48,1.56-1.94,1.48-.68,2.4-.68c1.22,0,2.23.5,3.03,1.48v-1.25h1.62v8.96c0,1.61-.16,2.76-.49,3.43s-.85,1.21-1.56,1.6-1.59.59-2.63.59c-1.24,0-2.24-.28-3-.83s-1.13-1.39-1.1-2.51Zm1.46-6.23c0,1.36.27,2.35.81,2.98s1.22.94,2.03.94,1.48-.31,2.03-.93.82-1.6.82-2.92-.28-2.23-.84-2.87-1.24-.97-2.04-.97-1.45.32-1.99.95-.82,1.58-.82,2.83Z"/>
    <path d="m313.8,408.99l1.71.25c.07.53.27.91.6,1.15.44.33,1.03.49,1.79.49.81,0,1.44-.16,1.88-.49s.74-.78.9-1.37c.09-.36.13-1.11.13-2.26-.77.91-1.73,1.36-2.87,1.36-1.43,0-2.53-.51-3.31-1.54s-1.17-2.26-1.17-3.7c0-.99.18-1.9.54-2.74s.88-1.48,1.56-1.94,1.48-.68,2.4-.68c1.22,0,2.23.5,3.03,1.48v-1.25h1.62v8.96c0,1.61-.16,2.76-.49,3.43s-.85,1.21-1.56,1.6-1.59.59-2.63.59c-1.24,0-2.24-.28-3-.83s-1.13-1.39-1.1-2.51Zm1.46-6.23c0,1.36.27,2.35.81,2.98s1.22.94,2.03.94,1.48-.31,2.03-.93.82-1.6.82-2.92-.28-2.23-.84-2.87-1.24-.97-2.04-.97-1.45.32-1.99.95-.82,1.58-.82,2.83Z"/>
    <path d="m324.91,408.13v-10.37h1.58v1.57c.4-.74.78-1.22,1.12-1.46s.72-.35,1.13-.35c.59,0,1.19.19,1.81.57l-.61,1.63c-.43-.25-.86-.38-1.29-.38-.38,0-.73.12-1.04.35s-.52.55-.65.96c-.2.62-.29,1.31-.29,2.05v5.43h-1.76Z"/>
    <path d="m338.37,404.79l1.82.22c-.29,1.06-.82,1.88-1.59,2.47s-1.76.88-2.97.88c-1.52,0-2.72-.47-3.61-1.4s-1.33-2.24-1.33-3.93.45-3.1,1.35-4.06,2.06-1.45,3.5-1.45,2.52.47,3.4,1.42,1.32,2.27,1.32,3.98c0,.1,0,.26,0,.47h-7.73c.06,1.14.39,2.01.97,2.62s1.3.91,2.17.91c.64,0,1.19-.17,1.65-.51s.82-.88,1.08-1.62Zm-5.77-2.84h5.79c-.08-.87-.3-1.53-.66-1.96-.56-.68-1.29-1.02-2.18-1.02-.81,0-1.49.27-2.04.81s-.85,1.26-.91,2.17Z"/>
    <path d="m341.37,405.04l1.74-.27c.1.7.37,1.23.82,1.6s1.07.56,1.87.56,1.41-.16,1.8-.49.59-.71.59-1.16c0-.4-.17-.71-.52-.94-.24-.16-.84-.35-1.8-.6-1.29-.33-2.18-.61-2.68-.84s-.88-.57-1.13-.99-.39-.88-.39-1.39c0-.46.11-.89.32-1.28s.5-.72.86-.98c.27-.2.65-.37,1.12-.51s.98-.21,1.52-.21c.81,0,1.53.12,2.14.35s1.07.55,1.36.95.49.94.61,1.61l-1.72.23c-.08-.53-.3-.95-.68-1.25s-.9-.45-1.59-.45c-.81,0-1.38.13-1.73.4s-.52.58-.52.94c0,.23.07.43.21.62.14.19.37.34.67.47.18.07.69.21,1.55.45,1.24.33,2.11.6,2.6.82s.88.52,1.16.92.42.91.42,1.5-.17,1.14-.51,1.66-.83.92-1.48,1.2-1.37.42-2.19.42c-1.35,0-2.37-.28-3.08-.84s-1.16-1.39-1.35-2.49Z"/>
    <path d="m351.05,405.04l1.74-.27c.1.7.37,1.23.82,1.6s1.07.56,1.87.56,1.41-.16,1.8-.49.59-.71.59-1.16c0-.4-.17-.71-.52-.94-.24-.16-.84-.35-1.8-.6-1.29-.33-2.18-.61-2.68-.84s-.88-.57-1.13-.99-.39-.88-.39-1.39c0-.46.11-.89.32-1.28s.5-.72.86-.98c.27-.2.65-.37,1.12-.51s.98-.21,1.52-.21c.81,0,1.53.12,2.14.35s1.07.55,1.36.95.49.94.61,1.61l-1.72.23c-.08-.53-.3-.95-.68-1.25s-.9-.45-1.59-.45c-.81,0-1.38.13-1.73.4s-.52.58-.52.94c0,.23.07.43.21.62.14.19.37.34.67.47.18.07.69.21,1.55.45,1.24.33,2.11.6,2.6.82s.88.52,1.16.92.42.91.42,1.5-.17,1.14-.51,1.66-.83.92-1.48,1.2-1.37.42-2.19.42c-1.35,0-2.37-.28-3.08-.84s-1.16-1.39-1.35-2.49Z"/>
    <path d="m361.44,395.84v-2.02h1.76v2.02h-1.76Zm0,12.29v-10.37h1.76v10.37h-1.76Z"/>
    <path d="m364.9,402.95c0-1.92.53-3.34,1.6-4.27.89-.77,1.98-1.15,3.26-1.15,1.43,0,2.59.47,3.5,1.4s1.36,2.22,1.36,3.87c0,1.33-.2,2.38-.6,3.15s-.98,1.36-1.75,1.78-1.6.63-2.5.63c-1.45,0-2.63-.47-3.52-1.4s-1.34-2.27-1.34-4.02Zm1.81,0c0,1.33.29,2.32.87,2.98s1.31.99,2.19.99,1.6-.33,2.18-1,.87-1.68.87-3.04c0-1.28-.29-2.25-.87-2.92s-1.31-.99-2.17-.99-1.61.33-2.19.99-.87,1.65-.87,2.98Z"/>
    <path d="m376.36,408.13v-10.37h1.58v1.47c.76-1.14,1.86-1.71,3.3-1.71.62,0,1.2.11,1.72.34s.92.52,1.18.88.44.8.55,1.3c.06.33.1.9.1,1.71v6.38h-1.76v-6.31c0-.72-.07-1.25-.21-1.61s-.38-.64-.73-.85-.76-.32-1.23-.32c-.75,0-1.4.24-1.94.71s-.82,1.38-.82,2.71v5.66h-1.76Z"/>
  </g>
  <g>
    <path class="cls-1" d="m247.28,66.49l3.36,1.07c-.52,1.88-1.37,3.27-2.57,4.18s-2.72,1.37-4.56,1.37c-2.28,0-4.16-.78-5.62-2.34s-2.2-3.69-2.2-6.39c0-2.86.74-5.08,2.21-6.66s3.42-2.37,5.82-2.37c2.1,0,3.81.62,5.12,1.86.78.73,1.37,1.79,1.76,3.16l-3.43.82c-.2-.89-.63-1.59-1.27-2.11s-1.43-.77-2.35-.77c-1.27,0-2.31.46-3.1,1.37s-1.19,2.39-1.19,4.44c0,2.17.39,3.72,1.17,4.64s1.8,1.38,3.05,1.38c.92,0,1.71-.29,2.38-.88s1.14-1.51,1.43-2.77Z"/>
    <path class="cls-1" d="m256.06,64.16l-2.99-.54c.34-1.2.91-2.09,1.73-2.67s2.04-.87,3.66-.87c1.47,0,2.56.17,3.28.52s1.22.79,1.52,1.32.44,1.52.44,2.95l-.04,3.84c0,1.09.05,1.9.16,2.42s.3,1.08.59,1.67h-3.26c-.09-.22-.19-.54-.32-.97-.05-.2-.09-.32-.12-.39-.56.55-1.16.96-1.8,1.23s-1.32.41-2.05.41c-1.28,0-2.29-.35-3.03-1.04s-1.11-1.57-1.11-2.64c0-.7.17-1.33.5-1.88s.81-.97,1.41-1.27,1.48-.55,2.62-.77c1.54-.29,2.61-.56,3.2-.81v-.33c0-.63-.16-1.08-.47-1.35s-.9-.4-1.77-.4c-.59,0-1.04.12-1.37.35s-.59.63-.8,1.21Zm4.41,2.67c-.42.14-1.09.31-2,.5s-1.51.39-1.79.57c-.43.3-.64.69-.64,1.16s.17.86.52,1.2.78.5,1.31.5c.59,0,1.16-.2,1.7-.59.4-.3.66-.66.79-1.09.09-.28.13-.82.13-1.61v-.66Z"/>
    <path class="cls-1" d="m270.09,72.8h-3.29v-12.45h3.06v1.77c.52-.84.99-1.39,1.41-1.65s.89-.4,1.42-.4c.75,0,1.47.21,2.17.62l-1.02,2.87c-.55-.36-1.07-.54-1.55-.54s-.85.13-1.17.38-.57.71-.76,1.38-.28,2.05-.28,4.17v3.84Z"/>
    <path class="cls-1" d="m283.49,68.84l3.28.55c-.42,1.2-1.09,2.12-2,2.75s-2.05.94-3.42.94c-2.16,0-3.77-.71-4.8-2.12-.82-1.13-1.23-2.56-1.23-4.29,0-2.06.54-3.68,1.62-4.85s2.44-1.75,4.09-1.75c1.85,0,3.31.61,4.38,1.83s1.58,3.1,1.54,5.62h-8.25c.02.98.29,1.74.8,2.28s1.14.81,1.9.81c.52,0,.95-.14,1.3-.42s.62-.73.8-1.36Zm.19-3.33c-.02-.95-.27-1.68-.74-2.17s-1.04-.74-1.71-.74c-.72,0-1.31.26-1.78.79s-.7,1.23-.69,2.13h4.92Z"/>
    <path class="cls-1" d="m202.83,88.36h3.07v1.83c.4-.62.94-1.13,1.62-1.52s1.43-.59,2.26-.59c1.45,0,2.67.57,3.68,1.7s1.51,2.71,1.51,4.73-.51,3.69-1.52,4.85-2.25,1.73-3.69,1.73c-.69,0-1.31-.14-1.87-.41s-1.15-.74-1.76-1.41v6.27h-3.29v-17.18Zm3.26,6.01c0,1.4.28,2.43.83,3.1s1.23,1,2.03,1,1.4-.31,1.91-.92.76-1.62.76-3.02c0-1.3-.26-2.27-.79-2.91s-1.17-.95-1.95-.95-1.47.31-2,.93-.8,1.54-.8,2.76Z"/>
    <path class="cls-1" d="m224.79,96.84l3.28.55c-.42,1.2-1.09,2.12-2,2.75s-2.05.94-3.42.94c-2.16,0-3.77-.71-4.8-2.12-.82-1.13-1.23-2.56-1.23-4.29,0-2.06.54-3.68,1.62-4.85s2.44-1.75,4.09-1.75c1.85,0,3.31.61,4.38,1.83s1.58,3.1,1.54,5.62h-8.25c.02.98.29,1.74.8,2.28s1.14.81,1.9.81c.52,0,.95-.14,1.3-.42s.62-.73.8-1.36Zm.19-3.33c-.02-.95-.27-1.68-.74-2.17s-1.04-.74-1.71-.74c-.72,0-1.31.26-1.78.79s-.7,1.23-.69,2.13h4.92Z"/>
    <path class="cls-1" d="m234.08,100.8h-3.29v-12.45h3.06v1.77c.52-.84.99-1.39,1.41-1.65s.89-.4,1.42-.4c.75,0,1.47.21,2.17.62l-1.02,2.87c-.55-.36-1.07-.54-1.55-.54s-.85.13-1.17.38-.57.71-.76,1.38-.28,2.05-.28,4.17v3.84Z"/>
    <path class="cls-1" d="m239.11,97.25l3.3-.5c.14.64.43,1.13.86,1.46s1.03.5,1.8.5c.85,0,1.49-.16,1.92-.47.29-.22.43-.51.43-.88,0-.25-.08-.46-.23-.62-.16-.16-.53-.3-1.1-.43-2.66-.59-4.34-1.12-5.05-1.61-.98-.67-1.48-1.61-1.48-2.8,0-1.08.43-1.98,1.28-2.72s2.17-1.1,3.96-1.1,2.97.28,3.8.83,1.4,1.38,1.71,2.46l-3.11.57c-.13-.48-.38-.86-.76-1.11s-.9-.39-1.59-.39c-.87,0-1.49.12-1.86.36-.25.17-.38.39-.38.67,0,.23.11.43.33.6.3.22,1.32.53,3.08.93s2.98.89,3.67,1.46c.69.59,1.03,1.4,1.03,2.45,0,1.14-.48,2.12-1.43,2.94s-2.36,1.23-4.23,1.23c-1.7,0-3.04-.34-4.03-1.03s-1.63-1.62-1.94-2.8Z"/>
    <path class="cls-1" d="m252.86,94.41c0-1.09.27-2.15.81-3.18s1.3-1.8,2.29-2.34,2.09-.81,3.31-.81c1.88,0,3.43.61,4.63,1.83s1.8,2.77,1.8,4.63-.61,3.44-1.82,4.68-2.74,1.86-4.59,1.86c-1.14,0-2.23-.26-3.26-.77s-1.82-1.27-2.36-2.27-.81-2.21-.81-3.64Zm3.38.18c0,1.23.29,2.18.88,2.84s1.31.98,2.17.98,1.58-.33,2.16-.98.87-1.61.87-2.86-.29-2.16-.87-2.81-1.3-.98-2.16-.98-1.58.33-2.17.98-.88,1.6-.88,2.84Z"/>
    <path class="cls-1" d="m279.6,100.8h-3.29v-6.35c0-1.34-.07-2.21-.21-2.61s-.37-.7-.69-.92-.7-.33-1.14-.33c-.57,0-1.08.16-1.54.47s-.76.73-.93,1.24-.25,1.47-.25,2.86v5.64h-3.29v-12.45h3.06v1.83c1.09-1.41,2.45-2.11,4.1-2.11.73,0,1.39.13,1.99.39s1.06.6,1.37,1,.52.87.64,1.38.18,1.25.18,2.21v7.73Z"/>
    <path class="cls-1" d="m285.4,92.16l-2.99-.54c.34-1.2.91-2.09,1.73-2.67s2.04-.87,3.66-.87c1.47,0,2.56.17,3.28.52s1.22.79,1.52,1.32.44,1.52.44,2.95l-.04,3.84c0,1.09.05,1.9.16,2.42s.3,1.08.59,1.67h-3.26c-.09-.22-.19-.54-.32-.97-.05-.2-.09-.32-.12-.39-.56.55-1.16.96-1.8,1.23s-1.32.41-2.05.41c-1.28,0-2.29-.35-3.03-1.04s-1.11-1.57-1.11-2.64c0-.7.17-1.33.5-1.88s.81-.97,1.41-1.27,1.48-.55,2.62-.77c1.54-.29,2.61-.56,3.2-.81v-.33c0-.63-.16-1.08-.47-1.35s-.9-.4-1.77-.4c-.59,0-1.04.12-1.37.35s-.59.63-.8,1.21Zm4.41,2.67c-.42.14-1.09.31-2,.5s-1.51.39-1.79.57c-.43.3-.64.69-.64,1.16s.17.86.52,1.2.78.5,1.31.5c.59,0,1.16-.2,1.7-.59.4-.3.66-.66.79-1.09.09-.28.13-.82.13-1.61v-.66Z"/>
    <path class="cls-1" d="m296.29,100.8v-17.18h3.29v17.18h-3.29Z"/>
    <path class="cls-1" d="m302.95,100.8v-17.18h3.29v17.18h-3.29Z"/>
    <path class="cls-1" d="m308.06,88.36h3.5l2.98,8.84,2.91-8.84h3.41l-4.39,11.98-.79,2.17c-.29.73-.56,1.28-.83,1.66s-.56.69-.9.93-.76.42-1.25.56-1.06.2-1.68.2-1.25-.07-1.86-.2l-.29-2.58c.52.1.98.15,1.39.15.77,0,1.33-.22,1.7-.67s.65-1.02.84-1.72l-4.73-12.48Z"/>
  </g>
  <g>
    <path class="cls-1" d="m487.64,285.25l3.36,1.07c-.52,1.88-1.37,3.27-2.57,4.18s-2.72,1.37-4.56,1.37c-2.28,0-4.16-.78-5.62-2.34s-2.2-3.69-2.2-6.39c0-2.86.74-5.08,2.21-6.66s3.42-2.37,5.82-2.37c2.1,0,3.81.62,5.12,1.86.78.73,1.37,1.79,1.76,3.16l-3.43.82c-.2-.89-.63-1.59-1.27-2.11s-1.43-.77-2.35-.77c-1.27,0-2.31.46-3.1,1.37s-1.19,2.39-1.19,4.44c0,2.17.39,3.72,1.17,4.64s1.8,1.38,3.05,1.38c.92,0,1.71-.29,2.38-.88s1.14-1.51,1.43-2.77Z"/>
    <path class="cls-1" d="m497.24,274.38v6.32c1.06-1.24,2.33-1.86,3.81-1.86.76,0,1.44.14,2.05.42s1.07.64,1.38,1.08.52.92.63,1.45.17,1.36.17,2.47v7.3h-3.29v-6.57c0-1.3-.06-2.13-.19-2.48s-.35-.63-.66-.84-.71-.31-1.19-.31c-.55,0-1.04.13-1.46.4s-.74.67-.94,1.2-.3,1.33-.3,2.37v6.23h-3.29v-17.18h3.29Z"/>
    <path class="cls-1" d="m511.08,282.91l-2.99-.54c.34-1.2.91-2.09,1.73-2.67s2.04-.87,3.66-.87c1.47,0,2.56.17,3.28.52s1.22.79,1.52,1.32.44,1.52.44,2.95l-.04,3.84c0,1.09.05,1.9.16,2.42s.3,1.08.59,1.67h-3.26c-.09-.22-.19-.54-.32-.97-.05-.2-.09-.32-.12-.39-.56.55-1.16.96-1.8,1.23s-1.32.41-2.05.41c-1.28,0-2.29-.35-3.03-1.04s-1.11-1.57-1.11-2.64c0-.7.17-1.33.5-1.88s.81-.97,1.41-1.27,1.48-.55,2.62-.77c1.54-.29,2.61-.56,3.2-.81v-.33c0-.63-.16-1.08-.47-1.35s-.9-.4-1.77-.4c-.59,0-1.04.12-1.37.35s-.59.63-.8,1.21Zm4.41,2.67c-.42.14-1.09.31-2,.5s-1.51.39-1.79.57c-.43.3-.64.69-.64,1.16s.17.86.52,1.2.78.5,1.31.5c.59,0,1.16-.2,1.7-.59.4-.3.66-.66.79-1.09.09-.28.13-.82.13-1.61v-.66Z"/>
    <path class="cls-1" d="m521.97,291.56v-17.18h3.29v17.18h-3.29Z"/>
    <path class="cls-1" d="m528.64,291.56v-17.18h3.29v17.18h-3.29Z"/>
    <path class="cls-1" d="m542.51,287.6l3.28.55c-.42,1.2-1.09,2.12-2,2.75s-2.05.94-3.42.94c-2.16,0-3.77-.71-4.8-2.12-.82-1.13-1.23-2.56-1.23-4.29,0-2.06.54-3.68,1.62-4.85s2.44-1.75,4.09-1.75c1.85,0,3.31.61,4.38,1.83s1.58,3.1,1.54,5.62h-8.25c.02.98.29,1.74.8,2.28s1.14.81,1.9.81c.52,0,.95-.14,1.3-.42s.62-.73.8-1.36Zm.19-3.33c-.02-.95-.27-1.68-.74-2.17s-1.04-.74-1.71-.74c-.72,0-1.31.26-1.78.79s-.7,1.23-.69,2.13h4.92Z"/>
    <path class="cls-1" d="m559.97,291.56h-3.29v-6.35c0-1.34-.07-2.21-.21-2.61s-.37-.7-.69-.92-.7-.33-1.14-.33c-.57,0-1.08.16-1.54.47s-.76.73-.93,1.24-.25,1.47-.25,2.86v5.64h-3.29v-12.45h3.06v1.83c1.09-1.41,2.45-2.11,4.1-2.11.73,0,1.39.13,1.99.39s1.06.6,1.37,1,.52.87.64,1.38.18,1.25.18,2.21v7.73Z"/>
    <path class="cls-1" d="m563.01,292.38l3.76.46c.06.44.21.74.43.9.31.23.8.35,1.48.35.86,0,1.5-.13,1.93-.39.29-.17.51-.45.66-.83.1-.27.15-.78.15-1.51v-1.82c-.98,1.34-2.23,2.02-3.73,2.02-1.67,0-3-.71-3.97-2.12-.77-1.12-1.15-2.51-1.15-4.17,0-2.09.5-3.68,1.51-4.78s2.25-1.65,3.74-1.65,2.81.68,3.81,2.03v-1.75h3.08v11.17c0,1.47-.12,2.57-.36,3.29s-.58,1.3-1.02,1.71-1.02.74-1.75.97-1.65.35-2.77.35c-2.11,0-3.61-.36-4.49-1.08s-1.32-1.64-1.32-2.75c0-.11,0-.24.01-.4Zm2.94-7.3c0,1.32.26,2.29.77,2.9s1.14.92,1.89.92c.8,0,1.48-.31,2.04-.94s.83-1.56.83-2.79-.27-2.25-.8-2.87-1.2-.94-2.02-.94-1.44.31-1.95.92-.77,1.55-.77,2.81Z"/>
    <path class="cls-1" d="m585.18,287.6l3.28.55c-.42,1.2-1.09,2.12-2,2.75s-2.05.94-3.42.94c-2.16,0-3.77-.71-4.8-2.12-.82-1.13-1.23-2.56-1.23-4.29,0-2.06.54-3.68,1.62-4.85s2.44-1.75,4.09-1.75c1.85,0,3.31.61,4.38,1.83s1.58,3.1,1.54,5.62h-8.25c.02.98.29,1.74.8,2.28s1.14.81,1.9.81c.52,0,.95-.14,1.3-.42s.62-.73.8-1.36Zm.19-3.33c-.02-.95-.27-1.68-.74-2.17s-1.04-.74-1.71-.74c-.72,0-1.31.26-1.78.79s-.7,1.23-.69,2.13h4.92Z"/>
    <path class="cls-1" d="m488.04,319.56h-3.06v-1.83c-.51.71-1.11,1.24-1.8,1.59s-1.39.52-2.09.52c-1.43,0-2.65-.58-3.67-1.73s-1.53-2.76-1.53-4.82.5-3.71,1.49-4.81,2.25-1.65,3.76-1.65c1.39,0,2.59.58,3.61,1.73v-6.19h3.29v17.18Zm-8.79-6.49c0,1.33.18,2.29.55,2.88.53.86,1.27,1.29,2.23,1.29.76,0,1.4-.32,1.93-.97s.8-1.61.8-2.89c0-1.43-.26-2.46-.77-3.09s-1.18-.94-1.98-.94-1.44.31-1.96.93-.79,1.55-.79,2.78Z"/>
    <path class="cls-1" d="m491.29,305.43v-3.05h3.29v3.05h-3.29Zm0,14.13v-12.45h3.29v12.45h-3.29Z"/>
    <path class="cls-1" d="m501.11,319.56h-3.29v-12.45h3.06v1.77c.52-.84.99-1.39,1.41-1.65s.89-.4,1.42-.4c.75,0,1.47.21,2.17.62l-1.02,2.87c-.55-.36-1.07-.54-1.55-.54s-.85.13-1.17.38-.57.71-.76,1.38-.28,2.05-.28,4.17v3.84Z"/>
    <path class="cls-1" d="m514.5,315.6l3.28.55c-.42,1.2-1.09,2.12-2,2.75s-2.05.94-3.42.94c-2.16,0-3.77-.71-4.8-2.12-.82-1.13-1.23-2.56-1.23-4.29,0-2.06.54-3.68,1.62-4.85s2.44-1.75,4.09-1.75c1.85,0,3.31.61,4.38,1.83s1.58,3.1,1.54,5.62h-8.25c.02.98.29,1.74.8,2.28s1.14.81,1.9.81c.52,0,.95-.14,1.3-.42s.62-.73.8-1.36Zm.19-3.33c-.02-.95-.27-1.68-.74-2.17s-1.04-.74-1.71-.74c-.72,0-1.31.26-1.78.79s-.7,1.23-.69,2.13h4.92Z"/>
    <path class="cls-1" d="m531.5,310.8l-3.25.59c-.11-.65-.36-1.14-.74-1.46s-.89-.49-1.51-.49c-.82,0-1.47.28-1.96.85s-.73,1.51-.73,2.84c0,1.48.25,2.52.74,3.13s1.16.91,2,.91c.62,0,1.14-.18,1.54-.53s.68-.97.84-1.83l3.23.55c-.34,1.48-.98,2.61-1.93,3.36s-2.23,1.14-3.83,1.14c-1.82,0-3.27-.57-4.35-1.72s-1.62-2.74-1.62-4.77.54-3.65,1.63-4.8,2.55-1.72,4.41-1.72c1.52,0,2.72.33,3.62.98s1.54,1.65,1.93,2.98Z"/>
    <path class="cls-1" d="m539.7,307.12v2.62h-2.25v5.02c0,1.02.02,1.61.06,1.78s.14.31.29.42.34.16.56.16c.3,0,.75-.11,1.32-.32l.28,2.55c-.77.33-1.63.49-2.6.49-.59,0-1.13-.1-1.61-.3s-.83-.46-1.05-.77-.38-.74-.46-1.28c-.07-.38-.11-1.16-.11-2.32v-5.43h-1.51v-2.62h1.51v-2.47l3.3-1.92v4.39h2.25Z"/>
    <path class="cls-1" d="m541.98,319.56v-17.18h3.29v17.18h-3.29Z"/>
    <path class="cls-1" d="m547.09,307.12h3.5l2.98,8.84,2.91-8.84h3.41l-4.39,11.98-.79,2.17c-.29.73-.56,1.28-.83,1.66s-.56.69-.9.93-.76.42-1.25.56-1.06.2-1.68.2-1.25-.07-1.86-.2l-.29-2.58c.52.1.98.15,1.39.15.77,0,1.33-.22,1.7-.67s.65-1.02.84-1.72l-4.73-12.48Z"/>
  </g>
</svg>