<?xml version="1.0" encoding="UTF-8"?>
<svg id="Ebene_1" data-name="Ebene 1" xmlns="http://www.w3.org/2000/svg" viewBox="0 0 988 525">
  <defs>
    <style>
      .cls-1 {
        stroke-dasharray: 3.98 3.98;
      }

      .cls-1, .cls-2, .cls-3, .cls-4, .cls-5 {
        fill: none;
      }

      .cls-1, .cls-3 {
        stroke: #0433ff;
        stroke-miterlimit: 10;
      }

      .cls-6 {
        fill: #1d1d1b;
      }

      .cls-2 {
        stroke-width: 2px;
      }

      .cls-2, .cls-4, .cls-5 {
        stroke: #1d1d1b;
        stroke-linejoin: round;
      }

      .cls-7 {
        font-size: 14px;
      }

      .cls-7, .cls-8, .cls-9 {
        font-family: ArialMT, Arial;
      }

      .cls-8 {
        font-size: 11.2px;
      }

      .cls-9 {
        font-size: 22px;
      }

      .cls-4 {
        stroke-width: .84px;
      }

      .cls-5 {
        stroke-width: .7px;
      }

      .cls-10 {
        letter-spacing: 0em;
      }

      .cls-11 {
        fill: #0433ff;
        font-family: Arial-BoldMT, Arial;
        font-size: 26px;
        font-weight: 700;
      }

      .cls-12 {
        letter-spacing: -.07em;
      }

      .cls-13 {
        letter-spacing: -.11em;
      }

      .cls-14 {
        letter-spacing: -.02em;
      }
    </style>
  </defs>
  <text class="cls-9" transform="translate(81.32 117.51)"><tspan x="0" y="0">Decision</tspan></text>
  <text class="cls-9" transform="translate(339.93 117.51)"><tspan x="0" y="0">Action</tspan></text>
  <text class="cls-9" transform="translate(564.91 117.51)"><tspan x="0" y="0">Perception</tspan></text>
  <text class="cls-9" transform="translate(799.68 117.51)"><tspan x="0" y="0">Interpretation</tspan></text>
  <g>
    <line class="cls-2" x1="217" y1="108.81" x2="269.82" y2="108.81"/>
    <polygon class="cls-6" points="268.37 113.8 277 108.81 268.37 103.83 268.37 113.8"/>
  </g>
  <g>
    <line class="cls-2" x1="464" y1="108.81" x2="516.82" y2="108.81"/>
    <polygon class="cls-6" points="515.37 113.8 524 108.81 515.37 103.83 515.37 113.8"/>
  </g>
  <g>
    <line class="cls-2" x1="711" y1="108.81" x2="763.82" y2="108.81"/>
    <polygon class="cls-6" points="762.37 113.8 771 108.81 762.37 103.83 762.37 113.8"/>
  </g>
  <text class="cls-9" transform="translate(586.93 470.24)"><tspan x="0" y="0">Action</tspan></text>
  <text class="cls-9" transform="translate(802.13 470.24)"><tspan x="0" y="0">Computation</tspan></text>
  <g>
    <line class="cls-2" x1="771" y1="461.55" x2="718.18" y2="461.55"/>
    <polygon class="cls-6" points="719.63 456.56 711 461.55 719.63 466.53 719.63 456.56"/>
  </g>
  <text class="cls-11" transform="translate(202.94 52.28)"><tspan x="0" y="0">Human</tspan></text>
  <text class="cls-11" transform="translate(669.02 52.28)"><tspan class="cls-12" x="0" y="0">T</tspan><tspan x="13.95" y="0">echnology</tspan></text>
  <g>
    <line class="cls-3" x1="494" x2="494" y2="2"/>
    <line class="cls-1" x1="494" y1="5.98" x2="494" y2="521.01"/>
    <line class="cls-3" x1="494" y1="523" x2="494" y2="525"/>
  </g>
  <text class="cls-7" transform="translate(96.64 184.84)"><tspan x="0" y="0">Intention</tspan><tspan x="-.78" y="18">Attention</tspan><tspan x="1.18" y="36">Emotion</tspan></text>
  <rect class="cls-4" x="314.5" y="144.33" width="112" height="24" rx="12" ry="12"/>
  <text class="cls-8" transform="translate(351.51 160.32)"><tspan x="0" y="0">Speech</tspan></text>
  <rect class="cls-4" x="314.5" y="172.84" width="112" height="24" rx="12" ry="12"/>
  <text class="cls-8" transform="translate(350.58 188.82)"><tspan x="0" y="0">Gesture</tspan></text>
  <rect class="cls-4" x="314.5" y="201.34" width="112" height="24" rx="12" ry="12"/>
  <text class="cls-8" transform="translate(326.31 217.33)"><tspan x="0" y="0">Facial Expression</tspan></text>
  <rect class="cls-4" x="314.5" y="229.85" width="112" height="24" rx="12" ry="12"/>
  <text class="cls-8" transform="translate(365.83 245.83)"><tspan x="0" y="0">...</tspan></text>
  <rect class="cls-4" x="561.5" y="144.33" width="112" height="24" rx="12" ry="12"/>
  <text class="cls-8" transform="translate(588.24 160.32)"><tspan x="0" y="0">Microphone</tspan></text>
  <rect class="cls-4" x="561.5" y="172.84" width="112" height="24" rx="12" ry="12"/>
  <text class="cls-8" transform="translate(581.81 188.82)"><tspan class="cls-14" x="0" y="0">V</tspan><tspan x="7.27" y="0">ideo Camera</tspan></text>
  <text class="cls-7" transform="translate(843.49 175.96)"><tspan x="0" y="0">Fusion</tspan></text>
  <rect class="cls-4" x="561.5" y="201.34" width="112" height="24" rx="12" ry="12"/>
  <text class="cls-8" transform="translate(602.56 216.33)"><tspan class="cls-13" x="0" y="0">T</tspan><tspan class="cls-10" x="5.6" y="0">ablet</tspan></text>
  <text class="cls-8" transform="translate(834.84 225.34)"><tspan x="0" y="0">@data level</tspan><tspan x="-6.54" y="14.4">@feature level</tspan><tspan x="-9.65" y="28.8">@decision level</tspan></text>
  <rect class="cls-4" x="561.5" y="229.85" width="112" height="24" rx="12" ry="12"/>
  <text class="cls-8" transform="translate(612.83 245.83)"><tspan x="0" y="0">...</tspan></text>
  <line class="cls-4" x1="426.5" y1="156.33" x2="561.5" y2="156.33"/>
  <line class="cls-4" x1="426.5" y1="213.34" x2="561.5" y2="184.84"/>
  <line class="cls-4" x1="426.5" y1="184.84" x2="561.5" y2="184.84"/>
  <line class="cls-4" x1="426.5" y1="184.84" x2="561.5" y2="213.34"/>
  <line class="cls-4" x1="426.5" y1="213.34" x2="561.5" y2="156.33"/>
  <rect class="cls-4" x="561.5" y="315.36" width="112" height="24" rx="12" ry="12"/>
  <text class="cls-8" transform="translate(579.84 331.35)"><tspan class="cls-13" x="0" y="0">T</tspan><tspan class="cls-10" x="5.6" y="0">ext-to-Speech</tspan></text>
  <rect class="cls-4" x="561.5" y="343.87" width="112" height="24" rx="12" ry="12"/>
  <text class="cls-8" transform="translate(587.72 359.86)"><tspan class="cls-14" x="0" y="0">V</tspan><tspan x="7.27" y="0">isual Cues</tspan></text>
  <rect class="cls-4" x="561.5" y="372.37" width="112" height="24" rx="12" ry="12"/>
  <text class="cls-8" transform="translate(588.55 387.36)"><tspan x="0" y="0">Audio Cues</tspan></text>
  <rect class="cls-4" x="561.5" y="400.88" width="112" height="24" rx="12" ry="12"/>
  <text class="cls-8" transform="translate(612.83 416.87)"><tspan x="0" y="0">...</tspan></text>
  <ellipse class="cls-5" cx="864.5" cy="172.84" rx="56" ry="28.51"/>
  <text class="cls-7" transform="translate(842.33 376.37)"><tspan x="0" y="0">Fission</tspan></text>
  <ellipse class="cls-5" cx="864.5" cy="373.25" rx="56" ry="28.51"/>
  <line class="cls-4" x1="808.5" y1="172.84" x2="673.5" y2="156.33"/>
  <line class="cls-4" x1="808.5" y1="172.84" x2="673.5" y2="184.84"/>
  <line class="cls-4" x1="808.5" y1="172.84" x2="673.5" y2="213.34"/>
  <line class="cls-4" x1="808.5" y1="172.84" x2="673.5" y2="241.85"/>
  <line class="cls-4" x1="808.5" y1="373.25" x2="673.5" y2="327.36"/>
  <line class="cls-4" x1="808.5" y1="373.25" x2="673.5" y2="412.88"/>
  <line class="cls-4" x1="808.5" y1="373.25" x2="673.5" y2="384.37"/>
  <line class="cls-4" x1="808.5" y1="373.25" x2="673.5" y2="355.87"/>
  <path class="cls-4" d="M920.5,172.84c37.83,0,37.83,100.21,37.83,100.21,0,0,.4,100.21-37.83,100.21"/>
</svg>