<?xml version="1.0" encoding="UTF-8"?>
<svg id="Ebene_1" data-name="Ebene 1" xmlns="http://www.w3.org/2000/svg" viewBox="0 0 988 525">
  <defs>
    <style>
      .cls-1 {
        font-size: 16px;
      }

      .cls-1, .cls-2, .cls-3 {
        fill: #1d1d1b;
      }

      .cls-1, .cls-4 {
        font-family: Times-Roman, Times;
      }

      .cls-5, .cls-6 {
        font-family: Times-Italic, Times;
        font-style: italic;
      }

      .cls-7 {
        fill: #fff;
        stroke: #000;
      }

      .cls-7, .cls-8, .cls-9, .cls-10 {
        stroke-linecap: round;
        stroke-linejoin: round;
      }

      .cls-3 {
        font-size: 18px;
      }

      .cls-6 {
        font-size: 12px;
      }

      .cls-8, .cls-9, .cls-10 {
        fill: none;
      }

      .cls-8, .cls-10 {
        stroke: #0333ff;
      }

      .cls-9 {
        stroke: #1d1d1b;
      }

      .cls-10 {
        stroke-dasharray: 3.98 3.98;
      }
    </style>
  </defs>
  <circle class="cls-7" cx="200.01" cy="174.32" r="18.33"/>
  <circle class="cls-7" cx="200.01" cy="253.11" r="18.33"/>
  <circle class="cls-7" cx="200.01" cy="410.68" r="18.33"/>
  <g>
    <line class="cls-9" x1="174.51" y1="174.32" x2="100.63" y2="174.32"/>
    <polygon class="cls-2" points="173.05 169.33 181.69 174.32 173.05 179.31 173.05 169.33"/>
  </g>
  <g>
    <line class="cls-9" x1="174.51" y1="253.11" x2="100.63" y2="253.11"/>
    <polygon class="cls-2" points="173.05 248.12 181.69 253.11 173.05 258.09 173.05 248.12"/>
  </g>
  <g>
    <line class="cls-9" x1="174.51" y1="410.68" x2="100.63" y2="410.68"/>
    <polygon class="cls-2" points="173.05 405.69 181.69 410.68 173.05 415.67 173.05 405.69"/>
  </g>
  <g>
    <line class="cls-8" x1="285.45" x2="285.45" y2="2"/>
    <line class="cls-10" x1="285.45" y1="5.98" x2="285.45" y2="521.01"/>
    <line class="cls-8" x1="285.45" y1="523" x2="285.45" y2="525"/>
  </g>
  <text class="cls-1" transform="translate(86.04 154.32)"><tspan x="0" y="0">Input 1</tspan></text>
  <text class="cls-3" transform="translate(162.09 48.28)"><tspan class="cls-4"><tspan x="0" y="0">Input layer</tspan></tspan><tspan class="cls-5"><tspan x="36.73" y="21.6">i</tspan></tspan></text>
  <text class="cls-1" transform="translate(86.04 233.11)"><tspan x="0" y="0">Input 2</tspan></text>
  <text class="cls-1" transform="translate(86.04 389.95)"><tspan x="0" y="0">Input n</tspan></text>
  <g>
    <circle cx="201.33" cy="320.35" r="2.57"/>
    <circle cx="201.33" cy="331.89" r="2.57"/>
    <circle cx="201.33" cy="343.44" r="2.57"/>
  </g>
  <text class="cls-6" transform="translate(196.75 175.05)"><tspan x="0" y="0">i</tspan></text>
  <text class="cls-6" transform="translate(200.09 179.04) scale(.58)"><tspan x="0" y="0">1</tspan></text>
  <text class="cls-6" transform="translate(196.75 253.11)"><tspan x="0" y="0">i</tspan></text>
  <text class="cls-6" transform="translate(200.09 257.1) scale(.58)"><tspan x="0" y="0">1</tspan></text>
  <text class="cls-6" transform="translate(196.75 410.68)"><tspan x="0" y="0">i</tspan></text>
  <text class="cls-6" transform="translate(200.09 414.68) scale(.58)"><tspan x="0" y="0">n</tspan></text>
  <g>
    <line class="cls-8" x1="285.45" x2="285.45" y2="2"/>
    <line class="cls-10" x1="285.45" y1="5.98" x2="285.45" y2="521.01"/>
    <line class="cls-8" x1="285.45" y1="523" x2="285.45" y2="525"/>
  </g>
  <g>
    <line class="cls-8" x1="700.46" x2="700.46" y2="2"/>
    <line class="cls-10" x1="700.46" y1="5.98" x2="700.46" y2="521.01"/>
    <line class="cls-8" x1="700.46" y1="523" x2="700.46" y2="525"/>
  </g>
  <g>
    <circle cx="201.33" cy="320.35" r="2.57"/>
    <circle cx="201.33" cy="331.89" r="2.57"/>
    <circle cx="201.33" cy="343.44" r="2.57"/>
  </g>
  <text class="cls-6" transform="translate(196.75 175.05)"><tspan x="0" y="0">i</tspan></text>
  <text class="cls-6" transform="translate(200.09 179.04) scale(.58)"><tspan x="0" y="0">1</tspan></text>
  <text class="cls-6" transform="translate(196.75 253.11)"><tspan x="0" y="0">i</tspan></text>
  <text class="cls-6" transform="translate(200.09 257.1) scale(.58)"><tspan x="0" y="0">1</tspan></text>
  <text class="cls-6" transform="translate(196.75 410.68)"><tspan x="0" y="0">i</tspan></text>
  <text class="cls-6" transform="translate(200.09 414.68) scale(.58)"><tspan x="0" y="0">n</tspan></text>
</svg>