<?xml version="1.0" encoding="UTF-8"?>
<svg id="layer" xmlns="http://www.w3.org/2000/svg" viewBox="0 0 988 525">
  <defs>
    <style>
      .cls-1 {
        font-family: Arial-BoldMT, Arial;
        font-size: 14px;
        font-weight: 700;
      }

      .cls-1, .cls-2, .cls-3 {
        fill: #000;
      }

      .cls-4 {
        stroke: #0333ff;
        stroke-width: 2px;
      }

      .cls-4, .cls-5, .cls-6, .cls-7 {
        stroke-miterlimit: 10;
      }

      .cls-4, .cls-6, .cls-7 {
        fill: none;
      }

      .cls-8 {
        fill: #1d1d1b;
      }

      .cls-8, .cls-2, .cls-9 {
        stroke-width: 0px;
      }

      .cls-5 {
        stroke-dasharray: 0 0 4 4;
        stroke-width: .5px;
      }

      .cls-5, .cls-6 {
        stroke: #000;
      }

      .cls-5, .cls-9 {
        fill: #fff;
      }

      .cls-3 {
        font-family: ArialMT, Arial;
        font-size: 18px;
      }

      .cls-7 {
        stroke: #1d1d1b;
      }
    </style>
  </defs>
  <path class="cls-9" d="M170.91,408.58c47.75,0,103.87-18.6,178.43-106.98,33.98-40.28,75.47-82.87,127.94-82.87s93.95,42.59,127.94,82.87c74.55,88.38,130.68,106.98,178.43,106.98v15.72H170.91v-15.72"/>
  <line class="cls-5" x1="295.01" y1="357.29" x2="295.01" y2="435.97"/>
  <line class="cls-5" x1="390.04" y1="258.46" x2="390.04" y2="435.97"/>
  <line class="cls-5" x1="529.04" y1="232.77" x2="529.04" y2="435.97"/>
  <line class="cls-5" x1="624.07" y1="322.91" x2="624.07" y2="435.97"/>
  <text class="cls-1" transform="translate(197.18 459.23)"><tspan x="0" y="0">Innovators</tspan></text>
  <g>
    <line class="cls-6" x1="170.91" y1="424.3" x2="785.8" y2="424.3"/>
    <polygon class="cls-2" points="784.34 429.28 792.98 424.3 784.34 419.31 784.34 429.28"/>
  </g>
  <path class="cls-4" d="M170.91,408.58c47.75,0,103.87-18.6,178.43-106.98"/>
  <path class="cls-4" d="M377.4,270.53c-9.9,9.99-19.24,20.61-28.06,31.07"/>
  <path class="cls-4" d="M783.64,408.58c-47.75,0-103.87-18.6-178.43-106.98-33.98-40.28-75.47-82.87-127.94-82.87-38.84,0-71.66,23.34-99.88,51.8"/>
  <g>
    <line class="cls-6" x1="170.9" y1="61.65" x2="170.71" y2="425.08"/>
    <polygon class="cls-2" points="165.92 63.11 170.91 54.48 175.89 63.12 165.92 63.11"/>
  </g>
  <text class="cls-3" transform="translate(159.42 182.38) rotate(-90)"><tspan x="0" y="0">Market share</tspan></text>
  <text class="cls-3" transform="translate(804.25 446.26)"><tspan x="0" y="0">Time</tspan></text>
  <g>
    <path class="cls-2" d="M197.27,304.06l1.37-.19c.04.88.2,1.47.49,1.8s.7.48,1.21.48c.38,0,.71-.09.98-.26s.47-.41.57-.71.16-.78.16-1.43v-7.89h1.52v7.8c0,.96-.12,1.7-.35,2.23s-.6.93-1.1,1.2c-.5.28-1.09.41-1.77.41-1,0-1.77-.29-2.31-.87s-.79-1.44-.77-2.58Z"/>
    <path class="cls-2" d="M205.34,303.16c0-1.54.43-2.67,1.28-3.41.71-.61,1.58-.92,2.61-.92,1.14,0,2.07.37,2.8,1.12s1.09,1.78,1.09,3.1c0,1.07-.16,1.91-.48,2.52s-.79,1.09-1.4,1.43c-.61.34-1.28.51-2,.51-1.16,0-2.1-.37-2.82-1.12s-1.07-1.82-1.07-3.22ZM206.79,303.16c0,1.06.23,1.86.7,2.39s1.05.79,1.75.79,1.28-.27,1.74-.8.7-1.34.7-2.43c0-1.03-.23-1.8-.7-2.33s-1.05-.79-1.74-.79-1.29.26-1.75.79-.7,1.32-.7,2.38Z"/>
    <path class="cls-2" d="M214.77,297.47v-1.62h1.41v1.62h-1.41ZM214.77,307.31v-8.3h1.41v8.3h-1.41Z"/>
    <path class="cls-2" d="M218.32,307.31v-8.3h1.27v1.18c.61-.91,1.49-1.37,2.64-1.37.5,0,.96.09,1.38.27s.73.42.94.71.35.64.44,1.04c.05.26.08.72.08,1.37v5.1h-1.41v-5.05c0-.57-.05-1-.16-1.29s-.3-.51-.58-.68-.61-.25-.98-.25c-.6,0-1.12.19-1.55.57s-.65,1.1-.65,2.16v4.53h-1.41Z"/>
    <path class="cls-2" d="M233.19,307.31l-2.54-8.3h1.45l1.32,4.79.49,1.78c.02-.09.16-.66.43-1.71l1.32-4.86h1.45l1.24,4.81.41,1.59.48-1.6,1.42-4.8h1.37l-2.59,8.3h-1.46l-1.32-4.97-.32-1.41-1.68,6.38h-1.47Z"/>
    <path class="cls-2" d="M243.22,307.31v-11.45h1.41v4.11c.66-.76,1.48-1.14,2.48-1.14.61,0,1.15.12,1.6.36s.78.58.97,1,.29,1.05.29,1.86v5.26h-1.41v-5.26c0-.7-.15-1.21-.46-1.54s-.74-.48-1.29-.48c-.42,0-.81.11-1.18.32s-.63.51-.79.88-.23.88-.23,1.53v4.54h-1.41Z"/>
    <path class="cls-2" d="M257.79,304.63l1.45.18c-.23.85-.65,1.51-1.27,1.98s-1.41.7-2.38.7c-1.21,0-2.18-.37-2.89-1.12s-1.07-1.8-1.07-3.14.36-2.48,1.08-3.25,1.65-1.16,2.8-1.16,2.02.38,2.72,1.13,1.05,1.82,1.05,3.19c0,.08,0,.21,0,.38h-6.19c.05.91.31,1.61.77,2.09s1.04.73,1.73.73c.52,0,.96-.14,1.32-.41s.65-.7.87-1.3ZM253.18,302.36h4.63c-.06-.7-.24-1.22-.53-1.57-.45-.54-1.03-.81-1.74-.81-.65,0-1.19.22-1.63.65s-.68,1.01-.73,1.73Z"/>
    <path class="cls-2" d="M261.01,307.31v-8.3h1.27v1.18c.61-.91,1.49-1.37,2.64-1.37.5,0,.96.09,1.38.27s.73.42.94.71.35.64.44,1.04c.05.26.08.72.08,1.37v5.1h-1.41v-5.05c0-.57-.05-1-.16-1.29s-.3-.51-.58-.68-.61-.25-.98-.25c-.6,0-1.12.19-1.55.57s-.65,1.1-.65,2.16v4.53h-1.41Z"/>
    <path class="cls-2" d="M209,316.67v-1.62h1.41v1.62h-1.41ZM209,326.51v-8.3h1.41v8.3h-1.41Z"/>
    <path class="cls-2" d="M215.62,325.25l.2,1.24c-.4.08-.75.12-1.06.12-.51,0-.91-.08-1.19-.24s-.48-.37-.59-.64-.17-.82-.17-1.66v-4.77h-1.03v-1.09h1.03v-2.05l1.4-.84v2.9h1.41v1.09h-1.41v4.85c0,.4.02.66.07.77s.13.21.24.27.27.1.48.1c.16,0,.36-.02.62-.05Z"/>
    <path class="cls-2" d="M216.43,324.03l1.39-.22c.08.56.3.98.65,1.28s.86.45,1.5.45,1.12-.13,1.44-.39.47-.57.47-.93c0-.32-.14-.57-.41-.75-.19-.12-.67-.28-1.44-.48-1.03-.26-1.75-.49-2.14-.68s-.7-.45-.91-.79-.31-.71-.31-1.11c0-.37.08-.71.25-1.03s.4-.58.69-.79c.22-.16.52-.3.89-.41s.78-.17,1.21-.17c.65,0,1.22.09,1.71.28s.86.44,1.09.76.4.75.48,1.29l-1.38.19c-.06-.43-.24-.76-.54-1s-.72-.36-1.27-.36c-.65,0-1.11.11-1.38.32s-.41.46-.41.75c0,.18.06.35.17.49.11.15.29.28.54.38.14.05.55.17,1.24.36,1,.27,1.69.48,2.08.65s.7.42.93.74.34.72.34,1.2-.14.91-.41,1.32-.67.73-1.18.96-1.1.34-1.75.34c-1.08,0-1.9-.22-2.46-.67s-.93-1.11-1.08-1.99Z"/>
    <path class="cls-2" d="M229.44,326.51v-8.3h1.27v1.18c.61-.91,1.49-1.37,2.64-1.37.5,0,.96.09,1.38.27s.73.42.94.71.35.64.44,1.04c.05.26.08.72.08,1.37v5.1h-1.41v-5.05c0-.57-.05-1-.16-1.29s-.3-.51-.58-.68-.61-.25-.98-.25c-.6,0-1.12.19-1.55.57s-.65,1.1-.65,2.16v4.53h-1.41Z"/>
    <path class="cls-2" d="M244.01,323.83l1.45.18c-.23.85-.65,1.51-1.27,1.98s-1.41.7-2.38.7c-1.21,0-2.18-.37-2.89-1.12s-1.07-1.8-1.07-3.14.36-2.48,1.08-3.25,1.65-1.16,2.8-1.16,2.02.38,2.72,1.13,1.05,1.82,1.05,3.19c0,.08,0,.21,0,.38h-6.19c.05.91.31,1.61.77,2.09s1.04.73,1.73.73c.52,0,.96-.14,1.32-.41s.65-.7.87-1.3ZM239.4,321.56h4.63c-.06-.7-.24-1.22-.53-1.57-.45-.54-1.03-.81-1.74-.81-.65,0-1.19.22-1.63.65s-.68,1.01-.73,1.73Z"/>
    <path class="cls-2" d="M248.76,326.51l-2.54-8.3h1.45l1.32,4.79.49,1.78c.02-.09.16-.66.43-1.71l1.32-4.86h1.45l1.24,4.81.41,1.59.48-1.6,1.42-4.8h1.37l-2.59,8.3h-1.46l-1.32-4.97-.32-1.41-1.68,6.38h-1.47Z"/>
  </g>
  <g>
    <line class="cls-7" x1="232.85" y1="338.39" x2="232.85" y2="408.65"/>
    <path class="cls-8" d="M229.09,408.65c0,2.08,1.68,3.76,3.76,3.76s3.76-1.68,3.76-3.76-1.68-3.76-3.76-3.76-3.76,1.68-3.76,3.76Z"/>
  </g>
</svg>