<?xml version="1.0" encoding="UTF-8"?>
<svg id="layer" xmlns="http://www.w3.org/2000/svg" viewBox="0 0 988 525">
  <defs>
    <style>
      .cls-1 {
        fill: #0333ff;
      }

      .cls-1, .cls-2 {
        font-family: Arial-BoldMT, Arial;
        font-weight: 700;
      }

      .cls-1, .cls-2, .cls-3 {
        font-size: 16px;
      }

      .cls-4, .cls-5 {
        stroke-width: 2px;
      }

      .cls-4, .cls-5, .cls-6 {
        fill: none;
      }

      .cls-4, .cls-6 {
        stroke: #000;
        stroke-miterlimit: 10;
      }

      .cls-7 {
        stroke-width: 0px;
      }

      .cls-7, .cls-8, .cls-2, .cls-3, .cls-9 {
        fill: #000;
      }

      .cls-8 {
        font-size: 18px;
      }

      .cls-8, .cls-3, .cls-9 {
        font-family: ArialMT, Arial;
      }

      .cls-5 {
        stroke: #0333ff;
        stroke-linejoin: round;
      }

      .cls-9 {
        font-size: 12.8px;
      }
    </style>
  </defs>
  <g>
    <g>
      <g>
        <line class="cls-6" x1="175.43" y1="69" x2="175.24" y2="432.43"/>
        <polygon class="cls-7" points="170.44 70.46 175.43 61.83 180.42 70.47 170.44 70.46"/>
      </g>
      <text class="cls-8" transform="translate(163.95 212.77) rotate(-90)"><tspan x="0" y="0">Enabling effects</tspan></text>
      <g>
        <line class="cls-6" x1="538.86" y1="432.42" x2="175.43" y2="432.23"/>
        <polygon class="cls-7" points="537.4 427.44 546.03 432.43 537.4 437.41 537.4 427.44"/>
      </g>
      <text class="cls-8" transform="translate(357.1 457.33)"><tspan x="0" y="0">Productivity increase</tspan></text>
    </g>
    <path class="cls-4" d="M410.4,343.68c0,29.98-54.17,54.29-108.66,54.29s-88.66-24.31-88.66-54.29,54.17-54.29,108.66-54.29,88.66,24.31,88.66,54.29Z"/>
    <path class="cls-5" d="M504.97,210.21c0,62.06-49.93,136.88-114.58,136.88s-106.09-53.44-106.09-115.5,69.84-108.58,120.69-108.58c64.96,0,99.98,25.14,99.98,87.2Z"/>
    <g>
      <text class="cls-9" transform="translate(249.8 366.35)"><tspan x="0" y="0">1</tspan></text>
      <circle class="cls-6" cx="253.36" cy="362.93" r="11.83"/>
    </g>
    <g>
      <text class="cls-9" transform="translate(308.18 347.09)"><tspan x="0" y="0">2</tspan></text>
      <circle class="cls-6" cx="311.74" cy="343.68" r="11.83"/>
    </g>
    <g>
      <text class="cls-9" transform="translate(350.21 313.81)"><tspan x="0" y="0">3</tspan></text>
      <circle class="cls-6" cx="353.77" cy="310.4" r="11.83"/>
    </g>
    <g>
      <text class="cls-9" transform="translate(413.26 298.05)"><tspan x="0" y="0">4</tspan></text>
      <circle class="cls-6" cx="416.82" cy="294.64" r="11.83"/>
    </g>
    <g>
      <text class="cls-9" transform="translate(345.34 241.78)"><tspan x="0" y="0">5</tspan></text>
      <circle class="cls-6" cx="348.9" cy="238.36" r="11.83"/>
    </g>
    <g>
      <text class="cls-9" transform="translate(398.67 206.41)"><tspan x="0" y="0">6</tspan></text>
      <circle class="cls-6" cx="402.23" cy="203" r="11.83"/>
    </g>
    <g>
      <text class="cls-9" transform="translate(459.96 174.29)"><tspan x="0" y="0">7</tspan></text>
      <circle class="cls-6" cx="463.52" cy="170.88" r="11.83"/>
    </g>
    <g>
      <text class="cls-9" transform="translate(652.88 150.63)"><tspan x="0" y="0">1</tspan></text>
      <circle class="cls-6" cx="656.44" cy="147.21" r="11.83"/>
    </g>
    <g>
      <text class="cls-9" transform="translate(652.88 189.8)"><tspan x="0" y="0">2</tspan></text>
      <circle class="cls-6" cx="656.44" cy="186.38" r="11.83"/>
    </g>
    <g>
      <text class="cls-9" transform="translate(652.88 228.97)"><tspan x="0" y="0">3</tspan></text>
      <circle class="cls-6" cx="656.44" cy="225.55" r="11.83"/>
    </g>
    <g>
      <text class="cls-9" transform="translate(652.88 268.14)"><tspan x="0" y="0">4</tspan></text>
      <circle class="cls-6" cx="656.44" cy="264.72" r="11.83"/>
    </g>
    <g>
      <text class="cls-9" transform="translate(652.88 307.31)"><tspan x="0" y="0">5</tspan></text>
      <circle class="cls-6" cx="656.44" cy="303.89" r="11.83"/>
    </g>
    <g>
      <text class="cls-9" transform="translate(652.88 346.47)"><tspan x="0" y="0">6</tspan></text>
      <circle class="cls-6" cx="656.44" cy="343.06" r="11.83"/>
    </g>
    <g>
      <text class="cls-9" transform="translate(652.88 385.64)"><tspan x="0" y="0">7</tspan></text>
      <circle class="cls-6" cx="656.44" cy="382.23" r="11.83"/>
    </g>
    <text class="cls-3" transform="translate(687.44 153.63)"><tspan x="0" y="0">Paper form</tspan></text>
    <text class="cls-3" transform="translate(687.44 192.8)"><tspan x="0" y="0">Note to mom</tspan></text>
    <text class="cls-3" transform="translate(687.44 231.97)"><tspan x="0" y="0">Article</tspan></text>
    <text class="cls-3" transform="translate(687.44 271.14)"><tspan x="0" y="0">Book</tspan></text>
    <text class="cls-3" transform="translate(687.44 310.31)"><tspan x="0" y="0">Edit a movie</tspan></text>
    <text class="cls-3" transform="translate(687.44 349.47)"><tspan x="0" y="0">Email communication</tspan></text>
    <text class="cls-3" transform="translate(687.44 388.64)"><tspan x="0" y="0">Teleconference</tspan></text>
  </g>
  <text class="cls-1" transform="translate(494 123.01)"><tspan x="0" y="0">PC</tspan></text>
  <text class="cls-2" transform="translate(410.4 394.06)"><tspan x="0" y="0">Typewritter</tspan></text>
</svg>