<?xml version="1.0" encoding="UTF-8"?>
<svg id="content" xmlns="http://www.w3.org/2000/svg" viewBox="0 0 988 525">
  <defs>
    <style>
      .cls-1, .cls-2, .cls-3, .cls-4 {
        stroke-miterlimit: 10;
      }

      .cls-1, .cls-3, .cls-4 {
        stroke: #1d1d1b;
      }

      .cls-1, .cls-4 {
        fill: none;
      }

      .cls-5 {
        font-family: Arial-BoldMT, Arial;
        font-size: 18px;
        font-weight: 700;
      }

      .cls-6, .cls-2 {
        fill: #1d1d1b;
      }

      .cls-7 {
        font-family: ArialMT, Arial;
        font-size: 12px;
      }

      .cls-2 {
        stroke: #fff;
      }

      .cls-8 {
        letter-spacing: -.11em;
      }

      .cls-3 {
        fill: #fff;
        stroke-width: 2px;
      }

      .cls-4 {
        stroke-dasharray: 4 4;
      }
    </style>
  </defs>
  <rect class="cls-2" x="151.66" y="239.89" width="140" height="100"/>
  <rect class="cls-2" x="141.66" y="229.89" width="140" height="100"/>
  <text class="cls-7" transform="translate(13.4 264.89)"><tspan x="0" y="0">External audit</tspan><tspan x="4" y="16.4">Internal audit</tspan></text>
  <text class="cls-7" transform="translate(152.52 355.33)"><tspan x="0" y="0">Business, I</tspan><tspan class="cls-8" x="58.69" y="0">T</tspan><tspan x="64.69" y="0">, ...</tspan></text>
  <g>
    <rect class="cls-3" x="131.66" y="219.89" width="140" height="100"/>
    <text class="cls-5" transform="translate(164.17 263.42)"><tspan x="0" y="0">Intended</tspan><tspan x="2.48" y="21.6">strategy</tspan></text>
  </g>
  <g>
    <rect class="cls-3" x="806.82" y="219.89" width="140" height="100"/>
    <g>
      <path d="M840.56,263.42v-12.88h2.6v12.88h-2.6Z"/>
      <path d="M854.11,263.42h-2.47v-4.76c0-1.01-.05-1.66-.16-1.96s-.28-.53-.51-.69-.52-.25-.86-.25c-.43,0-.81.12-1.15.35s-.57.54-.7.93-.19,1.1-.19,2.14v4.23h-2.47v-9.33h2.29v1.37c.81-1.05,1.84-1.58,3.08-1.58.54,0,1.04.1,1.49.29s.79.45,1.02.75.39.65.48,1.04.14.94.14,1.66v5.8Z"/>
      <path d="M860.89,254.09v1.97h-1.69v3.76c0,.76.02,1.21.05,1.33s.11.23.22.31.25.12.42.12c.23,0,.56-.08.99-.24l.21,1.92c-.57.25-1.22.37-1.95.37-.45,0-.85-.07-1.2-.22s-.62-.34-.79-.58-.28-.56-.35-.96c-.05-.29-.08-.87-.08-1.74v-4.07h-1.13v-1.97h1.13v-1.85l2.48-1.44v3.3h1.69Z"/>
      <path d="M868.01,260.45l2.46.41c-.32.9-.82,1.59-1.5,2.06s-1.54.71-2.56.71c-1.62,0-2.82-.53-3.6-1.59-.62-.85-.92-1.92-.92-3.22,0-1.55.4-2.76,1.21-3.63s1.83-1.31,3.07-1.31c1.39,0,2.48.46,3.29,1.38s1.19,2.32,1.15,4.21h-6.19c.02.73.22,1.3.6,1.71s.86.61,1.42.61c.39,0,.71-.11.98-.32s.46-.55.6-1.02ZM868.15,257.96c-.02-.71-.2-1.26-.55-1.63s-.78-.56-1.28-.56c-.54,0-.98.2-1.34.59s-.52.93-.52,1.6h3.69Z"/>
      <path d="M881.11,263.42h-2.47v-4.76c0-1.01-.05-1.66-.16-1.96s-.28-.53-.51-.69-.52-.25-.86-.25c-.43,0-.81.12-1.15.35s-.57.54-.7.93-.19,1.1-.19,2.14v4.23h-2.47v-9.33h2.29v1.37c.81-1.05,1.84-1.58,3.08-1.58.54,0,1.04.1,1.49.29s.79.45,1.02.75.39.65.48,1.04.14.94.14,1.66v5.8Z"/>
      <path d="M892.17,263.42h-2.29v-1.37c-.38.53-.83.93-1.35,1.19s-1.04.39-1.57.39c-1.07,0-1.99-.43-2.76-1.3s-1.15-2.07-1.15-3.62.37-2.78,1.12-3.61,1.68-1.24,2.82-1.24c1.04,0,1.95.43,2.71,1.3v-4.64h2.47v12.88ZM885.58,258.56c0,1,.14,1.72.41,2.16.4.64.96.97,1.67.97.57,0,1.05-.24,1.45-.72s.6-1.21.6-2.17c0-1.07-.19-1.84-.58-2.32s-.88-.71-1.49-.71-1.08.23-1.47.7-.59,1.16-.59,2.09Z"/>
      <path d="M900.01,260.45l2.46.41c-.32.9-.82,1.59-1.5,2.06s-1.54.71-2.56.71c-1.62,0-2.82-.53-3.6-1.59-.62-.85-.92-1.92-.92-3.22,0-1.55.4-2.76,1.21-3.63s1.83-1.31,3.07-1.31c1.39,0,2.48.46,3.29,1.38s1.19,2.32,1.15,4.21h-6.19c.02.73.22,1.3.6,1.71s.86.61,1.42.61c.39,0,.71-.11.98-.32s.46-.55.6-1.02ZM900.16,257.96c-.02-.71-.2-1.26-.55-1.63s-.78-.56-1.28-.56c-.54,0-.98.2-1.34.59s-.52.93-.52,1.6h3.69Z"/>
      <path d="M913.18,263.42h-2.29v-1.37c-.38.53-.83.93-1.35,1.19s-1.04.39-1.57.39c-1.07,0-1.99-.43-2.76-1.3s-1.15-2.07-1.15-3.62.37-2.78,1.12-3.61,1.68-1.24,2.82-1.24c1.04,0,1.95.43,2.71,1.3v-4.64h2.47v12.88ZM906.59,258.56c0,1,.14,1.72.41,2.16.4.64.96.97,1.67.97.57,0,1.05-.24,1.45-.72s.6-1.21.6-2.17c0-1.07-.19-1.84-.58-2.32s-.88-.71-1.49-.71-1.08.23-1.47.7-.59,1.16-.59,2.09Z"/>
      <path d="M835.04,280.23c0-.82.2-1.61.61-2.38s.98-1.35,1.72-1.76,1.57-.61,2.48-.61c1.41,0,2.57.46,3.47,1.38s1.35,2.08,1.35,3.48-.46,2.58-1.37,3.51-2.06,1.39-3.44,1.39c-.86,0-1.67-.19-2.45-.58s-1.37-.95-1.77-1.7-.61-1.66-.61-2.73ZM837.57,280.36c0,.93.22,1.63.66,2.13s.98.74,1.63.74,1.19-.25,1.62-.74.65-1.21.65-2.14-.22-1.62-.65-2.11-.98-.74-1.62-.74-1.19.25-1.63.74-.66,1.2-.66,2.13Z"/>
      <path d="M852.75,285.02v-1.4c-.34.5-.79.89-1.34,1.18s-1.14.43-1.75.43-1.19-.14-1.69-.41-.86-.66-1.08-1.16-.33-1.19-.33-2.07v-5.91h2.47v4.29c0,1.31.05,2.12.14,2.41s.26.53.5.7.54.26.91.26c.42,0,.8-.12,1.13-.35s.56-.52.69-.86.18-1.18.18-2.52v-3.94h2.47v9.33h-2.29Z"/>
      <path d="M861.88,275.69v1.97h-1.69v3.76c0,.76.02,1.21.05,1.33s.11.23.22.31.25.12.42.12c.23,0,.56-.08.99-.24l.21,1.92c-.57.25-1.22.37-1.95.37-.45,0-.85-.08-1.2-.22s-.62-.34-.79-.58-.28-.56-.35-.96c-.05-.29-.08-.87-.08-1.74v-4.07h-1.13v-1.97h1.13v-1.85l2.48-1.44v3.3h1.69Z"/>
      <path d="M871.73,278.45l-2.43.44c-.08-.49-.27-.85-.56-1.1s-.67-.37-1.13-.37c-.62,0-1.11.21-1.47.64s-.55,1.14-.55,2.13c0,1.11.19,1.89.56,2.35s.87.69,1.5.69c.47,0,.85-.13,1.15-.4s.51-.72.63-1.38l2.43.41c-.25,1.11-.74,1.95-1.45,2.52s-1.67.85-2.87.85c-1.37,0-2.45-.43-3.27-1.29s-1.22-2.05-1.22-3.58.41-2.74,1.22-3.6,1.92-1.29,3.3-1.29c1.14,0,2.04.24,2.71.73s1.15,1.24,1.45,2.24Z"/>
      <path d="M873.03,280.23c0-.82.2-1.61.61-2.38s.98-1.35,1.72-1.76,1.57-.61,2.48-.61c1.41,0,2.57.46,3.47,1.38s1.35,2.08,1.35,3.48-.46,2.58-1.37,3.51-2.06,1.39-3.44,1.39c-.86,0-1.67-.19-2.45-.58s-1.37-.95-1.77-1.7-.61-1.66-.61-2.73ZM875.56,280.36c0,.93.22,1.63.66,2.13s.98.74,1.63.74,1.19-.25,1.62-.74.65-1.21.65-2.14-.22-1.62-.65-2.11-.98-.74-1.62-.74-1.19.25-1.63.74-.66,1.2-.66,2.13Z"/>
      <path d="M884.41,275.69h2.28v1.27c.81-.99,1.78-1.49,2.91-1.49.6,0,1.12.12,1.56.37s.8.62,1.08,1.12c.41-.5.85-.87,1.33-1.12s.98-.37,1.52-.37c.69,0,1.27.14,1.74.42s.83.69,1.06,1.23c.17.4.25,1.04.25,1.93v5.97h-2.47v-5.33c0-.93-.08-1.52-.25-1.79-.23-.35-.58-.53-1.05-.53-.35,0-.67.11-.98.32s-.52.52-.66.93-.2,1.05-.2,1.93v4.48h-2.47v-5.12c0-.91-.04-1.49-.13-1.76s-.22-.46-.41-.59-.44-.19-.75-.19c-.38,0-.72.1-1.03.31s-.52.5-.65.89-.2,1.03-.2,1.92v4.54h-2.47v-9.33Z"/>
      <path d="M906.01,282.05l2.46.41c-.32.9-.82,1.59-1.5,2.06s-1.54.71-2.56.71c-1.62,0-2.82-.53-3.6-1.59-.62-.85-.92-1.92-.92-3.22,0-1.55.4-2.76,1.21-3.63s1.83-1.31,3.07-1.31c1.39,0,2.48.46,3.29,1.38s1.19,2.32,1.15,4.21h-6.19c.02.73.22,1.3.6,1.71s.86.61,1.42.61c.39,0,.71-.11.98-.32s.46-.55.6-1.02ZM906.15,279.56c-.02-.71-.2-1.26-.55-1.63s-.78-.56-1.28-.56c-.54,0-.98.2-1.34.59s-.52.93-.52,1.6h3.69Z"/>
      <path d="M909.74,282.36l2.48-.38c.11.48.32.84.64,1.09s.77.37,1.35.37c.64,0,1.12-.12,1.44-.35.22-.16.33-.38.33-.66,0-.19-.06-.34-.18-.47-.12-.12-.4-.23-.83-.33-1.99-.44-3.25-.84-3.79-1.2-.74-.5-1.11-1.2-1.11-2.1,0-.81.32-1.49.96-2.04s1.63-.83,2.97-.83,2.23.21,2.85.62,1.05,1.03,1.28,1.85l-2.33.43c-.1-.36-.29-.64-.57-.83s-.68-.29-1.19-.29c-.65,0-1.12.09-1.4.27-.19.13-.28.3-.28.5,0,.18.08.33.25.45.22.16.99.4,2.31.69s2.23.67,2.76,1.1c.52.44.77,1.05.77,1.84,0,.86-.36,1.59-1.07,2.21s-1.77.92-3.17.92c-1.27,0-2.28-.26-3.02-.77s-1.23-1.22-1.45-2.1Z"/>
    </g>
  </g>
  <g>
    <line class="cls-1" x1="104.67" y1="269.63" x2="119.53" y2="269.63"/>
    <polygon class="cls-6" points="118.44 273.37 124.91 269.63 118.44 265.89 118.44 273.37"/>
  </g>
  <g>
    <line class="cls-4" x1="271.66" y1="269.89" x2="801.44" y2="269.89"/>
    <polygon class="cls-6" points="800.35 273.63 806.82 269.89 800.35 266.15 800.35 273.63"/>
  </g>
</svg>