<?xml version="1.0" encoding="UTF-8"?>
<svg id="maturity" xmlns="http://www.w3.org/2000/svg" viewBox="0 0 988 525">
  <defs>
    <style>
      .cls-1 {
        font-size: 18px;
      }

      .cls-1, .cls-2, .cls-3 {
        font-family: ArialMT, Arial;
      }

      .cls-2 {
        font-size: 14px;
      }

      .cls-4 {
        stroke: #000;
      }

      .cls-4, .cls-5 {
        fill: none;
        stroke-miterlimit: 10;
      }

      .cls-3 {
        fill: #0333ff;
        font-size: 20px;
      }

      .cls-5 {
        stroke: #0333ff;
      }

      .cls-6 {
        letter-spacing: -.01em;
      }

      .cls-7 {
        letter-spacing: 0em;
      }

      .cls-8 {
        letter-spacing: 0em;
      }

      .cls-9 {
        letter-spacing: 0em;
      }

      .cls-10 {
        letter-spacing: 0em;
      }

      .cls-11 {
        letter-spacing: 0em;
      }

      .cls-12 {
        letter-spacing: -.01em;
      }

      .cls-13 {
        letter-spacing: -.01em;
      }

      .cls-14 {
        letter-spacing: 0em;
      }

      .cls-15 {
        letter-spacing: 0em;
      }

      .cls-16 {
        letter-spacing: 0em;
      }

      .cls-17 {
        letter-spacing: 0em;
      }

      .cls-18 {
        letter-spacing: 0em;
      }

      .cls-19 {
        letter-spacing: 0em;
      }

      .cls-20 {
        letter-spacing: 0em;
      }

      .cls-21 {
        letter-spacing: 0em;
      }

      .cls-22 {
        letter-spacing: 0em;
      }

      .cls-23 {
        letter-spacing: 0em;
      }
    </style>
  </defs>
  <text class="cls-2" transform="translate(144.53 73.37)"><tspan class="cls-20" x="0" y="0">S</tspan><tspan class="cls-19" x="9.29" y="0">o</tspan><tspan class="cls-22" x="17.06" y="0">c</tspan><tspan class="cls-7" x="24.11" y="0">i</tspan><tspan class="cls-16" x="27.12" y="0">a</tspan><tspan x="34.8" y="0">l </tspan><tspan class="cls-9" x="41.8" y="0">C</tspan><tspan class="cls-14" x="51.84" y="0">a</tspan><tspan class="cls-8" x="59.51" y="0">p</tspan><tspan class="cls-15" x="67.21" y="0">i</tspan><tspan class="cls-23" x="70.2" y="0">t</tspan><tspan class="cls-16" x="74.14" y="0">a</tspan><tspan x="81.82" y="0">l</tspan></text>
  <g>
    <path d="M418.03,61.86l1.33.33c-.28,1.09-.78,1.92-1.5,2.49-.72.57-1.61.86-2.65.86s-1.96-.22-2.64-.66c-.68-.44-1.19-1.08-1.54-1.91-.35-.83-.53-1.73-.53-2.69,0-1.04.2-1.96.6-2.73.4-.78.97-1.37,1.7-1.77.74-.4,1.55-.61,2.43-.61,1,0,1.85.26,2.53.77.68.51,1.16,1.23,1.43,2.15l-1.31.31c-.23-.73-.57-1.26-1.01-1.59-.44-.33-1-.5-1.67-.5-.77,0-1.41.19-1.93.55-.52.37-.88.86-1.09,1.49s-.31,1.26-.31,1.92c0,.85.12,1.6.37,2.23.25.64.63,1.11,1.16,1.43s1.09.47,1.7.47c.74,0,1.37-.21,1.89-.64.51-.43.86-1.06,1.05-1.91Z"/>
    <path d="M420.42,61.74c0-1.34.37-2.34,1.12-2.99.62-.54,1.39-.81,2.28-.81,1,0,1.81.33,2.45.98s.95,1.56.95,2.71c0,.93-.14,1.67-.42,2.2-.28.54-.69.95-1.22,1.25-.54.3-1.12.45-1.75.45-1.02,0-1.84-.33-2.46-.98-.63-.65-.94-1.59-.94-2.82ZM421.69,61.74c0,.93.2,1.63.61,2.09s.92.69,1.53.69,1.12-.23,1.52-.7.61-1.17.61-2.13c0-.9-.2-1.58-.61-2.04-.41-.46-.92-.69-1.52-.69s-1.13.23-1.53.69c-.41.46-.61,1.15-.61,2.08Z"/>
    <path d="M428.61,65.37v-7.26h1.1v1.02c.23-.36.53-.64.91-.86s.81-.32,1.29-.32c.54,0,.98.11,1.32.33.34.22.59.54.73.94.57-.85,1.32-1.27,2.24-1.27.72,0,1.27.2,1.66.6s.58,1.01.58,1.84v4.98h-1.22v-4.57c0-.49-.04-.85-.12-1.06-.08-.22-.22-.39-.43-.52-.21-.13-.46-.2-.74-.2-.51,0-.93.17-1.27.51s-.51.88-.51,1.63v4.22h-1.23v-4.72c0-.55-.1-.96-.3-1.23s-.53-.41-.98-.41c-.35,0-.67.09-.96.27-.29.18-.51.45-.64.8-.13.35-.2.86-.2,1.52v3.77h-1.23Z"/>
    <path d="M441.31,65.37h-1.14v-10.02h1.23v3.57c.52-.65,1.18-.98,1.99-.98.45,0,.87.09,1.27.27.4.18.73.43.98.76.26.33.46.72.6,1.18.15.46.22.95.22,1.48,0,1.24-.31,2.21-.92,2.88-.62.68-1.35,1.02-2.21,1.02s-1.53-.36-2.02-1.07v.91ZM441.3,61.69c0,.87.12,1.5.36,1.89.39.63.91.95,1.57.95.54,0,1-.23,1.39-.7s.59-1.16.59-2.09-.19-1.65-.56-2.1c-.38-.45-.83-.68-1.36-.68s-1,.23-1.39.7-.59,1.14-.59,2.03Z"/>
    <path d="M447.87,56.77v-1.41h1.23v1.41h-1.23ZM447.87,65.37v-7.26h1.23v7.26h-1.23Z"/>
    <path d="M450.86,65.37v-7.26h1.11v1.03c.53-.8,1.3-1.2,2.31-1.2.44,0,.84.08,1.21.24.37.16.64.36.82.62.18.26.31.56.38.91.05.23.07.63.07,1.2v4.46h-1.23v-4.42c0-.5-.05-.88-.14-1.12s-.27-.45-.51-.59c-.24-.15-.53-.22-.86-.22-.52,0-.98.17-1.36.5-.38.33-.57.96-.57,1.89v3.96h-1.23Z"/>
    <path d="M463.26,64.48c-.46.39-.89.66-1.32.82-.42.16-.87.24-1.36.24-.8,0-1.41-.2-1.84-.58s-.64-.89-.64-1.49c0-.36.08-.68.24-.97.16-.29.37-.53.64-.71.26-.18.56-.31.88-.4.24-.06.61-.12,1.09-.18.99-.12,1.72-.26,2.19-.42,0-.17,0-.28,0-.32,0-.5-.12-.85-.35-1.06-.31-.28-.78-.42-1.4-.42-.58,0-1.01.1-1.28.3-.28.2-.48.56-.61,1.08l-1.2-.16c.11-.51.29-.93.54-1.25s.61-.56,1.09-.73,1.02-.26,1.65-.26,1.12.07,1.51.22c.39.15.67.33.85.55s.31.5.38.84c.04.21.06.59.06,1.13v1.64c0,1.14.03,1.87.08,2.17.05.3.16.59.31.87h-1.29c-.13-.26-.21-.55-.25-.9ZM463.16,61.73c-.45.18-1.12.34-2.01.46-.51.07-.86.16-1.07.25-.21.09-.37.22-.49.4s-.17.37-.17.58c0,.33.12.6.37.82.25.22.61.33,1.09.33s.9-.1,1.26-.31.64-.49.81-.85c.13-.28.2-.69.2-1.23v-.45Z"/>
    <path d="M468.81,64.27l.18,1.09c-.35.07-.66.11-.93.11-.45,0-.79-.07-1.04-.21-.25-.14-.42-.33-.52-.56s-.15-.71-.15-1.45v-4.18h-.9v-.96h.9v-1.8l1.22-.74v2.54h1.24v.96h-1.24v4.24c0,.35.02.58.07.68.04.1.11.18.21.24.1.06.24.09.42.09.14,0,.32-.02.54-.05Z"/>
    <path d="M469.98,56.77v-1.41h1.23v1.41h-1.23ZM469.98,65.37v-7.26h1.23v7.26h-1.23Z"/>
    <path d="M472.59,61.74c0-1.34.37-2.34,1.12-2.99.62-.54,1.39-.81,2.28-.81,1,0,1.81.33,2.45.98s.95,1.56.95,2.71c0,.93-.14,1.67-.42,2.2-.28.54-.69.95-1.22,1.25-.54.3-1.12.45-1.75.45-1.02,0-1.84-.33-2.46-.98-.63-.65-.94-1.59-.94-2.82ZM473.85,61.74c0,.93.2,1.63.61,2.09s.92.69,1.53.69,1.12-.23,1.52-.7.61-1.17.61-2.13c0-.9-.2-1.58-.61-2.04-.41-.46-.92-.69-1.52-.69s-1.13.23-1.53.69c-.41.46-.61,1.15-.61,2.08Z"/>
    <path d="M480.78,65.37v-7.26h1.11v1.03c.53-.8,1.3-1.2,2.31-1.2.44,0,.84.08,1.21.24.37.16.64.36.82.62.18.26.31.56.38.91.05.23.07.63.07,1.2v4.46h-1.23v-4.42c0-.5-.05-.88-.14-1.12s-.27-.45-.51-.59c-.24-.15-.53-.22-.86-.22-.52,0-.98.17-1.36.5-.38.33-.57.96-.57,1.89v3.96h-1.23Z"/>
    <path d="M497.19,64.48c-.46.39-.89.66-1.32.82-.42.16-.87.24-1.36.24-.8,0-1.41-.2-1.84-.58s-.64-.89-.64-1.49c0-.36.08-.68.24-.97.16-.29.37-.53.64-.71.26-.18.56-.31.88-.4.24-.06.61-.12,1.09-.18.99-.12,1.72-.26,2.19-.42,0-.17,0-.28,0-.32,0-.5-.12-.85-.35-1.06-.31-.28-.78-.42-1.4-.42-.58,0-1.01.1-1.28.3-.28.2-.48.56-.61,1.08l-1.2-.16c.11-.51.29-.93.54-1.25s.61-.56,1.09-.73,1.02-.26,1.65-.26,1.12.07,1.51.22c.39.15.67.33.85.55s.31.5.38.84c.04.21.06.59.06,1.13v1.64c0,1.14.03,1.87.08,2.17.05.3.16.59.31.87h-1.29c-.13-.26-.21-.55-.25-.9ZM497.09,61.73c-.45.18-1.12.34-2.01.46-.51.07-.86.16-1.07.25-.21.09-.37.22-.49.4s-.17.37-.17.58c0,.33.12.6.37.82.25.22.61.33,1.09.33s.9-.1,1.26-.31.64-.49.81-.85c.13-.28.2-.69.2-1.23v-.45Z"/>
    <path d="M500.12,65.37v-7.26h1.11v1.03c.53-.8,1.3-1.2,2.31-1.2.44,0,.84.08,1.21.24.37.16.64.36.82.62.18.26.31.56.38.91.05.23.07.63.07,1.2v4.46h-1.23v-4.42c0-.5-.05-.88-.14-1.12s-.27-.45-.51-.59c-.24-.15-.53-.22-.86-.22-.52,0-.98.17-1.36.5-.38.33-.57.96-.57,1.89v3.96h-1.23Z"/>
    <path d="M512.54,65.37v-.92c-.46.72-1.14,1.08-2.03,1.08-.58,0-1.11-.16-1.6-.48-.48-.32-.86-.77-1.13-1.34-.27-.57-.4-1.23-.4-1.97s.12-1.38.36-1.97.6-1.04,1.09-1.36,1.02-.47,1.62-.47c.44,0,.83.09,1.17.28s.62.42.83.72v-3.6h1.22v10.02h-1.14ZM508.65,61.75c0,.93.2,1.62.59,2.08.39.46.85.69,1.39.69s.99-.22,1.37-.66c.38-.44.56-1.11.56-2.01,0-.99-.19-1.72-.57-2.19s-.85-.7-1.42-.7-1,.22-1.37.67c-.37.45-.55,1.15-.55,2.11Z"/>
    <path d="M524.47,63.04l1.27.16c-.2.74-.57,1.32-1.11,1.73s-1.24.62-2.08.62c-1.06,0-1.9-.33-2.53-.98-.62-.65-.93-1.57-.93-2.75s.31-2.17.94-2.84c.63-.67,1.44-1.01,2.45-1.01s1.76.33,2.38.99c.62.66.92,1.59.92,2.79,0,.07,0,.18,0,.33h-5.41c.05.8.27,1.41.68,1.83s.91.64,1.52.64c.45,0,.84-.12,1.16-.36.32-.24.57-.62.76-1.13ZM520.43,61.05h4.05c-.05-.61-.21-1.07-.46-1.37-.39-.47-.9-.71-1.52-.71-.57,0-1.04.19-1.42.57-.39.38-.6.88-.64,1.52Z"/>
    <path d="M526.08,65.37l2.65-3.77-2.45-3.49h1.54l1.11,1.7c.21.32.38.6.51.81.2-.3.38-.57.55-.8l1.22-1.71h1.47l-2.51,3.42,2.7,3.84h-1.51l-1.49-2.26-.4-.61-1.91,2.87h-1.49Z"/>
    <path d="M538.27,62.71l1.21.16c-.13.83-.47,1.49-1.01,1.96-.54.47-1.21.71-2.01.71-.99,0-1.79-.33-2.4-.97-.6-.65-.91-1.58-.91-2.79,0-.78.13-1.47.39-2.06s.66-1.03,1.19-1.32c.53-.29,1.11-.44,1.73-.44.79,0,1.43.2,1.93.6s.82.96.96,1.7l-1.2.18c-.11-.49-.32-.85-.6-1.1-.29-.25-.64-.37-1.05-.37-.62,0-1.12.22-1.51.67s-.58,1.15-.58,2.11.19,1.68.56,2.12c.37.44.86.66,1.46.66.48,0,.89-.15,1.21-.45.32-.3.53-.75.62-1.37Z"/>
    <path d="M540.58,65.37v-10.02h1.23v3.6c.57-.67,1.3-1,2.17-1,.54,0,1,.11,1.4.32s.68.5.85.88c.17.37.26.92.26,1.63v4.6h-1.23v-4.6c0-.62-.13-1.06-.4-1.34-.27-.28-.64-.42-1.13-.42-.36,0-.71.1-1.03.28-.32.19-.55.45-.69.77-.14.32-.21.77-.21,1.34v3.97h-1.23Z"/>
    <path d="M552.99,64.48c-.46.39-.89.66-1.32.82-.42.16-.87.24-1.36.24-.8,0-1.41-.2-1.84-.58s-.64-.89-.64-1.49c0-.36.08-.68.24-.97.16-.29.37-.53.64-.71.26-.18.56-.31.88-.4.24-.06.61-.12,1.09-.18.99-.12,1.72-.26,2.19-.42,0-.17,0-.28,0-.32,0-.5-.12-.85-.35-1.06-.31-.28-.78-.42-1.4-.42-.58,0-1.01.1-1.28.3-.28.2-.48.56-.61,1.08l-1.2-.16c.11-.51.29-.93.54-1.25s.61-.56,1.09-.73,1.02-.26,1.65-.26,1.12.07,1.51.22c.39.15.67.33.85.55s.31.5.38.84c.04.21.06.59.06,1.13v1.64c0,1.14.03,1.87.08,2.17.05.3.16.59.31.87h-1.29c-.13-.26-.21-.55-.25-.9ZM552.89,61.73c-.45.18-1.12.34-2.01.46-.51.07-.86.16-1.07.25-.21.09-.37.22-.49.4s-.17.37-.17.58c0,.33.12.6.37.82.25.22.61.33,1.09.33s.9-.1,1.26-.31.64-.49.81-.85c.13-.28.2-.69.2-1.23v-.45Z"/>
    <path d="M555.92,65.37v-7.26h1.11v1.03c.53-.8,1.3-1.2,2.31-1.2.44,0,.84.08,1.21.24.37.16.64.36.82.62.18.26.31.56.38.91.05.23.07.63.07,1.2v4.46h-1.23v-4.42c0-.5-.05-.88-.14-1.12s-.27-.45-.51-.59c-.24-.15-.53-.22-.86-.22-.52,0-.98.17-1.36.5-.38.33-.57.96-.57,1.89v3.96h-1.23Z"/>
    <path d="M563.39,65.98l1.2.18c.05.37.19.64.42.81.31.23.72.34,1.25.34.57,0,1.01-.11,1.32-.34.31-.23.52-.55.63-.96.06-.25.09-.78.09-1.58-.54.63-1.21.95-2.01.95-1,0-1.77-.36-2.32-1.08-.55-.72-.82-1.58-.82-2.59,0-.69.12-1.33.38-1.92s.61-1.04,1.09-1.36c.48-.32,1.04-.48,1.68-.48.86,0,1.56.35,2.12,1.04v-.88h1.13v6.28c0,1.13-.12,1.93-.35,2.4-.23.47-.59.84-1.09,1.12-.5.27-1.11.41-1.84.41-.87,0-1.57-.19-2.1-.58s-.79-.98-.77-1.76ZM564.41,61.61c0,.95.19,1.65.57,2.08s.85.66,1.42.66,1.04-.22,1.42-.65.57-1.12.57-2.05-.2-1.56-.59-2.01c-.39-.45-.87-.68-1.42-.68s-1.01.22-1.39.67-.57,1.1-.57,1.98Z"/>
    <path d="M576.31,63.04l1.27.16c-.2.74-.57,1.32-1.11,1.73s-1.24.62-2.08.62c-1.06,0-1.9-.33-2.53-.98-.62-.65-.93-1.57-.93-2.75s.31-2.17.94-2.84c.63-.67,1.44-1.01,2.45-1.01s1.76.33,2.38.99c.62.66.92,1.59.92,2.79,0,.07,0,.18,0,.33h-5.41c.05.8.27,1.41.68,1.83s.91.64,1.52.64c.45,0,.84-.12,1.16-.36.32-.24.57-.62.76-1.13ZM572.27,61.05h4.05c-.05-.61-.21-1.07-.46-1.37-.39-.47-.9-.71-1.52-.71-.57,0-1.04.19-1.42.57-.39.38-.6.88-.64,1.52Z"/>
    <path d="M432.2,77.74c0-1.34.37-2.34,1.12-2.99.62-.54,1.39-.81,2.28-.81,1,0,1.81.33,2.45.98s.95,1.56.95,2.71c0,.93-.14,1.67-.42,2.2-.28.54-.69.95-1.22,1.25-.54.3-1.12.45-1.75.45-1.02,0-1.84-.33-2.46-.98-.63-.65-.94-1.59-.94-2.82ZM433.47,77.74c0,.93.2,1.63.61,2.09s.92.69,1.53.69,1.12-.23,1.52-.7.61-1.17.61-2.13c0-.9-.2-1.58-.61-2.04-.41-.46-.92-.69-1.52-.69s-1.13.23-1.53.69c-.41.46-.61,1.15-.61,2.08Z"/>
    <path d="M440.56,81.37v-6.3h-1.09v-.96h1.09v-.77c0-.49.04-.85.13-1.09.12-.32.33-.58.63-.78.3-.2.72-.3,1.25-.3.35,0,.73.04,1.15.12l-.18,1.07c-.25-.05-.5-.07-.72-.07-.37,0-.64.08-.79.24-.16.16-.23.46-.23.9v.67h1.42v.96h-1.42v6.3h-1.22Z"/>
    <path d="M448.05,72.77v-1.41h1.23v1.41h-1.23ZM448.05,81.37v-7.26h1.23v7.26h-1.23Z"/>
    <path d="M451.04,81.37v-7.26h1.11v1.03c.53-.8,1.3-1.2,2.31-1.2.44,0,.84.08,1.21.24.37.16.64.36.82.62.18.26.31.56.38.91.05.23.07.63.07,1.2v4.46h-1.23v-4.42c0-.5-.05-.88-.14-1.12s-.27-.45-.51-.59c-.24-.15-.53-.22-.86-.22-.52,0-.98.17-1.36.5-.38.33-.57.96-.57,1.89v3.96h-1.23Z"/>
    <path d="M461.29,80.27l.18,1.09c-.35.07-.66.11-.93.11-.45,0-.79-.07-1.04-.21-.25-.14-.42-.33-.52-.56s-.15-.71-.15-1.45v-4.18h-.9v-.96h.9v-1.8l1.22-.74v2.54h1.24v.96h-1.24v4.24c0,.35.02.58.07.68.04.1.11.18.21.24.1.06.24.09.42.09.14,0,.32-.02.54-.05Z"/>
    <path d="M467.26,79.04l1.27.16c-.2.74-.57,1.32-1.11,1.73s-1.24.62-2.08.62c-1.06,0-1.9-.33-2.53-.98-.62-.65-.93-1.57-.93-2.75s.31-2.17.94-2.84c.63-.67,1.44-1.01,2.45-1.01s1.76.33,2.38.99c.62.66.92,1.59.92,2.79,0,.07,0,.18,0,.33h-5.41c.05.8.27,1.41.68,1.83s.91.64,1.52.64c.45,0,.84-.12,1.16-.36.32-.24.57-.62.76-1.13ZM463.22,77.05h4.05c-.05-.61-.21-1.07-.46-1.37-.39-.47-.9-.71-1.52-.71-.57,0-1.04.19-1.42.57-.39.38-.6.88-.64,1.52Z"/>
    <path d="M469.99,81.37v-10.02h1.23v10.02h-1.23Z"/>
    <path d="M472.98,81.37v-10.02h1.23v10.02h-1.23Z"/>
    <path d="M481.01,79.04l1.27.16c-.2.74-.57,1.32-1.11,1.73s-1.24.62-2.08.62c-1.06,0-1.9-.33-2.53-.98-.62-.65-.93-1.57-.93-2.75s.31-2.17.94-2.84c.63-.67,1.44-1.01,2.45-1.01s1.76.33,2.38.99c.62.66.92,1.59.92,2.79,0,.07,0,.18,0,.33h-5.41c.05.8.27,1.41.68,1.83s.91.64,1.52.64c.45,0,.84-.12,1.16-.36.32-.24.57-.62.76-1.13ZM476.97,77.05h4.05c-.05-.61-.21-1.07-.46-1.37-.39-.47-.9-.71-1.52-.71-.57,0-1.04.19-1.42.57-.39.38-.6.88-.64,1.52Z"/>
    <path d="M488.51,78.71l1.21.16c-.13.83-.47,1.49-1.01,1.96-.54.47-1.21.71-2.01.71-.99,0-1.79-.33-2.4-.97-.6-.65-.91-1.58-.91-2.79,0-.78.13-1.47.39-2.06s.66-1.03,1.19-1.32c.53-.29,1.11-.44,1.73-.44.79,0,1.43.2,1.93.6s.82.96.96,1.7l-1.2.18c-.11-.49-.32-.85-.6-1.1-.29-.25-.64-.37-1.05-.37-.62,0-1.12.22-1.51.67s-.58,1.15-.58,2.11.19,1.68.56,2.12c.37.44.86.66,1.46.66.48,0,.89-.15,1.21-.45.32-.3.53-.75.62-1.37Z"/>
    <path d="M493.5,80.27l.18,1.09c-.35.07-.66.11-.93.11-.45,0-.79-.07-1.04-.21-.25-.14-.42-.33-.52-.56s-.15-.71-.15-1.45v-4.18h-.9v-.96h.9v-1.8l1.22-.74v2.54h1.24v.96h-1.24v4.24c0,.35.02.58.07.68.04.1.11.18.21.24.1.06.24.09.42.09.14,0,.32-.02.54-.05Z"/>
    <path d="M499.36,81.37v-1.07c-.57.82-1.33,1.23-2.3,1.23-.43,0-.83-.08-1.2-.25-.37-.16-.65-.37-.83-.62-.18-.25-.31-.55-.38-.91-.05-.24-.08-.62-.08-1.15v-4.5h1.23v4.03c0,.64.03,1.08.08,1.3.08.32.24.58.49.76s.56.28.93.28.72-.09,1.04-.28.55-.45.69-.77c.13-.33.2-.8.2-1.42v-3.89h1.23v7.26h-1.1Z"/>
    <path d="M507,80.48c-.46.39-.89.66-1.32.82-.42.16-.87.24-1.36.24-.8,0-1.41-.2-1.84-.58s-.64-.89-.64-1.49c0-.36.08-.68.24-.97.16-.29.37-.53.64-.71.26-.18.56-.31.88-.4.24-.06.61-.12,1.09-.18.99-.12,1.72-.26,2.19-.42,0-.17,0-.28,0-.32,0-.5-.12-.85-.35-1.06-.31-.28-.78-.42-1.4-.42-.58,0-1.01.1-1.28.3-.28.2-.48.56-.61,1.08l-1.2-.16c.11-.51.29-.93.54-1.25s.61-.56,1.09-.73,1.02-.26,1.65-.26,1.12.07,1.51.22c.39.15.67.33.85.55s.31.5.38.84c.04.21.06.59.06,1.13v1.64c0,1.14.03,1.87.08,2.17.05.3.16.59.31.87h-1.29c-.13-.26-.21-.55-.25-.9ZM506.9,77.73c-.45.18-1.12.34-2.01.46-.51.07-.86.16-1.07.25-.21.09-.37.22-.49.4s-.17.37-.17.58c0,.33.12.6.37.82.25.22.61.33,1.09.33s.9-.1,1.26-.31.64-.49.81-.85c.13-.28.2-.69.2-1.23v-.45Z"/>
    <path d="M509.92,81.37v-10.02h1.23v10.02h-1.23Z"/>
    <path d="M521.68,78.71l1.21.16c-.13.83-.47,1.49-1.01,1.96-.54.47-1.21.71-2.01.71-.99,0-1.79-.33-2.4-.97-.6-.65-.91-1.58-.91-2.79,0-.78.13-1.47.39-2.06s.66-1.03,1.19-1.32c.53-.29,1.11-.44,1.73-.44.79,0,1.43.2,1.93.6s.82.96.96,1.7l-1.2.18c-.11-.49-.32-.85-.6-1.1-.29-.25-.64-.37-1.05-.37-.62,0-1.12.22-1.51.67s-.58,1.15-.58,2.11.19,1.68.56,2.12c.37.44.86.66,1.46.66.48,0,.89-.15,1.21-.45.32-.3.53-.75.62-1.37Z"/>
    <path d="M528.83,80.48c-.46.39-.89.66-1.32.82-.42.16-.87.24-1.36.24-.8,0-1.41-.2-1.84-.58s-.64-.89-.64-1.49c0-.36.08-.68.24-.97.16-.29.37-.53.64-.71.26-.18.56-.31.88-.4.24-.06.61-.12,1.09-.18.99-.12,1.72-.26,2.19-.42,0-.17,0-.28,0-.32,0-.5-.12-.85-.35-1.06-.31-.28-.78-.42-1.4-.42-.58,0-1.01.1-1.28.3-.28.2-.48.56-.61,1.08l-1.2-.16c.11-.51.29-.93.54-1.25s.61-.56,1.09-.73,1.02-.26,1.65-.26,1.12.07,1.51.22c.39.15.67.33.85.55s.31.5.38.84c.04.21.06.59.06,1.13v1.64c0,1.14.03,1.87.08,2.17.05.3.16.59.31.87h-1.29c-.13-.26-.21-.55-.25-.9ZM528.73,77.73c-.45.18-1.12.34-2.01.46-.51.07-.86.16-1.07.25-.21.09-.37.22-.49.4s-.17.37-.17.58c0,.33.12.6.37.82.25.22.61.33,1.09.33s.9-.1,1.26-.31.64-.49.81-.85c.13-.28.2-.69.2-1.23v-.45Z"/>
    <path d="M531.76,84.16v-10.04h1.12v.94c.26-.37.56-.65.9-.83s.74-.28,1.21-.28c.62,0,1.17.16,1.64.48.47.32.83.77,1.07,1.35s.36,1.22.36,1.91c0,.74-.13,1.41-.4,2.01-.27.59-.65,1.05-1.16,1.37-.51.32-1.04.48-1.6.48-.41,0-.78-.09-1.1-.26-.33-.17-.59-.39-.8-.66v3.53h-1.23ZM532.88,77.78c0,.93.19,1.62.57,2.07.38.45.84.67,1.37.67s1.02-.23,1.4-.69c.39-.46.58-1.18.58-2.15s-.19-1.62-.57-2.08c-.38-.46-.83-.69-1.36-.69s-.99.25-1.39.74c-.4.49-.61,1.2-.61,2.14Z"/>
    <path d="M539.47,72.77v-1.41h1.23v1.41h-1.23ZM539.47,81.37v-7.26h1.23v7.26h-1.23Z"/>
    <path d="M545.14,80.27l.18,1.09c-.35.07-.66.11-.93.11-.45,0-.79-.07-1.04-.21-.25-.14-.42-.33-.52-.56s-.15-.71-.15-1.45v-4.18h-.9v-.96h.9v-1.8l1.22-.74v2.54h1.24v.96h-1.24v4.24c0,.35.02.58.07.68.04.1.11.18.21.24.1.06.24.09.42.09.14,0,.32-.02.54-.05Z"/>
    <path d="M551.14,80.48c-.46.39-.89.66-1.32.82-.42.16-.87.24-1.36.24-.8,0-1.41-.2-1.84-.58s-.64-.89-.64-1.49c0-.36.08-.68.24-.97.16-.29.37-.53.64-.71.26-.18.56-.31.88-.4.24-.06.61-.12,1.09-.18.99-.12,1.72-.26,2.19-.42,0-.17,0-.28,0-.32,0-.5-.12-.85-.35-1.06-.31-.28-.78-.42-1.4-.42-.58,0-1.01.1-1.28.3-.28.2-.48.56-.61,1.08l-1.2-.16c.11-.51.29-.93.54-1.25s.61-.56,1.09-.73,1.02-.26,1.65-.26,1.12.07,1.51.22c.39.15.67.33.85.55s.31.5.38.84c.04.21.06.59.06,1.13v1.64c0,1.14.03,1.87.08,2.17.05.3.16.59.31.87h-1.29c-.13-.26-.21-.55-.25-.9ZM551.03,77.73c-.45.18-1.12.34-2.01.46-.51.07-.86.16-1.07.25-.21.09-.37.22-.49.4s-.17.37-.17.58c0,.33.12.6.37.82.25.22.61.33,1.09.33s.9-.1,1.26-.31.64-.49.81-.85c.13-.28.2-.69.2-1.23v-.45Z"/>
    <path d="M554.05,81.37v-10.02h1.23v10.02h-1.23Z"/>
  </g>
  <text class="cls-2" transform="translate(743.61 73.37)"><tspan class="cls-17" x="0" y="0">C</tspan><tspan class="cls-18" x="10" y="0">r</tspan><tspan class="cls-8" x="14.56" y="0">e</tspan><tspan class="cls-13" x="22.26" y="0">a</tspan><tspan class="cls-21" x="29.85" y="0">ti</tspan><tspan class="cls-11" x="36.78" y="0">o</tspan><tspan x="44.51" y="0">n </tspan><tspan class="cls-12" x="56.19" y="0">o</tspan><tspan x="63.8" y="0">f </tspan><tspan class="cls-7" x="71.58" y="0">n</tspan><tspan class="cls-6" x="79.26" y="0">e</tspan><tspan x="86.84" y="0">w </tspan><tspan class="cls-10" x="100.84" y="0">I</tspan><tspan x="104.68" y="0">C</tspan></text>
  <g>
    <rect class="cls-5" x="67" y="178.76" width="240" height="70"/>
    <text class="cls-3" transform="translate(95.85 220.22)"><tspan x="0" y="0">Structural dimension</tspan></text>
  </g>
  <g>
    <rect class="cls-4" x="681" y="268.76" width="240" height="70"/>
    <g>
      <path d="M739.34,300.57v-12.88h1.75l6.77,10.12v-10.12h1.63v12.88h-1.75l-6.77-10.12v10.12h-1.63Z"/>
      <path d="M758.54,297.56l1.63.2c-.26.96-.74,1.7-1.43,2.22s-1.59.79-2.67.79c-1.37,0-2.45-.42-3.25-1.26-.8-.84-1.2-2.02-1.2-3.54s.4-2.79,1.21-3.66,1.86-1.3,3.15-1.3,2.27.42,3.06,1.27,1.19,2.04,1.19,3.59c0,.09,0,.23,0,.42h-6.96c.06,1.03.35,1.81.87,2.36s1.17.82,1.95.82c.58,0,1.08-.15,1.49-.46s.74-.79.98-1.46ZM753.35,295h5.21c-.07-.79-.27-1.37-.6-1.77-.5-.61-1.16-.91-1.96-.91-.73,0-1.34.24-1.83.73s-.77,1.14-.82,1.95Z"/>
      <path d="M763.89,300.57l-2.86-9.33h1.63l1.49,5.39.55,2c.02-.1.18-.74.48-1.92l1.49-5.47h1.63l1.4,5.41.47,1.78.54-1.8,1.6-5.4h1.54l-2.92,9.33h-1.64l-1.49-5.59-.36-1.59-1.89,7.18h-1.65Z"/>
      <path d="M780.17,289.5v-1.82h1.58v1.82h-1.58ZM780.17,300.57v-9.33h1.58v9.33h-1.58Z"/>
      <path d="M784.16,300.57v-9.33h1.42v1.33c.69-1.03,1.68-1.54,2.97-1.54.56,0,1.08.1,1.55.3.47.2.82.47,1.06.79s.4.72.49,1.17c.06.29.09.81.09,1.54v5.74h-1.58v-5.68c0-.64-.06-1.13-.18-1.45s-.34-.57-.66-.76-.68-.29-1.1-.29c-.67,0-1.26.21-1.75.64s-.73,1.24-.73,2.43v5.1h-1.58Z"/>
      <path d="M797.63,299.15l.23,1.4c-.45.09-.84.14-1.2.14-.57,0-1.02-.09-1.34-.27s-.54-.42-.67-.72-.19-.92-.19-1.87v-5.37h-1.16v-1.23h1.16v-2.31l1.57-.95v3.26h1.59v1.23h-1.59v5.46c0,.45.03.74.08.87s.15.23.27.31c.12.08.31.11.54.11.18,0,.41-.02.69-.06Z"/>
      <path d="M805.57,297.56l1.63.2c-.26.96-.74,1.7-1.43,2.22s-1.59.79-2.67.79c-1.37,0-2.45-.42-3.25-1.26-.8-.84-1.2-2.02-1.2-3.54s.4-2.79,1.21-3.66,1.86-1.3,3.15-1.3,2.27.42,3.06,1.27,1.19,2.04,1.19,3.59c0,.09,0,.23,0,.42h-6.96c.06,1.03.35,1.81.87,2.36s1.17.82,1.95.82c.58,0,1.08-.15,1.49-.46s.74-.79.98-1.46ZM800.37,295h5.21c-.07-.79-.27-1.37-.6-1.77-.5-.61-1.16-.91-1.96-.91-.73,0-1.34.24-1.83.73s-.77,1.14-.82,1.95Z"/>
      <path d="M809.15,300.57v-12.88h1.58v12.88h-1.58Z"/>
      <path d="M813.15,300.57v-12.88h1.58v12.88h-1.58Z"/>
      <path d="M823.57,297.56l1.63.2c-.26.96-.74,1.7-1.43,2.22s-1.59.79-2.67.79c-1.37,0-2.45-.42-3.25-1.26-.8-.84-1.2-2.02-1.2-3.54s.4-2.79,1.21-3.66,1.86-1.3,3.15-1.3,2.27.42,3.06,1.27,1.19,2.04,1.19,3.59c0,.09,0,.23,0,.42h-6.96c.06,1.03.35,1.81.87,2.36s1.17.82,1.95.82c.58,0,1.08-.15,1.49-.46s.74-.79.98-1.46ZM818.38,295h5.21c-.07-.79-.27-1.37-.6-1.77-.5-.61-1.16-.91-1.96-.91-.73,0-1.34.24-1.83.73s-.77,1.14-.82,1.95Z"/>
      <path d="M833.29,297.15l1.56.2c-.17,1.07-.61,1.91-1.31,2.52s-1.56.91-2.58.91c-1.28,0-2.3-.42-3.08-1.25s-1.16-2.03-1.16-3.59c0-1.01.17-1.89.5-2.65s.84-1.32,1.52-1.7,1.43-.57,2.23-.57c1.01,0,1.84.26,2.49.77s1.06,1.24,1.24,2.18l-1.54.24c-.15-.63-.41-1.1-.78-1.42s-.82-.47-1.35-.47c-.8,0-1.44.29-1.94.86s-.75,1.47-.75,2.71.24,2.17.72,2.73,1.11.85,1.88.85c.62,0,1.14-.19,1.56-.57s.68-.97.79-1.76Z"/>
      <path d="M839.65,299.15l.23,1.4c-.45.09-.84.14-1.2.14-.57,0-1.02-.09-1.34-.27s-.54-.42-.67-.72-.19-.92-.19-1.87v-5.37h-1.16v-1.23h1.16v-2.31l1.57-.95v3.26h1.59v1.23h-1.59v5.46c0,.45.03.74.08.87s.15.23.27.31c.12.08.31.11.54.11.18,0,.41-.02.69-.06Z"/>
      <path d="M847.31,300.57v-1.37c-.73,1.05-1.71,1.58-2.96,1.58-.55,0-1.07-.11-1.54-.32s-.83-.48-1.06-.79c-.23-.32-.39-.71-.49-1.17-.06-.31-.1-.8-.1-1.48v-5.78h1.58v5.18c0,.83.03,1.38.1,1.67.1.42.31.74.63.98s.72.36,1.2.36.92-.12,1.34-.36.71-.57.88-.99.26-1.03.26-1.82v-5h1.58v9.33h-1.42Z"/>
      <path d="M857.3,299.42c-.59.5-1.15.85-1.69,1.05-.54.21-1.12.31-1.75.31-1.03,0-1.81-.25-2.36-.75s-.83-1.14-.83-1.92c0-.46.1-.87.31-1.25.21-.38.48-.68.82-.91s.72-.4,1.14-.52c.31-.08.78-.16,1.41-.24,1.28-.15,2.22-.33,2.82-.54,0-.22,0-.35,0-.41,0-.64-.15-1.1-.45-1.36-.4-.36-1-.54-1.8-.54-.74,0-1.29.13-1.65.39s-.62.72-.79,1.38l-1.55-.21c.14-.66.37-1.2.69-1.6s.79-.72,1.4-.94,1.32-.33,2.12-.33,1.44.09,1.94.28.86.42,1.1.71.4.64.49,1.08c.05.27.08.76.08,1.46v2.11c0,1.47.03,2.4.1,2.79s.2.76.4,1.12h-1.65c-.16-.33-.27-.71-.32-1.15ZM857.17,295.88c-.57.23-1.44.43-2.58.6-.65.09-1.11.2-1.38.32s-.48.29-.62.51-.22.48-.22.75c0,.42.16.77.48,1.05s.79.42,1.4.42,1.15-.13,1.63-.4.82-.63,1.05-1.09c.17-.36.25-.88.25-1.58v-.58Z"/>
      <path d="M861.18,300.57v-12.88h1.58v12.88h-1.58Z"/>
      <path d="M764.77,317.15l1.56.2c-.17,1.07-.61,1.91-1.31,2.52s-1.56.91-2.58.91c-1.28,0-2.3-.42-3.08-1.25s-1.16-2.03-1.16-3.59c0-1.01.17-1.89.5-2.65s.84-1.32,1.52-1.7,1.43-.57,2.23-.57c1.01,0,1.84.26,2.49.77s1.06,1.24,1.24,2.18l-1.54.24c-.15-.63-.41-1.1-.78-1.42s-.82-.47-1.35-.47c-.8,0-1.44.29-1.94.86s-.75,1.47-.75,2.71.24,2.17.72,2.73,1.11.85,1.88.85c.62,0,1.14-.19,1.56-.57s.68-.97.79-1.76Z"/>
      <path d="M773.77,319.42c-.59.5-1.15.85-1.69,1.05-.54.21-1.12.31-1.75.31-1.03,0-1.81-.25-2.36-.75s-.83-1.14-.83-1.92c0-.46.1-.87.31-1.25.21-.38.48-.68.82-.91s.72-.4,1.14-.52c.31-.08.78-.16,1.41-.24,1.28-.15,2.22-.33,2.82-.54,0-.22,0-.35,0-.41,0-.64-.15-1.1-.45-1.36-.4-.36-1-.54-1.8-.54-.74,0-1.29.13-1.65.39s-.62.72-.79,1.38l-1.55-.21c.14-.66.37-1.2.69-1.6s.79-.72,1.4-.94,1.32-.33,2.12-.33,1.44.09,1.94.28.86.42,1.1.71.4.64.49,1.08c.05.27.08.76.08,1.46v2.11c0,1.47.03,2.4.1,2.79s.2.76.4,1.12h-1.65c-.16-.33-.27-.71-.32-1.15ZM773.64,315.88c-.57.23-1.44.43-2.58.6-.65.09-1.11.2-1.38.32s-.48.29-.62.51-.22.48-.22.75c0,.42.16.77.48,1.05s.79.42,1.4.42,1.15-.13,1.63-.4.82-.63,1.05-1.09c.17-.36.25-.88.25-1.58v-.58Z"/>
      <path d="M777.69,324.14v-12.91h1.44v1.21c.34-.47.72-.83,1.15-1.07s.95-.36,1.56-.36c.8,0,1.5.21,2.11.62s1.07.99,1.38,1.74.47,1.57.47,2.46c0,.96-.17,1.82-.51,2.58-.34.76-.84,1.35-1.49,1.76s-1.34.61-2.06.61c-.53,0-1-.11-1.42-.33s-.76-.5-1.03-.84v4.54h-1.58ZM779.12,315.95c0,1.2.24,2.09.73,2.66s1.08.86,1.77.86,1.3-.3,1.81-.89c.5-.59.75-1.52.75-2.76s-.25-2.08-.73-2.67c-.49-.59-1.07-.89-1.75-.89s-1.27.32-1.79.95c-.52.63-.78,1.54-.78,2.75Z"/>
      <path d="M787.71,309.5v-1.82h1.58v1.82h-1.58ZM787.71,320.57v-9.33h1.58v9.33h-1.58Z"/>
      <path d="M795.15,319.15l.23,1.4c-.45.09-.84.14-1.2.14-.57,0-1.02-.09-1.34-.27s-.54-.42-.67-.72-.19-.92-.19-1.87v-5.37h-1.16v-1.23h1.16v-2.31l1.57-.95v3.26h1.59v1.23h-1.59v5.46c0,.45.03.74.08.87s.15.23.27.31c.12.08.31.11.54.11.18,0,.41-.02.69-.06Z"/>
      <path d="M802.79,319.42c-.59.5-1.15.85-1.69,1.05-.54.21-1.12.31-1.75.31-1.03,0-1.81-.25-2.36-.75s-.83-1.14-.83-1.92c0-.46.1-.87.31-1.25.21-.38.48-.68.82-.91s.72-.4,1.14-.52c.31-.08.78-.16,1.41-.24,1.28-.15,2.22-.33,2.82-.54,0-.22,0-.35,0-.41,0-.64-.15-1.1-.45-1.36-.4-.36-1-.54-1.8-.54-.74,0-1.29.13-1.65.39s-.62.72-.79,1.38l-1.55-.21c.14-.66.37-1.2.69-1.6s.79-.72,1.4-.94,1.32-.33,2.12-.33,1.44.09,1.94.28.86.42,1.1.71.4.64.49,1.08c.05.27.08.76.08,1.46v2.11c0,1.47.03,2.4.1,2.79s.2.76.4,1.12h-1.65c-.16-.33-.27-.71-.32-1.15ZM802.66,315.88c-.57.23-1.44.43-2.58.6-.65.09-1.11.2-1.38.32s-.48.29-.62.51-.22.48-.22.75c0,.42.16.77.48,1.05s.79.42,1.4.42,1.15-.13,1.63-.4.82-.63,1.05-1.09c.17-.36.25-.88.25-1.58v-.58Z"/>
      <path d="M806.67,320.57v-12.88h1.58v12.88h-1.58Z"/>
      <path d="M818.73,324.35c-.87-1.1-1.61-2.39-2.21-3.87s-.91-3.01-.91-4.59c0-1.39.23-2.73.68-4.01.53-1.48,1.34-2.96,2.44-4.43h1.13c-.71,1.22-1.18,2.09-1.41,2.61-.36.81-.64,1.65-.84,2.53-.25,1.1-.38,2.2-.38,3.3,0,2.82.88,5.63,2.63,8.45h-1.13Z"/>
      <path d="M822.2,320.57v-12.88h1.71v12.88h-1.71Z"/>
      <path d="M836.1,316.05l1.71.43c-.36,1.4-1,2.47-1.93,3.2s-2.06,1.1-3.41,1.1-2.52-.28-3.39-.85c-.87-.57-1.53-1.38-1.99-2.46-.46-1.07-.68-2.22-.68-3.45,0-1.34.26-2.51.77-3.51.51-1,1.24-1.76,2.19-2.28s1.99-.78,3.12-.78c1.29,0,2.37.33,3.25.98s1.49,1.58,1.84,2.77l-1.68.4c-.3-.94-.73-1.62-1.3-2.05s-1.28-.64-2.14-.64c-.99,0-1.82.24-2.48.71-.67.47-1.13,1.11-1.4,1.91s-.4,1.62-.4,2.47c0,1.1.16,2.05.48,2.87s.82,1.43,1.49,1.83,1.4.61,2.19.61c.96,0,1.76-.28,2.43-.83s1.11-1.37,1.34-2.45Z"/>
      <path d="M840.74,324.35h-1.13c1.75-2.81,2.63-5.63,2.63-8.45,0-1.1-.13-2.19-.38-3.28-.2-.88-.48-1.72-.83-2.53-.23-.53-.7-1.41-1.42-2.64h1.13c1.1,1.47,1.92,2.95,2.44,4.43.45,1.28.68,2.61.68,4.01,0,1.58-.3,3.11-.91,4.59-.61,1.48-1.34,2.77-2.21,3.87Z"/>
    </g>
  </g>
  <g>
    <g>
      <rect class="cls-4" x="374" y="132.96" width="240" height="70"/>
      <g>
        <path d="M412.44,163.41l4.95-12.88h1.84l5.27,12.88h-1.94l-1.5-3.9h-5.39l-1.42,3.9h-1.81ZM416.16,158.12h4.37l-1.34-3.57c-.41-1.08-.71-1.97-.91-2.67-.16.83-.4,1.65-.69,2.46l-1.42,3.78Z"/>
        <path d="M431.75,160l1.56.2c-.17,1.07-.61,1.91-1.31,2.52s-1.56.91-2.58.91c-1.28,0-2.3-.42-3.08-1.25s-1.16-2.03-1.16-3.59c0-1.01.17-1.89.5-2.65s.84-1.32,1.52-1.7,1.43-.57,2.23-.57c1.01,0,1.84.26,2.49.77s1.06,1.24,1.24,2.18l-1.54.24c-.15-.63-.41-1.1-.78-1.42s-.82-.47-1.35-.47c-.8,0-1.44.29-1.94.86s-.75,1.47-.75,2.71.24,2.17.72,2.73,1.11.85,1.88.85c.62,0,1.14-.19,1.56-.57s.68-.97.79-1.76Z"/>
        <path d="M440.75,160l1.56.2c-.17,1.07-.61,1.91-1.31,2.52s-1.56.91-2.58.91c-1.28,0-2.3-.42-3.08-1.25s-1.16-2.03-1.16-3.59c0-1.01.17-1.89.5-2.65s.84-1.32,1.52-1.7,1.43-.57,2.23-.57c1.01,0,1.84.26,2.49.77s1.06,1.24,1.24,2.18l-1.54.24c-.15-.63-.41-1.1-.78-1.42s-.82-.47-1.35-.47c-.8,0-1.44.29-1.94.86s-.75,1.47-.75,2.71.24,2.17.72,2.73,1.11.85,1.88.85c.62,0,1.14-.19,1.56-.57s.68-.97.79-1.76Z"/>
        <path d="M450.05,160.41l1.63.2c-.26.96-.74,1.7-1.43,2.22s-1.59.79-2.67.79c-1.37,0-2.45-.42-3.25-1.26-.8-.84-1.2-2.02-1.2-3.54s.4-2.79,1.21-3.66,1.86-1.3,3.15-1.3,2.27.42,3.06,1.27,1.19,2.04,1.19,3.59c0,.09,0,.23,0,.42h-6.96c.06,1.03.35,1.81.87,2.36s1.17.82,1.95.82c.58,0,1.08-.15,1.49-.46s.74-.79.98-1.46ZM444.86,157.85h5.21c-.07-.79-.27-1.37-.6-1.77-.5-.61-1.16-.91-1.96-.91-.73,0-1.34.24-1.83.73s-.77,1.14-.82,1.95Z"/>
        <path d="M453.04,160.63l1.56-.25c.09.63.33,1.11.73,1.44s.96.5,1.68.5,1.27-.15,1.62-.44.53-.64.53-1.04c0-.36-.16-.64-.47-.84-.22-.14-.76-.32-1.62-.54-1.16-.29-1.96-.55-2.41-.76-.45-.21-.79-.51-1.02-.89s-.35-.8-.35-1.25c0-.42.09-.8.29-1.16.19-.35.45-.65.78-.88.25-.18.58-.33,1.01-.46s.88-.19,1.37-.19c.73,0,1.38.11,1.93.32.55.21.96.5,1.23.86s.45.84.54,1.45l-1.55.21c-.07-.48-.27-.86-.61-1.12-.34-.27-.81-.4-1.43-.4-.73,0-1.25.12-1.56.36s-.47.52-.47.84c0,.21.06.39.19.55.13.17.33.31.61.42.16.06.62.19,1.4.4,1.12.3,1.9.54,2.34.73.44.19.79.47,1.04.83s.38.81.38,1.35-.15,1.02-.46,1.49c-.31.47-.75.83-1.33,1.08s-1.24.38-1.97.38c-1.21,0-2.14-.25-2.77-.76-.64-.5-1.04-1.25-1.22-2.24Z"/>
        <path d="M462.04,160.63l1.56-.25c.09.63.33,1.11.73,1.44s.96.5,1.68.5,1.27-.15,1.62-.44.53-.64.53-1.04c0-.36-.16-.64-.47-.84-.22-.14-.76-.32-1.62-.54-1.16-.29-1.96-.55-2.41-.76-.45-.21-.79-.51-1.02-.89s-.35-.8-.35-1.25c0-.42.09-.8.29-1.16.19-.35.45-.65.78-.88.25-.18.58-.33,1.01-.46s.88-.19,1.37-.19c.73,0,1.38.11,1.93.32.55.21.96.5,1.23.86s.45.84.54,1.45l-1.55.21c-.07-.48-.27-.86-.61-1.12-.34-.27-.81-.4-1.43-.4-.73,0-1.25.12-1.56.36s-.47.52-.47.84c0,.21.06.39.19.55.13.17.33.31.61.42.16.06.62.19,1.4.4,1.12.3,1.9.54,2.34.73.44.19.79.47,1.04.83s.38.81.38,1.35-.15,1.02-.46,1.49c-.31.47-.75.83-1.33,1.08s-1.24.38-1.97.38c-1.21,0-2.14-.25-2.77-.76-.64-.5-1.04-1.25-1.22-2.24Z"/>
        <path d="M480.13,162l.23,1.4c-.45.09-.84.14-1.2.14-.57,0-1.02-.09-1.34-.27s-.54-.42-.67-.72-.19-.92-.19-1.87v-5.37h-1.16v-1.23h1.16v-2.31l1.57-.95v3.26h1.59v1.23h-1.59v5.46c0,.45.03.74.08.87s.15.23.27.31c.12.08.31.11.54.11.18,0,.41-.02.69-.06Z"/>
        <path d="M481.08,158.75c0-1.73.48-3.01,1.44-3.84.8-.69,1.78-1.04,2.94-1.04,1.28,0,2.33.42,3.15,1.26s1.22,2,1.22,3.48c0,1.2-.18,2.15-.54,2.83-.36.69-.89,1.22-1.57,1.6s-1.44.57-2.25.57c-1.31,0-2.36-.42-3.17-1.26-.81-.84-1.21-2.04-1.21-3.62ZM482.71,158.75c0,1.2.26,2.09.78,2.69s1.18.89,1.97.89,1.44-.3,1.96-.9.78-1.51.78-2.73c0-1.15-.26-2.03-.79-2.62s-1.18-.89-1.96-.89-1.45.3-1.97.89-.78,1.49-.78,2.68Z"/>
        <path d="M496.69,166.99v-12.91h1.44v1.21c.34-.47.72-.83,1.15-1.07s.95-.36,1.56-.36c.8,0,1.5.21,2.11.62s1.07.99,1.38,1.74.47,1.57.47,2.46c0,.96-.17,1.82-.51,2.58-.34.76-.84,1.35-1.49,1.76s-1.34.61-2.06.61c-.53,0-1-.11-1.42-.33s-.76-.5-1.03-.84v4.54h-1.58ZM498.12,158.8c0,1.2.24,2.09.73,2.66s1.08.86,1.77.86,1.3-.3,1.81-.89c.5-.59.75-1.52.75-2.76s-.25-2.08-.73-2.67c-.49-.59-1.07-.89-1.75-.89s-1.27.32-1.79.95c-.52.63-.78,1.54-.78,2.75Z"/>
        <path d="M512.79,162.26c-.59.5-1.15.85-1.69,1.05-.54.21-1.12.31-1.75.31-1.03,0-1.81-.25-2.36-.75s-.83-1.14-.83-1.92c0-.46.1-.87.31-1.25.21-.38.48-.68.82-.91s.72-.4,1.14-.52c.31-.08.78-.16,1.41-.24,1.28-.15,2.22-.33,2.82-.54,0-.22,0-.35,0-.41,0-.64-.15-1.1-.45-1.36-.4-.36-1-.54-1.8-.54-.74,0-1.29.13-1.65.39s-.62.72-.79,1.38l-1.55-.21c.14-.66.37-1.2.69-1.6s.79-.72,1.4-.94,1.32-.33,2.12-.33,1.44.09,1.94.28.86.42,1.1.71.4.64.49,1.08c.05.27.08.76.08,1.46v2.11c0,1.47.03,2.4.1,2.79s.2.76.4,1.12h-1.65c-.16-.33-.27-.71-.32-1.15ZM512.66,158.73c-.57.23-1.44.43-2.58.6-.65.09-1.11.2-1.38.32s-.48.29-.62.51-.22.48-.22.75c0,.42.16.77.48,1.05s.79.42,1.4.42,1.15-.13,1.63-.4.82-.63,1.05-1.09c.17-.36.25-.88.25-1.58v-.58Z"/>
        <path d="M516.69,163.41v-9.33h1.42v1.42c.36-.66.7-1.1,1.01-1.31.31-.21.65-.32,1.01-.32.53,0,1.08.17,1.63.51l-.54,1.47c-.39-.23-.77-.34-1.16-.34-.35,0-.66.1-.93.31s-.47.5-.59.87c-.18.56-.26,1.18-.26,1.85v4.89h-1.58Z"/>
        <path d="M526.16,162l.23,1.4c-.45.09-.84.14-1.2.14-.57,0-1.02-.09-1.34-.27s-.54-.42-.67-.72-.19-.92-.19-1.87v-5.37h-1.16v-1.23h1.16v-2.31l1.57-.95v3.26h1.59v1.23h-1.59v5.46c0,.45.03.74.08.87s.15.23.27.31c.12.08.31.11.54.11.18,0,.41-.02.69-.06Z"/>
        <path d="M527.71,152.35v-1.82h1.58v1.82h-1.58ZM527.71,163.41v-9.33h1.58v9.33h-1.58Z"/>
        <path d="M538.09,160.41l1.63.2c-.26.96-.74,1.7-1.43,2.22s-1.59.79-2.67.79c-1.37,0-2.45-.42-3.25-1.26-.8-.84-1.2-2.02-1.2-3.54s.4-2.79,1.21-3.66,1.86-1.3,3.15-1.3,2.27.42,3.06,1.27,1.19,2.04,1.19,3.59c0,.09,0,.23,0,.42h-6.96c.06,1.03.35,1.81.87,2.36s1.17.82,1.95.82c.58,0,1.08-.15,1.49-.46s.74-.79.98-1.46ZM532.9,157.85h5.21c-.07-.79-.27-1.37-.6-1.77-.5-.61-1.16-.91-1.96-.91-.73,0-1.34.24-1.83.73s-.77,1.14-.82,1.95Z"/>
        <path d="M541.08,160.63l1.56-.25c.09.63.33,1.11.73,1.44s.96.5,1.68.5,1.27-.15,1.62-.44.53-.64.53-1.04c0-.36-.16-.64-.47-.84-.22-.14-.76-.32-1.62-.54-1.16-.29-1.96-.55-2.41-.76-.45-.21-.79-.51-1.02-.89s-.35-.8-.35-1.25c0-.42.09-.8.29-1.16.19-.35.45-.65.78-.88.25-.18.58-.33,1.01-.46s.88-.19,1.37-.19c.73,0,1.38.11,1.93.32.55.21.96.5,1.23.86s.45.84.54,1.45l-1.55.21c-.07-.48-.27-.86-.61-1.12-.34-.27-.81-.4-1.43-.4-.73,0-1.25.12-1.56.36s-.47.52-.47.84c0,.21.06.39.19.55.13.17.33.31.61.42.16.06.62.19,1.4.4,1.12.3,1.9.54,2.34.73.44.19.79.47,1.04.83s.38.81.38,1.35-.15,1.02-.46,1.49c-.31.47-.75.83-1.33,1.08s-1.24.38-1.97.38c-1.21,0-2.14-.25-2.77-.76-.64-.5-1.04-1.25-1.22-2.24Z"/>
        <path d="M556.09,163.41v-8.1h-1.4v-1.23h1.4v-.99c0-.63.06-1.09.17-1.4.15-.41.42-.74.8-1s.92-.38,1.61-.38c.45,0,.94.05,1.48.16l-.24,1.38c-.33-.06-.64-.09-.93-.09-.48,0-.82.1-1.02.31s-.3.59-.3,1.15v.86h1.82v1.23h-1.82v8.1h-1.57Z"/>
        <path d="M560.12,158.75c0-1.73.48-3.01,1.44-3.84.8-.69,1.78-1.04,2.94-1.04,1.28,0,2.33.42,3.15,1.26s1.22,2,1.22,3.48c0,1.2-.18,2.15-.54,2.83-.36.69-.89,1.22-1.57,1.6s-1.44.57-2.25.57c-1.31,0-2.36-.42-3.17-1.26-.81-.84-1.21-2.04-1.21-3.62ZM561.75,158.75c0,1.2.26,2.09.78,2.69s1.18.89,1.97.89,1.44-.3,1.96-.9.78-1.51.78-2.73c0-1.15-.26-2.03-.79-2.62s-1.18-.89-1.96-.89-1.45.3-1.97.89-.78,1.49-.78,2.68Z"/>
        <path d="M570.71,163.41v-9.33h1.42v1.42c.36-.66.7-1.1,1.01-1.31.31-.21.65-.32,1.01-.32.53,0,1.08.17,1.63.51l-.54,1.47c-.39-.23-.77-.34-1.16-.34-.35,0-.66.1-.93.31s-.47.5-.59.87c-.18.56-.26,1.18-.26,1.85v4.89h-1.58Z"/>
        <path d="M405.22,180l1.56.2c-.17,1.07-.61,1.91-1.31,2.52s-1.56.91-2.58.91c-1.28,0-2.3-.42-3.08-1.25s-1.16-2.03-1.16-3.59c0-1.01.17-1.89.5-2.65s.84-1.32,1.52-1.7,1.43-.57,2.23-.57c1.01,0,1.84.26,2.49.77s1.06,1.24,1.24,2.18l-1.54.24c-.15-.63-.41-1.1-.78-1.42s-.82-.47-1.35-.47c-.8,0-1.44.29-1.94.86s-.75,1.47-.75,2.71.24,2.17.72,2.73,1.11.85,1.88.85c.62,0,1.14-.19,1.56-.57s.68-.97.79-1.76Z"/>
        <path d="M407.54,178.75c0-1.73.48-3.01,1.44-3.84.8-.69,1.78-1.04,2.94-1.04,1.28,0,2.33.42,3.15,1.26s1.22,2,1.22,3.48c0,1.2-.18,2.15-.54,2.83-.36.69-.89,1.22-1.57,1.6s-1.44.57-2.25.57c-1.31,0-2.36-.42-3.17-1.26-.81-.84-1.21-2.04-1.21-3.62ZM409.17,178.75c0,1.2.26,2.09.78,2.69s1.18.89,1.97.89,1.44-.3,1.96-.9.78-1.51.78-2.73c0-1.15-.26-2.03-.79-2.62s-1.18-.89-1.96-.89-1.45.3-1.97.89-.78,1.49-.78,2.68Z"/>
        <path d="M418.14,183.41v-9.33h1.42v1.31c.29-.46.68-.82,1.17-1.1s1.04-.42,1.66-.42c.69,0,1.26.14,1.7.43.44.29.75.69.94,1.2.74-1.09,1.7-1.63,2.88-1.63.93,0,1.64.26,2.14.77s.75,1.3.75,2.37v6.41h-1.57v-5.88c0-.63-.05-1.09-.15-1.37-.1-.28-.29-.5-.56-.67s-.59-.25-.95-.25c-.66,0-1.2.22-1.63.66s-.65,1.13-.65,2.1v5.42h-1.58v-6.06c0-.7-.13-1.23-.39-1.58s-.68-.53-1.27-.53c-.45,0-.86.12-1.23.35-.38.23-.65.58-.82,1.03s-.25,1.1-.25,1.95v4.84h-1.58Z"/>
        <path d="M434.59,183.41h-1.47v-12.88h1.58v4.6c.67-.84,1.52-1.26,2.56-1.26.57,0,1.12.12,1.63.35s.93.56,1.27.98.59.92.78,1.52.28,1.22.28,1.9c0,1.6-.4,2.84-1.19,3.71s-1.74,1.31-2.85,1.31-1.97-.46-2.59-1.38v1.17ZM434.58,178.68c0,1.12.15,1.93.46,2.43.5.81,1.17,1.22,2.02,1.22.69,0,1.29-.3,1.79-.9s.76-1.5.76-2.69-.24-2.12-.73-2.7c-.48-.58-1.07-.87-1.75-.87s-1.29.3-1.79.9-.76,1.47-.76,2.61Z"/>
        <path d="M443.16,172.35v-1.82h1.58v1.82h-1.58ZM443.16,183.41v-9.33h1.58v9.33h-1.58Z"/>
        <path d="M447.15,183.41v-9.33h1.42v1.33c.69-1.03,1.68-1.54,2.97-1.54.56,0,1.08.1,1.55.3.47.2.82.47,1.06.79s.4.72.49,1.17c.06.29.09.81.09,1.54v5.74h-1.58v-5.68c0-.64-.06-1.13-.18-1.45s-.34-.57-.66-.76-.68-.29-1.1-.29c-.67,0-1.26.21-1.75.64s-.73,1.24-.73,2.43v5.1h-1.58Z"/>
        <path d="M457.17,172.35v-1.82h1.58v1.82h-1.58ZM457.17,183.41v-9.33h1.58v9.33h-1.58Z"/>
        <path d="M461.16,183.41v-9.33h1.42v1.33c.69-1.03,1.68-1.54,2.97-1.54.56,0,1.08.1,1.55.3.47.2.82.47,1.06.79s.4.72.49,1.17c.06.29.09.81.09,1.54v5.74h-1.58v-5.68c0-.64-.06-1.13-.18-1.45s-.34-.57-.66-.76-.68-.29-1.1-.29c-.67,0-1.26.21-1.75.64s-.73,1.24-.73,2.43v5.1h-1.58Z"/>
        <path d="M470.88,184.19l1.54.23c.06.47.24.82.54,1.04.39.29.93.44,1.61.44.73,0,1.3-.15,1.7-.44s.67-.7.81-1.23c.08-.32.12-1,.11-2.03-.69.81-1.55,1.22-2.58,1.22-1.28,0-2.28-.46-2.98-1.39s-1.05-2.04-1.05-3.33c0-.89.16-1.71.48-2.46s.79-1.33,1.4-1.75,1.33-.62,2.16-.62c1.1,0,2.01.45,2.72,1.34v-1.12h1.46v8.07c0,1.45-.15,2.48-.44,3.09-.3.61-.77,1.08-1.41,1.44-.64.35-1.43.53-2.37.53-1.11,0-2.01-.25-2.7-.75s-1.02-1.26-.99-2.26ZM472.19,178.58c0,1.22.24,2.12.73,2.68s1.1.84,1.83.84,1.34-.28,1.83-.84.74-1.44.74-2.63-.25-2-.76-2.58c-.51-.58-1.12-.87-1.83-.87s-1.3.29-1.79.86-.74,1.42-.74,2.54Z"/>
        <path d="M479.99,183.63l3.74-13.32h1.27l-3.73,13.32h-1.27Z"/>
        <path d="M492.57,180.41l1.63.2c-.26.96-.74,1.7-1.43,2.22s-1.59.79-2.67.79c-1.37,0-2.45-.42-3.25-1.26-.8-.84-1.2-2.02-1.2-3.54s.4-2.79,1.21-3.66,1.86-1.3,3.15-1.3,2.27.42,3.06,1.27,1.19,2.04,1.19,3.59c0,.09,0,.23,0,.42h-6.96c.06,1.03.35,1.81.87,2.36s1.17.82,1.95.82c.58,0,1.08-.15,1.49-.46s.74-.79.98-1.46ZM487.37,177.85h5.21c-.07-.79-.27-1.37-.6-1.77-.5-.61-1.16-.91-1.96-.91-.73,0-1.34.24-1.83.73s-.77,1.14-.82,1.95Z"/>
        <path d="M495.13,183.41l3.41-4.85-3.16-4.48h1.98l1.43,2.19c.27.42.49.76.65,1.05.26-.39.5-.73.71-1.03l1.57-2.21h1.89l-3.23,4.39,3.47,4.94h-1.94l-1.92-2.9-.51-.78-2.45,3.68h-1.92Z"/>
        <path d="M511.28,180l1.56.2c-.17,1.07-.61,1.91-1.31,2.52s-1.56.91-2.58.91c-1.28,0-2.3-.42-3.08-1.25s-1.16-2.03-1.16-3.59c0-1.01.17-1.89.5-2.65s.84-1.32,1.52-1.7,1.43-.57,2.23-.57c1.01,0,1.84.26,2.49.77s1.06,1.24,1.24,2.18l-1.54.24c-.15-.63-.41-1.1-.78-1.42s-.82-.47-1.35-.47c-.8,0-1.44.29-1.94.86s-.75,1.47-.75,2.71.24,2.17.72,2.73,1.11.85,1.88.85c.62,0,1.14-.19,1.56-.57s.68-.97.79-1.76Z"/>
        <path d="M514.19,183.41v-12.88h1.58v4.62c.74-.86,1.67-1.28,2.79-1.28.69,0,1.29.14,1.8.41s.88.65,1.09,1.13c.22.48.33,1.18.33,2.09v5.92h-1.58v-5.92c0-.79-.17-1.37-.51-1.73-.34-.36-.83-.54-1.46-.54-.47,0-.91.12-1.32.37-.41.24-.71.57-.88.99s-.26.99-.26,1.72v5.11h-1.58Z"/>
        <path d="M530.29,182.26c-.59.5-1.15.85-1.69,1.05-.54.21-1.12.31-1.75.31-1.03,0-1.81-.25-2.36-.75s-.83-1.14-.83-1.92c0-.46.1-.87.31-1.25.21-.38.48-.68.82-.91s.72-.4,1.14-.52c.31-.08.78-.16,1.41-.24,1.28-.15,2.22-.33,2.82-.54,0-.22,0-.35,0-.41,0-.64-.15-1.1-.45-1.36-.4-.36-1-.54-1.8-.54-.74,0-1.29.13-1.65.39s-.62.72-.79,1.38l-1.55-.21c.14-.66.37-1.2.69-1.6s.79-.72,1.4-.94,1.32-.33,2.12-.33,1.44.09,1.94.28.86.42,1.1.71.4.64.49,1.08c.05.27.08.76.08,1.46v2.11c0,1.47.03,2.4.1,2.79s.2.76.4,1.12h-1.65c-.16-.33-.27-.71-.32-1.15ZM530.16,178.73c-.57.23-1.44.43-2.58.6-.65.09-1.11.2-1.38.32s-.48.29-.62.51-.22.48-.22.75c0,.42.16.77.48,1.05s.79.42,1.4.42,1.15-.13,1.63-.4.82-.63,1.05-1.09c.17-.36.25-.88.25-1.58v-.58Z"/>
        <path d="M534.21,183.41v-9.33h1.42v1.33c.69-1.03,1.68-1.54,2.97-1.54.56,0,1.08.1,1.55.3.47.2.82.47,1.06.79s.4.72.49,1.17c.06.29.09.81.09,1.54v5.74h-1.58v-5.68c0-.64-.06-1.13-.18-1.45s-.34-.57-.66-.76-.68-.29-1.1-.29c-.67,0-1.26.21-1.75.64s-.73,1.24-.73,2.43v5.1h-1.58Z"/>
        <path d="M544.23,172.35v-1.82h1.58v1.82h-1.58ZM544.23,183.41v-9.33h1.58v9.33h-1.58Z"/>
        <path d="M548.22,183.41v-9.33h1.42v1.33c.69-1.03,1.68-1.54,2.97-1.54.56,0,1.08.1,1.55.3.47.2.82.47,1.06.79s.4.72.49,1.17c.06.29.09.81.09,1.54v5.74h-1.58v-5.68c0-.64-.06-1.13-.18-1.45s-.34-.57-.66-.76-.68-.29-1.1-.29c-.67,0-1.26.21-1.75.64s-.73,1.24-.73,2.43v5.1h-1.58Z"/>
        <path d="M557.94,184.19l1.54.23c.06.47.24.82.54,1.04.39.29.93.44,1.61.44.73,0,1.3-.15,1.7-.44s.67-.7.81-1.23c.08-.32.12-1,.11-2.03-.69.81-1.55,1.22-2.58,1.22-1.28,0-2.28-.46-2.98-1.39s-1.05-2.04-1.05-3.33c0-.89.16-1.71.48-2.46s.79-1.33,1.4-1.75,1.33-.62,2.16-.62c1.1,0,2.01.45,2.72,1.34v-1.12h1.46v8.07c0,1.45-.15,2.48-.44,3.09-.3.61-.77,1.08-1.41,1.44-.64.35-1.43.53-2.37.53-1.11,0-2.01-.25-2.7-.75s-1.02-1.26-.99-2.26ZM559.25,178.58c0,1.22.24,2.12.73,2.68s1.1.84,1.83.84,1.34-.28,1.83-.84.74-1.44.74-2.63-.25-2-.76-2.58c-.51-.58-1.12-.87-1.83-.87s-1.3.29-1.79.86-.74,1.42-.74,2.54Z"/>
        <path d="M573.73,183.41v-12.88h1.71v12.88h-1.71Z"/>
        <path d="M587.64,178.9l1.71.43c-.36,1.4-1,2.47-1.93,3.2s-2.06,1.1-3.41,1.1-2.52-.28-3.39-.85c-.87-.57-1.53-1.38-1.99-2.46-.46-1.07-.68-2.22-.68-3.45,0-1.34.26-2.51.77-3.51.51-1,1.24-1.76,2.19-2.28s1.99-.78,3.12-.78c1.29,0,2.37.33,3.25.98s1.49,1.58,1.84,2.77l-1.68.4c-.3-.94-.73-1.62-1.3-2.05s-1.28-.64-2.14-.64c-.99,0-1.82.24-2.48.71-.67.47-1.13,1.11-1.4,1.91s-.4,1.62-.4,2.47c0,1.1.16,2.05.48,2.87s.82,1.43,1.49,1.83,1.4.61,2.19.61c.96,0,1.76-.28,2.43-.83s1.11-1.37,1.34-2.45Z"/>
      </g>
    </g>
    <g>
      <rect class="cls-4" x="374" y="222.96" width="240" height="70"/>
      <text class="cls-1" transform="translate(413.45 264.41)"><tspan x="0" y="0">Anticipation of value</tspan></text>
    </g>
    <g>
      <rect class="cls-4" x="374" y="402.96" width="240" height="70"/>
      <text class="cls-1" transform="translate(403.45 444.41)"><tspan x="0" y="0">Combination capability</tspan></text>
    </g>
    <g>
      <rect class="cls-4" x="374" y="312.96" width="240" height="70"/>
      <g>
        <path d="M441.81,343.41v-12.88h2.57l3.05,9.12c.28.85.49,1.49.62,1.91.15-.47.38-1.16.69-2.07l3.08-8.96h2.29v12.88h-1.64v-10.78l-3.74,10.78h-1.54l-3.73-10.97v10.97h-1.64Z"/>
        <path d="M456.07,338.75c0-1.73.48-3.01,1.44-3.84.8-.69,1.78-1.04,2.94-1.04,1.28,0,2.33.42,3.15,1.26s1.22,2,1.22,3.48c0,1.2-.18,2.15-.54,2.83-.36.69-.89,1.22-1.57,1.6s-1.44.57-2.25.57c-1.31,0-2.36-.42-3.17-1.26-.81-.84-1.21-2.04-1.21-3.62ZM457.69,338.75c0,1.2.26,2.09.78,2.69s1.18.89,1.97.89,1.44-.3,1.96-.9.78-1.51.78-2.73c0-1.15-.26-2.03-.79-2.62s-1.18-.89-1.96-.89-1.45.3-1.97.89-.78,1.49-.78,2.68Z"/>
        <path d="M470.12,342l.23,1.4c-.45.09-.84.14-1.2.14-.57,0-1.02-.09-1.34-.27s-.54-.42-.67-.72-.19-.92-.19-1.87v-5.37h-1.16v-1.23h1.16v-2.31l1.57-.95v3.26h1.59v1.23h-1.59v5.46c0,.45.03.74.08.87s.15.23.27.31c.12.08.31.11.54.11.18,0,.41-.02.69-.06Z"/>
        <path d="M471.68,332.35v-1.82h1.58v1.82h-1.58ZM471.68,343.41v-9.33h1.58v9.33h-1.58Z"/>
        <path d="M478.26,343.41l-3.55-9.33h1.67l2,5.59c.22.6.42,1.23.6,1.88.14-.49.34-1.08.59-1.78l2.07-5.7h1.63l-3.53,9.33h-1.48Z"/>
        <path d="M490.76,342.26c-.59.5-1.15.85-1.69,1.05-.54.21-1.12.31-1.75.31-1.03,0-1.81-.25-2.36-.75s-.83-1.14-.83-1.92c0-.46.1-.87.31-1.25.21-.38.48-.68.82-.91s.72-.4,1.14-.52c.31-.08.78-.16,1.41-.24,1.28-.15,2.22-.33,2.82-.54,0-.22,0-.35,0-.41,0-.64-.15-1.1-.45-1.36-.4-.36-1-.54-1.8-.54-.74,0-1.29.13-1.65.39s-.62.72-.79,1.38l-1.55-.21c.14-.66.37-1.2.69-1.6s.79-.72,1.4-.94,1.32-.33,2.12-.33,1.44.09,1.94.28.86.42,1.1.71.4.64.49,1.08c.05.27.08.76.08,1.46v2.11c0,1.47.03,2.4.1,2.79s.2.76.4,1.12h-1.65c-.16-.33-.27-.71-.32-1.15ZM490.62,338.73c-.57.23-1.44.43-2.58.6-.65.09-1.11.2-1.38.32s-.48.29-.62.51-.22.48-.22.75c0,.42.16.77.48,1.05s.79.42,1.4.42,1.15-.13,1.63-.4.82-.63,1.05-1.09c.17-.36.25-.88.25-1.58v-.58Z"/>
        <path d="M498.13,342l.23,1.4c-.45.09-.84.14-1.2.14-.57,0-1.02-.09-1.34-.27s-.54-.42-.67-.72-.19-.92-.19-1.87v-5.37h-1.16v-1.23h1.16v-2.31l1.57-.95v3.26h1.59v1.23h-1.59v5.46c0,.45.03.74.08.87s.15.23.27.31c.12.08.31.11.54.11.18,0,.41-.02.69-.06Z"/>
        <path d="M499.69,332.35v-1.82h1.58v1.82h-1.58ZM499.69,343.41v-9.33h1.58v9.33h-1.58Z"/>
        <path d="M503.09,338.75c0-1.73.48-3.01,1.44-3.84.8-.69,1.78-1.04,2.94-1.04,1.28,0,2.33.42,3.15,1.26s1.22,2,1.22,3.48c0,1.2-.18,2.15-.54,2.83-.36.69-.89,1.22-1.57,1.6s-1.44.57-2.25.57c-1.31,0-2.36-.42-3.17-1.26-.81-.84-1.21-2.04-1.21-3.62ZM504.71,338.75c0,1.2.26,2.09.78,2.69s1.18.89,1.97.89,1.44-.3,1.96-.9.78-1.51.78-2.73c0-1.15-.26-2.03-.79-2.62s-1.18-.89-1.96-.89-1.45.3-1.97.89-.78,1.49-.78,2.68Z"/>
        <path d="M513.69,343.41v-9.33h1.42v1.33c.69-1.03,1.68-1.54,2.97-1.54.56,0,1.08.1,1.55.3.47.2.82.47,1.06.79s.4.72.49,1.17c.06.29.09.81.09,1.54v5.74h-1.58v-5.68c0-.64-.06-1.13-.18-1.45s-.34-.57-.66-.76-.68-.29-1.1-.29c-.67,0-1.26.21-1.75.64s-.73,1.24-.73,2.43v5.1h-1.58Z"/>
        <path d="M532.15,342l.23,1.4c-.45.09-.84.14-1.2.14-.57,0-1.02-.09-1.34-.27s-.54-.42-.67-.72-.19-.92-.19-1.87v-5.37h-1.16v-1.23h1.16v-2.31l1.57-.95v3.26h1.59v1.23h-1.59v5.46c0,.45.03.74.08.87s.15.23.27.31c.12.08.31.11.54.11.18,0,.41-.02.69-.06Z"/>
        <path d="M533.11,338.75c0-1.73.48-3.01,1.44-3.84.8-.69,1.78-1.04,2.94-1.04,1.28,0,2.33.42,3.15,1.26s1.22,2,1.22,3.48c0,1.2-.18,2.15-.54,2.83-.36.69-.89,1.22-1.57,1.6s-1.44.57-2.25.57c-1.31,0-2.36-.42-3.17-1.26-.81-.84-1.21-2.04-1.21-3.62ZM534.74,338.75c0,1.2.26,2.09.78,2.69s1.18.89,1.97.89,1.44-.3,1.96-.9.78-1.51.78-2.73c0-1.15-.26-2.03-.79-2.62s-1.18-.89-1.96-.89-1.45.3-1.97.89-.78,1.49-.78,2.68Z"/>
        <path d="M414.23,360l1.56.2c-.17,1.07-.61,1.91-1.31,2.52s-1.56.91-2.58.91c-1.28,0-2.3-.42-3.08-1.25s-1.16-2.03-1.16-3.59c0-1.01.17-1.89.5-2.65s.84-1.32,1.52-1.7,1.43-.57,2.23-.57c1.01,0,1.84.26,2.49.77s1.06,1.24,1.24,2.18l-1.54.24c-.15-.63-.41-1.1-.78-1.42s-.82-.47-1.35-.47c-.8,0-1.44.29-1.94.86s-.75,1.47-.75,2.71.24,2.17.72,2.73,1.11.85,1.88.85c.62,0,1.14-.19,1.56-.57s.68-.97.79-1.76Z"/>
        <path d="M416.55,358.75c0-1.73.48-3.01,1.44-3.84.8-.69,1.78-1.04,2.94-1.04,1.28,0,2.33.42,3.15,1.26s1.22,2,1.22,3.48c0,1.2-.18,2.15-.54,2.83-.36.69-.89,1.22-1.57,1.6s-1.44.57-2.25.57c-1.31,0-2.36-.42-3.17-1.26-.81-.84-1.21-2.04-1.21-3.62ZM418.17,358.75c0,1.2.26,2.09.78,2.69s1.18.89,1.97.89,1.44-.3,1.96-.9.78-1.51.78-2.73c0-1.15-.26-2.03-.79-2.62s-1.18-.89-1.96-.89-1.45.3-1.97.89-.78,1.49-.78,2.68Z"/>
        <path d="M427.15,363.41v-9.33h1.42v1.31c.29-.46.68-.82,1.17-1.1s1.04-.42,1.66-.42c.69,0,1.26.14,1.7.43.44.29.75.69.94,1.2.74-1.09,1.7-1.63,2.88-1.63.93,0,1.64.26,2.14.77s.75,1.3.75,2.37v6.41h-1.57v-5.88c0-.63-.05-1.09-.15-1.37-.1-.28-.29-.5-.56-.67s-.59-.25-.95-.25c-.66,0-1.2.22-1.63.66s-.65,1.13-.65,2.1v5.42h-1.58v-6.06c0-.7-.13-1.23-.39-1.58s-.68-.53-1.27-.53c-.45,0-.86.12-1.23.35-.38.23-.65.58-.82,1.03s-.25,1.1-.25,1.95v4.84h-1.58Z"/>
        <path d="M443.6,363.41h-1.47v-12.88h1.58v4.6c.67-.84,1.52-1.26,2.56-1.26.57,0,1.12.12,1.63.35s.93.56,1.27.98.59.92.78,1.52.28,1.22.28,1.9c0,1.6-.4,2.84-1.19,3.71s-1.74,1.31-2.85,1.31-1.97-.46-2.59-1.38v1.17ZM443.58,358.68c0,1.12.15,1.93.46,2.43.5.81,1.17,1.22,2.02,1.22.69,0,1.29-.3,1.79-.9s.76-1.5.76-2.69-.24-2.12-.73-2.7c-.48-.58-1.07-.87-1.75-.87s-1.29.3-1.79.9-.76,1.47-.76,2.61Z"/>
        <path d="M452.16,352.35v-1.82h1.58v1.82h-1.58ZM452.16,363.41v-9.33h1.58v9.33h-1.58Z"/>
        <path d="M456.15,363.41v-9.33h1.42v1.33c.69-1.03,1.68-1.54,2.97-1.54.56,0,1.08.1,1.55.3.47.2.82.47,1.06.79s.4.72.49,1.17c.06.29.09.81.09,1.54v5.74h-1.58v-5.68c0-.64-.06-1.13-.18-1.45s-.34-.57-.66-.76-.68-.29-1.1-.29c-.67,0-1.26.21-1.75.64s-.73,1.24-.73,2.43v5.1h-1.58Z"/>
        <path d="M472.55,360.41l1.63.2c-.26.96-.74,1.7-1.43,2.22s-1.59.79-2.67.79c-1.37,0-2.45-.42-3.25-1.26-.8-.84-1.2-2.02-1.2-3.54s.4-2.79,1.21-3.66,1.86-1.3,3.15-1.3,2.27.42,3.06,1.27,1.19,2.04,1.19,3.59c0,.09,0,.23,0,.42h-6.96c.06,1.03.35,1.81.87,2.36s1.17.82,1.95.82c.58,0,1.08-.15,1.49-.46s.74-.79.98-1.46ZM467.36,357.85h5.21c-.07-.79-.27-1.37-.6-1.77-.5-.61-1.16-.91-1.96-.91-.73,0-1.34.24-1.83.73s-.77,1.14-.82,1.95Z"/>
        <path d="M474.99,363.63l3.74-13.32h1.27l-3.73,13.32h-1.27Z"/>
        <path d="M487.56,360.41l1.63.2c-.26.96-.74,1.7-1.43,2.22s-1.59.79-2.67.79c-1.37,0-2.45-.42-3.25-1.26-.8-.84-1.2-2.02-1.2-3.54s.4-2.79,1.21-3.66,1.86-1.3,3.15-1.3,2.27.42,3.06,1.27,1.19,2.04,1.19,3.59c0,.09,0,.23,0,.42h-6.96c.06,1.03.35,1.81.87,2.36s1.17.82,1.95.82c.58,0,1.08-.15,1.49-.46s.74-.79.98-1.46ZM482.37,357.85h5.21c-.07-.79-.27-1.37-.6-1.77-.5-.61-1.16-.91-1.96-.91-.73,0-1.34.24-1.83.73s-.77,1.14-.82,1.95Z"/>
        <path d="M490.13,363.41l3.41-4.85-3.16-4.48h1.98l1.43,2.19c.27.42.49.76.65,1.05.26-.39.5-.73.71-1.03l1.57-2.21h1.89l-3.23,4.39,3.47,4.94h-1.94l-1.92-2.9-.51-.78-2.45,3.68h-1.92Z"/>
        <path d="M506.27,360l1.56.2c-.17,1.07-.61,1.91-1.31,2.52s-1.56.91-2.58.91c-1.28,0-2.3-.42-3.08-1.25s-1.16-2.03-1.16-3.59c0-1.01.17-1.89.5-2.65s.84-1.32,1.52-1.7,1.43-.57,2.23-.57c1.01,0,1.84.26,2.49.77s1.06,1.24,1.24,2.18l-1.54.24c-.15-.63-.41-1.1-.78-1.42s-.82-.47-1.35-.47c-.8,0-1.44.29-1.94.86s-.75,1.47-.75,2.71.24,2.17.72,2.73,1.11.85,1.88.85c.62,0,1.14-.19,1.56-.57s.68-.97.79-1.76Z"/>
        <path d="M509.18,363.41v-12.88h1.58v4.62c.74-.86,1.67-1.28,2.79-1.28.69,0,1.29.14,1.8.41s.88.65,1.09,1.13c.22.48.33,1.18.33,2.09v5.92h-1.58v-5.92c0-.79-.17-1.37-.51-1.73-.34-.36-.83-.54-1.46-.54-.47,0-.91.12-1.32.37-.41.24-.71.57-.88.99s-.26.99-.26,1.72v5.11h-1.58Z"/>
        <path d="M525.29,362.26c-.59.5-1.15.85-1.69,1.05-.54.21-1.12.31-1.75.31-1.03,0-1.81-.25-2.36-.75s-.83-1.14-.83-1.92c0-.46.1-.87.31-1.25.21-.38.48-.68.82-.91s.72-.4,1.14-.52c.31-.08.78-.16,1.41-.24,1.28-.15,2.22-.33,2.82-.54,0-.22,0-.35,0-.41,0-.64-.15-1.1-.45-1.36-.4-.36-1-.54-1.8-.54-.74,0-1.29.13-1.65.39s-.62.72-.79,1.38l-1.55-.21c.14-.66.37-1.2.69-1.6s.79-.72,1.4-.94,1.32-.33,2.12-.33,1.44.09,1.94.28.86.42,1.1.71.4.64.49,1.08c.05.27.08.76.08,1.46v2.11c0,1.47.03,2.4.1,2.79s.2.76.4,1.12h-1.65c-.16-.33-.27-.71-.32-1.15ZM525.15,358.73c-.57.23-1.44.43-2.58.6-.65.09-1.11.2-1.38.32s-.48.29-.62.51-.22.48-.22.75c0,.42.16.77.48,1.05s.79.42,1.4.42,1.15-.13,1.63-.4.82-.63,1.05-1.09c.17-.36.25-.88.25-1.58v-.58Z"/>
        <path d="M529.21,363.41v-9.33h1.42v1.33c.69-1.03,1.68-1.54,2.97-1.54.56,0,1.08.1,1.55.3.47.2.82.47,1.06.79s.4.72.49,1.17c.06.29.09.81.09,1.54v5.74h-1.58v-5.68c0-.64-.06-1.13-.18-1.45s-.34-.57-.66-.76-.68-.29-1.1-.29c-.67,0-1.26.21-1.75.64s-.73,1.24-.73,2.43v5.1h-1.58Z"/>
        <path d="M538.93,364.19l1.54.23c.06.47.24.82.54,1.04.39.29.93.44,1.61.44.73,0,1.3-.15,1.7-.44s.67-.7.81-1.23c.08-.32.12-1,.11-2.03-.69.81-1.55,1.22-2.58,1.22-1.28,0-2.28-.46-2.98-1.39s-1.05-2.04-1.05-3.33c0-.89.16-1.71.48-2.46s.79-1.33,1.4-1.75,1.33-.62,2.16-.62c1.1,0,2.01.45,2.72,1.34v-1.12h1.46v8.07c0,1.45-.15,2.48-.44,3.09-.3.61-.77,1.08-1.41,1.44-.64.35-1.43.53-2.37.53-1.11,0-2.01-.25-2.7-.75s-1.02-1.26-.99-2.26ZM540.24,358.58c0,1.22.24,2.12.73,2.68s1.1.84,1.83.84,1.34-.28,1.83-.84.74-1.44.74-2.63-.25-2-.76-2.58c-.51-.58-1.12-.87-1.83-.87s-1.3.29-1.79.86-.74,1.42-.74,2.54Z"/>
        <path d="M555.62,360.41l1.63.2c-.26.96-.74,1.7-1.43,2.22s-1.59.79-2.67.79c-1.37,0-2.45-.42-3.25-1.26-.8-.84-1.2-2.02-1.2-3.54s.4-2.79,1.21-3.66,1.86-1.3,3.15-1.3,2.27.42,3.06,1.27,1.19,2.04,1.19,3.59c0,.09,0,.23,0,.42h-6.96c.06,1.03.35,1.81.87,2.36s1.17.82,1.95.82c.58,0,1.08-.15,1.49-.46s.74-.79.98-1.46ZM550.42,357.85h5.21c-.07-.79-.27-1.37-.6-1.77-.5-.61-1.16-.91-1.96-.91-.73,0-1.34.24-1.83.73s-.77,1.14-.82,1.95Z"/>
        <path d="M564.73,363.41v-12.88h1.71v12.88h-1.71Z"/>
        <path d="M578.63,358.9l1.71.43c-.36,1.4-1,2.47-1.93,3.2s-2.06,1.1-3.41,1.1-2.52-.28-3.39-.85c-.87-.57-1.53-1.38-1.99-2.46-.46-1.07-.68-2.22-.68-3.45,0-1.34.26-2.51.77-3.51.51-1,1.24-1.76,2.19-2.28s1.99-.78,3.12-.78c1.29,0,2.37.33,3.25.98s1.49,1.58,1.84,2.77l-1.68.4c-.3-.94-.73-1.62-1.3-2.05s-1.28-.64-2.14-.64c-.99,0-1.82.24-2.48.71-.67.47-1.13,1.11-1.4,1.91s-.4,1.62-.4,2.47c0,1.1.16,2.05.48,2.87s.82,1.43,1.49,1.83,1.4.61,2.19.61c.96,0,1.76-.28,2.43-.83s1.11-1.37,1.34-2.45Z"/>
      </g>
    </g>
  </g>
  <g>
    <line class="cls-4" x1="307" y1="213.76" x2="368.49" y2="162.55"/>
    <polygon points="370.56 167.31 374 157.96 364.17 159.65 370.56 167.31"/>
  </g>
  <g>
    <line class="cls-4" x1="307" y1="213.76" x2="367.61" y2="244.7"/>
    <polygon points="364.04 248.47 374 247.96 368.58 239.59 364.04 248.47"/>
  </g>
  <g>
    <line class="cls-4" x1="614" y1="167.96" x2="677.52" y2="282.49"/>
    <polygon points="672.45 283.63 681 288.76 681.17 278.8 672.45 283.63"/>
  </g>
  <g>
    <line class="cls-4" x1="614" y1="257.96" x2="674.87" y2="295.03"/>
    <polygon points="671.03 298.53 681 298.76 676.22 290.01 671.03 298.53"/>
  </g>
  <g>
    <line class="cls-4" x1="614" y1="347.96" x2="674.81" y2="312.39"/>
    <polygon points="676.06 317.43 681 308.76 671.03 308.82 676.06 317.43"/>
  </g>
  <g>
    <line class="cls-4" x1="614" y1="437.96" x2="677.48" y2="325.02"/>
    <polygon points="681.12 328.74 681 318.76 672.42 323.85 681.12 328.74"/>
  </g>
  <g>
    <line class="cls-4" x1="248.01" y1="69.37" x2="366.82" y2="69.37"/>
    <polygon points="365.37 74.36 374 69.37 365.37 64.39 365.37 74.36"/>
  </g>
  <g>
    <line class="cls-4" x1="601.58" y1="69.37" x2="720.4" y2="69.37"/>
    <polygon points="718.94 74.36 727.58 69.37 718.94 64.39 718.94 74.36"/>
  </g>
</svg>