<?xml version="1.0" encoding="UTF-8"?>
<svg id="Ebene_1" data-name="Ebene 1" xmlns="http://www.w3.org/2000/svg" viewBox="0 0 988 525">
  <defs>
    <style>
      .cls-1 {
        font-family: Arial-BoldMT, Arial;
        font-weight: 700;
      }

      .cls-1, .cls-2 {
        font-size: 18px;
      }

      .cls-2 {
        font-family: ArialMT, Arial;
      }

      .cls-3, .cls-4, .cls-5 {
        stroke-miterlimit: 10;
      }

      .cls-3, .cls-4, .cls-5, .cls-6 {
        stroke: #000;
      }

      .cls-3, .cls-4, .cls-6 {
        fill: none;
      }

      .cls-4, .cls-7, .cls-5 {
        opacity: .5;
      }

      .cls-5 {
        fill: #fff;
      }
    </style>
  </defs>
  <rect class="cls-4" x="251.3" y="62.5" width="372.42" height="400"/>
  <g class="cls-7">
    <rect class="cls-3" x="56.09" y="122.95" width="75" height="279.11"/>
    <text class="cls-1" transform="translate(100.85 317.51) rotate(-90)"><tspan x="0" y="0">Environment</tspan></text>
  </g>
  <g class="cls-7">
    <rect class="cls-6" x="743.93" y="187.5" width="150" height="150"/>
    <g>
      <path d="M795.71,252.51c0-1.31.2-2.41.59-3.3.29-.66.69-1.25,1.2-1.77s1.06-.91,1.67-1.16c.8-.34,1.73-.51,2.78-.51,1.9,0,3.42.59,4.56,1.77s1.71,2.82,1.71,4.91-.57,3.71-1.7,4.88-2.64,1.76-4.54,1.76-3.44-.58-4.57-1.75-1.7-2.78-1.7-4.83ZM798.39,252.43c0,1.46.34,2.56,1.01,3.32s1.53,1.13,2.57,1.13,1.89-.37,2.55-1.12,1-1.87,1-3.36-.32-2.58-.97-3.3-1.51-1.09-2.58-1.09-1.94.37-2.59,1.1-.98,1.84-.98,3.33Z"/>
      <path d="M814.5,249.54v1.97h-1.69v3.76c0,.76.02,1.21.05,1.33s.11.23.22.31.25.12.42.12c.23,0,.56-.08.99-.24l.21,1.92c-.57.25-1.22.37-1.95.37-.45,0-.85-.08-1.2-.22s-.62-.34-.79-.58-.28-.56-.35-.96c-.05-.29-.08-.87-.08-1.74v-4.07h-1.13v-1.97h1.13v-1.85l2.48-1.44v3.3h1.69Z"/>
      <path d="M818.67,245.99v4.74c.8-.93,1.75-1.4,2.86-1.4.57,0,1.08.11,1.54.32s.8.48,1.03.81.39.69.47,1.09.13,1.02.13,1.85v5.48h-2.47v-4.93c0-.98-.05-1.6-.14-1.86s-.26-.47-.5-.63-.53-.23-.89-.23c-.41,0-.78.1-1.1.3s-.56.5-.71.9-.22,1-.22,1.78v4.68h-2.47v-12.88h2.47Z"/>
      <path d="M832.61,255.91l2.46.41c-.32.9-.82,1.59-1.5,2.06s-1.54.71-2.56.71c-1.62,0-2.82-.53-3.6-1.59-.62-.85-.92-1.92-.92-3.22,0-1.55.4-2.76,1.21-3.63s1.83-1.31,3.07-1.31c1.39,0,2.48.46,3.29,1.38s1.19,2.32,1.15,4.21h-6.19c.02.73.22,1.3.6,1.71s.86.61,1.42.61c.39,0,.71-.11.97-.32s.46-.55.6-1.02ZM832.75,253.41c-.02-.71-.2-1.26-.55-1.63s-.78-.56-1.28-.56c-.54,0-.98.2-1.34.59s-.53.93-.52,1.6h3.69Z"/>
      <path d="M839.58,258.88h-2.47v-9.33h2.29v1.33c.39-.63.75-1.04,1.06-1.24s.67-.3,1.07-.3c.56,0,1.1.16,1.62.47l-.76,2.15c-.42-.27-.8-.4-1.16-.4s-.64.09-.88.29-.43.54-.57,1.03-.21,1.54-.21,3.13v2.88Z"/>
      <path d="M801.36,280.48h-2.83l-1.12-2.93h-5.15l-1.06,2.93h-2.76l5.02-12.88h2.75l5.16,12.88ZM796.57,275.38l-1.78-4.78-1.74,4.78h3.52Z"/>
      <path d="M802.49,281.09l2.82.34c.05.33.16.55.33.68.23.18.6.26,1.11.26.64,0,1.13-.1,1.45-.29.22-.13.38-.34.49-.62.08-.21.11-.58.11-1.13v-1.36c-.74,1.01-1.67,1.51-2.79,1.51-1.25,0-2.25-.53-2.98-1.59-.57-.84-.86-1.88-.86-3.13,0-1.56.38-2.76,1.13-3.59.75-.83,1.69-1.24,2.81-1.24s2.11.51,2.86,1.52v-1.31h2.31v8.38c0,1.1-.09,1.92-.27,2.47s-.44.97-.76,1.28-.77.55-1.31.73c-.55.18-1.24.26-2.08.26-1.58,0-2.7-.27-3.37-.81s-.99-1.23-.99-2.06c0-.08,0-.18,0-.3ZM804.7,275.62c0,.99.19,1.72.58,2.18.38.46.86.69,1.42.69.6,0,1.11-.24,1.53-.71s.62-1.17.62-2.1-.2-1.68-.6-2.15-.9-.7-1.51-.7-1.08.23-1.46.69c-.38.46-.58,1.16-.58,2.1Z"/>
      <path d="M819.12,277.51l2.46.41c-.32.9-.82,1.59-1.5,2.06-.68.47-1.54.71-2.56.71-1.62,0-2.82-.53-3.6-1.59-.62-.85-.92-1.92-.92-3.22,0-1.55.4-2.76,1.21-3.63s1.83-1.31,3.07-1.31c1.39,0,2.48.46,3.29,1.38s1.19,2.32,1.15,4.21h-6.19c.02.73.22,1.3.6,1.71s.86.61,1.42.61c.39,0,.71-.11.98-.32s.46-.55.6-1.02ZM819.26,275.01c-.02-.71-.2-1.26-.55-1.63s-.78-.56-1.28-.56c-.54,0-.98.2-1.34.59s-.52.93-.52,1.6h3.69Z"/>
      <path d="M832.21,280.48h-2.47v-4.76c0-1.01-.05-1.66-.16-1.96s-.28-.53-.51-.69c-.24-.16-.52-.25-.86-.25-.43,0-.81.12-1.15.35s-.57.54-.7.93c-.13.39-.19,1.1-.19,2.14v4.23h-2.47v-9.33h2.29v1.37c.81-1.05,1.84-1.58,3.08-1.58.54,0,1.04.1,1.49.29s.79.45,1.02.75c.23.3.39.65.48,1.04.09.39.14.94.14,1.66v5.8Z"/>
      <path d="M839,271.14v1.97h-1.69v3.76c0,.76.02,1.21.05,1.33.03.13.11.23.22.31.11.08.25.12.42.12.23,0,.56-.08.99-.24l.21,1.92c-.57.25-1.22.37-1.95.37-.45,0-.85-.07-1.2-.22s-.62-.34-.79-.58c-.17-.24-.28-.56-.35-.96-.05-.29-.08-.87-.08-1.74v-4.07h-1.13v-1.97h1.13v-1.85l2.48-1.44v3.3h1.69Z"/>
      <path d="M839.84,277.81l2.48-.38c.11.48.32.85.64,1.09s.77.37,1.35.37c.64,0,1.12-.12,1.44-.35.22-.16.33-.38.33-.66,0-.19-.06-.34-.18-.47-.12-.12-.4-.23-.83-.33-1.99-.44-3.25-.84-3.79-1.2-.74-.5-1.11-1.2-1.11-2.1,0-.81.32-1.49.96-2.04s1.63-.83,2.97-.83,2.23.21,2.85.62,1.05,1.03,1.28,1.85l-2.33.43c-.1-.36-.29-.64-.57-.83-.28-.19-.68-.29-1.19-.29-.65,0-1.12.09-1.4.27-.19.13-.28.3-.28.5,0,.18.08.33.25.45.22.16.99.4,2.31.69,1.31.3,2.23.67,2.75,1.1.52.44.77,1.05.77,1.84,0,.86-.36,1.59-1.07,2.21s-1.77.92-3.17.92c-1.27,0-2.28-.26-3.02-.77-.74-.52-1.23-1.22-1.45-2.1Z"/>
    </g>
  </g>
  <g class="cls-7">
    <g>
      <line class="cls-3" x1="94.48" y1="187.5" x2="266.67" y2="187.5"/>
      <polygon points="265.22 192.49 273.85 187.5 265.22 182.51 265.22 192.49"/>
    </g>
  </g>
  <g class="cls-7">
    <g>
      <path class="cls-3" d="M137.38,308.05c14.16-5.57,32.43-8.93,52.38-8.93,44.97,0,81.43,18.18,81.43,18.18"/>
      <polygon points="140.72 312.14 130.82 310.94 136.8 302.96 140.72 312.14"/>
    </g>
  </g>
  <g class="cls-7">
    <g>
      <path class="cls-3" d="M244.73,365.59c-14.16,5.57-32.43,8.93-52.38,8.93-44.97,0-81.43-18.18-81.43-18.18"/>
      <polygon points="241.4 361.5 251.3 362.7 245.31 370.67 241.4 361.5"/>
    </g>
  </g>
  <rect class="cls-5" x="291.3" y="122.95" width="80" height="129.55" transform="translate(662.59 375.45) rotate(-180)"/>
  <rect class="cls-5" x="291.3" y="272.5" width="80" height="129.55" transform="translate(662.59 674.55) rotate(-180)"/>
  <rect class="cls-5" x="491.3" y="162.5" width="80" height="200"/>
  <rect class="cls-5" x="391.3" y="162.5" width="80" height="200"/>
  <g class="cls-7">
    <text class="cls-2" transform="translate(340.13 230.75) rotate(-90)"><tspan x="0" y="0">Perception</tspan></text>
  </g>
  <g class="cls-7">
    <text class="cls-2" transform="translate(541.66 304.52) rotate(-90)"><tspan x="0" y="0">Interaction</tspan></text>
  </g>
  <g class="cls-7">
    <text class="cls-2" transform="translate(438.11 310.53) rotate(-90)"><tspan x="0" y="0">Deliberation</tspan></text>
  </g>
  <g class="cls-7">
    <g>
      <path d="M326.5,362.32l-12.88-4.95v-1.84l12.88-5.27v1.94l-3.9,1.5v5.39l3.9,1.42v1.81ZM321.21,358.6v-4.37l-3.57,1.34c-1.08.41-1.97.71-2.67.91.83.16,1.65.4,2.46.69l3.78,1.42Z"/>
      <path d="M323.08,343.01l.2-1.56c1.07.17,1.91.6,2.52,1.31.61.7.91,1.56.91,2.58,0,1.28-.42,2.3-1.25,3.08-.84.78-2.03,1.16-3.59,1.16-1.01,0-1.89-.17-2.65-.5s-1.32-.84-1.7-1.52c-.38-.68-.57-1.43-.57-2.23,0-1.01.26-1.84.77-2.49.51-.64,1.24-1.06,2.18-1.24l.24,1.54c-.63.15-1.1.41-1.42.78-.32.37-.47.82-.47,1.35,0,.8.29,1.44.86,1.94.57.5,1.47.75,2.71.75s2.17-.24,2.73-.72.85-1.11.85-1.88c0-.62-.19-1.14-.57-1.56s-.97-.68-1.76-.79Z"/>
      <path d="M325.08,336.64l1.4-.23c.09.45.14.84.14,1.2,0,.57-.09,1.02-.27,1.34s-.42.54-.72.67c-.3.13-.92.19-1.87.19h-5.37v1.16h-1.23v-1.16h-2.31l-.95-1.57h3.26v-1.59h1.23v1.59h5.46c.45,0,.74-.03.87-.08.13-.06.23-.15.31-.27.08-.12.11-.31.11-.54,0-.18-.02-.41-.06-.69Z"/>
      <path d="M315.43,335.09h-1.82v-1.58h1.82v1.58ZM326.5,335.09h-9.33v-1.58h9.33v1.58Z"/>
      <path d="M321.83,331.69c-1.73,0-3.01-.48-3.84-1.44-.69-.8-1.04-1.78-1.04-2.94,0-1.28.42-2.33,1.26-3.15.84-.81,2-1.22,3.48-1.22,1.2,0,2.15.18,2.83.54.69.36,1.22.88,1.6,1.57.38.69.57,1.44.57,2.25,0,1.31-.42,2.36-1.26,3.17-.84.81-2.04,1.21-3.62,1.21ZM321.83,330.06c1.2,0,2.09-.26,2.68-.78.6-.52.89-1.18.89-1.97s-.3-1.44-.9-1.96-1.51-.78-2.73-.78c-1.15,0-2.03.26-2.62.79-.59.52-.89,1.18-.89,1.96s.3,1.45.89,1.97,1.49.78,2.68.78Z"/>
      <path d="M326.5,321.09h-9.33v-1.42h1.33c-1.03-.69-1.54-1.68-1.54-2.97,0-.56.1-1.08.3-1.55.2-.47.47-.83.8-1.06s.72-.4,1.17-.49c.29-.06.81-.09,1.54-.09h5.74v1.58h-5.68c-.64,0-1.13.06-1.45.18-.32.12-.57.34-.77.65-.19.31-.29.68-.29,1.1,0,.67.21,1.26.64,1.74.43.49,1.24.73,2.43.73h5.1v1.58Z"/>
      <path d="M343.58,355.71l.43-1.71c1.4.36,2.47,1,3.2,1.93.74.93,1.1,2.06,1.1,3.41s-.28,2.52-.85,3.39c-.57.87-1.38,1.53-2.46,1.99-1.07.45-2.22.68-3.46.68-1.34,0-2.51-.26-3.51-.77-1-.51-1.76-1.24-2.28-2.19-.52-.95-.78-1.99-.78-3.12,0-1.29.33-2.37.98-3.25s1.58-1.49,2.77-1.84l.4,1.68c-.94.3-1.62.73-2.05,1.3s-.64,1.28-.64,2.14c0,.99.24,1.82.71,2.48.47.66,1.11,1.13,1.91,1.4s1.62.4,2.47.4c1.1,0,2.05-.16,2.87-.48.82-.32,1.43-.82,1.83-1.49s.61-1.4.61-2.19c0-.96-.28-1.76-.83-2.43s-1.37-1.11-2.45-1.34Z"/>
      <path d="M343.43,352.69c-1.73,0-3.01-.48-3.84-1.44-.69-.8-1.04-1.78-1.04-2.94,0-1.28.42-2.33,1.26-3.15s2-1.22,3.48-1.22c1.2,0,2.15.18,2.83.54.69.36,1.22.88,1.6,1.57.38.69.57,1.44.57,2.25,0,1.31-.42,2.36-1.26,3.17-.84.81-2.04,1.21-3.62,1.21ZM343.43,351.07c1.2,0,2.09-.26,2.68-.78s.89-1.18.89-1.97-.3-1.44-.9-1.96-1.51-.78-2.73-.78c-1.15,0-2.03.26-2.62.79-.59.52-.89,1.18-.89,1.96s.29,1.45.89,1.97,1.49.78,2.68.78Z"/>
      <path d="M348.1,342.09h-9.33v-1.42h1.33c-1.03-.69-1.54-1.68-1.54-2.97,0-.56.1-1.08.3-1.55.2-.47.47-.83.8-1.06s.72-.4,1.17-.49c.29-.06.81-.09,1.54-.09h5.74v1.58h-5.68c-.64,0-1.13.06-1.45.18s-.57.34-.76.65c-.19.31-.29.68-.29,1.1,0,.67.21,1.26.64,1.74.43.49,1.24.73,2.43.73h5.1v1.58Z"/>
      <path d="M346.68,328.63l1.4-.23c.09.45.14.84.14,1.2,0,.57-.09,1.02-.27,1.34s-.42.54-.72.67-.92.19-1.87.19h-5.37v1.16h-1.23v-1.16h-2.31l-.95-1.57h3.26v-1.59h1.23v1.59h5.46c.45,0,.74-.03.87-.08.13-.06.23-.15.31-.27.08-.12.11-.31.11-.54,0-.18-.02-.41-.06-.69Z"/>
      <path d="M348.1,327.1h-9.33v-1.42h1.42c-.66-.36-1.1-.7-1.31-1.01-.21-.31-.32-.65-.32-1.02,0-.53.17-1.08.51-1.63l1.47.54c-.23.39-.34.77-.34,1.16,0,.35.1.66.31.93s.5.47.87.59c.56.18,1.18.26,1.85.26h4.89v1.58Z"/>
      <path d="M343.43,321.68c-1.73,0-3.01-.48-3.84-1.44-.69-.8-1.04-1.78-1.04-2.94,0-1.28.42-2.33,1.26-3.15s2-1.22,3.48-1.22c1.2,0,2.15.18,2.83.54.69.36,1.22.88,1.6,1.57.38.69.57,1.44.57,2.25,0,1.31-.42,2.36-1.26,3.17-.84.8-2.04,1.21-3.62,1.21ZM343.43,320.05c1.2,0,2.09-.26,2.68-.78s.89-1.18.89-1.97-.3-1.44-.9-1.96-1.51-.78-2.73-.78c-1.15,0-2.03.26-2.62.79-.59.53-.89,1.18-.89,1.96s.29,1.45.89,1.97,1.49.78,2.68.78Z"/>
      <path d="M348.1,311.11h-12.88v-1.58h12.88v1.58Z"/>
    </g>
  </g>
  <g class="cls-7">
    <text class="cls-1" transform="translate(360.49 91.56)"><tspan x="0" y="0">Intelligent System</tspan></text>
  </g>
  <g class="cls-7">
    <g>
      <line class="cls-3" x1="598.15" y1="258.88" x2="765.54" y2="258.88"/>
      <polygon points="599.6 263.86 590.97 258.88 599.6 253.89 599.6 263.86"/>
      <polygon points="764.08 263.86 772.72 258.88 764.08 253.89 764.08 263.86"/>
    </g>
  </g>
</svg>