<?xml version="1.0" encoding="UTF-8"?>
<svg id="Ebene_1" data-name="Ebene 1" xmlns="http://www.w3.org/2000/svg" viewBox="0 0 988 525">
  <defs>
    <style>
      .cls-1 {
        font-family: ArialMT, Arial;
        font-size: 18px;
      }

      .cls-2 {
        fill: #b1b1b1;
      }

      .cls-3 {
        fill: #fff;
      }

      .cls-3, .cls-4, .cls-5 {
        stroke: #000;
      }

      .cls-6 {
        font-family: Arial-BoldMT, Arial;
        font-size: 24px;
        font-weight: 700;
      }

      .cls-4 {
        stroke-miterlimit: 10;
      }

      .cls-4, .cls-5 {
        fill: none;
      }
    </style>
  </defs>
  <polyline class="cls-4" points="314.52 62.5 260.32 62.5 260.32 462.5 614.69 462.5 614.69 362.5"/>
  <polyline class="cls-4" points="614.69 273.52 614.69 62.5 364.54 62.5"/>
  <g>
    <polyline class="cls-4" points="131.09 262.5 131.09 62.5 56.09 62.5 56.09 462.5 131.09 462.5 131.09 347.13"/>
    <text class="cls-6" transform="translate(103.51 299.17) rotate(-90)"><tspan x="0" y="0">House</tspan></text>
  </g>
  <polyline class="cls-5" points="743.93 243.66 743.93 337.5 893.93 337.5 893.93 187.5 796.23 187.5"/>
  <g>
    <line class="cls-4" x1="318.51" y1="412.5" x2="110.68" y2="412.5"/>
    <polygon points="112.14 407.51 103.51 412.5 112.14 417.49 112.14 407.51"/>
  </g>
  <g>
    <line class="cls-4" x1="103.51" y1="112.5" x2="311.33" y2="112.5"/>
    <polygon points="309.87 117.49 318.51 112.5 309.87 107.51 309.87 117.49"/>
  </g>
  <g>
    <line class="cls-4" x1="564.89" y1="258.88" x2="765.54" y2="258.88"/>
    <polygon points="566.35 263.86 557.72 258.88 566.35 253.89 566.35 263.86"/>
    <polygon points="764.08 263.86 772.72 258.88 764.08 253.89 764.08 263.86"/>
  </g>
  <text class="cls-1" transform="translate(186.99 141.43)"><tspan x="0" y="0">sense</tspan></text>
  <text class="cls-1" transform="translate(199 442.22)"><tspan x="0" y="0">act</tspan></text>
  <rect class="cls-3" x="310.32" y="187.5" width="150" height="150" transform="translate(770.65 525) rotate(180)"/>
  <g>
    <path d="M355.74,246.69v-12.88h1.71v5.29h6.7v-5.29h1.71v12.88h-1.71v-6.07h-6.7v6.07h-1.71Z"/>
    <path d="M374.88,243.68l1.63.2c-.26.96-.74,1.7-1.43,2.22s-1.59.79-2.67.79c-1.37,0-2.45-.42-3.25-1.26s-1.2-2.02-1.2-3.54.4-2.79,1.21-3.66,1.86-1.3,3.15-1.3,2.27.42,3.06,1.27,1.19,2.04,1.19,3.59c0,.09,0,.23,0,.42h-6.96c.06,1.03.35,1.81.87,2.36s1.17.82,1.95.82c.58,0,1.07-.15,1.48-.46s.74-.79.98-1.46ZM369.68,241.13h5.21c-.07-.79-.27-1.37-.6-1.77-.5-.61-1.16-.91-1.96-.91-.73,0-1.34.24-1.83.73s-.77,1.14-.82,1.95Z"/>
    <path d="M384.59,245.54c-.59.5-1.15.85-1.69,1.05s-1.12.31-1.74.31c-1.03,0-1.81-.25-2.37-.75s-.83-1.14-.83-1.92c0-.46.1-.87.31-1.25s.48-.68.82-.91.72-.4,1.14-.52c.31-.08.78-.16,1.41-.24,1.28-.15,2.22-.33,2.82-.54,0-.22,0-.35,0-.41,0-.64-.15-1.1-.45-1.36-.4-.36-1.01-.54-1.8-.54-.74,0-1.29.13-1.65.39s-.62.72-.79,1.38l-1.55-.21c.14-.66.37-1.2.69-1.6s.79-.72,1.4-.94,1.31-.33,2.12-.33,1.45.09,1.94.28.86.42,1.1.71.4.64.49,1.08c.05.27.08.76.08,1.46v2.11c0,1.47.03,2.4.1,2.79s.2.76.4,1.12h-1.65c-.16-.33-.27-.71-.32-1.15ZM384.46,242.01c-.57.23-1.44.43-2.58.6-.65.09-1.11.2-1.38.32s-.48.29-.62.51-.22.48-.22.75c0,.42.16.77.48,1.05s.79.42,1.4.42,1.15-.13,1.63-.4.82-.63,1.04-1.09c.17-.36.26-.88.26-1.58v-.58Z"/>
    <path d="M391.96,245.27l.23,1.4c-.45.09-.84.14-1.2.14-.57,0-1.02-.09-1.34-.27s-.54-.42-.67-.72-.19-.92-.19-1.87v-5.37h-1.16v-1.23h1.16v-2.31l1.57-.95v3.26h1.59v1.23h-1.59v5.46c0,.45.03.74.08.87s.15.23.27.31.31.11.54.11c.18,0,.41-.02.7-.06Z"/>
    <path d="M393.52,235.62v-1.82h1.58v1.82h-1.58ZM393.52,246.69v-9.33h1.58v9.33h-1.58Z"/>
    <path d="M397.51,246.69v-9.33h1.42v1.33c.69-1.03,1.68-1.54,2.97-1.54.56,0,1.08.1,1.55.3s.83.47,1.06.8.4.72.49,1.17c.06.29.09.81.09,1.54v5.74h-1.58v-5.68c0-.64-.06-1.13-.19-1.45s-.34-.57-.65-.76-.68-.29-1.1-.29c-.67,0-1.25.21-1.74.64s-.73,1.24-.73,2.43v5.1h-1.58Z"/>
    <path d="M407.23,247.46l1.54.23c.06.47.24.82.54,1.04.39.29.93.44,1.61.44.73,0,1.3-.15,1.7-.44s.67-.7.81-1.23c.08-.32.12-1,.12-2.03-.69.81-1.55,1.22-2.58,1.22-1.28,0-2.28-.46-2.98-1.39s-1.05-2.04-1.05-3.33c0-.89.16-1.71.48-2.47s.79-1.33,1.4-1.74,1.33-.62,2.16-.62c1.1,0,2.01.45,2.72,1.34v-1.12h1.46v8.07c0,1.45-.15,2.48-.44,3.09s-.76,1.09-1.41,1.44-1.43.53-2.37.53c-1.11,0-2.01-.25-2.7-.75s-1.02-1.26-.99-2.26ZM408.54,241.86c0,1.22.24,2.12.73,2.68s1.1.84,1.83.84,1.34-.28,1.83-.84.74-1.44.74-2.63-.25-2-.76-2.58-1.12-.87-1.83-.87-1.3.29-1.79.86-.74,1.42-.74,2.54Z"/>
    <path d="M366.89,263.77l1.71.43c-.36,1.4-1,2.47-1.93,3.2-.93.74-2.06,1.1-3.41,1.1s-2.52-.28-3.39-.85c-.87-.57-1.53-1.38-1.99-2.46-.45-1.07-.68-2.22-.68-3.45,0-1.34.26-2.51.77-3.51.51-1,1.24-1.76,2.19-2.28.95-.52,1.99-.78,3.12-.78,1.29,0,2.37.33,3.25.98s1.49,1.58,1.84,2.77l-1.68.4c-.3-.94-.73-1.62-1.3-2.05s-1.28-.64-2.14-.64c-.99,0-1.82.24-2.48.71-.66.47-1.13,1.11-1.4,1.91s-.4,1.62-.4,2.47c0,1.1.16,2.05.48,2.87.32.82.82,1.43,1.49,1.83s1.4.61,2.19.61c.96,0,1.76-.28,2.43-.83s1.11-1.37,1.34-2.45Z"/>
    <path d="M369.91,263.62c0-1.73.48-3.01,1.44-3.84.8-.69,1.78-1.04,2.94-1.04,1.28,0,2.33.42,3.15,1.26s1.22,2,1.22,3.48c0,1.2-.18,2.15-.54,2.83-.36.69-.88,1.22-1.57,1.6-.69.38-1.44.57-2.25.57-1.31,0-2.36-.42-3.17-1.26-.81-.84-1.21-2.04-1.21-3.62ZM371.53,263.62c0,1.2.26,2.09.78,2.69s1.18.89,1.97.89,1.44-.3,1.96-.9.78-1.51.78-2.73c0-1.15-.26-2.03-.79-2.62-.52-.59-1.18-.89-1.96-.89s-1.45.3-1.97.89-.78,1.49-.78,2.68Z"/>
    <path d="M380.51,268.29v-9.33h1.42v1.33c.69-1.03,1.68-1.54,2.97-1.54.56,0,1.08.1,1.55.3.47.2.83.47,1.06.8s.4.72.49,1.17c.06.29.09.81.09,1.54v5.74h-1.58v-5.68c0-.64-.06-1.13-.18-1.45s-.34-.57-.65-.76c-.31-.19-.68-.29-1.1-.29-.67,0-1.26.21-1.74.64-.49.43-.73,1.24-.73,2.43v5.1h-1.58Z"/>
    <path d="M393.97,266.88l.23,1.4c-.45.09-.84.14-1.2.14-.57,0-1.02-.09-1.34-.27s-.54-.42-.67-.72-.19-.92-.19-1.87v-5.37h-1.16v-1.23h1.16v-2.31l1.57-.95v3.26h1.59v1.23h-1.59v5.46c0,.45.03.74.08.87.06.13.15.23.27.31.12.08.31.11.54.11.18,0,.41-.02.69-.06Z"/>
    <path d="M395.5,268.29v-9.33h1.42v1.42c.36-.66.7-1.1,1.01-1.31.31-.21.65-.32,1.02-.32.53,0,1.08.17,1.63.51l-.54,1.47c-.39-.23-.77-.34-1.16-.34-.35,0-.66.1-.93.31s-.47.5-.59.87c-.18.56-.26,1.18-.26,1.85v4.89h-1.58Z"/>
    <path d="M400.92,263.62c0-1.73.48-3.01,1.44-3.84.8-.69,1.78-1.04,2.94-1.04,1.28,0,2.33.42,3.15,1.26s1.22,2,1.22,3.48c0,1.2-.18,2.15-.54,2.83-.36.69-.88,1.22-1.57,1.6-.69.38-1.44.57-2.25.57-1.31,0-2.36-.42-3.17-1.26-.8-.84-1.21-2.04-1.21-3.62ZM402.55,263.62c0,1.2.26,2.09.78,2.69s1.18.89,1.97.89,1.44-.3,1.96-.9.78-1.51.78-2.73c0-1.15-.26-2.03-.79-2.62-.53-.59-1.18-.89-1.96-.89s-1.45.3-1.97.89-.78,1.49-.78,2.68Z"/>
    <path d="M411.49,268.29v-12.88h1.58v12.88h-1.58Z"/>
    <path d="M356.13,285.75l1.61-.14c.08.64.25,1.17.53,1.59.28.41.71.75,1.3,1s1.25.38,1.98.38c.65,0,1.22-.1,1.72-.29s.87-.46,1.11-.8c.24-.34.37-.7.37-1.1s-.12-.76-.35-1.06-.62-.56-1.16-.76c-.35-.13-1.11-.34-2.29-.63s-2.01-.55-2.49-.8c-.62-.32-1.07-.72-1.38-1.2-.3-.48-.45-1.01-.45-1.6,0-.65.18-1.26.55-1.82s.91-.99,1.62-1.29,1.5-.44,2.36-.44c.96,0,1.8.15,2.53.46.73.31,1.29.76,1.68,1.36s.6,1.27.63,2.03l-1.63.12c-.09-.81-.39-1.43-.89-1.85-.51-.42-1.26-.62-2.25-.62s-1.78.19-2.25.57c-.47.38-.71.83-.71,1.37,0,.46.17.84.5,1.14.33.3,1.19.6,2.57.92,1.39.31,2.34.59,2.85.82.75.35,1.3.78,1.66,1.31s.54,1.14.54,1.83-.2,1.33-.59,1.94-.96,1.08-1.69,1.42c-.74.34-1.56.51-2.48.51-1.17,0-2.14-.17-2.93-.51-.79-.34-1.41-.85-1.86-1.53-.45-.68-.68-1.45-.71-2.32Z"/>
    <path d="M368.44,293.48l-.18-1.49c.35.09.65.14.91.14.35,0,.63-.06.84-.18s.38-.28.52-.49c.1-.16.26-.55.48-1.18.03-.09.08-.22.14-.39l-3.54-9.35h1.71l1.94,5.41c.25.69.48,1.41.68,2.16.18-.73.4-1.44.65-2.13l2-5.44h1.58l-3.55,9.49c-.38,1.03-.68,1.73-.89,2.12-.28.52-.6.9-.97,1.15s-.8.36-1.3.36c-.3,0-.64-.06-1.02-.19Z"/>
    <path d="M376.88,287.1l1.56-.25c.09.63.33,1.11.73,1.44.4.33.96.5,1.68.5s1.27-.15,1.62-.44.53-.64.53-1.04c0-.36-.16-.64-.47-.84-.22-.14-.76-.32-1.62-.54-1.16-.29-1.96-.55-2.41-.76-.45-.21-.79-.51-1.02-.89-.23-.38-.35-.8-.35-1.25,0-.42.09-.8.29-1.16.19-.35.45-.65.78-.88.25-.18.58-.34,1.01-.46.43-.13.88-.19,1.37-.19.73,0,1.38.11,1.93.32.55.21.96.5,1.23.86s.45.84.54,1.45l-1.55.21c-.07-.48-.27-.86-.61-1.12-.34-.27-.81-.4-1.43-.4-.73,0-1.25.12-1.56.36s-.47.52-.47.84c0,.21.06.39.19.55.13.17.33.31.61.42.16.06.62.19,1.4.4,1.12.3,1.9.54,2.34.73.44.19.79.47,1.04.83s.38.81.38,1.35-.15,1.02-.46,1.49c-.31.47-.75.83-1.33,1.08s-1.24.38-1.97.38c-1.21,0-2.14-.25-2.77-.76-.64-.5-1.04-1.25-1.22-2.24Z"/>
    <path d="M389.96,288.48l.23,1.4c-.45.09-.84.14-1.2.14-.57,0-1.02-.09-1.34-.27s-.54-.42-.67-.72-.19-.92-.19-1.87v-5.37h-1.16v-1.23h1.16v-2.31l1.57-.95v3.26h1.59v1.23h-1.59v5.46c0,.45.03.74.08.87.06.13.15.23.27.31.12.08.31.11.54.11.18,0,.41-.02.69-.06Z"/>
    <path d="M397.9,286.88l1.63.2c-.26.96-.74,1.7-1.43,2.22s-1.59.79-2.67.79c-1.37,0-2.45-.42-3.25-1.26-.8-.84-1.2-2.02-1.2-3.54s.4-2.79,1.21-3.66,1.86-1.3,3.15-1.3,2.27.42,3.06,1.27,1.19,2.04,1.19,3.59c0,.09,0,.23,0,.42h-6.96c.06,1.03.35,1.81.87,2.36s1.17.82,1.95.82c.58,0,1.08-.15,1.49-.46s.74-.79.98-1.46ZM392.71,284.33h5.21c-.07-.79-.27-1.37-.6-1.77-.5-.61-1.16-.91-1.96-.91-.73,0-1.34.24-1.83.73-.5.49-.77,1.14-.82,1.95Z"/>
    <path d="M401.52,289.89v-9.33h1.42v1.31c.29-.46.68-.82,1.17-1.1s1.04-.42,1.66-.42c.69,0,1.26.14,1.7.43.44.29.75.69.94,1.2.74-1.09,1.7-1.63,2.88-1.63.93,0,1.64.26,2.14.77s.75,1.3.75,2.37v6.41h-1.57v-5.88c0-.63-.05-1.09-.15-1.37-.1-.28-.29-.5-.56-.67s-.59-.25-.95-.25c-.66,0-1.2.22-1.63.65s-.65,1.14-.65,2.1v5.42h-1.58v-6.06c0-.7-.13-1.23-.39-1.58s-.68-.53-1.27-.53c-.45,0-.86.12-1.23.35-.38.23-.65.58-.82,1.03s-.25,1.1-.25,1.95v4.84h-1.58Z"/>
  </g>
  <text class="cls-1" transform="translate(352.31 117.95)"><tspan x="0" y="0">Sensors</tspan></text>
  <text class="cls-1" transform="translate(347.31 417.95)"><tspan x="0" y="0">Actuators</tspan></text>
  <g>
    <line class="cls-4" x1="385.32" y1="137.5" x2="385.32" y2="180.32"/>
    <polygon points="380.34 178.87 385.32 187.5 390.31 178.87 380.34 178.87"/>
  </g>
  <g>
    <line class="cls-4" x1="385.32" y1="337.5" x2="385.32" y2="380.32"/>
    <polygon points="380.34 378.87 385.32 387.5 390.31 378.87 380.34 378.87"/>
  </g>
  <g>
    <path class="cls-2" d="M339.74,94.47c3.09,0,6.12-1.07,8.52-3,3.21-2.59,5.06-6.45,5.06-10.57,0-4.78-2.56-9.26-6.68-11.69-.48-.28-1.09-.12-1.37.35-.28.48-.12,1.09.35,1.37,3.51,2.08,5.69,5.9,5.69,9.97,0,3.52-1.57,6.8-4.31,9.02-2.08,1.68-4.59,2.56-7.26,2.56s-5.18-.88-7.25-2.55c-2.75-2.21-4.32-5.5-4.32-9.02,0-4.11,2.21-7.95,5.77-10.02.48-.28.64-.89.36-1.37-.28-.48-.89-.64-1.37-.36-4.17,2.42-6.76,6.93-6.76,11.75,0,4.13,1.85,7.99,5.07,10.58,2.4,1.93,5.42,2.99,8.5,2.99Z"/>
    <path class="cls-2" d="M345.86,70.91c.55,0,1-.45,1-1v-32.58c0-3.75-3.19-6.8-7.12-6.8s-7.12,3.05-7.12,6.8v32.58c0,.55.45,1,1,1s1-.45,1-1v-32.58c0-2.65,2.3-4.8,5.12-4.8s5.12,2.16,5.12,4.8v32.58c0,.55.45,1,1,1Z"/>
    <g>
      <path class="cls-2" d="M339.74,77.29c.55,0,1-.45,1-1v-38.17c0-.55-.45-1-1-1s-1,.45-1,1v38.17c0,.55.45,1,1,1Z"/>
      <path class="cls-2" d="M334.19,80.97c0-3.06,2.49-5.55,5.55-5.55s5.55,2.49,5.55,5.55c0,3.06-2.49,5.55-5.55,5.55s-5.55-2.49-5.55-5.55ZM336.19,80.97c0,1.96,1.59,3.55,3.55,3.55s3.55-1.59,3.55-3.55-1.59-3.55-3.55-3.55-3.55,1.59-3.55,3.55Z"/>
    </g>
    <path class="cls-2" d="M337.98,64.64h3.53c.55,0,1-.45,1-1,0-.55-.45-1-1-1h-3.53c-.55,0-1,.45-1,1,0,.55.45,1,1,1Z"/>
    <path class="cls-2" d="M337.98,57.86h3.53c.55,0,1-.45,1-1,0-.55-.45-1-1-1h-3.53c-.55,0-1,.45-1,1,0,.55.45,1,1,1Z"/>
    <path class="cls-2" d="M337.98,50.97h3.53c.55,0,1-.45,1-1,0-.55-.45-1-1-1h-3.53c-.55,0-1,.45-1,1,0,.55.45,1,1,1Z"/>
    <path class="cls-2" d="M337.98,44.59h3.53c.55,0,1-.45,1-1,0-.55-.45-1-1-1h-3.53c-.55,0-1,.45-1,1,0,.55.45,1,1,1Z"/>
    <path class="cls-2" d="M337.98,70.91h3.53c.55,0,1-.45,1-1,0-.55-.45-1-1-1h-3.53c-.55,0-1,.45-1,1s.45,1,1,1Z"/>
  </g>
  <g>
    <path class="cls-2" d="M444.48,402.22h32.41c.55,0,1-.45,1-1,0-.55-.45-1-1-1h-32.41c-.55,0-1,.45-1,1,0,.55.45,1,1,1Z"/>
    <path class="cls-2" d="M485.69,402.22h7.68c.55,0,1-.45,1-1,0-.55-.45-1-1-1h-7.68c-.55,0-1,.45-1,1,0,.55.45,1,1,1Z"/>
    <path class="cls-2" d="M444.48,415.32h6.91c.55,0,1-.45,1-1,0-.55-.45-1-1-1h-6.91c-.55,0-1,.45-1,1,0,.55.45,1,1,1Z"/>
    <path class="cls-2" d="M459.95,415.32h33.43c.55,0,1-.45,1-1,0-.55-.45-1-1-1h-33.43c-.55,0-1,.45-1,1,0,.55.45,1,1,1Z"/>
    <path class="cls-2" d="M444.48,428.42h24.31c.55,0,1-.45,1-1,0-.55-.45-1-1-1h-24.31c-.55,0-1,.45-1,1,0,.55.45,1,1,1Z"/>
    <path class="cls-2" d="M477.36,428.42h16.01c.55,0,1-.45,1-1,0-.55-.45-1-1-1h-16.01c-.55,0-1,.45-1,1,0,.55.45,1,1,1Z"/>
    <path class="cls-2" d="M476.26,406.22v-10c0-1.46,1.19-2.64,2.64-2.64h4.87c1.46,0,2.64,1.19,2.64,2.64v10c0,1.46-1.19,2.64-2.64,2.64h-4.87c-1.46,0-2.64-1.19-2.64-2.64ZM478.9,395.57c-.35,0-.64.29-.64.64v10c0,.35.29.64.64.64h4.87c.35,0,.64-.29.64-.64v-10c0-.35-.29-.64-.64-.64h-4.87Z"/>
    <path class="cls-2" d="M450.61,419.32v-10c0-1.46,1.19-2.64,2.64-2.64h4.87c1.46,0,2.64,1.19,2.64,2.64v10c0,1.46-1.19,2.64-2.64,2.64h-4.87c-1.46,0-2.64-1.19-2.64-2.64ZM453.25,408.67c-.35,0-.64.29-.64.64v10c0,.35.29.64.64.64h4.87c.35,0,.64-.29.64-.64v-10c0-.35-.29-.64-.64-.64h-4.87Z"/>
    <path class="cls-2" d="M468.08,432.42v-10c0-1.46,1.19-2.64,2.64-2.64h4.87c1.46,0,2.64,1.19,2.64,2.64v10c0,1.46-1.19,2.64-2.64,2.64h-4.87c-1.46,0-2.64-1.19-2.64-2.64ZM470.72,421.77c-.35,0-.64.29-.64.64v10c0,.35.29.64.64.64h4.87c.35,0,.64-.29.64-.64v-10c0-.35-.29-.64-.64-.64h-4.87Z"/>
  </g>
  <g>
    <g>
      <g>
        <path class="cls-2" d="M625.15,304.47c.22,0,.45-.07.63-.23.43-.35.49-.98.14-1.41-2.54-3.11-6.31-4.9-10.32-4.9-.55,0-1,.45-1,1,0,.55.45,1,1,1,3.42,0,6.61,1.52,8.78,4.17.2.24.48.37.77.37Z"/>
        <path class="cls-2" d="M606.05,304.47c.29,0,.58-.13.77-.37,2.16-2.65,5.36-4.17,8.78-4.17.55,0,1-.45,1-1,0-.55-.45-1-1-1-4.02,0-7.78,1.79-10.32,4.9-.35.43-.29,1.06.14,1.41.19.15.41.23.63.23Z"/>
      </g>
      <g>
        <path class="cls-2" d="M622.24,306.85c.22,0,.45-.07.63-.23.43-.35.49-.98.14-1.41-1.83-2.24-4.53-3.52-7.42-3.52-.55,0-1,.45-1,1,0,.55.45,1,1,1,2.28,0,4.42,1.02,5.87,2.79.2.24.49.37.77.37Z"/>
        <path class="cls-2" d="M608.95,306.85c.29,0,.58-.13.77-.37,1.45-1.77,3.59-2.79,5.87-2.79.55,0,1-.45,1-1,0-.55-.45-1-1-1-2.89,0-5.59,1.28-7.42,3.52-.35.43-.29,1.06.14,1.41.19.15.41.23.63.23Z"/>
      </g>
      <g>
        <path class="cls-2" d="M619.09,308.95c.22,0,.45-.07.63-.23.43-.35.49-.98.14-1.41-1.05-1.29-2.6-2.02-4.26-2.02-.55,0-1,.45-1,1,0,.55.45,1,1,1,1.06,0,2.05.47,2.71,1.29.2.24.48.37.77.37Z"/>
        <path class="cls-2" d="M612.11,308.95c.29,0,.58-.13.77-.37.67-.82,1.66-1.29,2.71-1.29.55,0,1-.45,1-1,0-.55-.45-1-1-1-1.66,0-3.21.74-4.26,2.02-.35.43-.29,1.06.14,1.41.19.15.41.23.63.23Z"/>
      </g>
      <path class="cls-2" d="M612.92,311.29c0-1.45,1.18-2.64,2.64-2.64s2.64,1.18,2.64,2.64c0,1.45-1.18,2.64-2.64,2.64s-2.64-1.18-2.64-2.64ZM614.92,311.29c0,.35.29.64.64.64s.64-.29.64-.64c0-.35-.29-.64-.64-.64s-.64.29-.64.64Z"/>
    </g>
    <g>
      <g>
        <path class="cls-2" d="M601.13,339.54v-43.9c0-2.8,2.27-5.07,5.07-5.07h18.74c2.8,0,5.07,2.27,5.07,5.07v43.9c0,2.8-2.27,5.07-5.07,5.07h-18.74c-2.8,0-5.07-2.27-5.07-5.07ZM606.2,292.57c-1.69,0-3.07,1.38-3.07,3.07v43.9c0,1.69,1.38,3.07,3.07,3.07h18.74c1.69,0,3.07-1.38,3.07-3.07v-43.9c0-1.69-1.38-3.07-3.07-3.07h-18.74Z"/>
        <path class="cls-2" d="M602.13,336.14h26.88c.55,0,1-.45,1-1,0-.55-.45-1-1-1h-26.88c-.55,0-1,.45-1,1,0,.55.45,1,1,1Z"/>
        <path class="cls-2" d="M614,340.08h3.14c.55,0,1-.45,1-1,0-.55-.45-1-1-1h-3.15c-.55,0-1,.45-1,1,0,.55.45,1,1,1Z"/>
      </g>
      <g>
        <path class="cls-2" d="M578.02,323.82c.55,0,1-.45,1-1v-7.85s5.47,0,5.47,0v7.85c0,.55.45,1,1,1s1-.45,1-1v-8.85c0-.55-.45-1-1-1h-7.47c-.55,0-1,.45-1,1v8.85c0,.55.45,1,1,1Z"/>
        <path class="cls-2" d="M570.05,310.61h2.99c.55,0,1-.45,1-1,0-.55-.45-1-1-1h-.58s9.3-9.3,9.3-9.3l9.3,9.3h-.58c-.55,0-1,.45-1,1,0,.55.45,1,1,1h2.99c.4,0,.77-.24.92-.62.15-.37.07-.8-.22-1.09l-11.71-11.71c-.39-.39-1.02-.39-1.41,0l-11.71,11.71c-.29.29-.37.72-.22,1.09.15.37.52.62.92.62Z"/>
        <path class="cls-2" d="M585.59,323.82h4.89c.55,0,1-.45,1-1v-13.21c0-.55-.45-1-1-1s-1,.45-1,1v12.21s-3.89,0-3.89,0c-.55,0-1,.45-1,1,0,.55.45,1,1,1Z"/>
        <path class="cls-2" d="M573.04,323.82h4.93c.55,0,1-.45,1-1,0-.55-.45-1-1-1h-3.93s0-12.21,0-12.21c0-.55-.45-1-1-1s-1,.45-1,1v13.21c0,.55.45,1,1,1Z"/>
      </g>
      <path class="cls-2" d="M581.76,331.03h33.81c.55,0,1-.45,1-1v-12.67c0-.55-.45-1-1-1s-1,.45-1,1v11.67s-31.81,0-31.81,0v-4.81c0-.55-.45-1-1-1s-1,.45-1,1v5.81c0,.55.45,1,1,1Z"/>
    </g>
  </g>
  <g>
    <g>
      <path class="cls-2" d="M150.67,328.7c.55,0,1-.45,1-1v-17.94c0-.55-.45-1-1-1h-14.58c-.55,0-1,.45-1,1v17.48c0,.55.45,1,1,1s1-.45,1-1v-16.48s12.58,0,12.58,0v16.94c0,.55.45,1,1,1Z"/>
      <path class="cls-2" d="M161.26,290.5c.55,0,1-.45,1-1v-14.98c0-.55-.45-1-1-1h-7.49c-.55,0-1,.45-1,1v7.82c0,.55.45,1,1,1s1-.45,1-1v-6.82s5.49,0,5.49,0v13.98c0,.55.45,1,1,1Z"/>
      <path class="cls-2" d="M115.99,300.56h7c.55,0,1-.45,1-1,0-.55-.45-1-1-1h-4.59s24.98-24.98,24.98-24.98l24.98,24.98h-4.59c-.55,0-1,.45-1,1,0,.55.45,1,1,1h7c.4,0,.77-.24.92-.62.15-.37.07-.8-.22-1.09l-27.4-27.4c-.39-.39-1.02-.39-1.41,0l-27.4,27.4c-.29.29-.37.72-.22,1.09.15.37.52.62.92.62Z"/>
      <path class="cls-2" d="M129.54,294.43c.26,0,.51-.1.71-.29l11.42-11.42c.39-.39.39-1.02,0-1.41-.39-.39-1.02-.39-1.41,0l-11.42,11.42c-.39.39-.39,1.02,0,1.41.2.2.45.29.71.29Z"/>
      <path class="cls-2" d="M163.78,328.87c.55,0,1-.45,1-1v-28.32c0-.55-.45-1-1-1s-1,.45-1,1v28.32c0,.55.45,1,1,1Z"/>
      <path class="cls-2" d="M122.98,328.87c.55,0,1-.45,1-1v-28.32c0-.55-.45-1-1-1s-1,.45-1,1v28.32c0,.55.45,1,1,1Z"/>
    </g>
    <path class="cls-2" d="M122.98,328.87h40.79c.55,0,1-.45,1-1,0-.55-.45-1-1-1h-40.79c-.55,0-1,.45-1,1,0,.55.45,1,1,1Z"/>
  </g>
  <g>
    <g>
      <path class="cls-2" d="M753.84,193.95c.55,0,1-.45,1-1v-6.64s4.45,0,4.45,0v6.64c0,.55.45,1,1,1s1-.45,1-1v-7.64c0-.55-.45-1-1-1h-6.45c-.55,0-1,.45-1,1v7.64c0,.55.45,1,1,1Z"/>
      <path class="cls-2" d="M746.95,182.54h2.58c.55,0,1-.45,1-1,0-.55-.45-1-1-1h-.17s7.7-7.7,7.7-7.7l7.81,7.81c.39.39,1.02.39,1.41,0,.39-.39.39-1.02,0-1.41l-8.52-8.52c-.37-.37-1.04-.37-1.41,0l-10.12,10.12c-.29.29-.37.72-.22,1.09.15.37.52.62.92.62Z"/>
      <path class="cls-2" d="M760.38,193.95h2.93c1.26,0,2.29-1.03,2.29-2.29v-7.06c0-.55-.45-1-1-1s-1,.45-1,1v7.06c0,.16-.13.29-.29.29h-2.93c-.55,0-1,.45-1,1,0,.55.45,1,1,1Z"/>
      <path class="cls-2" d="M750.83,193.95h2.97c.55,0,1-.45,1-1,0-.55-.45-1-1-1h-2.97c-.16,0-.29-.13-.29-.29v-10.12c0-.55-.45-1-1-1s-1,.45-1,1v10.12c0,1.26,1.03,2.29,2.29,2.29Z"/>
    </g>
    <g>
      <g>
        <path class="cls-2" d="M747.44,213.31h19.26c2.86,0,5.18-2.33,5.18-5.18v-7.86c0-.55-.45-1-1-1s-1,.45-1,1v7.86c0,1.76-1.43,3.18-3.18,3.18h-19.26c-1.76,0-3.18-1.43-3.18-3.18v-40.12c0-1.76,1.43-3.18,3.18-3.18h19.26c1.76,0,3.18,1.43,3.18,3.18v8.25c0,.55.45,1,1,1s1-.45,1-1v-8.25c0-2.86-2.32-5.18-5.18-5.18h-19.26c-2.86,0-5.18,2.33-5.18,5.18v40.12c0,2.86,2.33,5.18,5.18,5.18Z"/>
        <path class="cls-2" d="M743.26,204.61h27.63c.55,0,1-.45,1-1,0-.55-.45-1-1-1h-27.63c-.55,0-1,.45-1,1,0,.55.45,1,1,1Z"/>
        <path class="cls-2" d="M755.45,208.66h3.23c.55,0,1-.45,1-1,0-.55-.45-1-1-1h-3.23c-.55,0-1,.45-1,1,0,.55.45,1,1,1Z"/>
      </g>
      <path class="cls-2" d="M733.41,228.31c.44,0,.85-.3.97-.75l3.2-12.1,21.87,5.75-1.35,5.87c-.12.54.21,1.08.75,1.2.54.12,1.07-.21,1.2-.75l1.57-6.81c.12-.53-.2-1.05-.72-1.19l-23.77-6.25c-.53-.14-1.08.18-1.22.71l-3.45,13.07c-.14.53.18,1.08.71,1.22.09.02.17.03.26.03Z"/>
      <path class="cls-2" d="M758.22,220.34c.53,0,.97-.42,1-.95,0-.06.17-3.07,1.58-5.78.25-.49.06-1.09-.43-1.35s-1.09-.06-1.35.43c-1.62,3.12-1.79,6.47-1.8,6.61-.03.55.4,1.02.95,1.05.02,0,.03,0,.05,0Z"/>
      <path class="cls-2" d="M738.55,215.24c.38,0,.74-.21.91-.58,1.22-2.61,1.24-6.09.07-11.27-.82-3.61-.8-6.97-.78-12.06,0-.82,0-1.68,0-2.58,0-1.36-.03-2.58-.06-3.65-.07-2.35-.12-4.39.36-4.88.04-.04.15-.15.57-.15,1.56,0,2.45,3.12,2.65,4.63.07.55.57.94,1.12.87.55-.07.94-.57.87-1.12-.08-.65-.9-6.38-4.63-6.38-.84,0-1.51.25-2,.76-1.07,1.1-1.02,3.07-.93,6.33.03,1.06.06,2.26.06,3.59,0,.9,0,1.76,0,2.58-.02,5.04-.03,8.68.83,12.51,1.05,4.66,1.07,7.83.07,9.99-.23.5-.02,1.1.48,1.33.14.06.28.09.42.09Z"/>
      <path class="cls-2" d="M764.45,190.39c-1.22-1.4-1.07-3.53.33-4.75l6.01-5.22c.68-.59,1.55-.88,2.44-.82.9.06,1.71.47,2.3,1.15,1.22,1.4,1.07,3.53-.33,4.75l-6.01,5.22c-.64.55-1.42.82-2.2.82-.94,0-1.88-.39-2.54-1.16ZM772.1,181.93l-6.01,5.22c-.57.49-.63,1.36-.14,1.93.24.28.57.44.93.47.37.03.72-.09.99-.33l6.01-5.22c.57-.49.63-1.36.14-1.93-.24-.28-.57-.44-.93-.47-.03,0-.07,0-.1,0-.33,0-.64.12-.89.33Z"/>
      <path class="cls-2" d="M763.67,184.92c-1.11-1.28-.98-3.23.31-4.35l5.29-4.6c1.28-1.12,3.24-.98,4.35.31,1.11,1.28.98,3.24-.31,4.35l-5.29,4.6c-.58.51-1.3.75-2.02.75-.86,0-1.72-.36-2.33-1.06ZM770.58,177.48l-5.29,4.6c-.45.39-.5,1.08-.11,1.53.39.45,1.08.5,1.53.11l5.29-4.6c.45-.39.5-1.08.11-1.53-.19-.22-.45-.35-.74-.37-.03,0-.05,0-.08,0-.26,0-.51.09-.71.27Z"/>
      <path class="cls-2" d="M769.06,202.06c-.77-.05-1.47-.4-1.97-.98-1.04-1.2-.91-3.02.29-4.06l4.78-4.15c.58-.5,1.32-.75,2.09-.7.77.05,1.47.4,1.97.98.5.58.75,1.32.7,2.09-.05.77-.4,1.47-.98,1.97l-4.78,4.15c-.53.46-1.19.71-1.88.71-.07,0-.14,0-.21,0ZM773.46,194.38l-4.78,4.15c-.37.32-.41.88-.09,1.24.15.18.37.28.6.3.23.02.46-.06.64-.21l4.78-4.15c.18-.15.28-.37.3-.6.02-.23-.06-.46-.21-.64-.15-.18-.37-.28-.6-.3-.02,0-.04,0-.06,0-.21,0-.41.08-.58.22Z"/>
      <path class="cls-2" d="M767.26,198.22c-.97-.07-1.86-.51-2.5-1.25-1.32-1.52-1.16-3.83.36-5.15l6.73-5.85c.74-.64,1.68-.96,2.65-.89.97.07,1.86.51,2.5,1.25.64.74.95,1.68.89,2.65-.07.97-.51,1.86-1.25,2.5l-6.73,5.85c-.67.58-1.51.89-2.39.89-.09,0-.17,0-.26,0ZM773.17,187.49l-6.73,5.85c-.69.6-.76,1.64-.16,2.33.29.33.69.53,1.13.56.44.03.86-.11,1.2-.4l6.73-5.85c.33-.29.53-.69.56-1.13.03-.44-.11-.86-.4-1.2-.29-.33-.69-.53-1.13-.56-.04,0-.08,0-.12,0-.4,0-.78.14-1.08.4Z"/>
    </g>
  </g>
  <text class="cls-6" transform="translate(509.69 117.95)"><tspan x="0" y="0">Agent</tspan></text>
  <g>
    <path d="M806.01,250.39c0-1.75.26-3.22.79-4.41.39-.88.92-1.66,1.6-2.36s1.42-1.21,2.22-1.55c1.07-.45,2.3-.68,3.7-.68,2.53,0,4.56.79,6.08,2.36s2.28,3.75,2.28,6.55-.75,4.94-2.26,6.51-3.52,2.35-6.05,2.35-4.59-.78-6.09-2.34-2.26-3.71-2.26-6.44ZM809.58,250.28c0,1.95.45,3.42,1.35,4.42s2.04,1.51,3.42,1.51,2.52-.5,3.4-1.49,1.33-2.49,1.33-4.48-.43-3.44-1.29-4.41-2.01-1.45-3.44-1.45-2.58.49-3.46,1.47-1.31,2.46-1.31,4.44Z"/>
    <path d="M831.06,246.43v2.62h-2.25v5.02c0,1.02.02,1.61.06,1.78s.14.31.29.42.34.16.56.16c.3,0,.75-.11,1.32-.32l.28,2.55c-.77.33-1.63.49-2.6.49-.59,0-1.13-.1-1.61-.3s-.83-.46-1.05-.77-.38-.74-.46-1.28c-.07-.38-.11-1.16-.11-2.32v-5.43h-1.51v-2.62h1.51v-2.47l3.3-1.92v4.39h2.25Z"/>
    <path d="M836.63,241.7v6.32c1.06-1.24,2.33-1.86,3.81-1.86.76,0,1.44.14,2.05.42s1.07.64,1.38,1.08.52.92.63,1.45.17,1.36.17,2.47v7.3h-3.29v-6.57c0-1.3-.06-2.13-.19-2.48s-.35-.63-.66-.84-.71-.31-1.19-.31c-.55,0-1.04.13-1.46.4s-.74.67-.94,1.2-.3,1.33-.3,2.37v6.23h-3.29v-17.18h3.29Z"/>
    <path d="M855.21,254.92l3.28.55c-.42,1.2-1.09,2.12-2,2.75s-2.05.94-3.42.94c-2.16,0-3.77-.71-4.8-2.12-.82-1.13-1.23-2.56-1.23-4.29,0-2.06.54-3.68,1.62-4.85s2.44-1.75,4.09-1.75c1.85,0,3.31.61,4.38,1.83s1.58,3.1,1.54,5.62h-8.25c.02.98.29,1.74.8,2.28s1.14.81,1.9.81c.52,0,.95-.14,1.3-.42s.62-.73.8-1.36ZM855.4,251.59c-.02-.95-.27-1.68-.74-2.17s-1.04-.74-1.71-.74c-.72,0-1.31.26-1.78.79s-.7,1.23-.69,2.13h4.92Z"/>
    <path d="M864.51,258.88h-3.29v-12.45h3.06v1.77c.52-.84.99-1.39,1.41-1.65s.89-.4,1.42-.4c.75,0,1.47.21,2.17.62l-1.02,2.87c-.55-.36-1.07-.54-1.55-.54s-.85.13-1.17.38-.57.71-.76,1.38-.28,2.05-.28,4.17v3.84Z"/>
    <path d="M804.87,287.68h-3.77l-1.5-3.9h-6.87l-1.42,3.9h-3.68l6.69-17.18h3.67l6.88,17.18ZM798.48,280.88l-2.37-6.38-2.32,6.38h4.69Z"/>
    <path d="M806.38,288.5l3.76.46c.06.44.21.74.43.9.31.23.8.35,1.48.35.86,0,1.5-.13,1.93-.39.29-.17.51-.45.66-.83.1-.27.15-.78.15-1.51v-1.82c-.98,1.34-2.23,2.02-3.73,2.02-1.67,0-3-.71-3.97-2.12-.77-1.12-1.15-2.51-1.15-4.17,0-2.09.5-3.68,1.51-4.78s2.25-1.65,3.74-1.65,2.81.68,3.81,2.03v-1.75h3.08v11.17c0,1.47-.12,2.57-.36,3.29s-.58,1.3-1.02,1.71-1.02.74-1.75.97-1.65.35-2.77.35c-2.11,0-3.61-.36-4.49-1.08s-1.32-1.64-1.32-2.75c0-.11,0-.24.01-.4ZM809.32,281.2c0,1.32.26,2.29.77,2.9s1.14.92,1.89.92c.8,0,1.48-.31,2.04-.94s.83-1.56.83-2.79-.27-2.25-.8-2.87-1.2-.94-2.02-.94-1.44.31-1.95.92-.77,1.55-.77,2.81Z"/>
    <path d="M828.55,283.72l3.28.55c-.42,1.2-1.09,2.12-2,2.75s-2.05.94-3.42.94c-2.16,0-3.77-.71-4.8-2.12-.82-1.13-1.23-2.56-1.23-4.29,0-2.06.54-3.68,1.62-4.85s2.44-1.75,4.09-1.75c1.85,0,3.31.61,4.38,1.83s1.58,3.1,1.54,5.62h-8.25c.02.98.29,1.74.8,2.28s1.14.81,1.9.81c.52,0,.95-.14,1.3-.42s.62-.73.8-1.36ZM828.74,280.39c-.02-.95-.27-1.68-.74-2.17s-1.04-.74-1.71-.74c-.72,0-1.31.26-1.78.79s-.7,1.23-.69,2.13h4.92Z"/>
    <path d="M846.02,287.68h-3.29v-6.35c0-1.34-.07-2.21-.21-2.61s-.37-.7-.69-.92-.7-.33-1.14-.33c-.57,0-1.08.16-1.54.47s-.76.73-.93,1.24-.25,1.47-.25,2.86v5.64h-3.29v-12.45h3.06v1.83c1.09-1.41,2.45-2.11,4.1-2.11.73,0,1.39.13,1.99.39s1.06.6,1.37,1,.52.87.64,1.38.18,1.25.18,2.21v7.73Z"/>
    <path d="M855.06,275.23v2.62h-2.25v5.02c0,1.02.02,1.61.06,1.78s.14.31.29.42.34.16.56.16c.3,0,.75-.11,1.32-.32l.28,2.55c-.77.33-1.63.49-2.6.49-.59,0-1.13-.1-1.61-.3s-.83-.46-1.05-.77-.38-.74-.46-1.28c-.07-.38-.11-1.16-.11-2.32v-5.43h-1.51v-2.62h1.51v-2.47l3.3-1.92v4.39h2.25Z"/>
    <path d="M856.19,284.13l3.3-.5c.14.64.43,1.13.86,1.46s1.03.5,1.8.5c.85,0,1.49-.16,1.92-.47.29-.22.43-.51.43-.88,0-.25-.08-.46-.23-.62-.16-.16-.53-.3-1.1-.43-2.66-.59-4.34-1.12-5.05-1.61-.98-.67-1.48-1.61-1.48-2.8,0-1.08.43-1.98,1.28-2.72s2.17-1.1,3.96-1.1,2.97.28,3.8.83,1.4,1.38,1.71,2.46l-3.11.57c-.13-.48-.38-.86-.76-1.11s-.9-.39-1.59-.39c-.87,0-1.49.12-1.86.36-.25.17-.38.39-.38.67,0,.23.11.43.33.6.3.22,1.32.53,3.08.93s2.98.89,3.67,1.46c.69.59,1.03,1.4,1.03,2.45,0,1.14-.48,2.12-1.43,2.94s-2.36,1.23-4.23,1.23c-1.7,0-3.04-.34-4.03-1.03s-1.63-1.62-1.94-2.8Z"/>
  </g>
</svg>