<?xml version="1.0" encoding="UTF-8"?><svg id="Ebene_1" xmlns="http://www.w3.org/2000/svg" viewBox="0 0 988 360"><g><g><rect x="144" y="50" width="120" height="80" style="fill:#fff; stroke:#1d1d1b; stroke-miterlimit:8; stroke-width:.99px;"/><g><path d="M168.68,86.67v-11.45h8.28v1.35h-6.77v3.51h6.34v1.34h-6.34v3.9h7.03v1.35h-8.55Z"/><path d="M179.14,86.67v-8.3h1.27v1.18c.61-.91,1.49-1.37,2.64-1.37,.5,0,.96,.09,1.38,.27s.73,.42,.94,.71c.21,.29,.35,.64,.44,1.04,.05,.26,.08,.72,.08,1.37v5.1h-1.41v-5.05c0-.57-.05-1-.16-1.29-.11-.28-.3-.51-.58-.68-.28-.17-.61-.25-.98-.25-.6,0-1.12,.19-1.55,.57-.43,.38-.65,1.1-.65,2.16v4.53h-1.41Z"/><path d="M191.11,85.41l.2,1.24c-.4,.08-.75,.12-1.06,.12-.51,0-.91-.08-1.19-.24s-.48-.37-.59-.64c-.11-.26-.17-.82-.17-1.66v-4.77h-1.03v-1.09h1.03v-2.05l1.4-.84v2.9h1.41v1.09h-1.41v4.85c0,.4,.02,.66,.07,.77,.05,.12,.13,.21,.24,.27,.11,.07,.27,.1,.48,.1,.16,0,.36-.02,.62-.05Z"/><path d="M198.16,84l1.45,.18c-.23,.85-.65,1.51-1.27,1.98s-1.41,.7-2.38,.7c-1.21,0-2.18-.37-2.89-1.12-.71-.75-1.07-1.79-1.07-3.14s.36-2.48,1.08-3.25c.72-.77,1.65-1.16,2.8-1.16s2.02,.38,2.72,1.13c.7,.76,1.05,1.82,1.05,3.19,0,.08,0,.21,0,.38h-6.19c.05,.91,.31,1.61,.77,2.09s1.04,.73,1.73,.73c.52,0,.96-.13,1.32-.41,.36-.27,.65-.7,.87-1.3Zm-4.62-2.27h4.63c-.06-.7-.24-1.22-.53-1.57-.45-.54-1.03-.81-1.74-.81-.65,0-1.19,.22-1.63,.65-.44,.43-.68,1.01-.73,1.73Z"/><path d="M201.36,86.67v-8.3h1.27v1.26c.32-.59,.62-.98,.89-1.16s.57-.28,.9-.28c.47,0,.96,.15,1.45,.45l-.48,1.3c-.34-.2-.69-.3-1.03-.3-.31,0-.58,.09-.83,.28-.25,.19-.42,.44-.52,.77-.16,.5-.23,1.05-.23,1.64v4.34h-1.41Z"/><path d="M206.71,89.85v-11.48h1.28v1.08c.3-.42,.64-.74,1.02-.95s.84-.32,1.38-.32c.71,0,1.33,.18,1.88,.55,.54,.37,.95,.88,1.23,1.54s.41,1.39,.41,2.18c0,.85-.15,1.61-.46,2.29s-.75,1.2-1.33,1.56c-.58,.36-1.19,.54-1.83,.54-.47,0-.89-.1-1.26-.3-.37-.2-.68-.45-.92-.75v4.04h-1.41Zm1.27-7.28c0,1.07,.22,1.86,.65,2.37,.43,.51,.96,.77,1.57,.77s1.16-.26,1.61-.79c.45-.53,.67-1.35,.67-2.46s-.22-1.85-.65-2.38c-.43-.53-.95-.79-1.56-.79s-1.13,.28-1.59,.84c-.46,.56-.69,1.37-.69,2.44Z"/><path d="M215.59,86.67v-8.3h1.27v1.26c.32-.59,.62-.98,.89-1.16s.57-.28,.9-.28c.47,0,.96,.15,1.45,.45l-.48,1.3c-.34-.2-.69-.3-1.03-.3-.31,0-.58,.09-.83,.28-.25,.19-.42,.44-.52,.77-.16,.5-.23,1.05-.23,1.64v4.34h-1.41Z"/><path d="M220.94,76.83v-1.62h1.41v1.62h-1.41Zm0,9.84v-8.3h1.41v8.3h-1.41Z"/><path d="M223.93,84.19l1.39-.22c.08,.56,.3,.98,.65,1.28s.86,.45,1.5,.45,1.12-.13,1.44-.39c.31-.26,.47-.57,.47-.93,0-.32-.14-.57-.41-.75-.19-.12-.67-.28-1.44-.48-1.03-.26-1.75-.49-2.14-.68-.4-.19-.7-.45-.91-.79s-.31-.71-.31-1.11c0-.37,.08-.71,.25-1.03,.17-.31,.4-.58,.69-.79,.22-.16,.52-.3,.89-.41,.38-.11,.78-.17,1.21-.17,.65,0,1.22,.09,1.71,.28s.86,.44,1.09,.76,.4,.75,.48,1.29l-1.38,.19c-.06-.43-.24-.76-.54-1-.3-.24-.72-.36-1.27-.36-.65,0-1.11,.11-1.38,.32-.28,.21-.41,.46-.41,.75,0,.18,.06,.35,.17,.49,.11,.15,.29,.28,.54,.38,.14,.05,.55,.17,1.24,.36,1,.27,1.69,.48,2.08,.65,.39,.17,.7,.42,.93,.74,.22,.32,.34,.72,.34,1.2s-.14,.91-.41,1.32-.67,.73-1.18,.96-1.1,.34-1.75,.34c-1.08,0-1.9-.22-2.46-.67-.57-.45-.93-1.11-1.08-1.99Z"/><path d="M238.17,84l1.45,.18c-.23,.85-.65,1.51-1.27,1.98s-1.41,.7-2.38,.7c-1.21,0-2.18-.37-2.89-1.12-.71-.75-1.07-1.79-1.07-3.14s.36-2.48,1.08-3.25c.72-.77,1.65-1.16,2.8-1.16s2.02,.38,2.72,1.13c.7,.76,1.05,1.82,1.05,3.19,0,.08,0,.21,0,.38h-6.19c.05,.91,.31,1.61,.77,2.09s1.04,.73,1.73,.73c.52,0,.96-.13,1.32-.41,.36-.27,.65-.7,.87-1.3Zm-4.62-2.27h4.63c-.06-.7-.24-1.22-.53-1.57-.45-.54-1.03-.81-1.74-.81-.65,0-1.19,.22-1.63,.65-.44,.43-.68,1.01-.73,1.73Z"/><path d="M175.91,103.39l1.39-.22c.08,.56,.3,.98,.65,1.28s.86,.45,1.5,.45,1.12-.13,1.44-.39c.31-.26,.47-.57,.47-.93,0-.32-.14-.57-.41-.75-.19-.12-.67-.28-1.44-.48-1.03-.26-1.75-.49-2.14-.68-.4-.19-.7-.45-.91-.79s-.31-.71-.31-1.11c0-.37,.08-.71,.25-1.03,.17-.31,.4-.58,.69-.79,.22-.16,.52-.3,.89-.41,.38-.11,.78-.17,1.21-.17,.65,0,1.22,.09,1.71,.28s.86,.44,1.09,.76,.4,.75,.48,1.29l-1.38,.19c-.06-.43-.24-.76-.54-1-.3-.24-.72-.36-1.27-.36-.65,0-1.11,.11-1.38,.32-.28,.21-.41,.46-.41,.75,0,.18,.06,.35,.17,.49,.11,.15,.29,.28,.54,.38,.14,.05,.55,.17,1.24,.36,1,.27,1.69,.48,2.08,.65,.39,.17,.7,.42,.93,.74,.22,.32,.34,.72,.34,1.2s-.14,.91-.41,1.32-.67,.73-1.18,.96-1.1,.34-1.75,.34c-1.08,0-1.9-.22-2.46-.67-.57-.45-.93-1.11-1.08-1.99Z"/><path d="M187.54,104.61l.2,1.24c-.4,.08-.75,.12-1.06,.12-.51,0-.91-.08-1.19-.24s-.48-.37-.59-.64c-.11-.26-.17-.82-.17-1.66v-4.77h-1.03v-1.09h1.03v-2.05l1.4-.84v2.9h1.41v1.09h-1.41v4.85c0,.4,.02,.66,.07,.77,.05,.12,.13,.21,.24,.27,.11,.07,.27,.1,.48,.1,.16,0,.36-.02,.62-.05Z"/><path d="M188.9,105.87v-8.3h1.27v1.26c.32-.59,.62-.98,.89-1.16s.57-.28,.9-.28c.47,0,.96,.15,1.45,.45l-.48,1.3c-.34-.2-.69-.3-1.03-.3-.31,0-.58,.09-.83,.28-.25,.19-.42,.44-.52,.77-.16,.5-.23,1.05-.23,1.64v4.34h-1.41Z"/><path d="M199.66,104.84c-.52,.44-1.02,.76-1.5,.94-.48,.18-1,.27-1.55,.27-.91,0-1.61-.22-2.1-.67s-.73-1.01-.73-1.71c0-.41,.09-.78,.28-1.11s.43-.61,.73-.81,.64-.36,1.01-.46c.28-.07,.69-.14,1.25-.21,1.14-.13,1.97-.3,2.51-.48,0-.19,0-.31,0-.37,0-.57-.13-.98-.4-1.21-.36-.32-.89-.48-1.6-.48-.66,0-1.15,.12-1.46,.35-.32,.23-.55,.64-.7,1.23l-1.38-.19c.12-.59,.33-1.06,.62-1.43,.29-.36,.7-.64,1.24-.84s1.17-.29,1.88-.29,1.28,.08,1.73,.25c.44,.17,.77,.38,.98,.63,.21,.25,.35,.57,.44,.96,.05,.24,.07,.67,.07,1.3v1.88c0,1.31,.03,2.13,.09,2.48,.06,.35,.18,.68,.36,1h-1.47c-.15-.29-.24-.63-.28-1.02Zm-.12-3.14c-.51,.21-1.28,.39-2.3,.53-.58,.08-.99,.18-1.23,.28-.24,.1-.42,.26-.55,.46-.13,.2-.2,.42-.2,.67,0,.38,.14,.69,.43,.94s.7,.38,1.25,.38,1.02-.12,1.45-.36c.42-.24,.73-.56,.93-.97,.15-.32,.23-.79,.23-1.41v-.52Z"/><path d="M206.21,104.61l.2,1.24c-.4,.08-.75,.12-1.06,.12-.51,0-.91-.08-1.19-.24s-.48-.37-.59-.64c-.11-.26-.17-.82-.17-1.66v-4.77h-1.03v-1.09h1.03v-2.05l1.4-.84v2.9h1.41v1.09h-1.41v4.85c0,.4,.02,.66,.07,.77,.05,.12,.13,.21,.24,.27,.11,.07,.27,.1,.48,.1,.16,0,.36-.02,.62-.05Z"/><path d="M213.27,103.2l1.45,.18c-.23,.85-.65,1.51-1.27,1.98s-1.41,.7-2.38,.7c-1.21,0-2.18-.37-2.89-1.12-.71-.75-1.07-1.79-1.07-3.14s.36-2.48,1.08-3.25c.72-.77,1.65-1.16,2.8-1.16s2.02,.38,2.72,1.13c.7,.76,1.05,1.82,1.05,3.19,0,.08,0,.21,0,.38h-6.19c.05,.91,.31,1.61,.77,2.09s1.04,.73,1.73,.73c.52,0,.96-.13,1.32-.41,.36-.27,.65-.7,.87-1.3Zm-4.62-2.27h4.63c-.06-.7-.24-1.22-.53-1.57-.45-.54-1.03-.81-1.74-.81-.65,0-1.19,.22-1.63,.65-.44,.43-.68,1.01-.73,1.73Z"/><path d="M216.23,106.55l1.37,.2c.06,.42,.22,.73,.48,.92,.35,.26,.83,.39,1.43,.39,.65,0,1.15-.13,1.51-.39s.59-.62,.72-1.09c.07-.29,.11-.89,.1-1.8-.61,.72-1.38,1.09-2.3,1.09-1.14,0-2.02-.41-2.65-1.23-.62-.82-.94-1.81-.94-2.96,0-.79,.14-1.52,.43-2.19,.29-.67,.7-1.19,1.25-1.55,.54-.36,1.18-.55,1.92-.55,.98,0,1.79,.4,2.42,1.19v-1h1.3v7.17c0,1.29-.13,2.21-.39,2.75s-.68,.96-1.25,1.28-1.27,.47-2.11,.47c-.99,0-1.79-.22-2.4-.67s-.9-1.12-.88-2.01Zm1.16-4.98c0,1.09,.22,1.88,.65,2.38s.97,.75,1.62,.75,1.19-.25,1.62-.75c.44-.5,.66-1.28,.66-2.34s-.23-1.78-.68-2.3-.99-.77-1.63-.77-1.16,.25-1.59,.76-.66,1.26-.66,2.26Z"/><path d="M225.32,109.06l-.16-1.32c.31,.08,.58,.12,.8,.12,.31,0,.56-.05,.75-.16s.34-.25,.46-.44c.09-.14,.23-.49,.43-1.05,.03-.08,.07-.19,.12-.34l-3.15-8.31h1.52l1.73,4.8c.22,.61,.42,1.25,.6,1.92,.16-.65,.35-1.28,.58-1.89l1.77-4.84h1.41l-3.16,8.44c-.34,.91-.6,1.54-.79,1.88-.25,.46-.54,.8-.86,1.02s-.71,.32-1.16,.32c-.27,0-.57-.06-.91-.17Z"/></g></g><g><rect x="289" y="50" width="120" height="80" style="fill:#fff; stroke:#1d1d1b; stroke-miterlimit:8; stroke-width:.99px;"/><g><path d="M313.68,86.67v-11.45h8.28v1.35h-6.77v3.51h6.34v1.34h-6.34v3.9h7.03v1.35h-8.55Z"/><path d="M324.14,86.67v-8.3h1.27v1.18c.61-.91,1.49-1.37,2.64-1.37,.5,0,.96,.09,1.38,.27s.73,.42,.94,.71c.21,.29,.35,.64,.44,1.04,.05,.26,.08,.72,.08,1.37v5.1h-1.41v-5.05c0-.57-.05-1-.16-1.29-.11-.28-.3-.51-.58-.68-.28-.17-.61-.25-.98-.25-.6,0-1.12,.19-1.55,.57-.43,.38-.65,1.1-.65,2.16v4.53h-1.41Z"/><path d="M336.11,85.41l.2,1.24c-.4,.08-.75,.12-1.06,.12-.51,0-.91-.08-1.19-.24s-.48-.37-.59-.64c-.11-.26-.17-.82-.17-1.66v-4.77h-1.03v-1.09h1.03v-2.05l1.4-.84v2.9h1.41v1.09h-1.41v4.85c0,.4,.02,.66,.07,.77,.05,.12,.13,.21,.24,.27,.11,.07,.27,.1,.48,.1,.16,0,.36-.02,.62-.05Z"/><path d="M343.16,84l1.45,.18c-.23,.85-.65,1.51-1.27,1.98s-1.41,.7-2.38,.7c-1.21,0-2.18-.37-2.89-1.12-.71-.75-1.07-1.79-1.07-3.14s.36-2.48,1.08-3.25c.72-.77,1.65-1.16,2.8-1.16s2.02,.38,2.72,1.13c.7,.76,1.05,1.82,1.05,3.19,0,.08,0,.21,0,.38h-6.19c.05,.91,.31,1.61,.77,2.09s1.04,.73,1.73,.73c.52,0,.96-.13,1.32-.41,.36-.27,.65-.7,.87-1.3Zm-4.62-2.27h4.63c-.06-.7-.24-1.22-.53-1.57-.45-.54-1.03-.81-1.74-.81-.65,0-1.19,.22-1.63,.65-.44,.43-.68,1.01-.73,1.73Z"/><path d="M346.36,86.67v-8.3h1.27v1.26c.32-.59,.62-.98,.89-1.16s.57-.28,.9-.28c.47,0,.96,.15,1.45,.45l-.48,1.3c-.34-.2-.69-.3-1.03-.3-.31,0-.58,.09-.83,.28-.25,.19-.42,.44-.52,.77-.16,.5-.23,1.05-.23,1.64v4.34h-1.41Z"/><path d="M351.71,89.85v-11.48h1.28v1.08c.3-.42,.64-.74,1.02-.95s.84-.32,1.38-.32c.71,0,1.33,.18,1.88,.55,.54,.37,.95,.88,1.23,1.54s.41,1.39,.41,2.18c0,.85-.15,1.61-.46,2.29s-.75,1.2-1.33,1.56c-.58,.36-1.19,.54-1.83,.54-.47,0-.89-.1-1.26-.3-.37-.2-.68-.45-.92-.75v4.04h-1.41Zm1.27-7.28c0,1.07,.22,1.86,.65,2.37,.43,.51,.96,.77,1.57,.77s1.16-.26,1.61-.79c.45-.53,.67-1.35,.67-2.46s-.22-1.85-.65-2.38c-.43-.53-.95-.79-1.56-.79s-1.13,.28-1.59,.84c-.46,.56-.69,1.37-.69,2.44Z"/><path d="M360.59,86.67v-8.3h1.27v1.26c.32-.59,.62-.98,.89-1.16s.57-.28,.9-.28c.47,0,.96,.15,1.45,.45l-.48,1.3c-.34-.2-.69-.3-1.03-.3-.31,0-.58,.09-.83,.28-.25,.19-.42,.44-.52,.77-.16,.5-.23,1.05-.23,1.64v4.34h-1.41Z"/><path d="M365.94,76.83v-1.62h1.41v1.62h-1.41Zm0,9.84v-8.3h1.41v8.3h-1.41Z"/><path d="M368.93,84.19l1.39-.22c.08,.56,.3,.98,.65,1.28s.86,.45,1.5,.45,1.12-.13,1.44-.39c.31-.26,.47-.57,.47-.93,0-.32-.14-.57-.41-.75-.19-.12-.67-.28-1.44-.48-1.03-.26-1.75-.49-2.14-.68-.4-.19-.7-.45-.91-.79s-.31-.71-.31-1.11c0-.37,.08-.71,.25-1.03,.17-.31,.4-.58,.69-.79,.22-.16,.52-.3,.89-.41,.38-.11,.78-.17,1.21-.17,.65,0,1.22,.09,1.71,.28s.86,.44,1.09,.76,.4,.75,.48,1.29l-1.38,.19c-.06-.43-.24-.76-.54-1-.3-.24-.72-.36-1.27-.36-.65,0-1.11,.11-1.38,.32-.28,.21-.41,.46-.41,.75,0,.18,.06,.35,.17,.49,.11,.15,.29,.28,.54,.38,.14,.05,.55,.17,1.24,.36,1,.27,1.69,.48,2.08,.65,.39,.17,.7,.42,.93,.74,.22,.32,.34,.72,.34,1.2s-.14,.91-.41,1.32-.67,.73-1.18,.96-1.1,.34-1.75,.34c-1.08,0-1.9-.22-2.46-.67-.57-.45-.93-1.11-1.08-1.99Z"/><path d="M383.17,84l1.45,.18c-.23,.85-.65,1.51-1.27,1.98s-1.41,.7-2.38,.7c-1.21,0-2.18-.37-2.89-1.12-.71-.75-1.07-1.79-1.07-3.14s.36-2.48,1.08-3.25c.72-.77,1.65-1.16,2.8-1.16s2.02,.38,2.72,1.13c.7,.76,1.05,1.82,1.05,3.19,0,.08,0,.21,0,.38h-6.19c.05,.91,.31,1.61,.77,2.09s1.04,.73,1.73,.73c.52,0,.96-.13,1.32-.41,.36-.27,.65-.7,.87-1.3Zm-4.62-2.27h4.63c-.06-.7-.24-1.22-.53-1.57-.45-.54-1.03-.81-1.74-.81-.65,0-1.19,.22-1.63,.65-.44,.43-.68,1.01-.73,1.73Z"/><path d="M330.54,106.55l1.37,.2c.06,.42,.22,.73,.48,.92,.35,.26,.83,.39,1.43,.39,.65,0,1.15-.13,1.51-.39s.59-.62,.72-1.09c.07-.29,.11-.89,.1-1.8-.61,.72-1.38,1.09-2.3,1.09-1.14,0-2.02-.41-2.65-1.23-.62-.82-.94-1.81-.94-2.96,0-.79,.14-1.52,.43-2.19,.29-.67,.7-1.19,1.25-1.55,.54-.36,1.18-.55,1.92-.55,.98,0,1.79,.4,2.42,1.19v-1h1.3v7.17c0,1.29-.13,2.21-.39,2.75s-.68,.96-1.25,1.28-1.27,.47-2.11,.47c-.99,0-1.79-.22-2.4-.67s-.9-1.12-.88-2.01Zm1.16-4.98c0,1.09,.22,1.88,.65,2.38s.97,.75,1.62,.75,1.19-.25,1.62-.75c.44-.5,.66-1.28,.66-2.34s-.23-1.78-.68-2.3-.99-.77-1.63-.77-1.16,.25-1.59,.76-.66,1.26-.66,2.26Z"/><path d="M339.18,101.72c0-1.54,.43-2.67,1.28-3.41,.71-.61,1.58-.92,2.61-.92,1.14,0,2.07,.37,2.8,1.12,.72,.75,1.09,1.78,1.09,3.1,0,1.07-.16,1.91-.48,2.52-.32,.61-.79,1.09-1.4,1.43-.61,.34-1.28,.51-2,.51-1.16,0-2.1-.37-2.82-1.12-.72-.74-1.07-1.82-1.07-3.22Zm1.45,0c0,1.06,.23,1.86,.7,2.39,.46,.53,1.05,.79,1.75,.79s1.28-.27,1.74-.8,.7-1.34,.7-2.43c0-1.03-.23-1.8-.7-2.33-.47-.53-1.05-.79-1.74-.79s-1.29,.26-1.75,.79c-.46,.53-.7,1.32-.7,2.38Z"/><path d="M354.01,104.84c-.52,.44-1.02,.76-1.5,.94-.48,.18-1,.27-1.55,.27-.91,0-1.61-.22-2.1-.67s-.73-1.01-.73-1.71c0-.41,.09-.78,.28-1.11s.43-.61,.73-.81,.64-.36,1.01-.46c.28-.07,.69-.14,1.25-.21,1.14-.13,1.97-.3,2.51-.48,0-.19,0-.31,0-.37,0-.57-.13-.98-.4-1.21-.36-.32-.89-.48-1.6-.48-.66,0-1.15,.12-1.46,.35-.32,.23-.55,.64-.7,1.23l-1.38-.19c.12-.59,.33-1.06,.62-1.43,.29-.36,.7-.64,1.24-.84s1.17-.29,1.88-.29,1.28,.08,1.73,.25c.44,.17,.77,.38,.98,.63,.21,.25,.35,.57,.44,.96,.05,.24,.07,.67,.07,1.3v1.88c0,1.31,.03,2.13,.09,2.48,.06,.35,.18,.68,.36,1h-1.47c-.15-.29-.24-.63-.28-1.02Zm-.12-3.14c-.51,.21-1.28,.39-2.3,.53-.58,.08-.99,.18-1.23,.28-.24,.1-.42,.26-.55,.46-.13,.2-.2,.42-.2,.67,0,.38,.14,.69,.43,.94s.7,.38,1.25,.38,1.02-.12,1.45-.36c.42-.24,.73-.56,.93-.97,.15-.32,.23-.79,.23-1.41v-.52Z"/><path d="M357.47,105.87v-11.45h1.41v11.45h-1.41Z"/><path d="M360.49,103.39l1.39-.22c.08,.56,.3,.98,.65,1.28s.86,.45,1.5,.45,1.12-.13,1.44-.39c.31-.26,.47-.57,.47-.93,0-.32-.14-.57-.41-.75-.19-.12-.67-.28-1.44-.48-1.03-.26-1.75-.49-2.14-.68-.4-.19-.7-.45-.91-.79s-.31-.71-.31-1.11c0-.37,.08-.71,.25-1.03,.17-.31,.4-.58,.69-.79,.22-.16,.52-.3,.89-.41,.38-.11,.78-.17,1.21-.17,.65,0,1.22,.09,1.71,.28s.86,.44,1.09,.76,.4,.75,.48,1.29l-1.38,.19c-.06-.43-.24-.76-.54-1-.3-.24-.72-.36-1.27-.36-.65,0-1.11,.11-1.38,.32-.28,.21-.41,.46-.41,.75,0,.18,.06,.35,.17,.49,.11,.15,.29,.28,.54,.38,.14,.05,.55,.17,1.24,.36,1,.27,1.69,.48,2.08,.65,.39,.17,.7,.42,.93,.74,.22,.32,.34,.72,.34,1.2s-.14,.91-.41,1.32-.67,.73-1.18,.96-1.1,.34-1.75,.34c-1.08,0-1.9-.22-2.46-.67-.57-.45-.93-1.11-1.08-1.99Z"/></g></g><rect x="434" y="50" width="120" height="80" style="fill:#fff; stroke:#1d1d1b; stroke-miterlimit:8; stroke-width:.99px;"/><g><path d="M479.57,86.67v-11.45h5.08c1.02,0,1.8,.1,2.33,.31,.53,.21,.96,.57,1.27,1.09,.32,.52,.48,1.1,.48,1.73,0,.81-.26,1.5-.79,2.05-.53,.56-1.34,.91-2.44,1.06,.4,.19,.71,.38,.91,.57,.44,.41,.86,.91,1.26,1.52l1.99,3.12h-1.91l-1.52-2.38c-.44-.69-.81-1.21-1.09-1.58-.29-.36-.54-.62-.77-.77-.23-.15-.46-.25-.69-.3-.17-.04-.45-.05-.84-.05h-1.76v5.09h-1.52Zm1.52-6.4h3.26c.69,0,1.23-.07,1.62-.21,.39-.14,.69-.37,.89-.69,.2-.31,.3-.66,.3-1.03,0-.54-.2-.99-.59-1.34-.39-.35-1.01-.52-1.86-.52h-3.62v3.79Z"/><path d="M490.93,76.83v-1.62h1.41v1.62h-1.41Zm0,9.84v-8.3h1.41v8.3h-1.41Z"/><path d="M493.92,84.19l1.39-.22c.08,.56,.3,.98,.65,1.28s.86,.45,1.5,.45,1.12-.13,1.44-.39c.31-.26,.47-.57,.47-.93,0-.32-.14-.57-.41-.75-.19-.12-.67-.28-1.44-.48-1.03-.26-1.75-.49-2.14-.68-.4-.19-.7-.45-.91-.79s-.31-.71-.31-1.11c0-.37,.08-.71,.25-1.03,.17-.31,.4-.58,.69-.79,.22-.16,.52-.3,.89-.41,.38-.11,.78-.17,1.21-.17,.65,0,1.22,.09,1.71,.28s.86,.44,1.09,.76,.4,.75,.48,1.29l-1.38,.19c-.06-.43-.24-.76-.54-1-.3-.24-.72-.36-1.27-.36-.65,0-1.11,.11-1.38,.32-.28,.21-.41,.46-.41,.75,0,.18,.06,.35,.17,.49,.11,.15,.29,.28,.54,.38,.14,.05,.55,.17,1.24,.36,1,.27,1.69,.48,2.08,.65,.39,.17,.7,.42,.93,.74,.22,.32,.34,.72,.34,1.2s-.14,.91-.41,1.32-.67,.73-1.18,.96-1.1,.34-1.75,.34c-1.08,0-1.9-.22-2.46-.67-.57-.45-.93-1.11-1.08-1.99Z"/><path d="M502.49,86.67v-11.45h1.41v6.53l3.33-3.38h1.82l-3.17,3.08,3.49,5.22h-1.73l-2.74-4.24-.99,.95v3.29h-1.41Z"/><path d="M473.14,109.05v-11.48h1.28v1.08c.3-.42,.64-.74,1.02-.95s.84-.32,1.38-.32c.71,0,1.33,.18,1.88,.55,.54,.37,.95,.88,1.23,1.54s.41,1.39,.41,2.18c0,.85-.15,1.61-.46,2.29s-.75,1.2-1.33,1.56c-.58,.36-1.19,.54-1.83,.54-.47,0-.89-.1-1.26-.3-.37-.2-.68-.45-.92-.75v4.04h-1.41Zm1.27-7.28c0,1.07,.22,1.86,.65,2.37,.43,.51,.96,.77,1.57,.77s1.16-.26,1.61-.79c.45-.53,.67-1.35,.67-2.46s-.22-1.85-.65-2.38c-.43-.53-.95-.79-1.56-.79s-1.13,.28-1.59,.84c-.46,.56-.69,1.37-.69,2.44Z"/><path d="M482.02,105.87v-8.3h1.27v1.26c.32-.59,.62-.98,.89-1.16s.57-.28,.9-.28c.47,0,.96,.15,1.45,.45l-.48,1.3c-.34-.2-.69-.3-1.03-.3-.31,0-.58,.09-.83,.28-.25,.19-.42,.44-.52,.77-.16,.5-.23,1.05-.23,1.64v4.34h-1.41Z"/><path d="M486.84,101.72c0-1.54,.43-2.67,1.28-3.41,.71-.61,1.58-.92,2.61-.92,1.14,0,2.07,.37,2.8,1.12,.72,.75,1.09,1.78,1.09,3.1,0,1.07-.16,1.91-.48,2.52-.32,.61-.79,1.09-1.4,1.43-.61,.34-1.28,.51-2,.51-1.16,0-2.1-.37-2.82-1.12-.72-.74-1.07-1.82-1.07-3.22Zm1.45,0c0,1.06,.23,1.86,.7,2.39,.46,.53,1.05,.79,1.75,.79s1.28-.27,1.74-.8,.7-1.34,.7-2.43c0-1.03-.23-1.8-.7-2.33-.47-.53-1.05-.79-1.74-.79s-1.29,.26-1.75,.79c-.46,.53-.7,1.32-.7,2.38Z"/><path d="M496.6,105.87v-7.2h-1.24v-1.09h1.24v-.88c0-.56,.05-.97,.15-1.24,.14-.36,.37-.66,.71-.89s.82-.34,1.43-.34c.4,0,.83,.05,1.31,.14l-.21,1.23c-.29-.05-.57-.08-.83-.08-.43,0-.73,.09-.91,.27-.18,.18-.27,.52-.27,1.02v.77h1.62v1.09h-1.62v7.2h-1.4Z"/><path d="M500.72,96.03v-1.62h1.41v1.62h-1.41Zm0,9.84v-8.3h1.41v8.3h-1.41Z"/><path d="M504.23,105.87v-11.45h1.41v11.45h-1.41Z"/><path d="M513.5,103.2l1.45,.18c-.23,.85-.65,1.51-1.27,1.98s-1.41,.7-2.38,.7c-1.21,0-2.18-.37-2.89-1.12-.71-.75-1.07-1.79-1.07-3.14s.36-2.48,1.08-3.25c.72-.77,1.65-1.16,2.8-1.16s2.02,.38,2.72,1.13c.7,.76,1.05,1.82,1.05,3.19,0,.08,0,.21,0,.38h-6.19c.05,.91,.31,1.61,.77,2.09s1.04,.73,1.73,.73c.52,0,.96-.13,1.32-.41,.36-.27,.65-.7,.87-1.3Zm-4.62-2.27h4.63c-.06-.7-.24-1.22-.53-1.57-.45-.54-1.03-.81-1.74-.81-.65,0-1.19,.22-1.63,.65-.44,.43-.68,1.01-.73,1.73Z"/></g><g><rect x="579" y="50" width="120" height="80" style="fill:#fff; stroke:#1d1d1b; stroke-miterlimit:8; stroke-width:.99px;"/><text transform="translate(599.74 86.67)" style="font-family:ArialMT, Arial; font-size:16px;"><tspan x="0" y="0">I&amp;</tspan><tspan x="15.12" y="0" style="letter-spacing:-.06em;">T</tspan><tspan x="24.01" y="0">-related</tspan><tspan x="16.45" y="19.2">issues</tspan></text></g><g><rect x="724" y="50" width="120" height="80" style="fill:#fff; stroke:#1d1d1b; stroke-miterlimit:8; stroke-width:.99px;"/><g><path d="M764.9,86.67v-10.1h-3.77v-1.35h9.08v1.35h-3.79v10.1h-1.52Z"/><path d="M771.58,86.67v-11.45h1.41v4.11c.66-.76,1.48-1.14,2.48-1.14,.61,0,1.15,.12,1.6,.36s.78,.58,.97,1c.2,.43,.29,1.05,.29,1.86v5.26h-1.41v-5.26c0-.7-.15-1.21-.46-1.54s-.74-.48-1.29-.48c-.42,0-.81,.11-1.18,.32-.37,.22-.63,.51-.79,.88-.16,.37-.23,.88-.23,1.53v4.54h-1.41Z"/><path d="M780.46,86.67v-8.3h1.27v1.26c.32-.59,.62-.98,.89-1.16s.57-.28,.9-.28c.47,0,.96,.15,1.45,.45l-.48,1.3c-.34-.2-.69-.3-1.03-.3-.31,0-.58,.09-.83,.28-.25,.19-.42,.44-.52,.77-.16,.5-.23,1.05-.23,1.64v4.34h-1.41Z"/><path d="M791.48,84l1.45,.18c-.23,.85-.65,1.51-1.27,1.98s-1.41,.7-2.38,.7c-1.21,0-2.18-.37-2.89-1.12-.71-.75-1.07-1.79-1.07-3.14s.36-2.48,1.08-3.25c.72-.77,1.65-1.16,2.8-1.16s2.02,.38,2.72,1.13c.7,.76,1.05,1.82,1.05,3.19,0,.08,0,.21,0,.38h-6.19c.05,.91,.31,1.61,.77,2.09s1.04,.73,1.73,.73c.52,0,.96-.13,1.32-.41,.36-.27,.65-.7,.87-1.3Zm-4.62-2.27h4.63c-.06-.7-.24-1.22-.53-1.57-.45-.54-1.03-.81-1.74-.81-.65,0-1.19,.22-1.63,.65-.44,.43-.68,1.01-.73,1.73Z"/><path d="M800.12,85.64c-.52,.44-1.02,.76-1.5,.94-.48,.18-1,.27-1.55,.27-.91,0-1.61-.22-2.1-.67s-.73-1.01-.73-1.71c0-.41,.09-.78,.28-1.11s.43-.61,.73-.81,.64-.36,1.01-.46c.28-.07,.69-.14,1.25-.21,1.14-.13,1.97-.3,2.51-.48,0-.19,0-.31,0-.37,0-.57-.13-.98-.4-1.21-.36-.32-.89-.48-1.6-.48-.66,0-1.15,.12-1.46,.35-.32,.23-.55,.64-.7,1.23l-1.38-.19c.12-.59,.33-1.06,.62-1.43,.29-.36,.7-.64,1.24-.84s1.17-.29,1.88-.29,1.28,.08,1.73,.25c.44,.17,.77,.38,.98,.63,.21,.25,.35,.57,.44,.96,.05,.24,.07,.67,.07,1.3v1.88c0,1.31,.03,2.13,.09,2.48,.06,.35,.18,.68,.36,1h-1.47c-.15-.29-.24-.63-.28-1.02Zm-.12-3.14c-.51,.21-1.28,.39-2.3,.53-.58,.08-.99,.18-1.23,.28-.24,.1-.42,.26-.55,.46-.13,.2-.2,.42-.2,.67,0,.38,.14,.69,.43,.94s.7,.38,1.25,.38,1.02-.12,1.45-.36c.42-.24,.73-.56,.93-.97,.15-.32,.23-.79,.23-1.41v-.52Z"/><path d="M806.67,85.41l.2,1.24c-.4,.08-.75,.12-1.06,.12-.51,0-.91-.08-1.19-.24s-.48-.37-.59-.64c-.11-.26-.17-.82-.17-1.66v-4.77h-1.03v-1.09h1.03v-2.05l1.4-.84v2.9h1.41v1.09h-1.41v4.85c0,.4,.02,.66,.07,.77,.05,.12,.13,.21,.24,.27,.11,.07,.27,.1,.48,.1,.16,0,.36-.02,.62-.05Z"/><path d="M748.42,105.87v-11.45h1.41v11.45h-1.41Z"/><path d="M757.42,104.84c-.52,.44-1.02,.76-1.5,.94-.48,.18-1,.27-1.55,.27-.91,0-1.61-.22-2.1-.67s-.73-1.01-.73-1.71c0-.41,.09-.78,.28-1.11s.43-.61,.73-.81,.64-.36,1.01-.46c.28-.07,.69-.14,1.25-.21,1.14-.13,1.97-.3,2.51-.48,0-.19,0-.31,0-.37,0-.57-.13-.98-.4-1.21-.36-.32-.89-.48-1.6-.48-.66,0-1.15,.12-1.46,.35-.32,.23-.55,.64-.7,1.23l-1.38-.19c.12-.59,.33-1.06,.62-1.43,.29-.36,.7-.64,1.24-.84s1.17-.29,1.88-.29,1.28,.08,1.73,.25c.44,.17,.77,.38,.98,.63,.21,.25,.35,.57,.44,.96,.05,.24,.07,.67,.07,1.3v1.88c0,1.31,.03,2.13,.09,2.48,.06,.35,.18,.68,.36,1h-1.47c-.15-.29-.24-.63-.28-1.02Zm-.12-3.14c-.51,.21-1.28,.39-2.3,.53-.58,.08-.99,.18-1.23,.28-.24,.1-.42,.26-.55,.46-.13,.2-.2,.42-.2,.67,0,.38,.14,.69,.43,.94s.7,.38,1.25,.38,1.02-.12,1.45-.36c.42-.24,.73-.56,.93-.97,.15-.32,.23-.79,.23-1.41v-.52Z"/><path d="M760.91,105.87v-8.3h1.27v1.18c.61-.91,1.49-1.37,2.64-1.37,.5,0,.96,.09,1.38,.27s.73,.42,.94,.71c.21,.29,.35,.64,.44,1.04,.05,.26,.08,.72,.08,1.37v5.1h-1.41v-5.05c0-.57-.05-1-.16-1.29-.11-.28-.3-.51-.58-.68-.28-.17-.61-.25-.98-.25-.6,0-1.12,.19-1.55,.57-.43,.38-.65,1.1-.65,2.16v4.53h-1.41Z"/><path d="M775.19,105.87v-1.05c-.53,.82-1.3,1.23-2.32,1.23-.66,0-1.27-.18-1.82-.55s-.98-.87-1.29-1.53c-.3-.65-.46-1.4-.46-2.25s.14-1.58,.41-2.25c.28-.67,.69-1.19,1.24-1.55s1.17-.54,1.85-.54c.5,0,.95,.11,1.34,.32s.71,.49,.95,.82v-4.11h1.4v11.45h-1.3Zm-4.45-4.14c0,1.06,.22,1.86,.67,2.38,.45,.53,.98,.79,1.59,.79s1.14-.25,1.57-.75c.43-.5,.64-1.27,.64-2.3,0-1.13-.22-1.97-.66-2.5s-.98-.8-1.62-.8-1.15,.26-1.57,.77c-.42,.51-.63,1.32-.63,2.41Z"/><path d="M778.14,103.39l1.39-.22c.08,.56,.3,.98,.65,1.28s.86,.45,1.5,.45,1.12-.13,1.44-.39c.31-.26,.47-.57,.47-.93,0-.32-.14-.57-.41-.75-.19-.12-.67-.28-1.44-.48-1.03-.26-1.75-.49-2.14-.68-.4-.19-.7-.45-.91-.79s-.31-.71-.31-1.11c0-.37,.08-.71,.25-1.03,.17-.31,.4-.58,.69-.79,.22-.16,.52-.3,.89-.41,.38-.11,.78-.17,1.21-.17,.65,0,1.22,.09,1.71,.28s.86,.44,1.09,.76,.4,.75,.48,1.29l-1.38,.19c-.06-.43-.24-.76-.54-1-.3-.24-.72-.36-1.27-.36-.65,0-1.11,.11-1.38,.32-.28,.21-.41,.46-.41,.75,0,.18,.06,.35,.17,.49,.11,.15,.29,.28,.54,.38,.14,.05,.55,.17,1.24,.36,1,.27,1.69,.48,2.08,.65,.39,.17,.7,.42,.93,.74,.22,.32,.34,.72,.34,1.2s-.14,.91-.41,1.32-.67,.73-1.18,.96-1.1,.34-1.75,.34c-1.08,0-1.9-.22-2.46-.67-.57-.45-.93-1.11-1.08-1.99Z"/><path d="M792.12,102.83l1.38,.18c-.15,.95-.54,1.7-1.16,2.24s-1.39,.81-2.29,.81c-1.14,0-2.05-.37-2.74-1.11s-1.04-1.81-1.04-3.19c0-.9,.15-1.68,.45-2.35s.75-1.18,1.36-1.51,1.27-.5,1.98-.5c.9,0,1.64,.23,2.21,.68,.57,.46,.94,1.1,1.1,1.94l-1.37,.21c-.13-.56-.36-.98-.69-1.26s-.73-.42-1.2-.42c-.71,0-1.28,.25-1.73,.76s-.66,1.31-.66,2.41,.21,1.92,.64,2.43c.43,.51,.98,.76,1.67,.76,.55,0,1.01-.17,1.38-.51,.37-.34,.6-.86,.7-1.56Z"/><path d="M800.12,104.84c-.52,.44-1.02,.76-1.5,.94-.48,.18-1,.27-1.55,.27-.91,0-1.61-.22-2.1-.67s-.73-1.01-.73-1.71c0-.41,.09-.78,.28-1.11s.43-.61,.73-.81,.64-.36,1.01-.46c.28-.07,.69-.14,1.25-.21,1.14-.13,1.97-.3,2.51-.48,0-.19,0-.31,0-.37,0-.57-.13-.98-.4-1.21-.36-.32-.89-.48-1.6-.48-.66,0-1.15,.12-1.46,.35-.32,.23-.55,.64-.7,1.23l-1.38-.19c.12-.59,.33-1.06,.62-1.43,.29-.36,.7-.64,1.24-.84s1.17-.29,1.88-.29,1.28,.08,1.73,.25c.44,.17,.77,.38,.98,.63,.21,.25,.35,.57,.44,.96,.05,.24,.07,.67,.07,1.3v1.88c0,1.31,.03,2.13,.09,2.48,.06,.35,.18,.68,.36,1h-1.47c-.15-.29-.24-.63-.28-1.02Zm-.12-3.14c-.51,.21-1.28,.39-2.3,.53-.58,.08-.99,.18-1.23,.28-.24,.1-.42,.26-.55,.46-.13,.2-.2,.42-.2,.67,0,.38,.14,.69,.43,.94s.7,.38,1.25,.38,1.02-.12,1.45-.36c.42-.24,.73-.56,.93-.97,.15-.32,.23-.79,.23-1.41v-.52Z"/><path d="M803.6,109.05v-11.48h1.28v1.08c.3-.42,.64-.74,1.02-.95s.84-.32,1.38-.32c.71,0,1.33,.18,1.88,.55,.54,.37,.95,.88,1.23,1.54s.41,1.39,.41,2.18c0,.85-.15,1.61-.46,2.29s-.75,1.2-1.33,1.56c-.58,.36-1.19,.54-1.83,.54-.47,0-.89-.1-1.26-.3-.37-.2-.68-.45-.92-.75v4.04h-1.41Zm1.27-7.28c0,1.07,.22,1.86,.65,2.37,.43,.51,.96,.77,1.57,.77s1.16-.26,1.61-.79c.45-.53,.67-1.35,.67-2.46s-.22-1.85-.65-2.38c-.43-.53-.95-.79-1.56-.79s-1.13,.28-1.59,.84c-.46,.56-.69,1.37-.69,2.44Z"/><path d="M818.18,103.2l1.45,.18c-.23,.85-.65,1.51-1.27,1.98s-1.41,.7-2.38,.7c-1.21,0-2.18-.37-2.89-1.12-.71-.75-1.07-1.79-1.07-3.14s.36-2.48,1.08-3.25c.72-.77,1.65-1.16,2.8-1.16s2.02,.38,2.72,1.13c.7,.76,1.05,1.82,1.05,3.19,0,.08,0,.21,0,.38h-6.19c.05,.91,.31,1.61,.77,2.09s1.04,.73,1.73,.73c.52,0,.96-.13,1.32-.41,.36-.27,.65-.7,.87-1.3Zm-4.62-2.27h4.63c-.06-.7-.24-1.22-.53-1.57-.45-.54-1.03-.81-1.74-.81-.65,0-1.19,.22-1.63,.65-.44,.43-.68,1.01-.73,1.73Z"/></g></g><g><rect x="71.5" y="155" width="120" height="80" style="fill:#fff; stroke:#1d1d1b; stroke-miterlimit:8; stroke-width:.99px;"/><g><path d="M98.54,187.65l1.52,.38c-.32,1.25-.89,2.19-1.71,2.85-.83,.65-1.83,.98-3.03,.98s-2.24-.25-3.01-.75c-.77-.5-1.36-1.23-1.77-2.18s-.61-1.98-.61-3.07c0-1.19,.23-2.23,.68-3.12,.46-.89,1.1-1.56,1.95-2.02s1.77-.69,2.78-.69c1.15,0,2.11,.29,2.89,.88,.78,.58,1.33,1.4,1.63,2.46l-1.49,.35c-.27-.83-.65-1.44-1.16-1.82-.5-.38-1.14-.57-1.91-.57-.88,0-1.62,.21-2.21,.63s-1.01,.99-1.25,1.7-.36,1.44-.36,2.2c0,.97,.14,1.82,.43,2.55s.73,1.27,1.32,1.63,1.25,.54,1.95,.54c.85,0,1.57-.24,2.16-.73,.59-.49,.99-1.22,1.2-2.18Z"/><path d="M101.22,187.52c0-1.54,.43-2.67,1.28-3.41,.71-.61,1.58-.92,2.61-.92,1.14,0,2.07,.37,2.8,1.12,.72,.75,1.09,1.78,1.09,3.1,0,1.07-.16,1.91-.48,2.52-.32,.61-.79,1.09-1.4,1.43-.61,.34-1.28,.51-2,.51-1.16,0-2.1-.37-2.82-1.12-.72-.74-1.07-1.82-1.07-3.22Zm1.45,0c0,1.06,.23,1.86,.7,2.39,.46,.53,1.05,.79,1.75,.79s1.28-.27,1.74-.8,.7-1.34,.7-2.43c0-1.03-.23-1.8-.7-2.33-.47-.53-1.05-.79-1.74-.79s-1.29,.26-1.75,.79c-.46,.53-.7,1.32-.7,2.38Z"/><path d="M110.64,191.67v-8.3h1.26v1.16c.26-.41,.61-.73,1.04-.98,.43-.25,.92-.37,1.48-.37,.61,0,1.12,.13,1.51,.38,.39,.26,.67,.61,.83,1.07,.66-.97,1.51-1.45,2.56-1.45,.82,0,1.46,.23,1.9,.68,.44,.46,.66,1.16,.66,2.11v5.7h-1.4v-5.23c0-.56-.05-.97-.14-1.21-.09-.25-.26-.45-.5-.6-.24-.15-.52-.23-.84-.23-.58,0-1.07,.19-1.45,.58-.39,.39-.58,1.01-.58,1.86v4.82h-1.41v-5.39c0-.62-.11-1.09-.34-1.41s-.6-.47-1.12-.47c-.4,0-.76,.1-1.1,.31-.34,.21-.58,.51-.73,.91-.15,.4-.23,.98-.23,1.73v4.3h-1.41Z"/><path d="M123.97,194.85v-11.48h1.28v1.08c.3-.42,.64-.74,1.02-.95s.84-.32,1.38-.32c.71,0,1.33,.18,1.88,.55,.54,.37,.95,.88,1.23,1.54s.41,1.39,.41,2.18c0,.85-.15,1.61-.46,2.29s-.75,1.2-1.33,1.56c-.58,.36-1.19,.54-1.83,.54-.47,0-.89-.1-1.26-.3-.37-.2-.68-.45-.92-.75v4.04h-1.41Zm1.27-7.28c0,1.07,.22,1.86,.65,2.37,.43,.51,.96,.77,1.57,.77s1.16-.26,1.61-.79c.45-.53,.67-1.35,.67-2.46s-.22-1.85-.65-2.38c-.43-.53-.95-.79-1.56-.79s-1.13,.28-1.59,.84c-.46,.56-.69,1.37-.69,2.44Z"/><path d="M132.83,191.67v-11.45h1.41v11.45h-1.41Z"/><path d="M136.43,181.83v-1.62h1.41v1.62h-1.41Zm0,9.84v-8.3h1.41v8.3h-1.41Z"/><path d="M145.39,190.64c-.52,.44-1.02,.76-1.5,.94-.48,.18-1,.27-1.55,.27-.91,0-1.61-.22-2.1-.67s-.73-1.01-.73-1.71c0-.41,.09-.78,.28-1.11s.43-.61,.73-.81,.64-.36,1.01-.46c.28-.07,.69-.14,1.25-.21,1.14-.13,1.97-.3,2.51-.48,0-.19,0-.31,0-.37,0-.57-.13-.98-.4-1.21-.36-.32-.89-.48-1.6-.48-.66,0-1.15,.12-1.46,.35-.32,.23-.55,.64-.7,1.23l-1.38-.19c.12-.59,.33-1.06,.62-1.43,.29-.36,.7-.64,1.24-.84s1.17-.29,1.88-.29,1.28,.08,1.73,.25c.44,.17,.77,.38,.98,.63,.21,.25,.35,.57,.44,.96,.05,.24,.07,.67,.07,1.3v1.88c0,1.31,.03,2.13,.09,2.48,.06,.35,.18,.68,.36,1h-1.47c-.15-.29-.24-.63-.28-1.02Zm-.12-3.14c-.51,.21-1.28,.39-2.3,.53-.58,.08-.99,.18-1.23,.28-.24,.1-.42,.26-.55,.46-.13,.2-.2,.42-.2,.67,0,.38,.14,.69,.43,.94s.7,.38,1.25,.38,1.02-.12,1.45-.36c.42-.24,.73-.56,.93-.97,.15-.32,.23-.79,.23-1.41v-.52Z"/><path d="M148.87,191.67v-8.3h1.27v1.18c.61-.91,1.49-1.37,2.64-1.37,.5,0,.96,.09,1.38,.27s.73,.42,.94,.71c.21,.29,.35,.64,.44,1.04,.05,.26,.08,.72,.08,1.37v5.1h-1.41v-5.05c0-.57-.05-1-.16-1.29-.11-.28-.3-.51-.58-.68-.28-.17-.61-.25-.98-.25-.6,0-1.12,.19-1.55,.57-.43,.38-.65,1.1-.65,2.16v4.53h-1.41Z"/><path d="M163.18,188.63l1.38,.18c-.15,.95-.54,1.7-1.16,2.24s-1.39,.81-2.29,.81c-1.14,0-2.05-.37-2.74-1.11s-1.04-1.81-1.04-3.19c0-.9,.15-1.68,.45-2.35s.75-1.18,1.36-1.51,1.27-.5,1.98-.5c.9,0,1.64,.23,2.21,.68,.57,.46,.94,1.1,1.1,1.94l-1.37,.21c-.13-.56-.36-.98-.69-1.26s-.73-.42-1.2-.42c-.71,0-1.28,.25-1.73,.76s-.66,1.31-.66,2.41,.21,1.92,.64,2.43c.43,.51,.98,.76,1.67,.76,.55,0,1.01-.17,1.38-.51,.37-.34,.6-.86,.7-1.56Z"/><path d="M171.45,189l1.45,.18c-.23,.85-.65,1.51-1.27,1.98s-1.41,.7-2.38,.7c-1.21,0-2.18-.37-2.89-1.12-.71-.75-1.07-1.79-1.07-3.14s.36-2.48,1.08-3.25c.72-.77,1.65-1.16,2.8-1.16s2.02,.38,2.72,1.13c.7,.76,1.05,1.82,1.05,3.19,0,.08,0,.21,0,.38h-6.19c.05,.91,.31,1.61,.77,2.09s1.04,.73,1.73,.73c.52,0,.96-.13,1.32-.41,.36-.27,.65-.7,.87-1.3Zm-4.62-2.27h4.63c-.06-.7-.24-1.22-.53-1.57-.45-.54-1.03-.81-1.74-.81-.65,0-1.19,.22-1.63,.65-.44,.43-.68,1.01-.73,1.73Z"/><path d="M85.72,210.87v-8.3h1.27v1.26c.32-.59,.62-.98,.89-1.16s.57-.28,.9-.28c.47,0,.96,.15,1.45,.45l-.48,1.3c-.34-.2-.69-.3-1.03-.3-.31,0-.58,.09-.83,.28-.25,.19-.42,.44-.52,.77-.16,.5-.23,1.05-.23,1.64v4.34h-1.41Z"/><path d="M96.75,208.2l1.45,.18c-.23,.85-.65,1.51-1.27,1.98s-1.41,.7-2.38,.7c-1.21,0-2.18-.37-2.89-1.12-.71-.75-1.07-1.79-1.07-3.14s.36-2.48,1.08-3.25c.72-.77,1.65-1.16,2.8-1.16s2.02,.38,2.72,1.13c.7,.76,1.05,1.82,1.05,3.19,0,.08,0,.21,0,.38h-6.19c.05,.91,.31,1.61,.77,2.09s1.04,.73,1.73,.73c.52,0,.96-.13,1.32-.41,.36-.27,.65-.7,.87-1.3Zm-4.62-2.27h4.63c-.06-.7-.24-1.22-.53-1.57-.45-.54-1.03-.81-1.74-.81-.65,0-1.19,.22-1.63,.65-.44,.43-.68,1.01-.73,1.73Z"/><path d="M105.25,214.05v-4.06c-.22,.31-.52,.56-.92,.77s-.81,.3-1.25,.3c-.98,0-1.83-.39-2.54-1.18-.71-.79-1.07-1.86-1.07-3.23,0-.83,.14-1.58,.43-2.24,.29-.66,.71-1.16,1.26-1.5,.55-.34,1.15-.51,1.81-.51,1.03,0,1.83,.43,2.42,1.3v-1.11h1.27v11.48h-1.41Zm-4.34-7.35c0,1.07,.22,1.87,.67,2.4,.45,.53,.98,.8,1.61,.8s1.11-.25,1.55-.76,.65-1.28,.65-2.32c0-1.1-.23-1.93-.68-2.49-.46-.56-.99-.84-1.61-.84s-1.13,.26-1.55,.78c-.42,.52-.64,1.33-.64,2.43Z"/><path d="M114.3,210.87v-1.22c-.65,.94-1.52,1.41-2.63,1.41-.49,0-.95-.09-1.37-.28s-.74-.42-.95-.71c-.21-.28-.35-.63-.43-1.04-.06-.28-.09-.71-.09-1.31v-5.14h1.41v4.6c0,.73,.03,1.23,.09,1.48,.09,.37,.28,.66,.56,.87s.64,.32,1.06,.32,.82-.11,1.19-.32c.37-.22,.63-.51,.79-.88,.15-.37,.23-.91,.23-1.62v-4.45h1.41v8.3h-1.26Z"/><path d="M117.77,201.03v-1.62h1.41v1.62h-1.41Zm0,9.84v-8.3h1.41v8.3h-1.41Z"/><path d="M121.3,210.87v-8.3h1.27v1.26c.32-.59,.62-.98,.89-1.16s.57-.28,.9-.28c.47,0,.96,.15,1.45,.45l-.48,1.3c-.34-.2-.69-.3-1.03-.3-.31,0-.58,.09-.83,.28-.25,.19-.42,.44-.52,.77-.16,.5-.23,1.05-.23,1.64v4.34h-1.41Z"/><path d="M132.32,208.2l1.45,.18c-.23,.85-.65,1.51-1.27,1.98s-1.41,.7-2.38,.7c-1.21,0-2.18-.37-2.89-1.12-.71-.75-1.07-1.79-1.07-3.14s.36-2.48,1.08-3.25c.72-.77,1.65-1.16,2.8-1.16s2.02,.38,2.72,1.13c.7,.76,1.05,1.82,1.05,3.19,0,.08,0,.21,0,.38h-6.19c.05,.91,.31,1.61,.77,2.09s1.04,.73,1.73,.73c.52,0,.96-.13,1.32-.41,.36-.27,.65-.7,.87-1.3Zm-4.62-2.27h4.63c-.06-.7-.24-1.22-.53-1.57-.45-.54-1.03-.81-1.74-.81-.65,0-1.19,.22-1.63,.65-.44,.43-.68,1.01-.73,1.73Z"/><path d="M135.54,210.87v-8.3h1.26v1.16c.26-.41,.61-.73,1.04-.98,.43-.25,.92-.37,1.48-.37,.61,0,1.12,.13,1.51,.38,.39,.26,.67,.61,.83,1.07,.66-.97,1.51-1.45,2.56-1.45,.82,0,1.46,.23,1.9,.68,.44,.46,.66,1.16,.66,2.11v5.7h-1.4v-5.23c0-.56-.05-.97-.14-1.21-.09-.25-.26-.45-.5-.6-.24-.15-.52-.23-.84-.23-.58,0-1.07,.19-1.45,.58-.39,.39-.58,1.01-.58,1.86v4.82h-1.41v-5.39c0-.62-.11-1.09-.34-1.41s-.6-.47-1.12-.47c-.4,0-.76,.1-1.1,.31-.34,.21-.58,.51-.73,.91-.15,.4-.23,.98-.23,1.73v4.3h-1.41Z"/><path d="M154.55,208.2l1.45,.18c-.23,.85-.65,1.51-1.27,1.98s-1.41,.7-2.38,.7c-1.21,0-2.18-.37-2.89-1.12-.71-.75-1.07-1.79-1.07-3.14s.36-2.48,1.08-3.25c.72-.77,1.65-1.16,2.8-1.16s2.02,.38,2.72,1.13c.7,.76,1.05,1.82,1.05,3.19,0,.08,0,.21,0,.38h-6.19c.05,.91,.31,1.61,.77,2.09s1.04,.73,1.73,.73c.52,0,.96-.13,1.32-.41,.36-.27,.65-.7,.87-1.3Zm-4.62-2.27h4.63c-.06-.7-.24-1.22-.53-1.57-.45-.54-1.03-.81-1.74-.81-.65,0-1.19,.22-1.63,.65-.44,.43-.68,1.01-.73,1.73Z"/><path d="M157.77,210.87v-8.3h1.27v1.18c.61-.91,1.49-1.37,2.64-1.37,.5,0,.96,.09,1.38,.27s.73,.42,.94,.71c.21,.29,.35,.64,.44,1.04,.05,.26,.08,.72,.08,1.37v5.1h-1.41v-5.05c0-.57-.05-1-.16-1.29-.11-.28-.3-.51-.58-.68-.28-.17-.61-.25-.98-.25-.6,0-1.12,.19-1.55,.57-.43,.38-.65,1.1-.65,2.16v4.53h-1.41Z"/><path d="M169.74,209.61l.2,1.24c-.4,.08-.75,.12-1.06,.12-.51,0-.91-.08-1.19-.24s-.48-.37-.59-.64c-.11-.26-.17-.82-.17-1.66v-4.77h-1.03v-1.09h1.03v-2.05l1.4-.84v2.9h1.41v1.09h-1.41v4.85c0,.4,.02,.66,.07,.77,.05,.12,.13,.21,.24,.27,.11,.07,.27,.1,.48,.1,.16,0,.36-.02,.62-.05Z"/><path d="M170.55,208.39l1.39-.22c.08,.56,.3,.98,.65,1.28s.86,.45,1.5,.45,1.12-.13,1.44-.39c.31-.26,.47-.57,.47-.93,0-.32-.14-.57-.41-.75-.19-.12-.67-.28-1.44-.48-1.03-.26-1.75-.49-2.14-.68-.4-.19-.7-.45-.91-.79s-.31-.71-.31-1.11c0-.37,.08-.71,.25-1.03,.17-.31,.4-.58,.69-.79,.22-.16,.52-.3,.89-.41,.38-.11,.78-.17,1.21-.17,.65,0,1.22,.09,1.71,.28s.86,.44,1.09,.76,.4,.75,.48,1.29l-1.38,.19c-.06-.43-.24-.76-.54-1-.3-.24-.72-.36-1.27-.36-.65,0-1.11,.11-1.38,.32-.28,.21-.41,.46-.41,.75,0,.18,.06,.35,.17,.49,.11,.15,.29,.28,.54,.38,.14,.05,.55,.17,1.24,.36,1,.27,1.69,.48,2.08,.65,.39,.17,.7,.42,.93,.74,.22,.32,.34,.72,.34,1.2s-.14,.91-.41,1.32-.67,.73-1.18,.96-1.1,.34-1.75,.34c-1.08,0-1.9-.22-2.46-.67-.57-.45-.93-1.11-1.08-1.99Z"/></g></g><g><rect x="216.5" y="155" width="120" height="80" style="fill:#fff; stroke:#1d1d1b; stroke-miterlimit:8; stroke-width:.99px;"/><text transform="translate(241.84 200.23)" style="font-family:ArialMT, Arial; font-size:16px;"><tspan x="0" y="0">Role of I</tspan><tspan x="59.59" y="0" style="letter-spacing:-.02em;">T</tspan></text></g><g><rect x="361.5" y="155" width="120" height="80" style="fill:#fff; stroke:#1d1d1b; stroke-miterlimit:8; stroke-width:.99px;"/><g><path d="M390.52,187.99l1.43-.12c.07,.57,.23,1.04,.47,1.41s.63,.66,1.15,.89,1.11,.34,1.76,.34c.58,0,1.09-.09,1.53-.26s.77-.41,.99-.71c.22-.3,.32-.63,.32-.98s-.1-.67-.31-.94c-.21-.27-.55-.49-1.03-.68-.31-.12-.99-.31-2.04-.56-1.05-.25-1.79-.49-2.21-.71-.55-.29-.95-.64-1.22-1.07-.27-.42-.4-.9-.4-1.43,0-.58,.16-1.12,.49-1.62,.33-.5,.81-.88,1.44-1.14,.63-.26,1.33-.39,2.1-.39,.85,0,1.6,.14,2.25,.41s1.15,.68,1.5,1.21,.54,1.13,.56,1.8l-1.45,.11c-.08-.72-.34-1.27-.79-1.64-.45-.37-1.12-.55-2-.55s-1.58,.17-2,.5-.63,.74-.63,1.21c0,.41,.15,.75,.45,1.02,.29,.27,1.05,.54,2.29,.82,1.23,.28,2.08,.52,2.54,.73,.67,.31,1.16,.7,1.48,1.17,.32,.47,.48,1.01,.48,1.63s-.17,1.18-.52,1.72-.85,.96-1.5,1.26c-.65,.3-1.39,.45-2.21,.45-1.04,0-1.91-.15-2.61-.45s-1.25-.76-1.65-1.36c-.4-.61-.61-1.29-.63-2.06Z"/><path d="M401,187.52c0-1.54,.43-2.67,1.28-3.41,.71-.61,1.58-.92,2.61-.92,1.14,0,2.07,.37,2.8,1.12,.72,.75,1.09,1.78,1.09,3.1,0,1.07-.16,1.91-.48,2.52-.32,.61-.79,1.09-1.4,1.43-.61,.34-1.28,.51-2,.51-1.16,0-2.1-.37-2.82-1.12-.72-.74-1.07-1.82-1.07-3.22Zm1.45,0c0,1.06,.23,1.86,.7,2.39,.46,.53,1.05,.79,1.75,.79s1.28-.27,1.74-.8,.7-1.34,.7-2.43c0-1.03-.23-1.8-.7-2.33-.47-.53-1.05-.79-1.74-.79s-1.29,.26-1.75,.79c-.46,.53-.7,1.32-.7,2.38Z"/><path d="M415.86,191.67v-1.22c-.65,.94-1.52,1.41-2.63,1.41-.49,0-.95-.09-1.37-.28s-.74-.42-.95-.71c-.21-.28-.35-.63-.43-1.04-.06-.28-.09-.71-.09-1.31v-5.14h1.41v4.6c0,.73,.03,1.23,.09,1.48,.09,.37,.28,.66,.56,.87s.64,.32,1.06,.32,.82-.11,1.19-.32c.37-.22,.63-.51,.79-.88,.15-.37,.23-.91,.23-1.62v-4.45h1.41v8.3h-1.26Z"/><path d="M419.31,191.67v-8.3h1.27v1.26c.32-.59,.62-.98,.89-1.16s.57-.28,.9-.28c.47,0,.96,.15,1.45,.45l-.48,1.3c-.34-.2-.69-.3-1.03-.3-.31,0-.58,.09-.83,.28-.25,.19-.42,.44-.52,.77-.16,.5-.23,1.05-.23,1.64v4.34h-1.41Z"/><path d="M430.06,188.63l1.38,.18c-.15,.95-.54,1.7-1.16,2.24s-1.39,.81-2.29,.81c-1.14,0-2.05-.37-2.74-1.11s-1.04-1.81-1.04-3.19c0-.9,.15-1.68,.45-2.35s.75-1.18,1.36-1.51,1.27-.5,1.98-.5c.9,0,1.64,.23,2.21,.68,.57,.46,.94,1.1,1.1,1.94l-1.37,.21c-.13-.56-.36-.98-.69-1.26s-.73-.42-1.2-.42c-.71,0-1.28,.25-1.73,.76s-.66,1.31-.66,2.41,.21,1.92,.64,2.43c.43,.51,.98,.76,1.67,.76,.55,0,1.01-.17,1.38-.51,.37-.34,.6-.86,.7-1.56Z"/><path d="M432.66,181.83v-1.62h1.41v1.62h-1.41Zm0,9.84v-8.3h1.41v8.3h-1.41Z"/><path d="M436.2,191.67v-8.3h1.27v1.18c.61-.91,1.49-1.37,2.64-1.37,.5,0,.96,.09,1.38,.27s.73,.42,.94,.71c.21,.29,.35,.64,.44,1.04,.05,.26,.08,.72,.08,1.37v5.1h-1.41v-5.05c0-.57-.05-1-.16-1.29-.11-.28-.3-.51-.58-.68-.28-.17-.61-.25-.98-.25-.6,0-1.12,.19-1.55,.57-.43,.38-.65,1.1-.65,2.16v4.53h-1.41Z"/><path d="M444.84,192.35l1.37,.2c.06,.42,.22,.73,.48,.92,.35,.26,.83,.39,1.43,.39,.65,0,1.15-.13,1.51-.39s.59-.62,.72-1.09c.07-.29,.11-.89,.1-1.8-.61,.72-1.38,1.09-2.3,1.09-1.14,0-2.02-.41-2.65-1.23-.62-.82-.94-1.81-.94-2.96,0-.79,.14-1.52,.43-2.19,.29-.67,.7-1.19,1.25-1.55,.54-.36,1.18-.55,1.92-.55,.98,0,1.79,.4,2.42,1.19v-1h1.3v7.17c0,1.29-.13,2.21-.39,2.75s-.68,.96-1.25,1.28-1.27,.47-2.11,.47c-.99,0-1.79-.22-2.4-.67s-.9-1.12-.88-2.01Zm1.16-4.98c0,1.09,.22,1.88,.65,2.38s.97,.75,1.62,.75,1.19-.25,1.62-.75c.44-.5,.66-1.28,.66-2.34s-.23-1.78-.68-2.3-.99-.77-1.63-.77-1.16,.25-1.59,.76-.66,1.26-.66,2.26Z"/><path d="M379.89,210.87v-8.3h1.26v1.16c.26-.41,.61-.73,1.04-.98,.43-.25,.92-.37,1.48-.37,.61,0,1.12,.13,1.51,.38,.39,.26,.67,.61,.83,1.07,.66-.97,1.51-1.45,2.56-1.45,.82,0,1.46,.23,1.9,.68,.44,.46,.66,1.16,.66,2.11v5.7h-1.4v-5.23c0-.56-.05-.97-.14-1.21-.09-.25-.26-.45-.5-.6-.24-.15-.52-.23-.84-.23-.58,0-1.07,.19-1.45,.58-.39,.39-.58,1.01-.58,1.86v4.82h-1.41v-5.39c0-.62-.11-1.09-.34-1.41s-.6-.47-1.12-.47c-.4,0-.76,.1-1.1,.31-.34,.21-.58,.51-.73,.91-.15,.4-.23,.98-.23,1.73v4.3h-1.41Z"/><path d="M392.7,206.72c0-1.54,.43-2.67,1.28-3.41,.71-.61,1.58-.92,2.61-.92,1.14,0,2.07,.37,2.8,1.12,.72,.75,1.09,1.78,1.09,3.1,0,1.07-.16,1.91-.48,2.52-.32,.61-.79,1.09-1.4,1.43-.61,.34-1.28,.51-2,.51-1.16,0-2.1-.37-2.82-1.12-.72-.74-1.07-1.82-1.07-3.22Zm1.45,0c0,1.06,.23,1.86,.7,2.39,.46,.53,1.05,.79,1.75,.79s1.28-.27,1.74-.8,.7-1.34,.7-2.43c0-1.03-.23-1.8-.7-2.33-.47-.53-1.05-.79-1.74-.79s-1.29,.26-1.75,.79c-.46,.53-.7,1.32-.7,2.38Z"/><path d="M407.5,210.87v-1.05c-.53,.82-1.3,1.23-2.32,1.23-.66,0-1.27-.18-1.82-.55s-.98-.87-1.29-1.53c-.3-.65-.46-1.4-.46-2.25s.14-1.58,.41-2.25c.28-.67,.69-1.19,1.24-1.55s1.17-.54,1.85-.54c.5,0,.95,.11,1.34,.32s.71,.49,.95,.82v-4.11h1.4v11.45h-1.3Zm-4.45-4.14c0,1.06,.22,1.86,.67,2.38,.45,.53,.98,.79,1.59,.79s1.14-.25,1.57-.75c.43-.5,.64-1.27,.64-2.3,0-1.13-.22-1.97-.66-2.5s-.98-.8-1.62-.8-1.15,.26-1.57,.77c-.42,.51-.63,1.32-.63,2.41Z"/><path d="M416.7,208.2l1.45,.18c-.23,.85-.65,1.51-1.27,1.98s-1.41,.7-2.38,.7c-1.21,0-2.18-.37-2.89-1.12-.71-.75-1.07-1.79-1.07-3.14s.36-2.48,1.08-3.25c.72-.77,1.65-1.16,2.8-1.16s2.02,.38,2.72,1.13c.7,.76,1.05,1.82,1.05,3.19,0,.08,0,.21,0,.38h-6.19c.05,.91,.31,1.61,.77,2.09s1.04,.73,1.73,.73c.52,0,.96-.13,1.32-.41,.36-.27,.65-.7,.87-1.3Zm-4.62-2.27h4.63c-.06-.7-.24-1.22-.53-1.57-.45-.54-1.03-.81-1.74-.81-.65,0-1.19,.22-1.63,.65-.44,.43-.68,1.01-.73,1.73Z"/><path d="M419.88,210.87v-11.45h1.41v11.45h-1.41Z"/><path d="M428.25,210.87v-7.2h-1.24v-1.09h1.24v-.88c0-.56,.05-.97,.15-1.24,.14-.36,.37-.66,.71-.89s.82-.34,1.43-.34c.4,0,.83,.05,1.31,.14l-.21,1.23c-.29-.05-.57-.08-.83-.08-.43,0-.73,.09-.91,.27-.18,.18-.27,.52-.27,1.02v.77h1.62v1.09h-1.62v7.2h-1.4Z"/><path d="M431.84,206.72c0-1.54,.43-2.67,1.28-3.41,.71-.61,1.58-.92,2.61-.92,1.14,0,2.07,.37,2.8,1.12,.72,.75,1.09,1.78,1.09,3.1,0,1.07-.16,1.91-.48,2.52-.32,.61-.79,1.09-1.4,1.43-.61,.34-1.28,.51-2,.51-1.16,0-2.1-.37-2.82-1.12-.72-.74-1.07-1.82-1.07-3.22Zm1.45,0c0,1.06,.23,1.86,.7,2.39,.46,.53,1.05,.79,1.75,.79s1.28-.27,1.74-.8,.7-1.34,.7-2.43c0-1.03-.23-1.8-.7-2.33-.47-.53-1.05-.79-1.74-.79s-1.29,.26-1.75,.79c-.46,.53-.7,1.32-.7,2.38Z"/><path d="M441.24,210.87v-8.3h1.27v1.26c.32-.59,.62-.98,.89-1.16s.57-.28,.9-.28c.47,0,.96,.15,1.45,.45l-.48,1.3c-.34-.2-.69-.3-1.03-.3-.31,0-.58,.09-.83,.28-.25,.19-.42,.44-.52,.77-.16,.5-.23,1.05-.23,1.64v4.34h-1.41Z"/><path d="M451.47,210.87v-11.45h1.52v11.45h-1.52Z"/><path d="M458.57,210.87v-10.1h-3.77v-1.35h9.08v1.35h-3.79v10.1h-1.52Z"/></g></g><g><rect x="506.5" y="155" width="120" height="80" style="fill:#fff; stroke:#1d1d1b; stroke-miterlimit:8; stroke-width:.99px;"/><g><path d="M560.9,180.77v-11.45h1.52v11.45h-1.52Z"/><path d="M568,180.77v-10.1h-3.77v-1.35h9.08v1.35h-3.79v10.1h-1.52Z"/><path d="M513.18,190.13v-1.62h1.41v1.62h-1.41Zm0,9.84v-8.3h1.41v8.3h-1.41Z"/><path d="M516.73,199.97v-8.3h1.26v1.16c.26-.41,.61-.73,1.04-.98,.43-.25,.92-.37,1.48-.37,.61,0,1.12,.13,1.51,.38,.39,.25,.67,.61,.83,1.07,.66-.97,1.51-1.45,2.56-1.45,.82,0,1.46,.23,1.9,.68,.44,.46,.66,1.16,.66,2.11v5.7h-1.4v-5.23c0-.56-.05-.97-.14-1.21-.09-.25-.26-.45-.5-.6-.24-.15-.52-.23-.84-.23-.58,0-1.07,.19-1.45,.58-.39,.39-.58,1.01-.58,1.86v4.82h-1.41v-5.39c0-.62-.11-1.09-.34-1.41s-.6-.47-1.12-.47c-.4,0-.76,.1-1.1,.31-.34,.21-.58,.51-.73,.91-.15,.4-.23,.98-.23,1.73v4.3h-1.41Z"/><path d="M530.06,203.15v-11.48h1.28v1.08c.3-.42,.64-.74,1.02-.95s.84-.32,1.38-.32c.71,0,1.33,.18,1.88,.55,.54,.36,.95,.88,1.23,1.54s.41,1.39,.41,2.18c0,.85-.15,1.61-.46,2.29s-.75,1.2-1.33,1.56c-.58,.36-1.19,.54-1.83,.54-.47,0-.89-.1-1.26-.3-.37-.2-.68-.45-.92-.75v4.04h-1.41Zm1.27-7.28c0,1.07,.22,1.86,.65,2.37,.43,.51,.96,.77,1.57,.77s1.16-.26,1.61-.79c.45-.53,.67-1.35,.67-2.46s-.22-1.85-.65-2.38c-.43-.53-.95-.79-1.56-.79s-1.13,.28-1.59,.84c-.46,.56-.69,1.37-.69,2.44Z"/><path d="M538.93,199.97v-11.45h1.41v11.45h-1.41Z"/><path d="M548.19,197.3l1.45,.18c-.23,.85-.65,1.51-1.27,1.98s-1.41,.7-2.38,.7c-1.21,0-2.18-.37-2.89-1.12-.71-.75-1.07-1.8-1.07-3.14s.36-2.48,1.08-3.25c.72-.77,1.65-1.16,2.8-1.16s2.02,.38,2.72,1.13c.7,.75,1.05,1.82,1.05,3.19,0,.08,0,.21,0,.38h-6.19c.05,.91,.31,1.61,.77,2.09s1.04,.73,1.73,.73c.52,0,.96-.14,1.32-.41,.36-.27,.65-.7,.87-1.3Zm-4.62-2.27h4.63c-.06-.7-.24-1.22-.53-1.57-.45-.54-1.03-.81-1.74-.81-.65,0-1.19,.22-1.63,.65-.44,.43-.68,1.01-.73,1.73Z"/><path d="M551.41,199.97v-8.3h1.26v1.16c.26-.41,.61-.73,1.04-.98,.43-.25,.92-.37,1.48-.37,.61,0,1.12,.13,1.51,.38,.39,.25,.67,.61,.83,1.07,.66-.97,1.51-1.45,2.56-1.45,.82,0,1.46,.23,1.9,.68,.44,.46,.66,1.16,.66,2.11v5.7h-1.4v-5.23c0-.56-.05-.97-.14-1.21-.09-.25-.26-.45-.5-.6-.24-.15-.52-.23-.84-.23-.58,0-1.07,.19-1.45,.58-.39,.39-.58,1.01-.58,1.86v4.82h-1.41v-5.39c0-.62-.11-1.09-.34-1.41s-.6-.47-1.12-.47c-.4,0-.76,.1-1.1,.31-.34,.21-.58,.51-.73,.91-.15,.4-.23,.98-.23,1.73v4.3h-1.41Z"/><path d="M570.42,197.3l1.45,.18c-.23,.85-.65,1.51-1.27,1.98s-1.41,.7-2.38,.7c-1.21,0-2.18-.37-2.89-1.12-.71-.75-1.07-1.8-1.07-3.14s.36-2.48,1.08-3.25c.72-.77,1.65-1.16,2.8-1.16s2.02,.38,2.72,1.13c.7,.75,1.05,1.82,1.05,3.19,0,.08,0,.21,0,.38h-6.19c.05,.91,.31,1.61,.77,2.09s1.04,.73,1.73,.73c.52,0,.96-.14,1.32-.41,.36-.27,.65-.7,.87-1.3Zm-4.62-2.27h4.63c-.06-.7-.24-1.22-.53-1.57-.45-.54-1.03-.81-1.74-.81-.65,0-1.19,.22-1.63,.65-.44,.43-.68,1.01-.73,1.73Z"/><path d="M573.64,199.97v-8.3h1.27v1.18c.61-.91,1.49-1.37,2.64-1.37,.5,0,.96,.09,1.38,.27s.73,.42,.94,.71c.21,.29,.35,.64,.44,1.04,.05,.26,.08,.72,.08,1.37v5.1h-1.41v-5.05c0-.57-.05-1-.16-1.29-.11-.28-.3-.51-.58-.68-.28-.17-.61-.25-.98-.25-.6,0-1.12,.19-1.55,.57-.43,.38-.65,1.1-.65,2.16v4.53h-1.41Z"/><path d="M585.61,198.71l.2,1.24c-.4,.08-.75,.12-1.06,.12-.51,0-.91-.08-1.19-.24-.28-.16-.48-.37-.59-.64-.11-.26-.17-.82-.17-1.66v-4.77h-1.03v-1.09h1.03v-2.05l1.4-.84v2.9h1.41v1.09h-1.41v4.85c0,.4,.02,.66,.07,.77,.05,.11,.13,.21,.24,.27,.11,.07,.27,.1,.48,.1,.16,0,.36-.02,.62-.05Z"/><path d="M592.4,198.95c-.52,.44-1.02,.75-1.5,.94-.48,.18-1,.27-1.55,.27-.91,0-1.61-.22-2.1-.67s-.73-1.01-.73-1.71c0-.41,.09-.78,.28-1.11s.43-.61,.73-.81,.64-.36,1.01-.46c.28-.07,.69-.14,1.25-.21,1.14-.14,1.97-.3,2.51-.48,0-.19,0-.32,0-.37,0-.57-.13-.98-.4-1.21-.36-.32-.89-.48-1.6-.48-.66,0-1.15,.12-1.46,.35-.32,.23-.55,.64-.7,1.23l-1.38-.19c.12-.59,.33-1.06,.62-1.43,.29-.36,.7-.64,1.24-.84s1.17-.29,1.88-.29,1.28,.08,1.73,.25c.44,.17,.77,.38,.98,.63,.21,.25,.35,.57,.44,.96,.05,.24,.07,.67,.07,1.3v1.88c0,1.31,.03,2.13,.09,2.48,.06,.35,.18,.68,.36,1h-1.47c-.15-.29-.24-.63-.28-1.02Zm-.12-3.14c-.51,.21-1.28,.38-2.3,.53-.58,.08-.99,.18-1.23,.28-.24,.1-.42,.26-.55,.46-.13,.2-.2,.42-.2,.67,0,.38,.14,.69,.43,.94s.7,.38,1.25,.38,1.02-.12,1.45-.36c.42-.24,.73-.56,.93-.97,.15-.32,.23-.79,.23-1.41v-.52Z"/><path d="M598.95,198.71l.2,1.24c-.4,.08-.75,.12-1.06,.12-.51,0-.91-.08-1.19-.24-.28-.16-.48-.37-.59-.64-.11-.26-.17-.82-.17-1.66v-4.77h-1.03v-1.09h1.03v-2.05l1.4-.84v2.9h1.41v1.09h-1.41v4.85c0,.4,.02,.66,.07,.77,.05,.11,.13,.21,.24,.27,.11,.07,.27,.1,.48,.1,.16,0,.36-.02,.62-.05Z"/><path d="M600.33,190.13v-1.62h1.41v1.62h-1.41Zm0,9.84v-8.3h1.41v8.3h-1.41Z"/><path d="M603.36,195.82c0-1.54,.43-2.67,1.28-3.41,.71-.62,1.58-.92,2.61-.92,1.14,0,2.07,.37,2.8,1.12,.72,.75,1.09,1.78,1.09,3.1,0,1.07-.16,1.91-.48,2.52-.32,.61-.79,1.09-1.4,1.43-.61,.34-1.28,.51-2,.51-1.16,0-2.1-.37-2.82-1.12-.72-.75-1.07-1.82-1.07-3.22Zm1.45,0c0,1.06,.23,1.86,.7,2.39,.46,.53,1.05,.79,1.75,.79s1.28-.27,1.74-.8,.7-1.34,.7-2.43c0-1.03-.23-1.8-.7-2.33-.47-.53-1.05-.79-1.74-.79s-1.29,.26-1.75,.79c-.46,.53-.7,1.32-.7,2.38Z"/><path d="M612.78,199.97v-8.3h1.27v1.18c.61-.91,1.49-1.37,2.64-1.37,.5,0,.96,.09,1.38,.27s.73,.42,.94,.71c.21,.29,.35,.64,.44,1.04,.05,.26,.08,.72,.08,1.37v5.1h-1.41v-5.05c0-.57-.05-1-.16-1.29-.11-.28-.3-.51-.58-.68-.28-.17-.61-.25-.98-.25-.6,0-1.12,.19-1.55,.57-.43,.38-.65,1.1-.65,2.16v4.53h-1.41Z"/><path d="M536.74,219.17v-8.3h1.26v1.16c.26-.41,.61-.73,1.04-.98,.43-.25,.92-.37,1.48-.37,.61,0,1.12,.13,1.51,.38,.39,.26,.67,.61,.83,1.07,.66-.97,1.51-1.45,2.56-1.45,.82,0,1.46,.23,1.9,.68,.44,.46,.66,1.16,.66,2.11v5.7h-1.4v-5.23c0-.56-.05-.97-.14-1.21-.09-.25-.26-.45-.5-.6-.24-.15-.52-.23-.84-.23-.58,0-1.07,.19-1.45,.58-.39,.39-.58,1.01-.58,1.86v4.82h-1.41v-5.39c0-.62-.11-1.09-.34-1.41s-.6-.47-1.12-.47c-.4,0-.76,.1-1.1,.31-.34,.21-.58,.51-.73,.91-.15,.4-.23,.98-.23,1.73v4.3h-1.41Z"/><path d="M555.75,216.5l1.45,.18c-.23,.85-.65,1.51-1.27,1.98s-1.41,.7-2.38,.7c-1.21,0-2.18-.37-2.89-1.12-.71-.75-1.07-1.79-1.07-3.14s.36-2.48,1.08-3.25c.72-.77,1.65-1.16,2.8-1.16s2.02,.38,2.72,1.13c.7,.76,1.05,1.82,1.05,3.19,0,.08,0,.21,0,.38h-6.19c.05,.91,.31,1.61,.77,2.09s1.04,.73,1.73,.73c.52,0,.96-.13,1.32-.41,.36-.27,.65-.7,.87-1.3Zm-4.62-2.27h4.63c-.06-.7-.24-1.22-.53-1.57-.45-.54-1.03-.81-1.74-.81-.65,0-1.19,.22-1.63,.65-.44,.43-.68,1.01-.73,1.73Z"/><path d="M562.04,217.91l.2,1.24c-.4,.08-.75,.12-1.06,.12-.51,0-.91-.08-1.19-.24s-.48-.37-.59-.64c-.11-.26-.17-.82-.17-1.66v-4.77h-1.03v-1.09h1.03v-2.05l1.4-.84v2.9h1.41v1.09h-1.41v4.85c0,.4,.02,.66,.07,.77,.05,.12,.13,.21,.24,.27,.11,.07,.27,.1,.48,.1,.16,0,.36-.02,.62-.05Z"/><path d="M563.41,219.17v-11.45h1.41v4.11c.66-.76,1.48-1.14,2.48-1.14,.61,0,1.15,.12,1.6,.36s.78,.58,.97,1c.2,.43,.29,1.05,.29,1.86v5.26h-1.41v-5.26c0-.7-.15-1.21-.46-1.54s-.74-.48-1.29-.48c-.42,0-.81,.11-1.18,.32-.37,.22-.63,.51-.79,.88-.16,.37-.23,.88-.23,1.53v4.54h-1.41Z"/><path d="M571.79,215.02c0-1.54,.43-2.67,1.28-3.41,.71-.61,1.58-.92,2.61-.92,1.14,0,2.07,.37,2.8,1.12,.72,.75,1.09,1.78,1.09,3.1,0,1.07-.16,1.91-.48,2.52-.32,.61-.79,1.09-1.4,1.43s-1.28,.51-2,.51c-1.16,0-2.1-.37-2.82-1.12-.72-.74-1.07-1.82-1.07-3.22Zm1.45,0c0,1.06,.23,1.86,.7,2.39,.46,.53,1.05,.79,1.75,.79s1.28-.27,1.74-.8,.7-1.34,.7-2.43c0-1.03-.23-1.8-.7-2.33-.47-.53-1.05-.79-1.74-.79s-1.29,.26-1.75,.79c-.46,.53-.7,1.32-.7,2.38Z"/><path d="M586.59,219.17v-1.05c-.53,.82-1.3,1.23-2.32,1.23-.66,0-1.27-.18-1.82-.55s-.98-.87-1.29-1.53c-.3-.65-.46-1.4-.46-2.25s.14-1.58,.41-2.25c.28-.67,.69-1.19,1.24-1.55s1.17-.54,1.85-.54c.5,0,.95,.11,1.34,.32s.71,.49,.95,.82v-4.11h1.4v11.45h-1.3Zm-4.45-4.14c0,1.06,.22,1.86,.67,2.38,.45,.53,.98,.79,1.59,.79s1.14-.25,1.57-.75c.43-.5,.64-1.27,.64-2.3,0-1.13-.22-1.97-.66-2.5s-.98-.8-1.62-.8-1.15,.26-1.57,.77c-.42,.51-.63,1.32-.63,2.41Z"/><path d="M589.55,216.69l1.39-.22c.08,.56,.3,.98,.65,1.28s.86,.45,1.5,.45,1.12-.13,1.44-.39c.31-.26,.47-.57,.47-.93,0-.32-.14-.57-.41-.75-.19-.12-.67-.28-1.44-.48-1.03-.26-1.75-.49-2.14-.68-.4-.19-.7-.45-.91-.79s-.31-.71-.31-1.11c0-.37,.08-.71,.25-1.03,.17-.31,.4-.58,.69-.79,.22-.16,.52-.3,.89-.41,.38-.11,.78-.17,1.21-.17,.65,0,1.22,.09,1.71,.28s.86,.44,1.09,.76,.4,.75,.48,1.29l-1.38,.19c-.06-.43-.24-.76-.54-1-.3-.24-.72-.36-1.27-.36-.65,0-1.11,.11-1.38,.32-.28,.21-.41,.46-.41,.75,0,.18,.06,.35,.17,.49,.11,.15,.29,.28,.54,.38,.14,.05,.55,.17,1.24,.36,1,.27,1.69,.48,2.08,.65,.39,.17,.7,.42,.93,.74,.22,.32,.34,.72,.34,1.2s-.14,.91-.41,1.32-.67,.73-1.18,.96-1.1,.34-1.75,.34c-1.08,0-1.9-.22-2.46-.67-.57-.45-.93-1.11-1.08-1.99Z"/></g></g><g><rect x="651.5" y="155" width="120" height="80" style="fill:#fff; stroke:#1d1d1b; stroke-miterlimit:8; stroke-width:.99px;"/><g><path d="M675.05,180.77v-10.1h-3.77v-1.35h9.08v1.35h-3.79v10.1h-1.52Z"/><path d="M685.63,178.1l1.45,.18c-.23,.85-.65,1.51-1.27,1.98s-1.41,.7-2.38,.7c-1.21,0-2.18-.37-2.89-1.12s-1.07-1.8-1.07-3.14,.36-2.48,1.08-3.25,1.65-1.16,2.8-1.16,2.02,.38,2.72,1.13,1.05,1.82,1.05,3.19c0,.08,0,.21,0,.38h-6.19c.05,.91,.31,1.61,.77,2.09s1.04,.73,1.73,.73c.52,0,.96-.14,1.32-.41s.65-.7,.87-1.3Zm-4.62-2.27h4.63c-.06-.7-.24-1.22-.53-1.57-.45-.54-1.03-.81-1.74-.81-.65,0-1.19,.22-1.63,.65s-.68,1.01-.73,1.73Z"/><path d="M694.27,177.73l1.38,.18c-.15,.95-.54,1.7-1.16,2.24s-1.39,.81-2.29,.81c-1.14,0-2.05-.37-2.74-1.11s-1.04-1.81-1.04-3.19c0-.9,.15-1.68,.45-2.35s.75-1.18,1.36-1.51,1.27-.5,1.98-.5c.9,0,1.64,.23,2.21,.68s.94,1.1,1.1,1.94l-1.37,.21c-.13-.56-.36-.98-.69-1.26s-.73-.42-1.2-.42c-.71,0-1.28,.25-1.73,.76s-.66,1.31-.66,2.41,.21,1.92,.64,2.43,.98,.76,1.67,.76c.55,0,1.01-.17,1.38-.51s.6-.86,.7-1.56Z"/><path d="M696.85,180.77v-11.45h1.41v4.11c.66-.76,1.48-1.14,2.48-1.14,.61,0,1.15,.12,1.6,.36s.78,.58,.97,1,.29,1.05,.29,1.86v5.26h-1.41v-5.26c0-.7-.15-1.21-.46-1.54s-.74-.48-1.29-.48c-.42,0-.81,.11-1.18,.32s-.63,.51-.79,.88-.23,.88-.23,1.53v4.54h-1.41Z"/><path d="M705.75,180.77v-8.3h1.27v1.18c.61-.91,1.49-1.37,2.64-1.37,.5,0,.96,.09,1.38,.27s.73,.42,.94,.71,.35,.64,.44,1.04c.05,.26,.08,.72,.08,1.37v5.1h-1.41v-5.05c0-.57-.05-1-.16-1.29s-.3-.51-.58-.68-.61-.25-.98-.25c-.6,0-1.12,.19-1.55,.57s-.65,1.1-.65,2.16v4.53h-1.41Z"/><path d="M714.13,176.62c0-1.54,.43-2.67,1.28-3.41,.71-.61,1.58-.92,2.61-.92,1.14,0,2.07,.37,2.8,1.12s1.09,1.78,1.09,3.1c0,1.07-.16,1.91-.48,2.52s-.79,1.09-1.4,1.43c-.61,.34-1.28,.51-2,.51-1.16,0-2.1-.37-2.82-1.12s-1.07-1.82-1.07-3.22Zm1.45,0c0,1.06,.23,1.86,.7,2.39s1.05,.79,1.75,.79,1.28-.27,1.74-.8,.7-1.34,.7-2.43c0-1.03-.23-1.8-.7-2.33s-1.05-.79-1.74-.79-1.29,.26-1.75,.79-.7,1.32-.7,2.38Z"/><path d="M723.52,180.77v-11.45h1.41v11.45h-1.41Z"/><path d="M726.58,176.62c0-1.54,.43-2.67,1.28-3.41,.71-.61,1.58-.92,2.61-.92,1.14,0,2.07,.37,2.8,1.12s1.09,1.78,1.09,3.1c0,1.07-.16,1.91-.48,2.52s-.79,1.09-1.4,1.43c-.61,.34-1.28,.51-2,.51-1.16,0-2.1-.37-2.82-1.12s-1.07-1.82-1.07-3.22Zm1.45,0c0,1.06,.23,1.86,.7,2.39s1.05,.79,1.75,.79,1.28-.27,1.74-.8,.7-1.34,.7-2.43c0-1.03-.23-1.8-.7-2.33s-1.05-.79-1.74-.79-1.29,.26-1.75,.79-.7,1.32-.7,2.38Z"/><path d="M735.74,181.46l1.37,.2c.06,.42,.22,.73,.48,.92,.35,.26,.83,.39,1.43,.39,.65,0,1.15-.13,1.51-.39,.35-.26,.59-.62,.72-1.09,.07-.29,.11-.89,.1-1.8-.61,.72-1.38,1.09-2.3,1.09-1.14,0-2.02-.41-2.65-1.23s-.94-1.81-.94-2.96c0-.79,.14-1.52,.43-2.19s.7-1.19,1.25-1.55,1.18-.55,1.92-.55c.98,0,1.79,.4,2.42,1.19v-1h1.3v7.17c0,1.29-.13,2.21-.39,2.75s-.68,.96-1.25,1.28-1.27,.47-2.11,.47c-.99,0-1.79-.22-2.4-.67s-.9-1.12-.88-2.01Zm1.16-4.98c0,1.09,.22,1.88,.65,2.38s.97,.75,1.62,.75,1.19-.25,1.62-.75,.66-1.28,.66-2.34-.23-1.78-.68-2.3-.99-.77-1.63-.77-1.16,.25-1.59,.76-.66,1.26-.66,2.26Z"/><path d="M744.84,183.97l-.16-1.32c.31,.08,.58,.12,.8,.12,.31,0,.56-.05,.75-.16,.19-.1,.34-.25,.46-.44,.09-.14,.23-.49,.43-1.05,.03-.08,.07-.19,.12-.34l-3.15-8.31h1.52l1.73,4.8c.22,.61,.42,1.25,.6,1.92,.16-.65,.35-1.28,.58-1.89l1.77-4.84h1.41l-3.16,8.44c-.34,.91-.6,1.54-.79,1.88-.25,.46-.54,.8-.86,1.02-.32,.22-.71,.32-1.16,.32-.27,0-.57-.06-.91-.17Z"/><path d="M687.15,198.95c-.52,.44-1.02,.75-1.5,.94-.48,.18-1,.27-1.55,.27-.91,0-1.61-.22-2.1-.67s-.73-1.01-.73-1.71c0-.41,.09-.78,.28-1.11s.43-.61,.73-.81,.64-.36,1.01-.46c.28-.07,.69-.14,1.25-.21,1.14-.14,1.97-.3,2.51-.48,0-.19,0-.32,0-.37,0-.57-.13-.98-.4-1.21-.36-.32-.89-.48-1.6-.48-.66,0-1.15,.12-1.46,.35s-.55,.64-.7,1.23l-1.38-.19c.12-.59,.33-1.06,.62-1.43s.7-.64,1.24-.84,1.17-.29,1.88-.29,1.28,.08,1.73,.25,.77,.38,.98,.63,.35,.57,.44,.96c.05,.24,.07,.67,.07,1.3v1.88c0,1.31,.03,2.13,.09,2.48s.18,.68,.36,1h-1.47c-.15-.29-.24-.63-.28-1.02Zm-.12-3.14c-.51,.21-1.28,.39-2.3,.53-.58,.08-.99,.18-1.23,.28s-.42,.26-.55,.46-.2,.42-.2,.67c0,.38,.14,.69,.43,.94s.7,.38,1.25,.38,1.02-.12,1.45-.36,.73-.56,.93-.97c.15-.32,.23-.79,.23-1.41v-.52Z"/><path d="M696.01,199.97v-1.05c-.53,.82-1.3,1.23-2.32,1.23-.66,0-1.27-.18-1.82-.55s-.98-.87-1.29-1.53-.46-1.41-.46-2.25,.14-1.58,.41-2.25,.69-1.19,1.24-1.55,1.17-.54,1.85-.54c.5,0,.95,.11,1.34,.32s.71,.49,.95,.82v-4.11h1.4v11.45h-1.3Zm-4.45-4.14c0,1.06,.22,1.86,.67,2.38s.98,.79,1.59,.79,1.14-.25,1.57-.75,.64-1.27,.64-2.3c0-1.14-.22-1.97-.66-2.5s-.98-.8-1.62-.8-1.15,.25-1.57,.77-.63,1.32-.63,2.41Z"/><path d="M699,195.82c0-1.54,.43-2.67,1.28-3.41,.71-.61,1.58-.92,2.61-.92,1.14,0,2.07,.37,2.8,1.12s1.09,1.78,1.09,3.1c0,1.07-.16,1.91-.48,2.52s-.79,1.09-1.4,1.43c-.61,.34-1.28,.51-2,.51-1.16,0-2.1-.37-2.82-1.12s-1.07-1.82-1.07-3.22Zm1.45,0c0,1.06,.23,1.86,.7,2.39s1.05,.79,1.75,.79,1.28-.27,1.74-.8,.7-1.34,.7-2.43c0-1.03-.23-1.8-.7-2.33s-1.05-.79-1.74-.79-1.29,.26-1.75,.79-.7,1.32-.7,2.38Z"/><path d="M708.43,203.15v-11.48h1.28v1.08c.3-.42,.64-.74,1.02-.95s.84-.32,1.38-.32c.71,0,1.33,.18,1.88,.55s.95,.88,1.23,1.54,.41,1.39,.41,2.18c0,.85-.15,1.61-.46,2.29s-.75,1.2-1.33,1.56c-.58,.36-1.19,.54-1.83,.54-.47,0-.89-.1-1.26-.3-.37-.2-.68-.45-.92-.75v4.04h-1.41Zm1.27-7.28c0,1.07,.22,1.86,.65,2.37s.96,.77,1.57,.77,1.16-.26,1.61-.79,.67-1.35,.67-2.46-.22-1.85-.65-2.38-.95-.79-1.56-.79-1.13,.28-1.59,.84-.69,1.37-.69,2.44Z"/><path d="M720.4,198.71l.2,1.24c-.4,.08-.75,.12-1.06,.12-.51,0-.91-.08-1.19-.24s-.48-.37-.59-.64-.17-.82-.17-1.66v-4.77h-1.03v-1.09h1.03v-2.05l1.4-.84v2.9h1.41v1.09h-1.41v4.85c0,.4,.02,.66,.07,.77s.13,.21,.24,.27,.27,.1,.48,.1c.16,0,.36-.02,.62-.05Z"/><path d="M721.78,190.13v-1.62h1.41v1.62h-1.41Zm0,9.84v-8.3h1.41v8.3h-1.41Z"/><path d="M724.8,195.82c0-1.54,.43-2.67,1.28-3.41,.71-.61,1.58-.92,2.61-.92,1.14,0,2.07,.37,2.8,1.12s1.09,1.78,1.09,3.1c0,1.07-.16,1.91-.48,2.52s-.79,1.09-1.4,1.43c-.61,.34-1.28,.51-2,.51-1.16,0-2.1-.37-2.82-1.12s-1.07-1.82-1.07-3.22Zm1.45,0c0,1.06,.23,1.86,.7,2.39s1.05,.79,1.75,.79,1.28-.27,1.74-.8,.7-1.34,.7-2.43c0-1.03-.23-1.8-.7-2.33s-1.05-.79-1.74-.79-1.29,.26-1.75,.79-.7,1.32-.7,2.38Z"/><path d="M734.22,199.97v-8.3h1.27v1.18c.61-.91,1.49-1.37,2.64-1.37,.5,0,.96,.09,1.38,.27s.73,.42,.94,.71,.35,.64,.44,1.04c.05,.26,.08,.72,.08,1.37v5.1h-1.41v-5.05c0-.57-.05-1-.16-1.29s-.3-.51-.58-.68-.61-.25-.98-.25c-.6,0-1.12,.19-1.55,.57s-.65,1.1-.65,2.16v4.53h-1.41Z"/><path d="M683.41,216.69l1.39-.22c.08,.56,.3,.98,.65,1.28s.86,.45,1.5,.45,1.12-.13,1.44-.39c.31-.26,.47-.57,.47-.93,0-.32-.14-.57-.41-.75-.19-.12-.67-.28-1.44-.48-1.03-.26-1.75-.49-2.14-.68-.4-.19-.7-.45-.91-.79s-.31-.71-.31-1.11c0-.37,.08-.71,.25-1.03,.17-.31,.4-.58,.69-.79,.22-.16,.52-.3,.89-.41,.38-.11,.78-.17,1.21-.17,.65,0,1.22,.09,1.71,.28s.86,.44,1.09,.76,.4,.75,.48,1.29l-1.38,.19c-.06-.43-.24-.76-.54-1-.3-.24-.72-.36-1.27-.36-.65,0-1.11,.11-1.38,.32-.28,.21-.41,.46-.41,.75,0,.18,.06,.35,.17,.49,.11,.15,.29,.28,.54,.38,.14,.05,.55,.17,1.24,.36,1,.27,1.69,.48,2.08,.65,.39,.17,.7,.42,.93,.74,.22,.32,.34,.72,.34,1.2s-.14,.91-.41,1.32-.67,.73-1.18,.96-1.1,.34-1.75,.34c-1.08,0-1.9-.22-2.46-.67-.57-.45-.93-1.11-1.08-1.99Z"/><path d="M695.04,217.91l.2,1.24c-.4,.08-.75,.12-1.06,.12-.51,0-.91-.08-1.19-.24s-.48-.37-.59-.64c-.11-.26-.17-.82-.17-1.66v-4.77h-1.03v-1.09h1.03v-2.05l1.4-.84v2.9h1.41v1.09h-1.41v4.85c0,.4,.02,.66,.07,.77,.05,.12,.13,.21,.24,.27,.11,.07,.27,.1,.48,.1,.16,0,.36-.02,.62-.05Z"/><path d="M696.4,219.17v-8.3h1.27v1.26c.32-.59,.62-.98,.89-1.16s.57-.28,.9-.28c.47,0,.96,.15,1.45,.45l-.48,1.3c-.34-.2-.69-.3-1.03-.3-.31,0-.58,.09-.83,.28-.25,.19-.42,.44-.52,.77-.16,.5-.23,1.05-.23,1.64v4.34h-1.41Z"/><path d="M707.16,218.15c-.52,.44-1.02,.76-1.5,.94-.48,.18-1,.27-1.55,.27-.91,0-1.61-.22-2.1-.67s-.73-1.01-.73-1.71c0-.41,.09-.78,.28-1.11s.43-.61,.73-.81,.64-.36,1.01-.46c.28-.07,.69-.14,1.25-.21,1.14-.13,1.97-.3,2.51-.48,0-.19,0-.31,0-.37,0-.57-.13-.98-.4-1.21-.36-.32-.89-.48-1.6-.48-.66,0-1.15,.12-1.46,.35-.32,.23-.55,.64-.7,1.23l-1.38-.19c.12-.59,.33-1.06,.62-1.43,.29-.36,.7-.64,1.24-.84s1.17-.29,1.88-.29,1.28,.08,1.73,.25c.44,.17,.77,.38,.98,.63,.21,.25,.35,.57,.44,.96,.05,.24,.07,.67,.07,1.3v1.88c0,1.31,.03,2.13,.09,2.48,.06,.35,.18,.68,.36,1h-1.47c-.15-.29-.24-.63-.28-1.02Zm-.12-3.14c-.51,.21-1.28,.39-2.3,.53-.58,.08-.99,.18-1.23,.28-.24,.1-.42,.26-.55,.46-.13,.2-.2,.42-.2,.67,0,.38,.14,.69,.43,.94s.7,.38,1.25,.38,1.02-.12,1.45-.36c.42-.24,.73-.56,.93-.97,.15-.32,.23-.79,.23-1.41v-.52Z"/><path d="M713.71,217.91l.2,1.24c-.4,.08-.75,.12-1.06,.12-.51,0-.91-.08-1.19-.24s-.48-.37-.59-.64c-.11-.26-.17-.82-.17-1.66v-4.77h-1.03v-1.09h1.03v-2.05l1.4-.84v2.9h1.41v1.09h-1.41v4.85c0,.4,.02,.66,.07,.77,.05,.12,.13,.21,.24,.27,.11,.07,.27,.1,.48,.1,.16,0,.36-.02,.62-.05Z"/><path d="M720.77,216.5l1.45,.18c-.23,.85-.65,1.51-1.27,1.98s-1.41,.7-2.38,.7c-1.21,0-2.18-.37-2.89-1.12-.71-.75-1.07-1.79-1.07-3.14s.36-2.48,1.08-3.25c.72-.77,1.65-1.16,2.8-1.16s2.02,.38,2.72,1.13c.7,.76,1.05,1.82,1.05,3.19,0,.08,0,.21,0,.38h-6.19c.05,.91,.31,1.61,.77,2.09s1.04,.73,1.73,.73c.52,0,.96-.13,1.32-.41,.36-.27,.65-.7,.87-1.3Zm-4.62-2.27h4.63c-.06-.7-.24-1.22-.53-1.57-.45-.54-1.03-.81-1.74-.81-.65,0-1.19,.22-1.63,.65-.44,.43-.68,1.01-.73,1.73Z"/><path d="M723.73,219.86l1.37,.2c.06,.42,.22,.73,.48,.92,.35,.26,.83,.39,1.43,.39,.65,0,1.15-.13,1.51-.39s.59-.62,.72-1.09c.07-.29,.11-.89,.1-1.8-.61,.72-1.38,1.09-2.3,1.09-1.14,0-2.02-.41-2.65-1.23-.62-.82-.94-1.81-.94-2.96,0-.79,.14-1.52,.43-2.19,.29-.67,.7-1.19,1.25-1.55,.54-.36,1.18-.55,1.92-.55,.98,0,1.79,.4,2.42,1.19v-1h1.3v7.17c0,1.29-.13,2.21-.39,2.75s-.68,.96-1.25,1.28-1.27,.47-2.11,.47c-.99,0-1.79-.22-2.4-.67s-.9-1.12-.88-2.01Zm1.16-4.98c0,1.09,.22,1.88,.65,2.38s.97,.75,1.62,.75,1.19-.25,1.62-.75c.44-.5,.66-1.28,.66-2.34s-.23-1.78-.68-2.3-.99-.77-1.63-.77-1.16,.25-1.59,.76-.66,1.26-.66,2.26Z"/><path d="M732.82,222.37l-.16-1.32c.31,.08,.58,.12,.8,.12,.31,0,.56-.05,.75-.16s.34-.25,.46-.44c.09-.14,.23-.49,.43-1.05,.03-.08,.07-.19,.12-.34l-3.15-8.31h1.52l1.73,4.8c.22,.61,.42,1.25,.6,1.92,.16-.65,.35-1.28,.58-1.89l1.77-4.84h1.41l-3.16,8.44c-.34,.91-.6,1.54-.79,1.88-.25,.46-.54,.8-.86,1.02s-.71,.32-1.16,.32c-.27,0-.57-.06-.91-.17Z"/></g></g><g><rect x="796.5" y="155" width="120" height="80" style="fill:#fff; stroke:#1d1d1b; stroke-miterlimit:8; stroke-width:.99px;"/><g><path d="M821.18,191.67v-11.45h8.28v1.35h-6.77v3.51h6.34v1.34h-6.34v3.9h7.03v1.35h-8.55Z"/><path d="M831.64,191.67v-8.3h1.27v1.18c.61-.91,1.49-1.37,2.64-1.37,.5,0,.96,.09,1.38,.27s.73,.42,.94,.71c.21,.29,.35,.64,.44,1.04,.05,.26,.08,.72,.08,1.37v5.1h-1.41v-5.05c0-.57-.05-1-.16-1.29-.11-.28-.3-.51-.58-.68-.28-.17-.61-.25-.98-.25-.6,0-1.12,.19-1.55,.57-.43,.38-.65,1.1-.65,2.16v4.53h-1.41Z"/><path d="M843.61,190.41l.2,1.24c-.4,.08-.75,.12-1.06,.12-.51,0-.91-.08-1.19-.24s-.48-.37-.59-.64c-.11-.26-.17-.82-.17-1.66v-4.77h-1.03v-1.09h1.03v-2.05l1.4-.84v2.9h1.41v1.09h-1.41v4.85c0,.4,.02,.66,.07,.77,.05,.12,.13,.21,.24,.27,.11,.07,.27,.1,.48,.1,.16,0,.36-.02,.62-.05Z"/><path d="M850.66,189l1.45,.18c-.23,.85-.65,1.51-1.27,1.98s-1.41,.7-2.38,.7c-1.21,0-2.18-.37-2.89-1.12-.71-.75-1.07-1.79-1.07-3.14s.36-2.48,1.08-3.25c.72-.77,1.65-1.16,2.8-1.16s2.02,.38,2.72,1.13c.7,.76,1.05,1.82,1.05,3.19,0,.08,0,.21,0,.38h-6.19c.05,.91,.31,1.61,.77,2.09s1.04,.73,1.73,.73c.52,0,.96-.13,1.32-.41,.36-.27,.65-.7,.87-1.3Zm-4.62-2.27h4.63c-.06-.7-.24-1.22-.53-1.57-.45-.54-1.03-.81-1.74-.81-.65,0-1.19,.22-1.63,.65-.44,.43-.68,1.01-.73,1.73Z"/><path d="M853.86,191.67v-8.3h1.27v1.26c.32-.59,.62-.98,.89-1.16s.57-.28,.9-.28c.47,0,.96,.15,1.45,.45l-.48,1.3c-.34-.2-.69-.3-1.03-.3-.31,0-.58,.09-.83,.28-.25,.19-.42,.44-.52,.77-.16,.5-.23,1.05-.23,1.64v4.34h-1.41Z"/><path d="M859.21,194.85v-11.48h1.28v1.08c.3-.42,.64-.74,1.02-.95s.84-.32,1.38-.32c.71,0,1.33,.18,1.88,.55,.54,.37,.95,.88,1.23,1.54s.41,1.39,.41,2.18c0,.85-.15,1.61-.46,2.29s-.75,1.2-1.33,1.56c-.58,.36-1.19,.54-1.83,.54-.47,0-.89-.1-1.26-.3-.37-.2-.68-.45-.92-.75v4.04h-1.41Zm1.27-7.28c0,1.07,.22,1.86,.65,2.37,.43,.51,.96,.77,1.57,.77s1.16-.26,1.61-.79c.45-.53,.67-1.35,.67-2.46s-.22-1.85-.65-2.38c-.43-.53-.95-.79-1.56-.79s-1.13,.28-1.59,.84c-.46,.56-.69,1.37-.69,2.44Z"/><path d="M868.09,191.67v-8.3h1.27v1.26c.32-.59,.62-.98,.89-1.16s.57-.28,.9-.28c.47,0,.96,.15,1.45,.45l-.48,1.3c-.34-.2-.69-.3-1.03-.3-.31,0-.58,.09-.83,.28-.25,.19-.42,.44-.52,.77-.16,.5-.23,1.05-.23,1.64v4.34h-1.41Z"/><path d="M873.44,181.83v-1.62h1.41v1.62h-1.41Zm0,9.84v-8.3h1.41v8.3h-1.41Z"/><path d="M876.43,189.19l1.39-.22c.08,.56,.3,.98,.65,1.28s.86,.45,1.5,.45,1.12-.13,1.44-.39c.31-.26,.47-.57,.47-.93,0-.32-.14-.57-.41-.75-.19-.12-.67-.28-1.44-.48-1.03-.26-1.75-.49-2.14-.68-.4-.19-.7-.45-.91-.79s-.31-.71-.31-1.11c0-.37,.08-.71,.25-1.03,.17-.31,.4-.58,.69-.79,.22-.16,.52-.3,.89-.41,.38-.11,.78-.17,1.21-.17,.65,0,1.22,.09,1.71,.28s.86,.44,1.09,.76,.4,.75,.48,1.29l-1.38,.19c-.06-.43-.24-.76-.54-1-.3-.24-.72-.36-1.27-.36-.65,0-1.11,.11-1.38,.32-.28,.21-.41,.46-.41,.75,0,.18,.06,.35,.17,.49,.11,.15,.29,.28,.54,.38,.14,.05,.55,.17,1.24,.36,1,.27,1.69,.48,2.08,.65,.39,.17,.7,.42,.93,.74,.22,.32,.34,.72,.34,1.2s-.14,.91-.41,1.32-.67,.73-1.18,.96-1.1,.34-1.75,.34c-1.08,0-1.9-.22-2.46-.67-.57-.45-.93-1.11-1.08-1.99Z"/><path d="M890.67,189l1.45,.18c-.23,.85-.65,1.51-1.27,1.98s-1.41,.7-2.38,.7c-1.21,0-2.18-.37-2.89-1.12-.71-.75-1.07-1.79-1.07-3.14s.36-2.48,1.08-3.25c.72-.77,1.65-1.16,2.8-1.16s2.02,.38,2.72,1.13c.7,.76,1.05,1.82,1.05,3.19,0,.08,0,.21,0,.38h-6.19c.05,.91,.31,1.61,.77,2.09s1.04,.73,1.73,.73c.52,0,.96-.13,1.32-.41,.36-.27,.65-.7,.87-1.3Zm-4.62-2.27h4.63c-.06-.7-.24-1.22-.53-1.57-.45-.54-1.03-.81-1.74-.81-.65,0-1.19,.22-1.63,.65-.44,.43-.68,1.01-.73,1.73Z"/><path d="M842.64,208.39l1.39-.22c.08,.56,.3,.98,.65,1.28s.86,.45,1.5,.45,1.12-.13,1.44-.39c.31-.26,.47-.57,.47-.93,0-.32-.14-.57-.41-.75-.19-.12-.67-.28-1.44-.48-1.03-.26-1.75-.49-2.14-.68-.4-.19-.7-.45-.91-.79s-.31-.71-.31-1.11c0-.37,.08-.71,.25-1.03,.17-.31,.4-.58,.69-.79,.22-.16,.52-.3,.89-.41,.38-.11,.78-.17,1.21-.17,.65,0,1.22,.09,1.71,.28s.86,.44,1.09,.76,.4,.75,.48,1.29l-1.38,.19c-.06-.43-.24-.76-.54-1-.3-.24-.72-.36-1.27-.36-.65,0-1.11,.11-1.38,.32-.28,.21-.41,.46-.41,.75,0,.18,.06,.35,.17,.49,.11,.15,.29,.28,.54,.38,.14,.05,.55,.17,1.24,.36,1,.27,1.69,.48,2.08,.65,.39,.17,.7,.42,.93,.74,.22,.32,.34,.72,.34,1.2s-.14,.91-.41,1.32-.67,.73-1.18,.96-1.1,.34-1.75,.34c-1.08,0-1.9-.22-2.46-.67-.57-.45-.93-1.11-1.08-1.99Z"/><path d="M851.21,201.03v-1.62h1.41v1.62h-1.41Zm0,9.84v-8.3h1.41v8.3h-1.41Z"/><path d="M854.01,210.87v-1.14l5.28-6.06c-.6,.03-1.13,.05-1.59,.05h-3.38v-1.14h6.78v.93l-4.49,5.27-.87,.96c.63-.05,1.22-.07,1.77-.07h3.84v1.21h-7.34Z"/><path d="M868.43,208.2l1.45,.18c-.23,.85-.65,1.51-1.27,1.98s-1.41,.7-2.38,.7c-1.21,0-2.18-.37-2.89-1.12-.71-.75-1.07-1.79-1.07-3.14s.36-2.48,1.08-3.25c.72-.77,1.65-1.16,2.8-1.16s2.02,.38,2.72,1.13c.7,.76,1.05,1.82,1.05,3.19,0,.08,0,.21,0,.38h-6.19c.05,.91,.31,1.61,.77,2.09s1.04,.73,1.73,.73c.52,0,.96-.13,1.32-.41,.36-.27,.65-.7,.87-1.3Zm-4.62-2.27h4.63c-.06-.7-.24-1.22-.53-1.57-.45-.54-1.03-.81-1.74-.81-.65,0-1.19,.22-1.63,.65-.44,.43-.68,1.01-.73,1.73Z"/></g></g></g><g><rect x="71.5" y="260" width="845" height="50" style="fill:#0333ff;"/><text transform="translate(440.21 288.85)" style="fill:#fff; font-family:Arial-BoldMT, Arial; font-size:16px;"><tspan x="0" y="0">Future factors</tspan></text></g></svg>