<?xml version="1.0" encoding="UTF-8"?><svg id="maturity" xmlns="http://www.w3.org/2000/svg" viewBox="0 0 988 425"><text transform="translate(143.92 39.08)" style="fill:#1d1d1b; font-family:ArialMT, Arial; font-size:16px;"><tspan x="0" y="0" style="letter-spacing:0em;">I</tspan><tspan x="4.31" y="0" style="letter-spacing:0em;">n</tspan><tspan x="13.11" y="0" style="letter-spacing:-.01em;">d</tspan><tspan x="21.82" y="0" style="letter-spacing:0em;">i</tspan><tspan x="25.27" y="0" style="letter-spacing:0em;">v</tspan><tspan x="33.19" y="0" style="letter-spacing:0em;">i</tspan><tspan x="36.69" y="0" style="letter-spacing:-.01em;">d</tspan><tspan x="45.41" y="0" style="letter-spacing:0em;">u</tspan><tspan x="54.17" y="0" style="letter-spacing:0em;">a</tspan><tspan x="62.93" y="0">l</tspan></text><text transform="translate(154.35 90.48)" style="fill:#1d1d1b; font-family:ArialMT, Arial; font-size:16px;"><tspan x="0" y="0" style="letter-spacing:0em;">S</tspan><tspan x="10.54" y="0" style="letter-spacing:-.01em;">u</tspan><tspan x="19.27" y="0" style="letter-spacing:0em;">p</tspan><tspan x="28.08" y="0" style="letter-spacing:0em;">p</tspan><tspan x="36.93" y="0" style="letter-spacing:0em;">o</tspan><tspan x="45.77" y="0" style="letter-spacing:.03em;">r</tspan><tspan x="51.61" y="0">t</tspan></text><text transform="translate(654.08 39.08)" style="fill:#1d1d1b; font-family:ArialMT, Arial; font-size:16px;"><tspan x="0" y="0" style="letter-spacing:0em;">C</tspan><tspan x="11.6" y="0" style="letter-spacing:0em;">o</tspan><tspan x="20.44" y="0" style="letter-spacing:0em;">l</tspan><tspan x="23.85" y="0" style="letter-spacing:0em;">l</tspan><tspan x="27.31" y="0" style="letter-spacing:0em;">e</tspan><tspan x="36.13" y="0" style="letter-spacing:0em;">c</tspan><tspan x="44.18" y="0" style="letter-spacing:0em;">t</tspan><tspan x="48.57" y="0" style="letter-spacing:0em;">i</tspan><tspan x="52.03" y="0" style="letter-spacing:-.02em;">v</tspan><tspan x="59.66" y="0">e</tspan></text><text transform="translate(654.08 90.48)" style="fill:#1d1d1b; font-family:ArialMT, Arial; font-size:16px;"><tspan x="0" y="0" style="letter-spacing:0em;">C</tspan><tspan x="11.6" y="0" style="letter-spacing:0em;">o</tspan><tspan x="20.43" y="0" style="letter-spacing:-.01em;">n</tspan><tspan x="29.12" y="0" style="letter-spacing:0em;">f</tspan><tspan x="33.57" y="0" style="letter-spacing:0em;">r</tspan><tspan x="38.81" y="0" style="letter-spacing:0em;">o</tspan><tspan x="47.64" y="0" style="letter-spacing:-.02em;">n</tspan><tspan x="56.28" y="0" style="letter-spacing:0em;">t</tspan><tspan x="60.78" y="0" style="letter-spacing:-.01em;">a</tspan><tspan x="69.45" y="0" style="letter-spacing:0em;">ti</tspan><tspan x="77.35" y="0" style="letter-spacing:0em;">o</tspan><tspan x="86.18" y="0">n</tspan></text><line x1="249.7" y1="34.74" x2="617.15" y2="34.74" style="fill:none; stroke:#1d1d1b; stroke-miterlimit:10;"/><polygon points="251.16 39.73 242.53 34.74 251.16 29.76 251.16 39.73" style="fill:#1d1d1b;"/><polygon points="615.69 39.73 624.32 34.74 615.69 29.76 615.69 39.73" style="fill:#1d1d1b;"/><line x1="249.7" y1="86.15" x2="617.15" y2="86.15" style="fill:none; stroke:#1d1d1b; stroke-miterlimit:10;"/><polygon points="251.16 91.13 242.53 86.15 251.16 81.16 251.16 91.13" style="fill:#1d1d1b;"/><polygon points="615.69 91.13 624.32 86.15 615.69 81.16 615.69 91.13" style="fill:#1d1d1b;"/><circle cx="404.35" cy="34.74" r="8.53" style="fill:#0333ff;"/><circle cx="429.24" cy="86.15" r="8.53" style="fill:#0333ff;"/><path d="m50.39,302.8c-.13,1.27.82,3.04,1.84,1.52.25-.44,1.2.06,1.14.82l-.44.89c1.52.82,3.55,1.84,3.61,1.01l1.33.7c-.06,1.2,1.65,1.33,6.46,5.25l.63-.51c-2.03-1.58-4.18-3.1-6.27-4.37.57-.44,1.14-.32,1.52-.13,16.33,8.86,18.23,21.9,18.23,25.58,0,.44-.19.44-.32.51-.19,0-.32,0-.32.44s.13.38.32.38c.13-.06.32-.13.32.32,0,1.77-1.71,2.6-2.79,3.48l.32.7c-1.52,2.53-4.43,3.67-7.41,3.67-2.53,0-5.19-.63-7.53-1.71-6.33-2.91-17.73-7.66-23.04-10-.63-.76-.89-1.39-.89-1.96.06-1.39,5.19-3.36,6.52-3.86l-.63-.89h1.46c3.36,1.84,8.86,4.49,12.47,6.14-.63.38-1.01.38-1.71.06-.19-.63-.89.25-.51.51,2.22,1.52,3.36-.06,4.68.57.57.25,1.2.57,1.96.89-.25.57.44,1.2,1.08,1.52.19-.38,0-.76-.25-1.14v-.06c.95.44,2.15.95,3.04,1.33-.38.25-.89.32-1.84-.13l-.38.38c.95.51,2.09,1.14,2.85,1.14.44,0,.7-.25.76-.82.63.25,1.27.51,1.77.7,0-12.91-9.62-18.68-20.39-23.87-.57-.19-.25-1.2-.63-1.77-.32-.57-.89-.32-.76.7-2.28-1.01-5.89-2.28-6.9-2.53-.57-.13-.7-.51-.7-1.01,0-.38.51-.82.95-1.39.57-.7.89-1.52,1.01-1.84.7-.32,1.96-.44,3.23-.51,1.52-.06,2.91-.25,3.04-1.58l3.17.89Zm25.83,26.72c-1.46.82-.95,3.1-.19,2.47.32-.25.38-.57.38-1.01s-.13-1.01-.19-1.46Zm-23.05,1.27c.13.06.38.19.44.13l.51-.82c-.63-.44-2.91-1.52-3.55-.89l2.6,1.58Zm21.15-5.76c.38,1.08.19,2.6,1.65,2.47-.25-1.27-.76-2.53-1.33-3.67-.44.19-.44.76-.32,1.2Zm-.76-1.9l.63-.13c-.63-1.33-2.09-3.61-2.98-4.68-.06,1.52,1.14,2.6,2.34,4.81Zm-8.67-9.56c.95.95,1.77,1.77,2.6,1.14l-1.96-1.77-.63.63Z" style="fill:#0333ff;"/><path d="m41.59,261.44c-.44-.7-.76-1.96-.82-3.29-.06-2.28.25-4.05,1.01-5.13l.89,1.27.25-.13c0-.44-.38-1.65-.63-2.03l1.9-1.77c1.52,3.29,5.89,9.18,10.32,12.41.51.38-.25.63,0,1.01,2.28.13,3.48,1.46,5.89,2.98.57.32,1.39.19,2.28.57.38,0,.76.95,1.33,1.14,4.87,1.58,9.94,3.74,15.13,5.76l-1.33,2.85.89.38c-1.08,4.05-2.66,4.43-6.9,5-1.65.19-4.49-.32-5.89.13-4.43,1.52-6.33.06-9.56.44l-2.47.32c.63,1.96,2.53,4.18,5.51,5.82l1.01-.19c5.95,3.17,14.18,6.01,17.98,8.86v1.77c0,1.84-4.24,2.85-4.62,3.61l-2.79.38c-1.96.32-2.66-.25-3.86-.7-10.89-4.49-17.47-11.71-22.6-16.71.7-1.9,3.93-7.09,6.27-7.98,1.9-.76,5.89-1.52,8.48-2.15-7.47-4.3-16.78-10.64-17.28-12.03l-.19-1.33c3.86,3.93,8.42,6.71,10.64,8.23.95.57,1.33.82,1.39.7l.25-.38c-2.85-1.84-8.86-6.08-12.47-9.81Zm4.43,25.07l1.46,1.39c.63-.76-.63-1.46-1.08-1.9l-.38.51Zm20.13-18.87l-.38.57c-.89-.06-2.09-.13-1.77-.89l2.15.32Zm-14.69-5c.76.51,2.09,1.52,2.41.89l-2.03-1.33c-.19-.13-.57.32-.38.44Zm-6.71.32l-1.39-1.08-.25.51c.25.32.7.7,1.33,1.08.13-.06.38-.25.32-.51Zm4.49-1.96l1.65,1.27c-.06-.38.06-.51.32-.57l-1.65-1.14c-.13-.13-.7.13-.32.44Zm-5.25-4.81l.57-.13c-.44-.63-.51-1.2-1.46-1.08l.89,1.2Z" style="fill:#0333ff;"/><path d="m65.77,221.77c.89,1.33,1.14,2.34,1.08,2.98,0,.76-.13.95-.32,1.08,1.14,1.14,2.09-.7.38-5-.06-.32.13-.82.25-.57.57,1.2,1.96,3.86,1.96,4.75,0,1.46.38,2.53.82,3.86,1.39,3.99,3.8,10.32,5.63,14.88.32.82,1.58,2.15,1.65,2.91.13.76.25,2.34.25,3.17,0,.51-.32.89-.7,1.08v1.46c-.95.95-2.91,2.03-2.91,2.85v.76c-11.14-1.08-28.24-12.47-35.64-18.23h-1.01c0-3.54,2.85-5.38,5.89-5.38.76,0,7.98,3.23,10.07,4.37,1.33.76,3.23,2.79,4.75,3.86.82.57,2.47.95,3.36,1.46,1.27.7,2.34,2.85,4.18,2.09-1.33-4.31-1.46-5.13-1.58-5.63-.19-.7-.38-1.52-.38-2.34,0-1.01.32-1.96,1.2-2.47-.32-.32-1.33-2.85-1.33-3.17,0-.89.32-.95.32-1.84,0-.82-1.08-4.12-1.71-6.27.13-.06.25-.32.32-.76h.06c.63,1.96,1.27,4.56,2.28,6.2l.38-.63c-.7-1.96-2.47-5.95-2.98-8.17.25-.76.82-1.65.95-1.71-.38-.95-1.27-2.6-.82-2.66.89-.19,2.79,3.86,3.61,7.09Zm-4.3,23.04c1.14.44,2.22,1.2,2.6.38l-2.41-1.14-.19.76Zm6.65-16.59c.63,3.35,3.23,10.38,5.38,14.75l.25-.06-5.19-15.7-.44,1.01Zm-11.52,12.91c0,.63.76.89,1.14.89v-.89h-1.14Zm9.12-8.1l-.76-1.39c-.19.32-.25,1.01.25,1.77l.51-.38Zm-3.74-12.16c.06.19-.25.7-.32.51l-.38-1.27c-.19-.7.19-.63.32-.32l.38,1.08Zm4.75-1.65c.19.44.06.7-.19.89h-.06c-1.65-3.74-1.9-4.18-1.52-4.69l1.77,3.8Zm-4.56-2.41c-.25.32-.44.63-.57.95-.19-.25-.95-2.47-.63-2.47.38,0,.89,1.08,1.2,1.52Z" style="fill:#0333ff;"/><path d="m47.6,181.99c2.6,5.76,2.79,11.65,4.37,17.22,1.14.7,2.6,1.58,4.3,2.66-.25-2.53-2.41-7.79-2.41-9.62s.63-2.41,2.91-3.74c.7.25,1.33-.06,1.65-.7l1.39.44c.63,3.86,2.15,13.3,3.55,16.46.7,1.65,7.66,3.1,9.12,3.17,1.46-1.96.82-4.94.38-6.77l.63-.38c0-.44-.38-1.01-.76-1.01-.13-.95,1.39-1.27,1.14-2.15-1.14-4.12-2.79-8.99-3.8-12.16-.06-.19-.13-.44.06-.51.32-.13.76.82,1.01,1.33l1.58,4.3c.25-.38.7-1.08.95-1.52.06-.19.19-.06.25.13,1.08,3.17,2.15,7.09,3.04,10.64.44-.95.44-2.34.13-3.55-.7-2.53-1.9-6.01-2.98-9.12-.06-.19-.25-.63.38-.32.63.38,1.08.89,1.39,1.77,1.58,4.12,3.48,9.43,3.48,13.3,0,7.41-3.36,12.66-12.6,12.41-4.68-.13-10.45-3.99-20.13-8.61-1.58.32-3.1.25-4.81-.89.38-3.17-4.5-5-4.5-7.22,0-1.2.95-4.56,1.2-5.38,1.39-.06,2.85.25,4.56,1.14.25-1.08.57-4.12.57-5.51l1.2-.57c0-.32-.38-.89-.38-1.58s.63-2.22.76-3.1c0-.13.13-.25.25-.13,2.28,2.53.89,4.3,2.79,3.86-.76-1.9-1.2-3.48-2.03-5.25-.13-.25-.57-.63-.19-.7.63-.13,1.01,1.01,1.52,1.65Zm22.1,26.78c1.14.25,1.96.32,2.34-.19l-1.71-.32-.63.51Zm-3.61-1.01l2.34.7.57-.44-2.98-.89.06.63Zm-.44-.13v-.06c-.51-.38-1.01-.89-1.65-1.14-.06.82.32,1.08.95,1.2h.7Zm-9.18-3.61l-.13-.82-1.46-.63c0,.44.89,1.27,1.58,1.46Zm-4.24-2.91l1.77,1.08-.19-.82-1.77-1.08.19.82Zm18.99-8.23c1.33,1.77,2.22,3.99,1.01,4.75-.63-2.91-1.58-5.82-2.53-8.17-.13-.25.06-.32.25-.19.89.76,1.33,2.41,1.27,3.61Zm-25.58-5.95l.76-.19-.51-1.14c-.32.06-.38.95-.25,1.33Z" style="fill:#0333ff;"/><path d="m65.33,151.58c1.08.51,3.86.32,5.13,1.65.51-.89,2.09-.38,2.85.44.95-.38,1.65-.63,3.42.7.25.06-.06-.57-.19-.7,2.15.13,3.86.63,5.76,1.27,0,1.96-1.9,3.74-1.52,4.75-1.27-.06-1.77.13-1.77,1.01l-.89-.06c0-.32-.19-.57-.63-.63,0,.32-.19.57-.63.57-1.46-.13-3.29-.89-5.19-1.27,0-.44.82-.44,1.77-.38,0-.44-2.6-1.14-4.05-1.27l-.32.76c1.01.06,2.41.06,2.09.82-.89-.19-3.1-.38-3.86-.57l1.33-1.08c-.76.06-.95-.25-1.9-.13-.13,3.61,5,13.17,6.96,16.02l.82.32.76-.25c2.22,1.08,4.81,2.03,6.14,3.04l-1.71,3.99c-1.96.19-2.79,2.91-4.43,2.22v1.01c-9.56-1.39-19.82-11.97-27.79-17.92-3.93-2.98-6.58-5.95-8.55-8.42-.38-.44.25-2.22-.95-2.34.25-.82,1.01-2.6,1.77-3.55l.38,1.14c1.08.06-.13-1.52.13-1.84,2.03-2.34,5.44-1.01,7.28-2.22.32-.06,5.76.06,6.33,1.01.13-.13.13-.19.25-.38,1.39.38,3.23.89,5,1.01.76.06,2.91-2.34,5.7-2.15.13,1.14.38,2.34.51,3.42Zm5.07,20.07c.44.32.7.44,1.14.7l-2.53-4.81c-.63.82.76,2.91,1.39,4.12Zm-2.66-2.72c.19.51.25.89.44,1.33l1.08.76c-.13-.25-.63-1.71-1.52-2.09Zm-21.65-15.45c.06,1.2,3.61,4.12,7.22,6.84l-.32.32c-.51-.19-.89-.38-1.14-.13,1.14,1.01,1.71,1.46,2.91.89,1.27.95,2.41,1.84,3.42,2.66,1.46,1.14,4.18,2.85,6.27,4.3-.76-1.27-2.09-2.22-3.17-4.75-.95-2.22-1.2-3.55-1.84-5.82-1.65-.19-2.85-.82-3.74-1.08l.95-1.08c-1.96-.76-7.09-1.65-9.94-2.34l-.63.19Zm21.4,11.08h-.06c.06,1.39.19,1.96,1.2,2.22-.32-.57-.7-1.52-1.14-2.22Zm6.39-5.57l.82.25v-.38l-1.01-.25.19.38Zm-15.26-1.96c.76.25.76-.19.7-.63l-.7-.06v.7Zm-1.01-.57l-.06.25.7.25v-.57l-.63.06Zm-7.79-1.84v.57l-1.71-.51-.25-.57,1.96.51Z" style="fill:#0333ff;"/><path d="m40.64,114.68c.57-2.28,2.6-3.42,5-3.23.25-.32.57-.44.89-.44,1.33,0,3.1,2.15,3.61,4.56-1.71,1.33-1.77-.76-2.47-.13,0,6.39,1.27,9.62,5.19,15.13h.95l1.9-2.66c1.9-2.72,2.79-5.38,4.88-7.28l-.44-.7c1.96-1.84,4.37-2.91,6.01-2.79l5.06.38-.25,1.08c2.53,1.84,4.81,5.51,6.46,9.24-.82,1.96-.51,3.04,1.2,2.98,1.14,3.04,1.71,5.76,1.71,6.9,0,.89-1.01,2.41-2.47,3.93-.51,2.53-2.03,3.1-3.17,2.79-1.14.82-2.22,1.39-2.91,1.39-1.58,0-2.53-1.08-3.29-2.09.89-1.08,3.1-2.72,3.1-3.86,0-2.98-1.71-8.86-5.25-12.92h-.63c-1.52,1.58-4.3,2.85-3.54,3.99-2.28,1.71-3.23,2.47-2.41,3.61-.76.89-2.28,2.6-4.05,2.91-2.03.38-4.37,1.14-5.7,1.08-5.19-.38-10.38-10.64-10.38-18.68,0-1.58.06-3.67.25-5.25l.76.06Zm36.85,16.9l.95,2.22.44-.32-.63-1.9h-.76Zm-28.43-5.7c.7,2.28,1.65,4.62,2.66,4.68l-2.6-4.68h-.06Zm1.01-12.35l-1.08-1.58c.76,0,.82.19,1.52,1.01l-.44.57Z" style="fill:#0333ff;"/><path d="m68.18,112.74l.25,1.2c-.19,0-.82-.82-1.33-1.39-.13-.13-.13-.32.13-.19l.95.38Zm7.66-29.25c.44-.82,2.34.32,3.67,1.01,1.77.95,5.25,1.9,5.25,2.85-1.01,1.71-3.48,5.44-6.27,5.44-3.8,0-9.56-2.79-13.04-4.68l-.57.32c0,1.52.76,6.96.76,7.53-.25.19-.44.51-.44.82,0,1.01.76,1.52,1.71,1.9,2.91,1.2,10.38,3.23,13.3,3.86,0,1.33-.7,1.65-1.46,2.41,0,0,.06.06.06.13.06.06.06.13.06.19v.32c0,.25-.13.44-.19.7l-.76-.32c-2.47,3.8-4.81,1.71-9.75.95-.32,1.46-.06,3.48-.06,5.13-1.27-.7-1.52-2.03-2.09-3.17l-.57,1.01-1.52-3.67c-.95-.38-1.39-.89-2.28-1.33-2.09-1.14-5-1.52-7.15-2.66-5.63-2.98-11.78-6.96-16.71-8.93-.19-.25-.51-.06-.51-.89,0-3.36,1.96-3.1,3.67-4.94,2.15-.06,3.67-.51,6.9.44v.44c2.03.63,5.13,2.91,7.91,4.24.57,1.2,1.84,1.96,2.98,1.96l-.38-1.33c-2.09-1.77-2.34-4.3-2.34-6.77,0-.82.38-2.09.7-3.04-4.87-3.93-10.51-6.39-16.08-9.31-.44-.25-.76-.82-.76-1.46,0-2.22,3.23-3.04,5.63-3.04,1.46,0,3.17.19,3.93,1.2,1.77.19,3.48.82,4.3,2.28,1.2-.51,3.55,1.46,5.25,2.41-.25.82.63,1.9,1.39,2.34.76.44,2.22,1.2,3.42,1.77.25.13.57-.38-.06-.7l-1.58-.76c-.63-.32-1.14-.89-1.08-1.46,3.61,2.03,7.28,2.98,10.83,5.44l-.25.7c-.13.25.25.82.63,1.08.44.25,1.2.76,2.09,1.27.89.57,2.41,0,3.04-.06.76.44,1.39,1.33,2.22,1.33.95-.44-.89-1.58-3.8-2.98Zm-8.17,16.84l.19-.57-1.9-.7c0,.57.89.95,1.71,1.27Zm1.96-8.48l.25-.7c1.71.38,2.28,1.27,2.28,1.39l-2.53-.7Zm7.66-4.88l1.27.63.51-.38-2.15-1.08c0,.19,0,.63.38.82Zm-2.47-2.98c.25.13.25.32.06.32l-.7.06-1.39-.95c-.19-.13-.32-.32-.19-.44l.19-.19,2.03,1.2Zm-9.37-3.67l5.07,2.6c-.06-.76-1.14-1.33-1.96-1.71l-3.48-1.71c-.06.25.13.7.38.82Z" style="fill:#0333ff;"/><path d="m804.84,344.49l.25,1.2c-.19,0-.82-.82-1.33-1.39-.13-.13-.13-.32.13-.19l.95.38Zm7.66-29.25c.44-.82,2.34.32,3.67,1.01,1.77.95,5.25,1.9,5.25,2.85-1.01,1.71-3.48,5.44-6.27,5.44-3.8,0-9.56-2.79-13.04-4.68l-.57.32c0,1.52.76,6.96.76,7.53-.25.19-.44.51-.44.82,0,1.01.76,1.52,1.71,1.9,2.91,1.2,10.38,3.23,13.3,3.86,0,1.33-.7,1.65-1.46,2.41.06.06.13.19.13.32v.32c0,.25-.13.44-.19.7l-.76-.32c-2.47,3.8-4.81,1.71-9.75.95-.32,1.46-.06,3.48-.06,5.13-1.27-.7-1.52-2.03-2.09-3.17l-.57,1.01-1.52-3.67c-.95-.38-1.39-.89-2.28-1.33-2.09-1.14-5-1.52-7.15-2.66-5.63-2.98-11.78-6.96-16.71-8.93-.19-.25-.51-.06-.51-.89,0-3.36,1.96-3.1,3.67-4.94,2.15-.06,3.67-.51,6.9.44v.44c2.03.63,5.13,2.91,7.91,4.24.57,1.2,1.84,1.96,2.98,1.96l-.38-1.33c-2.09-1.77-2.34-4.3-2.34-6.77,0-.82.38-2.09.7-3.04-4.87-3.93-10.51-6.39-16.08-9.31-.44-.25-.76-.82-.76-1.46,0-2.22,3.23-3.04,5.63-3.04,1.46,0,3.17.19,3.93,1.2,1.77.19,3.48.82,4.3,2.28,1.2-.51,3.55,1.46,5.25,2.41-.25.82.63,1.9,1.39,2.34.76.44,2.22,1.2,3.42,1.77.25.13.57-.38-.06-.7l-1.58-.76c-.63-.32-1.14-.89-1.08-1.46,3.61,2.03,7.28,2.98,10.83,5.44l-.25.7c-.13.25.25.82.63,1.08.44.25,1.2.76,2.09,1.27.89.57,2.41,0,3.04-.06.76.44,1.39,1.33,2.22,1.33.95-.44-.89-1.58-3.8-2.98Zm-8.17,16.84l.19-.57-1.9-.7c0,.57.89.95,1.71,1.27Zm1.96-8.48l.25-.7c1.71.38,2.28,1.27,2.28,1.39l-2.53-.7Zm7.66-4.88l1.27.63.51-.38-2.15-1.08c0,.19,0,.63.38.82Zm-2.47-2.98c.25.13.25.32.06.32l-.7.06-1.39-.95c-.19-.13-.32-.32-.19-.44l.19-.19,2.03,1.2Zm-9.37-3.67l5.07,2.6c-.06-.76-1.14-1.33-1.96-1.71l-3.48-1.71c-.06.25.13.7.38.82Z" style="fill:#0333ff;"/><path d="m802,272.57c1.08.51,3.86.32,5.13,1.65.51-.89,2.09-.38,2.85.44.95-.38,1.65-.63,3.42.7.25.06-.06-.57-.19-.7,2.15.13,3.86.63,5.76,1.27,0,1.96-1.9,3.74-1.52,4.75-1.27-.06-1.77.13-1.77,1.01l-.89-.06c0-.32-.19-.57-.63-.63,0,.32-.19.57-.63.57-1.46-.13-3.29-.89-5.19-1.27,0-.44.82-.44,1.77-.38,0-.44-2.6-1.14-4.05-1.27l-.32.76c1.01.06,2.41.06,2.09.82-.89-.19-3.1-.38-3.86-.57l1.33-1.08c-.76.06-.95-.25-1.9-.13-.13,3.61,5,13.17,6.96,16.02l.82.32.76-.25c2.22,1.08,4.81,2.03,6.14,3.04l-1.71,3.99c-1.96.19-2.79,2.91-4.43,2.22v1.01c-9.56-1.39-19.82-11.97-27.79-17.92-3.93-2.98-6.58-5.95-8.55-8.42-.38-.44.25-2.22-.95-2.34.25-.82,1.01-2.6,1.77-3.55l.38,1.14c1.08.06-.13-1.52.13-1.84,2.03-2.34,5.44-1.01,7.28-2.22.32-.06,5.76.06,6.33,1.01.13-.13.13-.19.25-.38,1.39.38,3.23.89,5,1.01.76.06,2.91-2.34,5.7-2.15.13,1.14.38,2.34.51,3.42Zm5.07,20.07c.44.32.7.44,1.14.7l-2.53-4.81c-.63.82.76,2.91,1.39,4.12Zm-2.66-2.72c.19.51.25.89.44,1.33l1.08.76c-.13-.25-.63-1.71-1.52-2.09Zm-21.65-15.45c.06,1.2,3.61,4.12,7.22,6.84l-.32.32c-.51-.19-.89-.38-1.14-.13,1.14,1.01,1.71,1.46,2.91.89,1.27.95,2.41,1.84,3.42,2.66,1.46,1.14,4.18,2.85,6.27,4.3-.76-1.27-2.09-2.22-3.17-4.75-.95-2.22-1.2-3.55-1.84-5.82-1.65-.19-2.85-.82-3.74-1.08l.95-1.08c-1.96-.76-7.09-1.65-9.94-2.34l-.63.19Zm21.4,11.08h-.06c.06,1.39.19,1.96,1.2,2.22-.32-.57-.7-1.52-1.14-2.22Zm6.39-5.57l.82.25v-.38l-1.01-.25.19.38Zm-15.26-1.96c.76.25.76-.19.7-.63l-.7-.06v.7Zm-1.01-.57l-.06.25.7.25v-.57l-.63.06Zm-7.79-1.84v.57l-1.71-.51-.25-.57,1.96.51Z" style="fill:#0333ff;"/><path d="m790.79,236.28c1.71,2.72,2.53,1.71,4.43,4.94-1.33.95-.25,2.79,1.52,4.68,5.51-6.01,14.5-12.66,14.5-18.8,0-2.98-.89-6.14-1.27-7.53.19-.7.95-1.71,1.58-2.22.32,1.2.63,2.34,1.08,3.55l.13-.13c0-.82.13-2.09.38-1.71.51.63,1.84,3.04,2.66,5.38.19.51.51-.25.44-.57-.89-2.6-2.72-5.13-4.05-7.09.25-.25.57-.51.82-.63,3.1,3.36,6.27,9.37,6.27,14.12-.82,2.41-1.96,5.13-3.61,6.77-3.04,3.1-15.13,11.59-17.09,15.38,2.28,1.65,7.34,4.24,9.81,5.13.82.38,2.47-.82,3.67-.51,1.39.38,2.41,2.09,3.8,3.48,0,1.2-1.01,2.85-2.34,3.36l-2.6.95c-1.01-1.52-.44.57-1.65.57-3.29,0-26.08-10.38-35.39-16.59,0-5.19,4.43-3.48,6.39-4.43-.82-1.96-1.84-4.49-1.84-6.71,0-1.39.13-2.47.44-3.61l1.01.44c.25-.89.25-1.9-.57-1.9l.51-1.2c.32.06.7.32.89.51.38-.51.38-1.08-.32-1.2,1.2-1.27,2.09-1.77,3.54-1.77.76,0,1.77.32,2.22.82,1.52,1.71,3.29,3.48,5.32,5.82l-.7.7Zm12.72,20.32l3.36,1.84.76-.32-3.61-1.84-.51.32Zm-7.03-12.91l-.57.38c-.51-.7-.89-1.77-.25-2.09l.82,1.71Zm-17.03-6.46l.32-2.03-.44-.32c-.25.7-.13,1.9.13,2.34Zm37.29-9.12c-.25.89.38,1.52.82.06-.19-1.2-.63-2.66-.95-3.55h-.06c0,.32-.32.44-.44.63l.63,2.85Z" style="fill:#0333ff;"/><path d="m778.25,177.95c-.44-.7-.76-1.96-.82-3.29-.06-2.28.25-4.05,1.01-5.13l.89,1.27.25-.13c0-.44-.38-1.65-.63-2.03l1.9-1.77c1.52,3.29,5.89,9.18,10.32,12.41.51.38-.25.63,0,1.01,2.28.13,3.48,1.46,5.89,2.98.57.32,1.39.19,2.28.57.38,0,.76.95,1.33,1.14,4.87,1.58,9.94,3.74,15.13,5.76l-1.33,2.85.89.38c-1.08,4.05-2.66,4.43-6.9,5-1.65.19-4.49-.32-5.89.13-4.43,1.52-6.33.06-9.56.44l-2.47.32c.63,1.96,2.53,4.18,5.51,5.82l1.01-.19c5.95,3.17,14.18,6.01,17.98,8.86v1.77c0,1.84-4.24,2.85-4.62,3.61l-2.79.38c-1.96.32-2.66-.25-3.86-.7-10.89-4.49-17.47-11.71-22.6-16.71.7-1.9,3.93-7.09,6.27-7.98,1.9-.76,5.89-1.52,8.48-2.15-7.47-4.3-16.78-10.64-17.28-12.03l-.19-1.33c3.86,3.93,8.42,6.71,10.64,8.23.95.57,1.33.82,1.39.7l.25-.38c-2.85-1.84-8.86-6.08-12.47-9.81Zm4.43,25.07l1.46,1.39c.63-.76-.63-1.46-1.08-1.9l-.38.51Zm20.13-18.87l-.38.57c-.89-.06-2.09-.13-1.77-.89l2.15.32Zm-14.69-5c.76.51,2.09,1.52,2.41.89l-2.03-1.33c-.19-.13-.57.32-.38.44Zm-6.71.32l-1.39-1.08-.25.51c.25.32.7.7,1.33,1.08.13-.06.38-.25.32-.51Zm4.49-1.96l1.65,1.27c-.06-.38.06-.51.32-.57l-1.65-1.14c-.13-.13-.7.13-.32.44Zm-5.25-4.81l.57-.13c-.44-.63-.51-1.2-1.46-1.08l.89,1.2Z" style="fill:#0333ff;"/><path d="m784.27,138.58c2.6,5.76,2.79,11.65,4.37,17.22,1.14.7,2.6,1.58,4.3,2.66-.25-2.53-2.41-7.79-2.41-9.62s.63-2.41,2.91-3.74c.7.25,1.33-.06,1.65-.7l1.39.44c.63,3.86,2.15,13.3,3.55,16.46.7,1.65,7.66,3.1,9.12,3.17,1.46-1.96.82-4.94.38-6.77l.63-.38c0-.44-.38-1.01-.76-1.01-.13-.95,1.39-1.27,1.14-2.15-1.14-4.12-2.79-8.99-3.8-12.16-.06-.19-.13-.44.06-.51.32-.13.76.82,1.01,1.33l1.58,4.3c.25-.38.7-1.08.95-1.52.06-.19.19-.06.25.13,1.08,3.17,2.15,7.09,3.04,10.64.44-.95.44-2.34.13-3.55-.7-2.53-1.9-6.01-2.98-9.12-.06-.19-.25-.63.38-.32.63.38,1.08.89,1.39,1.77,1.58,4.12,3.48,9.43,3.48,13.3,0,7.41-3.36,12.66-12.6,12.41-4.68-.13-10.45-3.99-20.13-8.61-1.58.32-3.1.25-4.81-.89.38-3.17-4.5-5-4.5-7.22,0-1.2.95-4.56,1.2-5.38,1.39-.06,2.85.25,4.56,1.14.25-1.08.57-4.12.57-5.51l1.2-.57c0-.32-.38-.89-.38-1.58s.63-2.22.76-3.1c0-.13.13-.25.25-.13,2.28,2.53.89,4.3,2.79,3.86-.76-1.9-1.2-3.48-2.03-5.25-.13-.25-.57-.63-.19-.7.63-.13,1.01,1.01,1.52,1.65Zm22.1,26.78c1.14.25,1.96.32,2.34-.19l-1.71-.32-.63.51Zm-3.61-1.01l2.34.7.57-.44-2.98-.89.06.63Zm-.44-.13v-.06c-.51-.38-1.01-.89-1.65-1.14-.06.82.32,1.08.95,1.2h.7Zm-9.18-3.61l-.13-.82-1.46-.63c0,.44.89,1.27,1.58,1.46Zm-4.24-2.91l1.77,1.08-.19-.82-1.77-1.08.19.82Zm18.99-8.23c1.33,1.77,2.22,3.99,1.01,4.75-.63-2.91-1.58-5.82-2.53-8.17-.13-.25.06-.32.25-.19.89.76,1.33,2.41,1.27,3.61Zm-25.58-5.95l.76-.19-.51-1.14c-.32.06-.38.95-.25,1.33Z" style="fill:#0333ff;"/><path d="m777.3,107.52c.57-2.28,2.6-3.42,5-3.23.25-.32.57-.44.89-.44,1.33,0,3.1,2.15,3.61,4.56-1.71,1.33-1.77-.76-2.47-.13,0,6.39,1.27,9.62,5.19,15.13h.95l1.9-2.66c1.9-2.72,2.79-5.38,4.88-7.28l-.44-.7c1.96-1.84,4.37-2.91,6.01-2.79l5.06.38-.25,1.08c2.53,1.84,4.81,5.51,6.46,9.24-.82,1.96-.51,3.04,1.2,2.98,1.14,3.04,1.71,5.76,1.71,6.9,0,.89-1.01,2.41-2.47,3.93-.51,2.53-2.03,3.1-3.17,2.79-1.14.82-2.22,1.39-2.91,1.39-1.58,0-2.53-1.08-3.29-2.09.89-1.08,3.1-2.72,3.1-3.86,0-2.98-1.71-8.86-5.25-12.92h-.63c-1.52,1.58-4.3,2.85-3.54,3.99-2.28,1.71-3.23,2.47-2.41,3.61-.76.89-2.28,2.6-4.05,2.91-2.03.38-4.37,1.14-5.7,1.08-5.19-.38-10.38-10.64-10.38-18.68,0-1.58.06-3.67.25-5.25l.76.06Zm36.85,16.9l.95,2.22.44-.32-.63-1.9h-.76Zm-28.43-5.7c.7,2.28,1.65,4.62,2.66,4.68l-2.6-4.68h-.06Zm1.01-12.35l-1.08-1.58c.76,0,.82.19,1.52,1.01l-.44.57Z" style="fill:#0333ff;"/><path d="m777.3,73.56c.57-2.28,2.6-3.42,5-3.23.25-.32.57-.44.89-.44,1.33,0,3.1,2.15,3.61,4.56-1.71,1.33-1.77-.76-2.47-.13,0,6.39,1.27,9.62,5.19,15.13h.95l1.9-2.66c1.9-2.72,2.79-5.38,4.88-7.28l-.44-.7c1.96-1.84,4.37-2.91,6.01-2.79l5.06.38-.25,1.08c2.53,1.84,4.81,5.51,6.46,9.24-.82,1.96-.51,3.04,1.2,2.98,1.14,3.04,1.71,5.76,1.71,6.9,0,.89-1.01,2.41-2.47,3.93-.51,2.53-2.03,3.1-3.17,2.79-1.14.82-2.22,1.39-2.91,1.39-1.58,0-2.53-1.08-3.29-2.09.89-1.08,3.1-2.72,3.1-3.86,0-2.98-1.71-8.86-5.25-12.92h-.63c-1.52,1.58-4.3,2.85-3.54,3.99-2.28,1.71-3.23,2.47-2.41,3.61-.76.89-2.28,2.6-4.05,2.91-2.03.38-4.37,1.14-5.7,1.08-5.19-.38-10.38-10.64-10.38-18.68,0-1.58.06-3.67.25-5.25l.76.06Zm36.85,16.9l.95,2.22.44-.32-.63-1.9h-.76Zm-28.43-5.7c.7,2.28,1.65,4.62,2.66,4.68l-2.6-4.68h-.06Zm1.01-12.35l-1.08-1.58c.76,0,.82.19,1.52,1.01l-.44.57Z" style="fill:#0333ff;"/><line x1="102.72" y1="136.44" x2="755.39" y2="136.44" style="fill:none; stroke:#c5c5c4; stroke-miterlimit:10; stroke-width:.5px;"/><line x1="102.72" y1="288.43" x2="755.39" y2="288.43" style="fill:none; stroke:#c5c5c4; stroke-miterlimit:10; stroke-width:.5px;"/></svg>