<?xml version="1.0" encoding="UTF-8"?><svg id="a" xmlns="http://www.w3.org/2000/svg" viewBox="0 0 988 525"><defs><style>.b{letter-spacing:0em;}.c,.d{letter-spacing:0em;}.e{letter-spacing:0em;}.f{letter-spacing:0em;}.g{letter-spacing:0em;}.h,.i{fill:#fff;}.j{letter-spacing:0em;}.k{letter-spacing:0em;}.l{letter-spacing:0em;}.m,.d{font-size:14px;}.m,.d,.n{font-family:ArialMT, Arial;}.o,.p,.q{fill:#0333ff;}.o,.q{stroke:#fff;}.o,.q,.r,.s{stroke-miterlimit:8;}.o,.i,.t{fill-rule:evenodd;}.u{letter-spacing:0em;}.v{letter-spacing:0em;}.w{letter-spacing:0em;}.p{font-family:CourierNewPS-BoldMT, Courier New;}.p,.n{font-size:16px;}.p,.x{letter-spacing:0em;}.y{letter-spacing:0em;}.a`{letter-spacing:0em;}.aa{letter-spacing:0em;}.ab{letter-spacing:0em;}.ac{letter-spacing:0em;}.ad{letter-spacing:0em;}.ae{letter-spacing:0em;}.r,.s{fill:none;stroke:#000;}.af{letter-spacing:0em;}.ag{letter-spacing:0em;}.ah{letter-spacing:0em;}.ai{letter-spacing:0em;}.s{stroke-width:2px;}.aj{letter-spacing:0em;}.ak{letter-spacing:0em;}.al{letter-spacing:0em;}.am{letter-spacing:-.01em;}.an{letter-spacing:0em;}.ao{letter-spacing:0em;}.ap{letter-spacing:0em;}.aq{letter-spacing:0em;}</style></defs><polygon class="i" points="117.74 524.06 117.74 82.86 166.94 33.66 216.15 82.86 216.15 524.06 117.74 524.06"/><text class="p" transform="translate(149.77 443.41) rotate(-90)"><tspan x="0" y="0">Verdichtung von Daten</tspan></text><rect class="r" x="176.1" y="402" width="143.25" height="59.25"/><text class="n" transform="translate(196.45 437.89)"><tspan class="an" x="0" y="0">E</tspan><tspan class="ag" x="10.75" y="0">x</tspan><tspan class="g" x="18.85" y="0">t</tspan><tspan class="ac" x="23.36" y="0">er</tspan><tspan class="v" x="37.52" y="0">n</tspan><tspan class="w" x="46.51" y="0">e</tspan><tspan x="55.36" y="0"> </tspan><tspan class="y" x="59.81" y="0">D</tspan><tspan class="ac" x="71.41" y="0">a</tspan><tspan class="k" x="80.28" y="0">t</tspan><tspan class="a`" x="84.79" y="0">e</tspan><tspan x="93.66" y="0">n</tspan></text><rect class="r" x="332.1" y="402" width="349.5" height="59.25"/><g><path d="M455.32,423.31c0-1.9,.51-3.39,1.53-4.46,1.02-1.08,2.34-1.61,3.95-1.61,1.06,0,2.01,.25,2.86,.76,.85,.51,1.5,1.21,1.94,2.11,.45,.9,.67,1.93,.67,3.07s-.23,2.2-.7,3.12c-.47,.92-1.13,1.61-1.99,2.08-.86,.47-1.79,.71-2.78,.71-1.08,0-2.04-.26-2.89-.78-.85-.52-1.49-1.23-1.93-2.13-.44-.9-.66-1.85-.66-2.86Zm1.56,.02c0,1.38,.37,2.47,1.11,3.26,.74,.79,1.67,1.19,2.79,1.19s2.08-.4,2.82-1.2c.74-.8,1.11-1.94,1.11-3.41,0-.93-.16-1.75-.47-2.44s-.78-1.23-1.38-1.62-1.29-.57-2.04-.57c-1.07,0-2,.37-2.77,1.11-.77,.74-1.16,1.97-1.16,3.69Z"/><path d="M468.09,432.07v-11.48h1.28v1.08c.3-.42,.64-.74,1.02-.95s.84-.32,1.38-.32c.71,0,1.33,.18,1.88,.55,.54,.36,.95,.88,1.23,1.54s.41,1.39,.41,2.18c0,.85-.15,1.61-.46,2.29s-.75,1.2-1.33,1.56-1.19,.54-1.83,.54c-.47,0-.89-.1-1.26-.3s-.68-.45-.92-.75v4.04h-1.41Zm1.27-7.28c0,1.07,.22,1.86,.65,2.37,.43,.51,.96,.77,1.57,.77s1.16-.26,1.61-.79c.45-.53,.67-1.35,.67-2.46s-.22-1.85-.65-2.38c-.43-.53-.95-.79-1.56-.79s-1.13,.28-1.59,.84c-.46,.56-.69,1.37-.69,2.44Z"/><path d="M482.72,426.22l1.45,.18c-.23,.85-.65,1.51-1.27,1.98s-1.41,.7-2.38,.7c-1.21,0-2.18-.37-2.89-1.12-.71-.75-1.07-1.8-1.07-3.14s.36-2.48,1.08-3.25c.72-.77,1.65-1.16,2.8-1.16s2.02,.38,2.72,1.13c.7,.76,1.05,1.82,1.05,3.19,0,.08,0,.21,0,.38h-6.19c.05,.91,.31,1.61,.77,2.09s1.04,.73,1.73,.73c.52,0,.96-.14,1.32-.41,.36-.27,.65-.7,.87-1.3Zm-4.62-2.27h4.63c-.06-.7-.24-1.22-.53-1.57-.45-.54-1.03-.81-1.74-.81-.65,0-1.19,.22-1.63,.65-.44,.43-.68,1.01-.73,1.73Z"/><path d="M485.97,428.89v-8.3h1.27v1.26c.32-.59,.62-.98,.89-1.16s.57-.28,.9-.28c.47,0,.96,.15,1.45,.45l-.48,1.3c-.34-.2-.69-.3-1.03-.3-.31,0-.58,.09-.83,.28-.25,.19-.42,.44-.52,.77-.16,.5-.23,1.05-.23,1.64v4.34h-1.41Z"/><path d="M496.77,427.87c-.52,.44-1.02,.76-1.5,.94s-1,.27-1.55,.27c-.91,0-1.61-.22-2.1-.67s-.73-1.01-.73-1.71c0-.41,.09-.78,.28-1.11s.43-.61,.73-.81,.64-.36,1.01-.46c.28-.07,.69-.14,1.25-.21,1.14-.14,1.97-.3,2.51-.48,0-.19,0-.31,0-.37,0-.57-.13-.98-.4-1.21-.36-.32-.89-.48-1.6-.48-.66,0-1.15,.12-1.46,.35-.32,.23-.55,.64-.7,1.23l-1.38-.19c.12-.59,.33-1.06,.62-1.43,.29-.36,.7-.64,1.24-.84s1.17-.29,1.88-.29,1.28,.08,1.73,.25c.44,.17,.77,.38,.98,.63,.21,.25,.35,.57,.44,.96,.05,.24,.07,.67,.07,1.3v1.88c0,1.31,.03,2.13,.09,2.48,.06,.35,.18,.68,.36,1h-1.47c-.15-.29-.24-.63-.28-1.02Zm-.12-3.14c-.51,.21-1.28,.39-2.3,.53-.58,.08-.99,.18-1.23,.28-.24,.1-.42,.26-.55,.46-.13,.2-.2,.42-.2,.67,0,.38,.14,.69,.43,.94s.7,.38,1.25,.38,1.02-.12,1.45-.36c.42-.24,.73-.56,.93-.97,.15-.32,.23-.79,.23-1.41v-.52Z"/><path d="M503.38,427.63l.2,1.24c-.4,.08-.75,.12-1.06,.12-.51,0-.91-.08-1.19-.24s-.48-.37-.59-.64c-.11-.26-.17-.82-.17-1.66v-4.77h-1.03v-1.09h1.03v-2.05l1.4-.84v2.9h1.41v1.09h-1.41v4.85c0,.4,.02,.66,.07,.77,.05,.11,.13,.21,.24,.27,.11,.07,.27,.1,.48,.1,.16,0,.36-.02,.62-.05Z"/><path d="M504.81,419.06v-1.62h1.41v1.62h-1.41Zm0,9.84v-8.3h1.41v8.3h-1.41Z"/><path d="M510.71,428.89l-3.16-8.3h1.48l1.78,4.97c.19,.54,.37,1.09,.53,1.67,.12-.44,.3-.96,.52-1.58l1.84-5.06h1.45l-3.14,8.3h-1.31Z"/><path d="M522.13,426.22l1.45,.18c-.23,.85-.65,1.51-1.27,1.98s-1.41,.7-2.38,.7c-1.21,0-2.18-.37-2.89-1.12-.71-.75-1.07-1.8-1.07-3.14s.36-2.48,1.08-3.25c.72-.77,1.65-1.16,2.8-1.16s2.02,.38,2.72,1.13c.7,.76,1.05,1.82,1.05,3.19,0,.08,0,.21,0,.38h-6.19c.05,.91,.31,1.61,.77,2.09s1.04,.73,1.73,.73c.52,0,.96-.14,1.32-.41,.36-.27,.65-.7,.87-1.3Zm-4.62-2.27h4.63c-.06-.7-.24-1.22-.53-1.57-.45-.54-1.03-.81-1.74-.81-.65,0-1.19,.22-1.63,.65-.44,.43-.68,1.01-.73,1.73Z"/><path d="M529.55,425.21l1.43-.12c.07,.57,.23,1.04,.47,1.41s.63,.66,1.15,.89,1.11,.34,1.76,.34c.58,0,1.09-.09,1.53-.26s.77-.41,.99-.71c.22-.3,.32-.63,.32-.98s-.1-.67-.31-.94c-.21-.27-.55-.49-1.03-.68-.31-.12-.99-.31-2.04-.56-1.05-.25-1.79-.49-2.21-.71-.55-.29-.95-.64-1.22-1.07-.27-.42-.4-.9-.4-1.43,0-.58,.16-1.12,.49-1.62,.33-.5,.81-.88,1.44-1.14,.63-.26,1.33-.39,2.1-.39,.85,0,1.6,.14,2.25,.41s1.15,.68,1.5,1.21,.54,1.13,.56,1.8l-1.45,.11c-.08-.72-.34-1.27-.79-1.64-.45-.37-1.12-.55-2-.55s-1.58,.17-2,.5-.63,.74-.63,1.21c0,.41,.15,.75,.45,1.02,.29,.27,1.05,.54,2.29,.82,1.23,.28,2.08,.52,2.54,.73,.67,.31,1.16,.7,1.48,1.17,.32,.47,.48,1.01,.48,1.63s-.17,1.18-.52,1.72-.85,.96-1.5,1.26-1.39,.45-2.21,.45c-1.04,0-1.91-.15-2.61-.45s-1.25-.76-1.65-1.36c-.4-.61-.61-1.29-.63-2.06Z"/><path d="M540.55,432.09l-.16-1.32c.31,.08,.58,.12,.8,.12,.31,0,.56-.05,.75-.16,.19-.1,.34-.25,.46-.44,.09-.14,.23-.49,.43-1.05,.03-.08,.07-.19,.12-.34l-3.15-8.31h1.52l1.73,4.8c.22,.61,.42,1.25,.6,1.92,.16-.65,.35-1.28,.58-1.89l1.77-4.84h1.41l-3.16,8.44c-.34,.91-.6,1.54-.79,1.88-.25,.46-.54,.8-.86,1.02-.32,.22-.71,.32-1.16,.32-.27,0-.57-.06-.91-.17Z"/><path d="M548.1,426.42l1.39-.22c.08,.56,.3,.98,.65,1.28s.86,.45,1.5,.45,1.12-.13,1.44-.39c.31-.26,.47-.57,.47-.93,0-.32-.14-.57-.41-.75-.19-.12-.67-.28-1.44-.48-1.03-.26-1.75-.49-2.14-.68-.4-.19-.7-.45-.91-.79s-.31-.71-.31-1.11c0-.37,.08-.71,.25-1.03,.17-.31,.4-.58,.69-.79,.22-.16,.52-.3,.89-.41,.38-.11,.78-.17,1.21-.17,.65,0,1.22,.09,1.71,.28s.86,.44,1.09,.76,.4,.75,.48,1.29l-1.38,.19c-.06-.43-.24-.76-.54-1-.3-.24-.72-.36-1.27-.36-.65,0-1.11,.11-1.38,.32-.28,.21-.41,.46-.41,.75,0,.18,.06,.35,.17,.49,.11,.15,.29,.28,.54,.38,.14,.05,.55,.17,1.24,.36,1,.27,1.69,.48,2.08,.65,.39,.17,.7,.42,.93,.74,.22,.32,.34,.72,.34,1.2s-.14,.91-.41,1.32-.67,.73-1.18,.96-1.1,.34-1.75,.34c-1.08,0-1.9-.22-2.46-.67-.57-.45-.93-1.11-1.08-1.99Z"/><path d="M559.78,427.63l.2,1.24c-.4,.08-.75,.12-1.06,.12-.51,0-.91-.08-1.19-.24s-.48-.37-.59-.64c-.11-.26-.17-.82-.17-1.66v-4.77h-1.03v-1.09h1.03v-2.05l1.4-.84v2.9h1.41v1.09h-1.41v4.85c0,.4,.02,.66,.07,.77,.05,.11,.13,.21,.24,.27,.11,.07,.27,.1,.48,.1,.16,0,.36-.02,.62-.05Z"/><path d="M566.88,426.22l1.45,.18c-.23,.85-.65,1.51-1.27,1.98s-1.41,.7-2.38,.7c-1.21,0-2.18-.37-2.89-1.12-.71-.75-1.07-1.8-1.07-3.14s.36-2.48,1.08-3.25c.72-.77,1.65-1.16,2.8-1.16s2.02,.38,2.72,1.13c.7,.76,1.05,1.82,1.05,3.19,0,.08,0,.21,0,.38h-6.19c.05,.91,.31,1.61,.77,2.09s1.04,.73,1.73,.73c.52,0,.96-.14,1.32-.41,.36-.27,.65-.7,.87-1.3Zm-4.62-2.27h4.63c-.06-.7-.24-1.22-.53-1.57-.45-.54-1.03-.81-1.74-.81-.65,0-1.19,.22-1.63,.65-.44,.43-.68,1.01-.73,1.73Z"/><path d="M570.15,428.89v-8.3h1.26v1.16c.26-.41,.61-.73,1.04-.98,.43-.25,.92-.37,1.48-.37,.61,0,1.12,.13,1.51,.38,.39,.26,.67,.61,.83,1.07,.66-.97,1.51-1.45,2.56-1.45,.82,0,1.46,.23,1.9,.68,.44,.46,.66,1.16,.66,2.11v5.7h-1.4v-5.23c0-.56-.05-.97-.14-1.21-.09-.25-.26-.45-.5-.6-.24-.15-.52-.23-.84-.23-.58,0-1.07,.19-1.45,.58-.39,.39-.58,1.01-.58,1.86v4.82h-1.41v-5.39c0-.62-.11-1.09-.34-1.41s-.6-.47-1.12-.47c-.4,0-.76,.1-1.1,.31-.34,.21-.58,.51-.73,.91-.15,.4-.23,.98-.23,1.73v4.3h-1.41Z"/><path d="M589.2,426.22l1.45,.18c-.23,.85-.65,1.51-1.27,1.98s-1.41,.7-2.38,.7c-1.21,0-2.18-.37-2.89-1.12-.71-.75-1.07-1.8-1.07-3.14s.36-2.48,1.08-3.25c.72-.77,1.65-1.16,2.8-1.16s2.02,.38,2.72,1.13c.7,.76,1.05,1.82,1.05,3.19,0,.08,0,.21,0,.38h-6.19c.05,.91,.31,1.61,.77,2.09s1.04,.73,1.73,.73c.52,0,.96-.14,1.32-.41,.36-.27,.65-.7,.87-1.3Zm-4.62-2.27h4.63c-.06-.7-.24-1.22-.53-1.57-.45-.54-1.03-.81-1.74-.81-.65,0-1.19,.22-1.63,.65-.44,.43-.68,1.01-.73,1.73Z"/><path d="M459.09,450.26c-.78-.98-1.43-2.12-1.97-3.44s-.8-2.67-.8-4.08c0-1.24,.2-2.43,.6-3.56,.47-1.32,1.19-2.63,2.17-3.94h1.01c-.63,1.08-1.05,1.86-1.25,2.32-.32,.72-.57,1.47-.75,2.25-.22,.97-.34,1.95-.34,2.94,0,2.51,.78,5.01,2.34,7.51h-1.01Z"/><path d="M463.08,446.89h-1.3v-11.45h1.41v4.09c.59-.74,1.35-1.12,2.27-1.12,.51,0,.99,.1,1.45,.31,.46,.21,.83,.5,1.12,.87,.29,.37,.52,.82,.69,1.35,.17,.53,.25,1.09,.25,1.69,0,1.42-.35,2.52-1.05,3.3-.7,.78-1.55,1.16-2.53,1.16s-1.75-.41-2.3-1.23v1.04Zm-.02-4.21c0,1,.14,1.71,.41,2.16,.44,.72,1.04,1.09,1.8,1.09,.61,0,1.15-.27,1.59-.8,.45-.53,.67-1.33,.67-2.39s-.21-1.88-.64-2.4-.95-.77-1.56-.77-1.15,.27-1.59,.8c-.45,.53-.67,1.31-.67,2.32Z"/><path d="M470.09,444.42l1.39-.22c.08,.56,.3,.98,.65,1.28s.86,.45,1.5,.45,1.12-.13,1.44-.39c.31-.26,.47-.57,.47-.93,0-.32-.14-.57-.41-.75-.19-.12-.67-.28-1.44-.48-1.03-.26-1.75-.49-2.14-.68-.4-.19-.7-.45-.91-.79s-.31-.71-.31-1.11c0-.37,.08-.71,.25-1.03,.17-.31,.4-.58,.69-.79,.22-.16,.52-.3,.89-.41,.38-.11,.78-.17,1.21-.17,.65,0,1.22,.09,1.71,.28s.86,.44,1.09,.76,.4,.75,.48,1.29l-1.38,.19c-.06-.43-.24-.76-.54-1-.3-.24-.72-.36-1.27-.36-.65,0-1.11,.11-1.38,.32-.28,.21-.41,.46-.41,.75,0,.18,.06,.35,.17,.49,.11,.15,.29,.28,.54,.38,.14,.05,.55,.17,1.24,.36,1,.27,1.69,.48,2.08,.65,.39,.17,.7,.42,.93,.74,.22,.32,.34,.72,.34,1.2s-.14,.91-.41,1.32-.67,.73-1.18,.96-1.1,.34-1.75,.34c-1.08,0-1.9-.22-2.46-.67-.57-.45-.93-1.11-1.08-1.99Z"/><path d="M478.63,450.07v-11.48h1.28v1.08c.3-.42,.64-.74,1.02-.95s.84-.32,1.38-.32c.71,0,1.33,.18,1.88,.55,.54,.36,.95,.88,1.23,1.54s.41,1.39,.41,2.18c0,.85-.15,1.61-.46,2.29s-.75,1.2-1.33,1.56-1.19,.54-1.83,.54c-.47,0-.89-.1-1.26-.3s-.68-.45-.92-.75v4.04h-1.41Zm1.27-7.28c0,1.07,.22,1.86,.65,2.37,.43,.51,.96,.77,1.57,.77s1.16-.26,1.61-.79c.45-.53,.67-1.35,.67-2.46s-.22-1.85-.65-2.38c-.43-.53-.95-.79-1.56-.79s-1.13,.28-1.59,.84c-.46,.56-.69,1.37-.69,2.44Z"/><path d="M489.03,446.89l-2.54-8.3h1.45l1.32,4.79,.49,1.78c.02-.09,.16-.66,.43-1.71l1.32-4.86h1.45l1.24,4.81,.41,1.59,.48-1.6,1.42-4.8h1.37l-2.59,8.3h-1.46l-1.32-4.97-.32-1.41-1.68,6.38h-1.47Z"/><path d="M499.39,446.89v-1.6h1.6v1.6h-1.6Z"/><path d="M508.2,446.89v-11.45h8.28v1.35h-6.77v3.51h6.34v1.34h-6.34v3.9h7.03v1.35h-8.55Z"/><path d="M518.82,446.89v-11.45h5.08c1.02,0,1.8,.1,2.33,.31,.53,.21,.96,.57,1.27,1.09,.32,.52,.48,1.1,.48,1.73,0,.81-.26,1.5-.79,2.05-.53,.56-1.34,.91-2.44,1.06,.4,.19,.71,.38,.91,.57,.44,.41,.86,.91,1.26,1.52l1.99,3.12h-1.91l-1.52-2.38c-.44-.69-.81-1.21-1.09-1.58-.29-.36-.54-.62-.77-.77-.23-.15-.46-.25-.69-.3-.17-.04-.45-.05-.84-.05h-1.76v5.09h-1.52Zm1.52-6.4h3.26c.69,0,1.23-.07,1.62-.21,.39-.14,.69-.37,.89-.69,.2-.31,.3-.66,.3-1.03,0-.54-.2-.99-.59-1.34-.39-.35-1.01-.52-1.86-.52h-3.62v3.79Z"/><path d="M530.33,446.89v-11.45h4.32c.76,0,1.34,.04,1.74,.11,.56,.09,1.03,.27,1.41,.54,.38,.26,.69,.63,.92,1.11,.23,.47,.35,1,.35,1.56,0,.97-.31,1.8-.93,2.47-.62,.67-1.74,1.01-3.36,1.01h-2.94v4.66h-1.52Zm1.52-6.01h2.96c.98,0,1.67-.18,2.09-.55,.41-.36,.62-.88,.62-1.54,0-.48-.12-.89-.36-1.23-.24-.34-.56-.57-.96-.68-.25-.07-.73-.1-1.41-.1h-2.93v4.09Z"/><path d="M541.19,446.89v-1.6h1.6v1.6c0,.59-.1,1.06-.31,1.43-.21,.36-.54,.64-.99,.84l-.39-.6c.3-.13,.52-.32,.66-.57,.14-.25,.22-.62,.23-1.09h-.8Z"/><path d="M558.2,442.88l1.52,.38c-.32,1.25-.89,2.19-1.71,2.85-.83,.65-1.83,.98-3.03,.98s-2.24-.25-3.01-.75c-.77-.5-1.36-1.23-1.77-2.18s-.61-1.98-.61-3.07c0-1.19,.23-2.23,.68-3.12,.46-.89,1.1-1.56,1.95-2.02s1.77-.69,2.78-.69c1.15,0,2.11,.29,2.89,.88,.78,.58,1.33,1.4,1.63,2.46l-1.49,.35c-.27-.83-.65-1.44-1.16-1.82-.5-.38-1.14-.57-1.91-.57-.88,0-1.62,.21-2.21,.63s-1.01,.99-1.25,1.7-.36,1.44-.36,2.2c0,.97,.14,1.82,.43,2.55s.73,1.27,1.32,1.63,1.25,.54,1.95,.54c.85,0,1.57-.24,2.16-.73,.59-.49,.99-1.22,1.2-2.18Z"/><path d="M561.6,446.89v-11.45h5.08c1.02,0,1.8,.1,2.33,.31,.53,.21,.96,.57,1.27,1.09,.32,.52,.48,1.1,.48,1.73,0,.81-.26,1.5-.79,2.05-.53,.56-1.34,.91-2.44,1.06,.4,.19,.71,.38,.91,.57,.44,.41,.86,.91,1.26,1.52l1.99,3.12h-1.91l-1.52-2.38c-.44-.69-.81-1.21-1.09-1.58-.29-.36-.54-.62-.77-.77-.23-.15-.46-.25-.69-.3-.17-.04-.45-.05-.84-.05h-1.76v5.09h-1.52Zm1.52-6.4h3.26c.69,0,1.23-.07,1.62-.21,.39-.14,.69-.37,.89-.69,.2-.31,.3-.66,.3-1.03,0-.54-.2-.99-.59-1.34-.39-.35-1.01-.52-1.86-.52h-3.62v3.79Z"/><path d="M573.07,446.89v-11.45h2.28l2.71,8.11c.25,.76,.43,1.32,.55,1.7,.13-.42,.33-1.03,.61-1.84l2.74-7.97h2.04v11.45h-1.46v-9.59l-3.33,9.59h-1.37l-3.31-9.75v9.75h-1.46Z"/><path d="M587.21,450.26h-1.01c1.56-2.5,2.34-5,2.34-7.51,0-.98-.11-1.95-.34-2.91-.18-.78-.42-1.53-.74-2.25-.2-.47-.62-1.25-1.26-2.34h1.01c.98,1.31,1.7,2.62,2.17,3.94,.4,1.14,.6,2.32,.6,3.56,0,1.41-.27,2.77-.81,4.08s-1.19,2.46-1.96,3.44Z"/></g><rect class="s" x="176.1" y="303.75" width="505.5" height="51"/><text class="n" transform="translate(282.58 334.87)"><tspan class="an" x="0" y="0">E</tspan><tspan class="ag" x="10.75" y="0">x</tspan><tspan class="g" x="18.85" y="0">t</tspan><tspan class="ac" x="23.36" y="0">r</tspan><tspan class="b" x="28.65" y="0">a</tspan><tspan class="e" x="37.5" y="0">k</tspan><tspan class="k" x="45.54" y="0">t</tspan><tspan class="aa" x="50.04" y="0">i</tspan><tspan class="ah" x="53.54" y="0">o</tspan><tspan class="an" x="62.48" y="0">n, Transformation, Laden (ETL)</tspan><tspan x="288.09" y="0"> </tspan></text><rect class="s" x="439.35" y="183.75" width="242.25" height="72"/><text class="n" transform="translate(468.83 216.37)"><tspan class="f" x="0" y="0">Z</tspan><tspan class="b" x="9.79" y="0">e</tspan><tspan class="v" x="18.64" y="0">n</tspan><tspan class="k" x="27.63" y="0">t</tspan><tspan class="ac" x="32.14" y="0">r</tspan><tspan class="b" x="37.44" y="0">a</tspan><tspan class="aa" x="46.29" y="0">l</tspan><tspan class="w" x="49.78" y="0">e</tspan><tspan class="e" x="58.63" y="0">s</tspan><tspan x="66.66" y="0"> </tspan></text><text class="n" transform="translate(468.83 234.37)"><tspan class="ah" x="0" y="0">D</tspan><tspan class="b" x="11.6" y="0">a</tspan><tspan class="g" x="20.45" y="0">t</tspan><tspan class="ac" x="24.96" y="0">a</tspan><tspan x="33.83" y="0"> </tspan><tspan class="an" x="38.27" y="0">W</tspan><tspan class="ac" x="53.46" y="0">are</tspan><tspan class="an" x="76.48" y="0">h</tspan><tspan class="e" x="85.46" y="0">o</tspan><tspan class="aa" x="94.39" y="0">u</tspan><tspan class="f" x="103.23" y="0">s</tspan><tspan x="111.24" y="0">e</tspan></text><rect class="s" x="176.1" y="183.75" width="214.5" height="72"/><text class="n" transform="translate(205.19 224.48)"><tspan class="j" x="0" y="0">D</tspan><tspan class="ac" x="11.41" y="0">a</tspan><tspan class="ae" x="20.28" y="0">t</tspan><tspan class="ac" x="24.61" y="0">a Marts</tspan><tspan x="77.73" y="0"> </tspan></text><rect class="s" x="176.1" y="63.75" width="505.5" height="72.75"/><text class="n" transform="translate(257.42 104.39)"><tspan class="f" x="0" y="0">R</tspan><tspan class="a`" x="11.57" y="0">e</tspan><tspan class="w" x="20.44" y="0">p</tspan><tspan class="e" x="29.29" y="0">o</tspan><tspan class="ac" x="38.22" y="0">r</tspan><tspan class="g" x="43.51" y="0">t</tspan><tspan class="e" x="48.02" y="0">s</tspan><tspan x="56.06" y="0"> </tspan><tspan class="ah" x="60.5" y="0">&amp;</tspan><tspan x="71.22" y="0"> </tspan><tspan class="ah" x="75.67" y="0">D</tspan><tspan class="ac" x="87.27" y="0">a</tspan><tspan class="aq" x="96.13" y="0">s</tspan><tspan class="ag" x="104.15" y="0">h</tspan><tspan class="b" x="113.15" y="0">b</tspan><tspan class="e" x="122" y="0">o</tspan><tspan class="ac" x="130.93" y="0">ar</tspan><tspan class="b" x="145.09" y="0">d</tspan><tspan class="f" x="153.94" y="0">s (in der Regel per OLAP)</tspan><tspan x="338.42" y="0"> </tspan></text><polygon class="t" points="498.98 274.02 522.98 244.87 546.98 274.02 533.82 274.02 533.82 304.87 512.14 304.87 512.14 274.02 498.98 274.02"/><text class="m" transform="translate(713.59 436.87)"><tspan class="ad" x="0" y="0">Q</tspan><tspan class="ap" x="10.86" y="0">u</tspan><tspan class="u" x="18.66" y="0">e</tspan><tspan class="ai" x="26.53" y="0">l</tspan><tspan class="l" x="29.68" y="0">l</tspan><tspan class="am" x="32.85" y="0">s</tspan><tspan class="ak" x="39.67" y="0">y</tspan><tspan x="46.61" y="0">s</tspan><tspan class="ab" x="53.61" y="0">t</tspan><tspan class="u" x="57.45" y="0">e</tspan><tspan class="c" x="65.32" y="0">m</tspan><tspan x="76.91" y="0">e</tspan></text><polygon class="t" points="258.98 152.52 282.98 123.37 306.98 152.52 293.82 152.52 293.82 182.62 272.14 182.62 272.14 152.52 258.98 152.52"/><polygon class="t" points="498.98 152.52 522.98 123.37 546.98 152.52 533.82 152.52 533.82 182.62 512.14 182.62 512.14 152.52 498.98 152.52"/><rect class="h" x="308.1" y="197.25" width="33.75" height="33.75"/><rect class="r" x="308.1" y="197.25" width="33.75" height="33.75"/><rect class="h" x="314.85" y="204" width="34.5" height="33.75"/><rect class="r" x="314.85" y="204" width="34.5" height="33.75"/><rect class="r" x="322.35" y="211.5" width="34.5" height="34.5"/><rect class="r" x="322.35" y="211.5" width="34.5" height="34.5"/><polygon class="t" points="409.09 245.09 379.94 221.09 409.09 197.09 409.09 210.25 439.19 210.25 439.19 231.93 409.09 231.93 409.09 245.09"/><polygon class="t" points="498.98 371.9 522.98 342.75 546.98 371.9 533.82 371.9 533.82 402 512.14 402 512.14 371.9 498.98 371.9"/><polygon class="t" points="224.1 371.44 247.73 342.75 271.35 371.44 258.4 371.44 258.4 402 237.06 402 237.06 371.44 224.1 371.44"/><text class="m" transform="translate(713.59 334.12)"><tspan class="c" x="0" y="0">D</tspan><tspan x="10.04" y="0">a</tspan><tspan class="ab" x="17.83" y="0">t</tspan><tspan class="af" x="21.66" y="0">e</tspan><tspan class="aj" x="29.52" y="0">n</tspan><tspan class="ai" x="37.29" y="0">i</tspan><tspan class="x" x="40.44" y="0">n</tspan><tspan class="ab" x="48.21" y="0">t</tspan><tspan class="ao" x="52.05" y="0">e</tspan><tspan x="59.9" y="0">g</tspan><tspan class="al" x="67.69" y="0">r</tspan><tspan x="72.41" y="0">a</tspan><tspan class="ak" x="80.19" y="0">t</tspan><tspan class="ai" x="84.03" y="0">i</tspan><tspan class="a`" x="87.18" y="0">o</tspan><tspan x="94.94" y="0">n</tspan></text><text class="m" transform="translate(713.59 226.12)"><tspan class="c" x="0" y="0">D</tspan><tspan x="10.04" y="0">a</tspan><tspan class="ab" x="17.83" y="0">t</tspan><tspan class="af" x="21.66" y="0">e</tspan><tspan class="aj" x="29.52" y="0">nh</tspan><tspan x="45.06" y="0">a</tspan><tspan class="ai" x="52.85" y="0">l</tspan><tspan class="ab" x="56" y="0">t</tspan><tspan x="59.83" y="0">u</tspan><tspan class="aj" x="67.62" y="0">n</tspan><tspan x="75.39" y="0">g</tspan></text><text class="d" transform="translate(713.59 106.12)"><tspan x="0" y="0">Benutzeroberfläche</tspan></text><g><path class="o" d="M604.68,180.56c0,6.06,19.66,10.98,43.92,10.98s43.92-4.92,43.92-10.98v77.63c0,6.06-19.66,10.98-43.92,10.98s-43.92-4.92-43.92-10.98v-77.63Z"/><ellipse class="q" cx="648.6" cy="180.56" rx="43.92" ry="10.98"/></g></svg>