<?xml version="1.0" encoding="UTF-8"?>
<svg id="maturity" xmlns="http://www.w3.org/2000/svg" viewBox="0 0 988 525">
  <defs>
    <style>
      .cls-1 {
        letter-spacing: -.02em;
      }

      .cls-2 {
        font-family: Arial-BoldMT, Arial;
        font-size: 16px;
        font-weight: 700;
      }

      .cls-2, .cls-3 {
        fill: #0333ff;
      }

      .cls-4 {
        fill: #fff;
        stroke: #000;
        stroke-miterlimit: 10;
        stroke-width: .5px;
      }

      .cls-5 {
        stroke-width: 0px;
      }

      .cls-5, .cls-6 {
        fill: #000;
      }

      .cls-7 {
        letter-spacing: -.11em;
      }

      .cls-3 {
        font-size: 12px;
      }

      .cls-3, .cls-6 {
        font-family: ArialMT, Arial;
      }

      .cls-6 {
        font-size: 14px;
      }
    </style>
  </defs>
  <rect class="cls-4" x="110.2" y="212" width="200" height="115"/>
  <text class="cls-6" transform="translate(174.79 248.86)"><tspan class="cls-7" x="0" y="0">T</tspan><tspan x="7" y="0">echnology</tspan></text>
  <g>
    <path class="cls-5" d="M157.57,273.56c0-1.66.45-2.97,1.34-3.91s2.05-1.41,3.46-1.41c.92,0,1.76.22,2.5.66s1.31,1.06,1.7,1.85c.39.79.58,1.69.58,2.69s-.21,1.93-.62,2.73-.99,1.41-1.74,1.82-1.56.62-2.43.62c-.94,0-1.79-.23-2.53-.68s-1.31-1.08-1.69-1.87-.57-1.62-.57-2.5ZM158.93,273.58c0,1.21.33,2.16.97,2.85.65.69,1.46,1.04,2.44,1.04s1.82-.35,2.46-1.05c.65-.7.97-1.7.97-2.99,0-.82-.14-1.53-.41-2.14-.28-.61-.68-1.08-1.21-1.42-.53-.33-1.13-.5-1.79-.5-.94,0-1.75.32-2.42.97-.68.65-1.01,1.72-1.01,3.23Z"/>
    <path class="cls-5" d="M168.69,278.44v-7.26h1.11v1.1c.28-.52.54-.85.78-1.02.24-.16.5-.25.79-.25.41,0,.84.13,1.26.4l-.42,1.14c-.3-.18-.6-.27-.9-.27-.27,0-.51.08-.72.24s-.37.39-.46.67c-.14.44-.21.92-.21,1.44v3.8h-1.23Z"/>
    <path class="cls-5" d="M173.14,279.04l1.2.18c.05.37.19.64.42.81.31.23.72.34,1.25.34.57,0,1.01-.11,1.32-.34s.52-.55.63-.96c.06-.25.09-.78.09-1.58-.54.63-1.21.95-2.01.95-1,0-1.77-.36-2.32-1.08s-.82-1.58-.82-2.59c0-.69.13-1.33.38-1.92s.61-1.04,1.09-1.36c.48-.32,1.04-.48,1.68-.48.86,0,1.56.35,2.12,1.04v-.88h1.13v6.28c0,1.13-.12,1.93-.34,2.4-.23.47-.6.84-1.09,1.12-.5.27-1.11.41-1.84.41-.87,0-1.57-.19-2.1-.58s-.79-.98-.77-1.76ZM174.16,274.68c0,.95.19,1.65.57,2.08s.85.66,1.42.66,1.04-.22,1.42-.65.57-1.12.57-2.05-.2-1.56-.59-2.01c-.39-.45-.87-.68-1.43-.68s-1.01.22-1.39.67-.57,1.1-.57,1.98Z"/>
    <path class="cls-5" d="M185.89,277.54c-.46.39-.89.66-1.32.82-.42.16-.87.24-1.36.24-.8,0-1.41-.19-1.84-.58s-.64-.89-.64-1.49c0-.36.08-.68.24-.97.16-.29.37-.53.64-.71.26-.18.56-.31.88-.4.24-.06.61-.13,1.09-.18.99-.12,1.72-.26,2.19-.42,0-.17,0-.28,0-.32,0-.5-.12-.85-.35-1.06-.31-.28-.78-.42-1.4-.42-.58,0-1.01.1-1.28.3-.28.2-.48.56-.61,1.08l-1.2-.16c.11-.52.29-.93.54-1.25s.61-.56,1.09-.73,1.02-.26,1.65-.26,1.12.07,1.51.22.67.33.85.55.31.5.38.84c.04.21.06.59.06,1.13v1.64c0,1.14.03,1.87.08,2.17.05.3.16.59.31.87h-1.29c-.13-.26-.21-.55-.25-.9ZM185.79,274.8c-.45.18-1.12.34-2.01.46-.51.07-.86.15-1.07.25s-.37.22-.49.4-.17.37-.17.58c0,.33.12.6.37.82.25.22.61.33,1.09.33s.9-.1,1.26-.31.64-.49.81-.85c.13-.28.2-.69.2-1.23v-.45Z"/>
    <path class="cls-5" d="M188.94,278.44v-7.26h1.11v1.03c.53-.8,1.3-1.2,2.31-1.2.44,0,.84.08,1.21.24.37.16.64.36.82.62s.31.56.38.91c.05.23.07.63.07,1.2v4.46h-1.23v-4.42c0-.5-.05-.88-.14-1.12s-.27-.45-.51-.59c-.24-.15-.53-.22-.86-.22-.52,0-.98.17-1.36.5-.38.33-.57.96-.57,1.89v3.96h-1.23Z"/>
    <path class="cls-5" d="M196.73,269.83v-1.42h1.23v1.42h-1.23ZM196.73,278.44v-7.26h1.23v7.26h-1.23Z"/>
    <path class="cls-5" d="M199.18,278.44v-1l4.62-5.3c-.52.03-.99.04-1.39.04h-2.96v-1h5.93v.81l-3.93,4.61-.76.84c.55-.04,1.07-.06,1.55-.06h3.36v1.06h-6.43Z"/>
    <path class="cls-5" d="M211.57,277.54c-.46.39-.89.66-1.32.82-.42.16-.88.24-1.36.24-.8,0-1.41-.19-1.84-.58s-.64-.89-.64-1.49c0-.36.08-.68.24-.97.16-.29.37-.53.63-.71.26-.18.56-.31.89-.4.24-.06.61-.13,1.09-.18.99-.12,1.73-.26,2.19-.42,0-.17,0-.28,0-.32,0-.5-.12-.85-.35-1.06-.31-.28-.78-.42-1.4-.42-.58,0-1.01.1-1.28.3-.28.2-.48.56-.61,1.08l-1.2-.16c.11-.52.29-.93.54-1.25s.61-.56,1.09-.73,1.02-.26,1.65-.26,1.12.07,1.51.22.67.33.85.55.31.5.38.84c.04.21.06.59.06,1.13v1.64c0,1.14.03,1.87.08,2.17.05.3.16.59.31.87h-1.29c-.13-.26-.21-.55-.25-.9ZM211.47,274.8c-.45.18-1.12.34-2.01.46-.51.07-.86.15-1.07.25s-.37.22-.49.4-.17.37-.17.58c0,.33.12.6.37.82.25.22.61.33,1.09.33s.9-.1,1.26-.31.64-.49.81-.85c.13-.28.2-.69.2-1.23v-.45Z"/>
    <path class="cls-5" d="M217.31,277.34l.18,1.09c-.35.07-.66.11-.93.11-.45,0-.79-.07-1.04-.21s-.42-.33-.52-.56-.15-.71-.15-1.45v-4.18h-.9v-.96h.9v-1.8l1.22-.74v2.54h1.24v.96h-1.24v4.25c0,.35.02.58.07.68.04.1.11.18.21.24.1.06.24.09.42.09.14,0,.32-.02.54-.05Z"/>
    <path class="cls-5" d="M218.52,269.83v-1.42h1.23v1.42h-1.23ZM218.52,278.44v-7.26h1.23v7.26h-1.23Z"/>
    <path class="cls-5" d="M221.16,274.81c0-1.34.37-2.34,1.12-2.99.62-.54,1.38-.81,2.28-.81,1,0,1.81.33,2.45.98s.95,1.56.95,2.71c0,.93-.14,1.67-.42,2.2-.28.54-.69.95-1.22,1.25-.54.3-1.12.44-1.75.44-1.02,0-1.84-.33-2.46-.98-.63-.65-.94-1.59-.94-2.82ZM222.43,274.81c0,.93.2,1.63.61,2.09s.92.69,1.53.69,1.12-.23,1.52-.7.61-1.17.61-2.13c0-.9-.2-1.58-.61-2.04-.41-.46-.92-.69-1.52-.69s-1.12.23-1.53.69-.61,1.16-.61,2.08Z"/>
    <path class="cls-5" d="M229.41,278.44v-7.26h1.11v1.03c.53-.8,1.3-1.2,2.31-1.2.44,0,.84.08,1.21.24.37.16.64.36.82.62s.31.56.38.91c.05.23.07.63.07,1.2v4.46h-1.23v-4.42c0-.5-.05-.88-.14-1.12s-.27-.45-.51-.59c-.24-.15-.53-.22-.86-.22-.52,0-.98.17-1.36.5-.38.33-.57.96-.57,1.89v3.96h-1.23Z"/>
    <path class="cls-5" d="M245.82,277.54c-.46.39-.89.66-1.32.82-.42.16-.88.24-1.36.24-.8,0-1.41-.19-1.84-.58s-.64-.89-.64-1.49c0-.36.08-.68.24-.97.16-.29.37-.53.63-.71.26-.18.56-.31.89-.4.24-.06.61-.13,1.09-.18.99-.12,1.73-.26,2.19-.42,0-.17,0-.28,0-.32,0-.5-.12-.85-.35-1.06-.31-.28-.78-.42-1.4-.42-.58,0-1.01.1-1.28.3-.28.2-.48.56-.61,1.08l-1.2-.16c.11-.52.29-.93.54-1.25s.61-.56,1.09-.73,1.02-.26,1.65-.26,1.12.07,1.51.22.67.33.85.55.31.5.38.84c.04.21.06.59.06,1.13v1.64c0,1.14.03,1.87.08,2.17.05.3.16.59.31.87h-1.29c-.13-.26-.21-.55-.25-.9ZM245.72,274.8c-.45.18-1.12.34-2.01.46-.51.07-.86.15-1.07.25s-.37.22-.49.4-.17.37-.17.58c0,.33.12.6.37.82.25.22.61.33,1.09.33s.9-.1,1.26-.31.64-.49.81-.85c.13-.28.2-.69.2-1.23v-.45Z"/>
    <path class="cls-5" d="M248.87,278.44v-7.26h1.11v1.03c.53-.8,1.3-1.2,2.31-1.2.44,0,.84.08,1.21.24.37.16.64.36.82.62s.31.56.38.91c.04.23.07.63.07,1.2v4.46h-1.23v-4.42c0-.5-.05-.88-.14-1.12s-.27-.45-.51-.59c-.24-.15-.53-.22-.86-.22-.52,0-.98.17-1.36.5-.38.33-.57.96-.57,1.89v3.96h-1.23Z"/>
    <path class="cls-5" d="M261.36,278.44v-.92c-.46.72-1.14,1.08-2.03,1.08-.58,0-1.11-.16-1.6-.48-.49-.32-.86-.76-1.13-1.34-.27-.57-.4-1.23-.4-1.97s.12-1.38.36-1.97.6-1.04,1.09-1.36,1.02-.47,1.62-.47c.44,0,.83.09,1.17.28s.62.42.83.72v-3.6h1.22v10.02h-1.14ZM257.47,274.82c0,.93.2,1.62.59,2.08s.85.69,1.39.69,1-.22,1.37-.66c.38-.44.56-1.11.56-2.01,0-.99-.19-1.72-.57-2.19s-.85-.7-1.42-.7-1,.22-1.37.67c-.37.45-.55,1.15-.55,2.11Z"/>
    <path class="cls-5" d="M170.27,295.24v-7.26h1.1v1.02c.23-.36.53-.64.91-.86s.81-.32,1.29-.32c.54,0,.98.11,1.32.33.34.22.59.54.73.94.57-.85,1.32-1.27,2.24-1.27.72,0,1.27.2,1.66.6s.58,1.01.58,1.84v4.98h-1.22v-4.57c0-.49-.04-.85-.12-1.06-.08-.22-.22-.39-.43-.52s-.46-.2-.74-.2c-.51,0-.93.17-1.27.51s-.51.88-.51,1.63v4.22h-1.23v-4.72c0-.55-.1-.96-.3-1.23s-.53-.41-.98-.41c-.35,0-.67.09-.96.27-.29.18-.51.45-.64.8s-.2.86-.2,1.52v3.77h-1.23Z"/>
    <path class="cls-5" d="M186.67,294.34c-.46.39-.89.66-1.32.82-.42.16-.87.24-1.36.24-.8,0-1.41-.19-1.84-.58s-.64-.89-.64-1.49c0-.36.08-.68.24-.97.16-.29.37-.53.64-.71.26-.18.56-.31.88-.4.24-.06.61-.13,1.09-.18.99-.12,1.72-.26,2.19-.42,0-.17,0-.28,0-.32,0-.5-.12-.85-.35-1.06-.31-.28-.78-.42-1.4-.42-.58,0-1.01.1-1.28.3-.28.2-.48.56-.61,1.08l-1.2-.16c.11-.52.29-.93.54-1.25s.61-.56,1.09-.73,1.02-.26,1.65-.26,1.12.07,1.51.22.67.33.85.55.31.5.38.84c.04.21.06.59.06,1.13v1.64c0,1.14.03,1.87.08,2.17.05.3.16.59.31.87h-1.29c-.13-.26-.21-.55-.25-.9ZM186.57,291.6c-.45.18-1.12.34-2.01.46-.51.07-.86.15-1.07.25s-.37.22-.49.4-.17.37-.17.58c0,.33.12.6.37.82.25.22.61.33,1.09.33s.9-.1,1.26-.31.64-.49.81-.85c.13-.28.2-.69.2-1.23v-.45Z"/>
    <path class="cls-5" d="M189.72,295.24v-7.26h1.11v1.03c.53-.8,1.3-1.2,2.31-1.2.44,0,.84.08,1.21.24.37.16.64.36.82.62s.31.56.38.91c.05.23.07.63.07,1.2v4.46h-1.23v-4.42c0-.5-.05-.88-.14-1.12s-.27-.45-.51-.59c-.24-.15-.53-.22-.86-.22-.52,0-.98.17-1.36.5-.38.33-.57.96-.57,1.89v3.96h-1.23Z"/>
    <path class="cls-5" d="M202.24,294.34c-.46.39-.89.66-1.32.82-.42.16-.87.24-1.36.24-.8,0-1.41-.19-1.84-.58s-.64-.89-.64-1.49c0-.36.08-.68.24-.97.16-.29.37-.53.64-.71.26-.18.56-.31.88-.4.24-.06.61-.13,1.09-.18.99-.12,1.72-.26,2.19-.42,0-.17,0-.28,0-.32,0-.5-.12-.85-.35-1.06-.31-.28-.78-.42-1.4-.42-.58,0-1.01.1-1.28.3-.28.2-.48.56-.61,1.08l-1.2-.16c.11-.52.29-.93.54-1.25s.61-.56,1.09-.73,1.02-.26,1.65-.26,1.12.07,1.51.22.67.33.85.55.31.5.38.84c.04.21.06.59.06,1.13v1.64c0,1.14.03,1.87.08,2.17.05.3.16.59.31.87h-1.29c-.13-.26-.21-.55-.25-.9ZM202.14,291.6c-.45.18-1.12.34-2.01.46-.51.07-.86.15-1.07.25s-.37.22-.49.4-.17.37-.17.58c0,.33.12.6.37.82.25.22.61.33,1.09.33s.9-.1,1.26-.31.64-.49.81-.85c.13-.28.2-.69.2-1.23v-.45Z"/>
    <path class="cls-5" d="M205.06,295.84l1.2.18c.05.37.19.64.42.81.31.23.72.34,1.25.34.57,0,1.01-.11,1.32-.34s.52-.55.63-.96c.06-.25.09-.78.09-1.58-.54.63-1.21.95-2.01.95-1,0-1.77-.36-2.32-1.08s-.82-1.58-.82-2.59c0-.69.13-1.33.38-1.92s.61-1.04,1.09-1.36c.48-.32,1.04-.48,1.68-.48.86,0,1.56.35,2.12,1.04v-.88h1.13v6.28c0,1.13-.12,1.93-.34,2.4-.23.47-.6.84-1.09,1.12-.5.27-1.11.41-1.84.41-.87,0-1.57-.19-2.1-.58s-.79-.98-.77-1.76ZM206.08,291.48c0,.95.19,1.65.57,2.08s.85.66,1.42.66,1.04-.22,1.42-.65.57-1.12.57-2.05-.2-1.56-.59-2.01c-.39-.45-.87-.68-1.43-.68s-1.01.22-1.39.67-.57,1.1-.57,1.98Z"/>
    <path class="cls-5" d="M218.04,292.9l1.27.16c-.2.74-.57,1.32-1.11,1.73s-1.24.62-2.08.62c-1.06,0-1.9-.33-2.53-.98-.62-.65-.93-1.57-.93-2.75s.31-2.17.94-2.84,1.44-1.01,2.45-1.01,1.76.33,2.38.99.92,1.59.92,2.79c0,.07,0,.18,0,.33h-5.41c.05.8.27,1.41.68,1.83s.91.64,1.52.64c.45,0,.84-.12,1.16-.36s.57-.62.76-1.13ZM214,290.91h4.05c-.05-.61-.21-1.07-.46-1.37-.39-.47-.9-.71-1.52-.71-.57,0-1.04.19-1.42.57-.39.38-.6.88-.64,1.52Z"/>
    <path class="cls-5" d="M220.86,295.24v-7.26h1.1v1.02c.23-.36.53-.64.91-.86s.81-.32,1.29-.32c.54,0,.98.11,1.32.33.34.22.59.54.73.94.57-.85,1.32-1.27,2.24-1.27.72,0,1.27.2,1.66.6s.58,1.01.58,1.84v4.98h-1.22v-4.57c0-.49-.04-.85-.12-1.06-.08-.22-.22-.39-.43-.52s-.46-.2-.74-.2c-.51,0-.93.17-1.27.51s-.51.88-.51,1.63v4.22h-1.23v-4.72c0-.55-.1-.96-.3-1.23s-.53-.41-.98-.41c-.35,0-.67.09-.96.27-.29.18-.51.45-.64.8s-.2.86-.2,1.52v3.77h-1.23Z"/>
    <path class="cls-5" d="M237.49,292.9l1.27.16c-.2.74-.57,1.32-1.11,1.73s-1.23.62-2.08.62c-1.06,0-1.9-.33-2.53-.98-.62-.65-.93-1.57-.93-2.75s.31-2.17.94-2.84,1.45-1.01,2.45-1.01,1.76.33,2.38.99.92,1.59.92,2.79c0,.07,0,.18,0,.33h-5.41c.04.8.27,1.41.68,1.83s.91.64,1.52.64c.45,0,.84-.12,1.16-.36s.57-.62.76-1.13ZM233.45,290.91h4.05c-.05-.61-.21-1.07-.46-1.37-.39-.47-.9-.71-1.52-.71-.56,0-1.04.19-1.43.57-.38.38-.6.88-.64,1.52Z"/>
    <path class="cls-5" d="M240.31,295.24v-7.26h1.11v1.03c.53-.8,1.3-1.2,2.31-1.2.44,0,.84.08,1.21.24.37.16.64.36.82.62s.31.56.38.91c.04.23.07.63.07,1.2v4.46h-1.23v-4.42c0-.5-.05-.88-.14-1.12s-.27-.45-.51-.59c-.24-.15-.53-.22-.86-.22-.52,0-.98.17-1.36.5-.38.33-.57.96-.57,1.89v3.96h-1.23Z"/>
    <path class="cls-5" d="M250.78,294.14l.18,1.09c-.35.07-.66.11-.93.11-.45,0-.79-.07-1.04-.21s-.42-.33-.52-.56-.15-.71-.15-1.45v-4.18h-.9v-.96h.9v-1.8l1.22-.74v2.54h1.24v.96h-1.24v4.25c0,.35.02.58.06.68.04.1.11.18.21.24.1.06.24.09.42.09.14,0,.32-.02.54-.05Z"/>
  </g>
  <text class="cls-2" transform="translate(169.29 198.36)"><tspan x="0" y="0">Resources</tspan></text>
  <text class="cls-3" transform="translate(149.95 346.59)"><tspan x="0" y="0">I</tspan><tspan class="cls-1" x="3.33" y="0">T</tspan><tspan x="10.45" y="0" xml:space="preserve"> as an enabler of DC</tspan></text>
</svg>