<?xml version="1.0" encoding="UTF-8"?>
<svg id="maturity" xmlns="http://www.w3.org/2000/svg" viewBox="0 0 988 525">
  <defs>
    <style>
      .cls-1, .cls-2, .cls-3, .cls-4, .cls-5 {
        stroke-miterlimit: 8;
      }

      .cls-1, .cls-2, .cls-3, .cls-4, .cls-5, .cls-6 {
        stroke: #000;
      }

      .cls-1, .cls-3, .cls-4, .cls-7 {
        fill: #fff;
      }

      .cls-8 {
        fill: #1d1d1b;
      }

      .cls-8, .cls-9, .cls-10 {
        font-family: Arial-BoldMT, Arial;
        font-weight: 700;
      }

      .cls-8, .cls-11 {
        font-size: 14px;
      }

      .cls-9, .cls-10 {
        fill: #0333ff;
      }

      .cls-2 {
        stroke-dasharray: 0 0 2 4;
      }

      .cls-2, .cls-5, .cls-6 {
        fill: none;
      }

      .cls-3 {
        stroke-width: 2px;
      }

      .cls-3, .cls-4, .cls-6 {
        stroke-linecap: round;
      }

      .cls-10 {
        font-size: 16px;
      }

      .cls-12, .cls-13, .cls-14, .cls-11 {
        fill: #000;
      }

      .cls-12, .cls-7 {
        stroke-width: 0px;
      }

      .cls-4, .cls-6 {
        stroke-width: .75px;
      }

      .cls-13 {
        font-size: 10px;
      }

      .cls-13, .cls-14, .cls-11 {
        font-family: ArialMT, Arial;
      }

      .cls-15 {
        font-size: 12px;
      }

      .cls-6 {
        stroke-linejoin: round;
      }

      .cls-16 {
        letter-spacing: .28em;
      }
    </style>
  </defs>
  <rect class="cls-7" x="593.26" y="175.58" width="136.78" height="81.91"/>
  <rect class="cls-3" x="593.26" y="175.58" width="136.78" height="81.91"/>
  <text class="cls-8" transform="translate(616.51 220.39)"><tspan x="0" y="0">Effectiveness</tspan></text>
  <rect class="cls-7" x="593.26" y="313.81" width="136.78" height="81.91"/>
  <rect class="cls-3" x="593.26" y="313.81" width="136.78" height="81.91"/>
  <text class="cls-8" transform="translate(628.58 358.62)"><tspan x="0" y="0">Efficiency</tspan></text>
  <text class="cls-10" transform="translate(202.3 66.36)"><tspan x="0" y="0">Effective use</tspan></text>
  <rect class="cls-1" x="180.54" y="105.11" width="140" height="80"/>
  <text transform="translate(202.29 140.49)"><tspan class="cls-11"><tspan x="0" y="0">Informe</tspan><tspan class="cls-16" x="47.46" y="0">d</tspan><tspan x="59.14" y="0">action</tspan></tspan><tspan class="cls-15"><tspan class="cls-14" x="-6.1" y="14.4">(</tspan><tspan class="cls-9" x="-2.1" y="14.4">user</tspan><tspan class="cls-14" x="23.24" y="14.4">, system, </tspan><tspan class="cls-9" x="74.58" y="14.4">task</tspan><tspan class="cls-14" x="98.6" y="14.4">)</tspan></tspan></text>
  <rect class="cls-1" x="180.54" y="248.74" width="140" height="80"/>
  <rect class="cls-4" x="180.54" y="392.36" width="140" height="80"/>
  <text transform="translate(212.8 419.8)"><tspan class="cls-11"><tspan x="0" y="0">Transparent</tspan></tspan><tspan class="cls-11"><tspan x="5.44" y="16.8">interaction</tspan></tspan><tspan class="cls-15"><tspan class="cls-14" x="-17.28" y="31.2">(</tspan><tspan class="cls-9" x="-13.29" y="31.2">user</tspan><tspan class="cls-14" x="12.06" y="31.2">, </tspan><tspan class="cls-9" x="18.73" y="31.2">system</tspan><tspan class="cls-14" x="60.09" y="31.2">, task)</tspan></tspan></text>
  <text class="cls-13" transform="translate(82.42 221.07)"><tspan x="0" y="0">Enables (via improved ability)</tspan></text>
  <text class="cls-13" transform="translate(72.97 364.3)"><tspan x="0" y="0">Enables (via improved process)</tspan></text>
  <polygon class="cls-5" points="240.97 200.54 246.31 200.54 246.31 248.74 256.99 248.74 256.99 200.54 262.34 200.54 251.65 185.25 240.97 200.54"/>
  <polygon class="cls-6" points="240.26 343.95 245.6 343.95 245.6 392.36 256.29 392.36 256.29 343.95 261.63 343.95 250.95 328.68 240.26 343.95"/>
  <text class="cls-10" transform="translate(608.53 66.36)"><tspan x="0" y="0">Performance</tspan></text>
  <text class="cls-13" transform="translate(333.86 129.19)"><tspan x="0" y="0">Improves (by reducing errors and/or increasing opportunities)</tspan></text>
  <text class="cls-13" transform="translate(671.12 129.19)"><tspan x="0" y="0">Improves (by reducing errorr recovery)</tspan></text>
  <text class="cls-13" transform="translate(333.86 452.03)"><tspan x="0" y="0">Improves (by reducing errors and/or increasing opportunities)</tspan></text>
  <text class="cls-13" transform="translate(670.15 452.03)"><tspan x="0" y="0">Improves (by increasing focus)</tspan></text>
  <g>
    <path class="cls-12" d="M441.24,207.64v-7.16h.95v7.16h-.95Z"/>
    <path class="cls-12" d="M443.75,207.64v-5.19h.79v.73c.16-.25.38-.46.65-.61s.58-.23.92-.23c.38,0,.7.08.95.24.25.16.42.38.52.67.41-.61.94-.91,1.6-.91.51,0,.91.14,1.19.43s.42.72.42,1.32v3.56h-.87v-3.27c0-.35-.03-.6-.08-.76-.06-.15-.16-.28-.31-.37s-.33-.14-.53-.14c-.36,0-.67.12-.91.36s-.36.63-.36,1.16v3.01h-.88v-3.37c0-.39-.07-.68-.21-.88s-.38-.29-.7-.29c-.25,0-.48.06-.69.2-.21.13-.36.32-.46.57s-.14.61-.14,1.08v2.69h-.88Z"/>
    <path class="cls-12" d="M452.08,209.63v-7.17h.8v.67c.19-.26.4-.46.64-.59s.53-.2.86-.2c.44,0,.83.11,1.17.34s.59.55.77.96.26.87.26,1.36c0,.53-.09,1.01-.29,1.43-.19.42-.47.75-.83.98-.36.23-.74.34-1.14.34-.29,0-.56-.06-.79-.19-.23-.12-.42-.28-.57-.47v2.52h-.88ZM452.87,205.08c0,.67.13,1.16.41,1.48s.6.48.98.48.72-.17,1-.5c.28-.33.42-.84.42-1.54s-.14-1.16-.41-1.48c-.27-.33-.6-.49-.97-.49s-.71.17-.99.52c-.29.35-.43.86-.43,1.53Z"/>
    <path class="cls-12" d="M457.63,207.64v-5.19h.79v.79c.2-.37.39-.61.56-.73.17-.12.36-.18.56-.18.3,0,.6.09.9.28l-.3.82c-.21-.13-.43-.19-.64-.19-.19,0-.36.06-.52.17s-.26.28-.33.48c-.1.31-.15.65-.15,1.03v2.71h-.88Z"/>
    <path class="cls-12" d="M460.64,205.05c0-.96.27-1.67.8-2.13.45-.38.99-.58,1.63-.58.71,0,1.3.23,1.75.7s.68,1.11.68,1.94c0,.67-.1,1.19-.3,1.57-.2.38-.49.68-.88.89-.38.21-.8.32-1.25.32-.73,0-1.31-.23-1.76-.7-.45-.47-.67-1.14-.67-2.01ZM461.55,205.05c0,.66.14,1.16.43,1.49s.65.5,1.09.5.8-.17,1.09-.5.43-.84.43-1.52c0-.64-.15-1.13-.44-1.46-.29-.33-.65-.5-1.09-.5s-.8.16-1.09.49-.43.83-.43,1.49Z"/>
    <path class="cls-12" d="M467.97,207.64l-1.97-5.19h.93l1.11,3.11c.12.34.23.68.33,1.04.08-.27.19-.6.33-.99l1.15-3.16h.9l-1.96,5.19h-.82Z"/>
    <path class="cls-12" d="M475.08,205.97l.91.11c-.14.53-.41.94-.8,1.24s-.88.44-1.48.44c-.76,0-1.36-.23-1.8-.7-.45-.47-.67-1.12-.67-1.97s.22-1.55.67-2.03,1.03-.72,1.75-.72,1.26.24,1.7.71.66,1.14.66,1.99c0,.05,0,.13,0,.23h-3.87c.03.57.19,1.01.48,1.31s.65.45,1.08.45c.32,0,.6-.08.83-.25s.41-.44.54-.81ZM472.2,204.55h2.9c-.04-.44-.15-.76-.33-.98-.28-.34-.64-.51-1.09-.51-.4,0-.74.14-1.02.41-.27.27-.43.63-.46,1.08Z"/>
    <path class="cls-12" d="M476.74,206.09l.87-.14c.05.35.18.62.41.8.22.19.54.28.94.28s.7-.08.9-.25.29-.36.29-.58c0-.2-.09-.35-.26-.47-.12-.08-.42-.18-.9-.3-.64-.16-1.09-.3-1.34-.42-.25-.12-.44-.28-.57-.49-.13-.21-.19-.44-.19-.7,0-.23.05-.45.16-.64.11-.2.25-.36.43-.49.14-.1.32-.19.56-.26.24-.07.49-.1.76-.1.41,0,.76.06,1.07.18.31.12.53.28.68.48s.25.47.3.8l-.86.12c-.04-.27-.15-.48-.34-.62-.19-.15-.45-.22-.79-.22-.4,0-.69.07-.86.2s-.26.29-.26.47c0,.11.04.22.11.31.07.09.18.17.34.23.09.03.35.11.78.22.62.17,1.06.3,1.3.41.25.11.44.26.58.46s.21.45.21.75-.08.57-.26.83c-.17.26-.42.46-.74.6s-.69.21-1.09.21c-.67,0-1.19-.14-1.54-.42-.35-.28-.58-.69-.68-1.25Z"/>
    <path class="cls-12" d="M486.55,209.75c-.49-.61-.9-1.33-1.23-2.15s-.5-1.67-.5-2.55c0-.77.12-1.52.38-2.23.29-.82.75-1.64,1.36-2.46h.63c-.39.68-.65,1.16-.78,1.45-.2.45-.35.92-.47,1.41-.14.61-.21,1.22-.21,1.84,0,1.57.49,3.13,1.46,4.69h-.63Z"/>
    <path class="cls-12" d="M489.01,207.64h-.82v-7.16h.88v2.55c.37-.47.84-.7,1.42-.7.32,0,.62.06.91.19.29.13.52.31.7.54.18.23.33.51.43.84s.16.68.16,1.05c0,.89-.22,1.58-.66,2.06s-.97.73-1.58.73-1.09-.26-1.44-.77v.65ZM489,205.01c0,.62.08,1.07.25,1.35.28.45.65.68,1.12.68.38,0,.72-.17,1-.5s.42-.83.42-1.49-.13-1.18-.4-1.5c-.27-.32-.59-.48-.97-.48s-.72.17-1,.5-.42.82-.42,1.45Z"/>
    <path class="cls-12" d="M493.72,209.64l-.1-.83c.19.05.36.08.5.08.2,0,.35-.03.47-.1s.21-.16.29-.27c.06-.09.14-.31.27-.65.02-.05.04-.12.08-.21l-1.97-5.2h.95l1.08,3c.14.38.27.78.38,1.2.1-.4.22-.8.36-1.18l1.11-3.02h.88l-1.97,5.27c-.21.57-.38.96-.49,1.18-.16.29-.33.5-.54.64s-.44.2-.72.2c-.17,0-.36-.04-.57-.11Z"/>
    <path class="cls-12" d="M415.39,213.5v-1.01h.88v1.01h-.88ZM415.39,219.64v-5.19h.88v5.19h-.88Z"/>
    <path class="cls-12" d="M417.61,219.64v-5.19h.79v.74c.38-.57.93-.85,1.65-.85.31,0,.6.06.86.17.26.11.46.26.59.44s.22.4.27.65c.03.16.05.45.05.85v3.19h-.88v-3.15c0-.36-.03-.63-.1-.8s-.19-.32-.36-.42c-.17-.11-.38-.16-.61-.16-.37,0-.7.12-.97.36-.27.24-.41.69-.41,1.35v2.83h-.88Z"/>
    <path class="cls-12" d="M426.55,217.74l.86.11c-.09.6-.34,1.06-.73,1.4-.39.34-.87.51-1.43.51-.71,0-1.28-.23-1.71-.7-.43-.46-.65-1.13-.65-1.99,0-.56.09-1.05.28-1.47s.47-.73.85-.94c.38-.21.79-.31,1.24-.31.56,0,1.02.14,1.38.43s.59.69.69,1.21l-.85.13c-.08-.35-.23-.61-.43-.79-.21-.18-.46-.26-.75-.26-.44,0-.8.16-1.08.48s-.42.82-.42,1.51.13,1.2.4,1.52.62.47,1.04.47c.34,0,.63-.11.86-.32s.38-.54.44-.98Z"/>
    <path class="cls-12" d="M428.16,219.64v-5.19h.79v.79c.2-.37.39-.61.56-.73.17-.12.36-.18.56-.18.3,0,.6.09.9.28l-.3.82c-.21-.13-.43-.19-.64-.19-.19,0-.36.06-.52.17s-.26.28-.33.48c-.1.31-.15.65-.15,1.03v2.71h-.88Z"/>
    <path class="cls-12" d="M435.05,217.97l.91.11c-.14.53-.41.94-.8,1.24s-.88.44-1.48.44c-.76,0-1.36-.23-1.8-.7-.45-.47-.67-1.12-.67-1.97s.22-1.55.67-2.03,1.03-.72,1.75-.72,1.26.24,1.7.71.66,1.14.66,1.99c0,.05,0,.13,0,.23h-3.87c.03.57.19,1.01.48,1.31s.65.45,1.08.45c.32,0,.6-.08.83-.25s.41-.44.54-.81ZM432.16,216.55h2.9c-.04-.44-.15-.76-.33-.98-.28-.34-.64-.51-1.09-.51-.4,0-.74.14-1.02.41-.27.27-.43.63-.46,1.08Z"/>
    <path class="cls-12" d="M440.44,219c-.33.28-.64.47-.94.59-.3.11-.62.17-.97.17-.57,0-1.01-.14-1.31-.42s-.46-.63-.46-1.07c0-.25.06-.49.17-.7.12-.21.27-.38.45-.51.19-.13.4-.22.63-.29.17-.05.43-.09.78-.13.71-.08,1.23-.19,1.57-.3,0-.12,0-.2,0-.23,0-.36-.08-.61-.25-.76-.22-.2-.56-.3-1-.3-.41,0-.72.07-.92.22-.2.15-.34.4-.44.77l-.86-.12c.08-.37.21-.67.39-.89s.44-.4.78-.52.73-.18,1.18-.18.8.05,1.08.16.48.24.61.39.22.36.27.6c.03.15.04.42.04.81v1.17c0,.82.02,1.33.06,1.55.04.22.11.42.22.62h-.92c-.09-.18-.15-.4-.18-.64ZM440.37,217.04c-.32.13-.8.24-1.44.33-.36.05-.62.11-.77.18s-.27.16-.35.29-.12.26-.12.42c0,.23.09.43.27.59.18.16.44.23.78.23s.64-.07.9-.22.46-.35.58-.61c.09-.2.14-.49.14-.88v-.32Z"/>
    <path class="cls-12" d="M442.27,218.09l.87-.14c.05.35.18.62.41.8.22.19.54.28.94.28s.7-.08.9-.25.29-.36.29-.58c0-.2-.09-.35-.26-.47-.12-.08-.42-.18-.9-.3-.64-.16-1.09-.3-1.34-.42-.25-.12-.44-.28-.57-.49-.13-.21-.19-.44-.19-.7,0-.23.05-.45.16-.64.11-.2.25-.36.43-.49.14-.1.32-.19.56-.26.24-.07.49-.1.76-.1.41,0,.76.06,1.07.18.31.12.53.28.68.48s.25.47.3.8l-.86.12c-.04-.27-.15-.48-.34-.62-.19-.15-.45-.22-.79-.22-.4,0-.69.07-.86.2s-.26.29-.26.47c0,.11.04.22.11.31.07.09.18.17.34.23.09.03.35.11.78.22.62.17,1.06.3,1.3.41.25.11.44.26.58.46s.21.45.21.75-.08.57-.26.83c-.17.26-.42.46-.74.6s-.69.21-1.09.21c-.67,0-1.19-.14-1.54-.42-.35-.28-.58-.69-.68-1.25Z"/>
    <path class="cls-12" d="M447.62,213.5v-1.01h.88v1.01h-.88ZM447.62,219.64v-5.19h.88v5.19h-.88Z"/>
    <path class="cls-12" d="M449.84,219.64v-5.19h.79v.74c.38-.57.93-.85,1.65-.85.31,0,.6.06.86.17.26.11.46.26.59.44s.22.4.27.65c.03.16.05.45.05.85v3.19h-.88v-3.15c0-.36-.03-.63-.1-.8s-.19-.32-.36-.42c-.17-.11-.38-.16-.61-.16-.37,0-.7.12-.97.36-.27.24-.41.69-.41,1.35v2.83h-.88Z"/>
    <path class="cls-12" d="M455.24,220.07l.85.13c.04.26.13.46.3.58.22.16.52.24.89.24.41,0,.72-.08.94-.24s.37-.39.45-.68c.05-.18.07-.56.06-1.13-.38.45-.86.68-1.44.68-.71,0-1.26-.26-1.66-.77s-.59-1.13-.59-1.85c0-.49.09-.95.27-1.37s.44-.74.78-.97c.34-.23.74-.34,1.2-.34.61,0,1.12.25,1.51.74v-.62h.81v4.48c0,.81-.08,1.38-.25,1.72-.17.34-.43.6-.78.8-.36.2-.8.29-1.32.29-.62,0-1.12-.14-1.5-.42s-.56-.7-.55-1.26ZM455.97,216.96c0,.68.13,1.18.41,1.49s.61.47,1.02.47.74-.16,1.02-.47.41-.8.41-1.46-.14-1.11-.42-1.44c-.28-.32-.62-.48-1.02-.48s-.72.16-1,.48-.41.79-.41,1.41Z"/>
    <path class="cls-12" d="M467.14,219.64v-.76c-.4.59-.95.88-1.65.88-.31,0-.59-.06-.86-.18-.26-.12-.46-.26-.59-.44-.13-.18-.22-.39-.27-.65-.04-.17-.05-.45-.05-.82v-3.21h.88v2.88c0,.46.02.77.05.93.06.23.17.41.35.54s.4.2.66.2.51-.07.74-.2.39-.32.49-.55c.1-.23.14-.57.14-1.01v-2.78h.88v5.19h-.79Z"/>
    <path class="cls-12" d="M469.3,219.64v-5.19h.79v.74c.38-.57.93-.85,1.65-.85.31,0,.6.06.86.17.26.11.46.26.59.44s.22.4.27.65c.03.16.05.45.05.85v3.19h-.88v-3.15c0-.36-.03-.63-.1-.8s-.19-.32-.36-.42c-.17-.11-.38-.16-.61-.16-.37,0-.7.12-.97.36-.27.24-.41.69-.41,1.35v2.83h-.88Z"/>
    <path class="cls-12" d="M478.23,219.64v-.65c-.33.51-.81.77-1.45.77-.41,0-.79-.11-1.14-.34-.35-.23-.62-.55-.81-.95-.19-.41-.29-.88-.29-1.41s.09-.99.26-1.41.43-.74.78-.97.73-.34,1.16-.34c.31,0,.59.07.83.2s.44.3.6.52v-2.57h.87v7.16h-.82ZM475.45,217.05c0,.66.14,1.16.42,1.49s.61.49.99.49.71-.16.98-.47c.27-.31.4-.79.4-1.44,0-.71-.14-1.23-.41-1.56s-.61-.5-1.01-.5-.72.16-.98.48c-.26.32-.39.82-.39,1.51Z"/>
    <path class="cls-12" d="M483.98,217.97l.91.11c-.14.53-.41.94-.8,1.24s-.88.44-1.48.44c-.76,0-1.36-.23-1.8-.7-.45-.47-.67-1.12-.67-1.97s.22-1.55.67-2.03,1.03-.72,1.75-.72,1.26.24,1.7.71.66,1.14.66,1.99c0,.05,0,.13,0,.23h-3.87c.03.57.19,1.01.48,1.31s.65.45,1.08.45c.32,0,.6-.08.83-.25s.41-.44.54-.81ZM481.09,216.55h2.9c-.04-.44-.15-.76-.33-.98-.28-.34-.64-.51-1.09-.51-.4,0-.74.14-1.02.41-.27.27-.43.63-.46,1.08Z"/>
    <path class="cls-12" d="M485.98,219.64v-5.19h.79v.79c.2-.37.39-.61.56-.73.17-.12.36-.18.56-.18.3,0,.6.09.9.28l-.3.82c-.21-.13-.43-.19-.64-.19-.19,0-.36.06-.52.17s-.26.28-.33.48c-.1.31-.15.65-.15,1.03v2.71h-.88Z"/>
    <path class="cls-12" d="M488.97,218.09l.87-.14c.05.35.18.62.41.8.22.19.54.28.94.28s.7-.08.9-.25.29-.36.29-.58c0-.2-.09-.35-.26-.47-.12-.08-.42-.18-.9-.3-.64-.16-1.09-.3-1.34-.42-.25-.12-.44-.28-.57-.49-.13-.21-.19-.44-.19-.7,0-.23.05-.45.16-.64.11-.2.25-.36.43-.49.14-.1.32-.19.56-.26.24-.07.49-.1.76-.1.41,0,.76.06,1.07.18.31.12.53.28.68.48s.25.47.3.8l-.86.12c-.04-.27-.15-.48-.34-.62-.19-.15-.45-.22-.79-.22-.4,0-.69.07-.86.2s-.26.29-.26.47c0,.11.04.22.11.31.07.09.18.17.34.23.09.03.35.11.78.22.62.17,1.06.3,1.3.41.25.11.44.26.58.46s.21.45.21.75-.08.57-.26.83c-.17.26-.42.46-.74.6s-.69.21-1.09.21c-.67,0-1.19-.14-1.54-.42-.35-.28-.58-.69-.68-1.25Z"/>
    <path class="cls-12" d="M496.24,218.86l.13.78c-.25.05-.47.08-.66.08-.32,0-.57-.05-.74-.15s-.3-.23-.37-.4-.11-.51-.11-1.04v-2.98h-.64v-.68h.64v-1.28l.87-.53v1.81h.88v.68h-.88v3.03c0,.25.02.41.05.48.03.07.08.13.15.17.07.04.17.06.3.06.1,0,.23-.01.39-.03Z"/>
    <path class="cls-12" d="M500.48,219c-.33.28-.64.47-.94.59-.3.11-.62.17-.97.17-.57,0-1.01-.14-1.31-.42s-.46-.63-.46-1.07c0-.25.06-.49.17-.7.12-.21.27-.38.45-.51.19-.13.4-.22.63-.29.17-.05.43-.09.78-.13.71-.08,1.23-.19,1.57-.3,0-.12,0-.2,0-.23,0-.36-.08-.61-.25-.76-.22-.2-.56-.3-1-.3-.41,0-.72.07-.92.22-.2.15-.34.4-.44.77l-.86-.12c.08-.37.21-.67.39-.89s.44-.4.78-.52.73-.18,1.18-.18.8.05,1.08.16.48.24.61.39.22.36.27.6c.03.15.04.42.04.81v1.17c0,.82.02,1.33.06,1.55.04.22.11.42.22.62h-.92c-.09-.18-.15-.4-.18-.64ZM500.41,217.04c-.32.13-.8.24-1.44.33-.36.05-.62.11-.77.18s-.27.16-.35.29-.12.26-.12.42c0,.23.09.43.27.59.18.16.44.23.78.23s.64-.07.9-.22.46-.35.58-.61c.09-.2.14-.49.14-.88v-.32Z"/>
    <path class="cls-12" d="M502.66,219.64v-5.19h.79v.74c.38-.57.93-.85,1.65-.85.31,0,.6.06.86.17.26.11.46.26.59.44s.22.4.27.65c.03.16.05.45.05.85v3.19h-.88v-3.15c0-.36-.03-.63-.1-.8s-.19-.32-.36-.42c-.17-.11-.38-.16-.61-.16-.37,0-.7.12-.97.36-.27.24-.41.69-.41,1.35v2.83h-.88Z"/>
    <path class="cls-12" d="M511.58,219.64v-.65c-.33.51-.81.77-1.45.77-.41,0-.79-.11-1.14-.34-.35-.23-.62-.55-.81-.95-.19-.41-.29-.88-.29-1.41s.09-.99.26-1.41.43-.74.78-.97.73-.34,1.16-.34c.31,0,.59.07.83.2s.44.3.6.52v-2.57h.87v7.16h-.82ZM508.81,217.05c0,.66.14,1.16.42,1.49s.61.49.99.49.71-.16.98-.47c.27-.31.4-.79.4-1.44,0-.71-.14-1.23-.41-1.56s-.61-.5-1.01-.5-.72.16-.98.48c-.26.32-.39.82-.39,1.51Z"/>
    <path class="cls-12" d="M513.79,213.5v-1.01h.88v1.01h-.88ZM513.79,219.64v-5.19h.88v5.19h-.88Z"/>
    <path class="cls-12" d="M516,219.64v-5.19h.79v.74c.38-.57.93-.85,1.65-.85.31,0,.6.06.86.17.26.11.46.26.59.44s.22.4.27.65c.03.16.05.45.05.85v3.19h-.88v-3.15c0-.36-.03-.63-.1-.8s-.19-.32-.36-.42c-.17-.11-.38-.16-.61-.16-.37,0-.7.12-.97.36-.27.24-.41.69-.41,1.35v2.83h-.88Z"/>
    <path class="cls-12" d="M521.4,220.07l.85.13c.04.26.13.46.3.58.22.16.52.24.89.24.41,0,.72-.08.94-.24s.37-.39.45-.68c.05-.18.07-.56.06-1.13-.38.45-.86.68-1.44.68-.71,0-1.26-.26-1.66-.77s-.59-1.13-.59-1.85c0-.49.09-.95.27-1.37s.44-.74.78-.97c.34-.23.74-.34,1.2-.34.61,0,1.12.25,1.51.74v-.62h.81v4.48c0,.81-.08,1.38-.25,1.72-.17.34-.43.6-.78.8-.36.2-.8.29-1.32.29-.62,0-1.12-.14-1.5-.42s-.56-.7-.55-1.26ZM522.13,216.96c0,.68.13,1.18.41,1.49s.61.47,1.02.47.74-.16,1.02-.47.41-.8.41-1.46-.14-1.11-.42-1.44c-.28-.32-.62-.48-1.02-.48s-.72.16-1,.48-.41.79-.41,1.41Z"/>
    <path class="cls-12" d="M442.96,231c-.33.28-.64.47-.94.59-.3.11-.62.17-.97.17-.57,0-1.01-.14-1.31-.42s-.46-.63-.46-1.07c0-.25.06-.49.17-.7.12-.21.27-.38.45-.51.19-.13.4-.22.63-.29.17-.05.43-.09.78-.13.71-.08,1.23-.19,1.57-.3,0-.12,0-.2,0-.23,0-.36-.08-.61-.25-.76-.22-.2-.56-.3-1-.3-.41,0-.72.07-.92.22-.2.15-.34.4-.44.77l-.86-.12c.08-.37.21-.67.39-.89s.44-.4.78-.52.73-.18,1.18-.18.8.05,1.08.16.48.24.61.39.22.36.27.6c.03.15.04.42.04.81v1.17c0,.82.02,1.33.06,1.55.04.22.11.42.22.62h-.92c-.09-.18-.15-.4-.18-.64ZM442.88,229.04c-.32.13-.8.24-1.44.33-.36.05-.62.11-.77.18s-.27.16-.35.29-.12.26-.12.42c0,.23.09.43.27.59.18.16.44.23.78.23s.64-.07.9-.22.46-.35.58-.61c.09-.2.14-.49.14-.88v-.32Z"/>
    <path class="cls-12" d="M445.13,231.64v-5.19h.79v.74c.38-.57.93-.85,1.65-.85.31,0,.6.06.86.17.26.11.46.26.59.44s.22.4.27.65c.03.16.05.45.05.85v3.19h-.88v-3.15c0-.36-.03-.63-.1-.8s-.19-.32-.36-.42c-.17-.11-.38-.16-.61-.16-.37,0-.7.12-.97.36-.27.24-.41.69-.41,1.35v2.83h-.88Z"/>
    <path class="cls-12" d="M454.06,231.64v-.65c-.33.51-.81.77-1.45.77-.41,0-.79-.11-1.14-.34-.35-.23-.62-.55-.81-.95-.19-.41-.29-.88-.29-1.41s.09-.99.26-1.41.43-.74.78-.97.73-.34,1.16-.34c.31,0,.59.07.83.2s.44.3.6.52v-2.57h.87v7.16h-.82ZM451.28,229.05c0,.66.14,1.16.42,1.49s.61.49.99.49.71-.16.98-.47c.27-.31.4-.79.4-1.44,0-.71-.14-1.23-.41-1.56s-.61-.5-1.01-.5-.72.16-.98.48c-.26.32-.39.82-.39,1.51Z"/>
    <path class="cls-12" d="M462.42,229.74l.86.11c-.09.6-.34,1.06-.73,1.4-.39.34-.87.51-1.43.51-.71,0-1.28-.23-1.71-.7-.43-.46-.65-1.13-.65-1.99,0-.56.09-1.05.28-1.47s.47-.73.85-.94c.38-.21.79-.31,1.24-.31.56,0,1.02.14,1.38.43s.59.69.69,1.21l-.85.13c-.08-.35-.23-.61-.43-.79-.21-.18-.46-.26-.75-.26-.44,0-.8.16-1.08.48s-.42.82-.42,1.51.13,1.2.4,1.52.62.47,1.04.47c.34,0,.63-.11.86-.32s.38-.54.44-.98Z"/>
    <path class="cls-12" d="M467.59,229.97l.91.11c-.14.53-.41.94-.8,1.24s-.88.44-1.48.44c-.76,0-1.36-.23-1.8-.7-.45-.47-.67-1.12-.67-1.97s.22-1.55.67-2.03,1.03-.72,1.75-.72,1.26.24,1.7.71.66,1.14.66,1.99c0,.05,0,.13,0,.23h-3.87c.03.57.19,1.01.48,1.31s.65.45,1.08.45c.32,0,.6-.08.83-.25s.41-.44.54-.81ZM464.7,228.55h2.9c-.04-.44-.15-.76-.33-.98-.28-.34-.64-.51-1.09-.51-.4,0-.74.14-1.02.41-.27.27-.43.63-.46,1.08Z"/>
    <path class="cls-12" d="M469.59,231.64v-5.19h.79v.79c.2-.37.39-.61.56-.73.17-.12.36-.18.56-.18.3,0,.6.09.9.28l-.3.82c-.21-.13-.43-.19-.64-.19-.19,0-.36.06-.52.17s-.26.28-.33.48c-.1.31-.15.65-.15,1.03v2.71h-.88Z"/>
    <path class="cls-12" d="M474.85,230.86l.13.78c-.25.05-.47.08-.66.08-.32,0-.57-.05-.74-.15s-.3-.23-.37-.4-.11-.51-.11-1.04v-2.98h-.64v-.68h.64v-1.28l.87-.53v1.81h.88v.68h-.88v3.03c0,.25.02.41.05.48.03.07.08.13.15.17.07.04.17.06.3.06.1,0,.23-.01.39-.03Z"/>
    <path class="cls-12" d="M479.09,231c-.33.28-.64.47-.94.59-.3.11-.62.17-.97.17-.57,0-1.01-.14-1.31-.42s-.46-.63-.46-1.07c0-.25.06-.49.17-.7.12-.21.27-.38.45-.51.19-.13.4-.22.63-.29.17-.05.43-.09.78-.13.71-.08,1.23-.19,1.57-.3,0-.12,0-.2,0-.23,0-.36-.08-.61-.25-.76-.22-.2-.56-.3-1-.3-.41,0-.72.07-.92.22-.2.15-.34.4-.44.77l-.86-.12c.08-.37.21-.67.39-.89s.44-.4.78-.52.73-.18,1.18-.18.8.05,1.08.16.48.24.61.39.22.36.27.6c.03.15.04.42.04.81v1.17c0,.82.02,1.33.06,1.55.04.22.11.42.22.62h-.92c-.09-.18-.15-.4-.18-.64ZM479.02,229.04c-.32.13-.8.24-1.44.33-.36.05-.62.11-.77.18s-.27.16-.35.29-.12.26-.12.42c0,.23.09.43.27.59.18.16.44.23.78.23s.64-.07.9-.22.46-.35.58-.61c.09-.2.14-.49.14-.88v-.32Z"/>
    <path class="cls-12" d="M481.27,225.5v-1.01h.88v1.01h-.88ZM481.27,231.64v-5.19h.88v5.19h-.88Z"/>
    <path class="cls-12" d="M483.49,231.64v-5.19h.79v.74c.38-.57.93-.85,1.65-.85.31,0,.6.06.86.17.26.11.46.26.59.44s.22.4.27.65c.03.16.05.45.05.85v3.19h-.88v-3.15c0-.36-.03-.63-.1-.8s-.19-.32-.36-.42c-.17-.11-.38-.16-.61-.16-.37,0-.7.12-.97.36-.27.24-.41.69-.41,1.35v2.83h-.88Z"/>
    <path class="cls-12" d="M490.97,230.86l.13.78c-.25.05-.47.08-.66.08-.32,0-.57-.05-.74-.15s-.3-.23-.37-.4-.11-.51-.11-1.04v-2.98h-.64v-.68h.64v-1.28l.87-.53v1.81h.88v.68h-.88v3.03c0,.25.02.41.05.48.03.07.08.13.15.17.07.04.17.06.3.06.1,0,.23-.01.39-.03Z"/>
    <path class="cls-12" d="M491.79,233.64l-.1-.83c.19.05.36.08.5.08.2,0,.35-.03.47-.1s.21-.16.29-.27c.06-.09.14-.31.27-.65.02-.05.04-.12.08-.21l-1.97-5.2h.95l1.08,3c.14.38.27.78.38,1.2.1-.4.22-.8.36-1.18l1.11-3.02h.88l-1.97,5.27c-.21.57-.38.96-.49,1.18-.16.29-.33.5-.54.64s-.44.2-.72.2c-.17,0-.36-.04-.57-.11Z"/>
    <path class="cls-12" d="M497.41,233.75h-.63c.97-1.56,1.46-3.13,1.46-4.69,0-.61-.07-1.22-.21-1.82-.11-.49-.27-.96-.46-1.41-.13-.29-.39-.78-.79-1.46h.63c.61.82,1.06,1.64,1.36,2.46.25.71.38,1.45.38,2.23,0,.88-.17,1.73-.51,2.55-.34.82-.75,1.54-1.23,2.15Z"/>
  </g>
  <g>
    <path class="cls-12" d="M439.85,353.23v-7.16h.95v7.16h-.95Z"/>
    <path class="cls-12" d="M442.36,353.23v-5.19h.79v.73c.16-.25.38-.46.65-.61s.58-.23.92-.23c.38,0,.7.08.95.24.25.16.42.38.52.67.41-.61.94-.91,1.6-.91.51,0,.91.14,1.19.43s.42.72.42,1.32v3.56h-.87v-3.27c0-.35-.03-.6-.08-.76-.06-.15-.16-.28-.31-.37s-.33-.14-.53-.14c-.36,0-.67.12-.91.36s-.36.63-.36,1.16v3.01h-.88v-3.37c0-.39-.07-.68-.21-.88s-.38-.29-.7-.29c-.25,0-.48.06-.69.2-.21.13-.36.32-.46.57s-.14.61-.14,1.08v2.69h-.88Z"/>
    <path class="cls-12" d="M450.69,355.22v-7.17h.8v.67c.19-.26.4-.46.64-.59s.53-.2.86-.2c.44,0,.83.11,1.17.34s.59.55.77.96.26.87.26,1.36c0,.53-.09,1.01-.29,1.43-.19.42-.47.75-.83.98-.36.23-.74.34-1.14.34-.29,0-.56-.06-.79-.19-.23-.12-.42-.28-.57-.47v2.52h-.88ZM451.49,350.67c0,.67.13,1.16.41,1.48s.6.48.98.48.72-.17,1-.5c.28-.33.42-.84.42-1.54s-.14-1.16-.41-1.48c-.27-.33-.6-.49-.97-.49s-.71.17-.99.52c-.29.35-.43.86-.43,1.53Z"/>
    <path class="cls-12" d="M456.24,353.23v-5.19h.79v.79c.2-.37.39-.61.56-.73.17-.12.36-.18.56-.18.3,0,.6.09.9.28l-.3.82c-.21-.13-.43-.19-.64-.19-.19,0-.36.06-.52.17s-.26.28-.33.48c-.1.31-.15.65-.15,1.03v2.71h-.88Z"/>
    <path class="cls-12" d="M459.25,350.64c0-.96.27-1.67.8-2.13.45-.38.99-.58,1.63-.58.71,0,1.3.23,1.75.7s.68,1.11.68,1.94c0,.67-.1,1.19-.3,1.57-.2.38-.49.68-.88.89-.38.21-.8.32-1.25.32-.73,0-1.31-.23-1.76-.7-.45-.47-.67-1.14-.67-2.01ZM460.16,350.64c0,.66.14,1.16.43,1.49s.65.5,1.09.5.8-.17,1.09-.5.43-.84.43-1.52c0-.64-.15-1.13-.44-1.46-.29-.33-.65-.5-1.09-.5s-.8.16-1.09.49-.43.83-.43,1.49Z"/>
    <path class="cls-12" d="M466.58,353.23l-1.97-5.19h.93l1.11,3.11c.12.34.23.68.33,1.04.08-.27.19-.6.33-.99l1.15-3.16h.9l-1.96,5.19h-.82Z"/>
    <path class="cls-12" d="M473.69,351.56l.91.11c-.14.53-.41.94-.8,1.24s-.88.44-1.48.44c-.76,0-1.36-.23-1.8-.7-.45-.47-.67-1.12-.67-1.97s.22-1.55.67-2.03,1.03-.72,1.75-.72,1.26.24,1.7.71.66,1.14.66,1.99c0,.05,0,.13,0,.23h-3.87c.03.57.19,1.01.48,1.31s.65.45,1.08.45c.32,0,.6-.08.83-.25s.41-.44.54-.81ZM470.81,350.14h2.9c-.04-.44-.15-.76-.33-.98-.28-.34-.64-.51-1.09-.51-.4,0-.74.14-1.02.41-.27.27-.43.63-.46,1.08Z"/>
    <path class="cls-12" d="M475.35,351.68l.87-.14c.05.35.18.62.41.8.22.19.54.28.94.28s.7-.08.9-.25.29-.36.29-.58c0-.2-.09-.35-.26-.47-.12-.08-.42-.18-.9-.3-.64-.16-1.09-.3-1.34-.42-.25-.12-.44-.28-.57-.49-.13-.21-.19-.44-.19-.7,0-.23.05-.45.16-.64.11-.2.25-.36.43-.49.14-.1.32-.19.56-.26.24-.07.49-.1.76-.1.41,0,.76.06,1.07.18.31.12.53.28.68.48s.25.47.3.8l-.86.12c-.04-.27-.15-.48-.34-.62-.19-.15-.45-.22-.79-.22-.4,0-.69.07-.86.2s-.26.29-.26.47c0,.11.04.22.11.31.07.09.18.17.34.23.09.03.35.11.78.22.62.17,1.06.3,1.3.41.25.11.44.26.58.46s.21.45.21.75-.08.57-.26.83c-.17.26-.42.46-.74.6s-.69.21-1.09.21c-.67,0-1.19-.14-1.54-.42-.35-.28-.58-.69-.68-1.25Z"/>
    <path class="cls-12" d="M485.16,355.33c-.49-.61-.9-1.33-1.23-2.15s-.5-1.67-.5-2.55c0-.77.12-1.52.38-2.23.29-.82.75-1.64,1.36-2.46h.63c-.39.68-.65,1.16-.78,1.45-.2.45-.35.92-.47,1.41-.14.61-.21,1.22-.21,1.84,0,1.57.49,3.13,1.46,4.69h-.63Z"/>
    <path class="cls-12" d="M487.62,353.23h-.82v-7.16h.88v2.55c.37-.47.84-.7,1.42-.7.32,0,.62.06.91.19.29.13.52.31.7.54.18.23.33.51.43.84s.16.68.16,1.05c0,.89-.22,1.58-.66,2.06s-.97.73-1.58.73-1.09-.26-1.44-.77v.65ZM487.61,350.6c0,.62.08,1.07.25,1.35.28.45.65.68,1.12.68.38,0,.72-.17,1-.5s.42-.83.42-1.49-.13-1.18-.4-1.5c-.27-.32-.59-.48-.97-.48s-.72.17-1,.5-.42.82-.42,1.45Z"/>
    <path class="cls-12" d="M492.33,355.23l-.1-.83c.19.05.36.08.5.08.2,0,.35-.03.47-.1s.21-.16.29-.27c.06-.09.14-.31.27-.65.02-.05.04-.12.08-.21l-1.97-5.2h.95l1.08,3c.14.38.27.78.38,1.2.1-.4.22-.8.36-1.18l1.11-3.02h.88l-1.97,5.27c-.21.57-.38.96-.49,1.18-.16.29-.33.5-.54.64s-.44.2-.72.2c-.17,0-.36-.04-.57-.11Z"/>
    <path class="cls-12" d="M423.44,365.23v-5.19h.79v.79c.2-.37.39-.61.56-.73.17-.12.36-.18.56-.18.3,0,.6.09.9.28l-.3.82c-.21-.13-.43-.19-.64-.19-.19,0-.36.06-.52.17s-.26.28-.33.48c-.1.31-.15.65-.15,1.03v2.71h-.88Z"/>
    <path class="cls-12" d="M430.33,363.56l.91.11c-.14.53-.41.94-.8,1.24s-.88.44-1.48.44c-.76,0-1.36-.23-1.8-.7-.45-.47-.67-1.12-.67-1.97s.22-1.55.67-2.03,1.03-.72,1.75-.72,1.26.24,1.7.71.66,1.14.66,1.99c0,.05,0,.13,0,.23h-3.87c.03.57.19,1.01.48,1.31s.65.45,1.08.45c.32,0,.6-.08.83-.25s.41-.44.54-.81ZM427.45,362.14h2.9c-.04-.44-.15-.76-.33-.98-.28-.34-.64-.51-1.09-.51-.4,0-.74.14-1.02.41-.27.27-.43.63-.46,1.08Z"/>
    <path class="cls-12" d="M435.71,365.23v-.65c-.33.51-.81.77-1.45.77-.41,0-.79-.11-1.14-.34-.35-.23-.62-.55-.81-.95-.19-.41-.29-.88-.29-1.41s.09-.99.26-1.41.43-.74.78-.97.73-.34,1.16-.34c.31,0,.59.07.83.2s.44.3.6.52v-2.57h.87v7.16h-.82ZM432.93,362.64c0,.66.14,1.16.42,1.49s.61.49.99.49.71-.16.98-.47c.27-.31.4-.79.4-1.44,0-.71-.14-1.23-.41-1.56s-.61-.5-1.01-.5-.72.16-.98.48c-.26.32-.39.82-.39,1.51Z"/>
    <path class="cls-12" d="M441.3,365.23v-.76c-.4.59-.95.88-1.65.88-.31,0-.59-.06-.86-.18-.26-.12-.46-.26-.59-.44-.13-.18-.22-.39-.27-.65-.04-.17-.05-.45-.05-.82v-3.21h.88v2.88c0,.46.02.77.05.93.06.23.17.41.35.54s.4.2.66.2.51-.07.74-.2.39-.32.49-.55c.1-.23.14-.57.14-1.01v-2.78h.88v5.19h-.79Z"/>
    <path class="cls-12" d="M446.85,363.33l.86.11c-.09.6-.34,1.06-.73,1.4-.39.34-.87.51-1.43.51-.71,0-1.28-.23-1.71-.7-.43-.46-.65-1.13-.65-1.99,0-.56.09-1.05.28-1.47s.47-.73.85-.94c.38-.21.79-.31,1.24-.31.56,0,1.02.14,1.38.43s.59.69.69,1.21l-.85.13c-.08-.35-.23-.61-.43-.79-.21-.18-.46-.26-.75-.26-.44,0-.8.16-1.08.48s-.42.82-.42,1.51.13,1.2.4,1.52.62.47,1.04.47c.34,0,.63-.11.86-.32s.38-.54.44-.98Z"/>
    <path class="cls-12" d="M448.47,359.08v-1.01h.88v1.01h-.88ZM448.47,365.23v-5.19h.88v5.19h-.88Z"/>
    <path class="cls-12" d="M450.69,365.23v-5.19h.79v.74c.38-.57.93-.85,1.65-.85.31,0,.6.06.86.17.26.11.46.26.59.44s.22.4.27.65c.03.16.05.45.05.85v3.19h-.88v-3.15c0-.36-.03-.63-.1-.8s-.19-.32-.36-.42c-.17-.11-.38-.16-.61-.16-.37,0-.7.12-.97.36-.27.24-.41.69-.41,1.35v2.83h-.88Z"/>
    <path class="cls-12" d="M456.09,365.66l.85.13c.04.26.13.46.3.58.22.16.52.24.89.24.41,0,.72-.08.94-.24s.37-.39.45-.68c.05-.18.07-.56.06-1.13-.38.45-.86.68-1.44.68-.71,0-1.26-.26-1.66-.77s-.59-1.13-.59-1.85c0-.49.09-.95.27-1.37s.44-.74.78-.97c.34-.23.74-.34,1.2-.34.61,0,1.12.25,1.51.74v-.62h.81v4.48c0,.81-.08,1.38-.25,1.72-.17.34-.43.6-.78.8-.36.2-.8.29-1.32.29-.62,0-1.12-.14-1.5-.42s-.56-.7-.55-1.26ZM456.82,362.54c0,.68.13,1.18.41,1.49s.61.47,1.02.47.74-.16,1.02-.47.41-.8.41-1.46-.14-1.11-.42-1.44c-.28-.32-.62-.48-1.02-.48s-.72.16-1,.48-.41.79-.41,1.41Z"/>
    <path class="cls-12" d="M464.58,365.23v-5.19h.79v.79c.2-.37.39-.61.56-.73.17-.12.36-.18.56-.18.3,0,.6.09.9.28l-.3.82c-.21-.13-.43-.19-.64-.19-.19,0-.36.06-.52.17s-.26.28-.33.48c-.1.31-.15.65-.15,1.03v2.71h-.88Z"/>
    <path class="cls-12" d="M471.47,363.56l.91.11c-.14.53-.41.94-.8,1.24s-.88.44-1.48.44c-.76,0-1.36-.23-1.8-.7-.45-.47-.67-1.12-.67-1.97s.22-1.55.67-2.03,1.03-.72,1.75-.72,1.26.24,1.7.71.66,1.14.66,1.99c0,.05,0,.13,0,.23h-3.87c.03.57.19,1.01.48,1.31s.65.45,1.08.45c.32,0,.6-.08.83-.25s.41-.44.54-.81ZM468.58,362.14h2.9c-.04-.44-.15-.76-.33-.98-.28-.34-.64-.51-1.09-.51-.4,0-.74.14-1.02.41-.27.27-.43.63-.46,1.08Z"/>
    <path class="cls-12" d="M476.87,363.33l.86.11c-.09.6-.34,1.06-.73,1.4-.39.34-.87.51-1.43.51-.71,0-1.28-.23-1.71-.7-.43-.46-.65-1.13-.65-1.99,0-.56.09-1.05.28-1.47s.47-.73.85-.94c.38-.21.79-.31,1.24-.31.56,0,1.02.14,1.38.43s.59.69.69,1.21l-.85.13c-.08-.35-.23-.61-.43-.79-.21-.18-.46-.26-.75-.26-.44,0-.8.16-1.08.48s-.42.82-.42,1.51.13,1.2.4,1.52.62.47,1.04.47c.34,0,.63-.11.86-.32s.38-.54.44-.98Z"/>
    <path class="cls-12" d="M478.48,365.23v-7.16h.88v2.57c.41-.48.93-.71,1.55-.71.38,0,.72.08,1,.23s.49.36.61.63c.12.27.18.65.18,1.16v3.29h-.88v-3.29c0-.44-.1-.76-.29-.96-.19-.2-.46-.3-.81-.3-.26,0-.51.07-.73.2-.23.14-.39.32-.49.55s-.15.55-.15.96v2.84h-.88Z"/>
    <path class="cls-12" d="M487.59,363.56l.91.11c-.14.53-.41.94-.8,1.24s-.88.44-1.48.44c-.76,0-1.36-.23-1.8-.7-.45-.47-.67-1.12-.67-1.97s.22-1.55.67-2.03,1.03-.72,1.75-.72,1.26.24,1.7.71.66,1.14.66,1.99c0,.05,0,.13,0,.23h-3.87c.03.57.19,1.01.48,1.31s.65.45,1.08.45c.32,0,.6-.08.83-.25s.41-.44.54-.81ZM484.71,362.14h2.9c-.04-.44-.15-.76-.33-.98-.28-.34-.64-.51-1.09-.51-.4,0-.74.14-1.02.41-.27.27-.43.63-.46,1.08Z"/>
    <path class="cls-12" d="M492.99,363.33l.86.11c-.09.6-.34,1.06-.73,1.4-.39.34-.87.51-1.43.51-.71,0-1.28-.23-1.71-.7-.43-.46-.65-1.13-.65-1.99,0-.56.09-1.05.28-1.47s.47-.73.85-.94c.38-.21.79-.31,1.24-.31.56,0,1.02.14,1.38.43s.59.69.69,1.21l-.85.13c-.08-.35-.23-.61-.43-.79-.21-.18-.46-.26-.75-.26-.44,0-.8.16-1.08.48s-.42.82-.42,1.51.13,1.2.4,1.52.62.47,1.04.47c.34,0,.63-.11.86-.32s.38-.54.44-.98Z"/>
    <path class="cls-12" d="M494.61,365.23v-7.16h.88v4.08l2.08-2.11h1.14l-1.98,1.92,2.18,3.26h-1.08l-1.71-2.65-.62.6v2.06h-.88Z"/>
    <path class="cls-12" d="M499.61,359.08v-1.01h.88v1.01h-.88ZM499.61,365.23v-5.19h.88v5.19h-.88Z"/>
    <path class="cls-12" d="M501.83,365.23v-5.19h.79v.74c.38-.57.93-.85,1.65-.85.31,0,.6.06.86.17.26.11.46.26.59.44s.22.4.27.65c.03.16.05.45.05.85v3.19h-.88v-3.15c0-.36-.03-.63-.1-.8s-.19-.32-.36-.42c-.17-.11-.38-.16-.61-.16-.37,0-.7.12-.97.36-.27.24-.41.69-.41,1.35v2.83h-.88Z"/>
    <path class="cls-12" d="M507.23,365.66l.85.13c.04.26.13.46.3.58.22.16.52.24.89.24.41,0,.72-.08.94-.24s.37-.39.45-.68c.05-.18.07-.56.06-1.13-.38.45-.86.68-1.44.68-.71,0-1.26-.26-1.66-.77s-.59-1.13-.59-1.85c0-.49.09-.95.27-1.37s.44-.74.78-.97c.34-.23.74-.34,1.2-.34.61,0,1.12.25,1.51.74v-.62h.81v4.48c0,.81-.08,1.38-.25,1.72-.17.34-.43.6-.78.8-.36.2-.8.29-1.32.29-.62,0-1.12-.14-1.5-.42s-.56-.7-.55-1.26ZM507.95,362.54c0,.68.13,1.18.41,1.49s.61.47,1.02.47.74-.16,1.02-.47.41-.8.41-1.46-.14-1.11-.42-1.44c-.28-.32-.62-.48-1.02-.48s-.72.16-1,.48-.41.79-.41,1.41Z"/>
    <path class="cls-12" d="M513.53,367.33h-.63c.97-1.56,1.46-3.13,1.46-4.69,0-.61-.07-1.22-.21-1.82-.11-.49-.27-.96-.46-1.41-.13-.29-.39-.78-.79-1.46h.63c.61.82,1.06,1.64,1.36,2.46.25.71.38,1.45.38,2.23,0,.88-.17,1.73-.51,2.55-.34.82-.75,1.54-1.23,2.15Z"/>
  </g>
  <text transform="translate(197.62 276.42)"><tspan class="cls-11"><tspan x="0" y="0">Representational</tspan></tspan><tspan class="cls-11"><tspan x="33.08" y="16.8">fidelity</tspan></tspan><tspan class="cls-15"><tspan class="cls-14" x="-3.1" y="31.2">(</tspan><tspan class="cls-9" x=".89" y="31.2">user</tspan><tspan class="cls-14" x="26.24" y="31.2">, </tspan><tspan class="cls-9" x="32.91" y="31.2">system</tspan><tspan class="cls-14" x="74.27" y="31.2">, </tspan><tspan class="cls-9" x="80.94" y="31.2">task</tspan><tspan class="cls-14" x="104.96" y="31.2">)</tspan></tspan></text>
  <g>
    <polyline class="cls-5" points="320.54 145.11 657.44 145.11 657.44 168.41"/>
    <polygon class="cls-12" points="652.45 166.95 657.44 175.58 662.43 166.95 652.45 166.95"/>
  </g>
  <g>
    <line class="cls-12" x1="320.54" y1="288.17" x2="593.41" y2="216.01"/>
    <g>
      <line class="cls-5" x1="320.54" y1="288.17" x2="586.47" y2="217.84"/>
      <polygon class="cls-12" points="586.34 223.03 593.41 216.01 583.79 213.39 586.34 223.03"/>
    </g>
  </g>
  <g>
    <line class="cls-2" x1="320.54" y1="288.71" x2="586.47" y2="359.04"/>
    <polygon class="cls-12" points="583.79 363.49 593.41 360.88 586.34 353.85 583.79 363.49"/>
  </g>
  <g>
    <polyline class="cls-5" points="320.54 432.36 657.44 432.36 657.44 402.9"/>
    <polygon class="cls-12" points="662.43 404.36 657.44 395.72 652.45 404.36 662.43 404.36"/>
  </g>
  <g>
    <polyline class="cls-2" points="657.44 432.36 819.02 432.36 819.02 216.01 737.21 216.01"/>
    <polygon class="cls-12" points="738.67 211.02 730.04 216.01 738.67 220.99 738.67 211.02"/>
  </g>
  <g>
    <polyline class="cls-2" points="657.44 144.76 851.13 144.76 851.13 361.12 737.21 361.12"/>
    <polygon class="cls-12" points="738.67 356.14 730.04 361.12 738.67 366.11 738.67 356.14"/>
  </g>
</svg>