<?xml version="1.0" encoding="UTF-8"?><svg id="Ebene_1" xmlns="http://www.w3.org/2000/svg" viewBox="0 0 988 525"><g><g><polyline points="294 74.57 319 74.57 319 107.82" style="fill:none; stroke:#0333ff;"/><polygon points="314.01 106.37 319 115 323.99 106.37 314.01 106.37" style="fill:#0333ff;"/></g><g><polyline points="419 149.78 444 149.78 444 183.04" style="fill:none; stroke:#0333ff;"/><polygon points="439.01 181.58 444 190.22 448.99 181.58 439.01 181.58" style="fill:#0333ff;"/></g><g><polyline points="544 224.78 569 224.78 569 258.04" style="fill:none; stroke:#0333ff;"/><polygon points="564.01 256.58 569 265.22 573.99 256.58 564.01 256.58" style="fill:#0333ff;"/></g><g><polyline points="669 299.16 694 299.16 694 332.42" style="fill:none; stroke:#0333ff;"/><polygon points="689.01 330.96 694 339.6 698.99 330.96 689.01 330.96" style="fill:#0333ff;"/></g><g><polyline points="794 374.78 819 374.78 819 408.04" style="fill:none; stroke:#0333ff;"/><polygon points="814.01 406.58 819 415.22 823.99 406.58 814.01 406.58" style="fill:#0333ff;"/></g></g><text transform="translate(97.67 299.16)" style="font-family:ArialMT, Arial; font-size:12.8px;"><tspan x="0" y="0">Umsetzung in Hard- und Software inkl. technischer</tspan><tspan x="288.13" y="0" style="letter-spacing:-.02em;"> </tspan><tspan x="291.46" y="0" style="letter-spacing:-.11em;">T</tspan><tspan x="297.86" y="0" style="letter-spacing:0em;">ests</tspan><tspan x="94.38" y="15.36">Ergebnis: testbare </tspan><tspan x="201.81" y="15.36" style="letter-spacing:-.06em;">V</tspan><tspan x="209.64" y="15.36">ersion des Systems</tspan></text><g><path d="M238.56,374.78v-9.16h6.62v1.08h-5.41v2.81h5.07v1.08h-5.07v3.12h5.62v1.08h-6.84Z"/><path d="M248.77,374.78l-2.53-6.64h1.19l1.43,3.98c.15,.43,.29,.88,.43,1.34,.1-.35,.24-.77,.42-1.26l1.47-4.05h1.16l-2.51,6.64h-1.05Z"/><path d="M257.66,373.96c-.42,.35-.82,.6-1.2,.75-.39,.15-.8,.22-1.24,.22-.73,0-1.29-.18-1.68-.54-.39-.36-.59-.81-.59-1.37,0-.33,.07-.62,.22-.89,.15-.27,.34-.48,.58-.65,.24-.16,.51-.29,.81-.37,.22-.06,.55-.11,1-.17,.91-.11,1.58-.24,2.01-.39,0-.15,0-.25,0-.29,0-.46-.11-.78-.32-.97-.29-.25-.71-.38-1.28-.38-.53,0-.92,.09-1.17,.28s-.44,.51-.56,.98l-1.1-.15c.1-.47,.27-.85,.49-1.14,.23-.29,.56-.51,.99-.67s.94-.23,1.51-.23,1.03,.07,1.38,.2c.36,.13,.62,.3,.78,.5,.17,.2,.28,.46,.35,.77,.04,.19,.06,.54,.06,1.04v1.5c0,1.05,.02,1.71,.07,1.98s.14,.54,.29,.8h-1.18c-.12-.23-.19-.51-.22-.82Zm-.09-2.51c-.41,.17-1.02,.31-1.84,.42-.46,.07-.79,.14-.98,.22-.19,.08-.34,.21-.45,.37-.1,.16-.16,.34-.16,.53,0,.3,.12,.55,.34,.75s.56,.3,1,.3,.82-.09,1.16-.28,.59-.45,.74-.78c.12-.25,.18-.63,.18-1.12v-.41Z"/><path d="M260.42,374.78v-9.16h1.12v9.16h-1.12Z"/><path d="M267.64,374.78v-.97c-.52,.75-1.22,1.12-2.11,1.12-.39,0-.76-.08-1.1-.23-.34-.15-.59-.34-.76-.57-.16-.23-.28-.5-.35-.83-.05-.22-.07-.57-.07-1.05v-4.11h1.12v3.68c0,.59,.02,.98,.07,1.19,.07,.3,.22,.53,.45,.7,.23,.17,.51,.25,.85,.25s.65-.09,.95-.26c.29-.17,.5-.41,.63-.71s.19-.73,.19-1.3v-3.56h1.12v6.64h-1.01Z"/><path d="M274.74,373.96c-.42,.35-.82,.6-1.2,.75-.38,.15-.8,.22-1.24,.22-.73,0-1.29-.18-1.68-.54-.39-.36-.59-.81-.59-1.37,0-.33,.07-.62,.22-.89s.34-.48,.58-.65c.24-.16,.51-.29,.81-.37,.22-.06,.55-.11,1-.17,.91-.11,1.58-.24,2.01-.39,0-.15,0-.25,0-.29,0-.46-.11-.78-.32-.97-.29-.25-.71-.38-1.28-.38-.53,0-.92,.09-1.17,.28s-.44,.51-.56,.98l-1.1-.15c.1-.47,.26-.85,.49-1.14,.23-.29,.56-.51,.99-.67s.94-.23,1.51-.23,1.03,.07,1.38,.2c.35,.13,.61,.3,.78,.5,.17,.2,.28,.46,.35,.77,.04,.19,.06,.54,.06,1.04v1.5c0,1.05,.02,1.71,.07,1.98,.05,.28,.14,.54,.28,.8h-1.17c-.12-.23-.19-.51-.23-.82Zm-.09-2.51c-.41,.17-1.02,.31-1.84,.42-.46,.07-.79,.14-.98,.22-.19,.08-.34,.21-.44,.37s-.16,.34-.16,.53c0,.3,.11,.55,.34,.75,.23,.2,.56,.3,1,.3s.82-.09,1.16-.28,.58-.45,.74-.78c.12-.25,.18-.63,.18-1.12v-.41Z"/><path d="M279.99,373.78l.16,.99c-.32,.07-.6,.1-.85,.1-.41,0-.72-.07-.95-.19s-.38-.3-.47-.51c-.09-.21-.14-.65-.14-1.33v-3.82h-.82v-.88h.82v-1.64l1.12-.67v2.32h1.13v.88h-1.13v3.88c0,.32,.02,.53,.06,.62,.04,.09,.1,.17,.19,.22,.09,.05,.22,.08,.38,.08,.12,0,.29-.01,.49-.04Z"/><path d="M281.09,366.91v-1.29h1.12v1.29h-1.12Zm0,7.87v-6.64h1.12v6.64h-1.12Z"/><path d="M283.51,371.46c0-1.23,.34-2.14,1.03-2.73,.57-.49,1.27-.74,2.09-.74,.91,0,1.66,.3,2.24,.9s.87,1.42,.87,2.48c0,.85-.13,1.53-.38,2.02-.26,.49-.63,.87-1.12,1.14-.49,.27-1.02,.41-1.6,.41-.93,0-1.68-.3-2.25-.89-.57-.6-.86-1.45-.86-2.57Zm1.16,0c0,.85,.19,1.49,.56,1.91,.37,.42,.84,.63,1.4,.63s1.02-.21,1.39-.64c.37-.43,.56-1.07,.56-1.94,0-.82-.19-1.44-.56-1.87s-.84-.63-1.39-.63-1.03,.21-1.4,.63c-.37,.42-.56,1.06-.56,1.91Z"/><path d="M291.05,374.78v-6.64h1.01v.94c.49-.73,1.19-1.09,2.11-1.09,.4,0,.77,.07,1.1,.21,.34,.14,.59,.33,.75,.57,.17,.23,.28,.51,.35,.83,.04,.21,.06,.57,.06,1.09v4.08h-1.12v-4.04c0-.46-.04-.8-.13-1.03-.09-.23-.24-.41-.47-.54s-.48-.2-.78-.2c-.48,0-.89,.15-1.24,.46-.35,.3-.52,.88-.52,1.73v3.62h-1.12Z"/><path d="M306.03,374.78v-.84c-.42,.66-1.04,.99-1.86,.99-.53,0-1.02-.15-1.46-.44-.44-.29-.79-.7-1.03-1.22-.24-.52-.37-1.12-.37-1.8s.11-1.26,.33-1.8c.22-.54,.55-.95,.99-1.24,.44-.29,.94-.43,1.48-.43,.4,0,.76,.08,1.07,.25s.57,.39,.76,.66v-3.29h1.12v9.16h-1.04Zm-3.56-3.31c0,.85,.18,1.49,.54,1.91,.36,.42,.78,.63,1.27,.63s.91-.2,1.25-.6,.52-1.02,.52-1.84c0-.91-.17-1.58-.53-2-.35-.42-.78-.64-1.29-.64s-.92,.2-1.25,.61c-.33,.41-.5,1.05-.5,1.93Z"/><path d="M313.39,372.64l1.16,.14c-.18,.68-.52,1.21-1.02,1.58s-1.13,.56-1.9,.56c-.97,0-1.74-.3-2.31-.9-.57-.6-.85-1.44-.85-2.52s.29-1.98,.86-2.6c.58-.62,1.32-.92,2.24-.92s1.61,.3,2.18,.91c.56,.6,.84,1.45,.84,2.55,0,.07,0,.17,0,.3h-4.95c.04,.73,.25,1.29,.62,1.67s.83,.58,1.39,.58c.41,0,.77-.11,1.06-.32s.52-.56,.69-1.04Zm-3.69-1.82h3.71c-.05-.56-.19-.98-.43-1.26-.36-.43-.82-.65-1.39-.65-.52,0-.95,.17-1.3,.52s-.55,.81-.58,1.39Z"/><path d="M315.95,374.78v-6.64h1.01v1.01c.26-.47,.5-.78,.72-.93s.46-.22,.72-.22c.38,0,.77,.12,1.16,.36l-.39,1.04c-.28-.16-.55-.24-.83-.24-.24,0-.47,.07-.66,.22-.2,.15-.34,.35-.42,.62-.12,.4-.19,.84-.19,1.31v3.47h-1.12Z"/><path d="M323.95,374.78v-9.16h6.62v1.08h-5.41v2.81h5.07v1.08h-5.07v3.12h5.62v1.08h-6.84Z"/><path d="M332.3,374.78v-6.64h1.01v1.01c.26-.47,.5-.78,.71-.93s.46-.22,.72-.22c.38,0,.76,.12,1.16,.36l-.39,1.04c-.27-.16-.55-.24-.82-.24-.25,0-.47,.07-.66,.22-.2,.15-.34,.35-.42,.62-.12,.4-.19,.84-.19,1.31v3.47h-1.12Z"/><path d="M336.38,375.33l1.09,.16c.04,.34,.17,.58,.38,.74,.28,.21,.66,.31,1.14,.31,.52,0,.92-.1,1.21-.31,.28-.21,.47-.5,.57-.88,.06-.23,.09-.71,.08-1.44-.49,.58-1.1,.87-1.84,.87-.91,0-1.62-.33-2.12-.99s-.75-1.45-.75-2.37c0-.63,.12-1.22,.34-1.75,.23-.54,.56-.95,1-1.24,.44-.29,.95-.44,1.53-.44,.78,0,1.43,.32,1.94,.95v-.8h1.04v5.74c0,1.03-.11,1.77-.32,2.2s-.54,.77-1,1.02-1.02,.38-1.68,.38c-.79,0-1.43-.18-1.92-.53-.49-.36-.72-.89-.71-1.61Zm.93-3.99c0,.87,.17,1.51,.52,1.91s.78,.6,1.3,.6,.95-.2,1.3-.6c.35-.4,.53-1.02,.53-1.87s-.18-1.42-.54-1.84c-.36-.41-.79-.62-1.3-.62s-.93,.2-1.28,.61-.53,1.01-.53,1.81Z"/><path d="M348.24,372.64l1.16,.14c-.18,.68-.52,1.21-1.02,1.58s-1.13,.56-1.9,.56c-.97,0-1.74-.3-2.31-.9-.57-.6-.85-1.44-.85-2.52s.29-1.98,.86-2.6c.57-.62,1.32-.92,2.24-.92s1.61,.3,2.18,.91c.56,.6,.84,1.45,.84,2.55,0,.07,0,.17,0,.3h-4.95c.04,.73,.25,1.29,.62,1.67s.83,.58,1.39,.58c.41,0,.76-.11,1.05-.32,.29-.22,.52-.56,.7-1.04Zm-3.7-1.82h3.71c-.05-.56-.19-.98-.43-1.26-.36-.43-.82-.65-1.39-.65-.52,0-.95,.17-1.3,.52-.35,.35-.55,.81-.59,1.39Z"/><path d="M351.86,374.78h-1.04v-9.16h1.12v3.27c.47-.6,1.08-.89,1.82-.89,.41,0,.79,.08,1.16,.25,.37,.17,.67,.4,.9,.69,.24,.3,.42,.66,.55,1.08,.13,.42,.2,.87,.2,1.35,0,1.14-.28,2.02-.84,2.64s-1.24,.93-2.03,.93-1.4-.33-1.84-.98v.83Zm-.01-3.37c0,.8,.11,1.37,.32,1.73,.35,.58,.83,.87,1.44,.87,.49,0,.92-.21,1.28-.64,.36-.43,.54-1.06,.54-1.91s-.17-1.51-.52-1.92c-.34-.41-.76-.62-1.25-.62s-.92,.21-1.28,.64c-.36,.43-.54,1.04-.54,1.85Z"/><path d="M357.94,374.78v-6.64h1.01v.94c.49-.73,1.19-1.09,2.11-1.09,.4,0,.77,.07,1.1,.21,.33,.14,.59,.33,.75,.57s.28,.51,.35,.83c.04,.21,.06,.57,.06,1.09v4.08h-1.12v-4.04c0-.46-.04-.8-.13-1.03-.09-.23-.24-.41-.46-.54s-.48-.2-.79-.2c-.48,0-.89,.15-1.24,.46-.35,.3-.52,.88-.52,1.73v3.62h-1.12Z"/><path d="M365.06,366.91v-1.29h1.12v1.29h-1.12Zm0,7.87v-6.64h1.12v6.64h-1.12Z"/><path d="M367.45,372.8l1.11-.17c.06,.45,.24,.79,.52,1.03,.29,.24,.68,.36,1.2,.36s.9-.1,1.15-.32c.25-.21,.38-.46,.38-.74,0-.25-.11-.45-.33-.6-.15-.1-.54-.23-1.15-.38-.83-.21-1.4-.39-1.72-.54-.32-.15-.56-.36-.72-.63s-.25-.57-.25-.89c0-.3,.07-.57,.2-.82,.13-.25,.32-.46,.55-.63,.18-.13,.41-.24,.71-.33,.3-.09,.63-.13,.97-.13,.52,0,.98,.07,1.37,.22,.39,.15,.69,.35,.87,.61s.32,.6,.39,1.03l-1.1,.15c-.05-.34-.2-.61-.43-.8-.24-.19-.58-.29-1.02-.29-.52,0-.89,.08-1.11,.26s-.33,.37-.33,.6c0,.15,.04,.28,.14,.39,.09,.12,.24,.22,.43,.3,.11,.04,.44,.14,.99,.29,.79,.21,1.35,.39,1.66,.52s.56,.33,.74,.59c.18,.26,.27,.58,.27,.96s-.11,.73-.33,1.06-.53,.59-.95,.77c-.41,.18-.88,.27-1.4,.27-.86,0-1.52-.18-1.97-.54s-.74-.89-.87-1.59Z"/><path d="M373.85,372.8l1.11-.17c.06,.45,.24,.79,.52,1.03,.29,.24,.68,.36,1.2,.36s.9-.1,1.15-.32c.25-.21,.38-.46,.38-.74,0-.25-.11-.45-.33-.6-.15-.1-.54-.23-1.15-.38-.83-.21-1.4-.39-1.72-.54-.32-.15-.56-.36-.72-.63s-.25-.57-.25-.89c0-.3,.07-.57,.2-.82,.13-.25,.32-.46,.55-.63,.18-.13,.41-.24,.71-.33,.3-.09,.63-.13,.97-.13,.52,0,.98,.07,1.37,.22,.39,.15,.69,.35,.87,.61s.32,.6,.39,1.03l-1.1,.15c-.05-.34-.2-.61-.43-.8-.24-.19-.58-.29-1.02-.29-.52,0-.89,.08-1.11,.26s-.33,.37-.33,.6c0,.15,.04,.28,.14,.39,.09,.12,.24,.22,.43,.3,.11,.04,.44,.14,.99,.29,.79,.21,1.35,.39,1.66,.52s.56,.33,.74,.59c.18,.26,.27,.58,.27,.96s-.11,.73-.33,1.06-.53,.59-.95,.77c-.41,.18-.88,.27-1.4,.27-.86,0-1.52-.18-1.97-.54s-.74-.89-.87-1.59Z"/><path d="M385.24,372.64l1.16,.14c-.18,.68-.52,1.21-1.02,1.58s-1.13,.56-1.9,.56c-.97,0-1.74-.3-2.31-.9-.57-.6-.85-1.44-.85-2.52s.29-1.98,.86-2.6c.58-.62,1.32-.92,2.24-.92s1.61,.3,2.18,.91c.56,.6,.84,1.45,.84,2.55,0,.07,0,.17,0,.3h-4.95c.04,.73,.25,1.29,.62,1.67s.83,.58,1.39,.58c.41,0,.77-.11,1.06-.32s.52-.56,.69-1.04Zm-3.69-1.82h3.71c-.05-.56-.19-.98-.43-1.26-.36-.43-.82-.65-1.39-.65-.52,0-.95,.17-1.3,.52s-.55,.81-.58,1.39Z"/><path d="M395.71,373.96c-.42,.35-.82,.6-1.2,.75-.38,.15-.8,.22-1.24,.22-.73,0-1.29-.18-1.68-.54-.39-.36-.59-.81-.59-1.37,0-.33,.07-.62,.22-.89s.34-.48,.58-.65c.24-.16,.51-.29,.81-.37,.22-.06,.55-.11,1-.17,.91-.11,1.58-.24,2.01-.39,0-.15,0-.25,0-.29,0-.46-.11-.78-.32-.97-.29-.25-.71-.38-1.28-.38-.53,0-.92,.09-1.17,.28s-.44,.51-.56,.98l-1.1-.15c.1-.47,.26-.85,.49-1.14,.23-.29,.56-.51,.99-.67s.94-.23,1.51-.23,1.03,.07,1.38,.2c.35,.13,.61,.3,.78,.5,.17,.2,.28,.46,.35,.77,.04,.19,.06,.54,.06,1.04v1.5c0,1.05,.02,1.71,.07,1.98,.05,.28,.14,.54,.28,.8h-1.17c-.12-.23-.19-.51-.23-.82Zm-.09-2.51c-.41,.17-1.02,.31-1.84,.42-.46,.07-.79,.14-.98,.22-.19,.08-.34,.21-.44,.37s-.16,.34-.16,.53c0,.3,.11,.55,.34,.75,.23,.2,.56,.3,1,.3s.82-.09,1.16-.28,.58-.45,.74-.78c.12-.25,.18-.63,.18-1.12v-.41Z"/><path d="M398.49,374.78v-6.64h1.01v.94c.49-.73,1.19-1.09,2.11-1.09,.4,0,.77,.07,1.1,.21,.34,.14,.59,.33,.75,.57,.17,.23,.28,.51,.35,.83,.04,.21,.06,.57,.06,1.09v4.08h-1.12v-4.04c0-.46-.04-.8-.13-1.03-.09-.23-.24-.41-.47-.54s-.48-.2-.78-.2c-.48,0-.89,.15-1.24,.46-.35,.3-.52,.88-.52,1.73v3.62h-1.12Z"/><path d="M405.61,374.78v-9.16h1.12v3.29c.53-.61,1.19-.91,1.99-.91,.49,0,.92,.1,1.28,.29,.36,.19,.62,.46,.78,.8s.23,.84,.23,1.49v4.21h-1.12v-4.21c0-.56-.12-.97-.37-1.23-.24-.26-.59-.38-1.04-.38-.33,0-.65,.09-.94,.26-.29,.17-.5,.41-.63,.7s-.19,.7-.19,1.23v3.63h-1.12Z"/><path d="M417.06,373.96c-.42,.35-.82,.6-1.2,.75-.38,.15-.8,.22-1.24,.22-.73,0-1.29-.18-1.68-.54-.39-.36-.59-.81-.59-1.37,0-.33,.07-.62,.22-.89s.34-.48,.58-.65c.24-.16,.51-.29,.81-.37,.22-.06,.55-.11,1-.17,.91-.11,1.58-.24,2.01-.39,0-.15,0-.25,0-.29,0-.46-.11-.78-.32-.97-.29-.25-.71-.38-1.28-.38-.53,0-.92,.09-1.17,.28s-.44,.51-.56,.98l-1.1-.15c.1-.47,.26-.85,.49-1.14,.23-.29,.56-.51,.99-.67s.94-.23,1.51-.23,1.03,.07,1.38,.2c.35,.13,.61,.3,.78,.5,.17,.2,.28,.46,.35,.77,.04,.19,.06,.54,.06,1.04v1.5c0,1.05,.02,1.71,.07,1.98,.05,.28,.14,.54,.28,.8h-1.17c-.12-.23-.19-.51-.23-.82Zm-.09-2.51c-.41,.17-1.02,.31-1.84,.42-.46,.07-.79,.14-.98,.22-.19,.08-.34,.21-.44,.37s-.16,.34-.16,.53c0,.3,.11,.55,.34,.75,.23,.2,.56,.3,1,.3s.82-.09,1.16-.28,.58-.45,.74-.78c.12-.25,.18-.63,.18-1.12v-.41Z"/><path d="M419.85,374.78v-6.64h1.01v.94c.49-.73,1.19-1.09,2.11-1.09,.4,0,.77,.07,1.1,.21,.33,.14,.59,.33,.75,.57s.28,.51,.35,.83c.04,.21,.06,.57,.06,1.09v4.08h-1.12v-4.04c0-.46-.04-.8-.13-1.03-.09-.23-.24-.41-.46-.54s-.48-.2-.79-.2c-.48,0-.89,.15-1.24,.46-.35,.3-.52,.88-.52,1.73v3.62h-1.12Z"/><path d="M431.28,374.78v-.84c-.42,.66-1.04,.99-1.86,.99-.53,0-1.02-.15-1.46-.44-.44-.29-.79-.7-1.03-1.22-.24-.52-.37-1.12-.37-1.8s.11-1.26,.33-1.8c.22-.54,.55-.95,.99-1.24,.44-.29,.94-.43,1.48-.43,.4,0,.76,.08,1.07,.25s.57,.39,.76,.66v-3.29h1.12v9.16h-1.04Zm-3.56-3.31c0,.85,.18,1.49,.54,1.91,.36,.42,.78,.63,1.27,.63s.91-.2,1.25-.6,.52-1.02,.52-1.84c0-.91-.17-1.58-.53-2-.35-.42-.78-.64-1.29-.64s-.92,.2-1.25,.61c-.33,.41-.5,1.05-.5,1.93Z"/><path d="M441.95,374.78v-.84c-.42,.66-1.04,.99-1.86,.99-.53,0-1.02-.15-1.46-.44-.44-.29-.79-.7-1.03-1.22-.24-.52-.37-1.12-.37-1.8s.11-1.26,.33-1.8c.22-.54,.55-.95,.99-1.24,.44-.29,.94-.43,1.48-.43,.4,0,.76,.08,1.07,.25s.57,.39,.76,.66v-3.29h1.12v9.16h-1.04Zm-3.56-3.31c0,.85,.18,1.49,.54,1.91,.36,.42,.78,.63,1.27,.63s.91-.2,1.25-.6,.52-1.02,.52-1.84c0-.91-.18-1.58-.53-2s-.78-.64-1.29-.64-.92,.2-1.25,.61c-.34,.41-.5,1.05-.5,1.93Z"/><path d="M449.3,372.64l1.16,.14c-.18,.68-.52,1.21-1.02,1.58s-1.13,.56-1.9,.56c-.97,0-1.74-.3-2.31-.9-.57-.6-.85-1.44-.85-2.52s.29-1.98,.86-2.6c.58-.62,1.32-.92,2.24-.92s1.61,.3,2.18,.91c.56,.6,.84,1.45,.84,2.55,0,.07,0,.17,0,.3h-4.95c.04,.73,.25,1.29,.62,1.67s.83,.58,1.39,.58c.41,0,.77-.11,1.06-.32s.52-.56,.69-1.04Zm-3.69-1.82h3.71c-.05-.56-.19-.98-.43-1.26-.36-.43-.82-.65-1.39-.65-.52,0-.95,.17-1.3,.52s-.55,.81-.58,1.39Z"/><path d="M452.15,374.78v-5.76h-.99v-.88h.99v-.71c0-.45,.04-.78,.12-.99,.11-.29,.3-.53,.57-.71s.65-.27,1.15-.27c.32,0,.67,.04,1.05,.11l-.17,.98c-.23-.04-.45-.06-.66-.06-.34,0-.58,.07-.72,.22-.14,.15-.21,.42-.21,.82v.61h1.29v.88h-1.29v5.76h-1.12Z"/><path d="M455.44,366.91v-1.29h1.12v1.29h-1.12Zm0,7.87v-6.64h1.12v6.64h-1.12Z"/><path d="M458.28,374.78v-6.64h1.01v.94c.49-.73,1.19-1.09,2.11-1.09,.4,0,.77,.07,1.1,.21,.33,.14,.59,.33,.75,.57s.28,.51,.35,.83c.04,.21,.06,.57,.06,1.09v4.08h-1.12v-4.04c0-.46-.04-.8-.13-1.03-.09-.23-.24-.41-.46-.54s-.48-.2-.79-.2c-.48,0-.89,.15-1.24,.46-.35,.3-.52,.88-.52,1.73v3.62h-1.12Z"/><path d="M465.4,366.91v-1.29h1.12v1.29h-1.12Zm0,7.87v-6.64h1.12v6.64h-1.12Z"/><path d="M472.79,372.64l1.16,.14c-.18,.68-.52,1.21-1.02,1.58s-1.13,.56-1.9,.56c-.97,0-1.74-.3-2.31-.9-.57-.6-.85-1.44-.85-2.52s.29-1.98,.86-2.6c.57-.62,1.32-.92,2.24-.92s1.61,.3,2.18,.91c.56,.6,.84,1.45,.84,2.55,0,.07,0,.17,0,.3h-4.95c.04,.73,.25,1.29,.62,1.67s.83,.58,1.39,.58c.41,0,.76-.11,1.05-.32,.29-.22,.52-.56,.7-1.04Zm-3.7-1.82h3.71c-.05-.56-.19-.98-.43-1.26-.36-.43-.82-.65-1.39-.65-.52,0-.95,.17-1.3,.52-.35,.35-.55,.81-.59,1.39Z"/><path d="M475.35,374.78v-6.64h1.01v1.01c.26-.47,.5-.78,.72-.93s.46-.22,.72-.22c.38,0,.77,.12,1.16,.36l-.39,1.04c-.28-.16-.55-.24-.83-.24-.24,0-.47,.07-.66,.22-.2,.15-.34,.35-.42,.62-.12,.4-.19,.84-.19,1.31v3.47h-1.12Z"/><path d="M482.08,373.78l.16,.99c-.32,.07-.6,.1-.85,.1-.41,0-.72-.07-.95-.19s-.38-.3-.47-.51c-.09-.21-.14-.65-.14-1.33v-3.82h-.82v-.88h.82v-1.64l1.12-.67v2.32h1.13v.88h-1.13v3.88c0,.32,.02,.53,.06,.62,.04,.09,.1,.17,.19,.22,.09,.05,.22,.08,.38,.08,.12,0,.29-.01,.49-.04Z"/><path d="M487.72,372.64l1.16,.14c-.18,.68-.52,1.21-1.02,1.58s-1.13,.56-1.9,.56c-.97,0-1.74-.3-2.31-.9-.57-.6-.85-1.44-.85-2.52s.29-1.98,.86-2.6c.57-.62,1.32-.92,2.24-.92s1.61,.3,2.18,.91c.56,.6,.84,1.45,.84,2.55,0,.07,0,.17,0,.3h-4.95c.04,.73,.25,1.29,.62,1.67s.83,.58,1.39,.58c.41,0,.76-.11,1.05-.32,.29-.22,.52-.56,.7-1.04Zm-3.7-1.82h3.71c-.05-.56-.19-.98-.43-1.26-.36-.43-.82-.65-1.39-.65-.52,0-.95,.17-1.3,.52-.35,.35-.55,.81-.59,1.39Z"/><path d="M490.29,374.78v-6.64h1.01v1.01c.26-.47,.5-.78,.72-.93s.46-.22,.72-.22c.38,0,.77,.12,1.16,.36l-.39,1.04c-.28-.16-.55-.24-.83-.24-.24,0-.47,.07-.66,.22-.2,.15-.34,.35-.42,.62-.12,.4-.19,.84-.19,1.31v3.47h-1.12Z"/><path d="M500.36,374.78v-8.08h-3.02v-1.08h7.26v1.08h-3.03v8.08h-1.21Z"/><path d="M508.83,372.64l1.16,.14c-.18,.68-.52,1.21-1.02,1.58s-1.13,.56-1.9,.56c-.97,0-1.74-.3-2.31-.9-.57-.6-.85-1.44-.85-2.52s.29-1.98,.86-2.6c.58-.62,1.32-.92,2.24-.92s1.61,.3,2.18,.91c.56,.6,.84,1.45,.84,2.55,0,.07,0,.17,0,.3h-4.95c.04,.73,.25,1.29,.62,1.67s.83,.58,1.39,.58c.41,0,.77-.11,1.06-.32s.52-.56,.69-1.04Zm-3.69-1.82h3.71c-.05-.56-.19-.98-.43-1.26-.36-.43-.82-.65-1.39-.65-.52,0-.95,.17-1.3,.52s-.55,.81-.58,1.39Z"/><path d="M510.96,372.8l1.11-.17c.06,.45,.24,.79,.52,1.03,.29,.24,.69,.36,1.2,.36s.9-.1,1.15-.32c.25-.21,.38-.46,.38-.74,0-.25-.11-.45-.33-.6-.15-.1-.54-.23-1.15-.38-.82-.21-1.4-.39-1.71-.54-.32-.15-.56-.36-.72-.63-.17-.27-.25-.57-.25-.89,0-.3,.07-.57,.2-.82,.14-.25,.32-.46,.55-.63,.17-.13,.41-.24,.71-.33,.3-.09,.62-.13,.97-.13,.52,0,.98,.07,1.37,.22s.68,.35,.87,.61,.32,.6,.39,1.03l-1.1,.15c-.05-.34-.2-.61-.44-.8-.24-.19-.58-.29-1.02-.29-.52,0-.88,.08-1.11,.26s-.33,.37-.33,.6c0,.15,.05,.28,.14,.39,.09,.12,.23,.22,.43,.3,.11,.04,.45,.14,.99,.29,.8,.21,1.35,.39,1.67,.52s.56,.33,.74,.59c.18,.26,.27,.58,.27,.96s-.11,.73-.33,1.06-.54,.59-.95,.77c-.41,.18-.88,.27-1.4,.27-.86,0-1.52-.18-1.97-.54-.45-.36-.74-.89-.87-1.59Z"/><path d="M520.26,373.78l.16,.99c-.32,.07-.6,.1-.85,.1-.41,0-.72-.07-.95-.19-.22-.13-.38-.3-.47-.51-.09-.21-.14-.65-.14-1.33v-3.82h-.83v-.88h.83v-1.64l1.12-.67v2.32h1.13v.88h-1.13v3.88c0,.32,.02,.53,.06,.62s.1,.17,.19,.22c.09,.05,.22,.08,.38,.08,.12,0,.29-.01,.49-.04Z"/><path d="M521.63,374.78v-5.76h-.99v-.88h.99v-.71c0-.45,.04-.78,.12-.99,.11-.29,.3-.53,.57-.71,.27-.18,.66-.27,1.15-.27,.32,0,.67,.04,1.05,.11l-.17,.98c-.23-.04-.46-.06-.66-.06-.34,0-.58,.07-.73,.22-.14,.15-.21,.42-.21,.82v.61h1.29v.88h-1.29v5.76h-1.12Z"/><path d="M529.25,373.96c-.42,.35-.82,.6-1.2,.75-.38,.15-.8,.22-1.24,.22-.73,0-1.29-.18-1.68-.54-.39-.36-.59-.81-.59-1.37,0-.33,.07-.62,.22-.89s.34-.48,.58-.65c.24-.16,.51-.29,.81-.37,.22-.06,.55-.11,1-.17,.91-.11,1.58-.24,2.01-.39,0-.15,0-.25,0-.29,0-.46-.11-.78-.32-.97-.29-.25-.71-.38-1.28-.38-.53,0-.92,.09-1.17,.28s-.44,.51-.56,.98l-1.1-.15c.1-.47,.26-.85,.49-1.14,.23-.29,.56-.51,.99-.67s.94-.23,1.51-.23,1.03,.07,1.38,.2c.35,.13,.61,.3,.78,.5,.17,.2,.28,.46,.35,.77,.04,.19,.06,.54,.06,1.04v1.5c0,1.05,.02,1.71,.07,1.98,.05,.28,.14,.54,.28,.8h-1.17c-.12-.23-.19-.51-.23-.82Zm-.09-2.51c-.41,.17-1.02,.31-1.84,.42-.46,.07-.79,.14-.98,.22-.19,.08-.34,.21-.44,.37s-.16,.34-.16,.53c0,.3,.11,.55,.34,.75,.23,.2,.56,.3,1,.3s.82-.09,1.16-.28,.58-.45,.74-.78c.12-.25,.18-.63,.18-1.12v-.41Zm-3.31-4.61v-1.28h1.18v1.28h-1.18Zm2.33,0v-1.28h1.18v1.28h-1.18Z"/><path d="M532.01,374.78v-9.16h1.12v9.16h-1.12Z"/><path d="M534.86,374.78v-9.16h1.12v9.16h-1.12Z"/><path d="M542.27,372.64l1.16,.14c-.18,.68-.52,1.21-1.02,1.58s-1.13,.56-1.9,.56c-.97,0-1.74-.3-2.31-.9-.57-.6-.85-1.44-.85-2.52s.29-1.98,.86-2.6c.58-.62,1.32-.92,2.24-.92s1.61,.3,2.18,.91c.56,.6,.84,1.45,.84,2.55,0,.07,0,.17,0,.3h-4.95c.04,.73,.25,1.29,.62,1.67s.83,.58,1.39,.58c.41,0,.77-.11,1.06-.32s.52-.56,.69-1.04Zm-3.69-1.82h3.71c-.05-.56-.19-.98-.43-1.26-.36-.43-.82-.65-1.39-.65-.52,0-.95,.17-1.3,.52s-.55,.81-.58,1.39Z"/><path d="M270.21,392.84c-.62-.78-1.15-1.7-1.58-2.75-.43-1.05-.64-2.14-.64-3.26,0-.99,.16-1.94,.48-2.85,.38-1.05,.95-2.1,1.74-3.15h.8c-.5,.87-.84,1.49-1,1.86-.25,.58-.45,1.18-.6,1.8-.18,.78-.27,1.56-.27,2.35,0,2,.62,4.01,1.87,6.01h-.8Z"/><path d="M271.46,390.14l3.52-9.16h1.31l3.75,9.16h-1.38l-1.07-2.78h-3.83l-1.01,2.78h-1.29Zm2.64-3.76h3.11l-.96-2.54c-.29-.77-.51-1.4-.65-1.9-.12,.59-.28,1.17-.49,1.75l-1.01,2.69Z"/><path d="M280.86,390.14v-6.64h1.01v.94c.49-.73,1.19-1.09,2.11-1.09,.4,0,.77,.07,1.1,.21,.34,.14,.59,.33,.75,.57,.17,.23,.28,.51,.35,.83,.04,.21,.06,.57,.06,1.09v4.08h-1.12v-4.04c0-.46-.04-.8-.13-1.03-.09-.23-.24-.41-.47-.54s-.48-.2-.78-.2c-.48,0-.89,.15-1.24,.46-.35,.3-.52,.88-.52,1.73v3.62h-1.12Z"/><path d="M289.21,390.14l-2.03-6.64h1.16l1.05,3.83,.39,1.43c.02-.07,.13-.53,.34-1.37l1.06-3.89h1.16l.99,3.85,.33,1.27,.38-1.28,1.14-3.84h1.09l-2.08,6.64h-1.17l-1.06-3.97-.26-1.13-1.34,5.11h-1.18Z"/><path d="M301.77,388l1.16,.14c-.18,.68-.52,1.21-1.02,1.58s-1.13,.56-1.9,.56c-.97,0-1.74-.3-2.31-.9-.57-.6-.85-1.44-.85-2.52s.29-1.98,.86-2.6c.58-.62,1.32-.92,2.24-.92s1.61,.3,2.18,.91c.56,.6,.84,1.45,.84,2.55,0,.07,0,.17,0,.3h-4.95c.04,.73,.25,1.29,.62,1.67s.83,.58,1.39,.58c.41,0,.77-.11,1.06-.32s.52-.56,.69-1.04Zm-3.69-1.82h3.71c-.05-.56-.19-.98-.43-1.26-.36-.43-.82-.65-1.39-.65-.52,0-.95,.17-1.3,.52s-.55,.81-.58,1.39Z"/><path d="M304.34,390.14v-6.64h1.01v.94c.49-.73,1.19-1.09,2.11-1.09,.4,0,.77,.07,1.1,.21,.33,.14,.59,.33,.75,.57s.28,.51,.35,.83c.04,.21,.06,.57,.06,1.09v4.08h-1.12v-4.04c0-.46-.04-.8-.13-1.03-.09-.23-.24-.41-.46-.54s-.48-.2-.79-.2c-.48,0-.89,.15-1.24,.46-.35,.3-.52,.88-.52,1.73v3.62h-1.12Z"/><path d="M315.77,390.14v-.84c-.42,.66-1.04,.99-1.86,.99-.53,0-1.02-.15-1.46-.44-.44-.29-.79-.7-1.03-1.22-.24-.52-.37-1.12-.37-1.8s.11-1.26,.33-1.8c.22-.54,.55-.95,.99-1.24,.44-.29,.94-.43,1.48-.43,.4,0,.76,.08,1.07,.25s.57,.39,.76,.66v-3.29h1.12v9.16h-1.04Zm-3.56-3.31c0,.85,.18,1.49,.54,1.91,.36,.42,.78,.63,1.27,.63s.91-.2,1.25-.6,.52-1.02,.52-1.84c0-.91-.17-1.58-.53-2-.35-.42-.78-.64-1.29-.64s-.92,.2-1.25,.61c-.33,.41-.5,1.05-.5,1.93Z"/><path d="M322.93,390.14v-.97c-.52,.75-1.22,1.12-2.11,1.12-.39,0-.76-.08-1.1-.23-.34-.15-.59-.34-.76-.57-.16-.23-.28-.5-.35-.83-.05-.22-.07-.57-.07-1.05v-4.11h1.12v3.68c0,.59,.02,.98,.07,1.19,.07,.3,.22,.53,.45,.7,.23,.17,.51,.25,.85,.25s.65-.09,.95-.26c.29-.17,.5-.41,.63-.71s.19-.73,.19-1.3v-3.56h1.12v6.64h-1.01Z"/><path d="M325.7,390.14v-6.64h1.01v.94c.49-.73,1.19-1.09,2.11-1.09,.4,0,.77,.07,1.1,.21,.34,.14,.59,.33,.75,.57,.17,.23,.28,.51,.35,.83,.04,.21,.06,.57,.06,1.09v4.08h-1.12v-4.04c0-.46-.04-.8-.13-1.03-.09-.23-.24-.41-.47-.54s-.48-.2-.78-.2c-.48,0-.89,.15-1.24,.46-.35,.3-.52,.88-.52,1.73v3.62h-1.12Z"/><path d="M332.61,390.69l1.09,.16c.05,.34,.17,.58,.38,.74,.28,.21,.66,.31,1.14,.31,.52,0,.92-.1,1.21-.31,.28-.21,.47-.5,.57-.88,.06-.23,.09-.71,.08-1.44-.49,.58-1.11,.87-1.84,.87-.91,0-1.62-.33-2.12-.99s-.75-1.45-.75-2.37c0-.63,.12-1.22,.34-1.75s.56-.95,1-1.24c.44-.29,.95-.44,1.54-.44,.78,0,1.43,.32,1.94,.95v-.8h1.04v5.74c0,1.03-.11,1.77-.31,2.2-.21,.43-.54,.77-1,1.02-.46,.25-1.02,.38-1.69,.38-.79,0-1.43-.18-1.92-.53-.49-.36-.72-.89-.71-1.61Zm.93-3.99c0,.87,.17,1.51,.52,1.91,.35,.4,.78,.6,1.3,.6s.95-.2,1.3-.6c.35-.4,.53-1.02,.53-1.87s-.18-1.42-.54-1.84c-.36-.41-.79-.62-1.3-.62s-.93,.2-1.28,.61-.53,1.01-.53,1.81Z"/><path d="M339.49,388.16l1.11-.17c.06,.45,.24,.79,.52,1.03,.29,.24,.69,.36,1.2,.36s.9-.1,1.15-.32c.25-.21,.38-.46,.38-.74,0-.25-.11-.45-.33-.6-.15-.1-.54-.23-1.15-.38-.82-.21-1.4-.39-1.71-.54-.32-.15-.56-.36-.72-.63-.17-.27-.25-.57-.25-.89,0-.3,.07-.57,.2-.82,.14-.25,.32-.46,.55-.63,.17-.13,.41-.24,.71-.33,.3-.09,.62-.13,.97-.13,.52,0,.98,.07,1.37,.22s.68,.35,.87,.61,.32,.6,.39,1.03l-1.1,.15c-.05-.34-.2-.61-.44-.8-.24-.19-.58-.29-1.02-.29-.52,0-.88,.08-1.11,.26s-.33,.37-.33,.6c0,.15,.05,.28,.14,.39,.09,.12,.23,.22,.43,.3,.11,.04,.45,.14,.99,.29,.8,.21,1.35,.39,1.67,.52s.56,.33,.74,.59c.18,.26,.27,.58,.27,.96s-.11,.73-.33,1.06-.54,.59-.95,.77c-.41,.18-.88,.27-1.4,.27-.86,0-1.52-.18-1.97-.54-.45-.36-.74-.89-.87-1.59Z"/><path d="M346.61,390.14v-5.76h-.99v-.88h.99v-.71c0-.45,.04-.78,.12-.99,.11-.29,.3-.53,.57-.71s.65-.27,1.15-.27c.32,0,.67,.04,1.05,.11l-.17,.98c-.23-.04-.45-.06-.66-.06-.34,0-.58,.07-.72,.22-.14,.15-.21,.42-.21,.82v.61h1.29v.88h-1.29v5.76h-1.12Z"/><path d="M354.22,389.32c-.42,.35-.82,.6-1.2,.75-.39,.15-.8,.22-1.24,.22-.73,0-1.29-.18-1.68-.54-.39-.36-.59-.81-.59-1.37,0-.33,.07-.62,.22-.89,.15-.27,.34-.48,.58-.65,.24-.16,.51-.29,.81-.37,.22-.06,.55-.11,1-.17,.91-.11,1.58-.24,2.01-.39,0-.15,0-.25,0-.29,0-.46-.11-.78-.32-.97-.29-.25-.71-.38-1.28-.38-.53,0-.92,.09-1.17,.28s-.44,.51-.56,.98l-1.1-.15c.1-.47,.27-.85,.49-1.14,.23-.29,.56-.51,.99-.67s.94-.23,1.51-.23,1.03,.07,1.38,.2c.36,.13,.62,.3,.78,.5,.17,.2,.28,.46,.35,.77,.04,.19,.06,.54,.06,1.04v1.5c0,1.05,.02,1.71,.07,1.98s.14,.54,.29,.8h-1.18c-.12-.23-.19-.51-.22-.82Zm-.09-2.51c-.41,.17-1.02,.31-1.84,.42-.46,.07-.79,.14-.98,.22-.19,.08-.34,.21-.45,.37-.1,.16-.16,.34-.16,.53,0,.3,.12,.55,.34,.75s.56,.3,1,.3,.82-.09,1.16-.28,.59-.45,.74-.78c.12-.25,.18-.63,.18-1.12v-.41Z"/><path d="M356.99,390.14v-9.16h1.12v9.16h-1.12Z"/><path d="M359.83,390.14v-9.16h1.12v9.16h-1.12Z"/><path d="M370.61,390.14v-.97c-.52,.75-1.22,1.12-2.11,1.12-.39,0-.76-.08-1.1-.23-.34-.15-.59-.34-.76-.57-.17-.23-.28-.5-.35-.83-.04-.22-.07-.57-.07-1.05v-4.11h1.12v3.68c0,.59,.02,.98,.07,1.19,.07,.3,.22,.53,.45,.7,.23,.17,.51,.25,.85,.25s.65-.09,.95-.26c.3-.17,.51-.41,.63-.71s.18-.73,.18-1.3v-3.56h1.12v6.64h-1.01Z"/><path d="M373.38,390.14v-6.64h1.01v.94c.49-.73,1.19-1.09,2.11-1.09,.4,0,.77,.07,1.1,.21,.33,.14,.59,.33,.75,.57s.28,.51,.35,.83c.04,.21,.06,.57,.06,1.09v4.08h-1.12v-4.04c0-.46-.04-.8-.13-1.03-.09-.23-.24-.41-.46-.54s-.48-.2-.79-.2c-.48,0-.89,.15-1.24,.46-.35,.3-.52,.88-.52,1.73v3.62h-1.12Z"/><path d="M384.8,390.14v-.84c-.42,.66-1.04,.99-1.86,.99-.53,0-1.02-.15-1.46-.44-.44-.29-.79-.7-1.03-1.22-.24-.52-.37-1.12-.37-1.8s.11-1.26,.33-1.8c.22-.54,.55-.95,.99-1.24,.44-.29,.94-.43,1.48-.43,.4,0,.76,.08,1.07,.25s.57,.39,.76,.66v-3.29h1.12v9.16h-1.04Zm-3.56-3.31c0,.85,.18,1.49,.54,1.91,.36,.42,.78,.63,1.27,.63s.91-.2,1.25-.6,.52-1.02,.52-1.84c0-.91-.18-1.58-.53-2s-.78-.64-1.29-.64-.92,.2-1.25,.61c-.34,.41-.5,1.05-.5,1.93Z"/><path d="M395.71,388l1.16,.14c-.18,.68-.52,1.21-1.02,1.58s-1.13,.56-1.9,.56c-.97,0-1.74-.3-2.31-.9-.57-.6-.85-1.44-.85-2.52s.29-1.98,.86-2.6c.57-.62,1.32-.92,2.24-.92s1.61,.3,2.18,.91c.56,.6,.84,1.45,.84,2.55,0,.07,0,.17,0,.3h-4.95c.04,.73,.25,1.29,.62,1.67s.83,.58,1.39,.58c.41,0,.76-.11,1.05-.32,.29-.22,.52-.56,.7-1.04Zm-3.7-1.82h3.71c-.05-.56-.19-.98-.43-1.26-.36-.43-.82-.65-1.39-.65-.52,0-.95,.17-1.3,.52-.35,.35-.55,.81-.59,1.39Z"/><path d="M398.27,390.14v-6.64h1.01v1.01c.26-.47,.5-.78,.71-.93s.46-.22,.72-.22c.38,0,.76,.12,1.16,.36l-.39,1.04c-.27-.16-.55-.24-.82-.24-.25,0-.47,.07-.66,.22-.2,.15-.34,.35-.42,.62-.12,.4-.19,.84-.19,1.31v3.47h-1.12Z"/><path d="M403.77,390.14l-2.03-6.64h1.16l1.05,3.83,.39,1.43c.02-.07,.13-.53,.34-1.37l1.06-3.89h1.16l.99,3.85,.33,1.27,.38-1.28,1.14-3.84h1.09l-2.08,6.64h-1.17l-1.06-3.97-.26-1.13-1.34,5.11h-1.18Z"/><path d="M416.12,389.32c-.42,.35-.82,.6-1.2,.75-.39,.15-.8,.22-1.24,.22-.73,0-1.29-.18-1.68-.54-.39-.36-.59-.81-.59-1.37,0-.33,.07-.62,.22-.89,.15-.27,.34-.48,.58-.65,.24-.16,.51-.29,.81-.37,.22-.06,.55-.11,1-.17,.91-.11,1.58-.24,2.01-.39,0-.15,0-.25,0-.29,0-.46-.11-.78-.32-.97-.29-.25-.71-.38-1.28-.38-.53,0-.92,.09-1.17,.28s-.44,.51-.56,.98l-1.1-.15c.1-.47,.27-.85,.49-1.14,.23-.29,.56-.51,.99-.67s.94-.23,1.51-.23,1.03,.07,1.38,.2c.36,.13,.62,.3,.78,.5,.17,.2,.28,.46,.35,.77,.04,.19,.06,.54,.06,1.04v1.5c0,1.05,.02,1.71,.07,1.98s.14,.54,.29,.8h-1.18c-.12-.23-.19-.51-.22-.82Zm-.09-2.51c-.41,.17-1.02,.31-1.84,.42-.46,.07-.79,.14-.98,.22-.19,.08-.34,.21-.45,.37-.1,.16-.16,.34-.16,.53,0,.3,.12,.55,.34,.75s.56,.3,1,.3,.82-.09,1.16-.28,.59-.45,.74-.78c.12-.25,.18-.63,.18-1.12v-.41Z"/><path d="M418.9,390.14v-6.64h1.01v1.01c.26-.47,.5-.78,.71-.93s.46-.22,.72-.22c.38,0,.76,.12,1.16,.36l-.39,1.04c-.27-.16-.55-.24-.82-.24-.25,0-.47,.07-.66,.22-.2,.15-.34,.35-.42,.62-.12,.4-.19,.84-.19,1.31v3.47h-1.12Z"/><path d="M425.63,389.14l.16,.99c-.32,.07-.6,.1-.85,.1-.41,0-.72-.07-.95-.19-.22-.13-.38-.3-.47-.51-.09-.21-.14-.65-.14-1.33v-3.82h-.83v-.88h.83v-1.64l1.12-.67v2.32h1.13v.88h-1.13v3.88c0,.32,.02,.53,.06,.62s.1,.17,.19,.22c.09,.05,.22,.08,.38,.08,.12,0,.29-.01,.49-.04Z"/><path d="M431.28,388l1.16,.14c-.18,.68-.52,1.21-1.02,1.58s-1.13,.56-1.9,.56c-.97,0-1.74-.3-2.31-.9-.57-.6-.85-1.44-.85-2.52s.29-1.98,.86-2.6c.57-.62,1.32-.92,2.24-.92s1.61,.3,2.18,.91c.56,.6,.84,1.45,.84,2.55,0,.07,0,.17,0,.3h-4.95c.04,.73,.25,1.29,.62,1.67s.83,.58,1.39,.58c.41,0,.76-.11,1.05-.32,.29-.22,.52-.56,.7-1.04Zm-3.7-1.82h3.71c-.05-.56-.19-.98-.43-1.26-.36-.43-.82-.65-1.39-.65-.52,0-.95,.17-1.3,.52-.35,.35-.55,.81-.59,1.39Z"/><path d="M436.3,389.14l.16,.99c-.32,.07-.6,.1-.85,.1-.41,0-.72-.07-.95-.19s-.38-.3-.47-.51c-.09-.21-.14-.65-.14-1.33v-3.82h-.82v-.88h.82v-1.64l1.12-.67v2.32h1.13v.88h-1.13v3.88c0,.32,.02,.53,.06,.62,.04,.09,.1,.17,.19,.22,.09,.05,.22,.08,.38,.08,.12,0,.29-.01,.49-.04Z"/><path d="M441.95,388l1.16,.14c-.18,.68-.52,1.21-1.02,1.58s-1.13,.56-1.9,.56c-.97,0-1.74-.3-2.31-.9-.57-.6-.85-1.44-.85-2.52s.29-1.98,.86-2.6c.58-.62,1.32-.92,2.24-.92s1.61,.3,2.18,.91c.56,.6,.84,1.45,.84,2.55,0,.07,0,.17,0,.3h-4.95c.04,.73,.25,1.29,.62,1.67s.83,.58,1.39,.58c.41,0,.77-.11,1.06-.32s.52-.56,.69-1.04Zm-3.69-1.82h3.71c-.05-.56-.19-.98-.43-1.26-.36-.43-.82-.65-1.39-.65-.52,0-.95,.17-1.3,.52s-.55,.81-.58,1.39Z"/><path d="M448.24,390.14v-9.16h4.06c.82,0,1.44,.08,1.86,.25,.43,.17,.76,.46,1.02,.87,.25,.42,.38,.88,.38,1.38,0,.65-.21,1.2-.63,1.64-.42,.45-1.07,.73-1.95,.85,.32,.15,.56,.31,.73,.46,.35,.33,.69,.73,1.01,1.22l1.59,2.49h-1.53l-1.21-1.91c-.35-.55-.64-.97-.88-1.26-.23-.29-.43-.5-.62-.61-.18-.12-.37-.2-.55-.24-.14-.03-.36-.04-.68-.04h-1.41v4.07h-1.21Zm1.21-5.12h2.61c.55,0,.99-.06,1.3-.17,.31-.11,.55-.3,.71-.55s.24-.53,.24-.82c0-.43-.16-.79-.47-1.07s-.81-.42-1.49-.42h-2.9v3.03Z"/><path d="M461.67,390.14v-.97c-.52,.75-1.22,1.12-2.11,1.12-.39,0-.76-.08-1.1-.23-.34-.15-.59-.34-.76-.57-.16-.23-.28-.5-.35-.83-.05-.22-.07-.57-.07-1.05v-4.11h1.12v3.68c0,.59,.02,.98,.07,1.19,.07,.3,.22,.53,.45,.7,.23,.17,.51,.25,.85,.25s.65-.09,.95-.26c.29-.17,.5-.41,.63-.71s.19-.73,.19-1.3v-3.56h1.12v6.64h-1.01Zm-3.44-7.94v-1.28h1.18v1.28h-1.18Zm2.33,0v-1.28h1.18v1.28h-1.18Z"/><path d="M468.77,387.71l1.11,.14c-.12,.76-.43,1.36-.93,1.79-.5,.43-1.11,.65-1.84,.65-.91,0-1.64-.3-2.19-.89-.55-.59-.83-1.45-.83-2.55,0-.72,.12-1.34,.36-1.88,.24-.54,.6-.94,1.08-1.21,.49-.27,1.01-.4,1.59-.4,.72,0,1.31,.18,1.77,.55,.46,.36,.75,.88,.88,1.55l-1.09,.17c-.1-.45-.29-.78-.55-1.01-.26-.22-.58-.34-.96-.34-.57,0-1.03,.2-1.38,.61-.36,.41-.53,1.05-.53,1.93s.17,1.54,.51,1.94,.79,.61,1.34,.61c.44,0,.81-.13,1.11-.41,.3-.27,.48-.69,.56-1.25Z"/><path d="M470.85,390.14v-9.16h1.12v5.22l2.66-2.7h1.46l-2.54,2.46,2.79,4.17h-1.39l-2.2-3.39-.79,.76v2.63h-1.12Z"/><path d="M477.24,390.14v-6.64h1.01v.93c.21-.33,.49-.59,.83-.78,.35-.2,.74-.3,1.18-.3,.49,0,.89,.1,1.21,.31s.54,.49,.67,.86c.53-.78,1.21-1.16,2.05-1.16,.66,0,1.17,.18,1.52,.55,.35,.36,.53,.93,.53,1.68v4.56h-1.12v-4.18c0-.45-.04-.77-.11-.97-.07-.2-.21-.36-.4-.48-.19-.12-.42-.18-.68-.18-.47,0-.85,.16-1.16,.47s-.46,.81-.46,1.49v3.86h-1.12v-4.31c0-.5-.09-.88-.27-1.12-.18-.25-.48-.38-.9-.38-.32,0-.61,.08-.88,.25-.27,.17-.46,.41-.58,.73-.12,.32-.18,.78-.18,1.39v3.44h-1.12Z"/><path d="M492.45,388l1.16,.14c-.18,.68-.52,1.21-1.02,1.58s-1.13,.56-1.9,.56c-.97,0-1.74-.3-2.31-.9-.57-.6-.85-1.44-.85-2.52s.29-1.98,.86-2.6c.58-.62,1.32-.92,2.24-.92s1.61,.3,2.18,.91c.56,.6,.84,1.45,.84,2.55,0,.07,0,.17,0,.3h-4.95c.04,.73,.25,1.29,.62,1.67s.83,.58,1.39,.58c.41,0,.77-.11,1.06-.32s.52-.56,.69-1.04Zm-3.69-1.82h3.71c-.05-.56-.19-.98-.43-1.26-.36-.43-.82-.65-1.39-.65-.52,0-.95,.17-1.3,.52s-.55,.81-.58,1.39Z"/><path d="M495,390.14v-9.16h1.12v9.16h-1.12Z"/><path d="M502.17,390.14v-.84c-.42,.66-1.04,.99-1.86,.99-.53,0-1.02-.15-1.46-.44-.44-.29-.79-.7-1.03-1.22-.24-.52-.37-1.12-.37-1.8s.11-1.26,.33-1.8c.22-.54,.55-.95,.99-1.24,.44-.29,.94-.43,1.48-.43,.4,0,.76,.08,1.07,.25s.57,.39,.76,.66v-3.29h1.12v9.16h-1.04Zm-3.56-3.31c0,.85,.18,1.49,.54,1.91,.36,.42,.78,.63,1.27,.63s.91-.2,1.25-.6,.52-1.02,.52-1.84c0-.91-.18-1.58-.53-2s-.78-.64-1.29-.64-.92,.2-1.25,.61c-.34,.41-.5,1.05-.5,1.93Z"/><path d="M509.34,390.14v-.97c-.52,.75-1.22,1.12-2.11,1.12-.39,0-.76-.08-1.1-.23-.34-.15-.59-.34-.76-.57-.16-.23-.28-.5-.35-.83-.05-.22-.07-.57-.07-1.05v-4.11h1.12v3.68c0,.59,.02,.98,.07,1.19,.07,.3,.22,.53,.45,.7,.23,.17,.51,.25,.85,.25s.65-.09,.95-.26c.29-.17,.5-.41,.63-.71s.19-.73,.19-1.3v-3.56h1.12v6.64h-1.01Z"/><path d="M512.11,390.14v-6.64h1.01v.94c.49-.73,1.19-1.09,2.11-1.09,.4,0,.77,.07,1.1,.21,.34,.14,.59,.33,.75,.57,.17,.23,.28,.51,.35,.83,.04,.21,.06,.57,.06,1.09v4.08h-1.12v-4.04c0-.46-.04-.8-.13-1.03-.09-.23-.24-.41-.47-.54s-.48-.2-.78-.2c-.48,0-.89,.15-1.24,.46-.35,.3-.52,.88-.52,1.73v3.62h-1.12Z"/><path d="M519.02,390.69l1.09,.16c.05,.34,.17,.58,.38,.74,.28,.21,.66,.31,1.14,.31,.52,0,.92-.1,1.21-.31,.28-.21,.47-.5,.57-.88,.06-.23,.09-.71,.08-1.44-.49,.58-1.11,.87-1.84,.87-.91,0-1.62-.33-2.12-.99s-.75-1.45-.75-2.37c0-.63,.12-1.22,.34-1.75s.56-.95,1-1.24c.44-.29,.95-.44,1.54-.44,.78,0,1.43,.32,1.94,.95v-.8h1.04v5.74c0,1.03-.11,1.77-.31,2.2-.21,.43-.54,.77-1,1.02-.46,.25-1.02,.38-1.69,.38-.79,0-1.43-.18-1.92-.53-.49-.36-.72-.89-.71-1.61Zm.93-3.99c0,.87,.17,1.51,.52,1.91,.35,.4,.78,.6,1.3,.6s.95-.2,1.3-.6c.35-.4,.53-1.02,.53-1.87s-.18-1.42-.54-1.84c-.36-.41-.79-.62-1.3-.62s-.93,.2-1.28,.61-.53,1.01-.53,1.81Z"/><path d="M530.89,388l1.16,.14c-.18,.68-.52,1.21-1.02,1.58s-1.13,.56-1.9,.56c-.97,0-1.74-.3-2.31-.9-.57-.6-.85-1.44-.85-2.52s.29-1.98,.86-2.6c.58-.62,1.32-.92,2.24-.92s1.61,.3,2.18,.91c.56,.6,.84,1.45,.84,2.55,0,.07,0,.17,0,.3h-4.95c.04,.73,.25,1.29,.62,1.67s.83,.58,1.39,.58c.41,0,.77-.11,1.06-.32s.52-.56,.69-1.04Zm-3.69-1.82h3.71c-.05-.56-.19-.98-.43-1.26-.36-.43-.82-.65-1.39-.65-.52,0-.95,.17-1.3,.52s-.55,.81-.58,1.39Z"/><path d="M533.46,390.14v-6.64h1.01v.94c.49-.73,1.19-1.09,2.11-1.09,.4,0,.77,.07,1.1,.21,.34,.14,.59,.33,.75,.57,.17,.23,.28,.51,.35,.83,.04,.21,.06,.57,.06,1.09v4.08h-1.12v-4.04c0-.46-.04-.8-.13-1.03-.09-.23-.24-.41-.47-.54s-.48-.2-.78-.2c-.48,0-.89,.15-1.24,.46-.35,.3-.52,.88-.52,1.73v3.62h-1.12Z"/><path d="M541.32,392.84h-.81c1.25-2,1.87-4,1.87-6.01,0-.78-.09-1.56-.27-2.33-.14-.62-.34-1.23-.59-1.8-.16-.38-.5-1-1.01-1.88h.81c.78,1.05,1.36,2.1,1.74,3.15,.32,.91,.48,1.86,.48,2.85,0,1.12-.22,2.21-.65,3.26-.43,1.05-.96,1.97-1.57,2.75Z"/></g><g><path d="M385.92,438.5h1.21v5.29c0,.92-.1,1.65-.31,2.19-.21,.54-.58,.98-1.13,1.32-.54,.34-1.26,.51-2.14,.51s-1.56-.15-2.11-.44c-.55-.3-.94-.72-1.17-1.29-.23-.56-.35-1.33-.35-2.3v-5.29h1.21v5.29c0,.8,.07,1.38,.22,1.76,.15,.38,.4,.67,.76,.87,.36,.21,.8,.31,1.32,.31,.89,0,1.53-.2,1.91-.61,.38-.4,.57-1.18,.57-2.33v-5.29Zm-4.16-.56v-1.28h1.17v1.28h-1.17Zm2.33,0v-1.28h1.17v1.28h-1.17Z"/><path d="M390.04,447.66h-1.04v-9.16h1.12v3.27c.47-.6,1.08-.89,1.82-.89,.41,0,.79,.08,1.16,.25,.36,.17,.67,.4,.9,.69s.42,.66,.55,1.08c.13,.42,.2,.87,.2,1.35,0,1.14-.28,2.02-.84,2.64s-1.24,.93-2.03,.93-1.4-.33-1.84-.98v.83Zm-.01-3.37c0,.8,.11,1.37,.32,1.73,.35,.58,.83,.87,1.44,.87,.49,0,.92-.21,1.28-.64,.36-.43,.54-1.06,.54-1.91s-.17-1.51-.52-1.92c-.34-.41-.76-.62-1.25-.62s-.92,.21-1.28,.64-.54,1.04-.54,1.85Z"/><path d="M400.67,445.52l1.16,.14c-.18,.68-.52,1.21-1.02,1.58s-1.13,.56-1.9,.56c-.97,0-1.74-.3-2.31-.9-.57-.6-.85-1.44-.85-2.52s.29-1.98,.86-2.6c.58-.62,1.32-.92,2.24-.92s1.61,.3,2.18,.91c.56,.6,.84,1.45,.84,2.55,0,.07,0,.17,0,.3h-4.95c.04,.73,.25,1.29,.62,1.67s.83,.58,1.39,.58c.41,0,.76-.11,1.06-.32,.29-.22,.52-.56,.69-1.04Zm-3.69-1.82h3.71c-.05-.56-.19-.98-.43-1.26-.36-.43-.82-.65-1.39-.65-.52,0-.95,.17-1.3,.52-.35,.35-.55,.81-.58,1.39Z"/><path d="M403.23,447.66v-6.64h1.01v1.01c.26-.47,.5-.78,.72-.93s.46-.22,.72-.22c.38,0,.76,.12,1.16,.36l-.39,1.04c-.27-.16-.55-.24-.83-.24-.25,0-.47,.07-.66,.22-.2,.15-.34,.35-.42,.62-.12,.4-.19,.84-.19,1.31v3.47h-1.12Z"/><path d="M407.3,448.21l1.09,.16c.05,.34,.17,.58,.38,.74,.28,.21,.66,.31,1.14,.31,.52,0,.92-.1,1.21-.31,.28-.21,.47-.5,.57-.88,.06-.23,.09-.71,.08-1.44-.49,.58-1.1,.87-1.84,.87-.91,0-1.62-.33-2.12-.99s-.75-1.45-.75-2.37c0-.63,.12-1.22,.34-1.75,.23-.54,.56-.95,1-1.24,.44-.29,.95-.44,1.53-.44,.78,0,1.43,.32,1.94,.95v-.8h1.04v5.74c0,1.03-.11,1.77-.32,2.2-.21,.43-.54,.77-1,1.02-.46,.25-1.02,.38-1.68,.38-.79,0-1.43-.18-1.92-.53s-.72-.89-.71-1.61Zm.93-3.99c0,.87,.17,1.51,.52,1.91,.35,.4,.78,.6,1.3,.6s.95-.2,1.3-.6c.35-.4,.53-1.02,.53-1.87s-.18-1.42-.54-1.84c-.36-.41-.79-.62-1.3-.62s-.93,.2-1.28,.61-.53,1.01-.53,1.81Z"/><path d="M418.96,446.84c-.42,.35-.82,.6-1.2,.75-.39,.15-.8,.22-1.24,.22-.73,0-1.29-.18-1.68-.54-.39-.36-.59-.81-.59-1.37,0-.33,.07-.62,.22-.89,.15-.27,.34-.48,.58-.65,.24-.16,.51-.29,.81-.37,.22-.06,.55-.11,1-.17,.91-.11,1.58-.24,2.01-.39,0-.15,0-.25,0-.29,0-.46-.11-.78-.32-.97-.29-.25-.71-.38-1.28-.38-.53,0-.92,.09-1.17,.28s-.44,.51-.56,.98l-1.1-.15c.1-.47,.26-.85,.49-1.14,.23-.29,.56-.51,.99-.67s.94-.23,1.51-.23,1.03,.07,1.38,.2c.35,.13,.61,.3,.78,.5s.28,.46,.35,.77c.04,.19,.06,.54,.06,1.04v1.5c0,1.05,.02,1.71,.07,1.98,.05,.28,.14,.54,.28,.8h-1.17c-.12-.23-.19-.51-.23-.82Zm-.09-2.51c-.41,.17-1.02,.31-1.84,.42-.46,.07-.79,.14-.98,.22-.19,.08-.34,.21-.44,.37-.1,.16-.16,.34-.16,.53,0,.3,.11,.55,.34,.75,.23,.2,.56,.3,1,.3s.82-.09,1.16-.28,.58-.45,.74-.78c.12-.25,.18-.63,.18-1.12v-.41Z"/><path d="M422.78,447.66h-1.04v-9.16h1.12v3.27c.47-.6,1.08-.89,1.82-.89,.41,0,.79,.08,1.16,.25,.36,.17,.67,.4,.9,.69s.42,.66,.55,1.08c.13,.42,.2,.87,.2,1.35,0,1.14-.28,2.02-.84,2.64s-1.24,.93-2.03,.93-1.4-.33-1.84-.98v.83Zm-.01-3.37c0,.8,.11,1.37,.32,1.73,.35,.58,.83,.87,1.44,.87,.49,0,.92-.21,1.28-.64,.36-.43,.54-1.06,.54-1.91s-.17-1.51-.52-1.92c-.34-.41-.76-.62-1.25-.62s-.92,.21-1.28,.64-.54,1.04-.54,1.85Z"/><path d="M433.41,445.52l1.16,.14c-.18,.68-.52,1.21-1.02,1.58s-1.13,.56-1.9,.56c-.97,0-1.74-.3-2.31-.9-.57-.6-.85-1.44-.85-2.52s.29-1.98,.86-2.6c.58-.62,1.32-.92,2.24-.92s1.61,.3,2.18,.91c.56,.6,.84,1.45,.84,2.55,0,.07,0,.17,0,.3h-4.95c.04,.73,.25,1.29,.62,1.67s.83,.58,1.39,.58c.41,0,.76-.11,1.06-.32,.29-.22,.52-.56,.69-1.04Zm-3.69-1.82h3.71c-.05-.56-.19-.98-.43-1.26-.36-.43-.82-.65-1.39-.65-.52,0-.95,.17-1.3,.52-.35,.35-.55,.81-.58,1.39Z"/><path d="M443.84,447.66v-.84c-.42,.66-1.04,.99-1.86,.99-.53,0-1.02-.15-1.46-.44-.44-.29-.79-.7-1.03-1.22-.24-.52-.37-1.12-.37-1.8s.11-1.26,.33-1.8c.22-.54,.55-.95,.99-1.24,.44-.29,.94-.43,1.48-.43,.4,0,.76,.08,1.07,.25s.57,.39,.76,.66v-3.29h1.12v9.16h-1.04Zm-3.56-3.31c0,.85,.18,1.49,.54,1.91s.78,.63,1.27,.63,.91-.2,1.25-.6,.52-1.02,.52-1.84c0-.91-.17-1.58-.53-2-.35-.42-.78-.64-1.29-.64s-.92,.2-1.25,.61c-.33,.41-.5,1.05-.5,1.93Z"/><path d="M451.2,445.52l1.16,.14c-.18,.68-.52,1.21-1.02,1.58s-1.13,.56-1.9,.56c-.97,0-1.74-.3-2.31-.9-.57-.6-.85-1.44-.85-2.52s.29-1.98,.86-2.6c.58-.62,1.32-.92,2.24-.92s1.61,.3,2.18,.91c.56,.6,.84,1.45,.84,2.55,0,.07,0,.17,0,.3h-4.95c.04,.73,.25,1.29,.62,1.67s.83,.58,1.39,.58c.41,0,.76-.11,1.06-.32,.29-.22,.52-.56,.69-1.04Zm-3.69-1.82h3.71c-.05-.56-.19-.98-.43-1.26-.36-.43-.82-.65-1.39-.65-.52,0-.95,.17-1.3,.52-.35,.35-.55,.81-.58,1.39Z"/><path d="M453.32,445.68l1.11-.17c.06,.45,.24,.79,.52,1.03,.29,.24,.68,.36,1.2,.36s.9-.1,1.15-.32c.25-.21,.38-.46,.38-.74,0-.25-.11-.45-.33-.6-.15-.1-.54-.23-1.15-.38-.83-.21-1.4-.39-1.72-.54-.32-.15-.56-.36-.72-.63-.17-.27-.25-.57-.25-.89,0-.3,.07-.57,.2-.82,.14-.25,.32-.46,.55-.63,.17-.13,.41-.24,.71-.33,.3-.09,.63-.13,.97-.13,.52,0,.98,.07,1.37,.22,.39,.15,.68,.35,.87,.61s.32,.6,.39,1.03l-1.1,.15c-.05-.34-.2-.61-.43-.8-.24-.19-.58-.29-1.02-.29-.52,0-.89,.08-1.11,.26s-.33,.37-.33,.6c0,.15,.05,.28,.14,.39,.09,.12,.24,.22,.43,.3,.11,.04,.44,.14,.99,.29,.8,.21,1.35,.39,1.67,.52s.56,.33,.74,.59c.18,.26,.27,.58,.27,.96s-.11,.73-.33,1.06-.53,.59-.95,.77c-.41,.18-.88,.27-1.4,.27-.86,0-1.52-.18-1.97-.54-.45-.36-.74-.89-.87-1.59Z"/><path d="M463.46,444.72l1.14-.1c.05,.46,.18,.83,.38,1.13,.2,.29,.5,.53,.92,.71s.89,.27,1.41,.27c.46,0,.87-.07,1.23-.21,.35-.14,.62-.33,.79-.57s.26-.5,.26-.78-.08-.54-.25-.75c-.17-.21-.44-.4-.83-.54-.25-.1-.79-.25-1.63-.45-.84-.2-1.43-.39-1.77-.57-.44-.23-.76-.51-.98-.85-.21-.34-.32-.72-.32-1.14,0-.46,.13-.89,.39-1.3,.26-.4,.65-.71,1.15-.92,.5-.21,1.06-.31,1.68-.31,.68,0,1.28,.11,1.8,.33,.52,.22,.92,.54,1.2,.96,.28,.43,.43,.91,.45,1.44l-1.16,.09c-.06-.58-.27-1.02-.63-1.31-.36-.29-.89-.44-1.6-.44s-1.27,.13-1.6,.4c-.33,.27-.5,.59-.5,.97,0,.33,.12,.6,.36,.81,.23,.21,.84,.43,1.83,.65s1.66,.42,2.03,.58c.53,.25,.93,.56,1.18,.93s.38,.81,.38,1.3-.14,.95-.42,1.38c-.28,.43-.68,.77-1.2,1.01-.52,.24-1.11,.36-1.77,.36-.83,0-1.52-.12-2.08-.36-.56-.24-1-.61-1.32-1.09s-.49-1.03-.5-1.65Z"/><path d="M472.22,450.22l-.12-1.06c.25,.07,.46,.1,.64,.1,.25,0,.45-.04,.6-.12,.15-.08,.27-.2,.37-.35,.07-.11,.19-.39,.34-.84,.02-.06,.05-.15,.1-.27l-2.52-6.65h1.21l1.38,3.84c.18,.49,.34,1,.48,1.54,.13-.52,.28-1.02,.46-1.51l1.42-3.87h1.12l-2.52,6.75c-.27,.73-.48,1.23-.63,1.51-.2,.37-.43,.64-.69,.82-.26,.17-.57,.26-.92,.26-.22,0-.46-.05-.72-.14Z"/><path d="M478.22,445.68l1.11-.17c.06,.45,.24,.79,.52,1.03,.29,.24,.68,.36,1.2,.36s.9-.1,1.15-.32c.25-.21,.38-.46,.38-.74,0-.25-.11-.45-.33-.6-.15-.1-.54-.23-1.15-.38-.83-.21-1.4-.39-1.72-.54-.32-.15-.56-.36-.72-.63-.17-.27-.25-.57-.25-.89,0-.3,.07-.57,.2-.82,.14-.25,.32-.46,.55-.63,.17-.13,.41-.24,.71-.33,.3-.09,.63-.13,.97-.13,.52,0,.98,.07,1.37,.22,.39,.15,.68,.35,.87,.61s.32,.6,.39,1.03l-1.1,.15c-.05-.34-.2-.61-.43-.8-.24-.19-.58-.29-1.02-.29-.52,0-.89,.08-1.11,.26s-.33,.37-.33,.6c0,.15,.05,.28,.14,.39,.09,.12,.24,.22,.43,.3,.11,.04,.44,.14,.99,.29,.8,.21,1.35,.39,1.67,.52s.56,.33,.74,.59c.18,.26,.27,.58,.27,.96s-.11,.73-.33,1.06-.53,.59-.95,.77c-.41,.18-.88,.27-1.4,.27-.86,0-1.52-.18-1.97-.54-.45-.36-.74-.89-.87-1.59Z"/><path d="M487.52,446.65l.16,.99c-.32,.07-.6,.1-.85,.1-.41,0-.72-.07-.95-.19-.22-.13-.38-.3-.47-.51-.09-.21-.14-.65-.14-1.33v-3.82h-.83v-.88h.83v-1.64l1.12-.67v2.32h1.13v.88h-1.13v3.88c0,.32,.02,.53,.06,.62,.04,.09,.1,.17,.19,.22,.09,.05,.22,.08,.38,.08,.12,0,.29-.01,.49-.04Z"/><path d="M493.17,445.52l1.16,.14c-.18,.68-.52,1.21-1.02,1.58s-1.13,.56-1.9,.56c-.97,0-1.74-.3-2.31-.9-.57-.6-.85-1.44-.85-2.52s.29-1.98,.86-2.6c.58-.62,1.32-.92,2.24-.92s1.61,.3,2.18,.91c.56,.6,.84,1.45,.84,2.55,0,.07,0,.17,0,.3h-4.95c.04,.73,.25,1.29,.62,1.67s.83,.58,1.39,.58c.41,0,.76-.11,1.06-.32,.29-.22,.52-.56,.69-1.04Zm-3.69-1.82h3.71c-.05-.56-.19-.98-.43-1.26-.36-.43-.82-.65-1.39-.65-.52,0-.95,.17-1.3,.52-.35,.35-.55,.81-.58,1.39Z"/><path d="M495.74,447.66v-6.64h1.01v.93c.21-.33,.49-.59,.83-.78,.35-.2,.74-.3,1.18-.3,.49,0,.89,.1,1.21,.31,.31,.2,.54,.49,.67,.86,.53-.78,1.21-1.16,2.05-1.16,.66,0,1.17,.18,1.52,.55,.35,.36,.53,.93,.53,1.68v4.56h-1.12v-4.18c0-.45-.04-.77-.11-.97-.07-.2-.21-.36-.4-.48-.19-.12-.42-.18-.68-.18-.47,0-.85,.16-1.16,.47s-.46,.81-.46,1.49v3.86h-1.12v-4.31c0-.5-.09-.88-.27-1.12-.18-.25-.48-.38-.9-.38-.32,0-.61,.08-.88,.25s-.46,.41-.58,.73c-.12,.32-.18,.78-.18,1.39v3.44h-1.12Z"/><path d="M505.96,445.68l1.11-.17c.06,.45,.24,.79,.52,1.03,.29,.24,.68,.36,1.2,.36s.9-.1,1.15-.32c.25-.21,.38-.46,.38-.74,0-.25-.11-.45-.33-.6-.15-.1-.54-.23-1.15-.38-.83-.21-1.4-.39-1.72-.54-.32-.15-.56-.36-.72-.63-.17-.27-.25-.57-.25-.89,0-.3,.07-.57,.2-.82,.14-.25,.32-.46,.55-.63,.17-.13,.41-.24,.71-.33,.3-.09,.63-.13,.97-.13,.52,0,.98,.07,1.37,.22,.39,.15,.68,.35,.87,.61s.32,.6,.39,1.03l-1.1,.15c-.05-.34-.2-.61-.43-.8-.24-.19-.58-.29-1.02-.29-.52,0-.89,.08-1.11,.26s-.33,.37-.33,.6c0,.15,.05,.28,.14,.39,.09,.12,.24,.22,.43,.3,.11,.04,.44,.14,.99,.29,.8,.21,1.35,.39,1.67,.52s.56,.33,.74,.59c.18,.26,.27,.58,.27,.96s-.11,.73-.33,1.06-.53,.59-.95,.77c-.41,.18-.88,.27-1.4,.27-.86,0-1.52-.18-1.97-.54-.45-.36-.74-.89-.87-1.59Z"/><path d="M520.71,447.66v-.97c-.52,.75-1.22,1.12-2.11,1.12-.39,0-.76-.08-1.1-.23-.34-.15-.59-.34-.76-.57-.17-.23-.28-.5-.35-.83-.05-.22-.07-.57-.07-1.05v-4.11h1.12v3.68c0,.59,.02,.98,.07,1.19,.07,.3,.22,.53,.45,.7,.23,.17,.51,.25,.85,.25s.65-.09,.95-.26,.5-.41,.63-.71,.18-.73,.18-1.3v-3.56h1.12v6.64h-1.01Z"/><path d="M523.48,447.66v-6.64h1.01v.94c.49-.73,1.19-1.09,2.11-1.09,.4,0,.77,.07,1.1,.21,.33,.14,.59,.33,.75,.57,.17,.23,.28,.51,.35,.83,.04,.21,.06,.57,.06,1.09v4.08h-1.12v-4.04c0-.46-.04-.8-.13-1.03-.09-.23-.24-.41-.47-.54s-.48-.2-.78-.2c-.48,0-.89,.15-1.24,.46-.35,.3-.52,.88-.52,1.73v3.62h-1.12Z"/><path d="M534.91,447.66v-.84c-.42,.66-1.04,.99-1.86,.99-.53,0-1.02-.15-1.46-.44-.44-.29-.79-.7-1.03-1.22-.24-.52-.37-1.12-.37-1.8s.11-1.26,.33-1.8c.22-.54,.55-.95,.99-1.24,.44-.29,.94-.43,1.48-.43,.4,0,.76,.08,1.07,.25s.57,.39,.76,.66v-3.29h1.12v9.16h-1.04Zm-3.56-3.31c0,.85,.18,1.49,.54,1.91s.78,.63,1.27,.63,.91-.2,1.25-.6,.52-1.02,.52-1.84c0-.91-.17-1.58-.53-2-.35-.42-.78-.64-1.29-.64s-.92,.2-1.25,.61c-.33,.41-.5,1.05-.5,1.93Z"/><path d="M545.58,447.66v-.84c-.42,.66-1.04,.99-1.86,.99-.53,0-1.02-.15-1.46-.44-.44-.29-.79-.7-1.03-1.22-.24-.52-.37-1.12-.37-1.8s.11-1.26,.33-1.8c.22-.54,.55-.95,.99-1.24,.44-.29,.94-.43,1.48-.43,.4,0,.76,.08,1.07,.25s.57,.39,.76,.66v-3.29h1.12v9.16h-1.04Zm-3.56-3.31c0,.85,.18,1.49,.54,1.91s.78,.63,1.27,.63,.91-.2,1.25-.6,.52-1.02,.52-1.84c0-.91-.17-1.58-.53-2-.35-.42-.78-.64-1.29-.64s-.92,.2-1.25,.61c-.33,.41-.5,1.05-.5,1.93Z"/><path d="M552.94,445.52l1.16,.14c-.18,.68-.52,1.21-1.02,1.58s-1.13,.56-1.9,.56c-.97,0-1.74-.3-2.31-.9-.57-.6-.85-1.44-.85-2.52s.29-1.98,.86-2.6c.58-.62,1.32-.92,2.24-.92s1.61,.3,2.18,.91c.56,.6,.84,1.45,.84,2.55,0,.07,0,.17,0,.3h-4.95c.04,.73,.25,1.29,.62,1.67s.83,.58,1.39,.58c.41,0,.76-.11,1.06-.32,.29-.22,.52-.56,.69-1.04Zm-3.69-1.82h3.71c-.05-.56-.19-.98-.43-1.26-.36-.43-.82-.65-1.39-.65-.52,0-.95,.17-1.3,.52-.35,.35-.55,.81-.58,1.39Z"/><path d="M555.06,445.68l1.11-.17c.06,.45,.24,.79,.52,1.03,.29,.24,.68,.36,1.2,.36s.9-.1,1.15-.32c.25-.21,.38-.46,.38-.74,0-.25-.11-.45-.33-.6-.15-.1-.54-.23-1.15-.38-.83-.21-1.4-.39-1.72-.54-.32-.15-.56-.36-.72-.63-.17-.27-.25-.57-.25-.89,0-.3,.07-.57,.2-.82,.14-.25,.32-.46,.55-.63,.17-.13,.41-.24,.71-.33,.3-.09,.63-.13,.97-.13,.52,0,.98,.07,1.37,.22,.39,.15,.68,.35,.87,.61s.32,.6,.39,1.03l-1.1,.15c-.05-.34-.2-.61-.43-.8-.24-.19-.58-.29-1.02-.29-.52,0-.89,.08-1.11,.26s-.33,.37-.33,.6c0,.15,.05,.28,.14,.39,.09,.12,.24,.22,.43,.3,.11,.04,.44,.14,.99,.29,.8,.21,1.35,.39,1.67,.52s.56,.33,.74,.59c.18,.26,.27,.58,.27,.96s-.11,.73-.33,1.06-.53,.59-.95,.77c-.41,.18-.88,.27-1.4,.27-.86,0-1.52-.18-1.97-.54-.45-.36-.74-.89-.87-1.59Z"/><path d="M565.56,447.66v-9.16h3.44c.7,0,1.26,.09,1.68,.28,.42,.19,.75,.47,.99,.86,.24,.39,.36,.79,.36,1.21,0,.39-.11,.76-.32,1.11-.21,.35-.53,.62-.96,.84,.55,.16,.98,.44,1.28,.83s.45,.85,.45,1.39c0,.43-.09,.83-.27,1.2-.18,.37-.41,.65-.67,.85s-.6,.35-1,.45c-.4,.1-.89,.15-1.48,.15h-3.49Zm1.21-5.31h1.98c.54,0,.92-.04,1.16-.11,.31-.09,.54-.24,.7-.46s.23-.48,.23-.8-.07-.57-.22-.8c-.15-.23-.35-.39-.62-.47-.27-.08-.74-.13-1.39-.13h-1.83v2.77Zm0,4.23h2.28c.39,0,.67-.01,.82-.04,.28-.05,.51-.13,.7-.25,.19-.12,.34-.29,.46-.51,.12-.22,.18-.48,.18-.77,0-.34-.09-.64-.26-.89-.18-.25-.42-.43-.73-.53-.31-.1-.76-.15-1.34-.15h-2.12v3.15Z"/><path d="M578.55,445.52l1.16,.14c-.18,.68-.52,1.21-1.02,1.58s-1.13,.56-1.9,.56c-.97,0-1.74-.3-2.31-.9-.57-.6-.85-1.44-.85-2.52s.29-1.98,.86-2.6c.58-.62,1.32-.92,2.24-.92s1.61,.3,2.18,.91c.56,.6,.84,1.45,.84,2.55,0,.07,0,.17,0,.3h-4.95c.04,.73,.25,1.29,.62,1.67s.83,.58,1.39,.58c.41,0,.76-.11,1.06-.32,.29-.22,.52-.56,.69-1.04Zm-3.69-1.82h3.71c-.05-.56-.19-.98-.43-1.26-.36-.43-.82-.65-1.39-.65-.52,0-.95,.17-1.3,.52-.35,.35-.55,.81-.58,1.39Z"/><path d="M583.58,446.65l.16,.99c-.32,.07-.6,.1-.85,.1-.41,0-.72-.07-.95-.19-.22-.13-.38-.3-.47-.51-.09-.21-.14-.65-.14-1.33v-3.82h-.83v-.88h.83v-1.64l1.12-.67v2.32h1.13v.88h-1.13v3.88c0,.32,.02,.53,.06,.62,.04,.09,.1,.17,.19,.22,.09,.05,.22,.08,.38,.08,.12,0,.29-.01,.49-.04Z"/><path d="M584.67,447.66v-6.64h1.01v1.01c.26-.47,.5-.78,.72-.93s.46-.22,.72-.22c.38,0,.76,.12,1.16,.36l-.39,1.04c-.27-.16-.55-.24-.83-.24-.25,0-.47,.07-.66,.22-.2,.15-.34,.35-.42,.62-.12,.4-.19,.84-.19,1.31v3.47h-1.12Z"/><path d="M588.95,439.79v-1.29h1.12v1.29h-1.12Zm0,7.87v-6.64h1.12v6.64h-1.12Z"/><path d="M596.33,445.52l1.16,.14c-.18,.68-.52,1.21-1.02,1.58s-1.13,.56-1.9,.56c-.97,0-1.74-.3-2.31-.9-.57-.6-.85-1.44-.85-2.52s.29-1.98,.86-2.6c.58-.62,1.32-.92,2.24-.92s1.61,.3,2.18,.91c.56,.6,.84,1.45,.84,2.55,0,.07,0,.17,0,.3h-4.95c.04,.73,.25,1.29,.62,1.67s.83,.58,1.39,.58c.41,0,.76-.11,1.06-.32,.29-.22,.52-.56,.69-1.04Zm-3.69-1.82h3.71c-.05-.56-.19-.98-.43-1.26-.36-.43-.82-.65-1.39-.65-.52,0-.95,.17-1.3,.52-.35,.35-.55,.81-.58,1.39Z"/><path d="M599.94,447.66h-1.04v-9.16h1.12v3.27c.47-.6,1.08-.89,1.82-.89,.41,0,.79,.08,1.16,.25,.36,.17,.67,.4,.9,.69s.42,.66,.55,1.08c.13,.42,.2,.87,.2,1.35,0,1.14-.28,2.02-.84,2.64s-1.24,.93-2.03,.93-1.4-.33-1.84-.98v.83Zm-.01-3.37c0,.8,.11,1.37,.32,1.73,.35,.58,.83,.87,1.44,.87,.49,0,.92-.21,1.28-.64,.36-.43,.54-1.06,.54-1.91s-.17-1.51-.52-1.92c-.34-.41-.76-.62-1.25-.62s-.92,.21-1.28,.64-.54,1.04-.54,1.85Z"/><path d="M605.57,445.68l1.11-.17c.06,.45,.24,.79,.52,1.03,.29,.24,.68,.36,1.2,.36s.9-.1,1.15-.32c.25-.21,.38-.46,.38-.74,0-.25-.11-.45-.33-.6-.15-.1-.54-.23-1.15-.38-.83-.21-1.4-.39-1.72-.54-.32-.15-.56-.36-.72-.63-.17-.27-.25-.57-.25-.89,0-.3,.07-.57,.2-.82,.14-.25,.32-.46,.55-.63,.17-.13,.41-.24,.71-.33,.3-.09,.63-.13,.97-.13,.52,0,.98,.07,1.37,.22,.39,.15,.68,.35,.87,.61s.32,.6,.39,1.03l-1.1,.15c-.05-.34-.2-.61-.43-.8-.24-.19-.58-.29-1.02-.29-.52,0-.89,.08-1.11,.26s-.33,.37-.33,.6c0,.15,.05,.28,.14,.39,.09,.12,.24,.22,.43,.3,.11,.04,.44,.14,.99,.29,.8,.21,1.35,.39,1.67,.52s.56,.33,.74,.59c.18,.26,.27,.58,.27,.96s-.11,.73-.33,1.06-.53,.59-.95,.77c-.41,.18-.88,.27-1.4,.27-.86,0-1.52-.18-1.97-.54-.45-.36-.74-.89-.87-1.59Z"/><path d="M612.43,447.66v-9.16h1.12v5.22l2.66-2.7h1.46l-2.54,2.46,2.79,4.17h-1.39l-2.19-3.39-.79,.76v2.63h-1.12Z"/><path d="M618.41,444.34c0-1.23,.34-2.14,1.03-2.73,.57-.49,1.27-.74,2.09-.74,.91,0,1.66,.3,2.24,.9,.58,.6,.87,1.42,.87,2.48,0,.85-.13,1.53-.38,2.02-.26,.49-.63,.87-1.12,1.14-.49,.27-1.02,.41-1.6,.41-.93,0-1.68-.3-2.25-.89-.57-.6-.86-1.45-.86-2.57Zm1.16,0c0,.85,.19,1.49,.56,1.91,.37,.42,.84,.63,1.4,.63s1.02-.21,1.39-.64c.37-.43,.56-1.07,.56-1.94,0-.82-.19-1.44-.56-1.87s-.84-.63-1.39-.63-1.03,.21-1.4,.63c-.37,.42-.56,1.06-.56,1.91Z"/><path d="M625.94,447.66v-6.64h1.01v.94c.49-.73,1.19-1.09,2.11-1.09,.4,0,.77,.07,1.1,.21,.33,.14,.59,.33,.75,.57,.17,.23,.28,.51,.35,.83,.04,.21,.06,.57,.06,1.09v4.08h-1.12v-4.04c0-.46-.04-.8-.13-1.03-.09-.23-.24-.41-.47-.54s-.48-.2-.78-.2c-.48,0-.89,.15-1.24,.46-.35,.3-.52,.88-.52,1.73v3.62h-1.12Z"/><path d="M632.47,447.66v-.91l4.22-4.85c-.48,.03-.9,.04-1.27,.04h-2.71v-.91h5.42v.74l-3.59,4.21-.69,.77c.5-.04,.98-.06,1.42-.06h3.07v.97h-5.88Z"/><path d="M644.01,445.52l1.16,.14c-.18,.68-.52,1.21-1.02,1.58s-1.13,.56-1.9,.56c-.97,0-1.74-.3-2.31-.9-.57-.6-.85-1.44-.85-2.52s.29-1.98,.86-2.6c.58-.62,1.32-.92,2.24-.92s1.61,.3,2.18,.91c.56,.6,.84,1.45,.84,2.55,0,.07,0,.17,0,.3h-4.95c.04,.73,.25,1.29,.62,1.67s.83,.58,1.39,.58c.41,0,.76-.11,1.06-.32,.29-.22,.52-.56,.69-1.04Zm-3.69-1.82h3.71c-.05-.56-.19-.98-.43-1.26-.36-.43-.82-.65-1.39-.65-.52,0-.95,.17-1.3,.52-.35,.35-.55,.81-.58,1.39Z"/><path d="M646.58,450.2v-9.18h1.03v.86c.24-.34,.51-.59,.82-.76,.3-.17,.67-.25,1.11-.25,.57,0,1.07,.15,1.5,.44,.43,.29,.76,.7,.98,1.23,.22,.53,.33,1.11,.33,1.75,0,.68-.12,1.29-.37,1.83-.24,.54-.6,.96-1.06,1.25-.46,.29-.95,.43-1.46,.43-.38,0-.71-.08-1.01-.24s-.54-.36-.73-.6v3.23h-1.12Zm1.02-5.83c0,.85,.17,1.49,.52,1.89s.76,.61,1.26,.61,.93-.21,1.28-.63,.53-1.08,.53-1.97-.17-1.48-.52-1.9c-.35-.42-.76-.63-1.25-.63s-.9,.22-1.27,.67c-.37,.45-.55,1.1-.55,1.95Z"/><path d="M656.16,446.65l.16,.99c-.32,.07-.6,.1-.85,.1-.41,0-.72-.07-.95-.19-.22-.13-.38-.3-.47-.51-.09-.21-.14-.65-.14-1.33v-3.82h-.83v-.88h.83v-1.64l1.12-.67v2.32h1.13v.88h-1.13v3.88c0,.32,.02,.53,.06,.62,.04,.09,.1,.17,.19,.22,.09,.05,.22,.08,.38,.08,.12,0,.29-.01,.49-.04Z"/><path d="M656.8,445.68l1.11-.17c.06,.45,.24,.79,.52,1.03,.29,.24,.68,.36,1.2,.36s.9-.1,1.15-.32c.25-.21,.38-.46,.38-.74,0-.25-.11-.45-.33-.6-.15-.1-.54-.23-1.15-.38-.83-.21-1.4-.39-1.72-.54-.32-.15-.56-.36-.72-.63-.17-.27-.25-.57-.25-.89,0-.3,.07-.57,.2-.82,.14-.25,.32-.46,.55-.63,.17-.13,.41-.24,.71-.33,.3-.09,.63-.13,.97-.13,.52,0,.98,.07,1.37,.22,.39,.15,.68,.35,.87,.61s.32,.6,.39,1.03l-1.1,.15c-.05-.34-.2-.61-.43-.8-.24-.19-.58-.29-1.02-.29-.52,0-.89,.08-1.11,.26s-.33,.37-.33,.6c0,.15,.05,.28,.14,.39,.09,.12,.24,.22,.43,.3,.11,.04,.44,.14,.99,.29,.8,.21,1.35,.39,1.67,.52s.56,.33,.74,.59c.18,.26,.27,.58,.27,.96s-.11,.73-.33,1.06-.53,.59-.95,.77c-.41,.18-.88,.27-1.4,.27-.86,0-1.52-.18-1.97-.54-.45-.36-.74-.89-.87-1.59Z"/><path d="M439.55,455.15v-1.29h1.12v1.29h-1.12Zm0,7.87v-6.64h1.12v6.64h-1.12Z"/><path d="M442.39,463.02v-6.64h1.01v.94c.49-.73,1.19-1.09,2.11-1.09,.4,0,.77,.07,1.1,.21,.33,.14,.59,.33,.75,.57,.17,.23,.28,.51,.35,.83,.04,.21,.06,.57,.06,1.09v4.08h-1.12v-4.04c0-.46-.04-.8-.13-1.03-.09-.23-.24-.41-.47-.54s-.48-.2-.78-.2c-.48,0-.89,.15-1.24,.46-.35,.3-.52,.88-.52,1.73v3.62h-1.12Z"/><path d="M457.37,463.02v-.84c-.42,.66-1.04,.99-1.86,.99-.53,0-1.02-.15-1.46-.44-.44-.29-.79-.7-1.03-1.22-.24-.52-.37-1.12-.37-1.8s.11-1.26,.33-1.8c.22-.54,.55-.95,.99-1.24,.44-.29,.94-.43,1.48-.43,.4,0,.76,.08,1.07,.25s.57,.39,.76,.66v-3.29h1.12v9.16h-1.04Zm-3.56-3.31c0,.85,.18,1.49,.54,1.91s.78,.63,1.27,.63,.91-.2,1.25-.6,.52-1.02,.52-1.84c0-.91-.17-1.58-.53-2-.35-.42-.78-.64-1.29-.64s-.92,.2-1.25,.61c-.33,.41-.5,1.05-.5,1.93Z"/><path d="M460.19,455.15v-1.29h1.12v1.29h-1.12Zm0,7.87v-6.64h1.12v6.64h-1.12Z"/><path d="M467.57,460.88l1.16,.14c-.18,.68-.52,1.21-1.02,1.58s-1.13,.56-1.9,.56c-.97,0-1.74-.3-2.31-.9-.57-.6-.85-1.44-.85-2.52s.29-1.98,.86-2.6c.58-.62,1.32-.92,2.24-.92s1.61,.3,2.18,.91c.56,.6,.84,1.45,.84,2.55,0,.07,0,.17,0,.3h-4.95c.04,.73,.25,1.29,.62,1.67s.83,.58,1.39,.58c.41,0,.76-.11,1.06-.32,.29-.22,.52-.56,.69-1.04Zm-3.69-1.82h3.71c-.05-.56-.19-.98-.43-1.26-.36-.43-.82-.65-1.39-.65-.52,0-.95,.17-1.3,.52-.35,.35-.55,.81-.58,1.39Z"/><path d="M473.71,465.56v-9.18h1.03v.86c.24-.34,.51-.59,.82-.76,.3-.17,.67-.25,1.11-.25,.57,0,1.07,.15,1.5,.44,.43,.29,.76,.7,.98,1.23,.22,.53,.33,1.11,.33,1.75,0,.68-.12,1.29-.37,1.83-.24,.54-.6,.96-1.06,1.25-.46,.29-.95,.43-1.46,.43-.38,0-.71-.08-1.01-.24s-.54-.36-.73-.6v3.23h-1.12Zm1.02-5.83c0,.85,.17,1.49,.52,1.89s.76,.61,1.26,.61,.93-.21,1.28-.63,.53-1.08,.53-1.97-.17-1.48-.52-1.9c-.35-.42-.76-.63-1.25-.63s-.9,.22-1.27,.67c-.37,.45-.55,1.1-.55,1.95Z"/><path d="M480.81,463.02v-6.64h1.01v1.01c.26-.47,.5-.78,.72-.93s.46-.22,.72-.22c.38,0,.76,.12,1.16,.36l-.39,1.04c-.27-.16-.55-.24-.83-.24-.25,0-.47,.07-.66,.22-.2,.15-.34,.35-.42,.62-.12,.4-.19,.84-.19,1.31v3.47h-1.12Z"/><path d="M484.67,459.7c0-1.23,.34-2.14,1.03-2.73,.57-.49,1.27-.74,2.09-.74,.91,0,1.66,.3,2.24,.9,.58,.6,.87,1.42,.87,2.48,0,.85-.13,1.53-.38,2.02-.26,.49-.63,.87-1.12,1.14-.49,.27-1.02,.41-1.6,.41-.93,0-1.68-.3-2.25-.89-.57-.6-.86-1.45-.86-2.57Zm1.16,0c0,.85,.19,1.49,.56,1.91,.37,.42,.84,.63,1.4,.63s1.02-.21,1.39-.64c.37-.43,.56-1.07,.56-1.94,0-.82-.19-1.44-.56-1.87s-.84-.63-1.39-.63-1.03,.21-1.4,.63c-.37,.42-.56,1.06-.56,1.91Z"/><path d="M496.51,463.02v-.84c-.42,.66-1.04,.99-1.86,.99-.53,0-1.02-.15-1.46-.44-.44-.29-.79-.7-1.03-1.22-.24-.52-.37-1.12-.37-1.8s.11-1.26,.33-1.8c.22-.54,.55-.95,.99-1.24,.44-.29,.94-.43,1.48-.43,.4,0,.76,.08,1.07,.25s.57,.39,.76,.66v-3.29h1.12v9.16h-1.04Zm-3.56-3.31c0,.85,.18,1.49,.54,1.91s.78,.63,1.27,.63,.91-.2,1.25-.6,.52-1.02,.52-1.84c0-.91-.17-1.58-.53-2-.35-.42-.78-.64-1.29-.64s-.92,.2-1.25,.61c-.33,.41-.5,1.05-.5,1.93Z"/><path d="M503.67,463.02v-.97c-.52,.75-1.22,1.12-2.11,1.12-.39,0-.76-.08-1.1-.23-.34-.15-.59-.34-.76-.57-.17-.23-.28-.5-.35-.83-.05-.22-.07-.57-.07-1.05v-4.11h1.12v3.68c0,.59,.02,.98,.07,1.19,.07,.3,.22,.53,.45,.7,.23,.17,.51,.25,.85,.25s.65-.09,.95-.26,.5-.41,.63-.71,.18-.73,.18-1.3v-3.56h1.12v6.64h-1.01Z"/><path d="M506.45,463.02v-9.16h1.12v5.22l2.66-2.7h1.46l-2.54,2.46,2.79,4.17h-1.39l-2.19-3.39-.79,.76v2.63h-1.12Z"/><path d="M515.3,462.01l.16,.99c-.32,.07-.6,.1-.85,.1-.41,0-.72-.07-.95-.19-.22-.13-.38-.3-.47-.51-.09-.21-.14-.65-.14-1.33v-3.82h-.83v-.88h.83v-1.64l1.12-.67v2.32h1.13v.88h-1.13v3.88c0,.32,.02,.53,.06,.62,.04,.09,.1,.17,.19,.22,.09,.05,.22,.08,.38,.08,.12,0,.29-.01,.49-.04Z"/><path d="M516.4,455.15v-1.29h1.12v1.29h-1.12Zm0,7.87v-6.64h1.12v6.64h-1.12Z"/><path d="M521.09,463.02l-2.53-6.64h1.19l1.43,3.98c.15,.43,.29,.88,.42,1.34,.1-.35,.24-.77,.42-1.26l1.47-4.05h1.16l-2.51,6.64h-1.05Z"/><path d="M530.19,460.88l1.16,.14c-.18,.68-.52,1.21-1.02,1.58s-1.13,.56-1.9,.56c-.97,0-1.74-.3-2.31-.9-.57-.6-.85-1.44-.85-2.52s.29-1.98,.86-2.6c.58-.62,1.32-.92,2.24-.92s1.61,.3,2.18,.91c.56,.6,.84,1.45,.84,2.55,0,.07,0,.17,0,.3h-4.95c.04,.73,.25,1.29,.62,1.67s.83,.58,1.39,.58c.41,0,.76-.11,1.06-.32,.29-.22,.52-.56,.69-1.04Zm-3.69-1.82h3.71c-.05-.56-.19-.98-.43-1.26-.36-.43-.82-.65-1.39-.65-.52,0-.95,.17-1.3,.52-.35,.35-.55,.81-.58,1.39Z"/><path d="M542.47,453.86h1.21v5.29c0,.92-.1,1.65-.31,2.19-.21,.54-.58,.98-1.13,1.32-.54,.34-1.26,.51-2.14,.51s-1.56-.15-2.11-.44c-.55-.3-.94-.72-1.17-1.29-.23-.56-.35-1.33-.35-2.3v-5.29h1.21v5.29c0,.8,.07,1.38,.22,1.76,.15,.38,.4,.67,.76,.87,.36,.21,.8,.31,1.32,.31,.89,0,1.53-.2,1.91-.61,.38-.4,.57-1.18,.57-2.33v-5.29Z"/><path d="M545.56,463.02v-6.64h1.01v.93c.21-.33,.49-.59,.83-.78,.35-.2,.74-.3,1.18-.3,.49,0,.89,.1,1.21,.31,.31,.2,.54,.49,.67,.86,.53-.78,1.21-1.16,2.05-1.16,.66,0,1.17,.18,1.52,.55,.35,.36,.53,.93,.53,1.68v4.56h-1.12v-4.18c0-.45-.04-.77-.11-.97-.07-.2-.21-.36-.4-.48-.19-.12-.42-.18-.68-.18-.47,0-.85,.16-1.16,.47s-.46,.81-.46,1.49v3.86h-1.12v-4.31c0-.5-.09-.88-.27-1.12-.18-.25-.48-.38-.9-.38-.32,0-.61,.08-.88,.25s-.46,.41-.58,.73c-.12,.32-.18,.78-.18,1.39v3.44h-1.12Z"/><path d="M556.02,463.57l1.09,.16c.05,.34,.17,.58,.38,.74,.28,.21,.66,.31,1.14,.31,.52,0,.92-.1,1.21-.31,.28-.21,.47-.5,.57-.88,.06-.23,.09-.71,.08-1.44-.49,.58-1.1,.87-1.84,.87-.91,0-1.62-.33-2.12-.99s-.75-1.45-.75-2.37c0-.63,.12-1.22,.34-1.75,.23-.54,.56-.95,1-1.24,.44-.29,.95-.44,1.53-.44,.78,0,1.43,.32,1.94,.95v-.8h1.04v5.74c0,1.03-.11,1.77-.32,2.2-.21,.43-.54,.77-1,1.02-.46,.25-1.02,.38-1.68,.38-.79,0-1.43-.18-1.92-.53s-.72-.89-.71-1.61Zm.93-3.99c0,.87,.17,1.51,.52,1.91,.35,.4,.78,.6,1.3,.6s.95-.2,1.3-.6c.35-.4,.53-1.02,.53-1.87s-.18-1.42-.54-1.84c-.36-.41-.79-.62-1.3-.62s-.93,.2-1.28,.61-.53,1.01-.53,1.81Z"/><path d="M567.89,460.88l1.16,.14c-.18,.68-.52,1.21-1.02,1.58s-1.13,.56-1.9,.56c-.97,0-1.74-.3-2.31-.9-.57-.6-.85-1.44-.85-2.52s.29-1.98,.86-2.6c.58-.62,1.32-.92,2.24-.92s1.61,.3,2.18,.91c.56,.6,.84,1.45,.84,2.55,0,.07,0,.17,0,.3h-4.95c.04,.73,.25,1.29,.62,1.67s.83,.58,1.39,.58c.41,0,.76-.11,1.06-.32,.29-.22,.52-.56,.69-1.04Zm-3.69-1.82h3.71c-.05-.56-.19-.98-.43-1.26-.36-.43-.82-.65-1.39-.65-.52,0-.95,.17-1.3,.52-.35,.35-.55,.81-.58,1.39Z"/><path d="M571.5,463.02h-1.04v-9.16h1.12v3.27c.47-.6,1.08-.89,1.82-.89,.41,0,.79,.08,1.16,.25,.36,.17,.67,.4,.9,.69s.42,.66,.55,1.08c.13,.42,.2,.87,.2,1.35,0,1.14-.28,2.02-.84,2.64s-1.24,.93-2.03,.93-1.4-.33-1.84-.98v.83Zm-.01-3.37c0,.8,.11,1.37,.32,1.73,.35,.58,.83,.87,1.44,.87,.49,0,.92-.21,1.28-.64,.36-.43,.54-1.06,.54-1.91s-.17-1.51-.52-1.92c-.34-.41-.76-.62-1.25-.62s-.92,.21-1.28,.64-.54,1.04-.54,1.85Z"/><path d="M581.93,463.02v-.97c-.52,.75-1.22,1.12-2.11,1.12-.39,0-.76-.08-1.1-.23-.34-.15-.59-.34-.76-.57-.17-.23-.28-.5-.35-.83-.05-.22-.07-.57-.07-1.05v-4.11h1.12v3.68c0,.59,.02,.98,.07,1.19,.07,.3,.22,.53,.45,.7,.23,.17,.51,.25,.85,.25s.65-.09,.95-.26,.5-.41,.63-.71,.18-.73,.18-1.3v-3.56h1.12v6.64h-1.01Z"/><path d="M584.7,463.02v-6.64h1.01v.94c.49-.73,1.19-1.09,2.11-1.09,.4,0,.77,.07,1.1,.21,.33,.14,.59,.33,.75,.57,.17,.23,.28,.51,.35,.83,.04,.21,.06,.57,.06,1.09v4.08h-1.12v-4.04c0-.46-.04-.8-.13-1.03-.09-.23-.24-.41-.47-.54s-.48-.2-.78-.2c-.48,0-.89,.15-1.24,.46-.35,.3-.52,.88-.52,1.73v3.62h-1.12Z"/><path d="M591.61,463.57l1.09,.16c.05,.34,.17,.58,.38,.74,.28,.21,.66,.31,1.14,.31,.52,0,.92-.1,1.21-.31,.28-.21,.47-.5,.57-.88,.06-.23,.09-.71,.08-1.44-.49,.58-1.1,.87-1.84,.87-.91,0-1.62-.33-2.12-.99s-.75-1.45-.75-2.37c0-.63,.12-1.22,.34-1.75,.23-.54,.56-.95,1-1.24,.44-.29,.95-.44,1.53-.44,.78,0,1.43,.32,1.94,.95v-.8h1.04v5.74c0,1.03-.11,1.77-.32,2.2-.21,.43-.54,.77-1,1.02-.46,.25-1.02,.38-1.68,.38-.79,0-1.43-.18-1.92-.53s-.72-.89-.71-1.61Zm.93-3.99c0,.87,.17,1.51,.52,1.91,.35,.4,.78,.6,1.3,.6s.95-.2,1.3-.6c.35-.4,.53-1.02,.53-1.87s-.18-1.42-.54-1.84c-.36-.41-.79-.62-1.3-.62s-.93,.2-1.28,.61-.53,1.01-.53,1.81Z"/><path d="M604.64,465.71c-.62-.78-1.15-1.7-1.58-2.75-.43-1.05-.64-2.14-.64-3.26,0-.99,.16-1.94,.48-2.85,.38-1.05,.95-2.1,1.74-3.15h.81c-.5,.87-.84,1.49-1,1.86-.25,.58-.45,1.18-.6,1.8-.18,.78-.27,1.56-.27,2.35,0,2,.62,4.01,1.87,6.01h-.81Z"/><path d="M606.46,463.02v-1.31h1.21v1.03c0,.56-.06,.96-.19,1.21-.18,.34-.46,.59-.84,.76l-.28-.44c.23-.09,.39-.24,.5-.43,.11-.2,.17-.47,.18-.82h-.59Zm1.94,0v-1.31h1.21v1.03c0,.56-.06,.96-.19,1.21-.18,.34-.46,.59-.84,.76l-.28-.44c.23-.09,.39-.24,.5-.43,.11-.2,.17-.47,.18-.82h-.59Z"/><path d="M615.45,459.43v-1.08h3.88s0,3.39,0,3.39c-.6,.48-1.21,.83-1.84,1.07-.63,.24-1.28,.36-1.95,.36-.9,0-1.72-.19-2.45-.58s-1.29-.94-1.67-1.67-.56-1.54-.56-2.44,.19-1.72,.56-2.5c.37-.77,.91-1.35,1.61-1.72,.7-.38,1.51-.56,2.42-.56,.66,0,1.26,.11,1.8,.32,.54,.21,.96,.51,1.26,.9,.3,.38,.54,.88,.69,1.5l-1.09,.3c-.14-.47-.31-.83-.51-1.1-.2-.27-.5-.48-.88-.64-.38-.16-.8-.24-1.26-.24-.55,0-1.03,.08-1.44,.25-.4,.17-.73,.39-.98,.67-.25,.27-.44,.58-.58,.91-.23,.57-.35,1.18-.35,1.84,0,.82,.14,1.5,.42,2.05s.69,.96,1.23,1.22c.54,.27,1.11,.4,1.71,.4,.52,0,1.04-.1,1.54-.3s.88-.42,1.14-.65v-1.71h-2.69Z"/><path d="M620.55,459.7c0-1.23,.34-2.14,1.03-2.73,.57-.49,1.27-.74,2.09-.74,.91,0,1.66,.3,2.24,.9,.58,.6,.87,1.42,.87,2.48,0,.85-.13,1.53-.38,2.02-.26,.49-.63,.87-1.12,1.14-.49,.27-1.02,.41-1.6,.41-.93,0-1.68-.3-2.25-.89-.57-.6-.86-1.45-.86-2.57Zm1.16,0c0,.85,.19,1.49,.56,1.91,.37,.42,.84,.63,1.4,.63s1.02-.21,1.39-.64c.37-.43,.56-1.07,.56-1.94,0-.82-.19-1.44-.56-1.87s-.84-.63-1.39-.63-1.03,.21-1.4,.63c-.37,.42-.56,1.06-.56,1.91Z"/><path d="M631.74,463.02v-9.16h1.21v8.08h4.51v1.08h-5.72Z"/><path d="M638.77,455.15v-1.29h1.12v1.29h-1.12Zm0,7.87v-6.64h1.12v6.64h-1.12Z"/><path d="M643.46,463.02l-2.53-6.64h1.19l1.43,3.98c.15,.43,.29,.88,.42,1.34,.1-.35,.24-.77,.42-1.26l1.47-4.05h1.16l-2.51,6.64h-1.05Z"/><path d="M652.55,460.88l1.16,.14c-.18,.68-.52,1.21-1.02,1.58s-1.13,.56-1.9,.56c-.97,0-1.74-.3-2.31-.9-.57-.6-.85-1.44-.85-2.52s.29-1.98,.86-2.6c.58-.62,1.32-.92,2.24-.92s1.61,.3,2.18,.91c.56,.6,.84,1.45,.84,2.55,0,.07,0,.17,0,.3h-4.95c.04,.73,.25,1.29,.62,1.67s.83,.58,1.39,.58c.41,0,.76-.11,1.06-.32,.29-.22,.52-.56,.69-1.04Zm-3.69-1.82h3.71c-.05-.56-.19-.98-.43-1.26-.36-.43-.82-.65-1.39-.65-.52,0-.95,.17-1.3,.52-.35,.35-.55,.81-.58,1.39Z"/><path d="M656.01,455.39v1.31h-1.21v-1.03c0-.56,.07-.96,.2-1.21,.17-.33,.45-.58,.83-.76l.28,.44c-.23,.1-.4,.24-.51,.43s-.17,.47-.18,.83h.59Zm1.94,0v1.31h-1.21v-1.03c0-.56,.07-.96,.2-1.21,.17-.33,.45-.58,.83-.76l.28,.44c-.23,.1-.4,.24-.51,.43s-.17,.47-.18,.83h.59Z"/><path d="M660.13,465.71h-.81c1.25-2,1.87-4,1.87-6.01,0-.78-.09-1.56-.27-2.33-.14-.62-.34-1.23-.59-1.8-.16-.38-.5-1-1.01-1.88h.81c.78,1.05,1.36,2.1,1.74,3.15,.32,.91,.48,1.86,.48,2.85,0,1.12-.22,2.21-.65,3.26-.43,1.05-.96,1.97-1.57,2.75Z"/></g><g><g><rect x="69" y="50" width="225" height="50" style="fill:#fff; stroke:#000; stroke-width:2px;"/><text transform="translate(131.59 79.61)" style="font-family:ArialMT, Arial; font-size:15.82px;"><tspan x="0" y="0" style="letter-spacing:0em;">P</tspan><tspan x="10.57" y="0" style="letter-spacing:0em;">l</tspan><tspan x="14.05" y="0" style="letter-spacing:0em;">an</tspan><tspan x="31.68" y="0" style="letter-spacing:0em;">u</tspan><tspan x="40.53" y="0" style="letter-spacing:0em;">n</tspan><tspan x="49.35" y="0">gs</tspan><tspan x="66.06" y="0" style="letter-spacing:0em;">p</tspan><tspan x="74.89" y="0" style="letter-spacing:0em;">ha</tspan><tspan x="92.52" y="0">se</tspan></text></g><g><rect x="194" y="125" width="225" height="50" style="fill:#fff; stroke:#000; stroke-width:2px;"/><text transform="translate(251.5 154.61)" style="font-family:ArialMT, Arial; font-size:15.82px;"><tspan x="0" y="0" style="letter-spacing:0em;">D</tspan><tspan x="11.36" y="0" style="letter-spacing:0em;">e</tspan><tspan x="20.18" y="0" style="letter-spacing:0em;">f</tspan><tspan x="24.51" y="0" style="letter-spacing:0em;">i</tspan><tspan x="28" y="0" style="letter-spacing:0em;">n</tspan><tspan x="36.83" y="0" style="letter-spacing:0em;">i</tspan><tspan x="40.31" y="0" style="letter-spacing:0em;">t</tspan><tspan x="44.66" y="0" style="letter-spacing:0em;">i</tspan><tspan x="48.14" y="0" style="letter-spacing:0em;">o</tspan><tspan x="56.99" y="0" style="letter-spacing:0em;">n</tspan><tspan x="65.82" y="0">s</tspan><tspan x="73.73" y="0" style="letter-spacing:0em;">ph</tspan><tspan x="91.4" y="0" style="letter-spacing:0em;">a</tspan><tspan x="100.21" y="0">se</tspan></text></g><g><rect x="319" y="200" width="225" height="50" style="fill:#fff; stroke:#000; stroke-width:2px;"/><text transform="translate(379.26 229.22)" style="font-family:ArialMT, Arial; font-size:15.82px;"><tspan x="0" y="0" style="letter-spacing:0em;">En</tspan><tspan x="19.38" y="0" style="letter-spacing:-.01em;">t</tspan><tspan x="23.56" y="0">w</tspan><tspan x="34.99" y="0" style="letter-spacing:0em;">u</tspan><tspan x="43.83" y="0" style="letter-spacing:0em;">r</tspan><tspan x="49.1" y="0" style="letter-spacing:0em;">f</tspan><tspan x="53.42" y="0">s</tspan><tspan x="61.33" y="0" style="letter-spacing:0em;">ph</tspan><tspan x="78.96" y="0">ase</tspan></text></g><g><rect x="444" y="275" width="225" height="50" style="fill:#fff; stroke:#000; stroke-width:2px;"/><text transform="translate(471.98 304.22)" style="font-family:ArialMT, Arial; font-size:15.82px;"><tspan x="0" y="0" style="letter-spacing:0em;">I</tspan><tspan x="4.36" y="0" style="letter-spacing:0em;">m</tspan><tspan x="17.56" y="0" style="letter-spacing:0em;">p</tspan><tspan x="26.39" y="0" style="letter-spacing:0em;">l</tspan><tspan x="29.89" y="0" style="letter-spacing:0em;">em</tspan><tspan x="51.9" y="0">e</tspan><tspan x="60.7" y="0" style="letter-spacing:0em;">n</tspan><tspan x="69.53" y="0" style="letter-spacing:0em;">t</tspan><tspan x="73.88" y="0" style="letter-spacing:0em;">i</tspan><tspan x="77.38" y="0">er</tspan><tspan x="91.45" y="0" style="letter-spacing:0em;">u</tspan><tspan x="100.31" y="0" style="letter-spacing:0em;">n</tspan><tspan x="109.13" y="0">gs</tspan><tspan x="125.84" y="0" style="letter-spacing:0em;">ph</tspan><tspan x="143.5" y="0" style="letter-spacing:0em;">a</tspan><tspan x="152.32" y="0">se</tspan></text></g><g><rect x="569" y="350" width="225" height="50" style="fill:#fff; stroke:#000; stroke-width:2px;"/><text transform="translate(626.03 379.22)" style="font-family:ArialMT, Arial; font-size:15.82px;"><tspan x="0" y="0">A</tspan><tspan x="10.55" y="0" style="letter-spacing:0em;">b</tspan><tspan x="19.38" y="0" style="letter-spacing:0em;">n</tspan><tspan x="28.2" y="0">a</tspan><tspan x="37" y="0" style="letter-spacing:0em;">hm</tspan><tspan x="59.01" y="0">e</tspan><tspan x="67.81" y="0" style="letter-spacing:0em;">p</tspan><tspan x="76.64" y="0" style="letter-spacing:0em;">h</tspan><tspan x="85.46" y="0">ase</tspan></text></g><g><rect x="694" y="425" width="225" height="50" style="fill:#fff; stroke:#000; stroke-width:2px;"/><text transform="translate(755.91 454.22)" style="font-family:ArialMT, Arial; font-size:15.82px;"><tspan x="0" y="0" style="letter-spacing:0em;">B</tspan><tspan x="10.49" y="0" style="letter-spacing:0em;">e</tspan><tspan x="19.31" y="0" style="letter-spacing:0em;">t</tspan><tspan x="23.65" y="0">r</tspan><tspan x="28.92" y="0" style="letter-spacing:0em;">i</tspan><tspan x="32.42" y="0" style="letter-spacing:0em;">e</tspan><tspan x="41.24" y="0" style="letter-spacing:0em;">b</tspan><tspan x="50.07" y="0">s</tspan><tspan x="57.98" y="0" style="letter-spacing:0em;">ph</tspan><tspan x="75.64" y="0" style="letter-spacing:0em;">a</tspan><tspan x="84.46" y="0">se</tspan></text></g></g><text transform="translate(341.59 100)" style="fill:#0333ff; font-family:Arial-BoldMT, Arial; font-size:14px; font-weight:700;"><tspan x="0" y="0">G</tspan><tspan x="10.89" y="0" style="letter-spacing:0em;">r</tspan><tspan x="16.44" y="0" style="letter-spacing:0em;">o</tspan><tspan x="25.07" y="0" style="letter-spacing:0em;">b</tspan><tspan x="33.61" y="0" style="letter-spacing:0em;">k</tspan><tspan x="41.45" y="0" style="letter-spacing:0em;">o</tspan><tspan x="50.09" y="0" style="letter-spacing:0em;">n</tspan><tspan x="58.58" y="0" style="letter-spacing:0em;">z</tspan><tspan x="65.62" y="0" style="letter-spacing:0em;">e</tspan><tspan x="73.37" y="0" style="letter-spacing:0em;">p</tspan><tspan x="81.91" y="0">t</tspan></text><text transform="translate(471.98 175)" style="fill:#0333ff; font-family:Arial-BoldMT, Arial; font-size:14px; font-weight:700; letter-spacing:0em;"><tspan x="0" y="0">Fachkonzept</tspan></text><text transform="translate(596.96 250)" style="fill:#0333ff; font-family:Arial-BoldMT, Arial; font-size:14px; font-weight:700; letter-spacing:0em;"><tspan x="0" y="0">Technisches Design</tspan></text><text transform="translate(721.71 325)" style="fill:#0333ff; font-family:Arial-BoldMT, Arial; font-size:14px; font-weight:700; letter-spacing:0em;"><tspan x="0" y="0">Testbare Version</tspan></text><text transform="translate(842.18 400)" style="fill:#0333ff; font-family:Arial-BoldMT, Arial; font-size:14px; font-weight:700; letter-spacing:0em;"><tspan x="0" y="0">Finale Version</tspan></text></svg>