<?xml version="1.0" encoding="UTF-8"?>
<svg id="Ebene_1" data-name="Ebene 1" xmlns="http://www.w3.org/2000/svg" viewBox="0 0 988 525">
  <defs>
    <style>
      .cls-1, .cls-2 {
        fill: none;
      }

      .cls-1, .cls-2, .cls-3 {
        stroke-miterlimit: 10;
      }

      .cls-1, .cls-3 {
        stroke: #1d1d1b;
      }

      .cls-4 {
        fill: #0333ff;
      }

      .cls-2 {
        stroke: #0333ff;
      }

      .cls-2, .cls-3 {
        stroke-width: 2px;
      }

      .cls-5 {
        font-size: 18px;
      }

      .cls-5, .cls-6 {
        font-family: ArialMT, Arial;
      }

      .cls-6 {
        font-size: 20px;
      }

      .cls-7 {
        letter-spacing: 0em;
      }

      .cls-8, .cls-3 {
        fill: #fff;
      }

      .cls-9 {
        letter-spacing: 0em;
      }

      .cls-10 {
        letter-spacing: -.03em;
      }

      .cls-11 {
        letter-spacing: -.02em;
      }

      .cls-12 {
        letter-spacing: -.02em;
      }

      .cls-13 {
        letter-spacing: -.02em;
      }

      .cls-14 {
        letter-spacing: -.02em;
      }

      .cls-15 {
        letter-spacing: -.01em;
      }

      .cls-16 {
        letter-spacing: -.01em;
      }

      .cls-17 {
        letter-spacing: -.02em;
      }

      .cls-18 {
        letter-spacing: -.03em;
      }

      .cls-19 {
        letter-spacing: 0em;
      }

      .cls-20 {
        letter-spacing: 0em;
      }

      .cls-21 {
        letter-spacing: 0em;
      }

      .cls-22 {
        letter-spacing: 0em;
      }

      .cls-23 {
        letter-spacing: 0em;
      }

      .cls-24 {
        letter-spacing: 0em;
      }

      .cls-25 {
        letter-spacing: 0em;
      }

      .cls-26 {
        letter-spacing: 0em;
      }

      .cls-27 {
        letter-spacing: 0em;
      }

      .cls-28 {
        letter-spacing: -.01em;
      }

      .cls-29 {
        letter-spacing: 0em;
      }

      .cls-30 {
        letter-spacing: 0em;
      }

      .cls-31 {
        letter-spacing: -.01em;
      }

      .cls-32 {
        letter-spacing: -.01em;
      }

      .cls-33 {
        letter-spacing: 0em;
      }

      .cls-34 {
        letter-spacing: 0em;
      }

      .cls-35 {
        letter-spacing: 0em;
      }

      .cls-36 {
        letter-spacing: 0em;
      }

      .cls-37 {
        letter-spacing: 0em;
      }

      .cls-38 {
        letter-spacing: 0em;
      }

      .cls-39 {
        letter-spacing: 0em;
      }

      .cls-40 {
        letter-spacing: 0em;
      }

      .cls-41 {
        letter-spacing: 0em;
      }

      .cls-42 {
        letter-spacing: 0em;
      }

      .cls-43 {
        letter-spacing: 0em;
      }

      .cls-44 {
        letter-spacing: 0em;
      }

      .cls-45 {
        letter-spacing: 0em;
      }

      .cls-46 {
        letter-spacing: 0em;
      }

      .cls-47 {
        letter-spacing: 0em;
      }
    </style>
  </defs>
  <text class="cls-6" transform="translate(117.42 82.29)"><tspan class="cls-11" x="0" y="0">E</tspan><tspan class="cls-10" x="12.91" y="0">n</tspan><tspan class="cls-20" x="23.49" y="0">v</tspan><tspan class="cls-36" x="33.36" y="0">i</tspan><tspan class="cls-19" x="37.61" y="0">r</tspan><tspan class="cls-24" x="44.14" y="0">o</tspan><tspan class="cls-28" x="55.15" y="0">n</tspan><tspan class="cls-21" x="66.05" y="0">m</tspan><tspan class="cls-35" x="82.58" y="0">e</tspan><tspan class="cls-14" x="93.54" y="0">n</tspan><tspan x="104.3" y="0">t</tspan></text>
  <text class="cls-6" transform="translate(748.03 82.29)"><tspan class="cls-46" x="0" y="0">K</tspan><tspan class="cls-42" x="13.44" y="0">n</tspan><tspan class="cls-16" x="24.42" y="0">o</tspan><tspan class="cls-44" x="35.26" y="0">w</tspan><tspan class="cls-43" x="49.64" y="0">l</tspan><tspan class="cls-23" x="53.94" y="0">e</tspan><tspan class="cls-34" x="64.96" y="0">d</tspan><tspan class="cls-22" x="75.91" y="0">g</tspan><tspan x="86.91" y="0">e </tspan><tspan class="cls-40" x="103.59" y="0">B</tspan><tspan class="cls-28" x="116.78" y="0">a</tspan><tspan class="cls-41" x="127.67" y="0">s</tspan><tspan x="137.51" y="0">e</tspan></text>
  <rect class="cls-3" x="697.35" y="109.87" width="250" height="350"/>
  <rect class="cls-3" x="47.35" y="109.87" width="250" height="350"/>
  <g>
    <path d="M72.54,153.29l4.95-12.88h1.84l5.27,12.88h-1.94l-1.5-3.9h-5.39l-1.42,3.9h-1.81ZM76.26,148h4.37l-1.34-3.57c-.41-1.08-.71-1.97-.91-2.67-.16.83-.4,1.65-.69,2.46l-1.42,3.78Z"/>
    <path d="M85.89,156.86v-12.91h1.44v1.21c.34-.47.72-.83,1.15-1.07.43-.24.95-.36,1.56-.36.8,0,1.5.21,2.11.62s1.07.99,1.38,1.74c.31.75.47,1.57.47,2.46,0,.96-.17,1.82-.51,2.58-.34.77-.84,1.35-1.49,1.76-.65.41-1.34.61-2.06.61-.53,0-1-.11-1.42-.33s-.76-.5-1.03-.84v4.54h-1.58ZM87.32,148.67c0,1.2.24,2.09.73,2.66s1.07.86,1.77.86,1.31-.3,1.81-.89c.5-.59.75-1.52.75-2.76s-.25-2.08-.73-2.67-1.07-.89-1.75-.89-1.27.32-1.79.94c-.52.63-.78,1.55-.78,2.75Z"/>
    <path d="M95.79,156.86v-12.91h1.44v1.21c.34-.47.72-.83,1.15-1.07.43-.24.95-.36,1.55-.36.8,0,1.5.21,2.11.62s1.07.99,1.38,1.74c.31.75.46,1.57.46,2.46,0,.96-.17,1.82-.51,2.58-.34.77-.84,1.35-1.49,1.76-.65.41-1.34.61-2.06.61-.53,0-1-.11-1.42-.33s-.76-.5-1.03-.84v4.54h-1.58ZM97.22,148.67c0,1.2.24,2.09.73,2.66s1.08.86,1.77.86,1.3-.3,1.81-.89c.5-.59.75-1.52.75-2.76s-.24-2.08-.73-2.67-1.07-.89-1.75-.89-1.27.32-1.79.94c-.52.63-.78,1.55-.78,2.75Z"/>
    <path d="M105.66,153.29v-12.88h1.58v12.88h-1.58Z"/>
    <path d="M109.49,142.22v-1.82h1.58v1.82h-1.58ZM109.49,153.29v-9.33h1.58v9.33h-1.58Z"/>
    <path d="M119.46,149.87l1.56.2c-.17,1.07-.6,1.91-1.31,2.52-.7.61-1.56.91-2.58.91-1.28,0-2.3-.42-3.08-1.25-.78-.84-1.16-2.03-1.16-3.59,0-1.01.17-1.89.5-2.65s.84-1.32,1.52-1.7c.68-.38,1.43-.57,2.23-.57,1.01,0,1.84.26,2.49.77s1.06,1.24,1.24,2.18l-1.54.24c-.15-.63-.41-1.1-.78-1.42-.37-.32-.82-.47-1.35-.47-.8,0-1.44.29-1.94.86-.5.57-.75,1.47-.75,2.71s.24,2.17.72,2.73,1.11.85,1.88.85c.62,0,1.14-.19,1.56-.57s.68-.97.79-1.76Z"/>
    <path d="M128.64,152.14c-.59.5-1.15.85-1.69,1.05s-1.12.31-1.74.31c-1.03,0-1.81-.25-2.37-.75-.55-.5-.83-1.14-.83-1.92,0-.46.1-.88.31-1.25.21-.38.48-.68.82-.91s.72-.4,1.14-.52c.31-.08.78-.16,1.41-.24,1.28-.15,2.22-.33,2.82-.54,0-.22,0-.35,0-.41,0-.64-.15-1.1-.45-1.36-.4-.36-1.01-.54-1.8-.54-.74,0-1.29.13-1.65.39s-.62.72-.79,1.38l-1.55-.21c.14-.66.37-1.2.69-1.6.32-.41.79-.72,1.4-.94.61-.22,1.31-.33,2.12-.33s1.45.09,1.94.28.86.42,1.1.71c.23.29.4.64.49,1.08.05.27.08.76.08,1.46v2.11c0,1.47.03,2.4.1,2.79.07.39.2.76.4,1.12h-1.65c-.16-.33-.27-.71-.32-1.15ZM128.51,148.6c-.57.23-1.44.43-2.58.6-.65.09-1.11.2-1.38.32s-.48.29-.62.51-.22.48-.22.75c0,.42.16.77.48,1.05s.79.42,1.4.42,1.15-.13,1.63-.4.82-.63,1.04-1.09c.17-.36.26-.88.26-1.58v-.58Z"/>
    <path d="M135.74,151.87l.23,1.4c-.45.09-.84.14-1.2.14-.57,0-1.02-.09-1.34-.27s-.54-.42-.67-.72-.19-.92-.19-1.87v-5.37h-1.16v-1.23h1.16v-2.31l1.57-.95v3.26h1.59v1.23h-1.59v5.46c0,.45.03.74.08.87s.15.23.27.31.31.11.54.11c.18,0,.41-.02.69-.06Z"/>
    <path d="M137.23,142.22v-1.82h1.58v1.82h-1.58ZM137.23,153.29v-9.33h1.58v9.33h-1.58Z"/>
    <path d="M140.57,148.62c0-1.73.48-3.01,1.44-3.84.8-.69,1.78-1.04,2.94-1.04,1.28,0,2.33.42,3.15,1.26s1.22,2,1.22,3.48c0,1.2-.18,2.15-.54,2.83-.36.69-.88,1.22-1.57,1.6-.69.38-1.44.57-2.25.57-1.31,0-2.36-.42-3.17-1.26-.81-.84-1.21-2.04-1.21-3.62ZM142.19,148.62c0,1.2.26,2.09.78,2.68.52.6,1.18.89,1.97.89s1.44-.3,1.96-.9.78-1.51.78-2.73c0-1.15-.26-2.03-.79-2.62-.52-.59-1.18-.89-1.96-.89s-1.45.3-1.97.89-.78,1.49-.78,2.68Z"/>
    <path d="M151.08,153.29v-9.33h1.42v1.33c.69-1.03,1.68-1.54,2.97-1.54.56,0,1.08.1,1.55.3.47.2.83.47,1.06.8s.4.72.49,1.17c.06.29.09.81.09,1.54v5.74h-1.58v-5.68c0-.64-.06-1.13-.18-1.45s-.34-.57-.65-.77c-.31-.19-.68-.29-1.1-.29-.67,0-1.26.21-1.74.64-.49.43-.73,1.24-.73,2.43v5.1h-1.58Z"/>
    <path d="M172.15,153.29v-1.18c-.59.93-1.46,1.39-2.61,1.39-.74,0-1.43-.21-2.05-.62-.62-.41-1.11-.98-1.45-1.72-.34-.73-.51-1.58-.51-2.54s.16-1.78.47-2.54.78-1.34,1.4-1.75,1.32-.61,2.08-.61c.56,0,1.06.12,1.5.36.44.24.8.55,1.07.93v-4.62h1.57v12.88h-1.47ZM167.15,148.63c0,1.2.25,2.09.76,2.68s1.1.89,1.78.89,1.28-.28,1.76-.85c.48-.57.72-1.43.72-2.59,0-1.28-.25-2.21-.74-2.81s-1.1-.9-1.82-.9-1.29.29-1.76.86c-.47.57-.71,1.48-.71,2.72Z"/>
    <path d="M175.39,148.62c0-1.73.48-3.01,1.44-3.84.8-.69,1.78-1.04,2.94-1.04,1.28,0,2.33.42,3.15,1.26s1.22,2,1.22,3.48c0,1.2-.18,2.15-.54,2.83-.36.69-.88,1.22-1.57,1.6s-1.44.57-2.25.57c-1.31,0-2.36-.42-3.17-1.26s-1.21-2.04-1.21-3.62ZM177.02,148.62c0,1.2.26,2.09.78,2.68.52.6,1.18.89,1.97.89s1.44-.3,1.96-.9.78-1.51.78-2.73c0-1.15-.26-2.03-.79-2.62-.52-.59-1.18-.89-1.96-.89s-1.45.3-1.97.89-.78,1.49-.78,2.68Z"/>
    <path d="M185.9,153.29v-9.33h1.42v1.31c.29-.46.68-.82,1.17-1.1s1.04-.42,1.66-.42c.69,0,1.26.14,1.7.43s.75.69.94,1.2c.74-1.09,1.7-1.63,2.88-1.63.93,0,1.64.26,2.13.77s.75,1.3.75,2.37v6.41h-1.57v-5.88c0-.63-.05-1.09-.15-1.37s-.29-.5-.56-.67-.59-.25-.95-.25c-.66,0-1.2.22-1.63.65-.43.44-.65,1.14-.65,2.1v5.42h-1.58v-6.06c0-.7-.13-1.23-.39-1.58s-.68-.53-1.27-.53c-.45,0-.86.12-1.24.35s-.65.58-.82,1.03-.26,1.1-.26,1.95v4.84h-1.58Z"/>
    <path d="M206.85,152.14c-.59.5-1.15.85-1.69,1.05s-1.12.31-1.75.31c-1.03,0-1.81-.25-2.36-.75-.55-.5-.83-1.14-.83-1.92,0-.46.1-.88.31-1.25.21-.38.48-.68.82-.91s.72-.4,1.14-.52c.31-.08.78-.16,1.41-.24,1.28-.15,2.22-.33,2.82-.54,0-.22,0-.35,0-.41,0-.64-.15-1.1-.45-1.36-.4-.36-1-.54-1.8-.54-.74,0-1.29.13-1.65.39s-.62.72-.79,1.38l-1.55-.21c.14-.66.37-1.2.7-1.6.32-.41.79-.72,1.4-.94.61-.22,1.32-.33,2.12-.33s1.44.09,1.94.28.87.42,1.1.71c.23.29.4.64.49,1.08.05.27.08.76.08,1.46v2.11c0,1.47.03,2.4.1,2.79.07.39.2.76.4,1.12h-1.65c-.16-.33-.27-.71-.32-1.15ZM206.72,148.6c-.57.23-1.44.43-2.58.6-.65.09-1.11.2-1.38.32s-.48.29-.62.51-.22.48-.22.75c0,.42.16.77.48,1.05s.79.42,1.4.42,1.15-.13,1.62-.4.82-.63,1.05-1.09c.17-.36.25-.88.25-1.58v-.58Z"/>
    <path d="M210.59,142.22v-1.82h1.58v1.82h-1.58ZM210.59,153.29v-9.33h1.58v9.33h-1.58Z"/>
    <path d="M214.41,153.29v-9.33h1.42v1.33c.69-1.03,1.68-1.54,2.97-1.54.56,0,1.08.1,1.55.3.47.2.82.47,1.06.8s.4.72.49,1.17c.06.29.09.81.09,1.54v5.74h-1.58v-5.68c0-.64-.06-1.13-.18-1.45s-.34-.57-.66-.77c-.31-.19-.68-.29-1.1-.29-.67,0-1.26.21-1.75.64s-.73,1.24-.73,2.43v5.1h-1.58Z"/>
    <path d="M73.14,179.42v-1.59h4.86v1.59h-4.86Z"/>
    <path d="M91.96,183.29v-12.88h4.86c.86,0,1.51.04,1.96.12.63.11,1.16.31,1.59.6.43.3.77.71,1.03,1.24.26.53.39,1.12.39,1.76,0,1.1-.35,2.02-1.05,2.78-.7.76-1.96,1.14-3.78,1.14h-3.3v5.24h-1.71ZM93.66,176.53h3.33c1.1,0,1.88-.21,2.35-.62s.69-.99.69-1.73c0-.54-.14-1-.41-1.38-.27-.38-.63-.64-1.08-.76-.29-.08-.82-.11-1.59-.11h-3.3v4.61Z"/>
    <path d="M109.74,180.28l1.63.2c-.26.96-.74,1.7-1.43,2.22s-1.59.79-2.67.79c-1.37,0-2.45-.42-3.25-1.26-.8-.84-1.2-2.02-1.2-3.54s.4-2.79,1.21-3.66,1.86-1.3,3.15-1.3,2.27.42,3.06,1.27,1.19,2.04,1.19,3.59c0,.09,0,.23,0,.42h-6.96c.06,1.03.35,1.81.87,2.36s1.17.82,1.95.82c.58,0,1.08-.15,1.49-.46s.74-.79.98-1.46ZM104.54,177.72h5.21c-.07-.79-.27-1.37-.6-1.77-.5-.61-1.16-.91-1.96-.91-.73,0-1.34.24-1.83.73-.49.49-.77,1.14-.82,1.95Z"/>
    <path d="M112.69,178.62c0-1.73.48-3.01,1.44-3.84.8-.69,1.78-1.04,2.94-1.04,1.28,0,2.33.42,3.15,1.26s1.22,2,1.22,3.48c0,1.2-.18,2.15-.54,2.83-.36.69-.88,1.22-1.57,1.6-.69.38-1.44.57-2.25.57-1.31,0-2.36-.42-3.17-1.26-.81-.84-1.21-2.04-1.21-3.62ZM114.32,178.62c0,1.2.26,2.09.78,2.68.52.6,1.18.89,1.97.89s1.44-.3,1.96-.9.78-1.51.78-2.73c0-1.15-.26-2.03-.79-2.62-.52-.59-1.18-.89-1.96-.89s-1.45.3-1.97.89-.78,1.49-.78,2.68Z"/>
    <path d="M123.2,186.86v-12.91h1.44v1.21c.34-.47.72-.83,1.15-1.07.43-.24.95-.36,1.56-.36.8,0,1.5.21,2.11.62s1.07.99,1.38,1.74c.31.75.47,1.57.47,2.46,0,.96-.17,1.82-.51,2.58-.34.77-.84,1.35-1.49,1.76-.65.41-1.34.61-2.06.61-.53,0-1-.11-1.42-.33s-.76-.5-1.03-.84v4.54h-1.58ZM124.63,178.67c0,1.2.24,2.09.73,2.66s1.07.86,1.77.86,1.31-.3,1.81-.89c.5-.59.75-1.52.75-2.76s-.25-2.08-.73-2.67-1.07-.89-1.75-.89-1.27.32-1.79.94c-.52.63-.78,1.55-.78,2.75Z"/>
    <path d="M133.07,183.29v-12.88h1.58v12.88h-1.58Z"/>
    <path d="M143.38,180.28l1.63.2c-.26.96-.74,1.7-1.43,2.22s-1.59.79-2.67.79c-1.37,0-2.45-.42-3.25-1.26-.8-.84-1.2-2.02-1.2-3.54s.4-2.79,1.21-3.66,1.86-1.3,3.15-1.3,2.27.42,3.06,1.27,1.19,2.04,1.19,3.59c0,.09,0,.23,0,.42h-6.96c.06,1.03.35,1.81.87,2.36s1.17.82,1.95.82c.58,0,1.08-.15,1.49-.46s.74-.79.98-1.46ZM138.18,177.72h5.21c-.07-.79-.27-1.37-.6-1.77-.5-.61-1.16-.91-1.96-.91-.73,0-1.34.24-1.83.73-.49.49-.77,1.14-.82,1.95Z"/>
    <path d="M73.14,201.42v-1.59h4.86v1.59h-4.86Z"/>
    <path d="M91.44,199.01c0-2.14.57-3.81,1.72-5.02,1.15-1.21,2.63-1.81,4.45-1.81,1.19,0,2.26.28,3.22.85s1.68,1.36,2.18,2.38c.5,1.02.75,2.17.75,3.46s-.26,2.48-.79,3.51-1.27,1.81-2.24,2.34c-.97.53-2.01.8-3.13.8-1.21,0-2.3-.29-3.25-.88s-1.68-1.39-2.17-2.4-.74-2.09-.74-3.22ZM93.2,199.04c0,1.55.42,2.78,1.25,3.67.83.89,1.88,1.34,3.14,1.34s2.34-.45,3.17-1.35c.83-.9,1.24-2.18,1.24-3.84,0-1.05-.18-1.96-.53-2.75-.35-.78-.87-1.39-1.55-1.82-.68-.43-1.45-.65-2.3-.65-1.21,0-2.25.42-3.12,1.24-.87.83-1.31,2.21-1.31,4.15Z"/>
    <path d="M105.8,205.29v-9.33h1.42v1.42c.36-.66.7-1.1,1.01-1.31.31-.21.65-.32,1.01-.32.53,0,1.08.17,1.63.51l-.54,1.47c-.39-.23-.77-.34-1.16-.34-.35,0-.66.1-.93.31s-.47.5-.59.87c-.18.56-.26,1.18-.26,1.85v4.89h-1.58Z"/>
    <path d="M111.42,206.06l1.54.23c.06.47.24.82.54,1.04.39.29.93.44,1.61.44.73,0,1.3-.15,1.7-.44s.67-.7.81-1.23c.08-.32.12-1,.11-2.03-.69.81-1.55,1.22-2.58,1.22-1.28,0-2.28-.46-2.98-1.39s-1.05-2.04-1.05-3.33c0-.89.16-1.71.48-2.47.32-.75.79-1.33,1.4-1.74.61-.41,1.33-.62,2.16-.62,1.1,0,2.01.45,2.72,1.34v-1.12h1.46v8.07c0,1.45-.15,2.48-.44,3.09-.3.61-.77,1.08-1.41,1.44-.64.35-1.43.53-2.37.53-1.11,0-2.01-.25-2.7-.75-.69-.5-1.02-1.26-.99-2.26ZM112.73,200.45c0,1.22.24,2.12.73,2.68s1.1.84,1.83.84,1.34-.28,1.83-.84.74-1.44.74-2.63-.25-2-.76-2.58c-.51-.58-1.12-.87-1.83-.87s-1.3.29-1.79.86c-.49.57-.74,1.42-.74,2.54Z"/>
    <path d="M127.69,204.14c-.59.5-1.15.85-1.69,1.05-.54.21-1.12.31-1.75.31-1.03,0-1.81-.25-2.36-.75-.55-.5-.83-1.14-.83-1.92,0-.46.1-.88.31-1.25.21-.38.48-.68.82-.91.34-.23.72-.4,1.14-.52.31-.08.78-.16,1.41-.24,1.28-.15,2.22-.33,2.82-.54,0-.22,0-.35,0-.41,0-.64-.15-1.1-.45-1.36-.4-.36-1-.54-1.8-.54-.74,0-1.29.13-1.65.39-.35.26-.62.72-.79,1.38l-1.55-.21c.14-.66.37-1.2.69-1.6.32-.41.79-.72,1.4-.94.61-.22,1.32-.33,2.12-.33s1.44.09,1.94.28.86.42,1.1.71c.23.29.4.64.49,1.08.05.27.08.76.08,1.46v2.11c0,1.47.03,2.4.1,2.79.07.39.2.76.4,1.12h-1.65c-.16-.33-.27-.71-.32-1.15ZM127.56,200.6c-.57.23-1.44.43-2.58.6-.65.09-1.11.2-1.38.32s-.48.29-.62.51-.22.48-.22.75c0,.42.16.77.48,1.05.32.28.79.42,1.4.42s1.15-.13,1.63-.4.82-.63,1.05-1.09c.17-.36.25-.88.25-1.58v-.58Z"/>
    <path d="M131.44,205.29v-9.33h1.42v1.33c.69-1.03,1.68-1.54,2.97-1.54.56,0,1.08.1,1.55.3.47.2.82.47,1.06.8s.4.72.49,1.17c.06.29.09.81.09,1.54v5.74h-1.58v-5.68c0-.64-.06-1.13-.18-1.45s-.34-.57-.66-.77c-.31-.19-.68-.29-1.1-.29-.67,0-1.25.21-1.75.64-.49.43-.73,1.24-.73,2.43v5.1h-1.58Z"/>
    <path d="M141.27,194.22v-1.82h1.58v1.82h-1.58ZM141.27,205.29v-9.33h1.58v9.33h-1.58Z"/>
    <path d="M144.23,205.29v-1.28l5.94-6.82c-.67.04-1.27.05-1.78.05h-3.81v-1.28h7.63v1.05l-5.05,5.92-.98,1.08c.71-.05,1.37-.08,2-.08h4.32v1.36h-8.26Z"/>
    <path d="M160.18,204.14c-.59.5-1.15.85-1.69,1.05-.54.21-1.12.31-1.74.31-1.03,0-1.81-.25-2.36-.75-.55-.5-.83-1.14-.83-1.92,0-.46.1-.88.31-1.25.21-.38.48-.68.82-.91.34-.23.72-.4,1.14-.52.31-.08.78-.16,1.41-.24,1.28-.15,2.22-.33,2.82-.54,0-.22,0-.35,0-.41,0-.64-.15-1.1-.45-1.36-.4-.36-1-.54-1.8-.54-.74,0-1.29.13-1.65.39-.36.26-.62.72-.79,1.38l-1.55-.21c.14-.66.37-1.2.69-1.6.32-.41.79-.72,1.4-.94.61-.22,1.32-.33,2.12-.33s1.44.09,1.94.28.86.42,1.1.71c.23.29.4.64.49,1.08.05.27.08.76.08,1.46v2.11c0,1.47.03,2.4.1,2.79.07.39.2.76.4,1.12h-1.65c-.16-.33-.27-.71-.32-1.15ZM160.05,200.6c-.57.23-1.44.43-2.58.6-.65.09-1.11.2-1.38.32s-.48.29-.62.51-.22.48-.22.75c0,.42.16.77.48,1.05.32.28.79.42,1.4.42s1.15-.13,1.63-.4.82-.63,1.05-1.09c.17-.36.25-.88.25-1.58v-.58Z"/>
    <path d="M167.29,203.87l.23,1.4c-.45.09-.84.14-1.2.14-.57,0-1.02-.09-1.34-.27s-.54-.42-.67-.72-.19-.92-.19-1.87v-5.37h-1.16v-1.23h1.16v-2.31l1.57-.95v3.26h1.59v1.23h-1.59v5.46c0,.45.03.74.08.87s.15.23.27.31.31.11.54.11c.18,0,.41-.02.7-.06Z"/>
    <path d="M168.78,194.22v-1.82h1.58v1.82h-1.58ZM168.78,205.29v-9.33h1.58v9.33h-1.58Z"/>
    <path d="M172.11,200.62c0-1.73.48-3.01,1.44-3.84.8-.69,1.78-1.04,2.94-1.04,1.28,0,2.33.42,3.15,1.26s1.22,2,1.22,3.48c0,1.2-.18,2.15-.54,2.83-.36.69-.88,1.22-1.57,1.6-.69.38-1.44.57-2.25.57-1.31,0-2.36-.42-3.17-1.26-.8-.84-1.21-2.04-1.21-3.62ZM173.74,200.62c0,1.2.26,2.09.78,2.68.52.6,1.18.89,1.97.89s1.44-.3,1.96-.9.78-1.51.78-2.73c0-1.15-.26-2.03-.79-2.62-.53-.59-1.18-.89-1.96-.89s-1.45.3-1.97.89-.78,1.49-.78,2.68Z"/>
    <path d="M182.62,205.29v-9.33h1.42v1.33c.69-1.03,1.68-1.54,2.97-1.54.56,0,1.08.1,1.55.3.47.2.83.47,1.06.8s.4.72.49,1.17c.06.29.09.81.09,1.54v5.74h-1.58v-5.68c0-.64-.06-1.13-.19-1.45s-.34-.57-.65-.77c-.31-.19-.68-.29-1.1-.29-.67,0-1.25.21-1.74.64s-.73,1.24-.73,2.43v5.1h-1.58Z"/>
    <path d="M191.82,202.5l1.56-.25c.09.63.33,1.11.73,1.44s.96.5,1.68.5,1.27-.15,1.62-.44.53-.64.53-1.04c0-.36-.15-.64-.46-.84-.22-.14-.76-.32-1.62-.54-1.16-.29-1.96-.55-2.41-.76s-.79-.51-1.02-.89c-.23-.38-.35-.79-.35-1.25,0-.42.09-.8.29-1.16.19-.35.45-.65.78-.88.25-.18.58-.33,1.01-.46s.88-.19,1.37-.19c.73,0,1.38.11,1.93.32s.96.5,1.23.86c.26.36.45.84.54,1.45l-1.55.21c-.07-.48-.27-.86-.61-1.12s-.81-.4-1.43-.4c-.73,0-1.25.12-1.56.36s-.46.52-.46.84c0,.21.06.39.19.55.13.17.33.31.61.42.16.06.62.19,1.4.4,1.12.3,1.9.54,2.34.73s.79.47,1.04.83.38.81.38,1.35-.15,1.02-.46,1.49c-.31.46-.75.83-1.33,1.08-.58.26-1.24.38-1.97.38-1.21,0-2.14-.25-2.77-.76s-1.04-1.25-1.22-2.24Z"/>
    <path d="M73.14,223.42v-1.59h4.86v1.59h-4.86Z"/>
    <path d="M92.25,227.29v-12.88h1.71v12.88h-1.71Z"/>
    <path d="M100.02,227.29v-11.36h-4.25v-1.52h10.21v1.52h-4.26v11.36h-1.71Z"/>
    <path d="M111.9,224.5l1.56-.25c.09.63.33,1.11.73,1.44.4.33.96.5,1.68.5s1.27-.15,1.62-.44.53-.64.53-1.04c0-.36-.16-.64-.47-.84-.22-.14-.76-.32-1.62-.54-1.16-.29-1.96-.55-2.41-.76-.45-.21-.79-.51-1.02-.89-.23-.38-.35-.79-.35-1.25,0-.42.09-.8.29-1.16.19-.35.45-.65.78-.88.25-.18.58-.33,1.01-.46.43-.13.88-.19,1.37-.19.73,0,1.38.11,1.93.32.55.21.96.5,1.23.86.26.36.45.84.54,1.45l-1.55.21c-.07-.48-.27-.86-.61-1.12-.34-.27-.81-.4-1.43-.4-.73,0-1.25.12-1.56.36s-.47.52-.47.84c0,.21.06.39.19.55.13.17.33.31.61.42.16.06.62.19,1.4.4,1.12.3,1.9.54,2.34.73.44.19.79.47,1.04.83s.38.81.38,1.35-.15,1.02-.46,1.49c-.31.46-.75.83-1.33,1.08-.58.26-1.24.38-1.97.38-1.21,0-2.14-.25-2.77-.76-.64-.5-1.04-1.25-1.22-2.24Z"/>
    <path d="M121.05,230.88l-.18-1.49c.35.09.65.14.91.14.35,0,.63-.06.84-.18s.38-.28.52-.49c.1-.16.26-.55.48-1.18.03-.09.08-.22.14-.39l-3.54-9.35h1.71l1.94,5.41c.25.69.48,1.41.68,2.16.18-.73.4-1.44.65-2.13l2-5.44h1.58l-3.55,9.49c-.38,1.03-.68,1.73-.89,2.12-.28.52-.6.9-.97,1.15-.36.24-.8.36-1.3.36-.3,0-.64-.06-1.02-.19Z"/>
    <path d="M129.28,224.5l1.56-.25c.09.63.33,1.11.73,1.44.4.33.96.5,1.68.5s1.27-.15,1.62-.44.53-.64.53-1.04c0-.36-.16-.64-.47-.84-.22-.14-.76-.32-1.62-.54-1.16-.29-1.96-.55-2.41-.76-.45-.21-.79-.51-1.02-.89-.23-.38-.35-.79-.35-1.25,0-.42.09-.8.29-1.16.19-.35.45-.65.78-.88.25-.18.58-.33,1.01-.46.43-.13.88-.19,1.37-.19.73,0,1.38.11,1.93.32.55.21.96.5,1.23.86.26.36.45.84.54,1.45l-1.55.21c-.07-.48-.27-.86-.61-1.12-.34-.27-.81-.4-1.43-.4-.73,0-1.25.12-1.56.36s-.47.52-.47.84c0,.21.06.39.19.55.13.17.33.31.61.42.16.06.62.19,1.4.4,1.12.3,1.9.54,2.34.73.44.19.79.47,1.04.83s.38.81.38,1.35-.15,1.02-.46,1.49c-.31.46-.75.83-1.33,1.08-.58.26-1.24.38-1.97.38-1.21,0-2.14-.25-2.77-.76-.64-.5-1.04-1.25-1.22-2.24Z"/>
    <path d="M142.15,225.87l.23,1.4c-.45.09-.84.14-1.2.14-.57,0-1.02-.09-1.34-.27s-.54-.42-.67-.72-.19-.92-.19-1.87v-5.37h-1.16v-1.23h1.16v-2.31l1.57-.95v3.26h1.59v1.23h-1.59v5.46c0,.45.03.74.08.87s.15.23.27.31.31.11.54.11c.18,0,.41-.02.7-.06Z"/>
    <path d="M149.81,224.28l1.63.2c-.26.96-.73,1.7-1.43,2.22s-1.59.79-2.67.79c-1.37,0-2.45-.42-3.25-1.26-.8-.84-1.2-2.02-1.2-3.54s.4-2.79,1.21-3.66,1.86-1.3,3.15-1.3,2.27.42,3.06,1.27,1.19,2.04,1.19,3.59c0,.09,0,.23,0,.42h-6.96c.06,1.03.35,1.81.87,2.36s1.17.82,1.95.82c.58,0,1.08-.15,1.49-.46s.73-.79.97-1.46ZM144.61,221.72h5.21c-.07-.79-.27-1.37-.6-1.77-.5-.61-1.16-.91-1.96-.91-.73,0-1.34.24-1.83.73s-.77,1.14-.82,1.95Z"/>
    <path d="M153.29,227.29v-9.33h1.42v1.31c.29-.46.68-.82,1.17-1.1s1.04-.42,1.66-.42c.69,0,1.26.14,1.7.43.44.29.75.69.94,1.2.74-1.09,1.7-1.63,2.88-1.63.93,0,1.64.26,2.14.77s.75,1.3.75,2.37v6.41h-1.57v-5.88c0-.63-.05-1.09-.15-1.37-.1-.28-.29-.5-.56-.67s-.59-.25-.95-.25c-.66,0-1.2.22-1.63.65-.43.44-.65,1.14-.65,2.1v5.42h-1.58v-6.06c0-.7-.13-1.23-.39-1.58s-.68-.53-1.27-.53c-.45,0-.86.12-1.24.35-.38.23-.65.58-.82,1.03s-.25,1.1-.25,1.95v4.84h-1.58Z"/>
    <path d="M167.51,224.5l1.56-.25c.09.63.33,1.11.73,1.44.4.33.96.5,1.68.5s1.27-.15,1.62-.44.53-.64.53-1.04c0-.36-.16-.64-.47-.84-.22-.14-.76-.32-1.62-.54-1.16-.29-1.96-.55-2.41-.76-.45-.21-.79-.51-1.02-.89-.23-.38-.35-.79-.35-1.25,0-.42.09-.8.29-1.16.19-.35.45-.65.78-.88.25-.18.58-.33,1.01-.46.43-.13.88-.19,1.37-.19.73,0,1.38.11,1.93.32.55.21.96.5,1.23.86.26.36.45.84.54,1.45l-1.55.21c-.07-.48-.27-.86-.61-1.12-.34-.27-.81-.4-1.43-.4-.73,0-1.25.12-1.56.36s-.47.52-.47.84c0,.21.06.39.19.55.13.17.33.31.61.42.16.06.62.19,1.4.4,1.12.3,1.9.54,2.34.73.44.19.79.47,1.04.83s.38.81.38,1.35-.15,1.02-.46,1.49c-.31.46-.75.83-1.33,1.08-.58.26-1.24.38-1.97.38-1.21,0-2.14-.25-2.77-.76-.64-.5-1.04-1.25-1.22-2.24Z"/>
    <path d="M73.14,245.42v-1.59h4.86v1.59h-4.86Z"/>
    <path d="M91.96,249.29v-12.88h4.86c.86,0,1.51.04,1.96.12.63.11,1.16.31,1.59.6.43.3.77.71,1.03,1.24.26.53.39,1.12.39,1.76,0,1.1-.35,2.02-1.05,2.78-.7.76-1.96,1.14-3.78,1.14h-3.3v5.24h-1.71ZM93.66,242.53h3.33c1.1,0,1.88-.21,2.35-.62s.69-.99.69-1.73c0-.54-.14-1-.41-1.38-.27-.38-.63-.64-1.08-.76-.29-.08-.82-.11-1.59-.11h-3.3v4.61Z"/>
    <path d="M103.47,249.29v-9.33h1.42v1.42c.36-.66.7-1.1,1.01-1.31s.65-.32,1.01-.32c.53,0,1.08.17,1.63.51l-.54,1.47c-.39-.23-.77-.34-1.16-.34-.35,0-.66.1-.93.31s-.47.5-.59.87c-.18.56-.26,1.18-.26,1.85v4.89h-1.58Z"/>
    <path d="M108.79,244.62c0-1.73.48-3.01,1.44-3.84.8-.69,1.78-1.04,2.94-1.04,1.28,0,2.33.42,3.15,1.26s1.22,2,1.22,3.48c0,1.2-.18,2.15-.54,2.83-.36.69-.88,1.22-1.57,1.6s-1.44.57-2.25.57c-1.31,0-2.36-.42-3.17-1.26s-1.21-2.04-1.21-3.62ZM110.42,244.62c0,1.2.26,2.09.78,2.68.52.6,1.18.89,1.97.89s1.44-.3,1.96-.9.78-1.51.78-2.73c0-1.15-.26-2.03-.79-2.62-.52-.59-1.18-.89-1.96-.89s-1.45.3-1.97.89-.78,1.49-.78,2.68Z"/>
    <path d="M120.76,249.29h-1.47v-12.88h1.58v4.6c.67-.84,1.52-1.26,2.56-1.26.57,0,1.12.12,1.63.35s.93.56,1.27.97c.33.42.59.92.78,1.52s.28,1.22.28,1.9c0,1.6-.39,2.84-1.19,3.71s-1.74,1.31-2.85,1.31-1.97-.46-2.59-1.38v1.17ZM120.74,244.55c0,1.12.15,1.93.46,2.43.5.81,1.17,1.22,2.02,1.22.69,0,1.29-.3,1.79-.9s.76-1.5.76-2.69-.24-2.12-.72-2.7-1.07-.87-1.75-.87-1.29.3-1.79.9c-.5.6-.76,1.47-.76,2.61Z"/>
    <path d="M129.16,249.29v-12.88h1.58v12.88h-1.58Z"/>
    <path d="M139.47,246.28l1.63.2c-.26.96-.74,1.7-1.43,2.22s-1.59.79-2.67.79c-1.37,0-2.45-.42-3.25-1.26-.8-.84-1.2-2.02-1.2-3.54s.4-2.79,1.21-3.66,1.86-1.3,3.15-1.3,2.27.42,3.06,1.27,1.19,2.04,1.19,3.59c0,.09,0,.23,0,.42h-6.96c.06,1.03.35,1.81.87,2.36s1.17.82,1.95.82c.58,0,1.07-.15,1.48-.46s.74-.79.98-1.46ZM134.28,243.72h5.21c-.07-.79-.27-1.37-.6-1.77-.5-.61-1.16-.91-1.96-.91-.73,0-1.34.24-1.83.73s-.77,1.14-.82,1.95Z"/>
    <path d="M142.96,249.29v-9.33h1.42v1.31c.29-.46.68-.82,1.17-1.1s1.04-.42,1.66-.42c.69,0,1.26.14,1.7.43.44.29.75.69.94,1.2.74-1.09,1.7-1.63,2.88-1.63.93,0,1.64.26,2.14.77s.75,1.3.75,2.37v6.41h-1.57v-5.88c0-.63-.05-1.09-.15-1.37-.1-.28-.29-.5-.56-.67s-.59-.25-.95-.25c-.66,0-1.2.22-1.63.65-.43.44-.65,1.14-.65,2.1v5.42h-1.58v-6.06c0-.7-.13-1.23-.39-1.58s-.68-.53-1.27-.53c-.45,0-.86.12-1.23.35-.38.23-.65.58-.82,1.03s-.25,1.1-.25,1.95v4.84h-1.58Z"/>
    <path d="M157.17,246.5l1.56-.25c.09.63.33,1.11.73,1.44.4.33.96.5,1.68.5s1.27-.15,1.62-.44.53-.64.53-1.04c0-.36-.16-.64-.47-.84-.22-.14-.76-.32-1.62-.54-1.16-.29-1.96-.55-2.41-.76-.45-.21-.79-.51-1.02-.89-.23-.38-.35-.79-.35-1.25,0-.42.1-.8.29-1.16.19-.35.45-.65.78-.88.25-.18.58-.33,1.01-.46.42-.13.88-.19,1.37-.19.73,0,1.38.11,1.93.32.55.21.96.5,1.23.86.26.36.45.84.54,1.45l-1.55.21c-.07-.48-.27-.86-.61-1.12-.34-.27-.81-.4-1.43-.4-.73,0-1.25.12-1.56.36s-.47.52-.47.84c0,.21.06.39.19.55.13.17.33.31.61.42.16.06.62.19,1.4.4,1.12.3,1.9.54,2.34.73.44.19.79.47,1.04.83s.38.81.38,1.35-.15,1.02-.46,1.49c-.31.46-.75.83-1.33,1.08-.58.26-1.24.38-1.97.38-1.21,0-2.14-.25-2.77-.76-.63-.5-1.04-1.25-1.22-2.24Z"/>
    <path d="M177.9,248.14c-.59.5-1.15.85-1.69,1.05-.54.21-1.12.31-1.75.31-1.03,0-1.81-.25-2.36-.75-.55-.5-.83-1.14-.83-1.92,0-.46.1-.88.31-1.25.21-.38.48-.68.82-.91.34-.23.72-.4,1.14-.52.31-.08.78-.16,1.41-.24,1.28-.15,2.22-.33,2.82-.54,0-.22,0-.35,0-.41,0-.64-.15-1.1-.45-1.36-.4-.36-1-.54-1.8-.54-.74,0-1.29.13-1.65.39-.35.26-.62.72-.79,1.38l-1.55-.21c.14-.66.37-1.2.69-1.6.32-.41.79-.72,1.4-.94.61-.22,1.32-.33,2.12-.33s1.44.09,1.94.28.86.42,1.1.71c.23.29.4.64.49,1.08.05.27.08.76.08,1.46v2.11c0,1.47.03,2.4.1,2.79.07.39.2.76.4,1.12h-1.65c-.16-.33-.27-.71-.32-1.15ZM177.77,244.6c-.57.23-1.44.43-2.58.6-.65.09-1.11.2-1.38.32s-.48.29-.62.51-.22.48-.22.75c0,.42.16.77.48,1.05.32.28.79.42,1.4.42s1.15-.13,1.63-.4.82-.63,1.05-1.09c.17-.36.25-.88.25-1.58v-.58Z"/>
    <path d="M181.65,249.29v-9.33h1.42v1.33c.69-1.03,1.68-1.54,2.97-1.54.56,0,1.08.1,1.55.3.47.2.83.47,1.06.8s.4.72.49,1.17c.06.29.09.81.09,1.54v5.74h-1.58v-5.68c0-.64-.06-1.13-.19-1.45s-.34-.57-.65-.77c-.31-.19-.68-.29-1.1-.29-.67,0-1.25.21-1.74.64s-.73,1.24-.73,2.43v5.1h-1.58Z"/>
    <path d="M197.59,249.29v-1.18c-.59.93-1.46,1.39-2.61,1.39-.74,0-1.43-.21-2.05-.62s-1.11-.98-1.45-1.72c-.34-.73-.51-1.58-.51-2.54s.15-1.78.46-2.54.78-1.34,1.4-1.75,1.31-.61,2.08-.61c.56,0,1.06.12,1.5.36.44.24.8.55,1.07.93v-4.62h1.57v12.88h-1.47ZM192.59,244.63c0,1.2.25,2.09.76,2.68s1.1.89,1.79.89,1.28-.28,1.76-.85.72-1.43.72-2.59c0-1.28-.25-2.21-.74-2.81s-1.1-.9-1.82-.9-1.29.29-1.76.86-.71,1.48-.71,2.72Z"/>
    <path d="M91.17,264.62c0-1.73.48-3.01,1.44-3.84.8-.69,1.78-1.04,2.94-1.04,1.28,0,2.33.42,3.15,1.26s1.22,2,1.22,3.48c0,1.2-.18,2.15-.54,2.83-.36.69-.88,1.22-1.57,1.6-.69.38-1.44.57-2.25.57-1.31,0-2.36-.42-3.17-1.26-.81-.84-1.21-2.04-1.21-3.62ZM92.79,264.62c0,1.2.26,2.09.78,2.68.52.6,1.18.89,1.97.89s1.44-.3,1.96-.9.78-1.51.78-2.73c0-1.15-.26-2.03-.79-2.62-.52-.59-1.18-.89-1.96-.89s-1.45.3-1.97.89-.78,1.49-.78,2.68Z"/>
    <path d="M101.68,272.86v-12.91h1.44v1.21c.34-.47.72-.83,1.15-1.07.43-.24.95-.36,1.56-.36.8,0,1.5.21,2.11.62s1.07.99,1.38,1.74c.31.75.47,1.57.47,2.46,0,.96-.17,1.82-.51,2.58-.34.77-.84,1.35-1.49,1.76-.65.41-1.34.61-2.06.61-.53,0-1-.11-1.42-.33s-.76-.5-1.03-.84v4.54h-1.58ZM103.11,264.67c0,1.2.24,2.09.73,2.66s1.07.86,1.77.86,1.31-.3,1.81-.89c.5-.59.75-1.52.75-2.76s-.25-2.08-.73-2.67-1.07-.89-1.75-.89-1.27.32-1.79.94c-.52.63-.78,1.55-.78,2.75Z"/>
    <path d="M111.57,272.86v-12.91h1.44v1.21c.34-.47.72-.83,1.15-1.07.43-.24.95-.36,1.55-.36.8,0,1.5.21,2.11.62s1.07.99,1.38,1.74c.31.75.46,1.57.46,2.46,0,.96-.17,1.82-.51,2.58-.34.77-.84,1.35-1.49,1.76-.65.41-1.34.61-2.06.61-.53,0-1-.11-1.42-.33s-.76-.5-1.03-.84v4.54h-1.58ZM113.01,264.67c0,1.2.24,2.09.73,2.66s1.08.86,1.77.86,1.3-.3,1.81-.89c.5-.59.75-1.52.75-2.76s-.24-2.08-.73-2.67-1.07-.89-1.75-.89-1.27.32-1.79.94c-.52.63-.78,1.55-.78,2.75Z"/>
    <path d="M120.94,264.62c0-1.73.48-3.01,1.44-3.84.8-.69,1.78-1.04,2.94-1.04,1.28,0,2.33.42,3.15,1.26s1.22,2,1.22,3.48c0,1.2-.18,2.15-.54,2.83-.36.69-.88,1.22-1.57,1.6-.69.38-1.44.57-2.25.57-1.31,0-2.36-.42-3.17-1.26-.81-.84-1.21-2.04-1.21-3.62ZM122.56,264.62c0,1.2.26,2.09.78,2.68.52.6,1.18.89,1.97.89s1.44-.3,1.96-.9.78-1.51.78-2.73c0-1.15-.26-2.03-.79-2.62-.52-.59-1.18-.89-1.96-.89s-1.45.3-1.97.89-.78,1.49-.78,2.68Z"/>
    <path d="M131.44,269.29v-9.33h1.42v1.42c.36-.66.7-1.1,1.01-1.31s.65-.32,1.01-.32c.53,0,1.08.17,1.63.51l-.54,1.47c-.39-.23-.77-.34-1.16-.34-.35,0-.66.1-.93.31s-.47.5-.59.87c-.18.56-.26,1.18-.26,1.85v4.89h-1.58Z"/>
    <path d="M141.47,267.87l.23,1.4c-.45.09-.84.14-1.2.14-.57,0-1.02-.09-1.34-.27s-.54-.42-.67-.72-.19-.92-.19-1.87v-5.37h-1.16v-1.23h1.16v-2.31l1.57-.95v3.26h1.59v1.23h-1.59v5.46c0,.45.03.74.08.87.06.13.15.23.27.31.12.08.31.11.54.11.18,0,.41-.02.69-.06Z"/>
    <path d="M148.98,269.29v-1.37c-.73,1.05-1.71,1.58-2.96,1.58-.55,0-1.06-.11-1.54-.32s-.83-.48-1.06-.79-.39-.71-.49-1.17c-.06-.31-.1-.8-.1-1.48v-5.78h1.58v5.18c0,.83.03,1.38.1,1.67.1.42.31.74.63.98.32.24.72.36,1.2.36s.92-.12,1.34-.36.71-.57.88-.99c.17-.42.26-1.03.26-1.82v-5h1.58v9.33h-1.41Z"/>
    <path d="M152.67,269.29v-9.33h1.42v1.33c.69-1.03,1.68-1.54,2.97-1.54.56,0,1.08.1,1.55.3.47.2.83.47,1.06.8s.4.72.49,1.17c.06.29.09.81.09,1.54v5.74h-1.58v-5.68c0-.64-.06-1.13-.19-1.45s-.34-.57-.65-.77c-.31-.19-.68-.29-1.1-.29-.67,0-1.25.21-1.74.64s-.73,1.24-.73,2.43v5.1h-1.58Z"/>
    <path d="M162.5,258.22v-1.82h1.58v1.82h-1.58ZM162.5,269.29v-9.33h1.58v9.33h-1.58Z"/>
    <path d="M169.78,267.87l.23,1.4c-.45.09-.84.14-1.2.14-.57,0-1.02-.09-1.34-.27s-.54-.42-.67-.72-.19-.92-.19-1.87v-5.37h-1.16v-1.23h1.16v-2.31l1.57-.95v3.26h1.59v1.23h-1.59v5.46c0,.45.03.74.08.87.05.13.15.23.27.31.13.08.31.11.54.11.18,0,.41-.02.69-.06Z"/>
    <path d="M171.27,258.22v-1.82h1.58v1.82h-1.58ZM171.27,269.29v-9.33h1.58v9.33h-1.58Z"/>
    <path d="M181.55,266.28l1.63.2c-.26.96-.73,1.7-1.43,2.22s-1.59.79-2.67.79c-1.37,0-2.45-.42-3.25-1.26-.8-.84-1.2-2.02-1.2-3.54s.4-2.79,1.21-3.66,1.86-1.3,3.15-1.3,2.27.42,3.06,1.27,1.19,2.04,1.19,3.59c0,.09,0,.23,0,.42h-6.96c.06,1.03.35,1.81.87,2.36s1.17.82,1.95.82c.58,0,1.08-.15,1.49-.46s.73-.79.97-1.46ZM176.36,263.72h5.21c-.07-.79-.27-1.37-.6-1.77-.5-.61-1.16-.91-1.96-.91-.73,0-1.34.24-1.83.73s-.77,1.14-.82,1.95Z"/>
    <path d="M184.47,266.5l1.56-.25c.09.63.33,1.11.73,1.44.4.33.96.5,1.68.5s1.27-.15,1.62-.44.53-.64.53-1.04c0-.36-.16-.64-.47-.84-.22-.14-.76-.32-1.62-.54-1.16-.29-1.96-.55-2.41-.76-.45-.21-.79-.51-1.02-.89-.23-.38-.35-.79-.35-1.25,0-.42.09-.8.29-1.16.19-.35.45-.65.78-.88.25-.18.58-.33,1.01-.46.43-.13.88-.19,1.37-.19.73,0,1.38.11,1.93.32.55.21.96.5,1.23.86.26.36.45.84.54,1.45l-1.55.21c-.07-.48-.27-.86-.61-1.12-.34-.27-.81-.4-1.43-.4-.73,0-1.25.12-1.56.36s-.47.52-.47.84c0,.21.06.39.19.55.13.17.33.31.61.42.16.06.62.19,1.4.4,1.12.3,1.9.54,2.34.73.44.19.79.47,1.04.83s.38.81.38,1.35-.15,1.02-.46,1.49c-.31.46-.75.83-1.33,1.08-.58.26-1.24.38-1.97.38-1.21,0-2.14-.25-2.77-.76-.64-.5-1.04-1.25-1.22-2.24Z"/>
  </g>
  <g>
    <path d="M725.05,153.29v-12.88h8.69v1.52h-6.99v3.99h6.05v1.52h-6.05v5.85h-1.71Z"/>
    <path d="M734.66,148.62c0-1.73.48-3.01,1.44-3.84.8-.69,1.78-1.04,2.94-1.04,1.28,0,2.33.42,3.15,1.26s1.22,2,1.22,3.48c0,1.2-.18,2.15-.54,2.83-.36.69-.88,1.22-1.57,1.6s-1.44.57-2.25.57c-1.31,0-2.36-.42-3.17-1.26s-1.21-2.04-1.21-3.62ZM736.29,148.62c0,1.2.26,2.09.78,2.68.52.6,1.18.89,1.97.89s1.44-.3,1.96-.9.78-1.51.78-2.73c0-1.15-.26-2.03-.79-2.62-.52-.59-1.18-.89-1.96-.89s-1.45.3-1.97.89-.78,1.49-.78,2.68Z"/>
    <path d="M751.25,153.29v-1.37c-.73,1.05-1.71,1.58-2.96,1.58-.55,0-1.06-.11-1.54-.32s-.83-.48-1.06-.79-.39-.71-.49-1.17c-.06-.31-.1-.8-.1-1.48v-5.78h1.58v5.18c0,.83.03,1.38.1,1.67.1.42.31.74.63.98.32.24.72.36,1.2.36s.92-.12,1.34-.36.71-.57.88-.99c.17-.42.26-1.03.26-1.82v-5h1.58v9.33h-1.42Z"/>
    <path d="M754.94,153.29v-9.33h1.42v1.33c.69-1.03,1.68-1.54,2.97-1.54.56,0,1.08.1,1.55.3.47.2.82.47,1.06.8s.4.72.49,1.17c.06.29.09.81.09,1.54v5.74h-1.58v-5.68c0-.64-.06-1.13-.18-1.45s-.34-.57-.65-.77c-.31-.19-.68-.29-1.1-.29-.67,0-1.25.21-1.74.64s-.73,1.24-.73,2.43v5.1h-1.58Z"/>
    <path d="M770.88,153.29v-1.18c-.59.93-1.46,1.39-2.61,1.39-.74,0-1.43-.21-2.05-.62s-1.11-.98-1.45-1.72c-.34-.73-.51-1.58-.51-2.54s.16-1.78.47-2.54.78-1.34,1.4-1.75,1.32-.61,2.08-.61c.56,0,1.06.12,1.5.36.44.24.8.55,1.07.93v-4.62h1.57v12.88h-1.47ZM765.88,148.63c0,1.2.25,2.09.76,2.68s1.1.89,1.78.89,1.28-.28,1.76-.85.73-1.43.73-2.59c0-1.28-.25-2.21-.74-2.81s-1.1-.9-1.82-.9-1.29.29-1.76.86-.71,1.48-.71,2.72Z"/>
    <path d="M780.75,152.14c-.59.5-1.15.85-1.69,1.05s-1.12.31-1.74.31c-1.03,0-1.81-.25-2.36-.75-.55-.5-.83-1.14-.83-1.92,0-.46.1-.88.31-1.25.21-.38.48-.68.82-.91s.72-.4,1.14-.52c.31-.08.78-.16,1.41-.24,1.28-.15,2.22-.33,2.82-.54,0-.22,0-.35,0-.41,0-.64-.15-1.1-.45-1.36-.4-.36-1-.54-1.8-.54-.74,0-1.29.13-1.65.39s-.62.72-.79,1.38l-1.55-.21c.14-.66.37-1.2.69-1.6.32-.41.79-.72,1.4-.94.61-.22,1.32-.33,2.12-.33s1.44.09,1.94.28.86.42,1.1.71c.23.29.4.64.49,1.08.05.27.08.76.08,1.46v2.11c0,1.47.03,2.4.1,2.79.07.39.2.76.4,1.12h-1.65c-.16-.33-.27-.71-.32-1.15ZM780.62,148.6c-.57.23-1.44.43-2.58.6-.65.09-1.11.2-1.38.32s-.48.29-.62.51-.22.48-.22.75c0,.42.16.77.48,1.05s.79.42,1.4.42,1.15-.13,1.63-.4.82-.63,1.05-1.09c.17-.36.25-.88.25-1.58v-.58Z"/>
    <path d="M787.86,151.87l.23,1.4c-.45.09-.84.14-1.2.14-.57,0-1.02-.09-1.34-.27s-.54-.42-.67-.72-.19-.92-.19-1.87v-5.37h-1.16v-1.23h1.16v-2.31l1.57-.95v3.26h1.59v1.23h-1.59v5.46c0,.45.03.74.08.87s.15.23.27.31.31.11.54.11c.18,0,.41-.02.69-.06Z"/>
    <path d="M789.35,142.22v-1.82h1.58v1.82h-1.58ZM789.35,153.29v-9.33h1.58v9.33h-1.58Z"/>
    <path d="M792.68,148.62c0-1.73.48-3.01,1.44-3.84.8-.69,1.78-1.04,2.94-1.04,1.28,0,2.33.42,3.15,1.26s1.22,2,1.22,3.48c0,1.2-.18,2.15-.54,2.83-.36.69-.88,1.22-1.57,1.6s-1.44.57-2.25.57c-1.31,0-2.36-.42-3.17-1.26s-1.21-2.04-1.21-3.62ZM794.31,148.62c0,1.2.26,2.09.78,2.68.52.6,1.18.89,1.97.89s1.44-.3,1.96-.9.78-1.51.78-2.73c0-1.15-.26-2.03-.79-2.62-.52-.59-1.18-.89-1.96-.89s-1.45.3-1.97.89-.78,1.49-.78,2.68Z"/>
    <path d="M803.19,153.29v-9.33h1.42v1.33c.69-1.03,1.68-1.54,2.97-1.54.56,0,1.08.1,1.55.3.47.2.82.47,1.06.8s.4.72.49,1.17c.06.29.09.81.09,1.54v5.74h-1.58v-5.68c0-.64-.06-1.13-.18-1.45s-.34-.57-.65-.77c-.31-.19-.68-.29-1.1-.29-.67,0-1.25.21-1.74.64s-.73,1.24-.73,2.43v5.1h-1.58Z"/>
    <path d="M812.39,150.5l1.56-.25c.09.63.33,1.11.73,1.44s.96.5,1.68.5,1.27-.15,1.62-.44.53-.64.53-1.04c0-.36-.16-.64-.47-.84-.22-.14-.76-.32-1.62-.54-1.16-.29-1.96-.55-2.41-.76s-.79-.51-1.02-.89c-.23-.38-.35-.79-.35-1.25,0-.42.1-.8.29-1.16.19-.35.45-.65.78-.88.25-.18.58-.33,1.01-.46s.88-.19,1.37-.19c.73,0,1.38.11,1.93.32s.96.5,1.23.86c.26.36.45.84.54,1.45l-1.55.21c-.07-.48-.27-.86-.61-1.12s-.81-.4-1.43-.4c-.73,0-1.25.12-1.56.36s-.47.52-.47.84c0,.21.06.39.19.55.13.17.33.31.61.42.16.06.62.19,1.4.4,1.12.3,1.9.54,2.34.73s.79.47,1.04.83.38.81.38,1.35-.15,1.02-.46,1.49c-.31.46-.75.83-1.33,1.08-.58.26-1.24.38-1.97.38-1.21,0-2.14-.25-2.77-.76s-1.04-1.25-1.22-2.24Z"/>
    <path d="M724.15,179.42v-1.59h4.86v1.59h-4.86Z"/>
    <path d="M742.38,179.15l1.61-.14c.08.64.25,1.17.53,1.59.28.41.71.75,1.3,1,.59.25,1.25.38,1.98.38.65,0,1.22-.1,1.72-.29s.87-.46,1.11-.79.36-.71.36-1.1-.12-.76-.35-1.06-.62-.56-1.16-.76c-.35-.13-1.11-.34-2.29-.63s-2.01-.55-2.49-.8c-.62-.32-1.07-.72-1.38-1.2s-.45-1.01-.45-1.6c0-.65.18-1.26.55-1.82s.91-1,1.62-1.29,1.5-.44,2.36-.44c.96,0,1.8.15,2.53.46.73.31,1.29.76,1.68,1.36s.6,1.27.63,2.03l-1.63.12c-.09-.81-.38-1.43-.89-1.85s-1.26-.62-2.25-.62-1.78.19-2.25.57c-.47.38-.71.83-.71,1.37,0,.46.17.84.5,1.14.33.3,1.19.61,2.57.92,1.39.31,2.34.59,2.85.82.75.35,1.3.78,1.66,1.31s.54,1.14.54,1.83-.2,1.33-.59,1.94c-.39.61-.96,1.08-1.69,1.42-.74.34-1.56.5-2.48.5-1.17,0-2.14-.17-2.93-.51s-1.41-.85-1.85-1.53c-.45-.68-.68-1.45-.71-2.32Z"/>
    <path d="M760.76,179.87l1.56.2c-.17,1.07-.61,1.91-1.31,2.52-.7.61-1.56.91-2.58.91-1.28,0-2.3-.42-3.08-1.25-.78-.84-1.16-2.03-1.16-3.59,0-1.01.17-1.89.5-2.65s.84-1.32,1.52-1.7c.68-.38,1.43-.57,2.23-.57,1.01,0,1.84.26,2.49.77s1.06,1.24,1.24,2.18l-1.54.24c-.15-.63-.41-1.1-.78-1.42s-.82-.47-1.35-.47c-.8,0-1.44.29-1.94.86-.5.57-.75,1.47-.75,2.71s.24,2.17.72,2.73,1.11.85,1.88.85c.62,0,1.14-.19,1.56-.57s.68-.97.79-1.76Z"/>
    <path d="M763.73,172.22v-1.82h1.58v1.82h-1.58ZM763.73,183.29v-9.33h1.58v9.33h-1.58Z"/>
    <path d="M774.02,180.28l1.63.2c-.26.96-.74,1.7-1.43,2.22s-1.59.79-2.67.79c-1.37,0-2.45-.42-3.25-1.26-.8-.84-1.2-2.02-1.2-3.54s.4-2.79,1.21-3.66,1.86-1.3,3.15-1.3,2.27.42,3.06,1.27,1.19,2.04,1.19,3.59c0,.09,0,.23,0,.42h-6.96c.06,1.03.35,1.81.87,2.36s1.17.82,1.95.82c.58,0,1.08-.15,1.49-.46s.74-.79.98-1.46ZM768.83,177.72h5.21c-.07-.79-.27-1.37-.6-1.77-.5-.61-1.16-.91-1.96-.91-.73,0-1.34.24-1.83.73s-.77,1.14-.82,1.95Z"/>
    <path d="M777.51,183.29v-9.33h1.42v1.33c.69-1.03,1.68-1.54,2.97-1.54.56,0,1.08.1,1.55.3.47.2.83.47,1.06.8s.4.72.49,1.17c.06.29.09.81.09,1.54v5.74h-1.58v-5.68c0-.64-.06-1.13-.18-1.45s-.34-.57-.66-.77c-.31-.19-.68-.29-1.1-.29-.67,0-1.26.21-1.75.64s-.73,1.24-.73,2.43v5.1h-1.58Z"/>
    <path d="M790.67,181.87l.23,1.4c-.45.09-.84.14-1.2.14-.57,0-1.02-.09-1.34-.27s-.54-.42-.67-.72-.19-.92-.19-1.87v-5.37h-1.16v-1.23h1.16v-2.31l1.57-.95v3.26h1.59v1.23h-1.59v5.46c0,.45.03.74.08.87s.15.23.27.31.31.11.54.11c.18,0,.41-.02.69-.06Z"/>
    <path d="M792.15,172.22v-1.82h1.58v1.82h-1.58ZM792.15,183.29v-9.33h1.58v9.33h-1.58Z"/>
    <path d="M796.43,183.29v-8.1h-1.4v-1.23h1.4v-.99c0-.63.06-1.09.17-1.4.15-.41.42-.74.8-1,.38-.25.92-.38,1.61-.38.45,0,.94.05,1.48.16l-.24,1.38c-.33-.06-.64-.09-.93-.09-.48,0-.82.1-1.02.31s-.3.59-.3,1.15v.86h1.82v1.23h-1.82v8.1h-1.57Z"/>
    <path d="M801.37,172.22v-1.82h1.58v1.82h-1.58ZM801.37,183.29v-9.33h1.58v9.33h-1.58Z"/>
    <path d="M811.34,179.87l1.56.2c-.17,1.07-.6,1.91-1.3,2.52-.7.61-1.56.91-2.58.91-1.28,0-2.3-.42-3.08-1.25-.78-.84-1.17-2.03-1.17-3.59,0-1.01.17-1.89.5-2.65s.84-1.32,1.53-1.7c.68-.38,1.42-.57,2.23-.57,1.01,0,1.84.26,2.49.77s1.06,1.24,1.24,2.18l-1.54.24c-.15-.63-.41-1.1-.78-1.42s-.82-.47-1.35-.47c-.8,0-1.44.29-1.94.86-.5.57-.75,1.47-.75,2.71s.24,2.17.72,2.73,1.11.85,1.88.85c.62,0,1.14-.19,1.56-.57s.68-.97.79-1.76Z"/>
    <path d="M822.7,181.87l.23,1.4c-.45.09-.84.14-1.2.14-.57,0-1.02-.09-1.34-.27s-.54-.42-.67-.72-.19-.92-.19-1.87v-5.37h-1.16v-1.23h1.16v-2.31l1.57-.95v3.26h1.59v1.23h-1.59v5.46c0,.45.03.74.08.87s.15.23.27.31.31.11.54.11c.18,0,.41-.02.69-.06Z"/>
    <path d="M824.19,183.29v-12.88h1.58v4.62c.74-.86,1.67-1.28,2.79-1.28.69,0,1.29.14,1.8.41.51.27.88.65,1.09,1.13s.33,1.18.33,2.09v5.92h-1.58v-5.92c0-.79-.17-1.37-.51-1.73-.34-.36-.83-.54-1.46-.54-.47,0-.91.12-1.32.36-.41.24-.71.57-.88.99s-.26.99-.26,1.72v5.11h-1.58Z"/>
    <path d="M840.46,180.28l1.63.2c-.26.96-.74,1.7-1.43,2.22s-1.59.79-2.67.79c-1.37,0-2.45-.42-3.25-1.26-.8-.84-1.2-2.02-1.2-3.54s.4-2.79,1.21-3.66,1.86-1.3,3.15-1.3,2.27.42,3.06,1.27,1.19,2.04,1.19,3.59c0,.09,0,.23,0,.42h-6.96c.06,1.03.35,1.81.87,2.36s1.17.82,1.95.82c.58,0,1.08-.15,1.49-.46s.74-.79.98-1.46ZM835.26,177.72h5.21c-.07-.79-.27-1.37-.6-1.77-.5-.61-1.16-.91-1.96-.91-.73,0-1.34.24-1.83.73s-.77,1.14-.82,1.95Z"/>
    <path d="M843.41,178.62c0-1.73.48-3.01,1.44-3.84.8-.69,1.78-1.04,2.94-1.04,1.28,0,2.33.42,3.15,1.26s1.22,2,1.22,3.48c0,1.2-.18,2.15-.54,2.83-.36.69-.88,1.22-1.57,1.6s-1.44.57-2.25.57c-1.31,0-2.36-.42-3.17-1.26s-1.21-2.04-1.21-3.62ZM845.04,178.62c0,1.2.26,2.09.78,2.68.52.6,1.18.89,1.97.89s1.44-.3,1.96-.9.78-1.51.78-2.73c0-1.15-.26-2.03-.79-2.62-.52-.59-1.18-.89-1.96-.89s-1.45.3-1.97.89-.78,1.49-.78,2.68Z"/>
    <path d="M853.92,183.29v-9.33h1.42v1.42c.36-.66.7-1.1,1.01-1.31s.65-.32,1.02-.32c.53,0,1.08.17,1.63.51l-.54,1.47c-.39-.23-.77-.34-1.16-.34-.35,0-.66.1-.93.31s-.47.5-.59.87c-.18.56-.26,1.18-.26,1.85v4.89h-1.58Z"/>
    <path d="M860.06,172.22v-1.82h1.58v1.82h-1.58ZM860.06,183.29v-9.33h1.58v9.33h-1.58Z"/>
    <path d="M870.35,180.28l1.63.2c-.26.96-.74,1.7-1.43,2.22s-1.59.79-2.67.79c-1.37,0-2.45-.42-3.25-1.26-.8-.84-1.2-2.02-1.2-3.54s.4-2.79,1.21-3.66,1.86-1.3,3.15-1.3,2.27.42,3.06,1.27,1.19,2.04,1.19,3.59c0,.09,0,.23,0,.42h-6.96c.06,1.03.35,1.81.87,2.36s1.17.82,1.95.82c.58,0,1.08-.15,1.49-.46s.74-.79.98-1.46ZM865.15,177.72h5.21c-.07-.79-.27-1.37-.6-1.77-.5-.61-1.16-.91-1.96-.91-.73,0-1.34.24-1.83.73s-.77,1.14-.82,1.95Z"/>
    <path d="M873.26,180.5l1.56-.25c.09.63.33,1.11.73,1.44s.96.5,1.68.5,1.27-.15,1.62-.44.53-.64.53-1.04c0-.36-.16-.64-.47-.84-.22-.14-.76-.32-1.62-.54-1.16-.29-1.96-.55-2.41-.76s-.79-.51-1.02-.89c-.23-.38-.35-.79-.35-1.25,0-.42.09-.8.29-1.16.19-.35.45-.65.78-.88.25-.18.58-.33,1.01-.46s.88-.19,1.37-.19c.73,0,1.38.11,1.93.32s.96.5,1.23.86c.26.36.45.84.54,1.45l-1.55.21c-.07-.48-.27-.86-.61-1.12s-.81-.4-1.43-.4c-.73,0-1.25.12-1.56.36s-.47.52-.47.84c0,.21.06.39.19.55.13.17.33.31.61.42.16.06.62.19,1.4.4,1.12.3,1.9.54,2.34.73s.79.47,1.04.83.38.81.38,1.35-.15,1.02-.46,1.49c-.31.46-.75.83-1.33,1.08-.58.26-1.24.38-1.97.38-1.21,0-2.14-.25-2.77-.76s-1.04-1.25-1.22-2.24Z"/>
    <path d="M748.85,202.14c-.59.5-1.15.85-1.69,1.05s-1.12.31-1.75.31c-1.03,0-1.81-.25-2.36-.75-.55-.5-.83-1.14-.83-1.92,0-.46.1-.88.31-1.25.21-.38.48-.68.82-.91s.72-.4,1.14-.52c.31-.08.78-.16,1.41-.24,1.28-.15,2.22-.33,2.82-.54,0-.22,0-.35,0-.41,0-.64-.15-1.1-.45-1.36-.4-.36-1-.54-1.8-.54-.74,0-1.29.13-1.65.39s-.62.72-.79,1.38l-1.55-.21c.14-.66.37-1.2.69-1.6.32-.41.79-.72,1.4-.94.61-.22,1.32-.33,2.12-.33s1.44.09,1.94.28.86.42,1.1.71c.23.29.4.64.49,1.08.05.27.08.76.08,1.46v2.11c0,1.47.03,2.4.1,2.79.07.39.2.76.4,1.12h-1.65c-.16-.33-.27-.71-.32-1.15ZM748.72,198.6c-.57.23-1.44.43-2.58.6-.65.09-1.11.2-1.38.32s-.48.29-.62.51-.22.48-.22.75c0,.42.16.77.48,1.05s.79.42,1.4.42,1.15-.13,1.63-.4.82-.63,1.05-1.09c.17-.36.25-.88.25-1.58v-.58Z"/>
    <path d="M752.6,203.29v-9.33h1.42v1.33c.69-1.03,1.68-1.54,2.97-1.54.56,0,1.08.1,1.55.3.47.2.82.47,1.06.8s.4.72.49,1.17c.06.29.09.81.09,1.54v5.74h-1.58v-5.68c0-.64-.06-1.13-.18-1.45s-.34-.57-.65-.77c-.31-.19-.68-.29-1.1-.29-.67,0-1.25.21-1.74.64s-.73,1.24-.73,2.43v5.1h-1.58Z"/>
    <path d="M768.54,203.29v-1.18c-.59.93-1.46,1.39-2.61,1.39-.74,0-1.43-.21-2.05-.62s-1.11-.98-1.45-1.72c-.34-.73-.51-1.58-.51-2.54s.16-1.78.47-2.54.78-1.34,1.4-1.75,1.32-.61,2.08-.61c.56,0,1.06.12,1.5.36.44.24.8.55,1.07.93v-4.62h1.57v12.88h-1.47ZM763.54,198.63c0,1.2.25,2.09.76,2.68s1.1.89,1.78.89,1.28-.28,1.76-.85.72-1.43.72-2.59c0-1.28-.25-2.21-.74-2.81s-1.1-.9-1.82-.9-1.29.29-1.76.86-.71,1.48-.71,2.72Z"/>
    <path d="M777.5,203.29v-9.33h1.42v1.31c.29-.46.68-.82,1.17-1.1s1.04-.42,1.66-.42c.69,0,1.26.14,1.7.43s.75.69.94,1.2c.74-1.09,1.7-1.63,2.88-1.63.93,0,1.64.26,2.14.77s.75,1.3.75,2.37v6.41h-1.57v-5.88c0-.63-.05-1.09-.15-1.37s-.29-.5-.56-.67-.59-.25-.95-.25c-.66,0-1.2.22-1.63.65-.43.44-.65,1.14-.65,2.1v5.42h-1.58v-6.06c0-.7-.13-1.23-.39-1.58s-.68-.53-1.27-.53c-.45,0-.86.12-1.23.35s-.65.58-.82,1.03-.25,1.1-.25,1.95v4.84h-1.58Z"/>
    <path d="M798.78,200.28l1.63.2c-.26.96-.74,1.7-1.43,2.22s-1.59.79-2.67.79c-1.37,0-2.45-.42-3.25-1.26-.8-.84-1.2-2.02-1.2-3.54s.4-2.79,1.21-3.66,1.86-1.3,3.15-1.3,2.27.42,3.06,1.27,1.19,2.04,1.19,3.59c0,.09,0,.23,0,.42h-6.96c.06,1.03.35,1.81.87,2.36s1.17.82,1.95.82c.58,0,1.08-.15,1.49-.46s.74-.79.98-1.46ZM793.58,197.72h5.21c-.07-.79-.27-1.37-.6-1.77-.5-.61-1.16-.91-1.96-.91-.73,0-1.34.24-1.83.73s-.77,1.14-.82,1.95Z"/>
    <path d="M805.54,201.87l.23,1.4c-.45.09-.84.14-1.2.14-.57,0-1.02-.09-1.34-.27s-.54-.42-.67-.72-.19-.92-.19-1.87v-5.37h-1.16v-1.23h1.16v-2.31l1.57-.95v3.26h1.59v1.23h-1.59v5.46c0,.45.03.74.08.87s.15.23.27.31.31.11.54.11c.18,0,.41-.02.69-.06Z"/>
    <path d="M807.03,203.29v-12.88h1.58v4.62c.74-.86,1.67-1.28,2.79-1.28.69,0,1.29.14,1.8.41.51.27.87.65,1.09,1.13s.33,1.18.33,2.09v5.92h-1.58v-5.92c0-.79-.17-1.37-.51-1.73-.34-.36-.83-.54-1.45-.54-.47,0-.91.12-1.32.36-.41.24-.71.57-.88.99s-.26.99-.26,1.72v5.11h-1.58Z"/>
    <path d="M816.34,198.62c0-1.73.48-3.01,1.44-3.84.8-.69,1.78-1.04,2.94-1.04,1.28,0,2.33.42,3.15,1.26s1.22,2,1.22,3.48c0,1.2-.18,2.15-.54,2.83-.36.69-.88,1.22-1.57,1.6s-1.44.57-2.25.57c-1.31,0-2.36-.42-3.17-1.26s-1.21-2.04-1.21-3.62ZM817.97,198.62c0,1.2.26,2.09.78,2.68.52.6,1.18.89,1.97.89s1.44-.3,1.96-.9.78-1.51.78-2.73c0-1.15-.26-2.03-.79-2.62-.52-.59-1.18-.89-1.96-.89s-1.45.3-1.97.89-.78,1.49-.78,2.68Z"/>
    <path d="M826.22,200.5l1.56-.25c.09.63.33,1.11.73,1.44s.96.5,1.68.5,1.27-.15,1.62-.44.53-.64.53-1.04c0-.36-.16-.64-.47-.84-.22-.14-.76-.32-1.62-.54-1.16-.29-1.96-.55-2.41-.76s-.79-.51-1.02-.89c-.23-.38-.35-.79-.35-1.25,0-.42.1-.8.29-1.16.19-.35.45-.65.78-.88.25-.18.58-.33,1.01-.46s.88-.19,1.37-.19c.73,0,1.38.11,1.93.32s.96.5,1.23.86c.26.36.45.84.54,1.45l-1.55.21c-.07-.48-.27-.86-.61-1.12s-.81-.4-1.43-.4c-.73,0-1.25.12-1.56.36s-.47.52-.47.84c0,.21.06.39.19.55.13.17.33.31.61.42.16.06.62.19,1.4.4,1.12.3,1.9.54,2.34.73s.79.47,1.04.83.38.81.38,1.35-.15,1.02-.46,1.49c-.31.46-.75.83-1.33,1.08-.58.26-1.24.38-1.97.38-1.21,0-2.14-.25-2.77-.76s-1.04-1.25-1.22-2.24Z"/>
    <path d="M724.15,221.42v-1.59h4.86v1.59h-4.86Z"/>
    <path d="M743,225.29v-12.88h9.32v1.52h-7.61v3.95h7.13v1.51h-7.13v4.39h7.91v1.52h-9.62Z"/>
    <path d="M753.87,225.29l3.41-4.85-3.16-4.48h1.98l1.43,2.19c.27.42.49.76.65,1.05.26-.39.5-.73.71-1.03l1.57-2.21h1.89l-3.23,4.39,3.47,4.94h-1.94l-1.92-2.9-.51-.78-2.45,3.68h-1.92Z"/>
    <path d="M763.87,228.86v-12.91h1.44v1.21c.34-.47.72-.83,1.15-1.07.43-.24.95-.36,1.56-.36.8,0,1.5.21,2.11.62s1.07.99,1.38,1.74c.31.75.47,1.57.47,2.46,0,.96-.17,1.82-.51,2.58-.34.77-.84,1.35-1.49,1.76-.65.41-1.34.61-2.06.61-.53,0-1-.11-1.42-.33s-.76-.5-1.03-.84v4.54h-1.58ZM765.3,220.67c0,1.2.24,2.09.73,2.66s1.08.86,1.77.86,1.3-.3,1.81-.89c.5-.59.75-1.52.75-2.76s-.25-2.08-.73-2.67-1.07-.89-1.75-.89-1.27.32-1.79.94c-.52.63-.78,1.55-.78,2.75Z"/>
    <path d="M780.18,222.28l1.63.2c-.26.96-.74,1.7-1.43,2.22s-1.59.79-2.67.79c-1.37,0-2.45-.42-3.25-1.26-.8-.84-1.2-2.02-1.2-3.54s.4-2.79,1.21-3.66,1.86-1.3,3.15-1.3,2.27.42,3.06,1.27,1.19,2.04,1.19,3.59c0,.09,0,.23,0,.42h-6.96c.06,1.03.35,1.81.87,2.36s1.17.82,1.95.82c.58,0,1.08-.15,1.49-.46s.74-.79.98-1.46ZM774.99,219.72h5.21c-.07-.79-.27-1.37-.6-1.77-.5-.61-1.16-.91-1.96-.91-.73,0-1.34.24-1.83.73s-.77,1.14-.82,1.95Z"/>
    <path d="M783.66,225.29v-9.33h1.42v1.42c.36-.66.7-1.1,1.01-1.31s.65-.32,1.02-.32c.53,0,1.08.17,1.63.51l-.54,1.47c-.39-.23-.77-.34-1.16-.34-.35,0-.66.1-.93.31s-.47.5-.59.87c-.18.56-.26,1.18-.26,1.85v4.89h-1.58Z"/>
    <path d="M789.8,214.22v-1.82h1.58v1.82h-1.58ZM789.8,225.29v-9.33h1.58v9.33h-1.58Z"/>
    <path d="M800.09,222.28l1.63.2c-.26.96-.74,1.7-1.43,2.22s-1.59.79-2.67.79c-1.37,0-2.45-.42-3.25-1.26-.8-.84-1.2-2.02-1.2-3.54s.4-2.79,1.21-3.66,1.86-1.3,3.15-1.3,2.27.42,3.06,1.27,1.19,2.04,1.19,3.59c0,.09,0,.23,0,.42h-6.96c.06,1.03.35,1.81.87,2.36s1.17.82,1.95.82c.58,0,1.08-.15,1.49-.46s.74-.79.98-1.46ZM794.9,219.72h5.21c-.07-.79-.27-1.37-.6-1.77-.5-.61-1.16-.91-1.96-.91-.73,0-1.34.24-1.83.73s-.77,1.14-.82,1.95Z"/>
    <path d="M803.58,225.29v-9.33h1.42v1.33c.69-1.03,1.68-1.54,2.97-1.54.56,0,1.08.1,1.55.3.47.2.83.47,1.06.8s.4.72.49,1.17c.06.29.09.81.09,1.54v5.74h-1.58v-5.68c0-.64-.06-1.13-.18-1.45s-.34-.57-.66-.77c-.31-.19-.68-.29-1.1-.29-.67,0-1.26.21-1.75.64s-.73,1.24-.73,2.43v5.1h-1.58Z"/>
    <path d="M819.51,221.87l1.56.2c-.17,1.07-.61,1.91-1.31,2.52-.7.61-1.56.91-2.58.91-1.28,0-2.3-.42-3.08-1.25-.78-.84-1.16-2.03-1.16-3.59,0-1.01.17-1.89.5-2.65s.84-1.32,1.52-1.7c.68-.38,1.43-.57,2.23-.57,1.01,0,1.84.26,2.49.77s1.06,1.24,1.24,2.18l-1.54.24c-.15-.63-.41-1.1-.78-1.42s-.82-.47-1.35-.47c-.8,0-1.44.29-1.94.86-.5.57-.75,1.47-.75,2.71s.24,2.17.72,2.73,1.11.85,1.88.85c.62,0,1.14-.19,1.56-.57s.68-.97.79-1.76Z"/>
    <path d="M828.95,222.28l1.63.2c-.26.96-.74,1.7-1.43,2.22s-1.59.79-2.67.79c-1.37,0-2.45-.42-3.25-1.26-.8-.84-1.2-2.02-1.2-3.54s.4-2.79,1.21-3.66,1.86-1.3,3.15-1.3,2.27.42,3.06,1.27,1.19,2.04,1.19,3.59c0,.09,0,.23,0,.42h-6.96c.06,1.03.35,1.81.87,2.36s1.17.82,1.95.82c.58,0,1.08-.15,1.49-.46s.74-.79.98-1.46ZM823.76,219.72h5.21c-.07-.79-.27-1.37-.6-1.77-.5-.61-1.16-.91-1.96-.91-.73,0-1.34.24-1.83.73s-.77,1.14-.82,1.95Z"/>
    <path d="M831.86,222.5l1.56-.25c.09.63.33,1.11.73,1.44s.96.5,1.68.5,1.27-.15,1.62-.44.53-.64.53-1.04c0-.36-.16-.64-.47-.84-.22-.14-.76-.32-1.62-.54-1.16-.29-1.96-.55-2.41-.76s-.79-.51-1.02-.89c-.23-.38-.35-.79-.35-1.25,0-.42.1-.8.29-1.16.19-.35.45-.65.78-.88.25-.18.58-.33,1.01-.46s.88-.19,1.37-.19c.73,0,1.38.11,1.93.32s.96.5,1.23.86c.26.36.45.84.54,1.45l-1.55.21c-.07-.48-.27-.86-.61-1.12s-.81-.4-1.43-.4c-.73,0-1.25.12-1.56.36s-.47.52-.47.84c0,.21.06.39.19.55.13.17.33.31.61.42.16.06.62.19,1.4.4,1.12.3,1.9.54,2.34.73s.79.47,1.04.83.38.81.38,1.35-.15,1.02-.46,1.49c-.31.46-.75.83-1.33,1.08-.58.26-1.24.38-1.97.38-1.21,0-2.14-.25-2.77-.76s-1.04-1.25-1.22-2.24Z"/>
    <path d="M748.85,244.14c-.59.5-1.15.85-1.69,1.05s-1.12.31-1.75.31c-1.03,0-1.81-.25-2.36-.75-.55-.5-.83-1.14-.83-1.92,0-.46.1-.88.31-1.25.21-.38.48-.68.82-.91s.72-.4,1.14-.52c.31-.08.78-.16,1.41-.24,1.28-.15,2.22-.33,2.82-.54,0-.22,0-.35,0-.41,0-.64-.15-1.1-.45-1.36-.4-.36-1-.54-1.8-.54-.74,0-1.29.13-1.65.39s-.62.72-.79,1.38l-1.55-.21c.14-.66.37-1.2.69-1.6.32-.41.79-.72,1.4-.94.61-.22,1.32-.33,2.12-.33s1.44.09,1.94.28.86.42,1.1.71c.23.29.4.64.49,1.08.05.27.08.76.08,1.46v2.11c0,1.47.03,2.4.1,2.79.07.39.2.76.4,1.12h-1.65c-.16-.33-.27-.71-.32-1.15ZM748.72,240.6c-.57.23-1.44.43-2.58.6-.65.09-1.11.2-1.38.32s-.48.29-.62.51-.22.48-.22.75c0,.42.16.77.48,1.05s.79.42,1.4.42,1.15-.13,1.63-.4.82-.63,1.05-1.09c.17-.36.25-.88.25-1.58v-.58Z"/>
    <path d="M752.6,245.29v-9.33h1.42v1.33c.69-1.03,1.68-1.54,2.97-1.54.56,0,1.08.1,1.55.3.47.2.82.47,1.06.8s.4.72.49,1.17c.06.29.09.81.09,1.54v5.74h-1.58v-5.68c0-.64-.06-1.13-.18-1.45s-.34-.57-.65-.77c-.31-.19-.68-.29-1.1-.29-.67,0-1.25.21-1.74.64s-.73,1.24-.73,2.43v5.1h-1.58Z"/>
    <path d="M768.54,245.29v-1.18c-.59.93-1.46,1.39-2.61,1.39-.74,0-1.43-.21-2.05-.62s-1.11-.98-1.45-1.72c-.34-.73-.51-1.58-.51-2.54s.16-1.78.47-2.54.78-1.34,1.4-1.75,1.32-.61,2.08-.61c.56,0,1.06.12,1.5.36.44.24.8.55,1.07.93v-4.62h1.57v12.88h-1.47ZM763.54,240.63c0,1.2.25,2.09.76,2.68s1.1.89,1.78.89,1.28-.28,1.76-.85.72-1.43.72-2.59c0-1.28-.25-2.21-.74-2.81s-1.1-.9-1.82-.9-1.29.29-1.76.86-.71,1.48-.71,2.72Z"/>
    <path d="M783.89,242.28l1.63.2c-.26.96-.74,1.7-1.43,2.22s-1.59.79-2.67.79c-1.37,0-2.45-.42-3.25-1.26-.8-.84-1.2-2.02-1.2-3.54s.4-2.79,1.21-3.66,1.86-1.3,3.15-1.3,2.27.42,3.06,1.27,1.19,2.04,1.19,3.59c0,.09,0,.23,0,.42h-6.96c.06,1.03.35,1.81.87,2.36s1.17.82,1.95.82c.58,0,1.08-.15,1.49-.46s.74-.79.98-1.46ZM778.69,239.72h5.21c-.07-.79-.27-1.37-.6-1.77-.5-.61-1.16-.91-1.96-.91-.73,0-1.34.24-1.83.73s-.77,1.14-.82,1.95Z"/>
    <path d="M785.94,245.29l3.41-4.85-3.16-4.48h1.98l1.43,2.19c.27.42.49.76.65,1.05.26-.39.5-.73.71-1.03l1.57-2.21h1.89l-3.23,4.39,3.47,4.94h-1.94l-1.92-2.9-.51-.78-2.45,3.68h-1.92Z"/>
    <path d="M795.93,248.86v-12.91h1.44v1.21c.34-.47.72-.83,1.15-1.07.43-.24.95-.36,1.56-.36.8,0,1.5.21,2.11.62s1.07.99,1.38,1.74c.31.75.47,1.57.47,2.46,0,.96-.17,1.82-.51,2.58-.34.77-.84,1.35-1.49,1.76-.65.41-1.34.61-2.06.61-.53,0-1-.11-1.42-.33s-.76-.5-1.03-.84v4.54h-1.58ZM797.37,240.67c0,1.2.24,2.09.73,2.66s1.08.86,1.77.86,1.31-.3,1.81-.89c.5-.59.75-1.52.75-2.76s-.24-2.08-.73-2.67-1.07-.89-1.75-.89-1.27.32-1.79.94c-.52.63-.78,1.55-.78,2.75Z"/>
    <path d="M812.25,242.28l1.63.2c-.26.96-.74,1.7-1.43,2.22s-1.59.79-2.67.79c-1.37,0-2.45-.42-3.25-1.26-.8-.84-1.2-2.02-1.2-3.54s.4-2.79,1.21-3.66,1.86-1.3,3.15-1.3,2.27.42,3.06,1.27,1.19,2.04,1.19,3.59c0,.09,0,.23,0,.42h-6.96c.06,1.03.35,1.81.87,2.36s1.17.82,1.95.82c.58,0,1.08-.15,1.49-.46s.74-.79.98-1.46ZM807.05,239.72h5.21c-.07-.79-.27-1.37-.6-1.77-.5-.61-1.16-.91-1.96-.91-.73,0-1.34.24-1.83.73s-.77,1.14-.82,1.95Z"/>
    <path d="M815.73,245.29v-9.33h1.42v1.42c.36-.66.7-1.1,1.01-1.31s.65-.32,1.02-.32c.53,0,1.08.17,1.63.51l-.54,1.47c-.39-.23-.77-.34-1.16-.34-.35,0-.66.1-.93.31s-.47.5-.59.87c-.18.56-.26,1.18-.26,1.85v4.89h-1.58Z"/>
    <path d="M825.76,243.87l.23,1.4c-.45.09-.84.14-1.2.14-.57,0-1.02-.09-1.34-.27s-.54-.42-.67-.72-.19-.92-.19-1.87v-5.37h-1.16v-1.23h1.16v-2.31l1.57-.95v3.26h1.59v1.23h-1.59v5.46c0,.45.03.74.08.87s.15.23.27.31.31.11.54.11c.18,0,.41-.02.69-.06Z"/>
    <path d="M827.25,234.22v-1.82h1.58v1.82h-1.58ZM827.25,245.29v-9.33h1.58v9.33h-1.58Z"/>
    <path d="M830.49,242.5l1.56-.25c.09.63.33,1.11.73,1.44s.96.5,1.68.5,1.27-.15,1.62-.44.53-.64.53-1.04c0-.36-.16-.64-.47-.84-.22-.14-.76-.32-1.62-.54-1.16-.29-1.96-.55-2.41-.76s-.79-.51-1.02-.89c-.23-.38-.35-.79-.35-1.25,0-.42.1-.8.29-1.16.19-.35.45-.65.78-.88.25-.18.58-.33,1.01-.46s.88-.19,1.37-.19c.73,0,1.38.11,1.93.32s.96.5,1.23.86c.26.36.45.84.54,1.45l-1.55.21c-.07-.48-.27-.86-.61-1.12s-.81-.4-1.43-.4c-.73,0-1.25.12-1.56.36s-.47.52-.47.84c0,.21.06.39.19.55.13.17.33.31.61.42.16.06.62.19,1.4.4,1.12.3,1.9.54,2.34.73s.79.47,1.04.83.38.81.38,1.35-.15,1.02-.46,1.49c-.31.46-.75.83-1.33,1.08-.58.26-1.24.38-1.97.38-1.21,0-2.14-.25-2.77-.76s-1.04-1.25-1.22-2.24Z"/>
    <path d="M846.38,242.28l1.63.2c-.26.96-.74,1.7-1.43,2.22s-1.59.79-2.67.79c-1.37,0-2.45-.42-3.25-1.26-.8-.84-1.2-2.02-1.2-3.54s.4-2.79,1.21-3.66,1.86-1.3,3.15-1.3,2.27.42,3.06,1.27,1.19,2.04,1.19,3.59c0,.09,0,.23,0,.42h-6.96c.06,1.03.35,1.81.87,2.36s1.17.82,1.95.82c.58,0,1.08-.15,1.49-.46s.74-.79.98-1.46ZM841.19,239.72h5.21c-.07-.79-.27-1.37-.6-1.77-.5-.61-1.16-.91-1.96-.91-.73,0-1.34.24-1.83.73s-.77,1.14-.82,1.95Z"/>
    <path d="M724.15,263.42v-1.59h4.86v1.59h-4.86Z"/>
    <path d="M742.91,267.29v-12.88h2.57l3.05,9.12c.28.85.49,1.49.62,1.91.15-.47.38-1.16.69-2.07l3.08-8.96h2.29v12.88h-1.64v-10.78l-3.74,10.78h-1.54l-3.73-10.97v10.97h-1.64Z"/>
    <path d="M764.18,264.28l1.63.2c-.26.96-.74,1.7-1.43,2.22s-1.59.79-2.67.79c-1.37,0-2.45-.42-3.25-1.26-.8-.84-1.2-2.02-1.2-3.54s.4-2.79,1.21-3.66,1.86-1.3,3.15-1.3,2.27.42,3.06,1.27,1.19,2.04,1.19,3.59c0,.09,0,.23,0,.42h-6.96c.06,1.03.35,1.81.87,2.36s1.17.82,1.95.82c.58,0,1.08-.15,1.49-.46s.74-.79.98-1.46ZM758.99,261.72h5.21c-.07-.79-.27-1.37-.6-1.77-.5-.61-1.16-.91-1.96-.91-.73,0-1.34.24-1.83.73s-.77,1.14-.82,1.95Z"/>
    <path d="M770.95,265.87l.23,1.4c-.45.09-.84.14-1.2.14-.57,0-1.02-.09-1.34-.27s-.54-.42-.67-.72-.19-.92-.19-1.87v-5.37h-1.16v-1.23h1.16v-2.31l1.57-.95v3.26h1.59v1.23h-1.59v5.46c0,.45.03.74.08.87s.15.23.27.31.31.11.54.11c.18,0,.41-.02.69-.06Z"/>
    <path d="M778.64,266.14c-.59.5-1.15.85-1.69,1.05s-1.12.31-1.74.31c-1.03,0-1.81-.25-2.36-.75-.55-.5-.83-1.14-.83-1.92,0-.46.1-.88.31-1.25.21-.38.48-.68.82-.91s.72-.4,1.14-.52c.31-.08.78-.16,1.41-.24,1.28-.15,2.22-.33,2.82-.54,0-.22,0-.35,0-.41,0-.64-.15-1.1-.45-1.36-.4-.36-1-.54-1.8-.54-.74,0-1.29.13-1.65.39s-.62.72-.79,1.38l-1.55-.21c.14-.66.37-1.2.69-1.6.32-.41.79-.72,1.4-.94.61-.22,1.32-.33,2.12-.33s1.44.09,1.94.28.86.42,1.1.71c.23.29.4.64.49,1.08.05.27.08.76.08,1.46v2.11c0,1.47.03,2.4.1,2.79.07.39.2.76.4,1.12h-1.65c-.16-.33-.27-.71-.32-1.15ZM778.51,262.6c-.57.23-1.44.43-2.58.6-.65.09-1.11.2-1.38.32s-.48.29-.62.51-.22.48-.22.75c0,.42.16.77.48,1.05s.79.42,1.4.42,1.15-.13,1.63-.4.82-.63,1.05-1.09c.17-.36.25-.88.25-1.58v-.58Z"/>
    <path d="M782.08,263.42v-1.59h4.86v1.59h-4.86Z"/>
    <path d="M794.94,266.14c-.59.5-1.15.85-1.69,1.05s-1.12.31-1.75.31c-1.03,0-1.81-.25-2.36-.75-.55-.5-.83-1.14-.83-1.92,0-.46.1-.88.31-1.25.21-.38.48-.68.82-.91s.72-.4,1.14-.52c.31-.08.78-.16,1.41-.24,1.28-.15,2.22-.33,2.82-.54,0-.22,0-.35,0-.41,0-.64-.15-1.1-.45-1.36-.4-.36-1-.54-1.8-.54-.74,0-1.29.13-1.65.39s-.62.72-.79,1.38l-1.55-.21c.14-.66.37-1.2.69-1.6.32-.41.79-.72,1.4-.94.61-.22,1.32-.33,2.12-.33s1.44.09,1.94.28.86.42,1.1.71c.23.29.4.64.49,1.08.05.27.08.76.08,1.46v2.11c0,1.47.03,2.4.1,2.79.07.39.2.76.4,1.12h-1.65c-.16-.33-.27-.71-.32-1.15ZM794.81,262.6c-.57.23-1.44.43-2.58.6-.65.09-1.11.2-1.38.32s-.48.29-.62.51-.22.48-.22.75c0,.42.16.77.48,1.05s.79.42,1.4.42,1.15-.13,1.63-.4.82-.63,1.05-1.09c.17-.36.25-.88.25-1.58v-.58Z"/>
    <path d="M798.68,267.29v-9.33h1.42v1.42c.36-.66.7-1.1,1.01-1.31s.65-.32,1.01-.32c.53,0,1.08.17,1.63.51l-.54,1.47c-.39-.23-.77-.34-1.16-.34-.35,0-.66.1-.93.31s-.47.5-.59.87c-.18.56-.26,1.18-.26,1.85v4.89h-1.58Z"/>
    <path d="M808.72,265.87l.23,1.4c-.45.09-.84.14-1.2.14-.57,0-1.02-.09-1.34-.27s-.54-.42-.67-.72-.19-.92-.19-1.87v-5.37h-1.16v-1.23h1.16v-2.31l1.57-.95v3.26h1.59v1.23h-1.59v5.46c0,.45.03.74.08.87s.15.23.27.31.31.11.54.11c.18,0,.41-.02.69-.06Z"/>
    <path d="M816.38,264.28l1.63.2c-.26.96-.74,1.7-1.43,2.22s-1.59.79-2.67.79c-1.37,0-2.45-.42-3.25-1.26-.8-.84-1.2-2.02-1.2-3.54s.4-2.79,1.21-3.66,1.86-1.3,3.15-1.3,2.27.42,3.06,1.27,1.19,2.04,1.19,3.59c0,.09,0,.23,0,.42h-6.96c.06,1.03.35,1.81.87,2.36s1.17.82,1.95.82c.58,0,1.08-.15,1.49-.46s.74-.79.98-1.46ZM811.18,261.72h5.21c-.07-.79-.27-1.37-.6-1.77-.5-.61-1.16-.91-1.96-.91-.73,0-1.34.24-1.83.73s-.77,1.14-.82,1.95Z"/>
    <path d="M820.08,267.29v-8.1h-1.4v-1.23h1.4v-.99c0-.63.06-1.09.17-1.4.15-.41.42-.74.8-1,.38-.25.92-.38,1.61-.38.45,0,.94.05,1.48.16l-.24,1.38c-.33-.06-.64-.09-.93-.09-.48,0-.82.1-1.02.31s-.3.59-.3,1.15v.86h1.82v1.23h-1.82v8.1h-1.57Z"/>
    <path d="M830.69,266.14c-.59.5-1.15.85-1.69,1.05s-1.12.31-1.75.31c-1.03,0-1.81-.25-2.36-.75-.55-.5-.83-1.14-.83-1.92,0-.46.1-.88.31-1.25.21-.38.48-.68.82-.91s.72-.4,1.14-.52c.31-.08.78-.16,1.41-.24,1.28-.15,2.22-.33,2.82-.54,0-.22,0-.35,0-.41,0-.64-.15-1.1-.45-1.36-.4-.36-1-.54-1.8-.54-.74,0-1.29.13-1.65.39s-.62.72-.79,1.38l-1.55-.21c.14-.66.37-1.2.69-1.6.32-.41.79-.72,1.4-.94.61-.22,1.32-.33,2.12-.33s1.44.09,1.94.28.86.42,1.1.71c.23.29.4.64.49,1.08.05.27.08.76.08,1.46v2.11c0,1.47.03,2.4.1,2.79.07.39.2.76.4,1.12h-1.65c-.16-.33-.27-.71-.32-1.15ZM830.55,262.6c-.57.23-1.44.43-2.58.6-.65.09-1.11.2-1.38.32s-.48.29-.62.51-.22.48-.22.75c0,.42.16.77.48,1.05s.79.42,1.4.42,1.15-.13,1.63-.4.82-.63,1.05-1.09c.17-.36.25-.88.25-1.58v-.58Z"/>
    <path d="M840.47,263.87l1.56.2c-.17,1.07-.61,1.91-1.31,2.52-.7.61-1.56.91-2.58.91-1.28,0-2.3-.42-3.08-1.25-.78-.84-1.16-2.03-1.16-3.59,0-1.01.17-1.89.5-2.65s.84-1.32,1.52-1.7c.68-.38,1.43-.57,2.23-.57,1.01,0,1.84.26,2.49.77s1.06,1.24,1.24,2.18l-1.54.24c-.15-.63-.41-1.1-.78-1.42s-.82-.47-1.35-.47c-.8,0-1.44.29-1.94.86-.5.57-.75,1.47-.75,2.71s.24,2.17.72,2.73,1.11.85,1.88.85c.62,0,1.14-.19,1.56-.57s.68-.97.79-1.76Z"/>
    <path d="M846.88,265.87l.23,1.4c-.45.09-.84.14-1.2.14-.57,0-1.02-.09-1.34-.27s-.54-.42-.67-.72-.19-.92-.19-1.87v-5.37h-1.16v-1.23h1.16v-2.31l1.57-.95v3.26h1.59v1.23h-1.59v5.46c0,.45.03.74.08.87s.15.23.27.31.31.11.54.11c.18,0,.41-.02.69-.06Z"/>
    <path d="M847.76,264.5l1.56-.25c.09.63.33,1.11.73,1.44s.96.5,1.68.5,1.27-.15,1.62-.44.53-.64.53-1.04c0-.36-.16-.64-.47-.84-.22-.14-.76-.32-1.62-.54-1.16-.29-1.96-.55-2.41-.76s-.79-.51-1.02-.89c-.23-.38-.35-.79-.35-1.25,0-.42.1-.8.29-1.16.19-.35.45-.65.78-.88.25-.18.58-.33,1.01-.46s.88-.19,1.37-.19c.73,0,1.38.11,1.93.32s.96.5,1.23.86c.26.36.45.84.54,1.45l-1.55.21c-.07-.48-.27-.86-.61-1.12s-.81-.4-1.43-.4c-.73,0-1.25.12-1.56.36s-.47.52-.47.84c0,.21.06.39.19.55.13.17.33.31.61.42.16.06.62.19,1.4.4,1.12.3,1.9.54,2.34.73s.79.47,1.04.83.38.81.38,1.35-.15,1.02-.46,1.49c-.31.46-.75.83-1.33,1.08-.58.26-1.24.38-1.97.38-1.21,0-2.14-.25-2.77-.76s-1.04-1.25-1.22-2.24Z"/>
    <path d="M745.79,291.07c-.87-1.1-1.61-2.39-2.21-3.87s-.91-3.01-.91-4.59c0-1.39.23-2.73.68-4.01.53-1.48,1.34-2.96,2.44-4.43h1.13c-.71,1.22-1.18,2.09-1.41,2.61-.36.81-.64,1.65-.84,2.53-.25,1.1-.38,2.2-.38,3.3,0,2.82.88,5.63,2.63,8.45h-1.13Z"/>
    <path d="M753.86,287.29v-1.18c-.59.93-1.46,1.39-2.61,1.39-.74,0-1.43-.21-2.05-.62s-1.11-.98-1.45-1.72c-.34-.73-.51-1.58-.51-2.54s.16-1.78.47-2.54.78-1.34,1.4-1.75,1.32-.61,2.08-.61c.56,0,1.06.12,1.5.36.44.24.8.55,1.07.93v-4.62h1.57v12.88h-1.47ZM748.86,282.63c0,1.2.25,2.09.76,2.68s1.1.89,1.78.89,1.28-.28,1.76-.85.73-1.43.73-2.59c0-1.28-.25-2.21-.74-2.81s-1.1-.9-1.82-.9-1.29.29-1.76.86-.71,1.48-.71,2.72Z"/>
    <path d="M764.06,284.28l1.63.2c-.26.96-.74,1.7-1.43,2.22s-1.59.79-2.67.79c-1.37,0-2.45-.42-3.25-1.26-.8-.84-1.2-2.02-1.2-3.54s.4-2.79,1.21-3.66,1.86-1.3,3.15-1.3,2.27.42,3.06,1.27,1.19,2.04,1.19,3.59c0,.09,0,.23,0,.42h-6.96c.06,1.03.35,1.81.87,2.36s1.17.82,1.95.82c.58,0,1.08-.15,1.49-.46s.74-.79.98-1.46ZM758.86,281.72h5.21c-.07-.79-.27-1.37-.6-1.77-.5-.61-1.16-.91-1.96-.91-.73,0-1.34.24-1.83.73s-.77,1.14-.82,1.95Z"/>
    <path d="M766.97,284.5l1.56-.25c.09.63.33,1.11.73,1.44s.96.5,1.68.5,1.27-.15,1.62-.44.53-.64.53-1.04c0-.36-.16-.64-.47-.84-.22-.14-.76-.32-1.62-.54-1.16-.29-1.96-.55-2.41-.76s-.79-.51-1.02-.89c-.23-.38-.35-.79-.35-1.25,0-.42.09-.8.29-1.16.19-.35.45-.65.78-.88.25-.18.58-.33,1.01-.46s.88-.19,1.37-.19c.73,0,1.38.11,1.93.32s.96.5,1.23.86c.26.36.45.84.54,1.45l-1.55.21c-.07-.48-.27-.86-.61-1.12s-.81-.4-1.43-.4c-.73,0-1.25.12-1.56.36s-.47.52-.47.84c0,.21.06.39.19.55.13.17.33.31.61.42.16.06.62.19,1.4.4,1.12.3,1.9.54,2.34.73s.79.47,1.04.83.38.81.38,1.35-.15,1.02-.46,1.49c-.31.46-.75.83-1.33,1.08-.58.26-1.24.38-1.97.38-1.21,0-2.14-.25-2.77-.76s-1.04-1.25-1.22-2.24Z"/>
    <path d="M776.46,276.22v-1.82h1.58v1.82h-1.58ZM776.46,287.29v-9.33h1.58v9.33h-1.58Z"/>
    <path d="M780.08,288.06l1.54.23c.06.47.24.82.54,1.04.39.29.93.44,1.61.44.73,0,1.3-.15,1.7-.44s.67-.7.81-1.23c.08-.32.12-1,.11-2.03-.69.81-1.55,1.22-2.58,1.22-1.28,0-2.28-.46-2.98-1.39s-1.05-2.04-1.05-3.33c0-.89.16-1.71.48-2.47.32-.75.79-1.33,1.4-1.74s1.33-.62,2.16-.62c1.1,0,2.01.45,2.72,1.34v-1.12h1.46v8.07c0,1.45-.15,2.48-.44,3.09-.3.61-.76,1.08-1.41,1.44s-1.43.53-2.37.53c-1.11,0-2.01-.25-2.7-.75-.69-.5-1.02-1.26-.99-2.26ZM781.39,282.45c0,1.22.24,2.12.73,2.68s1.1.84,1.83.84,1.34-.28,1.83-.84.74-1.44.74-2.63-.25-2-.76-2.58-1.12-.87-1.83-.87-1.3.29-1.79.86c-.49.57-.74,1.42-.74,2.54Z"/>
    <path d="M790.22,287.29v-9.33h1.42v1.33c.69-1.03,1.68-1.54,2.97-1.54.56,0,1.08.1,1.55.3.47.2.82.47,1.06.8s.4.72.49,1.17c.06.29.09.81.09,1.54v5.74h-1.58v-5.68c0-.64-.06-1.13-.18-1.45s-.34-.57-.65-.77c-.31-.19-.68-.29-1.1-.29-.67,0-1.25.21-1.74.64s-.73,1.24-.73,2.43v5.1h-1.58Z"/>
    <path d="M805.24,290.86v-12.91h1.44v1.21c.34-.47.72-.83,1.15-1.07.43-.24.95-.36,1.56-.36.8,0,1.5.21,2.11.62s1.07.99,1.38,1.74c.31.75.47,1.57.47,2.46,0,.96-.17,1.82-.51,2.58-.34.77-.84,1.35-1.49,1.76-.65.41-1.34.61-2.06.61-.53,0-1-.11-1.42-.33s-.76-.5-1.03-.84v4.54h-1.58ZM806.67,282.67c0,1.2.24,2.09.73,2.66s1.08.86,1.77.86,1.31-.3,1.81-.89c.5-.59.75-1.52.75-2.76s-.24-2.08-.73-2.67-1.07-.89-1.75-.89-1.27.32-1.79.94c-.52.63-.78,1.55-.78,2.75Z"/>
    <path d="M815.12,287.29v-9.33h1.42v1.42c.36-.66.7-1.1,1.01-1.31s.65-.32,1.02-.32c.53,0,1.08.17,1.63.51l-.54,1.47c-.39-.23-.77-.34-1.16-.34-.35,0-.66.1-.93.31s-.47.5-.59.87c-.18.56-.26,1.18-.26,1.85v4.89h-1.58Z"/>
    <path d="M820.44,282.62c0-1.73.48-3.01,1.44-3.84.8-.69,1.78-1.04,2.94-1.04,1.28,0,2.33.42,3.15,1.26s1.22,2,1.22,3.48c0,1.2-.18,2.15-.54,2.83-.36.69-.88,1.22-1.57,1.6s-1.44.57-2.25.57c-1.31,0-2.36-.42-3.17-1.26s-1.21-2.04-1.21-3.62ZM822.07,282.62c0,1.2.26,2.09.78,2.68.52.6,1.18.89,1.97.89s1.44-.3,1.96-.9.78-1.51.78-2.73c0-1.15-.26-2.03-.79-2.62-.52-.59-1.18-.89-1.96-.89s-1.45.3-1.97.89-.78,1.49-.78,2.68Z"/>
    <path d="M837.05,287.29v-1.18c-.59.93-1.46,1.39-2.61,1.39-.74,0-1.43-.21-2.05-.62s-1.11-.98-1.45-1.72c-.34-.73-.51-1.58-.51-2.54s.16-1.78.47-2.54.78-1.34,1.4-1.75,1.32-.61,2.08-.61c.56,0,1.06.12,1.5.36.44.24.8.55,1.07.93v-4.62h1.57v12.88h-1.47ZM832.05,282.63c0,1.2.25,2.09.76,2.68s1.1.89,1.78.89,1.28-.28,1.76-.85.72-1.43.72-2.59c0-1.28-.25-2.21-.74-2.81s-1.1-.9-1.82-.9-1.29.29-1.76.86-.71,1.48-.71,2.72Z"/>
    <path d="M846.92,287.29v-1.37c-.73,1.05-1.71,1.58-2.96,1.58-.55,0-1.06-.11-1.54-.32s-.83-.48-1.06-.79-.39-.71-.49-1.17c-.06-.31-.1-.8-.1-1.48v-5.78h1.58v5.18c0,.83.03,1.38.1,1.67.1.42.31.74.63.98.32.24.72.36,1.2.36s.92-.12,1.34-.36.71-.57.88-.99c.17-.42.26-1.03.26-1.82v-5h1.58v9.33h-1.42Z"/>
    <path d="M856.73,283.87l1.56.2c-.17,1.07-.6,1.91-1.3,2.52-.7.61-1.56.91-2.58.91-1.28,0-2.3-.42-3.08-1.25-.78-.84-1.17-2.03-1.17-3.59,0-1.01.17-1.89.5-2.65s.84-1.32,1.53-1.7c.68-.38,1.42-.57,2.23-.57,1.01,0,1.84.26,2.49.77s1.06,1.24,1.24,2.18l-1.54.24c-.15-.63-.41-1.1-.78-1.42s-.82-.47-1.35-.47c-.8,0-1.44.29-1.94.86-.5.57-.75,1.47-.75,2.71s.24,2.17.72,2.73,1.11.85,1.88.85c.62,0,1.14-.19,1.56-.57s.68-.97.79-1.76Z"/>
    <path d="M863.14,285.87l.23,1.4c-.45.09-.84.14-1.2.14-.57,0-1.02-.09-1.34-.27s-.54-.42-.67-.72-.19-.92-.19-1.87v-5.37h-1.16v-1.23h1.16v-2.31l1.57-.95v3.26h1.59v1.23h-1.59v5.46c0,.45.03.74.08.87s.15.23.27.31.31.11.54.11c.18,0,.41-.02.69-.06Z"/>
    <path d="M864.02,284.5l1.56-.25c.09.63.33,1.11.73,1.44s.96.5,1.68.5,1.27-.15,1.62-.44.53-.64.53-1.04c0-.36-.16-.64-.47-.84-.22-.14-.76-.32-1.62-.54-1.16-.29-1.96-.55-2.41-.76s-.79-.51-1.02-.89c-.23-.38-.35-.79-.35-1.25,0-.42.1-.8.29-1.16.19-.35.45-.65.78-.88.25-.18.58-.33,1.01-.46s.88-.19,1.37-.19c.73,0,1.38.11,1.93.32s.96.5,1.23.86c.26.36.45.84.54,1.45l-1.55.21c-.07-.48-.27-.86-.61-1.12s-.81-.4-1.43-.4c-.73,0-1.25.12-1.56.36s-.47.52-.47.84c0,.21.06.39.19.55.13.17.33.31.61.42.16.06.62.19,1.4.4,1.12.3,1.9.54,2.34.73s.79.47,1.04.83.38.81.38,1.35-.15,1.02-.46,1.49c-.31.46-.75.83-1.33,1.08-.58.26-1.24.38-1.97.38-1.21,0-2.14-.25-2.77-.76s-1.04-1.25-1.22-2.24Z"/>
    <path d="M884.75,286.14c-.59.5-1.15.85-1.69,1.05s-1.12.31-1.75.31c-1.03,0-1.81-.25-2.36-.75-.55-.5-.83-1.14-.83-1.92,0-.46.1-.88.31-1.25.21-.38.48-.68.82-.91s.72-.4,1.14-.52c.31-.08.78-.16,1.41-.24,1.28-.15,2.22-.33,2.82-.54,0-.22,0-.35,0-.41,0-.64-.15-1.1-.45-1.36-.4-.36-1-.54-1.8-.54-.74,0-1.29.13-1.65.39s-.62.72-.79,1.38l-1.55-.21c.14-.66.37-1.2.69-1.6.32-.41.79-.72,1.4-.94.61-.22,1.32-.33,2.12-.33s1.44.09,1.94.28.86.42,1.1.71c.23.29.4.64.49,1.08.05.27.08.76.08,1.46v2.11c0,1.47.03,2.4.1,2.79.07.39.2.76.4,1.12h-1.65c-.16-.33-.27-.71-.32-1.15ZM884.62,282.6c-.57.23-1.44.43-2.58.6-.65.09-1.11.2-1.38.32s-.48.29-.62.51-.22.48-.22.75c0,.42.16.77.48,1.05s.79.42,1.4.42,1.15-.13,1.63-.4.82-.63,1.05-1.09c.17-.36.25-.88.25-1.58v-.58Z"/>
    <path d="M888.5,287.29v-9.33h1.42v1.33c.69-1.03,1.68-1.54,2.97-1.54.56,0,1.08.1,1.55.3.47.2.82.47,1.06.8s.4.72.49,1.17c.06.29.09.81.09,1.54v5.74h-1.58v-5.68c0-.64-.06-1.13-.18-1.45s-.34-.57-.65-.77c-.31-.19-.68-.29-1.1-.29-.67,0-1.25.21-1.74.64s-.73,1.24-.73,2.43v5.1h-1.58Z"/>
    <path d="M904.44,287.29v-1.18c-.59.93-1.46,1.39-2.61,1.39-.74,0-1.43-.21-2.05-.62s-1.11-.98-1.45-1.72c-.34-.73-.51-1.58-.51-2.54s.16-1.78.47-2.54.78-1.34,1.4-1.75,1.32-.61,2.08-.61c.56,0,1.06.12,1.5.36.44.24.8.55,1.07.93v-4.62h1.57v12.88h-1.47ZM899.44,282.63c0,1.2.25,2.09.76,2.68s1.1.89,1.78.89,1.28-.28,1.76-.85.72-1.43.72-2.59c0-1.28-.25-2.21-.74-2.81s-1.1-.9-1.82-.9-1.29.29-1.76.86-.71,1.48-.71,2.72Z"/>
    <path d="M748.82,307.29v-1.18c-.59.93-1.46,1.39-2.61,1.39-.74,0-1.43-.21-2.05-.62s-1.11-.98-1.45-1.72c-.34-.73-.51-1.58-.51-2.54s.16-1.78.47-2.54.78-1.34,1.4-1.75,1.32-.61,2.08-.61c.56,0,1.06.12,1.5.36.44.24.8.55,1.07.93v-4.62h1.57v12.88h-1.47ZM743.82,302.63c0,1.2.25,2.09.76,2.68s1.1.89,1.78.89,1.28-.28,1.76-.85.72-1.43.72-2.59c0-1.28-.25-2.21-.74-2.81s-1.1-.9-1.82-.9-1.29.29-1.76.86-.71,1.48-.71,2.72Z"/>
    <path d="M759.01,304.28l1.63.2c-.26.96-.74,1.7-1.43,2.22s-1.59.79-2.67.79c-1.37,0-2.45-.42-3.25-1.26-.8-.84-1.2-2.02-1.2-3.54s.4-2.79,1.21-3.66,1.86-1.3,3.15-1.3,2.27.42,3.06,1.27,1.19,2.04,1.19,3.59c0,.09,0,.23,0,.42h-6.96c.06,1.03.35,1.81.87,2.36s1.17.82,1.95.82c.58,0,1.08-.15,1.49-.46s.74-.79.98-1.46ZM753.82,301.72h5.21c-.07-.79-.27-1.37-.6-1.77-.5-.61-1.16-.91-1.96-.91-.73,0-1.34.24-1.83.73s-.77,1.14-.82,1.95Z"/>
    <path d="M761.92,304.5l1.56-.25c.09.63.33,1.11.73,1.44s.96.5,1.68.5,1.27-.15,1.62-.44.53-.64.53-1.04c0-.36-.16-.64-.47-.84-.22-.14-.76-.32-1.62-.54-1.16-.29-1.96-.55-2.41-.76s-.79-.51-1.02-.89c-.23-.38-.35-.79-.35-1.25,0-.42.1-.8.29-1.16.19-.35.45-.65.78-.88.25-.18.58-.33,1.01-.46s.88-.19,1.37-.19c.73,0,1.38.11,1.93.32s.96.5,1.23.86c.26.36.45.84.54,1.45l-1.55.21c-.07-.48-.27-.86-.61-1.12s-.81-.4-1.43-.4c-.73,0-1.25.12-1.56.36s-.47.52-.47.84c0,.21.06.39.19.55.13.17.33.31.61.42.16.06.62.19,1.4.4,1.12.3,1.9.54,2.34.73s.79.47,1.04.83.38.81.38,1.35-.15,1.02-.46,1.49c-.31.46-.75.83-1.33,1.08-.58.26-1.24.38-1.97.38-1.21,0-2.14-.25-2.77-.76s-1.04-1.25-1.22-2.24Z"/>
    <path d="M771.41,296.22v-1.82h1.58v1.82h-1.58ZM771.41,307.29v-9.33h1.58v9.33h-1.58Z"/>
    <path d="M775.04,308.06l1.54.23c.06.47.24.82.54,1.04.39.29.93.44,1.61.44.73,0,1.3-.15,1.7-.44s.67-.7.81-1.23c.08-.32.12-1,.11-2.03-.69.81-1.55,1.22-2.58,1.22-1.28,0-2.28-.46-2.98-1.39s-1.05-2.04-1.05-3.33c0-.89.16-1.71.48-2.47.32-.75.79-1.33,1.4-1.74s1.33-.62,2.16-.62c1.1,0,2.01.45,2.72,1.34v-1.12h1.46v8.07c0,1.45-.15,2.48-.44,3.09-.3.61-.76,1.08-1.41,1.44s-1.43.53-2.37.53c-1.11,0-2.01-.25-2.7-.75-.69-.5-1.02-1.26-.99-2.26ZM776.34,302.45c0,1.22.24,2.12.73,2.68s1.1.84,1.83.84,1.34-.28,1.83-.84.74-1.44.74-2.63-.25-2-.76-2.58-1.12-.87-1.83-.87-1.3.29-1.79.86c-.49.57-.74,1.42-.74,2.54Z"/>
    <path d="M785.18,307.29v-9.33h1.42v1.33c.69-1.03,1.68-1.54,2.97-1.54.56,0,1.08.1,1.55.3.47.2.83.47,1.06.8s.4.72.49,1.17c.06.29.09.81.09,1.54v5.74h-1.58v-5.68c0-.64-.06-1.13-.18-1.45s-.34-.57-.66-.77c-.31-.19-.68-.29-1.1-.29-.67,0-1.26.21-1.75.64s-.73,1.24-.73,2.43v5.1h-1.58Z"/>
    <path d="M800.19,310.86v-12.91h1.44v1.21c.34-.47.72-.83,1.15-1.07.43-.24.95-.36,1.56-.36.8,0,1.5.21,2.11.62s1.07.99,1.38,1.74c.31.75.47,1.57.47,2.46,0,.96-.17,1.82-.51,2.58-.34.77-.84,1.35-1.49,1.76-.65.41-1.34.61-2.06.61-.53,0-1-.11-1.42-.33s-.76-.5-1.03-.84v4.54h-1.58ZM801.62,302.67c0,1.2.24,2.09.73,2.66s1.08.86,1.77.86,1.3-.3,1.81-.89c.5-.59.75-1.52.75-2.76s-.25-2.08-.73-2.67-1.07-.89-1.75-.89-1.27.32-1.79.94c-.52.63-.78,1.55-.78,2.75Z"/>
    <path d="M810.08,307.29v-9.33h1.42v1.42c.36-.66.7-1.1,1.01-1.31s.65-.32,1.02-.32c.53,0,1.08.17,1.63.51l-.54,1.47c-.39-.23-.77-.34-1.16-.34-.35,0-.66.1-.93.31s-.47.5-.59.87c-.18.56-.26,1.18-.26,1.85v4.89h-1.58Z"/>
    <path d="M815.39,302.62c0-1.73.48-3.01,1.44-3.84.8-.69,1.78-1.04,2.94-1.04,1.28,0,2.33.42,3.15,1.26s1.22,2,1.22,3.48c0,1.2-.18,2.15-.54,2.83-.36.69-.88,1.22-1.57,1.6s-1.44.57-2.25.57c-1.31,0-2.36-.42-3.17-1.26s-1.21-2.04-1.21-3.62ZM817.02,302.62c0,1.2.26,2.09.78,2.68.52.6,1.18.89,1.97.89s1.44-.3,1.96-.9.78-1.51.78-2.73c0-1.15-.26-2.03-.79-2.62-.52-.59-1.18-.89-1.96-.89s-1.45.3-1.97.89-.78,1.49-.78,2.68Z"/>
    <path d="M832.04,303.87l1.56.2c-.17,1.07-.6,1.91-1.3,2.52-.7.61-1.56.91-2.58.91-1.28,0-2.3-.42-3.08-1.25-.78-.84-1.17-2.03-1.17-3.59,0-1.01.17-1.89.5-2.65s.84-1.32,1.53-1.7c.68-.38,1.42-.57,2.23-.57,1.01,0,1.84.26,2.49.77s1.06,1.24,1.24,2.18l-1.54.24c-.15-.63-.41-1.1-.78-1.42s-.82-.47-1.35-.47c-.8,0-1.44.29-1.94.86-.5.57-.75,1.47-.75,2.71s.24,2.17.72,2.73,1.11.85,1.88.85c.62,0,1.14-.19,1.56-.57s.68-.97.79-1.76Z"/>
    <path d="M841.48,304.28l1.63.2c-.26.96-.74,1.7-1.43,2.22s-1.59.79-2.67.79c-1.37,0-2.45-.42-3.25-1.26-.8-.84-1.2-2.02-1.2-3.54s.4-2.79,1.21-3.66,1.86-1.3,3.15-1.3,2.27.42,3.06,1.27,1.19,2.04,1.19,3.59c0,.09,0,.23,0,.42h-6.96c.06,1.03.35,1.81.87,2.36s1.17.82,1.95.82c.58,0,1.08-.15,1.49-.46s.74-.79.98-1.46ZM836.29,301.72h5.21c-.07-.79-.27-1.37-.6-1.77-.5-.61-1.16-.91-1.96-.91-.73,0-1.34.24-1.83.73s-.77,1.14-.82,1.95Z"/>
    <path d="M844.39,304.5l1.56-.25c.09.63.33,1.11.73,1.44s.96.5,1.68.5,1.27-.15,1.62-.44.53-.64.53-1.04c0-.36-.16-.64-.47-.84-.22-.14-.76-.32-1.62-.54-1.16-.29-1.96-.55-2.41-.76s-.79-.51-1.02-.89c-.23-.38-.35-.79-.35-1.25,0-.42.09-.8.29-1.16.19-.35.45-.65.78-.88.25-.18.58-.33,1.01-.46s.88-.19,1.37-.19c.73,0,1.38.11,1.93.32s.96.5,1.23.86c.26.36.45.84.54,1.45l-1.55.21c-.07-.48-.27-.86-.61-1.12s-.81-.4-1.43-.4c-.73,0-1.25.12-1.56.36s-.47.52-.47.84c0,.21.06.39.19.55.13.17.33.31.61.42.16.06.62.19,1.4.4,1.12.3,1.9.54,2.34.73s.79.47,1.04.83.38.81.38,1.35-.15,1.02-.46,1.49c-.31.46-.75.83-1.33,1.08-.58.26-1.24.38-1.97.38-1.21,0-2.14-.25-2.77-.76s-1.04-1.25-1.22-2.24Z"/>
    <path d="M853.37,304.5l1.56-.25c.09.63.33,1.11.73,1.44s.96.5,1.68.5,1.27-.15,1.62-.44.53-.64.53-1.04c0-.36-.16-.64-.47-.84-.22-.14-.76-.32-1.62-.54-1.16-.29-1.96-.55-2.41-.76s-.79-.51-1.02-.89c-.23-.38-.35-.79-.35-1.25,0-.42.09-.8.29-1.16.19-.35.45-.65.78-.88.25-.18.58-.33,1.01-.46s.88-.19,1.37-.19c.73,0,1.38.11,1.93.32s.96.5,1.23.86c.26.36.45.84.54,1.45l-1.55.21c-.07-.48-.27-.86-.61-1.12s-.81-.4-1.43-.4c-.73,0-1.25.12-1.56.36s-.47.52-.47.84c0,.21.06.39.19.55.13.17.33.31.61.42.16.06.62.19,1.4.4,1.12.3,1.9.54,2.34.73s.79.47,1.04.83.38.81.38,1.35-.15,1.02-.46,1.49c-.31.46-.75.83-1.33,1.08-.58.26-1.24.38-1.97.38-1.21,0-2.14-.25-2.77-.76s-1.04-1.25-1.22-2.24Z"/>
    <path d="M869.26,304.28l1.63.2c-.26.96-.74,1.7-1.43,2.22s-1.59.79-2.67.79c-1.37,0-2.45-.42-3.25-1.26-.8-.84-1.2-2.02-1.2-3.54s.4-2.79,1.21-3.66,1.86-1.3,3.15-1.3,2.27.42,3.06,1.27,1.19,2.04,1.19,3.59c0,.09,0,.23,0,.42h-6.96c.06,1.03.35,1.81.87,2.36s1.17.82,1.95.82c.58,0,1.08-.15,1.49-.46s.74-.79.98-1.46ZM864.07,301.72h5.21c-.07-.79-.27-1.37-.6-1.77-.5-.61-1.16-.91-1.96-.91-.73,0-1.34.24-1.83.73s-.77,1.14-.82,1.95Z"/>
    <path d="M872.17,304.5l1.56-.25c.09.63.33,1.11.73,1.44s.96.5,1.68.5,1.27-.15,1.62-.44.53-.64.53-1.04c0-.36-.16-.64-.47-.84-.22-.14-.76-.32-1.62-.54-1.16-.29-1.96-.55-2.41-.76s-.79-.51-1.02-.89c-.23-.38-.35-.79-.35-1.25,0-.42.09-.8.29-1.16.19-.35.45-.65.78-.88.25-.18.58-.33,1.01-.46s.88-.19,1.37-.19c.73,0,1.38.11,1.93.32s.96.5,1.23.86c.26.36.45.84.54,1.45l-1.55.21c-.07-.48-.27-.86-.61-1.12s-.81-.4-1.43-.4c-.73,0-1.25.12-1.56.36s-.47.52-.47.84c0,.21.06.39.19.55.13.17.33.31.61.42.16.06.62.19,1.4.4,1.12.3,1.9.54,2.34.73s.79.47,1.04.83.38.81.38,1.35-.15,1.02-.46,1.49c-.31.46-.75.83-1.33,1.08-.58.26-1.24.38-1.97.38-1.21,0-2.14-.25-2.77-.76s-1.04-1.25-1.22-2.24Z"/>
    <path d="M881.64,311.07h-1.13c1.75-2.81,2.63-5.63,2.63-8.45,0-1.1-.13-2.19-.38-3.28-.2-.88-.48-1.72-.83-2.53-.23-.53-.7-1.41-1.42-2.64h1.13c1.1,1.47,1.92,2.95,2.44,4.43.45,1.28.68,2.61.68,4.01,0,1.58-.3,3.11-.91,4.59s-1.34,2.77-2.21,3.87Z"/>
  </g>
  <text class="cls-6" transform="translate(381.73 82.29)"><tspan class="cls-45" x="0" y="0">D</tspan><tspan class="cls-27" x="14.39" y="0">e</tspan><tspan class="cls-29" x="25.41" y="0">s</tspan><tspan class="cls-25" x="35.23" y="0">i</tspan><tspan class="cls-38" x="39.57" y="0">g</tspan><tspan x="50.5" y="0">n </tspan><tspan class="cls-22" x="67.18" y="0">S</tspan><tspan class="cls-9" x="80.4" y="0">c</tspan><tspan class="cls-24" x="90.44" y="0">i</tspan><tspan class="cls-35" x="94.78" y="0">e</tspan><tspan class="cls-32" x="105.73" y="0">n</tspan><tspan class="cls-47" x="116.65" y="0">c</tspan><tspan x="126.8" y="0">e </tspan><tspan class="cls-12" x="143.48" y="0">R</tspan><tspan class="cls-26" x="157.5" y="0">e</tspan><tspan class="cls-41" x="168.52" y="0">se</tspan><tspan class="cls-37" x="189.33" y="0">a</tspan><tspan class="cls-30" x="200.26" y="0">r</tspan><tspan class="cls-7" x="206.73" y="0">c</tspan><tspan x="216.76" y="0">h</tspan></text>
  <rect class="cls-3" x="370.67" y="109.87" width="250" height="350"/>
  <g>
    <g>
      <g>
        <path d="M448.56,179.11v-12.88h4.83c.98,0,1.77.13,2.37.39.59.26,1.06.66,1.4,1.21s.5,1.11.5,1.7c0,.55-.15,1.07-.45,1.56s-.75.88-1.35,1.18c.78.23,1.38.62,1.8,1.17s.63,1.2.63,1.95c0,.6-.13,1.17-.38,1.68-.25.52-.57.92-.95,1.2s-.84.49-1.41.64-1.26.21-2.08.21h-4.91ZM450.27,171.64h2.79c.76,0,1.3-.05,1.63-.15.43-.13.76-.34.98-.64s.33-.67.33-1.12c0-.43-.1-.8-.31-1.13-.21-.33-.5-.55-.88-.67s-1.03-.18-1.96-.18h-2.58v3.89ZM450.27,177.59h3.21c.55,0,.94-.02,1.16-.06.39-.07.72-.19.98-.35s.48-.4.65-.72c.17-.31.25-.67.25-1.08,0-.48-.12-.9-.37-1.25-.25-.35-.59-.6-1.02-.75s-1.07-.22-1.89-.22h-2.98v4.43Z"/>
        <path d="M466.42,179.11v-1.37c-.73,1.05-1.71,1.58-2.96,1.58-.55,0-1.06-.11-1.54-.32s-.83-.48-1.06-.79-.39-.71-.49-1.17c-.06-.31-.1-.8-.1-1.48v-5.78h1.58v5.18c0,.83.03,1.38.1,1.67.1.42.31.74.63.98.32.24.72.36,1.2.36s.92-.12,1.34-.36.71-.57.88-.99c.17-.42.26-1.03.26-1.82v-5h1.58v9.33h-1.42Z"/>
        <path d="M470.11,168.04v-1.82h1.58v1.82h-1.58ZM470.11,179.11v-9.33h1.58v9.33h-1.58Z"/>
        <path d="M473.92,179.11v-12.88h1.58v12.88h-1.58Z"/>
        <path d="M483.91,179.11v-1.18c-.59.93-1.46,1.39-2.61,1.39-.74,0-1.43-.21-2.05-.62s-1.11-.98-1.45-1.72c-.34-.73-.51-1.58-.51-2.54s.16-1.78.47-2.54.78-1.34,1.4-1.75,1.32-.61,2.08-.61c.56,0,1.06.12,1.5.36.44.24.8.55,1.07.93v-4.62h1.57v12.88h-1.47ZM478.91,174.45c0,1.2.25,2.09.76,2.68s1.1.89,1.78.89,1.28-.28,1.76-.85.73-1.43.73-2.59c0-1.28-.25-2.21-.74-2.81s-1.1-.9-1.82-.9-1.29.29-1.76.86-.71,1.48-.71,2.72Z"/>
        <path d="M498.92,179.11v-1.18c-.59.93-1.46,1.39-2.61,1.39-.74,0-1.43-.21-2.05-.62s-1.11-.98-1.45-1.72c-.34-.73-.51-1.58-.51-2.54s.16-1.78.47-2.54.78-1.34,1.4-1.75,1.32-.61,2.08-.61c.56,0,1.06.12,1.5.36.44.24.8.55,1.07.93v-4.62h1.57v12.88h-1.47ZM493.92,174.45c0,1.2.25,2.09.76,2.68s1.1.89,1.78.89,1.28-.28,1.76-.85.73-1.43.73-2.59c0-1.28-.25-2.21-.74-2.81s-1.1-.9-1.82-.9-1.29.29-1.76.86-.71,1.48-.71,2.72Z"/>
        <path d="M509.11,176.1l1.63.2c-.26.96-.74,1.7-1.43,2.22s-1.59.79-2.67.79c-1.37,0-2.45-.42-3.25-1.26-.8-.84-1.2-2.02-1.2-3.54s.4-2.79,1.21-3.66,1.86-1.3,3.15-1.3,2.27.42,3.06,1.27,1.19,2.04,1.19,3.59c0,.09,0,.23,0,.42h-6.96c.06,1.03.35,1.81.87,2.36s1.17.82,1.95.82c.58,0,1.08-.15,1.49-.46s.74-.79.98-1.46ZM503.92,173.55h5.21c-.07-.79-.27-1.37-.6-1.77-.5-.61-1.16-.91-1.96-.91-.73,0-1.34.24-1.83.73s-.77,1.14-.82,1.95Z"/>
        <path d="M512.02,176.32l1.56-.25c.09.63.33,1.11.73,1.44s.96.5,1.68.5,1.27-.15,1.62-.44.53-.64.53-1.04c0-.36-.16-.64-.47-.84-.22-.14-.76-.32-1.62-.54-1.16-.29-1.96-.55-2.41-.76s-.79-.51-1.02-.89c-.23-.38-.35-.79-.35-1.25,0-.42.09-.8.29-1.16.19-.35.45-.65.78-.88.25-.18.58-.33,1.01-.46s.88-.19,1.37-.19c.73,0,1.38.11,1.93.32s.96.5,1.23.86c.26.36.45.84.54,1.45l-1.55.21c-.07-.48-.27-.86-.61-1.12s-.81-.4-1.43-.4c-.73,0-1.25.12-1.56.36s-.47.52-.47.84c0,.21.06.39.19.55.13.17.33.31.61.42.16.06.62.19,1.4.4,1.12.3,1.9.54,2.34.73s.79.47,1.04.83.38.81.38,1.35-.15,1.02-.46,1.49c-.31.46-.75.83-1.33,1.08-.58.26-1.24.38-1.97.38-1.21,0-2.14-.25-2.77-.76s-1.04-1.25-1.22-2.24Z"/>
        <path d="M521.51,168.04v-1.82h1.58v1.82h-1.58ZM521.51,179.11v-9.33h1.58v9.33h-1.58Z"/>
        <path d="M525.14,179.88l1.54.23c.06.47.24.82.54,1.04.39.29.93.44,1.61.44.73,0,1.3-.15,1.7-.44s.67-.7.81-1.23c.08-.32.12-1,.11-2.03-.69.81-1.55,1.22-2.58,1.22-1.28,0-2.28-.46-2.98-1.39s-1.05-2.04-1.05-3.33c0-.89.16-1.71.48-2.47.32-.75.79-1.33,1.4-1.74s1.33-.62,2.16-.62c1.1,0,2.01.45,2.72,1.34v-1.12h1.46v8.07c0,1.45-.15,2.48-.44,3.09-.3.61-.76,1.08-1.41,1.44s-1.43.53-2.37.53c-1.11,0-2.01-.25-2.7-.75-.69-.5-1.02-1.26-.99-2.26ZM526.45,174.28c0,1.22.24,2.12.73,2.68s1.1.84,1.83.84,1.34-.28,1.83-.84.74-1.44.74-2.63-.25-2-.76-2.58-1.12-.87-1.83-.87-1.3.29-1.79.86c-.49.57-.74,1.42-.74,2.54Z"/>
        <path d="M535.28,179.11v-9.33h1.42v1.33c.69-1.03,1.68-1.54,2.97-1.54.56,0,1.08.1,1.55.3.47.2.82.47,1.06.8s.4.72.49,1.17c.06.29.09.81.09,1.54v5.74h-1.58v-5.68c0-.64-.06-1.13-.18-1.45s-.34-.57-.65-.77c-.31-.19-.68-.29-1.1-.29-.67,0-1.25.21-1.74.64s-.73,1.24-.73,2.43v5.1h-1.58Z"/>
        <path d="M454.12,197.96c-.59.5-1.15.85-1.69,1.05s-1.12.31-1.75.31c-1.03,0-1.81-.25-2.36-.75-.55-.5-.83-1.14-.83-1.92,0-.46.1-.88.31-1.25.21-.38.48-.68.82-.91s.72-.4,1.14-.52c.31-.08.78-.16,1.41-.24,1.28-.15,2.22-.33,2.82-.54,0-.22,0-.35,0-.41,0-.64-.15-1.1-.45-1.36-.4-.36-1-.54-1.8-.54-.74,0-1.29.13-1.65.39s-.62.72-.79,1.38l-1.55-.21c.14-.66.37-1.2.69-1.6.32-.41.79-.72,1.4-.94.61-.22,1.32-.33,2.12-.33s1.44.09,1.94.28.86.42,1.1.71c.23.29.4.64.49,1.08.05.27.08.76.08,1.46v2.11c0,1.47.03,2.4.1,2.79.07.39.2.76.4,1.12h-1.65c-.16-.33-.27-.71-.32-1.15ZM453.98,194.43c-.57.23-1.44.43-2.58.6-.65.09-1.11.2-1.38.32s-.48.29-.62.51-.22.48-.22.75c0,.42.16.77.48,1.05s.79.42,1.4.42,1.15-.13,1.63-.4.82-.63,1.05-1.09c.17-.36.25-.88.25-1.58v-.58Z"/>
        <path d="M457.86,199.11v-9.33h1.42v1.42c.36-.66.7-1.1,1.01-1.31s.65-.32,1.01-.32c.53,0,1.08.17,1.63.51l-.54,1.47c-.39-.23-.77-.34-1.16-.34-.35,0-.66.1-.93.31s-.47.5-.59.87c-.18.56-.26,1.18-.26,1.85v4.89h-1.58Z"/>
        <path d="M467.89,197.69l.23,1.4c-.45.09-.84.14-1.2.14-.57,0-1.02-.09-1.34-.27s-.54-.42-.67-.72-.19-.92-.19-1.87v-5.37h-1.16v-1.23h1.16v-2.31l1.57-.95v3.26h1.59v1.23h-1.59v5.46c0,.45.03.74.08.87s.15.23.27.31.31.11.54.11c.18,0,.41-.02.69-.06Z"/>
        <path d="M469.38,188.04v-1.82h1.58v1.82h-1.58ZM469.38,199.11v-9.33h1.58v9.33h-1.58Z"/>
        <path d="M473.65,199.11v-8.1h-1.4v-1.23h1.4v-.99c0-.63.06-1.09.17-1.4.15-.41.42-.74.8-1,.38-.25.92-.38,1.61-.38.45,0,.94.05,1.48.16l-.24,1.38c-.33-.06-.64-.09-.93-.09-.48,0-.82.1-1.02.31s-.3.59-.3,1.15v.86h1.82v1.23h-1.82v8.1h-1.57Z"/>
        <path d="M484.25,197.96c-.59.5-1.15.85-1.69,1.05s-1.12.31-1.74.31c-1.03,0-1.81-.25-2.36-.75-.55-.5-.83-1.14-.83-1.92,0-.46.1-.88.31-1.25.21-.38.48-.68.82-.91s.72-.4,1.14-.52c.31-.08.78-.16,1.41-.24,1.28-.15,2.22-.33,2.82-.54,0-.22,0-.35,0-.41,0-.64-.15-1.1-.45-1.36-.4-.36-1-.54-1.8-.54-.74,0-1.29.13-1.65.39s-.62.72-.79,1.38l-1.55-.21c.14-.66.37-1.2.69-1.6.32-.41.79-.72,1.4-.94.61-.22,1.32-.33,2.12-.33s1.44.09,1.94.28.86.42,1.1.71c.23.29.4.64.49,1.08.05.27.08.76.08,1.46v2.11c0,1.47.03,2.4.1,2.79.07.39.2.76.4,1.12h-1.65c-.16-.33-.27-.71-.32-1.15ZM484.12,194.43c-.57.23-1.44.43-2.58.6-.65.09-1.11.2-1.38.32s-.48.29-.62.51-.22.48-.22.75c0,.42.16.77.48,1.05s.79.42,1.4.42,1.15-.13,1.63-.4.82-.63,1.05-1.09c.17-.36.25-.88.25-1.58v-.58Z"/>
        <path d="M494.04,195.69l1.56.2c-.17,1.07-.6,1.91-1.3,2.52-.7.61-1.56.91-2.58.91-1.28,0-2.3-.42-3.08-1.25-.78-.84-1.17-2.03-1.17-3.59,0-1.01.17-1.89.5-2.65s.84-1.32,1.53-1.7c.68-.38,1.42-.57,2.23-.57,1.01,0,1.84.26,2.49.77s1.06,1.24,1.24,2.18l-1.54.24c-.15-.63-.41-1.1-.78-1.42s-.82-.47-1.35-.47c-.8,0-1.44.29-1.94.86-.5.57-.75,1.47-.75,2.71s.24,2.17.72,2.73,1.11.85,1.88.85c.62,0,1.14-.19,1.56-.57s.68-.97.79-1.76Z"/>
        <path d="M500.44,197.69l.23,1.4c-.45.09-.84.14-1.2.14-.57,0-1.02-.09-1.34-.27s-.54-.42-.67-.72-.19-.92-.19-1.87v-5.37h-1.16v-1.23h1.16v-2.31l1.57-.95v3.26h1.59v1.23h-1.59v5.46c0,.45.03.74.08.87s.15.23.27.31.31.11.54.11c.18,0,.41-.02.69-.06Z"/>
        <path d="M501.33,196.32l1.56-.25c.09.63.33,1.11.73,1.44s.96.5,1.68.5,1.27-.15,1.62-.44.53-.64.53-1.04c0-.36-.16-.64-.47-.84-.22-.14-.76-.32-1.62-.54-1.16-.29-1.96-.55-2.41-.76s-.79-.51-1.02-.89c-.23-.38-.35-.79-.35-1.25,0-.42.1-.8.29-1.16.19-.35.45-.65.78-.88.25-.18.58-.33,1.01-.46s.88-.19,1.37-.19c.73,0,1.38.11,1.93.32s.96.5,1.23.86c.26.36.45.84.54,1.45l-1.55.21c-.07-.48-.27-.86-.61-1.12s-.81-.4-1.43-.4c-.73,0-1.25.12-1.56.36s-.47.52-.47.84c0,.21.06.39.19.55.13.17.33.31.61.42.16.06.62.19,1.4.4,1.12.3,1.9.54,2.34.73s.79.47,1.04.83.38.81.38,1.35-.15,1.02-.46,1.49c-.31.46-.75.83-1.33,1.08-.58.26-1.24.38-1.97.38-1.21,0-2.14-.25-2.77-.76s-1.04-1.25-1.22-2.24Z"/>
        <path d="M522.05,197.96c-.59.5-1.15.85-1.69,1.05s-1.12.31-1.75.31c-1.03,0-1.81-.25-2.36-.75-.55-.5-.83-1.14-.83-1.92,0-.46.1-.88.31-1.25.21-.38.48-.68.82-.91s.72-.4,1.14-.52c.31-.08.78-.16,1.41-.24,1.28-.15,2.22-.33,2.82-.54,0-.22,0-.35,0-.41,0-.64-.15-1.1-.45-1.36-.4-.36-1-.54-1.8-.54-.74,0-1.29.13-1.65.39s-.62.72-.79,1.38l-1.55-.21c.14-.66.37-1.2.69-1.6.32-.41.79-.72,1.4-.94.61-.22,1.32-.33,2.12-.33s1.44.09,1.94.28.86.42,1.1.71c.23.29.4.64.49,1.08.05.27.08.76.08,1.46v2.11c0,1.47.03,2.4.1,2.79.07.39.2.76.4,1.12h-1.65c-.16-.33-.27-.71-.32-1.15ZM521.92,194.43c-.57.23-1.44.43-2.58.6-.65.09-1.11.2-1.38.32s-.48.29-.62.51-.22.48-.22.75c0,.42.16.77.48,1.05s.79.42,1.4.42,1.15-.13,1.63-.4.82-.63,1.05-1.09c.17-.36.25-.88.25-1.58v-.58Z"/>
        <path d="M525.8,199.11v-9.33h1.42v1.33c.69-1.03,1.68-1.54,2.97-1.54.56,0,1.08.1,1.55.3.47.2.82.47,1.06.8s.4.72.49,1.17c.06.29.09.81.09,1.54v5.74h-1.58v-5.68c0-.64-.06-1.13-.18-1.45s-.34-.57-.65-.77c-.31-.19-.68-.29-1.1-.29-.67,0-1.25.21-1.74.64s-.73,1.24-.73,2.43v5.1h-1.58Z"/>
        <path d="M541.74,199.11v-1.18c-.59.93-1.46,1.39-2.61,1.39-.74,0-1.43-.21-2.05-.62s-1.11-.98-1.45-1.72c-.34-.73-.51-1.58-.51-2.54s.16-1.78.47-2.54.78-1.34,1.4-1.75,1.32-.61,2.08-.61c.56,0,1.06.12,1.5.36.44.24.8.55,1.07.93v-4.62h1.57v12.88h-1.47ZM536.74,194.45c0,1.2.25,2.09.76,2.68s1.1.89,1.78.89,1.28-.28,1.76-.85.72-1.43.72-2.59c0-1.28-.25-2.21-.74-2.81s-1.1-.9-1.82-.9-1.29.29-1.76.86-.71,1.48-.71,2.72Z"/>
        <path d="M456.05,222.69v-12.91h1.44v1.21c.34-.47.72-.83,1.15-1.07.43-.24.95-.36,1.56-.36.8,0,1.5.21,2.11.62s1.07.99,1.38,1.74c.31.75.47,1.57.47,2.46,0,.96-.17,1.82-.51,2.58-.34.77-.84,1.35-1.49,1.76-.65.41-1.34.61-2.06.61-.53,0-1-.11-1.42-.33s-.76-.5-1.03-.84v4.54h-1.58ZM457.49,214.5c0,1.2.24,2.09.73,2.66s1.08.86,1.77.86,1.31-.3,1.81-.89c.5-.59.75-1.52.75-2.76s-.24-2.08-.73-2.67-1.07-.89-1.75-.89-1.27.32-1.79.94c-.52.63-.78,1.55-.78,2.75Z"/>
        <path d="M465.94,219.11v-9.33h1.42v1.42c.36-.66.7-1.1,1.01-1.31s.65-.32,1.02-.32c.53,0,1.08.17,1.63.51l-.54,1.47c-.39-.23-.77-.34-1.16-.34-.35,0-.66.1-.93.31s-.47.5-.59.87c-.18.56-.26,1.18-.26,1.85v4.89h-1.58Z"/>
        <path d="M471.26,214.44c0-1.73.48-3.01,1.44-3.84.8-.69,1.78-1.04,2.94-1.04,1.28,0,2.33.42,3.15,1.26s1.22,2,1.22,3.48c0,1.2-.18,2.15-.54,2.83-.36.69-.88,1.22-1.57,1.6s-1.44.57-2.25.57c-1.31,0-2.36-.42-3.17-1.26s-1.21-2.04-1.21-3.62ZM472.88,214.44c0,1.2.26,2.09.78,2.68.52.6,1.18.89,1.97.89s1.44-.3,1.96-.9.78-1.51.78-2.73c0-1.15-.26-2.03-.79-2.62-.52-.59-1.18-.89-1.96-.89s-1.45.3-1.97.89-.78,1.49-.78,2.68Z"/>
        <path d="M487.9,215.69l1.56.2c-.17,1.07-.61,1.91-1.31,2.52-.7.61-1.56.91-2.58.91-1.28,0-2.3-.42-3.08-1.25-.78-.84-1.16-2.03-1.16-3.59,0-1.01.17-1.89.5-2.65s.84-1.32,1.52-1.7c.68-.38,1.43-.57,2.23-.57,1.01,0,1.84.26,2.49.77s1.06,1.24,1.24,2.18l-1.54.24c-.15-.63-.41-1.1-.78-1.42s-.82-.47-1.35-.47c-.8,0-1.44.29-1.94.86-.5.57-.75,1.47-.75,2.71s.24,2.17.72,2.73,1.11.85,1.88.85c.62,0,1.14-.19,1.56-.57s.68-.97.79-1.76Z"/>
        <path d="M497.34,216.1l1.63.2c-.26.96-.74,1.7-1.43,2.22s-1.59.79-2.67.79c-1.37,0-2.45-.42-3.25-1.26-.8-.84-1.2-2.02-1.2-3.54s.4-2.79,1.21-3.66,1.86-1.3,3.15-1.3,2.27.42,3.06,1.27,1.19,2.04,1.19,3.59c0,.09,0,.23,0,.42h-6.96c.06,1.03.35,1.81.87,2.36s1.17.82,1.95.82c.58,0,1.08-.15,1.49-.46s.74-.79.98-1.46ZM492.15,213.55h5.21c-.07-.79-.27-1.37-.6-1.77-.5-.61-1.16-.91-1.96-.91-.73,0-1.34.24-1.83.73s-.77,1.14-.82,1.95Z"/>
        <path d="M500.25,216.32l1.56-.25c.09.63.33,1.11.73,1.44s.96.5,1.68.5,1.27-.15,1.62-.44.53-.64.53-1.04c0-.36-.16-.64-.47-.84-.22-.14-.76-.32-1.62-.54-1.16-.29-1.96-.55-2.41-.76s-.79-.51-1.02-.89c-.23-.38-.35-.79-.35-1.25,0-.42.1-.8.29-1.16.19-.35.45-.65.78-.88.25-.18.58-.33,1.01-.46s.88-.19,1.37-.19c.73,0,1.38.11,1.93.32s.96.5,1.23.86c.26.36.45.84.54,1.45l-1.55.21c-.07-.48-.27-.86-.61-1.12s-.81-.4-1.43-.4c-.73,0-1.25.12-1.56.36s-.47.52-.47.84c0,.21.06.39.19.55.13.17.33.31.61.42.16.06.62.19,1.4.4,1.12.3,1.9.54,2.34.73s.79.47,1.04.83.38.81.38,1.35-.15,1.02-.46,1.49c-.31.46-.75.83-1.33,1.08-.58.26-1.24.38-1.97.38-1.21,0-2.14-.25-2.77-.76s-1.04-1.25-1.22-2.24Z"/>
        <path d="M509.23,216.32l1.56-.25c.09.63.33,1.11.73,1.44s.96.5,1.68.5,1.27-.15,1.62-.44.53-.64.53-1.04c0-.36-.16-.64-.47-.84-.22-.14-.76-.32-1.62-.54-1.16-.29-1.96-.55-2.41-.76s-.79-.51-1.02-.89c-.23-.38-.35-.79-.35-1.25,0-.42.1-.8.29-1.16.19-.35.45-.65.78-.88.25-.18.58-.33,1.01-.46s.88-.19,1.37-.19c.73,0,1.38.11,1.93.32s.96.5,1.23.86c.26.36.45.84.54,1.45l-1.55.21c-.07-.48-.27-.86-.61-1.12s-.81-.4-1.43-.4c-.73,0-1.25.12-1.56.36s-.47.52-.47.84c0,.21.06.39.19.55.13.17.33.31.61.42.16.06.62.19,1.4.4,1.12.3,1.9.54,2.34.73s.79.47,1.04.83.38.81.38,1.35-.15,1.02-.46,1.49c-.31.46-.75.83-1.33,1.08-.58.26-1.24.38-1.97.38-1.21,0-2.14-.25-2.77-.76s-1.04-1.25-1.22-2.24Z"/>
        <path d="M525.12,216.1l1.63.2c-.26.96-.74,1.7-1.43,2.22s-1.59.79-2.67.79c-1.37,0-2.45-.42-3.25-1.26-.8-.84-1.2-2.02-1.2-3.54s.4-2.79,1.21-3.66,1.86-1.3,3.15-1.3,2.27.42,3.06,1.27,1.19,2.04,1.19,3.59c0,.09,0,.23,0,.42h-6.96c.06,1.03.35,1.81.87,2.36s1.17.82,1.95.82c.58,0,1.08-.15,1.49-.46s.74-.79.98-1.46ZM519.93,213.55h5.21c-.07-.79-.27-1.37-.6-1.77-.5-.61-1.16-.91-1.96-.91-.73,0-1.34.24-1.83.73s-.77,1.14-.82,1.95Z"/>
        <path d="M528.03,216.32l1.56-.25c.09.63.33,1.11.73,1.44s.96.5,1.68.5,1.27-.15,1.62-.44.53-.64.53-1.04c0-.36-.16-.64-.47-.84-.22-.14-.76-.32-1.62-.54-1.16-.29-1.96-.55-2.41-.76s-.79-.51-1.02-.89c-.23-.38-.35-.79-.35-1.25,0-.42.1-.8.29-1.16.19-.35.45-.65.78-.88.25-.18.58-.33,1.01-.46s.88-.19,1.37-.19c.73,0,1.38.11,1.93.32s.96.5,1.23.86c.26.36.45.84.54,1.45l-1.55.21c-.07-.48-.27-.86-.61-1.12s-.81-.4-1.43-.4c-.73,0-1.25.12-1.56.36s-.47.52-.47.84c0,.21.06.39.19.55.13.17.33.31.61.42.16.06.62.19,1.4.4,1.12.3,1.9.54,2.34.73s.79.47,1.04.83.38.81.38,1.35-.15,1.02-.46,1.49c-.31.46-.75.83-1.33,1.08-.58.26-1.24.38-1.97.38-1.21,0-2.14-.25-2.77-.76s-1.04-1.25-1.22-2.24Z"/>
      </g>
      <rect class="cls-1" x="415.67" y="147.37" width="160" height="100"/>
    </g>
    <g>
      <text class="cls-5" transform="translate(461.67 377.37)"><tspan class="cls-18" x="0" y="0">E</tspan><tspan class="cls-13" x="11.41" y="0">v</tspan><tspan class="cls-33" x="20.03" y="0">a</tspan><tspan class="cls-31" x="29.88" y="0">l</tspan><tspan class="cls-39" x="33.69" y="0">u</tspan><tspan class="cls-15" x="43.53" y="0">a</tspan><tspan class="cls-17" x="53.28" y="0">t</tspan><tspan x="58" y="0">e</tspan></text>
      <rect class="cls-1" x="415.67" y="322.37" width="160" height="100"/>
    </g>
  </g>
  <g>
    <circle class="cls-8" cx="497.35" cy="295.94" r="60"/>
    <g>
      <g>
        <path class="cls-2" d="M508.07,354.99c28.02-5.06,49.27-29.57,49.27-59.04,0-33.14-26.86-60-60-60"/>
        <polygon class="cls-4" points="511 362.05 497.35 355.94 509.46 347.17 511 362.05"/>
      </g>
      <g>
        <path class="cls-2" d="M486.62,236.9c-28.02,5.06-49.27,29.57-49.27,59.04,0,33.14,26.86,60,60,60"/>
        <polygon class="cls-4" points="483.69 229.84 497.35 235.94 485.24 244.72 483.69 229.84"/>
      </g>
    </g>
  </g>
  <g>
    <path class="cls-4" d="M470.97,291.94v-12.88h4.44c1,0,1.77.06,2.29.18.74.17,1.37.48,1.89.92.68.57,1.19,1.31,1.52,2.2.34.89.5,1.92.5,3.06,0,.98-.11,1.85-.34,2.6s-.52,1.38-.88,1.88c-.36.5-.75.89-1.17,1.17s-.94.5-1.54.65-1.29.22-2.07.22h-4.65ZM472.68,290.42h2.75c.85,0,1.52-.08,2-.24s.87-.38,1.16-.67c.4-.4.72-.95.95-1.63.23-.68.34-1.51.34-2.48,0-1.35-.22-2.38-.66-3.11-.44-.72-.98-1.21-1.61-1.45-.46-.18-1.19-.26-2.21-.26h-2.71v9.84Z"/>
    <path class="cls-4" d="M490.12,288.94l1.63.2c-.26.96-.74,1.7-1.43,2.22s-1.59.79-2.67.79c-1.37,0-2.45-.42-3.25-1.26-.8-.84-1.2-2.02-1.2-3.54s.4-2.79,1.21-3.66,1.86-1.3,3.15-1.3,2.27.42,3.06,1.27,1.19,2.04,1.19,3.59c0,.09,0,.23,0,.42h-6.96c.06,1.03.35,1.81.87,2.36s1.17.82,1.95.82c.58,0,1.08-.15,1.49-.46s.74-.79.98-1.46ZM484.93,286.38h5.21c-.07-.79-.27-1.37-.6-1.77-.5-.61-1.16-.91-1.96-.91-.73,0-1.34.24-1.83.73-.5.49-.77,1.14-.82,1.95Z"/>
    <path class="cls-4" d="M493.03,289.16l1.56-.25c.09.63.33,1.11.73,1.44s.96.5,1.68.5,1.27-.15,1.62-.44.53-.64.53-1.04c0-.36-.15-.64-.46-.84-.22-.14-.76-.32-1.62-.54-1.16-.29-1.96-.55-2.41-.76s-.79-.51-1.02-.89c-.23-.38-.35-.79-.35-1.25,0-.42.09-.8.29-1.16.19-.35.45-.65.78-.88.25-.18.58-.33,1.01-.46s.88-.19,1.37-.19c.73,0,1.38.11,1.93.32s.96.5,1.23.86c.26.36.45.84.54,1.45l-1.55.21c-.07-.48-.27-.86-.61-1.12s-.81-.4-1.43-.4c-.73,0-1.25.12-1.56.36s-.46.52-.46.84c0,.21.06.39.19.55.13.17.33.31.61.42.16.06.62.19,1.4.4,1.12.3,1.9.54,2.34.73s.79.47,1.04.83.38.81.38,1.35-.15,1.02-.46,1.49c-.31.46-.75.83-1.33,1.08-.58.26-1.24.38-1.97.38-1.21,0-2.14-.25-2.77-.76s-1.04-1.25-1.22-2.24Z"/>
    <path class="cls-4" d="M502.52,280.88v-1.82h1.58v1.82h-1.58ZM502.52,291.94v-9.33h1.58v9.33h-1.58Z"/>
    <path class="cls-4" d="M506.14,292.72l1.54.23c.06.47.24.82.54,1.04.39.29.93.44,1.61.44.73,0,1.3-.15,1.7-.44s.67-.7.81-1.23c.08-.32.12-1,.11-2.03-.69.81-1.55,1.22-2.58,1.22-1.28,0-2.28-.46-2.98-1.39s-1.05-2.04-1.05-3.33c0-.89.16-1.71.48-2.47.32-.75.79-1.33,1.4-1.74s1.33-.62,2.16-.62c1.1,0,2.01.45,2.72,1.34v-1.12h1.46v8.07c0,1.45-.15,2.48-.44,3.09-.3.61-.76,1.08-1.41,1.44s-1.43.53-2.37.53c-1.11,0-2.01-.25-2.7-.75-.69-.5-1.02-1.26-.99-2.26ZM507.45,287.11c0,1.22.24,2.12.73,2.68s1.1.84,1.83.84,1.34-.28,1.83-.84.74-1.44.74-2.63-.25-2-.76-2.58-1.12-.87-1.83-.87-1.3.29-1.79.86c-.49.57-.74,1.42-.74,2.54Z"/>
    <path class="cls-4" d="M516.29,291.94v-9.33h1.42v1.33c.69-1.03,1.68-1.54,2.97-1.54.56,0,1.08.1,1.55.3.47.2.82.47,1.06.8s.4.72.49,1.17c.06.29.09.81.09,1.54v5.74h-1.58v-5.68c0-.64-.06-1.13-.18-1.45s-.34-.57-.66-.77c-.31-.19-.68-.29-1.1-.29-.67,0-1.25.21-1.75.64-.49.43-.73,1.24-.73,2.43v5.1h-1.58Z"/>
    <path class="cls-4" d="M484.4,308.52l1.56.2c-.17,1.07-.61,1.91-1.31,2.52-.7.61-1.56.91-2.58.91-1.28,0-2.3-.42-3.08-1.25-.78-.84-1.17-2.03-1.17-3.59,0-1.01.17-1.89.5-2.65s.84-1.32,1.52-1.7c.68-.38,1.42-.57,2.23-.57,1.01,0,1.84.26,2.49.77s1.06,1.24,1.24,2.18l-1.54.24c-.15-.63-.41-1.1-.78-1.42s-.82-.47-1.35-.47c-.8,0-1.45.29-1.94.86-.5.57-.75,1.47-.75,2.71s.24,2.17.72,2.73,1.11.85,1.88.85c.62,0,1.14-.19,1.55-.57s.68-.97.79-1.76Z"/>
    <path class="cls-4" d="M487.12,315.54l-.18-1.49c.35.09.65.14.91.14.35,0,.63-.06.84-.18s.38-.28.52-.49c.1-.16.26-.55.48-1.18.03-.09.08-.22.14-.39l-3.54-9.35h1.71l1.94,5.41c.25.69.48,1.41.68,2.16.18-.73.4-1.44.65-2.13l2-5.44h1.58l-3.55,9.49c-.38,1.03-.68,1.73-.89,2.12-.28.52-.6.9-.97,1.15-.36.24-.8.36-1.3.36-.3,0-.64-.06-1.02-.19Z"/>
    <path class="cls-4" d="M501.88,308.52l1.56.2c-.17,1.07-.61,1.91-1.31,2.52-.7.61-1.56.91-2.58.91-1.28,0-2.3-.42-3.08-1.25-.78-.84-1.17-2.03-1.17-3.59,0-1.01.17-1.89.5-2.65s.84-1.32,1.52-1.7c.68-.38,1.42-.57,2.23-.57,1.01,0,1.84.26,2.49.77s1.06,1.24,1.24,2.18l-1.54.24c-.15-.63-.41-1.1-.78-1.42s-.82-.47-1.35-.47c-.8,0-1.45.29-1.94.86-.5.57-.75,1.47-.75,2.71s.24,2.17.72,2.73,1.11.85,1.88.85c.62,0,1.14-.19,1.55-.57s.68-.97.79-1.76Z"/>
    <path class="cls-4" d="M504.83,311.94v-12.88h1.58v12.88h-1.58Z"/>
    <path class="cls-4" d="M515.13,308.94l1.63.2c-.26.96-.73,1.7-1.43,2.22s-1.59.79-2.67.79c-1.37,0-2.45-.42-3.25-1.26-.8-.84-1.2-2.02-1.2-3.54s.4-2.79,1.21-3.66,1.86-1.3,3.15-1.3,2.27.42,3.06,1.27,1.19,2.04,1.19,3.59c0,.09,0,.23,0,.42h-6.96c.06,1.03.35,1.81.87,2.36s1.17.82,1.95.82c.58,0,1.08-.15,1.49-.46s.73-.79.97-1.46ZM509.94,306.38h5.21c-.07-.79-.27-1.37-.6-1.77-.5-.61-1.16-.91-1.96-.91-.73,0-1.34.24-1.83.73s-.77,1.14-.82,1.95Z"/>
  </g>
</svg>