<?xml version="1.0" encoding="UTF-8"?><svg id="Ebene_1" xmlns="http://www.w3.org/2000/svg" viewBox="0 0 494 525"><rect x="67" y="82.5" width="90" height="90" style="fill:none; stroke:#1d1d1b; stroke-miterlimit:10;"/><rect x="157" y="82.5" width="90" height="90" style="fill:none; stroke:#1d1d1b; stroke-miterlimit:10;"/><rect x="247" y="82.5" width="90" height="90" style="fill:none; stroke:#1d1d1b; stroke-miterlimit:10;"/><rect x="337" y="82.5" width="90" height="90" style="fill:none; stroke:#1d1d1b; stroke-miterlimit:10;"/><rect x="67" y="172.5" width="90" height="90" style="fill:none; stroke:#1d1d1b; stroke-miterlimit:10;"/><rect x="157" y="172.5" width="90" height="90" style="fill:none; stroke:#1d1d1b; stroke-miterlimit:10;"/><rect x="247" y="172.5" width="90" height="90" style="fill:none; stroke:#1d1d1b; stroke-miterlimit:10;"/><rect x="337" y="172.5" width="90" height="90" style="fill:none; stroke:#1d1d1b; stroke-miterlimit:10;"/><rect x="67" y="262.5" width="90" height="90" style="fill:none; stroke:#1d1d1b; stroke-miterlimit:10;"/><rect x="157" y="262.5" width="90" height="90" style="fill:none; stroke:#1d1d1b; stroke-miterlimit:10;"/><rect x="247" y="262.5" width="90" height="90" style="fill:none; stroke:#1d1d1b; stroke-miterlimit:10;"/><rect x="337" y="262.5" width="90" height="90" style="fill:none; stroke:#1d1d1b; stroke-miterlimit:10;"/><rect x="67" y="352.5" width="90" height="90" style="fill:none; stroke:#1d1d1b; stroke-miterlimit:10;"/><rect x="157" y="352.5" width="90" height="90" style="fill:none; stroke:#1d1d1b; stroke-miterlimit:10;"/><rect x="247" y="352.5" width="90" height="90" style="fill:none; stroke:#1d1d1b; stroke-miterlimit:10;"/><rect x="337" y="352.5" width="90" height="90" style="fill:none; stroke:#1d1d1b; stroke-miterlimit:10;"/><rect x="67" y="82.5" width="360" height="360" style="fill:none; stroke:#1d1d1b; stroke-miterlimit:10; stroke-width:2px;"/><circle cx="382" cy="127.5" r="27.95" style="fill:#1d1d1b;"/><text transform="translate(369.55 131.35)" style="fill:#fff; font-family:Arial-BoldMT, Arial; font-size:16px; font-weight:700;"><tspan x="0" y="0">PIT</tspan></text><circle cx="292" cy="217.5" r="27.95" style="fill:#1d1d1b;"/><text transform="translate(279.55 221.35)" style="fill:#fff; font-family:Arial-BoldMT, Arial; font-size:16px; font-weight:700;"><tspan x="0" y="0">PIT</tspan></text><circle cx="292" cy="397.5" r="27.95" style="fill:#1d1d1b;"/><text transform="translate(279.55 401.35)" style="fill:#fff; font-family:Arial-BoldMT, Arial; font-size:16px; font-weight:700;"><tspan x="0" y="0">PIT</tspan></text><path d="m363.87,225.41c0-2.86,0-5.73,0-8.59,1.07-.1,2.15-.23,3.22-.4.66-.1,1.18-.11,1.58,0,.4.1.71.31.93.63.23.32.34.67.34,1.07,0,.37-.1.73-.3,1.1-.2.36-.5.68-.9.95.52.06.92.24,1.2.55.28.31.42.72.42,1.22,0,.4-.08.79-.25,1.17-.17.38-.38.69-.63.92-.25.24-.56.44-.94.6-.38.16-.84.29-1.39.37-1.09.17-2.18.31-3.28.41Zm1.14-5.1c.62-.07,1.24-.15,1.86-.25.5-.08.87-.17,1.08-.27.29-.13.51-.32.65-.54.15-.23.22-.49.22-.79,0-.29-.07-.52-.21-.72-.14-.19-.33-.31-.59-.34-.25-.04-.69,0-1.31.09-.57.08-1.14.16-1.72.23v2.6Zm0,3.97c.71-.08,1.43-.18,2.14-.29.37-.06.63-.11.77-.17.26-.09.48-.21.66-.35.18-.14.32-.33.43-.56.11-.23.17-.48.17-.76,0-.32-.08-.58-.25-.79-.16-.21-.39-.33-.68-.38-.29-.05-.71-.02-1.26.06-.66.1-1.32.19-1.99.27v2.95Z" style="fill:#1d1d1b;"/><path d="m371.77,224.12v-6.22c.32-.07.63-.14.95-.22,0,.31,0,.63,0,.94.24-.5.47-.84.67-1.03.2-.19.43-.31.68-.38.35-.09.72-.06,1.08.07-.12.36-.24.71-.36,1.07-.26-.09-.52-.1-.77-.04-.23.06-.44.18-.62.36-.18.18-.32.41-.39.67-.12.4-.18.83-.18,1.27v3.26c-.35.08-.7.16-1.05.24Z" style="fill:#1d1d1b;"/><path d="m380.04,219.99c.36-.06.73-.11,1.09-.17-.17.69-.49,1.27-.96,1.75-.46.48-1.06.82-1.78,1.02-.91.25-1.63.16-2.17-.26-.53-.42-.8-1.14-.8-2.15,0-1.05.27-1.93.81-2.65.54-.72,1.24-1.2,2.1-1.43.83-.23,1.51-.14,2.04.28.53.42.79,1.14.79,2.17,0,.06,0,.16,0,.28-1.55.44-3.09.87-4.64,1.28.04.67.23,1.15.58,1.42.35.27.78.33,1.3.19.39-.11.72-.3.99-.58.27-.28.49-.66.65-1.15Zm-3.46-.76c1.16-.31,2.32-.63,3.47-.95-.05-.51-.18-.87-.4-1.07-.34-.31-.77-.39-1.31-.25-.48.13-.89.41-1.22.82-.33.41-.51.89-.55,1.45Z" style="fill:#1d1d1b;"/><path d="m386.71,218.13c.36-.05.73-.1,1.09-.16-.17.68-.49,1.26-.96,1.74-.46.48-1.06.81-1.78,1.01-.91.25-1.63.17-2.17-.24-.53-.41-.8-1.12-.8-2.13,0-1.05.27-1.94.81-2.67.54-.73,1.24-1.22,2.1-1.45.83-.23,1.51-.13,2.04.29.53.43.79,1.15.79,2.18,0,.06,0,.16,0,.28-1.55.41-3.09.84-4.64,1.27.04.67.23,1.14.58,1.41.35.27.78.33,1.3.18.39-.11.72-.3.99-.58.27-.28.49-.66.65-1.15Zm-3.46-.75c1.16-.33,2.32-.65,3.47-.96-.05-.51-.18-.87-.4-1.07-.34-.32-.77-.4-1.31-.25-.48.13-.89.41-1.22.83-.33.42-.51.9-.55,1.45Z" style="fill:#1d1d1b;"/><path d="m388.57,219.64v-.86c1.32-1.85,2.64-3.69,3.96-5.49-.45.12-.85.22-1.19.3-.85.2-1.69.4-2.54.62v-.86c1.7-.43,3.39-.83,5.09-1.17,0,.23,0,.46,0,.7-1.12,1.54-2.25,3.11-3.37,4.69-.22.29-.43.59-.65.88.47-.15.92-.28,1.33-.37.96-.22,1.92-.43,2.88-.62,0,.3,0,.61,0,.91-1.84.36-3.67.8-5.51,1.27Z" style="fill:#1d1d1b;"/><path d="m399.39,215.55c.36,0,.73.02,1.09.03-.17.65-.49,1.17-.96,1.57-.46.4-1.06.65-1.78.75-.91.13-1.63-.03-2.17-.5-.53-.47-.8-1.2-.8-2.21,0-1.05.27-1.91.81-2.58.54-.67,1.24-1.08,2.1-1.2.83-.12,1.51.09,2.04.6.53.51.79,1.29.79,2.32,0,.06,0,.16,0,.28-1.55.13-3.09.34-4.64.6.04.68.23,1.17.58,1.47.35.31.78.42,1.3.35.39-.05.72-.2.99-.43.27-.24.49-.58.65-1.05Zm-3.46-1.22c1.16-.2,2.32-.36,3.47-.49-.05-.52-.18-.9-.4-1.13-.34-.37-.77-.52-1.31-.44-.49.07-.89.29-1.22.67-.33.38-.51.84-.55,1.39Z" style="fill:#1d1d1b;"/><path d="m405.81,213.38c4.83.22,9.67,1.39,14.5,4.12" style="fill:none; stroke:#1d1d1b; stroke-miterlimit:10;"/><path d="m343.69,217.5c5.09,2.87,10.18,4.02,15.27,4.15" style="fill:none; stroke:#1d1d1b; stroke-miterlimit:10;"/><path d="m343.69,207.43c25.54,14.4,51.08-14.4,76.62,0" style="fill:none; stroke:#1d1d1b; stroke-miterlimit:10;"/><path d="m343.69,227.57c25.54,14.4,51.08-14.4,76.62,0" style="fill:none; stroke:#1d1d1b; stroke-miterlimit:10;"/><path d="m363.87,405.41c0-2.86,0-5.73,0-8.59,1.07-.1,2.15-.23,3.22-.4.66-.1,1.18-.11,1.58,0,.4.1.71.31.93.63.23.32.34.67.34,1.07,0,.37-.1.73-.3,1.1-.2.36-.5.68-.9.95.52.06.92.24,1.2.55.28.31.42.72.42,1.22,0,.4-.08.79-.25,1.17-.17.38-.38.69-.63.92-.25.24-.56.44-.94.6-.38.16-.84.29-1.39.37-1.09.17-2.18.31-3.28.41Zm1.14-5.1c.62-.07,1.24-.15,1.86-.25.5-.08.87-.17,1.08-.27.29-.13.51-.32.65-.54.15-.23.22-.49.22-.79,0-.29-.07-.52-.21-.72-.14-.19-.33-.31-.59-.34-.25-.04-.69,0-1.31.09-.57.08-1.14.16-1.72.23v2.6Zm0,3.97c.71-.08,1.43-.18,2.14-.29.37-.06.63-.11.77-.17.26-.09.48-.21.66-.35.18-.14.32-.33.43-.56.11-.23.17-.48.17-.76,0-.32-.08-.58-.25-.79-.16-.21-.39-.33-.68-.38-.29-.05-.71-.02-1.26.06-.66.1-1.32.19-1.99.27v2.95Z" style="fill:#1d1d1b;"/><path d="m371.77,404.12v-6.22c.32-.07.63-.14.95-.22,0,.31,0,.63,0,.94.24-.5.47-.84.67-1.03.2-.19.43-.31.68-.38.35-.09.72-.06,1.08.07-.12.36-.24.71-.36,1.07-.26-.09-.52-.1-.77-.04-.23.06-.44.18-.62.36-.18.18-.32.41-.39.67-.12.4-.18.83-.18,1.27v3.26c-.35.08-.7.16-1.05.24Z" style="fill:#1d1d1b;"/><path d="m380.04,399.99c.36-.06.73-.11,1.09-.17-.17.69-.49,1.27-.96,1.75-.46.48-1.06.82-1.78,1.02-.91.25-1.63.16-2.17-.26-.53-.42-.8-1.14-.8-2.15,0-1.05.27-1.93.81-2.65.54-.72,1.24-1.2,2.1-1.43.83-.23,1.51-.14,2.04.28.53.42.79,1.14.79,2.17,0,.06,0,.16,0,.28-1.55.44-3.09.87-4.64,1.28.04.67.23,1.15.58,1.42.35.27.78.33,1.3.19.39-.11.72-.3.99-.58.27-.28.49-.66.65-1.15Zm-3.46-.76c1.16-.31,2.32-.63,3.47-.95-.05-.51-.18-.87-.4-1.07-.34-.31-.77-.39-1.31-.25-.48.13-.89.41-1.22.82-.33.41-.51.89-.55,1.45Z" style="fill:#1d1d1b;"/><path d="m386.71,398.13c.36-.05.73-.1,1.09-.16-.17.68-.49,1.26-.96,1.74-.46.48-1.06.81-1.78,1.01-.91.25-1.63.17-2.17-.24-.53-.41-.8-1.12-.8-2.13,0-1.05.27-1.94.81-2.67.54-.73,1.24-1.22,2.1-1.45.83-.23,1.51-.13,2.04.29.53.43.79,1.15.79,2.18,0,.06,0,.16,0,.28-1.55.41-3.09.84-4.64,1.27.04.67.23,1.14.58,1.41.35.27.78.33,1.3.18.39-.11.72-.3.99-.58.27-.28.49-.66.65-1.15Zm-3.46-.75c1.16-.33,2.32-.65,3.47-.96-.05-.51-.18-.87-.4-1.07-.34-.32-.77-.4-1.31-.25-.48.13-.89.41-1.22.83-.33.42-.51.9-.55,1.45Z" style="fill:#1d1d1b;"/><path d="m388.57,399.64v-.86c1.32-1.85,2.64-3.69,3.96-5.49-.45.12-.85.22-1.19.3-.85.2-1.69.4-2.54.62v-.86c1.7-.43,3.39-.83,5.09-1.17,0,.23,0,.46,0,.7-1.12,1.54-2.25,3.11-3.37,4.69-.22.29-.43.59-.65.88.47-.15.92-.28,1.33-.37.96-.22,1.92-.43,2.88-.62,0,.3,0,.61,0,.91-1.84.36-3.67.8-5.51,1.27Z" style="fill:#1d1d1b;"/><path d="m399.39,395.55c.36,0,.73.02,1.09.03-.17.65-.49,1.17-.96,1.57-.46.4-1.06.65-1.78.75-.91.13-1.63-.03-2.17-.5-.53-.47-.8-1.2-.8-2.21,0-1.05.27-1.91.81-2.58.54-.67,1.24-1.08,2.1-1.2.83-.12,1.51.09,2.04.6.53.51.79,1.29.79,2.32,0,.06,0,.16,0,.28-1.55.13-3.09.34-4.64.6.04.68.23,1.17.58,1.47.35.31.78.42,1.3.35.39-.05.72-.2.99-.43.27-.24.49-.58.65-1.05Zm-3.46-1.22c1.16-.2,2.32-.36,3.47-.49-.05-.52-.18-.9-.4-1.13-.34-.37-.77-.52-1.31-.44-.49.07-.89.29-1.22.67-.33.38-.51.84-.55,1.39Z" style="fill:#1d1d1b;"/><path d="m405.81,393.38c4.83.22,9.67,1.39,14.5,4.12" style="fill:none; stroke:#1d1d1b; stroke-miterlimit:10;"/><path d="m343.69,397.5c5.09,2.87,10.18,4.02,15.27,4.15" style="fill:none; stroke:#1d1d1b; stroke-miterlimit:10;"/><path d="m343.69,387.43c25.54,14.4,51.08-14.4,76.62,0" style="fill:none; stroke:#1d1d1b; stroke-miterlimit:10;"/><path d="m343.69,407.57c25.54,14.4,51.08-14.4,76.62,0" style="fill:none; stroke:#1d1d1b; stroke-miterlimit:10;"/><path d="m183.87,405.41c0-2.86,0-5.73,0-8.59,1.07-.1,2.15-.23,3.22-.4.66-.1,1.18-.11,1.58,0,.4.1.71.31.93.63.23.32.34.67.34,1.07,0,.37-.1.73-.3,1.1-.2.36-.5.68-.9.95.52.06.92.24,1.2.55.28.31.42.72.42,1.22,0,.4-.08.79-.25,1.17-.17.38-.38.69-.63.92-.25.24-.56.44-.94.6-.38.16-.84.29-1.39.37-1.09.17-2.18.31-3.28.41Zm1.14-5.1c.62-.07,1.24-.15,1.86-.25.5-.08.87-.17,1.08-.27.29-.13.51-.32.65-.54.15-.23.22-.49.22-.79,0-.29-.07-.52-.21-.72-.14-.19-.33-.31-.59-.34-.25-.04-.69,0-1.31.09-.57.08-1.14.16-1.72.23v2.6Zm0,3.97c.71-.08,1.43-.18,2.14-.29.37-.06.63-.11.77-.17.26-.09.48-.21.66-.35.18-.14.32-.33.43-.56.11-.23.17-.48.17-.76,0-.32-.08-.58-.25-.79-.16-.21-.39-.33-.68-.38-.29-.05-.71-.02-1.26.06-.66.1-1.32.19-1.99.27v2.95Z" style="fill:#1d1d1b;"/><path d="m191.77,404.12v-6.22c.32-.07.63-.14.95-.22,0,.31,0,.63,0,.94.24-.5.47-.84.67-1.03.2-.19.43-.31.68-.38.35-.09.72-.06,1.08.07-.12.36-.24.71-.36,1.07-.26-.09-.52-.1-.77-.04-.23.06-.44.18-.62.36-.18.18-.32.41-.39.67-.12.4-.18.83-.18,1.27v3.26c-.35.08-.7.16-1.05.24Z" style="fill:#1d1d1b;"/><path d="m200.04,399.99c.36-.06.73-.11,1.09-.17-.17.69-.49,1.27-.96,1.75-.46.48-1.06.82-1.78,1.02-.91.25-1.63.16-2.17-.26-.53-.42-.8-1.14-.8-2.15,0-1.05.27-1.93.81-2.65.54-.72,1.24-1.2,2.1-1.43.83-.23,1.51-.14,2.04.28.53.42.79,1.14.79,2.17,0,.06,0,.16,0,.28-1.55.44-3.09.87-4.64,1.28.04.67.23,1.15.58,1.42.35.27.78.33,1.3.19.39-.11.72-.3.99-.58.27-.28.49-.66.65-1.15Zm-3.46-.76c1.16-.31,2.32-.63,3.47-.95-.05-.51-.18-.87-.4-1.07-.34-.31-.77-.39-1.31-.25-.48.13-.89.41-1.22.82-.33.41-.51.89-.55,1.45Z" style="fill:#1d1d1b;"/><path d="m206.71,398.13c.36-.05.73-.1,1.09-.16-.17.68-.49,1.26-.96,1.74-.46.48-1.06.81-1.78,1.01-.91.25-1.63.17-2.17-.24-.53-.41-.8-1.12-.8-2.13,0-1.05.27-1.94.81-2.67.54-.73,1.24-1.22,2.1-1.45.83-.23,1.51-.13,2.04.29.53.43.79,1.15.79,2.18,0,.06,0,.16,0,.28-1.55.41-3.09.84-4.64,1.27.04.67.23,1.14.58,1.41.35.27.78.33,1.3.18.39-.11.72-.3.99-.58.27-.28.49-.66.65-1.15Zm-3.46-.75c1.16-.33,2.32-.65,3.47-.96-.05-.51-.18-.87-.4-1.07-.34-.32-.77-.4-1.31-.25-.48.13-.89.41-1.22.83-.33.42-.51.9-.55,1.45Z" style="fill:#1d1d1b;"/><path d="m208.57,399.64v-.86c1.32-1.85,2.64-3.69,3.96-5.49-.45.12-.85.22-1.19.3-.85.2-1.69.4-2.54.62v-.86c1.7-.43,3.39-.83,5.09-1.17,0,.23,0,.46,0,.7-1.12,1.54-2.25,3.11-3.37,4.69-.22.29-.43.59-.65.88.47-.15.92-.28,1.33-.37.96-.22,1.92-.43,2.88-.62,0,.3,0,.61,0,.91-1.84.36-3.67.8-5.51,1.27Z" style="fill:#1d1d1b;"/><path d="m219.39,395.55c.36,0,.73.02,1.09.03-.17.65-.49,1.17-.96,1.57-.46.4-1.06.65-1.78.75-.91.13-1.63-.03-2.17-.5-.53-.47-.8-1.2-.8-2.21,0-1.05.27-1.91.81-2.58.54-.67,1.24-1.08,2.1-1.2.83-.12,1.51.09,2.04.6.53.51.79,1.29.79,2.32,0,.06,0,.16,0,.28-1.55.13-3.09.34-4.64.6.04.68.23,1.17.58,1.47.35.31.78.42,1.3.35.39-.05.72-.2.99-.43.27-.24.49-.58.65-1.05Zm-3.46-1.22c1.16-.2,2.32-.36,3.47-.49-.05-.52-.18-.9-.4-1.13-.34-.37-.77-.52-1.31-.44-.49.07-.89.29-1.22.67-.33.38-.51.84-.55,1.39Z" style="fill:#1d1d1b;"/><path d="m225.81,393.38c4.83.22,9.67,1.39,14.5,4.12" style="fill:none; stroke:#1d1d1b; stroke-miterlimit:10;"/><path d="m163.69,397.5c5.09,2.87,10.18,4.02,15.27,4.15" style="fill:none; stroke:#1d1d1b; stroke-miterlimit:10;"/><path d="m163.69,387.43c25.54,14.4,51.08-14.4,76.62,0" style="fill:none; stroke:#1d1d1b; stroke-miterlimit:10;"/><path d="m163.69,407.57c25.54,14.4,51.08-14.4,76.62,0" style="fill:none; stroke:#1d1d1b; stroke-miterlimit:10;"/><path d="m183.87,194.63c0-2.86,0-5.73,0-8.59,1.07-.1,2.15-.23,3.22-.4.66-.1,1.18-.11,1.58,0,.4.1.71.31.93.63.23.32.34.67.34,1.07,0,.37-.1.73-.3,1.1-.2.36-.5.68-.9.95.52.06.92.24,1.2.55.28.31.42.72.42,1.22,0,.4-.08.79-.25,1.17-.17.38-.38.69-.63.92-.25.24-.56.44-.94.6-.38.16-.84.29-1.39.37-1.09.17-2.18.31-3.28.41Zm1.14-5.1c.62-.07,1.24-.15,1.86-.25.5-.08.87-.17,1.08-.27.29-.13.51-.32.65-.54.15-.23.22-.49.22-.79,0-.29-.07-.52-.21-.72-.14-.19-.33-.31-.59-.34-.25-.04-.69,0-1.31.09-.57.08-1.14.16-1.72.23v2.6Zm0,3.97c.71-.08,1.43-.18,2.14-.29.37-.06.63-.11.77-.17.26-.09.48-.21.66-.35.18-.14.32-.33.43-.56.11-.23.17-.48.17-.76,0-.32-.08-.58-.25-.79-.16-.21-.39-.33-.68-.38-.29-.05-.71-.02-1.26.06-.66.1-1.32.19-1.99.27v2.95Z" style="fill:#1d1d1b;"/><path d="m191.77,193.35v-6.22c.32-.07.63-.14.95-.22,0,.31,0,.63,0,.94.24-.5.47-.84.67-1.03.2-.19.43-.31.68-.38.35-.09.72-.06,1.08.07-.12.36-.24.71-.36,1.07-.26-.09-.52-.1-.77-.04-.23.06-.44.18-.62.36-.18.18-.32.41-.39.67-.12.4-.18.83-.18,1.27v3.26c-.35.08-.7.16-1.05.24Z" style="fill:#1d1d1b;"/><path d="m200.04,189.22c.36-.06.73-.11,1.09-.17-.17.69-.49,1.27-.96,1.75-.46.48-1.06.82-1.78,1.02-.91.25-1.63.16-2.17-.26-.53-.42-.8-1.14-.8-2.15,0-1.05.27-1.93.81-2.65.54-.72,1.24-1.2,2.1-1.43.83-.23,1.51-.14,2.04.28.53.42.79,1.14.79,2.17,0,.06,0,.16,0,.28-1.55.44-3.09.87-4.64,1.28.04.67.23,1.15.58,1.42.35.27.78.33,1.3.19.39-.11.72-.3.99-.58.27-.28.49-.66.65-1.15Zm-3.46-.76c1.16-.31,2.32-.63,3.47-.95-.05-.51-.18-.87-.4-1.07-.34-.31-.77-.39-1.31-.25-.48.13-.89.41-1.22.82-.33.41-.51.89-.55,1.45Z" style="fill:#1d1d1b;"/><path d="m206.71,187.36c.36-.05.73-.1,1.09-.16-.17.68-.49,1.26-.96,1.74-.46.48-1.06.81-1.78,1.01-.91.25-1.63.17-2.17-.24-.53-.41-.8-1.12-.8-2.13,0-1.05.27-1.94.81-2.67.54-.73,1.24-1.22,2.1-1.45.83-.23,1.51-.13,2.04.29.53.43.79,1.15.79,2.18,0,.06,0,.16,0,.28-1.55.41-3.09.84-4.64,1.27.04.67.23,1.14.58,1.41.35.27.78.33,1.3.18.39-.11.72-.3.99-.58.27-.28.49-.66.65-1.15Zm-3.46-.75c1.16-.33,2.32-.65,3.47-.96-.05-.51-.18-.87-.4-1.07-.34-.32-.77-.4-1.31-.25-.48.13-.89.41-1.22.83-.33.42-.51.9-.55,1.45Z" style="fill:#1d1d1b;"/><path d="m208.57,188.87v-.86c1.32-1.85,2.64-3.69,3.96-5.49-.45.12-.85.22-1.19.3-.85.2-1.69.4-2.54.62v-.86c1.7-.43,3.39-.83,5.09-1.17,0,.23,0,.46,0,.7-1.12,1.54-2.25,3.11-3.37,4.69-.22.29-.43.59-.65.88.47-.15.92-.28,1.33-.37.96-.22,1.92-.43,2.88-.62,0,.3,0,.61,0,.91-1.84.36-3.67.8-5.51,1.27Z" style="fill:#1d1d1b;"/><path d="m219.39,184.77c.36,0,.73.02,1.09.03-.17.65-.49,1.17-.96,1.57-.46.4-1.06.65-1.78.75-.91.13-1.63-.03-2.17-.5-.53-.47-.8-1.2-.8-2.21,0-1.05.27-1.91.81-2.58.54-.67,1.24-1.08,2.1-1.2.83-.12,1.51.09,2.04.6.53.51.79,1.29.79,2.32,0,.06,0,.16,0,.28-1.55.13-3.09.34-4.64.6.04.68.23,1.17.58,1.47.35.31.78.42,1.3.35.39-.05.72-.2.99-.43.27-.24.49-.58.65-1.05Zm-3.46-1.22c1.16-.2,2.32-.36,3.47-.49-.05-.52-.18-.9-.4-1.13-.34-.37-.77-.52-1.31-.44-.49.07-.89.29-1.22.67-.33.38-.51.84-.55,1.39Z" style="fill:#1d1d1b;"/><path d="m225.81,182.61c4.83.22,9.67,1.39,14.5,4.12" style="fill:none; stroke:#1d1d1b; stroke-miterlimit:10;"/><path d="m163.69,186.73c5.09,2.87,10.18,4.02,15.27,4.15" style="fill:none; stroke:#1d1d1b; stroke-miterlimit:10;"/><path d="m163.69,176.66c25.54,14.4,51.08-14.4,76.62,0" style="fill:none; stroke:#1d1d1b; stroke-miterlimit:10;"/><path d="m163.69,196.8c25.54,14.4,51.08-14.4,76.62,0" style="fill:none; stroke:#1d1d1b; stroke-miterlimit:10;"/><path d="m273.87,315.41c0-2.86,0-5.73,0-8.59,1.07-.1,2.15-.23,3.22-.4.66-.1,1.18-.11,1.58,0,.4.1.71.31.93.63.23.32.34.67.34,1.07,0,.37-.1.73-.3,1.1-.2.36-.5.68-.9.95.52.06.92.24,1.2.55.28.31.42.72.42,1.22,0,.4-.08.79-.25,1.17-.17.38-.38.69-.63.92-.25.24-.56.44-.94.6-.38.16-.84.29-1.39.37-1.09.17-2.18.31-3.28.41Zm1.14-5.1c.62-.07,1.24-.15,1.86-.25.5-.08.87-.17,1.08-.27.29-.13.51-.32.65-.54.15-.23.22-.49.22-.79,0-.29-.07-.52-.21-.72-.14-.19-.33-.31-.59-.34-.25-.04-.69,0-1.31.09-.57.08-1.14.16-1.72.23v2.6Zm0,3.97c.71-.08,1.43-.18,2.14-.29.37-.06.63-.11.77-.17.26-.09.48-.21.66-.35.18-.14.32-.33.43-.56.11-.23.17-.48.17-.76,0-.32-.08-.58-.25-.79-.16-.21-.39-.33-.68-.38-.29-.05-.71-.02-1.26.06-.66.1-1.32.19-1.99.27v2.95Z" style="fill:#1d1d1b;"/><path d="m281.77,314.12v-6.22c.32-.07.63-.14.95-.22,0,.31,0,.63,0,.94.24-.5.47-.84.67-1.03.2-.19.43-.31.68-.38.35-.09.72-.06,1.08.07-.12.36-.24.71-.36,1.07-.26-.09-.52-.1-.77-.04-.23.06-.44.18-.62.36-.18.18-.32.41-.39.67-.12.4-.18.83-.18,1.27v3.26c-.35.08-.7.16-1.05.24Z" style="fill:#1d1d1b;"/><path d="m290.04,309.99c.36-.06.73-.11,1.09-.17-.17.69-.49,1.27-.96,1.75-.46.48-1.06.82-1.78,1.02-.91.25-1.63.16-2.17-.26-.53-.42-.8-1.14-.8-2.15,0-1.05.27-1.93.81-2.65.54-.72,1.24-1.2,2.1-1.43.83-.23,1.51-.14,2.04.28.53.42.79,1.14.79,2.17,0,.06,0,.16,0,.28-1.55.44-3.09.87-4.64,1.28.04.67.23,1.15.58,1.42.35.27.78.33,1.3.19.39-.11.72-.3.99-.58.27-.28.49-.66.65-1.15Zm-3.46-.76c1.16-.31,2.32-.63,3.47-.95-.05-.51-.18-.87-.4-1.07-.34-.31-.77-.39-1.31-.25-.48.13-.89.41-1.22.82-.33.41-.51.89-.55,1.45Z" style="fill:#1d1d1b;"/><path d="m296.71,308.13c.36-.05.73-.1,1.09-.16-.17.68-.49,1.26-.96,1.74-.46.48-1.06.81-1.78,1.01-.91.25-1.63.17-2.17-.24-.53-.41-.8-1.12-.8-2.13,0-1.05.27-1.94.81-2.67.54-.73,1.24-1.22,2.1-1.45.83-.23,1.51-.13,2.04.29.53.43.79,1.15.79,2.18,0,.06,0,.16,0,.28-1.55.41-3.09.84-4.64,1.27.04.67.23,1.14.58,1.41.35.27.78.33,1.3.18.39-.11.72-.3.99-.58.27-.28.49-.66.65-1.15Zm-3.46-.75c1.16-.33,2.32-.65,3.47-.96-.05-.51-.18-.87-.4-1.07-.34-.32-.77-.4-1.31-.25-.48.13-.89.41-1.22.83-.33.42-.51.9-.55,1.45Z" style="fill:#1d1d1b;"/><path d="m298.57,309.64v-.86c1.32-1.85,2.64-3.69,3.96-5.49-.45.12-.85.22-1.19.3-.85.2-1.69.4-2.54.62v-.86c1.7-.43,3.39-.83,5.09-1.17,0,.23,0,.46,0,.7-1.12,1.54-2.25,3.11-3.37,4.69-.22.29-.43.59-.65.88.47-.15.92-.28,1.33-.37.96-.22,1.92-.43,2.88-.62,0,.3,0,.61,0,.91-1.84.36-3.67.8-5.51,1.27Z" style="fill:#1d1d1b;"/><path d="m309.39,305.55c.36,0,.73.02,1.09.03-.17.65-.49,1.17-.96,1.57-.46.4-1.06.65-1.78.75-.91.13-1.63-.03-2.17-.5-.53-.47-.8-1.2-.8-2.21,0-1.05.27-1.91.81-2.58.54-.67,1.24-1.08,2.1-1.2.83-.12,1.51.09,2.04.6.53.51.79,1.29.79,2.32,0,.06,0,.16,0,.28-1.55.13-3.09.34-4.64.6.04.68.23,1.17.58,1.47.35.31.78.42,1.3.35.39-.05.72-.2.99-.43.27-.24.49-.58.65-1.05Zm-3.46-1.22c1.16-.2,2.32-.36,3.47-.49-.05-.52-.18-.9-.4-1.13-.34-.37-.77-.52-1.31-.44-.49.07-.89.29-1.22.67-.33.38-.51.84-.55,1.39Z" style="fill:#1d1d1b;"/><path d="m315.81,303.38c4.83.22,9.67,1.39,14.5,4.12" style="fill:none; stroke:#1d1d1b; stroke-miterlimit:10;"/><path d="m253.69,307.5c5.09,2.87,10.18,4.02,15.27,4.15" style="fill:none; stroke:#1d1d1b; stroke-miterlimit:10;"/><path d="m253.69,297.43c25.54,14.4,51.08-14.4,76.62,0" style="fill:none; stroke:#1d1d1b; stroke-miterlimit:10;"/><path d="m253.69,317.57c25.54,14.4,51.08-14.4,76.62,0" style="fill:none; stroke:#1d1d1b; stroke-miterlimit:10;"/><path d="m273.87,135.41c0-2.86,0-5.73,0-8.59,1.07-.1,2.15-.23,3.22-.4.66-.1,1.18-.11,1.58,0,.4.1.71.31.93.63.23.32.34.67.34,1.07,0,.37-.1.73-.3,1.1-.2.36-.5.68-.9.95.52.06.92.24,1.2.55.28.31.42.72.42,1.22,0,.4-.08.79-.25,1.17-.17.38-.38.69-.63.92-.25.24-.56.44-.94.6-.38.16-.84.29-1.39.37-1.09.17-2.18.31-3.28.41Zm1.14-5.1c.62-.07,1.24-.15,1.86-.25.5-.08.87-.17,1.08-.27.29-.13.51-.32.65-.54.15-.23.22-.49.22-.79,0-.29-.07-.52-.21-.72-.14-.19-.33-.31-.59-.34-.25-.04-.69,0-1.31.09-.57.08-1.14.16-1.72.23v2.6Zm0,3.97c.71-.08,1.43-.18,2.14-.29.37-.06.63-.11.77-.17.26-.09.48-.21.66-.35.18-.14.32-.33.43-.56.11-.23.17-.48.17-.76,0-.32-.08-.58-.25-.79-.16-.21-.39-.33-.68-.38-.29-.05-.71-.02-1.26.06-.66.1-1.32.19-1.99.27v2.95Z" style="fill:#1d1d1b;"/><path d="m281.77,134.12v-6.22c.32-.07.63-.14.95-.22,0,.31,0,.63,0,.94.24-.5.47-.84.67-1.03.2-.19.43-.31.68-.38.35-.09.72-.06,1.08.07-.12.36-.24.71-.36,1.07-.26-.09-.52-.1-.77-.04-.23.06-.44.18-.62.36-.18.18-.32.41-.39.67-.12.4-.18.83-.18,1.27v3.26c-.35.08-.7.16-1.05.24Z" style="fill:#1d1d1b;"/><path d="m290.04,129.99c.36-.06.73-.11,1.09-.17-.17.69-.49,1.27-.96,1.75-.46.48-1.06.82-1.78,1.02-.91.25-1.63.16-2.17-.26-.53-.42-.8-1.14-.8-2.15,0-1.05.27-1.93.81-2.65.54-.72,1.24-1.2,2.1-1.43.83-.23,1.51-.14,2.04.28.53.42.79,1.14.79,2.17,0,.06,0,.16,0,.28-1.55.44-3.09.87-4.64,1.28.04.67.23,1.15.58,1.42.35.27.78.33,1.3.19.39-.11.72-.3.99-.58.27-.28.49-.66.65-1.15Zm-3.46-.76c1.16-.31,2.32-.63,3.47-.95-.05-.51-.18-.87-.4-1.07-.34-.31-.77-.39-1.31-.25-.48.13-.89.41-1.22.82-.33.41-.51.89-.55,1.45Z" style="fill:#1d1d1b;"/><path d="m296.71,128.13c.36-.05.73-.1,1.09-.16-.17.68-.49,1.26-.96,1.74-.46.48-1.06.81-1.78,1.01-.91.25-1.63.17-2.17-.24-.53-.41-.8-1.12-.8-2.13,0-1.05.27-1.94.81-2.67.54-.73,1.24-1.22,2.1-1.45.83-.23,1.51-.13,2.04.29.53.43.79,1.15.79,2.18,0,.06,0,.16,0,.28-1.55.41-3.09.84-4.64,1.27.04.67.23,1.14.58,1.41.35.27.78.33,1.3.18.39-.11.72-.3.99-.58.27-.28.49-.66.65-1.15Zm-3.46-.75c1.16-.33,2.32-.65,3.47-.96-.05-.51-.18-.87-.4-1.07-.34-.32-.77-.4-1.31-.25-.48.13-.89.41-1.22.83-.33.42-.51.9-.55,1.45Z" style="fill:#1d1d1b;"/><path d="m298.57,129.64v-.86c1.32-1.85,2.64-3.69,3.96-5.49-.45.12-.85.22-1.19.3-.85.2-1.69.4-2.54.62v-.86c1.7-.43,3.39-.83,5.09-1.17,0,.23,0,.46,0,.7-1.12,1.54-2.25,3.11-3.37,4.69-.22.29-.43.59-.65.88.47-.15.92-.28,1.33-.37.96-.22,1.92-.43,2.88-.62,0,.3,0,.61,0,.91-1.84.36-3.67.8-5.51,1.27Z" style="fill:#1d1d1b;"/><path d="m309.39,125.55c.36,0,.73.02,1.09.03-.17.65-.49,1.17-.96,1.57-.46.4-1.06.65-1.78.75-.91.13-1.63-.03-2.17-.5-.53-.47-.8-1.2-.8-2.21,0-1.05.27-1.91.81-2.58.54-.67,1.24-1.08,2.1-1.2.83-.12,1.51.09,2.04.6.53.51.79,1.29.79,2.32,0,.06,0,.16,0,.28-1.55.13-3.09.34-4.64.6.04.68.23,1.17.58,1.47.35.31.78.42,1.3.35.39-.05.72-.2.99-.43.27-.24.49-.58.65-1.05Zm-3.46-1.22c1.16-.2,2.32-.36,3.47-.49-.05-.52-.18-.9-.4-1.13-.34-.37-.77-.52-1.31-.44-.49.07-.89.29-1.22.67-.33.38-.51.84-.55,1.39Z" style="fill:#1d1d1b;"/><path d="m315.81,123.38c4.83.22,9.67,1.39,14.5,4.12" style="fill:none; stroke:#1d1d1b; stroke-miterlimit:10;"/><path d="m253.69,127.5c5.09,2.87,10.18,4.02,15.27,4.15" style="fill:none; stroke:#1d1d1b; stroke-miterlimit:10;"/><path d="m253.69,117.43c25.54,14.4,51.08-14.4,76.62,0" style="fill:none; stroke:#1d1d1b; stroke-miterlimit:10;"/><path d="m253.69,137.57c25.54,14.4,51.08-14.4,76.62,0" style="fill:none; stroke:#1d1d1b; stroke-miterlimit:10;"/><text transform="translate(183.36 227.75)" style="fill:#1d1d1b; font-family:ArialMT, Arial; font-size:12px;"><tspan x="0" y="0">Stench</tspan></text><path d="m219.6,219.15c-.13-3-3.13-3-3-6,.24-3,3.24-3,3.74-5.98" style="fill:none; stroke:#1d1d1b; stroke-miterlimit:10;"/><path d="m223.44,227.75c-.5-2.98,2.5-2.98,2.26-5.97-.13-3-3.13-3-3-6,.24-3,3.24-3,3.74-5.98" style="fill:none; stroke:#1d1d1b; stroke-miterlimit:10;"/><path d="m213.5,216.51c-.13-3-3.13-3-3-6,.24-3,3.24-3,3.74-5.98" style="fill:none; stroke:#1d1d1b; stroke-miterlimit:10;"/><path d="m206.17,216.87c.66-.75,1.35-1.5,1.23-2.99-.13-3-3.13-3-3-6,.24-3,3.24-3,3.74-5.98" style="fill:none; stroke:#1d1d1b; stroke-miterlimit:10;"/><path d="m201.7,213.88c-.06-3-1.47-3-1.41-6,.11-3,1.52-3,1.75-5.98" style="fill:none; stroke:#1d1d1b; stroke-miterlimit:10;"/><path d="m188.83,204.53c-.5,2.98,2.5,2.98,2.26,5.97-.13,3-3.13,3-3,6" style="fill:none; stroke:#1d1d1b; stroke-miterlimit:10;"/><path d="m194.93,201.9c-.5,2.98,2.5,2.98,2.26,5.97-.13,3-3.13,3-3,6,.06.75.29,1.31.62,1.78" style="fill:none; stroke:#1d1d1b; stroke-miterlimit:10;"/><path d="m182.73,207.17c-.5,2.98,2.5,2.98,2.26,5.97-.13,3-3.13,3-3,6" style="fill:none; stroke:#1d1d1b; stroke-miterlimit:10;"/><path d="m176.63,209.8c-.5,2.98,2.5,2.98,2.26,5.97-.13,3-3.13,3-3,6,.24,3,3.24,3,3.74,5.98" style="fill:none; stroke:#1d1d1b; stroke-miterlimit:10;"/><text transform="translate(94.2 138.48)" style="fill:#1d1d1b; font-family:ArialMT, Arial; font-size:12px;"><tspan x="0" y="0">Stench</tspan></text><path d="m130.43,129.87c-.13-3-3.13-3-3-6,.24-3,3.24-3,3.74-5.98" style="fill:none; stroke:#1d1d1b; stroke-miterlimit:10;"/><path d="m134.28,138.48c-.5-2.98,2.5-2.98,2.26-5.97-.13-3-3.13-3-3-6,.24-3,3.24-3,3.74-5.98" style="fill:none; stroke:#1d1d1b; stroke-miterlimit:10;"/><path d="m124.34,127.24c-.13-3-3.13-3-3-6,.24-3,3.24-3,3.74-5.98" style="fill:none; stroke:#1d1d1b; stroke-miterlimit:10;"/><path d="m117.01,127.6c.66-.75,1.35-1.5,1.23-2.99-.13-3-3.13-3-3-6,.24-3,3.24-3,3.74-5.98" style="fill:none; stroke:#1d1d1b; stroke-miterlimit:10;"/><path d="m112.53,124.61c-.06-3-1.47-3-1.41-6,.11-3,1.52-3,1.75-5.98" style="fill:none; stroke:#1d1d1b; stroke-miterlimit:10;"/><path d="m99.67,115.26c-.5,2.98,2.5,2.98,2.26,5.97-.13,3-3.13,3-3,6" style="fill:none; stroke:#1d1d1b; stroke-miterlimit:10;"/><path d="m105.77,112.63c-.5,2.98,2.5,2.98,2.26,5.97-.13,3-3.13,3-3,6,.06.75.29,1.31.62,1.78" style="fill:none; stroke:#1d1d1b; stroke-miterlimit:10;"/><path d="m93.57,117.89c-.5,2.98,2.5,2.98,2.26,5.97-.13,3-3.13,3-3,6" style="fill:none; stroke:#1d1d1b; stroke-miterlimit:10;"/><path d="m87.47,120.52c-.5,2.98,2.5,2.98,2.26,5.97-.13,3-3.13,3-3,6,.24,3,3.24,3,3.74,5.98" style="fill:none; stroke:#1d1d1b; stroke-miterlimit:10;"/><text transform="translate(94.2 318.48)" style="fill:#1d1d1b; font-family:ArialMT, Arial; font-size:12px;"><tspan x="0" y="0">Stench</tspan></text><path d="m130.43,309.87c-.13-3-3.13-3-3-6,.24-3,3.24-3,3.74-5.98" style="fill:none; stroke:#1d1d1b; stroke-miterlimit:10;"/><path d="m134.28,318.48c-.5-2.98,2.5-2.98,2.26-5.97-.13-3-3.13-3-3-6,.24-3,3.24-3,3.74-5.98" style="fill:none; stroke:#1d1d1b; stroke-miterlimit:10;"/><path d="m124.34,307.24c-.13-3-3.13-3-3-6,.24-3,3.24-3,3.74-5.98" style="fill:none; stroke:#1d1d1b; stroke-miterlimit:10;"/><path d="m117.01,307.6c.66-.75,1.35-1.5,1.23-2.99-.13-3-3.13-3-3-6,.24-3,3.24-3,3.74-5.98" style="fill:none; stroke:#1d1d1b; stroke-miterlimit:10;"/><path d="m112.53,304.61c-.06-3-1.47-3-1.41-6,.11-3,1.52-3,1.75-5.98" style="fill:none; stroke:#1d1d1b; stroke-miterlimit:10;"/><path d="m99.67,295.26c-.5,2.98,2.5,2.98,2.26,5.97-.13,3-3.13,3-3,6" style="fill:none; stroke:#1d1d1b; stroke-miterlimit:10;"/><path d="m105.77,292.63c-.5,2.98,2.5,2.98,2.26,5.97-.13,3-3.13,3-3,6,.06.75.29,1.31.62,1.78" style="fill:none; stroke:#1d1d1b; stroke-miterlimit:10;"/><path d="m93.57,297.89c-.5,2.98,2.5,2.98,2.26,5.97-.13,3-3.13,3-3,6" style="fill:none; stroke:#1d1d1b; stroke-miterlimit:10;"/><path d="m87.47,300.52c-.5,2.98,2.5,2.98,2.26,5.97-.13,3-3.13,3-3,6,.24,3,3.24,3,3.74,5.98" style="fill:none; stroke:#1d1d1b; stroke-miterlimit:10;"/><path d="m216.71,262.5h-33.31c-1.42,0-2.38-1.35-1.8-2.56l6.12-12.73c.32-.66,1.02-1.08,1.8-1.08h21.06c.78,0,1.48.42,1.8,1.08l6.12,12.73c.58,1.2-.37,2.56-1.8,2.56Z" style="fill:none; stroke:#1d1d1b; stroke-miterlimit:10;"/><line x1="179.97" y1="253.07" x2="167.62" y2="253.07" style="fill:none; stroke:#1d1d1b; stroke-miterlimit:10;"/><line x1="232.49" y1="253.07" x2="220.13" y2="253.07" style="fill:none; stroke:#1d1d1b; stroke-miterlimit:10;"/><line x1="218.96" y1="236.31" x2="210.99" y2="243.35" style="fill:none; stroke:#1d1d1b; stroke-miterlimit:10;"/><line x1="181.1" y1="236.26" x2="189.11" y2="243.35" style="fill:none; stroke:#1d1d1b; stroke-miterlimit:10;"/><line x1="200.05" y1="241.42" x2="200.05" y2="232.59" style="fill:none; stroke:#1d1d1b; stroke-miterlimit:10;"/><text transform="translate(187.38 258.17)" style="fill:#1d1d1b; font-family:ArialMT, Arial; font-size:12px;"><tspan x="0" y="0">Gold</tspan></text><g id="M9r5eU.tif"><path d="m83.79,234.63c0-.6,0-1.21,0-1.81.04-.08.09-.15.1-.23.21-1.22.74-2.29,1.58-3.19.27-.29.36-.56.36-.94,0-8.13-.01-16.26,0-24.39,0-.9.06-1.82.25-2.69,1.2-5.35,5.65-8.91,11.15-8.92,9.27-.01,18.54,0,27.81,0,1.65,0,3.26.28,4.75,1,4.35,2.13,6.6,5.64,6.63,10.47.04,8.56.01,17.12,0,25.67,0,.41.09.72.37,1.05,3,3.53,1.5,8.94-2.88,10.43-.46.16-.95.25-1.42.38h-1.17c-.07-.03-.13-.07-.2-.07-1.96-.23-3.51-1.16-4.67-2.74-.05-.06-.12-.11-.19-.17-1.54,1.45-3.36,2.04-5.4,1.78-2.04-.26-3.62-1.33-4.74-3.07-2.78,4.35-9.15,4.13-11.57-.58-1.22.92-2.58,1.45-4.13,1.46-1.56,0-2.94-.53-4.19-1.47-.11.17-.18.29-.25.41-2.5,4.36-8.74,4.43-11.29.1-.44-.74-.63-1.63-.93-2.46Zm43.05-30.38c-.74,0-1.45.02-2.16,0-.39-.02-.6.11-.79.45-1.75,3.05-3.51,6.08-5.28,9.11-.24.42-.45.98-1.06.9-.61-.07-.68-.66-.82-1.12-.93-2.94-1.86-5.87-2.77-8.81-.13-.41-.31-.56-.74-.53-.73.04-1.46.03-2.18,0-.34-.01-.54.1-.73.38-2.08,3.07-4.17,6.13-6.26,9.2-.32.47-.62,1.02-1.29.96-.66-.06-.89-.64-1.13-1.15-1.29-2.7-2.59-5.4-3.88-8.1-.09-.19-.19-.36-.31-.58-.45.46-.53.99-.53,1.55,0,5.86,0,11.72,0,17.58,0,.17.01.34.03.62.15-.25.25-.39.34-.53.53-.9,1.04-1.82,1.59-2.7.6-.96,1.41-.95,1.98.02.47.79.89,1.61,1.34,2.42.34.6.65,1.22,1.05,1.78.44.62,1.09.59,1.56-.01.14-.18.25-.39.36-.59,1.35-2.41,2.69-4.83,4.04-7.25.26-.47.52-.98,1.14-.99.65-.01.92.51,1.21.99.02.03.04.06.06.09,1,1.7,1.99,3.39,2.99,5.09.51.87,1,1.76,1.55,2.6.53.82,1.28.8,1.85.02.13-.19.25-.39.36-.59,1.43-2.43,2.85-4.86,4.28-7.29.24-.41.49-.9,1.05-.87.59.03.76.56.95,1.03.92,2.34,1.84,4.68,2.77,7.02.11.28.24.55.39.81.06.11.2.18.3.26.09-.12.21-.23.25-.37.07-.27.1-.56.12-.84.15-1.93.28-3.86.43-5.79.09-1.19.85-1.58,1.87-.97.33.2.64.41,1.02.65v-11.13c-.14.14-.2.29-.25.45-.51,1.49-1.01,2.98-1.55,4.46-.08.23-.35.4-.53.6-.16-.21-.34-.42-.49-.64-.05-.07-.05-.17-.07-.25-.28-1.1-.56-2.19-.84-3.29-.39-1.54-.79-3.08-1.19-4.65Zm-25.14-6.37c0-1.35-1.09-2.46-2.42-2.45-1.32.01-2.39,1.1-2.39,2.42,0,1.33,1.07,2.4,2.4,2.41,1.33,0,2.41-1.05,2.42-2.38Zm22.68-.05c-.01,1.37,1.05,2.44,2.41,2.43,1.32,0,2.41-1.09,2.41-2.4,0-1.3-1.1-2.41-2.41-2.42-1.31-.01-2.4,1.07-2.41,2.39Z"/></g><g id="XWFDUg.tif"><path d="m119.57,369.08c2.05,1.11,2.25,2.38.97,4.37-.53.82-.8,1.87-.93,2.85-.16,1.15-.04,2.33-.04,3.5,0,3.64-.98,5.01-4.42,6.19v.84h2.27c3.64-3.92,7.33-7.9,11.04-11.9,0-1.28-.07-2.58.04-3.87.03-.4.47-.95.85-1.1,1-.39,2.07-.61,3.11-.89.26,0,.52,0,.78,0,1.37,1.07,2.74,2.15,4.11,3.22,0,.22,0,.44,0,.67-4.96,8.24-12.53,14.21-18.64,21.5,0,2.45,0,4.96,0,7.52,2.38,0,4.72,0,7.07,0,1.37,0,2.4.57,3.01,1.8.61,1.23.42,2.4-.42,3.48-2.59,3.33-5.17,6.68-7.8,9.98-.34.43-.99.61-1.49.9-.86,1.02-1.49,2.37-2.21,3.66-.17.3-.65.61-.97.59-.28-.01-.67-.44-.78-.76-.58-1.85-1.16-3.7-1.59-5.59-.12-.51.11-1.25.44-1.68,1.55-2.03,3.18-3.99,4.91-6.12h-5.96c-1.67,3.64-3.34,7.26-4.99,10.9-.68,1.49-1.06,3.45-3.48,1.8,0,1.45.04,2.73-.02,4-.02.34-.26.86-.52.95-.3.11-.84-.06-1.1-.29-1.08-.99-2.15-2-3.09-3.11-.33-.39-.52-1.16-.38-1.63,1.29-4.08,2.67-8.13,4.03-12.22-5.32-3.08-10.62-6.14-15.91-9.21-1.08-.63-1.08-1.35,0-1.96,3.6-2.06,7.12-4.26,10.81-6.12,3.43-1.73,6.26-4.95,10.63-4.49v-1.02c-2.04-.78-3.27-2.26-3.89-4.29-.76-2.48-1.72-4.94-2.17-7.48-.44-2.5-.53-4.13,2.08-4.98h14.67Zm-.04,46.63c2.55-3.29,5.12-6.56,7.61-9.88.63-.84-.11-2.04-1.21-2.05-6.33-.02-12.66-.01-19.04-.01-1.61,4.83-3.22,9.66-4.85,14.54,1.24.42,2.45.82,3.71,1.24,1.57-3.43,3.31-6.78,4.65-10.29.87-2.28,2.08-3.2,4.52-2.88,1.73.23,3.51.02,5.27.07.36.01.9.22,1.03.5.14.28,0,.83-.21,1.13-1.23,1.8-2.52,3.56-3.77,5.31.77.77,1.51,1.52,2.3,2.31Zm-30.16-17.28c4.9,2.84,9.72,5.63,14.83,8.59.51-2.68.99-5.19,1.54-8.04-.65.3-.84.37-1,.47-1.3.85-2.46,1.44-3.71-.24-1.06-1.43-1.38-3.18-.42-4.68.83-1.29,1.7-2.55,2.73-4.1-4.82,2.76-9.35,5.35-13.97,7.99Zm20.26-23.1c-.99,1.48-2.06,2.96-2.99,4.54-.73,1.24,1.42,4.11,3.27,4.27,1.63.14,3.3.13,4.93-.02,1.7-.15,2.77-1.28,2.89-3.06.13-1.89.03-3.8.03-5.73h-8.13Zm9.07,16.38c4.32-4.58,8.57-9.07,12.86-13.61-.71-.53-1.38-1.04-2.1-1.58-3.6,3.88-7.19,7.74-10.76,11.59,0,1.2,0,2.33,0,3.6Zm14.01-20.76c-.83.21-1.61.41-2.43.61v3.31c.77.57,1.56,1.17,2.41,1.81.85-1.28,1.69-2.53,2.55-3.83-.87-.65-1.71-1.28-2.53-1.9Zm-24.49,22.23c-1.46.81-2.82,1.57-4.22,2.35-.28-.41-.6-.88-.92-1.35-1.61,1.84-1.67,2.95-.22,4.23,1.93-1.03,3.88-2.06,5.87-3.11-.15-.64-.3-1.24-.52-2.12Zm5.11-2.04c-.74-.19-1.49-.37-2.26-.56-.42.62-.81,1.22-1.2,1.8.18.71.35,1.39.54,2.16,1-.4,1.98-.79,2.92-1.16,0-.78,0-1.48,0-2.23Zm-.02-4.29v-.84h-2.61v.84h2.61Zm-7.99,5.77v-1.87c-.75,1.12-1.42,2.12-2.26,3.37.92-.61,1.59-1.05,2.26-1.5Z" style="fill:#0333ff;"/><path d="m115.36,380.67h-1.37c-.58.38-.94.79-1.31.81-.32.01-.66-.42-1.2-.81h-1.4c-.07,1.35,1.08,2.59,2.44,2.64,1.6.07,2.8-1.02,2.84-2.64Z" style="fill:#0333ff;"/><path d="m115.83,379.54c.65-.97,1.31-1.53,1.25-1.99-.06-.49-.81-1.26-1.24-1.25-.46,0-1.21.75-1.27,1.24-.06.46.61,1.02,1.26,2Z" style="fill:#0333ff;"/><path d="m110.48,379.54c.66-.97,1.32-1.52,1.26-1.98-.06-.49-.8-1.27-1.23-1.26-.46,0-1.21.74-1.28,1.23-.06.46.6,1.03,1.25,2.01Z" style="fill:#0333ff;"/></g><text transform="translate(32.64 311.77)" style="font-family:ArialMT, Arial; font-size:16px;"><tspan x="0" y="0">2</tspan></text><text transform="translate(32.64 221.77)" style="font-family:ArialMT, Arial; font-size:16px;"><tspan x="0" y="0">3</tspan></text><text transform="translate(32.64 131.77)" style="font-family:ArialMT, Arial; font-size:16px;"><tspan x="0" y="0">4</tspan></text><text transform="translate(32.64 401.77)" style="font-family:ArialMT, Arial; font-size:16px;"><tspan x="0" y="0">1</tspan></text><text transform="translate(107.55 478.04)" style="font-family:ArialMT, Arial; font-size:16px;"><tspan x="0" y="0">1</tspan></text><text transform="translate(197.55 478.04)" style="font-family:ArialMT, Arial; font-size:16px;"><tspan x="0" y="0">2</tspan></text><text transform="translate(287.55 478.04)" style="font-family:ArialMT, Arial; font-size:16px;"><tspan x="0" y="0">3</tspan></text><text transform="translate(377.55 478.04)" style="font-family:ArialMT, Arial; font-size:16px;"><tspan x="0" y="0">4</tspan></text></svg>