<?xml version="1.0" encoding="utf-8" standalone="no"?>
<!DOCTYPE svg PUBLIC "-//W3C//DTD SVG 1.1//EN"
  "http://www.w3.org/Graphics/SVG/1.1/DTD/svg11.dtd">
<svg xmlns:xlink="http://www.w3.org/1999/xlink" width="483.70625pt" height="303.810375pt" viewBox="0 0 483.70625 303.810375" xmlns="http://www.w3.org/2000/svg" version="1.1">
 <metadata>
  <rdf:RDF xmlns:dc="http://purl.org/dc/elements/1.1/" xmlns:cc="http://creativecommons.org/ns#" xmlns:rdf="http://www.w3.org/1999/02/22-rdf-syntax-ns#">
   <cc:Work>
    <dc:type rdf:resource="http://purl.org/dc/dcmitype/StillImage"/>
    <dc:date>2026-04-25T22:01:28.348651</dc:date>
    <dc:format>image/svg+xml</dc:format>
    <dc:creator>
     <cc:Agent>
      <dc:title>Matplotlib v3.10.7, https://matplotlib.org/</dc:title>
     </cc:Agent>
    </dc:creator>
   </cc:Work>
  </rdf:RDF>
 </metadata>
 <defs>
  <style type="text/css">*{stroke-linejoin: round; stroke-linecap: butt}</style>
 </defs>
 <g id="figure_1">
  <g id="patch_1">
   <path d="M 0 303.810375 
L 483.70625 303.810375 
L 483.70625 0 
L 0 0 
z
" style="fill: #ffffff"/>
  </g>
  <g id="axes_1">
   <g id="patch_2">
    <path d="M 56.50625 266.254125 
L 212.74625 266.254125 
L 212.74625 44.494125 
L 56.50625 44.494125 
z
" style="fill: #ffffff"/>
   </g>
   <g id="matplotlib.axis_1">
    <g id="xtick_1">
     <g id="line2d_1">
      <defs>
       <path id="mfd686241cc" d="M 0 0 
L 0 3.5 
" style="stroke: #000000; stroke-width: 0.8"/>
      </defs>
      <g>
       <use xlink:href="#mfd686241cc" x="63.608068" y="266.254125" style="stroke: #000000; stroke-width: 0.8"/>
      </g>
     </g>
     <g id="text_1">
      <!-- 0 -->
      <g transform="translate(60.426818 280.852563) scale(0.1 -0.1)">
       <defs>
        <path id="DejaVuSans-30" d="M 2034 4250 
Q 1547 4250 1301 3770 
Q 1056 3291 1056 2328 
Q 1056 1369 1301 889 
Q 1547 409 2034 409 
Q 2525 409 2770 889 
Q 3016 1369 3016 2328 
Q 3016 3291 2770 3770 
Q 2525 4250 2034 4250 
z
M 2034 4750 
Q 2819 4750 3233 4129 
Q 3647 3509 3647 2328 
Q 3647 1150 3233 529 
Q 2819 -91 2034 -91 
Q 1250 -91 836 529 
Q 422 1150 422 2328 
Q 422 3509 836 4129 
Q 1250 4750 2034 4750 
z
" transform="scale(0.015625)"/>
       </defs>
       <use xlink:href="#DejaVuSans-30"/>
      </g>
     </g>
    </g>
    <g id="xtick_2">
     <g id="line2d_2">
      <g>
       <use xlink:href="#mfd686241cc" x="112.586125" y="266.254125" style="stroke: #000000; stroke-width: 0.8"/>
      </g>
     </g>
     <g id="text_2">
      <!-- 10 -->
      <g transform="translate(106.223625 280.852563) scale(0.1 -0.1)">
       <defs>
        <path id="DejaVuSans-31" d="M 794 531 
L 1825 531 
L 1825 4091 
L 703 3866 
L 703 4441 
L 1819 4666 
L 2450 4666 
L 2450 531 
L 3481 531 
L 3481 0 
L 794 0 
L 794 531 
z
" transform="scale(0.015625)"/>
       </defs>
       <use xlink:href="#DejaVuSans-31"/>
       <use xlink:href="#DejaVuSans-30" transform="translate(63.623047 0)"/>
      </g>
     </g>
    </g>
    <g id="xtick_3">
     <g id="line2d_3">
      <g>
       <use xlink:href="#mfd686241cc" x="161.564181" y="266.254125" style="stroke: #000000; stroke-width: 0.8"/>
      </g>
     </g>
     <g id="text_3">
      <!-- 20 -->
      <g transform="translate(155.201681 280.852563) scale(0.1 -0.1)">
       <defs>
        <path id="DejaVuSans-32" d="M 1228 531 
L 3431 531 
L 3431 0 
L 469 0 
L 469 531 
Q 828 903 1448 1529 
Q 2069 2156 2228 2338 
Q 2531 2678 2651 2914 
Q 2772 3150 2772 3378 
Q 2772 3750 2511 3984 
Q 2250 4219 1831 4219 
Q 1534 4219 1204 4116 
Q 875 4013 500 3803 
L 500 4441 
Q 881 4594 1212 4672 
Q 1544 4750 1819 4750 
Q 2544 4750 2975 4387 
Q 3406 4025 3406 3419 
Q 3406 3131 3298 2873 
Q 3191 2616 2906 2266 
Q 2828 2175 2409 1742 
Q 1991 1309 1228 531 
z
" transform="scale(0.015625)"/>
       </defs>
       <use xlink:href="#DejaVuSans-32"/>
       <use xlink:href="#DejaVuSans-30" transform="translate(63.623047 0)"/>
      </g>
     </g>
    </g>
    <g id="xtick_4">
     <g id="line2d_4">
      <g>
       <use xlink:href="#mfd686241cc" x="210.542237" y="266.254125" style="stroke: #000000; stroke-width: 0.8"/>
      </g>
     </g>
     <g id="text_4">
      <!-- 30 -->
      <g transform="translate(204.179737 280.852563) scale(0.1 -0.1)">
       <defs>
        <path id="DejaVuSans-33" d="M 2597 2516 
Q 3050 2419 3304 2112 
Q 3559 1806 3559 1356 
Q 3559 666 3084 287 
Q 2609 -91 1734 -91 
Q 1441 -91 1130 -33 
Q 819 25 488 141 
L 488 750 
Q 750 597 1062 519 
Q 1375 441 1716 441 
Q 2309 441 2620 675 
Q 2931 909 2931 1356 
Q 2931 1769 2642 2001 
Q 2353 2234 1838 2234 
L 1294 2234 
L 1294 2753 
L 1863 2753 
Q 2328 2753 2575 2939 
Q 2822 3125 2822 3475 
Q 2822 3834 2567 4026 
Q 2313 4219 1838 4219 
Q 1578 4219 1281 4162 
Q 984 4106 628 3988 
L 628 4550 
Q 988 4650 1302 4700 
Q 1616 4750 1894 4750 
Q 2613 4750 3031 4423 
Q 3450 4097 3450 3541 
Q 3450 3153 3228 2886 
Q 3006 2619 2597 2516 
z
" transform="scale(0.015625)"/>
       </defs>
       <use xlink:href="#DejaVuSans-33"/>
       <use xlink:href="#DejaVuSans-30" transform="translate(63.623047 0)"/>
      </g>
     </g>
    </g>
    <g id="text_5">
     <!-- k successes -->
     <g transform="translate(104.902813 294.530687) scale(0.1 -0.1)">
      <defs>
       <path id="DejaVuSans-6b" d="M 581 4863 
L 1159 4863 
L 1159 1991 
L 2875 3500 
L 3609 3500 
L 1753 1863 
L 3688 0 
L 2938 0 
L 1159 1709 
L 1159 0 
L 581 0 
L 581 4863 
z
" transform="scale(0.015625)"/>
       <path id="DejaVuSans-20" transform="scale(0.015625)"/>
       <path id="DejaVuSans-73" d="M 2834 3397 
L 2834 2853 
Q 2591 2978 2328 3040 
Q 2066 3103 1784 3103 
Q 1356 3103 1142 2972 
Q 928 2841 928 2578 
Q 928 2378 1081 2264 
Q 1234 2150 1697 2047 
L 1894 2003 
Q 2506 1872 2764 1633 
Q 3022 1394 3022 966 
Q 3022 478 2636 193 
Q 2250 -91 1575 -91 
Q 1294 -91 989 -36 
Q 684 19 347 128 
L 347 722 
Q 666 556 975 473 
Q 1284 391 1588 391 
Q 1994 391 2212 530 
Q 2431 669 2431 922 
Q 2431 1156 2273 1281 
Q 2116 1406 1581 1522 
L 1381 1569 
Q 847 1681 609 1914 
Q 372 2147 372 2553 
Q 372 3047 722 3315 
Q 1072 3584 1716 3584 
Q 2034 3584 2315 3537 
Q 2597 3491 2834 3397 
z
" transform="scale(0.015625)"/>
       <path id="DejaVuSans-75" d="M 544 1381 
L 544 3500 
L 1119 3500 
L 1119 1403 
Q 1119 906 1312 657 
Q 1506 409 1894 409 
Q 2359 409 2629 706 
Q 2900 1003 2900 1516 
L 2900 3500 
L 3475 3500 
L 3475 0 
L 2900 0 
L 2900 538 
Q 2691 219 2414 64 
Q 2138 -91 1772 -91 
Q 1169 -91 856 284 
Q 544 659 544 1381 
z
M 1991 3584 
L 1991 3584 
z
" transform="scale(0.015625)"/>
       <path id="DejaVuSans-63" d="M 3122 3366 
L 3122 2828 
Q 2878 2963 2633 3030 
Q 2388 3097 2138 3097 
Q 1578 3097 1268 2742 
Q 959 2388 959 1747 
Q 959 1106 1268 751 
Q 1578 397 2138 397 
Q 2388 397 2633 464 
Q 2878 531 3122 666 
L 3122 134 
Q 2881 22 2623 -34 
Q 2366 -91 2075 -91 
Q 1284 -91 818 406 
Q 353 903 353 1747 
Q 353 2603 823 3093 
Q 1294 3584 2113 3584 
Q 2378 3584 2631 3529 
Q 2884 3475 3122 3366 
z
" transform="scale(0.015625)"/>
       <path id="DejaVuSans-65" d="M 3597 1894 
L 3597 1613 
L 953 1613 
Q 991 1019 1311 708 
Q 1631 397 2203 397 
Q 2534 397 2845 478 
Q 3156 559 3463 722 
L 3463 178 
Q 3153 47 2828 -22 
Q 2503 -91 2169 -91 
Q 1331 -91 842 396 
Q 353 884 353 1716 
Q 353 2575 817 3079 
Q 1281 3584 2069 3584 
Q 2775 3584 3186 3129 
Q 3597 2675 3597 1894 
z
M 3022 2063 
Q 3016 2534 2758 2815 
Q 2500 3097 2075 3097 
Q 1594 3097 1305 2825 
Q 1016 2553 972 2059 
L 3022 2063 
z
" transform="scale(0.015625)"/>
      </defs>
      <use xlink:href="#DejaVuSans-6b"/>
      <use xlink:href="#DejaVuSans-20" transform="translate(57.910156 0)"/>
      <use xlink:href="#DejaVuSans-73" transform="translate(89.697266 0)"/>
      <use xlink:href="#DejaVuSans-75" transform="translate(141.796875 0)"/>
      <use xlink:href="#DejaVuSans-63" transform="translate(205.175781 0)"/>
      <use xlink:href="#DejaVuSans-63" transform="translate(260.15625 0)"/>
      <use xlink:href="#DejaVuSans-65" transform="translate(315.136719 0)"/>
      <use xlink:href="#DejaVuSans-73" transform="translate(376.660156 0)"/>
      <use xlink:href="#DejaVuSans-73" transform="translate(428.759766 0)"/>
      <use xlink:href="#DejaVuSans-65" transform="translate(480.859375 0)"/>
      <use xlink:href="#DejaVuSans-73" transform="translate(542.382812 0)"/>
     </g>
    </g>
   </g>
   <g id="matplotlib.axis_2">
    <g id="ytick_1">
     <g id="line2d_5">
      <defs>
       <path id="m1e82b9b7b1" d="M 0 0 
L -3.5 0 
" style="stroke: #000000; stroke-width: 0.8"/>
      </defs>
      <g>
       <use xlink:href="#m1e82b9b7b1" x="56.50625" y="256.174125" style="stroke: #000000; stroke-width: 0.8"/>
      </g>
     </g>
     <g id="text_6">
      <!-- 0.000 -->
      <g transform="translate(20.878125 259.973344) scale(0.1 -0.1)">
       <defs>
        <path id="DejaVuSans-2e" d="M 684 794 
L 1344 794 
L 1344 0 
L 684 0 
L 684 794 
z
" transform="scale(0.015625)"/>
       </defs>
       <use xlink:href="#DejaVuSans-30"/>
       <use xlink:href="#DejaVuSans-2e" transform="translate(63.623047 0)"/>
       <use xlink:href="#DejaVuSans-30" transform="translate(95.410156 0)"/>
       <use xlink:href="#DejaVuSans-30" transform="translate(159.033203 0)"/>
       <use xlink:href="#DejaVuSans-30" transform="translate(222.65625 0)"/>
      </g>
     </g>
    </g>
    <g id="ytick_2">
     <g id="line2d_6">
      <g>
       <use xlink:href="#m1e82b9b7b1" x="56.50625" y="228.089478" style="stroke: #000000; stroke-width: 0.8"/>
      </g>
     </g>
     <g id="text_7">
      <!-- 0.025 -->
      <g transform="translate(20.878125 231.888697) scale(0.1 -0.1)">
       <defs>
        <path id="DejaVuSans-35" d="M 691 4666 
L 3169 4666 
L 3169 4134 
L 1269 4134 
L 1269 2991 
Q 1406 3038 1543 3061 
Q 1681 3084 1819 3084 
Q 2600 3084 3056 2656 
Q 3513 2228 3513 1497 
Q 3513 744 3044 326 
Q 2575 -91 1722 -91 
Q 1428 -91 1123 -41 
Q 819 9 494 109 
L 494 744 
Q 775 591 1075 516 
Q 1375 441 1709 441 
Q 2250 441 2565 725 
Q 2881 1009 2881 1497 
Q 2881 1984 2565 2268 
Q 2250 2553 1709 2553 
Q 1456 2553 1204 2497 
Q 953 2441 691 2322 
L 691 4666 
z
" transform="scale(0.015625)"/>
       </defs>
       <use xlink:href="#DejaVuSans-30"/>
       <use xlink:href="#DejaVuSans-2e" transform="translate(63.623047 0)"/>
       <use xlink:href="#DejaVuSans-30" transform="translate(95.410156 0)"/>
       <use xlink:href="#DejaVuSans-32" transform="translate(159.033203 0)"/>
       <use xlink:href="#DejaVuSans-35" transform="translate(222.65625 0)"/>
      </g>
     </g>
    </g>
    <g id="ytick_3">
     <g id="line2d_7">
      <g>
       <use xlink:href="#m1e82b9b7b1" x="56.50625" y="200.004831" style="stroke: #000000; stroke-width: 0.8"/>
      </g>
     </g>
     <g id="text_8">
      <!-- 0.050 -->
      <g transform="translate(20.878125 203.80405) scale(0.1 -0.1)">
       <use xlink:href="#DejaVuSans-30"/>
       <use xlink:href="#DejaVuSans-2e" transform="translate(63.623047 0)"/>
       <use xlink:href="#DejaVuSans-30" transform="translate(95.410156 0)"/>
       <use xlink:href="#DejaVuSans-35" transform="translate(159.033203 0)"/>
       <use xlink:href="#DejaVuSans-30" transform="translate(222.65625 0)"/>
      </g>
     </g>
    </g>
    <g id="ytick_4">
     <g id="line2d_8">
      <g>
       <use xlink:href="#m1e82b9b7b1" x="56.50625" y="171.920185" style="stroke: #000000; stroke-width: 0.8"/>
      </g>
     </g>
     <g id="text_9">
      <!-- 0.075 -->
      <g transform="translate(20.878125 175.719403) scale(0.1 -0.1)">
       <defs>
        <path id="DejaVuSans-37" d="M 525 4666 
L 3525 4666 
L 3525 4397 
L 1831 0 
L 1172 0 
L 2766 4134 
L 525 4134 
L 525 4666 
z
" transform="scale(0.015625)"/>
       </defs>
       <use xlink:href="#DejaVuSans-30"/>
       <use xlink:href="#DejaVuSans-2e" transform="translate(63.623047 0)"/>
       <use xlink:href="#DejaVuSans-30" transform="translate(95.410156 0)"/>
       <use xlink:href="#DejaVuSans-37" transform="translate(159.033203 0)"/>
       <use xlink:href="#DejaVuSans-35" transform="translate(222.65625 0)"/>
      </g>
     </g>
    </g>
    <g id="ytick_5">
     <g id="line2d_9">
      <g>
       <use xlink:href="#m1e82b9b7b1" x="56.50625" y="143.835538" style="stroke: #000000; stroke-width: 0.8"/>
      </g>
     </g>
     <g id="text_10">
      <!-- 0.100 -->
      <g transform="translate(20.878125 147.634757) scale(0.1 -0.1)">
       <use xlink:href="#DejaVuSans-30"/>
       <use xlink:href="#DejaVuSans-2e" transform="translate(63.623047 0)"/>
       <use xlink:href="#DejaVuSans-31" transform="translate(95.410156 0)"/>
       <use xlink:href="#DejaVuSans-30" transform="translate(159.033203 0)"/>
       <use xlink:href="#DejaVuSans-30" transform="translate(222.65625 0)"/>
      </g>
     </g>
    </g>
    <g id="ytick_6">
     <g id="line2d_10">
      <g>
       <use xlink:href="#m1e82b9b7b1" x="56.50625" y="115.750891" style="stroke: #000000; stroke-width: 0.8"/>
      </g>
     </g>
     <g id="text_11">
      <!-- 0.125 -->
      <g transform="translate(20.878125 119.55011) scale(0.1 -0.1)">
       <use xlink:href="#DejaVuSans-30"/>
       <use xlink:href="#DejaVuSans-2e" transform="translate(63.623047 0)"/>
       <use xlink:href="#DejaVuSans-31" transform="translate(95.410156 0)"/>
       <use xlink:href="#DejaVuSans-32" transform="translate(159.033203 0)"/>
       <use xlink:href="#DejaVuSans-35" transform="translate(222.65625 0)"/>
      </g>
     </g>
    </g>
    <g id="ytick_7">
     <g id="line2d_11">
      <g>
       <use xlink:href="#m1e82b9b7b1" x="56.50625" y="87.666244" style="stroke: #000000; stroke-width: 0.8"/>
      </g>
     </g>
     <g id="text_12">
      <!-- 0.150 -->
      <g transform="translate(20.878125 91.465463) scale(0.1 -0.1)">
       <use xlink:href="#DejaVuSans-30"/>
       <use xlink:href="#DejaVuSans-2e" transform="translate(63.623047 0)"/>
       <use xlink:href="#DejaVuSans-31" transform="translate(95.410156 0)"/>
       <use xlink:href="#DejaVuSans-35" transform="translate(159.033203 0)"/>
       <use xlink:href="#DejaVuSans-30" transform="translate(222.65625 0)"/>
      </g>
     </g>
    </g>
    <g id="ytick_8">
     <g id="line2d_12">
      <g>
       <use xlink:href="#m1e82b9b7b1" x="56.50625" y="59.581597" style="stroke: #000000; stroke-width: 0.8"/>
      </g>
     </g>
     <g id="text_13">
      <!-- 0.175 -->
      <g transform="translate(20.878125 63.380816) scale(0.1 -0.1)">
       <use xlink:href="#DejaVuSans-30"/>
       <use xlink:href="#DejaVuSans-2e" transform="translate(63.623047 0)"/>
       <use xlink:href="#DejaVuSans-31" transform="translate(95.410156 0)"/>
       <use xlink:href="#DejaVuSans-37" transform="translate(159.033203 0)"/>
       <use xlink:href="#DejaVuSans-35" transform="translate(222.65625 0)"/>
      </g>
     </g>
    </g>
    <g id="text_14">
     <!-- Prob. for k successes -->
     <g transform="translate(14.798438 207.843656) rotate(-90) scale(0.1 -0.1)">
      <defs>
       <path id="DejaVuSans-50" d="M 1259 4147 
L 1259 2394 
L 2053 2394 
Q 2494 2394 2734 2622 
Q 2975 2850 2975 3272 
Q 2975 3691 2734 3919 
Q 2494 4147 2053 4147 
L 1259 4147 
z
M 628 4666 
L 2053 4666 
Q 2838 4666 3239 4311 
Q 3641 3956 3641 3272 
Q 3641 2581 3239 2228 
Q 2838 1875 2053 1875 
L 1259 1875 
L 1259 0 
L 628 0 
L 628 4666 
z
" transform="scale(0.015625)"/>
       <path id="DejaVuSans-72" d="M 2631 2963 
Q 2534 3019 2420 3045 
Q 2306 3072 2169 3072 
Q 1681 3072 1420 2755 
Q 1159 2438 1159 1844 
L 1159 0 
L 581 0 
L 581 3500 
L 1159 3500 
L 1159 2956 
Q 1341 3275 1631 3429 
Q 1922 3584 2338 3584 
Q 2397 3584 2469 3576 
Q 2541 3569 2628 3553 
L 2631 2963 
z
" transform="scale(0.015625)"/>
       <path id="DejaVuSans-6f" d="M 1959 3097 
Q 1497 3097 1228 2736 
Q 959 2375 959 1747 
Q 959 1119 1226 758 
Q 1494 397 1959 397 
Q 2419 397 2687 759 
Q 2956 1122 2956 1747 
Q 2956 2369 2687 2733 
Q 2419 3097 1959 3097 
z
M 1959 3584 
Q 2709 3584 3137 3096 
Q 3566 2609 3566 1747 
Q 3566 888 3137 398 
Q 2709 -91 1959 -91 
Q 1206 -91 779 398 
Q 353 888 353 1747 
Q 353 2609 779 3096 
Q 1206 3584 1959 3584 
z
" transform="scale(0.015625)"/>
       <path id="DejaVuSans-62" d="M 3116 1747 
Q 3116 2381 2855 2742 
Q 2594 3103 2138 3103 
Q 1681 3103 1420 2742 
Q 1159 2381 1159 1747 
Q 1159 1113 1420 752 
Q 1681 391 2138 391 
Q 2594 391 2855 752 
Q 3116 1113 3116 1747 
z
M 1159 2969 
Q 1341 3281 1617 3432 
Q 1894 3584 2278 3584 
Q 2916 3584 3314 3078 
Q 3713 2572 3713 1747 
Q 3713 922 3314 415 
Q 2916 -91 2278 -91 
Q 1894 -91 1617 61 
Q 1341 213 1159 525 
L 1159 0 
L 581 0 
L 581 4863 
L 1159 4863 
L 1159 2969 
z
" transform="scale(0.015625)"/>
       <path id="DejaVuSans-66" d="M 2375 4863 
L 2375 4384 
L 1825 4384 
Q 1516 4384 1395 4259 
Q 1275 4134 1275 3809 
L 1275 3500 
L 2222 3500 
L 2222 3053 
L 1275 3053 
L 1275 0 
L 697 0 
L 697 3053 
L 147 3053 
L 147 3500 
L 697 3500 
L 697 3744 
Q 697 4328 969 4595 
Q 1241 4863 1831 4863 
L 2375 4863 
z
" transform="scale(0.015625)"/>
      </defs>
      <use xlink:href="#DejaVuSans-50"/>
      <use xlink:href="#DejaVuSans-72" transform="translate(58.552734 0)"/>
      <use xlink:href="#DejaVuSans-6f" transform="translate(97.416016 0)"/>
      <use xlink:href="#DejaVuSans-62" transform="translate(158.597656 0)"/>
      <use xlink:href="#DejaVuSans-2e" transform="translate(222.074219 0)"/>
      <use xlink:href="#DejaVuSans-20" transform="translate(253.861328 0)"/>
      <use xlink:href="#DejaVuSans-66" transform="translate(285.648438 0)"/>
      <use xlink:href="#DejaVuSans-6f" transform="translate(320.853516 0)"/>
      <use xlink:href="#DejaVuSans-72" transform="translate(382.035156 0)"/>
      <use xlink:href="#DejaVuSans-20" transform="translate(423.148438 0)"/>
      <use xlink:href="#DejaVuSans-6b" transform="translate(454.935547 0)"/>
      <use xlink:href="#DejaVuSans-20" transform="translate(512.845703 0)"/>
      <use xlink:href="#DejaVuSans-73" transform="translate(544.632812 0)"/>
      <use xlink:href="#DejaVuSans-75" transform="translate(596.732422 0)"/>
      <use xlink:href="#DejaVuSans-63" transform="translate(660.111328 0)"/>
      <use xlink:href="#DejaVuSans-63" transform="translate(715.091797 0)"/>
      <use xlink:href="#DejaVuSans-65" transform="translate(770.072266 0)"/>
      <use xlink:href="#DejaVuSans-73" transform="translate(831.595703 0)"/>
      <use xlink:href="#DejaVuSans-73" transform="translate(883.695312 0)"/>
      <use xlink:href="#DejaVuSans-65" transform="translate(935.794922 0)"/>
      <use xlink:href="#DejaVuSans-73" transform="translate(997.318359 0)"/>
     </g>
    </g>
   </g>
   <g id="line2d_13">
    <path d="M 63.608068 254.783441 
L 68.505874 245.743992 
L 73.403679 218.364894 
L 78.301485 167.952587 
L 83.199291 107.300279 
L 88.097096 62.638125 
L 92.994902 54.574125 
L 97.892708 83.374125 
L 102.790513 131.974125 
L 107.688319 180.274125 
L 112.586125 216.326625 
L 117.48393 238.061625 
L 122.381736 249.004594 
L 127.279542 253.692364 
L 132.177347 255.420733 
L 137.075153 255.973221 
L 141.972958 256.127038 
L 146.870764 256.164431 
L 151.76857 256.172375 
L 156.666375 256.173849 
L 161.564181 256.174087 
L 166.461987 256.17412 
L 171.359792 256.174125 
L 176.257598 256.174125 
L 181.155404 256.174125 
L 186.053209 256.174125 
L 190.951015 256.174125 
L 195.848821 256.174125 
L 200.746626 256.174125 
L 205.644432 256.174125 
" clip-path="url(#p7ce3fa09e0)" style="fill: none; stroke-dasharray: 5.55,2.4; stroke-dashoffset: 0; stroke: #4c4c4c; stroke-width: 1.5"/>
    <defs>
     <path id="m0e561e6b19" d="M 0 1.5 
C 0.397805 1.5 0.77937 1.341951 1.06066 1.06066 
C 1.341951 0.77937 1.5 0.397805 1.5 0 
C 1.5 -0.397805 1.341951 -0.77937 1.06066 -1.06066 
C 0.77937 -1.341951 0.397805 -1.5 0 -1.5 
C -0.397805 -1.5 -0.77937 -1.341951 -1.06066 -1.06066 
C -1.341951 -0.77937 -1.5 -0.397805 -1.5 0 
C -1.5 0.397805 -1.341951 0.77937 -1.06066 1.06066 
C -0.77937 1.341951 -0.397805 1.5 0 1.5 
z
" style="stroke: #4c4c4c"/>
    </defs>
    <g clip-path="url(#p7ce3fa09e0)">
     <use xlink:href="#m0e561e6b19" x="63.608068" y="254.783441" style="fill: #4c4c4c; stroke: #4c4c4c"/>
     <use xlink:href="#m0e561e6b19" x="68.505874" y="245.743992" style="fill: #4c4c4c; stroke: #4c4c4c"/>
     <use xlink:href="#m0e561e6b19" x="73.403679" y="218.364894" style="fill: #4c4c4c; stroke: #4c4c4c"/>
     <use xlink:href="#m0e561e6b19" x="78.301485" y="167.952587" style="fill: #4c4c4c; stroke: #4c4c4c"/>
     <use xlink:href="#m0e561e6b19" x="83.199291" y="107.300279" style="fill: #4c4c4c; stroke: #4c4c4c"/>
     <use xlink:href="#m0e561e6b19" x="88.097096" y="62.638125" style="fill: #4c4c4c; stroke: #4c4c4c"/>
     <use xlink:href="#m0e561e6b19" x="92.994902" y="54.574125" style="fill: #4c4c4c; stroke: #4c4c4c"/>
     <use xlink:href="#m0e561e6b19" x="97.892708" y="83.374125" style="fill: #4c4c4c; stroke: #4c4c4c"/>
     <use xlink:href="#m0e561e6b19" x="102.790513" y="131.974125" style="fill: #4c4c4c; stroke: #4c4c4c"/>
     <use xlink:href="#m0e561e6b19" x="107.688319" y="180.274125" style="fill: #4c4c4c; stroke: #4c4c4c"/>
     <use xlink:href="#m0e561e6b19" x="112.586125" y="216.326625" style="fill: #4c4c4c; stroke: #4c4c4c"/>
     <use xlink:href="#m0e561e6b19" x="117.48393" y="238.061625" style="fill: #4c4c4c; stroke: #4c4c4c"/>
     <use xlink:href="#m0e561e6b19" x="122.381736" y="249.004594" style="fill: #4c4c4c; stroke: #4c4c4c"/>
     <use xlink:href="#m0e561e6b19" x="127.279542" y="253.692364" style="fill: #4c4c4c; stroke: #4c4c4c"/>
     <use xlink:href="#m0e561e6b19" x="132.177347" y="255.420733" style="fill: #4c4c4c; stroke: #4c4c4c"/>
     <use xlink:href="#m0e561e6b19" x="137.075153" y="255.973221" style="fill: #4c4c4c; stroke: #4c4c4c"/>
     <use xlink:href="#m0e561e6b19" x="141.972958" y="256.127038" style="fill: #4c4c4c; stroke: #4c4c4c"/>
     <use xlink:href="#m0e561e6b19" x="146.870764" y="256.164431" style="fill: #4c4c4c; stroke: #4c4c4c"/>
     <use xlink:href="#m0e561e6b19" x="151.76857" y="256.172375" style="fill: #4c4c4c; stroke: #4c4c4c"/>
     <use xlink:href="#m0e561e6b19" x="156.666375" y="256.173849" style="fill: #4c4c4c; stroke: #4c4c4c"/>
     <use xlink:href="#m0e561e6b19" x="161.564181" y="256.174087" style="fill: #4c4c4c; stroke: #4c4c4c"/>
     <use xlink:href="#m0e561e6b19" x="166.461987" y="256.17412" style="fill: #4c4c4c; stroke: #4c4c4c"/>
     <use xlink:href="#m0e561e6b19" x="171.359792" y="256.174125" style="fill: #4c4c4c; stroke: #4c4c4c"/>
     <use xlink:href="#m0e561e6b19" x="176.257598" y="256.174125" style="fill: #4c4c4c; stroke: #4c4c4c"/>
     <use xlink:href="#m0e561e6b19" x="181.155404" y="256.174125" style="fill: #4c4c4c; stroke: #4c4c4c"/>
     <use xlink:href="#m0e561e6b19" x="186.053209" y="256.174125" style="fill: #4c4c4c; stroke: #4c4c4c"/>
     <use xlink:href="#m0e561e6b19" x="190.951015" y="256.174125" style="fill: #4c4c4c; stroke: #4c4c4c"/>
     <use xlink:href="#m0e561e6b19" x="195.848821" y="256.174125" style="fill: #4c4c4c; stroke: #4c4c4c"/>
     <use xlink:href="#m0e561e6b19" x="200.746626" y="256.174125" style="fill: #4c4c4c; stroke: #4c4c4c"/>
     <use xlink:href="#m0e561e6b19" x="205.644432" y="256.174125" style="fill: #4c4c4c; stroke: #4c4c4c"/>
    </g>
   </g>
   <g id="line2d_14">
    <path d="M 63.608068 256.174124 
L 68.505874 256.174094 
L 73.403679 256.17367 
L 78.301485 256.169877 
L 83.199291 256.145453 
L 88.097096 256.02503 
L 92.994902 255.552897 
L 97.892708 254.044201 
L 102.790513 250.050592 
L 107.688319 241.205489 
L 112.586125 224.73999 
L 117.48393 199.021152 
L 122.381736 165.681918 
L 127.279542 130.877224 
L 132.177347 104.027888 
L 137.075153 93.884805 
L 141.972958 104.027888 
L 146.870764 130.877224 
L 151.76857 165.681918 
L 156.666375 199.021152 
L 161.564181 224.73999 
L 166.461987 241.205489 
L 171.359792 250.050592 
L 176.257598 254.044201 
L 181.155404 255.552897 
L 186.053209 256.02503 
L 190.951015 256.145453 
L 195.848821 256.169877 
L 200.746626 256.17367 
L 205.644432 256.174094 
" clip-path="url(#p7ce3fa09e0)" style="fill: none; stroke-dasharray: 5.55,2.4; stroke-dashoffset: 0; stroke: #808080; stroke-width: 1.5"/>
    <defs>
     <path id="m48412d0e73" d="M 0 1.5 
C 0.397805 1.5 0.77937 1.341951 1.06066 1.06066 
C 1.341951 0.77937 1.5 0.397805 1.5 0 
C 1.5 -0.397805 1.341951 -0.77937 1.06066 -1.06066 
C 0.77937 -1.341951 0.397805 -1.5 0 -1.5 
C -0.397805 -1.5 -0.77937 -1.341951 -1.06066 -1.06066 
C -1.341951 -0.77937 -1.5 -0.397805 -1.5 0 
C -1.5 0.397805 -1.341951 0.77937 -1.06066 1.06066 
C -0.77937 1.341951 -0.397805 1.5 0 1.5 
z
" style="stroke: #808080"/>
    </defs>
    <g clip-path="url(#p7ce3fa09e0)">
     <use xlink:href="#m48412d0e73" x="63.608068" y="256.174124" style="fill: #808080; stroke: #808080"/>
     <use xlink:href="#m48412d0e73" x="68.505874" y="256.174094" style="fill: #808080; stroke: #808080"/>
     <use xlink:href="#m48412d0e73" x="73.403679" y="256.17367" style="fill: #808080; stroke: #808080"/>
     <use xlink:href="#m48412d0e73" x="78.301485" y="256.169877" style="fill: #808080; stroke: #808080"/>
     <use xlink:href="#m48412d0e73" x="83.199291" y="256.145453" style="fill: #808080; stroke: #808080"/>
     <use xlink:href="#m48412d0e73" x="88.097096" y="256.02503" style="fill: #808080; stroke: #808080"/>
     <use xlink:href="#m48412d0e73" x="92.994902" y="255.552897" style="fill: #808080; stroke: #808080"/>
     <use xlink:href="#m48412d0e73" x="97.892708" y="254.044201" style="fill: #808080; stroke: #808080"/>
     <use xlink:href="#m48412d0e73" x="102.790513" y="250.050592" style="fill: #808080; stroke: #808080"/>
     <use xlink:href="#m48412d0e73" x="107.688319" y="241.205489" style="fill: #808080; stroke: #808080"/>
     <use xlink:href="#m48412d0e73" x="112.586125" y="224.73999" style="fill: #808080; stroke: #808080"/>
     <use xlink:href="#m48412d0e73" x="117.48393" y="199.021152" style="fill: #808080; stroke: #808080"/>
     <use xlink:href="#m48412d0e73" x="122.381736" y="165.681918" style="fill: #808080; stroke: #808080"/>
     <use xlink:href="#m48412d0e73" x="127.279542" y="130.877224" style="fill: #808080; stroke: #808080"/>
     <use xlink:href="#m48412d0e73" x="132.177347" y="104.027888" style="fill: #808080; stroke: #808080"/>
     <use xlink:href="#m48412d0e73" x="137.075153" y="93.884805" style="fill: #808080; stroke: #808080"/>
     <use xlink:href="#m48412d0e73" x="141.972958" y="104.027888" style="fill: #808080; stroke: #808080"/>
     <use xlink:href="#m48412d0e73" x="146.870764" y="130.877224" style="fill: #808080; stroke: #808080"/>
     <use xlink:href="#m48412d0e73" x="151.76857" y="165.681918" style="fill: #808080; stroke: #808080"/>
     <use xlink:href="#m48412d0e73" x="156.666375" y="199.021152" style="fill: #808080; stroke: #808080"/>
     <use xlink:href="#m48412d0e73" x="161.564181" y="224.73999" style="fill: #808080; stroke: #808080"/>
     <use xlink:href="#m48412d0e73" x="166.461987" y="241.205489" style="fill: #808080; stroke: #808080"/>
     <use xlink:href="#m48412d0e73" x="171.359792" y="250.050592" style="fill: #808080; stroke: #808080"/>
     <use xlink:href="#m48412d0e73" x="176.257598" y="254.044201" style="fill: #808080; stroke: #808080"/>
     <use xlink:href="#m48412d0e73" x="181.155404" y="255.552897" style="fill: #808080; stroke: #808080"/>
     <use xlink:href="#m48412d0e73" x="186.053209" y="256.02503" style="fill: #808080; stroke: #808080"/>
     <use xlink:href="#m48412d0e73" x="190.951015" y="256.145453" style="fill: #808080; stroke: #808080"/>
     <use xlink:href="#m48412d0e73" x="195.848821" y="256.169877" style="fill: #808080; stroke: #808080"/>
     <use xlink:href="#m48412d0e73" x="200.746626" y="256.17367" style="fill: #808080; stroke: #808080"/>
     <use xlink:href="#m48412d0e73" x="205.644432" y="256.174094" style="fill: #808080; stroke: #808080"/>
    </g>
   </g>
   <g id="line2d_15">
    <path d="M 63.608068 256.174125 
L 68.505874 256.174125 
L 73.403679 256.174125 
L 78.301485 256.174125 
L 83.199291 256.174125 
L 88.097096 256.174123 
L 92.994902 256.174103 
L 97.892708 256.173948 
L 102.790513 256.172936 
L 107.688319 256.167341 
L 112.586125 256.140881 
L 117.48393 256.033092 
L 122.381736 255.653086 
L 127.279542 254.490769 
L 132.177347 251.404615 
L 137.075153 244.303346 
L 141.972958 230.206795 
L 146.870764 206.276119 
L 151.76857 172.086744 
L 156.666375 132.25588 
L 161.564181 97.14571 
L 166.461987 79.475886 
L 171.359792 87.507624 
L 176.257598 119.285371 
L 181.155404 163.013723 
L 186.053209 204.0043 
L 190.951015 232.764588 
L 195.848821 248.081939 
L 200.746626 254.151079 
L 205.644432 255.848577 
" clip-path="url(#p7ce3fa09e0)" style="fill: none; stroke-dasharray: 5.55,2.4; stroke-dashoffset: 0; stroke: #b2b2b2; stroke-width: 1.5"/>
    <defs>
     <path id="mc227662f65" d="M 0 1.5 
C 0.397805 1.5 0.77937 1.341951 1.06066 1.06066 
C 1.341951 0.77937 1.5 0.397805 1.5 0 
C 1.5 -0.397805 1.341951 -0.77937 1.06066 -1.06066 
C 0.77937 -1.341951 0.397805 -1.5 0 -1.5 
C -0.397805 -1.5 -0.77937 -1.341951 -1.06066 -1.06066 
C -1.341951 -0.77937 -1.5 -0.397805 -1.5 0 
C -1.5 0.397805 -1.341951 0.77937 -1.06066 1.06066 
C -0.77937 1.341951 -0.397805 1.5 0 1.5 
z
" style="stroke: #b2b2b2"/>
    </defs>
    <g clip-path="url(#p7ce3fa09e0)">
     <use xlink:href="#mc227662f65" x="63.608068" y="256.174125" style="fill: #b2b2b2; stroke: #b2b2b2"/>
     <use xlink:href="#mc227662f65" x="68.505874" y="256.174125" style="fill: #b2b2b2; stroke: #b2b2b2"/>
     <use xlink:href="#mc227662f65" x="73.403679" y="256.174125" style="fill: #b2b2b2; stroke: #b2b2b2"/>
     <use xlink:href="#mc227662f65" x="78.301485" y="256.174125" style="fill: #b2b2b2; stroke: #b2b2b2"/>
     <use xlink:href="#mc227662f65" x="83.199291" y="256.174125" style="fill: #b2b2b2; stroke: #b2b2b2"/>
     <use xlink:href="#mc227662f65" x="88.097096" y="256.174123" style="fill: #b2b2b2; stroke: #b2b2b2"/>
     <use xlink:href="#mc227662f65" x="92.994902" y="256.174103" style="fill: #b2b2b2; stroke: #b2b2b2"/>
     <use xlink:href="#mc227662f65" x="97.892708" y="256.173948" style="fill: #b2b2b2; stroke: #b2b2b2"/>
     <use xlink:href="#mc227662f65" x="102.790513" y="256.172936" style="fill: #b2b2b2; stroke: #b2b2b2"/>
     <use xlink:href="#mc227662f65" x="107.688319" y="256.167341" style="fill: #b2b2b2; stroke: #b2b2b2"/>
     <use xlink:href="#mc227662f65" x="112.586125" y="256.140881" style="fill: #b2b2b2; stroke: #b2b2b2"/>
     <use xlink:href="#mc227662f65" x="117.48393" y="256.033092" style="fill: #b2b2b2; stroke: #b2b2b2"/>
     <use xlink:href="#mc227662f65" x="122.381736" y="255.653086" style="fill: #b2b2b2; stroke: #b2b2b2"/>
     <use xlink:href="#mc227662f65" x="127.279542" y="254.490769" style="fill: #b2b2b2; stroke: #b2b2b2"/>
     <use xlink:href="#mc227662f65" x="132.177347" y="251.404615" style="fill: #b2b2b2; stroke: #b2b2b2"/>
     <use xlink:href="#mc227662f65" x="137.075153" y="244.303346" style="fill: #b2b2b2; stroke: #b2b2b2"/>
     <use xlink:href="#mc227662f65" x="141.972958" y="230.206795" style="fill: #b2b2b2; stroke: #b2b2b2"/>
     <use xlink:href="#mc227662f65" x="146.870764" y="206.276119" style="fill: #b2b2b2; stroke: #b2b2b2"/>
     <use xlink:href="#mc227662f65" x="151.76857" y="172.086744" style="fill: #b2b2b2; stroke: #b2b2b2"/>
     <use xlink:href="#mc227662f65" x="156.666375" y="132.25588" style="fill: #b2b2b2; stroke: #b2b2b2"/>
     <use xlink:href="#mc227662f65" x="161.564181" y="97.14571" style="fill: #b2b2b2; stroke: #b2b2b2"/>
     <use xlink:href="#mc227662f65" x="166.461987" y="79.475886" style="fill: #b2b2b2; stroke: #b2b2b2"/>
     <use xlink:href="#mc227662f65" x="171.359792" y="87.507624" style="fill: #b2b2b2; stroke: #b2b2b2"/>
     <use xlink:href="#mc227662f65" x="176.257598" y="119.285371" style="fill: #b2b2b2; stroke: #b2b2b2"/>
     <use xlink:href="#mc227662f65" x="181.155404" y="163.013723" style="fill: #b2b2b2; stroke: #b2b2b2"/>
     <use xlink:href="#mc227662f65" x="186.053209" y="204.0043" style="fill: #b2b2b2; stroke: #b2b2b2"/>
     <use xlink:href="#mc227662f65" x="190.951015" y="232.764588" style="fill: #b2b2b2; stroke: #b2b2b2"/>
     <use xlink:href="#mc227662f65" x="195.848821" y="248.081939" style="fill: #b2b2b2; stroke: #b2b2b2"/>
     <use xlink:href="#mc227662f65" x="200.746626" y="254.151079" style="fill: #b2b2b2; stroke: #b2b2b2"/>
     <use xlink:href="#mc227662f65" x="205.644432" y="255.848577" style="fill: #b2b2b2; stroke: #b2b2b2"/>
    </g>
   </g>
   <g id="patch_3">
    <path d="M 56.50625 266.254125 
L 56.50625 44.494125 
" style="fill: none; stroke: #000000; stroke-width: 0.8; stroke-linejoin: miter; stroke-linecap: square"/>
   </g>
   <g id="patch_4">
    <path d="M 212.74625 266.254125 
L 212.74625 44.494125 
" style="fill: none; stroke: #000000; stroke-width: 0.8; stroke-linejoin: miter; stroke-linecap: square"/>
   </g>
   <g id="patch_5">
    <path d="M 56.50625 266.254125 
L 212.74625 266.254125 
" style="fill: none; stroke: #000000; stroke-width: 0.8; stroke-linejoin: miter; stroke-linecap: square"/>
   </g>
   <g id="patch_6">
    <path d="M 56.50625 44.494125 
L 212.74625 44.494125 
" style="fill: none; stroke: #000000; stroke-width: 0.8; stroke-linejoin: miter; stroke-linecap: square"/>
   </g>
   <g id="text_15">
    <!-- PMF of Binomial Distribution, $n=30$ -->
    <g transform="translate(27.10625 16.318125) scale(0.12 -0.12)">
     <defs>
      <path id="DejaVuSans-4d" d="M 628 4666 
L 1569 4666 
L 2759 1491 
L 3956 4666 
L 4897 4666 
L 4897 0 
L 4281 0 
L 4281 4097 
L 3078 897 
L 2444 897 
L 1241 4097 
L 1241 0 
L 628 0 
L 628 4666 
z
" transform="scale(0.015625)"/>
      <path id="DejaVuSans-46" d="M 628 4666 
L 3309 4666 
L 3309 4134 
L 1259 4134 
L 1259 2759 
L 3109 2759 
L 3109 2228 
L 1259 2228 
L 1259 0 
L 628 0 
L 628 4666 
z
" transform="scale(0.015625)"/>
      <path id="DejaVuSans-42" d="M 1259 2228 
L 1259 519 
L 2272 519 
Q 2781 519 3026 730 
Q 3272 941 3272 1375 
Q 3272 1813 3026 2020 
Q 2781 2228 2272 2228 
L 1259 2228 
z
M 1259 4147 
L 1259 2741 
L 2194 2741 
Q 2656 2741 2882 2914 
Q 3109 3088 3109 3444 
Q 3109 3797 2882 3972 
Q 2656 4147 2194 4147 
L 1259 4147 
z
M 628 4666 
L 2241 4666 
Q 2963 4666 3353 4366 
Q 3744 4066 3744 3513 
Q 3744 3084 3544 2831 
Q 3344 2578 2956 2516 
Q 3422 2416 3680 2098 
Q 3938 1781 3938 1306 
Q 3938 681 3513 340 
Q 3088 0 2303 0 
L 628 0 
L 628 4666 
z
" transform="scale(0.015625)"/>
      <path id="DejaVuSans-69" d="M 603 3500 
L 1178 3500 
L 1178 0 
L 603 0 
L 603 3500 
z
M 603 4863 
L 1178 4863 
L 1178 4134 
L 603 4134 
L 603 4863 
z
" transform="scale(0.015625)"/>
      <path id="DejaVuSans-6e" d="M 3513 2113 
L 3513 0 
L 2938 0 
L 2938 2094 
Q 2938 2591 2744 2837 
Q 2550 3084 2163 3084 
Q 1697 3084 1428 2787 
Q 1159 2491 1159 1978 
L 1159 0 
L 581 0 
L 581 3500 
L 1159 3500 
L 1159 2956 
Q 1366 3272 1645 3428 
Q 1925 3584 2291 3584 
Q 2894 3584 3203 3211 
Q 3513 2838 3513 2113 
z
" transform="scale(0.015625)"/>
      <path id="DejaVuSans-6d" d="M 3328 2828 
Q 3544 3216 3844 3400 
Q 4144 3584 4550 3584 
Q 5097 3584 5394 3201 
Q 5691 2819 5691 2113 
L 5691 0 
L 5113 0 
L 5113 2094 
Q 5113 2597 4934 2840 
Q 4756 3084 4391 3084 
Q 3944 3084 3684 2787 
Q 3425 2491 3425 1978 
L 3425 0 
L 2847 0 
L 2847 2094 
Q 2847 2600 2669 2842 
Q 2491 3084 2119 3084 
Q 1678 3084 1418 2786 
Q 1159 2488 1159 1978 
L 1159 0 
L 581 0 
L 581 3500 
L 1159 3500 
L 1159 2956 
Q 1356 3278 1631 3431 
Q 1906 3584 2284 3584 
Q 2666 3584 2933 3390 
Q 3200 3197 3328 2828 
z
" transform="scale(0.015625)"/>
      <path id="DejaVuSans-61" d="M 2194 1759 
Q 1497 1759 1228 1600 
Q 959 1441 959 1056 
Q 959 750 1161 570 
Q 1363 391 1709 391 
Q 2188 391 2477 730 
Q 2766 1069 2766 1631 
L 2766 1759 
L 2194 1759 
z
M 3341 1997 
L 3341 0 
L 2766 0 
L 2766 531 
Q 2569 213 2275 61 
Q 1981 -91 1556 -91 
Q 1019 -91 701 211 
Q 384 513 384 1019 
Q 384 1609 779 1909 
Q 1175 2209 1959 2209 
L 2766 2209 
L 2766 2266 
Q 2766 2663 2505 2880 
Q 2244 3097 1772 3097 
Q 1472 3097 1187 3025 
Q 903 2953 641 2809 
L 641 3341 
Q 956 3463 1253 3523 
Q 1550 3584 1831 3584 
Q 2591 3584 2966 3190 
Q 3341 2797 3341 1997 
z
" transform="scale(0.015625)"/>
      <path id="DejaVuSans-6c" d="M 603 4863 
L 1178 4863 
L 1178 0 
L 603 0 
L 603 4863 
z
" transform="scale(0.015625)"/>
      <path id="DejaVuSans-44" d="M 1259 4147 
L 1259 519 
L 2022 519 
Q 2988 519 3436 956 
Q 3884 1394 3884 2338 
Q 3884 3275 3436 3711 
Q 2988 4147 2022 4147 
L 1259 4147 
z
M 628 4666 
L 1925 4666 
Q 3281 4666 3915 4102 
Q 4550 3538 4550 2338 
Q 4550 1131 3912 565 
Q 3275 0 1925 0 
L 628 0 
L 628 4666 
z
" transform="scale(0.015625)"/>
      <path id="DejaVuSans-74" d="M 1172 4494 
L 1172 3500 
L 2356 3500 
L 2356 3053 
L 1172 3053 
L 1172 1153 
Q 1172 725 1289 603 
Q 1406 481 1766 481 
L 2356 481 
L 2356 0 
L 1766 0 
Q 1100 0 847 248 
Q 594 497 594 1153 
L 594 3053 
L 172 3053 
L 172 3500 
L 594 3500 
L 594 4494 
L 1172 4494 
z
" transform="scale(0.015625)"/>
      <path id="DejaVuSans-2c" d="M 750 794 
L 1409 794 
L 1409 256 
L 897 -744 
L 494 -744 
L 750 256 
L 750 794 
z
" transform="scale(0.015625)"/>
      <path id="DejaVuSans-Oblique-6e" d="M 3566 2113 
L 3156 0 
L 2578 0 
L 2988 2091 
Q 3016 2238 3031 2350 
Q 3047 2463 3047 2528 
Q 3047 2791 2881 2937 
Q 2716 3084 2419 3084 
Q 1956 3084 1622 2776 
Q 1288 2469 1184 1941 
L 800 0 
L 225 0 
L 903 3500 
L 1478 3500 
L 1363 2950 
Q 1603 3253 1940 3418 
Q 2278 3584 2650 3584 
Q 3113 3584 3367 3334 
Q 3622 3084 3622 2631 
Q 3622 2519 3608 2391 
Q 3594 2263 3566 2113 
z
" transform="scale(0.015625)"/>
      <path id="DejaVuSans-3d" d="M 678 2906 
L 4684 2906 
L 4684 2381 
L 678 2381 
L 678 2906 
z
M 678 1631 
L 4684 1631 
L 4684 1100 
L 678 1100 
L 678 1631 
z
" transform="scale(0.015625)"/>
     </defs>
     <use xlink:href="#DejaVuSans-50" transform="translate(0 0.015625)"/>
     <use xlink:href="#DejaVuSans-4d" transform="translate(60.302734 0.015625)"/>
     <use xlink:href="#DejaVuSans-46" transform="translate(146.582031 0.015625)"/>
     <use xlink:href="#DejaVuSans-20" transform="translate(204.101562 0.015625)"/>
     <use xlink:href="#DejaVuSans-6f" transform="translate(235.888672 0.015625)"/>
     <use xlink:href="#DejaVuSans-66" transform="translate(297.070312 0.015625)"/>
     <use xlink:href="#DejaVuSans-20" transform="translate(332.275391 0.015625)"/>
     <use xlink:href="#DejaVuSans-42" transform="translate(364.0625 0.015625)"/>
     <use xlink:href="#DejaVuSans-69" transform="translate(432.666016 0.015625)"/>
     <use xlink:href="#DejaVuSans-6e" transform="translate(460.449219 0.015625)"/>
     <use xlink:href="#DejaVuSans-6f" transform="translate(523.828125 0.015625)"/>
     <use xlink:href="#DejaVuSans-6d" transform="translate(585.009766 0.015625)"/>
     <use xlink:href="#DejaVuSans-69" transform="translate(682.421875 0.015625)"/>
     <use xlink:href="#DejaVuSans-61" transform="translate(710.205078 0.015625)"/>
     <use xlink:href="#DejaVuSans-6c" transform="translate(771.484375 0.015625)"/>
     <use xlink:href="#DejaVuSans-20" transform="translate(799.267578 0.015625)"/>
     <use xlink:href="#DejaVuSans-44" transform="translate(831.054688 0.015625)"/>
     <use xlink:href="#DejaVuSans-69" transform="translate(908.056641 0.015625)"/>
     <use xlink:href="#DejaVuSans-73" transform="translate(935.839844 0.015625)"/>
     <use xlink:href="#DejaVuSans-74" transform="translate(987.939453 0.015625)"/>
     <use xlink:href="#DejaVuSans-72" transform="translate(1027.148438 0.015625)"/>
     <use xlink:href="#DejaVuSans-69" transform="translate(1068.261719 0.015625)"/>
     <use xlink:href="#DejaVuSans-62" transform="translate(1096.044922 0.015625)"/>
     <use xlink:href="#DejaVuSans-75" transform="translate(1159.521484 0.015625)"/>
     <use xlink:href="#DejaVuSans-74" transform="translate(1222.900391 0.015625)"/>
     <use xlink:href="#DejaVuSans-69" transform="translate(1262.109375 0.015625)"/>
     <use xlink:href="#DejaVuSans-6f" transform="translate(1289.892578 0.015625)"/>
     <use xlink:href="#DejaVuSans-6e" transform="translate(1351.074219 0.015625)"/>
     <use xlink:href="#DejaVuSans-2c" transform="translate(1414.453125 0.015625)"/>
     <use xlink:href="#DejaVuSans-20" transform="translate(1446.240234 0.015625)"/>
     <use xlink:href="#DejaVuSans-Oblique-6e" transform="translate(1478.027344 0.015625)"/>
     <use xlink:href="#DejaVuSans-3d" transform="translate(1560.888672 0.015625)"/>
     <use xlink:href="#DejaVuSans-33" transform="translate(1664.160156 0.015625)"/>
     <use xlink:href="#DejaVuSans-30" transform="translate(1727.783203 0.015625)"/>
    </g>
   </g>
   <g id="legend_1">
    <g id="patch_7">
     <path d="M 143.115 96.5285 
L 205.74625 96.5285 
Q 207.74625 96.5285 207.74625 94.5285 
L 207.74625 51.494125 
Q 207.74625 49.494125 205.74625 49.494125 
L 143.115 49.494125 
Q 141.115 49.494125 141.115 51.494125 
L 141.115 94.5285 
Q 141.115 96.5285 143.115 96.5285 
z
" style="fill: #ffffff; opacity: 0.8; stroke: #cccccc; stroke-linejoin: miter"/>
    </g>
    <g id="line2d_16">
     <path d="M 145.115 57.592563 
L 155.115 57.592563 
L 165.115 57.592563 
" style="fill: none; stroke-dasharray: 5.55,2.4; stroke-dashoffset: 0; stroke: #4c4c4c; stroke-width: 1.5"/>
     <g>
      <use xlink:href="#m0e561e6b19" x="155.115" y="57.592563" style="fill: #4c4c4c; stroke: #4c4c4c"/>
     </g>
    </g>
    <g id="text_16">
     <!-- p=0.2 -->
     <g transform="translate(173.115 61.092563) scale(0.1 -0.1)">
      <defs>
       <path id="DejaVuSans-70" d="M 1159 525 
L 1159 -1331 
L 581 -1331 
L 581 3500 
L 1159 3500 
L 1159 2969 
Q 1341 3281 1617 3432 
Q 1894 3584 2278 3584 
Q 2916 3584 3314 3078 
Q 3713 2572 3713 1747 
Q 3713 922 3314 415 
Q 2916 -91 2278 -91 
Q 1894 -91 1617 61 
Q 1341 213 1159 525 
z
M 3116 1747 
Q 3116 2381 2855 2742 
Q 2594 3103 2138 3103 
Q 1681 3103 1420 2742 
Q 1159 2381 1159 1747 
Q 1159 1113 1420 752 
Q 1681 391 2138 391 
Q 2594 391 2855 752 
Q 3116 1113 3116 1747 
z
" transform="scale(0.015625)"/>
      </defs>
      <use xlink:href="#DejaVuSans-70"/>
      <use xlink:href="#DejaVuSans-3d" transform="translate(63.476562 0)"/>
      <use xlink:href="#DejaVuSans-30" transform="translate(147.265625 0)"/>
      <use xlink:href="#DejaVuSans-2e" transform="translate(210.888672 0)"/>
      <use xlink:href="#DejaVuSans-32" transform="translate(242.675781 0)"/>
     </g>
    </g>
    <g id="line2d_17">
     <path d="M 145.115 72.270688 
L 155.115 72.270688 
L 165.115 72.270688 
" style="fill: none; stroke-dasharray: 5.55,2.4; stroke-dashoffset: 0; stroke: #808080; stroke-width: 1.5"/>
     <g>
      <use xlink:href="#m48412d0e73" x="155.115" y="72.270688" style="fill: #808080; stroke: #808080"/>
     </g>
    </g>
    <g id="text_17">
     <!-- p=0.5 -->
     <g transform="translate(173.115 75.770688) scale(0.1 -0.1)">
      <use xlink:href="#DejaVuSans-70"/>
      <use xlink:href="#DejaVuSans-3d" transform="translate(63.476562 0)"/>
      <use xlink:href="#DejaVuSans-30" transform="translate(147.265625 0)"/>
      <use xlink:href="#DejaVuSans-2e" transform="translate(210.888672 0)"/>
      <use xlink:href="#DejaVuSans-35" transform="translate(242.675781 0)"/>
     </g>
    </g>
    <g id="line2d_18">
     <path d="M 145.115 86.948813 
L 155.115 86.948813 
L 165.115 86.948813 
" style="fill: none; stroke-dasharray: 5.55,2.4; stroke-dashoffset: 0; stroke: #b2b2b2; stroke-width: 1.5"/>
     <g>
      <use xlink:href="#mc227662f65" x="155.115" y="86.948813" style="fill: #b2b2b2; stroke: #b2b2b2"/>
     </g>
    </g>
    <g id="text_18">
     <!-- p=0.7 -->
     <g transform="translate(173.115 90.448813) scale(0.1 -0.1)">
      <use xlink:href="#DejaVuSans-70"/>
      <use xlink:href="#DejaVuSans-3d" transform="translate(63.476562 0)"/>
      <use xlink:href="#DejaVuSans-30" transform="translate(147.265625 0)"/>
      <use xlink:href="#DejaVuSans-2e" transform="translate(210.888672 0)"/>
      <use xlink:href="#DejaVuSans-37" transform="translate(242.675781 0)"/>
     </g>
    </g>
   </g>
  </g>
  <g id="axes_2">
   <g id="patch_8">
    <path d="M 290.86625 266.254125 
L 447.10625 266.254125 
L 447.10625 44.494125 
L 290.86625 44.494125 
z
" style="fill: #ffffff"/>
   </g>
   <g id="matplotlib.axis_3">
    <g id="xtick_5">
     <g id="line2d_19">
      <g>
       <use xlink:href="#mfd686241cc" x="297.968068" y="266.254125" style="stroke: #000000; stroke-width: 0.8"/>
      </g>
     </g>
     <g id="text_19">
      <!-- 0 -->
      <g transform="translate(294.786818 280.852563) scale(0.1 -0.1)">
       <use xlink:href="#DejaVuSans-30"/>
      </g>
     </g>
    </g>
    <g id="xtick_6">
     <g id="line2d_20">
      <g>
       <use xlink:href="#mfd686241cc" x="346.946125" y="266.254125" style="stroke: #000000; stroke-width: 0.8"/>
      </g>
     </g>
     <g id="text_20">
      <!-- 10 -->
      <g transform="translate(340.583625 280.852563) scale(0.1 -0.1)">
       <use xlink:href="#DejaVuSans-31"/>
       <use xlink:href="#DejaVuSans-30" transform="translate(63.623047 0)"/>
      </g>
     </g>
    </g>
    <g id="xtick_7">
     <g id="line2d_21">
      <g>
       <use xlink:href="#mfd686241cc" x="395.924181" y="266.254125" style="stroke: #000000; stroke-width: 0.8"/>
      </g>
     </g>
     <g id="text_21">
      <!-- 20 -->
      <g transform="translate(389.561681 280.852563) scale(0.1 -0.1)">
       <use xlink:href="#DejaVuSans-32"/>
       <use xlink:href="#DejaVuSans-30" transform="translate(63.623047 0)"/>
      </g>
     </g>
    </g>
    <g id="xtick_8">
     <g id="line2d_22">
      <g>
       <use xlink:href="#mfd686241cc" x="444.902237" y="266.254125" style="stroke: #000000; stroke-width: 0.8"/>
      </g>
     </g>
     <g id="text_22">
      <!-- 30 -->
      <g transform="translate(438.539737 280.852563) scale(0.1 -0.1)">
       <use xlink:href="#DejaVuSans-33"/>
       <use xlink:href="#DejaVuSans-30" transform="translate(63.623047 0)"/>
      </g>
     </g>
    </g>
    <g id="text_23">
     <!-- k successes -->
     <g transform="translate(339.262812 294.530687) scale(0.1 -0.1)">
      <use xlink:href="#DejaVuSans-6b"/>
      <use xlink:href="#DejaVuSans-20" transform="translate(57.910156 0)"/>
      <use xlink:href="#DejaVuSans-73" transform="translate(89.697266 0)"/>
      <use xlink:href="#DejaVuSans-75" transform="translate(141.796875 0)"/>
      <use xlink:href="#DejaVuSans-63" transform="translate(205.175781 0)"/>
      <use xlink:href="#DejaVuSans-63" transform="translate(260.15625 0)"/>
      <use xlink:href="#DejaVuSans-65" transform="translate(315.136719 0)"/>
      <use xlink:href="#DejaVuSans-73" transform="translate(376.660156 0)"/>
      <use xlink:href="#DejaVuSans-73" transform="translate(428.759766 0)"/>
      <use xlink:href="#DejaVuSans-65" transform="translate(480.859375 0)"/>
      <use xlink:href="#DejaVuSans-73" transform="translate(542.382812 0)"/>
     </g>
    </g>
   </g>
   <g id="matplotlib.axis_4">
    <g id="ytick_9">
     <g id="line2d_23">
      <g>
       <use xlink:href="#m1e82b9b7b1" x="290.86625" y="256.174125" style="stroke: #000000; stroke-width: 0.8"/>
      </g>
     </g>
     <g id="text_24">
      <!-- 0.0 -->
      <g transform="translate(267.963125 259.973344) scale(0.1 -0.1)">
       <use xlink:href="#DejaVuSans-30"/>
       <use xlink:href="#DejaVuSans-2e" transform="translate(63.623047 0)"/>
       <use xlink:href="#DejaVuSans-30" transform="translate(95.410156 0)"/>
      </g>
     </g>
    </g>
    <g id="ytick_10">
     <g id="line2d_24">
      <g>
       <use xlink:href="#m1e82b9b7b1" x="290.86625" y="215.854125" style="stroke: #000000; stroke-width: 0.8"/>
      </g>
     </g>
     <g id="text_25">
      <!-- 0.2 -->
      <g transform="translate(267.963125 219.653344) scale(0.1 -0.1)">
       <use xlink:href="#DejaVuSans-30"/>
       <use xlink:href="#DejaVuSans-2e" transform="translate(63.623047 0)"/>
       <use xlink:href="#DejaVuSans-32" transform="translate(95.410156 0)"/>
      </g>
     </g>
    </g>
    <g id="ytick_11">
     <g id="line2d_25">
      <g>
       <use xlink:href="#m1e82b9b7b1" x="290.86625" y="175.534125" style="stroke: #000000; stroke-width: 0.8"/>
      </g>
     </g>
     <g id="text_26">
      <!-- 0.4 -->
      <g transform="translate(267.963125 179.333344) scale(0.1 -0.1)">
       <defs>
        <path id="DejaVuSans-34" d="M 2419 4116 
L 825 1625 
L 2419 1625 
L 2419 4116 
z
M 2253 4666 
L 3047 4666 
L 3047 1625 
L 3713 1625 
L 3713 1100 
L 3047 1100 
L 3047 0 
L 2419 0 
L 2419 1100 
L 313 1100 
L 313 1709 
L 2253 4666 
z
" transform="scale(0.015625)"/>
       </defs>
       <use xlink:href="#DejaVuSans-30"/>
       <use xlink:href="#DejaVuSans-2e" transform="translate(63.623047 0)"/>
       <use xlink:href="#DejaVuSans-34" transform="translate(95.410156 0)"/>
      </g>
     </g>
    </g>
    <g id="ytick_12">
     <g id="line2d_26">
      <g>
       <use xlink:href="#m1e82b9b7b1" x="290.86625" y="135.214125" style="stroke: #000000; stroke-width: 0.8"/>
      </g>
     </g>
     <g id="text_27">
      <!-- 0.6 -->
      <g transform="translate(267.963125 139.013344) scale(0.1 -0.1)">
       <defs>
        <path id="DejaVuSans-36" d="M 2113 2584 
Q 1688 2584 1439 2293 
Q 1191 2003 1191 1497 
Q 1191 994 1439 701 
Q 1688 409 2113 409 
Q 2538 409 2786 701 
Q 3034 994 3034 1497 
Q 3034 2003 2786 2293 
Q 2538 2584 2113 2584 
z
M 3366 4563 
L 3366 3988 
Q 3128 4100 2886 4159 
Q 2644 4219 2406 4219 
Q 1781 4219 1451 3797 
Q 1122 3375 1075 2522 
Q 1259 2794 1537 2939 
Q 1816 3084 2150 3084 
Q 2853 3084 3261 2657 
Q 3669 2231 3669 1497 
Q 3669 778 3244 343 
Q 2819 -91 2113 -91 
Q 1303 -91 875 529 
Q 447 1150 447 2328 
Q 447 3434 972 4092 
Q 1497 4750 2381 4750 
Q 2619 4750 2861 4703 
Q 3103 4656 3366 4563 
z
" transform="scale(0.015625)"/>
       </defs>
       <use xlink:href="#DejaVuSans-30"/>
       <use xlink:href="#DejaVuSans-2e" transform="translate(63.623047 0)"/>
       <use xlink:href="#DejaVuSans-36" transform="translate(95.410156 0)"/>
      </g>
     </g>
    </g>
    <g id="ytick_13">
     <g id="line2d_27">
      <g>
       <use xlink:href="#m1e82b9b7b1" x="290.86625" y="94.894125" style="stroke: #000000; stroke-width: 0.8"/>
      </g>
     </g>
     <g id="text_28">
      <!-- 0.8 -->
      <g transform="translate(267.963125 98.693344) scale(0.1 -0.1)">
       <defs>
        <path id="DejaVuSans-38" d="M 2034 2216 
Q 1584 2216 1326 1975 
Q 1069 1734 1069 1313 
Q 1069 891 1326 650 
Q 1584 409 2034 409 
Q 2484 409 2743 651 
Q 3003 894 3003 1313 
Q 3003 1734 2745 1975 
Q 2488 2216 2034 2216 
z
M 1403 2484 
Q 997 2584 770 2862 
Q 544 3141 544 3541 
Q 544 4100 942 4425 
Q 1341 4750 2034 4750 
Q 2731 4750 3128 4425 
Q 3525 4100 3525 3541 
Q 3525 3141 3298 2862 
Q 3072 2584 2669 2484 
Q 3125 2378 3379 2068 
Q 3634 1759 3634 1313 
Q 3634 634 3220 271 
Q 2806 -91 2034 -91 
Q 1263 -91 848 271 
Q 434 634 434 1313 
Q 434 1759 690 2068 
Q 947 2378 1403 2484 
z
M 1172 3481 
Q 1172 3119 1398 2916 
Q 1625 2713 2034 2713 
Q 2441 2713 2670 2916 
Q 2900 3119 2900 3481 
Q 2900 3844 2670 4047 
Q 2441 4250 2034 4250 
Q 1625 4250 1398 4047 
Q 1172 3844 1172 3481 
z
" transform="scale(0.015625)"/>
       </defs>
       <use xlink:href="#DejaVuSans-30"/>
       <use xlink:href="#DejaVuSans-2e" transform="translate(63.623047 0)"/>
       <use xlink:href="#DejaVuSans-38" transform="translate(95.410156 0)"/>
      </g>
     </g>
    </g>
    <g id="ytick_14">
     <g id="line2d_28">
      <g>
       <use xlink:href="#m1e82b9b7b1" x="290.86625" y="54.574125" style="stroke: #000000; stroke-width: 0.8"/>
      </g>
     </g>
     <g id="text_29">
      <!-- 1.0 -->
      <g transform="translate(267.963125 58.373344) scale(0.1 -0.1)">
       <use xlink:href="#DejaVuSans-31"/>
       <use xlink:href="#DejaVuSans-2e" transform="translate(63.623047 0)"/>
       <use xlink:href="#DejaVuSans-30" transform="translate(95.410156 0)"/>
      </g>
     </g>
    </g>
    <g id="text_30">
     <!-- Prob. for k successes -->
     <g transform="translate(261.883438 207.843656) rotate(-90) scale(0.1 -0.1)">
      <use xlink:href="#DejaVuSans-50"/>
      <use xlink:href="#DejaVuSans-72" transform="translate(58.552734 0)"/>
      <use xlink:href="#DejaVuSans-6f" transform="translate(97.416016 0)"/>
      <use xlink:href="#DejaVuSans-62" transform="translate(158.597656 0)"/>
      <use xlink:href="#DejaVuSans-2e" transform="translate(222.074219 0)"/>
      <use xlink:href="#DejaVuSans-20" transform="translate(253.861328 0)"/>
      <use xlink:href="#DejaVuSans-66" transform="translate(285.648438 0)"/>
      <use xlink:href="#DejaVuSans-6f" transform="translate(320.853516 0)"/>
      <use xlink:href="#DejaVuSans-72" transform="translate(382.035156 0)"/>
      <use xlink:href="#DejaVuSans-20" transform="translate(423.148438 0)"/>
      <use xlink:href="#DejaVuSans-6b" transform="translate(454.935547 0)"/>
      <use xlink:href="#DejaVuSans-20" transform="translate(512.845703 0)"/>
      <use xlink:href="#DejaVuSans-73" transform="translate(544.632812 0)"/>
      <use xlink:href="#DejaVuSans-75" transform="translate(596.732422 0)"/>
      <use xlink:href="#DejaVuSans-63" transform="translate(660.111328 0)"/>
      <use xlink:href="#DejaVuSans-63" transform="translate(715.091797 0)"/>
      <use xlink:href="#DejaVuSans-65" transform="translate(770.072266 0)"/>
      <use xlink:href="#DejaVuSans-73" transform="translate(831.595703 0)"/>
      <use xlink:href="#DejaVuSans-73" transform="translate(883.695312 0)"/>
      <use xlink:href="#DejaVuSans-65" transform="translate(935.794922 0)"/>
      <use xlink:href="#DejaVuSans-73" transform="translate(997.318359 0)"/>
     </g>
    </g>
   </g>
   <g id="line2d_29">
    <path d="M 297.968068 256.174125 
L 302.865874 255.924556 
L 307.763679 254.052791 
L 312.661485 247.267642 
L 317.559291 231.435626 
L 322.457096 204.719101 
L 327.354902 169.987618 
L 332.252708 133.808989 
L 337.150513 102.798736 
L 342.048319 80.510117 
L 346.946125 66.889294 
L 351.84393 59.738362 
L 356.741736 56.487938 
L 361.639542 55.201312 
L 366.537347 54.755942 
L 371.435153 54.62074 
L 376.332958 54.584686 
L 381.230764 54.576236 
L 386.12857 54.574496 
L 391.026375 54.574182 
L 395.924181 54.574133 
L 400.821987 54.574126 
L 405.719792 54.574125 
L 410.617598 54.574125 
L 415.515404 54.574125 
L 420.413209 54.574125 
L 425.311015 54.574125 
L 430.208821 54.574125 
L 435.106626 54.574125 
L 440.004432 54.574125 
" clip-path="url(#pebfe755e15)" style="fill: none; stroke-dasharray: 5.55,2.4; stroke-dashoffset: 0; stroke: #4c4c4c; stroke-width: 1.5"/>
    <g clip-path="url(#pebfe755e15)">
     <use xlink:href="#m0e561e6b19" x="297.968068" y="256.174125" style="fill: #4c4c4c; stroke: #4c4c4c"/>
     <use xlink:href="#m0e561e6b19" x="302.865874" y="255.924556" style="fill: #4c4c4c; stroke: #4c4c4c"/>
     <use xlink:href="#m0e561e6b19" x="307.763679" y="254.052791" style="fill: #4c4c4c; stroke: #4c4c4c"/>
     <use xlink:href="#m0e561e6b19" x="312.661485" y="247.267642" style="fill: #4c4c4c; stroke: #4c4c4c"/>
     <use xlink:href="#m0e561e6b19" x="317.559291" y="231.435626" style="fill: #4c4c4c; stroke: #4c4c4c"/>
     <use xlink:href="#m0e561e6b19" x="322.457096" y="204.719101" style="fill: #4c4c4c; stroke: #4c4c4c"/>
     <use xlink:href="#m0e561e6b19" x="327.354902" y="169.987618" style="fill: #4c4c4c; stroke: #4c4c4c"/>
     <use xlink:href="#m0e561e6b19" x="332.252708" y="133.808989" style="fill: #4c4c4c; stroke: #4c4c4c"/>
     <use xlink:href="#m0e561e6b19" x="337.150513" y="102.798736" style="fill: #4c4c4c; stroke: #4c4c4c"/>
     <use xlink:href="#m0e561e6b19" x="342.048319" y="80.510117" style="fill: #4c4c4c; stroke: #4c4c4c"/>
     <use xlink:href="#m0e561e6b19" x="346.946125" y="66.889294" style="fill: #4c4c4c; stroke: #4c4c4c"/>
     <use xlink:href="#m0e561e6b19" x="351.84393" y="59.738362" style="fill: #4c4c4c; stroke: #4c4c4c"/>
     <use xlink:href="#m0e561e6b19" x="356.741736" y="56.487938" style="fill: #4c4c4c; stroke: #4c4c4c"/>
     <use xlink:href="#m0e561e6b19" x="361.639542" y="55.201312" style="fill: #4c4c4c; stroke: #4c4c4c"/>
     <use xlink:href="#m0e561e6b19" x="366.537347" y="54.755942" style="fill: #4c4c4c; stroke: #4c4c4c"/>
     <use xlink:href="#m0e561e6b19" x="371.435153" y="54.62074" style="fill: #4c4c4c; stroke: #4c4c4c"/>
     <use xlink:href="#m0e561e6b19" x="376.332958" y="54.584686" style="fill: #4c4c4c; stroke: #4c4c4c"/>
     <use xlink:href="#m0e561e6b19" x="381.230764" y="54.576236" style="fill: #4c4c4c; stroke: #4c4c4c"/>
     <use xlink:href="#m0e561e6b19" x="386.12857" y="54.574496" style="fill: #4c4c4c; stroke: #4c4c4c"/>
     <use xlink:href="#m0e561e6b19" x="391.026375" y="54.574182" style="fill: #4c4c4c; stroke: #4c4c4c"/>
     <use xlink:href="#m0e561e6b19" x="395.924181" y="54.574133" style="fill: #4c4c4c; stroke: #4c4c4c"/>
     <use xlink:href="#m0e561e6b19" x="400.821987" y="54.574126" style="fill: #4c4c4c; stroke: #4c4c4c"/>
     <use xlink:href="#m0e561e6b19" x="405.719792" y="54.574125" style="fill: #4c4c4c; stroke: #4c4c4c"/>
     <use xlink:href="#m0e561e6b19" x="410.617598" y="54.574125" style="fill: #4c4c4c; stroke: #4c4c4c"/>
     <use xlink:href="#m0e561e6b19" x="415.515404" y="54.574125" style="fill: #4c4c4c; stroke: #4c4c4c"/>
     <use xlink:href="#m0e561e6b19" x="420.413209" y="54.574125" style="fill: #4c4c4c; stroke: #4c4c4c"/>
     <use xlink:href="#m0e561e6b19" x="425.311015" y="54.574125" style="fill: #4c4c4c; stroke: #4c4c4c"/>
     <use xlink:href="#m0e561e6b19" x="430.208821" y="54.574125" style="fill: #4c4c4c; stroke: #4c4c4c"/>
     <use xlink:href="#m0e561e6b19" x="435.106626" y="54.574125" style="fill: #4c4c4c; stroke: #4c4c4c"/>
     <use xlink:href="#m0e561e6b19" x="440.004432" y="54.574125" style="fill: #4c4c4c; stroke: #4c4c4c"/>
    </g>
   </g>
   <g id="line2d_30">
    <path d="M 297.968068 256.174125 
L 302.865874 256.174125 
L 307.763679 256.174119 
L 312.661485 256.174038 
L 317.559291 256.173275 
L 322.457096 256.16813 
L 327.354902 256.141374 
L 332.252708 256.02989 
L 337.150513 255.647659 
L 342.048319 254.548745 
L 346.946125 251.862511 
L 351.84393 246.221421 
L 356.741736 235.964892 
L 361.639542 219.725389 
L 366.537347 197.239922 
L 371.435153 169.936141 
L 376.332958 140.812109 
L 381.230764 113.508328 
L 386.12857 91.022861 
L 391.026375 74.783358 
L 395.924181 64.526829 
L 400.821987 58.885739 
L 405.719792 56.199505 
L 410.617598 55.100591 
L 415.515404 54.71836 
L 420.413209 54.606876 
L 425.311015 54.58012 
L 430.208821 54.574975 
L 435.106626 54.574212 
L 440.004432 54.574131 
" clip-path="url(#pebfe755e15)" style="fill: none; stroke-dasharray: 5.55,2.4; stroke-dashoffset: 0; stroke: #808080; stroke-width: 1.5"/>
    <g clip-path="url(#pebfe755e15)">
     <use xlink:href="#m48412d0e73" x="297.968068" y="256.174125" style="fill: #808080; stroke: #808080"/>
     <use xlink:href="#m48412d0e73" x="302.865874" y="256.174125" style="fill: #808080; stroke: #808080"/>
     <use xlink:href="#m48412d0e73" x="307.763679" y="256.174119" style="fill: #808080; stroke: #808080"/>
     <use xlink:href="#m48412d0e73" x="312.661485" y="256.174038" style="fill: #808080; stroke: #808080"/>
     <use xlink:href="#m48412d0e73" x="317.559291" y="256.173275" style="fill: #808080; stroke: #808080"/>
     <use xlink:href="#m48412d0e73" x="322.457096" y="256.16813" style="fill: #808080; stroke: #808080"/>
     <use xlink:href="#m48412d0e73" x="327.354902" y="256.141374" style="fill: #808080; stroke: #808080"/>
     <use xlink:href="#m48412d0e73" x="332.252708" y="256.02989" style="fill: #808080; stroke: #808080"/>
     <use xlink:href="#m48412d0e73" x="337.150513" y="255.647659" style="fill: #808080; stroke: #808080"/>
     <use xlink:href="#m48412d0e73" x="342.048319" y="254.548745" style="fill: #808080; stroke: #808080"/>
     <use xlink:href="#m48412d0e73" x="346.946125" y="251.862511" style="fill: #808080; stroke: #808080"/>
     <use xlink:href="#m48412d0e73" x="351.84393" y="246.221421" style="fill: #808080; stroke: #808080"/>
     <use xlink:href="#m48412d0e73" x="356.741736" y="235.964892" style="fill: #808080; stroke: #808080"/>
     <use xlink:href="#m48412d0e73" x="361.639542" y="219.725389" style="fill: #808080; stroke: #808080"/>
     <use xlink:href="#m48412d0e73" x="366.537347" y="197.239922" style="fill: #808080; stroke: #808080"/>
     <use xlink:href="#m48412d0e73" x="371.435153" y="169.936141" style="fill: #808080; stroke: #808080"/>
     <use xlink:href="#m48412d0e73" x="376.332958" y="140.812109" style="fill: #808080; stroke: #808080"/>
     <use xlink:href="#m48412d0e73" x="381.230764" y="113.508328" style="fill: #808080; stroke: #808080"/>
     <use xlink:href="#m48412d0e73" x="386.12857" y="91.022861" style="fill: #808080; stroke: #808080"/>
     <use xlink:href="#m48412d0e73" x="391.026375" y="74.783358" style="fill: #808080; stroke: #808080"/>
     <use xlink:href="#m48412d0e73" x="395.924181" y="64.526829" style="fill: #808080; stroke: #808080"/>
     <use xlink:href="#m48412d0e73" x="400.821987" y="58.885739" style="fill: #808080; stroke: #808080"/>
     <use xlink:href="#m48412d0e73" x="405.719792" y="56.199505" style="fill: #808080; stroke: #808080"/>
     <use xlink:href="#m48412d0e73" x="410.617598" y="55.100591" style="fill: #808080; stroke: #808080"/>
     <use xlink:href="#m48412d0e73" x="415.515404" y="54.71836" style="fill: #808080; stroke: #808080"/>
     <use xlink:href="#m48412d0e73" x="420.413209" y="54.606876" style="fill: #808080; stroke: #808080"/>
     <use xlink:href="#m48412d0e73" x="425.311015" y="54.58012" style="fill: #808080; stroke: #808080"/>
     <use xlink:href="#m48412d0e73" x="430.208821" y="54.574975" style="fill: #808080; stroke: #808080"/>
     <use xlink:href="#m48412d0e73" x="435.106626" y="54.574212" style="fill: #808080; stroke: #808080"/>
     <use xlink:href="#m48412d0e73" x="440.004432" y="54.574131" style="fill: #808080; stroke: #808080"/>
    </g>
   </g>
   <g id="line2d_31">
    <path d="M 297.968068 256.174125 
L 302.865874 256.174125 
L 307.763679 256.174125 
L 312.661485 256.174125 
L 317.559291 256.174125 
L 322.457096 256.174125 
L 327.354902 256.174125 
L 332.252708 256.174121 
L 337.150513 256.174089 
L 342.048319 256.173875 
L 346.946125 256.172658 
L 351.84393 256.166692 
L 356.741736 256.141383 
L 361.639542 256.047878 
L 366.537347 255.745787 
L 371.435153 254.889863 
L 376.332958 252.759563 
L 381.230764 248.099531 
L 386.12857 239.144961 
L 391.026375 224.054851 
L 395.924181 201.816795 
L 400.821987 173.277956 
L 405.719792 141.568135 
L 410.617598 111.299669 
L 415.515404 86.733958 
L 420.413209 70.015627 
L 425.311015 60.653362 
L 430.208821 56.452345 
L 435.106626 55.000142 
L 440.004432 54.637091 
" clip-path="url(#pebfe755e15)" style="fill: none; stroke-dasharray: 5.55,2.4; stroke-dashoffset: 0; stroke: #b2b2b2; stroke-width: 1.5"/>
    <g clip-path="url(#pebfe755e15)">
     <use xlink:href="#mc227662f65" x="297.968068" y="256.174125" style="fill: #b2b2b2; stroke: #b2b2b2"/>
     <use xlink:href="#mc227662f65" x="302.865874" y="256.174125" style="fill: #b2b2b2; stroke: #b2b2b2"/>
     <use xlink:href="#mc227662f65" x="307.763679" y="256.174125" style="fill: #b2b2b2; stroke: #b2b2b2"/>
     <use xlink:href="#mc227662f65" x="312.661485" y="256.174125" style="fill: #b2b2b2; stroke: #b2b2b2"/>
     <use xlink:href="#mc227662f65" x="317.559291" y="256.174125" style="fill: #b2b2b2; stroke: #b2b2b2"/>
     <use xlink:href="#mc227662f65" x="322.457096" y="256.174125" style="fill: #b2b2b2; stroke: #b2b2b2"/>
     <use xlink:href="#mc227662f65" x="327.354902" y="256.174125" style="fill: #b2b2b2; stroke: #b2b2b2"/>
     <use xlink:href="#mc227662f65" x="332.252708" y="256.174121" style="fill: #b2b2b2; stroke: #b2b2b2"/>
     <use xlink:href="#mc227662f65" x="337.150513" y="256.174089" style="fill: #b2b2b2; stroke: #b2b2b2"/>
     <use xlink:href="#mc227662f65" x="342.048319" y="256.173875" style="fill: #b2b2b2; stroke: #b2b2b2"/>
     <use xlink:href="#mc227662f65" x="346.946125" y="256.172658" style="fill: #b2b2b2; stroke: #b2b2b2"/>
     <use xlink:href="#mc227662f65" x="351.84393" y="256.166692" style="fill: #b2b2b2; stroke: #b2b2b2"/>
     <use xlink:href="#mc227662f65" x="356.741736" y="256.141383" style="fill: #b2b2b2; stroke: #b2b2b2"/>
     <use xlink:href="#mc227662f65" x="361.639542" y="256.047878" style="fill: #b2b2b2; stroke: #b2b2b2"/>
     <use xlink:href="#mc227662f65" x="366.537347" y="255.745787" style="fill: #b2b2b2; stroke: #b2b2b2"/>
     <use xlink:href="#mc227662f65" x="371.435153" y="254.889863" style="fill: #b2b2b2; stroke: #b2b2b2"/>
     <use xlink:href="#mc227662f65" x="376.332958" y="252.759563" style="fill: #b2b2b2; stroke: #b2b2b2"/>
     <use xlink:href="#mc227662f65" x="381.230764" y="248.099531" style="fill: #b2b2b2; stroke: #b2b2b2"/>
     <use xlink:href="#mc227662f65" x="386.12857" y="239.144961" style="fill: #b2b2b2; stroke: #b2b2b2"/>
     <use xlink:href="#mc227662f65" x="391.026375" y="224.054851" style="fill: #b2b2b2; stroke: #b2b2b2"/>
     <use xlink:href="#mc227662f65" x="395.924181" y="201.816795" style="fill: #b2b2b2; stroke: #b2b2b2"/>
     <use xlink:href="#mc227662f65" x="400.821987" y="173.277956" style="fill: #b2b2b2; stroke: #b2b2b2"/>
     <use xlink:href="#mc227662f65" x="405.719792" y="141.568135" style="fill: #b2b2b2; stroke: #b2b2b2"/>
     <use xlink:href="#mc227662f65" x="410.617598" y="111.299669" style="fill: #b2b2b2; stroke: #b2b2b2"/>
     <use xlink:href="#mc227662f65" x="415.515404" y="86.733958" style="fill: #b2b2b2; stroke: #b2b2b2"/>
     <use xlink:href="#mc227662f65" x="420.413209" y="70.015627" style="fill: #b2b2b2; stroke: #b2b2b2"/>
     <use xlink:href="#mc227662f65" x="425.311015" y="60.653362" style="fill: #b2b2b2; stroke: #b2b2b2"/>
     <use xlink:href="#mc227662f65" x="430.208821" y="56.452345" style="fill: #b2b2b2; stroke: #b2b2b2"/>
     <use xlink:href="#mc227662f65" x="435.106626" y="55.000142" style="fill: #b2b2b2; stroke: #b2b2b2"/>
     <use xlink:href="#mc227662f65" x="440.004432" y="54.637091" style="fill: #b2b2b2; stroke: #b2b2b2"/>
    </g>
   </g>
   <g id="patch_9">
    <path d="M 290.86625 266.254125 
L 290.86625 44.494125 
" style="fill: none; stroke: #000000; stroke-width: 0.8; stroke-linejoin: miter; stroke-linecap: square"/>
   </g>
   <g id="patch_10">
    <path d="M 447.10625 266.254125 
L 447.10625 44.494125 
" style="fill: none; stroke: #000000; stroke-width: 0.8; stroke-linejoin: miter; stroke-linecap: square"/>
   </g>
   <g id="patch_11">
    <path d="M 290.86625 266.254125 
L 447.10625 266.254125 
" style="fill: none; stroke: #000000; stroke-width: 0.8; stroke-linejoin: miter; stroke-linecap: square"/>
   </g>
   <g id="patch_12">
    <path d="M 290.86625 44.494125 
L 447.10625 44.494125 
" style="fill: none; stroke: #000000; stroke-width: 0.8; stroke-linejoin: miter; stroke-linecap: square"/>
   </g>
   <g id="text_31">
    <!-- CDF of Binomial Distribution, $n=30$ -->
    <g transform="translate(261.46625 16.318125) scale(0.12 -0.12)">
     <defs>
      <path id="DejaVuSans-43" d="M 4122 4306 
L 4122 3641 
Q 3803 3938 3442 4084 
Q 3081 4231 2675 4231 
Q 1875 4231 1450 3742 
Q 1025 3253 1025 2328 
Q 1025 1406 1450 917 
Q 1875 428 2675 428 
Q 3081 428 3442 575 
Q 3803 722 4122 1019 
L 4122 359 
Q 3791 134 3420 21 
Q 3050 -91 2638 -91 
Q 1578 -91 968 557 
Q 359 1206 359 2328 
Q 359 3453 968 4101 
Q 1578 4750 2638 4750 
Q 3056 4750 3426 4639 
Q 3797 4528 4122 4306 
z
" transform="scale(0.015625)"/>
     </defs>
     <use xlink:href="#DejaVuSans-43" transform="translate(0 0.015625)"/>
     <use xlink:href="#DejaVuSans-44" transform="translate(69.824219 0.015625)"/>
     <use xlink:href="#DejaVuSans-46" transform="translate(146.826172 0.015625)"/>
     <use xlink:href="#DejaVuSans-20" transform="translate(204.345703 0.015625)"/>
     <use xlink:href="#DejaVuSans-6f" transform="translate(236.132812 0.015625)"/>
     <use xlink:href="#DejaVuSans-66" transform="translate(297.314453 0.015625)"/>
     <use xlink:href="#DejaVuSans-20" transform="translate(332.519531 0.015625)"/>
     <use xlink:href="#DejaVuSans-42" transform="translate(364.306641 0.015625)"/>
     <use xlink:href="#DejaVuSans-69" transform="translate(432.910156 0.015625)"/>
     <use xlink:href="#DejaVuSans-6e" transform="translate(460.693359 0.015625)"/>
     <use xlink:href="#DejaVuSans-6f" transform="translate(524.072266 0.015625)"/>
     <use xlink:href="#DejaVuSans-6d" transform="translate(585.253906 0.015625)"/>
     <use xlink:href="#DejaVuSans-69" transform="translate(682.666016 0.015625)"/>
     <use xlink:href="#DejaVuSans-61" transform="translate(710.449219 0.015625)"/>
     <use xlink:href="#DejaVuSans-6c" transform="translate(771.728516 0.015625)"/>
     <use xlink:href="#DejaVuSans-20" transform="translate(799.511719 0.015625)"/>
     <use xlink:href="#DejaVuSans-44" transform="translate(831.298828 0.015625)"/>
     <use xlink:href="#DejaVuSans-69" transform="translate(908.300781 0.015625)"/>
     <use xlink:href="#DejaVuSans-73" transform="translate(936.083984 0.015625)"/>
     <use xlink:href="#DejaVuSans-74" transform="translate(988.183594 0.015625)"/>
     <use xlink:href="#DejaVuSans-72" transform="translate(1027.392578 0.015625)"/>
     <use xlink:href="#DejaVuSans-69" transform="translate(1068.505859 0.015625)"/>
     <use xlink:href="#DejaVuSans-62" transform="translate(1096.289062 0.015625)"/>
     <use xlink:href="#DejaVuSans-75" transform="translate(1159.765625 0.015625)"/>
     <use xlink:href="#DejaVuSans-74" transform="translate(1223.144531 0.015625)"/>
     <use xlink:href="#DejaVuSans-69" transform="translate(1262.353516 0.015625)"/>
     <use xlink:href="#DejaVuSans-6f" transform="translate(1290.136719 0.015625)"/>
     <use xlink:href="#DejaVuSans-6e" transform="translate(1351.318359 0.015625)"/>
     <use xlink:href="#DejaVuSans-2c" transform="translate(1414.697266 0.015625)"/>
     <use xlink:href="#DejaVuSans-20" transform="translate(1446.484375 0.015625)"/>
     <use xlink:href="#DejaVuSans-Oblique-6e" transform="translate(1478.271484 0.015625)"/>
     <use xlink:href="#DejaVuSans-3d" transform="translate(1561.132812 0.015625)"/>
     <use xlink:href="#DejaVuSans-33" transform="translate(1664.404297 0.015625)"/>
     <use xlink:href="#DejaVuSans-30" transform="translate(1728.027344 0.015625)"/>
    </g>
   </g>
   <g id="legend_2">
    <g id="patch_13">
     <path d="M 297.86625 178.891312 
L 360.4975 178.891312 
Q 362.4975 178.891312 362.4975 176.891312 
L 362.4975 133.856938 
Q 362.4975 131.856938 360.4975 131.856938 
L 297.86625 131.856938 
Q 295.86625 131.856938 295.86625 133.856938 
L 295.86625 176.891312 
Q 295.86625 178.891312 297.86625 178.891312 
z
" style="fill: #ffffff; opacity: 0.8; stroke: #cccccc; stroke-linejoin: miter"/>
    </g>
    <g id="line2d_32">
     <path d="M 299.86625 139.955375 
L 309.86625 139.955375 
L 319.86625 139.955375 
" style="fill: none; stroke-dasharray: 5.55,2.4; stroke-dashoffset: 0; stroke: #4c4c4c; stroke-width: 1.5"/>
     <g>
      <use xlink:href="#m0e561e6b19" x="309.86625" y="139.955375" style="fill: #4c4c4c; stroke: #4c4c4c"/>
     </g>
    </g>
    <g id="text_32">
     <!-- p=0.2 -->
     <g transform="translate(327.86625 143.455375) scale(0.1 -0.1)">
      <use xlink:href="#DejaVuSans-70"/>
      <use xlink:href="#DejaVuSans-3d" transform="translate(63.476562 0)"/>
      <use xlink:href="#DejaVuSans-30" transform="translate(147.265625 0)"/>
      <use xlink:href="#DejaVuSans-2e" transform="translate(210.888672 0)"/>
      <use xlink:href="#DejaVuSans-32" transform="translate(242.675781 0)"/>
     </g>
    </g>
    <g id="line2d_33">
     <path d="M 299.86625 154.6335 
L 309.86625 154.6335 
L 319.86625 154.6335 
" style="fill: none; stroke-dasharray: 5.55,2.4; stroke-dashoffset: 0; stroke: #808080; stroke-width: 1.5"/>
     <g>
      <use xlink:href="#m48412d0e73" x="309.86625" y="154.6335" style="fill: #808080; stroke: #808080"/>
     </g>
    </g>
    <g id="text_33">
     <!-- p=0.5 -->
     <g transform="translate(327.86625 158.1335) scale(0.1 -0.1)">
      <use xlink:href="#DejaVuSans-70"/>
      <use xlink:href="#DejaVuSans-3d" transform="translate(63.476562 0)"/>
      <use xlink:href="#DejaVuSans-30" transform="translate(147.265625 0)"/>
      <use xlink:href="#DejaVuSans-2e" transform="translate(210.888672 0)"/>
      <use xlink:href="#DejaVuSans-35" transform="translate(242.675781 0)"/>
     </g>
    </g>
    <g id="line2d_34">
     <path d="M 299.86625 169.311625 
L 309.86625 169.311625 
L 319.86625 169.311625 
" style="fill: none; stroke-dasharray: 5.55,2.4; stroke-dashoffset: 0; stroke: #b2b2b2; stroke-width: 1.5"/>
     <g>
      <use xlink:href="#mc227662f65" x="309.86625" y="169.311625" style="fill: #b2b2b2; stroke: #b2b2b2"/>
     </g>
    </g>
    <g id="text_34">
     <!-- p=0.7 -->
     <g transform="translate(327.86625 172.811625) scale(0.1 -0.1)">
      <use xlink:href="#DejaVuSans-70"/>
      <use xlink:href="#DejaVuSans-3d" transform="translate(63.476562 0)"/>
      <use xlink:href="#DejaVuSans-30" transform="translate(147.265625 0)"/>
      <use xlink:href="#DejaVuSans-2e" transform="translate(210.888672 0)"/>
      <use xlink:href="#DejaVuSans-37" transform="translate(242.675781 0)"/>
     </g>
    </g>
   </g>
  </g>
 </g>
 <defs>
  <clipPath id="p7ce3fa09e0">
   <rect x="56.50625" y="44.494125" width="156.24" height="221.76"/>
  </clipPath>
  <clipPath id="pebfe755e15">
   <rect x="290.86625" y="44.494125" width="156.24" height="221.76"/>
  </clipPath>
 </defs>
</svg>
