<?xml version="1.0" encoding="UTF-8"?><svg id="a" xmlns="http://www.w3.org/2000/svg" viewBox="0 0 988 400"><defs><style>.b{letter-spacing:-.02em;}.c,.d,.e{fill:#0333ff;}.f{letter-spacing:0em;}.f,.g,.d{font-family:Arial-BoldMT, Arial;}.f,.e{font-size:16px;}.h{font-size:13.71px;}.h,.i,.e{font-family:ArialMT, Arial;}.g,.i{fill:#1d1d1b;}.g,.i,.d{font-size:14px;}.j{letter-spacing:-.06em;}.k{stroke:#0333ff;stroke-miterlimit:8;}.k,.l{fill:none;}.d{text-decoration:underline;}.l{stroke:#000;stroke-linejoin:round;stroke-width:2px;}</style></defs><g><line class="l" x1="315.2" y1="89.95" x2="315.2" y2="230.04"/><line class="l" x1="482.03" y1="89.95" x2="482.03" y2="227.84"/><line class="l" x1="601.01" y1="89.95" x2="601.01" y2="219.44"/><line class="l" x1="706.58" y1="89.95" x2="706.58" y2="230.04"/><line class="l" x1="218.35" y1="124.77" x2="706.58" y2="124.77"/><line class="l" x1="218.35" y1="159.66" x2="706.58" y2="159.66"/><line class="l" x1="218.35" y1="194.55" x2="706.58" y2="194.55"/><line class="l" x1="218.95" y1="89.95" x2="218.95" y2="219.44"/><line class="l" x1="218.35" y1="89.88" x2="706.58" y2="89.88"/><path class="l" d="M218.35,219.44c48.82,0,48.82,10,97.64,10s48.82-10,97.64-10,48.82,10,97.65,10,48.83-10,97.65-10,48.83,10,97.65,10"/><line class="l" x1="218.95" y1="53.64" x2="218.95" y2="89.88"/><line class="l" x1="348.45" y1="53.64" x2="348.45" y2="89.88"/><line class="l" x1="218.35" y1="54.24" x2="348.45" y2="54.24"/><text class="f" transform="translate(231.67 78.48)"><tspan x="0" y="0">Projekt</tspan></text><text class="e" transform="translate(171.17 297.75)"><tspan x="0" y="0">Jedes Entity eines Entity-Typs wird in einer Zeile</tspan><tspan x="0" y="20">der Tabelle dargestellt (Tupel, Datensatz)</tspan></text><g><path class="c" d="M65.38,110.69v-11.45h4.32c.76,0,1.34,.04,1.74,.11,.56,.09,1.03,.27,1.41,.54,.38,.26,.69,.63,.92,1.11,.23,.47,.35,1,.35,1.56,0,.97-.31,1.8-.93,2.47-.62,.67-1.74,1.01-3.36,1.01h-2.94v4.66h-1.52Zm1.52-6.01h2.96c.98,0,1.67-.18,2.09-.55,.41-.36,.62-.88,.62-1.54,0-.48-.12-.89-.36-1.23-.24-.34-.56-.57-.96-.68-.25-.07-.73-.1-1.41-.1h-2.93v4.09Z"/><path class="c" d="M75.86,110.69v-8.3h1.27v1.26c.32-.59,.62-.98,.89-1.16s.57-.28,.9-.28c.47,0,.96,.15,1.45,.45l-.48,1.3c-.34-.2-.69-.3-1.03-.3-.31,0-.58,.09-.83,.28-.25,.19-.42,.44-.52,.77-.16,.5-.23,1.05-.23,1.64v4.34h-1.41Z"/><path class="c" d="M81.21,100.85v-1.62h1.41v1.62h-1.41Zm0,9.84v-8.3h1.41v8.3h-1.41Z"/><path class="c" d="M84.76,110.69v-8.3h1.26v1.16c.26-.41,.61-.73,1.04-.98,.43-.25,.92-.37,1.48-.37,.61,0,1.12,.13,1.51,.38,.39,.26,.67,.61,.83,1.07,.66-.97,1.51-1.45,2.56-1.45,.82,0,1.46,.23,1.9,.68,.44,.46,.66,1.16,.66,2.11v5.7h-1.4v-5.23c0-.56-.05-.97-.14-1.21-.09-.25-.26-.45-.5-.6-.24-.15-.52-.23-.84-.23-.58,0-1.07,.19-1.45,.58-.39,.39-.58,1.01-.58,1.86v4.82h-1.41v-5.39c0-.62-.11-1.09-.34-1.41s-.6-.47-1.12-.47c-.4,0-.76,.1-1.1,.31-.34,.21-.58,.51-.73,.91-.15,.4-.23,.98-.23,1.73v4.3h-1.41Z"/><path class="c" d="M103.5,109.67c-.52,.44-1.02,.76-1.5,.94s-1,.27-1.55,.27c-.91,0-1.61-.22-2.1-.67s-.73-1.01-.73-1.71c0-.41,.09-.78,.28-1.11s.43-.61,.73-.81,.64-.36,1.01-.46c.28-.07,.69-.14,1.25-.21,1.14-.14,1.97-.3,2.51-.48,0-.19,0-.31,0-.37,0-.57-.13-.98-.4-1.21-.36-.32-.89-.48-1.6-.48-.66,0-1.15,.12-1.46,.35-.32,.23-.55,.64-.7,1.23l-1.38-.19c.12-.59,.33-1.06,.62-1.43,.29-.36,.7-.64,1.24-.84s1.17-.29,1.88-.29,1.28,.08,1.73,.25c.44,.17,.77,.38,.98,.63,.21,.25,.35,.57,.44,.96,.05,.24,.07,.67,.07,1.3v1.88c0,1.31,.03,2.13,.09,2.48,.06,.35,.18,.68,.36,1h-1.47c-.15-.29-.24-.63-.28-1.02Zm-.12-3.14c-.51,.21-1.28,.39-2.3,.53-.58,.08-.99,.18-1.23,.28-.24,.1-.42,.26-.55,.46-.13,.2-.2,.42-.2,.67,0,.38,.14,.69,.43,.94s.7,.38,1.25,.38,1.02-.12,1.45-.36c.42-.24,.73-.56,.93-.97,.15-.32,.23-.79,.23-1.41v-.52Zm-4.14-5.76v-1.6h1.47v1.6h-1.47Zm2.91,0v-1.6h1.47v1.6h-1.47Z"/><path class="c" d="M106.97,110.69v-8.3h1.27v1.26c.32-.59,.62-.98,.89-1.16s.57-.28,.9-.28c.47,0,.96,.15,1.45,.45l-.48,1.3c-.34-.2-.69-.3-1.03-.3-.31,0-.58,.09-.83,.28-.25,.19-.42,.44-.52,.77-.16,.5-.23,1.05-.23,1.64v4.34h-1.41Z"/><path class="c" d="M111.75,108.21l1.39-.22c.08,.56,.3,.98,.65,1.28s.86,.45,1.5,.45,1.12-.13,1.44-.39c.31-.26,.47-.57,.47-.93,0-.32-.14-.57-.41-.75-.19-.12-.67-.28-1.44-.48-1.03-.26-1.75-.49-2.14-.68-.4-.19-.7-.45-.91-.79s-.31-.71-.31-1.11c0-.37,.08-.71,.25-1.03,.17-.31,.4-.58,.69-.79,.22-.16,.52-.3,.89-.41,.38-.11,.78-.17,1.21-.17,.65,0,1.22,.09,1.71,.28s.86,.44,1.09,.76,.4,.75,.48,1.29l-1.38,.19c-.06-.43-.24-.76-.54-1-.3-.24-.72-.36-1.27-.36-.65,0-1.11,.11-1.38,.32-.28,.21-.41,.46-.41,.75,0,.18,.06,.35,.17,.49,.11,.15,.29,.28,.54,.38,.14,.05,.55,.17,1.24,.36,1,.27,1.69,.48,2.08,.65,.39,.17,.7,.42,.93,.74,.22,.32,.34,.72,.34,1.2s-.14,.91-.41,1.32-.67,.73-1.18,.96-1.1,.34-1.75,.34c-1.08,0-1.9-.22-2.46-.67-.57-.45-.93-1.11-1.08-1.99Z"/><path class="c" d="M125.73,107.65l1.38,.18c-.15,.95-.54,1.7-1.16,2.24s-1.39,.81-2.29,.81c-1.14,0-2.05-.37-2.74-1.11s-1.04-1.81-1.04-3.19c0-.9,.15-1.68,.45-2.35s.75-1.18,1.36-1.51,1.27-.5,1.98-.5c.9,0,1.64,.23,2.21,.68,.57,.46,.94,1.1,1.1,1.94l-1.37,.21c-.13-.56-.36-.98-.69-1.26s-.73-.42-1.2-.42c-.71,0-1.28,.25-1.73,.76s-.66,1.31-.66,2.41,.21,1.92,.64,2.43c.43,.51,.98,.76,1.67,.76,.55,0,1.01-.17,1.38-.51,.37-.34,.6-.86,.7-1.56Z"/><path class="c" d="M128.31,110.69v-11.45h1.41v4.11c.66-.76,1.48-1.14,2.48-1.14,.61,0,1.15,.12,1.6,.36s.78,.58,.97,1c.2,.43,.29,1.05,.29,1.86v5.26h-1.41v-5.26c0-.7-.15-1.21-.46-1.54s-.74-.48-1.29-.48c-.42,0-.81,.11-1.18,.32-.37,.22-.63,.51-.79,.88-.16,.37-.23,.88-.23,1.53v4.54h-1.41Z"/><path class="c" d="M137.18,110.69v-11.45h1.41v11.45h-1.41Z"/><path class="c" d="M146.2,110.69v-1.22c-.65,.94-1.52,1.41-2.63,1.41-.49,0-.95-.09-1.37-.28s-.74-.42-.95-.71c-.21-.28-.35-.63-.43-1.04-.06-.28-.09-.71-.09-1.31v-5.14h1.41v4.6c0,.73,.03,1.23,.09,1.48,.09,.37,.28,.66,.56,.87s.64,.32,1.06,.32,.82-.11,1.19-.32c.37-.22,.63-.51,.79-.88,.15-.37,.23-.91,.23-1.62v-4.45h1.41v8.3h-1.26Zm-4.3-9.92v-1.6h1.47v1.6h-1.47Zm2.91,0v-1.6h1.47v1.6h-1.47Z"/><path class="c" d="M149.1,108.21l1.39-.22c.08,.56,.3,.98,.65,1.28s.86,.45,1.5,.45,1.12-.13,1.44-.39c.31-.26,.47-.57,.47-.93,0-.32-.14-.57-.41-.75-.19-.12-.67-.28-1.44-.48-1.03-.26-1.75-.49-2.14-.68-.4-.19-.7-.45-.91-.79s-.31-.71-.31-1.11c0-.37,.08-.71,.25-1.03,.17-.31,.4-.58,.69-.79,.22-.16,.52-.3,.89-.41,.38-.11,.78-.17,1.21-.17,.65,0,1.22,.09,1.71,.28s.86,.44,1.09,.76,.4,.75,.48,1.29l-1.38,.19c-.06-.43-.24-.76-.54-1-.3-.24-.72-.36-1.27-.36-.65,0-1.11,.11-1.38,.32-.28,.21-.41,.46-.41,.75,0,.18,.06,.35,.17,.49,.11,.15,.29,.28,.54,.38,.14,.05,.55,.17,1.24,.36,1,.27,1.69,.48,2.08,.65,.39,.17,.7,.42,.93,.74,.22,.32,.34,.72,.34,1.2s-.14,.91-.41,1.32-.67,.73-1.18,.96-1.1,.34-1.75,.34c-1.08,0-1.9-.22-2.46-.67-.57-.45-.93-1.11-1.08-1.99Z"/><path class="c" d="M157.1,108.21l1.39-.22c.08,.56,.3,.98,.65,1.28s.86,.45,1.5,.45,1.12-.13,1.44-.39c.31-.26,.47-.57,.47-.93,0-.32-.14-.57-.41-.75-.19-.12-.67-.28-1.44-.48-1.03-.26-1.75-.49-2.14-.68-.4-.19-.7-.45-.91-.79s-.31-.71-.31-1.11c0-.37,.08-.71,.25-1.03,.17-.31,.4-.58,.69-.79,.22-.16,.52-.3,.89-.41,.38-.11,.78-.17,1.21-.17,.65,0,1.22,.09,1.71,.28s.86,.44,1.09,.76,.4,.75,.48,1.29l-1.38,.19c-.06-.43-.24-.76-.54-1-.3-.24-.72-.36-1.27-.36-.65,0-1.11,.11-1.38,.32-.28,.21-.41,.46-.41,.75,0,.18,.06,.35,.17,.49,.11,.15,.29,.28,.54,.38,.14,.05,.55,.17,1.24,.36,1,.27,1.69,.48,2.08,.65,.39,.17,.7,.42,.93,.74,.22,.32,.34,.72,.34,1.2s-.14,.91-.41,1.32-.67,.73-1.18,.96-1.1,.34-1.75,.34c-1.08,0-1.9-.22-2.46-.67-.57-.45-.93-1.11-1.08-1.99Z"/><path class="c" d="M171.34,108.02l1.45,.18c-.23,.85-.65,1.51-1.27,1.98s-1.41,.7-2.38,.7c-1.21,0-2.18-.37-2.89-1.12-.71-.75-1.07-1.8-1.07-3.14s.36-2.48,1.08-3.25c.72-.77,1.65-1.16,2.8-1.16s2.02,.38,2.72,1.13c.7,.76,1.05,1.82,1.05,3.19,0,.08,0,.21,0,.38h-6.19c.05,.91,.31,1.61,.77,2.09s1.04,.73,1.73,.73c.52,0,.96-.14,1.32-.41,.36-.27,.65-.7,.87-1.3Zm-4.62-2.27h4.63c-.06-.7-.24-1.22-.53-1.57-.45-.54-1.03-.81-1.74-.81-.65,0-1.19,.22-1.63,.65-.44,.43-.68,1.01-.73,1.73Z"/><path class="c" d="M174.53,110.69v-11.45h1.41v11.45h-1.41Z"/><path class="c" d="M54.51,120.85v-1.62h1.41v1.62h-1.41Zm0,9.84v-8.3h1.41v8.3h-1.41Z"/><path class="c" d="M63.44,130.69v-1.05c-.53,.82-1.3,1.23-2.32,1.23-.66,0-1.27-.18-1.82-.55s-.98-.87-1.29-1.53c-.3-.65-.46-1.4-.46-2.25s.14-1.58,.41-2.25c.28-.67,.69-1.19,1.24-1.55s1.17-.54,1.85-.54c.5,0,.95,.11,1.34,.32s.71,.49,.95,.82v-4.11h1.4v11.45h-1.3Zm-4.45-4.14c0,1.06,.22,1.86,.67,2.38,.45,.53,.98,.79,1.59,.79s1.14-.25,1.57-.75c.43-.5,.64-1.27,.64-2.3,0-1.14-.22-1.97-.66-2.5s-.98-.8-1.62-.8-1.15,.26-1.57,.77c-.42,.51-.63,1.32-.63,2.41Z"/><path class="c" d="M72.63,128.02l1.45,.18c-.23,.85-.65,1.51-1.27,1.98s-1.41,.7-2.38,.7c-1.21,0-2.18-.37-2.89-1.12-.71-.75-1.07-1.8-1.07-3.14s.36-2.48,1.08-3.25c.72-.77,1.65-1.16,2.8-1.16s2.02,.38,2.72,1.13c.7,.76,1.05,1.82,1.05,3.19,0,.08,0,.21,0,.38h-6.19c.05,.91,.31,1.61,.77,2.09s1.04,.73,1.73,.73c.52,0,.96-.14,1.32-.41,.36-.27,.65-.7,.87-1.3Zm-4.62-2.27h4.63c-.06-.7-.24-1.22-.53-1.57-.45-.54-1.03-.81-1.74-.81-.65,0-1.19,.22-1.63,.65-.44,.43-.68,1.01-.73,1.73Z"/><path class="c" d="M75.85,130.69v-8.3h1.27v1.18c.61-.91,1.49-1.37,2.64-1.37,.5,0,.96,.09,1.38,.27s.73,.42,.94,.71c.21,.29,.35,.64,.44,1.04,.05,.26,.08,.72,.08,1.37v5.1h-1.41v-5.05c0-.57-.05-1-.16-1.29-.11-.28-.3-.51-.58-.68-.28-.17-.61-.25-.98-.25-.6,0-1.12,.19-1.55,.57-.43,.38-.65,1.1-.65,2.16v4.53h-1.41Z"/><path class="c" d="M87.82,129.43l.2,1.24c-.4,.08-.75,.12-1.06,.12-.51,0-.91-.08-1.19-.24s-.48-.37-.59-.64c-.11-.26-.17-.82-.17-1.66v-4.77h-1.03v-1.09h1.03v-2.05l1.4-.84v2.9h1.41v1.09h-1.41v4.85c0,.4,.02,.66,.07,.77,.05,.11,.13,.21,.24,.27,.11,.07,.27,.1,.48,.1,.16,0,.36-.02,.62-.05Z"/><path class="c" d="M89.2,120.85v-1.62h1.41v1.62h-1.41Zm0,9.84v-8.3h1.41v8.3h-1.41Z"/><path class="c" d="M93.09,130.69v-7.2h-1.24v-1.09h1.24v-.88c0-.56,.05-.97,.15-1.24,.14-.36,.37-.66,.71-.89s.82-.34,1.43-.34c.4,0,.83,.05,1.31,.14l-.21,1.23c-.29-.05-.57-.08-.83-.08-.43,0-.73,.09-.91,.27-.18,.18-.27,.52-.27,1.02v.77h1.62v1.09h-1.62v7.2h-1.4Z"/><path class="c" d="M97.2,120.85v-1.62h1.41v1.62h-1.41Zm0,9.84v-8.3h1.41v8.3h-1.41Z"/><path class="c" d="M100.01,130.69v-1.14l5.28-6.06c-.6,.03-1.13,.05-1.59,.05h-3.38v-1.14h6.78v.93l-4.49,5.27-.87,.96c.63-.05,1.22-.07,1.77-.07h3.84v1.21h-7.34Z"/><path class="c" d="M108.76,120.85v-1.62h1.41v1.62h-1.41Zm0,9.84v-8.3h1.41v8.3h-1.41Z"/><path class="c" d="M117.99,128.02l1.45,.18c-.23,.85-.65,1.51-1.27,1.98s-1.41,.7-2.38,.7c-1.21,0-2.18-.37-2.89-1.12-.71-.75-1.07-1.8-1.07-3.14s.36-2.48,1.08-3.25c.72-.77,1.65-1.16,2.8-1.16s2.02,.38,2.72,1.13c.7,.76,1.05,1.82,1.05,3.19,0,.08,0,.21,0,.38h-6.19c.05,.91,.31,1.61,.77,2.09s1.04,.73,1.73,.73c.52,0,.96-.14,1.32-.41,.36-.27,.65-.7,.87-1.3Zm-4.62-2.27h4.63c-.06-.7-.24-1.22-.53-1.57-.45-.54-1.03-.81-1.74-.81-.65,0-1.19,.22-1.63,.65-.44,.43-.68,1.01-.73,1.73Z"/><path class="c" d="M121.19,130.69v-8.3h1.27v1.26c.32-.59,.62-.98,.89-1.16s.57-.28,.9-.28c.47,0,.96,.15,1.45,.45l-.48,1.3c-.34-.2-.69-.3-1.03-.3-.31,0-.58,.09-.83,.28-.25,.19-.42,.44-.52,.77-.16,.5-.23,1.05-.23,1.64v4.34h-1.41Z"/><path class="c" d="M129.6,129.43l.2,1.24c-.4,.08-.75,.12-1.06,.12-.51,0-.91-.08-1.19-.24s-.48-.37-.59-.64c-.11-.26-.17-.82-.17-1.66v-4.77h-1.03v-1.09h1.03v-2.05l1.4-.84v2.9h1.41v1.09h-1.41v4.85c0,.4,.02,.66,.07,.77,.05,.11,.13,.21,.24,.27,.11,.07,.27,.1,.48,.1,.16,0,.36-.02,.62-.05Z"/><path class="c" d="M133.63,133.91l.27-1.2c.28,.07,.5,.11,.66,.11,.29,0,.5-.1,.64-.29,.14-.19,.21-.67,.21-1.43v-8.72h1.41v8.75c0,1.02-.13,1.73-.4,2.13-.34,.52-.9,.78-1.69,.78-.38,0-.75-.05-1.1-.15Zm1.78-13.04v-1.63h1.41v1.63h-1.41Z"/><path class="c" d="M144.66,128.02l1.45,.18c-.23,.85-.65,1.51-1.27,1.98s-1.41,.7-2.38,.7c-1.21,0-2.18-.37-2.89-1.12-.71-.75-1.07-1.8-1.07-3.14s.36-2.48,1.08-3.25c.72-.77,1.65-1.16,2.8-1.16s2.02,.38,2.72,1.13c.7,.76,1.05,1.82,1.05,3.19,0,.08,0,.21,0,.38h-6.19c.05,.91,.31,1.61,.77,2.09s1.04,.73,1.73,.73c.52,0,.96-.14,1.32-.41,.36-.27,.65-.7,.87-1.3Zm-4.62-2.27h4.63c-.06-.7-.24-1.22-.53-1.57-.45-.54-1.03-.81-1.74-.81-.65,0-1.19,.22-1.63,.65-.44,.43-.68,1.01-.73,1.73Z"/><path class="c" d="M153.26,130.69v-1.05c-.53,.82-1.3,1.23-2.32,1.23-.66,0-1.27-.18-1.82-.55s-.98-.87-1.29-1.53c-.3-.65-.46-1.4-.46-2.25s.14-1.58,.41-2.25c.28-.67,.69-1.19,1.24-1.55s1.17-.54,1.85-.54c.5,0,.95,.11,1.34,.32s.71,.49,.95,.82v-4.11h1.4v11.45h-1.3Zm-4.45-4.14c0,1.06,.22,1.86,.67,2.38,.45,.53,.98,.79,1.59,.79s1.14-.25,1.57-.75c.43-.5,.64-1.27,.64-2.3,0-1.14-.22-1.97-.66-2.5s-.98-.8-1.62-.8-1.15,.26-1.57,.77c-.42,.51-.63,1.32-.63,2.41Z"/><path class="c" d="M162.45,128.02l1.45,.18c-.23,.85-.65,1.51-1.27,1.98s-1.41,.7-2.38,.7c-1.21,0-2.18-.37-2.89-1.12-.71-.75-1.07-1.8-1.07-3.14s.36-2.48,1.08-3.25c.72-.77,1.65-1.16,2.8-1.16s2.02,.38,2.72,1.13c.7,.76,1.05,1.82,1.05,3.19,0,.08,0,.21,0,.38h-6.19c.05,.91,.31,1.61,.77,2.09s1.04,.73,1.73,.73c.52,0,.96-.14,1.32-.41,.36-.27,.65-.7,.87-1.3Zm-4.62-2.27h4.63c-.06-.7-.24-1.22-.53-1.57-.45-.54-1.03-.81-1.74-.81-.65,0-1.19,.22-1.63,.65-.44,.43-.68,1.01-.73,1.73Z"/><path class="c" d="M165.11,128.21l1.39-.22c.08,.56,.3,.98,.65,1.28s.86,.45,1.5,.45,1.12-.13,1.44-.39c.31-.26,.47-.57,.47-.93,0-.32-.14-.57-.41-.75-.19-.12-.67-.28-1.44-.48-1.03-.26-1.75-.49-2.14-.68-.4-.19-.7-.45-.91-.79s-.31-.71-.31-1.11c0-.37,.08-.71,.25-1.03,.17-.31,.4-.58,.69-.79,.22-.16,.52-.3,.89-.41,.38-.11,.78-.17,1.21-.17,.65,0,1.22,.09,1.71,.28s.86,.44,1.09,.76,.4,.75,.48,1.29l-1.38,.19c-.06-.43-.24-.76-.54-1-.3-.24-.72-.36-1.27-.36-.65,0-1.11,.11-1.38,.32-.28,.21-.41,.46-.41,.75,0,.18,.06,.35,.17,.49,.11,.15,.29,.28,.54,.38,.14,.05,.55,.17,1.24,.36,1,.27,1.69,.48,2.08,.65,.39,.17,.7,.42,.93,.74,.22,.32,.34,.72,.34,1.2s-.14,.91-.41,1.32-.67,.73-1.18,.96-1.1,.34-1.75,.34c-1.08,0-1.9-.22-2.46-.67-.57-.45-.93-1.11-1.08-1.99Z"/><path class="c" d="M68.92,150.69v-11.45h8.28v1.35h-6.77v3.51h6.34v1.34h-6.34v3.9h7.03v1.35h-8.55Z"/><path class="c" d="M79.38,150.69v-8.3h1.27v1.18c.61-.91,1.49-1.37,2.64-1.37,.5,0,.96,.09,1.38,.27s.73,.42,.94,.71c.21,.29,.35,.64,.44,1.04,.05,.26,.08,.72,.08,1.37v5.1h-1.41v-5.05c0-.57-.05-1-.16-1.29-.11-.28-.3-.51-.58-.68-.28-.17-.61-.25-.98-.25-.6,0-1.12,.19-1.55,.57-.43,.38-.65,1.1-.65,2.16v4.53h-1.41Z"/><path class="c" d="M91.35,149.43l.2,1.24c-.4,.08-.75,.12-1.06,.12-.51,0-.91-.08-1.19-.24s-.48-.37-.59-.64c-.11-.26-.17-.82-.17-1.66v-4.77h-1.03v-1.09h1.03v-2.05l1.4-.84v2.9h1.41v1.09h-1.41v4.85c0,.4,.02,.66,.07,.77,.05,.11,.13,.21,.24,.27,.11,.07,.27,.1,.48,.1,.16,0,.36-.02,.62-.05Z"/><path class="c" d="M92.74,140.85v-1.62h1.41v1.62h-1.41Zm0,9.84v-8.3h1.41v8.3h-1.41Z"/><path class="c" d="M99.35,149.43l.2,1.24c-.4,.08-.75,.12-1.06,.12-.51,0-.91-.08-1.19-.24s-.48-.37-.59-.64c-.11-.26-.17-.82-.17-1.66v-4.77h-1.03v-1.09h1.03v-2.05l1.4-.84v2.9h1.41v1.09h-1.41v4.85c0,.4,.02,.66,.07,.77,.05,.11,.13,.21,.24,.27,.11,.07,.27,.1,.48,.1,.16,0,.36-.02,.62-.05Z"/><path class="c" d="M100.67,153.89l-.16-1.32c.31,.08,.58,.12,.8,.12,.31,0,.56-.05,.75-.16,.19-.1,.34-.25,.46-.44,.09-.14,.23-.49,.43-1.05,.03-.08,.07-.19,.12-.34l-3.15-8.31h1.52l1.73,4.8c.22,.61,.42,1.25,.6,1.92,.16-.65,.35-1.28,.58-1.89l1.77-4.84h1.41l-3.16,8.44c-.34,.91-.6,1.54-.79,1.88-.25,.46-.54,.8-.86,1.02-.32,.22-.71,.32-1.16,.32-.27,0-.57-.06-.91-.17Z"/><path class="c" d="M118.85,148.02l1.45,.18c-.23,.85-.65,1.51-1.27,1.98s-1.41,.7-2.38,.7c-1.21,0-2.18-.37-2.89-1.12-.71-.75-1.07-1.8-1.07-3.14s.36-2.48,1.08-3.25c.72-.77,1.65-1.16,2.8-1.16s2.02,.38,2.72,1.13c.7,.76,1.05,1.82,1.05,3.19,0,.08,0,.21,0,.38h-6.19c.05,.91,.31,1.61,.77,2.09s1.04,.73,1.73,.73c.52,0,.96-.14,1.32-.41,.36-.27,.65-.7,.87-1.3Zm-4.62-2.27h4.63c-.06-.7-.24-1.22-.53-1.57-.45-.54-1.03-.81-1.74-.81-.65,0-1.19,.22-1.63,.65-.44,.43-.68,1.01-.73,1.73Z"/><path class="c" d="M122.08,140.85v-1.62h1.41v1.62h-1.41Zm0,9.84v-8.3h1.41v8.3h-1.41Z"/><path class="c" d="M125.63,150.69v-8.3h1.27v1.18c.61-.91,1.49-1.37,2.64-1.37,.5,0,.96,.09,1.38,.27s.73,.42,.94,.71c.21,.29,.35,.64,.44,1.04,.05,.26,.08,.72,.08,1.37v5.1h-1.41v-5.05c0-.57-.05-1-.16-1.29-.11-.28-.3-.51-.58-.68-.28-.17-.61-.25-.98-.25-.6,0-1.12,.19-1.55,.57-.43,.38-.65,1.1-.65,2.16v4.53h-1.41Z"/><path class="c" d="M139.91,150.69v-1.05c-.53,.82-1.3,1.23-2.32,1.23-.66,0-1.27-.18-1.82-.55s-.98-.87-1.29-1.53c-.3-.65-.46-1.4-.46-2.25s.14-1.58,.41-2.25c.28-.67,.69-1.19,1.24-1.55s1.17-.54,1.85-.54c.5,0,.95,.11,1.34,.32s.71,.49,.95,.82v-4.11h1.4v11.45h-1.3Zm-4.45-4.14c0,1.06,.22,1.86,.67,2.38,.45,.53,.98,.79,1.59,.79s1.14-.25,1.57-.75c.43-.5,.64-1.27,.64-2.3,0-1.14-.22-1.97-.66-2.5s-.98-.8-1.62-.8-1.15,.26-1.57,.77c-.42,.51-.63,1.32-.63,2.41Z"/><path class="c" d="M149.1,148.02l1.45,.18c-.23,.85-.65,1.51-1.27,1.98s-1.41,.7-2.38,.7c-1.21,0-2.18-.37-2.89-1.12-.71-.75-1.07-1.8-1.07-3.14s.36-2.48,1.08-3.25c.72-.77,1.65-1.16,2.8-1.16s2.02,.38,2.72,1.13c.7,.76,1.05,1.82,1.05,3.19,0,.08,0,.21,0,.38h-6.19c.05,.91,.31,1.61,.77,2.09s1.04,.73,1.73,.73c.52,0,.96-.14,1.32-.41,.36-.27,.65-.7,.87-1.3Zm-4.62-2.27h4.63c-.06-.7-.24-1.22-.53-1.57-.45-.54-1.03-.81-1.74-.81-.65,0-1.19,.22-1.63,.65-.44,.43-.68,1.01-.73,1.73Z"/><path class="c" d="M157.76,150.69v-1.22c-.65,.94-1.52,1.41-2.63,1.41-.49,0-.95-.09-1.37-.28s-.74-.42-.95-.71c-.21-.28-.35-.63-.43-1.04-.06-.28-.09-.71-.09-1.31v-5.14h1.41v4.6c0,.73,.03,1.23,.09,1.48,.09,.37,.28,.66,.56,.87s.64,.32,1.06,.32,.82-.11,1.19-.32c.37-.22,.63-.51,.79-.88,.15-.37,.23-.91,.23-1.62v-4.45h1.41v8.3h-1.26Z"/><path class="c" d="M164.29,149.43l.2,1.24c-.4,.08-.75,.12-1.06,.12-.51,0-.91-.08-1.19-.24s-.48-.37-.59-.64c-.11-.26-.17-.82-.17-1.66v-4.77h-1.03v-1.09h1.03v-2.05l1.4-.84v2.9h1.41v1.09h-1.41v4.85c0,.4,.02,.66,.07,.77,.05,.11,.13,.21,.24,.27,.11,.07,.27,.1,.48,.1,.16,0,.36-.02,.62-.05Z"/><path class="c" d="M165.67,140.85v-1.62h1.41v1.62h-1.41Zm0,9.84v-8.3h1.41v8.3h-1.41Z"/><path class="c" d="M168.96,151.38l1.37,.2c.06,.42,.22,.73,.48,.92,.35,.26,.83,.39,1.43,.39,.65,0,1.15-.13,1.51-.39,.35-.26,.59-.62,.72-1.09,.07-.29,.11-.89,.1-1.8-.61,.72-1.38,1.09-2.3,1.09-1.14,0-2.02-.41-2.65-1.23-.62-.82-.94-1.81-.94-2.96,0-.79,.14-1.52,.43-2.19,.29-.67,.7-1.19,1.25-1.55,.54-.36,1.18-.55,1.92-.55,.98,0,1.79,.4,2.42,1.19v-1h1.3v7.17c0,1.29-.13,2.21-.39,2.75s-.68,.96-1.25,1.28-1.27,.47-2.11,.47c-.99,0-1.79-.22-2.4-.67s-.9-1.12-.88-2.01Zm1.16-4.98c0,1.09,.22,1.88,.65,2.38s.97,.75,1.62,.75,1.19-.25,1.62-.75c.44-.5,.66-1.28,.66-2.34s-.23-1.78-.68-2.3-.99-.77-1.63-.77-1.16,.25-1.59,.76-.66,1.26-.66,2.26Z"/></g><line class="k" x1="189.4" y1="106.68" x2="228.17" y2="106.68"/><g><path class="c" d="M769.09,110.69l4.4-11.45h1.63l4.69,11.45h-1.73l-1.34-3.47h-4.79l-1.26,3.47h-1.61Zm3.3-4.7h3.88l-1.2-3.17c-.36-.96-.64-1.75-.81-2.38-.15,.73-.35,1.46-.62,2.19l-1.26,3.36Z"/><path class="c" d="M783.91,109.43l.2,1.24c-.4,.08-.75,.12-1.06,.12-.51,0-.91-.08-1.19-.24s-.48-.37-.59-.64c-.11-.26-.17-.82-.17-1.66v-4.77h-1.03v-1.09h1.03v-2.05l1.4-.84v2.9h1.41v1.09h-1.41v4.85c0,.4,.02,.66,.07,.77,.05,.11,.13,.21,.24,.27,.11,.07,.27,.1,.48,.1,.16,0,.36-.02,.62-.05Z"/><path class="c" d="M788.35,109.43l.2,1.24c-.4,.08-.75,.12-1.06,.12-.51,0-.91-.08-1.19-.24s-.48-.37-.59-.64c-.11-.26-.17-.82-.17-1.66v-4.77h-1.03v-1.09h1.03v-2.05l1.4-.84v2.9h1.41v1.09h-1.41v4.85c0,.4,.02,.66,.07,.77,.05,.11,.13,.21,.24,.27,.11,.07,.27,.1,.48,.1,.16,0,.36-.02,.62-.05Z"/><path class="c" d="M789.71,110.69v-8.3h1.27v1.26c.32-.59,.62-.98,.89-1.16s.57-.28,.9-.28c.47,0,.96,.15,1.45,.45l-.48,1.3c-.34-.2-.69-.3-1.03-.3-.31,0-.58,.09-.83,.28-.25,.19-.42,.44-.52,.77-.16,.5-.23,1.05-.23,1.64v4.34h-1.41Z"/><path class="c" d="M795.06,100.85v-1.62h1.41v1.62h-1.41Zm0,9.84v-8.3h1.41v8.3h-1.41Z"/><path class="c" d="M799.91,110.69h-1.3v-11.45h1.41v4.09c.59-.74,1.35-1.12,2.27-1.12,.51,0,.99,.1,1.45,.31,.46,.21,.83,.5,1.12,.87,.29,.37,.52,.82,.69,1.35,.17,.53,.25,1.09,.25,1.69,0,1.42-.35,2.52-1.05,3.3-.7,.78-1.55,1.16-2.53,1.16s-1.75-.41-2.3-1.23v1.04Zm-.02-4.21c0,1,.14,1.71,.41,2.16,.44,.72,1.04,1.09,1.8,1.09,.61,0,1.15-.27,1.59-.8,.45-.53,.67-1.33,.67-2.39s-.21-1.88-.64-2.4-.95-.77-1.56-.77-1.15,.27-1.59,.8c-.45,.53-.67,1.31-.67,2.32Z"/><path class="c" d="M812.95,110.69v-1.22c-.65,.94-1.52,1.41-2.63,1.41-.49,0-.95-.09-1.37-.28s-.74-.42-.95-.71c-.21-.28-.35-.63-.43-1.04-.06-.28-.09-.71-.09-1.31v-5.14h1.41v4.6c0,.73,.03,1.23,.09,1.48,.09,.37,.28,.66,.56,.87s.64,.32,1.06,.32,.82-.11,1.19-.32c.37-.22,.63-.51,.79-.88,.15-.37,.23-.91,.23-1.62v-4.45h1.41v8.3h-1.26Z"/><path class="c" d="M819.48,109.43l.2,1.24c-.4,.08-.75,.12-1.06,.12-.51,0-.91-.08-1.19-.24s-.48-.37-.59-.64c-.11-.26-.17-.82-.17-1.66v-4.77h-1.03v-1.09h1.03v-2.05l1.4-.84v2.9h1.41v1.09h-1.41v4.85c0,.4,.02,.66,.07,.77,.05,.11,.13,.21,.24,.27,.11,.07,.27,.1,.48,.1,.16,0,.36-.02,.62-.05Z"/><path class="c" d="M826.53,108.02l1.45,.18c-.23,.85-.65,1.51-1.27,1.98s-1.41,.7-2.38,.7c-1.21,0-2.18-.37-2.89-1.12-.71-.75-1.07-1.8-1.07-3.14s.36-2.48,1.08-3.25c.72-.77,1.65-1.16,2.8-1.16s2.02,.38,2.72,1.13c.7,.76,1.05,1.82,1.05,3.19,0,.08,0,.21,0,.38h-6.19c.05,.91,.31,1.61,.77,2.09s1.04,.73,1.73,.73c.52,0,.96-.14,1.32-.41,.36-.27,.65-.7,.87-1.3Zm-4.62-2.27h4.63c-.06-.7-.24-1.22-.53-1.57-.45-.54-1.03-.81-1.74-.81-.65,0-1.19,.22-1.63,.65-.44,.43-.68,1.01-.73,1.73Z"/><path class="c" d="M770.37,130.69v-11.45h5.08c1.02,0,1.8,.1,2.33,.31,.53,.21,.96,.57,1.27,1.09,.32,.52,.48,1.1,.48,1.73,0,.81-.26,1.5-.79,2.05-.53,.56-1.34,.91-2.44,1.06,.4,.19,.71,.38,.91,.57,.44,.41,.86,.91,1.26,1.52l1.99,3.12h-1.91l-1.52-2.38c-.44-.69-.81-1.21-1.09-1.58-.29-.36-.54-.62-.77-.77-.23-.15-.46-.25-.69-.3-.17-.04-.45-.05-.84-.05h-1.76v5.09h-1.52Zm1.52-6.4h3.26c.69,0,1.23-.07,1.62-.21,.39-.14,.69-.37,.89-.69,.2-.31,.3-.66,.3-1.03,0-.54-.2-.99-.59-1.34-.39-.35-1.01-.52-1.86-.52h-3.62v3.79Z"/><path class="c" d="M787.4,128.02l1.45,.18c-.23,.85-.65,1.51-1.27,1.98s-1.41,.7-2.38,.7c-1.21,0-2.18-.37-2.89-1.12-.71-.75-1.07-1.8-1.07-3.14s.36-2.48,1.08-3.25c.72-.77,1.65-1.16,2.8-1.16s2.02,.38,2.72,1.13c.7,.76,1.05,1.82,1.05,3.19,0,.08,0,.21,0,.38h-6.19c.05,.91,.31,1.61,.77,2.09s1.04,.73,1.73,.73c.52,0,.96-.14,1.32-.41,.36-.27,.65-.7,.87-1.3Zm-4.62-2.27h4.63c-.06-.7-.24-1.22-.53-1.57-.45-.54-1.03-.81-1.74-.81-.65,0-1.19,.22-1.63,.65-.44,.43-.68,1.01-.73,1.73Z"/><path class="c" d="M790.62,120.85v-1.62h1.41v1.62h-1.41Zm0,9.84v-8.3h1.41v8.3h-1.41Z"/><path class="c" d="M794.17,130.69v-11.45h1.41v4.11c.66-.76,1.48-1.14,2.48-1.14,.61,0,1.15,.12,1.6,.36s.78,.58,.97,1c.2,.43,.29,1.05,.29,1.86v5.26h-1.41v-5.26c0-.7-.15-1.21-.46-1.54s-.74-.48-1.29-.48c-.42,0-.81,.11-1.18,.32-.37,.22-.63,.51-.79,.88-.16,.37-.23,.88-.23,1.53v4.54h-1.41Z"/><path class="c" d="M808.75,128.02l1.45,.18c-.23,.85-.65,1.51-1.27,1.98s-1.41,.7-2.38,.7c-1.21,0-2.18-.37-2.89-1.12-.71-.75-1.07-1.8-1.07-3.14s.36-2.48,1.08-3.25c.72-.77,1.65-1.16,2.8-1.16s2.02,.38,2.72,1.13c.7,.76,1.05,1.82,1.05,3.19,0,.08,0,.21,0,.38h-6.19c.05,.91,.31,1.61,.77,2.09s1.04,.73,1.73,.73c.52,0,.96-.14,1.32-.41,.36-.27,.65-.7,.87-1.3Zm-4.62-2.27h4.63c-.06-.7-.24-1.22-.53-1.57-.45-.54-1.03-.81-1.74-.81-.65,0-1.19,.22-1.63,.65-.44,.43-.68,1.01-.73,1.73Z"/><path class="c" d="M811.97,130.69v-8.3h1.27v1.18c.61-.91,1.49-1.37,2.64-1.37,.5,0,.96,.09,1.38,.27s.73,.42,.94,.71c.21,.29,.35,.64,.44,1.04,.05,.26,.08,.72,.08,1.37v5.1h-1.41v-5.05c0-.57-.05-1-.16-1.29-.11-.28-.3-.51-.58-.68-.28-.17-.61-.25-.98-.25-.6,0-1.12,.19-1.55,.57-.43,.38-.65,1.1-.65,2.16v4.53h-1.41Z"/><path class="c" d="M821.2,130.69v-7.2h-1.24v-1.09h1.24v-.88c0-.56,.05-.97,.15-1.24,.14-.36,.37-.66,.71-.89s.82-.34,1.43-.34c.4,0,.83,.05,1.31,.14l-.21,1.23c-.29-.05-.57-.08-.83-.08-.43,0-.73,.09-.91,.27-.18,.18-.27,.52-.27,1.02v.77h1.62v1.09h-1.62v7.2h-1.4Z"/><path class="c" d="M824.79,126.54c0-1.54,.43-2.67,1.28-3.41,.71-.61,1.58-.92,2.61-.92,1.14,0,2.07,.37,2.8,1.12,.72,.75,1.09,1.78,1.09,3.1,0,1.07-.16,1.91-.48,2.52-.32,.61-.79,1.09-1.4,1.43s-1.28,.51-2,.51c-1.16,0-2.1-.37-2.82-1.12-.72-.74-1.07-1.82-1.07-3.22Zm1.45,0c0,1.06,.23,1.86,.7,2.39,.46,.53,1.05,.79,1.75,.79s1.28-.27,1.74-.8,.7-1.34,.7-2.43c0-1.03-.23-1.8-.7-2.33-.47-.53-1.05-.79-1.74-.79s-1.29,.26-1.75,.79c-.46,.53-.7,1.32-.7,2.38Z"/><path class="c" d="M834.18,130.69v-11.45h1.41v11.45h-1.41Z"/><path class="c" d="M837.51,131.38l1.37,.2c.06,.42,.22,.73,.48,.92,.35,.26,.83,.39,1.43,.39,.65,0,1.15-.13,1.51-.39,.35-.26,.59-.62,.72-1.09,.07-.29,.11-.89,.1-1.8-.61,.72-1.38,1.09-2.3,1.09-1.14,0-2.02-.41-2.65-1.23-.62-.82-.94-1.81-.94-2.96,0-.79,.14-1.52,.43-2.19,.29-.67,.7-1.19,1.25-1.55,.54-.36,1.18-.55,1.92-.55,.98,0,1.79,.4,2.42,1.19v-1h1.3v7.17c0,1.29-.13,2.21-.39,2.75s-.68,.96-1.25,1.28-1.27,.47-2.11,.47c-.99,0-1.79-.22-2.4-.67s-.9-1.12-.88-2.01Zm1.16-4.98c0,1.09,.22,1.88,.65,2.38s.97,.75,1.62,.75,1.19-.25,1.62-.75c.44-.5,.66-1.28,.66-2.34s-.23-1.78-.68-2.3-.99-.77-1.63-.77-1.16,.25-1.59,.76-.66,1.26-.66,2.26Z"/><path class="c" d="M852.34,128.02l1.45,.18c-.23,.85-.65,1.51-1.27,1.98s-1.41,.7-2.38,.7c-1.21,0-2.18-.37-2.89-1.12-.71-.75-1.07-1.8-1.07-3.14s.36-2.48,1.08-3.25c.72-.77,1.65-1.16,2.8-1.16s2.02,.38,2.72,1.13c.7,.76,1.05,1.82,1.05,3.19,0,.08,0,.21,0,.38h-6.19c.05,.91,.31,1.61,.77,2.09s1.04,.73,1.73,.73c.52,0,.96-.14,1.32-.41,.36-.27,.65-.7,.87-1.3Zm-4.62-2.27h4.63c-.06-.7-.24-1.22-.53-1.57-.45-.54-1.03-.81-1.74-.81-.65,0-1.19,.22-1.63,.65-.44,.43-.68,1.01-.73,1.73Z"/><path class="c" d="M860.02,120.85v-1.62h1.41v1.62h-1.41Zm0,9.84v-8.3h1.41v8.3h-1.41Z"/><path class="c" d="M863,128.21l1.39-.22c.08,.56,.3,.98,.65,1.28s.86,.45,1.5,.45,1.12-.13,1.44-.39c.31-.26,.47-.57,.47-.93,0-.32-.14-.57-.41-.75-.19-.12-.67-.28-1.44-.48-1.03-.26-1.75-.49-2.14-.68-.4-.19-.7-.45-.91-.79s-.31-.71-.31-1.11c0-.37,.08-.71,.25-1.03,.17-.31,.4-.58,.69-.79,.22-.16,.52-.3,.89-.41,.38-.11,.78-.17,1.21-.17,.65,0,1.22,.09,1.71,.28s.86,.44,1.09,.76,.4,.75,.48,1.29l-1.38,.19c-.06-.43-.24-.76-.54-1-.3-.24-.72-.36-1.27-.36-.65,0-1.11,.11-1.38,.32-.28,.21-.41,.46-.41,.75,0,.18,.06,.35,.17,.49,.11,.15,.29,.28,.54,.38,.14,.05,.55,.17,1.24,.36,1,.27,1.69,.48,2.08,.65,.39,.17,.7,.42,.93,.74,.22,.32,.34,.72,.34,1.2s-.14,.91-.41,1.32-.67,.73-1.18,.96-1.1,.34-1.75,.34c-1.08,0-1.9-.22-2.46-.67-.57-.45-.93-1.11-1.08-1.99Z"/><path class="c" d="M874.63,129.43l.2,1.24c-.4,.08-.75,.12-1.06,.12-.51,0-.91-.08-1.19-.24s-.48-.37-.59-.64c-.11-.26-.17-.82-.17-1.66v-4.77h-1.03v-1.09h1.03v-2.05l1.4-.84v2.9h1.41v1.09h-1.41v4.85c0,.4,.02,.66,.07,.77,.05,.11,.13,.21,.24,.27,.11,.07,.27,.1,.48,.1,.16,0,.36-.02,.62-.05Z"/><path class="c" d="M881.75,130.69h-1.3v-11.45h1.41v4.09c.59-.74,1.35-1.12,2.27-1.12,.51,0,.99,.1,1.45,.31,.46,.21,.83,.5,1.12,.87,.29,.37,.52,.82,.69,1.35,.17,.53,.25,1.09,.25,1.69,0,1.42-.35,2.52-1.05,3.3-.7,.78-1.55,1.16-2.53,1.16s-1.75-.41-2.3-1.23v1.04Zm-.02-4.21c0,1,.14,1.71,.41,2.16,.44,.72,1.04,1.09,1.8,1.09,.61,0,1.15-.27,1.59-.8,.45-.53,.67-1.33,.67-2.39s-.21-1.88-.64-2.4-.95-.77-1.56-.77-1.15,.27-1.59,.8c-.45,.53-.67,1.31-.67,2.32Z"/><path class="c" d="M895.03,128.02l1.45,.18c-.23,.85-.65,1.51-1.27,1.98s-1.41,.7-2.38,.7c-1.21,0-2.18-.37-2.89-1.12-.71-.75-1.07-1.8-1.07-3.14s.36-2.48,1.08-3.25c.72-.77,1.65-1.16,2.8-1.16s2.02,.38,2.72,1.13c.7,.76,1.05,1.82,1.05,3.19,0,.08,0,.21,0,.38h-6.19c.05,.91,.31,1.61,.77,2.09s1.04,.73,1.73,.73c.52,0,.96-.14,1.32-.41,.36-.27,.65-.7,.87-1.3Zm-4.62-2.27h4.63c-.06-.7-.24-1.22-.53-1.57-.45-.54-1.03-.81-1.74-.81-.65,0-1.19,.22-1.63,.65-.44,.43-.68,1.01-.73,1.73Z"/><path class="c" d="M898.22,130.69v-11.45h1.41v11.45h-1.41Z"/><path class="c" d="M901.81,120.85v-1.62h1.41v1.62h-1.41Zm0,9.84v-8.3h1.41v8.3h-1.41Z"/><path class="c" d="M911.04,128.02l1.45,.18c-.23,.85-.65,1.51-1.27,1.98s-1.41,.7-2.38,.7c-1.21,0-2.18-.37-2.89-1.12-.71-.75-1.07-1.8-1.07-3.14s.36-2.48,1.08-3.25c.72-.77,1.65-1.16,2.8-1.16s2.02,.38,2.72,1.13c.7,.76,1.05,1.82,1.05,3.19,0,.08,0,.21,0,.38h-6.19c.05,.91,.31,1.61,.77,2.09s1.04,.73,1.73,.73c.52,0,.96-.14,1.32-.41,.36-.27,.65-.7,.87-1.3Zm-4.62-2.27h4.63c-.06-.7-.24-1.22-.53-1.57-.45-.54-1.03-.81-1.74-.81-.65,0-1.19,.22-1.63,.65-.44,.43-.68,1.01-.73,1.73Z"/><path class="c" d="M915.55,130.69h-1.3v-11.45h1.41v4.09c.59-.74,1.35-1.12,2.27-1.12,.51,0,.99,.1,1.45,.31,.46,.21,.83,.5,1.12,.87,.29,.37,.52,.82,.69,1.35,.17,.53,.25,1.09,.25,1.69,0,1.42-.35,2.52-1.05,3.3-.7,.78-1.55,1.16-2.53,1.16s-1.75-.41-2.3-1.23v1.04Zm-.02-4.21c0,1,.14,1.71,.41,2.16,.44,.72,1.04,1.09,1.8,1.09,.61,0,1.15-.27,1.59-.8,.45-.53,.67-1.33,.67-2.39s-.21-1.88-.64-2.4-.95-.77-1.56-.77-1.15,.27-1.59,.8c-.45,.53-.67,1.31-.67,2.32Z"/><path class="c" d="M923.16,120.85v-1.62h1.41v1.62h-1.41Zm0,9.84v-8.3h1.41v8.3h-1.41Z"/><path class="c" d="M926.45,131.38l1.37,.2c.06,.42,.22,.73,.48,.92,.35,.26,.83,.39,1.43,.39,.65,0,1.15-.13,1.51-.39,.35-.26,.59-.62,.72-1.09,.07-.29,.11-.89,.1-1.8-.61,.72-1.38,1.09-2.3,1.09-1.14,0-2.02-.41-2.65-1.23-.62-.82-.94-1.81-.94-2.96,0-.79,.14-1.52,.43-2.19,.29-.67,.7-1.19,1.25-1.55,.54-.36,1.18-.55,1.92-.55,.98,0,1.79,.4,2.42,1.19v-1h1.3v7.17c0,1.29-.13,2.21-.39,2.75s-.68,.96-1.25,1.28-1.27,.47-2.11,.47c-.99,0-1.79-.22-2.4-.67s-.9-1.12-.88-2.01Zm1.16-4.98c0,1.09,.22,1.88,.65,2.38s.97,.75,1.62,.75,1.19-.25,1.62-.75c.44-.5,.66-1.28,.66-2.34s-.23-1.78-.68-2.3-.99-.77-1.63-.77-1.16,.25-1.59,.76-.66,1.26-.66,2.26Z"/></g><line class="k" x1="754.39" y1="106.74" x2="706.58" y2="106.68"/><line class="k" x1="177.06" y1="270.02" x2="217.91" y2="136.68"/><text class="d" transform="translate(231.67 110.69)"><tspan x="0" y="0">Projekt-N</tspan><tspan class="j" x="62.23" y="0">r</tspan><tspan x="66.91" y="0">.</tspan></text><text class="g" transform="translate(329.96 110.69)"><tspan x="0" y="0">Bezeichnung</tspan></text><text class="g" transform="translate(494.76 110.69)"><tspan x="0" y="0">Auftrraggeber</tspan></text><text class="g" transform="translate(613.74 110.69)"><tspan x="0" y="0">Start-Datum</tspan></text><text class="i" transform="translate(231.48 145.58)"><tspan x="0" y="0">10204</tspan></text><text class="i" transform="translate(231.87 180.47)"><tspan x="0" y="0">10205</tspan></text><text class="i" transform="translate(231.48 215.36)"><tspan x="0" y="0">10206</tspan></text><text class="i" transform="translate(329.96 145.58)"><tspan x="0" y="0">Corporate Design</tspan></text><text class="i" transform="translate(329.96 180.47)"><tspan x="0" y="0">Employee</tspan><tspan class="j" x="62.25" y="0"> </tspan><tspan x="65.37" y="0">App</tspan></text><text class="i" transform="translate(327.93 215.36)"><tspan x="0" y="0">ER</tspan><tspan class="b" x="19.45" y="0">P</tspan><tspan x="28.53" y="0" xml:space="preserve"> Release Upgrade</tspan></text><text class="i" transform="translate(495.72 147.75)"><tspan x="0" y="0">Muster Firma</tspan></text><text class="i" transform="translate(495.72 180.47)"><tspan x="0" y="0">Enterprise</tspan><tspan class="j" x="63.81" y="0" xml:space="preserve"> A</tspan></text><text class="i" transform="translate(495.72 215.36)"><tspan x="0" y="0">AD Factory</tspan></text><text class="i" transform="translate(613.74 147.75)"><tspan x="0" y="0">01.01.2022</tspan></text><text class="i" transform="translate(613.74 180.47)"><tspan x="0" y="0">01.04.2022</tspan></text><text class="i" transform="translate(613.74 215.36)"><tspan x="0" y="0">01.12.2023</tspan></text><line class="k" x1="177.06" y1="270.02" x2="217.91" y2="211.57"/><line class="k" x1="177.06" y1="270.02" x2="217.91" y2="175.77"/></g><text class="h" transform="translate(961.26 240.36)"><tspan x="0" y="0">1</tspan></text></svg>