<?xml version="1.0" encoding="UTF-8"?>
<svg id="Ebene_1" data-name="Ebene 1" xmlns="http://www.w3.org/2000/svg" viewBox="0 0 988 525">
  <defs>
    <style>
      .cls-1 {
        letter-spacing: 0em;
      }

      .cls-2 {
        letter-spacing: 0em;
      }

      .cls-3 {
        letter-spacing: 0em;
      }

      .cls-4 {
        letter-spacing: -.01em;
      }

      .cls-5 {
        letter-spacing: -.01em;
      }

      .cls-6 {
        letter-spacing: -.01em;
      }

      .cls-7 {
        letter-spacing: 0em;
      }

      .cls-8 {
        letter-spacing: 0em;
      }

      .cls-9 {
        letter-spacing: 0em;
      }

      .cls-10 {
        letter-spacing: 0em;
      }

      .cls-11 {
        letter-spacing: -.01em;
      }

      .cls-12 {
        font-family: Arial-BoldMT, Arial;
        font-weight: 700;
      }

      .cls-12, .cls-13, .cls-14 {
        font-size: 20px;
      }

      .cls-12, .cls-15 {
        fill: #fff;
      }

      .cls-13, .cls-14 {
        font-family: ArialMT, Arial;
      }

      .cls-13, .cls-16 {
        fill: #0333ff;
      }

      .cls-14, .cls-17 {
        fill: #1d1d1b;
      }

      .cls-18 {
        letter-spacing: -.01em;
      }

      .cls-19 {
        letter-spacing: 0em;
      }

      .cls-20 {
        letter-spacing: 0em;
      }

      .cls-21 {
        letter-spacing: 0em;
      }

      .cls-15, .cls-22 {
        stroke: #1d1d1b;
      }

      .cls-15, .cls-22, .cls-23 {
        stroke-miterlimit: 10;
      }

      .cls-24 {
        letter-spacing: -.02em;
      }

      .cls-22 {
        stroke-width: 2px;
      }

      .cls-22, .cls-23 {
        fill: none;
      }

      .cls-25 {
        letter-spacing: -.02em;
      }

      .cls-26 {
        letter-spacing: 0em;
      }

      .cls-23 {
        stroke: #0333ff;
      }

      .cls-27 {
        letter-spacing: -.01em;
      }

      .cls-28 {
        letter-spacing: -.01em;
      }

      .cls-29 {
        letter-spacing: -.01em;
      }

      .cls-30 {
        letter-spacing: 0em;
      }

      .cls-31 {
        letter-spacing: 0em;
      }

      .cls-32 {
        letter-spacing: 0em;
      }

      .cls-33 {
        letter-spacing: -.02em;
      }

      .cls-34 {
        letter-spacing: 0em;
      }

      .cls-17, .cls-16 {
        stroke-width: 0px;
      }

      .cls-35 {
        letter-spacing: -.02em;
      }

      .cls-36 {
        letter-spacing: 0em;
      }

      .cls-37 {
        letter-spacing: 0em;
      }

      .cls-38 {
        letter-spacing: 0em;
      }

      .cls-39 {
        letter-spacing: 0em;
      }
    </style>
  </defs>
  <g>
    <g>
      <line class="cls-23" x1="54.45" y1="125.14" x2="483.69" y2="125.14"/>
      <polygon class="cls-16" points="55.55 128.88 49.07 125.14 55.55 121.4 55.55 128.88"/>
      <polygon class="cls-16" points="482.6 128.88 489.07 125.14 482.6 121.4 482.6 128.88"/>
    </g>
    <g>
      <line class="cls-23" x1="504.45" y1="125.14" x2="933.69" y2="125.14"/>
      <polygon class="cls-16" points="505.55 128.88 499.07 125.14 505.55 121.4 505.55 128.88"/>
      <polygon class="cls-16" points="932.6 128.88 939.07 125.14 932.6 121.4 932.6 128.88"/>
    </g>
  </g>
  <text class="cls-13" transform="translate(190.71 96.74)"><tspan class="cls-30" x="0" y="0">C</tspan><tspan class="cls-2" x="14.48" y="0">o</tspan><tspan class="cls-5" x="25.49" y="0">n</tspan><tspan class="cls-7" x="36.41" y="0">c</tspan><tspan class="cls-37" x="46.56" y="0">e</tspan><tspan class="cls-35" x="57.51" y="0">p</tspan><tspan class="cls-21" x="68.3" y="0">t</tspan><tspan class="cls-5" x="73.66" y="0">u</tspan><tspan class="cls-32" x="84.58" y="0">a</tspan><tspan class="cls-18" x="95.51" y="0">l</tspan><tspan class="cls-11" x="99.71" y="0">i</tspan><tspan class="cls-9" x="103.93" y="0">z</tspan><tspan class="cls-24" x="113.95" y="0">a</tspan><tspan class="cls-20" x="124.76" y="0">t</tspan><tspan class="cls-36" x="130.23" y="0">i</tspan><tspan class="cls-2" x="134.59" y="0">o</tspan><tspan x="145.6" y="0">n</tspan></text>
  <text class="cls-13" transform="translate(639.65 96.74)"><tspan class="cls-38" x="0" y="0">O</tspan><tspan class="cls-1" x="15.6" y="0">p</tspan><tspan class="cls-39" x="26.61" y="0">e</tspan><tspan class="cls-1" x="37.58" y="0">r</tspan><tspan class="cls-25" x="44.13" y="0">a</tspan><tspan class="cls-20" x="54.95" y="0">t</tspan><tspan class="cls-36" x="60.42" y="0">i</tspan><tspan class="cls-2" x="64.78" y="0">o</tspan><tspan class="cls-4" x="75.79" y="0">n</tspan><tspan class="cls-31" x="86.7" y="0">a</tspan><tspan class="cls-18" x="97.63" y="0">l</tspan><tspan class="cls-28" x="101.83" y="0">i</tspan><tspan class="cls-26" x="106.05" y="0">z</tspan><tspan class="cls-25" x="116.07" y="0">a</tspan><tspan class="cls-20" x="126.88" y="0">t</tspan><tspan class="cls-36" x="132.35" y="0">i</tspan><tspan class="cls-2" x="136.71" y="0">o</tspan><tspan x="147.72" y="0">n</tspan></text>
  <g>
    <rect class="cls-15" x="48.93" y="140.3" width="210" height="60"/>
    <text class="cls-14" transform="translate(117.01 176.89)"><tspan class="cls-30" x="0" y="0">C</tspan><tspan class="cls-2" x="14.48" y="0">o</tspan><tspan class="cls-6" x="25.49" y="0">n</tspan><tspan class="cls-8" x="36.41" y="0">c</tspan><tspan class="cls-37" x="46.56" y="0">e</tspan><tspan class="cls-33" x="57.51" y="0">p</tspan><tspan x="68.3" y="0">t</tspan></text>
  </g>
  <g>
    <rect class="cls-15" x="275.64" y="140.3" width="210" height="60"/>
    <text class="cls-14" transform="translate(329.08 176.89)"><tspan class="cls-34" x="0" y="0">D</tspan><tspan class="cls-6" x="14.41" y="0">i</tspan><tspan class="cls-10" x="18.65" y="0">m</tspan><tspan class="cls-37" x="35.18" y="0">e</tspan><tspan class="cls-29" x="46.14" y="0">n</tspan><tspan class="cls-19" x="57.04" y="0">s</tspan><tspan class="cls-36" x="66.86" y="0">i</tspan><tspan class="cls-3" x="71.22" y="0">o</tspan><tspan class="cls-27" x="82.23" y="0">n</tspan><tspan x="93.13" y="0">s</tspan></text>
  </g>
  <g>
    <rect class="cls-17" x="113.93" y="308.29" width="80" height="60"/>
    <text class="cls-12" transform="translate(146.72 345.27)"><tspan x="0" y="0">C</tspan></text>
  </g>
  <g>
    <rect class="cls-17" x="340.64" y="248.29" width="80" height="60"/>
    <text class="cls-12" transform="translate(373.43 285.27)"><tspan x="0" y="0">C</tspan></text>
  </g>
  <g>
    <rect class="cls-17" x="340.64" y="368.29" width="80" height="60"/>
    <text class="cls-12" transform="translate(373.43 405.27)"><tspan x="0" y="0">C</tspan></text>
  </g>
  <line class="cls-22" x1="193.93" y1="338.29" x2="340.64" y2="278.29"/>
  <line class="cls-22" x1="193.93" y1="338.29" x2="340.64" y2="398.27"/>
</svg>