<?xml version="1.0" encoding="UTF-8"?><svg id="Ebene_1" xmlns="http://www.w3.org/2000/svg" xmlns:xlink="http://www.w3.org/1999/xlink" viewBox="0 0 988 525"><defs><clipPath id="clippath"><polygon points="286.89 113.77 235.05 143.9 182.87 113.77 234.71 83.64 286.89 113.77" style="fill:#1d1d1b; stroke:#fff; stroke-linejoin:round; stroke-width:2px;"/></clipPath><clipPath id="clippath-1"><polygon points="286.89 113.77 286.72 174.91 234.88 205.04 235.05 143.9 286.89 113.77" style="fill:#1d1d1b; stroke:#fff; stroke-linejoin:round; stroke-width:2px;"/></clipPath><clipPath id="clippath-2"><polygon points="235.05 143.9 234.88 205.04 182.7 174.91 182.87 113.77 235.05 143.9" style="fill:#1d1d1b; stroke:#fff; stroke-linejoin:round; stroke-width:2px;"/></clipPath><clipPath id="clippath-3"><polygon points="286.46 420.91 234.62 451.04 182.44 420.91 234.28 390.78 286.46 420.91" style="fill:none; stroke:#000; stroke-dasharray:0 0 4 4; stroke-linejoin:round;"/></clipPath><clipPath id="clippath-4"><polygon points="286.64 359.77 234.79 389.9 182.61 359.77 234.46 329.64 286.64 359.77" style="fill:none; stroke:#000; stroke-dasharray:0 0 4 4; stroke-linejoin:round;"/></clipPath><clipPath id="clippath-5"><polygon points="286.64 359.77 286.46 420.91 234.62 451.04 234.79 389.9 286.64 359.77" style="fill:none; stroke:#000; stroke-dasharray:0 0 4 4; stroke-linejoin:round;"/></clipPath><clipPath id="clippath-6"><polygon points="234.79 389.9 234.62 451.04 182.44 420.91 182.61 359.77 234.79 389.9" style="fill:none; stroke:#000; stroke-dasharray:0 0 4 4; stroke-linejoin:round;"/></clipPath><clipPath id="clippath-7"><polygon points="182.61 359.77 234.46 329.64 234.28 390.78 182.44 420.91 182.61 359.77" style="fill:none; stroke:#000; stroke-dasharray:0 0 4 4; stroke-linejoin:round;"/></clipPath><clipPath id="clippath-8"><polygon points="234.46 329.64 286.64 359.77 286.46 420.91 234.28 390.78 234.46 329.64" style="fill:none; stroke:#000; stroke-dasharray:0 0 4 4; stroke-linejoin:round;"/></clipPath></defs><path d="m86.32,143.9v-11.45h4.32c.76,0,1.34.04,1.74.11.56.09,1.03.27,1.41.54.38.26.69.63.92,1.11.23.47.35,1,.35,1.56,0,.97-.31,1.8-.93,2.47-.62.67-1.74,1.01-3.36,1.01h-2.94v4.66h-1.52Zm1.52-6.01h2.96c.98,0,1.67-.18,2.09-.55.41-.36.62-.88.62-1.54,0-.48-.12-.89-.36-1.23-.24-.34-.56-.57-.96-.68-.25-.07-.73-.1-1.41-.1h-2.93v4.09Z" style="fill:#010101;"/><path d="m96.82,143.9v-11.45h1.41v4.11c.66-.76,1.48-1.14,2.48-1.14.61,0,1.15.12,1.6.36s.78.58.97,1c.2.43.29,1.05.29,1.86v5.26h-1.41v-5.26c0-.7-.15-1.21-.46-1.54s-.74-.48-1.29-.48c-.42,0-.81.11-1.18.32-.37.22-.63.51-.79.88-.16.37-.23.88-.23,1.53v4.54h-1.41Z" style="fill:#010101;"/><path d="m105.65,147.09l-.16-1.32c.31.08.58.12.8.12.31,0,.56-.05.75-.16.19-.1.34-.25.46-.44.09-.14.23-.49.43-1.05.03-.08.07-.19.12-.34l-3.15-8.31h1.52l1.73,4.8c.22.61.42,1.25.6,1.92.16-.65.35-1.28.58-1.89l1.77-4.84h1.41l-3.16,8.44c-.34.91-.6,1.54-.79,1.88-.25.46-.54.8-.86,1.02-.32.22-.71.32-1.16.32-.27,0-.57-.06-.91-.17Z" style="fill:#010101;"/><path d="m113.15,141.42l1.39-.22c.08.56.3.98.65,1.28s.86.45,1.5.45,1.12-.13,1.44-.39c.31-.26.47-.57.47-.93,0-.32-.14-.57-.41-.75-.19-.12-.67-.28-1.44-.48-1.03-.26-1.75-.49-2.14-.68-.4-.19-.7-.45-.91-.79s-.31-.71-.31-1.11c0-.37.08-.71.25-1.03.17-.31.4-.58.69-.79.22-.16.52-.3.89-.41.38-.11.78-.17,1.21-.17.65,0,1.22.09,1.71.28s.86.44,1.09.76.4.75.48,1.29l-1.38.19c-.06-.43-.24-.76-.54-1-.3-.24-.72-.36-1.27-.36-.65,0-1.11.11-1.38.32-.28.21-.41.46-.41.75,0,.18.06.35.17.49.11.15.29.28.54.38.14.05.55.17,1.24.36,1,.27,1.69.48,2.08.65.39.17.7.42.93.74.22.32.34.72.34,1.2s-.14.91-.41,1.32-.67.73-1.18.96-1.1.34-1.75.34c-1.08,0-1.9-.22-2.46-.67-.57-.45-.93-1.11-1.08-1.99Z" style="fill:#010101;"/><path d="m121.72,134.06v-1.62h1.41v1.62h-1.41Zm0,9.84v-8.3h1.41v8.3h-1.41Z" style="fill:#010101;"/><path d="m130.68,140.86l1.38.18c-.15.95-.54,1.7-1.16,2.24s-1.39.81-2.29.81c-1.14,0-2.05-.37-2.74-1.11s-1.04-1.81-1.04-3.19c0-.9.15-1.68.45-2.35s.75-1.18,1.36-1.51,1.27-.5,1.98-.5c.9,0,1.64.23,2.21.68.57.46.94,1.1,1.1,1.94l-1.37.21c-.13-.56-.36-.98-.69-1.26s-.73-.42-1.2-.42c-.71,0-1.28.25-1.73.76s-.66,1.31-.66,2.41.21,1.92.64,2.43c.43.51.98.76,1.67.76.55,0,1.01-.17,1.38-.51.37-.34.6-.86.7-1.56Z" style="fill:#010101;"/><path d="m138.68,142.88c-.52.44-1.02.76-1.5.94s-1,.27-1.55.27c-.91,0-1.61-.22-2.1-.67s-.73-1.01-.73-1.71c0-.41.09-.78.28-1.11s.43-.61.73-.81.64-.36,1.01-.46c.28-.07.69-.14,1.25-.21,1.14-.14,1.97-.3,2.51-.48,0-.19,0-.31,0-.37,0-.57-.13-.98-.4-1.21-.36-.32-.89-.48-1.6-.48-.66,0-1.15.12-1.46.35-.32.23-.55.64-.7,1.23l-1.38-.19c.12-.59.33-1.06.62-1.43.29-.36.7-.64,1.24-.84s1.17-.29,1.88-.29,1.28.08,1.73.25c.44.17.77.38.98.63.21.25.35.57.44.96.05.24.07.67.07,1.3v1.88c0,1.31.03,2.13.09,2.48.06.35.18.68.36,1h-1.47c-.15-.29-.24-.63-.28-1.02Zm-.12-3.14c-.51.21-1.28.39-2.3.53-.58.08-.99.18-1.23.28-.24.1-.42.26-.55.46-.13.2-.2.42-.2.67,0,.38.14.69.43.94s.7.38,1.25.38,1.02-.12,1.45-.36c.42-.24.73-.56.93-.97.15-.32.23-.79.23-1.41v-.52Z" style="fill:#010101;"/><path d="m142.14,143.9v-11.45h1.41v11.45h-1.41Z" style="fill:#010101;"/><path d="m103.03,163.1v-8.3h1.27v1.26c.32-.59.62-.98.89-1.16s.57-.28.9-.28c.47,0,.96.15,1.45.45l-.48,1.3c-.34-.2-.69-.3-1.03-.3-.31,0-.58.09-.83.28-.25.19-.42.44-.52.77-.16.5-.23,1.05-.23,1.64v4.34h-1.41Z" style="fill:#010101;"/><path d="m114.05,160.43l1.45.18c-.23.85-.65,1.51-1.27,1.98s-1.41.7-2.38.7c-1.21,0-2.18-.37-2.89-1.12-.71-.75-1.07-1.8-1.07-3.14s.36-2.48,1.08-3.25c.72-.77,1.65-1.16,2.8-1.16s2.02.38,2.72,1.13c.7.76,1.05,1.82,1.05,3.19,0,.08,0,.21,0,.38h-6.19c.05.91.31,1.61.77,2.09s1.04.73,1.73.73c.52,0,.96-.14,1.32-.41.36-.27.65-.7.87-1.3Zm-4.62-2.27h4.63c-.06-.7-.24-1.22-.53-1.57-.45-.54-1.03-.81-1.74-.81-.65,0-1.19.22-1.63.65-.44.43-.68,1.01-.73,1.73Z" style="fill:#010101;"/><path d="m122.68,162.08c-.52.44-1.02.76-1.5.94s-1,.27-1.55.27c-.91,0-1.61-.22-2.1-.67s-.73-1.01-.73-1.71c0-.41.09-.78.28-1.11s.43-.61.73-.81.64-.36,1.01-.46c.28-.07.69-.14,1.25-.21,1.14-.14,1.97-.3,2.51-.48,0-.19,0-.31,0-.37,0-.57-.13-.98-.4-1.21-.36-.32-.89-.48-1.6-.48-.66,0-1.15.12-1.46.35-.32.23-.55.64-.7,1.23l-1.38-.19c.12-.59.33-1.06.62-1.43.29-.36.7-.64,1.24-.84s1.17-.29,1.88-.29,1.28.08,1.73.25c.44.17.77.38.98.63.21.25.35.57.44.96.05.24.07.67.07,1.3v1.88c0,1.31.03,2.13.09,2.48.06.35.18.68.36,1h-1.47c-.15-.29-.24-.63-.28-1.02Zm-.12-3.14c-.51.21-1.28.39-2.3.53-.58.08-.99.18-1.23.28-.24.1-.42.26-.55.46-.13.2-.2.42-.2.67,0,.38.14.69.43.94s.7.38,1.25.38,1.02-.12,1.45-.36c.42-.24.73-.56.93-.97.15-.32.23-.79.23-1.41v-.52Z" style="fill:#010101;"/><path d="m126.14,163.1v-11.45h1.41v11.45h-1.41Z" style="fill:#010101;"/><path d="m129.73,153.26v-1.62h1.41v1.62h-1.41Zm0,9.84v-8.3h1.41v8.3h-1.41Z" style="fill:#010101;"/><path d="m136.35,161.84l.2,1.24c-.4.08-.75.12-1.06.12-.51,0-.91-.08-1.19-.24s-.48-.37-.59-.64c-.11-.26-.17-.82-.17-1.66v-4.77h-1.03v-1.09h1.03v-2.05l1.4-.84v2.9h1.41v1.09h-1.41v4.85c0,.4.02.66.07.77.05.11.13.21.24.27.11.07.27.1.48.1.16,0,.36-.02.62-.05Z" style="fill:#010101;"/><path d="m137.66,166.29l-.16-1.32c.31.08.58.12.8.12.31,0,.56-.05.75-.16.19-.1.34-.25.46-.44.09-.14.23-.49.43-1.05.03-.08.07-.19.12-.34l-3.15-8.31h1.52l1.73,4.8c.22.61.42,1.25.6,1.92.16-.65.35-1.28.58-1.89l1.77-4.84h1.41l-3.16,8.44c-.34.91-.6,1.54-.79,1.88-.25.46-.54.8-.86,1.02-.32.22-.71.32-1.16.32-.27,0-.57-.06-.91-.17Z" style="fill:#010101;"/><path d="m104.11,390.34l-4.44-11.45h1.64l2.98,8.32c.24.67.44,1.29.6,1.88.18-.62.38-1.25.62-1.88l3.09-8.32h1.55l-4.48,11.45h-1.55Z" style="fill:#010101;"/><path d="m111.05,380.5v-1.62h1.41v1.62h-1.41Zm0,9.84v-8.3h1.41v8.3h-1.41Z" style="fill:#010101;"/><path d="m114.58,390.34v-8.3h1.27v1.26c.32-.59.62-.98.89-1.16s.57-.28.9-.28c.47,0,.96.15,1.45.45l-.48,1.3c-.34-.2-.69-.3-1.03-.3-.31,0-.58.09-.83.28-.25.19-.42.44-.52.77-.16.5-.23,1.05-.23,1.64v4.34h-1.41Z" style="fill:#010101;"/><path d="m123,389.08l.2,1.24c-.4.08-.75.12-1.06.12-.51,0-.91-.08-1.19-.24s-.48-.37-.59-.64c-.11-.26-.17-.82-.17-1.66v-4.77h-1.03v-1.09h1.03v-2.05l1.4-.84v2.9h1.41v1.09h-1.41v4.85c0,.4.02.66.07.77.05.11.13.21.24.27.11.07.27.1.48.1.16,0,.36-.02.62-.05Z" style="fill:#010101;"/><path d="m129.81,390.34v-1.22c-.65.94-1.52,1.41-2.63,1.41-.49,0-.95-.09-1.37-.28s-.74-.42-.95-.71c-.21-.28-.35-.63-.43-1.04-.06-.28-.09-.71-.09-1.31v-5.14h1.41v4.6c0,.73.03,1.23.09,1.48.09.37.28.66.56.87s.64.32,1.06.32.82-.11,1.19-.32c.37-.22.63-.51.79-.88.15-.37.23-.91.23-1.62v-4.45h1.41v8.3h-1.26Z" style="fill:#010101;"/><path d="m138.68,389.32c-.52.44-1.02.76-1.5.94s-1,.27-1.55.27c-.91,0-1.61-.22-2.1-.67s-.73-1.01-.73-1.71c0-.41.09-.78.28-1.11s.43-.61.73-.81.64-.36,1.01-.46c.28-.07.69-.14,1.25-.21,1.14-.14,1.97-.3,2.51-.48,0-.19,0-.31,0-.37,0-.57-.13-.98-.4-1.21-.36-.32-.89-.48-1.6-.48-.66,0-1.15.12-1.46.35-.32.23-.55.64-.7,1.23l-1.38-.19c.12-.59.33-1.06.62-1.43.29-.36.7-.64,1.24-.84s1.17-.29,1.88-.29,1.28.08,1.73.25c.44.17.77.38.98.63.21.25.35.57.44.96.05.24.07.67.07,1.3v1.88c0,1.31.03,2.13.09,2.48.06.35.18.68.36,1h-1.47c-.15-.29-.24-.63-.28-1.02Zm-.12-3.14c-.51.21-1.28.39-2.3.53-.58.08-.99.18-1.23.28-.24.1-.42.26-.55.46-.13.2-.2.42-.2.67,0,.38.14.69.43.94s.7.38,1.25.38,1.02-.12,1.45-.36c.42-.24.73-.56.93-.97.15-.32.23-.79.23-1.41v-.52Z" style="fill:#010101;"/><path d="m142.14,390.34v-11.45h1.41v11.45h-1.41Z" style="fill:#010101;"/><path d="m43.42,409.54v-8.3h1.27v1.26c.32-.59.62-.98.89-1.16s.57-.28.9-.28c.47,0,.96.15,1.45.45l-.48,1.3c-.34-.2-.69-.3-1.03-.3-.31,0-.58.09-.83.28-.25.19-.42.44-.52.77-.16.5-.23,1.05-.23,1.64v4.34h-1.41Z" style="fill:#010101;"/><path d="m54.44,406.87l1.45.18c-.23.85-.65,1.51-1.27,1.98s-1.41.7-2.38.7c-1.21,0-2.18-.37-2.89-1.12-.71-.75-1.07-1.8-1.07-3.14s.36-2.48,1.08-3.25c.72-.77,1.65-1.16,2.8-1.16s2.02.38,2.72,1.13c.7.76,1.05,1.82,1.05,3.19,0,.08,0,.21,0,.38h-6.19c.05.91.31,1.61.77,2.09s1.04.73,1.73.73c.52,0,.96-.14,1.32-.41.36-.27.65-.7.87-1.3Zm-4.62-2.27h4.63c-.06-.7-.24-1.22-.53-1.57-.45-.54-1.03-.81-1.74-.81-.65,0-1.19.22-1.63.65-.44.43-.68,1.01-.73,1.73Z" style="fill:#010101;"/><path d="m57.66,412.72v-11.48h1.28v1.08c.3-.42.64-.74,1.02-.95s.84-.32,1.38-.32c.71,0,1.33.18,1.88.55.54.36.95.88,1.23,1.54s.41,1.39.41,2.18c0,.85-.15,1.61-.46,2.29s-.75,1.2-1.33,1.56-1.19.54-1.83.54c-.47,0-.89-.1-1.26-.3s-.68-.45-.92-.75v4.04h-1.41Zm1.27-7.28c0,1.07.22,1.86.65,2.37.43.51.96.77,1.57.77s1.16-.26,1.61-.79c.45-.53.67-1.35.67-2.46s-.22-1.85-.65-2.38c-.43-.53-.95-.79-1.56-.79s-1.13.28-1.59.84c-.46.56-.69,1.37-.69,2.44Z" style="fill:#010101;"/><path d="m66.54,409.54v-8.3h1.27v1.26c.32-.59.62-.98.89-1.16s.57-.28.9-.28c.47,0,.96.15,1.45.45l-.48,1.3c-.34-.2-.69-.3-1.03-.3-.31,0-.58.09-.83.28-.25.19-.42.44-.52.77-.16.5-.23,1.05-.23,1.64v4.34h-1.41Z" style="fill:#010101;"/><path d="m77.57,406.87l1.45.18c-.23.85-.65,1.51-1.27,1.98s-1.41.7-2.38.7c-1.21,0-2.18-.37-2.89-1.12-.71-.75-1.07-1.8-1.07-3.14s.36-2.48,1.08-3.25c.72-.77,1.65-1.16,2.8-1.16s2.02.38,2.72,1.13c.7.76,1.05,1.82,1.05,3.19,0,.08,0,.21,0,.38h-6.19c.05.91.31,1.61.77,2.09s1.04.73,1.73.73c.52,0,.96-.14,1.32-.41.36-.27.65-.7.87-1.3Zm-4.62-2.27h4.63c-.06-.7-.24-1.22-.53-1.57-.45-.54-1.03-.81-1.74-.81-.65,0-1.19.22-1.63.65-.44.43-.68,1.01-.73,1.73Z" style="fill:#010101;"/><path d="m80.22,407.06l1.39-.22c.08.56.3.98.65,1.28s.86.45,1.5.45,1.12-.13,1.44-.39c.31-.26.47-.57.47-.93,0-.32-.14-.57-.41-.75-.19-.12-.67-.28-1.44-.48-1.03-.26-1.75-.49-2.14-.68-.4-.19-.7-.45-.91-.79s-.31-.71-.31-1.11c0-.37.08-.71.25-1.03.17-.31.4-.58.69-.79.22-.16.52-.3.89-.41.38-.11.78-.17,1.21-.17.65,0,1.22.09,1.71.28s.86.44,1.09.76.4.75.48,1.29l-1.38.19c-.06-.43-.24-.76-.54-1-.3-.24-.72-.36-1.27-.36-.65,0-1.11.11-1.38.32-.28.21-.41.46-.41.75,0,.18.06.35.17.49.11.15.29.28.54.38.14.05.55.17,1.24.36,1,.27,1.69.48,2.08.65.39.17.7.42.93.74.22.32.34.72.34,1.2s-.14.91-.41,1.32-.67.73-1.18.96-1.1.34-1.75.34c-1.08,0-1.9-.22-2.46-.67-.57-.45-.93-1.11-1.08-1.99Z" style="fill:#010101;"/><path d="m94.46,406.87l1.45.18c-.23.85-.65,1.51-1.27,1.98s-1.41.7-2.38.7c-1.21,0-2.18-.37-2.89-1.12-.71-.75-1.07-1.8-1.07-3.14s.36-2.48,1.08-3.25c.72-.77,1.65-1.16,2.8-1.16s2.02.38,2.72,1.13c.7.76,1.05,1.82,1.05,3.19,0,.08,0,.21,0,.38h-6.19c.05.91.31,1.61.77,2.09s1.04.73,1.73.73c.52,0,.96-.14,1.32-.41.36-.27.65-.7.87-1.3Zm-4.62-2.27h4.63c-.06-.7-.24-1.22-.53-1.57-.45-.54-1.03-.81-1.74-.81-.65,0-1.19.22-1.63.65-.44.43-.68,1.01-.73,1.73Z" style="fill:#010101;"/><path d="m97.68,409.54v-8.3h1.27v1.18c.61-.91,1.49-1.37,2.64-1.37.5,0,.96.09,1.38.27s.73.42.94.71c.21.29.35.64.44,1.04.05.26.08.72.08,1.37v5.1h-1.41v-5.05c0-.57-.05-1-.16-1.29-.11-.28-.3-.51-.58-.68-.28-.17-.61-.25-.98-.25-.6,0-1.12.19-1.55.57-.43.38-.65,1.1-.65,2.16v4.53h-1.41Z" style="fill:#010101;"/><path d="m109.65,408.28l.2,1.24c-.4.08-.75.12-1.06.12-.51,0-.91-.08-1.19-.24s-.48-.37-.59-.64c-.11-.26-.17-.82-.17-1.66v-4.77h-1.03v-1.09h1.03v-2.05l1.4-.84v2.9h1.41v1.09h-1.41v4.85c0,.4.02.66.07.77.05.11.13.21.24.27.11.07.27.1.48.1.16,0,.36-.02.62-.05Z" style="fill:#010101;"/><path d="m116.44,408.52c-.52.44-1.02.76-1.5.94s-1,.27-1.55.27c-.91,0-1.61-.22-2.1-.67s-.73-1.01-.73-1.71c0-.41.09-.78.28-1.11s.43-.61.73-.81.64-.36,1.01-.46c.28-.07.69-.14,1.25-.21,1.14-.14,1.97-.3,2.51-.48,0-.19,0-.31,0-.37,0-.57-.13-.98-.4-1.21-.36-.32-.89-.48-1.6-.48-.66,0-1.15.12-1.46.35-.32.23-.55.64-.7,1.23l-1.38-.19c.12-.59.33-1.06.62-1.43.29-.36.7-.64,1.24-.84s1.17-.29,1.88-.29,1.28.08,1.73.25c.44.17.77.38.98.63.21.25.35.57.44.96.05.24.07.67.07,1.3v1.88c0,1.31.03,2.13.09,2.48.06.35.18.68.36,1h-1.47c-.15-.29-.24-.63-.28-1.02Zm-.12-3.14c-.51.21-1.28.39-2.3.53-.58.08-.99.18-1.23.28-.24.1-.42.26-.55.46-.13.2-.2.42-.2.67,0,.38.14.69.43.94s.7.38,1.25.38,1.02-.12,1.45-.36c.42-.24.73-.56.93-.97.15-.32.23-.79.23-1.41v-.52Z" style="fill:#010101;"/><path d="m123,408.28l.2,1.24c-.4.08-.75.12-1.06.12-.51,0-.91-.08-1.19-.24s-.48-.37-.59-.64c-.11-.26-.17-.82-.17-1.66v-4.77h-1.03v-1.09h1.03v-2.05l1.4-.84v2.9h1.41v1.09h-1.41v4.85c0,.4.02.66.07.77.05.11.13.21.24.27.11.07.27.1.48.1.16,0,.36-.02.62-.05Z" style="fill:#010101;"/><path d="m124.38,399.71v-1.62h1.41v1.62h-1.41Zm0,9.84v-8.3h1.41v8.3h-1.41Z" style="fill:#010101;"/><path d="m127.4,405.39c0-1.54.43-2.67,1.28-3.41.71-.61,1.58-.92,2.61-.92,1.14,0,2.07.37,2.8,1.12.72.75,1.09,1.78,1.09,3.1,0,1.07-.16,1.91-.48,2.52-.32.61-.79,1.09-1.4,1.43s-1.28.51-2,.51c-1.16,0-2.1-.37-2.82-1.12-.72-.74-1.07-1.82-1.07-3.22Zm1.45,0c0,1.06.23,1.86.7,2.39.46.53,1.05.79,1.75.79s1.28-.27,1.74-.8.7-1.34.7-2.43c0-1.03-.23-1.8-.7-2.33-.47-.53-1.05-.79-1.74-.79s-1.29.26-1.75.79c-.46.53-.7,1.32-.7,2.38Z" style="fill:#010101;"/><path d="m136.82,409.54v-8.3h1.27v1.18c.61-.91,1.49-1.37,2.64-1.37.5,0,.96.09,1.38.27s.73.42.94.71c.21.29.35.64.44,1.04.05.26.08.72.08,1.37v5.1h-1.41v-5.05c0-.57-.05-1-.16-1.29-.11-.28-.3-.51-.58-.68-.28-.17-.61-.25-.98-.25-.6,0-1.12.19-1.55.57-.43.38-.65,1.1-.65,2.16v4.53h-1.41Z" style="fill:#010101;"/><path d="m121.45,262.5v-11.45h3.95c.89,0,1.57.05,2.04.16.66.15,1.21.42,1.68.82.6.51,1.05,1.16,1.36,1.96.3.79.45,1.7.45,2.72,0,.87-.1,1.64-.3,2.31s-.46,1.23-.78,1.67c-.32.44-.67.79-1.04,1.04-.38.25-.83.44-1.37.57-.54.13-1.15.2-1.84.2h-4.13Zm1.52-1.35h2.45c.75,0,1.35-.07,1.78-.21s.77-.34,1.03-.59c.36-.36.64-.84.84-1.45.2-.61.3-1.34.3-2.21,0-1.2-.2-2.12-.59-2.76-.39-.64-.87-1.07-1.43-1.29-.41-.16-1.06-.23-1.96-.23h-2.41v8.75Z" style="fill:#010101;"/><path d="m138.23,261.48c-.52.44-1.02.76-1.5.94-.48.18-1,.27-1.55.27-.91,0-1.61-.22-2.1-.67-.49-.45-.73-1.01-.73-1.71,0-.41.09-.78.28-1.11.18-.34.43-.61.73-.81.3-.2.64-.36,1.01-.46.28-.07.69-.14,1.25-.21,1.13-.14,1.97-.3,2.51-.48,0-.19,0-.31,0-.37,0-.57-.13-.98-.4-1.21-.36-.32-.89-.48-1.6-.48-.66,0-1.15.12-1.46.35-.32.23-.55.64-.7,1.23l-1.38-.19c.12-.59.33-1.06.62-1.43.29-.36.7-.64,1.24-.84.54-.2,1.17-.29,1.88-.29s1.28.08,1.73.25c.44.17.77.38.98.63.21.25.35.57.44.96.05.24.07.67.07,1.3v1.88c0,1.31.03,2.13.09,2.48.06.35.18.68.36,1h-1.47c-.15-.29-.24-.63-.28-1.02Zm-.12-3.14c-.51.21-1.28.39-2.3.53-.58.08-.99.18-1.23.28-.24.1-.43.26-.55.46-.13.2-.2.42-.2.67,0,.38.14.69.43.94.28.25.7.38,1.25.38s1.02-.12,1.45-.36c.42-.24.73-.56.93-.97.15-.32.23-.79.23-1.41v-.52Z" style="fill:#010101;"/><path d="m144.79,261.24l.2,1.24c-.4.08-.75.12-1.06.12-.51,0-.91-.08-1.19-.24s-.48-.37-.59-.64c-.12-.26-.17-.82-.17-1.66v-4.77h-1.03v-1.09h1.03v-2.05l1.4-.84v2.9h1.41v1.09h-1.41v4.85c0,.4.02.66.07.77.05.11.13.21.24.27.11.07.27.1.48.1.16,0,.36-.02.62-.05Z" style="fill:#010101;"/><path d="m151.58,261.48c-.52.44-1.02.76-1.5.94-.48.18-1,.27-1.55.27-.91,0-1.61-.22-2.1-.67-.49-.45-.73-1.01-.73-1.71,0-.41.09-.78.28-1.11.18-.34.43-.61.73-.81.3-.2.64-.36,1.01-.46.28-.07.69-.14,1.25-.21,1.13-.14,1.97-.3,2.51-.48,0-.19,0-.31,0-.37,0-.57-.13-.98-.4-1.21-.36-.32-.89-.48-1.6-.48-.66,0-1.15.12-1.46.35-.32.23-.55.64-.7,1.23l-1.38-.19c.12-.59.33-1.06.62-1.43.29-.36.7-.64,1.24-.84.54-.2,1.17-.29,1.88-.29s1.28.08,1.73.25c.44.17.77.38.98.63.21.25.35.57.44.96.05.24.07.67.07,1.3v1.88c0,1.31.03,2.13.09,2.48.06.35.18.68.36,1h-1.47c-.15-.29-.24-.63-.28-1.02Zm-.12-3.14c-.51.21-1.28.39-2.3.53-.58.08-.99.18-1.23.28-.24.1-.43.26-.55.46-.13.2-.2.42-.2.67,0,.38.14.69.43.94.28.25.7.38,1.25.38s1.02-.12,1.45-.36c.42-.24.73-.56.93-.97.15-.32.23-.79.23-1.41v-.52Z" style="fill:#010101;"/><path d="m46.55,271.86v-1.62h1.41v1.62h-1.41Zm0,9.84v-8.3h1.41v8.3h-1.41Z" style="fill:#010101;"/><path d="m50.1,281.7v-8.3h1.27v1.18c.61-.91,1.49-1.37,2.64-1.37.5,0,.96.09,1.38.27.42.18.73.42.94.71.21.29.35.64.44,1.04.05.26.08.72.08,1.37v5.1h-1.41v-5.05c0-.57-.05-1-.16-1.29-.11-.28-.3-.51-.58-.68-.28-.17-.61-.25-.98-.25-.6,0-1.12.19-1.55.57-.44.38-.65,1.1-.65,2.16v4.53h-1.41Z" style="fill:#010101;"/><path d="m62.07,280.44l.2,1.24c-.4.08-.75.12-1.06.12-.51,0-.91-.08-1.19-.24s-.48-.37-.59-.64c-.12-.26-.17-.82-.17-1.66v-4.77h-1.03v-1.09h1.03v-2.05l1.4-.84v2.9h1.41v1.09h-1.41v4.85c0,.4.02.66.07.77.05.11.13.21.24.27.11.07.27.1.48.1.16,0,.36-.02.62-.05Z" style="fill:#010101;"/><path d="m69.12,279.03l1.45.18c-.23.85-.65,1.51-1.27,1.98-.62.47-1.41.7-2.38.7-1.21,0-2.18-.37-2.89-1.12-.71-.75-1.07-1.8-1.07-3.14s.36-2.48,1.08-3.25c.72-.77,1.65-1.16,2.8-1.16s2.02.38,2.72,1.13c.7.76,1.05,1.82,1.05,3.19,0,.08,0,.21,0,.38h-6.19c.05.91.31,1.61.77,2.09.46.48,1.04.73,1.73.73.52,0,.96-.14,1.32-.41.36-.27.65-.7.87-1.3Zm-4.62-2.27h4.63c-.06-.7-.24-1.22-.53-1.57-.45-.54-1.03-.81-1.74-.81-.65,0-1.19.22-1.63.65-.44.43-.68,1.01-.73,1.73Z" style="fill:#010101;"/><path d="m72.33,281.7v-8.3h1.27v1.26c.32-.59.62-.98.89-1.16s.57-.28.9-.28c.47,0,.96.15,1.45.45l-.48,1.3c-.34-.2-.69-.3-1.03-.3-.31,0-.58.09-.83.28-.25.19-.42.44-.52.77-.16.5-.23,1.05-.23,1.64v4.34h-1.41Z" style="fill:#010101;"/><path d="m83.09,278.66l1.38.18c-.15.95-.54,1.7-1.16,2.24-.62.54-1.39.81-2.29.81-1.14,0-2.05-.37-2.74-1.11-.69-.74-1.04-1.81-1.04-3.19,0-.9.15-1.68.45-2.35s.75-1.18,1.36-1.51c.61-.34,1.27-.5,1.98-.5.9,0,1.64.23,2.21.68.57.46.94,1.1,1.1,1.94l-1.37.21c-.13-.56-.36-.98-.69-1.26-.33-.28-.73-.42-1.2-.42-.71,0-1.29.25-1.73.76-.44.51-.66,1.31-.66,2.41s.21,1.92.64,2.43c.43.51.98.76,1.67.76.55,0,1.01-.17,1.38-.51.37-.34.6-.86.7-1.56Z" style="fill:#010101;"/><path d="m85.15,277.55c0-1.54.43-2.67,1.28-3.41.71-.61,1.58-.92,2.61-.92,1.14,0,2.07.37,2.8,1.12.72.75,1.09,1.78,1.09,3.1,0,1.07-.16,1.91-.48,2.52-.32.61-.79,1.09-1.4,1.43-.61.34-1.28.51-2,.51-1.16,0-2.1-.37-2.82-1.12-.72-.74-1.07-1.82-1.07-3.22Zm1.45,0c0,1.06.23,1.86.7,2.39.46.53,1.05.79,1.75.79s1.28-.27,1.74-.8c.46-.53.7-1.34.7-2.43,0-1.03-.23-1.8-.7-2.33-.47-.53-1.05-.79-1.74-.79s-1.29.26-1.75.79c-.46.53-.7,1.32-.7,2.38Z" style="fill:#010101;"/><path d="m94.57,281.7v-8.3h1.27v1.18c.61-.91,1.49-1.37,2.64-1.37.5,0,.96.09,1.38.27.42.18.73.42.94.71.21.29.35.64.44,1.04.05.26.08.72.08,1.37v5.1h-1.41v-5.05c0-.57-.05-1-.16-1.29-.11-.28-.3-.51-.58-.68-.28-.17-.61-.25-.98-.25-.6,0-1.12.19-1.55.57-.44.38-.65,1.1-.65,2.16v4.53h-1.41Z" style="fill:#010101;"/><path d="m103.47,281.7v-8.3h1.27v1.18c.61-.91,1.49-1.37,2.64-1.37.5,0,.96.09,1.38.27.42.18.73.42.94.71.21.29.35.64.44,1.04.05.26.08.72.08,1.37v5.1h-1.41v-5.05c0-.57-.05-1-.16-1.29-.11-.28-.3-.51-.58-.68-.28-.17-.61-.25-.98-.25-.6,0-1.12.19-1.55.57-.44.38-.65,1.1-.65,2.16v4.53h-1.41Z" style="fill:#010101;"/><path d="m118.05,279.03l1.45.18c-.23.85-.65,1.51-1.27,1.98-.62.47-1.41.7-2.38.7-1.21,0-2.18-.37-2.89-1.12-.71-.75-1.07-1.8-1.07-3.14s.36-2.48,1.08-3.25c.72-.77,1.65-1.16,2.8-1.16s2.02.38,2.72,1.13c.7.76,1.05,1.82,1.05,3.19,0,.08,0,.21,0,.38h-6.19c.05.91.31,1.61.77,2.09.46.48,1.04.73,1.73.73.52,0,.96-.14,1.32-.41.36-.27.65-.7.87-1.3Zm-4.62-2.27h4.63c-.06-.7-.24-1.22-.53-1.57-.45-.54-1.03-.81-1.74-.81-.65,0-1.19.22-1.63.65-.44.43-.68,1.01-.73,1.73Z" style="fill:#010101;"/><path d="m126.68,278.66l1.38.18c-.15.95-.54,1.7-1.16,2.24-.62.54-1.39.81-2.29.81-1.14,0-2.05-.37-2.74-1.11-.69-.74-1.04-1.81-1.04-3.19,0-.9.15-1.68.45-2.35s.75-1.18,1.36-1.51c.61-.34,1.27-.5,1.98-.5.9,0,1.64.23,2.21.68.57.46.94,1.1,1.1,1.94l-1.37.21c-.13-.56-.36-.98-.69-1.26-.33-.28-.73-.42-1.2-.42-.71,0-1.29.25-1.73.76-.44.51-.66,1.31-.66,2.41s.21,1.92.64,2.43c.43.51.98.76,1.67.76.55,0,1.01-.17,1.38-.51.37-.34.6-.86.7-1.56Z" style="fill:#010101;"/><path d="m132.34,280.44l.2,1.24c-.4.08-.75.12-1.06.12-.51,0-.91-.08-1.19-.24s-.48-.37-.59-.64c-.12-.26-.17-.82-.17-1.66v-4.77h-1.03v-1.09h1.03v-2.05l1.4-.84v2.9h1.41v1.09h-1.41v4.85c0,.4.02.66.07.77.05.11.13.21.24.27.11.07.27.1.48.1.16,0,.36-.02.62-.05Z" style="fill:#010101;"/><path d="m133.72,271.86v-1.62h1.41v1.62h-1.41Zm0,9.84v-8.3h1.41v8.3h-1.41Z" style="fill:#010101;"/><path d="m136.74,277.55c0-1.54.43-2.67,1.28-3.41.71-.61,1.58-.92,2.61-.92,1.14,0,2.07.37,2.8,1.12.72.75,1.09,1.78,1.09,3.1,0,1.07-.16,1.91-.48,2.52-.32.61-.79,1.09-1.4,1.43-.61.34-1.28.51-2,.51-1.16,0-2.1-.37-2.82-1.12-.72-.74-1.07-1.82-1.07-3.22Zm1.45,0c0,1.06.23,1.86.7,2.39.46.53,1.05.79,1.75.79s1.28-.27,1.74-.8c.46-.53.7-1.34.7-2.43,0-1.03-.23-1.8-.7-2.33-.47-.53-1.05-.79-1.74-.79s-1.29.26-1.75.79c-.46.53-.7,1.32-.7,2.38Z" style="fill:#010101;"/><path d="m146.16,281.7v-8.3h1.27v1.18c.61-.91,1.49-1.37,2.64-1.37.5,0,.96.09,1.38.27.42.18.73.42.94.71.21.29.35.64.44,1.04.05.26.08.72.08,1.37v5.1h-1.41v-5.05c0-.57-.05-1-.16-1.29-.11-.28-.3-.51-.58-.68-.28-.17-.61-.25-.98-.25-.6,0-1.12.19-1.55.57-.44.38-.65,1.1-.65,2.16v4.53h-1.41Z" style="fill:#010101;"/><g style="isolation:isolate;"><polygon points="286.89 113.77 235.05 143.9 182.87 113.77 234.71 83.64 286.89 113.77" style="fill:#1d1d1b;"/><g style="clip-path:url(#clippath);"><polygon points="286.89 113.77 235.05 143.9 182.87 113.77 234.71 83.64 286.89 113.77" style="fill:#1d1d1b; stroke:#fff; stroke-linejoin:round; stroke-width:2px;"/></g><polygon points="286.89 113.77 235.05 143.9 182.87 113.77 234.71 83.64 286.89 113.77" style="fill:none; stroke:#fff; stroke-linejoin:round; stroke-width:2px;"/></g><g style="isolation:isolate;"><polygon points="286.89 113.77 286.72 174.91 234.88 205.04 235.05 143.9 286.89 113.77" style="fill:#1d1d1b;"/><g style="clip-path:url(#clippath-1);"><polygon points="286.89 113.77 286.72 174.91 234.88 205.04 235.05 143.9 286.89 113.77" style="fill:#1d1d1b; stroke:#fff; stroke-linejoin:round; stroke-width:2px;"/></g><polygon points="286.89 113.77 286.72 174.91 234.88 205.04 235.05 143.9 286.89 113.77" style="fill:none; stroke:#fff; stroke-linejoin:round; stroke-width:2px;"/></g><g style="isolation:isolate;"><polygon points="235.05 143.9 234.88 205.04 182.7 174.91 182.87 113.77 235.05 143.9" style="fill:#1d1d1b;"/><g style="clip-path:url(#clippath-2);"><polygon points="235.05 143.9 234.88 205.04 182.7 174.91 182.87 113.77 235.05 143.9" style="fill:#1d1d1b; stroke:#fff; stroke-linejoin:round; stroke-width:2px;"/></g><polygon points="235.05 143.9 234.88 205.04 182.7 174.91 182.87 113.77 235.05 143.9" style="fill:none; stroke:#fff; stroke-linejoin:round; stroke-width:2px;"/></g><g style="isolation:isolate;"><g style="isolation:isolate;"><g style="clip-path:url(#clippath-3);"><polygon points="286.46 420.91 234.62 451.04 182.44 420.91 234.28 390.78 286.46 420.91" style="fill:none; stroke:#000; stroke-dasharray:0 0 4 4; stroke-linejoin:round;"/></g><polygon points="286.46 420.91 234.62 451.04 182.44 420.91 234.28 390.78 286.46 420.91" style="fill:none; stroke:#000; stroke-dasharray:0 0 4 4; stroke-linejoin:round;"/></g><g style="isolation:isolate;"><g style="clip-path:url(#clippath-4);"><polygon points="286.64 359.77 234.79 389.9 182.61 359.77 234.46 329.64 286.64 359.77" style="fill:none; stroke:#000; stroke-dasharray:0 0 4 4; stroke-linejoin:round;"/></g><polygon points="286.64 359.77 234.79 389.9 182.61 359.77 234.46 329.64 286.64 359.77" style="fill:none; stroke:#000; stroke-dasharray:0 0 4 4; stroke-linejoin:round;"/></g><g style="isolation:isolate;"><g style="clip-path:url(#clippath-5);"><polygon points="286.64 359.77 286.46 420.91 234.62 451.04 234.79 389.9 286.64 359.77" style="fill:none; stroke:#000; stroke-dasharray:0 0 4 4; stroke-linejoin:round;"/></g><polygon points="286.64 359.77 286.46 420.91 234.62 451.04 234.79 389.9 286.64 359.77" style="fill:none; stroke:#000; stroke-dasharray:0 0 4 4; stroke-linejoin:round;"/></g><g style="isolation:isolate;"><g style="clip-path:url(#clippath-6);"><polygon points="234.79 389.9 234.62 451.04 182.44 420.91 182.61 359.77 234.79 389.9" style="fill:none; stroke:#000; stroke-dasharray:0 0 4 4; stroke-linejoin:round;"/></g><polygon points="234.79 389.9 234.62 451.04 182.44 420.91 182.61 359.77 234.79 389.9" style="fill:none; stroke:#000; stroke-dasharray:0 0 4 4; stroke-linejoin:round;"/></g><g style="isolation:isolate;"><g style="clip-path:url(#clippath-7);"><polygon points="182.61 359.77 234.46 329.64 234.28 390.78 182.44 420.91 182.61 359.77" style="fill:none; stroke:#000; stroke-dasharray:0 0 4 4; stroke-linejoin:round;"/></g><polygon points="182.61 359.77 234.46 329.64 234.28 390.78 182.44 420.91 182.61 359.77" style="fill:none; stroke:#000; stroke-dasharray:0 0 4 4; stroke-linejoin:round;"/></g><g style="isolation:isolate;"><g style="clip-path:url(#clippath-8);"><polygon points="234.46 329.64 286.64 359.77 286.46 420.91 234.28 390.78 234.46 329.64" style="fill:none; stroke:#000; stroke-dasharray:0 0 4 4; stroke-linejoin:round;"/></g><polygon points="234.46 329.64 286.64 359.77 286.46 420.91 234.28 390.78 234.46 329.64" style="fill:none; stroke:#000; stroke-dasharray:0 0 4 4; stroke-linejoin:round;"/></g></g><line x1="234.88" y1="297.66" x2="234.88" y2="237.02" style="fill:none; stroke:#1d1d1b; stroke-linejoin:round; stroke-width:2px;"/><polygon points="239.87 296.21 234.88 304.84 229.89 296.21 239.87 296.21" style="fill:#1d1d1b;"/><polygon points="239.87 238.48 234.88 229.84 229.89 238.48 239.87 238.48" style="fill:#1d1d1b;"/><line x1="947.81" y1="267.34" x2="945.81" y2="267.34" style="fill:none; stroke:#1d1d1b; stroke-miterlimit:10;"/><line x1="941.81" y1="267.34" x2="303.25" y2="267.34" style="fill:none; stroke:#1d1d1b; stroke-dasharray:0 0 4 4; stroke-miterlimit:10;"/><line x1="301.25" y1="267.34" x2="299.25" y2="267.34" style="fill:none; stroke:#1d1d1b; stroke-miterlimit:10;"/><path d="m875.79,200.51v-11.45h4.32c.76,0,1.34.04,1.74.11.56.09,1.03.27,1.41.54.38.26.69.63.92,1.11.23.47.35,1,.35,1.56,0,.97-.31,1.8-.93,2.47-.62.67-1.74,1.01-3.36,1.01h-2.94v4.66h-1.52Zm1.52-6.01h2.96c.98,0,1.67-.18,2.09-.55.41-.36.62-.88.62-1.54,0-.48-.12-.89-.36-1.23-.24-.34-.56-.57-.96-.68-.25-.07-.73-.1-1.41-.1h-2.93v4.09Z" style="fill:#010101;"/><path d="m886.29,200.51v-11.45h1.41v4.11c.66-.76,1.48-1.14,2.48-1.14.61,0,1.15.12,1.6.36s.78.58.97,1c.2.43.29,1.05.29,1.86v5.26h-1.41v-5.26c0-.7-.15-1.21-.46-1.54s-.74-.48-1.29-.48c-.42,0-.81.11-1.18.32-.37.22-.63.51-.79.88-.16.37-.23.88-.23,1.53v4.54h-1.41Z" style="fill:#010101;"/><path d="m895.12,203.7l-.16-1.32c.31.08.58.12.8.12.31,0,.56-.05.75-.16.19-.1.34-.25.46-.44.09-.14.23-.49.43-1.05.03-.08.07-.19.12-.34l-3.15-8.31h1.52l1.73,4.8c.22.61.42,1.25.6,1.92.16-.65.35-1.28.58-1.89l1.77-4.84h1.41l-3.16,8.44c-.34.91-.6,1.54-.79,1.88-.25.46-.54.8-.86,1.02-.32.22-.71.32-1.16.32-.27,0-.57-.06-.91-.17Z" style="fill:#010101;"/><path d="m902.62,198.03l1.39-.22c.08.56.3.98.65,1.28s.86.45,1.5.45,1.12-.13,1.44-.39c.31-.26.47-.57.47-.93,0-.32-.14-.57-.41-.75-.19-.12-.67-.28-1.44-.48-1.03-.26-1.75-.49-2.14-.68-.4-.19-.7-.45-.91-.79s-.31-.71-.31-1.11c0-.37.08-.71.25-1.03.17-.31.4-.58.69-.79.22-.16.52-.3.89-.41.38-.11.78-.17,1.21-.17.65,0,1.22.09,1.71.28s.86.44,1.09.76.4.75.48,1.29l-1.38.19c-.06-.43-.24-.76-.54-1-.3-.24-.72-.36-1.27-.36-.65,0-1.11.11-1.38.32-.28.21-.41.46-.41.75,0,.18.06.35.17.49.11.15.29.28.54.38.14.05.55.17,1.24.36,1,.27,1.69.48,2.08.65.39.17.7.42.93.74.22.32.34.72.34,1.2s-.14.91-.41,1.32-.67.73-1.18.96-1.1.34-1.75.34c-1.08,0-1.9-.22-2.46-.67-.57-.45-.93-1.11-1.08-1.99Z" style="fill:#010101;"/><path d="m911.19,190.67v-1.62h1.41v1.62h-1.41Zm0,9.84v-8.3h1.41v8.3h-1.41Z" style="fill:#010101;"/><path d="m920.15,197.47l1.38.18c-.15.95-.54,1.7-1.16,2.24s-1.39.81-2.29.81c-1.14,0-2.05-.37-2.74-1.11s-1.04-1.81-1.04-3.19c0-.9.15-1.68.45-2.35s.75-1.18,1.36-1.51,1.27-.5,1.98-.5c.9,0,1.64.23,2.21.68.57.46.94,1.1,1.1,1.94l-1.37.21c-.13-.56-.36-.98-.69-1.26s-.73-.42-1.2-.42c-.71,0-1.28.25-1.73.76s-.66,1.31-.66,2.41.21,1.92.64,2.43c.43.51.98.76,1.67.76.55,0,1.01-.17,1.38-.51.37-.34.6-.86.7-1.56Z" style="fill:#010101;"/><path d="m928.15,199.48c-.52.44-1.02.76-1.5.94s-1,.27-1.55.27c-.91,0-1.61-.22-2.1-.67s-.73-1.01-.73-1.71c0-.41.09-.78.28-1.11s.43-.61.73-.81.64-.36,1.01-.46c.28-.07.69-.14,1.25-.21,1.14-.14,1.97-.3,2.51-.48,0-.19,0-.31,0-.37,0-.57-.13-.98-.4-1.21-.36-.32-.89-.48-1.6-.48-.66,0-1.15.12-1.46.35-.32.23-.55.64-.7,1.23l-1.38-.19c.12-.59.33-1.06.62-1.43.29-.36.7-.64,1.24-.84s1.17-.29,1.88-.29,1.28.08,1.73.25c.44.17.77.38.98.63.21.25.35.57.44.96.05.24.07.67.07,1.3v1.88c0,1.31.03,2.13.09,2.48.06.35.18.68.36,1h-1.47c-.15-.29-.24-.63-.28-1.02Zm-.12-3.14c-.51.21-1.28.39-2.3.53-.58.08-.99.18-1.23.28-.24.1-.42.26-.55.46-.13.2-.2.42-.2.67,0,.38.14.69.43.94s.7.38,1.25.38,1.02-.12,1.45-.36c.42-.24.73-.56.93-.97.15-.32.23-.79.23-1.41v-.52Z" style="fill:#010101;"/><path d="m931.61,200.51v-11.45h1.41v11.45h-1.41Z" style="fill:#010101;"/><path d="m875.05,217.23l1.39-.22c.08.56.3.98.65,1.28s.86.45,1.5.45,1.12-.13,1.44-.39c.31-.26.47-.57.47-.93,0-.32-.14-.57-.41-.75-.19-.12-.67-.28-1.44-.48-1.03-.26-1.75-.49-2.14-.68-.4-.19-.7-.45-.91-.79s-.31-.71-.31-1.11c0-.37.08-.71.25-1.03.17-.31.4-.58.69-.79.22-.16.52-.3.89-.41.38-.11.78-.17,1.21-.17.65,0,1.22.09,1.71.28s.86.44,1.09.76.4.75.48,1.29l-1.38.19c-.06-.43-.24-.76-.54-1-.3-.24-.72-.36-1.27-.36-.65,0-1.11.11-1.38.32-.28.21-.41.46-.41.75,0,.18.06.35.17.49.11.15.29.28.54.38.14.05.55.17,1.24.36,1,.27,1.69.48,2.08.65.39.17.7.42.93.74.22.32.34.72.34,1.2s-.14.91-.41,1.32-.67.73-1.18.96-1.1.34-1.75.34c-1.08,0-1.9-.22-2.46-.67-.57-.45-.93-1.11-1.08-1.99Z" style="fill:#010101;"/><path d="m883.62,222.89v-11.48h1.28v1.08c.3-.42.64-.74,1.02-.95s.84-.32,1.38-.32c.71,0,1.33.18,1.88.55.54.36.95.88,1.23,1.54s.41,1.39.41,2.18c0,.85-.15,1.61-.46,2.29s-.75,1.2-1.33,1.56-1.19.54-1.83.54c-.47,0-.89-.1-1.26-.3s-.68-.45-.92-.75v4.04h-1.41Zm1.27-7.28c0,1.07.22,1.86.65,2.37.43.51.96.77,1.57.77s1.16-.26,1.61-.79c.45-.53.67-1.35.67-2.46s-.22-1.85-.65-2.38c-.43-.53-.95-.79-1.56-.79s-1.13.28-1.59.84c-.46.56-.69,1.37-.69,2.44Z" style="fill:#010101;"/><path d="m897.93,218.69c-.52.44-1.02.76-1.5.94s-1,.27-1.55.27c-.91,0-1.61-.22-2.1-.67s-.73-1.01-.73-1.71c0-.41.09-.78.28-1.11s.43-.61.73-.81.64-.36,1.01-.46c.28-.07.69-.14,1.25-.21,1.14-.14,1.97-.3,2.51-.48,0-.19,0-.31,0-.37,0-.57-.13-.98-.4-1.21-.36-.32-.89-.48-1.6-.48-.66,0-1.15.12-1.46.35-.32.23-.55.64-.7,1.23l-1.38-.19c.12-.59.33-1.06.62-1.43.29-.36.7-.64,1.24-.84s1.17-.29,1.88-.29,1.28.08,1.73.25c.44.17.77.38.98.63.21.25.35.57.44.96.05.24.07.67.07,1.3v1.88c0,1.31.03,2.13.09,2.48.06.35.18.68.36,1h-1.47c-.15-.29-.24-.63-.28-1.02Zm-.12-3.14c-.51.21-1.28.39-2.3.53-.58.08-.99.18-1.23.28-.24.1-.42.26-.55.46-.13.2-.2.42-.2.67,0,.38.14.69.43.94s.7.38,1.25.38,1.02-.12,1.45-.36c.42-.24.73-.56.93-.97.15-.32.23-.79.23-1.41v-.52Z" style="fill:#010101;"/><path d="m906.83,216.67l1.38.18c-.15.95-.54,1.7-1.16,2.24s-1.39.81-2.29.81c-1.14,0-2.05-.37-2.74-1.11s-1.04-1.81-1.04-3.19c0-.9.15-1.68.45-2.35s.75-1.18,1.36-1.51,1.27-.5,1.98-.5c.9,0,1.64.23,2.21.68.57.46.94,1.1,1.1,1.94l-1.37.21c-.13-.56-.36-.98-.69-1.26s-.73-.42-1.2-.42c-.71,0-1.28.25-1.73.76s-.66,1.31-.66,2.41.21,1.92.64,2.43c.43.51.98.76,1.67.76.55,0,1.01-.17,1.38-.51.37-.34.6-.86.7-1.56Z" style="fill:#010101;"/><path d="m915.09,217.04l1.45.18c-.23.85-.65,1.51-1.27,1.98s-1.41.7-2.38.7c-1.21,0-2.18-.37-2.89-1.12-.71-.75-1.07-1.8-1.07-3.14s.36-2.48,1.08-3.25c.72-.77,1.65-1.16,2.8-1.16s2.02.38,2.72,1.13c.7.76,1.05,1.82,1.05,3.19,0,.08,0,.21,0,.38h-6.19c.05.91.31,1.61.77,2.09s1.04.73,1.73.73c.52,0,.96-.14,1.32-.41.36-.27.65-.7.87-1.3Zm-4.62-2.27h4.63c-.06-.7-.24-1.22-.53-1.57-.45-.54-1.03-.81-1.74-.81-.65,0-1.19.22-1.63.65-.44.43-.68,1.01-.73,1.73Z" style="fill:#010101;"/><path d="m879.07,323.51l-4.44-11.45h1.64l2.98,8.32c.24.67.44,1.29.6,1.88.18-.62.38-1.25.62-1.88l3.09-8.32h1.55l-4.48,11.45h-1.55Z" style="fill:#010101;"/><path d="m886.01,313.67v-1.62h1.41v1.62h-1.41Zm0,9.84v-8.3h1.41v8.3h-1.41Z" style="fill:#010101;"/><path d="m889.54,323.51v-8.3h1.27v1.26c.32-.59.62-.98.89-1.16s.57-.28.9-.28c.47,0,.96.15,1.45.45l-.48,1.3c-.34-.2-.69-.3-1.03-.3-.31,0-.58.09-.83.28-.25.19-.42.44-.52.77-.16.5-.23,1.05-.23,1.64v4.34h-1.41Z" style="fill:#010101;"/><path d="m897.95,322.25l.2,1.24c-.4.08-.75.12-1.06.12-.51,0-.91-.08-1.19-.24s-.48-.37-.59-.64c-.11-.26-.17-.82-.17-1.66v-4.77h-1.03v-1.09h1.03v-2.05l1.4-.84v2.9h1.41v1.09h-1.41v4.85c0,.4.02.66.07.77.05.11.13.21.24.27.11.07.27.1.48.1.16,0,.36-.02.62-.05Z" style="fill:#010101;"/><path d="m904.76,323.51v-1.22c-.65.94-1.52,1.41-2.63,1.41-.49,0-.95-.09-1.37-.28s-.74-.42-.95-.71c-.21-.28-.35-.63-.43-1.04-.06-.28-.09-.71-.09-1.31v-5.14h1.41v4.6c0,.73.03,1.23.09,1.48.09.37.28.66.56.87s.64.32,1.06.32.82-.11,1.19-.32c.37-.22.63-.51.79-.88.15-.37.23-.91.23-1.62v-4.45h1.41v8.3h-1.26Z" style="fill:#010101;"/><path d="m913.64,322.48c-.52.44-1.02.76-1.5.94s-1,.27-1.55.27c-.91,0-1.61-.22-2.1-.67s-.73-1.01-.73-1.71c0-.41.09-.78.28-1.11s.43-.61.73-.81.64-.36,1.01-.46c.28-.07.69-.14,1.25-.21,1.14-.14,1.97-.3,2.51-.48,0-.19,0-.31,0-.37,0-.57-.13-.98-.4-1.21-.36-.32-.89-.48-1.6-.48-.66,0-1.15.12-1.46.35-.32.23-.55.64-.7,1.23l-1.38-.19c.12-.59.33-1.06.62-1.43.29-.36.7-.64,1.24-.84s1.17-.29,1.88-.29,1.28.08,1.73.25c.44.17.77.38.98.63.21.25.35.57.44.96.05.24.07.67.07,1.3v1.88c0,1.31.03,2.13.09,2.48.06.35.18.68.36,1h-1.47c-.15-.29-.24-.63-.28-1.02Zm-.12-3.14c-.51.21-1.28.39-2.3.53-.58.08-.99.18-1.23.28-.24.1-.42.26-.55.46-.13.2-.2.42-.2.67,0,.38.14.69.43.94s.7.38,1.25.38,1.02-.12,1.45-.36c.42-.24.73-.56.93-.97.15-.32.23-.79.23-1.41v-.52Z" style="fill:#010101;"/><path d="m917.09,323.51v-11.45h1.41v11.45h-1.41Z" style="fill:#010101;"/><path d="m875.05,340.23l1.39-.22c.08.56.3.98.65,1.28s.86.45,1.5.45,1.12-.13,1.44-.39c.31-.26.47-.57.47-.93,0-.32-.14-.57-.41-.75-.19-.12-.67-.28-1.44-.48-1.03-.26-1.75-.49-2.14-.68-.4-.19-.7-.45-.91-.79s-.31-.71-.31-1.11c0-.37.08-.71.25-1.03.17-.31.4-.58.69-.79.22-.16.52-.3.89-.41.38-.11.78-.17,1.21-.17.65,0,1.22.09,1.71.28s.86.44,1.09.76.4.75.48,1.29l-1.38.19c-.06-.43-.24-.76-.54-1-.3-.24-.72-.36-1.27-.36-.65,0-1.11.11-1.38.32-.28.21-.41.46-.41.75,0,.18.06.35.17.49.11.15.29.28.54.38.14.05.55.17,1.24.36,1,.27,1.69.48,2.08.65.39.17.7.42.93.74.22.32.34.72.34,1.2s-.14.91-.41,1.32-.67.73-1.18.96-1.1.34-1.75.34c-1.08,0-1.9-.22-2.46-.67-.57-.45-.93-1.11-1.08-1.99Z" style="fill:#010101;"/><path d="m883.62,345.89v-11.48h1.28v1.08c.3-.42.64-.74,1.02-.95s.84-.32,1.38-.32c.71,0,1.33.18,1.88.55.54.36.95.88,1.23,1.54s.41,1.39.41,2.18c0,.85-.15,1.61-.46,2.29s-.75,1.2-1.33,1.56-1.19.54-1.83.54c-.47,0-.89-.1-1.26-.3s-.68-.45-.92-.75v4.04h-1.41Zm1.27-7.28c0,1.07.22,1.86.65,2.37.43.51.96.77,1.57.77s1.16-.26,1.61-.79c.45-.53.67-1.35.67-2.46s-.22-1.85-.65-2.38c-.43-.53-.95-.79-1.56-.79s-1.13.28-1.59.84c-.46.56-.69,1.37-.69,2.44Z" style="fill:#010101;"/><path d="m897.93,341.69c-.52.44-1.02.76-1.5.94s-1,.27-1.55.27c-.91,0-1.61-.22-2.1-.67s-.73-1.01-.73-1.71c0-.41.09-.78.28-1.11s.43-.61.73-.81.64-.36,1.01-.46c.28-.07.69-.14,1.25-.21,1.14-.14,1.97-.3,2.51-.48,0-.19,0-.31,0-.37,0-.57-.13-.98-.4-1.21-.36-.32-.89-.48-1.6-.48-.66,0-1.15.12-1.46.35-.32.23-.55.64-.7,1.23l-1.38-.19c.12-.59.33-1.06.62-1.43.29-.36.7-.64,1.24-.84s1.17-.29,1.88-.29,1.28.08,1.73.25c.44.17.77.38.98.63.21.25.35.57.44.96.05.24.07.67.07,1.3v1.88c0,1.31.03,2.13.09,2.48.06.35.18.68.36,1h-1.47c-.15-.29-.24-.63-.28-1.02Zm-.12-3.14c-.51.21-1.28.39-2.3.53-.58.08-.99.18-1.23.28-.24.1-.42.26-.55.46-.13.2-.2.42-.2.67,0,.38.14.69.43.94s.7.38,1.25.38,1.02-.12,1.45-.36c.42-.24.73-.56.93-.97.15-.32.23-.79.23-1.41v-.52Z" style="fill:#010101;"/><path d="m906.83,339.67l1.38.18c-.15.95-.54,1.7-1.16,2.24s-1.39.81-2.29.81c-1.14,0-2.05-.37-2.74-1.11s-1.04-1.81-1.04-3.19c0-.9.15-1.68.45-2.35s.75-1.18,1.36-1.51,1.27-.5,1.98-.5c.9,0,1.64.23,2.21.68.57.46.94,1.1,1.1,1.94l-1.37.21c-.13-.56-.36-.98-.69-1.26s-.73-.42-1.2-.42c-.71,0-1.28.25-1.73.76s-.66,1.31-.66,2.41.21,1.92.64,2.43c.43.51.98.76,1.67.76.55,0,1.01-.17,1.38-.51.37-.34.6-.86.7-1.56Z" style="fill:#010101;"/><path d="m915.09,340.04l1.45.18c-.23.85-.65,1.51-1.27,1.98s-1.41.7-2.38.7c-1.21,0-2.18-.37-2.89-1.12-.71-.75-1.07-1.8-1.07-3.14s.36-2.48,1.08-3.25c.72-.77,1.65-1.16,2.8-1.16s2.02.38,2.72,1.13c.7.76,1.05,1.82,1.05,3.19,0,.08,0,.21,0,.38h-6.19c.05.91.31,1.61.77,2.09s1.04.73,1.73.73c.52,0,.96-.14,1.32-.41.36-.27.65-.7.87-1.3Zm-4.62-2.27h4.63c-.06-.7-.24-1.22-.53-1.57-.45-.54-1.03-.81-1.74-.81-.65,0-1.19.22-1.63.65-.44.43-.68,1.01-.73,1.73Z" style="fill:#010101;"/></svg>