<?xml version="1.0" encoding="UTF-8"?>
<svg id="Ebene_1" data-name="Ebene 1" xmlns="http://www.w3.org/2000/svg" viewBox="0 0 988 525">
  <defs>
    <style>
      .cls-1 {
        stroke: #0333ff;
      }

      .cls-1, .cls-2, .cls-3, .cls-4, .cls-5 {
        stroke-miterlimit: 10;
      }

      .cls-1, .cls-5 {
        stroke-width: 2px;
      }

      .cls-1, .cls-6 {
        fill: #0333ff;
      }

      .cls-7 {
        font-size: 14px;
      }

      .cls-7, .cls-8 {
        font-family: ArialMT, Arial;
      }

      .cls-8, .cls-9, .cls-6 {
        font-size: 16px;
      }

      .cls-2, .cls-9 {
        fill: #fff;
      }

      .cls-2, .cls-4, .cls-5 {
        stroke: #000;
      }

      .cls-9, .cls-6 {
        font-family: Arial-BoldMT, Arial;
        font-weight: 700;
      }

      .cls-3 {
        stroke: #9c9b9b;
      }

      .cls-3, .cls-4, .cls-5 {
        fill: none;
      }
    </style>
  </defs>
  <g>
    <rect class="cls-2" x="89.33" y="242.5" width="90" height="90"/>
    <rect class="cls-2" x="89.33" y="332.5" width="90" height="90"/>
    <rect class="cls-2" x="179.33" y="332.5" width="90" height="90"/>
    <rect class="cls-4" x="89.33" y="152.5" width="90" height="90"/>
    <rect class="cls-5" x="89.33" y="62.5" width="360" height="360"/>
    <rect class="cls-4" x="89.33" y="62.5" width="90" height="90"/>
    <rect class="cls-4" x="179.33" y="62.5" width="90" height="90"/>
    <rect class="cls-4" x="269.33" y="62.5" width="90" height="90"/>
    <rect class="cls-4" x="359.33" y="62.5" width="90" height="90"/>
    <rect class="cls-4" x="179.33" y="152.5" width="90" height="90"/>
    <rect class="cls-4" x="269.33" y="152.5" width="90" height="90"/>
    <rect class="cls-4" x="359.33" y="152.5" width="90" height="90"/>
    <rect class="cls-4" x="269.33" y="242.5" width="90" height="90"/>
    <rect class="cls-4" x="359.33" y="242.5" width="90" height="90"/>
    <rect class="cls-4" x="269.33" y="332.5" width="90" height="90"/>
    <rect class="cls-4" x="359.33" y="332.5" width="90" height="90"/>
  </g>
  <text class="cls-7" transform="translate(93.72 78.75)"><tspan x="0" y="0">1,4</tspan></text>
  <text class="cls-7" transform="translate(183.65 78.75)"><tspan x="0" y="0">2,4</tspan></text>
  <text class="cls-7" transform="translate(273.43 78.75)"><tspan x="0" y="0">4,4</tspan></text>
  <text class="cls-7" transform="translate(363.72 78.75)"><tspan x="0" y="0">4,4</tspan></text>
  <text class="cls-7" transform="translate(93.72 168.14)"><tspan x="0" y="0">1,3</tspan></text>
  <text class="cls-7" transform="translate(183.65 168.14)"><tspan x="0" y="0">2,3</tspan></text>
  <text class="cls-7" transform="translate(273.43 168.14)"><tspan x="0" y="0">3,3</tspan></text>
  <text class="cls-7" transform="translate(363.72 168.14)"><tspan x="0" y="0">4,3</tspan></text>
  <text class="cls-7" transform="translate(93.72 258.71)"><tspan x="0" y="0">1,2</tspan></text>
  <text class="cls-7" transform="translate(183.65 258.71)"><tspan x="0" y="0">2,2</tspan></text>
  <text class="cls-7" transform="translate(273.43 258.71)"><tspan x="0" y="0">3,2</tspan></text>
  <text class="cls-7" transform="translate(363.72 258.71)"><tspan x="0" y="0">4,2</tspan></text>
  <text class="cls-7" transform="translate(93.72 348.59)"><tspan x="0" y="0">1,1</tspan></text>
  <text class="cls-7" transform="translate(183.65 348.59)"><tspan x="0" y="0">2,1</tspan></text>
  <text class="cls-7" transform="translate(273.43 348.59)"><tspan x="0" y="0">3,1</tspan></text>
  <text class="cls-7" transform="translate(363.72 348.59)"><tspan x="0" y="0">4,1</tspan></text>
  <g>
    <g>
      <g>
        <rect class="cls-1" x="89.33" y="468.1" width="20" height="20"/>
        <text class="cls-9" transform="translate(93.56 483.86)"><tspan x="0" y="0">A</tspan></text>
      </g>
      <text class="cls-8" transform="translate(116.46 483.86)"><tspan x="0" y="0">Agent</tspan></text>
    </g>
    <g>
      <text class="cls-6" transform="translate(182.26 482.84)"><tspan x="0" y="0">B</tspan></text>
      <text class="cls-8" transform="translate(205.16 482.84)"><tspan x="0" y="0">Breeze</tspan></text>
    </g>
    <g>
      <text class="cls-6" transform="translate(279.84 482.84)"><tspan x="0" y="0">G</tspan></text>
      <text class="cls-8" transform="translate(303.19 482.84)"><tspan x="0" y="0">Glitter, Gold</tspan></text>
    </g>
    <g>
      <text class="cls-6" transform="translate(557.93 482.84)"><tspan x="0" y="0">P</tspan></text>
      <text class="cls-8" transform="translate(580.39 482.84)"><tspan x="0" y="0">Pit</tspan></text>
    </g>
    <g>
      <text class="cls-6" transform="translate(623.05 482.84)"><tspan x="0" y="0">S</tspan></text>
      <text class="cls-8" transform="translate(645.51 482.84)"><tspan x="0" y="0">Stench</tspan></text>
    </g>
    <g>
      <text class="cls-6" transform="translate(719.31 482.84)"><tspan x="0" y="0">V</tspan></text>
      <text class="cls-8" transform="translate(741.78 482.84)"><tspan x="0" y="0">Visited</tspan></text>
    </g>
    <g>
      <text class="cls-6" transform="translate(813.78 482.84)"><tspan x="0" y="0">W</tspan></text>
      <text class="cls-8" transform="translate(838.46 482.84)"><tspan x="0" y="0">Wumpus</tspan></text>
    </g>
    <g>
      <text class="cls-6" transform="translate(412.54 482.84)"><tspan x="0" y="0">OK</tspan></text>
      <text class="cls-8" transform="translate(447.66 482.84)"><tspan x="0" y="0">Safe square</tspan></text>
    </g>
    <line class="cls-3" x1="170.27" y1="468.99" x2="170.27" y2="488.99"/>
    <line class="cls-3" x1="267.85" y1="468.99" x2="267.85" y2="488.99"/>
    <line class="cls-3" x1="400.54" y1="468.99" x2="400.54" y2="488.99"/>
    <line class="cls-3" x1="545.94" y1="468.99" x2="545.94" y2="488.99"/>
    <line class="cls-3" x1="611.06" y1="468.99" x2="611.06" y2="488.99"/>
    <line class="cls-3" x1="707.32" y1="468.99" x2="707.32" y2="488.99"/>
    <line class="cls-3" x1="801.79" y1="468.99" x2="801.79" y2="488.99"/>
  </g>
  <g>
    <rect class="cls-1" x="126.77" y="367.74" width="20" height="20"/>
    <text class="cls-9" transform="translate(130.99 383.51)"><tspan x="0" y="0">A</tspan></text>
  </g>
  <text class="cls-6" transform="translate(124.77 409.87)"><tspan x="0" y="0">OK</tspan></text>
  <text class="cls-6" transform="translate(124.77 320.26)"><tspan x="0" y="0">OK</tspan></text>
  <text class="cls-6" transform="translate(212.33 409.87)"><tspan x="0" y="0">OK</tspan></text>
</svg>