<?xml version="1.0" encoding="UTF-8"?>
<svg id="content" xmlns="http://www.w3.org/2000/svg" viewBox="0 0 988 525">
  <defs>
    <style>
      .cls-1 {
        font-family: ArialMT, Arial;
        font-size: 12px;
      }

      .cls-2 {
        stroke-dasharray: 0 0 4 4;
      }

      .cls-2, .cls-3, .cls-4, .cls-5, .cls-6 {
        stroke-miterlimit: 10;
      }

      .cls-2, .cls-3, .cls-5, .cls-6 {
        stroke: #1d1d1b;
      }

      .cls-2, .cls-5, .cls-6 {
        fill: none;
      }

      .cls-3 {
        fill: #fff;
      }

      .cls-3, .cls-5 {
        stroke-width: 2px;
      }

      .cls-4 {
        stroke: #fff;
      }

      .cls-4, .cls-7 {
        fill: #1d1d1b;
      }

      .cls-8 {
        letter-spacing: -.11em;
      }

      .cls-9, .cls-7, .cls-10 {
        stroke-width: 0px;
      }

      .cls-10 {
        fill: #0333ff;
      }

      .cls-11 {
        font-family: Arial-BoldMT, Arial;
        font-size: 18px;
        font-weight: 700;
      }
    </style>
  </defs>
  <rect class="cls-4" x="151.66" y="239.89" width="140" height="100"/>
  <rect class="cls-4" x="141.66" y="229.89" width="140" height="100"/>
  <rect class="cls-4" x="826.82" y="70.79" width="140" height="100"/>
  <rect class="cls-4" x="816.82" y="60.79" width="140" height="100"/>
  <text class="cls-1" transform="translate(13.4 264.89)"><tspan x="0" y="0">External audit</tspan><tspan x="4" y="16.4">Internal audit</tspan></text>
  <text class="cls-1" transform="translate(152.52 355.33)"><tspan x="0" y="0">Business, I</tspan><tspan class="cls-8" x="58.69" y="0">T</tspan><tspan x="64.69" y="0">, ...</tspan></text>
  <g>
    <rect class="cls-3" x="131.66" y="219.89" width="140" height="100"/>
    <text class="cls-11" transform="translate(164.17 263.42)"><tspan x="0" y="0">Intended</tspan><tspan x="2.48" y="21.6">strategy</tspan></text>
  </g>
  <g>
    <rect class="cls-3" x="806.82" y="50.79" width="140" height="100"/>
    <text class="cls-11" transform="translate(840.31 94.32)"><tspan x="0" y="0">Realized</tspan><tspan x="1.5" y="21.6">strategy</tspan></text>
  </g>
  <g>
    <rect class="cls-3" x="806.82" y="219.89" width="140" height="100"/>
    <g>
      <path class="cls-9" d="M840.56,263.42v-12.88h2.6v12.88h-2.6Z"/>
      <path class="cls-9" d="M854.11,263.42h-2.47v-4.76c0-1.01-.05-1.66-.16-1.96s-.28-.53-.51-.69c-.24-.16-.52-.25-.86-.25-.43,0-.81.12-1.15.35s-.57.54-.7.93c-.12.39-.19,1.1-.19,2.14v4.23h-2.47v-9.33h2.29v1.37c.81-1.05,1.84-1.58,3.08-1.58.54,0,1.04.1,1.49.29s.79.45,1.02.75c.23.3.39.65.48,1.04.09.39.14.94.14,1.66v5.8Z"/>
      <path class="cls-9" d="M860.89,254.09v1.97h-1.69v3.76c0,.76.02,1.21.05,1.33.03.13.11.23.22.31.12.08.25.12.42.12.23,0,.56-.08.99-.24l.21,1.92c-.57.25-1.22.37-1.95.37-.45,0-.85-.07-1.2-.22s-.62-.34-.79-.58c-.17-.24-.28-.56-.35-.96-.05-.29-.08-.87-.08-1.74v-4.07h-1.13v-1.97h1.13v-1.85l2.48-1.44v3.3h1.69Z"/>
      <path class="cls-9" d="M868.01,260.45l2.46.41c-.32.9-.82,1.59-1.5,2.06-.68.47-1.54.71-2.56.71-1.62,0-2.82-.53-3.6-1.59-.62-.85-.92-1.92-.92-3.22,0-1.55.4-2.76,1.21-3.63s1.83-1.31,3.07-1.31c1.39,0,2.48.46,3.29,1.38s1.19,2.32,1.15,4.21h-6.19c.02.73.22,1.3.6,1.71s.86.61,1.42.61c.39,0,.71-.11.98-.32s.46-.55.6-1.02ZM868.15,257.96c-.02-.71-.2-1.26-.55-1.63s-.78-.56-1.28-.56c-.54,0-.98.2-1.34.59s-.52.93-.52,1.6h3.69Z"/>
      <path class="cls-9" d="M881.11,263.42h-2.47v-4.76c0-1.01-.05-1.66-.16-1.96s-.28-.53-.51-.69c-.24-.16-.52-.25-.86-.25-.43,0-.81.12-1.15.35s-.57.54-.7.93c-.12.39-.19,1.1-.19,2.14v4.23h-2.47v-9.33h2.29v1.37c.81-1.05,1.84-1.58,3.08-1.58.54,0,1.04.1,1.49.29s.79.45,1.02.75c.23.3.39.65.48,1.04.09.39.14.94.14,1.66v5.8Z"/>
      <path class="cls-9" d="M892.17,263.42h-2.29v-1.37c-.38.53-.83.93-1.35,1.19-.52.26-1.04.39-1.57.39-1.07,0-1.99-.43-2.76-1.3-.76-.86-1.15-2.07-1.15-3.62s.37-2.78,1.12-3.61,1.68-1.24,2.82-1.24c1.04,0,1.95.43,2.71,1.3v-4.64h2.47v12.88ZM885.58,258.56c0,1,.14,1.72.41,2.16.4.64.96.97,1.67.97.57,0,1.05-.24,1.45-.72s.6-1.21.6-2.17c0-1.07-.19-1.84-.58-2.32s-.88-.71-1.49-.71-1.08.23-1.47.7c-.39.47-.59,1.16-.59,2.09Z"/>
      <path class="cls-9" d="M900.01,260.45l2.46.41c-.32.9-.82,1.59-1.5,2.06-.68.47-1.54.71-2.56.71-1.62,0-2.82-.53-3.6-1.59-.62-.85-.92-1.92-.92-3.22,0-1.55.4-2.76,1.21-3.63s1.83-1.31,3.07-1.31c1.39,0,2.48.46,3.29,1.38s1.19,2.32,1.15,4.21h-6.19c.02.73.22,1.3.6,1.71s.86.61,1.42.61c.39,0,.71-.11.98-.32s.46-.55.6-1.02ZM900.16,257.96c-.02-.71-.2-1.26-.55-1.63s-.78-.56-1.28-.56c-.54,0-.98.2-1.34.59s-.52.93-.52,1.6h3.69Z"/>
      <path class="cls-9" d="M913.18,263.42h-2.29v-1.37c-.38.53-.83.93-1.35,1.19-.52.26-1.04.39-1.57.39-1.07,0-1.99-.43-2.76-1.3-.76-.86-1.15-2.07-1.15-3.62s.37-2.78,1.12-3.61,1.68-1.24,2.82-1.24c1.04,0,1.95.43,2.71,1.3v-4.64h2.47v12.88ZM906.59,258.56c0,1,.14,1.72.41,2.16.4.64.96.97,1.67.97.57,0,1.05-.24,1.45-.72s.6-1.21.6-2.17c0-1.07-.19-1.84-.58-2.32s-.88-.71-1.49-.71-1.08.23-1.47.7c-.39.47-.59,1.16-.59,2.09Z"/>
      <path class="cls-9" d="M835.04,280.23c0-.82.2-1.61.61-2.38s.98-1.35,1.72-1.76c.74-.4,1.57-.61,2.48-.61,1.41,0,2.57.46,3.47,1.38s1.35,2.08,1.35,3.48-.46,2.58-1.37,3.51c-.91.93-2.06,1.39-3.44,1.39-.86,0-1.67-.19-2.45-.58-.78-.39-1.37-.95-1.77-1.7s-.61-1.66-.61-2.73ZM837.57,280.36c0,.93.22,1.63.66,2.13s.98.74,1.63.74,1.19-.25,1.62-.74c.44-.49.66-1.21.66-2.14s-.22-1.62-.66-2.11c-.44-.49-.98-.74-1.62-.74s-1.19.25-1.63.74-.66,1.2-.66,2.13Z"/>
      <path class="cls-9" d="M852.75,285.02v-1.4c-.34.5-.79.89-1.34,1.18-.55.29-1.14.43-1.75.43s-1.19-.14-1.69-.41-.86-.66-1.08-1.16-.33-1.19-.33-2.07v-5.91h2.47v4.29c0,1.31.05,2.12.14,2.41.09.3.26.53.5.7s.54.26.91.26c.42,0,.8-.12,1.13-.35s.56-.52.69-.86.18-1.18.18-2.52v-3.94h2.47v9.33h-2.29Z"/>
      <path class="cls-9" d="M861.88,275.69v1.97h-1.69v3.76c0,.76.02,1.21.05,1.33.03.13.11.23.22.31.12.08.25.12.42.12.23,0,.56-.08.99-.24l.21,1.92c-.57.25-1.22.37-1.95.37-.45,0-.85-.08-1.2-.22s-.62-.34-.79-.58c-.17-.24-.28-.56-.35-.96-.05-.29-.08-.87-.08-1.74v-4.07h-1.13v-1.97h1.13v-1.85l2.48-1.44v3.3h1.69Z"/>
      <path class="cls-9" d="M871.73,278.45l-2.43.44c-.08-.49-.27-.85-.56-1.1-.29-.25-.67-.37-1.13-.37-.62,0-1.11.21-1.47.64-.37.42-.55,1.14-.55,2.13,0,1.11.19,1.89.56,2.35.37.46.87.69,1.5.69.47,0,.85-.13,1.15-.4s.51-.72.63-1.38l2.43.41c-.25,1.11-.74,1.95-1.45,2.52s-1.67.85-2.87.85c-1.37,0-2.45-.43-3.26-1.29-.81-.86-1.22-2.05-1.22-3.58s.41-2.74,1.22-3.6,1.92-1.29,3.3-1.29c1.14,0,2.04.24,2.71.73.67.49,1.15,1.24,1.45,2.24Z"/>
      <path class="cls-9" d="M873.03,280.23c0-.82.2-1.61.61-2.38s.98-1.35,1.72-1.76c.74-.4,1.57-.61,2.48-.61,1.41,0,2.57.46,3.47,1.38s1.35,2.08,1.35,3.48-.46,2.58-1.37,3.51c-.91.93-2.06,1.39-3.44,1.39-.86,0-1.67-.19-2.45-.58-.78-.39-1.37-.95-1.77-1.7s-.61-1.66-.61-2.73ZM875.56,280.36c0,.93.22,1.63.66,2.13s.98.74,1.63.74,1.18-.25,1.62-.74c.44-.49.65-1.21.65-2.14s-.22-1.62-.65-2.11c-.44-.49-.98-.74-1.62-.74s-1.19.25-1.63.74-.66,1.2-.66,2.13Z"/>
      <path class="cls-9" d="M884.41,275.69h2.28v1.27c.81-.99,1.78-1.49,2.91-1.49.6,0,1.12.12,1.56.37s.8.62,1.08,1.12c.41-.5.85-.87,1.33-1.12s.98-.37,1.52-.37c.69,0,1.27.14,1.74.42s.83.69,1.06,1.23c.17.4.25,1.04.25,1.93v5.97h-2.47v-5.33c0-.93-.08-1.52-.25-1.79-.23-.35-.58-.53-1.05-.53-.35,0-.67.11-.98.32s-.52.52-.66.93-.2,1.05-.2,1.93v4.48h-2.47v-5.12c0-.91-.04-1.49-.13-1.76s-.22-.46-.41-.59c-.18-.13-.43-.19-.75-.19-.38,0-.72.1-1.03.31s-.52.5-.65.89c-.13.39-.2,1.03-.2,1.92v4.54h-2.47v-9.33Z"/>
      <path class="cls-9" d="M906.01,282.05l2.46.41c-.32.9-.82,1.59-1.5,2.06-.68.47-1.54.71-2.56.71-1.62,0-2.82-.53-3.6-1.59-.62-.85-.92-1.92-.92-3.22,0-1.55.4-2.76,1.21-3.63s1.83-1.31,3.07-1.31c1.39,0,2.48.46,3.29,1.38s1.19,2.32,1.15,4.21h-6.19c.02.73.22,1.3.6,1.71s.86.61,1.42.61c.39,0,.71-.11.98-.32s.46-.55.6-1.02ZM906.15,279.56c-.02-.71-.2-1.26-.55-1.63s-.78-.56-1.28-.56c-.54,0-.98.2-1.34.59s-.52.93-.52,1.6h3.69Z"/>
      <path class="cls-9" d="M909.74,282.36l2.48-.38c.11.48.32.84.64,1.09s.77.37,1.35.37c.64,0,1.12-.12,1.44-.35.22-.16.33-.38.33-.66,0-.19-.06-.34-.18-.47-.12-.12-.4-.23-.83-.33-1.99-.44-3.25-.84-3.79-1.2-.74-.5-1.11-1.2-1.11-2.1,0-.81.32-1.49.96-2.04s1.63-.83,2.97-.83,2.23.21,2.85.62,1.05,1.03,1.28,1.85l-2.33.43c-.1-.36-.29-.64-.57-.83-.28-.19-.67-.29-1.19-.29-.65,0-1.12.09-1.4.27-.19.13-.28.3-.28.5,0,.18.08.33.25.45.22.16.99.4,2.31.69,1.32.3,2.23.67,2.76,1.1.52.44.77,1.05.77,1.84,0,.86-.36,1.59-1.07,2.21s-1.77.92-3.17.92c-1.27,0-2.28-.26-3.02-.77-.74-.52-1.23-1.22-1.46-2.1Z"/>
    </g>
  </g>
  <g>
    <polyline class="cls-5" points="271.66 269.63 413.69 269.63 514.1 208.2 637.86 208.2 797.74 106.56"/>
    <polygon class="cls-7" points="799.91 114.05 806.82 100.79 791.88 101.42 799.91 114.05"/>
  </g>
  <g>
    <line class="cls-6" x1="104.67" y1="269.63" x2="119.53" y2="269.63"/>
    <polygon class="cls-7" points="118.44 273.37 124.91 269.63 118.44 265.89 118.44 273.37"/>
  </g>
  <g>
    <line class="cls-2" x1="413.69" y1="269.89" x2="801.44" y2="269.89"/>
    <polygon class="cls-7" points="800.35 273.63 806.82 269.89 800.35 266.15 800.35 273.63"/>
  </g>
  <g>
    <path class="cls-7" d="M306.04,91.32v-8.59h1.14v8.59h-1.14Z"/>
    <path class="cls-7" d="M309.05,91.32v-6.22h.94v.87c.2-.3.46-.55.78-.74s.69-.28,1.11-.28c.46,0,.84.1,1.13.29s.5.46.62.8c.49-.73,1.13-1.09,1.92-1.09.62,0,1.09.17,1.42.51s.5.87.5,1.58v4.27h-1.05v-3.92c0-.42-.03-.73-.1-.91s-.19-.33-.37-.45-.39-.17-.63-.17c-.44,0-.8.15-1.09.44s-.43.76-.43,1.4v3.62h-1.05v-4.04c0-.47-.09-.82-.26-1.05s-.45-.35-.84-.35c-.3,0-.57.08-.82.23s-.43.38-.55.69-.17.73-.17,1.3v3.23h-1.05Z"/>
    <path class="cls-7" d="M319.05,93.7v-8.61h.96v.81c.23-.32.48-.55.77-.71s.63-.24,1.04-.24c.53,0,1,.14,1.41.41s.71.66.92,1.16.31,1.04.31,1.64c0,.64-.11,1.21-.34,1.72s-.56.9-1,1.17-.89.41-1.37.41c-.35,0-.67-.07-.95-.22s-.51-.34-.69-.56v3.03h-1.05ZM320,88.24c0,.8.16,1.39.49,1.78s.72.57,1.18.57.87-.2,1.2-.59.5-1.01.5-1.84-.16-1.39-.49-1.78-.72-.59-1.17-.59-.85.21-1.19.63-.52,1.03-.52,1.83Z"/>
    <path class="cls-7" d="M325.33,88.21c0-1.15.32-2.01.96-2.56.54-.46,1.19-.69,1.96-.69.86,0,1.55.28,2.1.84s.81,1.33.81,2.32c0,.8-.12,1.43-.36,1.89s-.59.82-1.05,1.07-.96.38-1.5.38c-.87,0-1.58-.28-2.11-.84s-.81-1.36-.81-2.41ZM326.41,88.21c0,.8.17,1.39.52,1.79s.79.59,1.31.59.96-.2,1.31-.6.52-1.01.52-1.82c0-.77-.17-1.35-.52-1.75s-.78-.59-1.3-.59-.96.2-1.31.59-.52.99-.52,1.79Z"/>
    <path class="cls-7" d="M331.97,89.46l1.04-.16c.06.42.22.74.49.96s.64.33,1.12.33.84-.1,1.08-.3.35-.43.35-.69c0-.24-.1-.43-.31-.56-.14-.09-.5-.21-1.08-.36-.77-.2-1.31-.36-1.61-.51s-.53-.34-.68-.59-.23-.53-.23-.83c0-.28.06-.53.19-.77s.3-.43.52-.59c.16-.12.39-.22.67-.31s.59-.13.91-.13c.49,0,.92.07,1.29.21s.64.33.82.57.3.56.36.96l-1.03.14c-.05-.32-.18-.57-.41-.75s-.54-.27-.95-.27c-.48,0-.83.08-1.04.24s-.31.35-.31.56c0,.14.04.26.13.37.09.11.22.21.4.28.11.04.42.13.93.27.75.2,1.27.36,1.56.49s.53.31.69.55.25.54.25.9-.1.68-.31.99-.5.55-.89.72-.82.25-1.31.25c-.81,0-1.42-.17-1.85-.5s-.69-.83-.81-1.49Z"/>
    <path class="cls-7" d="M342.65,89.32l1.09.13c-.17.64-.49,1.13-.96,1.48s-1.06.53-1.78.53c-.91,0-1.63-.28-2.17-.84s-.8-1.35-.8-2.36.27-1.86.81-2.44,1.24-.87,2.1-.87,1.51.28,2.04.85.79,1.36.79,2.39c0,.06,0,.16,0,.28h-4.64c.04.68.23,1.21.58,1.57s.78.54,1.3.54c.39,0,.72-.1.99-.3s.49-.53.65-.97ZM339.19,87.61h3.47c-.05-.52-.18-.92-.4-1.18-.34-.41-.77-.61-1.31-.61-.48,0-.89.16-1.22.49s-.51.76-.55,1.3Z"/>
    <path class="cls-7" d="M305.29,103.86l1.04-.16c.06.42.22.74.49.96s.64.33,1.12.33.84-.1,1.08-.3.35-.43.35-.69c0-.24-.1-.43-.31-.56-.14-.09-.5-.21-1.08-.36-.77-.2-1.31-.36-1.61-.51s-.53-.34-.68-.59-.23-.53-.23-.83c0-.28.06-.53.19-.77s.3-.43.52-.59c.16-.12.39-.22.67-.31s.59-.13.91-.13c.49,0,.92.07,1.29.21s.64.33.82.57.3.56.36.96l-1.03.14c-.05-.32-.18-.57-.41-.75s-.54-.27-.95-.27c-.48,0-.83.08-1.04.24s-.31.35-.31.56c0,.14.04.26.13.37.09.11.22.21.4.28.11.04.42.13.93.27.75.2,1.27.36,1.56.49s.53.31.69.55.25.54.25.9-.1.68-.31.99-.5.55-.89.72-.82.25-1.31.25c-.81,0-1.42-.17-1.85-.5s-.69-.83-.81-1.49Z"/>
    <path class="cls-7" d="M314.02,104.78l.15.93c-.3.06-.56.09-.8.09-.38,0-.68-.06-.89-.18s-.36-.28-.45-.48-.13-.61-.13-1.25v-3.58h-.77v-.82h.77v-1.54l1.05-.63v2.17h1.06v.82h-1.06v3.64c0,.3.02.49.06.58s.1.15.18.21.2.08.36.08c.12,0,.27-.01.46-.04Z"/>
    <path class="cls-7" d="M315.04,105.72v-6.22h.95v.94c.24-.44.47-.73.67-.87s.43-.21.68-.21c.36,0,.72.11,1.08.34l-.36.98c-.26-.15-.52-.23-.77-.23-.23,0-.44.07-.62.21s-.31.33-.39.58c-.12.38-.18.79-.18,1.23v3.26h-1.05Z"/>
    <path class="cls-7" d="M323.11,104.95c-.39.33-.77.57-1.13.7s-.75.21-1.16.21c-.68,0-1.21-.17-1.58-.5s-.55-.76-.55-1.28c0-.3.07-.58.21-.83s.32-.45.54-.61.48-.27.76-.35c.21-.05.52-.11.94-.16.85-.1,1.48-.22,1.88-.36,0-.14,0-.24,0-.28,0-.43-.1-.73-.3-.91-.27-.24-.67-.36-1.2-.36-.5,0-.86.09-1.1.26s-.41.48-.52.92l-1.03-.14c.09-.44.25-.8.46-1.07s.53-.48.93-.63.88-.22,1.41-.22.96.06,1.29.19.58.28.73.47.27.43.33.72c.04.18.05.5.05.97v1.41c0,.98.02,1.6.07,1.86s.13.51.27.75h-1.1c-.11-.22-.18-.47-.21-.77ZM323.02,102.6c-.38.16-.96.29-1.72.4-.43.06-.74.13-.92.21s-.32.19-.42.34-.15.32-.15.5c0,.28.11.52.32.7s.52.28.93.28.77-.09,1.08-.27.55-.42.7-.73c.11-.24.17-.59.17-1.05v-.39Z"/>
    <path class="cls-7" d="M328.02,104.78l.15.93c-.3.06-.56.09-.8.09-.38,0-.68-.06-.89-.18s-.36-.28-.45-.48-.13-.61-.13-1.25v-3.58h-.77v-.82h.77v-1.54l1.05-.63v2.17h1.06v.82h-1.06v3.64c0,.3.02.49.06.58s.1.15.18.21.2.08.36.08c.12,0,.27-.01.46-.04Z"/>
    <path class="cls-7" d="M333.31,103.72l1.09.13c-.17.64-.49,1.13-.96,1.48s-1.06.53-1.78.53c-.91,0-1.63-.28-2.17-.84s-.8-1.35-.8-2.36.27-1.86.81-2.44,1.24-.87,2.1-.87,1.51.28,2.04.85.79,1.36.79,2.39c0,.06,0,.16,0,.28h-4.64c.04.68.23,1.21.58,1.57s.78.54,1.3.54c.39,0,.72-.1.99-.3s.49-.53.65-.97ZM329.85,102.01h3.47c-.05-.52-.18-.92-.4-1.18-.34-.41-.77-.61-1.31-.61-.48,0-.89.16-1.22.49s-.51.76-.55,1.3Z"/>
    <path class="cls-7" d="M335.53,106.24l1.03.15c.04.32.16.55.36.69.26.2.62.29,1.07.29.49,0,.87-.1,1.13-.29s.45-.47.54-.82c.05-.21.08-.67.08-1.35-.46.54-1.04.81-1.72.81-.86,0-1.52-.31-1.99-.93s-.7-1.36-.7-2.22c0-.59.11-1.14.32-1.64s.53-.89.93-1.16.89-.41,1.44-.41c.73,0,1.34.3,1.82.89v-.75h.97v5.38c0,.97-.1,1.66-.3,2.06s-.51.72-.94.96-.95.35-1.58.35c-.74,0-1.34-.17-1.8-.5s-.68-.84-.66-1.51ZM336.41,102.5c0,.82.16,1.41.49,1.79s.73.56,1.22.56.89-.19,1.22-.56.49-.96.49-1.75-.17-1.34-.51-1.72-.75-.58-1.22-.58-.87.19-1.2.57-.49.95-.49,1.7Z"/>
    <path class="cls-7" d="M342.35,108.12l-.12-.99c.23.06.43.09.6.09.23,0,.42-.04.56-.12s.26-.19.35-.33c.07-.11.17-.37.32-.79.02-.06.05-.14.09-.26l-2.36-6.23h1.14l1.29,3.6c.17.46.32.94.45,1.44.12-.48.27-.96.43-1.42l1.33-3.63h1.05l-2.37,6.33c-.25.68-.45,1.15-.59,1.41-.19.35-.4.6-.64.76s-.53.24-.87.24c-.2,0-.43-.04-.68-.13Z"/>
  </g>
  <g>
    <path class="cls-7" d="M546.8,87.14c0-1.43.38-2.54,1.15-3.35s1.75-1.21,2.96-1.21c.79,0,1.51.19,2.14.57s1.12.91,1.46,1.58.5,1.45.5,2.31-.18,1.65-.53,2.34-.85,1.21-1.49,1.56-1.34.53-2.09.53c-.81,0-1.53-.2-2.17-.59s-1.12-.92-1.45-1.6-.49-1.39-.49-2.14ZM547.97,87.15c0,1.04.28,1.85.83,2.45s1.25.89,2.09.89,1.56-.3,2.11-.9.83-1.46.83-2.56c0-.7-.12-1.31-.35-1.83s-.58-.93-1.04-1.21-.97-.43-1.53-.43c-.8,0-1.5.28-2.08.83s-.87,1.48-.87,2.77Z"/>
    <path class="cls-7" d="M556.35,93.7v-8.61h.96v.81c.23-.32.48-.55.77-.71s.63-.24,1.04-.24c.53,0,1,.14,1.41.41s.71.66.92,1.16.31,1.04.31,1.64c0,.64-.11,1.21-.34,1.72s-.56.9-1,1.17-.89.41-1.37.41c-.35,0-.67-.07-.95-.22s-.51-.34-.69-.56v3.03h-1.05ZM557.3,88.24c0,.8.16,1.39.49,1.78s.72.57,1.18.57.87-.2,1.2-.59.5-1.01.5-1.84-.16-1.39-.49-1.78-.72-.59-1.17-.59-.85.21-1.19.63-.52,1.03-.52,1.83Z"/>
    <path class="cls-7" d="M562.63,88.21c0-1.15.32-2.01.96-2.56.54-.46,1.19-.69,1.96-.69.86,0,1.55.28,2.1.84s.81,1.33.81,2.32c0,.8-.12,1.43-.36,1.89s-.59.82-1.05,1.07-.96.38-1.5.38c-.87,0-1.58-.28-2.11-.84s-.81-1.36-.81-2.41ZM563.71,88.21c0,.8.17,1.39.52,1.79s.79.59,1.31.59.96-.2,1.31-.6.52-1.01.52-1.82c0-.77-.17-1.35-.52-1.75s-.78-.59-1.3-.59-.96.2-1.31.59-.52.99-.52,1.79Z"/>
    <path class="cls-7" d="M569.68,91.32v-6.22h.95v.94c.24-.44.47-.73.67-.87s.43-.21.68-.21c.36,0,.72.11,1.08.34l-.36.98c-.26-.15-.52-.23-.77-.23-.23,0-.44.07-.62.21s-.31.33-.39.58c-.12.38-.18.79-.18,1.23v3.26h-1.05Z"/>
    <path class="cls-7" d="M575.99,90.38l.15.93c-.3.06-.56.09-.8.09-.38,0-.68-.06-.89-.18s-.36-.28-.45-.48-.13-.61-.13-1.25v-3.58h-.77v-.82h.77v-1.54l1.05-.63v2.17h1.06v.82h-1.06v3.64c0,.3.02.49.06.58s.1.15.18.21.2.08.36.08c.12,0,.27-.01.46-.04Z"/>
    <path class="cls-7" d="M581.1,91.32v-.91c-.48.7-1.14,1.05-1.97,1.05-.37,0-.71-.07-1.03-.21s-.55-.32-.71-.53-.26-.47-.33-.78c-.04-.21-.06-.54-.06-.98v-3.86h1.05v3.45c0,.55.02.92.06,1.11.07.28.21.5.42.65s.48.24.8.24.61-.08.89-.24.47-.38.59-.66.17-.68.17-1.22v-3.33h1.05v6.22h-.94Z"/>
    <path class="cls-7" d="M583.7,91.32v-6.22h.95v.88c.46-.68,1.12-1.03,1.98-1.03.38,0,.72.07,1.03.2s.55.31.71.53.27.48.33.78c.04.2.06.54.06,1.03v3.83h-1.05v-3.79c0-.43-.04-.75-.12-.96s-.23-.38-.44-.51-.45-.19-.74-.19c-.45,0-.84.14-1.16.43s-.49.83-.49,1.62v3.4h-1.05Z"/>
    <path class="cls-7" d="M590.38,83.94v-1.21h1.05v1.21h-1.05ZM590.38,91.32v-6.22h1.05v6.22h-1.05Z"/>
    <path class="cls-7" d="M592.62,89.46l1.04-.16c.06.42.22.74.49.96s.64.33,1.12.33.84-.1,1.08-.3.35-.43.35-.69c0-.24-.1-.43-.31-.56-.14-.09-.5-.21-1.08-.36-.77-.2-1.31-.36-1.61-.51s-.53-.34-.68-.59-.23-.53-.23-.83c0-.28.06-.53.19-.77s.3-.43.52-.59c.16-.12.39-.22.67-.31s.59-.13.91-.13c.49,0,.92.07,1.29.21s.64.33.82.57.3.56.36.96l-1.03.14c-.05-.32-.18-.57-.41-.75s-.54-.27-.95-.27c-.48,0-.83.08-1.04.24s-.31.35-.31.56c0,.14.04.26.13.37.09.11.22.21.4.28.11.04.42.13.93.27.75.2,1.27.36,1.56.49s.53.31.69.55.25.54.25.9-.1.68-.31.99-.5.55-.89.72-.82.25-1.31.25c-.81,0-1.42-.17-1.85-.5s-.69-.83-.81-1.49Z"/>
    <path class="cls-7" d="M601.34,90.38l.15.93c-.3.06-.56.09-.8.09-.38,0-.68-.06-.89-.18s-.36-.28-.45-.48-.13-.61-.13-1.25v-3.58h-.77v-.82h.77v-1.54l1.05-.63v2.17h1.06v.82h-1.06v3.64c0,.3.02.49.06.58s.1.15.18.21.2.08.36.08c.12,0,.27-.01.46-.04Z"/>
    <path class="cls-7" d="M602.38,83.94v-1.21h1.05v1.21h-1.05ZM602.38,91.32v-6.22h1.05v6.22h-1.05Z"/>
    <path class="cls-7" d="M609.1,89.04l1.04.13c-.11.71-.4,1.27-.87,1.68s-1.04.61-1.72.61c-.85,0-1.54-.28-2.05-.83s-.78-1.35-.78-2.39c0-.67.11-1.26.33-1.76s.56-.88,1.02-1.13.95-.38,1.49-.38c.68,0,1.23.17,1.66.51s.71.83.83,1.46l-1.03.16c-.1-.42-.27-.73-.52-.94s-.55-.32-.9-.32c-.53,0-.96.19-1.29.57s-.5.98-.5,1.81.16,1.44.48,1.82.74.57,1.25.57c.41,0,.76-.13,1.04-.38s.45-.64.53-1.17Z"/>
    <path class="cls-7" d="M546.59,103.86l1.04-.16c.06.42.22.74.49.96s.64.33,1.12.33.84-.1,1.08-.3.35-.43.35-.69c0-.24-.1-.43-.31-.56-.14-.09-.5-.21-1.08-.36-.77-.2-1.31-.36-1.61-.51s-.53-.34-.68-.59-.23-.53-.23-.83c0-.28.06-.53.19-.77s.3-.43.52-.59c.16-.12.39-.22.67-.31s.59-.13.91-.13c.49,0,.92.07,1.29.21s.64.33.82.57.3.56.36.96l-1.03.14c-.05-.32-.18-.57-.41-.75s-.54-.27-.95-.27c-.48,0-.83.08-1.04.24s-.31.35-.31.56c0,.14.04.26.13.37.09.11.22.21.4.28.11.04.42.13.93.27.75.2,1.27.36,1.56.49s.53.31.69.55.25.54.25.9-.1.68-.31.99-.5.55-.89.72-.82.25-1.31.25c-.81,0-1.42-.17-1.85-.5s-.69-.83-.81-1.49Z"/>
    <path class="cls-7" d="M555.32,104.78l.15.93c-.3.06-.56.09-.8.09-.38,0-.68-.06-.89-.18s-.36-.28-.45-.48-.13-.61-.13-1.25v-3.58h-.77v-.82h.77v-1.54l1.05-.63v2.17h1.06v.82h-1.06v3.64c0,.3.02.49.06.58s.1.15.18.21.2.08.36.08c.12,0,.27-.01.46-.04Z"/>
    <path class="cls-7" d="M556.34,105.72v-6.22h.95v.94c.24-.44.47-.73.67-.87s.43-.21.68-.21c.36,0,.72.11,1.08.34l-.36.98c-.26-.15-.52-.23-.77-.23-.23,0-.44.07-.62.21s-.31.33-.39.58c-.12.38-.18.79-.18,1.23v3.26h-1.05Z"/>
    <path class="cls-7" d="M564.4,104.95c-.39.33-.77.57-1.13.7s-.75.21-1.16.21c-.68,0-1.21-.17-1.58-.5s-.55-.76-.55-1.28c0-.3.07-.58.21-.83s.32-.45.54-.61.48-.27.76-.35c.21-.05.52-.11.94-.16.85-.1,1.48-.22,1.88-.36,0-.14,0-.24,0-.28,0-.43-.1-.73-.3-.91-.27-.24-.67-.36-1.2-.36-.5,0-.86.09-1.1.26s-.41.48-.52.92l-1.03-.14c.09-.44.25-.8.46-1.07s.53-.48.93-.63.88-.22,1.41-.22.96.06,1.29.19.58.28.73.47.27.43.33.72c.04.18.05.5.05.97v1.41c0,.98.02,1.6.07,1.86s.13.51.27.75h-1.1c-.11-.22-.18-.47-.21-.77ZM564.32,102.6c-.38.16-.96.29-1.72.4-.43.06-.74.13-.92.21s-.32.19-.42.34-.15.32-.15.5c0,.28.11.52.32.7s.52.28.93.28.77-.09,1.08-.27.55-.42.7-.73c.11-.24.17-.59.17-1.05v-.39Z"/>
    <path class="cls-7" d="M569.32,104.78l.15.93c-.3.06-.56.09-.8.09-.38,0-.68-.06-.89-.18s-.36-.28-.45-.48-.13-.61-.13-1.25v-3.58h-.77v-.82h.77v-1.54l1.05-.63v2.17h1.06v.82h-1.06v3.64c0,.3.02.49.06.58s.1.15.18.21.2.08.36.08c.12,0,.27-.01.46-.04Z"/>
    <path class="cls-7" d="M574.61,103.72l1.09.13c-.17.64-.49,1.13-.96,1.48s-1.06.53-1.78.53c-.91,0-1.63-.28-2.17-.84s-.8-1.35-.8-2.36.27-1.86.81-2.44,1.24-.87,2.1-.87,1.51.28,2.04.85.79,1.36.79,2.39c0,.06,0,.16,0,.28h-4.64c.04.68.23,1.21.58,1.57s.78.54,1.3.54c.39,0,.72-.1.99-.3s.49-.53.65-.97ZM571.15,102.01h3.47c-.05-.52-.18-.92-.4-1.18-.34-.41-.77-.61-1.31-.61-.48,0-.89.16-1.22.49s-.51.76-.55,1.3Z"/>
    <path class="cls-7" d="M576.83,106.24l1.03.15c.04.32.16.55.36.69.26.2.62.29,1.07.29.49,0,.87-.1,1.13-.29s.45-.47.54-.82c.05-.21.08-.67.08-1.35-.46.54-1.04.81-1.72.81-.86,0-1.52-.31-1.99-.93s-.7-1.36-.7-2.22c0-.59.11-1.14.32-1.64s.53-.89.93-1.16.89-.41,1.44-.41c.73,0,1.34.3,1.82.89v-.75h.97v5.38c0,.97-.1,1.66-.3,2.06s-.51.72-.94.96-.95.35-1.58.35c-.74,0-1.34-.17-1.8-.5s-.68-.84-.66-1.51ZM577.71,102.5c0,.82.16,1.41.49,1.79s.73.56,1.22.56.89-.19,1.22-.56.49-.96.49-1.75-.17-1.34-.51-1.72-.75-.58-1.22-.58-.87.19-1.2.57-.49.95-.49,1.7Z"/>
    <path class="cls-7" d="M583.65,108.12l-.12-.99c.23.06.43.09.6.09.23,0,.42-.04.56-.12s.26-.19.35-.33c.07-.11.17-.37.32-.79.02-.06.05-.14.09-.26l-2.36-6.23h1.14l1.29,3.6c.17.46.32.94.45,1.44.12-.48.27-.96.43-1.42l1.33-3.63h1.05l-2.37,6.33c-.25.68-.45,1.15-.59,1.41-.19.35-.4.6-.64.76s-.53.24-.87.24c-.2,0-.43-.04-.68-.13Z"/>
  </g>
  <g>
    <path class="cls-7" d="M721.32,176.72v-8.59h6.21v1.01h-5.07v2.63h4.75v1.01h-4.75v2.92h5.27v1.01h-6.41Z"/>
    <path class="cls-7" d="M729.17,176.72v-6.22h.94v.87c.2-.3.46-.55.78-.74s.69-.28,1.11-.28c.46,0,.84.1,1.13.29s.5.46.62.8c.49-.73,1.13-1.09,1.92-1.09.62,0,1.09.17,1.42.51s.5.87.5,1.58v4.27h-1.05v-3.92c0-.42-.03-.73-.1-.91s-.19-.33-.37-.45-.39-.17-.63-.17c-.44,0-.8.15-1.09.44s-.43.76-.43,1.4v3.62h-1.05v-4.04c0-.47-.09-.82-.26-1.05s-.45-.35-.84-.35c-.3,0-.57.08-.82.23s-.43.38-.55.69-.17.73-.17,1.3v3.23h-1.05Z"/>
    <path class="cls-7" d="M743.42,174.72l1.09.13c-.17.64-.49,1.13-.96,1.48s-1.06.53-1.78.53c-.91,0-1.63-.28-2.17-.84s-.8-1.35-.8-2.36.27-1.86.81-2.44,1.24-.87,2.1-.87,1.51.28,2.04.85.79,1.36.79,2.39c0,.06,0,.16,0,.28h-4.64c.04.68.23,1.21.58,1.57s.78.54,1.3.54c.39,0,.72-.1.99-.3s.49-.53.65-.97ZM739.96,173.01h3.47c-.05-.52-.18-.92-.4-1.18-.34-.41-.77-.61-1.31-.61-.48,0-.89.16-1.22.49s-.51.76-.55,1.3Z"/>
    <path class="cls-7" d="M745.82,176.72v-6.22h.95v.94c.24-.44.47-.73.67-.87s.43-.21.68-.21c.36,0,.72.11,1.08.34l-.36.98c-.26-.15-.52-.23-.77-.23-.23,0-.44.07-.62.21s-.31.33-.39.58c-.12.38-.18.79-.18,1.23v3.26h-1.05Z"/>
    <path class="cls-7" d="M749.64,177.24l1.03.15c.04.32.16.55.36.69.26.2.62.29,1.07.29.49,0,.87-.1,1.13-.29s.45-.47.54-.82c.05-.21.08-.67.08-1.35-.46.54-1.04.81-1.72.81-.86,0-1.52-.31-1.99-.93s-.7-1.36-.7-2.22c0-.59.11-1.14.32-1.64s.53-.89.93-1.16.89-.41,1.44-.41c.73,0,1.34.3,1.82.89v-.75h.97v5.38c0,.97-.1,1.66-.3,2.06s-.51.72-.94.96-.95.35-1.58.35c-.74,0-1.34-.17-1.8-.5s-.68-.84-.66-1.51ZM750.51,173.5c0,.82.16,1.41.49,1.79s.73.56,1.22.56.89-.19,1.22-.56.49-.96.49-1.75-.17-1.34-.51-1.72-.75-.58-1.22-.58-.87.19-1.2.57-.49.95-.49,1.7Z"/>
    <path class="cls-7" d="M760.77,174.72l1.09.13c-.17.64-.49,1.13-.96,1.48s-1.06.53-1.78.53c-.91,0-1.63-.28-2.17-.84s-.8-1.35-.8-2.36.27-1.86.81-2.44,1.24-.87,2.1-.87,1.51.28,2.04.85.79,1.36.79,2.39c0,.06,0,.16,0,.28h-4.64c.04.68.23,1.21.58,1.57s.78.54,1.3.54c.39,0,.72-.1.99-.3s.49-.53.65-.97ZM757.3,173.01h3.47c-.05-.52-.18-.92-.4-1.18-.34-.41-.77-.61-1.31-.61-.48,0-.89.16-1.22.49s-.51.76-.55,1.3Z"/>
    <path class="cls-7" d="M763.18,176.72v-6.22h.95v.88c.46-.68,1.12-1.03,1.98-1.03.38,0,.72.07,1.03.2s.55.31.71.53.27.48.33.78c.04.2.06.54.06,1.03v3.83h-1.05v-3.79c0-.43-.04-.75-.12-.96s-.23-.38-.44-.51-.45-.19-.74-.19c-.45,0-.84.14-1.16.43s-.49.83-.49,1.62v3.4h-1.05Z"/>
    <path class="cls-7" d="M772.16,175.78l.15.93c-.3.06-.56.09-.8.09-.38,0-.68-.06-.89-.18s-.36-.28-.45-.48-.13-.61-.13-1.25v-3.58h-.77v-.82h.77v-1.54l1.05-.63v2.17h1.06v.82h-1.06v3.64c0,.3.02.49.06.58s.1.15.18.21.2.08.36.08c.12,0,.27-.01.46-.04Z"/>
    <path class="cls-7" d="M720.74,189.26l1.04-.16c.06.42.22.74.49.96s.64.33,1.12.33.84-.1,1.08-.3.35-.43.35-.69c0-.24-.1-.43-.31-.56-.14-.09-.5-.21-1.08-.36-.77-.2-1.31-.36-1.61-.51s-.53-.34-.68-.59-.23-.53-.23-.83c0-.28.06-.53.19-.77s.3-.43.52-.59c.16-.12.39-.22.67-.31s.59-.13.91-.13c.49,0,.92.07,1.29.21s.64.33.82.57.3.56.36.96l-1.03.14c-.05-.32-.18-.57-.41-.75s-.54-.27-.95-.27c-.48,0-.83.08-1.04.24s-.31.35-.31.56c0,.14.04.26.13.37.09.11.22.21.4.28.11.04.42.13.93.27.75.2,1.27.36,1.56.49s.53.31.69.55.25.54.25.9-.1.68-.31.99-.5.55-.89.72-.82.25-1.31.25c-.81,0-1.42-.17-1.85-.5s-.69-.83-.81-1.49Z"/>
    <path class="cls-7" d="M729.46,190.18l.15.93c-.3.06-.56.09-.8.09-.38,0-.68-.06-.89-.18s-.36-.28-.45-.48-.13-.61-.13-1.25v-3.58h-.77v-.82h.77v-1.54l1.05-.63v2.17h1.06v.82h-1.06v3.64c0,.3.02.49.06.58s.1.15.18.21.2.08.36.08c.12,0,.27-.01.46-.04Z"/>
    <path class="cls-7" d="M730.48,191.12v-6.22h.95v.94c.24-.44.47-.73.67-.87s.43-.21.68-.21c.36,0,.72.11,1.08.34l-.36.98c-.26-.15-.52-.23-.77-.23-.23,0-.44.07-.62.21s-.31.33-.39.58c-.12.38-.18.79-.18,1.23v3.26h-1.05Z"/>
    <path class="cls-7" d="M738.55,190.35c-.39.33-.77.57-1.13.7s-.75.21-1.16.21c-.68,0-1.21-.17-1.58-.5s-.55-.76-.55-1.28c0-.3.07-.58.21-.83s.32-.45.54-.61.48-.27.76-.35c.21-.05.52-.11.94-.16.85-.1,1.48-.22,1.88-.36,0-.14,0-.24,0-.28,0-.43-.1-.73-.3-.91-.27-.24-.67-.36-1.2-.36-.5,0-.86.09-1.1.26s-.41.48-.52.92l-1.03-.14c.09-.44.25-.8.46-1.07s.53-.48.93-.63.88-.22,1.41-.22.96.06,1.29.19.58.28.73.47.27.43.33.72c.04.18.05.5.05.97v1.41c0,.98.02,1.6.07,1.86s.13.51.27.75h-1.1c-.11-.22-.18-.47-.21-.77ZM738.46,188c-.38.16-.96.29-1.72.4-.43.06-.74.13-.92.21s-.32.19-.42.34-.15.32-.15.5c0,.28.11.52.32.7s.52.28.93.28.77-.09,1.08-.27.55-.42.7-.73c.11-.24.17-.59.17-1.05v-.39Z"/>
    <path class="cls-7" d="M743.47,190.18l.15.93c-.3.06-.56.09-.8.09-.38,0-.68-.06-.89-.18s-.36-.28-.45-.48-.13-.61-.13-1.25v-3.58h-.77v-.82h.77v-1.54l1.05-.63v2.17h1.06v.82h-1.06v3.64c0,.3.02.49.06.58s.1.15.18.21.2.08.36.08c.12,0,.27-.01.46-.04Z"/>
    <path class="cls-7" d="M748.76,189.12l1.09.13c-.17.64-.49,1.13-.96,1.48s-1.06.53-1.78.53c-.91,0-1.63-.28-2.17-.84s-.8-1.35-.8-2.36.27-1.86.81-2.44,1.24-.87,2.1-.87,1.51.28,2.04.85.79,1.36.79,2.39c0,.06,0,.16,0,.28h-4.64c.04.68.23,1.21.58,1.57s.78.54,1.3.54c.39,0,.72-.1.99-.3s.49-.53.65-.97ZM745.3,187.41h3.47c-.05-.52-.18-.92-.4-1.18-.34-.41-.77-.61-1.31-.61-.48,0-.89.16-1.22.49s-.51.76-.55,1.3Z"/>
    <path class="cls-7" d="M750.98,191.64l1.03.15c.04.32.16.55.36.69.26.2.62.29,1.07.29.49,0,.87-.1,1.13-.29s.45-.47.54-.82c.05-.21.08-.67.08-1.35-.46.54-1.04.81-1.72.81-.86,0-1.52-.31-1.99-.93s-.7-1.36-.7-2.22c0-.59.11-1.14.32-1.64s.53-.89.93-1.16.89-.41,1.44-.41c.73,0,1.34.3,1.82.89v-.75h.97v5.38c0,.97-.1,1.66-.3,2.06s-.51.72-.94.96-.95.35-1.58.35c-.74,0-1.34-.17-1.8-.5s-.68-.84-.66-1.51ZM751.85,187.9c0,.82.16,1.41.49,1.79s.73.56,1.22.56.89-.19,1.22-.56.49-.96.49-1.75-.17-1.34-.51-1.72-.75-.58-1.22-.58-.87.19-1.2.57-.49.95-.49,1.7Z"/>
    <path class="cls-7" d="M757.8,193.52l-.12-.99c.23.06.43.09.6.09.23,0,.42-.04.56-.12s.26-.19.35-.33c.07-.11.17-.37.32-.79.02-.06.05-.14.09-.26l-2.36-6.23h1.14l1.29,3.6c.17.46.32.94.45,1.44.12-.48.27-.96.43-1.42l1.33-3.63h1.05l-2.37,6.33c-.25.68-.45,1.15-.59,1.41-.19.35-.4.6-.64.76s-.53.24-.87.24c-.2,0-.43-.04-.68-.13Z"/>
  </g>
  <g>
    <line class="cls-6" x1="325.22" y1="113.34" x2="412.76" y2="264.97"/>
    <polygon class="cls-7" points="408.98 265.89 415.45 269.63 415.46 262.15 408.98 265.89"/>
  </g>
  <g>
    <line class="cls-6" x1="583.17" y1="113.34" x2="635.27" y2="203.57"/>
    <polygon class="cls-7" points="631.48 204.49 637.96 208.23 637.96 200.75 631.48 204.49"/>
  </g>
  <g>
    <path class="cls-10" d="M311.29,42.8l1.68.53c-.26.94-.69,1.63-1.29,2.09s-1.36.68-2.28.68c-1.14,0-2.08-.39-2.81-1.17s-1.1-1.84-1.1-3.2c0-1.43.37-2.54,1.11-3.33s1.71-1.19,2.91-1.19c1.05,0,1.9.31,2.56.93.39.37.68.89.88,1.58l-1.72.41c-.1-.45-.31-.8-.64-1.05s-.71-.39-1.17-.39c-.64,0-1.15.23-1.55.69s-.59,1.2-.59,2.22c0,1.09.2,1.86.59,2.32s.9.69,1.52.69c.46,0,.86-.15,1.19-.44s.57-.75.71-1.38Z"/>
    <path class="cls-10" d="M316.09,37.37v3.16c.53-.62,1.17-.93,1.9-.93.38,0,.72.07,1.03.21s.53.32.69.54.26.46.32.73.08.68.08,1.24v3.65h-1.65v-3.29c0-.65-.03-1.07-.09-1.24s-.17-.32-.33-.42-.36-.16-.59-.16c-.27,0-.52.07-.73.2s-.37.33-.47.6-.15.66-.15,1.19v3.12h-1.65v-8.59h1.65Z"/>
    <path class="cls-10" d="M323.01,41.63l-1.49-.27c.17-.6.46-1.05.87-1.34s1.02-.43,1.83-.43c.73,0,1.28.09,1.64.26s.61.39.76.66.22.76.22,1.47l-.02,1.92c0,.55.03.95.08,1.21s.15.54.3.83h-1.63c-.04-.11-.1-.27-.16-.49-.03-.1-.05-.16-.06-.19-.28.27-.58.48-.9.62s-.66.21-1.03.21c-.64,0-1.15-.17-1.51-.52s-.55-.79-.55-1.32c0-.35.08-.67.25-.94s.4-.49.71-.63.74-.27,1.31-.38c.77-.14,1.3-.28,1.6-.4v-.16c0-.32-.08-.54-.23-.68s-.45-.2-.88-.2c-.29,0-.52.06-.69.17s-.3.32-.4.61ZM325.22,42.97c-.21.07-.54.15-1,.25s-.76.19-.9.29c-.21.15-.32.35-.32.58s.09.43.26.6.39.25.66.25c.3,0,.58-.1.85-.29.2-.15.33-.33.39-.54.04-.14.06-.41.06-.8v-.33Z"/>
    <path class="cls-10" d="M334.12,45.96h-1.65v-3.18c0-.67-.04-1.11-.11-1.3s-.18-.35-.34-.46-.35-.16-.57-.16c-.29,0-.54.08-.77.23s-.38.36-.47.62-.13.73-.13,1.43v2.82h-1.65v-6.22h1.53v.91c.54-.7,1.23-1.05,2.05-1.05.36,0,.7.07,1,.2s.53.3.68.5.26.43.32.69.09.63.09,1.11v3.87Z"/>
    <path class="cls-10" d="M335.63,46.37l1.88.23c.03.22.1.37.22.45.16.12.4.18.74.18.43,0,.75-.06.97-.19.14-.09.25-.22.33-.42.05-.14.08-.39.08-.76v-.91c-.49.67-1.11,1.01-1.86,1.01-.84,0-1.5-.35-1.99-1.06-.38-.56-.57-1.25-.57-2.09,0-1.04.25-1.84.75-2.39s1.13-.83,1.87-.83,1.4.34,1.9,1.01v-.87h1.54v5.58c0,.73-.06,1.28-.18,1.65s-.29.65-.51.86-.51.37-.88.49-.83.18-1.39.18c-1.05,0-1.8-.18-2.24-.54s-.66-.82-.66-1.37c0-.05,0-.12,0-.2ZM337.11,42.72c0,.66.13,1.14.38,1.45s.57.46.95.46c.4,0,.74-.16,1.02-.47s.42-.78.42-1.4-.13-1.12-.4-1.44-.6-.47-1.01-.47-.72.15-.98.46-.38.77-.38,1.4Z"/>
    <path class="cls-10" d="M346.72,43.98l1.64.28c-.21.6-.54,1.06-1,1.37s-1.02.47-1.71.47c-1.08,0-1.88-.35-2.4-1.06-.41-.57-.62-1.28-.62-2.14,0-1.03.27-1.84.81-2.42s1.22-.88,2.04-.88c.93,0,1.66.31,2.19.92s.79,1.55.77,2.81h-4.12c.01.49.14.87.4,1.14s.57.41.95.41c.26,0,.47-.07.65-.21s.31-.37.4-.68ZM346.81,42.31c-.01-.48-.13-.84-.37-1.09s-.52-.37-.86-.37c-.36,0-.66.13-.89.39s-.35.62-.35,1.07h2.46Z"/>
    <path class="cls-10" d="M355.5,45.96h-1.53v-.91c-.25.36-.55.62-.9.79s-.69.26-1.05.26c-.71,0-1.33-.29-1.84-.86s-.76-1.38-.76-2.41.25-1.86.74-2.41,1.12-.82,1.88-.82c.7,0,1.3.29,1.8.87v-3.09h1.65v8.59ZM351.1,42.71c0,.66.09,1.14.28,1.44.27.43.64.64,1.11.64.38,0,.7-.16.97-.48s.4-.8.4-1.44c0-.71-.13-1.23-.39-1.54s-.59-.47-.99-.47-.72.16-.98.47-.4.77-.4,1.39Z"/>
    <path class="cls-10" d="M364.06,43.98l1.64.28c-.21.6-.54,1.06-1,1.37s-1.02.47-1.71.47c-1.08,0-1.88-.35-2.4-1.06-.41-.57-.62-1.28-.62-2.14,0-1.03.27-1.84.81-2.42s1.22-.88,2.04-.88c.93,0,1.66.31,2.19.92s.79,1.55.77,2.81h-4.12c.01.49.14.87.4,1.14s.57.41.95.41c.26,0,.47-.07.65-.21s.31-.37.4-.68ZM364.15,42.31c-.01-.48-.13-.84-.37-1.09s-.52-.37-.86-.37c-.36,0-.66.13-.89.39s-.35.62-.35,1.07h2.46Z"/>
    <path class="cls-10" d="M366.34,45.96l2.24-3.21-2.15-3.02h2.01l1.1,1.71,1.16-1.71h1.93l-2.11,2.95,2.3,3.28h-2.02l-1.27-1.93-1.28,1.93h-1.93Z"/>
    <path class="cls-10" d="M376.66,39.73v1.31h-1.12v2.51c0,.51.01.8.03.89s.07.15.15.21.17.08.28.08c.15,0,.37-.05.66-.16l.14,1.28c-.38.16-.82.25-1.3.25-.3,0-.56-.05-.8-.15s-.41-.23-.52-.39-.19-.37-.23-.64c-.04-.19-.05-.58-.05-1.16v-2.71h-.76v-1.31h.76v-1.24l1.65-.96v2.2h1.12Z"/>
    <path class="cls-10" d="M381.4,43.98l1.64.28c-.21.6-.54,1.06-1,1.37s-1.02.47-1.71.47c-1.08,0-1.88-.35-2.4-1.06-.41-.57-.62-1.28-.62-2.14,0-1.03.27-1.84.81-2.42s1.22-.88,2.04-.88c.93,0,1.66.31,2.19.92s.79,1.55.77,2.81h-4.12c.01.49.14.87.4,1.14s.57.41.95.41c.26,0,.47-.07.65-.21s.31-.37.4-.68ZM381.5,42.31c-.01-.48-.13-.84-.37-1.09s-.52-.37-.86-.37c-.36,0-.66.13-.89.39s-.35.62-.35,1.07h2.46Z"/>
    <path class="cls-10" d="M386.05,45.96h-1.65v-6.22h1.53v.88c.26-.42.5-.69.71-.83s.45-.2.71-.2c.38,0,.74.1,1.08.31l-.51,1.44c-.28-.18-.54-.27-.77-.27s-.43.06-.59.19-.29.36-.38.69-.14,1.03-.14,2.09v1.92Z"/>
    <path class="cls-10" d="M394.8,45.96h-1.65v-3.18c0-.67-.04-1.11-.11-1.3s-.18-.35-.34-.46-.35-.16-.57-.16c-.29,0-.54.08-.77.23s-.38.36-.47.62-.13.73-.13,1.43v2.82h-1.65v-6.22h1.53v.91c.54-.7,1.23-1.05,2.05-1.05.36,0,.7.07,1,.2s.53.3.68.5.26.43.32.69.09.63.09,1.11v3.87Z"/>
    <path class="cls-10" d="M397.7,41.63l-1.49-.27c.17-.6.46-1.05.87-1.34s1.02-.43,1.83-.43c.73,0,1.28.09,1.64.26s.61.39.76.66.22.76.22,1.47l-.02,1.92c0,.55.03.95.08,1.21s.15.54.3.83h-1.63c-.04-.11-.1-.27-.16-.49-.03-.1-.05-.16-.06-.19-.28.27-.58.48-.9.62s-.66.21-1.03.21c-.64,0-1.15-.17-1.51-.52s-.55-.79-.55-1.32c0-.35.08-.67.25-.94s.4-.49.71-.63.74-.27,1.31-.38c.77-.14,1.3-.28,1.6-.4v-.16c0-.32-.08-.54-.23-.68s-.45-.2-.88-.2c-.29,0-.52.06-.69.17s-.3.32-.4.61ZM399.91,42.97c-.21.07-.54.15-1,.25s-.76.19-.9.29c-.21.15-.32.35-.32.58s.09.43.26.6.39.25.66.25c.3,0,.58-.1.85-.29.2-.15.33-.33.39-.54.04-.14.06-.41.06-.8v-.33Z"/>
    <path class="cls-10" d="M403.15,45.96v-8.59h1.65v8.59h-1.65Z"/>
    <path class="cls-10" d="M409.09,39.73h.91v-.47c0-.52.06-.91.17-1.17s.32-.47.62-.63.68-.24,1.13-.24.93.07,1.38.21l-.22,1.15c-.26-.06-.51-.09-.76-.09s-.41.06-.51.17-.16.33-.16.64v.44h1.23v1.29h-1.23v4.93h-1.65v-4.93h-.91v-1.29Z"/>
    <path class="cls-10" d="M413.43,42.76c0-.55.13-1.08.4-1.59s.65-.9,1.15-1.17,1.05-.4,1.66-.4c.94,0,1.71.31,2.31.92s.9,1.38.9,2.32-.3,1.72-.91,2.34-1.37.93-2.29.93c-.57,0-1.11-.13-1.63-.39s-.91-.64-1.18-1.13-.4-1.1-.4-1.82ZM415.12,42.84c0,.62.15,1.09.44,1.42s.65.49,1.08.49.79-.16,1.08-.49.44-.8.44-1.43-.15-1.08-.44-1.41-.65-.49-1.08-.49-.79.16-1.08.49-.44.8-.44,1.42Z"/>
    <path class="cls-10" d="M422.72,45.96h-1.65v-6.22h1.53v.88c.26-.42.5-.69.71-.83s.45-.2.71-.2c.38,0,.74.1,1.08.31l-.51,1.44c-.28-.18-.54-.27-.77-.27s-.43.06-.59.19-.29.36-.38.69-.14,1.03-.14,2.09v1.92Z"/>
    <path class="cls-10" d="M431.24,41.57l-1.62.29c-.05-.32-.18-.57-.37-.73s-.44-.25-.75-.25c-.41,0-.74.14-.98.42s-.37.76-.37,1.42c0,.74.12,1.26.37,1.56s.58.46,1,.46c.31,0,.57-.09.77-.27s.34-.48.42-.92l1.62.28c-.17.74-.49,1.3-.97,1.68s-1.12.57-1.92.57c-.91,0-1.64-.29-2.18-.86s-.81-1.37-.81-2.38.27-1.83.81-2.4,1.28-.86,2.2-.86c.76,0,1.36.16,1.81.49s.77.82.96,1.49Z"/>
    <path class="cls-10" d="M436.09,43.98l1.64.28c-.21.6-.54,1.06-1,1.37s-1.02.47-1.71.47c-1.08,0-1.88-.35-2.4-1.06-.41-.57-.62-1.28-.62-2.14,0-1.03.27-1.84.81-2.42s1.22-.88,2.04-.88c.93,0,1.66.31,2.19.92s.79,1.55.77,2.81h-4.12c.01.49.14.87.4,1.14s.57.41.95.41c.26,0,.47-.07.65-.21s.31-.37.4-.68ZM436.18,42.31c-.01-.48-.13-.84-.37-1.09s-.52-.37-.86-.37c-.36,0-.66.13-.89.39s-.35.62-.35,1.07h2.46Z"/>
    <path class="cls-10" d="M438.58,44.18l1.65-.25c.07.32.21.56.43.73s.52.25.9.25c.43,0,.75-.08.96-.23.14-.11.22-.26.22-.44,0-.12-.04-.23-.12-.31-.08-.08-.27-.15-.55-.22-1.33-.29-2.17-.56-2.53-.8-.49-.34-.74-.8-.74-1.4,0-.54.21-.99.64-1.36s1.09-.55,1.98-.55,1.48.14,1.9.42.7.69.86,1.23l-1.55.29c-.07-.24-.19-.43-.38-.56s-.45-.19-.79-.19c-.43,0-.74.06-.93.18-.12.09-.19.2-.19.33,0,.12.05.22.16.3.15.11.66.26,1.54.46s1.49.44,1.84.73c.34.29.52.7.52,1.22,0,.57-.24,1.06-.71,1.47s-1.18.62-2.12.62c-.85,0-1.52-.17-2.01-.52s-.82-.81-.97-1.4Z"/>
    <path class="cls-10" d="M305.41,57.16c0-.55.13-1.08.4-1.59s.65-.9,1.15-1.17,1.05-.4,1.66-.4c.94,0,1.71.31,2.31.92s.9,1.38.9,2.32-.3,1.72-.91,2.34-1.37.93-2.29.93c-.57,0-1.11-.13-1.63-.39s-.91-.64-1.18-1.13-.4-1.1-.4-1.82ZM307.09,57.24c0,.62.15,1.09.44,1.42s.65.49,1.08.49.79-.16,1.08-.49.44-.8.44-1.43-.15-1.08-.44-1.41-.65-.49-1.08-.49-.79.16-1.08.49-.44.8-.44,1.42Z"/>
    <path class="cls-10" d="M314.69,60.36h-1.65v-6.22h1.53v.88c.26-.42.5-.69.71-.83s.45-.2.71-.2c.38,0,.74.1,1.08.31l-.51,1.44c-.28-.18-.54-.27-.77-.27s-.43.06-.59.19-.29.36-.38.69-.14,1.03-.14,2.09v1.92Z"/>
    <path class="cls-10" d="M321.12,53.29v-1.52h1.65v1.52h-1.65ZM321.12,60.36v-6.22h1.65v6.22h-1.65Z"/>
    <path class="cls-10" d="M330.12,60.36h-1.65v-3.18c0-.67-.04-1.11-.11-1.3s-.18-.35-.34-.46-.35-.16-.57-.16c-.29,0-.54.08-.77.23s-.38.36-.47.62-.13.73-.13,1.43v2.82h-1.65v-6.22h1.53v.91c.54-.7,1.23-1.05,2.05-1.05.36,0,.7.07,1,.2s.53.3.68.5.26.43.32.69.09.63.09,1.11v3.87Z"/>
    <path class="cls-10" d="M334.64,54.13v1.31h-1.12v2.51c0,.51.01.8.03.89s.07.15.15.21.17.08.28.08c.15,0,.37-.05.66-.16l.14,1.28c-.38.16-.82.25-1.3.25-.3,0-.56-.05-.8-.15s-.41-.23-.52-.39-.19-.37-.23-.64c-.04-.19-.05-.58-.05-1.16v-2.71h-.76v-1.31h.76v-1.24l1.65-.96v2.2h1.12Z"/>
    <path class="cls-10" d="M339.38,58.38l1.64.28c-.21.6-.54,1.06-1,1.37s-1.02.47-1.71.47c-1.08,0-1.88-.35-2.4-1.06-.41-.57-.62-1.28-.62-2.14,0-1.03.27-1.84.81-2.42s1.22-.88,2.04-.88c.93,0,1.66.31,2.19.92s.79,1.55.77,2.81h-4.12c.01.49.14.87.4,1.14s.57.41.95.41c.26,0,.47-.07.65-.21s.31-.37.4-.68ZM339.48,56.71c-.01-.48-.13-.84-.37-1.09s-.52-.37-.86-.37c-.36,0-.66.13-.89.39s-.35.62-.35,1.07h2.46Z"/>
    <path class="cls-10" d="M344.03,60.36h-1.65v-6.22h1.53v.88c.26-.42.5-.69.71-.83s.45-.2.71-.2c.38,0,.74.1,1.08.31l-.51,1.44c-.28-.18-.54-.27-.77-.27s-.43.06-.59.19-.29.36-.38.69-.14,1.03-.14,2.09v1.92Z"/>
    <path class="cls-10" d="M352.79,60.36h-1.65v-3.18c0-.67-.04-1.11-.11-1.3s-.18-.35-.34-.46-.35-.16-.57-.16c-.29,0-.54.08-.77.23s-.38.36-.47.62-.13.73-.13,1.43v2.82h-1.65v-6.22h1.53v.91c.54-.7,1.23-1.05,2.05-1.05.36,0,.7.07,1,.2s.53.3.68.5.26.43.32.69.09.63.09,1.11v3.87Z"/>
    <path class="cls-10" d="M355.69,56.03l-1.49-.27c.17-.6.46-1.05.87-1.34s1.02-.43,1.83-.43c.73,0,1.28.09,1.64.26s.61.39.76.66.22.76.22,1.47l-.02,1.92c0,.55.03.95.08,1.21s.15.54.3.83h-1.63c-.04-.11-.1-.27-.16-.49-.03-.1-.05-.16-.06-.19-.28.27-.58.48-.9.62s-.66.21-1.03.21c-.64,0-1.15-.17-1.51-.52s-.55-.79-.55-1.32c0-.35.08-.67.25-.94s.4-.49.71-.63.74-.27,1.31-.38c.77-.14,1.3-.28,1.6-.4v-.16c0-.32-.08-.54-.23-.68s-.45-.2-.88-.2c-.29,0-.52.06-.69.17s-.3.32-.4.61ZM357.89,57.37c-.21.07-.54.15-1,.25s-.76.19-.9.29c-.21.15-.32.35-.32.58s.09.43.26.6.39.25.66.25c.3,0,.58-.1.85-.29.2-.15.33-.33.39-.54.04-.14.06-.41.06-.8v-.33Z"/>
    <path class="cls-10" d="M361.13,60.36v-8.59h1.65v8.59h-1.65Z"/>
    <path class="cls-10" d="M373.22,55.97l-1.62.29c-.05-.32-.18-.57-.37-.73s-.44-.25-.75-.25c-.41,0-.74.14-.98.42s-.37.76-.37,1.42c0,.74.12,1.26.37,1.56s.58.46,1,.46c.31,0,.57-.09.77-.27s.34-.48.42-.92l1.62.28c-.17.74-.49,1.3-.97,1.68s-1.12.57-1.92.57c-.91,0-1.64-.29-2.18-.86s-.81-1.37-.81-2.38.27-1.83.81-2.4,1.28-.86,2.2-.86c.76,0,1.36.16,1.81.49s.77.82.96,1.49Z"/>
    <path class="cls-10" d="M374.09,57.16c0-.55.13-1.08.4-1.59s.65-.9,1.15-1.17,1.05-.4,1.66-.4c.94,0,1.71.31,2.31.92s.9,1.38.9,2.32-.3,1.72-.91,2.34-1.37.93-2.29.93c-.57,0-1.11-.13-1.63-.39s-.91-.64-1.18-1.13-.4-1.1-.4-1.82ZM375.78,57.24c0,.62.15,1.09.44,1.42s.65.49,1.08.49.79-.16,1.08-.49.44-.8.44-1.43-.15-1.08-.44-1.41-.65-.49-1.08-.49-.79.16-1.08.49-.44.8-.44,1.42Z"/>
    <path class="cls-10" d="M387.46,60.36h-1.65v-3.18c0-.67-.04-1.11-.11-1.3s-.18-.35-.34-.46-.35-.16-.57-.16c-.29,0-.54.08-.77.23s-.38.36-.47.62-.13.73-.13,1.43v2.82h-1.65v-6.22h1.53v.91c.54-.7,1.23-1.05,2.05-1.05.36,0,.7.07,1,.2s.53.3.68.5.26.43.32.69.09.63.09,1.11v3.87Z"/>
    <path class="cls-10" d="M388.55,58.58l1.65-.25c.07.32.21.56.43.73s.52.25.9.25c.43,0,.75-.08.96-.23.14-.11.22-.26.22-.44,0-.12-.04-.23-.12-.31-.08-.08-.27-.15-.55-.22-1.33-.29-2.17-.56-2.53-.8-.49-.34-.74-.8-.74-1.4,0-.54.21-.99.64-1.36s1.09-.55,1.98-.55,1.48.14,1.9.42.7.69.86,1.23l-1.55.29c-.07-.24-.19-.43-.38-.56s-.45-.19-.79-.19c-.43,0-.74.06-.93.18-.12.09-.19.2-.19.33,0,.12.05.22.16.3.15.11.66.26,1.54.46s1.49.44,1.84.73c.34.29.52.7.52,1.22,0,.57-.24,1.06-.71,1.47s-1.18.62-2.12.62c-.85,0-1.52-.17-2.01-.52s-.82-.81-.97-1.4Z"/>
    <path class="cls-10" d="M398.66,54.13v1.31h-1.12v2.51c0,.51.01.8.03.89s.07.15.15.21.17.08.28.08c.15,0,.37-.05.66-.16l.14,1.28c-.38.16-.82.25-1.3.25-.3,0-.56-.05-.8-.15s-.41-.23-.52-.39-.19-.37-.23-.64c-.04-.19-.05-.58-.05-1.16v-2.71h-.76v-1.31h.76v-1.24l1.65-.96v2.2h1.12Z"/>
    <path class="cls-10" d="M401.38,60.36h-1.65v-6.22h1.53v.88c.26-.42.5-.69.71-.83s.45-.2.71-.2c.38,0,.74.1,1.08.31l-.51,1.44c-.28-.18-.54-.27-.77-.27s-.43.06-.59.19-.29.36-.38.69-.14,1.03-.14,2.09v1.92Z"/>
    <path class="cls-10" d="M405.7,56.03l-1.49-.27c.17-.6.46-1.05.87-1.34s1.02-.43,1.83-.43c.73,0,1.28.09,1.64.26s.61.39.76.66.22.76.22,1.47l-.02,1.92c0,.55.03.95.08,1.21s.15.54.3.83h-1.63c-.04-.11-.1-.27-.16-.49-.03-.1-.05-.16-.06-.19-.28.27-.58.48-.9.62s-.66.21-1.03.21c-.64,0-1.15-.17-1.51-.52s-.55-.79-.55-1.32c0-.35.08-.67.25-.94s.4-.49.71-.63.74-.27,1.31-.38c.77-.14,1.3-.28,1.6-.4v-.16c0-.32-.08-.54-.23-.68s-.45-.2-.88-.2c-.29,0-.52.06-.69.17s-.3.32-.4.61ZM407.9,57.37c-.21.07-.54.15-1,.25s-.76.19-.9.29c-.21.15-.32.35-.32.58s.09.43.26.6.39.25.66.25c.3,0,.58-.1.85-.29.2-.15.33-.33.39-.54.04-.14.06-.41.06-.8v-.33Z"/>
    <path class="cls-10" d="M411.14,53.29v-1.52h1.65v1.52h-1.65ZM411.14,60.36v-6.22h1.65v6.22h-1.65Z"/>
    <path class="cls-10" d="M420.14,60.36h-1.65v-3.18c0-.67-.04-1.11-.11-1.3s-.18-.35-.34-.46-.35-.16-.57-.16c-.29,0-.54.08-.77.23s-.38.36-.47.62-.13.73-.13,1.43v2.82h-1.65v-6.22h1.53v.91c.54-.7,1.23-1.05,2.05-1.05.36,0,.7.07,1,.2s.53.3.68.5.26.43.32.69.09.63.09,1.11v3.87Z"/>
    <path class="cls-10" d="M424.66,54.13v1.31h-1.12v2.51c0,.51.01.8.03.89s.07.15.15.21.17.08.28.08c.15,0,.37-.05.66-.16l.14,1.28c-.38.16-.82.25-1.3.25-.3,0-.56-.05-.8-.15s-.41-.23-.52-.39-.19-.37-.23-.64c-.04-.19-.05-.58-.05-1.16v-2.71h-.76v-1.31h.76v-1.24l1.65-.96v2.2h1.12Z"/>
    <path class="cls-10" d="M425.22,58.58l1.65-.25c.07.32.21.56.43.73s.52.25.9.25c.43,0,.75-.08.96-.23.14-.11.22-.26.22-.44,0-.12-.04-.23-.12-.31-.08-.08-.27-.15-.55-.22-1.33-.29-2.17-.56-2.53-.8-.49-.34-.74-.8-.74-1.4,0-.54.21-.99.64-1.36s1.09-.55,1.98-.55,1.48.14,1.9.42.7.69.86,1.23l-1.55.29c-.07-.24-.19-.43-.38-.56s-.45-.19-.79-.19c-.43,0-.74.06-.93.18-.12.09-.19.2-.19.33,0,.12.05.22.16.3.15.11.66.26,1.54.46s1.49.44,1.84.73c.34.29.52.7.52,1.22,0,.57-.24,1.06-.71,1.47s-1.18.62-2.12.62c-.85,0-1.52-.17-2.01-.52s-.82-.81-.97-1.4Z"/>
  </g>
  <g>
    <path class="cls-10" d="M552.59,42.8l1.68.53c-.26.94-.69,1.63-1.29,2.09s-1.36.68-2.28.68c-1.14,0-2.08-.39-2.81-1.17s-1.1-1.84-1.1-3.2c0-1.43.37-2.54,1.11-3.33s1.71-1.19,2.91-1.19c1.05,0,1.9.31,2.56.93.39.37.68.89.88,1.58l-1.72.41c-.1-.45-.31-.8-.64-1.05s-.71-.39-1.17-.39c-.64,0-1.15.23-1.55.69s-.59,1.2-.59,2.22c0,1.09.2,1.86.59,2.32s.9.69,1.52.69c.46,0,.86-.15,1.19-.44s.57-.75.71-1.38Z"/>
    <path class="cls-10" d="M557.39,37.37v3.16c.53-.62,1.17-.93,1.9-.93.38,0,.72.07,1.03.21s.53.32.69.54.26.46.32.73.09.68.09,1.24v3.65h-1.65v-3.29c0-.65-.03-1.07-.09-1.24s-.17-.32-.33-.42-.36-.16-.59-.16c-.27,0-.52.07-.73.2s-.37.33-.47.6-.15.66-.15,1.19v3.12h-1.65v-8.59h1.65Z"/>
    <path class="cls-10" d="M564.31,41.63l-1.49-.27c.17-.6.46-1.05.87-1.34s1.02-.43,1.83-.43c.73,0,1.28.09,1.64.26s.61.39.76.66.22.76.22,1.47l-.02,1.92c0,.55.03.95.08,1.21s.15.54.3.83h-1.63c-.04-.11-.1-.27-.16-.49-.03-.1-.05-.16-.06-.19-.28.27-.58.48-.9.62s-.66.21-1.03.21c-.64,0-1.15-.17-1.52-.52s-.55-.79-.55-1.32c0-.35.08-.67.25-.94s.4-.49.71-.63.74-.27,1.31-.38c.77-.14,1.3-.28,1.6-.4v-.16c0-.32-.08-.54-.23-.68s-.45-.2-.88-.2c-.29,0-.52.06-.69.17s-.3.32-.4.61ZM566.51,42.97c-.21.07-.54.15-1,.25s-.76.19-.9.29c-.21.15-.32.35-.32.58s.09.43.26.6.39.25.66.25c.3,0,.58-.1.85-.29.2-.15.33-.33.39-.54.04-.14.06-.41.06-.8v-.33Z"/>
    <path class="cls-10" d="M575.41,45.96h-1.65v-3.18c0-.67-.04-1.11-.11-1.3s-.19-.35-.34-.46-.35-.16-.57-.16c-.29,0-.54.08-.77.23s-.38.36-.47.62-.12.73-.12,1.43v2.82h-1.65v-6.22h1.53v.91c.54-.7,1.23-1.05,2.05-1.05.36,0,.7.07,1,.2s.53.3.68.5.26.43.32.69.09.63.09,1.11v3.87Z"/>
    <path class="cls-10" d="M576.93,46.37l1.88.23c.03.22.1.37.22.45.16.12.4.18.74.18.43,0,.75-.06.97-.19.14-.09.25-.22.33-.42.05-.14.08-.39.08-.76v-.91c-.49.67-1.11,1.01-1.86,1.01-.84,0-1.5-.35-1.99-1.06-.38-.56-.57-1.25-.57-2.09,0-1.04.25-1.84.75-2.39s1.13-.83,1.87-.83,1.4.34,1.9,1.01v-.87h1.54v5.58c0,.73-.06,1.28-.18,1.65s-.29.65-.51.86-.51.37-.88.49-.83.18-1.38.18c-1.05,0-1.8-.18-2.24-.54s-.66-.82-.66-1.37c0-.05,0-.12,0-.2ZM578.4,42.72c0,.66.13,1.14.38,1.45s.57.46.95.46c.4,0,.74-.16,1.02-.47s.42-.78.42-1.4-.13-1.12-.4-1.44-.6-.47-1.01-.47-.72.15-.98.46-.38.77-.38,1.4Z"/>
    <path class="cls-10" d="M588.02,43.98l1.64.28c-.21.6-.54,1.06-1,1.37s-1.02.47-1.71.47c-1.08,0-1.88-.35-2.4-1.06-.41-.57-.62-1.28-.62-2.14,0-1.03.27-1.84.81-2.42s1.22-.88,2.04-.88c.93,0,1.66.31,2.19.92s.79,1.55.77,2.81h-4.12c.01.49.14.87.4,1.14s.57.41.95.41c.26,0,.47-.07.65-.21s.31-.37.4-.68ZM588.11,42.31c-.01-.48-.13-.84-.37-1.09s-.52-.37-.86-.37c-.36,0-.66.13-.89.39s-.35.62-.35,1.07h2.46Z"/>
    <path class="cls-10" d="M596.79,45.96h-1.53v-.91c-.25.36-.55.62-.9.79s-.69.26-1.04.26c-.71,0-1.33-.29-1.84-.86s-.76-1.38-.76-2.41.25-1.86.74-2.41,1.12-.82,1.88-.82c.7,0,1.3.29,1.8.87v-3.09h1.65v8.59ZM592.4,42.71c0,.66.09,1.14.28,1.44.27.43.64.64,1.11.64.38,0,.7-.16.97-.48s.4-.8.4-1.44c0-.71-.13-1.23-.39-1.54s-.59-.47-.99-.47-.72.16-.98.47-.39.77-.39,1.39Z"/>
    <path class="cls-10" d="M605.36,43.98l1.64.28c-.21.6-.54,1.06-1,1.37s-1.02.47-1.71.47c-1.08,0-1.88-.35-2.4-1.06-.41-.57-.62-1.28-.62-2.14,0-1.03.27-1.84.81-2.42s1.22-.88,2.04-.88c.93,0,1.66.31,2.19.92s.79,1.55.77,2.81h-4.12c.01.49.14.87.4,1.14s.57.41.95.41c.26,0,.47-.07.65-.21s.31-.37.4-.68ZM605.45,42.31c-.01-.48-.13-.84-.37-1.09s-.52-.37-.86-.37c-.36,0-.66.13-.89.39s-.35.62-.35,1.07h2.46Z"/>
    <path class="cls-10" d="M614.09,45.96h-1.65v-3.18c0-.67-.04-1.11-.11-1.3s-.19-.35-.34-.46-.35-.16-.57-.16c-.29,0-.54.08-.77.23s-.38.36-.47.62-.12.73-.12,1.43v2.82h-1.65v-6.22h1.53v.91c.54-.7,1.23-1.05,2.05-1.05.36,0,.7.07,1,.2s.53.3.68.5.26.43.32.69.09.63.09,1.11v3.87Z"/>
    <path class="cls-10" d="M617.47,45.96l-2.51-6.22h1.73l1.17,3.18.34,1.06c.09-.27.15-.45.17-.53.05-.18.11-.35.18-.53l1.18-3.18h1.69l-2.47,6.22h-1.48Z"/>
    <path class="cls-10" d="M622.43,38.89v-1.52h1.65v1.52h-1.65ZM622.43,45.96v-6.22h1.65v6.22h-1.65Z"/>
    <path class="cls-10" d="M627.34,45.96h-1.65v-6.22h1.53v.88c.26-.42.5-.69.71-.83s.45-.2.71-.2c.38,0,.74.1,1.08.31l-.51,1.44c-.28-.18-.54-.27-.77-.27s-.43.06-.59.19-.29.36-.38.69-.14,1.03-.14,2.09v1.92Z"/>
    <path class="cls-10" d="M630.05,42.76c0-.55.13-1.08.4-1.59s.65-.9,1.14-1.17,1.05-.4,1.66-.4c.94,0,1.71.31,2.31.92s.9,1.38.9,2.32-.3,1.72-.91,2.34-1.37.93-2.29.93c-.57,0-1.12-.13-1.63-.39s-.91-.64-1.18-1.13-.4-1.1-.4-1.82ZM631.74,42.84c0,.62.15,1.09.44,1.42s.65.49,1.08.49.79-.16,1.08-.49.44-.8.44-1.43-.15-1.08-.44-1.41-.65-.49-1.08-.49-.79.16-1.08.49-.44.8-.44,1.42Z"/>
    <path class="cls-10" d="M643.42,45.96h-1.65v-3.18c0-.67-.04-1.11-.11-1.3s-.19-.35-.34-.46-.35-.16-.57-.16c-.29,0-.54.08-.77.23s-.38.36-.47.62-.12.73-.12,1.43v2.82h-1.65v-6.22h1.53v.91c.54-.7,1.23-1.05,2.05-1.05.36,0,.7.07,1,.2s.53.3.68.5.26.43.32.69.09.63.09,1.11v3.87Z"/>
    <path class="cls-10" d="M644.97,39.73h1.52v.85c.54-.66,1.19-.99,1.94-.99.4,0,.74.08,1.04.25s.53.41.72.74c.27-.33.57-.58.88-.74s.65-.25,1.01-.25c.46,0,.84.09,1.16.28s.55.46.71.82c.11.27.17.7.17,1.29v3.98h-1.65v-3.56c0-.62-.06-1.02-.17-1.2-.15-.23-.39-.35-.7-.35-.23,0-.45.07-.65.21s-.35.35-.44.62-.13.7-.13,1.29v2.99h-1.65v-3.41c0-.61-.03-1-.09-1.17s-.15-.31-.27-.39-.29-.13-.5-.13c-.25,0-.48.07-.69.21s-.35.33-.44.59-.13.69-.13,1.28v3.02h-1.65v-6.22Z"/>
    <path class="cls-10" d="M659.37,43.98l1.64.28c-.21.6-.54,1.06-1,1.37s-1.02.47-1.71.47c-1.08,0-1.88-.35-2.4-1.06-.41-.57-.62-1.28-.62-2.14,0-1.03.27-1.84.81-2.42s1.22-.88,2.04-.88c.93,0,1.66.31,2.19.92s.79,1.55.77,2.81h-4.12c.01.49.14.87.4,1.14s.57.41.95.41c.26,0,.47-.07.65-.21s.31-.37.4-.68ZM659.46,42.31c-.01-.48-.13-.84-.37-1.09s-.52-.37-.86-.37c-.36,0-.66.13-.89.39s-.35.62-.35,1.07h2.46Z"/>
    <path class="cls-10" d="M668.1,45.96h-1.65v-3.18c0-.67-.04-1.11-.11-1.3s-.19-.35-.34-.46-.35-.16-.57-.16c-.29,0-.54.08-.77.23s-.38.36-.47.62-.12.73-.12,1.43v2.82h-1.65v-6.22h1.53v.91c.54-.7,1.23-1.05,2.05-1.05.36,0,.7.07,1,.2s.53.3.68.5.26.43.32.69.09.63.09,1.11v3.87Z"/>
    <path class="cls-10" d="M672.62,39.73v1.31h-1.12v2.51c0,.51,0,.8.03.89s.07.15.15.21.17.08.28.08c.15,0,.37-.05.66-.16l.14,1.28c-.38.16-.82.25-1.3.25-.3,0-.56-.05-.8-.15s-.41-.23-.53-.39-.19-.37-.23-.64c-.04-.19-.05-.58-.05-1.16v-2.71h-.76v-1.31h.76v-1.24l1.65-.96v2.2h1.12Z"/>
    <path class="cls-10" d="M547.04,54.13h1.54v.91c.2-.31.47-.57.81-.76s.72-.29,1.13-.29c.72,0,1.34.28,1.84.85s.76,1.36.76,2.37-.25,1.85-.76,2.42-1.12.86-1.85.86c-.34,0-.66-.07-.94-.21s-.57-.37-.88-.7v3.13h-1.65v-8.59ZM548.67,57.14c0,.7.14,1.22.42,1.55s.62.5,1.01.5.7-.15.96-.46.38-.81.38-1.51c0-.65-.13-1.14-.39-1.45s-.59-.47-.97-.47-.74.16-1,.47-.4.77-.4,1.38Z"/>
    <path class="cls-10" d="M555.99,60.36h-1.65v-6.22h1.53v.88c.26-.42.5-.69.71-.83s.45-.2.71-.2c.38,0,.74.1,1.08.31l-.51,1.44c-.28-.18-.54-.27-.77-.27s-.43.06-.59.19-.29.36-.38.69-.14,1.03-.14,2.09v1.92Z"/>
    <path class="cls-10" d="M558.7,57.16c0-.55.13-1.08.4-1.59s.65-.9,1.14-1.17,1.05-.4,1.66-.4c.94,0,1.71.31,2.31.92s.9,1.38.9,2.32-.3,1.72-.91,2.34-1.37.93-2.29.93c-.57,0-1.12-.13-1.63-.39s-.91-.64-1.18-1.13-.4-1.1-.4-1.82ZM560.39,57.24c0,.62.15,1.09.44,1.42s.65.49,1.08.49.79-.16,1.08-.49.44-.8.44-1.43-.15-1.08-.44-1.41-.65-.49-1.08-.49-.79.16-1.08.49-.44.8-.44,1.42Z"/>
    <path class="cls-10" d="M568.12,60.36l-2.51-6.22h1.73l1.17,3.18.34,1.06c.09-.27.15-.45.17-.53.05-.18.11-.35.18-.53l1.18-3.18h1.69l-2.47,6.22h-1.48Z"/>
    <path class="cls-10" d="M573.09,53.29v-1.52h1.65v1.52h-1.65ZM573.09,60.36v-6.22h1.65v6.22h-1.65Z"/>
    <path class="cls-10" d="M582.13,60.36h-1.53v-.91c-.25.36-.55.62-.9.79s-.69.26-1.04.26c-.71,0-1.33-.29-1.84-.86s-.76-1.38-.76-2.41.25-1.86.74-2.41,1.12-.82,1.88-.82c.7,0,1.3.29,1.8.87v-3.09h1.65v8.59ZM577.73,57.11c0,.66.09,1.14.28,1.44.27.43.64.64,1.11.64.38,0,.7-.16.97-.48s.4-.8.4-1.44c0-.71-.13-1.23-.39-1.54s-.59-.47-.99-.47-.72.16-.98.47-.39.77-.39,1.39Z"/>
    <path class="cls-10" d="M587.36,58.38l1.64.28c-.21.6-.54,1.06-1,1.37s-1.02.47-1.71.47c-1.08,0-1.88-.35-2.4-1.06-.41-.57-.62-1.28-.62-2.14,0-1.03.27-1.84.81-2.42s1.22-.88,2.04-.88c.93,0,1.66.31,2.19.92s.79,1.55.77,2.81h-4.12c.01.49.14.87.4,1.14s.57.41.95.41c.26,0,.47-.07.65-.21s.31-.37.4-.68ZM587.45,56.71c-.01-.48-.13-.84-.37-1.09s-.52-.37-.86-.37c-.36,0-.66.13-.89.39s-.35.62-.35,1.07h2.46Z"/>
    <path class="cls-10" d="M589.85,58.58l1.65-.25c.07.32.21.56.43.73s.52.25.9.25c.43,0,.75-.08.96-.23.14-.11.22-.26.22-.44,0-.12-.04-.23-.12-.31-.08-.08-.27-.15-.55-.22-1.33-.29-2.17-.56-2.53-.8-.49-.34-.74-.8-.74-1.4,0-.54.21-.99.64-1.36s1.09-.55,1.98-.55,1.48.14,1.9.42.7.69.86,1.23l-1.55.29c-.07-.24-.19-.43-.38-.56s-.45-.19-.79-.19c-.43,0-.74.06-.93.18-.12.09-.19.2-.19.33,0,.12.05.22.16.3.15.11.66.26,1.54.46s1.49.44,1.84.73c.34.29.52.7.52,1.22,0,.57-.24,1.06-.71,1.47s-1.18.62-2.12.62c-.85,0-1.52-.17-2.01-.52s-.82-.81-.97-1.4Z"/>
    <path class="cls-10" d="M606.09,60.36h-1.65v-3.18c0-.67-.04-1.11-.11-1.3s-.19-.35-.34-.46-.35-.16-.57-.16c-.29,0-.54.08-.77.23s-.38.36-.47.62-.12.73-.12,1.43v2.82h-1.65v-6.22h1.53v.91c.54-.7,1.23-1.05,2.05-1.05.36,0,.7.07,1,.2s.53.3.68.5.26.43.32.69.09.63.09,1.11v3.87Z"/>
    <path class="cls-10" d="M611.37,58.38l1.64.28c-.21.6-.54,1.06-1,1.37s-1.02.47-1.71.47c-1.08,0-1.88-.35-2.4-1.06-.41-.57-.62-1.28-.62-2.14,0-1.03.27-1.84.81-2.42s1.22-.88,2.04-.88c.93,0,1.66.31,2.19.92s.79,1.55.77,2.81h-4.12c.01.49.14.87.4,1.14s.57.41.95.41c.26,0,.47-.07.65-.21s.31-.37.4-.68ZM611.46,56.71c-.01-.48-.13-.84-.37-1.09s-.52-.37-.86-.37c-.36,0-.66.13-.89.39s-.35.62-.35,1.07h2.46Z"/>
    <path class="cls-10" d="M615.6,60.36l-1.97-6.22h1.6l1.17,4.08,1.07-4.08h1.59l1.04,4.08,1.19-4.08h1.62l-2,6.22h-1.58l-1.07-4-1.05,4h-1.6Z"/>
    <path class="cls-10" d="M626.72,57.16c0-.55.13-1.08.4-1.59s.65-.9,1.14-1.17,1.05-.4,1.66-.4c.94,0,1.71.31,2.31.92s.9,1.38.9,2.32-.3,1.72-.91,2.34-1.37.93-2.29.93c-.57,0-1.12-.13-1.63-.39s-.91-.64-1.18-1.13-.4-1.1-.4-1.82ZM628.41,57.24c0,.62.15,1.09.44,1.42s.65.49,1.08.49.79-.16,1.08-.49.44-.8.44-1.43-.15-1.08-.44-1.41-.65-.49-1.08-.49-.79.16-1.08.49-.44.8-.44,1.42Z"/>
    <path class="cls-10" d="M634.39,54.13h1.54v.91c.2-.31.47-.57.81-.76s.72-.29,1.13-.29c.72,0,1.34.28,1.84.85s.76,1.36.76,2.37-.25,1.85-.76,2.42-1.12.86-1.85.86c-.34,0-.66-.07-.94-.21s-.57-.37-.88-.7v3.13h-1.65v-8.59ZM636.02,57.14c0,.7.14,1.22.42,1.55s.62.5,1.01.5.7-.15.96-.46.38-.81.38-1.51c0-.65-.13-1.14-.39-1.45s-.59-.47-.97-.47-.74.16-1,.47-.4.77-.4,1.38Z"/>
    <path class="cls-10" d="M641.72,54.13h1.54v.91c.2-.31.47-.57.81-.76s.72-.29,1.13-.29c.72,0,1.34.28,1.84.85s.76,1.36.76,2.37-.25,1.85-.76,2.42-1.12.86-1.85.86c-.34,0-.66-.07-.94-.21s-.57-.37-.88-.7v3.13h-1.65v-8.59ZM643.35,57.14c0,.7.14,1.22.42,1.55s.62.5,1.01.5.7-.15.96-.46.38-.81.38-1.51c0-.65-.13-1.14-.39-1.45s-.59-.47-.97-.47-.74.16-1,.47-.4.77-.4,1.38Z"/>
    <path class="cls-10" d="M648.71,57.16c0-.55.13-1.08.4-1.59s.65-.9,1.14-1.17,1.05-.4,1.66-.4c.94,0,1.71.31,2.31.92s.9,1.38.9,2.32-.3,1.72-.91,2.34-1.37.93-2.29.93c-.57,0-1.12-.13-1.63-.39s-.91-.64-1.18-1.13-.4-1.1-.4-1.82ZM650.4,57.24c0,.62.15,1.09.44,1.42s.65.49,1.08.49.79-.16,1.08-.49.44-.8.44-1.43-.15-1.08-.44-1.41-.65-.49-1.08-.49-.79.16-1.08.49-.44.8-.44,1.42Z"/>
    <path class="cls-10" d="M658,60.36h-1.65v-6.22h1.53v.88c.26-.42.5-.69.71-.83s.45-.2.71-.2c.38,0,.74.1,1.08.31l-.51,1.44c-.28-.18-.54-.27-.77-.27s-.43.06-.59.19-.29.36-.38.69-.14,1.03-.14,2.09v1.92Z"/>
    <path class="cls-10" d="M663.95,54.13v1.31h-1.12v2.51c0,.51,0,.8.03.89s.07.15.15.21.17.08.28.08c.15,0,.37-.05.66-.16l.14,1.28c-.38.16-.82.25-1.3.25-.3,0-.56-.05-.8-.15s-.41-.23-.53-.39-.19-.37-.23-.64c-.04-.19-.05-.58-.05-1.16v-2.71h-.76v-1.31h.76v-1.24l1.65-.96v2.2h1.12Z"/>
    <path class="cls-10" d="M669.19,60.36v-.93c-.23.33-.53.59-.89.79s-.76.29-1.17.29-.79-.09-1.12-.28-.57-.44-.72-.77-.22-.79-.22-1.38v-3.94h1.65v2.86c0,.88.03,1.41.09,1.61s.17.35.33.47.36.17.61.17c.28,0,.53-.08.76-.23s.38-.35.46-.57.12-.79.12-1.68v-2.62h1.65v6.22h-1.53Z"/>
    <path class="cls-10" d="M678.08,60.36h-1.65v-3.18c0-.67-.04-1.11-.11-1.3s-.19-.35-.34-.46-.35-.16-.57-.16c-.29,0-.54.08-.77.23s-.38.36-.47.62-.12.73-.12,1.43v2.82h-1.65v-6.22h1.53v.91c.54-.7,1.23-1.05,2.05-1.05.36,0,.7.07,1,.2s.53.3.68.5.26.43.32.69.09.63.09,1.11v3.87Z"/>
    <path class="cls-10" d="M679.75,53.29v-1.52h1.65v1.52h-1.65ZM679.75,60.36v-6.22h1.65v6.22h-1.65Z"/>
    <path class="cls-10" d="M685.94,54.13v1.31h-1.12v2.51c0,.51,0,.8.03.89s.07.15.15.21.17.08.28.08c.15,0,.37-.05.66-.16l.14,1.28c-.38.16-.82.25-1.3.25-.3,0-.56-.05-.8-.15s-.41-.23-.53-.39-.19-.37-.23-.64c-.04-.19-.05-.58-.05-1.16v-2.71h-.76v-1.31h.76v-1.24l1.65-.96v2.2h1.12Z"/>
    <path class="cls-10" d="M690.69,58.38l1.64.28c-.21.6-.54,1.06-1,1.37s-1.02.47-1.71.47c-1.08,0-1.88-.35-2.4-1.06-.41-.57-.62-1.28-.62-2.14,0-1.03.27-1.84.81-2.42s1.22-.88,2.04-.88c.93,0,1.66.31,2.19.92s.79,1.55.77,2.81h-4.12c.01.49.14.87.4,1.14s.57.41.95.41c.26,0,.47-.07.65-.21s.31-.37.4-.68ZM690.78,56.71c-.01-.48-.13-.84-.37-1.09s-.52-.37-.86-.37c-.36,0-.66.13-.89.39s-.35.62-.35,1.07h2.46Z"/>
    <path class="cls-10" d="M693.18,58.58l1.65-.25c.07.32.21.56.43.73s.52.25.9.25c.43,0,.75-.08.96-.23.14-.11.22-.26.22-.44,0-.12-.04-.23-.12-.31-.08-.08-.27-.15-.55-.22-1.33-.29-2.17-.56-2.53-.8-.49-.34-.74-.8-.74-1.4,0-.54.21-.99.64-1.36s1.09-.55,1.98-.55,1.48.14,1.9.42.7.69.86,1.23l-1.55.29c-.07-.24-.19-.43-.38-.56s-.45-.19-.79-.19c-.43,0-.74.06-.93.18-.12.09-.19.2-.19.33,0,.12.05.22.16.3.15.11.66.26,1.54.46s1.49.44,1.84.73c.34.29.52.7.52,1.22,0,.57-.24,1.06-.71,1.47s-1.18.62-2.12.62c-.85,0-1.52-.17-2.01-.52s-.82-.81-.97-1.4Z"/>
  </g>
</svg>