<?xml version="1.0" encoding="UTF-8"?>
<svg id="Ebene_1" data-name="Ebene 1" xmlns="http://www.w3.org/2000/svg" viewBox="0 0 988 525">
  <defs>
    <style>
      .cls-1, .cls-2, .cls-3, .cls-4 {
        fill: none;
        stroke: #1d1d1b;
      }

      .cls-2, .cls-3, .cls-4 {
        stroke-miterlimit: 10;
      }

      .cls-5 {
        letter-spacing: 0em;
      }

      .cls-5, .cls-6 {
        font-family: TimesNewRomanPS-ItalicMT, 'Times New Roman';
        font-size: 21.6px;
        font-style: italic;
      }

      .cls-7, .cls-8 {
        fill: #1d1d1b;
      }

      .cls-9 {
        font-family: ArialMT, Arial;
        font-size: 16.8px;
      }

      .cls-3 {
        stroke-width: 2px;
      }

      .cls-8 {
        font-family: Arial-BoldMT, Arial;
        font-size: 19.2px;
        font-weight: 700;
      }

      .cls-4 {
        stroke-dasharray: 2.01 2.01;
      }
    </style>
  </defs>
  <g>
    <rect class="cls-1" x="413.72" y="62.8" width="208.79" height="75.43" rx="1.37" ry="1.37"/>
    <text class="cls-8" transform="translate(490.92 107.39)"><tspan x="0" y="0">Agent</tspan></text>
  </g>
  <g>
    <rect class="cls-1" x="413.72" y="378.23" width="208.79" height="75.43" rx="1.37" ry="1.37"/>
    <text class="cls-8" transform="translate(459.44 422.82)"><tspan x="0" y="0">Environment</tspan></text>
  </g>
  <g>
    <line class="cls-3" x1="413.72" y1="434.26" x2="314.04" y2="434.26"/>
    <polygon class="cls-7" points="316.96 424.29 299.69 434.26 316.96 444.23 316.96 424.29"/>
  </g>
  <g>
    <line class="cls-2" x1="413.72" y1="398.49" x2="306.86" y2="398.49"/>
    <polygon class="cls-7" points="308.32 393.5 299.69 398.49 308.32 403.48 308.32 393.5"/>
  </g>
  <g>
    <polyline class="cls-3" points="299.69 434.26 150.45 433.03 150.45 82.69 399.37 82.69"/>
    <polygon class="cls-7" points="396.45 92.66 413.72 82.69 396.45 72.71 396.45 92.66"/>
  </g>
  <g>
    <polyline class="cls-2" points="299.69 398.49 185.65 398.49 185.65 118.35 406.55 118.35"/>
    <polygon class="cls-7" points="405.09 123.33 413.72 118.35 405.09 113.36 405.09 123.33"/>
  </g>
  <g>
    <line class="cls-2" x1="299.69" y1="369.69" x2="299.69" y2="370.69"/>
    <line class="cls-4" x1="299.69" y1="372.7" x2="299.69" y2="460.19"/>
    <line class="cls-2" x1="299.69" y1="461.2" x2="299.69" y2="462.2"/>
  </g>
  <text class="cls-6" transform="translate(332.05 377.52)"><tspan x="0" y="0">R</tspan></text>
  <text class="cls-5" transform="translate(345.24 384.72) scale(.58)"><tspan x="0" y="0">t+1</tspan></text>
  <text class="cls-6" transform="translate(333.24 422.82)"><tspan x="0" y="0">S</tspan></text>
  <text class="cls-6" transform="translate(344.04 430.01) scale(.58)"><tspan x="0" y="0">t+1</tspan></text>
  <text transform="translate(74.1 246.24)"><tspan class="cls-9"><tspan x="0" y="0">State</tspan></tspan><tspan class="cls-6"><tspan x="12.46" y="25.92">S</tspan></tspan></text>
  <text class="cls-6" transform="translate(97.36 279.35) scale(.58)"><tspan x="0" y="0">t</tspan></text>
  <text transform="translate(204.11 246.24)"><tspan class="cls-9"><tspan x="0" y="0">Reward</tspan></tspan><tspan class="cls-6"><tspan x="20.6" y="25.92">R</tspan></tspan></text>
  <text class="cls-5" transform="translate(237.9 279.35) scale(.58)"><tspan x="0" y="0">t</tspan></text>
  <text transform="translate(867.84 246.24)"><tspan class="cls-9"><tspan x="0" y="0">Action</tspan></tspan><tspan class="cls-6"><tspan x="15" y="25.92">A</tspan></tspan></text>
  <text class="cls-5" transform="translate(896.03 279.35) scale(.58)"><tspan x="0" y="0">t</tspan></text>
  <g>
    <polyline class="cls-3" points="622.51 100.52 839.92 100.52 839.92 415.95 636.86 415.95"/>
    <polygon class="cls-7" points="639.78 405.97 622.51 415.95 639.78 425.92 639.78 405.97"/>
  </g>
</svg>