<?xml version="1.0" encoding="UTF-8"?>
<svg id="maturity" xmlns="http://www.w3.org/2000/svg" viewBox="0 0 988 525">
  <defs>
    <style>
      .cls-1, .cls-2 {
        fill: #0333ff;
      }

      .cls-3 {
        font-family: ArialMT, Arial;
      }

      .cls-3, .cls-2 {
        font-size: 16px;
      }

      .cls-4 {
        fill: #fff;
        stroke: #000;
        stroke-miterlimit: 10;
      }

      .cls-5 {
        letter-spacing: -.07em;
      }

      .cls-2 {
        font-family: Arial-BoldMT, Arial;
        font-weight: 700;
      }
    </style>
  </defs>
  <text class="cls-2" transform="translate(311.05 109.99)"><tspan class="cls-5" x="0" y="0">T</tspan><tspan x="8.59" y="0">angible value</tspan></text>
  <g>
    <path class="cls-1" d="M104.33,203.74v-11.45h2.31v11.45h-2.31Z"/>
    <path class="cls-1" d="M116.38,203.74h-2.2v-4.23c0-.9-.05-1.48-.14-1.74-.09-.26-.25-.47-.46-.61-.21-.15-.46-.22-.76-.22-.38,0-.72.1-1.02.31-.3.21-.51.48-.62.83s-.17.98-.17,1.91v3.76h-2.2v-8.3h2.04v1.22c.72-.94,1.64-1.41,2.73-1.41.48,0,.93.09,1.33.26.4.17.7.4.91.67.21.27.35.58.43.92s.12.84.12,1.48v5.16Z"/>
    <path class="cls-1" d="M122.41,195.44v1.75h-1.5v3.34c0,.68.01,1.07.04,1.18.03.11.09.2.2.28.1.07.23.11.37.11.2,0,.5-.07.88-.21l.19,1.7c-.51.22-1.09.33-1.73.33-.4,0-.75-.07-1.07-.2s-.55-.3-.7-.52-.25-.5-.31-.86c-.05-.25-.07-.77-.07-1.55v-3.62h-1.01v-1.75h1.01v-1.65l2.2-1.28v2.93h1.5Z"/>
    <path class="cls-1" d="M128.74,201.1l2.19.37c-.28.8-.73,1.41-1.33,1.83-.61.42-1.37.63-2.28.63-1.44,0-2.51-.47-3.2-1.41-.55-.75-.82-1.71-.82-2.86,0-1.38.36-2.45,1.08-3.23.72-.78,1.63-1.17,2.73-1.17,1.23,0,2.21.41,2.92,1.22.71.82,1.05,2.06,1.02,3.75h-5.5c.02.65.19,1.16.53,1.52.34.36.76.54,1.27.54.34,0,.63-.09.87-.28s.41-.49.53-.91ZM128.86,198.88c-.02-.64-.18-1.12-.49-1.45-.31-.33-.69-.5-1.14-.5-.48,0-.88.17-1.19.52-.31.35-.47.82-.46,1.42h3.28Z"/>
    <path class="cls-1" d="M134.93,203.74h-2.2v-8.3h2.04v1.18c.35-.56.66-.92.94-1.1.28-.18.59-.27.95-.27.5,0,.98.14,1.45.41l-.68,1.91c-.37-.24-.71-.36-1.03-.36s-.57.08-.78.25c-.21.17-.38.48-.5.92-.12.44-.18,1.37-.18,2.78v2.56Z"/>
    <path class="cls-1" d="M146.6,203.74h-2.2v-4.23c0-.9-.05-1.48-.14-1.74-.09-.26-.25-.47-.46-.61-.21-.15-.46-.22-.76-.22-.38,0-.72.1-1.02.31-.3.21-.51.48-.62.83s-.17.98-.17,1.91v3.76h-2.2v-8.3h2.04v1.22c.72-.94,1.64-1.41,2.73-1.41.48,0,.93.09,1.33.26.4.17.7.4.91.67.21.27.35.58.43.92s.12.84.12,1.48v5.16Z"/>
    <path class="cls-1" d="M150.47,197.97l-1.99-.36c.22-.8.61-1.4,1.16-1.78.55-.39,1.36-.58,2.44-.58.98,0,1.71.12,2.19.35.48.23.82.53,1.01.88.2.36.29,1.01.29,1.96l-.02,2.56c0,.73.04,1.27.11,1.61.07.35.2.72.39,1.11h-2.17c-.06-.15-.13-.36-.21-.65-.04-.13-.06-.22-.08-.26-.38.36-.78.64-1.2.82s-.88.27-1.37.27c-.85,0-1.53-.23-2.02-.7-.49-.46-.74-1.05-.74-1.76,0-.47.11-.89.34-1.25s.54-.65.94-.84.99-.37,1.75-.51c1.03-.19,1.74-.37,2.13-.54v-.22c0-.42-.1-.72-.31-.9s-.6-.27-1.18-.27c-.39,0-.7.08-.91.23-.22.15-.4.42-.53.81ZM153.41,199.75c-.28.09-.73.21-1.34.34-.61.13-1.01.26-1.2.38-.29.2-.43.46-.43.77s.11.57.34.8c.23.22.52.34.88.34.4,0,.77-.13,1.13-.39.27-.2.44-.44.52-.73.06-.19.09-.54.09-1.07v-.44Z"/>
    <path class="cls-1" d="M157.73,203.74v-11.45h2.2v11.45h-2.2Z"/>
    <path class="cls-1" d="M123.54,222.94l-3.34-8.3h2.3l1.56,4.23.45,1.41c.12-.36.2-.6.23-.71.07-.23.15-.47.23-.7l1.58-4.23h2.26l-3.3,8.3h-1.98Z"/>
    <path class="cls-1" d="M131.8,217.17l-1.99-.36c.22-.8.61-1.4,1.16-1.78.55-.39,1.36-.58,2.44-.58.98,0,1.71.12,2.19.35.48.23.82.53,1.01.88.2.36.29,1.01.29,1.96l-.02,2.56c0,.73.04,1.27.11,1.61.07.35.2.72.39,1.11h-2.17c-.06-.15-.13-.36-.21-.65-.04-.13-.06-.22-.08-.26-.38.36-.78.64-1.2.82s-.88.27-1.37.27c-.85,0-1.53-.23-2.02-.7-.49-.46-.74-1.05-.74-1.76,0-.47.11-.89.34-1.25s.54-.65.94-.84.99-.37,1.75-.51c1.03-.19,1.74-.37,2.13-.54v-.22c0-.42-.1-.72-.31-.9s-.6-.27-1.18-.27c-.39,0-.7.08-.91.23-.22.15-.4.42-.53.81ZM134.74,218.95c-.28.09-.73.21-1.34.34-.61.13-1.01.26-1.2.38-.29.2-.43.46-.43.77s.11.57.34.8c.23.22.52.34.88.34.4,0,.77-.13,1.13-.39.27-.2.44-.44.52-.73.06-.19.09-.54.09-1.07v-.44Z"/>
    <path class="cls-1" d="M139.06,222.94v-11.45h2.2v11.45h-2.2Z"/>
    <path class="cls-1" d="M148.96,222.94v-1.24c-.3.44-.7.79-1.19,1.05s-1.01.38-1.56.38-1.06-.12-1.5-.37-.76-.59-.96-1.03c-.2-.44-.3-1.05-.3-1.84v-5.25h2.2v3.81c0,1.17.04,1.88.12,2.14.08.26.23.47.44.62.21.15.48.23.81.23.38,0,.71-.1,1.01-.31.3-.21.5-.46.61-.77s.16-1.05.16-2.24v-3.5h2.2v8.3h-2.04Z"/>
    <path class="cls-1" d="M158.08,220.3l2.19.37c-.28.8-.73,1.41-1.33,1.83-.61.42-1.37.63-2.28.63-1.44,0-2.51-.47-3.2-1.41-.55-.75-.82-1.71-.82-2.86,0-1.38.36-2.45,1.08-3.23.72-.78,1.63-1.17,2.73-1.17,1.23,0,2.21.41,2.92,1.22.71.82,1.05,2.06,1.02,3.75h-5.5c.02.65.19,1.16.53,1.52.34.36.76.54,1.27.54.34,0,.63-.09.87-.28s.41-.49.53-.91ZM158.21,218.08c-.02-.64-.18-1.12-.49-1.45-.31-.33-.69-.5-1.14-.5-.48,0-.88.17-1.19.52-.31.35-.47.82-.46,1.42h3.28Z"/>
  </g>
  <g>
    <path class="cls-1" d="M73.49,349.53l2.24.71c-.34,1.25-.92,2.18-1.71,2.79-.8.61-1.81.91-3.04.91-1.52,0-2.77-.52-3.75-1.56s-1.47-2.46-1.47-4.26c0-1.91.49-3.39,1.48-4.44s2.28-1.58,3.88-1.58c1.4,0,2.54.41,3.41,1.24.52.49.91,1.19,1.17,2.11l-2.29.55c-.14-.59-.42-1.06-.85-1.41s-.95-.52-1.57-.52c-.85,0-1.54.3-2.07.91s-.79,1.6-.79,2.96c0,1.45.26,2.48.78,3.09.52.61,1.2.92,2.03.92.61,0,1.14-.2,1.59-.59s.76-1,.95-1.84Z"/>
    <path class="cls-1" d="M77.2,349.47c0-.73.18-1.43.54-2.12.36-.68.87-1.2,1.53-1.56s1.39-.54,2.21-.54c1.25,0,2.28.41,3.09,1.22.8.82,1.2,1.85,1.2,3.09s-.41,2.3-1.21,3.12c-.81.83-1.83,1.24-3.06,1.24-.76,0-1.49-.17-2.18-.52s-1.21-.85-1.57-1.51-.54-1.47-.54-2.43ZM79.45,349.59c0,.82.2,1.45.59,1.89s.87.66,1.45.66,1.05-.22,1.44-.66.58-1.07.58-1.91-.19-1.44-.58-1.88-.87-.66-1.44-.66-1.05.22-1.45.66-.59,1.07-.59,1.89Z"/>
    <path class="cls-1" d="M87.31,345.44h2.02v1.13c.72-.88,1.59-1.32,2.59-1.32.53,0,.99.11,1.38.33s.71.55.96.99c.36-.44.76-.77,1.18-.99s.87-.33,1.35-.33c.61,0,1.12.12,1.55.37.42.25.74.61.95,1.09.15.35.23.93.23,1.72v5.3h-2.2v-4.74c0-.82-.08-1.35-.23-1.59-.2-.31-.52-.47-.94-.47-.31,0-.6.09-.87.28s-.47.46-.59.82c-.12.36-.18.93-.18,1.71v3.98h-2.2v-4.55c0-.81-.04-1.33-.12-1.56s-.2-.41-.36-.52c-.16-.11-.39-.17-.67-.17-.34,0-.64.09-.91.27-.27.18-.46.45-.58.79s-.18.91-.18,1.71v4.03h-2.2v-8.3Z"/>
    <path class="cls-1" d="M101.64,345.44h2.05v1.22c.27-.42.62-.75,1.08-1.02.45-.26.96-.39,1.51-.39.96,0,1.78.38,2.45,1.13.67.76,1.01,1.81,1.01,3.16s-.34,2.46-1.02,3.23c-.68.77-1.5,1.15-2.46,1.15-.46,0-.87-.09-1.25-.27s-.76-.49-1.18-.94v4.18h-2.2v-11.45ZM103.81,349.45c0,.93.18,1.62.55,2.07s.82.67,1.35.67.93-.2,1.27-.61c.34-.41.51-1.08.51-2.01,0-.87-.17-1.52-.52-1.94s-.78-.63-1.3-.63-.98.21-1.34.62-.53,1.03-.53,1.84Z"/>
    <path class="cls-1" d="M116.28,351.1l2.19.37c-.28.8-.73,1.41-1.33,1.83-.61.42-1.37.63-2.28.63-1.44,0-2.51-.47-3.2-1.41-.55-.75-.82-1.71-.82-2.86,0-1.38.36-2.45,1.08-3.23.72-.78,1.63-1.17,2.73-1.17,1.23,0,2.21.41,2.92,1.22.71.82,1.05,2.06,1.02,3.75h-5.5c.02.65.19,1.16.53,1.52.34.36.76.54,1.27.54.34,0,.63-.09.87-.28s.41-.49.53-.91ZM116.41,348.88c-.02-.64-.18-1.12-.49-1.45-.31-.33-.69-.5-1.14-.5-.48,0-.88.17-1.19.52-.31.35-.47.82-.46,1.42h3.28Z"/>
    <path class="cls-1" d="M124.18,345.44v1.75h-1.5v3.34c0,.68.01,1.07.04,1.18.03.11.09.2.2.28.1.07.23.11.37.11.2,0,.5-.07.88-.21l.19,1.7c-.51.22-1.09.33-1.73.33-.4,0-.75-.07-1.07-.2s-.55-.3-.7-.52-.25-.5-.31-.86c-.05-.25-.07-.77-.07-1.55v-3.62h-1.01v-1.75h1.01v-1.65l2.2-1.28v2.93h1.5Z"/>
    <path class="cls-1" d="M130.51,351.1l2.19.37c-.28.8-.73,1.41-1.33,1.83-.61.42-1.37.63-2.28.63-1.44,0-2.51-.47-3.2-1.41-.55-.75-.82-1.71-.82-2.86,0-1.38.36-2.45,1.08-3.23.72-.78,1.63-1.17,2.73-1.17,1.23,0,2.21.41,2.92,1.22.71.82,1.05,2.06,1.02,3.75h-5.5c.02.65.19,1.16.53,1.52.34.36.76.54,1.27.54.34,0,.63-.09.87-.28s.41-.49.53-.91ZM130.63,348.88c-.02-.64-.18-1.12-.49-1.45-.31-.33-.69-.5-1.14-.5-.48,0-.88.17-1.19.52-.31.35-.47.82-.46,1.42h3.28Z"/>
    <path class="cls-1" d="M138.41,345.44v1.75h-1.5v3.34c0,.68.01,1.07.04,1.18.03.11.09.2.2.28.1.07.23.11.37.11.2,0,.5-.07.88-.21l.19,1.7c-.51.22-1.09.33-1.73.33-.4,0-.75-.07-1.07-.2s-.55-.3-.7-.52-.25-.5-.31-.86c-.05-.25-.07-.77-.07-1.55v-3.62h-1.01v-1.75h1.01v-1.65l2.2-1.28v2.93h1.5Z"/>
    <path class="cls-1" d="M139.93,344.32v-2.03h2.2v2.03h-2.2ZM139.93,353.74v-8.3h2.2v8.3h-2.2Z"/>
    <path class="cls-1" d="M146.66,353.74l-3.34-8.3h2.3l1.56,4.23.45,1.41c.12-.36.2-.6.23-.71.07-.23.15-.47.23-.7l1.58-4.23h2.26l-3.3,8.3h-1.98Z"/>
    <path class="cls-1" d="M158.08,351.1l2.19.37c-.28.8-.73,1.41-1.33,1.83-.61.42-1.37.63-2.28.63-1.44,0-2.51-.47-3.2-1.41-.55-.75-.82-1.71-.82-2.86,0-1.38.36-2.45,1.08-3.23.72-.78,1.63-1.17,2.73-1.17,1.23,0,2.21.41,2.92,1.22.71.82,1.05,2.06,1.02,3.75h-5.5c.02.65.19,1.16.53,1.52.34.36.76.54,1.27.54.34,0,.63-.09.87-.28s.41-.49.53-.91ZM158.21,348.88c-.02-.64-.18-1.12-.49-1.45-.31-.33-.69-.5-1.14-.5-.48,0-.88.17-1.19.52-.31.35-.47.82-.46,1.42h3.28Z"/>
    <path class="cls-1" d="M123.54,372.94l-3.34-8.3h2.3l1.56,4.23.45,1.41c.12-.36.2-.6.23-.71.07-.23.15-.47.23-.7l1.58-4.23h2.26l-3.3,8.3h-1.98Z"/>
    <path class="cls-1" d="M131.8,367.17l-1.99-.36c.22-.8.61-1.4,1.16-1.78.55-.39,1.36-.58,2.44-.58.98,0,1.71.12,2.19.35.48.23.82.53,1.01.88.2.36.29,1.01.29,1.96l-.02,2.56c0,.73.04,1.27.11,1.61.07.35.2.72.39,1.11h-2.17c-.06-.15-.13-.36-.21-.65-.04-.13-.06-.22-.08-.26-.38.36-.78.64-1.2.82s-.88.27-1.37.27c-.85,0-1.53-.23-2.02-.7-.49-.46-.74-1.05-.74-1.76,0-.47.11-.89.34-1.25s.54-.65.94-.84.99-.37,1.75-.51c1.03-.19,1.74-.37,2.13-.54v-.22c0-.42-.1-.72-.31-.9s-.6-.27-1.18-.27c-.39,0-.7.08-.91.23-.22.15-.4.42-.53.81ZM134.74,368.95c-.28.09-.73.21-1.34.34-.61.13-1.01.26-1.2.38-.29.2-.43.46-.43.77s.11.57.34.8c.23.22.52.34.88.34.4,0,.77-.13,1.13-.39.27-.2.44-.44.52-.73.06-.19.09-.54.09-1.07v-.44Z"/>
    <path class="cls-1" d="M139.06,372.94v-11.45h2.2v11.45h-2.2Z"/>
    <path class="cls-1" d="M148.96,372.94v-1.24c-.3.44-.7.79-1.19,1.05s-1.01.38-1.56.38-1.06-.12-1.5-.37-.76-.59-.96-1.03c-.2-.44-.3-1.05-.3-1.84v-5.25h2.2v3.81c0,1.17.04,1.88.12,2.14.08.26.23.47.44.62.21.15.48.23.81.23.38,0,.71-.1,1.01-.31.3-.21.5-.46.61-.77s.16-1.05.16-2.24v-3.5h2.2v8.3h-2.04Z"/>
    <path class="cls-1" d="M158.08,370.3l2.19.37c-.28.8-.73,1.41-1.33,1.83-.61.42-1.37.63-2.28.63-1.44,0-2.51-.47-3.2-1.41-.55-.75-.82-1.71-.82-2.86,0-1.38.36-2.45,1.08-3.23.72-.78,1.63-1.17,2.73-1.17,1.23,0,2.21.41,2.92,1.22.71.82,1.05,2.06,1.02,3.75h-5.5c.02.65.19,1.16.53,1.52.34.36.76.54,1.27.54.34,0,.63-.09.87-.28s.41-.49.53-.91ZM158.21,368.08c-.02-.64-.18-1.12-.49-1.45-.31-.33-.69-.5-1.14-.5-.48,0-.88.17-1.19.52-.31.35-.47.82-.46,1.42h3.28Z"/>
  </g>
  <text class="cls-2" transform="translate(641.4 109.99)"><tspan x="0" y="0">Intangible value</tspan></text>
  <g>
    <rect class="cls-4" x="190.11" y="128.74" width="350" height="150"/>
    <rect class="cls-4" x="190.11" y="278.74" width="350" height="150"/>
    <rect class="cls-4" x="540.11" y="128.74" width="350" height="150"/>
    <rect class="cls-4" x="540.11" y="278.74" width="350" height="150"/>
  </g>
  <text class="cls-3" transform="translate(299.33 227.94)"><tspan x="0" y="0">Capacity utilization</tspan></text>
  <text class="cls-3" transform="translate(324.68 191.27)"><tspan x="0" y="0">Productivity</tspan></text>
  <text class="cls-3" transform="translate(624.04 227.94)"><tspan x="0" y="0">Coordination flexibility</tspan></text>
  <text class="cls-3" transform="translate(603.58 191.27)"><tspan x="0" y="0">IS management capabilities</tspan></text>
  <text class="cls-3" transform="translate(279.32 379.72)"><tspan x="0" y="0">Accounting performance</tspan></text>
  <text class="cls-3" transform="translate(294.44 343.05)"><tspan x="0" y="0">Market performance</tspan></text>
  <text class="cls-3" transform="translate(592.46 379.72)"><tspan x="0" y="0">Product and service innovation</tspan></text>
  <text class="cls-3" transform="translate(619.6 343.05)"><tspan x="0" y="0">Protection of resources</tspan></text>
</svg>