<?xml version="1.0" encoding="UTF-8"?>
<svg id="layer" xmlns="http://www.w3.org/2000/svg" viewBox="0 0 988 525">
  <defs>
    <style>
      .cls-1 {
        font-family: Arial-BoldMT, Arial;
        font-size: 14px;
        font-weight: 700;
      }

      .cls-1, .cls-2, .cls-3 {
        fill: #000;
      }

      .cls-4 {
        stroke: #0333ff;
        stroke-width: 2px;
      }

      .cls-4, .cls-5, .cls-6, .cls-7 {
        stroke-miterlimit: 10;
      }

      .cls-4, .cls-6, .cls-7 {
        fill: none;
      }

      .cls-8 {
        fill: #1d1d1b;
      }

      .cls-8, .cls-2, .cls-9 {
        stroke-width: 0px;
      }

      .cls-5 {
        stroke-dasharray: 0 0 4 4;
        stroke-width: .5px;
      }

      .cls-5, .cls-6 {
        stroke: #000;
      }

      .cls-5, .cls-9 {
        fill: #fff;
      }

      .cls-3 {
        font-family: ArialMT, Arial;
        font-size: 18px;
      }

      .cls-7 {
        stroke: #1d1d1b;
      }
    </style>
  </defs>
  <g>
    <path class="cls-9" d="M170.91,408.58c47.75,0,103.87-18.6,178.43-106.98,33.98-40.28,75.47-82.87,127.94-82.87s93.95,42.59,127.94,82.87c74.55,88.38,130.68,106.98,178.43,106.98v15.72H170.91v-15.72"/>
    <line class="cls-5" x1="295.01" y1="357.29" x2="295.01" y2="435.97"/>
    <line class="cls-5" x1="390.04" y1="258.46" x2="390.04" y2="435.97"/>
    <line class="cls-5" x1="529.04" y1="232.77" x2="529.04" y2="435.97"/>
    <line class="cls-5" x1="624.07" y1="322.91" x2="624.07" y2="435.97"/>
    <text class="cls-1" transform="translate(197.18 459.23)"><tspan x="0" y="0">Innovators</tspan></text>
    <g>
      <path class="cls-2" d="M326.43,450.83v-10.02h7.43v1.7h-5.41v2.22h5.03v1.69h-5.03v2.73h5.6v1.69h-7.62Z"/>
      <path class="cls-2" d="M337.19,445.78l-1.74-.31c.2-.7.53-1.22,1.01-1.56.48-.34,1.19-.51,2.13-.51.86,0,1.49.1,1.91.3.42.2.71.46.88.77.17.31.26.89.26,1.72l-.02,2.24c0,.64.03,1.11.09,1.41.06.3.18.63.35.97h-1.9c-.05-.13-.11-.32-.19-.57-.03-.11-.05-.19-.07-.23-.33.32-.68.56-1.05.72-.37.16-.77.24-1.2.24-.75,0-1.34-.2-1.77-.61-.43-.41-.65-.92-.65-1.54,0-.41.1-.78.29-1.1.2-.32.47-.57.82-.74.35-.17.86-.32,1.53-.45.9-.17,1.52-.33,1.87-.47v-.19c0-.37-.09-.63-.27-.79-.18-.16-.53-.24-1.03-.24-.34,0-.61.07-.8.2s-.35.37-.46.71ZM339.76,447.34c-.25.08-.63.18-1.17.29-.53.11-.88.22-1.05.33-.25.18-.38.4-.38.68s.1.5.3.7c.2.2.46.29.77.29.35,0,.68-.11.99-.34.23-.17.38-.38.46-.63.05-.16.07-.48.07-.94v-.38Z"/>
      <path class="cls-2" d="M345.38,450.83h-1.92v-7.26h1.78v1.03c.31-.49.58-.81.82-.96.24-.15.52-.23.83-.23.44,0,.86.12,1.27.36l-.6,1.67c-.32-.21-.62-.31-.9-.31s-.5.07-.68.22c-.19.15-.33.42-.44.8-.11.39-.16,1.2-.16,2.43v2.24Z"/>
      <path class="cls-2" d="M348.98,450.83v-10.02h1.92v10.02h-1.92Z"/>
      <path class="cls-2" d="M351.96,443.57h2.04l1.74,5.15,1.7-5.15h1.99l-2.56,6.99-.46,1.27c-.17.42-.33.75-.48.97-.15.22-.33.4-.53.54-.2.14-.44.25-.73.32-.29.08-.62.12-.98.12s-.73-.04-1.09-.12l-.17-1.5c.3.06.57.09.81.09.45,0,.78-.13.99-.39.21-.26.38-.6.49-1l-2.76-7.28Z"/>
      <path class="cls-2" d="M315.41,462.58l-1.74-.31c.2-.7.53-1.22,1.01-1.56.48-.34,1.19-.51,2.13-.51.86,0,1.5.1,1.91.3.42.2.71.46.88.77.17.31.26.88.26,1.72l-.02,2.24c0,.64.03,1.11.09,1.41.06.3.18.63.35.97h-1.9c-.05-.13-.11-.32-.18-.57-.03-.11-.05-.19-.07-.22-.33.32-.68.56-1.05.72-.38.16-.77.24-1.2.24-.75,0-1.34-.2-1.77-.61-.43-.41-.64-.92-.64-1.54,0-.41.1-.78.29-1.1.2-.32.47-.57.82-.74s.86-.32,1.53-.45c.9-.17,1.52-.33,1.87-.47v-.19c0-.37-.09-.63-.27-.79-.18-.16-.53-.24-1.03-.24-.34,0-.61.07-.8.2s-.35.37-.46.71ZM317.98,464.14c-.25.08-.64.18-1.17.29-.53.11-.88.23-1.04.34-.25.18-.38.4-.38.68s.1.5.3.7c.2.2.46.29.77.29.35,0,.68-.11.99-.34.23-.17.38-.39.46-.64.05-.16.08-.48.08-.94v-.38Z"/>
      <path class="cls-2" d="M328.42,467.63h-1.78v-1.07c-.3.41-.65.72-1.05.93-.4.2-.81.3-1.22.3-.83,0-1.55-.34-2.14-1.01-.6-.67-.89-1.61-.89-2.81s.29-2.17.87-2.81c.58-.64,1.31-.96,2.2-.96.81,0,1.51.34,2.11,1.01v-3.61h1.92v10.02ZM323.29,463.84c0,.77.11,1.33.32,1.68.31.5.74.75,1.3.75.44,0,.82-.19,1.13-.56.31-.38.46-.94.46-1.69,0-.83-.15-1.43-.45-1.8s-.69-.55-1.15-.55-.84.18-1.14.54c-.31.36-.46.9-.46,1.62Z"/>
      <path class="cls-2" d="M329.87,463.9c0-.64.16-1.26.47-1.85.31-.6.76-1.05,1.34-1.37s1.22-.47,1.93-.47c1.1,0,2,.36,2.7,1.07.7.71,1.05,1.61,1.05,2.7s-.35,2.01-1.06,2.73-1.6,1.08-2.68,1.08c-.67,0-1.3-.15-1.9-.45s-1.06-.74-1.38-1.32-.47-1.29-.47-2.12ZM331.84,464c0,.72.17,1.27.51,1.65s.76.57,1.26.57.92-.19,1.26-.57.51-.94.51-1.67-.17-1.26-.51-1.64-.76-.57-1.26-.57-.92.19-1.26.57-.51.93-.51,1.65Z"/>
      <path class="cls-2" d="M338.81,460.37h1.79v1.07c.23-.37.55-.66.94-.89.4-.23.84-.34,1.32-.34.84,0,1.56.33,2.15.99.59.66.88,1.58.88,2.76s-.29,2.15-.89,2.83c-.59.67-1.31,1.01-2.15,1.01-.4,0-.77-.08-1.09-.24-.33-.16-.67-.43-1.03-.82v3.66h-1.92v-10.02ZM340.71,463.87c0,.82.16,1.42.49,1.81.32.39.72.58,1.18.58s.82-.18,1.12-.54c.29-.36.44-.94.44-1.76,0-.76-.15-1.33-.46-1.7-.31-.37-.68-.55-1.13-.55s-.86.18-1.17.54c-.31.36-.46.9-.46,1.61Z"/>
      <path class="cls-2" d="M350.74,460.37v1.53h-1.31v2.93c0,.59.01.94.04,1.04.03.1.08.18.17.24.09.06.2.1.32.1.18,0,.44-.06.77-.18l.16,1.49c-.45.19-.95.29-1.52.29-.35,0-.66-.06-.94-.17-.28-.12-.48-.27-.61-.45-.13-.18-.22-.43-.27-.75-.04-.22-.06-.67-.06-1.35v-3.16h-.88v-1.53h.88v-1.44l1.93-1.12v2.56h1.31Z"/>
      <path class="cls-2" d="M356.28,465.32l1.91.32c-.25.7-.63,1.24-1.17,1.6-.53.37-1.19.55-1.99.55-1.26,0-2.2-.41-2.8-1.24-.48-.66-.72-1.49-.72-2.5,0-1.2.31-2.14.94-2.83s1.42-1.02,2.38-1.02c1.08,0,1.93.36,2.56,1.07.62.71.92,1.81.9,3.28h-4.81c.01.57.17,1.01.46,1.33.29.32.66.48,1.11.48.3,0,.55-.08.76-.25s.36-.43.46-.79ZM356.39,463.38c-.01-.56-.16-.98-.43-1.27s-.61-.43-1-.43c-.42,0-.77.15-1.04.46-.27.3-.41.72-.4,1.24h2.87Z"/>
      <path class="cls-2" d="M361.7,467.63h-1.92v-7.26h1.79v1.03c.3-.49.58-.81.82-.96.24-.16.52-.23.83-.23.44,0,.86.12,1.26.36l-.59,1.68c-.32-.21-.62-.31-.9-.31s-.5.07-.68.22c-.19.15-.33.42-.44.8-.11.39-.16,1.2-.16,2.43v2.24Z"/>
      <path class="cls-2" d="M364.63,465.56l1.93-.29c.08.37.25.66.5.85.25.19.6.29,1.05.29.5,0,.87-.09,1.12-.27.17-.13.25-.3.25-.51,0-.15-.04-.27-.14-.36-.1-.09-.31-.17-.64-.25-1.55-.34-2.53-.65-2.95-.94-.57-.39-.86-.94-.86-1.63,0-.63.25-1.16.74-1.59.5-.43,1.27-.64,2.31-.64s1.73.16,2.21.48c.48.32.82.8,1,1.44l-1.81.34c-.08-.28-.22-.5-.44-.65s-.53-.22-.93-.22c-.51,0-.87.07-1.09.21-.14.1-.22.23-.22.39,0,.14.06.25.19.35.17.13.77.31,1.79.54s1.74.52,2.14.85c.4.34.6.82.6,1.43,0,.67-.28,1.24-.83,1.71-.55.48-1.38.72-2.47.72-.99,0-1.77-.2-2.35-.6-.58-.4-.95-.95-1.13-1.63Z"/>
    </g>
    <g>
      <path class="cls-2" d="M443.44,450.83v-10.02h7.43v1.7h-5.41v2.22h5.03v1.69h-5.03v2.73h5.6v1.69h-7.62Z"/>
      <path class="cls-2" d="M454.2,445.78l-1.74-.31c.2-.7.53-1.22,1.01-1.56.48-.34,1.19-.51,2.13-.51.86,0,1.5.1,1.91.3s.71.46.88.77c.17.31.26.89.26,1.72l-.02,2.24c0,.64.03,1.11.09,1.41.06.3.18.63.35.97h-1.9c-.05-.13-.11-.32-.18-.57-.03-.11-.05-.19-.07-.23-.33.32-.68.56-1.05.72-.37.16-.77.24-1.2.24-.75,0-1.34-.2-1.77-.61-.43-.41-.65-.92-.65-1.54,0-.41.1-.78.29-1.1s.47-.57.82-.74c.35-.17.86-.32,1.53-.45.9-.17,1.52-.33,1.87-.47v-.19c0-.37-.09-.63-.27-.79s-.53-.24-1.03-.24c-.34,0-.61.07-.8.2s-.35.37-.46.71ZM456.77,447.34c-.25.08-.64.18-1.17.29-.53.11-.88.22-1.05.33-.25.18-.38.4-.38.68s.1.5.3.7c.2.2.46.29.77.29.35,0,.68-.11.99-.34.23-.17.38-.38.46-.63.05-.16.08-.48.08-.94v-.38Z"/>
      <path class="cls-2" d="M462.39,450.83h-1.92v-7.26h1.78v1.03c.31-.49.58-.81.82-.96.24-.15.52-.23.83-.23.44,0,.86.12,1.26.36l-.59,1.67c-.32-.21-.62-.31-.9-.31s-.5.07-.68.22-.33.42-.44.8c-.11.39-.16,1.2-.16,2.43v2.24Z"/>
      <path class="cls-2" d="M466,450.83v-10.02h1.92v10.02h-1.92Z"/>
      <path class="cls-2" d="M468.98,443.57h2.04l1.74,5.15,1.7-5.15h1.99l-2.56,6.99-.46,1.27c-.17.42-.33.75-.48.97-.15.22-.33.4-.53.54-.2.14-.44.25-.73.32-.29.08-.62.12-.98.12s-.73-.04-1.09-.12l-.17-1.5c.3.06.57.09.81.09.45,0,.78-.13.99-.39s.38-.6.49-1l-2.76-7.28Z"/>
      <path class="cls-2" d="M433.18,460.37h1.77v.99c.63-.77,1.39-1.15,2.26-1.15.46,0,.87.1,1.21.29s.62.48.84.87c.32-.39.66-.68,1.03-.87s.76-.29,1.18-.29c.53,0,.98.11,1.35.32s.64.53.83.95c.13.31.2.81.2,1.5v4.64h-1.92v-4.15c0-.72-.07-1.18-.2-1.39-.18-.27-.45-.41-.82-.41-.27,0-.52.08-.76.25s-.41.4-.51.72-.16.82-.16,1.5v3.49h-1.92v-3.98c0-.71-.03-1.16-.1-1.37s-.17-.36-.32-.46c-.14-.1-.34-.15-.58-.15-.3,0-.56.08-.8.24-.24.16-.41.39-.51.69-.1.3-.15.8-.15,1.5v3.53h-1.92v-7.26Z"/>
      <path class="cls-2" d="M447.2,462.58l-1.74-.31c.2-.7.53-1.22,1.01-1.56.48-.34,1.19-.51,2.13-.51.86,0,1.5.1,1.91.3s.71.46.88.77c.17.31.26.88.26,1.72l-.02,2.24c0,.64.03,1.11.09,1.41.06.3.18.63.35.97h-1.9c-.05-.13-.11-.32-.18-.57-.03-.11-.05-.19-.07-.22-.33.32-.68.56-1.05.72-.37.16-.77.24-1.2.24-.75,0-1.34-.2-1.77-.61-.43-.41-.65-.92-.65-1.54,0-.41.1-.78.29-1.1s.47-.57.82-.74c.35-.17.86-.32,1.53-.45.9-.17,1.52-.33,1.87-.47v-.19c0-.37-.09-.63-.27-.79s-.53-.24-1.03-.24c-.34,0-.61.07-.8.2s-.35.37-.46.71ZM449.77,464.14c-.25.08-.64.18-1.17.29-.53.11-.88.23-1.05.34-.25.18-.38.4-.38.68s.1.5.3.7c.2.2.46.29.77.29.35,0,.68-.11.99-.34.23-.17.38-.39.46-.64.05-.16.08-.48.08-.94v-.38Z"/>
      <path class="cls-2" d="M455.43,460.37v7.03c0,.93-.06,1.58-.18,1.96-.12.38-.35.68-.7.89-.34.21-.78.32-1.32.32-.19,0-.4-.02-.62-.05-.22-.03-.46-.09-.71-.15l.33-1.64c.09.02.18.03.26.04.08.01.15.02.22.02.2,0,.36-.04.48-.13.13-.08.21-.19.25-.3.04-.12.06-.47.06-1.07v-6.92h1.92ZM453.51,459.38v-1.78h1.92v1.78h-1.92Z"/>
      <path class="cls-2" d="M457,463.9c0-.64.16-1.26.47-1.85.31-.6.76-1.05,1.34-1.37.58-.31,1.22-.47,1.93-.47,1.1,0,2,.36,2.7,1.07s1.05,1.61,1.05,2.7-.35,2.01-1.06,2.73c-.71.72-1.6,1.08-2.68,1.08-.67,0-1.3-.15-1.9-.45-.6-.3-1.06-.74-1.38-1.32s-.47-1.29-.47-2.12ZM458.97,464c0,.72.17,1.27.51,1.65s.76.57,1.26.57.92-.19,1.26-.57c.34-.38.51-.94.51-1.67s-.17-1.26-.51-1.64c-.34-.38-.76-.57-1.26-.57s-.92.19-1.26.57-.51.93-.51,1.65Z"/>
      <path class="cls-2" d="M467.83,467.63h-1.92v-7.26h1.78v1.03c.31-.49.58-.81.82-.96.24-.16.52-.23.83-.23.44,0,.86.12,1.26.36l-.59,1.68c-.32-.21-.62-.31-.9-.31s-.5.07-.68.22-.33.42-.44.8c-.11.39-.16,1.2-.16,2.43v2.24Z"/>
      <path class="cls-2" d="M471.44,459.38v-1.78h1.92v1.78h-1.92ZM471.44,467.63v-7.26h1.92v7.26h-1.92Z"/>
      <path class="cls-2" d="M478.66,460.37v1.53h-1.31v2.93c0,.59.01.94.04,1.04.03.1.08.18.17.24.09.06.2.1.32.1.18,0,.44-.06.77-.18l.16,1.49c-.45.19-.95.29-1.52.29-.35,0-.66-.06-.94-.17s-.48-.27-.61-.45c-.13-.18-.22-.43-.27-.75-.04-.22-.06-.67-.06-1.35v-3.16h-.88v-1.53h.88v-1.44l1.93-1.12v2.56h1.31Z"/>
      <path class="cls-2" d="M479.09,460.37h2.04l1.74,5.15,1.7-5.15h1.99l-2.56,6.99-.46,1.26c-.17.42-.33.75-.48.97-.15.22-.33.4-.53.54-.2.14-.44.25-.73.33-.29.08-.62.12-.98.12s-.73-.04-1.09-.12l-.17-1.5c.3.06.57.09.81.09.45,0,.78-.13.99-.39s.38-.6.49-1l-2.76-7.28Z"/>
    </g>
    <g>
      <line class="cls-6" x1="170.91" y1="424.3" x2="785.8" y2="424.3"/>
      <polygon class="cls-2" points="784.34 429.28 792.98 424.3 784.34 419.31 784.34 429.28"/>
    </g>
    <path class="cls-4" d="M170.91,408.58c47.75,0,103.87-18.6,178.43-106.98"/>
    <path class="cls-4" d="M377.4,270.53c-9.9,9.99-19.24,20.61-28.06,31.07"/>
    <path class="cls-4" d="M783.64,408.58c-47.75,0-103.87-18.6-178.43-106.98-33.98-40.28-75.47-82.87-127.94-82.87-38.84,0-71.66,23.34-99.88,51.8"/>
    <g>
      <line class="cls-6" x1="170.9" y1="61.65" x2="170.71" y2="425.08"/>
      <polygon class="cls-2" points="165.92 63.11 170.91 54.48 175.89 63.12 165.92 63.11"/>
    </g>
    <text class="cls-3" transform="translate(159.42 182.38) rotate(-90)"><tspan x="0" y="0">Market share</tspan></text>
    <text class="cls-3" transform="translate(804.25 446.26)"><tspan x="0" y="0">Time</tspan></text>
  </g>
  <g>
    <path class="cls-2" d="M197.27,304.06l1.37-.19c.04.88.2,1.47.49,1.8s.7.48,1.21.48c.38,0,.71-.09.98-.26s.47-.41.57-.71.16-.78.16-1.43v-7.89h1.52v7.8c0,.96-.12,1.7-.35,2.23s-.6.93-1.1,1.2c-.5.28-1.09.41-1.77.41-1,0-1.77-.29-2.31-.87s-.79-1.44-.77-2.58Z"/>
    <path class="cls-2" d="M205.34,303.16c0-1.54.43-2.67,1.28-3.41.71-.61,1.58-.92,2.61-.92,1.14,0,2.07.37,2.8,1.12s1.09,1.78,1.09,3.1c0,1.07-.16,1.91-.48,2.52s-.79,1.09-1.4,1.43c-.61.34-1.28.51-2,.51-1.16,0-2.1-.37-2.82-1.12s-1.07-1.82-1.07-3.22ZM206.79,303.16c0,1.06.23,1.86.7,2.39s1.05.79,1.75.79,1.28-.27,1.74-.8.7-1.34.7-2.43c0-1.03-.23-1.8-.7-2.33s-1.05-.79-1.74-.79-1.29.26-1.75.79-.7,1.32-.7,2.38Z"/>
    <path class="cls-2" d="M214.77,297.47v-1.62h1.41v1.62h-1.41ZM214.77,307.31v-8.3h1.41v8.3h-1.41Z"/>
    <path class="cls-2" d="M218.32,307.31v-8.3h1.27v1.18c.61-.91,1.49-1.37,2.64-1.37.5,0,.96.09,1.38.27s.73.42.94.71.35.64.44,1.04c.05.26.08.72.08,1.37v5.1h-1.41v-5.05c0-.57-.05-1-.16-1.29s-.3-.51-.58-.68-.61-.25-.98-.25c-.6,0-1.12.19-1.55.57s-.65,1.1-.65,2.16v4.53h-1.41Z"/>
    <path class="cls-2" d="M233.19,307.31l-2.54-8.3h1.45l1.32,4.79.49,1.78c.02-.09.16-.66.43-1.71l1.32-4.86h1.45l1.24,4.81.41,1.59.48-1.6,1.42-4.8h1.37l-2.59,8.3h-1.46l-1.32-4.97-.32-1.41-1.68,6.38h-1.47Z"/>
    <path class="cls-2" d="M243.22,307.31v-11.45h1.41v4.11c.66-.76,1.48-1.14,2.48-1.14.61,0,1.15.12,1.6.36s.78.58.97,1,.29,1.05.29,1.86v5.26h-1.41v-5.26c0-.7-.15-1.21-.46-1.54s-.74-.48-1.29-.48c-.42,0-.81.11-1.18.32s-.63.51-.79.88-.23.88-.23,1.53v4.54h-1.41Z"/>
    <path class="cls-2" d="M257.79,304.63l1.45.18c-.23.85-.65,1.51-1.27,1.98s-1.41.7-2.38.7c-1.21,0-2.18-.37-2.89-1.12s-1.07-1.8-1.07-3.14.36-2.48,1.08-3.25,1.65-1.16,2.8-1.16,2.02.38,2.72,1.13,1.05,1.82,1.05,3.19c0,.08,0,.21,0,.38h-6.19c.05.91.31,1.61.77,2.09s1.04.73,1.73.73c.52,0,.96-.14,1.32-.41s.65-.7.87-1.3ZM253.18,302.36h4.63c-.06-.7-.24-1.22-.53-1.57-.45-.54-1.03-.81-1.74-.81-.65,0-1.19.22-1.63.65s-.68,1.01-.73,1.73Z"/>
    <path class="cls-2" d="M261.01,307.31v-8.3h1.27v1.18c.61-.91,1.49-1.37,2.64-1.37.5,0,.96.09,1.38.27s.73.42.94.71.35.64.44,1.04c.05.26.08.72.08,1.37v5.1h-1.41v-5.05c0-.57-.05-1-.16-1.29s-.3-.51-.58-.68-.61-.25-.98-.25c-.6,0-1.12.19-1.55.57s-.65,1.1-.65,2.16v4.53h-1.41Z"/>
    <path class="cls-2" d="M209,316.67v-1.62h1.41v1.62h-1.41ZM209,326.51v-8.3h1.41v8.3h-1.41Z"/>
    <path class="cls-2" d="M215.62,325.25l.2,1.24c-.4.08-.75.12-1.06.12-.51,0-.91-.08-1.19-.24s-.48-.37-.59-.64-.17-.82-.17-1.66v-4.77h-1.03v-1.09h1.03v-2.05l1.4-.84v2.9h1.41v1.09h-1.41v4.85c0,.4.02.66.07.77s.13.21.24.27.27.1.48.1c.16,0,.36-.02.62-.05Z"/>
    <path class="cls-2" d="M216.43,324.03l1.39-.22c.08.56.3.98.65,1.28s.86.45,1.5.45,1.12-.13,1.44-.39.47-.57.47-.93c0-.32-.14-.57-.41-.75-.19-.12-.67-.28-1.44-.48-1.03-.26-1.75-.49-2.14-.68s-.7-.45-.91-.79-.31-.71-.31-1.11c0-.37.08-.71.25-1.03s.4-.58.69-.79c.22-.16.52-.3.89-.41s.78-.17,1.21-.17c.65,0,1.22.09,1.71.28s.86.44,1.09.76.4.75.48,1.29l-1.38.19c-.06-.43-.24-.76-.54-1s-.72-.36-1.27-.36c-.65,0-1.11.11-1.38.32s-.41.46-.41.75c0,.18.06.35.17.49.11.15.29.28.54.38.14.05.55.17,1.24.36,1,.27,1.69.48,2.08.65s.7.42.93.74.34.72.34,1.2-.14.91-.41,1.32-.67.73-1.18.96-1.1.34-1.75.34c-1.08,0-1.9-.22-2.46-.67s-.93-1.11-1.08-1.99Z"/>
    <path class="cls-2" d="M229.44,326.51v-8.3h1.27v1.18c.61-.91,1.49-1.37,2.64-1.37.5,0,.96.09,1.38.27s.73.42.94.71.35.64.44,1.04c.05.26.08.72.08,1.37v5.1h-1.41v-5.05c0-.57-.05-1-.16-1.29s-.3-.51-.58-.68-.61-.25-.98-.25c-.6,0-1.12.19-1.55.57s-.65,1.1-.65,2.16v4.53h-1.41Z"/>
    <path class="cls-2" d="M244.01,323.83l1.45.18c-.23.85-.65,1.51-1.27,1.98s-1.41.7-2.38.7c-1.21,0-2.18-.37-2.89-1.12s-1.07-1.8-1.07-3.14.36-2.48,1.08-3.25,1.65-1.16,2.8-1.16,2.02.38,2.72,1.13,1.05,1.82,1.05,3.19c0,.08,0,.21,0,.38h-6.19c.05.91.31,1.61.77,2.09s1.04.73,1.73.73c.52,0,.96-.14,1.32-.41s.65-.7.87-1.3ZM239.4,321.56h4.63c-.06-.7-.24-1.22-.53-1.57-.45-.54-1.03-.81-1.74-.81-.65,0-1.19.22-1.63.65s-.68,1.01-.73,1.73Z"/>
    <path class="cls-2" d="M248.76,326.51l-2.54-8.3h1.45l1.32,4.79.49,1.78c.02-.09.16-.66.43-1.71l1.32-4.86h1.45l1.24,4.81.41,1.59.48-1.6,1.42-4.8h1.37l-2.59,8.3h-1.46l-1.32-4.97-.32-1.41-1.68,6.38h-1.47Z"/>
  </g>
  <g>
    <line class="cls-7" x1="232.85" y1="338.39" x2="232.85" y2="408.65"/>
    <path class="cls-8" d="M229.09,408.65c0,2.08,1.68,3.76,3.76,3.76s3.76-1.68,3.76-3.76-1.68-3.76-3.76-3.76-3.76,1.68-3.76,3.76Z"/>
  </g>
  <g>
    <path class="cls-2" d="M306.95,207.76l1.37-.19c.04.88.2,1.47.49,1.8s.7.48,1.21.48c.38,0,.71-.09.98-.26s.47-.41.57-.71.16-.78.16-1.43v-7.89h1.52v7.8c0,.96-.12,1.7-.35,2.23s-.6.93-1.1,1.2c-.5.28-1.09.41-1.77.41-1,0-1.77-.29-2.31-.87s-.79-1.44-.77-2.58Z"/>
    <path class="cls-2" d="M315.02,206.87c0-1.54.43-2.67,1.28-3.41.71-.61,1.58-.92,2.61-.92,1.14,0,2.07.37,2.8,1.12s1.09,1.78,1.09,3.1c0,1.07-.16,1.91-.48,2.52s-.79,1.09-1.4,1.43c-.61.34-1.28.51-2,.51-1.16,0-2.1-.37-2.82-1.12s-1.07-1.82-1.07-3.22ZM316.46,206.87c0,1.06.23,1.86.7,2.39s1.05.79,1.75.79,1.28-.27,1.74-.8.7-1.34.7-2.43c0-1.03-.23-1.8-.7-2.33s-1.05-.79-1.74-.79-1.29.26-1.75.79-.7,1.32-.7,2.38Z"/>
    <path class="cls-2" d="M324.45,201.18v-1.62h1.41v1.62h-1.41ZM324.45,211.01v-8.3h1.41v8.3h-1.41Z"/>
    <path class="cls-2" d="M327.99,211.01v-8.3h1.27v1.18c.61-.91,1.49-1.37,2.64-1.37.5,0,.96.09,1.38.27s.73.42.94.71.35.64.44,1.04c.05.26.08.72.08,1.37v5.1h-1.41v-5.05c0-.57-.05-1-.16-1.29s-.3-.51-.58-.68-.61-.25-.98-.25c-.6,0-1.12.19-1.55.57s-.65,1.1-.65,2.16v4.53h-1.41Z"/>
    <path class="cls-2" d="M342.87,211.01l-2.54-8.3h1.45l1.32,4.79.49,1.78c.02-.09.16-.66.43-1.71l1.32-4.86h1.45l1.24,4.81.41,1.59.48-1.6,1.42-4.8h1.37l-2.59,8.3h-1.46l-1.32-4.97-.32-1.41-1.68,6.38h-1.47Z"/>
    <path class="cls-2" d="M352.89,211.01v-11.45h1.41v4.11c.66-.76,1.48-1.14,2.48-1.14.61,0,1.15.12,1.6.36s.78.58.97,1,.29,1.05.29,1.86v5.26h-1.41v-5.26c0-.7-.15-1.21-.46-1.54s-.74-.48-1.29-.48c-.42,0-.81.11-1.18.32s-.63.51-.79.88-.23.88-.23,1.53v4.54h-1.41Z"/>
    <path class="cls-2" d="M367.47,208.34l1.45.18c-.23.85-.65,1.51-1.27,1.98s-1.41.7-2.38.7c-1.21,0-2.18-.37-2.89-1.12s-1.07-1.8-1.07-3.14.36-2.48,1.08-3.25,1.65-1.16,2.8-1.16,2.02.38,2.72,1.13,1.05,1.82,1.05,3.19c0,.08,0,.21,0,.38h-6.19c.05.91.31,1.61.77,2.09s1.04.73,1.73.73c.52,0,.96-.14,1.32-.41s.65-.7.87-1.3ZM362.85,206.07h4.63c-.06-.7-.24-1.22-.53-1.57-.45-.54-1.03-.81-1.74-.81-.65,0-1.19.22-1.63.65s-.68,1.01-.73,1.73Z"/>
    <path class="cls-2" d="M370.69,211.01v-8.3h1.27v1.18c.61-.91,1.49-1.37,2.64-1.37.5,0,.96.09,1.38.27s.73.42.94.71.35.64.44,1.04c.05.26.08.72.08,1.37v5.1h-1.41v-5.05c0-.57-.05-1-.16-1.29s-.3-.51-.58-.68-.61-.25-.98-.25c-.6,0-1.12.19-1.55.57s-.65,1.1-.65,2.16v4.53h-1.41Z"/>
    <path class="cls-2" d="M331.51,228.96l.2,1.24c-.4.08-.75.12-1.06.12-.51,0-.91-.08-1.19-.24s-.48-.37-.59-.64-.17-.82-.17-1.66v-4.77h-1.03v-1.09h1.03v-2.05l1.4-.84v2.9h1.41v1.09h-1.41v4.85c0,.4.02.66.07.77s.13.21.24.27.27.1.48.1c.16,0,.36-.02.62-.05Z"/>
    <path class="cls-2" d="M332.89,230.21v-11.45h1.41v4.11c.66-.76,1.48-1.14,2.48-1.14.61,0,1.15.12,1.6.36s.78.58.97,1,.29,1.05.29,1.86v5.26h-1.41v-5.26c0-.7-.15-1.21-.46-1.54s-.74-.48-1.29-.48c-.42,0-.81.11-1.18.32s-.63.51-.79.88-.23.88-.23,1.53v4.54h-1.41Z"/>
    <path class="cls-2" d="M347.47,227.54l1.45.18c-.23.85-.65,1.51-1.27,1.98s-1.41.7-2.38.7c-1.21,0-2.18-.37-2.89-1.12s-1.07-1.8-1.07-3.14.36-2.48,1.08-3.25,1.65-1.16,2.8-1.16,2.02.38,2.72,1.13,1.05,1.82,1.05,3.19c0,.08,0,.21,0,.38h-6.19c.05.91.31,1.61.77,2.09s1.04.73,1.73.73c.52,0,.96-.14,1.32-.41s.65-.7.87-1.3ZM342.85,225.27h4.63c-.06-.7-.24-1.22-.53-1.57-.45-.54-1.03-.81-1.74-.81-.65,0-1.19.22-1.63.65s-.68,1.01-.73,1.73Z"/>
    <path class="cls-2" d="M350.62,233.41l-.16-1.32c.31.08.58.12.8.12.31,0,.56-.05.75-.16.19-.1.34-.25.46-.44.09-.14.23-.49.43-1.05.03-.08.07-.19.12-.34l-3.15-8.31h1.52l1.73,4.8c.22.61.42,1.25.6,1.92.16-.65.35-1.28.58-1.89l1.77-4.84h1.41l-3.16,8.44c-.34.91-.6,1.54-.79,1.88-.25.46-.54.8-.86,1.02-.32.22-.71.32-1.16.32-.27,0-.57-.06-.91-.17Z"/>
    <path class="cls-2" d="M306.65,252.59v-11.48h1.28v1.08c.3-.42.64-.74,1.02-.95s.84-.32,1.38-.32c.71,0,1.33.18,1.88.55.54.37.95.88,1.23,1.54s.41,1.39.41,2.18c0,.85-.15,1.61-.46,2.29s-.75,1.2-1.33,1.56c-.58.36-1.19.54-1.83.54-.47,0-.89-.1-1.26-.3-.37-.2-.68-.45-.92-.75v4.04h-1.41ZM307.93,245.31c0,1.07.22,1.86.65,2.37.43.51.96.77,1.57.77s1.16-.26,1.61-.79c.45-.53.67-1.35.67-2.46s-.22-1.85-.65-2.38c-.43-.53-.95-.79-1.56-.79s-1.13.28-1.59.84c-.46.56-.69,1.37-.69,2.44Z"/>
    <path class="cls-2" d="M321.23,246.74l1.45.18c-.23.85-.65,1.51-1.27,1.98s-1.41.7-2.38.7c-1.21,0-2.18-.37-2.89-1.12-.71-.75-1.07-1.79-1.07-3.14s.36-2.48,1.08-3.25c.72-.77,1.65-1.16,2.8-1.16s2.02.38,2.72,1.13c.7.76,1.05,1.82,1.05,3.19,0,.08,0,.21,0,.38h-6.19c.05.91.31,1.61.77,2.09s1.04.73,1.73.73c.52,0,.96-.13,1.32-.41.36-.27.65-.7.87-1.3ZM316.62,244.47h4.63c-.06-.7-.24-1.22-.53-1.57-.45-.54-1.03-.81-1.74-.81-.65,0-1.19.22-1.63.65-.44.43-.68,1.01-.73,1.73Z"/>
    <path class="cls-2" d="M324.44,249.41v-8.3h1.27v1.26c.32-.59.62-.98.89-1.16s.57-.28.9-.28c.47,0,.96.15,1.45.45l-.48,1.3c-.34-.2-.69-.3-1.03-.3-.31,0-.58.09-.83.28-.25.19-.42.44-.52.77-.16.5-.23,1.05-.23,1.64v4.34h-1.41Z"/>
    <path class="cls-2" d="M335.19,246.37l1.38.18c-.15.95-.54,1.7-1.16,2.24s-1.39.81-2.29.81c-1.14,0-2.05-.37-2.74-1.11s-1.04-1.81-1.04-3.19c0-.9.15-1.68.45-2.35s.75-1.18,1.36-1.51,1.27-.5,1.98-.5c.9,0,1.64.23,2.21.68.57.46.94,1.1,1.1,1.94l-1.37.21c-.13-.56-.36-.98-.69-1.26s-.73-.42-1.2-.42c-.71,0-1.28.25-1.73.76s-.66,1.31-.66,2.41.21,1.92.64,2.43c.43.51.98.76,1.67.76.55,0,1.01-.17,1.38-.51.37-.34.6-.86.7-1.56Z"/>
    <path class="cls-2" d="M343.46,246.74l1.45.18c-.23.85-.65,1.51-1.27,1.98s-1.41.7-2.38.7c-1.21,0-2.18-.37-2.89-1.12-.71-.75-1.07-1.79-1.07-3.14s.36-2.48,1.08-3.25c.72-.77,1.65-1.16,2.8-1.16s2.02.38,2.72,1.13c.7.76,1.05,1.82,1.05,3.19,0,.08,0,.21,0,.38h-6.19c.05.91.31,1.61.77,2.09s1.04.73,1.73.73c.52,0,.96-.13,1.32-.41.36-.27.65-.7.87-1.3ZM338.84,244.47h4.63c-.06-.7-.24-1.22-.53-1.57-.45-.54-1.03-.81-1.74-.81-.65,0-1.19.22-1.63.65-.44.43-.68,1.01-.73,1.73Z"/>
    <path class="cls-2" d="M346.69,239.58v-1.62h1.41v1.62h-1.41ZM346.69,249.41v-8.3h1.41v8.3h-1.41Z"/>
    <path class="cls-2" d="M352.54,249.41l-3.16-8.3h1.48l1.78,4.97c.19.54.37,1.09.53,1.67.12-.44.3-.96.52-1.58l1.84-5.06h1.45l-3.14,8.3h-1.31Z"/>
    <path class="cls-2" d="M363.91,246.74l1.45.18c-.23.85-.65,1.51-1.27,1.98s-1.41.7-2.38.7c-1.21,0-2.18-.37-2.89-1.12-.71-.75-1.07-1.79-1.07-3.14s.36-2.48,1.08-3.25c.72-.77,1.65-1.16,2.8-1.16s2.02.38,2.72,1.13c.7.76,1.05,1.82,1.05,3.19,0,.08,0,.21,0,.38h-6.19c.05.91.31,1.61.77,2.09s1.04.73,1.73.73c.52,0,.96-.13,1.32-.41.36-.27.65-.7.87-1.3ZM359.29,244.47h4.63c-.06-.7-.24-1.22-.53-1.57-.45-.54-1.03-.81-1.74-.81-.65,0-1.19.22-1.63.65-.44.43-.68,1.01-.73,1.73Z"/>
    <path class="cls-2" d="M376.99,248.39c-.52.44-1.02.76-1.5.94-.48.18-1,.27-1.55.27-.91,0-1.61-.22-2.1-.67s-.73-1.01-.73-1.71c0-.41.09-.78.28-1.11s.43-.61.73-.81.64-.36,1.01-.46c.28-.07.69-.14,1.25-.21,1.14-.13,1.97-.3,2.51-.48,0-.19,0-.31,0-.37,0-.57-.13-.98-.4-1.21-.36-.32-.89-.48-1.6-.48-.66,0-1.15.12-1.46.35-.32.23-.55.64-.7,1.23l-1.38-.19c.12-.59.33-1.06.62-1.43.29-.36.7-.64,1.24-.84s1.17-.29,1.88-.29,1.28.08,1.73.25c.44.17.77.38.98.63.21.25.35.57.44.96.05.24.07.67.07,1.3v1.88c0,1.31.03,2.13.09,2.48.06.35.18.68.36,1h-1.47c-.15-.29-.24-.63-.28-1.02ZM376.87,245.25c-.51.21-1.28.39-2.3.53-.58.08-.99.18-1.23.28-.24.1-.42.26-.55.46-.13.2-.2.42-.2.67,0,.38.14.69.43.94s.7.38,1.25.38,1.02-.12,1.45-.36c.42-.24.73-.56.93-.97.15-.32.23-.79.23-1.41v-.52Z"/>
    <path class="cls-2" d="M320.84,268.61h-1.3v-11.45h1.41v4.09c.59-.74,1.35-1.12,2.27-1.12.51,0,.99.1,1.45.31.46.21.83.5,1.12.87.29.37.52.82.69,1.35.17.53.25,1.09.25,1.69,0,1.42-.35,2.52-1.05,3.3-.7.78-1.55,1.16-2.53,1.16s-1.75-.41-2.3-1.23v1.04ZM320.83,264.4c0,1,.14,1.71.41,2.16.44.72,1.04,1.09,1.8,1.09.61,0,1.15-.27,1.59-.8.45-.53.67-1.33.67-2.39s-.21-1.88-.64-2.4-.95-.77-1.56-.77-1.15.27-1.59.8c-.45.53-.67,1.31-.67,2.32Z"/>
    <path class="cls-2" d="M334.12,265.94l1.45.18c-.23.85-.65,1.51-1.27,1.98s-1.41.7-2.38.7c-1.21,0-2.18-.37-2.89-1.12-.71-.75-1.07-1.79-1.07-3.14s.36-2.48,1.08-3.25c.72-.77,1.65-1.16,2.8-1.16s2.02.38,2.72,1.13c.7.76,1.05,1.82,1.05,3.19,0,.08,0,.21,0,.38h-6.19c.05.91.31,1.61.77,2.09s1.04.73,1.73.73c.52,0,.96-.13,1.32-.41.36-.27.65-.7.87-1.3ZM329.51,263.67h4.63c-.06-.7-.24-1.22-.53-1.57-.45-.54-1.03-.81-1.74-.81-.65,0-1.19.22-1.63.65-.44.43-.68,1.01-.73,1.73Z"/>
    <path class="cls-2" d="M337.34,268.61v-8.3h1.27v1.18c.61-.91,1.49-1.37,2.64-1.37.5,0,.96.09,1.38.27s.73.42.94.71c.21.29.35.64.44,1.04.05.26.08.72.08,1.37v5.1h-1.41v-5.05c0-.57-.05-1-.16-1.29-.11-.28-.3-.51-.58-.68-.28-.17-.61-.25-.98-.25-.6,0-1.12.19-1.55.57-.43.38-.65,1.1-.65,2.16v4.53h-1.41Z"/>
    <path class="cls-2" d="M351.92,265.94l1.45.18c-.23.85-.65,1.51-1.27,1.98s-1.41.7-2.38.7c-1.21,0-2.18-.37-2.89-1.12-.71-.75-1.07-1.79-1.07-3.14s.36-2.48,1.08-3.25c.72-.77,1.65-1.16,2.8-1.16s2.02.38,2.72,1.13c.7.76,1.05,1.82,1.05,3.19,0,.08,0,.21,0,.38h-6.19c.05.91.31,1.61.77,2.09s1.04.73,1.73.73c.52,0,.96-.13,1.32-.41.36-.27.65-.7.87-1.3ZM347.3,263.67h4.63c-.06-.7-.24-1.22-.53-1.57-.45-.54-1.03-.81-1.74-.81-.65,0-1.19.22-1.63.65-.44.43-.68,1.01-.73,1.73Z"/>
    <path class="cls-2" d="M355.47,268.61v-7.2h-1.24v-1.09h1.24v-.88c0-.56.05-.97.15-1.24.14-.36.37-.66.71-.89s.82-.34,1.43-.34c.4,0,.83.05,1.31.14l-.21,1.23c-.29-.05-.57-.08-.83-.08-.43,0-.73.09-.91.27-.18.18-.27.52-.27,1.02v.77h1.62v1.09h-1.62v7.2h-1.4Z"/>
    <path class="cls-2" d="M359.59,258.78v-1.62h1.41v1.62h-1.41ZM359.59,268.61v-8.3h1.41v8.3h-1.41Z"/>
    <path class="cls-2" d="M366.21,267.36l.2,1.24c-.4.08-.75.12-1.06.12-.51,0-.91-.08-1.19-.24s-.48-.37-.59-.64c-.11-.26-.17-.82-.17-1.66v-4.77h-1.03v-1.09h1.03v-2.05l1.4-.84v2.9h1.41v1.09h-1.41v4.85c0,.4.02.66.07.77.05.12.13.21.24.27.11.07.27.1.48.1.16,0,.36-.02.62-.05Z"/>
  </g>
  <g>
    <line class="cls-7" x1="342.53" y1="282.01" x2="342.53" y2="352.27"/>
    <path class="cls-8" d="M338.77,352.27c0,2.08,1.68,3.76,3.76,3.76s3.76-1.68,3.76-3.76-1.68-3.76-3.76-3.76-3.76,1.68-3.76,3.76Z"/>
  </g>
  <g>
    <path class="cls-2" d="M423.96,118.92l1.37-.19c.04.88.2,1.47.49,1.8.29.32.7.48,1.21.48.38,0,.71-.09.98-.26.28-.17.47-.41.57-.71.1-.3.16-.78.16-1.43v-7.89h1.52v7.8c0,.96-.12,1.7-.35,2.23-.23.53-.6.93-1.1,1.2-.5.28-1.09.41-1.77.41-1,0-1.77-.29-2.31-.87s-.79-1.44-.77-2.58Z"/>
    <path class="cls-2" d="M432.04,118.02c0-1.54.43-2.67,1.28-3.41.71-.61,1.58-.92,2.61-.92,1.14,0,2.07.37,2.8,1.12.72.75,1.09,1.78,1.09,3.1,0,1.07-.16,1.91-.48,2.52-.32.61-.79,1.09-1.4,1.43-.61.34-1.28.51-2,.51-1.16,0-2.1-.37-2.82-1.12-.72-.74-1.07-1.82-1.07-3.22ZM433.48,118.02c0,1.06.23,1.86.7,2.39.46.53,1.05.79,1.75.79s1.28-.27,1.74-.8.7-1.34.7-2.43c0-1.03-.23-1.8-.7-2.33-.47-.53-1.05-.79-1.74-.79s-1.29.26-1.75.79c-.46.53-.7,1.32-.7,2.38Z"/>
    <path class="cls-2" d="M441.46,112.33v-1.62h1.41v1.62h-1.41ZM441.46,122.17v-8.3h1.41v8.3h-1.41Z"/>
    <path class="cls-2" d="M445.01,122.17v-8.3h1.27v1.18c.61-.91,1.49-1.37,2.64-1.37.5,0,.96.09,1.38.27s.73.42.94.71c.21.29.35.64.44,1.04.05.26.08.72.08,1.37v5.1h-1.41v-5.05c0-.57-.05-1-.16-1.29-.11-.28-.3-.51-.58-.68-.28-.17-.61-.25-.98-.25-.6,0-1.12.19-1.55.57-.43.38-.65,1.1-.65,2.16v4.53h-1.41Z"/>
    <path class="cls-2" d="M459.89,122.17l-2.54-8.3h1.45l1.32,4.79.49,1.78c.02-.09.16-.66.43-1.71l1.32-4.86h1.45l1.24,4.81.41,1.59.48-1.6,1.42-4.8h1.37l-2.59,8.3h-1.46l-1.32-4.97-.32-1.41-1.68,6.38h-1.47Z"/>
    <path class="cls-2" d="M469.91,122.17v-11.45h1.41v4.11c.66-.76,1.48-1.14,2.48-1.14.61,0,1.15.12,1.6.36s.78.58.97,1c.2.43.29,1.05.29,1.86v5.26h-1.41v-5.26c0-.7-.15-1.21-.46-1.54s-.74-.48-1.29-.48c-.42,0-.81.11-1.18.32-.37.22-.63.51-.79.88-.16.37-.23.88-.23,1.53v4.54h-1.41Z"/>
    <path class="cls-2" d="M484.49,119.49l1.45.18c-.23.85-.65,1.51-1.27,1.98s-1.41.7-2.38.7c-1.21,0-2.18-.37-2.89-1.12-.71-.75-1.07-1.79-1.07-3.14s.36-2.48,1.08-3.25c.72-.77,1.65-1.16,2.8-1.16s2.02.38,2.72,1.13c.7.76,1.05,1.82,1.05,3.19,0,.08,0,.21,0,.38h-6.19c.05.91.31,1.61.77,2.09s1.04.73,1.73.73c.52,0,.96-.13,1.32-.41.36-.27.65-.7.87-1.3ZM479.87,117.22h4.63c-.06-.7-.24-1.22-.53-1.57-.45-.54-1.03-.81-1.74-.81-.65,0-1.19.22-1.63.65-.44.43-.68,1.01-.73,1.73Z"/>
    <path class="cls-2" d="M487.71,122.17v-8.3h1.27v1.18c.61-.91,1.49-1.37,2.64-1.37.5,0,.96.09,1.38.27s.73.42.94.71c.21.29.35.64.44,1.04.05.26.08.72.08,1.37v5.1h-1.41v-5.05c0-.57-.05-1-.16-1.29-.11-.28-.3-.51-.58-.68-.28-.17-.61-.25-.98-.25-.6,0-1.12.19-1.55.57-.43.38-.65,1.1-.65,2.16v4.53h-1.41Z"/>
    <path class="cls-2" d="M430.75,140.11l.2,1.24c-.4.08-.75.12-1.06.12-.51,0-.91-.08-1.19-.24s-.48-.37-.59-.64c-.11-.26-.17-.82-.17-1.66v-4.77h-1.03v-1.09h1.03v-2.05l1.4-.84v2.9h1.41v1.09h-1.41v4.85c0,.4.02.66.07.77.05.12.13.21.24.27.11.07.27.1.48.1.16,0,.36-.02.62-.05Z"/>
    <path class="cls-2" d="M432.12,141.37v-11.45h1.41v4.11c.66-.76,1.48-1.14,2.48-1.14.61,0,1.15.12,1.6.36s.78.58.97,1c.2.43.29,1.05.29,1.86v5.26h-1.41v-5.26c0-.7-.15-1.21-.46-1.54s-.74-.48-1.29-.48c-.42,0-.81.11-1.18.32-.37.22-.63.51-.79.88-.16.37-.23.88-.23,1.53v4.54h-1.41Z"/>
    <path class="cls-2" d="M446.7,138.7l1.45.18c-.23.85-.65,1.51-1.27,1.98s-1.41.7-2.38.7c-1.21,0-2.18-.37-2.89-1.12-.71-.75-1.07-1.79-1.07-3.14s.36-2.48,1.08-3.25c.72-.77,1.65-1.16,2.8-1.16s2.02.38,2.72,1.13c.7.76,1.05,1.82,1.05,3.19,0,.08,0,.21,0,.38h-6.19c.05.91.31,1.61.77,2.09s1.04.73,1.73.73c.52,0,.96-.13,1.32-.41.36-.27.65-.7.87-1.3ZM442.08,136.42h4.63c-.06-.7-.24-1.22-.53-1.57-.45-.54-1.03-.81-1.74-.81-.65,0-1.19.22-1.63.65-.44.43-.68,1.01-.73,1.73Z"/>
    <path class="cls-2" d="M449.9,141.37v-8.3h1.27v1.26c.32-.59.62-.98.89-1.16s.57-.28.9-.28c.47,0,.96.15,1.45.45l-.48,1.3c-.34-.2-.69-.3-1.03-.3-.31,0-.58.09-.83.28-.25.19-.42.44-.52.77-.16.5-.23,1.05-.23,1.64v4.34h-1.41Z"/>
    <path class="cls-2" d="M460.93,138.7l1.45.18c-.23.85-.65,1.51-1.27,1.98s-1.41.7-2.38.7c-1.21,0-2.18-.37-2.89-1.12-.71-.75-1.07-1.79-1.07-3.14s.36-2.48,1.08-3.25c.72-.77,1.65-1.16,2.8-1.16s2.02.38,2.72,1.13c.7.76,1.05,1.82,1.05,3.19,0,.08,0,.21,0,.38h-6.19c.05.91.31,1.61.77,2.09s1.04.73,1.73.73c.52,0,.96-.13,1.32-.41.36-.27.65-.7.87-1.3ZM456.31,136.42h4.63c-.06-.7-.24-1.22-.53-1.57-.45-.54-1.03-.81-1.74-.81-.65,0-1.19.22-1.63.65-.44.43-.68,1.01-.73,1.73Z"/>
    <path class="cls-2" d="M468.6,131.53v-1.62h1.41v1.62h-1.41ZM468.6,141.37v-8.3h1.41v8.3h-1.41Z"/>
    <path class="cls-2" d="M471.58,138.89l1.39-.22c.08.56.3.98.65,1.28s.86.45,1.5.45,1.12-.13,1.44-.39c.31-.26.47-.57.47-.93,0-.32-.14-.57-.41-.75-.19-.12-.67-.28-1.44-.48-1.03-.26-1.75-.49-2.14-.68-.4-.19-.7-.45-.91-.79s-.31-.71-.31-1.11c0-.37.08-.71.25-1.03.17-.31.4-.58.69-.79.22-.16.52-.3.89-.41.38-.11.78-.17,1.21-.17.65,0,1.22.09,1.71.28s.86.44,1.09.76.4.75.48,1.29l-1.38.19c-.06-.43-.24-.76-.54-1-.3-.24-.72-.36-1.27-.36-.65,0-1.11.11-1.38.32-.28.21-.41.46-.41.75,0,.18.06.35.17.49.11.15.29.28.54.38.14.05.55.17,1.24.36,1,.27,1.69.48,2.08.65.39.17.7.42.93.74.22.32.34.72.34,1.2s-.14.91-.41,1.32-.67.73-1.18.96-1.1.34-1.75.34c-1.08,0-1.9-.22-2.46-.67-.57-.45-.93-1.11-1.08-1.99Z"/>
    <path class="cls-2" d="M490,140.34c-.52.44-1.02.76-1.5.94-.48.18-1,.27-1.55.27-.91,0-1.61-.22-2.1-.67s-.73-1.01-.73-1.71c0-.41.09-.78.28-1.11s.43-.61.73-.81.64-.36,1.01-.46c.28-.07.69-.14,1.25-.21,1.14-.13,1.97-.3,2.51-.48,0-.19,0-.31,0-.37,0-.57-.13-.98-.4-1.21-.36-.32-.89-.48-1.6-.48-.66,0-1.15.12-1.46.35-.32.23-.55.64-.7,1.23l-1.38-.19c.12-.59.33-1.06.62-1.43.29-.36.7-.64,1.24-.84s1.17-.29,1.88-.29,1.28.08,1.73.25c.44.17.77.38.98.63.21.25.35.57.44.96.05.24.07.67.07,1.3v1.88c0,1.31.03,2.13.09,2.48.06.35.18.68.36,1h-1.47c-.15-.29-.24-.63-.28-1.02ZM489.89,137.2c-.51.21-1.28.39-2.3.53-.58.08-.99.18-1.23.28-.24.1-.42.26-.55.46-.13.2-.2.42-.2.67,0,.38.14.69.43.94s.7.38,1.25.38,1.02-.12,1.45-.36c.42-.24.73-.56.93-.97.15-.32.23-.79.23-1.41v-.52Z"/>
    <path class="cls-2" d="M420.12,163.75v-11.48h1.28v1.08c.3-.42.64-.74,1.02-.95s.84-.32,1.38-.32c.71,0,1.33.18,1.88.55s.95.88,1.23,1.54.41,1.39.41,2.18c0,.85-.15,1.61-.46,2.29s-.75,1.2-1.33,1.56c-.58.36-1.19.54-1.83.54-.47,0-.89-.1-1.26-.3-.37-.2-.68-.45-.92-.75v4.04h-1.41ZM421.39,156.47c0,1.07.22,1.86.65,2.37s.96.77,1.57.77,1.16-.26,1.61-.79.67-1.35.67-2.46-.22-1.85-.65-2.38-.95-.79-1.56-.79-1.13.28-1.59.84-.69,1.37-.69,2.44Z"/>
    <path class="cls-2" d="M429,160.57v-8.3h1.27v1.26c.32-.59.62-.98.89-1.16s.57-.28.9-.28c.47,0,.96.15,1.45.45l-.48,1.3c-.34-.2-.69-.3-1.03-.3-.31,0-.58.09-.83.28s-.42.44-.52.77c-.16.5-.23,1.05-.23,1.64v4.34h-1.41Z"/>
    <path class="cls-2" d="M433.82,156.42c0-1.54.43-2.67,1.28-3.41.71-.61,1.58-.92,2.61-.92,1.14,0,2.07.37,2.8,1.12s1.09,1.78,1.09,3.1c0,1.07-.16,1.91-.48,2.52s-.79,1.09-1.4,1.43c-.61.34-1.28.51-2,.51-1.16,0-2.1-.37-2.82-1.12s-1.07-1.82-1.07-3.22ZM435.27,156.42c0,1.06.23,1.86.7,2.39s1.05.79,1.75.79,1.28-.27,1.74-.8.7-1.34.7-2.43c0-1.03-.23-1.8-.7-2.33s-1.05-.79-1.74-.79-1.29.26-1.75.79-.7,1.32-.7,2.38Z"/>
    <path class="cls-2" d="M448.63,160.57v-1.05c-.53.82-1.3,1.23-2.32,1.23-.66,0-1.27-.18-1.82-.55s-.98-.87-1.29-1.53-.46-1.41-.46-2.25.14-1.58.41-2.25.69-1.19,1.24-1.55,1.17-.54,1.85-.54c.5,0,.95.11,1.34.32s.71.49.95.82v-4.11h1.4v11.45h-1.3ZM444.18,156.43c0,1.06.22,1.86.67,2.38s.98.79,1.59.79,1.14-.25,1.57-.75.64-1.27.64-2.3c0-1.14-.22-1.97-.66-2.5s-.98-.8-1.62-.8-1.15.25-1.57.77-.63,1.32-.63,2.41Z"/>
    <path class="cls-2" d="M457.58,160.57v-1.22c-.65.94-1.52,1.41-2.63,1.41-.49,0-.95-.09-1.37-.28s-.74-.42-.95-.71-.35-.63-.43-1.04c-.06-.28-.09-.71-.09-1.31v-5.14h1.41v4.6c0,.73.03,1.23.09,1.48.09.37.28.66.56.87s.64.32,1.06.32.82-.11,1.19-.32.63-.51.79-.88.23-.91.23-1.62v-4.45h1.41v8.3h-1.26Z"/>
    <path class="cls-2" d="M466.46,157.53l1.38.18c-.15.95-.54,1.7-1.16,2.24s-1.39.81-2.29.81c-1.14,0-2.05-.37-2.74-1.11s-1.04-1.81-1.04-3.19c0-.9.15-1.68.45-2.35s.75-1.18,1.36-1.51,1.27-.5,1.98-.5c.9,0,1.64.23,2.21.68s.94,1.1,1.1,1.94l-1.37.21c-.13-.56-.36-.98-.69-1.26s-.73-.42-1.2-.42c-.71,0-1.28.25-1.73.76s-.66,1.31-.66,2.41.21,1.92.64,2.43.98.76,1.67.76c.55,0,1.01-.17,1.38-.51s.6-.86.7-1.56Z"/>
    <path class="cls-2" d="M472.11,159.31l.2,1.24c-.4.08-.75.12-1.06.12-.51,0-.91-.08-1.19-.24s-.48-.37-.59-.64-.17-.82-.17-1.66v-4.77h-1.03v-1.09h1.03v-2.05l1.4-.84v2.9h1.41v1.09h-1.41v4.85c0,.4.02.66.07.77s.13.21.24.27.27.1.48.1c.16,0,.36-.02.62-.05Z"/>
    <path class="cls-2" d="M473.5,150.73v-1.62h1.41v1.62h-1.41ZM473.5,160.57v-8.3h1.41v8.3h-1.41Z"/>
    <path class="cls-2" d="M479.35,160.57l-3.16-8.3h1.48l1.78,4.97c.19.54.37,1.09.53,1.67.12-.44.3-.96.52-1.58l1.84-5.06h1.45l-3.14,8.3h-1.31Z"/>
    <path class="cls-2" d="M485.05,150.73v-1.62h1.41v1.62h-1.41ZM485.05,160.57v-8.3h1.41v8.3h-1.41Z"/>
    <path class="cls-2" d="M491.67,159.31l.2,1.24c-.4.08-.75.12-1.06.12-.51,0-.91-.08-1.19-.24s-.48-.37-.59-.64-.17-.82-.17-1.66v-4.77h-1.03v-1.09h1.03v-2.05l1.4-.84v2.9h1.41v1.09h-1.41v4.85c0,.4.02.66.07.77s.13.21.24.27.27.1.48.1c.16,0,.36-.02.62-.05Z"/>
    <path class="cls-2" d="M492.98,163.76l-.16-1.32c.31.08.58.12.8.12.31,0,.56-.05.75-.16.19-.1.34-.25.46-.44.09-.14.23-.49.43-1.05.03-.08.07-.19.12-.34l-3.15-8.31h1.52l1.73,4.8c.22.61.42,1.25.6,1.92.16-.65.35-1.28.58-1.89l1.77-4.84h1.41l-3.16,8.44c-.34.91-.6,1.54-.79,1.88-.25.46-.54.8-.86,1.02-.32.22-.71.32-1.16.32-.27,0-.57-.06-.91-.17Z"/>
    <path class="cls-2" d="M445.2,180.45l1.37.2c.06.42.22.73.48.92.35.26.83.39,1.43.39.65,0,1.15-.13,1.51-.39.35-.26.59-.62.72-1.09.07-.29.11-.89.1-1.8-.61.72-1.38,1.09-2.3,1.09-1.14,0-2.02-.41-2.65-1.23s-.94-1.81-.94-2.96c0-.79.14-1.52.43-2.19s.7-1.19,1.25-1.55,1.18-.55,1.92-.55c.98,0,1.79.4,2.42,1.19v-1h1.3v7.17c0,1.29-.13,2.21-.39,2.75s-.68.96-1.25,1.28-1.27.47-2.11.47c-.99,0-1.79-.22-2.4-.67s-.9-1.12-.88-2.01ZM446.36,175.47c0,1.09.22,1.88.65,2.38s.97.75,1.62.75,1.19-.25,1.62-.75.66-1.28.66-2.34-.23-1.78-.68-2.3-.99-.77-1.63-.77-1.16.25-1.59.76-.66,1.26-.66,2.26Z"/>
    <path class="cls-2" d="M459.77,178.74c-.52.44-1.02.75-1.5.94-.48.18-1,.27-1.55.27-.91,0-1.61-.22-2.1-.67s-.73-1.01-.73-1.71c0-.41.09-.78.28-1.11s.43-.61.73-.81.64-.36,1.01-.46c.28-.07.69-.14,1.25-.21,1.14-.14,1.97-.3,2.51-.48,0-.19,0-.32,0-.37,0-.57-.13-.98-.4-1.21-.36-.32-.89-.48-1.6-.48-.66,0-1.15.12-1.46.35s-.55.64-.7,1.23l-1.38-.19c.12-.59.33-1.06.62-1.43s.7-.64,1.24-.84,1.17-.29,1.88-.29,1.28.08,1.73.25.77.38.98.63.35.57.44.96c.05.24.07.67.07,1.3v1.88c0,1.31.03,2.13.09,2.48s.18.68.36,1h-1.47c-.15-.29-.24-.63-.28-1.02ZM459.65,175.6c-.51.21-1.28.39-2.3.53-.58.08-.99.18-1.23.28s-.42.26-.55.46-.2.42-.2.67c0,.38.14.69.43.94s.7.38,1.25.38,1.02-.12,1.45-.36.73-.56.93-.97c.15-.32.23-.79.23-1.41v-.52Z"/>
    <path class="cls-2" d="M463.26,169.93v-1.62h1.41v1.62h-1.41ZM463.26,179.77v-8.3h1.41v8.3h-1.41Z"/>
    <path class="cls-2" d="M466.81,179.77v-8.3h1.27v1.18c.61-.91,1.49-1.37,2.64-1.37.5,0,.96.09,1.38.27s.73.42.94.71.35.64.44,1.04c.05.26.08.72.08,1.37v5.1h-1.41v-5.05c0-.57-.05-1-.16-1.29s-.3-.51-.58-.68-.61-.25-.98-.25c-.6,0-1.12.19-1.55.57s-.65,1.1-.65,2.16v4.53h-1.41Z"/>
  </g>
  <g>
    <line class="cls-7" x1="459.54" y1="193.17" x2="459.54" y2="263.43"/>
    <path class="cls-8" d="M455.78,263.43c0,2.08,1.68,3.76,3.76,3.76s3.76-1.68,3.76-3.76-1.68-3.76-3.76-3.76-3.76,1.68-3.76,3.76Z"/>
  </g>
</svg>