<?xml version="1.0" encoding="UTF-8"?>
<svg id="Ebene_1" data-name="Ebene 1" xmlns="http://www.w3.org/2000/svg" viewBox="0 0 988 525">
  <defs>
    <style>
      .cls-1 {
        letter-spacing: 0em;
      }

      .cls-2 {
        letter-spacing: 0em;
      }

      .cls-3 {
        letter-spacing: .01em;
      }

      .cls-4 {
        letter-spacing: 0em;
      }

      .cls-5 {
        letter-spacing: 0em;
      }

      .cls-6 {
        letter-spacing: -.01em;
      }

      .cls-7 {
        letter-spacing: 0em;
      }

      .cls-8 {
        letter-spacing: 0em;
      }

      .cls-9 {
        letter-spacing: 0em;
      }

      .cls-10 {
        letter-spacing: .01em;
      }

      .cls-11 {
        letter-spacing: -.01em;
      }

      .cls-12 {
        letter-spacing: 0em;
      }

      .cls-13 {
        letter-spacing: 0em;
      }

      .cls-14 {
        letter-spacing: -.01em;
      }

      .cls-15 {
        letter-spacing: 0em;
      }

      .cls-16 {
        letter-spacing: -.02em;
      }

      .cls-17 {
        letter-spacing: 0em;
      }

      .cls-18 {
        letter-spacing: 0em;
      }

      .cls-19 {
        letter-spacing: 0em;
      }

      .cls-20 {
        letter-spacing: 0em;
      }

      .cls-21 {
        letter-spacing: -.02em;
      }

      .cls-22 {
        letter-spacing: 0em;
      }

      .cls-23 {
        letter-spacing: 0em;
      }

      .cls-24 {
        letter-spacing: 0em;
      }

      .cls-25 {
        letter-spacing: -.02em;
      }

      .cls-26 {
        letter-spacing: 0em;
      }

      .cls-27 {
        letter-spacing: 0em;
      }

      .cls-28 {
        font-size: 20px;
      }

      .cls-28, .cls-29 {
        fill: #1d1d1b;
        font-family: ArialMT, Arial;
      }

      .cls-30 {
        letter-spacing: 0em;
      }

      .cls-31 {
        letter-spacing: 0em;
      }

      .cls-32 {
        letter-spacing: 0em;
      }

      .cls-33 {
        letter-spacing: 0em;
      }

      .cls-34 {
        letter-spacing: 0em;
      }

      .cls-35 {
        letter-spacing: 0em;
      }

      .cls-36 {
        letter-spacing: 0em;
      }

      .cls-37 {
        letter-spacing: 0em;
      }

      .cls-38 {
        letter-spacing: .02em;
      }

      .cls-29 {
        font-size: 12px;
      }

      .cls-39 {
        letter-spacing: 0em;
      }

      .cls-40 {
        letter-spacing: 0em;
      }

      .cls-41 {
        letter-spacing: -.02em;
      }

      .cls-42 {
        letter-spacing: 0em;
      }

      .cls-43 {
        letter-spacing: 0em;
      }

      .cls-44 {
        letter-spacing: .02em;
      }

      .cls-45 {
        letter-spacing: 0em;
      }

      .cls-46 {
        letter-spacing: -.02em;
      }

      .cls-47 {
        letter-spacing: 0em;
      }

      .cls-48 {
        letter-spacing: 0em;
      }

      .cls-49 {
        letter-spacing: 0em;
      }

      .cls-50 {
        fill: none;
        stroke: #1d1d1b;
        stroke-miterlimit: 10;
      }

      .cls-51 {
        letter-spacing: 0em;
      }

      .cls-52 {
        letter-spacing: 0em;
      }

      .cls-53 {
        letter-spacing: 0em;
      }

      .cls-54 {
        letter-spacing: 0em;
      }

      .cls-55 {
        letter-spacing: .04em;
      }

      .cls-56 {
        letter-spacing: .02em;
      }

      .cls-57 {
        letter-spacing: 0em;
      }

      .cls-58 {
        letter-spacing: .03em;
      }

      .cls-59 {
        letter-spacing: 0em;
      }

      .cls-60 {
        letter-spacing: 0em;
      }

      .cls-61 {
        letter-spacing: 0em;
      }

      .cls-62 {
        letter-spacing: 0em;
      }

      .cls-63 {
        letter-spacing: 0em;
      }

      .cls-64 {
        letter-spacing: 0em;
      }

      .cls-65 {
        letter-spacing: 0em;
      }

      .cls-66 {
        letter-spacing: 0em;
      }

      .cls-67 {
        letter-spacing: 0em;
      }

      .cls-68 {
        letter-spacing: 0em;
      }

      .cls-69 {
        letter-spacing: 0em;
      }

      .cls-70 {
        letter-spacing: .01em;
      }

      .cls-71 {
        letter-spacing: 0em;
      }

      .cls-72 {
        letter-spacing: 0em;
      }

      .cls-73 {
        letter-spacing: 0em;
      }

      .cls-74 {
        letter-spacing: 0em;
      }

      .cls-75 {
        letter-spacing: 0em;
      }

      .cls-76 {
        letter-spacing: -.01em;
      }

      .cls-77 {
        letter-spacing: 0em;
      }

      .cls-78 {
        letter-spacing: -.03em;
      }
    </style>
  </defs>
  <g>
    <rect class="cls-50" x="48.86" y="32.5" width="400" height="60"/>
    <text class="cls-28" transform="translate(154.37 69.09)"><tspan class="cls-41" x="0" y="0">P</tspan><tspan class="cls-24" x="13.02" y="0">r</tspan><tspan class="cls-1" x="19.55" y="0">o</tspan><tspan class="cls-42" x="30.56" y="0">bl</tspan><tspan class="cls-73" x="45.85" y="0">e</tspan><tspan x="56.81" y="0">m </tspan><tspan class="cls-60" x="79.02" y="0">i</tspan><tspan class="cls-7" x="83.37" y="0">d</tspan><tspan class="cls-72" x="94.31" y="0">e</tspan><tspan class="cls-21" x="105.27" y="0">n</tspan><tspan class="cls-34" x="116.04" y="0">t</tspan><tspan class="cls-33" x="121.51" y="0">i</tspan><tspan class="cls-38" x="125.83" y="0">f</tspan><tspan class="cls-20" x="131.72" y="0">i</tspan><tspan class="cls-31" x="136.02" y="0">c</tspan><tspan class="cls-46" x="146.21" y="0">a</tspan><tspan class="cls-34" x="157.02" y="0">t</tspan><tspan class="cls-67" x="162.49" y="0">i</tspan><tspan class="cls-1" x="166.85" y="0">o</tspan><tspan x="177.86" y="0">n</tspan></text>
  </g>
  <g>
    <rect class="cls-50" x="48.86" y="112.5" width="400" height="60"/>
    <text class="cls-28" transform="translate(137.83 149.09)"><tspan class="cls-14" x="0" y="0">H</tspan><tspan class="cls-8" x="14.24" y="0">y</tspan><tspan class="cls-47" x="24.15" y="0">p</tspan><tspan class="cls-46" x="35.19" y="0">o</tspan><tspan class="cls-39" x="46" y="0">t</tspan><tspan class="cls-61" x="51.48" y="0">h</tspan><tspan class="cls-69" x="62.44" y="0">e</tspan><tspan class="cls-49" x="73.47" y="0">s</tspan><tspan class="cls-69" x="83.31" y="0">e</tspan><tspan x="94.33" y="0">s </tspan><tspan class="cls-7" x="109.89" y="0">d</tspan><tspan class="cls-78" x="120.82" y="0">e</tspan><tspan class="cls-25" x="131.42" y="0">v</tspan><tspan class="cls-33" x="140.94" y="0">e</tspan><tspan class="cls-2" x="151.94" y="0">lo</tspan><tspan class="cls-43" x="167.28" y="0">p</tspan><tspan class="cls-22" x="178.26" y="0">m</tspan><tspan class="cls-73" x="194.79" y="0">e</tspan><tspan class="cls-21" x="205.75" y="0">n</tspan><tspan x="216.52" y="0">t</tspan></text>
  </g>
  <text class="cls-29" transform="translate(491.7 69.09)"><tspan class="cls-48" x="0" y="0">P</tspan><tspan class="cls-52" x="7.96" y="0">r</tspan><tspan class="cls-26" x="12.02" y="0">a</tspan><tspan class="cls-70" x="18.68" y="0">c</tspan><tspan class="cls-59" x="24.83" y="0">t</tspan><tspan class="cls-75" x="28.25" y="0">i</tspan><tspan class="cls-56" x="30.97" y="0">c</tspan><tspan class="cls-63" x="37.22" y="0">a</tspan><tspan class="cls-53" x="43.91" y="0">l </tspan><tspan class="cls-65" x="50.13" y="0">m</tspan><tspan class="cls-39" x="60.2" y="0">o</tspan><tspan class="cls-59" x="66.83" y="0">t</tspan><tspan class="cls-19" x="70.25" y="0">i</tspan><tspan class="cls-6" x="72.96" y="0">v</tspan><tspan class="cls-39" x="78.84" y="0">a</tspan><tspan class="cls-59" x="85.47" y="0">ti</tspan><tspan class="cls-52" x="91.64" y="0">o</tspan><tspan class="cls-4" x="98.39" y="0">n</tspan><tspan class="cls-30" x="104.99" y="0">, </tspan><tspan class="cls-77" x="111.87" y="0">r</tspan><tspan class="cls-9" x="115.9" y="0">e</tspan><tspan class="cls-57" x="122.65" y="0">se</tspan><tspan class="cls-63" x="135.41" y="0">a</tspan><tspan class="cls-77" x="142.11" y="0">r</tspan><tspan class="cls-10" x="146.13" y="0">c</tspan><tspan class="cls-53" x="152.28" y="0">h </tspan><tspan class="cls-18" x="162.51" y="0">g</tspan><tspan class="cls-27" x="169.23" y="0">a</tspan><tspan class="cls-53" x="175.92" y="0">p </tspan><tspan class="cls-27" x="186.14" y="0">a</tspan><tspan class="cls-66" x="192.83" y="0">n</tspan><tspan class="cls-53" x="199.55" y="0">d </tspan><tspan class="cls-77" x="209.78" y="0">r</tspan><tspan class="cls-9" x="213.8" y="0">e</tspan><tspan class="cls-57" x="220.56" y="0">se</tspan><tspan class="cls-63" x="233.31" y="0">a</tspan><tspan class="cls-77" x="240.01" y="0">r</tspan><tspan class="cls-10" x="244.04" y="0">c</tspan><tspan class="cls-53" x="250.19" y="0">h </tspan><tspan class="cls-51" x="260.41" y="0">q</tspan><tspan class="cls-35" x="267.09" y="0">u</tspan><tspan class="cls-9" x="273.8" y="0">e</tspan><tspan class="cls-36" x="280.55" y="0">s</tspan><tspan class="cls-59" x="286.53" y="0">ti</tspan><tspan class="cls-52" x="292.7" y="0">o</tspan><tspan class="cls-53" x="299.45" y="0">n</tspan></text>
  <text class="cls-29" transform="translate(491.7 149.09)"><tspan class="cls-53" x="0" y="0">D</tspan><tspan class="cls-54" x="8.77" y="0">e</tspan><tspan class="cls-58" x="15.38" y="0">f</tspan><tspan class="cls-32" x="19.05" y="0">i</tspan><tspan class="cls-12" x="21.74" y="0">n</tspan><tspan class="cls-27" x="28.41" y="0">i</tspan><tspan class="cls-5" x="31.1" y="0">n</tspan><tspan class="cls-53" x="37.81" y="0">g </tspan><tspan class="cls-68" x="48.03" y="0">t</tspan><tspan class="cls-15" x="51.46" y="0">h</tspan><tspan class="cls-53" x="58.17" y="0">e </tspan><tspan class="cls-77" x="68.4" y="0">r</tspan><tspan class="cls-9" x="72.42" y="0">e</tspan><tspan class="cls-57" x="79.17" y="0">se</tspan><tspan class="cls-63" x="91.93" y="0">a</tspan><tspan class="cls-77" x="98.63" y="0">r</tspan><tspan class="cls-10" x="102.66" y="0">c</tspan><tspan class="cls-30" x="108.81" y="0">h </tspan><tspan class="cls-64" x="119.03" y="0">m</tspan><tspan class="cls-45" x="129.1" y="0">o</tspan><tspan class="cls-77" x="135.88" y="0">d</tspan><tspan class="cls-13" x="142.58" y="0">e</tspan><tspan class="cls-53" x="149.32" y="0">l </tspan><tspan class="cls-37" x="155.54" y="0">ba</tspan><tspan class="cls-57" x="168.91" y="0">s</tspan><tspan class="cls-52" x="174.95" y="0">e</tspan><tspan class="cls-53" x="181.69" y="0">d </tspan><tspan class="cls-52" x="191.92" y="0">o</tspan><tspan class="cls-53" x="198.66" y="0">n </tspan><tspan class="cls-16" x="208.89" y="0">e</tspan><tspan class="cls-17" x="215.35" y="0">x</tspan><tspan class="cls-74" x="221.43" y="0">i</tspan><tspan class="cls-36" x="224.15" y="0">s</tspan><tspan class="cls-59" x="230.13" y="0">t</tspan><tspan class="cls-27" x="233.55" y="0">i</tspan><tspan class="cls-5" x="236.24" y="0">n</tspan><tspan class="cls-53" x="242.95" y="0">g </tspan><tspan class="cls-68" x="253.17" y="0">t</tspan><tspan class="cls-15" x="256.6" y="0">h</tspan><tspan class="cls-62" x="263.31" y="0">eo</tspan><tspan class="cls-55" x="276.82" y="0">r</tspan><tspan class="cls-76" x="281.3" y="0">y</tspan><tspan class="cls-11" x="287.13" y="0">/</tspan><tspan class="cls-71" x="290.34" y="0">p</tspan><tspan class="cls-44" x="297.07" y="0">r</tspan><tspan class="cls-40" x="301.28" y="0">i</tspan><tspan class="cls-9" x="304.03" y="0">o</tspan><tspan class="cls-53" x="310.78" y="0">r </tspan><tspan class="cls-23" x="318.33" y="0">r</tspan><tspan class="cls-62" x="322.36" y="0">e</tspan><tspan class="cls-57" x="329.11" y="0">se</tspan><tspan class="cls-63" x="341.87" y="0">a</tspan><tspan class="cls-77" x="348.56" y="0">r</tspan><tspan class="cls-3" x="352.59" y="0">c</tspan><tspan class="cls-53" x="358.74" y="0">h</tspan></text>
</svg>