<?xml version="1.0" encoding="UTF-8"?><svg id="Ebene_1" xmlns="http://www.w3.org/2000/svg" viewBox="0 0 988 525"><text transform="translate(400.51 43.49)" style="font-family:CourierNewPS-BoldMT, &apos;Courier New&apos;; font-size:17.28px; font-weight:700; letter-spacing:0em;"><tspan x="0" y="0">Erlaubte UND-Verknüpfungen</tspan></text><text transform="translate(348.75 286.54)" style="font-family:CourierNewPS-BoldMT, &apos;Courier New&apos;; font-size:17.28px; font-weight:700; letter-spacing:0em;"><tspan x="0" y="0">Erlaubte ODER- und XOR-Verknüpfungen</tspan></text><g><g><rect x="37.65" y="318.82" width="213.17" height="158.02" style="fill:#fff;"/><g><rect x="114.98" y="354.47" width="58.95" height="23.4" rx="3.9" ry="3.9" style="fill:#fff; stroke:#000; stroke-miterlimit:8;"/><polygon points="170.55 429.85 180.59 418.37 219.01 418.37 229.05 429.85 219.01 441.32 180.59 441.32 170.55 429.85" style="fill:#fff; stroke:#000; stroke-miterlimit:8;"/><polygon points="60.3 429.85 70.34 418.37 108.76 418.37 118.8 429.85 108.76 441.32 70.34 441.32 60.3 429.85" style="fill:#fff; stroke:#000; stroke-miterlimit:8;"/><circle cx="144.45" cy="397.83" r="8.75" style="fill:#fff; stroke:#000; stroke-miterlimit:8;"/><path d="M150.21,391.75l-5.89,10.57c-3.16-5.56-6.06-10.88-6.06-10.88" style="fill:none; stroke:#000; stroke-miterlimit:8;"/><g><line x1="144.45" y1="377.87" x2="144.45" y2="385.49" style="fill:none; stroke:#000; stroke-miterlimit:8;"/><polygon points="141.96 384.76 144.45 389.08 146.95 384.76 141.96 384.76"/></g><g><polyline points="135.45 397.9 89.55 397.9 89.55 414.79" style="fill:none; stroke:#000; stroke-miterlimit:8;"/><polygon points="87.06 414.06 89.55 418.37 92.04 414.06 87.06 414.06"/></g><g><polyline points="153.2 397.9 199.8 397.9 199.8 414.79" style="fill:none; stroke:#000; stroke-miterlimit:8;"/><polygon points="197.31 414.06 199.8 418.37 202.29 414.06 197.31 414.06"/></g></g></g><g><rect x="503.79" y="318.82" width="213.17" height="158.02" style="fill:#fff;"/><g><rect x="580.67" y="415.14" width="58.95" height="23.4" rx="3.9" ry="3.9" style="fill:#fff; stroke:#000; stroke-miterlimit:8;"/><polygon points="636.25 363.53 646.29 352.06 684.71 352.06 694.75 363.53 684.71 375.01 646.29 375.01 636.25 363.53" style="fill:#fff; stroke:#000; stroke-miterlimit:8;"/><polygon points="526 363.53 536.04 352.06 574.46 352.06 584.5 363.53 574.46 375.01 536.04 375.01 526 363.53" style="fill:#fff; stroke:#000; stroke-miterlimit:8;"/><g><circle cx="610.15" cy="395.18" r="8.75" style="fill:#fff; stroke:#000; stroke-miterlimit:8;"/><path d="M615.91,389.11l-5.89,10.57c-3.16-5.56-6.06-10.88-6.06-10.88" style="fill:none; stroke:#000; stroke-miterlimit:8;"/></g><g><line x1="610.15" y1="403.93" x2="610.15" y2="411.55" style="fill:none; stroke:#000; stroke-miterlimit:8;"/><polygon points="607.65 410.82 610.15 415.14 612.64 410.82 607.65 410.82"/></g><g><polyline points="597.56 395.48 555.25 395.48 555.25 375.01" style="fill:none; stroke:#000; stroke-miterlimit:8;"/><polygon points="596.83 392.99 601.15 395.48 596.83 397.97 596.83 392.99"/></g><g><polyline points="622.49 395.48 665.5 395.48 665.5 375.01" style="fill:none; stroke:#000; stroke-miterlimit:8;"/><polygon points="623.22 397.97 618.9 395.48 623.22 392.99 623.22 397.97"/></g></g></g><g><rect x="737.17" y="318.82" width="213.17" height="158.02" style="fill:#fff;"/><g><polygon points="814.31 427.06 824.35 415.59 862.77 415.59 872.81 427.06 862.77 438.54 824.35 438.54 814.31 427.06" style="fill:#fff; stroke:#000; stroke-miterlimit:8;"/><rect x="758.96" y="352.06" width="58.95" height="23.4" rx="3.9" ry="3.9" style="fill:#fff; stroke:#000; stroke-miterlimit:8;"/><rect x="869.21" y="352.06" width="58.95" height="23.4" rx="3.9" ry="3.9" style="fill:#fff; stroke:#000; stroke-miterlimit:8;"/><g><circle cx="843.33" cy="395.41" r="8.75" style="fill:#fff; stroke:#000; stroke-miterlimit:8;"/><path d="M849.1,389.34l-5.89,10.57c-3.16-5.56-6.06-10.88-6.06-10.88" style="fill:none; stroke:#000; stroke-miterlimit:8;"/></g><g><line x1="843.33" y1="404.16" x2="843.33" y2="411.78" style="fill:none; stroke:#000; stroke-miterlimit:8;"/><polygon points="840.84 411.05 843.33 415.36 845.83 411.05 840.84 411.05"/></g><g><polyline points="830.75 395.71 788.43 395.71 788.43 375.23" style="fill:none; stroke:#000; stroke-miterlimit:8;"/><polygon points="830.02 393.21 834.33 395.71 830.02 398.2 830.02 393.21"/></g><g><polyline points="855.67 395.71 898.68 395.71 898.68 375.23" style="fill:none; stroke:#000; stroke-miterlimit:8;"/><polygon points="856.4 398.2 852.08 395.71 856.4 393.21 856.4 398.2"/></g></g></g></g><g><g><rect x="37.65" y="75.76" width="213.17" height="158.02" style="fill:#fff;"/><g><rect x="114.98" y="111.35" width="58.95" height="23.4" rx="3.9" ry="3.9" style="fill:#fff; stroke:#000; stroke-miterlimit:8;"/><polygon points="170.55 186.72 180.59 175.25 219.01 175.25 229.05 186.72 219.01 198.2 180.59 198.2 170.55 186.72" style="fill:#fff; stroke:#000; stroke-miterlimit:8;"/><polygon points="60.3 186.72 70.34 175.25 108.76 175.25 118.8 186.72 108.76 198.2 70.34 198.2 60.3 186.72" style="fill:#fff; stroke:#000; stroke-miterlimit:8;"/><circle cx="144.45" cy="154.7" r="8.75" style="fill:#fff; stroke:#000; stroke-miterlimit:8;"/><path d="M138.69,160.78l5.89-10.57c3.16,5.56,6.06,10.88,6.06,10.88" style="fill:none; stroke:#000; stroke-miterlimit:8;"/><g><line x1="144.45" y1="134.75" x2="144.45" y2="142.37" style="fill:none; stroke:#000; stroke-miterlimit:8;"/><polygon points="141.96 141.64 144.45 145.95 146.95 141.64 141.96 141.64"/></g><g><polyline points="135.45 154.77 89.55 154.77 89.55 171.66" style="fill:none; stroke:#000; stroke-miterlimit:8;"/><polygon points="87.06 170.93 89.55 175.25 92.04 170.93 87.06 170.93"/></g><g><polyline points="153.2 154.77 199.8 154.77 199.8 171.66" style="fill:none; stroke:#000; stroke-miterlimit:8;"/><polygon points="197.31 170.93 199.8 175.25 202.29 170.93 197.31 170.93"/></g></g></g><g><rect x="270.83" y="75.76" width="213.17" height="158.02" style="fill:#fff;"/><g><polygon points="348.39 123.05 358.43 111.57 396.85 111.57 406.89 123.05 396.85 134.52 358.43 134.52 348.39 123.05" style="fill:#fff; stroke:#000; stroke-miterlimit:8;"/><rect x="403.29" y="175.02" width="58.95" height="23.4" rx="3.9" ry="3.9" style="fill:#fff; stroke:#000; stroke-miterlimit:8;"/><rect x="293.04" y="175.02" width="58.95" height="23.4" rx="3.9" ry="3.9" style="fill:#fff; stroke:#000; stroke-miterlimit:8;"/><circle cx="377.41" cy="154.7" r="8.75" style="fill:#fff; stroke:#000; stroke-miterlimit:8;"/><path d="M371.65,160.78l5.89-10.57c3.16,5.56,6.06,10.88,6.06,10.88" style="fill:none; stroke:#000; stroke-miterlimit:8;"/><g><line x1="377.41" y1="134.75" x2="377.41" y2="142.37" style="fill:none; stroke:#000; stroke-miterlimit:8;"/><polygon points="374.92 141.64 377.41 145.95 379.91 141.64 374.92 141.64"/></g><g><polyline points="368.41 154.77 322.51 154.77 322.51 171.66" style="fill:none; stroke:#000; stroke-miterlimit:8;"/><polygon points="320.02 170.93 322.51 175.25 325.01 170.93 320.02 170.93"/></g><g><polyline points="386.16 154.77 432.76 154.77 432.76 171.66" style="fill:none; stroke:#000; stroke-miterlimit:8;"/><polygon points="430.27 170.93 432.76 175.25 435.26 170.93 430.27 170.93"/></g></g></g><g><rect x="504" y="75.76" width="213.17" height="158.02" style="fill:#fff;"/><g><rect x="580.9" y="174.66" width="58.95" height="23.4" rx="3.9" ry="3.9" style="fill:#fff; stroke:#000; stroke-miterlimit:8;"/><polygon points="636.47 123.05 646.52 111.57 684.93 111.57 694.97 123.05 684.93 134.52 646.52 134.52 636.47 123.05" style="fill:#fff; stroke:#000; stroke-miterlimit:8;"/><polygon points="526.22 123.05 536.27 111.57 574.68 111.57 584.72 123.05 574.68 134.52 536.27 134.52 526.22 123.05" style="fill:#fff; stroke:#000; stroke-miterlimit:8;"/><g><circle cx="610.37" cy="154.7" r="8.75" style="fill:#fff; stroke:#000; stroke-miterlimit:8;"/><path d="M604.61,160.78l5.89-10.57c3.16,5.56,6.06,10.88,6.06,10.88" style="fill:none; stroke:#000; stroke-miterlimit:8;"/></g><g><line x1="610.37" y1="163.45" x2="610.37" y2="171.07" style="fill:none; stroke:#000; stroke-miterlimit:8;"/><polygon points="607.88 170.34 610.37 174.66 612.87 170.34 607.88 170.34"/></g><g><polyline points="597.79 155 555.47 155 555.47 134.52" style="fill:none; stroke:#000; stroke-miterlimit:8;"/><polygon points="597.06 152.51 601.37 155 597.06 157.49 597.06 152.51"/></g><g><polyline points="622.71 155 665.72 155 665.72 134.52" style="fill:none; stroke:#000; stroke-miterlimit:8;"/><polygon points="623.44 157.49 619.12 155 623.44 152.51 623.44 157.49"/></g></g></g><g><rect x="737.17" y="75.76" width="213.17" height="158.02" style="fill:#fff;"/><g><polygon points="814.31 186.36 824.35 174.88 862.77 174.88 872.81 186.36 862.77 197.83 824.35 197.83 814.31 186.36" style="fill:#fff; stroke:#000; stroke-miterlimit:8;"/><rect x="758.96" y="111.35" width="58.95" height="23.4" rx="3.9" ry="3.9" style="fill:#fff; stroke:#000; stroke-miterlimit:8;"/><rect x="869.21" y="111.35" width="58.95" height="23.4" rx="3.9" ry="3.9" style="fill:#fff; stroke:#000; stroke-miterlimit:8;"/><g><circle cx="843.33" cy="154.7" r="8.75" style="fill:#fff; stroke:#000; stroke-miterlimit:8;"/><path d="M837.57,160.78l5.89-10.57c3.16,5.56,6.06,10.88,6.06,10.88" style="fill:none; stroke:#000; stroke-miterlimit:8;"/></g><g><line x1="843.33" y1="163.45" x2="843.33" y2="171.07" style="fill:none; stroke:#000; stroke-miterlimit:8;"/><polygon points="840.84 170.34 843.33 174.66 845.83 170.34 840.84 170.34"/></g><g><polyline points="830.75 155 788.43 155 788.43 134.52" style="fill:none; stroke:#000; stroke-miterlimit:8;"/><polygon points="830.02 152.51 834.33 155 830.02 157.49 830.02 152.51"/></g><g><polyline points="855.67 155 898.68 155 898.68 134.52" style="fill:none; stroke:#000; stroke-miterlimit:8;"/><polygon points="856.4 157.49 852.08 155 856.4 152.51 856.4 157.49"/></g></g></g></g></svg>