<?xml version="1.0" encoding="UTF-8"?><svg id="Ebene_1" xmlns="http://www.w3.org/2000/svg" viewBox="0 0 988 525"><rect x="74.6" y="138.61" width="153" height="51" style="fill:#fff; stroke:#000; stroke-miterlimit:8;"/><g><path d="M96.73,167.85v-10.02h1.33v4.97l4.98-4.97h1.8l-4.2,4.06,4.39,5.96h-1.75l-3.57-5.07-1.64,1.6v3.47h-1.33Z"/><path d="M110.73,167.85v-1.07c-.57,.82-1.33,1.23-2.3,1.23-.43,0-.83-.08-1.2-.25-.37-.16-.65-.37-.83-.62-.18-.25-.31-.55-.38-.91-.05-.24-.08-.62-.08-1.15v-4.5h1.23v4.03c0,.64,.03,1.08,.08,1.3,.08,.32,.24,.58,.49,.76s.56,.28,.93,.28,.72-.09,1.04-.28,.55-.45,.69-.77c.13-.33,.2-.8,.2-1.42v-3.89h1.23v7.26h-1.1Z"/><path d="M113.77,167.85v-7.26h1.11v1.03c.53-.8,1.3-1.2,2.31-1.2,.44,0,.84,.08,1.21,.24,.37,.16,.64,.36,.82,.62,.18,.26,.31,.56,.38,.91,.05,.23,.07,.63,.07,1.2v4.46h-1.23v-4.42c0-.5-.05-.88-.14-1.12s-.27-.45-.51-.59c-.24-.15-.53-.22-.86-.22-.52,0-.98,.17-1.36,.5-.38,.33-.57,.96-.57,1.89v3.96h-1.23Z"/><path d="M126.27,167.85v-.92c-.46,.72-1.14,1.08-2.03,1.08-.58,0-1.11-.16-1.6-.48-.48-.32-.86-.77-1.13-1.34-.27-.57-.4-1.23-.4-1.97s.12-1.38,.36-1.97,.6-1.04,1.09-1.36,1.02-.47,1.62-.47c.44,0,.83,.09,1.17,.28s.62,.42,.83,.72v-3.6h1.22v10.02h-1.14Zm-3.89-3.62c0,.93,.2,1.62,.59,2.08,.39,.46,.85,.69,1.39,.69s.99-.22,1.37-.66c.38-.44,.56-1.11,.56-2.01,0-.99-.19-1.72-.57-2.19s-.85-.7-1.42-.7-1,.22-1.37,.67c-.37,.45-.55,1.15-.55,2.11Z"/><path d="M134.3,165.51l1.27,.16c-.2,.74-.57,1.32-1.11,1.73s-1.24,.62-2.08,.62c-1.06,0-1.9-.33-2.53-.98-.62-.65-.93-1.57-.93-2.75s.31-2.17,.94-2.84c.63-.67,1.44-1.01,2.45-1.01s1.76,.33,2.38,.99c.62,.66,.92,1.59,.92,2.79,0,.07,0,.18,0,.33h-5.41c.05,.8,.27,1.41,.68,1.83s.91,.64,1.52,.64c.45,0,.84-.12,1.16-.36,.32-.24,.57-.62,.76-1.13Zm-4.04-1.99h4.05c-.05-.61-.21-1.07-.46-1.37-.39-.47-.9-.71-1.52-.71-.57,0-1.04,.19-1.42,.57-.39,.38-.6,.88-.64,1.52Z"/><path d="M137.17,167.85v-7.26h1.11v1.03c.53-.8,1.3-1.2,2.31-1.2,.44,0,.84,.08,1.21,.24,.37,.16,.64,.36,.82,.62,.18,.26,.31,.56,.38,.91,.05,.23,.07,.63,.07,1.2v4.46h-1.23v-4.42c0-.5-.05-.88-.14-1.12s-.27-.45-.51-.59c-.24-.15-.53-.22-.86-.22-.52,0-.98,.17-1.36,.5-.38,.33-.57,.96-.57,1.89v3.96h-1.23Z"/><path d="M144.96,170.63v-10.04h1.12v.94c.26-.37,.56-.65,.9-.83s.74-.28,1.21-.28c.62,0,1.17,.16,1.64,.48,.47,.32,.83,.77,1.07,1.35s.36,1.22,.36,1.91c0,.74-.13,1.41-.4,2.01-.27,.59-.65,1.05-1.16,1.37-.51,.32-1.04,.48-1.6,.48-.41,0-.78-.09-1.1-.26-.33-.17-.59-.39-.8-.66v3.53h-1.23Zm1.11-6.37c0,.93,.19,1.62,.57,2.07,.38,.45,.84,.67,1.37,.67s1.02-.23,1.4-.69c.39-.46,.58-1.18,.58-2.15s-.19-1.62-.57-2.08c-.38-.46-.83-.69-1.36-.69s-.99,.25-1.39,.74c-.4,.49-.61,1.2-.61,2.14Z"/><path d="M152.71,167.85v-7.26h1.11v1.1c.28-.51,.54-.85,.78-1.02,.24-.16,.5-.25,.79-.25,.42,0,.84,.13,1.26,.4l-.42,1.14c-.3-.18-.6-.27-.9-.27-.27,0-.51,.08-.72,.24s-.37,.39-.46,.67c-.14,.44-.21,.92-.21,1.44v3.8h-1.23Z"/><path d="M156.95,164.22c0-1.34,.37-2.34,1.12-2.99,.62-.54,1.39-.81,2.28-.81,1,0,1.81,.33,2.45,.98s.95,1.56,.95,2.71c0,.93-.14,1.67-.42,2.2-.28,.54-.69,.95-1.22,1.25-.54,.3-1.12,.45-1.75,.45-1.02,0-1.84-.33-2.46-.98-.63-.65-.94-1.59-.94-2.82Zm1.26,0c0,.93,.2,1.63,.61,2.09s.92,.69,1.53,.69,1.12-.23,1.52-.7,.61-1.17,.61-2.13c0-.9-.2-1.58-.61-2.04-.41-.46-.92-.69-1.52-.69s-1.13,.23-1.53,.69c-.41,.46-.61,1.15-.61,2.08Z"/><path d="M166.37,167.85h-1.14v-10.02h1.23v3.57c.52-.65,1.18-.98,1.99-.98,.45,0,.87,.09,1.27,.27,.4,.18,.73,.43,.98,.76,.26,.33,.46,.72,.6,1.18,.15,.46,.22,.95,.22,1.48,0,1.24-.31,2.21-.92,2.88-.62,.68-1.35,1.02-2.21,1.02s-1.53-.36-2.02-1.07v.91Zm-.01-3.69c0,.87,.12,1.5,.36,1.89,.39,.63,.91,.95,1.57,.95,.54,0,1-.23,1.39-.7s.59-1.16,.59-2.09-.19-1.65-.56-2.1c-.38-.45-.83-.68-1.36-.68s-1,.23-1.39,.7-.59,1.14-.59,2.03Z"/><path d="M172.98,167.85v-10.02h1.23v10.02h-1.23Z"/><path d="M181.08,165.51l1.27,.16c-.2,.74-.57,1.32-1.11,1.73s-1.24,.62-2.08,.62c-1.06,0-1.9-.33-2.53-.98-.62-.65-.93-1.57-.93-2.75s.31-2.17,.94-2.84c.63-.67,1.44-1.01,2.45-1.01s1.76,.33,2.38,.99c.62,.66,.92,1.59,.92,2.79,0,.07,0,.18,0,.33h-5.41c.05,.8,.27,1.41,.68,1.83s.91,.64,1.52,.64c.45,0,.84-.12,1.16-.36,.32-.24,.57-.62,.76-1.13Zm-4.04-1.99h4.05c-.05-.61-.21-1.07-.46-1.37-.39-.47-.9-.71-1.52-.71-.57,0-1.04,.19-1.42,.57-.39,.38-.6,.88-.64,1.52Z"/><path d="M183.96,167.85v-7.26h1.1v1.02c.23-.36,.53-.64,.91-.86s.81-.32,1.29-.32c.54,0,.98,.11,1.32,.33,.34,.22,.59,.54,.73,.94,.57-.85,1.32-1.27,2.24-1.27,.72,0,1.27,.2,1.66,.6s.58,1.01,.58,1.84v4.98h-1.22v-4.57c0-.49-.04-.85-.12-1.06-.08-.22-.22-.39-.43-.52-.21-.13-.46-.2-.74-.2-.51,0-.93,.17-1.27,.51s-.51,.88-.51,1.63v4.22h-1.23v-4.72c0-.55-.1-.96-.3-1.23s-.53-.41-.98-.41c-.35,0-.67,.09-.96,.27-.29,.18-.51,.45-.64,.8-.13,.35-.2,.86-.2,1.52v3.77h-1.23Z"/></g><rect x="760.4" y="138.61" width="153" height="51" style="fill:#fff; stroke:#000; stroke-miterlimit:8;"/><g><path d="M795.15,167.85v-10.02h3.78c.67,0,1.17,.03,1.52,.1,.49,.08,.9,.24,1.24,.47s.6,.55,.8,.97c.2,.41,.3,.87,.3,1.37,0,.85-.27,1.57-.81,2.16s-1.52,.89-2.94,.89h-2.57v4.07h-1.33Zm1.33-5.26h2.59c.86,0,1.46-.16,1.83-.48,.36-.32,.54-.77,.54-1.35,0-.42-.11-.78-.32-1.08-.21-.3-.49-.5-.84-.59-.22-.06-.64-.09-1.24-.09h-2.56v3.58Z"/><path d="M804.33,167.85v-7.26h1.11v1.1c.28-.51,.54-.85,.78-1.02,.24-.16,.5-.25,.79-.25,.42,0,.84,.13,1.26,.4l-.42,1.14c-.3-.18-.6-.27-.9-.27-.27,0-.51,.08-.72,.24s-.37,.39-.46,.67c-.14,.44-.21,.92-.21,1.44v3.8h-1.23Z"/><path d="M808.56,164.22c0-1.34,.37-2.34,1.12-2.99,.62-.54,1.39-.81,2.28-.81,1,0,1.81,.33,2.45,.98s.95,1.56,.95,2.71c0,.93-.14,1.67-.42,2.2-.28,.54-.69,.95-1.22,1.25-.54,.3-1.12,.45-1.75,.45-1.02,0-1.84-.33-2.46-.98-.63-.65-.94-1.59-.94-2.82Zm1.26,0c0,.93,.2,1.63,.61,2.09s.92,.69,1.53,.69,1.12-.23,1.52-.7,.61-1.17,.61-2.13c0-.9-.2-1.58-.61-2.04-.41-.46-.92-.69-1.52-.69s-1.13,.23-1.53,.69c-.41,.46-.61,1.15-.61,2.08Z"/><path d="M821.56,167.85v-.92c-.46,.72-1.14,1.08-2.03,1.08-.58,0-1.11-.16-1.6-.48-.48-.32-.86-.77-1.13-1.34-.27-.57-.4-1.23-.4-1.97s.12-1.38,.36-1.97,.6-1.04,1.09-1.36,1.02-.47,1.62-.47c.44,0,.83,.09,1.17,.28s.62,.42,.83,.72v-3.6h1.22v10.02h-1.14Zm-3.89-3.62c0,.93,.2,1.62,.59,2.08,.39,.46,.85,.69,1.39,.69s.99-.22,1.37-.66c.38-.44,.56-1.11,.56-2.01,0-.99-.19-1.72-.57-2.19s-.85-.7-1.42-.7-1,.22-1.37,.67c-.37,.45-.55,1.15-.55,2.11Z"/><path d="M829.37,167.85v-1.07c-.57,.82-1.33,1.23-2.3,1.23-.43,0-.83-.08-1.2-.25-.37-.16-.65-.37-.83-.62-.18-.25-.31-.55-.38-.91-.05-.24-.08-.62-.08-1.15v-4.5h1.23v4.03c0,.64,.03,1.08,.08,1.3,.08,.32,.24,.58,.49,.76s.56,.28,.93,.28,.72-.09,1.04-.28,.55-.45,.69-.77c.13-.33,.2-.8,.2-1.42v-3.89h1.23v7.26h-1.1Z"/><path d="M832.4,167.85v-10.02h1.23v5.71l2.91-2.95h1.59l-2.78,2.69,3.06,4.57h-1.52l-2.4-3.71-.87,.83v2.88h-1.23Z"/><path d="M842.12,166.75l.18,1.09c-.35,.07-.66,.11-.93,.11-.45,0-.79-.07-1.04-.21-.25-.14-.42-.33-.52-.56s-.15-.71-.15-1.45v-4.18h-.9v-.96h.9v-1.8l1.22-.74v2.54h1.24v.96h-1.24v4.24c0,.35,.02,.58,.07,.68,.04,.1,.11,.18,.21,.24,.1,.06,.24,.09,.42,.09,.14,0,.32-.02,.54-.05Z"/><path d="M843.33,159.24v-1.41h1.23v1.41h-1.23Zm0,8.61v-7.26h1.23v7.26h-1.23Z"/><path d="M851.15,167.85v-.92c-.46,.72-1.14,1.08-2.03,1.08-.58,0-1.11-.16-1.6-.48-.48-.32-.86-.77-1.13-1.34-.27-.57-.4-1.23-.4-1.97s.12-1.38,.36-1.97,.6-1.04,1.09-1.36,1.02-.47,1.62-.47c.44,0,.83,.09,1.17,.28s.62,.42,.83,.72v-3.6h1.22v10.02h-1.14Zm-3.89-3.62c0,.93,.2,1.62,.59,2.08,.39,.46,.85,.69,1.39,.69s.99-.22,1.37-.66c.38-.44,.56-1.11,.56-2.01,0-.99-.19-1.72-.57-2.19s-.85-.7-1.42-.7-1,.22-1.37,.67c-.37,.45-.55,1.15-.55,2.11Z"/><path d="M859.16,165.51l1.27,.16c-.2,.74-.57,1.32-1.11,1.73s-1.24,.62-2.08,.62c-1.06,0-1.9-.33-2.53-.98-.62-.65-.93-1.57-.93-2.75s.31-2.17,.94-2.84c.63-.67,1.44-1.01,2.45-1.01s1.76,.33,2.38,.99c.62,.66,.92,1.59,.92,2.79,0,.07,0,.18,0,.33h-5.41c.05,.8,.27,1.41,.68,1.83s.91,.64,1.52,.64c.45,0,.84-.12,1.16-.36,.32-.24,.57-.62,.76-1.13Zm-4.04-1.99h4.05c-.05-.61-.21-1.07-.46-1.37-.39-.47-.9-.71-1.52-.71-.57,0-1.04,.19-1.42,.57-.39,.38-.6,.88-.64,1.52Z"/><path d="M867.01,165.51l1.27,.16c-.2,.74-.57,1.32-1.11,1.73s-1.24,.62-2.08,.62c-1.06,0-1.9-.33-2.53-.98-.62-.65-.93-1.57-.93-2.75s.31-2.17,.94-2.84c.63-.67,1.44-1.01,2.45-1.01s1.76,.33,2.38,.99c.62,.66,.92,1.59,.92,2.79,0,.07,0,.18,0,.33h-5.41c.05,.8,.27,1.41,.68,1.83s.91,.64,1.52,.64c.45,0,.84-.12,1.16-.36,.32-.24,.57-.62,.76-1.13Zm-4.04-1.99h4.05c-.05-.61-.21-1.07-.46-1.37-.39-.47-.9-.71-1.52-.71-.57,0-1.04,.19-1.42,.57-.39,.38-.6,.88-.64,1.52Z"/></g><rect x="278" y="110.11" width="432.6" height="108" style="fill:none; stroke:#000; stroke-miterlimit:8; stroke-width:2px;"/><g><path d="M406.58,132.61v-10.02h3.78c.67,0,1.17,.03,1.52,.1,.49,.08,.9,.24,1.24,.47s.6,.55,.8,.97c.2,.42,.3,.87,.3,1.37,0,.85-.27,1.57-.81,2.16s-1.52,.88-2.94,.88h-2.57v4.07h-1.33Zm1.33-5.26h2.59c.86,0,1.46-.16,1.83-.48,.36-.32,.54-.77,.54-1.35,0-.42-.11-.78-.32-1.08-.21-.3-.49-.5-.84-.59-.22-.06-.64-.09-1.24-.09h-2.56v3.58Z"/><path d="M415.76,132.61v-7.26h1.11v1.1c.28-.52,.54-.86,.78-1.02,.24-.16,.5-.25,.79-.25,.42,0,.84,.13,1.26,.4l-.42,1.14c-.3-.18-.6-.27-.9-.27-.27,0-.51,.08-.72,.24s-.37,.39-.46,.67c-.14,.44-.21,.92-.21,1.44v3.8h-1.23Z"/><path d="M419.99,128.98c0-1.34,.37-2.34,1.12-2.99,.62-.54,1.39-.81,2.28-.81,1,0,1.81,.33,2.45,.98s.95,1.56,.95,2.71c0,.93-.14,1.67-.42,2.21-.28,.54-.69,.95-1.22,1.25-.54,.3-1.12,.44-1.75,.44-1.02,0-1.84-.33-2.46-.98-.63-.65-.94-1.59-.94-2.82Zm1.26,0c0,.93,.2,1.62,.61,2.09s.92,.69,1.53,.69,1.12-.23,1.52-.7,.61-1.17,.61-2.12c0-.9-.2-1.58-.61-2.04-.41-.46-.92-.69-1.52-.69s-1.13,.23-1.53,.69c-.41,.46-.61,1.16-.61,2.09Z"/><path d="M432.99,132.61v-.92c-.46,.72-1.14,1.08-2.03,1.08-.58,0-1.11-.16-1.6-.48-.48-.32-.86-.76-1.13-1.34-.27-.57-.4-1.23-.4-1.97s.12-1.38,.36-1.97,.6-1.04,1.09-1.36,1.02-.47,1.62-.47c.44,0,.83,.09,1.17,.28s.62,.42,.83,.72v-3.6h1.22v10.02h-1.14Zm-3.89-3.62c0,.93,.2,1.62,.59,2.09,.39,.46,.85,.69,1.39,.69s.99-.22,1.37-.66c.38-.44,.56-1.11,.56-2.01,0-.99-.19-1.72-.57-2.19s-.85-.7-1.42-.7-1,.22-1.37,.67c-.37,.45-.55,1.15-.55,2.11Z"/><path d="M440.79,132.61v-1.07c-.57,.82-1.33,1.23-2.3,1.23-.43,0-.83-.08-1.2-.25-.37-.16-.65-.37-.83-.62-.18-.25-.31-.55-.38-.91-.05-.24-.08-.62-.08-1.15v-4.5h1.23v4.03c0,.64,.03,1.08,.08,1.3,.08,.32,.24,.58,.49,.76s.56,.28,.93,.28,.72-.1,1.04-.28,.55-.45,.69-.77c.13-.33,.2-.8,.2-1.42v-3.89h1.23v7.26h-1.1Z"/><path d="M443.83,132.61v-10.02h1.23v5.71l2.91-2.95h1.59l-2.78,2.69,3.06,4.57h-1.52l-2.4-3.71-.87,.83v2.88h-1.23Z"/><path d="M453.55,131.51l.18,1.09c-.35,.07-.66,.11-.93,.11-.45,0-.79-.07-1.04-.21-.25-.14-.42-.33-.52-.56s-.15-.71-.15-1.45v-4.18h-.9v-.96h.9v-1.8l1.22-.74v2.54h1.24v.96h-1.24v4.25c0,.35,.02,.58,.07,.68,.04,.1,.11,.18,.21,.24,.1,.06,.24,.09,.42,.09,.14,0,.32-.02,.54-.05Z"/><path d="M459.72,130.28l1.27,.16c-.2,.74-.57,1.32-1.11,1.73s-1.24,.62-2.08,.62c-1.06,0-1.9-.33-2.53-.98-.62-.65-.93-1.57-.93-2.75s.31-2.17,.94-2.84c.63-.67,1.44-1.01,2.45-1.01s1.76,.33,2.38,.99c.62,.66,.92,1.59,.92,2.79,0,.07,0,.18,0,.33h-5.41c.05,.8,.27,1.41,.68,1.83s.91,.63,1.52,.63c.45,0,.84-.12,1.16-.36,.32-.24,.57-.62,.76-1.13Zm-4.04-1.99h4.05c-.05-.61-.21-1.07-.46-1.38-.39-.47-.9-.71-1.52-.71-.57,0-1.04,.19-1.42,.57-.39,.38-.6,.88-.64,1.52Z"/><path d="M462.6,132.61v-7.26h1.11v1.03c.53-.8,1.3-1.2,2.31-1.2,.44,0,.84,.08,1.21,.24,.37,.16,.64,.36,.82,.62,.18,.25,.31,.56,.38,.91,.05,.23,.07,.63,.07,1.2v4.46h-1.23v-4.42c0-.5-.05-.88-.14-1.12s-.27-.45-.51-.59c-.24-.15-.53-.22-.86-.22-.52,0-.98,.17-1.36,.5-.38,.33-.57,.96-.57,1.89v3.96h-1.23Z"/><path d="M473.05,131.51l.18,1.09c-.35,.07-.66,.11-.93,.11-.45,0-.79-.07-1.04-.21-.25-.14-.42-.33-.52-.56s-.15-.71-.15-1.45v-4.18h-.9v-.96h.9v-1.8l1.22-.74v2.54h1.24v.96h-1.24v4.25c0,.35,.02,.58,.07,.68,.04,.1,.11,.18,.21,.24,.1,.06,.24,.09,.42,.09,.14,0,.32-.02,.54-.05Z"/><path d="M475.6,132.61l-2.22-7.26h1.27l1.16,4.19,.43,1.56c.02-.08,.14-.58,.38-1.5l1.16-4.25h1.26l1.09,4.21,.36,1.39,.42-1.4,1.24-4.2h1.2l-2.27,7.26h-1.28l-1.16-4.35-.28-1.24-1.47,5.58h-1.29Z"/><path d="M484.36,124.01v-1.42h1.23v1.42h-1.23Zm0,8.61v-7.26h1.23v7.26h-1.23Z"/><path d="M492.2,129.95l1.21,.16c-.13,.83-.47,1.49-1.01,1.96-.54,.47-1.21,.71-2.01,.71-.99,0-1.79-.32-2.4-.97-.6-.65-.91-1.58-.91-2.79,0-.78,.13-1.47,.39-2.06s.66-1.03,1.19-1.32c.53-.29,1.11-.44,1.73-.44,.79,0,1.43,.2,1.93,.6s.82,.96,.96,1.7l-1.2,.19c-.11-.49-.32-.86-.6-1.1-.29-.25-.64-.37-1.05-.37-.62,0-1.12,.22-1.51,.67s-.58,1.15-.58,2.11,.19,1.68,.56,2.13c.37,.44,.86,.66,1.46,.66,.48,0,.89-.15,1.21-.44,.32-.3,.53-.75,.62-1.37Z"/><path d="M494.5,132.61v-10.02h1.23v5.71l2.91-2.95h1.59l-2.78,2.69,3.06,4.57h-1.52l-2.4-3.71-.87,.83v2.88h-1.23Z"/><path d="M501.51,132.61v-10.02h1.23v10.02h-1.23Z"/><path d="M509.4,132.61v-1.07c-.57,.82-1.33,1.23-2.3,1.23-.43,0-.83-.08-1.2-.25-.37-.16-.65-.37-.83-.62-.18-.25-.31-.55-.38-.91-.05-.24-.08-.62-.08-1.15v-4.5h1.23v4.03c0,.64,.03,1.08,.08,1.3,.08,.32,.24,.58,.49,.76s.56,.28,.93,.28,.72-.1,1.04-.28,.55-.45,.69-.77c.13-.33,.2-.8,.2-1.42v-3.89h1.23v7.26h-1.1Z"/><path d="M512.43,132.61v-7.26h1.11v1.03c.53-.8,1.3-1.2,2.31-1.2,.44,0,.84,.08,1.21,.24,.37,.16,.64,.36,.82,.62,.18,.25,.31,.56,.38,.91,.05,.23,.07,.63,.07,1.2v4.46h-1.23v-4.42c0-.5-.05-.88-.14-1.12s-.27-.45-.51-.59c-.24-.15-.53-.22-.86-.22-.52,0-.98,.17-1.36,.5-.38,.33-.57,.96-.57,1.89v3.96h-1.23Z"/><path d="M519.98,133.21l1.2,.18c.05,.37,.19,.64,.42,.81,.31,.23,.72,.34,1.25,.34,.57,0,1.01-.11,1.32-.34,.31-.23,.52-.55,.63-.96,.06-.25,.09-.78,.09-1.58-.54,.63-1.21,.95-2.01,.95-1,0-1.77-.36-2.32-1.08-.55-.72-.82-1.58-.82-2.59,0-.69,.12-1.33,.38-1.92s.61-1.04,1.09-1.36c.48-.32,1.04-.48,1.68-.48,.86,0,1.56,.35,2.12,1.04v-.88h1.13v6.28c0,1.13-.12,1.93-.35,2.4-.23,.47-.59,.84-1.09,1.12-.5,.27-1.11,.41-1.84,.41-.87,0-1.57-.2-2.1-.58s-.79-.98-.77-1.76Zm1.02-4.36c0,.95,.19,1.65,.57,2.09s.85,.66,1.42,.66,1.04-.22,1.42-.65,.57-1.12,.57-2.05-.2-1.56-.59-2.01c-.39-.45-.87-.68-1.42-.68s-1.01,.22-1.39,.67-.57,1.1-.57,1.98Z"/><path d="M527.45,130.45l1.22-.19c.07,.49,.26,.86,.57,1.12,.31,.26,.75,.39,1.31,.39s.98-.12,1.26-.34,.41-.5,.41-.81c0-.28-.12-.5-.36-.66-.17-.11-.59-.25-1.26-.42-.9-.23-1.53-.42-1.88-.59-.35-.17-.61-.4-.79-.69-.18-.29-.27-.62-.27-.97,0-.32,.07-.62,.22-.9,.15-.28,.35-.5,.61-.69,.19-.14,.45-.26,.78-.36,.33-.1,.68-.15,1.06-.15,.57,0,1.07,.08,1.5,.25,.43,.16,.75,.39,.95,.67s.35,.66,.42,1.12l-1.2,.16c-.05-.37-.21-.67-.48-.88-.26-.21-.63-.31-1.11-.31-.57,0-.97,.09-1.21,.28-.24,.19-.36,.41-.36,.66,0,.16,.05,.3,.15,.43,.1,.13,.26,.24,.47,.33,.12,.05,.49,.15,1.09,.31,.87,.23,1.48,.42,1.82,.57,.34,.15,.61,.36,.81,.65,.2,.28,.29,.63,.29,1.05s-.12,.8-.36,1.16c-.24,.36-.58,.64-1.04,.84s-.96,.3-1.53,.3c-.94,0-1.66-.2-2.16-.59-.49-.39-.81-.97-.95-1.74Z"/><path d="M534.93,135.4v-10.04h1.12v.94c.26-.37,.56-.65,.9-.83s.74-.28,1.21-.28c.62,0,1.17,.16,1.64,.48,.47,.32,.83,.77,1.07,1.35s.36,1.22,.36,1.91c0,.74-.13,1.41-.4,2.01-.27,.59-.65,1.05-1.16,1.37-.51,.32-1.04,.47-1.6,.47-.41,0-.78-.09-1.1-.26-.33-.17-.59-.39-.8-.66v3.54h-1.23Zm1.11-6.37c0,.93,.19,1.62,.57,2.07,.38,.45,.84,.67,1.37,.67s1.02-.23,1.4-.69c.39-.46,.58-1.18,.58-2.15s-.19-1.62-.57-2.08c-.38-.46-.83-.69-1.36-.69s-.99,.24-1.39,.73c-.4,.49-.61,1.2-.61,2.14Z"/><path d="M542.68,132.61v-7.26h1.11v1.1c.28-.52,.54-.86,.78-1.02,.24-.16,.5-.25,.79-.25,.42,0,.84,.13,1.26,.4l-.42,1.14c-.3-.18-.6-.27-.9-.27-.27,0-.51,.08-.72,.24s-.37,.39-.46,.67c-.14,.44-.21,.92-.21,1.44v3.8h-1.23Z"/><path d="M546.91,128.98c0-1.34,.37-2.34,1.12-2.99,.62-.54,1.39-.81,2.28-.81,1,0,1.81,.33,2.45,.98s.95,1.56,.95,2.71c0,.93-.14,1.67-.42,2.21-.28,.54-.69,.95-1.22,1.25-.54,.3-1.12,.44-1.75,.44-1.02,0-1.84-.33-2.46-.98-.63-.65-.94-1.59-.94-2.82Zm1.26,0c0,.93,.2,1.62,.61,2.09s.92,.69,1.53,.69,1.12-.23,1.52-.7,.61-1.17,.61-2.12c0-.9-.2-1.58-.61-2.04-.41-.46-.92-.69-1.52-.69s-1.13,.23-1.53,.69c-.41,.46-.61,1.16-.61,2.09Z"/><path d="M554.55,132.61v-1l4.62-5.3c-.52,.03-.99,.04-1.39,.04h-2.96v-1h5.93v.81l-3.93,4.61-.76,.84c.55-.04,1.07-.06,1.55-.06h3.36v1.06h-6.43Z"/><path d="M567.16,130.28l1.27,.16c-.2,.74-.57,1.32-1.11,1.73s-1.24,.62-2.08,.62c-1.06,0-1.9-.33-2.53-.98-.62-.65-.93-1.57-.93-2.75s.31-2.17,.94-2.84c.63-.67,1.44-1.01,2.45-1.01s1.76,.33,2.38,.99c.62,.66,.92,1.59,.92,2.79,0,.07,0,.18,0,.33h-5.41c.05,.8,.27,1.41,.68,1.83s.91,.63,1.52,.63c.45,0,.84-.12,1.16-.36,.32-.24,.57-.62,.76-1.13Zm-4.04-1.99h4.05c-.05-.61-.21-1.07-.46-1.38-.39-.47-.9-.71-1.52-.71-.57,0-1.04,.19-1.42,.57-.39,.38-.6,.88-.64,1.52Z"/><path d="M569.55,130.45l1.22-.19c.07,.49,.26,.86,.57,1.12,.31,.26,.75,.39,1.31,.39s.98-.12,1.26-.34,.41-.5,.41-.81c0-.28-.12-.5-.36-.66-.17-.11-.59-.25-1.26-.42-.9-.23-1.53-.42-1.88-.59-.35-.17-.61-.4-.79-.69-.18-.29-.27-.62-.27-.97,0-.32,.07-.62,.22-.9,.15-.28,.35-.5,.61-.69,.19-.14,.45-.26,.78-.36,.33-.1,.68-.15,1.06-.15,.57,0,1.07,.08,1.5,.25,.43,.16,.75,.39,.95,.67s.35,.66,.42,1.12l-1.2,.16c-.05-.37-.21-.67-.48-.88-.26-.21-.63-.31-1.11-.31-.57,0-.97,.09-1.21,.28-.24,.19-.36,.41-.36,.66,0,.16,.05,.3,.15,.43,.1,.13,.26,.24,.47,.33,.12,.05,.49,.15,1.09,.31,.87,.23,1.48,.42,1.82,.57,.34,.15,.61,.36,.81,.65,.2,.28,.29,.63,.29,1.05s-.12,.8-.36,1.16c-.24,.36-.58,.64-1.04,.84s-.96,.3-1.53,.3c-.94,0-1.66-.2-2.16-.59-.49-.39-.81-.97-.95-1.74Z"/><path d="M576.53,130.45l1.22-.19c.07,.49,.26,.86,.57,1.12,.31,.26,.75,.39,1.31,.39s.98-.12,1.26-.34,.41-.5,.41-.81c0-.28-.12-.5-.36-.66-.17-.11-.59-.25-1.26-.42-.9-.23-1.53-.42-1.88-.59-.35-.17-.61-.4-.79-.69-.18-.29-.27-.62-.27-.97,0-.32,.07-.62,.22-.9,.15-.28,.35-.5,.61-.69,.19-.14,.45-.26,.78-.36,.33-.1,.68-.15,1.06-.15,.57,0,1.07,.08,1.5,.25,.43,.16,.75,.39,.95,.67s.35,.66,.42,1.12l-1.2,.16c-.05-.37-.21-.67-.48-.88-.26-.21-.63-.31-1.11-.31-.57,0-.97,.09-1.21,.28-.24,.19-.36,.41-.36,.66,0,.16,.05,.3,.15,.43,.1,.13,.26,.24,.47,.33,.12,.05,.49,.15,1.09,.31,.87,.23,1.48,.42,1.82,.57,.34,.15,.61,.36,.81,.65,.2,.28,.29,.63,.29,1.05s-.12,.8-.36,1.16c-.24,.36-.58,.64-1.04,.84s-.96,.3-1.53,.3c-.94,0-1.66-.2-2.16-.59-.49-.39-.81-.97-.95-1.74Z"/></g><rect x="321.5" y="148.61" width="51.6" height="51" style="fill:#fff; stroke:#000; stroke-miterlimit:8;"/><rect x="416.9" y="148.61" width="51" height="51" style="fill:#fff; stroke:#000; stroke-miterlimit:8;"/><rect x="512.3" y="148.61" width="51" height="51" style="fill:#fff; stroke:#000; stroke-miterlimit:8;"/><rect x="607.7" y="148.61" width="51" height="51" style="fill:#fff; stroke:#000; stroke-miterlimit:8;"/><rect x="74.6" y="398.31" width="153" height="51" style="fill:#fff; stroke:#000; stroke-miterlimit:8;"/><g><path d="M108.66,427.55v-10.02h4.44c.89,0,1.57,.09,2.04,.27,.46,.18,.84,.5,1.11,.95,.28,.46,.42,.96,.42,1.51,0,.71-.23,1.31-.69,1.8-.46,.49-1.17,.8-2.13,.93,.35,.17,.62,.33,.8,.5,.39,.36,.75,.8,1.1,1.33l1.74,2.73h-1.67l-1.33-2.08c-.39-.6-.71-1.06-.96-1.38-.25-.32-.48-.54-.67-.67-.2-.13-.4-.22-.61-.27-.15-.03-.4-.05-.74-.05h-1.54v4.45h-1.33Zm1.33-5.6h2.85c.61,0,1.08-.06,1.42-.19,.34-.13,.6-.33,.78-.6,.18-.28,.27-.58,.27-.9,0-.47-.17-.86-.52-1.17-.34-.3-.89-.46-1.63-.46h-3.17v3.32Z"/><path d="M123.53,425.21l1.27,.16c-.2,.74-.57,1.32-1.11,1.73s-1.24,.62-2.08,.62c-1.06,0-1.9-.33-2.53-.98-.62-.65-.93-1.57-.93-2.75s.31-2.17,.94-2.84c.63-.67,1.44-1.01,2.45-1.01s1.76,.33,2.38,.99c.62,.66,.92,1.59,.92,2.79,0,.07,0,.18,0,.33h-5.41c.05,.8,.27,1.41,.68,1.83s.91,.64,1.52,.64c.45,0,.84-.12,1.16-.36,.32-.24,.57-.62,.76-1.13Zm-4.04-1.99h4.05c-.05-.61-.21-1.07-.46-1.37-.39-.47-.9-.71-1.52-.71-.57,0-1.04,.19-1.42,.57-.39,.38-.6,.88-.64,1.52Z"/><path d="M126.41,427.55v-10.02h1.23v5.71l2.91-2.95h1.59l-2.78,2.69,3.06,4.57h-1.52l-2.4-3.71-.87,.83v2.88h-1.23Z"/><path d="M133.42,427.55v-10.02h1.23v10.02h-1.23Z"/><path d="M141.3,426.65c-.46,.39-.89,.66-1.32,.82-.42,.16-.87,.24-1.36,.24-.8,0-1.41-.19-1.84-.58s-.64-.89-.64-1.49c0-.36,.08-.68,.24-.97,.16-.29,.37-.53,.64-.71,.26-.18,.56-.31,.88-.4,.24-.06,.61-.12,1.09-.18,.99-.12,1.72-.26,2.19-.42,0-.17,0-.28,0-.32,0-.5-.12-.85-.35-1.06-.31-.28-.78-.42-1.4-.42-.58,0-1.01,.1-1.28,.3-.28,.2-.48,.56-.61,1.08l-1.2-.16c.11-.51,.29-.93,.54-1.25,.25-.32,.61-.56,1.09-.73s1.02-.26,1.65-.26,1.12,.07,1.51,.22c.39,.15,.67,.33,.85,.55,.18,.22,.31,.5,.38,.84,.04,.21,.06,.59,.06,1.13v1.64c0,1.14,.03,1.87,.08,2.17,.05,.3,.16,.59,.31,.87h-1.29c-.13-.25-.21-.55-.25-.9Zm-.1-2.75c-.45,.18-1.12,.34-2.01,.46-.51,.07-.86,.16-1.07,.25-.21,.09-.37,.22-.49,.4-.11,.17-.17,.37-.17,.58,0,.33,.12,.6,.37,.82,.25,.22,.61,.33,1.09,.33s.9-.1,1.26-.31c.37-.21,.64-.49,.81-.85,.13-.28,.2-.69,.2-1.23v-.45Z"/><path d="M144.4,427.55v-7.26h1.1v1.02c.23-.36,.53-.64,.91-.86,.38-.22,.81-.33,1.29-.33,.54,0,.98,.11,1.32,.33,.34,.22,.59,.54,.73,.94,.57-.85,1.32-1.27,2.24-1.27,.72,0,1.27,.2,1.66,.6,.39,.4,.58,1.01,.58,1.84v4.98h-1.22v-4.57c0-.49-.04-.85-.12-1.06-.08-.22-.22-.39-.43-.52-.21-.13-.46-.2-.74-.2-.51,0-.93,.17-1.27,.51-.34,.34-.51,.88-.51,1.63v4.22h-1.23v-4.72c0-.55-.1-.96-.3-1.23s-.53-.41-.98-.41c-.35,0-.67,.09-.96,.27-.29,.18-.51,.45-.64,.8-.13,.35-.2,.86-.2,1.52v3.77h-1.23Z"/><path d="M160.8,426.65c-.46,.39-.89,.66-1.32,.82-.42,.16-.87,.24-1.36,.24-.8,0-1.41-.19-1.84-.58s-.64-.89-.64-1.49c0-.36,.08-.68,.24-.97,.16-.29,.37-.53,.64-.71,.26-.18,.56-.31,.88-.4,.24-.06,.61-.12,1.09-.18,.99-.12,1.72-.26,2.19-.42,0-.17,0-.28,0-.32,0-.5-.12-.85-.35-1.06-.31-.28-.78-.42-1.4-.42-.58,0-1.01,.1-1.28,.3-.28,.2-.48,.56-.61,1.08l-1.2-.16c.11-.51,.29-.93,.54-1.25,.25-.32,.61-.56,1.09-.73s1.02-.26,1.65-.26,1.12,.07,1.51,.22c.39,.15,.67,.33,.85,.55,.18,.22,.31,.5,.38,.84,.04,.21,.06,.59,.06,1.13v1.64c0,1.14,.03,1.87,.08,2.17,.05,.3,.16,.59,.31,.87h-1.29c-.13-.25-.21-.55-.25-.9Zm-.1-2.75c-.45,.18-1.12,.34-2.01,.46-.51,.07-.86,.16-1.07,.25-.21,.09-.37,.22-.49,.4-.11,.17-.17,.37-.17,.58,0,.33,.12,.6,.37,.82,.25,.22,.61,.33,1.09,.33s.9-.1,1.26-.31c.37-.21,.64-.49,.81-.85,.13-.28,.2-.69,.2-1.23v-.45Z"/><path d="M166.59,426.45l.18,1.09c-.35,.07-.66,.11-.93,.11-.45,0-.79-.07-1.04-.21-.25-.14-.42-.33-.52-.56-.1-.23-.15-.71-.15-1.45v-4.18h-.9v-.96h.9v-1.8l1.22-.74v2.54h1.24v.96h-1.24v4.25c0,.35,.02,.58,.07,.68,.04,.1,.11,.18,.21,.24,.1,.06,.24,.09,.42,.09,.14,0,.32-.02,.54-.05Z"/><path d="M167.8,418.94v-1.42h1.23v1.42h-1.23Zm0,8.61v-7.26h1.23v7.26h-1.23Z"/><path d="M170.45,423.92c0-1.34,.37-2.34,1.12-2.99,.62-.54,1.39-.81,2.28-.81,1,0,1.81,.33,2.45,.98,.63,.65,.95,1.56,.95,2.71,0,.93-.14,1.67-.42,2.21-.28,.54-.69,.95-1.22,1.25-.54,.3-1.12,.44-1.75,.44-1.02,0-1.84-.33-2.46-.98-.63-.65-.94-1.59-.94-2.82Zm1.26,0c0,.93,.2,1.63,.61,2.09,.41,.46,.92,.69,1.53,.69s1.12-.23,1.52-.7,.61-1.17,.61-2.13c0-.9-.2-1.58-.61-2.04-.41-.46-.92-.69-1.52-.69s-1.13,.23-1.53,.69c-.41,.46-.61,1.16-.61,2.08Z"/><path d="M178.73,427.55v-7.26h1.11v1.03c.53-.8,1.3-1.2,2.31-1.2,.44,0,.84,.08,1.21,.24,.37,.16,.64,.36,.82,.62,.18,.26,.31,.56,.38,.91,.05,.23,.07,.63,.07,1.2v4.46h-1.23v-4.42c0-.5-.05-.88-.14-1.12-.1-.25-.27-.45-.51-.59-.24-.15-.53-.22-.86-.22-.52,0-.98,.17-1.36,.5-.38,.33-.57,.96-.57,1.89v3.96h-1.23Z"/></g><rect x="760.4" y="398.31" width="153" height="51" style="fill:#fff; stroke:#000; stroke-miterlimit:8;"/><g><path d="M812.57,427.55v-10.02h1.33v8.84h4.94v1.18h-6.26Z"/><path d="M819.78,423.92c0-1.34,.37-2.34,1.12-2.99,.62-.54,1.39-.81,2.28-.81,1,0,1.81,.33,2.45,.98,.63,.65,.95,1.56,.95,2.71,0,.93-.14,1.67-.42,2.21-.28,.54-.69,.95-1.22,1.25-.54,.3-1.12,.44-1.75,.44-1.02,0-1.84-.33-2.46-.98-.63-.65-.94-1.59-.94-2.82Zm1.26,0c0,.93,.2,1.63,.61,2.09,.41,.46,.92,.69,1.53,.69s1.12-.23,1.52-.7,.61-1.17,.61-2.13c0-.9-.2-1.58-.61-2.04-.41-.46-.92-.69-1.52-.69s-1.13,.23-1.53,.69c-.41,.46-.61,1.16-.61,2.08Zm.22-5.05v-1.4h1.29v1.4h-1.29Zm2.55,0v-1.4h1.29v1.4h-1.29Z"/><path d="M827.56,425.38l1.22-.19c.07,.49,.26,.86,.57,1.12,.31,.26,.75,.39,1.31,.39s.98-.12,1.26-.34c.27-.23,.41-.5,.41-.81,0-.28-.12-.5-.36-.66-.17-.11-.59-.25-1.26-.42-.9-.23-1.53-.42-1.88-.59-.35-.17-.61-.4-.79-.69-.18-.29-.27-.62-.27-.97,0-.32,.07-.62,.22-.9,.15-.28,.35-.5,.61-.69,.19-.14,.45-.26,.78-.36,.33-.1,.68-.15,1.06-.15,.57,0,1.07,.08,1.5,.25,.43,.16,.75,.39,.95,.67s.35,.66,.42,1.12l-1.2,.16c-.05-.37-.21-.67-.48-.88-.26-.21-.63-.31-1.11-.31-.57,0-.97,.09-1.21,.28-.24,.19-.36,.41-.36,.66,0,.16,.05,.3,.15,.43,.1,.13,.26,.24,.47,.33,.12,.05,.49,.15,1.09,.31,.87,.23,1.48,.42,1.82,.57,.34,.15,.61,.36,.81,.65,.2,.28,.29,.63,.29,1.05s-.12,.8-.36,1.16c-.24,.36-.58,.64-1.04,.84s-.96,.3-1.53,.3c-.94,0-1.66-.2-2.16-.59-.49-.39-.81-.97-.95-1.74Z"/><path d="M839.79,427.55v-1.07c-.57,.82-1.33,1.23-2.3,1.23-.43,0-.83-.08-1.2-.25-.37-.16-.65-.37-.83-.62-.18-.25-.31-.55-.38-.91-.05-.24-.08-.62-.08-1.15v-4.5h1.23v4.03c0,.64,.03,1.08,.08,1.3,.08,.32,.24,.58,.49,.76s.56,.28,.93,.28,.72-.09,1.04-.28c.32-.19,.55-.45,.69-.77,.13-.33,.2-.8,.2-1.42v-3.89h1.23v7.26h-1.1Z"/><path d="M842.81,427.55v-7.26h1.11v1.03c.53-.8,1.3-1.2,2.31-1.2,.44,0,.84,.08,1.21,.24,.37,.16,.64,.36,.82,.62,.18,.26,.31,.56,.38,.91,.05,.23,.07,.63,.07,1.2v4.46h-1.23v-4.42c0-.5-.05-.88-.14-1.12-.1-.25-.27-.45-.51-.59-.24-.15-.53-.22-.86-.22-.52,0-.98,.17-1.36,.5-.38,.33-.57,.96-.57,1.89v3.96h-1.23Z"/><path d="M850.36,428.15l1.2,.18c.05,.37,.19,.64,.42,.81,.31,.23,.72,.34,1.25,.34,.57,0,1.01-.11,1.32-.34,.31-.23,.52-.55,.63-.96,.06-.25,.09-.78,.09-1.58-.54,.63-1.21,.95-2.01,.95-1,0-1.77-.36-2.32-1.08-.55-.72-.82-1.58-.82-2.59,0-.69,.12-1.33,.38-1.92,.25-.59,.61-1.04,1.09-1.36,.48-.32,1.04-.48,1.68-.48,.86,0,1.56,.35,2.12,1.04v-.88h1.13v6.28c0,1.13-.12,1.93-.35,2.4-.23,.47-.59,.84-1.09,1.12-.5,.27-1.11,.41-1.84,.41-.87,0-1.57-.19-2.1-.58s-.79-.98-.77-1.76Zm1.02-4.36c0,.95,.19,1.65,.57,2.08s.85,.66,1.42,.66,1.04-.22,1.42-.65c.38-.44,.57-1.12,.57-2.05s-.2-1.56-.59-2.01c-.39-.45-.87-.68-1.42-.68s-1.01,.22-1.39,.67-.57,1.1-.57,1.98Z"/></g><rect x="278" y="369.51" width="432.6" height="108.6" style="fill:none; stroke:#000; stroke-miterlimit:8; stroke-width:2px;"/><g><path d="M387.12,392.01v-10.02h4.44c.89,0,1.57,.09,2.04,.27s.84,.5,1.11,.95c.28,.46,.42,.96,.42,1.51,0,.71-.23,1.31-.69,1.8-.46,.49-1.17,.8-2.13,.93,.35,.17,.62,.33,.8,.5,.39,.36,.75,.8,1.1,1.33l1.74,2.73h-1.67l-1.33-2.08c-.39-.6-.71-1.06-.96-1.38-.25-.32-.48-.54-.67-.67-.2-.13-.4-.22-.61-.27-.15-.03-.4-.05-.74-.05h-1.54v4.45h-1.33Zm1.33-5.6h2.85c.61,0,1.08-.06,1.42-.19s.6-.33,.78-.6,.27-.58,.27-.9c0-.47-.17-.86-.52-1.17-.34-.31-.89-.46-1.63-.46h-3.17v3.32Z"/><path d="M402,389.68l1.27,.16c-.2,.74-.57,1.32-1.11,1.73s-1.24,.62-2.08,.62c-1.06,0-1.9-.33-2.53-.98-.62-.65-.93-1.57-.93-2.75s.31-2.17,.94-2.84c.63-.67,1.44-1.01,2.45-1.01s1.76,.33,2.38,.99c.62,.66,.92,1.59,.92,2.79,0,.07,0,.18,0,.33h-5.41c.05,.8,.27,1.41,.68,1.83s.91,.63,1.52,.63c.45,0,.84-.12,1.16-.36,.32-.24,.57-.62,.76-1.13Zm-4.04-1.99h4.05c-.05-.61-.21-1.07-.46-1.38-.39-.47-.9-.71-1.52-.71-.57,0-1.04,.19-1.42,.57-.39,.38-.6,.88-.64,1.52Z"/><path d="M404.88,392.01v-10.02h1.23v5.71l2.91-2.95h1.59l-2.78,2.69,3.06,4.57h-1.52l-2.4-3.71-.87,.83v2.88h-1.23Z"/><path d="M411.88,392.01v-10.02h1.23v10.02h-1.23Z"/><path d="M419.76,391.12c-.46,.39-.89,.66-1.32,.82-.42,.16-.87,.24-1.36,.24-.8,0-1.41-.19-1.84-.58s-.64-.89-.64-1.49c0-.36,.08-.68,.24-.97,.16-.29,.37-.53,.64-.71,.26-.18,.56-.31,.88-.4,.24-.06,.61-.13,1.09-.19,.99-.12,1.72-.26,2.19-.42,0-.17,0-.28,0-.32,0-.5-.12-.86-.35-1.06-.31-.28-.78-.42-1.4-.42-.58,0-1.01,.1-1.28,.3-.28,.2-.48,.56-.61,1.08l-1.2-.16c.11-.52,.29-.93,.54-1.25s.61-.56,1.09-.73,1.02-.26,1.65-.26,1.12,.07,1.51,.22c.39,.15,.67,.33,.85,.55s.31,.5,.38,.84c.04,.21,.06,.59,.06,1.13v1.64c0,1.14,.03,1.87,.08,2.17,.05,.3,.16,.59,.31,.87h-1.29c-.13-.25-.21-.55-.25-.89Zm-.1-2.75c-.45,.18-1.12,.34-2.01,.46-.51,.07-.86,.15-1.07,.25-.21,.09-.37,.22-.49,.4s-.17,.37-.17,.58c0,.33,.12,.6,.37,.82,.25,.22,.61,.33,1.09,.33s.9-.1,1.26-.31,.64-.49,.81-.85c.13-.28,.2-.69,.2-1.23v-.45Z"/><path d="M422.86,392.01v-7.26h1.1v1.02c.23-.36,.53-.64,.91-.86s.81-.33,1.29-.33c.54,0,.98,.11,1.32,.34,.34,.22,.59,.54,.73,.94,.57-.85,1.32-1.27,2.24-1.27,.72,0,1.27,.2,1.66,.6s.58,1.01,.58,1.84v4.98h-1.22v-4.57c0-.49-.04-.85-.12-1.06-.08-.22-.22-.39-.43-.52-.21-.13-.46-.2-.74-.2-.51,0-.93,.17-1.27,.51s-.51,.88-.51,1.63v4.22h-1.23v-4.72c0-.55-.1-.96-.3-1.23s-.53-.41-.98-.41c-.35,0-.67,.09-.96,.27-.29,.18-.51,.45-.64,.8-.13,.35-.2,.86-.2,1.52v3.77h-1.23Z"/><path d="M439.26,391.12c-.46,.39-.89,.66-1.32,.82-.42,.16-.87,.24-1.36,.24-.8,0-1.41-.19-1.84-.58s-.64-.89-.64-1.49c0-.36,.08-.68,.24-.97,.16-.29,.37-.53,.64-.71,.26-.18,.56-.31,.88-.4,.24-.06,.61-.13,1.09-.19,.99-.12,1.72-.26,2.19-.42,0-.17,0-.28,0-.32,0-.5-.12-.86-.35-1.06-.31-.28-.78-.42-1.4-.42-.58,0-1.01,.1-1.28,.3-.28,.2-.48,.56-.61,1.08l-1.2-.16c.11-.52,.29-.93,.54-1.25s.61-.56,1.09-.73,1.02-.26,1.65-.26,1.12,.07,1.51,.22c.39,.15,.67,.33,.85,.55s.31,.5,.38,.84c.04,.21,.06,.59,.06,1.13v1.64c0,1.14,.03,1.87,.08,2.17,.05,.3,.16,.59,.31,.87h-1.29c-.13-.25-.21-.55-.25-.89Zm-.1-2.75c-.45,.18-1.12,.34-2.01,.46-.51,.07-.86,.15-1.07,.25-.21,.09-.37,.22-.49,.4s-.17,.37-.17,.58c0,.33,.12,.6,.37,.82,.25,.22,.61,.33,1.09,.33s.9-.1,1.26-.31,.64-.49,.81-.85c.13-.28,.2-.69,.2-1.23v-.45Z"/><path d="M445.05,390.91l.18,1.09c-.35,.07-.66,.11-.93,.11-.45,0-.79-.07-1.04-.21-.25-.14-.42-.33-.52-.56s-.15-.71-.15-1.45v-4.18h-.9v-.96h.9v-1.8l1.22-.74v2.54h1.24v.96h-1.24v4.25c0,.35,.02,.58,.07,.68,.04,.1,.11,.18,.21,.24,.1,.06,.24,.09,.42,.09,.14,0,.32-.02,.54-.05Z"/><path d="M446.26,383.41v-1.42h1.23v1.42h-1.23Zm0,8.61v-7.26h1.23v7.26h-1.23Z"/><path d="M448.91,388.38c0-1.34,.37-2.34,1.12-2.99,.62-.54,1.39-.81,2.28-.81,1,0,1.81,.33,2.45,.98s.95,1.56,.95,2.71c0,.93-.14,1.67-.42,2.21-.28,.54-.69,.95-1.22,1.25-.54,.3-1.12,.44-1.75,.44-1.02,0-1.84-.33-2.46-.98-.63-.65-.94-1.59-.94-2.82Zm1.26,0c0,.93,.2,1.62,.61,2.09s.92,.69,1.53,.69,1.12-.23,1.52-.7,.61-1.17,.61-2.12c0-.9-.2-1.58-.61-2.04-.41-.46-.92-.69-1.52-.69s-1.13,.23-1.53,.69c-.41,.46-.61,1.16-.61,2.09Z"/><path d="M457.2,392.01v-7.26h1.11v1.03c.53-.8,1.3-1.2,2.31-1.2,.44,0,.84,.08,1.21,.24,.37,.16,.64,.36,.82,.62,.18,.25,.31,.56,.38,.91,.05,.23,.07,.63,.07,1.2v4.46h-1.23v-4.42c0-.5-.05-.88-.14-1.12s-.27-.45-.51-.59c-.24-.15-.53-.22-.86-.22-.52,0-.98,.17-1.36,.5-.38,.33-.57,.96-.57,1.89v3.96h-1.23Z"/><path d="M464.49,389.85l1.22-.19c.07,.49,.26,.86,.57,1.12,.31,.26,.75,.39,1.31,.39s.98-.12,1.26-.34,.41-.5,.41-.81c0-.28-.12-.5-.36-.66-.17-.11-.59-.25-1.26-.42-.9-.23-1.53-.42-1.88-.59-.35-.17-.61-.4-.79-.69-.18-.29-.27-.62-.27-.97,0-.32,.07-.62,.22-.9,.15-.28,.35-.5,.61-.69,.19-.14,.45-.26,.78-.36,.33-.1,.68-.15,1.06-.15,.57,0,1.07,.08,1.5,.25,.43,.16,.75,.39,.95,.67s.35,.66,.42,1.12l-1.2,.16c-.05-.37-.21-.67-.48-.88-.26-.21-.63-.31-1.11-.31-.57,0-.97,.09-1.21,.28-.24,.19-.36,.41-.36,.66,0,.16,.05,.3,.15,.43,.1,.13,.26,.24,.47,.33,.12,.05,.49,.15,1.09,.31,.87,.23,1.48,.42,1.82,.57,.34,.15,.61,.36,.81,.65,.2,.28,.29,.63,.29,1.05s-.12,.8-.36,1.16c-.24,.36-.58,.64-1.04,.84s-.96,.3-1.53,.3c-.94,0-1.66-.2-2.16-.59-.49-.39-.81-.97-.95-1.74Z"/><path d="M471.5,389.01v-1.24h3.78v1.24h-3.78Z"/><path d="M485.29,392.01v-1.07c-.57,.82-1.33,1.23-2.3,1.23-.43,0-.83-.08-1.2-.25-.37-.16-.65-.37-.83-.62-.18-.25-.31-.55-.38-.91-.05-.24-.08-.62-.08-1.15v-4.5h1.23v4.03c0,.64,.03,1.08,.08,1.3,.08,.32,.24,.58,.49,.76s.56,.28,.93,.28,.72-.1,1.04-.28,.55-.45,.69-.77c.13-.33,.2-.8,.2-1.42v-3.89h1.23v7.26h-1.1Z"/><path d="M488.32,392.01v-7.26h1.11v1.03c.53-.8,1.3-1.2,2.31-1.2,.44,0,.84,.08,1.21,.24,.37,.16,.64,.36,.82,.62,.18,.25,.31,.56,.38,.91,.05,.23,.07,.63,.07,1.2v4.46h-1.23v-4.42c0-.5-.05-.88-.14-1.12s-.27-.45-.51-.59c-.24-.15-.53-.22-.86-.22-.52,0-.98,.17-1.36,.5-.38,.33-.57,.96-.57,1.89v3.96h-1.23Z"/><path d="M500.8,392.01v-.92c-.46,.72-1.14,1.08-2.03,1.08-.58,0-1.11-.16-1.6-.48-.48-.32-.86-.76-1.13-1.34-.27-.57-.4-1.23-.4-1.97s.12-1.38,.36-1.97,.6-1.04,1.09-1.36,1.02-.47,1.62-.47c.44,0,.83,.09,1.17,.28s.62,.42,.83,.72v-3.6h1.22v10.02h-1.14Zm-3.89-3.62c0,.93,.2,1.62,.59,2.09,.39,.46,.85,.69,1.39,.69s.99-.22,1.37-.66c.38-.44,.56-1.11,.56-2.01,0-.99-.19-1.72-.57-2.19s-.85-.7-1.42-.7-1,.22-1.37,.67c-.37,.45-.55,1.15-.55,2.11Z"/><path d="M507.39,388.79l1.25-.11c.06,.5,.2,.91,.41,1.23,.22,.32,.55,.58,1.01,.78s.97,.3,1.54,.3c.51,0,.95-.08,1.34-.23s.68-.36,.87-.62c.19-.26,.28-.55,.28-.86s-.09-.59-.27-.82-.48-.43-.9-.59c-.27-.11-.86-.27-1.78-.49s-1.57-.43-1.93-.63c-.48-.25-.83-.56-1.07-.93-.23-.37-.35-.79-.35-1.25,0-.51,.14-.98,.43-1.42s.71-.77,1.26-1c.55-.23,1.16-.34,1.84-.34,.74,0,1.4,.12,1.96,.36,.57,.24,1,.59,1.31,1.06s.47,.99,.49,1.58l-1.27,.1c-.07-.63-.3-1.11-.69-1.44-.39-.32-.98-.49-1.75-.49s-1.39,.15-1.75,.44c-.37,.29-.55,.65-.55,1.06,0,.36,.13,.66,.39,.89,.25,.23,.92,.47,2,.71,1.08,.24,1.82,.46,2.22,.64,.58,.27,1.01,.61,1.29,1.02s.42,.89,.42,1.42-.15,1.04-.46,1.51-.74,.84-1.32,1.1c-.57,.26-1.21,.39-1.93,.39-.91,0-1.67-.13-2.28-.4-.61-.26-1.09-.66-1.44-1.19-.35-.53-.53-1.13-.55-1.8Z"/><path d="M521.99,389.68l1.27,.16c-.2,.74-.57,1.32-1.11,1.73s-1.24,.62-2.08,.62c-1.06,0-1.9-.33-2.53-.98-.62-.65-.93-1.57-.93-2.75s.31-2.17,.94-2.84c.63-.67,1.44-1.01,2.45-1.01s1.76,.33,2.38,.99c.62,.66,.92,1.59,.92,2.79,0,.07,0,.18,0,.33h-5.41c.05,.8,.27,1.41,.68,1.83s.91,.63,1.52,.63c.45,0,.84-.12,1.16-.36,.32-.24,.57-.62,.76-1.13Zm-4.04-1.99h4.05c-.05-.61-.21-1.07-.46-1.38-.39-.47-.9-.71-1.52-.71-.57,0-1.04,.19-1.42,.57-.39,.38-.6,.88-.64,1.52Z"/><path d="M524.84,392.01v-7.26h1.11v1.1c.28-.52,.54-.86,.78-1.02,.24-.16,.5-.25,.79-.25,.42,0,.84,.13,1.26,.4l-.42,1.14c-.3-.18-.6-.27-.9-.27-.27,0-.51,.08-.72,.24s-.37,.39-.46,.67c-.14,.44-.21,.92-.21,1.44v3.8h-1.23Z"/><path d="M531.53,392.01l-2.76-7.26h1.3l1.56,4.35c.17,.47,.32,.96,.46,1.46,.11-.38,.26-.84,.46-1.38l1.61-4.43h1.26l-2.75,7.26h-1.15Z"/><path d="M536.55,383.41v-1.42h1.23v1.42h-1.23Zm0,8.61v-7.26h1.23v7.26h-1.23Z"/><path d="M544.37,389.36l1.21,.16c-.13,.83-.47,1.49-1.01,1.96-.54,.47-1.21,.71-2.01,.71-.99,0-1.79-.32-2.4-.97-.6-.65-.91-1.58-.91-2.79,0-.78,.13-1.47,.39-2.06s.66-1.03,1.19-1.32c.53-.29,1.11-.44,1.73-.44,.79,0,1.43,.2,1.93,.6s.82,.96,.96,1.7l-1.2,.19c-.11-.49-.32-.86-.6-1.1-.29-.25-.64-.37-1.05-.37-.62,0-1.12,.22-1.51,.67s-.58,1.15-.58,2.11,.19,1.68,.56,2.13c.37,.44,.86,.66,1.46,.66,.48,0,.89-.15,1.21-.44,.32-.3,.53-.75,.62-1.37Z"/><path d="M551.62,389.68l1.27,.16c-.2,.74-.57,1.32-1.11,1.73s-1.24,.62-2.08,.62c-1.06,0-1.9-.33-2.53-.98-.62-.65-.93-1.57-.93-2.75s.31-2.17,.94-2.84c.63-.67,1.44-1.01,2.45-1.01s1.76,.33,2.38,.99c.62,.66,.92,1.59,.92,2.79,0,.07,0,.18,0,.33h-5.41c.05,.8,.27,1.41,.68,1.83s.91,.63,1.52,.63c.45,0,.84-.12,1.16-.36,.32-.24,.57-.62,.76-1.13Zm-4.04-1.99h4.05c-.05-.61-.21-1.07-.46-1.38-.39-.47-.9-.71-1.52-.71-.57,0-1.04,.19-1.42,.57-.39,.38-.6,.88-.64,1.52Z"/><path d="M554.48,394.8v-10.04h1.12v.94c.26-.37,.56-.65,.9-.83s.74-.28,1.21-.28c.62,0,1.17,.16,1.64,.48,.47,.32,.83,.77,1.07,1.35s.36,1.22,.36,1.91c0,.74-.13,1.41-.4,2.01-.27,.59-.65,1.05-1.16,1.37-.51,.32-1.04,.47-1.6,.47-.41,0-.78-.09-1.1-.26-.33-.17-.59-.39-.8-.66v3.54h-1.23Zm1.11-6.37c0,.93,.19,1.62,.57,2.07,.38,.45,.84,.67,1.37,.67s1.02-.23,1.4-.69c.39-.46,.58-1.18,.58-2.15s-.19-1.62-.57-2.08c-.38-.46-.83-.69-1.36-.69s-.99,.24-1.39,.73c-.4,.49-.61,1.2-.61,2.14Z"/><path d="M562.22,392.01v-7.26h1.11v1.1c.28-.52,.54-.86,.78-1.02,.24-.16,.5-.25,.79-.25,.42,0,.84,.13,1.26,.4l-.42,1.14c-.3-.18-.6-.27-.9-.27-.27,0-.51,.08-.72,.24s-.37,.39-.46,.67c-.14,.44-.21,.92-.21,1.44v3.8h-1.23Z"/><path d="M566.44,388.38c0-1.34,.37-2.34,1.12-2.99,.62-.54,1.39-.81,2.28-.81,1,0,1.81,.33,2.45,.98s.95,1.56,.95,2.71c0,.93-.14,1.67-.42,2.21-.28,.54-.69,.95-1.22,1.25-.54,.3-1.12,.44-1.75,.44-1.02,0-1.84-.33-2.46-.98-.63-.65-.94-1.59-.94-2.82Zm1.26,0c0,.93,.2,1.62,.61,2.09s.92,.69,1.53,.69,1.12-.23,1.52-.7,.61-1.17,.61-2.12c0-.9-.2-1.58-.61-2.04-.41-.46-.92-.69-1.52-.69s-1.13,.23-1.53,.69c-.41,.46-.61,1.16-.61,2.09Z"/><path d="M574.06,392.01v-1l4.62-5.3c-.52,.03-.99,.04-1.39,.04h-2.96v-1h5.93v.81l-3.93,4.61-.76,.84c.55-.04,1.07-.06,1.55-.06h3.36v1.06h-6.43Z"/><path d="M586.67,389.68l1.27,.16c-.2,.74-.57,1.32-1.11,1.73s-1.24,.62-2.08,.62c-1.06,0-1.9-.33-2.53-.98-.62-.65-.93-1.57-.93-2.75s.31-2.17,.94-2.84c.63-.67,1.44-1.01,2.45-1.01s1.76,.33,2.38,.99c.62,.66,.92,1.59,.92,2.79,0,.07,0,.18,0,.33h-5.41c.05,.8,.27,1.41,.68,1.83s.91,.63,1.52,.63c.45,0,.84-.12,1.16-.36,.32-.24,.57-.62,.76-1.13Zm-4.04-1.99h4.05c-.05-.61-.21-1.07-.46-1.38-.39-.47-.9-.71-1.52-.71-.57,0-1.04,.19-1.42,.57-.39,.38-.6,.88-.64,1.52Z"/><path d="M589.04,389.85l1.22-.19c.07,.49,.26,.86,.57,1.12,.31,.26,.75,.39,1.31,.39s.98-.12,1.26-.34,.41-.5,.41-.81c0-.28-.12-.5-.36-.66-.17-.11-.59-.25-1.26-.42-.9-.23-1.53-.42-1.88-.59-.35-.17-.61-.4-.79-.69-.18-.29-.27-.62-.27-.97,0-.32,.07-.62,.22-.9,.15-.28,.35-.5,.61-.69,.19-.14,.45-.26,.78-.36,.33-.1,.68-.15,1.06-.15,.57,0,1.07,.08,1.5,.25,.43,.16,.75,.39,.95,.67s.35,.66,.42,1.12l-1.2,.16c-.05-.37-.21-.67-.48-.88-.26-.21-.63-.31-1.11-.31-.57,0-.97,.09-1.21,.28-.24,.19-.36,.41-.36,.66,0,.16,.05,.3,.15,.43,.1,.13,.26,.24,.47,.33,.12,.05,.49,.15,1.09,.31,.87,.23,1.48,.42,1.82,.57,.34,.15,.61,.36,.81,.65,.2,.28,.29,.63,.29,1.05s-.12,.8-.36,1.16c-.24,.36-.58,.64-1.04,.84s-.96,.3-1.53,.3c-.94,0-1.66-.2-2.16-.59-.49-.39-.81-.97-.95-1.74Z"/><path d="M596.01,389.85l1.22-.19c.07,.49,.26,.86,.57,1.12,.31,.26,.75,.39,1.31,.39s.98-.12,1.26-.34,.41-.5,.41-.81c0-.28-.12-.5-.36-.66-.17-.11-.59-.25-1.26-.42-.9-.23-1.53-.42-1.88-.59-.35-.17-.61-.4-.79-.69-.18-.29-.27-.62-.27-.97,0-.32,.07-.62,.22-.9,.15-.28,.35-.5,.61-.69,.19-.14,.45-.26,.78-.36,.33-.1,.68-.15,1.06-.15,.57,0,1.07,.08,1.5,.25,.43,.16,.75,.39,.95,.67s.35,.66,.42,1.12l-1.2,.16c-.05-.37-.21-.67-.48-.88-.26-.21-.63-.31-1.11-.31-.57,0-.97,.09-1.21,.28-.24,.19-.36,.41-.36,.66,0,.16,.05,.3,.15,.43,.1,.13,.26,.24,.47,.33,.12,.05,.49,.15,1.09,.31,.87,.23,1.48,.42,1.82,.57,.34,.15,.61,.36,.81,.65,.2,.28,.29,.63,.29,1.05s-.12,.8-.36,1.16c-.24,.36-.58,.64-1.04,.84s-.96,.3-1.53,.3c-.94,0-1.66-.2-2.16-.59-.49-.39-.81-.97-.95-1.74Z"/></g><rect x="321.5" y="408.31" width="51.6" height="51" style="fill:#fff; stroke:#000; stroke-miterlimit:8;"/><rect x="416.9" y="408.31" width="51" height="51" style="fill:#fff; stroke:#000; stroke-miterlimit:8;"/><rect x="512.3" y="408.31" width="51" height="51" style="fill:#fff; stroke:#000; stroke-miterlimit:8;"/><rect x="607.7" y="408.31" width="51" height="51" style="fill:#fff; stroke:#000; stroke-miterlimit:8;"/><rect x="74.6" y="268.91" width="153" height="51" style="fill:#fff; stroke:#000; stroke-miterlimit:8;"/><g><path d="M123.89,298.15l3.85-10.02h1.43l4.1,10.02h-1.51l-1.17-3.04h-4.19l-1.1,3.04h-1.41Zm2.89-4.12h3.4l-1.05-2.78c-.32-.84-.56-1.54-.71-2.08-.13,.64-.31,1.28-.54,1.91l-1.1,2.94Z"/><path d="M138.89,298.15v-1.07c-.57,.82-1.33,1.23-2.3,1.23-.43,0-.83-.08-1.2-.25-.37-.16-.65-.37-.83-.62-.18-.25-.31-.55-.38-.91-.05-.24-.08-.62-.08-1.15v-4.5h1.23v4.03c0,.64,.03,1.08,.08,1.3,.08,.32,.24,.58,.49,.76s.56,.28,.93,.28,.72-.09,1.04-.28c.32-.19,.55-.45,.69-.77,.13-.33,.2-.8,.2-1.42v-3.89h1.23v7.26h-1.1Z"/><path d="M142.21,298.15v-6.3h-1.09v-.96h1.09v-.77c0-.49,.04-.85,.13-1.09,.12-.32,.33-.58,.63-.78,.3-.2,.72-.3,1.25-.3,.35,0,.73,.04,1.15,.12l-.18,1.07c-.25-.05-.5-.07-.72-.07-.37,0-.64,.08-.79,.24-.16,.16-.23,.46-.23,.9v.67h1.42v.96h-1.42v6.3h-1.22Z"/><path d="M148.49,297.05l.18,1.09c-.35,.07-.66,.11-.93,.11-.45,0-.79-.07-1.04-.21-.25-.14-.42-.33-.52-.56-.1-.23-.15-.71-.15-1.45v-4.18h-.9v-.96h.9v-1.8l1.22-.74v2.54h1.24v.96h-1.24v4.25c0,.35,.02,.58,.07,.68,.04,.1,.11,.18,.21,.24,.1,.06,.24,.09,.42,.09,.14,0,.32-.02,.54-.05Z"/><path d="M149.67,298.15v-7.26h1.11v1.1c.28-.52,.54-.85,.78-1.02,.24-.16,.5-.25,.79-.25,.42,0,.84,.13,1.26,.4l-.42,1.14c-.3-.18-.6-.27-.9-.27-.27,0-.51,.08-.72,.24-.21,.16-.37,.39-.46,.67-.14,.44-.21,.92-.21,1.44v3.8h-1.23Z"/><path d="M159.08,297.25c-.46,.39-.89,.66-1.32,.82-.42,.16-.87,.24-1.36,.24-.8,0-1.41-.2-1.84-.58s-.64-.89-.64-1.49c0-.36,.08-.68,.24-.97,.16-.29,.37-.53,.64-.71,.26-.18,.56-.31,.88-.4,.24-.06,.61-.13,1.09-.18,.99-.12,1.72-.26,2.19-.42,0-.17,0-.28,0-.32,0-.5-.12-.85-.35-1.06-.31-.28-.78-.42-1.4-.42-.58,0-1.01,.1-1.28,.3-.28,.2-.48,.56-.61,1.08l-1.2-.16c.11-.52,.29-.93,.54-1.25,.25-.32,.61-.56,1.09-.73s1.02-.26,1.65-.26,1.12,.07,1.51,.22c.39,.15,.67,.33,.85,.55,.18,.22,.31,.5,.38,.84,.04,.21,.06,.59,.06,1.13v1.64c0,1.14,.03,1.87,.08,2.17,.05,.3,.16,.59,.31,.87h-1.29c-.13-.26-.21-.55-.25-.9Zm-.1-2.75c-.45,.18-1.12,.34-2.01,.46-.51,.07-.86,.15-1.07,.25-.21,.09-.37,.22-.49,.4-.11,.18-.17,.37-.17,.58,0,.33,.12,.6,.37,.82,.25,.22,.61,.33,1.09,.33s.9-.1,1.26-.31c.37-.21,.64-.49,.81-.85,.13-.28,.2-.69,.2-1.23v-.45Z"/><path d="M161.94,298.75l1.2,.18c.05,.37,.19,.64,.42,.81,.31,.23,.72,.34,1.25,.34,.57,0,1.01-.11,1.32-.34,.31-.23,.52-.55,.63-.96,.06-.25,.09-.78,.09-1.58-.54,.63-1.21,.95-2.01,.95-1,0-1.77-.36-2.32-1.08-.55-.72-.82-1.58-.82-2.59,0-.69,.12-1.33,.38-1.92,.25-.58,.61-1.04,1.09-1.36,.48-.32,1.04-.48,1.68-.48,.86,0,1.56,.35,2.12,1.04v-.88h1.13v6.28c0,1.13-.12,1.93-.35,2.4-.23,.47-.59,.84-1.09,1.12-.5,.27-1.11,.41-1.84,.41-.87,0-1.57-.2-2.1-.58s-.79-.98-.77-1.76Zm1.02-4.36c0,.95,.19,1.65,.57,2.08s.85,.66,1.42,.66,1.04-.22,1.42-.65c.38-.43,.57-1.12,.57-2.05s-.2-1.56-.59-2.01c-.39-.45-.87-.68-1.42-.68s-1.01,.22-1.39,.67-.57,1.1-.57,1.98Z"/></g><rect x="760.4" y="268.91" width="153" height="51" style="fill:#fff; stroke:#000; stroke-miterlimit:8;"/><g><path d="M804.47,298.15v-10.02h1.33v8.84h4.94v1.18h-6.26Z"/><path d="M812.15,289.54v-1.42h1.23v1.42h-1.23Zm0,8.61v-7.26h1.23v7.26h-1.23Z"/><path d="M820.21,295.81l1.27,.16c-.2,.74-.57,1.32-1.11,1.73s-1.24,.62-2.08,.62c-1.06,0-1.9-.33-2.53-.98-.62-.65-.93-1.57-.93-2.75s.31-2.17,.94-2.84c.63-.67,1.44-1.01,2.45-1.01s1.76,.33,2.38,.99c.62,.66,.92,1.59,.92,2.79,0,.07,0,.18,0,.33h-5.41c.05,.8,.27,1.41,.68,1.83s.91,.64,1.52,.64c.45,0,.84-.12,1.16-.36,.32-.24,.57-.62,.76-1.13Zm-4.04-1.99h4.05c-.05-.61-.21-1.07-.46-1.37-.39-.47-.9-.71-1.52-.71-.57,0-1.04,.19-1.42,.57-.39,.38-.6,.88-.64,1.52Z"/><path d="M823.36,298.15v-6.3h-1.09v-.96h1.09v-.77c0-.49,.04-.85,.13-1.09,.12-.32,.33-.58,.63-.78,.3-.2,.72-.3,1.25-.3,.35,0,.73,.04,1.15,.12l-.18,1.07c-.25-.05-.5-.07-.72-.07-.37,0-.64,.08-.79,.24-.16,.16-.23,.46-.23,.9v.67h1.42v.96h-1.42v6.3h-1.22Z"/><path d="M831.92,295.81l1.27,.16c-.2,.74-.57,1.32-1.11,1.73s-1.24,.62-2.08,.62c-1.06,0-1.9-.33-2.53-.98-.62-.65-.93-1.57-.93-2.75s.31-2.17,.94-2.84c.63-.67,1.44-1.01,2.45-1.01s1.76,.33,2.38,.99c.62,.66,.92,1.59,.92,2.79,0,.07,0,.18,0,.33h-5.41c.05,.8,.27,1.41,.68,1.83s.91,.64,1.52,.64c.45,0,.84-.12,1.16-.36,.32-.24,.57-.62,.76-1.13Zm-4.04-1.99h4.05c-.05-.61-.21-1.07-.46-1.37-.39-.47-.9-.71-1.52-.71-.57,0-1.04,.19-1.42,.57-.39,.38-.6,.88-.64,1.52Z"/><path d="M834.77,298.15v-7.26h1.11v1.1c.28-.52,.54-.85,.78-1.02,.24-.16,.5-.25,.79-.25,.42,0,.84,.13,1.26,.4l-.42,1.14c-.3-.18-.6-.27-.9-.27-.27,0-.51,.08-.72,.24-.21,.16-.37,.39-.46,.67-.14,.44-.21,.92-.21,1.44v3.8h-1.23Z"/><path d="M844.2,298.15v-1.07c-.57,.82-1.33,1.23-2.3,1.23-.43,0-.83-.08-1.2-.25-.37-.16-.65-.37-.83-.62-.18-.25-.31-.55-.38-.91-.05-.24-.08-.62-.08-1.15v-4.5h1.23v4.03c0,.64,.03,1.08,.08,1.3,.08,.32,.24,.58,.49,.76s.56,.28,.93,.28,.72-.09,1.04-.28c.32-.19,.55-.45,.69-.77,.13-.33,.2-.8,.2-1.42v-3.89h1.23v7.26h-1.1Z"/><path d="M847.23,298.15v-7.26h1.11v1.03c.53-.8,1.3-1.2,2.31-1.2,.44,0,.84,.08,1.21,.24,.37,.16,.64,.36,.82,.62,.18,.25,.31,.56,.38,.91,.05,.23,.07,.63,.07,1.2v4.46h-1.23v-4.42c0-.5-.05-.88-.14-1.12-.1-.25-.27-.45-.51-.59-.24-.15-.53-.22-.86-.22-.52,0-.98,.17-1.36,.5-.38,.33-.57,.96-.57,1.89v3.96h-1.23Z"/><path d="M854.78,298.75l1.2,.18c.05,.37,.19,.64,.42,.81,.31,.23,.72,.34,1.25,.34,.57,0,1.01-.11,1.32-.34,.31-.23,.52-.55,.63-.96,.06-.25,.09-.78,.09-1.58-.54,.63-1.21,.95-2.01,.95-1,0-1.77-.36-2.32-1.08-.55-.72-.82-1.58-.82-2.59,0-.69,.12-1.33,.38-1.92,.25-.58,.61-1.04,1.09-1.36,.48-.32,1.04-.48,1.68-.48,.86,0,1.56,.35,2.12,1.04v-.88h1.13v6.28c0,1.13-.12,1.93-.35,2.4-.23,.47-.59,.84-1.09,1.12-.5,.27-1.11,.41-1.84,.41-.87,0-1.57-.2-2.1-.58s-.79-.98-.77-1.76Zm1.02-4.36c0,.95,.19,1.65,.57,2.08s.85,.66,1.42,.66,1.04-.22,1.42-.65c.38-.43,.57-1.12,.57-2.05s-.2-1.56-.59-2.01c-.39-.45-.87-.68-1.42-.68s-1.01,.22-1.39,.67-.57,1.1-.57,1.98Z"/></g><rect x="278" y="240.11" width="432.6" height="108.6" style="fill:none; stroke:#000; stroke-miterlimit:8; stroke-width:2px;"/><g><path d="M405.62,262.61l3.85-10.02h1.43l4.1,10.02h-1.51l-1.17-3.04h-4.19l-1.1,3.04h-1.41Zm2.89-4.12h3.4l-1.05-2.78c-.32-.84-.56-1.54-.71-2.08-.13,.64-.31,1.28-.54,1.91l-1.1,2.94Z"/><path d="M420.62,262.61v-1.07c-.57,.82-1.33,1.23-2.3,1.23-.43,0-.83-.08-1.2-.25-.37-.16-.65-.37-.83-.62-.18-.25-.31-.55-.38-.91-.05-.24-.08-.62-.08-1.15v-4.5h1.23v4.03c0,.64,.03,1.08,.08,1.3,.08,.32,.24,.58,.49,.76s.56,.28,.93,.28,.72-.1,1.04-.28,.55-.45,.69-.77c.13-.33,.2-.8,.2-1.42v-3.89h1.23v7.26h-1.1Z"/><path d="M423.94,262.61v-6.3h-1.09v-.96h1.09v-.77c0-.49,.04-.85,.13-1.09,.12-.32,.33-.58,.63-.78,.3-.2,.72-.3,1.25-.3,.35,0,.73,.04,1.15,.12l-.18,1.07c-.25-.04-.5-.07-.72-.07-.37,0-.64,.08-.79,.24-.16,.16-.23,.46-.23,.89v.67h1.42v.96h-1.42v6.3h-1.22Z"/><path d="M430.22,261.51l.18,1.09c-.35,.07-.66,.11-.93,.11-.45,0-.79-.07-1.04-.21-.25-.14-.42-.33-.52-.56s-.15-.71-.15-1.45v-4.18h-.9v-.96h.9v-1.8l1.22-.74v2.54h1.24v.96h-1.24v4.25c0,.35,.02,.58,.07,.68,.04,.1,.11,.18,.21,.24,.1,.06,.24,.09,.42,.09,.14,0,.32-.02,.54-.05Z"/><path d="M431.4,262.61v-7.26h1.11v1.1c.28-.52,.54-.86,.78-1.02,.24-.16,.5-.25,.79-.25,.42,0,.84,.13,1.26,.4l-.42,1.14c-.3-.18-.6-.27-.9-.27-.27,0-.51,.08-.72,.24s-.37,.39-.46,.67c-.14,.44-.21,.92-.21,1.44v3.8h-1.23Z"/><path d="M440.81,261.72c-.46,.39-.89,.66-1.32,.82-.42,.16-.87,.24-1.36,.24-.8,0-1.41-.19-1.84-.58s-.64-.89-.64-1.49c0-.36,.08-.68,.24-.97,.16-.29,.37-.53,.64-.71,.26-.18,.56-.31,.88-.4,.24-.06,.61-.13,1.09-.19,.99-.12,1.72-.26,2.19-.42,0-.17,0-.28,0-.32,0-.5-.12-.86-.35-1.06-.31-.28-.78-.42-1.4-.42-.58,0-1.01,.1-1.28,.3-.28,.2-.48,.56-.61,1.08l-1.2-.16c.11-.52,.29-.93,.54-1.25s.61-.56,1.09-.73,1.02-.26,1.65-.26,1.12,.07,1.51,.22c.39,.15,.67,.33,.85,.55s.31,.5,.38,.84c.04,.21,.06,.59,.06,1.13v1.64c0,1.14,.03,1.87,.08,2.17,.05,.3,.16,.59,.31,.87h-1.29c-.13-.25-.21-.55-.25-.89Zm-.1-2.75c-.45,.18-1.12,.34-2.01,.46-.51,.07-.86,.15-1.07,.25-.21,.09-.37,.22-.49,.4s-.17,.37-.17,.58c0,.33,.12,.6,.37,.82,.25,.22,.61,.33,1.09,.33s.9-.1,1.26-.31,.64-.49,.81-.85c.13-.28,.2-.69,.2-1.23v-.45Z"/><path d="M443.68,263.21l1.2,.18c.05,.37,.19,.64,.42,.81,.31,.23,.72,.34,1.25,.34,.57,0,1.01-.11,1.32-.34,.31-.23,.52-.55,.63-.96,.06-.25,.09-.78,.09-1.58-.54,.63-1.21,.95-2.01,.95-1,0-1.77-.36-2.32-1.08-.55-.72-.82-1.58-.82-2.59,0-.69,.12-1.33,.38-1.92s.61-1.04,1.09-1.36c.48-.32,1.04-.48,1.68-.48,.86,0,1.56,.35,2.12,1.04v-.88h1.13v6.28c0,1.13-.12,1.93-.35,2.4-.23,.47-.59,.84-1.09,1.12-.5,.27-1.11,.41-1.84,.41-.87,0-1.57-.2-2.1-.58s-.79-.98-.77-1.76Zm1.02-4.36c0,.95,.19,1.65,.57,2.09s.85,.66,1.42,.66,1.04-.22,1.42-.65,.57-1.12,.57-2.05-.2-1.56-.59-2.01c-.39-.45-.87-.68-1.42-.68s-1.01,.22-1.39,.67-.57,1.1-.57,1.98Z"/><path d="M451.16,260.45l1.22-.19c.07,.49,.26,.86,.57,1.12,.31,.26,.75,.39,1.31,.39s.98-.12,1.26-.34,.41-.5,.41-.81c0-.28-.12-.5-.36-.66-.17-.11-.59-.25-1.26-.42-.9-.23-1.53-.42-1.88-.59-.35-.17-.61-.4-.79-.69-.18-.29-.27-.62-.27-.97,0-.32,.07-.62,.22-.9,.15-.28,.35-.5,.61-.69,.19-.14,.45-.26,.78-.36,.33-.1,.68-.15,1.06-.15,.57,0,1.07,.08,1.5,.25,.43,.16,.75,.39,.95,.67s.35,.66,.42,1.12l-1.2,.16c-.05-.37-.21-.67-.48-.88-.26-.21-.63-.31-1.11-.31-.57,0-.97,.09-1.21,.28-.24,.19-.36,.41-.36,.66,0,.16,.05,.3,.15,.43,.1,.13,.26,.24,.47,.33,.12,.05,.49,.15,1.09,.31,.87,.23,1.48,.42,1.82,.57,.34,.15,.61,.36,.81,.65,.2,.28,.29,.63,.29,1.05s-.12,.8-.36,1.16c-.24,.36-.58,.64-1.04,.84s-.96,.3-1.53,.3c-.94,0-1.66-.2-2.16-.59-.49-.39-.81-.97-.95-1.74Z"/><path d="M463.37,261.72c-.46,.39-.89,.66-1.32,.82-.42,.16-.87,.24-1.36,.24-.8,0-1.41-.19-1.84-.58s-.64-.89-.64-1.49c0-.36,.08-.68,.24-.97,.16-.29,.37-.53,.64-.71,.26-.18,.56-.31,.88-.4,.24-.06,.61-.13,1.09-.19,.99-.12,1.72-.26,2.19-.42,0-.17,0-.28,0-.32,0-.5-.12-.86-.35-1.06-.31-.28-.78-.42-1.4-.42-.58,0-1.01,.1-1.28,.3-.28,.2-.48,.56-.61,1.08l-1.2-.16c.11-.52,.29-.93,.54-1.25s.61-.56,1.09-.73,1.02-.26,1.65-.26,1.12,.07,1.51,.22c.39,.15,.67,.33,.85,.55s.31,.5,.38,.84c.04,.21,.06,.59,.06,1.13v1.64c0,1.14,.03,1.87,.08,2.17,.05,.3,.16,.59,.31,.87h-1.29c-.13-.25-.21-.55-.25-.89Zm-.1-2.75c-.45,.18-1.12,.34-2.01,.46-.51,.07-.86,.15-1.07,.25-.21,.09-.37,.22-.49,.4s-.17,.37-.17,.58c0,.33,.12,.6,.37,.82,.25,.22,.61,.33,1.09,.33s.9-.1,1.26-.31,.64-.49,.81-.85c.13-.28,.2-.69,.2-1.23v-.45Z"/><path d="M467.6,262.61h-1.14v-10.02h1.23v3.58c.52-.65,1.18-.98,1.99-.98,.45,0,.87,.09,1.27,.27,.4,.18,.73,.43,.98,.76,.26,.33,.46,.72,.6,1.18,.15,.46,.22,.95,.22,1.48,0,1.24-.31,2.21-.92,2.88-.62,.68-1.35,1.02-2.21,1.02s-1.53-.36-2.02-1.07v.91Zm-.01-3.68c0,.87,.12,1.5,.36,1.89,.39,.63,.91,.95,1.57,.95,.54,0,1-.23,1.39-.7s.59-1.16,.59-2.09-.19-1.65-.56-2.1c-.38-.45-.83-.68-1.36-.68s-1,.23-1.39,.7-.59,1.14-.59,2.03Z"/><path d="M475.56,262.61l-2.22-7.26h1.27l1.16,4.19,.43,1.56c.02-.08,.14-.58,.38-1.5l1.16-4.25h1.26l1.09,4.21,.36,1.39,.42-1.4,1.24-4.2h1.2l-2.27,7.26h-1.28l-1.16-4.35-.28-1.24-1.47,5.58h-1.29Z"/><path d="M484.32,254.01v-1.42h1.23v1.42h-1.23Zm0,8.61v-7.26h1.23v7.26h-1.23Z"/><path d="M492.15,259.95l1.21,.16c-.13,.83-.47,1.49-1.01,1.96-.54,.47-1.21,.71-2.01,.71-.99,0-1.79-.32-2.4-.97-.6-.65-.91-1.58-.91-2.79,0-.78,.13-1.47,.39-2.06s.66-1.03,1.19-1.32c.53-.29,1.11-.44,1.73-.44,.79,0,1.43,.2,1.93,.6s.82,.96,.96,1.7l-1.2,.19c-.11-.49-.32-.86-.6-1.1-.29-.25-.64-.37-1.05-.37-.62,0-1.12,.22-1.51,.67s-.58,1.15-.58,2.11,.19,1.68,.56,2.13c.37,.44,.86,.66,1.46,.66,.48,0,.89-.15,1.21-.44,.32-.3,.53-.75,.62-1.37Z"/><path d="M494.43,262.61v-10.02h1.23v5.71l2.91-2.95h1.59l-2.78,2.69,3.06,4.57h-1.52l-2.4-3.71-.87,.83v2.88h-1.23Z"/><path d="M501.44,262.61v-10.02h1.23v10.02h-1.23Z"/><path d="M509.32,262.61v-1.07c-.57,.82-1.33,1.23-2.3,1.23-.43,0-.83-.08-1.2-.25-.37-.16-.65-.37-.83-.62-.18-.25-.31-.55-.38-.91-.05-.24-.08-.62-.08-1.15v-4.5h1.23v4.03c0,.64,.03,1.08,.08,1.3,.08,.32,.24,.58,.49,.76s.56,.28,.93,.28,.72-.1,1.04-.28,.55-.45,.69-.77c.13-.33,.2-.8,.2-1.42v-3.89h1.23v7.26h-1.1Z"/><path d="M512.35,262.61v-7.26h1.11v1.03c.53-.8,1.3-1.2,2.31-1.2,.44,0,.84,.08,1.21,.24,.37,.16,.64,.36,.82,.62,.18,.25,.31,.56,.38,.91,.05,.23,.07,.63,.07,1.2v4.46h-1.23v-4.42c0-.5-.05-.88-.14-1.12s-.27-.45-.51-.59c-.24-.15-.53-.22-.86-.22-.52,0-.98,.17-1.36,.5-.38,.33-.57,.96-.57,1.89v3.96h-1.23Z"/><path d="M519.9,263.21l1.2,.18c.05,.37,.19,.64,.42,.81,.31,.23,.72,.34,1.25,.34,.57,0,1.01-.11,1.32-.34,.31-.23,.52-.55,.63-.96,.06-.25,.09-.78,.09-1.58-.54,.63-1.21,.95-2.01,.95-1,0-1.77-.36-2.32-1.08-.55-.72-.82-1.58-.82-2.59,0-.69,.12-1.33,.38-1.92s.61-1.04,1.09-1.36c.48-.32,1.04-.48,1.68-.48,.86,0,1.56,.35,2.12,1.04v-.88h1.13v6.28c0,1.13-.12,1.93-.35,2.4-.23,.47-.59,.84-1.09,1.12-.5,.27-1.11,.41-1.84,.41-.87,0-1.57-.2-2.1-.58s-.79-.98-.77-1.76Zm1.02-4.36c0,.95,.19,1.65,.57,2.09s.85,.66,1.42,.66,1.04-.22,1.42-.65,.57-1.12,.57-2.05-.2-1.56-.59-2.01c-.39-.45-.87-.68-1.42-.68s-1.01,.22-1.39,.67-.57,1.1-.57,1.98Z"/><path d="M527.37,260.45l1.22-.19c.07,.49,.26,.86,.57,1.12,.31,.26,.75,.39,1.31,.39s.98-.12,1.26-.34,.41-.5,.41-.81c0-.28-.12-.5-.36-.66-.17-.11-.59-.25-1.26-.42-.9-.23-1.53-.42-1.88-.59-.35-.17-.61-.4-.79-.69-.18-.29-.27-.62-.27-.97,0-.32,.07-.62,.22-.9,.15-.28,.35-.5,.61-.69,.19-.14,.45-.26,.78-.36,.33-.1,.68-.15,1.06-.15,.57,0,1.07,.08,1.5,.25,.43,.16,.75,.39,.95,.67s.35,.66,.42,1.12l-1.2,.16c-.05-.37-.21-.67-.48-.88-.26-.21-.63-.31-1.11-.31-.57,0-.97,.09-1.21,.28-.24,.19-.36,.41-.36,.66,0,.16,.05,.3,.15,.43,.1,.13,.26,.24,.47,.33,.12,.05,.49,.15,1.09,.31,.87,.23,1.48,.42,1.82,.57,.34,.15,.61,.36,.81,.65,.2,.28,.29,.63,.29,1.05s-.12,.8-.36,1.16c-.24,.36-.58,.64-1.04,.84s-.96,.3-1.53,.3c-.94,0-1.66-.2-2.16-.59-.49-.39-.81-.97-.95-1.74Z"/><path d="M534.85,265.4v-10.04h1.12v.94c.26-.37,.56-.65,.9-.83s.74-.28,1.21-.28c.62,0,1.17,.16,1.64,.48,.47,.32,.83,.77,1.07,1.35s.36,1.22,.36,1.91c0,.74-.13,1.41-.4,2.01-.27,.59-.65,1.05-1.16,1.37-.51,.32-1.04,.47-1.6,.47-.41,0-.78-.09-1.1-.26-.33-.17-.59-.39-.8-.66v3.54h-1.23Zm1.11-6.37c0,.93,.19,1.62,.57,2.07,.38,.45,.84,.67,1.37,.67s1.02-.23,1.4-.69c.39-.46,.58-1.18,.58-2.15s-.19-1.62-.57-2.08c-.38-.46-.83-.69-1.36-.69s-.99,.24-1.39,.73c-.4,.49-.61,1.2-.61,2.14Z"/><path d="M542.6,262.61v-7.26h1.11v1.1c.28-.52,.54-.86,.78-1.02,.24-.16,.5-.25,.79-.25,.42,0,.84,.13,1.26,.4l-.42,1.14c-.3-.18-.6-.27-.9-.27-.27,0-.51,.08-.72,.24s-.37,.39-.46,.67c-.14,.44-.21,.92-.21,1.44v3.8h-1.23Z"/><path d="M546.82,258.98c0-1.34,.37-2.34,1.12-2.99,.62-.54,1.39-.81,2.28-.81,1,0,1.81,.33,2.45,.98s.95,1.56,.95,2.71c0,.93-.14,1.67-.42,2.21-.28,.54-.69,.95-1.22,1.25-.54,.3-1.12,.44-1.75,.44-1.02,0-1.84-.33-2.46-.98-.63-.65-.94-1.59-.94-2.82Zm1.26,0c0,.93,.2,1.62,.61,2.09s.92,.69,1.53,.69,1.12-.23,1.52-.7,.61-1.17,.61-2.12c0-.9-.2-1.58-.61-2.04-.41-.46-.92-.69-1.52-.69s-1.13,.23-1.53,.69c-.41,.46-.61,1.16-.61,2.09Z"/><path d="M554.44,262.61v-1l4.62-5.3c-.52,.03-.99,.04-1.39,.04h-2.96v-1h5.93v.81l-3.93,4.61-.76,.84c.55-.04,1.07-.06,1.55-.06h3.36v1.06h-6.43Z"/><path d="M567.06,260.28l1.27,.16c-.2,.74-.57,1.32-1.11,1.73s-1.24,.62-2.08,.62c-1.06,0-1.9-.33-2.53-.98-.62-.65-.93-1.57-.93-2.75s.31-2.17,.94-2.84c.63-.67,1.44-1.01,2.45-1.01s1.76,.33,2.38,.99c.62,.66,.92,1.59,.92,2.79,0,.07,0,.18,0,.33h-5.41c.05,.8,.27,1.41,.68,1.83s.91,.63,1.52,.63c.45,0,.84-.12,1.16-.36,.32-.24,.57-.62,.76-1.13Zm-4.04-1.99h4.05c-.05-.61-.21-1.07-.46-1.38-.39-.47-.9-.71-1.52-.71-.57,0-1.04,.19-1.42,.57-.39,.38-.6,.88-.64,1.52Z"/><path d="M569.42,260.45l1.22-.19c.07,.49,.26,.86,.57,1.12,.31,.26,.75,.39,1.31,.39s.98-.12,1.26-.34,.41-.5,.41-.81c0-.28-.12-.5-.36-.66-.17-.11-.59-.25-1.26-.42-.9-.23-1.53-.42-1.88-.59-.35-.17-.61-.4-.79-.69-.18-.29-.27-.62-.27-.97,0-.32,.07-.62,.22-.9,.15-.28,.35-.5,.61-.69,.19-.14,.45-.26,.78-.36,.33-.1,.68-.15,1.06-.15,.57,0,1.07,.08,1.5,.25,.43,.16,.75,.39,.95,.67s.35,.66,.42,1.12l-1.2,.16c-.05-.37-.21-.67-.48-.88-.26-.21-.63-.31-1.11-.31-.57,0-.97,.09-1.21,.28-.24,.19-.36,.41-.36,.66,0,.16,.05,.3,.15,.43,.1,.13,.26,.24,.47,.33,.12,.05,.49,.15,1.09,.31,.87,.23,1.48,.42,1.82,.57,.34,.15,.61,.36,.81,.65,.2,.28,.29,.63,.29,1.05s-.12,.8-.36,1.16c-.24,.36-.58,.64-1.04,.84s-.96,.3-1.53,.3c-.94,0-1.66-.2-2.16-.59-.49-.39-.81-.97-.95-1.74Z"/><path d="M576.41,260.45l1.22-.19c.07,.49,.26,.86,.57,1.12,.31,.26,.75,.39,1.31,.39s.98-.12,1.26-.34,.41-.5,.41-.81c0-.28-.12-.5-.36-.66-.17-.11-.59-.25-1.26-.42-.9-.23-1.53-.42-1.88-.59-.35-.17-.61-.4-.79-.69-.18-.29-.27-.62-.27-.97,0-.32,.07-.62,.22-.9,.15-.28,.35-.5,.61-.69,.19-.14,.45-.26,.78-.36,.33-.1,.68-.15,1.06-.15,.57,0,1.07,.08,1.5,.25,.43,.16,.75,.39,.95,.67s.35,.66,.42,1.12l-1.2,.16c-.05-.37-.21-.67-.48-.88-.26-.21-.63-.31-1.11-.31-.57,0-.97,.09-1.21,.28-.24,.19-.36,.41-.36,.66,0,.16,.05,.3,.15,.43,.1,.13,.26,.24,.47,.33,.12,.05,.49,.15,1.09,.31,.87,.23,1.48,.42,1.82,.57,.34,.15,.61,.36,.81,.65,.2,.28,.29,.63,.29,1.05s-.12,.8-.36,1.16c-.24,.36-.58,.64-1.04,.84s-.96,.3-1.53,.3c-.94,0-1.66-.2-2.16-.59-.49-.39-.81-.97-.95-1.74Z"/></g><rect x="321.5" y="278.91" width="51.6" height="51" style="fill:#fff; stroke:#000; stroke-miterlimit:8;"/><rect x="416.9" y="278.91" width="51" height="51" style="fill:#fff; stroke:#000; stroke-miterlimit:8;"/><rect x="512.3" y="278.91" width="51" height="51" style="fill:#fff; stroke:#000; stroke-miterlimit:8;"/><rect x="607.7" y="278.91" width="51" height="51" style="fill:#fff; stroke:#000; stroke-miterlimit:8;"/><g><path d="M128.33,60.61h-2.52l-1-2.6h-4.58l-.95,2.6h-2.45l4.46-11.45h2.45l4.59,11.45Zm-4.26-4.53l-1.58-4.25-1.55,4.25h3.12Z"/><path d="M135.01,60.61v-1.24c-.3,.44-.7,.79-1.19,1.05-.49,.26-1.01,.38-1.56,.38s-1.06-.12-1.5-.37c-.44-.24-.76-.59-.96-1.03-.2-.44-.3-1.05-.3-1.84v-5.25h2.2v3.81c0,1.17,.04,1.88,.12,2.14,.08,.26,.23,.47,.44,.62,.21,.15,.48,.23,.81,.23,.38,0,.71-.1,1.01-.31,.3-.21,.5-.46,.61-.77s.16-1.05,.16-2.24v-3.5h2.2v8.3h-2.04Z"/><path d="M138.59,58.25l2.2-.34c.09,.43,.28,.75,.57,.97,.29,.22,.69,.33,1.2,.33,.57,0,1-.1,1.28-.31,.19-.14,.29-.34,.29-.59,0-.17-.05-.3-.16-.41-.11-.1-.35-.2-.73-.29-1.77-.39-2.89-.75-3.37-1.07-.66-.45-.98-1.07-.98-1.87,0-.72,.28-1.32,.85-1.81,.57-.49,1.45-.73,2.64-.73s1.98,.19,2.53,.55c.55,.37,.93,.92,1.14,1.64l-2.07,.38c-.09-.32-.26-.57-.5-.74s-.6-.26-1.06-.26c-.58,0-.99,.08-1.24,.24-.17,.12-.25,.26-.25,.45,0,.16,.07,.29,.22,.4,.2,.15,.88,.35,2.05,.62s1.99,.59,2.45,.98c.46,.39,.69,.94,.69,1.63,0,.76-.32,1.41-.95,1.96s-1.58,.82-2.82,.82c-1.13,0-2.02-.23-2.68-.69-.66-.46-1.09-1.08-1.29-1.87Z"/><path d="M148.26,60.61v-11.45h2.2v11.45h-2.2Z"/><path d="M152.17,56.35c0-.73,.18-1.43,.54-2.12,.36-.68,.87-1.2,1.53-1.56s1.39-.54,2.21-.54c1.25,0,2.28,.41,3.09,1.22,.8,.82,1.2,1.85,1.2,3.09s-.41,2.3-1.21,3.12c-.81,.83-1.83,1.24-3.06,1.24-.76,0-1.49-.17-2.18-.52s-1.21-.85-1.57-1.51-.54-1.47-.54-2.43Zm1.57-5.5v-1.88h1.88v1.88h-1.88Zm.68,5.62c0,.82,.2,1.45,.59,1.89s.87,.66,1.45,.66,1.05-.22,1.44-.66,.58-1.07,.58-1.91-.19-1.44-.58-1.88-.87-.66-1.44-.66-1.05,.22-1.45,.66-.59,1.07-.59,1.89Zm2.68-5.62v-1.88h1.89v1.88h-1.89Z"/><path d="M161.71,58.25l2.2-.34c.09,.43,.28,.75,.57,.97,.29,.22,.69,.33,1.2,.33,.57,0,1-.1,1.28-.31,.19-.14,.29-.34,.29-.59,0-.17-.05-.3-.16-.41-.11-.1-.35-.2-.73-.29-1.77-.39-2.89-.75-3.37-1.07-.66-.45-.98-1.07-.98-1.87,0-.72,.28-1.32,.85-1.81,.57-.49,1.45-.73,2.64-.73s1.98,.19,2.53,.55c.55,.37,.93,.92,1.14,1.64l-2.07,.38c-.09-.32-.26-.57-.5-.74s-.6-.26-1.06-.26c-.58,0-.99,.08-1.24,.24-.17,.12-.25,.26-.25,.45,0,.16,.07,.29,.22,.4,.2,.15,.88,.35,2.05,.62s1.99,.59,2.45,.98c.46,.39,.69,.94,.69,1.63,0,.76-.32,1.41-.95,1.96s-1.58,.82-2.82,.82c-1.13,0-2.02-.23-2.68-.69-.66-.46-1.09-1.08-1.29-1.87Z"/><path d="M176.19,57.97l2.19,.37c-.28,.8-.73,1.41-1.33,1.83-.61,.42-1.37,.63-2.28,.63-1.44,0-2.51-.47-3.2-1.41-.55-.75-.82-1.71-.82-2.86,0-1.38,.36-2.45,1.08-3.23,.72-.78,1.63-1.17,2.73-1.17,1.23,0,2.21,.41,2.92,1.22,.71,.82,1.05,2.06,1.02,3.75h-5.5c.02,.65,.19,1.16,.53,1.52,.34,.36,.76,.54,1.27,.54,.34,0,.63-.09,.87-.28s.41-.49,.53-.91Zm.12-2.22c-.02-.63-.18-1.12-.49-1.45-.31-.33-.69-.5-1.14-.5-.48,0-.88,.18-1.19,.52-.31,.35-.47,.82-.46,1.42h3.28Z"/><path d="M182.38,60.61h-2.2v-8.3h2.04v1.18c.35-.56,.66-.92,.94-1.1,.28-.18,.59-.27,.95-.27,.5,0,.98,.14,1.45,.41l-.68,1.91c-.37-.24-.71-.36-1.03-.36s-.57,.09-.78,.25c-.21,.17-.38,.48-.5,.92-.12,.44-.18,1.37-.18,2.78v2.56Z"/><path d="M82.43,83.18c-.78-.98-1.43-2.12-1.97-3.44s-.8-2.67-.8-4.08c0-1.24,.2-2.43,.6-3.56,.47-1.32,1.19-2.63,2.17-3.94h1.01c-.63,1.08-1.05,1.86-1.25,2.32-.32,.72-.57,1.47-.75,2.25-.22,.97-.34,1.95-.34,2.94,0,2.5,.78,5.01,2.34,7.51h-1.01Z"/><path d="M86.39,79.81h-1.3v-11.45h1.41v4.09c.59-.75,1.35-1.12,2.27-1.12,.51,0,.99,.1,1.45,.31,.46,.21,.83,.49,1.12,.87,.29,.37,.52,.82,.69,1.35,.17,.53,.25,1.09,.25,1.69,0,1.42-.35,2.52-1.05,3.3-.7,.78-1.55,1.16-2.53,1.16s-1.75-.41-2.3-1.23v1.04Zm-.02-4.21c0,.99,.14,1.71,.41,2.16,.44,.72,1.04,1.09,1.8,1.09,.61,0,1.15-.27,1.59-.8,.45-.53,.67-1.33,.67-2.39s-.21-1.88-.64-2.4-.95-.77-1.56-.77-1.15,.27-1.59,.8c-.45,.53-.67,1.31-.67,2.32Z"/><path d="M93.4,77.34l1.39-.22c.08,.56,.3,.98,.65,1.28s.86,.45,1.5,.45,1.12-.13,1.44-.39c.31-.26,.47-.57,.47-.93,0-.32-.14-.57-.41-.75-.19-.12-.67-.28-1.44-.48-1.03-.26-1.75-.49-2.14-.68-.4-.19-.7-.45-.91-.79s-.31-.71-.31-1.11c0-.37,.08-.71,.25-1.03,.17-.32,.4-.58,.69-.79,.22-.16,.52-.3,.89-.41,.38-.11,.78-.17,1.21-.17,.65,0,1.22,.09,1.71,.28s.86,.44,1.09,.76,.4,.75,.48,1.29l-1.38,.19c-.06-.43-.24-.76-.54-1-.3-.24-.72-.36-1.27-.36-.65,0-1.11,.11-1.38,.32-.28,.21-.41,.46-.41,.75,0,.18,.06,.35,.17,.49,.11,.15,.29,.28,.54,.38,.14,.05,.55,.17,1.24,.36,1,.27,1.69,.48,2.08,.65,.39,.17,.7,.42,.93,.74,.22,.32,.34,.72,.34,1.2s-.14,.91-.41,1.32-.67,.73-1.18,.96-1.1,.34-1.75,.34c-1.08,0-1.9-.22-2.46-.67-.57-.45-.93-1.11-1.08-1.99Z"/><path d="M101.99,82.99v-11.48h1.28v1.08c.3-.42,.64-.74,1.02-.95s.84-.32,1.38-.32c.71,0,1.33,.18,1.88,.55,.54,.36,.95,.88,1.23,1.54s.41,1.39,.41,2.18c0,.85-.15,1.61-.46,2.29s-.75,1.2-1.33,1.56c-.58,.36-1.19,.54-1.83,.54-.47,0-.89-.1-1.26-.3-.37-.2-.68-.45-.92-.75v4.04h-1.41Zm1.27-7.28c0,1.07,.22,1.86,.65,2.37,.43,.51,.96,.77,1.57,.77s1.16-.26,1.61-.79c.45-.53,.67-1.35,.67-2.46s-.22-1.85-.65-2.38c-.43-.53-.95-.79-1.56-.79s-1.13,.28-1.59,.84c-.46,.56-.69,1.37-.69,2.44Z"/><path d="M112.39,79.81l-2.54-8.3h1.45l1.32,4.79,.49,1.78c.02-.09,.16-.66,.43-1.71l1.32-4.86h1.45l1.24,4.81,.41,1.59,.48-1.6,1.42-4.8h1.37l-2.59,8.3h-1.46l-1.32-4.97-.32-1.41-1.68,6.38h-1.47Z"/><path d="M122.74,79.81v-1.6h1.6v1.6h-1.6Z"/><path d="M130.06,79.81l4.4-11.45h1.63l4.69,11.45h-1.73l-1.34-3.47h-4.79l-1.26,3.47h-1.61Zm3.3-4.7h3.88l-1.2-3.17c-.36-.96-.64-1.76-.81-2.38-.15,.73-.35,1.46-.62,2.19l-1.26,3.36Z"/><path d="M141.8,79.81v-8.3h1.27v1.18c.61-.91,1.49-1.37,2.64-1.37,.5,0,.96,.09,1.38,.27s.73,.42,.94,.71c.21,.29,.35,.64,.44,1.04,.05,.26,.08,.72,.08,1.37v5.1h-1.41v-5.05c0-.57-.05-1-.16-1.29-.11-.28-.3-.51-.58-.68-.28-.17-.61-.25-.98-.25-.6,0-1.12,.19-1.55,.57-.43,.38-.65,1.1-.65,2.16v4.53h-1.41Z"/><path d="M151.03,79.81v-7.2h-1.24v-1.09h1.24v-.88c0-.56,.05-.97,.15-1.24,.14-.37,.37-.66,.71-.89s.82-.34,1.43-.34c.4,0,.83,.05,1.31,.14l-.21,1.23c-.29-.05-.57-.08-.83-.08-.43,0-.73,.09-.91,.27-.18,.18-.27,.52-.27,1.02v.77h1.62v1.09h-1.62v7.2h-1.4Z"/><path d="M154.65,75.67c0-1.54,.43-2.67,1.28-3.41,.71-.62,1.58-.92,2.61-.92,1.14,0,2.07,.37,2.8,1.12,.72,.75,1.09,1.78,1.09,3.1,0,1.07-.16,1.91-.48,2.52-.32,.61-.79,1.09-1.4,1.43-.61,.34-1.28,.51-2,.51-1.16,0-2.1-.37-2.82-1.12-.72-.75-1.07-1.82-1.07-3.22Zm1.45,0c0,1.06,.23,1.86,.7,2.39,.46,.53,1.05,.79,1.75,.79s1.28-.27,1.74-.8,.7-1.34,.7-2.43c0-1.03-.23-1.8-.7-2.33-.47-.53-1.05-.79-1.74-.79s-1.29,.26-1.75,.79c-.46,.53-.7,1.32-.7,2.38Z"/><path d="M164.06,79.81v-8.3h1.27v1.26c.32-.59,.62-.98,.89-1.16s.57-.28,.9-.28c.47,0,.96,.15,1.45,.45l-.48,1.3c-.34-.2-.69-.3-1.03-.3-.31,0-.58,.09-.83,.28-.25,.18-.42,.44-.52,.77-.16,.5-.23,1.05-.23,1.64v4.34h-1.41Z"/><path d="M174.8,79.81v-1.05c-.53,.82-1.3,1.23-2.32,1.23-.66,0-1.27-.18-1.82-.55-.55-.37-.98-.87-1.29-1.53-.3-.65-.46-1.41-.46-2.25s.14-1.58,.41-2.25c.28-.67,.69-1.19,1.24-1.55s1.17-.54,1.85-.54c.5,0,.95,.11,1.34,.32s.71,.49,.95,.82v-4.11h1.4v11.45h-1.3Zm-4.45-4.14c0,1.06,.22,1.86,.67,2.38,.45,.53,.98,.79,1.59,.79s1.14-.25,1.57-.75c.43-.5,.64-1.27,.64-2.3,0-1.14-.22-1.97-.66-2.5s-.98-.8-1.62-.8-1.15,.25-1.57,.77c-.42,.51-.63,1.31-.63,2.41Z"/><path d="M183.96,77.14l1.45,.18c-.23,.85-.65,1.51-1.27,1.98s-1.41,.7-2.38,.7c-1.21,0-2.18-.37-2.89-1.12-.71-.75-1.07-1.8-1.07-3.14s.36-2.48,1.08-3.25c.72-.77,1.65-1.16,2.8-1.16s2.02,.38,2.72,1.13c.7,.75,1.05,1.82,1.05,3.19,0,.08,0,.21,0,.38h-6.19c.05,.91,.31,1.61,.77,2.09s1.04,.73,1.73,.73c.52,0,.96-.14,1.32-.41,.36-.27,.65-.7,.87-1.3Zm-4.62-2.27h4.63c-.06-.7-.24-1.22-.53-1.57-.45-.54-1.03-.81-1.74-.81-.65,0-1.19,.22-1.63,.65-.44,.43-.68,1.01-.73,1.73Z"/><path d="M187.16,79.81v-8.3h1.27v1.26c.32-.59,.62-.98,.89-1.16s.57-.28,.9-.28c.47,0,.96,.15,1.45,.45l-.48,1.3c-.34-.2-.69-.3-1.03-.3-.31,0-.58,.09-.83,.28-.25,.18-.42,.44-.52,.77-.16,.5-.23,1.05-.23,1.64v4.34h-1.41Z"/><path d="M197.96,79.81v-1.22c-.65,.94-1.52,1.41-2.63,1.41-.49,0-.95-.09-1.37-.28s-.74-.42-.95-.71c-.21-.28-.35-.63-.43-1.04-.06-.28-.09-.71-.09-1.31v-5.14h1.41v4.6c0,.73,.03,1.23,.09,1.48,.09,.37,.28,.66,.56,.87s.64,.32,1.06,.32,.82-.11,1.19-.32c.37-.22,.63-.51,.79-.88,.15-.37,.23-.91,.23-1.62v-4.45h1.41v8.3h-1.26Z"/><path d="M201.45,79.81v-8.3h1.27v1.18c.61-.91,1.49-1.37,2.64-1.37,.5,0,.96,.09,1.38,.27s.73,.42,.94,.71c.21,.29,.35,.64,.44,1.04,.05,.26,.08,.72,.08,1.37v5.1h-1.41v-5.05c0-.57-.05-1-.16-1.29-.11-.28-.3-.51-.58-.68-.28-.17-.61-.25-.98-.25-.6,0-1.12,.19-1.55,.57-.43,.38-.65,1.1-.65,2.16v4.53h-1.41Z"/><path d="M210.1,80.5l1.37,.2c.06,.42,.22,.73,.48,.92,.35,.26,.83,.39,1.43,.39,.65,0,1.15-.13,1.51-.39,.35-.26,.59-.62,.72-1.09,.07-.29,.11-.89,.1-1.8-.61,.72-1.38,1.09-2.3,1.09-1.14,0-2.02-.41-2.65-1.23-.62-.82-.94-1.81-.94-2.96,0-.79,.14-1.52,.43-2.19,.29-.67,.7-1.19,1.25-1.55,.54-.37,1.18-.55,1.92-.55,.98,0,1.79,.4,2.42,1.19v-1h1.3v7.17c0,1.29-.13,2.21-.39,2.75s-.68,.96-1.25,1.28-1.27,.47-2.11,.47c-.99,0-1.79-.22-2.4-.67s-.9-1.12-.88-2.01Zm1.16-4.98c0,1.09,.22,1.88,.65,2.38s.97,.75,1.62,.75,1.19-.25,1.62-.75c.44-.5,.66-1.28,.66-2.34s-.23-1.78-.68-2.3-.99-.77-1.63-.77-1.16,.25-1.59,.76-.66,1.26-.66,2.26Z"/><path d="M220.16,83.18h-1.01c1.56-2.5,2.34-5,2.34-7.51,0-.98-.11-1.95-.34-2.91-.18-.78-.42-1.53-.74-2.25-.2-.47-.62-1.25-1.26-2.34h1.01c.98,1.31,1.7,2.62,2.17,3.94,.4,1.13,.6,2.32,.6,3.56,0,1.41-.27,2.77-.81,4.08s-1.19,2.46-1.96,3.44Z"/></g><g><path d="M803.83,60.61v-11.45h8.49v1.94h-6.18v2.54h5.75v1.93h-5.75v3.12h6.4v1.93h-8.71Z"/><path d="M816.6,60.61h-2.2v-8.3h2.04v1.18c.35-.56,.66-.92,.94-1.1,.28-.18,.59-.27,.95-.27,.5,0,.98,.14,1.45,.41l-.68,1.91c-.37-.24-.71-.36-1.03-.36s-.57,.09-.78,.25c-.21,.17-.38,.48-.5,.92-.12,.44-.18,1.37-.18,2.78v2.56Z"/><path d="M820.52,61.16l2.51,.3c.04,.29,.14,.49,.29,.6,.21,.16,.54,.23,.98,.23,.57,0,1-.09,1.29-.26,.19-.11,.34-.3,.44-.55,.07-.18,.1-.52,.1-1.01v-1.21c-.66,.9-1.48,1.34-2.48,1.34-1.11,0-2-.47-2.65-1.41-.51-.74-.77-1.67-.77-2.78,0-1.39,.33-2.45,1-3.19s1.5-1.1,2.5-1.1,1.87,.45,2.54,1.35v-1.16h2.05v7.45c0,.98-.08,1.71-.24,2.2s-.39,.87-.68,1.14c-.29,.28-.68,.49-1.17,.65s-1.1,.23-1.85,.23c-1.41,0-2.4-.24-2.99-.72-.59-.48-.88-1.09-.88-1.83,0-.07,0-.16,0-.27Zm1.96-4.87c0,.88,.17,1.53,.51,1.93,.34,.41,.76,.61,1.26,.61,.54,0,.99-.21,1.36-.63,.37-.42,.55-1.04,.55-1.86s-.18-1.5-.53-1.91c-.35-.42-.8-.62-1.34-.62s-.96,.21-1.3,.61c-.34,.41-.51,1.03-.51,1.87Z"/><path d="M835.3,57.97l2.19,.37c-.28,.8-.73,1.41-1.33,1.83-.61,.42-1.37,.63-2.28,.63-1.44,0-2.51-.47-3.2-1.41-.55-.75-.82-1.71-.82-2.86,0-1.38,.36-2.45,1.08-3.23,.72-.78,1.63-1.17,2.73-1.17,1.23,0,2.21,.41,2.92,1.22,.71,.82,1.05,2.06,1.02,3.75h-5.5c.02,.65,.19,1.16,.53,1.52,.34,.36,.76,.54,1.27,.54,.34,0,.63-.09,.87-.28s.41-.49,.53-.91Zm.12-2.22c-.02-.63-.18-1.12-.49-1.45-.31-.33-.69-.5-1.14-.5-.48,0-.88,.18-1.19,.52-.31,.35-.47,.82-.46,1.42h3.28Z"/><path d="M839.3,60.61v-11.45h2.2v4.12c.68-.77,1.48-1.16,2.41-1.16,1.01,0,1.85,.37,2.51,1.1,.66,.73,.99,1.78,.99,3.15s-.34,2.51-1.01,3.27-1.49,1.15-2.46,1.15c-.47,0-.94-.12-1.4-.36-.46-.24-.86-.59-1.19-1.05v1.22h-2.04Zm2.18-4.33c0,.86,.14,1.5,.41,1.91,.38,.58,.89,.88,1.52,.88,.48,0,.9-.21,1.24-.62s.51-1.07,.51-1.96c0-.95-.17-1.63-.52-2.05-.34-.42-.78-.63-1.32-.63s-.96,.21-1.31,.61c-.35,.41-.52,1.03-.52,1.86Z"/><path d="M856.73,60.61h-2.2v-4.23c0-.89-.05-1.47-.14-1.74-.09-.26-.25-.47-.46-.61-.21-.14-.46-.22-.76-.22-.38,0-.72,.11-1.02,.31-.3,.21-.51,.48-.62,.83s-.17,.98-.17,1.91v3.76h-2.2v-8.3h2.04v1.22c.72-.94,1.64-1.41,2.73-1.41,.48,0,.93,.09,1.33,.26,.4,.18,.7,.4,.91,.67,.21,.27,.35,.58,.43,.92s.12,.84,.12,1.48v5.16Z"/><path d="M858.98,51.19v-2.03h2.2v2.03h-2.2Zm0,9.42v-8.3h2.2v8.3h-2.2Z"/><path d="M862.62,58.25l2.2-.34c.09,.43,.28,.75,.57,.97,.29,.22,.69,.33,1.2,.33,.57,0,1-.1,1.28-.31,.19-.14,.29-.34,.29-.59,0-.17-.05-.3-.16-.41-.11-.1-.35-.2-.73-.29-1.77-.39-2.89-.75-3.37-1.07-.66-.45-.98-1.07-.98-1.87,0-.72,.28-1.32,.85-1.81,.57-.49,1.45-.73,2.64-.73s1.98,.19,2.53,.55c.55,.37,.93,.92,1.14,1.64l-2.07,.38c-.09-.32-.26-.57-.5-.74s-.6-.26-1.06-.26c-.58,0-.99,.08-1.24,.24-.17,.12-.25,.26-.25,.45,0,.16,.07,.29,.22,.4,.2,.15,.88,.35,2.05,.62s1.99,.59,2.45,.98c.46,.39,.69,.94,.69,1.63,0,.76-.32,1.41-.95,1.96s-1.58,.82-2.82,.82c-1.13,0-2.02-.23-2.68-.69-.66-.46-1.09-1.08-1.29-1.87Z"/><path d="M782.08,83.18c-.78-.98-1.43-2.12-1.97-3.44s-.8-2.67-.8-4.08c0-1.24,.2-2.43,.6-3.56,.47-1.32,1.19-2.63,2.17-3.94h1.01c-.63,1.08-1.05,1.86-1.25,2.32-.32,.72-.57,1.47-.75,2.25-.22,.97-.34,1.95-.34,2.94,0,2.5,.78,5.01,2.34,7.51h-1.01Z"/><path d="M786.04,79.81h-1.3v-11.45h1.41v4.09c.59-.75,1.35-1.12,2.27-1.12,.51,0,.99,.1,1.45,.31,.46,.21,.83,.49,1.12,.87,.29,.37,.52,.82,.69,1.35,.17,.53,.25,1.09,.25,1.69,0,1.42-.35,2.52-1.05,3.3-.7,.78-1.55,1.16-2.53,1.16s-1.75-.41-2.3-1.23v1.04Zm-.02-4.21c0,.99,.14,1.71,.41,2.16,.44,.72,1.04,1.09,1.8,1.09,.61,0,1.15-.27,1.59-.8,.45-.53,.67-1.33,.67-2.39s-.21-1.88-.64-2.4-.95-.77-1.56-.77-1.15,.27-1.59,.8c-.45,.53-.67,1.31-.67,2.32Z"/><path d="M793.04,77.34l1.39-.22c.08,.56,.3,.98,.65,1.28s.86,.45,1.5,.45,1.12-.13,1.44-.39c.31-.26,.47-.57,.47-.93,0-.32-.14-.57-.41-.75-.19-.12-.67-.28-1.44-.48-1.03-.26-1.75-.49-2.14-.68-.4-.19-.7-.45-.91-.79s-.31-.71-.31-1.11c0-.37,.08-.71,.25-1.03,.17-.32,.4-.58,.69-.79,.22-.16,.52-.3,.89-.41,.38-.11,.78-.17,1.21-.17,.65,0,1.22,.09,1.71,.28s.86,.44,1.09,.76,.4,.75,.48,1.29l-1.38,.19c-.06-.43-.24-.76-.54-1-.3-.24-.72-.36-1.27-.36-.65,0-1.11,.11-1.38,.32-.28,.21-.41,.46-.41,.75,0,.18,.06,.35,.17,.49,.11,.15,.29,.28,.54,.38,.14,.05,.55,.17,1.24,.36,1,.27,1.69,.48,2.08,.65,.39,.17,.7,.42,.93,.74,.22,.32,.34,.72,.34,1.2s-.14,.91-.41,1.32-.67,.73-1.18,.96-1.1,.34-1.75,.34c-1.08,0-1.9-.22-2.46-.67-.57-.45-.93-1.11-1.08-1.99Z"/><path d="M801.64,82.99v-11.48h1.28v1.08c.3-.42,.64-.74,1.02-.95s.84-.32,1.38-.32c.71,0,1.33,.18,1.88,.55,.54,.36,.95,.88,1.23,1.54s.41,1.39,.41,2.18c0,.85-.15,1.61-.46,2.29s-.75,1.2-1.33,1.56c-.58,.36-1.19,.54-1.83,.54-.47,0-.89-.1-1.26-.3-.37-.2-.68-.45-.92-.75v4.04h-1.41Zm1.27-7.28c0,1.07,.22,1.86,.65,2.37,.43,.51,.96,.77,1.57,.77s1.16-.26,1.61-.79c.45-.53,.67-1.35,.67-2.46s-.22-1.85-.65-2.38c-.43-.53-.95-.79-1.56-.79s-1.13,.28-1.59,.84c-.46,.56-.69,1.37-.69,2.44Z"/><path d="M812.04,79.81l-2.54-8.3h1.45l1.32,4.79,.49,1.78c.02-.09,.16-.66,.43-1.71l1.32-4.86h1.45l1.24,4.81,.41,1.59,.48-1.6,1.42-4.8h1.37l-2.59,8.3h-1.46l-1.32-4.97-.32-1.41-1.68,6.38h-1.47Z"/><path d="M822.39,79.81v-1.6h1.6v1.6h-1.6Z"/><path d="M830.91,79.81v-11.45h1.52v10.1h5.64v1.35h-7.16Z"/><path d="M845.3,77.14l1.45,.18c-.23,.85-.65,1.51-1.27,1.98s-1.41,.7-2.38,.7c-1.21,0-2.18-.37-2.89-1.12-.71-.75-1.07-1.8-1.07-3.14s.36-2.48,1.08-3.25c.72-.77,1.65-1.16,2.8-1.16s2.02,.38,2.72,1.13c.7,.75,1.05,1.82,1.05,3.19,0,.08,0,.21,0,.38h-6.19c.05,.91,.31,1.61,.77,2.09s1.04,.73,1.73,.73c.52,0,.96-.14,1.32-.41,.36-.27,.65-.7,.87-1.3Zm-4.62-2.27h4.63c-.06-.7-.24-1.22-.53-1.57-.45-.54-1.03-.81-1.74-.81-.65,0-1.19,.22-1.63,.65-.44,.43-.68,1.01-.73,1.73Z"/><path d="M848.53,69.98v-1.62h1.41v1.62h-1.41Zm0,9.84v-8.3h1.41v8.3h-1.41Z"/><path d="M851.5,77.34l1.39-.22c.08,.56,.3,.98,.65,1.28s.86,.45,1.5,.45,1.12-.13,1.44-.39c.31-.26,.47-.57,.47-.93,0-.32-.14-.57-.41-.75-.19-.12-.67-.28-1.44-.48-1.03-.26-1.75-.49-2.14-.68-.4-.19-.7-.45-.91-.79s-.31-.71-.31-1.11c0-.37,.08-.71,.25-1.03,.17-.32,.4-.58,.69-.79,.22-.16,.52-.3,.89-.41,.38-.11,.78-.17,1.21-.17,.65,0,1.22,.09,1.71,.28s.86,.44,1.09,.76,.4,.75,.48,1.29l-1.38,.19c-.06-.43-.24-.76-.54-1-.3-.24-.72-.36-1.27-.36-.65,0-1.11,.11-1.38,.32-.28,.21-.41,.46-.41,.75,0,.18,.06,.35,.17,.49,.11,.15,.29,.28,.54,.38,.14,.05,.55,.17,1.24,.36,1,.27,1.69,.48,2.08,.65,.39,.17,.7,.42,.93,.74,.22,.32,.34,.72,.34,1.2s-.14,.91-.41,1.32-.67,.73-1.18,.96-1.1,.34-1.75,.34c-1.08,0-1.9-.22-2.46-.67-.57-.45-.93-1.11-1.08-1.99Z"/><path d="M863.16,78.56l.2,1.24c-.4,.08-.75,.12-1.06,.12-.51,0-.91-.08-1.19-.24-.28-.16-.48-.37-.59-.64-.11-.26-.17-.82-.17-1.66v-4.77h-1.03v-1.09h1.03v-2.05l1.4-.84v2.9h1.41v1.09h-1.41v4.85c0,.4,.02,.66,.07,.77,.05,.11,.13,.21,.24,.27,.11,.07,.27,.1,.48,.1,.16,0,.36-.02,.62-.05Z"/><path d="M869.91,79.81v-1.22c-.65,.94-1.52,1.41-2.63,1.41-.49,0-.95-.09-1.37-.28s-.74-.42-.95-.71c-.21-.28-.35-.63-.43-1.04-.06-.28-.09-.71-.09-1.31v-5.14h1.41v4.6c0,.73,.03,1.23,.09,1.48,.09,.37,.28,.66,.56,.87s.64,.32,1.06,.32,.82-.11,1.19-.32c.37-.22,.63-.51,.79-.88,.15-.37,.23-.91,.23-1.62v-4.45h1.41v8.3h-1.26Z"/><path d="M873.41,79.81v-8.3h1.27v1.18c.61-.91,1.49-1.37,2.64-1.37,.5,0,.96,.09,1.38,.27s.73,.42,.94,.71c.21,.29,.35,.64,.44,1.04,.05,.26,.08,.72,.08,1.37v5.1h-1.41v-5.05c0-.57-.05-1-.16-1.29-.11-.28-.3-.51-.58-.68-.28-.17-.61-.25-.98-.25-.6,0-1.12,.19-1.55,.57-.43,.38-.65,1.1-.65,2.16v4.53h-1.41Z"/><path d="M882.05,80.5l1.37,.2c.06,.42,.22,.73,.48,.92,.35,.26,.83,.39,1.43,.39,.65,0,1.15-.13,1.51-.39,.35-.26,.59-.62,.72-1.09,.07-.29,.11-.89,.1-1.8-.61,.72-1.38,1.09-2.3,1.09-1.14,0-2.02-.41-2.65-1.23-.62-.82-.94-1.81-.94-2.96,0-.79,.14-1.52,.43-2.19,.29-.67,.7-1.19,1.25-1.55,.54-.37,1.18-.55,1.92-.55,.98,0,1.79,.4,2.42,1.19v-1h1.3v7.17c0,1.29-.13,2.21-.39,2.75s-.68,.96-1.25,1.28-1.27,.47-2.11,.47c-.99,0-1.79-.22-2.4-.67s-.9-1.12-.88-2.01Zm1.16-4.98c0,1.09,.22,1.88,.65,2.38s.97,.75,1.62,.75,1.19-.25,1.62-.75c.44-.5,.66-1.28,.66-2.34s-.23-1.78-.68-2.3-.99-.77-1.63-.77-1.16,.25-1.59,.76-.66,1.26-.66,2.26Z"/><path d="M892.11,83.18h-1.01c1.56-2.5,2.34-5,2.34-7.51,0-.98-.11-1.95-.34-2.91-.18-.78-.42-1.53-.74-2.25-.2-.47-.62-1.25-1.26-2.34h1.01c.98,1.31,1.7,2.62,2.17,3.94,.4,1.13,.6,2.32,.6,3.56,0,1.41-.27,2.77-.81,4.08s-1.19,2.46-1.96,3.44Z"/></g><g><path d="M367.68,60.61l-4.09-11.45h2.51l2.9,8.48,2.8-8.48h2.45l-4.1,11.45h-2.47Z"/><path d="M374.84,56.35c0-.73,.18-1.43,.54-2.12,.36-.68,.87-1.2,1.53-1.56s1.39-.54,2.21-.54c1.25,0,2.28,.41,3.09,1.22,.8,.82,1.2,1.85,1.2,3.09s-.41,2.3-1.21,3.12c-.81,.83-1.83,1.24-3.06,1.24-.76,0-1.49-.17-2.18-.52s-1.21-.85-1.57-1.51-.54-1.47-.54-2.43Zm2.25,.12c0,.82,.2,1.45,.59,1.89s.87,.66,1.45,.66,1.05-.22,1.44-.66,.58-1.07,.58-1.91-.19-1.44-.58-1.88-.87-.66-1.44-.66-1.05,.22-1.45,.66-.59,1.07-.59,1.89Z"/><path d="M387.26,60.61h-2.2v-8.3h2.04v1.18c.35-.56,.66-.92,.94-1.1,.28-.18,.59-.27,.95-.27,.5,0,.98,.14,1.45,.41l-.68,1.91c-.37-.24-.71-.36-1.03-.36s-.57,.09-.78,.25c-.21,.17-.38,.48-.5,.92-.12,.44-.18,1.37-.18,2.78v2.56Z"/><path d="M391.18,61.16l2.51,.3c.04,.29,.14,.49,.29,.6,.21,.16,.54,.23,.98,.23,.57,0,1-.09,1.29-.26,.19-.11,.34-.3,.44-.55,.07-.18,.1-.52,.1-1.01v-1.21c-.66,.9-1.48,1.34-2.48,1.34-1.11,0-2-.47-2.65-1.41-.51-.74-.77-1.67-.77-2.78,0-1.39,.33-2.45,1-3.19s1.5-1.1,2.5-1.1,1.87,.45,2.54,1.35v-1.16h2.05v7.45c0,.98-.08,1.71-.24,2.2s-.39,.87-.68,1.14c-.29,.28-.68,.49-1.17,.65s-1.1,.23-1.85,.23c-1.41,0-2.4-.24-2.99-.72-.59-.48-.88-1.09-.88-1.83,0-.07,0-.16,0-.27Zm1.96-4.87c0,.88,.17,1.53,.51,1.93,.34,.41,.76,.61,1.26,.61,.54,0,.99-.21,1.36-.63,.37-.42,.55-1.04,.55-1.86s-.18-1.5-.53-1.91c-.35-.42-.8-.62-1.34-.62s-.96,.21-1.3,.61c-.34,.41-.51,1.03-.51,1.87Z"/><path d="M402.79,54.85l-1.99-.36c.22-.8,.61-1.39,1.16-1.78,.55-.38,1.36-.58,2.44-.58,.98,0,1.71,.12,2.19,.35,.48,.23,.82,.53,1.01,.88,.2,.36,.29,1.01,.29,1.96l-.02,2.56c0,.73,.04,1.27,.11,1.61,.07,.35,.2,.72,.39,1.11h-2.17c-.06-.14-.13-.36-.21-.65-.04-.13-.06-.21-.08-.26-.38,.37-.78,.64-1.2,.82-.43,.18-.88,.27-1.37,.27-.85,0-1.53-.23-2.02-.7-.49-.46-.74-1.05-.74-1.76,0-.47,.11-.89,.34-1.25s.54-.65,.94-.84,.99-.37,1.75-.51c1.03-.19,1.74-.37,2.13-.54v-.22c0-.42-.1-.72-.31-.9s-.6-.27-1.18-.27c-.39,0-.7,.08-.91,.23-.22,.15-.4,.42-.53,.81Zm2.94,1.78c-.28,.09-.73,.21-1.34,.34-.61,.13-1.01,.26-1.2,.38-.29,.2-.43,.46-.43,.77s.11,.57,.34,.8c.23,.22,.52,.34,.88,.34,.4,0,.77-.13,1.13-.39,.27-.2,.44-.44,.52-.73,.06-.19,.09-.54,.09-1.07v-.44Z"/><path d="M417.6,60.61h-2.2v-4.23c0-.89-.05-1.47-.14-1.74-.09-.26-.25-.47-.46-.61-.21-.14-.46-.22-.76-.22-.38,0-.72,.11-1.02,.31-.3,.21-.51,.48-.62,.83s-.17,.98-.17,1.91v3.76h-2.2v-8.3h2.04v1.22c.72-.94,1.64-1.41,2.73-1.41,.48,0,.93,.09,1.33,.26,.4,.18,.7,.4,.91,.67,.21,.27,.35,.58,.43,.92s.12,.84,.12,1.48v5.16Z"/><path d="M419.64,61.16l2.51,.3c.04,.29,.14,.49,.29,.6,.21,.16,.54,.23,.98,.23,.57,0,1-.09,1.29-.26,.19-.11,.34-.3,.44-.55,.07-.18,.1-.52,.1-1.01v-1.21c-.66,.9-1.48,1.34-2.48,1.34-1.11,0-2-.47-2.65-1.41-.51-.74-.77-1.67-.77-2.78,0-1.39,.33-2.45,1-3.19s1.5-1.1,2.5-1.1,1.87,.45,2.54,1.35v-1.16h2.05v7.45c0,.98-.08,1.71-.24,2.2s-.39,.87-.68,1.14c-.29,.28-.68,.49-1.17,.65s-1.1,.23-1.85,.23c-1.41,0-2.4-.24-2.99-.72-.59-.48-.88-1.09-.88-1.83,0-.07,0-.16,0-.27Zm1.96-4.87c0,.88,.17,1.53,.51,1.93,.34,.41,.76,.61,1.26,.61,.54,0,.99-.21,1.36-.63,.37-.42,.55-1.04,.55-1.86s-.18-1.5-.53-1.91c-.35-.42-.8-.62-1.34-.62s-.96,.21-1.3,.61c-.34,.41-.51,1.03-.51,1.87Z"/><path d="M428.84,58.25l2.2-.34c.09,.43,.28,.75,.57,.97,.29,.22,.69,.33,1.2,.33,.57,0,1-.1,1.28-.31,.19-.14,.29-.34,.29-.59,0-.17-.05-.3-.16-.41-.11-.1-.35-.2-.73-.29-1.77-.39-2.89-.75-3.37-1.07-.66-.45-.98-1.07-.98-1.87,0-.72,.28-1.32,.85-1.81,.57-.49,1.45-.73,2.64-.73s1.98,.19,2.53,.55c.55,.37,.93,.92,1.14,1.64l-2.07,.38c-.09-.32-.26-.57-.5-.74s-.6-.26-1.06-.26c-.58,0-.99,.08-1.24,.24-.17,.12-.25,.26-.25,.45,0,.16,.07,.29,.22,.4,.2,.15,.88,.35,2.05,.62s1.99,.59,2.45,.98c.46,.39,.69,.94,.69,1.63,0,.76-.32,1.41-.95,1.96s-1.58,.82-2.82,.82c-1.13,0-2.02-.23-2.68-.69-.66-.46-1.09-1.08-1.29-1.87Z"/><path d="M438.44,60.61v-11.45h2.2v6.08l2.57-2.92h2.7l-2.84,3.03,3.04,5.27h-2.37l-2.09-3.73-1.02,1.07v2.66h-2.2Z"/><path d="M452.2,57.97l2.19,.37c-.28,.8-.73,1.41-1.33,1.83-.61,.42-1.37,.63-2.28,.63-1.44,0-2.51-.47-3.2-1.41-.55-.75-.82-1.71-.82-2.86,0-1.38,.36-2.45,1.08-3.23,.72-.78,1.63-1.17,2.73-1.17,1.23,0,2.21,.41,2.92,1.22,.71,.82,1.05,2.06,1.02,3.75h-5.5c.02,.65,.19,1.16,.53,1.52,.34,.36,.76,.54,1.27,.54,.34,0,.63-.09,.87-.28s.41-.49,.53-.91Zm.12-2.22c-.02-.63-.18-1.12-.49-1.45-.31-.33-.69-.5-1.14-.5-.48,0-.88,.18-1.19,.52-.31,.35-.47,.82-.46,1.42h3.28Z"/><path d="M460.12,52.32v1.75h-1.5v3.34c0,.68,.01,1.07,.04,1.18,.03,.11,.09,.21,.2,.28,.1,.07,.23,.11,.37,.11,.2,0,.5-.07,.88-.21l.19,1.7c-.51,.22-1.09,.33-1.73,.33-.4,0-.75-.07-1.07-.2s-.55-.3-.7-.52-.25-.5-.31-.86c-.05-.25-.07-.77-.07-1.55v-3.62h-1.01v-1.75h1.01v-1.65l2.2-1.28v2.93h1.5Z"/><path d="M465.4,52.32v1.75h-1.5v3.34c0,.68,.01,1.07,.04,1.18,.03,.11,.09,.21,.2,.28,.1,.07,.23,.11,.37,.11,.2,0,.5-.07,.88-.21l.19,1.7c-.51,.22-1.09,.33-1.73,.33-.4,0-.75-.07-1.07-.2s-.55-.3-.7-.52-.25-.5-.31-.86c-.05-.25-.07-.77-.07-1.55v-3.62h-1.01v-1.75h1.01v-1.65l2.2-1.28v2.93h1.5Z"/><path d="M471.68,57.97l2.19,.37c-.28,.8-.73,1.41-1.33,1.83-.61,.42-1.37,.63-2.28,.63-1.44,0-2.51-.47-3.2-1.41-.55-.75-.82-1.71-.82-2.86,0-1.38,.36-2.45,1.08-3.23,.72-.78,1.63-1.17,2.73-1.17,1.23,0,2.21,.41,2.92,1.22,.71,.82,1.05,2.06,1.02,3.75h-5.5c.02,.65,.19,1.16,.53,1.52,.34,.36,.76,.54,1.27,.54,.34,0,.63-.09,.87-.28s.41-.49,.53-.91Zm.12-2.22c-.02-.63-.18-1.12-.49-1.45-.31-.33-.69-.5-1.14-.5-.48,0-.88,.18-1.19,.52-.31,.35-.47,.82-.46,1.42h3.28Z"/><path d="M479.33,60.61v-1.71l3.11-3.57c.51-.58,.89-1,1.13-1.24-.25,.02-.59,.03-1.01,.03l-2.93,.02v-1.82h6.86v1.55l-3.17,3.66-1.12,1.21c.61-.04,.99-.05,1.13-.05h3.4v1.93h-7.41Z"/><path d="M493.72,60.61v-1.24c-.3,.44-.7,.79-1.19,1.05-.49,.26-1.01,.38-1.56,.38s-1.06-.12-1.5-.37c-.44-.24-.76-.59-.96-1.03-.2-.44-.3-1.05-.3-1.84v-5.25h2.2v3.81c0,1.17,.04,1.88,.12,2.14,.08,.26,.23,.47,.44,.62,.21,.15,.48,.23,.81,.23,.38,0,.71-.1,1.01-.31,.3-.21,.5-.46,.61-.77s.16-1.05,.16-2.24v-3.5h2.2v8.3h-2.04Z"/><path d="M500.17,60.61h-2.2v-8.3h2.04v1.18c.35-.56,.66-.92,.94-1.1,.28-.18,.59-.27,.95-.27,.5,0,.98,.14,1.45,.41l-.68,1.91c-.37-.24-.71-.36-1.03-.36s-.57,.09-.78,.25c-.21,.17-.38,.48-.5,.92-.12,.44-.18,1.37-.18,2.78v2.56Z"/><path d="M510.37,60.61l-2.73-11.45h2.37l1.73,7.87,2.09-7.87h2.75l2.01,8,1.76-8h2.33l-2.78,11.45h-2.45l-2.28-8.56-2.27,8.56h-2.51Z"/><path d="M528.68,57.97l2.19,.37c-.28,.8-.73,1.41-1.33,1.83-.61,.42-1.37,.63-2.28,.63-1.44,0-2.51-.47-3.2-1.41-.55-.75-.82-1.71-.82-2.86,0-1.38,.36-2.45,1.08-3.23,.72-.78,1.63-1.17,2.73-1.17,1.23,0,2.21,.41,2.92,1.22,.71,.82,1.05,2.06,1.02,3.75h-5.5c.02,.65,.19,1.16,.53,1.52,.34,.36,.76,.54,1.27,.54,.34,0,.63-.09,.87-.28s.41-.49,.53-.91Zm.12-2.22c-.02-.63-.18-1.12-.49-1.45-.31-.33-.69-.5-1.14-.5-.48,0-.88,.18-1.19,.52-.31,.35-.47,.82-.46,1.42h3.28Z"/><path d="M534.89,60.61h-2.2v-8.3h2.04v1.18c.35-.56,.66-.92,.94-1.1,.28-.18,.59-.27,.95-.27,.5,0,.98,.14,1.45,.41l-.68,1.91c-.37-.24-.71-.36-1.03-.36s-.57,.09-.78,.25c-.21,.17-.38,.48-.5,.92-.12,.44-.18,1.37-.18,2.78v2.56Z"/><path d="M542.84,52.32v1.75h-1.5v3.34c0,.68,.01,1.07,.04,1.18,.03,.11,.09,.21,.2,.28,.1,.07,.23,.11,.37,.11,.2,0,.5-.07,.88-.21l.19,1.7c-.51,.22-1.09,.33-1.73,.33-.4,0-.75-.07-1.07-.2s-.55-.3-.7-.52-.25-.5-.31-.86c-.05-.25-.07-.77-.07-1.55v-3.62h-1.01v-1.75h1.01v-1.65l2.2-1.28v2.93h1.5Z"/><path d="M543.52,58.25l2.2-.34c.09,.43,.28,.75,.57,.97,.29,.22,.69,.33,1.2,.33,.57,0,1-.1,1.28-.31,.19-.14,.29-.34,.29-.59,0-.17-.05-.3-.16-.41-.11-.1-.35-.2-.73-.29-1.77-.39-2.89-.75-3.37-1.07-.66-.45-.98-1.07-.98-1.87,0-.72,.28-1.32,.85-1.81,.57-.49,1.45-.73,2.64-.73s1.98,.19,2.53,.55c.55,.37,.93,.92,1.14,1.64l-2.07,.38c-.09-.32-.26-.57-.5-.74s-.6-.26-1.06-.26c-.58,0-.99,.08-1.24,.24-.17,.12-.25,.26-.25,.45,0,.16,.07,.29,.22,.4,.2,.15,.88,.35,2.05,.62s1.99,.59,2.45,.98c.46,.39,.69,.94,.69,1.63,0,.76-.32,1.41-.95,1.96s-1.58,.82-2.82,.82c-1.13,0-2.02-.23-2.68-.69-.66-.46-1.09-1.08-1.29-1.87Z"/><path d="M560.46,54.77l-2.16,.39c-.07-.43-.24-.76-.5-.98s-.59-.33-1-.33c-.55,0-.98,.19-1.31,.57-.33,.38-.49,1.01-.49,1.89,0,.98,.17,1.68,.5,2.09s.77,.61,1.33,.61c.42,0,.76-.12,1.02-.36,.27-.24,.45-.64,.56-1.22l2.16,.37c-.22,.99-.65,1.74-1.29,2.24-.64,.51-1.49,.76-2.55,.76-1.21,0-2.18-.38-2.9-1.15s-1.08-1.82-1.08-3.18,.36-2.44,1.09-3.2c.72-.76,1.7-1.14,2.94-1.14,1.01,0,1.81,.22,2.41,.65,.6,.44,1.02,1.1,1.29,1.99Z"/><path d="M564.33,49.16v4.21c.71-.83,1.55-1.24,2.54-1.24,.5,0,.96,.09,1.37,.28s.71,.43,.92,.72c.21,.29,.35,.62,.42,.97,.08,.36,.11,.9,.11,1.65v4.87h-2.2v-4.38c0-.87-.04-1.42-.12-1.66s-.23-.42-.44-.56c-.21-.14-.48-.21-.79-.21-.36,0-.69,.09-.98,.27-.29,.18-.5,.45-.63,.8-.13,.36-.2,.88-.2,1.58v4.16h-2.2v-11.45h2.2Z"/><path d="M571.41,56.35c0-.73,.18-1.43,.54-2.12,.36-.68,.87-1.2,1.53-1.56s1.39-.54,2.21-.54c1.25,0,2.28,.41,3.09,1.22,.8,.82,1.2,1.85,1.2,3.09s-.41,2.3-1.21,3.12c-.81,.83-1.83,1.24-3.06,1.24-.76,0-1.49-.17-2.18-.52s-1.21-.85-1.57-1.51-.54-1.47-.54-2.43Zm1.57-5.5v-1.88h1.88v1.88h-1.88Zm.68,5.62c0,.82,.2,1.45,.59,1.89s.87,.66,1.45,.66,1.05-.22,1.44-.66,.58-1.07,.58-1.91-.19-1.44-.58-1.88-.87-.66-1.44-.66-1.05,.22-1.45,.66-.59,1.07-.59,1.89Zm2.68-5.62v-1.88h1.89v1.88h-1.89Z"/><path d="M581.64,52.32h2.05v1.22c.27-.42,.62-.75,1.08-1.02,.45-.26,.96-.39,1.51-.39,.96,0,1.78,.38,2.45,1.13,.67,.76,1.01,1.81,1.01,3.16s-.34,2.46-1.02,3.23c-.68,.77-1.5,1.15-2.46,1.15-.46,0-.87-.09-1.25-.27-.37-.18-.76-.49-1.18-.94v4.18h-2.2v-11.45Zm2.17,4.01c0,.93,.18,1.62,.55,2.07s.82,.67,1.35,.67,.93-.2,1.27-.61c.34-.41,.51-1.08,.51-2.01,0-.87-.17-1.52-.52-1.94s-.78-.63-1.3-.63-.98,.21-1.34,.62-.53,1.03-.53,1.84Z"/><path d="M590.48,52.32h1.22v-.62c0-.7,.07-1.22,.22-1.56s.42-.62,.82-.84c.4-.21,.9-.32,1.51-.32s1.24,.09,1.84,.28l-.3,1.53c-.35-.08-.68-.12-1.01-.12s-.55,.07-.68,.22-.21,.43-.21,.86v.59h1.64v1.73h-1.64v6.57h-2.2v-6.57h-1.22v-1.73Z"/><path d="M602.27,60.61v-1.24c-.3,.44-.7,.79-1.19,1.05-.49,.26-1.01,.38-1.56,.38s-1.06-.12-1.5-.37c-.44-.24-.76-.59-.96-1.03-.2-.44-.3-1.05-.3-1.84v-5.25h2.2v3.81c0,1.17,.04,1.88,.12,2.14,.08,.26,.23,.47,.44,.62,.21,.15,.48,.23,.81,.23,.38,0,.71-.1,1.01-.31,.3-.21,.5-.46,.61-.77s.16-1.05,.16-2.24v-3.5h2.2v8.3h-2.04Z"/><path d="M614.16,60.61h-2.2v-4.23c0-.89-.05-1.47-.14-1.74-.09-.26-.25-.47-.46-.61-.21-.14-.46-.22-.76-.22-.38,0-.72,.11-1.02,.31-.3,.21-.51,.48-.62,.83s-.17,.98-.17,1.91v3.76h-2.2v-8.3h2.04v1.22c.72-.94,1.64-1.41,2.73-1.41,.48,0,.93,.09,1.33,.26,.4,.18,.7,.4,.91,.67,.21,.27,.35,.58,.43,.92s.12,.84,.12,1.48v5.16Z"/><path d="M616.18,61.16l2.51,.3c.04,.29,.14,.49,.29,.6,.21,.16,.54,.23,.98,.23,.57,0,1-.09,1.29-.26,.19-.11,.34-.3,.44-.55,.07-.18,.1-.52,.1-1.01v-1.21c-.66,.9-1.48,1.34-2.48,1.34-1.11,0-2-.47-2.65-1.41-.51-.74-.77-1.67-.77-2.78,0-1.39,.33-2.45,1-3.19s1.5-1.1,2.5-1.1,1.87,.45,2.54,1.35v-1.16h2.05v7.45c0,.98-.08,1.71-.24,2.2s-.39,.87-.68,1.14c-.29,.28-.68,.49-1.17,.65s-1.1,.23-1.85,.23c-1.41,0-2.4-.24-2.99-.72-.59-.48-.88-1.09-.88-1.83,0-.07,0-.16,0-.27Zm1.96-4.87c0,.88,.17,1.53,.51,1.93,.34,.41,.76,.61,1.26,.61,.54,0,.99-.21,1.36-.63,.37-.42,.55-1.04,.55-1.86s-.18-1.5-.53-1.91c-.35-.42-.8-.62-1.34-.62s-.96,.21-1.3,.61c-.34,.41-.51,1.03-.51,1.87Z"/><path d="M450.36,83.18c-.78-.98-1.43-2.12-1.97-3.44s-.8-2.67-.8-4.08c0-1.24,.2-2.43,.6-3.56,.47-1.32,1.19-2.63,2.17-3.94h1.01c-.63,1.08-1.05,1.86-1.25,2.32-.32,.72-.57,1.47-.75,2.25-.22,.97-.34,1.95-.34,2.94,0,2.5,.78,5.01,2.34,7.51h-1.01Z"/><path d="M451.94,79.81l4.4-11.45h1.63l4.69,11.45h-1.73l-1.34-3.47h-4.79l-1.26,3.47h-1.61Zm3.3-4.7h3.88l-1.2-3.17c-.36-.96-.64-1.76-.81-2.38-.15,.73-.35,1.46-.62,2.19l-1.26,3.36Z"/><path d="M475.47,73.08h-7.56v-1.31h7.56v1.31Zm0,3.48h-7.56v-1.31h7.56v1.31Z"/><path d="M480.76,79.81l4.4-11.45h1.63l4.69,11.45h-1.73l-1.34-3.47h-4.79l-1.26,3.47h-1.61Zm3.3-4.7h3.88l-1.2-3.17c-.36-.96-.64-1.76-.81-2.38-.15,.73-.35,1.46-.62,2.19l-1.26,3.36Z"/><path d="M492.49,79.81v-11.45h1.41v6.53l3.33-3.38h1.82l-3.17,3.08,3.49,5.22h-1.73l-2.74-4.24-.99,.95v3.29h-1.41Z"/><path d="M503.62,78.56l.2,1.24c-.4,.08-.75,.12-1.06,.12-.51,0-.91-.08-1.19-.24-.28-.16-.48-.37-.59-.64-.11-.26-.17-.82-.17-1.66v-4.77h-1.03v-1.09h1.03v-2.05l1.4-.84v2.9h1.41v1.09h-1.41v4.85c0,.4,.02,.66,.07,.77,.05,.11,.13,.21,.24,.27,.11,.07,.27,.1,.48,.1,.16,0,.36-.02,.62-.05Z"/><path d="M504.93,69.98v-1.62h1.41v1.62h-1.41Zm0,9.84v-8.3h1.41v8.3h-1.41Z"/><path d="M510.79,79.81l-3.16-8.3h1.48l1.78,4.97c.19,.54,.37,1.09,.53,1.67,.12-.44,.3-.96,.52-1.58l1.84-5.06h1.45l-3.14,8.3h-1.31Z"/><path d="M516.54,69.98v-1.62h1.41v1.62h-1.41Zm0,9.84v-8.3h1.41v8.3h-1.41Z"/><path d="M523.15,78.56l.2,1.24c-.4,.08-.75,.12-1.06,.12-.51,0-.91-.08-1.19-.24-.28-.16-.48-.37-.59-.64-.11-.26-.17-.82-.17-1.66v-4.77h-1.03v-1.09h1.03v-2.05l1.4-.84v2.9h1.41v1.09h-1.41v4.85c0,.4,.02,.66,.07,.77,.05,.11,.13,.21,.24,.27,.11,.07,.27,.1,.48,.1,.16,0,.36-.02,.62-.05Z"/><path d="M529.88,78.79c-.52,.44-1.02,.75-1.5,.94-.48,.18-1,.27-1.55,.27-.91,0-1.61-.22-2.1-.67s-.73-1.01-.73-1.71c0-.41,.09-.78,.28-1.11s.43-.61,.73-.81,.64-.36,1.01-.46c.28-.07,.69-.14,1.25-.21,1.14-.14,1.97-.3,2.51-.48,0-.19,0-.32,0-.37,0-.57-.13-.98-.4-1.21-.36-.32-.89-.48-1.6-.48-.66,0-1.15,.12-1.46,.35-.32,.23-.55,.64-.7,1.23l-1.38-.19c.12-.59,.33-1.06,.62-1.43,.29-.36,.7-.64,1.24-.84s1.17-.29,1.88-.29,1.28,.08,1.73,.25c.44,.17,.77,.38,.98,.63,.21,.25,.35,.57,.44,.96,.05,.24,.07,.67,.07,1.3v1.88c0,1.31,.03,2.13,.09,2.48,.06,.35,.18,.68,.36,1h-1.47c-.15-.29-.24-.63-.28-1.02Zm-.12-3.14c-.51,.21-1.28,.38-2.3,.53-.58,.08-.99,.18-1.23,.28-.24,.1-.42,.26-.55,.46-.13,.2-.2,.42-.2,.67,0,.38,.14,.69,.43,.94s.7,.38,1.25,.38,1.02-.12,1.45-.36c.42-.24,.73-.56,.93-.97,.15-.32,.23-.79,.23-1.41v-.52Zm-4.14-5.76v-1.6h1.47v1.6h-1.47Zm2.91,0v-1.6h1.47v1.6h-1.47Z"/><path d="M536.4,78.56l.2,1.24c-.4,.08-.75,.12-1.06,.12-.51,0-.91-.08-1.19-.24-.28-.16-.48-.37-.59-.64-.11-.26-.17-.82-.17-1.66v-4.77h-1.03v-1.09h1.03v-2.05l1.4-.84v2.9h1.41v1.09h-1.41v4.85c0,.4,.02,.66,.07,.77,.05,.11,.13,.21,.24,.27,.11,.07,.27,.1,.48,.1,.16,0,.36-.02,.62-.05Z"/><path d="M538.63,83.18h-1.01c1.56-2.5,2.34-5,2.34-7.51,0-.98-.11-1.95-.34-2.91-.18-.78-.42-1.53-.74-2.25-.2-.47-.62-1.25-1.26-2.34h1.01c.98,1.31,1.7,2.62,2.17,3.94,.4,1.13,.6,2.32,.6,3.56,0,1.41-.27,2.77-.81,4.08s-1.19,2.46-1.96,3.44Z"/></g><g><path d="M340.37,175.52l3.85-10.02h1.43l4.1,10.02h-1.51l-1.17-3.04h-4.19l-1.1,3.04h-1.41Zm2.89-4.12h3.4l-1.05-2.78c-.32-.84-.56-1.54-.71-2.08-.13,.64-.31,1.28-.54,1.91l-1.1,2.94Z" style="fill:#1d1d1b;"/><path d="M352.73,180.18h-.72v-4.57c-.17,.16-.4,.33-.68,.49-.28,.16-.53,.29-.75,.37v-.69c.4-.19,.75-.42,1.05-.69,.3-.27,.51-.53,.64-.78h.46v5.87Z" style="fill:#1d1d1b;"/></g><g><path d="M435.47,175.52l3.85-10.02h1.43l4.1,10.02h-1.51l-1.17-3.04h-4.19l-1.1,3.04h-1.41Zm2.89-4.12h3.4l-1.05-2.78c-.32-.84-.56-1.54-.71-2.08-.13,.64-.31,1.28-.54,1.91l-1.1,2.94Z" style="fill:#1d1d1b;"/><path d="M448.9,179.49v.69h-3.86c0-.17,.02-.34,.08-.5,.1-.26,.26-.52,.47-.78,.22-.25,.53-.55,.94-.88,.64-.52,1.06-.93,1.29-1.24,.22-.3,.33-.59,.33-.86s-.1-.52-.3-.72-.47-.29-.79-.29c-.35,0-.62,.1-.83,.31s-.31,.49-.31,.86l-.74-.08c.05-.55,.24-.97,.57-1.26,.33-.29,.77-.43,1.33-.43s1,.15,1.33,.46c.33,.31,.49,.7,.49,1.16,0,.23-.05,.46-.14,.69-.1,.23-.25,.46-.48,.71-.22,.25-.59,.59-1.11,1.03-.43,.36-.71,.61-.83,.73-.12,.13-.22,.26-.3,.39h2.87Z" style="fill:#1d1d1b;"/></g><g><path d="M530.87,175.52l3.85-10.02h1.43l4.1,10.02h-1.51l-1.17-3.04h-4.19l-1.1,3.04h-1.41Zm2.89-4.12h3.4l-1.05-2.78c-.32-.84-.56-1.54-.71-2.08-.13,.64-.31,1.28-.54,1.91l-1.1,2.94Z" style="fill:#1d1d1b;"/><path d="M540.53,178.64l.72-.1c.08,.41,.22,.7,.42,.88s.44,.27,.72,.27c.34,0,.62-.12,.85-.35,.23-.23,.35-.52,.35-.87s-.11-.6-.32-.82c-.22-.21-.49-.32-.82-.32-.14,0-.3,.03-.51,.08l.08-.63s.09,0,.12,0c.31,0,.58-.08,.82-.24,.25-.16,.37-.41,.37-.74,0-.26-.09-.48-.27-.65-.18-.17-.41-.26-.69-.26s-.51,.09-.7,.26c-.19,.18-.31,.44-.36,.79l-.72-.13c.09-.48,.29-.85,.6-1.12,.31-.27,.7-.4,1.16-.4,.32,0,.61,.07,.88,.21s.47,.32,.62,.56c.14,.24,.21,.49,.21,.75,0,.25-.07,.48-.2,.69s-.34,.37-.6,.49c.34,.08,.61,.25,.8,.5,.19,.25,.29,.57,.29,.94,0,.51-.19,.94-.56,1.3-.37,.35-.84,.53-1.41,.53-.51,0-.94-.15-1.28-.46-.34-.31-.53-.7-.58-1.19Z" style="fill:#1d1d1b;"/></g><g><path d="M626.27,175.52l3.85-10.02h1.43l4.1,10.02h-1.51l-1.17-3.04h-4.19l-1.1,3.04h-1.41Zm2.89-4.12h3.4l-1.05-2.78c-.32-.84-.56-1.54-.71-2.08-.13,.64-.31,1.28-.54,1.91l-1.1,2.94Z" style="fill:#1d1d1b;"/><path d="M636.13,180.18v-4.23h.65v.6c.31-.46,.76-.7,1.35-.7,.26,0,.49,.05,.7,.14,.21,.09,.37,.21,.48,.36,.11,.15,.18,.33,.22,.53,.03,.13,.04,.37,.04,.7v2.6h-.72v-2.57c0-.29-.03-.51-.08-.66-.06-.15-.16-.26-.3-.35-.14-.09-.31-.13-.5-.13-.31,0-.57,.1-.79,.29s-.33,.56-.33,1.1v2.31h-.72Z" style="fill:#1d1d1b;"/></g><g><path d="M340.37,305.82l3.85-10.02h1.43l4.1,10.02h-1.51l-1.17-3.04h-4.19l-1.1,3.04h-1.41Zm2.89-4.12h3.4l-1.05-2.78c-.32-.84-.56-1.54-.71-2.08-.13,.64-.31,1.28-.54,1.91l-1.1,2.94Z" style="fill:#1d1d1b;"/><path d="M352.73,310.48h-.72v-4.57c-.17,.17-.4,.33-.68,.49s-.53,.29-.75,.37v-.69c.4-.19,.75-.42,1.05-.69,.3-.27,.51-.53,.64-.78h.46v5.87Z" style="fill:#1d1d1b;"/></g><g><path d="M435.47,305.82l3.85-10.02h1.43l4.1,10.02h-1.51l-1.17-3.04h-4.19l-1.1,3.04h-1.41Zm2.89-4.12h3.4l-1.05-2.78c-.32-.84-.56-1.54-.71-2.08-.13,.64-.31,1.28-.54,1.91l-1.1,2.94Z" style="fill:#1d1d1b;"/><path d="M448.9,309.79v.69h-3.86c0-.17,.02-.34,.08-.5,.1-.26,.26-.52,.47-.78,.22-.25,.53-.55,.94-.88,.64-.52,1.06-.93,1.29-1.24,.22-.3,.33-.59,.33-.86s-.1-.52-.3-.72-.47-.29-.79-.29c-.35,0-.62,.1-.83,.31s-.31,.49-.31,.86l-.74-.08c.05-.55,.24-.97,.57-1.26,.33-.29,.77-.43,1.33-.43s1,.16,1.33,.47c.33,.31,.49,.7,.49,1.16,0,.23-.05,.46-.14,.69-.1,.23-.25,.46-.48,.71s-.59,.59-1.11,1.03c-.43,.36-.71,.61-.83,.74-.12,.13-.22,.26-.3,.39h2.87Z" style="fill:#1d1d1b;"/></g><g><path d="M530.87,305.82l3.85-10.02h1.43l4.1,10.02h-1.51l-1.17-3.04h-4.19l-1.1,3.04h-1.41Zm2.89-4.12h3.4l-1.05-2.78c-.32-.84-.56-1.54-.71-2.08-.13,.64-.31,1.28-.54,1.91l-1.1,2.94Z" style="fill:#1d1d1b;"/><path d="M540.53,308.94l.72-.1c.08,.41,.22,.7,.42,.88,.2,.18,.44,.27,.72,.27,.34,0,.62-.12,.85-.35,.23-.23,.35-.52,.35-.87s-.11-.6-.32-.82c-.22-.21-.49-.32-.82-.32-.14,0-.3,.03-.51,.08l.08-.63s.09,0,.12,0c.31,0,.58-.08,.82-.24,.25-.16,.37-.41,.37-.74,0-.26-.09-.48-.27-.65-.18-.17-.41-.26-.69-.26s-.51,.09-.7,.26c-.19,.17-.31,.44-.36,.79l-.72-.13c.09-.48,.29-.85,.6-1.12,.31-.26,.7-.4,1.16-.4,.32,0,.61,.07,.88,.21s.47,.32,.62,.56c.14,.24,.21,.49,.21,.75s-.07,.48-.2,.69c-.14,.21-.34,.37-.6,.49,.34,.08,.61,.25,.8,.5,.19,.25,.29,.56,.29,.94,0,.51-.19,.94-.56,1.3s-.84,.53-1.41,.53c-.51,0-.94-.15-1.28-.46-.34-.31-.53-.7-.58-1.19Z" style="fill:#1d1d1b;"/></g><g><path d="M626.27,305.82l3.85-10.02h1.43l4.1,10.02h-1.51l-1.17-3.04h-4.19l-1.1,3.04h-1.41Zm2.89-4.12h3.4l-1.05-2.78c-.32-.84-.56-1.54-.71-2.08-.13,.64-.31,1.28-.54,1.91l-1.1,2.94Z" style="fill:#1d1d1b;"/><path d="M636.13,310.48v-4.23h.65v.6c.31-.46,.76-.7,1.35-.7,.26,0,.49,.05,.7,.14,.21,.09,.37,.21,.48,.36,.11,.15,.18,.33,.22,.53,.03,.13,.04,.37,.04,.7v2.6h-.72v-2.58c0-.29-.03-.51-.08-.66-.06-.14-.16-.26-.3-.35-.14-.09-.31-.13-.5-.13-.31,0-.57,.1-.79,.29-.22,.19-.33,.56-.33,1.1v2.31h-.72Z" style="fill:#1d1d1b;"/></g><g><path d="M340.37,435.22l3.85-10.02h1.43l4.1,10.02h-1.51l-1.17-3.04h-4.19l-1.1,3.04h-1.41Zm2.89-4.12h3.4l-1.05-2.78c-.32-.84-.56-1.54-.71-2.08-.13,.64-.31,1.28-.54,1.91l-1.1,2.94Z" style="fill:#1d1d1b;"/><path d="M352.73,439.88h-.72v-4.57c-.17,.17-.4,.33-.68,.49-.28,.17-.53,.29-.75,.37v-.69c.4-.19,.75-.42,1.05-.69,.3-.27,.51-.53,.64-.78h.46v5.87Z" style="fill:#1d1d1b;"/></g><g><path d="M435.47,435.22l3.85-10.02h1.43l4.1,10.02h-1.51l-1.17-3.04h-4.19l-1.1,3.04h-1.41Zm2.89-4.12h3.4l-1.05-2.78c-.32-.84-.56-1.54-.71-2.08-.13,.64-.31,1.28-.54,1.91l-1.1,2.94Z" style="fill:#1d1d1b;"/><path d="M448.9,439.19v.69h-3.86c0-.17,.02-.34,.08-.5,.1-.26,.26-.52,.47-.78,.22-.25,.53-.55,.94-.88,.64-.52,1.06-.93,1.29-1.24,.22-.3,.33-.59,.33-.86,0-.28-.1-.52-.3-.72s-.47-.29-.79-.29c-.35,0-.62,.1-.83,.31-.21,.21-.31,.49-.31,.86l-.74-.08c.05-.55,.24-.97,.57-1.26,.33-.29,.77-.43,1.33-.43s1,.16,1.33,.47c.33,.31,.49,.7,.49,1.16,0,.23-.05,.46-.14,.69s-.25,.46-.48,.71c-.22,.25-.59,.59-1.11,1.03-.43,.36-.71,.61-.83,.74-.12,.13-.22,.26-.3,.39h2.87Z" style="fill:#1d1d1b;"/></g><g><path d="M530.87,435.22l3.85-10.02h1.43l4.1,10.02h-1.51l-1.17-3.04h-4.19l-1.1,3.04h-1.41Zm2.89-4.12h3.4l-1.05-2.78c-.32-.84-.56-1.54-.71-2.08-.13,.64-.31,1.28-.54,1.91l-1.1,2.94Z" style="fill:#1d1d1b;"/><path d="M540.53,438.34l.72-.1c.08,.41,.22,.7,.42,.88,.2,.18,.44,.27,.72,.27,.34,0,.62-.12,.85-.35,.23-.23,.35-.52,.35-.87s-.11-.6-.32-.82c-.22-.21-.49-.32-.82-.32-.14,0-.3,.03-.51,.08l.08-.63s.09,0,.12,0c.31,0,.58-.08,.82-.24,.25-.16,.37-.41,.37-.74,0-.26-.09-.48-.27-.65-.18-.17-.41-.26-.69-.26s-.51,.09-.7,.26c-.19,.18-.31,.44-.36,.79l-.72-.13c.09-.48,.29-.85,.6-1.12,.31-.26,.7-.4,1.16-.4,.32,0,.61,.07,.88,.21s.47,.32,.62,.56c.14,.24,.21,.49,.21,.75,0,.25-.07,.48-.2,.69s-.34,.37-.6,.49c.34,.08,.61,.25,.8,.5s.29,.57,.29,.94c0,.51-.19,.94-.56,1.3-.37,.35-.84,.53-1.41,.53-.51,0-.94-.15-1.28-.46s-.53-.7-.58-1.19Z" style="fill:#1d1d1b;"/></g><g><path d="M626.27,435.22l3.85-10.02h1.43l4.1,10.02h-1.51l-1.17-3.04h-4.19l-1.1,3.04h-1.41Zm2.89-4.12h3.4l-1.05-2.78c-.32-.84-.56-1.54-.71-2.08-.13,.64-.31,1.28-.54,1.91l-1.1,2.94Z" style="fill:#1d1d1b;"/><path d="M636.13,439.88v-4.23h.65v.6c.31-.46,.76-.7,1.35-.7,.26,0,.49,.05,.7,.14s.37,.21,.48,.36c.11,.15,.18,.33,.22,.53,.03,.13,.04,.37,.04,.7v2.6h-.72v-2.57c0-.29-.03-.51-.08-.66-.06-.15-.16-.26-.3-.35-.14-.09-.31-.13-.5-.13-.31,0-.57,.1-.79,.29-.22,.19-.33,.56-.33,1.1v2.31h-.72Z" style="fill:#1d1d1b;"/></g><g><line x1="227.6" y1="164.11" x2="270.82" y2="164.11" style="fill:none; stroke:#000; stroke-miterlimit:8;"/><polygon points="269.37 169.1 278 164.11 269.37 159.13 269.37 169.1"/></g><g><line x1="227.6" y1="294.41" x2="270.82" y2="294.41" style="fill:none; stroke:#000; stroke-miterlimit:8;"/><polygon points="269.37 299.4 278 294.41 269.37 289.43 269.37 299.4"/></g><g><line x1="227.6" y1="424.71" x2="270.82" y2="424.71" style="fill:none; stroke:#000; stroke-miterlimit:8;"/><polygon points="269.37 429.7 278 424.71 269.37 419.73 269.37 429.7"/></g><g><line x1="710.6" y1="164.11" x2="753.82" y2="164.11" style="fill:none; stroke:#000; stroke-miterlimit:8;"/><polygon points="752.37 169.1 761 164.11 752.37 159.13 752.37 169.1"/></g><g><line x1="563.3" y1="173.22" x2="600.52" y2="173.22" style="fill:none; stroke:#000; stroke-miterlimit:8;"/><polygon points="599.07 178.21 607.7 173.22 599.07 168.24 599.07 178.21"/></g><g><line x1="468.2" y1="173.22" x2="505.42" y2="173.22" style="fill:none; stroke:#000; stroke-miterlimit:8;"/><polygon points="503.97 178.21 512.6 173.22 503.97 168.24 503.97 178.21"/></g><g><line x1="372.95" y1="173.22" x2="410.17" y2="173.22" style="fill:none; stroke:#000; stroke-miterlimit:8;"/><polygon points="408.72 178.21 417.35 173.22 408.72 168.24 408.72 178.21"/></g><g><line x1="563.3" y1="304.41" x2="600.52" y2="304.41" style="fill:none; stroke:#000; stroke-miterlimit:8;"/><polygon points="599.07 309.4 607.7 304.41 599.07 299.43 599.07 309.4"/></g><g><line x1="468.2" y1="304.41" x2="505.42" y2="304.41" style="fill:none; stroke:#000; stroke-miterlimit:8;"/><polygon points="503.97 309.4 512.6 304.41 503.97 299.43 503.97 309.4"/></g><g><line x1="372.95" y1="304.41" x2="410.17" y2="304.41" style="fill:none; stroke:#000; stroke-miterlimit:8;"/><polygon points="408.72 309.4 417.35 304.41 408.72 299.43 408.72 309.4"/></g><g><line x1="563.3" y1="433.81" x2="600.52" y2="433.81" style="fill:none; stroke:#000; stroke-miterlimit:8;"/><polygon points="599.07 438.8 607.7 433.81 599.07 428.83 599.07 438.8"/></g><g><line x1="468.2" y1="433.81" x2="505.42" y2="433.81" style="fill:none; stroke:#000; stroke-miterlimit:8;"/><polygon points="503.97 438.8 512.6 433.81 503.97 428.83 503.97 438.8"/></g><g><line x1="372.95" y1="433.81" x2="410.17" y2="433.81" style="fill:none; stroke:#000; stroke-miterlimit:8;"/><polygon points="408.72 438.8 417.35 433.81 408.72 428.83 408.72 438.8"/></g><g><line x1="710.6" y1="294.41" x2="753.82" y2="294.41" style="fill:none; stroke:#000; stroke-miterlimit:8;"/><polygon points="752.37 299.4 761 294.41 752.37 289.43 752.37 299.4"/></g><g><line x1="710.6" y1="424.71" x2="753.82" y2="424.71" style="fill:none; stroke:#000; stroke-miterlimit:8;"/><polygon points="752.37 429.7 761 424.71 752.37 419.73 752.37 429.7"/></g></svg>