<?xml version="1.0" encoding="UTF-8"?><svg id="a" xmlns="http://www.w3.org/2000/svg" viewBox="0 0 988 525"><defs><style>.b{stroke-width:2px;}.b,.c{fill:#fff;}.b,.d{stroke:#000;stroke-miterlimit:8;}.e{letter-spacing:0em;}.f,.g,.h,.i{font-family:ArialMT, Arial;}.f,.i{fill:#1d1d1b;}.j{letter-spacing:0em;}.k,.l{fill:#2d509f;}.g{letter-spacing:0em;}.g,.h{font-size:13.71px;}.l,.m,.c,.n{font-family:Arial-BoldMT, Arial;}.m,.n{font-size:16px;}.o,.n{letter-spacing:0em;}.i,.p{font-size:14px;}.q{letter-spacing:0em;}.c{font-size:9px;}.d{fill:none;}.r{letter-spacing:0em;}</style></defs><g><rect class="b" x="135" y="56.36" width="172.67" height="68"/><text class="m" transform="translate(180.49 96.03)"><tspan class="o" x="0" y="0">M</tspan><tspan class="q" x="13.3" y="0">i</tspan><tspan class="e" x="17.73" y="0">t</tspan><tspan x="23.01" y="0">ar</tspan><tspan class="r" x="38.13" y="0">b</tspan><tspan x="47.94" y="0">e</tspan><tspan class="q" x="56.83" y="0">i</tspan><tspan class="e" x="61.26" y="0">t</tspan><tspan class="j" x="66.54" y="0">e</tspan><tspan x="75.46" y="0">r</tspan></text><polygon class="d" points="430.33 89.94 488.33 64.94 546.33 89.94 488.33 114.94 430.33 89.94"/><text class="g" transform="translate(474.09 94.03)"><tspan x="0" y="0">leitet</tspan></text><line class="d" x1="307.67" y1="89.61" x2="430.54" y2="89.61"/><line class="d" x1="546.33" y1="89.61" x2="681.05" y2="89.61"/><rect class="b" x="681" y="56.36" width="172" height="68"/><text class="m" transform="translate(739.88 96.03)"><tspan x="0" y="0">Projekt</tspan></text><text class="h" transform="translate(663.06 80.36)"><tspan x="0" y="0">1</tspan></text></g><g><rect class="b" x="135" y="203.77" width="172.67" height="68"/><text class="m" transform="translate(180.49 243.44)"><tspan class="o" x="0" y="0">M</tspan><tspan class="q" x="13.3" y="0">i</tspan><tspan class="e" x="17.73" y="0">t</tspan><tspan x="23.01" y="0">ar</tspan><tspan class="r" x="38.13" y="0">b</tspan><tspan x="47.94" y="0">e</tspan><tspan class="q" x="56.83" y="0">i</tspan><tspan class="e" x="61.26" y="0">t</tspan><tspan class="j" x="66.54" y="0">e</tspan><tspan x="75.46" y="0">r</tspan></text><polygon class="d" points="430.33 237.35 488.33 212.35 546.33 237.35 488.33 262.35 430.33 237.35"/><text class="g" transform="translate(465.42 241.44)"><tspan x="0" y="0">erbringt</tspan></text><line class="d" x1="307.67" y1="237.02" x2="430.54" y2="237.02"/><line class="d" x1="546.33" y1="237.02" x2="681.05" y2="237.02"/><rect class="b" x="681" y="203.77" width="172" height="68"/><text class="m" transform="translate(733.67 243.44)"><tspan x="0" y="0">Leistung</tspan></text><text class="h" transform="translate(318.46 227.77)"><tspan x="0" y="0">1</tspan></text><text class="h" transform="translate(663.06 227.77)"><tspan x="0" y="0">n</tspan></text></g><g><rect class="b" x="135" y="351.18" width="172.67" height="68"/><text class="n" transform="translate(188.11 390.85)"><tspan x="0" y="0">Leistung</tspan></text><polygon class="d" points="430.33 384.76 488.33 359.76 546.33 384.76 488.33 409.76 430.33 384.76"/><text class="g" transform="translate(460.13 388.85)"><tspan x="0" y="0">gehört zu</tspan></text><line class="d" x1="307.67" y1="384.43" x2="430.54" y2="384.43"/><line class="d" x1="546.33" y1="384.43" x2="681.05" y2="384.43"/><rect class="b" x="681" y="351.18" width="172" height="68"/><text class="m" transform="translate(738.56 390.85)"><tspan x="0" y="0">Auftrag</tspan></text><text class="h" transform="translate(318.46 375.18)"><tspan x="0" y="0">n</tspan></text><text class="h" transform="translate(663.06 375.18)"><tspan x="0" y="0">1</tspan></text></g><text class="p" transform="translate(135 157.8)"><tspan class="l" x="0" y="0">Ein Mitarbeiter leitet genau ein Projekt; </tspan><tspan class="f" x="262.94" y="0">ein Projekt wird von genau einem Mitarbeiter geleitet</tspan></text><text class="i" transform="translate(135 305.21)"><tspan x="0" y="0">Ein Mitarbeiter erbringt mehrere Leistungen; eine Leistung wird immer von genau einem Mitarbeiter erbracht</tspan></text><text class="i" transform="translate(135 452.62)"><tspan x="0" y="0">Eine Leistung gehört zu genau einem Auftrag; ein Auftrag kann mehrere Leistungen umfassen.</tspan></text><text class="h" transform="translate(318.46 80.36)"><tspan x="0" y="0">1</tspan></text><g><circle class="k" cx="221.33" cy="56.36" r="9.94"/><text class="c" transform="translate(218.83 58.53)"><tspan x="0" y="0">1</tspan></text></g><g><circle class="k" cx="488.33" cy="64.94" r="9.94"/><text class="c" transform="translate(485.83 67.11)"><tspan x="0" y="0">2</tspan></text></g><g><circle class="k" cx="645.25" cy="74.88" r="9.94"/><text class="c" transform="translate(642.75 77.05)"><tspan x="0" y="0">3</tspan></text></g><g><circle class="k" cx="767" cy="55.01" r="9.94"/><text class="c" transform="translate(764.5 57.17)"><tspan x="0" y="0">4</tspan></text></g></svg>