<?xml version="1.0" encoding="UTF-8"?><svg id="a" xmlns="http://www.w3.org/2000/svg" viewBox="0 0 988 525"><defs><style>.b{stroke-width:2px;}.b,.c{fill:#fff;}.b,.d{stroke:#000;stroke-miterlimit:8;}.e{letter-spacing:0em;}.f{letter-spacing:0em;}.g,.h{fill:#0333ff;}.i{letter-spacing:0em;}.i,.j{font-size:13.71px;}.i,.j,.k{font-family:ArialMT, Arial;}.l,.h,.c,.m{font-family:Arial-BoldMT, Arial;}.l,.m{font-size:16px;}.h,.k{font-size:14px;}.n,.m{letter-spacing:0em;}.k{fill:#1d1d1b;}.o{letter-spacing:0em;}.c{font-size:9px;}.d{fill:none;}.p{letter-spacing:0em;}</style></defs><g><g><rect class="b" x="135" y="350.51" width="172.67" height="68"/><text class="l" transform="translate(180.49 390.17)"><tspan class="n" x="0" y="0">M</tspan><tspan class="o" x="13.3" y="0">i</tspan><tspan class="e" x="17.73" y="0">t</tspan><tspan x="23.01" y="0">ar</tspan><tspan class="p" x="38.13" y="0">b</tspan><tspan x="47.94" y="0">e</tspan><tspan class="o" x="56.83" y="0">i</tspan><tspan class="e" x="61.26" y="0">t</tspan><tspan class="f" x="66.54" y="0">e</tspan><tspan x="75.46" y="0">r</tspan></text><polygon class="d" points="430.33 384.09 488.33 359.09 546.33 384.09 488.33 409.09 430.33 384.09"/><text class="i" transform="translate(465.42 388.17)"><tspan x="0" y="0">erbringt</tspan></text><line class="d" x1="307.67" y1="383.76" x2="430.54" y2="383.76"/><line class="d" x1="546.33" y1="383.76" x2="681.05" y2="383.76"/><rect class="b" x="681" y="350.51" width="172" height="68"/><text class="l" transform="translate(733.67 390.17)"><tspan x="0" y="0">Leistung</tspan></text><text class="j" transform="translate(318.46 374.51)"><tspan x="0" y="0">0,n</tspan></text><text class="j" transform="translate(651.62 374.51)"><tspan x="0" y="0">1,1</tspan></text></g><text class="k" transform="translate(135 320.05)"><tspan x="0" y="0">Ein Mitarbeiter erbringt keine bis unendlich viele Leistungen.</tspan></text></g><g><circle class="g" cx="491.12" cy="409.09" r="9.94"/><text class="c" transform="translate(488.62 411.26)"><tspan x="0" y="0">2</tspan></text></g><g><circle class="g" cx="635.31" cy="369.03" r="9.94"/><text class="c" transform="translate(632.81 371.19)"><tspan x="0" y="0">3</tspan></text></g><g><circle class="g" cx="767" cy="418.51" r="9.94"/><text class="c" transform="translate(764.5 420.67)"><tspan x="0" y="0">1</tspan></text></g><g><circle class="g" cx="211.4" cy="418.51" r="9.94"/><text class="c" transform="translate(208.89 420.67)"><tspan x="0" y="0">4</tspan></text></g><text class="h" transform="translate(467.15 458.62)"><tspan x="0" y="0">Eine Leistung wird von genau einem Mitarbeiter erbracht. </tspan></text><g><g><rect class="b" x="135" y="114.75" width="172.67" height="68"/><text class="m" transform="translate(180.59 154.41)"><tspan x="0" y="0">Mitarbeiter</tspan></text><polygon class="d" points="430.33 148.33 488.33 123.33 546.33 148.33 488.33 173.33 430.33 148.33"/><text class="i" transform="translate(474.09 152.41)"><tspan x="0" y="0">leitet</tspan></text><line class="d" x1="307.67" y1="148" x2="430.54" y2="148"/><line class="d" x1="546.33" y1="148" x2="681.05" y2="148"/><rect class="b" x="681" y="114.75" width="172" height="68"/><text class="l" transform="translate(739.88 154.41)"><tspan x="0" y="0">Projekt</tspan></text><text class="j" transform="translate(318.46 138.75)"><tspan x="0" y="0">0,n</tspan></text><text class="j" transform="translate(651.62 138.75)"><tspan x="0" y="0">1,1</tspan></text></g><text class="k" transform="translate(521.5 221.93)"><tspan x="0" y="0">Ein Projekt wird von genau einem Mitarbeiter geleitet.</tspan></text><text class="h" transform="translate(135 83.04)"><tspan x="0" y="0">Ein Mitarbeiter leitet entweder keines oder unendliche viele Projekte.</tspan></text><circle class="g" cx="359.17" cy="133.27" r="9.94"/><text class="c" transform="translate(356.66 135.43)"><tspan x="0" y="0">3</tspan></text><circle class="g" cx="767" cy="113.39" r="9.94"/><text class="c" transform="translate(764.5 115.56)"><tspan x="0" y="0">4</tspan></text><circle class="g" cx="488.33" cy="123.33" r="9.94"/><text class="c" transform="translate(485.83 125.5)"><tspan x="0" y="0">2</tspan></text></g><g><circle class="g" cx="221.33" cy="115.56" r="9.94"/><text class="c" transform="translate(218.83 117.72)"><tspan x="0" y="0">1</tspan></text></g></svg>