<?xml version="1.0" encoding="UTF-8"?><svg id="a" xmlns="http://www.w3.org/2000/svg" viewBox="0 0 1180 800"><g><path d="M50.26,107.24h5.5v-17.6h-5.5v-2.4h13.82v2.4h-5.5v17.6h5.5v2.4h-13.82v-2.4Z" style="fill:#0333ff;"/><path d="M69.04,93.29h2.34l.22,2.56h.13c.86-1.66,2.53-2.85,5.05-2.85,3.62,0,5.73,2.27,5.73,6.02v10.62h-2.69v-10.21c0-2.56-1.18-4.03-3.78-4.03-2.72,0-4.32,1.92-4.32,5.22v9.02h-2.69v-16.35Z" style="fill:#0333ff;"/><path d="M87.89,101.45c.03-4.83,2.34-8.45,6.94-8.45,2.43,0,4.06,1.12,4.93,2.56h.13v-9.6h2.69v23.68h-2.34l-.35-2.27h-.13c-.86,1.44-2.5,2.56-4.93,2.56-4.29,0-6.97-3.2-6.94-8.48Zm12.06,0c0-3.23-1.41-6.05-4.67-6.05s-4.67,2.78-4.67,6.05,1.28,6.08,4.67,6.08,4.67-2.82,4.67-6.08Z" style="fill:#0333ff;"/><path d="M108.37,103.88v-10.59h2.69v10.17c0,2.56,1.18,4.03,3.78,4.03,2.72,0,4.32-1.92,4.32-5.22v-8.99h2.69v16.35h-2.34l-.22-2.59h-.13c-.86,1.66-2.53,2.85-5.05,2.85-3.62,0-5.73-2.27-5.73-6.02Z" style="fill:#0333ff;"/><path d="M127.55,104.23h2.69c0,2.18,1.66,3.3,4,3.3s3.74-.77,3.74-2.34c0-1.09-.74-2.02-2.5-2.34l-3.26-.61c-2.69-.51-4.03-2.18-4.03-4.58,0-2.72,2.3-4.67,5.92-4.67s6.21,2.02,6.21,5.28h-2.62c-.1-2.08-1.54-3.01-3.58-3.01s-3.33,.8-3.33,2.4c0,1.28,.93,1.98,2.72,2.3l2.56,.48c3.1,.58,4.64,1.92,4.64,4.74,0,3.01-2.94,4.74-6.46,4.74-3.87,0-6.59-2.11-6.69-5.7Z" style="fill:#0333ff;"/><path d="M150.35,105.26v-9.7h-5.06v-2.27h5.12v-4.38h2.62v4.38h6.66v2.27h-6.66v9.47c0,1.57,.67,2.24,2.14,2.24h4.35v2.37h-4.86c-3.23,0-4.32-1.66-4.32-4.38Z" style="fill:#0333ff;"/><path d="M164.62,107.4h4.74v-11.87h-4.19v-2.24h6.53l.22,2.75h.13c.67-1.82,2.3-2.94,4.32-2.94h3.07v2.59h-2.88c-3.1,0-4.51,2.18-4.51,6.02v5.7h7.29v2.24h-14.72v-2.24Z" style="fill:#0333ff;"/><path d="M187.79,116.65l2.78-7.14-.03-.1-6.56-15.81v-.32h2.88l4.96,12.83h.13l4.8-12.83h2.82v.32l-9.06,23.36h-2.72v-.32Z" style="fill:#0333ff;"/></g><g><path d="M66.25,629.4v.32h-2.98l-1.66-5.86h-7.81l-1.66,5.86h-2.91v-.32l6.62-22.08h3.74l6.66,22.08Zm-5.34-8.03l-3.14-10.94h-.13l-3.14,10.94h6.4Z" style="fill:#0333ff;"/><path d="M69.41,621.56c0-5.09,2.53-8.48,7.39-8.48,4.38,0,6.5,2.59,6.72,5.89h-2.69c-.16-2.18-1.66-3.49-4.03-3.49-3.36,0-4.67,2.72-4.67,6.08s1.31,6.08,4.67,6.08c2.43,0,3.87-1.25,4.1-3.42h2.69c-.32,3.46-2.5,5.79-6.75,5.79-4.9,0-7.42-3.3-7.42-8.45Z" style="fill:#0333ff;"/><path d="M88.81,624.95c0-2.75,1.95-5.12,6.75-5.12h4.03v-1.06c0-1.82-1.12-3.39-3.78-3.39-2.4,0-3.58,1.34-3.62,2.91h-2.59c0-3.14,2.62-5.22,6.21-5.22,4.19,0,6.4,2.53,6.4,5.63v11.01h-2.27l-.19-2.3h-.13c-.99,1.66-2.82,2.59-5.12,2.59-3.55,0-5.7-2.21-5.7-5.06Zm10.78-1.57v-1.41h-4.03c-2.66,0-4.03,1.02-4.03,2.94,0,1.63,1.09,2.85,3.46,2.85,2.78,0,4.61-2.02,4.61-4.38Z" style="fill:#0333ff;"/><path d="M107.58,621.53c.03-4.83,2.34-8.45,6.94-8.45,2.43,0,4.06,1.12,4.93,2.56h.13v-9.6h2.69v23.68h-2.34l-.35-2.27h-.13c-.86,1.44-2.5,2.56-4.93,2.56-4.29,0-6.98-3.2-6.94-8.48Zm12.06,0c0-3.23-1.41-6.05-4.67-6.05s-4.67,2.78-4.67,6.05,1.28,6.08,4.67,6.08,4.67-2.82,4.67-6.08Z" style="fill:#0333ff;"/><path d="M127.48,621.56c0-4.74,2.34-8.48,7.39-8.48,4.61,0,7.07,3.42,7.07,7.97v1.31h-11.65c0,3.1,1.57,5.25,4.61,5.25,2.14,0,3.68-.9,4.13-2.62h2.69c-.45,3.01-3.33,5.02-6.82,5.02-4.83,0-7.42-3.65-7.42-8.45Zm11.68-1.44c0-2.59-1.38-4.64-4.29-4.64-3.07,0-4.45,2.08-4.54,4.64h8.83Z" style="fill:#0333ff;"/><path d="M162.08,618.17v11.55h-2.5v-11.81c0-1.22-.35-2.43-1.66-2.43s-2.05,1.02-2.05,3.62v10.62h-2.43v-11.55c0-1.63-.58-2.69-1.86-2.69s-2.02,1.28-2.02,3.62v10.62h-2.5v-16.35h2.14l.22,2.4h.13c.38-1.98,1.66-2.69,2.98-2.69,1.98,0,2.82,.96,3.14,2.69h.1c.42-1.98,1.7-2.69,3.04-2.69,2.82,0,3.26,2.18,3.26,5.09Z" style="fill:#0333ff;"/><path d="M166.95,627.48h6.02v-11.87h-5.47v-2.24h8.16v14.11h5.38v2.24h-14.08v-2.24Zm5.86-20.64h3.01v3.14h-3.01v-3.14Z" style="fill:#0333ff;"/><path d="M186.09,624.95c0-2.75,1.95-5.12,6.75-5.12h4.03v-1.06c0-1.82-1.12-3.39-3.78-3.39-2.4,0-3.58,1.34-3.62,2.91h-2.59c0-3.14,2.62-5.22,6.21-5.22,4.19,0,6.4,2.53,6.4,5.63v11.01h-2.27l-.19-2.3h-.13c-.99,1.66-2.82,2.59-5.12,2.59-3.55,0-5.7-2.21-5.7-5.06Zm10.78-1.57v-1.41h-4.03c-2.66,0-4.03,1.02-4.03,2.94,0,1.63,1.09,2.85,3.46,2.85,2.78,0,4.61-2.02,4.61-4.38Z" style="fill:#0333ff;"/></g><polygon points="1136.29 358.12 0 358.12 0 398.12 1136.29 398.12 1153.29 378.12 1136.29 358.12" style="fill:#0333ff;"/><g><g><path d="M40.04,290.38h3.31c2.86,0,4.68,1.96,4.68,4.9,0,2.73-1.68,4.9-4.68,4.9h-3.31v-9.81Zm3.18,8.33c2.09,0,3.12-1.39,3.12-3.43s-1.04-3.42-3.12-3.42h-1.6v6.85h1.6Z" style="fill:#1d1d1b;"/><path d="M49.23,296.57c0-2.07,1.11-3.74,3.39-3.74,2.12,0,3.26,1.53,3.26,3.52v.67h-5c0,1.15,.59,1.95,1.76,1.95,.88,0,1.42-.39,1.58-.98h1.55c-.2,1.32-1.42,2.33-3.14,2.33-2.2,0-3.42-1.64-3.42-3.74Zm5.01-.69c-.01-.95-.53-1.69-1.62-1.69-1.16,0-1.68,.76-1.72,1.69h3.35Z" style="fill:#1d1d1b;"/><path d="M56.92,297.77h1.6c0,.71,.56,1.16,1.47,1.16s1.39-.31,1.39-.81c0-.41-.29-.69-.95-.83l-1.27-.24c-1.18-.24-2-.9-2-2.13s1.04-2.1,2.79-2.1,2.89,.97,2.89,2.37h-1.57c-.03-.66-.52-1.08-1.34-1.08-.71,0-1.2,.29-1.2,.83,0,.43,.35,.69,.95,.78l1.23,.24c1.26,.27,2.1,.78,2.1,2.16s-1.32,2.19-3,2.19c-1.95,0-3.03-1.01-3.07-2.54Z" style="fill:#1d1d1b;"/><path d="M64.4,290.01h1.74v1.72h-1.74v-1.72Zm.07,2.94h1.6v7.23h-1.6v-7.23Z" style="fill:#1d1d1b;"/><path d="M67.68,300.97h1.55c.06,.6,.59,1.18,1.62,1.18,1.19,0,1.75-.7,1.75-1.6v-1.23h-.06c-.36,.55-1.02,.99-2.07,.99-1.95,0-3-1.58-3.01-3.74,.01-2.26,1.15-3.74,3.01-3.74,1.05,0,1.71,.45,2.07,.99h.06l.18-.87h1.41v7.62c0,1.72-1.3,2.94-3.35,2.94-1.89,0-3.14-1.05-3.18-2.55Zm4.99-4.4c0-1.25-.52-2.33-1.79-2.33s-1.78,1.06-1.78,2.33,.46,2.33,1.78,2.33,1.79-1.08,1.79-2.33Z" style="fill:#1d1d1b;"/><path d="M76.03,292.96h1.42l.13,.94h.06c.39-.62,1.08-1.06,2.11-1.06,1.61,0,2.61,1.01,2.61,2.63v4.72h-1.6v-4.33c0-1.01-.46-1.58-1.47-1.58s-1.65,.71-1.65,1.92v3.99h-1.6v-7.23Z" style="fill:#1d1d1b;"/><path d="M90.62,291.86h-2.96v-1.48h7.56v1.48h-2.96v8.32h-1.65v-8.32Z" style="fill:#1d1d1b;"/><path d="M95.43,292.96h1.34l.14,1.15h.06c.29-.74,.97-1.25,1.88-1.25h.59v1.48h-.62c-1.22,0-1.85,.84-1.85,2.31v3.53h-1.54v-7.23Z" style="fill:#1d1d1b;"/><path d="M100.25,298.05c0-1.26,.88-2.24,2.96-2.24h1.68v-.43c0-.67-.42-1.23-1.43-1.23-.88,0-1.34,.49-1.36,1.08h-1.51c0-1.37,1.08-2.4,2.9-2.4s2.98,1.11,2.98,2.54v4.82h-1.4l-.11-.85h-.06c-.42,.62-1.16,.98-2.13,.98-1.6,0-2.52-.98-2.52-2.25Zm4.64-.6v-.49h-1.61c-.95,0-1.43,.39-1.43,1.04,0,.59,.42,1.04,1.29,1.04,1.06,0,1.75-.73,1.75-1.58Z" style="fill:#1d1d1b;"/><path d="M108.19,290.01h1.74v1.72h-1.74v-1.72Zm.07,2.94h1.6v7.23h-1.6v-7.23Z" style="fill:#1d1d1b;"/><path d="M111.66,292.96h1.42l.13,.94h.06c.39-.62,1.08-1.06,2.11-1.06,1.61,0,2.61,1.01,2.61,2.63v4.72h-1.6v-4.33c0-1.01-.46-1.58-1.47-1.58s-1.65,.71-1.65,1.92v3.99h-1.6v-7.23Z" style="fill:#1d1d1b;"/><path d="M119.36,296.57c0-2.07,1.11-3.74,3.39-3.74,2.12,0,3.26,1.53,3.26,3.52v.67h-5c0,1.15,.59,1.95,1.77,1.95,.88,0,1.41-.39,1.58-.98h1.56c-.2,1.32-1.42,2.33-3.14,2.33-2.2,0-3.42-1.64-3.42-3.74Zm5.01-.69c-.01-.95-.53-1.69-1.62-1.69-1.16,0-1.68,.76-1.72,1.69h3.35Z" style="fill:#1d1d1b;"/><path d="M127.1,296.57c0-2.07,1.11-3.74,3.39-3.74,2.12,0,3.26,1.53,3.26,3.52v.67h-5c0,1.15,.59,1.95,1.76,1.95,.88,0,1.42-.39,1.58-.98h1.55c-.2,1.32-1.42,2.33-3.14,2.33-2.2,0-3.42-1.64-3.42-3.74Zm5.01-.69c-.01-.95-.53-1.69-1.62-1.69-1.16,0-1.68,.76-1.72,1.69h3.35Z" style="fill:#1d1d1b;"/></g><polygon points="135.57 313.12 27.32 313.12 37.32 323.12 27.32 333.12 135.57 333.12 145.57 323.12 135.57 313.12"/></g></svg>