<?xml version="1.0" encoding="UTF-8"?><svg id="a" xmlns="http://www.w3.org/2000/svg" viewBox="0 0 1180 800"><defs><style>.b{letter-spacing:-.04em;}.c{letter-spacing:-.01em;}.d{letter-spacing:-.02em;}.e{letter-spacing:0em;}.f,.g{fill:#0333ff;}.h{letter-spacing:0em;}.g{font-family:BasierSquareMono-Regular, Basier Square Mono;font-size:32px;}.i{letter-spacing:-.02em;}.j{letter-spacing:0em;}.k{letter-spacing:-.02em;}.l{letter-spacing:0em;}.m{letter-spacing:0em;}.n{letter-spacing:-.01em;}.o{letter-spacing:-.03em;}.p{letter-spacing:-.03em;}.q{letter-spacing:-.03em;}</style></defs><text class="g" transform="translate(47.32 159.64)"><tspan class="b" x="0" y="0">I</tspan><tspan class="h" x="18.52" y="0">n</tspan><tspan class="e" x="38.05" y="0">d</tspan><tspan class="k" x="57.88" y="0">u</tspan><tspan class="p" x="76.91" y="0">s</tspan><tspan class="d" x="95.64" y="0">t</tspan><tspan class="m" x="114.81" y="0">r</tspan><tspan x="134.55" y="0">y</tspan></text><text class="g" transform="translate(47.82 579.72)"><tspan class="q" x="0" y="0">A</tspan><tspan class="i" x="18.77" y="0">c</tspan><tspan class="c" x="37.79" y="0">a</tspan><tspan class="l" x="57.23" y="0">d</tspan><tspan class="j" x="77" y="0">e</tspan><tspan class="n" x="96.86" y="0">m</tspan><tspan class="o" x="116.25" y="0">i</tspan><tspan x="135.07" y="0">a</tspan></text><path class="f" d="M431.85,193.02c3.22,0,3.22-5,0-5s-3.22,5,0,5h0Z"/><polygon class="f" points="1136.29 358.12 0 358.12 0 398.12 1136.29 398.12 1153.29 378.12 1136.29 358.12"/></svg>