<?xml version="1.0" encoding="UTF-8"?><svg id="a" xmlns="http://www.w3.org/2000/svg" viewBox="0 0 988 350"><g><path d="M388.71,58.11v2.54h4.41v-.94c0-.42,.08-.71,.24-.89,.16-.18,.37-.27,.63-.27s.46,.09,.62,.27c.16,.18,.24,.47,.24,.89v2.67h-8.14c-.42,0-.71-.08-.89-.24-.18-.16-.27-.37-.27-.63s.09-.46,.27-.62c.18-.16,.47-.24,.89-.24h.27v-6.77h-.27c-.42,0-.71-.08-.89-.24-.18-.16-.27-.37-.27-.63s.09-.47,.27-.63c.18-.16,.47-.24,.89-.24h7.76v2.64c0,.41-.08,.7-.24,.88-.16,.18-.37,.27-.62,.27s-.47-.09-.63-.26c-.16-.17-.24-.47-.24-.89v-.9h-4.03v2.5h1.52c0-.45,.04-.74,.13-.87,.17-.28,.42-.41,.74-.41,.25,0,.46,.09,.62,.27s.24,.47,.24,.89v1.99c0,.38-.04,.63-.13,.76-.18,.26-.42,.4-.73,.4-.32,0-.57-.14-.74-.41-.08-.13-.13-.42-.13-.88h-1.52Z"/><path d="M400.48,54.72v1.08c.73-.52,1.3-.87,1.72-1.05s.81-.26,1.18-.26c.56,0,1.11,.21,1.64,.62,.36,.28,.54,.57,.54,.86,0,.25-.09,.46-.26,.63s-.38,.26-.62,.26c-.21,0-.44-.11-.67-.32-.24-.21-.45-.32-.63-.32-.24,0-.6,.15-1.08,.46-.48,.3-1.08,.76-1.8,1.37v2.61h2.46c.42,0,.71,.08,.89,.24,.18,.16,.27,.37,.27,.63s-.09,.46-.27,.62c-.18,.16-.47,.24-.89,.24h-5.22c-.42,0-.71-.08-.89-.24-.18-.16-.27-.37-.27-.63s.09-.46,.27-.62c.18-.16,.47-.24,.89-.24h1.03v-4.2h-.62c-.42,0-.71-.08-.89-.24-.18-.16-.27-.37-.27-.63s.09-.46,.27-.62c.18-.16,.47-.24,.89-.24h2.35Z"/><path d="M411.2,59.19l-1.2,3.19h-1.63l-1.45-5.93c-.32-.02-.55-.11-.71-.27s-.24-.36-.24-.6,.09-.46,.27-.62c.18-.16,.47-.24,.89-.24h1.61c.42,0,.71,.08,.89,.24,.18,.16,.27,.37,.27,.63s-.1,.48-.3,.66c-.15,.14-.45,.2-.89,.2l.66,2.74,1.07-2.81h1.54l1.08,2.81,.67-2.74c-.43,0-.71-.04-.84-.13-.27-.17-.41-.42-.41-.74,0-.25,.09-.46,.27-.62,.18-.16,.47-.24,.89-.24h1.63c.42,0,.71,.08,.89,.24,.18,.16,.27,.37,.27,.63,0,.23-.08,.43-.23,.59-.16,.16-.38,.25-.69,.27l-1.42,5.93h-1.6l-1.27-3.19Z"/><path d="M425.88,59.42h-7.1c.18,.45,.5,.81,.96,1.09,.46,.28,1.08,.41,1.86,.41,.64,0,1.49-.14,2.56-.41,.44-.11,.74-.17,.91-.17,.23,0,.42,.08,.58,.24s.24,.37,.24,.62c0,.23-.08,.42-.25,.57-.22,.21-.77,.41-1.65,.59-.87,.19-1.71,.28-2.51,.28-1.38,0-2.49-.39-3.32-1.17-.83-.78-1.25-1.74-1.25-2.89,0-1.22,.45-2.2,1.35-2.97,.9-.76,1.93-1.14,3.1-1.14,.7,0,1.35,.12,1.94,.37s1.03,.51,1.31,.8c.41,.42,.74,.93,1,1.54,.18,.43,.27,.92,.27,1.49v.73Zm-1.92-1.73c-.26-.5-.61-.87-1.04-1.11-.43-.24-.94-.37-1.53-.37s-1.09,.12-1.52,.37c-.43,.24-.78,.61-1.05,1.11h5.13Z"/><path d="M432.75,54.72v5.93h2.08c.42,0,.71,.08,.89,.24,.18,.16,.27,.37,.27,.63s-.09,.46-.27,.62c-.18,.16-.47,.24-.89,.24h-5.88c-.42,0-.71-.08-.89-.24-.18-.16-.27-.37-.27-.63s.09-.46,.27-.62c.18-.16,.47-.24,.89-.24h2.08v-4.2h-1.39c-.41,0-.71-.08-.89-.24-.18-.16-.27-.37-.27-.63s.09-.46,.27-.62c.18-.16,.47-.24,.89-.24h3.12Zm-.24-3.28v1.83h-2.06v-1.83h2.06Z"/><path d="M441.82,56.44v3.47c0,.37,.08,.62,.23,.73,.24,.19,.66,.28,1.27,.28,.88,0,1.7-.19,2.45-.57,.29-.15,.51-.22,.67-.22,.22,0,.42,.08,.59,.25,.17,.17,.25,.37,.25,.62,0,.23-.09,.42-.27,.58-.28,.26-.82,.51-1.63,.73s-1.5,.33-2.05,.33c-1.07,0-1.88-.23-2.42-.7-.54-.46-.81-1.03-.81-1.71v-3.81h-.62c-.42,0-.71-.08-.89-.24-.18-.16-.27-.37-.27-.63s.09-.46,.27-.62c.18-.16,.47-.24,.89-.24h.62v-1.56c0-.42,.08-.71,.24-.89s.37-.27,.63-.27,.46,.09,.62,.27,.24,.47,.24,.89v1.56h3.2c.42,0,.71,.08,.89,.24,.18,.16,.27,.37,.27,.63s-.09,.46-.27,.62c-.18,.16-.47,.24-.89,.24h-3.2Z"/><path d="M456.94,59.42h-7.1c.18,.45,.5,.81,.96,1.09,.46,.28,1.08,.41,1.86,.41,.64,0,1.49-.14,2.56-.41,.44-.11,.74-.17,.91-.17,.23,0,.42,.08,.58,.24s.24,.37,.24,.62c0,.23-.08,.42-.25,.57-.22,.21-.77,.41-1.65,.59-.87,.19-1.71,.28-2.51,.28-1.38,0-2.49-.39-3.32-1.17-.83-.78-1.25-1.74-1.25-2.89,0-1.22,.45-2.2,1.35-2.97,.9-.76,1.93-1.14,3.1-1.14,.7,0,1.35,.12,1.94,.37s1.03,.51,1.31,.8c.41,.42,.74,.93,1,1.54,.18,.43,.27,.92,.27,1.49v.73Zm-1.92-1.73c-.26-.5-.61-.87-1.04-1.11-.43-.24-.94-.37-1.53-.37s-1.09,.12-1.52,.37c-.43,.24-.78,.61-1.05,1.11h5.13Z"/><path d="M462.59,54.72v1.08c.73-.52,1.3-.87,1.72-1.05s.81-.26,1.18-.26c.56,0,1.11,.21,1.64,.62,.36,.28,.54,.57,.54,.86,0,.25-.09,.46-.26,.63s-.38,.26-.62,.26c-.21,0-.44-.11-.67-.32-.24-.21-.45-.32-.63-.32-.24,0-.6,.15-1.08,.46-.48,.3-1.08,.76-1.8,1.37v2.61h2.46c.42,0,.71,.08,.89,.24,.18,.16,.27,.37,.27,.63s-.09,.46-.27,.62c-.18,.16-.47,.24-.89,.24h-5.22c-.42,0-.71-.08-.89-.24-.18-.16-.27-.37-.27-.63s.09-.46,.27-.62c.18-.16,.47-.24,.89-.24h1.03v-4.2h-.62c-.42,0-.71-.08-.89-.24-.18-.16-.27-.37-.27-.63s.09-.46,.27-.62c.18-.16,.47-.24,.89-.24h2.35Z"/><path d="M472.88,56.44v3.47c0,.37,.08,.62,.23,.73,.24,.19,.66,.28,1.27,.28,.88,0,1.7-.19,2.45-.57,.29-.15,.51-.22,.67-.22,.22,0,.42,.08,.59,.25,.17,.17,.25,.37,.25,.62,0,.23-.09,.42-.27,.58-.28,.26-.82,.51-1.63,.73s-1.5,.33-2.05,.33c-1.07,0-1.88-.23-2.42-.7-.54-.46-.81-1.03-.81-1.71v-3.81h-.62c-.42,0-.71-.08-.89-.24-.18-.16-.27-.37-.27-.63s.09-.46,.27-.62c.18-.16,.47-.24,.89-.24h.62v-1.56c0-.42,.08-.71,.24-.89s.37-.27,.63-.27,.46,.09,.62,.27,.24,.47,.24,.89v1.56h3.2c.42,0,.71,.08,.89,.24,.18,.16,.27,.37,.27,.63s-.09,.46-.27,.62c-.18,.16-.47,.24-.89,.24h-3.2Z"/><path d="M488,59.42h-7.1c.18,.45,.5,.81,.96,1.09,.46,.28,1.08,.41,1.86,.41,.64,0,1.49-.14,2.56-.41,.44-.11,.74-.17,.91-.17,.23,0,.42,.08,.58,.24s.24,.37,.24,.62c0,.23-.08,.42-.25,.57-.22,.21-.77,.41-1.65,.59-.87,.19-1.71,.28-2.51,.28-1.38,0-2.49-.39-3.32-1.17-.83-.78-1.25-1.74-1.25-2.89,0-1.22,.45-2.2,1.35-2.97,.9-.76,1.93-1.14,3.1-1.14,.7,0,1.35,.12,1.94,.37s1.03,.51,1.31,.8c.41,.42,.74,.93,1,1.54,.18,.43,.27,.92,.27,1.49v.73Zm-1.92-1.73c-.26-.5-.61-.87-1.04-1.11-.43-.24-.94-.37-1.53-.37s-1.09,.12-1.52,.37c-.43,.24-.78,.61-1.05,1.11h5.13Z"/><path d="M502.58,58.11v2.54h4.41v-.94c0-.42,.08-.71,.24-.89,.16-.18,.37-.27,.63-.27s.46,.09,.62,.27c.16,.18,.24,.47,.24,.89v2.67h-8.14c-.42,0-.71-.08-.89-.24-.18-.16-.27-.37-.27-.63s.09-.46,.27-.62c.18-.16,.47-.24,.89-.24h.27v-6.77h-.27c-.42,0-.71-.08-.89-.24-.18-.16-.27-.37-.27-.63s.09-.47,.27-.63c.18-.16,.47-.24,.89-.24h7.76v2.64c0,.41-.08,.7-.24,.88-.16,.18-.37,.27-.62,.27s-.47-.09-.63-.26c-.16-.17-.24-.47-.24-.89v-.9h-4.03v2.5h1.52c0-.45,.04-.74,.13-.87,.17-.28,.42-.41,.74-.41,.25,0,.46,.09,.62,.27s.24,.47,.24,.89v1.99c0,.38-.04,.63-.13,.76-.18,.26-.42,.4-.73,.4-.32,0-.57-.14-.74-.41-.08-.13-.13-.42-.13-.88h-1.52Z"/><path d="M513.71,58.87v1.78h1.75c.42,0,.71,.08,.89,.24,.18,.16,.27,.37,.27,.63s-.09,.46-.27,.62c-.18,.16-.47,.24-.89,.24h-3.75c-.42,0-.71-.08-.89-.24-.18-.16-.27-.37-.27-.63s.09-.46,.27-.62c.18-.16,.47-.24,.89-.24h.27v-6.77h-.27c-.42,0-.71-.08-.89-.24-.18-.16-.27-.37-.27-.63s.09-.47,.27-.63c.18-.16,.47-.24,.89-.24h3.98c1.17,0,2.1,.33,2.78,.97,.68,.64,1.02,1.42,1.02,2.33,0,.51-.12,.98-.35,1.43-.17,.34-.46,.67-.87,1s-.82,.58-1.25,.74-.99,.25-1.68,.25h-1.64Zm0-1.73h1.6c.75,0,1.35-.17,1.79-.51s.66-.75,.66-1.23c0-.4-.18-.76-.54-1.06-.36-.3-.87-.46-1.53-.46h-1.99v3.26Z"/><path d="M523.26,58.73v1.92h.62c.42,0,.71,.08,.89,.24,.18,.16,.27,.37,.27,.63s-.09,.46-.27,.62c-.18,.16-.47,.24-.89,.24h-2.62c-.42,0-.71-.08-.89-.24-.18-.16-.27-.37-.27-.63s.09-.46,.27-.62c.18-.16,.47-.24,.89-.24h.27v-6.77h-.27c-.42,0-.71-.08-.89-.24-.18-.16-.27-.37-.27-.63s.09-.47,.27-.63c.18-.16,.47-.24,.89-.24h2.62c.42,0,.71,.09,.89,.24,.18,.16,.27,.37,.27,.62s-.09,.47-.27,.63c-.18,.16-.47,.24-.89,.24h-.62v2.56l3.07-2.64c-.18-.13-.3-.25-.37-.36-.07-.11-.1-.25-.1-.41,0-.26,.09-.48,.27-.64,.18-.16,.47-.24,.89-.24h1.76c.42,0,.71,.09,.89,.24,.18,.16,.27,.37,.27,.62s-.09,.46-.27,.62c-.18,.16-.45,.24-.83,.24l-3.11,2.72c.58,.33,1.12,.84,1.63,1.52s.96,1.52,1.35,2.53h.46c.41,0,.7,.08,.88,.24,.18,.16,.27,.37,.27,.63s-.09,.46-.26,.62c-.17,.16-.47,.24-.89,.24h-1.57c-.36-.86-.75-1.68-1.18-2.46-.35-.64-.68-1.1-.99-1.39-.31-.29-.68-.52-1.12-.7l-1.06,.9Z"/><path d="M545.15,58.17c0-.98,.16-1.98,.49-2.99,.24-.74,.62-1.57,1.12-2.48,.37-.65,.64-1.05,.81-1.2,.17-.15,.37-.22,.58-.22,.25,0,.46,.08,.62,.25,.17,.17,.25,.37,.25,.61,0,.16-.07,.36-.2,.58-.61,1-1.05,1.93-1.33,2.8-.28,.87-.42,1.75-.42,2.65s.14,1.79,.42,2.66c.28,.87,.72,1.81,1.33,2.8,.14,.22,.2,.41,.2,.58,0,.24-.08,.44-.25,.61-.17,.17-.38,.25-.62,.25-.21,0-.39-.07-.55-.2-.22-.2-.52-.64-.89-1.32-.54-1-.9-1.82-1.1-2.46-.31-.99-.46-1.96-.46-2.91Z"/><path d="M560.46,59.42h-7.1c.18,.45,.5,.81,.96,1.09,.46,.28,1.08,.41,1.86,.41,.64,0,1.49-.14,2.56-.41,.44-.11,.74-.17,.91-.17,.23,0,.42,.08,.58,.24s.24,.37,.24,.62c0,.23-.08,.42-.25,.57-.22,.21-.77,.41-1.65,.59-.87,.19-1.71,.28-2.51,.28-1.38,0-2.49-.39-3.32-1.17-.83-.78-1.25-1.74-1.25-2.89,0-1.22,.45-2.2,1.35-2.97,.9-.76,1.93-1.14,3.1-1.14,.7,0,1.35,.12,1.94,.37s1.03,.51,1.31,.8c.41,.42,.74,.93,1,1.54,.18,.43,.27,.92,.27,1.49v.73Zm-1.92-1.73c-.26-.5-.61-.87-1.04-1.11-.43-.24-.94-.37-1.53-.37s-1.09,.12-1.52,.37c-.43,.24-.78,.61-1.05,1.11h5.13Z"/><path d="M564.7,58.11v2.54h4.41v-.94c0-.42,.08-.71,.24-.89,.16-.18,.37-.27,.63-.27s.46,.09,.62,.27c.16,.18,.24,.47,.24,.89v2.67h-8.14c-.42,0-.71-.08-.89-.24-.18-.16-.27-.37-.27-.63s.09-.46,.27-.62c.18-.16,.47-.24,.89-.24h.27v-6.77h-.27c-.42,0-.71-.08-.89-.24-.18-.16-.27-.37-.27-.63s.09-.47,.27-.63c.18-.16,.47-.24,.89-.24h7.76v2.64c0,.41-.08,.7-.24,.88-.16,.18-.37,.27-.62,.27s-.47-.09-.63-.26c-.16-.17-.24-.47-.24-.89v-.9h-4.03v2.5h1.52c0-.45,.04-.74,.13-.87,.17-.28,.42-.41,.74-.41,.25,0,.46,.09,.62,.27s.24,.47,.24,.89v1.99c0,.38-.04,.63-.13,.76-.18,.26-.42,.4-.73,.4-.32,0-.57-.14-.74-.41-.08-.13-.13-.42-.13-.88h-1.52Z"/><path d="M575.83,58.87v1.78h1.75c.42,0,.71,.08,.89,.24,.18,.16,.27,.37,.27,.63s-.09,.46-.27,.62c-.18,.16-.47,.24-.89,.24h-3.75c-.42,0-.71-.08-.89-.24-.18-.16-.27-.37-.27-.63s.09-.46,.27-.62c.18-.16,.47-.24,.89-.24h.27v-6.77h-.27c-.42,0-.71-.08-.89-.24-.18-.16-.27-.37-.27-.63s.09-.47,.27-.63c.18-.16,.47-.24,.89-.24h3.98c1.17,0,2.1,.33,2.78,.97,.68,.64,1.02,1.42,1.02,2.33,0,.51-.12,.98-.35,1.43-.17,.34-.46,.67-.87,1s-.82,.58-1.25,.74-.99,.25-1.68,.25h-1.64Zm0-1.73h1.6c.75,0,1.35-.17,1.79-.51s.66-.75,.66-1.23c0-.4-.18-.76-.54-1.06-.36-.3-.87-.46-1.53-.46h-1.99v3.26Z"/><path d="M585.38,58.73v1.92h.62c.42,0,.71,.08,.89,.24,.18,.16,.27,.37,.27,.63s-.09,.46-.27,.62c-.18,.16-.47,.24-.89,.24h-2.62c-.42,0-.71-.08-.89-.24-.18-.16-.27-.37-.27-.63s.09-.46,.27-.62c.18-.16,.47-.24,.89-.24h.27v-6.77h-.27c-.42,0-.71-.08-.89-.24-.18-.16-.27-.37-.27-.63s.09-.47,.27-.63c.18-.16,.47-.24,.89-.24h2.62c.42,0,.71,.09,.89,.24,.18,.16,.27,.37,.27,.62s-.09,.47-.27,.63c-.18,.16-.47,.24-.89,.24h-.62v2.56l3.07-2.64c-.18-.13-.3-.25-.37-.36-.07-.11-.1-.25-.1-.41,0-.26,.09-.48,.27-.64,.18-.16,.47-.24,.89-.24h1.76c.42,0,.71,.09,.89,.24,.18,.16,.27,.37,.27,.62s-.09,.46-.27,.62c-.18,.16-.45,.24-.83,.24l-3.11,2.72c.58,.33,1.12,.84,1.63,1.52s.96,1.52,1.35,2.53h.46c.41,0,.7,.08,.88,.24,.18,.16,.27,.37,.27,.63s-.09,.46-.26,.62c-.17,.16-.47,.24-.89,.24h-1.57c-.36-.86-.75-1.68-1.18-2.46-.35-.64-.68-1.1-.99-1.39-.31-.29-.68-.52-1.12-.7l-1.06,.9Z"/><path d="M598.27,58.17c0,.98-.16,1.98-.49,3-.24,.74-.62,1.57-1.12,2.47-.37,.65-.64,1.05-.81,1.21-.17,.15-.37,.23-.58,.23-.25,0-.46-.08-.62-.25-.17-.17-.25-.37-.25-.61,0-.17,.07-.36,.2-.58,.61-1,1.05-1.93,1.33-2.8s.42-1.76,.42-2.66-.14-1.78-.42-2.65c-.28-.87-.72-1.81-1.33-2.8-.13-.23-.2-.42-.2-.58,0-.24,.08-.44,.25-.61,.17-.17,.38-.25,.62-.25,.21,0,.39,.07,.55,.2,.22,.19,.52,.63,.89,1.32,.53,1,.9,1.81,1.1,2.46,.31,1,.46,1.97,.46,2.91Z"/></g><g><path d="M425.8,182.72l4.4-11.45h1.63l4.69,11.45h-1.73l-1.34-3.47h-4.79l-1.26,3.47h-1.61Zm3.3-4.7h3.88l-1.2-3.17c-.36-.96-.64-1.75-.81-2.38-.15,.73-.35,1.46-.62,2.19l-1.26,3.36Z"/><path d="M442.94,182.72v-1.22c-.65,.94-1.52,1.41-2.63,1.41-.49,0-.95-.09-1.37-.28-.42-.19-.74-.42-.95-.71-.21-.28-.35-.63-.43-1.04-.06-.28-.09-.71-.09-1.31v-5.14h1.41v4.6c0,.73,.03,1.23,.09,1.48,.09,.37,.28,.66,.56,.87,.29,.21,.64,.32,1.06,.32s.82-.11,1.19-.32c.37-.22,.63-.51,.79-.88,.15-.37,.23-.91,.23-1.62v-4.45h1.41v8.3h-1.26Z"/><path d="M446.74,182.72v-7.2h-1.24v-1.09h1.24v-.88c0-.56,.05-.97,.15-1.24,.13-.36,.37-.66,.71-.89,.34-.23,.82-.34,1.43-.34,.4,0,.83,.05,1.31,.14l-.21,1.23c-.29-.05-.57-.08-.83-.08-.43,0-.73,.09-.91,.27-.18,.18-.27,.52-.27,1.02v.77h1.62v1.09h-1.62v7.2h-1.4Z"/><path d="M453.92,181.46l.2,1.24c-.4,.08-.75,.12-1.06,.12-.51,0-.91-.08-1.19-.24s-.48-.37-.59-.64c-.12-.26-.17-.82-.17-1.66v-4.77h-1.03v-1.09h1.03v-2.05l1.4-.84v2.9h1.41v1.09h-1.41v4.85c0,.4,.02,.66,.07,.77,.05,.11,.13,.21,.24,.27,.11,.07,.27,.1,.48,.1,.16,0,.36-.02,.62-.05Z"/><path d="M455.26,182.72v-8.3h1.27v1.26c.32-.59,.62-.98,.89-1.16s.57-.28,.9-.28c.47,0,.96,.15,1.45,.45l-.48,1.3c-.34-.2-.69-.3-1.03-.3-.31,0-.58,.09-.83,.28-.25,.18-.42,.44-.52,.77-.16,.5-.23,1.05-.23,1.64v4.34h-1.41Z"/><path d="M466.02,181.69c-.52,.44-1.02,.75-1.5,.94-.48,.18-1,.27-1.55,.27-.91,0-1.61-.22-2.1-.67-.49-.45-.73-1.01-.73-1.71,0-.41,.09-.78,.28-1.11,.18-.34,.43-.61,.73-.81,.3-.2,.64-.36,1.01-.46,.28-.07,.69-.14,1.25-.21,1.13-.14,1.97-.3,2.51-.48,0-.19,0-.32,0-.37,0-.57-.13-.98-.4-1.21-.36-.32-.89-.48-1.6-.48-.66,0-1.15,.12-1.46,.35-.32,.23-.55,.64-.7,1.23l-1.38-.19c.12-.59,.33-1.06,.62-1.43,.29-.36,.7-.64,1.24-.84,.54-.2,1.17-.29,1.88-.29s1.28,.08,1.73,.25c.44,.17,.77,.38,.98,.63,.21,.25,.35,.57,.44,.96,.05,.24,.07,.67,.07,1.3v1.88c0,1.31,.03,2.13,.09,2.48,.06,.35,.18,.68,.36,1h-1.47c-.15-.29-.24-.63-.28-1.02Zm-.12-3.14c-.51,.21-1.28,.39-2.3,.53-.58,.08-.99,.18-1.23,.28-.24,.1-.43,.26-.55,.46-.13,.2-.2,.42-.2,.67,0,.38,.14,.69,.43,.94,.28,.25,.7,.38,1.25,.38s1.02-.12,1.45-.36,.73-.56,.93-.97c.15-.32,.23-.79,.23-1.41v-.52Z"/><path d="M469.29,183.4l1.37,.2c.06,.42,.22,.73,.48,.92,.35,.26,.83,.39,1.43,.39,.65,0,1.15-.13,1.51-.39,.35-.26,.59-.62,.72-1.09,.07-.29,.11-.89,.1-1.8-.61,.72-1.38,1.09-2.3,1.09-1.14,0-2.02-.41-2.65-1.23s-.94-1.81-.94-2.96c0-.79,.14-1.52,.43-2.19,.29-.67,.7-1.19,1.25-1.55,.54-.36,1.18-.55,1.92-.55,.98,0,1.79,.4,2.42,1.19v-1h1.3v7.17c0,1.29-.13,2.21-.39,2.75-.26,.54-.68,.96-1.25,1.28s-1.27,.47-2.11,.47c-.99,0-1.79-.22-2.4-.67s-.9-1.12-.88-2.01Zm1.16-4.98c0,1.09,.22,1.88,.65,2.38,.43,.5,.97,.75,1.62,.75s1.19-.25,1.62-.75,.66-1.28,.66-2.34-.22-1.78-.68-2.3c-.45-.52-.99-.77-1.63-.77s-1.16,.25-1.59,.76-.66,1.26-.66,2.26Z"/><path d="M488.2,181.69c-.52,.44-1.02,.75-1.5,.94-.48,.18-1,.27-1.55,.27-.91,0-1.61-.22-2.1-.67-.49-.45-.73-1.01-.73-1.71,0-.41,.09-.78,.28-1.11,.18-.34,.43-.61,.73-.81,.3-.2,.64-.36,1.01-.46,.28-.07,.69-.14,1.25-.21,1.13-.14,1.97-.3,2.51-.48,0-.19,0-.32,0-.37,0-.57-.13-.98-.4-1.21-.36-.32-.89-.48-1.6-.48-.66,0-1.15,.12-1.46,.35-.32,.23-.55,.64-.7,1.23l-1.38-.19c.12-.59,.33-1.06,.62-1.43,.29-.36,.7-.64,1.24-.84,.54-.2,1.17-.29,1.88-.29s1.28,.08,1.73,.25c.44,.17,.77,.38,.98,.63,.21,.25,.35,.57,.44,.96,.05,.24,.07,.67,.07,1.3v1.88c0,1.31,.03,2.13,.09,2.48,.06,.35,.18,.68,.36,1h-1.47c-.15-.29-.24-.63-.28-1.02Zm-.12-3.14c-.51,.21-1.28,.39-2.3,.53-.58,.08-.99,.18-1.23,.28-.24,.1-.42,.26-.55,.46-.13,.2-.2,.42-.2,.67,0,.38,.14,.69,.43,.94,.28,.25,.7,.38,1.25,.38s1.02-.12,1.45-.36,.73-.56,.93-.97c.15-.32,.23-.79,.23-1.41v-.52Z"/><path d="M491.73,182.72v-8.3h1.27v1.18c.61-.91,1.49-1.37,2.64-1.37,.5,0,.96,.09,1.38,.27s.73,.42,.94,.71,.35,.64,.44,1.04c.05,.26,.08,.72,.08,1.37v5.1h-1.41v-5.05c0-.57-.05-1-.16-1.29s-.3-.51-.58-.68-.61-.25-.98-.25c-.6,0-1.12,.19-1.55,.57s-.65,1.1-.65,2.16v4.53h-1.41Z"/><path d="M500.58,182.72v-11.45h1.41v11.45h-1.41Z"/><path d="M509.83,180.04l1.45,.18c-.23,.85-.65,1.51-1.27,1.98-.62,.47-1.41,.7-2.38,.7-1.21,0-2.18-.37-2.89-1.12s-1.07-1.8-1.07-3.14,.36-2.48,1.08-3.25,1.65-1.16,2.8-1.16,2.02,.38,2.72,1.13,1.05,1.82,1.05,3.19c0,.08,0,.21,0,.38h-6.19c.05,.91,.31,1.61,.77,2.09,.46,.48,1.04,.73,1.73,.73,.52,0,.96-.14,1.32-.41,.37-.27,.65-.7,.87-1.3Zm-4.62-2.27h4.63c-.06-.7-.24-1.22-.53-1.57-.45-.54-1.03-.81-1.74-.81-.65,0-1.19,.22-1.63,.65-.44,.43-.68,1.01-.73,1.73Z"/><path d="M512.84,183.4l1.37,.2c.06,.42,.21,.73,.48,.92,.35,.26,.82,.39,1.43,.39,.65,0,1.15-.13,1.51-.39,.35-.26,.59-.62,.72-1.09,.07-.29,.11-.89,.1-1.8-.62,.72-1.38,1.09-2.3,1.09-1.14,0-2.02-.41-2.65-1.23s-.94-1.81-.94-2.96c0-.79,.14-1.52,.43-2.19,.29-.67,.7-1.19,1.25-1.55,.54-.36,1.18-.55,1.92-.55,.98,0,1.79,.4,2.42,1.19v-1h1.3v7.17c0,1.29-.13,2.21-.39,2.75-.26,.54-.68,.96-1.25,1.28s-1.27,.47-2.11,.47c-.99,0-1.79-.22-2.4-.67s-.9-1.12-.88-2.01Zm1.16-4.98c0,1.09,.21,1.88,.65,2.38,.43,.5,.97,.75,1.62,.75s1.19-.25,1.62-.75,.66-1.28,.66-2.34-.23-1.78-.68-2.3c-.45-.52-.99-.77-1.63-.77s-1.16,.25-1.59,.76-.66,1.26-.66,2.26Z"/><path d="M527.63,180.04l1.45,.18c-.23,.85-.65,1.51-1.27,1.98-.62,.47-1.41,.7-2.38,.7-1.21,0-2.18-.37-2.89-1.12s-1.07-1.8-1.07-3.14,.36-2.48,1.08-3.25,1.65-1.16,2.8-1.16,2.02,.38,2.72,1.13,1.05,1.82,1.05,3.19c0,.08,0,.21,0,.38h-6.19c.05,.91,.31,1.61,.77,2.09,.46,.48,1.04,.73,1.73,.73,.52,0,.96-.14,1.32-.41,.37-.27,.65-.7,.87-1.3Zm-4.62-2.27h4.63c-.06-.7-.24-1.22-.53-1.57-.45-.54-1.03-.81-1.74-.81-.65,0-1.19,.22-1.63,.65-.44,.43-.68,1.01-.73,1.73Z"/><path d="M530.9,182.72v-8.3h1.27v1.18c.61-.91,1.49-1.37,2.64-1.37,.5,0,.96,.09,1.38,.27,.42,.18,.73,.42,.94,.71,.21,.29,.35,.64,.44,1.04,.05,.26,.08,.72,.08,1.37v5.1h-1.41v-5.05c0-.57-.05-1-.16-1.29s-.3-.51-.58-.68c-.28-.17-.61-.25-.98-.25-.6,0-1.12,.19-1.55,.57-.44,.38-.65,1.1-.65,2.16v4.53h-1.41Z"/></g><g><line x1="794.38" y1="132.87" x2="774.43" y2="132.87" style="fill:none; stroke:#0333ff; stroke-dasharray:0 0 3 3; stroke-miterlimit:8; stroke-width:.5px;"/><polygon points="793.65 130.38 797.96 132.87 793.65 135.36 793.65 130.38" style="fill:#0333ff;"/></g><g><line x1="794.38" y1="225.73" x2="774.43" y2="225.73" style="fill:none; stroke:#0333ff; stroke-dasharray:0 0 3 3; stroke-miterlimit:8; stroke-width:.5px;"/><polygon points="793.65 223.24 797.96 225.73 793.65 228.23 793.65 223.24" style="fill:#0333ff;"/></g><g><line x1="206.58" y1="225.73" x2="226.53" y2="225.73" style="fill:none; stroke:#0333ff; stroke-dasharray:0 0 3 3; stroke-miterlimit:8; stroke-width:.5px;"/><polygon points="207.31 228.23 203 225.73 207.31 223.24 207.31 228.23" style="fill:#0333ff;"/></g><g><rect x="403.25" y="144.13" width="181.5" height="71" rx="11.83" ry="11.83" style="fill:#fff; stroke:#000; stroke-miterlimit:8; stroke-width:2px;"/><g><path d="M444.88,184.38h-2.52l-1-2.6h-4.58l-.95,2.6h-2.45l4.46-11.45h2.45l4.59,11.45Zm-4.26-4.53l-1.58-4.25-1.55,4.25h3.12Z"/><path d="M451.5,184.38v-1.24c-.3,.44-.7,.79-1.19,1.05s-1.01,.38-1.56,.38-1.06-.12-1.5-.37-.76-.59-.96-1.03-.3-1.05-.3-1.84v-5.25h2.2v3.81c0,1.17,.04,1.88,.12,2.14s.23,.47,.44,.62,.48,.23,.81,.23c.38,0,.71-.1,1.01-.31s.5-.46,.61-.77,.16-1.05,.16-2.24v-3.5h2.2v8.3h-2.04Z"/><path d="M454.86,176.08h1.22v-.62c0-.7,.07-1.22,.22-1.56s.42-.62,.82-.84,.9-.32,1.51-.32,1.24,.09,1.84,.28l-.3,1.53c-.35-.08-.68-.12-1.01-.12s-.55,.07-.68,.22-.21,.43-.21,.86v.59h1.64v1.73h-1.64v6.57h-2.2v-6.57h-1.22v-1.73Z"/><path d="M464.95,176.08v1.75h-1.5v3.34c0,.68,.01,1.07,.04,1.18s.09,.2,.2,.28,.23,.11,.37,.11c.2,0,.5-.07,.88-.21l.19,1.7c-.51,.22-1.09,.33-1.73,.33-.4,0-.75-.07-1.07-.2s-.55-.3-.7-.52-.25-.5-.31-.86c-.05-.25-.07-.77-.07-1.55v-3.62h-1.01v-1.75h1.01v-1.65l2.2-1.28v2.93h1.5Z"/><path d="M468.56,184.38h-2.2v-8.3h2.04v1.18c.35-.56,.66-.92,.94-1.1,.28-.18,.6-.27,.95-.27,.5,0,.98,.14,1.45,.41l-.68,1.91c-.37-.24-.71-.36-1.03-.36s-.57,.08-.78,.25c-.21,.17-.38,.48-.5,.92-.12,.44-.18,1.37-.18,2.78v2.56Z"/><path d="M474.32,178.61l-1.99-.36c.22-.8,.61-1.4,1.16-1.78s1.36-.58,2.44-.58c.98,0,1.71,.12,2.19,.35,.48,.23,.82,.53,1.01,.88s.29,1.01,.29,1.96l-.02,2.56c0,.73,.04,1.27,.11,1.61s.2,.72,.39,1.11h-2.17c-.06-.15-.13-.36-.21-.65-.04-.13-.06-.22-.08-.26-.38,.36-.78,.64-1.2,.82-.43,.18-.88,.27-1.37,.27-.85,0-1.53-.23-2.02-.7s-.74-1.05-.74-1.76c0-.47,.11-.89,.34-1.25,.22-.37,.54-.65,.94-.84,.4-.2,.99-.37,1.75-.51,1.03-.19,1.74-.37,2.13-.54v-.22c0-.42-.1-.72-.31-.9-.21-.18-.6-.27-1.18-.27-.39,0-.7,.08-.91,.23s-.4,.42-.53,.81Zm2.94,1.78c-.28,.09-.73,.21-1.34,.34s-1.01,.26-1.2,.38c-.29,.2-.43,.46-.43,.77s.12,.57,.34,.8c.23,.22,.52,.34,.88,.34,.4,0,.77-.13,1.13-.39,.27-.2,.44-.44,.52-.73,.06-.19,.09-.54,.09-1.07v-.44Z"/><path d="M481.43,184.92l2.51,.3c.04,.29,.14,.49,.29,.6,.21,.16,.54,.23,.98,.23,.57,0,1-.09,1.29-.26,.19-.11,.34-.3,.44-.55,.07-.18,.1-.52,.1-1.01v-1.21c-.66,.9-1.48,1.34-2.48,1.34-1.12,0-2-.47-2.65-1.41-.51-.75-.77-1.67-.77-2.78,0-1.39,.33-2.45,1-3.19,.67-.73,1.5-1.1,2.5-1.1s1.87,.45,2.54,1.35v-1.16h2.05v7.45c0,.98-.08,1.71-.24,2.2-.16,.48-.39,.86-.68,1.14-.29,.28-.68,.49-1.17,.65-.49,.16-1.1,.23-1.85,.23-1.41,0-2.4-.24-2.99-.72-.59-.48-.88-1.09-.88-1.83,0-.07,0-.16,0-.27Zm1.96-4.87c0,.88,.17,1.52,.51,1.93,.34,.41,.76,.61,1.26,.61,.54,0,.99-.21,1.36-.63,.37-.42,.55-1.04,.55-1.86s-.18-1.5-.53-1.91c-.36-.42-.8-.62-1.34-.62s-.96,.2-1.3,.61c-.34,.41-.51,1.03-.51,1.87Z"/><path d="M497.38,178.61l-1.99-.36c.22-.8,.61-1.4,1.16-1.78s1.36-.58,2.44-.58c.98,0,1.71,.12,2.19,.35s.82,.53,1.01,.88,.29,1.01,.29,1.96l-.02,2.56c0,.73,.04,1.27,.11,1.61s.2,.72,.39,1.11h-2.17c-.06-.15-.13-.36-.21-.65-.04-.13-.06-.22-.08-.26-.38,.36-.78,.64-1.2,.82s-.88,.27-1.37,.27c-.85,0-1.53-.23-2.02-.7s-.74-1.05-.74-1.76c0-.47,.11-.89,.34-1.25s.54-.65,.94-.84,.99-.37,1.75-.51c1.03-.19,1.74-.37,2.13-.54v-.22c0-.42-.1-.72-.31-.9s-.6-.27-1.18-.27c-.39,0-.7,.08-.91,.23s-.4,.42-.53,.81Zm2.94,1.78c-.28,.09-.73,.21-1.34,.34s-1.01,.26-1.2,.38c-.29,.2-.43,.46-.43,.77s.11,.57,.34,.8,.52,.34,.88,.34c.4,0,.77-.13,1.13-.39,.27-.2,.44-.44,.52-.73,.06-.19,.09-.54,.09-1.07v-.44Z"/><path d="M512.23,184.38h-2.2v-4.23c0-.9-.05-1.48-.14-1.74s-.25-.47-.46-.61-.46-.22-.76-.22c-.38,0-.72,.1-1.02,.31-.3,.21-.51,.48-.62,.83-.11,.34-.17,.98-.17,1.91v3.76h-2.2v-8.3h2.04v1.22c.72-.94,1.63-1.41,2.73-1.41,.48,0,.93,.09,1.33,.26,.4,.17,.7,.4,.91,.67,.21,.27,.35,.58,.43,.92,.08,.34,.12,.84,.12,1.48v5.16Z"/><path d="M514.44,184.38v-11.45h2.2v11.45h-2.2Z"/><path d="M523.67,181.74l2.19,.37c-.28,.8-.73,1.41-1.33,1.83-.61,.42-1.37,.63-2.28,.63-1.44,0-2.51-.47-3.2-1.41-.55-.75-.82-1.71-.82-2.86,0-1.38,.36-2.45,1.08-3.23s1.63-1.17,2.73-1.17c1.23,0,2.21,.41,2.92,1.22,.71,.82,1.05,2.06,1.02,3.75h-5.5c.02,.65,.19,1.16,.53,1.52,.34,.36,.76,.54,1.27,.54,.34,0,.63-.09,.87-.28s.41-.49,.53-.91Zm.12-2.22c-.02-.64-.18-1.12-.49-1.45s-.69-.5-1.14-.5c-.48,0-.88,.17-1.19,.52s-.47,.82-.46,1.42h3.28Z"/><path d="M527.61,184.92l2.51,.3c.04,.29,.14,.49,.29,.6,.21,.16,.54,.23,.98,.23,.57,0,1-.09,1.29-.26,.19-.11,.34-.3,.44-.55,.07-.18,.1-.52,.1-1.01v-1.21c-.66,.9-1.48,1.34-2.48,1.34-1.11,0-2-.47-2.65-1.41-.51-.75-.77-1.67-.77-2.78,0-1.39,.33-2.45,1-3.19,.67-.73,1.5-1.1,2.5-1.1s1.87,.45,2.54,1.35v-1.16h2.05v7.45c0,.98-.08,1.71-.24,2.2-.16,.48-.39,.86-.68,1.14-.29,.28-.68,.49-1.17,.65-.49,.16-1.1,.23-1.85,.23-1.41,0-2.4-.24-2.99-.72-.59-.48-.88-1.09-.88-1.83,0-.07,0-.16,0-.27Zm1.96-4.87c0,.88,.17,1.52,.51,1.93,.34,.41,.76,.61,1.26,.61,.54,0,.99-.21,1.36-.63,.37-.42,.55-1.04,.55-1.86s-.18-1.5-.53-1.91c-.35-.42-.8-.62-1.34-.62s-.96,.2-1.3,.61c-.34,.41-.51,1.03-.51,1.87Z"/><path d="M542.35,181.74l2.19,.37c-.28,.8-.73,1.41-1.33,1.83-.61,.42-1.37,.63-2.28,.63-1.44,0-2.51-.47-3.2-1.41-.55-.75-.82-1.71-.82-2.86,0-1.38,.36-2.45,1.08-3.23s1.63-1.17,2.73-1.17c1.23,0,2.21,.41,2.92,1.22,.71,.82,1.05,2.06,1.02,3.75h-5.5c.02,.65,.19,1.16,.53,1.52,.34,.36,.76,.54,1.27,.54,.34,0,.63-.09,.87-.28s.41-.49,.53-.91Zm.12-2.22c-.02-.64-.18-1.12-.49-1.45s-.69-.5-1.14-.5c-.48,0-.88,.17-1.19,.52s-.47,.82-.46,1.42h3.28Z"/><path d="M554.03,184.38h-2.2v-4.23c0-.9-.05-1.48-.14-1.74s-.25-.47-.46-.61-.46-.22-.76-.22c-.38,0-.72,.1-1.02,.31-.3,.21-.51,.48-.62,.83-.11,.34-.17,.98-.17,1.91v3.76h-2.2v-8.3h2.04v1.22c.72-.94,1.64-1.41,2.73-1.41,.48,0,.93,.09,1.33,.26,.4,.17,.71,.4,.91,.67,.21,.27,.35,.58,.43,.92,.08,.34,.12,.84,.12,1.48v5.16Z"/></g></g><g><path d="M810.78,228.93l3.3-8.59h1.22l3.52,8.59h-1.29l-1-2.6h-3.59l-.94,2.6h-1.21Zm2.48-3.53h2.91l-.9-2.38c-.27-.72-.48-1.32-.61-1.78-.11,.55-.26,1.1-.46,1.64l-.94,2.52Z" style="fill:#0333ff;"/><path d="M819.56,228.93v-6.22h.95v.88c.46-.68,1.12-1.03,1.98-1.03,.38,0,.72,.07,1.03,.2s.55,.31,.71,.53,.27,.48,.33,.78c.04,.2,.06,.54,.06,1.03v3.83h-1.05v-3.79c0-.43-.04-.75-.12-.96s-.23-.38-.44-.51-.45-.19-.73-.19c-.45,0-.84,.14-1.16,.43s-.49,.83-.49,1.62v3.4h-1.05Z" style="fill:#0333ff;"/><path d="M827.35,228.93l-1.9-6.22h1.09l.99,3.59,.37,1.34c.02-.07,.12-.49,.32-1.28l.99-3.64h1.08l.93,3.61,.31,1.19,.36-1.2,1.07-3.6h1.03l-1.95,6.22h-1.1l-.99-3.73-.24-1.06-1.26,4.79h-1.1Z" style="fill:#0333ff;"/><path d="M839.09,226.93l1.09,.13c-.17,.64-.49,1.13-.96,1.48s-1.06,.53-1.78,.53c-.91,0-1.63-.28-2.17-.84s-.8-1.35-.8-2.36,.27-1.86,.81-2.44,1.24-.87,2.1-.87,1.51,.28,2.04,.85,.79,1.36,.79,2.39c0,.06,0,.16,0,.28h-4.64c.04,.68,.23,1.21,.58,1.57s.78,.54,1.3,.54c.39,0,.72-.1,.99-.3s.49-.53,.65-.97Zm-3.46-1.71h3.47c-.05-.52-.18-.92-.4-1.18-.34-.41-.77-.61-1.31-.61-.48,0-.89,.16-1.22,.49s-.51,.76-.55,1.3Z" style="fill:#0333ff;"/><path d="M841.46,228.93v-6.22h.95v.88c.46-.68,1.12-1.03,1.98-1.03,.38,0,.72,.07,1.03,.2s.55,.31,.71,.53,.27,.48,.33,.78c.04,.2,.06,.54,.06,1.03v3.83h-1.05v-3.79c0-.43-.04-.75-.12-.96s-.23-.38-.44-.51-.45-.19-.74-.19c-.45,0-.84,.14-1.16,.43s-.49,.83-.49,1.62v3.4h-1.05Z" style="fill:#0333ff;"/><path d="M852.14,228.93v-.79c-.39,.62-.97,.93-1.74,.93-.5,0-.95-.14-1.37-.41s-.74-.66-.97-1.15-.34-1.05-.34-1.69,.1-1.18,.31-1.69,.52-.89,.93-1.16,.88-.4,1.39-.4c.38,0,.71,.08,1,.24s.53,.36,.71,.62v-3.08h1.05v8.59h-.98Zm-3.33-3.11c0,.8,.17,1.39,.5,1.79s.73,.59,1.19,.59,.85-.19,1.17-.57,.48-.95,.48-1.73c0-.85-.16-1.48-.49-1.88s-.73-.6-1.21-.6-.86,.19-1.17,.57-.47,.99-.47,1.81Z" style="fill:#0333ff;"/><path d="M858.82,228.93v-.91c-.48,.7-1.14,1.05-1.97,1.05-.37,0-.71-.07-1.03-.21s-.55-.32-.71-.53-.26-.47-.32-.78c-.04-.21-.06-.54-.06-.98v-3.86h1.05v3.45c0,.55,.02,.92,.06,1.11,.07,.28,.21,.5,.42,.65s.48,.24,.8,.24,.61-.08,.89-.24,.47-.38,.59-.66,.17-.68,.17-1.22v-3.33h1.05v6.22h-.94Z" style="fill:#0333ff;"/><path d="M861.38,228.93v-6.22h.95v.88c.46-.68,1.12-1.03,1.98-1.03,.38,0,.72,.07,1.04,.2s.55,.31,.71,.53,.27,.48,.33,.78c.04,.2,.06,.54,.06,1.03v3.83h-1.05v-3.79c0-.43-.04-.75-.12-.96s-.23-.38-.44-.51-.46-.19-.74-.19c-.45,0-.84,.14-1.16,.43s-.49,.83-.49,1.62v3.4h-1.05Z" style="fill:#0333ff;"/><path d="M867.82,229.45l1.03,.15c.04,.32,.16,.55,.36,.69,.26,.2,.62,.29,1.07,.29,.49,0,.87-.1,1.13-.29s.45-.47,.54-.82c.05-.21,.08-.67,.08-1.35-.46,.54-1.04,.81-1.72,.81-.86,0-1.52-.31-1.99-.93s-.7-1.36-.7-2.22c0-.59,.11-1.14,.32-1.64s.53-.89,.93-1.16,.89-.41,1.44-.41c.73,0,1.34,.3,1.82,.89v-.75h.97v5.38c0,.97-.1,1.66-.3,2.06s-.51,.72-.94,.96-.95,.35-1.58,.35c-.74,0-1.34-.17-1.8-.5s-.68-.84-.66-1.51Zm.87-3.74c0,.82,.16,1.41,.49,1.79s.73,.56,1.22,.56,.89-.19,1.22-.56,.49-.96,.49-1.75-.17-1.34-.51-1.72-.74-.58-1.22-.58-.87,.19-1.2,.57-.49,.95-.49,1.7Z" style="fill:#0333ff;"/><path d="M874.23,227.08l1.04-.16c.06,.42,.22,.74,.49,.96s.64,.33,1.12,.33,.84-.1,1.08-.3,.35-.43,.35-.69c0-.24-.1-.43-.31-.56-.14-.09-.5-.21-1.08-.36-.77-.2-1.31-.36-1.61-.51s-.53-.34-.68-.59-.23-.53-.23-.83c0-.28,.06-.53,.19-.77s.3-.43,.52-.59c.16-.12,.39-.22,.67-.31s.59-.13,.91-.13c.49,0,.92,.07,1.29,.21s.64,.33,.82,.57,.3,.56,.36,.96l-1.03,.14c-.05-.32-.18-.57-.41-.75s-.54-.27-.95-.27c-.48,0-.83,.08-1.04,.24s-.31,.35-.31,.56c0,.14,.04,.26,.13,.37,.09,.11,.22,.21,.4,.28,.11,.04,.42,.13,.93,.27,.75,.2,1.27,.36,1.56,.49s.53,.31,.69,.55,.25,.54,.25,.9-.1,.68-.31,.99-.5,.55-.89,.72-.82,.25-1.31,.25c-.81,0-1.42-.17-1.85-.5s-.7-.83-.81-1.49Z" style="fill:#0333ff;"/><path d="M880.2,227.08l1.04-.16c.06,.42,.22,.74,.49,.96s.64,.33,1.12,.33,.84-.1,1.08-.3,.35-.43,.35-.69c0-.24-.1-.43-.31-.56-.14-.09-.5-.21-1.08-.36-.77-.2-1.31-.36-1.61-.51s-.53-.34-.68-.59-.23-.53-.23-.83c0-.28,.06-.53,.19-.77s.3-.43,.52-.59c.16-.12,.39-.22,.67-.31s.59-.13,.91-.13c.49,0,.92,.07,1.29,.21s.64,.33,.82,.57,.3,.56,.36,.96l-1.03,.14c-.05-.32-.18-.57-.41-.75s-.54-.27-.95-.27c-.48,0-.83,.08-1.04,.24s-.31,.35-.31,.56c0,.14,.04,.26,.13,.37,.09,.11,.22,.21,.4,.28,.11,.04,.42,.13,.93,.27,.75,.2,1.27,.36,1.56,.49s.53,.31,.69,.55,.25,.54,.25,.9-.1,.68-.31,.99-.5,.55-.89,.72-.82,.25-1.31,.25c-.81,0-1.42-.17-1.85-.5s-.69-.83-.81-1.49Z" style="fill:#0333ff;"/><path d="M886.54,231.33l-.12-.99c.23,.06,.43,.09,.6,.09,.23,0,.42-.04,.56-.12s.26-.19,.35-.33c.07-.11,.17-.37,.32-.79,.02-.06,.05-.14,.09-.26l-2.36-6.23h1.14l1.29,3.6c.17,.46,.32,.94,.45,1.44,.12-.48,.27-.96,.43-1.42l1.33-3.63h1.05l-2.37,6.33c-.25,.68-.45,1.15-.59,1.41-.19,.35-.4,.6-.64,.76s-.53,.24-.87,.24c-.2,0-.43-.04-.68-.13Z" style="fill:#0333ff;"/><path d="M892.12,227.08l1.04-.16c.06,.42,.22,.74,.49,.96s.64,.33,1.12,.33,.84-.1,1.08-.3,.35-.43,.35-.69c0-.24-.1-.43-.31-.56-.14-.09-.5-.21-1.08-.36-.77-.2-1.31-.36-1.61-.51s-.53-.34-.68-.59-.23-.53-.23-.83c0-.28,.06-.53,.19-.77s.3-.43,.52-.59c.16-.12,.39-.22,.67-.31s.59-.13,.91-.13c.49,0,.92,.07,1.29,.21s.64,.33,.82,.57,.3,.56,.36,.96l-1.03,.14c-.05-.32-.18-.57-.41-.75s-.54-.27-.95-.27c-.48,0-.83,.08-1.04,.24s-.31,.35-.31,.56c0,.14,.04,.26,.13,.37,.09,.11,.22,.21,.4,.28,.11,.04,.42,.13,.93,.27,.75,.2,1.27,.36,1.56,.49s.53,.31,.69,.55,.25,.54,.25,.9-.1,.68-.31,.99-.5,.55-.89,.72-.82,.25-1.31,.25c-.81,0-1.42-.17-1.85-.5s-.69-.83-.81-1.49Z" style="fill:#0333ff;"/><path d="M900.81,227.99l.15,.93c-.3,.06-.56,.09-.8,.09-.38,0-.68-.06-.89-.18s-.36-.28-.45-.48-.13-.61-.13-1.25v-3.58h-.77v-.82h.77v-1.54l1.05-.63v2.17h1.06v.82h-1.06v3.64c0,.3,.02,.49,.05,.58s.1,.15,.18,.21,.21,.08,.36,.08c.12,0,.27-.01,.46-.04Z" style="fill:#0333ff;"/><path d="M906.07,226.93l1.09,.13c-.17,.64-.49,1.13-.96,1.48s-1.06,.53-1.78,.53c-.91,0-1.63-.28-2.16-.84s-.8-1.35-.8-2.36,.27-1.86,.81-2.44,1.24-.87,2.1-.87,1.51,.28,2.04,.85,.79,1.36,.79,2.39c0,.06,0,.16,0,.28h-4.64c.04,.68,.23,1.21,.58,1.57s.78,.54,1.3,.54c.39,0,.72-.1,.99-.3s.49-.53,.65-.97Zm-3.46-1.71h3.47c-.05-.52-.18-.92-.4-1.18-.34-.41-.77-.61-1.31-.61-.48,0-.89,.16-1.22,.49s-.51,.76-.55,1.3Z" style="fill:#0333ff;"/><path d="M908.45,228.93v-6.22h.94v.87c.2-.3,.46-.55,.78-.74s.69-.28,1.11-.28c.46,0,.84,.1,1.13,.29s.5,.46,.62,.8c.49-.73,1.13-1.09,1.92-1.09,.62,0,1.09,.17,1.42,.51s.5,.87,.5,1.58v4.27h-1.05v-3.92c0-.42-.04-.73-.1-.91s-.19-.33-.37-.45-.39-.17-.63-.17c-.44,0-.8,.15-1.09,.44s-.43,.76-.43,1.4v3.62h-1.05v-4.04c0-.47-.09-.82-.26-1.05s-.45-.35-.84-.35c-.3,0-.57,.08-.82,.23s-.43,.38-.55,.69-.17,.73-.17,1.3v3.23h-1.05Z" style="fill:#0333ff;"/></g><g><path d="M93.63,225.73v-8.59h1.14v8.59h-1.14Z" style="fill:#0333ff;"/><path d="M96.6,225.73v-6.22h.95v.88c.46-.68,1.12-1.03,1.98-1.03,.38,0,.72,.07,1.04,.2s.55,.31,.71,.53,.27,.48,.33,.78c.04,.2,.06,.54,.06,1.03v3.83h-1.05v-3.79c0-.43-.04-.75-.12-.96s-.23-.38-.44-.51-.46-.19-.74-.19c-.45,0-.84,.14-1.16,.43s-.49,.83-.49,1.62v3.4h-1.05Z" style="fill:#0333ff;"/><path d="M103.49,225.73v-5.4h-.93v-.82h.93v-.66c0-.42,.04-.73,.11-.93,.1-.27,.28-.5,.54-.67s.61-.25,1.08-.25c.3,0,.62,.04,.98,.11l-.16,.92c-.22-.04-.43-.06-.62-.06-.32,0-.55,.07-.68,.21s-.2,.39-.2,.77v.57h1.21v.82h-1.21v5.4h-1.05Z" style="fill:#0333ff;"/><path d="M106.14,222.62c0-1.15,.32-2.01,.96-2.56,.54-.46,1.19-.69,1.96-.69,.86,0,1.55,.28,2.1,.84s.81,1.33,.81,2.32c0,.8-.12,1.43-.36,1.89s-.59,.82-1.05,1.07-.96,.38-1.5,.38c-.87,0-1.58-.28-2.11-.84s-.81-1.36-.81-2.41Zm1.08,0c0,.8,.17,1.39,.52,1.79s.79,.59,1.31,.59,.96-.2,1.31-.6,.52-1.01,.52-1.82c0-.77-.17-1.35-.52-1.75s-.78-.59-1.3-.59-.96,.2-1.31,.59-.52,.99-.52,1.79Z" style="fill:#0333ff;"/><path d="M113.16,225.73v-6.22h.95v.94c.24-.44,.47-.73,.67-.87s.43-.21,.68-.21c.36,0,.72,.11,1.08,.34l-.36,.98c-.26-.15-.52-.23-.77-.23-.23,0-.44,.07-.62,.21s-.31,.33-.39,.58c-.12,.38-.18,.79-.18,1.23v3.26h-1.05Z" style="fill:#0333ff;"/><path d="M117.13,225.73v-6.22h.94v.87c.2-.3,.46-.55,.78-.74s.69-.28,1.11-.28c.46,0,.84,.1,1.13,.29s.5,.46,.62,.8c.49-.73,1.13-1.09,1.92-1.09,.62,0,1.09,.17,1.42,.51s.5,.87,.5,1.58v4.27h-1.05v-3.92c0-.42-.03-.73-.1-.91s-.19-.33-.37-.45-.39-.17-.63-.17c-.44,0-.8,.15-1.09,.44s-.43,.76-.43,1.4v3.62h-1.05v-4.04c0-.47-.09-.82-.26-1.05s-.45-.35-.84-.35c-.3,0-.57,.08-.82,.23s-.43,.38-.55,.69-.17,.73-.17,1.3v3.23h-1.05Z" style="fill:#0333ff;"/><path d="M131.15,224.97c-.39,.33-.77,.57-1.13,.7s-.75,.21-1.16,.21c-.68,0-1.21-.17-1.58-.5s-.55-.76-.55-1.28c0-.3,.07-.58,.21-.83s.32-.45,.54-.61,.48-.27,.76-.35c.21-.05,.52-.11,.94-.16,.85-.1,1.48-.22,1.88-.36,0-.14,0-.24,0-.28,0-.43-.1-.73-.3-.91-.27-.24-.67-.36-1.2-.36-.5,0-.86,.09-1.1,.26s-.41,.48-.53,.92l-1.03-.14c.09-.44,.25-.8,.46-1.07s.53-.48,.93-.63,.88-.22,1.41-.22,.96,.06,1.29,.19,.58,.28,.73,.47,.27,.43,.33,.72c.04,.18,.05,.5,.05,.97v1.41c0,.98,.02,1.6,.07,1.86s.13,.51,.27,.75h-1.1c-.11-.22-.18-.47-.21-.77Zm-.09-2.36c-.38,.16-.96,.29-1.72,.4-.43,.06-.74,.13-.92,.21s-.32,.19-.42,.34-.15,.32-.15,.5c0,.28,.11,.52,.32,.7s.52,.28,.93,.28,.77-.09,1.08-.27,.55-.42,.7-.73c.11-.24,.17-.59,.17-1.05v-.39Z" style="fill:#0333ff;"/><path d="M136.03,224.79l.15,.93c-.3,.06-.56,.09-.8,.09-.38,0-.68-.06-.89-.18s-.36-.28-.45-.48-.13-.61-.13-1.25v-3.58h-.77v-.82h.77v-1.54l1.05-.63v2.17h1.06v.82h-1.06v3.64c0,.3,.02,.49,.05,.58s.1,.15,.18,.21,.21,.08,.36,.08c.12,0,.27-.01,.46-.04Z" style="fill:#0333ff;"/><path d="M137.03,218.36v-1.21h1.05v1.21h-1.05Zm0,7.38v-6.22h1.05v6.22h-1.05Z" style="fill:#0333ff;"/><path d="M139.27,222.62c0-1.15,.32-2.01,.96-2.56,.54-.46,1.19-.69,1.96-.69,.86,0,1.55,.28,2.1,.84s.81,1.33,.81,2.32c0,.8-.12,1.43-.36,1.89s-.59,.82-1.05,1.07-.96,.38-1.5,.38c-.87,0-1.58-.28-2.11-.84s-.8-1.36-.8-2.41Zm1.08,0c0,.8,.17,1.39,.52,1.79s.79,.59,1.31,.59,.96-.2,1.31-.6,.52-1.01,.52-1.82c0-.77-.18-1.35-.53-1.75s-.78-.59-1.3-.59-.96,.2-1.31,.59-.52,.99-.52,1.79Z" style="fill:#0333ff;"/><path d="M146.3,225.73v-6.22h.95v.88c.46-.68,1.12-1.03,1.98-1.03,.38,0,.72,.07,1.03,.2s.55,.31,.71,.53,.27,.48,.33,.78c.04,.2,.06,.54,.06,1.03v3.83h-1.05v-3.79c0-.43-.04-.75-.12-.96s-.23-.38-.44-.51-.45-.19-.74-.19c-.45,0-.84,.14-1.16,.43s-.49,.83-.49,1.62v3.4h-1.05Z" style="fill:#0333ff;"/><path d="M152.51,223.88l1.04-.16c.06,.42,.22,.74,.49,.96s.64,.33,1.12,.33,.84-.1,1.08-.3,.35-.43,.35-.69c0-.24-.1-.43-.31-.56-.14-.09-.5-.21-1.08-.36-.77-.2-1.31-.36-1.61-.51s-.53-.34-.68-.59-.23-.53-.23-.83c0-.28,.06-.53,.19-.77s.3-.43,.52-.59c.16-.12,.39-.22,.67-.31s.59-.13,.91-.13c.49,0,.92,.07,1.29,.21s.64,.33,.82,.57,.3,.56,.36,.96l-1.03,.14c-.05-.32-.18-.57-.41-.75s-.54-.27-.95-.27c-.48,0-.83,.08-1.04,.24s-.31,.35-.31,.56c0,.14,.04,.26,.13,.37,.09,.11,.22,.21,.4,.28,.11,.04,.42,.13,.93,.27,.75,.2,1.27,.36,1.56,.49s.53,.31,.69,.55,.25,.54,.25,.9-.1,.68-.31,.99-.5,.55-.89,.72-.82,.25-1.31,.25c-.81,0-1.42-.17-1.85-.5s-.69-.83-.81-1.49Z" style="fill:#0333ff;"/><path d="M158.51,222.62c0-1.15,.32-2.01,.96-2.56,.54-.46,1.19-.69,1.96-.69,.86,0,1.55,.28,2.1,.84s.81,1.33,.81,2.32c0,.8-.12,1.43-.36,1.89s-.59,.82-1.05,1.07-.96,.38-1.5,.38c-.87,0-1.58-.28-2.11-.84s-.81-1.36-.81-2.41Zm1.08,0c0,.8,.17,1.39,.52,1.79s.79,.59,1.31,.59,.96-.2,1.31-.6,.52-1.01,.52-1.82c0-.77-.17-1.35-.52-1.75s-.78-.59-1.3-.59-.96,.2-1.31,.59-.52,.99-.52,1.79Z" style="fill:#0333ff;"/><path d="M166.51,225.73h-.98v-8.59h1.05v3.06c.45-.56,1.01-.84,1.71-.84,.38,0,.75,.08,1.09,.23s.62,.37,.84,.65,.39,.62,.52,1.01,.19,.82,.19,1.27c0,1.07-.26,1.89-.79,2.47s-1.16,.87-1.9,.87-1.31-.31-1.73-.92v.78Zm-.01-3.16c0,.75,.1,1.29,.3,1.62,.33,.54,.78,.81,1.35,.81,.46,0,.86-.2,1.2-.6s.5-1,.5-1.79-.16-1.41-.48-1.8-.71-.58-1.17-.58-.86,.2-1.2,.6-.5,.98-.5,1.74Z" style="fill:#0333ff;"/><path d="M170.83,228.15l.2-.9c.21,.05,.38,.08,.5,.08,.21,0,.38-.07,.48-.21s.16-.5,.16-1.07v-6.54h1.05v6.56c0,.77-.1,1.3-.3,1.6-.25,.39-.68,.59-1.27,.59-.29,0-.56-.04-.83-.11Zm1.34-9.78v-1.22h1.05v1.22h-1.05Z" style="fill:#0333ff;"/><path d="M179.06,223.73l1.09,.13c-.17,.64-.49,1.13-.96,1.48s-1.06,.53-1.78,.53c-.91,0-1.63-.28-2.16-.84s-.8-1.35-.8-2.36,.27-1.86,.81-2.44,1.24-.87,2.1-.87,1.51,.28,2.04,.85,.79,1.36,.79,2.39c0,.06,0,.16,0,.28h-4.64c.04,.68,.23,1.21,.58,1.57s.78,.54,1.3,.54c.39,0,.72-.1,.99-.3s.49-.53,.65-.97Zm-3.46-1.71h3.47c-.05-.52-.18-.92-.4-1.18-.34-.41-.77-.61-1.31-.61-.48,0-.89,.16-1.22,.49s-.51,.76-.55,1.3Z" style="fill:#0333ff;"/><path d="M181.45,225.73v-8.59h1.05v4.9l2.5-2.53h1.37l-2.38,2.31,2.62,3.91h-1.3l-2.06-3.18-.74,.71v2.47h-1.05Z" style="fill:#0333ff;"/><path d="M189.71,224.79l.15,.93c-.3,.06-.56,.09-.8,.09-.38,0-.68-.06-.89-.18s-.36-.28-.45-.48-.13-.61-.13-1.25v-3.58h-.77v-.82h.77v-1.54l1.05-.63v2.17h1.06v.82h-1.06v3.64c0,.3,.02,.49,.06,.58s.1,.15,.18,.21,.2,.08,.36,.08c.12,0,.27-.01,.46-.04Z" style="fill:#0333ff;"/><path d="M77.99,242.66c-.58-.73-1.07-1.59-1.48-2.58s-.6-2-.6-3.06c0-.93,.15-1.82,.45-2.67,.35-.99,.89-1.97,1.63-2.95h.76c-.47,.81-.79,1.39-.94,1.74-.24,.54-.43,1.1-.56,1.69-.17,.73-.25,1.46-.25,2.2,0,1.88,.58,3.76,1.75,5.63h-.76Z" style="fill:#0333ff;"/><path d="M79.12,240.13l3.3-8.59h1.22l3.52,8.59h-1.29l-1-2.6h-3.59l-.94,2.6h-1.21Zm2.48-3.53h2.91l-.9-2.38c-.27-.72-.48-1.32-.61-1.78-.11,.55-.26,1.1-.46,1.64l-.94,2.52Z" style="fill:#0333ff;"/><path d="M87.9,240.13v-6.22h.95v.88c.46-.68,1.12-1.03,1.98-1.03,.38,0,.72,.07,1.03,.2s.55,.31,.71,.53,.27,.48,.33,.78c.04,.2,.06,.54,.06,1.03v3.83h-1.05v-3.79c0-.43-.04-.75-.12-.96s-.23-.38-.44-.51-.45-.19-.74-.19c-.45,0-.84,.14-1.16,.43s-.49,.83-.49,1.62v3.4h-1.05Z" style="fill:#0333ff;"/><path d="M95.68,240.13l-1.9-6.22h1.09l.99,3.59,.37,1.34c.02-.07,.12-.49,.32-1.28l.99-3.64h1.08l.93,3.61,.31,1.19,.36-1.2,1.07-3.6h1.03l-1.95,6.22h-1.1l-.99-3.73-.24-1.06-1.26,4.79h-1.1Z" style="fill:#0333ff;"/><path d="M107.42,238.13l1.09,.13c-.17,.64-.49,1.13-.96,1.48s-1.06,.53-1.78,.53c-.91,0-1.63-.28-2.17-.84s-.8-1.35-.8-2.36,.27-1.86,.81-2.44,1.24-.87,2.1-.87,1.51,.28,2.04,.85,.79,1.36,.79,2.39c0,.06,0,.16,0,.28h-4.64c.04,.68,.23,1.21,.58,1.57s.78,.54,1.3,.54c.39,0,.72-.1,.99-.3s.49-.53,.65-.97Zm-3.46-1.71h3.47c-.05-.52-.18-.92-.4-1.18-.34-.41-.77-.61-1.31-.61-.48,0-.89,.16-1.22,.49s-.51,.76-.55,1.3Z" style="fill:#0333ff;"/><path d="M109.8,240.13v-6.22h.95v.88c.46-.68,1.12-1.03,1.98-1.03,.38,0,.72,.07,1.03,.2s.55,.31,.71,.53,.27,.48,.33,.78c.04,.2,.06,.54,.06,1.03v3.83h-1.05v-3.79c0-.43-.04-.75-.12-.96s-.23-.38-.44-.51-.45-.19-.74-.19c-.45,0-.84,.14-1.16,.43s-.49,.83-.49,1.62v3.4h-1.05Z" style="fill:#0333ff;"/><path d="M120.48,240.13v-.79c-.39,.62-.97,.93-1.74,.93-.5,0-.95-.14-1.37-.41s-.74-.66-.97-1.15-.34-1.05-.34-1.69,.1-1.18,.31-1.69,.52-.89,.93-1.16,.88-.4,1.39-.4c.38,0,.71,.08,1,.24s.53,.36,.71,.62v-3.08h1.05v8.59h-.98Zm-3.33-3.11c0,.8,.17,1.39,.5,1.79s.73,.59,1.19,.59,.85-.19,1.18-.57,.48-.95,.48-1.73c0-.85-.16-1.48-.49-1.88s-.73-.6-1.21-.6-.86,.19-1.17,.57-.47,.99-.47,1.81Z" style="fill:#0333ff;"/><path d="M127.16,240.13v-.91c-.48,.7-1.14,1.05-1.97,1.05-.37,0-.71-.07-1.03-.21s-.55-.32-.71-.53-.26-.47-.32-.78c-.04-.21-.06-.54-.06-.98v-3.86h1.05v3.45c0,.55,.02,.92,.06,1.11,.07,.28,.21,.5,.42,.65s.48,.24,.8,.24,.61-.08,.89-.24,.47-.38,.59-.66,.17-.68,.17-1.22v-3.33h1.05v6.22h-.94Z" style="fill:#0333ff;"/><path d="M129.72,240.13v-6.22h.95v.88c.46-.68,1.12-1.03,1.98-1.03,.38,0,.72,.07,1.04,.2s.55,.31,.71,.53,.27,.48,.33,.78c.04,.2,.06,.54,.06,1.03v3.83h-1.05v-3.79c0-.43-.04-.75-.12-.96s-.23-.38-.44-.51-.46-.19-.74-.19c-.45,0-.84,.14-1.16,.43s-.49,.83-.49,1.62v3.4h-1.05Z" style="fill:#0333ff;"/><path d="M136.16,240.65l1.03,.15c.04,.32,.16,.55,.36,.69,.26,.2,.62,.29,1.07,.29,.49,0,.87-.1,1.13-.29s.45-.47,.54-.82c.05-.21,.08-.67,.08-1.35-.46,.54-1.04,.81-1.72,.81-.86,0-1.52-.31-1.99-.93s-.7-1.36-.7-2.22c0-.59,.11-1.14,.32-1.64s.53-.89,.93-1.16,.89-.41,1.44-.41c.73,0,1.34,.3,1.82,.89v-.75h.97v5.38c0,.97-.1,1.66-.3,2.06s-.51,.72-.94,.96-.95,.35-1.58,.35c-.74,0-1.34-.17-1.8-.5s-.68-.84-.66-1.51Zm.87-3.74c0,.82,.16,1.41,.49,1.79s.73,.56,1.22,.56,.89-.19,1.22-.56,.49-.96,.49-1.75-.17-1.34-.51-1.72-.74-.58-1.22-.58-.87,.19-1.2,.57-.49,.95-.49,1.7Z" style="fill:#0333ff;"/><path d="M142.57,238.28l1.04-.16c.06,.42,.22,.74,.49,.96s.64,.33,1.12,.33,.84-.1,1.08-.3,.35-.43,.35-.69c0-.24-.1-.43-.31-.56-.14-.09-.5-.21-1.08-.36-.77-.2-1.31-.36-1.61-.51s-.53-.34-.68-.59-.23-.53-.23-.83c0-.28,.06-.53,.19-.77s.3-.43,.52-.59c.16-.12,.39-.22,.67-.31s.59-.13,.91-.13c.49,0,.92,.07,1.29,.21s.64,.33,.82,.57,.3,.56,.36,.96l-1.03,.14c-.05-.32-.18-.57-.41-.75s-.54-.27-.95-.27c-.48,0-.83,.08-1.04,.24s-.31,.35-.31,.56c0,.14,.04,.26,.13,.37,.09,.11,.22,.21,.4,.28,.11,.04,.42,.13,.93,.27,.75,.2,1.27,.36,1.56,.49s.53,.31,.69,.55,.25,.54,.25,.9-.1,.68-.31,.99-.5,.55-.89,.72-.82,.25-1.31,.25c-.81,0-1.42-.17-1.85-.5s-.69-.83-.81-1.49Z" style="fill:#0333ff;"/><path d="M148.53,238.28l1.04-.16c.06,.42,.22,.74,.49,.96s.64,.33,1.12,.33,.84-.1,1.08-.3,.35-.43,.35-.69c0-.24-.1-.43-.31-.56-.14-.09-.5-.21-1.08-.36-.77-.2-1.31-.36-1.61-.51s-.53-.34-.68-.59-.23-.53-.23-.83c0-.28,.06-.53,.19-.77s.3-.43,.52-.59c.16-.12,.39-.22,.67-.31s.59-.13,.91-.13c.49,0,.92,.07,1.29,.21s.64,.33,.82,.57,.3,.56,.36,.96l-1.03,.14c-.05-.32-.18-.57-.41-.75s-.54-.27-.95-.27c-.48,0-.83,.08-1.04,.24s-.31,.35-.31,.56c0,.14,.04,.26,.13,.37,.09,.11,.22,.21,.4,.28,.11,.04,.42,.13,.93,.27,.75,.2,1.27,.36,1.56,.49s.53,.31,.69,.55,.25,.54,.25,.9-.1,.68-.31,.99-.5,.55-.89,.72-.82,.25-1.31,.25c-.81,0-1.42-.17-1.85-.5s-.69-.83-.81-1.49Z" style="fill:#0333ff;"/><path d="M154.87,242.53l-.12-.99c.23,.06,.43,.09,.6,.09,.23,0,.42-.04,.56-.12s.26-.19,.35-.33c.07-.11,.17-.37,.32-.79,.02-.06,.05-.14,.09-.26l-2.36-6.23h1.14l1.29,3.6c.17,.46,.32,.94,.45,1.44,.12-.48,.27-.96,.43-1.42l1.33-3.63h1.05l-2.37,6.33c-.25,.68-.45,1.15-.59,1.41-.19,.35-.4,.6-.64,.76s-.53,.24-.87,.24c-.2,0-.43-.04-.68-.13Z" style="fill:#0333ff;"/><path d="M160.46,238.28l1.04-.16c.06,.42,.22,.74,.49,.96s.64,.33,1.12,.33,.84-.1,1.08-.3,.35-.43,.35-.69c0-.24-.1-.43-.31-.56-.14-.09-.5-.21-1.08-.36-.77-.2-1.31-.36-1.61-.51s-.53-.34-.68-.59-.23-.53-.23-.83c0-.28,.06-.53,.19-.77s.3-.43,.52-.59c.16-.12,.39-.22,.67-.31s.59-.13,.91-.13c.49,0,.92,.07,1.29,.21s.64,.33,.82,.57,.3,.56,.36,.96l-1.03,.14c-.05-.32-.18-.57-.41-.75s-.54-.27-.95-.27c-.48,0-.83,.08-1.04,.24s-.31,.35-.31,.56c0,.14,.04,.26,.13,.37,.09,.11,.22,.21,.4,.28,.11,.04,.42,.13,.93,.27,.75,.2,1.27,.36,1.56,.49s.53,.31,.69,.55,.25,.54,.25,.9-.1,.68-.31,.99-.5,.55-.89,.72-.82,.25-1.31,.25c-.81,0-1.42-.17-1.85-.5s-.7-.83-.81-1.49Z" style="fill:#0333ff;"/><path d="M169.15,239.19l.15,.93c-.3,.06-.56,.09-.8,.09-.38,0-.68-.06-.89-.18s-.36-.28-.45-.48-.13-.61-.13-1.25v-3.58h-.77v-.82h.77v-1.54l1.05-.63v2.17h1.06v.82h-1.06v3.64c0,.3,.02,.49,.05,.58s.1,.15,.18,.21,.21,.08,.36,.08c.12,0,.27-.01,.46-.04Z" style="fill:#0333ff;"/><path d="M174.41,238.13l1.09,.13c-.17,.64-.49,1.13-.96,1.48s-1.06,.53-1.78,.53c-.91,0-1.63-.28-2.16-.84s-.8-1.35-.8-2.36,.27-1.86,.81-2.44,1.24-.87,2.1-.87,1.51,.28,2.04,.85,.79,1.36,.79,2.39c0,.06,0,.16,0,.28h-4.64c.04,.68,.23,1.21,.58,1.57s.78,.54,1.3,.54c.39,0,.72-.1,.99-.3s.49-.53,.65-.97Zm-3.46-1.71h3.47c-.05-.52-.18-.92-.4-1.18-.34-.41-.77-.61-1.31-.61-.48,0-.89,.16-1.22,.49s-.51,.76-.55,1.3Z" style="fill:#0333ff;"/><path d="M176.78,240.13v-6.22h.94v.87c.2-.3,.46-.55,.78-.74s.69-.28,1.11-.28c.46,0,.84,.1,1.13,.29s.5,.46,.62,.8c.49-.73,1.13-1.09,1.92-1.09,.62,0,1.09,.17,1.42,.51s.5,.87,.5,1.58v4.27h-1.05v-3.92c0-.42-.04-.73-.1-.91s-.19-.33-.37-.45-.39-.17-.63-.17c-.44,0-.8,.15-1.09,.44s-.43,.76-.43,1.4v3.62h-1.05v-4.04c0-.47-.09-.82-.26-1.05s-.45-.35-.84-.35c-.3,0-.57,.08-.82,.23s-.43,.38-.55,.69-.17,.73-.17,1.3v3.23h-1.05Z" style="fill:#0333ff;"/><path d="M187.44,242.66h-.76c1.17-1.88,1.75-3.75,1.75-5.63,0-.73-.08-1.46-.25-2.19-.13-.59-.32-1.15-.56-1.69-.15-.35-.47-.94-.94-1.76h.76c.73,.98,1.28,1.96,1.63,2.95,.3,.85,.45,1.74,.45,2.67,0,1.05-.2,2.07-.61,3.06s-.9,1.84-1.47,2.58Z" style="fill:#0333ff;"/></g><path d="M727.95,191.82v-.88h2.7v.88h-2.7Z"/><g><path d="M366.66,297.48v-8.59h2.96c.67,0,1.18,.04,1.53,.12,.49,.11,.91,.32,1.26,.62,.45,.38,.79,.87,1.02,1.47s.34,1.28,.34,2.04c0,.65-.08,1.23-.23,1.73s-.35,.92-.59,1.25-.5,.59-.78,.78-.62,.33-1.03,.43-.86,.15-1.38,.15h-3.1Zm1.14-1.01h1.83c.57,0,1.01-.05,1.33-.16s.58-.25,.77-.45c.27-.27,.48-.63,.63-1.09s.23-1.01,.23-1.66c0-.9-.15-1.59-.44-2.07s-.65-.81-1.08-.97c-.3-.12-.79-.18-1.47-.18h-1.8v6.56Z" style="fill:#0333ff;"/><path d="M379.25,296.71c-.39,.33-.77,.57-1.13,.7s-.75,.21-1.16,.21c-.68,0-1.21-.17-1.58-.5s-.55-.76-.55-1.28c0-.3,.07-.58,.21-.83s.32-.45,.54-.61,.48-.27,.76-.35c.21-.05,.52-.11,.94-.16,.85-.1,1.48-.22,1.88-.36,0-.14,0-.24,0-.28,0-.43-.1-.73-.3-.91-.27-.24-.67-.36-1.2-.36-.5,0-.86,.09-1.1,.26s-.41,.48-.52,.92l-1.03-.14c.09-.44,.25-.8,.46-1.07s.53-.48,.93-.63,.88-.22,1.41-.22,.96,.06,1.29,.19,.58,.28,.73,.47,.27,.43,.33,.72c.04,.18,.05,.5,.05,.97v1.41c0,.98,.02,1.6,.07,1.86s.13,.51,.27,.75h-1.1c-.11-.22-.18-.47-.21-.77Zm-.09-2.36c-.38,.16-.96,.29-1.72,.4-.43,.06-.74,.13-.92,.21s-.32,.19-.42,.34-.15,.32-.15,.5c0,.28,.11,.52,.32,.7s.52,.28,.93,.28,.77-.09,1.08-.27,.55-.42,.7-.73c.11-.24,.17-.59,.17-1.05v-.39Z" style="fill:#0333ff;"/><path d="M384.17,296.54l.15,.93c-.3,.06-.56,.09-.8,.09-.38,0-.68-.06-.89-.18s-.36-.28-.45-.48-.13-.61-.13-1.25v-3.58h-.77v-.82h.77v-1.54l1.05-.63v2.17h1.06v.82h-1.06v3.64c0,.3,.02,.49,.06,.58s.1,.15,.18,.21,.2,.08,.36,.08c.12,0,.27-.01,.46-.04Z" style="fill:#0333ff;"/><path d="M389.46,295.48l1.09,.13c-.17,.64-.49,1.13-.96,1.48s-1.06,.53-1.78,.53c-.91,0-1.63-.28-2.17-.84s-.8-1.35-.8-2.36,.27-1.86,.81-2.44,1.24-.87,2.1-.87,1.51,.28,2.04,.85,.79,1.36,.79,2.39c0,.06,0,.16,0,.28h-4.64c.04,.68,.23,1.21,.58,1.57s.78,.54,1.3,.54c.39,0,.72-.1,.99-.3s.49-.53,.65-.97Zm-3.46-1.71h3.47c-.05-.52-.18-.92-.4-1.18-.34-.41-.77-.61-1.31-.61-.48,0-.89,.16-1.22,.49s-.51,.76-.55,1.3Z" style="fill:#0333ff;"/><path d="M391.87,297.48v-6.22h.95v.88c.46-.68,1.12-1.03,1.98-1.03,.38,0,.72,.07,1.03,.2s.55,.31,.71,.53,.27,.48,.33,.78c.04,.2,.06,.54,.06,1.03v3.83h-1.05v-3.79c0-.43-.04-.75-.12-.96s-.23-.38-.44-.51-.45-.19-.74-.19c-.45,0-.84,.14-1.16,.43s-.49,.83-.49,1.62v3.4h-1.05Z" style="fill:#0333ff;"/><path d="M398.8,297.48v-5.4h-.93v-.82h.93v-.66c0-.42,.04-.73,.11-.93,.1-.27,.28-.5,.54-.67s.61-.25,1.08-.25c.3,0,.62,.04,.98,.11l-.16,.92c-.22-.04-.43-.06-.62-.06-.32,0-.55,.07-.68,.21s-.2,.39-.2,.77v.57h1.21v.82h-1.21v5.4h-1.05Z" style="fill:#0333ff;"/><path d="M401.86,297.48v-8.59h1.05v8.59h-1.05Z" style="fill:#0333ff;"/><path d="M408.63,297.48v-.91c-.48,.7-1.14,1.05-1.97,1.05-.37,0-.71-.07-1.03-.21s-.55-.32-.71-.53-.26-.47-.33-.78c-.04-.21-.06-.54-.06-.98v-3.86h1.05v3.45c0,.55,.02,.92,.06,1.11,.07,.28,.21,.5,.42,.65s.48,.24,.8,.24,.61-.08,.89-.24,.47-.38,.59-.66,.17-.68,.17-1.22v-3.33h1.05v6.22h-.94Z" style="fill:#0333ff;"/><path d="M410.8,295.62l1.04-.16c.06,.42,.22,.74,.49,.96s.64,.33,1.12,.33,.84-.1,1.08-.3,.35-.43,.35-.69c0-.24-.1-.43-.31-.56-.14-.09-.5-.21-1.08-.36-.77-.2-1.31-.36-1.61-.51s-.53-.34-.68-.59-.23-.53-.23-.83c0-.28,.06-.53,.19-.77s.3-.43,.52-.59c.16-.12,.39-.22,.67-.31s.59-.13,.91-.13c.49,0,.92,.07,1.29,.21s.64,.33,.82,.57,.3,.56,.36,.96l-1.03,.14c-.05-.32-.18-.57-.41-.75s-.54-.27-.95-.27c-.48,0-.83,.08-1.04,.24s-.31,.35-.31,.56c0,.14,.04,.26,.13,.37,.09,.11,.22,.21,.4,.28,.11,.04,.42,.13,.93,.27,.75,.2,1.27,.36,1.56,.49s.53,.31,.69,.55,.25,.54,.25,.9-.1,.68-.31,.99-.5,.55-.89,.72-.82,.25-1.31,.25c-.81,0-1.42-.17-1.85-.5s-.69-.83-.81-1.49Z" style="fill:#0333ff;"/><path d="M416.8,295.62l1.04-.16c.06,.42,.22,.74,.49,.96s.64,.33,1.12,.33,.84-.1,1.08-.3,.35-.43,.35-.69c0-.24-.1-.43-.31-.56-.14-.09-.5-.21-1.08-.36-.77-.2-1.31-.36-1.61-.51s-.53-.34-.68-.59-.23-.53-.23-.83c0-.28,.06-.53,.19-.77s.3-.43,.52-.59c.16-.12,.39-.22,.67-.31s.59-.13,.91-.13c.49,0,.92,.07,1.29,.21s.64,.33,.82,.57,.3,.56,.36,.96l-1.03,.14c-.05-.32-.18-.57-.41-.75s-.54-.27-.95-.27c-.48,0-.83,.08-1.04,.24s-.31,.35-.31,.56c0,.14,.04,.26,.13,.37,.09,.11,.22,.21,.4,.28,.11,.04,.42,.13,.93,.27,.75,.2,1.27,.36,1.56,.49s.53,.31,.69,.55,.25,.54,.25,.9-.1,.68-.31,.99-.5,.55-.89,.72-.82,.25-1.31,.25c-.81,0-1.42-.17-1.85-.5s-.69-.83-.81-1.49Z" style="fill:#0333ff;"/></g><g><path d="M811.38,131.89c0-1.43,.38-2.54,1.15-3.35s1.75-1.21,2.96-1.21c.79,0,1.51,.19,2.14,.57s1.12,.91,1.46,1.58,.5,1.45,.5,2.31-.18,1.65-.53,2.34-.85,1.21-1.49,1.56-1.34,.53-2.09,.53c-.81,0-1.53-.2-2.17-.59s-1.12-.92-1.45-1.6-.49-1.39-.49-2.14Zm1.17,.02c0,1.04,.28,1.85,.83,2.45s1.25,.89,2.09,.89,1.56-.3,2.11-.9,.83-1.46,.83-2.56c0-.7-.12-1.31-.35-1.83s-.58-.93-1.04-1.21-.97-.43-1.53-.43c-.8,0-1.5,.28-2.08,.83s-.87,1.48-.87,2.77Z" style="fill:#0333ff;"/><path d="M820.91,136.07v-6.22h.95v.94c.24-.44,.47-.73,.67-.87s.43-.21,.68-.21c.36,0,.72,.11,1.08,.34l-.36,.98c-.26-.15-.52-.23-.77-.23-.23,0-.44,.07-.62,.21s-.31,.33-.39,.58c-.12,.38-.18,.79-.18,1.23v3.26h-1.05Z" style="fill:#0333ff;"/><path d="M824.73,136.59l1.03,.15c.04,.32,.16,.55,.36,.69,.26,.2,.62,.29,1.07,.29,.49,0,.87-.1,1.13-.29s.45-.47,.54-.82c.05-.21,.08-.67,.08-1.35-.46,.54-1.04,.81-1.72,.81-.86,0-1.52-.31-1.99-.93s-.7-1.36-.7-2.22c0-.59,.11-1.14,.32-1.64s.53-.89,.93-1.16,.89-.41,1.44-.41c.73,0,1.34,.3,1.82,.89v-.75h.97v5.38c0,.97-.1,1.66-.3,2.06s-.51,.72-.94,.96-.95,.35-1.58,.35c-.74,0-1.34-.17-1.8-.5s-.68-.84-.66-1.51Zm.87-3.74c0,.82,.16,1.41,.49,1.79s.73,.56,1.22,.56,.89-.19,1.22-.56,.49-.96,.49-1.75-.17-1.34-.51-1.72-.75-.58-1.22-.58-.87,.19-1.2,.57-.49,.95-.49,1.7Z" style="fill:#0333ff;"/><path d="M835.66,135.3c-.39,.33-.77,.57-1.13,.7s-.75,.21-1.16,.21c-.68,0-1.21-.17-1.58-.5s-.55-.76-.55-1.28c0-.3,.07-.58,.21-.83s.32-.45,.54-.61,.48-.27,.76-.35c.21-.05,.52-.11,.94-.16,.85-.1,1.48-.22,1.88-.36,0-.14,0-.24,0-.28,0-.43-.1-.73-.3-.91-.27-.24-.67-.36-1.2-.36-.5,0-.86,.09-1.1,.26s-.41,.48-.52,.92l-1.03-.14c.09-.44,.25-.8,.46-1.07s.53-.48,.93-.63,.88-.22,1.41-.22,.96,.06,1.29,.19,.58,.28,.73,.47,.27,.43,.33,.72c.04,.18,.05,.5,.05,.97v1.41c0,.98,.02,1.6,.07,1.86s.13,.51,.27,.75h-1.1c-.11-.22-.18-.47-.21-.77Zm-.09-2.36c-.38,.16-.96,.29-1.72,.4-.43,.06-.74,.13-.92,.21s-.32,.19-.42,.34-.15,.32-.15,.5c0,.28,.11,.52,.32,.7s.52,.28,.93,.28,.77-.09,1.08-.27,.55-.42,.7-.73c.11-.24,.17-.59,.17-1.05v-.39Z" style="fill:#0333ff;"/><path d="M838.27,136.07v-6.22h.95v.88c.46-.68,1.12-1.03,1.98-1.03,.38,0,.72,.07,1.03,.2s.55,.31,.71,.53,.27,.48,.33,.78c.04,.2,.06,.54,.06,1.03v3.83h-1.05v-3.79c0-.43-.04-.75-.12-.96s-.23-.38-.44-.51-.45-.19-.74-.19c-.45,0-.84,.14-1.16,.43s-.49,.83-.49,1.62v3.4h-1.05Z" style="fill:#0333ff;"/><path d="M844.95,128.69v-1.21h1.05v1.21h-1.05Zm0,7.38v-6.22h1.05v6.22h-1.05Z" style="fill:#0333ff;"/><path d="M847.19,134.21l1.04-.16c.06,.42,.22,.74,.49,.96s.64,.33,1.12,.33,.84-.1,1.08-.3,.35-.43,.35-.69c0-.24-.1-.43-.31-.56-.14-.09-.5-.21-1.08-.36-.77-.2-1.31-.36-1.61-.51s-.53-.34-.68-.59-.23-.53-.23-.83c0-.28,.06-.53,.19-.77s.3-.43,.52-.59c.16-.12,.39-.22,.67-.31s.59-.13,.91-.13c.49,0,.92,.07,1.29,.21s.64,.33,.82,.57,.3,.56,.36,.96l-1.03,.14c-.05-.32-.18-.57-.41-.75s-.54-.27-.95-.27c-.48,0-.83,.08-1.04,.24s-.31,.35-.31,.56c0,.14,.04,.26,.13,.37,.09,.11,.22,.21,.4,.28,.11,.04,.42,.13,.93,.27,.75,.2,1.27,.36,1.56,.49s.53,.31,.69,.55,.25,.54,.25,.9-.1,.68-.31,.99-.5,.55-.89,.72-.82,.25-1.31,.25c-.81,0-1.42-.17-1.85-.5s-.69-.83-.81-1.49Z" style="fill:#0333ff;"/><path d="M857.67,135.3c-.39,.33-.77,.57-1.13,.7s-.75,.21-1.16,.21c-.68,0-1.21-.17-1.58-.5s-.55-.76-.55-1.28c0-.3,.07-.58,.21-.83s.32-.45,.54-.61,.48-.27,.76-.35c.21-.05,.52-.11,.94-.16,.85-.1,1.48-.22,1.88-.36,0-.14,0-.24,0-.28,0-.43-.1-.73-.3-.91-.27-.24-.67-.36-1.2-.36-.5,0-.86,.09-1.1,.26s-.41,.48-.52,.92l-1.03-.14c.09-.44,.25-.8,.46-1.07s.53-.48,.93-.63,.88-.22,1.41-.22,.96,.06,1.29,.19,.58,.28,.73,.47,.27,.43,.33,.72c.04,.18,.05,.5,.05,.97v1.41c0,.98,.02,1.6,.07,1.86s.13,.51,.27,.75h-1.1c-.11-.22-.18-.47-.21-.77Zm-.09-2.36c-.38,.16-.96,.29-1.72,.4-.43,.06-.74,.13-.92,.21s-.32,.19-.42,.34-.15,.32-.15,.5c0,.28,.11,.52,.32,.7s.52,.28,.93,.28,.77-.09,1.08-.27,.55-.42,.7-.73c.11-.24,.17-.59,.17-1.05v-.39Z" style="fill:#0333ff;"/><path d="M862.59,135.13l.15,.93c-.3,.06-.56,.09-.8,.09-.38,0-.68-.06-.89-.18s-.36-.28-.45-.48-.13-.61-.13-1.25v-3.58h-.77v-.82h.77v-1.54l1.05-.63v2.17h1.06v.82h-1.06v3.64c0,.3,.02,.49,.06,.58s.1,.15,.18,.21,.2,.08,.36,.08c.12,0,.27-.01,.46-.04Z" style="fill:#0333ff;"/><path d="M863.62,128.69v-1.21h1.05v1.21h-1.05Zm0,7.38v-6.22h1.05v6.22h-1.05Z" style="fill:#0333ff;"/><path d="M865.89,132.96c0-1.15,.32-2.01,.96-2.56,.54-.46,1.19-.69,1.96-.69,.86,0,1.55,.28,2.1,.84s.81,1.33,.81,2.32c0,.8-.12,1.43-.36,1.89s-.59,.82-1.05,1.07-.96,.38-1.5,.38c-.87,0-1.58-.28-2.11-.84s-.81-1.36-.81-2.41Zm1.08,0c0,.8,.17,1.39,.52,1.79s.79,.59,1.31,.59,.96-.2,1.31-.6,.52-1.01,.52-1.82c0-.77-.17-1.35-.52-1.75s-.78-.59-1.3-.59-.96,.2-1.31,.59-.52,.99-.52,1.79Z" style="fill:#0333ff;"/><path d="M872.96,136.07v-6.22h.95v.88c.46-.68,1.12-1.03,1.98-1.03,.38,0,.72,.07,1.03,.2s.55,.31,.71,.53,.27,.48,.33,.78c.04,.2,.06,.54,.06,1.03v3.83h-1.05v-3.79c0-.43-.04-.75-.12-.96s-.23-.38-.44-.51-.45-.19-.74-.19c-.45,0-.84,.14-1.16,.43s-.49,.83-.49,1.62v3.4h-1.05Z" style="fill:#0333ff;"/><path d="M879.21,134.21l1.04-.16c.06,.42,.22,.74,.49,.96s.64,.33,1.12,.33,.84-.1,1.08-.3,.35-.43,.35-.69c0-.24-.1-.43-.31-.56-.14-.09-.5-.21-1.08-.36-.77-.2-1.31-.36-1.61-.51s-.53-.34-.68-.59-.23-.53-.23-.83c0-.28,.06-.53,.19-.77s.3-.43,.52-.59c.16-.12,.39-.22,.67-.31s.59-.13,.91-.13c.49,0,.92,.07,1.29,.21s.64,.33,.82,.57,.3,.56,.36,.96l-1.03,.14c-.05-.32-.18-.57-.41-.75s-.54-.27-.95-.27c-.48,0-.83,.08-1.04,.24s-.31,.35-.31,.56c0,.14,.04,.26,.13,.37,.09,.11,.22,.21,.4,.28,.11,.04,.42,.13,.93,.27,.75,.2,1.27,.36,1.56,.49s.53,.31,.69,.55,.25,.54,.25,.9-.1,.68-.31,.99-.5,.55-.89,.72-.82,.25-1.31,.25c-.81,0-1.42-.17-1.85-.5s-.69-.83-.81-1.49Z" style="fill:#0333ff;"/><path d="M889.89,134.07l1.09,.13c-.17,.64-.49,1.13-.96,1.48s-1.06,.53-1.78,.53c-.91,0-1.63-.28-2.17-.84s-.8-1.35-.8-2.36,.27-1.86,.81-2.44,1.24-.87,2.1-.87,1.51,.28,2.04,.85,.79,1.36,.79,2.39c0,.06,0,.16,0,.28h-4.64c.04,.68,.23,1.21,.58,1.57s.78,.54,1.3,.54c.39,0,.72-.1,.99-.3s.49-.53,.65-.97Zm-3.46-1.71h3.47c-.05-.52-.18-.92-.4-1.18-.34-.41-.77-.61-1.31-.61-.48,0-.89,.16-1.22,.49s-.51,.76-.55,1.3Z" style="fill:#0333ff;"/><path d="M892.31,128.69v-1.21h1.05v1.21h-1.05Zm0,7.38v-6.22h1.05v6.22h-1.05Z" style="fill:#0333ff;"/><path d="M894.97,136.07v-6.22h.95v.88c.46-.68,1.12-1.03,1.98-1.03,.38,0,.72,.07,1.03,.2s.55,.31,.71,.53,.27,.48,.33,.78c.04,.2,.06,.54,.06,1.03v3.83h-1.05v-3.79c0-.43-.04-.75-.12-.96s-.23-.38-.44-.51-.45-.19-.74-.19c-.45,0-.84,.14-1.16,.43s-.49,.83-.49,1.62v3.4h-1.05Z" style="fill:#0333ff;"/><path d="M901.64,136.07v-8.59h1.05v3.08c.49-.57,1.11-.86,1.86-.86,.46,0,.86,.09,1.2,.27s.58,.43,.73,.75,.22,.79,.22,1.39v3.94h-1.05v-3.94c0-.53-.11-.91-.34-1.15s-.55-.36-.97-.36c-.31,0-.61,.08-.88,.24s-.47,.38-.59,.66-.18,.66-.18,1.15v3.4h-1.05Z" style="fill:#0333ff;"/><path d="M912.58,134.07l1.09,.13c-.17,.64-.49,1.13-.96,1.48s-1.06,.53-1.78,.53c-.91,0-1.63-.28-2.17-.84s-.8-1.35-.8-2.36,.27-1.86,.81-2.44,1.24-.87,2.1-.87,1.51,.28,2.04,.85,.79,1.36,.79,2.39c0,.06,0,.16,0,.28h-4.64c.04,.68,.23,1.21,.58,1.57s.78,.54,1.3,.54c.39,0,.72-.1,.99-.3s.49-.53,.65-.97Zm-3.46-1.71h3.47c-.05-.52-.18-.92-.4-1.18-.34-.41-.77-.61-1.31-.61-.48,0-.89,.16-1.22,.49s-.51,.76-.55,1.3Z" style="fill:#0333ff;"/><path d="M915,128.69v-1.21h1.05v1.21h-1.05Zm0,7.38v-6.22h1.05v6.22h-1.05Z" style="fill:#0333ff;"/><path d="M919.96,135.13l.15,.93c-.3,.06-.56,.09-.8,.09-.38,0-.68-.06-.89-.18s-.36-.28-.45-.48-.13-.61-.13-1.25v-3.58h-.77v-.82h.77v-1.54l1.05-.63v2.17h1.06v.82h-1.06v3.64c0,.3,.02,.49,.06,.58s.1,.15,.18,.21,.2,.08,.36,.08c.12,0,.27-.01,.46-.04Z" style="fill:#0333ff;"/></g><g><g><path d="M684.07,138.63l-3.88-10.02h1.44l2.6,7.28c.21,.58,.38,1.13,.53,1.64,.16-.55,.33-1.09,.54-1.64l2.71-7.28h1.35l-3.92,10.02h-1.36Z"/><path d="M695.3,136.29l1.27,.16c-.2,.74-.57,1.32-1.11,1.73s-1.24,.62-2.08,.62c-1.06,0-1.9-.33-2.53-.98-.62-.65-.93-1.57-.93-2.75s.31-2.17,.94-2.84,1.44-1.01,2.45-1.01,1.76,.33,2.38,.99,.92,1.59,.92,2.79c0,.07,0,.18,0,.33h-5.41c.05,.8,.27,1.41,.68,1.83s.91,.64,1.52,.64c.45,0,.84-.12,1.16-.36s.57-.62,.76-1.13Zm-4.04-1.99h4.05c-.05-.61-.21-1.07-.46-1.37-.39-.47-.9-.71-1.52-.71-.57,0-1.04,.19-1.42,.57-.39,.38-.6,.88-.64,1.52Z"/><path d="M698.11,138.63v-7.26h1.11v1.1c.28-.52,.54-.85,.78-1.02,.24-.16,.5-.25,.79-.25,.42,0,.84,.13,1.26,.4l-.42,1.14c-.3-.18-.6-.27-.9-.27-.27,0-.51,.08-.72,.24s-.37,.39-.46,.67c-.14,.44-.21,.92-.21,1.44v3.8h-1.23Z"/><path d="M705.48,137.53l.18,1.09c-.35,.07-.66,.11-.93,.11-.45,0-.79-.07-1.04-.21s-.42-.33-.52-.56-.15-.71-.15-1.45v-4.18h-.9v-.96h.9v-1.8l1.22-.74v2.54h1.24v.96h-1.24v4.25c0,.35,.02,.58,.07,.68,.04,.1,.11,.18,.21,.24,.1,.06,.24,.09,.42,.09,.14,0,.32-.02,.54-.05Z"/><path d="M706.62,138.63v-7.26h1.11v1.1c.28-.52,.54-.85,.78-1.02,.24-.16,.5-.25,.79-.25,.42,0,.84,.13,1.26,.4l-.42,1.14c-.3-.18-.6-.27-.9-.27-.27,0-.51,.08-.72,.24s-.37,.39-.46,.67c-.14,.44-.21,.92-.21,1.44v3.8h-1.23Z"/><path d="M711.31,130.02v-1.42h1.23v1.42h-1.23Zm0,8.61v-7.26h1.23v7.26h-1.23Z"/><path d="M719.37,136.29l1.27,.16c-.2,.74-.57,1.32-1.11,1.73s-1.24,.62-2.08,.62c-1.06,0-1.9-.33-2.53-.98-.62-.65-.93-1.57-.93-2.75s.31-2.17,.94-2.84,1.44-1.01,2.45-1.01,1.76,.33,2.38,.99,.92,1.59,.92,2.79c0,.07,0,.18,0,.33h-5.41c.05,.8,.27,1.41,.68,1.83s.91,.64,1.52,.64c.45,0,.84-.12,1.16-.36s.57-.62,.76-1.13Zm-4.04-1.99h4.05c-.05-.61-.21-1.07-.46-1.37-.39-.47-.9-.71-1.52-.71-.57,0-1.04,.19-1.42,.57-.39,.38-.6,.88-.64,1.52Z"/><path d="M723.33,138.63h-1.14v-10.02h1.23v3.58c.52-.65,1.18-.98,1.99-.98,.45,0,.87,.09,1.27,.27,.4,.18,.73,.43,.98,.76,.26,.33,.46,.72,.6,1.18s.22,.95,.22,1.48c0,1.24-.31,2.21-.92,2.88s-1.35,1.02-2.21,1.02-1.53-.36-2.02-1.07v.91Zm-.01-3.68c0,.87,.12,1.5,.36,1.89,.39,.63,.91,.95,1.57,.95,.54,0,1-.23,1.39-.7s.59-1.16,.59-2.09-.19-1.65-.56-2.1c-.38-.45-.83-.68-1.36-.68s-1,.23-1.39,.7-.59,1.14-.59,2.03Z"/></g><g><ellipse cx="704.59" cy="133.95" rx="69.84" ry="38.16" style="fill:none; stroke:#000; stroke-miterlimit:8;"/><line x1="654.91" y1="106.59" x2="654.91" y2="160.56" style="fill:none; stroke:#000; stroke-miterlimit:8;"/></g></g><g><g><path d="M679.58,228.29l1.25-.11c.06,.5,.2,.91,.41,1.23,.22,.32,.55,.58,1.01,.78s.97,.3,1.54,.3c.51,0,.95-.08,1.34-.23s.68-.36,.87-.62c.19-.26,.28-.55,.28-.86s-.09-.59-.27-.82-.48-.43-.9-.59c-.27-.1-.86-.27-1.78-.49s-1.57-.43-1.93-.63c-.48-.25-.83-.56-1.07-.93-.23-.37-.35-.79-.35-1.25,0-.51,.14-.98,.43-1.42s.71-.77,1.26-1,1.16-.34,1.84-.34c.74,0,1.4,.12,1.96,.36,.57,.24,1,.59,1.31,1.06s.47,.99,.49,1.58l-1.27,.1c-.07-.63-.3-1.11-.69-1.44-.39-.32-.98-.49-1.75-.49s-1.39,.15-1.75,.44c-.37,.29-.55,.65-.55,1.06,0,.36,.13,.66,.39,.89,.25,.23,.92,.47,2,.71,1.08,.24,1.82,.46,2.22,.64,.58,.27,1.01,.61,1.29,1.02s.42,.89,.42,1.43-.15,1.04-.46,1.51-.74,.84-1.32,1.1c-.57,.26-1.21,.39-1.93,.39-.91,0-1.67-.13-2.28-.4-.61-.26-1.09-.66-1.44-1.19-.35-.53-.53-1.13-.55-1.8Z"/><path d="M688.24,231.51l3.85-10.02h1.43l4.1,10.02h-1.51l-1.17-3.04h-4.19l-1.1,3.04h-1.41Zm2.89-4.12h3.4l-1.05-2.78c-.32-.84-.56-1.54-.71-2.08-.13,.64-.31,1.28-.54,1.91l-1.1,2.94Z"/><path d="M698.68,231.51v-10.02h3.78c.67,0,1.17,.03,1.52,.1,.49,.08,.9,.24,1.24,.47s.6,.55,.8,.97c.2,.41,.3,.87,.3,1.37,0,.85-.27,1.57-.81,2.16s-1.52,.89-2.94,.89h-2.57v4.07h-1.33Zm1.33-5.26h2.59c.86,0,1.46-.16,1.83-.48s.54-.77,.54-1.35c0-.42-.11-.78-.32-1.08-.21-.3-.49-.5-.84-.59-.22-.06-.64-.09-1.24-.09h-2.56v3.58Z"/><path d="M711.44,228.29l1.25-.11c.06,.5,.2,.91,.41,1.23,.22,.32,.55,.58,1.01,.78s.97,.3,1.54,.3c.51,0,.95-.08,1.34-.23s.68-.36,.87-.62c.19-.26,.28-.55,.28-.86s-.09-.59-.27-.82-.48-.43-.9-.59c-.27-.1-.86-.27-1.78-.49s-1.57-.43-1.93-.63c-.48-.25-.83-.56-1.07-.93-.23-.37-.35-.79-.35-1.25,0-.51,.14-.98,.43-1.42s.71-.77,1.26-1,1.16-.34,1.84-.34c.74,0,1.4,.12,1.96,.36,.57,.24,1,.59,1.31,1.06s.47,.99,.49,1.58l-1.27,.1c-.07-.63-.3-1.11-.69-1.44-.39-.32-.98-.49-1.75-.49s-1.39,.15-1.75,.44c-.37,.29-.55,.65-.55,1.06,0,.36,.13,.66,.39,.89,.25,.23,.92,.47,2,.71,1.08,.24,1.82,.46,2.22,.64,.58,.27,1.01,.61,1.29,1.02s.42,.89,.42,1.43-.15,1.04-.46,1.51-.74,.84-1.32,1.1c-.57,.26-1.21,.39-1.93,.39-.91,0-1.67-.13-2.28-.4-.61-.26-1.09-.66-1.44-1.19-.35-.53-.53-1.13-.55-1.8Z"/><path d="M721.2,231.51v-10.02h3.45c.78,0,1.37,.05,1.78,.14,.57,.13,1.06,.37,1.47,.72,.53,.45,.92,1.02,1.19,1.71,.26,.69,.39,1.49,.39,2.38,0,.76-.09,1.44-.27,2.02s-.41,1.07-.68,1.46-.58,.69-.91,.91c-.33,.22-.73,.39-1.2,.5-.47,.11-1,.17-1.61,.17h-3.62Zm1.33-1.18h2.14c.66,0,1.18-.06,1.56-.18,.38-.12,.67-.3,.9-.52,.31-.31,.56-.74,.73-1.27,.18-.53,.26-1.17,.26-1.93,0-1.05-.17-1.85-.52-2.42-.34-.56-.76-.94-1.25-1.13-.36-.14-.93-.21-1.72-.21h-2.11v7.66Z"/></g><g><rect x="634.75" y="197.31" width="139.68" height="57.6" style="fill:none; stroke:#000; stroke-miterlimit:8;"/><line x1="764.35" y1="197.31" x2="764.35" y2="254.66" style="fill:none; stroke:#000; stroke-miterlimit:8;"/><line x1="754.27" y1="197.31" x2="754.27" y2="254.66" style="fill:none; stroke:#000; stroke-miterlimit:8;"/><line x1="644.83" y1="197.31" x2="644.83" y2="254.66" style="fill:none; stroke:#000; stroke-miterlimit:8;"/><line x1="654.91" y1="197.31" x2="654.91" y2="254.66" style="fill:none; stroke:#000; stroke-miterlimit:8;"/></g></g><g><path d="M226.53,102.27h126.72v50.23c-63.36,0-63.36,19.14-126.72,8.26v-58.5Z" style="fill:none; stroke:#000; stroke-miterlimit:8;"/><g><path d="M258.24,132.87v-10.02h3.76c.77,0,1.38,.1,1.84,.3,.46,.2,.83,.52,1.09,.94,.26,.42,.39,.86,.39,1.32,0,.43-.12,.83-.35,1.21s-.58,.68-1.05,.92c.61,.18,1.07,.48,1.4,.91,.33,.43,.49,.93,.49,1.52,0,.47-.1,.91-.3,1.31-.2,.4-.44,.71-.73,.93s-.66,.38-1.1,.5c-.44,.11-.98,.17-1.62,.17h-3.82Zm1.33-5.81h2.17c.59,0,1.01-.04,1.26-.12,.34-.1,.59-.27,.76-.5,.17-.23,.26-.52,.26-.88,0-.33-.08-.63-.24-.88s-.39-.43-.68-.52-.8-.14-1.52-.14h-2v3.03Zm0,4.63h2.5c.43,0,.73-.02,.9-.05,.31-.05,.56-.15,.77-.27s.37-.31,.51-.56,.2-.53,.2-.84c0-.37-.1-.7-.29-.97s-.46-.47-.8-.58c-.34-.11-.83-.17-1.47-.17h-2.32v3.45Z"/><path d="M272.38,130.53l1.27,.16c-.2,.74-.57,1.32-1.11,1.73s-1.24,.62-2.08,.62c-1.06,0-1.9-.33-2.53-.98-.62-.65-.93-1.57-.93-2.75s.31-2.17,.94-2.84,1.44-1.01,2.45-1.01,1.76,.33,2.38,.99,.92,1.59,.92,2.79c0,.07,0,.18,0,.33h-5.41c.05,.8,.27,1.41,.68,1.83s.91,.64,1.52,.64c.45,0,.84-.12,1.16-.36s.57-.62,.76-1.13Zm-4.04-1.99h4.05c-.05-.61-.21-1.07-.46-1.37-.39-.47-.9-.71-1.52-.71-.57,0-1.04,.19-1.42,.57-.39,.38-.6,.88-.64,1.52Z"/><path d="M274.72,130.7l1.22-.19c.07,.49,.26,.86,.57,1.12,.31,.26,.75,.39,1.31,.39s.98-.12,1.26-.35,.41-.5,.41-.81c0-.28-.12-.5-.36-.66-.17-.11-.59-.25-1.26-.42-.9-.23-1.53-.42-1.88-.59-.35-.17-.61-.4-.79-.69-.18-.29-.27-.62-.27-.97,0-.32,.07-.62,.22-.9,.15-.28,.35-.5,.61-.69,.19-.14,.45-.26,.78-.36,.33-.1,.68-.15,1.06-.15,.57,0,1.07,.08,1.5,.25,.43,.16,.75,.39,.95,.67s.35,.66,.42,1.12l-1.2,.16c-.05-.37-.21-.67-.48-.88-.26-.21-.63-.31-1.11-.31-.57,0-.97,.09-1.21,.28s-.36,.41-.36,.66c0,.16,.05,.3,.15,.43,.1,.13,.26,.24,.47,.33,.12,.05,.49,.15,1.09,.31,.87,.23,1.48,.42,1.82,.57,.34,.15,.61,.36,.81,.65s.29,.63,.29,1.05-.12,.8-.36,1.16c-.24,.36-.58,.64-1.04,.84s-.96,.3-1.53,.3c-.94,0-1.66-.2-2.16-.59-.49-.39-.81-.97-.95-1.74Z"/><path d="M284.9,131.77l.18,1.09c-.35,.07-.66,.11-.93,.11-.45,0-.79-.07-1.04-.21s-.42-.33-.52-.56-.15-.71-.15-1.45v-4.18h-.9v-.96h.9v-1.8l1.22-.74v2.54h1.24v.96h-1.24v4.25c0,.35,.02,.58,.07,.68,.04,.1,.11,.18,.21,.24,.1,.06,.24,.09,.42,.09,.14,0,.32-.02,.54-.05Z"/><path d="M291.03,130.53l1.27,.16c-.2,.74-.57,1.32-1.11,1.73s-1.24,.62-2.08,.62c-1.06,0-1.9-.33-2.53-.98-.62-.65-.93-1.57-.93-2.75s.31-2.17,.94-2.84,1.44-1.01,2.45-1.01,1.76,.33,2.38,.99,.92,1.59,.92,2.79c0,.07,0,.18,0,.33h-5.41c.05,.8,.27,1.41,.68,1.83s.91,.64,1.52,.64c.45,0,.84-.12,1.16-.36s.57-.62,.76-1.13Zm-4.04-1.99h4.05c-.05-.61-.21-1.07-.46-1.37-.39-.47-.9-.71-1.52-.71-.57,0-1.04,.19-1.42,.57-.39,.38-.6,.88-.64,1.52Z"/><path d="M293.83,132.87v-10.02h1.23v10.02h-1.23Z"/><path d="M296.93,132.87v-10.02h1.23v10.02h-1.23Z"/><path d="M304.81,132.87v-1.07c-.57,.82-1.33,1.23-2.3,1.23-.43,0-.83-.08-1.2-.25-.37-.16-.65-.37-.83-.62-.18-.25-.31-.55-.38-.91-.05-.24-.08-.62-.08-1.15v-4.5h1.23v4.03c0,.64,.03,1.08,.08,1.3,.08,.32,.24,.58,.49,.76s.56,.28,.93,.28,.72-.09,1.04-.28,.55-.45,.69-.77c.13-.33,.2-.8,.2-1.42v-3.89h1.23v7.26h-1.1Z"/><path d="M307.9,132.87v-7.26h1.11v1.03c.53-.8,1.3-1.2,2.31-1.2,.44,0,.84,.08,1.21,.24,.37,.16,.64,.36,.82,.62s.31,.56,.38,.91c.05,.23,.07,.63,.07,1.2v4.46h-1.23v-4.42c0-.5-.05-.88-.14-1.12s-.27-.45-.51-.59c-.24-.15-.53-.22-.86-.22-.52,0-.98,.17-1.36,.5-.38,.33-.57,.96-.57,1.89v3.96h-1.23Z"/><path d="M315.49,133.47l1.2,.18c.05,.37,.19,.64,.42,.81,.31,.23,.72,.34,1.25,.34,.57,0,1.01-.11,1.32-.34s.52-.55,.63-.96c.06-.25,.09-.78,.09-1.58-.54,.63-1.21,.95-2.01,.95-1,0-1.77-.36-2.32-1.08s-.82-1.58-.82-2.59c0-.69,.12-1.33,.38-1.92s.61-1.04,1.09-1.36c.48-.32,1.04-.48,1.68-.48,.86,0,1.56,.35,2.12,1.04v-.88h1.13v6.28c0,1.13-.12,1.93-.35,2.4-.23,.47-.59,.84-1.09,1.12-.5,.27-1.11,.41-1.84,.41-.87,0-1.57-.19-2.1-.58s-.79-.98-.77-1.76Zm1.02-4.36c0,.95,.19,1.65,.57,2.08s.85,.66,1.42,.66,1.04-.22,1.42-.65,.57-1.12,.57-2.05-.2-1.56-.59-2.01c-.39-.45-.87-.68-1.42-.68s-1.01,.22-1.39,.67-.57,1.1-.57,1.98Z"/></g><path d="M226.53,200.91h126.72v50.81c-63.36,0-63.36,19.36-126.72,8.36v-59.17Z" style="fill:none; stroke:#000; stroke-miterlimit:8;"/><g><path d="M264.41,224.31v-10.02h1.33v4.97l4.98-4.97h1.8l-4.2,4.06,4.39,5.96h-1.75l-3.57-5.07-1.64,1.6v3.47h-1.33Z"/><path d="M278.36,224.31v-1.07c-.57,.82-1.33,1.23-2.3,1.23-.43,0-.83-.08-1.2-.25-.37-.16-.65-.37-.83-.62-.18-.25-.31-.55-.38-.91-.05-.24-.08-.62-.08-1.15v-4.5h1.23v4.03c0,.64,.03,1.08,.08,1.3,.08,.32,.24,.58,.49,.76s.56,.28,.93,.28,.72-.09,1.04-.28,.55-.45,.69-.77c.13-.33,.2-.8,.2-1.42v-3.89h1.23v7.26h-1.1Z"/><path d="M281.45,224.31v-7.26h1.11v1.03c.53-.8,1.3-1.2,2.31-1.2,.44,0,.84,.08,1.21,.24,.37,.16,.64,.36,.82,.62s.31,.56,.38,.91c.05,.23,.07,.63,.07,1.2v4.46h-1.23v-4.42c0-.5-.05-.88-.14-1.12s-.27-.45-.51-.59c-.24-.15-.53-.22-.86-.22-.52,0-.98,.17-1.36,.5-.38,.33-.57,.96-.57,1.89v3.96h-1.23Z"/><path d="M293.97,224.31v-.92c-.46,.72-1.14,1.08-2.03,1.08-.58,0-1.11-.16-1.6-.48-.48-.32-.86-.76-1.13-1.34-.27-.57-.4-1.23-.4-1.97s.12-1.38,.36-1.97,.6-1.04,1.09-1.36,1.02-.47,1.62-.47c.44,0,.83,.09,1.17,.28s.62,.42,.83,.72v-3.6h1.22v10.02h-1.14Zm-3.89-3.62c0,.93,.2,1.62,.59,2.08s.85,.69,1.39,.69,.99-.22,1.37-.66c.38-.44,.56-1.11,.56-2.01,0-.99-.19-1.72-.57-2.19s-.85-.7-1.42-.7-1,.22-1.37,.67c-.37,.45-.55,1.15-.55,2.11Z"/><path d="M302.04,221.97l1.27,.16c-.2,.74-.57,1.32-1.11,1.73s-1.24,.62-2.08,.62c-1.06,0-1.9-.33-2.53-.98-.62-.65-.93-1.57-.93-2.75s.31-2.17,.94-2.84,1.44-1.01,2.45-1.01,1.76,.33,2.38,.99,.92,1.59,.92,2.79c0,.07,0,.18,0,.33h-5.41c.05,.8,.27,1.41,.68,1.83s.91,.64,1.52,.64c.45,0,.84-.12,1.16-.36s.57-.62,.76-1.13Zm-4.04-1.99h4.05c-.05-.61-.21-1.07-.46-1.37-.39-.47-.9-.71-1.52-.71-.57,0-1.04,.19-1.42,.57-.39,.38-.6,.88-.64,1.52Z"/><path d="M304.87,224.31v-7.26h1.11v1.03c.53-.8,1.3-1.2,2.31-1.2,.44,0,.84,.08,1.21,.24,.37,.16,.64,.36,.82,.62s.31,.56,.38,.91c.05,.23,.07,.63,.07,1.2v4.46h-1.23v-4.42c0-.5-.05-.88-.14-1.12s-.27-.45-.51-.59c-.24-.15-.53-.22-.86-.22-.52,0-.98,.17-1.36,.5-.38,.33-.57,.96-.57,1.89v3.96h-1.23Z"/><path d="M312.18,221.3v-1.24h3.78v1.24h-3.78Z"/><path d="M267.3,241.11l3.85-10.02h1.43l4.1,10.02h-1.51l-1.17-3.04h-4.19l-1.1,3.04h-1.41Zm2.89-4.12h3.4l-1.05-2.78c-.32-.84-.56-1.54-.71-2.08-.13,.64-.31,1.28-.54,1.91l-1.1,2.94Z"/><path d="M282.34,241.11v-1.07c-.57,.82-1.33,1.23-2.3,1.23-.43,0-.83-.08-1.2-.25-.37-.16-.65-.37-.83-.62-.18-.25-.31-.55-.38-.91-.05-.24-.08-.62-.08-1.15v-4.5h1.23v4.03c0,.64,.03,1.08,.08,1.3,.08,.32,.24,.58,.49,.76s.56,.28,.93,.28,.72-.09,1.04-.28,.55-.45,.69-.77c.13-.33,.2-.8,.2-1.42v-3.89h1.23v7.26h-1.1Z"/><path d="M285.66,241.11v-6.3h-1.09v-.96h1.09v-.77c0-.49,.04-.85,.13-1.09,.12-.32,.33-.58,.63-.78,.3-.2,.72-.3,1.25-.3,.35,0,.73,.04,1.15,.12l-.18,1.07c-.25-.05-.5-.07-.72-.07-.37,0-.64,.08-.79,.24s-.23,.46-.23,.9v.67h1.42v.96h-1.42v6.3h-1.22Z"/><path d="M291.95,240.01l.18,1.09c-.35,.07-.66,.11-.93,.11-.45,0-.79-.07-1.04-.21s-.42-.33-.52-.56-.15-.71-.15-1.45v-4.18h-.9v-.96h.9v-1.8l1.22-.74v2.54h1.24v.96h-1.24v4.25c0,.35,.02,.58,.07,.68,.04,.1,.11,.18,.21,.24,.1,.06,.24,.09,.42,.09,.14,0,.32-.02,.54-.05Z"/><path d="M293.14,241.11v-7.26h1.11v1.1c.28-.52,.54-.85,.78-1.02,.24-.16,.5-.25,.79-.25,.42,0,.84,.13,1.26,.4l-.42,1.14c-.3-.18-.6-.27-.9-.27-.27,0-.51,.08-.72,.24s-.37,.39-.46,.67c-.14,.44-.21,.92-.21,1.44v3.8h-1.23Z"/><path d="M302.55,240.21c-.46,.39-.89,.66-1.32,.82-.42,.16-.87,.24-1.36,.24-.8,0-1.41-.19-1.84-.58s-.64-.89-.64-1.49c0-.36,.08-.68,.24-.97,.16-.29,.37-.53,.64-.71,.26-.18,.56-.31,.88-.4,.24-.06,.61-.13,1.09-.18,.99-.12,1.72-.26,2.19-.42,0-.17,0-.28,0-.32,0-.5-.12-.85-.35-1.06-.31-.28-.78-.42-1.4-.42-.58,0-1.01,.1-1.28,.3-.28,.2-.48,.56-.61,1.08l-1.2-.16c.11-.52,.29-.93,.54-1.25s.61-.56,1.09-.73,1.02-.26,1.65-.26,1.12,.07,1.51,.22,.67,.33,.85,.55,.31,.5,.38,.84c.04,.21,.06,.59,.06,1.13v1.64c0,1.14,.03,1.87,.08,2.17,.05,.3,.16,.59,.31,.87h-1.29c-.13-.26-.21-.55-.25-.9Zm-.1-2.75c-.45,.18-1.12,.34-2.01,.46-.51,.07-.86,.15-1.07,.25s-.37,.22-.49,.4-.17,.37-.17,.58c0,.33,.12,.6,.37,.82,.25,.22,.61,.33,1.09,.33s.9-.1,1.26-.31,.64-.49,.81-.85c.13-.28,.2-.69,.2-1.23v-.45Z"/><path d="M305.37,241.71l1.2,.18c.05,.37,.19,.64,.42,.81,.31,.23,.72,.34,1.25,.34,.57,0,1.01-.11,1.32-.34s.52-.55,.63-.96c.06-.25,.09-.78,.09-1.58-.54,.63-1.21,.95-2.01,.95-1,0-1.77-.36-2.32-1.08s-.82-1.58-.82-2.59c0-.69,.12-1.33,.38-1.92s.61-1.04,1.09-1.36c.48-.32,1.04-.48,1.68-.48,.86,0,1.56,.35,2.12,1.04v-.88h1.13v6.28c0,1.13-.12,1.93-.35,2.4-.23,.47-.59,.84-1.09,1.12-.5,.27-1.11,.41-1.84,.41-.87,0-1.57-.19-2.1-.58s-.79-.98-.77-1.76Zm1.02-4.36c0,.95,.19,1.65,.57,2.08s.85,.66,1.42,.66,1.04-.22,1.42-.65,.57-1.12,.57-2.05-.2-1.56-.59-2.01c-.39-.45-.87-.68-1.42-.68s-1.01,.22-1.39,.67-.57,1.1-.57,1.98Z"/></g></g><g><polyline points="353.25 130.45 378.97 130.45 378.97 164.11 397.87 164.11" style="fill:none; stroke:#000; stroke-miterlimit:8;"/><polygon points="396.77 167.85 403.25 164.11 396.77 160.37 396.77 167.85"/></g><g><polyline points="403.25 195.75 377.53 195.75 377.53 229.42 358.63 229.42" style="fill:none; stroke:#000; stroke-miterlimit:8;"/><polygon points="359.73 225.68 353.25 229.42 359.73 233.16 359.73 225.68"/></g><polyline points="584.75 179.63 609.75 179.63 609.75 133.58 634.75 133.58" style="fill:none; stroke:#000; stroke-miterlimit:8;"/><polyline points="609.75 179.68 609.75 225.73 634.75 225.73" style="fill:none; stroke:#000; stroke-miterlimit:8;"/><g><path d="M378.25,229.75c5.53,12.61,9.22,26.05,10.85,39.91" style="fill:none; stroke:#0333ff; stroke-dasharray:0 0 3 3; stroke-miterlimit:8; stroke-width:.5px;"/><polygon points="386.51 269.21 389.47 273.23 391.47 268.66 386.51 269.21" style="fill:#0333ff;"/></g></svg>