<?xml version="1.0" encoding="UTF-8"?>
<svg id="Ebene_1" data-name="Ebene 1" xmlns="http://www.w3.org/2000/svg" viewBox="0 0 988 525">
  <defs>
    <style>
      .cls-1 {
        letter-spacing: .03em;
      }

      .cls-2 {
        font-family: ArialMT, Arial;
        font-size: 18px;
      }

      .cls-3 {
        letter-spacing: 0em;
      }

      .cls-4 {
        letter-spacing: 0em;
      }

      .cls-5 {
        letter-spacing: 0em;
      }

      .cls-6 {
        letter-spacing: 0em;
      }

      .cls-7 {
        fill: #fff;
      }

      .cls-7, .cls-8 {
        stroke: #1d1d1b;
        stroke-miterlimit: 10;
        stroke-width: 2px;
      }

      .cls-9 {
        letter-spacing: 0em;
      }

      .cls-10 {
        letter-spacing: 0em;
      }

      .cls-11 {
        letter-spacing: 0em;
      }

      .cls-12 {
        letter-spacing: 0em;
      }

      .cls-13 {
        letter-spacing: 0em;
      }

      .cls-8 {
        fill: none;
      }

      .cls-14 {
        letter-spacing: 0em;
      }

      .cls-15 {
        letter-spacing: 0em;
      }

      .cls-16 {
        letter-spacing: -.02em;
      }

      .cls-17 {
        letter-spacing: 0em;
      }

      .cls-18 {
        letter-spacing: 0em;
      }

      .cls-19, .cls-20 {
        stroke-width: 0px;
      }

      .cls-21 {
        letter-spacing: 0em;
      }

      .cls-22 {
        letter-spacing: 0em;
      }

      .cls-20 {
        fill: #1d1d1b;
      }

      .cls-23 {
        letter-spacing: .02em;
      }

      .cls-24 {
        letter-spacing: 0em;
      }
    </style>
  </defs>
  <g>
    <rect class="cls-7" x="69" y="137.5" width="175" height="75"/>
    <g>
      <path class="cls-19" d="m79.82,170.53v-12.88h4.44c1,0,1.77.06,2.29.18.74.17,1.37.48,1.89.92.68.57,1.19,1.31,1.53,2.2s.51,1.91.51,3.06c0,.98-.12,1.85-.34,2.6s-.52,1.38-.88,1.88-.75.88-1.17,1.17-.94.5-1.54.65-1.29.22-2.07.22h-4.65Zm1.71-1.52h2.75c.85,0,1.52-.08,2-.24s.87-.38,1.16-.67c.4-.4.72-.95.94-1.63s.34-1.51.34-2.48c0-1.35-.22-2.38-.66-3.11s-.98-1.21-1.61-1.45c-.46-.18-1.19-.26-2.21-.26h-2.71v9.84Z"/>
      <path class="cls-19" d="m98.99,167.53l1.63.2c-.26.96-.74,1.7-1.43,2.22s-1.59.79-2.67.79c-1.37,0-2.45-.42-3.25-1.26-.8-.84-1.2-2.02-1.2-3.54s.4-2.79,1.21-3.66,1.86-1.3,3.15-1.3,2.27.42,3.06,1.27,1.19,2.04,1.19,3.59c0,.09,0,.23,0,.42h-6.96c.06,1.03.35,1.81.87,2.36s1.17.82,1.95.82c.58,0,1.08-.15,1.49-.46s.74-.79.98-1.46Zm-5.19-2.56h5.21c-.07-.79-.27-1.37-.6-1.77-.5-.61-1.16-.91-1.96-.91-.73,0-1.34.24-1.83.73-.49.49-.77,1.14-.82,1.95Z"/>
      <path class="cls-19" d="m102.71,170.53v-8.1h-1.4v-1.23h1.4v-.99c0-.63.06-1.09.17-1.4.15-.41.42-.74.8-1,.38-.25.92-.38,1.61-.38.45,0,.94.05,1.48.16l-.24,1.38c-.33-.06-.64-.09-.93-.09-.48,0-.82.1-1.02.31s-.3.59-.3,1.15v.86h1.82v1.23h-1.82v8.1h-1.57Z"/>
      <path class="cls-19" d="m107.67,159.47v-1.82h1.58v1.82h-1.58Zm0,11.07v-9.33h1.58v9.33h-1.58Z"/>
      <path class="cls-19" d="m111.51,170.53v-9.33h1.42v1.33c.69-1.03,1.68-1.54,2.97-1.54.56,0,1.08.1,1.55.3s.83.47,1.06.8.4.72.49,1.17c.06.29.09.81.09,1.54v5.74h-1.58v-5.68c0-.64-.06-1.13-.19-1.45s-.34-.57-.65-.76-.68-.29-1.1-.29c-.67,0-1.25.21-1.74.64s-.73,1.24-.73,2.43v5.1h-1.58Z"/>
      <path class="cls-19" d="m127.79,167.53l1.63.2c-.26.96-.74,1.7-1.43,2.22s-1.59.79-2.67.79c-1.37,0-2.45-.42-3.25-1.26s-1.2-2.02-1.2-3.54.4-2.79,1.21-3.66,1.86-1.3,3.15-1.3,2.27.42,3.06,1.27,1.19,2.04,1.19,3.59c0,.09,0,.23,0,.42h-6.96c.06,1.03.35,1.81.87,2.36s1.17.82,1.95.82c.58,0,1.07-.15,1.48-.46s.74-.79.98-1.46Zm-5.2-2.56h5.21c-.07-.79-.27-1.37-.6-1.77-.5-.61-1.16-.91-1.96-.91-.73,0-1.34.24-1.83.73s-.77,1.14-.82,1.95Z"/>
      <path class="cls-19" d="m139.9,169.12l.23,1.4c-.45.09-.84.14-1.2.14-.57,0-1.02-.09-1.34-.27s-.54-.42-.67-.72-.19-.92-.19-1.87v-5.37h-1.16v-1.23h1.16v-2.31l1.57-.95v3.26h1.59v1.23h-1.59v5.46c0,.45.03.74.08.87s.15.23.27.31.31.11.54.11c.18,0,.41-.02.69-.06Z"/>
      <path class="cls-19" d="m141.41,170.53v-12.88h1.58v4.62c.74-.86,1.67-1.28,2.79-1.28.69,0,1.29.14,1.8.41s.87.65,1.09,1.13c.22.48.33,1.18.33,2.09v5.92h-1.58v-5.92c0-.79-.17-1.37-.51-1.73-.34-.36-.83-.54-1.45-.54-.47,0-.91.12-1.32.36-.41.24-.71.57-.88.99s-.26.99-.26,1.72v5.11h-1.58Z"/>
      <path class="cls-19" d="m157.69,167.53l1.63.2c-.26.96-.74,1.7-1.43,2.22s-1.59.79-2.67.79c-1.37,0-2.45-.42-3.25-1.26-.8-.84-1.2-2.02-1.2-3.54s.4-2.79,1.21-3.66,1.86-1.3,3.15-1.3,2.27.42,3.06,1.27,1.19,2.04,1.19,3.59c0,.09,0,.23,0,.42h-6.96c.06,1.03.35,1.81.87,2.36s1.17.82,1.95.82c.58,0,1.08-.15,1.49-.46s.74-.79.98-1.46Zm-5.19-2.56h5.21c-.07-.79-.27-1.37-.6-1.77-.5-.61-1.16-.91-1.96-.91-.73,0-1.34.24-1.83.73-.49.49-.77,1.14-.82,1.95Z"/>
      <path class="cls-19" d="m166.33,170.53v-9.33h1.42v1.42c.36-.66.7-1.1,1.01-1.31.31-.21.65-.32,1.02-.32.53,0,1.08.17,1.63.51l-.54,1.47c-.39-.23-.77-.34-1.16-.34-.35,0-.66.1-.93.31s-.47.5-.59.87c-.18.56-.26,1.18-.26,1.85v4.89h-1.58Z"/>
      <path class="cls-19" d="m178.6,167.53l1.63.2c-.26.96-.73,1.7-1.43,2.22s-1.59.79-2.67.79c-1.37,0-2.45-.42-3.25-1.26s-1.2-2.02-1.2-3.54.4-2.79,1.21-3.66,1.86-1.3,3.15-1.3,2.27.42,3.06,1.27,1.19,2.04,1.19,3.59c0,.09,0,.23,0,.42h-6.96c.06,1.03.35,1.81.87,2.36s1.17.82,1.95.82c.58,0,1.08-.15,1.49-.46s.73-.79.97-1.46Zm-5.19-2.56h5.21c-.07-.79-.27-1.37-.6-1.77-.5-.61-1.16-.91-1.96-.91-.73,0-1.34.24-1.83.73s-.77,1.14-.82,1.95Z"/>
      <path class="cls-19" d="m181.53,167.75l1.56-.25c.09.63.33,1.11.73,1.44s.96.5,1.68.5,1.27-.15,1.62-.44.53-.64.53-1.04c0-.36-.15-.64-.46-.84-.22-.14-.76-.32-1.62-.54-1.16-.29-1.96-.55-2.41-.76s-.79-.51-1.02-.89-.35-.8-.35-1.25c0-.42.09-.8.29-1.16s.45-.65.78-.88c.25-.18.58-.34,1.01-.46s.88-.19,1.37-.19c.73,0,1.38.11,1.93.32s.96.5,1.23.86.45.84.54,1.45l-1.55.21c-.07-.48-.27-.86-.61-1.12s-.81-.4-1.43-.4c-.73,0-1.25.12-1.56.36s-.46.52-.46.84c0,.21.06.39.19.55.13.17.33.31.61.42.16.06.62.19,1.4.4,1.12.3,1.9.54,2.34.73s.79.47,1.04.83.38.81.38,1.35-.15,1.02-.46,1.49-.75.83-1.33,1.08-1.24.38-1.97.38c-1.21,0-2.14-.25-2.77-.76s-1.04-1.25-1.22-2.24Z"/>
      <path class="cls-19" d="m197.44,167.53l1.63.2c-.26.96-.73,1.7-1.43,2.22s-1.59.79-2.67.79c-1.37,0-2.45-.42-3.25-1.26s-1.2-2.02-1.2-3.54.4-2.79,1.21-3.66,1.86-1.3,3.15-1.3,2.27.42,3.06,1.27,1.19,2.04,1.19,3.59c0,.09,0,.23,0,.42h-6.96c.06,1.03.35,1.81.87,2.36s1.17.82,1.95.82c.58,0,1.08-.15,1.49-.46s.73-.79.97-1.46Zm-5.19-2.56h5.21c-.07-.79-.27-1.37-.6-1.77-.5-.61-1.16-.91-1.96-.91-.73,0-1.34.24-1.83.73s-.77,1.14-.82,1.95Z"/>
      <path class="cls-19" d="m207.04,169.38c-.59.5-1.15.85-1.69,1.05s-1.12.31-1.75.31c-1.03,0-1.81-.25-2.36-.75s-.83-1.14-.83-1.92c0-.46.1-.87.31-1.25s.48-.68.82-.91.72-.4,1.14-.52c.31-.08.78-.16,1.41-.24,1.28-.15,2.22-.33,2.82-.54,0-.22,0-.35,0-.41,0-.64-.15-1.1-.45-1.36-.4-.36-1-.54-1.8-.54-.74,0-1.29.13-1.65.39s-.62.72-.79,1.38l-1.55-.21c.14-.66.37-1.2.7-1.6s.79-.72,1.4-.94,1.32-.33,2.12-.33,1.44.09,1.94.28.87.42,1.1.71.4.64.49,1.08c.05.27.08.76.08,1.46v2.11c0,1.47.03,2.4.1,2.79s.2.76.4,1.12h-1.65c-.16-.33-.27-.71-.32-1.15Zm-.13-3.53c-.57.23-1.44.43-2.58.6-.65.09-1.11.2-1.38.32s-.48.29-.62.51-.22.48-.22.75c0,.42.16.77.48,1.05s.79.42,1.4.42,1.15-.13,1.62-.4.82-.63,1.05-1.09c.17-.36.25-.88.25-1.58v-.58Z"/>
      <path class="cls-19" d="m210.79,170.53v-9.33h1.42v1.42c.36-.66.7-1.1,1.01-1.31.31-.21.65-.32,1.02-.32.53,0,1.08.17,1.63.51l-.54,1.47c-.39-.23-.77-.34-1.16-.34-.35,0-.66.1-.93.31s-.47.5-.59.87c-.18.56-.26,1.18-.26,1.85v4.89h-1.58Z"/>
      <path class="cls-19" d="m222.77,167.11l1.56.2c-.17,1.07-.61,1.91-1.31,2.52s-1.56.91-2.58.91c-1.28,0-2.3-.42-3.08-1.25s-1.17-2.03-1.17-3.59c0-1.01.17-1.89.5-2.65s.84-1.32,1.52-1.7,1.42-.57,2.23-.57c1.01,0,1.84.26,2.49.77s1.06,1.24,1.24,2.18l-1.54.24c-.15-.63-.41-1.1-.78-1.42s-.82-.47-1.35-.47c-.8,0-1.45.29-1.94.86s-.75,1.48-.75,2.71.24,2.17.72,2.73,1.11.85,1.88.85c.62,0,1.14-.19,1.55-.57s.68-.97.79-1.76Z"/>
      <path class="cls-19" d="m225.73,170.53v-12.88h1.58v4.62c.74-.86,1.67-1.28,2.79-1.28.69,0,1.29.14,1.8.41s.87.65,1.09,1.13.33,1.18.33,2.09v5.92h-1.58v-5.92c0-.79-.17-1.37-.51-1.73s-.83-.54-1.45-.54c-.47,0-.91.12-1.32.36s-.71.57-.88.99-.26.99-.26,1.72v5.11h-1.58Z"/>
      <path class="cls-19" d="m95.62,195.71v-12.91h1.44v1.21c.34-.47.72-.83,1.15-1.07s.95-.36,1.55-.36c.8,0,1.5.21,2.11.62s1.07.99,1.38,1.74.46,1.57.46,2.46c0,.96-.17,1.81-.51,2.58s-.84,1.35-1.49,1.76-1.34.61-2.06.61c-.53,0-1-.11-1.42-.33s-.76-.5-1.03-.84v4.54h-1.58Zm1.43-8.19c0,1.2.24,2.09.73,2.66s1.08.86,1.77.86,1.3-.3,1.81-.89.75-1.52.75-2.76-.24-2.08-.73-2.67-1.07-.89-1.75-.89-1.27.31-1.79.94-.78,1.55-.78,2.75Z"/>
      <path class="cls-19" d="m105.53,192.13v-9.33h1.42v1.42c.36-.66.7-1.1,1.01-1.31.31-.21.65-.32,1.01-.32.53,0,1.08.17,1.63.51l-.54,1.47c-.39-.23-.77-.34-1.16-.34-.35,0-.66.1-.93.31s-.47.5-.59.87c-.18.56-.26,1.18-.26,1.85v4.89h-1.58Z"/>
      <path class="cls-19" d="m110.87,187.47c0-1.73.48-3.01,1.44-3.84.8-.69,1.78-1.04,2.94-1.04,1.28,0,2.33.42,3.15,1.26s1.22,2,1.22,3.48c0,1.2-.18,2.15-.54,2.83-.36.69-.88,1.22-1.57,1.6-.69.38-1.44.57-2.25.57-1.31,0-2.36-.42-3.17-1.26-.81-.84-1.21-2.04-1.21-3.62Zm1.63,0c0,1.2.26,2.09.78,2.69s1.18.89,1.97.89,1.44-.3,1.96-.9.78-1.51.78-2.73c0-1.15-.26-2.03-.79-2.62-.52-.59-1.18-.89-1.96-.89s-1.45.3-1.97.89-.78,1.49-.78,2.68Z"/>
      <path class="cls-19" d="m122.85,192.13h-1.47v-12.88h1.58v4.6c.67-.84,1.52-1.26,2.56-1.26.57,0,1.12.12,1.63.35.51.23.93.56,1.27.98.33.42.59.92.78,1.52s.28,1.22.28,1.9c0,1.6-.4,2.84-1.19,3.71s-1.74,1.31-2.85,1.31-1.97-.46-2.59-1.38v1.17Zm-.02-4.74c0,1.12.15,1.93.46,2.43.5.81,1.17,1.22,2.02,1.22.69,0,1.29-.3,1.79-.9s.76-1.5.76-2.69-.24-2.12-.72-2.7c-.48-.58-1.07-.87-1.75-.87s-1.29.3-1.79.9-.76,1.47-.76,2.61Z"/>
      <path class="cls-19" d="m131.27,192.13v-12.88h1.58v12.88h-1.58Z"/>
      <path class="cls-19" d="m141.6,189.13l1.63.2c-.26.96-.74,1.7-1.43,2.22s-1.59.79-2.67.79c-1.37,0-2.45-.42-3.25-1.26-.8-.84-1.2-2.02-1.2-3.54s.4-2.79,1.21-3.66,1.86-1.3,3.15-1.3,2.27.42,3.06,1.27,1.19,2.04,1.19,3.59c0,.09,0,.23,0,.42h-6.96c.06,1.03.35,1.81.87,2.36s1.17.82,1.95.82c.58,0,1.08-.15,1.49-.46s.74-.79.98-1.46Zm-5.19-2.56h5.21c-.07-.79-.27-1.37-.6-1.77-.5-.61-1.16-.91-1.96-.91-.73,0-1.34.24-1.83.73-.49.49-.77,1.14-.82,1.95Z"/>
      <path class="cls-19" d="m145.11,192.13v-9.33h1.42v1.31c.29-.46.68-.82,1.17-1.1s1.04-.42,1.66-.42c.69,0,1.26.14,1.7.43.44.29.75.69.94,1.2.74-1.09,1.7-1.63,2.88-1.63.93,0,1.64.26,2.14.77s.75,1.3.75,2.37v6.41h-1.57v-5.88c0-.63-.05-1.09-.15-1.37-.1-.28-.29-.5-.56-.67s-.59-.25-.95-.25c-.66,0-1.2.22-1.63.65s-.65,1.14-.65,2.1v5.42h-1.58v-6.06c0-.7-.13-1.23-.39-1.58s-.68-.53-1.27-.53c-.45,0-.86.12-1.24.35-.38.23-.65.58-.82,1.03s-.25,1.1-.25,1.95v4.84h-1.58Z"/>
      <path class="cls-19" d="m172.5,190.61c-.52.58-1.09,1.02-1.71,1.31s-1.28.44-2,.44c-1.32,0-2.36-.45-3.14-1.34-.63-.73-.94-1.54-.94-2.43,0-.8.26-1.52.77-2.16.51-.64,1.28-1.21,2.3-1.69-.58-.67-.97-1.21-1.16-1.63s-.29-.82-.29-1.2c0-.77.3-1.45.91-2.02.61-.57,1.37-.86,2.29-.86s1.6.27,2.16.81c.56.54.84,1.19.84,1.94,0,1.22-.81,2.27-2.43,3.14l2.31,2.94c.26-.52.47-1.11.62-1.79l1.64.35c-.28,1.12-.66,2.05-1.14,2.78.59.79,1.26,1.44,2.01,1.98l-1.06,1.26c-.64-.41-1.3-1.02-1.98-1.82Zm-.99-1.25l-2.9-3.59c-.86.51-1.43.98-1.73,1.42s-.45.87-.45,1.3c0,.52.21,1.06.62,1.63s1,.84,1.77.84c.47,0,.97-.15,1.47-.44.51-.3.91-.68,1.22-1.15Zm-2.22-5.47c.69-.4,1.13-.76,1.33-1.06.2-.3.3-.64.3-1.01,0-.44-.14-.8-.42-1.08-.28-.28-.62-.42-1.04-.42s-.78.14-1.07.41c-.28.28-.43.61-.43,1.01,0,.2.05.41.15.63.1.22.26.45.46.7l.7.82Z"/>
      <path class="cls-19" d="m188.27,190.98c-.59.5-1.15.85-1.69,1.05s-1.12.31-1.74.31c-1.03,0-1.81-.25-2.37-.75s-.83-1.14-.83-1.92c0-.46.1-.87.31-1.25s.48-.68.82-.91.72-.4,1.14-.52c.31-.08.78-.16,1.41-.24,1.28-.15,2.22-.33,2.82-.54,0-.22,0-.35,0-.41,0-.64-.15-1.1-.45-1.36-.4-.36-1.01-.54-1.8-.54-.74,0-1.29.13-1.65.39s-.62.72-.79,1.38l-1.55-.21c.14-.66.37-1.2.69-1.6s.79-.72,1.4-.94,1.31-.33,2.12-.33,1.45.09,1.94.28.86.42,1.1.71.4.64.49,1.08c.05.27.08.76.08,1.46v2.11c0,1.47.03,2.4.1,2.79s.2.76.4,1.12h-1.65c-.16-.33-.27-.71-.32-1.15Zm-.13-3.53c-.57.23-1.44.43-2.58.6-.65.09-1.11.2-1.38.32s-.48.29-.62.51-.22.48-.22.75c0,.42.16.77.48,1.05s.79.42,1.4.42,1.15-.13,1.63-.4.82-.63,1.04-1.09c.17-.36.26-.88.26-1.58v-.58Z"/>
      <path class="cls-19" d="m192.03,181.07v-1.82h1.58v1.82h-1.58Zm0,11.07v-9.33h1.58v9.33h-1.58Z"/>
      <path class="cls-19" d="m195.87,192.13v-9.33h1.42v1.31c.29-.46.68-.82,1.17-1.1s1.04-.42,1.66-.42c.69,0,1.26.14,1.7.43.44.29.75.69.94,1.2.74-1.09,1.7-1.63,2.88-1.63.93,0,1.64.26,2.14.77s.75,1.3.75,2.37v6.41h-1.57v-5.88c0-.63-.05-1.09-.15-1.37-.1-.28-.29-.5-.56-.67s-.59-.25-.95-.25c-.66,0-1.2.22-1.63.65s-.65,1.14-.65,2.1v5.42h-1.58v-6.06c0-.7-.13-1.23-.39-1.58s-.68-.53-1.27-.53c-.45,0-.86.12-1.24.35-.38.23-.65.58-.82,1.03s-.25,1.1-.25,1.95v4.84h-1.58Z"/>
      <path class="cls-19" d="m210.1,189.35l1.56-.25c.09.63.33,1.11.73,1.44.4.33.96.5,1.68.5s1.27-.15,1.62-.44.53-.64.53-1.04c0-.36-.16-.64-.47-.84-.22-.14-.76-.32-1.62-.54-1.16-.29-1.96-.55-2.41-.76-.45-.21-.79-.51-1.02-.89-.23-.38-.35-.8-.35-1.25,0-.42.09-.8.29-1.16.19-.35.45-.65.78-.88.25-.18.58-.34,1.01-.46.43-.13.88-.19,1.37-.19.73,0,1.38.11,1.93.32.55.21.96.5,1.23.86s.45.84.54,1.45l-1.55.21c-.07-.48-.27-.86-.61-1.12-.34-.27-.81-.4-1.43-.4-.73,0-1.25.12-1.56.36s-.47.52-.47.84c0,.21.06.39.19.55.13.17.33.31.61.42.16.06.62.19,1.4.4,1.12.3,1.9.54,2.34.73.44.19.79.47,1.04.83s.38.81.38,1.35-.15,1.02-.46,1.49c-.31.47-.75.83-1.33,1.08s-1.24.38-1.97.38c-1.21,0-2.14-.25-2.77-.76-.64-.5-1.04-1.25-1.22-2.24Z"/>
    </g>
  </g>
  <g>
    <rect class="cls-7" x="294" y="137.5" width="175" height="75"/>
    <g>
      <path class="cls-19" d="m354,170.53v-12.88h5.71c1.15,0,2.02.12,2.62.35s1.08.64,1.43,1.23.54,1.23.54,1.94c0,.91-.29,1.68-.89,2.31s-1.51,1.03-2.74,1.2c.45.22.79.43,1.03.64.5.46.97,1.03,1.42,1.71l2.24,3.51h-2.14l-1.71-2.68c-.5-.77-.91-1.37-1.23-1.78s-.61-.7-.87-.86-.51-.28-.78-.34c-.19-.04-.51-.06-.95-.06h-1.98v5.72h-1.71Zm1.71-7.2h3.67c.78,0,1.39-.08,1.83-.24s.77-.42,1-.77.34-.74.34-1.16c0-.61-.22-1.11-.66-1.5s-1.14-.59-2.1-.59h-4.08v4.26Z"/>
      <path class="cls-19" d="m372.82,167.53l1.63.2c-.26.96-.73,1.7-1.43,2.22s-1.59.79-2.67.79c-1.37,0-2.45-.42-3.25-1.26s-1.2-2.02-1.2-3.54.4-2.79,1.21-3.66,1.86-1.3,3.15-1.3,2.27.42,3.06,1.27,1.19,2.04,1.19,3.59c0,.09,0,.23,0,.42h-6.96c.06,1.03.35,1.81.87,2.36s1.17.82,1.95.82c.58,0,1.08-.15,1.49-.46s.73-.79.97-1.46Zm-5.19-2.56h5.21c-.07-.79-.27-1.37-.6-1.77-.5-.61-1.16-.91-1.96-.91-.73,0-1.34.24-1.83.73s-.77,1.14-.82,1.95Z"/>
      <path class="cls-19" d="m378.59,170.53l-3.55-9.33h1.67l2,5.59c.22.6.42,1.23.6,1.88.14-.49.34-1.08.59-1.78l2.07-5.7h1.63l-3.53,9.33h-1.48Z"/>
      <path class="cls-19" d="m384.92,159.47v-1.82h1.58v1.82h-1.58Zm0,11.07v-9.33h1.58v9.33h-1.58Z"/>
      <path class="cls-19" d="m395.23,167.53l1.63.2c-.26.96-.74,1.7-1.43,2.22s-1.59.79-2.67.79c-1.37,0-2.45-.42-3.25-1.26-.8-.84-1.2-2.02-1.2-3.54s.4-2.79,1.21-3.66,1.86-1.3,3.15-1.3,2.27.42,3.06,1.27,1.19,2.04,1.19,3.59c0,.09,0,.23,0,.42h-6.96c.06,1.03.35,1.81.87,2.36s1.17.82,1.95.82c.58,0,1.08-.15,1.49-.46s.74-.79.98-1.46Zm-5.19-2.56h5.21c-.07-.79-.27-1.37-.6-1.77-.5-.61-1.16-.91-1.96-.91-.73,0-1.34.24-1.83.73-.5.49-.77,1.14-.82,1.95Z"/>
      <path class="cls-19" d="m400.3,170.53l-2.86-9.33h1.63l1.48,5.39.55,2c.02-.1.18-.74.48-1.92l1.49-5.47h1.62l1.4,5.41.46,1.78.54-1.8,1.6-5.4h1.54l-2.92,9.33h-1.64l-1.49-5.59-.36-1.59-1.89,7.18h-1.65Z"/>
      <path class="cls-19" d="m348.36,192.13v-12.88h1.58v12.88h-1.58Z"/>
      <path class="cls-19" d="m352.21,181.07v-1.82h1.58v1.82h-1.58Zm0,11.07v-9.33h1.58v9.33h-1.58Z"/>
      <path class="cls-19" d="m359.51,190.72l.23,1.4c-.45.09-.84.14-1.2.14-.57,0-1.02-.09-1.34-.27s-.54-.42-.67-.72-.19-.92-.19-1.87v-5.37h-1.16v-1.23h1.16v-2.31l1.57-.95v3.26h1.59v1.23h-1.59v5.46c0,.45.03.74.08.87.05.13.15.23.27.31.13.08.31.11.54.11.18,0,.41-.02.69-.06Z"/>
      <path class="cls-19" d="m367.19,189.13l1.63.2c-.26.96-.74,1.7-1.43,2.22s-1.59.79-2.67.79c-1.37,0-2.45-.42-3.25-1.26-.8-.84-1.2-2.02-1.2-3.54s.4-2.79,1.21-3.66,1.86-1.3,3.15-1.3,2.27.42,3.06,1.27,1.19,2.04,1.19,3.59c0,.09,0,.23,0,.42h-6.96c.06,1.03.35,1.81.87,2.36s1.17.82,1.95.82c.58,0,1.08-.15,1.49-.46s.74-.79.98-1.46Zm-5.19-2.56h5.21c-.07-.79-.27-1.37-.6-1.77-.5-.61-1.16-.91-1.96-.91-.73,0-1.34.24-1.83.73-.49.49-.77,1.14-.82,1.95Z"/>
      <path class="cls-19" d="m370.69,192.13v-9.33h1.42v1.42c.36-.66.7-1.1,1.01-1.31s.65-.32,1.02-.32c.53,0,1.07.17,1.62.51l-.54,1.47c-.39-.23-.77-.34-1.16-.34-.35,0-.66.1-.93.31s-.47.5-.59.87c-.18.56-.26,1.18-.26,1.85v4.89h-1.58Z"/>
      <path class="cls-19" d="m382.72,190.98c-.59.5-1.15.85-1.69,1.05s-1.12.31-1.74.31c-1.03,0-1.81-.25-2.37-.75s-.83-1.14-.83-1.92c0-.46.1-.87.31-1.25s.48-.68.82-.91.72-.4,1.14-.52c.31-.08.78-.16,1.41-.24,1.28-.15,2.22-.33,2.82-.54,0-.22,0-.35,0-.41,0-.64-.15-1.1-.45-1.36-.4-.36-1.01-.54-1.8-.54-.74,0-1.29.13-1.65.39s-.62.72-.79,1.38l-1.55-.21c.14-.66.37-1.2.69-1.6s.79-.72,1.4-.94,1.31-.33,2.12-.33,1.45.09,1.94.28.86.42,1.1.71.4.64.49,1.08c.05.27.08.76.08,1.46v2.11c0,1.47.03,2.4.1,2.79s.2.76.4,1.12h-1.65c-.16-.33-.27-.71-.32-1.15Zm-.13-3.53c-.57.23-1.44.43-2.58.6-.65.09-1.11.2-1.38.32s-.48.29-.62.51-.22.48-.22.75c0,.42.16.77.48,1.05s.79.42,1.4.42,1.15-.13,1.63-.4.82-.63,1.04-1.09c.17-.36.26-.88.26-1.58v-.58Z"/>
      <path class="cls-19" d="m389.84,190.72l.23,1.4c-.45.09-.84.14-1.2.14-.57,0-1.02-.09-1.34-.27s-.54-.42-.67-.72-.19-.92-.19-1.87v-5.37h-1.16v-1.23h1.16v-2.31l1.57-.95v3.26h1.59v1.23h-1.59v5.46c0,.45.03.74.08.87.05.13.15.23.27.31.13.08.31.11.54.11.18,0,.41-.02.69-.06Z"/>
      <path class="cls-19" d="m397.37,192.13v-1.37c-.73,1.05-1.71,1.58-2.96,1.58-.55,0-1.06-.11-1.54-.32-.48-.21-.83-.48-1.06-.8-.23-.32-.39-.71-.49-1.17-.06-.31-.1-.8-.1-1.48v-5.78h1.58v5.18c0,.83.03,1.38.1,1.67.1.42.31.74.63.98s.72.36,1.2.36.92-.12,1.34-.36.71-.57.88-.99c.17-.42.26-1.03.26-1.82v-5h1.58v9.33h-1.42Z"/>
      <path class="cls-19" d="m401.07,192.13v-9.33h1.42v1.42c.36-.66.7-1.1,1.01-1.31s.65-.32,1.02-.32c.53,0,1.07.17,1.62.51l-.54,1.47c-.39-.23-.77-.34-1.16-.34-.35,0-.66.1-.93.31s-.47.5-.59.87c-.18.56-.26,1.18-.26,1.85v4.89h-1.58Z"/>
      <path class="cls-19" d="m413.34,189.13l1.63.2c-.26.96-.74,1.7-1.43,2.22s-1.59.79-2.67.79c-1.37,0-2.45-.42-3.25-1.26-.8-.84-1.2-2.02-1.2-3.54s.4-2.79,1.21-3.66,1.86-1.3,3.15-1.3,2.27.42,3.06,1.27,1.19,2.04,1.19,3.59c0,.09,0,.23,0,.42h-6.96c.06,1.03.35,1.81.87,2.36s1.17.82,1.95.82c.58,0,1.08-.15,1.49-.46s.74-.79.98-1.46Zm-5.19-2.56h5.21c-.07-.79-.27-1.37-.6-1.77-.5-.61-1.16-.91-1.96-.91-.73,0-1.34.24-1.83.73-.49.49-.77,1.14-.82,1.95Z"/>
    </g>
  </g>
  <g>
    <rect class="cls-7" x="69" y="137.5" width="175" height="75"/>
    <g>
      <path class="cls-19" d="m79.82,170.53v-12.88h4.44c1,0,1.77.06,2.29.18.74.17,1.37.48,1.89.92.68.57,1.19,1.31,1.53,2.2s.51,1.91.51,3.06c0,.98-.12,1.85-.34,2.6s-.52,1.38-.88,1.88-.75.88-1.17,1.17-.94.5-1.54.65-1.29.22-2.07.22h-4.65Zm1.71-1.52h2.75c.85,0,1.52-.08,2-.24s.87-.38,1.16-.67c.4-.4.72-.95.94-1.63s.34-1.51.34-2.48c0-1.35-.22-2.38-.66-3.11s-.98-1.21-1.61-1.45c-.46-.18-1.19-.26-2.21-.26h-2.71v9.84Z"/>
      <path class="cls-19" d="m98.99,167.53l1.63.2c-.26.96-.74,1.7-1.43,2.22s-1.59.79-2.67.79c-1.37,0-2.45-.42-3.25-1.26-.8-.84-1.2-2.02-1.2-3.54s.4-2.79,1.21-3.66,1.86-1.3,3.15-1.3,2.27.42,3.06,1.27,1.19,2.04,1.19,3.59c0,.09,0,.23,0,.42h-6.96c.06,1.03.35,1.81.87,2.36s1.17.82,1.95.82c.58,0,1.08-.15,1.49-.46s.74-.79.98-1.46Zm-5.19-2.56h5.21c-.07-.79-.27-1.37-.6-1.77-.5-.61-1.16-.91-1.96-.91-.73,0-1.34.24-1.83.73-.49.49-.77,1.14-.82,1.95Z"/>
      <path class="cls-19" d="m102.71,170.53v-8.1h-1.4v-1.23h1.4v-.99c0-.63.06-1.09.17-1.4.15-.41.42-.74.8-1,.38-.25.92-.38,1.61-.38.45,0,.94.05,1.48.16l-.24,1.38c-.33-.06-.64-.09-.93-.09-.48,0-.82.1-1.02.31s-.3.59-.3,1.15v.86h1.82v1.23h-1.82v8.1h-1.57Z"/>
      <path class="cls-19" d="m107.67,159.47v-1.82h1.58v1.82h-1.58Zm0,11.07v-9.33h1.58v9.33h-1.58Z"/>
      <path class="cls-19" d="m111.51,170.53v-9.33h1.42v1.33c.69-1.03,1.68-1.54,2.97-1.54.56,0,1.08.1,1.55.3s.83.47,1.06.8.4.72.49,1.17c.06.29.09.81.09,1.54v5.74h-1.58v-5.68c0-.64-.06-1.13-.19-1.45s-.34-.57-.65-.76-.68-.29-1.1-.29c-.67,0-1.25.21-1.74.64s-.73,1.24-.73,2.43v5.1h-1.58Z"/>
      <path class="cls-19" d="m127.79,167.53l1.63.2c-.26.96-.74,1.7-1.43,2.22s-1.59.79-2.67.79c-1.37,0-2.45-.42-3.25-1.26s-1.2-2.02-1.2-3.54.4-2.79,1.21-3.66,1.86-1.3,3.15-1.3,2.27.42,3.06,1.27,1.19,2.04,1.19,3.59c0,.09,0,.23,0,.42h-6.96c.06,1.03.35,1.81.87,2.36s1.17.82,1.95.82c.58,0,1.07-.15,1.48-.46s.74-.79.98-1.46Zm-5.2-2.56h5.21c-.07-.79-.27-1.37-.6-1.77-.5-.61-1.16-.91-1.96-.91-.73,0-1.34.24-1.83.73s-.77,1.14-.82,1.95Z"/>
      <path class="cls-19" d="m139.9,169.12l.23,1.4c-.45.09-.84.14-1.2.14-.57,0-1.02-.09-1.34-.27s-.54-.42-.67-.72-.19-.92-.19-1.87v-5.37h-1.16v-1.23h1.16v-2.31l1.57-.95v3.26h1.59v1.23h-1.59v5.46c0,.45.03.74.08.87s.15.23.27.31.31.11.54.11c.18,0,.41-.02.69-.06Z"/>
      <path class="cls-19" d="m141.41,170.53v-12.88h1.58v4.62c.74-.86,1.67-1.28,2.79-1.28.69,0,1.29.14,1.8.41s.87.65,1.09,1.13c.22.48.33,1.18.33,2.09v5.92h-1.58v-5.92c0-.79-.17-1.37-.51-1.73-.34-.36-.83-.54-1.45-.54-.47,0-.91.12-1.32.36-.41.24-.71.57-.88.99s-.26.99-.26,1.72v5.11h-1.58Z"/>
      <path class="cls-19" d="m157.69,167.53l1.63.2c-.26.96-.74,1.7-1.43,2.22s-1.59.79-2.67.79c-1.37,0-2.45-.42-3.25-1.26-.8-.84-1.2-2.02-1.2-3.54s.4-2.79,1.21-3.66,1.86-1.3,3.15-1.3,2.27.42,3.06,1.27,1.19,2.04,1.19,3.59c0,.09,0,.23,0,.42h-6.96c.06,1.03.35,1.81.87,2.36s1.17.82,1.95.82c.58,0,1.08-.15,1.49-.46s.74-.79.98-1.46Zm-5.19-2.56h5.21c-.07-.79-.27-1.37-.6-1.77-.5-.61-1.16-.91-1.96-.91-.73,0-1.34.24-1.83.73-.49.49-.77,1.14-.82,1.95Z"/>
      <path class="cls-19" d="m166.33,170.53v-9.33h1.42v1.42c.36-.66.7-1.1,1.01-1.31.31-.21.65-.32,1.02-.32.53,0,1.08.17,1.63.51l-.54,1.47c-.39-.23-.77-.34-1.16-.34-.35,0-.66.1-.93.31s-.47.5-.59.87c-.18.56-.26,1.18-.26,1.85v4.89h-1.58Z"/>
      <path class="cls-19" d="m178.6,167.53l1.63.2c-.26.96-.73,1.7-1.43,2.22s-1.59.79-2.67.79c-1.37,0-2.45-.42-3.25-1.26s-1.2-2.02-1.2-3.54.4-2.79,1.21-3.66,1.86-1.3,3.15-1.3,2.27.42,3.06,1.27,1.19,2.04,1.19,3.59c0,.09,0,.23,0,.42h-6.96c.06,1.03.35,1.81.87,2.36s1.17.82,1.95.82c.58,0,1.08-.15,1.49-.46s.73-.79.97-1.46Zm-5.19-2.56h5.21c-.07-.79-.27-1.37-.6-1.77-.5-.61-1.16-.91-1.96-.91-.73,0-1.34.24-1.83.73s-.77,1.14-.82,1.95Z"/>
      <path class="cls-19" d="m181.53,167.75l1.56-.25c.09.63.33,1.11.73,1.44s.96.5,1.68.5,1.27-.15,1.62-.44.53-.64.53-1.04c0-.36-.15-.64-.46-.84-.22-.14-.76-.32-1.62-.54-1.16-.29-1.96-.55-2.41-.76s-.79-.51-1.02-.89-.35-.8-.35-1.25c0-.42.09-.8.29-1.16s.45-.65.78-.88c.25-.18.58-.34,1.01-.46s.88-.19,1.37-.19c.73,0,1.38.11,1.93.32s.96.5,1.23.86.45.84.54,1.45l-1.55.21c-.07-.48-.27-.86-.61-1.12s-.81-.4-1.43-.4c-.73,0-1.25.12-1.56.36s-.46.52-.46.84c0,.21.06.39.19.55.13.17.33.31.61.42.16.06.62.19,1.4.4,1.12.3,1.9.54,2.34.73s.79.47,1.04.83.38.81.38,1.35-.15,1.02-.46,1.49-.75.83-1.33,1.08-1.24.38-1.97.38c-1.21,0-2.14-.25-2.77-.76s-1.04-1.25-1.22-2.24Z"/>
      <path class="cls-19" d="m197.44,167.53l1.63.2c-.26.96-.73,1.7-1.43,2.22s-1.59.79-2.67.79c-1.37,0-2.45-.42-3.25-1.26s-1.2-2.02-1.2-3.54.4-2.79,1.21-3.66,1.86-1.3,3.15-1.3,2.27.42,3.06,1.27,1.19,2.04,1.19,3.59c0,.09,0,.23,0,.42h-6.96c.06,1.03.35,1.81.87,2.36s1.17.82,1.95.82c.58,0,1.08-.15,1.49-.46s.73-.79.97-1.46Zm-5.19-2.56h5.21c-.07-.79-.27-1.37-.6-1.77-.5-.61-1.16-.91-1.96-.91-.73,0-1.34.24-1.83.73s-.77,1.14-.82,1.95Z"/>
      <path class="cls-19" d="m207.04,169.38c-.59.5-1.15.85-1.69,1.05s-1.12.31-1.75.31c-1.03,0-1.81-.25-2.36-.75s-.83-1.14-.83-1.92c0-.46.1-.87.31-1.25s.48-.68.82-.91.72-.4,1.14-.52c.31-.08.78-.16,1.41-.24,1.28-.15,2.22-.33,2.82-.54,0-.22,0-.35,0-.41,0-.64-.15-1.1-.45-1.36-.4-.36-1-.54-1.8-.54-.74,0-1.29.13-1.65.39s-.62.72-.79,1.38l-1.55-.21c.14-.66.37-1.2.7-1.6s.79-.72,1.4-.94,1.32-.33,2.12-.33,1.44.09,1.94.28.87.42,1.1.71.4.64.49,1.08c.05.27.08.76.08,1.46v2.11c0,1.47.03,2.4.1,2.79s.2.76.4,1.12h-1.65c-.16-.33-.27-.71-.32-1.15Zm-.13-3.53c-.57.23-1.44.43-2.58.6-.65.09-1.11.2-1.38.32s-.48.29-.62.51-.22.48-.22.75c0,.42.16.77.48,1.05s.79.42,1.4.42,1.15-.13,1.62-.4.82-.63,1.05-1.09c.17-.36.25-.88.25-1.58v-.58Z"/>
      <path class="cls-19" d="m210.79,170.53v-9.33h1.42v1.42c.36-.66.7-1.1,1.01-1.31.31-.21.65-.32,1.02-.32.53,0,1.08.17,1.63.51l-.54,1.47c-.39-.23-.77-.34-1.16-.34-.35,0-.66.1-.93.31s-.47.5-.59.87c-.18.56-.26,1.18-.26,1.85v4.89h-1.58Z"/>
      <path class="cls-19" d="m222.77,167.11l1.56.2c-.17,1.07-.61,1.91-1.31,2.52s-1.56.91-2.58.91c-1.28,0-2.3-.42-3.08-1.25s-1.17-2.03-1.17-3.59c0-1.01.17-1.89.5-2.65s.84-1.32,1.52-1.7,1.42-.57,2.23-.57c1.01,0,1.84.26,2.49.77s1.06,1.24,1.24,2.18l-1.54.24c-.15-.63-.41-1.1-.78-1.42s-.82-.47-1.35-.47c-.8,0-1.45.29-1.94.86s-.75,1.48-.75,2.71.24,2.17.72,2.73,1.11.85,1.88.85c.62,0,1.14-.19,1.55-.57s.68-.97.79-1.76Z"/>
      <path class="cls-19" d="m225.73,170.53v-12.88h1.58v4.62c.74-.86,1.67-1.28,2.79-1.28.69,0,1.29.14,1.8.41s.87.65,1.09,1.13.33,1.18.33,2.09v5.92h-1.58v-5.92c0-.79-.17-1.37-.51-1.73s-.83-.54-1.45-.54c-.47,0-.91.12-1.32.36s-.71.57-.88.99-.26.99-.26,1.72v5.11h-1.58Z"/>
      <path class="cls-19" d="m95.62,195.71v-12.91h1.44v1.21c.34-.47.72-.83,1.15-1.07s.95-.36,1.55-.36c.8,0,1.5.21,2.11.62s1.07.99,1.38,1.74.46,1.57.46,2.46c0,.96-.17,1.81-.51,2.58s-.84,1.35-1.49,1.76-1.34.61-2.06.61c-.53,0-1-.11-1.42-.33s-.76-.5-1.03-.84v4.54h-1.58Zm1.43-8.19c0,1.2.24,2.09.73,2.66s1.08.86,1.77.86,1.3-.3,1.81-.89.75-1.52.75-2.76-.24-2.08-.73-2.67-1.07-.89-1.75-.89-1.27.31-1.79.94-.78,1.55-.78,2.75Z"/>
      <path class="cls-19" d="m105.53,192.13v-9.33h1.42v1.42c.36-.66.7-1.1,1.01-1.31.31-.21.65-.32,1.01-.32.53,0,1.08.17,1.63.51l-.54,1.47c-.39-.23-.77-.34-1.16-.34-.35,0-.66.1-.93.31s-.47.5-.59.87c-.18.56-.26,1.18-.26,1.85v4.89h-1.58Z"/>
      <path class="cls-19" d="m110.87,187.47c0-1.73.48-3.01,1.44-3.84.8-.69,1.78-1.04,2.94-1.04,1.28,0,2.33.42,3.15,1.26s1.22,2,1.22,3.48c0,1.2-.18,2.15-.54,2.83-.36.69-.88,1.22-1.57,1.6-.69.38-1.44.57-2.25.57-1.31,0-2.36-.42-3.17-1.26-.81-.84-1.21-2.04-1.21-3.62Zm1.63,0c0,1.2.26,2.09.78,2.69s1.18.89,1.97.89,1.44-.3,1.96-.9.78-1.51.78-2.73c0-1.15-.26-2.03-.79-2.62-.52-.59-1.18-.89-1.96-.89s-1.45.3-1.97.89-.78,1.49-.78,2.68Z"/>
      <path class="cls-19" d="m122.85,192.13h-1.47v-12.88h1.58v4.6c.67-.84,1.52-1.26,2.56-1.26.57,0,1.12.12,1.63.35.51.23.93.56,1.27.98.33.42.59.92.78,1.52s.28,1.22.28,1.9c0,1.6-.4,2.84-1.19,3.71s-1.74,1.31-2.85,1.31-1.97-.46-2.59-1.38v1.17Zm-.02-4.74c0,1.12.15,1.93.46,2.43.5.81,1.17,1.22,2.02,1.22.69,0,1.29-.3,1.79-.9s.76-1.5.76-2.69-.24-2.12-.72-2.7c-.48-.58-1.07-.87-1.75-.87s-1.29.3-1.79.9-.76,1.47-.76,2.61Z"/>
      <path class="cls-19" d="m131.27,192.13v-12.88h1.58v12.88h-1.58Z"/>
      <path class="cls-19" d="m141.6,189.13l1.63.2c-.26.96-.74,1.7-1.43,2.22s-1.59.79-2.67.79c-1.37,0-2.45-.42-3.25-1.26-.8-.84-1.2-2.02-1.2-3.54s.4-2.79,1.21-3.66,1.86-1.3,3.15-1.3,2.27.42,3.06,1.27,1.19,2.04,1.19,3.59c0,.09,0,.23,0,.42h-6.96c.06,1.03.35,1.81.87,2.36s1.17.82,1.95.82c.58,0,1.08-.15,1.49-.46s.74-.79.98-1.46Zm-5.19-2.56h5.21c-.07-.79-.27-1.37-.6-1.77-.5-.61-1.16-.91-1.96-.91-.73,0-1.34.24-1.83.73-.49.49-.77,1.14-.82,1.95Z"/>
      <path class="cls-19" d="m145.11,192.13v-9.33h1.42v1.31c.29-.46.68-.82,1.17-1.1s1.04-.42,1.66-.42c.69,0,1.26.14,1.7.43.44.29.75.69.94,1.2.74-1.09,1.7-1.63,2.88-1.63.93,0,1.64.26,2.14.77s.75,1.3.75,2.37v6.41h-1.57v-5.88c0-.63-.05-1.09-.15-1.37-.1-.28-.29-.5-.56-.67s-.59-.25-.95-.25c-.66,0-1.2.22-1.63.65s-.65,1.14-.65,2.1v5.42h-1.58v-6.06c0-.7-.13-1.23-.39-1.58s-.68-.53-1.27-.53c-.45,0-.86.12-1.24.35-.38.23-.65.58-.82,1.03s-.25,1.1-.25,1.95v4.84h-1.58Z"/>
      <path class="cls-19" d="m172.5,190.61c-.52.58-1.09,1.02-1.71,1.31s-1.28.44-2,.44c-1.32,0-2.36-.45-3.14-1.34-.63-.73-.94-1.54-.94-2.43,0-.8.26-1.52.77-2.16.51-.64,1.28-1.21,2.3-1.69-.58-.67-.97-1.21-1.16-1.63s-.29-.82-.29-1.2c0-.77.3-1.45.91-2.02.61-.57,1.37-.86,2.29-.86s1.6.27,2.16.81c.56.54.84,1.19.84,1.94,0,1.22-.81,2.27-2.43,3.14l2.31,2.94c.26-.52.47-1.11.62-1.79l1.64.35c-.28,1.12-.66,2.05-1.14,2.78.59.79,1.26,1.44,2.01,1.98l-1.06,1.26c-.64-.41-1.3-1.02-1.98-1.82Zm-.99-1.25l-2.9-3.59c-.86.51-1.43.98-1.73,1.42s-.45.87-.45,1.3c0,.52.21,1.06.62,1.63s1,.84,1.77.84c.47,0,.97-.15,1.47-.44.51-.3.91-.68,1.22-1.15Zm-2.22-5.47c.69-.4,1.13-.76,1.33-1.06.2-.3.3-.64.3-1.01,0-.44-.14-.8-.42-1.08-.28-.28-.62-.42-1.04-.42s-.78.14-1.07.41c-.28.28-.43.61-.43,1.01,0,.2.05.41.15.63.1.22.26.45.46.7l.7.82Z"/>
      <path class="cls-19" d="m188.27,190.98c-.59.5-1.15.85-1.69,1.05s-1.12.31-1.74.31c-1.03,0-1.81-.25-2.37-.75s-.83-1.14-.83-1.92c0-.46.1-.87.31-1.25s.48-.68.82-.91.72-.4,1.14-.52c.31-.08.78-.16,1.41-.24,1.28-.15,2.22-.33,2.82-.54,0-.22,0-.35,0-.41,0-.64-.15-1.1-.45-1.36-.4-.36-1.01-.54-1.8-.54-.74,0-1.29.13-1.65.39s-.62.72-.79,1.38l-1.55-.21c.14-.66.37-1.2.69-1.6s.79-.72,1.4-.94,1.31-.33,2.12-.33,1.45.09,1.94.28.86.42,1.1.71.4.64.49,1.08c.05.27.08.76.08,1.46v2.11c0,1.47.03,2.4.1,2.79s.2.76.4,1.12h-1.65c-.16-.33-.27-.71-.32-1.15Zm-.13-3.53c-.57.23-1.44.43-2.58.6-.65.09-1.11.2-1.38.32s-.48.29-.62.51-.22.48-.22.75c0,.42.16.77.48,1.05s.79.42,1.4.42,1.15-.13,1.63-.4.82-.63,1.04-1.09c.17-.36.26-.88.26-1.58v-.58Z"/>
      <path class="cls-19" d="m192.03,181.07v-1.82h1.58v1.82h-1.58Zm0,11.07v-9.33h1.58v9.33h-1.58Z"/>
      <path class="cls-19" d="m195.87,192.13v-9.33h1.42v1.31c.29-.46.68-.82,1.17-1.1s1.04-.42,1.66-.42c.69,0,1.26.14,1.7.43.44.29.75.69.94,1.2.74-1.09,1.7-1.63,2.88-1.63.93,0,1.64.26,2.14.77s.75,1.3.75,2.37v6.41h-1.57v-5.88c0-.63-.05-1.09-.15-1.37-.1-.28-.29-.5-.56-.67s-.59-.25-.95-.25c-.66,0-1.2.22-1.63.65s-.65,1.14-.65,2.1v5.42h-1.58v-6.06c0-.7-.13-1.23-.39-1.58s-.68-.53-1.27-.53c-.45,0-.86.12-1.24.35-.38.23-.65.58-.82,1.03s-.25,1.1-.25,1.95v4.84h-1.58Z"/>
      <path class="cls-19" d="m210.1,189.35l1.56-.25c.09.63.33,1.11.73,1.44.4.33.96.5,1.68.5s1.27-.15,1.62-.44.53-.64.53-1.04c0-.36-.16-.64-.47-.84-.22-.14-.76-.32-1.62-.54-1.16-.29-1.96-.55-2.41-.76-.45-.21-.79-.51-1.02-.89-.23-.38-.35-.8-.35-1.25,0-.42.09-.8.29-1.16.19-.35.45-.65.78-.88.25-.18.58-.34,1.01-.46.43-.13.88-.19,1.37-.19.73,0,1.38.11,1.93.32.55.21.96.5,1.23.86s.45.84.54,1.45l-1.55.21c-.07-.48-.27-.86-.61-1.12-.34-.27-.81-.4-1.43-.4-.73,0-1.25.12-1.56.36s-.47.52-.47.84c0,.21.06.39.19.55.13.17.33.31.61.42.16.06.62.19,1.4.4,1.12.3,1.9.54,2.34.73.44.19.79.47,1.04.83s.38.81.38,1.35-.15,1.02-.46,1.49c-.31.47-.75.83-1.33,1.08s-1.24.38-1.97.38c-1.21,0-2.14-.25-2.77-.76-.64-.5-1.04-1.25-1.22-2.24Z"/>
    </g>
  </g>
  <g>
    <rect class="cls-7" x="519" y="137.5" width="175" height="75"/>
    <g>
      <path class="cls-19" d="m568.15,170.53v-12.88h8.69v1.52h-6.99v3.99h6.05v1.52h-6.05v5.85h-1.71Z"/>
      <path class="cls-19" d="m577.78,165.87c0-1.73.48-3.01,1.44-3.84.8-.69,1.78-1.04,2.94-1.04,1.28,0,2.33.42,3.15,1.26s1.22,2,1.22,3.48c0,1.2-.18,2.15-.54,2.83s-.88,1.22-1.57,1.6-1.44.57-2.25.57c-1.31,0-2.36-.42-3.17-1.26s-1.21-2.04-1.21-3.62Zm1.63,0c0,1.2.26,2.09.78,2.69s1.18.89,1.97.89,1.44-.3,1.96-.9.78-1.51.78-2.73c0-1.15-.26-2.03-.79-2.62s-1.18-.89-1.96-.89-1.45.3-1.97.89-.78,1.49-.78,2.68Z"/>
      <path class="cls-19" d="m588.3,170.53v-9.33h1.42v1.42c.36-.66.7-1.1,1.01-1.31s.65-.32,1.02-.32c.53,0,1.07.17,1.62.51l-.54,1.47c-.39-.23-.77-.34-1.16-.34-.35,0-.66.1-.93.31s-.47.5-.59.87c-.18.56-.26,1.18-.26,1.85v4.89h-1.58Z"/>
      <path class="cls-19" d="m594.46,170.53v-9.33h1.42v1.31c.29-.46.68-.82,1.17-1.1s1.04-.42,1.66-.42c.69,0,1.26.14,1.7.43s.75.69.94,1.2c.74-1.09,1.7-1.63,2.88-1.63.93,0,1.64.26,2.13.77s.75,1.3.75,2.37v6.41h-1.57v-5.88c0-.63-.05-1.09-.15-1.37s-.29-.5-.56-.67-.59-.25-.95-.25c-.66,0-1.2.22-1.63.65s-.65,1.14-.65,2.1v5.42h-1.58v-6.06c0-.7-.13-1.23-.39-1.58s-.68-.53-1.27-.53c-.45,0-.86.12-1.24.35s-.65.58-.82,1.03-.26,1.1-.26,1.95v4.84h-1.58Z"/>
      <path class="cls-19" d="m615.41,170.53v-1.37c-.73,1.05-1.71,1.58-2.96,1.58-.55,0-1.07-.11-1.54-.32s-.83-.48-1.06-.8-.39-.71-.49-1.17c-.06-.31-.1-.8-.1-1.48v-5.78h1.58v5.18c0,.83.03,1.38.1,1.67.1.42.31.74.63.98s.72.36,1.2.36.92-.12,1.34-.36.71-.57.88-.99.26-1.03.26-1.82v-5h1.58v9.33h-1.42Z"/>
      <path class="cls-19" d="m619.1,170.53v-12.88h1.58v12.88h-1.58Z"/>
      <path class="cls-19" d="m629.07,169.38c-.59.5-1.15.85-1.69,1.05s-1.12.31-1.75.31c-1.03,0-1.81-.25-2.36-.75s-.83-1.14-.83-1.92c0-.46.1-.87.31-1.25s.48-.68.82-.91.72-.4,1.14-.52c.31-.08.78-.16,1.41-.24,1.28-.15,2.22-.33,2.82-.54,0-.22,0-.35,0-.41,0-.64-.15-1.1-.45-1.36-.4-.36-1-.54-1.8-.54-.74,0-1.29.13-1.65.39s-.62.72-.79,1.38l-1.55-.21c.14-.66.37-1.2.7-1.6s.79-.72,1.4-.94,1.32-.33,2.12-.33,1.44.09,1.94.28.87.42,1.1.71.4.64.49,1.08c.05.27.08.76.08,1.46v2.11c0,1.47.03,2.4.1,2.79s.2.76.4,1.12h-1.65c-.16-.33-.27-.71-.32-1.15Zm-.13-3.53c-.57.23-1.44.43-2.58.6-.65.09-1.11.2-1.38.32s-.48.29-.62.51-.22.48-.22.75c0,.42.16.77.48,1.05s.79.42,1.4.42,1.15-.13,1.62-.4.82-.63,1.05-1.09c.17-.36.25-.88.25-1.58v-.58Z"/>
      <path class="cls-19" d="m636.2,169.12l.23,1.4c-.45.09-.84.14-1.2.14-.57,0-1.02-.09-1.34-.27s-.54-.42-.67-.72-.19-.92-.19-1.87v-5.37h-1.16v-1.23h1.16v-2.31l1.57-.95v3.26h1.59v1.23h-1.59v5.46c0,.45.03.74.08.87s.15.23.27.31.31.11.54.11c.18,0,.41-.02.69-.06Z"/>
      <path class="cls-19" d="m643.88,167.53l1.63.2c-.26.96-.74,1.7-1.43,2.22s-1.59.79-2.67.79c-1.37,0-2.45-.42-3.25-1.26s-1.2-2.02-1.2-3.54.4-2.79,1.21-3.66,1.86-1.3,3.15-1.3,2.27.42,3.06,1.27,1.19,2.04,1.19,3.59c0,.09,0,.23,0,.42h-6.96c.06,1.03.35,1.81.87,2.36s1.17.82,1.95.82c.58,0,1.07-.15,1.48-.46s.74-.79.98-1.46Zm-5.2-2.56h5.21c-.07-.79-.27-1.37-.6-1.77-.5-.61-1.16-.91-1.96-.91-.73,0-1.34.24-1.83.73s-.77,1.14-.82,1.95Z"/>
      <path class="cls-19" d="m573.37,190.72l.23,1.4c-.45.09-.84.14-1.2.14-.57,0-1.02-.09-1.34-.27s-.54-.42-.67-.72-.19-.92-.19-1.87v-5.37h-1.16v-1.23h1.16v-2.31l1.57-.95v3.26h1.59v1.23h-1.59v5.46c0,.45.03.74.08.87s.15.23.27.31.31.11.54.11c.18,0,.41-.02.69-.06Z"/>
      <path class="cls-19" d="m574.88,192.13v-12.88h1.58v4.62c.74-.86,1.67-1.28,2.79-1.28.69,0,1.29.14,1.8.41s.87.65,1.09,1.13c.22.48.33,1.18.33,2.09v5.92h-1.58v-5.92c0-.79-.17-1.37-.51-1.73-.34-.36-.83-.54-1.45-.54-.47,0-.91.12-1.32.36-.41.24-.71.57-.88.99s-.26.99-.26,1.72v5.11h-1.58Z"/>
      <path class="cls-19" d="m591.16,189.13l1.63.2c-.26.96-.74,1.7-1.43,2.22s-1.59.79-2.67.79c-1.37,0-2.45-.42-3.25-1.26-.8-.84-1.2-2.02-1.2-3.54s.4-2.79,1.21-3.66,1.86-1.3,3.15-1.3,2.27.42,3.06,1.27,1.19,2.04,1.19,3.59c0,.09,0,.23,0,.42h-6.96c.06,1.03.35,1.81.87,2.36s1.17.82,1.95.82c.58,0,1.08-.15,1.49-.46s.74-.79.98-1.46Zm-5.19-2.56h5.21c-.07-.79-.27-1.37-.6-1.77-.5-.61-1.16-.91-1.96-.91-.73,0-1.34.24-1.83.73-.49.49-.77,1.14-.82,1.95Z"/>
      <path class="cls-19" d="m600.05,192.13v-12.88h5.71c1.15,0,2.02.12,2.62.35s1.08.64,1.43,1.23.54,1.23.54,1.94c0,.91-.3,1.68-.89,2.31s-1.51,1.03-2.74,1.2c.45.22.79.43,1.03.64.5.46.97,1.03,1.42,1.71l2.24,3.51h-2.14l-1.71-2.68c-.5-.77-.91-1.37-1.23-1.78s-.61-.7-.87-.86c-.26-.16-.51-.28-.78-.34-.19-.04-.51-.06-.95-.06h-1.98v5.72h-1.71Zm1.71-7.2h3.67c.78,0,1.39-.08,1.83-.24s.77-.42,1-.77.34-.74.34-1.16c0-.61-.22-1.11-.66-1.5-.44-.39-1.14-.59-2.1-.59h-4.08v4.26Z"/>
      <path class="cls-19" d="m622.54,190.75c.79.54,1.52.94,2.19,1.2l-.5,1.19c-.93-.33-1.85-.86-2.77-1.58-.96.53-2.01.8-3.16.8s-2.22-.28-3.17-.84-1.68-1.35-2.19-2.37-.77-2.17-.77-3.45.26-2.43.77-3.47,1.25-1.84,2.2-2.38,2.02-.82,3.2-.82,2.26.28,3.22.85,1.68,1.36,2.18,2.37.75,2.16.75,3.44c0,1.06-.16,2.01-.48,2.86s-.81,1.58-1.46,2.21Zm-3.75-2.18c.98.28,1.79.69,2.43,1.23,1-.91,1.5-2.29,1.5-4.12,0-1.04-.18-1.95-.53-2.73s-.87-1.38-1.56-1.81-1.45-.65-2.3-.65c-1.27,0-2.33.44-3.16,1.31s-1.26,2.17-1.26,3.9.41,2.96,1.24,3.86,1.89,1.34,3.18,1.34c.61,0,1.18-.11,1.72-.34-.53-.35-1.1-.59-1.69-.74l.41-1.24Z"/>
      <path class="cls-19" d="m629.55,195.92c-.87-1.1-1.61-2.39-2.21-3.87s-.91-3.01-.91-4.59c0-1.39.23-2.73.68-4.01.53-1.48,1.34-2.96,2.44-4.43h1.13c-.71,1.22-1.18,2.09-1.41,2.61-.36.81-.64,1.65-.84,2.53-.25,1.1-.38,2.2-.38,3.3,0,2.82.88,5.63,2.63,8.45h-1.13Z"/>
      <path class="cls-19" d="m631,189.35l1.56-.25c.09.63.33,1.11.73,1.44s.96.5,1.68.5,1.27-.15,1.62-.44.53-.64.53-1.04c0-.36-.15-.64-.46-.84-.22-.14-.76-.32-1.62-.54-1.16-.29-1.96-.55-2.41-.76s-.79-.51-1.02-.89-.35-.8-.35-1.25c0-.42.09-.8.29-1.16s.45-.65.78-.88c.25-.18.58-.34,1.01-.46s.88-.19,1.37-.19c.73,0,1.38.11,1.93.32s.96.5,1.23.86.45.84.54,1.45l-1.55.21c-.07-.48-.27-.86-.61-1.12s-.81-.4-1.43-.4c-.73,0-1.25.12-1.56.36s-.46.52-.46.84c0,.21.06.39.19.55.13.17.33.31.61.42.16.06.62.19,1.4.4,1.12.3,1.9.54,2.34.73s.79.47,1.04.83.38.81.38,1.35-.15,1.02-.46,1.49-.75.83-1.33,1.08-1.24.38-1.97.38c-1.21,0-2.14-.25-2.77-.76s-1.04-1.25-1.22-2.24Z"/>
      <path class="cls-19" d="m640.48,195.92h-1.13c1.75-2.81,2.63-5.63,2.63-8.45,0-1.1-.13-2.19-.38-3.28-.2-.88-.48-1.72-.83-2.53-.23-.53-.7-1.41-1.42-2.64h1.13c1.1,1.47,1.92,2.95,2.44,4.43.45,1.28.68,2.61.68,4.01,0,1.58-.3,3.11-.91,4.59-.61,1.48-1.34,2.77-2.21,3.87Z"/>
    </g>
  </g>
  <g>
    <rect class="cls-7" x="744" y="137.5" width="175" height="75"/>
    <g>
      <path class="cls-19" d="m800.4,170.53v-12.88h4.44c1,0,1.77.06,2.29.18.74.17,1.37.48,1.89.92.68.57,1.19,1.31,1.53,2.2s.51,1.91.51,3.06c0,.98-.12,1.85-.34,2.6s-.52,1.38-.88,1.88-.75.88-1.17,1.17-.94.5-1.54.65-1.29.22-2.07.22h-4.65Zm1.71-1.52h2.75c.85,0,1.52-.08,2-.24s.87-.38,1.16-.67c.4-.4.72-.95.94-1.63s.34-1.51.34-2.48c0-1.35-.22-2.38-.66-3.11s-.98-1.21-1.61-1.45c-.46-.18-1.19-.26-2.21-.26h-2.71v9.84Z"/>
      <path class="cls-19" d="m819.57,167.53l1.63.2c-.26.96-.74,1.7-1.43,2.22s-1.59.79-2.67.79c-1.37,0-2.45-.42-3.25-1.26-.8-.84-1.2-2.02-1.2-3.54s.4-2.79,1.21-3.66,1.86-1.3,3.15-1.3,2.27.42,3.06,1.27,1.19,2.04,1.19,3.59c0,.09,0,.23,0,.42h-6.96c.06,1.03.35,1.81.87,2.36s1.17.82,1.95.82c.58,0,1.08-.15,1.49-.46s.74-.79.98-1.46Zm-5.19-2.56h5.21c-.07-.79-.27-1.37-.6-1.77-.5-.61-1.16-.91-1.96-.91-.73,0-1.34.24-1.83.73-.49.49-.77,1.14-.82,1.95Z"/>
      <path class="cls-19" d="m825.34,170.53l-3.55-9.33h1.67l2,5.59c.22.6.42,1.23.6,1.88.14-.49.34-1.08.59-1.78l2.07-5.7h1.63l-3.53,9.33h-1.48Z"/>
      <path class="cls-19" d="m837.74,167.53l1.63.2c-.26.96-.74,1.7-1.43,2.22s-1.59.79-2.67.79c-1.37,0-2.45-.42-3.25-1.26-.8-.84-1.2-2.02-1.2-3.54s.4-2.79,1.21-3.66,1.86-1.3,3.15-1.3,2.27.42,3.06,1.27,1.19,2.04,1.19,3.59c0,.09,0,.23,0,.42h-6.96c.06,1.03.35,1.81.87,2.36s1.17.82,1.95.82c.58,0,1.08-.15,1.49-.46s.74-.79.98-1.46Zm-5.19-2.56h5.21c-.07-.79-.27-1.37-.6-1.77-.5-.61-1.16-.91-1.96-.91-.73,0-1.34.24-1.83.73-.5.49-.77,1.14-.82,1.95Z"/>
      <path class="cls-19" d="m841.24,170.53v-12.88h1.58v12.88h-1.58Z"/>
      <path class="cls-19" d="m844.62,165.87c0-1.73.48-3.01,1.44-3.84.8-.69,1.78-1.04,2.94-1.04,1.28,0,2.33.42,3.15,1.26s1.22,2,1.22,3.48c0,1.2-.18,2.15-.54,2.83-.36.69-.88,1.22-1.57,1.6-.69.38-1.44.57-2.25.57-1.31,0-2.36-.42-3.17-1.26-.81-.84-1.21-2.04-1.21-3.62Zm1.63,0c0,1.2.26,2.09.78,2.69s1.18.89,1.97.89,1.44-.3,1.96-.9.78-1.51.78-2.73c0-1.15-.26-2.03-.79-2.62-.52-.59-1.18-.89-1.96-.89s-1.45.3-1.97.89-.78,1.49-.78,2.68Z"/>
      <path class="cls-19" d="m855.14,174.11v-12.91h1.44v1.21c.34-.47.72-.83,1.15-1.07s.95-.36,1.55-.36c.8,0,1.5.21,2.11.62s1.07.99,1.38,1.74.46,1.57.46,2.46c0,.96-.17,1.81-.51,2.58s-.84,1.35-1.49,1.76-1.34.61-2.06.61c-.53,0-1-.11-1.42-.33s-.76-.5-1.03-.84v4.54h-1.58Zm1.43-8.19c0,1.2.24,2.09.73,2.66s1.08.86,1.77.86,1.3-.3,1.81-.89.75-1.52.75-2.76-.24-2.08-.73-2.67-1.07-.89-1.75-.89-1.27.31-1.79.94-.78,1.55-.78,2.75Z"/>
      <path class="cls-19" d="m810.97,190.72l.23,1.4c-.45.09-.84.14-1.2.14-.57,0-1.02-.09-1.34-.27s-.54-.42-.67-.72-.19-.92-.19-1.87v-5.37h-1.16v-1.23h1.16v-2.31l1.57-.95v3.26h1.59v1.23h-1.59v5.46c0,.45.03.74.08.87.05.13.15.23.27.31.13.08.31.11.54.11.18,0,.41-.02.69-.06Z"/>
      <path class="cls-19" d="m812.48,192.13v-12.88h1.58v4.62c.74-.86,1.67-1.28,2.79-1.28.69,0,1.29.14,1.8.41s.87.65,1.09,1.13.33,1.18.33,2.09v5.92h-1.58v-5.92c0-.79-.17-1.37-.51-1.73s-.83-.54-1.45-.54c-.47,0-.91.12-1.32.36s-.71.57-.88.99-.26.99-.26,1.72v5.11h-1.58Z"/>
      <path class="cls-19" d="m828.76,189.13l1.63.2c-.26.96-.73,1.7-1.43,2.22s-1.59.79-2.67.79c-1.37,0-2.45-.42-3.25-1.26s-1.2-2.02-1.2-3.54.4-2.79,1.21-3.66,1.86-1.3,3.15-1.3,2.27.42,3.06,1.27,1.19,2.04,1.19,3.59c0,.09,0,.23,0,.42h-6.96c.06,1.03.35,1.81.87,2.36s1.17.82,1.95.82c.58,0,1.08-.15,1.49-.46s.73-.79.97-1.46Zm-5.19-2.56h5.21c-.07-.79-.27-1.37-.6-1.77-.5-.61-1.16-.91-1.96-.91-.73,0-1.34.24-1.83.73s-.77,1.14-.82,1.95Z"/>
      <path class="cls-19" d="m831.74,187.47c0-1.73.48-3.01,1.44-3.84.8-.69,1.78-1.04,2.94-1.04,1.28,0,2.33.42,3.15,1.26s1.22,2,1.22,3.48c0,1.2-.18,2.15-.54,2.83-.36.69-.88,1.22-1.57,1.6-.69.38-1.44.57-2.25.57-1.31,0-2.36-.42-3.17-1.26-.8-.84-1.21-2.04-1.21-3.62Zm1.63,0c0,1.2.26,2.09.78,2.69s1.18.89,1.97.89,1.44-.3,1.96-.9.78-1.51.78-2.73c0-1.15-.26-2.03-.79-2.62-.53-.59-1.18-.89-1.96-.89s-1.45.3-1.97.89-.78,1.49-.78,2.68Z"/>
      <path class="cls-19" d="m842.26,192.13v-9.33h1.42v1.42c.36-.66.7-1.1,1.01-1.31.31-.21.65-.32,1.02-.32.53,0,1.08.17,1.63.51l-.54,1.47c-.39-.23-.77-.34-1.16-.34-.35,0-.66.1-.93.31s-.47.5-.59.87c-.18.56-.26,1.18-.26,1.85v4.89h-1.58Z"/>
      <path class="cls-19" d="m848.77,195.73l-.18-1.49c.35.09.65.14.91.14.35,0,.63-.06.84-.18s.38-.28.52-.49c.1-.16.26-.55.48-1.18.03-.09.08-.22.14-.39l-3.54-9.35h1.71l1.94,5.41c.25.69.48,1.41.68,2.16.18-.73.4-1.44.65-2.13l2-5.44h1.58l-3.55,9.49c-.38,1.03-.68,1.73-.89,2.12-.28.52-.6.9-.97,1.15s-.8.36-1.3.36c-.3,0-.64-.06-1.02-.19Z"/>
    </g>
  </g>
  <g>
    <polyline class="cls-8" points="830.66 212.5 830.66 258.45 156.49 258.45 156.49 305.32"/>
    <polygon class="cls-20" points="151.5 303.87 156.49 312.5 161.48 303.87 151.5 303.87"/>
  </g>
  <g>
    <rect class="cls-7" x="69" y="312.5" width="175" height="75"/>
    <text class="cls-2" transform="translate(107.5 345.53)"><tspan class="cls-17" x="0" y="0">I</tspan><tspan class="cls-18" x="4.96" y="0">d</tspan><tspan class="cls-22" x="14.84" y="0">e</tspan><tspan class="cls-16" x="24.73" y="0">n</tspan><tspan class="cls-10" x="34.45" y="0">t</tspan><tspan class="cls-21" x="39.41" y="0">i</tspan><tspan class="cls-23" x="43.25" y="0">t</tspan><tspan class="cls-1" x="48.61" y="0">f</tspan><tspan class="cls-3" x="54.06" y="0">y </tspan><tspan class="cls-13" x="68.1" y="0">t</tspan><tspan class="cls-11" x="73.06" y="0">h</tspan><tspan class="cls-3" x="82.95" y="0">e </tspan><tspan class="cls-6" x="-14.48" y="21.6">r</tspan><tspan class="cls-9" x="-8.62" y="21.6">e</tspan><tspan class="cls-24" x="1.33" y="21.6">se</tspan><tspan class="cls-15" x="20.12" y="21.6">a</tspan><tspan class="cls-6" x="29.98" y="21.6">r</tspan><tspan class="cls-12" x="35.85" y="21.6">c</tspan><tspan class="cls-3" x="44.9" y="21.6">h </tspan><tspan class="cls-5" x="59.94" y="21.6">d</tspan><tspan class="cls-9" x="69.82" y="21.6">e</tspan><tspan class="cls-18" x="79.77" y="21.6">s</tspan><tspan class="cls-9" x="88.64" y="21.6">i</tspan><tspan class="cls-14" x="92.58" y="21.6">g</tspan><tspan class="cls-4" x="102.45" y="21.6">n</tspan></text>
  </g>
  <g>
    <rect class="cls-7" x="294" y="312.5" width="175" height="75"/>
    <g>
      <path class="cls-19" d="m364.01,345.53v-12.88h4.44c1,0,1.77.06,2.29.18.74.17,1.37.48,1.89.92.68.57,1.19,1.31,1.52,2.2s.5,1.91.5,3.06c0,.98-.11,1.85-.34,2.6s-.52,1.38-.88,1.88-.75.88-1.17,1.17-.94.5-1.54.65-1.29.22-2.07.22h-4.65Zm1.71-1.52h2.75c.85,0,1.52-.08,2-.24s.87-.38,1.16-.67c.4-.4.72-.95.95-1.63s.34-1.51.34-2.48c0-1.35-.22-2.38-.66-3.11s-.98-1.21-1.61-1.45c-.46-.18-1.19-.26-2.21-.26h-2.71v9.84Z"/>
      <path class="cls-19" d="m382.79,344.38c-.59.5-1.15.85-1.69,1.05-.54.21-1.12.31-1.74.31-1.03,0-1.81-.25-2.36-.75s-.83-1.14-.83-1.92c0-.46.1-.87.31-1.25.21-.38.48-.68.82-.91.34-.23.72-.4,1.14-.52.31-.08.78-.16,1.41-.24,1.28-.15,2.22-.33,2.82-.54,0-.22,0-.35,0-.41,0-.64-.15-1.1-.45-1.36-.4-.36-1-.54-1.8-.54-.74,0-1.29.13-1.65.39-.36.26-.62.72-.79,1.38l-1.55-.21c.14-.66.37-1.2.69-1.6s.79-.72,1.4-.94,1.32-.33,2.12-.33,1.44.09,1.94.28.86.42,1.1.71.4.64.49,1.08c.05.27.08.76.08,1.46v2.11c0,1.47.03,2.4.1,2.79.07.39.2.76.4,1.12h-1.65c-.16-.33-.27-.71-.32-1.15Zm-.13-3.53c-.57.23-1.44.43-2.58.6-.65.09-1.11.2-1.38.32s-.48.29-.62.51-.22.48-.22.75c0,.42.16.77.48,1.05.32.28.79.42,1.4.42s1.15-.13,1.63-.4.82-.63,1.05-1.09c.17-.36.25-.88.25-1.58v-.58Z"/>
      <path class="cls-19" d="m389.92,344.12l.23,1.4c-.45.09-.84.14-1.2.14-.57,0-1.02-.09-1.34-.27s-.54-.42-.67-.72-.19-.92-.19-1.87v-5.37h-1.16v-1.23h1.16v-2.31l1.57-.95v3.26h1.59v1.23h-1.59v5.46c0,.45.03.74.08.87s.15.23.27.31.31.11.54.11c.18,0,.41-.02.7-.06Z"/>
      <path class="cls-19" d="m397.62,344.38c-.59.5-1.15.85-1.69,1.05s-1.12.31-1.74.31c-1.03,0-1.81-.25-2.37-.75s-.83-1.14-.83-1.92c0-.46.1-.87.31-1.25s.48-.68.82-.91.72-.4,1.14-.52c.31-.08.78-.16,1.41-.24,1.28-.15,2.22-.33,2.82-.54,0-.22,0-.35,0-.41,0-.64-.15-1.1-.45-1.36-.4-.36-1.01-.54-1.8-.54-.74,0-1.29.13-1.65.39s-.62.72-.79,1.38l-1.55-.21c.14-.66.37-1.2.69-1.6s.79-.72,1.4-.94,1.31-.33,2.12-.33,1.45.09,1.94.28.86.42,1.1.71.4.64.49,1.08c.05.27.08.76.08,1.46v2.11c0,1.47.03,2.4.1,2.79s.2.76.4,1.12h-1.65c-.16-.33-.27-.71-.32-1.15Zm-.13-3.53c-.57.23-1.44.43-2.58.6-.65.09-1.11.2-1.38.32s-.48.29-.62.51-.22.48-.22.75c0,.42.16.77.48,1.05s.79.42,1.4.42,1.15-.13,1.63-.4.82-.63,1.04-1.09c.17-.36.26-.88.26-1.58v-.58Z"/>
      <path class="cls-19" d="m353.32,363.71l1.56.2c-.17,1.07-.6,1.91-1.31,2.52-.7.61-1.56.91-2.58.91-1.28,0-2.3-.42-3.08-1.25-.78-.83-1.16-2.03-1.16-3.59,0-1.01.17-1.89.5-2.65s.84-1.32,1.52-1.7c.68-.38,1.43-.57,2.23-.57,1.01,0,1.84.26,2.49.77s1.06,1.24,1.24,2.18l-1.54.24c-.15-.63-.41-1.1-.78-1.42-.37-.32-.82-.47-1.35-.47-.8,0-1.44.29-1.94.86s-.75,1.48-.75,2.71.24,2.17.72,2.73,1.11.85,1.88.85c.62,0,1.14-.19,1.56-.57s.68-.97.79-1.76Z"/>
      <path class="cls-19" d="m355.83,362.47c0-1.73.48-3.01,1.44-3.84.8-.69,1.78-1.04,2.94-1.04,1.28,0,2.33.42,3.15,1.26s1.22,2,1.22,3.48c0,1.2-.18,2.15-.54,2.83s-.88,1.22-1.57,1.6-1.44.57-2.25.57c-1.31,0-2.36-.42-3.17-1.26s-1.21-2.04-1.21-3.62Zm1.62,0c0,1.2.26,2.09.78,2.69s1.18.89,1.97.89,1.44-.3,1.96-.9.78-1.51.78-2.73c0-1.15-.26-2.03-.79-2.62s-1.18-.89-1.96-.89-1.45.3-1.97.89-.78,1.49-.78,2.68Z"/>
      <path class="cls-19" d="m366.34,367.13v-12.88h1.58v12.88h-1.58Z"/>
      <path class="cls-19" d="m376.66,364.13l1.63.2c-.26.96-.74,1.7-1.43,2.22s-1.59.79-2.67.79c-1.37,0-2.45-.42-3.25-1.26s-1.2-2.02-1.2-3.54.4-2.79,1.21-3.66,1.86-1.3,3.15-1.3,2.27.42,3.06,1.27,1.19,2.04,1.19,3.59c0,.09,0,.23,0,.42h-6.96c.06,1.03.35,1.81.87,2.36s1.17.82,1.95.82c.58,0,1.07-.15,1.48-.46s.74-.79.98-1.46Zm-5.2-2.56h5.21c-.07-.79-.27-1.37-.6-1.77-.5-.61-1.16-.91-1.96-.91-.73,0-1.34.24-1.83.73s-.77,1.14-.82,1.95Z"/>
      <path class="cls-19" d="m386.3,363.71l1.56.2c-.17,1.07-.61,1.91-1.3,2.52-.7.61-1.56.91-2.58.91-1.28,0-2.3-.42-3.08-1.25-.78-.83-1.17-2.03-1.17-3.59,0-1.01.17-1.89.5-2.65s.84-1.32,1.53-1.7c.68-.38,1.42-.57,2.23-.57,1.01,0,1.84.26,2.49.77s1.06,1.24,1.24,2.18l-1.54.24c-.15-.63-.41-1.1-.78-1.42-.37-.32-.82-.47-1.35-.47-.8,0-1.44.29-1.94.86s-.75,1.48-.75,2.71.24,2.17.72,2.73,1.11.85,1.88.85c.62,0,1.14-.19,1.56-.57s.68-.97.79-1.76Z"/>
      <path class="cls-19" d="m392.72,365.72l.23,1.4c-.45.09-.84.14-1.2.14-.57,0-1.02-.09-1.34-.27s-.54-.42-.67-.72-.19-.92-.19-1.87v-5.37h-1.16v-1.23h1.16v-2.31l1.57-.95v3.26h1.59v1.23h-1.59v5.46c0,.45.03.74.08.87s.15.23.27.31.31.11.54.11c.18,0,.41-.02.7-.06Z"/>
      <path class="cls-19" d="m394.23,356.07v-1.82h1.58v1.82h-1.58Zm0,11.07v-9.33h1.58v9.33h-1.58Z"/>
      <path class="cls-19" d="m397.58,362.47c0-1.73.48-3.01,1.44-3.84.8-.69,1.78-1.04,2.94-1.04,1.28,0,2.33.42,3.15,1.26s1.22,2,1.22,3.48c0,1.2-.18,2.15-.54,2.83-.36.69-.88,1.22-1.57,1.6-.69.38-1.44.57-2.25.57-1.31,0-2.36-.42-3.17-1.26-.81-.84-1.21-2.04-1.21-3.62Zm1.63,0c0,1.2.26,2.09.78,2.69s1.18.89,1.97.89,1.44-.3,1.96-.9.78-1.51.78-2.73c0-1.15-.26-2.03-.79-2.62-.52-.59-1.18-.89-1.96-.89s-1.45.3-1.97.89-.78,1.49-.78,2.68Z"/>
      <path class="cls-19" d="m408.11,367.13v-9.33h1.42v1.33c.69-1.03,1.68-1.54,2.97-1.54.56,0,1.08.1,1.55.3s.83.47,1.06.8.4.72.49,1.17c.06.29.09.81.09,1.54v5.74h-1.58v-5.68c0-.64-.06-1.13-.19-1.45s-.34-.57-.65-.76-.68-.29-1.1-.29c-.67,0-1.25.21-1.74.64s-.73,1.24-.73,2.43v5.1h-1.58Z"/>
    </g>
  </g>
  <g>
    <rect class="cls-7" x="519" y="312.5" width="175" height="75"/>
    <g>
      <path class="cls-19" d="m586.5,345.53v-12.88h4.44c1,0,1.77.06,2.29.18.74.17,1.37.48,1.89.92.68.57,1.19,1.31,1.53,2.2.34.89.5,1.91.5,3.06,0,.98-.11,1.85-.34,2.6s-.52,1.38-.88,1.88-.75.88-1.17,1.17c-.42.28-.94.5-1.54.65-.6.15-1.29.22-2.07.22h-4.65Zm1.71-1.52h2.75c.85,0,1.52-.08,2-.24.48-.16.87-.38,1.16-.67.4-.4.72-.95.94-1.63.23-.68.34-1.51.34-2.48,0-1.35-.22-2.38-.66-3.11-.44-.72-.98-1.21-1.61-1.45-.46-.18-1.19-.26-2.21-.26h-2.71v9.84Z"/>
      <path class="cls-19" d="m605.28,344.38c-.59.5-1.15.85-1.69,1.05s-1.12.31-1.75.31c-1.03,0-1.81-.25-2.36-.75s-.83-1.14-.83-1.92c0-.46.1-.87.31-1.25s.48-.68.82-.91.72-.4,1.14-.52c.31-.08.78-.16,1.41-.24,1.28-.15,2.22-.33,2.82-.54,0-.22,0-.35,0-.41,0-.64-.15-1.1-.45-1.36-.4-.36-1-.54-1.8-.54-.74,0-1.29.13-1.65.39s-.62.72-.79,1.38l-1.55-.21c.14-.66.37-1.2.7-1.6s.79-.72,1.4-.94,1.32-.33,2.12-.33,1.44.09,1.94.28.87.42,1.1.71.4.64.49,1.08c.05.27.08.76.08,1.46v2.11c0,1.47.03,2.4.1,2.79s.2.76.4,1.12h-1.65c-.16-.33-.27-.71-.32-1.15Zm-.13-3.53c-.57.23-1.44.43-2.58.6-.65.09-1.11.2-1.38.32s-.48.29-.62.51-.22.48-.22.75c0,.42.16.77.48,1.05s.79.42,1.4.42,1.15-.13,1.62-.4.82-.63,1.05-1.09c.17-.36.25-.88.25-1.58v-.58Z"/>
      <path class="cls-19" d="m612.41,344.12l.23,1.4c-.45.09-.84.14-1.2.14-.57,0-1.02-.09-1.34-.27s-.54-.42-.67-.72-.19-.92-.19-1.87v-5.37h-1.16v-1.23h1.16v-2.31l1.57-.95v3.26h1.59v1.23h-1.59v5.46c0,.45.03.74.08.87.06.13.15.23.27.31.12.08.31.11.54.11.18,0,.41-.02.69-.06Z"/>
      <path class="cls-19" d="m620.12,344.38c-.59.5-1.15.85-1.69,1.05-.54.21-1.12.31-1.74.31-1.03,0-1.81-.25-2.36-.75s-.83-1.14-.83-1.92c0-.46.1-.87.31-1.25.21-.38.48-.68.82-.91.34-.23.72-.4,1.14-.52.31-.08.78-.16,1.41-.24,1.28-.15,2.22-.33,2.82-.54,0-.22,0-.35,0-.41,0-.64-.15-1.1-.45-1.36-.4-.36-1-.54-1.8-.54-.74,0-1.29.13-1.65.39-.36.26-.62.72-.79,1.38l-1.55-.21c.14-.66.37-1.2.69-1.6s.79-.72,1.4-.94,1.32-.33,2.12-.33,1.44.09,1.94.28.86.42,1.1.71.4.64.49,1.08c.05.27.08.76.08,1.46v2.11c0,1.47.03,2.4.1,2.79.07.39.2.76.4,1.12h-1.65c-.16-.33-.27-.71-.32-1.15Zm-.13-3.53c-.57.23-1.44.43-2.58.6-.65.09-1.11.2-1.38.32s-.48.29-.62.51-.22.48-.22.75c0,.42.16.77.48,1.05.32.28.79.42,1.4.42s1.15-.13,1.63-.4.82-.63,1.05-1.09c.17-.36.25-.88.25-1.58v-.58Z"/>
      <path class="cls-19" d="m581.77,365.98c-.59.5-1.15.85-1.69,1.05-.54.21-1.12.31-1.75.31-1.03,0-1.81-.25-2.36-.75s-.83-1.14-.83-1.92c0-.46.1-.87.31-1.25.21-.38.48-.68.82-.91.34-.23.72-.4,1.14-.52.31-.08.78-.16,1.41-.24,1.28-.15,2.22-.33,2.82-.54,0-.22,0-.35,0-.41,0-.64-.15-1.1-.45-1.36-.4-.36-1-.54-1.8-.54-.74,0-1.29.13-1.65.39-.35.26-.62.72-.79,1.38l-1.55-.21c.14-.66.37-1.2.69-1.6s.79-.72,1.4-.94,1.32-.33,2.12-.33,1.44.09,1.94.28.86.42,1.1.71.4.64.49,1.08c.05.27.08.76.08,1.46v2.11c0,1.47.03,2.4.1,2.79.07.39.2.76.4,1.12h-1.65c-.16-.33-.27-.71-.32-1.15Zm-.13-3.53c-.57.23-1.44.43-2.58.6-.65.09-1.11.2-1.38.32s-.48.29-.62.51-.22.48-.22.75c0,.42.16.77.48,1.05.32.28.79.42,1.4.42s1.15-.13,1.63-.4.82-.63,1.05-1.09c.17-.36.25-.88.25-1.58v-.58Z"/>
      <path class="cls-19" d="m585.54,367.13v-9.33h1.42v1.33c.69-1.03,1.68-1.54,2.97-1.54.56,0,1.08.1,1.55.3s.82.47,1.06.8.4.72.49,1.17c.06.29.09.81.09,1.54v5.74h-1.58v-5.68c0-.64-.06-1.13-.18-1.45s-.34-.57-.66-.76-.68-.29-1.1-.29c-.67,0-1.26.21-1.75.64s-.73,1.24-.73,2.43v5.1h-1.58Z"/>
      <path class="cls-19" d="m601.49,365.98c-.59.5-1.15.85-1.69,1.05s-1.12.31-1.74.31c-1.03,0-1.81-.25-2.37-.75s-.83-1.14-.83-1.92c0-.46.1-.87.31-1.25s.48-.68.82-.91.72-.4,1.14-.52c.31-.08.78-.16,1.41-.24,1.28-.15,2.22-.33,2.82-.54,0-.22,0-.35,0-.41,0-.64-.15-1.1-.45-1.36-.4-.36-1.01-.54-1.8-.54-.74,0-1.29.13-1.65.39s-.62.72-.79,1.38l-1.55-.21c.14-.66.37-1.2.69-1.6s.79-.72,1.4-.94,1.31-.33,2.12-.33,1.45.09,1.94.28.86.42,1.1.71.4.64.49,1.08c.05.27.08.76.08,1.46v2.11c0,1.47.03,2.4.1,2.79s.2.76.4,1.12h-1.65c-.16-.33-.27-.71-.32-1.15Zm-.13-3.53c-.57.23-1.44.43-2.58.6-.65.09-1.11.2-1.38.32s-.48.29-.62.51-.22.48-.22.75c0,.42.16.77.48,1.05s.79.42,1.4.42,1.15-.13,1.63-.4.82-.63,1.04-1.09c.17-.36.26-.88.26-1.58v-.58Z"/>
      <path class="cls-19" d="m605.23,367.13v-12.88h1.58v12.88h-1.58Z"/>
      <path class="cls-19" d="m609.02,370.73l-.18-1.49c.35.09.65.14.91.14.35,0,.63-.06.84-.18s.38-.28.52-.49c.1-.16.26-.55.48-1.18.03-.09.08-.22.14-.39l-3.54-9.35h1.71l1.94,5.41c.25.69.48,1.41.68,2.16.18-.73.4-1.44.65-2.13l2-5.44h1.58l-3.55,9.49c-.38,1.03-.68,1.73-.89,2.12-.28.52-.6.9-.97,1.15s-.8.36-1.3.36c-.3,0-.64-.06-1.02-.19Z"/>
      <path class="cls-19" d="m617.27,364.35l1.56-.25c.09.63.33,1.11.73,1.44.4.33.96.5,1.68.5s1.27-.15,1.62-.44.53-.64.53-1.04c0-.36-.16-.64-.47-.84-.22-.14-.76-.32-1.62-.54-1.16-.29-1.96-.55-2.41-.76-.45-.21-.79-.51-1.02-.89-.23-.38-.35-.8-.35-1.25,0-.42.09-.8.29-1.16.19-.35.45-.65.78-.88.25-.18.58-.34,1.01-.46.43-.13.88-.19,1.37-.19.73,0,1.38.11,1.93.32.55.21.96.5,1.23.86s.45.84.54,1.45l-1.55.21c-.07-.48-.27-.86-.61-1.12-.34-.27-.81-.4-1.43-.4-.73,0-1.25.12-1.56.36s-.47.52-.47.84c0,.21.06.39.19.55.13.17.33.31.61.42.16.06.62.19,1.4.4,1.12.3,1.9.54,2.34.73.44.19.79.47,1.04.83s.38.81.38,1.35-.15,1.02-.46,1.49c-.31.47-.75.83-1.33,1.08s-1.24.38-1.97.38c-1.21,0-2.14-.25-2.77-.76-.64-.5-1.04-1.25-1.22-2.24Z"/>
      <path class="cls-19" d="m626.78,356.07v-1.82h1.58v1.82h-1.58Zm0,11.07v-9.33h1.58v9.33h-1.58Z"/>
      <path class="cls-19" d="m630.04,364.35l1.56-.25c.09.63.33,1.11.73,1.44s.96.5,1.68.5,1.27-.15,1.62-.44.53-.64.53-1.04c0-.36-.16-.64-.47-.84-.22-.14-.76-.32-1.62-.54-1.16-.29-1.96-.55-2.41-.76s-.79-.51-1.02-.89-.35-.8-.35-1.25c0-.42.1-.8.29-1.16s.45-.65.78-.88c.25-.18.58-.34,1.01-.46s.88-.19,1.37-.19c.73,0,1.38.11,1.93.32s.96.5,1.23.86.45.84.54,1.45l-1.55.21c-.07-.48-.27-.86-.61-1.12s-.81-.4-1.43-.4c-.73,0-1.24.12-1.55.36s-.47.52-.47.84c0,.21.06.39.19.55.13.17.33.31.61.42.16.06.62.19,1.4.4,1.12.3,1.9.54,2.34.73s.79.47,1.04.83.38.81.38,1.35-.15,1.02-.46,1.49-.75.83-1.33,1.08-1.24.38-1.97.38c-1.21,0-2.14-.25-2.77-.76s-1.04-1.25-1.22-2.24Z"/>
    </g>
  </g>
  <g>
    <line class="cls-8" x1="244" y1="350" x2="286.82" y2="350"/>
    <polygon class="cls-20" points="285.37 354.99 294 350 285.37 345.01 285.37 354.99"/>
  </g>
  <g>
    <line class="cls-8" x1="469" y1="350" x2="511.82" y2="350"/>
    <polygon class="cls-20" points="510.37 354.99 519 350 510.37 345.01 510.37 354.99"/>
  </g>
  <g>
    <line class="cls-8" x1="244" y1="175" x2="286.82" y2="175"/>
    <polygon class="cls-20" points="285.37 179.99 294 175 285.37 170.01 285.37 179.99"/>
  </g>
  <g>
    <line class="cls-8" x1="469" y1="175" x2="511.82" y2="175"/>
    <polygon class="cls-20" points="510.37 179.99 519 175 510.37 170.01 510.37 179.99"/>
  </g>
  <g>
    <line class="cls-8" x1="694" y1="175" x2="736.82" y2="175"/>
    <polygon class="cls-20" points="735.37 179.99 744 175 735.37 170.01 735.37 179.99"/>
  </g>
</svg>