<?xml version="1.0" encoding="UTF-8"?>
<svg id="graphics" xmlns="http://www.w3.org/2000/svg" viewBox="0 0 988 525">
  <defs>
    <style>
      .cls-1 {
        fill: #0333ff;
        font-size: 18px;
      }

      .cls-1, .cls-2 {
        font-family: Arial-BoldMT, Arial;
        font-weight: 700;
      }

      .cls-3, .cls-4 {
        fill: none;
        stroke: #1d1d1b;
        stroke-miterlimit: 10;
      }

      .cls-5 {
        font-family: ArialMT, Arial;
      }

      .cls-5, .cls-2 {
        font-size: 14px;
      }

      .cls-6 {
        fill-rule: evenodd;
      }

      .cls-4 {
        stroke-width: 2px;
      }
    </style>
  </defs>
  <g>
    <g>
      <line class="cls-4" x1="366.97" y1="348.28" x2="356.95" y2="365.64"/>
      <polyline class="cls-4" points="757.24 445.64 763.91 457.19 304.09 457.19 310.76 445.64"/>
      <line class="cls-4" x1="701.03" y1="348.28" x2="711.05" y2="365.64"/>
      <polyline class="cls-4" points="654.73 268.09 534 58.98 413.27 268.09"/>
      <line class="cls-3" x1="476.52" y1="158.54" x2="591.48" y2="158.54"/>
      <line class="cls-3" x1="419.05" y1="258.09" x2="648.95" y2="258.09"/>
      <line class="cls-3" x1="361.57" y1="357.64" x2="706.43" y2="357.64"/>
      <line class="cls-3" x1="311.1" y1="457.19" x2="727.82" y2="457.19"/>
    </g>
    <g>
      <path class="cls-6" d="M550.03,311.7c-2.82,0-5.25-1.05-5.79-2.39h11.59c-.55,1.34-2.98,2.39-5.79,2.39ZM534,290.39c-.62,0-1.12-.51-1.12-1.13s.5-1.13,1.12-1.13,1.12.51,1.12,1.13-.5,1.13-1.12,1.13ZM517.97,311.7c-2.82,0-5.25-1.05-5.79-2.39h11.59c-.55,1.34-2.98,2.39-5.79,2.39ZM517.97,290.55l4.13,17.64h-8.27l4.13-17.64s0,0,0,0,0,0,0,0ZM554.17,308.18h-8.27l4.13-17.64s0,0,0,0,0,0,0,0l4.13,17.64ZM555.32,308.18l-4.3-18.36h1.54c.31,0,.56-.25.56-.56s-.25-.56-.56-.56h-16.39c-.21-.79-.82-1.41-1.61-1.61v-5.16c0-.31-.25-.56-.56-.56s-.56.25-.56.56v5.16c-.79.21-1.4.82-1.61,1.61h-16.39c-.31,0-.56.25-.56.56s.25.56.56.56h1.54l-4.3,18.36h-1.74v.56c0,2.29,3.09,4.08,7.03,4.08s7.03-1.79,7.03-4.08v-.56h-1.74l-4.3-18.36h12.87c.21.79.82,1.41,1.61,1.61v31.15h-3.94c-1.24,0-2.25,1.01-2.25,2.26h1.12c0-.62.5-1.13,1.12-1.13h9c.62,0,1.12.51,1.12,1.13h1.12c0-1.25-1.01-2.26-2.25-2.26h-3.94v-31.15c.79-.21,1.4-.82,1.61-1.61h12.87l-4.3,18.36h-1.74v.56c0,2.29,3.09,4.08,7.03,4.08s7.03-1.79,7.03-4.08v-.56h-1.74Z"/>
      <rect x="520.5" y="325.22" width="27" height="1.12"/>
    </g>
    <g>
      <polygon class="cls-6" points="553.12 428.36 516 428.36 516 391.24 514.88 391.24 514.88 429.49 553.12 429.49 553.12 428.36"/>
      <path class="cls-6" d="M552,423.86h-6.75v-31.5h6.75v31.5ZM553.12,391.24h-9v33.75h9v-33.75Z"/>
      <path class="cls-6" d="M532.88,404.74h6.75v19.12h-6.75v-19.12ZM531.75,424.99h9v-21.38h-9v21.38Z"/>
      <path class="cls-6" d="M520.5,414.86h6.75v9h-6.75v-9ZM519.38,424.99h9v-11.25h-9v11.25Z"/>
      <polygon class="cls-6" points="519.79 409.61 536.24 393.16 536.25 393.17 536.25 393.17 536.25 398.54 537.38 398.54 537.38 391.24 530.09 391.24 530.09 392.36 535.44 392.36 535.45 392.37 535.45 392.37 519 408.82 519.79 409.61"/>
    </g>
  </g>
  <text transform="translate(286.51 292.83)"><tspan class="cls-1"><tspan x="0" y="0">Legal responsibilities</tspan></tspan><tspan class="cls-2"><tspan x="93.03" y="24.8">Obey the law!</tspan></tspan><tspan class="cls-5"><tspan x="-1.16" y="41.6">Play by the rules of the game.</tspan></tspan></text>
  <text transform="translate(247.5 390.39)"><tspan class="cls-1"><tspan x="0" y="0">Economic responsibilities</tspan></tspan><tspan class="cls-2"><tspan x="132.83" y="24.8">Be profitable!</tspan></tspan><tspan class="cls-5"><tspan x="-36.88" y="41.6">The foundation upon which all others rest.</tspan></tspan></text>
  <g>
    <path d="M595.34,289.33c.64-.1,1.39-.17,2.22-.17,1.5,0,2.57.35,3.27,1.01.72.66,1.14,1.59,1.14,2.9s-.41,2.4-1.16,3.14c-.76.75-2,1.16-3.57,1.16-.74,0-1.37-.04-1.89-.1v-7.95ZM596.38,296.48c.26.05.65.06,1.06.06,2.23,0,3.44-1.25,3.44-3.43.01-1.91-1.07-3.12-3.27-3.12-.54,0-.95.05-1.22.11v6.38Z"/>
    <path d="M604.47,289.87c.01.36-.25.65-.67.65-.37,0-.64-.29-.64-.65s.28-.66.66-.66.65.29.65.66ZM603.3,297.3v-5.8h1.06v5.8h-1.06Z"/>
    <path d="M611.11,291.5c-.02.42-.05.89-.05,1.6v3.37c0,1.33-.26,2.15-.83,2.65-.56.53-1.38.7-2.11.7s-1.46-.17-1.93-.48l.26-.8c.38.24.98.46,1.7.46,1.08,0,1.87-.56,1.87-2.03v-.65h-.02c-.32.54-.95.97-1.85.97-1.44,0-2.47-1.22-2.47-2.83,0-1.97,1.28-3.08,2.61-3.08,1.01,0,1.56.53,1.81,1.01h.02l.05-.88h.92ZM610.01,293.79c0-.18-.01-.34-.06-.48-.19-.61-.71-1.12-1.48-1.12-1.01,0-1.73.85-1.73,2.2,0,1.14.58,2.09,1.71,2.09.65,0,1.24-.41,1.46-1.08.06-.18.08-.38.08-.56v-1.04Z"/>
    <path d="M613.92,289.87c.01.36-.25.65-.67.65-.37,0-.64-.29-.64-.65s.28-.66.66-.66.65.29.65.66ZM612.74,297.3v-5.8h1.06v5.8h-1.06Z"/>
    <path d="M616.82,289.83v1.67h1.51v.8h-1.51v3.13c0,.72.2,1.13.79,1.13.28,0,.48-.04.61-.07l.05.79c-.2.08-.53.14-.94.14-.49,0-.89-.16-1.14-.44-.3-.31-.41-.83-.41-1.51v-3.17h-.9v-.8h.9v-1.39l1.03-.28Z"/>
    <path d="M622.73,297.3l-.08-.73h-.04c-.32.46-.95.86-1.78.86-1.17,0-1.77-.83-1.77-1.67,0-1.4,1.25-2.17,3.49-2.16v-.12c0-.48-.13-1.34-1.32-1.34-.54,0-1.1.17-1.51.43l-.24-.7c.48-.31,1.18-.52,1.91-.52,1.78,0,2.21,1.21,2.21,2.38v2.17c0,.5.02,1,.1,1.39h-.96ZM622.58,294.34c-1.15-.02-2.46.18-2.46,1.31,0,.68.46,1.01,1,1.01.75,0,1.24-.48,1.4-.97.04-.11.06-.23.06-.34v-1.01Z"/>
    <path d="M625.3,288.79h1.06v8.51h-1.06v-8.51Z"/>
    <path d="M630.68,293.31c0-.68-.01-1.27-.05-1.81h.92l.04,1.14h.05c.26-.78.9-1.27,1.61-1.27.12,0,.2.01.3.04v1c-.11-.02-.22-.04-.36-.04-.74,0-1.27.56-1.42,1.36-.02.14-.05.31-.05.49v3.09h-1.04v-3.99Z"/>
    <path d="M635.07,294.59c.02,1.43.94,2.01,1.99,2.01.75,0,1.21-.13,1.61-.3l.18.76c-.37.17-1.01.36-1.93.36-1.79,0-2.85-1.17-2.85-2.93s1.03-3.13,2.72-3.13c1.9,0,2.4,1.67,2.4,2.73,0,.22-.02.38-.04.49h-4.08ZM638.17,293.84c.01-.67-.28-1.71-1.46-1.71-1.07,0-1.54.98-1.62,1.71h3.08Z"/>
    <path d="M640.35,296.22c.31.2.86.42,1.39.42.77,0,1.13-.38,1.13-.86,0-.5-.3-.78-1.08-1.07-1.04-.37-1.54-.95-1.54-1.64,0-.94.75-1.7,2-1.7.59,0,1.1.17,1.43.36l-.26.77c-.23-.14-.65-.33-1.19-.33-.62,0-.97.36-.97.79,0,.48.35.7,1.1.98,1.01.38,1.52.89,1.52,1.75,0,1.02-.79,1.74-2.17,1.74-.64,0-1.22-.16-1.63-.4l.26-.8Z"/>
    <path d="M645.25,293.39c0-.74-.02-1.34-.05-1.9h.95l.05,1h.02c.43-.71,1.12-1.13,2.06-1.13,1.4,0,2.46,1.19,2.46,2.95,0,2.09-1.27,3.12-2.64,3.12-.77,0-1.44-.34-1.79-.91h-.02v3.15h-1.04v-6.28ZM646.29,294.94c0,.16.02.3.05.43.19.73.83,1.24,1.58,1.24,1.12,0,1.76-.91,1.76-2.24,0-1.16-.61-2.16-1.73-2.16-.72,0-1.39.52-1.6,1.31-.04.13-.07.29-.07.43v1Z"/>
    <path d="M657.33,294.35c0,2.15-1.49,3.08-2.89,3.08-1.57,0-2.78-1.15-2.78-2.99,0-1.94,1.27-3.08,2.88-3.08s2.79,1.21,2.79,2.99ZM652.72,294.41c0,1.27.73,2.23,1.76,2.23s1.76-.95,1.76-2.25c0-.98-.49-2.23-1.74-2.23s-1.79,1.15-1.79,2.25Z"/>
    <path d="M658.66,293.07c0-.6-.01-1.09-.05-1.57h.94l.06.96h.02c.29-.55.96-1.09,1.92-1.09.8,0,2.05.48,2.05,2.47v3.47h-1.06v-3.35c0-.94-.35-1.71-1.34-1.71-.7,0-1.24.49-1.42,1.08-.05.13-.07.31-.07.49v3.49h-1.06v-4.23Z"/>
    <path d="M665.18,296.22c.31.2.86.42,1.39.42.77,0,1.13-.38,1.13-.86,0-.5-.3-.78-1.08-1.07-1.04-.37-1.54-.95-1.54-1.64,0-.94.75-1.7,2-1.7.59,0,1.1.17,1.43.36l-.26.77c-.23-.14-.65-.33-1.19-.33-.62,0-.97.36-.97.79,0,.48.35.7,1.1.98,1.01.38,1.52.89,1.52,1.75,0,1.02-.79,1.74-2.17,1.74-.64,0-1.22-.16-1.63-.4l.26-.8Z"/>
    <path d="M671.25,289.87c.01.36-.25.65-.67.65-.37,0-.64-.29-.64-.65s.28-.66.66-.66.65.29.65.66ZM670.08,297.3v-5.8h1.06v5.8h-1.06Z"/>
    <path d="M672.83,297.3c.02-.4.05-.98.05-1.5v-7.02h1.04v3.65h.02c.37-.65,1.04-1.07,1.98-1.07,1.44,0,2.46,1.2,2.45,2.96,0,2.07-1.31,3.11-2.6,3.11-.84,0-1.51-.32-1.94-1.09h-.04l-.05.96h-.91ZM673.93,294.98c0,.13.02.26.05.38.2.73.82,1.24,1.58,1.24,1.1,0,1.76-.9,1.76-2.23,0-1.16-.6-2.16-1.73-2.16-.72,0-1.39.49-1.61,1.29-.02.12-.06.26-.06.43v1.04Z"/>
    <path d="M680.89,289.87c.01.36-.25.65-.67.65-.37,0-.64-.29-.64-.65s.28-.66.66-.66.65.29.65.66ZM679.71,297.3v-5.8h1.06v5.8h-1.06Z"/>
    <path d="M682.52,288.79h1.06v8.51h-1.06v-8.51Z"/>
    <path d="M686.53,289.87c.01.36-.25.65-.67.65-.37,0-.64-.29-.64-.65s.28-.66.66-.66.65.29.65.66ZM685.35,297.3v-5.8h1.06v5.8h-1.06Z"/>
    <path d="M689.43,289.83v1.67h1.51v.8h-1.51v3.13c0,.72.2,1.13.79,1.13.28,0,.48-.04.61-.07l.05.79c-.2.08-.53.14-.94.14-.49,0-.89-.16-1.14-.44-.3-.31-.41-.83-.41-1.51v-3.17h-.9v-.8h.9v-1.39l1.03-.28Z"/>
    <path d="M692.62,291.5l1.27,3.43c.13.38.28.84.37,1.19h.02c.11-.35.23-.79.37-1.21l1.15-3.41h1.12l-1.58,4.14c-.76,1.99-1.27,3.01-1.99,3.63-.52.46-1.03.64-1.29.68l-.26-.89c.26-.08.61-.25.92-.52.29-.23.65-.64.89-1.18.05-.11.08-.19.08-.25s-.02-.14-.07-.28l-2.15-5.35h1.15Z"/>
    <path d="M697.93,292.46c0-.44.3-.76.72-.76s.7.31.71.76c0,.42-.28.74-.72.74-.42,0-.71-.32-.71-.74ZM697.93,296.69c0-.44.3-.76.72-.76s.7.31.71.76c0,.42-.28.74-.72.74-.42,0-.71-.32-.71-.74Z"/>
    <path d="M704.55,294.76l-.84,2.54h-1.08l2.75-8.08h1.26l2.76,8.08h-1.12l-.86-2.54h-2.87ZM707.2,293.95l-.79-2.33c-.18-.53-.3-1.01-.42-1.48h-.02c-.12.48-.25.97-.41,1.46l-.79,2.34h2.43Z"/>
    <path d="M710.47,297.3c.02-.4.05-.98.05-1.5v-7.02h1.04v3.65h.02c.37-.65,1.04-1.07,1.98-1.07,1.44,0,2.46,1.2,2.45,2.96,0,2.07-1.31,3.11-2.6,3.11-.84,0-1.51-.32-1.94-1.09h-.04l-.05.96h-.91ZM711.56,294.98c0,.13.02.26.05.38.2.73.82,1.24,1.58,1.24,1.1,0,1.76-.9,1.76-2.23,0-1.16-.6-2.16-1.73-2.16-.72,0-1.39.49-1.61,1.29-.02.12-.06.26-.06.43v1.04Z"/>
    <path d="M718.52,289.87c.01.36-.25.65-.67.65-.37,0-.64-.29-.64-.65s.28-.66.66-.66.65.29.65.66ZM717.34,297.3v-5.8h1.06v5.8h-1.06Z"/>
    <path d="M725.16,288.79v7.02c0,.52.01,1.1.05,1.5h-.95l-.05-1.01h-.02c-.32.65-1.03,1.14-1.98,1.14-1.4,0-2.48-1.19-2.48-2.95-.01-1.93,1.19-3.12,2.6-3.12.89,0,1.49.42,1.75.89h.02v-3.47h1.06ZM724.11,293.86c0-.13-.01-.31-.05-.44-.16-.67-.73-1.22-1.52-1.22-1.09,0-1.74.96-1.74,2.24,0,1.18.58,2.15,1.72,2.15.71,0,1.35-.47,1.55-1.26.04-.14.05-.29.05-.46v-1.01Z"/>
    <path d="M728.09,289.87c.01.36-.25.65-.67.65-.37,0-.64-.29-.64-.65s.28-.66.66-.66.65.29.65.66ZM726.92,297.3v-5.8h1.06v5.8h-1.06Z"/>
    <path d="M729.73,293.07c0-.6-.01-1.09-.05-1.57h.94l.06.96h.02c.29-.55.96-1.09,1.92-1.09.8,0,2.05.48,2.05,2.47v3.47h-1.06v-3.35c0-.94-.35-1.71-1.34-1.71-.7,0-1.24.49-1.42,1.08-.05.13-.07.31-.07.49v3.49h-1.06v-4.23Z"/>
    <path d="M741.39,291.5c-.02.42-.05.89-.05,1.6v3.37c0,1.33-.26,2.15-.83,2.65-.56.53-1.38.7-2.11.7s-1.46-.17-1.93-.48l.26-.8c.38.24.98.46,1.7.46,1.08,0,1.87-.56,1.87-2.03v-.65h-.02c-.32.54-.95.97-1.85.97-1.44,0-2.47-1.22-2.47-2.83,0-1.97,1.28-3.08,2.61-3.08,1.01,0,1.56.53,1.81,1.01h.02l.05-.88h.92ZM740.29,293.79c0-.18-.01-.34-.06-.48-.19-.61-.71-1.12-1.48-1.12-1.01,0-1.73.85-1.73,2.2,0,1.14.58,2.09,1.71,2.09.65,0,1.24-.41,1.46-1.08.06-.18.08-.38.08-.56v-1.04Z"/>
    <path d="M745.59,297.3c.02-.4.05-.98.05-1.5v-7.02h1.04v3.65h.02c.37-.65,1.04-1.07,1.98-1.07,1.44,0,2.46,1.2,2.45,2.96,0,2.07-1.31,3.11-2.6,3.11-.84,0-1.51-.32-1.94-1.09h-.04l-.05.96h-.91ZM746.68,294.98c0,.13.02.26.05.38.2.73.82,1.24,1.58,1.24,1.1,0,1.76-.9,1.76-2.23,0-1.16-.6-2.16-1.73-2.16-.72,0-1.39.49-1.61,1.29-.02.12-.06.26-.06.43v1.04Z"/>
    <path d="M752.76,291.5l1.27,3.43c.13.38.28.84.37,1.19h.02c.11-.35.23-.79.37-1.21l1.15-3.41h1.12l-1.58,4.14c-.76,1.99-1.27,3.01-1.99,3.63-.52.46-1.03.64-1.29.68l-.26-.89c.26-.08.61-.25.92-.52.29-.23.65-.64.89-1.18.05-.11.08-.19.08-.25s-.02-.14-.07-.28l-2.15-5.35h1.15Z"/>
    <path d="M761.17,294.59c.02,1.43.94,2.01,1.99,2.01.76,0,1.21-.13,1.61-.3l.18.76c-.37.17-1.01.36-1.93.36-1.79,0-2.85-1.17-2.85-2.93s1.03-3.13,2.72-3.13c1.89,0,2.4,1.67,2.4,2.73,0,.22-.02.38-.04.49h-4.08ZM764.26,293.84c.01-.67-.28-1.71-1.46-1.71-1.07,0-1.54.98-1.62,1.71h3.08Z"/>
    <path d="M767.04,291.5l.83,1.25c.22.32.4.62.59.95h.04c.19-.35.38-.65.58-.96l.82-1.24h1.14l-1.98,2.81,2.04,3h-1.2l-.85-1.31c-.23-.34-.42-.66-.62-1.01h-.02c-.19.35-.4.66-.61,1.01l-.84,1.31h-1.16l2.06-2.96-1.97-2.84h1.18Z"/>
    <path d="M773.28,289.87c.01.36-.25.65-.67.65-.37,0-.64-.29-.64-.65s.28-.66.66-.66.65.29.65.66ZM772.11,297.3v-5.8h1.06v5.8h-1.06Z"/>
    <path d="M774.77,296.22c.31.2.86.42,1.39.42.77,0,1.13-.38,1.13-.86,0-.5-.3-.78-1.08-1.07-1.04-.37-1.54-.95-1.54-1.64,0-.94.75-1.7,2-1.7.59,0,1.1.17,1.43.36l-.26.77c-.23-.14-.65-.33-1.19-.33-.62,0-.97.36-.97.79,0,.48.35.7,1.1.98,1.01.38,1.52.89,1.52,1.75,0,1.02-.79,1.74-2.17,1.74-.64,0-1.22-.16-1.63-.4l.26-.8Z"/>
    <path d="M780.94,289.83v1.67h1.51v.8h-1.51v3.13c0,.72.2,1.13.79,1.13.28,0,.48-.04.61-.07l.05.79c-.2.08-.53.14-.94.14-.49,0-.89-.16-1.14-.44-.3-.31-.41-.83-.41-1.51v-3.17h-.9v-.8h.9v-1.39l1.03-.28Z"/>
    <path d="M784.82,289.87c.01.36-.25.65-.67.65-.37,0-.64-.29-.64-.65s.28-.66.66-.66.65.29.65.66ZM783.64,297.3v-5.8h1.06v5.8h-1.06Z"/>
    <path d="M786.45,293.07c0-.6-.01-1.09-.05-1.57h.94l.06.96h.02c.29-.55.96-1.09,1.92-1.09.8,0,2.05.48,2.05,2.47v3.47h-1.06v-3.35c0-.94-.35-1.71-1.34-1.71-.7,0-1.24.49-1.42,1.08-.05.13-.07.31-.07.49v3.49h-1.06v-4.23Z"/>
    <path d="M798.11,291.5c-.02.42-.05.89-.05,1.6v3.37c0,1.33-.26,2.15-.83,2.65-.56.53-1.38.7-2.11.7s-1.46-.17-1.93-.48l.26-.8c.38.24.98.46,1.7.46,1.08,0,1.87-.56,1.87-2.03v-.65h-.02c-.32.54-.95.97-1.85.97-1.44,0-2.47-1.22-2.47-2.83,0-1.97,1.28-3.08,2.62-3.08,1.01,0,1.56.53,1.81,1.01h.02l.05-.88h.92ZM797.02,293.79c0-.18-.01-.34-.06-.48-.19-.61-.71-1.12-1.48-1.12-1.01,0-1.73.85-1.73,2.2,0,1.14.58,2.09,1.72,2.09.65,0,1.24-.41,1.46-1.08.06-.18.08-.38.08-.56v-1.04Z"/>
    <path d="M802.36,288.79h1.06v8.51h-1.06v-8.51Z"/>
    <path d="M808.41,297.3l-.08-.73h-.04c-.32.46-.95.86-1.78.86-1.17,0-1.77-.83-1.77-1.67,0-1.4,1.25-2.17,3.49-2.16v-.12c0-.48-.13-1.34-1.32-1.34-.54,0-1.1.17-1.51.43l-.24-.7c.48-.31,1.18-.52,1.91-.52,1.78,0,2.21,1.21,2.21,2.38v2.17c0,.5.02,1,.1,1.39h-.96ZM808.25,294.34c-1.15-.02-2.46.18-2.46,1.31,0,.68.46,1.01,1,1.01.75,0,1.24-.48,1.4-.97.04-.11.06-.23.06-.34v-1.01Z"/>
    <path d="M811.3,291.5l.77,2.95c.17.65.32,1.25.43,1.85h.04c.13-.59.32-1.21.52-1.83l.95-2.96h.89l.9,2.9c.22.7.38,1.31.52,1.9h.04c.1-.59.25-1.2.44-1.88l.83-2.91h1.04l-1.87,5.8h-.96l-.89-2.77c-.2-.65-.37-1.22-.52-1.91h-.02c-.14.7-.32,1.29-.53,1.92l-.94,2.76h-.96l-1.75-5.8h1.08Z"/>
    <path d="M819.5,296.22c.31.2.86.42,1.39.42.77,0,1.13-.38,1.13-.86,0-.5-.3-.78-1.08-1.07-1.04-.37-1.54-.95-1.54-1.64,0-.94.76-1.7,2-1.7.59,0,1.1.17,1.43.36l-.26.77c-.23-.14-.65-.33-1.19-.33-.62,0-.97.36-.97.79,0,.48.35.7,1.1.98,1.01.38,1.52.89,1.52,1.75,0,1.02-.79,1.74-2.17,1.74-.63,0-1.22-.16-1.63-.4l.26-.8Z"/>
    <path d="M830.15,297.3l-.08-.73h-.04c-.32.46-.95.86-1.77.86-1.18,0-1.78-.83-1.78-1.67,0-1.4,1.25-2.17,3.49-2.16v-.12c0-.48-.13-1.34-1.32-1.34-.54,0-1.1.17-1.51.43l-.24-.7c.48-.31,1.18-.52,1.91-.52,1.77,0,2.21,1.21,2.21,2.38v2.17c0,.5.02,1,.1,1.39h-.96ZM830,294.34c-1.15-.02-2.46.18-2.46,1.31,0,.68.46,1.01,1,1.01.76,0,1.24-.48,1.4-.97.04-.11.06-.23.06-.34v-1.01Z"/>
    <path d="M832.72,293.07c0-.6-.01-1.09-.05-1.57h.94l.06.96h.02c.29-.55.96-1.09,1.92-1.09.8,0,2.05.48,2.05,2.47v3.47h-1.06v-3.35c0-.94-.35-1.71-1.34-1.71-.7,0-1.24.49-1.42,1.08-.05.13-.07.31-.07.49v3.49h-1.06v-4.23Z"/>
    <path d="M844.39,288.79v7.02c0,.52.01,1.1.05,1.5h-.95l-.05-1.01h-.02c-.32.65-1.03,1.14-1.98,1.14-1.4,0-2.48-1.19-2.48-2.95-.01-1.93,1.19-3.12,2.6-3.12.89,0,1.49.42,1.75.89h.02v-3.47h1.06ZM843.34,293.86c0-.13-.01-.31-.05-.44-.16-.67-.73-1.22-1.52-1.22-1.09,0-1.74.96-1.74,2.24,0,1.18.58,2.15,1.72,2.15.71,0,1.35-.47,1.55-1.26.04-.14.05-.29.05-.46v-1.01Z"/>
    <path d="M848.69,293.31c0-.68-.01-1.27-.05-1.81h.92l.04,1.14h.05c.26-.78.9-1.27,1.61-1.27.12,0,.2.01.3.04v1c-.11-.02-.22-.04-.36-.04-.74,0-1.27.56-1.42,1.36-.02.14-.05.31-.05.49v3.09h-1.04v-3.99Z"/>
    <path d="M853.08,294.59c.02,1.43.94,2.01,1.99,2.01.76,0,1.21-.13,1.61-.3l.18.76c-.37.17-1.01.36-1.93.36-1.79,0-2.85-1.17-2.85-2.93s1.03-3.13,2.72-3.13c1.89,0,2.4,1.67,2.4,2.73,0,.22-.02.38-.04.49h-4.08ZM856.18,293.84c.01-.67-.28-1.71-1.46-1.71-1.07,0-1.54.98-1.62,1.71h3.08Z"/>
    <path d="M863.51,291.5c-.02.42-.05.89-.05,1.6v3.37c0,1.33-.26,2.15-.83,2.65-.56.53-1.38.7-2.11.7s-1.46-.17-1.93-.48l.26-.8c.38.24.98.46,1.7.46,1.08,0,1.87-.56,1.87-2.03v-.65h-.02c-.32.54-.95.97-1.85.97-1.44,0-2.47-1.22-2.47-2.83,0-1.97,1.28-3.08,2.61-3.08,1.01,0,1.56.53,1.81,1.01h.02l.05-.88h.92ZM862.42,293.79c0-.18-.01-.34-.06-.48-.19-.61-.71-1.12-1.48-1.12-1.01,0-1.73.85-1.73,2.2,0,1.14.58,2.09,1.71,2.09.65,0,1.24-.41,1.46-1.08.06-.18.08-.38.08-.56v-1.04Z"/>
    <path d="M870.07,295.72c0,.6.01,1.13.05,1.58h-.94l-.06-.95h-.02c-.28.47-.89,1.08-1.92,1.08-.91,0-2-.5-2-2.54v-3.39h1.06v3.21c0,1.1.34,1.85,1.29,1.85.71,0,1.2-.49,1.39-.96.06-.16.1-.35.1-.54v-3.56h1.06v4.22Z"/>
    <path d="M871.83,288.79h1.06v8.51h-1.06v-8.51Z"/>
    <path d="M877.87,297.3l-.08-.73h-.04c-.32.46-.95.86-1.78.86-1.17,0-1.77-.83-1.77-1.67,0-1.4,1.25-2.17,3.49-2.16v-.12c0-.48-.13-1.34-1.32-1.34-.54,0-1.1.17-1.51.43l-.24-.7c.48-.31,1.18-.52,1.91-.52,1.78,0,2.21,1.21,2.21,2.38v2.17c0,.5.02,1,.1,1.39h-.96ZM877.72,294.34c-1.15-.02-2.46.18-2.46,1.31,0,.68.46,1.01,1,1.01.75,0,1.24-.48,1.4-.97.04-.11.06-.23.06-.34v-1.01Z"/>
    <path d="M881.67,289.83v1.67h1.51v.8h-1.51v3.13c0,.72.2,1.13.79,1.13.28,0,.48-.04.61-.07l.05.79c-.2.08-.53.14-.94.14-.49,0-.89-.16-1.14-.44-.3-.31-.41-.83-.41-1.51v-3.17h-.9v-.8h.9v-1.39l1.03-.28Z"/>
    <path d="M885.54,289.87c.01.36-.25.65-.67.65-.37,0-.64-.29-.64-.65s.28-.66.66-.66.65.29.65.66ZM884.37,297.3v-5.8h1.06v5.8h-1.06Z"/>
    <path d="M892.43,294.35c0,2.15-1.49,3.08-2.89,3.08-1.57,0-2.78-1.15-2.78-2.99,0-1.94,1.27-3.08,2.88-3.08s2.79,1.21,2.79,2.99ZM887.82,294.41c0,1.27.73,2.23,1.76,2.23s1.76-.95,1.76-2.25c0-.98-.49-2.23-1.74-2.23s-1.79,1.15-1.79,2.25Z"/>
    <path d="M893.76,293.07c0-.6-.01-1.09-.05-1.57h.94l.06.96h.02c.29-.55.96-1.09,1.92-1.09.8,0,2.05.48,2.05,2.47v3.47h-1.06v-3.35c0-.94-.35-1.71-1.34-1.71-.7,0-1.24.49-1.42,1.08-.05.13-.07.31-.07.49v3.49h-1.06v-4.23Z"/>
    <path d="M900.28,296.22c.31.2.86.42,1.39.42.77,0,1.13-.38,1.13-.86,0-.5-.3-.78-1.08-1.07-1.04-.37-1.54-.95-1.54-1.64,0-.94.75-1.7,2-1.7.59,0,1.1.17,1.43.36l-.26.77c-.23-.14-.65-.33-1.19-.33-.62,0-.97.36-.97.79,0,.48.35.7,1.1.98,1.01.38,1.52.89,1.52,1.75,0,1.02-.79,1.74-2.17,1.74-.64,0-1.22-.16-1.63-.4l.26-.8Z"/>
    <path d="M599.44,311.49c-.28.14-.89.34-1.67.34-1.75,0-2.89-1.19-2.89-2.96s1.22-3.08,3.12-3.08c.62,0,1.18.16,1.46.3l-.24.82c-.25-.14-.65-.28-1.22-.28-1.33,0-2.05.98-2.05,2.19,0,1.34.86,2.17,2.01,2.17.6,0,1-.16,1.3-.29l.18.79Z"/>
    <path d="M605.86,308.75c0,2.15-1.49,3.08-2.89,3.08-1.57,0-2.78-1.15-2.78-2.99,0-1.94,1.27-3.08,2.88-3.08s2.79,1.21,2.79,2.99ZM601.26,308.81c0,1.27.73,2.23,1.76,2.23s1.76-.95,1.76-2.25c0-.98-.49-2.23-1.74-2.23s-1.79,1.15-1.79,2.25Z"/>
    <path d="M607.2,307.47c0-.6-.01-1.09-.05-1.57h.94l.06.96h.02c.29-.55.96-1.09,1.92-1.09.8,0,2.05.48,2.05,2.47v3.47h-1.06v-3.35c0-.94-.35-1.71-1.34-1.71-.7,0-1.24.49-1.42,1.08-.05.13-.07.31-.07.49v3.49h-1.06v-4.23Z"/>
    <path d="M617.99,311.49c-.28.14-.89.34-1.67.34-1.75,0-2.89-1.19-2.89-2.96s1.22-3.08,3.12-3.08c.62,0,1.18.16,1.46.3l-.24.82c-.25-.14-.65-.28-1.22-.28-1.33,0-2.05.98-2.05,2.19,0,1.34.86,2.17,2.01,2.17.6,0,1-.16,1.3-.29l.18.79Z"/>
    <path d="M619.75,308.99c.02,1.43.94,2.01,1.99,2.01.75,0,1.21-.13,1.61-.3l.18.76c-.37.17-1.01.36-1.93.36-1.79,0-2.85-1.18-2.85-2.93s1.03-3.13,2.72-3.13c1.9,0,2.4,1.67,2.4,2.73,0,.22-.02.38-.04.49h-4.08ZM622.84,308.24c.01-.67-.28-1.71-1.46-1.71-1.07,0-1.54.98-1.62,1.71h3.08Z"/>
    <path d="M625.17,307.71c0-.68-.01-1.27-.05-1.81h.92l.04,1.14h.05c.26-.78.9-1.27,1.61-1.27.12,0,.2.01.3.04v1c-.11-.02-.22-.04-.36-.04-.74,0-1.27.56-1.42,1.36-.02.14-.05.31-.05.49v3.09h-1.04v-3.99Z"/>
    <path d="M629.14,307.47c0-.6-.01-1.09-.05-1.57h.94l.06.96h.02c.29-.55.96-1.09,1.92-1.09.8,0,2.05.48,2.05,2.47v3.47h-1.06v-3.35c0-.94-.35-1.71-1.34-1.71-.7,0-1.24.49-1.42,1.08-.05.13-.07.31-.07.49v3.49h-1.06v-4.23Z"/>
    <path d="M636.98,304.27c.01.36-.25.65-.67.65-.37,0-.64-.29-.64-.65s.28-.66.66-.66.65.29.65.66ZM635.8,311.7v-5.8h1.06v5.8h-1.06Z"/>
    <path d="M638.61,307.47c0-.6-.01-1.09-.05-1.57h.94l.06.96h.02c.29-.55.96-1.09,1.92-1.09.8,0,2.05.48,2.05,2.47v3.47h-1.06v-3.35c0-.94-.35-1.71-1.34-1.71-.7,0-1.24.49-1.42,1.08-.05.13-.07.31-.07.49v3.49h-1.06v-4.23Z"/>
    <path d="M650.27,305.9c-.02.42-.05.89-.05,1.59v3.37c0,1.33-.26,2.15-.83,2.65-.56.53-1.38.7-2.11.7s-1.46-.17-1.93-.48l.26-.8c.38.24.98.46,1.7.46,1.08,0,1.87-.56,1.87-2.03v-.65h-.02c-.32.54-.95.97-1.85.97-1.44,0-2.47-1.22-2.47-2.83,0-1.97,1.28-3.08,2.62-3.08,1.01,0,1.56.53,1.81,1.01h.02l.05-.88h.92ZM649.18,308.19c0-.18-.01-.34-.06-.48-.19-.61-.71-1.12-1.48-1.12-1.01,0-1.73.85-1.73,2.19,0,1.14.58,2.09,1.72,2.09.65,0,1.24-.41,1.46-1.08.06-.18.08-.38.08-.56v-1.04Z"/>
    <path d="M659.54,303.19v7.02c0,.52.01,1.1.05,1.5h-.95l-.05-1.01h-.02c-.32.65-1.03,1.14-1.98,1.14-1.4,0-2.48-1.19-2.48-2.95-.01-1.93,1.19-3.12,2.6-3.12.89,0,1.49.42,1.75.89h.02v-3.47h1.06ZM658.48,308.26c0-.13-.01-.31-.05-.44-.16-.67-.73-1.22-1.52-1.22-1.09,0-1.74.96-1.74,2.24,0,1.17.58,2.15,1.72,2.15.71,0,1.35-.47,1.55-1.26.04-.14.05-.29.05-.46v-1.01Z"/>
    <path d="M662.47,304.27c.01.36-.25.65-.67.65-.37,0-.64-.29-.64-.65s.28-.66.66-.66.65.29.65.66ZM661.29,311.7v-5.8h1.06v5.8h-1.06Z"/>
    <path d="M669.1,305.9c-.02.42-.05.89-.05,1.59v3.37c0,1.33-.26,2.15-.83,2.65-.56.53-1.38.7-2.11.7s-1.46-.17-1.93-.48l.26-.8c.38.24.98.46,1.7.46,1.08,0,1.87-.56,1.87-2.03v-.65h-.02c-.32.54-.95.97-1.85.97-1.44,0-2.47-1.22-2.47-2.83,0-1.97,1.28-3.08,2.61-3.08,1.01,0,1.56.53,1.81,1.01h.02l.05-.88h.92ZM668.01,308.19c0-.18-.01-.34-.06-.48-.19-.61-.71-1.12-1.48-1.12-1.01,0-1.73.85-1.73,2.19,0,1.14.58,2.09,1.71,2.09.65,0,1.24-.41,1.46-1.08.06-.18.08-.38.08-.56v-1.04Z"/>
    <path d="M671.91,304.27c.01.36-.25.65-.67.65-.37,0-.64-.29-.64-.65s.28-.66.66-.66.65.29.65.66ZM670.74,311.7v-5.8h1.06v5.8h-1.06Z"/>
    <path d="M674.81,304.23v1.67h1.51v.8h-1.51v3.13c0,.72.2,1.13.79,1.13.28,0,.48-.04.61-.07l.05.79c-.2.08-.53.14-.94.14-.49,0-.89-.16-1.14-.44-.3-.31-.41-.83-.41-1.51v-3.17h-.9v-.8h.9v-1.39l1.03-.28Z"/>
    <path d="M680.73,311.7l-.08-.73h-.04c-.32.46-.95.86-1.77.86-1.18,0-1.78-.83-1.78-1.67,0-1.4,1.25-2.17,3.49-2.16v-.12c0-.48-.13-1.34-1.32-1.34-.54,0-1.1.17-1.51.43l-.24-.7c.48-.31,1.18-.52,1.91-.52,1.77,0,2.21,1.21,2.21,2.37v2.17c0,.5.02,1,.1,1.39h-.96ZM680.57,308.74c-1.15-.02-2.46.18-2.46,1.31,0,.68.46,1.01,1,1.01.76,0,1.24-.48,1.4-.97.04-.11.06-.23.06-.34v-1.01Z"/>
    <path d="M683.3,303.19h1.06v8.52h-1.06v-8.52Z"/>
    <path d="M689.95,304.23v1.67h1.51v.8h-1.51v3.13c0,.72.2,1.13.79,1.13.28,0,.48-.04.61-.07l.05.79c-.2.08-.53.14-.94.14-.49,0-.89-.16-1.14-.44-.3-.31-.41-.83-.41-1.51v-3.17h-.9v-.8h.9v-1.39l1.03-.28Z"/>
    <path d="M693.16,308.99c.02,1.43.94,2.01,1.99,2.01.76,0,1.21-.13,1.61-.3l.18.76c-.37.17-1.01.36-1.93.36-1.79,0-2.85-1.18-2.85-2.93s1.03-3.13,2.72-3.13c1.89,0,2.4,1.67,2.4,2.73,0,.22-.02.38-.04.49h-4.08ZM696.26,308.24c.01-.67-.28-1.71-1.46-1.71-1.07,0-1.54.98-1.62,1.71h3.08Z"/>
    <path d="M702.72,311.49c-.28.14-.89.34-1.67.34-1.75,0-2.89-1.19-2.89-2.96s1.22-3.08,3.12-3.08c.62,0,1.17.16,1.46.3l-.24.82c-.25-.14-.65-.28-1.22-.28-1.33,0-2.05.98-2.05,2.19,0,1.34.86,2.17,2.02,2.17.6,0,1-.16,1.29-.29l.18.79Z"/>
    <path d="M703.96,303.19h1.06v3.62h.02c.17-.3.43-.56.75-.74.31-.18.68-.3,1.08-.3.78,0,2.03.48,2.03,2.48v3.45h-1.06v-3.33c0-.94-.35-1.73-1.34-1.73-.68,0-1.22.48-1.42,1.06-.06.14-.07.3-.07.5v3.5h-1.06v-8.52Z"/>
    <path d="M710.62,307.47c0-.6-.01-1.09-.05-1.57h.94l.06.96h.02c.29-.55.96-1.09,1.92-1.09.8,0,2.05.48,2.05,2.47v3.47h-1.06v-3.35c0-.94-.35-1.71-1.34-1.71-.7,0-1.24.49-1.42,1.08-.05.13-.07.31-.07.49v3.49h-1.06v-4.23Z"/>
    <path d="M722.54,308.75c0,2.15-1.49,3.08-2.89,3.08-1.57,0-2.78-1.15-2.78-2.99,0-1.94,1.27-3.08,2.88-3.08s2.79,1.21,2.79,2.99ZM717.93,308.81c0,1.27.73,2.23,1.76,2.23s1.76-.95,1.76-2.25c0-.98-.49-2.23-1.74-2.23s-1.79,1.15-1.79,2.25Z"/>
    <path d="M723.87,303.19h1.06v8.52h-1.06v-8.52Z"/>
    <path d="M731.96,308.75c0,2.15-1.49,3.08-2.89,3.08-1.57,0-2.78-1.15-2.78-2.99,0-1.94,1.27-3.08,2.88-3.08s2.79,1.21,2.79,2.99ZM727.35,308.81c0,1.27.73,2.23,1.76,2.23s1.76-.95,1.76-2.25c0-.98-.49-2.23-1.74-2.23s-1.79,1.15-1.79,2.25Z"/>
    <path d="M738.29,305.9c-.02.42-.05.89-.05,1.59v3.37c0,1.33-.26,2.15-.83,2.65-.56.53-1.38.7-2.11.7s-1.46-.17-1.93-.48l.26-.8c.38.24.98.46,1.7.46,1.08,0,1.87-.56,1.87-2.03v-.65h-.02c-.32.54-.95.97-1.85.97-1.44,0-2.47-1.22-2.47-2.83,0-1.97,1.28-3.08,2.62-3.08,1.01,0,1.56.53,1.81,1.01h.02l.05-.88h.92ZM737.2,308.19c0-.18-.01-.34-.06-.48-.19-.61-.71-1.12-1.48-1.12-1.01,0-1.73.85-1.73,2.19,0,1.14.58,2.09,1.72,2.09.65,0,1.24-.41,1.46-1.08.06-.18.08-.38.08-.56v-1.04Z"/>
    <path d="M741.1,304.27c.01.36-.25.65-.67.65-.37,0-.64-.29-.64-.65s.28-.66.66-.66.65.29.65.66ZM739.93,311.7v-5.8h1.06v5.8h-1.06Z"/>
    <path d="M743.32,308.99c.02,1.43.94,2.01,1.99,2.01.75,0,1.21-.13,1.61-.3l.18.76c-.37.17-1.01.36-1.93.36-1.79,0-2.85-1.18-2.85-2.93s1.03-3.13,2.72-3.13c1.9,0,2.4,1.67,2.4,2.73,0,.22-.02.38-.04.49h-4.08ZM746.42,308.24c.01-.67-.28-1.71-1.46-1.71-1.07,0-1.54.98-1.62,1.71h3.08Z"/>
    <path d="M748.6,310.62c.31.2.86.42,1.39.42.77,0,1.13-.38,1.13-.86,0-.5-.3-.78-1.08-1.07-1.04-.37-1.54-.95-1.54-1.64,0-.93.75-1.7,2-1.7.59,0,1.1.17,1.43.36l-.26.77c-.23-.14-.65-.34-1.19-.34-.62,0-.97.36-.97.79,0,.48.35.7,1.1.98,1.01.38,1.52.89,1.52,1.75,0,1.02-.79,1.74-2.17,1.74-.64,0-1.22-.16-1.63-.4l.26-.8Z"/>
    <path d="M759.26,311.7l-.08-.73h-.04c-.32.46-.95.86-1.78.86-1.17,0-1.77-.83-1.77-1.67,0-1.4,1.25-2.17,3.49-2.16v-.12c0-.48-.13-1.34-1.32-1.34-.54,0-1.1.17-1.51.43l-.24-.7c.48-.31,1.18-.52,1.91-.52,1.78,0,2.21,1.21,2.21,2.37v2.17c0,.5.02,1,.1,1.39h-.96ZM759.1,308.74c-1.15-.02-2.46.18-2.46,1.31,0,.68.46,1.01,1,1.01.75,0,1.24-.48,1.4-.97.04-.11.06-.23.06-.34v-1.01Z"/>
    <path d="M761.83,307.47c0-.6-.01-1.09-.05-1.57h.94l.06.96h.02c.29-.55.96-1.09,1.92-1.09.8,0,2.05.48,2.05,2.47v3.47h-1.06v-3.35c0-.94-.35-1.71-1.34-1.71-.7,0-1.24.49-1.42,1.08-.05.13-.07.31-.07.49v3.49h-1.06v-4.23Z"/>
    <path d="M773.5,303.19v7.02c0,.52.01,1.1.05,1.5h-.95l-.05-1.01h-.02c-.32.65-1.03,1.14-1.98,1.14-1.4,0-2.48-1.19-2.48-2.95-.01-1.93,1.19-3.12,2.6-3.12.89,0,1.49.42,1.75.89h.02v-3.47h1.05ZM772.44,308.26c0-.13-.01-.31-.05-.44-.16-.67-.73-1.22-1.52-1.22-1.09,0-1.74.96-1.74,2.24,0,1.17.58,2.15,1.71,2.15.71,0,1.36-.47,1.55-1.26.04-.14.05-.29.05-.46v-1.01Z"/>
    <path d="M782.81,303.19v7.02c0,.52.01,1.1.05,1.5h-.95l-.05-1.01h-.02c-.32.65-1.03,1.14-1.98,1.14-1.4,0-2.48-1.19-2.48-2.95-.01-1.93,1.19-3.12,2.6-3.12.89,0,1.49.42,1.75.89h.02v-3.47h1.05ZM781.76,308.26c0-.13-.01-.31-.05-.44-.16-.67-.73-1.22-1.52-1.22-1.09,0-1.74.96-1.74,2.24,0,1.17.58,2.15,1.71,2.15.71,0,1.36-.47,1.55-1.26.04-.14.05-.29.05-.46v-1.01Z"/>
    <path d="M787.78,311.7l-.08-.73h-.04c-.32.46-.95.86-1.78.86-1.17,0-1.77-.83-1.77-1.67,0-1.4,1.25-2.17,3.49-2.16v-.12c0-.48-.13-1.34-1.32-1.34-.54,0-1.1.17-1.51.43l-.24-.7c.48-.31,1.18-.52,1.91-.52,1.78,0,2.21,1.21,2.21,2.37v2.17c0,.5.02,1,.1,1.39h-.96ZM787.62,308.74c-1.15-.02-2.46.18-2.46,1.31,0,.68.46,1.01,1,1.01.75,0,1.24-.48,1.4-.97.04-.11.06-.23.06-.34v-1.01Z"/>
    <path d="M791.57,304.23v1.67h1.51v.8h-1.51v3.13c0,.72.2,1.13.79,1.13.28,0,.48-.04.61-.07l.05.79c-.2.08-.53.14-.94.14-.49,0-.89-.16-1.14-.44-.3-.31-.41-.83-.41-1.51v-3.17h-.9v-.8h.9v-1.39l1.03-.28Z"/>
    <path d="M797.49,311.7l-.08-.73h-.04c-.32.46-.95.86-1.78.86-1.17,0-1.77-.83-1.77-1.67,0-1.4,1.25-2.17,3.49-2.16v-.12c0-.48-.13-1.34-1.32-1.34-.54,0-1.1.17-1.51.43l-.24-.7c.48-.31,1.18-.52,1.91-.52,1.78,0,2.21,1.21,2.21,2.37v2.17c0,.5.02,1,.1,1.39h-.96ZM797.33,308.74c-1.15-.02-2.46.18-2.46,1.31,0,.68.46,1.01,1,1.01.75,0,1.24-.48,1.4-.97.04-.11.06-.23.06-.34v-1.01Z"/>
    <path d="M802.46,310.62c.31.2.86.42,1.39.42.77,0,1.13-.38,1.13-.86,0-.5-.3-.78-1.08-1.07-1.04-.37-1.54-.95-1.54-1.64,0-.93.76-1.7,2-1.7.59,0,1.1.17,1.43.36l-.26.77c-.23-.14-.65-.34-1.19-.34-.62,0-.97.36-.97.79,0,.48.35.7,1.1.98,1.01.38,1.52.89,1.52,1.75,0,1.02-.79,1.74-2.17,1.74-.63,0-1.22-.16-1.63-.4l.26-.8Z"/>
    <path d="M807.94,308.99c.02,1.43.94,2.01,1.99,2.01.76,0,1.21-.13,1.61-.3l.18.76c-.37.17-1.01.36-1.93.36-1.79,0-2.85-1.18-2.85-2.93s1.03-3.13,2.72-3.13c1.89,0,2.4,1.67,2.4,2.73,0,.22-.02.38-.04.49h-4.08ZM811.04,308.24c.01-.67-.28-1.71-1.46-1.71-1.07,0-1.54.98-1.62,1.71h3.08Z"/>
    <path d="M817.5,311.49c-.28.14-.89.34-1.67.34-1.75,0-2.89-1.19-2.89-2.96s1.22-3.08,3.12-3.08c.62,0,1.17.16,1.46.3l-.24.82c-.25-.14-.65-.28-1.22-.28-1.33,0-2.05.98-2.05,2.19,0,1.34.86,2.17,2.02,2.17.6,0,1-.16,1.29-.29l.18.79Z"/>
    <path d="M823.6,310.12c0,.6.01,1.13.05,1.58h-.94l-.06-.95h-.02c-.28.47-.89,1.08-1.92,1.08-.91,0-2-.5-2-2.54v-3.39h1.06v3.21c0,1.1.34,1.85,1.3,1.85.71,0,1.2-.49,1.39-.96.06-.16.1-.35.1-.54v-3.56h1.06v4.22Z"/>
    <path d="M825.35,307.71c0-.68-.01-1.27-.05-1.81h.92l.04,1.14h.05c.26-.78.9-1.27,1.61-1.27.12,0,.2.01.3.04v1c-.11-.02-.22-.04-.36-.04-.74,0-1.27.56-1.42,1.36-.02.14-.05.31-.05.49v3.09h-1.04v-3.99Z"/>
    <path d="M830.5,304.27c.01.36-.25.65-.67.65-.37,0-.64-.29-.64-.65s.28-.66.66-.66.65.29.65.66ZM829.33,311.7v-5.8h1.06v5.8h-1.06Z"/>
    <path d="M833.4,304.23v1.67h1.51v.8h-1.51v3.13c0,.72.2,1.13.79,1.13.28,0,.48-.04.61-.07l.05.79c-.2.08-.53.14-.94.14-.49,0-.89-.16-1.14-.44-.3-.31-.41-.83-.41-1.51v-3.17h-.9v-.8h.9v-1.39l1.03-.28Z"/>
    <path d="M836.6,305.9l1.27,3.43c.13.38.28.84.37,1.19h.02c.11-.35.23-.79.37-1.21l1.15-3.41h1.12l-1.58,4.14c-.76,1.99-1.27,3.01-1.99,3.63-.52.46-1.03.64-1.29.68l-.26-.89c.26-.08.61-.25.92-.52.29-.23.65-.64.89-1.18.05-.11.08-.19.08-.25s-.02-.14-.07-.28l-2.15-5.35h1.15Z"/>
    <path d="M846.7,303.38c-.88,1.17-1.51,2.73-1.51,4.91s.66,3.67,1.51,4.87h-.83c-.76-1-1.57-2.53-1.57-4.87.01-2.36.82-3.9,1.57-4.91h.83Z"/>
    <path d="M848.4,308.99c.02,1.43.94,2.01,1.99,2.01.75,0,1.21-.13,1.61-.3l.18.76c-.37.17-1.01.36-1.93.36-1.79,0-2.85-1.18-2.85-2.93s1.03-3.13,2.72-3.13c1.9,0,2.4,1.67,2.4,2.73,0,.22-.02.38-.04.49h-4.08ZM851.5,308.24c.01-.67-.28-1.71-1.46-1.71-1.07,0-1.54.98-1.62,1.71h3.08Z"/>
    <path d="M853.43,311.08c0-.44.3-.76.72-.76s.71.31.71.76-.28.76-.72.76c-.42,0-.71-.32-.71-.76Z"/>
    <path d="M861.17,305.9c-.02.42-.05.89-.05,1.59v3.37c0,1.33-.26,2.15-.83,2.65-.56.53-1.38.7-2.11.7s-1.46-.17-1.93-.48l.26-.8c.38.24.98.46,1.7.46,1.08,0,1.87-.56,1.87-2.03v-.65h-.02c-.32.54-.95.97-1.85.97-1.44,0-2.47-1.22-2.47-2.83,0-1.97,1.28-3.08,2.62-3.08,1.01,0,1.56.53,1.81,1.01h.02l.05-.88h.92ZM860.08,308.19c0-.18-.01-.34-.06-.48-.19-.61-.71-1.12-1.48-1.12-1.01,0-1.73.85-1.73,2.19,0,1.14.58,2.09,1.72,2.09.65,0,1.24-.41,1.46-1.08.06-.18.08-.38.08-.56v-1.04Z"/>
    <path d="M862.44,311.08c0-.44.3-.76.72-.76s.71.31.71.76-.28.76-.72.76c-.42,0-.71-.32-.71-.76Z"/>
    <path d="M864.5,313.18c.26-.71.59-1.99.72-2.87l1.18-.12c-.28,1.02-.8,2.35-1.14,2.92l-.76.07Z"/>
    <path d="M871.48,304.23v1.67h1.51v.8h-1.51v3.13c0,.72.2,1.13.79,1.13.28,0,.48-.04.61-.07l.05.79c-.2.08-.53.14-.94.14-.49,0-.89-.16-1.14-.44-.3-.31-.41-.83-.41-1.51v-3.17h-.9v-.8h.9v-1.39l1.03-.28Z"/>
    <path d="M874.18,303.19h1.06v3.62h.02c.17-.3.43-.56.75-.74.31-.18.68-.3,1.08-.3.78,0,2.03.48,2.03,2.48v3.45h-1.06v-3.33c0-.94-.35-1.73-1.34-1.73-.68,0-1.22.48-1.42,1.06-.06.14-.07.3-.07.5v3.5h-1.06v-8.52Z"/>
    <path d="M881.43,308.99c.02,1.43.94,2.01,1.99,2.01.76,0,1.21-.13,1.61-.3l.18.76c-.37.17-1.01.36-1.93.36-1.79,0-2.85-1.18-2.85-2.93s1.03-3.13,2.72-3.13c1.89,0,2.4,1.67,2.4,2.73,0,.22-.02.38-.04.49h-4.08ZM884.52,308.24c.01-.67-.28-1.71-1.46-1.71-1.07,0-1.54.98-1.62,1.71h3.08Z"/>
    <path d="M895.58,311.34c-.47.17-1.39.44-2.48.44-1.22,0-2.23-.31-3.02-1.07-.7-.67-1.13-1.75-1.13-3.01.01-2.41,1.67-4.17,4.38-4.17.94,0,1.67.2,2.01.37l-.25.85c-.43-.19-.97-.35-1.79-.35-1.97,0-3.25,1.22-3.25,3.25s1.24,3.26,3.12,3.26c.68,0,1.15-.1,1.39-.22v-2.41h-1.64v-.84h2.66v3.89Z"/>
    <path d="M897.79,308.99c.02,1.43.94,2.01,1.99,2.01.75,0,1.21-.13,1.61-.3l.18.76c-.37.17-1.01.36-1.93.36-1.79,0-2.85-1.18-2.85-2.93s1.03-3.13,2.72-3.13c1.9,0,2.4,1.67,2.4,2.73,0,.22-.02.38-.04.49h-4.08ZM900.89,308.24c.01-.67-.28-1.71-1.46-1.71-1.07,0-1.54.98-1.62,1.71h3.08Z"/>
    <path d="M903.22,307.47c0-.6-.01-1.09-.05-1.57h.94l.06.96h.02c.29-.55.96-1.09,1.92-1.09.8,0,2.05.48,2.05,2.47v3.47h-1.06v-3.35c0-.94-.35-1.71-1.34-1.71-.7,0-1.24.49-1.42,1.08-.05.13-.07.31-.07.49v3.49h-1.06v-4.23Z"/>
    <path d="M910.47,308.99c.02,1.43.94,2.01,1.99,2.01.75,0,1.21-.13,1.61-.3l.18.76c-.37.17-1.01.36-1.93.36-1.79,0-2.85-1.18-2.85-2.93s1.03-3.13,2.72-3.13c1.9,0,2.4,1.67,2.4,2.73,0,.22-.02.38-.04.49h-4.08ZM913.56,308.24c.01-.67-.28-1.71-1.46-1.71-1.07,0-1.54.98-1.62,1.71h3.08Z"/>
    <path d="M915.89,307.71c0-.68-.01-1.27-.05-1.81h.92l.04,1.14h.05c.26-.78.9-1.27,1.61-1.27.12,0,.2.01.3.04v1c-.11-.02-.22-.04-.36-.04-.74,0-1.27.56-1.42,1.36-.02.14-.05.31-.05.49v3.09h-1.04v-3.99Z"/>
    <path d="M922.97,311.7l-.08-.73h-.04c-.32.46-.95.86-1.78.86-1.17,0-1.77-.83-1.77-1.67,0-1.4,1.25-2.17,3.49-2.16v-.12c0-.48-.13-1.34-1.32-1.34-.54,0-1.1.17-1.51.43l-.24-.7c.48-.31,1.18-.52,1.91-.52,1.78,0,2.21,1.21,2.21,2.37v2.17c0,.5.02,1,.1,1.39h-.96ZM922.81,308.74c-1.15-.02-2.46.18-2.46,1.31,0,.68.46,1.01,1,1.01.75,0,1.24-.48,1.4-.97.04-.11.06-.23.06-.34v-1.01Z"/>
    <path d="M925.54,303.19h1.06v8.52h-1.06v-8.52Z"/>
    <path d="M930.95,303.73c.64-.1,1.39-.17,2.22-.17,1.5,0,2.57.35,3.27,1.01.72.66,1.14,1.6,1.14,2.9s-.41,2.4-1.16,3.14c-.76.76-2,1.16-3.57,1.16-.74,0-1.37-.04-1.89-.1v-7.95ZM931.99,310.88c.26.05.65.06,1.06.06,2.23,0,3.44-1.25,3.44-3.43.01-1.91-1.07-3.12-3.27-3.12-.54,0-.95.05-1.22.11v6.38Z"/>
    <path d="M942.12,311.7l-.08-.73h-.04c-.32.46-.95.86-1.78.86-1.17,0-1.77-.83-1.77-1.67,0-1.4,1.25-2.17,3.49-2.16v-.12c0-.48-.13-1.34-1.32-1.34-.54,0-1.1.17-1.51.43l-.24-.7c.48-.31,1.18-.52,1.91-.52,1.78,0,2.21,1.21,2.21,2.37v2.17c0,.5.02,1,.1,1.39h-.96ZM941.96,308.74c-1.15-.02-2.46.18-2.46,1.31,0,.68.46,1.01,1,1.01.75,0,1.24-.48,1.4-.97.04-.11.06-.23.06-.34v-1.01Z"/>
    <path d="M945.91,304.23v1.67h1.51v.8h-1.51v3.13c0,.72.2,1.13.79,1.13.28,0,.48-.04.61-.07l.05.79c-.2.08-.53.14-.94.14-.49,0-.89-.16-1.14-.44-.3-.31-.41-.83-.41-1.51v-3.17h-.9v-.8h.9v-1.39l1.03-.28Z"/>
    <path d="M951.83,311.7l-.08-.73h-.04c-.32.46-.95.86-1.78.86-1.17,0-1.77-.83-1.77-1.67,0-1.4,1.25-2.17,3.49-2.16v-.12c0-.48-.13-1.34-1.32-1.34-.54,0-1.1.17-1.51.43l-.24-.7c.48-.31,1.18-.52,1.91-.52,1.78,0,2.21,1.21,2.21,2.37v2.17c0,.5.02,1,.1,1.39h-.96ZM951.67,308.74c-1.15-.02-2.46.18-2.46,1.31,0,.68.46,1.01,1,1.01.75,0,1.24-.48,1.4-.97.04-.11.06-.23.06-.34v-1.01Z"/>
    <path d="M595.34,318.12c.5-.08,1.16-.16,2-.16,1.03,0,1.79.24,2.27.67.44.38.71.97.71,1.69s-.22,1.31-.62,1.73c-.55.59-1.45.89-2.47.89-.31,0-.6-.01-.84-.07v3.24h-1.04v-7.99ZM596.38,322.01c.23.06.52.08.86.08,1.26,0,2.03-.61,2.03-1.73s-.76-1.58-1.91-1.58c-.46,0-.8.04-.98.08v3.14Z"/>
    <path d="M601.5,322.11c0-.68-.01-1.27-.05-1.81h.92l.04,1.14h.05c.26-.78.9-1.27,1.61-1.27.12,0,.2.01.3.04v1c-.11-.02-.22-.04-.36-.04-.74,0-1.27.56-1.42,1.36-.02.14-.05.31-.05.49v3.09h-1.04v-3.99Z"/>
    <path d="M610.55,323.15c0,2.15-1.49,3.08-2.89,3.08-1.57,0-2.78-1.15-2.78-2.99,0-1.94,1.27-3.08,2.88-3.08s2.79,1.21,2.79,2.99ZM605.95,323.21c0,1.27.73,2.23,1.76,2.23s1.76-.95,1.76-2.25c0-.98-.49-2.23-1.74-2.23s-1.79,1.15-1.79,2.25Z"/>
    <path d="M613.16,318.63v1.67h1.51v.8h-1.51v3.13c0,.72.2,1.13.79,1.13.28,0,.48-.04.61-.07l.05.79c-.2.08-.53.14-.94.14-.49,0-.89-.16-1.14-.44-.3-.31-.41-.83-.41-1.51v-3.17h-.9v-.8h.9v-1.39l1.03-.28Z"/>
    <path d="M616.38,323.39c.02,1.43.94,2.01,1.99,2.01.75,0,1.21-.13,1.61-.3l.18.76c-.37.17-1.01.36-1.93.36-1.79,0-2.85-1.17-2.85-2.93s1.03-3.13,2.72-3.13c1.9,0,2.4,1.67,2.4,2.73,0,.22-.02.38-.04.49h-4.08ZM619.47,322.64c.01-.67-.28-1.71-1.46-1.71-1.07,0-1.54.98-1.62,1.71h3.08Z"/>
    <path d="M625.94,325.89c-.28.14-.89.34-1.67.34-1.75,0-2.89-1.19-2.89-2.96s1.22-3.08,3.12-3.08c.62,0,1.18.16,1.46.3l-.24.82c-.25-.14-.65-.28-1.22-.28-1.33,0-2.05.98-2.05,2.19,0,1.34.86,2.17,2.01,2.17.6,0,1-.16,1.3-.29l.18.79Z"/>
    <path d="M628.6,318.63v1.67h1.51v.8h-1.51v3.13c0,.72.2,1.13.79,1.13.28,0,.48-.04.61-.07l.05.79c-.2.08-.53.14-.94.14-.49,0-.89-.16-1.14-.44-.3-.31-.41-.83-.41-1.51v-3.17h-.9v-.8h.9v-1.39l1.03-.28Z"/>
    <path d="M632.48,318.67c.01.36-.25.65-.67.65-.37,0-.64-.29-.64-.65s.28-.66.66-.66.65.29.65.66ZM631.3,326.1v-5.8h1.06v5.8h-1.06Z"/>
    <path d="M639.37,323.15c0,2.15-1.49,3.08-2.89,3.08-1.57,0-2.78-1.15-2.78-2.99,0-1.94,1.27-3.08,2.88-3.08s2.79,1.21,2.79,2.99ZM634.76,323.21c0,1.27.73,2.23,1.76,2.23s1.76-.95,1.76-2.25c0-.98-.49-2.23-1.74-2.23s-1.79,1.15-1.79,2.25Z"/>
    <path d="M640.7,321.87c0-.6-.01-1.09-.05-1.57h.94l.06.96h.02c.29-.55.96-1.09,1.92-1.09.8,0,2.05.48,2.05,2.47v3.47h-1.06v-3.35c0-.94-.35-1.71-1.34-1.71-.7,0-1.24.49-1.42,1.08-.05.13-.07.31-.07.49v3.49h-1.06v-4.23Z"/>
    <path d="M649.94,318.13c.53-.11,1.28-.17,2-.17,1.12,0,1.83.2,2.34.66.41.36.64.91.64,1.54,0,1.07-.67,1.77-1.52,2.06v.04c.62.22,1,.79,1.19,1.63.26,1.13.46,1.91.62,2.22h-1.08c-.13-.23-.31-.92-.54-1.93-.24-1.12-.67-1.54-1.62-1.57h-.98v3.5h-1.04v-7.98ZM650.98,321.81h1.07c1.12,0,1.82-.61,1.82-1.54,0-1.04-.75-1.5-1.86-1.51-.5,0-.86.05-1.03.1v2.95Z"/>
    <path d="M657,323.39c.02,1.43.94,2.01,1.99,2.01.75,0,1.21-.13,1.61-.3l.18.76c-.37.17-1.01.36-1.93.36-1.79,0-2.85-1.17-2.85-2.93s1.03-3.13,2.72-3.13c1.9,0,2.4,1.67,2.4,2.73,0,.22-.02.38-.04.49h-4.08ZM660.09,322.64c.01-.67-.28-1.71-1.46-1.71-1.07,0-1.54.98-1.62,1.71h3.08Z"/>
    <path d="M667.42,320.3c-.02.42-.05.89-.05,1.6v3.37c0,1.33-.26,2.15-.83,2.65-.56.53-1.38.7-2.11.7s-1.46-.17-1.93-.48l.26-.8c.38.24.98.46,1.7.46,1.08,0,1.87-.56,1.87-2.03v-.65h-.02c-.32.54-.95.97-1.85.97-1.44,0-2.47-1.22-2.47-2.83,0-1.97,1.28-3.08,2.61-3.08,1.01,0,1.56.53,1.81,1.01h.02l.05-.88h.92ZM666.33,322.59c0-.18-.01-.34-.06-.48-.19-.61-.71-1.12-1.48-1.12-1.01,0-1.73.85-1.73,2.2,0,1.14.58,2.09,1.71,2.09.65,0,1.24-.41,1.46-1.08.06-.18.08-.38.08-.56v-1.04Z"/>
    <path d="M673.98,324.52c0,.6.01,1.13.05,1.58h-.94l-.06-.95h-.02c-.28.47-.89,1.08-1.92,1.08-.91,0-2-.5-2-2.54v-3.39h1.06v3.21c0,1.1.34,1.85,1.3,1.85.71,0,1.2-.49,1.39-.96.06-.16.1-.35.1-.54v-3.56h1.06v4.22Z"/>
    <path d="M675.74,317.59h1.06v8.51h-1.06v-8.51Z"/>
    <path d="M681.79,326.1l-.08-.73h-.04c-.32.46-.95.86-1.78.86-1.17,0-1.77-.83-1.77-1.67,0-1.4,1.25-2.17,3.49-2.16v-.12c0-.48-.13-1.34-1.32-1.34-.54,0-1.1.17-1.51.43l-.24-.7c.48-.31,1.18-.52,1.91-.52,1.78,0,2.21,1.21,2.21,2.38v2.17c0,.5.02,1,.1,1.39h-.96ZM681.63,323.14c-1.15-.02-2.46.18-2.46,1.31,0,.68.46,1.01,1,1.01.75,0,1.24-.48,1.4-.97.04-.11.06-.23.06-.34v-1.01Z"/>
    <path d="M685.58,318.63v1.67h1.51v.8h-1.51v3.13c0,.72.2,1.13.79,1.13.28,0,.48-.04.61-.07l.05.79c-.2.08-.53.14-.94.14-.49,0-.89-.16-1.14-.44-.3-.31-.41-.83-.41-1.51v-3.17h-.9v-.8h.9v-1.39l1.03-.28Z"/>
    <path d="M689.45,318.67c.01.36-.25.65-.67.65-.37,0-.64-.29-.64-.65s.28-.66.66-.66.65.29.65.66ZM688.28,326.1v-5.8h1.06v5.8h-1.06Z"/>
    <path d="M696.34,323.15c0,2.15-1.49,3.08-2.89,3.08-1.57,0-2.78-1.15-2.78-2.99,0-1.94,1.27-3.08,2.88-3.08s2.79,1.21,2.79,2.99ZM691.73,323.21c0,1.27.73,2.23,1.76,2.23s1.76-.95,1.76-2.25c0-.98-.49-2.23-1.74-2.23s-1.79,1.15-1.79,2.25Z"/>
    <path d="M697.67,321.87c0-.6-.01-1.09-.05-1.57h.94l.06.96h.02c.29-.55.96-1.09,1.92-1.09.8,0,2.05.48,2.05,2.47v3.47h-1.06v-3.35c0-.94-.35-1.71-1.34-1.71-.7,0-1.24.49-1.42,1.08-.05.13-.07.31-.07.49v3.49h-1.06v-4.23Z"/>
    <path d="M708.05,318.67c.01.36-.25.65-.67.65-.37,0-.64-.29-.64-.65s.28-.66.66-.66.65.29.65.66ZM706.88,326.1v-5.8h1.06v5.8h-1.06Z"/>
    <path d="M709.69,321.87c0-.6-.01-1.09-.05-1.57h.94l.06.96h.02c.29-.55.96-1.09,1.92-1.09.8,0,2.05.48,2.05,2.47v3.47h-1.06v-3.35c0-.94-.35-1.71-1.34-1.71-.7,0-1.24.49-1.42,1.08-.05.13-.07.31-.07.49v3.49h-1.06v-4.23Z"/>
    <path d="M720.16,318.63v1.67h1.51v.8h-1.51v3.13c0,.72.2,1.13.79,1.13.28,0,.48-.04.61-.07l.05.79c-.2.08-.53.14-.94.14-.49,0-.89-.16-1.14-.44-.3-.31-.41-.83-.41-1.51v-3.17h-.9v-.8h.9v-1.39l1.03-.28Z"/>
    <path d="M722.86,317.59h1.06v3.62h.02c.17-.3.43-.56.75-.74.31-.18.68-.3,1.08-.3.78,0,2.03.48,2.03,2.48v3.45h-1.06v-3.33c0-.94-.35-1.73-1.34-1.73-.68,0-1.22.48-1.42,1.05-.06.14-.07.3-.07.5v3.5h-1.06v-8.51Z"/>
    <path d="M730.11,323.39c.02,1.43.94,2.01,1.99,2.01.76,0,1.21-.13,1.61-.3l.18.76c-.37.17-1.01.36-1.93.36-1.79,0-2.85-1.17-2.85-2.93s1.03-3.13,2.72-3.13c1.89,0,2.4,1.67,2.4,2.73,0,.22-.02.38-.04.49h-4.08ZM733.2,322.64c.01-.67-.28-1.71-1.46-1.71-1.07,0-1.54.98-1.62,1.71h3.08Z"/>
    <path d="M742.3,322.31h-3.14v2.92h3.5v.88h-4.55v-8.08h4.37v.88h-3.32v2.55h3.14v.86Z"/>
    <path d="M745.06,318.02v4.79c0,1.81.8,2.58,1.88,2.58,1.2,0,1.97-.79,1.97-2.58v-4.79h1.06v4.71c0,2.48-1.31,3.5-3.06,3.5-1.65,0-2.9-.95-2.9-3.45v-4.76h1.06Z"/>
    <path d="M756.58,317.78c-.88,1.18-1.51,2.73-1.51,4.91s.66,3.67,1.51,4.87h-.83c-.76-1-1.57-2.53-1.57-4.87.01-2.36.82-3.9,1.57-4.91h.83Z"/>
    <path d="M763.74,325.74c-.47.17-1.39.44-2.48.44-1.22,0-2.23-.31-3.02-1.07-.7-.67-1.13-1.75-1.13-3.01.01-2.41,1.67-4.17,4.38-4.17.93,0,1.67.2,2.01.37l-.25.85c-.43-.19-.97-.35-1.79-.35-1.97,0-3.25,1.22-3.25,3.25s1.24,3.26,3.12,3.26c.68,0,1.15-.1,1.39-.22v-2.41h-1.64v-.84h2.66v3.89Z"/>
    <path d="M765.34,318.13c.64-.1,1.39-.17,2.22-.17,1.5,0,2.57.35,3.27,1.01.72.66,1.14,1.59,1.14,2.9s-.41,2.4-1.16,3.14c-.75.75-2,1.16-3.57,1.16-.74,0-1.37-.04-1.9-.1v-7.95ZM766.39,325.28c.26.05.65.06,1.05.06,2.23,0,3.44-1.25,3.44-3.43.01-1.91-1.07-3.12-3.27-3.12-.54,0-.95.05-1.22.11v6.38Z"/>
    <path d="M773.33,318.12c.5-.08,1.16-.16,2-.16,1.03,0,1.79.24,2.27.67.44.38.71.97.71,1.69s-.22,1.31-.62,1.73c-.55.59-1.45.89-2.47.89-.31,0-.6-.01-.84-.07v3.24h-1.04v-7.99ZM774.38,322.01c.23.06.52.08.86.08,1.26,0,2.03-.61,2.03-1.73s-.76-1.58-1.91-1.58c-.46,0-.8.04-.98.08v3.14Z"/>
    <path d="M779.72,318.13c.53-.11,1.28-.17,2-.17,1.12,0,1.83.2,2.34.66.41.36.64.91.64,1.54,0,1.07-.67,1.77-1.52,2.06v.04c.62.22,1,.79,1.19,1.63.26,1.13.46,1.91.62,2.22h-1.08c-.13-.23-.31-.92-.54-1.93-.24-1.12-.67-1.54-1.62-1.57h-.98v3.5h-1.04v-7.98ZM780.76,321.81h1.07c1.12,0,1.82-.61,1.82-1.54,0-1.04-.76-1.5-1.86-1.51-.5,0-.86.05-1.03.1v2.95Z"/>
    <path d="M785.5,327.55c.85-1.19,1.51-2.75,1.51-4.91s-.65-3.68-1.51-4.87h.82c.77.98,1.57,2.52,1.57,4.88s-.8,3.87-1.57,4.89h-.82Z"/>
    <path d="M788.91,327.55c.85-1.19,1.51-2.75,1.51-4.91s-.65-3.68-1.51-4.87h.82c.77.98,1.57,2.52,1.57,4.88s-.8,3.87-1.57,4.89h-.82Z"/>
    <path d="M792.7,325.48c0-.44.3-.76.72-.76s.71.31.71.76-.28.75-.72.75c-.42,0-.71-.32-.71-.75Z"/>
  </g>
  <g>
    <path d="M595.34,386.88c.64-.1,1.39-.17,2.22-.17,1.5,0,2.57.35,3.27,1.01.72.66,1.14,1.59,1.14,2.9s-.41,2.4-1.16,3.14c-.76.75-2,1.16-3.57,1.16-.74,0-1.37-.04-1.89-.1v-7.95ZM596.38,394.03c.26.05.65.06,1.06.06,2.23,0,3.44-1.25,3.44-3.43.01-1.91-1.07-3.12-3.27-3.12-.54,0-.95.05-1.22.11v6.38Z"/>
    <path d="M604.47,387.42c.01.36-.25.65-.67.65-.37,0-.64-.29-.64-.65s.28-.66.66-.66.65.29.65.66ZM603.3,394.86v-5.8h1.06v5.8h-1.06Z"/>
    <path d="M611.11,389.06c-.02.42-.05.89-.05,1.6v3.37c0,1.33-.26,2.15-.83,2.65-.56.53-1.38.7-2.11.7s-1.46-.17-1.93-.48l.26-.8c.38.24.98.46,1.7.46,1.08,0,1.87-.56,1.87-2.03v-.65h-.02c-.32.54-.95.97-1.85.97-1.44,0-2.47-1.22-2.47-2.83,0-1.97,1.28-3.08,2.61-3.08,1.01,0,1.56.53,1.81,1.01h.02l.05-.88h.92ZM610.01,391.35c0-.18-.01-.34-.06-.48-.19-.61-.71-1.12-1.48-1.12-1.01,0-1.73.85-1.73,2.2,0,1.14.58,2.09,1.71,2.09.65,0,1.24-.41,1.46-1.08.06-.18.08-.38.08-.56v-1.04Z"/>
    <path d="M613.92,387.42c.01.36-.25.65-.67.65-.37,0-.64-.29-.64-.65s.28-.66.66-.66.65.29.65.66ZM612.74,394.86v-5.8h1.06v5.8h-1.06Z"/>
    <path d="M616.82,387.39v1.67h1.51v.8h-1.51v3.13c0,.72.2,1.13.79,1.13.28,0,.48-.04.61-.07l.05.79c-.2.08-.53.14-.94.14-.49,0-.89-.16-1.14-.44-.3-.31-.41-.83-.41-1.51v-3.17h-.9v-.8h.9v-1.39l1.03-.28Z"/>
    <path d="M622.73,394.86l-.08-.73h-.04c-.32.46-.95.86-1.78.86-1.17,0-1.77-.83-1.77-1.67,0-1.4,1.25-2.17,3.49-2.16v-.12c0-.48-.13-1.34-1.32-1.34-.54,0-1.1.17-1.51.43l-.24-.7c.48-.31,1.18-.52,1.91-.52,1.78,0,2.21,1.21,2.21,2.38v2.17c0,.5.02,1,.1,1.39h-.96ZM622.58,391.9c-1.15-.02-2.46.18-2.46,1.31,0,.68.46,1.01,1,1.01.75,0,1.24-.48,1.4-.97.04-.11.06-.23.06-.34v-1.01Z"/>
    <path d="M625.3,386.35h1.06v8.51h-1.06v-8.51Z"/>
    <path d="M630.68,390.87c0-.68-.01-1.27-.05-1.81h.92l.04,1.14h.05c.26-.78.9-1.27,1.61-1.27.12,0,.2.01.3.04v1c-.11-.02-.22-.04-.36-.04-.74,0-1.27.56-1.42,1.36-.02.14-.05.31-.05.49v3.09h-1.04v-3.99Z"/>
    <path d="M635.07,392.15c.02,1.43.94,2.01,1.99,2.01.75,0,1.21-.13,1.61-.3l.18.76c-.37.17-1.01.36-1.93.36-1.79,0-2.85-1.17-2.85-2.93s1.03-3.13,2.72-3.13c1.9,0,2.4,1.67,2.4,2.73,0,.22-.02.38-.04.49h-4.08ZM638.17,391.39c.01-.67-.28-1.71-1.46-1.71-1.07,0-1.54.98-1.62,1.71h3.08Z"/>
    <path d="M640.35,393.78c.31.2.86.42,1.39.42.77,0,1.13-.38,1.13-.86,0-.5-.3-.78-1.08-1.07-1.04-.37-1.54-.95-1.54-1.64,0-.94.75-1.7,2-1.7.59,0,1.1.17,1.43.36l-.26.77c-.23-.14-.65-.33-1.19-.33-.62,0-.97.36-.97.79,0,.48.35.7,1.1.98,1.01.38,1.52.89,1.52,1.75,0,1.02-.79,1.74-2.17,1.74-.64,0-1.22-.16-1.63-.4l.26-.8Z"/>
    <path d="M645.25,390.95c0-.74-.02-1.34-.05-1.9h.95l.05,1h.02c.43-.71,1.12-1.13,2.06-1.13,1.4,0,2.46,1.19,2.46,2.95,0,2.09-1.27,3.12-2.64,3.12-.77,0-1.44-.34-1.79-.91h-.02v3.15h-1.04v-6.28ZM646.29,392.5c0,.16.02.3.05.43.19.73.83,1.24,1.58,1.24,1.12,0,1.76-.91,1.76-2.24,0-1.16-.61-2.16-1.73-2.16-.72,0-1.39.52-1.6,1.31-.04.13-.07.29-.07.43v1Z"/>
    <path d="M657.33,391.91c0,2.15-1.49,3.08-2.89,3.08-1.57,0-2.78-1.15-2.78-2.99,0-1.94,1.27-3.08,2.88-3.08s2.79,1.21,2.79,2.99ZM652.72,391.97c0,1.27.73,2.23,1.76,2.23s1.76-.95,1.76-2.25c0-.98-.49-2.23-1.74-2.23s-1.79,1.15-1.79,2.25Z"/>
    <path d="M658.66,390.63c0-.6-.01-1.09-.05-1.57h.94l.06.96h.02c.29-.55.96-1.09,1.92-1.09.8,0,2.05.48,2.05,2.47v3.47h-1.06v-3.35c0-.94-.35-1.71-1.34-1.71-.7,0-1.24.49-1.42,1.08-.05.13-.07.31-.07.49v3.49h-1.06v-4.23Z"/>
    <path d="M665.18,393.78c.31.2.86.42,1.39.42.77,0,1.13-.38,1.13-.86,0-.5-.3-.78-1.08-1.07-1.04-.37-1.54-.95-1.54-1.64,0-.94.75-1.7,2-1.7.59,0,1.1.17,1.43.36l-.26.77c-.23-.14-.65-.33-1.19-.33-.62,0-.97.36-.97.79,0,.48.35.7,1.1.98,1.01.38,1.52.89,1.52,1.75,0,1.02-.79,1.74-2.17,1.74-.64,0-1.22-.16-1.63-.4l.26-.8Z"/>
    <path d="M671.25,387.42c.01.36-.25.65-.67.65-.37,0-.64-.29-.64-.65s.28-.66.66-.66.65.29.65.66ZM670.08,394.86v-5.8h1.06v5.8h-1.06Z"/>
    <path d="M672.83,394.86c.02-.4.05-.98.05-1.5v-7.02h1.04v3.65h.02c.37-.65,1.04-1.07,1.98-1.07,1.44,0,2.46,1.2,2.45,2.96,0,2.07-1.31,3.11-2.6,3.11-.84,0-1.51-.32-1.94-1.09h-.04l-.05.96h-.91ZM673.93,392.53c0,.13.02.26.05.38.2.73.82,1.24,1.58,1.24,1.1,0,1.76-.9,1.76-2.23,0-1.16-.6-2.16-1.73-2.16-.72,0-1.39.49-1.61,1.29-.02.12-.06.26-.06.43v1.04Z"/>
    <path d="M680.89,387.42c.01.36-.25.65-.67.65-.37,0-.64-.29-.64-.65s.28-.66.66-.66.65.29.65.66ZM679.71,394.86v-5.8h1.06v5.8h-1.06Z"/>
    <path d="M682.52,386.35h1.06v8.51h-1.06v-8.51Z"/>
    <path d="M686.53,387.42c.01.36-.25.65-.67.65-.37,0-.64-.29-.64-.65s.28-.66.66-.66.65.29.65.66ZM685.35,394.86v-5.8h1.06v5.8h-1.06Z"/>
    <path d="M689.43,387.39v1.67h1.51v.8h-1.51v3.13c0,.72.2,1.13.79,1.13.28,0,.48-.04.61-.07l.05.79c-.2.08-.53.14-.94.14-.49,0-.89-.16-1.14-.44-.3-.31-.41-.83-.41-1.51v-3.17h-.9v-.8h.9v-1.39l1.03-.28Z"/>
    <path d="M692.62,389.06l1.27,3.43c.13.38.28.84.37,1.19h.02c.11-.35.23-.79.37-1.21l1.15-3.41h1.12l-1.58,4.14c-.76,1.99-1.27,3.01-1.99,3.63-.52.46-1.03.64-1.29.68l-.26-.89c.26-.08.61-.25.92-.52.29-.23.65-.64.89-1.18.05-.11.08-.19.08-.25s-.02-.14-.07-.28l-2.15-5.35h1.15Z"/>
    <path d="M697.93,390.02c0-.44.3-.76.72-.76s.7.31.71.76c0,.42-.28.74-.72.74-.42,0-.71-.32-.71-.74ZM697.93,394.25c0-.44.3-.76.72-.76s.7.31.71.76c0,.42-.28.74-.72.74-.42,0-.71-.32-.71-.74Z"/>
    <path d="M704.55,392.32l-.84,2.54h-1.08l2.75-8.08h1.26l2.76,8.08h-1.12l-.86-2.54h-2.87ZM707.2,391.5l-.79-2.33c-.18-.53-.3-1.01-.42-1.48h-.02c-.12.48-.25.97-.41,1.46l-.79,2.34h2.43Z"/>
    <path d="M710.51,390.63c0-.6-.01-1.09-.05-1.57h.94l.06.96h.02c.29-.55.96-1.09,1.92-1.09.8,0,2.05.48,2.05,2.47v3.47h-1.06v-3.35c0-.94-.35-1.71-1.34-1.71-.7,0-1.24.49-1.42,1.08-.05.13-.07.31-.07.49v3.49h-1.06v-4.23Z"/>
    <path d="M718.4,387.39v1.67h1.51v.8h-1.51v3.13c0,.72.2,1.13.79,1.13.28,0,.48-.04.61-.07l.05.79c-.2.08-.53.14-.94.14-.49,0-.89-.16-1.14-.44-.3-.31-.41-.83-.41-1.51v-3.17h-.9v-.8h.9v-1.39l1.03-.28Z"/>
    <path d="M722.27,387.42c.01.36-.25.65-.67.65-.37,0-.64-.29-.64-.65s.28-.66.66-.66.65.29.65.66ZM721.1,394.86v-5.8h1.06v5.8h-1.06Z"/>
    <path d="M728.04,394.64c-.28.14-.89.34-1.67.34-1.75,0-2.89-1.19-2.89-2.96s1.22-3.08,3.12-3.08c.62,0,1.18.16,1.46.3l-.24.82c-.25-.14-.65-.28-1.22-.28-1.33,0-2.05.98-2.05,2.19,0,1.34.86,2.17,2.01,2.17.6,0,1-.16,1.3-.29l.18.79Z"/>
    <path d="M730.46,387.42c.01.36-.25.65-.67.65-.37,0-.64-.29-.64-.65s.28-.66.66-.66.65.29.65.66ZM729.28,394.86v-5.8h1.06v5.8h-1.06Z"/>
    <path d="M732.09,390.95c0-.74-.02-1.34-.05-1.9h.95l.05,1h.02c.43-.71,1.12-1.13,2.06-1.13,1.4,0,2.46,1.19,2.46,2.95,0,2.09-1.27,3.12-2.64,3.12-.77,0-1.44-.34-1.79-.91h-.02v3.15h-1.04v-6.28ZM733.13,392.5c0,.16.02.3.05.43.19.73.83,1.24,1.58,1.24,1.12,0,1.76-.91,1.76-2.24,0-1.16-.61-2.16-1.73-2.16-.72,0-1.39.52-1.59,1.31-.04.13-.07.29-.07.43v1Z"/>
    <path d="M742.13,394.86l-.08-.73h-.04c-.32.46-.95.86-1.77.86-1.18,0-1.78-.83-1.78-1.67,0-1.4,1.25-2.17,3.49-2.16v-.12c0-.48-.13-1.34-1.32-1.34-.54,0-1.1.17-1.51.43l-.24-.7c.48-.31,1.18-.52,1.91-.52,1.77,0,2.21,1.21,2.21,2.38v2.17c0,.5.02,1,.1,1.39h-.96ZM741.98,391.9c-1.15-.02-2.46.18-2.46,1.31,0,.68.46,1.01,1,1.01.76,0,1.24-.48,1.4-.97.04-.11.06-.23.06-.34v-1.01Z"/>
    <path d="M745.92,387.39v1.67h1.51v.8h-1.51v3.13c0,.72.2,1.13.79,1.13.28,0,.48-.04.61-.07l.05.79c-.2.08-.53.14-.94.14-.49,0-.89-.16-1.14-.44-.3-.31-.41-.83-.41-1.51v-3.17h-.9v-.8h.9v-1.39l1.03-.28Z"/>
    <path d="M749.8,387.42c.01.36-.25.65-.67.65-.37,0-.64-.29-.64-.65s.28-.66.66-.66.65.29.65.66ZM748.62,394.86v-5.8h1.06v5.8h-1.06Z"/>
    <path d="M751.43,390.63c0-.6-.01-1.09-.05-1.57h.94l.06.96h.02c.29-.55.96-1.09,1.92-1.09.8,0,2.05.48,2.05,2.47v3.47h-1.06v-3.35c0-.94-.35-1.71-1.34-1.71-.7,0-1.24.49-1.42,1.08-.05.13-.07.31-.07.49v3.49h-1.06v-4.23Z"/>
    <path d="M763.09,389.06c-.02.42-.05.89-.05,1.6v3.37c0,1.33-.26,2.15-.83,2.65-.56.53-1.38.7-2.11.7s-1.46-.17-1.93-.48l.26-.8c.38.24.98.46,1.7.46,1.08,0,1.87-.56,1.87-2.03v-.65h-.02c-.32.54-.95.97-1.85.97-1.44,0-2.47-1.22-2.47-2.83,0-1.97,1.28-3.08,2.62-3.08,1.01,0,1.56.53,1.81,1.01h.02l.05-.88h.92ZM762,391.35c0-.18-.01-.34-.06-.48-.19-.61-.71-1.12-1.48-1.12-1.01,0-1.73.85-1.73,2.2,0,1.14.58,2.09,1.72,2.09.65,0,1.24-.41,1.46-1.08.06-.18.08-.38.08-.56v-1.04Z"/>
    <path d="M770.56,394.86l-.08-.73h-.04c-.32.46-.95.86-1.78.86-1.17,0-1.77-.83-1.77-1.67,0-1.4,1.25-2.17,3.49-2.16v-.12c0-.48-.13-1.34-1.32-1.34-.54,0-1.1.17-1.51.43l-.24-.7c.48-.31,1.18-.52,1.91-.52,1.78,0,2.21,1.21,2.21,2.38v2.17c0,.5.02,1,.1,1.39h-.96ZM770.4,391.9c-1.15-.02-2.46.18-2.46,1.31,0,.68.46,1.01,1,1.01.75,0,1.24-.48,1.4-.97.04-.11.06-.23.06-.34v-1.01Z"/>
    <path d="M773.13,390.63c0-.6-.01-1.09-.05-1.57h.94l.06.96h.02c.29-.55.96-1.09,1.92-1.09.8,0,2.05.48,2.05,2.47v3.47h-1.06v-3.35c0-.94-.35-1.71-1.34-1.71-.7,0-1.24.49-1.42,1.08-.05.13-.07.31-.07.49v3.49h-1.06v-4.23Z"/>
    <path d="M784.8,386.35v7.02c0,.52.01,1.1.05,1.5h-.95l-.05-1.01h-.02c-.32.65-1.03,1.14-1.98,1.14-1.4,0-2.48-1.19-2.48-2.95-.01-1.93,1.19-3.12,2.6-3.12.89,0,1.49.42,1.75.89h.02v-3.47h1.05ZM783.75,391.42c0-.13-.01-.31-.05-.44-.16-.67-.73-1.22-1.52-1.22-1.09,0-1.74.96-1.74,2.24,0,1.18.58,2.15,1.71,2.15.71,0,1.36-.47,1.55-1.26.04-.14.05-.29.05-.46v-1.01Z"/>
    <path d="M794.11,386.35v7.02c0,.52.01,1.1.05,1.5h-.95l-.05-1.01h-.02c-.32.65-1.03,1.14-1.98,1.14-1.4,0-2.48-1.19-2.48-2.95-.01-1.93,1.19-3.12,2.6-3.12.89,0,1.49.42,1.75.89h.02v-3.47h1.06ZM793.06,391.42c0-.13-.01-.31-.05-.44-.16-.67-.73-1.22-1.52-1.22-1.09,0-1.74.96-1.74,2.24,0,1.18.58,2.15,1.72,2.15.71,0,1.35-.47,1.55-1.26.04-.14.05-.29.05-.46v-1.01Z"/>
    <path d="M796.46,392.15c.02,1.43.94,2.01,1.99,2.01.75,0,1.21-.13,1.61-.3l.18.76c-.37.17-1.01.36-1.93.36-1.79,0-2.85-1.17-2.85-2.93s1.03-3.13,2.72-3.13c1.9,0,2.4,1.67,2.4,2.73,0,.22-.02.38-.04.49h-4.08ZM799.55,391.39c.01-.67-.28-1.71-1.46-1.71-1.07,0-1.54.98-1.62,1.71h3.08Z"/>
    <path d="M802.29,389.06l1.14,3.26c.19.53.35,1.01.47,1.49h.04c.13-.48.3-.96.49-1.49l1.13-3.26h1.1l-2.28,5.8h-1.01l-2.21-5.8h1.13Z"/>
    <path d="M808.12,392.15c.02,1.43.94,2.01,1.99,2.01.75,0,1.21-.13,1.61-.3l.18.76c-.37.17-1.01.36-1.93.36-1.79,0-2.85-1.17-2.85-2.93s1.03-3.13,2.72-3.13c1.9,0,2.4,1.67,2.4,2.73,0,.22-.02.38-.04.49h-4.08ZM811.21,391.39c.01-.67-.28-1.71-1.46-1.71-1.07,0-1.54.98-1.62,1.71h3.08Z"/>
    <path d="M813.54,386.35h1.06v8.51h-1.06v-8.51Z"/>
    <path d="M821.63,391.91c0,2.15-1.49,3.08-2.89,3.08-1.57,0-2.78-1.15-2.78-2.99,0-1.94,1.27-3.08,2.88-3.08s2.79,1.21,2.79,2.99ZM817.02,391.97c0,1.27.73,2.23,1.76,2.23s1.76-.95,1.76-2.25c0-.98-.49-2.23-1.74-2.23s-1.79,1.15-1.79,2.25Z"/>
    <path d="M822.96,390.95c0-.74-.02-1.34-.05-1.9h.95l.05,1h.02c.43-.71,1.12-1.13,2.06-1.13,1.4,0,2.46,1.19,2.46,2.95,0,2.09-1.27,3.12-2.64,3.12-.77,0-1.44-.34-1.79-.91h-.02v3.15h-1.04v-6.28ZM824.01,392.5c0,.16.02.3.05.43.19.73.83,1.24,1.58,1.24,1.12,0,1.76-.91,1.76-2.24,0-1.16-.61-2.16-1.73-2.16-.72,0-1.39.52-1.6,1.31-.04.13-.07.29-.07.43v1Z"/>
    <path d="M830.97,387.42c.01.36-.25.65-.67.65-.37,0-.64-.29-.64-.65s.28-.66.66-.66.65.29.65.66ZM829.79,394.86v-5.8h1.06v5.8h-1.06Z"/>
    <path d="M832.6,390.63c0-.6-.01-1.09-.05-1.57h.94l.06.96h.02c.29-.55.96-1.09,1.92-1.09.8,0,2.05.48,2.05,2.47v3.47h-1.06v-3.35c0-.94-.35-1.71-1.34-1.71-.7,0-1.24.49-1.42,1.08-.05.13-.07.31-.07.49v3.49h-1.06v-4.23Z"/>
    <path d="M844.26,389.06c-.02.42-.05.89-.05,1.6v3.37c0,1.33-.26,2.15-.83,2.65-.56.53-1.38.7-2.11.7s-1.46-.17-1.93-.48l.26-.8c.38.24.98.46,1.7.46,1.08,0,1.87-.56,1.87-2.03v-.65h-.02c-.32.54-.95.97-1.85.97-1.44,0-2.47-1.22-2.47-2.83,0-1.97,1.28-3.08,2.62-3.08,1.01,0,1.56.53,1.81,1.01h.02l.05-.88h.92ZM843.17,391.35c0-.18-.01-.34-.06-.48-.19-.61-.71-1.12-1.48-1.12-1.01,0-1.73.85-1.73,2.2,0,1.14.58,2.09,1.72,2.09.65,0,1.24-.41,1.46-1.08.06-.18.08-.38.08-.56v-1.04Z"/>
    <path d="M849.69,387.42c.01.36-.25.65-.67.65-.37,0-.64-.29-.64-.65s.28-.66.66-.66.65.29.65.66ZM848.51,394.86v-5.8h1.06v5.8h-1.06Z"/>
    <path d="M851.32,390.63c0-.6-.01-1.09-.05-1.57h.94l.06.96h.02c.29-.55.96-1.09,1.92-1.09.8,0,2.05.48,2.05,2.47v3.47h-1.06v-3.35c0-.94-.35-1.71-1.34-1.71-.7,0-1.24.49-1.42,1.08-.05.13-.07.31-.07.49v3.49h-1.06v-4.23Z"/>
    <path d="M857.98,390.63c0-.6-.01-1.09-.05-1.57h.94l.06.96h.02c.29-.55.96-1.09,1.92-1.09.8,0,2.05.48,2.05,2.47v3.47h-1.06v-3.35c0-.94-.35-1.71-1.34-1.71-.7,0-1.24.49-1.42,1.08-.05.13-.07.31-.07.49v3.49h-1.06v-4.23Z"/>
    <path d="M869.89,391.91c0,2.15-1.49,3.08-2.89,3.08-1.57,0-2.78-1.15-2.78-2.99,0-1.94,1.27-3.08,2.88-3.08s2.79,1.21,2.79,2.99ZM865.29,391.97c0,1.27.73,2.23,1.76,2.23s1.76-.95,1.76-2.25c0-.98-.49-2.23-1.74-2.23s-1.79,1.15-1.79,2.25Z"/>
    <path d="M871.55,389.06l1.14,3.26c.19.53.35,1.01.47,1.49h.04c.13-.48.3-.96.49-1.49l1.13-3.26h1.1l-2.28,5.8h-1.01l-2.21-5.8h1.13Z"/>
    <path d="M880.08,394.86l-.08-.73h-.04c-.32.46-.95.86-1.78.86-1.17,0-1.77-.83-1.77-1.67,0-1.4,1.25-2.17,3.49-2.16v-.12c0-.48-.13-1.34-1.32-1.34-.54,0-1.1.17-1.51.43l-.24-.7c.48-.31,1.18-.52,1.91-.52,1.78,0,2.21,1.21,2.21,2.38v2.17c0,.5.02,1,.1,1.39h-.96ZM879.93,391.9c-1.15-.02-2.46.18-2.46,1.31,0,.68.46,1.01,1,1.01.75,0,1.24-.48,1.4-.97.04-.11.06-.23.06-.34v-1.01Z"/>
    <path d="M883.88,387.39v1.67h1.51v.8h-1.51v3.13c0,.72.2,1.13.79,1.13.28,0,.48-.04.61-.07l.05.79c-.2.08-.53.14-.94.14-.49,0-.89-.16-1.14-.44-.3-.31-.41-.83-.41-1.51v-3.17h-.9v-.8h.9v-1.39l1.03-.28Z"/>
    <path d="M887.75,387.42c.01.36-.25.65-.67.65-.37,0-.64-.29-.64-.65s.28-.66.66-.66.65.29.65.66ZM886.58,394.86v-5.8h1.06v5.8h-1.06Z"/>
    <path d="M889.79,389.06l1.14,3.26c.19.53.35,1.01.47,1.49h.04c.13-.48.3-.96.49-1.49l1.13-3.26h1.1l-2.28,5.8h-1.01l-2.21-5.8h1.13Z"/>
    <path d="M895.62,392.15c.02,1.43.94,2.01,1.99,2.01.76,0,1.21-.13,1.61-.3l.18.76c-.37.17-1.01.36-1.93.36-1.79,0-2.85-1.17-2.85-2.93s1.03-3.13,2.72-3.13c1.89,0,2.4,1.67,2.4,2.73,0,.22-.02.38-.04.49h-4.08ZM898.72,391.39c.01-.67-.28-1.71-1.46-1.71-1.07,0-1.54.98-1.62,1.71h3.08Z"/>
    <path d="M595.26,409.26c.02-.4.05-.98.05-1.5v-7.02h1.04v3.65h.02c.37-.65,1.04-1.07,1.98-1.07,1.44,0,2.46,1.2,2.45,2.96,0,2.08-1.31,3.11-2.6,3.11-.84,0-1.51-.32-1.94-1.09h-.04l-.05.96h-.91ZM596.35,406.93c0,.13.02.26.05.38.2.73.82,1.24,1.58,1.24,1.1,0,1.76-.9,1.76-2.23,0-1.16-.6-2.16-1.73-2.16-.72,0-1.39.49-1.61,1.3-.02.12-.06.26-.06.43v1.04Z"/>
    <path d="M606.99,407.68c0,.6.01,1.13.05,1.58h-.94l-.06-.95h-.02c-.28.47-.89,1.08-1.92,1.08-.91,0-2-.5-2-2.54v-3.39h1.06v3.21c0,1.1.34,1.85,1.3,1.85.71,0,1.2-.49,1.39-.96.06-.16.1-.35.1-.54v-3.56h1.06v4.22Z"/>
    <path d="M608.6,408.18c.31.2.86.42,1.39.42.77,0,1.13-.38,1.13-.86,0-.5-.3-.78-1.08-1.07-1.04-.37-1.54-.95-1.54-1.64,0-.93.75-1.7,2-1.7.59,0,1.1.17,1.43.36l-.26.77c-.23-.14-.65-.34-1.19-.34-.62,0-.97.36-.97.79,0,.48.35.7,1.1.98,1.01.38,1.52.89,1.52,1.75,0,1.02-.79,1.74-2.17,1.74-.64,0-1.22-.16-1.63-.4l.26-.8Z"/>
    <path d="M614.67,401.82c.01.36-.25.65-.67.65-.37,0-.64-.29-.64-.65s.28-.66.66-.66.65.29.65.66ZM613.5,409.26v-5.8h1.06v5.8h-1.06Z"/>
    <path d="M616.3,405.03c0-.6-.01-1.09-.05-1.57h.94l.06.96h.02c.29-.55.96-1.09,1.92-1.09.8,0,2.05.48,2.05,2.47v3.47h-1.06v-3.35c0-.94-.35-1.71-1.34-1.71-.7,0-1.24.49-1.42,1.08-.05.13-.07.31-.07.49v3.49h-1.06v-4.23Z"/>
    <path d="M623.55,406.55c.02,1.43.94,2.01,1.99,2.01.75,0,1.21-.13,1.61-.3l.18.76c-.37.17-1.01.36-1.93.36-1.79,0-2.85-1.18-2.85-2.93s1.03-3.13,2.72-3.13c1.9,0,2.4,1.67,2.4,2.73,0,.22-.02.38-.04.49h-4.08ZM626.65,405.79c.01-.67-.28-1.71-1.46-1.71-1.07,0-1.54.98-1.62,1.71h3.08Z"/>
    <path d="M628.83,408.18c.31.2.86.42,1.39.42.77,0,1.13-.38,1.13-.86,0-.5-.3-.78-1.08-1.07-1.04-.37-1.54-.95-1.54-1.64,0-.93.75-1.7,2-1.7.59,0,1.1.17,1.43.36l-.26.77c-.23-.14-.65-.34-1.19-.34-.62,0-.97.36-.97.79,0,.48.35.7,1.1.98,1.01.38,1.52.89,1.52,1.75,0,1.02-.79,1.74-2.17,1.74-.64,0-1.22-.16-1.63-.4l.26-.8Z"/>
    <path d="M633.58,408.18c.31.2.86.42,1.39.42.77,0,1.13-.38,1.13-.86,0-.5-.3-.78-1.08-1.07-1.04-.37-1.54-.95-1.54-1.64,0-.93.75-1.7,2-1.7.59,0,1.1.17,1.43.36l-.26.77c-.23-.14-.65-.34-1.19-.34-.62,0-.97.36-.97.79,0,.48.35.7,1.1.98,1.01.38,1.52.89,1.52,1.75,0,1.02-.79,1.74-2.17,1.74-.64,0-1.22-.16-1.63-.4l.26-.8Z"/>
    <path d="M641.02,405.03c0-.6-.01-1.09-.05-1.57h.92l.05.94h.04c.32-.55.86-1.07,1.82-1.07.79,0,1.39.48,1.64,1.16h.02c.18-.32.41-.58.65-.76.35-.26.73-.41,1.28-.41.77,0,1.91.5,1.91,2.52v3.42h-1.03v-3.29c0-1.12-.41-1.79-1.26-1.79-.6,0-1.07.44-1.25.96-.05.14-.08.34-.08.53v3.59h-1.03v-3.48c0-.92-.41-1.59-1.21-1.59-.66,0-1.14.53-1.31,1.06-.06.16-.08.33-.08.52v3.5h-1.03v-4.23Z"/>
    <path d="M656.28,406.31c0,2.15-1.49,3.08-2.89,3.08-1.57,0-2.78-1.15-2.78-2.99,0-1.94,1.27-3.08,2.88-3.08s2.79,1.21,2.79,2.99ZM651.68,406.37c0,1.27.73,2.23,1.76,2.23s1.76-.95,1.76-2.25c0-.98-.49-2.23-1.74-2.23s-1.79,1.15-1.79,2.25Z"/>
    <path d="M662.63,400.75v7.02c0,.52.01,1.1.05,1.5h-.95l-.05-1.01h-.02c-.32.65-1.03,1.14-1.98,1.14-1.4,0-2.48-1.19-2.48-2.95-.01-1.93,1.19-3.12,2.6-3.12.89,0,1.49.42,1.75.89h.02v-3.47h1.06ZM661.58,405.82c0-.13-.01-.31-.05-.44-.16-.67-.73-1.22-1.52-1.22-1.09,0-1.74.96-1.74,2.24,0,1.17.58,2.15,1.72,2.15.71,0,1.35-.47,1.55-1.26.04-.14.05-.29.05-.46v-1.01Z"/>
    <path d="M664.98,406.55c.02,1.43.94,2.01,1.99,2.01.76,0,1.21-.13,1.61-.3l.18.76c-.37.17-1.01.36-1.93.36-1.79,0-2.85-1.18-2.85-2.93s1.03-3.13,2.72-3.13c1.89,0,2.4,1.67,2.4,2.73,0,.22-.02.38-.04.49h-4.08ZM668.07,405.79c.01-.67-.28-1.71-1.46-1.71-1.07,0-1.54.98-1.62,1.71h3.08Z"/>
    <path d="M670.4,400.75h1.06v8.52h-1.06v-8.52Z"/>
    <path d="M673.09,408.18c.31.2.86.42,1.39.42.77,0,1.13-.38,1.13-.86,0-.5-.3-.78-1.08-1.07-1.04-.37-1.54-.95-1.54-1.64,0-.93.76-1.7,2-1.7.59,0,1.1.17,1.43.36l-.26.77c-.23-.14-.65-.34-1.19-.34-.62,0-.97.36-.97.79,0,.48.35.7,1.1.98,1.01.38,1.52.89,1.52,1.75,0,1.02-.79,1.74-2.17,1.74-.63,0-1.22-.16-1.63-.4l.26-.8Z"/>
    <path d="M680.95,403.46l.77,2.95c.17.65.32,1.25.43,1.85h.04c.13-.59.32-1.21.52-1.83l.95-2.96h.89l.9,2.9c.22.7.38,1.31.52,1.89h.04c.1-.59.25-1.2.44-1.88l.83-2.91h1.04l-1.87,5.8h-.96l-.89-2.77c-.2-.65-.37-1.22-.52-1.91h-.02c-.14.7-.32,1.29-.53,1.92l-.94,2.76h-.96l-1.75-5.8h1.08Z"/>
    <path d="M689.36,400.75h1.06v3.62h.02c.17-.3.43-.56.76-.74.31-.18.68-.3,1.08-.3.78,0,2.03.48,2.03,2.48v3.45h-1.06v-3.33c0-.94-.35-1.73-1.34-1.73-.68,0-1.22.48-1.42,1.06-.06.14-.07.3-.07.5v3.5h-1.06v-8.52Z"/>
    <path d="M697.19,401.82c.01.36-.25.65-.67.65-.37,0-.64-.29-.64-.65s.28-.66.66-.66.65.29.65.66ZM696.02,409.26v-5.8h1.06v5.8h-1.06Z"/>
    <path d="M702.96,409.04c-.28.14-.89.34-1.67.34-1.75,0-2.89-1.19-2.89-2.96s1.22-3.08,3.12-3.08c.62,0,1.18.16,1.46.3l-.24.82c-.25-.14-.65-.28-1.22-.28-1.33,0-2.05.98-2.05,2.19,0,1.34.86,2.17,2.01,2.17.6,0,1-.16,1.3-.29l.18.79Z"/>
    <path d="M704.2,400.75h1.06v3.62h.02c.17-.3.43-.56.76-.74.31-.18.68-.3,1.08-.3.78,0,2.03.48,2.03,2.48v3.45h-1.06v-3.33c0-.94-.35-1.73-1.34-1.73-.68,0-1.22.48-1.42,1.06-.06.14-.07.3-.07.5v3.5h-1.06v-8.52Z"/>
    <path d="M713.26,408.18c.31.2.86.42,1.39.42.77,0,1.13-.38,1.13-.86,0-.5-.3-.78-1.08-1.07-1.04-.37-1.54-.95-1.54-1.64,0-.93.75-1.7,2-1.7.59,0,1.1.17,1.43.36l-.26.77c-.23-.14-.65-.34-1.19-.34-.62,0-.97.36-.97.79,0,.48.35.7,1.1.98,1.01.38,1.52.89,1.52,1.75,0,1.02-.79,1.74-2.17,1.74-.64,0-1.22-.16-1.63-.4l.26-.8Z"/>
    <path d="M718.75,406.55c.02,1.43.94,2.01,1.99,2.01.75,0,1.21-.13,1.61-.3l.18.76c-.37.17-1.01.36-1.93.36-1.79,0-2.85-1.18-2.85-2.93s1.03-3.13,2.72-3.13c1.9,0,2.4,1.67,2.4,2.73,0,.22-.02.38-.04.49h-4.08ZM721.84,405.79c.01-.67-.28-1.71-1.46-1.71-1.07,0-1.54.98-1.62,1.71h3.08Z"/>
    <path d="M728.31,409.04c-.28.14-.89.34-1.67.34-1.75,0-2.89-1.19-2.89-2.96s1.22-3.08,3.12-3.08c.62,0,1.18.16,1.46.3l-.24.82c-.25-.14-.65-.28-1.22-.28-1.33,0-2.05.98-2.05,2.19,0,1.34.86,2.17,2.01,2.17.6,0,1-.16,1.3-.29l.18.79Z"/>
    <path d="M734.4,407.68c0,.6.01,1.13.05,1.58h-.94l-.06-.95h-.02c-.28.47-.89,1.08-1.92,1.08-.91,0-2-.5-2-2.54v-3.39h1.06v3.21c0,1.1.34,1.85,1.29,1.85.71,0,1.2-.49,1.39-.96.06-.16.1-.35.1-.54v-3.56h1.06v4.22Z"/>
    <path d="M736.16,405.27c0-.68-.01-1.27-.05-1.81h.92l.04,1.14h.05c.26-.78.9-1.27,1.61-1.27.12,0,.2.01.3.04v1c-.11-.02-.22-.04-.36-.04-.74,0-1.27.56-1.42,1.36-.02.14-.05.31-.05.49v3.09h-1.04v-3.99Z"/>
    <path d="M740.55,406.55c.02,1.43.94,2.01,1.99,2.01.76,0,1.21-.13,1.61-.3l.18.76c-.37.17-1.01.36-1.93.36-1.79,0-2.85-1.18-2.85-2.93s1.03-3.13,2.72-3.13c1.89,0,2.4,1.67,2.4,2.73,0,.22-.02.38-.04.49h-4.08ZM743.64,405.79c.01-.67-.28-1.71-1.46-1.71-1.07,0-1.54.98-1.62,1.71h3.08Z"/>
    <path d="M749.79,401.79v1.67h1.51v.8h-1.51v3.13c0,.72.2,1.13.79,1.13.28,0,.48-.04.61-.07l.05.79c-.2.08-.53.14-.94.14-.49,0-.89-.16-1.14-.44-.3-.31-.41-.83-.41-1.51v-3.17h-.9v-.8h.9v-1.39l1.03-.28Z"/>
    <path d="M752.49,400.75h1.06v3.62h.02c.17-.3.43-.56.75-.74.31-.18.68-.3,1.08-.3.78,0,2.03.48,2.03,2.48v3.45h-1.06v-3.33c0-.94-.35-1.73-1.34-1.73-.68,0-1.22.48-1.42,1.06-.06.14-.07.3-.07.5v3.5h-1.06v-8.52Z"/>
    <path d="M759.74,406.55c.02,1.43.94,2.01,1.99,2.01.76,0,1.21-.13,1.61-.3l.18.76c-.37.17-1.01.36-1.93.36-1.79,0-2.85-1.18-2.85-2.93s1.03-3.13,2.72-3.13c1.89,0,2.4,1.67,2.4,2.73,0,.22-.02.38-.04.49h-4.08ZM762.83,405.79c.01-.67-.28-1.71-1.46-1.71-1.07,0-1.54.98-1.62,1.71h3.08Z"/>
    <path d="M771.84,409.04c-.28.14-.89.34-1.67.34-1.75,0-2.89-1.19-2.89-2.96s1.22-3.08,3.12-3.08c.62,0,1.18.16,1.46.3l-.24.82c-.25-.14-.65-.28-1.22-.28-1.33,0-2.05.98-2.05,2.19,0,1.34.86,2.17,2.01,2.17.6,0,1-.16,1.3-.29l.18.79Z"/>
    <path d="M778.26,406.31c0,2.15-1.49,3.08-2.89,3.08-1.57,0-2.78-1.15-2.78-2.99,0-1.94,1.27-3.08,2.88-3.08s2.79,1.21,2.79,2.99ZM773.66,406.37c0,1.27.73,2.23,1.76,2.23s1.76-.95,1.76-2.25c0-.98-.49-2.23-1.74-2.23s-1.79,1.15-1.79,2.25Z"/>
    <path d="M779.6,405.03c0-.6-.01-1.09-.05-1.57h.92l.05.94h.04c.32-.55.86-1.07,1.82-1.07.79,0,1.39.48,1.64,1.16h.02c.18-.32.41-.58.65-.76.35-.26.73-.41,1.28-.41.77,0,1.91.5,1.91,2.52v3.42h-1.03v-3.29c0-1.12-.41-1.79-1.26-1.79-.6,0-1.07.44-1.25.96-.05.14-.08.34-.08.53v3.59h-1.03v-3.48c0-.92-.41-1.59-1.21-1.59-.66,0-1.14.53-1.31,1.06-.06.16-.08.33-.08.52v3.5h-1.03v-4.23Z"/>
    <path d="M789.61,405.35c0-.74-.02-1.34-.05-1.89h.95l.05,1h.02c.43-.71,1.12-1.13,2.06-1.13,1.4,0,2.46,1.19,2.46,2.95,0,2.09-1.27,3.12-2.64,3.12-.77,0-1.44-.34-1.79-.91h-.02v3.15h-1.04v-6.28ZM790.65,406.9c0,.16.02.3.05.43.19.73.83,1.24,1.58,1.24,1.12,0,1.76-.91,1.76-2.24,0-1.16-.61-2.16-1.73-2.16-.72,0-1.39.52-1.6,1.31-.04.13-.07.29-.07.43v1Z"/>
    <path d="M799.65,409.26l-.08-.73h-.04c-.32.46-.95.86-1.78.86-1.17,0-1.77-.83-1.77-1.67,0-1.4,1.25-2.17,3.49-2.16v-.12c0-.48-.13-1.34-1.32-1.34-.54,0-1.1.17-1.51.43l-.24-.7c.48-.31,1.18-.52,1.91-.52,1.78,0,2.21,1.21,2.21,2.37v2.17c0,.5.02,1,.1,1.39h-.96ZM799.49,406.3c-1.15-.02-2.46.18-2.46,1.31,0,.68.46,1.01,1,1.01.75,0,1.24-.48,1.4-.97.04-.11.06-.23.06-.34v-1.01Z"/>
    <path d="M802.22,405.03c0-.6-.01-1.09-.05-1.57h.94l.06.96h.02c.29-.55.96-1.09,1.92-1.09.8,0,2.05.48,2.05,2.47v3.47h-1.06v-3.35c0-.94-.35-1.71-1.34-1.71-.7,0-1.24.49-1.42,1.08-.05.13-.07.31-.07.49v3.49h-1.06v-4.23Z"/>
    <path d="M809.11,403.46l1.27,3.43c.13.38.28.84.37,1.19h.02c.11-.35.23-.79.37-1.21l1.15-3.41h1.12l-1.58,4.14c-.76,1.99-1.27,3.01-1.99,3.63-.52.46-1.03.64-1.29.68l-.26-.89c.26-.08.61-.25.92-.52.29-.23.65-.64.89-1.18.05-.11.08-.19.08-.25s-.02-.14-.07-.28l-2.15-5.35h1.15Z"/>
    <path d="M816.07,401.04c-.28,1.01-.79,2.29-1.13,2.84l-.67.08c.26-.71.58-1.96.71-2.82l1.09-.11Z"/>
    <path d="M816.21,408.18c.31.2.86.42,1.39.42.77,0,1.13-.38,1.13-.86,0-.5-.3-.78-1.08-1.07-1.04-.37-1.54-.95-1.54-1.64,0-.93.75-1.7,2-1.7.59,0,1.1.17,1.43.36l-.26.77c-.23-.14-.65-.34-1.19-.34-.62,0-.97.36-.97.79,0,.48.35.7,1.1.98,1.01.38,1.52.89,1.52,1.75,0,1.02-.79,1.74-2.17,1.74-.64,0-1.22-.16-1.63-.4l.26-.8Z"/>
    <path d="M823.51,408.18c.31.2.86.42,1.39.42.77,0,1.13-.38,1.13-.86,0-.5-.3-.78-1.08-1.07-1.04-.37-1.54-.95-1.54-1.64,0-.93.75-1.7,2-1.7.59,0,1.1.17,1.43.36l-.26.77c-.23-.14-.65-.34-1.19-.34-.62,0-.97.36-.97.79,0,.48.35.7,1.1.98,1.01.38,1.52.89,1.52,1.75,0,1.02-.79,1.74-2.17,1.74-.64,0-1.22-.16-1.63-.4l.26-.8Z"/>
    <path d="M833.26,407.68c0,.6.01,1.13.05,1.58h-.94l-.06-.95h-.02c-.28.47-.89,1.08-1.92,1.08-.91,0-2-.5-2-2.54v-3.39h1.06v3.21c0,1.1.34,1.85,1.3,1.85.71,0,1.2-.49,1.39-.96.06-.16.1-.35.1-.54v-3.56h1.06v4.22Z"/>
    <path d="M835.01,405.27c0-.68-.01-1.27-.05-1.81h.92l.04,1.14h.05c.26-.78.9-1.27,1.61-1.27.12,0,.2.01.3.04v1c-.11-.02-.22-.04-.36-.04-.74,0-1.27.56-1.42,1.36-.02.14-.05.31-.05.49v3.09h-1.04v-3.99Z"/>
    <path d="M839.64,403.46l1.14,3.26c.19.53.35,1.01.47,1.49h.04c.13-.48.3-.96.49-1.49l1.13-3.26h1.1l-2.28,5.8h-1.01l-2.21-5.8h1.13Z"/>
    <path d="M846.18,401.82c.01.36-.25.65-.67.65-.37,0-.64-.29-.64-.65s.28-.66.66-.66.65.29.65.66ZM845.01,409.26v-5.8h1.06v5.8h-1.06Z"/>
    <path d="M848.22,403.46l1.14,3.26c.19.53.35,1.01.47,1.49h.04c.13-.48.3-.96.49-1.49l1.13-3.26h1.1l-2.28,5.8h-1.01l-2.21-5.8h1.13Z"/>
    <path d="M856.75,409.26l-.08-.73h-.04c-.32.46-.95.86-1.77.86-1.18,0-1.78-.83-1.78-1.67,0-1.4,1.25-2.17,3.49-2.16v-.12c0-.48-.13-1.34-1.32-1.34-.54,0-1.1.17-1.51.43l-.24-.7c.48-.31,1.18-.52,1.91-.52,1.77,0,2.21,1.21,2.21,2.37v2.17c0,.5.02,1,.1,1.39h-.96ZM856.6,406.3c-1.15-.02-2.46.18-2.46,1.31,0,.68.46,1.01,1,1.01.76,0,1.24-.48,1.4-.97.04-.11.06-.23.06-.34v-1.01Z"/>
    <path d="M859.33,400.75h1.06v8.52h-1.06v-8.52Z"/>
    <path d="M869.7,403.46c-.02.42-.05.89-.05,1.59v3.37c0,1.33-.26,2.15-.83,2.65-.56.53-1.38.7-2.11.7s-1.46-.17-1.93-.48l.26-.8c.38.24.98.46,1.7.46,1.08,0,1.87-.56,1.87-2.03v-.65h-.02c-.32.54-.95.97-1.85.97-1.44,0-2.47-1.22-2.47-2.83,0-1.97,1.28-3.08,2.62-3.08,1.01,0,1.56.53,1.81,1.01h.02l.05-.88h.92ZM868.61,405.75c0-.18-.01-.34-.06-.48-.19-.61-.71-1.12-1.48-1.12-1.01,0-1.73.85-1.73,2.19,0,1.14.58,2.09,1.72,2.09.65,0,1.24-.41,1.46-1.08.06-.18.08-.38.08-.56v-1.04Z"/>
    <path d="M872.51,401.82c.01.36-.25.65-.67.65-.37,0-.64-.29-.64-.65s.28-.66.66-.66.65.29.65.66ZM871.34,409.26v-5.8h1.06v5.8h-1.06Z"/>
    <path d="M874.55,403.46l1.14,3.26c.19.53.35,1.01.47,1.49h.04c.13-.48.3-.96.49-1.49l1.13-3.26h1.1l-2.28,5.8h-1.01l-2.21-5.8h1.13Z"/>
    <path d="M880.38,406.55c.02,1.43.94,2.01,1.99,2.01.75,0,1.21-.13,1.61-.3l.18.76c-.37.17-1.01.36-1.93.36-1.79,0-2.85-1.18-2.85-2.93s1.03-3.13,2.72-3.13c1.9,0,2.4,1.67,2.4,2.73,0,.22-.02.38-.04.49h-4.08ZM883.48,405.79c.01-.67-.28-1.71-1.46-1.71-1.07,0-1.54.98-1.62,1.71h3.08Z"/>
    <path d="M885.81,405.03c0-.6-.01-1.09-.05-1.57h.94l.06.96h.02c.29-.55.96-1.09,1.92-1.09.8,0,2.05.48,2.05,2.47v3.47h-1.06v-3.35c0-.94-.35-1.71-1.34-1.71-.7,0-1.24.49-1.42,1.08-.05.13-.07.31-.07.49v3.49h-1.06v-4.23Z"/>
    <path d="M895.01,405.03c0-.6-.01-1.09-.05-1.57h.94l.06.96h.02c.29-.55.96-1.09,1.92-1.09.8,0,2.05.48,2.05,2.47v3.47h-1.06v-3.35c0-.94-.35-1.71-1.34-1.71-.7,0-1.24.49-1.42,1.08-.05.13-.07.31-.07.49v3.49h-1.06v-4.23Z"/>
    <path d="M902.26,406.55c.02,1.43.94,2.01,1.99,2.01.75,0,1.21-.13,1.61-.3l.18.76c-.37.17-1.01.36-1.93.36-1.79,0-2.85-1.18-2.85-2.93s1.03-3.13,2.72-3.13c1.9,0,2.4,1.67,2.4,2.73,0,.22-.02.38-.04.49h-4.08ZM905.35,405.79c.01-.67-.28-1.71-1.46-1.71-1.07,0-1.54.98-1.62,1.71h3.08Z"/>
    <path d="M908.1,403.46l.77,2.95c.17.65.32,1.25.43,1.85h.04c.13-.59.32-1.21.52-1.83l.95-2.96h.89l.9,2.9c.22.7.38,1.31.52,1.89h.04c.1-.59.25-1.2.44-1.88l.83-2.91h1.04l-1.87,5.8h-.96l-.89-2.77c-.2-.65-.37-1.22-.52-1.91h-.02c-.14.7-.32,1.29-.53,1.92l-.94,2.76h-.96l-1.75-5.8h1.08Z"/>
    <path d="M599.44,423.44c-.28.14-.89.34-1.67.34-1.75,0-2.89-1.19-2.89-2.96s1.22-3.08,3.12-3.08c.62,0,1.18.16,1.46.3l-.24.82c-.25-.14-.65-.28-1.22-.28-1.33,0-2.05.98-2.05,2.19,0,1.34.86,2.17,2.01,2.17.6,0,1-.16,1.3-.29l.18.79Z"/>
    <path d="M605.86,420.71c0,2.15-1.49,3.08-2.89,3.08-1.57,0-2.78-1.15-2.78-2.99,0-1.94,1.27-3.08,2.88-3.08s2.79,1.21,2.79,2.99ZM601.26,420.77c0,1.27.73,2.23,1.76,2.23s1.76-.95,1.76-2.25c0-.98-.49-2.23-1.74-2.23s-1.79,1.15-1.79,2.25Z"/>
    <path d="M607.2,419.43c0-.6-.01-1.09-.05-1.57h.92l.05.94h.04c.32-.55.86-1.07,1.82-1.07.79,0,1.39.48,1.64,1.16h.02c.18-.32.41-.58.65-.75.35-.26.73-.41,1.28-.41.77,0,1.91.5,1.91,2.52v3.42h-1.03v-3.29c0-1.12-.41-1.79-1.26-1.79-.6,0-1.07.44-1.25.96-.05.14-.08.34-.08.53v3.59h-1.03v-3.48c0-.92-.41-1.6-1.21-1.6-.66,0-1.14.53-1.31,1.06-.06.16-.08.34-.08.52v3.5h-1.03v-4.23Z"/>
    <path d="M617.2,419.75c0-.74-.02-1.34-.05-1.9h.95l.05,1h.02c.43-.71,1.12-1.13,2.06-1.13,1.4,0,2.46,1.19,2.46,2.95,0,2.09-1.27,3.12-2.64,3.12-.77,0-1.44-.34-1.79-.91h-.02v3.15h-1.04v-6.28ZM618.25,421.3c0,.16.02.3.05.43.19.73.83,1.24,1.58,1.24,1.12,0,1.76-.91,1.76-2.24,0-1.16-.61-2.16-1.73-2.16-.72,0-1.39.52-1.6,1.31-.04.13-.07.29-.07.43v1Z"/>
    <path d="M624.62,420.95c.02,1.43.94,2.01,1.99,2.01.75,0,1.21-.13,1.61-.3l.18.76c-.37.17-1.01.36-1.93.36-1.79,0-2.85-1.17-2.85-2.93s1.03-3.13,2.72-3.13c1.9,0,2.4,1.67,2.4,2.73,0,.22-.02.38-.04.49h-4.08ZM627.71,420.19c.01-.67-.28-1.71-1.46-1.71-1.07,0-1.54.98-1.62,1.71h3.08Z"/>
    <path d="M631.32,416.19v1.67h1.51v.8h-1.51v3.13c0,.72.2,1.13.79,1.13.28,0,.48-.04.61-.07l.05.79c-.2.08-.53.14-.94.14-.49,0-.89-.16-1.14-.44-.3-.31-.41-.83-.41-1.51v-3.17h-.9v-.8h.9v-1.39l1.03-.28Z"/>
    <path d="M635.19,416.22c.01.36-.25.65-.67.65-.37,0-.64-.29-.64-.65s.28-.66.66-.66.65.29.65.66ZM634.02,423.66v-5.8h1.06v5.8h-1.06Z"/>
    <path d="M638.1,416.19v1.67h1.51v.8h-1.51v3.13c0,.72.2,1.13.79,1.13.28,0,.48-.04.61-.07l.05.79c-.2.08-.53.14-.94.14-.49,0-.89-.16-1.14-.44-.3-.31-.41-.83-.41-1.51v-3.17h-.9v-.8h.9v-1.39l1.03-.28Z"/>
    <path d="M641.97,416.22c.01.36-.25.65-.67.65-.37,0-.64-.29-.64-.65s.28-.66.66-.66.65.29.65.66ZM640.8,423.66v-5.8h1.06v5.8h-1.06Z"/>
    <path d="M644.01,417.86l1.14,3.26c.19.53.35,1.01.47,1.49h.04c.13-.48.3-.96.49-1.49l1.13-3.26h1.1l-2.28,5.8h-1.01l-2.21-5.8h1.13Z"/>
    <path d="M649.84,420.95c.02,1.43.94,2.01,1.99,2.01.76,0,1.21-.13,1.61-.3l.18.76c-.37.17-1.01.36-1.93.36-1.79,0-2.85-1.17-2.85-2.93s1.03-3.13,2.72-3.13c1.89,0,2.4,1.67,2.4,2.73,0,.22-.02.38-.04.49h-4.08ZM652.94,420.19c.01-.67-.28-1.71-1.46-1.71-1.07,0-1.54.98-1.62,1.71h3.08Z"/>
    <path d="M657.81,419.75c0-.74-.02-1.34-.05-1.9h.95l.05,1h.02c.43-.71,1.12-1.13,2.06-1.13,1.4,0,2.46,1.19,2.46,2.95,0,2.09-1.27,3.12-2.64,3.12-.77,0-1.44-.34-1.79-.91h-.02v3.15h-1.04v-6.28ZM658.86,421.3c0,.16.02.3.05.43.19.73.83,1.24,1.58,1.24,1.12,0,1.76-.91,1.76-2.24,0-1.16-.61-2.16-1.73-2.16-.72,0-1.39.52-1.6,1.31-.04.13-.07.29-.07.43v1Z"/>
    <path d="M664.64,419.67c0-.68-.01-1.27-.05-1.81h.92l.04,1.14h.05c.26-.78.9-1.27,1.61-1.27.12,0,.2.01.3.04v1c-.11-.02-.22-.04-.36-.04-.74,0-1.27.56-1.42,1.36-.02.14-.05.31-.05.49v3.09h-1.04v-3.99Z"/>
    <path d="M669.03,420.95c.02,1.43.94,2.01,1.99,2.01.75,0,1.21-.13,1.61-.3l.18.76c-.37.17-1.01.36-1.93.36-1.79,0-2.85-1.17-2.85-2.93s1.03-3.13,2.72-3.13c1.9,0,2.4,1.67,2.4,2.73,0,.22-.02.38-.04.49h-4.08ZM672.13,420.19c.01-.67-.28-1.71-1.46-1.71-1.07,0-1.54.98-1.62,1.71h3.08Z"/>
    <path d="M674.31,422.58c.31.2.86.42,1.39.42.77,0,1.13-.38,1.13-.86,0-.5-.3-.78-1.08-1.07-1.04-.37-1.54-.95-1.54-1.64,0-.94.75-1.7,2-1.7.59,0,1.1.17,1.43.36l-.26.77c-.23-.14-.65-.33-1.19-.33-.62,0-.97.36-.97.79,0,.48.35.7,1.1.98,1.01.38,1.52.89,1.52,1.75,0,1.02-.79,1.74-2.17,1.74-.64,0-1.22-.16-1.63-.4l.26-.8Z"/>
    <path d="M679.06,422.58c.31.2.86.42,1.39.42.77,0,1.13-.38,1.13-.86,0-.5-.3-.78-1.08-1.07-1.04-.37-1.54-.95-1.54-1.64,0-.94.75-1.7,2-1.7.59,0,1.1.17,1.43.36l-.26.77c-.23-.14-.65-.33-1.19-.33-.62,0-.97.36-.97.79,0,.48.35.7,1.1.98,1.01.38,1.52.89,1.52,1.75,0,1.02-.79,1.74-2.17,1.74-.64,0-1.22-.16-1.63-.4l.26-.8Z"/>
    <path d="M688.82,422.08c0,.6.01,1.13.05,1.58h-.94l-.06-.95h-.02c-.28.47-.89,1.08-1.92,1.08-.91,0-2-.5-2-2.54v-3.39h1.06v3.21c0,1.1.34,1.85,1.3,1.85.71,0,1.2-.49,1.39-.96.06-.16.1-.35.1-.54v-3.56h1.06v4.22Z"/>
    <path d="M690.57,419.67c0-.68-.01-1.27-.05-1.81h.92l.04,1.14h.05c.26-.78.9-1.27,1.61-1.27.12,0,.2.01.3.04v1c-.11-.02-.22-.04-.36-.04-.74,0-1.27.56-1.42,1.36-.02.14-.05.31-.05.49v3.09h-1.04v-3.99Z"/>
    <path d="M694.96,420.95c.02,1.43.94,2.01,1.99,2.01.75,0,1.21-.13,1.61-.3l.18.76c-.37.17-1.01.36-1.93.36-1.79,0-2.85-1.17-2.85-2.93s1.03-3.13,2.72-3.13c1.9,0,2.4,1.67,2.4,2.73,0,.22-.02.38-.04.49h-4.08ZM698.06,420.19c.01-.67-.28-1.71-1.46-1.71-1.07,0-1.54.98-1.62,1.71h3.08Z"/>
    <path d="M700.24,422.58c.31.2.86.42,1.39.42.77,0,1.13-.38,1.13-.86,0-.5-.3-.78-1.08-1.07-1.04-.37-1.54-.95-1.54-1.64,0-.94.75-1.7,2-1.7.59,0,1.1.17,1.43.36l-.26.77c-.23-.14-.65-.33-1.19-.33-.62,0-.97.36-.97.79,0,.48.35.7,1.1.98,1.01.38,1.52.89,1.52,1.75,0,1.02-.79,1.74-2.17,1.74-.64,0-1.22-.16-1.63-.4l.26-.8Z"/>
    <path d="M708.86,416.22c.01.36-.25.65-.67.65-.37,0-.64-.29-.64-.65s.28-.66.66-.66.65.29.65.66ZM707.68,423.66v-5.8h1.06v5.8h-1.06Z"/>
    <path d="M710.49,419.43c0-.6-.01-1.09-.05-1.57h.94l.06.96h.02c.29-.55.96-1.09,1.92-1.09.8,0,2.05.48,2.05,2.47v3.47h-1.06v-3.35c0-.94-.35-1.71-1.34-1.71-.7,0-1.24.49-1.42,1.08-.05.13-.07.31-.07.49v3.49h-1.06v-4.23Z"/>
    <path d="M722.91,423.66l-.08-.73h-.04c-.32.46-.95.86-1.78.86-1.17,0-1.77-.83-1.77-1.67,0-1.4,1.25-2.17,3.49-2.16v-.12c0-.48-.13-1.34-1.32-1.34-.54,0-1.1.17-1.51.43l-.24-.7c.48-.31,1.18-.52,1.91-.52,1.78,0,2.21,1.21,2.21,2.38v2.17c0,.5.02,1,.1,1.39h-.96ZM722.75,420.7c-1.15-.02-2.46.18-2.46,1.31,0,.68.46,1.01,1,1.01.75,0,1.24-.48,1.4-.97.04-.11.06-.23.06-.34v-1.01Z"/>
    <path d="M733.04,415.15v7.02c0,.52.01,1.1.05,1.5h-.95l-.05-1.01h-.02c-.32.65-1.03,1.14-1.98,1.14-1.4,0-2.48-1.19-2.48-2.95-.01-1.93,1.19-3.12,2.6-3.12.89,0,1.49.42,1.75.89h.02v-3.47h1.05ZM731.98,420.22c0-.13-.01-.31-.05-.44-.16-.67-.73-1.22-1.52-1.22-1.09,0-1.74.96-1.74,2.24,0,1.18.58,2.15,1.71,2.15.71,0,1.36-.47,1.55-1.26.04-.14.05-.29.05-.46v-1.01Z"/>
    <path d="M735.97,416.22c.01.36-.25.65-.67.65-.37,0-.64-.29-.64-.65s.28-.66.66-.66.65.29.65.66ZM734.79,423.66v-5.8h1.06v5.8h-1.06Z"/>
    <path d="M742.6,417.86c-.02.42-.05.89-.05,1.6v3.37c0,1.33-.26,2.15-.83,2.65-.56.53-1.38.7-2.11.7s-1.46-.17-1.93-.48l.26-.8c.38.24.98.46,1.7.46,1.08,0,1.87-.56,1.87-2.03v-.65h-.02c-.32.54-.95.97-1.85.97-1.44,0-2.47-1.22-2.47-2.83,0-1.97,1.28-3.08,2.61-3.08,1.01,0,1.56.53,1.81,1.01h.02l.05-.88h.92ZM741.51,420.15c0-.18-.01-.34-.06-.48-.19-.61-.71-1.12-1.48-1.12-1.01,0-1.73.85-1.73,2.2,0,1.14.58,2.09,1.71,2.09.65,0,1.24-.41,1.46-1.08.06-.18.08-.38.08-.56v-1.04Z"/>
    <path d="M745.41,416.22c.01.36-.25.65-.67.65-.37,0-.64-.29-.64-.65s.28-.66.66-.66.65.29.65.66ZM744.23,423.66v-5.8h1.06v5.8h-1.06Z"/>
    <path d="M748.31,416.19v1.67h1.51v.8h-1.51v3.13c0,.72.2,1.13.79,1.13.28,0,.48-.04.61-.07l.05.79c-.2.08-.53.14-.94.14-.49,0-.89-.16-1.14-.44-.3-.31-.41-.83-.41-1.51v-3.17h-.9v-.8h.9v-1.39l1.03-.28Z"/>
    <path d="M754.23,423.66l-.08-.73h-.04c-.32.46-.95.86-1.78.86-1.17,0-1.77-.83-1.77-1.67,0-1.4,1.25-2.17,3.49-2.16v-.12c0-.48-.13-1.34-1.32-1.34-.54,0-1.1.17-1.51.43l-.24-.7c.48-.31,1.18-.52,1.91-.52,1.78,0,2.21,1.21,2.21,2.38v2.17c0,.5.02,1,.1,1.39h-.96ZM754.07,420.7c-1.15-.02-2.46.18-2.46,1.31,0,.68.46,1.01,1,1.01.75,0,1.24-.48,1.4-.97.04-.11.06-.23.06-.34v-1.01Z"/>
    <path d="M756.8,415.15h1.06v8.51h-1.06v-8.51Z"/>
    <path d="M762.59,417.86l.77,2.95c.17.65.32,1.25.43,1.85h.04c.13-.59.32-1.21.52-1.83l.95-2.96h.89l.9,2.9c.22.7.38,1.31.52,1.9h.04c.1-.59.25-1.2.44-1.88l.83-2.91h1.04l-1.87,5.8h-.96l-.89-2.77c-.2-.65-.37-1.22-.52-1.91h-.02c-.14.7-.32,1.29-.53,1.92l-.94,2.76h-.96l-1.75-5.8h1.08Z"/>
    <path d="M776.14,420.71c0,2.15-1.49,3.08-2.89,3.08-1.57,0-2.78-1.15-2.78-2.99,0-1.94,1.27-3.08,2.88-3.08s2.79,1.21,2.79,2.99ZM771.53,420.77c0,1.27.73,2.23,1.76,2.23s1.76-.95,1.76-2.25c0-.98-.49-2.23-1.74-2.23s-1.79,1.15-1.79,2.25Z"/>
    <path d="M777.47,419.67c0-.68-.01-1.27-.05-1.81h.92l.04,1.14h.05c.26-.78.9-1.27,1.61-1.27.12,0,.2.01.3.04v1c-.11-.02-.22-.04-.36-.04-.74,0-1.27.56-1.42,1.36-.02.14-.05.31-.05.49v3.09h-1.04v-3.99Z"/>
    <path d="M781.45,415.15h1.06v8.51h-1.06v-8.51Z"/>
    <path d="M789.29,415.15v7.02c0,.52.01,1.1.05,1.5h-.95l-.05-1.01h-.02c-.32.65-1.03,1.14-1.98,1.14-1.4,0-2.48-1.19-2.48-2.95-.01-1.93,1.19-3.12,2.6-3.12.89,0,1.49.42,1.75.89h.02v-3.47h1.06ZM788.24,420.22c0-.13-.01-.31-.05-.44-.16-.67-.73-1.22-1.52-1.22-1.09,0-1.74.96-1.74,2.24,0,1.18.58,2.15,1.72,2.15.71,0,1.35-.47,1.55-1.26.04-.14.05-.29.05-.46v-1.01Z"/>
    <path d="M795.88,415.34c-.88,1.18-1.51,2.73-1.51,4.91s.66,3.67,1.51,4.87h-.83c-.76-1-1.57-2.53-1.57-4.87.01-2.36.82-3.9,1.57-4.91h.83Z"/>
    <path d="M798.17,416.22c.01.36-.25.65-.67.65-.37,0-.64-.29-.64-.65s.28-.66.66-.66.65.29.65.66ZM797,423.66v-5.8h1.06v5.8h-1.06Z"/>
    <path d="M799.55,423.04c0-.44.3-.76.72-.76s.71.31.71.76-.28.75-.72.75c-.42,0-.71-.32-.71-.75Z"/>
    <path d="M802.88,420.95c.02,1.43.94,2.01,1.99,2.01.75,0,1.21-.13,1.61-.3l.18.76c-.37.17-1.01.36-1.93.36-1.79,0-2.85-1.17-2.85-2.93s1.03-3.13,2.72-3.13c1.9,0,2.4,1.67,2.4,2.73,0,.22-.02.38-.04.49h-4.08ZM805.97,420.19c.01-.67-.28-1.71-1.46-1.71-1.07,0-1.54.98-1.62,1.71h3.08Z"/>
    <path d="M807.91,423.04c0-.44.3-.76.72-.76s.71.31.71.76-.28.75-.72.75c-.42,0-.71-.32-.71-.75Z"/>
    <path d="M809.96,425.14c.26-.71.59-1.99.72-2.87l1.18-.12c-.28,1.02-.8,2.35-1.14,2.91l-.76.07Z"/>
    <path d="M820.68,415.15v7.02c0,.52.01,1.1.05,1.5h-.95l-.05-1.01h-.02c-.32.65-1.03,1.14-1.98,1.14-1.4,0-2.48-1.19-2.48-2.95-.01-1.93,1.19-3.12,2.6-3.12.89,0,1.49.42,1.75.89h.02v-3.47h1.05ZM819.63,420.22c0-.13-.01-.31-.05-.44-.16-.67-.73-1.22-1.52-1.22-1.09,0-1.74.96-1.74,2.24,0,1.18.58,2.15,1.71,2.15.71,0,1.36-.47,1.55-1.26.04-.14.05-.29.05-.46v-1.01Z"/>
    <path d="M823.61,416.22c.01.36-.25.65-.67.65-.37,0-.64-.29-.64-.65s.28-.66.66-.66.65.29.65.66ZM822.44,423.66v-5.8h1.06v5.8h-1.06Z"/>
    <path d="M830.25,417.86c-.02.42-.05.89-.05,1.6v3.37c0,1.33-.26,2.15-.83,2.65-.56.53-1.38.7-2.11.7s-1.46-.17-1.93-.48l.26-.8c.38.24.98.46,1.7.46,1.08,0,1.87-.56,1.87-2.03v-.65h-.02c-.32.54-.95.97-1.85.97-1.44,0-2.47-1.22-2.47-2.83,0-1.97,1.28-3.08,2.62-3.08,1.01,0,1.56.53,1.81,1.01h.02l.05-.88h.92ZM829.15,420.15c0-.18-.01-.34-.06-.48-.19-.61-.71-1.12-1.48-1.12-1.01,0-1.73.85-1.73,2.2,0,1.14.58,2.09,1.72,2.09.65,0,1.24-.41,1.46-1.08.06-.18.08-.38.08-.56v-1.04Z"/>
    <path d="M833.06,416.22c.01.36-.25.65-.67.65-.37,0-.64-.29-.64-.65s.28-.66.66-.66.65.29.65.66ZM831.88,423.66v-5.8h1.06v5.8h-1.06Z"/>
    <path d="M835.96,416.19v1.67h1.51v.8h-1.51v3.13c0,.72.2,1.13.79,1.13.28,0,.48-.04.61-.07l.05.79c-.2.08-.53.14-.94.14-.49,0-.89-.16-1.14-.44-.3-.31-.41-.83-.41-1.51v-3.17h-.9v-.8h.9v-1.39l1.03-.28Z"/>
    <path d="M841.88,423.66l-.08-.73h-.04c-.32.46-.95.86-1.78.86-1.17,0-1.77-.83-1.77-1.67,0-1.4,1.25-2.17,3.49-2.16v-.12c0-.48-.13-1.34-1.32-1.34-.54,0-1.1.17-1.51.43l-.24-.7c.48-.31,1.18-.52,1.91-.52,1.78,0,2.21,1.21,2.21,2.38v2.17c0,.5.02,1,.1,1.39h-.96ZM841.72,420.7c-1.15-.02-2.46.18-2.46,1.31,0,.68.46,1.01,1,1.01.75,0,1.24-.48,1.4-.97.04-.11.06-.23.06-.34v-1.01Z"/>
    <path d="M844.44,415.15h1.06v8.51h-1.06v-8.51Z"/>
    <path d="M851.09,416.19v1.67h1.51v.8h-1.51v3.13c0,.72.2,1.13.79,1.13.28,0,.48-.04.61-.07l.05.79c-.2.08-.53.14-.94.14-.49,0-.89-.16-1.14-.44-.3-.31-.41-.83-.41-1.51v-3.17h-.9v-.8h.9v-1.39l1.03-.28Z"/>
    <path d="M853.79,419.67c0-.68-.01-1.27-.05-1.81h.92l.04,1.14h.05c.26-.78.9-1.27,1.61-1.27.12,0,.2.01.3.04v1c-.11-.02-.22-.04-.36-.04-.74,0-1.27.56-1.42,1.36-.02.14-.05.31-.05.49v3.09h-1.04v-3.99Z"/>
    <path d="M860.87,423.66l-.08-.73h-.04c-.32.46-.95.86-1.77.86-1.18,0-1.78-.83-1.78-1.67,0-1.4,1.25-2.17,3.49-2.16v-.12c0-.48-.13-1.34-1.32-1.34-.54,0-1.1.17-1.51.43l-.24-.7c.48-.31,1.18-.52,1.91-.52,1.77,0,2.21,1.21,2.21,2.38v2.17c0,.5.02,1,.1,1.39h-.96ZM860.71,420.7c-1.15-.02-2.46.18-2.46,1.31,0,.68.46,1.01,1,1.01.76,0,1.24-.48,1.4-.97.04-.11.06-.23.06-.34v-1.01Z"/>
    <path d="M863.44,419.43c0-.6-.01-1.09-.05-1.57h.94l.06.96h.02c.29-.55.96-1.09,1.92-1.09.8,0,2.05.48,2.05,2.47v3.47h-1.06v-3.35c0-.94-.35-1.71-1.34-1.71-.7,0-1.24.49-1.42,1.08-.05.13-.07.31-.07.49v3.49h-1.06v-4.23Z"/>
    <path d="M869.96,422.58c.31.2.86.42,1.39.42.77,0,1.13-.38,1.13-.86,0-.5-.3-.78-1.08-1.07-1.04-.37-1.54-.95-1.54-1.64,0-.94.75-1.7,2-1.7.59,0,1.1.17,1.43.36l-.26.77c-.23-.14-.65-.33-1.19-.33-.62,0-.97.36-.97.79,0,.48.35.7,1.1.98,1.01.38,1.52.89,1.52,1.75,0,1.02-.79,1.74-2.17,1.74-.64,0-1.22-.16-1.63-.4l.26-.8Z"/>
    <path d="M874.96,423.66v-5h-.82v-.8h.82v-.28c0-.82.18-1.56.67-2.03.4-.38.92-.54,1.42-.54.37,0,.7.08.9.17l-.14.82c-.16-.07-.37-.13-.67-.13-.9,0-1.13.79-1.13,1.68v.31h1.4v.8h-1.4v5h-1.04Z"/>
    <path d="M883.45,420.71c0,2.15-1.49,3.08-2.89,3.08-1.57,0-2.78-1.15-2.78-2.99,0-1.94,1.27-3.08,2.88-3.08s2.79,1.21,2.79,2.99ZM878.85,420.77c0,1.27.73,2.23,1.76,2.23s1.76-.95,1.76-2.25c0-.98-.49-2.23-1.74-2.23s-1.79,1.15-1.79,2.25Z"/>
    <path d="M884.79,419.67c0-.68-.01-1.27-.05-1.81h.92l.04,1.14h.05c.26-.78.9-1.27,1.61-1.27.12,0,.2.01.3.04v1c-.11-.02-.22-.04-.36-.04-.74,0-1.27.56-1.42,1.36-.02.14-.05.31-.05.49v3.09h-1.04v-3.99Z"/>
    <path d="M888.76,419.43c0-.6-.01-1.09-.05-1.57h.92l.05.94h.04c.32-.55.86-1.07,1.82-1.07.79,0,1.39.48,1.64,1.16h.02c.18-.32.41-.58.65-.75.35-.26.73-.41,1.28-.41.77,0,1.91.5,1.91,2.52v3.42h-1.03v-3.29c0-1.12-.41-1.79-1.26-1.79-.6,0-1.07.44-1.25.96-.05.14-.08.34-.08.53v3.59h-1.03v-3.48c0-.92-.41-1.6-1.21-1.6-.66,0-1.14.53-1.31,1.06-.06.16-.08.34-.08.52v3.5h-1.03v-4.23Z"/>
    <path d="M901.98,423.66l-.08-.73h-.04c-.32.46-.95.86-1.78.86-1.17,0-1.77-.83-1.77-1.67,0-1.4,1.25-2.17,3.49-2.16v-.12c0-.48-.13-1.34-1.32-1.34-.54,0-1.1.17-1.51.43l-.24-.7c.48-.31,1.18-.52,1.91-.52,1.78,0,2.21,1.21,2.21,2.38v2.17c0,.5.02,1,.1,1.39h-.96ZM901.83,420.7c-1.15-.02-2.46.18-2.46,1.31,0,.68.46,1.01,1,1.01.75,0,1.24-.48,1.4-.97.04-.11.06-.23.06-.34v-1.01Z"/>
    <path d="M905.78,416.19v1.67h1.51v.8h-1.51v3.13c0,.72.2,1.13.79,1.13.28,0,.48-.04.61-.07l.05.79c-.2.08-.53.14-.94.14-.49,0-.89-.16-1.14-.44-.3-.31-.41-.83-.41-1.51v-3.17h-.9v-.8h.9v-1.39l1.03-.28Z"/>
    <path d="M909.65,416.22c.01.36-.25.65-.67.65-.37,0-.64-.29-.64-.65s.28-.66.66-.66.65.29.65.66ZM908.48,423.66v-5.8h1.06v5.8h-1.06Z"/>
    <path d="M916.54,420.71c0,2.15-1.49,3.08-2.89,3.08-1.57,0-2.78-1.15-2.78-2.99,0-1.94,1.27-3.08,2.88-3.08s2.79,1.21,2.79,2.99ZM911.93,420.77c0,1.27.73,2.23,1.76,2.23s1.76-.95,1.76-2.25c0-.98-.49-2.23-1.74-2.23s-1.79,1.15-1.79,2.25Z"/>
    <path d="M917.87,419.43c0-.6-.01-1.09-.05-1.57h.94l.06.96h.02c.29-.55.96-1.09,1.92-1.09.8,0,2.05.48,2.05,2.47v3.47h-1.06v-3.35c0-.94-.35-1.71-1.34-1.71-.7,0-1.24.49-1.42,1.08-.05.13-.07.31-.07.49v3.49h-1.06v-4.23Z"/>
    <path d="M923.9,425.11c.85-1.19,1.51-2.75,1.51-4.91s-.65-3.68-1.51-4.87h.82c.77.98,1.57,2.52,1.57,4.88s-.8,3.87-1.57,4.89h-.82Z"/>
    <path d="M927.69,423.04c0-.44.3-.76.72-.76s.71.31.71.76-.28.75-.72.75c-.42,0-.71-.32-.71-.75Z"/>
  </g>
</svg>