<?xml version="1.0" encoding="UTF-8"?><svg id="a" xmlns="http://www.w3.org/2000/svg" viewBox="0 0 988 525"><defs><style>.b{fill:#fff;stroke-width:2px;}.b,.c{stroke:#000;stroke-miterlimit:8;}.d{letter-spacing:0em;}.e{letter-spacing:0em;}.f{letter-spacing:0em;}.g,.h{letter-spacing:-.02em;}.i,.j{letter-spacing:0em;}.k{letter-spacing:0em;}.l{letter-spacing:0em;}.m{letter-spacing:0em;}.n,.o{letter-spacing:0em;}.o,.p{font-family:Arial-BoldMT, Arial;font-size:16px;}.q{letter-spacing:0em;}.q,.h,.r,.s,.t,.u,.j{font-family:ArialMT, Arial;font-size:13.71px;}.h,.s{text-decoration:underline;}.r{letter-spacing:0em;}.v{letter-spacing:0em;}.u,.w{letter-spacing:0em;}.x{letter-spacing:0em;}.y{letter-spacing:0em;}.a`{letter-spacing:0em;}.aa{letter-spacing:0em;}.ab{letter-spacing:0em;}.ac{letter-spacing:0em;}.ad{letter-spacing:0em;}.c{fill:none;}.ae{letter-spacing:0em;}.af{letter-spacing:0em;}.ag{letter-spacing:0em;}.ah{letter-spacing:0em;}.ai{letter-spacing:0em;}.aj{letter-spacing:0em;}.ak{letter-spacing:0em;}.al{letter-spacing:0em;}</style></defs><ellipse class="c" cx="342.67" cy="63.5" rx="47.33" ry="22.33"/><text class="s" transform="translate(304.43 68.17)"><tspan class="g" x="0" y="0">P</tspan><tspan x="8.83" y="0">e</tspan><tspan class="y" x="16.46" y="0">r</tspan><tspan class="af" x="21.01" y="0">s</tspan><tspan class="i" x="27.9" y="0">o</tspan><tspan class="f" x="35.44" y="0">n</tspan><tspan class="aj" x="43.03" y="0">a</tspan><tspan x="50.59" y="0">l-Nr.</tspan></text><text class="s" transform="translate(804.11 378.19)"><tspan class="g" x="0" y="0">Auftrags-Nr</tspan><tspan x="66.64" y="0">.</tspan></text><text class="s" transform="translate(711.9 68.17)"><tspan x="0" y="0">Projekt-Nr.</tspan></text><rect class="b" x="224.67" y="116.5" width="132.67" height="68"/><text class="p" transform="translate(250.16 156.17)"><tspan class="aa" x="0" y="0">M</tspan><tspan class="ab" x="13.3" y="0">i</tspan><tspan class="d" x="17.73" y="0">t</tspan><tspan x="23.01" y="0">ar</tspan><tspan class="ah" x="38.13" y="0">b</tspan><tspan x="47.94" y="0">e</tspan><tspan class="ab" x="56.83" y="0">i</tspan><tspan class="d" x="61.26" y="0">t</tspan><tspan class="n" x="66.54" y="0">e</tspan><tspan x="75.46" y="0">r</tspan></text><polygon class="c" points="233.33 262.5 291 237.17 348.67 262.5 291 287.83 233.33 262.5"/><text class="t" transform="translate(267.74 266.17)"><tspan class="e" x="0" y="0">e</tspan><tspan class="k" x="7.59" y="0">r</tspan><tspan class="y" x="12.25" y="0">b</tspan><tspan class="k" x="19.86" y="0">r</tspan><tspan class="aj" x="24.53" y="0">i</tspan><tspan class="ad" x="27.5" y="0">n</tspan><tspan x="35.08" y="0">gt</tspan></text><line class="c" x1="291.33" y1="184.5" x2="291.33" y2="237.48"/><text class="t" transform="translate(298.19 205.5)"><tspan x="0" y="0">1</tspan></text><ellipse class="c" cx="232.67" cy="63.5" rx="47.33" ry="22.33"/><text class="t" transform="translate(214.36 68.17)"><tspan class="m" x="0" y="0">N</tspan><tspan class="aj" x="9.93" y="0">a</tspan><tspan class="ak" x="17.49" y="0">m</tspan><tspan class="ac" x="28.98" y="0">e</tspan></text><ellipse class="c" cx="148.67" cy="150.17" rx="47.33" ry="22.33"/><text class="t" transform="translate(110.61 154.17)"><tspan class="ae" x="0" y="0">S</tspan><tspan class="ad" x="9.23" y="0">t</tspan><tspan class="w" x="12.99" y="0">u</tspan><tspan class="ad" x="20.58" y="0">n</tspan><tspan class="w" x="28.16" y="0">d</tspan><tspan class="ad" x="35.76" y="0">e</tspan><tspan class="ac" x="43.33" y="0">nsatz</tspan></text><line class="c" x1="196" y1="150.5" x2="224.89" y2="150.5"/><line class="c" x1="342.78" y1="85.83" x2="291.33" y2="116.41"/><line class="c" x1="232.67" y1="85.83" x2="291.28" y2="116.41"/><rect class="b" x="224.67" y="340.5" width="132.67" height="68"/><text class="p" transform="translate(257.71 381.13)"><tspan x="0" y="0">L</tspan><tspan class="n" x="9.77" y="0">e</tspan><tspan class="a`" x="18.69" y="0">i</tspan><tspan x="23.1" y="0">s</tspan><tspan class="v" x="32" y="0">t</tspan><tspan class="x" x="37.28" y="0">u</tspan><tspan class="n" x="47.1" y="0">n</tspan><tspan x="56.89" y="0">g</tspan></text><line class="c" x1="291.33" y1="340.81" x2="291.33" y2="287.83"/><ellipse class="c" cx="342.67" cy="461.5" rx="47.33" ry="22.33"/><text class="t" transform="translate(317.24 465.37)"><tspan class="l" x="0" y="0">S</tspan><tspan class="ag" x="9.2" y="0">t</tspan><tspan class="y" x="13.03" y="0">u</tspan><tspan class="e" x="20.64" y="0">n</tspan><tspan class="w" x="28.23" y="0">d</tspan><tspan class="ac" x="35.83" y="0">en</tspan></text><ellipse class="c" cx="232.67" cy="461.5" rx="47.33" ry="22.33"/><text class="t" transform="translate(213.69 465.37)"><tspan x="0" y="0">M</tspan><tspan class="aj" x="11.42" y="0">o</tspan><tspan class="al" x="18.98" y="0">n</tspan><tspan class="aj" x="26.58" y="0">a</tspan><tspan class="ai" x="34.14" y="0">t</tspan></text><line class="c" x1="342.78" y1="439.25" x2="291.33" y2="408.5"/><line class="c" x1="232.67" y1="439.25" x2="291.28" y2="408.5"/><text class="t" transform="translate(296.94 330.83)"><tspan x="0" y="0">n</tspan></text><ellipse class="c" cx="148.67" cy="396.83" rx="47.33" ry="22.33"/><text class="j" transform="translate(109.43 402.33)"><tspan x="0" y="0">Bezeichnung</tspan></text><text class="j" transform="translate(597.1 68.17)"><tspan x="0" y="0">Bezeichnung</tspan></text><line class="c" x1="196" y1="396.73" x2="224.89" y2="374.5"/><polygon class="c" points="430 374.83 488 349.83 546 374.83 488 399.83 430 374.83"/><text class="u" transform="translate(459.52 378.19)"><tspan x="0" y="0">gehört zu</tspan></text><rect class="b" x="630.67" y="340.5" width="132" height="68"/><text class="o" transform="translate(668.18 380.83)"><tspan x="0" y="0">Auftrag</tspan></text><line class="c" x1="357.33" y1="374.5" x2="430.21" y2="374.5"/><line class="c" x1="546" y1="374.5" x2="630.72" y2="374.5"/><polygon class="c" points="430 150.08 488 125.08 546 150.08 488 175.08 430 150.08"/><text class="q" transform="translate(473.76 154.17)"><tspan x="0" y="0">leitet</tspan></text><line class="c" x1="357.33" y1="149.75" x2="430.21" y2="149.75"/><line class="c" x1="546" y1="149.75" x2="630.72" y2="149.75"/><rect class="b" x="630.67" y="116.5" width="132" height="68"/><text class="p" transform="translate(669.55 156.17)"><tspan x="0" y="0">Projekt</tspan></text><polygon class="c" points="638.67 262.5 696.67 237.17 754.67 262.5 696.67 287.83 638.67 262.5"/><text class="u" transform="translate(672.74 266.17)"><tspan x="0" y="0">umfasst</tspan></text><line class="c" x1="696.67" y1="184.5" x2="696.67" y2="237.48"/><text class="t" transform="translate(703.65 205.5)"><tspan x="0" y="0">1</tspan></text><line class="c" x1="696.67" y1="340.81" x2="696.67" y2="287.83"/><text class="t" transform="translate(702.4 330.83)"><tspan x="0" y="0">n</tspan></text><text class="t" transform="translate(365.13 397.5)"><tspan x="0" y="0">n</tspan></text><text class="t" transform="translate(612.73 397.5)"><tspan x="0" y="0">1</tspan></text><ellipse class="c" cx="746.33" cy="461.5" rx="47" ry="22.33"/><text class="r" transform="translate(706.48 466.17)"><tspan x="0" y="0">Bezeichnung</tspan></text><ellipse class="c" cx="636.33" cy="461.5" rx="47" ry="22.33"/><text class="t" transform="translate(595.95 466.17)"><tspan class="l" x="0" y="0">S</tspan><tspan class="i" x="9.2" y="0">o</tspan><tspan class="y" x="16.75" y="0">l</tspan><tspan x="19.78" y="0">l-Aufwand</tspan></text><line class="c" x1="746.11" y1="439.25" x2="694.67" y2="408.5"/><line class="c" x1="636" y1="439.25" x2="694.62" y2="408.5"/><ellipse class="c" cx="839.33" cy="374.83" rx="47.33" ry="22.33"/><line class="c" x1="791.88" y1="374.5" x2="762.67" y2="374.5"/><ellipse class="c" cx="839.33" cy="118.17" rx="47.33" ry="22.33"/><ellipse class="c" cx="839.33" cy="179.5" rx="47.33" ry="22.33"/><text class="u" transform="translate(802.51 184.5)"><tspan x="0" y="0">Start-Datum</tspan></text><line class="c" x1="791.88" y1="179.53" x2="762.67" y2="150.5"/><line class="c" x1="762.67" y1="150.08" x2="791.97" y2="117.83"/><ellipse class="c" cx="745.67" cy="63.5" rx="47" ry="22.33"/><ellipse class="c" cx="635.67" cy="63.5" rx="47" ry="22.33"/><line class="c" x1="745.85" y1="85.83" x2="696.67" y2="116.41"/><line class="c" x1="635.33" y1="85.83" x2="696.21" y2="116.41"/><ellipse class="c" cx="148.67" cy="329.5" rx="47.33" ry="22.33"/><line class="c" x1="196" y1="329.17" x2="224.89" y2="374.42"/><text class="h" transform="translate(109.78 333.76)"><tspan x="0" y="0">Leistungs-Nr.</tspan></text><g><path d="M815.02,115.5l3.77-9.82h1.4l4.02,9.82h-1.48l-1.15-2.97h-4.1l-1.08,2.97h-1.38Zm2.83-4.03h3.33l-1.02-2.72c-.31-.83-.54-1.5-.7-2.04-.12,.63-.3,1.25-.53,1.88l-1.08,2.88Z"/><path d="M829.72,115.5v-1.04c-.55,.8-1.31,1.21-2.26,1.21-.42,0-.81-.08-1.17-.24-.36-.16-.63-.36-.81-.61-.18-.24-.3-.54-.37-.89-.05-.24-.07-.61-.07-1.12v-4.41h1.21v3.94c0,.63,.02,1.05,.07,1.27,.08,.32,.24,.57,.48,.75,.25,.18,.55,.27,.91,.27s.7-.09,1.02-.28c.32-.19,.54-.44,.67-.76,.13-.32,.2-.78,.2-1.39v-3.81h1.21v7.11h-1.08Z"/><path d="M832.95,115.5v-6.17h-1.07v-.94h1.07v-.76c0-.48,.04-.83,.13-1.06,.12-.31,.32-.57,.61-.76,.29-.19,.7-.29,1.23-.29,.34,0,.71,.04,1.12,.12l-.18,1.05c-.25-.04-.49-.07-.71-.07-.37,0-.62,.08-.78,.23-.15,.16-.23,.45-.23,.88v.66h1.39v.94h-1.39v6.17h-1.2Z"/><path d="M839.08,114.42l.17,1.06c-.34,.07-.64,.11-.91,.11-.44,0-.78-.07-1.02-.21s-.41-.32-.51-.55c-.1-.23-.15-.7-.15-1.42v-4.09h-.88v-.94h.88v-1.76l1.2-.72v2.48h1.21v.94h-1.21v4.16c0,.34,.02,.56,.06,.66,.04,.1,.11,.18,.21,.23s.23,.09,.41,.09c.13,0,.31-.02,.53-.05Z"/><path d="M840.21,115.5v-7.11h1.08v1.08c.28-.5,.53-.84,.77-1s.49-.24,.77-.24c.41,0,.82,.13,1.24,.39l-.42,1.12c-.29-.17-.59-.26-.88-.26-.26,0-.5,.08-.71,.24-.21,.16-.36,.38-.45,.66-.13,.43-.2,.9-.2,1.41v3.72h-1.21Z"/><path d="M849.41,114.62c-.45,.38-.88,.65-1.29,.8s-.86,.23-1.33,.23c-.78,0-1.38-.19-1.8-.57-.42-.38-.63-.87-.63-1.46,0-.35,.08-.67,.24-.95,.16-.29,.37-.52,.62-.69,.26-.17,.54-.31,.87-.4,.24-.06,.59-.12,1.07-.18,.97-.12,1.69-.25,2.15-.42,0-.17,0-.27,0-.31,0-.49-.11-.84-.34-1.04-.31-.27-.77-.41-1.37-.41-.57,0-.99,.1-1.25,.3-.27,.2-.47,.55-.6,1.05l-1.18-.16c.11-.5,.28-.91,.53-1.22,.25-.31,.6-.55,1.06-.72,.46-.17,1-.25,1.61-.25s1.1,.07,1.48,.21c.38,.14,.66,.32,.84,.54,.18,.22,.3,.49,.38,.82,.04,.21,.06,.58,.06,1.11v1.61c0,1.12,.03,1.83,.08,2.13,.05,.3,.15,.58,.3,.85h-1.26c-.12-.25-.21-.54-.24-.88Zm-.1-2.69c-.44,.18-1.09,.33-1.97,.46-.5,.07-.85,.15-1.05,.24-.21,.09-.36,.22-.48,.39-.11,.17-.17,.36-.17,.57,0,.32,.12,.59,.37,.8s.6,.32,1.07,.32,.88-.1,1.24-.3c.36-.2,.63-.48,.8-.83,.13-.27,.19-.67,.19-1.21v-.44Z"/><path d="M852.15,116.09l1.17,.17c.05,.36,.19,.62,.41,.79,.3,.22,.71,.33,1.23,.33,.56,0,.99-.11,1.29-.33,.3-.22,.51-.54,.62-.94,.06-.25,.09-.76,.09-1.55-.53,.62-1.18,.93-1.97,.93-.98,0-1.73-.35-2.27-1.06-.54-.71-.8-1.55-.8-2.54,0-.68,.12-1.3,.37-1.88,.25-.57,.6-1.02,1.07-1.33,.47-.31,1.01-.47,1.64-.47,.84,0,1.53,.34,2.08,1.02v-.86h1.11v6.15c0,1.11-.11,1.89-.34,2.35-.23,.46-.58,.83-1.07,1.09-.49,.27-1.09,.4-1.8,.4-.85,0-1.53-.19-2.06-.57-.52-.38-.77-.96-.76-1.72Zm1-4.27c0,.93,.19,1.61,.56,2.04,.37,.43,.83,.64,1.39,.64s1.02-.21,1.39-.64,.56-1.09,.56-2.01-.19-1.53-.58-1.97c-.39-.44-.85-.66-1.4-.66s-.99,.22-1.37,.65c-.38,.44-.56,1.08-.56,1.94Z"/><path d="M859.5,112.55v-1.21h3.7v1.21h-3.7Z"/><path d="M822.53,132.55l1.17,.17c.05,.36,.19,.62,.41,.79,.3,.22,.71,.33,1.23,.33,.56,0,.99-.11,1.29-.33,.3-.22,.51-.54,.62-.94,.06-.25,.09-.76,.09-1.55-.53,.62-1.18,.93-1.97,.93-.98,0-1.73-.35-2.27-1.06-.54-.71-.8-1.55-.8-2.54,0-.68,.12-1.3,.37-1.88,.25-.57,.6-1.02,1.07-1.33,.47-.31,1.01-.47,1.64-.47,.84,0,1.53,.34,2.08,1.02v-.86h1.11v6.15c0,1.11-.11,1.89-.34,2.35-.23,.46-.58,.83-1.07,1.09-.49,.27-1.09,.4-1.8,.4-.85,0-1.53-.19-2.06-.57-.52-.38-.77-.96-.76-1.72Zm1-4.27c0,.93,.19,1.61,.56,2.04,.37,.43,.83,.64,1.39,.64s1.02-.21,1.39-.64,.56-1.09,.56-2.01-.19-1.53-.58-1.97c-.39-.44-.85-.66-1.4-.66s-.99,.22-1.37,.65c-.38,.44-.56,1.08-.56,1.94Z"/><path d="M835.22,129.67l1.25,.15c-.2,.73-.56,1.29-1.09,1.69s-1.21,.6-2.04,.6c-1.04,0-1.87-.32-2.47-.96s-.91-1.54-.91-2.7,.31-2.12,.92-2.79c.62-.66,1.42-.99,2.4-.99s1.73,.32,2.33,.97,.9,1.56,.9,2.73c0,.07,0,.18,0,.32h-5.3c.04,.78,.27,1.38,.66,1.79,.4,.42,.89,.62,1.49,.62,.44,0,.82-.12,1.13-.35,.31-.23,.56-.6,.74-1.11Zm-3.96-1.95h3.97c-.05-.6-.21-1.05-.46-1.35-.38-.46-.88-.7-1.49-.7-.55,0-1.02,.19-1.4,.56-.38,.37-.59,.87-.63,1.49Z"/><path d="M839.07,131.96h-1.12v-9.82h1.21v3.5c.51-.64,1.16-.96,1.95-.96,.44,0,.85,.09,1.24,.26s.71,.42,.96,.74c.25,.32,.45,.7,.59,1.16,.14,.45,.21,.93,.21,1.45,0,1.22-.3,2.16-.9,2.83-.6,.67-1.33,1-2.17,1s-1.5-.35-1.98-1.05v.89Zm-.01-3.61c0,.85,.12,1.47,.35,1.85,.38,.62,.89,.93,1.54,.93,.53,0,.98-.23,1.37-.69s.58-1.14,.58-2.05-.18-1.61-.55-2.06-.81-.66-1.34-.66-.98,.23-1.37,.69-.58,1.12-.58,1.99Z"/><path d="M850.42,129.67l1.25,.15c-.2,.73-.56,1.29-1.09,1.69s-1.21,.6-2.04,.6c-1.04,0-1.87-.32-2.47-.96s-.91-1.54-.91-2.7,.31-2.12,.92-2.79c.62-.66,1.42-.99,2.4-.99s1.73,.32,2.33,.97,.9,1.56,.9,2.73c0,.07,0,.18,0,.32h-5.3c.04,.78,.27,1.38,.66,1.79,.4,.42,.89,.62,1.49,.62,.44,0,.82-.12,1.13-.35,.31-.23,.56-.6,.74-1.11Zm-3.96-1.95h3.97c-.05-.6-.21-1.05-.46-1.35-.38-.46-.88-.7-1.49-.7-.55,0-1.02,.19-1.4,.56-.38,.37-.59,.87-.63,1.49Z"/><path d="M853.14,131.96v-7.11h1.08v1.08c.28-.5,.53-.84,.77-1s.49-.24,.77-.24c.41,0,.82,.13,1.24,.39l-.42,1.12c-.29-.17-.59-.26-.88-.26-.26,0-.5,.08-.71,.24-.21,.16-.36,.38-.45,.66-.13,.43-.2,.9-.2,1.41v3.72h-1.21Z"/></g><text class="t" transform="translate(365.13 140.5)"><tspan x="0" y="0">1</tspan></text><text class="t" transform="translate(612.73 140.5)"><tspan x="0" y="0">n</tspan></text></svg>