<?xml version="1.0" encoding="UTF-8"?>
<svg id="Ebene_1" data-name="Ebene 1" xmlns="http://www.w3.org/2000/svg" xmlns:xlink="http://www.w3.org/1999/xlink" viewBox="0 0 1080 560">
  <defs>
    <style>
      .cls-1, .cls-2 {
        fill: none;
      }

      .cls-3 {
        fill: #8f8f8f;
      }

      .cls-4 {
        fill: #0433ff;
      }

      .cls-5 {
        isolation: isolate;
      }

      .cls-6 {
        clip-path: url(#clippath-1);
      }

      .cls-7 {
        clip-path: url(#clippath-3);
      }

      .cls-8 {
        clip-path: url(#clippath-4);
      }

      .cls-9 {
        clip-path: url(#clippath-2);
      }

      .cls-10 {
        clip-path: url(#clippath-6);
      }

      .cls-11 {
        clip-path: url(#clippath-5);
      }

      .cls-12 {
        fill: #fff;
      }

      .cls-2 {
        stroke: #000;
      }

      .cls-13 {
        clip-path: url(#clippath);
      }
    </style>
    <clipPath id="clippath">
      <rect class="cls-1" x="502.4" y="326.7" width="161.5" height="67.4"/>
    </clipPath>
    <clipPath id="clippath-1">
      <rect class="cls-1" x="502.4" y="326.7" width="161.5" height="67.4"/>
    </clipPath>
    <clipPath id="clippath-2">
      <rect class="cls-1" x="502.4" y="326.7" width="167.8" height="66.4"/>
    </clipPath>
    <clipPath id="clippath-3">
      <rect class="cls-1" x="502.4" y="326.7" width="167.8" height="66.4"/>
    </clipPath>
    <clipPath id="clippath-4">
      <rect class="cls-1" x="502.4" y="261.3" width="178.5" height="113.5"/>
    </clipPath>
    <clipPath id="clippath-5">
      <rect class="cls-1" x="502.4" y="261.3" width="178.5" height="113.5"/>
    </clipPath>
    <clipPath id="clippath-6">
      <rect class="cls-1" x="670.7" y="396.1" width="120.3" height="50.9"/>
    </clipPath>
  </defs>
  <g class="cls-5">
    <g>
      <g class="cls-5">
        <g class="cls-13">
          <g class="cls-6">
            <path class="cls-12" d="M502.4,326.7l160.6,67.2c.1-.3.3-.7.4-1l-161.1-66.2h.1Z"/>
          </g>
        </g>
      </g>
      <g class="cls-5">
        <g class="cls-9">
          <g class="cls-7">
            <path class="cls-3" d="M502.4,326.7l161.1,66.2c2.5-6.1,4.6-12.3,6.4-18.6l-167.5-47.6h0Z"/>
          </g>
        </g>
      </g>
      <g class="cls-5">
        <g class="cls-8">
          <g class="cls-11">
            <path d="M502.4,326.7l167.5,47.6c10.6-37.2,8.4-76.8-6-112.6l-161.5,65.1v-.1Z"/>
          </g>
        </g>
      </g>
      <g class="cls-5">
        <path class="cls-4" d="M502.4,326.7l161.5-65.1c-35.9-89.2-137.4-132.4-226.6-96.4-89.2,35.9-132.4,137.4-96.4,226.6,35.9,89.2,137.4,132.4,226.6,96.4,43.2-17.4,77.6-51.4,95.6-94.3l-160.6-67.2h-.1Z"/>
      </g>
    </g>
  </g>
  <g class="cls-5">
    <g class="cls-10">
      <line class="cls-2" x1="671.3" y1="396.8" x2="790.4" y2="446.2"/>
    </g>
  </g>
  <g class="cls-5">
    <line class="cls-2" x1="675.2" y1="386.6" x2="701.5" y2="395.7"/>
  </g>
  <g class="cls-5">
    <line class="cls-2" x1="685.2" y1="315.6" x2="711.8" y2="315.7"/>
  </g>
  <g class="cls-5">
    <line class="cls-2" x1="319.6" y1="326.8" x2="295.9" y2="326.9"/>
  </g>
</svg>